<?xml version="1.0" encoding="UTF-8"?>
<!DOCTYPE svg PUBLIC "-//W3C//DTD SVG 1.1//EN" "http://www.w3.org/Graphics/SVG/1.1/DTD/svg11.dtd">
<!-- Creator: CorelDRAW 2018 (64 Bit Versão de avaliação) -->
<svg xmlns="http://www.w3.org/2000/svg" xml:space="preserve" width="57.5954mm" height="56.1462mm" version="1.1" style="shape-rendering:geometricPrecision; text-rendering:geometricPrecision; image-rendering:optimizeQuality; fill-rule:evenodd; clip-rule:evenodd"
viewBox="0 0 1524.53 1486.17"
 xmlns:xlink="http://www.w3.org/1999/xlink">
 <defs>
  <style type="text/css">
   <![CDATA[
    .fil0 {fill:white;fill-rule:nonzero}
   ]]>
  </style>
 </defs>
 <g id="Camada_x0020_1">
  <metadata id="CorelCorpID_0Corel-Layer"/>
  <path class="fil0" d="M990.2 0l370.75 0c44.8,0 85.67,18.39 115.3,47.96l0.32 0.32c29.57,29.63 47.96,70.44 47.96,115.3l0 370.75c0,44.8 -18.39,85.67 -47.96,115.3l-0.32 0.32c-29.63,29.57 -70.5,47.96 -115.3,47.96l-370.75 0c-44.87,0 -85.67,-18.39 -115.3,-47.96l-0.32 -0.32c-29.57,-29.63 -47.96,-70.5 -47.96,-115.3l0 -370.75c0,-44.86 18.39,-85.67 47.96,-115.3l0.32 -0.32c29.63,-29.57 70.44,-47.96 115.3,-47.96zm-826.62 788.26l370.74 0c44.8,0 85.67,18.39 115.3,47.96l0.32 0.32c29.57,29.63 47.96,70.44 47.96,115.3l0 370.74c0,44.8 -18.39,85.67 -47.96,115.3l-0.32 0.32c-29.63,29.57 -70.5,47.96 -115.3,47.96l-370.74 0c-44.87,0 -85.67,-18.39 -115.3,-47.96l-0.32 -0.32c-29.57,-29.63 -47.96,-70.5 -47.96,-115.3l0 -370.74c0,-44.87 18.39,-85.67 47.96,-115.3l0.32 -0.32c29.63,-29.57 70.44,-47.96 115.3,-47.96zm370.74 161.04l-370.74 0 -1.9 0.64 -0.65 1.9 0 370.74 0.65 1.9 1.9 0.65 370.74 0 1.9 -0.65 0.64 -1.9 0 -370.74 -0.64 -1.9 -1.9 -0.64zm455.87 -161.04l370.75 0c44.8,0 85.67,18.39 115.3,47.96l0.32 0.32c29.57,29.63 47.96,70.44 47.96,115.3l0 370.74c0,44.8 -18.39,85.67 -47.96,115.3l-0.32 0.32c-29.63,29.57 -70.5,47.96 -115.3,47.96l-370.75 0c-44.87,0 -85.67,-18.39 -115.3,-47.96l-0.32 -0.32c-29.57,-29.63 -47.96,-70.5 -47.96,-115.3l0 -370.74c0,-44.87 18.39,-85.67 47.96,-115.3l0.32 -0.32c29.63,-29.57 70.44,-47.96 115.3,-47.96zm370.75 161.04l-370.75 0 -1.9 0.64 -0.64 1.9 0 370.74 0.64 1.9 1.9 0.65 370.75 0 1.9 -0.65 0.65 -1.9 0 -370.74 -0.65 -1.9 -1.9 -0.64zm-1197.36 -949.3l370.74 0c44.8,0 85.67,18.39 115.3,47.96l0.32 0.32c29.57,29.63 47.96,70.44 47.96,115.3l0 370.75c0,44.8 -18.39,85.67 -47.96,115.3l-0.32 0.32c-29.63,29.57 -70.5,47.96 -115.3,47.96l-370.74 0c-44.87,0 -85.67,-18.39 -115.3,-47.96l-0.32 -0.32c-29.57,-29.63 -47.96,-70.5 -47.96,-115.3l0 -370.75c0,-44.86 18.39,-85.67 47.96,-115.3l0.32 -0.32c29.63,-29.57 70.44,-47.96 115.3,-47.96zm370.74 161.04l-370.74 0 -1.9 0.65 -0.65 1.9 0 370.75 0.65 1.9 1.9 0.64 370.74 0 1.9 -0.64 0.64 -1.9 0 -370.75 -0.64 -1.9 -1.9 -0.65zm826.62 0l-370.75 0 -1.9 0.65 -0.64 1.9 0 370.75 0.64 1.9 1.9 0.64 370.75 0 1.9 -0.64 0.65 -1.9 0 -370.75 -0.65 -1.9 -1.9 -0.65z"/>
 </g>
</svg>
