<?xml version="1.0" encoding="UTF-8"?>
<!DOCTYPE svg PUBLIC "-//W3C//DTD SVG 1.1//EN" "http://www.w3.org/Graphics/SVG/1.1/DTD/svg11.dtd">
<!-- Creator: CorelDRAW -->
<svg xmlns="http://www.w3.org/2000/svg" xml:space="preserve" width="23.72mm" height="33.8669mm" version="1.1" style="shape-rendering:geometricPrecision; text-rendering:geometricPrecision; image-rendering:optimizeQuality; fill-rule:evenodd; clip-rule:evenodd"
viewBox="0 0 104.05 148.56"
 xmlns:xlink="http://www.w3.org/1999/xlink"
 xmlns:xodm="http://www.corel.com/coreldraw/odm/2003">
 <defs>
  <style type="text/css">
   <![CDATA[
    .fil0 {fill:red}
    .fil1 {fill:white}
   ]]>
  </style>
 </defs>
 <g id="Camada_x0020_1">
  <metadata id="CorelCorpID_0Corel-Layer"/>
  <path class="fil0" d="M26.59 111.93l8.77 14.95c1.05,1.75 1.88,3.26 2.92,4.98 1.58,2.62 7.28,12.92 9.07,14.65 1.47,1.43 3.31,2.3 5.46,1.99 4.38,-0.64 5.68,-4.32 7.87,-7.95 1.05,-1.74 1.92,-3.24 2.92,-4.99l20.51 -34.83c5.67,-9.51 15.73,-25.95 18.35,-36.31 9.18,-36.31 -22.83,-70.27 -59.75,-63.57 -16.63,3.26 -29.2,13.25 -37.13,28.09 -8.03,15.92 -7.11,32.06 0.94,47.71 6.19,12.03 13.12,23.66 20.06,35.28l0.01 0z"/>
  <path class="fil1" d="M44.63 74.26c-7.33,-2.27 -13.4,-7.84 -16.13,-15.02 -0.81,-2.13 -0.62,-0.39 -1.09,-3.76 -1.36,-9.65 0.28,-16.86 7.39,-23.91 6.14,-5.76 13.8,-7.64 22.08,-6.36 11.9,1.84 20.02,12.65 20.23,24.34 0.21,11.9 -5.79,20.91 -17.45,24.5 -5.15,1.59 -9.86,1.64 -15.04,0.21l0 0z"/>
 </g>
</svg>
