<?xml version="1.0" encoding="UTF-8"?>
<!DOCTYPE svg PUBLIC "-//W3C//DTD SVG 1.1//EN" "http://www.w3.org/Graphics/SVG/1.1/DTD/svg11.dtd">
<!-- Creator: CorelDRAW 2020 (64 Bit) -->
<svg xmlns="http://www.w3.org/2000/svg" xml:space="preserve" width="14.8848cm" height="14.8848cm" version="1.1" style="shape-rendering:geometricPrecision; text-rendering:geometricPrecision; image-rendering:optimizeQuality; fill-rule:evenodd; clip-rule:evenodd"
viewBox="0 0 62 62"
 xmlns:xlink="http://www.w3.org/1999/xlink"
 xmlns:xodm="http://www.corel.com/coreldraw/odm/2003">
 <defs>
  <style type="text/css">
   <![CDATA[
    .fil0 {fill:white}
   ]]>
  </style>
 </defs>
 <g id="Camada_x0020_1">
  <metadata id="CorelCorpID_0Corel-Layer"/>
  <path class="fil0" d="M38 50c1,-3 0,-3 2,-5l3 2c-1,1 -4,2 -4,2zm-30 -4c0,1 1,2 2,2l18 0c3,0 2,-4 0,-4l-19 0c-1,0 -2,1 -2,2zm0 -33c0,1 1,2 2,2l18 0c3,0 2,-4 0,-4l-18 0c-1,0 -2,1 -2,2zm0 11c0,1 1,2 2,2l30 0c2,0 2,-4 0,-4l-30 0c-1,0 -2,1 -2,2zm0 11c0,1 1,2 2,2l28 0c3,0 3,-4 0,-4l-29 0c-1,0 -2,1 -2,2zm28 20c1,0 8,-3 9,-4 0,4 1,7 -2,7l-36 0c-1,0 -2,-1 -2,-2l0 -51c0,-1 1,-2 2,-2l27 0 0 9c0,1 1,2 2,2l9 0 0 19c0,1 -8,8 -9,12l-2 7c0,1 1,2 2,2zm10 -11l-3 -2 10 -12 3 2 -10 12zm12 -15l-3 -2c3,-5 6,0 3,2zm-20 -25l7 6 -7 0 0 -6zm-37 1l0 52c0,3 3,5 5,5l37 0c2,0 4,-1 4,-3 2,-3 0,-11 1,-13l12 -14c1,-2 3,-3 3,-5 0,-5 -6,-7 -10,-3l-5 6 0 -16c0,-3 0,-4 -2,-6l-7 -7c-1,-1 -2,-1 -3,-1l-30 0c-2,0 -5,2 -5,5z"/>
 </g>
</svg>
