<?xml version="1.0" encoding="UTF-8"?>
<!DOCTYPE svg PUBLIC "-//W3C//DTD SVG 1.1//EN" "http://www.w3.org/Graphics/SVG/1.1/DTD/svg11.dtd">
<!-- Creator: CorelDRAW -->
<svg xmlns="http://www.w3.org/2000/svg" xml:space="preserve" width="34.1157mm" height="26.247mm" version="1.1" style="shape-rendering:geometricPrecision; text-rendering:geometricPrecision; image-rendering:optimizeQuality; fill-rule:evenodd; clip-rule:evenodd"
viewBox="0 0 692.81 533.02"
 xmlns:xlink="http://www.w3.org/1999/xlink"
 xmlns:xodm="http://www.corel.com/coreldraw/odm/2003">
 <defs>
  <style type="text/css">
   <![CDATA[
    .fil3 {fill:#FEFEFE}
    .fil6 {fill:#FFF212}
    .fil0 {fill:#3E4095}
    .fil2 {fill:#FEFEFE;fill-rule:nonzero}
    .fil7 {fill:#FFF688;fill-rule:nonzero}
    .fil5 {fill:#ED3237;fill-rule:nonzero}
    .fil4 {fill:#3E4095;fill-rule:nonzero}
    .fil1 {fill:url(#id0)}
   ]]>
  </style>
  <radialGradient id="id0" gradientUnits="userSpaceOnUse" gradientTransform="matrix(2.21499 -0 -0 2.21499 -546 -93)" cx="449.67" cy="76.94" r="374.72" fx="449.67" fy="76.94">
   <stop offset="0" style="stop-opacity:1; stop-color:#FFFBD6"/>
   <stop offset="0.321569" style="stop-opacity:1; stop-color:#F37435"/>
   <stop offset="0.509804" style="stop-opacity:1; stop-color:#F16136"/>
   <stop offset="0.678431" style="stop-opacity:1; stop-color:#EE4037"/>
   <stop offset="1" style="stop-opacity:1; stop-color:#ED3237"/>
  </radialGradient>
 </defs>
 <g id="Camada_x0020_1">
  <metadata id="CorelCorpID_0Corel-Layer"/>
  <g id="_2339720588080">
   <polygon class="fil0" points="2.53,427.58 690.28,427.58 690.28,530.48 2.53,530.48 "/>
   <path class="fil1" d="M346.86 2.53c120.54,-1.17 219.81,96.18 220.99,216.72 1.17,120.54 -96.18,219.81 -216.72,220.99 -120.54,1.18 -219.81,-96.18 -220.99,-216.72 -1.17,-120.54 96.18,-219.81 216.72,-220.99z"/>
   <g>
    <path class="fil2" d="M570.39 221.81l-5.06 0 0 0 -0.28 -11.16 -0.84 -11.01 -1.37 -10.85 -1.9 -10.67 -2.42 -10.49 -2.91 -10.28 -3.4 -10.07 -3.87 -9.84 -4.33 -9.6 -4.78 -9.35 -5.21 -9.08 -5.63 -8.8 -6.03 -8.5 -6.42 -8.19 -6.8 -7.87 -7.16 -7.53 -7.51 -7.18 -7.85 -6.81 -8.17 -6.44 -8.48 -6.04 -8.78 -5.64 -9.06 -5.22 -9.33 -4.79 -9.58 -4.34 -9.82 -3.88 -10.05 -3.41 -10.26 -2.92 -10.46 -2.42 -10.65 -1.91 -10.82 -1.38 -10.98 -0.84 -11.13 -0.28 0 -5.06 11.39 0.29 11.24 0.86 11.08 1.41 10.9 1.95 10.71 2.48 10.51 2.99 10.29 3.49 10.05 3.97 9.81 4.44 9.54 4.9 9.27 5.34 8.98 5.77 8.68 6.18 8.36 6.59 8.03 6.97 7.69 7.35 7.33 7.7 6.96 8.05 6.57 8.38 6.17 8.7 5.76 9 5.33 9.29 4.89 9.56 4.43 9.83 3.97 10.07 3.48 10.31 2.98 10.53 2.47 10.73 1.95 10.92 1.41 11.1 0.86 11.26 0.29 11.41 0 0zm-145.61 203.23l0 5.06 -0.88 -4.91 7.67 -3 7.52 -3.29 7.37 -3.56 7.22 -3.83 7.05 -4.09 6.88 -4.34 6.7 -4.59 6.52 -4.84 6.33 -5.07 6.13 -5.3 5.93 -5.52 5.72 -5.74 5.5 -5.95 5.28 -6.15 5.05 -6.35 4.81 -6.54 4.57 -6.72 4.32 -6.9 4.07 -7.07 3.81 -7.24 3.54 -7.39 3.27 -7.54 2.99 -7.69 2.7 -7.83 2.4 -7.96 2.11 -8.08 1.8 -8.2 1.48 -8.32 1.17 -8.43 0.84 -8.53 0.51 -8.62 0.17 -8.71 5.06 0 -0.17 8.91 -0.52 8.82 -0.86 8.72 -1.2 8.62 -1.52 8.51 -1.84 8.4 -2.15 8.28 -2.46 8.15 -2.76 8.01 -3.06 7.87 -3.34 7.72 -3.62 7.57 -3.9 7.41 -4.17 7.23 -4.43 7.06 -4.68 6.88 -4.93 6.69 -5.16 6.49 -5.4 6.3 -5.63 6.09 -5.85 5.87 -6.06 5.65 -6.27 5.42 -6.47 5.19 -6.67 4.94 -6.86 4.7 -7.04 4.45 -7.22 4.19 -7.38 3.92 -7.54 3.64 -7.7 3.36 -7.85 3.08 -0.88 -4.91zm0 5.06l-14.15 0 13.27 -4.91 0.88 4.91zm265.49 0l-265.49 0 0 -5.06 265.49 0 2.53 2.53 -2.53 2.53zm0 -5.06l2.53 0 0 2.53 -2.53 -2.53zm-2.53 105.44l0 -102.91 5.06 0 0 102.91 -2.53 2.53 -2.53 -2.53zm5.06 0l0 2.53 -2.53 0 2.53 -2.53zm-690.28 -2.53l687.75 0 0 5.06 -687.75 0 -2.53 -2.53 2.53 -2.53zm0 5.06l-2.53 0 0 -2.53 2.53 2.53zm2.53 -105.44l0 102.91 -5.06 0 0 -102.91 2.53 -2.53 2.53 2.53zm-5.06 0l0 -2.53 2.53 0 -2.53 2.53zm273.21 2.53l-270.68 0 0 -5.06 270.68 0 0.88 0.16 -0.88 4.91zm0.88 -4.91l13.27 4.91 -14.15 0 0.88 -4.91zm-146.49 -203.39l5.06 0 0 0 0.17 8.71 0.51 8.62 0.84 8.53 1.17 8.43 1.48 8.32 1.8 8.2 2.11 8.08 2.4 7.96 2.7 7.83 2.99 7.69 3.27 7.54 3.54 7.39 3.81 7.24 4.07 7.07 4.32 6.9 4.57 6.72 4.81 6.54 5.05 6.35 5.28 6.15 5.5 5.95 5.72 5.74 5.93 5.52 6.13 5.3 6.33 5.07 6.52 4.84 6.7 4.59 6.88 4.34 7.05 4.09 7.22 3.83 7.37 3.56 7.52 3.29 7.67 3 -1.76 4.75 -7.85 -3.08 -7.7 -3.36 -7.54 -3.64 -7.38 -3.92 -7.22 -4.19 -7.04 -4.45 -6.86 -4.7 -6.67 -4.94 -6.47 -5.19 -6.27 -5.42 -6.06 -5.65 -5.85 -5.87 -5.63 -6.09 -5.4 -6.3 -5.16 -6.49 -4.93 -6.69 -4.68 -6.88 -4.43 -7.06 -4.17 -7.23 -3.9 -7.41 -3.62 -7.57 -3.34 -7.72 -3.06 -7.87 -2.76 -8.01 -2.46 -8.15 -2.15 -8.28 -1.84 -8.4 -1.52 -8.51 -1.2 -8.62 -0.86 -8.72 -0.52 -8.82 -0.17 -8.91 0 0zm221.39 -221.81l0 5.06 0 0 -11.13 0.28 -10.98 0.84 -10.82 1.38 -10.65 1.91 -10.46 2.42 -10.26 2.92 -10.05 3.41 -9.82 3.88 -9.58 4.34 -9.33 4.79 -9.06 5.22 -8.78 5.64 -8.48 6.04 -8.17 6.44 -7.85 6.81 -7.51 7.18 -7.16 7.53 -6.8 7.87 -6.42 8.19 -6.03 8.5 -5.63 8.8 -5.21 9.08 -4.78 9.35 -4.33 9.6 -3.87 9.84 -3.4 10.07 -2.91 10.28 -2.42 10.49 -1.9 10.67 -1.37 10.85 -0.84 11.01 -0.28 11.16 -5.06 0 0.29 -11.41 0.86 -11.26 1.41 -11.1 1.95 -10.92 2.47 -10.73 2.98 -10.53 3.48 -10.31 3.97 -10.07 4.43 -9.83 4.89 -9.56 5.33 -9.29 5.76 -9 6.17 -8.7 6.57 -8.38 6.96 -8.05 7.33 -7.7 7.69 -7.35 8.03 -6.97 8.36 -6.59 8.68 -6.18 8.98 -5.77 9.27 -5.34 9.55 -4.9 9.81 -4.44 10.05 -3.97 10.29 -3.49 10.51 -2.99 10.71 -2.48 10.9 -1.95 11.08 -1.41 11.24 -0.86 11.39 -0.29 0 0z"/>
   </g>
   <path class="fil3" d="M385.17 257.28l66.08 -38.02 66.89 0 -1.22 67.69 -70.71 0 1.8 -7.28 -26.31 0 -10.68 7.28 -38.09 0c-11.48,9.23 -27.46,15.76 -44.34,20.47 -27.52,7.66 -57.56,10.5 -87.34,10.5 -24.35,0 -57.4,-1.79 -76.51,-12.85 -18.24,-10.56 -16.09,-24.71 -5.79,-37.9l2.33 -2.98 94.97 0 21.59 -27.62 -84.14 0 5.85 -7.15c26.47,-32.32 83.53,-41.13 135.84,-41.13 21.21,0 48.51,1.53 66.24,9.9 16.19,7.6 18.91,18.18 10.02,29.55 -8.06,10.31 -21.37,17.05 -37.48,21.44 4.74,2.01 8.63,4.68 11,8.1zm-73.72 -28.78c-6.17,-0.51 -11.35,1.21 -14.48,4.64 5.1,-0.46 11.72,-1.61 14.48,-4.64zm-48.69 38.08l-3.09 4.47c-0.54,0.78 -2.19,3.45 -1.82,4.42 1.03,0.95 19.65,1.34 25.51,-6.16 0.24,-0.31 0.8,-1.09 0.91,-1.57 -3.48,-1.67 -16.03,-1.15 -21.5,-1.15z"/>
   <path class="fil4" d="M284.83 238.34c10.86,0 27.49,-0.21 33.57,-7.98 5.7,-7.29 -11.2,-8.52 -20.53,-4.69 -3.38,1.37 -6.14,3.4 -8.2,6.04l-83.52 0c26.02,-31.77 83.72,-38.56 129.24,-38.56 28.57,0 49.19,2.99 61.86,8.98 12.69,5.96 15.26,13.78 7.73,23.4 -11.32,14.48 -34.11,20.4 -54.36,23.32 13.69,1.51 22.56,4.58 26.75,9.2 4.19,4.61 3.44,10.54 -2.23,17.8 -8.85,11.33 -25.36,20.36 -49.52,27.1 -24.21,6.74 -52.35,10.11 -84.4,10.11 -34.35,0 -58.17,-3.88 -71.54,-11.62 -13.37,-7.74 -14.76,-18.42 -4.09,-32.06l0.25 -0.32 87 0c-6.28,9.08 0.12,11.78 9.97,11.78 9.16,0 21.81,-2.46 27.19,-9.33 7.84,-10.03 -13.01,-10.06 -20.99,-9.84 -0.96,0.03 -1.75,0.05 -2.46,0.05l18.27 -23.38z"/>
   <path class="fil5" d="M438.97 261.02l21.09 0c1.57,-7.37 2.42,-13.57 6.69,-19.31l-0.86 0c-6.07,6.1 -18.42,13.75 -26.93,19.31zm-85.62 21.07l100.73 -57.96 56.5 0 -1.05 57.96 -54.56 0 1.79 -7.28 -38.27 0 -10.68 7.28 -54.46 0z"/>
   <path class="fil0" d="M88.53 366.66l-6.47 -0.42 -1.59 2.9 15.47 1.07 0 13.65 -69.29 0 0 -13.59 19.02 -1.52 13.45 -24.26 -12.62 -0.88 0 -13.65 59.26 0.06c8.11,0 21.92,0.86 28.78,5.42 3.62,2.4 5.79,5.92 5.79,10.3l0 4.09c-1.5,0.58 -0.65,0.03 -1.59,1.77 -5.66,10.45 -21.54,13.24 -32.38,14.48 -3.27,0.37 -13.44,1.05 -17.82,0.58zm1.05 -14.11c4.51,0 7.76,-0.11 11.92,-2.37 1.62,-0.88 4.07,-3.29 4.07,-4.88 -3.06,-0.85 -8.15,-0.56 -11.7,-0.56l-4.29 7.81zm92.18 -10.89l-8.41 -0.42 0 -13.31c11.77,-0.42 22.79,-1.1 34.46,-2.24l6.73 -0.61 11.34 -1.09 -25.6 45.8 8.61 0.76 0 13.3 -56.94 0 0 -13.31 14.91 -1.29 14.92 -27.6zm135.43 26.38l7.3 0.35 0 13.3 -20.19 1.23 -12.2 0.92c-4.29,0.23 -14.72,1.87 -18.81,2.44l2.2 -3.8 -8.69 1.44c-6.61,0.71 -17.66,1.38 -22.72,-2.78 -5.43,-4.46 -4.99,-7.94 -4.99,-13.36l1.04 -0.8c1.15,-2.64 2.88,-4.98 4.93,-7.02 10.08,-10.07 33.44,-16.08 47.73,-17.05 15.2,-1.03 21.8,-0.03 37.54,1.64l-13.16 23.47zm-27.28 -10.58c-2.69,0.35 -3.13,0.42 -5.91,1.82 -3.57,1.79 -7.78,5.11 -10.51,8.23 4.7,0 5.65,-0.18 9.93,-1.18l2.13 -0.59 4.37 -8.28zm94.89 -11.7c12.39,-3.66 29.43,-4.37 42.69,-1.89 5.05,0.94 11.2,3.29 11.2,9.5 0,4.08 -2.32,6.38 -4.94,9.1l12.14 5.88 -18.83 9.67c-10.73,5.82 -22.35,6.63 -34.34,6.63 -9.56,0 -24.48,-0.48 -31.02,-8.74 -2.78,-3.51 -2.77,-6.2 -2.77,-9.94 0,-2.77 2.4,-6.47 4.28,-8.46 0.98,-1.04 -0.32,-0.2 1.63,-1.71 3.66,-2.83 4.96,-3.94 9.57,-6.16 3.33,-1.6 6.84,-2.86 10.39,-3.87zm38.92 17.05l-8.88 -0.03 -14.45 -3.36 2.79 -2.16c-2.48,0.7 -6.02,2.47 -7.93,4.2 -0.79,0.72 -0.63,0.52 -0.63,1.66 -1.98,1.54 -1.73,1.17 -2.49,3.58 1.98,2.09 13.24,1.51 15.84,1.21 5.32,-0.62 10.42,-2.72 15.27,-4.91l0.48 -0.18zm118.59 5.23l7.3 0.35 0 13.3 -20.19 1.23 -12.2 0.92c-4.29,0.23 -14.72,1.87 -18.81,2.44l2.2 -3.8 -8.69 1.44c-6.61,0.71 -17.66,1.38 -22.72,-2.78 -5.42,-4.46 -4.99,-7.94 -4.99,-13.36l1.04 -0.8c1.15,-2.64 2.88,-4.98 4.93,-7.02 10.08,-10.07 33.44,-16.08 47.73,-17.05 15.2,-1.03 21.8,-0.03 37.54,1.64l-13.15 23.47zm-27.28 -10.58c-2.69,0.35 -3.13,0.42 -5.92,1.82 -3.57,1.79 -7.78,5.11 -10.51,8.23 4.71,0 5.65,-0.18 9.93,-1.18l2.13 -0.59 4.37 -8.28zm136.75 -2.93l-1.32 3.12 -1.67 5.87c2.95,4.06 2.36,9.17 -1.06,12.8 -10.51,11.13 -46.5,8.74 -59.82,6.09l-11.09 -2.15 7.33 -7.57c0.73,-3.13 2.55,-7.23 3.55,-10.69l4.24 -0.06c-1.09,-2.36 -0.84,-5.77 0.2,-8.12 3.03,-6.8 14.08,-9.91 20.79,-10.68 15.09,-1.73 29.07,0.21 44.17,1.8l-4.8 8.42c-0.4,0.93 -0.35,0.9 -0.53,1.17z"/>
   <path class="fil6" d="M88.7 363.68l-8.3 -0.6 -4.79 8.71 17.35 1.2 0 7.89 -63.33 0 0 -7.86 17.87 -1.42 16.49 -29.75 -14.52 -1.02 0 -7.88 56.28 0.06c7.43,0.04 20.85,0.75 27.13,4.92 2.76,1.83 4.46,4.47 4.46,7.81l0 2.04c-0.76,0.29 -0.12,0.06 -0.8,1.38 -0.69,1.35 -0.73,1.9 -2.09,3.52 -8.24,9.83 -31.4,11.12 -43.39,11.12l-2.37 -0.12zm-3.95 -8.52c4.01,0.78 11.58,0.42 15.09,-0.94 3.82,-1.48 7.38,-3.79 8.66,-7.88l0.06 -1.34c0.61,-0.47 0.52,-1.55 -1.22,-2.23 -3.91,-1.52 -10.64,-1 -15.25,-0.95l-7.33 13.34zm101.89 -16.25l-10.3 -0.51 0 -7.6c10.6,-0.37 21.21,-1.12 31.77,-2.15l12.39 -1.15 -25.07 44.85 10.48 0.93 0 7.59 -50.98 0 0 -7.6 13.78 -1.19 17.93 -33.18zm125.59 31.87l9.28 0.45 0 7.62 -22.17 1.47 -7.39 0.55 -12.99 1.62 2.58 -4.46c-6.38,1.62 -14.79,3.39 -21.31,3.39 -6.26,0 -12.99,0.44 -16.87,-5.42 -1.5,-2.26 -1.28,-4.2 -1.28,-6.72l0.51 -0.39c0.99,-2.58 2.63,-4.84 4.59,-6.79 8.83,-8.83 28.3,-14.01 40.57,-15.59 14.26,-1.84 23.61,-0.94 37.78,0.56l-13.3 23.72zm-17.36 -16.33c-2.34,-0.22 -6.55,-0.06 -8.69,0.65 -5.31,1.76 -12.47,6.98 -15.89,11.63 -0.48,0.65 -0.36,0.33 -0.36,1.7l-0.16 0.06 0 0.25 -0.9 0.35c-0.45,1.82 5.42,1.41 6.21,1.41l0 0.11c4.42,-0.1 7.94,-1.14 12.06,-2.2l0.43 -0.13 7.29 -13.82zm90.76 -5.83c11.92,-3.53 28.54,-4.21 41.32,-1.82 4.04,0.76 9.7,2.48 8.63,7.9 -0.41,2.1 -2.08,3.74 -3.46,5.17l-16.92 -0.07 -8.01 -1.86 5.1 -4.06c0.05,-0.14 0.08,-0.21 0.11,-0.27 -5.51,-1.61 -15.09,1.96 -19.14,5.65 -0.6,0.55 -1.14,1.16 -1.61,1.83l0 0.57c-1.54,1.2 -1.71,2.23 -2.27,3.88 -2.36,7.01 15.13,5.77 18.95,5.32 5.63,-0.65 11.02,-2.83 16.15,-5.15l4.96 -2.04 9.73 4.71 -13.52 7c-10.23,5.55 -21.49,6.26 -32.91,6.26 -9.35,0 -30.8,-0.41 -30.8,-14.09 0,-2.98 0.09,-3.45 2.36,-6.61l1.62 -1.9 0.78 -0.9c3.45,-2.67 4.61,-3.69 9.05,-5.84 3.18,-1.53 6.53,-2.73 9.92,-3.69zm151.72 22.16l9.28 0.45 0 7.62 -22.17 1.47 -7.39 0.55 -12.99 1.62 2.58 -4.46c-6.38,1.62 -14.79,3.39 -21.31,3.39 -6.26,0 -12.98,0.44 -16.87,-5.42 -1.5,-2.26 -1.28,-4.2 -1.28,-6.72l0.51 -0.39c0.99,-2.58 2.63,-4.84 4.58,-6.79 8.83,-8.83 28.3,-14.01 40.57,-15.59 14.26,-1.84 23.61,-0.94 37.78,0.56l-13.3 23.72zm-17.36 -16.33c-2.34,-0.22 -6.55,-0.06 -8.69,0.65 -5.3,1.76 -12.47,6.98 -15.89,11.63 -0.48,0.65 -0.36,0.33 -0.36,1.7l-0.16 0.06 0 0.25 -0.9 0.35c-0.45,1.82 5.42,1.41 6.21,1.41l0 0.11c4.42,-0.1 7.94,-1.14 12.06,-2.2l0.43 -0.13 7.29 -13.82zm129.04 -1.19c-0.53,1.63 -1.12,2.15 -1.47,3.74l-1.25 4.46 -5.26 -0.06c9.17,3.9 8.55,12.02 0.25,15.86 -12.12,5.63 -34,4.86 -46.89,3.19l-11.6 -2.08 3.96 -4.12c0.81,-1.67 2.47,-7.21 3.2,-9.32l8.58 -0.11c-2.04,-1.26 -4.31,-3.7 -4.31,-6.23 0,-5.37 3.91,-7.82 8.66,-9.91 6.73,-2.96 16.57,-3.28 23.87,-3.28 7.04,0 18.82,1.3 25.5,2.01l-2.67 4.75c-0.16,0.37 -0.34,0.74 -0.55,1.09zm-12.88 6.26l-0.12 -4.74c-4.82,-1.11 -13.33,-2.11 -18.06,-0.34 3.91,1.64 13.55,3.54 18.19,5.07zm-36.76 5.78l0.97 6.58c4.22,1.18 7.21,1.54 11.57,1.8 3.6,0.21 6.61,0.03 9.96,-1.24 -2.07,-1.22 -8.53,-2.38 -11.53,-3.35 -3.4,-1.1 -7.5,-1.94 -10.98,-3.79z"/>
   <path class="fil4" d="M32.61 377.9l0 -2.12 16.72 -1.33 19.54 -35.24 -16.41 -1.15 0 -2.12 50.8 0.06c7.35,0 24.69,0.15 29.7,5.99 1.12,1.31 1.41,2.02 1.41,3.75 -0.34,0.13 -0.08,0.76 -0.16,1.03l-0.78 2.06c-5.02,10.56 -33.39,12.59 -44.54,11.87l-4.69 -0.24 0.94 -2.18c2.31,0.45 8.59,0.21 10.79,-0.06 5.71,-0.69 12.19,-3.86 14.69,-9.18l0.94 -2.57 0.31 -1.94c0,-6.92 -12.66,-5.75 -18.6,-5.75l-2.97 0.12 -19.54 35.54 19.23 1.33 0 2.12 -57.36 0zm158.9 -41.72l-12.19 -0.61 0 -1.88c9.52,-0.34 21.5,-1.29 31.26,-2.24l4.53 -0.42 -24.54 43.9 12.35 1.09 0 1.88 -45.01 0 0 -1.88 12.66 -1.09 20.94 -38.76zm115.76 37.36l11.25 0.54 0 1.94 -19.38 1.33 -14.54 1.33 3.13 -5.39 -5.16 1.39c-8.02,1.84 -14.37,3.75 -23.06,3.75 -3.69,0 -9.02,0.1 -11.64,-1.88 -2.44,-1.84 -2.81,-3.45 -2.81,-5.81 0.61,-0.47 1.06,-9.55 23.99,-17.02 11.19,-3.64 22.93,-5.27 34.7,-5.27 5.62,0 11.36,0.5 16.96,1.09l-13.44 23.98zm-17.66 -2.73l10 -18.95 -0.94 -0.06c-2.29,0 -4.81,-0.61 -8.36,-0.36 -6.69,0.47 -10.38,2.98 -15.71,6.9 -2.29,1.68 -5.04,4.35 -6.72,6.63l-0.94 1.42 -0.16 0.3c-0.71,0.27 -3.24,6.49 5,6.78l0.31 0 5.39 -0.03c3.78,-0.38 5.92,-0.99 9.46,-1.91l2.66 -0.67 0 -0.06zm142.81 -2.36c-11.23,5.65 -14.39,8.72 -28.84,9.84 -9.16,0.71 -25.08,0.89 -32.43,-2.63 -3.98,-1.91 -6.25,-4.07 -6.25,-8.08 0,-2.32 0.04,-2.42 1.8,-4.88 5.81,-8.11 21.67,-12.34 31.03,-13.53 8.64,-1.1 19.83,-1.08 28.68,0.57 5.06,0.95 8.71,2.75 4.45,7.15l-15.32 -0.06 -1.56 -0.36c0.76,-0.59 2.42,-2.9 1.33,-4.51 -1.67,-2.46 -9.22,-1.67 -12.11,-0.88 -5.27,1.45 -11.38,4.16 -14.46,8.9 -0.05,0.08 -0.08,0.16 -0.08,0.24l-1.72 3.03c-1.12,3.22 -1.45,5.75 1.72,8.36 3.8,3.13 15.01,2.82 20.01,2.24 5.91,-0.69 11.69,-2.98 17.04,-5.39l3.28 -1.33 0.31 -0.18 3.13 1.51zm99.98 5.09l11.25 0.54 0 1.94 -19.38 1.33 -14.54 1.33 3.13 -5.39 -5.16 1.39c-8.02,1.84 -14.37,3.75 -23.05,3.75 -3.7,0 -9.02,0.1 -11.64,-1.88 -2.44,-1.84 -2.81,-3.45 -2.81,-5.81 0.61,-0.47 1.06,-9.55 23.99,-17.02 11.18,-3.64 22.92,-5.27 34.7,-5.27 5.62,0 11.36,0.5 16.96,1.09l-13.44 23.98zm-17.66 -2.73l10 -18.95 -0.94 -0.06c-2.3,0 -4.81,-0.61 -8.36,-0.36 -6.69,0.47 -10.37,2.98 -15.71,6.9 -2.28,1.68 -5.04,4.35 -6.72,6.63l-0.94 1.42 -0.16 0.3c-0.71,0.27 -3.24,6.49 5,6.78l0.31 0 5.39 -0.03c3.78,-0.38 5.92,-0.99 9.46,-1.91l2.66 -0.67 0 -0.06z"/>
   <path class="fil4" d="M588.77 376.5c1.36,-1.41 1.19,-3.33 1.72,-4.24l0.78 -2.18 0.94 -2.18 4.53 -0.06 0.94 6.36c2.94,1 6.98,1.87 10.16,2.18 4.96,0.48 11.75,0.92 16.1,-1.61 3.44,-2 -0.01,-4.81 -2.19,-5.6 -4.85,-1.33 -23.32,-5.64 -24.07,-9.45l-0.16 -0.24 -0.16 -0.67c-0.38,-0.3 -0.32,-2.59 1.56,-4.3 5.93,-5.36 18.24,-6.12 25.95,-6.12 7.46,0 15.09,0.73 22.51,1.51l-2.74 6.45c-0.16,0.71 -0.34,1.4 -0.55,2.09l-5 -0.06 -0.15 -5.93c-5.81,-1.61 -17.67,-3.37 -23.29,-0.18 -7.32,4.15 8.59,7.15 11.88,7.99 4.39,1.12 17.19,3.76 17.19,8.96 0,5.44 -11.75,7.92 -15.94,8.48 -12.34,1.64 -28.14,1.09 -40.01,-1.21z"/>
   <path class="fil7" d="M49.21 476.43c-6.72,-3.04 -10.94,-7.51 -10.94,-14.68 0,-5.77 3.16,-10.49 9.47,-14.17 10.95,-6.33 33.96,-5.37 43.3,1.04 8.13,5.58 10.12,14.74 4.61,21.97 -1.53,2.01 -3.94,3.95 -7.23,5.83 18.52,7.66 14.84,26.53 3.38,33.51 -10.27,6.25 -32.93,5.76 -42.28,2.17 -8.44,-3.24 -13.72,-10.07 -13.72,-18.87 0,-8.74 5.03,-13.97 13.41,-16.8zm10.01 -13.54c0,10.45 18.28,10.77 18.28,0.18 0,-10.72 -18.28,-10.74 -18.28,-0.18zm-1.2 29.69c0,9.1 10.91,13.77 17.78,7.42 6.63,-6.13 2.44,-17.86 -7.45,-17.86 -5.68,0 -10.33,4.11 -10.33,10.44zm65.92 -16.14c-6.72,-3.04 -10.94,-7.51 -10.94,-14.68 0,-5.77 3.16,-10.49 9.47,-14.17 10.95,-6.33 33.96,-5.37 43.3,1.04 8.13,5.58 10.13,14.74 4.61,21.97 -1.53,2.01 -3.94,3.95 -7.23,5.83 18.53,7.66 14.84,26.53 3.38,33.51 -10.27,6.25 -32.93,5.76 -42.28,2.17 -8.44,-3.24 -13.72,-10.07 -13.72,-18.87 0,-8.74 5.03,-13.97 13.41,-16.8zm10.01 -13.54c0,10.45 18.28,10.77 18.28,0.18 0,-10.73 -18.28,-10.74 -18.28,-0.18zm-1.2 29.69c0,9.1 10.91,13.77 17.78,7.42 6.63,-6.13 2.44,-17.86 -7.45,-17.86 -5.68,0 -10.33,4.11 -10.33,10.44zm90.81 8.05l-40.6 0 0 -15.76 40.6 -41.51 19.42 0 0 42.39 10.07 0 0 14.88 -10.07 0 0 12.9 -19.42 0 0 -12.9zm0 -14.88l0 -21.68 -21.46 21.68 21.46 0zm49.84 -9.32c-6.72,-3.04 -10.94,-7.51 -10.94,-14.68 0,-5.77 3.16,-10.49 9.47,-14.17 10.95,-6.33 33.96,-5.37 43.3,1.04 8.12,5.58 10.12,14.74 4.61,21.97 -1.53,2.01 -3.94,3.95 -7.23,5.83 18.52,7.66 14.84,26.53 3.38,33.51 -10.28,6.25 -32.94,5.76 -42.28,2.17 -8.44,-3.24 -13.73,-10.07 -13.73,-18.87 0,-8.74 5.03,-13.97 13.41,-16.8zm10.01 -13.54c0,10.45 18.28,10.77 18.28,0.18 0,-10.72 -18.28,-10.74 -18.28,-0.18zm-1.19 29.69c0,9.1 10.91,13.77 17.78,7.42 6.63,-6.13 2.44,-17.86 -7.45,-17.86 -5.68,0 -10.32,4.11 -10.32,10.44zm54.69 1.75l23.81 0 0 19.19 -23.81 0 0 -19.19zm44.16 -49.8l52.9 0 0 15.29 -35.83 0 -1.92 10.36c11.16,-4.54 24.96,-4.38 34.08,3.25 13.22,11.06 7.94,31.03 -7.3,38.02 -10.26,4.71 -31.23,4.65 -41.36,-1.91 -5.46,-3.54 -8.4,-7.64 -10.53,-13.9l22.54 -2.12c1.95,10.79 13.54,11.63 18.69,6.47 4.05,-4.04 4.14,-14.2 -0.04,-18.1 -3.65,-3.41 -9.73,-3.61 -14.38,-1.51 -1.49,0.67 -3.14,1.86 -4.93,3.58l-18.97 -2.35 7.06 -37.09zm66.09 0l65.04 0 0 12.95c-18.12,14.05 -27.24,33.02 -29.32,56.05l-22.22 0c3.54,-22.73 10.19,-35.81 26.1,-52.8l-39.6 0 0 -16.19zm87.75 31.9c-6.72,-3.04 -10.94,-7.51 -10.94,-14.68 0,-5.77 3.16,-10.49 9.47,-14.17 10.96,-6.33 33.96,-5.37 43.3,1.04 8.12,5.58 10.12,14.74 4.61,21.97 -1.53,2.01 -3.94,3.95 -7.23,5.83 18.52,7.66 14.84,26.53 3.38,33.51 -10.28,6.25 -32.94,5.76 -42.28,2.17 -8.44,-3.24 -13.72,-10.07 -13.72,-18.87 0,-8.74 5.03,-13.97 13.41,-16.8zm10.01 -13.54c0,10.45 18.28,10.77 18.28,0.18 0,-10.72 -18.28,-10.74 -18.28,-0.18zm-1.19 29.69c0,9.1 10.91,13.77 17.78,7.42 6.62,-6.13 2.44,-17.86 -7.45,-17.86 -5.68,0 -10.33,4.11 -10.33,10.44zm53.5 5.46l22.15 -2.39c1.05,4.68 3.46,7.29 8.05,7.29 9.23,0 10.67,-9.21 11.65,-19.21 -5.41,4.79 -10.67,6.83 -17.94,6.83 -21.77,0 -31.75,-20.93 -21.83,-35.76 5.87,-8.77 15.9,-11.44 27.02,-11.44 13.89,0 24.42,3.22 30.94,14.84 2.9,5.16 4.35,11.98 4.35,20.45 0,12.45 -3.04,21.57 -9.13,27.37 -6.09,5.78 -14.53,8.68 -25.34,8.68 -13.87,0 -25.12,-3.16 -29.92,-16.66zm41.03 -30.78c0,-12.13 -12.76,-14.81 -18.62,-9.08 -5.02,4.91 -4.5,20.51 7.68,20.51 6.6,0 10.94,-4.38 10.94,-11.44z"/>
  </g>
 </g>
</svg>
