<?xml version="1.0" encoding="UTF-8"?>
<!DOCTYPE svg PUBLIC "-//W3C//DTD SVG 1.1//EN" "http://www.w3.org/Graphics/SVG/1.1/DTD/svg11.dtd">
<!-- Creator: CorelDRAW -->
<svg xmlns="http://www.w3.org/2000/svg" xml:space="preserve" width="54.049mm" height="39.8532mm" version="1.1" style="shape-rendering:geometricPrecision; text-rendering:geometricPrecision; image-rendering:optimizeQuality; fill-rule:evenodd; clip-rule:evenodd"
viewBox="0 0 5404.9 3985.32"
 xmlns:xlink="http://www.w3.org/1999/xlink"
 xmlns:xodm="http://www.corel.com/coreldraw/odm/2003">
 <defs>
  <style type="text/css">
   <![CDATA[
    .fil0 {fill:#282828}
    .fil2 {fill:#2C2B2C}
    .fil1 {fill:#13978F}
    .fil4 {fill:#13978F;fill-rule:nonzero}
    .fil3 {fill:black;fill-rule:nonzero}
   ]]>
  </style>
 </defs>
 <g id="Camada_x0020_1">
  <metadata id="CorelCorpID_0Corel-Layer"/>
  <g id="_2077372128944">
   <path class="fil0" d="M3410.96 2290.31c34.24,-33.17 55.75,-88.67 110.5,-103.3 35.05,-9.36 61.39,-5.32 97.16,-16.65 35.87,-11.37 53,-23.62 89.21,-36.57l27.58 31.89c19.66,21.46 10.27,3.33 27.63,28.86 36.27,44.77 68.59,205.09 65.52,245.24 -5.63,73.81 -53.74,18.88 -184.91,70.45 -130.68,51.38 -184.05,-74.36 -359.91,-20.75 -53.61,16.34 -113.72,13.8 -165.52,-17.3l54.37 -63.71c39.37,-38.7 22.87,-20.58 80.63,-35.3 81.35,-20.72 92.21,-62.31 157.74,-82.86zm-1640.05 203.04l-12.26 1.18 -151.32 -18.21c-29.81,-97.46 55.3,-271.27 76.98,-360.68 72.54,6.64 96.16,46.81 188.05,59.77 41.06,5.78 67,14.55 92.11,35.2 42.87,35.23 21.39,34.66 55.13,67.82 101.81,100.07 187.2,81.45 232.4,126.08 69.71,68.84 43.32,22.62 60.98,67.67 -141.61,76.46 -214.49,-41.74 -396.77,37.07 -26.35,11.39 -34.81,18.12 -67.76,17.49 -55.85,-1.05 -70.36,-26.74 -77.54,-33.39zm2292.17 -256.65l24.52 169.33c5.07,7.83 10.93,8.6 15.92,31.34 5.63,25.63 1.94,15 1.29,34.81 -13.82,10.03 4.51,21.43 -82.54,16.79l-23.45 -161.2 -2.83 -39.79c-11.24,-22.77 -5.4,-10.22 -13.7,-36.03 -3.54,-10.99 -6.82,-24.35 -10.41,-35.8 -21.51,-68.61 -69.15,-163.75 -65.13,-215.55 24.26,-12.48 30.85,-19.85 64.98,-24.49 31.7,56.37 77.21,176.38 91.35,260.59zm-2728.19 243.7c-10.48,-132.25 78.5,-408.54 132.34,-497.88 34.89,5 33.42,12.18 55.19,30.2 -4.33,49.86 -24.23,67.76 -40.59,117.14 -118.61,357.9 -20.82,351.9 -146.94,350.54zm581.55 -479.14c-35.18,-8.36 -76.02,-28.99 -112.44,-66.98 16.22,-62.25 200.6,-253 268.11,-261.66 44.95,36.13 38.23,77.11 109.67,128.89 134.82,97.73 20.21,158.36 158.6,312.88 68.19,76.13 40.62,-12.62 90.12,178.43 -38.54,-6.79 -54.17,-14.18 -84.48,-22.74 -109.72,-31.01 -29.71,-49.07 -185.34,-120.28 -56.59,-25.89 -92.44,-22.28 -149.35,-42.28 -43.21,-15.18 -89.67,-64.57 -94.89,-106.26zm1552.53 61.5l-12.15 15.3c-16.6,25.08 -3.03,13.05 -26.79,25.84 -10.4,5.6 -22.6,7.51 -35.51,10.02 -30.7,5.98 -61.07,9.16 -91.61,8.06 -1.85,1.99 -4.94,2.14 -5.91,5.6l-64.56 38.41c-111.99,63.17 -54.04,71.48 -129.06,97.51 -32.04,11.12 -69.92,22.93 -101.07,29.32 26.73,-108.5 30.75,-137.1 110.95,-188.29 14.21,-28.16 25.22,-30.9 35.78,-69.89 25.66,-83.97 23.28,-168.66 77.01,-212.37 136.11,-110.69 65.94,-78.6 134.23,-149.28 68.3,15.66 245.29,201.37 265.04,261.29 -13.19,15.47 -61.53,39.71 -127.78,103.7l-28.57 24.78zm-370.88 -286.22c-2.67,81.29 -59.09,31.93 -148.73,184.69 -32.48,55.35 -24.45,74.72 -45.08,123.21 -2.29,5.39 -72.08,87.31 -81.67,91.08 -42.42,-102.44 20.97,-232.75 -26.49,-397.91 -29.79,-19.02 -4.67,20.04 -26.76,-28.49 -22.3,-48.98 22.04,-89.8 42.29,-229.54 1.65,-11.36 0.99,-10.76 3.48,-21.05 6.25,-25.86 -0.7,-11.48 10.61,-27.71 92.43,2.79 289.46,54.24 349.16,93.65 -5.6,55.89 -38.82,47.87 -57.2,149.01l-15.32 55.25c-0.83,1.9 -2.44,5.49 -4.29,7.81zm-720.63 -253.48c45.72,-41.4 199.47,-64.45 235.59,-51.08 17.26,48.01 -2.49,94.35 29.76,171.33 35.31,84.32 20.19,91.35 -8.54,167.32 -60.8,160.72 52.38,239.45 -24.49,368.37 -30.21,-13.83 -36.31,-32.74 -56.94,-52.67 -46.82,-45.22 -24.75,-4.91 -41.54,-75.65 -39.44,-166.21 -162.88,-188.24 -190.82,-264.53 -11.56,-31.57 -10.28,-62.7 -17.53,-95.95 -9.71,-44.56 -24,-50.19 -38.12,-97.68l-10.43 -31.94c43.36,-15.96 83.46,-41.48 123.06,-37.52zm1464.6 245.43c26.39,20.04 20.38,-34.26 22.03,31.31l-54.04 46.77c-47.92,-30.7 -44.71,-30.51 -60.34,-72.89 -85.65,-133.73 -223.47,-214.48 -285.71,-276.45l27.27 -55.45c115.85,34.9 285.45,257.35 350.79,326.71zm-2201.29 69.17c-38.76,-8.46 -38.24,-4.13 -65.39,-37.86 24.82,-81.26 281.22,-340.95 362.31,-359.92l36.23 55.36c-68.35,65.15 -269.77,207.2 -333.15,342.42zm1650.41 -444.35c-55.19,-1.67 -151.34,-55.78 -221.27,-73.05 -56.56,-13.97 -215.18,-33.9 -257.8,-50.47l6.84 -66.61c91.6,-37.04 419.85,82.86 500.69,121.09 -6.25,55.43 -2.75,25.9 -28.46,69.04zm-1178.16 -67.63c125.55,-45.15 340.25,-151.17 504.51,-124.69l-0.97 68.47c-73.94,24.23 -173.41,26.36 -261.25,51.96 -55.73,16.24 -176.22,74.2 -222.22,69.31l-20.07 -65.05zm-933.93 1160.45c-21.94,1.88 8.14,19.96 -11.26,-8.4 -1.25,-1.84 -5.89,-10.16 -7.13,-12.48l-7.11 -16.5c-40.87,23.68 -24.08,34.47 -79.16,36.09 38.64,-47.96 96.33,-63.78 98.36,-143.93 -128.05,51.95 -146.83,116.67 -175.64,132.12 -14.18,-391.71 256.86,-902.05 522.5,-1136.35 169.7,-149.68 171.55,-136.28 354.04,-262.52 24.51,-16.96 115.03,-60.1 140.53,-71.31 106.38,-46.78 204.5,-71.11 311.22,-102.68 95.42,-28.23 281.95,-45.34 385.16,-44.11 124.3,1.47 261.21,12.02 375.45,40.66 182.25,45.69 289.64,75.81 448.43,167.55 199.02,114.98 302.38,179.16 464.01,366l182.17 232.73c149.32,230.38 238.15,535.19 260.11,804.77 -32.4,-17.3 -21.7,-31.04 -49.95,-41.8 -27.36,30.91 -46.31,54.96 -89.72,68.52 21.24,-72 123.08,-81.24 95.54,-183.79 -69.87,3.64 -136.5,184.66 -140.24,188.7 -1.87,-2.71 -46.71,-270.62 -56.78,-307.04 -19.76,-71.49 -63.79,-223.22 -96.3,-273.42l-65.14 -114c-29.3,-53.53 -50.48,-76.63 -73.56,-116.32l-176.52 -204.87c-171.08,-142.97 -189.92,-185.48 -440.08,-298.91 -380.13,-172.38 -843.02,-185.06 -1232.85,-14.44 -83.17,36.4 -180,82.24 -241.54,128.23 -155.37,116.1 -268.09,193.32 -386.18,363.75 -335.91,484.78 -258.94,688.51 -308.36,823.75zm1425.79 -1867.07c-4.98,11.53 -22.53,62.65 -32.98,88.44 -70.57,28.21 -199.04,33.32 -284.66,52.52 -51.2,11.48 -219.18,57.73 -248.86,79.4l-134.29 45.48c-112.08,-82.45 3.4,-18.86 -131.17,-73.62 0.29,-120.37 -45.38,-125.95 -80.3,-202.59 -39.84,-15.45 -54.41,-24.1 -78.02,-56.05 -10.31,-12.78 -28.35,-124.56 -50.23,-173.07 -113.76,-157.03 -300.88,34.11 -129.01,174.6 134.03,109.56 45.44,22.57 94.16,176.04 26.34,82.96 61.62,116.23 114.6,150.55l-5.83 120.77c25.12,50.79 -3.93,50.16 -41.8,75.56 -145.52,97.55 -338.12,307.05 -424,438.01 -42.27,-0.48 -39.9,-11.03 -86.1,-10.38 -33.1,0.47 -43.83,8.16 -74.63,9.47 -39.1,-55.88 8.21,-16.67 -67.79,-76.22 -24.89,-19.51 -7.61,-2.63 -25.57,-23.58 -38.47,-6.23 -34.51,-16.56 -82.22,-24.66 -34.89,-5.92 -59.56,-4.74 -97.05,-12.78 -128.87,-201.64 -250.46,-149.73 -257.69,-104.67 -40.07,127.56 41.92,166.55 158.24,180.9 91.83,11.33 72.29,37.16 114.39,86.16 28.3,32.94 76.88,44.42 102.37,88.12 74.85,19.14 75.95,-13.19 98.23,46.4 25.71,68.75 13.06,43.39 63.5,92.32l-86.53 239.97c-45.48,135.73 -84.07,415.54 -91.69,431.26 -129.93,23.21 -782.44,-157.87 -815.67,-153.83 -27.53,3.35 -8.2,-2.56 -24.28,8.77 25.27,12.12 21.37,7.99 61.4,18.42 33.43,8.72 42.58,10.65 65.64,22.82l18.36 0.01 30.88 7.78 186.44 48.68c24.05,9.97 20.03,10.05 22.83,11.85 185.72,29.97 344.68,84.88 512.65,124.62l826.82 127.47c63.81,3.24 83.32,-14.59 145.13,-9.43 57.02,4.76 64.67,26.31 134.2,32.52 115.19,10.29 202.16,-19.78 311.78,11.27 93.12,26.37 216.08,10.29 318.7,13.5 -16.57,-45.34 -63.5,-82.94 -46.04,-160.27 24.87,-110.08 207.74,-135.91 251.98,-8.01 27.15,78.53 -25.95,117.2 -43.62,168.04l163.28 -7.97c121.59,-16.66 260.88,-16.34 389.02,-19.52 66.02,-1.64 122.36,-13.09 185.94,-25.33 60.28,-11.6 132.7,-2.23 203.26,-11.84 166.88,-23.75 375.03,-35.52 528.9,-75.24l13.32 -6.28c92.95,-16.52 248.34,-56.41 338.95,-60.79l235.87 -56.05 89.14 -19.59 79.62 -13.33c9.86,-6.77 -2.55,-3.55 26.81,-15.2 8.77,-3.48 18,-5.72 27.01,-8.05 21.68,-5.62 30.54,-5.89 51.9,-12.85 14.34,-21.8 -18.55,-27.7 30.46,-15 54.44,-0.3 208.04,-39.02 244.27,-70.58 -45.36,-5.33 -127.6,22.88 -178.26,36.47l-252.15 52.49c-34.85,18.53 -329.91,77.46 -382.04,69.13l-16.02 -48.41c-24.58,-166.4 -49.34,-320.02 -110.33,-479.24 -25.74,-67.21 -51.07,-87.47 -52.82,-170.61 54.24,-11.07 56.73,-43.52 65.74,-103.71 280.2,-65.38 186.86,-148.01 284.15,-173.63 126.45,-33.31 270.86,-17.69 172.23,-223.19l-18.01 2.87 -80.76 -0.04 -12.05 12.9c-1.64,1.57 -4.24,4.28 -6.08,5.94 -9.88,8.87 -5.87,5.21 -19.16,15.04 -14.95,11.04 -15.28,8.72 -31.87,22.99 -24.41,21 -28.99,43.07 -46.95,63.78 -31.72,36.59 -121.65,30.63 -183.32,51.95 -35.48,2.08 -73.53,34.13 -95.06,58.47l-21.08 38.19c-42.75,0.2 -38.76,-10.59 -85.67,-8.11 -38.99,2.07 -36.25,10.42 -77.93,9.68 -362.98,-452.36 -366.8,-358.71 -477.34,-479.18 3.15,-49.7 24.61,-71.97 0.94,-125.77l4.41 -40.94c55.83,-18.34 91.35,-79.12 111.43,-134.57 42.95,-118.55 -35.64,-91.91 83.34,-174.46 36.65,-16.18 54.36,-47.84 72.38,-87.47 29.89,-65.68 9.48,-69.39 -5.26,-121.45 -33.16,-14.81 -78.1,-41.59 -133.83,-18.25 -29.47,12.33 -51.55,50.56 -63.64,84.12 -41.98,116.52 19.02,142.22 -114.89,193.55 -9.54,30.29 -33.13,52.76 -52.24,87.7 -28.17,51.49 -19.5,43.47 -23.81,111.2 -23.63,8.75 -49.78,9.88 -74.69,24.16 -30.66,17.57 -22.32,26.32 -55.96,48.14 -26.82,5.44 -307.01,-135.2 -498.47,-147.56 -162.61,-23.02 -163.16,-7.17 -183.86,-61.92 -35.71,-94.45 -19.03,-33.81 -59.26,-96.09l31.37 -91.82 -0.62 -85.14 -16.13 -47.81 -9.95 -30.69c-13.5,-13.24 -6.85,10.46 -19.91,-29.71 -11.38,-35.03 5.94,-61.49 20.5,-90.86 102.3,-206.46 -139.36,-265.45 -168.07,-127.08 -31.16,150.17 81.08,115.52 11.68,280.23 -47.84,113.53 7.97,196.32 8.85,214.56 2.04,42.44 -9.72,37.41 -39.55,49.21z"/>
   <path class="fil1" d="M2634.83 2701.86l162.32 -0.24c17.67,-50.84 70.77,-89.51 43.62,-168.04 -44.24,-127.9 -227.11,-102.07 -251.98,8.01 -17.46,77.33 29.47,114.93 46.04,160.27z"/>
   <path class="fil2" d="M1063.21 2162.99c82.1,-7.12 176.67,-56.27 190.31,-128.69 -42.74,5.88 -75.27,23.41 -117.73,39.02 -51.89,19.07 -64.3,29.77 -72.58,89.67z"/>
   <path class="fil2" d="M1099.44 2058.27c82.44,-17.36 173.73,-48.99 192.42,-124.9 -40.7,6.39 -86.97,20.64 -126.85,35.28 -45.81,16.82 -63,33.39 -65.57,89.62z"/>
   <path class="fil2" d="M2954.36 1043.26c-9.94,-32.28 -35.77,-66.94 -57.22,-102.14 -34.84,-57.15 -29.01,-54.52 -112.9,-60.96 14.8,51.95 86.71,155.94 170.12,163.1z"/>
   <path class="fil2" d="M1443.99 1452.41c103.74,58.22 231.72,-27.09 231.91,-27.17 -29.16,-8.52 -102.98,-21.51 -130.01,-22.95 -61.13,-3.26 -87.25,13.48 -101.9,50.12z"/>
   <path class="fil2" d="M3797.14 1452.38c13.75,-30.68 15.77,-85.83 14.42,-123.9 -2.26,-63.69 -18.6,-77.56 -64.06,-94.16 -0.06,45.15 -4.75,146.04 14.49,185.19 21.46,43.69 11.03,22.49 35.15,32.87z"/>
   <path class="fil2" d="M1041.25 2283.74c30.97,-13.3 85.87,-39.36 113.33,-57.48 37.95,-25.03 58.91,-40.89 68,-94.56 -108.79,35.48 -180.88,65.22 -181.33,152.04z"/>
   <path class="fil2" d="M1025.02 2397.16c35.39,-14.72 1.32,1.6 36.15,-17.24 59.01,-31.9 123.42,-68.15 132.92,-140.52 -79.1,18.75 -168.84,61.51 -169.07,157.76z"/>
   <path class="fil2" d="M2735.76 1026.31c-13.98,-42.3 -27.93,-47.57 -63.84,-95.55 -33.16,-44.29 -41.64,-48.08 -114.93,-46.73 9.12,51.23 88.59,131.55 178.77,142.28z"/>
   <path class="fil2" d="M3057.51 1059.31c-9.92,-38.32 -30.89,-71.75 -50.52,-105.04 -30.5,-51.73 -28.93,-61.71 -105.67,-61.22 7.19,25.68 37.05,74.83 55.24,100.62 26.98,38.24 51.41,61.04 100.95,65.64z"/>
   <path class="fil2" d="M3455.79 1207.91c-1.93,-34.56 -14.58,-98.15 -23.28,-130.58 -13.77,-51.34 -31.53,-60.63 -83.24,-72.55 8.82,70.29 32.39,177.72 106.52,203.13z"/>
   <path class="fil2" d="M1233.46 1737.43c45.32,6.88 149.47,-9.67 189.68,-37.69 23.83,-16.62 19.97,-13.18 31.39,-37.03 -43.14,-3.45 -109.05,-2.59 -151.06,8.54 -52.56,13.91 -44.23,28.72 -70.01,66.18z"/>
   <path class="fil2" d="M4222.8 2179.97c14.91,-9.87 4.28,0.97 23.53,-20.25 61.93,-68.22 91.5,-118.1 62.43,-189.16 -45.91,17.13 -109.87,147.93 -85.96,209.41z"/>
   <path class="fil2" d="M1612.02 1295.52c44.16,27.11 176.28,42.79 221.07,0 -27.77,-24.32 -135.06,-52.13 -181.44,-38.84 -45.98,13.19 -31.19,14.33 -39.63,38.84z"/>
   <path class="fil2" d="M1792.92 1149.81c46.85,45.23 143.24,63.05 219.41,47.95 -15.47,-32.84 25.06,-14.68 -94.39,-61.63 -46.47,-18.26 -101.99,-14.56 -125.02,13.68z"/>
   <path class="fil2" d="M2216.28 959.33l34.78 34.09c58.22,42.86 90.97,65.08 169.64,60.95 -15.77,-36.29 -10.89,-26.8 -82.8,-80.83 -34.92,-26.24 -71.59,-46.28 -121.62,-14.21z"/>
   <path class="fil2" d="M3637.56 1314.81c-3.01,-94.89 5.55,-199 -82.95,-206.77 0.77,29.26 9.47,80.17 16.91,112.71 22.35,97.78 35.06,82.92 66.04,94.06z"/>
   <path class="fil2" d="M3945.92 1610.93c10.57,-43.66 35.52,-131.91 22.52,-174.9 -10.12,-33.45 -31.75,-40.45 -36.88,-43.89 -11.18,14.28 -14.42,9.87 -20.32,51.4 -9.82,69.21 -18.65,141.67 34.68,167.39z"/>
   <path class="fil2" d="M1525.66 1373.96c64.59,15.41 189.67,44.46 218.42,-22.41 -25.52,-8.05 -91.23,-22.31 -120,-24.82 -58.23,-5.08 -83.36,2.47 -98.42,47.23z"/>
   <path class="fil2" d="M1187.23 1841.38c82.73,-1.58 176.22,-33.49 208.05,-86.4 -30.56,-10.9 -97.37,0.49 -130.22,8.55 -51.87,12.71 -71.79,26.3 -77.83,77.85z"/>
   <path class="fil2" d="M3859.26 1534.2c30.12,-27.43 30.17,-43.14 33.04,-115.54 2.82,-71.24 -0.69,-92.35 -50.35,-101.14 -16.27,103.8 -27.27,135.17 17.31,216.68z"/>
   <path class="fil2" d="M3724.81 1379.39c0.54,-103.44 18.11,-187.26 -75.58,-212.67 3.97,45.85 10.85,83.69 16.52,128.39 7.07,55.76 11.92,68.94 59.06,84.28z"/>
   <path class="fil2" d="M4148.36 1974.25c32.73,-6.92 32.76,-28.2 64.31,-93.49 26.78,-55.43 35.62,-81.47 -12.28,-117.91 -36.12,49.08 -72.01,135.43 -52.03,211.4z"/>
   <path class="fil2" d="M1699.99 1217.08c9.38,7.56 0.94,4.1 20.01,13.67 2.35,1.18 22.14,9.39 24.34,10.17 52.98,18.85 129.29,35.1 178.74,-1.43 -21.52,-21.44 -76.5,-36.05 -106.31,-45.54 -21.58,-6.87 -39.99,-12.44 -66.72,-7.69 -43.46,7.73 -50.04,30.79 -50.06,30.82z"/>
   <path class="fil2" d="M3550.3 1254.81c-13.38,-90.92 -6.3,-191.36 -97.01,-201.74 -0.11,31.95 13.16,86.07 22.97,117.25 15.95,50.74 30.55,75.95 74.04,84.49z"/>
   <path class="fil2" d="M3998.77 1695.66c26.4,-19.96 36.86,-76.39 43.23,-112.97 5.72,-32.82 9.04,-36.64 -2.72,-70.22 -14.8,-42.25 -16.06,-29.23 -40.51,-34 -17.18,59.65 -40.16,169.09 0,217.19z"/>
   <path class="fil2" d="M4259.94 2394.17c60.39,-47.89 133.19,-96.35 118.73,-202.18 -49.35,10.62 -122.01,116.09 -118.73,202.18z"/>
   <path class="fil2" d="M2442.51 903.3c20.32,60.99 120.25,126.71 188.4,123.45 -8.95,-23.13 -93.21,-156.72 -188.4,-123.45z"/>
   <path class="fil2" d="M2847.38 1029.84c-52.61,-101.05 -86.59,-147.05 -177.09,-151.24 20.33,75.15 96.12,139.55 177.09,151.24z"/>
   <path class="fil2" d="M2104.74 989.24c15.62,39.56 -13.69,11.25 84.11,65.95 38.58,21.58 77.59,29.55 128.23,22.09 -21.45,-34.81 -149.99,-132.04 -212.34,-88.04z"/>
   <path class="fil2" d="M3361.95 1162.61c-23.24,-88.88 -25.07,-194.47 -122.73,-191.41 18.16,78.39 50.48,168.27 122.73,191.41z"/>
   <path class="fil2" d="M3152.77 1085.29c-6.36,-55.32 -17.72,-72.94 -40.28,-113.78 -24.87,-45.02 -29.91,-65.81 -98.07,-56.31 22.46,62.11 65.15,152.93 138.35,170.09z"/>
   <path class="fil2" d="M4054.2 1789.83c38.61,-25.22 93.65,-183.97 22.98,-221.69 -37.75,64.22 -51.91,156.5 -22.98,221.69z"/>
   <path class="fil2" d="M1139.88 1946.83c75.9,-4.6 160.07,-42.1 199.14,-91 -12.03,-7.13 10.36,-23.05 -66.31,-6.24 -87.25,19.12 -122.54,26.47 -132.83,97.24z"/>
   <path class="fil2" d="M1895.84 1093.81c20.32,21.34 157.03,94.51 216.99,44.82 -39.9,-34.15 -169.75,-107.17 -216.99,-44.82z"/>
   <path class="fil2" d="M4243.68 2286.04c70.59,-45.6 115.22,-125.38 106.81,-208.74 -75.74,27.86 -107.12,136.83 -106.81,208.74z"/>
   <path class="fil2" d="M3259.97 1118.22c-6.56,-47.39 -22.11,-69.55 -37.5,-111.23 -18.5,-50.13 -31.9,-66.44 -93.68,-75.68 21.51,87.63 53.05,164.24 131.18,186.91z"/>
   <path class="fil2" d="M1369.77 1547.5c81.51,11.27 191.77,9.93 220.53,-50.55 -36.98,-6.32 -92.2,-7.44 -134.86,-5.66 -54.14,2.25 -76.51,15.02 -85.67,56.21z"/>
   <path class="fil2" d="M2001.85 1037.78c33.57,53.74 136.69,81.64 210.61,73.06 -23.46,-38.05 -57.42,-51.38 -96.42,-72.36 -47.74,-25.67 -68.48,-30.98 -114.19,-0.7z"/>
   <path class="fil2" d="M4110.78 1887.53c17.4,-21.32 70.71,-138.33 65.62,-175.66 -3.91,-28.72 -21.97,-40.43 -32.01,-48.85 -1.76,2.07 -4.07,4.99 -4.98,6.44l-41.41 105.02c-9.2,44.82 -6.9,81.04 12.78,113.05z"/>
   <path class="fil2" d="M1302.31 1639.05c32.57,1.35 91.9,-0.87 121.68,-5.47 12.26,-1.89 44.64,-11.1 53.14,-14.9 32.87,-14.72 23.78,-12.43 40.15,-31.8 -2.85,-1.62 -6.4,-3.62 -8.78,-4.44l-29.45 -8.35c-7.38,-0.99 -25.82,-0.45 -33.97,-0.48 -15.88,-0.03 -53.58,0.05 -67.63,2.06 -46.42,6.62 -65.35,27.55 -75.14,63.38z"/>
   <path class="fil2" d="M2331.17 925.71c10.44,41.05 15.8,29.77 47.53,51.59 18.61,12.79 4.61,3.59 24.65,20.67 33.72,28.74 59.51,39.26 118.2,39.07 -18.66,-43.61 -113.39,-145.58 -190.38,-111.33z"/>
   <path class="fil2" d="M4190.29 2077.91c28.42,-17 101.92,-109 77.09,-212.03 -66.32,19.74 -87.86,152.36 -77.09,212.03z"/>
   <path class="fil3" d="M1363.23 3980.51l0 -181.43 77.15 0c19.39,0 33.49,1.65 42.28,4.9 8.82,3.25 15.83,9.04 21.11,17.36 5.28,8.36 7.94,17.86 7.94,28.59 0,13.64 -3.97,24.87 -11.95,33.74 -7.98,8.87 -19.89,14.45 -35.77,16.77 7.9,4.6 14.4,9.67 19.51,15.2 5.16,5.53 12.08,15.38 20.78,29.48l22.13 35.39 -43.8 0 -26.26 -39.61c-9.42,-14.07 -15.88,-22.94 -19.39,-26.61 -3.46,-3.63 -7.13,-6.17 -11.02,-7.52 -3.93,-1.35 -10.09,-2.02 -18.54,-2.02l-7.43 0 0 75.76 -36.74 0zm36.74 -104.65l27.11 0c17.57,0 28.51,-0.76 32.9,-2.24 4.35,-1.48 7.81,-4.05 10.26,-7.68 2.49,-3.64 3.72,-8.2 3.72,-13.64 0,-6.13 -1.65,-11.03 -4.9,-14.83 -3.25,-3.76 -7.86,-6.12 -13.77,-7.09 -3,-0.43 -11.91,-0.64 -26.73,-0.64l-28.59 0 0 46.12zm146.25 104.65l0 -181.43 134.29 0 0 30.66 -97.55 0 0 40.29 90.71 0 0 30.66 -90.71 0 0 49.16 101.1 0 0 30.66 -137.84 0zm159.37 -58.79l35.73 -3.54c2.16,11.95 6.46,20.69 13.01,26.3 6.55,5.62 15.37,8.41 26.48,8.41 11.74,0 20.61,-2.49 26.56,-7.48 5.96,-4.98 8.95,-10.81 8.95,-17.48 0,-4.31 -1.26,-7.94 -3.75,-10.98 -2.5,-3 -6.89,-5.62 -13.14,-7.81 -4.26,-1.52 -13.98,-4.14 -29.18,-7.94 -19.55,-4.9 -33.28,-10.9 -41.18,-18.03 -11.1,-10.01 -16.63,-22.22 -16.63,-36.62 0,-9.25 2.62,-17.95 7.81,-26.01 5.24,-8.07 12.75,-14.19 22.59,-18.42 9.84,-4.22 21.67,-6.33 35.6,-6.33 22.68,0 39.79,5.03 51.23,15.12 11.49,10.09 17.48,23.52 18.08,40.37l-36.74 1.27c-1.57,-9.38 -4.9,-16.09 -10.01,-20.19 -5.11,-4.1 -12.8,-6.16 -23.02,-6.16 -10.56,0 -18.84,2.19 -24.79,6.59 -3.84,2.82 -5.79,6.58 -5.79,11.31 0,4.31 1.82,7.98 5.45,11.03 4.61,3.92 15.8,7.97 33.58,12.2 17.77,4.18 30.91,8.57 39.4,13.05 8.53,4.52 15.2,10.64 20.02,18.45 4.81,7.82 7.22,17.44 7.22,28.89 0,10.39 -2.87,20.14 -8.66,29.22 -5.79,9.08 -13.94,15.84 -24.49,20.23 -10.56,4.44 -23.74,6.63 -39.49,6.63 -22.93,0 -40.54,-5.28 -52.83,-15.88 -12.29,-10.55 -19.6,-25.97 -22.01,-46.2zm219.44 58.79l0 -150.77 -53.72 0 0 -30.66 143.93 0 0 30.66 -53.47 0 0 150.77 -36.74 0zm258.62 0l-39.57 0 -15.67 -41.3 -72.76 0 -15.08 41.3 -38.85 0 70.44 -181.43 38.81 0 72.68 181.43zm-67.15 -71.96l-25.21 -67.15 -24.49 67.15 49.7 0zm86.71 -109.47l36.74 0 0 98.32c0,15.62 0.46,25.72 1.35,30.32 1.56,7.43 5.23,13.43 11.06,17.9 5.87,4.53 13.85,6.76 23.99,6.76 10.26,0 18.03,-2.11 23.27,-6.37 5.24,-4.27 8.36,-9.46 9.41,-15.67 1.06,-6.21 1.61,-16.47 1.61,-30.83l0 -100.43 36.74 0 0 95.4c0,21.79 -0.97,37.21 -2.95,46.2 -1.99,9 -5.62,16.6 -10.94,22.81 -5.28,6.21 -12.38,11.11 -21.24,14.78 -8.91,3.67 -20.49,5.53 -34.8,5.53 -17.28,0 -30.37,-1.98 -39.28,-5.99 -8.91,-4.02 -15.96,-9.21 -21.16,-15.63 -5.19,-6.42 -8.57,-13.09 -10.22,-20.14 -2.4,-10.39 -3.58,-25.77 -3.58,-46.08l0 -96.88zm182.98 181.43l0 -181.43 77.16 0c19.38,0 33.49,1.65 42.27,4.9 8.83,3.25 15.84,9.04 21.12,17.36 5.27,8.36 7.94,17.86 7.94,28.59 0,13.64 -3.97,24.87 -11.96,33.74 -7.98,8.87 -19.89,14.45 -35.76,16.77 7.89,4.6 14.4,9.67 19.51,15.2 5.15,5.53 12.07,15.38 20.77,29.48l22.13 35.39 -43.79 0 -26.27 -39.61c-9.42,-14.07 -15.88,-22.94 -19.38,-26.61 -3.47,-3.63 -7.14,-6.17 -11.02,-7.52 -3.93,-1.35 -10.1,-2.02 -18.55,-2.02l-7.43 0 0 75.76 -36.74 0zm36.74 -104.65l27.12 0c17.56,0 28.5,-0.76 32.89,-2.24 4.35,-1.48 7.82,-4.05 10.27,-7.68 2.49,-3.64 3.71,-8.2 3.71,-13.64 0,-6.13 -1.65,-11.03 -4.9,-14.83 -3.25,-3.76 -7.85,-6.12 -13.76,-7.09 -3,-0.43 -11.91,-0.64 -26.74,-0.64l-28.59 0 0 46.12zm309.68 104.65l-39.57 0 -15.67 -41.3 -72.76 0 -15.08 41.3 -38.85 0 70.44 -181.43 38.81 0 72.68 181.43zm-67.15 -71.96l-25.21 -67.15 -24.49 67.15 49.7 0zm86.71 71.96l0 -181.43 35.55 0 74.67 121.59 0 -121.59 33.95 0 0 181.43 -36.7 0 -73.52 -119.26 0 119.26 -33.95 0zm223.78 0l0 -150.77 -53.72 0 0 -30.66 143.92 0 0 30.66 -53.46 0 0 150.77 -36.74 0zm113.98 0l0 -181.43 134.29 0 0 30.66 -97.55 0 0 40.29 90.71 0 0 30.66 -90.71 0 0 49.16 101.1 0 0 30.66 -137.84 0zm329.4 -22l-21.07 26.81c-10.3,-5.02 -20.23,-11.95 -29.73,-20.77 -7.31,6.58 -15.12,11.44 -23.36,14.57 -8.23,3.12 -18.03,4.68 -29.43,4.68 -22.55,0 -39.53,-6.37 -50.93,-19.09 -8.83,-9.79 -13.22,-21.11 -13.22,-33.91 0,-11.65 3.46,-22.13 10.43,-31.42 6.93,-9.29 17.32,-17.35 31.13,-24.2 -6.21,-7.35 -10.9,-14.36 -14.02,-21.03 -3.17,-6.67 -4.73,-12.96 -4.73,-18.92 0,-10.98 4.39,-20.31 13.17,-27.95 8.74,-7.65 21.29,-11.49 37.5,-11.49 15.63,0 27.88,4.01 36.7,11.99 8.83,8.03 13.22,17.78 13.22,29.35 0,7.35 -2.15,14.32 -6.5,20.91 -4.35,6.59 -13.1,14.06 -26.27,22.38l24.96 33.57c2.95,-5.23 5.49,-12.12 7.64,-20.56l31.51 7.05c-3.13,11.15 -5.87,19.34 -8.2,24.49 -2.28,5.16 -4.77,9.51 -7.43,12.97 3.89,3.63 8.91,7.6 15.08,11.95 6.16,4.35 10.68,7.22 13.55,8.62zm-94.64 -98.82l9.34 -7.23c6.88,-5.36 10.3,-10.68 10.3,-15.96 0,-4.47 -1.65,-8.28 -4.98,-11.4 -3.3,-3.17 -7.77,-4.73 -13.43,-4.73 -5.49,0 -9.8,1.39 -12.92,4.14 -3.09,2.78 -4.65,5.99 -4.65,9.62 0,4.31 2.62,9.51 7.85,15.63l8.49 9.93zm-13.6 37.83c-7.93,4.06 -13.89,8.96 -17.86,14.66 -3.93,5.7 -5.91,11.53 -5.91,17.44 0,7.52 2.45,13.68 7.35,18.41 4.85,4.77 11.4,7.14 19.63,7.14 5.41,0 10.65,-1.05 15.63,-3.21 5.02,-2.15 10.47,-5.7 16.38,-10.68l-35.22 -43.76zm201.23 -98.44l72.56 0c14.4,0 25.08,0.59 32.14,1.78 7.09,1.22 13.38,3.71 18.96,7.47 5.57,3.8 10.22,8.83 13.93,15.12 3.72,6.29 5.58,13.39 5.58,21.2 0,8.45 -2.28,16.26 -6.84,23.31 -4.56,7.1 -10.77,12.38 -18.59,15.92 11.03,3.26 19.47,8.75 25.43,16.52 5.91,7.77 8.87,16.89 8.87,27.4 0,8.28 -1.9,16.3 -5.75,24.12 -3.84,7.81 -9.08,14.06 -15.75,18.75 -6.63,4.64 -14.82,7.52 -24.58,8.61 -6.08,0.64 -20.82,1.06 -44.17,1.23l-61.79 0 0 -181.43zm36.75 30.16l0 41.81 23.98 0c14.23,0 23.1,-0.22 26.56,-0.64 6.26,-0.72 11.2,-2.87 14.79,-6.46 3.59,-3.59 5.36,-8.28 5.36,-14.11 0,-5.61 -1.56,-10.13 -4.64,-13.64 -3.09,-3.5 -7.69,-5.61 -13.77,-6.33 -3.64,-0.42 -14.07,-0.63 -31.25,-0.63l-21.03 0zm0 71.96l0 48.65 33.95 0c13.17,0 21.58,-0.38 25.13,-1.1 5.44,-1.01 9.88,-3.42 13.3,-7.26 3.42,-3.89 5.15,-9 5.15,-15.46 0,-5.49 -1.31,-10.09 -3.97,-13.89 -2.62,-3.8 -6.46,-6.59 -11.44,-8.32 -4.99,-1.73 -15.84,-2.62 -32.52,-2.62l-29.6 0zm309.67 79.31l-39.57 0 -15.66 -41.3 -72.77 0 -15.07 41.3 -38.86 0 70.44 -181.43 38.82 0 72.67 181.43zm-67.14 -71.96l-25.22 -67.15 -24.49 67.15 49.71 0zm86.7 71.96l0 -181.43 77.15 0c19.39,0 33.49,1.65 42.28,4.9 8.82,3.25 15.83,9.04 21.11,17.36 5.28,8.36 7.94,17.86 7.94,28.59 0,13.64 -3.97,24.87 -11.95,33.74 -7.98,8.87 -19.89,14.45 -35.77,16.77 7.9,4.6 14.4,9.67 19.51,15.2 5.16,5.53 12.08,15.38 20.78,29.48l22.13 35.39 -43.8 0 -26.26 -39.61c-9.42,-14.07 -15.88,-22.94 -19.39,-26.61 -3.46,-3.63 -7.13,-6.17 -11.02,-7.52 -3.93,-1.35 -10.09,-2.02 -18.54,-2.02l-7.43 0 0 75.76 -36.74 0zm36.74 -104.65l27.11 0c17.57,0 28.51,-0.76 32.9,-2.24 4.35,-1.48 7.81,-4.05 10.26,-7.68 2.49,-3.64 3.72,-8.2 3.72,-13.64 0,-6.13 -1.65,-11.03 -4.9,-14.83 -3.25,-3.76 -7.86,-6.12 -13.77,-7.09 -3,-0.43 -11.91,-0.64 -26.73,-0.64l-28.59 0 0 46.12z"/>
   <path class="fil4" d="M737.36 3604.65c-46.81,0 -93.61,0 -140.43,0 -18.93,-67.99 -37.34,-136.35 -55.75,-205.09 -86.25,-2.01 -172.51,-4.29 -258.77,-6.58 -17.88,70.27 -35.76,140.82 -53.64,211.67 -46.29,0 -92.05,0 -137.8,0 41.55,-157.99 82.89,-314.51 124.65,-469.1 41.34,-153.09 83.63,-304.44 125.7,-454.23 45.76,5.53 91.52,10.87 137.8,15.74 42.6,155.02 86.07,308.78 128.86,460.61 42.41,150.5 86.26,299.57 129.38,446.98zm-238.78 -359.08c-15.25,-56.54 -30.52,-113.45 -45.23,-170.38 -14.74,-57.01 -29.45,-114.41 -44.18,-172.09 -14.73,55.2 -30.01,110.69 -44.18,166.28 -14.23,55.77 -28.93,111.93 -43.13,168.19 58.91,2.86 117.81,5.53 176.72,8zm311.89 359.08c0,-144.36 0,-288.81 0,-433.25 0,-144.36 0,-288.9 0,-433.35 43.66,3.82 87.31,7.63 130.96,11.35 0,118.42 0,236.65 0,354.87 0,118.23 0,236.46 0,354.78 107.82,1.63 215.65,3.05 323.47,4.29 0,47.1 0,94.2 0,141.31 -151.48,0 -302.95,0 -454.43,0zm544.89 0c0,-138.25 0,-276.7 0,-414.95 0,-138.34 0,-276.78 0,-415.23 65.22,4.68 130.44,8.4 195.66,12.11 18.93,94.01 38.35,187.75 57.33,281.27 18.88,93.07 38.92,186.21 58.38,278.89 18.93,-91.82 37.84,-183.45 56.8,-274.69 18.91,-90.97 37.87,-182.02 57.33,-272.98 65.22,2.67 130.44,5.34 196.18,7.92 0,133 0,266.11 0,398.92 0,132.91 0,265.92 0,398.74 -40.5,0 -80.47,0 -120.44,0 -0.53,-105.27 -0.53,-210.53 -0.53,-315.79 0,-105.35 0,-210.62 0,-315.88 -21.56,104.69 -43.15,209.66 -64.16,314.83 -21.06,105.36 -42.08,211 -63.12,316.84 -42.08,0 -84.15,0 -125.7,0 -21.04,-107.08 -42.11,-214.43 -63.12,-322.18 -21.06,-108.02 -42.08,-216.43 -63.11,-325.03 -0.53,107.84 -0.53,215.77 -0.53,323.6 0,107.93 0,215.77 0,323.61 -40.5,0 -81,0 -120.97,0zm747.91 0c0,-132.06 0,-264.21 0,-396.26 0,-132.05 0,-264.3 0,-396.54 43.13,1.05 86.78,2.1 130.44,3.15 0,131.67 0,263.43 0,394.92 0,131.57 0,263.24 0,394.73 -43.66,0 -87.31,0 -130.44,0zm255.09 0c0,-131.01 0,-262.2 0,-393.21 0,-131.1 0,-262.29 0,-393.49 90.99,1.62 182.5,2.39 274.02,3.15 68.9,0.57 118.91,7.81 150.42,21.74 31.08,13.72 56.51,38.4 75.21,74.37 18.64,35.83 27.88,76.94 27.88,123.28 0,58.92 -14.2,107.64 -42.6,146.07 -28.4,38.42 -70.48,62.54 -126.76,72.65 27.88,19.93 51.21,41.62 69.43,65.5 18.07,23.69 42.44,66.35 73.63,127.19 26.14,51 52.6,101.83 78.9,152.75 -52.07,0 -104.14,0 -155.69,0 -31.55,-56.83 -62.38,-113.96 -93.62,-170.86 -33.45,-60.95 -56.39,-99.07 -68.9,-115.08 -12.21,-15.65 -25.28,-26.61 -39.44,-32.61 -13.72,-5.82 -35.77,-8.82 -65.75,-8.97 -8.94,-0.04 -17.88,-0.09 -26.3,-0.09 0,54.63 0,109.36 0,163.9 0,54.53 0,109.26 0,163.71 -43.65,0 -87.3,0 -130.43,0zm130.43 -452.61c32.09,0.19 64.17,0.32 96.25,0.48 62.59,0.31 101.55,-2.68 117.29,-9.06 15.29,-6.2 27.37,-17.34 36.29,-32.99 8.97,-15.72 13.15,-35.37 13.15,-59.02 0,-26.31 -5.78,-47.48 -17.36,-63.78 -11.56,-16.31 -27.81,-27.01 -48.91,-31.09 -10.46,-2.02 -42.6,-2.99 -95.2,-3.33 -34.18,-0.23 -67.84,-0.38 -101.51,-0.67 0,33.28 0,66.65 0,99.83 0,33.18 0,66.45 0,99.63zm1100.83 452.61c-46.81,0 -93.62,0 -140.43,0 -18.94,-60.17 -37.34,-120.43 -55.75,-180.49 -86.26,0.47 -172.52,0.95 -258.77,1.43 -17.88,59.78 -35.77,119.56 -53.65,179.06 -46.28,0 -92.57,0 -138.33,0 41.56,-130.72 83.71,-261.61 125.18,-392.54 41.63,-131.45 83.63,-263.54 125.7,-395.88 45.76,-1.14 91.52,-2.19 137.8,-3.33 42.61,131.1 86.36,262.45 128.87,393.87 42.69,132.02 86.25,264.77 129.38,397.88zm-238.78 -314.17c-15.26,-48.62 -30.5,-97.44 -45.24,-145.97 -14.71,-48.44 -29.45,-97.06 -44.18,-145.5 -14.73,48.92 -29.96,97.93 -44.18,146.83 -14.18,48.83 -28.93,97.73 -43.13,146.36 58.91,-0.57 117.82,-1.15 176.73,-1.72zm308.21 314.17c0,-133.87 0,-267.92 0,-401.89 0,-133.96 0,-268.11 0,-402.16 42.07,-1.72 84.15,-3.72 126.75,-6.2 44.18,88.39 88.46,177.11 132.54,266.59 44.28,89.86 88.36,180.39 133.07,271.45 0,-92.2 0,-184.4 0,-276.6 0,-92.2 0,-184.4 0,-276.6 39.97,-2.95 79.94,-5.91 120.44,-8.87 0,139.11 0,278.32 0,417.24 0,139.01 0,278.12 0,417.04 -43.65,0 -87.31,0 -130.44,0 -43.65,-90.01 -87.7,-179.6 -130.96,-268.59 -43,-88.45 -87.31,-176.29 -130.44,-263.73 0,88.77 0,177.54 0,266.21 0,88.67 0,177.43 0,266.11 -40.49,0 -80.99,0 -120.96,0zm795.77 0c0,-118.52 0,-237.13 0,-355.74 0,-118.61 0,-237.22 0,-355.83 -63.64,4.77 -127.29,8.87 -190.93,12.69 0,-47.3 0,-94.68 0,-142.16 170.41,-13.45 340.82,-28.89 511.76,-45.49 0,50.06 0,99.93 0,149.89 -63.64,5.62 -126.76,10.49 -189.87,15.16 0,120.32 0,240.56 0,360.78 0,120.24 0,240.47 0,360.7 -43.66,0 -87.31,0 -130.96,0zm405.51 0c0,-149.13 0,-298.43 0,-447.65 0,-149.21 0,-298.62 0,-447.93 158.84,-17.07 318.2,-36.61 477.56,-56.35 0,53.77 0,107.36 0,160.94 -115.71,11.83 -231.42,23.74 -347.13,35.18 0,67.41 0,134.73 0,202.04 107.3,-7.72 214.59,-15.83 322.41,-23.93 0,53.49 0,106.88 0,160.37 -107.82,5.81 -215.11,11.63 -322.41,17.26 0,41.09 0,82.28 0,123.28 0,41.09 0,82.19 0,123.18 119.92,-2.38 239.84,-4.86 359.76,-7.43 0,53.68 0,107.36 0,161.04 -163.57,0 -327.15,0 -490.19,0z"/>
   <path class="fil3" d="M700.78 3555.87c-46.81,0 -93.62,0 -140.43,0 -18.93,-67.98 -37.34,-136.34 -55.75,-205.09 -86.25,-2 -172.51,-4.29 -258.77,-6.57 -17.88,70.26 -35.76,140.82 -53.65,211.66 -46.28,0 -92.04,0 -137.8,0 41.56,-157.99 82.9,-314.5 124.66,-469.1 41.34,-153.08 83.62,-304.44 125.7,-454.22 45.76,5.53 91.52,10.87 137.8,15.73 42.6,155.03 86.07,308.78 128.86,460.61 42.41,150.51 86.25,299.58 129.38,446.98zm-238.78 -359.07c-15.25,-56.54 -30.52,-113.46 -45.23,-170.38 -14.74,-57.01 -29.46,-114.42 -44.18,-172.1 -14.73,55.21 -30.01,110.69 -44.18,166.28 -14.23,55.77 -28.93,111.94 -43.13,168.19 58.91,2.86 117.81,5.53 176.72,8.01zm311.89 359.07c0,-144.35 0,-288.8 0,-433.25 0,-144.35 0,-288.89 0,-433.34 43.65,3.81 87.31,7.63 130.96,11.35 0,118.41 0,236.64 0,354.87 0,118.23 0,236.46 0,354.78 107.82,1.62 215.65,3.05 323.47,4.29 0,47.1 0,94.2 0,141.3 -151.48,0 -302.95,0 -454.43,0zm544.89 0c0,-138.25 0,-276.69 0,-414.94 0,-138.35 0,-276.79 0,-415.23 65.22,4.67 130.44,8.39 195.66,12.11 18.93,94.01 38.34,187.74 57.32,281.27 18.89,93.06 38.93,186.21 58.38,278.88 18.94,-91.81 37.85,-183.45 56.81,-274.69 18.91,-90.96 37.87,-182.01 57.33,-272.97 65.22,2.67 130.44,5.34 196.18,7.91 0,133.01 0,266.11 0,398.93 0,132.91 0,265.91 0,398.73 -40.5,0 -80.47,0 -120.45,0 -0.52,-105.26 -0.52,-210.52 -0.52,-315.78 0,-105.36 0,-210.62 0,-315.88 -21.57,104.69 -43.15,209.66 -64.17,314.83 -21.05,105.35 -42.07,211 -63.11,316.83 -42.08,0 -84.16,0 -125.7,0 -21.04,-107.07 -42.11,-214.43 -63.12,-322.17 -21.06,-108.02 -42.08,-216.43 -63.12,-325.03 -0.52,107.83 -0.52,215.76 -0.52,323.6 0,107.93 0,215.77 0,323.6 -40.5,0 -81,0 -120.97,0zm747.91 0c0,-132.05 0,-264.2 0,-396.25 0,-132.06 0,-264.3 0,-396.54 43.13,1.04 86.78,2.09 130.44,3.14 0,131.67 0,263.44 0,394.92 0,131.58 0,263.25 0,394.73 -43.66,0 -87.31,0 -130.44,0zm255.09 0c0,-131 0,-262.2 0,-393.2 0,-131.1 0,-262.3 0,-393.49 90.99,1.62 182.5,2.38 274.02,3.14 68.9,0.58 118.91,7.82 150.42,21.74 31.08,13.73 56.51,38.4 75.21,74.37 18.64,35.83 27.88,76.95 27.88,123.28 0,58.93 -14.2,107.65 -42.6,146.07 -28.41,38.43 -70.48,62.55 -126.76,72.66 27.88,19.92 51.21,41.61 69.43,65.5 18.07,23.69 42.44,66.34 73.63,127.19 26.14,50.99 52.6,101.83 78.89,152.74 -52.06,0 -104.13,0 -155.68,0 -31.55,-56.83 -62.38,-113.95 -93.62,-170.86 -33.45,-60.94 -56.39,-99.07 -68.9,-115.08 -12.21,-15.64 -25.28,-26.6 -39.45,-32.61 -13.71,-5.81 -35.76,-8.81 -65.74,-8.96 -8.94,-0.04 -17.88,-0.09 -26.3,-0.09 0,54.63 0,109.36 0,163.89 0,54.54 0,109.27 0,163.71 -43.65,0 -87.3,0 -130.43,0zm130.43 -452.6c32.09,0.19 64.17,0.31 96.25,0.48 62.59,0.31 101.55,-2.68 117.29,-9.06 15.29,-6.2 27.37,-17.35 36.29,-32.99 8.96,-15.72 13.15,-35.38 13.15,-59.02 0,-26.32 -5.78,-47.48 -17.36,-63.79 -11.56,-16.3 -27.81,-27 -48.91,-31.08 -10.46,-2.02 -42.6,-2.99 -95.2,-3.34 -34.18,-0.22 -67.85,-0.38 -101.51,-0.67 0,33.28 0,66.65 0,99.83 0,33.18 0,66.46 0,99.64zm1100.83 452.6c-46.81,0 -93.62,0 -140.43,0 -18.94,-60.16 -37.34,-120.42 -55.75,-180.49 -86.26,0.48 -172.52,0.96 -258.77,1.43 -17.89,59.78 -35.77,119.57 -53.65,179.06 -46.29,0 -92.57,0 -138.33,0 41.55,-130.72 83.71,-261.6 125.18,-392.54 41.63,-131.45 83.63,-263.53 125.7,-395.87 45.76,-1.14 91.52,-2.19 137.8,-3.34 42.61,131.11 86.36,262.46 128.86,393.88 42.7,132.02 86.26,264.77 129.39,397.87zm-238.79 -314.16c-15.25,-48.63 -30.49,-97.45 -45.23,-145.97 -14.71,-48.44 -29.45,-97.07 -44.18,-145.5 -14.73,48.91 -29.97,97.92 -44.18,146.83 -14.19,48.82 -28.93,97.73 -43.13,146.35 58.91,-0.57 117.82,-1.14 176.72,-1.71zm308.21 314.16c0,-133.86 0,-267.92 0,-401.88 0,-133.96 0,-268.11 0,-402.17 42.08,-1.71 84.16,-3.71 126.76,-6.19 44.18,88.38 88.46,177.1 132.54,266.58 44.27,89.87 88.36,180.39 133.06,271.45 0,-92.2 0,-184.4 0,-276.6 0,-92.19 0,-184.39 0,-276.59 39.98,-2.96 79.95,-5.91 120.45,-8.87 0,139.11 0,278.31 0,417.23 0,139.02 0,278.12 0,417.04 -43.65,0 -87.31,0 -130.44,0 -43.65,-90.01 -87.7,-179.6 -130.96,-268.59 -43,-88.44 -87.31,-176.29 -130.44,-263.72 0,88.76 0,177.53 0,266.2 0,88.67 0,177.44 0,266.11 -40.49,0 -80.99,0 -120.97,0zm795.77 0c0,-118.51 0,-237.12 0,-355.73 0,-118.61 0,-237.22 0,-355.83 -63.64,4.77 -127.28,8.87 -190.92,12.68 0,-47.29 0,-94.68 0,-142.16 170.41,-13.44 340.82,-28.89 511.76,-45.48 0,50.06 0,99.92 0,149.88 -63.64,5.63 -126.76,10.49 -189.87,15.16 0,120.33 0,240.56 0,360.79 0,120.23 0,240.46 0,360.69 -43.66,0 -87.31,0 -130.97,0zm405.52 0c0,-149.12 0,-298.43 0,-447.65 0,-149.21 0,-298.62 0,-447.93 158.83,-17.06 318.2,-36.61 477.56,-56.35 0,53.78 0,107.36 0,160.95 -115.71,11.82 -231.42,23.74 -347.13,35.18 0,67.41 0,134.72 0,202.04 107.3,-7.73 214.59,-15.83 322.41,-23.94 0,53.49 0,106.89 0,160.37 -107.82,5.82 -215.11,11.64 -322.41,17.26 0,41.1 0,82.29 0,123.28 0,41.1 0,82.19 0,123.19 119.92,-2.38 239.84,-4.86 359.76,-7.44 0,53.68 0,107.36 0,161.04 -163.58,0 -327.15,0 -490.19,0z"/>
   <path class="fil1" d="M996.34 3653.11l3412.22 0c17.32,0 31.5,14.17 31.5,31.5l0 0c0,17.33 -14.18,31.5 -31.5,31.5l-3412.22 0c-17.32,0 -31.5,-14.17 -31.5,-31.5l0 0c0,-17.33 14.18,-31.5 31.5,-31.5z"/>
  </g>
 </g>
</svg>
