<?xml version="1.0" encoding="UTF-8"?>
<!DOCTYPE svg PUBLIC "-//W3C//DTD SVG 1.1//EN" "http://www.w3.org/Graphics/SVG/1.1/DTD/svg11.dtd">
<!-- Creator: CorelDRAW -->
<svg xmlns="http://www.w3.org/2000/svg" xml:space="preserve" width="33.605mm" height="20.7324mm" version="1.1" style="shape-rendering:geometricPrecision; text-rendering:geometricPrecision; image-rendering:optimizeQuality; fill-rule:evenodd; clip-rule:evenodd"
viewBox="0 0 404.44 249.52"
 xmlns:xlink="http://www.w3.org/1999/xlink"
 xmlns:xodm="http://www.corel.com/coreldraw/odm/2003">
 <defs>
  <style type="text/css">
   <![CDATA[
    .fil1 {fill:#BD9059}
    .fil2 {fill:white}
    .fil0 {fill:#BD9059;fill-rule:nonzero}
   ]]>
  </style>
 </defs>
 <g id="Camada_x0020_1">
  <metadata id="CorelCorpID_0Corel-Layer"/>
  <g id="_1271849303920">
   <path class="fil0" d="M134.04 220.45c-2.1,0 -3.71,-0.41 -4.81,-1.24 -1.1,-0.83 -1.66,-1.99 -1.66,-3.5l0 -10.36c0,-1.51 0.55,-2.67 1.66,-3.5 1.1,-0.83 2.71,-1.24 4.81,-1.24 2.1,0 3.71,0.41 4.81,1.24 1.1,0.83 1.66,1.99 1.66,3.5l0 2.04 -4.15 0 0 -2.23c0,-1.19 -0.73,-1.79 -2.2,-1.79 -1.46,0 -2.2,0.6 -2.2,1.79l0 10.77c0,1.18 0.73,1.76 2.2,1.76 1.46,0 2.2,-0.59 2.2,-1.76l0 -2.95 4.15 0 0 2.73c0,1.51 -0.55,2.67 -1.66,3.5 -1.1,0.83 -2.71,1.24 -4.81,1.24zm12.5 -19.56l5.95 0 4.55 19.28 -4.39 0 -0.8 -3.83 0 0.05 -4.99 0 -0.8 3.77 -4.07 0 4.55 -19.28zm4.79 12.89l-1.96 -9.53 -0.08 0 -1.92 9.53 3.95 0zm7.83 -12.89l6.27 0 2.8 13.8 0.08 0 2.79 -13.8 6.27 0 0 19.28 -4.15 0 0 -14.6 -0.08 0 -3.19 14.6 -3.67 0 -3.19 -14.6 -0.08 0 0 14.6 -3.83 0 0 -19.28zm24.87 0l5.95 0 4.55 19.28 -4.39 0 -0.8 -3.83 0 0.05 -4.99 0 -0.8 3.77 -4.07 0 4.55 -19.28zm4.79 12.89l-1.96 -9.53 -0.08 0 -1.92 9.53 3.95 0zm7.83 -12.89l6.51 0c2.26,0 3.91,0.36 4.95,1.09 1.04,0.73 1.56,1.84 1.56,3.35l0 1.19c0,2 -0.96,3.27 -2.88,3.8l0 0.06c1.07,0.22 1.82,0.67 2.26,1.35 0.44,0.68 0.66,1.59 0.66,2.73l0 3.39c0,0.55 0.03,1 0.08,1.34 0.05,0.34 0.19,0.68 0.4,1l-4.47 0c-0.16,-0.31 -0.27,-0.61 -0.32,-0.88 -0.05,-0.28 -0.08,-0.77 -0.08,-1.49l0 -3.53c0,-0.88 -0.21,-1.5 -0.62,-1.85 -0.41,-0.35 -1.13,-0.52 -2.14,-0.52l-1.52 0 0 8.26 -4.39 0 0 -19.28zm5.99 8.26c0.88,0 1.54,-0.16 1.98,-0.47 0.44,-0.31 0.66,-0.84 0.66,-1.57l0 -1.49c0,-0.7 -0.18,-1.2 -0.54,-1.52 -0.36,-0.31 -0.93,-0.47 -1.7,-0.47l-2 0 0 5.51 1.6 0zm13.5 -8.26l5.95 0 4.55 19.28 -4.39 0 -0.8 -3.83 0 0.05 -4.99 0 -0.8 3.77 -4.07 0 4.55 -19.28zm4.79 12.89l-1.96 -9.53 -0.08 0 -1.92 9.53 3.95 0zm13.97 6.67c-2.13,0 -3.75,-0.42 -4.87,-1.25 -1.12,-0.84 -1.68,-2.03 -1.68,-3.59l0 -10.14c0,-1.56 0.56,-2.76 1.68,-3.59 1.12,-0.84 2.74,-1.25 4.87,-1.25 2.13,0 3.75,0.42 4.87,1.25 1.12,0.84 1.68,2.03 1.68,3.59l0 1.65 -4.15 0 0 -1.85c0,-1.27 -0.76,-1.9 -2.28,-1.9 -1.52,0 -2.27,0.63 -2.27,1.9l0 10.55c0,1.25 0.76,1.87 2.27,1.87 1.52,0 2.28,-0.62 2.28,-1.87l0 -3.77 -2.2 0 0 -2.75 6.35 0 0 6.31c0,1.56 -0.56,2.76 -1.68,3.59 -1.12,0.84 -2.74,1.25 -4.87,1.25zm9.38 -19.56l4.39 0 0 19.28 -4.39 0 0 -19.28zm7.67 0l6.63 0c2.26,0 3.91,0.36 4.95,1.09 1.04,0.73 1.56,1.84 1.56,3.35l0 0.77c0,0.99 -0.23,1.8 -0.7,2.43 -0.47,0.62 -1.18,1.07 -2.14,1.35l0 0.06c2.18,0.51 3.27,1.86 3.27,4.02l0 1.65c0,1.49 -0.57,2.62 -1.7,3.4 -1.13,0.78 -2.79,1.17 -4.97,1.17l-6.91 0 0 -19.28zm6.11 7.85c0.88,0 1.54,-0.16 1.98,-0.47 0.44,-0.31 0.66,-0.84 0.66,-1.57l0 -1.07c0,-0.7 -0.18,-1.2 -0.54,-1.52 -0.36,-0.31 -0.92,-0.47 -1.7,-0.47l-2.12 0 0 5.1 1.72 0zm0.8 8.68c0.77,0 1.34,-0.14 1.72,-0.43 0.37,-0.29 0.56,-0.78 0.56,-1.47l0 -1.68c0,-0.88 -0.22,-1.49 -0.66,-1.83 -0.44,-0.34 -1.17,-0.51 -2.18,-0.51l-1.96 0 0 5.92 2.52 0zm9.22 -16.53l11.98 0 0 2.75 -7.59 0 0 5.1 6.03 0 0 2.75 -6.03 0 0 5.92 7.59 0 0 2.75 -11.98 0 0 -19.28z"/>
   <path class="fil1" d="M237.78 87.31l0.71 -4.25c0.13,-0.73 0.19,-4.45 0.33,-4.75 0.49,-0.68 1.55,1.74 1.82,2.1l3.22 3.58c0.93,0.78 4.07,2.62 5.5,2.92 0.53,0.11 0.74,0.04 0.99,0.39l-0.13 0.46 -9.68 0c-0.73,0 -2.77,0.15 -2.77,-0.46zm-31.27 -78.8l0.35 0 0 -0.35c-0.46,0.17 -0.02,-0.1 -0.35,0.35zm-1.85 -0.81c0.4,-0.11 0.26,-0.04 0.46,-0.35 -0.32,-0.15 -0.46,-0.16 -0.46,0.35zm-4.73 25.15c0.43,0.59 2.34,0.63 2.77,0l-2.77 0zm0.92 -24.57c0.53,-0.14 3.33,-2.42 4.3,-2.97 0.53,-0.26 0.52,0.06 0.67,-0.49 -1.49,0 -3.67,1.89 -4.7,2.81 -0.4,0.38 -0.37,0.16 -0.26,0.65zm-133.26 193.71c0,0.99 3.35,1.15 4.04,1.15 0.16,-0.69 0.11,-0.29 -0.46,-1.15 -2.34,0 -3.58,-1.48 -3.58,0zm265.47 0.69l0 0.46c3.39,0 3.45,-0.77 4.04,-0.92l0 -0.69c-1.68,-0.14 -0.52,-0.26 -2.52,0.36 -0.24,0.07 -1.52,0.01 -1.52,0.79zm-132.68 -157.14c0,0.57 0.84,4.6 1.24,4.79 1.04,0.48 0.38,-3.92 0.08,-4.72 -0.4,-1.07 -1.32,-0.49 -1.32,-0.06zm0.35 10.5c0,0.42 1.92,0.45 2.19,0.46 0.31,-0.59 0.34,-0.3 0.2,-1.11 -0.33,-1.89 0.04,-2.43 -1.7,-3.27 -0.32,1.22 -0.38,-1.22 -0.69,3.92zm-0.81 190.02c1.11,0.3 1.24,2.77 2.54,3.46 1.31,-2.05 1.03,-1.92 1.5,-2.77 0.19,-0.33 0.46,-0.47 0.69,-0.81 -0.44,-0.84 -0.27,-0.39 -0.7,-0.92 -1.16,-1.43 -1.48,-3.55 -1.49,-3.58 -0.51,0.37 -0.52,1.71 -1.48,3.13 -0.68,1.01 -0.94,1.06 -1.06,1.48zm-3 -189.9c3.26,0 2.02,0.2 2.56,-2.05 0.3,-1.26 0.3,-3.14 -0.2,-4.46 -0.24,-0.64 -0.67,-1.96 -1.32,-2.14 -1.45,2.7 -1.63,1.94 -5.37,-2.48 -0.41,-0.49 -0.6,-0.7 -0.63,-1.1l-0.46 0c0,0.89 -0.21,1.17 -0.23,1.96 -0.09,3.3 -0.43,7.78 3.03,9.67 0.47,0.24 2.15,0.61 2.62,0.61zm11.65 -17.65c-0.11,-0.49 -0.23,-1 -0.35,-1.5 -0.36,0.56 -0.77,4.43 -4.77,5.96 -1.52,0.58 -2.39,0.75 -3.9,0.06 -2.08,-0.94 -4.26,-2.93 -4.82,-5.33l-0.23 0c0,0.67 0.01,0.85 -0.12,1.38 -0.78,-0.21 -1.71,-2.15 -2.19,-2.88 0,1.64 -0.9,3.46 0.86,6.64 1.38,2.5 2.16,2.75 3.53,4.78 0.55,-0.37 1,-1.56 1.51,-2.29 1.14,-1.64 0.85,-1.75 3.32,-1.7 1.71,0.03 2.54,0.58 3.62,1.77 0.36,0.39 1.46,1.52 1.59,1.87 1.53,-0.41 3.96,-7.1 4.03,-9.23 0.04,-1.3 -0,-0.76 0.81,-1.15 -0.06,-0.68 -0.8,-2.49 -0.81,-2.54 -0.8,0.58 -0.36,3.69 -2.08,4.15zm10.04 30.69c0,2.82 2.02,3.62 4.04,5.08 0.82,-2.25 8.37,-1.72 8.54,-3.69 -0.72,-0.49 -1.29,-0.07 -1.99,0.08 -0.45,0.1 -1,0.08 -1.43,0.19 -0.69,0.17 -0.32,0.47 -0.81,0.81 -0.55,0.38 -1.11,-0.29 -1.88,0.19 -0.42,0.27 -2.42,1.62 -2.42,0.46 0,-0.62 1.11,-0.81 1.48,-1.05 3.98,-2.26 6.39,-1.52 7.38,-2.31 0.47,-0.38 0.65,-0.34 0.94,-0.9 -1.54,-1.03 -2.74,-0.41 -4.4,-0.25 -1.95,0.19 -1.14,0.03 -2.06,1.4 -0.43,0 -0.32,-0.03 -0.79,-0.25 -0.89,-0.38 -1.72,0.94 -2.67,0.94 -1.34,0 1.68,-2.36 1.86,-2.52 1.42,-1.29 1.13,-1.04 3.34,-1.05 0.64,-0 0.87,-0.14 1.37,-0.12l2.43 0.11c0.92,0 -0.32,-1.27 -2.88,-1.27 -0.7,0 -0.88,0.23 -1.5,0.23 -0.74,0 -0.87,-0.53 -2,-0.04 -1.33,0.56 -2.67,0.92 -3.72,1.94 -0.49,0.48 -0.65,0.85 -1.44,0.87 -0.51,-2.14 5.43,-5.11 7.4,-5.17 2.65,-0.07 0.82,-1.76 -3.83,-0.84 -1.36,0.27 -1.45,0.29 -2.6,1.67 -1.26,1.68 -2.36,3.28 -2.36,5.49zm-11.77 -19.96c-0.73,-0.17 -1.79,-1.23 -1.96,-1.96 -0.92,0.25 -0.52,1.35 -0.86,2.72 -0.25,1.05 -0.7,0.62 0.38,2.95 1.16,2.5 -0.22,3.45 2.32,3.56 2.26,0.1 3.89,0.29 5.69,-1.35 0.9,-0.82 1,-7.34 0.76,-8.9l-0.72 -3.66c-1.17,-4.09 -0.02,0.53 -5.61,6.64zm108.1 154.95c1.96,0 3.35,-2.29 3.67,-2.44 0.62,-0.3 5.51,0.27 6.07,0.07 0.41,-0.22 1.88,-1.25 2.03,-1.67 -0.62,-0.3 -18.84,-1.46 -21.23,-1.5 -1.16,0.01 -2.69,-0.28 -3.46,-0.34 -1.8,-0.14 -3.49,-0.12 -5.3,-0.12 -1.44,0 -1.05,4.24 1.49,4.74 3.23,0.64 11.39,0.55 15.18,1.09 0.55,0.08 1.04,0.17 1.56,0.17zm-237.09 -4.04c0.73,0.58 1.67,1.72 2.65,1.74 1.05,0.02 3.87,-0.36 4.05,-0.36 0.32,0 0.26,0.19 0.69,0.2 0.98,0.02 0.81,-0.25 1.26,0.5 1.73,2.88 5.75,1.64 8.54,1.49 3.75,-0.2 7.53,-0.27 11.26,-0.74 1.9,-0.24 3.2,-3.3 2.2,-4.42 -0.68,-0.76 -1.16,-0.37 -2.27,-0.38 -3.58,-0.01 -6.77,0.42 -10.27,0.57 -0.74,0.02 -1.16,0.22 -1.96,0.23 -2.18,0.08 -14.44,0.75 -16.15,1.15zm239.86 -119.3c0,0.89 -0.16,0.49 0.46,1.04 0.73,-0.49 0.28,-0.81 2.42,-0.81 3.16,0 3.62,5.11 -0.68,6.13 -0.58,0.14 -0.31,0.33 -1.75,0.44 -1.77,0.13 -11.47,0.1 -11.47,0.1l-1.44 1.52c21.55,0 43.14,0 64.72,0l3 0c1.42,-0.04 6.77,0.27 7.38,-0.12 -2.68,-0.91 -4.45,-1.57 -7.26,-1.97 -1.72,-0.19 -0.87,-0.07 -2.8,-1.81 -0.4,-0.36 -2.15,-1.82 -2.62,-1.99 0.8,1.67 0.59,3.67 -1.68,4.32 -2,0.58 -38.38,0.06 -41.36,0.06 -0.79,0.01 -0.78,0.1 -1.27,-0.23 0.06,-0.72 1.57,-1.21 2.24,-3.18 1.91,-5.6 -2.99,-7.98 -5.22,-7.07 -2.14,0.87 -2.1,1.46 -2.67,3.56zm-239.4 0.92c0,3.59 2.4,4.99 2.77,5.54 -0.38,0.71 -0.3,0.46 -2.54,0.46l-19.62 -0c-0.71,-0 -0.89,0.1 -1.49,0.12l-18.01 0.01c-1.73,-0.08 -3.22,-1.42 -3.22,-2.9 0,-0.76 0.44,-0.67 0.46,-1.5 -0.54,0.36 -0.28,0.02 -1,0.62 -4.62,4.01 -1.63,2.43 -7.38,3.58 -1.48,0.32 -2.83,0.93 -4.2,1.57 2.69,0.22 6.55,0 9.35,0 6.5,0 40.76,-0.25 44.32,0.1 0.58,0.06 0.65,-0.09 1.24,-0.11 6.73,-0.1 13.47,0 20.19,0 -0.2,-0.3 -1.02,-1.3 -1.34,-1.43 -0.57,-0.22 -8.33,-0.02 -9.85,-0.07 -2.31,-0.07 -4.9,-0.46 -6.11,-2.32 -0.77,-1.18 -0.95,-4.38 1.84,-4.38 2.88,0 1.49,0.69 2.88,0.69 0,-3.52 -1.59,-5.4 -5.32,-4.28 -1.74,0.52 -2.98,2.7 -2.98,4.28zm218.63 137.06c0,1.54 0.15,1.91 1.56,2.59 2.95,1.42 13.27,-4.08 15.58,-5.29 2.62,-1.37 9.58,-6.59 11.6,-8.36l5.42 -5.42c0.37,-0.45 0.11,-0.53 0.68,-0.59 0.1,-1.2 0.9,-1.25 0.17,-2.25 -1.15,-1.59 -4.26,2.24 -6.05,3.53 -1.85,1.36 -2.65,2.16 -4.58,3.38 -7.63,4.84 -9.38,5.5 -17.71,8.94 -2.18,0.87 -6.67,1.33 -6.67,3.48zm-224.51 -18.69c0.07,0.49 0.06,0.85 0.26,1.12 4.03,4.92 9.28,9.62 14.73,12.96 3.26,2 8.97,5.1 12.62,6.3 1.94,0.64 4.65,1.79 6.57,0.64 1.7,-1.02 1.64,-3.44 -0.85,-4.28 -5.76,-1.95 -11.87,-3.82 -17.03,-7.08l-10.16 -6.91 -4.37 -3.6c-0.7,-0.39 -1.77,-0.06 -1.77,0.85zm129.68 -178.02c0,-2.94 1.2,-2.62 3.2,-3.03 1.09,-0.22 0.25,-0.43 2.34,-0.43 1.08,0 2.49,1.96 1.73,1.96 -1.09,0 -0.69,-0.39 -1.62,0.23 0.23,0.33 0.24,0.36 0.69,0.46 -0.01,0.55 -0.02,1.17 -0.23,1.62 -1.86,0.43 -0.95,-0.87 -2.42,0.12 -0.37,-0.25 -0.4,-0.35 -1.04,-0.35l0 0.23c0.56,0.13 0.58,0.25 0.58,0.92 -1.15,0 -1.14,-0.38 -1.96,-0.58 -0.01,0.57 -0.11,0.8 -0.46,1.04 -0.41,-0.3 -0.81,-2.1 -0.81,-2.19zm4.27 -8.77c-0.89,0 -1.94,-0.52 -2.69,-0.03 -2.12,1.36 -1.74,0.04 -3.89,-0.31 -1.73,-0.28 -0.37,-0.29 -2.94,0.07 -0.68,0.1 -0.62,-0.06 -1.02,-0.06 -0.82,-0 -0.06,0.37 -0.55,1.38 -0.57,-0.15 -0.08,-0.22 -0.81,-0.23 -0.41,1.76 -0.26,4.25 1.91,4.89 0.6,0.18 1.73,-0.2 3.2,0.84 0.43,0.31 0.62,0.2 0.77,0.61 0.34,-0.25 0.26,-0.4 0.69,-0.69 1.2,1.79 -1.11,1.05 -0.83,3.83 0.1,0.99 0.4,0.86 -0.21,1.48 -0.81,-0.54 -0.92,-1.48 -0.92,-2.42 -1.37,0 -0.68,0.26 -1.5,0.81 -0.42,-0.31 -0.16,-0.38 -0.58,-0.69 -0.25,0.94 -1.17,-0.12 -1.62,-0.12 -0.54,0 -0.5,0.82 -1.73,0 0,2.41 0.52,3.5 1.95,5.44 0.26,0.35 0.89,1.15 1.28,1.25l0 0.92 -2.54 1.27c1.33,0 5.19,-0.25 5.19,-2.08 -2.29,-0.53 -1.42,-4.15 -0.58,-4.15 1.59,0 0.35,1.25 0.35,1.62 0,0.51 0.45,0.29 0.87,0.4 0.91,0.25 0.07,0.41 1.9,0.41 0.82,0 1.22,-0.81 2.08,-0.81 1.49,0 -0.09,2.29 -1.15,2.54 0.28,1.19 3.14,2.29 4.04,2.08 -0.33,-0.45 -1.27,-0.76 -1.5,-1.62 0.78,-1.17 1.39,-0.97 2.69,-3.88l1.22 -2.59c0.24,-0.29 0.81,-0.52 0.81,0.13 0,0 -0.75,1.73 -0.12,2.19 0.03,-1.22 0.8,-3.08 0.56,-5.52 -0.13,-1.34 0.28,-1.89 -0.44,-3.25l0.37 -0.44c-0.37,-0.25 -0.35,-0.16 -0.37,-0.71 0.34,-0.09 0.19,-0.05 0.46,-0.23 -0.94,-1.77 0.41,-0.87 -1.73,-2.31 0.08,-0.36 0.15,-0.33 0.23,-0.69 -0.49,0.01 -1.68,0.69 -2.88,0.69zm-96.8 175.6c0.92,0 4.04,-0.82 4.04,-1.85 0,-0.87 -2.46,0.22 -3.89,-1.76 -1.76,-2.44 0.93,-5.82 8.09,-3.36l2.15 0.62c3.53,0.96 13.17,5.43 17.07,6.58 3.49,1.03 9.23,2.74 12.8,1.97l3.15 -1c2,-1.07 3.85,-4.12 2.7,-6.24 -0.65,-1.2 -1.72,-2.42 -3.31,-2.45 0.29,1.25 1.99,1.61 1.3,4.07 -0.58,2.07 -2.86,2.9 -4.68,3.4 -1.58,0.37 -5.93,-0.15 -7.5,-0.75 -7.21,-2.72 -7.11,-8.63 -3,-6.93 0.85,0.35 1.49,0.91 0.73,-0.84 -1.86,-3.85 -7.87,-1.61 -6.67,3.79 0.18,0.8 0.4,0.34 0.2,1.18 -3.15,-0.73 -10.55,-4.92 -18.14,-6.55 -12.98,-2.78 -11.78,9.4 -6.34,10.03 0.43,0.05 0.7,0.09 1.29,0.09zm162.21 -4.04c0,-1.16 0.46,0.6 0.46,-2.88 0,-3.98 -7.04,-5 -7.04,-0.69 0,0.9 3.81,-2.12 3.81,1.62 0,0.72 -1.96,3.07 -2.69,3.54 -4.2,2.58 -2.72,1.29 -6,2.3 -0.78,0.24 -3.94,0.3 -4.87,0.11l-1.96 -0.7c-1.89,-0.88 -3.69,-3.28 -2.18,-5.43 0.63,-0.9 0.86,-0.45 0.86,-1.33l-1.93 0.72c-1.65,0.91 -2.56,5.13 0.54,7.37 4.61,3.34 12.88,1.14 18.04,-0.79 5.63,-2.11 11.05,-4.7 16.8,-6.51 0.38,-0.12 0.79,-0.11 1.23,-0.27 7.27,-2.49 9.33,1.2 8.39,2.85 -0.9,1.58 -2.21,1.93 -4.07,1.93 -0.03,0.36 0,0.22 -0.12,0.46 2.75,3.75 11.4,1.51 8.58,-5.81 -1.22,-3.17 -6.56,-3.61 -9.25,-2.7l-6.04 1.69c-1.95,0.64 -10.42,4.08 -11.28,4.64 -0.35,0.22 -1.29,0.59 -1.29,-0.13zm-164.52 40.73c0.49,0.31 3.19,0.46 4.33,0.86 1.69,0.59 2.85,0.45 3.17,2.02 0.29,1.39 1.23,1.54 1.38,2.08l0.46 0c0.45,-1.69 4.41,-4.27 6.12,-4.27l158.87 0c1.99,0 5.88,2.26 6.35,4.27l0.58 0c0.16,-0.58 0.74,-0.37 1.34,-2.01 0.32,-0.87 -0.25,-1.28 2.46,-1.81 0.4,-0.08 0.32,-0.11 0.67,-0.25 0.9,-0.36 3.54,-0.78 4.42,-0.78 -0.25,-0.34 -0.76,-0.35 -1.62,-0.35 -62.37,0 -124.85,0 -187.25,0 -0.55,0 -0.83,0.13 -1.27,0.23zm79.03 -47.07c0,0.81 0.03,1.32 0.66,1.88 1.66,1.48 2.6,-0.88 3.67,1.06 2.08,3.79 -3.18,6.28 -7.08,5 -2.77,-0.91 -5.76,-1.76 -7.86,-3.91 -1.58,-1.63 -2.55,-3.73 -2.55,-5.99l-0.69 0c-0.04,0.44 -0.92,1.65 -0.92,2.31 0,3.52 1.04,3.93 1.04,5.08 -1.26,0 -2.93,-1.07 -4.1,-1.56 -2.57,-1.07 -11.47,-4.19 -15.26,-4.93 -1.11,-0.22 -4.63,-1.31 -7.01,-0.15 -5.15,2.5 -2.97,8.83 1.1,9.17 3.59,0.31 3.9,-2.01 3.15,-3.04 -0.74,-1.03 -1.94,0.12 -2.87,-1.29 -1.07,-1.63 0.86,-2.82 1.44,-2.82 6.2,0 11.91,3.16 17.44,5.52 2.18,0.93 10.83,4.13 12.87,4.44 0.48,0.07 0.64,0.07 1.11,0.27 0.91,0.39 5.1,0.8 6.48,0.44 2.58,-0.68 1.89,-0.04 4.77,-1.69 2.04,-1.21 3.6,-3.92 3.6,-6.32 0,-0.47 -0.56,-2.52 -0.82,-2.87 -1.59,-1.76 -3.37,-3.37 -5.96,-2.76 -1.05,0.25 -2.22,0.97 -2.22,2.16zm32.42 11.65c2.44,0 2.26,-0.09 4.55,-0.41 4.84,-0.67 17.87,-6.13 21.63,-7.79 2.48,-1.1 10.06,-4.07 11.98,-1.93 0.95,1.06 0.32,2.59 -0.98,2.9 -0.7,0.17 -1.92,-0.55 -2.11,1.92 0,0.52 0.98,1.37 1.6,1.52 7.51,1.82 9.23,-11.92 -2.82,-9.32 -4.4,0.95 -13.3,3.86 -16.76,5.5 -0.64,0.37 -1.37,0.48 -2.01,0.76 -4.22,1.9 0.61,-0.77 -1,-5.51 -0.17,-0.5 -0.63,-1.24 -1.16,-1.38 -0.06,0.11 -0.15,5.47 -5.17,7.99 -2.61,1.31 -7.19,3.11 -10.08,2.07 -2.19,-0.78 -3.65,-3.21 -2.46,-4.92 1.45,-2.08 1.22,-0.13 3.17,-0.87 2.23,-0.85 1.92,-5.47 -3.73,-4.19 -4.06,0.92 -6.77,8.24 0.91,12.54 0.76,0.43 3.44,1.1 4.43,1.1zm-1.5 -134.52c0.63,-0.44 -0.06,-2.23 -0.11,-2.54l-0.35 -2.19c1.16,0.31 1.41,2.66 1.5,3.69 0.25,-0.4 0.75,-2.66 1.27,-3.46 0.27,-0.41 0.92,-0.4 0.92,0 0,0.42 -0.81,2.4 -0.81,5.54 0.43,-0.32 0.33,-0.85 1.15,-0.92 -0.03,1.41 -1.09,2.72 -0.23,4.62 1.03,2.27 6.89,-1 9.05,1.33 0.62,0.67 0.53,0.04 0.53,1.09 0.93,0 2.45,-0.92 2.77,0.46 -0.37,0.25 -0.64,0.35 -1.27,0.35l0 0.58c0.72,0.17 1.11,0.89 1.27,1.51 0.33,1.3 -0.63,1.49 2.2,1.49 -0.63,-3.92 -1.43,-8.26 -2.85,-12.26 -0.52,-1.46 -1.87,-4.64 -2.85,-5.8 -1.72,-2.02 -3.03,-3.89 -5.94,-3.72 -0.6,0.04 -0.19,0.09 -0.7,-0.26 0,-1.39 0.17,-1.49 -0.88,-2.58l-3.23 -2.42 -4.66 -2.61c-0.84,-0.22 0.67,5.23 0.71,5.41 0.68,3.56 1.23,7.3 2.05,11.11 0.18,0.74 0.46,0.66 0.48,1.6zm-43.73 -4.04c0,1.98 0.01,3.71 0.74,5.37 0.53,1.2 0.23,1.88 -0.63,0.86l-2.08 -2.77c-0.08,0.92 -0.67,2.18 -0.89,3.14 -0.08,0.42 -0.35,3.99 0.13,4.43 0.33,0.29 6.02,0.3 7.89,0.88 5.88,1.82 4.63,0.35 7.81,-6.44 0.61,-1.3 0.86,-2.67 1.29,-4.02 0.41,-1.27 1.46,-3.45 0.85,-4.69 -0.31,0.13 -1.18,2.53 -2.65,3.46 -0.41,-0.73 1.18,-3.21 -0.33,-5.55 -0.72,-1.12 -0.65,-0.6 -0.59,-1.37 1.41,0.94 1.79,1.75 2.08,1.96 0,-1.36 -1.01,-3.07 -2.09,-3.91 -3.75,-2.9 -10.38,2.3 -11.19,7.12 -0.09,0.52 -0.33,1 -0.33,1.51zm-167.87 117.45c2.51,0 3.91,-0.58 7.04,-0.58 -0.94,-0.81 -1.26,-0.54 -1.83,-1.28 -1.27,-1.65 0.06,-4.2 0.6,-5.95 0.22,-0.72 0.08,-35 0.08,-38.22l0 -8.88c0.24,-2.76 -0,-3.06 -0,-5.31 -1.1,-0.26 -4.22,-0.12 -5.54,-0.12 -0.92,0 0.9,1.41 0.92,6.23 0.05,16.38 -0.13,33.02 0.01,49.38 0.02,1.97 -1.17,3.57 -1.27,4.73zm251.97 -24.57c0.39,-0.04 0.38,0.01 0.69,-0.58 -0.64,0.01 -0.42,0.06 -0.69,0.58zm-37.96 -4.73c0.26,-0.06 0.27,-0.09 0.58,-0.12 -0.05,-0.55 -0.22,-0.68 -0.58,-0.92l0 1.04zm-201.32 27.69c0.61,0.53 3.01,0.12 3.81,0.12l0 -0.12c-2.29,-0.34 -1.69,0 -3.81,0zm347.5 -1.62l0 0.23c0.5,0.01 0.63,0.12 1.27,0.12l4.04 -0.12c-1.83,0 -3.49,-0.27 -5.31,-0.23zm-343 1.15c0.6,0.52 2.75,0.12 4.38,0.12 -0.39,-0.56 -3.52,-0.12 -4.38,-0.12zm4.73 -0.46c0.4,0.28 4.52,0.61 5.31,-0.46 -1.08,0 -0.54,0.36 -2.54,0.35 -1.09,-0 -1.78,0.12 -2.77,0.12zm102.22 -55.15l0.11 0 -0.11 -2.54c-1.79,-0.42 -0.94,0.33 -0.68,1.14 0.37,1.14 0.68,0.59 0.68,1.4zm-61.61 24.92c0.55,0.26 0.96,0.15 1.62,0 -0.93,-1.39 0.19,-1.47 -1.04,-2.77 -0.04,1.74 -0.42,2.1 -0.58,2.77zm189.67 1.27c1.08,1.2 2.14,0.81 4.38,0.81 0.45,0 0.35,-0.38 0.35,-0.81 -0.63,-0.05 -4.47,-0.32 -4.73,0zm-22.5 -0.11c0,0.31 0.05,0.32 0.11,0.58 0.74,-0.2 1.9,-1.32 2.47,-1.8 0.9,-0.81 0.8,-1.55 0.3,-1.55 -0.4,0 -1.87,1.53 -2.3,1.85 -0.07,0.05 -0.58,0.17 -0.58,0.92zm-86.07 0.23c-0.09,-0.34 -0.05,-0.19 -0.23,-0.46 0.55,-0.06 0.56,-0.24 0.58,0.46l-0.35 0zm-4.27 0.12l3.92 0c0.01,0 1.6,0.68 0.69,-1.04 -0.73,0.02 -1.76,0.23 -2.53,0.24 -2.19,0.03 -2.08,-0.28 -2.08,0.8zm74.65 -21c1.59,0.02 3.32,0.29 4.85,-0.12l0 -0.69c-3.76,-0.1 -5.18,-0.65 -4.85,0.81zm-71.48 -0.07c1.33,-0.21 1.68,1.01 1.68,-0.74 -1.07,-0.25 -3.5,-0.12 -4.73,-0.12 0,0.68 -0.1,0.45 0,0.92 1,0 2.11,0.08 3.05,-0.07zm109.44 0.3c0,0.38 1.05,0 1.62,0l3.35 0c0,-1.4 -0.23,-1.04 -4.5,-1.04 -0.41,0 -0.46,0.63 -0.46,1.04zm-74.3 19.96c0,0.86 2.98,0.19 5.37,1.09 1.97,0.74 1.74,-0.32 1.19,-0.62l-2.67 -0.79c-1.13,-0.29 -1.53,-0.03 -2.74,-0.03 -0.42,0 -1.15,-0.31 -1.15,0.35zm87.8 -13.27c1.94,1.02 1.1,1.04 3.69,1.04l4.62 0c-0.73,-1.09 -0.35,-1.07 -0.92,-1.62 -0.2,0.05 -1.06,0.93 -3.33,0.68 -1.2,-0.14 -2.68,-0.1 -4.05,-0.1zm-182.29 37.84c0,0.86 -0.21,0.71 2.34,0.38 1.08,-0.14 2.33,0.08 3.4,-0.06l6.49 -0.43c-0.09,-1.09 -1.04,-0.68 -2.9,-0.48l-5.06 0.25c-1.66,0.04 -1.22,-0.36 -2.19,-0.58 -0.56,0.41 -1.05,0.84 -2.08,0.92zm138.1 -3l0 0.35c1.16,0 1.94,0.12 3,0.12l7.97 -0c0.5,0 1.26,0.24 1.26,-0.11 0,-0.97 -0.8,-0.69 -2.65,-0.69l-6.8 -0.12c-0.47,-0.04 -2.77,-0.49 -2.77,0.47zm-120.33 -41.76c0,0.86 2.47,0.2 3.3,0.74 1.07,0.78 0.98,0.58 0.97,1.8 -0.02,2.2 -0.07,4.63 0.11,6.81 0.9,-0.21 0.58,-0.87 0.58,-3.23l0.01 -5.78c0.03,-0.51 0.31,-0.8 -0.93,-0.81 -1.31,0 -2.62,0.01 -3.93,0.01 -0.07,0.31 -0.12,0.22 -0.12,0.46zm99.68 41.76c0.93,0.22 9.95,0.35 12.11,0.35 0.36,-1.55 -1.09,-1.05 -2.19,-1.03 -1.23,0.02 -2.24,-0.12 -3.58,-0.12l-5.65 0c-0.36,0 -0.61,0.51 -0.69,0.81zm-84.57 1.85c-0.24,-0.88 -0.58,-0.69 -1.85,-0.69 -2.34,0 -4.8,0.35 -7.84,0.35 -0.62,0 -1.59,-1.1 -1.96,-1.85 -0.07,0.8 -1.39,2.78 -0.13,2.78 3.88,0.01 7.93,-0.5 11.78,-0.59zm164.75 -0.58c-0.1,0.39 -0.6,0.84 0.34,0.93l11.55 0.57c0,-1.15 -0.31,-0.9 -0.69,-2.54 -0.67,0.45 -0.76,1.17 -1.83,1.4 -1.43,0.31 -7.69,-0.24 -9.36,-0.36zm10.15 -35.88c0.31,-0.03 0.31,-0.05 0.58,-0.12 0,-1.38 -0.16,-11.48 0.13,-12.33 0.84,-2.44 2.01,-2.79 -0.6,-2.79 -0.55,0 -0.35,1.09 -0.35,1.62 0,1.82 -0.35,12.75 0.23,13.61zm-113.18 -7.85c0,0.81 0.2,0.58 2.08,0.58 2,0 11.22,-0.09 12.09,0.03 1.41,0.18 3.6,1.31 3.6,0.55 0,-0.95 -2.54,-1.22 -3.78,-1.42 -2.09,-0.33 -10.28,-0.08 -12.95,-0.08 -0.48,0 -1.04,-0.31 -1.04,0.35zm113.06 22.27l0 15c0,0.7 0.39,1.63 0.69,2.42 0.44,-1.9 -0.16,-14.89 0.1,-15.58 0.21,-0.57 1.51,-1.26 1.74,-1.26 0.5,0 2.75,0.44 2.09,-0.58 -0.29,-0.46 -2.33,-0.23 -2.9,-0.23 -1.26,0.01 -1.73,-0.33 -1.73,0.23zm-186.33 18.46c0,-3.42 1.41,-0.68 -0.72,-7.24l-1.63 -6.33c-0.11,-0.6 -0.2,-0.46 -0.35,-1.04 -0.22,-0.89 -0.1,-1.72 -0.87,-1.78 0,3.97 -0.18,4.53 0.87,7.79 0.66,2.07 1.11,4.43 1.93,6.83 0.34,0.99 -0.12,1.16 0.78,1.76zm19.04 1.73c-0.6,2.23 -2.88,1.59 12.81,1.16 1.93,-0.05 13.22,-0.26 13.65,-0.43 0.49,-0.19 0.81,-0.7 1.11,-0.96 -8.15,0.32 -16.44,0.48 -24.57,0.92 -2.49,0.14 -2.21,-0.48 -3,-0.69zm39.46 -0.35c-0.08,1.02 -0.67,0.81 2.77,0.81 1.36,0 2.62,-0.01 3.81,-0.11l22.2 -0.17c0.54,0.05 0.31,-0.07 0.87,-0.07 0.29,0 1.21,0.36 1.34,-0.53 0.08,-0.58 -0.56,-0.4 -1.57,-0.4 -3.2,0.02 -18.88,-0.04 -21.13,0.21 -2.23,0.25 -6.48,-0.17 -8.29,0.25zm102.1 0.92c-4.92,0 -10.09,-0.46 -15.11,-0.46l-3.47 -0.12c-0.72,-0.05 -0.54,-0.28 -0.92,0.12 0.44,1.22 4.18,0.81 5.19,0.81 0.84,-0 1.25,0.11 1.96,0.12 4.41,0.05 7.25,0.37 11.77,0.34 4.11,-0.02 2.06,0.77 6.26,-2.5 2.03,-1.61 1.58,-0.83 1.58,-4.3 0,-0.32 -0.05,-0.21 -0.23,-0.35 0,0.62 -0.09,0.9 -0.36,1.25 -0.73,0.75 -5.82,5.09 -6.67,5.09zm-243.9 -41.88l0 1.27c0.49,0.37 0.92,0.6 0.92,1.15l0 6.58c0.88,0 1.49,-0.05 2.2,-0.11 2.13,-0.17 1.61,1.29 1.61,-8.43 0,-1.22 -2.07,-0.62 -4.73,-0.46zm0 24.23l0 1.15c0.42,0.11 0.92,0.65 0.92,0.92l0 7.73c0.8,0 3.34,-0.24 3.81,-0.46l0 -7.15c0,-3.14 0.75,-2.38 -4.73,-2.19zm38.07 10.15c0.71,1.06 3.03,-0.65 4.75,0.91 0.93,0.84 1.92,6.19 2.46,7.81 0.48,1.44 -0.13,1.48 -0.52,2.94 2.56,0 6.5,-0.44 9.46,-0.58 0.66,-0.03 2.56,-0.16 3,-0.46 -0.77,-1.05 -7.94,0.71 -9.24,-0.33 -2.21,-1.77 -0.56,-3.76 -0.56,-4.51 0,-1.52 -1.05,-4.35 -1.44,-5.71 -0.15,-0.54 0.13,-0.57 -0.32,-0.73 -0.22,-0.08 -6.82,0.16 -7.59,0.68zm308.04 -23.19c0,0.7 3.55,0.84 3.92,0.58 0.36,-0.36 -0.23,-8.5 0.1,-9.47 0.33,-0.94 0.7,0.2 0.7,-2.07 -1.07,-0.25 -3.5,-0.11 -4.73,-0.11l0 11.07zm-38.19 -11.19l0.08 6.83 -0.08 7.01c0,1.32 0.12,2.2 0.12,3.46l0 12.34c-0.01,1.74 -0.36,1.5 1.96,1.5 0.55,0 0.35,-0.94 0.35,-1.96 0,-1.56 0.1,-6.06 -0.03,-7.01 -0.25,-1.79 -0.08,-16.86 -0.08,-19.87 0,-1.54 1.53,-1.89 2.42,-1.96l0 -0.69c-0.83,-0.07 -4.73,-0.58 -4.73,0.35zm-244.82 -2.31c0,0.95 -0.04,1.65 -0.11,2.43 -0.11,1.37 0.4,4.96 0.09,7.71 0,0 -0.43,29.24 0.06,30.08 0.18,0.3 0.25,0.3 0.3,0.85l0.58 0c0.53,-2.29 0.46,-0.64 0.46,-3.35l0.12 -26.88 0 -16.73c0,-0.58 -1.06,-0.35 -2.65,-0.35 0.03,1.14 1.15,1.4 1.15,6.23zm226.71 -5.88l0 45.11c0,2.87 3.33,5.3 -0.51,7.22 -0.91,0.44 -3.62,-0.04 -4.49,-0.16l-4.24 -0.15c-0.41,0 -0.35,0.23 -0.35,0.69l4.04 0.11c10.01,0.61 8.74,1.6 7.36,-2.29 -0.36,-1.12 0.17,-17.28 -0.16,-19.45l-0.05 -12.07c0,-0.78 0.12,-1.28 0.12,-2.19l-0.12 -13.27c0,-3.56 3.33,-3.92 -1.27,-3.92 -0.27,0 -0.35,0.08 -0.35,0.35zm-259.01 2.65c0,1.26 -2.62,10.67 -2.82,11.25l-3.99 15.28c-0.62,2.98 -2.99,10.66 -3.39,13.34 -0.11,0.7 -0.28,0.79 -0.38,1.23 -0.3,1.32 0.29,4.37 -0.23,5.65 -0.29,0.7 -0.87,1.24 -1.34,1.78 -0.74,0.85 -1.4,3.19 -2.15,4.32 -0.29,0.35 -0.35,0.57 -0.24,1.03 0.93,-0.02 1.78,-0.36 3,-0.35 2.01,0.02 5.29,-0.48 8.08,-0.58 0.63,-0.02 1.02,-0.06 1.15,-0.58l-5.64 0.36c-1.46,0.16 -2.5,0.04 -3.26,-1.16 -1.41,-2.23 1.31,-4.05 2.19,-7.99 0.53,-2.35 5.2,-21.85 5.65,-22.97 0.24,-0.6 3.03,-12.42 3.86,-15.29l1.08 -4.23c0.81,-4.34 2.41,-4.11 -1.92,-4.11 -1.24,0 0.35,1.53 0.35,3zm297.43 24.69l0 20.54c0,1.82 -4.2,4.76 -5.67,6.1 -1.74,1.58 -4.3,0.68 -6.44,0.48l-10.96 -0.81c0.15,0.31 0.11,0.12 0.12,0.58l10.28 0.8c1.23,0.26 2.65,0.14 3.91,0.25 1.34,0.11 3.89,0.45 5.08,0.46 2.44,0.03 1.74,0.17 4.21,-1.92 1.19,-1 0.9,-1.13 1.39,-2.42 0.65,-1.73 0.74,-1.81 0.82,-3.6 0.17,-3.85 -0.06,-7.72 -0.06,-11.46l0 -30.8c0,-2.33 0.02,-1.61 -1.92,-3.39 -0.35,-0.32 -0.28,-0.14 -0.39,-0.54l-0.46 0c0,8.7 0.12,17.03 0.12,25.73zm38.07 -24.92c0,4.12 -0.22,15.48 0.11,19.16 0.09,1.01 -0.11,1.91 -0.11,3 0,4.03 1.01,4.16 -2.34,7.23 -5.37,4.92 -2.9,3.89 -10.24,3.73 -0.66,-0.01 -1.1,-0.2 -1.73,-0.23 -1.83,-0.08 -4.21,-0.25 -5.89,-0.11 0,1.62 -0.25,14.28 0.12,15.23l1.27 3.93c0,1.03 -0.33,1.52 -1.12,2.23 -0.8,0.71 -1.54,0.27 -2,0.89l6.81 0.58c0,-1.22 -1.04,-2.5 -1.04,-3.69l0 -16.96c0,-0.57 0.3,-0.63 0.85,-1.11 0.32,-0.28 -0.1,-0.27 1,-0.27 1.11,0 10.99,0.45 12.82,0.68 1.71,0.32 1.69,-0.53 3.48,-2.03 4.16,-3.57 2.4,-2.11 2.8,-4.7l-0.07 -11.26 0.01 -13.5c-0,-0.59 -0.02,-0.82 -0.38,-1.12 -0.79,-0.7 -3.63,-3.76 -4.36,-3.95l0 2.31zm-336.08 68.42l0 0.23c1.22,0.1 10.11,4.86 7.22,9.64 -0.31,0.52 0.03,0.08 -0.41,0.39 1.71,0 3.11,-3.58 3.11,-5.65 0,-1.63 -1.4,-3.45 -1.04,-3.81 0.31,-0.31 18.16,-1.91 21.23,-2.07l6.49 -0.54c3.06,-0.54 15.7,-1.14 19.69,-1.43 0.72,-0.05 1.21,-0.23 2.08,-0.22l20.11 -1.12c1.39,-0.19 11.64,-0.45 13.47,-0.49l8.91 -0.43c1.44,-0.2 8.71,-0.04 11.5,-0.27 3.98,-0.33 11.66,-0.23 16.16,-0.23 1.69,0 3.03,-0.12 4.62,-0.12 0.81,0 1.28,0.2 2.17,0.1 4.01,-0.46 7.5,3.62 10.05,6.25 1.88,-2.25 3.24,-3.82 5.97,-5.33 2.95,-1.63 4.94,-0.91 8.56,-0.9l19.62 0.23 12.46 0.35 20.24 0.87c1.26,0.19 3.12,0.06 4.45,0.17l17.55 1.14c2.27,0.17 4.4,0.09 6.61,0.42l8.72 0.62c1.57,-0.01 19.96,1.67 20.39,1.76 0.87,0.14 11.3,0.87 11.68,1.24 0.48,0.67 -1.89,2.85 -0.84,5.92 0.27,0.8 1.86,3.74 2.81,3.54 -3.8,-5.68 6.68,-10.02 6.92,-10.04l0 -0.23 -18.93 -1.96 -19.37 -1.62c-2.15,-0.18 -8.67,-0.82 -10.27,-0.81l-8.36 -0.53c-2.11,-0.32 -31.62,-1.84 -35.6,-1.9l-6.47 -0.22c-3.96,-0.31 -8.89,-0.03 -12.8,-0.35 -2.18,-0.18 -10.89,-0.25 -13.15,-0.24 -0.88,0 -1.31,-0.12 -2.07,-0.12l-46.73 0.23 -6.34 0.24 -8.77 0.11c-2.19,-0 -4.18,0.36 -6.34,0.35 -2.81,0.03 -5.89,0.03 -8.64,0.25 -3.88,0.3 -7.78,0.21 -11.65,0.58l-11.55 0.68c-3.24,0.04 -7.08,0.59 -10.39,0.57l-24.77 1.88 -6.97 0.76c-2.38,0.24 -7.27,0.33 -9.24,0.8l-8.05 0.83c-0.23,0 -3,0.44 -4.04,0.46zm137.52 12.11l-85.03 0c-7.95,0 -11.44,-4.38 -13.04,-4.38l-0.39 0.54 -5.06 2.67c-2.25,0.89 -7.73,1.41 -9.9,1.41 -2.24,0 -7.4,-0.48 -9.45,-1.17 -2.58,-0.87 -3.83,2.32 -7.17,2.32 0.18,0.66 1.15,0.46 1.73,0.46l99.22 0c1.33,0 2.39,-0.12 3.58,-0.12l3.69 0.12c0.56,0 0.79,-0.1 1.15,-0.1 0.37,0 0.59,0.1 1.15,0.1l87.8 0c0.49,0 0.64,-0.08 0.93,-0.09 0.35,-0.01 0.5,0.09 1.03,0.09 7.59,0 73.52,0.26 75.11,-0.12l0 -0.35c-1.46,0 -3.02,-0.87 -4.23,-1.65 -2.06,-1.41 -1.52,-0.83 -3.72,-0.42 -4.71,0.88 -10.74,1.29 -15.32,0.2 -5.05,-1.21 -4.16,-0.72 -8.91,-3.89l-4.75 2.75c-2.59,1.16 -5.24,1.64 -8.17,1.64l-84.91 0c-3.52,0 -5.82,-2.62 -7.5,-5.08 -1.16,0.62 -2.9,5.08 -7.85,5.08zm-71.42 36l0 0.12c4.43,0 13.61,0.73 17.92,2.16l2.53 0.81c1.37,0.4 2.26,1.39 3.33,0.49 2.31,-1.94 3.81,-2.16 6.46,-2.77 0.46,0.87 -0.59,1.85 -0.16,3.28 0.26,0.87 2.15,2.81 3.28,2.83 -1.14,-4.91 4.19,-5.77 8.19,-5.77 3.48,0 4.15,0.53 6.61,1 0.69,0.13 4.77,1.99 5.13,2.26 4.5,3.46 3.33,4.79 4.3,5.5 0.27,-0.48 0.17,-3 -0.05,-3.64 -0.8,-2.3 -1.87,-2.95 1.39,-2.2 2.59,0.6 4.92,4.61 1.83,6.24 -0.26,0.14 -0.5,0.17 -0.75,0.29 1.05,1.1 0.72,0.92 2.25,1.45 3.73,1.25 6.67,-3.77 2.98,-7.71 -1.05,-1.12 -2.45,-1.58 -3.75,-2.25 -2.4,-1.23 3.9,-0.48 5.54,0.7 1.54,1.1 2.79,2.1 3.78,3.72 0.7,1.3 0.49,1.19 0.67,2.56 0.73,5.49 -5.22,7.73 -8.78,6.13 -2.82,-1.35 -2.37,-1.74 -3.71,-2.64 -0.34,4.14 1.53,6.54 5.59,7.67 2.62,0.73 5.97,-0.3 8.1,-1.6 4.58,-2.79 4.63,-8.23 2.18,-12.37 -1.12,-1.89 -3.37,-3.35 -5.15,-4.31 -0.55,-0.26 -1.18,-0.33 -1.38,-1.05 2.06,-0.48 4.33,0.4 6.08,1.53 4.28,2.77 4.08,5.85 4.88,6.43 0.33,-0.69 -0.32,-0.34 1.01,-2.68 1.39,-2.43 3.4,-3.73 5.76,-4.85 0.84,-0.4 3.11,-0.83 3.95,-0.43 -0.21,0.8 -2.28,1.42 -3.08,2 -1.48,1.08 -2.87,2.45 -3.85,3.99 -1.18,1.98 -1.78,5.52 -0.81,7.64l0.71 1.6 2.66 2.53c1.64,1.31 6.1,2.12 8.01,1.58 3.16,-0.9 4.78,-2.24 5.62,-5.34 0.16,-0.61 0.46,-1.66 -0.15,-2.11 -0.58,0.15 -3.42,3.71 -7.35,2.85 -5.77,-1.26 -6.82,-8.33 -2.29,-11.57 1.39,-1 3.01,-2.15 4.75,-2.41 0.73,-0.11 2.46,-0.46 3.05,-0.18 -1,1.5 -7.15,2.46 -5.73,8.15 0.84,3.36 6.1,3.02 6.65,0.96 -1.73,-0.83 -2.08,-1.07 -2.08,-3 0,-1.49 2.07,-3.28 3.18,-3.51 0.62,-0.11 2.36,-0.75 2.36,0.28 0,0.2 -1.55,1.97 -0.98,5.14 0.1,0.56 -0.04,0.39 0.29,0.63 0.1,-4.55 7.55,-8.24 11.53,-8.54 1.4,-0.11 1.37,-0.46 4.27,-0.46 3.45,0 8.42,0.64 8.42,5.08 0,0.49 -0.29,0.09 -0.35,0.81 1.61,-0.38 2.71,-1.81 3.4,-3.17 0.66,-1.31 -0.55,-1.81 -0.29,-2.94 0.79,-0.18 3.18,0.62 3.96,1 3.43,1.68 2.67,2.57 3.91,1.91 2.45,-1.01 9.71,-2.89 12.79,-3.14 3,-0.24 6.2,-0.58 9.45,-0.58l0 -0.12 -4.73 -0.12c-1.63,0 -3.1,0.12 -4.85,0.12l-46.89 -0.07c-1.66,-0.1 -5.12,0.07 -6.88,0.07l-87.11 0c-0.77,0 -1.26,-0.03 -1.86,-0.1l-5.75 0.1zm268.01 -140.87c-0.07,1.48 -0.47,2.92 -1.78,3.99 -1.62,1.32 -3.93,0.86 -5.95,0.86l-80.18 0 -7.74 -0.14c-2.22,0.24 -11.71,0.17 -13.83,0.14 -0.68,-0.01 -1.04,-0.12 -1.84,-0.12l-6.17 0.03 -151.55 0.09c-2.25,0 -4.73,-0.26 -6.8,-0.1 -1.1,0.05 -5.47,0.08 -6.45,-0.06 -0.92,-0.13 -0.86,0.15 -1.76,0.15 -9.17,0 -88.16,0.17 -90.14,-0.08 -1.56,-0.2 -1.2,0.07 -2.58,-1.34 -2.57,-2.66 -0.2,-5.5 -0.85,-5.5 -1.14,0 -2.26,1.35 -2.78,2.3 -1.14,2.09 0.19,4.63 -0.91,4.63 -1.89,0 -2.37,-2.65 -3,-2.65 -1.14,0 -0.96,2.77 -1.73,2.77 -2.39,0 -3.92,-1.15 -5.19,-1.15 4.29,5.04 15.08,3.2 21.23,3.36l3.35 -0.01 85.84 0c1.18,0 2.07,0.12 3.11,0.12l166.83 -0.12 112.92 0.2c4.26,-0.29 7.43,-0.17 10.84,-3.13 1.4,-1.22 -2.14,0.35 -2.65,0.48 -3.54,0.64 -2,0.3 -3.28,-1.86 -0.26,-0.44 -0.38,-0.32 -0.5,-0.77 -1.04,0.55 -1.19,2.77 -3.23,2.77 -1.23,0 0.99,-2.54 -1.28,-5.41 -0.32,-0.37 -2.02,-1.93 -2.43,-1.52 -0.34,0.34 0.48,0.77 0.48,2.08zm-372.31 91.37c-0.05,0.49 -0.03,0.2 -0.46,0.58 5.02,0 7.33,1.05 11.84,2.47 0.82,0.22 2.99,1.46 3.85,1.91 1.96,-1.32 5.14,-4.96 7.73,-4.96 0,1.17 -2.33,5.49 1.53,8.16 1.9,1.31 4.59,1.03 5.74,-0.55 -1.75,0 -2.9,0.06 -3.81,-1.27 -2.33,-3.42 3,-6.48 5.62,-7.18 1.18,-0.32 2.46,-0.8 3.72,-0.89l11.25 -1.21c1.88,-0.34 24.41,-2.32 28.09,-2.6 1.16,-0.06 2.73,0.06 3.83,-0.2 1.73,-0.42 11.31,-0.73 14.54,-1.15l26.05 -1.41c0.6,-0.01 0.63,-0.09 1.15,-0.12 0.83,-0.04 1.81,0 2.66,0l7.47 -0.38c3.76,-0.35 24.47,-0.63 28.18,-0.66l15.41 -0.28c1.14,-0.17 6.26,-0.02 7.55,0.05l8.19 -0.12c9.9,0.09 19.82,0.46 29.77,0.46 2.75,-0 5.08,0.35 7.85,0.35 5.45,0 10.66,0.48 16.04,0.58 4.47,0.08 8.76,0.62 13.15,0.57l24.59 1.6c2.05,0.22 4.29,0.2 6.3,0.51l5.22 0.32c0.61,0.02 0.75,0.14 1.18,0.2 4.22,0.49 16.75,1.12 20.3,1.74 1.87,0.33 3.57,0.23 5.03,0.51 2.91,0.44 5.72,0.63 8.68,0.9 3.58,0.33 9.13,1.41 11.38,3.85 1.48,1.61 1.93,2.76 0.71,4.65 -1.33,1.89 -3.33,0.77 -3.49,1.24 -0.43,1.22 5.99,2.76 7.45,-2.13 1.19,-3.98 -0.93,-4.34 -0.23,-5.65 4.02,1.26 7.2,5.15 7.73,5.08 0.06,-0.01 3.89,-2.05 4.99,-2.4 3.56,-1.15 6.59,-1.99 10.47,-1.99 -0.31,-0.24 -0.32,-0.24 -0.35,-0.58 -2.24,0 -16.04,-1.88 -17.74,-2.1 -0.37,-0.05 -0.99,-0.24 -1.32,-0.29 -3.59,-0.52 -7.44,-0.64 -10.96,-1.27 -0.97,-0.23 -1.76,-0.18 -2.85,-0.26 -0.89,-0.07 -1.67,-0.28 -2.59,-0.41 -1.58,-0.23 -4.03,-0.31 -5.67,-0.56 -3.45,-0.52 -7.48,-0.71 -11.13,-1.1 -0.56,-0.06 -0.78,-0.19 -1.27,-0.23l-27 -2.3c-1.64,-0.34 -4.18,-0.29 -5.87,-0.36 -0.5,-0.02 -0.86,-0.17 -1.28,-0.22 -2.03,-0.22 -4.63,-0.19 -7.27,-0.46 -3.03,-0.31 -5.76,-0.19 -8.55,-0.56 -1.98,-0.27 -4,0.1 -6.04,-0.19 -3.06,-0.44 -7.5,-0.27 -8.78,-0.45 -2.88,-0.39 -22.73,-1.03 -26.57,-1 -1,0.01 -1.98,-0.15 -2.89,-0.23 -4.06,-0.21 -8.16,-0.12 -12.22,-0.12l-12.23 -0.12c-1.13,0 -1.81,-0.12 -2.88,-0.12l-14.08 0c-9.53,0 -19.55,0.37 -29.07,0.35 -1.18,-0 -1.81,0.18 -2.77,0.23 -0.94,0.05 -2.07,-0.09 -2.98,0.02 -3.69,0.41 -7.87,-0.13 -11.49,0.4l-15.65 0.62 -7.03 0.47c-2.88,0.05 -12.11,0.47 -14.03,0.74 -3.1,0.43 -11.81,0.6 -13.91,0.97 -1.59,0.28 -9.26,0.68 -11.04,0.84 -3.63,0.33 -7.19,0.87 -10.86,1.02 -0.89,0.04 -1.82,0.24 -2.67,0.33 -2.07,0.23 -6.33,0.3 -8.15,0.73l-16.18 1.71 -17.1 2.16c-0.86,0.22 -8.89,0.99 -10.65,1.35 -1.25,0.24 -2.76,0.41 -4.09,0.41zm214.71 -91.03c-2.09,1 -1.25,-1.01 -1.25,-1.02 0.06,-0.34 -0.03,-1.47 0.23,-1.73 0.84,-0.85 1.02,2.41 1.02,2.75zm-79.61 -0.23c1.29,-0.87 4.78,-0.58 9.49,-6.43 0.41,-0.5 2.15,-4.44 2.29,-2.46l0.96 7c0.19,1.09 0.61,0.91 0.3,2.24 -1.14,0.27 -8.88,0.13 -11.19,0.11 -0.73,-0 -1.03,0.12 -1.61,0.12 -0.1,-0.2 -0.13,-0.37 -0.23,-0.58zm43.96 -81.57c0.76,-0.06 4.43,-3.46 7.73,-3.46 0.63,0 1.36,-0.21 1.73,0.35 -0.3,1.13 -3.93,0.88 -7.04,3.35 -0.43,0.34 -0.57,0.36 -0.58,0.92 -0.61,0 -0.17,0 -0.35,0.11 0.94,0 1.56,-0.94 2.72,-1.67 0.55,-0.35 3.52,-1.95 3.63,-0.64 1.08,0 4.08,-1.09 4.5,0.46 -1.13,0.54 -2.15,-0.09 -3.76,0.97l-1.43 0.76 0 0.35c1.33,-0.61 3.56,-2.03 3.92,-0.46 0.89,-0.07 1.96,-0.43 2.77,0.12 -0.45,0.67 -1.57,0.62 -2.19,1.15 1.02,0 1.77,-0.72 2.09,-0.15 0.17,0.31 -0.55,0.7 -0.82,1.07 1.02,0.49 0.72,1.24 0.99,2.7 0.12,0.68 0.33,0.92 0.39,1.46 0.14,1.29 0.12,2.7 0.12,4.03 0.64,0.01 0.98,0.16 1.42,0.54 0.66,0.56 0.46,0.32 0.6,1.36 0.42,2.98 -0.89,5.14 -2.6,7.46 -1.13,1.52 -0.27,4.45 0.07,5.8 0.53,2.11 2.84,3.62 4.54,4.69 2.33,1.53 13.31,9.24 14.38,10.89 1.88,3.04 5.14,12.94 5.64,16.62l0.67 3.83c0.44,1.63 0.53,7.4 0.53,9.28 0,1.26 -0.34,5.5 -0.62,6.65 -0.21,0.85 -0,3.51 -0.99,3.51 -4.06,0 -1.39,-0.27 -1.39,-4.85 0,-1.99 -2.57,-4.96 -1.15,-4.96 0.92,0 1.52,1.05 2.19,1.5 0.53,-1.1 0.12,-7.18 -0.1,-8.44 -0.65,-3.75 0.07,-3.35 -1.31,-2.77 -2.61,1.09 -0.38,2.95 -3.24,4.14 -0.54,0.23 -1.17,0.7 -1.7,0.84l0 0.23c0.65,0.05 1.61,1.04 0.46,1.04 -0.53,0 -1,-0.54 -2.31,-0.23l-0.23 0.46c0.56,0.77 2.77,1.28 2.77,2.08 0,0.68 -3.72,-1.18 -4.73,-0.69 0.07,0.25 2.23,3.24 2.5,5.46 0.35,2.83 0.55,1.8 -0.01,5.11 -0.14,0.8 -0.1,1.02 -0.87,1.2 -0.8,-0.53 -0.3,-1.1 -0.42,-1.88 -0.08,-0.49 -0.27,-0.91 -0.27,-1.24 0,-1.22 1.02,1.44 0.35,-2.77 -0.15,-0.97 -1.35,-3.6 -2.03,-4.43 -1.88,-2.26 -2.38,-2.16 -6.5,-2.5 -3.95,-0.32 1.15,1.92 1.15,7.39 0.19,-0.22 0.17,-0.31 0.58,-0.35 0.06,-0.66 0.49,-1.24 1.04,-1.39 0.26,0.46 0.12,5.48 0.12,6.81 -1.03,0.54 -0.49,0.23 -1.62,0.23 -2.05,0 -0.91,-1.07 -1.53,-4.82 -0.36,-2.17 -0.69,-4.2 -1.92,-6.27 -1.15,-1.94 -1.23,-1.11 -4.62,-1.38 -2.47,-0.2 -4.67,-0.27 -6.98,-0.75 -4.92,-1.02 -10.23,-2.82 -14.92,-4.8 -4.08,-1.72 -8.21,-3.84 -12.53,-5.01 -0.99,-0.27 -5.84,-1.37 -6.13,0.54 -0.03,0.44 0.25,0.38 0.29,0.92 1.03,0 4.89,-0.04 5.64,0.24 0.43,0.16 0.89,0.45 1.39,0.57 -0.61,0.91 -2.46,-0.18 -3.44,0.72 -1.23,1.13 -0.94,-0.72 -1.41,-0.72 -0.53,0 -3.12,-0.01 -3.12,0.69 0,2.1 1.6,-0.51 7.4,2.3 0.46,0.25 0.63,0.06 0.68,0.7 -1.22,0.29 -1.62,-0.27 -3.13,-0.45 -2.11,-0.25 -1,0.57 -2.41,0.57 -0.16,-0.68 -0.05,-0.28 0,-0.92 -0.53,-0.02 -3.11,-0.44 -3.11,0.35 0,0.98 2.6,0.7 3.3,0.85l4.26 1.28c0.83,0.39 0.83,0.35 0.63,1.22 -1.72,0 -4.44,-1.55 -7.61,-0.81 -0.01,0.45 0.03,0.27 -0.11,0.58 0.84,0.56 2.87,0.85 4.03,1.16 2.87,0.82 6.48,3.59 10.39,3.91 0.51,0.04 1.09,-0.02 1.61,0 4.06,0.48 9.64,1.87 12.97,4.45 1.46,1.13 7.28,3.52 9.41,4.32 -0.02,0.95 -0.74,0.59 -1.49,0.57 -2.25,-0.04 -2.02,-0.08 -3.87,-0.98 -1.35,-0.66 -7.06,-3.64 -8.36,-3.64 -0.24,1 0.99,2.77 0.09,4.24 -0.59,0.96 -1.82,0.24 -2.21,-0.5 -0.48,-0.88 -1.68,-0.71 -1.68,-1.2 0,-1.24 2.34,0.28 2.78,-1.96 0.12,-0.6 -0.08,-1.13 -0.62,-1.48 -0.95,-0.6 -0.78,-0.31 -0.78,0.9 -0.79,0.19 -2.99,-2.77 -6.92,-2.77 -0.44,0 -0.04,-0.04 -0.35,0.12 0.19,0.26 2.05,1 0.46,1.38 -2.91,0.7 -2.3,3.41 -2.3,5.54 0,0.49 -1.62,0.73 -1.62,-0.46 0,-3.76 0.87,-2.84 0.35,-5.08 -2.19,0 -1.28,0.54 -2.54,1.38 -0.66,-0.99 0.72,-3.34 1.73,-3.58l0 -0.35c-2.45,-0.52 -3.46,1.38 -5.08,1.38 0.39,-1.07 1.4,-1.53 2.08,-2.19 -1.12,0 -5.48,0.93 -5.88,-0.58 0.48,-0.32 3.85,-0.11 4.85,-0.35 -0.03,-1.19 -3.99,-1.82 -4.97,-2.18 -3.59,-1.31 -3.78,1.14 -2.79,2.56 1.74,2.5 -0.29,2.09 -0.08,4.58l0.23 0c0.03,-1.13 0.86,-1.07 0.88,-1.06 0.43,0.25 -0.19,1 -0.19,1.98 0,0.46 0.63,0.15 0.89,1.76 0.36,2.2 1.84,2.51 -1.7,2.51 -1.19,0 -1.19,-3.26 -1.42,-4.47 -0.06,-0.3 -0.2,-0.61 -0.27,-1l-0.62 -9.07c-0.17,-4.3 1.38,-14.18 3.08,-18.61 1.16,-3.02 2.03,-6.49 4.08,-9.07l2.44 -2.4c1.07,-0.75 5.75,-2.78 7.42,-3.54l5.21 -2.06c0.97,-0.43 1.18,-0.18 1.18,0.84l0.12 0c0,-1.21 0.79,-2.55 1.14,-4.06 0.22,-0.94 -0.1,-1.92 -0.1,-2.97 0,-5.79 -0.3,-4.24 -3.24,-8.76 -1.05,-1.74 -1.2,-4.31 0.54,-5.25l0.85 -0.3 -0.02 -4.16c0.05,-1.61 -0.68,-0.18 0.64,-2.03 0.98,-1.37 -0.45,-3.46 0.57,-3.81 0.69,-0.24 0.36,0.28 0.83,-0.56 0.61,-1.07 2.62,-4.47 4.21,-3.4 -0.55,0.75 -2.77,1.94 -2.77,3.58l0.23 0c0.3,-1.29 2.57,-2.87 3.81,-3.46 0.15,0.23 0.21,0.32 0.35,0.58 1.42,-1.26 5.08,-3.22 5.08,-1.96 0,0.79 -1.3,0.65 -2.24,1.45 -0.53,0.46 -2.31,1.79 -2.37,2.47zm-1.96 -4.15c-4.08,0 -4.5,3.88 -6.23,3.92 0,2.8 -1.34,4.13 -1.66,6.52 -0.06,0.48 0.16,0.53 0.16,0.86 0,0.89 -0.18,1.52 -0.04,2.36 0.26,1.56 -1.21,0.93 -1.96,3.24 -1.13,3.46 2.2,6.12 3.59,8.96 0.67,1.37 0.38,3.25 0.38,4.82 -0,0.98 0.23,1.58 -0.05,2.37 -0.74,2.08 -1.81,1.82 -3.88,2.58 -3.23,1.18 -9.56,3.97 -11.62,5.68 -4.45,3.69 -7.46,16.09 -8.4,21.71 -0.08,0.62 0.02,0.71 -0.38,1 -1.48,-1.83 -1.28,-2.66 -3.17,-4.67 -2.41,-2.49 -5.75,-3.98 -9.17,-3.98 -0.75,0 -1.25,0.29 -1.97,0.34 -1.37,0.09 -0.81,-0.1 -2.71,0.87 -1.65,0.9 -2.89,1.91 -4.14,3.36 -3.16,3.65 -2.15,11.1 2.14,13.42 1.98,1.07 3.52,1.58 5.85,1.03 1.01,-0.24 1.99,-0.6 2.91,-1.13 0.39,-0.26 0.13,-0.12 0.35,-0.57 -3.89,-0.09 -5.21,-6.26 -1.22,-8.6 5.98,-3.52 11.49,4.26 9.19,9.42 -0.36,0.81 -0.21,1.04 -0.9,2.1 -1.06,1.38 -3.89,4.44 -5.39,5.45 -3.52,2.37 -8.97,3.29 -12.89,2.03 -7.34,-2.36 -11.59,-11.05 -6.05,-17.4 0.38,-0.41 0.83,-0.56 0.88,-1.19 -3.26,-1.56 -6.88,2.64 -7.47,5.57 -0.65,3.22 -0.49,2.37 -0.49,5.86 0,0.59 0.65,1.5 -0.23,1.5 -0.35,0 -0.74,-0.7 -1.32,-1.22 -5.08,-4.58 -13.18,-7.83 -20.15,-6.86 -6.92,0.96 -10.94,3.81 -11.41,11.2 -0.06,0.92 0.82,3.18 1.28,4.14 1.56,3.26 7.46,6.48 11.13,4.81 1.87,-0.8 2.29,-0.73 4.08,-2.5 0.28,-0.25 -0.05,-0.18 0.47,-0.22l0 -0.35c-1.99,0.53 -3.27,0.78 -4.85,-0.81 -4.05,-4.09 1.73,-9.67 7.54,-8.23 6.97,1.72 7.04,1.96 14.13,4.67 3.66,1.4 7.24,2.87 11.09,3.56 -0.11,0.42 -0.12,0.24 -0.35,0.58l-20.88 0c-1.86,0 -3.4,-0.48 -4.57,0.62 -0.26,0.24 -0.82,0.68 -0.97,0.88l114.45 0c0.49,0 0.64,0.08 0.93,0.09 0.35,0.01 0.5,-0.09 1.03,-0.09l40.73 0c1.07,0 1.85,0.12 2.77,0.12l11.19 -0.12c-0.34,-0.5 -1.26,-1.55 -1.88,-1.53 -7.7,0.22 -15.73,-0.01 -23.51,0.04 -0.92,0.01 -1.09,0.18 -1.27,-0.58 4.65,-0.1 20.89,-8.45 27.23,-8.43 3.67,0.01 7.86,3.05 6.7,6.59 -0.81,2.48 -4.41,4.22 -6.12,2.42 0.01,0.68 0.04,0.41 0.49,0.78 3.65,2.95 6.58,3.86 11.04,1.74 1.56,-0.79 3.01,-2.13 3.97,-3.53l1.46 -4.07 0 -2.19 -1.92 -5c-1.34,-2.21 -4.66,-3.64 -6.87,-4.2 -7.78,-1.95 -17.8,1.53 -23.39,7.12 -0.48,0.49 -0.26,0.64 -1.04,0.46 0,-2.24 0.3,-1.63 0.12,-5.2 -0.15,-3 -2.02,-5.62 -4.21,-7.33 -1.02,-0.62 -2.54,-0.81 -3.64,-0.28 0.1,1.26 3.59,2.03 3.24,9.12 -0.2,3.92 -3.98,7.97 -7.53,9.09 -4.89,1.54 -6.73,1.36 -11.92,-0.61 -1.15,-0.44 -4.53,-2.96 -5.28,-3.72l-2.08 -2.88c-1.65,-2.41 -1.76,-7.63 0.47,-9.76l2.42 -1.96c4.69,-2.6 10.57,3.32 6.87,7.56 -0.67,0.77 -1.42,1.35 -2.57,1.35 0.06,0.26 0.09,0.27 0.12,0.58 0.63,0.05 6.85,4.14 11.39,-2.34 1.43,-2.05 2.05,-5.62 1.16,-8.01l-1.99 -3.67c-2.5,-3.67 -9.16,-4.66 -12.88,-2.96l-3.72 2.28c-1.23,1.03 -3.12,3.47 -3.69,5.19 -0.21,0.64 -0.08,0.46 -0.42,0.97 -1.04,-0.7 -0.63,-1.78 -0.98,-2.94 -0.88,-3.17 -3.79,-14.76 -6.19,-16.89 -1.71,-1.52 -9.64,-7.39 -12.14,-9.21l-5.1 -3.66c-1.36,-1.06 -1.55,-3.88 -1.55,-5.37 0,-2.02 3.87,-2.71 3.01,-10.16 -0.17,-1.25 -0.98,-1.71 -1.6,-2.21 -0.58,-0.51 -0.41,-3.13 -0.19,-3.95 0.49,-1.83 0.21,-1 -0.19,-2.59l-1.11 -2.81 -1.35 -1.54c-0.55,-0.62 -0.02,-0.81 -0.97,-1.57 -0.96,-0.77 -0.12,-1.12 -2.59,-1.79 -0.73,-0.15 -1.89,0.1 -2.46,-0.18 -0.94,-0.46 -0.94,-2.18 -4.26,-1.05 -1.33,0.45 -1.93,0.55 -3.22,1.28 -1.17,0.72 -1.01,-0.07 -1.57,-0.07z"/>
   <path class="fil2" d="M25.61 155.46c-0.31,0 -0.87,-0.55 -1.08,-0.76 -0.45,-0.46 -0.3,-0.78 -0.3,-1.55l-0 -10.73c-0.02,-0.96 -0.12,-0.9 0.4,-1.45 0.28,-0.3 0.59,-0.72 1.02,-0.82l6.76 -0.39c0.76,-0.04 0.71,-0.02 1.22,0.42 0.28,0.25 0.75,0.59 0.75,0.98l0 12.11c0,0.3 -0.96,1.3 -1.22,1.44 -0.56,0.31 -1.48,0.25 -2.19,0.35l-5.36 0.4zm346.08 -39.46c0.44,-0.17 5.57,-0.01 6.62,-0 0.69,0 0.98,0.03 1.36,0.37 0.28,0.25 0.71,0.59 0.8,0.93l0.03 10.12c0,0.86 0.22,4.36 -0.28,4.92 -0.18,0.2 -0.73,0.66 -0.91,0.71 -0.44,0.12 -2.84,0.03 -3.38,-0.04 -1.05,-0.14 -2.28,0.03 -3.39,-0.06 -0.87,-0.07 -1.8,-0.53 -2.11,-1.34 -0.2,-0.51 -0.07,-11.68 -0.09,-13.53 -0.01,-0.99 0.01,-1.56 1.35,-2.07zm-12.31 -9.58c0,0.5 0.12,0.67 0.31,1.08l0.71 2.06c0.11,0.73 -0.02,32.48 0.02,38.06 0,0.52 0.12,0.82 0.12,1.26 0,1.24 0.17,10.03 -0.16,11.61l-0.99 2.82c0,0.57 1.5,0.37 2.64,0.48 0.94,0.09 1.78,0.3 2.78,0.33 2.03,0.06 2.94,0.34 4.28,0.45 3.62,0.3 2.24,0.1 1.81,-1.93 -0.35,-1.65 -0.45,-0.07 -0.56,-3.59l0 -14.88c0,-0.61 0.52,-0.94 0.86,-1.22 0.61,-0.51 0.74,-0.32 1.55,-0.28 2.29,0.1 5.93,0.48 7.85,0.46 1.65,-0.01 2.78,0.35 4.73,0.35 0.32,0 1.68,-1.41 2.18,-1.86 0.03,-0.02 0.1,-0.09 0.12,-0.11l2.45 -2.28c0.81,-0.71 0.47,-1.05 0.48,-2.33 0.01,-2.98 0.1,-24.38 -0.01,-25.51 -0.08,-0.77 -1.19,-1.55 -2.07,-2.44l-1.87 -1.82c-0.3,-0.29 -0.95,-1.03 -1.28,-1.03l-25.61 0c-0.27,0 -0.35,0.08 -0.35,0.35zm-27.34 10.27c0,-0.27 0.9,-1.38 1.73,-1.38l3.46 0c1.45,0 4.96,-0.39 4.96,1.85l0 34.15c0,0.78 -1.11,1.38 -1.38,1.38 -1.91,0 -4.36,-0.26 -6.36,-0.44 -1.39,-0.13 -1.07,0.05 -1.93,-0.84 -0.66,-0.69 -0.44,-1.1 -0.44,-2.29l-0.04 -32.42zm-9.92 -5.88l0 13.96c0.1,1.21 0.13,0.3 0.12,2.08 0,0.62 -0.08,1.31 -0.1,1.86 -0.02,0.53 0.11,1.17 0.1,1.83l-0 24c-0,1.8 -0.05,1.53 1.26,2.77l0.59 0.57c0.02,0.02 0.1,0.09 0.12,0.11l1.29 1.25c0.88,0.84 1.43,1.57 2.32,1.71l11.03 0.86c1.23,0 3.9,0.47 5.54,0.46 4.11,-0.02 1.91,0.97 4.56,-1.09l2.11 -1.81c1.13,-1.02 1.29,-0.76 1.29,-2.75 -0.01,-2.62 -0.07,-5.36 -0,-7.96 0.02,-0.72 -0.11,-1.13 -0.12,-1.84l0 -33.92c0,-2.49 0.28,-1.99 -0.94,-3.1l-2.09 -1.95c-0.64,-0.59 -1.71,-1.76 -2.28,-1.76l-19.38 0c-0.72,0 -2.24,1.7 -2.86,2.21 -0.47,0.39 -2.56,2.01 -2.56,2.52zm-39.46 -4.61c0.04,0.5 0.45,1.39 0.66,1.88 0.56,1.3 0.49,2.37 0.49,3.89 0,2.33 0.08,4.73 0.08,6.92l0.04 35.77c0,0.98 -1.04,2.38 -1.04,3.35 0,0.52 0.72,0.35 1.27,0.34l6.32 0.26c0.44,0.05 1.08,0.17 1.52,0.2 0.57,0.03 0.97,-0.02 1.56,0.06 2.32,0.34 1.01,-0.73 0.44,-2.64 -0.47,-1.58 -0.2,-5.94 -0.28,-8.15l0.01 -9.81c0,-0.87 0.86,-1.62 1.73,-1.62l3.23 0.12c1.26,-0 3.51,-0.25 4.45,0.51 0.95,0.78 0.72,1.08 0.74,2.72l0.11 15.58 -0.55 1.88c-0.16,0.33 -0.58,1.5 -0.61,1.82l11.39 0.74c1.53,0.21 0.67,-0.77 0.45,-1.5l-0.55 -1.64c-0.27,-1.27 -0.06,-37.82 -0.18,-42.94l-0.03 -4.04c0,-1.31 1.8,-3.81 0.81,-3.81l-11.65 0c-0.58,0 -0.26,0.55 -0.13,0.82 0.22,0.46 0.19,0.65 0.37,1.14 0.38,1 0.46,1.01 0.45,2.43l-0 4.28c0.01,0.5 0.12,0.88 0.12,1.38l0 10.27c0,0.6 -0.3,0.82 -0.61,1.12 -0.32,0.31 -0.66,0.6 -1.17,0.56 -1.04,-0.09 -2.36,-0.1 -3.41,-0.17 -2.79,-0.17 -3.25,0.61 -4.62,-0.81 -0.59,-0.6 -0.41,-1.81 -0.46,-3.24l0.01 -14.08c0,-0.4 0.54,-1.63 0.68,-1.97 0.14,-0.34 0.2,-0.63 0.36,-1.05 0.18,-0.47 0.19,-0.67 -0.46,-0.67 -1.58,0 -10.77,-0.17 -11.54,0.12zm-37.73 4.38l0 20.42c0,0.53 0.29,0.72 0.63,0.98l2.76 2.31c2.54,2 1.05,1.55 5.14,1.55 3.25,0 6.69,0.19 9.81,0.23 1.09,0.01 1.96,0.86 1.96,1.5l0 9.92c0,0.99 -1.24,1.39 -1.27,1.39l-7.16 -0.11c-0.57,-0.02 -0.72,-0.2 -1.04,-0.46 -1.01,-0.81 -0.68,-0.93 -0.68,-3.82 0,-0.38 0.13,-0.52 0.25,-0.78l0.62 -1.58c0.01,-0.02 0.14,-0.43 0.14,-0.44 0.01,-0.03 0.03,-0.12 0.03,-0.15 0.09,-0.74 -2.23,-0.41 -2.9,-0.41l-9.04 -0.15c-0.29,0.45 -0.14,0.69 0.08,1.15 0.22,0.47 0.21,0.77 0.39,1.23 0.42,1.07 0.26,1.52 0.26,3.08 0,7.2 -0.51,5.73 1.97,7.84l1.81 1.53c2.35,2.06 1.82,0.97 5.33,1.25 4.04,0.32 8.53,0.46 12.69,0.45 4.25,-0.01 2.72,0.86 5.09,-1.03l2.73 -2.23c0.29,-0.25 0.72,-0.47 0.72,-1.01l0 -20.77c0,-0.77 -1,-1.31 -1.48,-1.76l-2.63 -2.33c-1.23,-1.15 -1.48,-0.76 -4.31,-0.76 -2.27,0 -4.28,-0.12 -6.58,-0.11 -0.61,0 -0.97,-0.1 -1.49,-0.12 -0.57,-0.02 -1.17,0.01 -1.74,0.01 -1.08,-0.02 -1.96,-0.75 -1.96,-1.39l0 -10.15c0,-0.45 0.93,-1.27 1.73,-1.27l6.58 0c0.67,0 1.18,0.42 1.55,0.87 0.5,0.62 0.3,1.61 0.3,3.05 0,0.92 -0.29,1.1 -0.49,1.81 -0.33,1.1 -0.54,0.87 -0.54,1.88 0.93,0.31 4.8,0.12 6.12,0.12 7.04,0 6.52,0.59 5.54,-1.62l-0.59 -1.72c-0.09,-1.87 0.01,-5.79 0.01,-7.97 0,-1.16 -0.96,-1.43 -2.35,-2.72 -0.47,-0.44 -0.87,-0.75 -1.39,-1.15 -0.27,-0.21 -1.21,-1.09 -1.45,-1.09l-19.84 0 -2.83 2.13c-0.02,0.02 -0.04,0.04 -0.06,0.05 -0.02,0.02 -0.04,0.04 -0.06,0.06l-0.12 0.11c-0.58,0.49 -2.23,1.39 -2.23,2.15zm-27.92 5.19c0,-0.69 1.03,-1.27 1.5,-1.27l6.81 0c0.9,0 1.85,0.81 1.85,1.15l0 12.23c0,0.3 -0.82,1.27 -1.96,1.25l-6.23 -0.09c-1.21,-0.01 -1.96,-0.84 -1.96,-1.16l0 -12.11zm-11.07 -9.58c0.16,1.02 1.15,2.59 1.15,3.58l0 43.03c0,0.47 -0.55,1.89 -0.78,2.34 -0.31,0.6 -0.26,0.52 -0.26,1.24l7.73 0c1.28,0 3.1,0.39 4.27,0 -0.01,-0.8 -0.29,-0.93 -0.5,-1.59 -0.22,-0.69 -0.54,-0.93 -0.54,-1.65l0 -14.42c0,-0.69 0.99,-1.39 1.5,-1.39 2.16,0 3.14,-0.36 3.8,1.04l1.53 5.39c0.12,0.63 0.34,0.95 0.49,1.71l2.21 8 -0.74 2.69c0.03,0.53 0.77,0.32 1.94,0.32l6.69 0.12c4.52,0 3.8,0.93 2.39,-2.63 -0.35,-0.88 -0.84,-2.35 -1.03,-3.36l-3.29 -11.82c-0.42,-1.74 -0.4,-1.34 1.79,-3.1 0.47,-0.38 2.9,-2.28 2.9,-2.63l0 -22.73c0,-0.41 -0.87,-0.88 -1.18,-1.13l-2.6 -2.12c-0.27,-0.21 -1.14,-1.02 -1.41,-1.02 -2.79,0 -25.33,-0.17 -26.07,0.12zm-35.07 3.35l0 7.38c0,0.56 -0.13,0.77 -0.1,1.34l0.1 2.01c0,0.48 -0.09,0.84 -0.07,1.21 0.02,0.45 0.07,0.99 0.07,1.44l0 29.77c0,0.44 -0.39,1.57 -0.57,1.97 -0.15,0.33 -0.22,0.61 -0.34,0.94 -0.22,0.6 -0.44,0.46 -0.25,0.94 0.74,0.26 5.97,-0.04 7.27,-0.04l22.61 -0.12c0.3,-0.89 0.79,-3.6 1,-4.54l0.74 -4.13c0.01,-0.09 0.27,-0.84 -0.6,-0.6 -0.3,0.08 -0.13,0.1 -0.51,0.2 -0.41,0.12 -0.84,0.11 -1.27,0.23 -1.09,0.3 -0.85,0.42 -2.47,0.41l-14.45 0.02c-0.55,-0.1 -1.47,-0.94 -1.47,-1.52l0 -9.69c0,-0.83 1.09,-1.51 1.64,-1.59 1.31,-0.19 4.64,-0.04 5.96,0.23 0.51,0.1 0.59,0.26 1.23,0.38 1.75,0.34 1.45,1.15 1.45,-4.67 0,-1.73 0,-3.46 0,-5.19 -0.82,-0.22 -0.41,-0.11 -1.5,0.23 -0.5,0.16 -2.12,0.58 -2.65,0.58l-4.51 0c-0.43,-0.02 -0.37,0.07 -1.04,-0.58 -0.32,-0.3 -0.48,-0.5 -0.47,-0.94l-0.01 -9.41c0.06,-0.68 1.03,-1.54 1.65,-1.54l15.23 0c0.28,0 0.58,0.19 0.88,0.27 0.64,0.18 0.91,0.13 2.07,0.48 1.05,0.32 1.18,0.05 0.56,-2.3 -0.2,-0.76 -0.26,-1.56 -0.45,-2.32l-0.73 -3.42c-0.06,-0.42 -0.05,-0.91 -0.48,-0.91l-29.31 0c-0.5,0 -0.36,0.32 -0.22,0.66 0.01,0.03 0.03,0.06 0.04,0.09l0.13 0.35c0.07,0.21 0.11,0.35 0.18,0.51 0.16,0.36 0.21,0.45 0.36,0.91 0.11,0.32 0.32,0.57 0.32,0.95zm-27 39.23c-0.1,0 -1.21,-0.44 -1.41,-1.24 -0.17,-0.66 -0.09,-6.78 -0.09,-7.76 0,-1.35 -0.27,-2.94 0.41,-3.52 1.02,-0.88 0.97,-0.88 2.94,-0.76l5.3 -0.11c0.7,0 1.62,1.12 1.62,1.38l0 10.27c0,0.33 -0.58,0.92 -0.83,1.13 -0.49,0.43 -0.65,0.35 -1.48,0.38 -0.54,0.02 -1.14,0.11 -1.73,0.11 -0.67,0 -1.15,0.12 -1.73,0.12l-3 0zm-1.39 -22.61c0,-2.54 0.01,-5.08 -0,-7.61 -0.01,-2.16 -0.48,-3.64 1.48,-4.06l6.83 -0.09c0.76,0 1.85,0.84 1.85,1.62l0 9.35c0,0.52 -0.27,0.72 -0.6,1.01 -0.43,0.38 -0.41,0.49 -1.12,0.5 -1.08,0.01 -2,0.11 -3.12,0.11 -1.05,-0 -2.2,-0.04 -3.24,0 -1.42,0.06 -1.07,-0.2 -2.07,-0.81zm-11.07 -19.96c0.07,0.8 0.31,1.08 0.51,1.57l0.53 1.55 0 44.76 -0.57 1.85c-0.17,0.39 -0.57,1.34 -0.58,1.84 1.61,0.07 3.17,-0.08 4.63,-0.22 0.7,-0.07 1.68,-0.01 2.41,-0.01 0.87,0 1.49,-0.1 2.3,-0.12 0.8,-0.02 1.62,-0 2.43,0 1.7,0.01 5.25,-0.34 6.92,-0.35l7.16 -0.11c0.59,-0.05 0.98,-0.54 1.47,-0.96 0.45,-0.38 3.68,-3 3.86,-3.4 0.24,-0.54 0.14,-2.38 0.09,-3.14l0.08 -11.59c0.28,-2.75 0.05,-2.55 -1.76,-4.02l-2.42 -1.96c-0.68,-0.54 -1.2,-0.78 -0.2,-1.52 0.16,-0.12 0.17,-0.13 0.32,-0.26l0.36 -0.33c4.41,-4.04 3.78,-1.1 3.75,-8.59l0.01 -10.27c0,-0.89 -0.51,-1.11 -1.02,-1.52l-1.39 -1.15c-0.58,-0.46 -2.42,-2.18 -3.01,-2.18l-25.38 0c-0.23,0 -0.26,0.04 -0.46,0.12zm-18.81 8.65c0.51,0 0.92,0.39 1.33,0.75 0.2,0.18 0.29,0.06 0.29,0.4l0 12.81c0,0.31 -0.64,0.77 -0.88,0.96 -0.52,0.42 -0.58,0.31 -1.42,0.31l-6.46 0.11c-0.5,0 -0.66,-0.26 -0.98,-0.52 -0.85,-0.69 -0.42,-1.07 -0.4,-1.89l-0.01 -10.85c-0.01,-1.06 -0.1,-0.94 0.5,-1.46 0.72,-0.62 0.9,-0.54 2.04,-0.54l6 -0.08zm-18.46 -4.85l-0.12 41.76c0,1.56 0.33,4.03 -0.26,5.39l-0.76 2.14c-0.02,0.7 -0.09,0.18 0.14,0.43 0.3,0.2 5.04,-0.32 5.96,-0.35 0.54,-0.02 1.09,0.02 1.62,0 0.55,-0.01 0.91,-0.12 1.49,-0.12 0.52,0 2.77,-0.01 2.77,-0.58 0,-0.67 -1.04,-2.1 -1.04,-3.35l0 -14.42c0,-1.01 0.15,-0.99 0.72,-1.47 0.92,-0.78 1.98,-0.6 3.32,-0.6 0.85,0 1.36,0.87 1.49,1.62l0.72 2.51c0.14,0.44 0.17,0.89 0.29,1.33l0.74 2.48c0.12,0.38 0.15,0.88 0.31,1.31 0.18,0.5 0.2,0.56 0.32,1.18l1.4 5.06c0.53,2.75 -0.81,2.87 -0.32,4.35 1.3,-0.21 2.93,-0.24 4.38,-0.23 1.4,0.01 3.14,-0.19 4.5,-0.23 4.47,-0.14 3,-0.05 1.61,-3.69l-0.73 -2.84c-0.12,-0.39 -0.21,-0.5 -0.29,-0.87l-1.71 -6.48c-0.25,-0.66 -1.42,-5.21 -1.42,-5.74 0,-0.34 1.98,-1.95 2.51,-2.45 0.81,-0.79 2.45,-1.87 2.45,-2.62l0 -22.96c0,-0.42 -0.19,-0.48 -0.46,-0.7l-4.02 -3.37c-0.28,-0.27 -0.39,-0.43 -0.83,-0.43l-25.5 0c-0.82,0 -0,1.36 0.13,1.83 0.19,0.7 0.57,1.22 0.57,2.09zm-21.34 29.3c0,0.34 -0.63,0.86 -0.99,0.97 -0.54,0.17 -1.27,0.03 -1.86,0.11 -1.06,0.14 -3.41,0.56 -4.23,0 -1.2,-0.81 -0.39,-1.49 -0.08,-3.61 0.09,-0.62 0.25,-0.87 0.37,-1.48 0.12,-0.62 0.13,-1.03 0.33,-1.63l1.72 -7.97c0.1,-0.64 0.27,-0.86 0.39,-1.57 0.1,-0.64 0.09,-0.93 0.3,-1.55 0.82,0.51 0.62,0.8 0.8,1.86l1.6 7.4c0.12,0.41 0.19,0.57 0.26,1.01l1.12 5.23c0.15,0.64 0.27,0.39 0.27,1.23zm-10.5 -33c0,0.7 0.31,0.93 0.46,1.51 0.26,0.99 0.63,1.25 0.24,2.31 -0.4,1.11 -0.48,2.35 -0.83,3.43l-1.11 4.2c-0.33,1.06 -0.49,2.4 -0.82,3.45l-0.45 1.74c-0.1,0.36 -0.18,0.45 -0.26,0.78l-2.78 11.18c-0.38,1.09 -0.48,2.35 -0.83,3.45 -0.09,0.3 -0.16,0.36 -0.26,0.78 -0.08,0.36 -0.1,0.68 -0.17,0.98l-0.43 1.64c-0.14,0.77 -0.31,0.92 -0.44,1.75 -0.13,0.76 -0.3,0.95 -0.44,1.64l-2.5 10.31c-0.12,0.64 -0.32,1.05 -0.45,1.75 -0.13,0.72 -0.35,1.8 -0.7,2.42 -0.17,0.31 -0.22,0.5 -0.37,0.79 -0.22,0.42 -0.5,0.93 -0.74,1.44 -0.21,0.44 -0.91,1.33 -0.06,1.33 0.74,0 1.92,-0.33 2.77,-0.35 2.08,-0.04 3.97,-0.28 5.99,-0.48 0.84,-0.08 2.15,-0.21 3.01,-0.21 -0,-0.67 -0.24,-1.08 -0.47,-1.61 -0.42,-0.98 -0.08,-0.83 0.1,-1.77l0.88 -3.39c0.11,-0.39 0.12,-0.74 0.23,-1.16 0.21,-0.8 0.67,-2.83 1.08,-3.3l0.75 -0.63c0.78,-0.59 2.82,-0.5 3.78,-0.49 1.05,0 1.77,-0.12 2.77,-0.11 1.36,0.01 3.04,-0.71 4.14,0.25 1.02,0.9 0.67,0.93 1.08,2.15l1.05 3.8c0.19,0.49 0.18,0.78 0.31,1.3 0.17,0.65 0.34,0.97 0.34,1.74 0,0.51 -0.52,1.12 -0.58,1.85 0.88,0.21 1.42,-0.01 2.42,-0 1.45,0.01 2.7,-0.35 4.15,-0.35 1.03,0 1.85,-0.09 2.89,-0.11 0.52,-0.01 0.83,-0.11 1.38,-0.12 0.76,-0.01 1.63,-0.03 1.05,-0.94l-0.78 -1.31c-0.32,-0.64 -0.81,-1.31 -0.95,-2.05l-2.48 -9.64c-0.25,-1.11 -0.65,-2.04 -0.87,-3.17 -0.13,-0.7 -0.32,-1.06 -0.44,-1.63l-0.41 -1.54c-0.3,-1.05 -0.43,-2.23 -0.79,-3.25l-1.28 -4.84c-0.1,-0.57 -0.29,-1.01 -0.4,-1.56l-0.87 -3.17c-0.34,-1.06 -0.44,-2.22 -0.75,-3.29l-0.67 -2.33c-0.11,-0.29 -0.13,-0.49 -0.19,-0.84l-1.28 -4.83c-0.16,-0.57 -0.16,-1.03 -0.36,-1.6 -0.23,-0.64 -1.21,-4.44 -1.21,-5.02 0,-0.43 0.06,-0.52 0.21,-0.83 0.2,-0.41 0.16,-0.37 0.29,-0.87 0.13,-0.49 0.8,-1.42 0.08,-1.42l-12.69 0c-0.19,0 -0.35,0.07 -0.35,0.23zm-38.07 10.96c0,-0.37 0.21,-0.51 0.42,-0.73 0.77,-0.84 0.64,-0.72 1.5,-0.8 1.72,-0.17 4.97,-0.08 6.85,-0.08 0.29,0 1.38,1.1 1.38,1.39l0 11.31c0,0.54 -0.21,0.65 -0.48,0.9 -1.09,1.01 -0.71,0.84 -3.09,0.83 -0.91,-0 -1.63,0.12 -2.54,0.12l-2.42 0.11c-0.66,0 -1.62,-0.84 -1.62,-1.5l0 -11.54zm-11.08 -11.07c0.04,0.7 0.43,1.55 0.63,2.37 0.35,1.39 0.4,-0.1 0.4,2.59l0 50.42c0.07,2.3 -0.06,1.15 -0.47,2.88 -0.16,0.67 -0.53,1.23 -0.57,2.08 0.87,0.3 2.26,0.02 3.21,-0.14l6.85 -0.76c0.86,-0.1 1.43,-0.06 2.26,-0.18 0.73,-0.11 1.49,-0.26 2.23,-0.3 0.88,-0.06 1.54,-0.05 2.37,-0.17 0.71,-0.11 1.52,-0.26 2.24,-0.29 0.81,-0.04 1.48,-0.05 2.28,-0.15 0.58,-0.07 1.52,-0.29 2.22,-0.32 2.67,-0.1 2.26,0.08 3.66,-1.41 0.11,-0.12 0.17,-0.2 0.27,-0.3l2.01 -2.03c1.99,-2.15 1.56,-1.2 1.68,-4.79 0.04,-1.27 0.11,-15.91 -0.15,-16.47 -0.19,-0.4 -1.93,-1.83 -2.37,-2.25l-1.71 -1.52c-0.37,-0.29 -0.47,-0.51 -0.86,-0.72 0.29,-0.95 2.31,-2.56 3.18,-3.43 0.02,-0.02 0.04,-0.04 0.06,-0.06l0.64 -0.63c0.33,-0.32 1.2,-0.95 1.2,-1.57 0,-1.97 0.11,-17.61 -0.06,-18.16 -0.14,-0.42 -0.45,-0.54 -1,-1.07 -0.24,-0.23 -0.38,-0.39 -0.64,-0.63 -0.29,-0.26 -0.45,-0.35 -0.74,-0.64l-1.37 -1.28c-0.38,-0.36 -0.99,-1.17 -1.59,-1.17l-25.38 0c-0.23,0 -0.26,0.04 -0.46,0.12z"/>
  </g>
 </g>
</svg>
