<?xml version="1.0" encoding="UTF-8"?>
<!DOCTYPE svg PUBLIC "-//W3C//DTD SVG 1.1//EN" "http://www.w3.org/Graphics/SVG/1.1/DTD/svg11.dtd">
<!-- Creator: CorelDRAW -->
<svg xmlns="http://www.w3.org/2000/svg" xml:space="preserve" width="25.4mm" height="25.4mm" version="1.1" style="shape-rendering:geometricPrecision; text-rendering:geometricPrecision; image-rendering:optimizeQuality; fill-rule:evenodd; clip-rule:evenodd"
viewBox="0 0 120.14 120.14"
 xmlns:xlink="http://www.w3.org/1999/xlink"
 xmlns:xodm="http://www.corel.com/coreldraw/odm/2003">
 <defs>
  <style type="text/css">
   <![CDATA[
    .fil2 {fill:black}
    .fil1 {fill:#EB008C}
    .fil0 {fill:white}
   ]]>
  </style>
 </defs>
 <g id="Camada_x0020_1">
  <metadata id="CorelCorpID_0Corel-Layer"/>
  <g id="_2445301753456">
   <path class="fil0" d="M82.1 73.73c0.72,-1.88 2.15,-3.04 4.02,-3.69 1.88,-0.65 3.84,-0.53 5.7,0.08 0.85,-0.76 1.59,-1.2 2.59,-1.67 0.75,-0.35 1.52,-0.61 2.34,-0.78 0.55,-0.11 1.05,-0.19 1.61,-0.19 0.51,-0.05 0.94,-0.07 1.46,0 1.95,0.25 3.2,0.78 4.64,2.15 1.48,1.42 2.05,3.26 1.86,5.15 1.36,0.48 2.54,1.3 3.39,2.48 1.92,2.68 1.43,5.68 -0.52,8.14 -0.65,0.82 -1.49,1.5 -2.44,2.03 0.31,0.23 0.61,0.5 0.9,0.81 0.64,0.69 1.1,1.29 1.47,2.18 0.16,0.4 0.29,0.79 0.38,1.18 1.69,-2.92 5.68,-2.81 8.13,-0.96 4.5,4.44 2.22,7.29 -1.26,11.44 -4.8,5.74 -12.09,10.32 -19.78,10.06 -1.91,-0.07 -3.42,-0.47 -5.18,-1.21 -0.49,-0.26 -0.96,-0.56 -1.4,-0.91 -1.59,0.95 -3.18,1.7 -5.09,1.66 -1.66,-0.03 -3.17,-0.69 -4.38,-1.82 -0.48,-0.45 -0.87,-0.92 -1.2,-1.43 -1.52,1.15 -2.74,1.75 -4.55,2.47 -1.04,0.41 -2.73,0.76 -3.85,0.86 -1.89,1.94 -4.7,2.17 -7.05,0.73 -0.74,-0.46 -1.38,-1.03 -1.84,-1.7 -0.47,0.69 -1.06,1.29 -1.7,1.74 -2.31,1.64 -5.51,1.55 -7.55,-0.49 -1.79,0.25 -3.74,-0.09 -5.25,-0.99l-0.75 0.65c-1.86,1.65 -4.35,3.14 -6.9,3.07 -2.41,-0.06 -4.43,-1.4 -5.3,-3.65 -0.4,0.18 -0.8,0.35 -1.2,0.53 -0.07,0.03 -0.12,0.05 -0.19,0.08l-2.17 0.83c-1.32,0.49 -2.64,0.88 -3.97,1.28 -0.11,2.04 -1.33,4.01 -3.08,5.05 -0.21,0.14 -0.41,0.26 -0.63,0.38 -1.12,0.58 -2.3,0.92 -3.58,0.89 -2.88,-0.08 -4.93,-2.06 -5.34,-4.72 -1.73,-0.22 -3.27,-0.87 -4.54,-2.1l-0.45 -0.48c-1.33,-1.46 -1.9,-3.51 -1.48,-5.34 -0.83,-0.13 -1.64,-0.36 -2.38,-0.65 -6.37,-2.84 -6.8,-8.8 -3.84,-14.47 3.8,-7.14 9.72,-11 16.56,-14.85 3.04,-1.71 7.93,-3.8 11.29,-4.71 5.62,-1.51 11.97,-1.76 15.78,3.43 0.6,-0.55 1.21,-1.08 1.84,-1.63 1.81,-1.59 3.25,-3.53 4.67,-5.46 0.42,-0.57 0.84,-1.41 1.17,-2.04 0.64,-1.23 1.23,-2.52 1.72,-3.82 0.25,-0.65 0.8,-2.27 0.95,-3.41 -0.58,0.03 -1.21,0.1 -1.63,0.14 -1.6,0.16 -3.2,0.38 -4.8,0.57 -2.54,0.31 -5.49,0.7 -8.04,0.51 -1.34,-0.1 -2.44,-0.79 -3.13,-1.95 -0.15,-0.25 -0.28,-0.51 -0.4,-0.77 -0.15,-0.33 -0.31,-0.84 -0.49,-1.14 -0.55,-0.93 -1.14,-1.9 -1.62,-2.87 -0.36,-0.74 -0.59,-1.5 -0.63,-2.25 -1.17,-0.91 -1.78,-2.43 -1.45,-3.97 0.11,-0.5 0.25,-0.96 0.45,-1.41 -1.1,-0.49 -1.89,-1.44 -2.19,-2.66 -0.37,-1.49 0.09,-2.95 1.24,-3.96 0.09,-0.08 0.18,-0.15 0.26,-0.22 -0.38,-0.64 -0.56,-1.36 -0.53,-2.16l0.07 -2.14c0.14,-12.25 14.11,-22.96 25.53,-23.96 2.92,-0.25 5.7,-0.09 8.51,0.77 0.41,0.13 0.81,0.26 1.21,0.41 4.55,-6.2 12.48,-12.57 20.47,-12.83 5.85,-0.19 14.73,2.63 17.45,8.39 0.42,0.89 0.63,1.64 0.8,2.6 0.81,6.63 -4.02,12.27 -7.53,17.44 -1.35,1.99 -2.31,3.18 -3.87,4.97 -0.81,0.93 -3.22,4.85 -2.87,5.8 0.16,0.43 0.58,0.91 0.88,1.26 1.47,-3.52 4.44,-8.95 7.26,-11.51 3.81,-3.45 8.51,-5.1 12.76,-1.33 3.19,2.96 3.9,8.19 3.28,12.31 -0.49,3.06 -1.66,5.88 -3.21,8.54 -4.2,7.06 -12.07,9.65 -19.87,7.85 -4.9,-1.24 -9.07,-4.36 -11.62,-8.74 -1.71,-2.94 -2.56,-6.17 -2.73,-9.46 -0.63,2.2 -1.5,4.35 -2.48,6.39 -0.78,1.63 -1.67,3.02 -2.72,4.47 -0.44,0.6 -0.88,1.2 -1.3,1.83 -0.43,0.64 -0.9,1.24 -1.38,1.84 -0.85,1.06 -1.53,1.89 -1.94,3.22 -1.27,4.78 -0.09,9.01 3.73,12.2 2.75,2.3 5.38,3.72 8.46,5.43 0.14,0.08 0.27,0.16 0.41,0.24z"/>
   <path class="fil1" d="M37.35 36.89l-0.02 2.19c0.3,-0.05 1.55,-0.3 1.81,-0.3 0.8,-0.01 0.59,0.1 0.98,0.27 0.54,2.22 0.89,4.23 -0.61,4.72 -0.79,0.26 -0.37,0.11 -1.01,0.16 -1.69,0.14 -1.23,-0.41 -2.12,0.41l4.04 0.83c-0.45,3.34 -1.77,3.15 -2.11,4.98l1.13 0.25c0.08,0.03 0.22,0.08 0.3,0.1l0.59 0.25c0.64,4.02 -2.05,0.06 1.38,5.55 0.4,0.64 0.57,1.3 0.94,1.89 4.08,0.19 12.79,-1.91 15.64,-1.61 6.2,0.65 -0.48,13.81 -1.73,15.61 -4.53,6.52 -4.76,5.54 -8.35,9.39 -0.95,1.02 -0.91,0.44 -0.7,1.41 4.11,0.91 12.14,-0.48 16.29,-1.92 5.25,-1.82 8.39,-4.05 12.06,-6.6 -0.7,-1.18 -1.22,-1.17 -2.66,-2.32 -1,-0.79 -1.71,-1.26 -2.65,-2.14 -3.85,-3.6 -5.23,-9.77 -3.81,-14.91 0.8,-2.92 2.4,-4.23 3.65,-6.21 1.25,-2 2.42,-3.27 3.59,-5.91 6.35,-14.25 0.28,-18.62 -1.14,-22.64 3.15,-2.26 12.51,-6.48 16.02,-5.25 0.86,3.42 -3.31,9.95 -4.55,16.1 -3.43,17 10.91,24.85 21.25,19.68 4.57,-2.48 6.67,-6.74 7.73,-11.68 0.69,-3.24 0.22,-6.73 -1.98,-9.32 -0.69,-0.81 -1.27,-0.98 -2.27,-1.17 -2.29,-0.27 -4.72,1.99 -5.69,3.01 -1.77,1.86 -5.01,7.78 -6.05,11.25 0.1,0.83 -0.13,0.64 0.71,0.55 2.51,-1.39 3.83,-3.77 6.92,-3.44 1.24,3.14 -0.57,6.69 -3.98,7.28 -3.9,0.67 -6.26,-1.38 -8.26,-3.11 -5.09,-4.4 -4.01,-6.76 -0.96,-12.12 1.06,-1.87 1.22,-1.65 2.63,-3.36 0.65,-0.79 1.7,-2.63 2.34,-3.62 2.61,-4.02 8.43,-11.29 5.32,-16.14 -2.68,-4.18 -10.81,-5.74 -15.39,-4.92 -4.22,0.75 -7.23,2.97 -10.31,5.8 -2.79,2.61 -4.89,4.88 -6.37,8.01 -2.57,-0.36 -4.78,-2.4 -11.17,-1.67 -9.88,1.13 -21.55,10.94 -21.38,20.67z"/>
   <path class="fil2" d="M23.34 108.91c0,-0.42 0.18,-0.91 0.24,-1.31 0.2,-1.2 0.57,-2.63 0.79,-3.88l0.52 -2.58c0.09,-0.46 0.2,-0.81 0.28,-1.27l0.26 -1.35c0.35,0 0.54,-0.04 0.87,-0.09l1.73 -0.18c0.29,-0.04 0.58,-0.09 0.86,-0.1 0.64,-0 1.18,-0.12 1.79,-0.12 1.72,0.01 3.34,-0.23 5.22,0.32 2.42,0.71 2.23,2.5 0.9,3.97 -0.23,0.26 -0.46,0.48 -0.71,0.72 -0.93,0.86 -3.71,2.4 -4.98,2.9l-6.15 2.43c-0.35,0.14 -1.32,0.51 -1.61,0.54zm62.21 -5.92c0,-0.24 0.06,-0.32 0.1,-0.49l0.38 -1.29c0.41,-1.23 0.79,-2.05 1.31,-3.17 0.21,-0.47 0.48,-1.01 0.74,-1.46 0.16,-0.26 0.24,-0.49 0.4,-0.74 0.76,-1.26 1.18,-2.07 2.09,-3.47 0.49,-0.76 1.32,-1.74 -0.03,-2.63 -0.7,-0.46 -1.89,-0.51 -2.71,-0.12 -0.68,0.33 -0.68,1 -1.01,1.32l-0.76 0.37c-0.19,0.08 -0.26,0.14 -0.39,0.2 -0.16,0.08 -0.26,0.12 -0.41,0.19 -0.26,0.13 -0.49,0.22 -0.8,0.34 -1.58,0.56 -0.89,0.26 -1.82,0.26 -0.87,0 -0.79,1.44 0.25,2.02 0.43,0.24 0.84,0.18 1.31,0.3 0.22,0.05 0.22,0.09 0.41,0.13l-0.2 0.46c-1.35,2.68 -3.92,8.63 -1.13,11.09 1.59,1.41 3.28,0.45 4.77,-0.5 0.62,-0.39 0.78,-1.25 0.17,-1.76 -0.54,-0.45 -0.8,-0.2 -1.21,-0.06 -1.42,0.52 -1.45,-0.02 -1.45,-0.98zm-28.91 -14.29c0,0.75 1.25,0.07 1.25,2.39 0,0.74 -0.2,1.43 -0.29,2.09 -0.09,0.71 -0.23,1.39 -0.37,2.08l-1.3 7.25c-0.06,0.39 -0.13,0.67 -0.2,1.06 -0.24,1.44 -0.59,3.35 -0.59,4.79 0,0.29 0.07,0.37 0.19,0.53 0.11,0.15 0.2,0.25 0.33,0.38 0.69,0.67 1.77,0.55 2.49,0.01 0.45,-0.34 1.04,-1.14 1.04,-1.64 0,-1.01 -0.12,-1.97 -0.12,-3.17 0,-1.77 0.3,-4.19 0.77,-5.45 0.37,-0.98 0.68,-1.73 1.34,-2.54l2.13 -2.35c0.16,-0.15 2.57,-2.41 2.04,-1.07l-1.28 3.74c-0.15,0.41 -0.28,0.73 -0.28,1.09 0,0.54 1,1.15 1.97,-0.3 0.09,-0.14 0.19,-0.26 0.31,-0.41l2.47 -3.26c0.21,-0.29 0.42,-0.52 0.62,-0.81 1.01,-1.46 0.09,-3.74 -3.11,-2.88 -0.38,0.1 -0.77,0.17 -1.12,0.31 -0.32,0.12 -0.72,0.26 -1.03,0.4l-2.02 0.84c0,-1.72 -0.26,-3.14 -1.86,-3.82 -0.47,-0.2 -1.18,-0.21 -1.72,-0.19 -0.54,0.03 -1.67,0.4 -1.67,0.9zm39.99 -10.76c0,0.23 -0.01,0.41 0.06,0.6 0.04,0.12 0.02,0.06 0.09,0.15 0.56,0.78 1.52,0.68 2.77,0.68l3.15 0.01c0.66,0.09 0.88,0.47 0.47,0.8 -0.45,0.36 -0.53,0.37 -1.16,0.57 -1,0.31 -3.03,0.77 -4.05,0.1 -0.64,-0.42 -0.67,-1.13 -1.5,-1.13 -0.58,0 -0.95,0.51 -1.01,0.96 -0.05,0.36 0.05,0.58 0.05,0.89 0.05,1.78 0.14,2.15 -0.43,3.88 -0.18,0.57 -0.6,1.15 -1.1,1.46 -0.18,0.1 -0.51,0.14 -0.73,0.16 -0.14,-0.2 -0.36,-0.31 -0.36,-0.96 0,-1.18 -0.02,-1.82 0.14,-3.03 0.14,-1.07 0.06,-1.71 -1.35,-1.24 -0.47,0.16 -1.92,0.98 -2.57,1.31l-1.28 0.63c-0.27,0.11 -1.33,0.65 -1.41,0.3 -0.02,-0.09 0.28,-0.6 0.28,-0.6l0.11 -0.12c0.58,-0.63 0.58,-0.66 1.33,-1.18 0.41,-0.28 1.52,-0.81 2.01,-0.97 1.16,-0.38 4.35,-0.87 2.78,-2.18 -0.82,-0.68 -2.42,-0.82 -3.81,-2.04 -0.97,-0.86 -1.44,-2.05 0.62,-2.05 1.06,0 2.3,0.56 2.84,1.09 0.23,0.23 0.26,0.21 0.36,0.35 0.15,0.21 0.13,0.22 0.31,0.37 0.09,0.07 -0.03,-0.13 0.03,0.06 0.32,1.03 1.46,1.17 1.74,0.4 0.16,-0.42 -0.24,-2.81 1.57,-4.16 0.66,-0.5 2.19,-1.38 2.19,0.17 0,1.13 -0.95,2.7 -1.59,3.55 -0.23,0.31 -0.56,0.67 -0.56,1.17zm-4.23 -3.77c-0.48,-0.04 -3.26,-2.09 -5.84,-1.13 -0.78,0.29 -1.33,0.67 -1.59,1.45 -0.67,2 -0.02,3.25 1.42,4.51 0.24,0.22 0.64,0.59 0.94,0.67 -0.06,0.23 -0.38,0.31 -0.78,0.53 -0.98,0.54 -1.52,0.86 -2.45,1.55 -0.41,0.31 -1.07,0.88 -1.37,1.25 -0.47,0.58 -0.83,1.16 -0.83,2.04 0,0.95 1.24,1.79 2.21,1.79 0.46,0 1.21,-0.03 1.63,-0.16 1.53,-0.49 2.6,-0.98 4,-1.84 0.18,-0.1 0.15,-0.13 0.39,-0.15 0,1 0.6,2.41 1.23,3.19 0.34,0.42 0.74,0.71 1.29,0.92 0.56,0.22 1.34,0.25 1.9,0.02 0.52,-0.22 0.96,-0.41 1.38,-0.82 0.1,-0.1 0.2,-0.16 0.28,-0.25l0.49 -0.58c0.09,-0.13 0.15,-0.23 0.23,-0.36 0.53,-0.84 0.85,-1.82 1.07,-2.81 0.2,-0.89 0.09,-0.19 2.19,-0.19 1.86,0 4.25,-0.75 5.27,-2.13 0.79,-1.05 1.21,-2.19 0.32,-3.36 -0.3,-0.4 -0.7,-0.68 -1.16,-0.88 -1.04,-0.45 -2.91,-0.62 -4.27,-0.46 -1.02,0.12 -0.07,-0.89 0.06,-1.08 0.32,-0.47 0.73,-1.17 0.91,-1.71 0.35,-1.05 0.32,-2.07 -0.49,-2.81 -0.82,-0.74 -1.29,-0.9 -2.44,-1.02 -0.38,-0.04 -0.53,0.05 -0.89,0.06 -0.34,0.01 -0.58,0.06 -0.88,0.13 -0.54,0.13 -0.98,0.29 -1.44,0.52 -0.22,0.11 -0.39,0.2 -0.62,0.33 -0.59,0.36 -1.16,0.86 -1.57,1.41 -0.22,0.29 -0.6,0.9 -0.6,1.37zm8.46 18.65c0.11,-0.02 -0.13,-0.09 0.15,-0.02 0.29,0.08 -0.01,0.75 -0.09,0.92 -0.24,0.5 -0.64,0.99 -0.99,1.4l-2.38 2.22c-0.17,0.13 -0.26,0.22 -0.43,0.34 -0.14,0.1 -0.12,0.07 -0.26,0.15 -0.44,0.25 -1.05,0.75 -1.73,0.91 -0.31,0.07 -0.31,0.02 -0.2,-0.25 0.34,-0.77 0.66,-1.3 1.16,-1.96l0.7 -0.85c0.43,-0.47 0.61,-0.72 1.16,-1.16l0.22 -0.21c0.29,-0.29 1.23,-0.93 1.56,-1.12 0.75,-0.43 0.66,-0.27 1.13,-0.36zm-5.36 9.92c1.56,-0.63 3.06,-1.45 4.4,-2.46l0.77 -0.61c0.18,-0.14 0.23,-0.17 0.39,-0.33l1.4 -1.34c0.47,-0.51 1,-1.14 1.37,-1.73 1,-1.6 2.1,-3.66 1.25,-5.59 -0.18,-0.41 -0.41,-0.64 -0.72,-0.95 -1.86,-1.88 -5.62,-0.13 -7.49,1.37l-0.06 0.05c-0.74,0.62 -1.5,1.2 -2.15,1.91l-0.99 1.1c-0.64,0.76 -2.44,3.2 -2.52,4.17 -0.67,0 -1.15,0.12 -1.42,0.67 -0.28,0.6 -0.03,1.46 0.45,1.84 0.3,0.23 0.22,0.17 0.25,0.65 0.04,0.96 0.29,1.93 0.68,2.79 0.41,0.95 1.23,1.74 2.15,2.2 2.38,1.16 6.46,0.58 8.86,-0.36 0.27,-0.11 0.45,-0.18 0.73,-0.28 0.24,-0.09 0.47,-0.17 0.68,-0.27l2.07 -0.98c0.39,-0.19 0.91,-0.5 1.31,-0.72 1.59,-0.86 3.53,-2.5 4.72,-3.88l1.09 -1.35c0.8,-1.09 1.49,-2.27 2.07,-3.49 0.33,-0.69 0.09,-0.42 0.69,-0.8 0.66,-0.42 0.56,-0.97 0.08,-1.45 -0.11,-0.11 -0.16,-0.16 -0.26,-0.28l-0.56 -0.46c-0.18,-0.11 -0.08,-0.07 -0.33,-0.14 -0.28,-0.08 -0.51,-0.22 -0.8,-0.22 -0.88,0 -0.53,0.12 -0.95,0.24 0,0.41 -0.02,0.6 0.08,0.93 0.34,1.13 0.51,0.35 -0.14,1.76 -0.32,0.72 -0.79,1.25 -1.14,1.9 -0.12,0.21 -0.16,0.18 -0.34,0.43 -0.51,0.67 -1.1,1.24 -1.69,1.83l-1.08 0.95c-0.22,0.16 -0.37,0.28 -0.58,0.43 -0.2,0.16 -0.39,0.26 -0.6,0.42 -0.2,0.15 -0.34,0.25 -0.57,0.39l-1.28 0.75c-0.68,0.33 -1.35,0.72 -2.07,0.98l-1.5 0.53c-0.27,0.09 -0.49,0.13 -0.8,0.22 -1.23,0.34 -1.77,0.43 -3.07,0.5 -0.58,0.03 -0.6,0.08 -1.35,-0.02 -0.28,-0.04 -0.57,-0.08 -0.84,-0.17 -0.38,-0.12 -1.08,-0.34 -1.2,-0.77l1.01 -0.36zm-17.76 -5.2c0,0.57 -0.83,2.13 -1.16,2.67 -0.11,0.19 -0.48,0.75 -0.63,0.92 -0.83,0.99 -1.61,1.81 -2.72,2.41 -1.1,0.6 -1.46,0.77 -2.75,1.07 -0.68,0.16 -0.59,0.11 -0.58,-0.03 0.08,-0.87 1.18,-3.21 1.72,-4.02 0.14,-0.21 0.26,-0.34 0.4,-0.55 0.21,-0.32 0.85,-1.05 1.21,-1.42l1.12 -1.02c0.66,-0.52 1.62,-1.28 2.48,-1.28 0.91,0 0.89,0.69 0.89,1.26zm-4.59 -1.91c0.01,-0.2 0.17,-0.5 0.26,-0.69 0.11,-0.22 0.18,-0.39 0.29,-0.61 0.2,-0.41 0.39,-0.82 0.57,-1.22 0.2,-0.43 0.43,-0.84 0.6,-1.26l1.65 -3.78c0.62,-1.28 1.9,-5.07 2.04,-6.21 0.11,-0.88 0.09,-0.85 0.07,-1.6 -0.04,-1.33 -1.02,-1.91 -2.19,-2.34 -0.71,-0.26 -2.69,-0.6 -2.69,0.31 0,1.01 0.68,-0.13 0.28,2.61 -0.26,1.79 -0.85,4.18 -1.34,5.95l-0.47 1.62c-0.36,1.08 -0.63,2.12 -0.99,3.19 -0.89,2.66 -1.69,5.13 -2.65,7.81l-0.69 1.94c-0.05,0.14 -0.08,0.26 -0.14,0.4 -0.11,0.28 -0.18,0.47 -0.27,0.74 -0.16,0.48 -0.41,0.99 -0.53,1.5l-0.42 0c-0.26,-0.38 -0.23,-0.89 -0.16,-1.41 0.22,-1.44 -0.41,-2.53 -1.81,-1.76 -0.59,0.33 -1.13,1.02 -1.13,1.74 0,1.26 -0.03,1.94 0.68,3.03 0.35,0.54 1.13,1.14 1.65,1.28 0,0.96 -1.21,1.15 0.3,2.03 0.82,0.48 1.67,0.46 2.27,-0.35 1.06,-1.41 0.4,-0.83 1.58,-0.98 0.19,-0.02 0.52,-0.08 0.74,-0.1 0.64,-0.07 2.11,-0.41 2.73,-0.67 1.63,-0.69 2.37,-1.06 3.72,-2.18l0.2 -0.15 1.13 -1.08c0.72,-0.8 0.89,-0.94 1.56,-1.84 1.14,-1.53 2.71,-4.97 1.5,-6.7 -1.46,-2.07 -5.95,-0.72 -7.33,0.18l-1.01 0.6zm-66.8 4.72c0.23,-2.75 4.33,-6.73 6.36,-8.65 5.21,-4.92 12.94,-9.01 19.86,-10.74 1.72,-0.43 4.36,-1 5.95,0.02l0.2 0.17c0.08,0.08 0.19,0.24 0.24,0.35 0.14,0.31 0.16,0.59 0.11,0.92 -0.06,0.42 -0.11,0.62 -0.24,0.95l-0.37 0.76 -0.69 1.04c-0.03,0.05 -0.1,0.13 -0.13,0.17l-2.24 2.83c-0.2,0.25 -0.26,0.3 -0.49,0.53 -0.2,0.2 -0.36,0.36 -0.56,0.57l-1.17 1.1 -4.19 2.79c-0.51,0.28 -1.02,0.47 -1.57,0.7 -0.3,0.12 -0.69,0.39 -0.49,-0.12l0.92 -2.49c0.22,-0.65 1.22,-2.99 1.22,-3.38 0,-0.85 -0.56,-1.33 -1.16,-1.77 -0.63,-0.46 -2.07,-1.16 -2.93,-0.59 -0.59,0.39 -0.77,1.15 -1.12,1.75 -0.1,0.16 -0.07,0.15 -0.14,0.33 -0.08,0.22 -0.06,0.13 -0.16,0.32 -0.45,0.85 -0.74,1.81 -1.09,2.73 -0.47,1.19 -0.78,2.39 -1.17,3.61 -0.12,0.37 -0.39,1.18 -0.4,1.52l-2.39 0.71c-0.42,0.14 -0.75,0.22 -1.05,0.5 -0.16,0.15 -0.24,0.23 -0.33,0.45 -0.58,1.36 0.88,2.02 2.05,2.05l1.13 0.06c0,0.56 -0.07,0.86 -0.11,1.32l-0.24 2.5c-0.01,0.18 -0.05,0.41 -0.08,0.64l-0.33 3.14c-0.07,0.83 -0.24,1.67 -0.24,2.51 -1.29,0 -2.13,-0.03 -3.35,-0.35 -0.33,-0.09 -0.62,-0.18 -0.97,-0.28 -0.74,-0.21 -2.06,-0.42 -2.7,0.11 -0.72,0.58 -0.28,1.76 0.24,2.3l0.29 0.3c1.2,1.1 2.58,0.94 3.93,1.08 0.09,0.01 1,-0.04 1.17,-0.06 0.32,-0.04 0.9,-0.2 0.9,0.07 0,0.95 -0.24,1.72 -0.24,2.63 0,1.05 0.51,1.79 1.61,1.79 0.6,0 1.16,-0.23 1.65,-0.5 0.18,-0.1 0.22,-0.15 0.4,-0.26 0.58,-0.36 1.11,-1.16 1.11,-1.93 0,-0.53 -0.3,-0.65 -0.3,-1.97 0,-0.24 0,-0.48 0,-0.72 0.36,-0.03 0.83,-0.2 1.17,-0.32 1.95,-0.66 3.54,-1.1 5.55,-1.91l2.11 -0.87c0.94,-0.45 2.11,-0.95 2.99,-1.49 0.33,-0.2 0.62,-0.36 0.93,-0.55 0.81,-0.49 2.51,-1.59 3.16,-2.21l0.09 -0.09c0.11,-0.11 0.03,-0.07 0.22,-0.14 -0.01,0.21 -0.11,0.36 -0.18,0.54 -0.66,1.78 -2.05,6.52 1.07,6.52 1.44,0 3.15,-1.28 4.12,-2.2l0.75 -0.69c0.05,-0.05 0.11,-0.09 0.16,-0.14l3.37 -4.09c0,1.16 0.03,2.51 0.5,3.2 0.73,1.07 3.53,1.27 4.54,0.35 0.1,-0.09 0.26,-0.27 0.33,-0.38 0.09,-0.16 0.23,-0.49 0.23,-0.73 0,-0.93 -0.49,-0.48 -1.19,-0.48 -1.13,0 -0.59,-2.7 -0.43,-3.36 0.16,-0.63 0.3,-1.33 0.49,-1.91 0.09,-0.29 0.2,-0.61 0.28,-0.92l0.56 -1.83c0.09,-0.32 0.3,-0.51 0.3,-0.9 0,-1.66 -3.39,-2.07 -3.82,-0.79 -0.23,0.67 -0.11,0.38 -0.48,1.07l-4.06 6.44c-0.13,0.18 -0.2,0.29 -0.32,0.45 -0.54,0.72 -1.79,2.55 -2.63,2.62 0,-0.85 0.18,-1.52 0.4,-2.17 0.28,-0.86 0.56,-1.56 1,-2.35l0.08 -0.16c0.47,-0.98 1.04,-1.93 1.62,-2.86l0.23 -0.37 0.63 -0.98c0.1,-0.18 0.15,-0.24 0.26,-0.39l0.77 -1.14c0.53,-0.8 0.94,-1.53 1.71,-2.11 1.26,-0.95 1.21,-0.18 1.7,0.41 0.6,0.72 2.08,0.5 2.7,0 0.79,-0.63 0.85,-1.78 0.3,-2.59 -0.17,-0.25 -0.44,-0.59 -0.66,-0.77 -0.83,-0.66 -1.5,-0.83 -2.57,-0.83 -1.02,0 -2.51,0.8 -3.33,1.33l-1.3 1.03c-0.63,0.53 -1.2,1.16 -1.73,1.79l-1.33 1.65c-0.28,0.35 -0.93,1.43 -1.19,1.61 -0.03,-0.34 -0.26,-0.83 -0.4,-1.1 -0.22,-0.44 -0.47,-0.77 -0.82,-1.09 -0.73,-0.68 -1.67,-1.13 -2.61,-1.44 -0.21,-0.07 -0.39,-0.1 -0.6,-0.17 -0.59,-0.19 -1.16,-0.32 -1.82,-0.39 -0.39,-0.04 -0.89,-0.17 -1.31,-0.17 0.05,-0.2 0.16,-0.2 0.3,-0.3 0.85,-0.57 1.67,-1.25 2.42,-1.93l0.5 -0.45c1.51,-1.33 2.78,-2.89 3.68,-4.74 0.07,-0.16 0.09,-0.26 0.17,-0.43 0.66,-1.59 0.95,-3.52 0.55,-5.23 -0.18,-0.76 -0.51,-1.5 -1.02,-2.09 -5.78,-5.93 -19.05,1.84 -24.49,5.33 -4.91,3.15 -8.51,5.83 -11.35,11.06 -1.88,3.46 -2.74,7.7 1.71,9.53 1.45,0.53 4.02,0.78 5.27,-0.39l0.31 -0.35c0.31,-0.44 0.39,-1.03 0.12,-1.51 -0.45,-0.8 -1.71,-0.79 -2.63,-0.47 -1.13,0.39 -1.01,0.51 -2.29,0.51 -0.71,0 -1.44,-0.66 -1.44,-1.38l0 -0.6z"/>
  </g>
 </g>
</svg>
