<?xml version="1.0" encoding="UTF-8"?>
<!DOCTYPE svg PUBLIC "-//W3C//DTD SVG 1.1//EN" "http://www.w3.org/Graphics/SVG/1.1/DTD/svg11.dtd">
<!-- Creator: CorelDRAW -->
<svg xmlns="http://www.w3.org/2000/svg" xml:space="preserve" width="47.1985mm" height="48.0324mm" version="1.1" style="shape-rendering:geometricPrecision; text-rendering:geometricPrecision; image-rendering:optimizeQuality; fill-rule:evenodd; clip-rule:evenodd"
viewBox="0 0 887.55 903.24"
 xmlns:xlink="http://www.w3.org/1999/xlink"
 xmlns:xodm="http://www.corel.com/coreldraw/odm/2003">
 <defs>
  <style type="text/css">
   <![CDATA[
    .fil0 {fill:black}
   ]]>
  </style>
 </defs>
 <g id="Camada_x0020_1">
  <metadata id="CorelCorpID_0Corel-Layer"/>
  <path id="Yasmin_x0020_Logo.cdr" class="fil0" d="M62.83 415.05c0,-35.83 57.39,-80.93 71.77,-99.79l15.97 -21.08c0.02,-0.01 2,-5.54 2,1.96 0,17.74 -14.4,45.72 -26.35,57.81l-63.39 61.1zm80.48 -39.19c-0,-1.26 -0.01,-2.42 -0.05,-3.46 -0.04,-1.02 0.04,-2.33 0.21,-3.92 0.15,-1.34 0.39,-2.75 0.75,-4.23 0.34,-1.5 0.88,-3.06 1.62,-4.71 1.39,-3.11 3.09,-5.73 5.11,-7.88 2.03,-2.14 4.41,-3.73 7.15,-4.76 2.68,-1.02 5.69,-1.39 9.02,-1.15 3.33,0.25 6.89,1.22 10.7,2.91 3.6,1.61 6.6,3.54 9,5.8 2.4,2.27 4.16,4.77 5.27,7.53 1.1,2.67 1.56,5.51 1.41,8.54 -0.16,3.03 -0.93,6.11 -2.33,9.26 -1.03,2.3 -2.33,4.47 -3.93,6.5 -1.59,2.04 -3.73,4.14 -6.4,6.3l-6.93 -3.09 0.19 -0.43c3.05,-1.46 5.53,-3.16 7.48,-5.06 1.94,-1.91 3.5,-4.19 4.68,-6.84 0.97,-2.17 1.48,-4.27 1.55,-6.32 0.06,-2.06 -0.36,-4.1 -1.26,-6.13 -0.87,-1.97 -2.27,-3.82 -4.18,-5.56 -1.9,-1.73 -4.31,-3.25 -7.24,-4.56 -3.07,-1.37 -5.88,-2.14 -8.45,-2.31 -2.57,-0.17 -4.84,0.08 -6.8,0.75 -2.05,0.7 -3.8,1.78 -5.3,3.26 -1.49,1.49 -2.69,3.23 -3.58,5.22 -1.22,2.74 -1.88,5.51 -2,8.34 -0.11,2.82 0.31,5.7 1.29,8.64l-0.18 0.4 -6.82 -3.04zm24.06 58.89c-2.52,1.37 -5.41,2.19 -8.68,2.48 -3.26,0.28 -6.81,-0.03 -10.65,-0.93 -3.85,-0.9 -7.17,-2.21 -9.97,-3.93 -2.8,-1.73 -5.01,-3.73 -6.62,-6.02 -1.67,-2.38 -2.73,-4.96 -3.2,-7.78 -0.46,-2.82 -0.31,-5.87 0.46,-9.15 0.75,-3.22 1.98,-6.01 3.68,-8.38 1.7,-2.36 3.8,-4.23 6.3,-5.58 2.51,-1.36 5.37,-2.18 8.61,-2.47 3.24,-0.29 6.79,0.02 10.67,0.93 3.8,0.89 7.1,2.18 9.89,3.87 2.79,1.68 5.03,3.72 6.75,6.1 1.63,2.27 2.67,4.88 3.14,7.79 0.46,2.92 0.32,5.96 -0.42,9.11 -0.77,3.26 -2,6.08 -3.71,8.42 -1.7,2.35 -3.78,4.2 -6.24,5.55zm-17.85 -4.79c6.05,1.41 11.03,1.18 14.93,-0.7 3.9,-1.88 6.39,-5.12 7.46,-9.7 1.09,-4.64 0.3,-8.65 -2.37,-12.06 -2.66,-3.42 -7.02,-5.83 -13.07,-7.25 -6.11,-1.43 -11.1,-1.18 -14.98,0.76 -3.88,1.93 -6.34,5.16 -7.41,9.7 -1.06,4.52 -0.27,8.51 2.34,11.95 2.62,3.44 6.98,5.87 13.09,7.3zm-16.95 54.31c-1.85,-0.14 -3.66,-0.71 -5.42,-1.7 -1.75,-0.98 -3.21,-2.28 -4.35,-3.91 -1.24,-1.78 -2.16,-3.81 -2.77,-6.1 -0.6,-2.28 -0.77,-5 -0.54,-8.13 0.26,-3.37 0.8,-6.38 1.66,-9.02 0.84,-2.63 2,-5.29 3.47,-7.98l7.96 0.61 -0.04 0.44c-2.17,2.21 -3.92,4.81 -5.25,7.83 -1.32,3 -2.08,5.87 -2.28,8.59 -0.3,3.84 0.21,6.89 1.52,9.14 1.31,2.25 3.19,3.48 5.64,3.67 2.12,0.16 3.71,-0.23 4.8,-1.17 1.09,-0.93 1.98,-2.42 2.69,-4.44 0.55,-1.54 1.03,-3.21 1.44,-5.02 0.42,-1.81 0.93,-3.72 1.51,-5.74 1.21,-4.07 2.98,-7.02 5.3,-8.86 2.32,-1.83 5.23,-2.61 8.73,-2.34 4,0.31 7.15,2.21 9.45,5.71 2.3,3.51 3.27,7.8 2.88,12.89 -0.25,3.29 -0.8,6.28 -1.65,8.97 -0.84,2.69 -1.83,5.06 -2.93,7.11l-7.5 -0.57 0.03 -0.44c1.67,-1.66 3.12,-3.9 4.35,-6.72 1.23,-2.83 1.96,-5.75 2.19,-8.78 0.25,-3.33 -0.24,-6.06 -1.49,-8.18 -1.26,-2.13 -2.99,-3.28 -5.21,-3.45 -1.98,-0.15 -3.59,0.23 -4.8,1.15 -1.21,0.92 -2.22,2.62 -3,5.11 -0.41,1.32 -0.91,3.19 -1.53,5.62 -0.61,2.44 -1.21,4.5 -1.79,6.18 -1.21,3.4 -2.83,5.9 -4.86,7.51 -2.04,1.61 -4.77,2.29 -8.2,2.03zm-10.72 59.49l-0.48 -6.24 41.19 -3.14 -29.03 -10.85 -0.28 -3.7 27.05 -15.03 -41.19 3.14 -0.44 -5.79 47.81 -3.64 0.64 8.46 -25.68 14.48 27.54 10.02 0.66 8.65 -47.81 3.64zm11.42 51.04l-6.94 -30.04 46.72 -10.79 6.94 30.04 -5.53 1.28 -5.53 -23.94 -12.79 2.95 5.53 23.95 -5.52 1.28 -5.53 -23.95 -17.35 4.01 5.53 23.95 -5.53 1.28zm58.4 33.03l-6.2 -15.58 -39.28 15.63 -2.31 -5.81 39.28 -15.64 -6.2 -15.58 5.27 -2.1 14.72 36.98 -5.27 2.1zm21.12 34.11c-0.76,2.76 -2.16,5.42 -4.21,7.98 -2.05,2.55 -4.73,4.9 -8.04,7.05 -3.32,2.16 -6.56,3.65 -9.74,4.48 -3.19,0.83 -6.16,1.03 -8.92,0.61 -2.88,-0.44 -5.48,-1.46 -7.84,-3.07 -2.35,-1.62 -4.45,-3.84 -6.29,-6.67 -1.8,-2.77 -2.97,-5.58 -3.51,-8.45 -0.53,-2.86 -0.43,-5.67 0.33,-8.41 0.76,-2.75 2.15,-5.38 4.18,-7.93 2.03,-2.54 4.72,-4.89 8.05,-7.06 3.27,-2.13 6.48,-3.62 9.63,-4.46 3.14,-0.85 6.17,-1.06 9.07,-0.65 2.78,0.39 5.37,1.44 7.8,3.12 2.42,1.69 4.52,3.89 6.29,6.6 1.83,2.81 3.01,5.65 3.51,8.5 0.52,2.86 0.42,5.64 -0.31,8.35zm-15.81 9.57c5.21,-3.39 8.48,-7.15 9.82,-11.26 1.35,-4.12 0.73,-8.16 -1.84,-12.1 -2.6,-3.99 -6.04,-6.2 -10.35,-6.63 -4.31,-0.44 -9.07,1.04 -14.27,4.43 -5.26,3.42 -8.53,7.2 -9.82,11.34 -1.29,4.14 -0.66,8.15 1.88,12.06 2.53,3.89 5.95,6.08 10.25,6.58 4.29,0.49 9.07,-0.98 14.33,-4.4zm13.84 56.22l-19.04 -22.76 36.78 -30.77 4.01 4.8 -32.43 27.13 15.03 17.96 -4.35 3.64zm64.42 1.72c0,2.87 -0.65,5.8 -1.95,8.81 -1.3,3 -3.27,5.98 -5.89,8.93 -2.63,2.96 -5.36,5.26 -8.21,6.9 -2.86,1.64 -5.67,2.63 -8.45,2.95 -2.88,0.33 -5.67,0.04 -8.37,-0.89 -2.7,-0.94 -5.31,-2.52 -7.83,-4.77 -2.47,-2.19 -4.34,-4.6 -5.62,-7.22 -1.27,-2.62 -1.91,-5.36 -1.91,-8.19 0,-2.85 0.65,-5.76 1.93,-8.75 1.29,-2.99 3.25,-5.96 5.9,-8.94 2.59,-2.92 5.3,-5.21 8.11,-6.85 2.81,-1.65 5.66,-2.66 8.58,-3.03 2.78,-0.36 5.56,-0.03 8.35,0.94 2.79,0.99 5.39,2.56 7.82,4.7 2.51,2.23 4.4,4.65 5.64,7.27 1.26,2.61 1.9,5.33 1.91,8.13zm-12.71 13.41c4.12,-4.64 6.29,-9.13 6.49,-13.46 0.21,-4.33 -1.46,-8.05 -4.98,-11.18 -3.56,-3.16 -7.47,-4.38 -11.73,-3.66 -4.27,0.71 -8.47,3.4 -12.59,8.04 -4.17,4.69 -6.32,9.21 -6.47,13.53 -0.14,4.33 1.52,8.04 5,11.13 3.47,3.08 7.35,4.29 11.62,3.63 4.27,-0.66 8.49,-3.34 12.66,-8.04zm39.39 50.84c-2.8,-0.37 -5.73,-1 -8.76,-1.89 -3.03,-0.89 -5.75,-2.09 -8.14,-3.62 -3.08,-1.97 -5.62,-4.21 -7.62,-6.72 -2.02,-2.52 -3.37,-5.21 -4.06,-8.11 -0.69,-2.93 -0.7,-6.02 -0,-9.28 0.7,-3.26 2.17,-6.66 4.43,-10.19 4.14,-6.46 9.25,-10.38 15.33,-11.76 6.08,-1.37 12.34,0 18.79,4.13 2.25,1.44 4.36,3.19 6.36,5.24 1.99,2.06 3.92,4.61 5.78,7.66l-4.08 6.37 -0.48 -0.31c-0.27,-0.77 -0.71,-1.85 -1.31,-3.2 -0.61,-1.36 -1.26,-2.6 -1.96,-3.71 -0.87,-1.33 -1.96,-2.68 -3.28,-4.03 -1.32,-1.35 -2.95,-2.66 -4.92,-3.92 -4.42,-2.83 -8.84,-3.62 -13.27,-2.38 -4.42,1.25 -8.22,4.34 -11.38,9.29 -3.34,5.21 -4.59,10.12 -3.76,14.74 0.82,4.61 3.56,8.4 8.18,11.36 1.69,1.08 3.5,2 5.4,2.74 1.9,0.74 3.67,1.24 5.28,1.52l6.3 -9.83 -10.59 -6.78 3.06 -4.78 15.81 10.12 -11.1 17.34zm31.54 17.22l-16.91 -7.54 1.99 -4.46 5.6 2.5 15.55 -34.88 -5.6 -2.5 1.99 -4.46 16.91 7.54 -1.99 4.46 -5.59 -2.5 -15.56 34.88 5.6 2.5 -1.99 4.46zm54 13.18c-1.25,0.19 -2.39,0.37 -3.41,0.56 -1.01,0.18 -2.31,0.3 -3.91,0.37 -1.34,0.05 -2.77,0.02 -4.3,-0.11 -1.53,-0.12 -3.15,-0.42 -4.89,-0.91 -3.28,-0.91 -6.12,-2.2 -8.54,-3.89 -2.42,-1.69 -4.34,-3.81 -5.76,-6.37 -1.4,-2.5 -2.22,-5.42 -2.47,-8.75 -0.24,-3.33 0.18,-7 1.3,-11.02 1.06,-3.8 2.53,-7.06 4.41,-9.76 1.89,-2.71 4.11,-4.81 6.67,-6.33 2.47,-1.48 5.22,-2.36 8.24,-2.66 3.01,-0.29 6.17,0.02 9.5,0.95 2.42,0.67 4.77,1.65 7.01,2.92 2.26,1.28 4.65,3.08 7.18,5.41l-2.04 7.31 -0.46 -0.13c-1.9,-2.8 -3.94,-5.01 -6.11,-6.65 -2.18,-1.65 -4.66,-2.85 -7.45,-3.63 -2.29,-0.64 -4.44,-0.84 -6.48,-0.6 -2.04,0.24 -4,0.96 -5.88,2.15 -1.82,1.15 -3.45,2.81 -4.88,4.96 -1.43,2.13 -2.59,4.74 -3.44,7.84 -0.91,3.24 -1.25,6.13 -1.04,8.7 0.21,2.57 0.79,4.77 1.74,6.61 0.99,1.92 2.33,3.5 4.01,4.75 1.69,1.26 3.59,2.18 5.69,2.77 2.89,0.81 5.73,1.05 8.54,0.75 2.81,-0.3 5.59,-1.15 8.35,-2.55l0.42 0.12 -2 7.19zm56.13 -31.54c1.64,2.35 2.78,5.13 3.43,8.35 0.65,3.21 0.74,6.77 0.27,10.69 -0.47,3.93 -1.39,7.37 -2.79,10.35 -1.4,2.97 -3.15,5.39 -5.24,7.25 -2.18,1.93 -4.63,3.27 -7.38,4.06 -2.75,0.77 -5.8,0.96 -9.15,0.57 -3.28,-0.39 -6.19,-1.3 -8.74,-2.72 -2.53,-1.43 -4.63,-3.3 -6.25,-5.63 -1.63,-2.34 -2.76,-5.1 -3.41,-8.29 -0.65,-3.19 -0.74,-6.75 -0.27,-10.7 0.46,-3.87 1.37,-7.3 2.74,-10.26 1.36,-2.96 3.13,-5.42 5.31,-7.39 2.07,-1.88 4.55,-3.2 7.39,-4 2.85,-0.78 5.89,-0.99 9.1,-0.6 3.33,0.39 6.27,1.31 8.78,2.75 2.53,1.43 4.6,3.29 6.21,5.58zm-2.77 18.27c0.73,-6.16 -0.06,-11.09 -2.36,-14.76 -2.3,-3.67 -5.8,-5.78 -10.48,-6.33 -4.73,-0.56 -8.63,0.67 -11.72,3.7 -3.1,3.03 -5.01,7.63 -5.74,13.8 -0.74,6.23 0.08,11.17 2.42,14.8 2.35,3.63 5.84,5.73 10.46,6.28 4.61,0.55 8.48,-0.68 11.62,-3.66 3.12,-2.99 5.05,-7.59 5.79,-13.83zm91.62 -17.81c0.39,2.1 0.39,4.1 0.02,6.01 -0.37,1.92 -1.08,3.65 -2.11,5.2 -1.28,1.92 -2.92,3.49 -4.94,4.7 -2,1.21 -4.66,2.14 -7.95,2.75l-6.12 1.15 3.3 17.57 -6.15 1.15 -8.84 -47.13 12.49 -2.34c2.77,-0.52 5.14,-0.72 7.15,-0.6 2.01,0.12 3.85,0.54 5.52,1.27 1.98,0.88 3.62,2.12 4.91,3.73 1.3,1.61 2.2,3.8 2.72,6.54zm-6.38 1.35c-0.3,-1.61 -0.84,-2.96 -1.62,-4.04 -0.77,-1.1 -1.8,-1.91 -3.08,-2.46 -1.1,-0.46 -2.32,-0.71 -3.63,-0.76 -1.32,-0.05 -2.94,0.11 -4.86,0.47l-6.04 1.13 3.5 18.67 5.15 -0.97c2.46,-0.46 4.42,-1.06 5.87,-1.79 1.46,-0.74 2.58,-1.69 3.36,-2.86 0.78,-1.19 1.26,-2.38 1.45,-3.56 0.2,-1.18 0.16,-2.47 -0.1,-3.84zm58.13 16.89l-29.09 10.23 -15.9 -45.24 29.09 -10.23 1.88 5.35 -23.18 8.15 4.35 12.38 23.19 -8.15 1.88 5.35 -23.18 8.15 5.91 16.8 23.18 -8.15 1.88 5.35zm52.08 -24.53l-7.25 3.59 -22.53 -10.11 -7.86 3.89 8.46 17.08 -5.61 2.78 -21.27 -42.97 11.78 -5.83c2.54,-1.26 4.74,-2.14 6.61,-2.65 1.86,-0.5 3.68,-0.66 5.47,-0.46 2.01,0.23 3.81,0.87 5.41,1.95 1.59,1.06 2.96,2.74 4.09,5.03 1.54,3.1 2.06,6.07 1.57,8.91 -0.5,2.85 -1.82,5.46 -3.96,7.84l25.11 10.96zm-28.34 -24.39c-0.61,-1.23 -1.36,-2.21 -2.25,-2.94 -0.89,-0.74 -1.99,-1.18 -3.29,-1.35 -1.09,-0.16 -2.24,-0.07 -3.45,0.26 -1.23,0.33 -2.59,0.87 -4.1,1.61l-6.58 3.26 7.99 16.14 5.64 -2.79c1.78,-0.88 3.24,-1.8 4.4,-2.77 1.16,-0.97 1.99,-2.12 2.49,-3.43 0.45,-1.23 0.61,-2.47 0.5,-3.71 -0.11,-1.23 -0.56,-2.66 -1.36,-4.27zm59.95 -15.4c1.09,1.51 1.82,3.26 2.2,5.23 0.38,1.97 0.33,3.92 -0.18,5.85 -0.56,2.1 -1.52,4.11 -2.88,6.05 -1.35,1.93 -3.32,3.82 -5.86,5.65 -2.74,1.97 -5.39,3.5 -7.96,4.55 -2.55,1.05 -5.33,1.88 -8.34,2.49l-4.67 -6.47 0.36 -0.26c3.09,0.24 6.21,-0.1 9.37,-1.04 3.15,-0.93 5.83,-2.2 8.04,-3.79 3.12,-2.25 5.13,-4.61 6,-7.06 0.88,-2.45 0.6,-4.67 -0.84,-6.67 -1.24,-1.72 -2.56,-2.69 -3.98,-2.92 -1.41,-0.23 -3.12,0.04 -5.13,0.8 -1.53,0.58 -3.12,1.29 -4.77,2.14 -1.66,0.84 -3.44,1.69 -5.36,2.55 -3.89,1.7 -7.29,2.25 -10.19,1.66 -2.9,-0.6 -5.36,-2.31 -7.42,-5.16 -2.35,-3.25 -2.93,-6.89 -1.73,-10.91 1.2,-4.02 3.85,-7.52 8,-10.51 2.68,-1.93 5.31,-3.44 7.92,-4.52 2.6,-1.09 5.05,-1.87 7.33,-2.34l4.41 6.11 -0.36 0.26c-2.35,-0.2 -4.99,0.13 -7.94,1.01 -2.95,0.88 -5.65,2.21 -8.12,3.99 -2.71,1.96 -4.47,4.09 -5.29,6.41 -0.82,2.34 -0.58,4.4 0.72,6.21 1.16,1.61 2.49,2.59 3.97,2.92 1.49,0.34 3.43,0.01 5.84,-1 1.27,-0.54 3.02,-1.35 5.28,-2.45 2.27,-1.1 4.22,-1.97 5.88,-2.62 3.38,-1.27 6.33,-1.64 8.88,-1.12 2.55,0.52 4.82,2.17 6.84,4.96zm15.9 -55.93c2.87,0.11 5.77,0.88 8.73,2.29 2.95,1.42 5.84,3.5 8.69,6.23 2.86,2.74 5.05,5.56 6.57,8.47 1.53,2.91 2.4,5.77 2.62,8.55 0.22,2.9 -0.18,5.67 -1.21,8.33 -1.05,2.66 -2.73,5.2 -5.07,7.64 -2.28,2.38 -4.77,4.16 -7.44,5.33 -2.67,1.16 -5.43,1.7 -8.26,1.59 -2.85,-0.11 -5.73,-0.87 -8.67,-2.27 -2.94,-1.4 -5.83,-3.48 -8.7,-6.24 -2.82,-2.7 -5,-5.49 -6.53,-8.37 -1.54,-2.87 -2.43,-5.76 -2.69,-8.69 -0.25,-2.79 0.19,-5.56 1.27,-8.3 1.1,-2.75 2.77,-5.29 5.01,-7.63 2.32,-2.42 4.82,-4.21 7.49,-5.35 2.66,-1.15 5.4,-1.68 8.2,-1.59zm12.9 13.23c-4.48,-4.3 -8.88,-6.64 -13.2,-7.01 -4.32,-0.38 -8.11,1.14 -11.37,4.54 -3.3,3.43 -4.67,7.29 -4.11,11.58 0.55,4.3 3.07,8.6 7.55,12.9 4.53,4.35 8.95,6.67 13.27,6.99 4.32,0.31 8.09,-1.2 11.31,-4.56 3.22,-3.35 4.58,-7.17 4.08,-11.47 -0.5,-4.29 -3.01,-8.61 -7.54,-12.96zm54.04 -32.03l-4.47 6.26 -47.83 -6.84 34.9 24.93 -3.37 4.72 -39.02 -27.87 5.6 -7.85 43.66 6.25 -31.87 -22.76 3.38 -4.72 39.02 27.87zm25.56 -52.4l-2.71 6.08 -14.03 -1.24 -8.27 18.55 10.3 9.61 -2.57 5.76 -36.84 -35.11 3.39 -7.6 50.74 3.95zm-22.61 4.37l-24.78 -2.09 18.09 17.08 6.69 -14.99zm36.36 -47.84l-8.32 28.48 -46.03 -13.44 1.75 -6 40.58 11.85 6.56 -22.48 5.45 1.59zm6.25 -30.91l-3.41 18.19 -4.8 -0.9 1.13 -6.02 -37.53 -7.04 -1.13 6.02 -4.8 -0.9 3.41 -18.19 4.8 0.9 -1.13 6.02 37.53 7.04 1.13 -6.02 4.8 0.9zm3.89 -53.5l-1.23 36.55 -5.93 -0.2 -35.35 -30 -0.93 27.67 -5.67 -0.19 1.17 -34.74 5.74 0.19 35.53 30.33 1.01 -29.8 5.67 0.19zm-4.74 -55.46l0.78 6.61 -12.69 6.12 2.39 20.18 13.77 2.98 0.74 6.27 -49.62 -11.3 -0.98 -8.26 45.61 -22.58zm-17.18 15.33l-22.35 10.89 24.29 5.41 -1.93 -16.3zm-19.52 -62.75c4.2,-1.17 8.26,-1.34 12.16,-0.5 3.92,0.84 7.23,2.48 9.93,4.94 1.87,1.7 3.46,3.73 4.74,6.11 1.29,2.38 2.51,5.64 3.66,9.78l3.17 11.4 -46.19 12.86 -3.14 -11.28c-1.23,-4.41 -1.88,-8.01 -1.95,-10.78 -0.07,-2.78 0.21,-5.23 0.85,-7.35 1.11,-3.62 3.06,-6.74 5.85,-9.37 2.78,-2.63 6.43,-4.57 10.91,-5.81zm1.66 6.3c-3.61,1.01 -6.48,2.47 -8.62,4.39 -2.12,1.92 -3.56,4.31 -4.3,7.15 -0.54,2.07 -0.73,4.15 -0.57,6.26 0.15,2.11 0.62,4.57 1.4,7.36l1.57 5.64 35.52 -9.89 -1.57 -5.64c-0.8,-2.89 -1.72,-5.36 -2.75,-7.38 -1.03,-2.03 -2.39,-3.78 -4.06,-5.25 -2.09,-1.84 -4.48,-2.98 -7.19,-3.44 -2.71,-0.45 -5.85,-0.18 -9.42,0.81zm-1.02 -63.92l2.74 6.06 -10.25 9.67 8.38 18.51 14.03 -1.32 2.6 5.75 -50.72 4.23 -3.43 -7.58 36.65 -35.31zm-11.74 19.81l-18.01 17.14 24.78 -2.19 -6.77 -14.96zm-493.59 -73.14c1.67,1.59 2.85,3.32 3.52,5.16 0.68,1.85 0.92,3.71 0.72,5.56 -0.21,2.21 -0.82,4.27 -1.85,6.19 -1.01,1.91 -2.64,4.04 -4.86,6.37l-11.36 11.92 -33.57 -32 9.49 -9.96c2.34,-2.45 4.18,-4.2 5.52,-5.25 1.34,-1.04 2.83,-1.86 4.45,-2.43 1.83,-0.62 3.51,-0.72 5.05,-0.31 1.55,0.4 3.02,1.28 4.43,2.62 1.59,1.51 2.55,3.21 2.9,5.09 0.34,1.88 0.2,3.82 -0.41,5.83l0.18 0.17c2.63,-1.83 5.33,-2.67 8.11,-2.53 2.78,0.15 5.32,1.33 7.66,3.56zm-22.27 -6.86c-0.8,-0.76 -1.61,-1.27 -2.42,-1.53 -0.8,-0.25 -1.66,-0.25 -2.59,0.03 -1.07,0.32 -2.14,0.94 -3.2,1.86 -1.05,0.9 -2.29,2.11 -3.71,3.6l-5.07 5.32 9.6 9.16 5.5 -5.77c1.33,-1.4 2.32,-2.58 2.96,-3.54 0.66,-0.96 1.09,-2.01 1.32,-3.14 0.23,-1.13 0.13,-2.18 -0.3,-3.15 -0.43,-0.97 -1.13,-1.91 -2.1,-2.84zm17.97 11.67c-1.34,-1.28 -2.6,-2.1 -3.78,-2.44 -1.18,-0.35 -2.56,-0.26 -4.12,0.29 -1.07,0.36 -2.15,1.01 -3.24,1.93 -1.1,0.92 -2.35,2.12 -3.75,3.59l-6.68 7.01 12.42 11.84 5.63 -5.9c1.86,-1.96 3.29,-3.65 4.27,-5.09 0.98,-1.44 1.59,-2.82 1.82,-4.14 0.22,-1.39 0.14,-2.64 -0.23,-3.74 -0.37,-1.11 -1.15,-2.21 -2.34,-3.34zm49.74 -23.55l-5.18 4.07 -11.52 -7.33 -15.8 12.42 4.4 12.93 -4.9 3.86 -15.4 -46.89 6.47 -5.09 41.93 26.04zm-21.54 -6.28l-20.4 -12.85 7.64 22.88 12.77 -10.03zm-28.16 -35.88l0.53 14.44 -3.64 2.86 -2.83 -12.62 5.95 -4.68zm89.07 19.33l-6.94 3.99 -22.66 -8.24 -7.52 4.33 9.19 15.98 -5.36 3.08 -23.12 -40.2 11.27 -6.48c2.43,-1.4 4.55,-2.41 6.35,-3.03 1.8,-0.62 3.58,-0.9 5.35,-0.83 1.98,0.08 3.79,0.58 5.42,1.51 1.62,0.92 3.04,2.46 4.27,4.6 1.67,2.9 2.34,5.75 2,8.54 -0.34,2.8 -1.51,5.43 -3.49,7.88l25.23 8.88zm-29.1 -21.68c-0.66,-1.15 -1.44,-2.05 -2.36,-2.7 -0.91,-0.65 -2.02,-1.01 -3.3,-1.09 -1.08,-0.08 -2.21,0.09 -3.38,0.5 -1.19,0.4 -2.5,1.02 -3.94,1.85l-6.3 3.62 8.68 15.1 5.4 -3.11c1.7,-0.98 3.09,-1.97 4.18,-2.99 1.09,-1.02 1.84,-2.19 2.27,-3.5 0.38,-1.22 0.48,-2.43 0.3,-3.63 -0.17,-1.19 -0.69,-2.54 -1.56,-4.05zm62.25 -6.24c0.84,2.15 1.19,4.21 1.02,6.17 -0.16,1.96 -0.73,3.75 -1.68,5.35 -1.12,1.92 -2.54,3.53 -4.28,4.84 -1.72,1.31 -4.09,2.55 -7.09,3.73l-15.32 6.04 -17.01 -43.15 12.8 -5.05c3.16,-1.24 5.55,-2.05 7.22,-2.44 1.66,-0.38 3.34,-0.5 5.06,-0.33 1.92,0.2 3.49,0.82 4.71,1.84 1.24,1.01 2.21,2.43 2.92,4.24 0.8,2.04 0.96,3.99 0.49,5.84 -0.48,1.84 -1.42,3.55 -2.82,5.11l0.09 0.24c3.15,-0.56 5.96,-0.18 8.42,1.12 2.46,1.31 4.27,3.45 5.46,6.44zm-17.32 -15.58c-0.4,-1.03 -0.92,-1.83 -1.55,-2.4 -0.62,-0.56 -1.4,-0.92 -2.36,-1.06 -1.11,-0.16 -2.34,-0.05 -3.69,0.34 -1.33,0.38 -2.96,0.95 -4.88,1.71l-6.84 2.69 4.87 12.35 7.42 -2.92c1.79,-0.71 3.19,-1.36 4.17,-1.97 1,-0.6 1.83,-1.36 2.51,-2.29 0.68,-0.93 1.03,-1.93 1.05,-2.99 0.02,-1.06 -0.22,-2.21 -0.71,-3.46zm11.41 18.14c-0.68,-1.72 -1.48,-3 -2.4,-3.81 -0.93,-0.81 -2.21,-1.31 -3.86,-1.47 -1.12,-0.12 -2.37,0.01 -3.74,0.39 -1.38,0.37 -3.02,0.94 -4.91,1.68l-9.01 3.55 6.29 15.96 7.59 -2.99c2.51,-0.99 4.52,-1.93 6.02,-2.82 1.5,-0.9 2.63,-1.89 3.38,-2.99 0.78,-1.17 1.24,-2.34 1.37,-3.5 0.12,-1.16 -0.12,-2.49 -0.72,-4.01zm55.44 0.9l-6.41 1.48 -7.31 -11.54 -19.58 4.52 -1.51 13.58 -6.08 1.4 6 -48.99 8.02 -1.85 26.87 41.39zm-16.82 -14.84l-13.01 -20.31 -2.82 23.96 15.82 -3.65zm62.36 12.23l-7.98 0.6 -16.89 -17.2 -8.65 0.66 1.4 18.39 -6.17 0.47 -3.52 -46.25 12.97 -0.99c2.8,-0.21 5.14,-0.21 7.04,0.01 1.9,0.22 3.62,0.74 5.19,1.56 1.75,0.93 3.17,2.16 4.24,3.7 1.07,1.53 1.68,3.53 1.87,5.99 0.26,3.34 -0.37,6.19 -1.87,8.57 -1.52,2.38 -3.7,4.25 -6.55,5.61l18.94 18.9zm-16.9 -32.11c-0.1,-1.33 -0.42,-2.47 -0.96,-3.46 -0.55,-0.98 -1.38,-1.78 -2.51,-2.4 -0.93,-0.54 -2.03,-0.87 -3.26,-1.01 -1.25,-0.15 -2.7,-0.16 -4.36,-0.03l-7.24 0.55 1.32 17.36 6.21 -0.47c1.95,-0.15 3.64,-0.45 5.06,-0.9 1.43,-0.45 2.61,-1.18 3.55,-2.18 0.87,-0.94 1.48,-1.99 1.84,-3.15 0.36,-1.15 0.47,-2.6 0.34,-4.32zm59.26 37.58l-6.53 -0.83 -2.87 -13.35 -19.94 -2.53 -6.12 12.21 -6.19 -0.79 22.58 -43.88 8.17 1.04 10.9 48.13zm-10.65 -19.74l-5.18 -23.55 -10.93 21.51 16.11 2.05zm67.18 35.89l-27.8 -9.41 14.86 -43.93 5.86 1.98 -13.11 38.74 21.94 7.42 -1.76 5.2zm32.93 16.17l-27.14 -13.9 21.14 -41.28 27.14 13.9 -2.5 4.88 -21.64 -11.08 -5.79 11.3 21.64 11.08 -2.5 4.89 -21.63 -11.08 -7.85 15.33 21.64 11.08 -2.5 4.88zm22.15 13.97l-15.42 -9.88 2.55 -3.98 5.1 3.27 19.93 -31.1 -5.11 -3.27 2.55 -3.97 15.41 9.88 -2.54 3.97 -5.11 -3.27 -19.93 31.1 5.1 3.27 -2.55 3.97zm60.65 -3.45l-12.54 -10.86 -26.78 30.91 -4.68 -4.05 26.77 -30.91 -12.54 -10.86 3.59 -4.14 29.75 25.77 -3.59 4.15zm-1.42 57.45l-21.04 -22.07 33.57 -32 21.04 22.08 -3.97 3.78 -16.77 -17.6 -9.19 8.76 16.77 17.6 -3.97 3.79 -16.77 -17.6 -12.47 11.88 16.77 17.6 -3.97 3.78zm-354.94 73.58c-4.88,4.46 -11.82,-2.81 -6.91,-7.29 66.82,-60.94 167.85,-55.97 147.31,-16.73 -11.15,21.29 -69.3,57.28 -93.91,75 -1.2,0.87 -2.37,1.56 -3.46,2.11l0.04 1.62c33.92,-2.32 94.52,2.72 115.37,45.31l-4.51 -146.05c-0.19,-6.22 10.07,-7 10.17,0.15 2.33,52.98 4.66,105.94 4.46,148.64l-2.72 90.97c-0,5.83 -5.48,9.82 -3.33,9.15 0.81,-0.27 43.49,-88.3 99.66,-97.97 6.58,-1.13 8.35,8.68 1.75,9.81 -36.19,6.23 -71.18,54.19 -86.62,82.59 -12.62,23.21 -21.46,19.6 -21.6,-3.59l1.03 -31.67c-16.78,39.98 -58.94,79.45 -96.86,91.54 -75.53,24.07 -112.14,-41.81 -43.61,-88.08 41.86,-28.27 85.42,-47.82 135.74,-54.28 -4.75,-15.39 -16.65,-26.92 -33.61,-35.15 -29.27,-14.21 -58.82,-12.51 -75.08,-11.39l1.55 64.49c0.16,6.54 -9.98,6.77 -10.14,0.24l-1.55 -64.29c-8.83,-0.32 -13.04,-5.83 -0.39,-16.28l-1.56 -64.96c-0.16,-6.54 9.98,-6.77 10.14,-0.24l1.39 57.71c18.15,-12.93 94.34,-60.66 90.06,-76.44 -3.14,-11.57 -74.16,-18.33 -132.81,35.1zm151.93 144.75c2.08,-8.1 2.87,-16.1 2.06,-23.75 -48.98,6.15 -91.21,25.16 -131.96,52.68 -85.97,58.04 17.65,125.41 103.78,19.6 12.36,-15.19 21.89,-32.05 26.12,-48.53zm-12.52 -475.7c233.5,0 422.79,189.29 422.79,422.79 -0.77,64.89 -15.65,135.06 -46.02,192.72 -11.76,21.58 -24.43,18.96 -13.06,-4.01 7.98,-15.54 12.08,-22.77 18.54,-39.25 18.98,-48.43 27.74,-97.51 28.07,-149.46 0,-118.77 -50.48,-225.74 -131.14,-300.66 -37.6,-32.69 -63.92,-50.72 -108.26,-72.45 -75.41,-36.96 -185.8,-48.14 -268.95,-25.39 -57.31,15.67 -101.55,34.89 -149.67,71.38l41.03 -4.25c34.82,-5.07 92.09,8.06 120.3,-12.07 13.36,-9.53 18.39,-2.62 3.3,10.03 -23.52,19.71 -34.24,24.44 -64.54,31.94 -10.96,2.71 -53.57,5.04 -65.55,3.4 -17.54,-2.41 -67.09,-0.07 -83.92,15.05 -1.62,1.45 -38.09,42.36 -38.67,49.2 16.58,-17.57 75.87,-42.58 95.64,-50.19 3.24,-1.09 32.63,-11.07 23.97,1.34 -14.15,16.96 -53.1,50.24 -73.25,59.3l-47.9 19.43 -27.78 16.44c-13.94,27.08 -24.95,55.91 -32.62,86.08l74.67 -85.99c9.79,-14.04 5.82,-20.6 17.55,-20.6 0,12 3.7,14.62 0.71,26.52 -2.15,8.55 -0.14,10.21 -5.17,22.87 -15.32,38.19 -39.08,54.9 -67,81.08 -5.84,5.47 -29.22,29.02 -31.32,36.06 -1.37,13.65 -2.08,27.49 -2.08,41.5 0,279.69 274.76,480.53 546.36,386.96 4.2,-1.44 16.01,-5.73 16.57,1.97 0.64,8.66 -26.72,14.91 -33.35,16.76 -275.7,78.5 -542.05,-126.1 -542.05,-405.69 0,-31.26 4.6,-16.03 -9.99,-40.82 -26.84,-45.62 -21.02,-89.69 -27.7,-138.35l-4.28 -28.86c-0.07,-16.63 27.86,25.17 30.45,30.14 11.13,21.38 23.03,44.25 23.31,68.69 0.02,3.76 -0.34,5.24 0.94,5.95 3.67,-14.58 0.39,-20.85 0.23,-34.05 -0.77,-62.75 5.33,-84.06 19.45,-139.94 3,-12.01 10.25,-23.88 13.13,-36.24 3.91,0 6.74,-0.69 6.74,3.37l0 86.38c0,9.76 -2.66,16.25 -3.36,24.68l13.11 -21.46c-3.77,-15.12 -1.49,-27.26 4.7,-42.62 11.81,-29.3 28.86,-59.65 38.06,-88.34 7.82,-24.39 6.29,-46.53 11.43,-70.83 9.63,0.21 7.65,10.64 9.39,17.54 5.14,21.1 7.65,74.22 0.41,97.7l-2.15 8.08c7.34,-7.35 14.98,-14.43 22.85,-21.22 0.75,-1.23 7.99,-37.59 29.28,-54.67l71.83 -51.57c28.01,-18.17 33.71,-14.08 50.74,-42.58 1.54,-2.57 6.83,-14.16 10.54,-11.08 7.09,5.88 -7.44,34.77 -11,42.23 -10.74,22.52 -34.77,41.14 -54.72,54.96 54.46,-25.57 115.26,-39.88 179.41,-39.88zm-272.21 115.79l-5.2 5.85c6.14,-0.51 14.78,-5.24 42.63,-5.61 24.49,-0.33 69.55,-0.08 92.21,-4.26l34.55 -13.68c-15.2,-3.54 -109.61,0.53 -137.68,5.91l-26.51 11.79zm-148.93 269.71c2.37,-27.04 7.09,-49.52 1.29,-78.62 -4.7,-23.59 -11.13,-45.79 -26.35,-65.95 -1.05,-1.4 -5.7,-6.88 -7.29,-7.1l5.84 64.27c3.33,27.51 5.76,46.59 17.42,71.63 2.53,5.43 4.78,11.48 9.08,15.77zm19.68 -95.58c3.02,-9.1 6.33,-18.07 9.93,-26.89l12.72 -59.92c1.07,-6.34 0.43,-55.87 0.43,-64.63 -13.56,48.16 -15.05,45.65 -20.49,88.32 -3.59,28.2 -3.07,32.74 -3.07,63.12l0.47 0zm46.64 -97.07c11.33,-17.44 23.91,-33.99 37.61,-49.53 20.31,-28.14 20.42,-91.56 12.99,-98.86 -0.87,3.57 -0.93,8.7 -1.85,12.85 -12.66,57.26 -48.99,99.78 -48.75,135.53zm530.94 613.26c16.49,9.44 22.08,-19.75 5.55,-17.74 -9.67,1.18 -11.79,12.91 -5.55,17.74zm178.79 -150.91c-3.86,-17.16 -26.51,-6.62 -18.13,7.32 4.3,7.15 18.91,6.6 18.13,-7.32zm-119.62 109.4c6.31,11.75 24.19,6.06 19.04,-7.14 -4.42,-11.34 -23.52,-7.95 -19.04,7.14zm74.08 -49.21c2.91,-16.19 -19.95,-15.76 -19.79,-2.38 0.14,11.47 15.82,14.35 19.79,2.38zm-660.83 -499.51c1.3,-11.83 67.1,-52.85 87.38,-59.57 5.06,-1.68 25.67,-11.59 28.35,-8.92 1.81,1.81 0.72,0.4 -1.56,2.91l-34.58 29.62 -55.72 26.18 -23.87 9.78zm89.75 -129.01c0,-31.17 83.88,-79.18 112.55,-96.1 5.15,-3.06 13.08,-10.38 17.57,-11.59 -5.06,21.66 -46.62,50.78 -66.23,62.77 -22.63,13.83 -40.77,21.72 -60.16,41.93 -2.97,3.1 0.07,1.6 -3.74,2.98z"/>
 </g>
</svg>
