<?xml version="1.0" encoding="UTF-8"?>
<!DOCTYPE svg PUBLIC "-//W3C//DTD SVG 1.1//EN" "http://www.w3.org/Graphics/SVG/1.1/DTD/svg11.dtd">
<!-- Creator: CorelDRAW -->
<svg xmlns="http://www.w3.org/2000/svg" xml:space="preserve" width="79.8532mm" height="32.0305mm" version="1.1" style="shape-rendering:geometricPrecision; text-rendering:geometricPrecision; image-rendering:optimizeQuality; fill-rule:evenodd; clip-rule:evenodd"
viewBox="0 0 2383.45 956.04"
 xmlns:xlink="http://www.w3.org/1999/xlink"
 xmlns:xodm="http://www.corel.com/coreldraw/odm/2003">
 <defs>
  <style type="text/css">
   <![CDATA[
    .fil4 {fill:black}
    .fil0 {fill:#066331}
    .fil3 {fill:red}
    .fil2 {fill:#FF8000}
    .fil1 {fill:#066331;fill-rule:nonzero}
   ]]>
  </style>
 </defs>
 <g id="Camada_x0020_1">
  <metadata id="CorelCorpID_0Corel-Layer"/>
  <g id="_1879466143360">
   <path class="fil0" d="M2144.71 570.87l-1698.63 0c-100.74,0 -183.16,82.42 -183.16,183.16l0 202.02 1703.29 0c98.18,0 178.5,-80.33 178.5,-178.51l0 -206.67zm-1574.38 96.73l0 21.57 -65.74 0 0 -87.74 28.8 0 0 66.17 36.94 0zm36.31 -68.93l0 20.26 -27.39 0 0 -20.26 27.39 0zm0 25.13l0 65.38 -27.39 0 0 -65.38 27.39 0zm87.14 -14.73l-0.7 17.36 -1.31 -0.06c-2.46,-0.13 -4.24,-0.2 -5.29,-0.2 -4.26,0 -6.81,0.86 -7.68,2.57 5.22,4.01 7.82,8.86 7.82,14.51 0,6.64 -2.84,11.64 -8.5,15 -5.64,3.35 -13.35,5.02 -23.06,5.02 -0.21,0 -1.41,-0.04 -3.56,-0.13 -2.01,-0.09 -3.07,-0.13 -3.16,-0.13 -4.45,0 -6.67,1.1 -6.67,3.24 0,1.91 1.97,2.92 5.9,3.05l22.45 0.9c8.19,0.35 14.21,2.47 18.03,6.42 3.82,3.95 5.74,8.53 5.74,13.81 0,6.25 -2.83,11.36 -8.52,15.3 -5.69,3.97 -16.77,5.94 -33.22,5.94 -25.36,0 -38.04,-5.46 -38.04,-16.38 0,-5.97 3.35,-10.13 10.06,-12.47 -4.38,-2.87 -6.55,-6.27 -6.55,-10.22 0,-6.42 4.45,-11.27 13.34,-14.54 -7.4,-3.02 -11.1,-8.07 -11.1,-15.13 0,-6.45 3.02,-11.47 9.04,-15.06 6.04,-3.59 14.31,-5.39 24.82,-5.39 4.8,0 9.16,0.46 13.09,1.36 1.61,-10.2 7.4,-15.3 17.4,-15.3 2.29,0 5.52,0.17 9.69,0.53zm-40.08 42.09c5.27,0 7.91,-2.61 7.91,-7.81 0,-5.33 -2.69,-7.98 -8.1,-7.98 -5.36,0 -8.05,2.7 -8.05,8.11 0,5.11 2.74,7.67 8.24,7.67zm-7 37.25c-1.01,-0.02 -2.01,-0.04 -3.02,-0.04 -4.71,0 -7.07,1.34 -7.07,4.04 0,2.48 1.8,4.08 5.38,4.78 3.61,0.73 8.38,1.07 14.37,1.07 5.69,0 9.34,-0.44 10.96,-1.34 1.62,-0.9 2.44,-2.13 2.44,-3.68 0,-1.12 -0.38,-2.04 -1.1,-2.78 -0.73,-0.75 -2.46,-1.16 -5.22,-1.3l-16.74 -0.75zm88.43 2.08c-11.57,0 -20.74,-3.38 -27.56,-10.11 -6.81,-6.75 -10.23,-14.67 -10.23,-23.74 0,-9.76 3.56,-17.89 10.68,-24.4 7.09,-6.51 16.34,-9.76 27.74,-9.76 11.47,0 20.7,3.2 27.67,9.63 6.98,6.42 10.46,14.47 10.46,24.16 0,9.76 -3.54,17.89 -10.6,24.43 -7.07,6.53 -16.44,9.8 -28.17,9.8zm0.42 -15.52c4.22,0 6.81,-2.06 7.73,-6.21 0.94,-4.12 1.4,-8.44 1.4,-12.94 0,-6.14 -0.65,-10.55 -1.96,-13.24 -1.33,-2.7 -3.68,-4.06 -7.09,-4.06 -3.14,0 -5.43,1.41 -6.88,4.19 -1.45,2.79 -2.18,7.37 -2.18,13.75 0,7.5 0.75,12.45 2.24,14.86 1.5,2.43 3.75,3.64 6.74,3.64zm116.76 -51.17l0 65.38 -25.28 0 0 -10.74c-3.7,8.05 -10.93,12.06 -21.71,12.06 -6.62,0 -11.75,-1.73 -15.4,-5.17 -3.63,-3.44 -5.45,-8.38 -5.45,-14.8l0 -46.72 27.39 0 0 41.13c0,2.59 0.38,4.38 1.12,5.44 0.78,1.05 2.25,1.58 4.45,1.58 2.34,0 4.24,-0.79 5.71,-2.35 1.47,-1.56 2.2,-3.77 2.2,-6.6l0 -39.2 26.97 0zm39.55 42.1l0 21.44 -15.03 24.34 -10.77 0 10.77 -22.5 -11.1 0 0 -23.28 26.13 0zm75.97 43.94l-27.39 0 0 -86.03 25.15 0 0 9.27c3.53,-7.06 10.09,-10.59 19.71,-10.59 8.34,0 14.84,3.03 19.57,9.08 4.71,6.07 7.07,14.32 7.07,24.77 0,10.43 -2.41,18.75 -7.23,24.91 -4.82,6.16 -11.19,9.25 -19.11,9.25 -7.77,0 -13.7,-2.78 -17.77,-8.35l0 27.69zm0 -44.57c0,2.92 0.7,5.18 2.13,6.78 1.41,1.6 3.16,2.41 5.27,2.41 3.28,0 5.52,-1.43 6.77,-4.27 1.24,-2.85 1.85,-7.24 1.85,-13.14 0,-6.82 -0.7,-11.6 -2.13,-14.36 -1.41,-2.76 -3.54,-4.15 -6.35,-4.15 -1.71,0 -3.37,0.61 -5.03,1.86 -1.66,1.25 -2.51,3.27 -2.51,6.1l0 18.77zm101.21 0.38l25.42 1.6c-1.5,6.44 -5.36,11.92 -11.57,16.46 -6.18,4.54 -14.56,6.8 -25.12,6.8 -11.75,0 -21.12,-3.18 -28.12,-9.54 -7,-6.35 -10.49,-14.25 -10.49,-23.65 0,-9.78 3.44,-18.02 10.35,-24.73 6.91,-6.73 16.13,-10.09 27.65,-10.09 11.14,0 20.16,3.16 27.04,9.49 6.88,6.34 10.32,14.95 10.32,25.85 0,0.9 -0.02,2.15 -0.07,3.73l-46.64 0c0.09,4.14 0.87,7.21 2.34,9.23 1.45,2 4.24,3.01 8.36,3.01 5.97,0 9.46,-2.72 10.51,-8.15zm-1.97 -16.97c-0.04,-4.36 -0.98,-7.3 -2.81,-8.79 -1.83,-1.51 -4.1,-2.26 -6.81,-2.26 -6.41,0 -9.62,3.68 -9.62,11.05l19.25 0zm106.27 40.52l-25.71 0 0 -8.68c-3.78,6.67 -10.03,10 -18.75,10 -8.03,0 -14.54,-2.94 -19.55,-8.81 -4.99,-5.9 -7.49,-14.45 -7.49,-25.65 0,-10.48 2.5,-18.81 7.54,-24.97 5.01,-6.16 11.66,-9.23 19.92,-9.23 6.91,0 12.6,2.46 17.08,7.39l0 -27.78 26.96 0 0 87.74zm-26.96 -41.98c0,-5.86 -2.57,-8.79 -7.72,-8.79 -3.59,0 -5.94,1.87 -7.06,5.59 -1.1,3.73 -1.66,8.29 -1.66,13.68 0,10.57 2.86,15.85 8.59,15.85 2.18,0 4.02,-0.83 5.56,-2.5 1.51,-1.66 2.29,-4.23 2.29,-7.65l0 -16.18zm68.72 -48.52l0 20.26 -27.38 0 0 -20.26 27.38 0zm0 25.13l0 65.38 -27.38 0 0 -65.38 27.38 0zm82.24 0l0 65.38 -25.3 0 0 -10.74c-3.7,8.05 -10.92,12.06 -21.69,12.06 -6.64,0 -11.76,-1.73 -15.42,-5.17 -3.61,-3.44 -5.45,-8.38 -5.45,-14.8l0 -46.72 27.4 0 0 41.13c0,2.59 0.37,4.38 1.13,5.44 0.76,1.05 2.25,1.58 4.43,1.58 2.36,0 4.24,-0.79 5.73,-2.35 1.47,-1.56 2.18,-3.77 2.18,-6.6l0 -39.2 26.99 0zm39.53 42.1l0 21.44 -15.03 24.34 -10.77 0 10.77 -22.5 -11.09 0 0 -23.28 26.12 0zm90.72 -3.16l23.33 1.87c-1.1,7.65 -4.52,13.88 -10.25,18.68 -5.78,4.8 -13.39,7.21 -22.9,7.21 -10.66,0 -19.31,-3.13 -25.97,-9.41 -6.66,-6.27 -9.99,-14.32 -9.99,-24.12 0,-10.02 3.29,-18.26 9.92,-24.75 6.62,-6.49 15.23,-9.74 25.8,-9.74 9.38,0 17.02,2.46 22.94,7.37 5.9,4.93 9.3,11.14 10.16,18.65l-24.02 1.87c-1.02,-6.93 -3.81,-10.39 -8.39,-10.39 -2.94,0 -5.1,1.25 -6.42,3.75 -1.36,2.5 -2.03,6.84 -2.03,13.04 0,5.32 0.67,9.29 2.03,11.86 1.36,2.56 3.7,3.84 7.05,3.84 4.91,0 7.83,-3.24 8.74,-9.74zm101.61 26.44l-27.38 0 0 -39.35c0,-3.6 -0.43,-6.07 -1.27,-7.43 -0.84,-1.34 -2.47,-2.02 -4.87,-2.02 -1.88,0 -3.48,0.53 -4.89,1.58 -1.38,1.05 -2.21,2.13 -2.42,3.25 -0.24,1.12 -0.35,3.44 -0.35,7.01l0 36.96 -27.4 0 0 -87.74 27.4 0 0 30.1c4.93,-6.03 11.4,-9.06 19.35,-9.06 4.02,0 7.57,0.66 10.62,1.95 3.03,1.32 5.39,3 7.03,5.04 1.64,2.06 2.75,4.06 3.33,5.99 0.56,1.93 0.84,5.66 0.84,11.18l0 42.53zm60.64 -23.54l25.43 1.6c-1.49,6.44 -5.36,11.92 -11.57,16.46 -6.18,4.54 -14.55,6.8 -25.11,6.8 -11.76,0 -21.13,-3.18 -28.13,-9.54 -6.99,-6.35 -10.49,-14.25 -10.49,-23.65 0,-9.78 3.44,-18.02 10.36,-24.73 6.9,-6.73 16.13,-10.09 27.64,-10.09 11.16,0 20.18,3.16 27.05,9.49 6.88,6.34 10.32,14.95 10.32,25.85 0,0.9 -0.02,2.15 -0.07,3.73l-46.65 0c0.11,4.14 0.87,7.21 2.36,9.23 1.45,2 4.24,3.01 8.35,3.01 5.97,0 9.47,-2.72 10.51,-8.15zm-1.97 -16.97c-0.04,-4.36 -0.97,-7.3 -2.81,-8.79 -1.82,-1.51 -4.09,-2.26 -6.81,-2.26 -6.4,0 -9.63,3.68 -9.63,11.05l19.25 0zm110.91 -39.6l-0.71 17.36 -1.3 -0.06c-2.47,-0.13 -4.24,-0.2 -5.3,-0.2 -4.26,0 -6.81,0.86 -7.68,2.57 5.21,4.01 7.83,8.86 7.83,14.51 0,6.64 -2.83,11.64 -8.5,15 -5.64,3.35 -13.36,5.02 -23.07,5.02 -0.22,0 -1.41,-0.04 -3.55,-0.13 -2.03,-0.09 -3.07,-0.13 -3.18,-0.13 -4.44,0 -6.66,1.1 -6.66,3.24 0,1.91 1.97,2.92 5.9,3.05l22.45 0.9c8.19,0.35 14.21,2.47 18.03,6.42 3.81,3.95 5.73,8.53 5.73,13.81 0,6.25 -2.83,11.36 -8.52,15.3 -5.69,3.97 -16.76,5.94 -33.24,5.94 -25.35,0 -38.04,-5.46 -38.04,-16.38 0,-5.97 3.35,-10.13 10.08,-12.47 -4.39,-2.87 -6.55,-6.27 -6.55,-10.22 0,-6.42 4.44,-11.27 13.34,-14.54 -7.4,-3.02 -11.09,-8.07 -11.09,-15.13 0,-6.45 3.01,-11.47 9.02,-15.06 6.06,-3.59 14.32,-5.39 24.82,-5.39 4.8,0 9.15,0.46 13.09,1.36 1.62,-10.2 7.4,-15.3 17.41,-15.3 2.29,0 5.52,0.17 9.69,0.53zm-40.09 42.09c5.28,0 7.92,-2.61 7.92,-7.81 0,-5.33 -2.68,-7.98 -8.09,-7.98 -5.36,0 -8.07,2.7 -8.07,8.11 0,5.11 2.75,7.67 8.24,7.67zm-6.98 37.25c-1.01,-0.02 -2.01,-0.04 -3.03,-0.04 -4.71,0 -7.07,1.34 -7.07,4.04 0,2.48 1.79,4.08 5.38,4.78 3.61,0.73 8.39,1.07 14.38,1.07 5.69,0 9.34,-0.44 10.94,-1.34 1.62,-0.9 2.44,-2.13 2.44,-3.68 0,-1.12 -0.37,-2.04 -1.1,-2.78 -0.71,-0.75 -2.47,-1.16 -5.21,-1.3l-16.74 -0.75zm88.43 2.08c-11.57,0 -20.74,-3.38 -27.55,-10.11 -6.83,-6.75 -10.25,-14.67 -10.25,-23.74 0,-9.76 3.57,-17.89 10.68,-24.4 7.09,-6.51 16.35,-9.76 27.75,-9.76 11.48,0 20.69,3.2 27.68,9.63 6.96,6.42 10.46,14.47 10.46,24.16 0,9.76 -3.55,17.89 -10.62,24.43 -7.07,6.53 -16.44,9.8 -28.16,9.8zm0.41 -15.52c4.22,0 6.81,-2.06 7.74,-6.21 0.93,-4.12 1.38,-8.44 1.38,-12.94 0,-6.14 -0.65,-10.55 -1.95,-13.24 -1.34,-2.7 -3.68,-4.06 -7.09,-4.06 -3.15,0 -5.45,1.41 -6.9,4.19 -1.45,2.79 -2.16,7.37 -2.16,13.75 0,7.5 0.73,12.45 2.23,14.86 1.51,2.43 3.76,3.64 6.75,3.64zm116.76 -51.17l0 65.38 -25.28 0 0 -10.74c-3.7,8.05 -10.92,12.06 -21.69,12.06 -6.64,0 -11.76,-1.73 -15.42,-5.17 -3.64,-3.44 -5.45,-8.38 -5.45,-14.8l0 -46.72 27.4 0 0 41.13c0,2.59 0.37,4.38 1.13,5.44 0.76,1.05 2.25,1.58 4.43,1.58 2.36,0 4.24,-0.79 5.71,-2.35 1.49,-1.56 2.21,-3.77 2.21,-6.6l0 -39.2 26.97 0zm45.74 -22.36l-7.87 58.28 -17.28 0 -7.31 -58.28 32.46 0zm-3.24 64.33l0 23.41 -26.41 0 0 -23.41 26.41 0zm-1368.37 243.66l0 -30.5 -80.13 0 0 -34.13 63.7 -87.13 76.02 0 0 88.83 18.15 0 0 32.44 -18.15 0 0 30.5 -59.59 0zm2.06 -62.93l0 -30.5 2.4 -18.15 -36.98 48.65 34.59 0zm152.73 62.93l0 -121.02 -22.6 0 0 -35.82 82.19 0 0 156.84 -59.59 0zm206.15 0l0 -30.5 -80.13 0 0 -34.13 63.7 -87.13 76.02 0 0 88.83 18.15 0 0 32.44 -18.15 0 0 30.5 -59.59 0zm2.05 -62.93l0 -30.5 2.4 -18.15 -36.98 48.65 34.58 0zm152.73 62.93l0 -121.02 -22.6 0 0 -35.82 82.19 0 0 156.84 -59.58 0zm127.04 -20.82c0,-0.16 0,-0.32 0,-0.48 0,-0.16 0,-0.32 0,-0.48 0,-0.16 0,-0.24 0,-0.24l0 0c-0.21,-0.33 -0.35,-0.57 -0.35,-0.73 0,-0.16 0,-0.32 0,-0.48 0,-5.49 2.75,-9.92 8.22,-13.31 5.49,-3.39 11.42,-5.49 17.82,-6.29 1.15,-0.16 2.23,-0.28 3.24,-0.36 1.04,-0.08 2.01,-0.12 2.92,-0.12 0.22,0 0.52,0 0.84,0 0.35,0 0.76,0 1.21,0 8.67,0.16 16.67,2.01 23.96,5.57 7.31,3.55 10.96,9.2 10.96,16.94 0,7.75 -3.31,13.6 -9.92,17.55 -6.62,3.95 -13.82,6.09 -21.58,6.41 -0.45,0 -0.84,0 -1.19,0 -0.35,0 -0.63,0 -0.87,0 -0.45,0 -0.91,0 -1.36,0 -0.45,0 -1.04,0 -1.71,0 -7.76,-0.48 -14.9,-2.7 -21.41,-6.66 -6.51,-3.95 -10.1,-9.72 -10.79,-17.31zm185.61 -11.13l25 -1.7 32.52 0 0 33.64 -151.01 0c5.02,-5.16 10.45,-10.45 16.26,-15.86 5.82,-5.41 11.7,-10.77 17.65,-16.09 14.83,-13.39 28.48,-26.54 40.91,-39.45 12.44,-12.91 18.66,-24.53 18.66,-34.86l0 -1.93c-0.24,-2.9 -1.36,-5.37 -3.42,-7.38 -2.05,-2.02 -4.35,-3.35 -6.85,-4 -0.46,-0.16 -1.04,-0.28 -1.71,-0.36 -0.69,-0.08 -1.25,-0.12 -1.73,-0.12 -0.22,0 -0.39,0 -0.5,0 -0.13,0 -0.28,0 -0.52,0 -3.2,0.32 -6.16,2.06 -8.91,5.21 -2.73,3.15 -4.11,8.11 -4.11,14.89 0,0.16 0.06,0.4 0.17,0.73 0.11,0.32 0.17,0.64 0.17,0.97 0,0.16 0.07,0.4 0.17,0.73 0.11,0.32 0.17,0.64 0.17,0.97l-57.52 0c0,-0.16 0,-0.32 0,-0.48 0,-0.16 -0.13,-0.32 -0.35,-0.48 0,-0.16 0,-0.28 0,-0.36 0,-0.08 0,-0.12 0,-0.12 0,-0.32 -0.06,-0.61 -0.17,-0.85 -0.11,-0.24 -0.17,-0.44 -0.17,-0.61 0,-15.17 5.13,-26.75 15.42,-34.73 10.27,-7.99 21.56,-13.35 33.89,-16.09 4.11,-0.97 8.28,-1.7 12.5,-2.18 4.24,-0.48 8.28,-0.73 12.15,-0.73l5.15 0c18.94,0 34.64,5.01 47.08,15.01 12.46,10.01 18.66,23.88 18.66,41.63 0,4.2 -1.82,9.28 -5.47,15.25 -3.65,5.97 -8.45,12.18 -14.38,18.64 -5.25,5.65 -11.31,11.14 -18.14,16.46 -6.86,5.32 -14.06,10.08 -21.58,14.28zm164.72 31.95l0 -30.5 -80.14 0 0 -34.13 63.71 -87.13 76.01 0 0 88.83 18.14 0 0 32.44 -18.14 0 0 30.5 -59.58 0zm2.06 -62.93l0 -30.5 2.4 -18.15 -37 48.65 34.6 0zm194.15 30.98l25 -1.7 32.55 0 0 33.64 -151.03 0c5.02,-5.16 10.44,-10.45 16.26,-15.86 5.84,-5.41 11.7,-10.77 17.65,-16.09 14.83,-13.39 28.48,-26.54 40.92,-39.45 12.46,-12.91 18.66,-24.53 18.66,-34.86l0 -1.93c-0.21,-2.9 -1.36,-5.37 -3.41,-7.38 -2.06,-2.02 -4.35,-3.35 -6.86,-4 -0.45,-0.16 -1.02,-0.28 -1.71,-0.36 -0.69,-0.08 -1.26,-0.12 -1.71,-0.12 -0.24,0 -0.41,0 -0.52,0 -0.11,0 -0.28,0 -0.52,0 -3.18,0.32 -6.16,2.06 -8.89,5.21 -2.75,3.15 -4.11,8.11 -4.11,14.89 0,0.16 0.04,0.4 0.17,0.73 0.11,0.32 0.15,0.64 0.15,0.97 0,0.16 0.07,0.4 0.17,0.73 0.13,0.32 0.17,0.64 0.17,0.97l-57.52 0c0,-0.16 0,-0.32 0,-0.48 0,-0.16 -0.11,-0.32 -0.35,-0.48 0,-0.16 0,-0.28 0,-0.36 0,-0.08 0,-0.12 0,-0.12 0,-0.32 -0.07,-0.61 -0.17,-0.85 -0.11,-0.24 -0.17,-0.44 -0.17,-0.61 0,-15.17 5.15,-26.75 15.42,-34.73 10.27,-7.99 21.56,-13.35 33.91,-16.09 4.11,-0.97 8.26,-1.7 12.5,-2.18 4.22,-0.48 8.26,-0.73 12.15,-0.73l5.13 0c18.94,0 34.64,5.01 47.1,15.01 12.43,10.01 18.66,23.88 18.66,41.63 0,4.2 -1.84,9.28 -5.49,15.25 -3.66,5.97 -8.44,12.18 -14.38,18.64 -5.26,5.65 -11.29,11.14 -18.14,16.46 -6.86,5.32 -14.03,10.08 -21.58,14.28zm159.92 -66.32c1.15,-0.16 2.23,-0.28 3.27,-0.36 1.02,-0.08 2.23,-0.12 3.59,-0.12 1.15,-0.16 2.29,-0.24 3.42,-0.24 1.15,0 2.18,0 3.09,0 16.89,0 31.51,4.8 43.83,14.4 12.32,9.6 18.49,20.7 18.49,33.28l0 4.84c-2.29,15.17 -11.24,27.15 -26.88,35.95 -15.64,8.79 -33.98,13.19 -54.97,13.19 -5.71,0 -11.59,-0.36 -17.62,-1.09 -6.06,-0.73 -12.15,-1.73 -18.32,-3.03 -4.11,-0.97 -8.24,-2.14 -12.33,-3.51 -4.13,-1.37 -8.11,-2.87 -12,-4.48l6.86 -37.03c8.22,4.2 16.09,7.26 23.64,9.2 7.52,1.94 14.25,2.9 20.2,2.9 7.98,0 14.73,-1.21 20.2,-3.63 5.47,-2.42 9.02,-5.16 10.62,-8.23 0.24,-0.49 0.45,-1.05 0.69,-1.7 0.22,-0.64 0.35,-1.21 0.35,-1.7l0 -1.7c0,-6.13 -3.55,-10.49 -10.62,-13.07 -7.09,-2.58 -15.53,-3.87 -25.35,-3.87 -2.75,0 -5.6,0.08 -8.56,0.24 -2.96,0.16 -6.05,0.4 -9.26,0.73 -3.41,0.32 -6.79,0.73 -10.1,1.21 -3.31,0.48 -6.44,0.97 -9.41,1.45l15.74 -88.59 110.27 0 0 35.34 -64.03 0 -4.8 19.61z"/>
   <path class="fil1" d="M1593.7 517.09l33.75 -159.61 39.12 0c15.94,0 28.58,3.43 37.88,10.29 9.32,6.85 13.98,18.03 13.98,33.53 0,12.67 -3.35,22.99 -10.06,30.96 -6.71,7.98 -15.06,13.67 -25.04,17.1l28.4 67.73 -36.21 0 -22.58 -61.25 -12.96 0 -12.98 61.25 -33.29 0zm52.08 -88.75l8.49 0c9.55,0 16.95,-2.09 22.25,-6.26 5.29,-4.18 7.93,-10.51 7.93,-19 0,-11.92 -7.15,-17.88 -21.45,-17.88l-8.05 0 -9.17 43.14z"/>
   <path class="fil1" d="M1710.6 517.09l83.61 -159.61 40.68 0 16.09 159.61 -32.41 0 -2.68 -38 -51.64 0 -18.79 38 -34.87 0zm67.3 -66.39l36.43 0 -2.9 -41.13c-0.3,-4.32 -0.6,-8.72 -0.9,-13.19 -0.3,-4.47 -0.38,-9.02 -0.22,-13.64l-0.46 0c-1.48,4.02 -3.12,8.01 -4.91,11.96 -1.78,3.95 -3.79,8.24 -6.03,12.86l-21.01 43.14zm22.13 -106.63l0 -2.69c3.72,-4.17 7.83,-9.42 12.3,-15.76 4.46,-6.33 8.41,-12.11 11.84,-17.33l36.67 0 0 1.79c-1.64,2.08 -4,4.62 -7.05,7.6 -3.06,2.98 -6.45,6.11 -10.17,9.39 -3.73,3.28 -7.43,6.41 -11.06,9.39 -3.65,2.98 -6.91,5.51 -9.72,7.6l-22.81 0z"/>
   <path class="fil1" d="M1870.22 517.09l33.75 -159.61 44.49 0c12.96,0 23.36,1.94 31.17,5.81 7.83,3.87 13.5,9.32 16.99,16.32 3.52,7 5.25,15.12 5.25,24.36 0,12.67 -3.06,23.17 -9.17,31.52 -6.11,8.35 -14.42,14.57 -24.92,18.67 -10.5,4.1 -22.31,6.15 -35.42,6.15l-17 0 -11.84 56.78 -33.31 0zm51.18 -84.5l13.64 0c9.98,0 18.03,-2.46 24.14,-7.38 6.11,-4.92 9.17,-11.7 9.17,-20.34 0,-13.12 -7.07,-19.67 -21.23,-19.67l-15.66 0 -10.06 47.39z"/>
   <polygon class="fil1" points="1994.29,517.09 1998.3,497.87 2018.65,488.93 2040.55,385.65 2024,376.71 2028.03,357.48 2098.66,357.48 2094.65,376.71 2073.86,385.65 2051.96,488.93 2068.93,497.87 2064.92,517.09 "/>
   <path class="fil1" d="M2092.2 517.09l33.75 -159.61 43.13 0c19.53,0 34.69,5.18 45.51,15.54 10.8,10.36 16.2,25.3 16.2,44.82 0,20.27 -3.45,37.81 -10.38,52.64 -6.95,14.83 -17.07,26.3 -30.41,34.43 -13.34,8.12 -29.53,12.18 -48.63,12.18l-49.17 0zm39.12 -27.94l11.62 0c12.22,0 22.27,-3.24 30.17,-9.72 7.89,-6.48 13.78,-15.02 17.66,-25.59 3.87,-10.58 5.81,-21.98 5.81,-34.2 0,-11.77 -2.72,-20.45 -8.15,-26.04 -5.45,-5.59 -12.94,-8.38 -22.47,-8.38l-12.52 0 -22.13 103.95z"/>
   <path class="fil1" d="M2224.29 517.09l83.61 -159.61 40.68 0 16.09 159.61 -32.41 0 -2.68 -38 -51.64 0 -18.77 38 -34.89 0zm67.3 -66.39l36.44 0 -2.91 -41.13c-0.3,-4.32 -0.6,-8.72 -0.9,-13.19 -0.3,-4.47 -0.36,-9.02 -0.22,-13.64l-0.44 0c-1.5,4.02 -3.14,8.01 -4.93,11.96 -1.78,3.95 -3.79,8.24 -6.03,12.86l-21.01 43.14z"/>
   <polygon class="fil1" points="880.19,517.09 907.9,385.65 869.46,385.65 875.5,357.49 985.71,357.49 979.66,385.65 941.21,385.65 913.5,517.09 "/>
   <path class="fil1" d="M975.64 517.09l33.75 -159.61 39.12 0c15.95,0 28.58,3.43 37.9,10.28 9.31,6.85 13.96,18.03 13.96,33.53 0,12.67 -3.35,22.99 -10.05,30.96 -6.71,7.97 -15.06,13.67 -25.04,17.1l28.38 67.73 -36.21 0 -22.59 -61.25 -12.96 0 -12.96 61.25 -33.31 0zm52.08 -88.75l8.51 0c9.52,0 16.93,-2.09 22.22,-6.26 5.29,-4.17 7.95,-10.51 7.95,-19 0,-11.92 -7.15,-17.88 -21.47,-17.88l-8.05 0 -9.17 43.14z"/>
   <path class="fil1" d="M1178.61 519.33c-19.37,0 -34.09,-5.55 -44.15,-16.65 -10.04,-11.1 -15.08,-25.82 -15.08,-44.15 0,-12.52 1.68,-24.89 5.03,-37.11 3.35,-12.22 8.49,-23.33 15.42,-33.31 6.93,-9.98 15.69,-18 26.26,-24.03 10.58,-6.04 23.18,-9.05 37.78,-9.05 19.37,0 33.95,5.44 43.71,16.32 9.75,10.88 14.64,25.33 14.64,43.37 0,12.97 -1.64,25.67 -4.91,38.12 -3.3,12.44 -8.31,23.7 -15.1,33.75 -6.79,10.06 -15.42,18.03 -25.94,23.92 -10.5,5.89 -23.05,8.83 -37.66,8.83zm2.46 -28.39c8.65,0 16.55,-3.1 23.7,-9.28 7.15,-6.18 12.86,-14.94 17.09,-26.27 4.25,-11.32 6.37,-24.59 6.37,-39.79 0,-9.83 -2.26,-17.7 -6.81,-23.58 -4.55,-5.89 -11.28,-8.83 -20.23,-8.83 -6.85,0 -13.22,1.98 -19.11,5.92 -5.89,3.95 -10.96,9.43 -15.2,16.43 -4.25,7 -7.57,15.01 -9.96,24.03 -2.38,9.01 -3.58,18.67 -3.58,28.95 0,10.58 2.46,18.63 7.39,24.14 4.91,5.52 11.7,8.27 20.33,8.27z"/>
   <path class="fil1" d="M1341.12 519.33c-19.37,0 -33.97,-5.66 -43.81,-16.99 -9.82,-11.33 -14.74,-26.53 -14.74,-45.6 0,-9.39 1.08,-18.89 3.24,-28.5 2.16,-9.61 5.43,-18.78 9.82,-27.5 4.41,-8.72 9.97,-16.54 16.66,-23.47 6.71,-6.93 14.68,-12.37 23.92,-16.32 9.25,-3.95 19.83,-5.92 31.75,-5.92 10.12,0 18.73,0.93 25.82,2.79 7.07,1.86 14.12,4.73 21.13,8.61l-12.98 27.27c-5.05,-2.98 -10.32,-5.48 -15.76,-7.49 -5.43,-2.01 -11.5,-3.02 -18.21,-3.02 -8.95,0 -16.66,2.24 -23.14,6.71 -6.47,4.47 -11.8,10.28 -15.97,17.43 -4.18,7.15 -7.27,14.94 -9.29,23.36 -2.02,8.42 -3.02,16.51 -3.02,24.25 0,12.07 2.5,21.09 7.49,27.05 4.99,5.96 12.92,8.94 23.8,8.94 5.97,0 12.08,-0.78 18.33,-2.35 6.27,-1.56 12.44,-3.61 18.55,-6.15l0 28.39c-4.47,1.79 -10.42,3.65 -17.87,5.59 -7.45,1.94 -16.01,2.91 -25.72,2.91z"/>
   <path class="fil1" d="M1392.54 517.09l83.61 -159.61 40.68 0 16.1 159.61 -32.41 0 -2.67 -38 -51.64 0 -18.79 38 -34.87 0zm67.3 -66.39l36.42 0 -2.9 -41.13c-0.3,-4.32 -0.6,-8.72 -0.9,-13.19 -0.3,-4.47 -0.38,-9.01 -0.22,-13.63l-0.46 0c-1.48,4.02 -3.11,8.01 -4.91,11.96 -1.8,3.95 -3.8,8.24 -6.03,12.86l-21.01 43.14z"/>
   <path class="fil1" d="M906.36 286.38l56.9 -269.04 78.38 0c25.62,0 46.22,4.65 61.79,13.94 15.57,9.29 23.36,24.62 23.36,45.97 0,18.34 -5.15,33.41 -15.45,45.22 -10.3,11.8 -24.74,19.72 -43.33,23.74l0 1.51c12.31,3.27 22.11,9.23 29.39,17.9 7.29,8.67 10.93,19.66 10.93,32.97 0,20.35 -4.65,36.99 -13.94,49.93 -9.29,12.94 -21.98,22.48 -38.06,28.64 -16.08,6.15 -34.04,9.23 -53.88,9.23l-96.09 0zm90.44 -162.41l27.51 0c13.31,0 24.05,-2.7 32.22,-8.1 8.16,-5.4 12.24,-14.26 12.24,-26.56 0,-16.83 -10.43,-25.25 -31.27,-25.25l-27.88 0 -12.81 59.91zm-24.49 115.3l33.16 0c13.82,0 24.93,-3.45 33.35,-10.36 8.41,-6.91 12.62,-16.89 12.62,-29.96 0,-9.55 -2.76,-16.89 -8.29,-22.04 -5.53,-5.15 -13.94,-7.73 -25.25,-7.73l-30.52 0 -15.07 70.09zm232.49 50.87c-10.05,0 -19.47,-2.45 -28.26,-7.35 -8.79,-4.9 -15.95,-12.81 -21.48,-23.74 -5.52,-10.93 -8.29,-25.43 -8.29,-43.52 0,-16.83 2.26,-33.41 6.78,-49.74 4.52,-16.33 10.93,-31.21 19.22,-44.65 8.29,-13.44 18.28,-24.18 29.96,-32.22 11.68,-8.04 24.81,-12.06 39.38,-12.06 13.06,0 23.68,2.76 31.84,8.29 8.17,5.52 14.51,12.81 19.03,21.85l1.51 0 10.55 -26.38 42.58 0 -43.71 205.74 -41.45 0 2.64 -26.75 -1.51 0c-7.29,9.04 -15.64,16.39 -25.06,22.04 -9.42,5.65 -20.66,8.48 -33.73,8.48zm21.85 -44.84c7.54,0 14.57,-3.02 21.1,-9.05 6.53,-6.03 12.12,-13.75 16.77,-23.17 4.65,-9.42 7.98,-19.53 9.99,-30.33 1.76,-9.05 2.64,-19.34 2.64,-30.9 0,-8.79 -2.26,-16.01 -6.78,-21.66 -4.52,-5.65 -10.8,-8.48 -18.84,-8.48 -6.78,0 -13.12,2.7 -19.03,8.1 -5.9,5.4 -11.05,12.5 -15.45,21.29 -4.4,8.79 -7.85,18.59 -10.36,29.39 -2.51,10.8 -3.77,21.6 -3.77,32.41 0,21.6 7.92,32.41 23.74,32.41z"/>
   <path class="fil1" d="M1429.37 290.14c-16.08,0 -29.02,-3.45 -38.81,-10.36 -9.8,-6.91 -14.69,-19.28 -14.69,-37.12 0,-6.28 0.75,-13.19 2.26,-20.72l21.1 -99.1 -27.88 0 5.28 -27.13 36.17 -15.45 24.12 -43.33 35.8 0 -9.05 43.71 52 0 -9.04 42.2 -52 0 -21.1 99.1c-0.76,3.77 -1.13,7.04 -1.13,9.8 0,4.77 1.51,8.23 4.52,10.36 3.01,2.13 6.91,3.21 11.68,3.21 5.02,0 9.86,-0.57 14.51,-1.7 4.64,-1.13 9.73,-2.7 15.26,-4.71l0 41.45c-5.78,2.76 -12.87,5.09 -21.29,6.97 -8.41,1.88 -17.65,2.83 -27.69,2.83z"/>
   <path class="fil1" d="M1606.48 290.14c-24.11,0 -43.7,-6.53 -58.78,-19.59 -15.08,-13.06 -22.62,-33.04 -22.62,-59.91 0,-17.34 2.45,-33.98 7.35,-49.93 4.9,-15.95 12.18,-30.21 21.87,-42.77 9.66,-12.56 21.65,-22.55 35.98,-29.96 14.32,-7.41 30.88,-11.12 49.74,-11.12 22.86,0 40.05,5.28 51.62,15.83 11.55,10.55 17.32,23.99 17.32,40.32 0,21.6 -9.73,38.94 -29.19,52 -19.46,13.06 -49.17,19.6 -89.12,19.6l-9.43 0c-0.24,1.51 -0.37,2.82 -0.37,3.95 0,1.13 0,2.33 0,3.58 0,11.05 3.13,19.84 9.43,26.38 6.27,6.53 15.31,9.8 27.12,9.8 10.81,0 20.61,-1.19 29.39,-3.58 8.8,-2.39 19.23,-6.47 31.29,-12.25l0 41.83c-10.81,5.27 -21.8,9.23 -32.98,11.87 -11.18,2.64 -24.05,3.96 -38.62,3.96zm-19.23 -122.84l8.3 0c21.34,0 36.72,-3.33 46.15,-9.98 9.43,-6.66 14.12,-14.38 14.12,-23.17 0,-11.55 -6.4,-17.33 -19.2,-17.33 -7.03,0 -13.89,2.13 -20.54,6.41 -6.66,4.27 -12.56,10.18 -17.71,17.71 -5.15,7.54 -8.84,16.33 -11.12,26.38z"/>
   <path class="fil1" d="M1725.18 286.38l43.7 -205.74 42.19 0 -3.76 38.06 1.88 0c8.3,-13.06 17.71,-23.3 28.27,-30.71 10.55,-7.41 22.49,-11.12 35.79,-11.12 3.03,0 6.23,0.19 9.62,0.57 3.4,0.38 6.08,0.82 8.09,1.32l-12.05 53.51c-2.01,-0.76 -4.65,-1.44 -7.91,-2.07 -3.27,-0.63 -6.79,-0.94 -10.55,-0.94 -13.82,0 -26.19,5.46 -37.11,16.39 -10.94,10.93 -18.66,27.19 -23.18,48.8l-19.59 91.94 -55.38 0z"/>
   <path class="fil1" d="M1964.07 55.01c-7.78,0 -14.38,-1.7 -19.79,-5.09 -5.41,-3.39 -8.11,-9.23 -8.11,-17.52 0,-10.55 2.96,-18.59 8.86,-24.12 5.9,-5.53 14.12,-8.29 24.68,-8.29 7.29,0 13.69,1.63 19.23,4.9 5.51,3.27 8.28,9.05 8.28,17.34 0,9.8 -2.7,17.71 -8.11,23.74 -5.38,6.03 -13.75,9.04 -25.04,9.04zm-80.27 231.36l43.73 -205.74 55.38 0 -43.7 205.74 -55.4 0z"/>
   <path class="fil1" d="M2063.55 290.14c-10.05,0 -19.46,-2.45 -28.26,-7.35 -8.8,-4.9 -15.96,-12.81 -21.47,-23.74 -5.54,-10.93 -8.3,-25.43 -8.3,-43.52 0,-16.83 2.27,-33.41 6.79,-49.74 4.52,-16.33 10.92,-31.21 19.22,-44.65 8.28,-13.44 18.28,-24.18 29.95,-32.22 11.68,-8.04 24.8,-12.06 39.38,-12.06 13.06,0 23.68,2.76 31.83,8.29 8.18,5.52 14.51,12.81 19.03,21.85l1.51 0 10.55 -26.38 42.58 0 -43.72 205.74 -41.43 0 2.64 -26.75 -1.51 0c-7.29,9.04 -15.63,16.39 -25.06,22.04 -9.41,5.65 -20.65,8.48 -33.72,8.48zm21.84 -44.84c7.55,0 14.57,-3.02 21.11,-9.05 6.53,-6.03 12.13,-13.75 16.78,-23.17 4.63,-9.42 7.96,-19.53 9.97,-30.33 1.77,-9.05 2.64,-19.34 2.64,-30.9 0,-8.79 -2.25,-16.01 -6.77,-21.66 -4.52,-5.65 -10.81,-8.48 -18.86,-8.48 -6.77,0 -13.13,2.7 -19.03,8.1 -5.9,5.4 -11.05,12.5 -15.44,21.29 -4.39,8.79 -7.85,18.59 -10.36,29.39 -2.51,10.8 -3.76,21.6 -3.76,32.41 0,21.6 7.92,32.41 23.72,32.41zm193.31 44.84c-13.3,0 -24.8,-0.94 -34.47,-2.83 -9.67,-1.88 -18.77,-4.96 -27.31,-9.23l0 -45.59c9.28,5.27 18.84,9.36 28.63,12.25 9.8,2.89 19.85,4.33 30.14,4.33 8.78,0 16.57,-1.82 23.36,-5.47 6.79,-3.64 10.19,-9.23 10.19,-16.77 0,-5.02 -2.01,-9.55 -6.04,-13.56 -4.02,-4.02 -12.3,-9.55 -24.87,-16.58 -12.82,-7.03 -22.68,-14.57 -29.58,-22.61 -6.92,-8.04 -10.36,-18.59 -10.36,-31.65 0,-21.35 6.9,-37.61 20.72,-48.8 13.82,-11.18 33.04,-16.77 57.65,-16.77 11.81,0 23.25,1.32 34.3,3.96 11.05,2.64 21.84,7.1 32.39,13.38l-18.08 39.56c-7.29,-4.27 -15.01,-7.91 -23.18,-10.93 -8.15,-3.01 -16.26,-4.52 -24.31,-4.52 -6.01,0 -11.42,1.44 -16.2,4.33 -4.78,2.89 -7.16,7.22 -7.16,13 0,5.02 2.01,9.29 6.03,12.81 4.02,3.52 11.31,8.04 21.84,13.57 12.33,6.53 22.56,14.07 30.71,22.61 8.18,8.54 12.26,19.85 12.26,33.91 0,23.61 -7.85,41.45 -23.55,53.51 -15.7,12.06 -36.74,18.08 -63.13,18.08z"/>
   <path class="fil2" d="M148.05 87.99l161.74 0c0.85,0 1.69,0.09 2.49,0.25l0 0c12.11,-16.15 24.22,-32.29 36.33,-48.44 30.81,0.36 61.52,-0.27 92.33,0.09 13.29,0.11 19.62,8.76 10.92,20.13 -6.38,9.15 -12.76,18.29 -19.14,27.44 9.75,0.12 19.49,0.24 29.24,0.36 -36.7,54.94 -73.4,109.87 -110.11,164.8 40.73,-0.18 81.47,-0.36 122.2,-0.54l-150.36 226.36 -194.07 1.12c-7.05,0.04 -12.82,-5.77 -12.82,-12.82l0 0c0,-7.05 5.77,-12.82 12.82,-12.82l26.56 0c33.37,-5.24 34.99,-47.69 -0.36,-48.78l-0.07 -0.1 -83.29 0c-7.38,0 -13.42,-6.04 -13.42,-13.42l0 0c0,-7.38 6.04,-13.42 13.42,-13.42l73.43 0c25.89,-10.1 21.64,-39.5 0,-45.52l-19.01 0c-7.72,0 -14.04,-6.32 -14.04,-14.04l0 0c0,-7.72 6.32,-14.04 14.04,-14.04l65.31 0c19.95,-10.31 18.62,-37.69 0,-45.66l-71.41 0c-8.15,0 -14.81,-6.66 -14.81,-14.81l0 0c0,-8.15 6.66,-14.81 14.81,-14.81l55.16 0c28.1,-9.86 15.94,-40.96 -0.36,-40.96l-75.8 0c-8.14,0 -14.81,-6.67 -14.81,-14.81l0 0c0,-8.14 6.67,-14.81 14.81,-14.81l89.87 0c19.59,-4.07 22.87,-42.56 -2.71,-45.49l-38.92 0c-6.95,0 -12.63,-5.69 -12.63,-12.63l0 0c0,-6.95 5.69,-12.64 12.63,-12.64zm-118.87 290.88l0 0c7.35,0 13.37,6.02 13.37,13.37l0 0.1c0,7.35 -6.01,13.37 -13.37,13.37l-0 0c-7.35,0 -13.37,-6.01 -13.37,-13.37l0 -0.1c0,-7.35 6.01,-13.37 13.37,-13.37zm8.41 -144.27l12.73 0c6.95,0 12.63,5.69 12.63,12.63l0 0c0,6.95 -5.69,12.63 -12.63,12.63l-12.73 0c-6.95,0 -12.63,-5.68 -12.63,-12.63l0 0c0,-6.95 5.69,-12.63 12.63,-12.63z"/>
   <path class="fil3" d="M339.25 478.62l289.17 0.72c72.32,-106.26 144.65,-212.52 216.97,-318.78 17.33,-36.53 9.02,-68.53 -36.46,-71.84 -8.3,0 -16.61,0 -24.91,0 6.38,-9.99 12.75,-19.98 19.13,-29.96 7.38,-12.99 1.17,-17.94 -12.64,-18.41 -30.08,-0.12 -60.17,-0.24 -90.25,-0.36 -11.92,16.13 -23.83,32.25 -35.74,48.38l-123.1 -1.08 -72.57 105.42c42.36,0.36 84.72,0.72 127.08,1.08l-256.68 284.84z"/>
   <path class="fil4" d="M411.8 374.27l148.92 -165.26c-30.69,-0.26 -61.38,-0.52 -92.07,-0.78l-29.67 -0.25 94.14 -136.75 123.44 1.08c10.32,-13.97 20.65,-27.94 30.97,-41.91l4.75 -6.43 7.99 0.03c30.08,0.12 60.17,0.24 90.25,0.36l0.24 0 0.24 0.01c10.69,0.36 21.99,3.14 27.85,13.04 5.58,9.44 3.04,19.96 -2.05,28.9l-0.2 0.36 -0.21 0.34c-1.27,1.99 -2.55,3.99 -3.82,5.98 53.97,5.18 69.14,47.48 47.01,94.1l-0.52 1.1 -0.69 1.01c-72.32,106.26 -144.65,212.52 -216.97,318.78l-4.7 6.91 -304.51 -0.76 -0.04 0.07 -202.46 1.17c-15.79,0.09 -28.67,-12.8 -28.67,-28.58 0,-15.75 12.83,-28.58 28.58,-28.58l25.15 0c12.89,-2.72 16.94,-16.77 0.56,-17.28l-3.04 -0.09 -79.85 0c-8.42,0 -16.02,-3.59 -21.35,-9.32 -5.34,6.12 -13.2,10 -21.94,10 -16.05,0 -29.13,-13.08 -29.13,-29.13l0 -0.1c0,-16.05 13.08,-29.13 29.13,-29.13 8.41,0 16,3.59 21.33,9.32 5.35,-6.12 13.22,-10 21.96,-10l70.04 0c3.18,-1.72 6.05,-4.47 5.4,-8.34 -0.45,-2.67 -2.31,-4.59 -4.65,-5.66l-16.37 0c-16.42,0 -29.8,-13.37 -29.8,-29.8 0,-16.42 13.38,-29.8 29.8,-29.8l60.56 0c4.18,-3.94 4.81,-10.69 0.65,-14.14l-67.3 0c-16.84,0 -30.57,-13.73 -30.57,-30.57 0,-16.84 13.72,-30.57 30.57,-30.57l52.13 0c2.04,-0.97 4.04,-2.46 4.06,-4.73 0.01,-1.34 -0.84,-3.82 -2.03,-4.71l-75.16 0c-16.84,0 -30.57,-13.72 -30.57,-30.56 0,-16.84 13.72,-30.57 30.57,-30.57l87.22 0c2.14,-2.04 4.94,-12.6 -1.23,-13.97l-37.74 0c-15.65,0 -28.39,-12.75 -28.39,-28.39 0,-15.65 12.75,-28.4 28.39,-28.4l156.53 0c10.48,-13.96 20.95,-27.92 31.42,-41.89l4.8 -6.4 8 0.1c30.77,0.36 61.54,-0.24 92.31,0.09 26.27,0.29 39.72,23.58 23.5,45.16 -0.65,0.93 -1.29,1.85 -1.93,2.78l28.53 0.36 -16.14 24.15c-31.21,46.72 -62.42,93.44 -93.64,140.16 30.85,-0.14 61.71,-0.27 92.56,-0.41l29.55 -0.13 -91.69 138.04zm-254.45 27.92c37.55,2.35 35.8,49.06 -0.73,54.79l-0.24 0.04 -26.79 0c-5.36,0 -9.76,4.4 -9.76,9.76 0,5.35 4.38,9.79 9.75,9.76l192.44 -1.11 146.29 -220.23c-38.82,0.17 -77.65,0.34 -116.48,0.52l-5.75 0.03 3.19 -4.78c35.66,-53.38 71.32,-106.75 106.98,-160.12 -7.87,-0.1 -15.74,-0.19 -23.61,-0.29l-5.77 -0.07 3.3 -4.73c6.38,-9.15 12.75,-18.29 19.14,-27.44l0.04 -0.05 0.04 -0.05c7.11,-9.29 2.25,-15.1 -8.53,-15.21 -30.26,-0.33 -60.52,0.25 -90.78,-0.07 -11.8,15.73 -23.6,31.47 -35.41,47.2l-1.16 1.55 -1.89 -0.39c-0.62,-0.13 -1.26,-0.19 -1.89,-0.19l-161.73 0c-5.26,0 -9.58,4.32 -9.58,9.58 0,5.26 4.32,9.58 9.58,9.58l39.09 0 0.17 0.02c28.9,3.3 26.06,46.72 2.98,51.51l-0.3 0.07 -90.19 0c-6.46,0 -11.75,5.3 -11.75,11.75 0,6.46 5.29,11.75 11.75,11.75l75.8 0c1.2,0 2.39,0.14 3.55,0.4 9.32,2.1 15.66,11.66 16.54,20.78 1.23,12.77 -7.25,21.7 -18.72,25.72l-0.49 0.17 -55.68 0c-6.46,0 -11.75,5.29 -11.75,11.75 0,6.46 5.29,11.75 11.75,11.75l72.03 0 0.58 0.24c6.84,2.93 12,8.39 14.57,15.36 2.34,6.35 2.32,13.42 0,19.78 -2.58,7.07 -7.71,12.6 -14.37,16.05l-0.66 0.34 -66.06 0c-6.03,0 -10.98,4.95 -10.98,10.98 0,6.04 4.95,10.98 10.98,10.98l19.43 0 0.4 0.11c10.13,2.82 17.99,10.76 19.75,21.26 0.99,5.93 -0.18,11.98 -3.27,17.13 -3.68,6.14 -9.6,10.35 -16.19,12.92l-0.53 0.21 -74.01 0c-5.69,0 -10.36,4.67 -10.36,10.36 0,5.69 4.67,10.36 10.36,10.36l84.8 0 0.13 0.17zm-128.22 -20.21c-5.67,0 -10.31,4.64 -10.31,10.31l0 0.1c0,5.67 4.65,10.31 10.31,10.31 5.67,0 10.31,-4.64 10.31,-10.31l0 -0.1c0,-5.67 -4.65,-10.31 -10.31,-10.31zm8.41 -144.27c-5.26,0 -9.58,4.32 -9.58,9.58 0,5.26 4.32,9.58 9.58,9.58l12.73 0c5.26,0 9.58,-4.32 9.58,-9.58 0,-5.27 -4.32,-9.58 -9.58,-9.58l-12.73 0zm309.99 236.98l278.87 0.7c71.9,-105.63 143.8,-211.27 215.7,-316.9 6.59,-13.97 11.87,-33.12 3.91,-47.59 -7.3,-13.27 -23.18,-17.63 -37.27,-18.68 -8.26,0 -16.51,0 -24.77,0l-6.79 0 3.66 -5.72c6.36,-9.96 12.72,-19.92 19.08,-29.88 1.2,-2.13 3.6,-6.87 2.17,-9.29 -1.71,-2.9 -8.86,-3.39 -11.63,-3.49 -29.45,-0.12 -58.91,-0.24 -88.37,-0.35 -11.54,15.62 -23.08,31.24 -34.62,46.86l-1.13 1.53 -123.03 -1.08 -67.48 98.02c40.03,0.34 80.05,0.68 120.08,1.02l8.26 0.07 -256.64 284.79zm-309.99 -255.8l12.73 0c15.65,0 28.39,12.75 28.39,28.4 0,15.65 -12.75,28.39 -28.39,28.39l-12.73 0c-15.65,0 -28.39,-12.75 -28.39,-28.39 0,-15.65 12.75,-28.4 28.39,-28.4z"/>
  </g>
 </g>
</svg>
