<?xml version="1.0" encoding="UTF-8"?>
<!DOCTYPE svg PUBLIC "-//W3C//DTD SVG 1.1//EN" "http://www.w3.org/Graphics/SVG/1.1/DTD/svg11.dtd">
<!-- Creator: CorelDRAW -->
<svg xmlns="http://www.w3.org/2000/svg" xml:space="preserve" width="160mm" height="100mm" version="1.1" style="shape-rendering:geometricPrecision; text-rendering:geometricPrecision; image-rendering:optimizeQuality; fill-rule:evenodd; clip-rule:evenodd"
viewBox="0 0 2530.69 1581.68"
 xmlns:xlink="http://www.w3.org/1999/xlink"
 xmlns:xodm="http://www.corel.com/coreldraw/odm/2003">
 <defs>
  <style type="text/css">
   <![CDATA[
    .str0 {stroke:#373435;stroke-width:3.16;stroke-miterlimit:22.9256}
    .fil2 {fill:#002775}
    .fil4 {fill:#009B3A}
    .fil0 {fill:#059338}
    .fil7 {fill:#FAFBFC}
    .fil1 {fill:#FDDF00}
    .fil6 {fill:#FDFDFD}
    .fil5 {fill:#FEFEFE}
    .fil3 {fill:white}
   ]]>
  </style>
 </defs>
 <g id="Camada_x0020_1">
  <metadata id="CorelCorpID_0Corel-Layer"/>
  <g id="_2221519789232">
   <rect class="fil0" x="-0" y="0" width="2530.69" height="1581.68"/>
   <polygon class="fil1" points="327.7,790.84 1265.36,1389.26 2203.03,790.84 1265.37,192.45 "/>
   <rect class="fil2 str0" x="872.52" y="395.45" width="785.37" height="790.77" rx="389.88" ry="395.38"/>
   <path class="fil3" d="M1636.54 856.25c-6.89,22.69 -40.57,15.81 -33.67,-7.49 7.03,-23.74 40.9,-16.28 33.67,7.49zm-73.76 -37.37c1.67,0.67 5.55,3.6 6.92,4.83 -3.17,8.43 10.61,14.8 13.14,11 1.42,-5.45 -6.69,-11.45 -9.12,-14.95 -1.63,-2.36 -3.96,-5.21 -3.38,-9.26 0.48,-3.36 3.06,-5.94 5.61,-7.09 8.14,-3.65 29.96,9.02 21.72,22.29 -1.85,-1.04 -4.49,-2.85 -6.33,-4.52 1.01,-5.84 -0.78,-7.54 -4.81,-10.05 -4.57,-2.85 -10.36,-0.71 -6.49,4.68 4.31,6 13.64,12.28 11.7,20.01 -4.32,17.22 -38.02,-0.56 -28.96,-16.93l0 0zm-40.45 -26.18c2.43,0.85 4.85,2.85 6.96,4.22 -2.49,7.23 8.06,13.37 12.67,11.25 6,-4.46 -12.01,-14.92 -12.73,-22.69 -0.58,-6.28 6.27,-16.06 22.78,-4.69 5.12,3.53 8.95,8.29 5.65,16.72 -2.65,-1.05 -4.27,-2.77 -6.83,-3.77 0.23,-6.6 -0.82,-7.59 -5.59,-10.33 -5.28,-3.04 -9.82,0.91 -5.91,5.3 3.27,3.67 14.08,11.49 12.59,19.2 -1.83,9.5 -11.94,9.02 -20.59,4.26 -4.38,-2.41 -15.28,-11.65 -9,-19.47zm-30.8 -31.17l18.4 10.88 -2.92 5.17 -18.5 -10.28 -4.84 8.03c2.29,2.46 19.04,10.46 23.57,13.84l-3.2 5.79 -29.45 -16.4 17.68 -31.49c0.45,-0.61 0.55,-0.7 0.91,-1.08l27.7 15.53 -3.16 6 -22.72 -12.58 -3.47 6.59 0 -0zm-27.34 -6.19c0.77,5.97 -1.26,11.47 -3.88,15.64 -1.74,-0.89 -4.03,-1.92 -5.51,-2.95 2.04,-3.58 3.59,-8.34 3.09,-13.43 -1.83,-1.83 -10.5,-5.91 -13.48,-6.89l-6.37 12.07 -6.08 -2.86 17.01 -33.34c3.44,1.02 21.1,10.01 22.62,11.56 4.81,4.88 5.6,17.94 -7.39,20.21l0 -0zm-47.55 -19.8c-1.49,-1.3 -3.16,-1.76 -5.05,-2.37l2.02 -5.12 13.04 5.44c-0.6,2.22 -6.69,16.12 -7.82,17.24l-4.43 -1.89 1.65 -4.41c-22.59,4.65 -26.48,-17.46 -17.97,-28.44 10.31,-13.32 30.98,-8.65 30.22,11.22 -11.56,-3.79 -5.16,-5.3 -10.38,-9.79 -4.76,-4.08 -11.28,-1.24 -13.88,2.15 -9.43,12.31 4.03,25.25 12.61,15.97zm-33.79 -25.57c-3.86,25.16 -37.18,21.24 -34.02,-2.73 1.19,-9.04 8.95,-17.58 18.86,-17.17 9.58,0.4 16.75,9.61 15.17,19.9zm-53.16 -10.86c1.4,5.83 1.02,10.4 -1.4,16.04l-5.85 -1.75c0.61,-4.94 2.97,-8.82 0.68,-14.13l-14.47 -4.93 -4.09 13.27 -6.54 -1.92c0.62,-3.37 10.76,-33.94 11.93,-35.58 4.8,0.91 22.07,6.49 24.67,8.67 2.62,2.2 4.81,7.35 3.37,12.25 -1.33,4.49 -4.23,6.51 -8.31,8.08zm-68.18 -42.03c5.8,0.96 12.93,3.16 18.74,4.72 17.92,4.8 11.46,23.23 -0.06,23.79 -4.73,0.23 -13.24,-3.07 -18.25,-3.98l-3.77 13.32 -6.54 -1.62 9.87 -36.23 -0 0zm-340.45 -18.59c10.73,-3.39 18.91,5.46 20.92,13.52 2.73,10.96 -3.51,20.48 -11.7,22.73 -21.06,5.8 -31.31,-29.26 -9.21,-36.25zm85.43 30.37c-0.42,-5.3 -1.36,-34.45 -0.29,-37.66 15.71,-0.07 33.48,-4.09 33.79,18.71 0.3,21.88 -18.65,18.86 -33.5,18.95zm174.04 10.47c-0.51,-2.9 4.34,-28.65 5.37,-33.47l27.14 4.61 -1.29 6.33 -20.75 -3.4 -0.56 5.78 17.04 2.96 -0.9 6.31 -17.62 -2.67 -1.3 8.22 21.19 3.62 -0.88 6.37 -27.45 -4.66zm-223.96 -45.11c6.74,-0.37 22.56,-2.92 27.72,-0.12 8.03,4.34 8.44,14.29 1.55,19.97 3.51,4.77 4.26,7.87 4.71,15.59l-6.38 0.26c-0.79,-6.82 -1.34,-8.96 -4.2,-13.56l-15.27 1.3 0.89 13.74 -6.62 0.21c-1.32,-3.76 -2.16,-31.17 -2.4,-37.38zm145.83 36.28c-0.97,-5.35 2.45,-29.96 2.86,-37.58l9.52 0.9c0.69,4.85 3.62,22.54 5.4,25.68l9.45 -24.49 9.44 0.95 -3.42 37.31 -5.91 -0.39c-0.98,-5.77 1.94,-17.9 1.49,-24.73l-9.14 24.01 -5.89 -0.47c-1.62,-4.32 -3.15,-16.21 -4.46,-21.59 -0.08,-0.32 -0.35,-1.23 -0.45,-1.49 -0.84,-2.23 -0.12,-0.51 -0.74,-1.47l-2.03 23.84 -6.11 -0.49zm-46.87 -39.73l32.18 1.31 -0.12 6.81 -25.86 -0.88 -0.04 7.15c3.85,1.39 16.32,0.97 21.35,1.09l-0.44 6.46 -21.36 -0.74 -0.06 9.67 27.08 0.95 -0.12 6.98 -33.89 -1.24 1.3 -37.57zm-151.96 0.16c-3.84,6.89 -8.65,20.54 -11.51,28.81 -3.27,9.47 -7.52,21.56 -9.55,31.72 8.79,-0.97 17.96,-3.01 26.96,-4.23 30.83,-4.16 54.55,-6.75 86.36,-8.32 112.46,-5.56 225.18,10.72 329.11,45.2 63.95,21.22 119.75,47.96 172.57,78.43 17,9.81 36.17,22.01 52.39,33.25 1.09,0.75 1.38,0.95 2.45,1.7 27.8,19.55 67.04,48.66 90.25,71.2 3.91,-6.88 13.9,-52.22 14.26,-62.7l-34.07 -27.17c-27.78,-20.8 -42.63,-31.15 -73.06,-50.66 -12.69,-8.13 -25.52,-15.56 -38.78,-23.07 -146.84,-83.08 -320.23,-127.75 -492.49,-123.49 -31.74,0.79 -56.42,2.51 -87.39,5.85 -9.04,0.97 -18.54,2.71 -27.51,3.45l0 0z"/>
   <path class="fil4" d="M1102.41 670.51l6.11 0.49 2.03 -23.84c0.62,0.96 -0.1,-0.76 0.74,1.47 0.1,0.26 0.37,1.17 0.45,1.49 1.31,5.38 2.84,17.26 4.46,21.59l5.89 0.47 9.14 -24.01c0.45,6.84 -2.47,18.96 -1.49,24.73l5.91 0.39 3.42 -37.31 -9.44 -0.95 -9.45 24.49c-1.78,-3.15 -4.71,-20.84 -5.4,-25.68l-9.52 -0.9c-0.4,7.62 -3.83,32.24 -2.86,37.58z"/>
   <path class="fil4" d="M963.75 641c2.89,-0.93 8.62,-0.89 11.93,-1.1 4.27,-0.28 7.43,0.38 7.44,4.68 0.01,4.56 -3.81,4.84 -7.7,5.09 -3.02,0.19 -8.58,1.01 -11.29,0.42l-0.38 -9.09 0 0zm-7.17 -6.77c0.24,6.21 1.09,33.62 2.4,37.38l6.62 -0.21 -0.89 -13.74 15.27 -1.3c2.86,4.59 3.41,6.74 4.2,13.56l6.38 -0.26c-0.45,-7.72 -1.2,-10.82 -4.71,-15.59 6.9,-5.68 6.49,-15.63 -1.55,-19.97 -5.17,-2.79 -20.98,-0.25 -27.72,0.12z"/>
   <path class="fil4" d="M1313.71 678.64c3.08,0.48 7.06,2.08 10.26,3.06 3.78,1.16 7.67,1.91 6.85,6.76 -1.28,7.59 -14.02,0.75 -19.95,-0.61l2.84 -9.21zm15.98 20.47c4.07,-1.57 6.98,-3.59 8.3,-8.08 1.45,-4.9 -0.75,-10.05 -3.37,-12.25 -2.6,-2.18 -19.86,-7.76 -24.67,-8.67 -1.17,1.64 -11.31,32.21 -11.93,35.58l6.54 1.92 4.09 -13.27 14.47 4.93c2.29,5.31 -0.08,9.19 -0.68,14.13l5.85 1.75c2.41,-5.65 2.79,-10.22 1.4,-16.04z"/>
   <path class="fil4" d="M1054.24 668.34l33.89 1.24 0.12 -6.98 -27.08 -0.95 0.06 -9.67 21.36 0.74 0.44 -6.46c-5.03,-0.12 -17.5,0.29 -21.35,-1.09l0.04 -7.15 25.86 0.88 0.12 -6.81 -32.18 -1.31 -1.3 37.57z"/>
   <path class="fil4" d="M1451.6 732.64c2.52,0.76 7.36,3.55 9.91,4.81 2.83,1.4 7.86,3.11 5.37,8.02 -2.24,4.41 -6.89,1.94 -10.11,0.33 -2.54,-1.27 -7.48,-3.12 -9.18,-4.95l4.02 -8.22zm12.6 22.7c12.99,-2.28 12.2,-15.33 7.39,-20.21 -1.52,-1.54 -19.19,-10.53 -22.62,-11.56l-17.01 33.34 6.08 2.86 6.37 -12.07c2.98,0.98 11.66,5.06 13.48,6.89 0.51,5.09 -1.04,9.85 -3.09,13.43 1.48,1.03 3.77,2.06 5.51,2.95 2.62,-4.17 4.65,-9.67 3.88,-15.64l0 0z"/>
   <path class="fil4" d="M1495.01 754.94l22.72 12.58 3.16 -6 -27.7 -15.53c-0.36,0.38 -0.46,0.47 -0.91,1.08l-17.68 31.49 29.45 16.4 3.2 -5.79c-4.53,-3.38 -21.28,-11.38 -23.57,-13.84l4.84 -8.03 18.5 10.28 2.92 -5.17 -18.4 -10.87 3.47 -6.6 0 0z"/>
   <path class="fil4" d="M1012.97 638.1c11.3,-0.24 20.54,-1.18 20.59,11.82 0.04,11.92 -9.07,12.57 -20.3,11.72l-0.29 -23.54zm-6.47 30.77c14.85,-0.09 33.8,2.93 33.5,-18.95 -0.31,-22.8 -18.08,-18.78 -33.79,-18.71 -1.06,3.21 -0.13,32.36 0.29,37.66z"/>
   <path class="fil4" d="M1522.34 792.7c-6.29,7.82 4.62,17.06 9,19.47 8.65,4.75 18.77,5.24 20.6,-4.26 1.48,-7.71 -9.32,-15.52 -12.59,-19.2 -3.91,-4.39 0.63,-8.34 5.91,-5.3 4.76,2.74 5.82,3.73 5.59,10.33 2.55,0.99 4.18,2.71 6.83,3.77 3.31,-8.43 -0.53,-13.2 -5.65,-16.72 -16.51,-11.37 -23.36,-1.59 -22.78,4.69 0.72,7.77 18.73,18.23 12.73,22.69 -4.61,2.12 -15.17,-4.02 -12.67,-11.25 -2.11,-1.37 -4.53,-3.37 -6.96,-4.22z"/>
   <path class="fil4" d="M1562.78 818.88c-9.06,16.37 24.64,34.15 28.96,16.93 1.94,-7.73 -7.39,-14.01 -11.7,-20.02 -3.87,-5.39 1.93,-7.53 6.49,-4.68 4.03,2.52 5.81,4.21 4.81,10.05 1.83,1.67 4.48,3.48 6.33,4.52 8.23,-13.27 -13.58,-25.94 -21.72,-22.29 -2.54,1.14 -5.13,3.72 -5.61,7.09 -0.58,4.05 1.75,6.91 3.38,9.26 2.43,3.51 10.54,9.5 9.12,14.95 -2.53,3.8 -16.31,-2.57 -13.14,-11 -1.37,-1.23 -5.24,-4.15 -6.92,-4.82l0 -0z"/>
   <path class="fil4" d="M1416.65 735.54c-8.58,9.28 -22.03,-3.66 -12.61,-15.97 2.6,-3.4 9.13,-6.23 13.88,-2.15 5.22,4.48 -1.18,5.99 10.38,9.79 0.75,-19.86 -19.91,-24.53 -30.22,-11.22 -8.5,10.98 -4.62,33.09 17.97,28.44l-1.65 4.41 4.43 1.89c1.13,-1.13 7.22,-15.02 7.82,-17.24l-13.04 -5.44 -2.02 5.12c1.89,0.61 3.57,1.08 5.06,2.37z"/>
   <path class="fil4" d="M1266.04 665.47c3.15,0.41 7.73,1.88 10.83,2.64 3.61,0.89 7.7,1.99 6.75,6.57 -1.42,6.85 -14.37,1.7 -19.89,-0.03l2.32 -9.19zm-14.39 27.84l6.54 1.62 3.77 -13.32c5.01,0.91 13.52,4.21 18.25,3.98 11.51,-0.56 17.97,-18.99 0.06,-23.79 -5.82,-1.56 -12.94,-3.76 -18.74,-4.72l-9.87 36.23 0 0z"/>
   <path class="fil4" d="M1630.26 852.68c-3.12,14.79 -23.81,13.74 -20.96,-1.05 0.97,-5.06 5.77,-9.97 11.2,-10.45 6.73,-0.58 11.15,4.92 9.77,11.5zm6.28 3.57c7.23,-23.77 -26.64,-31.24 -33.67,-7.49 -6.9,23.3 26.78,30.18 33.67,7.49z"/>
   <path class="fil4" d="M1364.98 697.41c6.35,-1.62 10.89,3.48 11.04,9.59 0.15,5.97 -3.88,11.58 -8.6,12.84 -13.7,3.66 -16.44,-18.87 -2.44,-22.44zm17.88 12.56c1.58,-10.29 -5.59,-19.5 -15.17,-19.9 -9.91,-0.41 -17.66,8.12 -18.86,17.17 -3.16,23.97 30.16,27.89 34.02,2.73z"/>
   <path class="fil4" d="M923.56 645.07c12.53,-2.92 16.93,19.82 4.77,22.97 -12.91,3.35 -18.23,-19.84 -4.77,-22.97zm-2.49 -6.58c-22.1,6.99 -11.84,42.05 9.21,36.25 8.19,-2.25 14.43,-11.77 11.7,-22.73 -2,-8.06 -10.19,-16.91 -20.92,-13.52z"/>
   <path class="fil4" d="M1180.53 679.33l27.45 4.66 0.88 -6.37 -21.19 -3.62 1.3 -8.22 17.62 2.67 0.9 -6.31 -17.04 -2.96 0.56 -5.78 20.75 3.4 1.29 -6.33 -27.14 -4.61c-1.02,4.82 -5.88,30.56 -5.37,33.47z"/>
   <path class="fil5" d="M1013.26 661.64c11.23,0.85 20.34,0.2 20.3,-11.72 -0.05,-13 -9.29,-12.06 -20.59,-11.82l0.29 23.54z"/>
   <path class="fil5" d="M1630.26 852.68c1.39,-6.58 -3.04,-12.08 -9.77,-11.5 -5.43,0.47 -10.22,5.39 -11.2,10.45 -2.84,14.8 17.84,15.84 20.96,1.05z"/>
   <path class="fil5" d="M923.56 645.07c-13.46,3.13 -8.14,26.32 4.77,22.97 12.16,-3.15 7.76,-25.89 -4.77,-22.97z"/>
   <path class="fil5" d="M1364.98 697.41c-14,3.57 -11.26,26.1 2.44,22.44 4.73,-1.27 8.75,-6.87 8.6,-12.84 -0.15,-6.11 -4.69,-11.21 -11.04,-9.59z"/>
   <path class="fil5" d="M938.62 714.53l-11.79 0.07c2.81,2.94 6.63,4.66 9.31,7.35l-3.51 11.14c2.84,-1.16 6.58,-4.76 9.71,-6.53 3.66,1.86 6.65,5.18 9.9,6.57l-3.56 -11.2 6.93 -5.19c0.43,-0.33 0.61,-0.45 1.03,-0.8l1.41 -1.33 -11.62 -0.07 -3.9 -11.23 -3.89 11.23 0 -0z"/>
   <path class="fil5" d="M1527.71 925.13c0.09,0.09 0.22,0.23 0.32,0.33 2.5,2.42 5.42,3.52 8.27,6.36l-3.62 11.12c2.56,-0.94 6.71,-4.82 9.88,-6.58 2.59,1.54 7.96,5.97 9.79,6.52l-3.44 -11.11c2.86,-2.99 6.77,-4.47 9.11,-7.36l-11.56 0.02 -4.11 -11.09 -3.75 11.02 -11.52 0.08 0.63 0.69z"/>
   <path class="fil5" d="M1249.76 963.16c1.64,1.88 2.77,2.3 4.75,3.81 1.89,1.44 2.82,2.01 4.6,3.5l-3.48 11.15c3.24,-1.4 6.27,-4.87 9.71,-6.54 3.22,1.45 6.54,5.12 9.79,6.5l-3.38 -11.16c1.6,-1.34 3.04,-2.51 4.74,-3.7 2.02,-1.41 2.99,-1.8 4.46,-3.58l-11.7 0 -4.12 -11.09 -3.66 11.04 -11.72 0.08 0 -0z"/>
   <path class="fil5" d="M1090.82 995.44c2.54,2.61 6.21,4.25 9.5,7.17l-3.44 11.29c3.41,-1.56 6.29,-4.83 9.63,-6.52 3.29,1.54 6.67,5.29 9.83,6.42l-3.5 -11.56c2.23,-1.09 7.34,-4.79 9.51,-6.7 -14.78,-0.39 -10.92,2.14 -14.64,-8.46 -0.36,-1.02 -0.1,-0.4 -0.51,-1.32 -0.52,-1.15 -0.47,-0.91 -0.69,-1.22 -1.41,2.56 -2.24,7.09 -3.07,8.96 -1.22,2.72 0.68,1.94 -12.62,1.95z"/>
   <path class="fil5" d="M1384.23 662.92l-11.87 0.06c2.83,2.65 6.37,4.98 9.45,7.12l-3.59 11.35c3.67,-1.68 6.29,-4.65 9.67,-6.54 3.77,1.67 6.24,4.83 9.96,6.61l-3.67 -11.62c2.16,-1.16 7.84,-5.08 9.62,-6.75l-11.95 -0.21 -3.68 -11.35 -3.94 11.34z"/>
   <path class="fil5" d="M961.61 880.89c2.58,1.9 6.68,5.53 9.69,6.77l-3.76 11.78c3.38,-1.98 6.58,-4.97 9.88,-6.7 3.31,1.86 6.01,4.53 9.69,6.52l-3.41 -11.69c2.94,-1.2 7.55,-5.73 9.49,-6.72l-11.01 -0.03c-2.47,-0.61 -2.64,-7.65 -4.76,-10.95 -0.85,1.29 -1.49,3.69 -2.11,5.68 -2.09,6.69 0.59,5.27 -13.71,5.34z"/>
   <path class="fil5" d="M1261.18 849.94l-8.86 -0.03c2.02,2.7 5.55,3.73 7.71,6.34l-2.85 9.22c2.51,-1.56 5.65,-4.3 8.17,-5.53 2.49,1.14 5.68,4.03 8.07,5.56l-2.96 -9.81c2.11,-1.06 6.91,-4.33 7.92,-5.81 -13.75,0.11 -8.49,1.11 -12.42,-7.87 -0.62,-1.43 0.09,-0.17 -0.6,-1.12 -0.79,1.21 -1.3,3.15 -1.76,4.68 -1.6,5.37 -0.96,3.64 -2.4,4.37z"/>
   <path class="fil5" d="M1450.34 1043.07c1.27,1.3 6.08,4.92 8.01,5.76l-2.97 9.8 8.07 -5.55c2.82,1.49 5.27,4.11 8.03,5.22l-2.79 -9.56c1.78,-0.79 6.51,-4.35 7.82,-5.69l-9.95 -0.1 -3.1 -8.9c-0.78,1.17 -1.24,2.99 -1.78,4.74 -1.64,5.34 -0.71,4.31 -11.33,4.27z"/>
   <path class="fil5" d="M1298.03 885.48c1.32,1.38 6.07,4.83 7.97,5.72l-3.05 9.71c3.17,-1.6 5.08,-4.05 8.2,-5.44 2.51,1.33 5.98,4.62 8.06,5.34l-2.87 -9.69c2.26,-1.05 5.92,-3.79 7.83,-5.64l-9.94 -0.11 -3.31 -8.99 -2.88 8.95 -10.02 0.16z"/>
   <path class="fil5" d="M916.27 917.3c1.53,2.34 5.66,3.84 7.43,6.16l-2.77 9.19c3.23,-1.85 5.1,-4.23 8.45,-5.58 1.31,1.4 5.7,4.41 7.7,5.48l-2.81 -9.11c2.13,-2.79 5.64,-3.38 7.4,-6.22l-9.46 0.07 -3.02 -9.45c-1.64,2.38 -2.07,6.65 -3.74,9.36l-9.18 0.1z"/>
   <path class="fil5" d="M1545.69 960.41c2.01,2.08 5.42,3.59 7.77,5.9l-2.96 9.34c2.99,-1.33 5.06,-3.85 8.13,-5.42 3.29,1.68 5.13,3.86 8.24,5.47l-2.93 -9.74c2.57,-1.48 5.49,-3.56 7.78,-5.68l-9.89 -0.2 -3.35 -8.85 -2.95 8.96 -9.83 0.23z"/>
   <path class="fil5" d="M1054.53 927.15l-2.81 9.23c2.65,-1.39 5.3,-3.98 8.01,-5.51 2.58,1.55 5.57,4.28 8.19,5.52l-2.94 -9.47c2.48,-1.78 5.66,-3.66 7.77,-5.92l-9.8 -0.01 -3.31 -9.37 -3.1 9.37 -9.76 0.04 7.74 6.14z"/>
   <path class="fil5" d="M1111.42 802.63l-9.71 0c2.39,2.37 5.23,3.98 7.69,5.84l-2.93 9.59c2.69,-1.26 5.6,-4.02 8.25,-5.55 2.63,1.34 4.85,3.85 7.88,5.45l-2.7 -9.09c1.25,-1.28 2.15,-1.84 3.57,-2.86 0.91,-0.65 1.29,-0.93 2.03,-1.5l2.09 -1.86 -9.7 -0.04 -3.13 -9.35 -3.34 9.38z"/>
   <path class="fil5" d="M1521.36 992.05c2.5,1.88 5.01,4.25 8.05,5.49l-2.98 9.8c3.37,-1.59 5,-4.21 8.68,-5.45 1.32,1.64 5.46,4.27 7.5,5.5l-2.86 -9.03c1.88,-2.45 6.25,-4.22 7.73,-6.42 -13.79,0.05 -8.61,1.3 -13.12,-9.4l-2.94 9.44 -10.07 0.08z"/>
   <path class="fil5" d="M1371.07 1052.77c0.65,0.91 0.23,0.43 0.97,1.19l2.79 2.07c1.7,1.14 2.27,1.43 3.69,3.01l-2.9 9.28c2.7,-1.37 5.34,-4.02 8.12,-5.56 2.62,1.22 5.55,3.99 8.19,5.52l-2.83 -9.26c2.27,-2.46 4.12,-2.84 6.68,-5.43l-8.8 -0.87 -3.41 -9.06 -3.19 9.12 -9.31 0.01z"/>
   <path class="fil5" d="M1263.72 674.66c5.52,1.72 18.47,6.87 19.89,0.03 0.95,-4.58 -3.14,-5.68 -6.75,-6.57 -3.1,-0.76 -7.67,-2.23 -10.83,-2.64l-2.32 9.19z"/>
   <path class="fil5" d="M1310.88 687.85c5.93,1.36 18.66,8.2 19.95,0.61 0.82,-4.85 -3.06,-5.6 -6.85,-6.76 -3.2,-0.98 -7.18,-2.57 -10.26,-3.06l-2.84 9.21z"/>
   <path class="fil5" d="M963.75 641l0.38 9.09c2.71,0.59 8.27,-0.23 11.29,-0.42 3.89,-0.25 7.71,-0.53 7.7,-5.09 -0.01,-4.3 -3.17,-4.96 -7.44,-4.68 -3.3,0.21 -9.04,0.18 -11.93,1.1l-0 0z"/>
   <path class="fil5" d="M1447.58 740.86c1.7,1.83 6.64,3.67 9.18,4.95 3.22,1.61 7.87,4.08 10.11,-0.33 2.5,-4.91 -2.53,-6.62 -5.37,-8.02 -2.55,-1.26 -7.39,-4.06 -9.91,-4.81l-4.02 8.22z"/>
   <path class="fil5" d="M1466.09 1010.26c1.82,-2.34 4.56,-2.95 6.04,-5.09 -7.87,0.14 -7.72,0.81 -9.02,-3.52 -0.44,-1.49 -0.72,-2.67 -1.41,-3.81l-2.71 7.38 -7.22 -0.01c0.88,1.29 0.06,0.25 1.05,1.25 1.66,1.68 2.38,1.32 4.77,3.83l-2.16 7.03c2.36,-0.92 4,-2.74 6.23,-4.02 2.54,0.93 4.09,2.94 6.63,4.17l-2.19 -7.2z"/>
   <path class="fil5" d="M1037.58 961.07c1.04,1.26 4.41,3.71 6.24,4.46l-2.31 7.77c2.05,-0.91 4.08,-2.79 6.1,-4.08 2.73,0.82 4.19,2.99 6.74,4.07l-2.18 -7.82c1.64,-0.7 5.08,-3.12 6.06,-4.4 -12.4,0.22 -5.67,0.28 -10.48,-7.35l-2.22 7.43 -7.94 -0.08z"/>
   <path class="fil5" d="M1407.33 1018.66c1.29,1.6 4.14,3.6 6.28,4.61l-2.41 7.76c2.27,-1.22 4.02,-2.82 6.44,-4.3 2.68,1.4 4.23,3.24 6.55,4.24l-2.34 -6.71c0.92,-1.73 1.1,-1.62 3.13,-3.1 1.45,-1.07 1.78,-1.15 3.1,-2.4 -5.38,-0.08 -7.18,0.65 -8.38,-1.64 -0.59,-1.12 -0.75,-3.78 -2.24,-5.6l-2.19 7.14 -7.93 0.01z"/>
   <path class="fil5" d="M1587.11 929.97c1.88,1.84 4.16,2.92 6.11,4.82l-2.26 7.48c1.3,-0.62 4.97,-3.36 6.23,-4.42 1.76,0.72 5.04,3.24 6.69,4.3l-2.23 -7.37c1.88,-1.54 4.28,-2.95 6.16,-4.78l-7.87 -0.29 -2.54 -7.26 -2.51 7.44 -7.77 0.08z"/>
   <path class="fil5" d="M1215.44 886.4c1.25,1.88 3.78,3.05 5.94,4.54l-2.31 7.67c2.43,-1.19 4.09,-3.11 6.43,-4.24 2.07,0.81 4.17,2.92 6.56,4.22l-2.23 -7.27c1.33,-1.64 3.02,-2.2 4.86,-3.94l0.64 -0.68c0.05,-0.21 0.21,-0.23 0.31,-0.36l-7.52 -0.09 -2.73 -6.99 -2.58 7.02 -7.36 0.1z"/>
   <path class="fil5" d="M1342.23 1009.17c1.39,1.43 4.14,3.09 6.08,4.7l-2.1 7.33c2.47,-1.39 3.97,-2.66 5.97,-4.29 2.44,0.98 4.12,2.8 6.73,4.17l-2 -7.26c1.76,-1.83 4.12,-3.07 5.96,-4.8l-7.76 -0.05 -2.66 -7.43 -2.51 7.41 -7.72 0.22z"/>
   <path class="fil5" d="M1370.43 767.38l-7.55 0.11c1.83,2.21 4.35,3.14 5.82,4.93l-2.26 7.29c2.64,-1.28 4.16,-3.17 6.58,-4.21 2.42,1.09 3.94,3.01 6.42,4.22l-2.23 -7.27c1.94,-2.13 3.42,-2.14 5.93,-4.94l-7.47 -0.08 -2.48 -7.06 -2.77 7.02z"/>
   <path class="fil5" d="M1452.77 1083.85c1.34,1.9 3.72,3.06 5.96,4.52l-2.31 7.67c2.47,-1.15 4.04,-3.07 6.42,-4.23 2.19,0.87 4,2.89 6.57,4.21l-2.23 -7.29c0.93,-1.09 1.48,-1.44 2.79,-2.36l3.04 -2.57 -7.58 -0.1 -2.77 -7.02 -2.48 7.06 -7.43 0.1z"/>
   <path class="fil5" d="M1492.27 1012.91c1.43,1.18 4.76,3.75 6.36,4.47l-2.38 7.72c2.36,-1.27 3.97,-3.12 6.45,-4.28 2.57,1.47 4.09,2.92 6.5,4.26l-2.3 -7.71c1.69,-0.96 4.74,-3.13 6.24,-4.57l-7.94 -0.15 -2.71 -7.08 -2.19 7.14 -8.03 0.21z"/>
   <path class="fil6" d="M1238.13 914.72c1.16,1.28 2.4,1.94 4.23,3.43l-1.43 5.28c2.05,-1.09 2.59,-2.13 5.05,-2.95 1.01,1.2 2.69,2.36 3.97,2.92l-1.47 -5.6c1.69,-0.82 3.06,-1.64 4.24,-3.08 -5.55,0.05 -5.58,0.99 -7.04,-5.12 -3.37,4.77 1.05,5.21 -7.55,5.12l0 0z"/>
   <path class="fil6" d="M1014.47 859.36l-5.59 -0.04c1.22,1.5 2.61,2.21 4.23,3.19l-1.66 5.84c1.32,-1.16 3.19,-2.51 4.64,-3.18l4.58 2.95 -1.58 -5.39c1.49,-1.02 3.41,-2.12 4.3,-3.43l-5.57 0.06 -1.43 -5.13c-1.19,1.38 -1.52,3.12 -1.93,5.12z"/>
   <path class="fil7" d="M1262.31 1104.32c1.51,-0.68 1.68,-1.07 3.04,-1.75 1.34,0.63 1.6,1.06 3.1,1.74l-0.91 -3.87c1.33,-0.61 1.82,-1.28 2.85,-1.95l-3.84 -0.1 -1.43 -3.19 -0.89 3.22c-1.93,0.03 -2.44,-0.17 -3.81,0.59l2.82 1.41 -0.93 3.91z"/>
  </g>
 </g>
</svg>
