<?xml version="1.0" encoding="UTF-8"?>
<!DOCTYPE svg PUBLIC "-//W3C//DTD SVG 1.1//EN" "http://www.w3.org/Graphics/SVG/1.1/DTD/svg11.dtd">
<!-- Creator: CorelDRAW -->
<svg xmlns="http://www.w3.org/2000/svg" xml:space="preserve" width="70.5374mm" height="62.821mm" version="1.1" style="shape-rendering:geometricPrecision; text-rendering:geometricPrecision; image-rendering:optimizeQuality; fill-rule:evenodd; clip-rule:evenodd"
viewBox="0 0 243.49 216.86"
 xmlns:xlink="http://www.w3.org/1999/xlink"
 xmlns:xodm="http://www.corel.com/coreldraw/odm/2003">
 <defs>
  <style type="text/css">
   <![CDATA[
    .fil1 {fill:#FEFEFE}
    .fil2 {fill:#DFDEDE}
    .fil3 {fill:#C9C6C6}
    .fil4 {fill:#B2B0B1}
    .fil5 {fill:#9F9E9E}
    .fil6 {fill:#8D8C8C}
    .fil7 {fill:#7D7D7E}
    .fil8 {fill:#0095FF}
    .fil9 {fill:white}
    .fil11 {fill:#00A7D3;fill-rule:nonzero}
    .fil0 {fill:white;fill-rule:nonzero}
    .fil10 {fill:url(#id2)}
    .fil12 {fill:url(#id3);fill-rule:nonzero}
   ]]>
  </style>
     <mask id="id0">
  <linearGradient id="id1" gradientUnits="userSpaceOnUse" x1="154.69" y1="90.94" x2="155.88" y2="106.38">
   <stop offset="0" style="stop-opacity:0; stop-color:white"/>
   <stop offset="0.458824" style="stop-opacity:0.447059; stop-color:white"/>
   <stop offset="1" style="stop-opacity:0.0666667; stop-color:white"/>
  </linearGradient>
      <rect style="fill:url(#id1)" x="25.41" y="77.08" width="218.08" height="50.9"/>
     </mask>
  <linearGradient id="id2" gradientUnits="userSpaceOnUse" x1="50.39" y1="68.1" x2="240.5" y2="41.99">
   <stop offset="0" style="stop-opacity:1; stop-color:white"/>
   <stop offset="0.101961" style="stop-opacity:1; stop-color:#999999"/>
   <stop offset="0.141176" style="stop-opacity:1; stop-color:#FEFEFE"/>
   <stop offset="0.329412" style="stop-opacity:1; stop-color:#FEFEFE"/>
   <stop offset="0.509804" style="stop-opacity:1; stop-color:#FEFEFE"/>
   <stop offset="0.568627" style="stop-opacity:1; stop-color:#999999"/>
   <stop offset="0.639216" style="stop-opacity:1; stop-color:#FEFEFE"/>
   <stop offset="0.8" style="stop-opacity:1; stop-color:#FEFEFE"/>
   <stop offset="1" style="stop-opacity:1; stop-color:#FEFEFE"/>
  </linearGradient>
  <linearGradient id="id3" gradientUnits="userSpaceOnUse" x1="154.69" y1="90.94" x2="155.88" y2="106.38">
   <stop offset="0" style="stop-opacity:1; stop-color:#00A7D3"/>
   <stop offset="0.458824" style="stop-opacity:1; stop-color:white"/>
   <stop offset="1" style="stop-opacity:1; stop-color:#05A7D3"/>
  </linearGradient>
 </defs>
 <g id="Camada_x0020_1">
  <metadata id="CorelCorpID_0Corel-Layer"/>
  <g id="_1273254964288">
   <path class="fil0" d="M31.97 36.19c-7.88,4.81 -16.96,10.77 -23.15,18.2 -6.11,7.34 -9.43,16.14 -5.97,26.72 3.37,10.32 11.7,9.61 20.53,8.87 6.97,-0.59 14.23,-1.2 19.95,3.2l0.04 0.03c0.93,0.83 1.45,1.7 1.76,2.65 0.3,0.91 0.39,1.87 0.48,2.96l-1.44 0.11c-0.08,-0.99 -0.16,-1.86 -0.41,-2.62 -0.23,-0.71 -0.62,-1.36 -1.32,-2 -5.27,-4.05 -12.24,-3.46 -18.93,-2.89 -9.41,0.8 -18.3,1.55 -22.03,-9.86 -3.64,-11.16 -0.18,-20.4 6.24,-28.09 6.33,-7.6 15.53,-13.65 23.5,-18.51l0.75 1.24z"/>
   <path class="fil1" d="M134.45 163.37c21.6,-15.33 37.13,-30.32 47.89,-47.16l-5.24 0.37c-9.86,14.78 -23.48,28.11 -41.65,40.99l-1 0.71 -1 -0.71c-18.16,-12.87 -31.77,-26.18 -41.63,-40.95l-4.78 0.33c10.73,16.54 26.12,31.31 47.41,46.42zm-63.61 -111.32c-0.59,-6.99 -0.84,-14.3 -0.79,-21.99 0.01,-0.89 -0.12,-0.59 0.51,-1.22l24.45 -24.2 0.95 0.25c25.91,6.84 51.06,6.84 76.97,0l0.95 -0.25 24.96 24.7 0 0.71c0.01,1.08 0.01,2.16 0,3.23 1.37,0.41 2.74,0.86 4.11,1.39 0.04,-2.32 0.05,-4.68 0.04,-7.08l-27.88 -27.6c-29.71,7.79 -51.63,7.79 -81.34,0l-27.88 27.6c-0.05,9.07 0.25,17.56 0.95,25.56 1.41,-0.41 2.76,-0.79 3.99,-1.1z"/>
   <path class="fil2" d="M134.45 162.98c21.39,-15.2 36.79,-30.08 47.49,-46.75l-4.44 0.31c-9.9,14.9 -23.59,28.32 -41.86,41.27l-1.18 0.84 -1.18 -0.84c-18.24,-12.93 -31.91,-26.32 -41.81,-41.18l-4.05 0.28c10.67,16.39 25.94,31.06 47.04,46.06zm-63.92 -110.85c-0.59,-7.01 -0.85,-14.35 -0.8,-22.07 0.01,-0.97 -0.09,-0.75 0.61,-1.44l24.58 -24.33 1.13 0.3c25.81,6.82 51,6.82 76.81,0l1.13 -0.3 25.18 24.92 0.01 0.84c0.01,1.12 0.01,2.22 0,3.33 1.16,0.35 2.32,0.74 3.48,1.17 0.03,-2.24 0.05,-4.52 0.04,-6.83l-27.66 -27.38c-13.36,3.49 -26.74,5.8 -40.58,5.8 -13.84,0 -27.22,-2.31 -40.58,-5.8l-27.66 27.38c-0.04,8.99 0.25,17.4 0.94,25.34 1.19,-0.34 2.32,-0.66 3.38,-0.93z"/>
   <path class="fil3" d="M134.45 162.59c21.18,-15.07 36.46,-29.82 47.09,-46.33l-3.65 0.26c-9.93,15.01 -23.69,28.53 -42.08,41.56l-1.36 0.97 -1.36 -0.97c-18.33,-12.99 -32.06,-26.46 -41.98,-41.41l-3.33 0.23c10.62,16.25 25.77,30.82 46.68,45.7zm-64.23 -110.38c-0.6,-7.04 -0.86,-14.4 -0.8,-22.15 0.01,-1.06 -0.06,-0.91 0.7,-1.66l24.71 -24.45 1.3 0.34c25.76,6.8 50.89,6.8 76.64,0l1.3 -0.34 25.4 25.14 0.01 0.97c0.01,1.15 0.01,2.29 0,3.42 0.95,0.29 1.9,0.61 2.85,0.96 0.03,-2.16 0.04,-4.35 0.03,-6.58l-27.44 -27.16c-13.32,3.47 -26.67,5.77 -40.48,5.77 -13.81,0 -27.16,-2.3 -40.48,-5.77l-27.44 27.16c-0.04,8.91 0.26,17.25 0.94,25.11 0.96,-0.28 1.89,-0.53 2.76,-0.76z"/>
   <path class="fil4" d="M134.45 162.2c20.97,-14.95 36.12,-29.57 46.7,-45.92l-2.86 0.2c-9.96,15.13 -23.79,28.73 -42.3,41.85l-1.55 1.1 -1.55 -1.1c-18.43,-13.06 -32.21,-26.6 -42.16,-41.65l-2.61 0.18c10.56,16.11 25.6,30.57 46.32,45.33zm-64.54 -109.91c-0.6,-7.06 -0.86,-14.46 -0.81,-22.24 0,-0.36 -0.05,-0.72 0.1,-1.07 0.14,-0.34 0.44,-0.56 0.7,-0.81l24.84 -24.58 1.48 0.39c25.7,6.79 50.78,6.79 76.48,0l1.48 -0.39 25.62 25.36 0.01 1.11c0.01,1.18 0.01,2.36 0,3.52 0.74,0.23 1.48,0.48 2.23,0.75 0.03,-2.08 0.04,-4.19 0.03,-6.34l-27.22 -26.94c-13.29,3.45 -26.61,5.73 -40.39,5.73 -13.78,0 -27.1,-2.28 -40.39,-5.73l-27.22 26.94c-0.04,8.82 0.26,17.09 0.93,24.89 0.74,-0.21 1.45,-0.41 2.14,-0.59z"/>
   <path class="fil5" d="M134.45 161.81c20.76,-14.82 35.79,-29.31 46.31,-45.5l-2.07 0.14c-9.99,15.24 -23.89,28.93 -42.51,42.13l-1.73 1.23 -1.73 -1.23c-18.52,-13.12 -32.36,-26.74 -42.34,-41.88l-1.89 0.13c10.5,15.97 25.43,30.32 45.96,44.97zm-64.85 -109.44c-0.61,-7.09 -0.87,-14.51 -0.81,-22.32 0,-0.42 -0.05,-0.78 0.12,-1.19 0.17,-0.41 0.47,-0.62 0.77,-0.92l24.96 -24.71 1.65 0.44c25.65,6.77 50.67,6.77 76.32,0l1.65 -0.44 25.84 25.58 0.01 1.24c0.01,1.22 0.01,2.43 0,3.63 0.53,0.17 1.06,0.35 1.6,0.54 0.03,-2 0.04,-4.03 0.03,-6.09l-27 -26.72c-13.26,3.43 -26.55,5.7 -40.29,5.7 -13.74,0 -27.03,-2.26 -40.29,-5.7l-27 26.72c-0.03,8.74 0.26,16.94 0.92,24.67 0.52,-0.15 1.03,-0.29 1.52,-0.42z"/>
   <path class="fil6" d="M134.45 161.43c20.54,-14.69 35.45,-29.06 45.91,-45.09l-1.28 0.09c-10.02,15.35 -23.99,29.14 -42.72,42.42l-1.91 1.35 -1.91 -1.35c-18.61,-13.19 -32.51,-26.88 -42.52,-42.11l-1.17 0.08c10.44,15.83 25.26,30.07 45.6,44.61zm-65.16 -108.97c-0.61,-7.12 -0.87,-14.57 -0.82,-22.41 0.01,-1.33 0.04,-1.39 0.98,-2.33l25.09 -24.83 1.83 0.48c25.6,6.76 50.56,6.76 76.16,0l1.83 -0.48 26.06 25.8 0.01 1.37c0.01,1.25 0.01,2.5 0,3.73 0.32,0.11 0.64,0.21 0.97,0.32 0.03,-1.92 0.04,-3.87 0.03,-5.85l-26.78 -26.5c-13.23,3.42 -26.49,5.66 -40.2,5.66 -13.71,0 -26.97,-2.25 -40.2,-5.66l-26.78 26.5c-0.03,8.66 0.26,16.79 0.92,24.45 0.3,-0.09 0.6,-0.17 0.9,-0.25z"/>
   <path class="fil7" d="M134.45 161.04c20.33,-14.56 35.11,-28.8 45.51,-44.67l-0.48 0.03c-10.06,15.47 -24.08,29.34 -42.93,42.7l-2.09 1.49 -2.1 -1.49c-18.7,-13.26 -32.66,-27.02 -42.7,-42.34l-0.44 0.03c10.39,15.7 25.09,29.82 45.24,44.24zm-65.47 -108.49c-0.61,-7.14 -0.88,-14.63 -0.83,-22.49 0.01,-1.41 0.07,-1.56 1.07,-2.55l25.22 -24.96 2 0.53c25.54,6.75 50.45,6.75 76,0l2 -0.53 26.29 26.01 0.01 1.5c0.01,1.29 0.01,2.57 0,3.84l0.34 0.11c0.03,-1.85 0.04,-3.71 0.03,-5.61l-26.56 -26.28c-13.2,3.4 -26.43,5.63 -40.11,5.63 -13.68,0 -26.91,-2.23 -40.11,-5.63l-26.56 26.28c-0.03,8.58 0.26,16.63 0.91,24.23l0.28 -0.08z"/>
   <path class="fil8" d="M87.01 50.09c0.3,-0.35 0.02,0.05 0.41,-0.58 0.24,-0.39 0.14,-0.28 0.35,-0.64 0.56,-0.96 -0.02,-0.29 0.7,-0.96 1.64,-1.54 3.65,-1.6 5.03,-1.93 1.61,-0.38 8.49,-5.19 10.51,-6.39 7.25,-4.3 10.82,-7.06 20.12,-7.06 -0.93,-1.27 -0.22,-0.26 -1.78,-0.87 -0.76,-0.3 -0.8,-0.53 -1.61,-0.71 -0.72,-0.15 -1.47,-0.04 -2.23,-0.1 -1.86,-0.14 -2.94,-1.26 -4.84,0.83 -1.59,1.74 0.18,1.28 -2.13,2.51 -0.3,0.03 -3.83,-3.51 -7.29,1.66 -2.53,-1.34 -5.62,-1.55 -6.3,0.99 -1.19,-0.1 -0.53,0.1 -1.7,-0.95 -1.78,-1.59 -3.62,-1.68 -5.51,-0.27 -2.11,1.59 -1.19,-0.07 -3.84,0.77 -6.07,1.93 0.43,6.74 0.44,6.75 -1.13,0.6 -1.11,0.4 -1.99,1.33 0.92,1.74 0.59,1.07 2.32,1.99 -0.58,1.21 -0.66,1.82 -0.66,3.65zm27.51 -22.21c1.69,-0.89 1.63,-0.89 3.31,0 -0.54,-2.31 -2.78,-2.31 -3.31,0zm-15.25 2.65c1.63,-1.72 2.92,-1.71 4.97,-0.33 -0.79,-3.41 -4.72,-2.76 -4.97,0.33z"/>
   <path class="fil9" d="M138.06 21.92c-2.51,0 -1.85,-0.21 -3.31,-0.33 0.55,0.82 1.94,2.04 2.98,2.32 -0.03,1.45 -0.33,2.07 -0.33,3.98 2.61,-0.94 -1,-2.65 6.3,-2.65 -0.52,-0.72 -2.12,-1.87 -2.98,-2.32l0.4 -3.97c-1.13,0.78 -1.87,2.98 -3.05,2.98z"/>
   <path class="fil10" d="M111.54 43.47l5.3 -2.33c2.35,-1.03 18.48,-2.31 21.55,-2.31l-7.61 0.01c-4.42,0.06 -16.36,0.33 -19.24,4.63zm100.44 25.86c0.18,-0.26 0.17,-0.15 0.36,-0.63l0.44 -2.21c0.7,-3.19 3.4,-4.98 4.17,-6.44l-21.55 3.31c4.73,0 13.82,-1.58 17.24,-1.66 -0.2,2.4 -0.66,0.42 -0.66,7.62zm-47.96 -22.77c1.37,-2.26 4.47,-6.46 6.33,-7.93 1.09,-0.86 1.71,-1.32 3.32,-1.65 1.24,-0.26 2.9,-0.47 4.17,-0.47 9.87,0 15.04,1.56 23.43,6.08 2.14,1.15 4.13,2.38 6.1,3.51 3.8,2.18 0.91,5.3 -0.14,5.88 -1.73,0.97 -22.87,2.14 -26.4,2.43 1.05,-1.44 2.72,-1.18 3.56,-2.73 1.75,-3.22 -2.05,-3.81 -4.84,-4.28 -2.09,-0.35 -4.48,-0.61 -7.01,-0.61 -1.8,0 -4.31,3.88 -4.31,4.64 0,0.96 0.7,1.21 0.99,2.32 -1.04,1.56 -2.57,1.39 -4.69,1.61 -2,0.2 -4.01,0.38 -5.92,0.38l5.41 -9.18zm-68.72 6.86c0.42,-1.57 5.1,-5.09 6.54,-6.38 7.07,-6.31 14.55,-10.06 24.28,-10.19 1.92,-0.03 2.3,-0.3 3.97,-0.34 5.52,-0.13 10.42,-0.65 16.25,-0.65 20.06,0 18.17,-1.51 12.05,10.72 -0.79,1.59 -1.69,2.78 -2.62,4.34 -0.95,1.59 -1.63,2.58 -2.46,4.17 -1.21,-0.28 -1.67,-0.8 -3.02,-0.96 -6.35,-0.73 -18.81,-0.37 -25.49,-0.37 -5.15,0 -9.29,-0.33 -14.58,-0.33 -4.97,0 -9.94,0 -14.92,0zm69.61 -22.21c-6.04,0 -16.24,0.3 -22.26,0.94 -0.97,0.1 -1.91,-0 -2.88,0.1l-11.79 1.13c-10.24,1.44 -10.54,-0.04 -20.22,5.64 -0.86,0.5 -1.33,0.69 -2.12,1.2l-5.89 3.72c-1.46,0.89 -2.55,1.69 -3.97,2.66 -2.02,1.37 -2.79,0.51 -4.89,1.41 -1.96,0.84 -1.95,2.29 -2.72,3.91 -0.74,1.55 -2.35,1.78 -2.81,3.49 19.83,0 39.52,0.54 59.33,0.99l-19.47 3.73c-5.73,1.12 -6.84,0.7 -11.1,4.48 -1.51,1.34 -2.77,2 -4.34,3.29 -6.18,5.08 -6.16,5.41 -14.15,5.41 0.15,-6.69 9.07,-9.32 14.34,-10.52l2.57 -0.75c-5.34,0 -10.53,1.21 -14.45,2.79 -4.67,1.88 -7.97,4.2 -13.63,3.42 -4.9,-0.67 -11.53,0.37 -16.8,-0.43l-16.77 -0.47c1.04,-1.56 3.09,-3.21 4.64,-4.31l5.64 -3.31c2.76,-1.23 9.92,-3.98 13.59,-3.98l0 -0.33c-6.81,0 -11.59,1.65 -17.57,3.31 -3.34,0.93 -6.92,2.1 -9.96,3.63 -1.97,1 -2.07,1.97 -2.69,4.28 -0.48,1.79 -0.39,4.11 -1.51,5.45 -0.77,0.91 -2.59,2.58 -3.74,2.89 -1.38,-0.93 -1.76,-0.79 -1.33,-2.65 -1.08,0.72 -3.53,3.8 -4.31,4.97 0.49,2.12 1.4,1.52 2.06,3.58 0.4,1.25 0.26,3.6 0.26,5.37l0.21 -0.45 0.98 -3.66c0.33,-1.38 0.36,-3.18 1.79,-3.18l21.53 0.68c2.15,0.03 3.7,-0.01 5.41,0.23 8.23,1.13 11.49,-1.56 15.93,5.28 0.42,0.64 0.11,0.27 0.55,0.77 0,-4.53 -0.32,-4.3 -2.32,-7.29 0.45,-0.67 0.88,-1.32 1.33,-1.99 4.43,0 7.69,-0.33 11.93,-0.33 11.04,0 11.1,-0.15 18.7,-5.83 2.15,-1.6 7.25,-1.79 10.14,-1.79l-3.22 3.08c-0.51,0.7 -0.18,0.25 -0.61,1.04 -1.7,3.13 -2.49,11.64 -0.48,13.11 0,-3.71 2.28,-7.74 4.07,-9.85 2.21,-2.6 4.67,-4.09 8.31,-5.28 11.46,-3.75 15.78,3.62 19.11,5.85 -1.18,-5.07 -3.85,-9.21 -8.74,-10.81l-1.65 -0.67c-0.03,-0.1 -0.14,-0.07 -0.21,-0.12 1.68,0 3.7,-0.4 5.07,-0.57l25.09 -2.76c8.02,-0.69 46.67,-5.63 49.73,-5.63 0.82,1.22 2.26,2.53 2.65,3.98 -7.06,4.73 -8.09,8.86 -7.29,16.91 1.08,-0.79 0.47,-0.47 0.88,-2.1 0.91,-3.59 3.02,-6.8 6.2,-8.71 1.02,-0.61 3.05,-1.45 4.51,-1.45 4.72,0 6.68,1.2 8.34,6.25l0.67 2.31c0.21,0.69 -0.04,0.22 0.28,0.72 1.86,-7.99 -2.78,-16.35 -8.56,-20.94 -1.26,-1 -2.76,-1.84 -4.23,-2.74 -8.88,-5.44 -18.07,-10.06 -27.79,-13.97 -9.69,-3.91 -18.68,-5.11 -29.36,-5.11z"/>
   <path class="fil9" d="M130.43 28.22c1.69,0.14 2.18,0.63 2.32,2.32l0.66 0c0,-2.09 0.03,-2.12 2.32,-2.65l-0.41 -0.25c-0.07,-0.03 -0.37,-0.16 -0.47,-0.2 -0.28,-0.11 -0.81,-0.25 -0.97,-0.36 -0.68,-0.44 -0.73,-0.93 -0.8,-1.85l-0.66 0c0,3.25 -0.83,1.4 -1.99,2.98z"/>
   <path class="fil11" d="M36.87 111.38l0.96 -2.31 5.5 -0.38 -1.37 3.28 -4.72 2.88 -11.83 0.83 6.81 -16.34 5.01 -2.88 11.54 -0.81 -2.98 7.15 -5.5 0.38 1.48 -3.55 -4.46 0.31 -4.9 11.75 4.46 -0.31zm98.17 -23.43c1.14,-1 2.27,-2 3.41,-3.01 2.24,-0.18 4.49,-0.37 6.73,-0.55 -2.29,1.11 -4.58,2.22 -6.87,3.33 -1.09,0.08 -2.18,0.15 -3.26,0.23zm85.56 -7.86l22.89 -1.6 -11.4 27.33 -22.89 1.6 11.4 -27.33zm-1.3 21.59l7.02 -0.49 7.07 -16.96 -7.02 0.49 -7.07 16.96zm-4.03 -16.18l-7.15 0.5 -9.24 22.15 -7.99 0.56 9.24 -22.15 -7.41 0.52 2.16 -5.19 22.54 -1.58 -2.16 5.19zm-49.51 24.97l-7.93 0.56 9.59 -23 7.92 -4.76 16.57 -1.16 -11.4 27.33 -7.93 0.56 3.75 -8.98 -6.81 0.48 -3.75 8.98zm12.72 -14.65l3.33 -7.98 -6.81 0.48 -3.33 7.98 6.81 -0.48zm-59.41 17.08l14.05 -0.98 -2.46 5.89 7.78 -0.54 16.5 -39.21 13.9 -0.97 -17.4 41.73 -12.65 7.35 -26 1.82 6.29 -15.08zm-70.5 1.15l-5.5 0.39 6.65 -15.95 5.49 -3.3 11.48 -0.8 -7.9 18.95 -5.5 0.39 2.6 -6.23 -4.72 0.33 -2.6 6.23zm8.82 -10.15l2.31 -5.53 -4.72 0.33 -2.31 5.53 4.72 -0.33zm24.98 -10.61l6.36 -0.45 -7.9 18.95 -5.09 0.36 4.92 -11.79 -9.01 12.08 -1.64 0.11 0.83 -11.51 -4.92 11.79 -5.09 0.36 7.9 -18.95 6.36 -0.45 -0.3 9.18 7.57 -9.69zm6.63 17.93l-5.5 0.38 6.65 -15.95 5.49 -3.3 11.48 -0.8 -7.9 18.95 -5.5 0.38 2.6 -6.23 -4.72 0.33 -2.6 6.23zm8.81 -10.15l2.31 -5.53 -4.72 0.33 -2.31 5.53 4.72 -0.33zm13.67 8.58l-0.41 -6.64 -1.46 0.1 -2.86 6.87 -5.5 0.38 6.79 -16.27 5.11 -2.95 11.24 -0.79 -5.01 12.02 -2.98 0.21 0.6 6.68 -5.52 0.39zm3.85 -10.38l2.06 -4.94 -4.24 0.3 -2.06 4.94 4.24 -0.3zm9.18 9.47l-5.5 0.39 6.65 -15.95 5.49 -3.3 11.48 -0.8 -7.9 18.95 -5.5 0.39 2.6 -6.23 -4.72 0.33 -2.6 6.23zm8.82 -10.15l2.31 -5.53 -4.72 0.33 -2.31 5.53 4.72 -0.33z"/>
   <g>
    <path class="fil12" style="mask:url(#id0)" d="M36.87 111.38l0.96 -2.31 5.5 -0.38 -1.37 3.28 -4.72 2.88 -11.83 0.83 6.81 -16.34 5.01 -2.88 11.54 -0.81 -2.98 7.15 -5.5 0.38 1.48 -3.55 -4.46 0.31 -4.9 11.75 4.46 -0.31zm98.17 -23.43c1.14,-1 2.27,-2 3.41,-3.01 2.24,-0.18 4.49,-0.37 6.73,-0.55 -2.29,1.11 -4.58,2.22 -6.87,3.33 -1.09,0.08 -2.18,0.15 -3.26,0.23zm85.56 -7.86l22.89 -1.6 -11.4 27.33 -22.89 1.6 11.4 -27.33zm-1.3 21.59l7.02 -0.49 7.07 -16.96 -7.02 0.49 -7.07 16.96zm-4.03 -16.18l-7.15 0.5 -9.24 22.15 -7.99 0.56 9.24 -22.15 -7.41 0.52 2.16 -5.19 22.54 -1.58 -2.16 5.19zm-49.51 24.97l-7.93 0.56 9.59 -23 7.92 -4.76 16.57 -1.16 -11.4 27.33 -7.93 0.56 3.75 -8.98 -6.81 0.48 -3.75 8.98zm12.72 -14.65l3.33 -7.98 -6.81 0.48 -3.33 7.98 6.81 -0.48zm-59.41 17.08l14.05 -0.98 -2.46 5.89 7.78 -0.54 16.5 -39.21 13.9 -0.97 -17.4 41.73 -12.65 7.35 -26 1.82 6.29 -15.08zm-70.5 1.15l-5.5 0.39 6.65 -15.95 5.49 -3.3 11.48 -0.8 -7.9 18.95 -5.5 0.39 2.6 -6.23 -4.72 0.33 -2.6 6.23zm8.82 -10.15l2.31 -5.53 -4.72 0.33 -2.31 5.53 4.72 -0.33zm24.98 -10.61l6.36 -0.45 -7.9 18.95 -5.09 0.36 4.92 -11.79 -9.01 12.08 -1.64 0.11 0.83 -11.51 -4.92 11.79 -5.09 0.36 7.9 -18.95 6.36 -0.45 -0.3 9.18 7.57 -9.69zm6.63 17.93l-5.5 0.38 6.65 -15.95 5.49 -3.3 11.48 -0.8 -7.9 18.95 -5.5 0.38 2.6 -6.23 -4.72 0.33 -2.6 6.23zm8.81 -10.15l2.31 -5.53 -4.72 0.33 -2.31 5.53 4.72 -0.33zm13.67 8.58l-0.41 -6.64 -1.46 0.1 -2.86 6.87 -5.5 0.38 6.79 -16.27 5.11 -2.95 11.24 -0.79 -5.01 12.02 -2.98 0.21 0.6 6.68 -5.52 0.39zm3.85 -10.38l2.06 -4.94 -4.24 0.3 -2.06 4.94 4.24 -0.3zm9.18 9.47l-5.5 0.39 6.65 -15.95 5.49 -3.3 11.48 -0.8 -7.9 18.95 -5.5 0.39 2.6 -6.23 -4.72 0.33 -2.6 6.23zm8.82 -10.15l2.31 -5.53 -4.72 0.33 -2.31 5.53 4.72 -0.33z"/>
   </g>
  </g>
 </g>
</svg>
