<?xml version="1.0" encoding="UTF-8"?>
<!DOCTYPE svg PUBLIC "-//W3C//DTD SVG 1.1//EN" "http://www.w3.org/Graphics/SVG/1.1/DTD/svg11.dtd">
<!-- Creator: CorelDRAW -->
<svg xmlns="http://www.w3.org/2000/svg" xml:space="preserve" width="75.1224mm" height="35.9567mm" version="1.1" style="shape-rendering:geometricPrecision; text-rendering:geometricPrecision; image-rendering:optimizeQuality; fill-rule:evenodd; clip-rule:evenodd"
viewBox="0 0 715.57 342.5"
 xmlns:xlink="http://www.w3.org/1999/xlink"
 xmlns:xodm="http://www.corel.com/coreldraw/odm/2003">
 <defs>
  <style type="text/css">
   <![CDATA[
    .str4 {stroke:#3D4498;stroke-width:13.34;stroke-miterlimit:22.9256}
    .str1 {stroke:#373435;stroke-width:0.73;stroke-miterlimit:22.9256}
    .str2 {stroke:#EE3739;stroke-width:1.96;stroke-linecap:round;stroke-linejoin:round;stroke-miterlimit:22.9256}
    .str0 {stroke:#FEFEFE;stroke-width:26.88;stroke-linecap:round;stroke-linejoin:round;stroke-miterlimit:22.9256}
    .str3 {stroke:#EE3739;stroke-width:1.68;stroke-linecap:round;stroke-linejoin:round;stroke-miterlimit:22.9256}
    .fil6 {fill:none}
    .fil0 {fill:none;fill-rule:nonzero}
    .fil2 {fill:#FEFEFE}
    .fil1 {fill:#FFF212}
    .fil7 {fill:#ED3237}
    .fil3 {fill:#3E4095}
    .fil5 {fill:#EE3739;fill-rule:nonzero}
    .fil4 {fill:#EE353A;fill-rule:nonzero}
   ]]>
  </style>
 </defs>
 <g id="Camada_x0020_1">
  <metadata id="CorelCorpID_0Corel-Layer"/>
  <g id="_1274769257904">
   <path class="fil0 str0" d="M357.79 13.44c189.66,0 344.34,70.89 344.34,157.81 0,86.92 -154.69,157.81 -344.34,157.81 -189.66,0 -344.34,-70.89 -344.34,-157.81 0,-86.92 154.68,-157.81 344.34,-157.81z"/>
   <path class="fil1" d="M357.79 13.44c189.66,0 344.34,70.89 344.34,157.81 0,86.92 -154.69,157.81 -344.34,157.81 -189.66,0 -344.34,-70.89 -344.34,-157.81 0,-86.92 154.68,-157.81 344.34,-157.81z"/>
   <polygon class="fil2 str1" points="168.94,142.61 171.64,142.64 171.33,145.69 168.63,145.66 "/>
   <path class="fil3" d="M183.3 78.14l-5.02 7.38c6.36,-1.99 7.73,-4.79 11.72,-8.79 0.7,-0.35 2.35,-1.87 4.6,-2.81 4.29,-1.79 9.61,-2.81 6.53,0.96 -0.66,0.81 -1.69,1.76 -2.55,2.64 -0.69,0.7 -2.92,2.97 -1.07,3.66 1.02,0.38 3.51,-2.65 5.46,-4.12 0.84,-0.63 2.07,-0.44 2.23,-0.44 0.85,0 1.56,0.71 1.23,1.7 -0.62,1.88 -3.52,4.69 -5.06,6.98l-4.24 6.47 -13.2 29.49 -2.52 6.61 58.84 11.39c-13.32,-1.75 -27.84,-3.34 -41.16,-5.08l50.79 11.24c0.78,1.16 1.56,2.31 2.33,3.47 7.7,1.57 8.62,3.05 5.89,3.1 -5.64,0.1 -19.69,-3.59 -23.3,-2.24 0.87,1.98 15.18,4.3 18.76,5.03l-2.98 1.75 -79.5 -4.82 -6.44 9.72c2.88,-7.7 9.55,-15.24 -1,-12.48l-8.01 17.04 -4.43 12.64c4.18,-0.18 6.44,-6.05 8.35,-8.73l-9.08 20.93 -10.74 23.1c-0.56,1.89 -2.57,8.32 -4.35,14.38 -1.91,6.51 -4.06,12.2 -7.01,11.81 -8.32,-1.11 -1.51,-17.61 -0.59,-21.49 -9.63,-8.07 -12.71,17.34 -11.62,18.04 -1.87,2.93 -2.75,8.03 -4.66,4.65 -0.4,-0.72 -0.37,-0.94 -0.07,-1.67l1.94 -3.83 -2.86 -5.71c-0.1,-2.89 -0.43,-4.16 1.24,-6.83l2.96 -6.08c0.65,-1.82 0.84,-3.92 -3.25,-3.57 -10.54,0.91 -4.79,5.53 -8.92,6.2l-0.22 -2.8 2.35 -6.51 3.01 -5.2 12.07 -27.42 10.43 -12.46 3.76 -12.14 -2.85 -0.93 -16.54 21.79 4.9 4.01 -8.32 19.08 -5.9 -0.12c-3.43,0.84 -2.89,1.19 -3.78,3.58l-1.42 4.19c-0.24,0.6 -5.27,1.22 -5.11,-0.29l0.07 -1.22 0.8 -14.59 7.74 -22.19 3.69 0.94 14.17 -19.14c-6.81,-2.15 -13.86,-4.42 -21.67,-1.88l-3.2 0.69 -8.71 -0.36 -11.19 -1.21 -2.2 0.11c-4.08,0.26 -7.48,0.63 -11.46,0.17 -1.81,-0.22 -3.01,-0.2 -3.53,-0.65 -2.01,-1.77 4.69,-5.18 8.85,-5.43 4.25,-0.26 9.21,-0.14 11.02,-1.17 3.23,-1.83 0.56,-3.02 -3.08,-3.57 -0.49,-0.07 -1.01,-0.14 -1.52,-0.19 -6.53,-0.66 -14.56,1.23 -21.38,1.87l15.43 -4.78 1.54 -0.45c1.62,-0.47 2.99,-0.49 4.6,-0.28 1.38,0.18 2.9,0.67 4.31,0.44 4.82,-0.79 4.27,-5.49 -1.61,-5.71l-3.63 -0.13 3.53 -1.28 2.51 -0.25 2.01 0.35c1.88,0.36 3.21,0.85 4.49,0.91 1.37,0.06 2.67,-0.2 4.4,-0.5 2.11,-0.37 2.15,-0.44 4.16,0.03 2.92,0.5 4.01,0.75 7.04,0.39 2.82,-0.33 5.63,-0.67 8.45,-1 3.82,-0.45 5.71,0.69 7.97,2.01 0.04,0.02 0.07,0.04 0.11,0.06 3.58,2.09 7.85,2.36 12.32,2.73 12.77,-0.01 11.13,-5.05 -1,-7.42 -3.14,-0.61 -7.12,-0.73 -10.34,-1.21 -9.1,-0.29 -17.27,0.75 -26.08,2.08 -2.05,0.31 -2.83,0.07 -3.34,-0.25 -0.74,-0.46 -0.58,-1.35 -0.36,-3.03l-4.13 -0.87c0.6,0.01 4.81,-2.78 6.58,-3.18 13.6,-3.1 30.14,-0.52 43.05,1.96l10.52 3.29 10.21 -10.57c-0.34,0.83 0,1.55 -0.64,3.85 -0.34,1.21 -0.98,2.12 -0.19,2.23 0.33,0.05 0.83,-0.42 1.46,-0.66l4.48 -4.61 7.46 -12.59 8.11 -14.48 6.62 -5.71z"/>
   <path class="fil4" d="M225.91 148.7l-3.89 -0.12 0 0 0 -2.51 -0.17 -2.48 -0.33 -2.45 -0.49 -2.42 -0.64 -2.38 -0.79 -2.35 -0.95 -2.31 -1.08 -2.27 -1.23 -2.23 -1.37 -2.18 -1.5 -2.12 -1.64 -2.07 -1.76 -2.01 -1.89 -1.95 -2.01 -1.89 -2.12 -1.81 -2.24 -1.74 -2.34 -1.67 -2.45 -1.58 -2.55 -1.49 -2.64 -1.41 -2.73 -1.32 -2.82 -1.22 -2.9 -1.12 -2.99 -1.02 -3.05 -0.91 -3.13 -0.8 -3.19 -0.69 -3.25 -0.58 -3.31 -0.45 -3.37 -0.33 -3.41 -0.21 0.15 -3.87 3.56 0.21 3.51 0.34 3.46 0.48 3.4 0.59 3.34 0.72 3.27 0.84 3.2 0.96 3.12 1.07 3.05 1.18 2.96 1.28 2.88 1.38 2.78 1.48 2.69 1.58 2.59 1.67 2.49 1.76 2.37 1.85 2.26 1.93 2.13 2.01 2.02 2.09 1.9 2.16 1.76 2.23 1.63 2.3 1.48 2.36 1.34 2.41 1.19 2.48 1.03 2.53 0.88 2.58 0.7 2.63 0.53 2.66 0.36 2.71 0.18 2.73 -0 2.76zm-3.89 -0.12l3.89 0.12 -0.01 0.1 -0.01 0.1 -0.02 0.1 -0.02 0.1 -0.02 0.09 -0.03 0.09 -0.03 0.09 -0.04 0.09 -0.04 0.08 -0.05 0.08 -0.05 0.08 -0.05 0.08 -0.06 0.08 -0.06 0.07 -0.06 0.07 -0.07 0.07 -0.07 0.06 -0.07 0.06 -0.08 0.05 -0.08 0.05 -0.08 0.05 -0.08 0.04 -0.09 0.04 -0.09 0.04 -0.09 0.03 -0.09 0.03 -0.09 0.02 -0.09 0.02 -0.1 0.01 -0.1 0.01 -0.1 0 -0.1 -0 -0.1 -0 -0.1 -0.01 -0.1 -0.01 -0.09 -0.02 -0.09 -0.02 -0.09 -0.03 -0.09 -0.03 -0.09 -0.04 -0.08 -0.04 -0.08 -0.05 -0.08 -0.05 -0.08 -0.05 -0.07 -0.06 -0.07 -0.06 -0.07 -0.06 -0.07 -0.07 -0.06 -0.07 -0.06 -0.07 -0.06 -0.08 -0.05 -0.08 -0.05 -0.08 -0.04 -0.08 -0.04 -0.08 -0.04 -0.09 -0.03 -0.09 -0.03 -0.09 -0.02 -0.09 -0.02 -0.1 -0.01 -0.1 -0.01 -0.1 -0 -0.1 0 -0.1zm-67.92 50.54l0.15 -3.87 0 0 3.42 0.07 3.38 -0.06 3.33 -0.19 3.28 -0.31 3.23 -0.43 3.18 -0.56 3.11 -0.67 3.04 -0.78 2.97 -0.89 2.89 -1 2.82 -1.09 2.73 -1.2 2.64 -1.29 2.55 -1.38 2.46 -1.47 2.35 -1.55 2.24 -1.64 2.14 -1.72 2.01 -1.79 1.9 -1.87 1.78 -1.93 1.65 -2 1.52 -2.07 1.38 -2.12 1.24 -2.17 1.1 -2.23 0.96 -2.29 0.81 -2.32 0.66 -2.37 0.49 -2.41 0.34 -2.46 0.17 -2.49 3.89 0.12 -0.19 2.76 -0.37 2.71 -0.55 2.67 -0.72 2.62 -0.89 2.57 -1.05 2.5 -1.21 2.44 -1.36 2.38 -1.51 2.31 -1.64 2.23 -1.78 2.16 -1.91 2.09 -2.04 2 -2.17 1.92 -2.27 1.83 -2.39 1.74 -2.5 1.66 -2.59 1.56 -2.7 1.46 -2.79 1.36 -2.88 1.26 -2.96 1.15 -3.05 1.04 -3.12 0.93 -3.19 0.82 -3.26 0.7 -3.32 0.57 -3.38 0.46 -3.43 0.33 -3.48 0.19 -3.52 0.06 -3.57 -0.07zm0.15 -3.87l-0.15 3.87 -0.1 -0.01 -0.1 -0.01 -0.1 -0.02 -0.1 -0.02 -0.09 -0.03 -0.09 -0.03 -0.09 -0.03 -0.09 -0.04 -0.08 -0.04 -0.08 -0.04 -0.08 -0.05 -0.08 -0.05 -0.07 -0.06 -0.07 -0.06 -0.07 -0.06 -0.06 -0.07 -0.06 -0.07 -0.06 -0.07 -0.05 -0.07 -0.05 -0.08 -0.05 -0.08 -0.04 -0.08 -0.04 -0.08 -0.04 -0.09 -0.03 -0.09 -0.03 -0.09 -0.02 -0.09 -0.02 -0.09 -0.01 -0.1 -0.01 -0.1 -0 -0.1 0 -0.1 0.01 -0.1 0.01 -0.1 0.02 -0.1 0.02 -0.1 0.03 -0.09 0.03 -0.09 0.03 -0.09 0.04 -0.09 0.04 -0.08 0.05 -0.08 0.05 -0.08 0.05 -0.08 0.06 -0.07 0.06 -0.07 0.06 -0.07 0.07 -0.06 0.07 -0.06 0.07 -0.06 0.08 -0.05 0.08 -0.05 0.08 -0.05 0.08 -0.04 0.08 -0.04 0.09 -0.03 0.09 -0.03 0.09 -0.03 0.09 -0.02 0.09 -0.02 0.1 -0.01 0.1 -0.01 0.1 -0 0.1 0zm-68.23 -52.07l3.89 0.12 0 0 -0 2.51 0.17 2.48 0.33 2.45 0.49 2.42 0.64 2.39 0.79 2.35 0.95 2.31 1.09 2.27 1.23 2.23 1.37 2.18 1.5 2.12 1.63 2.07 1.77 2.01 1.89 1.95 2.01 1.89 2.12 1.81 2.24 1.74 2.34 1.67 2.45 1.58 2.55 1.49 2.64 1.41 2.73 1.32 2.82 1.22 2.9 1.12 2.98 1.02 3.05 0.91 3.13 0.8 3.19 0.69 3.25 0.58 3.31 0.45 3.36 0.33 3.42 0.21 -0.15 3.87 -3.56 -0.21 -3.51 -0.34 -3.46 -0.48 -3.4 -0.59 -3.34 -0.72 -3.27 -0.84 -3.2 -0.96 -3.12 -1.07 -3.05 -1.18 -2.96 -1.28 -2.88 -1.38 -2.78 -1.48 -2.69 -1.58 -2.59 -1.67 -2.49 -1.76 -2.37 -1.84 -2.26 -1.93 -2.14 -2.01 -2.02 -2.09 -1.89 -2.16 -1.77 -2.23 -1.63 -2.3 -1.48 -2.36 -1.34 -2.41 -1.19 -2.48 -1.03 -2.53 -0.88 -2.58 -0.7 -2.63 -0.53 -2.66 -0.36 -2.71 -0.18 -2.74 0 -2.76zm3.89 0.12l-3.89 -0.12 0.01 -0.1 0.01 -0.1 0.02 -0.1 0.02 -0.09 0.02 -0.09 0.03 -0.09 0.03 -0.09 0.04 -0.09 0.04 -0.08 0.05 -0.08 0.05 -0.08 0.05 -0.08 0.06 -0.07 0.06 -0.07 0.06 -0.07 0.07 -0.06 0.07 -0.06 0.07 -0.06 0.08 -0.05 0.08 -0.05 0.08 -0.05 0.08 -0.04 0.08 -0.04 0.09 -0.04 0.09 -0.03 0.09 -0.03 0.09 -0.02 0.09 -0.02 0.1 -0.01 0.1 -0.01 0.1 -0 0.1 0 0.1 0.01 0.1 0.01 0.1 0.02 0.1 0.02 0.09 0.02 0.09 0.03 0.09 0.03 0.09 0.04 0.08 0.04 0.08 0.04 0.08 0.05 0.08 0.05 0.07 0.06 0.07 0.06 0.07 0.06 0.07 0.07 0.06 0.07 0.06 0.07 0.06 0.08 0.05 0.08 0.05 0.08 0.04 0.08 0.04 0.08 0.04 0.09 0.03 0.09 0.03 0.09 0.02 0.09 0.02 0.09 0.01 0.1 0.01 0.1 0 0.1 -0 0.1zm67.92 -50.54l-0.15 3.87 0 0 -3.42 -0.07 -3.38 0.06 -3.33 0.19 -3.28 0.31 -3.23 0.43 -3.18 0.56 -3.11 0.67 -3.04 0.77 -2.97 0.89 -2.89 1 -2.82 1.09 -2.73 1.2 -2.64 1.29 -2.55 1.38 -2.46 1.47 -2.35 1.55 -2.24 1.64 -2.14 1.72 -2.01 1.79 -1.9 1.87 -1.78 1.93 -1.65 2.01 -1.52 2.06 -1.38 2.12 -1.24 2.17 -1.1 2.23 -0.96 2.29 -0.81 2.32 -0.66 2.37 -0.49 2.42 -0.34 2.46 -0.17 2.49 -3.89 -0.12 0.19 -2.76 0.37 -2.71 0.55 -2.66 0.72 -2.62 0.89 -2.57 1.05 -2.5 1.21 -2.44 1.36 -2.38 1.51 -2.31 1.64 -2.24 1.78 -2.16 1.91 -2.08 2.04 -2 2.17 -1.93 2.27 -1.83 2.39 -1.75 2.5 -1.66 2.59 -1.56 2.7 -1.46 2.79 -1.36 2.88 -1.26 2.96 -1.15 3.05 -1.04 3.12 -0.93 3.19 -0.82 3.26 -0.7 3.32 -0.57 3.38 -0.46 3.43 -0.33 3.48 -0.19 3.52 -0.06 3.57 0.07zm-0.15 3.87l0.15 -3.87 0.1 0.01 0.1 0.01 0.1 0.02 0.1 0.02 0.09 0.03 0.09 0.03 0.09 0.03 0.09 0.04 0.08 0.04 0.08 0.05 0.08 0.05 0.08 0.05 0.07 0.06 0.07 0.06 0.07 0.06 0.06 0.07 0.06 0.07 0.06 0.07 0.05 0.08 0.05 0.08 0.05 0.08 0.04 0.08 0.04 0.08 0.04 0.09 0.03 0.09 0.03 0.09 0.02 0.09 0.02 0.09 0.01 0.1 0.01 0.1 0 0.1 -0 0.1 -0.01 0.1 -0.01 0.1 -0.02 0.1 -0.02 0.09 -0.03 0.09 -0.03 0.09 -0.03 0.09 -0.04 0.09 -0.04 0.08 -0.05 0.08 -0.05 0.08 -0.05 0.08 -0.06 0.07 -0.06 0.07 -0.06 0.07 -0.07 0.06 -0.07 0.06 -0.07 0.06 -0.08 0.05 -0.08 0.05 -0.08 0.05 -0.08 0.04 -0.08 0.04 -0.09 0.03 -0.09 0.03 -0.09 0.03 -0.09 0.02 -0.09 0.02 -0.1 0.01 -0.1 0.01 -0.1 0 -0.1 -0z"/>
   <path class="fil5" d="M235.2 146.57l-3.89 0 0 0 -0.11 -2.89 -0.29 -2.85 -0.48 -2.81 -0.66 -2.77 -0.83 -2.72 -1 -2.68 -1.18 -2.63 -1.34 -2.58 -1.5 -2.52 -1.65 -2.46 -1.81 -2.39 -1.95 -2.33 -2.1 -2.25 -2.23 -2.17 -2.37 -2.09 -2.5 -2.01 -2.62 -1.92 -2.74 -1.83 -2.86 -1.73 -2.96 -1.63 -3.07 -1.52 -3.17 -1.41 -3.27 -1.3 -3.35 -1.19 -3.44 -1.06 -3.52 -0.93 -3.59 -0.81 -3.66 -0.68 -3.73 -0.54 -3.79 -0.39 -3.84 -0.26 -3.89 -0.11 0.03 -3.87 4.05 0.11 4 0.26 3.93 0.42 3.88 0.56 3.81 0.71 3.74 0.84 3.67 0.98 3.58 1.11 3.5 1.23 3.41 1.36 3.32 1.48 3.21 1.6 3.11 1.71 2.99 1.82 2.88 1.92 2.77 2.02 2.63 2.12 2.51 2.21 2.37 2.31 2.22 2.39 2.09 2.48 1.93 2.56 1.78 2.64 1.61 2.71 1.45 2.78 1.27 2.84 1.09 2.91 0.91 2.97 0.71 3.01 0.52 3.06 0.32 3.11 0.11 3.14zm-3.89 0l3.89 0 -0 0.1 -0.01 0.1 -0.01 0.1 -0.02 0.09 -0.02 0.09 -0.03 0.09 -0.03 0.09 -0.04 0.09 -0.04 0.09 -0.04 0.08 -0.05 0.08 -0.05 0.08 -0.05 0.08 -0.06 0.07 -0.06 0.07 -0.06 0.07 -0.07 0.06 -0.07 0.06 -0.07 0.06 -0.08 0.05 -0.08 0.05 -0.08 0.05 -0.08 0.04 -0.09 0.04 -0.09 0.03 -0.09 0.03 -0.09 0.03 -0.09 0.02 -0.1 0.02 -0.1 0.01 -0.1 0.01 -0.1 0 -0.1 -0 -0.1 -0.01 -0.1 -0.01 -0.1 -0.02 -0.09 -0.02 -0.09 -0.03 -0.09 -0.03 -0.09 -0.03 -0.09 -0.04 -0.08 -0.04 -0.08 -0.05 -0.08 -0.05 -0.08 -0.05 -0.07 -0.06 -0.07 -0.06 -0.07 -0.06 -0.06 -0.07 -0.06 -0.07 -0.06 -0.07 -0.05 -0.08 -0.05 -0.08 -0.05 -0.08 -0.04 -0.08 -0.04 -0.09 -0.04 -0.09 -0.03 -0.09 -0.03 -0.09 -0.02 -0.09 -0.02 -0.09 -0.01 -0.1 -0.01 -0.1 -0 -0.1zm-75.33 59.96l0.03 -3.87 0 0 3.9 -0.04 3.84 -0.19 3.79 -0.33 3.73 -0.48 3.66 -0.61 3.59 -0.74 3.52 -0.88 3.43 -1 3.35 -1.12 3.26 -1.25 3.16 -1.36 3.07 -1.46 2.95 -1.57 2.85 -1.67 2.74 -1.78 2.61 -1.87 2.49 -1.96 2.36 -2.05 2.23 -2.14 2.09 -2.21 1.94 -2.29 1.79 -2.36 1.65 -2.42 1.5 -2.49 1.33 -2.55 1.17 -2.61 0.99 -2.66 0.82 -2.71 0.65 -2.76 0.47 -2.8 0.28 -2.84 0.1 -2.89 3.89 0 -0.1 3.13 -0.31 3.1 -0.5 3.06 -0.71 3 -0.9 2.95 -1.09 2.89 -1.26 2.82 -1.44 2.75 -1.6 2.68 -1.77 2.61 -1.93 2.53 -2.08 2.44 -2.23 2.36 -2.37 2.26 -2.5 2.17 -2.63 2.08 -2.76 1.98 -2.87 1.87 -3 1.77 -3.11 1.65 -3.21 1.54 -3.31 1.42 -3.41 1.29 -3.5 1.18 -3.58 1.04 -3.66 0.91 -3.74 0.78 -3.81 0.64 -3.88 0.49 -3.94 0.35 -3.99 0.19 -4.04 0.04zm0.03 -3.87l-0.03 3.87 -0.1 -0 -0.1 -0.01 -0.1 -0.01 -0.1 -0.02 -0.09 -0.02 -0.09 -0.03 -0.09 -0.03 -0.09 -0.04 -0.09 -0.04 -0.08 -0.04 -0.08 -0.05 -0.08 -0.05 -0.08 -0.05 -0.07 -0.06 -0.07 -0.06 -0.07 -0.06 -0.06 -0.07 -0.06 -0.07 -0.06 -0.07 -0.05 -0.08 -0.05 -0.08 -0.05 -0.08 -0.04 -0.08 -0.04 -0.09 -0.03 -0.09 -0.03 -0.09 -0.02 -0.09 -0.02 -0.09 -0.02 -0.1 -0.01 -0.1 -0.01 -0.1 -0 -0.1 0 -0.1 0.01 -0.1 0.01 -0.1 0.02 -0.1 0.02 -0.09 0.03 -0.09 0.03 -0.09 0.04 -0.09 0.04 -0.09 0.04 -0.08 0.05 -0.08 0.05 -0.08 0.05 -0.08 0.06 -0.07 0.06 -0.07 0.07 -0.07 0.07 -0.06 0.07 -0.06 0.07 -0.06 0.08 -0.05 0.08 -0.05 0.08 -0.05 0.08 -0.04 0.09 -0.04 0.09 -0.03 0.09 -0.03 0.09 -0.02 0.09 -0.02 0.1 -0.02 0.1 -0.01 0.1 -0.01 0.1 -0zm-79.39 -57.47l3.89 0 0 0 0.11 2.89 0.29 2.85 0.47 2.82 0.66 2.77 0.83 2.72 1 2.68 1.18 2.63 1.34 2.58 1.5 2.52 1.65 2.46 1.81 2.39 1.95 2.32 2.1 2.25 2.23 2.17 2.37 2.09 2.5 2.01 2.61 1.92 2.74 1.83 2.86 1.73 2.96 1.63 3.07 1.52 3.17 1.42 3.27 1.3 3.35 1.19 3.44 1.06 3.52 0.93 3.59 0.81 3.66 0.68 3.73 0.54 3.8 0.39 3.84 0.26 3.89 0.11 -0.03 3.87 -4.05 -0.11 -4 -0.26 -3.93 -0.42 -3.88 -0.56 -3.81 -0.71 -3.74 -0.84 -3.67 -0.98 -3.58 -1.11 -3.5 -1.23 -3.4 -1.36 -3.32 -1.48 -3.21 -1.6 -3.11 -1.71 -2.99 -1.82 -2.88 -1.92 -2.77 -2.02 -2.64 -2.12 -2.51 -2.21 -2.37 -2.31 -2.22 -2.39 -2.09 -2.48 -1.93 -2.56 -1.78 -2.64 -1.61 -2.7 -1.45 -2.78 -1.27 -2.84 -1.1 -2.91 -0.91 -2.97 -0.71 -3.01 -0.52 -3.06 -0.32 -3.11 -0.11 -3.14zm3.89 0l-3.89 0 0 -0.1 0.01 -0.1 0.01 -0.1 0.02 -0.1 0.02 -0.09 0.03 -0.09 0.03 -0.09 0.03 -0.09 0.04 -0.09 0.04 -0.08 0.05 -0.08 0.05 -0.08 0.05 -0.08 0.06 -0.07 0.06 -0.07 0.06 -0.07 0.07 -0.06 0.07 -0.06 0.07 -0.06 0.08 -0.05 0.08 -0.05 0.08 -0.05 0.08 -0.04 0.09 -0.04 0.09 -0.03 0.09 -0.03 0.09 -0.03 0.09 -0.02 0.1 -0.02 0.1 -0.01 0.1 -0.01 0.1 -0 0.1 0 0.1 0.01 0.1 0.01 0.1 0.02 0.09 0.02 0.09 0.03 0.09 0.03 0.09 0.03 0.09 0.04 0.08 0.04 0.08 0.05 0.08 0.05 0.08 0.05 0.07 0.06 0.07 0.06 0.07 0.06 0.06 0.07 0.06 0.07 0.06 0.07 0.05 0.08 0.05 0.08 0.05 0.08 0.04 0.08 0.04 0.09 0.03 0.09 0.03 0.09 0.03 0.09 0.02 0.09 0.02 0.1 0.01 0.1 0.01 0.1 0 0.1zm75.32 -59.96l-0.03 3.87 0 0 -3.9 0.04 -3.84 0.19 -3.79 0.33 -3.73 0.47 -3.66 0.61 -3.59 0.75 -3.52 0.88 -3.43 1 -3.35 1.12 -3.26 1.25 -3.16 1.36 -3.07 1.46 -2.95 1.58 -2.84 1.67 -2.74 1.78 -2.61 1.87 -2.49 1.96 -2.36 2.05 -2.23 2.14 -2.09 2.21 -1.94 2.29 -1.79 2.36 -1.65 2.42 -1.5 2.49 -1.33 2.55 -1.17 2.6 -1 2.67 -0.82 2.71 -0.65 2.76 -0.47 2.8 -0.28 2.84 -0.1 2.89 -3.89 0 0.1 -3.13 0.31 -3.1 0.5 -3.06 0.71 -3 0.9 -2.95 1.09 -2.88 1.26 -2.83 1.44 -2.75 1.6 -2.68 1.77 -2.61 1.93 -2.53 2.08 -2.44 2.23 -2.36 2.36 -2.26 2.5 -2.17 2.63 -2.08 2.76 -1.97 2.87 -1.87 3 -1.77 3.11 -1.65 3.2 -1.54 3.31 -1.42 3.41 -1.29 3.5 -1.18 3.58 -1.05 3.66 -0.91 3.74 -0.78 3.81 -0.64 3.88 -0.49 3.94 -0.35 3.99 -0.19 4.04 -0.04zm-0.03 3.87l0.03 -3.87 0.1 0 0.1 0.01 0.1 0.01 0.1 0.02 0.09 0.02 0.09 0.03 0.09 0.03 0.09 0.04 0.08 0.04 0.08 0.04 0.08 0.05 0.08 0.05 0.08 0.06 0.07 0.06 0.07 0.06 0.07 0.06 0.06 0.07 0.06 0.07 0.06 0.08 0.05 0.08 0.05 0.08 0.05 0.08 0.04 0.08 0.04 0.09 0.03 0.09 0.03 0.09 0.03 0.09 0.02 0.09 0.02 0.1 0.01 0.1 0.01 0.1 0 0.1 -0 0.1 -0.01 0.1 -0.01 0.1 -0.02 0.1 -0.02 0.09 -0.03 0.09 -0.03 0.09 -0.04 0.09 -0.04 0.08 -0.04 0.08 -0.05 0.08 -0.05 0.08 -0.05 0.07 -0.06 0.07 -0.06 0.07 -0.07 0.07 -0.07 0.06 -0.07 0.06 -0.07 0.06 -0.08 0.05 -0.08 0.05 -0.08 0.05 -0.08 0.04 -0.09 0.04 -0.09 0.03 -0.09 0.03 -0.09 0.03 -0.09 0.02 -0.1 0.02 -0.1 0.01 -0.1 0.01 -0.1 0z"/>
   <path class="fil3" d="M183.94 121.26l-2.52 6.61 58.84 11.39c-13.32,-1.75 -27.84,-3.34 -41.16,-5.08l50.79 11.24c0.78,1.16 1.56,2.31 2.34,3.47 7.7,1.57 8.61,3.05 5.89,3.1 -5.64,0.1 -19.69,-3.59 -23.3,-2.24 0.86,1.98 15.19,4.3 18.76,5.03l-2.98 1.75 -79.5 -4.82c-4.24,6.4 3.69,-5.67 -7.45,-2.76l-42.26 -0.54c-6.81,-2.15 -13.86,-4.42 -21.68,-1.88l-3.19 0.69 -8.71 -0.36 -11.2 -1.21 -2.19 0.11c-4.08,0.26 -7.48,0.63 -11.47,0.17 -1.81,-0.22 -3.01,-0.2 -3.52,-0.65 -2.01,-1.77 4.69,-5.18 8.85,-5.43 4.25,-0.26 9.21,-0.14 11.02,-1.17 3.23,-1.83 0.56,-3.02 -3.08,-3.57 -0.49,-0.07 -1,-0.14 -1.52,-0.19 -6.53,-0.66 -14.56,1.23 -21.38,1.87l15.43 -4.78 1.54 -0.45c1.61,-0.47 2.99,-0.49 4.61,-0.28 1.38,0.18 2.9,0.67 4.31,0.44 4.82,-0.79 4.27,-5.49 -1.61,-5.71l-3.63 -0.13 3.53 -1.28 2.5 -0.25 2.01 0.35c1.88,0.36 3.21,0.85 4.49,0.91 1.37,0.06 2.67,-0.2 4.4,-0.5 2.11,-0.37 2.15,-0.44 4.15,0.03 2.93,0.5 4.01,0.75 7.03,0.39 2.82,-0.33 5.63,-0.67 8.45,-1 3.82,-0.45 5.71,0.69 7.97,2.01 0.03,0.02 0.07,0.04 0.11,0.06 3.58,2.09 7.85,2.36 12.33,2.73 12.77,-0.01 11.13,-5.05 -1,-7.42 -3.15,-0.61 -7.13,-0.73 -10.34,-1.21 -9.1,-0.29 -17.26,0.75 -26.08,2.08 -2.06,0.31 -2.84,0.07 -3.34,-0.25 -0.74,-0.46 -0.58,-1.35 -0.36,-3.04l-4.13 -0.87c0.61,0.01 4.81,-2.78 6.58,-3.18 13.6,-3.1 30.14,-0.52 43.05,1.96l10.52 3.29 10.21 -10.57 -0.64 3.85 -0.19 2.23 1.45 -0.66 27.3 5.73z"/>
   <path class="fil6 str2" d="M317.96 101.5c1.55,-0.14 3.35,-0.14 4.66,-0.28 0.84,-7.43 1.67,-14.85 2.51,-22.28 -2.39,-1.38 -8.13,-3.03 -14.82,-3.03 -7.41,0 -16.97,1.79 -26.18,9.77 -10.64,8.94 -20.56,26.41 -20.56,46.62 0,10.45 2.39,20.08 8.49,26.82 5.38,5.91 12.43,8.96 20.44,8.96 6.09,0 13.86,-2.23 23.43,-6.08 0,-1.79 -0.24,-3.71 -0.48,-5.23 -6.22,2.47 -14.34,5.64 -21.99,5.64 -8.36,0 -15.3,-4.68 -18.88,-10.73 -3.23,-5.22 -4.54,-12.51 -4.54,-21.18 0,-12.79 4.9,-28.6 15.78,-39.61 6.1,-6.19 13.74,-9.22 21.4,-9.22 4.3,0 8.36,0.69 10.76,2.34 0.36,0.14 0.48,0.83 0.48,1.65l-0.48 15.82z"/>
   <path class="fil7" d="M317.96 101.5c1.55,-0.14 3.35,-0.14 4.66,-0.28 0.84,-7.43 1.67,-14.85 2.51,-22.28 -2.39,-1.38 -8.13,-3.03 -14.82,-3.03 -7.41,0 -16.97,1.79 -26.18,9.77 -10.64,8.94 -20.56,26.41 -20.56,46.62 0,10.45 2.39,20.08 8.49,26.82 5.38,5.91 12.43,8.96 20.44,8.96 6.09,0 13.86,-2.23 23.43,-6.08 0,-1.79 -0.24,-3.71 -0.48,-5.23 -6.22,2.47 -14.34,5.64 -21.99,5.64 -8.36,0 -15.3,-4.68 -18.88,-10.73 -3.23,-5.22 -4.54,-12.51 -4.54,-21.18 0,-12.79 4.9,-28.6 15.78,-39.61 6.1,-6.19 13.74,-9.22 21.4,-9.22 4.3,0 8.36,0.69 10.76,2.34 0.36,0.14 0.48,0.83 0.48,1.65l-0.48 15.82z"/>
   <path class="fil6 str2" d="M369.11 127.63c0,-6.88 -1.91,-11.96 -4.66,-15.13 -2.27,-2.61 -5.62,-4.13 -9.45,-4.13 -4.66,0 -9.92,1.51 -15.3,7.43 -7.41,8.25 -12.31,21.32 -12.31,34.52 0,5.23 1.55,9.76 3.46,12.52 2.03,2.89 5.5,5.25 10.52,5.25 7.05,0 11.95,-3.05 16.25,-8 8.13,-9.49 11.47,-21.73 11.47,-32.46zm-25.94 35.48c-2.99,0 -5.74,-1.1 -7.29,-3.99 -1.55,-2.75 -2.27,-5.92 -2.27,-10.59 0,-11.28 3.94,-21.45 6.93,-26.27 3.71,-5.78 8.13,-8.81 12.79,-8.81 4.06,0 6.1,2.06 7.41,4.68 1.55,2.75 2.15,5.78 2.15,11.69 0,8.67 -3.11,19.94 -7.77,26.13 -3.11,4.13 -7.17,7.15 -11.95,7.15z"/>
   <path class="fil7" d="M369.11 127.63c0,-6.88 -1.91,-11.96 -4.66,-15.13 -2.27,-2.61 -5.62,-4.13 -9.45,-4.13 -4.66,0 -9.92,1.51 -15.3,7.43 -7.41,8.25 -12.31,21.32 -12.31,34.52 0,5.23 1.55,9.76 3.46,12.52 2.03,2.89 5.5,5.25 10.52,5.25 7.05,0 11.95,-3.05 16.25,-8 8.13,-9.49 11.47,-21.73 11.47,-32.46zm-25.94 35.48c-2.99,0 -5.74,-1.1 -7.29,-3.99 -1.55,-2.75 -2.27,-5.92 -2.27,-10.59 0,-11.28 3.94,-21.45 6.93,-26.27 3.71,-5.78 8.13,-8.81 12.79,-8.81 4.06,0 6.1,2.06 7.41,4.68 1.55,2.75 2.15,5.78 2.15,11.69 0,8.67 -3.11,19.94 -7.77,26.13 -3.11,4.13 -7.17,7.15 -11.95,7.15z"/>
   <path class="fil6 str2" d="M391.3 77.84c-3.83,18.02 -14.94,72.48 -17.93,86.51 0.84,1.79 2.75,3.6 3.23,3.6 2.75,0 8.96,-0.82 14.58,-3.05 -0.12,-1.51 -0.24,-2.89 -0.6,-4.54 -4.66,1.51 -8.84,2.34 -10.52,2.34 -0.48,0 -0.6,-0.41 -0.48,-0.96 2.99,-15.26 12.31,-59.28 18.65,-89.12 -0.84,-1.1 -1.79,-2.2 -2.63,-2.2 -0.72,0 -6.7,2.34 -16.14,3.71 0,1.38 0.12,2.89 0.36,4.4l11.48 -0.69z"/>
   <path class="fil7" d="M391.3 77.84c-3.83,18.02 -14.94,72.48 -17.93,86.51 0.84,1.79 2.75,3.6 3.23,3.6 2.75,0 8.96,-0.82 14.58,-3.05 -0.12,-1.51 -0.24,-2.89 -0.6,-4.54 -4.66,1.51 -8.84,2.34 -10.52,2.34 -0.48,0 -0.6,-0.41 -0.48,-0.96 2.99,-15.26 12.31,-59.28 18.65,-89.12 -0.84,-1.1 -1.79,-2.2 -2.63,-2.2 -0.72,0 -6.7,2.34 -16.14,3.71 0,1.38 0.12,2.89 0.36,4.4l11.48 -0.69z"/>
   <path class="fil6 str2" d="M391.9 151.01c0,11.69 7.53,17.08 13.75,17.08 5.62,0 12.91,-3.74 18.17,-6.9 -0.36,-1.38 -0.84,-2.89 -1.31,-4.13 -4.78,2.61 -11.11,5.23 -14.94,5.23 -5.5,0 -9.44,-3.16 -9.44,-12.51 0,-9.63 3.82,-21.59 8.37,-28.61 1.91,-2.89 5.5,-6.46 10.16,-6.46 3.35,0 7.29,2.34 8.13,2.75 1.19,-0.96 3.83,-4.54 4.18,-6.74 -1.43,-1.1 -4.54,-2.34 -7.65,-2.34 -8.25,0 -13.51,3.3 -19.12,10.73 -7.53,10.04 -10.28,24.07 -10.28,31.91z"/>
   <path class="fil7" d="M391.9 151.01c0,11.69 7.53,17.08 13.75,17.08 5.62,0 12.91,-3.74 18.17,-6.9 -0.36,-1.38 -0.84,-2.89 -1.31,-4.13 -4.78,2.61 -11.11,5.23 -14.94,5.23 -5.5,0 -9.44,-3.16 -9.44,-12.51 0,-9.63 3.82,-21.59 8.37,-28.61 1.91,-2.89 5.5,-6.46 10.16,-6.46 3.35,0 7.29,2.34 8.13,2.75 1.19,-0.96 3.83,-4.54 4.18,-6.74 -1.43,-1.1 -4.54,-2.34 -7.65,-2.34 -8.25,0 -13.51,3.3 -19.12,10.73 -7.53,10.04 -10.28,24.07 -10.28,31.91z"/>
   <path class="fil6 str2" d="M443.08 77.97c-3.82,18.15 -16.01,76.19 -18.77,88.71 1.91,0 3.82,0 5.62,0 1.2,-5.09 5.14,-23.79 6.46,-29.29 1.91,-7.84 16.85,-22.56 24.62,-22.56 2.99,0 4.18,2.75 4.18,5.64 0,3.99 -1.31,10.04 -2.15,13.62 -1.91,8.39 -5.97,23.11 -8.13,30.12 0.12,1.65 1.91,3.73 2.51,3.73 2.51,0 9.08,-0.96 13.87,-2.91 -0.12,-1.51 -0.36,-2.89 -0.72,-4.4 -4.07,1.24 -7.65,2.06 -8.97,2.06 -0.48,0 -0.83,-0.41 -0.48,-0.96 5.62,-18.02 10.04,-36.03 10.04,-42.64 0,-1.23 -0.12,-2.75 -0.6,-3.85 -1.67,-4.54 -5.26,-6.46 -7.65,-6.88 -4.06,0.14 -13.03,3.44 -24.26,18.02l-0.6 -0.27c2.99,-13.48 9.92,-44.42 11.95,-53.5 -0.72,-1.1 -1.91,-2.2 -2.51,-2.2 -0.84,0 -7.89,2.47 -15.78,4.4 0.12,1.24 0.24,2.61 0.36,3.99l10.99 -0.83z"/>
   <path class="fil7" d="M443.08 77.97c-3.82,18.15 -16.01,76.19 -18.77,88.71 1.91,0 3.82,0 5.62,0 1.2,-5.09 5.14,-23.79 6.46,-29.29 1.91,-7.84 16.85,-22.56 24.62,-22.56 2.99,0 4.18,2.75 4.18,5.64 0,3.99 -1.31,10.04 -2.15,13.62 -1.91,8.39 -5.97,23.11 -8.13,30.12 0.12,1.65 1.91,3.73 2.51,3.73 2.51,0 9.08,-0.96 13.87,-2.91 -0.12,-1.51 -0.36,-2.89 -0.72,-4.4 -4.07,1.24 -7.65,2.06 -8.97,2.06 -0.48,0 -0.83,-0.41 -0.48,-0.96 5.62,-18.02 10.04,-36.03 10.04,-42.64 0,-1.23 -0.12,-2.75 -0.6,-3.85 -1.67,-4.54 -5.26,-6.46 -7.65,-6.88 -4.06,0.14 -13.03,3.44 -24.26,18.02l-0.6 -0.27c2.99,-13.48 9.92,-44.42 11.95,-53.5 -0.72,-1.1 -1.91,-2.2 -2.51,-2.2 -0.84,0 -7.89,2.47 -15.78,4.4 0.12,1.24 0.24,2.61 0.36,3.99l10.99 -0.83z"/>
   <path class="fil6 str2" d="M496.96 86.5c-4.18,0 -7.89,4.81 -9.2,12.65 1.19,0 2.63,0 3.7,0 1.08,-3.99 2.51,-6.74 4.66,-6.74 1.91,0 3.47,1.79 5.38,3.85 1.67,1.65 3.94,3.85 6.21,3.85 5.26,0 8.01,-6.05 8.73,-13.34 -1.08,0 -2.51,0 -3.71,0 -0.59,4.68 -2.03,7.29 -4.06,7.29 -1.43,0 -2.75,-1.37 -4.42,-2.89 -1.91,-1.79 -4.42,-4.68 -7.29,-4.68zm5.02 63.13c-1.55,6.46 -3.11,12.65 -3.71,15.13 0.6,1.51 2.51,3.05 2.87,3.05 2.87,0 8.37,-1.26 13.27,-3.46 -0.24,-1.51 -0.6,-2.89 -0.96,-4.26 -4.3,1.65 -7.77,2.61 -8.73,2.61 -0.36,0 -0.6,-0.28 -0.48,-0.69 2.75,-15.13 8.25,-40.16 11.35,-52.4 -1.43,-0.55 -2.87,-1.1 -4.42,-1.51l-2.51 7.29 -0.72 0c-3.11,-4.26 -7.05,-7.01 -11.47,-7.01 -10.88,0 -19.13,15.54 -22.83,26.95 -2.39,7.56 -3.82,16.09 -3.82,21.46 0,1.93 0.24,3.57 0.95,4.95 1.67,3.57 5.14,6.08 7.65,6.62 3.71,0 11.59,-4.15 22.95,-19l0.6 0.28zm-6.45 -35.48c4.42,0 8.6,2.61 11.48,7.84 -0.72,3.71 -2.87,14.03 -3.71,16.64 -2.39,7.43 -16.97,23.66 -23.31,23.66 -2.15,0 -4.18,-2.06 -4.18,-6.46 0,-7.15 1.79,-16.09 4.54,-23.65 3.11,-8.39 8.6,-18.02 15.18,-18.02z"/>
   <path class="fil7" d="M496.96 86.5c-4.18,0 -7.89,4.81 -9.2,12.65 1.19,0 2.63,0 3.7,0 1.08,-3.99 2.51,-6.74 4.66,-6.74 1.91,0 3.47,1.79 5.38,3.85 1.67,1.65 3.94,3.85 6.21,3.85 5.26,0 8.01,-6.05 8.73,-13.34 -1.08,0 -2.51,0 -3.71,0 -0.59,4.68 -2.03,7.29 -4.06,7.29 -1.43,0 -2.75,-1.37 -4.42,-2.89 -1.91,-1.79 -4.42,-4.68 -7.29,-4.68zm5.02 63.13c-1.55,6.46 -3.11,12.65 -3.71,15.13 0.6,1.51 2.51,3.05 2.87,3.05 2.87,0 8.37,-1.26 13.27,-3.46 -0.24,-1.51 -0.6,-2.89 -0.96,-4.26 -4.3,1.65 -7.77,2.61 -8.73,2.61 -0.36,0 -0.6,-0.28 -0.48,-0.69 2.75,-15.13 8.25,-40.16 11.35,-52.4 -1.43,-0.55 -2.87,-1.1 -4.42,-1.51l-2.51 7.29 -0.72 0c-3.11,-4.26 -7.05,-7.01 -11.47,-7.01 -10.88,0 -19.13,15.54 -22.83,26.95 -2.39,7.56 -3.82,16.09 -3.82,21.46 0,1.93 0.24,3.57 0.95,4.95 1.67,3.57 5.14,6.08 7.65,6.62 3.71,0 11.59,-4.15 22.95,-19l0.6 0.28zm-6.45 -35.48c4.42,0 8.6,2.61 11.48,7.84 -0.72,3.71 -2.87,14.03 -3.71,16.64 -2.39,7.43 -16.97,23.66 -23.31,23.66 -2.15,0 -4.18,-2.06 -4.18,-6.46 0,-7.15 1.79,-16.09 4.54,-23.65 3.11,-8.39 8.6,-18.02 15.18,-18.02z"/>
   <path class="fil6 str2" d="M556.96 127.63c0,-6.88 -1.91,-11.96 -4.66,-15.13 -2.27,-2.61 -5.62,-4.13 -9.44,-4.13 -4.66,0 -9.92,1.51 -15.3,7.43 -7.41,8.25 -12.31,21.32 -12.31,34.52 0,5.23 1.55,9.76 3.46,12.52 2.03,2.89 5.5,5.25 10.52,5.25 7.05,0 11.96,-3.05 16.26,-8 8.13,-9.49 11.47,-21.73 11.47,-32.46zm-25.94 35.48c-2.99,0 -5.74,-1.1 -7.29,-3.99 -1.56,-2.75 -2.27,-5.92 -2.27,-10.59 0,-11.28 3.94,-21.45 6.93,-26.27 3.71,-5.78 8.12,-8.81 12.79,-8.81 4.06,0 6.1,2.06 7.41,4.68 1.55,2.75 2.15,5.78 2.15,11.69 0,8.67 -3.11,19.94 -7.77,26.13 -3.11,4.13 -7.17,7.15 -11.95,7.15z"/>
   <path class="fil7" d="M556.96 127.63c0,-6.88 -1.91,-11.96 -4.66,-15.13 -2.27,-2.61 -5.62,-4.13 -9.44,-4.13 -4.66,0 -9.92,1.51 -15.3,7.43 -7.41,8.25 -12.31,21.32 -12.31,34.52 0,5.23 1.55,9.76 3.46,12.52 2.03,2.89 5.5,5.25 10.52,5.25 7.05,0 11.96,-3.05 16.26,-8 8.13,-9.49 11.47,-21.73 11.47,-32.46zm-25.94 35.48c-2.99,0 -5.74,-1.1 -7.29,-3.99 -1.56,-2.75 -2.27,-5.92 -2.27,-10.59 0,-11.28 3.94,-21.45 6.93,-26.27 3.71,-5.78 8.12,-8.81 12.79,-8.81 4.06,0 6.1,2.06 7.41,4.68 1.55,2.75 2.15,5.78 2.15,11.69 0,8.67 -3.11,19.94 -7.77,26.13 -3.11,4.13 -7.17,7.15 -11.95,7.15z"/>
   <path class="fil6 str2" d="M317.96 100.19c1.55,-0.14 3.35,-0.14 4.66,-0.28 0.84,-7.43 1.67,-14.85 2.51,-22.28 -2.39,-1.37 -8.13,-3.02 -14.82,-3.02 -7.41,0 -16.97,1.79 -26.18,9.76 -10.64,8.94 -20.56,26.4 -20.56,46.62 0,10.45 2.39,20.08 8.49,26.82 5.38,5.91 12.43,8.96 20.44,8.96 6.09,0 13.86,-2.23 23.43,-6.07 0,-1.79 -0.24,-3.71 -0.48,-5.23 -6.22,2.47 -14.34,5.64 -21.99,5.64 -8.36,0 -15.3,-4.68 -18.88,-10.73 -3.23,-5.23 -4.54,-12.52 -4.54,-21.18 0,-12.79 4.9,-28.6 15.78,-39.61 6.1,-6.19 13.74,-9.21 21.4,-9.21 4.3,0 8.36,0.69 10.76,2.34 0.36,0.14 0.48,0.83 0.48,1.65l-0.48 15.82z"/>
   <path class="fil3" d="M317.96 100.19c1.55,-0.14 3.35,-0.14 4.66,-0.28 0.84,-7.43 1.67,-14.85 2.51,-22.28 -2.39,-1.37 -8.13,-3.02 -14.82,-3.02 -7.41,0 -16.97,1.79 -26.18,9.76 -10.64,8.94 -20.56,26.4 -20.56,46.62 0,10.45 2.39,20.08 8.49,26.82 5.38,5.91 12.43,8.96 20.44,8.96 6.09,0 13.86,-2.23 23.43,-6.07 0,-1.79 -0.24,-3.71 -0.48,-5.23 -6.22,2.47 -14.34,5.64 -21.99,5.64 -8.36,0 -15.3,-4.68 -18.88,-10.73 -3.23,-5.23 -4.54,-12.52 -4.54,-21.18 0,-12.79 4.9,-28.6 15.78,-39.61 6.1,-6.19 13.74,-9.21 21.4,-9.21 4.3,0 8.36,0.69 10.76,2.34 0.36,0.14 0.48,0.83 0.48,1.65l-0.48 15.82z"/>
   <path class="fil6 str2" d="M369.11 126.32c0,-6.88 -1.91,-11.97 -4.66,-15.13 -2.27,-2.61 -5.62,-4.13 -9.45,-4.13 -4.66,0 -9.92,1.51 -15.3,7.43 -7.41,8.25 -12.31,21.32 -12.31,34.52 0,5.23 1.55,9.77 3.46,12.52 2.03,2.89 5.5,5.25 10.52,5.25 7.05,0 11.95,-3.05 16.25,-8 8.13,-9.49 11.47,-21.73 11.47,-32.46zm-25.94 35.48c-2.99,0 -5.74,-1.1 -7.29,-3.99 -1.55,-2.75 -2.27,-5.91 -2.27,-10.59 0,-11.28 3.94,-21.45 6.93,-26.27 3.71,-5.78 8.13,-8.8 12.79,-8.8 4.06,0 6.1,2.06 7.41,4.68 1.55,2.75 2.15,5.78 2.15,11.69 0,8.67 -3.11,19.94 -7.77,26.13 -3.11,4.13 -7.17,7.15 -11.95,7.15z"/>
   <path class="fil3" d="M369.11 126.32c0,-6.88 -1.91,-11.97 -4.66,-15.13 -2.27,-2.61 -5.62,-4.13 -9.45,-4.13 -4.66,0 -9.92,1.51 -15.3,7.43 -7.41,8.25 -12.31,21.32 -12.31,34.52 0,5.23 1.55,9.77 3.46,12.52 2.03,2.89 5.5,5.25 10.52,5.25 7.05,0 11.95,-3.05 16.25,-8 8.13,-9.49 11.47,-21.73 11.47,-32.46zm-25.94 35.48c-2.99,0 -5.74,-1.1 -7.29,-3.99 -1.55,-2.75 -2.27,-5.91 -2.27,-10.59 0,-11.28 3.94,-21.45 6.93,-26.27 3.71,-5.78 8.13,-8.8 12.79,-8.8 4.06,0 6.1,2.06 7.41,4.68 1.55,2.75 2.15,5.78 2.15,11.69 0,8.67 -3.11,19.94 -7.77,26.13 -3.11,4.13 -7.17,7.15 -11.95,7.15z"/>
   <path class="fil6 str2" d="M391.3 76.53c-3.83,18.02 -14.94,72.48 -17.93,86.51 0.84,1.79 2.75,3.6 3.23,3.6 2.75,0 8.96,-0.83 14.58,-3.05 -0.12,-1.51 -0.24,-2.89 -0.6,-4.54 -4.66,1.51 -8.84,2.34 -10.52,2.34 -0.48,0 -0.6,-0.41 -0.48,-0.96 2.99,-15.27 12.31,-59.28 18.65,-89.12 -0.84,-1.1 -1.79,-2.2 -2.63,-2.2 -0.72,0 -6.7,2.34 -16.14,3.71 0,1.38 0.12,2.89 0.36,4.4l11.48 -0.69z"/>
   <path class="fil3" d="M391.3 76.53c-3.83,18.02 -14.94,72.48 -17.93,86.51 0.84,1.79 2.75,3.6 3.23,3.6 2.75,0 8.96,-0.83 14.58,-3.05 -0.12,-1.51 -0.24,-2.89 -0.6,-4.54 -4.66,1.51 -8.84,2.34 -10.52,2.34 -0.48,0 -0.6,-0.41 -0.48,-0.96 2.99,-15.27 12.31,-59.28 18.65,-89.12 -0.84,-1.1 -1.79,-2.2 -2.63,-2.2 -0.72,0 -6.7,2.34 -16.14,3.71 0,1.38 0.12,2.89 0.36,4.4l11.48 -0.69z"/>
   <path class="fil6 str2" d="M391.9 149.7c0,11.69 7.53,17.08 13.75,17.08 5.62,0 12.91,-3.73 18.17,-6.9 -0.36,-1.38 -0.84,-2.89 -1.31,-4.13 -4.78,2.61 -11.11,5.22 -14.94,5.22 -5.5,0 -9.44,-3.16 -9.44,-12.51 0,-9.63 3.82,-21.59 8.37,-28.61 1.91,-2.89 5.5,-6.46 10.16,-6.46 3.35,0 7.29,2.34 8.13,2.75 1.19,-0.96 3.83,-4.54 4.18,-6.74 -1.43,-1.1 -4.54,-2.34 -7.65,-2.34 -8.25,0 -13.51,3.3 -19.12,10.73 -7.53,10.04 -10.28,24.07 -10.28,31.91z"/>
   <path class="fil3" d="M391.9 149.7c0,11.69 7.53,17.08 13.75,17.08 5.62,0 12.91,-3.73 18.17,-6.9 -0.36,-1.38 -0.84,-2.89 -1.31,-4.13 -4.78,2.61 -11.11,5.22 -14.94,5.22 -5.5,0 -9.44,-3.16 -9.44,-12.51 0,-9.63 3.82,-21.59 8.37,-28.61 1.91,-2.89 5.5,-6.46 10.16,-6.46 3.35,0 7.29,2.34 8.13,2.75 1.19,-0.96 3.83,-4.54 4.18,-6.74 -1.43,-1.1 -4.54,-2.34 -7.65,-2.34 -8.25,0 -13.51,3.3 -19.12,10.73 -7.53,10.04 -10.28,24.07 -10.28,31.91z"/>
   <path class="fil6 str2" d="M443.08 76.67c-3.82,18.15 -16.01,76.19 -18.77,88.71 1.91,0 3.82,0 5.62,0 1.2,-5.09 5.14,-23.79 6.46,-29.29 1.91,-7.84 16.85,-22.56 24.62,-22.56 2.99,0 4.18,2.75 4.18,5.64 0,3.99 -1.31,10.04 -2.15,13.61 -1.91,8.39 -5.97,23.11 -8.13,30.12 0.12,1.65 1.91,3.74 2.51,3.74 2.51,0 9.08,-0.96 13.87,-2.91 -0.12,-1.51 -0.36,-2.89 -0.72,-4.4 -4.07,1.24 -7.65,2.06 -8.97,2.06 -0.48,0 -0.83,-0.41 -0.48,-0.96 5.62,-18.02 10.04,-36.03 10.04,-42.64 0,-1.24 -0.12,-2.75 -0.6,-3.85 -1.67,-4.54 -5.26,-6.46 -7.65,-6.88 -4.06,0.14 -13.03,3.44 -24.26,18.02l-0.6 -0.28c2.99,-13.48 9.92,-44.42 11.95,-53.5 -0.72,-1.1 -1.91,-2.2 -2.51,-2.2 -0.84,0 -7.89,2.48 -15.78,4.4 0.12,1.24 0.24,2.61 0.36,3.99l10.99 -0.83z"/>
   <path class="fil3" d="M443.08 76.67c-3.82,18.15 -16.01,76.19 -18.77,88.71 1.91,0 3.82,0 5.62,0 1.2,-5.09 5.14,-23.79 6.46,-29.29 1.91,-7.84 16.85,-22.56 24.62,-22.56 2.99,0 4.18,2.75 4.18,5.64 0,3.99 -1.31,10.04 -2.15,13.61 -1.91,8.39 -5.97,23.11 -8.13,30.12 0.12,1.65 1.91,3.74 2.51,3.74 2.51,0 9.08,-0.96 13.87,-2.91 -0.12,-1.51 -0.36,-2.89 -0.72,-4.4 -4.07,1.24 -7.65,2.06 -8.97,2.06 -0.48,0 -0.83,-0.41 -0.48,-0.96 5.62,-18.02 10.04,-36.03 10.04,-42.64 0,-1.24 -0.12,-2.75 -0.6,-3.85 -1.67,-4.54 -5.26,-6.46 -7.65,-6.88 -4.06,0.14 -13.03,3.44 -24.26,18.02l-0.6 -0.28c2.99,-13.48 9.92,-44.42 11.95,-53.5 -0.72,-1.1 -1.91,-2.2 -2.51,-2.2 -0.84,0 -7.89,2.48 -15.78,4.4 0.12,1.24 0.24,2.61 0.36,3.99l10.99 -0.83z"/>
   <path class="fil6 str2" d="M496.96 85.2c-4.18,0 -7.89,4.81 -9.2,12.65 1.19,0 2.63,0 3.7,0 1.08,-3.99 2.51,-6.74 4.66,-6.74 1.91,0 3.47,1.79 5.38,3.85 1.67,1.65 3.94,3.85 6.21,3.85 5.26,0 8.01,-6.05 8.73,-13.34 -1.08,0 -2.51,0 -3.71,0 -0.59,4.68 -2.03,7.29 -4.06,7.29 -1.43,0 -2.75,-1.38 -4.42,-2.89 -1.91,-1.79 -4.42,-4.68 -7.29,-4.68zm5.02 63.13c-1.55,6.46 -3.11,12.65 -3.71,15.13 0.6,1.51 2.51,3.05 2.87,3.05 2.87,0 8.37,-1.26 13.27,-3.46 -0.24,-1.52 -0.6,-2.89 -0.96,-4.27 -4.3,1.65 -7.77,2.61 -8.73,2.61 -0.36,0 -0.6,-0.28 -0.48,-0.69 2.75,-15.13 8.25,-40.16 11.35,-52.4 -1.43,-0.55 -2.87,-1.1 -4.42,-1.51l-2.51 7.29 -0.72 0c-3.11,-4.26 -7.05,-7.01 -11.47,-7.01 -10.88,0 -19.13,15.54 -22.83,26.96 -2.39,7.56 -3.82,16.09 -3.82,21.45 0,1.93 0.24,3.58 0.95,4.95 1.67,3.57 5.14,6.07 7.65,6.62 3.71,0 11.59,-4.15 22.95,-19l0.6 0.27zm-6.45 -35.48c4.42,0 8.6,2.61 11.48,7.84 -0.72,3.71 -2.87,14.03 -3.71,16.64 -2.39,7.42 -16.97,23.65 -23.31,23.65 -2.15,0 -4.18,-2.06 -4.18,-6.46 0,-7.15 1.79,-16.09 4.54,-23.66 3.11,-8.39 8.6,-18.02 15.18,-18.02z"/>
   <path class="fil3" d="M496.96 85.2c-4.18,0 -7.89,4.81 -9.2,12.65 1.19,0 2.63,0 3.7,0 1.08,-3.99 2.51,-6.74 4.66,-6.74 1.91,0 3.47,1.79 5.38,3.85 1.67,1.65 3.94,3.85 6.21,3.85 5.26,0 8.01,-6.05 8.73,-13.34 -1.08,0 -2.51,0 -3.71,0 -0.59,4.68 -2.03,7.29 -4.06,7.29 -1.43,0 -2.75,-1.38 -4.42,-2.89 -1.91,-1.79 -4.42,-4.68 -7.29,-4.68zm5.02 63.13c-1.55,6.46 -3.11,12.65 -3.71,15.13 0.6,1.51 2.51,3.05 2.87,3.05 2.87,0 8.37,-1.26 13.27,-3.46 -0.24,-1.52 -0.6,-2.89 -0.96,-4.27 -4.3,1.65 -7.77,2.61 -8.73,2.61 -0.36,0 -0.6,-0.28 -0.48,-0.69 2.75,-15.13 8.25,-40.16 11.35,-52.4 -1.43,-0.55 -2.87,-1.1 -4.42,-1.51l-2.51 7.29 -0.72 0c-3.11,-4.26 -7.05,-7.01 -11.47,-7.01 -10.88,0 -19.13,15.54 -22.83,26.96 -2.39,7.56 -3.82,16.09 -3.82,21.45 0,1.93 0.24,3.58 0.95,4.95 1.67,3.57 5.14,6.07 7.65,6.62 3.71,0 11.59,-4.15 22.95,-19l0.6 0.27zm-6.45 -35.48c4.42,0 8.6,2.61 11.48,7.84 -0.72,3.71 -2.87,14.03 -3.71,16.64 -2.39,7.42 -16.97,23.65 -23.31,23.65 -2.15,0 -4.18,-2.06 -4.18,-6.46 0,-7.15 1.79,-16.09 4.54,-23.66 3.11,-8.39 8.6,-18.02 15.18,-18.02z"/>
   <path class="fil6 str2" d="M556.96 126.32c0,-6.88 -1.91,-11.97 -4.66,-15.13 -2.27,-2.61 -5.62,-4.13 -9.44,-4.13 -4.66,0 -9.92,1.51 -15.3,7.43 -7.41,8.25 -12.31,21.32 -12.31,34.52 0,5.23 1.55,9.77 3.46,12.52 2.03,2.89 5.5,5.25 10.52,5.25 7.05,0 11.96,-3.05 16.26,-8 8.13,-9.49 11.47,-21.73 11.47,-32.46zm-25.94 35.48c-2.99,0 -5.74,-1.1 -7.29,-3.99 -1.56,-2.75 -2.27,-5.91 -2.27,-10.59 0,-11.28 3.94,-21.45 6.93,-26.27 3.71,-5.78 8.12,-8.8 12.79,-8.8 4.06,0 6.1,2.06 7.41,4.68 1.55,2.75 2.15,5.78 2.15,11.69 0,8.67 -3.11,19.94 -7.77,26.13 -3.11,4.13 -7.17,7.15 -11.95,7.15z"/>
   <path class="fil3" d="M556.96 126.32c0,-6.88 -1.91,-11.97 -4.66,-15.13 -2.27,-2.61 -5.62,-4.13 -9.44,-4.13 -4.66,0 -9.92,1.51 -15.3,7.43 -7.41,8.25 -12.31,21.32 -12.31,34.52 0,5.23 1.55,9.77 3.46,12.52 2.03,2.89 5.5,5.25 10.52,5.25 7.05,0 11.96,-3.05 16.26,-8 8.13,-9.49 11.47,-21.73 11.47,-32.46zm-25.94 35.48c-2.99,0 -5.74,-1.1 -7.29,-3.99 -1.56,-2.75 -2.27,-5.91 -2.27,-10.59 0,-11.28 3.94,-21.45 6.93,-26.27 3.71,-5.78 8.12,-8.8 12.79,-8.8 4.06,0 6.1,2.06 7.41,4.68 1.55,2.75 2.15,5.78 2.15,11.69 0,8.67 -3.11,19.94 -7.77,26.13 -3.11,4.13 -7.17,7.15 -11.95,7.15z"/>
   <path class="fil6 str3" d="M359.34 258.35c4.28,3.24 9.02,7.25 14.43,8.57 2.97,0.73 5.89,0.88 8.61,0.19 21.22,-5.34 25.34,-57.56 20.55,-73.1 -2.36,-4.84 -6.42,-6.16 -12.03,-6.54 -4.62,-0.31 -10.71,0.78 -15.26,3.37 -4.87,2.77 -8.11,7.17 -9.93,10.63 -1.41,2.69 -1.49,4.12 -1.72,7.08 -0.27,3.52 0.2,11.07 2.69,17.7 1.8,4.79 6.92,10.87 7.73,13.76 0.42,1.52 -0.89,2.87 -3.3,1.17 -6.09,-4.3 -10.45,-22.99 -10.05,-27.62 1.27,-14.5 6.4,-21.94 16.41,-25.75 15.03,-5.71 31.25,-2.25 36.64,13.32l10.1 30.73c4.15,-10.31 11.09,-36.67 24.19,-39.91 5.25,-1.3 8.48,0.45 13.43,1.86l-7.44 -0.66c-3.09,-0.27 -5.22,0.77 -7.36,2.34 -0.94,0.7 -1.33,1.09 -1.96,2.04 -1.23,1.9 -2.08,3.37 -2.85,5.2 -3.72,8.78 0.17,20.93 3.92,30.86 4.18,11.05 8.95,20.27 15.02,28.67 4.07,5.64 8.47,11.03 13.44,16.86 1.83,2.15 3.69,3.67 5.89,5.49l6.86 5.63c-9.01,-0.49 -20.27,-4.19 -26.31,-10.87 -4.74,-5.25 -8.45,-9.97 -11.57,-15.15 -3.18,-5.27 -6.71,-11.49 -8.03,-17.48l-3 -10.61c-1.06,-3.73 -1.89,-6.94 -2.36,-10.78l-0.8 -6.53c-0.43,-1.98 -2.17,-0.33 -2.47,0.91l-8.93 35.64 -14.34 -39.94c-0.58,-1.62 -1.69,-1.35 -1.99,0.37 -0.99,5.74 -1.51,11.4 -2.72,16.92 -1.3,5.95 -3.33,11.76 -4.95,17.83l-1.51 4.15c-4.26,8.43 -12.12,28.16 -25.01,23.47 -7.09,-2.58 -10.97,-13.73 -14.03,-19.86z"/>
   <path class="fil7" d="M359.34 258.35c4.28,3.24 9.02,7.25 14.43,8.57 2.97,0.73 5.89,0.88 8.61,0.19 21.22,-5.34 25.34,-57.56 20.55,-73.1 -2.36,-4.84 -6.42,-6.16 -12.03,-6.54 -4.62,-0.31 -10.71,0.78 -15.26,3.37 -4.87,2.77 -8.11,7.17 -9.93,10.63 -1.41,2.69 -1.49,4.12 -1.72,7.08 -0.27,3.52 0.2,11.07 2.69,17.7 1.8,4.79 6.92,10.87 7.73,13.76 0.42,1.52 -0.89,2.87 -3.3,1.17 -6.09,-4.3 -10.45,-22.99 -10.05,-27.62 1.27,-14.5 6.4,-21.94 16.41,-25.75 15.03,-5.71 31.25,-2.25 36.64,13.32l10.1 30.73c4.15,-10.31 11.09,-36.67 24.19,-39.91 5.25,-1.3 8.48,0.45 13.43,1.86l-7.44 -0.66c-3.09,-0.27 -5.22,0.77 -7.36,2.34 -0.94,0.7 -1.33,1.09 -1.96,2.04 -1.23,1.9 -2.08,3.37 -2.85,5.2 -3.72,8.78 0.17,20.93 3.92,30.86 4.18,11.05 8.95,20.27 15.02,28.67 4.07,5.64 8.47,11.03 13.44,16.86 1.83,2.15 3.69,3.67 5.89,5.49l6.86 5.63c-9.01,-0.49 -20.27,-4.19 -26.31,-10.87 -4.74,-5.25 -8.45,-9.97 -11.57,-15.15 -3.18,-5.27 -6.71,-11.49 -8.03,-17.48l-3 -10.61c-1.06,-3.73 -1.89,-6.94 -2.36,-10.78l-0.8 -6.53c-0.43,-1.98 -2.17,-0.33 -2.47,0.91l-8.93 35.64 -14.34 -39.94c-0.58,-1.62 -1.69,-1.35 -1.99,0.37 -0.99,5.74 -1.51,11.4 -2.72,16.92 -1.3,5.95 -3.33,11.76 -4.95,17.83l-1.51 4.15c-4.26,8.43 -12.12,28.16 -25.01,23.47 -7.09,-2.58 -10.97,-13.73 -14.03,-19.86z"/>
   <path class="fil6 str3" d="M498.9 227.16l-0.44 0c-0.42,-0.74 -0.97,-1.61 -1.61,-2.36 -2.09,-2.61 -5.17,-5.34 -11.12,-5.34 -16.65,0 -24.42,26.83 -22.41,43.35 1.04,8.57 4.9,14.06 11.19,14.06 9.81,0 16.26,-13.19 20.1,-24.25 0.42,-1.12 0.79,-2.61 1.17,-3.97l0.34 0.12c-0.07,1.24 -0.2,2.86 -0.34,4.47 -0.46,7.08 -1.06,16.65 -1.11,19.88 -0.02,0.74 -0.04,1.49 0.02,1.99 0.12,1.01 0.88,1.76 2.31,1.76 3.53,0 8.05,-0.87 10.79,-2.88 0.1,-0.13 0.19,-0.25 0.18,-0.37 -0.04,-0.37 -0.45,-0.99 -0.88,-0.87 -1.37,0.5 -3.09,0.87 -4.31,0.87 -0.99,0 -1.3,-0.74 -1.25,-2.11 0.21,-3.73 0.98,-12.8 1.29,-18.38 0.56,-8.07 1.9,-26.09 2.37,-31.31 0.07,-1.24 -1.34,-1.99 -1.79,-1.99 -0.22,0 -0.32,0.13 -0.41,0.25l-4.1 7.08zm-12.79 -5.46c5.4,0 8.6,6.33 9.74,10.31 0.22,0.87 0.32,1.74 0.44,2.73 0.14,1.12 0.03,2.98 -0.31,4.72 -2.36,12.3 -9.37,31.8 -17.52,31.8 -3.53,0 -5.97,-3.73 -6.74,-10.06 -1.53,-12.55 2.48,-39.5 14.28,-39.5l0.11 0zm37.57 -21.12c-3.41,0 -4.99,3.35 -4.65,6.21 0.33,2.73 2.64,4.47 4.73,4.47 3.31,0 5.02,-3.11 4.66,-6.09 -0.23,-1.86 -1.55,-4.6 -4.64,-4.6l-0.11 0zm2.29 18.88c-4.41,0 -10.34,1.99 -12.68,3.6 -0.21,0.12 -0.32,0.12 -0.29,0.37 0.06,0.5 0.7,1.24 1.24,1.12 1.36,-0.62 2.95,-1.12 3.83,-1.12 0.88,0 1.4,0.62 1.41,2.49 -0.09,3.85 -0.26,12.42 -0.58,22.48 -0.29,9.44 -0.68,21.62 -0.67,24.47 -0.04,0.62 -0.02,1.61 0.04,2.11 0.12,1.02 0.67,1.89 2.21,1.89 3.53,0 8.59,-1.02 11.21,-3 0.11,0 0.21,-0.13 0.19,-0.25 -0.06,-0.5 -0.47,-1.12 -0.89,-0.99 -1.58,0.62 -3.2,0.87 -4.41,0.87 -1.11,0 -1.52,-0.74 -1.49,-2.24 0.26,-4.22 1.01,-14.41 1.36,-22.36 0.55,-9.07 1.38,-20.37 1.79,-26.08 0.17,-2.24 -0.63,-3.35 -2.17,-3.35l-0.11 0zm23.29 57.41c11.36,0 20.92,-7.48 19.59,-18.41 -0.78,-6.46 -5.46,-10.43 -12.33,-14.41 -5.46,-3.23 -8.91,-6.21 -9.51,-11.18 -0.65,-5.34 2.75,-10.93 9.92,-10.93 4.41,0 7.69,4.35 8.9,9.69 0.03,0.25 0.14,0.25 0.36,0.25 0.77,0 1.42,-0.12 1.58,-0.62 0.5,-1.37 0.7,-3.35 0.48,-5.09 -0.53,-4.35 -3.57,-6.71 -9.85,-6.71 -10.48,0 -19.84,8.2 -18.67,17.89 0.69,5.72 5.05,9.81 11.54,13.29 6.12,3.23 10.5,6.58 11.18,12.17 0.89,6.46 -3.68,11.43 -11.29,11.43 -5.4,0 -9.18,-3.85 -10.48,-10.06 -0.03,-0.25 -0.16,-0.37 -0.49,-0.37 -0.55,0 -1.29,0.25 -1.44,0.87 -0.4,1.24 -0.57,3.48 -0.44,5.47 0.57,4.72 3.9,6.73 10.85,6.73l0.11 0z"/>
   <path class="fil7" d="M498.9 227.16l-0.44 0c-0.42,-0.74 -0.97,-1.61 -1.61,-2.36 -2.09,-2.61 -5.17,-5.34 -11.12,-5.34 -16.65,0 -24.42,26.83 -22.41,43.35 1.04,8.57 4.9,14.06 11.19,14.06 9.81,0 16.26,-13.19 20.1,-24.25 0.42,-1.12 0.79,-2.61 1.17,-3.97l0.34 0.12c-0.07,1.24 -0.2,2.86 -0.34,4.47 -0.46,7.08 -1.06,16.65 -1.11,19.88 -0.02,0.74 -0.04,1.49 0.02,1.99 0.12,1.01 0.88,1.76 2.31,1.76 3.53,0 8.05,-0.87 10.79,-2.88 0.1,-0.13 0.19,-0.25 0.18,-0.37 -0.04,-0.37 -0.45,-0.99 -0.88,-0.87 -1.37,0.5 -3.09,0.87 -4.31,0.87 -0.99,0 -1.3,-0.74 -1.25,-2.11 0.21,-3.73 0.98,-12.8 1.29,-18.38 0.56,-8.07 1.9,-26.09 2.37,-31.31 0.07,-1.24 -1.34,-1.99 -1.79,-1.99 -0.22,0 -0.32,0.13 -0.41,0.25l-4.1 7.08zm-12.79 -5.46c5.4,0 8.6,6.33 9.74,10.31 0.22,0.87 0.32,1.74 0.44,2.73 0.14,1.12 0.03,2.98 -0.31,4.72 -2.36,12.3 -9.37,31.8 -17.52,31.8 -3.53,0 -5.97,-3.73 -6.74,-10.06 -1.53,-12.55 2.48,-39.5 14.28,-39.5l0.11 0zm37.57 -21.12c-3.41,0 -4.99,3.35 -4.65,6.21 0.33,2.73 2.64,4.47 4.73,4.47 3.31,0 5.02,-3.11 4.66,-6.09 -0.23,-1.86 -1.55,-4.6 -4.64,-4.6l-0.11 0zm2.29 18.88c-4.41,0 -10.34,1.99 -12.68,3.6 -0.21,0.12 -0.32,0.12 -0.29,0.37 0.06,0.5 0.7,1.24 1.24,1.12 1.36,-0.62 2.95,-1.12 3.83,-1.12 0.88,0 1.4,0.62 1.41,2.49 -0.09,3.85 -0.26,12.42 -0.58,22.48 -0.29,9.44 -0.68,21.62 -0.67,24.47 -0.04,0.62 -0.02,1.61 0.04,2.11 0.12,1.02 0.67,1.89 2.21,1.89 3.53,0 8.59,-1.02 11.21,-3 0.11,0 0.21,-0.13 0.19,-0.25 -0.06,-0.5 -0.47,-1.12 -0.89,-0.99 -1.58,0.62 -3.2,0.87 -4.41,0.87 -1.11,0 -1.52,-0.74 -1.49,-2.24 0.26,-4.22 1.01,-14.41 1.36,-22.36 0.55,-9.07 1.38,-20.37 1.79,-26.08 0.17,-2.24 -0.63,-3.35 -2.17,-3.35l-0.11 0zm23.29 57.41c11.36,0 20.92,-7.48 19.59,-18.41 -0.78,-6.46 -5.46,-10.43 -12.33,-14.41 -5.46,-3.23 -8.91,-6.21 -9.51,-11.18 -0.65,-5.34 2.75,-10.93 9.92,-10.93 4.41,0 7.69,4.35 8.9,9.69 0.03,0.25 0.14,0.25 0.36,0.25 0.77,0 1.42,-0.12 1.58,-0.62 0.5,-1.37 0.7,-3.35 0.48,-5.09 -0.53,-4.35 -3.57,-6.71 -9.85,-6.71 -10.48,0 -19.84,8.2 -18.67,17.89 0.69,5.72 5.05,9.81 11.54,13.29 6.12,3.23 10.5,6.58 11.18,12.17 0.89,6.46 -3.68,11.43 -11.29,11.43 -5.4,0 -9.18,-3.85 -10.48,-10.06 -0.03,-0.25 -0.16,-0.37 -0.49,-0.37 -0.55,0 -1.29,0.25 -1.44,0.87 -0.4,1.24 -0.57,3.48 -0.44,5.47 0.57,4.72 3.9,6.73 10.85,6.73l0.11 0z"/>
   <path class="fil3" d="M359.34 256.36c4.28,3.24 9.02,7.25 14.43,8.57 2.97,0.73 5.89,0.88 8.61,0.19 21.22,-5.34 25.34,-57.57 20.55,-73.1 -2.36,-4.84 -6.42,-6.16 -12.03,-6.54 -4.62,-0.3 -10.71,0.78 -15.26,3.37 -4.87,2.77 -8.11,7.17 -9.93,10.64 -1.41,2.69 -1.49,4.12 -1.72,7.09 -0.27,3.52 0.2,11.06 2.69,17.7 1.8,4.79 6.92,10.87 7.73,13.76 0.42,1.51 -0.89,2.87 -3.3,1.17 -6.09,-4.3 -10.45,-22.98 -10.05,-27.62 1.27,-14.5 6.4,-21.94 16.41,-25.75 15.03,-5.72 31.25,-2.25 36.64,13.32l10.1 30.73c4.15,-10.31 11.09,-36.67 24.19,-39.91 5.25,-1.3 8.48,0.45 13.43,1.86l-7.44 -0.66c-3.09,-0.27 -5.22,0.76 -7.36,2.34 -0.94,0.7 -1.33,1.09 -1.96,2.04 -1.23,1.9 -2.08,3.37 -2.85,5.2 -3.72,8.78 0.17,20.93 3.92,30.86 4.18,11.04 8.95,20.26 15.02,28.66 4.07,5.64 8.47,11.03 13.44,16.86 1.83,2.15 3.69,3.67 5.89,5.49l6.86 5.63c-9.01,-0.48 -20.27,-4.19 -26.31,-10.87 -4.74,-5.25 -8.45,-9.98 -11.57,-15.15 -3.18,-5.27 -6.71,-11.49 -8.03,-17.48l-3 -10.61c-1.06,-3.73 -1.89,-6.94 -2.36,-10.78l-0.8 -6.53c-0.43,-1.98 -2.17,-0.33 -2.47,0.91l-8.93 35.64 -14.34 -39.94c-0.58,-1.62 -1.69,-1.35 -1.99,0.37 -0.99,5.74 -1.51,11.4 -2.72,16.92 -1.3,5.95 -3.33,11.76 -4.95,17.83l-1.51 4.15c-4.26,8.43 -12.12,28.16 -25.01,23.47 -7.09,-2.58 -10.97,-13.73 -14.03,-19.86z"/>
   <path class="fil3" d="M498.9 225.17l-0.44 0c-0.42,-0.75 -0.97,-1.62 -1.61,-2.36 -2.09,-2.61 -5.17,-5.34 -11.12,-5.34 -16.65,0 -24.42,26.83 -22.41,43.35 1.04,8.57 4.9,14.06 11.19,14.06 9.81,0 16.26,-13.19 20.1,-24.24 0.42,-1.12 0.79,-2.61 1.17,-3.97l0.34 0.12c-0.07,1.24 -0.2,2.86 -0.34,4.47 -0.46,7.08 -1.06,16.64 -1.11,19.87 -0.02,0.75 -0.04,1.49 0.02,1.99 0.12,1.01 0.88,1.76 2.31,1.76 3.53,0 8.05,-0.87 10.79,-2.88 0.1,-0.12 0.19,-0.25 0.18,-0.37 -0.04,-0.37 -0.45,-0.99 -0.88,-0.87 -1.37,0.5 -3.09,0.87 -4.31,0.87 -0.99,0 -1.3,-0.74 -1.25,-2.11 0.21,-3.73 0.98,-12.8 1.29,-18.38 0.56,-8.08 1.9,-26.09 2.37,-31.31 0.07,-1.24 -1.34,-1.99 -1.79,-1.99 -0.22,0 -0.32,0.12 -0.41,0.25l-4.1 7.08zm-12.79 -5.47c5.4,0 8.6,6.34 9.74,10.31 0.22,0.87 0.32,1.74 0.44,2.73 0.14,1.12 0.03,2.98 -0.31,4.72 -2.36,12.3 -9.37,31.8 -17.52,31.8 -3.53,0 -5.97,-3.73 -6.74,-10.06 -1.53,-12.55 2.48,-39.5 14.28,-39.5l0.11 0zm37.57 -21.12c-3.41,0 -4.99,3.35 -4.65,6.21 0.33,2.73 2.64,4.47 4.73,4.47 3.31,0 5.02,-3.11 4.66,-6.09 -0.23,-1.86 -1.55,-4.6 -4.64,-4.6l-0.11 0zm2.29 18.88c-4.41,0 -10.34,1.99 -12.68,3.6 -0.21,0.12 -0.32,0.12 -0.29,0.37 0.06,0.5 0.7,1.24 1.24,1.12 1.36,-0.62 2.95,-1.12 3.83,-1.12 0.88,0 1.4,0.62 1.41,2.48 -0.09,3.85 -0.26,12.42 -0.58,22.48 -0.29,9.44 -0.68,21.61 -0.67,24.47 -0.04,0.62 -0.02,1.62 0.04,2.11 0.12,1.01 0.67,1.89 2.21,1.89 3.53,0 8.59,-1.01 11.21,-3 0.11,0 0.21,-0.12 0.19,-0.25 -0.06,-0.5 -0.47,-1.12 -0.89,-0.99 -1.58,0.62 -3.2,0.87 -4.41,0.87 -1.11,0 -1.52,-0.74 -1.49,-2.24 0.26,-4.22 1.01,-14.41 1.36,-22.36 0.55,-9.07 1.38,-20.37 1.79,-26.08 0.17,-2.23 -0.63,-3.35 -2.17,-3.35l-0.11 0zm23.29 57.41c11.36,0 20.92,-7.47 19.59,-18.41 -0.78,-6.46 -5.46,-10.43 -12.33,-14.41 -5.46,-3.23 -8.91,-6.21 -9.51,-11.18 -0.65,-5.34 2.75,-10.93 9.92,-10.93 4.41,0 7.69,4.35 8.9,9.69 0.03,0.25 0.14,0.25 0.36,0.25 0.77,0 1.42,-0.12 1.58,-0.62 0.5,-1.37 0.7,-3.36 0.48,-5.1 -0.53,-4.35 -3.57,-6.71 -9.85,-6.71 -10.48,0 -19.84,8.2 -18.67,17.89 0.69,5.72 5.05,9.81 11.54,13.29 6.12,3.23 10.5,6.58 11.18,12.17 0.89,6.46 -3.68,11.43 -11.29,11.43 -5.4,0 -9.18,-3.85 -10.48,-10.06 -0.03,-0.25 -0.16,-0.37 -0.49,-0.37 -0.55,0 -1.29,0.25 -1.44,0.87 -0.4,1.24 -0.57,3.48 -0.44,5.47 0.57,4.72 3.9,6.73 10.85,6.73l0.11 0z"/>
   <path class="fil6 str4" d="M358.44 14.28c189.19,0 343.49,70.61 343.49,157.18 0,86.57 -154.3,157.18 -343.49,157.18 -189.19,0 -343.49,-70.61 -343.49,-157.18 0,-86.57 154.3,-157.18 343.49,-157.18z"/>
  </g>
 </g>
</svg>
