<?xml version="1.0" encoding="UTF-8"?>
<!DOCTYPE svg PUBLIC "-//W3C//DTD SVG 1.1//EN" "http://www.w3.org/Graphics/SVG/1.1/DTD/svg11.dtd">
<!-- Creator: CorelDRAW -->
<svg xmlns="http://www.w3.org/2000/svg" xml:space="preserve" width="162.769mm" height="141.084mm" version="1.1" style="shape-rendering:geometricPrecision; text-rendering:geometricPrecision; image-rendering:optimizeQuality; fill-rule:evenodd; clip-rule:evenodd"
viewBox="0 0 16276.96 14108.38"
 xmlns:xlink="http://www.w3.org/1999/xlink"
 xmlns:xodm="http://www.corel.com/coreldraw/odm/2003">
 <defs>
  <style type="text/css">
   <![CDATA[
    .fil4 {fill:#BDBFC1}
    .fil3 {fill:#F58634}
    .fil5 {fill:#D4D83E}
    .fil1 {fill:#201E1E}
    .fil2 {fill:#373435;fill-rule:nonzero}
    .fil0 {fill:url(#id0)}
   ]]>
  </style>
  <linearGradient id="id0" gradientUnits="userSpaceOnUse" x1="9512.05" y1="526.67" x2="9162.28" y2="18889.83">
   <stop offset="0" style="stop-opacity:1; stop-color:#FEFEFE"/>
   <stop offset="1" style="stop-opacity:1; stop-color:#FEFEFE"/>
  </linearGradient>
 </defs>
 <g id="Camada_x0020_1">
  <metadata id="CorelCorpID_0Corel-Layer"/>
  <g id="_2469887180704">
   <path class="fil0" d="M14877.83 14093.48l-13870.86 14.9c-789.69,-34.75 -919.28,-1133.82 -344.28,-1314 1.88,-1.99 3.8,-4.02 5.76,-6.08l-668.45 -0.45 0 -607.7c0,-1115.05 0,-2230.09 0,-3345.14l13.36 -460.89 1802.42 -2.41c485.6,0 897.17,177.84 1213.98,464.92 -203.22,-427.89 -1.05,-1036.05 538.97,-1086.81 -267.05,-194.38 -500.8,-432.34 -691,-703.49 -403.74,-511.63 -644.97,-1159.25 -644.97,-1863.5 0,-805.59 319.92,-1558.71 861.57,-2109.76 576.37,-586.41 1302.62,-886.3 2109.44,-887.28l-615.34 -1444.96 1743.45 -740.82 62.94 152.35 38.34 -16.31 1198.15 2900.53c515.87,-436.11 1169.8,-679.86 1856.05,-679.86 728.96,0 663.56,135.56 913.06,148.17 95.12,4.79 527.78,237.35 618.96,294.82 689.68,434.69 1234.49,1198.64 1389.92,2004.65 134.3,696.31 27.28,1449.61 -311.09,2044.98 -201.89,355.22 -475.65,662.3 -800.18,902.32 401.74,-55.34 723.91,234.6 759.05,646.88 442.93,0 885.84,0 1328.77,0l0 809.57c895.83,-481.8 2197.53,-162.25 2675.52,749.01 494.5,942.77 145.84,2391.46 -1124.43,2799.88 19.98,3.77 39.66,8.67 58.97,14.68 913.83,-109.38 1236.33,1355.98 -118.09,1321.8z"/>
   <polygon class="fil1" points="12917.38,9584.87 12337.36,9584.87 12337.36,9006.59 12917.38,9006.59 "/>
   <path class="fil1" d="M14433.6 9555.25c767.01,0 1389.24,626.89 1389.24,1399.67 0,773.01 -622.23,1399.65 -1389.24,1399.65 -767.26,0 -1389.22,-626.64 -1389.22,-1399.65 0,-772.78 621.96,-1399.67 1389.22,-1399.67zm-13863.83 -584.19c454.07,0 893.19,8.7 1347.29,8.7 923.63,0 1451.58,850.15 1462.64,1685.69 10.71,810.16 -469.07,1605.74 -1253.75,1659.46 -453.97,0 -1102.11,-8.7 -1556.18,-8.7 0,-1115.06 0,-2230.1 0,-3345.15zm643.27 569.22c299.52,0 266.77,8.7 566.29,8.7 609.26,0 957.58,560.78 964.84,1112.06 7.05,534.34 -309.34,1059.19 -826.99,1094.64 -299.53,0 -404.62,-8.7 -704.14,-8.7 0,-735.57 0,-1471.13 0,-2206.7zm3555.42 -14.68c767.02,0 1389.24,626.9 1389.24,1399.67 0,64.78 -4.48,128.45 -12.93,190.89l-25.33 0 -547.75 0 -1574.25 0c7.73,132.49 50.11,226.92 116.08,314.67 150.8,198.04 388.05,325.77 654.95,325.77 266.81,0 504.08,-127.73 654.91,-325.77l640.78 0c-201.26,523.13 -705.6,894.09 -1295.7,894.09 -767.25,0 -1389.22,-626.64 -1389.22,-1399.65 0,-772.77 621.97,-1399.67 1389.22,-1399.67zm768.57 1096.65c-120.27,-309.25 -419.09,-528.34 -768.56,-528.34 -349.58,0 -648.36,219.09 -768.57,528.34l1537.13 0zm2548.65 -295.69l-578.19 1.29c-91.06,-304.65 -616.12,-418.19 -616.12,-41.36 0,87.65 29.39,153.84 88.17,199.45 59.72,45.62 181.87,99.28 366.5,161.89 207.59,72.44 360.07,135.06 457.43,188.72 96.45,54.56 178.2,135.94 244.32,245.06 67.07,109.12 100.14,235.24 100.14,376.56 0,244.16 -90.94,449.88 -271.89,615.35 -180.95,166.36 -434.47,249.53 -758.71,249.53 -611.75,0 -987.86,-294.18 -1030.13,-920 205.3,-2.47 410.59,-4.93 615.88,-7.39 -13.4,347.46 320.33,491.82 555.48,407.51 99.29,-35.59 181.01,-111.97 211.58,-231 58.52,-227.83 -198.82,-343.29 -475.87,-441.84 -393.04,-139.81 -750.68,-253.52 -774.32,-747.21 -10.39,-216.92 63.65,-442.78 236.04,-586.77 184.42,-154.06 414.25,-230.75 690.73,-230.75 482.23,0 894.38,218.26 938.96,760.96zm1335.2 -800.96c336.01,0 642.46,135.47 874.32,358.04l0 -280.5 598.14 0 0 2720.99 -598.14 0 0 -357.21c-231.86,222.54 -538.31,358 -874.32,358 -723.13,0 -1309.33,-626.64 -1309.33,-1399.65 0,-772.77 586.2,-1399.67 1309.33,-1399.67zm34.52 642.1c410.31,0 743.18,355.81 743.18,794.45 0,438.77 -332.87,794.45 -743.18,794.45 -410.47,0 -743.18,-355.68 -743.18,-794.45 0,-438.64 332.71,-794.45 743.18,-794.45zm2851.76 -1155.03c-690.79,-16.21 -1035.17,259.74 -1033.17,888.74 -96.67,0 -193.34,0 -290.02,0l0 578.29 290.02 0 0 1874.87 580.02 0 0 -1874.87 453.13 0c0,-192.77 0,-385.53 0,-578.29 -151.04,0 -302.09,0 -453.13,0 12.19,-206.31 135.28,-346.68 453.68,-341.95l-0.53 -546.79zm610.21 846.13l-580.02 0 0 2495.77 580.02 0 0 -2495.77zm1516.23 264.76c455.57,0 825.16,372.35 825.16,831.35 0,459.14 -369.59,831.34 -825.16,831.34 -455.72,0 -825.15,-372.2 -825.15,-831.34 0,-459 369.43,-831.35 825.15,-831.35z"/>
   <path class="fil1" d="M15779.66 10607.7l-596.23 0c48.32,105.69 75.34,223.26 75.34,347.21 0,459.14 -369.59,831.34 -825.16,831.34 -455.72,0 -825.15,-372.2 -825.15,-831.34 0,-123.95 26.95,-241.52 75.26,-347.21l-596.24 0c-28.14,111.04 -43.1,227.36 -43.1,347.22 0,773.01 621.96,1399.65 1389.22,1399.65 767.01,0 1389.24,-626.64 1389.24,-1399.65 0,-119.86 -15.02,-236.18 -43.18,-347.22zm-2862.28 0l-580.02 0 0 1746.87 580.02 0 0 -1746.87zm-1063.36 0l-580.02 0 0 1746.87 580.02 0 0 -1746.87zm-960.67 0l-772.8 0c49.9,106.72 78.04,227.06 78.04,354.45 0,438.77 -332.87,794.45 -743.18,794.45 -410.47,0 -743.18,-355.68 -743.18,-794.45 0,-127.39 28.08,-247.73 77.96,-354.45l-644.77 0c-22.15,102.04 -33.86,208.34 -33.86,317.57 0,773.01 586.2,1399.65 1309.33,1399.65 336.01,0 642.46,-135.46 874.32,-358l0 357.21 598.14 0 0 -1716.43zm-3660.45 0l-972.12 0c107.84,309.32 408.58,407.06 733.5,522.63 277.05,98.55 534.39,214.01 475.87,441.84 -30.57,119.03 -112.29,195.41 -211.58,231 -235.15,84.31 -568.88,-60.05 -555.48,-407.51 -205.29,2.46 -410.58,4.92 -615.88,7.39 42.27,625.82 418.38,920 1030.13,920 324.24,0 577.76,-83.17 758.71,-249.53 180.95,-165.47 271.89,-371.19 271.89,-615.35 0,-141.32 -33.07,-267.44 -100.14,-376.56 -66.12,-109.12 -147.87,-190.5 -244.32,-245.06 -97.36,-53.66 -249.84,-116.28 -457.43,-188.72 -40.75,-13.81 -78.49,-27.17 -113.15,-40.13zm-1111.18 0l-590.52 0c1.97,4.83 3.94,9.68 5.84,14.55l-1537.13 0c1.9,-4.87 3.82,-9.72 5.8,-14.55l-590.53 0c-23.51,102.04 -35.93,208.34 -35.93,317.57 0,773.01 621.97,1399.65 1389.22,1399.65 590.1,0 1094.44,-370.96 1295.7,-894.09l-640.78 0c-150.83,198.04 -388.1,325.77 -654.91,325.77 -266.9,0 -504.15,-127.73 -654.95,-325.77 -65.97,-87.75 -108.35,-182.18 -116.08,-314.67l1574.25 0 547.75 0 25.33 0c8.45,-62.44 12.93,-126.11 12.93,-190.89 0,-109.23 -12.47,-215.53 -35.99,-317.57zm-2743.71 0l-635.63 0c0.94,17.78 1.57,35.57 1.8,53.34 7.05,534.34 -309.34,1059.19 -826.99,1094.64 -299.53,0 -404.62,-8.7 -704.14,-8.7l0 -1139.28 -643.27 0 0 1708.51c454.07,0 1102.21,8.7 1556.18,8.7 784.68,-53.72 1264.46,-849.3 1253.75,-1659.46 -0.26,-19.25 -0.9,-38.5 -1.7,-57.75z"/>
   <path class="fil1" d="M6051.37 7731.15c-234.67,73.26 -484.07,112.77 -742.63,112.77 -1384,0 -2506.22,-1130.61 -2506.22,-2525.05 0,-1022.93 603.98,-1903.91 1472.17,-2300.71l346.22 918.4c-502.07,254.14 -846.74,777.71 -846.74,1382.32 0,853.82 687.14,1546.11 1534.58,1546.11 137.1,0 269.92,-18.24 396.4,-52.23l346.22 918.39z"/>
   <path class="fil1" d="M5308.74 2793.84c263.89,0 518.23,41.23 757.11,117.43l-759.76 -1784.04 875.42 -371.99 2285.52 5532.86c100.49,243.24 266.6,365.79 508.95,476.81 186.75,85.55 394.18,133.21 612.66,133.21 606.74,0 1128.3,-367.37 1357.81,-893.28l1047.77 -322.02c-137.25,1216.07 -1161.89,2161.1 -2405.58,2161.1 -909.24,0 -1701.28,-505.2 -2115.22,-1252.04 -268.42,462.14 -678.43,830.73 -1170.1,1045.17l-345.64 -916.88c523.12,-246.34 885.67,-781.16 885.67,-1401.29 0,-853.8 -687.14,-1546.1 -1534.6,-1546.1 -152.23,0 -299.23,22.41 -438.04,64.03l-345.64 -916.87c246.58,-81.75 509.96,-126.1 783.67,-126.1z"/>
   <path class="fil1" d="M9588.65 2964.76c1163.38,0 2135.11,826.89 2368.1,1929.04l0.24 0.28 -105.76 43.07 -787.08 320.52 -2314.25 942.42 -367.26 -848.32 2296.9 -958.87c-270.94,-296.52 -659.36,-482.33 -1090.89,-482.33 -645.79,0 -1195.1,416.12 -1398.42,996.7l-461.16 -1065.21c444.19,-536.1 1112.33,-877.3 1859.58,-877.3z"/>
   <path class="fil2" d="M3782.2 8697.28c-72.86,36.52 -140.61,67.47 -233.05,30.39 -206.82,-82.93 -169.8,-591.81 155.72,-499.08 23.27,6.6 49,18.09 77.33,34.69l0 79.81c-12.26,0 -101.54,-105.45 -210,-54.53 -159.73,74.98 -107.81,491.92 137.84,379.72 24.25,-11.02 46.91,-27.73 68.08,-49.88l4.08 0 0 78.88zm614.51 -411.26c91.68,117.14 87.06,458.48 -146.68,458.48 -254.4,0 -255.73,-429.19 -82.88,-509.53 76.23,-35.43 174.59,-19.07 229.56,51.05zm-5.26 195.01c0,-239.75 -181.97,-241.49 -244.98,-152.1 -61.6,87.38 -63.68,357.45 103.75,357.45 105.45,0 141.23,-101.95 141.23,-205.35zm635.58 252.91l-274.29 0 0 -506.05 57.64 0 0 446.19 216.65 0 0 59.86zm553.12 0l-285.63 0 0 -506.05 285.63 0 0 59.86 -227.99 0 0 138.63 227.99 0 0 59.88 -227.99 0 0 187.82 227.99 0 0 59.86zm-54.87 -696.43l-79.5 127.16 -43.34 0 52.08 -127.16 70.76 0zm717.69 659.08c-200.23,107.06 -386.29,29.81 -386.29,-216.14 0,-243.86 196.72,-321.77 385.99,-216.14l0 79.82c-17.64,0 -57.27,-67.98 -168.55,-67.98 -214.37,0 -214.18,409.53 7.35,409.53l104.45 -23.09 0 -124.01 -116.17 0 0 -59.18 173.22 0 0 217.19zm463.46 37.35l-171.14 0 0 -51.62 56.74 0 0 -402.81 -56.74 0 0 -51.62 171.14 0 0 51.62 -56.76 0 0 402.81 56.76 0 0 51.62zm631.11 -447.92c91.71,117.24 87.01,458.48 -146.68,458.48 -254.43,0 -255.69,-429.22 -82.89,-509.53 76.24,-35.43 174.56,-19.08 229.57,51.05zm-5.27 195.01c0,-239.73 -181.94,-241.5 -244.97,-152.1 -61.62,87.42 -63.66,357.45 103.75,357.45 105.44,0 141.22,-101.96 141.22,-205.35zm856.52 252.91l-285.62 0 0 -506.05 285.62 0 0 59.86 -227.98 0 0 138.63 227.98 0 0 59.88 -227.98 0 0 187.82 227.98 0 0 59.86zm845.68 -36.66c-72.86,36.52 -140.6,67.47 -233.05,30.39 -206.82,-82.93 -169.8,-591.81 155.73,-499.08 23.26,6.6 48.99,18.09 77.32,34.69l0 79.81c-12.26,0 -101.54,-105.45 -210,-54.53 -159.72,74.98 -107.8,491.92 137.85,379.72 24.24,-11.02 46.9,-27.73 68.08,-49.88l4.07 0 0 78.88zm617.79 -166.59c0,277.95 -232.17,230.93 -288.6,164.15 -36.65,-43.37 -44.31,-101.86 -44.31,-164.15l0 -302.8 57.63 0 4.77 371.13c24.31,119.69 184.71,119.43 208.1,-1.16l4.78 -369.97 57.63 0 0 302.8zm678.53 203.25l-74.84 0 -145.19 -201.17 -81.01 0 0 201.17 -57.63 0 0 -506.05c117.53,0 284.13,-27.5 284.13,137.71 0,67.7 -28.96,120.26 -88.45,147.11l162.99 221.23zm-134.77 -363.59c0,-99.77 -93.41,-84.68 -166.27,-84.68l0 191.07c79.45,0 166.27,12.65 166.27,-106.39zm715.59 219.15c0,153.4 -180.9,192.95 -334.21,113.12l0 -84.22c1.62,0 147.64,119.37 244.38,43.15 35.2,-27.74 56.15,-111.25 -27.23,-137.02 -80.06,-24.74 -214.57,-14.83 -214.57,-161.02 0,-152.76 184.51,-175.5 314.14,-109.4l0 79.47c-2.49,0 -138.17,-104.51 -225.98,-34.34 -36.67,29.3 -51.42,112.09 35.07,134.92 92.85,24.51 208.4,20.6 208.4,155.34zm625.66 -303.48c91.71,117.24 87.01,458.48 -146.68,458.48 -254.43,0 -255.7,-429.22 -82.89,-509.53 76.23,-35.43 174.55,-19.08 229.57,51.05zm-5.26 195.01c0,-239.69 -181.93,-241.53 -244.99,-152.1 -61.62,87.42 -63.65,357.45 103.75,357.45 105.44,0 141.24,-101.96 141.24,-205.35z"/>
   <polygon class="fil3" points="12816.1,9448.82 12236.08,9448.82 12236.08,8870.53 12816.1,8870.53 "/>
   <path class="fil4" d="M14332.31 9419.19c767.02,0 1389.25,626.9 1389.25,1399.67 0,773.01 -622.23,1399.65 -1389.25,1399.65 -767.25,0 -1389.22,-626.64 -1389.22,-1399.65 0,-772.77 621.97,-1399.67 1389.22,-1399.67zm-13863.82 -584.18c454.07,0 893.18,8.7 1347.28,8.7 923.64,0 1451.59,850.14 1462.64,1685.69 10.71,810.15 -469.06,1605.73 -1253.74,1659.45 -453.98,0 -1102.11,-8.7 -1556.18,-8.7 0,-1115.05 0,-2230.1 0,-3345.14zm643.27 569.22c299.52,0 266.77,8.69 566.29,8.69 609.26,0 957.58,560.78 964.84,1112.07 7.04,534.33 -309.34,1059.19 -826.99,1094.63 -299.53,0 -404.62,-8.7 -704.14,-8.7 0,-735.56 0,-1471.13 0,-2206.69zm3555.42 -14.69c842.34,0 1490.23,749.18 1376.31,1590.56l-2147.33 0c22.03,377.68 409.92,640.44 771.03,640.44 266.81,0 504.08,-127.73 654.91,-325.77l640.77 0c-201.25,523.13 -705.59,894.09 -1295.69,894.09 -767.26,0 -1389.22,-626.64 -1389.22,-1399.65 0,-772.77 621.96,-1399.67 1389.22,-1399.67zm768.57 1096.65c-272.94,-701.79 -1264.32,-701.8 -1537.13,0l1537.13 0zm2548.64 -295.69l-578.19 1.3c-91.05,-304.66 -616.11,-418.2 -616.11,-41.36 0,87.65 29.39,153.83 88.17,199.45 132.55,102.05 612.14,232.35 823.93,350.6 581.48,324.71 476.74,1486.5 -686.14,1486.5 -611.75,0 -987.86,-294.18 -1030.14,-920 205.31,-2.47 410.6,-4.93 615.89,-7.38 -19.01,492.74 663.74,578.79 767.06,176.5 58.52,-227.82 -198.83,-343.29 -475.87,-441.83 -393.05,-139.82 -750.68,-253.53 -774.32,-747.21 -25.69,-536.33 420.21,-817.53 926.76,-817.53 482.24,0 894.39,218.27 938.96,760.96zm1335.2 -800.96c336.02,0 642.47,135.47 874.32,358.05l0 -280.51 598.15 0 0 2720.99 -598.15 0 0 -357.21c-838.38,804.69 -2183.64,167.73 -2183.64,-1041.65 0,-772.77 586.2,-1399.67 1309.32,-1399.67zm34.52 642.1c410.32,0 743.19,355.82 743.19,794.46 0,438.76 -332.87,794.44 -743.19,794.44 -410.46,0 -743.17,-355.68 -743.17,-794.44 0,-438.64 332.71,-794.46 743.17,-794.46zm2851.76 -1155.02c-690.78,-16.22 -1035.16,259.73 -1033.16,888.73 -96.67,0 -193.34,0 -290.02,0l0 578.29 290.02 0 0 1874.87 580.02 0 0 -1874.87 453.13 0c0,-192.77 0,-385.53 0,-578.29 -151.05,0 -302.09,0 -453.13,0 12.19,-206.31 135.28,-346.68 453.68,-341.95l-0.54 -546.78zm610.22 846.12l-580.02 0 0 2495.77 580.02 0 0 -2495.77zm1516.22 264.76c455.58,0 825.16,372.36 825.16,831.35 0,459.14 -369.58,831.34 -825.16,831.34 -455.72,0 -825.14,-372.2 -825.14,-831.34 0,-458.99 369.42,-831.35 825.14,-831.35z"/>
   <path class="fil5" d="M15678.38 10471.64l-596.24 0c48.33,105.69 75.34,223.26 75.34,347.21 0,459.14 -369.58,831.34 -825.16,831.34 -455.72,0 -825.14,-372.2 -825.14,-831.34 0,-123.95 26.95,-241.52 75.26,-347.21l-596.24 0c-28.14,111.05 -43.11,227.37 -43.11,347.22 0,773.01 621.97,1399.65 1389.22,1399.65 767.02,0 1389.25,-626.64 1389.25,-1399.65 0,-119.85 -15.02,-236.17 -43.18,-347.22zm-2862.28 0l-580.02 0 0 1746.87 580.02 0 0 -1746.87zm-1063.36 0l-580.02 0 0 1746.87 580.02 0 0 -1746.87zm-960.67 0l-772.8 0c49.9,106.73 78.04,227.06 78.04,354.46 0,438.76 -332.87,794.44 -743.19,794.44 -410.46,0 -743.17,-355.68 -743.17,-794.44 0,-127.4 28.08,-247.73 77.95,-354.46l-644.76 0c-22.16,102.04 -33.86,208.34 -33.86,317.57 0,773.01 586.2,1399.65 1309.32,1399.65 336.02,0 642.47,-135.46 874.32,-358l0 357.21 598.15 0 0 -1716.43zm-3660.45 0l-972.12 0c107.84,309.33 408.58,407.06 733.5,522.64 277.04,98.54 534.39,214.01 475.87,441.83 -30.57,119.04 -112.3,195.41 -211.58,231 -235.15,84.31 -568.89,-60.05 -555.48,-407.5 -205.29,2.45 -410.58,4.91 -615.89,7.38 42.28,625.82 418.39,920 1030.14,920 324.24,0 577.75,-83.17 758.71,-249.53 180.94,-165.47 271.88,-371.18 271.88,-615.35 0,-141.32 -33.06,-267.43 -100.13,-376.55 -66.12,-109.12 -147.87,-190.51 -244.32,-245.07 -97.36,-53.66 -249.84,-116.27 -457.43,-188.71 -40.75,-13.82 -78.49,-27.18 -113.15,-40.14zm-1111.19 0l-590.52 0c1.98,4.83 3.95,9.68 5.85,14.55l-1537.13 0c1.9,-4.87 3.82,-9.72 5.79,-14.55l-590.53 0c-23.51,102.04 -35.92,208.34 -35.92,317.57 0,773.01 621.96,1399.65 1389.22,1399.65 590.1,0 1094.44,-370.96 1295.69,-894.09l-640.77 0c-150.83,198.04 -388.1,325.77 -654.91,325.77 -266.91,0 -504.15,-127.73 -654.95,-325.77 -65.97,-87.74 -108.35,-182.18 -116.08,-314.67l1574.25 0 547.75 0 25.33 0c8.45,-62.44 12.93,-126.11 12.93,-190.89 0,-109.23 -12.48,-215.53 -36,-317.57zm-2743.7 0l-635.63 0c0.94,17.78 1.56,35.57 1.8,53.35 7.04,534.33 -309.34,1059.19 -826.99,1094.63 -299.53,0 -404.62,-8.7 -704.14,-8.7l0 -1139.28 -643.27 0 0 1708.51c454.07,0 1102.2,8.7 1556.18,8.7 784.68,-53.72 1264.45,-849.3 1253.74,-1659.45 -0.25,-19.25 -0.89,-38.51 -1.69,-57.76z"/>
   <path class="fil5" d="M5950.09 7595.09c-1599.6,499.37 -3248.85,-700.74 -3248.85,-2412.28 0,-1022.92 603.97,-1903.91 1472.16,-2300.7l346.22 918.39c-502.07,254.15 -846.73,777.72 -846.73,1382.32 0,1020.6 961.95,1754.32 1930.98,1493.89l346.22 918.38z"/>
   <path class="fil4" d="M5207.46 2657.78c263.89,0 518.23,41.24 757.11,117.43l-759.76 -1784.04 875.42 -371.98 2285.52 5532.85c100.48,243.25 266.6,365.79 508.94,476.81 751.82,344.41 1638.77,0.03 1970.47,-760.07l1047.77 -322.02c-137.24,1216.08 -1161.88,2161.11 -2405.57,2161.11 -909.24,0 -1701.28,-505.21 -2115.22,-1252.05 -268.42,462.15 -678.43,830.73 -1170.1,1045.17l-345.64 -916.88c523.12,-246.33 885.66,-781.15 885.66,-1401.29 0,-1040.22 -996.28,-1774.81 -1972.63,-1482.06l-345.64 -916.88c246.58,-81.75 509.95,-126.1 783.67,-126.1z"/>
   <path class="fil3" d="M9487.37 2828.71c1163.38,0 2135.11,826.88 2368.09,1929.03l0.25 0.28 -3207.09 1306.01 -367.26 -848.32 2296.9 -958.87c-756.27,-827.67 -2118.16,-545.42 -2489.31,514.37l-461.16 -1065.21c444.19,-536.09 1112.33,-877.29 1859.58,-877.29z"/>
   <path class="fil2" d="M1071.71 13181.2l-32.47 189.46 219.44 -35.26c52.59,0 60.73,52.7 -1.58,66.37 -238.82,52.45 -238.78,-47.55 -234.5,212.14 1.01,61.07 -70.53,38.52 -70.53,-9.66l45.97 -438.85c-24.61,-78 39.56,-44.84 153.05,-58.56 309.61,-37.41 182.43,64.25 149.65,58.19l-229.03 16.17zm9122.54 455.24c-202.11,0 -102.57,-401.85 97.61,-401.85 219.51,0 127.83,401.85 -97.61,401.85zm-49.49 -138.77c0,210.96 303.54,-32.17 194.65,-178.58 -64.53,-86.76 -194.65,36.72 -194.65,178.58zm537.11 38.73c0,-52.17 -180.18,-82.2 -180.18,-162.92 0,-129.9 241.8,-226.3 241.8,-120.51 0,52.63 -21.88,-7.73 -126.8,42.62 -180.77,86.77 122.18,134.67 122.18,228.9 0,102.78 -276.33,161.15 -276.33,77.54 0,-56.09 176.61,14.44 219.33,-65.63zm137.12 150.39c205.22,-51.13 19.64,-212.73 127.53,-175.03 82.41,28.81 13.8,200.89 -119.64,200.89l-7.89 -25.86zm602.62 -63.93c1.9,-54.41 -156.15,-383.61 -55.56,-383.61 47.93,0 18.84,54.52 52.03,175.02l44.85 134.37c41.66,-64.51 200.44,-378.15 258.69,-305.36 31.25,39.03 -21.4,40.04 -101.98,153.24 -125.99,177.01 -137.85,301.57 -198.03,226.34zm634.57 -125.9c0,105.47 -316.56,246.2 -316.56,10.77 0,-255.29 279.62,-365.07 279.62,-227.94 0,166.4 -293.75,178.84 -199.14,278.15 89.94,94.42 236.08,-139.31 236.08,-60.98zm-247.52 -55.98c309.56,-185.31 60.73,-253.28 0,0zm564.57 -98.36c-73.23,0 -149.96,279.5 -212.25,279.5 -81.26,0 -16.78,-118.71 -16.78,-318.2 0,-33.61 105.35,-151.35 46.31,159.96 -37.49,197.75 69.18,-190.82 196.94,-190.82 131.21,0 37.98,318.66 152.82,260.87 63.98,-32.2 -33.69,138.54 -98.84,43.61 -32.74,-47.69 -16.33,-234.92 -68.2,-234.92zm338.32 296.41c-276.56,0 37.77,-555.97 149.78,-387.42 55.44,83.42 -15.5,173.04 -35.74,76.32 -36.19,-173.07 -278.06,254.02 -97.26,254.02 84.99,0 172.03,-105.2 172.03,-53.03 0,38.4 -108.51,110.11 -188.81,110.11zm577.34 -142.07c0,105.47 -316.56,246.2 -316.56,10.77 0,-255.29 279.62,-365.07 279.62,-227.94 0,166.4 -293.75,178.84 -199.14,278.15 89.95,94.42 236.08,-139.31 236.08,-60.98zm-247.52 -55.98c309.56,-185.31 60.73,-253.28 0,0zm577.35 29.02c-190.8,309.21 -387.08,118.98 -201.08,-123.46 60.73,-79.18 157.01,-133.68 226.72,-63.45 24.63,-115.94 35.04,-275.22 92.27,-275.22 77.28,0 -64.07,243.02 -64.07,481.85 0,150.81 100.42,8.97 100.42,67.11 0,39.74 -177.89,166.22 -154.26,-86.83zm-46.7 -167.93c-145.04,0 -260.69,378.2 -73.78,239.7 86.6,-64.19 180.8,-239.7 73.78,-239.7zm377.59 334.37c-202.11,0 -102.57,-401.85 97.61,-401.85 219.51,0 127.83,401.85 -97.61,401.85zm-49.49 -138.77c0,210.96 303.54,-32.17 194.65,-178.58 -64.53,-86.76 -194.65,36.72 -194.65,178.58zm429.88 -21.54c10.58,-18.7 149.14,-326.44 261.13,-218.76 46.54,44.77 2.22,99.94 -35.99,59.76 -58.83,-61.88 -191.23,136.24 -209.09,276.32 -5.59,43.89 -103.68,174.48 -60.91,-284.14 8.65,-92.78 92.02,-93.75 65.9,-1.84l-21.04 168.66zm604.43 20.83c0,105.47 -316.57,246.2 -316.57,10.77 0,-255.29 279.62,-365.07 279.62,-227.94 0,166.4 -293.74,178.84 -199.13,278.15 89.94,94.42 236.08,-139.31 236.08,-60.98zm-247.52 -55.98c309.56,-185.31 60.73,-253.28 0,0zm501.11 95.42c0,-52.17 -180.17,-82.2 -180.17,-162.92 0,-129.9 241.8,-226.3 241.8,-120.51 0,52.63 -21.89,-7.73 -126.8,42.62 -180.77,86.77 122.17,134.67 122.17,228.9 0,102.78 -276.32,161.15 -276.32,77.54 0,-56.09 176.61,14.44 219.32,-65.63zm181.74 -16.91c98.96,0 -52.03,168.25 -52.03,45.32 0,-34.99 -3.21,-45.32 52.03,-45.32zm-13896.26 116.95c-202.11,0 -102.58,-401.85 97.61,-401.85 219.5,0 127.82,401.85 -97.61,401.85zm-49.49 -138.77c0,210.96 303.54,-32.17 194.64,-178.58 -64.53,-86.76 -194.64,36.72 -194.64,178.58zm429.88 -21.54c10.57,-18.7 149.14,-326.44 261.12,-218.76 46.54,44.77 2.22,99.94 -35.98,59.76 -58.84,-61.88 -191.24,136.24 -209.1,276.32 -5.58,43.89 -103.67,174.48 -60.91,-284.14 8.65,-92.78 92.02,-93.75 65.9,-1.84l-21.03 168.66zm568.55 -141.35c-59.51,1.31 -146.5,263.22 -206.77,280.61 -106.84,30.83 -19.1,-250.52 -19.1,-359.98 0,-25.25 85.34,-85.15 47.41,139.26 -10.21,59.78 -15.43,96.15 -15.68,109.02 55.33,-53.92 256.55,-492.52 266.73,-67.37 4.77,198.76 89.9,-180.54 205.94,-180.54 93.03,0 34.08,251.37 118.53,291.39 63.61,30.14 -81.93,180.26 -112.95,-125.56 -29.67,-292.49 -147.37,257.92 -242.51,160.59 -36.4,-37.25 -11.79,-208.56 -41.6,-247.42zm720.79 153.23c-196.52,266.31 -361.82,95.9 -171.64,-151.64 157.04,-204.41 216.74,-62.94 225.5,-62.94 81.91,0 -55.94,255.35 38.42,306.07 60.45,32.5 -92.28,143.43 -92.28,-91.49zm-21.63 -202.11c-93.08,0 -232.26,277.43 -144.68,277.43 97.66,0 249.16,-277.43 144.68,-277.43zm452.24 56.72c-73.23,0 -149.96,279.5 -212.25,279.5 -81.26,0 -16.78,-118.71 -16.78,-318.2 0,-33.61 105.35,-151.35 46.31,159.96 -37.49,197.75 69.18,-190.82 196.94,-190.82 131.21,0 37.98,318.66 152.82,260.87 63.99,-32.2 -33.69,138.54 -98.84,43.61 -32.74,-47.69 -16.32,-234.92 -68.2,-234.92zm496.5 127.38c-190.8,309.21 -387.07,118.98 -201.08,-123.46 60.73,-79.18 157.01,-133.68 226.72,-63.45 24.63,-115.94 35.04,-275.22 92.27,-275.22 77.29,0 -64.07,243.02 -64.07,481.85 0,150.81 100.43,8.97 100.43,67.11 0,39.74 -177.89,166.22 -154.27,-86.83zm-46.7 -167.93c-145.04,0 -260.69,378.2 -73.78,239.7 86.6,-64.19 180.8,-239.7 73.78,-239.7zm377.6 334.37c-202.11,0 -102.58,-401.85 97.61,-401.85 219.5,0 127.82,401.85 -97.61,401.85zm-49.49 -138.77c0,210.96 303.54,-32.17 194.64,-178.58 -64.53,-86.76 -194.64,36.72 -194.64,178.58zm918.56 -162.89c-59.51,1.31 -146.5,263.22 -206.77,280.61 -106.84,30.83 -19.1,-250.52 -19.1,-359.98 0,-25.25 85.34,-85.15 47.41,139.26 -10.21,59.78 -15.43,96.15 -15.68,109.02 55.33,-53.92 256.55,-492.52 266.73,-67.37 4.77,198.76 89.9,-180.54 205.94,-180.54 93.03,0 34.08,251.37 118.53,291.39 63.61,30.14 -81.93,180.26 -112.95,-125.56 -29.67,-292.49 -147.37,257.92 -242.51,160.59 -36.4,-37.25 -11.79,-208.56 -41.6,-247.42zm720.79 153.23c-196.52,266.31 -361.82,95.9 -171.64,-151.64 157.04,-204.41 216.74,-62.94 225.51,-62.94 81.9,0 -55.95,255.35 38.41,306.07 60.45,32.5 -92.28,143.43 -92.28,-91.49zm-21.63 -202.11c-93.08,0 -232.26,277.43 -144.68,277.43 97.66,0 249.16,-277.43 144.68,-277.43zm324.35 -147.83c-13.37,0 -57.05,-111.95 29.55,-111.95 69.59,0 24.31,111.95 -29.55,111.95zm-46.68 400.89c0,31.55 29.67,98.96 -27.72,98.96 -79.59,0 9.82,-372.31 9.96,-372.59 13.07,-25.46 76.71,-27.19 57.27,40.66l-39.51 232.97zm321.93 -2.56c0,-52.17 -180.18,-82.2 -180.18,-162.92 0,-129.9 241.8,-226.3 241.8,-120.51 0,52.63 -21.88,-7.73 -126.79,42.62 -180.78,86.77 122.17,134.67 122.17,228.9 0,102.78 -276.33,161.15 -276.33,77.54 0,-56.09 176.61,14.44 219.33,-65.63zm667.03 -34.81c-0.22,-0.09 -171.57,193.25 -242.9,92 -115.44,-163.86 251.92,-501.93 292.14,-343.2 10.67,42.06 72.78,-32.8 30.27,137.8l-64.56 425.24c-1.53,20.95 -92.39,100.95 -59.79,-85.24l44.84 -226.6zm27.47 -171.84c0,-154.3 -231.09,39.18 -231.09,187.64 0,131.9 231.09,-59.23 231.09,-187.64zm397.06 132.77c-134.97,228.47 -309.82,228.33 -231.85,-89.41 5.86,-23.85 19.25,-184.21 75.13,-118.18 32.92,38.91 -100.22,306.93 -14.58,306.93 124.19,0 175.46,-292.12 229.4,-292.12 70.96,0 -62.93,236.1 23.46,315.76 51.07,47.09 -96.85,122.3 -81.56,-122.98zm498.19 34.44c0,105.47 -316.57,246.2 -316.57,10.77 0,-255.29 279.62,-365.07 279.62,-227.94 0,166.4 -293.74,178.84 -199.13,278.15 89.94,94.42 236.08,-139.31 236.08,-60.98zm-247.53 -55.98c309.56,-185.31 60.73,-253.28 0,0zm853.65 47.03c-196.52,266.31 -361.82,95.9 -171.64,-151.64 157.04,-204.41 216.74,-62.94 225.5,-62.94 81.91,0 -55.94,255.35 38.42,306.07 60.45,32.5 -92.28,143.43 -92.28,-91.49zm-21.63 -202.11c-93.08,0 -232.26,277.43 -144.68,277.43 97.66,0 249.15,-277.43 144.68,-277.43zm334.33 -274.84c84.88,0 -80.58,253.6 -38.8,575.91 8.63,66.52 -126.96,192.05 -41.21,-338.06 19.09,-118.04 36.03,-237.85 80.01,-237.85zm335.52 451.46c-134.97,228.47 -309.81,228.33 -231.85,-89.41 5.87,-23.85 19.26,-184.21 75.14,-118.18 32.91,38.91 -100.22,306.93 -14.59,306.93 124.19,0 175.47,-292.12 229.4,-292.12 70.96,0 -62.93,236.1 23.46,315.76 51.07,47.09 -96.85,122.3 -81.56,-122.98zm435.95 -119.9c-73.23,0 -149.97,279.5 -212.25,279.5 -81.27,0 -16.78,-118.71 -16.78,-318.2 0,-33.61 105.34,-151.35 46.31,159.96 -37.5,197.75 69.18,-190.82 196.93,-190.82 131.22,0 37.98,318.66 152.83,260.87 63.98,-32.2 -33.7,138.54 -98.85,43.61 -32.73,-47.69 -16.32,-234.92 -68.19,-234.92z"/>
  </g>
 </g>
</svg>
