<?xml version="1.0" encoding="UTF-8"?>
<!DOCTYPE svg PUBLIC "-//W3C//DTD SVG 1.1//EN" "http://www.w3.org/Graphics/SVG/1.1/DTD/svg11.dtd">
<!-- Creator: CorelDRAW -->
<svg xmlns="http://www.w3.org/2000/svg" xml:space="preserve" width="100.196mm" height="69.6058mm" version="1.1" style="shape-rendering:geometricPrecision; text-rendering:geometricPrecision; image-rendering:optimizeQuality; fill-rule:evenodd; clip-rule:evenodd"
viewBox="0 0 685.38 476.13"
 xmlns:xlink="http://www.w3.org/1999/xlink"
 xmlns:xodm="http://www.corel.com/coreldraw/odm/2003">
 <defs>
  <style type="text/css">
   <![CDATA[
    .fil4 {fill:black}
    .fil6 {fill:#0E0D0E}
    .fil0 {fill:#131313}
    .fil5 {fill:#232323}
    .fil1 {fill:#DB1B1F}
    .fil2 {fill:#DFAA53}
    .fil3 {fill:#FCFCFC}
   ]]>
  </style>
 </defs>
 <g id="Camada_x0020_1">
  <metadata id="CorelCorpID_0Corel-Layer"/>
  <g id="_1273611016000">
   <path class="fil0" d="M334.42 0l3.05 0 0.19 0c15.96,0 28.43,0.58 43.93,3.13 10.21,1.68 19.7,4.23 29.64,7.01 2.98,0.83 6.26,2.1 9.11,3.11l17.51 6.92 24 12.64c0.9,0.5 1.19,0.58 2.06,1.18l23.12 16.4c1.13,0.99 2.26,1.73 3.39,2.71 1.1,0.96 2.13,1.88 3.31,2.8l9.64 8.68c4.6,4.62 9.25,9.22 13.45,14.22 0.61,0.73 0.58,0.87 1.27,1.6 4.96,5.3 9.11,11.27 13.46,17.08 3.51,4.68 6.68,9.69 9.69,14.74l4.43 7.79c0.72,1.46 1.45,2.59 2.16,3.95l5.98 12.34c3.6,7.09 9.47,23.59 11.4,31.36 0.45,1.82 0.89,3.09 1.29,4.81 3.88,0 6.93,-0.72 11.14,-0.72 6.81,0 14.12,0.44 20.42,1.49 6.79,1.13 12.99,1.56 17.93,6.14 1.42,1.32 2.54,2.66 3.62,4.29 2.36,3.56 3.29,8.05 3.29,12.52 1.9,0.44 3.46,0.53 5.69,0.78 1.41,0.15 3.67,0.67 5.09,1.02l9.92 2.65c7.55,2.48 15.15,5.55 21.69,9.93l10.98 7.7c7.48,5.61 9.11,11.4 9.13,18.17l0 0.23c-0.01,3.77 -0.49,7.84 -0.72,12.35 -0.52,10.24 -3.61,15.69 -12.43,20.99 -3.84,2.31 -7.5,4.82 -11.52,6.8 -3.29,1.62 -6.44,3.47 -9.87,4.86 -8.26,3.37 -19.92,7.59 -29.05,7.59 0,7.16 -2,12.64 -5.65,16.27 -2.23,2.21 -3.3,3.12 -6.2,4.58 -3.99,2.02 -12.74,3 -17.8,3.75 -3.4,0.5 -6.78,0.19 -10.12,0.65 -4.61,0.63 -10.25,0 -15.13,-0.52 -1.48,-0.16 -3,-0.66 -4.73,-0.66 -0.38,0.79 -0.43,1.73 -0.67,2.57 -1.37,4.79 -5.11,14.72 -7.12,19.46l-15.93 31.14c-3.5,6.09 -7.84,11.53 -11.77,17.33l-16.03 19.18c-3.76,4.45 -8.19,8.38 -12.38,12.41 -0.05,0.05 -0.13,0.13 -0.18,0.18l-11.8 10.12c-4.36,3.58 -9.09,6.75 -13.57,10.15 -2.25,1.71 -4.81,3.09 -7.19,4.67l-11.01 6.59c-1.31,0.7 -2.32,1.52 -3.61,2.14 -0.91,0.43 -1.4,0.51 -2.24,0.99 -4.39,2.51 -9.19,4.47 -13.78,6.69 -1.44,0.7 -2.45,1.13 -3.95,1.8 -1.44,0.65 -2.82,1.01 -4.2,1.55 -5.85,2.32 -11.46,4.38 -17.55,6.16 -3.01,0.88 -5.92,1.87 -9.24,2.62 -3.39,0.76 -5.98,1.4 -9.26,2.23 -7.03,1.77 -18.01,3.01 -25.46,4 -1.85,0.24 -3.57,0.02 -5.44,0.3 -1.76,0.27 -3.84,0.42 -6.06,0.51l-17.13 0 -17.04 -0.92c-5.07,-0.73 -10.44,-1.21 -15.38,-2.22 -3.36,-0.69 -6.5,-0.91 -9.76,-1.74 -3.34,-0.85 -6.27,-1.51 -9.56,-2.3 -15.89,-3.83 -36.55,-12.1 -50.8,-19.97 -7.42,-4.09 -15,-8.37 -21.81,-13.39 -2.34,-1.73 -4.52,-3.22 -6.87,-4.98l-6.46 -5.04c-1.17,-1.05 -2.3,-1.65 -3.41,-2.69l-4.7 -4.28c-0.71,-0.57 -0.85,-0.57 -1.59,-1.29 -1.24,-1.19 -1.7,-1.6 -3.03,-2.72 -2.38,-1.99 -9.78,-9.37 -11.6,-11.75 -2.23,-2.93 -7.52,-8.33 -10.98,-12.73 -1,-1.27 -1.76,-2.25 -2.67,-3.44l-10.9 -15.33c-0.45,-0.72 -0.63,-1.08 -1.07,-1.81 -0.58,-0.96 -0.8,-1.14 -1.31,-1.92 -5.86,-9.07 -10.73,-18.94 -15,-28.83l-8.06 -21.04c-0.29,-0.78 -0.5,-1.05 -0.8,-2.08 -0.32,-1.12 -0.14,-1.35 -0.59,-2.29 -1.85,0 -3.34,0.53 -5.06,0.69 -4.88,0.44 -15.85,0.84 -20.39,0.34l-14.06 -2.11c-1.59,-0.26 -2.95,-0.46 -4.59,-0.8 -9.9,-2.06 -15.53,-11.71 -15.53,-22.2 -4.43,0 -9.26,-1.11 -12.65,-2.08 -11.24,-3.19 -21.12,-7.18 -31.06,-13.13l-9.25 -5.48c-4.64,-3.17 -7.91,-7.6 -9.1,-13.17 -0.36,-1.67 -0.71,-4.66 -0.8,-6.38 -0.17,-3.37 -0.56,-6.54 -0.72,-9.61l0 -4.8c0.22,-3.33 1.02,-6.59 2.99,-9.92 1.71,-2.89 3.51,-4.45 6.15,-6.43 10.31,-7.73 20.24,-13.55 32.67,-17.63 1.81,-0.6 3.22,-0.82 5.11,-1.36 8.79,-2.5 10.29,-1.85 15.6,-3.08 0,-2.73 0.44,-5.25 0.99,-7.27 0.44,-1.6 1.6,-4.23 2.45,-5.46 5.92,-8.59 12.14,-8.68 21.71,-10.27 4.46,-0.74 9.17,-1.44 14.37,-1.44 4.19,0 13.79,-0.41 16.88,1.08 0.23,-2.81 1.73,-7.2 2.65,-9.93 2.12,-6.29 3.92,-12.04 6.38,-18.06 0.58,-1.41 1.2,-2.61 1.85,-4.25 0.63,-1.58 1.07,-2.82 1.81,-4.3 3.4,-6.78 6.5,-13.7 10.37,-20.17 0.81,-1.36 1.41,-2.48 2.2,-3.91l9.68 -14.75c5.69,-7.61 11.52,-15 17.77,-22.11 2.45,-2.78 8.28,-9.01 10.45,-10.75l6.41 -5.8c4.69,-3.93 8.3,-7.39 13.5,-11.29l10.6 -7.72 26.9 -15.86c4.07,-2.19 13.05,-6.05 16.95,-7.48l18.06 -6.37c11.03,-3.41 28.8,-7.72 40.2,-8.66l11.18 -1.03c3.01,-0.34 5.74,-0.4 8.56,-0.41z"/>
   <path class="fil1" d="M197.26 189.32c19.84,-3.72 41,1.2 54.3,10.36 10.47,7.21 17.54,15.98 23.06,27.24 1.6,3.27 5.42,8.08 3.39,12.5 0.25,1.92 -0.57,10.67 -0.92,12.98 -0.57,3.73 -2.46,7.24 -3.94,10.05 -2.31,4.38 -9.2,14.36 -11.86,16.08 -0.96,1.69 -4.87,4.56 -6.87,6.17 -1.27,1.02 -6.35,4.68 -7.88,4.83 -0.31,0.32 -0.21,0.25 -0.65,0.59 -1.95,1.48 -13.23,6.04 -16.43,5.83 -1.48,1.25 -9.74,1.92 -11.21,1.78 -1.57,1.02 -10.34,0.29 -12.93,0.3 0.91,2.91 3.25,6.59 4.75,9.28 1.71,3.07 3.43,5.78 5.35,8.67 46.2,69.69 141.32,89.69 212.64,42.16 8.09,-5.39 16.21,-12.17 22.83,-18.85 6.43,-6.48 14.11,-15.45 18.94,-23.09 2.7,-4.26 8.67,-13.02 10.25,-18.17 -2.58,0.01 -11.39,0.72 -12.95,-0.29 -1.74,0.17 -3.6,-0.1 -5.43,-0.39 -0.74,-0.11 -1.65,-0.23 -2.49,-0.39 -1.11,-0.21 -1.11,-0.08 -1.84,-0.65 -3.03,0.17 -11.38,-2.96 -14.51,-4.45l-4.01 -2.32c-1.54,-0.17 -6.61,-3.82 -7.88,-4.84 -2.06,-1.66 -5.88,-4.39 -6.87,-6.19 -2.76,-1.67 -9.52,-11.77 -11.98,-16.3 -4.73,-8.72 -3.91,-12.37 -4.99,-23.23 -0.78,-5.69 1.75,-8.08 3.87,-12.53 1.76,-3.69 3.92,-7.21 6.13,-10.39 15.04,-21.61 43.2,-31.94 70.98,-26.73l1.64 0.13c-1.61,-7.65 -5.8,-17.05 -8.8,-23.75 -8.66,-19.32 -26.42,-41.29 -42.73,-53.94 -26.99,-20.93 -58.66,-33.52 -95.53,-33.52 -39.11,0.01 -72.7,15.07 -95.51,33.54 -12.24,9.91 -21.54,19.77 -31.08,33.6 -7.13,10.33 -17.41,29.85 -20.46,44.07l1.63 -0.14z"/>
   <path class="fil2" d="M153.38 188.22c6.02,-0.15 11.96,0.14 17.63,1.15 8.52,1.51 9.25,2.74 14.7,4.15 1.42,-1.7 0.91,-2.51 3.52,-2.88 1.54,-7.93 5.89,-18.58 8.96,-25.42 10.4,-23.18 25.79,-41.89 44.35,-57.34 41.42,-34.49 102.94,-46.01 157.42,-24.66 16.83,6.6 39.58,20.19 51.72,33.06 1.49,1.58 2.8,2.58 4.34,4.29 1.43,1.6 2.7,2.47 4.06,4.2l3.99 4.64c13.01,14.12 27.15,42.32 31.59,61.27 2.91,-0.02 2.69,1.25 4.01,2.85 2.1,-0.53 4.39,-1.6 6.89,-2.34 6.31,-1.85 20.55,-4.19 26.14,-2.73 0.16,-6.16 -7.79,-26.77 -10.12,-32.75 -3.38,-8.7 -9.81,-20.37 -14.68,-28.1 -11.99,-19.04 -24.73,-32.89 -39.8,-45.72 -71.52,-60.86 -180.14,-60.78 -250.79,0.02 -23.02,19.81 -43.07,45.28 -54.5,73.8 -3.58,8.94 -7.74,20.78 -9.9,30.42 -0.51,2.27 0.11,1.9 0.47,2.1z"/>
   <path class="fil3" d="M333.13 300.3l-3.04 -0 0.14 -143.85c4.27,0 11.58,-0.43 15.5,0.15 4,0.59 7.77,3.28 8.95,6.55l0.27 0.38c0.04,0.08 0.19,0.34 0.23,0.44 0.04,0.09 0.32,0.98 0.35,1.09 0.63,2.43 0.44,4.58 0.44,7.08l0 110.68c0,7.63 -0,11.54 -4.89,15.22 -4.25,3.2 -11.68,2.28 -17.95,2.28zm-35.28 35.55c11.93,-0.12 23.93,-0.01 35.87,-0.01 13.1,0 20.69,0.25 31.27,-4.85 18.12,-8.73 26.53,-25.44 26.52,-45.67l0 -108.52c0,-8.88 0.33,-15.87 -2.69,-24.23 -0.91,-2.52 -1.95,-4.31 -2.77,-6.58 -2.79,-3.15 -3.09,-7.48 -13.49,-15.59 -14.71,-11.46 -30.44,-9.5 -48.54,-9.5 -9.53,0 -19.84,-0.37 -29.27,0.04 -0.65,2.92 -0.18,46.47 -0.18,53.35 0,9.23 -0.41,157.85 0.16,161.79l3.12 -0.22z"/>
   <path class="fil2" d="M176.97 295.59c-1.69,1.54 -12.61,2.87 -15.34,2.21l-1.93 0.82c1.7,6.04 9.32,21.7 12.19,26.75 14.12,24.86 31.33,45.2 54.2,62.21 69.26,51.51 163.4,51.61 233.18,0l13.08 -10.99c17.41,-17.01 28.34,-28.31 40.99,-51.35 2.84,-5.17 11.38,-22.07 12.22,-27.2 -3.52,0.3 -15.04,-0.51 -17.17,-2.45 -2.88,0.18 -5.98,-1.74 -8.74,-2.48 -1.67,1.38 -0.96,2.02 -3.66,2.56 -1.78,0.36 -3.6,0.79 -5.41,0.64 -0.87,0.66 -2.93,0.81 -4.23,0.72 -4.51,8.43 -5.05,10.45 -10.68,19.28 -11.44,17.92 -26.03,32.9 -43.44,44.94 -67.12,46.44 -157.98,33.74 -210.66,-28.1 -7.09,-8.33 -19.27,-25.57 -22.98,-36.14 -1.21,0.06 -3.02,-0.1 -3.82,-0.71 -1.77,0.15 -3.67,-0.29 -5.41,-0.64 -2.7,-0.55 -1.99,-1.19 -3.66,-2.56 -2.75,0.74 -5.86,2.66 -8.74,2.48z"/>
   <path class="fil4" d="M592.91 268.56c-4.13,0.22 -7.94,0.98 -12.42,1.02 -17.89,0.15 -35.77,-6.02 -46.77,-19.76 -2.62,-3.26 -8.74,-11.67 -9.93,-16.38 23.22,-0.62 45.12,1.82 59.84,19.99 1.7,2.1 8.66,12.13 9.28,15.12zm3.39 27.74c3.17,0.17 8.8,-0.53 9.28,-4.86 0.15,-1.34 -0.17,-1.59 -0.02,-3.23l0.53 -10.78c-0.26,-0.52 -0.81,-3.27 -0.92,-3.88 7.49,0.24 11.48,0.23 18.68,-0.92 1.81,-0.29 2.23,-0.65 2.38,-0.67 2.12,0.16 9.31,-2.14 11.88,-3.05l3.61 -1.52c0.05,-0.04 0.16,-0.11 0.23,-0.17 3.4,-0.31 15.46,-7.44 18.57,-9.31 9.2,-5.54 7.24,-1.58 8.69,-19.99 -0.21,-5.9 -0.73,-4.83 -6.85,-9.3 -13.06,-9.53 -28.62,-15.38 -45.28,-16.36 -3.74,-0.22 -8.03,0.12 -11.54,-0.19l-8.76 0.92c1.06,-2.49 3.29,-5.68 4.7,-8.36 1.12,-2.13 3.25,-6.75 4.68,-8.35l-0.2 5.7c0.98,-2.18 0.62,-5.65 0.1,-8.11 -0.58,-2.73 -2.13,-3.05 -5.26,-3.54 -5.33,-0.83 -10.24,-1.53 -15.68,-1.95 -9.56,-0.74 -22.48,1.09 -30.84,4.36l-0.78 -0.75c-3.2,-1.9 -5.31,-1.81 -9.68,-2.5 -3.45,-0.55 -7.52,-1.22 -11.12,-1 -5.58,-1.45 -19.82,0.88 -26.14,2.73 -2.5,0.73 -4.78,1.8 -6.89,2.34 -1.32,-1.6 -1.1,-2.88 -4.01,-2.85 -1.27,-0.4 -2.32,-0.64 -3.68,-0.79 -2.16,-0.25 -2.33,0.51 -3.85,-0.55 -27.79,-5.2 -55.94,5.13 -70.98,26.73 -2.21,3.18 -4.38,6.7 -6.13,10.39 -2.12,4.44 -4.65,6.84 -3.87,12.53 1.07,10.85 0.25,14.51 4.99,23.23 2.46,4.53 9.22,14.63 11.98,16.3 0.99,1.8 4.81,4.53 6.87,6.19 1.27,1.02 6.35,4.67 7.88,4.84l4.01 2.32c3.14,1.49 11.48,4.62 14.51,4.45 0.73,0.58 0.72,0.45 1.84,0.65 1.91,0.36 6.44,1.03 7.92,0.78 2.44,-0.61 7.14,-0.18 9.9,-0.2 4.25,-0.02 5.18,0.56 9.33,-0.51 1.3,0.1 3.35,-0.06 4.23,-0.72 1.81,0.15 3.63,-0.28 5.41,-0.64 2.7,-0.55 1.99,-1.19 3.66,-2.56 2.76,0.74 5.86,2.66 8.74,2.48 2.13,1.94 13.64,2.75 17.17,2.45 3.53,0.43 10.68,-0.23 14.54,-0.76 0.63,-0.09 1.43,-0.19 2.19,-0.3 2.07,-0.44 1.13,-0.63 3.98,-0.72 1.81,-0.06 0.93,-0.02 1.01,0.2l1.94 -1.02c0.92,0.74 0.25,-0.38 0.56,0.93 0.68,-1.52 -0.04,-0.09 2.39,-1.65 2.55,-1.64 2.75,0.55 6.13,0.48 2.17,2.01 14.88,2.8 18.58,2.9 3.5,0.1 17.2,-0.33 19.39,-1.82zm-68.26 -26.72c-20.42,0.05 -36.39,-7.19 -47.81,-21.6 -2.12,-2.67 -7.45,-10.41 -8.52,-14.51 16,-0.87 34.95,1.5 47.29,8.79 5.36,3.17 9.23,6.93 12.73,11.34 2,2.52 8.29,11.74 9.19,14.83 -4.15,0.71 -8.48,1.13 -12.88,1.14zm-41.82 -1.02c-4.15,0.22 -7.93,0.98 -12.42,1.02 -17.97,0.14 -35.68,-6.04 -46.76,-19.77 -2.6,-3.22 -8.81,-11.68 -9.94,-16.37 23.29,-0.55 45.06,1.7 59.86,19.98 1.7,2.1 8.65,12.15 9.27,15.14zm80.03 -36.06c0.84,-1.25 6.9,-4.63 8.9,-5.72 17.63,-9.57 40.87,-11.37 60.2,-4.97 5.11,1.69 16.83,6.6 19.39,9.61 -2.65,2.47 -15.16,8.05 -19.28,9.37 -7.59,2.43 -15.41,4.26 -24.44,4.15 -8.43,-0.1 -17.75,-1.78 -24.85,-4.1 -5.2,-1.7 -16.09,-5.66 -19.92,-8.35zm-41.69 -1.61c1.42,-5.18 7.31,-13.71 10.13,-16.89 8.98,-10.13 19.79,-16.6 34.3,-18.88 4.55,-0.71 20.85,-1.66 24.39,0.36 -1.15,2.76 -3.24,5.97 -4.75,8.51 -14.24,23.93 -36.06,26.74 -64.08,26.89zm-106.58 -0.01c1.15,-4.82 7.52,-13.73 10.05,-16.86 3.4,-4.22 9.76,-9.38 14.54,-12.03 5.95,-3.3 11.96,-5.63 19.74,-6.86 4.88,-0.77 20.6,-1.68 24.42,0.36 -1.77,4.72 -7.4,12.69 -10.12,16.11 -3.71,4.66 -8.12,8.27 -14.21,11.66 -11.91,6.62 -28.77,7.67 -44.41,7.63zm54.57 0.01c1.12,-4.72 7.6,-14.04 10.07,-16.88 8.82,-10.14 20.17,-16.63 34.28,-18.88 5.02,-0.8 20.61,-1.64 24.49,0.36 -1.18,3.71 -7.69,13 -10.18,16.1 -3.81,4.73 -8.01,8.2 -14.21,11.66 -12.08,6.73 -28.72,7.58 -44.44,7.64z"/>
   <path class="fil4" d="M199.16 268.56c0.73,-3.52 8.37,-14.16 10.26,-16.29 4.17,-4.68 7.48,-8.01 14.32,-11.55 11.78,-6.1 29.17,-8.03 44.55,-7.27 -1.12,4.74 -7.5,13.37 -10.1,16.57 -11.1,13.64 -29.02,19.76 -46.97,19.56 -4.33,-0.05 -8.05,-0.8 -12.06,-1.01zm62.13 9.97c2.66,-1.72 9.55,-11.7 11.86,-16.08 1.48,-2.81 3.38,-6.32 3.94,-10.05 0.35,-2.31 1.17,-11.06 0.92,-12.98 2.03,-4.42 -1.79,-9.23 -3.39,-12.5 -5.51,-11.26 -12.59,-20.04 -23.06,-27.24 -13.3,-9.16 -34.46,-14.07 -54.3,-10.36 -0.91,0.63 -6.12,0.91 -8.03,1.32 -2.61,0.37 -2.1,1.18 -3.52,2.88 -5.45,-1.41 -6.18,-2.64 -14.7,-4.15 -5.67,-1.01 -11.6,-1.3 -17.63,-1.15 -0.51,0.09 -0.35,0.29 -1.57,0.3 -5.52,0.04 -15.89,1.05 -19.91,3.44l-0.71 0.84c-15.2,-6.04 -30.27,-5.03 -45.97,-2.58 -2.84,0.44 -4.88,0.59 -5.67,2.85 -0.82,2.33 -1.03,6.18 -0.18,8.38l-0.07 -5.04 9.32 16.6 -8.75 -0.96c-7.77,0.72 -9.62,-0.63 -20.96,1.39 -12.9,2.3 -25.39,7.16 -35.44,14.86 -6.12,4.69 -7.1,3.33 -7.27,9.62 0.36,4.5 0.75,8.61 1.07,12.91 0.28,3.72 1.92,3.67 7.4,6.94 2.98,1.78 15.7,9.33 18.79,9.45 1.18,1.08 5.79,2.38 7.34,2.84 1.91,0.57 6.52,2.05 8.37,1.91l0.57 0.25 4.3 0.79c5.53,0.6 10.63,0.91 16.09,0.57 -0.01,0.86 -0.46,2.65 -0.63,4.03 -0.34,1.68 0.09,8.02 0.31,10.26 0.23,2.28 -1.66,9.1 9.32,8.44 1.74,1.27 6.15,1.13 8.62,1.39 2.91,0.31 6.78,0.5 9.76,0.45 6.77,-0.11 12.66,-1 18.86,-2.44 1.31,-0.43 3.31,-1.12 4.75,-1.48 1.95,-0.49 0.83,-0.31 2.08,0.52 3.07,2.03 2.97,0.07 4.78,1.84 0.2,-0.16 -0.09,-0.49 1.76,-0.22 1.44,0.21 1.19,0.33 2.78,0.24 1.17,1.17 11.47,1.51 14.13,1.59 2.83,0.08 2.7,-1.03 5,-0.38 2.73,0.67 13.65,-0.67 15.34,-2.21 2.88,0.18 5.99,-1.73 8.74,-2.48 1.67,1.37 0.96,2.01 3.66,2.56 1.75,0.35 3.65,0.79 5.41,0.64 0.8,0.61 2.6,0.76 3.82,0.71 5.7,1.75 14.39,-0.6 19.64,0.71 1.47,0.14 9.73,-0.53 11.21,-1.78 3.2,0.21 14.48,-4.36 16.43,-5.83 0.44,-0.34 0.35,-0.27 0.65,-0.59 1.53,-0.16 6.62,-3.81 7.88,-4.83 2,-1.61 5.91,-4.48 6.87,-6.17zm-116.83 -10.09c1,-3.4 8.14,-13.72 10.17,-16 4.24,-4.74 7.44,-8.04 14.27,-11.61 10.51,-5.5 30.64,-8.73 44.77,-7.34 -1.28,4.93 -7.45,13.19 -10.12,16.48 -3.34,4.12 -8.88,8.89 -14.57,12.03 -12.61,6.93 -28.02,9.29 -44.52,6.44zm-51.99 0.12c0.7,-3.37 8.45,-14.26 10.24,-16.31 4.14,-4.73 7.8,-8.07 14.34,-11.54 10.9,-5.78 29.83,-8.17 44.54,-7.26 -1.16,4.71 -7.5,13.38 -10.09,16.57 -3.21,3.96 -9.22,9.11 -14.58,12.02 -5.99,3.24 -11.96,5.46 -19.94,6.71 -11.56,1.82 -14.75,0.33 -24.51,-0.19zm-61.84 -37.14c2.64,-3.06 14.21,-7.88 19.39,-9.6 16.01,-5.33 34.56,-4.98 50.21,0.6 3.98,1.42 17.14,7.45 18.9,10.08 -3.74,2.65 -15.05,6.79 -20.19,8.43 -17.16,5.48 -32.35,5.24 -49.29,-0.23 -4.23,-1.37 -16.43,-6.9 -19.02,-9.28zm168.01 -35.93c3.78,-2.03 20.12,-1.1 24.81,-0.3 7.96,1.36 13.4,3.54 19.58,6.92 4.52,2.47 11.39,8.13 14.47,12.11 2.52,3.26 8.75,11.8 9.89,16.67 -22.57,0.02 -45.13,-2.02 -58.78,-19.5 -2.8,-3.59 -8.13,-11.09 -9.97,-15.9zm-54.66 0c3.99,-2.06 19.82,-1.1 24.82,-0.31 13.44,2.13 25.87,9.02 34.11,19.02 2.56,3.11 8.75,11.85 9.91,16.69 -23.81,-0.1 -44.22,-1.83 -58.82,-19.5 -2.47,-2.99 -8.54,-11.77 -10.02,-15.91zm-51.99 0c3.62,-2.07 20.09,-1.05 24.73,-0.31 7.59,1.2 13.85,3.65 19.66,6.9 9.88,5.51 21.66,18.68 24.43,28.81 -28.32,-0.15 -50.02,-3.1 -64.2,-27.12 -1.44,-2.43 -3.48,-5.57 -4.62,-8.28z"/>
   <path class="fil5" d="M170.05 359.8c1.05,0.52 2.8,2.97 3.62,4.04 5.08,6.65 11.16,13.54 17.17,19.48l7.26 7.27c1.47,0.61 4.69,3.73 6.06,4.93 2.1,1.84 3.74,3.1 5.95,4.82 1.47,1.14 11.6,8.54 11.89,8.99 2.98,1.38 5.93,3.74 8.8,5.52 5.94,3.68 12.05,6.92 18.43,9.97l9.41 4.47c4.1,1.2 7.99,3.14 12.12,4.55 4.1,1.4 8.23,2.8 12.52,3.98 11.88,3.28 15.69,3.56 26.64,5.91 11.99,1.04 15.17,2.06 28.83,2.35 25.6,0.54 57.1,-4.3 79.85,-13.71 3.77,-1.56 7.28,-2.93 10.95,-4.48 8.26,-3.5 17.79,-8.67 25.48,-13.33l13.94 -9.41c5.52,-3.91 16.59,-12.74 21.19,-17.61 1.19,-1.26 2.77,-3.08 4.38,-3.72 0.74,-1.7 5.28,-5.68 6.96,-7.59 1.17,-1.33 2.34,-2.71 3.51,-4.06 1.23,-1.42 2.06,-2.75 3.56,-3.73 0.61,-1.47 4.6,-6.18 5.95,-7.94 10.12,-13.16 18.62,-28.21 25.35,-43.63 1.83,-4.19 6.63,-16.37 7.45,-20.42 -0.08,-0.22 0.8,-0.25 -1.01,-0.2 -0.87,0.03 -0.69,0.14 -1.67,0.06l-2.31 0.66c-0.76,0.1 -1.56,0.21 -2.19,0.3 -3.86,0.53 -11.01,1.19 -14.54,0.76 -0.84,5.14 -9.38,22.03 -12.22,27.2 -12.66,23.04 -23.58,34.35 -40.99,51.35l-13.08 10.99c-69.79,51.61 -163.92,51.51 -233.18,-0 -22.87,-17.01 -40.08,-37.35 -54.2,-62.21 -2.87,-5.06 -10.5,-20.71 -12.19,-26.75l1.93 -0.82c-2.3,-0.64 -2.18,0.47 -5,0.38 -1.62,-0.05 -3.42,-0.11 -5.02,-0.22 -1.92,-0.13 -8.15,-0.41 -9.11,-1.37 -1.59,0.09 -1.33,-0.03 -2.78,-0.24 -0.33,-0.05 -0.78,-0.11 -1.11,-0.06 -1,0.13 0.11,-0.32 -0.66,0.28 5.76,19.81 16.15,39.37 27.39,56.19 1.06,1.59 4.38,5.56 4.7,7.04zm-38.16 -167.85c4.02,-2.39 14.39,-3.4 19.91,-3.44 0.13,-0 0.5,-0 0.62,-0.02 0.11,-0.01 0.21,-0.05 0.31,-0.06l0.64 -0.21c-0.36,-0.2 -0.98,0.16 -0.47,-2.1 2.16,-9.64 6.32,-21.48 9.9,-30.42 11.43,-28.51 31.48,-53.98 54.5,-73.8 70.65,-60.8 179.27,-60.89 250.79,-0.02 15.07,12.82 27.8,26.68 39.8,45.72 4.87,7.72 11.3,19.4 14.68,28.1 2.33,5.99 10.28,26.6 10.12,32.75 3.6,-0.21 7.66,0.46 11.12,1 4.37,0.69 6.48,0.6 9.68,2.5 1.01,-3 -1.48,-9.22 -1.95,-12.63 -0.14,-1.04 -0.38,-1.63 -0.67,-2.62 -0.47,-1.6 -0.9,-3.09 -1.44,-4.67 -0.92,-2.73 -1.55,-6.26 -2.72,-9.16 -1.18,-2.91 -2,-6.14 -3.24,-8.98 -2.51,-5.76 -4.34,-11.31 -7.3,-16.8l-4.25 -8.29c-0.05,-0.11 -0.18,-0.41 -0.23,-0.51l-11 -17.82c-0.43,-0.52 -0.75,-1.05 -1.12,-1.67l-11.83 -15.54c-0.95,-1.09 -1.66,-1.96 -2.61,-3.11 -2.83,-3.43 -6.45,-6.56 -8.82,-9.5 -2.89,-3.59 -15.42,-14.35 -19.09,-17.26 -0.06,-0.05 -0.14,-0.11 -0.2,-0.16 -0.06,-0.05 -0.14,-0.11 -0.2,-0.16l-6.45 -5c-1.1,-0.95 -2.28,-1.55 -3.4,-2.39 -1.04,-0.77 -2.24,-1.76 -3.53,-2.59l-14.85 -9.19c-0.83,-0.49 -1.12,-0.54 -1.96,-0.98 -3.09,-1.62 -8.02,-4.59 -11.05,-5.82 -6.92,-2.81 -18.19,-8.52 -24.98,-9.96 -1.79,-0.38 -2.96,-0.93 -4.53,-1.5 -3.08,-1.11 -15.62,-4.56 -19.19,-4.97 -3.41,-0.39 -6.77,-1.16 -9.99,-1.82 -8.42,-1.73 -26.36,-2.58 -34.19,-2.58 -8.13,0 -25.03,0.81 -33.6,2.46 -3.43,0.66 -6.78,1.57 -10.23,1.91 -3.55,0.35 -16.31,3.89 -19.27,4.91 -5.18,1.79 -10.01,3.21 -14.95,5.2l-11.08 4.74c-1.52,0.76 -2.48,1.14 -4.23,1.85 -1.8,0.74 -2.33,1.44 -3.92,2.19 -4.86,2.28 -11.13,5.49 -15.57,8.57 -2.84,1.97 -6.24,3.76 -8.94,5.79l-11.28 8.44c-0.08,0.06 -0.33,0.23 -0.42,0.3 -0.06,0.05 -0.15,0.11 -0.21,0.15 -0.06,0.05 -0.15,0.11 -0.21,0.16l-6.9 5.68c-0.06,0.05 -0.14,0.12 -0.2,0.16l-0.4 0.33c-5.17,4.36 -10.05,9.2 -14.68,14.1l-3 3.09c-1.94,2.24 -3.81,4.29 -5.63,6.61l-3.88 4.7c-2.39,2.56 -5.58,7.59 -7.83,10.55 -0.61,0.81 -0.76,1.29 -1.26,1.97 -2.71,3.66 -10.05,15.28 -11.54,18.69 -0.74,1.71 -1.11,2.53 -1.98,4.08 -0.49,0.86 -0.7,1 -1.1,1.8 -0.39,0.8 -0.56,1.3 -1.04,2.18 -1.51,2.78 -8.12,17.74 -8.95,20.94 -0.55,2.13 -0.73,2.72 -1.46,4.62l-4.95 16.25c-0.22,1.01 -0.2,1.96 -0.41,2.9 -0.54,2.41 -2.6,7.62 -1.67,10.38z"/>
   <path class="fil5" d="M189.24 190.64c1.9,-0.41 7.12,-0.68 8.03,-1.32l-1.63 0.14c3.05,-14.23 13.34,-33.74 20.46,-44.07 9.54,-13.83 18.84,-23.69 31.08,-33.6 22.81,-18.47 56.4,-33.53 95.51,-33.54 36.88,-0.01 68.55,12.59 95.53,33.52 16.31,12.65 34.07,34.62 42.73,53.94 3.01,6.71 7.19,16.1 8.8,23.75l-1.64 -0.13c1.53,1.06 1.69,0.31 3.85,0.55 1.36,0.15 2.41,0.39 3.68,0.79 -4.43,-18.95 -18.57,-47.15 -31.59,-61.27l-3.99 -4.64c-1.37,-1.73 -2.63,-2.6 -4.06,-4.2 -1.53,-1.71 -2.85,-2.71 -4.34,-4.29 -12.14,-12.87 -34.89,-26.46 -51.72,-33.06 -54.47,-21.35 -116,-9.83 -157.42,24.66 -18.56,15.45 -33.95,34.17 -44.35,57.34 -3.07,6.84 -7.42,17.49 -8.96,25.42z"/>
   <path class="fil5" d="M486.37 297.03c-4.15,1.07 -5.09,0.48 -9.33,0.51 -2.77,0.02 -7.46,-0.41 -9.9,0.2 1.56,1.02 10.37,0.3 12.95,0.29 -1.58,5.15 -7.56,13.91 -10.25,18.17 -4.84,7.65 -12.51,16.61 -18.94,23.09 -6.62,6.67 -14.75,13.46 -22.83,18.85 -71.32,47.53 -166.43,27.53 -212.64,-42.16 -1.92,-2.89 -3.63,-5.6 -5.35,-8.67 -1.5,-2.69 -3.84,-6.38 -4.75,-9.28 2.59,-0.01 11.36,0.72 12.93,-0.3 -5.25,-1.31 -13.94,1.04 -19.64,-0.71 3.71,10.57 15.88,27.81 22.98,36.14 52.68,61.84 143.54,74.54 210.66,28.1 17.41,-12.05 32,-27.02 43.44,-44.94 5.64,-8.84 6.18,-10.85 10.68,-19.28z"/>
   <path class="fil2" d="M566.25 232.5c3.83,2.68 14.72,6.64 19.92,8.35 7.1,2.33 16.42,4 24.85,4.1 9.03,0.11 16.84,-1.73 24.44,-4.15 4.12,-1.32 16.63,-6.9 19.28,-9.37 -2.56,-3.01 -14.28,-7.91 -19.39,-9.61 -19.33,-6.4 -42.57,-4.61 -60.2,4.97 -2,1.09 -8.06,4.46 -8.9,5.72z"/>
   <path class="fil2" d="M30.64 231.42c2.58,2.38 14.78,7.92 19.02,9.28 16.94,5.47 32.13,5.71 49.29,0.23 5.14,-1.64 16.45,-5.79 20.19,-8.43 -1.76,-2.63 -14.92,-8.66 -18.9,-10.08 -15.65,-5.58 -34.19,-5.93 -50.21,-0.6 -5.18,1.72 -16.75,6.54 -19.39,9.6z"/>
   <path class="fil2" d="M472.56 230.88c15.72,-0.06 32.37,-0.91 44.44,-7.64 6.2,-3.46 10.41,-6.92 14.21,-11.66 2.5,-3.11 9,-12.4 10.18,-16.1 -3.88,-2 -19.47,-1.16 -24.49,-0.36 -8.05,1.28 -13.55,3.53 -19.75,6.84 -5.78,3.08 -10.89,7.86 -14.53,12.04 -2.47,2.84 -8.95,12.16 -10.07,16.88z"/>
   <path class="fil2" d="M143.99 195.48c1.48,4.14 7.54,12.91 10.02,15.91 14.6,17.67 35.01,19.4 58.82,19.5 -1.16,-4.84 -7.35,-13.58 -9.91,-16.69 -3.27,-3.97 -9.14,-9.29 -14.46,-12.11 -6.17,-3.27 -11.71,-5.65 -19.65,-6.91 -5.01,-0.79 -20.83,-1.75 -24.82,0.31z"/>
   <path class="fil2" d="M144.46 268.43c16.5,2.86 31.91,0.49 44.52,-6.44 5.7,-3.13 11.23,-7.91 14.57,-12.03 2.67,-3.3 8.84,-11.55 10.12,-16.48 -14.12,-1.39 -34.26,1.84 -44.77,7.34 -6.82,3.57 -10.03,6.87 -14.27,11.61 -2.04,2.28 -9.17,12.6 -10.17,16z"/>
   <path class="fil2" d="M417.99 230.88c15.64,0.04 32.5,-1.01 44.41,-7.63 6.1,-3.39 10.5,-7 14.21,-11.66 2.72,-3.42 8.35,-11.39 10.12,-16.11 -3.83,-2.04 -19.55,-1.13 -24.42,-0.36 -7.77,1.23 -13.79,3.56 -19.74,6.86 -4.78,2.65 -11.14,7.81 -14.54,12.03 -2.52,3.13 -8.9,12.05 -10.05,16.86z"/>
   <path class="fil2" d="M199.16 268.56c4.01,0.22 7.73,0.96 12.06,1.01 17.95,0.21 35.87,-5.92 46.97,-19.56 2.6,-3.2 8.98,-11.83 10.1,-16.57 -15.37,-0.75 -32.77,1.18 -44.55,7.27 -6.84,3.54 -10.15,6.87 -14.32,11.55 -1.89,2.12 -9.53,12.77 -10.26,16.29z"/>
   <path class="fil2" d="M91.99 195.48c1.14,2.72 3.18,5.85 4.62,8.28 14.19,24.02 35.89,26.97 64.2,27.12 -2.77,-10.14 -14.55,-23.3 -24.43,-28.81 -5.82,-3.25 -12.07,-5.7 -19.66,-6.9 -4.64,-0.74 -21.11,-1.76 -24.73,0.31z"/>
   <path class="fil2" d="M524.57 230.89c28.02,-0.15 49.83,-2.96 64.08,-26.89 1.51,-2.54 3.6,-5.75 4.75,-8.51 -3.54,-2.02 -19.84,-1.08 -24.39,-0.36 -14.51,2.28 -25.32,8.75 -34.3,18.88 -2.82,3.18 -8.72,11.71 -10.13,16.89z"/>
   <path class="fil2" d="M92.47 268.56c9.75,0.52 12.95,2.01 24.51,0.19 7.99,-1.26 13.96,-3.47 19.94,-6.71 5.36,-2.9 11.37,-8.06 14.58,-12.02 2.58,-3.18 8.92,-11.85 10.09,-16.57 -14.71,-0.91 -33.64,1.48 -44.54,7.26 -6.54,3.46 -10.19,6.8 -14.34,11.54 -1.79,2.05 -9.54,12.94 -10.24,16.31z"/>
   <path class="fil2" d="M198.65 195.48c1.84,4.81 7.17,12.31 9.97,15.9 13.66,17.48 36.22,19.52 58.78,19.5 -1.14,-4.87 -7.37,-13.41 -9.89,-16.67 -3.08,-3.98 -9.94,-9.63 -14.47,-12.11 -6.18,-3.38 -11.62,-5.57 -19.58,-6.92 -4.7,-0.8 -21.03,-1.73 -24.81,0.3z"/>
   <path class="fil2" d="M486.23 268.56c-0.61,-2.99 -7.57,-13.04 -9.27,-15.14 -14.79,-18.29 -36.57,-20.53 -59.86,-19.98 1.14,4.69 7.34,13.15 9.94,16.37 11.08,13.73 28.79,19.91 46.76,19.77 4.49,-0.03 8.27,-0.79 12.42,-1.02z"/>
   <path class="fil2" d="M592.91 268.56c-0.61,-2.99 -7.57,-13.02 -9.28,-15.12 -14.72,-18.17 -36.62,-20.61 -59.84,-19.99 1.18,4.71 7.31,13.11 9.93,16.38 11.01,13.73 28.89,19.91 46.77,19.76 4.47,-0.04 8.29,-0.79 12.42,-1.02z"/>
   <path class="fil2" d="M528.05 269.58c4.41,-0.01 8.73,-0.43 12.88,-1.14 -0.9,-3.09 -7.18,-12.31 -9.19,-14.83 -3.5,-4.41 -7.37,-8.18 -12.73,-11.34 -12.34,-7.29 -31.29,-9.66 -47.29,-8.79 1.07,4.1 6.4,11.84 8.52,14.51 11.42,14.41 27.39,21.64 47.81,21.6z"/>
   <path class="fil4" d="M297.84 335.85l0 4.48c3.46,0.47 31.31,0.13 37.3,0.13 13.72,0 21.54,0.63 32.81,-4.73 8.27,-3.93 15.38,-10.53 19.67,-17.68 6.13,-10.22 7.11,-16.77 7.11,-30.58l0 -112.47c0,-5.87 -0.51,-11.42 -2.21,-16.5 -1.18,-3.51 -4.14,-10.82 -6.49,-12.52 0.82,2.28 1.86,4.06 2.77,6.58 3.02,8.35 2.69,15.35 2.69,24.23l0 108.52c0.01,20.23 -8.4,36.94 -26.52,45.67 -10.59,5.1 -18.17,4.85 -31.27,4.85 -11.94,0 -23.93,-0.11 -35.87,0.01zm35.28 -35.55c0.79,-2.8 0.25,-93.2 0.25,-104.45 0,-5.91 -0.3,-31.13 0.1,-34.73 2.66,-0.14 14,-0.26 16.66,0.3 2.12,0.44 2.84,1.39 4.55,1.73 -1.18,-3.28 -4.95,-5.97 -8.95,-6.55 -3.92,-0.57 -11.23,-0.15 -15.5,-0.15l-0.14 143.85 3.04 0z"/>
   <path class="fil4" d="M547.3 296.46c-0.82,4.05 -5.63,16.24 -7.45,20.42 -22.4,50.13 -61.79,90.14 -112.5,112.19 -115.36,50.17 -250.95,-12.44 -289.39,-132.51 -0.86,-0.84 -0.78,-0.79 -2.45,-0.83 0.36,3.23 1.92,7.81 2.89,11.05 36.93,116.33 157.48,181.94 273.75,141.57 47.49,-16.49 90.56,-51.72 115.29,-95.82 11.23,-20.02 16.8,-33.88 22.37,-56.17 -0.32,-1.31 0.36,-0.18 -0.56,-0.93l-1.94 1.02z"/>
   <path class="fil6" d="M605.53 212.05l0.42 -10.09 0.2 -5.7c-1.43,1.6 -3.56,6.22 -4.68,8.35 -1.41,2.69 -3.64,5.87 -4.7,8.36l8.76 -0.92z"/>
   <polygon class="fil6" points="79.37,201.44 79.87,212.04 88.62,213 79.3,196.4 "/>
  </g>
 </g>
</svg>
