<?xml version="1.0" encoding="UTF-8"?>
<!DOCTYPE svg PUBLIC "-//W3C//DTD SVG 1.1//EN" "http://www.w3.org/Graphics/SVG/1.1/DTD/svg11.dtd">
<!-- Creator: CorelDRAW -->
<svg xmlns="http://www.w3.org/2000/svg" xml:space="preserve" width="23.5567mm" height="22.5809mm" version="1.1" style="shape-rendering:geometricPrecision; text-rendering:geometricPrecision; image-rendering:optimizeQuality; fill-rule:evenodd; clip-rule:evenodd"
viewBox="0 0 821.77 787.73"
 xmlns:xlink="http://www.w3.org/1999/xlink"
 xmlns:xodm="http://www.corel.com/coreldraw/odm/2003">
 <defs>
  <style type="text/css">
   <![CDATA[
    .fil0 {fill:#FEFEFE}
    .fil10 {fill:black}
    .fil4 {fill:#020202}
    .fil2 {fill:#040404}
    .fil14 {fill:#171717}
    .fil3 {fill:#CFCFCF}
    .fil13 {fill:#D4D4D4}
    .fil19 {fill:#E2E2E2}
    .fil17 {fill:#E5E5E5}
    .fil15 {fill:#EBEBEB}
    .fil18 {fill:#ECECEC}
    .fil16 {fill:#F1F1F1}
    .fil5 {fill:#F2F2F2}
    .fil12 {fill:whitesmoke}
    .fil6 {fill:#F9F9F9}
    .fil11 {fill:#FAFAFA}
    .fil8 {fill:#FBFBFB}
    .fil7 {fill:#FCFCFC}
    .fil9 {fill:#FDFDFD}
    .fil1 {fill:black;fill-rule:nonzero}
   ]]>
  </style>
 </defs>
 <g id="Camada_x0020_1">
  <metadata id="CorelCorpID_0Corel-Layer"/>
  <g id="_1271807862928">
   <path class="fil0" d="M651.85 492.43c5.45,0.85 10.89,1.72 16.33,2.62 6.19,1.02 10.64,6.26 10.66,12.53l0.12 44.2c11.83,2.67 55.13,9.73 63.59,13.65 7.39,3.42 9.73,12.68 4.85,19.19 -4.68,6.25 -27.35,22.83 -35.01,29.43 -0.68,0.59 -1.74,1.38 -2.88,2.24 2.8,5.72 5.57,11.46 8.18,17.26 6.12,13.66 18.99,29.55 9.31,39.56 -2.75,2.84 -6.27,4.17 -10.21,3.84 -12.32,-1.03 -24.8,-5.23 -36.95,-7.65 -31.62,-6.31 -75.76,-14.64 -107.38,-17.45 -6.85,-0.61 -11.98,-6.55 -11.59,-13.42l2.53 -43.72c-36.09,-4.99 -108.42,-9.5 -143.9,-9.21l-35.67 0.58c-33.93,0.03 -89.71,4.41 -124.1,8.78l2.76 44.37c0.44,7.13 -4.96,13.16 -12.09,13.51 -13.18,0.64 -56.82,7.93 -71.73,10.6l-69.98 13.46c-8.52,1.64 -16.1,-5.44 -15.04,-14.05 0.99,-8.14 13.02,-34 17.34,-44.54 -8.33,-8.22 -33.5,-31.28 -36.7,-38.6 -2.6,-5.94 -0.37,-12.81 5.23,-16.09 6.34,-3.72 57.21,-13.35 66.58,-15.01 -1,-9.78 -3.95,-34.4 -3.82,-41.12 0.11,-6.16 4.48,-11.25 10.54,-12.31 5.69,-0.99 11.39,-1.97 17.09,-2.94 -14.65,-6.51 -27.87,-15.59 -39.71,-26.37 -10.22,-9.31 -24.46,-28.35 -28.33,-41.6 -2.48,-8.49 4.15,-16.44 12.28,-16.33 -10.16,-9.52 -19.23,-19.93 -26.84,-31.34 -6.34,-9.5 -16.99,-28.39 -16.83,-39.64 0.14,-10.28 11.7,-16.16 20.09,-10.22l4.64 3.29c-2.17,-3.17 -4.07,-6.2 -5.61,-9 -15.54,-28.33 -20.77,-51.33 -20.04,-83.94 0.2,-8.84 9.01,-14.76 17.27,-11.61 5.91,2.25 7.75,5.67 11.11,10.42 1.72,2.44 3.47,4.85 5.25,7.25 -10.55,-23.05 -16.5,-47.46 -16.33,-77.06 0.08,-13.18 5.34,-45.19 14.42,-54.53 6.15,-6.33 16.62,-4.69 20.54,3.22 16.13,32.57 36.8,75.78 54.55,105.55 21.78,36.52 35.85,61.64 62.92,95.53 8.3,10.39 38.62,44.21 49.87,49.38 4.41,-4.28 16.63,-16.82 21.23,-19.62 -3.13,-0.21 -5.93,-1.55 -8.19,-3.91 -22.45,-23.52 -46.6,-45.38 -69.15,-68.82 -2.58,-2.68 -5,-5.45 -7.89,-7.82 -3.84,-3.16 -6.26,-6.23 -9.57,-9.76 -2.57,-2.75 -4.6,-4.31 -6.3,-7.97 -2.69,-5.8 -1.8,-11.69 0.37,-17.46 9,-23.95 53.3,-67.62 76.15,-83.24 -3.11,-0.1 -7.07,-0.14 -8.89,0.37 -8.24,2.35 -15.92,-3.7 -16.28,-11.49 -8.47,12.71 -18.34,11.52 -31.15,11.68 -21.81,0.27 -48.46,0.41 -69.83,-0.22 -8.55,-0.25 -14.39,-8.59 -11.72,-16.71l39.72 -120.53c3.61,-10.96 16.37,-9.21 27.55,-9.37 11.28,-0.16 64.04,-0.89 71.98,2.44 6.21,2.61 10.29,7.62 11.55,13.78 2.75,-7.51 5.05,-15.73 14.83,-15.76l35.9 -0.11c4.9,-0.01 9.14,2.63 11.39,6.91 2.28,-4.35 6.39,-6.92 11.33,-6.92l83.41 -0c5.67,0 10.54,3.71 12.16,8.83 4.17,-4.57 11.47,-8.68 18.16,-8.68l85.1 0.1c5,0.01 9.19,2.69 11.42,7.11 9.01,-8.19 22.91,-8 34.6,-7.96 17.15,0.06 34.28,0.6 51.46,0.59 5.74,-0.01 11.51,-0.59 17,1.55 11.79,4.57 12.98,16.47 7.46,27.45 -5.2,10.34 -25.26,64.18 -30.1,76.6 -2.54,6.51 -5.18,12.98 -7.55,19.55 -4.4,12.17 -11.36,21.2 -25.63,21.2l-68.75 -0.01c-9.66,0 -17.43,-5.25 -19.85,-14.27 -1.84,4.86 -3.46,9.24 -7.09,11.86 5.2,3.5 10.1,7.42 14.04,10.65 11.44,8.17 23.58,20.9 33.06,31.21 9.48,10.32 21.61,24 28.42,36.21 4.01,7.18 7.19,15.26 4.16,23.44 -1.59,4.28 -5.59,8.48 -8.79,11.68l-44.97 44.89c-0.27,0.27 -0.5,0.48 -0.79,0.72 -8.49,7.15 -22.96,22.91 -31.75,31.86 -4.61,4.69 -9.37,9.31 -16.13,10.04 5.48,2.79 8.25,6.52 12.47,10.6l9.68 9.37c5.46,-2.73 20.94,-17.46 25.64,-22.2 17.81,-17.95 32.42,-36.94 46.86,-57.64 1.8,-2.58 3.81,-5.08 5.48,-7.65l15.27 -24.08c24.23,-39.44 44.6,-80.08 65.51,-121.39 5.04,-9.95 7.94,-23.94 19.29,-24.6 3.74,-0.22 7.04,1.03 9.7,3.67 9.28,9.19 14.54,41.47 14.63,54.68 0.22,29.4 -4.86,51.28 -16.81,77.65 6.31,-9.47 16.2,-25.16 28.46,-16.9 3.53,2.38 5.52,6 5.62,10.26 0.79,33.7 -4.49,54.77 -20.28,84.33 -1.46,2.73 -3.24,5.63 -5.28,8.65 5.59,-4.06 10.24,-7.96 17.58,-4.32 4.35,2.16 6.97,6.28 7.06,11.14 0.23,11.4 -11.04,31 -17.45,40.67 -7.12,10.75 -16.1,20.98 -26.15,30.4 8.15,-0.07 14.51,7.82 12.28,16.08 -2.16,8.02 -8.53,17.68 -13.29,24.57 -13.52,19.55 -34.26,34 -55.67,43.92z"/>
   <path class="fil1" d="M1.09 771.87l9.66 -1.3c0.23,2.4 0.85,4.19 1.83,5.34 0.98,1.17 2.29,1.74 3.9,1.74 2.04,0 3.78,-1.16 5.2,-3.48 1.43,-2.31 2.33,-7.12 2.73,-14.39 -2.5,3.54 -5.63,5.31 -9.39,5.31 -4.08,0 -7.61,-1.92 -10.58,-5.77 -2.97,-3.85 -4.44,-8.84 -4.44,-15.01 0,-6.43 1.56,-11.6 4.7,-15.52 3.13,-3.94 7.13,-5.9 11.97,-5.9 5.26,0 9.6,2.49 12.97,7.46 3.38,4.98 5.07,13.17 5.07,24.58 0,11.59 -1.75,19.96 -5.26,25.09 -3.51,5.15 -8.08,7.71 -13.72,7.71 -4.05,0 -7.32,-1.33 -9.83,-3.98 -2.49,-2.64 -4.1,-6.6 -4.8,-11.88zm22.44 -26.57c0,-3.91 -0.74,-6.94 -2.22,-9.09 -1.47,-2.15 -3.17,-3.23 -5.11,-3.23 -1.84,0 -3.36,0.89 -4.57,2.65 -1.22,1.77 -1.83,4.66 -1.83,8.67 0,4.09 0.67,7.07 1.98,8.99 1.32,1.9 2.97,2.86 4.95,2.86 1.92,0 3.52,-0.91 4.83,-2.76 1.3,-1.84 1.96,-4.54 1.96,-8.09zm17.94 26.57l9.66 -1.3c0.23,2.4 0.85,4.19 1.83,5.34 0.98,1.17 2.29,1.74 3.9,1.74 2.04,0 3.77,-1.16 5.2,-3.48 1.43,-2.31 2.33,-7.12 2.73,-14.39 -2.5,3.54 -5.62,5.31 -9.39,5.31 -4.08,0 -7.61,-1.92 -10.58,-5.77 -2.97,-3.85 -4.44,-8.84 -4.44,-15.01 0,-6.43 1.56,-11.6 4.7,-15.52 3.13,-3.94 7.13,-5.9 11.97,-5.9 5.26,0 9.59,2.49 12.97,7.46 3.38,4.98 5.07,13.17 5.07,24.58 0,11.59 -1.75,19.96 -5.26,25.09 -3.51,5.15 -8.09,7.71 -13.72,7.71 -4.05,0 -7.32,-1.33 -9.83,-3.98 -2.49,-2.64 -4.1,-6.6 -4.8,-11.88zm22.43 -26.57c0,-3.91 -0.74,-6.94 -2.22,-9.09 -1.46,-2.15 -3.17,-3.23 -5.1,-3.23 -1.84,0 -3.37,0.89 -4.58,2.65 -1.22,1.77 -1.82,4.66 -1.82,8.67 0,4.09 0.66,7.07 1.98,8.99 1.32,1.9 2.96,2.86 4.95,2.86 1.91,0 3.52,-0.91 4.83,-2.76 1.31,-1.84 1.96,-4.54 1.96,-8.09zm17.59 -10.02l0 -11.24 34.12 0 0 8.85c-2.82,3.38 -5.68,8.21 -8.59,14.52 -2.91,6.31 -5.13,13.02 -6.66,20.12 -1.52,7.11 -2.27,13.46 -2.25,19.05l-9.58 0c0.17,-8.77 1.64,-17.72 4.44,-26.84 2.8,-9.11 6.53,-17.28 11.22,-24.46l-22.7 0zm57.26 -12.38c5.03,0 8.97,2.19 11.81,6.59 3.38,5.19 5.07,13.81 5.07,25.84 0,12.01 -1.71,20.66 -5.11,25.9 -2.82,4.34 -6.74,6.5 -11.77,6.5 -5.06,0 -9.14,-2.37 -12.23,-7.12 -3.1,-4.75 -4.65,-13.22 -4.65,-25.4 0,-11.96 1.71,-20.56 5.11,-25.81 2.82,-4.33 6.74,-6.5 11.78,-6.5zm0 10.08c-1.19,0 -2.25,0.47 -3.17,1.42 -0.93,0.93 -1.66,2.61 -2.17,5.04 -0.68,3.14 -1.02,8.45 -1.02,15.89 0,7.46 0.3,12.58 0.91,15.36 0.6,2.78 1.37,4.64 2.28,5.57 0.92,0.93 1.97,1.38 3.16,1.38 1.19,0 2.25,-0.47 3.18,-1.41 0.92,-0.93 1.65,-2.61 2.15,-5.04 0.68,-3.11 1.02,-8.4 1.02,-15.86 0,-7.44 -0.3,-12.56 -0.91,-15.35 -0.61,-2.79 -1.37,-4.66 -2.29,-5.59 -0.92,-0.94 -1.97,-1.42 -3.16,-1.42zm23.65 37.34l9.95 -1.25c0.29,2.74 1.13,4.92 2.52,6.53 1.4,1.61 3.01,2.4 4.84,2.4 2.08,0 3.85,-1.03 5.29,-3.11 1.44,-2.08 2.17,-5.2 2.17,-9.38 0,-3.92 -0.71,-6.85 -2.15,-8.82 -1.43,-1.96 -3.29,-2.93 -5.59,-2.93 -2.87,0 -5.45,1.53 -7.72,4.6l-8.06 -1.42 5.08 -32.91 26.36 0 0 11.32 -18.79 0 -1.57 10.78c2.21,-1.34 4.49,-2.02 6.81,-2.02 4.43,0 8.18,1.96 11.25,5.9 3.08,3.92 4.62,9.02 4.62,15.3 0,5.24 -1.25,9.89 -3.73,14.01 -3.39,5.6 -8.08,8.4 -14.08,8.4 -4.8,0 -8.72,-1.58 -11.75,-4.72 -3.03,-3.16 -4.84,-7.37 -5.43,-12.69zm42.34 16.26l0 -12.12 9.95 0 0 12.12 -9.95 0zm43.55 0l-9.95 0 0 -45.85c-3.63,4.16 -7.92,7.24 -12.85,9.23l0 -11.06c2.6,-1.03 5.42,-2.99 8.46,-5.9 3.05,-2.89 5.13,-6.27 6.27,-10.11l8.07 0 0 63.69zm23.49 -34.25c-2.56,-1.33 -4.44,-3.14 -5.6,-5.47 -1.17,-2.31 -1.75,-4.86 -1.75,-7.62 0,-4.73 1.36,-8.64 4.05,-11.72 2.7,-3.08 6.55,-4.63 11.52,-4.63 4.94,0 8.76,1.55 11.48,4.63 2.72,3.08 4.09,6.99 4.09,11.72 0,2.93 -0.63,5.54 -1.89,7.85 -1.25,2.28 -3.01,4.04 -5.29,5.25 2.89,1.42 5.08,3.48 6.6,6.19 1.5,2.73 2.25,5.85 2.25,9.4 0,5.87 -1.52,10.63 -4.59,14.3 -3.05,3.67 -7.12,5.5 -12.2,5.5 -4.72,0 -8.64,-1.52 -11.79,-4.56 -3.7,-3.57 -5.56,-8.49 -5.56,-14.73 0,-3.43 0.7,-6.59 2.1,-9.46 1.39,-2.87 3.58,-5.09 6.57,-6.65zm2.08 -12.21c0,2.42 0.55,4.32 1.67,5.68 1.12,1.36 2.61,2.03 4.47,2.03 1.89,0 3.39,-0.69 4.51,-2.07 1.12,-1.37 1.69,-3.27 1.69,-5.69 0,-2.28 -0.55,-4.11 -1.67,-5.48 -1.12,-1.37 -2.6,-2.07 -4.43,-2.07 -1.91,0 -3.43,0.69 -4.55,2.08 -1.13,1.39 -1.7,3.23 -1.7,5.52zm-0.94 27.15c0,3.38 0.7,6 2.1,7.89 1.4,1.89 3.15,2.83 5.24,2.83 2.06,0 3.75,-0.91 5.09,-2.73 1.35,-1.81 2.01,-4.44 2.01,-7.86 0,-2.99 -0.68,-5.39 -2.04,-7.21 -1.37,-1.81 -3.1,-2.73 -5.19,-2.73 -2.43,0 -4.24,1.03 -5.44,3.09 -1.19,2.07 -1.78,4.29 -1.78,6.71zm39.24 -14.95c-2.56,-1.33 -4.44,-3.14 -5.6,-5.47 -1.18,-2.31 -1.75,-4.86 -1.75,-7.62 0,-4.73 1.36,-8.64 4.05,-11.72 2.7,-3.08 6.55,-4.63 11.52,-4.63 4.94,0 8.76,1.55 11.48,4.63 2.72,3.08 4.09,6.99 4.09,11.72 0,2.93 -0.63,5.54 -1.89,7.85 -1.25,2.28 -3.01,4.04 -5.29,5.25 2.89,1.42 5.08,3.48 6.59,6.19 1.5,2.73 2.25,5.85 2.25,9.4 0,5.87 -1.52,10.63 -4.59,14.3 -3.05,3.67 -7.12,5.5 -12.2,5.5 -4.72,0 -8.64,-1.52 -11.78,-4.56 -3.7,-3.57 -5.56,-8.49 -5.56,-14.73 0,-3.43 0.7,-6.59 2.1,-9.46 1.39,-2.87 3.58,-5.09 6.57,-6.65zm2.08 -12.21c0,2.42 0.55,4.32 1.67,5.68 1.12,1.36 2.61,2.03 4.47,2.03 1.89,0 3.39,-0.69 4.51,-2.07 1.13,-1.37 1.7,-3.27 1.7,-5.69 0,-2.28 -0.55,-4.11 -1.67,-5.48 -1.12,-1.37 -2.6,-2.07 -4.43,-2.07 -1.91,0 -3.43,0.69 -4.55,2.08 -1.12,1.39 -1.69,3.23 -1.69,5.52zm-0.95 27.15c0,3.38 0.7,6 2.11,7.89 1.4,1.89 3.15,2.83 5.24,2.83 2.06,0 3.75,-0.91 5.09,-2.73 1.34,-1.81 2.01,-4.44 2.01,-7.86 0,-2.99 -0.68,-5.39 -2.04,-7.21 -1.37,-1.81 -3.1,-2.73 -5.19,-2.73 -2.43,0 -4.24,1.03 -5.44,3.09 -1.19,2.07 -1.78,4.29 -1.78,6.71zm50.19 19.3l0 -12.74 -21.2 0 0 -10.57 22.48 -40.29 8.38 0 0 40.25 6.46 0 0 10.62 -6.46 0 0 12.74 -9.66 0zm0 -23.35l0 -21.63 -11.89 21.63 11.89 0zm37.83 24.42l12.92 -65.46 7.48 0 -12.99 65.46 -7.41 0zm43.9 -15.77l9.66 -1.3c0.23,2.4 0.85,4.19 1.83,5.34 0.98,1.17 2.29,1.74 3.9,1.74 2.04,0 3.77,-1.16 5.2,-3.48 1.43,-2.31 2.33,-7.12 2.73,-14.39 -2.5,3.54 -5.63,5.31 -9.39,5.31 -4.08,0 -7.61,-1.92 -10.58,-5.77 -2.97,-3.85 -4.44,-8.84 -4.44,-15.01 0,-6.43 1.56,-11.6 4.7,-15.52 3.13,-3.94 7.13,-5.9 11.97,-5.9 5.26,0 9.6,2.49 12.97,7.46 3.38,4.98 5.07,13.17 5.07,24.58 0,11.59 -1.75,19.96 -5.26,25.09 -3.51,5.15 -8.08,7.71 -13.72,7.71 -4.05,0 -7.32,-1.33 -9.83,-3.98 -2.49,-2.64 -4.1,-6.6 -4.8,-11.88zm22.43 -26.57c0,-3.91 -0.74,-6.94 -2.22,-9.09 -1.46,-2.15 -3.17,-3.23 -5.1,-3.23 -1.84,0 -3.37,0.89 -4.58,2.65 -1.22,1.77 -1.82,4.66 -1.82,8.67 0,4.09 0.66,7.07 1.98,8.99 1.32,1.9 2.97,2.86 4.95,2.86 1.91,0 3.52,-0.91 4.83,-2.76 1.31,-1.84 1.96,-4.54 1.96,-8.09zm26.18 7.03c-2.57,-1.33 -4.44,-3.14 -5.6,-5.47 -1.18,-2.31 -1.76,-4.86 -1.76,-7.62 0,-4.73 1.36,-8.64 4.06,-11.72 2.7,-3.08 6.54,-4.63 11.52,-4.63 4.94,0 8.76,1.55 11.48,4.63 2.72,3.08 4.09,6.99 4.09,11.72 0,2.93 -0.63,5.54 -1.89,7.85 -1.25,2.28 -3.01,4.04 -5.29,5.25 2.89,1.42 5.08,3.48 6.6,6.19 1.5,2.73 2.25,5.85 2.25,9.4 0,5.87 -1.52,10.63 -4.59,14.3 -3.05,3.67 -7.11,5.5 -12.2,5.5 -4.72,0 -8.64,-1.52 -11.79,-4.56 -3.7,-3.57 -5.55,-8.49 -5.55,-14.73 0,-3.43 0.7,-6.59 2.09,-9.46 1.39,-2.87 3.58,-5.09 6.57,-6.65zm2.08 -12.21c0,2.42 0.56,4.32 1.67,5.68 1.12,1.36 2.61,2.03 4.47,2.03 1.89,0 3.39,-0.69 4.51,-2.07 1.12,-1.37 1.7,-3.27 1.7,-5.69 0,-2.28 -0.56,-4.11 -1.67,-5.48 -1.13,-1.37 -2.6,-2.07 -4.43,-2.07 -1.91,0 -3.42,0.69 -4.55,2.08 -1.13,1.39 -1.7,3.23 -1.7,5.52zm-0.94 27.15c0,3.38 0.7,6 2.1,7.89 1.41,1.89 3.15,2.83 5.24,2.83 2.06,0 3.75,-0.91 5.1,-2.73 1.34,-1.81 2.01,-4.44 2.01,-7.86 0,-2.99 -0.68,-5.39 -2.04,-7.21 -1.37,-1.81 -3.1,-2.73 -5.19,-2.73 -2.43,0 -4.24,1.03 -5.43,3.09 -1.19,2.07 -1.78,4.29 -1.78,6.71zm39.24 -14.95c-2.56,-1.33 -4.44,-3.14 -5.6,-5.47 -1.17,-2.31 -1.75,-4.86 -1.75,-7.62 0,-4.73 1.36,-8.64 4.05,-11.72 2.7,-3.08 6.55,-4.63 11.52,-4.63 4.94,0 8.76,1.55 11.48,4.63 2.72,3.08 4.09,6.99 4.09,11.72 0,2.93 -0.63,5.54 -1.89,7.85 -1.25,2.28 -3.01,4.04 -5.29,5.25 2.89,1.42 5.08,3.48 6.6,6.19 1.5,2.73 2.25,5.85 2.25,9.4 0,5.87 -1.52,10.63 -4.59,14.3 -3.05,3.67 -7.12,5.5 -12.2,5.5 -4.72,0 -8.64,-1.52 -11.78,-4.56 -3.7,-3.57 -5.55,-8.49 -5.55,-14.73 0,-3.43 0.7,-6.59 2.09,-9.46 1.39,-2.87 3.58,-5.09 6.57,-6.65zm2.08 -12.21c0,2.42 0.56,4.32 1.67,5.68 1.12,1.36 2.61,2.03 4.47,2.03 1.89,0 3.39,-0.69 4.51,-2.07 1.12,-1.37 1.69,-3.27 1.69,-5.69 0,-2.28 -0.55,-4.11 -1.67,-5.48 -1.13,-1.37 -2.6,-2.07 -4.43,-2.07 -1.91,0 -3.43,0.69 -4.55,2.08 -1.13,1.39 -1.7,3.23 -1.7,5.52zm-0.95 27.15c0,3.38 0.7,6 2.11,7.89 1.4,1.89 3.15,2.83 5.24,2.83 2.06,0 3.75,-0.91 5.1,-2.73 1.34,-1.81 2.01,-4.44 2.01,-7.86 0,-2.99 -0.68,-5.39 -2.04,-7.21 -1.37,-1.81 -3.1,-2.73 -5.19,-2.73 -2.43,0 -4.24,1.03 -5.44,3.09 -1.19,2.07 -1.78,4.29 -1.78,6.71zm64.42 -28.53l-9.66 1.3c-0.23,-2.42 -0.85,-4.2 -1.84,-5.35 -0.99,-1.15 -2.27,-1.73 -3.86,-1.73 -2.1,0 -3.88,1.15 -5.33,3.45 -1.45,2.3 -2.36,7.09 -2.73,14.38 2.48,-3.57 5.55,-5.35 9.24,-5.35 4.15,0 7.72,1.93 10.69,5.79 2.97,3.88 4.44,8.86 4.44,14.98 0,6.49 -1.56,11.71 -4.69,15.63 -3.12,3.92 -7.13,5.88 -12.01,5.88 -5.24,0 -9.56,-2.49 -12.94,-7.48 -3.38,-4.98 -5.07,-13.13 -5.07,-24.49 0,-11.63 1.77,-20.02 5.29,-25.17 3.52,-5.15 8.1,-7.71 13.72,-7.71 3.95,0 7.21,1.35 9.8,4.07 2.59,2.7 4.24,6.64 4.95,11.79zm-22.58 26.51c0,3.95 0.75,7 2.24,9.16 1.49,2.15 3.18,3.23 5.11,3.23 1.84,0 3.38,-0.88 4.61,-2.64 1.22,-1.77 1.84,-4.66 1.84,-8.67 0,-4.13 -0.67,-7.15 -1.98,-9.08 -1.33,-1.92 -2.98,-2.87 -4.96,-2.87 -1.93,0 -3.53,0.91 -4.87,2.76 -1.32,1.83 -1.98,4.54 -1.98,8.12zm29.57 6.61l9.66 -1.3c0.23,2.4 0.85,4.19 1.83,5.34 0.98,1.17 2.29,1.74 3.9,1.74 2.04,0 3.77,-1.16 5.2,-3.48 1.43,-2.31 2.33,-7.12 2.73,-14.39 -2.5,3.54 -5.63,5.31 -9.39,5.31 -4.08,0 -7.61,-1.92 -10.58,-5.77 -2.97,-3.85 -4.44,-8.84 -4.44,-15.01 0,-6.43 1.56,-11.6 4.7,-15.52 3.13,-3.94 7.13,-5.9 11.97,-5.9 5.26,0 9.6,2.49 12.97,7.46 3.38,4.98 5.07,13.17 5.07,24.58 0,11.59 -1.75,19.96 -5.26,25.09 -3.51,5.15 -8.09,7.71 -13.72,7.71 -4.05,0 -7.32,-1.33 -9.83,-3.98 -2.49,-2.64 -4.1,-6.6 -4.8,-11.88zm22.43 -26.57c0,-3.91 -0.74,-6.94 -2.22,-9.09 -1.46,-2.15 -3.17,-3.23 -5.1,-3.23 -1.84,0 -3.37,0.89 -4.58,2.65 -1.22,1.77 -1.82,4.66 -1.82,8.67 0,4.09 0.66,7.07 1.98,8.99 1.32,1.9 2.97,2.86 4.95,2.86 1.91,0 3.52,-0.91 4.83,-2.76 1.31,-1.84 1.96,-4.54 1.96,-8.09zm19.69 41.28l0 -12.12 9.95 0 0 12.12 -9.95 0zm18.07 -51.3l0 -11.24 34.13 0 0 8.85c-2.82,3.38 -5.68,8.21 -8.59,14.52 -2.91,6.31 -5.13,13.02 -6.66,20.12 -1.52,7.11 -2.27,13.46 -2.25,19.05l-9.59 0c0.17,-8.77 1.65,-17.72 4.44,-26.84 2.81,-9.11 6.53,-17.28 11.22,-24.46l-22.7 0zm40.53 35.04l9.95 -1.25c0.29,2.74 1.13,4.92 2.52,6.53 1.4,1.61 3.01,2.4 4.84,2.4 2.08,0 3.85,-1.03 5.29,-3.11 1.44,-2.08 2.17,-5.2 2.17,-9.38 0,-3.92 -0.71,-6.85 -2.15,-8.82 -1.43,-1.96 -3.29,-2.93 -5.59,-2.93 -2.87,0 -5.45,1.53 -7.72,4.6l-8.06 -1.42 5.08 -32.91 26.36 0 0 11.32 -18.79 0 -1.57 10.78c2.21,-1.34 4.49,-2.02 6.81,-2.02 4.43,0 8.18,1.96 11.25,5.9 3.08,3.92 4.62,9.02 4.62,15.3 0,5.24 -1.25,9.89 -3.73,14.01 -3.39,5.6 -8.08,8.4 -14.08,8.4 -4.8,0 -8.72,-1.58 -11.75,-4.72 -3.03,-3.16 -4.84,-7.37 -5.43,-12.69zm74 -31.56l-9.66 1.3c-0.23,-2.42 -0.85,-4.2 -1.84,-5.35 -0.99,-1.15 -2.27,-1.73 -3.86,-1.73 -2.11,0 -3.88,1.15 -5.34,3.45 -1.45,2.3 -2.36,7.09 -2.73,14.38 2.48,-3.57 5.56,-5.35 9.25,-5.35 4.15,0 7.72,1.93 10.69,5.79 2.97,3.88 4.44,8.86 4.44,14.98 0,6.49 -1.56,11.71 -4.69,15.63 -3.12,3.92 -7.13,5.88 -12.01,5.88 -5.24,0 -9.56,-2.49 -12.94,-7.48 -3.38,-4.98 -5.07,-13.13 -5.07,-24.49 0,-11.63 1.77,-20.02 5.29,-25.17 3.52,-5.15 8.09,-7.71 13.72,-7.71 3.94,0 7.21,1.35 9.8,4.07 2.59,2.7 4.24,6.64 4.95,11.79zm-22.58 26.51c0,3.95 0.75,7 2.24,9.16 1.49,2.15 3.18,3.23 5.11,3.23 1.84,0 3.38,-0.88 4.61,-2.64 1.22,-1.77 1.84,-4.66 1.84,-8.67 0,-4.13 -0.67,-7.15 -1.98,-9.08 -1.33,-1.92 -2.98,-2.87 -4.96,-2.87 -1.93,0 -3.53,0.91 -4.87,2.76 -1.32,1.83 -1.98,4.54 -1.98,8.12zm62.89 10.09l0 11.23 -34.92 0c0.37,-4.27 1.51,-8.31 3.4,-12.13 1.89,-3.82 5.63,-8.89 11.19,-15.21 4.49,-5.1 7.24,-8.56 8.25,-10.38 1.37,-2.51 2.06,-4.99 2.06,-7.44 0,-2.71 -0.59,-4.79 -1.79,-6.25 -1.18,-1.46 -2.83,-2.18 -4.92,-2.18 -2.08,0 -3.73,0.77 -4.96,2.3 -1.22,1.52 -1.92,4.05 -2.12,7.6l-9.95 -1.21c0.59,-6.69 2.45,-11.5 5.56,-14.42 3.13,-2.9 7.02,-4.36 11.7,-4.36 5.13,0 9.16,1.7 12.1,5.07 2.93,3.38 4.39,7.58 4.39,12.61 0,2.86 -0.42,5.57 -1.26,8.17 -0.83,2.58 -2.17,5.28 -3.99,8.11 -1.2,1.89 -3.39,4.59 -6.54,8.11 -3.16,3.52 -5.15,5.85 -5.99,7.02 -0.85,1.15 -1.52,2.28 -2.04,3.38l19.82 0z"/>
   <g>
    <path class="fil2" d="M569.39 216.22c2.91,-0.89 5.37,-2.85 5.7,-5.93 -3.19,1.38 -4.65,2.39 -5.7,5.93z"/>
    <path class="fil2" d="M253.8 216.22c-1.1,-3.92 -2.58,-4.22 -5.68,-5.92 0.33,2.93 2.73,5.13 5.68,5.92z"/>
   </g>
   <g>
    <path class="fil3" d="M351.65 473.25c3.94,-2.57 6.78,-5.38 9.75,-8.56 1.41,-1.51 1.54,-1.36 2.4,-3.28 -4.75,3.6 -7.03,6.24 -10.92,10.09 -1.56,1.54 -0.32,0.02 -1.23,1.76z"/>
    <path class="fil3" d="M471.52 473.19c-0.89,-1.59 -2.91,-3.02 -5.33,-5.83 -2.02,-2.34 -2.85,-2.88 -5.71,-4.86l11.04 10.69z"/>
   </g>
   <g>
    <path class="fil4" d="M500.93 285.24c5.53,-3.58 27.82,-24.9 29.87,-30 -2.53,1.2 -2.37,0.9 -4.36,2.84 -5.31,5.16 -24.25,23.66 -25.51,27.17z"/>
    <path class="fil4" d="M292.53 255.48c0.59,0.65 1.27,1.97 1.83,2.65 5.12,6.27 5.66,5.93 9.16,9.71l11.11 11.34c1.57,1.44 2.63,2.11 4.22,3.48 1.87,1.6 2.08,1.89 4.1,3.21 -1.42,-4.01 -11.22,-12.84 -14.37,-15.99 -2.68,-2.69 -4.92,-5.19 -7.75,-7.6 -2.96,-2.52 -4.02,-5.63 -8.3,-6.8z"/>
   </g>
   <g>
    <path class="fil5" d="M392.21 372.24c3.15,-3.43 7.22,-6.8 10.84,-10.08l75.8 -77.1c-5.1,3.2 -16.62,16.56 -21.67,21.34 -16.42,15.52 -37.83,37.81 -54.66,54.64l-10.3 11.21z"/>
    <path class="fil5" d="M484.99 364.34c2.73,1.4 3.62,1.84 5.6,3.22 -0.19,-0.43 -1.33,-1.49 -0.08,-3.58l-5.52 0.36z"/>
   </g>
   <g>
    <path class="fil6" d="M397.9 240.05c-1.46,2.1 -1.78,0.51 -2.75,3.02l4.85 -2.24c-1.91,-5.22 -27.22,-28.45 -34.03,-35.4 -2.73,-2.79 -7.95,-10.06 -12.8,-10.83 3.21,4.77 39.91,38.4 44.73,45.45z"/>
    <path class="fil6" d="M329.39 177.53l5.57 -2.19c-1.15,-3.15 -2.66,-5.26 -7.11,-4.69 3.17,1.54 3.32,1.14 4.45,4.64 -1.08,1.04 -1.71,1.14 -2.92,2.24z"/>
    <path class="fil6" d="M481.97 189.35l-2.11 -1.48c-0.77,-0.54 -0.64,-0.5 -1.03,-0.89l2.97 -4.64c-3.05,0.55 -4.69,2.53 -5.57,4.64l5.74 2.36z"/>
   </g>
   <g>
    <path class="fil7" d="M302.03 381.68c-0.42,-4.19 7.71,-8.57 14.24,-17.05 1.86,-2.41 3.39,-3.32 7.67,-3.39 -1.94,3.51 -17.56,20.85 -21.92,20.45zm29.8 -13.34c7.67,-5.86 11.49,0.93 25.74,-4.96 2.97,-1.23 5.16,-1.59 5.99,-4.27 -5.98,2.22 -9.8,5.39 -17.53,5.69 -9.11,0.34 -21.34,-5.58 -25.41,-4.91 -1.82,0.3 -2.58,1.63 -3.54,2.58 -2.07,2.05 -4.2,3.49 -6.31,5.53 -4.74,4.59 -8.09,5.95 -11.25,12.61l4.39 4.45c4.59,-1.93 10.34,-6.81 14.85,-9.15 -1.84,-0.73 -1.8,-0.19 -3.77,-0.02l13.24 -12.81 4.93 1.51 -1.32 3.74z"/>
    <path class="fil7" d="M279.23 406.48l-1.98 -2.62 18.99 -18.52 2.48 2.4c-3.61,4.55 -14.55,15.91 -19.49,18.74zm13.97 35.57c-1.45,-5.01 -8.38,-19.87 -3.88,-25.21 2.75,-3.28 3.16,-2.96 2.3,-8.44 -0.98,1.75 -1.14,3.54 -2.38,5.32 -3.91,0.35 -6.09,-1.7 -7.46,-4.59 1.04,-2.2 11.3,-12.47 13.49,-13.69l-1.15 5.61c0.54,-1.08 2.82,-4.33 3.67,-5.85 0.97,-1.73 2.75,-4.63 3.51,-6.74 -1.32,-2.08 -3.55,-3.9 -5.63,-5.17 -2.32,2.38 -4.34,3.22 -6.15,5.4 -2.06,2.48 -3.09,3.92 -5.56,6.28 -7.32,7 -10.09,8.99 -5.05,13.88 6.31,6.14 6.6,3.7 7.95,15.7 0.76,6.74 2.84,13.51 6.34,17.51z"/>
    <path class="fil7" d="M546.28 403.86l-1.92 2.71c-3.98,-1.41 -17.37,-15.4 -19.69,-18.72 1.22,-1.66 1.26,-1.54 2.86,-2.26l9.28 9.4c3.15,3.02 6.06,6.55 9.46,8.87zm0 0c-1.79,-4.1 -6.14,-7.88 -9.08,-11.02 -1.76,-1.87 -3.08,-3.35 -4.88,-5.17l-5.68 -4.61 -4.75 5.29 7.03 12.21 -0.98 -4.97c2.17,1.43 12.2,11.19 13.37,13.53 -1.16,2.77 -3.58,4.94 -7.31,4.57 -1.32,-1.81 -1.36,-3.52 -2.47,-5.27 -1.69,11.84 5.86,2.39 3.54,17.8 -0.94,6.26 -3.8,10.47 -5.07,15.85 10.26,-12.39 2.28,-23.47 11.15,-30.47 2.45,-1.93 7.07,-5.34 5.15,-7.73z"/>
    <path class="fil7" d="M344.34 187.56l-4.64 2.03c-1.27,-1.03 -2.64,-1.89 -4.22,-3.19l1.11 -2.86c-5.11,1.47 -11.64,5.64 -14.19,8.87l8.13 -4.35 4.02 4.7c-1.87,1.56 -3.9,2.58 -5.14,4.27 3.1,-1.45 5.63,-3.37 8.52,-5.1l9.15 -4.94c-0.91,-2.55 -2.88,-4.21 -5.84,-5.1 0.92,2.54 2.3,3.03 3.09,5.68z"/>
    <path class="fil7" d="M526.77 202.82l-2.33 -4.01c1.51,-1.1 2.82,-1.73 3.9,-3.63 2.64,1.1 2.97,2.07 5.53,3.15l-5.37 -5.85c-7.71,1.68 -7.22,4.12 -9.9,2.2 -3.33,-2.38 -5.57,-4.83 -9.14,-6.69 0.68,0.99 0.14,0.33 0.98,1.14l16.34 13.67z"/>
    <path class="fil7" d="M481.97 189.35c0.09,0.09 0.25,0.1 0.3,0.27 0.05,0.17 0.24,0.21 0.31,0.26l2.3 1.26c1.12,0.52 2.38,1.1 3.44,1.55 1.17,-1.31 2.71,-2.99 3.5,-4.69 3.47,0.59 4.72,1.86 7.34,3.11 -2.32,-2.43 -8.12,-6.38 -12.42,-7.5l1.33 3.28c-3.39,1.36 -2.57,2.73 -6.09,2.47z"/>
    <path class="fil7" d="M249.72 257.32l-1.45 0.87c-0.07,0.04 -0.24,0.13 -0.37,0.2 -1.55,-1.19 -2.69,-2.16 -4.95,-2.83 0.43,3.71 0.63,3.17 3.93,6.17 1.33,-1.58 2.12,-2.14 2.83,-4.41z"/>
    <path class="fil7" d="M428.5 354.92c4.44,-0.43 5.48,-0.82 5.8,-5.21 -2.84,0.52 -1.86,0.02 -3.32,2 -1.15,1.56 -1.4,1.38 -2.48,3.21z"/>
    <path class="fil7" d="M491.96 454.86l3.09 -0.38c-0.78,-2.42 -1.53,-3.21 -4.36,-3.31l1.28 3.69z"/>
   </g>
   <g>
    <path class="fil8" d="M361.25 310.58c3.33,1.64 3.81,3.34 6.26,5.57 1.43,1.3 1.8,1.28 3.13,2.75 0.52,0.57 0.98,1 1.4,1.53 1.1,1.37 0.57,0.56 1.25,2.11 -7.04,-5.05 -7.54,-6.76 -12.04,-11.96zm-11.98 -9.31c-0.58,-0.7 -5.13,-4.41 -6.36,-5.44 -2.35,-1.97 -3.84,-4.44 -6.34,-6.07 1.48,3.59 2.71,3.65 5.11,6.12 9.1,9.42 18.97,20.03 28.59,28.7 3.56,3.21 7.91,9.37 12.5,10.67 -0.26,-2.36 -1.2,-4.09 -2.41,-5.31 0.69,-0.39 1.16,0.73 2.4,-0.18l-32.63 -32.88c-2.05,-1.82 -3.98,-3.38 -5.9,-5.34l-6.09 -5.53 11.13 15.25z"/>
    <path class="fil8" d="M423.16 240.89l4.87 2.27c-0.92,-1.93 -0.92,-1.57 -2.6,-2.58l5.02 -5.78c4.17,-5.31 11.5,-11.86 17,-17.28l22.55 -22.95c-3.23,0.23 -5.04,2.75 -6.69,4.54 -2.01,2.17 -3.81,3.84 -5.9,5.92 -4,3.97 -7.56,7.52 -11.55,11.49 -3.97,3.96 -7.49,7.62 -11.57,11.48 -2.83,2.69 -10.28,9.83 -11.13,12.9z"/>
    <path class="fil8" d="M289.21 198.34c2.09,-1.01 3.39,-2.08 5.39,-3.26l3.81 4.14c-1.61,2.64 -4.37,4.6 -6.06,7.38l16.5 -14.96c-6.54,3.97 -2.93,4.88 -10.28,1.97 -3.09,-1.22 -3.48,-1.46 -5.31,0.25 -1.61,1.51 -3.02,2.64 -4.05,4.47z"/>
   </g>
   <g>
    <path class="fil9" d="M331.83 368.34c-1.39,0.77 -2.08,1.58 -3.88,2.62 -2.03,1.17 -2.78,1.1 -4.18,3.01 9.29,-0.05 17.46,-3.74 31.6,3.33 22.27,11.13 31.73,38.22 19.29,60.46 -2.23,3.99 -5.93,7.61 -7.42,11.08 1.87,1.47 2.71,2.94 6.12,3.49 4.17,-5.25 9.67,-8.75 13.69,-14.44 -2.54,1.2 -4.89,4.43 -7.01,6.43 -2.32,2.18 -4.34,4.61 -7.6,6.39 0.63,-2.36 0.52,-1.94 2.37,-3.37 4.08,-3.14 5.38,-5.51 8.4,-8.55l-1.14 -0.74c-0.96,-0.79 -0.52,0.26 -1.13,-1.18 1.04,-1.69 5.34,-5.14 7.03,-6.3l-0.89 -9.87c1.74,1.2 2.47,2.76 3.31,4.88 0.85,2.16 1.16,3.99 1.43,6.46 0.8,-5.81 -4.75,-15.37 -5.63,-23.52 -1.08,-9.96 2.46,-17.43 6.88,-23.28 4.29,-5.65 9.66,-10.65 14.27,-15.27l29.89 -29.79c5.18,-5.15 9.88,-9.92 15.03,-15.1l22.38 -22.53c1.89,-1.97 6.6,-6.3 7.43,-8.32l-7.1 5.89c0.87,-2.72 7.82,-10.27 10.16,-14.22 -2.75,1.78 -8.26,7.9 -10.81,10.42l-63.97 63.07c-3.57,4.3 -5.93,4.86 -9.99,11.25 3.31,-1.87 11.64,-11.38 14.98,-14.55 1.35,-1.29 2.49,-1.96 3.79,-3.29 1.42,-1.44 2.37,-2.47 3.77,-3.91l18.71 -18.52c1.4,-1.49 2.13,-2.69 3.57,-4.11 2.58,-2.55 13.51,-13.41 15.64,-14.54 -3.64,5.32 -13.14,12.6 -17.55,17.92 -1.01,1.21 -1.62,2.14 -2.67,3.27l-38.74 38.64 -7.07 4.76c-3.94,2.6 -13.85,14.9 -24.03,5.12 -5.91,-5.68 -5.75,-7.87 -4.26,-17.69 -7.12,6.33 -1.82,14.19 -2.32,17.34 -2.5,-0.22 -6.15,-4.81 -13.63,-7.21 -5.84,-1.87 -13.12,-2.43 -19.55,-2.49l0.85 -3.06z"/>
    <path class="fil9" d="M492.21 376.62c0.57,1.56 2.77,1.25 4.91,2.54 1.31,0.78 0.61,0.55 2.15,1.24 2.01,0.9 0.28,-0.28 1.75,1.29 2.66,2.83 18.9,8.7 22.44,25.13 2.08,0.97 -1.94,-0.54 0.85,0.12 1.02,0.24 0.35,-0.24 1.24,0.41l1.2 14.75c-1.12,1.81 -0.32,0.42 -1.19,0.61 -0.1,0.02 -0.48,0.02 -0.59,0.03l-0.63 -0.03c-1.71,8.65 -5.27,16.76 -11.77,21.79 -1.15,0.9 -2.04,1.62 -3.3,2.6l-3.23 2.98c5.01,-1.23 1.26,-2.23 6.6,-0.3 5.2,-4.49 10.37,-9.74 13.55,-17.66 6.86,-17.09 1.56,-34.95 -12.04,-46.94 -1.27,-1.12 -2.67,-2.2 -4.26,-3.45 -2.47,-1.93 -14.3,-6.8 -17.69,-5.09z"/>
    <path class="fil9" d="M327.18 462.35c-8.02,0.45 -13.45,-5.05 -17.13,-3.56 8.64,9.59 24.98,4.15 30.45,10.78 1.99,2.41 4.86,5.75 8.08,6.38 -0.44,-0.4 -0.43,-0.4 -1.13,-0.89 -0.48,-0.33 -0.67,-0.4 -1.14,-0.72 -2.33,-1.53 -4.27,-4.11 -5.35,-6.74l6.08 -4.05c-1.03,2 -2.28,3.91 -2.96,6.39 7.95,0.27 10.01,-6.05 16.38,-12.72 1.97,-2.07 3.25,-3.19 5.1,-5.01 -3.85,-2.13 -4.33,1.92 -14.16,6.01 -14.47,6.02 -31.06,2.9 -43.46,-6.93 -2.46,-1.95 -4.02,-4.15 -6.42,-5.59 2.6,10.16 5.87,7.85 10.73,10.17 3.46,1.66 12.85,4.88 14.93,6.47z"/>
    <path class="fil9" d="M504.01 458.97c2.76,-1.09 4.71,-2.43 7.22,-3.4 11.31,-4.36 5.81,-0.7 10.93,-10.47 -1.83,1.2 -4.15,3.78 -6.35,5.58 -12.31,10.06 -28.61,14.03 -44.03,7.57 -9.24,-3.88 -10.26,-8.11 -14.15,-6.02l2.77 2.63c9.47,10.05 10.2,15.54 18.69,15.09 -0.71,-2.59 -1.89,-4.3 -2.96,-6.39l6.14 4.05c-1.3,4.41 -1.85,1.85 -3.54,5.57 3.77,-2.1 3.75,-4.71 6.83,-6.06 4.19,-1.84 20.11,-0.45 27.56,-8.28 -4.72,-1.41 -8.41,4.17 -17.14,3.61l8.03 -3.47z"/>
    <path class="fil9" d="M312.43 222.74c2.1,-1.47 1.91,-1.29 4.63,-0.82l0.95 -3.01c2.3,0.92 9.85,8.17 11.57,11.21l-2.3 1.5c9.1,1.99 9.52,6.4 14.86,11.22 2.32,2.09 4.28,3.35 6.84,6.15 2.48,2.73 3.45,4.46 6.57,6.99l-0.52 1.93c-0.04,0.08 -0.17,0.25 -0.21,0.32 -0.03,0.06 -0.16,0.18 -0.22,0.29 2.48,-1.63 5.87,-3.3 7.34,-5.58 -4.21,-1.08 -8.46,-5.4 -11.26,-8.58 -2.19,-2.48 -3.19,-2.73 -5.27,-4.78 -1.62,-1.59 -3.33,-3.05 -5.27,-4.76 -4.52,-3.98 -11.42,-9.81 -15.65,-14.51 -2.25,-2.5 -1.95,-4.24 -6.38,-4.33 -1.92,2.13 -4.33,4.09 -5.67,6.75z"/>
    <path class="fil9" d="M296.57 424.68l0.14 -12.61c0.87,-0.45 0.91,0.15 1.95,-0.59 -0.09,-4.73 -1.38,-0.19 -1.03,-4.73 1.85,-0.99 -1.52,0.02 0.94,0.03l1.01 -0.03c2.44,-6.79 2.6,-9.21 8.84,-15.13 3.65,-3.46 6.12,-5.08 10.52,-7.82 3.93,-2.45 1.95,-2.4 1.55,-3.46 1.83,-0.31 2.52,-0.18 3.65,0.33 2.8,-4.3 3.99,-1.28 6.53,-3.94 -10.11,-1.82 -22.69,8.51 -28.13,15.5 -5.75,7.38 -8.01,14.79 -8.26,24.54 -0.09,3.41 -1,7.14 2.31,7.9z"/>
    <path class="fil9" d="M268.58 274.53c-4.37,7.17 2.95,12.72 6.59,15.76l24.86 24.78c4,4.35 8.38,9.04 13.47,12.04 0.74,-4.09 -0.38,-2.88 -5.5,-8.19l-19.36 -19.07c-1.72,-1.84 -1.85,-2.31 -0.71,-4.58 -6.57,-0.52 -6.42,-2.57 -11.79,-8.29 -5.76,-6.12 -8.5,-4.79 -7.55,-12.44z"/>
    <path class="fil9" d="M535.24 295.24c1.4,3.47 1.49,2.91 -4.25,8.14 -6.7,6.1 -11.22,11.86 -19.21,18.64 -1.98,1.68 -2.78,1.71 -2.12,4.55 2.71,-0.24 5.2,-3.61 6.82,-5.18l35.83 -35.07c1.98,-2.03 3.95,-4.13 3.5,-8.57 -2.8,4.28 -10.09,11.06 -13.98,14.63 -3.19,2.93 -1.25,2.07 -6.58,2.88z"/>
    <path class="fil9" d="M502.84 162.76l8.07 -8.76c2.27,0.29 3.5,0.82 5.29,2.26 -1.69,2.97 -3.52,4.43 -5.97,7.06 -1.64,1.77 -3.43,4.11 -7.4,-0.57zm-2.7 0.59l15.98 9.14 -3.5 -3.6c1.63,-3.78 6.83,-6.72 9.34,-10.25l0.23 -1.31c-2.39,-1.92 -6.53,-5.69 -11.04,-4.42 -3.48,0.98 -9.55,7.56 -11.01,10.44z"/>
    <path class="fil9" d="M320.13 163.35c-5.46,4.68 -6.71,0.95 -11.94,-5.33 -0.46,-0.55 -0.36,-0.42 -0.78,-1l-0.45 -0.75c3.13,-2.81 5.78,-1.86 8.07,0.24 1.87,1.72 4.81,3.81 5.1,6.85zm-20.46 -5.36l5.56 4.77c1.87,1.86 3.35,3.68 5.44,5.1 -1.29,2.9 -2.17,2.49 -3.64,4.4l15.83 -8.92c-0.52,-1.25 -3.29,-4.54 -4.31,-5.63l-5.39 -5.27c-1.8,-1.47 -4.73,0.25 -6.91,1.27 -3.26,1.51 -3.86,3.27 -6.57,4.27z"/>
    <path class="fil9" d="M447.76 417.46c0.91,-1.97 0.44,-1.9 0.77,-4.12 0.46,-3.1 0.1,-0.67 1.73,-3.38 1.11,-1.83 2.19,-5.02 3.03,-7.02 2.44,-5.76 4.97,-8.68 7.27,-13.19 -3.52,1.03 -3.56,1.91 -4.82,2.66 -1.36,0.81 0.73,-0.21 -0.67,0.32 -2.12,0.8 0.39,-0.24 -1.05,0.2 -3.77,1.17 -10.33,20.88 -6.27,24.52z"/>
    <path class="fil9" d="M487.94 174.46c1.9,2.73 4.65,3.32 8.11,4.88 3.4,1.53 5.31,3.31 8.38,4.87l-2.86 -2.74c-0.65,-0.64 -0.43,-0.36 -0.89,-0.99 1.34,-2.19 2.49,-2.41 3.8,-5.32 -2.63,-2.22 -1.2,-0.3 -4.3,-3.99 -1.25,1.52 -1.55,3.9 -3.12,6.13 -2.89,-0.1 -4.11,-0.88 -5.65,-2.01 1.07,-3.3 3.09,-2.97 4.89,-5.34 -5.02,0.03 -6.06,1.24 -8.35,4.51z"/>
    <path class="fil9" d="M596.02 234.28c1.02,3.19 -0.92,5.12 -4.08,8.34 -4.72,4.81 -6.15,3.31 -4.84,7.75 1.67,-0.8 13.29,-8.57 9.62,-15.09 -0.37,-0.66 -0.65,-0.92 -0.7,-0.99z"/>
    <path class="fil9" d="M236.07 250.41c0.83,-2.72 0.86,-2.95 -0.89,-4.61 -6.5,-6.15 -3.88,-1.9 -9.01,-10.5 -1.57,6.76 -0.65,4.16 6.27,12.05 1.36,1.55 1.59,2.35 3.64,3.06z"/>
    <path class="fil9" d="M329.39 177.53c-3.26,0.07 -4.59,-1.04 -5.5,-3.23l-0.93 -2.24 -4.56 2.63c1.12,2.62 2.83,3.73 4.12,5.78 -0.47,0.62 -0.22,0.36 -0.9,0.99l7.78 -3.95z"/>
    <path class="fil9" d="M328.03 454.56c1.85,0.03 2.11,0.42 3.29,-0.51 2.64,-2.07 0.78,-2.64 0.77,-2.69 -2.33,-0.52 -3.31,0.73 -4.07,3.19z"/>
   </g>
   <path class="fil10" d="M555.05 556.12l-11.41 -0.8c-0.2,-4.24 14.21,-38.08 16.87,-42.35l13.98 1.43 16.99 46.34c-17.53,-1.06 -11.45,-0.43 -16.43,-11.38l-16.39 -2.1 -3.61 8.85zm-52.21 -393.36c3.97,4.67 5.76,2.33 7.4,0.57 2.45,-2.63 4.27,-4.09 5.97,-7.06 -1.8,-1.43 -3.02,-1.97 -5.29,-2.26l-8.07 8.76zm-195.87 -6.5l0.45 0.75c0.42,0.58 0.32,0.45 0.78,1 5.23,6.28 6.48,10.02 11.94,5.33 -0.29,-3.04 -3.22,-5.13 -5.1,-6.85 -2.28,-2.1 -4.94,-3.05 -8.07,-0.24zm-11.71 59.54c1.03,1.43 3.88,3.59 5.25,4.3 3.36,-1.29 8.23,-5.74 9.35,-8.91l-2.76 -3.74c-2.15,0.61 -9.77,6.69 -11.83,8.34zm267.1 323.28l10.11 1.62c-0.66,-4.5 -2.84,-12.9 -5.46,-15.63 -1.98,2.18 -4.98,10.23 -4.65,14.01zm-260.33 -157.41c4.36,0.4 19.98,-16.94 21.92,-20.45 -4.28,0.07 -5.82,0.98 -7.67,3.39 -6.53,8.48 -14.67,12.86 -14.24,17.05zm-22.8 24.8c4.94,-2.82 15.88,-14.18 19.49,-18.74l-2.48 -2.4 -18.99 18.52 1.98 2.62zm267.05 -2.62c-3.4,-2.32 -6.31,-5.85 -9.46,-8.87l-9.28 -9.4c-1.6,0.72 -1.64,0.6 -2.86,2.26 2.32,3.32 15.71,17.31 19.69,18.72l1.92 -2.71c1.92,2.39 -2.7,5.8 -5.15,7.73 -8.86,7 -0.89,18.07 -11.15,30.47 1.27,-5.38 4.13,-9.59 5.07,-15.85 2.32,-15.41 -5.23,-5.96 -3.54,-17.8 1.11,1.75 1.16,3.46 2.47,5.27 3.73,0.37 6.15,-1.8 7.31,-4.57 -1.17,-2.34 -11.19,-12.09 -13.37,-13.53l0.98 4.97 -7.03 -12.21 4.75 -5.29 5.68 4.61c1.79,1.82 3.12,3.3 4.88,5.17 2.94,3.14 7.29,6.92 9.08,11.02zm-110.74 121.35c5.5,-0.03 6.25,-0.48 9.76,-2.41 0.16,-8.8 -0.77,-9.91 -9.69,-10.02l-0.07 12.43zm84.73 -147.85c-2.18,-1.67 -4.11,-3.18 -5.31,-5.52 1.88,0.46 0.17,-0.71 1.99,1.05 0.02,0.02 0.89,1.11 1.05,1.31 1.2,1.43 1.5,1.49 2.26,3.16zm-5.31 -5.52c-2.57,-0.66 -4.77,-4.66 -6.88,-6.62 -2.42,-2.23 -4.48,-3.74 -9,-4.24 1.24,4.97 13.66,16.29 18.01,20.08 3.8,3.31 6.27,0.01 3.33,-3.53l2.97 3.48c-1.62,0.86 -3.09,2.56 -4.25,3.67 -7.99,-2.42 -10.1,-9.61 -19.23,-17.81 -6.03,-5.42 -3.14,-2.37 -8.09,-4.28 6.04,-1.01 10.01,-4.06 14.28,-0.13 2.31,2.12 7.6,6.82 8.86,9.37zm-276.5 -154.83c-1.26,2.88 -1.29,2.59 -0.1,5.5l-3.53 -0.68c0.54,-1.39 0.74,-1.68 1.54,-2.67 0.04,-0.05 1.05,-1.21 1.1,-1.26 1.06,-1.11 0.19,-0.24 1,-0.89zm-3.64 4.82l-1.12 2.34c4.18,1.63 8.12,5.9 9.86,9.08 3.53,-1.73 6.43,-6.02 8.67,-9.64l-10.24 -9.39c-1.98,0.78 -2.18,1.45 -3.53,2.79 5.46,-9.96 24.37,-27.01 26.59,-30 2.11,0.75 5.59,2.91 6.96,4.23 1.88,1.8 3.24,5.08 4.93,6.3l5.35 -6.42c-1.36,-2.19 -2.53,-3.55 -3.73,-6.04l6.51 2.22c-1.01,-4 -4.75,-7.39 -7.62,-9.14 -1.04,0.93 -0.38,0.44 -0.99,1.34 -0.09,0.14 -0.43,0.66 -0.5,0.77 -0.06,0.09 -0.23,0.49 -0.27,0.4 -0.04,-0.1 -0.16,0.29 -0.27,0.4 -2.23,-1.57 -1.94,0.2 -2.43,-1.1 -0.08,-0.22 -0.33,-0.14 -0.47,-0.24 4.05,-2.48 6.5,-6.27 11.09,-8.9 -0.74,1.44 -0.12,0.27 -0.87,1.28 -4.01,5.34 -0.57,5.22 5.32,9.59l3.36 1.93c0.08,0.04 0.33,0.33 0.39,0.21 0.06,-0.12 0.28,0.13 0.39,0.22 -1.15,1.02 -2,2.2 -3.57,3.47 -7.7,6.24 -4.48,4.53 -10.32,10.37 -8.33,8.33 -23.93,28.1 -32.49,36.63 -2.17,2.15 -3.4,5.45 -6.79,6.91 -3.01,-3.42 -6.55,-11.17 -12.3,-6.57 1.04,-3.61 3.62,-7.09 5.72,-10.14 0.38,-0.56 0.66,-1.04 1.22,-1.73l1.14 -1.16zm145.49 310.16c3.95,-23.67 -15.57,-24.04 -18.06,-9.78 -4,23.01 15.36,25.94 18.06,9.78zm-90.77 7.68c1.74,-6.07 0.82,-16.89 -3.23,-20.09 -3.15,-2.5 -11.78,-2.32 -13.8,7.47 -4.87,23.63 12.73,27.67 17.03,12.62zm-16.99 -58.08c-0.16,-0.14 -0.4,-0.5 -0.51,-0.36l-11.01 -2.57c-40.03,-7.13 -74.06,-21.87 -110.09,-39.38 -5.99,-2.91 -12.33,-5.77 -18.2,-8.99 -4.25,-2.33 -13.85,-8.56 -18.2,-9.33 3.01,10.02 10.27,19.03 16.61,26.88 15.11,18.72 39.62,31.98 62.26,39.96 9.73,3.43 16.22,1.53 26.28,-0.01 17.29,-2.64 35.37,-4.71 52.86,-6.21zm280.86 1.69c15.83,2.86 35.06,4.04 51.42,6.17 21.58,2.82 29.09,-2.6 45.76,-10.39 6.35,-2.97 13.24,-7.17 18.34,-10.6 15.43,-10.39 29.92,-25.77 37.82,-42.52 2.67,-5.66 1.94,-4.48 0.9,-4.94l-37.03 19.03c-38.06,18.06 -61.8,28.84 -103.7,38.11 -4.39,0.97 -22.44,3.21 -24.28,4.01l10.77 1.14zm-279.71 -348.7c11.28,-0.98 22.05,0.31 32.71,-0.69 2.16,-3.28 28.71,-78.7 32.75,-89.63 3.27,-8.85 8.69,-21.84 10.54,-30.96l-35.72 0.11c-4.48,9.02 -16.1,47.09 -20.42,59.7 -3.48,10.16 -6.55,20.06 -9.94,30.23 -2.64,7.94 -9.2,24.22 -9.91,31.24zm145.1 -18.5c-0.36,-2.59 0.44,-1.24 -1.84,-1.96l-43.69 0.01c0.12,-4.01 7.62,-26.76 9.96,-28.2l42.98 -0.28c1.37,-1.52 9.23,-20.28 9.72,-23.19l-44.34 -0.24c0.61,-4 8.26,-26.78 10.31,-28.55 3.78,-1.23 30.5,-0.41 36.87,-0.41 8.92,0 9.19,1.16 12.47,-6.32 1.73,-3.95 3.45,-8.9 4.56,-13.32 -4.63,-1.07 -72.66,-0.34 -83.43,-0.34 -2.77,9.21 -7.11,20.02 -10.4,29.55l-20.15 60.19c-3.08,9.4 -7.67,21.2 -9.74,30.92l79.5 0.2c3.32,-5.89 4.92,-11.89 7.21,-18.08zm23.28 -1.35c0.08,3.79 -2.62,7.03 -2.13,11.36 0.34,3 3.94,6.54 6.17,7.47 3.7,1.54 73.84,0.72 80.46,0.54 5.57,-8.06 24.49,-68.23 26.49,-71.74 -12.61,-0.56 -25.95,0.03 -38.67,-0.1 -3.56,-0.03 -5.62,-0.69 -7.18,2.33 -1.22,2.37 -7.18,17.9 -6.76,21.07l13.94 0.08c-0.73,5.37 -7.17,25.15 -9.61,28.29 -9.69,0.45 -20.18,1.07 -29.37,-0.69 -0.99,-6.29 2.04,-11.03 4.13,-16.14l17.59 -46.22c6.41,-17.57 3.71,-17.71 24.95,-17.69 13.68,0.01 28.79,0.65 42.39,-0.1l6.85 -19.61c-14.24,0 -28.49,-0.02 -42.74,-0.05 -8.24,-0.02 -37.23,1.02 -42.96,-0.36 -2.51,1.75 -6.52,1.45 -10.48,8.15 -3.75,6.34 -29.57,89.9 -33.07,93.44zm-219.58 -79.5c5.15,-0.77 13.81,-1.06 18.82,-0.04 6.72,1.36 8.47,4.4 7.01,12.19 -0.94,5.03 -17.73,55.26 -19.81,59.34 -2.5,4.89 -5.51,7.06 -12.58,7.45 -6.2,0.35 -13.02,0.11 -19.24,-0.07 0.34,-4.74 23.6,-75.49 25.8,-78.87zm-22.24 -21.69c-1.97,3.34 -39.6,119.21 -39.59,120.57 13.08,0.18 74,1.28 82.39,-0.42 9.12,-1.85 12.04,-17.27 15.12,-26.85 7.89,-24.52 17.49,-53.5 26.29,-77.7 1.94,-5.34 4.61,-13.34 -2.9,-14.79 -12.88,-2.49 -65.8,-1.38 -81.31,-0.81zm443.6 28.1c-2.73,8.72 -14.92,37.5 -19.28,48.69 -8.53,21.83 -6.93,24.72 -27.33,23.73 -6.64,-0.32 -9.45,-0.61 -7.69,-7.94 1.15,-4.81 15.37,-41.73 18.32,-49.61 2.86,-7.64 6.09,-18.72 12.47,-21.84 4.33,-2.12 10.76,-1.54 15.82,-1.43 6.09,0.13 9.8,1.68 7.69,8.4zm-43.54 -28.48c-0.15,0.09 -0.38,0.02 -0.46,0.23 -0.44,1.1 -6.58,0.25 -10.92,7.05 -4.32,6.76 -11.74,36.94 -14.61,41.02 -1.07,4.87 -3.78,11.6 -5.44,16.32 -3.46,9.87 -15.41,42.01 -15.48,48.35 -0.09,8.3 5.49,8.04 13.01,8.03 17.27,-0.04 50.84,0.93 64.35,-0.07 11.03,-0.82 12.82,-12.83 17.49,-24.81l23.79 -61.28c11.06,-28.45 17.41,-33.96 3.7,-34.73l-32.43 -0.22c-7.32,-0.07 -14.63,-0.19 -21.95,-0.29 -4.26,-0.06 -18.73,0.9 -21.05,0.4zm98.62 134.52c-22.64,46.21 -61.53,119.52 -94.66,162.21 -3.13,4.04 -6.19,8.03 -9.29,11.98 -4.79,6.08 -26.15,31.25 -30.66,33.45 -1.2,3.02 -20.54,19.08 -25.11,21.15 2.04,5.42 5.87,7.27 9.15,11.1 1.45,1.69 3.44,3.26 5.07,4.97 0.97,1.02 4.15,4.42 5.18,5.21l48.04 -36.42c10.8,-8.44 19.79,-17.25 29.7,-26.45l27.27 -29.45c20.9,-23.68 41.39,-55.35 52.46,-88.73 9.25,-27.89 9.69,-58.06 1.07,-86.5l-5.05 -9.61 -13.18 27.1zm-434.48 250.17c3.52,-3.59 6.11,-6.22 9.99,-10.08 3.35,-3.32 7.52,-5.93 9.53,-11.32 -3.15,-1.58 -5.1,-2.86 -7.85,-5.02 -2.73,-2.15 -4.88,-4.19 -7.35,-6.23 -18.45,-15.28 -50.24,-54.2 -61.93,-72.2 -7.1,-10.93 -14.18,-21.12 -21.18,-32.58 -26.05,-42.66 -44,-77.26 -65.79,-121.49 -2.57,-5.22 -7.19,-13.35 -8.84,-18.35 -6.65,5 -10.86,34.85 -11.16,45.71 -1.67,61.36 35.01,112.51 72.4,153.62l21.33 21.2c13.67,12 23.49,21.04 38.2,32.71 5.29,4.19 10.69,8.19 16.15,12.21 2.68,1.98 5.32,4.03 8.11,6.06 2.6,1.89 5.83,4.65 8.4,5.77zm475.13 -59.06c-0.58,-0.9 0.7,-2.33 -2.72,0.18l-7.85 5.84c-3.66,2.79 -6.64,4.71 -10.26,7.47 -32.32,24.65 -50.99,35.66 -86.2,55.61 -17.61,9.98 -57.03,29.32 -75.69,30.82 3.2,-3.88 10.67,-5.84 15.99,-8.42 5.55,-2.7 10.73,-5.39 16.12,-8.1 10.49,-5.29 21.19,-11.33 30.92,-16.93l29.92 -18.51c10.99,-7.6 30.78,-22.65 40.15,-31.94 21.86,-21.68 37.56,-43.42 46.34,-74.19 3.71,-12.99 4.1,-24.48 4.35,-37.54 0.12,-6.14 0.16,-4.77 -1.12,-5.27 -0.23,1.42 -0.87,1.32 -2.1,2.57l-6.8 9.17c-8.37,11.7 -19.78,26.4 -28.85,36.73l-30.97 34.03c-24.43,25.05 -53.81,50.6 -82.87,69.58 -8.84,5.78 -18.4,10.76 -27.21,16.49 -0.02,17.93 -8.69,13.84 -12.06,21.63 -1.62,3.72 -2.46,8.52 -4.01,12.53 -4.41,11.39 -12.74,21.22 -22.76,28.06 -7.34,5.01 -14.68,6.93 -24.22,9.39l4.95 1.34c1.83,0.12 3.54,0.27 5.33,0.42 13.43,1.12 21.31,3.02 33.31,-0.62 25.56,-7.75 46.58,-15.61 70.91,-26.01 31.46,-13.44 66.57,-33.82 89.32,-56.02 13.8,-13.47 34.09,-38.06 38.06,-58.28zm-473.37 99.87c-26.38,-1.8 -95.22,-39.93 -120.03,-57.24 -7.04,-4.92 -13.68,-9.83 -20.8,-14.67 -4.94,-3.36 -38.43,-27.68 -41.84,-29.38 0.83,9.49 10.53,26.24 15,32.59 4.5,6.39 10.61,14.48 15.77,19.67 19.42,19.49 34.08,31.11 61.8,46.34 31.31,17.21 66.87,30.45 101.77,41.81 8.23,2.68 11.89,2.67 20.96,1.79 7.8,-0.75 15.29,-0.84 23.08,-1.39 -5.13,-4.25 -23.16,-3.95 -38.19,-27.52 -4.47,-7 -8.42,-21.34 -9.72,-23.36 -4.67,-7.3 -12.22,-4.71 -11.63,-21.42l-27.24 -15.96c-4.49,-2.8 -8.5,-5.92 -12.96,-8.89 -4.03,-2.69 -8.65,-6.13 -12.6,-9.27l-40.59 -35.05c-2.09,-1.83 -3.54,-3.72 -5.65,-5.55 -5.57,-4.85 -16.66,-15.75 -21.42,-21.72 -1.65,-2.07 -3.27,-3.62 -4.92,-5.73l-44.54 -54.11c-2.86,-3.99 -6.06,-9.25 -9.72,-12.02 -1.56,10.43 1.35,33.7 4.22,43.51 7.31,24.94 17.92,42.67 34.45,61.27l5.64 6.16c10.4,11.99 33.64,29.55 46.33,38.16 9.61,6.52 19.34,12.86 29.82,18.61 15.58,8.55 31.23,17.05 47.37,24.71 5.44,2.58 11.92,4.89 15.59,8.66zm194.27 23.83c2.86,1.98 3.69,2.52 5.71,4.86 2.42,2.8 4.43,4.24 5.33,5.83l-11.04 -10.69zm-108.83 10.74c0.91,-1.73 -0.32,-0.22 1.23,-1.76 3.89,-3.84 6.17,-6.49 10.92,-10.09 -0.85,1.92 -0.99,1.77 -2.4,3.28 -2.97,3.19 -5.82,5.99 -9.75,8.56zm143.4 -18.77l-3.09 0.38 -1.28 -3.69c2.83,0.1 3.58,0.89 4.36,3.31zm-167.02 0.08c0.76,-2.47 1.74,-3.71 4.07,-3.19 0.01,0.04 1.87,0.62 -0.77,2.69 -1.19,0.93 -1.44,0.54 -3.29,0.51zm-0.85 7.79c-2.08,-1.59 -11.47,-4.81 -14.93,-6.47 -4.86,-2.32 -8.14,-0.01 -10.73,-10.17 2.41,1.44 3.96,3.64 6.42,5.59 12.4,9.83 28.99,12.95 43.46,6.93 9.83,-4.09 10.31,-8.15 14.16,-6.01 -1.85,1.82 -3.13,2.94 -5.1,5.01 -6.37,6.67 -8.42,12.99 -16.38,12.72 0.68,-2.48 1.93,-4.39 2.96,-6.39l-6.08 4.05c1.08,2.63 3.02,5.2 5.35,6.74 0.47,0.32 0.66,0.39 1.14,0.72 0.71,0.49 0.7,0.48 1.13,0.89 -3.22,-0.64 -6.09,-3.98 -8.08,-6.38 -5.47,-6.63 -21.81,-1.19 -30.45,-10.78 3.68,-1.5 9.11,4.01 17.13,3.56zm168.8 0.09c8.72,0.56 12.42,-5.02 17.14,-3.61 -7.44,7.84 -23.37,6.44 -27.56,8.28 -3.08,1.35 -3.05,3.95 -6.83,6.06 1.7,-3.72 2.24,-1.15 3.54,-5.57l-6.14 -4.05c1.06,2.09 2.25,3.8 2.96,6.39 -8.49,0.45 -9.22,-5.03 -18.69,-15.09l-2.77 -2.63c3.89,-2.08 4.9,2.15 14.15,6.02 15.42,6.46 31.72,2.49 44.03,-7.57 2.2,-1.8 4.52,-4.38 6.35,-5.58 -5.12,9.77 0.39,6.12 -10.93,10.47 -2.51,0.97 -4.45,2.31 -7.22,3.4l-8.03 3.47zm-165.23 -70.62c7.83,-1.84 15.2,0.5 20.58,4.3 16.19,11.45 12.84,41.74 -11.07,46.22 -4.48,0.84 -7.07,0.12 -11.29,-0.87 -6.3,-1.47 -4.73,-0.38 -8.89,-4.09 -18.43,-16.42 -10.94,-40.49 10.67,-45.57zm150.61 0.02c10.51,-4.13 27.58,4.27 31.2,18.54 2.97,11.68 -2.37,27.11 -18.43,31.06 -10.18,2.5 -13.74,1.04 -20.56,-3.32 -5.3,-3.38 -9.24,-6.51 -10.84,-14.54 -3.75,-18.91 5.37,-26.53 18.63,-31.75zm-33.6 25.63c-4.06,-3.65 2.5,-23.35 6.27,-24.52 1.44,-0.45 -1.07,0.6 1.05,-0.2 1.4,-0.53 -0.69,0.48 0.67,-0.32 1.26,-0.75 1.29,-1.63 4.82,-2.66 -2.3,4.51 -4.83,7.43 -7.27,13.19 -0.85,1.99 -1.93,5.18 -3.03,7.02 -1.64,2.71 -1.27,0.27 -1.73,3.38 -0.33,2.22 0.14,2.15 -0.77,4.12zm-154.56 24.58c-3.5,-3.99 -5.58,-10.77 -6.34,-17.51 -1.35,-11.99 -1.64,-9.56 -7.95,-15.7 -5.03,-4.89 -2.26,-6.89 5.05,-13.88 2.46,-2.36 3.5,-3.8 5.56,-6.28 1.81,-2.18 3.83,-3.02 6.15,-5.4 2.08,1.27 4.31,3.09 5.63,5.17 -0.76,2.11 -2.54,5.01 -3.51,6.74 -0.85,1.52 -3.13,4.78 -3.67,5.85l1.15 -5.61c-2.2,1.22 -12.45,11.49 -13.49,13.69 1.37,2.9 3.55,4.94 7.46,4.59 1.23,-1.78 1.39,-3.57 2.38,-5.32 0.86,5.47 0.45,5.16 -2.3,8.44 -4.5,5.35 2.43,20.21 3.88,25.21zm203.91 -62.88c-2.14,-1.29 -4.34,-0.97 -4.91,-2.54 3.39,-1.7 15.22,3.16 17.69,5.09 1.59,1.25 3,2.33 4.26,3.45 13.6,12 18.9,29.85 12.04,46.94 -3.18,7.92 -8.35,13.17 -13.55,17.66 -5.34,-1.93 -1.59,-0.93 -6.6,0.3l3.23 -2.98c1.26,-0.97 2.15,-1.7 3.3,-2.6 6.5,-5.03 10.06,-13.14 11.77,-21.79l0.63 0.03c0.1,-0.01 0.48,-0.01 0.59,-0.03 0.87,-0.19 0.07,1.2 1.19,-0.61l-1.2 -14.75c-0.89,-0.65 -0.22,-0.17 -1.24,-0.41 -2.79,-0.66 1.22,0.85 -0.85,-0.12 -3.54,-16.43 -19.78,-22.3 -22.44,-25.13 -1.47,-1.57 0.26,-0.39 -1.75,-1.29 -1.54,-0.69 -0.84,-0.46 -2.15,-1.24zm-200.54 45.52c-3.31,-0.76 -2.4,-4.49 -2.31,-7.9 0.25,-9.75 2.52,-17.16 8.26,-24.54 5.45,-6.99 18.03,-17.33 28.13,-15.5 -2.54,2.65 -3.73,-0.37 -6.53,3.94 -1.13,-0.51 -1.82,-0.64 -3.65,-0.33 0.4,1.07 2.39,1.02 -1.55,3.46 -4.4,2.73 -6.87,4.36 -10.52,7.82 -6.24,5.92 -6.4,8.34 -8.84,15.13l-1.01 0.03c-2.46,-0.01 0.91,-1.02 -0.94,-0.03 -0.35,4.54 0.94,0 1.03,4.73 -1.04,0.74 -1.08,0.14 -1.95,0.59l-0.14 12.61zm195.82 -53.08l-0.32 -2.51c3.37,2.5 5.34,2.72 7.35,4.61 -6.85,-0.2 -13.55,-1.77 -20.38,-0.6 -2.15,0.37 -3.38,0.99 -5.48,1.21 3.79,-2.32 13.21,-2.46 18.83,-2.71zm-67.6 7.76c-3.64,-3.8 -6.36,-5.93 -9.89,-11.2l3.18 -3.21c5.17,2.17 6.39,5.89 10.02,10.5 3.04,3.87 6.15,7.11 12.03,8.65 6.31,1.65 11.35,-0.56 14.55,-4.56 4.88,-6.09 2.72,-8.68 1.88,-15.69 6.55,4.9 3.56,9.84 1.67,17.49l4.84 -1.83c-1.37,1.52 -2.14,1.73 -3.62,3.02 -17.25,15.05 -21.57,38.89 -9.73,57.57 1.89,2.98 3.16,4.33 5.63,5.93 0.03,7.49 -5.53,7 -9.02,3.37 -2.37,-2.47 -6.37,-6.76 -8.43,-9.72 2.03,0.98 1.63,1.01 3.46,2.88 2.1,2.14 6.89,6.72 9.29,7.92 -2.28,-6.05 -6.79,-4.48 -11.12,-13.01 1.78,-0.83 0.24,1.43 2.62,-0.59 -1.42,-2.11 -4.96,-4.86 -7.03,-6.26l0.9 -9.91c-2.52,1.9 -2.11,3.34 -3.8,5.62 1.44,-8.5 8.99,-21.49 1.92,-35.07 -2.37,-4.55 -6.48,-8.89 -9.36,-11.89zm7.35 -15.15c8.79,-8.08 17.69,2.28 20.22,4.13l-1.2 -3.92c4.82,3.18 2.24,8.44 1.35,13.05 -8.08,0.11 -8.18,0 -13.02,-3.94 -2.6,-2.12 -6.42,-5.15 -7.36,-9.31zm-61.34 4.24c3.36,-1.89 3.1,-5.03 8.47,-6.42 4.69,-1.21 9.15,-0.08 11.98,2.32 -1.61,3.96 -4.01,6.49 -6.89,8.66 -3.03,2.28 -6.83,3.77 -9.64,5.97l1.81 0.79c3.88,1.01 8.19,-0.99 11.1,-2.96 -1.87,1.21 -3.19,3.2 -6.3,3.84 -10.41,2.14 -16.24,-11.53 -9.25,-16.11l-1.28 3.92zm119.71 -4.48c-1.25,2.1 -0.11,3.16 0.08,3.58 -1.98,-1.38 -2.87,-1.82 -5.6,-3.22l5.52 -0.36zm-158.69 4.36l1.32 -3.74 -4.93 -1.51 -13.24 12.81c1.97,-0.17 1.93,-0.72 3.77,0.02 -4.51,2.34 -10.27,7.21 -14.85,9.15l-4.39 -4.45c3.16,-6.67 6.51,-8.02 11.25,-12.61 2.11,-2.04 4.24,-3.47 6.31,-5.53 0.96,-0.95 1.71,-2.28 3.54,-2.58 4.07,-0.67 16.3,5.25 25.41,4.91 7.73,-0.29 11.55,-3.46 17.53,-5.69 -0.83,2.69 -3.02,3.05 -5.99,4.27 -14.24,5.89 -18.06,-0.9 -25.74,4.96zm96.67 -13.41c1.08,-1.83 1.33,-1.66 2.48,-3.21 1.46,-1.98 0.48,-1.48 3.32,-2 -0.31,4.4 -1.36,4.78 -5.8,5.21zm-96.67 13.41l-0.85 3.06c6.43,0.06 13.71,0.61 19.55,2.49 7.48,2.4 11.13,7 13.63,7.21 0.5,-3.15 -4.8,-11.01 2.32,-17.34 -1.49,9.82 -1.65,12.01 4.26,17.69 10.18,9.78 20.09,-2.52 24.03,-5.12l7.07 -4.76 38.74 -38.64c1.04,-1.13 1.66,-2.06 2.67,-3.27 4.42,-5.32 13.92,-12.6 17.55,-17.92 -2.13,1.12 -13.06,11.99 -15.64,14.54 -1.44,1.42 -2.17,2.62 -3.57,4.11l-18.71 18.52c-1.4,1.44 -2.35,2.47 -3.77,3.91 -1.3,1.33 -2.43,2 -3.79,3.29 -3.34,3.17 -11.67,12.68 -14.98,14.55 4.07,-6.39 6.43,-6.95 9.99,-11.25l63.97 -63.07c2.55,-2.53 8.06,-8.64 10.81,-10.42 -2.33,3.95 -9.29,11.5 -10.16,14.22l7.1 -5.89c-0.84,2.01 -5.54,6.34 -7.43,8.32l-22.38 22.53c-5.15,5.18 -9.85,9.95 -15.03,15.1l-29.89 29.79c-4.61,4.61 -9.98,9.61 -14.27,15.27 -4.43,5.84 -7.96,13.32 -6.88,23.28 0.88,8.15 6.43,17.71 5.63,23.52 -0.27,-2.46 -0.57,-4.29 -1.43,-6.46 -0.84,-2.13 -1.58,-3.68 -3.31,-4.88l0.89 9.87c-1.68,1.16 -5.98,4.61 -7.03,6.3 0.61,1.43 0.17,0.39 1.13,1.18l1.14 0.74c-3.03,3.04 -4.33,5.41 -8.4,8.55 -1.85,1.43 -1.74,1 -2.37,3.37 3.27,-1.78 5.29,-4.21 7.6,-6.39 2.12,-2 4.47,-5.23 7.01,-6.43 -4.02,5.68 -9.52,9.19 -13.69,14.44 -3.41,-0.55 -4.25,-2.02 -6.12,-3.49 1.49,-3.47 5.18,-7.09 7.42,-11.08 12.44,-22.24 2.98,-49.33 -19.29,-60.46 -14.14,-7.07 -22.31,-3.37 -31.6,-3.33 1.4,-1.92 2.15,-1.85 4.18,-3.01 1.8,-1.03 2.49,-1.84 3.88,-2.62zm17.44 -67.07l-11.13 -15.25 6.09 5.53c1.92,1.96 3.85,3.53 5.9,5.34l32.63 32.88c-1.24,0.91 -1.71,-0.2 -2.4,0.18 1.21,1.22 2.15,2.95 2.41,5.31 -4.58,-1.31 -8.94,-7.46 -12.5,-10.67 -9.62,-8.68 -19.49,-19.28 -28.59,-28.7 -2.39,-2.48 -3.62,-2.53 -5.11,-6.12 2.5,1.64 3.99,4.11 6.34,6.07 1.23,1.03 5.78,4.73 6.36,5.44zm53.24 59.77c16.84,-16.83 38.24,-39.12 54.66,-54.64 5.05,-4.77 16.57,-18.14 21.67,-21.34l-75.8 77.1c-3.62,3.28 -7.69,6.65 -10.84,10.08l10.3 -11.21zm-13.56 -8.4c0.87,-7.33 4.51,-5.79 9.65,-8.5 4.71,-2.48 3.94,-6.34 7.37,-9.77 6.01,-6.03 10.71,-12.05 16.57,-18.27 1.6,-1.7 2.23,-2.77 4.12,-4.75 1.82,-1.9 1.78,-2.93 3.5,-5.37l16.68 -18.19c2.06,-2.1 6.2,-6.02 10.27,-7.07 0.61,0.49 0.35,0.27 0.98,0.96 3.27,3.55 4.93,4.77 4.09,7.25 -1.79,-0.66 -1.22,-1.55 -3.61,-1.18 -2.1,0.33 -0.72,1.14 -4.22,0.64 -0.79,-2.51 0.06,-2.58 0.54,-5.23 -4.51,2.49 -10.62,7.65 -12.54,12.55 11.74,-1.02 5.96,0.3 10.95,1.99l3.53 0.91c0.09,-0.14 0.33,0.11 0.39,0.1l-5.69 4.35c-1.56,-3.89 -2.58,-5.61 -8.26,-5.24 1.17,2.95 5.48,3.95 3.88,9.16 -0.61,2.01 -13.77,16.42 -16.51,18.98 -7.89,7.33 -10.68,11.13 -17.61,17.84 -5.69,5.52 -8.82,8.31 -20.39,7.94l2 2.41c0.07,0.07 0.29,0.41 0.34,0.3 0.06,-0.1 0.24,0.19 0.34,0.3 -3.07,0.07 -4.63,-1.09 -6.35,-2.09zm-28.42 -63.48c0.72,-3.35 2.37,-5.18 4.12,-6.75 3.2,-2.87 4.54,-1.36 6.86,0.78 4.06,3.72 6.93,6.59 10.57,10.71l15.68 16.22c1.92,2.26 3.15,3.07 4.77,4.92 -2.22,3.12 -5.94,7.32 -9.24,9.59 -2.85,-1.36 -10.95,-9.35 -13.1,-11.73 -8.01,-8.87 -3.84,-10.55 0.05,-14.91 -5.74,-0.81 -7,1.41 -8.73,5.29l-4.65 -4.88c4.81,-1.71 -0.18,0.91 5.9,-2.57 2.52,-1.44 5.24,-0.47 8.09,-0.16 -2.02,-4.82 -8.7,-10.73 -12.5,-12.48 0.48,2.45 2.5,5.26 -0.95,5.33 -3.88,0.08 1.83,-1.52 -6.87,0.64zm174.72 6.08c5.33,-0.81 3.39,0.05 6.58,-2.88 3.89,-3.57 11.18,-10.35 13.98,-14.63 0.45,4.44 -1.52,6.54 -3.5,8.57l-35.83 35.07c-1.62,1.57 -4.1,4.94 -6.82,5.18 -0.66,-2.84 0.14,-2.86 2.12,-4.55 7.99,-6.78 12.51,-12.53 19.21,-18.64 5.74,-5.23 5.65,-4.66 4.25,-8.14zm-266.66 -20.7c-0.95,7.65 1.8,6.32 7.55,12.44 5.37,5.72 5.22,7.77 11.79,8.29 -1.14,2.28 -1.02,2.74 0.71,4.58l19.36 19.07c5.12,5.31 6.24,4.11 5.5,8.19 -5.09,-3 -9.47,-7.69 -13.47,-12.04l-24.86 -24.78c-3.64,-3.05 -10.96,-8.6 -6.59,-15.76zm0 0l5.22 -9.64c5.3,2.05 10.07,7.76 13.39,11.03 11.08,10.91 6.05,7.51 10.94,13.29 3.38,3.99 8.47,8.16 12.38,11.85 2.44,2.31 4.42,2.6 5.6,6.21 2.35,7.2 -2.81,13.37 -8.21,2.88 -1.92,-3.74 -2.1,-3.41 -4.71,-5.9 -4.61,-4.4 -18.73,-17.49 -21.83,-21.3 -1.62,-1.99 -3.34,-3.76 -5.64,-5 -3.42,-1.83 -3.03,-4.23 -7.12,-3.42zm239.93 41.23c-5.25,-5.61 0.83,-11.91 5.08,-15.59l12.02 -11.62c1.86,-2.24 2.77,-4.74 4.78,-7.05 1.95,-2.23 4.13,-3.71 6.02,-5.79 4.05,-4.48 6.53,-8.37 12.99,-10.82 1.43,3.3 4.69,7.12 5.6,10.56 -1.13,-1.64 -0.45,-1.06 -2.3,-1.94 -2.26,1.93 -4.59,2.51 -6.39,4.42 -1.98,2.11 -3.39,3.25 -5.51,5.13 -8.06,7.12 -14.24,14.42 -21.63,22.09 -5.23,5.43 -5.48,10.79 -10.65,10.61zm-100.62 -7.05c-2.82,-2.07 -3.79,-2.79 -6.32,-5.37l-28.4 -28.33c-4.29,-4.46 -10.01,-8.78 -10.64,-11.97 2.05,1.02 3.42,3.01 6.27,5.7l33.97 33.97c2.03,2.4 3.94,2.87 5.12,5.99zm-60.76 -44.3c0.7,-1.88 4.48,-4.71 6.51,-5.12 -1.66,1.63 -3.64,4.3 -6.51,5.12zm-97.41 -7.11c-0.71,2.27 -1.5,2.84 -2.83,4.41 -3.3,-3 -3.5,-2.46 -3.93,-6.17 2.26,0.66 3.4,1.63 4.95,2.83 0.12,-0.07 0.3,-0.16 0.37,-0.2l1.45 -0.87zm23.55 -5.4l-7.05 11.26c-2.16,3.7 -4.16,8.49 -7.02,11.08 -1.98,-1.5 -3.68,-3.2 -4.58,-6.45 2.99,0.6 3.51,1.39 5.7,2.51 5.38,-5.12 0.52,-7.66 -2.22,-10.67 1.11,-2.78 4.11,-5.78 5.13,-8.44l0.44 0.87c0.06,0.12 0.15,0.29 0.22,0.42 0.07,0.12 0.15,0.28 0.22,0.4 4.18,6.77 7.6,0.04 9.17,-0.99zm-23.55 5.4c2.18,-7.35 -2.15,-7.63 -3.77,-8.9 1.06,-3.44 2.73,-4.54 4.09,-6.69 9.91,1.41 4.87,7.91 1.74,12.91l-2.06 2.67zm-17.29 -9.97c-6.91,-7.89 -7.84,-5.29 -6.27,-12.05 5.13,8.6 2.51,4.35 9.01,10.5 1.75,1.66 1.72,1.89 0.89,4.61 -2.04,-0.71 -2.28,-1.52 -3.64,-3.06zm363.58 -13.07c0.06,0.08 0.33,0.33 0.7,0.99 3.67,6.53 -7.95,14.29 -9.62,15.09 -1.32,-4.44 0.11,-2.94 4.84,-7.75 3.16,-3.22 5.1,-5.15 4.08,-8.34zm-24.37 7.06c-1.1,-2.51 -3.36,-4.22 -4.87,-7.3 3.08,2 9.41,11.7 10.52,14.39 -4.42,4.03 -6.18,3.1 -2.68,10.18l5.64 -3.05c-0.5,4.17 -1.26,4.57 -4.39,5.93l-10.49 -16.41 6.27 -3.75zm-70.11 51.03c-1.01,0.92 -0.84,0.36 -1.03,1.9 -4.36,-8.66 -12.98,-16.82 -18.47,-23.51 -2.16,-2.64 -5.15,-4.21 -6.67,-7.27l3.51 1.36c0.09,-0.11 0.39,-0.51 0.5,-0.64 2.23,-2.82 4.86,-4.17 7.49,-0.63 3.12,4.2 0.51,4.82 7.04,7.13 8.59,3.04 17.83,-0.66 22.16,-5.26 7.71,-8.19 8.53,-23.95 -2.52,-29.13 -3.47,-1.63 -4.27,-3.24 -9.03,-4.99l5.76 1.12c2.69,-3.07 4.32,-2.04 6.55,-4.14 4.42,5.4 10.93,10.6 15.87,16.03 1.26,1.38 2.54,2.78 3.89,4.37 5.68,6.71 -1.19,10.76 -4.37,14.57l-15.98 15.94c-3.38,2.97 -5.18,5.09 -8.03,7.93 -4.65,4.64 -5.14,3.84 -6.66,5.23zm-154.41 -27.94c-0.06,0.12 -0.17,0.27 -0.22,0.33l-1.68 1.8c-7.34,6.44 -5.58,6.54 -8.8,10.11 -1.42,1.57 -2.5,2.02 -3.92,3.77 -2.07,2.55 -10.86,14.5 -11.68,17.9l0.41 -6.2c-1.71,-1.57 -3.14,-2.74 -4.88,-4.04l-13.74 -12.85c-3.09,-3.1 -5.75,-5.79 -8.8,-8.92 -3.74,-3.84 -12.23,-9.91 -8.6,-16.06 0.32,-0.54 1.7,-1.73 2.3,-2.41 0.97,-1.09 0.93,-1.29 1.77,-2.37 2.39,-3.05 5.89,-5.48 8.44,-8.7 4.22,-5.33 5.54,-9.19 10.33,-7.18 1.15,0.48 0.3,0.04 1.66,0.73 6.96,3.56 2.93,1.03 9.01,1.21 -5.18,1.63 -4.96,2.46 -8.66,4.59 -4.67,2.7 -4.53,1.1 -6.95,6.62 -6.7,15.31 7.35,31.31 21.94,29.09 15.07,-2.3 5.68,-10.42 17.61,-10.01l1.44 4.45 3.01 -1.87zm227.52 -34.82c0.87,0.43 0.15,-0.08 1.39,0.91 0.76,0.61 0.14,0.15 0.9,0.84 1.38,1.26 0.76,1.03 2.7,1.92 3.43,-6.06 6.7,-6.9 10.34,-9.69 1.57,3.25 5.03,7.14 6.04,10.69 -8.47,-3.46 -6.97,4.54 -13.32,7.18 -1.97,-3.99 -6.27,-7.88 -8.04,-11.85zm11.23 -10.8l2.45 2.27c-1.32,1.11 -1.15,0.88 -3.22,1.39l0.77 -3.67zm-245.75 16.02c1.94,1.71 3.65,3.17 5.27,4.76 2.09,2.04 3.08,2.29 5.27,4.78 2.8,3.17 7.05,7.49 11.26,8.58 -1.47,2.28 -4.86,3.96 -7.34,5.58 0.07,-0.1 0.19,-0.22 0.22,-0.29 0.03,-0.07 0.17,-0.24 0.21,-0.32l0.52 -1.93c-3.12,-2.54 -4.09,-4.27 -6.57,-6.99 -2.56,-2.8 -4.53,-4.07 -6.84,-6.15 -5.34,-4.81 -5.76,-9.22 -14.86,-11.22l2.3 -1.5c-1.72,-3.04 -9.27,-10.28 -11.57,-11.21l-0.95 3.01c-2.72,-0.47 -2.52,-0.65 -4.63,0.82 1.34,-2.66 3.75,-4.62 5.67,-6.75 4.43,0.08 4.13,1.82 6.38,4.33 4.22,4.7 11.13,10.52 15.65,14.51zm121.33 18.43c10.14,-5.62 6.34,-6.07 14.89,-12.17l21.17 -19.59c1.59,-1.63 4.77,-7.55 7.41,-4.95 1.61,1.59 -4,5.97 -5.31,7.07 -2.46,2.08 -4.65,3.96 -6.22,6.79l2.46 1.18c-9.5,1.8 -9.83,7.4 -15.22,12.04 -2.37,2.03 -5.03,4.1 -7.25,6.34 -2.33,2.35 -4.06,3.02 -5.31,5.31l-0.95 1.96c-3.46,-1.18 -3.65,-2.05 -5.69,-3.98zm71.92 -43.86c2.85,-1.37 1.62,-1.52 3.81,-3.24 0.63,-0.5 0.46,-0.17 1.05,-0.72 0.87,-0.81 0.25,-0.06 0.67,-0.87l0.46 -1.71c4.85,5.99 19.89,17.41 26.05,29.26l-2.53 -2.05c-1.76,4 -0.86,3.21 -4.07,5.3 0.77,1.96 1.89,2.67 3.05,4.93 -1.33,-0.83 -0.24,-0.02 -1.46,-1.2 -7.14,-6.94 -15.16,-18.2 -27.03,-29.7zm-271.74 24.72c-1.76,-5.48 -1.72,-6.19 1.6,-9.94 2.42,-2.74 4.19,-5.03 6.7,-7.49 2.35,-2.32 12.89,-11.96 13.76,-13.99l0.8 2.24c0.09,0.18 1.17,1.52 1.5,1.84 0.72,0.69 1.12,1.05 2,1.63l1.56 0.89c0.06,-0.12 0.27,0.13 0.4,0.21 -3.53,2.35 -10.03,9.64 -13.14,13.48 -1.22,1.51 -2.27,2.13 -3.51,3.55 -5.54,6.34 -4.56,8.02 -11.67,7.59zm170.12 9c3.13,-6.37 16.82,-13.87 23.55,-21.88 3.16,-3.76 7.9,-7.43 11.59,-10.87 3.04,-2.83 8.41,-9.93 12.39,-10.63 -0.44,4.4 -2.99,4.78 -5.12,6.69 -2.11,1.89 -3.14,3.45 -5.12,5.5 -1.78,1.86 -3.73,3.16 -5.56,5.07 -12.4,12.94 -10.3,12 -24.34,23.57 -2.58,2.13 -0.71,0.54 -1.56,2.45 -2.59,0.73 -3.2,0.45 -5.84,0.09zm-63.68 -21.5c6.32,6.24 20.88,16.41 23.36,21.61l-5.84 -0.1c-0.71,-1.67 0.42,-1.05 -1.9,-2.82 -9.61,-7.36 -10.58,-9.17 -19.06,-18.2l-15.9 -15.99c-1.95,-1.7 -4.57,-2.04 -4.48,-6.07 2.61,0.07 5.04,3.37 6.79,4.94l17.03 16.63zm140.5 -12.21c1.17,-4.64 6.61,-3.92 1.86,-9.43 4.33,3.13 7.76,6.51 11.98,9.74 3.17,2.43 18.67,19.4 21.27,21.86 2.26,2.15 2.88,3.08 4.96,5.67 1.22,1.52 3.49,4.84 4.61,5.86 -1.05,0.58 1.19,-0.14 -1.92,-0.45l-3.9 3.8c1.3,4.07 5.19,7.83 6.97,10.91 1.88,-0.92 1.25,-0.68 2.73,-2.29 0.98,-1.07 1.42,-1.43 2.34,-2.59l-1.93 -3.56c2.7,2.82 5,6.99 7.62,10.11 -1.97,4.8 -8.01,4.4 -2.29,11.27 3.09,-1.14 2.36,-2.42 5.78,-2.84 -0.72,3.47 -2.48,5.06 -4.69,6.78 -3.2,-3.42 -6.72,-11.01 -9.64,-15.51 -5.99,-9.22 -10.86,-13.35 -17.29,-21.13 -4.05,-4.9 -14.48,-13.13 -13.13,-17.98 0.62,-2.23 1.22,-1.56 2.77,-3.11 -2.03,-2.69 -6.22,-7.27 -9.11,-9.39 -4.39,1.16 -2.12,3.42 -6.7,4.37 -1.51,-1.04 -1.07,-0.96 -2.29,-2.1zm-85.42 31.48c0.85,-3.06 8.3,-10.21 11.13,-12.9 4.07,-3.86 7.59,-7.52 11.57,-11.48 3.99,-3.98 7.55,-7.52 11.55,-11.49 2.09,-2.08 3.89,-3.76 5.9,-5.92 1.66,-1.79 3.46,-4.3 6.69,-4.54l-22.55 22.95c-5.5,5.42 -12.83,11.97 -17,17.28l-5.02 5.78c1.68,1.01 1.67,0.65 2.6,2.58l-4.87 -2.27zm-25.26 -0.84c-4.82,-7.04 -41.52,-40.68 -44.73,-45.45 4.85,0.77 10.07,8.04 12.8,10.83 6.81,6.96 32.12,30.18 34.03,35.4l-4.85 2.24c0.97,-2.51 1.29,-0.92 2.75,-3.02zm-124.62 11.87l2.5 -5.49c-2.07,-1.7 -1.86,-2.64 -4.21,-3.1 -0.1,-0.02 -0.29,-0.02 -0.39,-0.04l-1.42 -0.17c1.79,-1.95 3.8,-4.57 5.59,-6.84 8.03,-10.19 14.78,-15.02 18.12,-19.12 2.33,-2.86 4.1,-3.82 6.24,-6.16 2.66,-2.9 17.3,-16.12 20.18,-16.76 -1.33,2.61 -4.63,3.7 -8.15,7.51 -1.55,1.68 -1.66,1.15 -2.4,3.23 3.1,0.65 3.88,1.37 6.42,2.48 2.06,-2.32 3.39,-4.27 7.2,-5.56 -0.94,1.76 -5.01,4.53 -6.79,6.08l-19.25 17.96 -23.62 26zm15.93 -53.58c1.03,-1.83 2.43,-2.97 4.05,-4.47 1.83,-1.71 2.22,-1.48 5.31,-0.25 7.35,2.91 3.74,2 10.28,-1.97l-16.5 14.96c1.68,-2.77 4.45,-4.73 6.06,-7.38l-3.81 -4.14c-2,1.18 -3.29,2.25 -5.39,3.26zm221.22 -9.2c-0.84,-0.81 -0.29,-0.15 -0.98,-1.14 3.57,1.86 5.81,4.31 9.14,6.69 2.69,1.92 2.19,-0.52 9.9,-2.2l5.37 5.85c-2.57,-1.08 -2.89,-2.05 -5.53,-3.15 -1.08,1.9 -2.39,2.53 -3.9,3.63l2.33 4.01 -16.34 -13.67zm-28.45 0.2c3.52,0.26 2.7,-1.11 6.09,-2.47l-1.33 -3.28c4.3,1.12 10.1,5.07 12.42,7.5 -2.62,-1.26 -3.87,-2.52 -7.34,-3.11 -0.79,1.7 -2.33,3.38 -3.5,4.69 -1.06,-0.45 -2.32,-1.03 -3.44,-1.55l-2.3 -1.26c-0.07,-0.05 -0.26,-0.09 -0.31,-0.26 -0.05,-0.16 -0.21,-0.17 -0.3,-0.27zm0 0l-5.74 -2.36c0.88,-2.11 2.53,-4.09 5.57,-4.64l-2.97 4.64c0.38,0.39 0.25,0.35 1.03,0.89l2.11 1.48zm-137.63 -1.79c-0.8,-2.65 -2.18,-3.14 -3.09,-5.68 2.95,0.89 4.93,2.55 5.84,5.1l-9.15 4.94c-2.89,1.73 -5.42,3.64 -8.52,5.1 1.23,-1.69 3.26,-2.71 5.14,-4.27l-4.02 -4.7 -8.13 4.35c2.55,-3.24 9.08,-7.4 14.19,-8.87l-1.11 2.86c1.57,1.3 2.95,2.17 4.22,3.19l4.64 -2.03zm-14.95 -10.03l-7.78 3.95c0.67,-0.63 0.43,-0.38 0.9,-0.99 -1.29,-2.05 -3,-3.16 -4.12,-5.78l4.56 -2.63 0.93 2.24c0.92,2.19 2.24,3.3 5.5,3.23zm198.75 3.81c-3.42,-1.35 -9.01,-5.74 -11.36,-8.69 2.17,0.98 4.4,2.72 6.13,4.03l4.13 2.95c1.23,1.26 0.43,0.32 1.09,1.71zm-198.75 -3.81c1.21,-1.1 1.83,-1.21 2.92,-2.24 -1.13,-3.49 -1.28,-3.09 -4.45,-4.64 4.45,-0.57 5.96,1.54 7.11,4.69l-5.57 2.19zm158.55 -3.08c2.29,-3.27 3.32,-4.48 8.35,-4.51 -1.81,2.37 -3.82,2.04 -4.89,5.34 1.55,1.13 2.77,1.92 5.65,2.01 1.57,-2.23 1.87,-4.61 3.12,-6.13 3.11,3.69 1.67,1.78 4.3,3.99 -1.31,2.91 -2.46,3.12 -3.8,5.32 0.47,0.63 0.24,0.35 0.89,0.99l2.86 2.74c-3.08,-1.56 -4.99,-3.34 -8.38,-4.87 -3.47,-1.56 -6.21,-2.16 -8.11,-4.88zm86.71 55.15c-1.04,-0.51 -0.17,0.06 -1.07,-0.72l-37.07 -39.76c-5.94,-4.25 -3.46,-3.09 -5.65,-4.82 0.92,-1.12 2.48,-1.64 3.48,-2.22l8.34 -6.32c-1.72,-3.28 -6.42,-6.4 -8.72,-9.58 3.49,1.76 8.76,6.17 11.46,8.69 2.12,1.97 7.81,8.63 9.41,9.48 -1.37,-1.04 -2.35,-1.63 -3.83,-2.68 -1.73,-1.22 -2.27,-1.8 -4.33,-0.36l-0.28 -3.17c-2.82,1.17 -7.5,5.51 -8.24,9.27l6.65 -2.32c-1.06,2.99 -1.76,3.45 -3.78,4.76 1.43,3.87 3.25,5.25 5.42,7.59 3.92,-4.04 1.72,-5.4 11.22,-10.44 2.01,2.25 4.35,3.76 6.63,6.27 4.25,4.68 6.73,6.3 12.55,13.46l5.37 6.85c-2.13,1.17 2.66,-0.12 -0.58,-0.09 -1.04,0.01 -0.88,-0.07 -1.79,1.01 -7.12,8.43 -0.2,1.69 -8.89,9.13 1.4,2.17 2.84,3.79 3.72,5.99zm-74.51 -66.25c1.45,-2.88 7.53,-9.46 11.01,-10.44 4.51,-1.27 8.65,2.5 11.04,4.42l-0.23 1.31c-2.5,3.53 -7.71,6.47 -9.34,10.25l3.5 3.6 -15.98 -9.14zm-200.47 -5.36c2.71,-1 3.31,-2.76 6.57,-4.27 2.19,-1.02 5.12,-2.73 6.91,-1.27l5.39 5.27c1.02,1.1 3.8,4.38 4.31,5.63l-15.83 8.92c1.47,-1.91 2.35,-1.5 3.64,-4.4 -2.09,-1.42 -3.57,-3.24 -5.44,-5.1l-5.56 -4.77zm202.69 197.56c-9.21,-0.37 -20.69,9.47 -34.88,3.03 -4.96,-2.25 -14.72,-10.15 -18.06,-13.85 -1.39,-1.54 -3.83,-4.24 -4.82,-6.23 0.23,-0.14 33.68,-37.39 41.46,-40.39 9.09,7.11 8.06,23.74 20.23,32.87 4.29,3.21 6.3,0.62 9,-1.93 2.5,-2.37 4.17,-3.48 6.75,-6.25l26.37 -26.8c5.07,-4.42 8.88,-8.3 13.61,-13 8.93,-8.89 17.41,-17.35 26.34,-26.24 4.15,-4.14 9.4,-8.66 12.78,-13.83 6.43,-9.83 -19.16,-36.32 -26.09,-44.48 -1.21,-1.42 -1.67,-2.3 -3,-3.52 -4.85,-4.48 -8.36,-8.97 -13.05,-13.53 -8.23,-8.02 -12.76,-11.66 -21.61,-18.57 -10.69,-8.34 -11.75,-9.62 -23.97,-14.5l-2.54 -0.18c-3.52,0.84 -7.05,2.94 -9.13,5.47 -7.14,8.69 -28.99,29.49 -38.21,38.61 -11.27,11.15 -18.78,19.43 -30.71,30.74 -2.65,2.52 -13.85,12.95 -14.95,15.83 -2.47,6.45 10.73,12.8 15.25,14.67 14.48,5.99 8.37,3.28 19.41,10.67 -2.09,5.1 -37.99,40.23 -40.94,41.74 -5.43,-2.6 -26.47,-26.23 -31.53,-30.68 -2.5,-2.2 -8.3,-8.25 -9.43,-11.07 2.78,-1.87 4.97,-3.96 9.13,-6.15 6.42,-3.38 16.57,-6.07 20.55,-10.19 1.85,-1.92 6.8,-5 5.01,-8.97 -1.34,-2.98 -25.85,-26.43 -30.19,-30.76l-57.37 -57.26c-1.07,-0.95 -3.63,-2.3 -4.03,-2.54 -22.26,-0.85 -99.35,78.42 -92.5,93.75 1.2,2.69 60.08,60.75 67.16,67.55l20 20.18c2.58,2.72 3.59,4.47 8.55,1.29 10.34,-6.62 11.77,-27 20.77,-33.04 3.63,2.07 7.82,6.87 10.91,9.83 10.49,10.1 20.91,20.1 30.19,31.35 -5.53,6.53 -18.44,20.45 -31.62,21.56 -8.98,0.76 -14.55,-2.63 -21.96,-4.72 -8.55,-2.42 -11.62,3.74 -16.73,8.53l-27.07 26.11c-2.19,2.37 -4.01,4.78 -6.01,7 -1.25,1.4 -2.37,1.68 -3.17,3.28 -0.84,1.68 -0.74,3.91 -1.24,5.93 -1.6,6.46 -1.73,4.7 2.08,8.98 5.44,6.11 5.31,3.73 8.48,5.08 2.12,11.76 2.4,17.44 9.7,27.52 8.53,11.77 19.92,18.96 34.39,21.79 3.15,0.61 5.06,-0.1 5.88,1.71 2.64,5.83 5.34,11.71 14.08,9.51 9.53,-2.4 10.8,-6.13 15.88,-11.34 8.95,-9.19 17.79,-17.83 26.9,-26.87 3.95,-3.93 10.76,-7.85 7.55,-17.33 -4.68,-13.82 -10.82,-25.21 1.74,-40.71 4.04,-4.98 8.56,-9.4 13.88,-13.56 8.47,4.03 21.02,20.52 21.23,32.74 0.27,14.68 -11.11,24.93 -4.79,32.01 10.08,11.3 28.64,27.98 40.02,40.34 3.08,3.35 3.43,3.17 8.95,4.64 5.95,1.59 5.86,1.73 9.7,-1.87 1.3,-1.22 2.17,-1.87 3.13,-3.41 5.11,-8.16 -3.2,-2.82 11.99,-6.89 3.3,-0.88 6.36,-2.03 9.14,-3.29 10.42,-4.72 20.28,-13.92 25.2,-24.42 7.36,-15.66 1.76,-18.12 7.58,-20.78 4.12,-1.89 3.32,-1.57 7.04,-5.35 3.5,-3.56 2.45,-5.73 0.97,-11.6 -1.28,-5.08 -10.93,-13.93 -14.92,-17.66l-16.5 -16c-6.57,-6.12 -11.61,-13.36 -17.99,-14.54zm-198.62 181.16c-2.79,12.09 -12.15,20.04 -26.86,19.4 -30.82,-1.33 -22.05,-48.46 8.29,-46.16 12.82,0.97 21.91,12.25 18.57,26.76zm90.26 -6.5c-1.79,12.95 -11.4,21.07 -26.11,19.43 -14.57,-1.63 -21.08,-9.9 -19.21,-25.79 1.45,-12.31 12,-20.44 26.25,-18.95 13.2,1.38 21.11,10.58 19.07,25.32zm-175.04 32.51l-12.16 -31.76c-2.22,9.89 0.95,22.93 -1.5,33.98l-9.84 1.8 -0.39 -43.62c0.73,-1.28 -0,-0.52 1.33,-1.25 2.88,-1.57 14.4,-2.4 17.14,-2.23l8.27 25.54 1.14 -1.53c0.06,-0.1 0.73,-1.32 0.85,-1.56l3.86 -10.27c1.58,-4.84 3.28,-10.11 4.52,-15.01l17.77 -2.53 0.17 44.78 -11.39 1.15 -0.31 -31.91c-3.35,4.74 -8.16,22.42 -10.45,29.81 -0.65,2.09 -0.86,3.18 -2.48,4 -1.71,0.85 -4.51,0.93 -6.53,0.6zm376.05 -2.38l0.26 -7.31c6.09,1.12 13.56,6.32 19.46,2.58 3.14,-10.9 -19.09,-11.82 -20.63,-24.23 -0.92,-7.4 4.11,-11.86 10.33,-12.68 5.77,-0.77 15.81,0.79 20.19,3.24l-0.47 7.51c-3.69,-0.29 -8.04,-2.47 -11.71,-2.72 -5.12,-0.34 -8.47,2.53 -4.69,6.44 2.09,2.16 6.17,4.09 8.83,5.96 5.92,4.18 14.08,8.8 10.6,18.14 -4.74,12.73 -26.65,6.51 -32.17,3.06zm-159.88 -11.85l-12.16 -0.09 0.07 -43.2c14.09,-1.57 35.54,-1.05 35.12,14.92 -0.2,7.39 -5.82,11.82 -12.88,12.33 -8.36,0.61 -9.66,-1.05 -9.92,3.01 -0.25,4.07 -0.15,8.87 -0.23,13.03zm106.09 -2.64l0.04 8.15c-4.11,0.62 -10.67,-0.31 -12.75,1.02 2,3.14 4.13,0.65 7.51,4.41 2.5,2.77 1.47,5.87 -1.36,7.57 -2.67,1.6 -6.42,1.66 -9.74,1.08 -7.46,-1.32 -8.04,-1.46 -8.46,-4.19 0.51,-0.31 0.43,-0.35 1.53,-0.58 2.46,-0.52 8.97,0.06 12.27,-0.1 -1.02,-3.19 -1.34,-2.5 -4.13,-3.31 -0.17,-0.05 -0.32,-0.09 -0.48,-0.14l-2.02 -5.7c-5.19,-3.03 -10.48,-3.41 -16.05,-10.51 -10.27,-13.11 -3.02,-29.92 9.72,-33.48 9.28,-2.59 15.75,0.47 23.92,1.8 0.17,14.02 -2.35,6.08 -12.02,5.82 -16.17,-0.44 -15.81,19.53 -6.51,26.14 7.81,5.55 13.51,0.85 18.53,2.05zm-208.16 -30.54l-0.36 35.29 -13.3 1.16 -0.14 -35.19 -11.48 -0.07 0.11 -6.24c0.03,-0.15 0.09,-0.32 0.13,-0.45l0.33 -0.82c3.35,-1.53 30.11,-2.15 35.7,-2.12l0.03 7.88 -11.03 0.57zm144.99 8.62l17.18 1.2 0.18 7 -17.24 -0.41 -0.07 10.76 18.4 0.98 0.55 7.37 -31.97 -1.38 -0.45 -43.3 31.51 1.61 0 7.31 -18.2 -0.83 0.1 9.69zm253.83 51.19c-10.74,-1.79 -22.19,-4.4 -33.01,-6.56 -7.4,-1.48 -27.07,-4.53 -32.29,-7.28l-0.16 -53.52c-6.08,-2.11 -54.06,-8.14 -63.96,-9.44 -28.23,-3.71 -70.83,-7.71 -100.21,-9.6 -5.75,-0.37 -11.52,-0.73 -16.81,0.7 -5.47,1.48 -10.19,-0.46 -15.71,-1.42 -10.31,-1.79 -23.71,-2.12 -34.5,-2.1 -12.47,0.03 -24.92,-0.8 -37.22,-0.61 -10.88,0.36 -21.53,0.69 -32.51,0.76 -15.16,0.09 -21.36,6.91 -28.62,3.08 -5.8,-3.06 -3.88,-2.15 -13.92,-1.48l-48.34 3.24c-27.16,1.74 -62.18,7.22 -89.8,11.72 -4.14,0.68 -28.64,3.15 -29.26,5.96l1.94 23.98c3.13,30.45 7.06,25.35 -15.74,29.78 -19.2,3.73 -36.98,8.14 -55.32,11.98 1.12,2.29 6.72,8.32 8.54,10.12 3.21,3.17 5.96,5.98 9.19,9.12 6.13,5.97 12.48,12.02 18.78,18.45 3.2,3.27 3.23,2.34 -0.58,12.44 -4.47,11.85 -13.15,28.41 -15.66,39.76 11.2,-1.56 23.92,-4.5 35.09,-6.68 23.81,-4.65 79.6,-15.31 103.73,-17.11l4.45 -0.93 -3.42 -55.52c9.3,-2.8 66.77,-7.16 79.94,-8.1 68.39,-4.88 142.75,-3.55 211.12,3.03 13.4,1.29 26.38,3.4 39.44,4.89 -0.4,9.55 -4.09,49.51 -2.79,55.44 30.65,2.97 77.66,11.07 108.86,17.7 9.1,1.93 26.29,7.18 34.91,7.12 -4.39,-12.63 -20.94,-42.87 -23.64,-50.55 4.56,-6.98 39.27,-30.28 42.91,-36.69l-5.43 -1.7z"/>
   <path class="fil11" d="M520.27 377.36c3.17,3.61 0.68,7.07 -3.18,3.7 -4.35,-3.79 -16.77,-15.11 -18.01,-20.08 4.52,0.5 6.59,2.01 9,4.24 2.11,1.95 4.32,5.95 6.88,6.62 -1.26,-2.54 -6.55,-7.24 -8.86,-9.37 -4.27,-3.94 -8.24,-0.88 -14.28,0.13 4.95,1.9 2.06,-1.14 8.09,4.28 9.12,8.2 11.24,15.39 19.23,17.81 1.15,-1.11 2.62,-2.81 4.25,-3.67l-3.12 -3.65z"/>
   <path class="fil12" d="M407.89 308.72c-1.19,-3.13 -3.09,-3.59 -5.12,-5.99l-33.97 -33.97c-2.85,-2.7 -4.21,-4.69 -6.27,-5.7 0.63,3.18 6.35,7.51 10.64,11.97l28.4 28.33c2.53,2.58 3.5,3.3 6.32,5.37z"/>
   <path class="fil13" d="M492.4 371.61c-5.62,0.25 -15.04,0.39 -18.83,2.71 2.1,-0.21 3.33,-0.84 5.48,-1.21 6.83,-1.17 13.53,0.4 20.38,0.6 -2,-1.89 -3.98,-2.11 -7.35,-4.61l0.32 2.51z"/>
   <path class="fil14" d="M361.25 310.58c4.5,5.2 5,6.9 12.04,11.96 -0.68,-1.55 -0.15,-0.75 -1.25,-2.11 -0.43,-0.53 -0.88,-0.96 -1.4,-1.53 -1.33,-1.47 -1.7,-1.44 -3.13,-2.75 -2.45,-2.23 -2.93,-3.92 -6.26,-5.57z"/>
   <path class="fil15" d="M528.15 181.34c-0.66,-1.38 0.15,-0.44 -1.09,-1.71l-4.13 -2.95c-1.73,-1.31 -3.97,-3.05 -6.13,-4.03 2.34,2.95 7.93,7.33 11.36,8.69z"/>
   <path class="fil16" d="M234.83 221.83l3.53 0.68c-1.18,-2.91 -1.15,-2.62 0.1,-5.5 -0.81,0.65 0.07,-0.22 -1,0.89 -0.05,0.05 -1.06,1.21 -1.1,1.26 -0.8,0.99 -1,1.28 -1.54,2.67z"/>
   <path class="fil17" d="M347.13 264.42c2.87,-0.82 4.85,-3.49 6.51,-5.12 -2.03,0.41 -5.81,3.24 -6.51,5.12z"/>
   <path class="fil18" d="M585.11 222.47c2.07,-0.51 1.9,-0.29 3.22,-1.39l-2.45 -2.27 -0.77 3.67z"/>
   <path class="fil19" d="M520.27 377.36c-0.76,-1.67 -1.06,-1.73 -2.26,-3.16 -0.17,-0.2 -1.03,-1.29 -1.05,-1.31 -1.82,-1.75 -0.11,-0.59 -1.99,-1.05 1.2,2.33 3.13,3.84 5.31,5.52z"/>
  </g>
 </g>
</svg>
