<?xml version="1.0" encoding="UTF-8"?>
<!DOCTYPE svg PUBLIC "-//W3C//DTD SVG 1.1//EN" "http://www.w3.org/Graphics/SVG/1.1/DTD/svg11.dtd">
<!-- Creator: CorelDRAW -->
<svg xmlns="http://www.w3.org/2000/svg" xml:space="preserve" width="31.9891mm" height="31.3554mm" version="1.1" style="shape-rendering:geometricPrecision; text-rendering:geometricPrecision; image-rendering:optimizeQuality; fill-rule:evenodd; clip-rule:evenodd"
viewBox="0 0 618.26 606.01"
 xmlns:xlink="http://www.w3.org/1999/xlink"
 xmlns:xodm="http://www.corel.com/coreldraw/odm/2003">
 <defs>
  <style type="text/css">
   <![CDATA[
    .str0 {stroke:#FFCC00;stroke-width:3.87;stroke-miterlimit:22.9256}
    .fil1 {fill:none}
    .fil2 {fill:red}
    .fil4 {fill:#FFCC00}
    .fil0 {fill:#FFCC00}
    .fil3 {fill:#FFCC00;fill-rule:nonzero}
   ]]>
  </style>
 </defs>
 <g id="Camada_x0020_1">
  <metadata id="CorelCorpID_0Corel-Layer"/>
  <g id="_1271849257168">
   <polygon class="fil0" points="122.39,344.94 139.82,344.94 139.82,169.15 122.39,169.15 "/>
   <polygon class="fil0" points="502.86,344.51 520.28,344.51 520.28,168.72 502.86,168.72 "/>
   <path class="fil0" d="M370.43 171.34c25.2,58.05 50.4,116.11 75.6,174.16 1.18,-14.25 2.35,-28.5 3.53,-42.75 -19.43,-43.8 -38.86,-87.61 -58.29,-131.41 -6.95,0 -13.9,0 -20.84,0z"/>
   <path class="fil0" d="M369.68 351.57l1.17 0c0.24,0 0.43,-0.19 0.43,-0.43l0 -179.39c0,-0.24 -0.19,-0.43 -0.43,-0.43l-1.17 0c-0.24,0 -0.43,0.2 -0.43,0.43l0 179.39c0,0.24 0.19,0.43 0.43,0.43z"/>
   <path class="fil0" d="M193.83 341.46c6.62,-3.19 13.24,-6.39 19.63,-11.24 6.39,-4.85 12.55,-11.35 17.97,-20.6 5.42,-9.24 10.1,-21.23 12.55,-33.15 2.45,-11.92 2.68,-23.79 1.6,-34.01 -1.08,-10.21 -3.48,-18.77 -7.19,-26.65 -3.71,-7.88 -8.73,-15.06 -13.64,-20.48 -4.91,-5.42 -9.7,-9.07 -15.45,-12.53 -5.75,-3.46 -12.47,-6.71 -19.18,-9.97 7.07,0.98 14.15,1.96 20.7,4.27 6.55,2.31 12.59,5.96 18.85,11.15 6.27,5.19 12.78,11.92 18.31,20.54 5.54,8.62 10.1,19.11 13.01,28.64 2.91,9.53 4.17,18.09 3.82,27.04 -0.34,8.96 -2.28,18.32 -5.36,26.65 -3.08,8.33 -7.3,15.63 -12.61,21.68 -5.31,6.05 -11.7,10.84 -17.52,14.72 -5.82,3.88 -11.07,6.85 -16.89,9.02 -5.82,2.17 -12.21,3.54 -18.6,4.91z"/>
   <path class="fil1 str0" d="M400.83 516.12l-77.51 -203.14m-22.97 -60.22l-74.05 -194.07"/>
   <path class="fil2" d="M308.24 268.82c-0.18,-0.13 -1.31,-1.72 -1.72,-2.13 -1.97,-1.95 -4.4,-3.39 -7.17,-3.92 -1.07,-0.2 -2.15,-0.37 -3.25,-0.28 -3.3,0.29 -5.77,1.21 -8.33,3.3 -2.85,2.33 -4.58,6.2 -4.73,9.83l0.01 1.42c0.27,2.03 0.14,1.82 0.68,4.01 0.33,1.33 0.81,2.51 1.31,3.82l0.53 1.22c0.4,0.95 1.42,2.64 1.97,3.51 0.26,0.4 0.48,0.77 0.73,1.14 1.16,1.66 1.94,2.45 3.06,3.87 1.27,1.61 3.76,3.74 5.37,5.05l1.88 1.47c1.32,0.97 2.72,1.86 4.09,2.76 0.98,0.64 2.02,1.15 2.98,1.7 1.18,0.69 2.55,1.32 3.85,1.9 0.26,0.12 0.55,-0.17 0.77,-0.31 0.31,-0.19 0.49,-0.26 0.78,-0.44l2.97 -1.84c0.51,-0.35 0.95,-0.65 1.46,-0.99 1.69,-1.13 3.42,-2.44 4.94,-3.82 0.25,-0.22 0.46,-0.39 0.71,-0.62 0.24,-0.22 0.39,-0.31 0.66,-0.6 0.85,-0.9 1.88,-1.7 2.66,-2.66 0.83,-1.02 1.76,-1.92 2.54,-2.97l1.8 -2.57c0.43,-0.68 0.72,-1.1 1.13,-1.85 1.24,-2.27 2.49,-4.92 3.13,-7.43 0.33,-1.3 0.64,-2.63 0.76,-3.97 0.12,-1.25 0.16,-2.48 0.03,-3.74l-0.25 -1.45c-0.22,-1.21 -0.77,-2.45 -1.36,-3.51 -0.54,-0.96 -1.17,-1.89 -1.91,-2.7 -0.73,-0.81 -1.51,-1.4 -2.38,-2.05 -1.45,-1.09 -3.5,-1.8 -5.28,-2.15 -0.99,-0.2 -2.13,-0.27 -3.09,-0.19 -1.35,0.12 -2.68,0.32 -3.96,0.81 -1.09,0.42 -2.04,0.93 -3.02,1.55 -1.8,1.15 -3.16,2.67 -4.33,4.79z"/>
   <path class="fil1 str0" d="M448.54 309c1.05,-11.17 2.09,-22.35 3.7,-34.33 1.6,-11.98 3.76,-24.75 6.95,-36.38 3.19,-11.63 7.43,-22.1 11.96,-30.9 4.53,-8.8 9.36,-15.93 14.97,-21.25 5.61,-5.31 12,-8.8 18.39,-12.29"/>
   <path class="fil1 str0" d="M138.02 344.94c7.77,0.51 15.54,1.03 22.69,1.13 7.14,0.1 13.65,-0.21 20.63,-1.4 6.98,-1.19 14.43,-3.26 21.89,-5.33"/>
   <path class="fil1 str0" d="M137.87 169.79c4.63,-0.49 9.26,-0.98 13.57,-1.22 4.31,-0.24 8.31,-0.23 13.3,0.11 4.98,0.33 10.95,0.99 16.24,1.96 5.28,0.97 9.88,2.26 14.48,3.54"/>
   <path class="fil3" d="M113.15 108.65c1.3,-1.27 2.26,-2.64 2.9,-4.11 0.63,-1.47 0.93,-2.97 0.92,-4.51 -0.02,-1.54 -0.34,-3.04 -0.97,-4.51 -0.64,-1.47 -1.56,-2.84 -2.77,-4.11 -0.45,-0.48 -1.08,-1.06 -1.9,-1.75 -5.32,-4.04 -10.24,-3.91 -14.74,0.38 -0.07,0.07 -0.17,0.18 -0.32,0.33 -0.14,0.15 -0.24,0.26 -0.33,0.34l17.21 17.94zm-20.9 -18.08l3 -2.86c1.02,-0.97 2.16,-1.8 3.41,-2.48 1.26,-0.68 2.65,-1.12 4.18,-1.31 1.53,-0.19 3.2,-0.01 5.01,0.57 1.8,0.58 3.66,1.66 5.57,3.23 0.71,0.58 1.39,1.21 2.04,1.9 1.67,1.75 2.86,3.57 3.59,5.48 0.73,1.9 1.05,3.75 0.95,5.56 -0.09,1.81 -0.49,3.47 -1.21,5 -0.71,1.53 -1.62,2.83 -2.74,3.89l-3 2.86 -20.82 -21.83zm31.97 -24.17l2.28 2.91 3.7 -2.91 -2.29 -2.91c-0.28,-0.36 -0.68,-0.49 -1.19,-0.39 -0.51,0.09 -1.01,0.34 -1.52,0.73 -0.52,0.41 -0.89,0.85 -1.09,1.32 -0.21,0.48 -0.18,0.89 0.1,1.25zm16.45 20.94l-2.09 1.64 -12.53 -15.94 -1.07 0.84 -2.3 -1.57 1.74 -1.37 -2.28 -2.91c-0.6,-0.77 -0.9,-1.55 -0.9,-2.35 0,-0.81 0.21,-1.56 0.64,-2.24 0.43,-0.69 0.97,-1.29 1.63,-1.8 1.08,-0.84 2.21,-1.31 3.39,-1.41 1.19,-0.1 2.24,0.43 3.15,1.59l16.45 20.94 -2.12 1.66 -12.53 -15.94 -3.7 2.91 12.53 15.94zm14.57 -35.07l11.12 17.34 -2.27 1.45 -11.11 -17.34 -10.25 -4.8 2.71 -1.74 7.08 3.3 -0.08 -7.79 2.64 -1.69 0.15 11.27zm21.34 -18.69l1.69 3.29 4.19 -2.15 -1.69 -3.29c-0.21,-0.41 -0.57,-0.61 -1.09,-0.62 -0.52,-0.01 -1.06,0.14 -1.63,0.43 -0.59,0.3 -1.03,0.66 -1.33,1.09 -0.3,0.43 -0.35,0.84 -0.14,1.24zm12.14 23.7l-2.36 1.21 -9.24 -18.04 -1.22 0.62 -1.96 -1.98 1.97 -1.01 -1.69 -3.29c-0.44,-0.86 -0.59,-1.69 -0.43,-2.48 0.16,-0.8 0.51,-1.49 1.06,-2.08 0.55,-0.59 1.2,-1.08 1.94,-1.46 1.22,-0.62 2.42,-0.87 3.6,-0.74 1.18,0.13 2.11,0.86 2.78,2.17l12.14 23.7 -2.4 1.23 -9.24 -18.04 -4.19 2.15 9.24 18.04zm23.16 -10.19l-2.51 0.85 -9.72 -28.73 9.2 1.47 -1.34 -3.96 2.51 -0.85 9.67 28.58 -2.51 0.85 -7.37 -21.79 -6.24 -0.99 8.31 24.57zm20.38 -30.52l4.99 -1.42 1.69 2.28 -5.95 1.69 4.81 16.95 5.07 -1.44 0.72 2.55 -7.55 2.14 -5.54 -19.5 -1.32 0.37 -1.54 -2.32 2.13 -0.6 -1.98 -6.96 7.55 -2.14 0.7 2.48 -5.07 1.44 1.28 4.49zm53.8 -8.95l5.17 -0.39 1.2 2.57 -6.17 0.47 1.34 17.57 5.25 -0.4 0.2 2.65 -7.82 0.6 -1.54 -20.21 -1.36 0.1 -1.04 -2.58 2.21 -0.17 -0.55 -7.22 7.82 -0.59 0.2 2.57 -5.26 0.4 0.35 4.65zm59.26 4.44l5.8 -9.56 1.98 30.66 -2.75 -0.35 -1.33 -21.78 -4.33 6.01 -2.93 -6.93 -6.15 20.83 -2.71 -0.34 8.71 -29.3 3.71 10.76zm26.32 25.24l-2.51 -0.58 6.78 -29.39 2.51 0.58 -6.78 29.39zm40.81 6.64c1.5,-0.71 2.83,-1.67 3.99,-2.87 1.17,-1.2 2.06,-2.59 2.67,-4.16 0.85,-2.14 1.09,-4.35 0.73,-6.6 -0.36,-2.25 -1.25,-4.28 -2.66,-6.06 -1.42,-1.79 -3.2,-3.11 -5.35,-3.96 -2.16,-0.85 -4.36,-1.11 -6.61,-0.76 -2.25,0.34 -4.28,1.21 -6.06,2.62 -1.79,1.41 -3.11,3.19 -3.95,5.32 -0.84,2.14 -1.09,4.35 -0.75,6.62 0.34,2.27 1.21,4.3 2.62,6.1 1.41,1.8 3.19,3.12 5.34,3.97 2.53,1 5.1,1.18 7.71,0.52l-3.53 -6.62 2.2 -1.09 3.66 6.94zm-0.98 3.15c-1.62,0.48 -3.28,0.69 -5.01,0.63 -1.73,-0.05 -3.41,-0.4 -5.04,-1.04 -2.61,-1.03 -4.78,-2.63 -6.48,-4.81 -1.71,-2.17 -2.77,-4.63 -3.19,-7.37 -0.43,-2.74 -0.12,-5.41 0.9,-8.01 0.78,-1.97 1.89,-3.69 3.33,-5.16 1.44,-1.47 3.09,-2.62 4.96,-3.45 1.87,-0.82 3.83,-1.26 5.89,-1.31 2.05,-0.06 4.07,0.3 6.04,1.08 2.61,1.03 4.76,2.63 6.47,4.81 1.7,2.19 2.76,4.64 3.17,7.38 0.41,2.74 0.1,5.43 -0.94,8.06 -0.74,1.86 -1.77,3.51 -3.1,4.92 -1.33,1.41 -2.89,2.59 -4.68,3.51l2.48 4.61c-0.36,0.17 -0.79,0.39 -1.33,0.64 -0.54,0.25 -0.82,0.38 -0.85,0.37l-2.62 -4.85zm22.38 9.2c-0.26,0.49 -0.2,1.01 0.17,1.52 0.36,0.53 0.88,0.99 1.55,1.38 0.73,0.33 1.42,0.49 2.06,0.48 0.64,-0.01 1.08,-0.26 1.34,-0.76l11.96 -23.35 2.36 1.21 -11.96 23.35c-0.42,0.82 -1.01,1.41 -1.78,1.78 -0.77,0.36 -1.6,0.5 -2.5,0.42 -0.91,-0.08 -1.77,-0.33 -2.61,-0.76 -0.84,-0.43 -1.56,-0.99 -2.16,-1.68 -0.6,-0.69 -0.98,-1.45 -1.13,-2.28 -0.15,-0.84 -0.01,-1.66 0.4,-2.48l11.96 -23.35 2.29 1.17 -11.96 23.35zm34 -2.26l4.37 2.8 -0.59 2.77 -5.21 -3.34 -9.51 14.83 4.44 2.84 -1.43 2.23 -6.6 -4.23 10.94 -17.07 -1.15 -0.74 0.72 -2.69 1.86 1.19 3.91 -6.09 6.6 4.23 -1.39 2.17 -4.44 -2.84 -2.52 3.93zm25.16 13.33l-2.29 2.91 3.7 2.91 2.29 -2.91c0.28,-0.36 0.32,-0.77 0.1,-1.25 -0.21,-0.47 -0.57,-0.91 -1.07,-1.3 -0.52,-0.41 -1.04,-0.66 -1.54,-0.75 -0.51,-0.1 -0.91,0.04 -1.19,0.4zm-16.45 20.94l-2.09 -1.64 12.53 -15.94 -1.07 -0.84 0.98 -2.61 1.74 1.37 2.29 -2.91c0.6,-0.77 1.29,-1.24 2.07,-1.43 0.79,-0.19 1.57,-0.16 2.33,0.09 0.77,0.26 1.48,0.64 2.14,1.16 1.07,0.85 1.8,1.83 2.17,2.96 0.37,1.13 0.11,2.27 -0.81,3.43l-16.45 20.94 -2.12 -1.67 12.53 -15.94 -3.7 -2.91 -12.53 15.94zm34.09 2.5l-3.87 12.21c-0.49,1.57 -1.16,2.8 -2.01,3.69 -1.18,1.24 -2.58,1.72 -4.2,1.46 -1.62,-0.26 -3.19,-1.12 -4.7,-2.56l-2.68 -2.55 1.83 -1.92 2.74 2.61c2.04,1.94 3.68,2.26 4.92,0.96 0.76,-0.79 1.39,-2.06 1.9,-3.8l3.95 -12.13c0.31,-0.92 0.9,-1.91 1.78,-2.97 1.16,-1.15 2.44,-1.84 3.82,-2.05 1.38,-0.22 2.67,0.25 3.87,1.39l2.56 2.44 -1.84 1.93 -1.84 -1.87c-0.67,-0.64 -1.43,-0.99 -2.27,-1.04 -0.84,-0.05 -1.61,0.23 -2.31,0.84 -0.33,0.38 -0.61,0.82 -0.84,1.29 -0.23,0.49 -0.43,0.95 -0.59,1.41 -0.17,0.46 -0.24,0.68 -0.22,0.66z"/>
   <path class="fil1 str0" d="M527.43 481.17c7.01,-11.23 14.01,-22.46 20.86,-33.89 6.85,-11.43 13.53,-23.07 19,-35.66 5.47,-12.6 9.72,-26.15 13.37,-40.98 3.66,-14.83 6.72,-30.94 8.6,-43.68 1.87,-12.74 2.56,-22.11 3.24,-31.49"/>
   <path class="fil4" d="M591.19 311.24c-1.79,-4.66 -3.58,-9.33 -4.58,-14.37 -1.01,-5.04 -1.23,-10.45 -0.65,-14.54 0.58,-4.09 1.96,-6.85 4.37,-8.87 2.4,-2.02 5.83,-3.29 8.67,-2.6 2.84,0.69 5.11,3.34 5.89,7.04 0.77,3.7 0.05,8.45 -1.55,13.21 -1.6,4.75 -4.09,9.5 -6.26,12.86 -2.17,3.35 -4.03,5.31 -5.89,7.27z"/>
   <path class="fil4" d="M587.94 335.25c-1.98,-2.73 -3.97,-5.45 -7.08,-8.79 -3.11,-3.35 -7.36,-7.31 -10.81,-10.15 -3.45,-2.84 -6.11,-4.57 -8.44,-5.69 -2.33,-1.12 -4.34,-1.63 -5.74,-1.33 -1.4,0.3 -2.19,1.42 -1.98,3.57 0.21,2.15 1.42,5.32 4.1,8.39 2.68,3.08 6.83,6.06 10.59,8.21 3.75,2.15 7.11,3.45 10.27,4.28 3.16,0.83 6.12,1.17 9.09,1.52z"/>
   <path class="fil4" d="M580.53 368.15c-1.3,-3.11 -2.61,-6.22 -4.87,-10.19 -2.26,-3.97 -5.48,-8.81 -8.18,-12.37 -2.7,-3.56 -4.89,-5.85 -6.9,-7.48 -2.01,-1.63 -3.84,-2.59 -5.28,-2.61 -1.43,-0.03 -2.46,0.88 -2.75,3.02 -0.29,2.14 0.16,5.5 2.06,9.11 1.9,3.61 5.25,7.47 8.41,10.43 3.16,2.95 6.13,5 9.01,6.53 2.89,1.53 5.69,2.55 8.49,3.57z"/>
   <path class="fil4" d="M572.33 400.06c-2.07,-2.66 -4.15,-5.31 -7.37,-8.55 -3.22,-3.24 -7.6,-7.06 -11.14,-9.79 -3.54,-2.73 -6.26,-4.37 -8.63,-5.41 -2.37,-1.04 -4.39,-1.49 -5.78,-1.14 -1.39,0.35 -2.14,1.49 -1.86,3.63 0.28,2.14 1.6,5.26 4.38,8.25 2.78,2.99 7.03,5.83 10.85,7.85 3.82,2.02 7.22,3.21 10.41,3.94 3.19,0.72 6.16,0.97 9.13,1.21z"/>
   <path class="fil4" d="M557.54 431.36c-0.74,-2.1 -1.47,-4.21 -2.81,-6.92 -1.33,-2.71 -3.27,-6.03 -4.91,-8.5 -1.64,-2.46 -3,-4.06 -4.26,-5.21 -1.26,-1.16 -2.44,-1.86 -3.38,-1.94 -0.95,-0.08 -1.66,0.48 -1.94,1.88 -0.28,1.4 -0.11,3.64 1,6.1 1.11,2.46 3.17,5.14 5.14,7.22 1.97,2.08 3.85,3.54 5.69,4.67 1.84,1.13 3.66,1.91 5.47,2.7z"/>
   <path class="fil4" d="M541.36 458.88c-0.74,-2.11 -1.47,-4.21 -2.81,-6.92 -1.34,-2.71 -3.27,-6.03 -4.91,-8.49 -1.64,-2.46 -3,-4.06 -4.26,-5.22 -1.26,-1.15 -2.44,-1.86 -3.38,-1.94 -0.95,-0.08 -1.66,0.48 -1.94,1.88 -0.28,1.4 -0.11,3.64 1,6.1 1.11,2.46 3.17,5.14 5.14,7.22 1.97,2.08 3.85,3.54 5.69,4.67 1.85,1.13 3.66,1.91 5.47,2.7z"/>
   <path class="fil4" d="M541.86 458.59c2.18,-0.46 4.36,-0.92 7.38,-1.18 3.01,-0.26 6.85,-0.33 9.81,-0.2 2.96,0.13 5.03,0.46 6.67,0.94 1.64,0.48 2.85,1.12 3.41,1.89 0.55,0.77 0.45,1.67 -0.61,2.63 -1.05,0.96 -3.05,1.98 -5.74,2.31 -2.68,0.32 -6.04,-0.05 -8.84,-0.66 -2.79,-0.61 -5.02,-1.46 -6.94,-2.45 -1.92,-1 -3.53,-2.14 -5.14,-3.28z"/>
   <path class="fil4" d="M556.14 434.01c1.98,-1.04 3.95,-2.07 6.78,-3.14 2.83,-1.07 6.51,-2.18 9.39,-2.86 2.88,-0.68 4.96,-0.92 6.68,-0.9 1.71,0.02 3.05,0.3 3.79,0.89 0.74,0.59 0.89,1.49 0.13,2.7 -0.75,1.21 -2.4,2.74 -4.89,3.78 -2.49,1.04 -5.83,1.6 -8.69,1.77 -2.86,0.17 -5.23,-0.03 -7.35,-0.47 -2.12,-0.43 -3.98,-1.1 -5.84,-1.76z"/>
   <path class="fil4" d="M568.31 409.93c1.98,-1.04 3.95,-2.07 6.78,-3.15 2.83,-1.07 6.51,-2.18 9.39,-2.86 2.88,-0.68 4.96,-0.92 6.68,-0.91 1.71,0.02 3.05,0.3 3.79,0.89 0.74,0.59 0.89,1.49 0.13,2.7 -0.75,1.21 -2.4,2.74 -4.89,3.78 -2.49,1.04 -5.83,1.6 -8.69,1.77 -2.86,0.18 -5.23,-0.03 -7.35,-0.47 -2.12,-0.43 -3.98,-1.1 -5.84,-1.76z"/>
   <path class="fil4" d="M578 381.12c2.36,-1.6 4.71,-3.19 8.14,-4.96 3.43,-1.77 7.93,-3.7 11.49,-4.98 3.56,-1.27 6.16,-1.89 8.33,-2.11 2.17,-0.22 3.91,-0.06 4.94,0.58 1.03,0.64 1.34,1.75 0.56,3.4 -0.78,1.64 -2.65,3.82 -5.66,5.5 -3.01,1.68 -7.16,2.86 -10.76,3.5 -3.59,0.63 -6.64,0.71 -9.38,0.46 -2.75,-0.25 -5.2,-0.82 -7.65,-1.39z"/>
   <path class="fil4" d="M586.95 342.08c1.99,-2.04 3.97,-4.07 6.98,-6.49 3.01,-2.42 7.03,-5.22 10.26,-7.18 3.23,-1.96 5.66,-3.08 7.74,-3.73 2.08,-0.65 3.82,-0.84 4.95,-0.42 1.13,0.42 1.66,1.45 1.23,3.22 -0.43,1.77 -1.83,4.27 -4.44,6.52 -2.61,2.25 -6.44,4.24 -9.84,5.58 -3.4,1.34 -6.36,2.03 -9.1,2.33 -2.74,0.31 -5.26,0.24 -7.78,0.17z"/>
   <path class="fil1 str0" d="M90.83 478.8c-7.01,-11.23 -14.01,-22.46 -20.86,-33.89 -6.85,-11.43 -13.53,-23.07 -19,-35.67 -5.47,-12.59 -9.72,-26.15 -13.37,-40.98 -3.66,-14.83 -6.72,-30.94 -8.6,-43.68 -1.87,-12.74 -2.56,-22.11 -3.24,-31.49"/>
   <path class="fil4" d="M27.07 308.87c1.79,-4.66 3.58,-9.33 4.58,-14.37 1.01,-5.04 1.23,-10.45 0.65,-14.54 -0.58,-4.09 -1.96,-6.85 -4.36,-8.87 -2.4,-2.02 -5.83,-3.29 -8.67,-2.6 -2.85,0.69 -5.11,3.34 -5.89,7.04 -0.77,3.7 -0.05,8.45 1.55,13.21 1.6,4.75 4.09,9.5 6.26,12.86 2.17,3.36 4.03,5.31 5.89,7.27z"/>
   <path class="fil4" d="M30.32 332.87c1.98,-2.73 3.97,-5.45 7.08,-8.79 3.11,-3.35 7.36,-7.31 10.81,-10.15 3.45,-2.84 6.11,-4.57 8.44,-5.69 2.33,-1.12 4.34,-1.63 5.74,-1.33 1.4,0.3 2.19,1.42 1.98,3.57 -0.21,2.15 -1.42,5.32 -4.1,8.39 -2.68,3.08 -6.83,6.06 -10.59,8.21 -3.75,2.15 -7.11,3.45 -10.27,4.28 -3.16,0.83 -6.12,1.17 -9.09,1.52z"/>
   <path class="fil4" d="M37.73 365.78c1.3,-3.11 2.61,-6.22 4.87,-10.19 2.26,-3.97 5.48,-8.81 8.18,-12.37 2.7,-3.56 4.89,-5.85 6.9,-7.48 2.01,-1.63 3.84,-2.59 5.28,-2.61 1.43,-0.03 2.46,0.88 2.75,3.02 0.29,2.14 -0.16,5.5 -2.06,9.11 -1.9,3.61 -5.25,7.47 -8.41,10.43 -3.16,2.95 -6.12,5 -9.01,6.53 -2.89,1.53 -5.69,2.55 -8.49,3.57z"/>
   <path class="fil4" d="M45.94 397.68c2.07,-2.66 4.15,-5.31 7.37,-8.55 3.22,-3.24 7.6,-7.06 11.14,-9.79 3.54,-2.73 6.26,-4.37 8.63,-5.41 2.37,-1.04 4.39,-1.49 5.78,-1.14 1.39,0.35 2.14,1.49 1.86,3.63 -0.28,2.14 -1.6,5.27 -4.38,8.25 -2.78,2.99 -7.03,5.83 -10.85,7.85 -3.82,2.02 -7.22,3.21 -10.41,3.93 -3.19,0.72 -6.16,0.97 -9.13,1.22z"/>
   <path class="fil4" d="M60.72 428.99c0.74,-2.1 1.47,-4.21 2.81,-6.92 1.34,-2.71 3.27,-6.03 4.91,-8.49 1.64,-2.46 3,-4.06 4.26,-5.22 1.26,-1.15 2.44,-1.86 3.38,-1.94 0.95,-0.08 1.66,0.48 1.94,1.88 0.28,1.4 0.11,3.64 -1,6.1 -1.11,2.46 -3.17,5.14 -5.14,7.22 -1.97,2.08 -3.85,3.54 -5.69,4.67 -1.85,1.13 -3.66,1.91 -5.47,2.7z"/>
   <path class="fil4" d="M76.9 456.51c0.74,-2.1 1.47,-4.21 2.81,-6.92 1.34,-2.71 3.27,-6.04 4.91,-8.5 1.64,-2.46 3,-4.06 4.26,-5.22 1.26,-1.15 2.44,-1.86 3.38,-1.93 0.95,-0.08 1.66,0.48 1.94,1.88 0.28,1.4 0.11,3.64 -1,6.1 -1.11,2.46 -3.17,5.14 -5.14,7.22 -1.97,2.07 -3.85,3.54 -5.69,4.67 -1.84,1.13 -3.66,1.91 -5.47,2.7z"/>
   <path class="fil4" d="M76.4 456.21c-2.18,-0.46 -4.36,-0.92 -7.38,-1.18 -3.01,-0.26 -6.86,-0.33 -9.81,-0.2 -2.96,0.13 -5.03,0.46 -6.67,0.95 -1.64,0.48 -2.85,1.12 -3.41,1.89 -0.55,0.77 -0.45,1.67 0.61,2.63 1.05,0.96 3.06,1.98 5.74,2.31 2.68,0.32 6.05,-0.05 8.84,-0.66 2.8,-0.61 5.03,-1.46 6.94,-2.45 1.92,-0.99 3.53,-2.14 5.14,-3.28z"/>
   <path class="fil4" d="M62.12 431.63c-1.98,-1.04 -3.95,-2.07 -6.78,-3.14 -2.83,-1.07 -6.51,-2.18 -9.39,-2.86 -2.88,-0.68 -4.97,-0.92 -6.68,-0.91 -1.71,0.02 -3.05,0.3 -3.79,0.89 -0.74,0.59 -0.88,1.49 -0.13,2.7 0.75,1.21 2.4,2.74 4.89,3.78 2.49,1.04 5.83,1.6 8.69,1.77 2.85,0.17 5.23,-0.03 7.35,-0.47 2.12,-0.43 3.98,-1.1 5.84,-1.76z"/>
   <path class="fil4" d="M49.94 407.56c-1.98,-1.04 -3.95,-2.07 -6.78,-3.15 -2.83,-1.07 -6.51,-2.18 -9.39,-2.86 -2.88,-0.68 -4.96,-0.92 -6.68,-0.9 -1.71,0.02 -3.05,0.3 -3.79,0.89 -0.74,0.59 -0.88,1.49 -0.13,2.7 0.75,1.21 2.4,2.74 4.89,3.78 2.49,1.04 5.83,1.6 8.69,1.77 2.86,0.17 5.23,-0.03 7.35,-0.47 2.12,-0.43 3.98,-1.1 5.84,-1.76z"/>
   <path class="fil4" d="M40.26 378.74c-2.35,-1.6 -4.71,-3.19 -8.14,-4.96 -3.43,-1.77 -7.93,-3.71 -11.49,-4.98 -3.55,-1.27 -6.16,-1.89 -8.33,-2.11 -2.17,-0.22 -3.91,-0.06 -4.94,0.58 -1.02,0.64 -1.33,1.75 -0.55,3.4 0.78,1.64 2.65,3.82 5.66,5.5 3.01,1.68 7.16,2.86 10.76,3.5 3.59,0.63 6.64,0.71 9.38,0.46 2.75,-0.25 5.2,-0.82 7.65,-1.39z"/>
   <path class="fil4" d="M31.31 339.7c-1.99,-2.04 -3.97,-4.07 -6.98,-6.49 -3.01,-2.42 -7.03,-5.22 -10.26,-7.18 -3.23,-1.96 -5.66,-3.08 -7.74,-3.73 -2.08,-0.65 -3.82,-0.84 -4.95,-0.42 -1.13,0.42 -1.66,1.45 -1.23,3.22 0.43,1.77 1.83,4.27 4.44,6.52 2.61,2.25 6.44,4.24 9.84,5.58 3.4,1.34 6.36,2.03 9.1,2.33 2.74,0.31 5.26,0.24 7.78,0.17z"/>
   <path class="fil3" d="M216.47 575.78c-1.6,-0.55 -2.94,-1.47 -4.01,-2.74 -1.08,-1.28 -1.8,-2.74 -2.15,-4.39 -0.36,-1.65 -0.32,-3.29 0.12,-4.91 0.46,-1.19 1.12,-2.27 1.98,-3.22 0.86,-0.95 1.85,-1.72 3,-2.3 1.14,-0.57 2.35,-0.91 3.63,-1.01 1.28,-0.1 2.55,0.08 3.81,0.52 1.56,0.54 2.87,1.45 3.96,2.74 1.08,1.29 1.79,2.76 2.14,4.41 0.34,1.65 0.24,3.25 -0.3,4.8 -0.52,1.49 -1.47,2.79 -2.86,3.91l-15.95 12.8 11.69 4.06 -0.96 2.78 -16.53 -5.74 19.4 -15.56c1.27,-1.02 2.11,-2.15 2.53,-3.36 0.36,-1.03 0.41,-2.1 0.16,-3.21 -0.26,-1.11 -0.77,-2.1 -1.52,-2.96 -0.75,-0.87 -1.64,-1.47 -2.65,-1.82 -1.06,-0.37 -2.2,-0.42 -3.39,-0.14 -1.2,0.27 -2.29,0.79 -3.25,1.55 -0.96,0.77 -1.67,1.67 -2.1,2.71 -0.35,1.19 -0.35,2.4 -0.01,3.63 0.34,1.23 0.94,2.34 1.79,3.32 0.86,0.99 1.83,1.73 2.95,2.23 0.24,0.02 0.48,0.07 0.7,0.15l-2.16 1.75zm21.6 -3.97c1.7,0.89 3.15,2.02 4.37,3.37 1.22,1.35 2.08,2.91 2.57,4.65 0.49,1.75 0.51,3.6 0.06,5.56 -0.61,2.51 -1.66,4.67 -3.15,6.5 -1.49,1.83 -3.28,3.12 -5.37,3.88 -2.09,0.76 -4.3,0.87 -6.61,0.34 -1.86,-0.43 -3.65,-1.18 -5.37,-2.25l1.4 -2.51c0.44,0.22 0.95,0.49 1.54,0.8 0.58,0.31 1.11,0.55 1.56,0.7 0.46,0.16 1.05,0.33 1.78,0.49 1.25,0.29 2.48,0.26 3.69,-0.09 1.21,-0.35 2.32,-0.94 3.34,-1.79 1.03,-0.84 1.9,-1.86 2.61,-3.02 0.72,-1.17 1.22,-2.4 1.52,-3.68 0.63,-2.75 0.1,-5.13 -1.59,-7.14 -1.69,-2.01 -4.03,-3.6 -7,-4.75l5.98 -6.3 -6.16 -1.42 0.66 -2.86 11.46 2.65 -7.29 6.86zm10.29 28.21c-0.82,-0.15 -1.47,-0.57 -1.96,-1.25 -0.49,-0.68 -0.66,-1.44 -0.51,-2.27 0.15,-0.82 0.58,-1.46 1.28,-1.92 0.7,-0.46 1.47,-0.61 2.28,-0.46 0.82,0.15 1.47,0.57 1.94,1.24 0.48,0.68 0.64,1.43 0.49,2.26 -0.15,0.84 -0.58,1.49 -1.27,1.95 -0.69,0.46 -1.44,0.62 -2.26,0.47zm24.54 3.43l-2.83 -0.34 3.58 -29.52 -2.95 0.27 0.35 -2.87 5.87 -0.68 -4.02 33.15zm11.92 1.04l-2.84 -0.22 2.26 -29.65 -2.93 0.4 0.22 -2.89 5.83 -0.94 -2.53 33.29zm9.9 1.14c-0.83,-0.03 -1.54,-0.34 -2.13,-0.94 -0.59,-0.6 -0.87,-1.33 -0.84,-2.17 0.03,-0.83 0.35,-1.53 0.98,-2.09 0.63,-0.56 1.35,-0.83 2.19,-0.8 0.83,0.03 1.53,0.34 2.11,0.93 0.58,0.6 0.85,1.32 0.82,2.15 -0.03,0.85 -0.35,1.56 -0.96,2.12 -0.61,0.56 -1.33,0.83 -2.16,0.8zm27.23 -15.32c-1.69,0.13 -3.28,-0.17 -4.77,-0.91 -1.5,-0.74 -2.74,-1.79 -3.72,-3.16 -0.99,-1.37 -1.6,-2.89 -1.85,-4.55 -0.05,-1.28 0.12,-2.52 0.53,-3.74 0.41,-1.21 1.01,-2.32 1.83,-3.3 0.82,-0.98 1.79,-1.77 2.92,-2.37 1.13,-0.6 2.37,-0.95 3.7,-1.05 1.64,-0.13 3.21,0.19 4.72,0.94 1.51,0.75 2.74,1.81 3.72,3.19 0.97,1.38 1.51,2.88 1.64,4.52 0.12,1.58 -0.24,3.15 -1.07,4.73l-9.52 18.1 12.34 -0.94 0.22 2.93 -17.44 1.33 11.58 -22c0.75,-1.44 1.08,-2.81 0.98,-4.09 -0.08,-1.09 -0.46,-2.09 -1.14,-3 -0.68,-0.92 -1.54,-1.62 -2.57,-2.11 -1.04,-0.49 -2.09,-0.7 -3.16,-0.62 -1.12,0.09 -2.18,0.49 -3.17,1.22 -1,0.73 -1.78,1.64 -2.36,2.72 -0.58,1.09 -0.87,2.19 -0.84,3.32 0.15,1.23 0.64,2.34 1.44,3.33 0.8,1 1.79,1.77 2.97,2.33 1.18,0.56 2.37,0.85 3.59,0.87 0.23,-0.08 0.47,-0.13 0.7,-0.14l-1.29 2.46zm31.14 9.25c2.51,-0.31 4.77,-1.22 6.76,-2.73 1.99,-1.51 3.48,-3.41 4.47,-5.71 0.99,-2.29 1.34,-4.71 1.03,-7.22 -0.23,-1.91 -0.81,-3.66 -1.73,-5.27 -0.93,-1.61 -2.12,-2.98 -3.56,-4.12 -1.45,-1.14 -3.06,-1.96 -4.84,-2.47 -1.78,-0.51 -3.62,-0.65 -5.52,-0.42 -2.55,0.31 -4.83,1.22 -6.84,2.73 -2.01,1.52 -3.52,3.42 -4.52,5.73 -1.01,2.31 -1.36,4.72 -1.05,7.22 0.3,2.5 1.22,4.75 2.75,6.75 1.53,2 3.44,3.49 5.76,4.48 2.31,0.99 4.74,1.33 7.29,1.02zm0.26 2.97c-3.05,0.37 -5.96,-0.05 -8.75,-1.26 -2.78,-1.2 -5.1,-3.01 -6.93,-5.44 -1.83,-2.42 -2.93,-5.14 -3.3,-8.18 -0.37,-3.07 0.04,-6 1.24,-8.8 1.2,-2.81 3.01,-5.13 5.43,-6.96 2.41,-1.84 5.14,-2.94 8.19,-3.31 3.07,-0.37 6,0.04 8.8,1.25 2.81,1.2 5.13,3.02 6.96,5.46 1.84,2.43 2.95,5.18 3.32,8.24 0.37,3.03 -0.05,5.95 -1.26,8.73 -1.21,2.79 -3.03,5.11 -5.46,6.94 -2.43,1.84 -5.18,2.95 -8.24,3.32zm26.09 -21.03c-1.65,0.38 -3.27,0.33 -4.85,-0.17 -1.59,-0.5 -2.98,-1.35 -4.16,-2.56 -1.18,-1.2 -2.03,-2.61 -2.52,-4.22 -0.25,-1.25 -0.27,-2.51 -0.05,-3.78 0.22,-1.26 0.65,-2.44 1.31,-3.54 0.66,-1.09 1.5,-2.03 2.53,-2.79 1.02,-0.77 2.2,-1.3 3.5,-1.6 1.6,-0.37 3.21,-0.3 4.81,0.21 1.6,0.51 2.99,1.38 4.16,2.59 1.17,1.21 1.93,2.62 2.31,4.22 0.36,1.54 0.25,3.15 -0.34,4.83l-6.65 19.34 12.05 -2.81 0.67 2.86 -17.04 3.97 8.1 -23.51c0.53,-1.54 0.64,-2.95 0.35,-4.2 -0.25,-1.06 -0.78,-1.99 -1.58,-2.79 -0.81,-0.8 -1.77,-1.36 -2.86,-1.69 -1.1,-0.33 -2.17,-0.37 -3.21,-0.13 -1.1,0.26 -2.08,0.82 -2.94,1.69 -0.87,0.87 -1.51,1.89 -1.92,3.04 -0.41,1.16 -0.52,2.3 -0.32,3.41 0.34,1.19 0.99,2.21 1.93,3.08 0.95,0.86 2.04,1.47 3.29,1.85 1.25,0.38 2.47,0.48 3.68,0.31 0.22,-0.11 0.44,-0.2 0.67,-0.25l-0.9 2.63zm17.61 -0.33l5.78 -1.95 -3.59 -10.64 -2.19 12.59zm1.35 -24.23l7.21 21.34 3.24 -1.1 0.94 2.79 -3.24 1.09 2.54 7.51 -2.79 0.94 -2.54 -7.51 -10.37 3.5 5.01 -28.57z"/>
  </g>
 </g>
</svg>
