<?xml version="1.0" encoding="UTF-8"?>
<!DOCTYPE svg PUBLIC "-//W3C//DTD SVG 1.1//EN" "http://www.w3.org/Graphics/SVG/1.1/DTD/svg11.dtd">
<!-- Creator: CorelDRAW -->
<svg xmlns="http://www.w3.org/2000/svg" xml:space="preserve" width="42.8108mm" height="13.3675mm" version="1.1" style="shape-rendering:geometricPrecision; text-rendering:geometricPrecision; image-rendering:optimizeQuality; fill-rule:evenodd; clip-rule:evenodd"
viewBox="0 0 1531.75 478.28"
 xmlns:xlink="http://www.w3.org/1999/xlink"
 xmlns:xodm="http://www.corel.com/coreldraw/odm/2003">
 <defs>
  <style type="text/css">
   <![CDATA[
    .fil1 {fill:#231F20;fill-rule:nonzero}
    .fil0 {fill:#FAAF40;fill-rule:nonzero}
   ]]>
  </style>
 </defs>
 <g id="Camada_x0020_1">
  <metadata id="CorelCorpID_0Corel-Layer"/>
  <g id="Edificil_x0020_Gamboa.cdr">
   <path class="fil0" d="M227.05 381.37c-1.25,14.03 -4.93,26.91 -11.01,38.62 -6.08,11.7 -14.04,21.9 -23.86,30.66 -9.83,8.73 -21,15.53 -33.47,20.36 -12.49,4.83 -25.6,7.26 -39.33,7.26 -13.75,0 -26.69,-2.35 -38.86,-7.04 -12.16,-4.67 -23.02,-11.08 -32.54,-19.19 -9.52,-8.13 -17.39,-17.78 -23.64,-29.02 -6.25,-11.22 -10.3,-23.25 -12.17,-36.03l50.55 0c4.05,14.03 11.47,24.56 22.24,31.58 10.76,7.03 22.23,10.53 34.41,10.53 6.86,0 13.48,-1.09 19.89,-3.28 6.39,-2.19 12.25,-5.38 17.55,-9.6 5.3,-4.2 9.83,-9.44 13.58,-15.67 3.75,-6.24 6.08,-13.43 7.01,-21.55l0 -162.49c-7.48,-7.79 -15.83,-13.45 -25.03,-17.03 -9.21,-3.59 -18.49,-5.37 -27.84,-5.37 -9.36,0 -18.59,1.7 -27.63,5.13 -9.06,3.42 -17.08,8.4 -24.13,14.92 -7.01,6.54 -12.62,14.31 -16.84,23.33 -4.22,9.02 -6.33,19.15 -6.33,30.34 0,13.67 3.29,26.04 9.83,37.09 6.55,11.05 15.15,19.83 25.74,26.34l57.6 0 0 50.1 -68.35 0c-11.24,-5 -21.47,-11.39 -30.68,-19.2 -9.2,-7.81 -17.08,-16.61 -23.64,-26.44 -6.54,-9.83 -11.55,-20.52 -14.98,-32.08 -3.43,-11.55 -5.14,-23.55 -5.14,-36.04 0,-17.15 3.28,-33.25 9.81,-48.22 6.57,-14.97 15.45,-28.1 26.69,-39.33 11.24,-11.24 24.35,-20.05 39.34,-26.44 14.98,-6.41 31.04,-9.61 48.21,-9.61 12.49,0 24.42,1.72 35.8,5.14 11.41,3.44 21.69,8.6 30.92,15.46 9.18,6.87 17,15.3 23.39,25.28 6.41,9.98 10.84,21.53 13.34,34.63l-0.46 156.84z"/>
   <path class="fil0" d="M296.79 362.18c-9.05,-7.8 -16.84,-16.62 -23.39,-26.46 -6.57,-9.82 -11.55,-20.53 -14.99,-32.06 -3.44,-11.55 -5.16,-23.58 -5.16,-36.05 0,-17.16 3.21,-33.24 9.6,-48.23 6.41,-14.97 15.22,-28.09 26.46,-39.33 11.23,-11.23 24.34,-20.04 39.33,-26.43 14.97,-6.4 31.05,-9.6 48.22,-9.6 12.8,0 24.97,1.8 36.52,5.39 11.52,3.57 21.84,8.74 30.89,15.44 9.03,6.72 16.78,15.07 23.18,25.05 6.38,9.98 10.84,21.52 13.34,34.64l0 156.83 -50.55 0 0 -164.86c-14.38,-14.91 -32.16,-22.39 -53.38,-22.39 -10.3,0 -19.9,1.93 -28.8,5.83 -8.89,3.89 -16.69,9.16 -23.4,15.86 -6.71,6.68 -12.02,14.45 -15.93,23.31 -3.91,8.88 -5.84,18.45 -5.84,28.72 0,13.66 3.18,26.04 9.59,37.09 6.39,11.03 15.06,19.81 25.97,26.35l57.12 0 0 50.1 -68.35 0c-11.23,-5 -21.37,-11.41 -30.44,-19.19z"/>
   <path class="fil0" d="M723.61 143.08c13.43,0 25.54,2.57 36.32,7.72 10.79,5.14 20.1,12.1 27.91,20.83 7.8,8.75 13.82,18.97 18.04,30.67 4.22,11.7 6.34,24.27 6.34,37.69l0 141.39 -50.57 0 0 -141.39c0,-13.11 -3.11,-24.19 -9.31,-33.24 -6.19,-9.05 -15.81,-13.56 -28.84,-13.56 -13.05,0 -23.12,4.51 -30.26,13.56 -7.13,9.05 -10.69,20.13 -10.69,33.24l0 141.39 -50.55 0 0 -141.39c0,-13.11 -3.15,-24.19 -9.38,-33.24 -6.24,-9.05 -15.91,-13.56 -29.02,-13.56 -13.11,0 -23.25,4.51 -30.43,13.56 -7.17,9.05 -10.77,20.13 -10.77,33.24 -0.29,23.41 -0.39,46.89 -0.21,70.44 0.13,23.59 0.21,47.23 0.21,70.95l-50.55 0 0 -141.39c0,-13.42 2.35,-26.05 7.04,-37.92 4.69,-11.86 11.08,-22.14 19.21,-30.91 8.13,-8.73 17.83,-15.59 29.07,-20.59 11.26,-4.99 23.46,-7.5 36.57,-7.5 13.15,0 25.17,2.5 36.12,7.5 10.95,5 20.31,12.01 28.13,21.06 8.11,-9.05 17.73,-16.06 28.83,-21.06 11.1,-4.99 23.36,-7.5 36.81,-7.5z"/>
   <path class="fil0" d="M837.49 331.27l101.59 0c9.36,0 18.25,-1.78 26.67,-5.37 8.44,-3.6 15.69,-8.5 21.78,-14.74 6.08,-6.25 10.92,-13.58 14.52,-22.02 3.57,-8.42 5.38,-17.31 5.38,-26.67 0,-8.75 -1.64,-17.1 -4.92,-25.05 -3.27,-7.95 -7.73,-15 -13.34,-21.08 -5.63,-6.08 -12.27,-10.92 -19.9,-14.52 -7.66,-3.57 -15.85,-5.38 -24.59,-5.38 -13.09,0 -24.73,3.6 -34.86,10.79 -10.14,7.17 -17.39,16.53 -21.78,28.08 -2.84,6.87 -4.25,13.89 -4.25,21.07 0,7.17 1.18,14.03 3.52,20.59 2.37,6.55 5.73,12.65 10.09,18.25 4.38,5.63 9.85,10.3 16.39,14.07l-59.28 0c-10.72,-16.23 -16.39,-34.49 -17.02,-54.79l0 -202.72 50.55 0 0 109.09c17.17,-10.61 34.72,-15.77 52.66,-15.45 17.96,0.3 34.66,4.67 50.1,13.11 15.45,8.42 28.63,20.13 39.57,35.11 10.92,14.97 17.78,31.99 20.59,51.03 1.87,12.17 1.87,24.19 0,36.05 -1.86,11.86 -5.38,23.1 -10.53,33.71 -5.16,10.61 -11.88,20.36 -20.12,29.25 -8.29,8.89 -17.74,16.32 -28.34,22.24 -8.13,4.67 -16.92,8.34 -26.44,10.99 -9.52,2.68 -19.44,4.15 -29.72,4.46l-98.31 0 0 -50.1z"/>
   <path class="fil0" d="M1176.89 194.58c-8.44,0 -16.39,1.8 -23.88,5.38 -7.5,3.6 -14.04,8.5 -19.66,14.75 -5.6,6.24 -10.06,13.57 -13.34,22.02 -3.27,8.4 -4.91,17.31 -4.91,26.67 0,9.36 1.64,18.25 4.91,26.69 3.28,8.42 7.74,15.75 13.34,22 5.63,6.25 12.17,11.16 19.66,14.75 7.5,3.59 15.44,5.37 23.88,5.37 8.43,0 16.38,-1.79 23.88,-5.37 7.5,-3.59 14.05,-8.5 19.66,-14.75 5.62,-6.25 10.06,-13.58 13.34,-22 3.28,-8.44 4.93,-17.33 4.93,-26.69 0,-9.36 -1.66,-18.27 -4.93,-26.67 -3.28,-8.44 -7.72,-15.77 -13.34,-22.02 -5.61,-6.25 -12.17,-11.15 -19.66,-14.75 -7.5,-3.59 -15.45,-5.38 -23.88,-5.38zm0 -52.42c14.99,0 29.02,3.2 42.15,9.59 13.09,6.41 24.56,15.06 34.39,25.98 9.83,10.93 17.64,23.74 23.41,38.38 5.77,14.68 8.65,30.43 8.65,47.29 0,16.86 -2.88,32.62 -8.65,47.28 -5.77,14.68 -13.57,27.48 -23.41,38.38 -9.83,10.93 -21.3,19.6 -34.39,25.99 -13.13,6.41 -27.16,9.6 -42.15,9.6 -14.97,0 -29.11,-3.2 -42.36,-9.6 -13.27,-6.39 -24.82,-15.06 -34.66,-25.99 -9.83,-10.9 -17.63,-23.7 -23.4,-38.38 -5.79,-14.65 -8.68,-30.42 -8.68,-47.28 0,-16.86 2.89,-32.61 8.68,-47.29 5.76,-14.65 13.57,-27.45 23.4,-38.38 9.83,-10.92 21.38,-19.56 34.66,-25.98 13.25,-6.39 27.39,-9.59 42.36,-9.59z"/>
   <path class="fil0" d="M1347.76 362.18c-9.05,-7.8 -16.84,-16.62 -23.4,-26.46 -6.57,-9.82 -11.55,-20.53 -14.99,-32.06 -3.44,-11.55 -5.16,-23.58 -5.16,-36.05 0,-17.16 3.21,-33.24 9.6,-48.23 6.41,-14.97 15.22,-28.09 26.46,-39.33 11.22,-11.23 24.33,-20.04 39.33,-26.43 14.97,-6.4 31.05,-9.6 48.22,-9.6 12.8,0 24.97,1.8 36.52,5.39 11.51,3.57 21.83,8.74 30.89,15.44 9.04,6.72 16.77,15.07 23.18,25.05 6.38,9.98 10.84,21.52 13.34,34.64l0 156.83 -50.56 0 0 -164.86c-14.37,-14.91 -32.16,-22.39 -53.37,-22.39 -10.3,0 -19.91,1.93 -28.8,5.83 -8.89,3.89 -16.69,9.16 -23.39,15.86 -6.72,6.68 -12.02,14.45 -15.93,23.31 -3.91,8.88 -5.84,18.45 -5.84,28.72 0,13.66 3.18,26.04 9.59,37.09 6.39,11.03 15.06,19.81 25.97,26.35l57.13 0 0 50.1 -68.35 0c-11.23,-5 -21.37,-11.41 -30.43,-19.19z"/>
   <polygon class="fil1" points="45.33,21.22 99.24,21.22 99.24,31.52 56.1,31.52 56.1,51.53 93.72,51.53 93.72,62.18 56.1,62.18 56.1,95.96 98.16,95.96 98.16,106.52 45.33,106.52 "/>
   <path class="fil1" d="M198.04 63.87c0,-17.62 -14.86,-32.24 -33.19,-32.24l-16.89 0 0 64.46 16.89 0c18.33,0 33.19,-14.62 33.19,-32.22zm-60.74 -42.65l27.55 0c24.2,0 43.85,19.18 43.85,42.65 0,23.48 -19.65,42.65 -43.85,42.65l-27.55 0 0 -85.3z"/>
   <polygon class="fil1" points="249.88,21.22 260.65,21.22 260.65,106.53 249.88,106.53 "/>
   <polygon class="fil1" points="309.15,21.22 363.06,21.22 363.06,31.64 319.92,31.64 319.92,51.63 343.65,51.63 343.65,62.18 319.92,62.18 319.92,106.52 309.15,106.52 "/>
   <path class="fil1" d="M411.91 0l8.15 0 -9.95 12.82 -4.32 0 6.11 -12.82zm-9.82 21.22l10.78 0 0 85.3 -10.78 0 0 -85.3z"/>
   <path class="fil1" d="M524.75 83.75l8.39 6.23c-8.52,11.39 -21.56,17.85 -35.59,17.85 -24.68,0 -44.7,-20 -44.7,-44.7 0,-24.55 20.02,-44.57 44.7,-44.57 14.13,0 27.21,6.6 35.7,17.99l-8.5 6.23c-6.48,-8.74 -16.42,-13.66 -27.21,-13.66 -18.93,0 -34.14,15.2 -34.14,34.01 0,18.93 15.2,34.16 34.14,34.16 10.66,0 20.62,-4.92 27.21,-13.55z"/>
   <polygon class="fil1" points="573.57,21.22 584.34,21.22 584.34,106.53 573.57,106.53 "/>
   <path class="fil1" d="M702.69 63.27c0,-18.69 -15.11,-34.13 -33.79,-34.13 -18.67,0 -33.78,15.44 -33.78,34.13 0,18.57 15.1,33.91 33.78,33.91 18.69,0 33.79,-15.34 33.79,-33.91zm10.9 0c0,24.56 -20.12,44.45 -44.7,44.45 -24.56,0 -44.56,-19.89 -44.56,-44.45 0,-24.68 20,-44.7 44.56,-44.7 24.58,0 44.7,20.02 44.7,44.7z"/>
   <path class="fil1" d="M770.71 106.39c-8.88,-1.79 -17.62,-6.23 -25.41,-12.93l7.07 -8.03c6.34,5.51 13.42,9.21 20.49,10.66 5.99,1.32 11.86,0.85 16.52,-1.31 3.13,-1.45 8.52,-5.03 8.52,-12.35 0,-8.97 -9.59,-12.2 -18.93,-14.02 -0.83,-0.11 -14.24,-2.87 -19.65,-5.99 -7.2,-4.32 -11.03,-10.79 -11.03,-18.69 0,-4.44 1.45,-8.63 3.96,-12.34 2.53,-3.34 5.99,-6.1 10.06,-8.01 6,-2.89 13.08,-3.74 20.25,-2.52 7.8,1.32 15.7,5.01 22.66,10.78l-6.83 8.25c-12.35,-10.19 -24.34,-10.42 -31.51,-7.06 -4.92,2.27 -7.8,6.46 -7.8,10.79 0,8.14 6.96,11.26 18,13.66 4.54,1.07 14,2.63 19.65,5.85 7.77,4.33 11.84,11.03 11.84,19.29 0,4.92 -1.31,9.46 -4.07,13.43 -2.52,3.59 -6.36,6.34 -10.66,8.5 -4.54,2.29 -9.23,3 -14.5,3 -2.87,0 -5.75,-0.37 -8.62,-0.97z"/>
  </g>
 </g>
</svg>
