<?xml version="1.0" encoding="UTF-8"?>
<!DOCTYPE svg PUBLIC "-//W3C//DTD SVG 1.1//EN" "http://www.w3.org/Graphics/SVG/1.1/DTD/svg11.dtd">
<!-- Creator: CorelDRAW -->
<svg xmlns="http://www.w3.org/2000/svg" xml:space="preserve" width="47.7104mm" height="47.7611mm" version="1.1" style="shape-rendering:geometricPrecision; text-rendering:geometricPrecision; image-rendering:optimizeQuality; fill-rule:evenodd; clip-rule:evenodd"
viewBox="0 0 317.57 317.91"
 xmlns:xlink="http://www.w3.org/1999/xlink"
 xmlns:xodm="http://www.corel.com/coreldraw/odm/2003">
 <defs>
  <style type="text/css">
   <![CDATA[
    .str0 {stroke:#FFCD07;stroke-width:0.51;stroke-miterlimit:22.9256}
    .fil7 {fill:#FEFEFE}
    .fil1 {fill:#C4C6C8}
    .fil5 {fill:#35BA03}
    .fil3 {fill:#4D0868}
    .fil0 {fill:#FAC506}
    .fil4 {fill:#FEFEFE}
    .fil6 {fill:#FFCD07}
    .fil2 {fill:url(#id0)}
   ]]>
  </style>
  <linearGradient id="id0" gradientUnits="userSpaceOnUse" x1="162.65" y1="40.6" x2="169.77" y2="2.38">
   <stop offset="0" style="stop-opacity:1; stop-color:#4D0868"/>
   <stop offset="1" style="stop-opacity:1; stop-color:#680B67"/>
  </linearGradient>
 </defs>
 <g id="Camada_x0020_1">
  <metadata id="CorelCorpID_0Corel-Layer"/>
  <g id="_2111718419872">
   <path class="fil0" d="M151.72 24.31c81.08,0 146.81,65.72 146.81,146.8 0,81.07 -65.73,146.8 -146.81,146.8 -81.08,0 -146.81,-65.72 -146.81,-146.8 0,-81.07 65.73,-146.8 146.81,-146.8z"/>
   <path class="fil1" d="M100.78 19.74c1.57,3.19 2.85,6.58 4.32,9.85 0.89,1.98 1.42,3.04 1.97,5.19 0.65,2.51 1.64,2.64 3.46,0.82 2,-2 1.66,-2 4.2,-3.62 0.86,-0.55 1.71,-1.33 2.53,-1.97 1.66,-1.2 1.16,-1.73 0.33,-3.37 -1.42,-2.81 -2.4,-5.16 -3.52,-8.07 -0.67,-1.54 -1.45,-3.07 -2.14,-4.65 -1.34,-3.03 -2.67,-6.03 -3.99,-9.08 -1.07,-2.48 -2.13,-3.75 -4.8,-4.58 -2.83,-0.89 -6.29,0.7 -7.23,3.62 -0.69,2.17 -0.31,4.7 0.61,6.75 0.85,1.78 1.76,3.51 2.57,5.31 0.57,1.27 1.11,2.57 1.68,3.82z"/>
   <path class="fil2" d="M100.75 51.9c1.46,-8.12 2.34,-13.09 7.45,-19.47 4.14,-5.17 8.92,-9.22 15.27,-10.92 9.36,-2.52 16.06,0.16 24.03,3.84 1.85,0.86 3.41,1.54 4.66,1.81 1.25,0.27 2.2,0.11 4.12,-1.81 1.92,-1.92 4.83,-5.61 6.91,-8.72 2.09,-3.1 3.36,-5.62 4.63,-8.13 0.98,0.99 1.96,1.98 2.99,3.69 2.33,3.86 3.94,8.9 3.05,13.63 -0.53,2.71 -1.55,5.24 -2.56,7.8 12.28,1.19 27.52,8.32 34.72,18.69 0.62,0.9 -0.26,2.21 0.34,3.12 -1.52,2.67 -3.05,5.33 -13.54,7.39 -10.49,2.06 -29.94,3.5 -43.21,2.86 -13.26,-0.65 -20.34,-3.39 -26.42,-4.97 -6.08,-1.58 -11.16,-2 -14.83,-2.21 -3.67,-0.21 -5.92,-0.21 -6.93,-0.49 -1.02,-0.29 -0.8,-0.86 -0.71,-1.92 0.09,-1.07 0.05,-2.63 0.02,-4.19z"/>
   <path class="fil3" d="M151.72 40.15c72.33,0 130.97,58.63 130.97,130.96 0,72.33 -58.64,130.96 -130.97,130.96 -72.33,0 -130.97,-58.63 -130.97,-130.96 0,-72.33 58.64,-130.96 130.97,-130.96z"/>
   <path class="fil3" d="M230.72 150.68c0.33,-0.69 0.76,-1.37 1.32,-2.04 0.84,-1.01 1.82,-1.77 2.9,-2.32 -0.14,-0.48 -0.26,-0.98 -0.34,-1.51l-0.08 -0.53 0 -0.53c0,-2.26 0.76,-3.76 1.9,-5.51 0.33,-0.73 0.64,-1.36 1.06,-2l3.27 -6.43 0.07 -0.13c0.15,-0.27 0.31,-0.52 0.49,-0.77 0.13,-0.32 0.27,-0.64 0.44,-0.97 0.25,-0.46 0.51,-0.88 0.82,-1.29 0.22,-0.5 0.41,-0.97 0.69,-1.48l2.98 -5.52c0.62,-1.28 1.39,-2.26 2.47,-3.13 2.38,-2.65 5.47,-3.46 9,-2.57 2.51,0.63 6.76,3.18 9.21,4.52 1.3,0.59 2.21,1.02 3.32,2.03 5.28,4.79 4.13,8.15 1.57,13.71l-0.08 0.18 -4.23 7.97 -0.01 0.01c-0.08,0.17 -0.15,0.34 -0.24,0.51 -0.21,0.44 -0.45,0.85 -0.72,1.24 -0.08,0.2 -0.17,0.4 -0.26,0.61 -0.25,0.54 -0.53,1 -0.86,1.47l-0.56 1.09c1.62,0.14 3.24,0.28 4.78,0.79 1.4,0.46 2.66,1.24 3.71,2.28 4.17,4.16 3.08,9.26 2.55,14.3 -0.05,0.43 -0.07,0.87 -0.09,1.31 -0.16,3.13 -0.44,5.92 -2.29,8.61 -1.37,1.99 -3.27,3.35 -5.48,4.1 0,7.52 -0.11,15.04 -0.17,22.57 -0.03,3.58 -0.3,7.16 -0.32,10.74 -0.01,1.42 -0.24,2.8 -0.26,4.19 -0.1,5.27 -0.23,10.53 -0.29,15.8 -0.04,3.27 -0.17,6.72 -0.08,10.08 4.43,0.71 8.13,2.67 9.65,7.58 0.98,3.18 0.77,14.55 -0.2,17.78l-0.17 0.57 -0.26 0.53c-1.34,2.7 -4.07,4.51 -7.02,4.96l-0.53 0.08 -30.73 -0.06c-2.33,-0 -4.54,-0.64 -6.27,-1.93 -0.46,0.05 -0.92,0.08 -1.39,0.08 -4.05,0 -8.11,-0.01 -12.16,0.04 -3.99,0.05 -7.64,0.56 -11.17,-1.95 -3.59,-2.56 -4.55,-6.63 -4.46,-10.79 0.1,-4.49 0.17,-8.99 0.21,-13.48 0.02,-2.42 0.05,-4.85 0.07,-7.27 -0.71,0.02 -1.43,0.03 -2.14,0.02 -0.36,-0 -0.83,-0.03 -1.32,-0.06 -0.06,1.17 -0.08,2.35 -0.1,3.22 -0.09,2.84 -0.05,5.73 -0.2,8.55 -0.09,1.72 -0.15,3.44 -0.15,5.16 0,1.82 -0.34,3.53 -0.35,5.27l-0 0.29 -0.03 0.29c-0.55,6.22 -3.73,9.07 -9.78,9.73 -4.84,0.53 -9.62,1.44 -14.46,1.96 -3.94,0.42 -7.89,0.7 -11.07,-2.21 -0.4,-0.36 -0.74,-0.74 -1.05,-1.13 -3.08,1.82 -7.84,1.72 -11.43,1.95 -0,1.46 0.03,2.94 -0.03,4.21 -0.15,3.37 -0.04,6.75 -0.15,10.12 -0.09,2.71 -0.11,4.99 -1.57,7.43 -1.52,2.54 -3.86,3.88 -6.57,4.82 -2.98,1.03 -6.08,1.9 -9.13,2.71 -3.79,1 -7.43,2.37 -11.27,0.5 -4.05,-1.96 -5.25,-6.01 -6.3,-10 -0.73,-2.79 -1.7,-5.27 -2.16,-8.17 -0.43,-2.74 0.14,-5.45 1.96,-7.6 0.79,-0.93 1.69,-1.62 2.7,-2.17 -1.84,0.19 -3.69,0.33 -5.61,0.3 -2.48,0.02 -4.97,0.03 -7.45,0.08 -0.53,0.01 -1.07,0.06 -1.6,0.08 -2.79,0.09 -5.42,-0.57 -7.42,-2.22 -3.19,0.54 -7.98,0.37 -10.39,0.36 -3.07,-0.01 -6.13,-0.06 -9.19,-0.07l-0.34 -0 -0.34 -0.03c-1.91,-0.19 -2.78,0.06 -4.77,-0.95 -2.15,-1.09 -3.56,-2.96 -4.28,-5.23l-0.07 -0.23 -0.06 -0.23c-1.08,-4.43 -0.67,-11.96 -0.53,-16.69 0.1,-3.39 0.08,-6.78 0.22,-10.17 -1.16,0.04 -2.32,0.06 -3.48,0.07 -0.23,4.26 -0.36,8.53 -0.6,12.79 -0.1,1.74 -0.09,3.48 -0.14,5.22 -0.13,4.5 -0.17,9.34 -4.29,12.34 -2.66,1.93 -8.74,2.5 -12.13,2.82 -4.24,0.4 -8.85,1.67 -13.09,1.3l-0.22 -0.02 -0.21 -0.03c-5.88,-0.88 -8.18,-6.05 -8.65,-11.31 -0.18,-2.04 -0.52,-4.07 -0.73,-6.11 -0.04,-0.41 -0.09,-0.82 -0.13,-1.23 -0.49,-5.04 1.31,-9.65 6.51,-11.35 0.95,-0.31 1.86,-0.46 2.78,-0.56 0.04,-1.55 0.08,-3.1 0.08,-4.65 -1.09,-0.63 -2.03,-1.48 -2.92,-2.74 -2.12,-3.03 -1.56,-5.57 -1.79,-8.78 -0.08,-0.83 -0.04,-1.59 -0.11,-2.41 -0.22,-2.8 -0.14,-8.17 1.18,-10.52 1.1,-1.97 2.5,-2.98 4.42,-3.84 0.12,-7.49 0.63,-14.97 0.76,-22.45 0.05,-2.66 0.23,-5.32 0.29,-7.98 0.01,-0.6 0.04,-1.44 0.05,-2.33 -3.53,-1 -5.99,-3.81 -6.67,-8.16l-0.13 -0.8 0.06 -0.81c0.07,-1.04 0.16,-2.07 0.22,-3.11 0.19,-3.11 0.09,-6.63 0.79,-9.65 0.52,-2.23 1.7,-4.19 3.46,-5.65 3.6,-2.98 7.96,-2.87 12.29,-2.44 9.54,0.96 19.12,1.46 28.69,2.03 5.2,0.31 10.4,0.35 15.59,0.87 2.91,0.24 5.31,0.71 7.24,2.48 3.87,-3.22 9.9,-2.9 14.69,-3.17 4.44,-0.36 8.96,-0.13 13.36,-0.59 3.1,-0.32 6.09,-0.56 9.21,-0.61 6.1,-0.1 12.16,-0.87 18.26,-1.05 3.81,-0.11 9.47,-0.45 12.97,0.82 1.45,0.52 2.55,1.3 3.39,2.26 3.72,-3.81 9.01,-3.1 13.78,-2.77 5.66,0.4 11.33,0.58 16.98,1.01 4.45,0.34 8.91,0.54 13.36,0.95 3.37,0.31 6.68,0.49 10.07,0.52 0.68,0.01 1.36,-0.03 2.04,-0.03 2.8,0.02 5.42,0.67 7.48,2.22zm4.07 25.39c-0.08,4.62 -0.17,9.24 -0.19,13.86 -0.03,7.37 -0.47,14.72 -0.62,22.08 -0.2,9.8 -0.14,19.61 -0.17,29.41 0.48,0.24 0.94,0.52 1.38,0.84l0.15 -9.84c-0.13,-5.35 0.2,-10.67 0.2,-16.01 0,-3.9 0.12,-7.81 0.27,-11.71 0.24,-6.29 0.35,-12.58 0.34,-18.88 -0,-2.22 0.09,-4.44 0.11,-6.66 0.01,-0.74 0.03,-1.69 0.02,-2.65 -0.52,-0.11 -1.01,-0.24 -1.5,-0.43zm-67.02 -0.73c-0.11,1.33 -0.23,2.66 -0.35,4 -0.45,4.99 -0.63,14.65 -2.69,18.86 -3.33,6.82 -11.52,5.84 -17.64,4.62 -4.02,-0.8 -8.25,-0.69 -11.07,-4.45 -2.62,-3.49 -1.7,-8.43 -1.27,-12.46 0.17,-1.61 0.66,-4.57 0.94,-7.21 -0.9,0.12 -1.76,0.23 -2.46,0.28l-0.08 0.01 -0.08 0c-0.24,0.01 -0.48,0.03 -0.73,0.05 -0.03,4.09 -0.06,8.18 0.07,12.27l0 0.11 0 47.64c0.01,0.46 -0.01,0.97 -0.03,1.51 1.17,-0.11 2.39,-0.26 3.45,-0.39 0.14,-2.42 0.1,-5.28 0.23,-6.96 0.26,-3.16 0.35,-6.33 0.7,-9.49 0.3,-2.76 0.85,-5.16 2.93,-7.2 2.05,-2.02 4.69,-2.7 7.49,-2.58 5.02,0.22 11.73,-1.02 16.42,1.4 0.43,-1.86 1.4,-3.53 3.25,-4.94 0.77,-0.59 1.43,-0.94 2.09,-1.24 0.01,-4.51 0.02,-9.02 0.34,-13.52 0.26,-3.63 0.4,-7.24 0.46,-10.88 0.04,-2.58 0.38,-5.59 0.45,-8.37 -0.88,-0.23 -1.7,-0.59 -2.44,-1.06zm-0.04 61.77c-0.11,1.54 -0.18,3.08 -0.25,4.62 0.16,-0.02 0.32,-0.05 0.49,-0.06 0.07,-1.45 0.09,-3.03 0.06,-4.35 -0.1,-0.07 -0.2,-0.14 -0.3,-0.21zm-69.5 -57.89c0.02,1.46 0.04,2.91 0.03,4.37l-0.1 12.75c-0.03,4.14 -0.56,8.24 -0.56,12.38 0,6.78 -0.1,13.56 -0.18,20.34 -0.05,4.27 -0.17,8.54 -0.15,12.81 0.48,0.26 0.92,0.53 1.33,0.82 0.49,-0.13 0.99,-0.24 1.5,-0.34l0 -62.51c-0.65,-0.15 -1.27,-0.36 -1.87,-0.63zm-30.91 -0.85c-0.91,-0.04 -1.83,-0.07 -2.68,-0.1 -0.1,-0 -0.21,-0.01 -0.32,-0.01 -0.1,1.56 -0.14,3.17 -0.17,4.17 -0.1,3.49 -0.05,6.95 -0.04,10.44 0.01,3.34 -0.33,6.85 -0.44,10.22 -0.03,0.95 -0.1,2.44 -0.11,3.91 1.18,-0.03 2.36,-0.1 3.27,-0.12 0,-0.31 0,-0.6 0,-0.88 0.02,-1.86 -0.01,-3.72 0.01,-5.58 0,-0.54 0.01,-1.08 0.02,-1.62 0.08,-6.43 0.2,-12.87 0.38,-19.3 0.01,-0.34 0.04,-0.72 0.07,-1.11zm135.86 28.29c0.17,-2.97 0.02,-6.08 -0.05,-8.93 -0.16,-6.4 0.4,-12.78 0.42,-19.16 -0.88,-0.02 -1.76,-0.04 -2.64,-0.06 -0.3,3.81 -0.2,8.97 -0.18,11.3 0.05,5.44 -0.57,10.8 -0.65,16.22 -0,0.21 -0,0.46 -0,0.72 0.95,-0.03 1.85,-0.07 2.58,-0.09 0.16,-0.01 0.34,-0 0.53,-0z"/>
   <path class="fil4" d="M241.61 143.75c0.25,1.64 1.61,2.36 2.88,3 1.93,0.98 8.69,5.51 10.37,3.82 0.41,-0.41 4.4,-7.64 4.98,-8.87 1.68,-3.53 3.76,-6.92 5.51,-10.45 2.35,-4.75 1.77,-4.56 -1.79,-6.52 -1.41,-0.77 -6.63,-3.66 -7.59,-3.9 -1.2,-0.3 -1.55,-0.12 -2.12,0.58 -0.61,0.75 -0.83,0.44 -1.3,1.45l-3.95 7.58c-1.22,1.97 -6.98,12.74 -6.98,13.31zm-167.68 56.72c-0.1,12.61 1.4,13.3 -6.69,13.49 -1.49,0.03 -9.15,0.46 -9.94,-0.67 -1.62,-2.32 -0.29,-16.89 -0.28,-20.39 -0.03,-2.93 -0.42,-20.8 1.82,-21.65 0.97,-0.36 10.52,0.07 11.96,0.31 4.91,0.81 3.63,4.04 3.52,8.13l-0.39 20.78zm-35.5 46.26c-0.85,2.65 -5.33,1.94 -7.39,2.61 -2.21,0.72 -1.73,3.14 -1.52,5.11 1.49,14.44 0.72,11.2 15.19,9.83 10.28,-0.97 9.79,-0.88 10,-8.29 0.22,-7.61 0.45,-15.17 1.04,-22.77 0.2,-2.61 3.67,-2.15 5.92,-2.13 10.98,0.07 11.89,-1.93 11.47,6.58 -0.23,4.65 -0.82,22.45 0.07,25.64 0.49,1.56 1.33,1.09 2.99,1.26 2.51,0.01 17.65,0.26 18.69,-0.22 1.63,-0.75 1,-4.42 0.94,-5.89 -0.09,-2.15 -0.15,-6.95 -0.65,-8.85 -1.04,-3.01 -4.93,-0.98 -4.99,-6.19 -0.14,-11.54 0.32,-23.14 0.32,-34.68 -0,-4.81 0.56,-8.15 0.56,-12.44 0.03,-6.68 -0.06,-14.98 0.1,-21.51 0.04,-2.94 0.69,-15.96 -0.31,-17.72 -0.79,-1.39 -2.16,-1.23 -3.6,-1.35 -5.09,-0.51 -10.27,-0.55 -15.38,-0.86 -9.71,-0.59 -19.29,-1.08 -28.98,-2.05 -10.09,-1.01 -8.24,3.16 -8.75,11.12 -0.08,1.06 -0.15,2.12 -0.23,3.18 0.73,4.67 4.58,1.19 6.1,3.1 1.17,2.89 0.39,12.8 0.32,16.59 -0.13,7.65 -0.67,15.23 -0.77,22.93 -0.07,5.41 -0.13,3.9 -3.89,5.74 -0.54,0.24 -1.1,0.38 -1.43,0.96 -0.45,0.81 -0.51,12.96 0.34,14.17 2.31,3.31 5.41,-3.38 3.84,16.15zm68.76 -70.11l0 69.58c-0.36,3.12 -1.6,2.4 -4.38,2.87 -3.73,0.64 -4.06,0.52 -4.22,5.01 -0.07,2.07 0.35,9.52 1.19,11.14 0.89,1.7 3.22,1.21 4.88,1.18 2.53,-0.05 5.07,-0.06 7.6,-0.08 3.42,0.06 6.22,-0.44 9.51,-0.75 1.28,-0.12 4.51,-0.63 4.97,0.96 0.3,1.06 0.2,7.93 -0.41,9.37 -2.16,3.96 -6.74,2.13 -6.14,5.88 0.41,2.6 1.36,4.9 2.01,7.49 1.84,6.98 2.37,6.16 8.89,4.43 2.61,-0.69 6.11,-1.68 8.62,-2.55 3.42,-1.18 3.25,-2.18 3.37,-5.8 0.09,-2.64 -0.06,-19.19 0.76,-20.3 1.06,-1.43 12.74,-0.36 14.34,-1.84 1.53,-2.03 1.35,-11.62 1.72,-14.9 0.56,-5.04 0.5,-10.13 1.05,-15.2 0.23,-2.09 1.16,-9.75 -0.26,-11.26 -2.01,-1.54 -10.48,-0.68 -13.81,-0.82 -2.54,-0.11 -2.78,0.96 -3.06,3.48 -0.32,2.93 -0.44,6.27 -0.68,9.28 -0.22,2.74 -0.03,10.79 -1.43,12.72 -0.34,0.47 -13.67,1.83 -15.76,0.76 -1.14,-0.65 -0.58,-6.39 -0.63,-8.13l0 -47.62c-0.19,-5.83 -0.05,-11.68 -0.05,-17.51 0,-2.21 2.35,-1.69 4.19,-1.79 15.61,-1.04 14.4,-4.82 12.35,14.44 -0.95,8.96 -1.62,7.55 6.67,9.2 12.32,2.45 10.32,0.24 11.88,-17.16 0.47,-5.24 0.85,-10.37 1.48,-15.6 0.22,-1.76 1.37,-9.19 -0.64,-9.92 -4.32,-1.57 -23.27,0.57 -28.7,0.65 -3.23,0.05 -5.42,0.24 -8.59,0.57 -4.33,0.45 -9.11,0.25 -13.61,0.62 -12.79,0.73 -12.22,-0.35 -11.37,12.41 0.16,2.36 0.27,5.12 3.06,5.57 3.07,0.49 5.19,-0.49 5.19,3.62zm102.58 34.76c-1.02,2.86 -4.49,2.31 -6.91,2.38 -1.35,0.04 -8.16,0.28 -8.91,-0.36 -1.91,-1.63 -0.29,-19.98 -0.32,-23.52 -0.04,-4.05 -0.2,-14.81 1.47,-18.16 0.51,-0.73 2.97,-0.41 3.77,-0.37 2.85,0.13 5.8,0.12 8.61,0.27 2.19,0.12 3.03,2.53 3.12,4.39 0.16,7.2 -0.58,14.28 -0.39,21.55 0.11,4.51 0.35,9.37 -0.45,13.82zm-39.27 -43.48c1.28,3.74 6.09,-0.47 6.67,4.41 0.3,2.53 -0.52,20.13 -0.79,23.84 -0.38,5.24 -0.31,10.51 -0.33,15.77 -0.01,2.86 -3.1,2.77 -4.88,4.13 -1.06,0.8 -0.79,2.28 -0.68,3.43 0.07,2.48 -0.57,10.57 1.5,11.95 1.58,1.05 2.75,0.34 3.03,3.39 0.14,1.54 0.02,10.88 -0.46,11.89 -2.54,3.23 -5.11,1.08 -7.58,2.59 -2.69,2.55 -0.84,7.53 -0.55,10.73 0.52,5.69 0.42,6.26 6.72,5.58 4.78,-0.52 9.62,-1.44 14.45,-1.96 2.68,-0.29 3.24,-0.55 3.48,-3.3 0.01,-2.03 0.35,-3.07 0.35,-5.23 -0,-4.09 0.27,-20.88 1.28,-22.58 1.2,-2.01 5.47,-1.4 7.62,-1.39 8.2,0.04 9.26,-1.82 9.23,3.69l-0.31 24.29c-0.14,6.53 3.1,5.56 8.45,5.5 16.06,-0.2 14.54,1.62 14.54,-5.98 0,-1.05 -0.37,-9.09 -0.97,-10.28 -0.4,-0.79 -1.68,-1 -2.61,-1.18 -2.03,-0.38 -1.96,-1.11 -1.95,-3.29 0.05,-10.62 -0.03,-21.44 0.18,-32.04 0.14,-6.65 1.78,-51.15 0.38,-54.49 -1.13,-2.23 -4,-1.79 -6.13,-1.79 -6.54,-0.04 -17.06,-0.97 -23.91,-1.5 -5.62,-0.42 -11.28,-0.61 -16.94,-1.01 -2.1,-0.15 -6.86,-0.86 -8.3,0.74 -1.76,1.96 -2.16,11.25 -1.5,14.08zm72.15 48.5c-0.01,5.34 -0.34,10.62 -0.2,15.97l-0.22 14.27c-0.19,3.55 -4.63,1.51 -6.69,3.61 -1.02,1.04 -0.42,2.13 -0.56,3.82l-0.02 9.17c-0,1.2 -0.47,3.2 2.66,3.18l30.19 0.05c0.68,-0.1 1.44,-0.52 1.72,-1.09 0.53,-1.75 0.74,-11.95 0.21,-13.64 -1.08,-3.49 -5.58,-2.46 -8.63,-3.24 -0.95,-0.24 -0.94,-0.29 -1.05,-1.38 -0.76,-7.58 -0.08,-22.89 0.08,-31.07 0.03,-1.38 0.24,-2.7 0.26,-4.1 0.01,-3.55 0.29,-7.13 0.32,-10.75 0.07,-8.62 0.21,-17.31 0.16,-25.92 -0.02,-3.3 0.65,-2.56 4.04,-3.11 4.18,-0.76 3.51,-4.82 3.87,-8.24 0.25,-2.36 1.61,-8.09 -1.43,-9.1 -2.68,-0.89 -12.21,-1.1 -15.54,-1.49 -14.3,-1.65 -14.73,-2.63 -15.36,4.73 -0.2,2.3 -1.55,9.29 0.09,10.81 1.96,1.82 5.16,-0.03 6.43,3.05 1.07,3.5 -0.37,37.19 -0.36,44.46z"/>
   <path class="fil3" d="M279.5 157.78c-0.55,1.14 -0.02,3.83 -0.22,5.31 -0.47,3.73 -0.46,11.44 -1.69,14.46 -1.76,4.3 -2.32,3.63 -5.3,6.71 -1.34,1.38 -1.29,3.21 -0.92,5 0.51,2.45 3.95,1.69 5.84,1.7 5.4,0.03 8.83,-1.32 13.1,-4.63 1.44,-1.11 2.73,-2.3 4.03,-3.58l0.4 -0.39c4.3,-4.39 7.92,-12.13 10.95,-17.65 2.78,-5.04 3.49,-6.79 7.4,-11.26 0.69,-0.79 4.67,-4.84 4.47,-5.69 -0.16,-0.7 -3.3,-1.71 -4.13,-2.05 -5.95,-2.43 -20.77,-3.51 -26.35,-2.8 -5.43,0.68 -10.09,1.51 -15,4.08 -0.81,0.44 -2.52,2.05 -1.25,2.84 1.22,0.76 2.44,1.28 3.77,2.18 2.19,1.47 2.37,1.05 5.11,0.26 3.02,-0.85 16.16,-4.21 18.34,-2.15 0.4,0.38 -2.7,0.99 -3.02,1.08 -4.9,1.33 -9.45,2.73 -14,5.06 -0.84,0.43 -1.06,0.73 -1.53,1.52z"/>
   <path class="fil5" d="M278.97 153.6c-0.55,1.14 -0.02,3.83 -0.22,5.31 -0.47,3.73 -0.46,11.44 -1.69,14.46 -1.76,4.3 -2.32,3.63 -5.3,6.71 -1.34,1.38 -1.29,3.21 -0.92,5 0.51,2.45 3.95,1.69 5.84,1.7 5.4,0.03 8.83,-1.32 13.1,-4.63 1.44,-1.11 2.73,-2.3 4.03,-3.58l0.4 -0.39c4.3,-4.39 7.91,-12.13 10.95,-17.65 2.78,-5.04 3.49,-6.79 7.4,-11.26 0.69,-0.79 4.67,-4.84 4.47,-5.69 -0.16,-0.71 -3.3,-1.71 -4.13,-2.05 -5.95,-2.43 -20.77,-3.51 -26.35,-2.8 -5.43,0.68 -10.09,1.51 -15,4.08 -0.81,0.44 -2.52,2.04 -1.25,2.84 1.22,0.76 2.44,1.28 3.77,2.18 2.19,1.47 2.37,1.05 5.11,0.26 3.02,-0.85 16.16,-4.21 18.34,-2.15 0.4,0.38 -2.7,0.99 -3.02,1.08 -4.9,1.33 -9.45,2.72 -14,5.06 -0.84,0.43 -1.06,0.73 -1.53,1.52z"/>
   <path class="fil4" d="M172.36 103.43c0.44,-2.46 0.29,-3.72 3.19,-4.7 2.21,-0.74 3.8,-1.17 6.05,-2.11 3.25,-1.36 6.08,-2.73 9.04,-4.64 4.87,-3.31 9.88,-8.24 12.79,-13.39 2.04,-3.62 -9.06,-2.35 -10.47,-2.12 -5.28,0.84 -9.74,3.16 -14.21,5.97l-0.68 0.43c-7.17,4.79 -16.23,12.84 -25.45,9.17 -1.29,-0.51 -4.56,-2.02 -5.55,-2.98 -2.32,-2.31 -4.36,-5.12 -6.69,-7.59 -4.94,-5.26 -9.29,-6.97 -16.11,-8.56 -6.39,-1.37 -14.98,-1.9 -21.34,-0.3 -3.44,1.16 -1.56,1.96 -0.31,4.78 5.26,11.22 15.67,17.41 27.05,21.15 1.19,0.34 3.54,0.68 3.8,2.14 0.36,2.06 -0.85,3.97 2.57,5.01 6.27,1.59 35.06,2.59 36.31,-2.28zm-47.19 -48.88c-6.77,-0.69 -13.27,-1.06 -20.07,-2 -1.27,-0.18 -6.62,-1.12 -6.69,0.88 -0.07,2.03 -0.3,9.55 0.56,11.15 0.78,1.45 3.27,0.52 4.67,0.24 7.86,-1.53 11.61,-2.04 19.56,-0.15 7.37,1.8 10.92,2.93 16.39,8.47 1.59,1.61 3.08,3.34 4.56,5.07 0.48,0.56 0.95,1.08 1.45,1.61 4.59,4.82 10.99,6.32 17.29,4.32 9.4,-3.39 15.4,-11.04 25.65,-14.41 5.59,-1.84 5.46,-1.59 11.37,-1.47 1.57,0.03 5.64,0.19 7.02,-0.36 0.88,-1.3 0.54,-6.81 0.6,-8.88 0.03,-1.01 0.47,-6.33 -0.75,-6.64 -1.33,-0.33 -9.95,0.84 -11.97,1.01 -2.64,0.22 -5.24,0.53 -7.9,0.66 -4.78,0.24 -8.83,1.11 -13.76,1.11 -4.35,-0 -8.14,-0.12 -12.53,0.1 -4.49,0.22 -8.07,0.28 -12.57,0.04 -7.67,-0.41 -15.15,0.02 -22.86,-0.74z"/>
   <path class="fil6 str0" d="M64.02 115.95c0,1.97 -0.16,1.48 0.89,2.49 1.21,1.18 0.81,3.32 0.8,5.5 -0.01,1.47 0.39,2.42 -0.3,3.53 -0.38,0.62 -1.54,1.09 -1.54,2.76 0,2.83 2.01,1.24 2.15,3.38 0.12,1.76 -0.1,3.75 -0,5.53 0.08,1.54 0.34,3.59 0.14,5.36 -0.1,0.89 -0.56,1.15 -1.17,1.59 -1.18,0.84 -0.96,1.17 -0.96,3.18 0,1.17 1.09,1.39 2.3,1.38 1.23,-0.01 2.27,0.15 3.69,0.15l28.27 0c1.41,0 1.02,-1.86 1.3,-3.62 0.32,-2.06 -0.79,-2.37 -2.99,-2.37 -0.41,0 -0.42,0.07 -0.77,0.15 -0.56,2.41 -0.45,1.71 -6.92,1.69 -0.72,-0 -0.93,-0.1 -1.4,-0.14 -0.65,-0.05 -0.74,0.14 -1.36,0.14 -1.1,0 -0.07,-0.27 -1.89,-0.04l-11.01 0.04c-3.17,0.01 -2.77,-1.02 -2.76,-3.54 0,-0.94 -0.14,-1.19 -0.16,-1.99 -0.04,-1.35 0.14,-2.78 -0.06,-4.09 -0.24,-1.59 0.07,-2.66 0.07,-4.06 2.09,-1.11 2.19,-0.35 3.99,-0.77 0.42,-0.87 0.23,-1.02 0.32,-2.15 0.11,-1.39 0.21,-1.95 -2.78,-2 -2.92,-0.05 -1.23,-1.34 -1.91,-5.77 -0.16,-1.04 -0.06,-1.41 0.03,-2.25 0.22,-1.96 0.25,-1.5 5.41,-1.5 1.56,0 0.92,3.21 0.92,3.53 0.01,2.92 -0.98,3.38 2.31,3.38 2.03,0 1.58,-1.39 1.8,-2.5 0.29,-1.43 0.5,-5.66 0.5,-7.18 0,-0.62 -0.17,-1.38 -0.77,-1.38l-14.9 0c-0.92,0 -1.23,0.62 -1.23,1.54zm170.68 27.65c1.18,0 1.86,-0.05 1.99,-0.78 0.71,-4.09 0.02,-3.68 -5.21,-3.68 -2.31,0 -3.72,-0.46 -5.84,-0.46 -1.65,0 -2.77,-0.36 -2.77,1.54 0,1.6 -0.28,2.2 1.31,2.53 5.39,1.12 4.76,0.85 10.51,0.85zm-6.3 -11.52c-2.25,0 -1.4,-2.56 -1.38,-3.22 0.02,-0.79 -0.06,-1.68 0,-2.45 0.05,-0.69 0.23,-1.42 0.3,-2.16 0.38,-4.54 -0.27,-5.13 2.01,-5.36 5.01,-0.52 2.94,0.66 3.63,5.71 0.3,2.2 0.04,4.71 0.04,6.87 -1.6,0.84 -2.49,0.61 -4.61,0.61zm-5.99 2.46c0,2.51 0.31,1.67 3.07,1.69l6.15 0.01c0.81,-0.02 1.06,-0.2 1.99,-0.17 1.73,0.06 1.96,0.45 3.53,-0.3 0,-1.08 0.15,-1.47 0.16,-2.45 0.01,-1.11 -0.17,-1.54 -0.17,-2.61 0.01,-1.79 0.03,-3.6 0.01,-5.39l-0.32 -5.06c-0.05,-1.75 0,-3.61 0,-5.38 -0.87,-0.75 -0.51,-0.34 -2.77,-0.46 -2.9,-0.17 -8.25,-0.37 -10.49,0.42 -0.92,0.33 -1.77,0.85 -1.59,2.12 0.09,0.65 0.03,1.29 0.27,1.74 0.27,0.51 0.59,0.55 0.81,1.18 0.58,1.67 -0.34,8.7 -0.37,10.97 -0.02,1.38 -0.31,2.23 -0.31,3.69zm-12.14 4.15c-1.15,0 -1.23,-0.95 -1.35,-1.88l-0.2 -5.95c0,-1 0.06,-2.06 -0.09,-2.99l-0.22 -5.92c-0,-2.69 0.25,-3.23 2.92,-3.23 2.81,0 4.76,2.51 4.76,3.99l-0.45 5.08c-0.22,1.55 -0.46,2.77 -0.69,4.38 -0.89,6.11 0.23,6.52 -4.69,6.52zm-8.76 -23.35c-0.32,0.48 -0.65,0.65 -0.61,1.52 0.19,4.48 0.83,1.58 3.53,3.39l0.27 11.41c0.13,0.96 -0.16,0.95 -0.11,1.78l0.15 4.78c0,1.7 -1.55,0.68 -1.73,2.4 -0.43,4.14 1.52,2.7 6.5,2.37l6.41 -0.5c2.78,-0.35 1.99,-1.94 2.78,-6.59 0.13,-0.75 0.27,-1.22 0.33,-1.98 0.32,-3.94 0.54,-4.43 1.03,-8.18 0.81,-6.14 1.23,-4.93 -3.24,-9.42 -2.05,-2.03 -1.38,-1.9 -3.48,-1.9l-4.44 0.17c-0.45,0.05 -0.87,0.2 -1.4,0.29l-6 0.46zm-23.35 13.06c0,-2.31 0.08,-4.18 0.15,-6.46 0.08,-2.72 0.14,-3.35 1.35,-3.56 4.62,-0.8 3.35,2.16 3.47,3.19 0.26,2.1 -0.07,2.26 -0.06,3.91 0,0.81 0.28,4.3 -1.23,4.3 -1.35,0 -3.69,0.37 -3.69,-1.38zm-5.38 -13.52c0,3.54 -0.3,2.21 1.03,3.12 0.65,0.44 0.44,0.98 0.6,2.01 0.13,0.87 0.04,1.19 -0.05,1.82 -0.17,1.24 -0.13,7 -0.26,7.42 -0.39,1.33 -1.48,0.37 -1.48,3.13 0,1.95 1.23,1.33 1.23,3.84 0,0.82 -0.18,1.91 -0.58,2.34 -0.83,0.9 -2.3,-0.42 -1.56,3.49 0.13,0.7 0.83,0.82 1.61,0.72 1.31,-0.17 3.41,-0.14 4.03,-0.9 0.6,-0.74 0.41,-6.27 0.53,-6.85 0.3,-1.44 2.6,-1.1 3.97,-1.1 0.81,0 1.08,1.38 1.09,2.3 0.01,1.6 -0.28,1.42 -0.06,4.37 0.17,2.24 0.04,2.08 4.35,2.08 1.38,0 1.08,-1.08 1.08,-2.61 0,-1.79 -1.39,-0.21 -1.38,-4.76 0,-1.81 -0.17,-4.59 0.02,-6.27 0.34,-2.99 -0.05,-6.97 0.14,-9.23l0.15 -3.39c0,-1.04 -0.18,-2 -1.23,-2l-12.29 0c-0.23,0 -0.68,0.33 -0.92,0.46zm-21.2 0c-1.32,5.65 1.84,2.13 1.84,5.84l0 15.05c0,3.63 -0.65,3.21 -1.94,3.74 -1.45,0.6 -0.93,1.68 -0.58,2.77 0.4,1.27 0.37,1.17 2.06,1.17 0.87,0 1.18,-0.21 1.91,-0.39 3.48,-0.87 2.7,-0.81 2.7,-9.28 0,-1.2 -0.39,-4.15 0.77,-4.15 0.69,0 0.98,0.4 1.32,0.83l0.99 1.16c0.34,0.47 0.64,0.66 1.01,1.14 0.36,0.47 0.55,0.77 0.9,1.25 1.48,2.04 0.17,4.84 0.85,7.75 1.12,0.26 2.31,0.31 3.53,0.31 2.07,0 2.3,-0.43 2.3,-2.46 0,-1.55 -1.69,-1.26 -1.69,-3.23 0,-1.77 -0.1,-7.98 0.04,-9.02 0.21,-1.54 -0.2,-6.42 0.6,-7.39 0.56,-0.68 1.24,-0.51 1.7,-1.07 0.44,-0.53 0.24,-2.8 -0.25,-3.21 -0.77,-0.65 -3.03,-0.3 -3.9,-0.17 -2.35,0.37 -1.52,0.68 -2,4.15l-0.23 5.76c-0.08,0.58 -0.29,1.17 -0.42,1.73 -1.01,-0.02 -1.32,-0.4 -1.7,-1.07 -0.5,-0.88 -0.8,-0.79 -1.25,-1.51 -1.15,-1.86 -1.36,-1.02 -2.27,-3.26 -1.43,-3.54 2.32,-6.76 -4.45,-6.76 -0.81,0 -1.13,-0.05 -1.84,0.31zm-11.22 25.8c0,3.5 -0.09,2.92 7.37,2.92 1.73,0 1.38,-0.74 1.38,-2.92 0,-2.12 -2.77,-0.15 -2.77,-3.23l0.12 -1.58c0.03,-0.66 0.03,-1.29 0.03,-1.95 -0,-2.5 -0.06,-3.59 0.15,-6l0.01 -5.98c-0.02,-3.37 1.53,-2.23 2.04,-4.1 0.79,-2.91 -0.78,-2.87 -2.81,-2.96 -3.37,-0.16 -5.5,-1.47 -5.14,2.39 0.17,1.8 1.02,0.78 1.59,2.39 0.63,1.77 0,4.97 0.01,7.2 0.01,2.21 0.22,5.74 -0.09,7.75 -0.18,1.18 0.17,2.75 -0.15,3.84 -0.39,1.34 -1.76,0.83 -1.76,2.23zm-20.28 -23.35c0,1.34 0.23,0.71 1.12,1.34 0.51,0.36 0.75,0.66 0.85,1.3 0.15,0.99 0.03,3.17 0.03,4.27l0.16 4.14c-0,1.54 0.16,2.54 0.15,4.15 -0,1.53 0.16,2.46 0.15,3.99 -0.01,5.2 -0.01,4.2 2.87,5.73l2.97 1.33c2.93,0 1.56,-1.69 3.69,-1.69 1.01,0 0.03,1.54 2.92,1.54 1.34,0 1.64,0.11 2.77,-0.15 0.88,-3.77 -0.3,-3.32 -0.7,-4.83 -0.33,-1.21 0.1,-4.79 0.09,-6.23l0.15 -8.14c0.04,-0.68 0.15,-0.74 0.16,-1.53 0.01,-1.08 -0.06,-2.11 0.22,-3.01 0.21,-0.67 1.31,-1.66 1.31,-2.07 0,-1.02 0.32,-3.07 -1.23,-3.07 -4.61,0 -4.15,1.28 -4.15,4.45 0,2.83 -0.22,5.43 -0.3,8.3 -0.04,1.33 -0.3,2.5 -0.31,3.99l-0.3 3.69c-0.38,1.1 -1.27,1.46 -2.05,2.25 -4.99,5.09 -4.26,-2.18 -4.26,-5.49 0,-1.59 -0.16,-2.58 -0.15,-4.15 0,-1.48 -0.01,-2.97 0,-4.45l-0.15 -6.3c-0,-0.82 -0.02,-1.4 -0.68,-1.62l-3.8 -0.67c-1.56,-0.06 -1.52,1.44 -1.52,2.92zm-12.91 15.36c-0.83,0 -0.79,-0.67 -0.87,-1.45 -0.08,-0.8 0.41,-4.99 0.41,-6.07 0,-1.49 -0.03,-2.98 -0.01,-4.47 0.02,-1.6 0.19,-2.61 1.7,-2.61 4.17,0 3.83,-0.28 4.42,2.34 0.45,1.99 0.65,5.07 0.81,7.34 0.12,1.72 1.74,5.08 -0.62,5.08 -1.72,0 -0.39,-2.84 -0.97,-3.48 -0.39,-0.43 -1.86,-0.36 -2.56,-0.36 -2.68,0 -0.74,3.69 -2.3,3.69zm-5.38 -17.97c-0.03,1.15 -0.56,2.45 0.29,3.4 1.04,1.16 0.57,2.44 0.48,3.52 -0.08,1.01 0,1.93 -0.12,2.8l-0.2 8.87c-0.04,0.98 -0.49,3.34 0.19,3.96 0.48,0.44 3.35,0.18 4.11,0.18 1.64,3.11 -1.02,4.74 1.86,5.21 0.98,0.16 1.52,0.1 2.59,0.18 2.83,0.21 6.46,1.8 6.46,-1.08 0,-2.34 -0.03,-2.17 -2.61,-2.46 -2.69,-0.3 -3.23,0.12 -3.23,-1.54 0,-2.2 7.07,0.57 7.07,-2.15 0,-2.29 -0.21,-3.22 -0.59,-5.4 -0.26,-1.46 -0.19,-2.69 -0.35,-4.26 -0.13,-1.26 -0.42,-2.61 -0.62,-3.99 -0.19,-1.31 -0.22,-2.95 -0.46,-4.31 -0.78,-4.44 0.81,-3.17 -12.73,-3.25 -1.72,-0.01 -1.26,0.24 -2.15,0.31zm-17.67 2c0,0.9 0.59,1.65 0.97,2.41 0.74,1.49 -0.31,7.31 0.63,9.04 0.44,0.82 1.32,0.64 2.19,1.04 1.44,0.67 3.19,1.17 4.7,1.75 2.72,1.09 1.92,1.41 1.67,3.76 -0.1,0.91 -0.35,3.75 -0.74,4.17 -0.63,0.69 -2.29,0.56 -3.28,0.56 -1.67,0 -0.95,-2.08 -0.92,-3.38 0.05,-1.98 0.82,-2.67 -0.97,-3.49 -0.86,-0.39 -4.53,-1.8 -5.18,-0.51l-0.46 2.46c0,0.72 0.86,0.72 1.39,0.91 0.54,0.2 0.36,0.09 0.62,0.6 0.59,1.16 0.22,3.53 0.05,4.69 -0.11,0.71 0.01,1.22 0.07,1.8 0.08,0.81 0.1,1.05 0.95,1.05l9.99 0c1.53,0 1.65,-1.02 1.69,-2.46 0.04,-1.4 0.35,-2.45 0.58,-3.57l0.54 -3.61c0.22,-1.63 0.37,-0.13 0.6,-3.7 0.12,-1.83 -0.42,-1.38 -1.91,-1.97l-6.32 -2.13c-2.07,-0.68 -1.63,-3.46 -1.63,-5.75 0,-2.27 2.12,-1.84 4.3,-1.84 1.76,0 1.23,1.79 1.23,3.23 0,3.75 -0.31,3.11 1.54,3.53 2.44,0.56 3.53,0.68 3.53,-2.15 0,-1.8 -0.77,-0.2 -0.77,-4.45 0,-2.54 0.71,-4.3 -1.38,-4.3 -1.7,0 -12.63,-0.25 -13.33,0.2 -0.4,0.26 -0.35,1.07 -0.35,2.1z"/>
   <path class="fil3" d="M20.34 228.89c0.64,-0.95 1.94,-0.66 3,-0.74 -0.04,0.57 -0.09,1.15 -0.14,1.73 -0.95,-0.3 -2,-0.38 -2.48,-0.7l-0.38 -0.29zm3.49 -7.81c-0.27,0.01 -0.6,0.02 -1.02,0.01 -7.62,-0.06 -13.49,1.58 -20.72,3.68 -3.72,1.08 -1.77,2.59 0.43,4.66 3.57,3.57 6.42,8.78 9.15,13.12 0.71,1.18 5.68,11.69 7.52,13.11 0.04,0.09 0.09,0.17 0.15,0.24 0.41,0.52 1.23,0.83 2.21,1.04 0.98,0.21 2.12,0.34 3.21,-0.82 1.09,-1.16 2.14,-3.6 4.15,-6.08 2.01,-2.48 4.98,-5 5.65,-8.27 0.67,-3.27 -0.97,-7.29 -1.96,-11.32 -0.99,-4.04 -1.32,-8.09 -1.88,-10.35 -0.55,-2.26 -1.32,-2.72 -1.87,-3.22 -0.55,-0.5 -0.89,-1.03 -1.23,-1.56 -1.03,0.78 -2.07,1.55 -2.69,1.92 -0.62,0.37 -0.83,0.33 -1.08,3.47l-0.03 0.37z"/>
   <path class="fil5" d="M20.46 225.5c1.21,-1.79 4.72,0.81 4.68,-2.92 -0.02,-1.76 -0.2,-2.97 -0.14,-4.77 -0.55,-0.2 -1.01,-0.09 -2.07,-0.11 -7.62,-0.06 -13.49,1.58 -20.72,3.68 -3.72,1.08 -1.77,2.59 0.43,4.66 3.57,3.57 6.42,8.78 9.15,13.12 0.79,1.31 6.89,14.25 8.03,13.21 0.04,-0.04 0.23,-2.58 0.31,-3 1.84,-8.68 7.92,-8.3 8.45,-10.36 0.12,-0.49 -1.5,-3.38 -1.76,-3.97 -1.48,-3.4 -0.92,-3.86 -1.68,-6.99 -0.46,-1.9 -3.39,-1.68 -4.28,-2.27l-0.38 -0.29z"/>
   <path class="fil7" d="M173.95 39.54c3.55,-0.04 20.11,8.4 20.15,8.37 0.59,-0.34 0.21,-0.68 -0.82,-1.65 -1.03,-0.98 -2.45,-2.12 -4.16,-3.18 -1.71,-1.07 -3.7,-2.06 -5.53,-2.86 -1.83,-0.8 -3.5,-1.4 -5.07,-1.74 -1.56,-0.34 -3.02,-0.41 -4.25,-0.34 -1.23,0.07 -3.87,1.44 -0.32,1.41zm-65.2 -2.21c-0.55,0.99 -2.75,5.76 -2.04,6.65 0.52,0.65 2.19,-3.1 2.42,-3.5 8.55,-14.73 20.84,-14.76 21.54,-13.9 0.05,0.06 -2.21,-2.56 -9.25,-0.33 -4.22,1.34 -8.3,4.59 -10.87,8.16 -0.67,0.95 -1.25,1.91 -1.82,2.93z"/>
  </g>
 </g>
</svg>
