<?xml version="1.0" encoding="UTF-8"?>
<!DOCTYPE svg PUBLIC "-//W3C//DTD SVG 1.1//EN" "http://www.w3.org/Graphics/SVG/1.1/DTD/svg11.dtd">
<!-- Creator: CorelDRAW -->
<svg xmlns="http://www.w3.org/2000/svg" xml:space="preserve" width="33.8667mm" height="17.2197mm" version="1.1" style="shape-rendering:geometricPrecision; text-rendering:geometricPrecision; image-rendering:optimizeQuality; fill-rule:evenodd; clip-rule:evenodd"
viewBox="0 0 217.58 110.63"
 xmlns:xlink="http://www.w3.org/1999/xlink"
 xmlns:xodm="http://www.corel.com/coreldraw/odm/2003">
 <defs>
  <style type="text/css">
   <![CDATA[
    .fil2 {fill:#0098DA}
    .fil0 {fill:black}
    .fil3 {fill:#373435;fill-rule:nonzero}
    .fil4 {fill:black;fill-rule:nonzero}
    .fil1 {fill:url(#id0)}
   ]]>
  </style>
  <linearGradient id="id0" gradientUnits="userSpaceOnUse" x1="16.07" y1="67.27" x2="16.07" y2="100.33">
   <stop offset="0" style="stop-opacity:1; stop-color:#00CCFF"/>
   <stop offset="1" style="stop-opacity:1; stop-color:#000066"/>
  </linearGradient>
 </defs>
 <g id="Camada_x0020_1">
  <metadata id="CorelCorpID_0Corel-Layer"/>
  <g id="_1315317349904">
   <polygon class="fil0" points="27.14,101.13 18.34,110.63 9.54,101.13 "/>
   <path class="fil1" d="M-0 59.47l36.68 0 0 31.36 -4.78 5.17 -0.2 -7.51c-2.54,0 -5.08,0 -7.62,0 -0.59,3.8 -2.48,5.25 -7.09,5.25 0,-2.97 0,-5.93 0,-8.9 3,0 6.01,0 9.01,0 0,-1.95 0,-3.9 0,-5.85 -3,0 -6.01,0 -9.01,0 0,-2.85 0,-5.7 0,-8.54 4.12,0 6.25,-0.18 7.09,4.52 2.54,0 5.08,0 7.62,0 0,-3.6 0,-7.21 0,-10.82 -9.1,0 -18.21,0 -27.31,0 0,2.09 0,3.81 0,5.89 1.96,0 1.97,0.7 1.97,7.51l0 12.25c0,4 -1.31,3.94 -1.97,4.07l0 1.72 -4.38 -4.75 0 -31.36z"/>
   <polygon class="fil0" points="42.06,88.83 141.33,88.83 141.33,91.62 42.06,91.62 "/>
   <polygon class="fil2" points="85.05,0 127.84,0 127.84,44.12 85.05,44.12 "/>
   <path class="fil3" d="M145.01 87c2.08,0 4.29,-0.47 3.98,2.58 -0.3,2.93 -2.48,2.49 -4.49,2.49l0.52 -5.07zm0.94 0.86l-0.34 3.35c1.43,0 2.14,0.18 2.33,-1.68 0.19,-1.82 -0.64,-1.68 -1.99,-1.68zm4.07 0.04l0.09 -0.9 0.97 0 -0.09 0.9 -0.97 0zm-0.43 4.17l0.38 -3.67 0.97 0 -0.38 3.67 -0.97 0zm1.73 -1.03l0.99 -0.15c0.15,1.26 2.37,0.16 1.1,-0.14 -1.05,-0.24 -1.89,-0.41 -1.79,-1.3 0.14,-1.42 2.92,-1.62 3.19,-0.15l-0.93 0.17c-0.14,-0.83 -1.76,-0.36 -1.27,0.04 0.44,0.35 2.28,0.18 2.16,1.43 -0.16,1.56 -3.19,1.73 -3.44,0.11zm6.23 -2.64l-0.08 0.77 -0.66 0c-0.2,1.97 -0.45,2.41 0.45,2.09l0 0.76c-0.49,0.2 -1.57,0.35 -1.63,-0.55l0.2 -2.3 -0.45 0 0.08 -0.77 0.45 0 0.07 -0.73 1.03 -0.57 -0.13 1.3 0.67 0zm1.23 3.67l-0.97 0 0.38 -3.67 0.9 0 -0.05 0.52c0.42,-0.57 0.89,-0.81 1.52,-0.42l-0.39 0.85c-1.3,-0.9 -1.29,1.81 -1.39,2.72zm2.25 -4.17l0.09 -0.9 0.97 0 -0.09 0.9 -0.97 0zm-0.43 4.17l0.38 -3.67 0.97 0 -0.38 3.67 -0.97 0zm1.92 0l0.52 -5.07 0.97 0 -0.19 1.83c0.95,-0.97 2.67,-0.6 2.47,1.37 -0.21,2.08 -2.11,2.47 -2.82,1.33l-0.06 0.54 -0.9 0zm1.15 -1.91c-0.17,1.64 1.46,1.66 1.62,0.09 0.17,-1.66 -1.47,-1.53 -1.62,-0.09zm5.64 1.91l0.06 -0.55c-0.67,0.85 -2.56,1.12 -2.36,-0.79l0.24 -2.33 0.97 0c-0.16,1.6 -0.58,3.02 0.3,3.02 1.08,0 0.95,-1.54 1.1,-3.02l0.97 0 -0.38 3.67 -0.9 0zm2.32 -4.17l0.09 -0.9 0.97 0 -0.09 0.9 -0.97 0zm-0.43 4.17l0.38 -3.67 0.97 0 -0.38 3.67 -0.97 0zm5.34 0l-0.9 0 0.05 -0.54c-0.95,1.16 -2.76,0.71 -2.56,-1.3 0.21,-2.02 2.01,-2.36 2.76,-1.4l0.19 -1.83 0.97 0 -0.52 5.07zm-2.4 -1.91c-0.18,1.74 1.46,1.57 1.61,0.09 0.17,-1.67 -1.47,-1.53 -1.61,-0.09zm3.32 0.03c0.25,-2.46 4.05,-2.54 3.78,0.04 -0.26,2.5 -4.06,2.68 -3.78,-0.04zm0.99 0.05c-0.15,1.51 1.64,1.52 1.79,-0.01 0.15,-1.51 -1.64,-1.51 -1.79,0.01zm4.29 1.83l-0.97 0 0.38 -3.67 0.9 0 -0.05 0.52c0.42,-0.57 0.89,-0.81 1.52,-0.42l-0.39 0.85c-1.3,-0.9 -1.29,1.81 -1.39,2.72zm2.81 -2.54l-0.86 -0.16c0.58,-1.52 2.76,-1.19 3.06,-0.51 0.28,0.63 -0.37,2.21 0.01,3.21l-0.96 0 -0.09 -0.4c-1.85,1.66 -3.7,-1.22 -0.83,-1.75 0.46,-0.08 0.79,-0.17 0.97,-0.24 0.09,-0.9 -1,-0.8 -1.29,-0.16zm1.22 0.79c-0.18,0.06 -1.94,0.27 -1.26,1.01 0.19,0.2 1.12,0.38 1.24,-0.82l0.02 -0.19zm7.07 1.76l-0.9 0 0.06 -0.54c-0.95,1.16 -2.76,0.71 -2.56,-1.3 0.21,-2.02 2.01,-2.36 2.76,-1.4l0.19 -1.83 0.97 0 -0.52 5.07zm-2.4 -1.91c-0.18,1.74 1.46,1.57 1.61,0.09 0.17,-1.67 -1.47,-1.53 -1.61,-0.09zm5.59 0.75l0.95 0.16c-0.74,1.64 -3.53,1.55 -3.29,-0.81 0.26,-2.56 3.77,-2.8 3.4,0.25l-2.43 0c-0.08,1.02 1.03,1.26 1.37,0.39zm0.16 -0.98c0.09,-1.2 -1.34,-1.11 -1.45,0l1.45 0zm4.49 -0.4l-0.86 -0.16c0.58,-1.52 2.76,-1.19 3.06,-0.51 0.28,0.63 -0.37,2.21 0.01,3.21l-0.96 0 -0.09 -0.4c-1.85,1.66 -3.7,-1.22 -0.83,-1.75 0.46,-0.08 0.79,-0.17 0.97,-0.24 0.09,-0.9 -1,-0.8 -1.29,-0.16zm1.22 0.79c-0.18,0.06 -1.94,0.27 -1.26,1.01 0.19,0.2 1.12,0.38 1.24,-0.82l0.02 -0.19zm-0.95 -2.39l0.59 -1.03 1.08 0c-1.23,1.19 -0.85,1.03 -1.67,1.03zm2.57 4.38l1.1 0.13c0.02,0.5 1.29,0.73 1.42,-0.43l0.06 -0.54c-0.96,1.15 -2.68,0.63 -2.49,-1.26 0.21,-2.02 2.11,-2.39 2.81,-1.3l0.05 -0.52 0.91 0 -0.54 4.26c-0.57,1.31 -3.56,1.29 -3.31,-0.36zm1.09 -2.14c-0.16,1.59 1.48,1.43 1.63,0.02 0.15,-1.51 -1.47,-1.52 -1.63,-0.02zm5.78 1.91l0.06 -0.55c-0.67,0.85 -2.56,1.12 -2.36,-0.79l0.24 -2.33 0.97 0c-0.16,1.6 -0.58,3.02 0.3,3.02 1.08,0 0.95,-1.54 1.1,-3.02l0.97 0 -0.38 3.67 -0.9 0zm2.88 -2.54l-0.86 -0.16c0.58,-1.52 2.76,-1.19 3.06,-0.51 0.28,0.63 -0.37,2.21 0.01,3.21l-0.96 0 -0.09 -0.4c-1.85,1.66 -3.7,-1.22 -0.83,-1.75 0.46,-0.08 0.79,-0.17 0.97,-0.24 0.09,-0.9 -1,-0.8 -1.29,-0.16zm1.22 0.79c-0.18,0.06 -1.94,0.27 -1.26,1.01 0.19,0.2 1.12,0.38 1.24,-0.82l0.02 -0.19z"/>
   <path class="fil4" d="M56.54 76.52l-3.77 0 0 -3.09 3.77 0 4.42 -5.16 3.82 0 -5.63 6.64 5.63 6.78 -3.82 0 -4.42 -5.16zm-5.49 0l-4.42 5.16 -3.82 0 5.63 -6.78 -5.63 -6.64 3.82 0 4.42 5.16 0 3.09zm16.22 -4.7l0 -3.55 17.57 0.02c2.33,-0.01 4.4,0.99 4.4,3.53 0,2.81 0.13,4.7 -4.42,4.7l-14.06 0 0 5.16 -3.49 0 0 -8.34 18.34 0 0 -1.52 -18.34 0zm36.66 1.66l-1.23 -1.66 -4.26 0 2.51 -3.55 3.54 0 9.22 13.41 -3.49 0 -3.96 -5.16 -6.98 0 -4.05 5.16 -3.49 0 5.68 -8.21 6.52 0zm15.76 8.21l-3.49 0 0 -13.41 17.57 0.02c2.15,0 4.4,1.25 4.4,3.34l0 10.05 -3.49 0 0.02 -8.11c-0.11,-0.98 -1.61,-1.75 -3.03,-1.75l-12.03 0 0.05 9.86zm20.97 -3.55l0 3.55 17.57 -0.02c2.33,0.01 4.4,-0.99 4.4,-3.53 0,-2.81 0.13,-4.7 -4.42,-4.7l-17.55 0c0.07,2.35 2.14,3.16 4.38,3.18l13.97 0 0 1.52 -18.34 0zm0 -6.31c0,-2.37 2.22,-3.55 4.4,-3.55l17.57 0 0 3.55c-7.32,0 -14.65,0 -21.97,0zm27.95 -3.55l0 3.55 -3.49 0 0 -3.55 3.49 0zm0 13.41l-3.49 0 0 -8.39 3.49 0 0 8.39zm6.03 -13.41l-3.49 0 9.22 13.41 3.54 0 9.22 -13.41 -3.49 0 -7.52 9.86 -7.47 -9.86zm33.17 5.21l-1.23 -1.66 -4.26 0 2.51 -3.55 3.54 0 9.22 13.41 -3.49 0 -3.96 -5.16 -6.98 0 -4.05 5.16 -3.49 0 5.68 -8.21 6.52 0z"/>
  </g>
 </g>
</svg>
