<?xml version="1.0" encoding="UTF-8"?>
<!DOCTYPE svg PUBLIC "-//W3C//DTD SVG 1.1//EN" "http://www.w3.org/Graphics/SVG/1.1/DTD/svg11.dtd">
<!-- Creator: CorelDRAW -->
<svg xmlns="http://www.w3.org/2000/svg" xml:space="preserve" width="33.8666mm" height="25.4249mm" version="1.1" style="shape-rendering:geometricPrecision; text-rendering:geometricPrecision; image-rendering:optimizeQuality; fill-rule:evenodd; clip-rule:evenodd"
viewBox="0 0 1951.13 1464.78"
 xmlns:xlink="http://www.w3.org/1999/xlink"
 xmlns:xodm="http://www.corel.com/coreldraw/odm/2003">
 <defs>
  <style type="text/css">
   <![CDATA[
    .fil2 {fill:#ED3237}
    .fil3 {fill:#B83940}
    .fil1 {fill:#00AFEF}
    .fil6 {fill:#0090D3}
    .fil0 {fill:#006633}
    .fil5 {fill:#F2A33C}
    .fil4 {fill:#F5B831}
    .fil7 {fill:#ED3237;fill-rule:nonzero}
    .fil8 {fill:#006633;fill-rule:nonzero}
   ]]>
  </style>
 </defs>
 <g id="Camada_x0020_1">
  <metadata id="CorelCorpID_0Corel-Layer"/>
  <g id="_2339729469744">
   <polygon class="fil0" points="795.97,644.5 924.95,810.87 1322.18,479.41 1375.7,529.71 923.65,1053.99 692.15,752.19 "/>
   <path class="fil1" d="M891.71 709.74l86.73 56.49 343.74 -286.82 53.53 50.3 -261.37 303.13c126.44,76.37 185.17,51.49 243.3,-70.97 10.53,-21.73 24.83,-26.65 72.22,-36.76 88.99,-21.17 185.08,-61.78 263.75,-122.51 54.98,-52.05 18.59,-82.41 -28.37,-110.27 -128.22,-49.61 -151.49,-111.16 -128.33,-177.98 33.04,-161.36 -40.35,-223.24 -192.82,-190.07 12.68,24.51 26.01,46.27 38.69,70.78 33.45,72 -4.57,100.45 -65.78,114.79 -44.52,13.19 -62.54,47.97 -83.19,80.61 -62.03,134.46 -153.47,106.04 -241.84,76.28l0 0c36.36,49.1 -17.13,89.49 -84.47,128.55 -87.39,43.95 -74.6,80.82 -15.79,114.45z"/>
   <path class="fil2" d="M571.43 178.23c4.32,-63.05 13.74,-122.82 106.43,-128.69 100.49,-2.85 385.41,-99.07 429.47,-15.48 20.04,32.2 40.16,53.92 147.04,58.04 49,-1.21 81.98,7.6 89.72,32.18 -79.75,19.11 -163,31.69 -254.78,28.44 -103.82,2.79 -95.44,-47.93 -181.85,-12.9 -87.18,63.63 -115.26,114.13 -94.12,153.69 -49.21,-8.42 -79.76,-32.84 -92.86,-72.22 -39.51,-31.44 -77.11,-41.2 -137.26,-41.69 -4,-0.48 -7.93,-0.93 -11.79,-1.35z"/>
   <path class="fil3" d="M813.33 293.5c-21.14,-39.56 6.94,-90.05 94.12,-153.69 86.41,-35.03 78.02,15.69 181.85,12.9 91.78,3.26 175.04,-9.33 254.78,-28.44 12.68,24.51 26.01,46.27 38.69,70.78 33.45,72 -4.57,100.45 -65.78,114.79 -44.52,13.19 -62.54,47.97 -83.19,80.61 -62.03,134.46 -153.47,106.04 -241.84,76.28l0.01 0.01c-41.19,-56.27 -110.96,-98.68 -178.64,-173.25z"/>
   <path class="fil4" d="M583.22 179.59c-104.34,-12.71 -165.52,-3.08 -149.03,101.63 8.23,81.78 -27.99,85.04 -119.94,85.12 -160.06,19.56 -156.57,116.51 -24.5,166.37 45.27,20.94 115.07,37.1 199.9,50.3 27.75,18.04 55.73,32.1 79.96,111.57 -1.62,55.71 20.19,96.16 89.95,105.44 28.03,7.14 49.34,4.49 66.34,-3.83l-33.75 -43.99 103.82 -107.69 57.85 74.64c12.12,-4.16 24.7,-7.38 37.88,-9.4 -58.8,-33.63 -71.6,-70.51 15.79,-114.45 68.11,-39.51 122.07,-80.39 83.18,-130.26 -20.26,-34.75 -118.95,-107.18 -177.35,-171.53 -49.21,-8.42 -79.76,-32.84 -92.86,-72.22 -39.51,-31.44 -77.11,-41.2 -137.26,-41.69z"/>
   <path class="fil5" d="M571.43 178.23c-5.33,36.53 0.81,75.41 26.23,91.42 20.59,10.61 57.85,9.97 90.28,15.48 26.7,3.63 47.47,28.4 41.27,52.23 -16.6,54.56 -15.9,101.52 38.05,125.1 60.38,26.92 144.99,-1.28 225.97,6 -42.13,-60.06 -126.94,-116.64 -179.88,-174.97 -49.21,-8.42 -79.76,-32.84 -92.86,-72.22 -39.51,-31.44 -77.11,-41.2 -137.26,-41.69 -4,-0.48 -7.93,-0.93 -11.79,-1.35z"/>
   <path class="fil6" d="M1114.17 491.11c-6.25,41.79 -20.3,141.67 -3.07,164.43 -29.66,24.76 -59.33,49.51 -89,74.27 -31.92,-16.75 -71.82,-26.54 -130.39,-20.07 -58.8,-33.63 -71.6,-70.51 15.79,-114.45 71.49,-41.47 103.51,-52.4 84.47,-128.55 41.16,13.86 82.99,27.42 122.21,24.38zm-123.41 -25.98c0.83,1.07 1.68,2.16 0,0z"/>
   <path class="fil7" d="M241.44 1196.37l0 -83.71c10.17,0 40.74,-0.52 49.21,0.8 25.19,3.91 26.55,29.32 14.21,41.39 -5.01,4.93 -14.12,7.39 -27.27,7.39l-23.83 0 0 34.14 -12.32 0zm12.32 -43.96l24.01 0c12.23,0 21.92,-3.17 21.92,-15.26 0,-6.87 -4.18,-12.35 -10.7,-13.93 -4.75,-1.15 -28.72,-0.74 -35.22,-0.74l0 29.94zm111.84 43.96l0 -83.71 41.17 0c12.6,0 23,1.08 29.19,10.21 5.79,8.55 5.24,20.19 -2.55,27.63 -4.26,4.07 -10.83,6.65 -19.74,7.75 7.89,3.39 12.49,8.13 17.58,15.32l16.06 22.8 -15.35 0c-5.78,-8.19 -20.22,-30.41 -27.38,-34.57 -4.17,-2.43 -6.88,-2.61 -12.43,-2.61l-14.22 0 0 37.18 -12.33 0zm12.33 -46.76c9.3,0 32.11,0.87 39.52,-1.58 13.45,-4.44 15.51,-26.13 -10.16,-26.13l-29.36 0 0 27.71zm118.73 46.76l0 -83.71 67.08 0 0 9.82 -54.75 0 0 25.72 51.25 0 0 9.82 -51.25 0 0 28.53 56.96 0 0 9.82 -69.28 0zm124.3 0l0 -83.71 62.66 0 0 9.82 -50.34 0 0 26.08 43.6 0 0 9.82 -43.6 0 0 38 -12.32 0zm116.23 0l0 -83.71 67.08 0 0 9.82 -54.75 0 0 25.72 51.25 0 0 9.82 -51.25 0 0 28.53 56.96 0 0 9.82 -69.28 0zm125.73 0l0 -83.71 12.32 0 0 83.71 -12.32 0zm94.95 0l0 -73.89 -30.62 0 0 -9.82 73.56 0 0 9.82 -30.62 0 0 73.89 -12.32 0zm153.85 -83.71l12.33 0 0 48.34c0,14.62 -2.43,25.27 -14.58,32.11 -12.96,7.3 -45.92,8.16 -54.79,-11.12 -2.36,-5.12 -3.54,-12.12 -3.54,-20.99l0 -48.34 12.32 0 0 48.33c0,11.2 1.15,19.55 9.95,24.05 9.05,4.62 26.02,3.6 32.59,-2.73 3.83,-3.7 5.73,-10.8 5.73,-21.32l0 -48.33zm70.48 83.71l0 -83.71 41.17 0c12.6,0 23,1.08 29.19,10.21 5.79,8.55 5.24,20.19 -2.55,27.63 -4.26,4.07 -10.83,6.65 -19.74,7.75 7.89,3.39 12.49,8.13 17.58,15.32l16.06 22.8 -15.35 0c-5.78,-8.19 -20.22,-30.41 -27.38,-34.57 -4.17,-2.43 -6.88,-2.61 -12.43,-2.61l-14.22 0 0 37.18 -12.33 0zm12.33 -46.76c9.3,0 32.11,0.87 39.52,-1.58 13.45,-4.44 15.51,-26.13 -10.16,-26.13l-29.36 0 0 27.71zm108.29 46.76l35.63 -83.71 13.52 0 37.82 83.71 -13.99 0 -10.75 -25.37 -39.11 0 -10.08 25.37 -13.04 0zm26.73 -34.37l31.65 0c-4.94,-11.84 -12.62,-29.53 -16.34,-40.69 -2.96,12.66 -10.17,28.29 -15.31,40.69zm172.29 34.37l0 -83.71c10.69,0 39.78,-0.65 48.54,1.19 33.44,7 33.62,51.71 19.46,69.31 -8.67,10.78 -20.5,13.21 -34.49,13.21l-33.52 0zm12.33 -9.82c9.1,0 26.74,0.67 34.2,-1.54 13.68,-4.06 17.56,-17.4 17.56,-31.12 0,-13.76 -4.64,-25.59 -16.39,-29.7 -6.89,-2.41 -26.25,-1.72 -35.37,-1.72l0 64.08zm108.55 9.82l35.63 -83.71 13.52 0 37.82 83.71 -13.99 0 -10.74 -25.37 -39.12 0 -10.08 25.37 -13.04 0zm26.73 -34.37l31.66 0c-4.94,-11.83 -12.63,-29.54 -16.35,-40.69 -2.96,12.67 -10.17,28.28 -15.31,40.69z"/>
   <path class="fil8" d="M-0 1347.46c0,-72.53 68.05,-115.14 134.43,-114.53 28.14,0.25 75.29,22.27 79.26,34.05l-38.38 50.28c0,0.74 -26.08,-20.58 -35.96,-21.68 -57.98,-6.44 -72.29,43.07 -59.29,74.9 17.11,41.9 77.9,36.19 77.9,34.71l0 -28.33 -41.98 0 0 -49.01 108.13 0 0 104.05c0.81,2.51 -49.48,25.19 -52.12,25.81 -32.93,7.69 -51.67,11.49 -88.66,-1.22 -48.09,-16.51 -83.34,-56.23 -83.34,-109.04z"/>
   <polygon class="fil8" points="575.41,1239.43 622.22,1315.81 669.91,1239.43 743.47,1239.43 743.47,1459.33 673.53,1459.33 672.88,1348.68 621.91,1430.31 569.93,1346.1 569.62,1459.65 498.89,1459.33 498.89,1239.43 "/>
   <polygon class="fil8" points="961.53,1238.23 961.53,1298.25 844.06,1298.25 844.06,1321.83 953.87,1321.83 953.87,1373.99 844.06,1373.99 844.06,1398.98 961.53,1398.98 961.53,1459.01 773.4,1459.01 773.4,1238.23 "/>
   <polygon class="fil8" points="1054.88,1238.03 1054.88,1395.29 1157.93,1395.93 1157.93,1459.66 983.08,1459.01 983.08,1238.03 "/>
   <polygon class="fil8" points="1458.39,1237.73 1458.39,1456.48 1386.53,1456.48 1386.53,1237.73 "/>
   <path class="fil8" d="M1621.09 1243.19c36.47,0 73.47,22.32 73.47,64.41 0,39.31 -11.6,55.41 -44.17,72.06l47.31 76.19 -79.27 3.27 -41.42 -64.56 -17.89 -0.48 0.48 66.17 -74.61 -1.12 0 -215.93 136.09 0zm-61.67 98.59c10.13,0 36.98,1.26 44.37,-1.62 20.22,-7.88 21.19,-39.8 -9.18,-40.74l-35.19 -0.22 0 42.58z"/>
   <path class="fil8" d="M1951.13 1455.85l-75.17 0 -14.85 -29.35 -73.37 0 -14.85 29.35 -75.17 0 87.33 -216.79 2.7 -2.86 73.82 0 89.58 219.65zm-126.49 -136.94c-3.45,1.58 -20.52,51.22 -23.86,58.28l47.26 0 -23.41 -58.28z"/>
   <path class="fil8" d="M484.55 1455.85l-75.18 0 -14.85 -29.35 -73.37 0 -14.85 29.35 -75.18 0 87.33 -216.79 2.7 -2.86 73.82 0 89.58 219.65zm-126.49 -136.94c-3.45,1.58 -20.52,51.22 -23.85,58.28l47.26 0 -23.41 -58.28z"/>
   <polygon class="fil8" points="1361.34,1238.23 1361.34,1298.25 1243.87,1298.25 1243.87,1321.83 1353.68,1321.83 1353.68,1373.99 1243.87,1373.99 1243.87,1398.98 1361.34,1398.98 1361.34,1459.01 1173.2,1459.01 1173.2,1238.23 "/>
  </g>
 </g>
</svg>
