<?xml version="1.0" encoding="UTF-8"?>
<!DOCTYPE svg PUBLIC "-//W3C//DTD SVG 1.1//EN" "http://www.w3.org/Graphics/SVG/1.1/DTD/svg11.dtd">
<!-- Creator: CorelDRAW -->
<svg xmlns="http://www.w3.org/2000/svg" xml:space="preserve" width="89.403mm" height="57.1578mm" version="1.1" style="shape-rendering:geometricPrecision; text-rendering:geometricPrecision; image-rendering:optimizeQuality; fill-rule:evenodd; clip-rule:evenodd"
viewBox="0 0 2730.85 1745.9"
 xmlns:xlink="http://www.w3.org/1999/xlink"
 xmlns:xodm="http://www.corel.com/coreldraw/odm/2003">
 <defs>
  <style type="text/css">
   <![CDATA[
    .fil1 {fill:yellow;fill-rule:nonzero}
    .fil0 {fill:white;fill-rule:nonzero}
   ]]>
  </style>
 </defs>
 <g id="Camada_x0020_1">
  <metadata id="CorelCorpID_0Corel-Layer"/>
  <g id="_1271814340496">
   <path class="fil0" d="M203.86 942.54l-64.11 -11.51 16.32 -90.91 131.02 23.52c16.09,20.86 26.46,38.59 31.02,53.17 4.55,14.63 5.15,31.1 1.86,49.44 -4.05,22.59 -13.6,39.9 -28.63,51.88 -14.96,11.99 -35.51,19.69 -61.59,23.1 -26.01,3.43 -55.03,2.24 -86.95,-3.49 -33.63,-6.04 -62.05,-15.57 -85.4,-28.59 -23.28,-13 -39.89,-28.93 -49.83,-47.77 -7.65,-14.68 -9.48,-32.93 -5.57,-54.73 3.77,-21 9.68,-36.17 17.71,-45.48 8.04,-9.35 19.13,-16.27 33.35,-20.81 14.21,-4.54 31.57,-6.77 52.05,-6.66l6.33 59.58c-12.11,0.25 -21.78,2.58 -28.95,7.06 -7.24,4.46 -11.6,11 -13.16,19.68 -2.31,12.85 3.09,24.43 16.2,34.69 13.11,10.26 35.37,18.19 66.71,23.82 33.28,5.97 57.78,6.39 73.44,1.2 15.65,-5.15 24.77,-14.67 27.25,-28.49 1.18,-6.56 0.79,-13.07 -1.22,-19.61 -2.02,-6.49 -6.03,-14.25 -11.96,-23.27l-28.83 -5.17 -7.06 39.34zm143.15 -105.15l-263.8 -168.46 53.58 -83.91c9.93,-15.55 19.69,-26.09 29.28,-31.5 9.55,-5.49 21.84,-6.99 36.73,-4.58 14.95,2.45 30.86,9.08 47.68,19.82 14.62,9.33 26.03,19.35 34.18,30 8.24,10.65 13.44,21.46 15.74,32.48 1.44,6.95 1.16,15.1 -0.85,24.34 7.08,-3.92 13.06,-6.24 18.06,-6.89 3.31,-0.45 9.7,-0.16 19.01,0.82 9.29,1.02 16.26,2.16 20.88,3.45l91.83 24.2 -36.34 56.9 -97.62 -24.48c-12.62,-3.25 -21.31,-4.53 -26.14,-3.88 -6.38,1.05 -11.05,3.89 -13.98,8.49l-2.83 4.44 106.85 68.23 -32.27 50.53zm-124.32 -150.52l13.59 -21.28c1.45,-2.28 3.09,-7.54 4.91,-15.67 1.09,-4 0.07,-8.5 -3.08,-13.45 -3.13,-4.99 -7.54,-9.3 -13.32,-12.99 -8.53,-5.45 -16.17,-7.98 -22.85,-7.54 -6.74,0.4 -13.01,5.2 -18.89,14.42l-14.15 22.15 53.79 34.35zm122.82 -337.02l44.34 -39.95 124.79 138.53c12.34,13.7 22.71,27.89 31.04,42.45 8.38,14.61 13.84,29.02 16.43,43.25 2.59,14.24 2.43,25.96 -0.39,35.27 -4,12.92 -12.02,24.85 -24.09,35.73 -6.99,6.3 -15.34,12.35 -25.02,18.22 -9.67,5.87 -19.42,8.97 -29.22,9.26 -9.79,0.29 -20.87,-1.79 -33.26,-6.32 -12.42,-4.5 -23.61,-10.6 -33.6,-18.27 -16.05,-12.31 -29.23,-24.17 -39.52,-35.59l-124.8 -138.53 44.34 -39.95 127.77 141.83c11.41,12.67 22.51,20.62 33.21,23.82 10.78,3.23 20.02,1.38 27.71,-5.55 7.59,-6.84 10.41,-15.75 8.42,-26.7 -1.98,-10.87 -8.78,-22.79 -20.38,-35.67l-127.77 -141.83zm134.42 -106.01l86.84 -48.31c18.92,-10.53 37.12,-11.15 54.67,-1.82 17.51,9.35 33.78,27.48 48.76,54.41 15.38,27.63 22.27,52.15 20.64,73.39 -1.59,21.31 -12.96,37.81 -34.04,49.54l-28.63 15.93 56.32 101.24 -52.39 29.15 -152.17 -273.53zm117.42 87.75l12.86 -7.15c10.15,-5.64 15.67,-12.47 16.61,-20.41 0.94,-7.94 -1.06,-16.34 -5.98,-25.19 -4.78,-8.59 -10.59,-14.87 -17.5,-18.86 -6.87,-4.02 -15.22,-3.29 -25.05,2.18l-14.95 8.31 34 61.12zm143.93 -52.01c-17.41,-48.02 -22.72,-88.41 -15.86,-121.12 6.83,-32.78 25.01,-54.48 54.54,-65.19 30.25,-10.97 58.34,-6.27 84.22,14.02 25.91,20.37 47.44,54.25 64.6,101.59 12.47,34.38 19.12,63.82 19.94,88.41 0.82,24.58 -3.34,45.46 -12.39,62.62 -9.1,17.17 -23.72,29.37 -43.91,36.69 -20.48,7.43 -39.36,8.3 -56.64,2.63 -17.26,-5.75 -34.24,-18.51 -50.87,-38.36 -16.61,-19.79 -31.18,-46.9 -43.65,-81.28zm56.18 -20.14c10.75,29.66 21.93,49.79 33.43,60.26 11.55,10.46 23.22,13.59 34.98,9.33 12.06,-4.37 19.14,-14.15 21.15,-29.21 2.02,-15.15 -2.92,-39.09 -14.87,-72.04 -10.03,-27.67 -20.83,-46.62 -32.35,-56.86 -11.58,-10.29 -23.25,-13.27 -35.09,-8.98 -11.34,4.11 -18.12,13.93 -20.28,29.37 -2.2,15.45 2.17,38.2 13.02,68.13zm268.28 -233.71l88.1 -11.14c17.33,-2.19 31.88,-0.14 43.51,6.1 11.64,6.31 21.86,16.11 30.67,29.46 8.78,13.43 15.91,29.34 21.44,47.89 5.56,18.54 9.66,38.36 12.34,59.55 4.19,33.18 5.13,59.2 2.75,78.09 -2.33,18.87 -6.87,35.02 -13.61,48.43 -6.74,13.41 -14.59,22.78 -23.58,28.1 -12.28,7.28 -23.71,11.59 -34.25,12.92l-88.1 11.14 -39.26 -310.53zm68.09 62.77l21.44 169.58 14.56 -1.84c12.41,-1.57 20.97,-4.93 25.68,-10 4.66,-5.14 7.79,-13.4 9.38,-24.83 1.58,-11.51 0.79,-29.62 -2.36,-54.49 -4.16,-32.89 -10.3,-54.95 -18.49,-66.26 -8.19,-11.3 -19.99,-15.98 -35.39,-14.03l-14.83 1.88zm186.17 -88.5l159.84 2.86 -1.2 66.88 -99.9 -1.79 -0.89 49.83 92.61 1.66 -1.14 63.82 -92.61 -1.66 -1.1 61.63 102.87 1.84 -1.27 70.81 -162.81 -2.91 5.6 -312.96zm319.56 23.38l61.2 12.3 -1.69 229.45 86.5 -212.4 59.44 11.95 -132.08 292.72 -63.45 -12.76 -9.92 -321.27zm277.31 346.19l-62.69 -25.52 -28.46 44.11 -56.48 -22.99 185.42 -262.47 60.57 24.66 -50.9 317.23 -57.94 -23.59 10.49 -51.43zm13.83 -67.53l22.86 -112.15 -62.05 96.2 39.18 15.95zm52.33 152.44l163.63 -266.83 84.87 52.05c15.73,9.65 26.45,19.21 32.03,28.7 5.66,9.45 7.38,21.71 5.25,36.64 -2.17,14.99 -8.52,31.02 -18.95,48.04 -9.07,14.78 -18.87,26.38 -29.37,34.72 -10.5,8.43 -21.2,13.83 -32.19,16.33 -6.92,1.56 -15.08,1.44 -24.35,-0.41 4.04,7.01 6.48,12.95 7.22,17.93 0.51,3.3 0.34,9.69 -0.47,19.02 -0.85,9.31 -1.86,16.3 -3.07,20.94l-22.52 92.26 -57.55 -35.29 22.7 -98.05c3.02,-12.68 4.15,-21.39 3.4,-26.21 -1.17,-6.36 -4.09,-10.97 -8.74,-13.82l-4.49 -2.75 -66.27 108.07 -51.11 -31.34zm148.24 -127.04l21.53 13.2c2.3,1.41 7.59,2.94 15.75,4.62 4.02,1.01 8.5,-0.09 13.39,-3.33 4.93,-3.22 9.16,-7.71 12.74,-13.55 5.3,-8.63 7.69,-16.31 7.13,-22.98 -0.52,-6.73 -5.44,-12.91 -14.77,-18.63l-22.41 -13.74 -33.37 54.41zm133.49 123.42c36.04,-36.2 70.32,-58.19 102.84,-65.92 32.57,-7.77 59.95,-0.57 82.21,21.6 22.81,22.7 30.51,50.12 23.17,82.18 -7.4,32.12 -28.9,66.03 -64.42,101.7 -25.8,25.92 -49.61,44.47 -71.5,55.68 -21.89,11.21 -42.56,16.34 -61.93,15.45 -19.41,-0.92 -36.68,-8.96 -51.89,-24.11 -15.44,-15.37 -24.27,-32.08 -26.5,-50.13 -2.14,-18.07 2.17,-38.86 13.06,-62.36 10.83,-23.45 29.16,-48.18 54.97,-74.1zm42.14 42.26c-22.26,22.36 -35.71,41.04 -40.29,55.91 -4.55,14.9 -2.42,26.79 6.45,35.62 9.09,9.05 20.95,11.3 35.44,6.7 14.57,-4.62 34.12,-19.28 58.85,-44.12 20.77,-20.86 33.32,-38.69 37.68,-53.48 4.38,-14.86 2.11,-26.68 -6.82,-35.58 -8.55,-8.51 -20.32,-10.46 -35.2,-5.85 -14.92,4.58 -33.64,18.22 -56.11,40.79zm213.28 -118.93l14.74 14.67c-2.56,2.7 -4.79,5 -6.69,6.91 -11.16,11.2 -21.6,18.18 -31.19,20.87 -9.59,2.68 -17.17,1.3 -22.63,-4.13 -3.99,-3.97 -7.4,-12.61 -10.25,-25.94 -1.73,-8.09 -3.51,-13.06 -5.39,-14.93 -1.79,-1.78 -4.11,-2.25 -6.9,-1.42 -2.79,0.82 -6.52,3.49 -11.21,8.07l-14.55 -14.48c2.35,-2.49 4.43,-4.64 6.28,-6.5 10.79,-10.84 21.23,-17.62 31.22,-20.32 10.04,-2.75 17.57,-1.63 22.61,3.38 2.17,2.16 3.83,4.63 4.97,7.32 1.12,2.76 2.5,8.45 4.21,17.14 1.65,8.74 3.7,14.27 6.06,16.63 1.66,1.65 3.96,2.09 6.83,1.24 2.87,-0.84 6.84,-3.68 11.9,-8.51zm68.89 205.52l77.79 139.67 -58.43 32.55 -48.62 -87.3 -43.54 24.25 45.07 80.92 -55.76 31.06 -45.07 -80.92 -53.85 29.99 50.06 89.89 -61.87 34.46 -79.23 -142.26 273.46 -152.3zm-87.07 296.58l15.69 54.8c-14.41,3.82 -25.16,8.31 -32.09,13.4 -11.32,8.3 -16.01,18.06 -13.98,29.31 1.5,8.38 5.82,14.27 13.01,17.65 7.2,3.42 14.99,4.35 23.39,2.84 7.96,-1.43 14.75,-4.84 20.29,-10.27 5.54,-5.43 9.62,-16.5 12.47,-33.24 4.69,-27.46 13.88,-48.04 27.47,-61.82 13.5,-13.86 32.3,-22.95 56.4,-27.27 15.78,-2.83 31.2,-2.67 46.28,0.47 15.14,3.13 27.71,9.66 37.79,19.6 10.08,9.95 16.89,24.82 20.44,44.62 4.37,24.32 0.38,44.15 -12.03,59.55 -12.34,15.39 -34.29,27.15 -65.83,35.32l-15.23 -54.33c13.72,-3.97 23.35,-8.9 28.82,-14.73 5.53,-5.89 7.52,-12.96 6.03,-21.25 -1.22,-6.82 -4.52,-11.58 -9.8,-14.2 -5.28,-2.62 -11.33,-3.32 -18.07,-2.11 -4.88,0.88 -9,3.08 -12.44,6.58 -3.6,3.43 -6.15,10.66 -7.81,21.66 -4.35,27.3 -10.16,47.32 -17.35,60.05 -7.18,12.77 -17.06,22.91 -29.78,30.4 -12.65,7.48 -27.4,12.74 -44.25,15.76 -19.72,3.54 -38.54,3.44 -56.46,-0.29 -17.85,-3.79 -32.23,-10.9 -43.02,-21.5 -10.78,-10.55 -17.81,-25.02 -21.12,-43.44 -5.81,-32.34 0.28,-56.57 18.2,-72.63 17.92,-16.07 42.26,-27.71 73.01,-34.92z"/>
   <path class="fil0" d="M1098.53 685.95c0,-42.36 11.78,-75.36 35.41,-98.92 23.63,-23.63 56.5,-35.41 98.68,-35.41 43.21,0 76.5,11.6 99.89,34.75 23.39,23.21 35.05,55.72 35.05,97.47 0,30.33 -5.08,55.17 -15.29,74.57 -10.21,19.4 -25.02,34.5 -44.3,45.32 -19.34,10.82 -43.39,16.2 -72.21,16.2 -29.25,0 -53.48,-4.65 -72.69,-13.96 -19.15,-9.37 -34.75,-24.11 -46.65,-44.29 -11.9,-20.12 -17.89,-45.38 -17.89,-75.72zm80.13 0.18c0,26.17 4.89,45.02 14.63,56.44 9.79,11.42 23.08,17.16 39.88,17.16 17.22,0 30.64,-5.62 40.06,-16.8 9.49,-11.24 14.2,-31.3 14.2,-60.37 0,-24.41 -4.95,-42.24 -14.81,-53.48 -9.91,-11.3 -23.27,-16.92 -40.19,-16.92 -16.2,0 -29.25,5.74 -39.04,17.16 -9.85,11.42 -14.74,30.4 -14.74,56.81zm218.27 43.57l76.14 -4.77c1.63,12.33 5.02,21.75 10.09,28.16 8.28,10.45 20.06,15.71 35.41,15.71 11.42,0 20.24,-2.66 26.41,-8.04 6.23,-5.38 9.31,-11.6 9.31,-18.67 0,-6.71 -2.9,-12.75 -8.76,-18.07 -5.86,-5.32 -19.52,-10.27 -40.97,-15.05 -35.17,-7.86 -60.19,-18.37 -75.18,-31.48 -15.11,-13.05 -22.66,-29.73 -22.66,-50.04 0,-13.29 3.87,-25.86 11.6,-37.71 7.73,-11.9 19.34,-21.21 34.87,-27.98 15.53,-6.77 36.8,-10.15 63.81,-10.15 33.18,0 58.44,6.16 75.84,18.55 17.4,12.33 27.74,31.97 31.06,58.92l-75.41 4.47c-1.99,-11.78 -6.23,-20.36 -12.63,-25.68 -6.47,-5.38 -15.35,-8.04 -26.65,-8.04 -9.3,0 -16.38,1.99 -21.09,5.92 -4.71,3.93 -7.07,8.76 -7.07,14.44 0,4.11 1.93,7.8 5.74,11.12 3.68,3.45 12.63,6.59 26.77,9.55 35.05,7.55 60.13,15.23 75.23,22.96 15.17,7.73 26.23,17.28 33.11,28.76 6.89,11.42 10.33,24.23 10.33,38.43 0,16.62 -4.59,31.97 -13.78,46.05 -9.25,14.02 -22.06,24.71 -38.62,31.97 -16.5,7.25 -37.28,10.88 -62.42,10.88 -44.11,0 -74.69,-8.52 -91.67,-25.5 -16.98,-16.98 -26.59,-38.55 -28.82,-64.72z"/>
   <path class="fil1" d="M641.1 1163.96l-178.34 -37.42c14.86,-66.83 43.16,-118.02 85.38,-153.77 42.05,-35.55 101.66,-53.43 178.66,-53.43 88.54,0 152.41,19.36 191.94,58.27 39.37,38.91 59.13,87.87 59.13,146.69 0,34.44 -8.06,65.72 -24.03,93.64 -15.97,27.92 -40,52.5 -72.26,73.53 26.24,7.63 46.33,16.57 60.08,26.81 22.61,16.38 40,37.98 52.49,64.6 12.49,26.81 18.82,58.64 18.82,95.69 0,46.54 -10.28,91.22 -30.99,134.03 -20.71,42.63 -50.44,75.58 -89.33,98.67 -38.89,23.08 -89.96,34.62 -153.36,34.62 -61.66,0 -110.36,-8.56 -145.93,-25.69 -35.73,-17.13 -64.98,-42.07 -88.07,-75.02 -22.92,-32.95 -40.63,-74.46 -52.97,-124.36l188.78 -29.6c7.43,44.87 18.81,76.14 34.47,93.45 15.49,17.31 35.26,26.06 59.45,26.06 25.14,0 46.17,-10.98 63.08,-32.76 16.76,-21.78 25.14,-50.82 25.14,-87.31 0,-37.05 -8.06,-65.72 -24.19,-86.19 -16.13,-20.29 -38.11,-30.53 -65.77,-30.53 -14.71,0 -35.1,4.28 -60.87,13.03l9.81 -158.79c10.28,1.86 18.34,2.79 24.19,2.79 24.35,0 44.74,-9.31 61.03,-27.74 16.28,-18.43 24.51,-40.21 24.51,-65.53 0,-24.39 -6.17,-43.75 -18.34,-58.08 -12.33,-14.52 -29.25,-21.78 -50.59,-21.78 -22.14,0 -40,7.82 -53.92,23.65 -13.75,15.64 -23.08,43.19 -27.98,82.47zm449.65 165.31c0,-151.91 23.24,-258.2 69.73,-318.89 46.48,-60.69 117.31,-91.03 212.34,-91.03 45.69,0 83.32,6.7 112.57,19.92 29.41,13.22 53.28,30.53 71.78,51.75 18.66,21.22 33.2,43.56 43.8,67.02 10.75,23.46 19.29,50.82 25.77,82.1 12.65,59.57 18.97,121.75 18.97,186.53 0,145.02 -20.87,251.13 -62.61,318.33 -41.58,67.2 -113.36,100.9 -215.34,100.9 -57.07,0 -103.24,-10.79 -138.5,-32.2 -35.26,-21.41 -64.03,-52.87 -86.64,-94.39 -16.28,-29.41 -29.09,-69.62 -38.26,-120.63 -9.01,-51.19 -13.6,-107.6 -13.6,-169.41zm186.88 0.37c0,101.64 7.59,171.27 22.92,208.5 15.34,37.23 37.47,55.85 66.56,55.85 19.13,0 35.73,-7.82 49.8,-23.64 14.07,-15.83 24.35,-40.96 30.99,-75.02 6.64,-34.25 9.96,-87.5 9.96,-159.73 0,-106.11 -7.59,-177.41 -22.92,-214.08 -15.34,-36.49 -38.26,-54.73 -68.78,-54.73 -31.3,0 -53.75,18.61 -67.67,55.85 -13.91,37.23 -20.87,106.3 -20.87,207.01zm445.86 -0.37c0,-151.91 23.24,-258.2 69.72,-318.89 46.48,-60.69 117.32,-91.03 212.34,-91.03 45.69,0 83.32,6.7 112.57,19.92 29.41,13.22 53.28,30.53 71.78,51.75 18.66,21.22 33.2,43.56 43.8,67.02 10.75,23.46 19.29,50.82 25.77,82.1 12.65,59.57 18.97,121.75 18.97,186.53 0,145.02 -20.87,251.13 -62.61,318.33 -41.58,67.2 -113.36,100.9 -215.34,100.9 -57.08,0 -103.24,-10.79 -138.5,-32.2 -35.26,-21.41 -64.03,-52.87 -86.64,-94.39 -16.29,-29.41 -29.09,-69.62 -38.26,-120.63 -9.01,-51.19 -13.6,-107.6 -13.6,-169.41zm186.88 0.37c0,101.64 7.59,171.27 22.92,208.5 15.34,37.23 37.47,55.85 66.56,55.85 19.13,0 35.73,-7.82 49.8,-23.64 14.07,-15.83 24.35,-40.96 30.99,-75.02 6.64,-34.25 9.96,-87.5 9.96,-159.73 0,-106.11 -7.59,-177.41 -22.92,-214.08 -15.34,-36.49 -38.26,-54.73 -68.78,-54.73 -31.31,0 -53.76,18.61 -67.67,55.85 -13.91,37.23 -20.87,106.3 -20.87,207.01z"/>
  </g>
 </g>
</svg>
