<?xml version="1.0" encoding="UTF-8"?>
<!DOCTYPE svg PUBLIC "-//W3C//DTD SVG 1.1//EN" "http://www.w3.org/Graphics/SVG/1.1/DTD/svg11.dtd">
<!-- Creator: CorelDRAW -->
<svg xmlns="http://www.w3.org/2000/svg" xml:space="preserve" width="45.5325mm" height="35.4973mm" version="1.1" style="shape-rendering:geometricPrecision; text-rendering:geometricPrecision; image-rendering:optimizeQuality; fill-rule:evenodd; clip-rule:evenodd"
viewBox="0 0 427.22 333.06"
 xmlns:xlink="http://www.w3.org/1999/xlink"
 xmlns:xodm="http://www.corel.com/coreldraw/odm/2003">
 <defs>
  <style type="text/css">
   <![CDATA[
    .fil0 {fill:#0092DD}
    .fil19 {fill:#151412}
    .fil9 {fill:#1A1614}
    .fil13 {fill:#1B1916}
    .fil3 {fill:#1E1916}
    .fil14 {fill:#1E1A19}
    .fil2 {fill:#84C324}
    .fil20 {fill:#CCEAF5}
    .fil10 {fill:#EC880A}
    .fil5 {fill:#F4A506}
    .fil1 {fill:#F6C501}
    .fil18 {fill:#F6F6F5}
    .fil17 {fill:#F9F9F8}
    .fil4 {fill:#FAD101}
    .fil11 {fill:#FAD70B}
    .fil15 {fill:#FBFBFB}
    .fil6 {fill:#FCDB01}
    .fil8 {fill:#FCE301}
    .fil12 {fill:#FCFCFC}
    .fil7 {fill:#FDEB02}
    .fil16 {fill:#FDFDFA}
    .fil21 {fill:#373435;fill-rule:nonzero}
   ]]>
  </style>
 </defs>
 <g id="Camada_x0020_1">
  <metadata id="CorelCorpID_0Corel-Layer"/>
  <g id="_1817206294992">
   <path class="fil0" d="M410.47 215.43c-3.22,-2.49 -1.59,-1.71 0,-3.32 2.51,1.68 2.63,1.66 0,3.32zm-106.8 -36.56c-7.9,-2.9 -22.15,-16.19 -26.36,-22.2 -29.94,-42.72 -27.81,-15.14 -18.5,-4.02 -2.4,7.54 -4.4,3.91 4.18,14.45 3.74,4.59 -0.83,6.12 7.01,14.34 9.14,9.58 -0.87,11.47 18.59,24.67l-0.47 5.88c6.52,4.47 15.02,10 23.37,12.65 -2.34,15.56 20.21,18.89 35.08,21.88l-28.4 19.64c-5,3.23 -9.17,5.93 -14.09,9.21l-13.51 10.14 -1.85 6.92c3.98,3.87 3.67,1.01 1.85,7.38l6.64 4.19c1.18,0.75 -0.29,0.31 1.79,0.92 1.28,0.37 8.44,0.2 11.46,0.1 4,6.96 7.32,4.96 11.1,-0.52 5.39,-7.8 19.22,-27.29 20.97,-34.47 13.03,0.05 20.25,2.4 32.39,-2.48 14.55,-5.85 34.24,-16.6 36.41,-33.43 2.14,-16.61 7.46,-14.16 13.56,-17.53 0.19,-0.11 0.46,-0.28 0.62,-0.38l1.15 -0.93c0.09,-0.32 0.38,-0.32 0.54,-0.51 -0.24,-0.15 -0.58,-0.27 -0.77,-0.35l-10.27 -4.36c-17.03,-9.69 -16.94,8.48 -32.87,8.42 -15.8,-0.06 -21.55,-21.58 -24.06,-36.92 -2.11,-12.9 0.51,-16.54 4.11,-26.55 5.64,-15.65 -5.52,-37.5 -7.75,-50.37 -2.36,-13.66 0.93,-21.53 -4.35,-25.59 -4.41,1.73 -3.55,5.37 -6.39,9.9 -2.47,3.94 -4.97,3.87 -6.21,10.27 -3.34,17.15 -6.44,-3.89 -8.79,24.26 -0.37,4.44 -3.02,6.28 -3.42,12.84 -0.41,6.64 1.32,7.94 -0.65,14.13 -3.04,9.51 -1.16,18.23 2.39,26.45l-1.25 0.89c-0.17,0.11 -0.44,0.29 -0.62,0.41 -6.03,4.15 -3.45,4.9 -1.72,14.44 -2.99,-1.29 -20.22,-11.93 -20.91,-13.78z"/>
   <path class="fil1" d="M262.9 105.4c-5.31,0.39 -3.89,0.25 -7.74,-3.26 -6.3,-5.74 -15.14,-1.59 -18.59,-1.08 -5.79,0.87 -39.76,-0.29 -48.66,-0.27 -0.68,0 -2.33,-0.01 -4.03,1.06 -3.64,2.3 -2,-0.26 -1.89,2.55l-2.86 -5.71c-3.69,9.25 -6.92,15.39 -9.39,26.61 2.42,1.38 1.32,-0.3 2.18,2.82l2.72 -3.66c1.01,2.41 -0.29,0.63 1.87,1.94 4.29,2.59 8.6,-0.2 16.89,0.1l60.02 -1.74c0.17,-0.04 0.43,-0.16 0.59,-0.2 0.14,-0.04 0.4,-0.15 0.53,-0.19 0.13,-0.04 0.38,-0.13 0.51,-0.17 5.03,-1.31 15.27,-0.95 20.72,-1.35 27.34,-2 13.11,2.17 21.41,-4.07l-2.21 -7.9c-2.93,-3.92 -11.47,-25.82 -19.39,-31.38 1.96,8.89 9.61,26.11 -8.81,34.26 -2.79,-3.08 -1.63,-4.72 -3.88,-8.36z"/>
   <path class="fil2" d="M63.71 141.22c0.22,-0.14 0.54,-0.26 0.72,-0.32 0.18,-0.06 0.51,-0.22 0.74,-0.29l12.51 -1.21c50.47,-2.76 97.43,1.47 144.64,19.85 21.11,8.22 25.38,12.85 39.43,19.28 -1.92,-8.93 -2.66,-8.04 -6.61,-14.28 -4.92,-7.79 0.37,-6.6 -10.12,-10.31 -23.16,-8.19 -40.31,-13.25 -65.15,-17.28 -5.85,-0.95 -33.8,-3.29 -36.05,-4.8 -8.14,1.46 -28.82,-0.24 -39.18,0.25 -21.61,1.02 -83.37,7.88 -98.12,15.74 12.97,-0.21 46.43,-9.35 57.19,-6.63z"/>
   <path class="fil3" d="M117.54 277.46c5.17,-8.25 13.9,-10.96 19.6,-29.2 6.26,-20.05 -2.81,-29.49 -6.44,-38.8l-4.23 -3.85c-1.52,-1.44 -2.51,-2.54 -3.89,-3.92 -20.15,-20.18 -60.03,-21.81 -86.49,-15.71 -61.1,14.1 -29.33,61.76 -14.67,67.24 -2.06,-4.76 -4.94,-6.97 -7.69,-10.64 -41.72,-55.8 57.44,-69.92 97.87,-42.52 11.29,7.65 25.12,23.81 20.46,46.21 -8.89,42.69 -72.22,56.33 -83.43,41.99 -5.73,-7.33 2.12,-18.08 5.54,-23.97 4.13,-7.11 8.46,-14.19 12.96,-21.01 4.69,-7.11 8.89,-13.8 13.51,-20.48 2.54,-3.67 13.33,-16.66 13.02,-20.21 -5.48,0.13 -6.22,2.4 -9.34,6.42 -7.99,10.27 -23.79,36.01 -30.01,47.67 -6.34,11.88 -5.75,14.5 -12.79,17.99 -0.45,7.36 1.77,5.46 -0.91,12.93 -1.2,3.35 -3.55,8.59 -1.98,11.38 2,-2.43 3.84,-9.66 4.57,-12.75 6.22,3.86 2.99,8.94 15.88,11.02 12.81,2.06 30.8,-4.72 41.94,-10.36l16.53 -9.43z"/>
   <path class="fil4" d="M188.9 79.12l-9.76 19.58 2.86 5.71c-0.11,-2.81 -1.75,-0.26 1.89,-2.55 1.7,-1.07 3.35,-1.06 4.03,-1.06 8.9,-0.02 42.87,1.13 48.66,0.27 3.45,-0.52 12.28,-4.67 18.59,1.08 3.85,3.51 2.43,3.65 7.74,3.26 -2.61,-8.96 -13.23,-28.66 -18.39,-33.29l-3.09 2.16c2.12,1.51 2.02,0.86 2.86,4.32l-12.45 -0.67c-5.1,-0.04 -23.17,-0.64 -26.82,0.3 -3.94,1.01 -4.08,2.62 -11.97,0.4l-2.52 3.29c-0.71,-4.55 -0.2,-1.75 -1.63,-2.78z"/>
   <path class="fil5" d="M169.74 125.31l-0.42 4.92c13.83,0.94 30.33,4.61 43.03,8.02l39.54 12.73c-9.27,-25.4 5.17,-23.39 10.42,-19.11 2.86,2.34 5.39,5.26 7.58,7.13l0.5 -1.71c6.01,2.2 15.57,1.01 22.61,0.97 0.98,-1.18 0.55,0.82 1.51,-2.61 2.45,3.57 -0.28,1.47 3.34,2.62 2.9,-3.73 0.99,-4.51 0.97,-4.55 0.3,6.82 -0.32,0.72 1.83,3.38 -0.47,-6.35 -1.21,-13.33 -3.46,-18.3 -8.31,6.24 5.92,2.07 -21.41,4.07 -5.45,0.4 -15.68,0.04 -20.72,1.35 -0.13,0.03 -0.38,0.13 -0.51,0.17 -0.13,0.04 -0.39,0.15 -0.53,0.19 -0.16,0.05 -0.42,0.16 -0.59,0.2l-60.02 1.74c-8.3,-0.3 -12.61,2.49 -16.89,-0.1 -2.16,-1.3 -0.86,0.47 -1.87,-1.94l-2.72 3.66c-0.86,-3.12 0.24,-1.43 -2.18,-2.82z"/>
   <path class="fil6" d="M194.27 60.4c-0.73,6.76 -3.31,12.68 -5.37,18.72 1.43,1.03 0.92,-1.77 1.63,2.78l2.52 -3.29c7.89,2.22 8.03,0.61 11.97,-0.4 3.65,-0.94 21.72,-0.34 26.82,-0.3l12.45 0.67c-0.84,-3.46 -0.74,-2.81 -2.86,-4.32l3.09 -2.16c-2.21,-4.68 -12.29,-16.5 -15.47,-18.56l-5.69 -0.36c-7.95,-1.58 -17.12,2.27 -22.65,-0.69l-0.53 4.27c-0.43,4.46 -2.37,5.51 -2.38,5.49 -0.07,-0.17 -0.38,0.33 -0.51,0.55 -0.26,-4.11 0.32,-2.61 -3.01,-2.41z"/>
   <path class="fil4" d="M154.05 67.26c-5.37,6.05 -9.4,15.89 -7.2,25.81 1.46,6.59 8.8,20.14 8.83,25.69 1.91,1.91 1.28,1.59 2.85,4.23 1.68,2.82 0.81,2.33 3.36,3.73 1.31,-13.79 -2.11,-22.06 4.01,-34.17 3.47,-6.86 14.1,-18.67 15.05,-22.7 -1.4,-4.53 -1.31,-3.75 -2.53,-4.39 -3.89,1.48 0.1,2.79 -4.19,4.86 -1.24,-2.87 -0.33,-3.11 -1.87,-5.83 -6.83,0 -6.96,1.2 -10.02,-0.57l-1.68 -1.2c-0.08,-0.29 -0.36,-0.32 -0.58,-0.41l-0.56 6.48 -4.73 -1.28c-0.15,-0.31 -0.49,-0.2 -0.75,-0.26z"/>
   <path class="fil7" d="M165.27 9.92c6.58,2.73 16.37,13.7 20.7,19.65 5.37,7.39 10.36,18.58 8.3,30.83 3.33,-0.2 2.75,-1.7 3.01,2.41 0.12,-0.22 0.44,-0.72 0.51,-0.55 0.01,0.02 1.95,-1.03 2.38,-5.49l0.53 -4.27c5.53,2.96 14.7,-0.89 22.65,0.69l5.69 0.36c-3.62,-6.69 -26.53,-24.51 -35.37,-30.74 -4.99,-3.52 -36.69,-24.66 -41.3,-22.68l10.39 7.04c1.88,1.49 1.54,0.82 2.52,2.74z"/>
   <path class="fil3" d="M196.37 249.45c-4.6,5.75 -10.18,15.61 -13.6,23.07 -1.68,3.67 -4.34,10.6 -3.32,14.87 1.21,5.08 6.55,5.89 10.77,3.29l15 -12.24c1.94,-1.7 2.35,-2.7 4.19,-4.52 3.14,-3.11 6.5,-5.48 9.85,-8.62 5.11,-4.79 6.06,-7.56 8.89,-7.13 2.13,5.56 -14.13,29.87 -0.78,32.76 2.9,0.63 5.23,-1.93 7.4,-3.19 1.94,-1.13 -0.29,-0.29 1.71,-0.75 0.67,-1.7 0.84,-1.98 1.1,-3.99 -4.19,1.27 -5.97,3.66 -11.22,3.26 -1.93,-6.67 4.2,-18.39 6.91,-23.45 7,-13.04 10.19,-13.35 6.16,-19.57 -8.21,1.37 -45.73,50.51 -53.45,43.61 -3.78,-6.67 6.41,-22.28 9.71,-27.63 3.78,-6.12 14.39,-19.48 14.33,-22.68 -5.65,-1.22 -7.68,3.83 -13.65,12.91z"/>
   <path class="fil8" d="M166.9 22.52c2.17,1.4 4.75,8.14 6.08,11.37 2.05,4.97 1.51,9.98 -1.09,14.14 -1.77,2.84 -6.34,6.72 -9.04,9.4 -3.28,3.24 -6.39,5.62 -8.79,9.83 0.26,0.06 0.6,-0.05 0.75,0.26l4.73 1.28 0.56 -6.48c0.22,0.09 0.49,0.12 0.58,0.41l1.68 1.2c3.06,1.78 3.19,0.57 10.02,0.57 1.54,2.72 0.62,2.95 1.87,5.83 4.29,-2.07 0.3,-3.38 4.19,-4.86 1.22,0.64 1.13,-0.15 2.53,4.39 11.15,-7.66 8.77,-26.3 -4.07,-39.96 -2.81,-2.99 -7.28,-7.08 -9.41,-9.93l-0.57 2.57z"/>
   <path class="fil3" d="M243.63 295.23c1.57,-3.43 10.76,-10.97 15.42,-11.61l2.35 4.82c-2.99,4.33 -11.56,7.53 -17.77,6.79zm-6.94 -0.88l-0.09 2.81c12.62,0.19 24.7,-2.37 31.12,-9.37 0.34,-4.41 -1.51,-6.29 -2.66,-9.16 4.61,-2.71 19.13,-11.12 25.08,-11.1 1.89,-1.97 3.32,-2.07 5.65,-3.1 -12.55,1.23 -22.91,8.4 -32.89,12.02 -15.17,-13.51 -5.85,-21.72 6.57,-29.88 27.81,-18.27 34.22,1.29 36.18,-12.67 -12.18,-3.49 -33.6,8.12 -42.01,13.63 -22.45,14.7 -16.74,19.85 -8.04,32.98 -5.91,4.86 -12.81,9.68 -18.92,13.84z"/>
   <path class="fil9" d="M146.93 253.04c2.03,-4.67 0.02,-0.96 2.92,-3.8 3.89,-3.82 3.06,-3.91 8.43,-8.03 3.88,-2.97 8.5,-8.09 15.32,-6.99 2.67,11.14 -14.65,17.98 -26.66,18.82zm-13.01 34.96c2.77,0.73 4.08,3.13 7.68,3.65 5.25,0.76 11.84,-2.75 16.34,-5.11 2.75,-1.45 4.88,-2.39 6.5,-5.1 -7.37,2.13 -25.49,13.47 -29.86,2.47 -4.15,-10.47 6.78,-22.43 9.63,-28.41 9.46,-0.14 18.96,-0.06 28.36,-0.29 4.56,-0.11 9.66,-0.1 13.89,-1.32 4.27,-1.23 5.47,-3.4 8.83,-4.49 -1.92,-1.97 1.27,-2.14 -3.5,-0.1 -11.2,4.79 -16.03,4.06 -31.42,3.7 3.48,-2.92 21.65,-6.48 15.65,-19.27 -4.89,-10.43 -18.41,1.9 -22.84,5.34 -5.27,4.09 -12.4,13.14 -16.48,20.41 -7.28,12.97 -7.58,18.33 -2.8,28.53z"/>
   <path class="fil10" d="M269.88 138.99c1.22,2.86 8.34,11.52 11.36,15.7 3.24,4.48 9.38,10.8 13.7,13.4 5.15,-6.42 6.64,-21.86 5.72,-31 -2.16,-2.66 -1.53,3.44 -1.83,-3.38 0.01,0.03 1.93,0.82 -0.97,4.55 -3.62,-1.15 -0.89,0.95 -3.34,-2.62 -0.97,3.43 -0.53,1.43 -1.51,2.61 -7.04,0.05 -16.6,1.23 -22.61,-0.97l-0.5 1.71z"/>
   <path class="fil11" d="M267.75 99.88c21.08,-14.32 -27.42,-55.13 -39.2,-59.19l21.6 27.58c3.41,4.8 6.27,8.92 9.71,14.57 1.7,2.79 7.37,16.45 7.89,17.04z"/>
   <path class="fil12" d="M146.93 253.04c12.01,-0.83 29.33,-7.68 26.66,-18.82 -6.82,-1.1 -11.44,4.02 -15.32,6.99 -5.37,4.11 -4.53,4.21 -8.43,8.03 -2.9,2.84 -0.89,-0.86 -2.92,3.8z"/>
   <path class="fil3" d="M137.31 176.24l2.04 -10.9c8.31,0.37 4.72,3.5 4.15,8.83 -0.75,6.94 -0.71,1.74 0.95,3.98 3.42,-1.92 2.03,-2.61 4.05,-10.76 8.87,-0.27 4.85,5.86 3.73,12.52l3.39 -0.48c0.99,-4.86 2.13,-7.35 1.64,-12.61 -2.66,-1.09 -2.28,-1.11 -5.85,-1.05 -5.66,0.09 -2.05,-0.09 -5.34,-1.3l-11.92 -1.72c3.1,3.98 0.81,3.35 -0.45,13.3l3.62 0.19z"/>
   <path class="fil13" d="M239.59 211.99c-7.61,-2.05 -5.23,-6.31 -2.1,-10.75 7.34,-0.77 8.04,2.17 4.81,7.47l-2.72 3.28zm9.78 -20.29c1.99,3.54 -1.39,5.84 -2.58,9.95 -5.64,-1.7 -12.85,-5.25 -15.32,3.09 -1.06,3.57 0.22,6.24 2.96,7.49l7.1 3.77c0.65,-0.7 0.58,-0.52 1.42,-1.74l11.64 -21.3 -5.22 -1.27z"/>
   <path class="fil14" d="M169.69 181.8c-9.36,0.85 -4.6,-7.9 -2.91,-10.15 9.43,0.42 5.24,7.8 2.91,10.15zm-7.11 1.37c3.38,0.12 7.36,0.02 10.18,0 5.33,-8.26 4.46,-12.91 -6.26,-12.98l3.08 -11.94 -5.24 -0.3c2.68,3.96 -2.61,16.94 -4.24,22.07l2.49 3.15z"/>
   <path class="fil3" d="M79.81 151.43l2.39 8.21 -6.45 -0.54 4.06 -7.67zm4.92 17.93l4.16 -0.15c-1.08,-4.88 -5.07,-18.68 -7.55,-22.35 -4.65,0.15 -1.46,-0.28 -2.59,1.87l-9.49 19.91c3.31,-1.39 1.46,0.97 3.66,-3.15 0.82,-1.54 1.04,-3.01 1.4,-4.7l8.81 0.67 1.61 7.89z"/>
   <path class="fil15" d="M243.63 295.23c6.21,0.75 14.78,-2.45 17.77,-6.79l-2.35 -4.82c-4.66,0.64 -13.86,8.17 -15.42,11.61z"/>
   <path class="fil14" d="M209.97 194.79c3.37,-1.29 2.42,-1.45 5.36,0.56 -1.25,3.72 0.36,3.17 -2.94,3.15 -2.87,-0.02 -2.47,-1.57 -2.43,-3.71zm-0.21 5.64l2.65 -0.42c1.21,1.17 -0.03,-0.15 1.45,1.43 0.09,0.1 0.34,0.46 0.5,0.7 3.34,-1.41 0.83,1.07 3.19,-2.69 1.96,-3.14 2.87,-6.59 2.79,-10.32 -3.05,-1.82 -4.34,-2.19 -9.11,-2.61 1.48,1.66 -0.52,0.23 2.41,1.85 2.65,1.47 3.72,0.51 3.13,4.35 -0.43,0.14 -0.57,0.47 -2.1,0.36 -0.3,-0.02 -2.04,-0.55 -2.4,-0.6 -2.14,-0.34 -3.15,-1.05 -4.93,0.75 -1.52,1.53 -1.33,2.72 -0.4,4.5 0.44,0.85 0.97,1.04 1.61,1.69l1.23 1.02z"/>
   <path class="fil13" d="M253.1 213.77c0.21,-1.96 0.12,-1.45 0.71,-2.36 3.98,-1.36 5.7,0.44 4.01,3.97l-4.72 -1.61zm0 0c2.71,3.12 4.58,3.85 7.62,3.73 6.6,-12.38 -18.87,-10.11 -12.57,1.98 1.4,2.76 0.92,3.27 8.81,4.65 -1.94,-4.58 -6.56,-0.47 -5.66,-9.53l1.8 -0.83z"/>
   <path class="fil14" d="M192.17 182.77c-0.56,0.02 -1.97,-0.45 -2.52,-0.55 0.55,-1.56 1.83,-3.06 3.33,-2.99 3.82,0.17 1.71,0.9 2.51,2.53 -1.54,0.95 -0.5,0.91 -3.32,1.02zm-6.76 4.8c4.71,4.66 3.12,3.35 10.79,4.42 -4.65,-4.9 -6.81,0.19 -7.34,-8.94l9.32 2.18c1.5,-11.6 -13.32,-10.49 -12.77,2.34z"/>
   <path class="fil14" d="M124.12 165.15c-3.78,-0.08 -1.1,-0.28 -2.32,-0.86 0.46,-1.47 1.76,-2.78 3.26,-2.68 3.61,0.25 1.65,0.78 2.28,2.68 -1.81,0.9 2.28,0.98 -3.21,0.86zm-4.96 7.45c1.16,0.35 1.03,0.08 2.96,1.25l8.05 -0.65c-0.23,-0.16 -0.53,-0.36 -0.72,-0.44 -4.33,-1.79 -3.23,-0.3 -5.62,-1.53 -2.14,-1.1 -2.01,-1.87 -2.43,-4.84 3.85,-0.14 5.56,0.73 8.93,-0.52 0.9,-10.12 -15.38,-8.35 -11.17,6.72z"/>
   <path class="fil9" d="M93.05 170.44l0.92 -0.14c5.37,0.12 7.75,0.26 8.39,-4.99 -0.97,-4.85 -5.99,-0.39 -6.3,-6.85 2.01,-0.7 1.36,-1.56 4.73,1.11 0.15,0.12 0.54,0.77 0.65,0.57 0.12,-0.2 0.43,0.42 0.66,0.61 -0.29,-9.08 -9.82,-3.74 -9.79,-0.35 2.07,6.34 4.94,0.9 6.79,8.21 -8.3,0.98 -0.78,-3.49 -7.64,-2.07 0.18,2.41 0.46,2.28 1.6,3.91z"/>
   <path class="fil14" d="M107.14 171.59l2.67 0.21c3.92,-0.5 4.82,-0.9 5.69,-4.6 -0.43,-3.57 -3.98,-1.52 -6.53,-6.8 0.15,-0.09 -0.4,-2.51 3.8,-0.55l2.03 2.05c0.07,-0.16 0.31,0.36 0.53,0.53l0.13 -4.07c-5.13,-0.83 -6.66,-1.8 -9.79,2.05 0.38,7.24 6.11,3.83 6.14,8.95 -1.38,0.61 2.02,1.25 -2.22,0.62 -4.15,-0.61 0.48,-2.29 -4.84,-2.62 -0.13,3.95 1.12,3.41 2.39,4.23z"/>
   <path class="fil13" d="M178.43 187.89l0 -0.57c3.14,-0.95 0.99,1.47 3.08,-2.52l6.22 -21.04 -4.79 -0.53c3.55,6.81 -7.16,17.98 -4.51,24.66z"/>
   <path class="fil16" d="M242.31 208.71c3.23,-5.3 2.52,-8.24 -4.81,-7.47 -3.13,4.44 -5.51,8.69 2.1,10.75l2.72 -3.28z"/>
   <path class="fil12" d="M169.69 181.8c2.33,-2.35 6.52,-9.72 -2.91,-10.15 -1.68,2.24 -6.44,10.99 2.91,10.15z"/>
   <path class="fil9" d="M199.02 196.01l3.68 -0.36c1.19,-4.28 4.05,-8.35 3.99,-12.68l-3.02 -0.52 -4.65 13.55z"/>
   <polygon class="fil17" points="75.75,159.1 82.2,159.65 79.81,151.43 "/>
   <path class="fil15" d="M215.34 195.35c-2.94,-2.01 -1.99,-1.85 -5.36,-0.56 -0.05,2.14 -0.44,3.69 2.43,3.71 3.3,0.03 1.69,0.57 2.94,-3.15z"/>
   <path class="fil18" d="M253.1 213.77l4.72 1.61c1.69,-3.53 -0.03,-5.33 -4.01,-3.97 -0.59,0.9 -0.5,0.4 -0.71,2.36z"/>
   <path class="fil17" d="M121.8 164.28c1.22,0.58 -1.46,0.79 2.32,0.86 5.49,0.11 1.4,0.04 3.21,-0.86 -0.63,-1.89 1.34,-2.43 -2.28,-2.68 -1.5,-0.1 -2.8,1.2 -3.26,2.68z"/>
   <path class="fil18" d="M189.66 182.22c0.55,0.1 1.96,0.57 2.52,0.55 2.82,-0.11 1.78,-0.06 3.32,-1.02 -0.8,-1.64 1.31,-2.36 -2.51,-2.53 -1.5,-0.06 -2.77,1.43 -3.33,2.99z"/>
   <path class="fil9" d="M194.59 176.37c2.99,-1.7 4.64,-2.67 5.97,-5.09 -4.43,-0.52 -4.21,1.25 -5.97,5.09z"/>
   <path class="fil19" d="M207.73 176.11c-2.83,0.4 -0.36,-0.41 -1.45,1.76 1.74,1.13 -1.93,1.38 2.11,0.83 2.5,-0.34 0.46,0.24 1.48,-1.8 -1.95,-1.19 2.05,-1.38 -2.14,-0.79z"/>
   <path class="fil20" d="M410.47 215.43c2.63,-1.67 2.51,-1.65 0,-3.32 -1.59,1.61 -3.22,0.83 0,3.32z"/>
   <path class="fil21" d="M132.34 332.78l0 -18 3.57 0 4.26 12.74c0.39,1.19 0.68,2.08 0.86,2.67 0.21,-0.65 0.53,-1.62 0.96,-2.89l4.33 -12.52 3.19 0 0 18 -2.29 0 0 -15.06 -5.26 15.06 -2.15 0 -5.2 -15.34 0 15.34 -2.29 0zm20.72 -15.49l0 -2.51 2.21 0 0 2.51 -2.21 0zm0 15.49l0 -13.05 2.21 0 0 13.05 -2.21 0zm4.71 -3.9l2.19 -0.35c0.12,0.88 0.47,1.55 1.03,2.02 0.56,0.46 1.35,0.7 2.35,0.7 1.02,0 1.77,-0.21 2.27,-0.62 0.49,-0.41 0.74,-0.9 0.74,-1.45 0,-0.5 -0.22,-0.89 -0.66,-1.18 -0.31,-0.2 -1.06,-0.44 -2.26,-0.75 -1.62,-0.41 -2.74,-0.76 -3.37,-1.06 -0.62,-0.3 -1.1,-0.71 -1.42,-1.24 -0.32,-0.52 -0.49,-1.11 -0.49,-1.74 0,-0.58 0.13,-1.12 0.4,-1.61 0.27,-0.49 0.63,-0.9 1.09,-1.23 0.34,-0.25 0.81,-0.47 1.4,-0.64 0.59,-0.18 1.23,-0.26 1.91,-0.26 1.02,0 1.92,0.15 2.69,0.44 0.78,0.29 1.35,0.7 1.71,1.2 0.36,0.51 0.62,1.18 0.76,2.03l-2.16 0.3c-0.1,-0.68 -0.38,-1.21 -0.85,-1.59 -0.47,-0.38 -1.13,-0.57 -1.99,-0.57 -1.01,0 -1.73,0.17 -2.17,0.5 -0.43,0.34 -0.65,0.73 -0.65,1.18 0,0.29 0.09,0.55 0.27,0.78 0.18,0.24 0.46,0.43 0.85,0.59 0.22,0.08 0.87,0.27 1.95,0.57 1.56,0.42 2.65,0.76 3.27,1.02 0.62,0.26 1.11,0.65 1.46,1.16 0.36,0.51 0.53,1.14 0.53,1.89 0,0.73 -0.21,1.42 -0.64,2.07 -0.43,0.65 -1.05,1.15 -1.86,1.51 -0.81,0.36 -1.73,0.53 -2.75,0.53 -1.69,0 -2.99,-0.35 -3.88,-1.05 -0.89,-0.7 -1.45,-1.74 -1.7,-3.12zm12.57 0l2.19 -0.35c0.12,0.88 0.47,1.55 1.03,2.02 0.56,0.46 1.35,0.7 2.35,0.7 1.02,0 1.77,-0.21 2.27,-0.62 0.49,-0.41 0.74,-0.9 0.74,-1.45 0,-0.5 -0.22,-0.89 -0.66,-1.18 -0.31,-0.2 -1.06,-0.44 -2.26,-0.75 -1.62,-0.41 -2.74,-0.76 -3.37,-1.06 -0.62,-0.3 -1.1,-0.71 -1.42,-1.24 -0.32,-0.52 -0.49,-1.11 -0.49,-1.74 0,-0.58 0.13,-1.12 0.4,-1.61 0.27,-0.49 0.63,-0.9 1.09,-1.23 0.34,-0.25 0.81,-0.47 1.4,-0.64 0.59,-0.18 1.23,-0.26 1.91,-0.26 1.02,0 1.92,0.15 2.69,0.44 0.78,0.29 1.35,0.7 1.71,1.2 0.36,0.51 0.62,1.18 0.76,2.03l-2.16 0.3c-0.1,-0.68 -0.38,-1.21 -0.85,-1.59 -0.47,-0.38 -1.13,-0.57 -1.99,-0.57 -1.01,0 -1.73,0.17 -2.17,0.5 -0.43,0.34 -0.65,0.73 -0.65,1.18 0,0.29 0.09,0.55 0.27,0.78 0.18,0.24 0.46,0.43 0.85,0.59 0.22,0.08 0.87,0.27 1.95,0.57 1.56,0.42 2.65,0.76 3.27,1.02 0.62,0.26 1.11,0.65 1.46,1.16 0.36,0.51 0.53,1.14 0.53,1.89 0,0.73 -0.21,1.42 -0.64,2.07 -0.43,0.65 -1.05,1.15 -1.86,1.51 -0.81,0.36 -1.73,0.53 -2.75,0.53 -1.69,0 -2.99,-0.35 -3.88,-1.05 -0.89,-0.7 -1.45,-1.74 -1.7,-3.12zm21.98 2.26c-0.82,0.7 -1.61,1.19 -2.37,1.48 -0.76,0.29 -1.57,0.43 -2.44,0.43 -1.43,0 -2.54,-0.35 -3.31,-1.05 -0.77,-0.7 -1.16,-1.59 -1.16,-2.67 0,-0.64 0.15,-1.22 0.44,-1.75 0.29,-0.53 0.67,-0.95 1.14,-1.27 0.47,-0.32 1,-0.56 1.59,-0.72 0.44,-0.11 1.09,-0.22 1.97,-0.33 1.79,-0.21 3.11,-0.46 3.95,-0.76 0.01,-0.3 0.01,-0.5 0.01,-0.57 0,-0.9 -0.21,-1.53 -0.63,-1.9 -0.57,-0.5 -1.41,-0.75 -2.52,-0.75 -1.04,0 -1.81,0.18 -2.31,0.55 -0.5,0.36 -0.86,1.01 -1.1,1.94l-2.16 -0.3c0.2,-0.93 0.52,-1.68 0.97,-2.25 0.45,-0.57 1.11,-1.01 1.96,-1.32 0.85,-0.31 1.84,-0.46 2.97,-0.46 1.12,0 2.02,0.13 2.72,0.39 0.7,0.26 1.21,0.59 1.54,0.99 0.33,0.4 0.56,0.9 0.69,1.51 0.07,0.38 0.11,1.06 0.11,2.03l0 2.93c0,2.05 0.05,3.34 0.14,3.89 0.09,0.55 0.27,1.07 0.54,1.58l-2.31 0c-0.22,-0.46 -0.36,-1.01 -0.43,-1.63zm-0.18 -4.9c-0.81,0.33 -2.01,0.6 -3.62,0.83 -0.91,0.13 -1.56,0.28 -1.94,0.44 -0.38,0.16 -0.67,0.4 -0.87,0.71 -0.21,0.31 -0.31,0.66 -0.31,1.05 0,0.58 0.22,1.07 0.67,1.46 0.45,0.39 1.1,0.59 1.96,0.59 0.85,0 1.61,-0.18 2.27,-0.56 0.66,-0.37 1.15,-0.88 1.46,-1.52 0.24,-0.5 0.36,-1.23 0.36,-2.2l0.01 -0.81zm-7.19 -8.1c-0.01,-0.84 0.23,-1.51 0.7,-2.02 0.47,-0.5 1.06,-0.75 1.79,-0.75 0.51,0 1.2,0.21 2.07,0.65 0.48,0.24 0.87,0.36 1.15,0.36 0.26,0 0.47,-0.07 0.6,-0.21 0.14,-0.14 0.23,-0.42 0.29,-0.84l1.58 0c-0.03,0.93 -0.26,1.63 -0.7,2.09 -0.44,0.47 -1.01,0.7 -1.69,0.7 -0.51,0 -1.19,-0.23 -2.03,-0.69 -0.55,-0.3 -0.95,-0.44 -1.21,-0.44 -0.28,0 -0.5,0.1 -0.67,0.29 -0.18,0.19 -0.27,0.48 -0.26,0.86l-1.63 0zm12 8.11c0,-2.41 0.67,-4.19 2.01,-5.35 1.12,-0.96 2.49,-1.45 4.1,-1.45 1.79,0 3.26,0.59 4.4,1.76 1.14,1.17 1.71,2.79 1.71,4.86 0,1.68 -0.25,2.99 -0.76,3.95 -0.5,0.96 -1.24,1.71 -2.2,2.24 -0.96,0.53 -2.01,0.8 -3.15,0.8 -1.83,0 -3.3,-0.58 -4.43,-1.75 -1.13,-1.17 -1.69,-2.85 -1.69,-5.05zm2.26 0c0,1.67 0.36,2.92 1.09,3.74 0.73,0.83 1.65,1.24 2.76,1.24 1.1,0 2.01,-0.41 2.74,-1.25 0.73,-0.83 1.09,-2.1 1.09,-3.81 0,-1.61 -0.37,-2.83 -1.1,-3.65 -0.73,-0.83 -1.65,-1.24 -2.74,-1.24 -1.11,0 -2.03,0.41 -2.76,1.24 -0.73,0.83 -1.09,2.07 -1.09,3.73zm28.44 2.3l2.29 0.3c-0.36,1.33 -1.02,2.36 -1.99,3.1 -0.97,0.73 -2.21,1.1 -3.73,1.1 -1.9,0 -3.41,-0.59 -4.53,-1.76 -1.12,-1.17 -1.67,-2.82 -1.67,-4.93 0,-2.19 0.56,-3.89 1.69,-5.09 1.13,-1.21 2.59,-1.81 4.39,-1.81 1.74,0 3.16,0.59 4.26,1.78 1.1,1.19 1.66,2.85 1.66,5 0,0.13 -0,0.33 -0.01,0.59l-9.72 0c0.08,1.43 0.49,2.53 1.22,3.29 0.73,0.76 1.63,1.14 2.72,1.14 0.81,0 1.5,-0.21 2.07,-0.64 0.57,-0.43 1.03,-1.11 1.36,-2.05zm-7.24 -3.55l7.27 0c-0.1,-1.1 -0.38,-1.92 -0.83,-2.47 -0.7,-0.85 -1.61,-1.28 -2.73,-1.28 -1.01,0 -1.87,0.34 -2.56,1.02 -0.69,0.68 -1.07,1.59 -1.14,2.73zm24.71 7.77l-6.96 -18 2.58 0 4.68 13.08c0.37,1.05 0.69,2.03 0.94,2.95 0.28,-0.99 0.6,-1.97 0.97,-2.95l4.85 -13.08 2.43 0 -7.02 18 -2.48 0zm10.91 -15.49l0 -2.51 2.21 0 0 2.51 -2.21 0zm0 15.49l0 -13.05 2.21 0 0 13.05 -2.21 0zm14.01 0l0 -1.66c-0.83,1.29 -2.04,1.93 -3.65,1.93 -1.04,0 -1.99,-0.29 -2.86,-0.86 -0.87,-0.57 -1.55,-1.37 -2.03,-2.39 -0.48,-1.03 -0.72,-2.2 -0.72,-3.54 0,-1.3 0.22,-2.48 0.65,-3.54 0.44,-1.06 1.09,-1.87 1.95,-2.43 0.86,-0.57 1.84,-0.85 2.9,-0.85 0.79,0 1.49,0.17 2.1,0.5 0.61,0.33 1.11,0.77 1.5,1.3l0 -6.47 2.21 0 0 18 -2.06 0zm-6.99 -6.51c0,1.67 0.35,2.91 1.06,3.74 0.7,0.83 1.54,1.24 2.5,1.24 0.97,0 1.79,-0.39 2.47,-1.18 0.67,-0.79 1.01,-1.99 1.01,-3.61 0,-1.78 -0.34,-3.08 -1.03,-3.92 -0.69,-0.83 -1.54,-1.25 -2.55,-1.25 -0.99,0 -1.81,0.4 -2.47,1.2 -0.66,0.8 -0.99,2.06 -0.99,3.78zm21.07 4.87c-0.82,0.7 -1.61,1.19 -2.37,1.48 -0.76,0.29 -1.57,0.43 -2.44,0.43 -1.43,0 -2.54,-0.35 -3.31,-1.05 -0.77,-0.7 -1.16,-1.59 -1.16,-2.67 0,-0.64 0.15,-1.22 0.44,-1.75 0.29,-0.53 0.67,-0.95 1.14,-1.27 0.47,-0.32 1,-0.56 1.59,-0.72 0.44,-0.11 1.09,-0.22 1.97,-0.33 1.79,-0.21 3.11,-0.46 3.95,-0.76 0.01,-0.3 0.01,-0.5 0.01,-0.57 0,-0.9 -0.21,-1.53 -0.63,-1.9 -0.57,-0.5 -1.41,-0.75 -2.52,-0.75 -1.04,0 -1.81,0.18 -2.31,0.55 -0.5,0.36 -0.86,1.01 -1.1,1.94l-2.16 -0.3c0.2,-0.93 0.52,-1.68 0.97,-2.25 0.45,-0.57 1.11,-1.01 1.96,-1.32 0.85,-0.31 1.84,-0.46 2.97,-0.46 1.11,0 2.02,0.13 2.72,0.39 0.7,0.26 1.21,0.59 1.54,0.99 0.33,0.4 0.56,0.9 0.69,1.51 0.07,0.38 0.11,1.06 0.11,2.03l0 2.93c0,2.05 0.05,3.34 0.14,3.89 0.09,0.55 0.27,1.07 0.54,1.58l-2.31 0c-0.22,-0.46 -0.36,-1.01 -0.43,-1.63zm-0.18 -4.9c-0.8,0.33 -2.01,0.6 -3.62,0.83 -0.91,0.13 -1.56,0.28 -1.94,0.44 -0.38,0.16 -0.67,0.4 -0.87,0.71 -0.2,0.31 -0.31,0.66 -0.31,1.05 0,0.58 0.22,1.07 0.67,1.46 0.45,0.39 1.1,0.59 1.96,0.59 0.85,0 1.61,-0.18 2.27,-0.56 0.66,-0.37 1.15,-0.88 1.46,-1.52 0.24,-0.5 0.36,-1.23 0.36,-2.2l0.01 -0.81z"/>
  </g>
 </g>
</svg>
