<?xml version="1.0" encoding="UTF-8"?>
<!DOCTYPE svg PUBLIC "-//W3C//DTD SVG 1.1//EN" "http://www.w3.org/Graphics/SVG/1.1/DTD/svg11.dtd">
<!-- Creator: CorelDRAW -->
<svg xmlns="http://www.w3.org/2000/svg" xml:space="preserve" width="58.7002mm" height="24.4192mm" version="1.1" style="shape-rendering:geometricPrecision; text-rendering:geometricPrecision; image-rendering:optimizeQuality; fill-rule:evenodd; clip-rule:evenodd"
viewBox="0 0 304.5 126.67"
 xmlns:xlink="http://www.w3.org/1999/xlink"
 xmlns:xodm="http://www.corel.com/coreldraw/odm/2003">
 <defs>
  <style type="text/css">
   <![CDATA[
    .fil0 {fill:black}
   ]]>
  </style>
 </defs>
 <g id="Camada_x0020_1">
  <metadata id="CorelCorpID_0Corel-Layer"/>
  <path id="Jhon_x0020_ADS.cdr" class="fil0" d="M75.62 35.9c0,-2.48 0.96,-6.51 1.69,-8.56 2.46,-6.87 10.39,-13.47 18.06,-13.47 4.47,0 7.69,-0.14 12.13,2.31 16.58,9.11 14.35,33.58 -1.59,40.15 -6.06,2.5 -13.04,2.19 -18.84,-0.72 -2.44,-1.22 -3.76,-2.67 -5.67,-4.59 -3.46,-3.47 -5.79,-10.2 -5.79,-15.11zm146.72 76.67c-8,0 -15.99,0.04 -23.99,-0 -4.16,-0.02 -2.71,-1.44 -5.49,4.83l-3.52 7.68c-0.14,1.89 -2.54,1.54 -3.9,1.54l-1.49 0 0.03 -1.49c0.05,-2.43 6.29,-14.87 7.68,-17.76l14.69 -31.42 0.29 -0.22c4.32,-3.23 6.35,4.34 7.59,6.86l2.68 5.74 7.92 17.17 2.84 6.19 0 -36.06c8.95,-1.12 26.51,-1.88 34.33,2.71 2.76,1.62 5.31,3.39 7.33,5.91 1.9,-5.16 7.6,-8.22 12.93,-9.01 5.2,-0.77 16.67,0.33 19.83,5.04l0.46 0.69 -1.71 3.65c-7.09,-3.75 -12.32,-6.39 -20.46,-3.76 -2.84,0.92 -6.48,3.84 -6.48,7.08 0,3.33 0.78,5.7 3.84,7.47 4.97,2.88 12.31,2.77 19.93,6.54 7.49,3.71 8.42,12.72 4.71,18.2 -1.99,2.94 -7.74,6.49 -11.32,6.49 -8.2,0 -12.45,0.77 -20.11,-4 -1.21,-0.75 -2.82,-1.89 -3.25,-3.32 -4.15,4.09 -11.28,7.32 -16.92,7.32l-20.52 0c-2.2,0 -2.16,-1.19 -2.51,-1.83l-5.43 -12.23zm48.24 3.47c1.32,0.26 2,1.46 2.89,2.1 0.96,0.7 2.26,1.14 3.32,1.68 6.12,3.1 22.33,4.2 22.33,-7.57 0,-7.28 -12.79,-8.23 -18.62,-10.15l-5.45 -2.34c-0.06,6.38 -0.54,11.05 -4.47,16.27zm-37.32 5.39l16.78 0c7.49,0 15,-4.8 18.08,-11.64 2.44,-5.41 2.17,-12.14 0.01,-17.59 -3.34,-8.42 -12.19,-11.93 -20.75,-11.93l-14.12 0 0 41.16zm-35.76 -14.06l22.5 0c-0.5,-1.25 -1.77,-3.58 -2.12,-4.32l-6.71 -14.59c-0.59,-1.29 -1.76,-3.56 -2.52,-5.5l-8.64 18.81c-0.54,1.19 -1.88,3.74 -2.51,5.59zm-48.41 -37.02l9.75 0.14c0.82,-3.54 0.45,-21.7 0.36,-27.77 -0.03,-1.61 -0.38,-3.02 1.16,-3.02 6.34,0 34.4,-0.55 38.38,0.38l0 30.4 9.88 0 0 -68.4c0,-1.65 -2.55,-1.16 -4.18,-1.14 -5.84,0.05 -5.78,-0.63 -5.71,3.8 0.09,5.98 0.25,22.25 -0.37,26.23 -11.75,0 -23.61,-0.15 -35.35,0.01 -4.89,0.07 -3.81,0.08 -3.79,-4.95l0 -17.48c0,-8.85 1.64,-7.6 -9.12,-7.6 -1.51,0 -1.19,1.44 -1.16,3.02 0.17,10.68 -0.45,61.95 0.15,66.39zm-141.86 -67.13c0,3.52 -0.4,7.65 0.38,11.02l18.62 0c1.74,-0 5.32,-0.69 5.32,1.14l0 31.92c0,3 -0.72,5.84 -2.09,7.78 -2.83,3.98 -9.83,3.55 -13.5,1.75 -5,-2.45 -5,-5.14 -7.2,-5.73 -0.73,0.54 -3.59,4.07 -4.4,5.1 -1.53,1.97 -3.2,3.37 -4.34,5.53 3.65,4.2 6.8,6.54 12.1,8.42 6.14,2.18 13.47,1.98 19.76,0.62 7.83,-1.69 13.95,-8.39 15.26,-16.27 0.24,-1.47 0.76,-3.25 0.76,-4.55l0 -47.88c0,-1.65 -2.04,-1.17 -3.79,-1.15l-36.49 0.01c-0.14,0.87 -0.38,1.25 -0.38,2.28zm221.91 -1.14l0 68.4 9.88 0 0 -50.16c2.04,0.17 1.85,1.3 2.98,2.72 0.92,1.16 1.61,1.73 2.61,3.09 4.19,5.68 13.53,16.67 18.13,22.53l16.76 20.87c1.44,1.59 3.43,0.95 8.16,0.95 0.88,0 1.14,-0.26 1.14,-1.14l0 -66.88c0,-2.36 -8.24,-1.93 -9.88,-1.14 -1.15,2.39 -0.38,43.57 -0.38,50.16 -1.36,-0.36 -1.29,-0.77 -3.09,-2.99l-9.1 -11.42 -0.34 -0.42 -26.64 -33.02c-1.83,-2.17 -1.59,-2.67 -4.89,-2.71 -1.58,-0.02 -5.34,-0.62 -5.34,1.16zm-136.03 69.54c11.47,0 14.87,0.54 25.4,-5.38l6.12 -4.53 4.89 -5.74c2.09,-3.2 3.59,-6.5 4.59,-10.23 3.14,-11.65 0.37,-26.51 -8.49,-34.76l-2.97 -2.73c-3.82,-3.57 -10.7,-6.34 -16.14,-7.42 -0.78,-0.16 -1.66,-0.52 -2.78,-0.63 -2.89,-0.28 -11.81,-0.39 -14.72,0.45 -3.56,1.03 -4.88,0.74 -9.22,2.94 -9.18,4.66 -12.38,8.03 -17.12,16.7 -4.36,7.95 -4.26,19.96 -1.12,28.53 2.45,6.67 6.4,11.28 11.58,15.39 4.59,3.65 13.8,7.41 19.96,7.41z"/>
 </g>
</svg>
