<?xml version="1.0" encoding="UTF-8"?>
<!DOCTYPE svg PUBLIC "-//W3C//DTD SVG 1.1//EN" "http://www.w3.org/Graphics/SVG/1.1/DTD/svg11.dtd">
<!-- Creator: CorelDRAW -->
<svg xmlns="http://www.w3.org/2000/svg" xml:space="preserve" width="47.2512mm" height="53.2833mm" version="1.1" style="shape-rendering:geometricPrecision; text-rendering:geometricPrecision; image-rendering:optimizeQuality; fill-rule:evenodd; clip-rule:evenodd"
viewBox="0 0 5387.65 6075.44"
 xmlns:xlink="http://www.w3.org/1999/xlink"
 xmlns:xodm="http://www.corel.com/coreldraw/odm/2003">
 <defs>
  <style type="text/css">
   <![CDATA[
    .fil1 {fill:#FB0200}
    .fil2 {fill:#FBC400}
    .fil0 {fill:white}
   ]]>
  </style>
 </defs>
 <g id="Camada_x0020_1">
  <metadata id="CorelCorpID_0Corel-Layer"/>
  <g id="_1726896682800">
   <path class="fil0" d="M77.57 5350.14c-36.17,-64.38 -61.46,-134.15 -71.69,-207.95 -30.8,-221.95 60.93,-431.61 236.57,-568.48l1.62 -1.25 5.75 -4.4c25.84,-19.76 52.89,-37.47 81.01,-53.05 -27.72,-19.81 -54.33,-41.38 -79.85,-66.71 -90.29,-89.66 -144.8,-201.04 -163.37,-326.68 -20.42,-138.05 1.3,-276.34 70.96,-398.01 38.27,-66.84 85.33,-117.02 137.45,-172.5 280.72,-298.9 574.31,-585.39 854.5,-884.76l1.36 -1.45 94.36 -98.59c-248.21,-403.96 -500.44,-805.44 -752.85,-1206.78 -25.32,-40.25 -52.37,-79.31 -76.78,-120.16 -103.16,-172.59 -152.5,-360.91 -88.07,-557.42l3.33 -10.17 3.92 -9.94c84.24,-213.59 306.4,-354.95 501.9,-456.37 117.2,-60.8 238.43,-113.34 360.99,-162.32l7.01 -2.8 7.13 -2.51c273.8,-96.39 544.75,-5.71 700.45,240.37 84.96,134.29 169.84,268.65 254.64,403.03 6.16,-97.94 17.46,-187.96 63.46,-289.01 58.48,-128.41 155.95,-226.08 280.95,-290.46l6.08 -3.14 6.2 -2.9c124.17,-58.16 227.44,-60.27 360.32,-40.39l626 93.67 1.93 0.31c157.52,25.28 302.24,84.14 406.14,199.48 46.4,-26.58 94.02,-50.91 141.47,-75.95 105.96,-55.95 201.16,-85.57 321.6,-56.98 159.2,37.78 258.85,158.84 302.77,311.55 13.76,47.87 35.97,94.46 52.38,141.73 12.47,35.92 23.18,72.44 31.17,109.63 15.61,72.6 18.69,147.27 8.51,220.51 108.95,105.04 160.19,247.86 171.02,400.67 24.35,343.54 32.63,687.89 51.67,1031.71 18.69,337.57 37.62,675.17 50.07,1013.04 6.37,172.99 19.38,345.67 26.45,518.63 7.31,178.66 23.21,356.81 25.35,535.71 0.06,5.7 0.07,11.4 0.03,17.1 78.13,45.4 139.47,112.9 174.48,199.5 44.69,110.54 33.18,195.39 6.39,307.08 -4.49,18.72 -7.61,37.8 -12.07,56.58 -0.48,2.01 -0.97,4.01 -1.46,6.02 10.82,14.74 21.03,29.94 30.53,45.59 124.63,205.16 116.59,466.18 -19.43,663.8 -121.24,176.14 -312.17,274.94 -525.34,278.12 -45.75,0.68 -91.46,-2.43 -136.57,-10.15 -69.54,-11.9 -130.54,-32.71 -191.49,-62 -81.07,39.44 -168.83,64.26 -258.92,72.06 -157.27,13.6 -315.83,-24.47 -451.59,-103.6 -113.78,63.7 -237.07,86.88 -369.92,96.61 -17.68,1.29 -35.39,4.52 -53.16,6.04 -66.7,5.75 -134.66,0.9 -198.67,-18.97 -25.86,1.78 -51.74,2.3 -77.71,2.84 -54.14,1.12 -105.78,-1.57 -157.08,-14.73 -7.74,2.94 -15.58,5.66 -23.49,8.14l-4.15 1.31 -4.2 1.2c-47.93,13.81 -90.65,16.05 -139.78,18.29 -60.67,2.76 -115.47,6.94 -175.42,-4.2 -20.9,2.96 -41.94,4.83 -63.02,6.11l-3.48 0.21 -3.47 0.15c-118.32,4.85 -237.36,-4.62 -350.97,-38.04 -84.14,40.19 -164.69,40.33 -262.61,36.18 -60.48,-2.57 -120.95,-5.17 -181.41,-8.19 -41.3,-2.06 -82.59,-4.24 -123.84,-7.05 -19.46,-1.32 -38.88,-2.57 -58.25,-4.63 -79.61,9.91 -194.63,9.95 -271.63,-9.44 -40.03,14.88 -82.14,23.66 -124.89,26.72 -89.55,6.41 -179.85,11.3 -266.59,-13.28 -192.41,48.33 -391.29,1 -562.7,-95.11 -99.45,-55.76 -175.16,-135.87 -210.59,-245.76 -38.63,-119.81 -16.97,-238.43 40.59,-347.93 2.7,-5.13 5.36,-10.3 7.98,-15.46z"/>
   <path class="fil1" d="M2519.64 5839.78c-26.46,7.49 -54.01,10.39 -83.48,12.17l-1.36 0.08 -1.36 0.06c-131.55,5.39 -258.14,-9.44 -373.12,-65.24 -7.67,8.91 -16.26,17.11 -25.73,24.5 -63.34,49.42 -123.86,41.97 -196.37,38.9 -59.93,-2.54 -119.84,-5.12 -179.74,-8.12 -39.95,-2 -79.95,-4.09 -119.87,-6.82 -22.85,-1.55 -50.84,-2.91 -75.36,-7.53 -0.97,0.22 -1.94,0.42 -2.92,0.62 -49.12,9.92 -170.02,11.94 -216.36,-1.97 -12.76,-3.83 -25.07,-9.06 -36.69,-15.59 -9.17,-5.14 -17.58,-10.8 -25.31,-16.92 -34.66,33.55 -79.84,50.59 -128.8,54.1 -65.68,4.7 -161.73,12.96 -220.04,-16.7 -7.22,-3.67 -14.14,-7.79 -20.74,-12.31 -152.24,66.62 -319.45,29.86 -465.11,-51.8 -50,-28.04 -90.56,-64.99 -108.7,-121.25 -20.15,-62.48 -3.43,-122.04 25.93,-177.88 17.05,-32.44 32.47,-65.92 49.78,-98.08 6.75,-12.53 13.93,-24.41 21.84,-35.45 -57.56,-64.74 -100.75,-140.61 -112.13,-222.6 -20.18,-145.49 39.69,-275.59 153.82,-364.52l0.49 -0.39 5.34 -4.07c119.05,-91.1 267.31,-110.57 409.8,-70.37 31.71,8.95 54.92,12.44 85.5,29.27 17.55,9.66 33.29,21.58 47.02,35.55 16.52,-21.69 37.41,-39.51 61.97,-52.37 7.58,-3.98 14.83,-7.24 21.88,-9.93 -152.72,-93.14 -305.28,-186.53 -457.97,-279.73 -52.12,-31.82 -101.74,-59.7 -145.71,-103.36 -56.54,-56.14 -89.06,-123.98 -100.69,-202.65 -13.34,-90.13 -1.33,-176.8 44.22,-256.37 30,-52.4 66.42,-88.09 106.87,-131.16 280.79,-298.98 574.33,-585.72 854.75,-885.04l0.51 -0.55 211.11 -220.56c-8.06,-12.93 -16.17,-25.83 -24.12,-38.81 -269.5,-440.39 -544.13,-877.59 -819.01,-1314.62 -24.45,-38.87 -50.58,-76.44 -74.17,-115.9 -69.25,-115.86 -111.68,-242.07 -67.83,-375.84l1.31 -3.98 1.54 -3.91c60.32,-152.87 258.71,-269.22 398.45,-341.7 110.65,-57.41 225.63,-107.07 341.32,-153.32l2.75 -1.09 2.8 -0.99c177.71,-62.59 339.84,-9.78 441.18,150.41 207.25,327.56 413.9,655.49 620.68,983.34 10.51,-188.39 21.56,-376.74 33.26,-565.05 7.07,-113.84 1.97,-223.74 50.69,-330.75 37.95,-83.32 100.4,-144.24 181.39,-185.96l2.38 -1.23 2.43 -1.14c83.57,-39.13 146.78,-35.13 234.35,-22.03l624.82 93.5 0.75 0.11c155.05,24.9 286.48,85.65 344.46,242.97 9.9,26.86 16.43,56.37 20.49,87.5 3.87,-6.18 7.89,-12.3 12.09,-18.37l2.25 -3.24 2.43 -3.11c68.3,-87.8 205.09,-152.86 303.66,-204.91 54.92,-29 102.45,-53 167.93,-37.46 80.24,19.05 120.76,84.36 141.98,158.16 14.86,51.67 38.28,102.07 55.98,153.07 9.53,27.46 17.8,55.28 23.91,83.71 20.15,93.67 7.99,186.78 -33.02,266.81 20.74,8.12 40.91,18.3 60.35,31.12 101.18,66.71 139.6,176.39 147.84,292.53 24.26,342.42 32.47,685.62 51.45,1028.31 18.62,336.22 37.49,672.45 49.88,1008.96 6.39,173.29 19.41,346.25 26.49,519.52 7.22,176.54 23.08,352.54 25.18,529.32 0.67,57.26 -5.69,111.67 -25.8,162.3 27.07,4.66 54.23,11.14 81.27,19.36 60.36,18.33 110.79,54.79 135.08,114.87 25.29,62.58 10.99,112.35 -3.59,173.19 -4.52,18.79 -7.66,38.03 -12.17,56.94 -8.86,37.18 -21.5,73.4 -42.09,103.86 37.62,33.42 71.39,70.62 97.18,113.09 79.79,131.35 74.42,298.14 -12.62,424.6 -80.7,117.25 -205.2,180.67 -347.22,182.78 -32.34,0.49 -64.23,-1.55 -96.14,-7.01 -74.86,-12.82 -127.32,-37.54 -192.16,-74.8 -15.44,-8.88 -28.67,-15.47 -41.81,-24.14 -78.82,59.82 -173.47,98.08 -272.56,106.66 -158.41,13.69 -318.75,-47.52 -431.89,-158.32 -0.44,-0.44 -0.9,-0.89 -1.35,-1.33 -14.3,14.64 -29.71,28.52 -46.25,41.96 -99.32,80.83 -214.76,101.37 -339.15,110.48 -18.48,1.35 -37.3,4.65 -55.96,6.26 -53.28,4.58 -106.18,-0.99 -150.04,-24.78 -35.87,6.88 -74.03,7.09 -111.98,7.88 -54.91,1.14 -102.12,-0.56 -150.96,-30.97 -5.13,-3.19 -10.06,-6.6 -14.79,-10.22 -20.79,19.94 -46.45,35.29 -76.36,44.7l-1.61 0.51 -1.63 0.47c-29.95,8.64 -58.34,8.51 -88.81,9.9 -39.93,1.81 -90.12,6.58 -128.7,-1.4l-2.43 -0.5 -2.41 -0.59c-8.48,-2.06 -16.73,-4.6 -24.69,-7.58z"/>
   <path class="fil2" d="M3136.06 5224.77c6.86,59.27 22.09,431.9 41.22,463.55 23.19,38.38 99.53,19.22 142.36,16.09 109.1,-7.99 191.89,-24.12 259.84,-78.97 84.66,-69.34 92.79,-119.6 127.81,-216.24 34.47,77.89 44.61,121.39 108.86,184.3 83.6,81.87 203.15,128.23 320.24,118.27 88.01,-7.79 171.09,-48.5 234.84,-108.99 45.3,-44.3 94.3,-122.42 112.45,-183.32 20.79,-69.74 22.88,-148.31 23,-220.72 11.56,6.03 65.08,65.45 77.64,77.64 69.14,67.12 146.84,95.61 176.63,120.48 15.27,14.21 26.7,37.74 11.79,56.59 -23.25,29.38 -73.44,-2.36 -97.72,-14.95 -19.43,-9.98 -40.28,-21.01 -59.94,-30.23 -10.6,-4.97 -20.66,-8.81 -32.52,-9 -20.09,1.86 -35.16,32.67 -43.51,48.28 -13.24,24.77 -25.63,50.48 -38.27,75.6 -17.02,32.63 -41.83,67.91 -7.72,99.91 10.15,9.52 28.16,17.35 40.75,24.58 51.04,29.34 86.29,47.72 145.32,57.95 23.49,3.9 46.27,5.27 70.05,4.99 114.61,-1.79 188.65,-57.83 232.31,-121.28 55.3,-80.33 59.21,-186.37 8.23,-270.29 -39.46,-64.97 -114.35,-119.54 -186.81,-166.81 -21.96,-14.32 -98.53,-56 -59.04,-97.5 36.65,-38.49 95.97,31.06 138.14,10.92 30,-14.32 38.97,-89.56 48.05,-127.4 14.71,-61.3 31.31,-98.69 -34.63,-118.98 -154.07,-46.55 -314.61,-26.07 -399.85,125.78 -21.19,37.73 -18.54,51.87 -26.35,91.15 -3.61,18.15 -2.44,12.38 -13.47,-4.42 -57.72,-88.02 -56.11,-105.69 -148.13,-170.91 -124.16,-85.8 -281.58,-86.5 -409.03,-7.3 -75.7,47.64 -133.35,118.73 -169.24,200.34 -11.04,25.12 -13.57,48.19 -28.68,64.34 -33.61,-177.45 -153.39,-295.82 -337.96,-323.09 -60.66,-2.37 -115.02,2.47 -174.22,6.35 -75.3,4.94 -79.85,22.33 -75.47,97.97 6.25,107.8 16.62,216.18 23.03,325.34zm357.66 -1126.82c50.12,-766.44 105.25,-1535.47 148.81,-2302.01 17.57,84.18 21.89,352.02 26.33,450.43 31.7,702.66 73.77,1405.25 100.75,2108.02 3.65,95.13 -0.41,231.16 47.63,314.69 23.25,39.73 55.65,63.89 99.29,77.81 64.06,19.89 419.26,-7.42 511.9,-12.04 99.67,-4.41 204.79,5.28 272.81,-84.13 32.82,-43.16 38.06,-94.97 37.96,-147.4 -2.59,-174.81 -17.94,-350.27 -25.06,-525.22 -7.11,-173.51 -20.11,-346.33 -26.52,-520.07 -12.36,-335.62 -31.2,-671.03 -49.76,-1006.34 -19.04,-344.11 -27.03,-683.68 -51.31,-1026.13 -15.59,-219.91 -149.61,-222.23 -313.82,-225.11 -158.42,-3.9 -321.59,-19.32 -479.41,-14.37 -48.64,1.53 -64.74,14.47 -100.84,44.32 -4.62,3.83 -7.94,6.16 -13.14,9.14 -2.52,-50.86 5.76,-133.18 9.34,-185.49 7.51,-104.26 35.05,-301.2 0.4,-395.23 -38.74,-105.12 -132.2,-135.53 -233.68,-151.82l-624.07 -93.38c-59.13,-8.97 -98.72,-15.27 -153.07,10.18 -162.69,83.81 -145.27,237.18 -155.34,399.22 -16.27,261.91 -31.17,522.05 -45.24,784.06 -3.83,71.46 -8.55,142.33 -14.9,213.62 -17.19,-13.56 -31.44,-42.86 -43.35,-61.78 -270.87,-429.01 -541.01,-858.26 -812.29,-1287.05 -65.74,-103.91 -158.52,-132.99 -273.94,-92.35 -185.98,74.35 -593.78,246.51 -660.37,415.25 -44.57,135.96 58.8,262.99 127.26,371.84 274.91,437.1 550.43,875.73 819.93,1316.1 14.59,23.86 70.66,111.44 79.12,134.36l-284.13 296.86c-277.92,296.63 -577.23,589.55 -854.88,885.16 -58.97,62.79 -135.33,126.01 -114.1,269.48 17.19,116.3 96.25,154.48 179.89,205.54 160.85,98.21 318.48,194.69 480.05,293.21 90.1,54.92 181.92,95.41 279.26,19.11 38.88,-30.48 424.4,-432.3 477.66,-488.97 43.08,-45.84 454.77,-481.27 478.15,-491.89 1.14,122.65 -15.69,260.93 -24.09,383.64 -8.89,129.8 -18.07,253.2 -24.89,382.26 -7.69,145.3 9.27,229.66 105.9,290.22 114.01,65.68 305.98,55.73 439.78,64.06 112.11,6.98 238.59,21.34 348.48,23.08 112.33,1.14 201.81,-19.74 251.19,-131.9 33.4,-77.99 34.64,-164 40.04,-247.36 5.87,-90.51 10.41,-181.1 16.28,-271.61zm735.88 -3504.75c-79.68,42.04 -210.51,105.64 -257.86,166.51 -177.12,255.77 133.77,516.03 348.79,353.57 81.57,-62.52 114.49,-158.47 93.66,-258.37 -17.55,-78.64 -55.15,-149.51 -77.53,-227.37 -24.37,-84.72 -52.09,-63.37 -107.05,-34.33zm-2305.13 4862.52l-219.91 -11.63c-10.84,-45.48 13.02,-329.42 15.61,-398.3 10.47,-278.2 45.84,-253.24 -158.9,-248.65 -93.06,2.09 -79.88,43.47 -82.19,130.73 -1.65,62.43 -6.86,129.44 -10.28,193.24 -7.15,133.48 -10.78,266.5 -19.84,397.18l-4.29 -6.32c-11.94,-20.98 -91.24,-338.02 -97.25,-360.72 -101.4,-383.57 -55.53,-358 -226.91,-349 -36.76,1.94 -68.75,-2.83 -85.78,27.79 -17.56,31.57 -91.67,491.59 -115.7,577.85 -13.58,-28.51 -11.47,-61.05 -48.44,-110.13 -101.74,-135.15 -261.26,-161.23 -237.93,-231.95 16.91,-51.24 93.14,0.78 118.3,3.8 50.1,6.03 55.33,-50.44 64.42,-91.06 7.31,-32.69 32.33,-101.82 18.29,-129.77 -17.56,-29.41 -47.36,-30.59 -78.8,-39.46 -100.04,-28.22 -201.43,-17.42 -284.91,46.46l-4.82 3.69c-54.83,42.72 -116.26,118.74 -100.42,232.93 15.91,114.61 141.32,218.96 230.1,268.93 29.86,16.81 95.4,41.06 76.45,86.17 -17.18,40.88 -88.73,-2.19 -114.02,-15.04 -109.54,-55.64 -86.26,-51.88 -166.98,101.7 -30.2,57.47 -24.69,80.42 26.5,109.12 113.71,63.76 259.63,105.34 385.2,19.67 43.91,-29.96 47.83,-47.46 84.3,-84.05 -0.51,41.57 -30.16,104.69 11.3,125.79 20.16,10.26 115.67,3.74 145.47,1.61 57.49,-4.1 55.84,-41.67 61.02,-94.82 14.44,-147.89 -9.03,-155.26 103.67,-145.75 30.74,50.08 15.64,206.17 77.1,224.62 20.31,6.1 123.54,3.6 147.36,-1.21 14.16,-2.86 19.16,-8.79 26.73,-9.75 13.57,-1.71 12.43,3.39 26.44,7.87 22.91,7.32 324.33,19.58 358.87,21.04 49.37,2.09 105.26,13.39 117.36,-31.71 8.21,-30.58 -0.73,-115.18 3.3,-155.86 27.43,42.86 52.72,68.75 86.95,95.46 110.69,82.23 241.43,99.45 375.78,93.93 43.61,-2.62 87.23,-5.6 99.46,-54.62 21.32,-94.17 21.89,-213.6 30.97,-312.27 2.3,-25.5 8.32,-93.12 -4.44,-113.88 -17.43,-28.39 -75.8,-27.47 -105.64,-29.5 -42.39,-2.88 -84.79,-5.77 -127.18,-8.65 -28.62,-2.11 -58.49,-7.55 -79.96,16.92 -17.3,21.78 -22.1,93.17 -14.09,118.37 19.38,61 119,-4.73 114.41,82 -0.64,12.04 -2.87,23.07 -5.45,34.79 -78.65,30.81 -147.13,-52.03 -160.28,-122.14 -14,-74.6 10.8,-164.9 60.35,-222.26 53.12,-59.23 154.81,-46.34 224.55,-30.46 6.98,1.58 13.73,3.33 20.64,5.2 62.06,1.27 59.11,-39.68 75.8,-93.3 10.4,-32.72 40.44,-107.1 23.32,-138.26 -18.6,-33.84 -100.78,-41.33 -135.25,-44.54 -47.63,-4.42 -115.25,-6.93 -163.21,-0.16 -301.35,43.34 -429.7,360.38 -369.99,595.72 7.63,30.04 21.28,55.2 12.85,62.64zm947.85 9.79c18.23,29.37 28.06,156.39 44.64,195.08 15.16,35.39 49.29,33.72 92.11,32.84 147.02,-3.03 149.49,-0.03 91.15,-206.06 -9.03,-31.89 -49.55,-174.52 -47.18,-196.04 -11.65,-14.71 -43.88,-153.64 -48.41,-170.7 -94.16,-353.96 -50.83,-326.71 -218.84,-318.25 -35.47,1.79 -66.18,-0.96 -82.67,22.15 -14.58,20.44 -65.48,308.92 -74.36,359.3 -25.29,139.19 -53.4,276.66 -80.4,415.38 -5.21,26.78 -9.08,48.94 -6.59,76.39 3.76,19.87 17.75,29.22 36.17,33.7 15.55,3.23 71.38,-0.39 93.46,-1.39 14.67,-0.67 43.02,-0.76 55.88,-4.48 22.86,-7.18 33.49,-23.92 36.95,-46.73 6.66,-43.76 10.13,-81.87 11.9,-125.89 2.86,-70.53 5.28,-70.36 96.19,-65.32zm1146.33 -424.27c50.19,-57.12 41.93,-65.27 89.53,-68.42 20.79,30.11 48.48,58.15 73.86,88.18 24.89,29.45 46,52.88 71.58,84.03 120.42,146.54 8.88,365.1 -183.42,348.19 -71.3,-9.03 -127.11,-44.99 -163.85,-107.19 -30.3,-51.3 -34.24,-123.06 -12.22,-178.06 25.26,-63.08 80,-116.46 124.51,-166.73z"/>
  </g>
 </g>
</svg>
