<?xml version="1.0" encoding="UTF-8"?>
<!DOCTYPE svg PUBLIC "-//W3C//DTD SVG 1.1//EN" "http://www.w3.org/Graphics/SVG/1.1/DTD/svg11.dtd">
<!-- Creator: CorelDRAW -->
<svg xmlns="http://www.w3.org/2000/svg" xml:space="preserve" width="33.8668mm" height="11.6952mm" version="1.1" style="shape-rendering:geometricPrecision; text-rendering:geometricPrecision; image-rendering:optimizeQuality; fill-rule:evenodd; clip-rule:evenodd"
viewBox="0 0 267.45 92.36"
 xmlns:xlink="http://www.w3.org/1999/xlink"
 xmlns:xodm="http://www.corel.com/coreldraw/odm/2003">
 <defs>
  <style type="text/css">
   <![CDATA[
    .fil0 {fill:#F58634}
    .fil1 {fill:#3E4095}
    .fil2 {fill:#3E4095;fill-rule:nonzero}
   ]]>
  </style>
 </defs>
 <g id="Camada_x0020_1">
  <metadata id="CorelCorpID_0Corel-Layer"/>
  <g id="_1350854648288">
   <path class="fil0" d="M27.11 0c2.38,2.42 4,5.05 4.93,7.99l-0.02 -0.03c0.42,3.59 -6.31,6.35 -13.9,8.23 14.87,-3.77 21.74,-1.23 6.32,3.69 8.26,-2.12 12.66,1.39 1.38,3.54 4.07,-0.25 6.42,-0.23 6.29,0.93 -0.81,3.09 -1.66,6.14 -2.47,9.13 1.48,0.56 2.97,1.21 4.42,1.96 4.21,-12.59 7.91,-24.8 -6.95,-35.45zm221.33 65.54c0,4.53 -4.62,4.51 -6.05,2.87 -1.39,-1.59 -1.45,-6.58 2.67,-6.58 2.34,0 3.37,1.49 3.37,3.71zm-1.32 0.08c0,-1.43 -0.45,-2.74 -2.11,-2.74 -2.6,0 -2.4,3.58 -1.69,4.65 0.76,1.15 3.17,1.27 3.68,-0.81 0.08,-0.33 0.12,-0.7 0.12,-1.1zm-8.5 2.39c0,0.49 -0.08,0.61 -0.53,0.89 -1.43,0.89 -3.99,0.8 -4.71,-1.61 -0.5,-1.67 -0.25,-4.45 1.75,-5.22 1.4,-0.54 3.38,0.01 3.45,0.89 0.11,1.32 -0.56,0.56 -0.87,0.36 -0.84,-0.56 -2.08,-0.63 -2.73,0.29 -0.71,1.02 -0.99,4.69 1.43,4.69 1.55,0 2.21,-1.75 2.21,-0.3zm-9.57 -6.02c0.29,0 0.4,0.12 0.4,0.41l-0.03 6.78c-0.13,0.17 -1.24,0.24 -1.24,-0.11l0 -6.03 -3.56 0 0 3.83c0,2.32 1.71,1.12 1.92,1.24 0.08,0.05 0.29,0.9 -0.2,1.11 -0.77,0.33 -2.5,0.35 -2.87,-1.13 -0.2,-0.78 -0.11,-4.06 -0.11,-5.05 -1.02,0 -1.22,0.15 -1.22,-0.52 0,-0.69 0.2,-0.53 1.22,-0.53l0.03 -1.74c0.12,-0.19 1.24,-0.26 1.24,0.1l0 1.64 4.43 0zm0.54 -2.13c0,0.59 -0.2,0.77 -0.79,0.77 -0.59,0 -0.78,-0.17 -0.78,-0.75 0,-0.59 0.2,-0.77 0.79,-0.77 0.59,0 0.78,0.17 0.78,0.75zm-10.04 7.33c0,2.99 -4.58,2.37 -4.84,1.45 -0.02,-0.09 -0.23,-1.2 0.42,-0.79 1.32,0.83 3.16,0.78 3.16,-0.56 0,-1.55 -3.45,-0.95 -3.45,-3.41 0,-2.69 4.15,-2.21 4.32,-1.36 0.05,0.22 0.15,1.08 -0.37,0.75 -1.05,-0.68 -2.75,-0.65 -2.75,0.54 0,1.57 3.5,0.99 3.5,3.38zm-8.08 -1.65c0,4.53 -4.62,4.51 -6.05,2.87 -1.39,-1.59 -1.45,-6.58 2.68,-6.58 2.34,0 3.37,1.49 3.37,3.71zm-1.32 0.08c0,-1.43 -0.45,-2.74 -2.11,-2.74 -2.6,0 -2.4,3.58 -1.69,4.65 0.76,1.15 3.17,1.27 3.68,-0.81 0.08,-0.33 0.12,-0.7 0.12,-1.1zm-1.49 -6.8c0.25,-0.43 1.41,-0.34 1.37,-0.06 -0.01,0.06 -1.44,2.01 -1.68,2.11 -0.06,0.03 -1.12,0.21 -0.8,-0.28l1.11 -1.77zm-7.78 10.25c0,0.34 -1.27,0.34 -1.27,0 0,-0.88 0.07,-4.34 -0.09,-4.98 -0.31,-1.23 -1.42,-1.45 -2.3,-0.82 -0.32,0.23 -0.65,0.55 -0.99,0.99 -0.05,0.15 0.07,4.79 -0.03,4.92 -0.13,0.17 -1.24,0.25 -1.24,-0.11l0.02 -7c0.1,-0.17 1.12,-0.25 1.12,0.11l0 0.91c0.64,-0.73 1.41,-1.26 2.32,-1.26 1.89,0 2.46,1.36 2.46,3.03l0 4.21zm-9.43 -6.57c0,0.66 -0.23,0.51 -1.25,0.51 0.98,1 0.62,3.78 -2.19,3.78 -0.46,0 -1.06,-0.12 -1.39,-0.39 -0.48,0.51 -0.46,1.32 0.61,1.36 0.71,0.03 2.12,0.03 2.73,0.22 2.05,0.61 1.87,3.21 -0.45,3.89 -1.55,0.45 -5.15,0.27 -4.53,-2.16 0.13,-0.53 0.51,-0.91 0.94,-1.25 -1.1,-0.57 -0.82,-1.82 -0.08,-2.6 -1.17,-1.4 -0.43,-4.41 2.75,-3.97 0.18,0.03 0.35,0.06 0.51,0.1l2.08 0c0.23,0 0.26,0.29 0.26,0.51zm-1.98 1.81c0,-1.86 -2.39,-1.95 -2.84,-0.54 -0.76,2.4 2.84,2.85 2.84,0.54zm0.63 5.45c0,-0.7 -0.69,-0.92 -1.35,-0.94l-1.78 -0.06c-0.15,0.05 -0.81,0.64 -0.81,1.31 0,1.24 2.69,1.23 3.49,0.6 0.3,-0.24 0.44,-0.54 0.44,-0.91zm-8.6 -0.68c0,0.32 -1.09,0.33 -1.09,0l0 -0.69c-1.64,1.75 -4.57,1.16 -4.57,-1.08 0,-2.37 2.82,-2.29 4.41,-2.29 0,-1.14 0.03,-2.16 -1.58,-2.16 -1.69,0 -2.49,1.43 -2.49,0.23 0,-0.56 0.34,-0.74 1.1,-0.99 1.35,-0.46 3.57,-0.47 4.07,1.21 0.1,0.32 0.15,0.7 0.15,1.13l0 4.65zm-1.25 -3.16c-1.07,0 -3.1,-0.21 -3.1,1.32 0,1.23 1.38,1.42 2.21,0.92 0.28,-0.17 0.58,-0.43 0.89,-0.77l0 -1.47zm-8.14 3.15c0,0.34 -1.27,0.34 -1.27,0l0.03 -6.99c0.11,-0.18 1.24,-0.25 1.24,0.1l0 6.89zm0.14 -9.21c0,0.59 -0.2,0.77 -0.79,0.77 -0.59,0 -0.78,-0.17 -0.78,-0.75 0,-0.59 0.2,-0.77 0.79,-0.77 0.59,0 0.78,0.17 0.78,0.75zm-5.17 4.31c0,3.35 -1.67,5.1 -5.03,5.1l-2.1 0c-0.29,0 -0.49,-0.18 -0.49,-0.54l0 -8.84c0,-0.36 0.21,-0.54 0.49,-0.54 2.07,0 4.4,-0.27 5.91,1.29 0.88,0.91 1.22,2.2 1.22,3.52zm-1.38 0.06c0,-2.33 -1.13,-3.77 -3.58,-3.77l-1.34 0 0 7.71c1.95,0 4,0.21 4.7,-2.19 0.15,-0.49 0.22,-1.08 0.22,-1.75zm-13.74 1.1c0,0.34 -0.18,0.55 -0.49,0.55l-4.53 0c0,1.54 0.59,2.51 2.24,2.51 1.89,0 2.61,-1.22 2.47,0.14 -0.04,0.39 -0.31,0.47 -0.91,0.64 -1.93,0.54 -4.21,0.3 -4.9,-1.88 -0.53,-1.69 -0.26,-4.34 1.71,-5.19 1.5,-0.65 3.66,-0.22 4.22,1.73 0.16,0.54 0.17,0.93 0.17,1.5zm-1.27 -0.37c0.06,-2.5 -2.36,-2.55 -3.23,-1.49 -0.33,0.41 -0.5,0.95 -0.51,1.49l3.75 0zm-8.81 4.12c0,0.34 -1.12,0.33 -1.12,0l0 -0.92c-0.67,0.73 -1.43,1.25 -2.41,1.25 -3.37,0 -3.24,-4.91 -2.04,-6.52 0.76,-1.03 2.26,-1.34 3.32,-0.78 0.33,0.18 0.66,0.44 0.99,0.78l0.03 -4.1c0.09,-0.17 1.24,-0.25 1.24,0.1l0 10.19zm-1.27 -4.85c-0.53,-0.67 -1.18,-1.31 -1.98,-1.31 -2.18,0 -2.22,4.22 -0.88,5.18 0.76,0.55 1.69,0.1 2.3,-0.48 0.18,-0.17 0.37,-0.38 0.56,-0.63l0 -2.76zm-11.92 1.32c0,4.53 -4.62,4.51 -6.05,2.87 -1.39,-1.59 -1.45,-6.58 2.67,-6.58 2.34,0 3.37,1.49 3.37,3.71zm-1.32 0.08c0,-1.43 -0.45,-2.74 -2.11,-2.74 -2.6,0 -2.4,3.58 -1.69,4.65 0.76,1.15 3.17,1.27 3.68,-0.81 0.08,-0.33 0.12,-0.7 0.12,-1.1zm-8.14 -3c0,1.58 -0.82,-0.71 -2.27,1.2 -0.15,0.2 -0.31,0.43 -0.49,0.72 -0.05,0.18 0.07,4.51 -0.03,4.64 -0.13,0.17 -1.24,0.25 -1.24,-0.11l0.02 -7c0.1,-0.17 1.12,-0.25 1.12,0.11l0 1c0.67,-0.99 1.42,-1.65 2.62,-1.23 0.3,0.11 0.26,0.25 0.26,0.67zm-7.58 5.93c0,0.6 -0.16,0.7 -0.92,0.8 -1.69,0.22 -2.36,-0.72 -2.36,-2.31l0 -4.02c-1.02,0 -1.22,0.15 -1.22,-0.52 0,-0.69 0.2,-0.53 1.22,-0.53l0.03 -1.74c0.12,-0.19 1.24,-0.26 1.24,0.1l0 1.64 1.86 0.03c0.2,0.12 0.23,1.02 -0.11,1.02l-1.76 0 0 3.83c0,2.32 1.7,1.12 1.9,1.24l0.1 0.45zm-7.62 0.51c0,0.34 -1.27,0.34 -1.27,0 0,-0.88 0.07,-4.34 -0.09,-4.98 -0.31,-1.23 -1.42,-1.45 -2.3,-0.82 -0.32,0.23 -0.65,0.55 -0.99,0.99 -0.05,0.15 0.07,4.79 -0.03,4.92 -0.13,0.17 -1.24,0.25 -1.24,-0.11l0.02 -7c0.1,-0.17 1.12,-0.25 1.12,0.11l0 0.91c0.64,-0.73 1.41,-1.26 2.32,-1.26 1.89,0 2.46,1.36 2.46,3.03l0 4.21zm-9.74 -3.75c0,0.34 -0.18,0.55 -0.49,0.55l-4.53 0c0,1.54 0.59,2.51 2.24,2.51 1.89,0 2.61,-1.22 2.47,0.14 -0.04,0.39 -0.31,0.47 -0.91,0.64 -1.93,0.54 -4.21,0.3 -4.9,-1.88 -0.53,-1.69 -0.26,-4.34 1.71,-5.19 1.5,-0.65 3.66,-0.22 4.22,1.73 0.16,0.54 0.17,0.93 0.17,1.5zm-1.27 -0.37c0.06,-2.5 -2.36,-2.55 -3.23,-1.49 -0.33,0.41 -0.5,0.95 -0.51,1.49l3.75 0zm-8.07 2.92c0,0.48 -0.07,0.58 -0.51,0.86 -1.52,0.98 -4.18,0.96 -5.54,-0.61 -2.01,-2.31 -1.67,-8.89 3.22,-8.89 0.82,0 2.58,0.43 2.76,1.1 0.05,0.17 0.2,1.39 -0.5,0.85 -2.2,-1.69 -5.23,-0.88 -5.23,3.18 0,2.01 0.74,3.87 2.98,3.87 2.16,0 2.82,-1.85 2.82,-0.36zm149.76 -58.34c0,2.65 -2.15,4.8 -4.8,4.8 -8.68,0 -3.61,-11.02 0.28,-14.3 -1.34,3.37 4.52,5.53 4.52,9.5zm-207 31.55c-2.92,12.71 -3.3,23.6 7.25,29.85 0.37,-0.62 0.73,-1.25 1.08,-1.9 -2.41,-1.92 -4.41,-3.98 -5.71,-5.88 -4.23,-6.96 1.02,-10.67 6.15,-9.85 -0.31,-0.78 -3.85,-2.12 -6.8,-0.46 0.24,-3.26 0.98,-6.53 1.93,-9.8 -1.25,-0.75 -2.57,-1.4 -3.9,-1.96zm10.01 31.26c2.35,1.05 5.13,1.92 8.38,2.59 -2.55,-1.01 -5.06,-2.37 -7.34,-3.91 -0.34,0.45 -0.69,0.89 -1.04,1.32z"/>
   <path class="fil1" d="M248.45 24.35l0.09 -0.09c0.43,-3.36 9.26,-2.55 9.59,0.09l0 26.27 9.21 0 0 -26.04 0.09 -0.32c-2.2,-7.69 -12.33,-9.06 -28.2,-5.6l-0.01 5.65 -0 0 0 1.57 0 24.75 9.21 0 0 -26.27zm-222.28 14.91c-22.8,-8.23 -31.35,-13.44 -23.08,-32.51 -0.91,3.7 -0.87,6.92 0.1,9.81l0.01 -0.04c1.95,2.92 10.68,-0.84 20.22,-5.63 -18.82,9.82 -23.86,17.14 -4.24,7.88 -10.17,5.33 -12.49,11.49 0.9,3.68 -4.49,3.2 -6.58,4.86 -5.66,5.58 1.69,1.02 12.45,5.66 14.32,6.34 18.08,6.59 23.79,20.96 4.18,41.73 5.24,-7.33 7.84,-13.69 8.06,-19.06 -0.69,-2.9 -3.45,-2.55 -8.35,2.28 3.86,-6 8.19,-6.73 7.47,-8.2l0.04 -0.01c-1.84,-5.24 -6.63,-9.2 -13.98,-11.85zm110.21 9.57c1.14,-1.71 1.92,-3.5 2.22,-5.42 13.88,4.68 12.76,-5.89 7.45,-7.18 -2.16,-0.53 -6.02,-2.64 -7.6,-5.17 -5.26,-8.4 6.66,-19.44 19.86,-12.31 -1.43,1.49 -2.6,3.2 -3.4,5.22 -5.35,-3.61 -10.46,0.17 -9.14,3.25 0.5,1.16 2.06,1.4 4.55,2.76 18.47,9.25 1.7,27.7 -13.93,18.84zm-78.58 -29.69l0 -11.45 9.21 -2.61 0 33.63 0 2.82c0.04,1.18 0.03,2.45 1.32,2.54l3.67 0 0 6.74 -7.01 0c-0.24,0.03 -0.48,0.05 -0.73,0.05 -3.62,0 -6.55,-3.43 -6.55,-7.67 0,-8 0.09,-16.04 0.09,-24.06zm43.44 12.53l-0.03 -6.93c-0.58,-9.73 -19.4,-11.27 -25.25,-5.75 1.21,1.58 2.02,3.17 2.66,4.75 3.21,-2.18 11.45,-2.41 13.68,-0.57l-0.09 6.27c-6.98,-2.21 -17.47,2.36 -17.76,9.34 -0.6,7.19 3.47,11.87 12.88,12.05 2.59,0.06 5.25,0.04 7.85,0.04 4.62,0 6.16,-0.92 6.16,-4.75 0,-4.84 -0.09,-9.6 -0.09,-14.45zm-8.4 1.7l0 8.62 -0 2.25c-0.03,0.72 -0.03,1.48 -1.29,1.54l-3.35 0c-2.88,-0.1 -5.98,-1.37 -5.84,-4.51 0,-2.38 0,-0.78 0,-3.16 -0.01,-3.59 5.84,-5.66 10.48,-4.73zm12.84 -14.23l0 -11.45 9.21 -2.61 0 12.89c7.13,-3.65 17.68,0.91 18.13,10.09 0.06,3.8 0.13,5.32 0.19,9.12 -0.21,7.29 -5.7,13.18 -13.33,13.61l0 0.02 -8.01 0.05c-4.71,0 -6.29,-1.52 -6.29,-7.85 0,-8 0.09,-15.86 0.09,-23.88zm9.21 2.81l0 16.76 0 3.72c0.04,1.18 0.03,2.45 1.32,2.54l2.77 0c2.93,-0.17 6.1,-2.26 5.96,-7.46 0,-3.93 0,-3.82 0,-7.74 0.02,-5.93 -5.32,-9.36 -10.05,-7.83zm72.77 9.72l-0.03 -6.93c-0.58,-9.73 -19.4,-11.27 -25.25,-5.75 1.21,1.58 2.02,3.17 2.66,4.75 3.21,-2.18 11.45,-2.41 13.68,-0.57l-0.09 6.27c-6.98,-2.21 -17.47,2.36 -17.76,9.34 -0.6,7.19 3.47,11.87 12.88,12.05 2.59,0.06 5.25,0.04 7.85,0.04 4.62,0 6.16,-0.92 6.16,-4.75 0,-4.84 -0.09,-9.6 -0.09,-14.45zm-8.4 1.7l0 8.62 -0 2.25c-0.03,0.72 -0.03,1.48 -1.29,1.54l-3.35 0c-2.88,-0.1 -5.98,-1.37 -5.84,-4.51 0,-2.38 0,-0.78 0,-3.16 -0.02,-3.59 5.84,-5.66 10.48,-4.73zm14.19 -14.23l0 -11.45 9.21 -2.61 0 12.89c7.13,-3.65 17.68,0.91 18.13,10.09 0.06,3.8 0.13,5.32 0.19,9.12 -0.21,7.29 -5.7,13.18 -13.33,13.61l0 0.02 -8.01 0.05c-4.71,0 -6.29,-1.52 -6.29,-7.85 0,-8 0.09,-15.86 0.09,-23.88zm9.21 2.81l0 16.76 0 3.72c0.04,1.18 0.03,2.45 1.32,2.54l2.77 0c2.93,-0.17 6.11,-2.26 5.96,-7.46 0,-3.93 0,-3.82 0,-7.74 0.02,-5.93 -5.32,-9.36 -10.05,-7.83zm31.92 28.68l-9.21 0 0 -33.63 9.21 0 0 33.63z"/>
   <path class="fil2" d="M58.1 77.19l12.32 0 0 3.21 -7.32 0 0 2.6 6.26 0 0 3.02 -6.26 0 0 6.08 -5 0 0 -14.92zm13.4 9.54c0,-1.65 0.6,-3.01 1.8,-4.08 1.2,-1.07 2.82,-1.6 4.86,-1.6 2.34,0 4.1,0.63 5.3,1.89 0.96,1.01 1.44,2.26 1.44,3.74 0,1.67 -0.59,3.03 -1.78,4.09 -1.19,1.06 -2.84,1.59 -4.94,1.59 -1.87,0 -3.39,-0.44 -4.55,-1.33 -1.42,-1.09 -2.13,-2.53 -2.13,-4.3zm4.48 -0.01c0,0.97 0.21,1.68 0.63,2.15 0.42,0.46 0.95,0.69 1.58,0.69 0.64,0 1.17,-0.23 1.58,-0.68 0.41,-0.45 0.62,-1.19 0.62,-2.19 0,-0.94 -0.21,-1.64 -0.62,-2.1 -0.42,-0.46 -0.93,-0.69 -1.55,-0.69 -0.65,0 -1.19,0.23 -1.61,0.7 -0.42,0.47 -0.63,1.18 -0.63,2.13zm11.08 -5.43l4.17 0 0 1.76c1.22,-1.41 2.36,-2.01 4.21,-2.01 1.24,0 2.2,0.34 2.91,1.02 0.7,0.68 1.05,1.74 1.05,3.16l0 6.88 -4.5 0 0 -5.95c0,-0.68 -0.14,-1.16 -0.41,-1.44 -0.27,-0.28 -0.65,-0.42 -1.14,-0.42 -0.54,0 -0.98,0.19 -1.31,0.57 -0.33,0.38 -0.5,1.06 -0.5,2.05l0 5.19 -4.48 0 0 -10.81zm27.99 6.44l-8.98 0c0.08,0.66 0.27,1.16 0.59,1.49 0.43,0.47 1,0.7 1.7,0.7 0.44,0 0.86,-0.1 1.26,-0.3 0.24,-0.13 0.51,-0.35 0.78,-0.68l4.41 0.38c-0.68,1.08 -1.49,1.86 -2.44,2.33 -0.95,0.47 -2.32,0.71 -4.11,0.71 -1.55,0 -2.77,-0.2 -3.66,-0.61 -0.89,-0.4 -1.62,-1.04 -2.21,-1.92 -0.58,-0.88 -0.88,-1.92 -0.88,-3.1 0,-1.69 0.59,-3.06 1.76,-4.11 1.17,-1.04 2.78,-1.57 4.84,-1.57 1.67,0 2.99,0.24 3.96,0.7 0.97,0.47 1.71,1.15 2.21,2.04 0.51,0.89 0.76,2.05 0.76,3.48l0 0.47zm-4.55 -1.98c-0.09,-0.81 -0.32,-1.38 -0.7,-1.73 -0.38,-0.35 -0.87,-0.52 -1.49,-0.52 -0.71,0 -1.28,0.26 -1.71,0.79 -0.27,0.33 -0.44,0.81 -0.52,1.46l4.42 0zm6.62 -4.46l4.77 0 0 4.15 -4.77 0 0 -4.15zm0 6.67l4.77 0 0 4.15 -4.77 0 0 -4.15zm18.9 -6.46l-4.23 -0.7c0.35,-1.25 1.02,-2.2 2.03,-2.87 1,-0.66 2.41,-1 4.24,-1 2.1,0 3.62,0.36 4.56,1.09 0.94,0.73 1.4,1.64 1.4,2.74 0,1.45 -0.97,2.44 -2.29,3.12 0.62,0.14 1.1,0.31 1.43,0.5 1.12,0.65 1.69,1.66 1.69,2.99 0,0.87 -0.24,1.7 -0.74,2.5 -0.49,0.8 -1.2,1.41 -2.12,1.84 -0.92,0.43 -2.14,0.65 -3.64,0.65 -1.46,0 -2.62,-0.16 -3.46,-0.48 -1.75,-0.66 -2.78,-1.92 -3.35,-3.72l4.48 -0.55c0.18,0.84 0.45,1.42 0.82,1.74 0.37,0.32 0.84,0.49 1.41,0.49 0.6,0 1.1,-0.2 1.5,-0.61 0.4,-0.41 0.6,-0.95 0.6,-1.63 0,-1.36 -0.79,-2.18 -2.14,-2.18 -0.35,0 -0.83,0.08 -1.45,0.24l0.23 -2.96c0.24,0.03 0.44,0.05 0.57,0.05 0.58,0 1.06,-0.17 1.45,-0.52 0.39,-0.34 0.58,-0.75 0.58,-1.22 0,-0.96 -0.68,-1.49 -1.64,-1.49 -0.53,0 -0.95,0.15 -1.28,0.44 -0.33,0.29 -0.55,0.81 -0.66,1.54zm18.38 7.81l-8.15 0 0 -3.41 8.15 -8.97 3.9 0 0 9.17 2.03 0 0 3.21 -2.03 0 0 2.79 -3.9 0 0 -2.79zm0 -3.21l0 -4.71 -4.31 4.71 4.31 0zm10.01 -2.02c-0.7,-0.34 -1.22,-0.73 -1.54,-1.16 -0.44,-0.58 -0.66,-1.25 -0.66,-2.01 0,-1.25 0.63,-2.27 1.9,-3.06 0.99,-0.61 2.3,-0.91 3.93,-0.91 2.16,0 3.75,0.38 4.78,1.14 1.03,0.76 1.55,1.72 1.55,2.87 0,0.67 -0.21,1.3 -0.62,1.88 -0.31,0.43 -0.8,0.85 -1.46,1.26 0.87,0.39 1.52,0.9 1.95,1.54 0.43,0.64 0.65,1.34 0.65,2.12 0,0.75 -0.18,1.44 -0.56,2.09 -0.37,0.65 -0.83,1.15 -1.36,1.5 -1.21,0.79 -3.05,1.03 -4.58,1.03 -1.71,0 -3.01,-0.19 -3.91,-0.56 -0.9,-0.38 -1.58,-0.92 -2.05,-1.65 -0.47,-0.73 -0.71,-1.54 -0.71,-2.43 0,-1.83 0.95,-3 2.69,-3.63zm2.02 -2.93c0,0.51 0.18,0.93 0.53,1.25 0.35,0.32 0.81,0.47 1.4,0.47 1,0 1.77,-0.66 1.77,-1.68 0,-1.07 -0.8,-1.74 -1.85,-1.74 -0.54,0 -0.99,0.16 -1.33,0.47 -0.34,0.32 -0.51,0.73 -0.51,1.23zm-0.25 6.42c0,0.66 0.22,1.19 0.65,1.61 0.43,0.42 0.93,0.63 1.48,0.63 0.54,0 1.02,-0.21 1.44,-0.64 0.42,-0.42 0.64,-0.96 0.64,-1.61 0,-0.66 -0.21,-1.2 -0.64,-1.62 -0.43,-0.42 -0.93,-0.63 -1.49,-0.63 -0.56,0 -1.04,0.2 -1.46,0.61 -0.42,0.41 -0.62,0.96 -0.62,1.65zm18.26 1.74l-8.15 0 0 -3.41 8.15 -8.97 3.9 0 0 9.17 2.03 0 0 3.21 -2.03 0 0 2.79 -3.9 0 0 -2.79zm0 -3.21l0 -4.71 -4.3 4.71 4.3 0zm7.77 1.86l4.77 0 0 4.15 -4.77 0 0 -4.15zm8.87 -10.77l10.63 0 0 3.31 -7.2 0 -0.38 2.23c0.94,-0.41 1.92,-0.65 2.92,-0.65 1.61,0 2.92,0.45 3.92,1.35 1,0.9 1.5,2.04 1.5,3.41 0,0.96 -0.26,1.89 -0.77,2.78 -0.52,0.89 -1.25,1.57 -2.2,2.04 -0.95,0.47 -2.17,0.7 -3.64,0.7 -1.7,0 -3.4,-0.23 -4.67,-1.12 -1.11,-0.78 -1.7,-1.68 -2.12,-3.01l4.53 -0.46c0.11,0.67 0.37,1.19 0.77,1.54 0.41,0.35 0.89,0.52 1.44,0.52 0.63,0 1.14,-0.22 1.55,-0.66 0.41,-0.44 0.61,-1.09 0.61,-1.96 0,-0.89 -0.21,-1.54 -0.62,-1.95 -0.41,-0.41 -0.96,-0.62 -1.64,-0.62 -0.43,0 -0.85,0.1 -1.25,0.3 -0.3,0.14 -0.63,0.4 -0.99,0.77l-3.82 -0.51 1.42 -8.02zm17.54 4.31l-4.23 -0.7c0.35,-1.25 1.03,-2.2 2.03,-2.87 1,-0.66 2.41,-1 4.24,-1 2.1,0 3.62,0.36 4.56,1.09 0.93,0.73 1.4,1.64 1.4,2.74 0,1.45 -0.96,2.44 -2.29,3.12 0.62,0.14 1.1,0.31 1.43,0.5 1.12,0.65 1.69,1.66 1.69,2.99 0,0.87 -0.24,1.7 -0.74,2.5 -0.49,0.8 -1.2,1.41 -2.12,1.84 -0.92,0.43 -2.14,0.65 -3.64,0.65 -1.46,0 -2.62,-0.16 -3.46,-0.48 -1.75,-0.66 -2.78,-1.92 -3.35,-3.72l4.48 -0.55c0.18,0.84 0.45,1.42 0.82,1.74 0.37,0.32 0.84,0.49 1.41,0.49 0.6,0 1.1,-0.2 1.5,-0.61 0.4,-0.41 0.6,-0.95 0.6,-1.63 0,-1.36 -0.79,-2.18 -2.14,-2.18 -0.35,0 -0.83,0.08 -1.45,0.24l0.23 -2.96c0.24,0.03 0.44,0.05 0.57,0.05 0.58,0 1.06,-0.17 1.45,-0.52 0.39,-0.34 0.58,-0.75 0.58,-1.22 0,-0.96 -0.68,-1.49 -1.64,-1.49 -0.53,0 -0.95,0.15 -1.28,0.44 -0.33,0.29 -0.55,0.81 -0.66,1.54zm18.38 7.81l-8.15 0 0 -3.41 8.15 -8.97 3.9 0 0 9.17 2.03 0 0 3.21 -2.03 0 0 2.79 -3.9 0 0 -2.79zm0 -3.21l0 -4.71 -4.3 4.71 4.3 0zm17.47 -9.17l0 15.17 -4.53 0 0 -9.93c-1.54,1.08 -2.81,1.62 -4.71,2.15l0 -3.38c1.52,-0.46 2.71,-1.01 3.55,-1.65 0.84,-0.64 1.51,-1.43 1.98,-2.38l3.7 0z"/>
  </g>
 </g>
</svg>
