<?xml version="1.0" encoding="UTF-8"?>
<!DOCTYPE svg PUBLIC "-//W3C//DTD SVG 1.1//EN" "http://www.w3.org/Graphics/SVG/1.1/DTD/svg11.dtd">
<!-- Creator: CorelDRAW -->
<svg xmlns="http://www.w3.org/2000/svg" xml:space="preserve" width="36.0651mm" height="39.0292mm" version="1.1" style="shape-rendering:geometricPrecision; text-rendering:geometricPrecision; image-rendering:optimizeQuality; fill-rule:evenodd; clip-rule:evenodd"
viewBox="0 0 157.44 170.38"
 xmlns:xlink="http://www.w3.org/1999/xlink"
 xmlns:xodm="http://www.corel.com/coreldraw/odm/2003">
 <defs>
  <style type="text/css">
   <![CDATA[
    .fil0 {fill:#CDAC81}
   ]]>
  </style>
 </defs>
 <g id="Camada_x0020_1">
  <metadata id="CorelCorpID_0Corel-Layer"/>
  <path class="fil0" d="M123.77 10.14c3.47,0 4.95,-5.46 1.67,-8.01 -0.8,-0.45 -0.68,-0.05 -1.5,-0.89 -2.25,-2.3 -4.41,-0.72 -6.83,-0.46 -14.08,1.46 -17.61,12.58 -18.61,25.09 -0.07,0.85 -0.51,1.91 -0.53,2.9 -0.1,3.83 -0.32,7.56 -0.82,11.46l-0.32 3.74c-0,1.41 -0.98,9.07 -2.07,9 -2.29,-0.14 -4.67,-0.83 -6.99,-0.98 -3.52,-0.23 -13.83,-0.05 -18.15,0.87 -5.22,1.11 -2.97,0.75 -4.48,-2.05 -0.25,-0.46 -1.91,-5.93 -2.38,-7.3 -0.72,-2.11 1.64,-1.71 4.93,-2.58 1.04,-0.3 0.98,0.18 1.11,0.6 0.63,2.01 1.28,3.34 1.82,5.67 1.17,0 0.36,0.59 1.04,0.83 0.36,-0.73 -0.1,-2.06 -0.1,-2.71 0.58,0.16 1.18,1.89 1.56,3.54l0.31 0c-0.08,-2.3 -0.34,-4.4 -0.61,-6.57 -0.09,-0.81 -0.33,-1.45 -0.33,-2.27 1.99,-0.28 4.55,-1.1 6.55,-0.62 0.37,0.78 0.06,2.71 0.82,3.22l0.33 -0.83c0.11,0.46 0.09,1.34 0.52,1.46 0,-0.96 -0.28,-3.3 -0.1,-4.06 1,0.02 1.14,3.06 1.35,3.95l0.21 0c0,-0.62 -0.3,-4.16 0.21,-4.16l8.64 0.1c-0.12,-0.47 -1.13,-0.73 -1.6,-0.9 -1.61,-0.59 -0.26,-1.24 -4.59,-2.69 -4.34,-1.39 -2.93,0.12 -3.9,-3.59 -0.65,-2.49 -0.82,-2.61 4.78,-2.6 1.57,0 6.25,0.13 7.36,-0.03 1.01,-0.15 0.52,0.14 1.48,0.14l0 -0.21c-0.43,-0.1 -0.49,-0.1 -1.04,-0.1 -0.82,-1.23 -2.97,-0.35 -3.64,-1.35 0.59,-0.14 1.05,-0.1 1.77,-0.1 -4.4,-1.46 -9.49,-0.91 -12.28,-1.56 -0.24,-1.03 -2.2,-5.59 -2.08,-6.14 0.99,-0.23 18.85,0.6 21.12,0.62 -0.78,0 -1.57,-0.7 -3.92,-1.07 -0.55,-0.09 -1.02,0.02 -1.07,-0.59l1.25 -0.21c-3.93,-0.91 -19.64,-3.83 -23.72,-3.95 -1.4,-0.04 -4.71,-0.54 -6.36,-0.72 -2.8,-0.3 -8.38,-0.43 -11.33,-0.43 -5.49,0 -10.87,0.39 -16.01,2.3 -6.52,2.43 -8.15,7.96 -5.76,14.16 3.23,8.42 13.48,18.75 20.2,24.44 0.91,0.77 -0.01,-0.24 1.99,0.82 -0.45,-1.93 -3.8,-5.29 -3.95,-7.18 1.63,-1.72 5.55,-2.74 7.61,-3.94 1.84,-1.07 1.91,0.8 3.01,2.26 1.48,1.95 2.16,5.32 4.04,6.57 -0.16,-0.67 -0.45,-1.39 -0.52,-2.18 0.66,0.11 0.96,1.31 1.31,1.81 0.93,1.09 -0.04,0.94 -1.06,1.15 -2.49,0.52 -22.16,5.09 -18.91,9.87 0.82,1.2 1.37,1.43 2.2,1.54 0.54,0.07 0.62,0.72 1.05,0.72 1.91,0 11.97,-3.29 15.29,-3.86 8.29,-1.42 15.74,-2.58 24.01,-1.42 4.15,0.58 7.55,2.15 10.33,4.97 0.72,0.73 3.44,3.35 3.44,4.47 0,0.69 -1.13,-0.37 -1.41,-0.57 -10.2,-6.92 -34.12,-6.87 -44.94,-1.46 -0.41,0.21 -1.18,0.43 -1.3,0.88 2.96,0.07 4.28,0.5 6.61,1.92 2.43,1.47 0.52,1.38 4.39,0.86 6.89,-0.92 13.78,-0.81 20.7,0.16 6.73,0.95 1.44,-0.02 6.76,-2.46 4.63,-2.12 10.32,2.37 12.08,6.3 0.83,1.86 0.76,0.67 1.14,1.67 2.54,6.64 -3.75,8.47 -3.93,8.72 4.41,0 5.93,-3.63 4.91,-7.62 -0.16,-0.63 -0.55,-1.15 -0.02,-1.54 0.48,0.35 0.41,1.15 0.83,1.46 1.97,-0.53 4.52,-15 -0.65,-20.58 -0.88,-0.95 -1.27,-0.94 -2.16,-1.59 1.62,-6.94 1.32,-16.61 1.42,-17 1,-3.81 -1.4,-18.24 4.67,-26.44 1.46,-1.97 5.12,-5.06 8.26,-4.63 0.88,0.12 1.95,1.76 4.9,1.97zm-71.89 152.1c-0.55,0 -1.65,0.55 -1.48,1.79 0.06,0.46 0.17,0.5 0.33,0.81 -0.36,0.53 -0.83,0.62 -0.83,1.56 0,2.73 4.06,2.54 4.06,0 0,-0.78 -0.54,-1.13 -0.83,-1.56 0.11,-0.41 0.28,-0.35 0.36,-0.88 0.12,-0.83 -0.68,-1.72 -1.61,-1.72zm-0.73 1.35c0,-0.61 1.56,-1.07 1.56,0.42 0,0.49 -1.56,1.36 -1.56,-0.42zm15.29 0.31c0,0.39 0.25,0.69 0.42,0.94 -0.48,0.51 -1.13,1 -0.81,2.16 0.45,1.63 3.19,2.06 3.89,-0.02 0.38,-1.11 -0.32,-1.64 -0.79,-2.14 0.5,-0.74 0.74,-1.46 -0.18,-2.22 -1.07,-0.88 -2.53,-0.04 -2.53,1.28zm0.73 -0.21c0,-0.16 0.35,-0.62 0.62,-0.62 1.54,0 1.15,1.56 0.21,1.56 -0.56,0 -0.83,-0.38 -0.83,-0.94zm-0.42 2.6c0,-1.46 2.5,-1.47 2.5,0 0,1.83 -2.5,1.74 -2.5,0zm-13.73 -13.01c0.13,-0.48 0.67,-0.77 0.18,-1.74 -0.47,-0.92 -1.73,-1.14 -2.5,-0.37 -0.7,0.7 -0.47,1.36 -0.07,2.11 -0.36,0.53 -0.83,0.62 -0.83,1.56 0,2.69 4.06,2.55 4.06,0 0,-0.78 -0.54,-1.13 -0.83,-1.56zm-1.98 -1.25c0,-0.66 1.56,-0.93 1.56,0.21 0,0.5 -0.33,0.83 -0.83,0.83 -0.77,0 -0.73,-0.69 -0.73,-1.04zm-0.52 2.81c0,-0.53 0.41,-1.02 0.83,-1.16 1.91,-0.64 2.49,2.4 0.32,2.4 -0.52,0 -1.14,-0.67 -1.14,-1.25zm23.72 -1.46c0.13,-0.56 0.42,-0.51 0.42,-1.25 0,-1.04 -1.59,-2.07 -2.72,-0.95 -0.84,0.84 -0.14,1.91 -0.09,2.09 -0.27,0.4 -0.51,0.42 -0.68,0.98 -0.67,2.13 2.02,3.41 3.45,1.89 0.57,-0.6 0.61,-1.61 0.18,-2.29 -0.18,-0.29 -0.31,-0.31 -0.56,-0.48zm-1.98 -1.04c0,-0.52 0.2,-0.83 0.73,-0.83 0.69,0 0.83,0.15 0.83,0.83 0,1.03 -1.56,0.93 -1.56,0zm-0.42 2.29c0,-0.68 0.83,-1.28 1.75,-0.91 1.75,0.7 0.12,3.3 -1.33,2.05 -0.5,-0.43 -0.42,-0.59 -0.42,-1.14zm-5.51 -2.29c0,0.39 0.25,0.69 0.42,0.94 -0.82,0.55 -0.83,1.07 -0.83,1.77 0,2.32 3.95,2.35 3.95,0 0,-1.09 -0.13,-1.02 -0.83,-1.77 1.78,-2.65 -2.71,-3.66 -2.71,-0.94zm0.73 -0.21c0,-0.42 0.96,-1.04 1.45,-0.41 0.91,1.15 -1.45,2.16 -1.45,0.41zm-0.42 2.7c0,-1.81 2.5,-1.46 2.5,-0.1 0,1.85 -2.5,1.69 -2.5,0.1zm17.06 1.98c2.49,0 2.37,-3.91 1.6,-5.24 -0.66,-1.14 -2.57,-1.17 -3.29,-0.09 -0.69,1.03 -1.2,5.33 1.69,5.33zm-1.46 -3.23c0,-0.98 0.29,-2.08 1.25,-2.08 1.68,0 1.46,1.51 1.46,2.91 0,1.88 -2.7,2.87 -2.7,-0.83zm10.72 14.77c0.45,0 0.74,-0.13 1.01,-0.34l0.47 -0.46c0.6,-0.87 0.71,-3.3 0.01,-4.44 -0.27,-0.45 -0.96,-0.9 -1.6,-0.9 -2.78,0 -2.47,4.32 -1.62,5.48 0.39,0.53 1.04,0.66 1.73,0.66zm-1.56 -3.12c0,-2.57 1.9,-2.67 2.5,-1.46 0.48,0.94 0.62,3.86 -1.15,3.86 -1.18,0 -1.35,-1.48 -1.35,-2.39zm-28.82 -14.57c-0.33,0 -1.07,0.43 -1.26,0.61 -1.41,1.41 -0.08,4.45 2.51,2.72 0,0.98 -0.31,2.08 -1.25,2.08 -1,0 -0.59,-0.64 -1.56,-0.42 0,0.6 0.1,0.63 0.49,0.86 1,0.59 2.11,0.34 2.72,-0.77 0.65,-1.2 0.88,-5.08 -1.65,-5.08zm-1.04 1.87c0,-1.37 2.29,-1.49 2.29,0.21 0,1.19 -2.29,1.71 -2.29,-0.21zm1.14 9.68c-0.39,0 -1.03,0.41 -1.25,0.62 -1.06,1 -0.61,3.23 1.15,3.23 0.83,0 0.87,-0.19 1.35,-0.52 0,3.44 -2.48,1.56 -2.5,1.56 -0.62,0 -0.5,1.25 1.46,1.25 2.29,0 2.82,-6.14 -0.21,-6.14zm-1.04 1.87c0,-1.3 2.29,-1.49 2.29,0.21 0,1.29 -2.29,1.65 -2.29,-0.21zm13.42 2.18c0,-1.24 -1.47,-2.38 -2.81,-1.33 -0.18,0.14 -0.11,0.35 -0.26,0.04 -0.02,-0.05 -0.02,-1.94 1.19,-1.94 1.2,0 0.75,0.42 1.25,0.42 1.27,0 -0.51,-1.98 -2.16,-0.91 -1.07,0.69 -1.07,2.25 -1.07,3.41 0,3.2 3.85,3.11 3.85,0.31zm-3.02 0.21c0,-0.81 0.29,-1.25 1.25,-1.25 1.1,0 1.87,2.29 -0.42,2.29 -0.32,0 -0.83,-0.48 -0.83,-1.04zm29.96 -13.01c0,-1.7 0.89,-2.47 2.01,-1.8 0.53,0.32 0.23,0.46 0.79,0.14l0 -0.52c-0.32,-0.09 -1.28,-1.15 -2.56,-0.27 -0.94,0.64 -0.88,1.62 -1.03,2.73 -0.09,0.65 0.12,1.66 0.36,2.13 0.25,0.51 0.9,0.93 1.57,0.93 2.17,0 2.63,-3 0.88,-3.69 -1.09,-0.43 -1.73,0.28 -2.03,0.36zm0 1.46c0,-1.72 2.29,-1.55 2.29,-0.31 0,0.68 -0.11,1.43 -1.13,1.4 -0.75,-0.03 -1.16,-0.74 -1.16,-1.08zm-10.72 -2.08c0,0.36 0.34,1.01 0.56,1.21 1.04,0.93 1.99,0.24 2.56,-0.06 0,0.93 -0.35,2.08 -1.25,2.08 -0.83,0 -0.89,-0.52 -1.25,-0.52 -0.61,0 -0.49,1.25 1.35,1.25 1.89,0 1.87,-2.53 1.87,-3.85 0,-3.09 -3.85,-2.91 -3.85,-0.1zm0.83 -0.42c0,-0.56 0.51,-0.94 1.04,-0.94 1.69,0 1.53,2.29 0.21,2.29 -1.09,0 -1.25,-0.4 -1.25,-1.35zm-15.81 0.31c0,0.95 0.79,1.77 1.56,1.77 1.49,0 1.29,-0.82 1.51,-0.37 0.16,0.33 -0.26,1.93 -1.2,1.93 -1.17,0 -0.82,-0.88 -1.67,-0.31 0.06,0.67 0.82,1.04 1.56,1.04 1.97,0 2.08,-2.08 2.08,-3.64 0,-3.45 -3.85,-3.02 -3.85,-0.42zm0.73 0c0,-2.41 3.56,-0.83 2.01,0.76 -0.56,0.58 -2.01,0.3 -2.01,-0.76zm7.59 10.3c0.21,-0.46 0.02,-0.73 -0.52,-0.73 -2.56,0 -2.49,-0.22 -2.65,0.68 -0.13,0.73 -0.6,2.12 -0.26,2.75 0.83,-0.07 0.4,-0.52 1.87,-0.52 1.63,0 1.56,2.39 -0.21,2.39 -1,0 -1.1,-0.83 -1.56,-0.83 -0.86,0 0.13,1.56 1.46,1.56 3.13,0 2.85,-3.85 0.42,-3.85 -0.64,0 -0.85,0.27 -1.35,0.31 0.11,-0.46 0.31,-1.15 0.31,-1.66 0.7,-0.16 1.64,-0.1 2.5,-0.1zm14.36 5.31c0.64,-0.43 0.2,-0.48 0.44,-1.12 0.22,-0.59 0.91,0.15 0.91,-0.54 0,-0.48 -0.69,-0.31 -0.94,-0.42 0,-0.73 -0,-1.46 0,-2.18 0,-1.06 0.14,-1.2 -0.31,-1.87 -0.63,0.33 -2.18,2.79 -2.6,3.43 -0.51,0.77 -0.63,0.59 -0.62,1.35l2.7 0c0,1.02 -0.11,1 0.42,1.35zm-2.08 -2.08c0.08,-0.28 1.31,-2.16 1.66,-2.39l-0 2.39c-0.46,0 -1.46,0.09 -1.66,0zm12.38 -9.57c0.04,-0.19 0.08,-1.03 0.2,-1.15 0.29,-0.28 0.3,0.12 0.94,-0.3 -0.16,-0.7 -0.52,-0.41 -1.04,-0.52 0,-2.75 0.41,-5.38 -1.13,-3.1l-1.29 1.83c-1.41,2.12 -1.75,2.01 0.44,2 0.61,-0 1.16,-0.17 1.25,0.31 0.13,0.73 -0.37,0.93 0.63,0.93zm-1.66 -1.98c-0.33,0 -0.82,0.29 -0.55,-0.31l1.48 -2.08c0.14,0.27 0.1,-0.09 0.1,0.31l0 2.08 -1.04 0zm1.77 11.55c0,-3.73 0.34,-5.16 -1.22,-2.99 -0.2,0.28 -0.29,0.45 -0.5,0.74l-1.55 2.2c-1.03,1.5 1.73,0.41 2.39,0.82 0.34,0.21 0.02,0.65 0.21,1.05 0.15,0.32 0.55,0.26 0.65,-0.08 0.16,-0.53 -0.22,-0.82 0.26,-1 0.64,-0.23 0.39,0.34 0.81,-0.44 -0.64,-0.43 -0.69,-0.17 -1.04,-0.31zm-2.39 0c0.04,-0.43 1.25,-2.18 1.66,-2.29l0 2.29c-0.31,0.07 -1.42,0.11 -1.66,0zm-23.2 -21.64c-0.7,0 -1.96,-1.27 -0.43,-1.26 0.97,0.01 2.71,0.22 2.71,-0.3 0,-0.89 -0.42,-1.58 -1.11,-1.91 -2.14,-1.03 -4.35,1.78 -2.46,3.6 1.73,1.67 4.2,-0.66 2.94,-0.66 -0.82,0 0.03,0.52 -1.66,0.52zm-0.83 -1.77c-0.78,0 0,-1.23 1.04,-1.23 1.02,-0 1.72,1.23 1.04,1.23l-2.08 0zm13.73 8.64c0,0.88 0.45,0 1.66,0 0.69,0 0.97,1.4 0.08,1.64 -0.26,0.07 -0.63,0.07 -0.91,0.13 0,0.99 0.19,0.48 1,0.67 0.91,0.22 1.05,1.49 0.34,1.92 -1.23,0.74 -1.78,-0.51 -2.17,-0.51 -0.96,0 -0.01,1.46 1.56,1.46 1.51,0 2.51,-2.02 1.4,-2.96 -0.24,-0.2 0.16,-0.1 -0.36,-0.16 0.05,-0.64 0.9,-0.89 0.42,-1.98 -0.74,-1.67 -3.02,-0.95 -3.02,-0.21zm-18.83 10.72c-0.53,0 -1.46,0.49 -1.4,0.92 0.09,0.62 0.7,0.07 1.04,-0.03 0.68,-0.2 1.29,0.15 1.29,0.56 0,0.98 -0.4,1.06 -1.46,1.14 0,1.08 0.3,0.41 1.08,0.69 0.91,0.34 1.16,2.12 -0.66,2.12 -0.85,0 -0.49,-0.73 -1.56,-0.73 -0.23,0.99 1.07,1.46 1.67,1.46 2.31,0 2.6,-2.76 1.25,-3.12 0.07,-0.84 0.52,-0.15 0.52,-1.56 0,-0.79 -0.96,-1.46 -1.77,-1.46zm23.72 0.94c0.68,0.72 0.55,-0.1 1.35,-0.1 0.5,0 1.04,0.18 1.04,0.62 0,1.7 -2,0.69 -1.47,1.57 0.23,0.38 0.71,0.07 1.22,0.35 0.65,0.35 0.79,1.33 0.19,1.76 -0.17,0.12 -0.52,0.28 -0.76,0.28 -1.3,0 -0.81,-0.71 -1.77,-0.73 -0.05,0.21 -0.3,0.52 0.42,1.03 1.13,0.8 2.67,0.42 3.15,-0.79 0.29,-0.72 0.04,-1.72 -0.66,-1.91 0.05,-0.57 0.52,-0.6 0.52,-1.25 0,-2.19 -2.87,-2.16 -3.23,-0.83zm-27.99 -17.79c3.13,0 2.88,-4.37 0.31,-4.37l-0.52 0c-2.44,0 -2.64,4.37 0.21,4.37zm0.1 -0.73c-1.86,0 -2.06,-2.91 0,-2.91 1.93,0 1.84,2.91 0,2.91zm-3.12 -4.89c0.24,0 0.42,-0.17 0.42,-0.42 0,-0.49 -0.77,-0.31 -1.66,-0.31 -0.62,0 -1.25,0 -1.87,0 -0.2,0.84 -0.2,5.4 0,6.24l0.52 0c0.26,-0.5 0.22,-0.51 0.21,-1.25 -0.02,-1.72 -0.23,-1.47 1.46,-1.45 0.7,0.01 0.72,0.06 0.72,-0.63 -0.78,-0.18 -1.25,-0.1 -2.18,-0.1l0 -2.08 2.39 0zm6.87 5.51c0.56,0 0.25,-1.1 0.31,-2.19 0.08,-1.69 2.28,-2.08 2.3,0.21 0.01,1.98 -0.24,1.98 0.62,1.98 0.19,-0.79 0.1,-1.44 0.1,-2.39 0,-1.01 -0.55,-1.87 -1.15,-1.87 -1.14,0 -0.89,-0.07 -1.77,0.52 -0.19,-0.36 -0.12,-0.48 -0.63,-0.52 -0.13,0.19 -0.21,0.18 -0.21,0.42l0 3.54c0,0.32 0.14,0.31 0.42,0.31zm-29.55 8.84c0,-2.11 1.14,-2.76 0.94,-3.64 -0.66,0.01 -0.86,0.52 -1.25,1.46 -0.61,1.45 -0.54,3.95 0.01,5.4 0.34,0.88 0.52,1.45 1.24,1.47 0.25,-1.06 -0.94,-0.87 -0.94,-4.68zm11.19 15.46c0.49,-0.83 0.77,-2.37 0.77,-3.39 0,-3.36 -1.77,-4.96 -1.77,-3.85 0,0.14 0.63,1.41 0.74,1.75 1.01,3.14 -0.74,5.58 -0.74,6.05 0,0.02 0.21,0.78 1,-0.56zm0.29 -12.51c0.54,-1.74 0.47,-3.19 -0.02,-4.85 -0.6,-2.05 -1.38,-1.98 -1.38,-1.43l0.72 1.78c1.07,3.13 -0.72,5.53 -0.72,6.02 0,0.32 0.75,0.55 1.39,-1.52zm-11.38 8.6c0,-1.92 0.94,-2.45 0.94,-3.64 -0.54,0.01 -0.61,0.19 -0.82,0.53 -0.98,1.57 -1.11,4.51 -0.42,6.32 0.34,0.88 0.52,1.45 1.24,1.47 0.11,-0.48 0.07,-0.41 -0.17,-0.87 -0.76,-1.43 -0.77,-2.22 -0.77,-3.81zm6.87 -2.29c0.55,0 0.58,-0.09 1.04,-0.1l0 4.68c0,0.49 0.73,0.49 0.73,0l0 -5.62c-0.48,0 -0.67,0.09 -1.03,0.22 -0.87,0.32 -0.74,0.2 -0.74,0.82zm0 -11.86c0,0.48 0.32,0.31 1.04,0.21l0 4.68c0,0.44 0.73,0.44 0.73,0l0 -5.31c0,-0.17 -0.06,-0.31 -0.21,-0.31 -0.05,0 -1.56,0.25 -1.56,0.73zm35.37 3.12c0,-0.32 -0.3,-0.42 -0.62,-0.42 -1.28,0 -2.03,-0.17 -2.6,0.21 0.04,0.32 0.04,0.24 0.1,0.52 0.59,0 1.18,-0 1.77,0 0.52,0 1.35,0.17 1.35,-0.31zm-0.94 11.86c0.3,-0.66 -0.29,-0.73 -0.94,-0.73 -0.86,0 -2.19,-0.19 -2.19,0.42 0,0.5 0.98,0.31 1.46,0.31 0.55,-0 1.11,0 1.66,0zm0.94 -24.45c0.52,-0.74 0.32,-0.57 0,-1.04l-0.63 0c-0.36,0.68 -0.22,1.04 0.63,1.04zm0 3.33c0.14,-0.21 0.19,-0.29 0.31,-0.52 -0.12,-0.23 -0.17,-0.31 -0.31,-0.52l-0.73 0.1c-0.09,0.39 -0.33,0.94 0.73,0.94zm-38.49 22.26c-0.45,0 -0.91,-0.48 -1.03,-0.85 -0.61,-1.87 2.38,-2.16 2.38,-0.61 0,0.74 -0.12,1.46 -1.35,1.46zm-31.52 -48.9c0,0.97 1.44,1.19 1.73,0.16l1.19 -9.74c0.41,0.11 0.34,0.2 0.72,1.05l2.92 5.92c0.54,0.93 0.66,2.18 1.67,2.18 0.96,0 1.61,-2.08 2.15,-3.16l1.49 -2.99c0.28,-0.54 1.17,-2.72 1.57,-3.01l1.07 8.29c0.09,0.7 0.05,2.58 1.44,2.02l0.31 -0.21c0.38,-0.42 0.07,-1.97 -0.06,-2.88l-0.98 -7.76c-0.08,-0.72 -0.1,-2.33 -0.5,-2.83 -0.42,-0.52 -1.44,-0.69 -1.94,0.52 -0.59,1.44 -1.98,3.97 -2.55,5.35 -0.13,0.32 -0.19,0.39 -0.31,0.63l-1.79 3.41 -4.47 -9.37c-0.77,-1.62 -2,-0.88 -2.16,0.03l-1.48 12.36zm59.3 -3.95c0,4.05 4.1,5.85 6.8,4.41 0.66,-0.35 0.81,-0.74 1.32,-1.08 0,2.27 1.87,1.52 1.87,0.42l0 -7.18c0,-1.79 -1.44,-1.57 -1.76,-0.82 -0.18,0.43 -0.02,0.38 -0.11,0.82 -1.09,-0.73 -0.95,-1.46 -3.64,-1.46 -2.54,0 -4.47,2.21 -4.47,4.89zm1.87 -0.31c0,-1.82 1.77,-3.06 3.28,-2.88 1.74,0.21 2.96,1.29 2.96,3.19 0,3.07 -3.47,3.96 -5.33,2.32 -0.87,-0.77 -0.91,-1.66 -0.91,-2.63zm23.2 0.21c0,4.2 4,5.91 6.71,4.53 0.7,-0.36 0.89,-0.75 1.4,-1.09 0,0.45 -0.05,0.69 0.14,1.01 0.54,0.88 1.63,0.3 1.63,-0.28l0 -8.01c0,-0.94 -0.79,-0.83 -1.15,-0.83 -0.57,0 -0.62,0.86 -0.62,1.35 -1.34,-0.9 -0.97,-1.46 -3.85,-1.46 -1.61,0 -3.32,1.39 -3.94,2.83 -0.19,0.44 -0.33,1.34 -0.33,1.96zm1.87 -0.42c0,-0.79 0.6,-1.69 1.1,-2.02 2.24,-1.5 5.14,-0.22 5.14,2.54 0,3.05 -3.6,3.93 -5.28,2.37 -1.01,-0.94 -0.96,-1.66 -0.96,-2.89zm21.33 -8.22c0,0.88 0.65,2.84 0.95,3.73 0.37,1.1 0.66,2.3 1.04,3.43l1.03 3.45c0.66,1.76 0.42,2.91 1.87,2.91 1.03,0 1.21,-1.55 1.6,-2.88l3.08 -10.44c0,-0.69 -1.32,-1.44 -1.83,-0.07l-2.51 8.72c-0.12,0.42 -0.26,1.12 -0.54,1.33l-2.07 -7.09c-0.16,-0.49 -0.26,-1.01 -0.42,-1.46 -0.31,-0.92 -0.33,-2.28 -1.47,-2.28 -0.3,0 -0.73,0.33 -0.73,0.62zm-59.51 8.53c0,4.66 4.81,6.57 8.18,3.91 1.5,-1.18 0.15,-2.41 -0.92,-1.34 -0.23,0.23 -0.43,0.39 -0.7,0.55 -1.91,1.09 -4.68,-0.22 -4.68,-1.98 0,-0.51 1.07,-0.31 1.56,-0.31l5.72 0c0.32,-0.48 0.31,-0.07 0.31,-1.04 0,-1.63 -0.76,-2.8 -1.79,-3.62 -0.96,-0.76 -1.95,-0.85 -3.2,-0.85 -2.53,0 -4.47,2.27 -4.47,4.68zm4.89 -3.12c1.52,0 2.78,1.11 2.81,2.6l-5.83 0c0,-1.61 1.38,-2.6 3.02,-2.6zm-34.02 3.02c0,5.76 5.97,6.25 8.31,3.84 0.93,-0.96 0.54,-1.55 -0.51,-1.55 -0.34,0 -2.11,2.52 -4.89,0.73 -0.48,-0.31 -1.61,-1.92 -0.84,-2.07l5.73 -0c1.22,0 1.66,0.15 1.66,-0.94 0,-1.51 -0.64,-2.72 -1.74,-3.67 -1.06,-0.91 -2.25,-0.91 -3.46,-0.91 -1.09,0 -2.47,0.73 -3.18,1.61 -0.63,0.79 -1.08,1.89 -1.08,2.97zm2.08 -0.42c-0.83,0 0.34,-1.65 0.56,-1.83 1.97,-1.65 5,-0.54 5.06,1.83l-5.62 0zm79.59 10.2c3.09,0 4.27,-2.2 4.27,-5.1l0 -12.48c0,-0.6 -0.38,-1.25 -0.94,-1.25 -1.09,0 -0.94,1.1 -0.94,2.19l-0.02 12.67c-0.47,3.23 -3.24,1.65 -3.87,2.59 -0.55,0.81 0.41,1.39 1.5,1.39zm-62.74 -9.57c0,1.02 0.24,1.67 0.61,2.41 2.06,4.1 7.71,2.36 7.71,1.13 0,-0.5 -0.2,-1.04 -0.83,-1.04 -0.9,0 -0.6,0.73 -2.7,0.73 -2.48,0 -4.16,-3.23 -2.06,-5.39 1.97,-2.02 3.96,-0.23 4.76,-0.23 0.88,0 0.83,-0.69 0.83,-1.04 0,-0.62 -2,-1.35 -2.81,-1.35 -1.93,0 -2.83,0.18 -4.14,1.48 -0.28,0.28 -0.3,0.27 -0.51,0.63 -0.5,0.83 -0.86,1.57 -0.86,2.67zm-5.2 -2.81c-0.6,-0.44 0.38,-1.87 -1.14,-1.87 -0.54,0 -0.83,0.43 -0.83,0.94l0 7.7c0,1.15 1.75,1.35 1.78,-0.1 0.03,-1.67 -0.18,-4.01 0.58,-5.56 1.27,-2.59 3.9,-0.51 3.76,-2.24 -0.1,-1.18 -3.52,-1.5 -4.13,1.13zm41.51 0c0,-1.23 0.15,-1.87 -1.14,-1.87 -0.25,0 -0.62,0.37 -0.62,0.62l0 8.12c0,0.49 0.42,0.83 0.83,0.83 1.75,0 0.42,-3.01 1.2,-5.77 1.13,-3.96 4,-0.99 4,-3.08 0,-1.08 -2.84,-1.4 -3.82,0.45 -0.19,0.35 -0.16,0.48 -0.45,0.69zm5.93 -0.73l0 7.28c0,1.47 1.87,1.73 1.87,-0.21l0 -6.66c0,-1.54 -0.44,-1.56 -1.15,-1.56 -0.44,0 -0.73,0.64 -0.73,1.15zm-0.31 -4.58c0,1.53 2.5,1.53 2.5,0 0,-1.56 -2.5,-1.61 -2.5,0zm57.22 -2.5c-3.71,-0.86 -8.24,0.02 -10.36,-8.16 -0.21,-0.81 0.31,-1.83 -0.78,-1.83l-134.63 0c-1.11,0 -0.64,9.25 -9.37,9.88 -0.48,0.03 -1.97,0.08 -1.97,0.73 0,26.57 -2,13.17 7.69,20.4 3.3,2.46 2.36,7.48 3.65,7.48l134.83 0c1.12,0 -0.4,-5.92 5.86,-9.02 6.67,-3.3 5.07,5.29 5.06,-19.49zm-152.83 3.85c0,-1.81 4.81,-0.34 8.67,-7.25 1.18,-2.11 0.51,-2.86 2.46,-2.84 38.39,0.33 77.92,0 116.42,0 19.71,0 6.64,-0.15 16.6,7.32 6.19,4.65 4.72,-2.72 4.72,13.17 0,2 -7.07,1.72 -9.52,9.21 -0.25,0.75 -0.33,1.3 -1.3,1.3l-127.34 0c-2,0 -0.89,-4.09 -5.59,-7 -7.07,-4.39 -5.13,-0.27 -5.13,-13.91zm60.17 -85.66c-2.66,-3.59 -2.54,-2.57 5.69,-2.57 0.51,0 3.1,4.91 3.46,5.72 0.4,1.11 -2.31,0.2 -3.81,0.59 -3.49,0.9 -3.25,-0.84 -5.34,-3.74zm-9.19 -2.05c1.95,-0.16 1.59,0.89 3.37,2.98 0.73,0.85 1.23,1.71 1.86,2.61 0.92,1.32 -0.47,0.99 -3.49,1.46 -3.64,0.57 -2.28,-0.47 -3.95,-2.34 -0.64,-0.71 -2.76,-3.07 -2.78,-4.08l4.99 -0.63zm-14.67 7.6c0,-1.22 0.91,-2.82 1.66,-3.65 0.82,-0.91 1.27,0.17 1.9,0.81 4.12,4.12 4.88,3.56 0.85,4.75 -3.23,0.96 -4.42,2.63 -4.42,-1.92zm30.07 6.03c-0.38,0 -0.43,-0.53 -0.56,-0.89 -0.9,-2.42 -1.52,-1.95 4.19,-2.77 1.9,-0.2 1.45,-0.3 2.25,1.74 1.17,3.01 0.14,1.71 -5.87,1.92zm-12.38 -0.31c0,-0.68 5.49,-1.44 5.65,-1.39 0.77,0.23 1.53,2.09 1.43,2.53 -3.31,0 -5.57,2.54 -6.43,0.09 -0.22,-0.63 -0.64,-0.63 -0.64,-1.23zm31 42.14c0,5.58 10.04,12.18 13.65,7.09 1.3,-1.79 1.34,-1.25 1.34,-3.76 0,-5.99 -8.74,-12.22 -13.07,-8.29 -1.81,1.65 -1.91,2.57 -1.91,4.96zm4.68 0.1c0,-2.59 4.83,-3.83 7.3,1.03 2.06,4.06 -4,6.94 -6.84,1.74 -0.47,-0.86 -0.46,-1.84 -0.46,-2.77zm-40.06 -6.14c-2.84,0 -6.2,3.63 -3.36,9.4 1.54,3.14 6.9,6.54 10.83,5.04 5.79,-2.21 2.82,-11.46 -3.3,-13.72 -1.58,-0.39 0.26,-0.72 -4.17,-0.72zm0.31 6.66c1.19,-5.16 6.12,-2.23 7.11,0.07 2.93,6.83 -7.11,6.47 -7.11,-0.07zm10.2 -1.25c0.98,1.86 1.63,3.27 1.77,5.31 0.12,1.66 -1.57,4.17 -2.88,4.93 -0.8,0.47 -1.52,0.6 -1.8,0.8 3.99,0 6.75,-3.61 5.22,-7.4 -0.41,-1.01 -1.39,-3.38 -2.31,-3.63zm-4.16 10.41c2.6,0 4.04,-1.68 5.01,-3.63 0.29,-0.69 0.14,-1.83 0.09,-2.41 -0.91,1.04 -0.45,5.72 -6.56,5.72 0.31,0.43 0.63,0.31 1.46,0.31zm39.74 0c3.2,0 5.2,-2.56 5.2,-5.51 -0.8,0.58 -0.71,5.2 -6.76,5.2 0.27,0.37 0.9,0.31 1.56,0.31zm-4.47 -7.91c0,1.54 1.17,3.15 1.08,2.07 -0.03,-0.43 -0.83,-2.39 0.56,-3.65 0.81,-0.74 1.06,-1.09 -0.45,-0.66 -0.88,0.25 -1.19,1.3 -1.19,2.24zm-39.74 0.1c0,1.11 0.25,1.66 1.04,2.19 -0.01,-0.59 -0.21,-0.34 -0.21,-1.98 0,-1.64 1.39,-2.35 1.56,-2.6 -1.34,-0.64 -2.39,1.03 -2.39,2.39zm-0.94 -1.35c0,0.69 -0.04,0.23 0.1,0.52 0.63,-0.46 0.54,-2.34 2.71,-2.39 -0.6,-0.83 -2.81,0.08 -2.81,1.87zm39.95 0.21c0.54,-1.03 1.21,-2.05 2.6,-2.08 -0.76,-1.04 -2.6,0.13 -2.6,2.08zm-51.19 -38.91c0,-0.37 8.28,-2.7 8.74,-2.7 0.59,0 0.92,0.8 1.22,1.17 1.56,1.92 1.12,1.72 -4.72,3.76 -0.91,0.32 -2.58,1.25 -3.37,1.31 -0.42,-0.4 -1.87,-3.22 -1.87,-3.54z"/>
 </g>
</svg>
