<?xml version="1.0" encoding="UTF-8"?>
<!DOCTYPE svg PUBLIC "-//W3C//DTD SVG 1.1//EN" "http://www.w3.org/Graphics/SVG/1.1/DTD/svg11.dtd">
<!-- Creator: CorelDRAW -->
<svg xmlns="http://www.w3.org/2000/svg" xml:space="preserve" width="33.8667mm" height="15.6329mm" version="1.1" style="shape-rendering:geometricPrecision; text-rendering:geometricPrecision; image-rendering:optimizeQuality; fill-rule:evenodd; clip-rule:evenodd"
viewBox="0 0 141.55 65.34"
 xmlns:xlink="http://www.w3.org/1999/xlink"
 xmlns:xodm="http://www.corel.com/coreldraw/odm/2003">
 <defs>
  <style type="text/css">
   <![CDATA[
    .fil0 {fill:#154A81}
    .fil1 {fill:#FE6600}
   ]]>
  </style>
 </defs>
 <g id="Camada_x0020_1">
  <metadata id="CorelCorpID_0Corel-Layer"/>
  <g id="_2583503790784">
   <path class="fil0" d="M129.27 16.82l0.04 1.17c-0.46,-0.09 -0.22,0.03 -0.51,-0.43 -1.56,-2.51 -3.57,-6.01 -5.08,-8.27 -0.43,-0.65 -5.18,-8.66 -5.49,-8.79 -0.68,-0.07 -4.66,-0.14 -5.13,0.06 -0.09,0.23 -0.09,0.14 -0.09,0.4l0 25.87c0,0.27 0,0.17 0.09,0.4 0.54,0.22 3.84,0.09 4.67,0.09 0.51,0 0.34,-0.95 0.34,-1.79 0,-2.69 -0.13,-14.66 0.06,-15.36 0.51,0.24 1.1,1.63 1.44,2.11l5.28 8.54c0.26,0.46 0.37,0.64 0.69,1.08l3.29 5.39c1.24,0.09 3.68,0.03 5.04,0.03 0.65,0 0.47,-0.65 0.46,-1.24 -0.01,-3.26 0.09,-24.57 -0.03,-25.47 -0.51,-0.3 -4.83,-0.22 -4.96,-0.03 -0.18,0.25 -0.1,15.19 -0.1,16.22zm-23.27 33.99c0.42,-0.05 0.42,-0.43 0.83,-0.74 0.44,-0.11 0.84,1.08 2.11,0.93 1.09,-0.13 1.15,-1.62 1.05,-1.87 -0.68,-0.02 -0.28,0.96 -1.27,0.62 -0.47,-0.16 -0.39,-0.65 -1.18,-0.86 -1.33,-0.35 -1.91,1.37 -1.53,1.93zm34.68 5.46c0.66,0 0.96,-0.22 0.62,-1.11 -1.15,-0.19 -4.07,-0.03 -5.44,-0.03 -2.41,0 -15.73,-0.12 -16.16,0.06 -0.11,0.29 -0.12,0.62 -0,1.02l20.99 0.06zm-139.45 -1.15c-0.38,-0 -1.56,-0.26 -1.05,1.06 0.64,0.25 15.78,0.09 17.83,0.09 1.39,0 16.83,0.11 17.77,-0.06 0.09,-0.35 0.11,-0.69 -0.03,-1.02 -0.76,-0.21 -30.54,-0.07 -34.52,-0.07zm47.78 -0.3c-0.03,-0.23 1.17,-4.1 1.47,-4.33l-0.14 4.61c-0.36,0.06 -0.97,-0.13 -1.33,-0.28zm3.63 2.16c-0.05,-0.57 -0.38,-0.52 -0.52,-0.94l0.12 -7.31c0.02,-0.66 0.03,-0.8 -0.34,-1.15 -1.57,-1.51 -1.09,0.33 -2.28,3.37 -1.79,4.57 -0.99,3.6 -3.32,3.6 -3.61,-0.01 -2.68,1.51 -1.85,1.81 0.53,-0.47 0.1,-0.62 1.2,-0.69 0.55,-0.04 1.29,-0.1 1.74,0.06 0.19,0.66 -1.88,3.24 -2.29,3.77 -1.4,1.79 -4.14,2.66 -4.14,1.61 0.05,-0.52 1.13,-0.97 1.33,-1.27 -0.38,-0.65 -1.41,-0.12 -1.77,0.17 -1.36,1.12 0.05,2.48 1.53,2.63 2.8,0.28 5.08,-3.59 6.14,-5.9 0.2,-0.44 0.22,-0.71 0.47,-0.83 0.44,-0.13 1.24,0.07 1.76,0.31 0.3,1.35 -0.16,5.37 0.4,6 0.29,0.32 0.88,0.67 1.46,0.62l-0.16 -5.56c0.26,-0.37 0.13,-0.05 0.54,-0.28zm28.54 -1.85c0,-1.13 0.27,-0.93 0.41,-0.99 0.04,0.56 0.15,1.98 -0.25,2.29 -0.19,-0.54 -0.15,-0.74 -0.15,-1.3zm33.47 0.28c0,-0.43 0.04,-1.11 0.34,-1.25 0.27,0.59 0.06,1.45 -0.03,2.24 -0.27,-0.24 -0.31,-0.35 -0.31,-0.99zm-49.02 1.05c0.08,-0.83 1.05,-3.53 2.44,-3.16 0.21,1.73 -1.91,3.2 -2.44,3.16zm38.51 3.03c0,-1.58 0.74,-4.82 1.9,-5.89 0.49,-0.46 1.56,-0.71 1.22,0.46 -0.41,1.39 -0.78,2.62 -1.29,3.92 -0.27,0.71 -1.83,4.28 -1.83,1.51zm9.21 -4.36c0,2.98 1.52,2.18 1.08,3.42 -0.33,0.94 -1.46,2.7 -2.41,1.59 -1.32,-1.52 0.57,-7.07 1.74,-6.75 0.02,0.28 -0.4,1.13 -0.4,1.73zm-19.87 -1.79c1.25,-0.45 0.81,0.6 0.6,1.27 -0.6,1.88 -1.11,4.01 -2.25,5.55 -1.33,1.8 -0.38,-3.05 -0.25,-3.5 0.32,-1.13 0.92,-2.96 1.91,-3.31zm-13.13 -0c-0.01,0.29 -0.5,0.74 -0.47,2.07 0.06,2.29 1.23,2.11 1.14,2.84 -0.07,0.58 -0.94,2.18 -1.73,2.23 -2.47,0.18 -0.7,-7.37 1.06,-7.14zm-19.8 -1.55c-0.03,-0.53 0.5,-1.41 -0.73,-1.45 -0.51,-0.02 -0.53,0.28 -0.62,0.71 -0.3,1.44 0.27,1.26 0.21,2.32 -0.06,1.02 -0.55,2.94 -0.13,3.31 0.32,-0.28 0.55,-1.63 0.68,-2.15 0.31,-1.2 -0.12,-1.57 1.39,-1.47 0.02,1.66 -1.16,4.62 -1.05,6.9 0.05,0.91 1.06,2.27 1.94,1.38 0.69,-0.69 0.97,-1.8 1.49,-2.41 0.37,0.51 0.38,2.22 2.43,2.66 2.17,0.46 2.33,-1.66 3.04,-1.92 0,0.68 -0.09,1.08 0.37,1.49 0.48,0.42 0.75,0.49 1.18,0.25 0.06,-1.5 0.64,-2.71 1.16,-3.84 0.37,-0.79 1.31,-2.68 1.83,-3.11 0.16,0.46 -1.07,4.64 -0.65,5.89 0.24,0.74 1.17,1.68 1.92,0.88 0.62,-0.66 0.78,-1.47 1.33,-2.09 0.44,0.66 0.28,1.36 0.98,1.97 0.52,0.45 1.27,0.82 2.21,0.54 1.52,-0.45 1.97,-2.05 2.5,-3.33 1.91,-0.56 1.23,-0.8 1.82,-0.93 0.17,0.52 0.18,2.14 0.34,2.88 0.15,0.69 0.86,1.61 1.76,1.35 0.89,-0.26 1.9,-3.13 2.19,-4.13 0.51,0.02 0.75,0.16 1.42,0.18 0.17,0.81 -0.35,3.32 1.47,3.92 1.47,0.49 1.89,-1.98 2.46,-2.74 0.11,0.71 -0.15,1.18 0.24,1.9 1.14,2.1 2.23,0.2 2.79,-1.07 0.32,-0.71 0.04,-0.55 0.55,-0.7 0.41,2.08 1.46,2.03 1.95,2.66 -0.17,0.39 -0.66,0.77 -0.2,1.25 0.48,0.51 0.88,-0.11 1.38,0.2 0.19,0.53 -0.05,0.99 -0.53,1.12 -0.61,0.16 -0.86,-0.2 -1.28,-0.41l-0.21 0.25c0.33,1.03 1.93,1.89 2.94,0.85 0.75,-0.77 0.34,-1.87 -0.42,-2.48 -0.21,-0.17 -0.52,-0.34 -0.6,-0.51 0.22,-0.36 0.39,-0.23 0.75,-0.45 0.88,-0.52 1.07,-1.57 1.65,-2.03 0.05,0.07 0.07,0.1 0.13,0.22 0.08,0.16 0.64,2.42 2.06,1.95 1.03,-0.33 1.28,-2.19 1.82,-2.64 0.07,0.8 -0.14,1.23 0.28,1.89 1.51,2.32 2.5,-1.06 3.03,-1.64 0.24,0.34 0.83,3.23 3.25,2.42 1.36,-0.46 1.98,-1.93 2.44,-3.31 0.79,-0.22 1.19,-0.26 1.66,-0.93 0.27,-0.38 0.77,-1.23 0.35,-1.76 -0.55,0.22 -0.36,1.68 -1.7,1.58 -0.24,-1.5 0.64,-3.5 -0.81,-4.38 -0.73,-0.45 -1.82,-1.88 -3.46,0.23 -0.99,1.28 -1.11,2.32 -1.57,3.8 -0.2,0.63 -1.39,3.13 -1.92,3.31 -0.36,-0.66 0.92,-5.65 1.11,-6.72 0.14,-0.78 -0.41,-1.34 -1.11,-1.44l-0.46 0.59c-0.5,-0.2 -0.76,-0.48 -1.29,-0.54 -1.61,-0.19 -2.24,1.26 -2.8,2.5 -1.01,2.24 -0.24,1.99 -2.15,4.81 -0.3,0.44 -1.35,1.67 -2.09,1.06 -1.28,-1.04 -0.54,-6.02 1.38,-7.07 0.44,-0.24 0.45,-0.17 0.72,-0.04 0.36,1.14 -0.42,1.39 -0.32,2.1 1.38,0.4 1.71,-2.03 0.59,-3.02 -1.88,-1.66 -3.55,1.25 -4.12,2.75 -0.24,0.63 -0.35,1.31 -0.59,1.91 -0.22,0.53 -1.4,3.07 -1.86,3.12 -0.26,-1.66 1.33,-6.5 1.1,-7.31 -0.16,-0.58 -1.21,-1.36 -1.38,-0.26 -0.87,-0.09 -1.61,-1 -2.64,-0.32 -2.3,1.52 -1.63,4.55 -2.98,4.46 -0.98,-0.07 -0.24,-1.84 -0.15,-3.47 0.04,-0.72 -0.06,-1.17 -0.87,-1.22 -0.53,0.31 -0.6,1.37 -0.66,2.03 -0.25,2.52 0.98,1.31 -0.93,5.31 -0.24,0.5 -0.18,0.63 -0.7,0.72 -0.11,-1.6 -0.33,-3.06 -0.26,-4.79 0.02,-0.57 0.2,-1.93 0.12,-2.41 -0.08,-0.48 -0.76,-0.97 -1.41,-0.87 -0.75,1.11 -0.02,3.31 -0.84,4.54 -0.27,0.4 -0.73,0.74 -1.14,0.5 -0.16,-0.88 0.28,-2.56 -0.21,-3.62 -0.2,-0.42 -0.26,-0.4 -0.63,-0.67 -0.86,-0.64 -1.92,-1.64 -3.38,0.18 -0.97,1.21 -1.07,2.22 -1.6,3.78 -0.15,0.45 -1.31,3.23 -1.93,3.32 -0.29,-2.53 1.75,-6.74 0.8,-7.67 -1.02,-1 -1.61,0.53 -2.24,1.53 -0.59,0.93 -1.07,2.02 -1.62,2.92 -0.32,-0.34 -0.17,-0.3 0.05,-1.51 0.14,-0.76 0.69,-2.22 0.25,-2.81 -0.23,-0.31 -0.59,-0.59 -1.04,-0.5 -0.4,0.27 -0.49,4.4 -2.53,7.2 -0.82,1.13 -2.35,2.31 -2.7,0.03 -0.09,-0.6 -0.15,-1.44 0.01,-1.98 1.82,-0.26 3.08,-1.15 3.48,-2.73 0.42,-1.65 -1.19,-3.35 -2.84,-2.29 -1.09,0.7 -1.89,2.43 -2.22,3.88 -0.17,0.76 -1.34,3.82 -2.13,3.98 0,-1.76 0.43,-3.38 0.76,-5.04 0.14,-0.67 0.58,-1.86 0.24,-2.4 -0.6,-0.93 -1.39,-0.5 -2.2,-0.67l-0.05 -0.25zm-47.23 -22.59c-0.2,0.52 6.67,9.07 6.61,9.61l-0.4 0.69c-1.62,2.06 -3.95,5.48 -5.56,7.7 -0.42,0.57 -0.76,0.75 -0.72,1.2 1.47,0.09 3.42,0.03 4.95,0.03 0.44,0 0.74,0.12 1.03,-0.15l4.75 -6.46 2.05 -2.95c0.12,-0.3 -2.55,-3.73 -3.03,-4.4l-3.15 -4.36c-0.46,-0.65 -0.47,-0.96 -1.56,-0.94 -0.95,0.02 -4.42,-0.14 -4.98,0.03zm17.68 12.26c0.03,-0.09 1.83,-2.19 1.84,-2.65 0.01,-0.43 -1.22,-1.96 -1.48,-2.21 -0.31,-0.32 -0.26,-0.12 -0.36,-0.46 -0.34,-0.16 -1.62,-2.04 -1.96,-2.51l-2.84 -3.93c-0.49,-0.74 -0.86,-0.53 -1.79,-0.53 -0.86,0 -3.87,-0.11 -4.48,0.06 -0.04,0.44 4.63,6.59 5.8,8.26 1.21,1.76 1.35,0.66 -0.8,3.69l-4.71 6.51c-0.14,0.2 -0.3,0.38 -0.32,0.64 0.6,0.24 3.51,0.09 4.42,0.09 0.91,0 1.33,0.19 1.79,-0.41l2.87 -3.99c0.29,-0.43 0.6,-0.75 0.96,-1.27 0.26,-0.38 0.59,-1.09 1.06,-1.3zm-17.99 -23.29c0,0.76 -0.25,0.33 -0.49,1.7 -0.09,0.52 -0.4,1.18 -0.56,1.67 -0.21,0.64 -0.03,0.87 -0.43,1.88l-0.49 1.74c-0.15,0.82 -0.12,0.4 -0.37,1.11 -0.34,0.99 -0.3,0.29 -0.07,1.1 0.82,0.01 4.53,0.08 4.94,-0.12 0.42,-0.32 4.61,-19.17 5.16,-19.84 0.25,0.4 0.12,4.44 0.12,4.88l0 12.52c0,3.12 -0.78,2.5 3.96,2.54 1.39,0.01 1.14,0.54 1.14,-2.91 0,-1.86 0.12,-23.13 -0.06,-23.89 -0.43,-0.12 -7.63,-0.13 -8.1,0l-2.32 8.78 -2.16 8.33c-0.12,0.44 -0.03,0.33 -0.28,0.51zm18.17 9.02c0.13,0.13 0.16,0.15 0.55,0.16 0.88,0.03 4.41,0.05 4.77,-0.1 0.21,-0.55 0.21,-26.13 0,-26.68 -0.35,-0.14 -4.4,-0.15 -4.96,-0.1 -0.47,0.05 -0.45,0.15 -0.45,0.58 -0.07,3.75 -0.04,25.9 0.09,26.13zm10.63 -25.93l0 25.59c0,0.34 -0.02,0.49 0.31,0.49l18.17 0c0.29,0 0.17,0.01 0.4,-0.09 0.05,-0.72 0.16,-4.05 -0.06,-4.45 -0.67,-0.19 -10.11,-0.05 -12.31,-0.04 -1.14,0 -0.98,0.36 -0.99,-1.75l0.01 -19.47c0,-0.5 0.05,-0.75 -0.4,-0.81l-4.55 -0.02c-0.46,0.01 -0.58,0.05 -0.58,0.55zm18.05 -0.28c0,4.86 -0.43,4.11 1.73,4.11l4.08 0c2.23,0 2.11,-0.36 2.1,1.36 -0.02,6.57 0.07,13.32 -0,19.84 -0.02,1.41 -0.43,1.05 5.04,1.05 0.27,0 0.17,-0 0.4,-0.09 0.17,-0.79 0.06,-17.89 0.06,-20.53 0,-2.2 -0.66,-1.64 4.08,-1.64 4.67,0 3.8,0.64 3.8,-2.53 0,-1.52 0.22,-2.07 -0.56,-2.07 -2.62,0 -19.52,-0.09 -20.65,0.05 -0.05,0.16 -0.09,0.24 -0.09,0.44zm34.99 3.8c3.49,-0.55 6.46,1.22 7.72,4.55 1.07,2.84 0.87,7.94 -0.65,10.45 -2.35,3.87 -7.72,4.52 -11.05,1.34 -3.03,-2.89 -3.02,-9.74 -1.1,-13.12 1.09,-1.92 2.89,-2.88 5.09,-3.23zm-1.11 -4.64c-2.32,0.41 -3.35,0.6 -5.08,1.66l-1.9 1.44 -1.56 1.87c-2.78,4.19 -3.27,11.46 -0.84,16.22 2.64,5.17 7.91,7.04 13.61,6.37 3.68,-0.43 6.42,-2.08 8.5,-4.93 3.22,-4.41 3.34,-13.57 -0.41,-18.23 -1.61,-1.99 -3.75,-3.37 -6.16,-4.03 -1.55,-0.42 -4.51,-0.66 -6.16,-0.37z"/>
   <path class="fil1" d="M30.99 36.12c0.1,0.34 0.05,0.14 0.36,0.46 0.26,0.26 1.49,1.79 1.48,2.21 -0.01,0.46 -1.81,2.56 -1.84,2.65 0.25,0.47 -0.09,5.67 0.19,6.72 0.48,0.1 3.06,0.13 3.38,-0.05 0.41,-0.74 -0.23,-11.49 0.19,-13.45 0.48,0.35 0.8,2.48 1.02,3.35l1.72 6.81c0.17,0.71 0.56,2.79 0.96,3.38 4.49,0 3.37,0.67 4.39,-3.29l2.5 -9.82c0.14,-0.36 0.14,-0.38 0.34,-0.52 0,3.04 0,6.09 0,9.13 0,5.28 -0.61,4.5 2.18,4.5 1.05,0 1.45,0.29 1.44,-0.78l-0 -15.96c0,-0.69 0.12,-1.63 -0.19,-2.09 -0.31,-0.07 -4.9,-0.09 -5.24,-0.03 -0.59,0.1 -0.63,0.88 -0.82,1.76l-2.59 10c-0.13,0.42 -0.01,0.34 -0.44,0.42l-2.39 -9.14c-0.14,-0.54 -0.58,-2.54 -0.85,-3.01l-5.56 -0.04c-0.43,1.13 0.12,6.23 -0.23,6.78zm-24.34 -6.92c-0.07,0.5 0.64,0.99 1.11,1.77 1.3,1.95 3.33,4.46 4.71,6.52 1.04,1.55 1.28,0.77 -0.91,3.86l-4.61 6.33c-0.18,0.18 -0.62,0.63 -0.06,0.72l5.56 -0 1.75 -2.36c0.73,-1.11 5.16,-6.78 5.16,-7.33l-6 -8.33c-1.2,-1.49 -0.09,-1.2 -4.34,-1.18l-2.36 0.01zm0 9.6c0,0.31 -3.55,5.06 -4.28,6.05l-1.75 2.43c-1.16,1.51 -1.31,1.12 5.05,1.12 0.3,0 0.99,-1.16 1.17,-1.37l5.09 -6.96c1.13,-1.55 1.14,-1.04 -0.48,-3.14 -1.36,-1.85 -3.15,-4.6 -4.59,-6.35 -0.23,-0.28 -0.39,-0.8 -0.97,-1.26 -0.33,-0.26 -1.58,-0.11 -2.07,-0.11 -4.69,0 -4.63,-0.8 -1.9,2.88l3.68 5.14c0.2,0.32 1.05,1.11 1.05,1.58zm3.94 -11.44c-0.23,-0.8 -0.28,-0.11 0.07,-1.1 0.25,-0.71 0.22,-0.29 0.37,-1.11l0.49 -1.74c0.4,-1.01 0.22,-1.25 0.43,-1.88 0.16,-0.48 0.47,-1.15 0.56,-1.67 0.24,-1.37 0.49,-0.94 0.49,-1.7 -0.29,-0.28 -0.74,-2.43 -0.88,-2.95l-3.41 -12.95c-0.36,-1.31 -0.2,-1.77 -1.09,-1.81 -1.74,-0.08 -4.75,0.01 -6.78,-0 -0.55,-0 -0.46,-0.03 -0.78,0.19l-0.05 25.73c-0.01,1.17 -0.26,0.98 2.13,0.97 0.5,-0 2.79,0.2 2.97,-0.22 0.11,-0.25 0.04,-18.27 0.04,-19.44l0.28 0 2.45 9.99c0.33,1.27 1.95,7.41 2.18,8.67 0.1,0.55 0.05,0.75 0.51,1.01zm87.71 20.81c0.41,0.1 2.75,0.05 3.34,0.05 0.77,0 0.42,-1.43 0.42,-2.09l0 -14.84c0,-0.46 0.06,-0.65 0.08,-0.95 0.04,-0.44 -0.16,-0.48 -0.04,-0.9 -0.46,-0.15 -2.68,-0.09 -3.47,-0.08 -0.52,0.01 -0.39,0.24 -0.38,0.91 0.03,2.29 -0.12,17.08 0.05,17.9zm-45.39 -18.45l0 18.08c0,0.26 0.16,0.42 0.42,0.42 3.97,0 3.47,0.35 3.46,-1.53l0.01 -16.78c0,-0.25 -0.09,-0.35 -0.19,-0.51l-3.01 -0.05c-0.42,0 -0.7,-0.06 -0.7,0.37zm6.77 8.07c0,3.16 0.18,5.56 2.39,8.14 2.74,3.2 8.88,3.47 11.55,0.83 1,-0.99 2.39,-2.86 2.43,-4.43 -1.01,-0.21 -2.63,-0.97 -3.66,-0.97 -0.19,0.43 -0.28,0.95 -0.51,1.44 -1.23,2.66 -4.16,2.98 -6.03,1.75 -1.39,-0.91 -2.18,-3.18 -2.18,-4.72 0,-2.44 -0.18,-4.97 2,-6.66 2.04,-1.57 5.4,-0.86 6.3,1.44l0.32 0.77c0.66,-0.01 1.96,-0.37 2.8,-0.55 0.26,-0.05 0.86,-0.12 0.86,-0.38 0,-1.56 -1.61,-3.57 -3.18,-4.44 -2.42,-1.33 -6.56,-1.39 -9.17,0.35 -0.75,0.5 -1.38,1.12 -1.95,1.84 -1.06,1.34 -1.97,3.96 -1.97,5.59zm19.66 -7.79c0,2.54 -0.16,11.33 0.27,13.52 0.35,1.73 0.83,2.69 2.25,3.76 2.06,1.55 6.07,1.61 8.25,0.95 1.49,-0.45 3.02,-1.58 3.61,-3.04 0.93,-2.28 0.64,-6.42 0.64,-9.15 0,-2.19 -0.01,-4.55 -0,-6.63l-3.8 -0.03c-0.03,2.48 0.16,11.75 -0.21,13.57 -0.66,3.21 -5.54,2.86 -6.64,0.66 -0.61,-1.21 -0.47,-2.76 -0.47,-4.41 0,-3.1 0.17,-6.75 -0.05,-9.78 -0.44,-0.09 -1.65,-0.03 -2.21,-0.03 -1.52,-0.01 -1.64,-0.17 -1.64,0.64zm50.89 8.93l1.77 -4.8c0.33,0.16 0.31,0.34 0.45,0.75l1.65 4.36c0.25,0.73 0.74,1.47 0.17,1.47l-4.27 0c-0.15,0 -0.18,-0.09 -0.32,-0.19l0.54 -1.6zm-7.31 9.2c0.54,0.2 2.84,0.09 3.57,0.09 0.43,0 0.54,-0.49 0.66,-0.86l0.86 -2.38c0.15,-0.38 0.26,-1.03 0.71,-1.03l6.93 0c0.37,0 0.47,0.37 0.69,0.98l1.1 2.97c0.12,0.18 0.21,0.31 0.46,0.31 0.74,0 3.12,0.11 3.66,-0.09 0,-0.61 -2.86,-7.25 -3.23,-8.27l-3.71 -9.35c-0.55,-1.38 -0.06,-1.12 -2.46,-1.14 -1.67,-0.01 -2,-0.19 -2.29,0.57l-4.03 10.35c-0.47,1.19 -2.92,7.32 -2.92,7.85zm-13.35 -8.07c0.22,-0.16 5.5,-0.21 6.45,0.24 1.81,0.87 1.97,2.74 0.81,3.96 -0.41,0.43 -0.8,0.56 -1.53,0.68 -0.2,0.03 -5.34,0.24 -5.64,-0.05 -0.23,-0.42 -0.09,-3.99 -0.09,-4.82zm0 -7.19c0,-0.27 0.05,-0.32 0.33,-0.32l4.73 0c2.68,0 2.76,3.21 1.11,3.94 -1.12,0.49 -4.43,0.33 -5.83,0.33 -0.27,0 -0.32,-0.06 -0.32,-0.32l0 -3.62zm-3.89 -3.06l0 17.9c0,0.24 0.08,0.51 0.32,0.51 1.85,0 9.24,0.09 10.8,-0.12 5.02,-0.68 6.53,-7.18 2.2,-9.49 -0.49,-0.26 -1,-0.38 -0.27,-0.9 3.11,-2.2 2.26,-7.13 -1.9,-8.14 -1.27,-0.31 -7.6,-0.22 -9.44,-0.22 -1.01,-0 -1.71,-0.15 -1.71,0.46z"/>
  </g>
 </g>
</svg>
