<?xml version="1.0" encoding="UTF-8"?>
<!DOCTYPE svg PUBLIC "-//W3C//DTD SVG 1.1//EN" "http://www.w3.org/Graphics/SVG/1.1/DTD/svg11.dtd">
<!-- Creator: CorelDRAW -->
<svg xmlns="http://www.w3.org/2000/svg" xml:space="preserve" width="25.2576mm" height="33.8668mm" version="1.1" style="shape-rendering:geometricPrecision; text-rendering:geometricPrecision; image-rendering:optimizeQuality; fill-rule:evenodd; clip-rule:evenodd"
viewBox="0 0 58.74 78.76"
 xmlns:xlink="http://www.w3.org/1999/xlink"
 xmlns:xodm="http://www.corel.com/coreldraw/odm/2003">
 <defs>
  <style type="text/css">
   <![CDATA[
    .fil0 {fill:#006339}
    .fil1 {fill:#212B73}
    .fil2 {fill:#F8CF00}
   ]]>
  </style>
 </defs>
 <g id="Camada_x0020_1">
  <metadata id="CorelCorpID_0Corel-Layer"/>
  <g id="_2030371131648">
   <path class="fil0" d="M20.26 15.97c3.95,0.86 8.46,-6.02 8.62,-6.48l9.84 14.96 0.02 -24.45 -20.46 0c0,2.18 -0.18,11.5 0.12,13.34 0.17,1.01 0.86,2.64 1.86,2.64z"/>
   <path class="fil0" d="M16.09 36.25c0.23,-3.48 -7.54,-6.87 -10.6,-8.3l19.13 -9.77 -24.62 0 0 20.29 13.06 -0.07c1.23,-0.18 3.14,-0.89 3.03,-2.15zm15.02 7.08l-3 3.82 -9.83 -14.94 0 24.44 20.46 0c-0.01,-2.37 0.14,-11.98 -0.18,-13.58 -1.15,-5.81 -7.45,0.26 -7.45,0.26zm19.63 -14.98l0.85 0.36 -19.21 9.75 24.62 0 -0.07 -20.29 -13.27 0.12c-3.97,0.67 -3.22,3.27 -0.68,5.58 1.89,1.72 5.39,3.39 7.75,4.48z"/>
   <path class="fil1" d="M21.06 28.03c0,0.85 0.01,1.25 0.22,2.09 0.06,0.23 0.13,0.46 0.21,0.68 0.22,0.63 0.54,1.2 0.92,1.75 0.06,0.09 0.12,0.16 0.19,0.25 0.16,0.21 0.28,0.33 0.41,0.49 0.21,0.26 0.88,0.83 1.19,1.04l0.54 0.35c0.1,0.06 0.19,0.1 0.29,0.16 0.1,0.06 0.19,0.09 0.31,0.15 0.83,0.39 1.91,0.68 2.89,0.68 0.6,0 0.69,0 1.31,-0.07 1.2,-0.14 2.56,-0.75 3.52,-1.52 0.36,-0.29 0.4,-0.34 0.73,-0.66 0.15,-0.16 0.29,-0.31 0.43,-0.48 0.71,-0.87 1.26,-1.99 1.49,-3.11 0.06,-0.27 0.15,-0.91 0.15,-1.22 -0,-0.16 0.03,-0.29 0.01,-0.45 -0.02,-0.13 -0.01,-0.31 -0.02,-0.43l-0.04 -0.41c-0.11,-0.93 -0.46,-1.93 -0.92,-2.74 -0.18,-0.31 -0.43,-0.68 -0.66,-0.95 -0.04,-0.05 -0.07,-0.08 -0.11,-0.13l-0.32 -0.37c-0.11,-0.12 -0.34,-0.32 -0.47,-0.44 -0.39,-0.36 -1.17,-0.89 -1.67,-1.1 -0.06,-0.03 -0.1,-0.05 -0.16,-0.08 -0.55,-0.23 -0.81,-0.32 -1.37,-0.46 -1.26,-0.32 -2.75,-0.23 -3.99,0.19 -0.74,0.25 -1.46,0.62 -2.09,1.09 -0.09,0.07 -0.17,0.13 -0.25,0.2 -0.2,0.16 -0.3,0.27 -0.48,0.44l-0.23 0.23c-0.63,0.63 -1.29,1.72 -1.57,2.53 -0.04,0.12 -0.08,0.21 -0.12,0.34 -0.17,0.6 -0.33,1.27 -0.33,1.96zm-20.81 40.21l1.85 0 0.03 -5.35 1.48 4.67c0.04,0.12 0.07,0.21 0.11,0.34 0.03,0.12 0.08,0.23 0.11,0.34l1.75 0 1.81 -5.42 0.01 5.12c0,0.16 -0.03,0.3 0.05,0.3l1.8 0 0 -7.15 -2.89 0 -0.38 1.19c-0.13,0.4 -0.26,0.79 -0.39,1.2l-0.78 2.39 -0.08 0 -0.27 -0.89c-0.03,-0.1 -0.06,-0.21 -0.1,-0.31 -0.07,-0.2 -0.12,-0.41 -0.18,-0.6l-0.37 -1.2c-0.03,-0.09 -0.06,-0.19 -0.09,-0.29l-0.42 -1.36c-0.02,-0.06 -0.01,-0.13 -0.07,-0.13l-2.94 0 0 7.15zm37.53 -7.84l2.25 0 0 -0.7 -0.56 0.18c-0.19,0.05 -0.38,0.12 -0.56,0.18l-0.85 0.26c-0.08,0.03 -0.21,0.05 -0.28,0.09zm0 9.75l2.25 0 0 -0.7c-0.08,0.02 -0.2,0.06 -0.28,0.09 -0.09,0.03 -0.19,0.06 -0.28,0.09 -0.2,0.06 -0.37,0.11 -0.57,0.17l-0.99 0.31c-0.03,0.01 -0.04,0.01 -0.07,0.02 -0.04,0.02 -0.04,0.01 -0.06,0.04zm11.13 -1.91l1.91 0 0 -7.15 -1.91 0 0 7.15zm-26.99 -0.05c0,0.04 0.01,0.05 0.05,0.05l1.88 0 0 -7.15 -1.93 0 0 7.1zm-11.31 0.05l1.93 0 0 -7.15 -1.93 0 0 7.15zm19.75 -5.71c0,0.04 0.01,0.05 0.05,0.05l1.69 0 0 5.66 1.93 0 0 -5.66 1.73 0 0 -1.49 -5.4 0 0 1.44zm-5.3 0.54c0,0.29 0.03,0.52 0.11,0.76 0.28,0.85 1.07,1.15 1.82,1.4 0.51,0.17 1.46,0.37 1.46,0.96l0 0.08c0,0.7 -0.85,0.64 -1.34,0.64 -0.58,0 -1.21,-0.17 -1.72,-0.4 -0.11,-0.05 -0.07,0.02 -0.09,0.33 -0.01,0.08 0,0.15 -0.01,0.23l-0.04 0.66c-0,0.11 0,0.14 -0.02,0.24 0.23,0.11 0.66,0.22 0.93,0.26 1.23,0.21 2.87,0.13 3.75,-0.74 0.67,-0.66 0.77,-2.04 0.16,-2.79 -0.51,-0.63 -1.36,-0.8 -2.11,-1.01 -0.39,-0.11 -0.88,-0.26 -0.88,-0.71 0,-0.59 0.64,-0.67 1.24,-0.67 0.54,0 1.16,0.11 1.63,0.35 0,-0.12 0.01,-0.24 0.02,-0.37 0,-0.08 0.02,-0.09 0.02,-0.18 -0,-0.09 0,-0.13 0.01,-0.19l0.04 -0.75c-0.27,-0.06 -0.33,-0.12 -0.73,-0.18 -1.08,-0.16 -2.67,-0.12 -3.53,0.56 -0.46,0.36 -0.71,0.88 -0.71,1.52zm11.31 5.17l5.1 0c0.04,0 0.05,-0.01 0.05,-0.05l0 -1.23c0,-0.04 -0.01,-0.05 -0.05,-0.05l-3.26 0 0 -1.63 2.9 0c0.04,0 0.05,-0.01 0.05,-0.05l0 -1.28 -2.95 0 0 -1.46 3.12 0 0 -1.41 -4.97 0 0 7.15zm8.69 -4.11l-0.76 0 0 -1.63c0.55,0 1.49,-0.09 1.79,0.38 0.15,0.23 0.14,0.59 0.01,0.82 -0.06,0.1 -0.14,0.17 -0.24,0.24 -0.17,0.11 -0.52,0.19 -0.8,0.19zm-2.6 4.11l1.8 0c0.04,0 0.05,-0.01 0.05,-0.05l0 -2.74c0.76,0 1.09,-0.05 1.44,0.74 0.14,0.3 0.19,0.54 0.29,0.85 0.05,0.15 0.1,0.29 0.14,0.43 0.05,0.15 0.09,0.28 0.14,0.43 0.04,0.13 0.09,0.32 0.14,0.43l2 0c-0.01,-0.06 -0.13,-0.39 -0.16,-0.47l-0.89 -2.37c-0.1,-0.21 -0.23,-0.42 -0.43,-0.54 -0.11,-0.06 -0.12,-0.05 -0.2,-0.09 -0.03,-0.02 -0.01,-0 -0.03,-0.02 0.25,-0.01 0.63,-0.22 0.82,-0.37 0.63,-0.53 0.79,-1.85 0.14,-2.58 -0.41,-0.47 -1.13,-0.7 -1.88,-0.7l-3.37 0 0 7.07zm11.06 -3.59c0,-0.32 0.04,-0.62 0.1,-0.88 0.14,-0.63 0.49,-1.15 1.12,-1.31 1.23,-0.31 1.96,0.67 2.06,1.75l0.03 0.47c-0,0.1 -0.02,0.12 -0.02,0.22 -0,0.21 -0.04,0.47 -0.08,0.66 -0.07,0.28 -0.14,0.48 -0.28,0.7 -0.03,0.05 -0.06,0.09 -0.1,0.14 -0.26,0.32 -0.54,0.47 -0.96,0.52 -0.08,0.01 -0.16,-0 -0.24,0.01 -0.28,0.04 -0.61,-0.07 -0.79,-0.16 -0.64,-0.34 -0.84,-1.33 -0.84,-2.11zm5.22 -0.27l0 0.51c-0.02,0.52 -0.12,1.03 -0.28,1.45 -0.08,0.22 -0.18,0.4 -0.29,0.58 -0.13,0.2 -0.23,0.32 -0.39,0.48 -0.31,0.31 -0.64,0.53 -1.07,0.68 -1.2,0.43 -3.05,0.35 -4.03,-0.57 -0.04,-0.04 -0.07,-0.05 -0.11,-0.09l-0.2 -0.23c-0.22,-0.28 -0.34,-0.47 -0.48,-0.83 -0.27,-0.66 -0.28,-1.2 -0.28,-1.92 0,-0.5 0.13,-1.09 0.28,-1.45 0.24,-0.61 0.6,-1.07 1.14,-1.42 0.97,-0.63 2.66,-0.71 3.73,-0.28 0.55,0.22 0.89,0.48 1.25,0.91 0.07,0.08 0.12,0.16 0.18,0.26 0.09,0.14 0.23,0.41 0.28,0.58 0.03,0.1 0.07,0.21 0.11,0.33 0.09,0.31 0.14,0.67 0.16,1.03zm-38.47 8.21c0,1.57 0.81,2.09 2.24,2.51l0.53 0.16c0.41,0.14 1.14,0.35 1.14,0.92 0,0.35 -0.13,0.56 -0.46,0.69 -0.63,0.26 -1.57,0.15 -2.2,0.01 -0.35,-0.08 -0.47,-0.14 -0.76,-0.26 -0.05,-0.02 -0.07,-0.02 -0.12,-0.05 -0.05,-0.03 -0.06,-0.05 -0.12,-0.06 0,0.1 -0.01,0.15 -0.03,0.24l-0.23 1.69 0.48 0.14c0.44,0.11 0.97,0.18 1.5,0.2l0.71 0c0.46,-0.02 0.9,-0.07 1.29,-0.16 0.47,-0.11 0.82,-0.26 1.17,-0.51 0.12,-0.08 0.12,-0.1 0.2,-0.16 0.08,-0.06 0.21,-0.21 0.26,-0.29 0.59,-0.8 0.67,-2.23 -0.01,-3.04 -1.02,-1.21 -3.44,-0.92 -3.44,-1.93 0,-0.61 0.8,-0.77 1.29,-0.77 0.63,0 1.05,0.01 1.64,0.2l0.37 0.13 0.13 -1.29c0.01,-0.16 0.03,-0.29 0.03,-0.45 -0.24,-0.13 -0.61,-0.23 -0.94,-0.27 -0.34,-0.05 -0.75,-0.08 -1.14,-0.08l-0.7 0.04c-0.75,0.08 -1.37,0.24 -1.98,0.66 -0.15,0.1 -0.12,0.1 -0.21,0.18 -0.43,0.36 -0.68,0.97 -0.68,1.58zm31.67 5.92l5.92 0 0 -1.58 -3.74 0 0 -1.81 3.36 0c0.04,0 0.05,-0.01 0.05,-0.05l0 -1.53 -3.36 0c-0.04,0 -0.05,-0.01 -0.05,-0.05l0 -1.64c0,-0.04 0.01,-0.05 0.05,-0.05l3.52 0 0 -1.56 -5.76 0 0 8.27zm-38.03 -10.27l1.71 0c0.08,0 0.05,-0.17 0.05,-0.25l0 -4.58 0.04 0.06c0.02,0.03 0.02,0.05 0.04,0.08 0.03,0.06 0.05,0.09 0.08,0.15l0.62 1.21c0.26,0.53 0.59,1.12 0.86,1.64l0.16 0.31c0.03,0.05 0.06,0.09 0.08,0.15 0.05,0.11 0.6,1.15 0.62,1.23l2.37 0 0 -7.15 -1.75 0 0 4.85c-0.02,-0.02 0,0.01 -0.02,-0.03l-0.06 -0.11c-0.03,-0.06 -0.05,-0.1 -0.08,-0.16l-2.21 -4.42c-0.02,-0.04 -0.05,-0.13 -0.1,-0.13l-2.42 0 0 7.15zm21.41 2.03l0 5.2c0,0.64 0.19,1.44 0.55,1.93l0.18 0.24c0.06,0.07 0.14,0.14 0.21,0.21 0.57,0.57 1.69,0.83 2.5,0.83 0.67,0 1.15,-0.05 1.72,-0.25 0.39,-0.14 0.83,-0.39 1.09,-0.66 0.33,-0.33 0.52,-0.63 0.68,-1.06 0.16,-0.43 0.22,-0.94 0.22,-1.52l0 -4.92c0,-0.04 -0.01,-0.05 -0.05,-0.05l-2.1 0c-0.08,0 -0.05,0.3 -0.05,0.45l0 4.62c0,0.14 -0.03,0.33 -0.05,0.46 -0.12,0.72 -0.47,1.27 -1.35,1.27 -0.34,0 -0.59,-0.09 -0.79,-0.24 -0.21,-0.15 -0.32,-0.35 -0.42,-0.6 -0.2,-0.49 -0.17,-1.21 -0.17,-1.9l0 -3.84c0,-0.08 0.03,-0.22 -0.05,-0.22l-2.08 0c-0.04,0 -0.05,0.01 -0.05,0.05zm-23.31 1.73l1.02 3.19 -2.06 0c0.02,-0.07 0.04,-0.12 0.06,-0.19 0.05,-0.19 0.14,-0.4 0.2,-0.61 0.03,-0.12 0.09,-0.27 0.13,-0.39l0.66 -1.99zm-4.36 6.51l2.27 0c0.06,-0.13 0.44,-1.27 0.53,-1.51 0.02,-0.06 0.06,-0.17 0.07,-0.23l3.05 0c0.06,0.27 0.56,1.54 0.6,1.75l2.43 0c-0,-0.07 -0.15,-0.42 -0.18,-0.52 -0.06,-0.18 -0.13,-0.34 -0.2,-0.52l-0.39 -1.03c-0.12,-0.34 -0.26,-0.69 -0.39,-1.04l-0.4 -1.05c-0.25,-0.69 -0.54,-1.4 -0.79,-2.08l-0.69 -1.81c-0.02,-0.06 -0.06,-0.23 -0.13,-0.23l-2.62 0c-0.06,0 -0.08,0.12 -0.12,0.23l-3.05 8.06zm22.98 -6.51l0.02 0.03c0.01,0.02 0.01,0.04 0.02,0.05l0.49 1.51c0.09,0.26 0.17,0.53 0.26,0.8 0.05,0.14 0.08,0.26 0.13,0.39l0.13 0.4 -2.06 0c0.01,-0.08 0.2,-0.67 0.25,-0.8l0.65 -1.99c0.04,-0.12 0.1,-0.28 0.13,-0.41zm-4.35 6.51l2.27 0 0.6 -1.75 3.14 0 0.53 1.52c0.03,0.07 0.05,0.16 0.08,0.22l2.43 0c-0.01,-0.07 -0.06,-0.2 -0.09,-0.26l-0.88 -2.33c-0.07,-0.18 -0.13,-0.34 -0.2,-0.52l-1.87 -4.94c-0.02,-0.06 -0.07,-0.24 -0.13,-0.24l-2.62 0c-0.06,0 -0.08,0.12 -0.12,0.23l-0.91 2.34c-0.07,0.17 -0.14,0.35 -0.2,0.52l-0.4 1.04c-0.41,1.02 -0.8,2.1 -1.21,3.12 -0.04,0.09 -0.06,0.16 -0.1,0.25l-0.2 0.52c-0.03,0.06 -0.09,0.21 -0.1,0.27zm-23.11 -1.58l-0.82 0 0 -5.03c0.89,0 1.69,-0.09 2.44,0.41 0.18,0.12 0.34,0.27 0.47,0.44 0.35,0.47 0.48,1.07 0.48,1.67 0,1.64 -0.94,2.52 -2.57,2.52zm-3 -6.66l0 8.24 2.89 0c1.49,0 2.7,-0.27 3.55,-0.91 0.21,-0.16 0.4,-0.33 0.57,-0.54 0.13,-0.17 0.23,-0.3 0.34,-0.5 0.43,-0.79 0.49,-1.48 0.49,-2.44 0,-0.85 -0.29,-2.02 -0.88,-2.61 -0.1,-0.1 -0.19,-0.21 -0.3,-0.29 -0.05,-0.04 -0.1,-0.08 -0.16,-0.13 -1.08,-0.82 -2.73,-0.86 -4.12,-0.86l-2.33 0c-0.04,0 -0.05,0.01 -0.05,0.05zm46.4 6.66l-0.79 0 0 -5.03c0.48,0 1.11,-0.03 1.55,0.06 0.95,0.19 1.57,0.81 1.76,1.76 0.15,0.74 0.05,1.65 -0.36,2.28 -0.09,0.14 -0.18,0.22 -0.29,0.33 -0.45,0.46 -1.2,0.61 -1.88,0.61zm-2.99 -6.66l0 8.19c0,0.04 0.01,0.05 0.05,0.05l2.84 0c0.93,0 1.71,-0.09 2.49,-0.36 1.7,-0.58 2.47,-1.97 2.47,-3.84 0,-0.9 -0.17,-1.86 -0.7,-2.58 -0.18,-0.25 -0.36,-0.42 -0.59,-0.61 -0.06,-0.05 -0.11,-0.08 -0.18,-0.13 -1.02,-0.68 -2.34,-0.78 -4.02,-0.78l-2.32 0c-0.04,0 -0.05,0.01 -0.05,0.05z"/>
   <path class="fil2" d="M20.26 15.97l18.46 8.48 -9.84 -14.96c-0.4,1.19 -5.04,7.26 -8.62,6.48zm7.37 31.41c1.77,-2.6 5.51,-7.07 8.8,-6.75l-18.14 -8.41 9.35 15.17zm4.77 -8.91l19.21 -9.75c-3.17,-1.32 -11.18,-4.8 -10.63,-8.62l-8.57 18.38zm-16.3 -2.22l8.41 -17.99 -19.01 9.69c2.13,1 10.85,4.66 10.6,8.3z"/>
  </g>
 </g>
</svg>
