<?xml version="1.0" encoding="UTF-8"?>
<!DOCTYPE svg PUBLIC "-//W3C//DTD SVG 1.1//EN" "http://www.w3.org/Graphics/SVG/1.1/DTD/svg11.dtd">
<!-- Creator: CorelDRAW -->
<svg xmlns="http://www.w3.org/2000/svg" xml:space="preserve" width="35.7555mm" height="27.0523mm" version="1.1" style="shape-rendering:geometricPrecision; text-rendering:geometricPrecision; image-rendering:optimizeQuality; fill-rule:evenodd; clip-rule:evenodd"
viewBox="0 0 192.43 145.59"
 xmlns:xlink="http://www.w3.org/1999/xlink"
 xmlns:xodm="http://www.corel.com/coreldraw/odm/2003">
 <defs>
  <style type="text/css">
   <![CDATA[
    .fil0 {fill:#3F1C18}
    .fil6 {fill:#411C17}
    .fil7 {fill:#5A7B19}
    .fil5 {fill:#5E8919}
    .fil1 {fill:#75DB1B}
    .fil8 {fill:#A1420B}
    .fil4 {fill:#FD6500}
    .fil2 {fill:#FF6600}
    .fil3 {fill:white}
   ]]>
  </style>
 </defs>
 <g id="Camada_x0020_1">
  <metadata id="CorelCorpID_0Corel-Layer"/>
  <g id="_2027697678640">
   <path class="fil0" d="M57.09 92.03c0.65,0 6.22,-0.04 6.49,0.04 0.33,0.17 0.71,1.03 -0.6,1.03l-6.49 0c-0.65,-0.12 -0.44,-1.16 -0.44,-1.74l0 -6.53c0,-0.58 -0.05,-1.65 0.76,-1.28 0.49,0.21 0.27,1.36 0.27,1.94l0 6.53zm-1.75 -2.56c-0.55,3.84 -5.62,5.37 -8.13,2.19 -1.42,-1.78 -1.09,-3.35 -1.09,-5.82 0,-0.37 -0.05,-1.36 0,-1.69 0.11,-0.54 0.93,-0.54 1.04,-0.08 0.33,0.91 -0.33,4.87 0.49,6.32 0.38,0.7 0.93,1.32 1.8,1.65 2.07,0.83 3.93,-0.37 4.58,-1.78 0.71,-1.53 0,-5.91 0.49,-6.4 0.33,-0.33 0.87,-0.12 0.87,0.5 0.05,0.95 0.05,4.5 -0.05,5.12zm9.87 -0.17c-0.22,1.61 0.38,3.72 -0.55,3.8 -0.76,0.04 -0.55,-0.99 -0.55,-1.57 0,-2.02 -0.22,-4.21 0.65,-5.7 1.75,-3.01 6.27,-3.01 8.02,0.17 0.82,1.45 0.6,3.72 0.6,5.74 0,0.83 0.16,1.45 -0.82,1.32 -0.22,-0.33 -0.27,-0.25 -0.27,-0.74 0,-0.79 0.05,-2.44 0,-3.02l-7.09 0zm53.24 -5.74c0.71,-0.29 3,0.04 3.71,0.33 0.87,0.41 1.64,1.2 2.13,1.94 0.82,1.36 0.87,3.39 0,4.87 -0.82,1.32 -2.02,2.31 -3.82,2.4 -2.73,0.08 -2.35,0 -2.35,-1.74l0 -6.11c0,-0.99 -0.16,-1.45 0.33,-1.69zm30.82 5.58c-0.33,2.02 -2.02,3.8 -4.2,3.92 -2.95,0.21 -2.51,-0.08 -2.51,-1.53l0 -6.19c0,-0.54 -0.16,-1.53 0.22,-1.73 0.65,-0.33 3.05,-0.04 3.71,0.25 1.64,0.7 3.27,2.73 2.78,5.29zm-52.97 -5.58c0.71,-0.29 3,0.04 3.65,0.33 3.27,1.49 3.6,5.86 1.26,7.97 -0.65,0.58 -1.64,1.16 -2.89,1.24 -2.73,0.08 -2.4,0 -2.4,-1.74l0 -6.11c0,-1.03 -0.16,-1.45 0.38,-1.69zm16.64 5.45c-0.11,0.7 -0.33,1.28 -0.65,1.82 -0.93,1.53 -2.73,2.77 -4.85,2.48 -2.35,-0.29 -4.69,-2.68 -4.31,-5.49 0.33,-2.35 2.73,-4.67 5.56,-4.25 2.29,0.29 4.64,2.73 4.26,5.45zm-76.53 -4.13c-0.11,2.02 0,4.5 0,6.57 0,0.45 0.16,1.28 -0.16,1.53 -0.49,0.37 -0.87,0 -0.87,-0.54l0 -6.61c0,-1.2 -0.38,-2.31 1.2,-1.98 1.25,0.25 2.29,1.03 3,1.9 0.33,0.33 0.44,0.58 0.71,0.91 0.22,-0.17 0.65,-1.36 2.24,-2.23 0.49,-0.25 1.04,-0.5 1.64,-0.62 1.04,-0.17 1.09,0.21 1.09,1.12l0 6.73c0,0.87 0.16,1.53 -0.82,1.4 -0.27,-0.37 -0.27,-0.25 -0.27,-0.83l0 -7.35c-1.15,0.04 -2.07,0.99 -2.56,1.61 -1.2,1.61 -0.38,2.81 -1.31,2.77 -0.65,-0.04 -0.49,-0.91 -0.65,-1.49 -0.33,-1.28 -1.75,-2.81 -3.22,-2.89zm100.43 -0.21c-0.49,0.08 -0.93,0.21 -1.31,0.41 -1.09,0.62 -1.86,1.73 -1.86,3.22 -0.05,1.12 0,2.23 0,3.35 0,0.54 0.11,1.24 -0.33,1.4 -0.71,0.29 -0.76,-0.45 -0.76,-0.99 0.05,-1.94 -0.27,-4.71 0.65,-6.19 2.13,-3.35 6.93,-2.89 8.35,0.66 0.38,0.95 0.27,1.9 0.27,3.01 0,0.54 0.11,3.06 -0.05,3.35 -0.27,0.37 -0.93,0.29 -0.98,-0.37 -0.11,-1.32 0.16,-3.92 -0.11,-5.04 -0.33,-1.61 -1.85,-3.02 -3.87,-2.81zm-10.15 3.18c0.71,0.08 3.44,0.04 4.47,0.04 0.55,0 0.98,-0.04 0.98,0.5 0.11,0.78 -1.15,0.58 -2.35,0.58 -1.04,0 -2.07,0 -3.11,0 0.22,1.45 1.31,2.52 2.45,2.97 0.93,0.37 1.58,0.04 2.4,0.21 0.38,0.08 0.6,0.45 0.38,0.83 -0.22,0.33 -0.93,0.25 -1.42,0.25 -4.47,0 -6.6,-5.25 -3.49,-8.22 1.25,-1.16 2.4,-1.36 4.25,-1.36 0.44,0 0.76,0.08 0.71,0.58 -0.05,0.95 -1.47,0.08 -3.05,0.78 -1.04,0.45 -2.02,1.49 -2.24,2.85zm24.33 0.04l4.47 0c0.55,0 1.04,-0.04 1.04,0.54 0,0.54 -0.44,0.54 -0.93,0.54 -1.31,0 -3.49,-0.04 -4.58,0 0.16,1.32 1.25,2.48 2.29,2.89 0.82,0.33 1.42,0.25 2.35,0.29 0.38,0 0.71,0.12 0.65,0.54 0,0.45 -0.38,0.54 -0.82,0.54 -2.4,0.04 -4.09,-0.7 -5.07,-2.73 -0.98,-1.94 -0.44,-4.38 1.09,-5.62 1.25,-0.99 1.96,-1.24 3.98,-1.24 0.49,0 0.76,0 0.87,0.45 0.05,0.5 -0.27,0.62 -0.71,0.62 -0.93,0 -1.53,-0.04 -2.35,0.29 -1.04,0.41 -2.07,1.49 -2.29,2.89zm-67.75 0c1.15,0.04 3.22,0 4.53,0 0.49,0 0.98,-0.04 0.98,0.5 0.05,0.78 -1.2,0.58 -2.35,0.58 -1.04,0 -2.07,0 -3.11,0 0.16,1.36 1.25,2.48 2.29,2.89 1.47,0.62 3.05,-0.17 3,0.83 -0.05,0.5 -0.38,0.54 -0.82,0.54 -2.4,0.04 -4.09,-0.7 -5.13,-2.73 -0.93,-1.86 -0.44,-4.3 1.15,-5.62 1.2,-0.99 1.96,-1.24 3.98,-1.24 0.44,0 0.76,0.04 0.82,0.45 0.05,0.5 -0.27,0.62 -0.71,0.62 -0.93,0 -1.47,-0.04 -2.29,0.29 -1.09,0.41 -2.13,1.49 -2.35,2.89zm-5.56 -3.3l0 6.73c0,0.62 0.22,1.73 -0.55,1.78 -0.71,0 -0.55,-1.07 -0.55,-1.74l0 -6.81c-0.82,0 -1.64,0 -2.45,0 -0.65,0 -1.91,0.21 -1.64,-0.7 0.16,-0.58 1.47,-0.37 2.13,-0.37l4.91 0c0.65,0 1.96,-0.21 2.18,0.33 0.11,0.29 0,0.62 -0.33,0.7 -0.38,0.12 -2.95,-0.08 -3.71,0.08zm74.35 -1.98c-0.44,-0.58 -0.16,-0.58 0.22,-0.99 0.27,-0.29 0.44,-0.45 0.76,-0.78 0.33,-0.33 1.15,-1.45 1.53,-1.57 0.22,0.12 2.46,2.56 2.62,2.93 0.22,0.33 -0.16,0.66 -0.6,0.45 -0.22,-0.17 -1.47,-1.65 -2.07,-1.98 -0.33,0.37 -0.82,0.7 -1.2,1.03 -0.27,0.25 -0.76,0.87 -1.25,0.91zm-67.7 0c-0.49,-0.58 -0.16,-0.58 0.22,-0.99 0.27,-0.29 0.38,-0.5 0.71,-0.78 0.38,-0.37 1.15,-1.45 1.58,-1.57 0.33,0.21 1.64,1.73 1.96,2.19 0.16,0.21 0.55,0.54 0.65,0.74 0.16,0.37 -0.22,0.66 -0.6,0.45 -0.33,-0.21 -0.44,-0.41 -0.65,-0.7 -0.27,-0.25 -1.2,-1.16 -1.47,-1.28 -0.22,0.25 -0.33,0.29 -0.55,0.5 -0.49,0.41 -1.47,1.4 -1.85,1.45zm-39.71 -23.71c-0.16,-1.32 0.76,-3.14 1.36,-3.88 0.82,-1.12 1.58,-1.57 2.89,-2.35 4.42,-2.52 8.95,-5.2 13.31,-7.68 2.24,-1.24 4.42,-2.56 6.66,-3.84 6.66,-3.76 13.31,-7.76 19.97,-11.52 1.15,-0.62 2.24,-1.28 3.33,-1.94 2.78,-1.61 5.18,-1.69 8.02,0 1.09,0.66 2.18,1.28 3.33,1.9 4.36,2.44 8.95,5.29 13.31,7.68 2.24,1.28 4.42,2.56 6.6,3.84l20.02 11.52c1.31,0.78 2.18,1.28 2.95,2.35 0.55,0.78 1.53,2.44 1.36,3.8 0.22,0.25 0.11,7.39 0.11,8.38 0,1.45 0.05,7.56 -0.05,8.47 -0.38,0.12 -13.04,0.04 -14.62,0.04 -1.2,0 -13.86,0.08 -14.67,-0.04l-44.62 0c-1.04,0.12 -2.62,0.04 -3.71,0.04 -2.95,0 -25.15,0.08 -25.58,-0.04 -0.11,-1.12 -0.05,-16.56 0.05,-16.73zm-13.91 22.01c-1.85,0.5 -2.95,0.87 -5.07,0.83 -3.33,-0.08 -6.87,-0.74 -9.93,-1.86 -1.58,-0.58 -2.56,-1.16 -4.42,-1.45 -7.36,-1.2 -11.84,6.57 -9,12.47 1.09,2.31 3.6,4.5 6.93,4.87 2.89,0.33 7.36,-1.07 9.98,-1.78 3.27,-0.91 6.71,-1.61 10.2,-0.7 3.11,0.83 5.73,2.19 8.29,3.51 0.76,0.5 1.64,0.95 2.4,1.45 0.6,0.33 0.93,0.25 1.69,0.25l101.9 0c2.56,0 5.13,-0.04 7.64,0 0.71,0 0.93,-0.29 1.42,-0.58 0.82,-0.45 3.06,-1.86 3.76,-2.02 0.33,-0.33 3.11,-1.49 3.82,-1.73 5.29,-2.02 8.29,-1.45 13.97,0.12 2.62,0.74 6.49,1.9 9.44,1.4 3,-0.5 5.29,-2.64 6.33,-4.83 2.89,-6.07 -1.75,-12.97 -7.91,-12.6 -1.69,0.12 -3,0.54 -4.36,1.16 -2.29,1.07 -6.33,1.94 -8.89,2.19 -2.07,0.21 -3.22,0.12 -5.24,-0.17 -1.31,-0.37 -2.29,-0.62 -3.49,-1.12 -2.35,-0.91 -5.51,-2.73 -7.53,-4.13 -0.93,-0.66 -0.44,-0.5 -1.75,-0.58 -0.05,-0.78 0,-12.22 0,-13.38 0,-2.23 0.11,-4.13 -0.55,-6.15 -1.2,-3.68 -3.44,-5.04 -6.6,-6.81 -4.15,-2.31 -8.56,-4.92 -12.66,-7.31 -5.67,-3.3 -11.29,-6.57 -16.96,-9.79 -4.26,-2.44 -8.51,-4.96 -12.71,-7.35 -3.44,-1.94 -7.09,-1.94 -10.47,0.04 -9.82,5.7 -19.8,11.4 -29.68,17.1 -2.84,1.61 -5.62,3.3 -8.46,4.91 -1.42,0.79 -2.84,1.65 -4.25,2.44 -2.62,1.45 -3.98,2.19 -5.51,4.5 -1.8,2.77 -1.58,5.37 -1.58,8.51 0,0.95 0.05,12.68 0,13.3 -1.15,0.08 -0.76,-0.12 -1.58,0.45 -0.98,0.7 -2.67,1.73 -3.71,2.31 -0.82,0.45 -1.69,0.95 -2.62,1.36 -0.98,0.45 -1.91,0.74 -2.84,1.16z"/>
   <path class="fil1" d="M72.25 110c0.55,-0.12 10.53,-0.04 11.95,-0.04 7.96,0 15.93,0 23.95,0 3.93,0 8.07,-0.12 12,0 -0.22,0.41 -1.69,1.9 -2.13,2.27 -2.4,2.15 -4.53,3.8 -7.69,5.37 -11.02,5.45 -24,4.05 -33.6,-3.35 -0.98,-0.74 -2.62,-2.19 -3.44,-3.1l-1.04 -1.16zm53.79 -7.39c0.55,-0.16 0.44,0.21 0.44,0.7 0,0.78 0.05,3.35 -0.05,3.76l-0.38 0c-0.11,-0.37 -0.11,-4.05 0,-4.46zm-29.4 4.01l0 -3.59c0,-0.62 0.55,-0.74 0.55,0.17l0 3.22c0,0.95 -0.55,0.87 -0.55,0.21zm37.69 0.41l-0.38 0.04c-0.11,-0.41 -0.05,-1.28 -0.05,-1.78l-3.38 0c0,0.37 0.11,1.57 -0.16,1.73 -0.49,0.41 -0.33,-1.2 -0.33,-1.45 0,-1.49 0.16,-2.23 1.2,-2.77 1.2,-0.62 3.16,-0.04 3.16,2.31 0,0.54 0.05,1.49 -0.05,1.9zm-14.51 0.04l-0.38 0c-0.16,-0.41 -0.05,-1.28 -0.05,-1.78l-3.38 0c-0.05,0.37 0.05,1.57 -0.16,1.73 -0.55,0.37 -0.38,-1.16 -0.38,-1.45 0,-1.49 0.22,-2.23 1.26,-2.77 1.15,-0.62 3.16,-0.08 3.16,2.31 0,0.54 0.05,1.49 -0.05,1.94zm-11.02 -1.69c-0.27,1.03 -1.42,2.11 -2.84,1.78 -0.98,-0.25 -2.07,-1.4 -1.75,-2.81 0.27,-0.99 1.47,-2.06 2.78,-1.74 1.04,0.25 2.13,1.4 1.8,2.77zm-10.96 1.65l-0.38 0.04c-0.16,-0.5 -0.11,-2.6 0.11,-3.1 0.71,-1.86 3.33,-1.78 4.04,-0.08 0.22,0.5 0.27,2.68 0.11,3.18 -0.44,0.04 -0.44,-0.12 -0.44,-0.58 0,-0.41 0,-0.78 0,-1.2l-3.38 0c0,0.5 0.05,1.4 -0.05,1.73zm-32.18 0l-0.38 0.04c-0.11,-0.45 -0.05,-1.24 -0.05,-1.78l-3.38 0c0,0.33 0.11,1.69 -0.16,1.78 -0.49,0.12 -0.33,-1.2 -0.33,-1.57 0,-1.45 0.22,-2.19 1.2,-2.68 1.31,-0.62 3.22,-0.04 3.16,2.31 0,0.5 0.05,1.57 -0.05,1.9zm25.53 -1.73c-0.22,1.07 -1.36,2.15 -2.78,1.86 -0.98,-0.21 -2.13,-1.36 -1.8,-2.77 0.22,-0.99 1.42,-2.06 2.73,-1.78 1.04,0.21 2.13,1.36 1.85,2.68zm-9.55 0c-0.22,1.07 -1.36,2.19 -2.78,1.86 -1.04,-0.21 -2.13,-1.36 -1.8,-2.73 0.22,-1.03 1.36,-2.11 2.67,-1.86 1.04,0.21 2.18,1.4 1.91,2.73zm-5.67 0.17c0.49,0.25 0.87,0.54 0.87,1.28 -0.05,0.33 -0.11,0.37 -0.44,0.37 -0.22,-0.41 -0.05,-0.78 -0.44,-1.12 -0.27,-0.25 -0.82,-0.25 -1.26,-0.17l-0.11 1.24c-0.6,0.17 -0.44,-0.37 -0.44,-0.87l0 -2.81c0,-0.66 -0.16,-0.87 0.55,-0.87 1.96,0.08 2.73,1.9 1.26,2.93zm35.08 0c0.38,0.21 0.44,0.17 0.65,0.54 0.22,0.33 0.27,0.79 0.11,1.12 -0.87,0.08 0.16,-1.65 -2.02,-1.28 -0.11,0.33 0.11,1.61 -0.44,1.2 -0.22,-0.21 -0.11,-0.95 -0.11,-1.24l0 -2.68c0,-0.62 0.16,-0.62 0.76,-0.54 1.8,0.17 2.45,1.9 1.04,2.89zm-16.97 -0.21c-0.71,0.08 -0.22,-0.37 -0.76,-1.2 -0.27,-0.41 -0.65,-0.74 -1.25,-0.87l0 3.14c0,0.45 0.05,0.62 -0.27,0.74 -0.38,-0.12 -0.27,-0.41 -0.27,-0.87 0,-0.37 -0.05,-3.14 0.05,-3.3 0.22,-0.5 1.09,0 1.42,0.21 0.44,0.29 0.55,0.54 0.76,0.79l0.05 0.08c0,0 0.05,0.04 0.05,0.04 0,0 0.05,0 0.05,0.04 0.27,-0.62 1.25,-1.53 2.24,-1.32 0.11,0.41 0.11,3.96 0,4.3l-0.38 0.04c-0.16,-0.5 -0.05,-3.1 -0.05,-3.88 -0.55,0.08 -0.93,0.37 -1.15,0.66 -0.49,0.62 -0.27,0.74 -0.49,1.4zm27.49 1.82l-0.38 0c-0.11,-0.45 -0.11,-2.56 0.05,-2.97 0.22,-0.7 0.87,-1.36 1.69,-1.49 1.15,-0.16 1.85,0.41 2.24,0.95 0.55,0.83 0.44,3.3 0.27,3.47 -0.16,0.17 -0.38,0.04 -0.44,-0.21 -0.16,-0.91 0.55,-3.01 -1.09,-3.63 -0.98,-0.33 -1.85,0.25 -2.13,0.87 -0.38,0.79 0,2.27 -0.22,3.02zm-39.17 0l-0.38 0c-0.11,-0.41 -0.11,-2.52 0.05,-2.93 0.55,-1.73 2.78,-2.15 3.87,-0.58 0.55,0.78 0.38,1.69 0.38,2.77 0,1.2 -0.44,0.7 -0.49,0.5 -0.16,-0.91 0.55,-3.14 -1.15,-3.63 -1.04,-0.33 -1.8,0.25 -2.07,0.91 -0.38,0.78 0,2.23 -0.22,2.97zm47.3 0c-0.6,0.29 -1.58,-0.04 -2.02,-0.33 -1.69,-1.12 -1.31,-4.13 1.58,-4.13 0.16,0 0.33,0.04 0.44,0.08l0 0.33c-0.65,0.25 -1.09,-0.12 -1.8,0.45 -1.42,1.16 -0.6,3.1 1.04,3.18 0.49,0 0.76,-0.17 0.76,0.41zm-15 -0.41c0,-0.58 -0.11,-1.45 0.11,-1.86 0.49,-0.04 0.38,0.04 0.38,0.99 0,0.41 0.05,0.95 0,1.36 -3.87,0.37 -4.09,-4.54 -0.44,-4.54 0.16,0 0.27,0.04 0.38,0.08l0.05 0.33c-0.6,0.25 -1.04,-0.08 -1.69,0.37 -1.53,1.03 -0.98,3.26 1.2,3.26zm-53.68 -1.73c0.16,0.17 0.11,0.78 0.11,1.07 0,0.37 0,0.79 -0.05,1.16 -0.33,0.08 -0.82,0.08 -1.04,-0.04 -1.64,-0.04 -3,-2.64 -0.98,-4.09 0.44,-0.33 1.42,-0.58 1.96,-0.33l0 0.33c-0.27,0.17 -2.24,-0.12 -2.45,1.57 -0.22,1.16 0.65,2.06 2.02,2.06 0,-0.58 -0.11,-1.45 0.11,-1.86 0.33,0 0.22,-0.08 0.33,0.12zm5.62 -0.37l2.45 0c0,2.64 -2.67,2.89 -3,2.48 -0.22,-0.62 0.87,-0.25 1.53,-0.58 0.44,-0.25 0.82,-0.74 0.93,-1.36l-2.45 0c-0.11,-2.48 2.4,-2.77 3,-2.44l0 0.29c-0.38,0.25 -1.04,0 -1.64,0.37 -0.38,0.25 -0.82,0.62 -0.82,1.24zm2.78 -1.94c0.38,-0.12 3.98,-0.12 4.36,0l0 0.37c-0.55,0.17 -1.31,0.04 -1.91,0.08 0,0.74 0.11,3.51 -0.05,4.01l-0.38 0c-0.16,-0.5 -0.05,-3.26 -0.05,-4.01 -0.55,0 -1.53,0.04 -1.91,-0.08l-0.05 -0.37zm47.08 -0.5c-0.11,-0.25 -0.05,-0.33 0.11,-0.5 0.22,-0.17 0.22,-0.17 0.38,-0.37 0.22,-0.25 0.44,-0.54 0.76,-0.7l0.98 1.16c0.33,0.33 0.22,0.37 0.16,0.41 -0.27,0.12 -0.44,-0.21 -0.6,-0.37 -0.22,-0.21 -0.38,-0.41 -0.6,-0.54 -0.44,0.33 -0.87,0.87 -1.2,0.91zm-78.77 -5.29c-0.16,2.27 -0.76,3.18 -0.11,6.11 0.65,2.89 2.78,7.1 4.8,8.96 0.82,0.7 1.04,0.87 1.96,1.45 3.38,2.06 8.02,3.06 10.58,6.65 4.04,5.7 3.65,15.16 11.56,15.98 4.42,0.45 7.96,-1.16 12.66,-0.08 7.36,1.69 13.8,8.71 19.2,8.22 1.91,-0.17 3.6,-1.24 4.69,-2.15 1.2,-0.95 2.56,-2.23 3.76,-3.1 7.86,-5.58 16.42,-0.5 23.57,-3.39 3.82,-1.49 4.75,-4.3 6.33,-7.43 1.64,-3.35 4.15,-6.86 6.44,-8.96 1.53,-1.36 3.22,-2.73 4.91,-3.72 3.22,-1.86 8.4,-4.05 9.55,-7.68 0.6,-2.02 -0.05,-3.88 -0.65,-5.7 -0.65,-2.06 -0.87,-3.8 -0.44,-6.07 -0.71,0.17 -2.95,1.57 -3.76,2.02 -0.49,0.29 -0.71,0.58 -1.42,0.58 -2.51,-0.04 -5.07,0 -7.64,0l-101.9 0c-0.76,0 -1.09,0.08 -1.69,-0.25 -0.76,-0.5 -1.64,-0.95 -2.4,-1.45z"/>
   <path class="fil1" d="M30.74 80.92c0.93,-0.41 1.85,-0.7 2.84,-1.16 0.93,-0.41 1.8,-0.91 2.62,-1.36 1.04,-0.58 2.73,-1.61 3.71,-2.31 0.82,-0.58 0.44,-0.37 1.58,-0.45 0.05,-0.62 0,-12.35 0,-13.3 0,-3.14 -0.22,-5.74 1.58,-8.51 1.53,-2.31 2.89,-3.06 5.51,-4.5 1.42,-0.78 2.84,-1.65 4.25,-2.44 2.84,-1.61 5.62,-3.3 8.46,-4.91 9.87,-5.7 19.86,-11.4 29.68,-17.1 3.38,-1.98 7.04,-1.98 10.47,-0.04 4.2,2.4 8.46,4.91 12.71,7.35 5.67,3.22 11.29,6.48 16.96,9.79 4.09,2.4 8.51,5 12.66,7.31 3.16,1.78 5.4,3.14 6.6,6.81 0.65,2.02 0.55,3.92 0.55,6.15 0,1.16 -0.05,12.6 0,13.38 1.31,0.08 0.82,-0.08 1.75,0.58 2.02,1.4 5.18,3.22 7.53,4.13 1.2,0.5 2.18,0.74 3.49,1.12 0.05,-0.33 0.55,-1.16 0.71,-1.57 0.71,-1.69 1.25,-3.68 1.25,-5.62 -0.05,-3.84 -2.18,-6.77 -4.85,-8.88 -2.84,-2.19 -5.24,-4.17 -4.86,-8.67 0.44,-5.16 3.71,-9.99 0.98,-15.2 -0.49,-0.99 -1.25,-2.02 -1.91,-2.6 -0.76,-0.62 -1.69,-1.36 -2.73,-1.86 -3.6,-1.74 -3.98,-1.32 -6.82,-2.31 -2.24,-0.83 -4.04,-2.4 -5.13,-3.96 -2.62,-3.84 -3.6,-8.84 -6.27,-12.02 -1.2,-1.4 -3,-2.97 -5.51,-3.55 -5.56,-1.32 -9.87,2.06 -16.09,-0.08 -4.53,-1.57 -8.07,-4.3 -12.71,-5.58 -6.44,-1.78 -9.38,0.58 -13.91,3.01 -2.13,1.16 -3.93,2.11 -6.82,2.31 -2.95,0.21 -5.78,-0.37 -8.78,-0.08 -2.62,0.29 -4.91,1.24 -6.82,2.31 -0.49,0.25 -0.98,0.54 -1.42,0.87 -0.44,0.33 -0.93,0.66 -1.31,0.99 -0.16,0.21 -0.33,0.41 -0.55,0.58 -1.91,1.65 -3,6.44 -3.93,8.63 -0.98,2.44 -2.35,3.76 -4.09,5 -1.75,1.28 -3.65,2.35 -5.62,3.51 -0.98,0.58 -1.91,1.2 -2.78,1.82 -2.78,1.94 -4.75,4.5 -5.45,8.18 -1.04,5.41 0.98,11.48 -1.25,16.77 -1.91,4.46 -6.66,6.44 -7.91,10.33 -0.38,1.32 -0.27,2.73 0.16,4.01 0.49,1.57 1.36,2.85 1.47,3.14z"/>
   <path class="fil1" d="M44.65 58.91l0 16.69 29.24 0 -0.05 -12.23c-2.35,-0.21 -5.07,0.58 -5.13,-1.2 -0.05,-1.12 0.87,-1.24 1.86,-1.24 0.76,0 2.67,-0.12 3.27,0.04 0,-0.74 0.05,-5.25 -0.05,-5.62 -0.33,-0.29 -0.44,0.04 -0.55,-0.5l45.6 0c-0.05,-0.04 -0.05,-0.04 -0.16,-0.12 -0.11,-0.04 -0.05,0 -0.16,-0.04l-21.82 -5.2c-0.44,-0.12 -21.71,-5.12 -22.2,-5.33l0.11 -0.45c0.05,-0.04 0.11,-0.04 0.16,-0.08l0.22 -0.12c-0.49,-0.45 -2.51,-1.9 -2.45,-2.64 0.11,-0.87 1.42,-0.33 2.29,-0.12 0.82,0.21 4.42,1.16 5.07,1.12 3.82,-0.17 8.07,0.17 11.84,0.58 0.22,0.04 0.76,0.12 0.93,0.08 0.82,-0.08 0.49,-0.87 4.47,-0.41 0.11,-0.83 0.44,-1.94 0.65,-2.77 0.22,-1.03 0.6,-1.74 1.8,-1.45 1.09,0.25 1.31,0.91 1.04,2.06 -0.16,0.74 -0.6,2.06 -0.65,2.81 0.38,0.21 1.15,0.41 1.64,0.66 0.55,0.29 1.04,0.62 1.42,0.95 0.76,0.66 0.11,0.62 1.25,1.03 4.31,1.61 7.2,2.85 11.24,5 0.44,0.25 4.47,1.16 5.51,1.4 0.6,0.12 1.58,0.21 1.36,0.95 -0.16,0.62 -2.67,1.12 -3.38,1.28 0.11,0.25 0,0.04 0.11,0.17 0.16,0.21 0.22,0.21 0.11,0.62 -0.16,0.58 -0.27,0.25 -0.6,0.54 -0.11,0.54 -0.05,4.75 -0.05,5.62 0.6,-0.17 2.45,-0.04 3.16,-0.04 1.04,0 1.96,0.08 1.96,1.2 0.05,1.82 -2.73,1.03 -5.13,1.24l-0.05 12.23 29.24 0 0 -16.81c0.16,-1.36 -0.82,-3.01 -1.36,-3.8 -0.76,-1.07 -1.64,-1.57 -2.95,-2.35l-20.02 -11.52c-2.18,-1.28 -4.36,-2.56 -6.6,-3.84 -4.36,-2.4 -8.95,-5.25 -13.31,-7.68 -1.15,-0.62 -2.24,-1.24 -3.33,-1.9 -2.84,-1.69 -5.24,-1.61 -8.02,0 -1.09,0.66 -2.18,1.32 -3.33,1.94 -6.66,3.76 -13.31,7.76 -19.97,11.52 -2.24,1.28 -4.42,2.6 -6.66,3.84 -4.36,2.48 -8.89,5.16 -13.31,7.68 -1.31,0.79 -2.07,1.24 -2.89,2.35 -0.6,0.74 -1.53,2.56 -1.36,3.88z"/>
   <path class="fil2" d="M73.89 75.6l0 0.04 44.62 0 0 -0.04 0.05 -12.23c2.4,-0.21 5.18,0.58 5.13,-1.24 0,-1.12 -0.93,-1.2 -1.96,-1.2 -0.71,0 -2.56,-0.12 -3.16,0.04 0,-0.87 -0.05,-5.08 0.05,-5.62 0.33,-0.29 0.44,0.04 0.6,-0.54 0.11,-0.41 0.05,-0.41 -0.11,-0.62 -0.11,-0.12 0,0.08 -0.11,-0.17 0.71,-0.17 3.22,-0.66 3.38,-1.28 0.22,-0.74 -0.76,-0.83 -1.36,-0.95 -1.04,-0.25 -5.07,-1.16 -5.51,-1.4 -4.04,-2.15 -6.93,-3.39 -11.24,-5 -1.15,-0.41 -0.49,-0.37 -1.25,-1.03 -0.38,-0.33 -0.87,-0.66 -1.42,-0.95 -0.49,-0.25 -1.25,-0.45 -1.64,-0.66 0.05,-0.74 0.49,-2.06 0.65,-2.81 0.27,-1.16 0.05,-1.82 -1.04,-2.06 -1.2,-0.29 -1.58,0.41 -1.8,1.45 -0.22,0.83 -0.55,1.94 -0.65,2.77 -3.98,-0.45 -3.65,0.33 -4.47,0.41 -0.16,0.04 -0.71,-0.04 -0.93,-0.08 -3.76,-0.41 -8.02,-0.74 -11.84,-0.58 -0.65,0.04 -4.26,-0.91 -5.07,-1.12 -0.87,-0.21 -2.18,-0.74 -2.29,0.12 -0.05,0.74 1.96,2.19 2.45,2.64l-0.22 0.12c-0.05,0.04 -0.11,0.04 -0.16,0.08l-0.11 0.45c0.49,0.21 21.77,5.2 22.2,5.33l21.82 5.2c0.11,0.04 0.05,0 0.16,0.04 0.11,0.08 0.11,0.08 0.16,0.12l-45.6 0c0.11,0.54 0.22,0.21 0.55,0.5 0.11,0.37 0.05,4.87 0.05,5.62 -0.6,-0.17 -2.51,-0.04 -3.27,-0.04 -0.98,0 -1.91,0.12 -1.86,1.24 0.05,1.78 2.78,0.99 5.13,1.2l0.05 12.23z"/>
   <path class="fil3" d="M45.63 117.76c5.13,-0.5 7.31,4.87 9.06,8.67 0.93,1.98 1.91,4.71 1.47,7.27 -0.33,2.23 -1.91,4.79 -4.58,4.01 -2.18,-0.62 -3.22,-2.73 -3.98,-5.04 -0.93,-2.81 -1.53,-3.96 -3.49,-5.41 -0.98,-0.7 -1.69,-1.2 -2.35,-2.11 -2.29,-3.1 -1.09,-6.94 3.87,-7.39zm114.39 -55.51l-0.11 -0.08 0.11 0.08zm-0.11 -0.08c-0.22,-0.04 -0.16,0 -0.27,-0.21 0.27,0.08 0.16,0.04 0.27,0.21zm-0.27 -0.21l-0.05 -0.04 0.05 0.04zm-0.05 -0.04l-0.05 -0.08 0.05 0.08zm-0.05 -0.08l-0.11 -0.08 0.11 0.08zm-0.11 -0.08l-0.05 -0.08 0.05 0.08zm-0.05 -0.08l-0.05 -0.04 0.05 0.04zm-0.05 -0.04l-0.11 -0.08 0.11 0.08zm-0.11 -0.08l-0.05 -0.08 0.05 0.08zm-0.05 -0.08l-0.05 -0.04 0.05 0.04zm-0.33 -0.41c0.16,0.12 0.22,0.12 0.27,0.37 -0.16,-0.12 -0.22,-0.12 -0.27,-0.37zm0 0c-0.55,-0.33 -1.36,-2.23 -1.42,-3.1 -0.05,-1.03 0.11,-2.07 0.33,-3.02 0.11,-0.25 0.16,-0.7 0.33,-0.91 -0.05,0.83 -0.44,2.27 -0.22,3.84 0.16,1.28 0.11,1.36 0.65,2.48l0.33 0.7zm-0.76 -7.31c0,-0.17 0.11,0 0,0 0,0 0,0.21 0,0zm0.05 -0.21l0 0.04c0,0 0,0 0,-0.04zm7.04 -6.61c1.04,-0.25 1.75,0.29 2.13,0.83 1.8,2.52 -0.05,3.96 -0.87,6.57 -0.49,1.65 0,3.68 -0.55,5.29 -1.42,4.17 -5.51,1.65 -6.33,-1.07 -0.82,-2.68 0.93,-6.94 2.4,-8.96 0.6,-0.87 1.91,-2.35 3.22,-2.64zm-1.47 34.53c2.02,0.29 3.16,0.37 5.24,0.17 2.56,-0.25 6.6,-1.12 8.89,-2.19 1.36,-0.62 2.67,-1.03 4.36,-1.16 6.16,-0.37 10.8,6.53 7.91,12.6 -1.04,2.19 -3.33,4.34 -6.33,4.83 -2.95,0.5 -6.82,-0.66 -9.44,-1.4 -5.67,-1.57 -8.67,-2.15 -13.97,-0.12 -0.71,0.25 -3.49,1.4 -3.82,1.73 -0.44,2.27 -0.22,4.01 0.44,6.07 0.6,1.82 1.26,3.68 0.65,5.7 -1.15,3.63 -6.33,5.82 -9.55,7.68 -1.69,0.99 -3.38,2.35 -4.91,3.72 -2.29,2.11 -4.8,5.62 -6.44,8.96 -1.58,3.14 -2.51,5.95 -6.33,7.43 -7.15,2.89 -15.71,-2.19 -23.57,3.39 -1.2,0.87 -2.56,2.15 -3.76,3.1 -1.09,0.91 -2.78,1.98 -4.69,2.15 -5.4,0.5 -11.84,-6.53 -19.2,-8.22 -4.69,-1.07 -8.24,0.54 -12.66,0.08 -7.91,-0.83 -7.53,-10.28 -11.56,-15.98 -2.56,-3.59 -7.2,-4.58 -10.58,-6.65 -0.93,-0.58 -1.15,-0.74 -1.96,-1.45 -2.02,-1.86 -4.15,-6.07 -4.8,-8.96 -0.65,-2.93 -0.05,-3.84 0.11,-6.11 -2.56,-1.32 -5.18,-2.68 -8.29,-3.51 -3.49,-0.91 -6.93,-0.21 -10.2,0.7 -2.62,0.7 -7.09,2.11 -9.98,1.78 -3.33,-0.37 -5.84,-2.56 -6.93,-4.87 -2.84,-5.91 1.64,-13.67 9,-12.47 1.85,0.29 2.84,0.87 4.42,1.45 3.06,1.12 6.6,1.78 9.93,1.86 2.13,0.04 3.22,-0.33 5.07,-0.83 -0.11,-0.29 -0.98,-1.57 -1.47,-3.14 -0.44,-1.28 -0.55,-2.68 -0.16,-4.01 1.25,-3.88 6,-5.86 7.91,-10.33 2.24,-5.29 0.22,-11.36 1.25,-16.77 0.71,-3.68 2.67,-6.24 5.45,-8.18 0.87,-0.62 1.8,-1.24 2.78,-1.82 1.96,-1.16 3.87,-2.23 5.62,-3.51 1.75,-1.24 3.11,-2.56 4.09,-5 0.93,-2.19 2.02,-6.98 3.93,-8.63 0.22,-0.17 0.38,-0.37 0.55,-0.58 0.38,-0.33 0.87,-0.66 1.31,-0.99 0.44,-0.33 0.93,-0.62 1.42,-0.87 1.91,-1.07 4.2,-2.02 6.82,-2.31 3,-0.29 5.84,0.29 8.78,0.08 2.89,-0.21 4.69,-1.16 6.82,-2.31 4.53,-2.44 7.47,-4.79 13.91,-3.01 4.64,1.28 8.18,4.01 12.71,5.58 6.22,2.15 10.53,-1.24 16.09,0.08 2.51,0.58 4.31,2.15 5.51,3.55 2.67,3.18 3.65,8.18 6.27,12.02 1.09,1.57 2.89,3.14 5.13,3.96 2.84,0.99 3.22,0.58 6.82,2.31 1.04,0.5 1.96,1.24 2.73,1.86 0.65,0.58 1.42,1.61 1.91,2.6 2.73,5.2 -0.55,10.04 -0.98,15.2 -0.38,4.5 2.02,6.48 4.86,8.67 2.67,2.11 4.8,5.04 4.85,8.88 0,1.94 -0.55,3.92 -1.25,5.62 -0.16,0.41 -0.65,1.24 -0.71,1.57zm-3.65 -19.2c0.49,0.12 1.75,1.45 4.69,0.87 2.45,-0.54 2.73,-3.1 2.89,-5.08 0.11,-1.94 -0.05,-2.68 0.82,-4.34 0.33,-0.66 0.65,-1.4 0.82,-2.11 0.27,-0.99 0.27,-3.01 0,-3.92 -0.11,-0.29 -0.33,-0.7 -0.49,-0.95 -0.76,-1.12 -1.64,-1.32 -3.16,-1.32 -1.86,0 -2.4,0.37 -3.66,1.4 -0.49,0.41 -0.98,0.99 -1.36,1.57 -0.16,0.21 -0.22,0.12 -0.44,0.33 -0.11,0.12 -0.11,0.29 -0.22,0.45 -0.6,0.99 -0.98,2.06 -1.36,3.1 -0.05,0.21 -0.11,0.37 -0.22,0.54 0,-0.5 0.6,-2.52 0.76,-3.18 0.22,-1.16 0.33,-2.27 0.33,-3.63 0.05,-2.52 -0.6,-4.87 -1.96,-6.94 -0.22,-0.25 -0.27,-0.29 -0.44,-0.54 -1.8,-2.27 -4.86,-3.59 -7.58,-4.34 -1.47,-0.45 -3.16,-0.78 -4.47,-1.53 -0.6,-0.33 -1.25,-0.7 -1.75,-1.16l-1.04 -1.03c-0.49,-0.62 -1.2,-1.73 -1.53,-2.4 -0.16,-0.25 -0.22,-0.41 -0.33,-0.66 -0.27,-0.45 -0.44,-0.91 -0.71,-1.36 -0.38,-0.83 -0.82,-1.86 -1.15,-2.73 -0.38,-0.95 -0.87,-1.86 -1.31,-2.73 -0.38,-0.87 -0.87,-1.78 -1.47,-2.52 -0.33,-0.41 -0.55,-0.7 -0.93,-1.07 -0.71,-0.7 -1.31,-1.28 -2.13,-1.86 -1.25,-0.83 -2.78,-1.49 -4.31,-1.65 -1.15,-0.08 -2.62,-0.12 -3.87,-0.08 -0.27,0 -0.55,0.04 -0.87,0.08 -0.87,0.08 -1.8,0.25 -2.62,0.37 -3.82,0.66 -4.8,0.78 -8.35,-0.5 -1.69,-0.62 -3.22,-1.4 -4.8,-2.23l-1.96 -0.95c-2.07,-0.91 -3.49,-1.61 -5.78,-2.19 -2.24,-0.58 -4.96,-0.74 -7.2,-0.37 -2.18,0.41 -3.82,1.24 -5.78,2.23 -0.44,0.25 -0.82,0.45 -1.26,0.7 -4.47,2.44 -5.18,3.01 -10.91,2.73 -0.33,-0.04 -0.49,-0.08 -0.93,-0.08 -1.86,0 -3.76,-0.08 -5.67,0.29 -0.76,0.16 -1.53,0.33 -2.35,0.58l-1.53 0.54c-0.27,0.12 -0.33,0.25 -0.6,0.37 -0.22,0.17 -0.44,0.21 -0.65,0.33 -0.22,0.08 -0.38,0.21 -0.65,0.33 -0.22,0.12 -0.44,0.25 -0.65,0.37 -0.82,0.5 -1.58,1.12 -2.29,1.73l-0.98 0.99c-0.11,0.17 -0.27,0.37 -0.44,0.54 -0.16,0.21 -0.27,0.37 -0.38,0.62 -1.8,3.01 -2.13,6.77 -4.25,9.62 -0.16,0.25 -0.27,0.33 -0.44,0.54l-0.98 0.99c-0.16,0.17 -0.33,0.29 -0.55,0.45 -0.38,0.29 -0.76,0.54 -1.15,0.83 -0.71,0.5 -1.58,1.07 -2.35,1.4 -0.49,0.25 -0.93,0.54 -1.42,0.87 -1.25,0.74 -2.45,1.45 -3.71,2.27 -0.38,0.25 -0.71,0.54 -1.09,0.83 -0.76,0.58 -1.42,1.24 -2.07,1.94 -0.11,0.12 -0.11,0.12 -0.22,0.25 -0.87,1.07 -1.53,2.19 -2.02,3.47 -1.25,3.1 -0.98,7.31 -0.93,10.86 0,0.41 0.05,0.5 0.05,0.91 0,0.33 0,0.66 0,0.99 0,3.18 -0.49,5.91 -2.4,8.51 -0.22,0.25 -0.27,0.33 -0.49,0.54l-0.98 1.07c-0.6,0.62 -1.36,1.32 -1.96,1.98 -0.22,0.21 -0.27,0.33 -0.49,0.54 -0.16,0.17 -0.27,0.29 -0.49,0.5 -0.98,0.99 -1.8,2.31 -2.18,3.76 -0.05,0.21 -0.11,0.5 -0.16,0.78 -0.27,1.82 -0.05,3.63 0.49,5.29 0.05,0.25 0.22,0.58 0.27,0.83 -1.26,0.58 -3.93,0.29 -5.35,0.08 -0.93,-0.12 -1.64,-0.25 -2.45,-0.45 -1.75,-0.41 -2.78,-0.83 -4.47,-1.4 -0.71,-0.25 -1.31,-0.54 -2.18,-0.83 -1.36,-0.37 -3.49,-0.66 -5.35,-0.5 -3.55,0.29 -5.84,2.15 -7.26,4.54 -0.27,0.54 -0.65,1.45 -0.87,2.11 -0.38,1.57 -0.38,3.8 -0.33,5.58 0.05,0.78 0.38,1.73 0.6,2.35 0.38,1.03 0.98,1.94 1.64,2.77 1.25,1.65 3.76,3.01 5.84,3.01l4.42 0c2.45,0 8.62,-2.11 12.16,-2.6 1.42,-0.21 2.51,-0.12 3.87,0.29 1.8,0.5 3.6,1.16 5.29,2.02 1.04,0.5 0.6,0.04 2.13,0.83l-0.11 1.69c-0.16,1.2 0.22,3.84 0.49,4.87 0.65,2.56 2.35,5.78 3.93,7.81 0.55,0.66 1.2,1.28 1.85,1.78 0.71,0.54 1.53,0.95 2.29,1.4 0.44,0.29 0.98,0.45 1.47,0.74l0.33 0.17c-0.82,0 -1.69,-0.04 -2.45,0.21 -0.93,0.29 -1.8,0.5 -2.56,1.03 -0.16,0.17 -0.33,0.25 -0.49,0.41 -0.65,0.58 -1.09,1.2 -1.36,2.23 -0.38,1.9 -0.16,4.38 0.93,5.99 0.22,0.33 0.55,0.74 0.82,1.03 0.87,0.91 2.02,1.57 2.95,2.44 0.33,0.25 0.6,0.66 0.82,0.99 1.36,2.02 1.53,4.67 3.11,6.81 0.16,0.21 0.27,0.25 0.49,0.41 0.65,0.62 1.36,1.16 2.29,1.36 0.49,0.12 1.09,0.17 1.64,0.17 0.65,0 1.09,0 1.69,-0.08 1.86,-0.17 3.11,-1.98 3.49,-3.72 0.33,-1.32 0.33,-2.85 0.33,-4.25 -0.05,-0.37 -0.11,-0.45 -0.11,-0.83 0.05,0.04 0.05,0 0.11,0.12 0.38,0.74 0.71,1.57 1.2,2.4l1.04 1.57c0.82,1.03 1.8,1.69 3,2.27 0.22,0.08 0.27,0.08 0.49,0.17 0.93,0.29 1.53,0.54 2.78,0.54 0.87,0 1.64,0.12 2.51,0.04 0.44,-0.08 0.82,0 1.25,-0.08l2.4 -0.21c1.04,-0.12 2.67,-0.37 3.76,-0.21 1.91,0.25 3.49,0.66 5.13,1.36 2.35,1.03 4.53,2.44 6.76,3.76 2.02,1.2 3.98,2.35 6.22,3.06 1.31,0.41 3.11,0.54 4.8,0.37 1.85,-0.21 2.95,-0.74 4.2,-1.65 1.91,-1.36 3.6,-3.02 5.56,-4.34 2.07,-1.36 4.8,-1.94 7.26,-1.94l3.82 0.12c0.82,0.08 1.75,0 2.56,0.08 2.45,0.29 6.93,0 9.22,-1.2 0.33,-0.12 0.55,-0.25 0.82,-0.41 0.27,-0.17 0.55,-0.33 0.82,-0.54 1.04,-0.74 1.86,-1.65 2.51,-2.73 0.71,-1.12 1.31,-2.27 1.8,-3.47 0.49,-1.2 1.64,-3.1 2.4,-4.21 0.76,-1.2 1.69,-2.23 2.56,-3.35l0.98 -0.99c1.42,-1.4 3.49,-3.06 5.18,-4.05l1.64 -0.99c1.2,-0.66 3.87,-2.19 4.91,-2.97 1.91,-1.4 3.38,-3.1 3.71,-5.49 0.05,-0.37 0.05,-0.83 0.11,-1.24 0.11,-0.62 -0.05,-1.73 -0.16,-2.35 -0.16,-1.49 -0.82,-2.68 -1.15,-4.13 -0.16,-0.83 -0.16,-1.4 -0.16,-2.48 0.76,-0.41 1.58,-0.78 2.45,-1.12 1.75,-0.74 3.66,-1.4 5.62,-1.65 0.71,-0.08 2.67,0.21 3.27,0.37 2.07,0.45 3.76,0.95 5.78,1.45 0.93,0.21 1.96,0.45 2.95,0.66 1.26,0.25 2.13,0.25 3.44,0.25 1.09,0 2.51,0.08 3.55,0 0.49,-0.04 1.04,-0.25 1.47,-0.41 0.49,-0.17 0.76,-0.33 1.25,-0.58 1.42,-0.7 2.89,-2.19 3.65,-3.63 0.82,-1.69 1.09,-3.06 1.15,-4.83l0 -0.41 0 -0.41 0 -0.45 0 -0.41c-0.11,-2.15 -0.76,-3.92 -1.64,-5.25 -0.49,-0.7 -1.04,-1.4 -1.69,-1.9 -0.71,-0.62 -1.47,-0.99 -2.24,-1.4 -1.58,-0.74 -4.42,-0.83 -6.49,-0.54 -2.29,0.33 -4.09,1.32 -6.22,1.98 -0.27,0.08 -0.49,0.17 -0.71,0.21 -1.47,0.41 -2.95,0.74 -4.58,0.95 -0.55,0.08 -1.09,0.08 -1.58,0.17 -0.22,0 -0.65,0.04 -0.93,0 -0.38,0 -0.33,-0.12 -0.22,-0.41 1.15,-2.73 1.25,-6.9 0.38,-9.5 -0.27,-0.83 -0.65,-1.82 -1.09,-2.52 -0.27,-0.37 -0.44,-0.74 -0.71,-1.12 -1.04,-1.36 -2.4,-2.48 -3.76,-3.55 -0.33,-0.21 -0.76,-0.58 -0.93,-0.87z"/>
   <path class="fil4" d="M97.62 115.24l0.76 0 0 0.37 -0.76 0 0 -0.37zm-4.75 -1.07c0.87,-0.16 1.53,-0.08 1.69,0.7 0.16,0.91 -0.22,1.32 -1.09,1.32l-0.38 0 -0.22 -0.04 0 -1.98zm-5.95 -0.04c0.93,-0.08 1.58,-0.08 1.75,0.74 0.16,0.91 -0.27,1.32 -1.09,1.32l-0.38 0 -0.27 -0.04 0 -2.02zm17.62 0.04c1.09,-0.45 1.15,1.74 0.49,1.98 -1.09,0.45 -1.2,-1.69 -0.49,-1.98zm-3.22 0c1.04,-0.54 1.2,1.69 0.49,1.98 -0.55,0.25 -0.82,-0.21 -0.87,-0.7 -0.05,-0.54 -0.05,-1.03 0.38,-1.28zm-1.96 0.54c-0.11,-0.74 1.04,-0.78 1.26,-0.25 0.22,0.62 -0.38,0.91 -0.71,1.36 0.93,0 0.76,-0.04 0.76,0.37l-1.42 0c0.16,-0.91 1.2,-0.99 0.93,-1.69 -0.33,-0.08 -0.22,-0.08 -0.44,0.08 -0.16,0.17 0.16,0.21 -0.38,0.12zm-3.98 0.17l1.04 0.04 -0.05 0.37 -1.04 0 0 0.54 1.15 0 0 0.37 -1.53 0 0 -2.06 1.53 0 0 0.33 -1.15 0 0.05 0.41zm-6.38 -0.74l1.53 0c0,0.45 0.16,0.33 -1.09,0.33l0 0.45 1.04 0.04 0 0.25c-0.27,0.12 -0.65,0.08 -0.98,0.08l-0.05 0.54 1.15 0 0 0.37 -1.58 0 0 -2.06zm13.53 0.58c-0.05,-0.7 1.04,-0.78 1.26,-0.25 0.27,0.62 -0.49,1.03 -0.71,1.36 0.16,0 0.38,-0.04 0.49,0 0.33,0 0.27,-0.12 0.27,0.37l-1.36 -0.04c0.22,-0.87 1.15,-1.07 0.93,-1.61 -0.05,-0.04 -0.05,-0.12 -0.22,-0.08 -0.44,0.04 0.05,0.33 -0.65,0.25zm-10.47 0.83c-0.11,-0.17 -0.11,-0.17 -0.38,-0.25 -0.44,-0.08 -1.04,-0.37 -0.65,-0.95 0.11,-0.21 1.25,-0.62 1.42,0.37 -0.82,0.04 -0.16,-0.04 -0.65,-0.25 -0.27,-0.12 -0.44,0 -0.49,0.21 0.33,0.33 1.75,0.37 1.09,1.28 -0.27,0.41 -1.47,0.45 -1.53,-0.41 0.6,-0.21 0.22,0.12 0.65,0.29 0.33,0.17 0.55,0 0.55,-0.29zm-18.77 -4.38c0.82,0.91 2.45,2.35 3.44,3.1 9.6,7.39 22.58,8.8 33.6,3.35 3.16,-1.57 5.29,-3.22 7.69,-5.37 0.44,-0.37 1.91,-1.86 2.13,-2.27 -3.93,-0.12 -8.07,0 -12,0 -8.02,0 -15.98,0 -23.95,0 -1.42,0 -11.4,-0.08 -11.95,0.04l1.04 1.16z"/>
   <path class="fil1" d="M45.63 117.76c-4.96,0.45 -6.16,4.3 -3.87,7.39 0.65,0.91 1.36,1.4 2.35,2.11 1.96,1.45 2.56,2.6 3.49,5.41 0.76,2.31 1.8,4.42 3.98,5.04 2.67,0.78 4.25,-1.78 4.58,-4.01 0.44,-2.56 -0.55,-5.29 -1.47,-7.27 -1.75,-3.8 -3.93,-9.17 -9.06,-8.67z"/>
   <path class="fil1" d="M30.19 49.53c-2.45,0.37 -3.71,2.93 -4.31,5.08 -0.87,3.06 -1.31,4.34 -3.06,6.36 -0.38,0.37 -0.71,0.83 -1.09,1.24 -0.27,0.37 -0.71,0.91 -1.04,1.36 -3.65,5.25 0.6,8.8 3.16,7.27 0.82,-0.5 1.42,-1.61 1.91,-2.73 1.25,-2.6 2.18,-3.06 4.8,-4.63 1.09,-0.62 1.96,-1.24 2.67,-2.02 2.45,-2.68 2.73,-10.08 -1.09,-11.65 -0.6,-0.25 -1.31,-0.37 -1.96,-0.29z"/>
   <path class="fil3" d="M30.19 49.53c0.65,-0.08 1.36,0.04 1.96,0.29 3.82,1.57 3.55,8.96 1.09,11.65 -0.71,0.78 -1.58,1.4 -2.67,2.02 -2.62,1.57 -3.55,2.02 -4.8,4.63 -0.49,1.12 -1.09,2.23 -1.91,2.73 -2.56,1.53 -6.82,-2.02 -3.16,-7.27 0.33,-0.45 0.76,-0.99 1.04,-1.36 0.38,-0.41 0.71,-0.87 1.09,-1.24 1.75,-2.02 2.18,-3.3 3.06,-6.36 0.6,-2.15 1.85,-4.71 4.31,-5.08zm-12.38 17.92c0,1.4 0.16,2.52 0.98,3.63 1.2,1.53 2.51,1.49 4.36,1.49 1.8,0 2.67,-0.87 3.44,-2.19 1.26,-2.19 1.15,-3.06 3.71,-4.75 0.98,-0.62 2.51,-1.4 3.44,-2.19 2.51,-2.02 2.78,-5.33 2.78,-8.43 0,-2.11 -0.6,-4.67 -1.8,-5.82 -0.76,-0.83 -0.76,-0.45 -1.53,-0.78 -1.04,-0.45 -3.93,-0.45 -4.85,-0.04 -0.93,0.37 -0.82,0.08 -1.36,0.58 -1.75,1.69 -1.96,2.77 -2.67,5.2 -0.11,0.29 -0.16,0.41 -0.27,0.7 -0.33,1.07 -0.93,2.56 -1.53,3.47 -0.55,0.78 -1.31,1.53 -1.8,2.31 -0.05,0.08 -0.05,0.08 -0.16,0.17 -0.05,0.12 -0.11,0.17 -0.22,0.29 -1.64,2.02 -2.51,3.59 -2.51,6.36z"/>
   <path class="fil1" d="M82.83 7.57c0.22,-1.32 -0.38,-2.64 -1.2,-3.59 -0.11,-0.17 -0.16,-0.17 -0.33,-0.33 -0.16,-0.12 -0.16,-0.21 -0.33,-0.33 -0.16,-0.12 -0.27,-0.21 -0.38,-0.33 -3.66,-2.73 -8.07,-1.69 -9.87,2.19 -0.6,1.2 -0.98,3.26 -0.16,4.5 0.71,1.12 2.84,1.03 4.42,1.07 2.56,0.12 7.26,0 7.86,-3.18z"/>
   <path class="fil1" d="M165.15 46.93c-1.31,0.29 -2.62,1.78 -3.22,2.64 -1.47,2.02 -3.22,6.28 -2.4,8.96 0.82,2.73 4.91,5.25 6.33,1.07 0.55,-1.61 0.05,-3.63 0.55,-5.29 0.82,-2.6 2.67,-4.05 0.87,-6.57 -0.38,-0.54 -1.09,-1.07 -2.13,-0.83z"/>
   <path class="fil3" d="M82.83 7.57c-0.6,3.18 -5.29,3.3 -7.86,3.18 -1.58,-0.04 -3.71,0.04 -4.42,-1.07 -0.82,-1.24 -0.44,-3.3 0.16,-4.5 1.8,-3.88 6.22,-4.91 9.87,-2.19 0.11,0.12 0.22,0.21 0.38,0.33 0.16,0.12 0.16,0.21 0.33,0.33 0.16,0.17 0.22,0.17 0.33,0.33 0.82,0.95 1.42,2.27 1.2,3.59zm-14.29 0.17c0,1.53 0.16,3.26 1.58,3.92 1.25,0.58 5.35,0.54 7.15,0.54 2.35,0 5.51,-0.54 6.6,-2.56 0.55,-1.07 0.55,-2.93 0.38,-4.21 -0.11,-0.62 -0.22,-0.83 -0.44,-1.36 -0.44,-1.03 -1.42,-2.15 -2.35,-2.73 -2.45,-1.57 -4.04,-1.32 -6.76,-1.32 -0.87,0 -2.02,0.5 -2.56,0.83 -2.56,1.53 -3.6,3.92 -3.6,6.9z"/>
   <path class="fil0" d="M107.49 84.64c-1.8,0.29 -3.65,2.15 -3.27,4.42 0.27,1.73 2.24,3.55 4.42,3.18 1.75,-0.29 3.6,-2.19 3.22,-4.38 -0.27,-1.73 -2.18,-3.59 -4.36,-3.22z"/>
   <path class="fil4" d="M72.31 88.23l-7.15 0c0.05,-2.02 1.58,-3.55 3.6,-3.55 2.02,0 3.49,1.53 3.55,3.55zm-7.09 1.07l7.09 0c0.05,0.58 0,2.23 0,3.02 0,0.5 0.05,0.41 0.27,0.74 0.98,0.12 0.82,-0.5 0.82,-1.32 0,-2.02 0.22,-4.3 -0.6,-5.74 -1.75,-3.18 -6.27,-3.18 -8.02,-0.17 -0.87,1.49 -0.65,3.68 -0.65,5.7 0,0.58 -0.22,1.61 0.55,1.57 0.93,-0.08 0.33,-2.19 0.55,-3.8z"/>
   <path class="fil4" d="M36.41 84.89c1.47,0.08 2.89,1.61 3.22,2.89 0.16,0.58 0,1.45 0.65,1.49 0.93,0.04 0.11,-1.16 1.31,-2.77 0.49,-0.62 1.42,-1.57 2.56,-1.61l0 7.35c0,0.58 0,0.45 0.27,0.83 0.98,0.12 0.82,-0.54 0.82,-1.4l0 -6.73c0,-0.91 -0.05,-1.28 -1.09,-1.12 -0.6,0.12 -1.15,0.37 -1.64,0.62 -1.58,0.87 -2.02,2.06 -2.24,2.23 -0.27,-0.33 -0.38,-0.58 -0.71,-0.91 -0.71,-0.87 -1.75,-1.65 -3,-1.9 -1.58,-0.33 -1.2,0.78 -1.2,1.98l0 6.61c0,0.54 0.38,0.91 0.87,0.54 0.33,-0.25 0.16,-1.07 0.16,-1.53 0,-2.06 -0.11,-4.54 0,-6.57z"/>
   <path class="fil4" d="M107.49 84.64c2.18,-0.37 4.09,1.49 4.36,3.22 0.38,2.19 -1.47,4.09 -3.22,4.38 -2.18,0.37 -4.15,-1.45 -4.42,-3.18 -0.38,-2.27 1.47,-4.13 3.27,-4.42zm5.46 4.38c0.38,-2.73 -1.96,-5.16 -4.26,-5.45 -2.84,-0.41 -5.24,1.9 -5.56,4.25 -0.38,2.81 1.96,5.2 4.31,5.49 2.13,0.29 3.93,-0.95 4.85,-2.48 0.33,-0.54 0.55,-1.12 0.65,-1.82z"/>
   <path class="fil0" d="M119.17 91.99c1.42,0.21 2.51,-0.12 3.38,-0.79 2.78,-2.4 0.98,-7.27 -3.38,-6.61l0 7.39z"/>
   <path class="fil0" d="M97.02 91.99c6.27,0.78 6.16,-8.22 0,-7.39l0 7.39z"/>
   <path class="fil0" d="M143.6 91.99c1.58,0.12 2.78,-0.08 3.71,-1.2 1.53,-1.78 1.25,-3.96 -0.49,-5.49 -0.82,-0.66 -1.91,-0.83 -3.22,-0.7l0 7.39z"/>
   <path class="fil4" d="M97.02 91.99l0 -7.39c6.16,-0.83 6.27,8.18 0,7.39zm-0.71 -8.43c-0.55,0.25 -0.38,0.66 -0.38,1.69l0 6.11c0,1.74 -0.33,1.82 2.4,1.74 1.26,-0.08 2.24,-0.66 2.89,-1.24 2.35,-2.11 2.02,-6.48 -1.26,-7.97 -0.65,-0.29 -2.95,-0.62 -3.65,-0.33z"/>
   <path class="fil4" d="M143.6 84.6c1.31,-0.12 2.4,0.04 3.22,0.7 1.75,1.53 2.02,3.72 0.49,5.49 -0.93,1.12 -2.13,1.32 -3.71,1.2l0 -7.39zm5.67 4.54c0.49,-2.56 -1.15,-4.58 -2.78,-5.29 -0.65,-0.29 -3.06,-0.58 -3.71,-0.25 -0.38,0.21 -0.22,1.2 -0.22,1.73l0 6.19c0,1.45 -0.44,1.74 2.51,1.53 2.18,-0.12 3.87,-1.9 4.2,-3.92z"/>
   <path class="fil4" d="M119.17 91.99l0 -7.39c4.36,-0.66 6.16,4.21 3.38,6.61 -0.87,0.66 -1.96,0.99 -3.38,0.79zm-0.71 -8.43c-0.49,0.25 -0.33,0.7 -0.33,1.69l0 6.11c0,1.74 -0.38,1.82 2.35,1.74 1.8,-0.08 3,-1.07 3.82,-2.4 0.87,-1.49 0.82,-3.51 0,-4.87 -0.49,-0.74 -1.25,-1.53 -2.13,-1.94 -0.71,-0.29 -3,-0.62 -3.71,-0.33z"/>
   <path class="fil4" d="M55.34 89.47c0.11,-0.62 0.11,-4.17 0.05,-5.12 0,-0.62 -0.55,-0.83 -0.87,-0.5 -0.49,0.5 0.22,4.87 -0.49,6.4 -0.65,1.4 -2.51,2.6 -4.58,1.78 -0.87,-0.33 -1.42,-0.95 -1.8,-1.65 -0.82,-1.45 -0.16,-5.41 -0.49,-6.32 -0.11,-0.45 -0.93,-0.45 -1.04,0.08 -0.05,0.33 0,1.32 0,1.69 0,2.48 -0.33,4.05 1.09,5.82 2.51,3.18 7.58,1.65 8.13,-2.19z"/>
   <path class="fil4" d="M136.84 84.68c2.02,-0.21 3.55,1.2 3.87,2.81 0.27,1.12 0,3.72 0.11,5.04 0.05,0.66 0.71,0.74 0.98,0.37 0.16,-0.29 0.05,-2.81 0.05,-3.35 0,-1.12 0.11,-2.06 -0.27,-3.01 -1.42,-3.55 -6.22,-4.01 -8.35,-0.66 -0.93,1.49 -0.6,4.25 -0.65,6.19 0,0.54 0.05,1.28 0.76,0.99 0.44,-0.17 0.33,-0.87 0.33,-1.4 0,-1.12 -0.05,-2.23 0,-3.35 0,-1.49 0.76,-2.6 1.86,-3.22 0.38,-0.21 0.82,-0.33 1.31,-0.41z"/>
   <path class="fil4" d="M126.69 87.86c0.22,-1.36 1.2,-2.4 2.24,-2.85 1.58,-0.7 3,0.17 3.05,-0.78 0.05,-0.5 -0.27,-0.58 -0.71,-0.58 -1.85,0 -3,0.21 -4.25,1.36 -3.11,2.97 -0.98,8.22 3.49,8.22 0.49,0 1.2,0.08 1.42,-0.25 0.22,-0.37 0,-0.74 -0.38,-0.83 -0.82,-0.17 -1.47,0.17 -2.4,-0.21 -1.15,-0.45 -2.24,-1.53 -2.45,-2.97 1.04,0 2.07,0 3.11,0 1.2,0 2.45,0.21 2.35,-0.58 0,-0.54 -0.44,-0.5 -0.98,-0.5 -1.04,0 -3.76,0.04 -4.47,-0.04z"/>
   <path class="fil4" d="M151.02 87.9c0.22,-1.4 1.25,-2.48 2.29,-2.89 0.82,-0.33 1.42,-0.29 2.35,-0.29 0.44,0 0.76,-0.12 0.71,-0.62 -0.11,-0.45 -0.38,-0.45 -0.87,-0.45 -2.02,0 -2.73,0.25 -3.98,1.24 -1.53,1.24 -2.07,3.68 -1.09,5.62 0.98,2.02 2.67,2.77 5.07,2.73 0.44,0 0.82,-0.08 0.82,-0.54 0.05,-0.41 -0.27,-0.54 -0.65,-0.54 -0.93,-0.04 -1.53,0.04 -2.35,-0.29 -1.04,-0.41 -2.13,-1.57 -2.29,-2.89 1.09,-0.04 3.27,0 4.58,0 0.49,0 0.93,0 0.93,-0.54 0,-0.58 -0.49,-0.54 -1.04,-0.54l-4.47 0z"/>
   <path class="fil4" d="M83.27 87.9c0.22,-1.4 1.26,-2.48 2.35,-2.89 0.82,-0.33 1.36,-0.29 2.29,-0.29 0.44,0 0.76,-0.12 0.71,-0.62 -0.05,-0.41 -0.38,-0.45 -0.82,-0.45 -2.02,0 -2.78,0.25 -3.98,1.24 -1.58,1.32 -2.07,3.76 -1.15,5.62 1.04,2.02 2.73,2.77 5.13,2.73 0.44,0 0.76,-0.04 0.82,-0.54 0.05,-0.99 -1.53,-0.21 -3,-0.83 -1.04,-0.41 -2.13,-1.53 -2.29,-2.89 1.04,0 2.07,0 3.11,0 1.15,0 2.4,0.21 2.35,-0.58 0,-0.54 -0.49,-0.5 -0.98,-0.5 -1.31,0 -3.38,0.04 -4.53,0z"/>
   <path class="fil0" d="M72.31 88.23c-0.05,-2.02 -1.53,-3.55 -3.55,-3.55 -2.02,0 -3.55,1.53 -3.6,3.55l7.15 0z"/>
   <path class="fil4" d="M72.52 83.85c-0.27,0.91 0.98,0.7 1.64,0.7 0.82,0 1.64,0 2.45,0l0 6.81c0,0.66 -0.16,1.74 0.55,1.74 0.76,-0.04 0.55,-1.16 0.55,-1.78l0 -6.73c0.76,-0.17 3.33,0.04 3.71,-0.08 0.33,-0.08 0.44,-0.41 0.33,-0.7 -0.22,-0.54 -1.53,-0.33 -2.18,-0.33l-4.91 0c-0.65,0 -1.96,-0.21 -2.13,0.37z"/>
   <path class="fil4" d="M57.09 85.51c0,-0.58 0.22,-1.73 -0.27,-1.94 -0.82,-0.37 -0.76,0.7 -0.76,1.28l0 6.53c0,0.58 -0.22,1.61 0.44,1.74l6.49 0c1.31,0 0.93,-0.87 0.6,-1.03 -0.27,-0.08 -5.84,-0.04 -6.49,-0.04l0 -6.53z"/>
   <path class="fil1" d="M79.07 103.06c-0.87,0.17 -1.69,1.03 -1.58,2.06 0.11,0.87 1.04,1.73 2.13,1.57 0.82,-0.17 1.69,-1.03 1.53,-2.06 -0.11,-0.87 -1.09,-1.73 -2.07,-1.57z"/>
   <path class="fil1" d="M106.18 103.1c-2.56,0.54 -1.47,4.13 0.71,3.55 0.82,-0.21 1.64,-1.12 1.42,-2.19 -0.22,-0.74 -1.09,-1.61 -2.13,-1.36z"/>
   <path class="fil1" d="M88.56 103.1c-0.82,0.17 -1.75,1.07 -1.47,2.15 0.16,0.78 1.09,1.69 2.18,1.4 0.27,-0.04 0.44,-0.17 0.65,-0.29 1.75,-1.32 0.27,-3.63 -1.36,-3.26z"/>
   <path class="fil0" d="M94.07 105.25c0.22,-0.66 0,-0.78 0.49,-1.4 0.22,-0.29 0.6,-0.58 1.15,-0.66 0,0.78 -0.11,3.39 0.05,3.88l0.38 -0.04c0.11,-0.33 0.11,-3.88 0,-4.3 -0.98,-0.21 -1.96,0.7 -2.24,1.32 0,-0.04 -0.05,-0.04 -0.05,-0.04 0,0 -0.05,-0.04 -0.05,-0.04l-0.05 -0.08c-0.22,-0.25 -0.33,-0.5 -0.76,-0.79 -0.33,-0.21 -1.2,-0.7 -1.42,-0.21 -0.11,0.17 -0.05,2.93 -0.05,3.3 0,0.45 -0.11,0.74 0.27,0.87 0.33,-0.12 0.27,-0.29 0.27,-0.74l0 -3.14c0.6,0.12 0.98,0.45 1.25,0.87 0.55,0.83 0.05,1.28 0.76,1.2z"/>
   <path class="fil0" d="M116 104.79c-0.05,-2.23 3.33,-2.27 3.33,0l-3.33 0zm3.82 2.27c0.11,-0.45 0.05,-1.4 0.05,-1.94 0,-2.4 -2.02,-2.93 -3.16,-2.31 -1.04,0.54 -1.26,1.28 -1.26,2.77 0,0.29 -0.16,1.82 0.38,1.45 0.22,-0.17 0.11,-1.36 0.16,-1.73l3.38 0c0,0.5 -0.11,1.36 0.05,1.78l0.38 0z"/>
   <path class="fil0" d="M97.89 104.79c0,-0.95 0.71,-1.69 1.69,-1.69 0.93,0 1.69,0.74 1.69,1.69l-3.38 0zm-0.05 2.23c0.11,-0.33 0.05,-1.24 0.05,-1.73l3.38 0c0,0.41 0,0.78 0,1.2 0,0.45 0,0.62 0.44,0.58 0.16,-0.5 0.11,-2.68 -0.11,-3.18 -0.71,-1.69 -3.33,-1.78 -4.04,0.08 -0.22,0.5 -0.27,2.6 -0.11,3.1l0.38 -0.04z"/>
   <path class="fil0" d="M61.89 104.79c-0.05,-0.99 0.71,-1.69 1.69,-1.69 0.93,0 1.64,0.74 1.64,1.69l-3.33 0zm3.76 2.23c0.11,-0.33 0.05,-1.4 0.05,-1.9 0.05,-2.35 -1.85,-2.93 -3.16,-2.31 -0.98,0.5 -1.2,1.24 -1.2,2.68 0,0.37 -0.16,1.69 0.33,1.57 0.27,-0.08 0.16,-1.45 0.16,-1.78l3.38 0c0,0.54 -0.05,1.32 0.05,1.78l0.38 -0.04z"/>
   <path class="fil0" d="M130.51 104.79c0,-0.95 0.76,-1.69 1.69,-1.69 0.98,0 1.69,0.74 1.69,1.69l-3.38 0zm3.82 2.23c0.11,-0.41 0.05,-1.36 0.05,-1.9 0,-2.35 -1.96,-2.93 -3.16,-2.31 -1.04,0.54 -1.2,1.28 -1.2,2.77 0,0.25 -0.16,1.86 0.33,1.45 0.27,-0.17 0.16,-1.36 0.16,-1.73l3.38 0c0,0.5 -0.05,1.36 0.05,1.78l0.38 -0.04z"/>
   <path class="fil0" d="M106.18 103.1c1.04,-0.25 1.91,0.62 2.13,1.36 0.22,1.07 -0.6,1.98 -1.42,2.19 -2.18,0.58 -3.27,-3.01 -0.71,-3.55zm2.62 2.27c0.33,-1.36 -0.76,-2.52 -1.8,-2.77 -1.31,-0.33 -2.51,0.74 -2.78,1.74 -0.33,1.4 0.76,2.56 1.75,2.81 1.42,0.33 2.56,-0.74 2.84,-1.78z"/>
   <path class="fil0" d="M79.07 103.06c0.98,-0.17 1.96,0.7 2.07,1.57 0.16,1.03 -0.71,1.9 -1.53,2.06 -1.09,0.17 -2.02,-0.7 -2.13,-1.57 -0.11,-1.03 0.71,-1.9 1.58,-2.06zm2.56 2.23c0.27,-1.32 -0.87,-2.52 -1.91,-2.73 -1.31,-0.25 -2.46,0.83 -2.67,1.86 -0.33,1.36 0.76,2.52 1.8,2.73 1.42,0.33 2.56,-0.78 2.78,-1.86z"/>
   <path class="fil0" d="M88.56 103.1c1.64,-0.37 3.11,1.94 1.36,3.26 -0.22,0.12 -0.38,0.25 -0.65,0.29 -1.09,0.29 -2.02,-0.62 -2.18,-1.4 -0.27,-1.07 0.65,-1.98 1.47,-2.15zm2.62 2.19c0.27,-1.32 -0.82,-2.48 -1.85,-2.68 -1.31,-0.29 -2.51,0.79 -2.73,1.78 -0.33,1.4 0.82,2.56 1.8,2.77 1.42,0.29 2.56,-0.78 2.78,-1.86z"/>
   <path class="fil4" d="M152.06 82.62c0.49,-0.04 0.98,-0.66 1.25,-0.91 0.38,-0.33 0.87,-0.66 1.2,-1.03 0.6,0.33 1.85,1.82 2.07,1.98 0.44,0.21 0.82,-0.12 0.6,-0.45 -0.16,-0.37 -2.4,-2.81 -2.62,-2.93 -0.38,0.12 -1.2,1.24 -1.53,1.57 -0.33,0.33 -0.49,0.5 -0.76,0.78 -0.38,0.41 -0.65,0.41 -0.22,0.99z"/>
   <path class="fil4" d="M84.36 82.62c0.38,-0.04 1.36,-1.03 1.85,-1.45 0.22,-0.21 0.33,-0.25 0.55,-0.5 0.27,0.12 1.2,1.03 1.47,1.28 0.22,0.29 0.33,0.5 0.65,0.7 0.38,0.21 0.76,-0.08 0.6,-0.45 -0.11,-0.21 -0.49,-0.54 -0.65,-0.74 -0.33,-0.45 -1.64,-1.98 -1.96,-2.19 -0.44,0.12 -1.2,1.2 -1.58,1.57 -0.33,0.29 -0.44,0.5 -0.71,0.78 -0.38,0.41 -0.71,0.41 -0.22,0.99z"/>
   <path class="fil0" d="M74.65 103.06c0.82,0 1.53,0.25 1.53,1.12 0,0.83 -0.71,1.16 -1.53,1.12l0 -2.23zm1.31 2.4c1.47,-1.03 0.71,-2.85 -1.26,-2.93 -0.71,0 -0.55,0.21 -0.55,0.87l0 2.81c0,0.5 -0.16,1.03 0.44,0.87l0.11 -1.24c0.44,-0.08 0.98,-0.08 1.26,0.17 0.38,0.33 0.22,0.7 0.44,1.12 0.33,0 0.38,-0.04 0.44,-0.37 0,-0.74 -0.38,-1.03 -0.87,-1.28z"/>
   <path class="fil0" d="M109.73 103.06c0.87,0 1.53,0.25 1.53,1.12 0,0.83 -0.65,1.12 -1.53,1.12l0 -2.23zm1.31 2.4c1.42,-0.99 0.76,-2.73 -1.04,-2.89 -0.6,-0.08 -0.76,-0.08 -0.76,0.54l0 2.68c0,0.29 -0.11,1.03 0.11,1.24 0.55,0.41 0.33,-0.87 0.44,-1.2 2.18,-0.37 1.15,1.36 2.02,1.28 0.16,-0.33 0.11,-0.78 -0.11,-1.12 -0.22,-0.37 -0.27,-0.33 -0.65,-0.54z"/>
   <path class="fil0" d="M121.57 107.07c0.22,-0.74 -0.16,-2.23 0.22,-3.02 0.27,-0.62 1.15,-1.2 2.13,-0.87 1.64,0.62 0.93,2.73 1.09,3.63 0.05,0.25 0.27,0.37 0.44,0.21 0.16,-0.17 0.27,-2.64 -0.27,-3.47 -0.38,-0.54 -1.09,-1.12 -2.24,-0.95 -0.82,0.12 -1.47,0.79 -1.69,1.49 -0.16,0.41 -0.16,2.52 -0.05,2.97l0.38 0z"/>
   <path class="fil0" d="M82.4 107.07c0.22,-0.74 -0.16,-2.19 0.22,-2.97 0.27,-0.66 1.04,-1.24 2.07,-0.91 1.69,0.5 0.98,2.73 1.15,3.63 0.05,0.21 0.49,0.7 0.49,-0.5 0,-1.07 0.16,-1.98 -0.38,-2.77 -1.09,-1.57 -3.33,-1.16 -3.87,0.58 -0.16,0.41 -0.16,2.52 -0.05,2.93l0.38 0z"/>
   <path class="fil0" d="M66.63 104.55c0,-0.62 0.44,-0.99 0.82,-1.24 0.6,-0.37 1.25,-0.12 1.64,-0.37l0 -0.29c-0.6,-0.33 -3.11,-0.04 -3,2.44l2.45 0c-0.11,0.62 -0.49,1.12 -0.93,1.36 -0.65,0.33 -1.75,-0.04 -1.53,0.58 0.33,0.41 3,0.17 3,-2.48l-2.45 0z"/>
   <path class="fil5" d="M118.51 75.6l0 0.04c0.82,0.12 13.47,0.04 14.67,0.04 1.58,0 14.24,0.08 14.62,-0.04 0.11,-0.91 0.05,-7.02 0.05,-8.47 0,-0.99 0.11,-8.14 -0.11,-8.38l0 16.81 -29.24 0z"/>
   <path class="fil0" d="M114.69 106.65c-2.18,0 -2.73,-2.23 -1.2,-3.26 0.65,-0.45 1.09,-0.12 1.69,-0.37l-0.05 -0.33c-0.11,-0.04 -0.22,-0.08 -0.38,-0.08 -3.66,0 -3.44,4.92 0.44,4.54 0.05,-0.41 0,-0.95 0,-1.36 0,-0.95 0.11,-1.03 -0.38,-0.99 -0.22,0.41 -0.11,1.28 -0.11,1.86z"/>
   <path class="fil0" d="M60.03 107.11l0.98 0 0 -2.19c-0.11,-0.21 0,-0.12 -0.33,-0.12 -0.22,0.41 -0.11,1.28 -0.11,1.86 -1.36,0 -2.24,-0.91 -2.02,-2.06 0.22,-1.69 2.18,-1.4 2.45,-1.57l0 -0.33c-0.55,-0.25 -1.53,0 -1.96,0.33 -2.02,1.45 -0.65,4.05 0.98,4.09z"/>
   <path class="fil1" d="M97.89 104.79l3.38 0c0,-0.95 -0.76,-1.69 -1.69,-1.69 -0.98,0 -1.69,0.74 -1.69,1.69z"/>
   <path class="fil1" d="M130.51 104.79l3.38 0c0,-0.95 -0.71,-1.69 -1.69,-1.69 -0.93,0 -1.69,0.74 -1.69,1.69z"/>
   <path class="fil1" d="M116 104.79l3.33 0c0,-2.27 -3.38,-2.23 -3.33,0z"/>
   <path class="fil1" d="M61.89 104.79l3.33 0c0,-0.95 -0.71,-1.69 -1.64,-1.69 -0.98,0 -1.75,0.7 -1.69,1.69z"/>
   <path class="fil5" d="M73.89 75.64l0 -0.04 -29.24 0 0 -16.69c-0.11,0.17 -0.16,15.61 -0.05,16.73 0.44,0.12 22.64,0.04 25.58,0.04 1.09,0 2.67,0.08 3.71,-0.04z"/>
   <path class="fil0" d="M71.87 103.06c0.6,-0.04 1.36,0.08 1.91,-0.08l0 -0.37c-0.38,-0.12 -3.98,-0.12 -4.36,0l0.05 0.37c0.38,0.12 1.36,0.08 1.91,0.08 0,0.74 -0.11,3.51 0.05,4.01l0.38 0c0.16,-0.5 0.05,-3.26 0.05,-4.01z"/>
   <path class="fil0" d="M129.69 107.07c0,-0.58 -0.27,-0.41 -0.76,-0.41 -1.64,-0.08 -2.46,-2.02 -1.04,-3.18 0.71,-0.58 1.15,-0.21 1.8,-0.45l0 -0.33c-0.11,-0.04 -0.27,-0.08 -0.44,-0.08 -2.89,0 -3.27,3.02 -1.58,4.13 0.44,0.29 1.42,0.62 2.02,0.33z"/>
   <path class="fil1" d="M109.73 105.29c0.87,0 1.53,-0.29 1.53,-1.12 0,-0.87 -0.65,-1.12 -1.53,-1.12l0 2.23z"/>
   <path class="fil1" d="M74.65 105.29c0.82,0.04 1.53,-0.29 1.53,-1.12 0,-0.87 -0.71,-1.12 -1.53,-1.12l0 2.23z"/>
   <path class="fil0" d="M96.64 106.61c0,0.66 0.55,0.74 0.55,-0.21l0 -3.22c0,-0.91 -0.55,-0.78 -0.55,-0.17l0 3.59z"/>
   <path class="fil0" d="M126.04 102.61c-0.11,0.41 -0.11,4.09 0,4.46l0.38 0c0.11,-0.41 0.05,-2.97 0.05,-3.76 0,-0.5 0.11,-0.87 -0.44,-0.7z"/>
   <path class="fil6" d="M87.36 114.46l0.71 0.08c0.11,0.25 0.22,0.54 0.16,0.95 -0.11,0.41 -0.44,0.37 -0.87,0.33l0 -1.36zm-0.44 1.69l0.27 0.04 0.38 0c0.82,0 1.25,-0.41 1.09,-1.32 -0.16,-0.83 -0.82,-0.83 -1.75,-0.74l0 2.02z"/>
   <path class="fil6" d="M93.25 114.5c0.65,-0.12 0.93,0.04 0.87,0.66 0,0.62 -0.22,0.74 -0.87,0.62l0 -1.28zm-0.38 1.65l0.22 0.04 0.38 0c0.87,0 1.25,-0.41 1.09,-1.32 -0.16,-0.78 -0.82,-0.87 -1.69,-0.7l0 1.98z"/>
   <path class="fil6" d="M89 116.19l1.58 0 0 -0.37 -1.15 0 0.05 -0.54c0.33,0 0.71,0.04 0.98,-0.08l0 -0.25 -1.04 -0.04 0 -0.45c1.26,0 1.09,0.12 1.09,-0.33l-1.53 0 0 2.06z"/>
   <path class="fil6" d="M92.05 115.53c0,0.29 -0.22,0.45 -0.55,0.29 -0.44,-0.17 -0.05,-0.5 -0.65,-0.29 0.05,0.87 1.25,0.83 1.53,0.41 0.65,-0.91 -0.76,-0.95 -1.09,-1.28 0.05,-0.21 0.22,-0.33 0.49,-0.21 0.49,0.21 -0.16,0.29 0.65,0.25 -0.16,-0.99 -1.31,-0.58 -1.42,-0.37 -0.38,0.58 0.22,0.87 0.65,0.95 0.27,0.08 0.27,0.08 0.38,0.25z"/>
   <path class="fil0" d="M95.33 115.29c0.27,-0.12 0.71,-0.04 1.04,-0.04l0 -0.29c-0.27,0 -0.76,0.08 -0.98,-0.08l-0.05 -0.41 1.15 0 0 -0.33 -1.53 0 0 2.06 1.53 0 0 -0.37 -1.15 0 0 -0.54z"/>
   <path class="fil6" d="M104.65 115.86c-0.11,-0.17 -0.38,-1.28 0.16,-1.4 0.22,0.12 0.22,0.17 0.22,0.78 0,0.45 0,0.58 -0.38,0.62zm-0.11 -1.69c-0.71,0.29 -0.6,2.44 0.49,1.98 0.65,-0.25 0.6,-2.44 -0.49,-1.98z"/>
   <path class="fil6" d="M101.44 114.46c0.44,0 0.38,0.12 0.38,0.58 0.05,0.37 0,0.58 -0.11,0.83 -0.38,-0.04 -0.38,-0.12 -0.38,-0.54 0,-0.33 0,-0.62 0.11,-0.87zm-0.11 -0.29c-0.44,0.25 -0.44,0.74 -0.38,1.28 0.05,0.5 0.33,0.95 0.87,0.7 0.71,-0.29 0.55,-2.52 -0.49,-1.98z"/>
   <path class="fil0" d="M99.36 114.71c0.55,0.08 0.22,0.04 0.38,-0.12 0.22,-0.17 0.11,-0.17 0.44,-0.08 0.27,0.7 -0.76,0.79 -0.93,1.69l1.42 0c0,-0.41 0.16,-0.37 -0.76,-0.37 0.33,-0.45 0.93,-0.74 0.71,-1.36 -0.22,-0.54 -1.36,-0.5 -1.26,0.25z"/>
   <path class="fil0" d="M102.53 114.71c0.71,0.08 0.22,-0.21 0.65,-0.25 0.16,-0.04 0.16,0.04 0.22,0.08 0.22,0.54 -0.71,0.74 -0.93,1.61l1.36 0.04c0,-0.5 0.05,-0.37 -0.27,-0.37 -0.11,-0.04 -0.33,0 -0.49,0 0.22,-0.33 0.98,-0.74 0.71,-1.36 -0.22,-0.54 -1.31,-0.45 -1.26,0.25z"/>
   <path class="fil0" d="M116.49 102.11c0.33,-0.04 0.76,-0.58 1.2,-0.91 0.22,0.12 0.38,0.33 0.6,0.54 0.16,0.17 0.33,0.5 0.6,0.37 0.05,-0.04 0.16,-0.08 -0.16,-0.41l-0.98 -1.16c-0.33,0.17 -0.55,0.45 -0.76,0.7 -0.16,0.21 -0.16,0.21 -0.38,0.37 -0.16,0.17 -0.22,0.25 -0.11,0.5z"/>
   <path class="fil4" d="M87.36 115.82c0.44,0.04 0.76,0.08 0.87,-0.33 0.05,-0.41 -0.05,-0.7 -0.16,-0.95l-0.71 -0.08 0 1.36z"/>
   <path class="fil4" d="M93.25 115.78c0.65,0.12 0.87,0 0.87,-0.62 0.05,-0.62 -0.22,-0.78 -0.87,-0.66l0 1.28z"/>
   <path class="fil4" d="M104.65 115.86c0.38,-0.04 0.38,-0.17 0.38,-0.62 0,-0.62 0,-0.66 -0.22,-0.78 -0.55,0.12 -0.27,1.24 -0.16,1.4z"/>
   <path class="fil4" d="M101.44 114.46c-0.11,0.25 -0.11,0.54 -0.11,0.87 0,0.41 0,0.5 0.38,0.54 0.11,-0.25 0.16,-0.45 0.11,-0.83 0,-0.45 0.05,-0.58 -0.38,-0.58z"/>
   <path class="fil7" d="M60.03 107.11c0.22,0.12 0.71,0.12 1.04,0.04 0.05,-0.37 0.05,-0.78 0.05,-1.16 0,-0.29 0.05,-0.91 -0.11,-1.07l0 2.19 -0.98 0z"/>
   <polygon class="fil0" points="97.62,115.62 98.38,115.62 98.38,115.24 97.62,115.24 "/>
   <path class="fil8" d="M95.33 115.29l1.04 0 0.05 -0.37 -1.04 -0.04c0.22,0.17 0.71,0.08 0.98,0.08l0 0.29c-0.33,0 -0.76,-0.08 -1.04,0.04z"/>
  </g>
 </g>
</svg>
