<?xml version="1.0" encoding="UTF-8"?>
<!DOCTYPE svg PUBLIC "-//W3C//DTD SVG 1.1//EN" "http://www.w3.org/Graphics/SVG/1.1/DTD/svg11.dtd">
<!-- Creator: CorelDRAW -->
<svg xmlns="http://www.w3.org/2000/svg" xml:space="preserve" width="33.0879mm" height="21.7193mm" version="1.1" style="shape-rendering:geometricPrecision; text-rendering:geometricPrecision; image-rendering:optimizeQuality; fill-rule:evenodd; clip-rule:evenodd"
viewBox="0 0 387.98 254.67"
 xmlns:xlink="http://www.w3.org/1999/xlink"
 xmlns:xodm="http://www.corel.com/coreldraw/odm/2003">
 <defs>
  <style type="text/css">
   <![CDATA[
    .fil15 {fill:#050505}
    .fil17 {fill:#2D308E}
    .fil7 {fill:#323275}
    .fil19 {fill:#33327C}
    .fil11 {fill:#333385}
    .fil12 {fill:#3A3A71}
    .fil49 {fill:#3C3A5E}
    .fil14 {fill:#3E3B80}
    .fil50 {fill:#3F3E3F}
    .fil46 {fill:#4B4B66}
    .fil33 {fill:#4D4C7F}
    .fil47 {fill:#595657}
    .fil45 {fill:#646083}
    .fil44 {fill:#737374}
    .fil41 {fill:#797A9D}
    .fil5 {fill:#888888}
    .fil48 {fill:#8F8E8F}
    .fil42 {fill:#999AB5}
    .fil0 {fill:#9D7084}
    .fil28 {fill:#C01416}
    .fil32 {fill:#C01D1F}
    .fil8 {fill:#C13D3E}
    .fil29 {fill:#C5100D}
    .fil25 {fill:#C70E0F}
    .fil10 {fill:#C7191D}
    .fil30 {fill:#C9272B}
    .fil43 {fill:#CD7475}
    .fil23 {fill:#CE1316}
    .fil21 {fill:#CF1B20}
    .fil35 {fill:#D16767}
    .fil13 {fill:#D51218}
    .fil3 {fill:#D68284}
    .fil40 {fill:#D79190}
    .fil34 {fill:#D90F13}
    .fil31 {fill:#E51D23}
    .fil4 {fill:#E58483}
    .fil9 {fill:#E7090A}
    .fil38 {fill:#E87475}
    .fil36 {fill:#EA090D}
    .fil22 {fill:#EF080B}
    .fil18 {fill:#F10503}
    .fil2 {fill:#F1A09E}
    .fil39 {fill:#F3B0AD}
    .fil24 {fill:#F40403}
    .fil20 {fill:#F70302}
    .fil26 {fill:#F90202}
    .fil1 {fill:#F9B7B5}
    .fil16 {fill:#FB0201}
    .fil27 {fill:#FE0001}
    .fil6 {fill:#FFE2DB}
    .fil37 {fill:#FFEAE2}
   ]]>
  </style>
 </defs>
 <g id="Camada_x0020_1">
  <metadata id="CorelCorpID_0Corel-Layer"/>
  <g id="_2970599659488">
   <path class="fil0" d="M308.63 186.15l0.13 -0.58c-2.14,0.15 -1.03,-0.01 -1.53,0.57 0.95,1.68 0.56,1.2 1.4,0.01z"/>
   <path class="fil0" d="M312.67 185.08c0.92,-0.82 0.8,1.63 0.52,-0.55 -0.16,-1.22 0.18,-0.17 -0.52,-0.89 -0.46,0.93 -0.95,0.24 0,1.44z"/>
   <path class="fil1" d="M302.08 179.8c0.56,1.48 -0.07,1.08 1.88,1.53l0.43 -2.33 -2.31 0.79z"/>
   <path class="fil1" d="M314.01 176.79l-0.07 -0.71c-0.39,-0.62 -0.47,-0.74 -0.78,-1.17l0.56 0.41c-0,0.15 -1.03,-0.06 -1.83,1.28 1.08,0.67 1.25,0.55 2.12,0.19z"/>
   <path class="fil2" d="M257.45 212.87c0.52,0.63 0.07,0.41 1.11,0.61 1.6,0.31 3.18,-0.29 4.26,-0.98 -0.58,-1.06 0.28,-0.15 -1.06,-0.66l-4.31 1.03z"/>
   <path class="fil2" d="M245.92 227.1c0.74,-1.06 0.87,-0.95 0.91,-2.71 2.94,-0.99 1.71,-0.02 2.89,-1.54 -1.75,0.44 -2.43,0.14 -3.5,1.15l-0.3 3.11z"/>
   <path class="fil3" d="M335.65 213.65l0.97 0.09 -0.12 3.97 0.47 -0.86c1.02,-3.42 -0.68,-3.2 2.32,-4.58 2.08,-0.96 1.06,-0.14 2.2,-1.53l-3.46 1.33 -0.62 -1.36c-0.06,0.13 -0.11,0.31 -0.15,0.41l-1.33 2.25c-0.04,-0.08 -0.19,0.18 -0.28,0.28z"/>
   <path class="fil3" d="M135.67 42.19l-1.14 -1.81c-0.36,-0.41 -0.56,-0.55 -0.97,-0.95l-6.22 -5.89c0.89,1.92 1.96,2.61 3.78,4.44 1.24,1.25 2.95,3.13 4.55,4.21z"/>
   <path class="fil3" d="M187.14 99.9c-0.86,-1.41 -0.02,-0.69 -1.63,-1.13 0.92,1.54 -0.11,0.68 1.63,1.13z"/>
   <path class="fil4" d="M8.33 82.71c2.22,-0.91 7.55,-6.56 8.8,-8.24l-1.03 -0.3c-0.58,1.1 0.18,0.08 -0.87,1.34 -0.28,0.34 -0.61,0.6 -0.97,0.96 -1.76,1.76 -4.99,4.6 -5.93,6.24z"/>
   <path class="fil4" d="M22.2 68.06c-0.22,0.49 -0.02,0.19 -0.45,0.86 -0.01,0.02 -0.6,0.82 -0.73,1.02 1.74,-0.87 3.41,-2.81 4.91,-4.23 1.51,-1.42 3.46,-3.03 4.33,-4.85 -3.39,2.25 -4.69,5.54 -8.06,7.21z"/>
   <path class="fil4" d="M31.8 59.31c1.53,-0.72 1.02,-0.38 2.23,-1.59 1.2,-1.21 0.87,-0.7 1.59,-2.23l-3.82 3.82z"/>
   <path class="fil4" d="M254.11 215.22c0.76,-0.55 1.45,-0.93 1.34,-1.77l-1.28 -0.14 -0.07 1.91z"/>
   <path class="fil5" d="M302.48 160.98c0.07,-1.58 -0.15,-0.74 0.56,-0.97 -1.11,-2.38 -3.66,-2.38 -0.8,-5.41l0.57 -0.66c-1.37,-0.66 -0.59,0.64 -0.56,-2.18 -1,0.93 -0.57,0.9 -1.3,2.28 -0.49,0.92 -0.81,1.15 -0.84,2.38 -0.06,2.33 1.13,3.18 2.37,4.57z"/>
   <path class="fil5" d="M323.88 188.18c0.72,-1.14 0.54,1.76 0.36,-0.67 -0.07,-0.92 0,-0.41 -0.36,-1.03 -1.17,0.75 -1.84,0.75 0,1.7z"/>
   <path class="fil6" d="M367.49 216.42c0.44,0.99 0.86,1.02 2.14,1.69 0.11,0.06 0.3,0.12 0.43,0.21 -1.78,1.98 -1.4,-0.15 -2.51,2.59 2.35,-0.58 2.75,-1.04 5.38,-1.52 1.52,-0.28 3.73,-0.51 5.12,-0.99 -0.61,-4.34 -5.67,-1.84 -10.55,-1.98z"/>
   <path class="fil6" d="M353.95 207.34c2.58,-0.46 2.92,-0.6 5.49,0.11 0.8,-0.76 0.61,-0.16 0.28,-1.57 -0.24,-1.01 -0.52,-0.97 -0.73,-1.3l-2.67 -0.22 -1.55 -0.16c0.36,1.16 -0.94,0.95 0.65,0.95 -0.19,1.42 0.42,-0.16 -0.34,0.88l-0.82 0.93c-0.08,0.09 -0.22,0.24 -0.31,0.37z"/>
   <path class="fil7" d="M74.99 65.03c9.26,4.22 8.87,-8.44 1.13,-7.71 -2.85,3.68 -2.17,3.65 -1.13,7.71zm40.57 -1.8c2.28,-5.58 -4.61,-9.03 -6.77,-3.46 -2.24,5.8 4.52,8.95 6.77,3.46zm21.1 26.49c-1.63,2.44 -2.2,5.85 2.22,5.06 1.2,-2.14 2.07,-5.25 -2.22,-5.06zm-81.82 -0.29c-9.2,1.37 2.54,12.38 0,0zm75.17 3.65c6.58,10.5 6.77,9.2 3.36,16 1.05,2.11 2.72,-1.89 0.64,7.19 -0.55,2.4 -1.29,6.04 -1.19,8.58 2.05,-3.72 3.41,-9.81 5.23,-12.55 2.04,4.14 1.84,8.75 4.84,11.93 -0.01,-9.99 -3.76,-11.66 0.29,-15.16 -0.96,-1.99 -2.56,-3.92 -1.94,-6.5 2.14,0.55 2.31,1.68 3.88,6.33 -1.36,-16.44 -6.01,-8.19 -14.15,-16.69 -1.16,-1.22 -0.11,-0.24 -1.32,-0.86l0.34 1.72zm-71.63 29.93c-3.51,-34.02 0.53,-17.46 2.86,-31.49 -4.62,3.64 -1.48,2.81 -10.1,5.74 -3.68,1.25 -5.22,6.82 -5.07,11.26 0.82,-1.85 1.31,-5.47 3.73,-5.79 1.57,2.92 -0.71,15.37 -1.56,20.45l1.07 -0.06 4.47 -11.26c0.86,4.58 2.33,7.21 3.42,11.15l1.2 0.01zm38.63 -36.53c0.13,-0.52 5.16,-8.4 9.3,-7.99 2.69,5.74 0.82,9.93 -1.96,14.49 0.3,0.6 1.37,0.62 1.65,2.41 0.29,1.81 -0.38,13.75 2.55,27.2 1.75,-5.24 1.36,-20.21 2.3,-27.07 0.86,1.94 2.63,8.53 5.27,14.51 1.47,3.32 5.25,9.63 6.42,13.29 0.37,-0.04 0.73,-0.08 1.09,-0.11 -1.41,-5.07 -7.83,-25.16 -7.65,-29.27l3.74 -2.23c-9.94,-15.67 -0.03,-16.27 4.68,-8.24 1.15,1.23 3.13,3.7 3.28,4.91 0.9,0 0.67,-0.22 0.67,0.69l0.39 -0.98c-3.48,-6.56 -6.93,-13.21 -12.02,-17.19 -10.01,-7.83 -18.87,11.9 -21.58,16.55 -1.19,-3.39 -7.58,-14.39 -7.6,-14.43 -6.99,-3.56 -12.67,-9.96 -22.09,8.3 -1.02,1.97 -3.05,5.93 -3.35,8.13 1.19,-2.05 1.33,-2.71 2.98,-3.86 0.36,-2.44 4.85,-7.16 8.12,-7.29 7.82,2.61 -4.71,37.64 -4.71,42.79 -0.2,0.06 -0.06,-0.01 0,0.12 -0.5,0.63 -0.73,0.67 -0.86,1.76 0.48,-0.03 0.94,-0.04 1.4,-0.03l0.26 -2.18c3.17,-2.24 8.79,-19.29 10.38,-24.82 0.28,2.79 1.03,24.08 3.54,25.14 -0.16,-4.66 3.77,-19.14 1.87,-28.55 -0.95,-2.88 -2.33,-11.02 -1.18,-14.23 3.85,-0.61 5.61,1.61 6.93,4.41 2.43,0.74 0.79,3.73 4.31,6.18l1.87 -2.44z"/>
   <path class="fil8" d="M356.33 193.87c1.31,0.32 0.66,-0.2 1.21,0.55 -0.81,1.93 -2.78,5.91 -4.94,6.41l0.32 -3.46c-1.44,1.92 -0.12,3.02 -0.91,5.33 1.7,-0.24 2.07,0.52 2.77,1.5l1.55 0.16c-0.41,-1.28 -1.03,-1.3 -1.14,-2.68 -0.07,-0.91 2.67,-5.59 3.35,-6.38l2.67 0.8c0.85,2.52 0.71,2.32 0.71,5.28 -0.45,0.3 -1.51,1 -2.09,1.6 -0.13,0.14 -0.47,0.65 -0.53,0.77l-0.3 0.82c5.35,-1.14 5.69,-7.58 2.63,-9.86 -0.86,-0.64 -0.72,-0.38 -1.58,-0.83 -1.96,-1.03 -0.89,0.44 -1.46,-1.39 -0.51,0.37 -0.57,0.36 -1.25,0.77 -0.23,0.14 -0.6,0.52 -0.67,0.4 -0.06,-0.1 -0.23,0.13 -0.34,0.2z"/>
   <path class="fil8" d="M299.88 187.07l0.08 1.65 -1.08 -0.22 1.07 1.49c1.72,-2.42 2.25,0.01 2.99,-4.2 -0.93,1.11 -0.83,-1.82 -0.79,1.53 -1.41,-0.48 -0.59,-0.21 -2.27,-0.25z"/>
   <path class="fil9" d="M323.66 236.02c-0.24,-2.82 -0.19,-10.51 0.24,-13.2 0.71,-4.39 2.22,-6.48 7.4,-5.97l-1.29 19.05 -6.35 0.12zm6.61 0.88c0.81,-3.48 1.45,-7.43 1.42,-11.74 -0.06,-7.74 2.58,-10.08 -3.52,-9.02 -0.9,0.15 -2.09,0.43 -2.81,0.81 -3.99,2.12 -3.11,19.13 -2.94,19.83 2.5,0.65 5.24,0.3 7.85,0.12z"/>
   <path class="fil9" d="M300.82 186.22c1.19,-0.5 2.79,-2 3.61,-3.01 -0.44,-0.42 -0.13,-0.34 -0.92,-0.8 -2.84,-1.63 -3.1,0.12 -3.11,0.13 -0.89,1.1 0.08,2.95 0.42,3.68z"/>
   <path class="fil10" d="M8.56 83.19c-2.09,0.99 -3.87,3.33 -5.53,4.99 -1.5,1.5 -4.16,3.17 -2.5,6.31 1.66,1.68 7.86,-2.74 10.32,-4.35l24.3 -14.76c3.64,-2.23 3.27,-1.28 4.32,-3.38 -2.32,0.15 -3.76,1.56 -5.54,2.68l-18.32 10.9c-3.57,2.73 -2.55,1.43 -4.78,2.74 -0.55,0.32 -0.46,0.34 -1.01,0.78l-3.26 2.09c-1.15,0.66 -3.14,2.14 -4.72,1.87 -0.6,-1.74 -0.17,-1.64 0.89,-2.74 1.57,-1.63 4.13,-3.64 5.25,-5.61 0.57,-1 0.27,0.06 0.58,-1.52z"/>
   <path class="fil10" d="M315.89 237.17c-8.74,1.75 -7.94,-0.96 -7.61,-4.71 1.15,-13.15 -1.32,-16.69 7.32,-15.09 2.88,0.53 2.04,2.69 1.72,5.75 -0.51,4.86 -0.55,9.42 -1.43,14.05zm-9.24 -5.48l0.25 0.78 -0.12 4.84c0.21,1.25 0.1,0.66 0.39,1.18 1.78,0.8 7.26,0.62 9.27,-0.15 0.91,-0.99 0.15,0.98 0.91,-1.73 0.19,-0.68 0.23,-1.46 0.28,-2.19l1.01 -13.18 -0.04 -4.86 -10.26 -0.53c-0.31,2.99 -0.07,13.52 -1.69,15.83z"/>
   <path class="fil11" d="M294.72 171.5c0.06,2.16 0.59,6.91 1.08,9.09 0.54,2.37 1.35,5.8 2.98,7.48 -0.98,-6.89 -1.02,-5.61 1.59,-9.31 0.08,-0.12 0.33,-0.51 0.4,-0.62 1.13,-1.66 1.6,-0.13 4.92,-1.98 3.63,-2.03 2.71,-0.38 5.45,-2.26 1.4,-0.96 -0.1,-0.21 1.64,-1.04 0.56,-0.91 -0.47,1.71 0.58,-0.84 0.32,-0.79 0.45,0.36 0.28,-1.14 -0.12,-1.05 1.1,-1.78 -1.71,-1.06 -2.74,1 -3.24,0.51 -5.84,0.16 -0.92,-0.42 -0.44,-0.2 -1.16,-0.55 -0.11,-0.05 -0.35,-0.01 -0.43,-0.21 -0.08,-0.21 -0.3,-0.15 -0.45,-0.23 -3.02,0.71 -6.87,1.24 -8.34,3.98 -0.44,0.81 -0.24,0.02 -0.37,0.62l0.11 -9.14c-0.69,0.7 -0.3,-0.75 -0.64,1.68 -0.06,0.42 -0.06,1.49 -0.06,1.96 -0.01,1.15 0.01,2.27 -0.04,3.42z"/>
   <path class="fil11" d="M302.25 151.75c-0.03,2.82 -0.81,1.52 0.56,2.18l1.38 -2.49c2.92,0.01 6.1,3.5 7.51,0.18 0.96,-0.87 0.07,-0.79 2.84,-1.3 -0.79,-2.6 -0.07,-0.17 -1.46,-2.96 -2.88,-3.55 -10.43,-0.1 -10.82,4.38z"/>
   <path class="fil12" d="M339.29 176.38c0.8,3.28 0.11,2.67 -0.7,4.85 -0.62,1.64 -0.73,3.38 -1.49,4.91 -1.1,-0.4 -0.79,1.01 -2.52,-4.4 -0.72,-2.25 -0.75,-3.2 -2.5,-4.28l2.28 -0.87c1.22,-0.66 3.33,-1.18 4.94,-0.21zm-5.23 -18.02c2.51,6.86 0.34,12.27 -7.73,11.6 -0.86,0.26 -0.14,-0.24 -0.32,0.84 0.75,-0.02 2.56,-0.12 3.26,0.04 1.96,0.42 0.48,-0.06 2.13,1.44 1.65,1.49 2.6,1.1 4.21,2.22 -3.58,1.88 -7.15,1.92 -11.73,1.17l0.21 1.31c7.95,-1.18 8.46,2.37 10.73,8 1.8,4.45 -3.43,8.13 -4.88,8.15 -0.83,0.01 -0.61,-0.46 -1.92,0.01 -1.9,0.7 -1.01,0.71 -1.43,1.39l1.57 1.7c2.08,-0.51 2.4,-1.03 3.84,-1.72l-0.04 -1.66c1.77,-0.52 0.46,-0.06 1.63,-0.98 2.56,-2.04 0.82,-1.15 1.53,-0.04 1.08,-0.77 0.29,-0.02 1.12,-1.11l2.09 -3.83c0.55,-0.75 0.16,-0.34 0.77,-0.81 1.45,-0.93 0.08,-0.4 2.26,-0.44 -0.78,-0.61 -0.55,-0.37 -1.05,-0.72l-1.01 -0.73c1.01,-2.34 2.01,-7.1 2.13,-10.73 0.1,-2.9 0.52,-9.56 -1.17,-11.86 0.47,5.17 0.61,8.93 0.36,14.15 -0.14,-0.06 -0.31,-0.15 -0.41,-0.21 -5.54,-3.1 -8.07,-2.33 -9.31,-5.05l5.97 0.92c-1.84,-3.94 0.21,-6.02 0.81,-9.89 0.48,-3.11 -0.12,-8.18 -3.07,-8.94 0.15,1.91 0.41,2.05 1.08,3.56 0.02,0.05 0.07,0.19 0.09,0.23 0.02,0.04 0.06,0.16 0.08,0.2 0.66,1.3 0.78,0.01 0.74,2.8l-2.25 -2.15 -0.3 1.15z"/>
   <path class="fil13" d="M245.66 222.99c-1.73,3.02 -0.99,7.31 -1.64,10.78 -0.62,3.37 -0.87,7.72 -0.89,11.09 -1.49,0.33 -1.86,0.8 -3.1,1.04 -1.25,0.24 -2.58,0.17 -3.85,0.21 -0.92,-12.82 0.58,-10.73 0.88,-20.22l-2.35 -2.21c1.24,-7.09 1.4,-3.63 3.45,-7.12l0.47 -2.06c2.62,-0.32 5.69,-0.03 8.03,1.1 0.09,0.04 0.22,0.1 0.32,0.15l0.98 0.49c1.69,1.24 1.33,3.54 0.91,4.46 -0.93,2.07 -0.03,-0.07 -3.19,2.28zm-9.56 -8.13c0.44,2.28 -0.02,2.7 -2.13,2.41l-1.03 8.35c0.29,0.09 0.49,-0 0.55,0.16 0.35,1 2.06,-1.05 1.7,4.23 -0.14,2.05 -0.36,3.97 -0.49,5.88 -0.23,3.32 -1.08,9.65 -0.49,12.57 2.84,0.03 8.19,-0.96 10.16,-2.34l1.55 -19.02 0.3 -3.11c1.07,-1.01 1.75,-0.71 3.5,-1.15 1.12,-1.68 1.02,-5.58 1.02,-8.04 -5.06,-0.32 -2.6,-0.39 -4.17,-1.07 -2.16,-0.94 -3.4,0.27 -4.93,-1.01l-4.08 -0.43c-0.78,1.16 -0.47,1.52 -1.46,2.57z"/>
   <path class="fil13" d="M337.01 236.4c-0.31,-2.97 0.65,-5.42 0.77,-10.75 0.1,-4.25 0.51,-8.45 1.55,-12.21 2.48,-0.87 5.21,-2.46 7.1,-2.56 -0.08,3.68 -0.73,1.02 -0.65,3.32 0.31,9.61 -0.13,4.86 -0.61,12.49 -0.06,1.03 -0.42,8.09 -0.67,8.71 -0.83,1.99 -1.26,1.44 -3.41,1.09 -2.61,-0.42 -1.75,0.02 -4.09,-0.09zm4.49 -25.67c-1.14,1.39 -0.11,0.57 -2.2,1.53 -3,1.38 -1.31,1.16 -2.32,4.58l-0.47 0.86 -1.56 20.02c2.61,0.61 8.43,1.07 10.88,-0l2.59 -30.93c-2.69,1.05 -4.13,3.1 -6.92,3.94z"/>
   <path class="fil13" d="M260.2 237.14c-1.65,-3.56 0.42,-7.36 4.23,-7.55l-0.71 7.67 -3.51 -0.12zm0.28 -8.07c-0.87,2 -1.79,1.4 -2.2,3.2 -0.25,2.09 -0.76,4.29 0.78,5.48 1.53,1.18 3.99,1.2 5.77,0.08 1.46,-1.43 1.75,-11.43 -2.59,-9.93l-1.77 1.17z"/>
   <path class="fil14" d="M315.77 189.24c1.85,-0.78 0.54,-0.69 1.31,-0.68 1,0.02 1.65,2.25 2.15,3.21 1.45,2.73 2.15,1.34 2.9,3.06 0.16,0.36 0.04,0.23 0.14,0.72l-0.06 0.81c-1.07,1.49 -6.17,-0.61 -7.26,-0.44 -1.92,0.3 -2.44,0.24 -3.53,-0.35l-1.89 -1.46 2.11 -1.45c1.74,-0.32 3.87,-0.98 4.12,-3.41zm0 0l-3.09 1.75c-3.44,1.36 -7.36,0.33 -8.79,-3.07l-2.03 2.02c-0.05,0.05 -0.17,0.36 -0.2,0.29 -0.03,-0.08 -0.13,0.19 -0.18,0.3 3.28,5 10.32,6.03 11.38,7.4l10.23 0.47 0.52 2.57 0.57 0.27 -0.58 -3.48c1.36,-0.13 1.37,-0.1 2.63,-0.47l1.55 -0.7c0.05,-0.03 0.17,-0.15 0.21,-0.17 0.04,-0.03 0.14,-0.11 0.19,-0.18l-1.57 -1.7c-2.54,-0.25 -3.86,-0.83 -5.58,-2.69 -1.33,-1.43 -4.89,-6.43 -1.38,-8.65l-2.77 -0.62c0.47,3.77 -0.86,3.93 -1.1,6.67z"/>
   <path class="fil15" d="M349.43 189.92c0.56,3.55 -0.5,11.5 -0.86,15.1 0.11,1.51 -0.26,0.61 1.13,0.82 -0.15,-0.98 1.62,-2.22 2.31,-3.14 0.79,-2.3 -0.54,-3.41 0.91,-5.33 1.73,-3.58 0.87,-1.96 4.43,-4.11 0.68,-0.41 0.74,-0.41 1.25,-0.77 1.3,-3.83 2.74,-7.75 3.1,-12.21l0.43 0.13c-0.73,-6.46 1.97,-12.01 -1.15,-27.06 -1.61,-7.76 -5.36,-14.62 -9.42,-19.27 -16.07,-18.41 -63.57,-20.39 -75.24,15.27 -2.63,8.03 -3.08,16.25 -2.44,25.59 0.39,5.74 3.33,20.55 6.58,22.42 0.6,1.82 1.56,2.93 2.37,3.99 1.36,1.77 1.87,1.85 2.29,3.29 2.31,1.09 1.92,1.76 3.7,2.81 2.88,1.52 6.16,-0.33 9.69,1.57 3.17,1.16 4.21,-1.08 7.91,-1.82 5.28,-1.06 6.97,0.82 9.45,0.78 1.1,2.06 2.29,1.96 2.41,4.59 1.08,1.22 0.58,1.14 1.13,3.31l2.89 -0.13c0.22,-1.76 -0.11,-3.66 0.9,-4.54 0.08,-4.18 5.66,-5.85 8.61,-3.69 1.62,1.19 0.83,0.59 1.08,1.68 0.74,0.28 0.59,-0.55 0.47,1.11 0.92,0.96 0.58,0.88 0.51,2.65 0.93,0.94 -0.43,0.27 1.73,0.56l0.07 0.13c0.08,-0.1 0.24,-0.36 0.28,-0.28 2.66,-4.51 0.9,-1.4 1.56,-6.28l0.7 -3.35c-0.8,-3.96 0.83,-13.05 0.93,-17.67 -1.76,1.37 -1.9,4.35 -3.98,5.75 -1.19,0.76 -1.63,1.47 -2.29,2.65 3.41,2.23 2.02,7.94 -2.13,9.23 0.12,0.88 -3.83,1.02 -5.38,-0.55 -1.52,-1.54 -0.7,-0.7 -0.78,-1.85l-0.96 -0.34 -0.52 -2.57c-11.42,-0.53 -18.46,0.59 -24.3,-10.33 -1.63,-1.68 -2.44,-5.11 -2.98,-7.48 -0.67,-2.93 -1.42,-11.33 -0.99,-14.47 0.34,-2.44 -0.05,-0.99 0.64,-1.68 -0.55,-19.03 16.45,-31.32 32.62,-23.43 2.28,1.11 2.34,1.87 2.86,2.15 3.07,1.6 4.89,4.47 6.39,7.53 1.41,2.9 2.87,7.43 2.95,10.89 1.69,2.3 1.27,8.95 1.17,11.86 -0.12,3.63 -1.12,8.39 -2.13,10.73l10.12 5.74zm-204.6 -60.85l0 79.5c0.01,6.32 3.41,4.77 12.25,4.82 8.75,0.05 7.49,-0.91 7.48,-9.7 -0.01,-10.24 0.92,-62.75 -0.96,-68.4 -3.1,-9.29 -18.78,-16.66 -18.78,-6.22zm34 -4.22c-1.67,3.92 -0.97,15.33 -0.97,20.31 0,10.45 -0.48,58.29 0.02,64.43 0.36,4.38 2.83,3.82 7,3.79 14.89,-0.09 12.68,3.13 12.68,-19.45 0,-13.83 -0.74,-29.81 0.08,-43.37 3.41,1.85 26.37,51.4 34.34,58.22l3.15 2.57 1.95 0.24c1.54,-2.91 1.9,-5.34 4.68,-6.85 1.47,-2.67 6.79,-3.95 9.75,-3.75 0.81,2.49 0.26,5.92 -0.48,8.33l-2.44 0.42c-0.56,1.01 -0.93,1.51 -0.97,3.22 1.97,0.9 4.24,0.28 6.57,0.35l3.27 -0.44 6.04 -1.8 0.06 -63.96c0,-6.27 0.56,-15.78 -0.34,-21.66 -1.54,-1.02 -1.01,-1.37 -4.16,-1.45 -20.58,-0.5 -16.54,-1.89 -16.54,21.15 0,7.24 0.39,38.4 -0.2,42.89 -3.03,-4.51 -19.57,-35.28 -22.76,-41.05 -6.81,-12.33 -10.38,-22.8 -25.4,-22.97 -4.26,-0.05 -11.99,-0.89 -15.33,0.81zm-133.06 0.97c0.83,4.44 -0.59,81.45 0.28,85.1 0.75,3.13 4.31,2.48 7.63,2.46 2.37,-0.01 8.61,0.43 10.23,-0.45 2.74,-1.49 1.63,-15.79 1.63,-19.97 0,-13.55 -0.76,-29.46 0.09,-42.72 1.68,1.03 24.39,44.46 29.22,52.27 8.04,13.01 16.93,10.77 30.05,10.87 6.37,0.05 6.72,-0.43 6.68,-6.77 -0.05,-9.1 -0.01,-18.21 -0.01,-27.32 0,-17.57 -0.59,-37.27 -0.2,-53.95 -3.2,-1.43 -18.31,-0.89 -19.68,-0.23 -2.45,1.66 -1.17,11.12 -1.17,14.67 0,13 0.65,37.62 -0.06,48.08 -1.04,-0.61 -18.75,-33.23 -21.74,-38.73 -1.57,-2.88 -6.7,-10.9 -6.65,-13.02 -2.09,-1.72 -6.52,-10.37 -12.55,-10.68 -3.28,-0.34 -5.89,-0.82 -9.98,-0.94 -3.57,-0.1 -7.97,0.53 -11.47,-0.35 -1.38,0.75 -0.88,0.86 -2.3,1.66z"/>
   <path class="fil16" d="M33.06 61.47c-0.46,0.04 -0.5,-0.87 -0.34,0.25l-1.84 2.33c-1.21,2.53 -0.03,0.37 -0.04,2.17l-2.51 1.83c-1.08,0.83 -3,0.97 -4.85,3.47 -0.77,1.04 -0.02,-0.01 -0.47,0.77 -0.81,1.39 -0.82,1.42 -2.84,2.27l1.81 2.96c2.74,2.97 5.07,-0.04 6.16,-0.82 2.76,-1.97 3.98,-1.02 4.05,-3.55 0.08,-3.05 0.36,0.89 0.97,-3.52 -2.17,-0.02 -2.81,0.46 -3.41,-0.12 0.95,-0.05 1.54,-0.02 2.46,-0.27 1.4,-0.38 1.71,-1.1 3.33,-0.45l1.58 0.95c0.1,-0.1 0.24,-0.23 0.3,-0.3 0.06,-0.07 0.22,-0.21 0.29,-0.29l0.87 -1.09c0.36,1.1 -0.12,0.53 1.04,0.93 0.08,0.03 0.36,0.15 0.42,0.03 0.07,-0.14 0.31,0.03 0.68,0.04l0.29 -1.45c0.47,-1.84 3.93,-5.42 3.91,-6.82 -0.74,-0.67 -0.59,-1.02 -3.52,-1.07l-0.86 0.09c-0.05,0.16 -0.06,0.37 -0.08,0.49l0.07 2.06c-1.66,-0.3 0.09,-0.61 -1.46,-2.33 -1.46,0.68 -0.63,0.76 -1.95,0.64 -0.97,-2.23 0.36,0.96 -0.11,-2.21 -2.16,1.51 -2.19,2.64 -3.94,3.01z"/>
   <path class="fil16" d="M323.66 236.02l6.35 -0.12 1.29 -19.05c-5.18,-0.51 -6.69,1.58 -7.4,5.97 -0.44,2.69 -0.48,10.38 -0.24,13.2z"/>
   <path class="fil16" d="M384.28 220.84l-0.48 2.15 -4.89 -0.05c0.16,2.9 1.47,2.69 1.89,2.77l2.52 -0.18c2.46,-1.26 0.61,-0.18 0.97,-0.87 -0.04,0.02 -0.05,0.07 -0.05,0.12 0,0.07 -0.49,-0.24 0,0.21 0.96,0.9 -0.57,0.64 0.65,0.16 0.26,-2.79 1.21,-5.21 0.5,-7.8 -1.13,-0.62 0.24,-0.16 -1.18,-0.38 -2.89,-0.46 -7.3,3.84 -3.78,4.84 1.06,0.3 2.38,-0.68 3.85,-0.97z"/>
   <path class="fil16" d="M365.5 227.75c0.46,1.57 0.4,2.67 1,4.43 0.55,1.64 0.37,1.73 0.81,3.35 1.59,0.34 2.7,0.56 3.8,-0.72 -0.84,1.69 1.54,3.3 3.21,1.27 -0.27,-0.61 1.18,0.87 -0.44,-0.41l-1.68 -1.34c-3.15,-3.17 -0.03,-6.19 -6.69,-6.58z"/>
   <path class="fil17" d="M330.14 158.59c0.53,0.54 0.56,-0.33 -0.72,1.48 -0.06,0.08 -0.19,0.23 -0.26,0.35 4.08,-0.34 2.09,-1.67 4.9,-2.08l0.3 -1.15 2.25 2.15c0.04,-2.79 -0.08,-1.5 -0.74,-2.8 -0.02,-0.03 -0.06,-0.16 -0.08,-0.2 -0.02,-0.04 -0.07,-0.18 -0.09,-0.23 -0.67,-1.51 -0.92,-1.65 -1.08,-3.56 -1.54,0.19 -6.94,-2.88 -9.91,-0.28 -1.42,1.24 -1.51,0.19 -2.85,1.98 -0.15,0.21 -0.69,1.43 -0.94,2.04l-1.08 2.79 2.41 -0.91c2.94,-1.14 6.53,-0.34 8.19,-0.49l-0.31 0.9z"/>
   <path class="fil17" d="M315.77 189.24c-0.25,2.43 -2.38,3.09 -4.12,3.41l-2.11 1.45 1.89 1.46c1.08,0.59 1.61,0.65 3.53,0.35 1.09,-0.17 6.19,1.94 7.26,0.44l0.06 -0.81c-0.09,-0.49 0.02,-0.36 -0.14,-0.72 -0.76,-1.71 -1.46,-0.32 -2.9,-3.06 -0.51,-0.96 -1.15,-3.2 -2.15,-3.21 -0.77,-0.01 0.54,-0.1 -1.31,0.68z"/>
   <path class="fil17" d="M334.57 181.74c1.74,5.41 1.42,4 2.52,4.4 0.76,-1.53 0.87,-3.27 1.49,-4.91 0.82,-2.18 1.51,-1.57 0.7,-4.85 -1.61,-0.97 -3.71,-0.45 -4.94,0.21l-2.28 0.87c1.76,1.07 1.78,2.03 2.5,4.28z"/>
   <path class="fil18" d="M266.2 220.12l0.14 -1.8c2.3,-0.1 -0.89,-2.15 3.9,-1.89l0.96 3.48c-1.91,-2.07 0.16,-1.86 1.95,-2.08 0.17,1.25 0.23,3.11 0.35,4.77 0.26,3.5 -1.23,3.17 -2.27,3.5 -0.49,-1.3 -0.49,-1.1 -0.49,-2.93l-0.02 0.94c-0.78,3.07 0.04,-0.17 -0.35,0.89 -0.88,2.34 -0.49,-0.36 -0.09,1.33 0.13,0.57 0.79,4.07 0.57,4.79 1.53,-2.56 -0.1,-3.03 2.3,-5 0.01,11.62 -1.65,9 -1.32,11.67 0.25,1.97 0.97,1.44 -1.37,1.99 0.66,-1.14 0.35,-0.4 0.57,-1.95l-3.18 -1.9c0.46,3.38 0.98,-0.7 0.42,2.67 -2.03,-0.07 -0.48,0.26 -1.53,-0.55 -1.72,-1.33 -0.25,0.05 -0.18,-1.28 0,-0.05 0.03,-0.18 0.03,-0.23 -0,-0.11 -0.09,-0.1 -0.19,-0.83 -0.49,-3.55 0.63,-1.46 1.39,-4.18 -1.05,-0.17 -1.74,-0.85 -1.82,-1.28 -0.02,-0.14 -0.07,-0.2 -0.13,-0.28 0.81,-1.69 0.13,-0.57 1.55,-1.52 0.32,-0.22 0.41,-0.11 0.89,-0.38 -0.11,-2.75 -0.54,0.43 -0.71,-2.52 -0.15,-2.61 3.09,-4.92 -0.56,-3.83 -0.34,-3.35 -0.07,-0.92 -0.91,-1.93 0.29,4.3 -0.45,3.65 -3.73,4.76 -1,0.33 -1.85,0.63 -2.79,1.07 -1.72,0.81 -1.43,0.04 -2.03,2.07 1.74,-0.48 1.6,-0.71 3.72,-0.92l-0.8 2.28 1.77 -1.17c4.34,-1.5 4.05,8.5 2.59,9.93 -1.78,1.12 -4.24,1.1 -5.77,-0.08 -1.54,-1.19 -1.03,-3.4 -0.78,-5.48 -0.13,0.11 -0.24,0.28 -0.32,0.41l-0.69 1.26c-0.11,0.3 -0.25,1.49 -0.25,1.52 -0.05,1.08 -0.07,0.8 0.9,1.99 0.31,0.38 1.43,1.68 1.69,2.45 0.61,1.8 0.34,1.77 -0.24,3.17 -4.28,1.26 -6.96,-2.77 -8.85,-3.77 1.47,6.14 7.8,5.26 13.83,3.99 10.07,-2.14 8.65,-4.18 9.13,-11.29 0.35,-5.13 2.39,-14.5 -1.76,-17.67 -1.94,-1.49 -6.03,-2.27 -8.3,-0.85 -2.02,1.27 0.28,0.86 -3.4,1.31 -1.52,0.19 -2.55,0.26 -4.27,0.79l-0.15 5.12c3.79,-0.82 5.96,-2.83 10.59,-0.57z"/>
   <path class="fil18" d="M294.81 224.43c0.65,-0.8 0.2,1 0.74,-1.7l0.02 -6.41c2.78,0.41 4.9,1.56 3.93,4.44 1.78,1.22 -0.68,-0.53 0.74,0 0.29,1.45 0.29,4.17 0.31,4.25 0.15,0.8 2.22,2.33 0.55,5.86 -0.45,0.95 -0.1,-1.36 -0.4,1.6 -0.18,1.8 -0.35,2.67 -0.68,4.87 -1.93,0.12 -3.74,0.58 -5.39,0.01 -0.06,-3.8 1.23,-9.44 0.19,-12.93zm-14.95 5.57c0.84,-1.41 0.97,-2.33 0.98,-3.94 0.02,-2.65 -0.4,-0.94 0.25,-3.07 0.83,-2.74 0.46,-4.28 0.5,-7.59 0.18,0.07 0.38,0.05 0.48,0.32l3.78 2.17c0.32,-1.42 0.54,-0.48 -1.76,-2.51 1.04,-1.58 1.47,-2.01 4.62,-2.43l-0.31 1.12c-0.84,2.74 -1.1,2.69 -1.03,5.71l-0.51 13.19c-0.06,2.35 -0.48,1.9 -0.98,4.16 -0.33,1.47 -0,-0.1 -0.27,1.83 2.61,-1.27 0.04,0.21 1.38,-1.51 1.44,-1.86 -1.02,-0.24 1.51,-1.57l-0.29 -2.18c-0.55,-2.14 -0.41,-17.39 1.47,-18.38 2.81,-0.26 2.96,-0.3 4.77,1.05 0.81,3.05 -0.09,5.03 0.38,8.06 -1.01,1.11 -0.6,4.77 -0.76,6.45 -0.27,2.75 -0.81,4.28 -0.03,7.14 1.58,0.76 4.37,0.44 6.45,0.03 2.12,-2.57 1.59,-11.33 2.25,-15.48 1.63,-10.3 -4.38,-6.56 -11.25,-11.28 -1.14,-0.78 -1.19,-1.23 -3.13,-1.08 -1.06,0.08 -5.97,1.83 -6.57,2.53 -1.51,1.78 -1.76,14.06 -1.91,17.26z"/>
   <path class="fil19" d="M321.55 171.51c1.2,-0.88 2.48,-1.02 4.2,-0.86 -1.03,1.72 -2.09,3.16 -4.2,0.86zm-6.44 -8.3l0.28 -2.47 -2.13 0.42c-0.1,0.01 -0.28,0.03 -0.35,0.04l-0.61 0.13 -0.22 3.05c-2.52,0.29 -0.96,-0.24 -2.5,-0.44 -1.74,-0.23 -0.54,0.64 -3.31,0.29 -0.3,-1.21 -0.1,-2.38 0.24,-3.43l-0.77 -0.04c-1.63,-0.47 -1.04,0.36 -2.71,-0.77 -0.71,0.24 -0.49,-0.6 -0.56,0.97 0.05,2.68 1.34,4.79 2.97,5.65 0.49,0.34 0.74,0.4 1.05,0.59 0.1,0.06 0.25,0.12 0.36,0.19 0.11,0.07 0.25,0.15 0.35,0.22l0.68 0.53c1.38,0.06 3.78,-0.39 4.42,0.26 0.32,0.66 1.08,-0.98 0.23,1.02 -0.32,0.76 -0.44,0.34 -0.61,0.38 2.8,-0.71 1.59,0.01 1.71,1.06 0.17,1.5 0.04,0.35 -0.28,1.14 -1.05,2.55 -0.02,-0.06 -0.58,0.84 1.83,0.08 4.5,0.58 5.65,1.66 1.22,1.14 1.52,3.02 2.51,4.7 1.44,-0.57 1.3,-1.14 3.14,-2.25l-0.21 -1.31c-0.69,-0.62 -0.59,-0.5 -0.82,-1.72 1.69,-1.7 2.34,-0.71 2.94,-3.14 0.18,-1.08 -0.55,-0.59 0.32,-0.84 -1.78,-1.56 -5.44,-2.53 -4.9,-7.2 0.57,-4.97 5.94,-1.96 8.71,-4.16l0.31 -0.9c-1.65,0.15 -5.25,-0.65 -8.19,0.49l-2.41 0.91 1.08 -2.79c0.25,-0.61 0.78,-1.84 0.94,-2.04 1.34,-1.79 1.43,-0.74 2.85,-1.98 2.97,-2.59 8.37,0.47 9.91,0.28 -0.13,-0.46 0.7,-1.22 -2.93,-2.48 -4.13,-1.43 -8.37,-0.17 -10.98,3.17 -4.44,5.7 0.1,10.6 -0.28,16.9 -2.95,0.17 -5.96,-0.98 -7.84,-2.37 1.14,-2.23 2.82,-2.32 2.51,-4.57z"/>
   <path class="fil20" d="M59.97 35.84c-1,0.42 -1.94,0.79 -3.09,1.05 -1.77,1 -4.52,4.43 -5.88,6.07 -0.4,0.49 -5.75,4.55 -8.07,7.6 -3.51,4.62 -2.17,1.63 -7.39,7.19 -1.56,1.66 -1.91,1.44 -2.5,3.72 1.75,-0.36 1.78,-1.49 3.94,-3.01 0.47,3.17 -0.86,-0.03 0.11,2.21 1.32,0.12 0.49,0.04 1.95,-0.64 1.56,1.72 -0.2,2.03 1.46,2.33l-0.07 -2.06c0.01,-0.12 0.03,-0.33 0.08,-0.49l0.86 -0.09c2.93,0.04 2.78,0.39 3.52,1.07 0.02,1.41 -3.44,4.98 -3.91,6.82 1.18,-0.81 0.24,0.13 3.21,0.25 1.71,-4.22 3.9,-1.96 5.05,-3.85 0.83,-1.37 0.11,-2.58 0.05,-2.74 0.04,0.02 -0.16,1.66 0.98,-0.49 1.46,0.51 1.06,0.65 2.93,0.96 0.12,-0.09 0.28,-0.41 0.34,-0.3 0.06,0.1 0.25,-0.23 0.33,-0.29l9.97 -5.63c2.34,-0.85 2.21,-1.5 4.46,-3.1 0.99,-0.7 3.04,-1.92 3.71,-2.19 2.91,-1.21 3.4,-2 7.51,-4.58 3.67,-2.31 1.27,-2.36 2.94,-3.13 2.45,-1.14 -1.2,0.85 1.7,-0.13 0.07,-0.02 0.19,-0.09 0.26,-0.12 0.08,-0.03 0.21,-0.11 0.29,-0.15 1.29,-0.54 -1.37,-0.31 1.57,-0.59 -0.87,-1 0.36,-0.83 -1.86,-1.19 -1.71,-0.27 -3.71,1.62 -4.49,2.33 -1.37,1.24 -0.35,-0.16 -3.54,1.24l-1.89 0.7 0.15 3.01c-0.7,0.49 -0.65,0.36 -1.2,0.73l-5.14 3.17c-1.69,0.86 -0.75,-0.71 -1.61,1.39 -0.15,-0.12 -0.31,-0.28 -0.43,-0.38l-1.36 -1.15c-0.05,0.06 -0.61,0.92 -0.62,0.93l-2.53 1.19c-1.74,0.33 -2.04,0.29 -3.61,-0.39 -0.21,-0.09 -0.26,-0.3 -0.78,-0.36l1.83 2.01c0.37,0.29 1.37,0.81 1.14,1.5 -0.61,1.84 -2.72,0.67 -3.23,0.48 -0.33,1.07 -0.11,1.3 -0.98,2.44 -5.33,0 -6.6,1.24 -10.2,-0.05 0.96,-2.74 2.43,-1.57 2.13,-4.41 -0.37,-3.47 -0.95,-2.63 0.41,-5.5 2.55,-0.6 0.96,0.56 3.34,-0.04 1.92,-0.48 0.73,-0.7 3.2,-1.34l0.32 0.64c0.04,0.08 0.12,0.23 0.17,0.32l0.38 0.6c0.81,1.33 -0.1,-0.57 0.74,1.29 0.32,-0.71 0.51,-0.92 0.63,-1.75 -0.22,-0.13 -1.16,-0.53 -1.26,-0.58l-1.14 -0.74c2.6,-8 -1.78,-5.62 5.21,-6.83 1.14,-1.87 -0.06,-1.86 2.26,-2.73 1.11,-0.41 2.23,-0.4 3.34,-0.9l0.09 -2.32c-2.38,-0.53 -4.09,-0.23 -5.47,2.02l-0.32 -1.02z"/>
   <path class="fil20" d="M238.16 216.56c-2.05,3.49 -2.21,0.04 -3.45,7.12l2.35 2.21c-0.31,9.5 -1.8,7.4 -0.88,20.22 1.28,-0.04 2.6,0.03 3.85,-0.21 1.24,-0.24 1.61,-0.71 3.1,-1.04 0.02,-3.37 0.27,-7.72 0.89,-11.09 0.64,-3.47 -0.1,-7.76 1.64,-10.78 -0.08,-3.2 1.44,-1.83 -2.14,-2.33 -0.2,-0.03 -3,0.1 -3.52,0.1l0.49 -1.47c0.79,-1.06 2.47,0.03 3.08,-1.88 0.1,-0.32 0.27,-0.35 0.34,-0.55 -1.97,-0.65 -1.01,-0.62 -2.92,0 2.01,1.46 0.1,-0.8 -0.98,-1.46l-1.84 1.16z"/>
   <path class="fil20" d="M315.89 237.17c0.88,-4.63 0.92,-9.19 1.43,-14.05 0.32,-3.07 1.16,-5.22 -1.72,-5.75 -8.64,-1.59 -6.17,1.94 -7.32,15.09 -0.33,3.75 -1.13,6.47 7.61,4.71z"/>
   <path class="fil21" d="M236.94 253.1c0.73,-1.88 1.08,-1.73 3.22,-2.16 1.41,-0.28 2.86,-0.52 4.27,-0.72 9.12,-1.3 35.45,-3.45 45.31,-4.11 6.32,-0.42 12.42,-0.17 18.33,-1.1 5.05,-0.79 13.41,-0.87 18.73,-0.98l39.51 -0.33c5.01,-0.02 15.81,-2.2 15.28,3.88 -3.84,3.02 -10.79,2 -16.25,1.96 -24.8,-0.15 -50.05,0.83 -74.63,1.49 -5.46,0.15 -12.9,0.08 -18.24,0.71 -4.63,0.54 -33.05,2.22 -35.54,1.36zm147 -7.96c-0.11,-0.06 -0.24,-0.15 -0.31,-0.2 -0.06,-0.04 -0.23,-0.14 -0.31,-0.2l-2.63 -1.77c-4.66,-2.21 -70.44,0.42 -74.84,0.76 -16.55,1.25 -40.98,2.48 -56.92,4.6 -4.83,0.64 -15.06,0.94 -14.54,5.59 4.12,2.01 30.43,-0.64 37.31,-0.78 12.97,-0.26 25.84,-0.97 39.03,-1.39 12.67,-0.4 25.9,-0.66 39.01,-0.85 3.79,-0.06 27.64,0.34 29.97,-0.26 3.43,-0.87 3.33,-2.02 4.23,-5.5z"/>
   <path class="fil21" d="M250.53 239.3c-0.51,-2.58 0.26,-5.89 1.54,-7.49 0.8,-1 1.87,-1.27 2.76,-2.1 1.38,-1.29 0.28,-1.54 2.74,-2 0.6,-2.03 0.31,-1.27 2.03,-2.07 0.94,-0.44 1.79,-0.74 2.79,-1.07 3.28,-1.1 4.02,-0.45 3.73,-4.76l0.09 0.31c-4.63,-2.26 -6.8,-0.25 -10.59,0.57l0.15 -5.12c1.72,-0.53 2.75,-0.6 4.27,-0.79 3.68,-0.45 1.38,-0.04 3.4,-1.31 2.27,-1.42 6.36,-0.64 8.3,0.85 4.14,3.17 2.1,12.54 1.76,17.67 -0.48,7.11 0.95,9.16 -9.13,11.29 -6.03,1.28 -12.36,2.15 -13.83,-3.99zm11.23 -27.46c1.34,0.52 0.47,-0.39 1.06,0.66 -1.08,0.69 -2.66,1.29 -4.26,0.98 -1.04,-0.2 -0.59,0.02 -1.11,-0.61 -0.65,0.03 -0.65,0.02 -1.29,0.18 -0.09,0.02 -0.29,0.29 -0.36,0.18 -0.06,-0.11 -0.22,0.14 -0.34,0.21 0.11,0.84 -0.58,1.23 -1.34,1.77l-0.18 7.48c2.82,-0.33 4.92,-2.19 7.69,-1.89 0.47,-0.31 0.2,-0.51 1.28,-0.63 1.19,-0.14 0.77,0 1.78,0.29 0.5,1.79 1.12,2.36 -5.17,3.72 -1.53,0.92 -2.85,1.39 -4.34,2.42 -2.05,1.41 -2.64,2.55 -4.44,3.88 0.08,0.89 0.32,0.62 -0.28,0.53 -0.8,3.58 -4.58,13.98 6.09,14.56 6.85,0.37 12.83,-1.71 17.5,-4.85 0.93,-19.64 5.37,-28.85 -8.23,-29.18l-2.34 -0.46 -1.72 0.77z"/>
   <path class="fil21" d="M367.49 216.42c4.89,0.14 9.95,-2.36 10.55,1.98 -1.39,0.48 -3.59,0.72 -5.12,0.99 -2.63,0.48 -3.02,0.94 -5.38,1.52l-0.81 0.34 -0.14 1.13c2.2,0.2 4.58,-1.34 7.52,-1.7 3.63,-0.44 4.41,0.1 5.33,-3.33 -1.71,-3.52 -5.38,-2.66 -9.92,-2.71 -0.28,-4.93 -1.11,-6.37 8.48,-5.44 11.54,1.12 8.48,15.01 7.64,24.7 -0.32,3.69 -0.83,4.32 -2.89,4.32 -0.27,0.34 0.35,0.88 -3.78,1.24 -2.13,0.18 -7.65,-0.84 -10.05,-2.16 -0.58,-0.32 -1.27,-0.53 -1.68,-0.76 -2.15,-1.17 -1.01,-0.73 -2.09,-2.98 -3.49,-7.22 2.78,-8.12 0.54,-10.7 -4.42,4.2 -3.76,12.42 1.8,15.75 3.64,2.18 16,3.71 18.74,0.06 0.8,-1.33 0.53,-4.2 0.69,-6.12l1.06 -5.89c-1.16,-6.73 1.79,-11.88 -3.47,-16.29 -2.91,-2.44 -12.21,-4.19 -16.25,-1.82 -0.89,2.18 -0.48,5.41 -0.78,7.89z"/>
   <path class="fil21" d="M40.95 50.06c-0.76,1.58 -1.13,1.72 -2.34,2.99 -1.13,1.19 -1.77,1.82 -2.97,2.76l-0.02 -0.33c-0.72,1.53 -0.39,1.02 -1.59,2.23 -1.21,1.21 -0.7,0.87 -2.23,1.59l-1.55 1.55c-0.87,1.81 -2.82,3.42 -4.33,4.85 -1.51,1.42 -3.17,3.37 -4.91,4.23l-3.88 4.54c2.91,-0.11 -0.41,0.8 4.02,-2.67 3.62,-2.83 7.56,-8.96 11.56,-10.08 -0.16,-1.12 -0.12,-0.21 0.34,-0.25 0.59,-2.27 0.93,-2.05 2.5,-3.72 5.21,-5.55 3.88,-2.56 7.39,-7.19 2.32,-3.05 7.67,-7.11 8.07,-7.6 1.36,-1.65 4.11,-5.07 5.88,-6.07l7.38 -7.93c0.72,-0.67 1.36,-1.38 2.01,-1.93 0.85,-0.72 1.26,-0.75 2.2,-1.69l11.44 -11.96c1.37,-1.49 6.4,-6.64 7.98,-7.7 -0.1,-2.83 0.38,-0 -0.38,-1.13 -4.09,1.91 -43.12,43.99 -46.57,45.52z"/>
   <path class="fil21" d="M350.81 237.74c0.28,-1.09 0.56,-5.7 0.68,-7.28 0.3,-4.21 0.63,-20.08 3.12,-21.68 1.72,-0.48 1.05,-0.5 2.84,-0.27 0.17,0.02 1.03,0.25 1.18,0.31 1,0.38 3.3,0.74 1.55,14.65 -0.61,4.82 0.27,10.09 -1.67,13.88 -2.49,0.03 -5.49,-0.36 -7.7,0.4zm0.76 -27.1l-1.92 24.44c-0.23,2.87 -0.42,2.59 1.16,2.66 0.43,1.2 -0.35,0.47 1.81,0.8 0.39,0.06 1.97,0.04 2.46,0.04 2.39,0 3.48,0.06 5.86,-0.44 -0.95,-1.93 1.72,-23.22 1.39,-28.11 -1.37,-1.45 -0.58,-1.52 -2.9,-2.58 -2.57,-0.71 -2.91,-0.57 -5.49,-0.11 -0.04,0.07 -0.13,0.16 -0.16,0.19 -0.03,0.03 -0.14,0.16 -0.17,0.19l-2.04 2.91z"/>
   <path class="fil21" d="M330.27 236.91c-2.61,0.18 -5.36,0.53 -7.85,-0.12 -0.17,-0.7 -1.05,-17.71 2.94,-19.83 0.72,-0.38 1.91,-0.66 2.81,-0.81 6.1,-1.06 3.46,1.28 3.52,9.02 0.04,4.31 -0.61,8.27 -1.42,11.74zm-8.47 -16.94c0.96,4.89 -1.75,13.55 -0.68,18.22 3.69,0.25 7.83,0.44 11.06,-0.58 -0.93,-1.92 1.01,-16.17 1,-19.78l0.17 -3.22c-12.24,0.47 -10.34,2.02 -11.14,4.58 -0.04,0.11 -0.16,0.46 -0.19,0.4 -0.03,-0.07 -0.13,0.26 -0.21,0.38z"/>
   <path class="fil21" d="M373.04 231.27c0.15,-3.26 0,-4.68 2.52,-5.43 0.54,-0.48 -0.67,-0.76 1.93,-0.6 0.27,0.69 1.72,8.69 -2.27,8 -1.37,-0.23 -1.69,-0.8 -2.19,-1.98zm5.6 1.47l-0.35 0.21c0.14,-3.39 1.26,-5.97 -0.27,-8.16 -2.44,-1.78 -6.76,0.55 -6.29,5.78 0.32,3.52 3.54,5.12 5.97,3.03 0.1,-0.08 0.2,-0.21 0.29,-0.29l0.65 -0.57z"/>
   <path class="fil22" d="M89.67 2.46c-0.72,0.23 -0.14,-0.36 -1.34,0.79 -1.05,1 -0.57,0.46 -0.81,1.3 0.76,1.13 0.28,-1.69 0.38,1.13 -1.58,1.05 -6.61,6.2 -7.98,7.7l-11.44 11.96c-0.94,0.94 -1.34,0.97 -2.2,1.69 -0.65,0.55 -1.29,1.26 -2.01,1.93l-7.38 7.93c1.14,-0.26 2.09,-0.63 3.09,-1.05 1.9,-4.35 1.43,-1.6 7.09,-5.09 -1.59,-0.38 -0.94,0.11 -0.91,-2.37l9.71 -6.61c-1.18,-1.07 -0.96,-0.35 -0.82,-2.44 1.83,-1.11 0.99,0.06 2.61,-1.42l2 -2.04c0.64,1.16 1.5,0.84 2.13,2.48 -0.63,1.06 -0.13,0.98 -2.97,1.65 0.51,0.69 0.62,1.23 1.23,1.98 2.42,-0.73 0.98,-0.15 2.02,-1.58 0.06,-0.08 0.14,-0.21 0.2,-0.29 2.93,-4.09 -1.02,-0.65 0.36,-4.85 1.36,-4.16 2.17,-4.03 4.19,-4.87 1.81,-0.75 1.36,-0.93 3.64,-1 0.15,4.84 0,9.94 0,14.82 0,1.88 -0.2,5.5 0.11,7.16 0.48,2.55 1.54,1.78 1.09,5.52 -1.07,0.96 -2.02,1.34 -2.84,2.39 -1.12,1.44 -0.07,1.16 -2.51,2.26 -2.94,0.28 -0.28,0.05 -1.57,0.59 -0.09,0.04 -0.21,0.12 -0.29,0.15 -0.07,0.03 -0.2,0.1 -0.26,0.12 -2.9,0.99 0.75,-1 -1.7,0.13 -1.67,0.77 0.73,0.83 -2.94,3.13 -4.11,2.59 -4.59,3.38 -7.51,4.58 -0.67,0.28 -2.73,1.5 -3.71,2.19 -2.26,1.6 -2.12,2.24 -4.46,3.1l-9.97 5.63c-0.08,0.06 -0.27,0.38 -0.33,0.29 -0.06,-0.1 -0.22,0.21 -0.34,0.3 -1.87,-0.31 -1.47,-0.45 -2.93,-0.96 -1.14,2.15 -0.94,0.51 -0.98,0.49 0.06,0.16 0.79,1.37 -0.05,2.74 -1.15,1.89 -3.33,-0.38 -5.05,3.85 -2.97,-0.13 -2.03,-1.06 -3.21,-0.25l-0.29 1.45c-0.37,-0.01 -0.61,-0.18 -0.68,-0.04 -0.06,0.13 -0.34,-0 -0.42,-0.03 -1.16,-0.4 -0.68,0.16 -1.04,-0.93l-0.87 1.09c-0.07,0.08 -0.22,0.22 -0.29,0.29 -0.07,0.07 -0.2,0.21 -0.3,0.3l-1.58 -0.95c-1.62,-0.65 -1.93,0.07 -3.33,0.45 -0.93,0.25 -1.51,0.22 -2.46,0.27 0.61,0.58 1.25,0.1 3.41,0.12 -0.61,4.41 -0.89,0.47 -0.97,3.52 -0.07,2.53 -1.29,1.58 -4.05,3.55 -1.09,0.78 -3.42,3.79 -6.16,0.82l-1.81 -2.96c2.02,-0.85 2.04,-0.88 2.84,-2.27 0.45,-0.77 -0.3,0.27 0.47,-0.77 1.86,-2.5 3.77,-2.64 4.85,-3.47l2.51 -1.83c0.02,-1.8 -1.17,0.36 0.04,-2.17l1.84 -2.33c-4,1.12 -7.94,7.25 -11.56,10.08 -4.43,3.47 -1.11,2.56 -4.02,2.67 -1.24,1.67 -6.58,7.33 -8.8,8.24l0.22 0.48c-0.31,1.58 -0.01,0.52 -0.58,1.52 -1.13,1.98 -3.69,3.98 -5.25,5.61 -1.06,1.11 -1.49,1 -0.89,2.74 1.59,0.26 3.58,-1.22 4.72,-1.87l3.26 -2.09c0.55,-0.45 0.46,-0.46 1.01,-0.78 2.23,-1.31 1.21,-0.01 4.78,-2.74l18.32 -10.9c1.78,-1.12 3.22,-2.54 5.54,-2.68 2.05,0.13 15.26,-8.59 18.17,-10.23 3.06,-1.74 5.92,-3.6 9.07,-5.54l8.27 -5.48c0.58,-1.99 -0.42,-0.25 0.98,-1.84 0.88,-1 5.34,-3.12 6.76,-3.91l5.26 -3.08c5.95,-3.51 5.09,-4.06 5.02,-6.95 -0.14,-5.2 0.78,-30.66 -0.74,-33.19 0.46,-0.57 0.22,-0.86 0.19,0.11 -1.82,0.65 -0.7,0.61 -2.76,0.57z"/>
   <path class="fil22" d="M322.87 180.7c0.08,0.1 0.2,0.13 0.25,0.29 0.2,0.75 2.23,1.31 3.21,1.38 0.83,0.06 1.47,0.02 2.24,-0.18l1.87 -0.93c-0.43,-1.57 -1.45,-2.48 -3.65,-2.5 -1.68,-0.02 -2.97,1.31 -3.92,1.94z"/>
   <path class="fil23" d="M184.22 93.47c4.47,-3.11 16.35,-0.69 21.16,-0.44 7.29,0.38 16.3,0.55 23.4,0.56 7.31,0.01 15.16,0.65 22.92,0.68 7.96,0.03 15.93,0.03 23.9,-0.01 22.84,-0.1 45.15,-0.72 67.83,-2.83 11.14,-1.04 11.45,9.07 10.33,11.42 -1.09,2.29 -1.09,3.88 -7.45,4.16 -3.71,0.16 -7.46,0.24 -11.22,0.35 -7.75,0.22 -15.29,0.94 -23.41,0.94 -15.72,-0 -31.47,0.12 -46.82,-0.45 -21.56,-0.8 -43.71,-2.84 -64.98,-5.99 -8.97,-1.33 -12.96,-2.14 -15.67,-8.4zm-0.85 2.07c0.32,1.83 1.16,2.2 2.14,3.24 1.62,0.44 0.77,-0.28 1.63,1.13 23,8.85 102.05,11.06 126,9.89l32.69 -1.48c4.49,-0.09 6.75,-0.15 8.91,-3.27 0.71,-2.26 1.25,-2.09 1.02,-5.22 -1.07,-14.51 -14.79,-9.43 -30.5,-8.54 -33.24,1.88 -60.32,1.79 -93.56,1.05 -5.88,-0.13 -43.52,-2.26 -45.12,-1.39l-3.65 1.06c-0.38,-0.59 -0.28,-0.48 -0.84,-1.06l-1.04 -0.95c-0.08,-0.07 -0.19,-0.17 -0.26,-0.24l-5.41 -5.24c-1.44,-1.34 -1.4,-2.55 -3.52,-3.79 -4.07,-2.37 -1.52,-0.1 -4.39,-3.39 -0.12,2.81 -0.95,1.94 0.74,3.48 -1.7,0.04 -1.04,0.42 -2.41,0.55l-0.64 -0.01c-0.09,0 -0.25,-0.02 -0.34,-0.02 -0.09,0 -0.26,-0.01 -0.35,-0.01 -0.74,0.02 -0.52,-0.1 -1.05,0.15l6.98 3.96c0.11,0.05 0.23,0.12 0.34,0.17l5.3 3.39c0.09,0.06 0.21,0.14 0.31,0.2 5.29,3.3 6.92,2.97 7.03,6.35z"/>
   <path class="fil23" d="M279.39 212.24l0.34 -0.26c-0.43,4.98 -2.31,25.74 -2.03,29.17 2.4,0.56 4.7,-0.06 7.2,-0.26 4,-0.32 3.49,-1.05 3.59,-5.01 -2.53,1.33 -0.07,-0.29 -1.51,1.57 -1.34,1.72 1.22,0.24 -1.38,1.51 -1.01,0.65 -4.27,0.6 -6.23,0.48 0.1,-3.69 0.3,-5.86 0.5,-9.43 0.15,-3.2 0.4,-15.48 1.91,-17.26 0.59,-0.7 5.51,-2.44 6.57,-2.53 1.95,-0.15 1.99,0.3 3.13,1.08 6.87,4.72 12.88,0.98 11.25,11.28 -0.66,4.15 -0.12,12.91 -2.25,15.48 -2.08,0.41 -4.88,0.73 -6.45,-0.03 -0.78,-2.86 -0.24,-4.39 0.03,-7.14 0.16,-1.68 -0.25,-5.33 0.76,-6.45 -0.47,-3.03 0.43,-5.01 -0.38,-8.06 -1.81,-1.35 -1.96,-1.31 -4.77,-1.05 -1.87,0.98 -2.02,16.24 -1.47,18.38l0.53 -1.26c0.04,-0.15 0.08,-0.28 0.11,-0.46 0.11,-0.58 0.13,-1.8 0.16,-2.44 0.08,-1.75 0.27,-2.69 0.4,-4.39 0.2,-2.65 0.05,-6.03 0.97,-8.29 6.26,-2.54 1.42,7.84 2.52,14.6 0.37,3.12 -0.92,4.77 -0.15,7.69l0.88 0.24c2.08,0.21 6.67,-0.18 8.4,-0.9 0.62,-2.43 0.21,-7.59 1.61,-9.56 -0.09,-2.18 0.47,-11.68 1.17,-12.79 -0.43,-1.78 0.45,-0.64 -1.71,-1.45 -0.73,-0.27 -0.33,0.02 -1.13,-0.36 -1.13,-0.53 -0.13,0.09 -0.88,-0.7 -3.16,-0.09 -8.23,-2.68 -10.12,-5.24 3.55,-0.21 4.35,-0.22 7.54,0.62 -3.53,-1.9 -6.81,-0.05 -9.69,-1.57 -0.37,2.55 1.59,-0.09 -4.53,2.49l-4.9 2.31z"/>
   <path class="fil24" d="M236.94 253.1c2.49,0.87 30.91,-0.81 35.54,-1.36 5.34,-0.63 12.78,-0.56 18.24,-0.71 24.58,-0.66 49.83,-1.64 74.63,-1.49 5.47,0.03 12.41,1.05 16.25,-1.96 0.53,-6.08 -10.27,-3.9 -15.28,-3.88l-39.51 0.33c-5.32,0.11 -13.68,0.19 -18.73,0.98 -5.92,0.93 -12.01,0.68 -18.33,1.1 -9.86,0.66 -36.2,2.82 -45.31,4.11 -1.41,0.2 -2.87,0.44 -4.27,0.72 -2.14,0.43 -2.49,0.28 -3.22,2.16z"/>
   <path class="fil24" d="M378.29 232.95c1.97,-2.87 0.67,-4.81 2.34,-5.52 0.14,-0.06 0.52,-0.33 1.27,-0.11 2.49,0.74 0.74,-0.3 1.22,1.21 0.76,2.42 -0.21,0.6 -0.9,2.96 1.36,0.74 2.16,0.65 2.29,2.94 0.16,2.83 -0.87,1.9 -1.74,3.78 -1.82,-0.61 -3.19,-0.82 -5.02,-1.48 1.17,-1.34 0.72,-1.62 0.9,-3.99l-0.65 0.57c-0.09,0.08 -0.19,0.2 -0.29,0.29 -2.44,2.09 -5.66,0.5 -5.97,-3.03 -0.47,-5.23 3.86,-7.56 6.29,-5.78 1.53,2.19 0.41,4.77 0.27,8.16zm-12.79 -5.21c6.66,0.39 3.54,3.41 6.69,6.58l1.68 1.34c1.62,1.28 0.17,-0.2 0.44,0.41 -1.67,2.03 -4.05,0.43 -3.21,-1.27 -1.1,1.28 -2.21,1.06 -3.8,0.72 -0.43,-1.61 -0.25,-1.71 -0.81,-3.35 -0.59,-1.76 -0.54,-2.86 -1,-4.43zm18.72 -10.78c1.42,0.22 0.05,-0.24 1.18,0.38 0.71,2.59 -0.23,5.01 -0.5,7.8 -1.22,0.48 0.31,0.74 -0.65,-0.16 -0.49,-0.46 0,-0.14 -0,-0.21 -0,-0.05 0.01,-0.1 0.05,-0.12 -0.36,0.69 1.49,-0.39 -0.97,0.87l-2.52 0.18c-0.42,-0.08 -1.73,0.13 -1.89,-2.77l4.89 0.05 0.48 -2.15c-1.47,0.29 -2.79,1.27 -3.85,0.97 -3.52,-1 0.9,-5.3 3.78,-4.84zm-17.61 5.41c-0.86,0.08 -0.04,-0.74 -0.91,0.47 2.25,2.58 -4.03,3.48 -0.54,10.7 1.09,2.25 -0.06,1.8 2.09,2.98 0.41,0.23 1.1,0.43 1.68,0.76 2.39,1.32 7.91,2.34 10.05,2.16 4.13,-0.36 3.51,-0.9 3.78,-1.24 2.06,0.01 2.57,-0.63 2.89,-4.32 0.84,-9.69 3.9,-23.58 -7.64,-24.7 -9.59,-0.93 -8.76,0.51 -8.48,5.44 4.54,0.05 8.21,-0.81 9.92,2.71 -0.92,3.43 -1.7,2.89 -5.33,3.33 -2.95,0.36 -5.32,1.9 -7.52,1.7z"/>
   <path class="fil24" d="M350.81 237.74c2.21,-0.76 5.21,-0.37 7.7,-0.4 1.93,-3.79 1.06,-9.06 1.67,-13.88 1.75,-13.91 -0.55,-14.28 -1.55,-14.65 -0.15,-0.06 -1.01,-0.29 -1.18,-0.31 -1.78,-0.23 -1.11,-0.21 -2.84,0.27 -2.49,1.6 -2.82,17.47 -3.12,21.68 -0.11,1.58 -0.39,6.19 -0.68,7.28z"/>
   <path class="fil24" d="M238.16 216.56l1.84 -1.16c1.08,0.66 2.99,2.93 0.98,1.46 1.92,-0.62 0.95,-0.65 2.92,0 -0.07,0.2 -0.23,0.23 -0.34,0.55 -0.61,1.91 -2.29,0.83 -3.08,1.88l-0.49 1.47c0.53,0 3.32,-0.13 3.52,-0.1 3.58,0.5 2.06,-0.87 2.14,2.33 3.16,-2.35 2.26,-0.21 3.19,-2.28 0.41,-0.92 0.78,-3.22 -0.91,-4.46l-0.98 -0.49c-0.09,-0.05 -0.22,-0.11 -0.32,-0.15 -2.34,-1.13 -5.41,-1.42 -8.03,-1.1l-0.47 2.06z"/>
   <path class="fil25" d="M74.97 50.73c2.55,-0.87 15.6,-8.65 16.77,-9.97 1.54,-1.9 1.98,-3.51 4.74,-0.83 1.32,1.28 2.66,2.25 4.21,3.1 1.51,0.82 1.01,0.42 2.18,0.76 1.96,0.57 0.39,-0.03 1.92,1.49 0.87,0.86 1.29,0.94 2.35,1.53 1.21,0.67 1.26,0.72 2.36,1.52l6.8 3.84c2.46,1.76 0.09,1.47 4.28,2.96 1.85,0.66 1.74,0.89 2.82,1.76l0.53 0.42c0.08,0.06 0.21,0.13 0.29,0.19l0.92 0.56c0.09,0.06 0.21,0.14 0.3,0.19 0.76,0.47 1.48,0.78 2.34,1.09 -2.56,-0.37 -1.15,-1.59 -4.59,-2.54l2.78 -1.97c-0.83,-1.7 -0.29,1.47 -0.98,-2.32 -0.02,-0.12 -0.04,-0.33 -0.09,-0.49l-3.41 -1.46c1.27,1.34 0.79,-0.08 3.04,-0.43 3.13,-0.48 2.34,1.07 3.79,-1.55 0.48,2.4 0.59,2.4 3.41,2.46 0.09,-0.14 0.19,-0.53 0.22,-0.45 0.03,0.07 0.16,-0.32 0.19,-0.44 0.65,-2.56 0.07,-0.28 0.07,-3.98l-3.74 -2.42c1.28,-0.56 0.66,-0.26 1.61,-3.04 0.25,-0.72 0.16,1.11 0.43,-1.33 -1.03,-1.05 -1.58,-0.89 -2.71,-1.98l-0.47 -0.54c-0.21,-0.25 -0.28,-0.43 -0.64,-0.86l-6.65 -7.02c-1.18,1.07 -0.99,-2.38 -0.99,1.56 1.1,0.01 0.36,1.03 -0.98,0.98 -1.52,-2.84 1.38,0.82 -1.18,-1.18 -2.43,-1.9 -2.57,-1.05 -2.84,-0.81l-0.34 0.83c-0.26,1.06 1.06,0.58 -0.03,0.66 0.41,0.98 0.75,0.02 -0.79,0.41l-2.87 0.32 0.24 -2.42c0.61,-2.53 1.02,-0.51 1.29,-1.53 0.04,-0.16 0.24,-0.11 0.33,-0.2 -2.24,-4.08 0.63,-1.54 -0.12,-5.36 -2.06,-0.55 -0.89,0.68 -2.43,-0.57 -1.28,-1.04 -0.8,-1.15 -1.27,-2.85 -0.34,-1.24 -0.25,-1.48 -1.35,-2.34 -0.46,-0.35 -1.05,-0.64 -1.38,-0.82l-0.92 -0.47c-0.1,-0.24 -0.33,-0.17 -0.49,-0.25 0.23,4.34 1.76,4.98 2.03,7.07l-4.23 0.49c-0.81,0.74 -0.49,7.32 -0.49,8.53l-0.87 -0.23c-1.96,0.27 -2.33,1.57 -2.38,3.57 -1.16,-0.32 -0.43,-0.31 -1.22,-0.13l-1.14 0.7c-0.38,-2.91 -1.56,-0.96 -1.38,-3.71l0.07 -8.03c0.05,-0.13 0.24,-0.42 1.06,-0.7 0.19,-1.94 0.17,-3.68 0.18,-5.62 0.02,-3.15 0.1,-2.83 -0.89,-4.59 -0.52,-0.92 -2.29,-3.73 -0.4,-3.93 0.05,-0 0.2,0.03 0.25,0.02l1.58 -0.26c-0.44,-4.61 -0.61,-0.16 -2.44,-4.39 -0.03,0.04 0.09,0.1 0.1,0.1l0.13 -0.28c-0,-0.03 -0.09,-0.16 -0.09,-0.29 -0.01,-0.15 -0.05,-0.25 -0.12,-0.34 0.45,-0.98 1.19,-0.62 -1.45,-1.14 1.52,2.53 0.6,27.98 0.74,33.19 0.08,2.89 0.94,3.44 -5.02,6.95l-5.26 3.08c-1.42,0.78 -5.88,2.91 -6.76,3.91 -1.4,1.59 -0.4,-0.15 -0.98,1.84z"/>
   <path class="fil25" d="M135.14 47.14l-0.49 3.9c0.45,-0.12 1.41,-0.56 1.54,-0.6 2.33,-0.69 -1.75,-0.83 1.33,0.01 0.98,0.27 -0.45,0.53 0.54,0.1l-0.36 0.72c-0.88,1.83 -0.98,1.84 -1.1,4.15 1.42,-0.05 1.6,0.14 2.63,-0.08 1.58,-0.33 -0.5,-0.39 1.92,-0.44 1.7,3.92 0.41,1.96 -1.45,1.9 -1.14,-0.03 1.42,-0.92 -1.1,0.12 -1.35,0.56 -1.84,2.48 -1.32,3.85 0.91,2.42 -0.44,0.83 1.97,1.54 1.05,0.31 1.9,-0.3 2.73,1.88l-3.44 1.06c-0.16,0.11 -0.34,0.25 -0.47,0.4 2.44,0.73 1.87,2.39 4.89,2.77 1.27,0.16 1.62,-0.04 2.02,-0.48 0.67,-0.74 1.02,-1.42 1.04,-2.32 2.26,0.34 1.55,-1.21 1.97,1.48 -2.11,0.36 -2.57,1.22 -2.37,3.41 1.11,0.56 2.5,0.23 3.58,-0.14 1.08,-0.38 1.78,-0.67 2.1,-1.64 0.84,-2.61 0.04,-0.57 -0.08,-0.67 1.75,-0.06 1.35,-0.08 2.46,-0.49 0.49,-1.28 0.23,0.52 0.51,-1.72l-0.19 -2.16c0.47,-0.26 0.15,0 -0.7,-0.45 -2.2,-1.19 -1.58,-0.89 -2.7,-2.98 -0.96,-1.79 -3.33,-3.73 -5.19,-5.94 -1.65,-1.97 -1.69,-0.87 -3.12,-2.8 -1.17,-1.58 0.25,-0.09 -1.16,-1.64l-7.45 -7.05c-1.8,-1.71 0.1,-0.7 -2.43,-1.57 -0.21,0.57 -0.71,1.89 -0.8,2.78l-0 0.6c0.17,0.95 1.57,2.37 2.98,2.75 1.7,0.45 1.71,-0.27 1.72,-0.27z"/>
   <path class="fil26" d="M184.22 93.47c2.71,6.26 6.71,7.07 15.67,8.4 21.27,3.15 43.42,5.19 64.98,5.99 15.34,0.57 31.1,0.44 46.82,0.45 8.11,0 15.65,-0.72 23.41,-0.94 3.76,-0.11 7.51,-0.18 11.22,-0.35 6.35,-0.28 6.36,-1.87 7.45,-4.16 1.12,-2.36 0.81,-12.46 -10.33,-11.42 -22.69,2.11 -44.99,2.73 -67.83,2.83 -7.97,0.03 -15.94,0.03 -23.9,0.01 -7.76,-0.03 -15.61,-0.67 -22.92,-0.68 -7.11,-0.01 -16.12,-0.17 -23.4,-0.56 -4.81,-0.25 -16.69,-2.67 -21.16,0.44z"/>
   <path class="fil26" d="M337.01 236.4c2.34,0.11 1.47,-0.33 4.09,0.09 2.15,0.35 2.58,0.9 3.41,-1.09 0.25,-0.62 0.61,-7.67 0.67,-8.71 0.48,-7.63 0.91,-2.87 0.61,-12.49 -0.07,-2.29 0.58,0.36 0.65,-3.32 -1.9,0.1 -4.63,1.69 -7.1,2.56 -1.04,3.76 -1.45,7.96 -1.55,12.21 -0.13,5.33 -1.08,7.78 -0.77,10.75z"/>
   <path class="fil26" d="M279.86 230.01c-0.2,3.57 -0.41,5.74 -0.5,9.43 1.96,0.12 5.22,0.17 6.23,-0.48 0.27,-1.92 -0.06,-0.35 0.27,-1.83 0.51,-2.26 0.92,-1.8 0.98,-4.16l0.51 -13.19c-0.06,-3.02 0.19,-2.97 1.03,-5.71l0.31 -1.12c-3.15,0.42 -3.58,0.85 -4.62,2.43 2.3,2.03 2.08,1.09 1.76,2.51l-3.78 -2.17c-0.09,-0.26 -0.3,-0.25 -0.48,-0.32 -0.04,3.31 0.33,4.85 -0.5,7.59 -0.65,2.13 -0.23,0.42 -0.25,3.07 -0.01,1.61 -0.14,2.53 -0.98,3.94z"/>
   <path class="fil26" d="M266.2 220.12l-0.09 -0.31c0.83,1.01 0.57,-1.43 0.91,1.93 3.65,-1.09 0.41,1.22 0.56,3.83 0.17,2.94 0.6,-0.24 0.71,2.52 -0.47,0.26 -0.56,0.16 -0.89,0.38 -1.42,0.96 -0.74,-0.17 -1.55,1.52 0.06,0.09 0.11,0.15 0.13,0.28 0.08,0.43 0.77,1.11 1.82,1.28 -0.77,2.71 -1.89,0.63 -1.39,4.18 0.1,0.73 0.19,0.73 0.19,0.83 0,0.05 -0.03,0.18 -0.03,0.23 -0.06,1.33 -1.53,-0.06 0.18,1.28 1.05,0.81 -0.5,0.48 1.53,0.55 0.56,-3.37 0.04,0.7 -0.42,-2.67l3.18 1.9c-0.22,1.55 0.09,0.82 -0.57,1.95 2.34,-0.55 1.62,-0.02 1.37,-1.99 -0.34,-2.67 1.33,-0.05 1.32,-11.67 -2.4,1.97 -0.77,2.44 -2.3,5 0.22,-0.72 -0.44,-4.22 -0.57,-4.79 -0.4,-1.69 -0.78,1 0.09,-1.33 0.4,-1.06 -0.42,2.18 0.35,-0.89l0.02 -0.94c0,1.83 -0,1.63 0.49,2.93 1.04,-0.33 2.54,0 2.27,-3.5 -0.13,-1.66 -0.18,-3.52 -0.35,-4.77 -1.79,0.21 -3.86,0 -1.95,2.08l-0.96 -3.48c-4.79,-0.26 -1.6,1.78 -3.9,1.89l-0.14 1.8z"/>
   <path class="fil26" d="M294.81 224.43c1.04,3.49 -0.24,9.12 -0.19,12.93 1.66,0.57 3.46,0.11 5.39,-0.01 0.32,-2.2 0.49,-3.07 0.68,-4.87 0.3,-2.96 -0.05,-0.65 0.4,-1.6 1.67,-3.53 -0.41,-5.06 -0.55,-5.86 -0.01,-0.08 -0.02,-2.81 -0.31,-4.25 -1.41,-0.53 1.04,1.22 -0.74,0 0.97,-2.88 -1.15,-4.03 -3.93,-4.44l-0.02 6.41c-0.55,2.7 -0.09,0.9 -0.74,1.7z"/>
   <path class="fil26" d="M257.56 227.71c-2.46,0.46 -1.35,0.71 -2.74,2 -0.89,0.83 -1.96,1.1 -2.76,2.1 -1.28,1.59 -2.04,4.9 -1.54,7.49 1.89,1 4.57,5.03 8.85,3.77 0.58,-1.4 0.84,-1.38 0.24,-3.17 -0.26,-0.77 -1.38,-2.07 -1.69,-2.45 -0.97,-1.19 -0.95,-0.92 -0.9,-1.99 0,-0.02 0.14,-1.22 0.25,-1.52l0.69 -1.26c0.08,-0.13 0.18,-0.3 0.32,-0.41 0.41,-1.8 1.33,-1.2 2.2,-3.2l0.8 -2.28c-2.12,0.2 -1.98,0.43 -3.72,0.92z"/>
   <path class="fil26" d="M378.29 232.95l0.35 -0.21c-0.18,2.36 0.27,2.65 -0.9,3.99 1.83,0.67 3.2,0.87 5.02,1.48 0.87,-1.89 1.9,-0.95 1.74,-3.78 -0.13,-2.29 -0.93,-2.2 -2.29,-2.94 0.69,-2.35 1.67,-0.54 0.9,-2.96 -0.48,-1.51 1.27,-0.47 -1.22,-1.21 -0.75,-0.22 -1.13,0.05 -1.27,0.11 -1.67,0.71 -0.37,2.65 -2.34,5.52z"/>
   <path class="fil27" d="M59.97 35.84l0.32 1.02c1.38,-2.25 3.09,-2.55 5.47,-2.02l-0.09 2.32c-1.11,0.51 -2.23,0.49 -3.34,0.9 -2.33,0.87 -1.12,0.86 -2.26,2.73 -7,1.2 -2.61,-1.17 -5.21,6.83l1.14 0.74c0.09,0.05 1.04,0.44 1.26,0.58 -0.12,0.83 -0.31,1.04 -0.63,1.75 -0.83,-1.86 0.07,0.04 -0.74,-1.29l-0.38 -0.6c-0.05,-0.09 -0.13,-0.23 -0.17,-0.32l-0.32 -0.64c-2.47,0.65 -1.28,0.86 -3.2,1.34 -2.39,0.6 -0.79,-0.56 -3.34,0.04 -1.35,2.87 -0.77,2.03 -0.41,5.5 0.3,2.84 -1.17,1.67 -2.13,4.41 3.6,1.29 4.87,0.05 10.2,0.05 0.86,-1.14 0.64,-1.37 0.98,-2.44 0.51,0.19 2.62,1.36 3.23,-0.48 0.23,-0.69 -0.78,-1.21 -1.14,-1.5l-1.83 -2.01c0.52,0.06 0.57,0.27 0.78,0.36 1.57,0.68 1.87,0.72 3.61,0.39l2.53 -1.19c0.01,-0.01 0.58,-0.87 0.62,-0.93l1.36 1.15c0.12,0.11 0.28,0.26 0.43,0.38 0.85,-2.09 -0.08,-0.53 1.61,-1.39l5.14 -3.17c0.55,-0.37 0.5,-0.24 1.2,-0.73l-0.15 -3.01 1.89 -0.7c3.18,-1.4 2.16,0.01 3.54,-1.24 0.79,-0.71 2.79,-2.61 4.49,-2.33 2.22,0.36 0.99,0.19 1.86,1.19 2.44,-1.1 1.39,-0.82 2.51,-2.26 0.82,-1.04 1.77,-1.43 2.84,-2.39 0.45,-3.74 -0.61,-2.97 -1.09,-5.52 -0.31,-1.66 -0.11,-5.28 -0.11,-7.16 0,-4.88 0.15,-9.97 0,-14.82 -2.29,0.07 -1.84,0.25 -3.64,1 -2.02,0.84 -2.82,0.71 -4.19,4.87 -1.37,4.2 2.57,0.76 -0.36,4.85 -0.06,0.08 -0.14,0.21 -0.2,0.29 -1.04,1.44 0.4,0.85 -2.02,1.58 -0.61,-0.75 -0.72,-1.3 -1.23,-1.98 2.85,-0.67 2.34,-0.58 2.97,-1.65 -0.63,-1.64 -1.48,-1.32 -2.13,-2.48l-2 2.04c-1.62,1.48 -0.78,0.31 -2.61,1.42 -0.14,2.09 -0.36,1.37 0.82,2.44l-9.71 6.61c-0.03,2.48 -0.68,1.99 0.91,2.37 -5.66,3.49 -5.19,0.74 -7.09,5.09z"/>
   <path class="fil28" d="M137.53 50.45c-3.09,-0.85 0.99,-0.71 -1.33,-0.01 -0.13,0.04 -1.09,0.48 -1.54,0.6l0.49 -3.9c-0,0 -0.02,0.72 -1.72,0.27 -1.41,-0.37 -2.82,-1.8 -2.98,-2.75l0 -0.6c0.09,-0.88 0.58,-2.2 0.8,-2.78 2.53,0.87 0.63,-0.14 2.43,1.57l7.45 7.05c1.42,1.55 -0.01,0.06 1.16,1.64 1.43,1.93 1.47,0.83 3.12,2.8 1.86,2.21 4.23,4.16 5.19,5.94 1.12,2.09 0.5,1.79 2.7,2.98 0.85,0.46 1.17,0.2 0.7,0.45l0.19 2.16c-0.28,2.24 -0.02,0.44 -0.51,1.72 -1.1,0.41 -0.71,0.43 -2.46,0.49 0.12,0.11 0.92,-1.94 0.08,0.67 -0.31,0.98 -1.02,1.26 -2.1,1.64 -1.08,0.38 -2.47,0.7 -3.58,0.14 -0.2,-2.2 0.27,-3.06 2.37,-3.41 -0.42,-2.69 0.29,-1.14 -1.97,-1.48 -0.02,0.9 -0.37,1.57 -1.04,2.32 -0.4,0.44 -0.75,0.64 -2.02,0.48 -3.02,-0.38 -2.45,-2.05 -4.89,-2.77 0.14,-0.16 0.31,-0.29 0.47,-0.4l3.44 -1.06c-0.83,-2.18 -1.68,-1.57 -2.73,-1.88 -2.41,-0.71 -1.05,0.88 -1.97,-1.54 -0.51,-1.36 -0.03,-3.29 1.32,-3.85 2.52,-1.04 -0.04,-0.16 1.1,-0.12 1.87,0.05 3.15,2.02 1.45,-1.9 -2.41,0.05 -0.34,0.11 -1.92,0.44 -1.03,0.21 -1.21,0.03 -2.63,0.08 0.12,-2.31 0.22,-2.32 1.1,-4.15l0.36 -0.72c-0.99,0.43 0.44,0.17 -0.54,-0.1zm-17.49 -21.46l6.65 7.02c0.36,0.43 0.42,0.61 0.64,0.86l0.47 0.54c1.12,1.09 1.68,0.92 2.71,1.98 -0.26,2.44 -0.18,0.61 -0.43,1.33 -0.95,2.78 -0.33,2.48 -1.61,3.04l3.74 2.42c0,3.7 0.58,1.43 -0.07,3.98 -0.03,0.12 -0.17,0.51 -0.19,0.44 -0.03,-0.08 -0.13,0.31 -0.22,0.45 -2.82,-0.06 -2.93,-0.06 -3.41,-2.46 -1.45,2.62 -0.66,1.06 -3.79,1.55 -2.25,0.35 -1.77,1.77 -3.04,0.43l3.41 1.46c0.06,0.16 0.07,0.37 0.09,0.49 0.68,3.79 0.14,0.62 0.98,2.32l-2.78 1.97c3.43,0.95 2.03,2.17 4.59,2.54 -0.86,-0.31 -1.58,-0.62 -2.34,-1.09 -0.09,-0.06 -0.21,-0.14 -0.3,-0.19l-0.92 -0.56c-0.08,-0.06 -0.21,-0.13 -0.29,-0.19l-0.53 -0.42c-1.08,-0.88 -0.97,-1.11 -2.82,-1.76 -4.19,-1.48 -1.82,-1.2 -4.28,-2.96l-6.8 -3.84c-1.1,-0.8 -1.15,-0.85 -2.36,-1.52 -1.06,-0.59 -1.48,-0.66 -2.35,-1.53 -1.53,-1.52 0.04,-0.92 -1.92,-1.49 -1.16,-0.34 -0.66,0.07 -2.18,-0.76 -1.55,-0.84 -2.89,-1.82 -4.21,-3.1 -2.76,-2.68 -3.2,-1.06 -4.74,0.83 3.21,0.25 13.49,7.36 16.34,9.05 5.11,3.03 45.23,26.99 46.27,28.67 2.06,0.1 8.02,4.37 10.39,5.85 2.09,1.31 8.95,4.75 9.91,6.42l0.28 0.14c2.86,0.79 6.01,3.4 8.45,4.64 -0.1,-3.38 -1.73,-3.06 -7.03,-6.35 -0.1,-0.06 -0.21,-0.14 -0.31,-0.2l-5.3 -3.39c-0.1,-0.06 -0.23,-0.12 -0.34,-0.17l-6.98 -3.96c0.53,-0.25 0.31,-0.13 1.05,-0.15 0.09,-0 0.25,0.01 0.35,0.01 0.09,-0 0.25,0.02 0.34,0.02l0.64 0.01c1.37,-0.13 0.71,-0.51 2.41,-0.55 -1.68,-1.53 -0.86,-0.67 -0.74,-3.48 2.88,3.29 0.33,1.02 4.39,3.39 2.12,1.24 2.08,2.45 3.52,3.79l5.41 5.24c0.08,0.07 0.18,0.17 0.26,0.24l1.04 0.95c0.55,0.59 0.46,0.47 0.84,1.06l3.65 -1.06 -2.06 0.02c-0.85,-1.33 -3.48,-3.14 -3.84,-4.66l-9.24 -8.66c-1.61,-1.61 -7.79,-7.1 -8.73,-9.2l-8.97 -8.21c-1.67,-1.1 -3.29,-2.78 -4.31,-4.3 -1.31,-1.89 -8.02,-8.36 -9.87,-10.03 -1.19,-1.12 -2.91,-3.16 -3.9,-3.71 -1.6,-1.08 -3.31,-2.96 -4.55,-4.21 -1.82,-1.83 -2.89,-2.52 -3.78,-4.44l-11.33 -11.27c-2.28,-1.15 -1.39,-0.94 -3.11,-2.64 -1.49,-1.47 -1.58,-1.11 -2.65,-3.22 -0.85,-0.37 -0.98,-0.72 -1.56,-1.3 -1.23,-1.23 -0.91,-1.13 -2.46,-1.87 -1.27,1.83 0.57,3.04 2.56,4.68l6.46 6.66c0.08,0.08 0.18,0.18 0.26,0.25l4.53 4.16z"/>
   <path class="fil29" d="M89.67 2.46c2.07,0.03 0.95,0.07 2.76,-0.57 0.02,-0.97 0.26,-0.69 -0.19,-0.11 2.64,0.52 1.9,0.16 1.45,1.14 0.07,0.1 0.12,0.19 0.12,0.34 0,0.13 0.09,0.26 0.09,0.29l-0.13 0.28c-0.01,-0 -0.12,-0.06 -0.1,-0.1 1.83,4.23 2,-0.22 2.44,4.39l-1.58 0.26c-0.06,0 -0.2,-0.03 -0.25,-0.02 -1.89,0.2 -0.12,3.01 0.4,3.93 0.99,1.75 0.91,1.44 0.89,4.59 -0.02,1.94 0.01,3.69 -0.18,5.62 -0.82,0.28 -1.02,0.57 -1.06,0.7l-0.07 8.03c-0.18,2.75 1,0.8 1.38,3.71l1.14 -0.7c0.79,-0.17 0.06,-0.18 1.22,0.13 0.05,-1.99 0.42,-3.3 2.38,-3.57l0.87 0.23c0,-1.22 -0.32,-7.79 0.49,-8.53l4.23 -0.49c-0.27,-2.09 -1.81,-2.73 -2.03,-7.07 0.16,0.09 0.39,0.02 0.49,0.25l0.92 0.47c0.33,0.18 0.92,0.47 1.38,0.82 1.11,0.86 1.01,1.1 1.35,2.34 0.47,1.7 -0.01,1.81 1.27,2.85 1.54,1.25 0.38,0.02 2.43,0.57 0.75,3.82 -2.12,1.29 0.12,5.36 -0.1,0.09 -0.29,0.04 -0.33,0.2 -0.27,1.02 -0.68,-1 -1.29,1.53l-0.24 2.42 2.87 -0.32c1.54,-0.39 1.2,0.57 0.79,-0.41 1.1,-0.08 -0.23,0.4 0.03,-0.66l0.34 -0.83c0.26,-0.25 0.4,-1.09 2.84,0.81 2.56,2 -0.34,-1.66 1.18,1.18 1.34,0.05 2.08,-0.98 0.98,-0.98 0,-3.94 -0.19,-0.49 0.99,-1.56l-4.53 -4.16c-0.08,-0.07 -0.18,-0.17 -0.26,-0.25l-6.46 -6.66c-1.99,-1.63 -3.83,-2.85 -2.56,-4.68 -0.41,-1.7 -5.35,-5.26 -6.34,-7.29 -1.83,-0.94 -3.48,-3 -4.94,-4.48 -0.74,-0.75 -1.4,-1.77 -2.96,-1.39 -1.43,0.35 -1.85,1.42 -2.32,2.38z"/>
   <path class="fil30" d="M300.82 186.22c-0.34,-0.73 -1.31,-2.59 -0.42,-3.68 0,-0 0.27,-1.75 3.11,-0.13 0.79,0.45 0.48,0.37 0.92,0.8 -0.81,1.01 -2.42,2.51 -3.61,3.01zm4.25 -4.68c-0.58,-3.41 6.4,-7.79 7.13,-2.1l-7.13 2.1zm8.87 -5.45l0.07 0.71 -2.62 -0.59c-1.17,-0.88 -3.19,-0.08 -4.31,0.47 -2.43,1.17 -2.25,1.49 -2.68,2.34l-0.43 2.33c-1.95,-0.46 -1.32,-0.06 -1.88,-1.53 -3.33,1.31 -3.24,3.57 -2.21,7.27 1.68,0.04 0.86,-0.23 2.27,0.25 -0.04,-3.36 -0.14,-0.43 0.79,-1.53 0.25,-0.62 0.1,0.06 1.27,-0.47l0.75 1.1c0.1,-2.77 1.11,-3.39 3.82,-3.83 5.13,-0.82 2.5,-1.85 4.86,-2.69l0.95 1.18c0.42,0.33 0.58,-0.03 0.94,0.61 0.28,-2.53 -0.1,-0.55 1.03,-1.34 -0.17,-0.1 -0.35,-0.22 -0.5,-0.29 -0.14,-0.07 -0.31,-0.2 -0.47,-0.28l-1.56 -0.49 0.58 -3.39c2.81,-0.61 1.96,-0.24 3.93,1.46 -0.44,-1.92 -0.68,-2.1 -2.96,-2.74 -1.3,0.59 -1,0.51 -1.65,1.47z"/>
   <path class="fil31" d="M356.33 204.36l2.67 0.22 0.3 -0.82c0.06,-0.11 0.4,-0.63 0.53,-0.77 0.58,-0.6 1.64,-1.3 2.09,-1.6 0,-2.96 0.13,-2.76 -0.71,-5.28l-2.67 -0.8c-0.69,0.79 -3.42,5.47 -3.35,6.38 0.1,1.37 0.72,1.4 1.14,2.68z"/>
   <path class="fil32" d="M328.57 182.19c-0.78,0.21 -1.41,0.24 -2.24,0.18 -0.98,-0.07 -3.02,-0.63 -3.21,-1.38 -0.04,-0.17 -0.16,-0.19 -0.25,-0.29 0.95,-0.63 2.25,-1.96 3.92,-1.94 2.2,0.03 3.22,0.93 3.65,2.5l-1.87 0.93zm-7.13 1.93l0.57 -1.32c2.61,-0.02 1.64,0.28 3.52,0.73 1.77,0.42 2.25,-0.06 3.65,0.12 0.45,-0.73 -0.15,-1.1 1.79,-0.77 2.63,0.46 -1.05,-0.42 1.88,1.01 -1.77,-9.18 -10.57,-6.23 -11.94,-2.08 -0.95,2.85 0.1,2.01 0.53,2.31z"/>
   <path class="fil33" d="M311.69 151.63l2.47 -0.06c1.16,1.19 0.93,1.51 1.96,2.76 0.06,0.08 0.18,0.18 0.24,0.25 3.4,3.83 -2.17,5.99 -2.23,6 -0.96,0.13 -5.69,-3.69 -8.38,0.19l0.77 0.04c2.52,-0.63 3.86,-0.3 5.78,0.52l0.61 -0.13c0.08,-0.01 0.25,-0.02 0.35,-0.04l2.13 -0.42 -0.28 2.47c1.91,-1.94 0.04,-1.22 2,-3.84 2.52,-3.37 0.43,-3.93 -0.37,-6.57 -0.27,-0.9 -0.24,-1.37 -0.62,-2.24 -0.74,-1.7 -1.57,-2.45 -3.03,-3.2 1.39,2.79 0.67,0.36 1.46,2.96 -2.77,0.51 -1.88,0.43 -2.84,1.3z"/>
   <path class="fil34" d="M316.57 180.34c0.86,1.72 3.88,1.76 3.54,0.13 -0.08,-0.39 -0.37,-0.88 -0.55,-1.24 -0.4,-0.85 -0.49,-1.35 -1.01,-1.88 -1.97,-1.7 -1.12,-2.06 -3.93,-1.46l-0.58 3.39 1.56 0.49c0.16,0.08 0.32,0.2 0.47,0.28 0.15,0.08 0.34,0.19 0.5,0.29z"/>
   <path class="fil35" d="M292.89 231.46c-0.48,0.63 -0.34,-0.22 -0.67,1.47 -0.41,2.14 -0.7,5.3 0.14,7.17 2.95,0.23 8.29,-0.3 10.7,-0.99l0.56 -10.18c-1.4,1.97 -0.98,7.13 -1.61,9.56 -1.73,0.72 -6.31,1.11 -8.4,0.9l-0.88 -0.24c-0.77,-2.91 0.52,-4.57 0.15,-7.69z"/>
   <path class="fil36" d="M305.07 181.54l7.13 -2.1c-0.73,-5.69 -7.7,-1.31 -7.13,2.1z"/>
   <path class="fil37" d="M352.91 197.38l-0.32 3.46c2.16,-0.5 4.13,-4.48 4.94,-6.41 -0.55,-0.76 0.1,-0.24 -1.21,-0.55 -1.76,0.7 -2.85,1.33 -3.41,3.5z"/>
   <path class="fil38" d="M373.04 231.27c0.5,1.18 0.82,1.74 2.19,1.98 3.99,0.68 2.54,-7.31 2.27,-8 -2.6,-0.16 -1.39,0.12 -1.93,0.6l1.62 0.29 -0.52 6.44c-1.74,-0.07 -1.24,0.19 -2.94,-0.83 -0.08,-0.05 -0.28,-0.06 -0.34,-0.23 -0.06,-0.18 -0.23,-0.17 -0.35,-0.24z"/>
   <path class="fil39" d="M259.51 224.18c6.3,-1.36 5.68,-1.93 5.17,-3.72 -1.01,-0.29 -0.59,-0.43 -1.78,-0.29 -1.08,0.12 -0.81,0.32 -1.28,0.63l1.97 0.17c0,0 1.96,0.57 -1.15,1.59 -2.02,0.67 -1.51,-0.07 -2.93,1.62z"/>
   <path class="fil40" d="M116.01 22.28l-0.36 -1.27 -5.4 -4.6c1.07,2.11 1.16,1.75 2.65,3.22 1.73,1.71 0.83,1.49 3.11,2.64z"/>
   <path class="fil41" d="M304.06 168.98c0.15,0.08 0.36,0.02 0.45,0.23 0.08,0.2 0.33,0.16 0.43,0.21 0.72,0.35 0.24,0.12 1.16,0.55 -0.6,-1.88 0.02,-1.83 1.81,-1.82l-0.68 -0.53c-0.1,-0.07 -0.24,-0.15 -0.35,-0.22 -0.11,-0.07 -0.26,-0.13 -0.36,-0.19 -0.32,-0.18 -0.56,-0.25 -1.05,-0.59 -0.56,1.36 -0.21,0.56 -0.67,1.36 -0.11,0.18 -0.3,1 -0.48,0.68 -0.04,-0.07 -0.17,0.2 -0.25,0.31z"/>
   <path class="fil42" d="M332.02 194.5l0.83 -0.03c0.66,-1.18 1.1,-1.89 2.29,-2.65 -0.72,-1.11 1.03,-2 -1.53,0.04 -1.16,0.93 0.14,0.46 -1.63,0.98l0.04 1.66z"/>
   <path class="fil43" d="M153.75 60.23c-0.65,-1.33 0.04,-0.36 -0.93,-1.56 -0.24,-0.3 -0.61,-0.6 -0.96,-0.96 -1.34,-1.37 -0.67,-1.09 -2.42,-1.79 1.02,1.53 2.64,3.2 4.31,4.3z"/>
   <path class="fil44" d="M326.57 167.6c1.28,1.26 2.16,1.23 3.48,0 -0.94,-0.63 -2.42,-0.74 -3.48,0z"/>
   <path class="fil45" d="M311.17 162.27c-0.97,-0.5 -1.23,-0.72 -3.28,-0.22l-0.71 0.39c2.09,0.73 2.11,0.94 3.99,-0.17z"/>
   <path class="fil46" d="M312.67 158.14c0.47,-0.77 2.22,-0.77 0,-2.12 -1.14,1.16 -1.34,0.8 0,2.12z"/>
   <path class="fil47" d="M331.69 164.98c3.03,-2.59 -3.06,-2.25 0,0z"/>
   <path class="fil48" d="M329.74 188.41c1.04,-1.24 0.89,-0.52 0,-1.79 -1.22,0.74 -1.69,1.08 0,1.79z"/>
   <path class="fil49" d="M306.26 156.91c0.22,-2.8 0.5,0.68 -0.42,-0.8 -1.83,1.07 -1.25,1.06 0,1.94 0.42,-0.67 0.34,-0.07 0.42,-1.14z"/>
   <path class="fil50" d="M324.86 164.89c0.9,-1.12 0.68,-0.92 0,-1.7 -0.72,0.91 -0.6,-1.48 -0.42,0.64 0.1,1.14 -0.33,0.25 0.42,1.06z"/>
  </g>
 </g>
</svg>
