<?xml version="1.0" encoding="UTF-8"?>
<!DOCTYPE svg PUBLIC "-//W3C//DTD SVG 1.1//EN" "http://www.w3.org/Graphics/SVG/1.1/DTD/svg11.dtd">
<!-- Creator: CorelDRAW -->
<svg xmlns="http://www.w3.org/2000/svg" xml:space="preserve" width="33.8667mm" height="33.8667mm" version="1.1" style="shape-rendering:geometricPrecision; text-rendering:geometricPrecision; image-rendering:optimizeQuality; fill-rule:evenodd; clip-rule:evenodd"
viewBox="0 0 1160.91 1160.91"
 xmlns:xlink="http://www.w3.org/1999/xlink"
 xmlns:xodm="http://www.corel.com/coreldraw/odm/2003">
 <defs>
  <style type="text/css">
   <![CDATA[
    .fil0 {fill:#003D1E}
    .fil3 {fill:red}
    .fil1 {fill:white}
    .fil7 {fill:#FEFEFE;fill-rule:nonzero}
    .fil4 {fill:#FFF212;fill-rule:nonzero}
    .fil5 {fill:black;fill-rule:nonzero}
    .fil6 {fill:#003D1E;fill-rule:nonzero}
    .fil2 {fill:url(#id0)}
   ]]>
  </style>
  <radialGradient id="id0" gradientUnits="userSpaceOnUse" gradientTransform="matrix(1.14291 0.832922 -0.832922 1.14291 401 -566)" cx="580.46" cy="580.45" r="545.61" fx="580.46" fy="580.45">
   <stop offset="0" style="stop-opacity:1; stop-color:yellow"/>
   <stop offset="0.909804" style="stop-opacity:1; stop-color:#FFE515"/>
   <stop offset="1" style="stop-opacity:1; stop-color:#FFCC29"/>
  </radialGradient>
 </defs>
 <g id="Camada_x0020_1">
  <metadata id="CorelCorpID_0Corel-Layer"/>
  <g id="_2338884247248">
   <path class="fil0" d="M580.46 0c320.57,0 580.45,259.88 580.45,580.45 0,320.57 -259.88,580.46 -580.45,580.46 -320.58,0 -580.46,-259.88 -580.46,-580.46 0,-320.57 259.88,-580.45 580.46,-580.45z"/>
   <path class="fil1" d="M580.46 20.68c309.16,0 559.78,250.62 559.78,559.78 0,309.16 -250.62,559.78 -559.78,559.78 -309.16,0 -559.78,-250.62 -559.78,-559.78 0,-309.16 250.62,-559.78 559.78,-559.78z"/>
   <path class="fil2" d="M580.46 34.84c301.33,0 545.61,244.28 545.61,545.61 0,301.33 -244.28,545.61 -545.61,545.61 -301.33,0 -545.61,-244.28 -545.61,-545.61 0,-301.33 244.28,-545.61 545.61,-545.61z"/>
   <path class="fil3" d="M580.46 34.84c188.33,0 341,152.67 341,341 0,188.33 -152.67,341 -341,341 -188.33,0 -341,-152.67 -341,-341 0,-188.33 152.67,-341 341,-341z"/>
   <path class="fil4" d="M839.31 231.59c-16.99,30.84 -52.64,81.23 -78.34,104.67 30,15.35 42.79,29.48 58.75,60.81 5.79,11.36 12.18,25.53 19.18,42.5 -18.47,24.59 -45.77,40.41 -72.28,55.18 -1.74,-26.06 -3.51,-68.97 -9.89,-92.92 -4.95,-18.56 -13.78,-35.18 -30.9,-44.48l-10.5 5.23c3.43,30.75 14.58,61.31 29.08,89.78l-42.8 29.25c-7.54,4.72 -18.3,9.09 -32.3,13.11 -10.84,-37.53 -10.9,-60.46 -10.9,-96.92 0,-6.46 0.27,-12.8 0.81,-19.01l-32.71 -8.48 31.5 -19.74c5,-2.69 4.61,-0.02 6.26,-14.36 4.97,-43.17 8.26,-68.28 28.07,-109.67l18.17 4.98c-3.9,22.59 -2.79,61.77 0.4,83.98 27.23,-26.06 39.73,-56.77 53.71,-91.24l74.71 7.32z"/>
   <path class="fil4" d="M561.48 264.92c13.52,-15.26 44.22,-31.29 63.67,-38.71 22.84,81.55 30.02,154.82 -2.89,234.33l27.26 7.06c-37.03,22.19 -65.89,33.91 -106.21,15.25 -14.54,-6.73 -27.06,-17.84 -37.56,-33.33l33.52 -70.7c14.73,26.1 29.58,48.61 51.69,66.73 12.77,-79.19 -31.44,-161.14 -31.9,-169.64l2.42 -10.99z"/>
   <path class="fil4" d="M321.61 283.11c17.72,-15.41 20.22,-23.54 43.61,-42.4 36.66,31.05 63.86,70.08 83.59,113.2 -7.13,-32.64 -18.62,-64.6 -30.69,-96.18l40.79 -16.05 -0.4 0.02 34.73 -14.21c15.71,87.98 13.74,165.27 -18.17,250.24 -6.46,17.2 -14.13,33.77 -23.02,49.72l0.81 -47.68c1.08,-3.54 1.21,-6.1 0.4,-7.69l0 0.4c-15.21,-47.17 -40.48,-93.64 -76.32,-127.6 0,38.39 3.99,63.15 22.01,98.52 5.25,10.3 11.78,20.96 19.58,31.98l-80.76 36.92c-16.36,-65.94 -16.9,-130.06 3.23,-194.36 -8.47,-6.75 -10.92,-14.79 -17.77,-17.11l-1.61 -17.71z"/>
   <path class="fil5" d="M822.35 240.7c-16.91,30.47 -51.94,78.68 -81.17,97.51 32.1,14.86 49.56,25.98 67.04,58.29 5.92,10.96 12.25,24.92 18.98,41.9 -13.56,17.86 -32.44,29 -51.69,39.88 -2.97,-43.29 -2.74,-110.95 -48.46,-132.68l-22.21 10.52c2.13,33.95 10.47,63.64 26.25,93.52 -18.56,12.29 -32.91,25.07 -54.92,32.32 -9.38,-35.1 -8.12,-77.46 -6.06,-113.65 -6.97,0.26 -14.09,0.76 -21,-1.64 9.01,-6.12 13.93,-6.48 22.61,-12.14 7.52,-47.88 5.19,-72.56 28.27,-120.58 -4.52,26.41 -1.71,75.15 3.23,101.64 38.61,-30.38 49.7,-57.42 68.25,-99.85l50.88 4.98z"/>
   <path class="fil5" d="M568.34 272.34c11.63,-14.38 33.23,-26.03 50.28,-32.96 22.49,78.4 22.82,155.4 -10.16,228.54l16.29 3.03c-33.77,19.84 -84.08,11.88 -107.69,-22.65l23.02 -48.51c17.53,31.65 31.08,43.15 57.34,64.51 12.88,-52.71 2.88,-108.39 -16.15,-156.69 -5.39,-13.67 -9.69,-25.42 -12.92,-35.26z"/>
   <path class="fil5" d="M327.66 291.36c12.17,-10 21.96,-24.82 37.15,-37.32 53.4,44.88 85.54,113.9 101.36,180.79 3.41,-62.63 -12.33,-113.34 -34.73,-170.74 15.18,-4.61 36.76,-16.94 54.11,-23.01 12.92,69.55 10.68,185.35 -23.42,248.01 -0.69,-8.93 2.83,-12.94 0.81,-20.22 -6.6,-23.73 -24.39,-59.72 -37.76,-80.98 -15.36,-24.43 -34.86,-46.55 -57.14,-64.11 -4.39,57.27 1.33,99.49 35.13,147.31l-58.55 26.8c-13.99,-57.55 -11.36,-128.65 8.08,-184.44 -9.69,-6.42 -15.39,-18.06 -25.04,-22.09z"/>
   <path class="fil6" d="M346.97 859.98c24.6,11.31 32.34,19.73 45.43,43.05 2.59,4.63 4.4,7.95 5.42,9.97l-31.33 9.46c-7,-18.57 -17.89,-40.76 -32,-55.06 -0.58,0.27 -1.31,0.67 -2.21,1.17 -4.93,17.27 -18.74,39.94 -29.02,53.15l4.69 -41.26 -13.32 5.8 13.32 -10.78c0,-20.34 -5.79,-37.57 -14.16,-55.1l37.73 -16.32 3.5 43.59c7.54,-7.62 14.14,-29.14 16.11,-38.69l29.7 9.24c-7.33,14.24 -18.94,33.31 -33.86,41.78zm122.18 0.27c-3.03,-7.61 -7.17,-13.4 -14.37,-20.66l-12.79 27.98c6.76,-0.96 15.82,-3.38 27.16,-7.32zm-32.03 28.82l0.5 32.91 -31.76 -7.48 3.85 -23.46 -13.67 -2.37 7.7 -29.12 14.34 5.29c5.7,-11.51 14.84,-20.11 29.54,-32.13l-9.47 -8.13 33.8 -20.29c9.27,13.83 20.08,37.06 20.08,55.08 0,18.86 -8.26,43.66 -15.38,60.3 0,-17.39 -0.36,-35.38 -5.19,-52.42 -10.81,9.64 -22.26,16.93 -34.33,21.83zm93.36 -81.44c23.23,2.41 48.05,12.22 48.05,39.42 0,10.83 -8.33,20.66 -25,29.39 17.79,5.45 26.87,12.21 35.87,25.63 3.32,4.94 5.54,8.58 6.61,10.93l-31.29 9.46c-1.96,-12.01 -14.62,-31.19 -24.16,-39.92 -7.34,2.75 -13.58,4.8 -18.71,6.18l-20.4 32.19 3.67 -28.14 -5.97 1.29c0.17,0 2.21,-0.94 6.15,-2.85 1.9,-30.83 -0.59,-44.13 -12.47,-71.65l20.83 -9.32 -8.19 -3.29 16.03 -0.07 8.22 -3.65c0.06,0 0.29,1.46 0.76,4.38zm0.52 67.15c-0.61,-0.5 -1.4,-1.02 -2.3,-1.55l-1.89 4.99 4.2 -3.43zm3.5 -3.4c17.15,-17.32 16.96,-33.99 -2.3,-49.8 1.42,17.38 2.2,34.23 -2.65,48.83 1.86,0.52 3.53,0.85 4.95,0.98zm133.96 -11.93c-3.03,-7.61 -7.17,-13.4 -14.37,-20.66l-12.79 27.98c6.76,-0.96 15.82,-3.38 27.16,-7.32zm-32.03 28.82l0.5 32.9 -31.76 -7.48 3.85 -23.46 -13.67 -2.37 7.7 -29.12 14.34 5.29c5.69,-11.51 14.85,-20.11 29.54,-32.13l-9.47 -8.13 33.8 -20.29c9.27,13.82 20.08,37.06 20.08,55.08 0,18.86 -8.26,43.66 -15.38,60.3 0,-17.39 -0.36,-35.38 -5.19,-52.41 -10.81,9.64 -22.26,16.92 -34.33,21.82zm92.78 -48.52c-10.87,1.45 -29.24,-2.55 -38.79,-5.49l15.71 -29.35c7.32,4.09 16.22,8 25.73,10.32l1.02 -16.97 7.52 18.1c16.15,-0.07 34.35,-3.03 47.24,-7.2 -11.04,8.57 -27.56,19.46 -41.93,25.74 5.5,20.4 6.48,31.91 0.88,51.27l-12.94 33.83 -29.81 -16.82c14.76,-16.44 21.38,-38.84 25.38,-63.43zm91.27 14.91l40.18 -9.69 -3.15 27.94 -38.58 -4.82c-2.16,10.47 -5.34,19.68 -9.47,27.67 19.33,-9.57 28.85,-10.01 50.74,-8.11 4.57,0.38 7.95,0.7 10.11,0.96l-16.46 31.91c-12.59,-17.51 -49.36,-14.43 -51.9,-12.94 -2.62,3.43 -5.04,6.2 -7.28,8.23 -2.24,2.07 -3.85,3.37 -4.75,3.97 0,0 0.58,-3.45 1.72,-10.33 -9.17,1.74 -14.24,5.04 0.5,-3.79l2.3 -40.09 -13.14 -1.31 12.82 -3.07c-0.49,-7.3 -3.82,-18.52 -6.67,-25.68l-6.15 -1.24c0.17,0 1.95,-0.4 5.31,-1.18l-6.15 -14.69 34.65 -16.28 3.41 21.14c13.27,-5.56 21.97,-10.86 28.85,-23.66l21.85 24.82c-13.34,7.82 -32.28,16.48 -48.9,14.38l0.17 15.87z"/>
   <path class="fil6" d="M88.77 711.55l43.65 -12.15c4.47,16.07 12.68,32.47 -4.13,37.15 -15.4,4.28 -17.84,-10.83 -20.6,-20.74l-16.46 4.58 -2.46 -8.84zm38.74 -1.25l-12.44 3.46c1.79,6.42 3.1,15.83 10.56,13.75 7.49,-2.08 3.7,-10.67 1.88,-17.21zm-27.07 42.23l42.1 -16.76c2.48,6.21 9.76,22.8 9.9,28.16 0.25,10.09 -15.88,18.8 -24.11,4.58 -1.16,7.74 -7.21,14.25 -12.81,21.88l-4.05 -10.16c11.55,-16.67 13.82,-16.45 9.94,-26.18l-17.58 7 -3.39 -8.53zm27.68 -1.14c3.56,8.94 5.32,17.77 12.31,14.99 6.88,-2.74 1.87,-10.52 -1.6,-19.25l-10.7 4.26zm7.84 32.4c28.81,-14.25 48.11,25.27 19.69,39.33 -28.3,14 -47.7,-25.47 -19.69,-39.33zm4.45 8.32c-18.76,9.28 -8.04,32.01 11.25,22.46 18.89,-9.34 7.63,-31.81 -11.25,-22.46zm-1.42 46.85l39.37 -22.44 15.42 27.05 -6.65 3.79 -10.87 -19.08 -9.34 5.33 9.4 16.49 -6.65 3.79 -9.4 -16.49 -16.71 9.52 -4.55 -7.97zm16.62 26.96l7.27 -4.73 4.73 7.27 -7.27 4.73 -4.73 -7.27zm19.75 28.97l35.58 -28.05c4.14,5.25 15.85,19.08 17.5,24.18 3.12,9.6 -9.88,22.55 -21.8,11.25 1.09,7.75 -2.86,15.71 -6.05,24.63l-6.77 -8.59c6.33,-19.26 8.56,-19.7 2.08,-27.93l-14.86 11.72 -5.68 -7.21zm26.21 -8.97c5.96,7.56 10.16,15.52 16.06,10.87 5.82,-4.58 -1.21,-10.63 -7.02,-18l-9.05 7.13zm17.57 27.87c23.18,-22.27 53.5,9.59 30.63,31.56 -22.76,21.88 -53.16,-9.9 -30.63,-31.56zm6.76 6.59c-15.09,14.51 1.99,32.94 17.5,18.02 15.2,-14.61 -2.31,-32.62 -17.5,-18.02zm13.28 44.72l29.74 -34.19 10.37 9.02 -14.16 28.65 26.34 -18.05 10.39 9.04 -29.74 34.19 -6.4 -5.56 23.39 -26.94 -30.15 21.05 -6.65 -5.79 16.7 -32.75 -23.44 26.89 -6.4 -5.57zm41.04 33.31l26.63 -36.66 27.14 19.71 -4.5 6.2 -19.71 -14.32 -5.91 8.14 18.33 13.31 -4.5 6.2 -18.33 -13.31 -7.22 9.93 20.43 14.84 -4.5 6.2 -27.85 -20.23zm34.24 24.28l22.7 -39.21c5.79,3.35 21.77,11.87 25.2,16 6.44,7.77 -0.85,24.59 -16.11,18.51 3.88,6.79 3.15,15.65 3.47,25.12l-9.46 -5.48c-1.23,-20.25 0.68,-21.47 -8.38,-26.72l-9.48 16.37 -7.94 -4.6zm21.04 -18.02c8.32,4.82 15.18,10.67 18.94,4.16 3.71,-6.41 -5.04,-9.43 -13.17,-14.13l-5.77 9.97zm26.57 19.15c13.09,-29.35 53.17,-11.25 40.26,17.72 -12.85,28.84 -52.98,10.83 -40.26,-17.72zm8.74 3.56c-8.53,19.12 14.24,29.77 23,10.11 8.58,-19.25 -14.42,-29.36 -23,-10.11zm82.24 53.75l-9.53 -2.62 -1.04 -10.98 -17.53 -4.81 -6.36 8.95 -9.36 -2.57 28.96 -39.04 9.34 2.56 5.52 48.5zm-11.42 -21.77l-1.63 -17.84 -10.34 14.55 11.97 3.29zm16.78 22.88l10.24 -43.75 8.93 2.09 -8.49 36.29 22.13 5.18 -1.75 7.46 -31.06 -7.27zm37.24 8.93l5.33 -45 33.31 3.94 -0.9 7.61 -24.19 -2.87 -1.19 9.99 22.5 2.66 -0.9 7.61 -22.5 -2.66 -1.45 12.19 25.08 2.97 -0.9 7.61 -34.19 -4.05zm37.65 3.89l17.39 -22.37 -12.5 -22.7 10.65 0.81 7.87 14.13 9.92 -12.77 10.67 0.81 -15.83 20.55 13.77 24.74 -10.96 -0.84 -8.85 -16.07 -11.19 14.54 -10.97 -0.83zm86.96 0.96l-9.88 0.34 -4.27 -10.17 -18.16 0.62 -3.41 10.44 -9.7 0.33 16.03 -45.89 9.69 -0.33 19.7 44.66zm-17.38 -17.39l-6.87 -16.54 -5.54 16.97 12.41 -0.43zm22.26 16.51l-5.33 -45 8.82 -1.05 22.09 27.96 -3.57 -30.16 8.42 -0.99 5.33 45 -9.1 1.08 -21.74 -27.42 3.5 29.58 -8.42 1zm35.42 -49.71c18.21,-4.2 36,-12.61 42.13,13.97 5.91,25.65 -14.82,26.23 -31.94,30.18l-10.19 -44.15zm10.66 5.4l6.75 29.23c12.38,-2.86 19.19,-2.68 15.44,-18.94 -3.64,-15.78 -10.32,-13.03 -22.18,-10.28zm44.45 28.77l-15.03 -42.75c6.31,-2.22 23.18,-8.83 28.55,-8.74 10.1,0.16 18.13,16.64 3.59,24.27 7.69,1.47 13.94,7.79 21.35,13.69l-10.32 3.63c-16.19,-12.23 -15.87,-14.47 -25.75,-11l6.28 17.85 -8.66 3.04zm-0.01 -27.7c9.07,-3.19 17.98,-4.59 15.48,-11.69 -2.46,-6.98 -10.44,-2.3 -19.3,0.82l3.82 10.87zm43.14 12.39l-16.23 -42.31 31.31 -12.01 2.75 7.15 -22.75 8.73 3.61 9.39 21.15 -8.11 2.74 7.15 -21.15 8.11 4.4 11.46 23.57 -9.05 2.75 7.15 -32.14 12.33zm48.23 -34.17l-3.85 -7.77 15.32 -7.58 3.85 7.77 -15.32 7.58zm29.68 -20.12l7.02 -5.58c10.85,11.61 24.05,-6.95 14.79,-9.9 -5.88,-1.87 -22.38,11.44 -30.55,-1.22 -9.17,-14.21 18.13,-33.01 29.04,-17.32l-7.54 5.24c-9.78,-10.75 -26.76,14.8 -3.16,6.43 8.82,-3.13 16.59,-4.99 22.16,3.65 8.79,13.63 -10.67,26.84 -20.89,25.42 -4.01,-0.55 -7.63,-2.8 -10.87,-6.72zm45.17 -12.89l-27.82 -35.29 7.21 -5.68 23.07 29.27 17.85 -14.06 4.74 6.01 -25.05 19.75zm29.84 -23.52l-31.4 -32.66 9.91 -9.52 27.27 16.65 -15.63 -27.84 9.93 -9.55 31.4 32.66 -6.11 5.88 -24.75 -25.69 18.28 31.9 -6.36 6.11 -31.13 -19.55 24.7 25.74 -6.12 5.88zm39.38 -57.49l-6.54 -5.69 11.22 -12.89 6.54 5.69 -11.22 12.89zm34.21 -22.89l-36.88 -26.33c9.69,-13.57 17.3,-30.27 31.5,-20.12 13.01,9.29 2.78,20.69 -3.2,29.05l13.91 9.93 -5.33 7.47zm-25.31 -29.35l10.51 7.5c3.88,-5.43 10.36,-12.35 4.06,-16.85 -6.33,-4.52 -10.63,3.83 -14.57,9.35zm49.39 -5.72l-39.49 -22.23 16.46 -29.23 6.67 3.76 -11.95 21.23 8.77 4.94 11.11 -19.74 6.67 3.76 -11.12 19.74 10.7 6.02 12.39 -22 6.67 3.75 -16.89 30zm19.04 -32.22l-36.41 -31.54 3 -5.79 36.38 31.59 -2.97 5.73zm-25.98 -53.37c3.04,-7.53 8.38,-24.19 13.71,-27.77 7.03,-4.71 16.58,-0.21 16.94,8.44 8.58,-10.81 24.63,-1.2 20.99,11.65l-9.63 24.65 -42.01 -16.98zm10.42 -5.69l9.68 3.91c3.03,-7.51 8.08,-15.78 1.7,-18.36 -6.26,-2.53 -7.99,6.03 -11.39,14.44zm16.66 6.74l11.27 4.55c3.54,-8.78 8.96,-17.27 1.74,-20.18 -7.29,-2.95 -9.61,7.22 -13.01,15.63zm31.09 -26.62l-43.49 -12.72c1.88,-6.42 6.35,-23.98 9.55,-28.28 6.02,-8.11 24.09,-5.03 21.81,11.23 5.68,-5.38 14.45,-6.78 23.57,-9.35l-3.07 10.5c-19.37,6.02 -21.01,4.45 -23.96,14.5l18.16 5.31 -2.57 8.81zm-22.51 -16.14c2.7,-9.22 6.75,-17.28 -0.47,-19.39 -7.11,-2.08 -7.95,7.13 -10.59,16.16l11.06 3.23z"/>
   <path class="fil5" d="M272.1 629.44l32.24 -27.61 5.59 6.53 -12.7 10.88 10.87 12.7 12.7 -10.88 5.59 6.53 -32.24 27.61 -5.59 -6.53 14.09 -12.07 -10.87 -12.7 -14.1 12.07 -5.59 -6.53zm57.68 1.09l6.2 5.95 -20.6 21.94c-4.18,6.57 5.16,15.76 11.01,11.41l21.53 -21.9 6.2 5.95c-7.26,7.57 -21.25,24.74 -28.97,25.51 -9.28,0.93 -24.42,-13.2 -17.92,-24.14l22.55 -24.72zm2.45 59.74l24.88 -34.39 10.43 7.54 -10.8 27.91 23.06 -19.05 10.46 7.57 -24.88 34.39 -6.43 -4.66 19.56 -27.09 -26.36 22.17 -6.69 -4.84 12.83 -31.95 -19.61 27.06 -6.44 -4.66zm39.98 28.01l21.25 -36.74 7.44 4.3 -21.25 36.74 -7.44 -4.3zm14.69 8.93l18.95 -37.58 7.68 3.87 -15.72 31.18 19 9.58 -3.23 6.41 -26.68 -13.45zm47.84 -23.22c16.25,6.53 34.41,9.6 24.88,33.31 -9.2,22.88 -25.46,12.2 -40.71,6.06l15.84 -39.38zm5.3 9.86l-10.49 26.07c11.03,4.44 16.18,8.23 22.01,-6.28 5.66,-14.07 -0.94,-15.54 -11.53,-19.79zm55.72 54.64l-8.93 -2.46 -0.96 -10.29 -16.41 -4.53 -5.97 8.37 -8.76 -2.42 27.18 -36.53 8.75 2.42 5.09 45.44zm-10.66 -20.41l-1.5 -16.71 -9.7 13.62 11.21 3.1zm23.28 -20.59c17.2,3.2 35.63,2.63 30.95,27.76 -4.51,24.25 -22.56,16.98 -38.72,13.97l7.76 -41.73zm7.14 8.62l-5.14 27.62c11.7,2.18 17.48,4.88 20.34,-10.49 2.78,-14.92 -4,-15.04 -15.2,-17.13zm27.38 39.16l3.22 -42.32 31.33 2.39 -0.55 7.15 -22.76 -1.73 -0.71 9.4 21.16 1.61 -0.55 7.15 -21.16 -1.61 -0.87 11.47 23.58 1.8 -0.55 7.15 -32.15 -2.45zm56.01 1.72l-3.22 -42.32 31.32 -2.39 0.55 7.15 -22.75 1.73 0.71 9.4 21.16 -1.61 0.54 7.15 -21.16 1.61 0.87 11.47 23.58 -1.79 0.55 7.15 -32.16 2.45zm45.78 -47.93c17.07,-3.94 33.71,-11.81 39.46,13.09 5.55,24.03 -13.9,24.57 -29.92,28.27l-9.54 -41.36zm9.99 5.06l6.32 27.38c11.59,-2.67 17.98,-2.51 14.46,-17.74 -3.41,-14.79 -9.67,-12.2 -20.78,-9.64zm41.36 26.46l-14 -40.07 8.11 -2.83 14 40.07 -8.11 2.83zm8.46 -17.59l7.5 -3.78c7.73,12.72 23.39,-1.79 15.45,-6.26 -5.03,-2.84 -22.71,6.22 -27.78,-6.94 -5.7,-14.78 22.91,-26.82 29.93,-10.36l-7.91 3.37c-6.92,-11.72 -27.37,8.47 -4.12,5.3 8.68,-1.19 16.16,-1.42 19.63,7.57 5.46,14.16 -14.89,22.59 -24,19.34 -3.57,-1.27 -6.46,-4.02 -8.69,-8.23zm61.38 -29.28l8.56 -1.42c4.35,21.92 -25.19,32.39 -36.58,9.53 -12.08,-24.27 15.21,-39.98 28.6,-25.29l-6.69 5.58c-6.45,-7.85 -22.67,-1.63 -14.28,15.2 8.5,17.06 23.54,9.42 20.39,-3.61zm19.68 6.32l-22.76 -35.82 7.25 -4.61 22.76 35.82 -7.26 4.61zm14.21 -8.67l-24.79 -34.45c12.68,-9.13 24.44,-21.64 33.99,-8.37 8.74,12.15 -3.76,19.19 -11.58,24.81l9.35 13 -6.98 5.02zm-13.63 -33.65l7.06 9.82c5.08,-3.65 12.91,-7.84 8.67,-13.73 -4.26,-5.92 -10.57,0.2 -15.74,3.91zm45.39 9.47l-27.65 -31.74 6.48 -5.65 22.93 26.33 16.05 -13.98 4.71 5.41 -22.53 19.63zm26.67 -23.62l-30.63 -29.38 5.95 -6.2 30.63 29.38 -5.95 6.2zm11.75 -12.24l-32.27 -27.57 5.4 -6.32 32.97 5.2 -21.62 -18.48 5.16 -6.04 32.27 27.57 -5.58 6.53 -32.39 -5.05 21.21 18.12 -5.16 6.04zm49.9 -63.96l-5.38 7.53 -10 -2.63 -9.89 13.86 5.82 8.48 -5.28 7.4 -24.98 -38.07 5.28 -7.39 44.43 10.81zm-22.83 3.01l-16.21 -4.32 9.46 13.79 6.75 -9.47z"/>
   <path class="fil7" d="M504.52 527.89l0 64.13 -17.7 0 0 -41.96c-5.98,4.54 -10.92,6.84 -18.41,9.1l0 -14.27c10.25,-3.34 17.37,-7.88 21.64,-17l14.48 0zm19.82 50l17.44 -2.17c1.75,9.25 9.94,7.75 12.92,2.36 1.14,-2.1 2.01,-6.52 2.58,-13.27 -17.4,17.87 -43.61,-5.09 -31.3,-26.47 8.07,-14.03 36.51,-15.68 45.58,3.11 5.82,12.05 8.7,51.62 -23.7,51.62 -11.89,0 -19.96,-3.56 -23.53,-15.18zm32.3 -28.14c0,-13.9 -16.97,-15.31 -16.97,-0.43 0,14.86 16.97,14.28 16.97,0.43zm36.19 8.35c-15.38,-8.14 -10.26,-30.21 14.23,-30.21 27.53,0 30.83,20.82 16.62,30.21 15.64,7.48 15.49,34.97 -15.27,34.97 -14.12,0 -26.1,-4.44 -26.1,-19.61 0,-7.5 3.49,-12.59 10.53,-15.36zm7.88 -12.37c0,9.56 14.45,9.83 14.45,0.17 0,-9.83 -14.45,-9.79 -14.45,-0.17zm-0.97 27.13c0,12.44 16.47,12.56 16.47,-0.04 0,-12.3 -16.47,-12.94 -16.47,0.04zm41.58 -43.91l51.18 0 0 11.83c-14.81,13.35 -21.52,31.09 -23.08,51.24l-17.44 0c2.73,-20.33 7.7,-32.35 20.5,-48.27l-31.15 0 0 -14.8z"/>
   <path class="fil6" d="M814.06 774.35c-7.54,11.82 -12.68,15.34 -26.55,20.96 -2.76,1.11 -4.73,1.88 -5.92,2.31l-3.99 -15.98c10.85,-2.73 24.07,-7.36 32.79,-13.79 -6.44,-15.44 9.92,2.76 23.24,7.55 4.1,1.48 7.19,2.48 9.32,3.02l-6.59 14.43c-7.78,-4.21 -18.13,-10.73 -22.29,-18.5z"/>
  </g>
 </g>
</svg>
