<?xml version="1.0" encoding="UTF-8"?>
<!DOCTYPE svg PUBLIC "-//W3C//DTD SVG 1.1//EN" "http://www.w3.org/Graphics/SVG/1.1/DTD/svg11.dtd">
<!-- Creator: CorelDRAW -->
<svg xmlns="http://www.w3.org/2000/svg" xml:space="preserve" width="42.8021mm" height="54.5369mm" version="1.1" style="shape-rendering:geometricPrecision; text-rendering:geometricPrecision; image-rendering:optimizeQuality; fill-rule:evenodd; clip-rule:evenodd"
viewBox="0 0 237.22 302.26"
 xmlns:xlink="http://www.w3.org/1999/xlink"
 xmlns:xodm="http://www.corel.com/coreldraw/odm/2003">
 <defs>
  <style type="text/css">
   <![CDATA[
    .fil4 {fill:#282829}
    .fil21 {fill:black}
    .fil1 {fill:black}
    .fil19 {fill:#6F7479}
    .fil11 {fill:#AEB3B6}
    .fil18 {fill:#C2C2C5}
    .fil9 {fill:#CFD2D3}
    .fil15 {fill:#DBDCDC}
    .fil13 {fill:#DDE0E1}
    .fil12 {fill:#E2E3E3}
    .fil14 {fill:#E6E6E6}
    .fil17 {fill:#EFEFF0}
    .fil16 {fill:#F3F3F4}
    .fil10 {fill:whitesmoke}
    .fil8 {fill:#F7F7F8}
    .fil7 {fill:#FAFAFA}
    .fil6 {fill:#FDFDFD}
    .fil5 {fill:#FEFEFE}
    .fil2 {fill:red}
    .fil20 {fill:#CCCCCC;fill-rule:nonzero}
    .fil0 {fill:url(#id0)}
    .fil3 {fill:url(#id1)}
   ]]>
  </style>
  <linearGradient id="id0" gradientUnits="userSpaceOnUse" x1="126.25" y1="3.74" x2="126.25" y2="314.61">
   <stop offset="0" style="stop-opacity:1; stop-color:#CCCCCC"/>
   <stop offset="0.0901961" style="stop-opacity:1; stop-color:#999999"/>
   <stop offset="0.239216" style="stop-opacity:1; stop-color:#D1D1D1"/>
   <stop offset="0.4" style="stop-opacity:1; stop-color:#D5D5D5"/>
   <stop offset="0.560784" style="stop-opacity:1; stop-color:#B3B3B3"/>
   <stop offset="0.690196" style="stop-opacity:1; stop-color:#DEDEDE"/>
   <stop offset="1" style="stop-opacity:1; stop-color:#E6E6E6"/>
  </linearGradient>
  <linearGradient id="id1" gradientUnits="userSpaceOnUse" xlink:href="#id0" x1="124.12" y1="57.36" x2="124.12" y2="257.33">
  </linearGradient>
 </defs>
 <g id="Camada_x0020_1">
  <metadata id="CorelCorpID_0Corel-Layer"/>
  <g id="_2573039252640">
   <path class="fil0" d="M-0 37.3c45.78,-3.42 58.52,-37.3 118.61,-37.3 68.54,0 77.14,38.84 118.61,37.3 0,65 0,130.01 0,195.01 -58.1,101.95 -200.74,84.17 -237.22,0 0,-65 0,-130.01 0,-195.01z"/>
   <path class="fil1" d="M10.21 230.13c3.74,8.13 8.65,15.63 14.52,22.39 24.85,28.6 64.72,41.81 101.93,39.19 42.69,-3 78.6,-25.61 100.35,-62.17 0,-60.81 0,-121.63 0,-182.44 -7.18,-0.82 -14.03,-2.8 -20.94,-5.93 -12.35,-5.6 -23.29,-13.97 -35.55,-19.95 -16.66,-8.12 -33.44,-11.02 -51.92,-11.02 -14.57,0 -28.15,2.12 -41.73,7.47 -10.98,4.33 -20.86,10.36 -31.25,15.84 -11.82,6.24 -22.84,10.67 -35.42,12.81 0,61.27 0,122.53 0,183.8z"/>
   <path class="fil2" d="M25.51 78.01c8.15,-4.88 15.97,-9.22 24.67,-13.12 11.99,-5.37 24.86,-10.2 37.4,-14.12 12.24,-3.83 22.61,-5.99 35.5,-5.03 14.21,1.06 29.28,5.42 42.58,10.41 15.33,5.75 30.14,13.08 44.83,20.3l5.26 2.58 0.03 5.86c0.12,27.06 0.24,54.12 0.36,81.18l0 0.38 -0.03 0.38c-0.52,6.86 -1.4,12.5 -3.47,19.13 -3.09,9.94 -7.81,20.24 -13.2,29.14 -6.42,10.61 -14.27,19.73 -24.69,26.62 -10.49,6.95 -23.35,11.53 -35.6,14.28 -11.78,2.64 -23.5,3.63 -35.5,2.14 -11.48,-1.42 -23.44,-5.07 -33.54,-10.69 -9.58,-5.33 -16.99,-12.26 -23.98,-20.61 -7.02,-8.38 -13.26,-17.68 -17.42,-27.83 -4.17,-10.16 -6.11,-20.89 -8.01,-31.64l-0.15 -0.84 0 -0.85c0.12,-26.53 0.24,-53.07 0.36,-79.6l0.02 -5.33 4.57 -2.74z"/>
   <path class="fil3" d="M30.46 86.12c-0.12,26.53 -0.24,53.06 -0.36,79.6 1.8,10.16 3.61,20.33 7.45,29.7 3.85,9.37 9.73,17.95 15.92,25.35 6.19,7.39 12.68,13.6 21.33,18.41 8.65,4.82 19.47,8.25 30.1,9.57 10.64,1.32 21.09,0.53 32.27,-1.98 11.18,-2.51 23.07,-6.73 32.45,-12.94 9.37,-6.2 16.22,-14.39 21.81,-23.63 5.59,-9.24 9.91,-19.54 12.26,-27.06 2.34,-7.52 2.7,-12.28 3.06,-17.03 -0.12,-27.06 -0.24,-54.12 -0.36,-81.18 -14.78,-7.26 -29.56,-14.52 -43.98,-19.93 -14.42,-5.41 -28.48,-8.98 -39.96,-9.83 -11.48,-0.86 -20.37,0.99 -31.97,4.62 -11.6,3.63 -25.9,9.04 -36.35,13.73 -10.46,4.69 -17.07,8.65 -23.67,12.61z"/>
   <path class="fil1" d="M112.58 100.82c1.61,0.18 3.36,-0.48 4.76,-0.94l0.55 -25.16c1.98,4.07 0.76,20.35 1.62,26.51l4.87 -0.03c0.71,-3.21 0.01,-16.31 0.01,-20.5 -0,-1.57 0.12,-3.63 0.02,-5.14 -0.16,-2.47 -5.62,-8.46 -6.06,-8.69 -1.63,1.51 -2.73,3.47 -4.18,5.32 -2.34,2.97 -1.68,3.7 -1.68,8.51 0,4.77 -0.64,16.14 0.1,20.11zm0.44 108.19c1.39,0.89 3.74,0.53 5.32,0.5l3.87 -0.61c1.34,-0.63 0.47,-0.23 0.91,-0.68 -1.32,-0.53 -3.1,0.42 -4.78,0.5 -5.8,0.28 -4.3,-1.31 -5.33,0.3zm11.68 7.32c-1.26,-1.83 -1.82,-0.07 -5.25,0.1 -2.14,0.11 -4.18,-0.03 -6.31,-0.07 0.51,0.66 -0.05,0.92 2.64,0.96 3.71,0.06 7.48,-1.03 8.92,-0.99zm-0.72 -5.34l0 -0.39c-2.5,-0.22 -3.79,0.98 -8.57,0.68 -0.23,-0.01 -1.26,-0.16 -1.3,-0.16 -1.06,0.04 -0.52,-0.25 -0.87,0.66 3.38,1.19 7.7,-0.1 10.74,-0.79zm-0.15 1.76l-0.39 0.23c-9.1,1.71 -4.77,0.54 -9.12,0.78 -1.76,0.1 -0.47,-0.08 -1.14,0.4 0.53,0.4 -0.88,0.55 2.61,0.57l6.01 -0.39c0,0 1.06,-0.3 1.07,-0.3 1.48,-0.8 0.61,0.43 0.96,-1.29zm1.2 5.65l0 -0.16c-1.7,-0.71 -4,1.1 -8.51,0.85 -0.58,-0.03 -1.29,-0.19 -1.85,-0.19l-1.45 0.41c2.03,1.77 9.97,0.06 11.81,-0.91zm-1.73 -13.2c-2.1,0.31 -3.61,0.89 -5.68,0.95 -1.55,0.04 -4.08,-0.77 -5,-0.31 0.78,2.11 6.41,1.11 8.21,0.77 2.85,-0.54 2.06,-0.59 2.47,-1.41zm-10.91 -1.09c4.83,0.65 6.76,-0.27 10.93,-0.62 -0.89,-1.37 -4.07,-0.72 -5.53,-0.63 -3.12,0.19 -2.93,0.1 -5.4,1.25zm0.75 20.35c1.57,2.39 12.17,-0.2 12.42,-0.98 0.04,-0.13 0.15,-0.14 0.22,-0.21 -1.06,-0.8 -1.62,-0.25 -3.1,0.32 -3.43,1.32 -8.25,0.42 -8.99,0.55l-0.55 0.31zm7.39 4.71c-1.43,0.37 -5.01,1.33 -6.27,0.04 -1.35,0.14 -0.52,-0.32 -1.34,0.4 1.16,2.34 12.43,0.37 13.83,-1.58 -0.75,-0.66 -0.25,-0.67 -1.56,-0.14 -1.67,0.69 -2.48,1.16 -4.66,1.28zm4.97 -7.8l-0.06 -1.25c-5.47,1.58 -6.24,1.4 -12.36,1.35 0.74,1.43 0.87,1.24 2.69,1.27 5.01,0.09 7.65,-1.17 9.73,-1.37zm-12.41 5.86c0.64,0.76 0.08,0.64 1.59,0.82 0.47,0.06 1.35,0.05 1.84,0.05 1.56,-0.01 2.32,-0.16 3.66,-0.46 2.72,-0.6 5.46,-0.34 6.03,-2.39 -1.02,-0.38 -0.99,0.07 -2.8,0.73 -3.65,1.33 -5.77,0.95 -8.74,0.75 -3.09,-0.21 -0.65,-0.33 -1.58,0.5zm0.08 6.12c2.34,-0.4 4.81,0.15 7.21,-0.39 2.03,-0.46 4.22,-1.22 6.19,-1.55l0.66 -1.34c-1.16,-0.12 -5.02,1.52 -7,1.96 -2.92,0.65 -5.4,-0.33 -7.67,0.04l0.62 1.28zm0.04 1.09c0.09,1.59 -0.38,0.76 0.71,1.56 0.55,0.4 1.31,0.54 1.97,0.66 3.39,0.65 10.39,-0.27 10.75,-4.18 -3.46,1.8 -8.89,3.53 -13.43,1.95zm10.32 -41.57c-1.44,0.55 -10.08,0.13 -12,-0.25 -0.21,5.83 -0.23,3.41 4.63,3.18 2.86,-0.14 6.23,-0.11 9.17,0.08l0.05 -3.22 -1.84 0.2zm4.32 2.88c-0.34,0.65 -0.34,0.72 -0.75,1.3 -2.47,0.3 -5.12,0.03 -7.67,0.12 -2.56,0.1 -4.31,0.57 -6.91,0.71 -4.19,2.12 -10.47,-1.03 -10.23,4.9 2.36,1.77 5.1,1.89 7.08,-0.75 4.37,-5.83 22.63,1.84 25.31,-4.9 -1.16,-3.14 -4.57,-2.25 -6.84,-1.39zm19.66 -72.42c2.46,-0.59 11.21,-4.7 14.65,-6.09 0.5,-0.2 1.76,-0.57 2.15,-0.17 2.05,2.09 -4.09,3.67 -7.46,5.08 -2.5,1.05 -7.21,2.67 -9.08,4.1 -0.04,2.78 -0.53,7.05 1.29,6.79l3.65 -1.51c2.52,-1.05 13.52,-5.84 14.71,-5.92 0.93,-4.02 -0.01,-3.1 0.08,-9.28 0.06,-4.44 0.75,-4.36 3.88,-5.68 2.37,-1 11.22,-5.26 13.06,-5.24l-0.53 -1.34c-1.91,0.09 -15.14,6.23 -18.18,7.55 -6.04,2.62 -12.23,5.42 -18.19,7.86l-0.02 3.84zm23.66 -1.09c0.63,-0.9 13.9,-6.58 16.25,-7.87 -0.08,-2.36 -1.97,-4.36 -1.86,-6.85 -1.95,-0.55 -8.61,3.01 -11.33,4.21 -4.73,2.1 -5.11,1.19 -4.86,7.8 0.1,2.58 0.01,2.63 1.8,2.7zm-25.7 -9.16c-0.02,1.61 0.79,3.13 1.84,4.05 2.21,-1.91 33.59,-13.98 35.52,-15.83l-0.32 -1.58 -0.63 -1.37c-3.83,0.71 -34.13,14.95 -36.41,14.73zm14.97 51.1c0.58,3.5 -3.25,38.8 -2.79,43.25l8.06 1.82 4.12 0.43c0.15,-9.57 0.59,-19.33 0.84,-29.18 0.22,-8.7 2.54,-16.42 -3.83,-16.7 -2.03,-0.09 -4.91,-0.24 -6.39,0.38zm-9.98 -4.51c3.9,0.41 1.53,6.9 1.11,10.23 -0.3,2.37 0.36,4.19 1.4,5.43 1.98,2.36 1.9,1.22 1.57,4.86 -0.32,3.48 -1.95,24.95 -1.41,26.63 2.62,0.36 1.9,-0.77 2.04,-3.75 0.09,-1.91 0.4,-3.79 0.54,-5.66l2.79 -35.12c0.38,-0.78 -0.24,-0.61 1.02,-1.09 15.91,0.02 13.95,1.98 13.64,18.13l-0.83 23.75c-0.02,1.32 -0.02,2.65 -0.08,3.97 -0.15,3.18 -0.13,2.81 0.75,3.32 1.04,-0.68 0.68,-0.05 0.81,-2.11 0.05,-0.82 0.01,-1.82 0.06,-2.71l0.6 -10c0.03,-1.49 -0.11,-3.73 0.48,-4.78 -0.23,-1.11 0.19,-13.09 0.48,-14.43 0.93,-4.32 6.5,-3.51 10.65,-3.48 -0.34,-2.34 -4.84,-3.24 -5.62,-6.17 -2.2,-1.8 -0.21,-2.3 -2.88,-3.45 -6.36,-2.75 -22.93,-9.22 -27.5,-11.53 -0.09,1.68 0.45,2.29 0.39,4.26 -0.06,1.9 -0.49,2.1 0,3.71zm31.1 1.82c1.83,-2.19 4.96,-1.08 6.01,-2.76 -0.28,-0.82 0.29,-0.61 -2.25,-1.17 -1.93,-0.42 -3.31,-1.34 -4.16,-3.33 -0.48,-1.12 -0.14,-0.37 -0.41,-1.49l-0.37 -1.27c-0.59,-1.69 -28.92,-11.76 -30.34,-13.39l-1.83 -0.33 0.07 4.36c1.11,1.11 2.85,1.53 4.44,2.25 4.54,2.06 1.6,-0.6 4.61,-0.67 0.95,1.81 -0.15,2.9 -1.46,3.62 -2.85,0.29 -4.62,-1.68 -7.42,-2.08l0.09 3.22c1.88,0.91 10.53,4.86 12.07,5.07 0.69,-0.85 0.98,-2.13 1.36,-3.21 0.53,-1.51 0.52,-1.95 2.18,-1.7 0.22,1.31 -1.08,4.74 -1.59,5.64 1.45,0.07 0.38,1.25 1.84,-2.9 0.49,-1.41 0.69,-2.17 2.04,-1.75 0.98,2.07 -1.77,4 -1.06,5.91 1.45,-1.69 0.98,-4.26 2.88,-5.13 1.92,1.02 -0.17,3.1 -0.58,5.81 0.54,-0.55 0.19,-0.07 0.69,-0.81 0.06,-0.09 0.12,-0.18 0.18,-0.27 0.05,-0.09 0.1,-0.19 0.15,-0.28 0.73,-1.46 0.34,-3.24 2.58,-3.29 0.58,2.04 -1.12,3.5 -1.28,6.11 0.91,-0.99 1.02,-1.68 1.45,-2.96 0.46,-1.35 0.42,-1.87 1.91,-2.03 1.4,2.13 -1.71,4.22 -0.73,5.87 1.97,-2.79 0.62,-4.92 3.28,-4.87 0.95,1.81 -1.11,3.43 -1.05,5.86 1.89,1.29 4.72,2.72 6.7,1.97zm-124.97 4.74c-0.93,2.98 -4.59,4.24 -6.22,6.58 11.16,0.65 10.49,-1.31 11.32,11.12 0.27,4.03 1.26,19.51 0.77,22.45 0.59,0.94 0.21,0.5 0.39,1.85 0.3,2.18 -0.39,1.34 0.85,2.11 0.82,-0.36 1.07,0.25 0.85,-3.29 -0.09,-1.47 -0.11,-2.91 -0.17,-4.38 -0.11,-2.65 -0.22,-5.41 -0.35,-8.2 -0.25,-5.56 -0.24,-11.17 -0.48,-16.75 -0.3,-6.88 -2.44,-15.96 6.71,-16.4 2.06,-0.1 6.1,-0.76 7.58,0.25 1.64,2.65 2.75,43.1 4.45,45.34l1.62 -0.45 -1.74 -25.02c-0.3,-2.96 -0.75,-3.66 0.82,-5.32 1.43,-1.51 2.01,-2.22 2.08,-4.71 0.1,-3.57 -2.01,-8.49 -0.51,-10.63 0.91,-1.29 0.29,-0.44 0.97,-0.69 0.06,-0.09 0.16,-0.19 0.2,-0.25 1.12,-1.57 0.71,-0.97 0.59,-3.49 -0.07,-1.54 0.22,-2.91 0.29,-4.35 -1.88,0.19 -22.51,9.1 -27.49,11.24 -0.95,0.41 -1.02,0.39 -1.5,1.16 -0.44,0.72 -0.31,1.11 -1.03,1.82zm14.4 43.05c0.74,-0.66 6.97,-1.65 8.12,-1.38 0.15,-1.06 -2.76,-45.38 -3.62,-43.77l-0.87 -0.29c-2.56,-0.42 -8.12,-0.61 -8.87,3.2 -0.46,2.34 0.79,38.5 0.95,42.41l4.29 -0.18zm14.21 -70.63c-0.36,0.55 -16.92,7.33 -19.21,8.29 -1.55,0.65 -9,3.49 -9.57,4.28 -0.82,1.13 -0.43,5.2 -4.5,6.18 -2.12,0.51 -2.06,-0.36 -2.62,1.33 0.98,1.75 3.93,0.47 5.84,2.74 2.06,0.95 5,-1.09 6.99,-2.05 -0.45,-1.45 -2.11,-4.66 -1.4,-5.48 0.59,-0.34 0.14,-0.77 1.22,-0.07 1.04,0.67 0.81,3.13 2.11,4.66 0.9,-1.25 -2.17,-4.52 -0.73,-5.79 2.08,-0.96 1.57,3.35 3.28,4.77 0.27,-0.64 -0.28,-1.82 -0.56,-2.53 -0.85,-2.12 -1.13,-4.32 0.68,-3.16 0.87,0.56 0.57,2.16 2.17,4.78 0.78,-1.74 -1.76,-3.32 -0.96,-6.25 3,0.52 1.47,3.97 3.62,5.09 -0.08,-2.11 -2.01,-3.49 -1.19,-6.04 1.75,0.03 1.54,0.43 3.03,5.08 0.63,-0.87 0.63,0.81 0.28,-1.43 -0,-0.03 -0.5,-1.31 -0.54,-1.41 -0.5,-1.2 -1.09,-1.82 -0.33,-3.16 2.74,0.02 1.04,1.85 3.28,5.02 1.51,-0.27 5.1,-2.02 6.86,-2.78 5.93,-2.56 4.89,-1.11 4.78,-5.11 -1.96,-0.15 -3.51,1.25 -5.37,1.73 -1.89,0.48 -3.7,-1.15 -3.28,-3.57 3.11,-0.52 0.42,2.2 4.09,0.94 0.78,-0.27 3.69,-1.63 4.1,-1.92l-0.06 -4.68 -2.01 0.53zm-32.96 -33.42c1.9,0.42 4.66,1.82 6.54,2.62 8.04,3.42 9.96,2.97 10.35,7.72 0.27,3.38 -0.43,5.81 -0.32,9.11 1.68,1.67 6.04,3.07 8.33,4.02 1.72,0.72 7.82,3.01 8.79,3.79l1.1 -0.29 -0.48 -7.02 -11.69 -5.1c-1.49,-0.61 -2.68,-0.71 -3.06,-2.13 0.8,-2 2.07,-1 3.53,-0.34l10.96 4.61c0.72,-0.95 0.97,-2.05 0.99,-3.43 -1.91,-1.23 -6.22,-2.73 -8.77,-3.87l-17.18 -7.45c-2.22,-0.97 -7,-3.55 -9.03,-3.24l-0.06 1.01zm-1.78 4.49c-0.11,2.01 -1.08,2.49 -1.01,4.66 1.73,1.09 16.22,8.02 17.57,7.92l-0.1 -8.31c-0.99,-0.95 -13.68,-6.54 -15.23,-6.7l-1.23 2.43zm3.5 -7.89c1.96,0.4 14.27,5.96 17.2,7.22l17.32 7.33 2.03 -2.72 -1.09 -1.36c-1.59,0.15 -14.66,-5.78 -17.16,-6.83 -5.86,-2.46 -11.82,-4.8 -17.32,-7.31 -0.63,1.72 -0.81,1.28 -0.97,3.66z"/>
   <path class="fil4" d="M112.49 100.61l1.15 -0.67c0.7,-0.41 1.46,-0.44 2.19,-0.1l0.11 0.05 0.83 0.27c0.27,0.09 0.52,0.22 0.74,0.39 0.34,0.05 0.67,0.18 0.98,0.39 0.12,0.08 0.24,0.16 0.36,0.25 0.35,-0.26 0.76,-0.42 1.21,-0.46l5.28 -0.46c0.65,-0.06 1.24,0.13 1.73,0.55 0.25,0 0.5,0.04 0.74,0.12 0.58,-0.1 1.12,0.01 1.63,0.34 0.47,0.25 1.12,0.48 1.62,0.68 0.69,0.27 1.42,0.54 2.09,0.86 0.78,0.38 2.37,1.43 3.12,1.62 1,0.09 1.83,0.8 2.16,1.79 0.6,0 1.15,0.23 1.62,0.69l4.65 4.44c0.33,0.31 0.55,0.66 0.7,1.11 0.17,0.49 0.38,0.92 0.63,1.36 0.62,1.1 1.13,2.04 1.54,3.27 0.85,2.5 0.56,4.13 0.68,6.64 0,0.07 0,0.14 0,0.21 -0.03,1.14 -0.13,1.85 -0.39,2.58 0.04,0.08 0.08,0.17 0.12,0.25 0.33,0.8 0.45,1.59 0.49,2.45 0.01,0.26 -0,0.98 0.13,1.21 0.28,0.46 0.41,0.94 0.41,1.49l0.06 13.72c0,0.02 0,0.04 0,0.06l-0.03 1.94c0,0.01 -0,0.03 -0,0.04 0.45,0.46 0.72,1.08 0.76,1.78 0.06,0.47 0.38,1.32 0.53,1.78 0.24,0.75 0.49,1.53 0.63,2.31 0.44,2.48 0.01,3.93 -0.53,6.23 -0.1,0.44 -0.28,0.8 -0.55,1.14 -1.07,1.32 -1.43,1.95 -2.94,2.92 -0.7,0.45 -1.5,0.71 -2.17,1.11 -0.31,0.29 -0.66,0.48 -1.07,0.58l-0.33 1.67c-0.1,0.51 -0.3,0.93 -0.62,1.29 -0.41,0.9 -0.83,3.8 -0.67,4.66 0.15,0.79 -0,1.53 -0.44,2.17 -0.12,0.17 -0.12,0.27 -0.17,0.48 -0.14,0.66 -0.32,1.2 -0.6,1.73 0.2,0.66 0.17,1.33 -0.09,1.96 -0.14,0.41 -0.26,0.84 -0.42,1.25 -0.19,0.49 -0.46,0.87 -0.86,1.17 -0.19,0.19 -0.41,0.49 -0.57,0.71 -0.41,0.53 -0.81,1.07 -1.22,1.6 -1.18,1.5 -2.44,2.9 -3.88,4.11 -1.2,1 -2.46,1.97 -3.78,2.77 -0.59,0.36 -1.26,0.66 -1.88,0.96 -0.32,0.16 -0.8,0.38 -1.13,0.6 -0.45,0.49 -1.04,0.77 -1.71,0.79l-2.18 0.06c-1.07,0.03 -2,-0.63 -2.4,-1.72 -0.04,-0.12 -0.08,-0.24 -0.11,-0.36 -0.05,-0.03 -0.09,-0.07 -0.13,-0.1 -0.17,0.08 -0.34,0.15 -0.52,0.21 -0.02,0.08 -0.04,0.15 -0.07,0.23 -0.33,0.94 -1.05,1.58 -1.97,1.73l-2.49 0.42c-0.74,0.13 -1.45,-0.09 -2,-0.6 -0.27,0.08 -0.56,0.12 -0.85,0.1l-1.47 -0.09c-0.37,-0.02 -0.69,-0.12 -1.02,-0.3l-3.87 -2.18c-0.05,-0.03 -0.08,-0.05 -0.13,-0.08 -2.4,-1.55 -4.49,-3.52 -6.37,-5.74 -0.65,-0.77 -1.27,-1.57 -1.89,-2.37 -0.24,-0.31 -0.56,-0.77 -0.84,-1.06 -0.88,-0.6 -1.32,-1.71 -1.11,-2.85 0.01,-0.03 0.01,-0.07 0.02,-0.1 -0.15,-0.13 -0.29,-0.28 -0.42,-0.45 -0.49,-0.64 -0.67,-1.41 -0.53,-2.23 0.25,-1.47 -0.71,-7.35 -1.44,-8.73 -0.43,-0.53 -0.64,-1.17 -0.62,-1.89 -0.01,-0 -0.01,-0.01 -0.02,-0.01 -0.96,-0.45 -1.92,-0.79 -2.84,-1.36 -0.66,-0.41 -1.08,-0.82 -1.66,-1.27 -0.02,-0.01 -0.03,-0.02 -0.04,-0.03 -0.74,-0.3 -1.26,-0.89 -1.51,-1.7 -0.22,-0.71 -0.52,-1.37 -0.75,-2.08 -0.48,-1.45 -0.49,-2.83 -0.4,-4.34 0.12,-1.91 0.61,-3.1 1.1,-4.85 0.04,-0.15 0.08,-0.29 0.11,-0.44 0.1,-0.45 0.28,-0.83 0.54,-1.16 -0.11,-0.37 -0.19,-0.77 -0.26,-1.17 -0.12,-0.69 -0.07,-1.94 -0.24,-2.55 -0.25,-0.43 -0.38,-0.89 -0.39,-1.41l-0.2 -11.63 -0.25 -5.23c-0.02,-0.33 0.02,-0.65 0.1,-0.95 -0.23,-0.44 -0.33,-0.95 -0.3,-1.49l0.12 -2.25c0.03,-0.5 0.16,-0.93 0.41,-1.34 0.24,-0.52 0.47,-1.25 0.66,-1.8 0.28,-0.76 0.58,-1.58 0.96,-2.28 0.56,-1.01 1.17,-1.78 1.84,-2.69 0.28,-0.37 0.51,-0.73 0.7,-1.17 0.16,-0.36 0.36,-0.64 0.64,-0.9l3.85 -3.57c0.47,-0.43 1,-0.65 1.61,-0.65l0.3 -0c0.26,-0.97 0.96,-1.68 1.88,-1.9 0.64,-0.15 2.21,-1.29 2.93,-1.68 0.83,-0.45 2.05,-0.88 2.82,-1.39 0.38,-0.38 0.84,-0.61 1.38,-0.69l2 -0.28c0.47,-0.07 0.93,0.01 1.34,0.2 0.65,-0.47 1.4,-0.65 2.23,-0.75 0.32,-0.04 0.64,-0.02 0.93,0.06z"/>
   <path class="fil5" d="M106.32 104.1c-0.34,0.45 -2.69,1.43 -3.4,1.82 -1.27,0.69 -2.45,1.65 -3.52,1.9 -0.35,2.2 1.05,2.22 1.33,4.13 -1.59,1.23 -3.44,1.63 -4.28,3.56 -1.65,3.8 -1.37,1.96 -3.06,4.99 -0.49,0.87 -1.75,5.61 -1.71,6.01 0.09,0.94 0.56,1.09 0.51,3.3 -0.03,1.13 -0.59,3.22 1.22,3.67 1.53,0.37 3.02,0 4.08,1.34 2.01,0.43 3.8,3.66 6.67,4.88 2.12,0.9 2.82,0.2 4.19,-0.96 0.59,-0.5 0.91,-0.95 1.9,-0.85l1.73 0.95c1.48,0.61 0.82,0.8 2,1.11 1.67,-1.62 1.07,-1.52 3.45,-2.76 -0.62,-1.58 0.85,-5.68 1.63,-6.44 0.74,0.89 0.44,1.5 0.11,2.74 -0.32,1.2 -0.21,1.78 0.14,2.78 0.77,2.15 -0.21,0.55 1.59,1.85 0.83,0.6 1.21,1.16 1.81,1.9 0.81,-0.46 0.85,-0.58 1.83,-1.08 2.53,-3.87 3.92,3.07 8.73,0.37 1.59,-0.9 2.54,-1.9 3.73,-3.08 1.22,-1.2 2.24,-2.24 4.59,-1.92l0.27 1.1c0.84,0.69 0.43,0.08 1.08,2.1l0.18 0.52c0.26,-1.03 0.11,-1.64 0.22,-2.66 0.18,-1.73 0.35,-1.34 0.57,-2.29 0.34,-1.49 -0.62,-2.15 -1.03,-3.83 -0.35,-1.41 -0.09,-1.61 -0.27,-2.89 -0.34,-2.44 -1.62,-1.84 -1.04,-3.75 0.38,-1.26 0.47,-0.24 0.86,-1.99 -1.39,-1.15 -1.68,-1.43 -2.34,-3.34 -0.23,-0.67 -0.44,-1.35 -1.16,-1.88 -0.46,-0.34 -0.52,-0.27 -0.98,-0.54 -1.55,-0.94 -0.67,-1.39 -1.06,-2.74 -0.29,-1 0.06,-0.08 -0.38,-0.84 -2.02,-3.48 -0.22,-0.77 -0.44,-4.1 -0.96,-0.06 -2.78,-1.29 -3.93,-1.85 -0.76,-0.37 -3.41,-1.31 -3.94,-1.66 -1.42,0.3 -1.17,-0.89 -0.99,1.03 0.15,1.5 1.58,0.03 2.49,2.15 -2.63,1.75 -4.03,-2.02 -6.54,0.45 -2.7,2.66 0.71,4.21 -1.15,6.06 -1.91,-0.79 -1.41,-3.17 -1.12,-5.72 -3.72,-3.11 0.04,-1.82 -3.71,-4.37 -1.74,2.76 -5.67,5.86 -5.97,6.46 -0.87,1.72 0.29,1.93 -1.21,2.6 -1.88,-0.99 -0.21,-3.26 0.41,-4.23 1.33,-2.08 0.83,-2.2 1.48,-4.82 -2.27,0.29 -0.34,0.8 -3.72,2.77 -4.55,2.66 -1.42,2.23 -3.63,2.74 -1.46,-2.71 2,-3.57 2.32,-3.73l1.5 -1.23 -2 0.28z"/>
   <path class="fil6" d="M124.96 152.88c2.02,-0.19 2,0.04 3.03,1.19l0.05 2.11c-1.91,0.55 -3.54,-1.05 -3.08,-3.3zm-15.8 3.15c-1.06,-2.28 0.75,-3.51 2.34,-2.96 0.01,0.02 1.21,0.68 -0.27,2.27 -0.77,0.83 -1.35,0.95 -2.07,0.69zm33.02 -14.73c-0.1,6.08 -3.92,9.94 -10.07,8.9 0.16,1.41 1.36,1.54 2.39,2.03 1.15,0.55 1.9,1.03 2.77,1.75 1.98,1.64 3.89,2.96 3.89,4.6 -1.9,0.12 -3.71,-2.84 -5.39,-3.75 -1.18,-0.63 -1.87,-1.28 -2.88,-1.7 -1.91,-0.8 -1.87,-0.3 -2.18,-2.94 -0.91,0.06 -3.89,-0.36 -4.89,-0.79 -1.43,-0.62 -2.04,-2.23 -1.84,-4.3 -0.94,-1.22 0.24,-1.79 -1.52,-1.37 -1.03,0.25 -0.79,0.87 -1.08,2.08 -0.41,1.75 -1.03,3.33 -1.16,4.99 0.74,2.21 0.87,4.64 1.2,7.35 0.44,3.61 1.14,6.19 -2.7,5.67l-0.6 -3.34 -0.35 3.45c-1.28,0.29 -2.08,0.09 -3.02,-0.47 -0.43,-1.72 -0.3,-5.01 -0.24,-7.13 0.05,-1.94 0.18,-5.18 1.27,-5.93l0.2 -1.73c-1.05,-0.81 -1.83,-2.71 -2.37,-4.15 -0.85,1.19 -0.42,2.18 -1.63,3.51 -0.14,0.56 0.18,0.7 -0.81,1.28 -0.85,0.5 -1.39,0.33 -2.22,0.18 -0.58,0.51 0.55,0.15 -0.98,0.65 -0.97,0.32 -2.08,-0.02 -3.33,0.44 -1.99,0.72 1.19,1.56 -3.33,5.46 -1.13,0.97 -3.13,3.14 -4.6,2.88 -0.07,-1.44 1.62,-2.91 2.83,-3.6 1.98,-1.12 2.84,-1.4 2.9,-4.51 -1.07,-0.73 -1.11,-0.33 -1.97,-0.81 -0.63,-0.35 -0.21,-0.1 -0.63,-0.54 -2.1,0.22 -3.1,-1.13 -3.93,-2.75 -0.75,-1.47 -1.53,-3.94 -1.41,-5.43l-1.57 0.11c0.41,1.22 0.26,4.59 -0.01,6.26 -0.89,0.7 -1.01,0.63 -1.93,1.13 -1.11,0.6 -0.69,0.48 -1.64,1.17 -0.33,1.5 -1.02,2.77 -1.15,4.84 -0.2,3.07 0.35,3.16 1.02,5.36 0.77,0.31 0.98,0.81 2.06,1.47 0.8,0.49 1.76,0.84 2.59,1.23l2.33 0c2.68,-0.54 5.11,-1.87 8.11,-1.49 1.06,1.28 1.15,1.09 1.26,3.28 0.08,1.68 0.01,3.47 -0.14,5.09 3.31,0.4 5.14,1.08 8.91,0.86 0.9,-1.66 0.33,-3.16 1.46,-4.78 0.99,1.39 0.35,1.8 1.09,3.25 0.94,-1.16 0.46,-2.15 1.09,-3.51 1.88,0.42 1.4,2.32 1.55,4.7 0.5,-1.15 0.26,-0.82 0.47,-2.1 0.32,-1.95 -0.25,-1.34 0.9,-2.03 1.06,0.71 0.6,-0.33 0.89,1.9 0.1,0.79 0.1,1.72 0.2,2.6 3.2,0.1 7.09,-0.17 9.29,-1.19 -0.62,-3.06 -0.44,-6.05 0.84,-7.97 4.27,-0.7 6.64,1.84 11,1.41 0.22,-0.32 1.8,-0.91 2.53,-1.38 1.32,-0.85 1.46,-1.3 2.33,-2.37 0.37,-1.57 0.87,-2.93 0.5,-5.04 -0.24,-1.34 -1.13,-3.37 -1.2,-4.41 -4.84,-1.97 -3.87,-1.12 -4.35,-5.76 -0.22,-2.09 0.48,-0.73 0.31,-2.78 -0.54,0 -0.27,-0.09 -1.05,0.17z"/>
   <path class="fil6" d="M98.36 179.31c0.94,0.5 3.69,5.67 9.04,9.12l3.87 2.18 1.47 0.09c-1.19,-1.19 -0.63,-1.41 -1.14,-2.9 -0.65,-1.87 -1.43,-0.9 -1.55,-2.88 2.02,0.05 2.37,1.57 4.54,1.81 -0.26,-1.76 -1.14,-2.75 -0.25,-4.23 2.25,0.36 0.34,0.83 2.01,3.32 0.85,1.27 0.31,0.29 0.95,1.74l1.05 1.54c2.06,-0.08 3.67,-2.36 4.6,-3.99 0.85,-1.5 -0.32,-0.69 1.61,-1.46 0.82,2.49 -1.55,3.51 -2.58,5.47 1.53,-1.02 0.96,-0.6 2.79,-1.26 1.76,-0.63 0.98,-1.36 2.92,-0.92 -0.69,3.04 -2.75,1.99 -4.62,3.83l2.19 -0.06c0.32,-0.5 2.76,-1.52 3.55,-2 1.23,-0.74 2.48,-1.72 3.47,-2.55 3.03,-2.53 4.85,-5.82 5.73,-6.47 0.06,-0.15 0.41,-1.24 0.44,-1.3 -4.55,-1.51 -3.7,-8.46 -2.85,-12.43 0.16,-0.73 0.36,-0.87 0.64,-1.74l-1.37 -0.05c0.09,1.6 -0.44,4.07 -0.9,5.65 -0.17,0.58 -0.61,1.78 -0.94,2.5 -0.52,1.14 -0.45,1.19 -1.18,1.63 -0.64,1.49 0.13,0.44 -1.34,1.62 -9.58,7.68 -22.33,3.65 -25.33,-1.23 -0.91,-0.34 -1.04,-0.84 -1.56,-2.01 -0.44,-0.99 -0.62,-1.53 -0.93,-2.56 -0.41,-1.37 -0.7,-4.55 -1.14,-5.53 -1.15,0.27 -0.61,-0.3 -0.99,0.41 1.1,3.02 1.02,4.76 0.98,8.34 -0.02,1.8 -0.21,2.39 -1.09,3.53 -1.6,2.05 -1.64,0.24 -2.11,2.79z"/>
   <path class="fil7" d="M145.72 123.87c-0.11,-2.26 0.18,-3.76 -0.52,-5.83 -0.72,-2.11 -1.57,-2.85 -2.18,-4.64l-4.65 -4.44c-1.51,0.26 -0.61,-0.6 -1.19,0.65 1.25,2.78 1.58,0.27 1.09,4.06 3.48,0.52 2.05,2.3 3.59,4.43 2.27,3.14 2.26,1.49 0.93,5.37 0.34,0.59 0.5,0.87 0.93,1.72 0.82,1.59 0.07,0.97 1.22,1.47 0.5,-0.91 0.74,-1.19 0.78,-2.79z"/>
   <path class="fil7" d="M88.86 131.29l0.2 11.67c0.56,0.84 0.44,2.72 0.58,3.49 0.38,2.11 0.21,0.76 2.07,0.33 -0.09,-1.55 -0.26,-0.92 -0.11,-2.53 0.24,-2.63 -0.08,-1.34 -0.2,-3 -0.13,-1.76 0.29,-0.87 0.36,-2.72 0.1,-3.01 -1.36,-5.33 -0.94,-8.87 0.17,-1.44 -0.53,-3.49 -2.2,-3.63l0.25 5.28z"/>
   <path class="fil7" d="M92.86 113.36c-0.73,1.67 -1.66,2.29 -2.65,4.09 -0.58,1.04 -1.33,3.65 -1.68,4.17l-0.12 2.25c0.97,0.82 1.13,0.92 2.57,0.78 0.28,-4.91 1.13,-4.71 3.3,-7.91 0.89,-1.32 0.8,-2.32 1.9,-3.5 0.89,-0.95 1.89,-1.55 1.92,-3.45l-1.39 0.01 -3.85 3.57z"/>
   <path class="fil7" d="M95.41 165.45c1.08,1.16 2.43,8.6 2.02,11.03l1.3 0.02c1.17,-1.79 1.82,-1.85 1.75,-5.11 -0.18,-8.32 -2.9,-6.59 -5.02,-7.35l-0.05 1.41z"/>
   <path class="fil7" d="M139.59 173.71c-0.33,-1.78 0.43,-6.28 1.29,-7.07l0.39 -1.98c-0.77,-0.6 -1.72,-0.22 -2.74,-0.52 -1.64,2.54 -1.9,0.87 -2.11,6.06 -0.13,3.16 -0.46,5.01 1.95,6.46 0.85,-1.18 0.4,-1.76 1.21,-2.95z"/>
   <path class="fil8" d="M117.47 148.73c0.62,-4.23 -0.57,-5.38 -0.39,-6.65 0.28,-1.93 -0.3,-0.7 0.89,-1.34 0.63,0.59 0.98,3.99 1.68,6.75 0.75,-3.74 -0.04,-4.39 3.08,-5.83 -0.74,-0.6 -1.52,-1.35 -2.26,-1.91 -2.59,-1.96 -3.69,-0.26 -6.37,1.68 -0.82,0.59 -0.57,0.1 -0.97,1.04 0.83,1.51 0.4,0.36 1.38,1.41 1.02,1.1 1.41,3.08 2.96,4.83z"/>
   <path class="fil9" d="M105.59 173.11c0.83,0.53 1.18,0.99 2.01,1.63l2.99 1.94c0.94,0.41 0.76,0.19 1.4,0.45 2.26,0.94 -0.45,1.02 2.53,1.07l-0.11 -3.42 -1.52 -0.23c0.11,1.75 0.21,0.79 -0.38,1.17 -1.57,-0.36 -1.14,-0.23 -0.75,-2.09l1.11 1.04 -0.51 -1.68 1.23 -1.27c-2.08,0.65 -0.19,0.15 -1.95,-0.09 -0.75,-0.1 -0.83,-0.02 -1.57,-0.05 -1.48,-0.06 -3.19,-0.27 -4.72,-0.39l0.23 1.9z"/>
   <path class="fil10" d="M146.53 145.65l-0.06 -13.72c-0.85,-1.41 -0.26,-2.7 -0.81,-4.05 -0.01,0.01 -0.8,-0.19 -0.71,2.27 0.3,7.46 -0.27,2.02 -0.59,6.78 -0.17,2.53 0.47,4.14 0.38,5.01 -0.09,0.82 -0.66,2.75 0.03,5.07l1.73 0.59 0.03 -1.94z"/>
   <path class="fil11" d="M123.94 176.8l1.68 0.53c1.52,-1.4 2.26,-1.39 3.57,-2.44l0.98 -1.1c-0.65,-0.29 -0.9,-0.41 -1.62,-0.76l-0.51 0.38c-0.5,0.3 -2.18,0.92 -3,0.65 -0.21,-0.57 -0.07,0.73 -0.29,-1.08 -0.09,-0.75 -0,-0.66 0.05,-1.4l-1.71 0.11c0.81,1.09 -0.93,0.37 0.85,0.89 -0,1.14 -0.14,1.2 -0.23,2.13 -0.28,2.9 -0.15,0.11 0.24,2.09z"/>
   <path class="fil12" d="M124.79 171.58c-0.06,0.74 -0.14,0.65 -0.05,1.4 0.22,1.8 0.08,0.51 0.29,1.08 0.82,0.27 2.49,-0.35 3,-0.65l0.51 -0.38c0.73,0.35 0.97,0.46 1.62,0.76 0.9,-0.87 0.82,-0.79 0.99,-2.39l0.11 0.03c-1.6,-0.77 -0.18,-0.3 -1.68,-0.09 -0.62,0.09 -1.13,0.14 -1.74,0.2 -1.08,0.1 -2.32,-0.07 -3.05,0.04z"/>
   <path class="fil13" d="M120.79 172.43c-0.05,1.17 0.05,1.33 -0.03,2.38l1.52 -0.28c0.13,2.07 -1.39,3.1 1.16,3.66l0.5 -1.4c-0.4,-1.98 -0.52,0.81 -0.24,-2.09 0.09,-0.93 0.23,-0.99 0.23,-2.13 -1.78,-0.52 -0.03,0.21 -0.85,-0.89 -1.72,0.16 0.08,0.74 -2.29,0.74z"/>
   <path class="fil8" d="M125.53 103.01l-5.28 0.46 0.14 2.2c1.88,0.83 2.54,0.01 4.96,-1.2l0.18 -1.46z"/>
   <path class="fil14" d="M112.87 174.68l0.01 -0.12 1.52 0.23 1.38 0.19 -0.15 -2.36c-1.89,-0.5 0.17,0.13 -1.23,-0.61 -0.57,-0.3 -0.14,-0.3 -0.81,-0.27l-1.23 1.27 0.51 1.68z"/>
   <path class="fil15" d="M117.57 174.56l-1.91 0.26 -0.24 2.93c0.88,1 0.59,1.24 2.01,1.07l0.14 -4.25z"/>
   <path class="fil16" d="M113.37 188.5c0.28,0.6 0.03,0.54 0.68,1.41 0.39,0.53 0.67,0.81 1.02,1.31l2.49 -0.42c-1.3,-1.71 -1.41,-2.3 -4.19,-2.31z"/>
   <path class="fil16" d="M118.77 172.39l-0.16 2.16 0.66 0.33 1.49 -0.07c0.08,-1.06 -0.02,-1.22 0.03,-2.38 -0.27,-0.82 -0.02,-0.81 -1.43,-0.33 -0.2,0.07 -0.41,0.2 -0.41,0.2 -0.02,-0.06 -0.12,0.07 -0.18,0.09z"/>
   <path class="fil14" d="M94.48 136.76l-0.18 -0.22c0.14,-2.34 0.15,-0.75 -0.37,-1.39 -0.36,0.11 -1.86,-0.17 -0.88,3.6 0.39,1.51 0.14,0.44 0.52,0.89 0.85,-1.47 -0,-1.74 0.91,-2.89z"/>
   <path class="fil14" d="M115.06 102.47l-0.24 -0.11 -1.59 0.92c-0.3,2.04 -0.72,1.37 -0.7,3.13l3.49 -3.61 -0.97 -0.32z"/>
   <path class="fil8" d="M115.64 172.61l0.15 2.36 -0.13 -0.16 1.91 -0.26 0.08 -2.38c-0.84,-0.59 -1.79,-0.42 -2.01,0.43z"/>
   <path class="fil17" d="M120.93 176.93c-1.46,-1.06 -0.03,-0.62 -1.73,-0.47 -0.43,1.54 -0.25,1.5 0.6,2.47 0.97,-0.45 1.02,-0.66 1.13,-2z"/>
   <path class="fil18" d="M119.2 176.46c1.7,-0.15 0.27,-0.59 1.73,0.47l-0.17 -2.11 -1.49 0.07 -0.08 1.57z"/>
   <path class="fil19" d="M112.89 174.56l-0.01 0.12 -1.11 -1.04c-0.39,1.86 -0.82,1.73 0.75,2.09 0.58,-0.38 0.48,0.58 0.38,-1.17z"/>
   <path class="fil20" d="M62.67 44.15c-0.47,-1.39 -0.68,-2.63 -0.62,-3.72 0.05,-0.81 0.22,-1.59 0.53,-2.34 0.3,-0.75 0.7,-1.37 1.2,-1.88 0.66,-0.67 1.5,-1.21 2.52,-1.63 1.85,-0.74 3.53,-0.71 5.06,0.08 1.53,0.8 2.67,2.31 3.43,4.53 0.75,2.2 0.79,4.14 0.11,5.83 -0.67,1.69 -1.93,2.9 -3.77,3.64 -1.86,0.75 -3.55,0.73 -5.07,-0.07 -1.52,-0.79 -2.65,-2.27 -3.39,-4.44zm2.57 -1.14c0.52,1.54 1.25,2.58 2.18,3.11 0.93,0.53 1.89,0.59 2.9,0.19 1.01,-0.41 1.7,-1.14 2.08,-2.18 0.38,-1.05 0.3,-2.37 -0.24,-3.94 -0.53,-1.56 -1.24,-2.6 -2.14,-3.11 -0.89,-0.52 -1.86,-0.56 -2.9,-0.14 -1.04,0.42 -1.75,1.15 -2.12,2.18 -0.37,1.03 -0.29,2.33 0.24,3.9zm14.46 2.42l-4.23 -13.75 4.1 -1.49c1.55,-0.56 2.58,-0.86 3.1,-0.9 0.79,-0.05 1.53,0.17 2.23,0.69 0.7,0.51 1.22,1.32 1.56,2.41 0.26,0.85 0.34,1.6 0.23,2.28 -0.11,0.68 -0.32,1.26 -0.65,1.75 -0.33,0.48 -0.71,0.86 -1.12,1.13 -0.57,0.35 -1.43,0.74 -2.58,1.16l-1.66 0.6 1.59 5.19 -2.56 0.93zm-0.95 -12.36l1.2 3.92 1.39 -0.51c1,-0.37 1.65,-0.68 1.94,-0.95 0.29,-0.27 0.49,-0.59 0.59,-0.97 0.1,-0.38 0.09,-0.77 -0.04,-1.18 -0.15,-0.5 -0.42,-0.87 -0.78,-1.1 -0.37,-0.23 -0.77,-0.31 -1.21,-0.24 -0.32,0.05 -0.94,0.24 -1.86,0.57l-1.23 0.45zm13.5 8.09l-2.53 -14.24 9.69 -2.03 0.43 2.41 -7.04 1.48 0.56 3.16 6.55 -1.37 0.43 2.41 -6.55 1.37 0.69 3.86 7.3 -1.53 0.43 2.41 -9.95 2.09zm12.72 -2.85l-0.8 -14.47 5.66 -0.37c1.42,-0.09 2.46,-0.03 3.12,0.19 0.66,0.22 1.2,0.65 1.63,1.28 0.42,0.64 0.66,1.39 0.71,2.24 0.06,1.09 -0.18,2 -0.73,2.75 -0.55,0.75 -1.4,1.25 -2.55,1.51 0.6,0.33 1.1,0.7 1.5,1.12 0.4,0.42 0.95,1.17 1.65,2.25l1.78 2.72 -3.21 0.21 -2.1 -3.03c-0.75,-1.08 -1.27,-1.75 -1.54,-2.03 -0.27,-0.27 -0.55,-0.46 -0.84,-0.55 -0.29,-0.09 -0.75,-0.11 -1.37,-0.07l-0.55 0.04 0.34 6.04 -2.7 0.18zm2.23 -8.52l1.99 -0.13c1.29,-0.08 2.09,-0.2 2.4,-0.34 0.31,-0.14 0.56,-0.36 0.72,-0.66 0.17,-0.3 0.24,-0.67 0.21,-1.11 -0.03,-0.49 -0.17,-0.87 -0.43,-1.16 -0.25,-0.28 -0.6,-0.45 -1.04,-0.5 -0.22,-0.02 -0.88,0.01 -1.96,0.08l-2.1 0.14 0.2 3.68zm23.85 8.72l-2.9 -0.2 -0.96 -3.37 -5.34 -0.37 -1.3 3.22 -2.85 -0.2 6.01 -14.11 2.85 0.2 4.49 14.84zm-4.59 -6.08l-1.54 -5.48 -2.11 5.23 3.65 0.25zm15.92 2.92l2.44 1.34c-0.64,1.5 -1.48,2.55 -2.52,3.14 -1.04,0.59 -2.26,0.76 -3.67,0.49 -1.75,-0.33 -3.08,-1.24 -4,-2.75 -0.92,-1.51 -1.2,-3.38 -0.85,-5.64 0.37,-2.38 1.23,-4.12 2.57,-5.23 1.34,-1.11 2.93,-1.49 4.77,-1.15 1.61,0.3 2.83,1.06 3.67,2.28 0.5,0.72 0.81,1.68 0.93,2.89l-2.73 0.19c-0.04,-0.77 -0.27,-1.41 -0.7,-1.93 -0.43,-0.52 -0.99,-0.85 -1.7,-0.98 -0.98,-0.18 -1.83,0.05 -2.55,0.7 -0.73,0.64 -1.23,1.82 -1.49,3.52 -0.28,1.8 -0.19,3.15 0.29,4.02 0.48,0.88 1.2,1.41 2.15,1.59 0.71,0.13 1.35,0 1.94,-0.39 0.59,-0.39 1.07,-1.09 1.46,-2.1zm-7.2 8.01l0.18 -1.14c0.61,0.18 1.17,0.33 1.68,0.42 0.53,0.1 0.95,0.07 1.24,-0.09 0.22,-0.12 0.35,-0.3 0.39,-0.55 0.03,-0.22 -0.03,-0.43 -0.19,-0.63 -0.16,-0.2 -0.44,-0.33 -0.82,-0.4 -0.39,-0.07 -0.79,-0.08 -1.21,-0.02l0.39 -0.92c0.49,-0.09 1.01,-0.09 1.55,0.01 0.75,0.14 1.29,0.42 1.62,0.85 0.33,0.43 0.46,0.9 0.38,1.42 -0.09,0.58 -0.38,1 -0.87,1.28 -0.66,0.38 -1.53,0.47 -2.61,0.27 -0.77,-0.14 -1.35,-0.31 -1.72,-0.49zm23.37 2.15l-2.79 -0.89 -0.25 -3.52 -5.13 -1.63 -1.91 2.83 -2.74 -0.87 8.71 -12.34 2.74 0.87 1.39 15.55zm-3.26 -7.02l-0.4 -5.72 -3.11 4.6 3.51 1.11zm-0.93 -10.76l-1.13 -0.36c0.03,-0.15 0.06,-0.26 0.08,-0.34 0.18,-0.66 0.46,-1.13 0.86,-1.39 0.39,-0.27 0.82,-0.32 1.29,-0.17 0.21,0.07 0.39,0.15 0.55,0.25 0.16,0.1 0.45,0.34 0.85,0.71 0.4,0.37 0.73,0.6 1,0.68 0.18,0.06 0.36,0.04 0.52,-0.04 0.16,-0.09 0.3,-0.28 0.41,-0.57l1.13 0.36c-0.24,0.86 -0.55,1.43 -0.94,1.71 -0.39,0.28 -0.81,0.35 -1.26,0.21 -0.2,-0.06 -0.39,-0.15 -0.57,-0.25 -0.12,-0.08 -0.42,-0.32 -0.89,-0.72 -0.47,-0.4 -0.83,-0.64 -1.08,-0.71 -0.19,-0.06 -0.35,-0.04 -0.49,0.05 -0.14,0.09 -0.25,0.29 -0.34,0.6zm7.85 11.3c0.46,-1.39 1.03,-2.49 1.72,-3.29 0.51,-0.59 1.11,-1.06 1.78,-1.42 0.68,-0.36 1.35,-0.56 2.03,-0.61 0.9,-0.06 1.86,0.11 2.89,0.51 1.85,0.72 3.13,1.92 3.83,3.6 0.7,1.68 0.69,3.64 -0.04,5.87 -0.72,2.21 -1.84,3.73 -3.35,4.55 -1.51,0.82 -3.19,0.87 -5.04,0.16 -1.87,-0.72 -3.15,-1.92 -3.85,-3.59 -0.7,-1.67 -0.69,-3.59 0.02,-5.77zm2.64 0.92c-0.51,1.55 -0.56,2.85 -0.16,3.91 0.4,1.05 1.1,1.78 2.11,2.17 1.01,0.39 1.98,0.32 2.89,-0.22 0.91,-0.54 1.62,-1.61 2.14,-3.19 0.51,-1.57 0.58,-2.86 0.2,-3.88 -0.38,-1.02 -1.09,-1.73 -2.14,-2.13 -1.05,-0.41 -2.02,-0.34 -2.92,0.19 -0.9,0.53 -1.6,1.59 -2.12,3.16z"/>
   <path class="fil20" d="M34.6 250.01l-2.3 -2.71 1.7 -3.68 -4.22 -4.99 -3.48 1.57 -2.26 -2.66 15.53 -6.62 2.25 2.66 -7.23 16.43zm0.64 -9.15l2.77 -5.97 -5.66 2.56 2.89 3.41zm2.43 12.59l9.45 -13.43 2.42 2.01 -1.25 13.23 6.33 -9 2.31 1.92 -9.45 13.43 -2.5 -2.08 1.21 -12.99 -6.21 8.83 -2.31 -1.92zm27.47 0.33l2.7 1.77 -5.1 9.17c-0.67,1.2 -1.28,2.06 -1.83,2.58 -0.73,0.67 -1.58,1.04 -2.55,1.1 -0.96,0.06 -2.01,-0.28 -3.13,-1.01 -1.31,-0.86 -2.1,-1.93 -2.36,-3.19 -0.26,-1.26 0.03,-2.67 0.88,-4.22l2.73 1.35c-0.43,0.85 -0.64,1.5 -0.64,1.97 -0,0.71 0.29,1.25 0.88,1.64 0.59,0.39 1.12,0.48 1.57,0.27 0.45,-0.21 1,-0.9 1.66,-2.07l5.2 -9.35zm1.76 11.18c0.54,-1.62 1.21,-2.9 2.03,-3.82 0.6,-0.68 1.3,-1.23 2.09,-1.65 0.79,-0.42 1.58,-0.65 2.37,-0.7 1.05,-0.06 2.17,0.14 3.37,0.61 2.16,0.85 3.64,2.25 4.46,4.21 0.81,1.97 0.79,4.24 -0.07,6.84 -0.85,2.57 -2.16,4.34 -3.93,5.28 -1.77,0.95 -3.73,1 -5.88,0.16 -2.18,-0.85 -3.67,-2.25 -4.48,-4.2 -0.81,-1.95 -0.79,-4.19 0.05,-6.73zm3.08 1.08c-0.6,1.8 -0.67,3.32 -0.21,4.55 0.46,1.23 1.28,2.08 2.46,2.54 1.18,0.46 2.3,0.38 3.37,-0.25 1.06,-0.63 1.9,-1.87 2.51,-3.71 0.6,-1.83 0.69,-3.33 0.25,-4.52 -0.44,-1.19 -1.27,-2.02 -2.49,-2.5 -1.22,-0.48 -2.35,-0.41 -3.4,0.21 -1.05,0.62 -1.88,1.84 -2.48,3.67zm13.76 8.16l3.04 0.49c-0.07,1.13 0.1,2.02 0.53,2.67 0.43,0.66 1.1,1.11 2.03,1.36 0.98,0.27 1.77,0.24 2.36,-0.07 0.6,-0.31 0.97,-0.77 1.11,-1.38 0.09,-0.39 0.06,-0.75 -0.08,-1.08 -0.14,-0.33 -0.46,-0.66 -0.93,-1 -0.32,-0.23 -1.08,-0.69 -2.26,-1.38 -1.52,-0.89 -2.54,-1.74 -3.05,-2.57 -0.71,-1.16 -0.92,-2.38 -0.62,-3.69 0.19,-0.84 0.59,-1.56 1.19,-2.17 0.6,-0.61 1.36,-0.99 2.26,-1.15 0.91,-0.16 1.93,-0.08 3.09,0.23 1.89,0.51 3.2,1.36 3.94,2.53 0.74,1.17 0.96,2.52 0.66,4.06l-3.08 -0.72c0.07,-0.88 -0.07,-1.57 -0.41,-2.05 -0.34,-0.49 -0.93,-0.85 -1.79,-1.08 -0.88,-0.24 -1.61,-0.23 -2.2,0.03 -0.38,0.17 -0.62,0.46 -0.72,0.89 -0.09,0.39 -0.02,0.76 0.22,1.12 0.3,0.46 1.15,1.08 2.54,1.87 1.39,0.78 2.39,1.48 3,2.07 0.62,0.6 1.04,1.31 1.28,2.12 0.24,0.82 0.24,1.74 -0,2.77 -0.22,0.94 -0.66,1.76 -1.33,2.44 -0.67,0.69 -1.49,1.12 -2.46,1.27 -0.97,0.16 -2.11,0.06 -3.42,-0.3 -1.91,-0.52 -3.26,-1.4 -4.06,-2.63 -0.8,-1.23 -1.09,-2.79 -0.86,-4.68zm22.48 -7.05l5.73 0.09c1.29,0.02 2.28,0.14 2.95,0.37 0.9,0.31 1.68,0.84 2.32,1.59 0.64,0.75 1.12,1.67 1.45,2.76 0.32,1.08 0.48,2.42 0.46,4 -0.02,1.39 -0.19,2.59 -0.52,3.59 -0.4,1.23 -0.97,2.21 -1.7,2.96 -0.55,0.57 -1.29,1.01 -2.22,1.32 -0.69,0.23 -1.62,0.33 -2.78,0.32l-5.9 -0.09 0.22 -16.91zm3.11 2.9l-0.15 11.19 2.33 0.04c0.87,0.01 1.5,-0.03 1.89,-0.13 0.51,-0.13 0.93,-0.36 1.27,-0.69 0.34,-0.33 0.62,-0.86 0.84,-1.62 0.22,-0.75 0.34,-1.79 0.36,-3.09 0.02,-1.31 -0.08,-2.31 -0.28,-3.01 -0.2,-0.7 -0.49,-1.25 -0.87,-1.65 -0.38,-0.4 -0.85,-0.67 -1.44,-0.82 -0.43,-0.11 -1.29,-0.18 -2.56,-0.2l-1.4 -0.02zm28.85 12.44l-3.38 0.33 -1.66 -3.7 -6.21 0.61 -0.97 3.96 -3.32 0.33 4.61 -17.43 3.31 -0.33 7.61 16.22zm-6.29 -6.11l-2.67 -6.02 -1.57 6.44 4.24 -0.42zm15.56 3.5l-3.3 -16.52 2.98 -0.7 8.47 9.59 -2.21 -11.07 2.84 -0.67 3.3 16.52 -3.07 0.73 -8.33 -9.41 2.17 10.86 -2.84 0.67zm14.12 -12.98c-0.58,-1.61 -0.84,-3.05 -0.79,-4.33 0.04,-0.94 0.23,-1.86 0.57,-2.74 0.34,-0.88 0.8,-1.62 1.36,-2.22 0.76,-0.8 1.72,-1.45 2.9,-1.95 2.14,-0.91 4.1,-0.91 5.91,-0.01 1.8,0.9 3.16,2.64 4.08,5.21 0.91,2.55 0.99,4.81 0.23,6.79 -0.75,1.98 -2.2,3.42 -4.33,4.32 -2.16,0.91 -4.13,0.93 -5.91,0.03 -1.78,-0.89 -3.13,-2.59 -4.03,-5.11zm2.98 -1.38c0.64,1.79 1.51,2.98 2.6,3.58 1.09,0.6 2.22,0.65 3.39,0.16 1.17,-0.5 1.96,-1.36 2.39,-2.59 0.42,-1.23 0.3,-2.76 -0.35,-4.59 -0.65,-1.81 -1.5,-3 -2.55,-3.58 -1.05,-0.58 -2.18,-0.62 -3.39,-0.1 -1.21,0.51 -2.02,1.38 -2.44,2.59 -0.42,1.21 -0.3,2.73 0.35,4.54zm18.13 0.44l-8.04 -14.47 2.7 -1.77 8.04 14.48 -2.7 1.77zm10.29 -6.99l-7.81 -11.2 -3.67 3.02 -1.59 -2.28 9.83 -8.1 1.59 2.28 -3.65 3.01 7.81 11.2 -2.51 2.07zm9.39 -8.53l-11.24 -11.68 7.95 -9.05 1.9 1.97 -5.78 6.57 2.5 2.59 5.37 -6.11 1.9 1.97 -5.37 6.11 3.05 3.17 5.99 -6.81 1.9 1.97 -8.16 9.29z"/>
   <path class="fil21" d="M95.02 130.67c0.43,-0.26 6.61,0.07 7.69,0.08 2.73,0.04 5.23,0.15 7.99,0.07 9.68,-0.27 27.98,-0.91 37.04,-3.36 1.81,-0.49 3.09,-0.43 2.91,-3.34 -0.03,-0.5 -0.65,-1.23 -0.84,-1.36 -0,-4.27 -0.14,-4.23 1.33,-8.59 0.46,-1.36 0.78,-2.55 0.68,-4.25 -0.03,-0.52 -0.9,-3.33 -1.13,-3.88 -0.97,-2.34 -2.1,-4.55 -3.23,-6.67 -0.98,-1.85 -2.61,-4.58 -4.01,-5.91 -0.85,-0.81 -1.74,-1.49 -2.85,-1.94 -1.85,-0.75 -1.97,-0.64 -4.06,-0.73 -5.79,-0.25 -8.64,2.39 -11.87,2.15 -2.64,-0.2 -1.87,-0.17 -4.51,0.01 -4.34,0.3 -7.71,1.28 -11.69,2.57 -2.61,0.85 -7.5,3.24 -9.57,4.9 -1.98,1.59 -3.4,2.92 -5.22,4.5l-4.77 5.09c-2.66,3.05 -5.63,7.55 -6.93,12.9 -0.64,2.65 -0.95,5.93 -1.31,8.74 -0.38,3 -0.33,6.99 2.97,6.69 1.21,-0.09 4.81,-2.76 5.94,-3.6 0.43,-0.32 0.97,-0.69 1.44,-1.01 0.8,-0.55 3.44,-2.31 4,-3.07z"/>
  </g>
 </g>
</svg>
