<?xml version="1.0" encoding="UTF-8"?>
<!DOCTYPE svg PUBLIC "-//W3C//DTD SVG 1.1//EN" "http://www.w3.org/Graphics/SVG/1.1/DTD/svg11.dtd">
<!-- Creator: CorelDRAW -->
<svg xmlns="http://www.w3.org/2000/svg" xml:space="preserve" width="33.8667mm" height="31.9857mm" version="1.1" style="shape-rendering:geometricPrecision; text-rendering:geometricPrecision; image-rendering:optimizeQuality; fill-rule:evenodd; clip-rule:evenodd"
viewBox="0 0 2219.72 2096.44"
 xmlns:xlink="http://www.w3.org/1999/xlink"
 xmlns:xodm="http://www.corel.com/coreldraw/odm/2003">
 <defs>
  <style type="text/css">
   <![CDATA[
    .fil2 {fill:#FEFEFE}
    .fil1 {fill:#FFF212}
    .fil0 {fill:#ED3237}
    .fil3 {fill:#FEFEFE;fill-rule:nonzero}
   ]]>
  </style>
 </defs>
 <g id="Camada_x0020_1">
  <metadata id="CorelCorpID_0Corel-Layer"/>
  <g id="_2335744967952">
   <path class="fil0" d="M1109.87 24.12c588.63,0 1065.8,458.74 1065.8,1024.61 0,565.88 -477.17,1024.61 -1065.8,1024.61 -588.63,0 -1065.8,-458.73 -1065.8,-1024.61 0,-565.87 477.17,-1024.61 1065.8,-1024.61z"/>
   <path class="fil1" d="M716.06 356.88c26.13,-9.75 43.31,-17.16 50.44,-46.81 -33.2,-23.88 -67.34,-0.48 -83.59,21.37l-5.04 -11.86c-3.08,-7.53 -0.17,-3.7 -3.62,-8.9 -41.49,-1.76 -63.6,14.55 -77.45,43.51 -11,23.01 -15,50.68 -54.94,58.63 8.21,-24.07 11.2,-30.48 7.94,-61.01 -109.33,5.82 -47.15,123.34 -125.17,151.31 1.19,-25.55 0.89,-50.55 -7.28,-70.3 -35.83,1.17 -66.01,49.73 -64.19,98.16 2.33,61.98 10.3,51.62 -36.48,111.76 -1.95,-37.48 -7.87,-50.26 -20.72,-75.22 -40.64,10.98 -56.62,68.34 -47.81,113.49 4.03,20.69 18.19,34.07 17.37,57.25 -0.64,17.89 -9.79,43.42 -15.77,59.6 -20.16,-19.59 -13.86,-45.09 -47.64,-63.69 -30.5,21.92 -35.25,90.1 -16.46,129.19 9.3,19.35 28.31,38.65 31.68,49.94 6.96,23.33 3.28,52.49 0.01,74.27 -24.15,-11.85 -29.63,-44.58 -67.21,-48.94 -25.55,41.25 -10.16,102.2 13.1,133.16 30.1,40.06 62.96,29.11 64.99,104.03 -18.42,-15.14 -49.07,-47.68 -87.95,-44.1 -17.32,79.69 30.89,134.63 95,158.01 21.88,7.98 33.89,22.44 38.98,44.95 -38.3,-16.62 -43.96,-28 -95.93,-21.59 -13.76,40.92 32.5,96.47 52.95,111.19 15.26,10.99 35.5,19.75 59.45,23.37 29.57,4.47 44.96,-4.04 60.1,23.86 -46.14,-3.18 -51.43,-0.87 -89.3,11.05 3.18,42.94 46.28,81.83 79.21,96.83 23.22,10.57 51.94,11.54 77.84,7.8 44.12,-6.37 33.01,-8.47 70.24,8.7l-26.58 9.25c-29.25,4.69 -47.13,20.95 -71.58,31.67 9.69,40.43 69.81,79.93 127.66,77.72 31.22,-1.2 54.97,-11.27 76.89,-23.96 33.03,-19.1 49.14,0.44 73.11,2.98 -38.72,3.24 -60.07,1.52 -89.19,19.33 -23.23,14.2 -47.88,31.09 -52.52,56.56 55.09,53.95 139.86,53.87 197.54,6.75 72.44,-59.17 43.96,-41.03 158.3,-24.09 17.96,2.66 38.6,3.52 52.28,12.7 -40.54,14.16 -33.89,0.16 -78.32,-1.83 -72.9,-3.26 -159.16,39.89 -167.21,121.57 43.61,11.93 75.53,25.75 127.41,5.43 79.04,-30.95 78.14,-93.33 116.75,-112.5 22.57,-11.2 30.18,-15.87 57.09,-8.32 27.36,7.68 82.7,28.73 97.91,47.92 -25.02,28.33 -84.81,71.29 -75.3,124.18 22.52,1.17 17.14,-2.65 25.41,-24.57 11.46,-30.39 44.27,-73.47 73.26,-83.01 17.11,9.54 37.65,32.18 52.79,51.74 10.15,13.12 13.31,18.04 18.89,33.89 5.47,15.54 2.48,22.13 23.17,22.06 12.81,-49.77 -54.92,-103.28 -74.93,-126.25 34.17,-17.45 56.23,-35.56 100.69,-46.97 54.62,-14.01 71.74,25.99 90.65,54.05 41.82,62.04 135.95,106.18 208.35,59.82 -3.1,-67.9 -89.61,-126.42 -177.29,-118.74 -49.61,4.35 -21.39,17.92 -71.34,-0.69 12.37,-5.89 96.7,-18.58 118.95,-23.04 55.27,-11.08 63.47,10.78 93.89,36.11 51.04,42.52 150.73,48.63 198.04,-6.23 -14.18,-65.31 -110.56,-67.94 -130.92,-77.95 52.81,-27.86 79.79,24.83 151.25,22.8 44.83,-1.28 106.74,-33.98 115.38,-78.05 -44.08,-18.5 -41.02,-31.71 -100.66,-33.97 23.41,-40.27 93.74,-1.55 144.13,-19.94 39.19,-14.29 82.38,-53.02 86.25,-100.86 -46.42,-10.58 -42.25,-12.64 -96.15,-8.35 32.08,-20.62 5.68,-19.13 58.1,-24.49 65.46,-6.69 126.9,-54.32 123.25,-134.8 -41.98,-4.33 -64.67,6.12 -94.42,15.99 20.93,-72.34 141.91,-30.87 131.69,-197.37 -34.8,-1.47 -75.83,22.28 -88.72,45.97 -1.89,-19.04 6.91,-53.02 17.91,-65.03 29.85,-32.57 98.73,-57.76 61.62,-174.74 -35.19,1.83 -51.62,37.33 -68.72,55.77 -4.05,-22.5 -7.37,-54.78 -0.81,-79.47 11.33,-42.66 84.36,-70.81 19.53,-180.74 -31.66,7 -32.67,39.74 -51.52,65.06 -30.63,-101.49 -8.26,-53.38 2.83,-125.62 6.34,-41.22 -15.49,-102.34 -47.53,-106.1 -6.37,10.52 -12.94,22.22 -16.3,33.89l-9.69 37.45c-46.33,-59.42 -31.09,-54.11 -32.67,-116.84 -1.11,-43.84 -29.52,-85.02 -62.62,-89.43 -12.89,21.16 -8.7,47.39 -7.39,73.94 -17.03,-7.08 -26.74,-20.43 -37.14,-35.01 -23.1,-32.39 -2.69,-123.33 -92.37,-118.8l8.3 58.47c-71.73,-20.76 -33.88,-105.86 -131.31,-100.26 -5.09,8.97 -0.63,4.41 -10.35,18.03 -15.82,-25.8 -44.71,-33.26 -80.24,-22.23 1.91,38.81 33.93,44.06 63.52,53.73 -12.79,6.25 -22.7,12.32 -27.33,23.22 13.43,23.56 49.13,26.14 72.16,13.55 34.69,-18.96 29.74,-15.4 68.01,1.11 -23.36,9.71 -28.5,-0.8 -51.16,19.98 7.9,33.64 48.78,39.43 86.48,25.96 33.26,-11.9 59.72,17.98 76.55,32.78l-51.36 9.16c4.84,34.7 36.2,55.99 78.43,51.65 25.91,-2.66 31.38,-6.71 47.66,10.83 10.38,11.18 22.7,23.03 28.27,38.16l-56.03 -1.42c-6.63,36.65 33.15,70.36 68.58,74.53 35.3,4.16 58.11,4.69 72.4,70.8 -24.04,-14.09 -31.22,-31.53 -73.73,-27.61 -1.89,52.83 27.38,86.77 67.77,97.78 28.69,7.83 36.41,8.76 44.27,38.38l6.38 64.15c-4.23,-10.73 -9.97,-20.38 -18.14,-29.61 -12.02,-13.57 -41.77,-33.93 -63.03,-24.53 -16,56.88 42.24,98.63 86.39,106.66l6.41 64.49c0.31,54.07 -0.02,130.99 -17.41,180.16 -8.51,-11.95 10.38,-69.15 -5.73,-109.82 -10.14,-25.6 -38.03,-57.23 -61.34,-55.29 -13.17,26.92 -12.91,69.52 0.08,99.07 30.12,68.54 117.81,35.88 2.99,241.83 -9.55,-14.78 6.28,-33.45 12.3,-48.81 16.83,-42.96 8,-129.75 -39.27,-146.15 -22.06,22.15 -32.74,56.56 -28.91,98.52 4.1,44.89 30.84,55.78 41.12,88.04 14.9,46.81 -86.03,146.04 -103.04,154.33 2.73,-20.05 38.68,-49.27 49.52,-93.92 9.63,-39.69 -0.56,-88.01 -23.67,-113.19 -29.49,6.29 -53.97,58.92 -56.79,90.21 -4.8,53.32 26.14,95.9 21.2,120.66 -5.68,28.56 -130.34,108.19 -168.22,118.15 11.54,-55.25 130.83,-63.36 79.5,-222.36 -31.89,3.32 -61.86,36.34 -75.64,65.8 -49,104.74 53.69,140.1 -71.04,188.02 -29.09,11.18 -76.38,28.73 -107.28,30.86 9.14,-28.16 26.66,-23.22 52.55,-37.66 61.41,-34.25 87.24,-98.31 73.39,-172 -73.39,-0.93 -124.68,80.04 -125.05,155.53 -0.14,29.04 0.22,34.72 -15.71,53.1 -21.6,24.93 -141.72,33.54 -173.63,33.33 12.78,-8.71 48.74,-10.31 67.71,-18.38 62.01,-26.39 102.84,-80.28 97.21,-155.78 -84.33,-4.15 -136.02,43.83 -158.71,112.24 -32.27,97.29 2.98,40.93 -141.25,122.17 -21.29,-6.23 -56.05,-31.38 -90.55,-44.1 -51.6,-19.01 -37.84,-31.15 -54.08,-79.22 -21.23,-62.82 -73.82,-119.19 -158.96,-110.36 -1.25,53.95 19.56,95.11 47.5,122.18 50.34,48.77 95.97,34.27 117.9,51.8 -40.87,-0.98 -85.1,-8.13 -124.44,-15.76 -49.1,-9.5 -63.48,-16.82 -64.57,-71.04 -1.41,-69.75 -47.3,-157.92 -123.29,-153.69 -20.92,45.99 7.72,109 28.12,134.03 32.25,39.56 86.75,44.12 95.08,73.21 -30.72,-2.1 -79.8,-20.12 -107.52,-30.8 -124.56,-47.98 -20.03,-84.71 -70.31,-188.84 -13.61,-28.2 -38.55,-56.01 -71,-64.73 -14.51,16.52 -16.23,47.91 -15.53,70.55 3,97.71 68.95,95.63 92.26,151.55 -20.72,-3.54 -78.47,-37.54 -94.83,-51.54 -14.07,-12.03 -5.83,-7.55 -22.68,-16.45 -101.86,-53.84 -18.11,-77.01 -30.79,-173.64 -4.85,-36.95 -30.07,-81.95 -58.77,-87.51 -73.3,138.05 37.55,183.95 26.38,210 -20.84,-23.65 -117.05,-106.77 -102.59,-156.63 2.69,-9.27 17.36,-23.75 25.93,-39.29 23.49,-42.59 22.89,-120.35 -14.3,-147.93 -23.66,11.21 -45.09,54.98 -46.66,90.59 -2.25,51.09 27.39,77.48 24.38,107.41 -18.17,-22.98 -74.73,-143.24 -55.3,-180.49 9.04,-17.35 37.2,-22.86 55.93,-66.07 11.84,-27.31 14.56,-74.15 -4.33,-98.29 -26.98,4.56 -51.87,38.01 -59.55,61.15 -14.54,43.82 3.66,87.8 -1.1,102.1 -14.6,-15.47 -16.94,-64.25 -19.05,-90.74 -11.9,-148.71 19.78,-72.5 72.3,-145.69 10.3,-14.35 41.97,-86.82 3.89,-86.71 -2.97,0.01 -6.46,1.14 -9.63,2.26 -68.85,24.38 -54.3,102.07 -65.69,129.93 -13.13,-24.66 10.38,-166.11 24.91,-187.51 23.09,-34.02 104.4,-9.22 103.14,-117.42 -49.4,2.46 -41.93,14.2 -71.42,25.76 13.13,-72.39 48.51,-64.07 72.22,-67.75 40.71,-6.32 65.44,-34.84 68.03,-75.56l-58.11 4.72c5.32,-15.23 19.53,-29.74 30.45,-41.02 18.87,-19.5 21.54,-11.9 48.53,-9.46 35.81,3.22 73.01,-16.99 76.06,-50.54 -12.63,-6.97 -23.48,-6.64 -36.78,-9.57l-10.78 -3.42c21.26,-22.51 40.68,-41 77.67,-28.05 36.52,12.79 73.82,1.9 81.66,-30.82 -12.56,-7.36 -36.17,-10.59 -50.08,-18.65 49.92,-19.57 31.83,-15.74 70.6,2.62 27.93,13.23 56.87,2.86 68.94,-16.04 -7.34,-14.77 -7.8,-12.51 -25.05,-21.65l10.21 -5.16z"/>
   <path class="fil2" d="M1109.87 0c612.96,0 1109.86,469.3 1109.86,1048.22 0,578.91 -496.9,1048.22 -1109.86,1048.22 -612.96,0 -1109.87,-469.3 -1109.87,-1048.22 0,-578.92 496.9,-1048.22 1109.87,-1048.22zm15.7 45.17c551.36,0 1049.04,482.32 1049.04,1003.06 0,520.73 -506.14,1003.05 -1057.49,1003.05 -551.36,0 -1070.78,-487.04 -1070.78,-1007.78 0,-520.73 527.88,-998.33 1079.23,-998.33z"/>
   <path class="fil2" d="M782.92 1237.92l0 22.05c1.67,3.69 1.68,10.27 2.62,14.91 1.07,5.3 2.3,9.66 3.84,14.21 22.89,67.78 85.55,99.8 161.38,91.57 3.95,-6.18 3.83,-24.55 22.04,-36.51 12.27,-8.07 29.69,-10.09 45.73,-12.95 34.85,-6.22 71.04,-9.71 107.33,-3.36 27.99,4.9 63.82,16.92 88.26,29.04 32.95,16.33 25.65,60.49 24.94,89.34 -7.26,-1.83 -15.89,-5.86 -23.16,-8.34 -57.09,-19.48 -135.22,-30.33 -193.69,-24.72 2.46,1.04 30.12,3.53 35.58,4.17 54.25,6.34 109.67,19.8 159.07,41.48 24.81,10.89 33.75,15.68 45.39,34.65 0.09,0.15 0.27,0.45 0.42,0.66l0.12 -123.77c80.59,15.66 139.03,5.96 166.95,-75.16 3.75,-10.89 6.01,-27.41 7.07,-29.65l0 -20.24c-1.25,-3.16 -1.07,-12.85 -6.23,-26.03 -15.14,-38.66 -56.56,-60.48 -98.56,-60.76 -25.19,-0.17 -31.66,5.15 -49.83,12.85 -7.9,-36.99 -15.58,-52.09 -46.59,-77.39 -42.28,-34.49 -76.84,-31.57 -87.92,-35.79l-18.9 0c-3.61,1.43 -16.87,1.12 -34.06,7.81 -11.06,4.31 -18.94,9.08 -27.55,14.88 -18.4,12.39 -31.44,21.92 -50.78,33.76 -32.71,20.02 -64.02,35.94 -101.22,46.75 -4.35,1.26 -12.47,2.87 -15.79,4.33 12.18,1.93 50.97,-4.26 63.56,-7.08 42.03,-9.39 67.42,-20.13 105.05,-37.65 16.05,-7.47 31.99,-15.36 51.77,-19.46 62.08,-12.85 117.73,13.38 138.36,69.15 6.18,16.71 3.85,11.67 -2.24,25.77 -2.66,6.17 -7.2,18.79 -7.96,25.75 1.47,-0.73 11.81,-13.97 18.08,-18.46 22.97,-16.5 54.07,-29.38 84.92,-24.3 40.83,6.72 69.71,43.91 63.98,83.93 -8.57,59.81 -68.37,100.28 -129.93,88.71 -10.78,-2.03 -19.79,-4.99 -28.73,-8.55 -4.64,-1.85 -21.03,-9.67 -23.31,-13.22 11.22,-7.6 15.91,-10.78 22.89,-22.43 4.52,-7.54 11.55,-22.64 11.08,-33.51 -3.45,3.3 -5.34,7.56 -8.3,11.33 -3,3.83 -5.28,5.67 -8.79,9.47 -4.85,5.25 -13.82,11.67 -21.33,16.23 -23.67,14.38 -31.82,11.31 -59.7,6.2 36,-29.23 38.16,-64.5 27.32,-108.45 -2.29,10.98 1.36,19.27 -6.07,41.65 -10.95,32.99 -40.69,63.71 -79.84,61.32 4.46,-12.37 8.47,-23.56 5.72,-39.78 -0.79,-4.69 -1.54,-8.61 -4.1,-11.42 0.48,25.89 -14.39,44.67 -33.7,51.14 -13.65,4.57 -61.31,6.47 -77.83,5.63 -26.05,-1.32 -44.91,-12.29 -59.93,-24.55 -17.96,-14.66 -35.51,-42.69 -39.25,-44.96 2.06,15.28 10.51,34.94 17.45,45.61 4.71,7.24 8.83,11.95 14.29,17.44 8.65,8.69 6.71,6.77 16.55,13.99 -2.95,7.05 -12.99,14.76 -22.44,19.14 -30.12,13.97 -68.62,-1.87 -90.05,-21.83 -13.48,-12.56 -25.44,-26.88 -31.4,-50.11 -8.19,-31.88 2.68,-71.13 24.45,-93.24 21.69,-22.03 53.52,-29.74 84.11,-37.05 27.63,-6.61 66.13,-17.21 88.86,-33.17 5.69,-4 18.05,-14.62 20.57,-20.21 -10.07,5.45 -14.78,11.65 -31.32,18.04 -12.93,4.98 -23.35,8.34 -37.48,11.68 -26.26,6.21 -54.19,10.72 -80.07,16.92 -28.46,6.82 -47.07,18.94 -61.98,35.17 -28.23,30.74 -26.66,60.46 -29.69,67.38z"/>
   <path class="fil2" d="M1028.34 1538.96l43.92 0c1.51,-0.62 53.86,-5.35 60.86,-6.28 15.58,-2.08 42.35,-5.77 55.49,-10.62 -6.51,-0.22 -21.48,2.26 -29.19,3.24 -27.19,3.48 -64.87,4.8 -92,2.3 -19.84,-1.82 -39.75,-0.86 -53.23,-11.29 -16.84,-13.03 -4.6,-30.16 14.9,-31.87 24.75,-2.16 94.78,25.77 170.2,23.2 21.37,-0.72 38.93,-3.22 58.84,-5.28 -3.39,-1.73 -32.12,-4.44 -38.73,-5.38 -87.78,-12.56 -181.42,-66.75 -251.85,-39.73 -3.19,-5.41 -4.52,-17.2 -6.3,-24.78 -1.07,-4.59 -4.58,-21.43 -6.02,-24.23 -3.46,15.61 -5.68,33.47 -8.22,49.66 -2.68,17.09 -8.1,32.44 -0.07,47.8 17.48,33.45 73.55,29.95 81.4,33.24z"/>
   <path class="fil3" d="M464.14 670.66c47.73,0 94.07,-9.79 94.07,34.06 0,38.51 -34.52,35.72 -59.73,35.72l0 41 -34.34 0 0 -110.78zm34.34 47.34c36.74,0 37.94,-24.76 0,-24.76l0 24.76zm132.55 45.19l-38.79 0 -5.57 18.25 -34.93 0 41.7 -110.78 37.46 0 41.52 110.78 -35.85 0 -5.54 -18.25zm-7.25 -23.99l-12.09 -39.81 -12.15 39.81 24.24 0zm59.75 -68.54l31.95 0 41.54 61.16 0 -61.16 32.35 0 0 110.78 -32.35 0 -41.31 -60.83 0 60.83 -32.18 0 0 -110.78zm129.97 0l34.36 0 0 110.78 -34.36 0 0 -110.78zm58.98 0l84.64 0 0 23.82 -50.28 0 0 19.34 43.01 0 0 22.44 -43.01 0 0 45.18 -34.36 0 0 -110.78zm104.44 0l34.35 0 0 110.78 -34.35 0 0 -110.78zm132.63 65.45l30.02 9.04c-13.78,57.57 -107.84,52.73 -107.84,-19.36 0,-70.45 89.32,-75.36 106.76,-22.51l-30.17 6.68c-7.05,-22.4 -42.24,-24.31 -42.24,15.63 0,43.53 36.95,40.41 43.47,10.53zm114.71 27.08l-38.79 0 -5.57 18.25 -34.93 0 41.7 -110.78 37.46 0 41.52 110.78 -35.85 0 -5.54 -18.25zm-7.25 -23.99l-12.09 -39.81 -12.15 39.81 24.24 0zm59.91 -68.54c49.47,0 101.97,-11.02 101.97,55 0,66.52 -50.82,55.78 -101.97,55.78l0 -110.78zm34.19 25.06l0 60.5c23.03,0 33.42,0.9 33.42,-29.92 0,-29.84 -11.12,-30.58 -33.42,-30.58zm81.36 30.41c0,-77.52 114.81,-77.71 114.81,-0.9 0,79.69 -114.81,78.11 -114.81,0.9zm34.19 0.07c0,41.85 46.42,44.96 46.42,-1.52 0,-40.29 -46.42,-42.2 -46.42,1.52zm99.49 55.24l0 -110.78c47.37,0 99.95,-10.09 99.95,30.82 0,17.13 -10.38,27.43 -26.79,31.17 18.14,6.09 24.46,27.03 35.77,48.79l-38.68 0c-16.57,-30.63 -18.63,-44.87 -35.89,-44.87l0 44.87 -34.35 0zm34.35 -65.76c40.35,0 47.66,-22.59 0,-22.59l0 22.59zm153.69 47.51l-38.79 0 -5.56 18.25 -34.93 0 41.69 -110.78 37.46 0 41.52 110.78 -35.85 0 -5.54 -18.25zm-7.25 -23.99l-12.09 -39.81 -12.15 39.81 24.24 0zm-1059.02 94.32l45.15 0 17.2 67.41 17.26 -67.41 44.94 0 0 110.79 -28 0 0 -84.45 -21.62 84.45 -25.37 0 -21.56 -84.45 0 84.45 -28 0 0 -110.79zm218.45 0l34.19 0c0,65.22 14.13,121.12 -67.95,111.51 -49.98,-5.86 -38.19,-63.43 -38.19,-111.51l34.19 0c0,49.92 -8.82,86.8 18.93,86.8 27.63,0 18.83,-36.7 18.83,-86.8zm57.25 110.79l0 -110.79c47.36,0 99.95,-10.09 99.95,30.82 0,17.14 -10.39,27.43 -26.79,31.17 18.14,6.1 24.46,27.03 35.77,48.8l-38.68 0c-16.57,-30.63 -18.63,-44.87 -35.89,-44.87l0 44.87 -34.35 0zm34.35 -65.76c40.35,0 47.66,-22.59 0,-22.59l0 22.59zm86.92 -45.03l34.36 0 0 110.79 -34.36 0 0 -110.79zm58.98 0c42.05,0 97.32,-9.88 97.32,27.59l-18.08 24.27c32.76,7.84 36.51,58.92 -20.13,58.92l-59.11 0 0 -110.79zm34.51 43.48c39.05,0 44.22,-21.05 0,-21.05l0 21.05zm0 43.47c44.22,0 50.81,-22.43 0,-22.43l0 22.43zm151.19 5.57l-38.79 0 -5.57 18.26 -34.94 0 41.7 -110.79 37.46 0 41.52 110.79 -35.85 0 -5.54 -18.26zm-7.25 -23.98l-12.09 -39.81 -12.15 39.81 24.24 0zm59.9 42.24l0 -110.79c47.37,0 99.95,-10.09 99.95,30.82 0,17.14 -10.38,27.43 -26.79,31.17 18.14,6.1 24.46,27.03 35.76,48.8l-38.68 0c-16.57,-30.63 -18.63,-44.87 -35.88,-44.87l0 44.87 -34.36 0zm34.36 -65.76c40.35,0 47.66,-22.59 0,-22.59l0 22.59zm153.69 47.5l-38.79 0 -5.57 18.26 -34.94 0 41.7 -110.79 37.46 0 41.52 110.79 -35.85 0 -5.54 -18.26zm-7.25 -23.98l-12.09 -39.81 -12.15 39.81 24.24 0z"/>
  </g>
 </g>
</svg>
