<?xml version="1.0" encoding="UTF-8"?>
<!DOCTYPE svg PUBLIC "-//W3C//DTD SVG 1.1//EN" "http://www.w3.org/Graphics/SVG/1.1/DTD/svg11.dtd">
<!-- Creator: CorelDRAW -->
<svg xmlns="http://www.w3.org/2000/svg" xml:space="preserve" width="37.9262mm" height="14.1691mm" version="1.1" style="shape-rendering:geometricPrecision; text-rendering:geometricPrecision; image-rendering:optimizeQuality; fill-rule:evenodd; clip-rule:evenodd"
viewBox="0 0 1432.91 535.33"
 xmlns:xlink="http://www.w3.org/1999/xlink"
 xmlns:xodm="http://www.corel.com/coreldraw/odm/2003">
 <defs>
  <style type="text/css">
   <![CDATA[
    .str0 {stroke:#373435;stroke-width:7.56;stroke-miterlimit:22.9256}
    .fil0 {fill:#2F0E33}
    .fil3 {fill:#3A133E}
    .fil1 {fill:#46184A}
    .fil2 {fill:#EF5265;fill-rule:nonzero}
    .fil4 {fill:white;fill-rule:nonzero}
   ]]>
  </style>
 </defs>
 <g id="Camada_x0020_1">
  <metadata id="CorelCorpID_0Corel-Layer"/>
  <g id="Pensionao_x0020_das_x0020_Marias.cdr">
   <polygon class="fil0 str0" points="3.78,3.78 1429.13,3.78 1429.13,531.55 3.78,531.55 "/>
   <path class="fil1" d="M3.78 381.35c199.12,-166.1 354.98,-105.88 520.4,37.57 166.02,143.97 470.66,145.04 647.14,-59.04 65.63,-75.89 87.74,-192.73 3.89,-356.11l-1171.43 0 0 377.57z"/>
   <path class="fil2" d="M475.07 229.82c1.04,-1.04 2.2,-2.09 3.5,-3.16 7.9,-6.51 22.71,-8.35 36.17,3.07l4.14 4.14c10.96,12.85 16.51,36.66 8.24,81.77 -45.11,8.27 -68.92,2.72 -81.77,-8.24l-4.14 -4.14c-11.42,-13.45 -9.58,-28.26 -3.07,-36.16 1.07,-1.3 2.12,-2.46 3.16,-3.5 8.32,-8.32 15.85,-8.78 25.78,-7.99 -0.79,-9.93 -0.34,-17.46 7.99,-25.79z"/>
   <path class="fil3" d="M242.47 281.29c-60.88,-13.08 -141.55,2.72 -238.69,47.36l0 52.71c86.25,-71.95 164.38,-101.41 238.69,-100.06z"/>
   <path class="fil3" d="M1216.01 283.1c-8.13,-115.79 -49.32,-209.15 -117.6,-279.32l76.81 0c59.45,115.84 65.62,208.28 40.79,279.32z"/>
   <path class="fil3" d="M521.46 416.58c83.13,51.73 172.59,87.64 238.03,101.19 -88.71,-9.93 -172.07,-44.01 -235.31,-98.85 -0.91,-0.79 -1.81,-1.56 -2.72,-2.34z"/>
   <path class="fil4" d="M726.38 176.16c0,-7.11 -4.33,-11.24 -10.72,-11.24l-11.35 0 0 22.27 11.35 0c6.49,0 10.72,-3.92 10.72,-11.03zm-232.15 245.36l0.7 -3.27c-18.79,-3.39 -37.53,-7.1 -56.4,-10.03 -7.25,-1.12 -14.91,-1.29 -22.14,-0.22 -2.96,0.44 -6.76,4.96 -7.51,8.25 -1.2,5.22 3.75,5.25 7.53,5.26 25.94,0.02 51.89,0.01 77.83,0.01zm-93.99 -273.09c-0.98,-0.8 -1.96,-1.61 -2.95,-2.41 -19.47,20.03 -39,40.01 -58.28,60.22 -0.99,1.04 -1.68,3.37 -1.69,5.12 -0,0.8 0.13,1.47 0.45,1.85 1.98,2.37 5.53,4.92 8.29,4.77 3.61,-0.19 8.48,-1.94 10.4,-4.7 14.92,-21.39 29.25,-43.18 43.77,-64.86zm176 216.25c-2.08,0.09 -3.38,0.19 -4.67,0.2 -43.26,0.59 -86.54,0.64 -129.77,2.09 -12.41,0.42 -24.88,4.19 -36.93,7.76 -6.96,2.07 -8.69,8.8 -7.07,15.8 1.58,6.82 7.16,6.79 12.57,7.1 8.74,0.48 17.49,0.8 26.18,1.72 30.55,3.2 59.31,13.25 88.03,23.41 22.63,8.01 45.44,15.17 69.38,15.22 5.53,0.01 11.12,-0.35 16.77,-1.17 16.99,-2.46 32.36,-8.07 43.26,-22.39 3.22,-4.22 3.7,-7.5 0.29,-12.54 -27.62,-40.91 -44.6,-85.28 -42.72,-135.59 0.4,-10.75 -5.66,-14.76 -15.91,-10.65 -10.34,4.14 -17.18,12.36 -19.03,22.94 -2.27,12.96 -3.36,26.28 -3.33,39.45 0.04,15.31 1.85,30.61 2.94,46.65zm-57.27 -300.67c-21.73,-0.15 -40.79,7.31 -58.61,19.38 -21.06,14.26 -35.73,34.03 -48.22,55.38 -19.4,33.13 -37.85,66.82 -56.43,100.42 -6.18,11.16 -0.75,20.13 12.02,18.85 6.31,-0.63 13.35,-3.87 18.09,-8.13 10.04,-9 18.77,-19.47 28.08,-29.3 16.42,-17.34 32.52,-35 49.4,-51.89 14.53,-14.54 28.13,-15.11 44.76,-2.94 8.57,6.27 16.47,13.46 25.19,19.48 13.7,9.47 27.41,19.1 41.95,27.15 10.01,5.54 21.16,4.95 30.49,-3.08 6.26,-5.39 5.92,-10.39 -0.16,-15.97 -7.05,-6.45 -14.06,-12.95 -20.88,-19.64 -25.4,-24.93 -40.03,-55.16 -43.18,-90.6 -1.67,-18.8 -1.19,-18.85 -20.08,-19.13 -0.8,-0.01 -1.59,-0 -2.39,-0zm580.99 266.76l-0.04 1.02c0,0.3 -0.26,0.41 -0.83,0.41 -0.83,-0.11 -1.85,-0.19 -2.15,-0.19 -3.02,0 -5.02,0.08 -5.02,1.85 0,3.66 9.65,1.36 9.65,7.02 0,2.9 -2.41,4.48 -6.75,4.48 -0.87,0 -3.09,-0.15 -4.56,-0.68 -0.34,-0.11 -0.49,-0.37 -0.49,-0.68 0,-0.08 0,-0.15 0.03,-0.26l0.23 -0.94c0.12,-0.26 0.26,-0.41 0.83,-0.41 1.39,0.45 3.13,0.64 3.88,0.64 1.21,0 4.15,0 4.15,-1.99 0,-3.59 -9.65,-1.13 -9.65,-7.09 0,-2.34 1.58,-4.26 6.33,-4.26 0.53,0 2.38,0.15 3.92,0.42 0.42,0.07 0.45,0.37 0.45,0.68zm-31.63 5.05c1.05,0.87 3.13,1.25 4.07,1.25 2.49,0 3.81,-0.57 3.81,-2.41 0,-2.26 -1.7,-2.64 -3.47,-2.64 -2.15,0 -3.81,0.94 -4.41,3.81zm4.79 9.54c-5.01,0 -7.47,-3.01 -7.47,-7.99 0,-4.64 2.11,-7.69 7.09,-7.69 3.96,0 6.15,2.07 6.15,4.64 0,3.77 -2.53,5.09 -5.69,5.09 -1.13,0 -2.9,-0.15 -4.86,-0.98 0,2.72 1.96,4.6 4.94,4.6 1.06,0 2.56,-0.23 4.3,-0.9 0.08,-0.04 0.15,-0.04 0.22,-0.04 0.26,0 0.49,0.15 0.6,0.45l0.3 0.9c0.04,0.08 0.04,0.19 0.04,0.26 0,0.3 -0.19,0.41 -0.49,0.6 -1.55,0.9 -3.55,1.05 -5.13,1.05zm-20.13 0.11c-4.87,0 -6,-3.32 -6,-8.3l0 -4.94 -2.49 0c-0.38,0 -0.64,-0.26 -0.64,-0.64l0 -1.05c0,-0.38 0.26,-0.64 0.64,-0.64l2.41 0 0.49 -5.58c0,-0.34 0.23,-0.57 0.57,-0.57l1.21 0c0.34,0 0.57,0.23 0.57,0.57l0 5.58 4.56 0c0.38,0 0.64,0.26 0.64,0.64l0 1.05c0,0.38 -0.26,0.64 -0.64,0.64l-4.56 0 0 5.92c0,1.7 0.11,4.86 3.92,4.86 0.45,0 0.87,-0.19 1.32,-0.19 0.26,0 0.45,0.15 0.53,0.45l0.3 1.09c0.03,0.08 0.03,0.26 0.03,0.34 -0.03,0.72 -2.03,0.76 -2.86,0.76zm-25.98 -15.8c5.05,0 6.86,2.33 6.86,7.2l0 7.65c0,0.38 -0.26,0.64 -0.64,0.64l-1.39 0c-0.38,0 -0.64,-0.26 -0.64,-0.64l0 -6.22c0,-4 -0.38,-6.3 -3.96,-6.3 -0.49,0 -3.02,0.15 -3.74,0.64l0 11.88c0,0.38 -0.26,0.64 -0.64,0.64l-1.39 0c-0.38,0 -0.64,-0.26 -0.64,-0.64l0 -13.5c0,-0.3 0.23,-0.49 0.6,-0.6 1.88,-0.53 4.07,-0.75 5.58,-0.75zm-20.55 2.33c-6.26,0 -7.88,2.15 -7.88,6.11 0,4.22 2.19,4.9 4.38,4.9 1.92,0 3.5,-1.62 3.5,-1.62l0 -9.39zm2.68 12.52c0,0.38 -0.26,0.64 -0.64,0.64l-1.13 0c-0.26,0 -0.45,-0.11 -0.56,-0.3l-0.57 -0.79c-1.28,1.28 -3.58,1.28 -4.11,1.28 -3.88,0 -6.22,-2.49 -6.22,-7.47 0,-5.62 3.58,-8.22 8.75,-8.22 1.44,0 2.49,0.11 3.89,0.49 0.37,0.11 0.6,0.3 0.6,0.6l0 13.76zm-30.28 -1.51c0.34,0 2.19,0 3.62,-0.75l0 -9.01c-1.24,-0.98 -3.35,-1.25 -3.85,-1.25 -2.79,0 -4.67,1.1 -4.67,5.24 0,4 1.43,5.77 4.9,5.77zm6.3 0.79c0,0.3 -0.23,0.49 -0.6,0.6 -1.7,0.6 -3.96,0.94 -5.58,0.94 -5.05,0 -7.69,-3.13 -7.69,-8.11 0,-4.98 2.98,-7.58 6.67,-7.58 0.34,0 2.72,0 4.53,1.02l0 -6.29c0,-0.38 0.26,-0.64 0.64,-0.64l1.39 0c0.38,0 0.64,0.26 0.64,0.64l0 19.42zm-27.68 -13.27c0,-0.38 0.26,-0.64 0.64,-0.64l1.39 0c0.38,0 0.64,0.26 0.64,0.64l0 12.14c0,0.34 -0.04,0.49 -0.42,0.76 -2.15,1.51 -4.64,1.92 -5.66,1.92 -4.94,0 -7.01,-1.55 -7.01,-6.52l0 -8.29c0,-0.38 0.26,-0.64 0.64,-0.64l1.39 0c0.38,0 0.64,0.26 0.64,0.64l0 7.54c0,4.3 0.79,4.94 4.26,4.94 0.57,0 2.15,-0.11 3.47,-1.09l0 -11.39zm-23.26 14.93c-4.86,0 -6,-3.32 -6,-8.3l0 -4.94 -2.49 0c-0.38,0 -0.64,-0.26 -0.64,-0.64l0 -1.05c0,-0.38 0.26,-0.64 0.64,-0.64l2.41 0 0.49 -5.58c0,-0.34 0.23,-0.57 0.57,-0.57l1.21 0c0.34,0 0.57,0.23 0.57,0.57l0 5.58 4.56 0c0.37,0 0.64,0.26 0.64,0.64l0 1.05c0,0.38 -0.26,0.64 -0.64,0.64l-4.56 0 0 5.92c0,1.7 0.11,4.86 3.92,4.86 0.45,0 0.87,-0.19 1.32,-0.19 0.26,0 0.45,0.15 0.53,0.45l0.3 1.09c0.03,0.08 0.03,0.26 0.03,0.34 -0.03,0.72 -2.03,0.76 -2.86,0.76zm-19.8 -14.7l-0.04 1.02c0,0.3 -0.26,0.41 -0.83,0.41 -0.83,-0.11 -1.85,-0.19 -2.15,-0.19 -3.02,0 -5.01,0.08 -5.01,1.85 0,3.66 9.65,1.36 9.65,7.02 0,2.9 -2.41,4.48 -6.75,4.48 -0.87,0 -3.09,-0.15 -4.56,-0.68 -0.34,-0.11 -0.49,-0.37 -0.49,-0.68 0,-0.08 0,-0.15 0.04,-0.26l0.23 -0.94c0.11,-0.26 0.26,-0.41 0.83,-0.41 1.39,0.45 3.13,0.64 3.88,0.64 1.21,0 4.15,0 4.15,-1.99 0,-3.59 -9.65,-1.13 -9.65,-7.09 0,-2.34 1.58,-4.26 6.34,-4.26 0.53,0 2.37,0.15 3.92,0.42 0.42,0.07 0.45,0.37 0.45,0.68zm-31.63 5.05c1.06,0.87 3.13,1.25 4.07,1.25 2.49,0 3.81,-0.57 3.81,-2.41 0,-2.26 -1.7,-2.64 -3.47,-2.64 -2.15,0 -3.81,0.94 -4.41,3.81zm4.79 9.54c-5.01,0 -7.47,-3.01 -7.47,-7.99 0,-4.64 2.11,-7.69 7.09,-7.69 3.96,0 6.14,2.07 6.14,4.64 0,3.77 -2.52,5.09 -5.69,5.09 -1.13,0 -2.9,-0.15 -4.86,-0.98 0,2.72 1.96,4.6 4.94,4.6 1.06,0 2.57,-0.23 4.3,-0.9 0.08,-0.04 0.15,-0.04 0.23,-0.04 0.26,0 0.49,0.15 0.6,0.45l0.31 0.9c0.03,0.08 0.03,0.19 0.03,0.26 0,0.3 -0.19,0.41 -0.49,0.6 -1.55,0.9 -3.54,1.05 -5.13,1.05zm-43.32 -9.54c1.05,0.87 3.12,1.25 4.07,1.25 2.49,0 3.81,-0.57 3.81,-2.41 0,-2.26 -1.7,-2.64 -3.47,-2.64 -2.15,0 -3.81,0.94 -4.41,3.81zm4.79 9.54c-5.02,0 -7.47,-3.01 -7.47,-7.99 0,-4.64 2.11,-7.69 7.09,-7.69 3.96,0 6.14,2.07 6.14,4.64 0,3.77 -2.52,5.09 -5.69,5.09 -1.13,0 -2.9,-0.15 -4.86,-0.98 0,2.72 1.96,4.6 4.94,4.6 1.05,0 2.56,-0.23 4.3,-0.9 0.08,-0.04 0.15,-0.04 0.23,-0.04 0.26,0 0.49,0.15 0.6,0.45l0.3 0.9c0.04,0.08 0.04,0.19 0.04,0.26 0,0.3 -0.19,0.41 -0.49,0.6 -1.55,0.9 -3.54,1.05 -5.13,1.05zm-24.89 -2.34c0.34,0 2.19,0 3.62,-0.75l0 -9.01c-1.25,-0.98 -3.35,-1.25 -3.85,-1.25 -2.79,0 -4.68,1.1 -4.68,5.24 0,4 1.43,5.77 4.9,5.77zm6.29 0.79c0,0.3 -0.22,0.49 -0.6,0.6 -1.7,0.6 -3.96,0.94 -5.58,0.94 -5.05,0 -7.69,-3.13 -7.69,-8.11 0,-4.98 2.98,-7.58 6.67,-7.58 0.34,0 2.72,0 4.53,1.02l0 -6.29c0,-0.38 0.26,-0.64 0.64,-0.64l1.39 0c0.38,0 0.64,0.26 0.64,0.64l0 19.42zm-42.34 -11.8c-6.26,0 -7.88,2.15 -7.88,6.11 0,4.22 2.19,4.9 4.38,4.9 1.92,0 3.51,-1.62 3.51,-1.62l0 -9.39zm2.68 12.52c0,0.38 -0.26,0.64 -0.64,0.64l-1.13 0c-0.26,0 -0.45,-0.11 -0.57,-0.3l-0.57 -0.79c-1.28,1.28 -3.58,1.28 -4.11,1.28 -3.88,0 -6.22,-2.49 -6.22,-7.47 0,-5.62 3.58,-8.22 8.75,-8.22 1.43,0 2.49,0.11 3.88,0.49 0.37,0.11 0.6,0.3 0.6,0.6l0 13.76zm-24.85 -13.76l-0.04 1.02c0,0.3 -0.26,0.41 -0.83,0.41 -0.83,-0.11 -1.84,-0.19 -2.15,-0.19 -3.02,0 -5.02,0.08 -5.02,1.85 0,3.66 9.65,1.36 9.65,7.02 0,2.9 -2.41,4.48 -6.75,4.48 -0.87,0 -3.09,-0.15 -4.56,-0.68 -0.34,-0.11 -0.49,-0.37 -0.49,-0.68 0,-0.08 0,-0.15 0.04,-0.26l0.23 -0.94c0.11,-0.26 0.26,-0.41 0.83,-0.41 1.39,0.45 3.13,0.64 3.88,0.64 1.21,0 4.14,0 4.14,-1.99 0,-3.59 -9.65,-1.13 -9.65,-7.09 0,-2.34 1.58,-4.26 6.33,-4.26 0.53,0 2.38,0.15 3.92,0.42 0.42,0.07 0.45,0.37 0.45,0.68zm-24.43 1.24c-6.26,0 -7.88,2.15 -7.88,6.11 0,4.22 2.19,4.9 4.37,4.9 1.93,0 3.51,-1.62 3.51,-1.62l0 -9.39zm2.67 12.52c0,0.38 -0.26,0.64 -0.64,0.64l-1.13 0c-0.26,0 -0.45,-0.11 -0.57,-0.3l-0.57 -0.79c-1.28,1.28 -3.58,1.28 -4.11,1.28 -3.88,0 -6.22,-2.49 -6.22,-7.47 0,-5.62 3.58,-8.22 8.75,-8.22 1.43,0 2.49,0.11 3.88,0.49 0.37,0.11 0.6,0.3 0.6,0.6l0 13.76zm-28.7 0.83c-5.05,0 -7.69,-2.9 -7.69,-7.88 0,-5.09 2.64,-7.8 7.69,-7.8 1.43,0 3.28,0.19 4.9,0.94 0.3,0.11 0.49,0.3 0.49,0.6 0,0.08 0,0.15 -0.04,0.23l-0.3 0.94c-0.08,0.3 -0.34,0.45 -0.6,0.45 -0.08,0 -0.15,0 -0.23,-0.04 -1.58,-0.68 -2.87,-0.79 -3.88,-0.79 -3.43,0 -5.35,1.47 -5.35,5.47 0,4.04 2.26,5.54 5.35,5.54 1.02,0 2.38,-0.26 3.88,-0.87 0.08,-0.04 0.15,-0.04 0.23,-0.04 0.26,0 0.53,0.15 0.6,0.45l0.3 0.94c0.04,0.08 0.04,0.15 0.04,0.23 0,0.3 -0.19,0.49 -0.49,0.6 -1.55,0.68 -3.51,1.02 -4.9,1.02zm340.35 -57.92c0,-0.11 0.72,-2.89 1.14,-4.44 0.31,-1.13 1.03,-1.13 1.44,-1.13 3.82,0.93 9.38,1.65 11.55,1.65 2.78,0 9.48,0 9.48,-4.64 0,-8.77 -24.85,-1.13 -24.85,-18.35 0,-6.7 4.33,-12.17 17.53,-12.17 1.55,0 7.11,0.41 11.44,1.34 0.82,0.2 1.14,1.03 1.14,1.65 0,0.11 -0.31,2.89 -0.42,4.33 -0.1,1.13 -1.03,1.13 -1.44,1.13 -2.78,-0.31 -6.18,-0.72 -7.22,-0.72 -7.22,0 -11.76,0.51 -11.76,4.22 0,8.66 24.85,1.65 24.85,18.26 0,8.25 -6.7,12.68 -18.56,12.68 -2.58,0 -9.18,-0.62 -13.2,-2.16 -0.83,-0.21 -1.14,-1.03 -1.14,-1.65zm-18.97 -31.35c-14.64,0 -18.35,5.57 -18.35,15.26 0,10.21 5.05,12.17 10.2,12.17 4.54,0 8.15,-4.44 8.15,-4.44l0 -22.99zm9.18 -4.44l0 37.12c0,1.13 -0.82,1.96 -1.96,1.96l-4.33 0c-0.62,0 -1.13,-0.31 -1.55,-0.82l-1.85 -2.47c-3.92,3.82 -9.08,3.82 -10.52,3.82 -10.72,0 -16.5,-7.94 -16.5,-20.93 0,-14.44 9.8,-21.96 23.82,-21.96 4.33,0 7.11,0.31 11.24,1.55 0.93,0.31 1.65,0.83 1.65,1.75zm-53.52 -0.72c0,-1.13 0.83,-1.96 1.96,-1.96l5.15 0c1.14,0 1.96,0.82 1.96,1.96l0 37.85c0,1.13 -0.82,1.96 -1.96,1.96l-5.15 0c-1.13,0 -1.96,-0.82 -1.96,-1.96l0 -37.85zm4.54 -15.98c2.78,0 5.05,2.27 5.05,5.05 0,2.78 -2.27,4.95 -5.05,4.95 -2.78,0 -4.95,-2.16 -4.95,-4.95 0,-2.78 2.16,-5.05 4.95,-5.05zm-21.24 21.14c-2.47,0 -7.63,0.31 -8.46,3.2l0 29.49c0,1.13 -0.82,1.96 -1.96,1.96l-5.16 0c-1.13,0 -1.96,-0.82 -1.96,-1.96l0 -34.75c0,-0.93 0.62,-1.65 1.65,-2.27 4.33,-2.89 10.93,-3.4 15.47,-3.4 3.71,0 7.01,0.62 10.52,2.58 0.51,0.31 0.93,0.93 0.93,1.55 0,0.21 0,0.52 -0.11,0.73l-1.75 4.33c-0.21,0.41 -0.62,0.62 -1.13,0.62 -0.31,0 -0.62,-0.1 -0.93,-0.31 -2.47,-1.13 -4.85,-1.75 -7.11,-1.75zm-37.01 0c-14.64,0 -18.36,5.57 -18.36,15.26 0,10.21 5.06,12.17 10.21,12.17 4.54,0 8.15,-4.44 8.15,-4.44l0 -22.99zm9.17 -4.44l0 37.12c0,1.13 -0.82,1.96 -1.96,1.96l-4.33 0c-0.62,0 -1.13,-0.31 -1.55,-0.82l-1.86 -2.47c-3.92,3.82 -9.08,3.82 -10.52,3.82 -10.72,0 -16.5,-7.94 -16.5,-20.93 0,-14.44 9.79,-21.96 23.82,-21.96 4.33,0 7.11,0.31 11.24,1.55 0.93,0.31 1.65,0.83 1.65,1.75zm-75.27 28.36c-0.82,0 -1.96,-0.93 -2.27,-1.75l-13.4 -32.59 -2.78 43.1c-0.41,1.13 -1.24,1.96 -2.37,1.96l-4.74 0c-1.14,0 -1.96,-0.82 -1.96,-1.96l3.61 -54.65c0,-1.14 0.82,-1.96 1.96,-1.96l9.38 0c0.72,0 1.24,0.62 1.65,1.65l13.1 31.14 13.1 -31.14c0.41,-1.03 0.93,-1.65 1.65,-1.65l9.38 0c1.14,0 1.96,0.82 1.96,1.96l3.61 54.65c0,1.13 -0.83,1.96 -1.96,1.96l-4.74 0c-1.13,0 -1.96,-0.82 -2.37,-1.96l-2.78 -43.1 -13.4 32.59c-0.31,0.82 -1.44,1.75 -2.27,1.75l-4.33 0zm-86.61 7.42c0,-0.11 0.72,-2.89 1.13,-4.44 0.31,-1.13 1.03,-1.13 1.44,-1.13 3.82,0.93 9.38,1.65 11.55,1.65 2.78,0 9.49,0 9.49,-4.64 0,-8.77 -24.85,-1.13 -24.85,-18.35 0,-6.7 4.33,-12.17 17.53,-12.17 1.55,0 7.11,0.41 11.44,1.34 0.82,0.2 1.13,1.03 1.13,1.65 0,0.11 -0.31,2.89 -0.41,4.33 -0.11,1.13 -1.03,1.13 -1.44,1.13 -2.78,-0.31 -6.19,-0.72 -7.22,-0.72 -7.22,0 -11.75,0.51 -11.75,4.22 0,8.66 24.85,1.65 24.85,18.26 0,8.25 -6.7,12.68 -18.56,12.68 -2.58,0 -9.18,-0.62 -13.2,-2.16 -0.82,-0.21 -1.13,-1.03 -1.13,-1.65zm-18.97 -31.35c-14.64,0 -18.35,5.57 -18.35,15.26 0,10.21 5.05,12.17 10.21,12.17 4.54,0 8.15,-4.44 8.15,-4.44l0 -22.99zm9.18 -4.44l0 37.12c0,1.13 -0.83,1.96 -1.96,1.96l-4.33 0c-0.62,0 -1.13,-0.31 -1.55,-0.82l-1.86 -2.47c-3.92,3.82 -9.08,3.82 -10.52,3.82 -10.73,0 -16.5,-7.94 -16.5,-20.93 0,-14.44 9.8,-21.96 23.82,-21.96 4.33,0 7.11,0.31 11.24,1.55 0.93,0.31 1.65,0.83 1.65,1.75zm-61.87 31.86c0.93,0 5.36,0 8.35,-1.86l0 -22.79c-2.78,-2.16 -6.81,-2.78 -7.94,-2.78 -6.6,0 -11.96,3.09 -11.96,12.99 0,9.69 3.3,14.44 11.55,14.44zm17.43 3.2c0,0.93 -0.72,1.34 -1.65,1.75 -4.85,2.06 -10.73,2.78 -15.47,2.78 -13.82,0 -21.04,-8.56 -21.04,-22.17 0,-13.61 8.15,-20.73 18.36,-20.73 1.03,0 6.91,0 10.72,2.16l0 -16.39c0,-1.14 0.82,-1.96 1.96,-1.96l5.15 0c1.14,0 1.96,0.82 1.96,1.96l0 52.59zm362.44 -92.21c0,-5.67 -2.06,-13.4 -11.24,-13.4 -9.18,0 -11.24,7.73 -11.24,13.4 0,5.47 1.03,14.02 11.24,14.02 10.21,0 11.24,-8.56 11.24,-14.02zm-31.56 -0.1c0,-12.68 6.5,-21.04 20.32,-21.04 13.82,0 20.32,8.35 20.32,21.04 0,13.61 -6.5,21.86 -20.32,21.86 -13.82,0 -20.32,-8.25 -20.32,-21.86zm-13.71 21.86c-13.4,0 -16.6,-8.77 -16.6,-22.38l0 -12.06 -6.19 0c-1.13,0 -1.96,-0.82 -1.96,-1.96l0 -3.92c0,-1.13 0.83,-1.96 1.96,-1.96l6.08 0 1.96 -14.85c0.11,-1.14 0.82,-1.96 1.96,-1.96l3.51 0c1.13,0 1.95,0.83 1.95,1.96l0 14.85 11.55 0c1.14,0 1.96,0.82 1.96,1.96l0 3.92c0,1.14 -0.82,1.96 -1.96,1.96l-11.55 0 0 14.64c0,4.13 0.21,12.07 9.08,12.07 0.93,0 2.58,-0.31 3.3,-0.41 0.31,-0.11 0.72,-0.11 1.03,-0.11 0.51,0 0.93,0.21 1.14,0.62l1.23 4.54c0.11,0.21 0.11,0.52 0.11,0.72 0,0.62 -0.42,1.24 -0.93,1.55 -2.16,0.52 -5.26,0.83 -7.63,0.83zm-40.63 -35.16c-14.64,0 -18.35,5.57 -18.35,15.26 0,10.21 5.05,12.17 10.21,12.17 4.54,0 8.15,-4.43 8.15,-4.43l0 -23zm9.18 -4.44l0 37.12c0,1.13 -0.82,1.96 -1.96,1.96l-4.33 0c-0.62,0 -1.13,-0.31 -1.55,-0.82l-1.86 -2.47c-3.92,3.82 -9.08,3.82 -10.52,3.82 -10.73,0 -16.5,-7.94 -16.5,-20.93 0,-14.44 9.8,-21.96 23.82,-21.96 4.33,0 7.11,0.31 11.24,1.55 0.93,0.31 1.65,0.82 1.65,1.75zm-53 19.8c0,-9.8 -0.82,-15.37 -9.28,-15.37 -1.24,0 -6.39,0.1 -8.56,1.55l0 31.14c0,1.13 -0.83,1.96 -1.96,1.96l-5.16 0c-1.13,0 -1.96,-0.83 -1.96,-1.96l0 -36.5c0,-0.93 0.72,-1.44 1.65,-1.75 5.05,-1.44 11.24,-2.16 15.47,-2.16 13.82,0 18.87,6.39 18.87,19.8l0 20.62c0,1.13 -0.82,1.96 -1.96,1.96l-5.15 0c-1.13,0 -1.96,-0.83 -1.96,-1.96l0 -17.32zm-44.75 -1.96c0,-5.67 -2.06,-13.4 -11.24,-13.4 -9.17,0 -11.24,7.73 -11.24,13.4 0,5.47 1.03,14.02 11.24,14.02 10.21,0 11.24,-8.56 11.24,-14.02zm-31.55 -0.1c0,-12.68 6.49,-21.04 20.31,-21.04 13.82,0 20.32,8.35 20.32,21.04 0,13.61 -6.49,21.86 -20.32,21.86 -13.82,0 -20.31,-8.25 -20.31,-21.86zm-17.84 -18.46c0,-1.13 0.83,-1.96 1.96,-1.96l5.15 0c1.14,0 1.96,0.82 1.96,1.96l0 37.85c0,1.13 -0.82,1.96 -1.96,1.96l-5.15 0c-1.13,0 -1.96,-0.82 -1.96,-1.96l0 -37.85zm4.54 -15.98c2.78,0 5.05,2.27 5.05,5.05 0,2.78 -2.27,4.95 -5.05,4.95 -2.78,0 -4.95,-2.16 -4.95,-4.95 0,-2.78 2.16,-5.05 4.95,-5.05zm-45.16 52.49c0,-0.1 0.72,-2.89 1.13,-4.43 0.31,-1.13 1.03,-1.13 1.44,-1.13 3.82,0.93 9.38,1.65 11.55,1.65 2.78,0 9.49,0 9.49,-4.64 0,-8.77 -24.85,-1.13 -24.85,-18.35 0,-6.71 4.33,-12.17 17.53,-12.17 1.55,0 7.12,0.41 11.45,1.34 0.82,0.2 1.13,1.03 1.13,1.65 0,0.1 -0.31,2.89 -0.41,4.33 -0.11,1.13 -1.03,1.13 -1.44,1.13 -2.78,-0.31 -6.19,-0.72 -7.22,-0.72 -7.22,0 -11.75,0.52 -11.75,4.23 0,8.66 24.85,1.65 24.85,18.25 0,8.25 -6.7,12.68 -18.56,12.68 -2.58,0 -9.18,-0.62 -13.2,-2.16 -0.82,-0.21 -1.13,-1.03 -1.13,-1.65zm-17.84 -15.98c0,-9.8 -0.83,-15.37 -9.28,-15.37 -1.24,0 -6.39,0.1 -8.56,1.55l0 31.14c0,1.13 -0.82,1.96 -1.96,1.96l-5.15 0c-1.13,0 -1.96,-0.83 -1.96,-1.96l0 -36.5c0,-0.93 0.72,-1.44 1.65,-1.75 5.05,-1.44 11.24,-2.16 15.47,-2.16 13.82,0 18.87,6.39 18.87,19.8l0 20.62c0,1.13 -0.82,1.96 -1.96,1.96l-5.16 0c-1.13,0 -1.96,-0.83 -1.96,-1.96l0 -17.32zm-63.31 -6.5c2.78,2.17 7.22,2.89 9.49,2.89 5.77,0 8.87,-1.44 8.87,-5.46 0,-5.05 -3.82,-6.29 -7.94,-6.29 -5.06,0 -9.08,2.47 -10.42,8.87zm24.03 15.78c0.51,0 0.93,0.2 1.14,0.62l1.75 4.13c0.1,0.2 0.1,0.51 0.1,0.72 0,0.62 -0.41,1.24 -0.93,1.55 -4.44,2.99 -10.21,3.51 -14.75,3.51 -13.71,0 -20.42,-8.25 -20.42,-21.86 0,-12.68 5.78,-21.04 19.49,-21.04 10.93,0 17.01,5.98 17.01,13.1 0,10.52 -7.01,14.13 -15.88,14.13 -2.78,0 -6.08,-0.21 -11.55,-2.06 0,5.67 4.64,10 11.75,10 2.78,0 6.81,-0.62 11.34,-2.47 0.31,-0.21 0.62,-0.31 0.93,-0.31zm-68.37 8.04c0,1.13 -0.82,1.96 -1.96,1.96l-5.16 0c-1.13,0 -1.96,-0.82 -1.96,-1.96l0 -54.65c0,-1.14 0.82,-1.96 1.96,-1.96l17.84 0c13.4,0 20.42,5.78 20.42,18.97 0,13.2 -7.01,18.66 -20.42,18.66l-10.73 0 0 18.97z"/>
  </g>
 </g>
</svg>
