<?xml version="1.0" encoding="UTF-8"?>
<!DOCTYPE svg PUBLIC "-//W3C//DTD SVG 1.1//EN" "http://www.w3.org/Graphics/SVG/1.1/DTD/svg11.dtd">
<!-- Creator: CorelDRAW -->
<svg xmlns="http://www.w3.org/2000/svg" xml:space="preserve" width="33.8667mm" height="17.9227mm" version="1.1" style="shape-rendering:geometricPrecision; text-rendering:geometricPrecision; image-rendering:optimizeQuality; fill-rule:evenodd; clip-rule:evenodd"
viewBox="0 0 501.59 265.45"
 xmlns:xlink="http://www.w3.org/1999/xlink"
 xmlns:xodm="http://www.corel.com/coreldraw/odm/2003">
 <defs>
  <style type="text/css">
   <![CDATA[
    .fil3 {fill:#00758F}
    .fil5 {fill:#69802C}
    .fil11 {fill:#69802D}
    .fil6 {fill:#69812E}
    .fil7 {fill:#6D8333}
    .fil4 {fill:#6F330E}
    .fil8 {fill:#718638}
    .fil10 {fill:#74893D}
    .fil9 {fill:#798D43}
    .fil1 {fill:#B01A2F}
    .fil2 {fill:#D98906}
    .fil0 {fill:#824832;fill-rule:nonzero}
   ]]>
  </style>
 </defs>
 <g id="Camada_x0020_1">
  <metadata id="CorelCorpID_0Corel-Layer"/>
  <g id="Pernambuco.cdr">
   <path class="fil0" d="M112.85 28.54c-4.52,0 -6.48,1.68 -10.71,1.68 -4.17,0 -5.15,-1.79 -5.15,-0.06 0,0.64 0.69,4.4 4.75,4.4 2.43,0 4.28,-0.64 7.01,-0.93 -2.26,4.63 -8.05,12.68 -13.2,12.68 -16.09,0 2.31,-41.51 13.02,-41.51 2.84,0 -3.47,9.15 -3.47,14.36 0,5.09 4.57,6.37 4.57,4.98 0,-3.13 3.47,-14.76 3.47,-16.9 0,-4.8 -1.68,-7.23 -5.85,-7.23 -17.66,0 -44.11,50.13 -11.69,50.13 8.57,0 15.51,-11.87 16.09,-16.61 1.74,0.06 1.56,1.33 2.72,1.33 0.58,0 2.03,-1.27 2.03,-2.78 0,-1.5 -0.87,-3.53 -3.59,-3.53zm32.59 1.21c-4.28,4.96 -13.95,16.8 -21.13,16.8 -2.2,0 -1.8,-3.41 -0.23,-7.51 0.98,0.35 2.2,0.58 3.71,0.58 5.21,0 10.77,-6.98 11.06,-10.22 0.23,-3.3 -3.53,-8.56 -7.93,-8.56 -5.15,0 -14.07,10.86 -14.99,21.25 -0.23,2.84 4.98,7.63 8.86,7.63 7.99,0 19.34,-14.79 21.88,-18.31 0.29,-0.4 -0.12,-3 -1.22,-1.67zm-12.16 -4.62c2.31,0 -1.1,7.8 -7.12,9.18 2.43,-4.79 5.5,-9.18 7.12,-9.18zm45.27 5.04c-3.82,5.5 -11.52,16.79 -14.01,16.79 -0.46,0 -0.58,-0.46 -0.35,-1.27 1.91,-5.61 7.35,-18.99 7.53,-20.96 0.12,-1.68 -2.84,-3.99 -4.75,-4.34 -0.12,-0.06 -0.29,-0.06 -0.46,-0.06 -0.12,0 -0.17,0 -0.29,0.06 -0.17,0.06 -0.35,0.12 -0.46,0.23 -3.36,1.85 -12.27,13.43 -15.51,17.77 2.2,-5.62 4.69,-11.87 4.8,-13.26 0.23,-2.31 -6.08,-6.14 -6.31,-3.36 -0.41,4.63 -8.1,18.29 -8.45,22.4 -0.35,4.11 5.56,6.19 6.48,5.38 0.52,-0.46 0.17,-1.04 0.23,-2.03 1.56,-3.42 12.33,-15.57 16.61,-20.26 -2.49,6.25 -6.6,14.7 -6.83,17.66 -0.35,3.88 4.98,5.9 6.25,5.44 5.38,-0.93 14.42,-14.59 16.67,-18.12 0.35,-0.52 0.12,-3.94 -1.16,-2.09zm31.96 -0.17c-3.82,5.5 -11.35,16.67 -13.84,16.67 -0.52,0 -0.58,-0.46 -0.41,-1.27 1.97,-5.61 7.35,-19.04 7.53,-21.01 0.23,-2.32 -6.02,-6.14 -6.25,-3.36 -0.17,1.97 -1.74,5.79 -3.47,9.9 -3.94,7 -11.06,15.34 -14.24,15.34 -1.85,0 7.64,-18.81 7.82,-21.19 0.23,-2.32 -6.02,-6.14 -6.31,-3.36 -0.4,4.63 -7.81,17.37 -8.22,21.48 -0.35,4.11 4.05,6.54 5.9,6.54 3.59,0 7.53,-3.88 10.54,-7.76 -0.35,1.1 -0.64,1.97 -0.64,2.61 -0.35,3.88 4.92,5.96 6.25,5.5 5.33,-0.93 14.18,-14.41 16.44,-17.95 0.41,-0.58 0.12,-3.94 -1.1,-2.14zm16.9 0c-3.76,5.5 -11.81,16.5 -14.3,16.5 -0.52,0 -0.58,-0.58 -0.29,-1.56 1.85,-5.33 6.72,-17.37 6.89,-19.33 0.17,-2.32 -6.08,-6.14 -6.31,-3.36 -0.23,2.31 -8.28,18.64 -8.63,22.75 -0.35,4.11 5.67,4.75 6.83,4.75 0.17,0 0.29,0 0.35,0 5.33,-0.64 14.12,-14.07 16.38,-17.66 0.35,-0.52 0.35,-3.94 -0.93,-2.08zm-7.82 -12.21c3.3,0 5.85,-4.4 6.08,-6.89 0.17,-2.43 -1.39,-3.88 -3.7,-3.88 -3.07,0 -7.12,3.94 -7.41,7 -0.17,2.03 2.55,3.76 5.04,3.76zm40.58 12.39c-3.82,5.5 -11.52,16.79 -14.01,16.79 -0.46,0 -0.58,-0.46 -0.35,-1.27 1.91,-5.61 7.35,-18.99 7.53,-20.96 0.12,-1.68 -2.84,-3.99 -4.75,-4.34 -0.12,-0.06 -0.29,-0.06 -0.46,-0.06 -0.12,0 -0.17,0 -0.29,0.06 -0.17,0.06 -0.35,0.12 -0.46,0.23 -3.36,1.85 -12.27,13.43 -15.51,17.77 2.2,-5.62 4.69,-11.87 4.8,-13.26 0.23,-2.31 -6.08,-6.14 -6.31,-3.36 -0.41,4.63 -8.1,18.29 -8.45,22.4 -0.35,4.11 5.56,6.19 6.48,5.38 0.52,-0.46 0.17,-1.04 0.23,-2.03 1.56,-3.42 12.33,-15.57 16.61,-20.26 -2.49,6.25 -6.6,14.7 -6.83,17.66 -0.35,3.88 4.98,5.9 6.25,5.44 5.38,-0.93 14.42,-14.59 16.67,-18.12 0.35,-0.52 0.12,-3.94 -1.16,-2.09zm32.07 -0.12c-3.76,5.47 -11.69,16.44 -14.18,16.44 -0.52,0 -0.58,-0.57 -0.29,-1.5 1.85,-5.33 6.72,-17.38 6.83,-19.34 0.23,-2.32 -6.02,-6.14 -6.25,-3.36 -0.06,0.52 -0.52,1.85 -1.27,3.59 -1.74,-2.2 -4.8,-5.09 -8.91,-5.09 -4.51,0 -12.97,17.31 -13.37,21.71 -0.35,4.34 5.21,7.23 8.34,7.23 1.39,0 4.28,-3.18 7,-6.66 -0.23,0.76 -0.35,1.4 -0.4,1.92 -0.35,4.1 5.67,4.74 6.83,4.74 0.17,0 0.29,0 0.35,0 5.33,-0.64 14.24,-14.04 16.5,-17.62 0.35,-0.5 0.12,-3.92 -1.16,-2.06zm-29 16.15c-2.55,0 6.19,-19.57 9.49,-19.57 1.5,0 2.72,0.46 3.65,0.93 -0.35,0.93 -0.81,1.91 -1.21,2.95 -2.55,4.11 -9.84,15.69 -11.93,15.69zm72.48 -16.21c-3.76,5.5 -11.17,17.08 -13.66,17.08 -0.46,0 -0.58,-0.46 -0.35,-1.27 1.91,-5.62 7.35,-18.99 7.53,-20.96 0.12,-1.8 -3.3,-4.34 -5.21,-4.4 0,0 -0.06,0 -0.12,0 -0.06,0 -0.17,0 -0.23,0.06 -0.29,0.06 -0.46,0.17 -0.58,0.41 -2.84,2.43 -10.59,13.66 -13.49,17.94 1.97,-5.09 4.8,-12.16 4.92,-13.78 0.17,-2.32 -6.08,-6.14 -6.31,-3.36 0,0 0,0.06 0,0.06 -2.61,3.13 -9.2,12.97 -11.75,16.9 2.2,-5.67 4.75,-12.16 4.86,-13.49 0.17,-2.37 -6.08,-6.19 -6.31,-3.42 -0.41,4.63 -8.16,18.64 -8.51,22.75 -0.35,4.11 5.62,6.19 6.48,5.33 0.41,-0.35 0.29,-0.69 0.23,-1.27 2.26,-4.17 9.03,-14.07 12.56,-19.1 -1.8,4.4 -3.99,9.2 -4.17,11.64 -0.41,4.11 5.04,6.19 5.96,5.38 0.29,-0.29 0.29,-0.64 0.29,-1.04 1.56,-2.55 6.89,-8.97 12.21,-15.57 -2.43,5.85 -5.56,12.56 -5.79,15.17 -0.35,3.88 4.98,5.9 6.25,5.44 5.38,-0.98 14.07,-14.82 16.32,-18.35 0.35,-0.58 0.12,-3.94 -1.16,-2.14zm25.41 -0.24c-4.28,4.96 -13.95,16.8 -21.13,16.8 -2.2,0 -1.8,-3.41 -0.23,-7.51 0.98,0.35 2.2,0.58 3.71,0.58 5.21,0 10.77,-6.98 11.06,-10.22 0.23,-3.3 -3.53,-8.56 -7.93,-8.56 -5.15,0 -14.07,10.86 -14.99,21.25 -0.23,2.84 4.98,7.63 8.86,7.63 7.99,0 19.33,-14.79 21.88,-18.31 0.29,-0.4 -0.12,-3 -1.22,-1.67zm-12.16 -4.62c2.32,0 -1.1,7.8 -7.12,9.18 2.43,-4.79 5.5,-9.18 7.12,-9.18zm45.27 5.04c-3.82,5.5 -11.52,16.79 -14.01,16.79 -0.46,0 -0.58,-0.46 -0.35,-1.27 1.91,-5.61 7.35,-18.99 7.53,-20.96 0.12,-1.68 -2.84,-3.99 -4.75,-4.34 -0.12,-0.06 -0.29,-0.06 -0.46,-0.06 -0.12,0 -0.17,0 -0.29,0.06 -0.17,0.06 -0.35,0.12 -0.46,0.23 -3.36,1.85 -12.27,13.43 -15.51,17.77 2.2,-5.62 4.69,-11.87 4.8,-13.26 0.23,-2.31 -6.08,-6.14 -6.31,-3.36 -0.41,4.63 -8.1,18.29 -8.45,22.4 -0.35,4.11 5.56,6.19 6.48,5.38 0.52,-0.46 0.17,-1.04 0.23,-2.03 1.56,-3.42 12.33,-15.57 16.61,-20.26 -2.49,6.25 -6.6,14.7 -6.83,17.66 -0.35,3.88 4.98,5.9 6.25,5.44 5.38,-0.93 14.42,-14.59 16.67,-18.12 0.35,-0.52 0.12,-3.94 -1.16,-2.09zm20.03 -17.42c-2.43,0 -4.17,0.17 -6.08,0.4 1.04,-2.95 1.68,-5.09 1.74,-5.61 0.23,-2.37 -7.87,-7.18 -8.1,-4.4 -0.29,3.24 -1.1,6.95 -2.14,10.83 -1.16,0 -2.37,0.06 -3.82,0.06 -4.52,0 -5.79,-1.74 -6.43,-1.74 -1.5,0 -0.29,6.6 4.17,6.6 1.1,0 2.78,-0.17 4.69,-0.41 -3.7,11.75 -8.97,23.62 -9.26,26.45 -0.35,4.11 5.67,4.8 6.83,4.8 0.17,0 0.29,-0.06 0.4,-0.06 5.27,-0.58 14.18,-14.01 16.5,-17.6 0.35,-0.58 0.12,-3.94 -1.16,-2.14 -3.82,5.5 -11.75,16.56 -14.18,16.56 -0.58,0 -0.64,-0.58 -0.35,-1.62l0 0c1.79,-5.44 6.54,-18.58 9.72,-27.73 3.59,-0.58 6.77,-1.04 8.05,-1.04 3.88,0 3.42,1.21 4.52,1.21 1.21,0 1.04,-4.57 -5.09,-4.57zm22.64 17.01c-4.28,4.96 -13.95,16.8 -21.13,16.8 -2.2,0 -1.79,-3.41 -0.23,-7.51 0.98,0.35 2.2,0.58 3.7,0.58 5.21,0 10.77,-6.98 11.06,-10.22 0.23,-3.3 -3.53,-8.56 -7.93,-8.56 -5.15,0 -14.07,10.86 -14.99,21.25 -0.23,2.84 4.98,7.63 8.86,7.63 7.99,0 19.34,-14.79 21.88,-18.31 0.29,-0.4 -0.12,-3 -1.21,-1.67zm-12.16 -4.62c2.31,0 -1.1,7.8 -7.12,9.18 2.43,-4.79 5.5,-9.18 7.12,-9.18z"/>
   <g>
    <path class="fil1" d="M350.81 113.02c-0.23,-8.3 -5.92,-10.31 -0.28,-18.18 1.67,-2.34 8.58,-11.31 11.96,-10.74 3.67,0.62 8.88,8.22 10.74,12.12 1.68,3.53 2.1,5.07 1.02,9.29 -2.25,8.71 -3.97,7.18 4.73,7.18 5.31,0 12.57,2.27 12.67,7.62l-3.71 -0.19c-5.66,-0.31 -11.94,4.29 -14.32,7.12 -4.81,5.73 -1.43,8.89 -13.3,8.04 -6.21,-0.45 -8.48,-6.26 -11.56,-9.73 -4.51,-5.07 -9.05,-3.79 -16.68,-4.65 -0.58,-2.97 4.22,-7.16 6.17,-8.14 5.9,-2.96 7.7,0.44 12.56,0.27zm0.69 -44.3c-7.64,0.7 -10.88,3.52 -13.6,9.01 -7.08,14.29 -10.44,40.71 -11.06,56.73 -0.17,4.51 -1.13,18.27 -0.23,21.82 1.64,6.44 15.24,4.81 17.18,3.03 3.51,-3.21 2.19,-12.6 8.31,-14.04 4.09,-0.97 17.21,-1.92 20.75,-0.19 5.5,2.69 1.56,13.44 6.87,15.55 1.87,0.75 8.38,0.46 10.81,0.28 3.54,-0.26 5.89,-1.46 7.05,-4.48 2.13,-5.52 -1.49,-34.89 -2.62,-41.74 -2.03,-12.32 -4.79,-25.18 -10.22,-34.85 -2.63,-4.69 -5.98,-8.67 -11.87,-10.5 -4.47,-1.39 -16.28,-1.09 -21.37,-0.62z"/>
    <path class="fil2" d="M384.82 117.03c-6.62,-3.89 -6.94,-2.24 -11.28,-1.11 -6.59,1.72 -3.41,-5.34 -2.42,-8.34 1.73,-5.24 0.72,-8.03 -1.56,-11.8 -1.23,-2.03 -5.05,-7.29 -8.06,-6.01 -1.97,0.83 -5.87,5.71 -7.27,7.65 -3.41,4.73 -2.57,5.85 -1.05,11.74 3.82,14.79 -10.74,-1.24 -16.38,9.63 6.38,0.21 10.47,0.79 14.2,4.49 2.91,2.89 5.02,7.76 10.81,7.75 5.68,-0.01 7.93,-5.43 10.6,-7.95 5.49,-5.18 10.19,-4.82 12.39,-6.05z"/>
    <path class="fil1" d="M92.53 109.13l-0.22 -5.38c-1.32,-0.44 -4.5,1.48 -2.92,-1.87 1.48,-1.03 1.3,0.02 2.95,-0.07l0.67 -5.38c-0.55,-0.38 -1.4,-0.17 -2.28,-0.71 -0.25,-3.25 1.57,-1.89 2.76,-0.96 0.69,-1.5 1.46,-3.02 2,-4.3 -0.84,-1.15 -2.22,-1.23 -0.98,-3.21 1.81,0.07 1.17,0.47 2.12,1.73 1.16,-0.9 2.22,-1.84 3.67,-2.99 -0.49,-1.55 -2.04,-1.64 -0.6,-3.56 1.77,0.46 1.01,1.2 1.77,2.76l4.84 -1.71c-0.68,-1.6 -1.35,-1.72 -0.35,-3.38 1.59,0.52 1.27,1.26 1.38,3.24l5.27 -0.4c-0.09,-1.83 -0.68,-2.03 0.01,-3.67 2.15,0.37 1.29,1.73 0.94,3.85l5.08 0.86c0.18,-1.91 -0.15,-2.53 1.6,-2.91 0.78,1.9 0.12,1.66 -0.42,3.41l4.33 2.03c1.11,-2.12 -0.75,-1.73 1.2,-2.88 1.84,1.28 0.38,2.7 -0.03,3.85 1.1,1 2.04,2.42 3.39,3.06 1.34,-1.05 0.45,-1.24 1.86,-1.94 1.82,1.81 -0.11,2.13 -1.34,3.03 0.25,0.53 1.9,4.73 2.3,4.96 1,0.57 2.33,-0.7 2.22,1.25 -0.08,1.4 -1.23,1.19 -2.38,0.81l-0.79 5.63c1.27,1.57 1.23,-0.48 1.36,1.85 -1.22,0.71 -0.85,0.05 -2.42,-0.03 -0.9,2.23 -1.72,2.5 -2.83,4.13 0.58,1.94 1.99,1.34 0.81,3.2 -1.24,-0.27 -0.66,-0.01 -1.8,-1.65 -0.04,-0.06 -0.14,-0.18 -0.17,-0.23 -0.04,-0.05 -0.11,-0.16 -0.18,-0.23 -1.52,1.05 -2.81,1.97 -4.86,2.63 0.28,1.21 0.93,1.73 0.46,2.99 -1.17,-0.27 -0.61,0.11 -1.21,-0.68l-0.6 -1.4c-0.03,-0.08 -0.07,-0.22 -0.13,-0.31l-5.09 1.1c0.05,1.5 0.9,2.05 -0.51,2.79 -1.21,-0.91 -0.75,-0.8 -0.62,-2.71l-4.99 0.16c0.15,1.45 0.96,2.1 -0.36,2.9 -1.4,-0.85 -0.71,-0.91 -0.71,-2.93l-5.64 -0.41 -0.16 3c-2.25,-0.55 -1.36,-1.17 -1.27,-3.38l-2.78 -0.5c0.78,11.15 4.07,14.89 15.79,14.77 8.79,-0.09 18.74,-2.09 23.69,-6.96 5.07,-4.98 6.52,-14.78 6.57,-23.69 0.06,-10.6 -0.86,-17.68 -6.45,-24.18 -4.16,-4.83 -14.95,-6.6 -23.43,-6.85 -10.23,-0.3 -18.84,-0.21 -25.97,4.68 -5.04,3.46 -10.15,11.9 -9.64,21.14 0.25,4.62 3.49,7.74 5.73,9.72 2.29,2.02 5.57,5.05 9.35,5.94z"/>
    <path class="fil2" d="M77.07 101.84c-1.32,12.04 1.65,40.45 7.9,51.39 6.68,11.69 42.06,9.06 47.85,3.98 3.36,-2.95 2.58,-9.55 1.46,-11.88 -3.14,-6.53 -10.6,0.54 -25.12,-0.95 -5.26,-0.54 -7.61,-1.36 -9.76,-5.2 -2.45,-4.36 -5.09,-18.15 -6,-23.84 -0.83,-5.19 -4.14,-1.09 -12.59,-9.78 -0.7,-0.72 -3.1,-3.35 -3.73,-3.72z"/>
    <path class="fil3" d="M96.39 110.48c6.04,2.36 18.9,2.53 23.95,-0.42 5.59,-3.26 9.23,-12.21 3.15,-18.46 -5.94,-6.12 -29.67,-11.36 -27.1,18.89z"/>
    <path class="fil2" d="M288.52 144.91c-2,3.18 -7.63,0.74 -5.79,-3.52 1.45,-3.35 8.6,-0.95 5.79,3.52zm11.29 -0.72c-6.41,0.75 -6.2,-5.62 -2.99,-6.27 2.22,-0.45 3.79,0.38 4.36,1.81 0.79,1.97 -0.43,3.18 -1.37,4.46zm-22.05 -7.11c-1.49,4.05 -7.38,2.19 -6.32,-2.11 0.98,-3.98 7.93,-2.26 6.32,2.11zm-16.69 -7.83c-1.01,-5.22 5.88,-5.34 6.55,-1.79 0.97,5.11 -5.92,5.05 -6.55,1.79zm44.22 0c-1.61,3.67 -7.55,1.65 -6.13,-2.73 1.18,-3.63 8.17,-1.92 6.13,2.73zm-47.56 -8.21c-1.54,4.14 -7.39,2.24 -6.35,-2.01 1.01,-4.13 7.92,-2.21 6.35,2.01zm35.22 -1.86c-1.54,-5.21 5.95,-5.76 6.5,-1.84 0.67,4.71 -5.54,5.08 -6.5,1.84zm-1.99 -9.32c-1.51,4.65 -7.29,2.2 -6.4,-1.7 0.94,-4.15 7.77,-2.54 6.4,1.7zm-40.15 -0.74c-1.43,3.96 -7.32,2.17 -6.32,-2.17 0.9,-3.86 7.95,-2.35 6.32,2.17zm3.81 -1.86c-0.81,-5.62 4.37,-11.21 10.3,-8.82 4.54,1.83 8.17,6.19 11.19,8.91 3.95,3.55 17.96,16.57 19.66,20.61 1.78,4.22 -2.68,10.93 -9.44,7.98 -3.74,-1.63 -20.3,-14.82 -22.98,-17.33 -3.03,-2.83 -7.89,-5.52 -8.73,-11.36zm19.52 -5.6c-1.39,-5.15 5.66,-5.66 6.5,-2.13 0.49,2.05 -0.84,4.03 -2.28,4.27 -1.73,0.29 -3.96,-1.15 -4.23,-2.14zm-24.9 -9.9c5.36,-1.34 5.64,5.24 2.49,6.29 -4.41,1.47 -6.58,-5.27 -2.49,-6.29zm13.62 -2.82c4.67,-1.98 6.62,3.72 3.43,5.8 -3.58,2.33 -7.63,-4.02 -3.43,-5.8zm-11.85 -19.64c-5.43,1.18 -11.31,-1.67 -13.94,4.39 -1.42,3.26 -0.68,14.06 -0.69,18.27 -0.02,12.45 0.36,25.08 0.36,37.67 0,6.29 0,12.42 0.44,18.64 0.18,2.61 0.52,5.66 1.25,7.95 0.9,2.79 2.25,3.91 5.28,4.38 4.08,0.63 14.34,1.11 16.19,-2.13 2.19,-3.84 0.15,-13.1 2.18,-16.83 3.35,-0.05 15.42,11.77 19.46,14.73 2.58,1.89 3.53,3.5 7.7,3.82 4.57,0.35 19.06,1.19 20.87,-2.25 4.07,-7.74 4.44,-54.55 4.91,-64.48 0.28,-5.85 0.83,-17.06 -1.74,-21.42 -3.36,-5.71 -14.75,-2.81 -19.41,-3.64l-2.35 1.6c-3,3.14 0.77,14.15 -1.45,21.28 -3.21,-0.16 -15.08,-10.31 -17.96,-12.75 -12.13,-10.28 -8.85,-9.55 -21.12,-9.21z"/>
    <path class="fil4" d="M264.25 103.36c-4.69,1.26 -4.39,6.94 -1.87,10.25 1.7,2.24 5.77,5.23 8.28,7.39 3.25,2.79 15.1,12.84 19.28,12.25 1.76,-0.25 3.61,-2.3 3.6,-4.37 -0.01,-2.33 -2.07,-3.8 -3.15,-4.87 -5.55,-5.53 -9.99,-10.21 -15.98,-15.35 -1.73,-1.49 -6.32,-6.33 -10.17,-5.3z"/>
    <path class="fil3" d="M457.3 147.14c-2.9,-3.04 -1.57,-3.84 -0.1,-6.36 1.71,1.18 2.85,5.12 0.1,6.36zm-3.72 -6.02c-2.14,-1 -4.35,-2.57 -2.97,-5.84 1.44,0.35 1.89,1.2 2.97,2.08l0.11 1.96 0.02 0.37 -0.14 1.43zm6.97 -0.3c-0.05,-1.97 -0.2,-3.7 0.86,-4.85 0.58,-0.62 2.05,-1.66 3.15,-1.73 0.69,3.28 -2.01,5.76 -4.01,6.58zm-3.25 -3.71c-1.71,-1.68 -1.8,-3.55 -0.86,-5.71l0.86 -1.51c0.52,0.39 0.74,0.46 1.16,1.53 0.8,2.04 0.4,4.28 -1.16,5.69zm-8.39 -3.53c-2.76,-0.46 -5.06,-2.13 -4.51,-5.3 4,0.24 4,1.64 4.51,5.3zm17.69 -1.27c0.21,-0.81 1.23,-3.28 1.58,-3.74 0.84,-1.14 2.42,-1.26 4.22,-1.3 -0.31,3.22 -2.49,4.62 -5.79,5.04zm-24.29 -4.65c-3.24,0.16 -5.73,-1.83 -5.61,-5.13 4.18,0.5 4.31,1.86 5.61,5.13zm15.37 -1.32c-0.19,-0.14 -0.5,0.07 -1.17,-1.54 -0.78,-1.87 -0.16,-4.45 1.36,-5.72 1.07,2.4 1.82,5.06 -0.18,7.26zm16.65 0.05c1.21,-3.55 1.77,-4.61 6.13,-4.67 -0.39,3.16 -2.74,4.32 -6.13,4.67zm-45.79 -10.4c3.46,0.44 4.72,1.71 5.25,4.95 -3.67,-0.08 -4.88,-1.42 -5.25,-4.95zm54.14 4.61c1.08,-3.35 1.83,-4.72 6.01,-4.96 -0.43,3.19 -2.67,4.4 -6.01,4.96zm-25.75 -5.48c-2.14,-2.73 -1.43,-5.09 0.09,-7.73 1.59,1.72 2.77,6.25 -0.09,7.73zm-31.24 -1.97c-3.19,-0.85 -4.4,-3.41 -3.27,-6.79 2.9,0.99 3.59,2.86 3.27,6.79zm63.82 0.29c0.08,-1.8 -0.09,-3.73 0.8,-4.89 0.56,-0.73 1.68,-1.7 2.55,-1.83 0.5,3.28 -1.19,5.5 -3.35,6.71zm-28.29 17.18c-0.24,-7.85 0.1,-15.96 0.04,-23.74 -0.03,-3.9 0,-3.48 2.08,-5.51 19.95,-19.55 24.54,2.05 23.05,7.45 -2.29,8.3 -11.93,8.01 -21.4,18.07 -0.41,0.44 -3.48,3.59 -3.77,3.74zm-9.04 -0.5c-0.62,-0.41 -0.19,-0.1 -0.7,-0.58 -0.21,-0.2 -0.38,-0.41 -0.56,-0.62l-6.63 -6.78c-2.78,-2.56 -5.34,-4.59 -8.81,-6.85 -3.26,-2.12 -6.26,-3.88 -7.72,-7.95 -2.32,-6.48 2.86,-19.08 13.24,-12.87 3.49,2.09 6.29,4.52 8.69,6.97 2,2.04 1.54,2.48 1.69,6.17 0.09,2.37 0.21,4.99 0.31,7.48 0.19,4.7 0.73,10.44 0.49,15.03zm40.69 -27.54c-0.52,-0.08 -5.91,-3.73 -2.75,-7.6 2.66,1.16 3.5,3.9 2.75,7.6zm-70.57 -1.39c-1.39,-2.8 -1.38,-6.63 1.81,-7.04 2.17,3.04 0.88,5.93 -1.81,7.04zm30.13 -4.9c1.91,0.62 4.32,3.57 3.58,6.7 -3.3,-1.97 -3.2,-1.85 -3.58,-6.7zm6.14 6.32c-0.94,-3.24 1.76,-5.27 3.88,-6.12 -0.53,2.87 -1.27,5.67 -3.88,6.12zm6.47 -8.37c0.26,-3.01 1.72,-3.91 4.74,-4.34 -0.73,3.36 -1.06,4.36 -4.74,4.34zm-15.18 -0.49c-3.57,-0.22 -3.47,-1.16 -4.26,-4.16 2.87,-0.49 4.35,1.35 4.26,4.16zm39.22 -1.29c-3.39,-0.51 -5.66,-1.35 -6.2,-4.39 2.99,-0.44 5.37,2.36 6.2,4.39zm-63.58 -1.86c1.28,-2.21 3.22,-3.71 6.67,-3.61 -0.39,2.29 -1.11,3.66 -3.58,3.66l-1.49 0.01 -1.6 -0.07zm46.44 -1.61c1.14,-2.15 4.1,-2.93 7.5,-2.35 -0.14,0.97 -4.41,4.75 -7.5,2.35zm-29.43 -0.24c-1.54,0.2 -3.2,0.51 -4.48,-0.27 -0.56,-0.34 -2.33,-1.98 -2.64,-2.39 3.26,-0.75 6.43,-0.29 7.12,2.66zm-30.57 -10.58l0.43 49.6c0,7.21 -0.08,14.56 0.55,21.63 1.06,11.83 2.8,11.72 14.92,11.72 5.78,0 8.15,-0.25 8.84,-5.8 0.45,-3.63 -0.28,-11.24 1.6,-13.46 6.29,-0.31 10.7,17.57 18.28,18.41 8.5,0.95 10.91,-18.98 18.73,-18.37 1.69,3.27 0.9,8.88 1.44,13.13 0.91,7.15 4.64,6.08 13.02,6.08 9.67,0 10.01,-3.14 10.83,-12.05 0.65,-7.17 0.58,-15.01 0.58,-22.41l0.43 -47.74c0,-12.63 -7.34,-10.45 -21.16,-10.45 -8.44,0 -12.29,3.56 -17.89,8.97 -5.06,4.88 -6.25,4.81 -16.83,-3.33 -1.67,-1.28 -3.3,-2.59 -5.16,-3.8 -3.86,-2.49 -6.35,-1.84 -11.96,-1.84 -9.63,0 -16.65,-1.3 -16.65,9.7z"/>
    <path class="fil2" d="M463.82 124.3c0.55,-0.22 5.13,-4.89 5.98,-5.67 6.57,-6.09 11,-6.09 13.07,-10.4 2.57,-5.33 -2.73,-18.5 -16.78,-4.86 -1.47,1.42 -1.6,1.56 -1.94,3.99 -0.66,4.76 -0.48,12.16 -0.34,16.95z"/>
    <path class="fil1" d="M450 124.28c0.22,-5.12 0.24,-11.41 -0.47,-16.28 -0.56,-3.83 -2.16,-4.91 -4.29,-6.61 -3.74,-2.98 -10.63,-7.01 -13.47,0.04 -3.47,8.61 6.63,10.91 13.24,17.34l4.99 5.5z"/>
    <path class="fil5" d="M181.89 130.22c-0.08,-9.99 2.18,-17.65 3.24,-26.94l-29.39 13.43c-0.59,5.99 -0.74,39.21 1.66,42.42 1.63,2.18 5.99,1.86 9.28,1.57 6.92,-0.62 6.54,-1.79 6.52,-15.79 -0,-3.46 -0.6,-7.39 -0.39,-10.66 2.54,2.07 14.24,15.27 16.61,18.59 3.77,5.29 5.71,9.74 12.86,7.81 11.19,-3.03 7.26,-9.22 2.55,-16.15 -5.29,-7.78 -6.75,-8.05 -11.07,-13.57 -0.03,-0.04 -0.76,-1 -0.79,-1.07 -0.56,-1.3 -0.31,-0.49 0.08,-0.88 1.6,-1.11 12.64,-0.16 15.75,-0.63l-9.16 -12.24c-1.61,-2.31 -7.67,-11.67 -9.02,-12.95 -1.17,1.67 -2.7,11 -3.52,13.98l-3.42 10c-0.49,1.26 -0.73,2.2 -1.81,3.06z"/>
    <path class="fil3" d="M194.37 98.67c0.64,1.71 12.05,17.26 15.65,29.5 12.32,-0.39 15.72,-17.73 15.72,-28.01 0,-4.23 -0.15,-16.11 -1.92,-18.85 -1.63,0.65 -5.04,3.22 -6.98,4.41l-14.84 8.65c-2.1,1.14 -5.96,2.89 -7.64,4.3z"/>
    <path class="fil1" d="M155.69 114.7l29.6 -17.9c-1.78,-3.8 -16.64,-22.4 -20.02,-25.82 -4.75,0.37 -6.63,0.93 -7.5,5.65 -1.55,8.46 -2.38,29.97 -2.09,38.07z"/>
    <path class="fil2" d="M195.2 77.78l-0.43 13.14 27.02 -11.41c0.96,-0.43 0.41,-0.11 1.09,-0.61 -1.21,-4.09 -6.3,-7.43 -10.69,-8.82 -4.64,-1.46 -11.99,-2.1 -17.13,-2.43l0.15 10.13z"/>
    <path class="fil4" d="M167.18 70.4c0.34,0.97 6.01,6.02 7.3,7.12l7.48 7.07c1.6,1.61 3.2,3.55 4.95,5.01l5.38 -22c-8.37,-0.34 -17.48,1.07 -25.11,2.79z"/>
    <path class="fil3" d="M33.62 90.81c2.02,-2.03 2.02,-4.28 6.81,-7.33 3.03,-1.93 8.34,-2.48 11.18,0.19 3.33,3.13 1.98,11.05 -2.7,15 -1.34,1.13 -3.17,1.91 -4.44,2.96 14.22,7.77 10.47,25.56 -3.71,17.49 -5.24,-2.98 -5.06,-5.43 -7.22,-7.43 -1.62,3.2 -4.04,5.68 -6.89,7.61 -7.73,5.21 -16.46,1.53 -10.74,-10.73 2.46,-5.27 5.41,-5.33 7.27,-7.29 -2.93,-2.34 -4.61,-2.57 -7.57,-6.99 -1.81,-2.71 -3.42,-7.91 -0.76,-11.02 2.22,-2.6 9.34,-1.07 11.63,0.16 4.07,2.18 5.17,5 7.13,7.38zm-14.84 40.75c6.37,0.24 18.64,6.53 34.75,-1.42 12.13,-5.98 12.52,-12.4 13.56,-27.85 0.77,-11.51 -1.11,-23.59 -10.69,-30.5 -9.04,-6.52 -23.54,-4.65 -35.67,-2.88 -16.9,2.47 -19.32,3.28 -20.43,21.19 -0.82,13.28 0.09,45.25 1.95,59.41 1.19,9.04 -0.8,11.87 9.36,11.58 10.8,-0.31 10.29,-1.35 9.55,-11.29 -0.47,-6.37 -1.74,-12.27 -2.38,-18.24z"/>
    <path class="fil2" d="M49.79 115.97c1.1,-5 -6.7,-12.41 -11.83,-11.47 -2.24,5.15 5.55,13.14 11.83,11.47z"/>
    <path class="fil1" d="M18.2 116.71c4.68,1.63 14.28,-5.82 11.58,-11.95 -3.9,-0.89 -6.31,2.09 -7.88,3.82 -1.42,1.55 -4.15,5.27 -3.7,8.14z"/>
    <path class="fil2" d="M29.51 96.8c0.91,-5 -7.12,-12.55 -9.9,-9.91 -3.37,3.2 4.48,10.76 9.9,9.91z"/>
    <path class="fil1" d="M43.74 86.62c-5.25,1.34 -9.77,13.25 -1.98,8.98 1.82,-1 4.23,-3 5.42,-4.65 2.15,-2.97 -0.02,-5.21 -3.44,-4.34z"/>
    <path class="fil4" d="M32.79 98.63c3.47,-0.38 3.91,1.47 1.95,3.4 -1.13,0.02 -1.67,-0.25 -2.39,-0.57 -0.29,-1.56 -0.13,-1.6 0.44,-2.82zm-0.5 -2.15c-1.95,1.06 -4.37,2.12 -3.2,5.61 2.26,6.76 10.78,2.05 9.35,-2.95 -0.65,-2.25 -3.41,-4.14 -6.15,-2.66z"/>
   </g>
   <g>
    <path class="fil2" d="M88.21 226.93c0.42,7.9 1.29,16.9 3.65,23.88 2.49,7.37 6.73,10.84 14.34,12.92 10.24,2.79 37.2,3.42 42.78,-8.82l0.84 1.02c4.57,7.25 16.57,9.03 19.19,-0.78 1.53,-5.73 -0.83,-8.8 -2.05,-13.74 -3.37,-13.6 -5.31,-32.3 -4.11,-46.17 1.05,-12.19 2.13,-19.63 -9.39,-23.11 -6.85,-0.51 -10.37,0.64 -13.23,4.65 -2.46,3.46 -3.8,8.48 -3.74,13.72 0.74,-0.49 0.18,-0.06 0.75,-0.6 1.22,-1.14 2.94,-4.58 6.7,-5.67 8.53,-2.46 9.51,8.32 2.56,13.75 -8.08,6.32 -11.26,-0.31 -12.9,26.71 -0.42,6.85 0.95,19.18 -3.71,22.32 -3.31,2.23 -7.46,1.46 -10.47,-0.59 -8.3,-5.64 2.18,-24.51 -8.44,-30.72 -3.4,-1.99 -7.95,-1.41 -10.28,-3.15 -5.82,-4.35 -2.57,-17.17 13.47,-8.25 1.58,0.88 2.65,2.03 3.72,2.53 0.25,-5.5 1.25,-9.57 0.12,-15.29 -1.03,-5.22 -3.6,-6.1 -7.25,-8.43 -8,-5.12 -3.87,-12.16 -11.76,-11.75 -2.19,0.11 -4.44,0.56 -6.29,1.54 -7.48,3.97 -6.41,14.86 -6.12,24.57 0.29,9.86 0.85,19.74 1.6,29.48z"/>
    <path class="fil4" d="M183.53 185.43c-0.6,3.1 -1.56,6.03 -2.11,9.1 -2.98,16.4 -4.64,56.04 6.86,65.85 6.98,5.95 28.15,4.99 39.05,4.3 14.12,-0.9 16.55,-3.52 15.83,-17.62 -0.24,-4.56 -2.04,-4.22 -5.02,-5.99 -7.98,-1.25 -17.89,-0.68 -25.1,-2.79 -4.04,-1.18 -5.59,-3.08 -6.71,-7.13 -1.2,-4.35 -0.74,-8.62 -0.75,-13.16 -0.03,-17.31 2.75,-21.9 20.63,-20.78 9.68,0.6 18.47,5.14 18.57,-6.06 0.04,-4.49 0.27,-8.61 -1.18,-12.58 -2.56,-7 -11.31,-7.36 -20.03,-7.65 -10.46,-0.36 -28.85,-1.96 -35.03,5.68l-5.01 8.84z"/>
    <path class="fil1" d="M276.34 216.67c-0.23,-8.3 -5.91,-10.31 -0.28,-18.18 2.94,-4.11 4.77,-5.93 8.24,-8.93 1.02,-0.88 1.72,-2.15 3.73,-1.81 3.67,0.62 8.88,8.22 10.73,12.12 2.56,5.39 1.7,7.36 -0.21,13.65 -0.62,2.04 -1.45,2.99 1.12,2.91 4.38,-0.14 9.49,-0.44 13.26,1.72 1.64,0.93 4.21,3.2 4.26,5.81l-3.71 -0.19c-5.66,-0.31 -11.94,4.29 -14.32,7.12 -4.81,5.73 -1.44,8.89 -13.3,8.04 -6.21,-0.45 -8.48,-6.26 -11.56,-9.73 -4.51,-5.07 -9.05,-3.79 -16.68,-4.65 -0.58,-2.97 4.22,-7.16 6.17,-8.14 5.9,-2.96 7.7,0.44 12.56,0.27zm-24.54 29.19c1.79,8.38 -5.72,20.42 13.15,18.39 3.97,-0.43 4.9,-0.98 6.13,-4.37 2.55,-7.04 1.51,-10.49 9.56,-11.35 5.06,-0.54 15.23,-2.24 18.86,0.94 3.76,3.29 0.82,13.19 6.04,14.91 1.85,0.61 7.82,0.35 10.17,0.21 3.56,-0.21 5.68,-1.18 7.06,-3.76 2.74,-5.11 -1.02,-32.32 -1.69,-39.5 -1.75,-2.44 -3.54,-43.45 -23.51,-48.58 -4.24,-1.09 -18.23,-0.87 -22.78,-0.16 -12.49,1.95 -15.49,18.36 -17.98,30.12 -1.42,6.68 -2.89,13.56 -3.6,20.52 -0.39,3.76 -0.43,21.02 -1.4,22.62z"/>
    <path class="fil1" d="M37.1 211.72l5.91 0.59 -5.25 -8.43c-15.63,-28.41 20.97,-32.04 24.37,-14.32 0.72,3.75 -0.23,8.22 -1.21,11.59 -0.87,3.01 -2.71,7.59 -3.05,10.63 3.74,2.68 3.66,6.88 1.12,10.95 -1.23,1.97 -0.23,3.65 0.53,6.01 3.02,9.33 7.93,22.66 -3.76,28.06 -3.82,1.76 -8.99,1.91 -13.26,0.55 -11.44,-3.66 -4.13,-23.74 0.05,-30.93 1.55,-2.66 1.28,-1.74 0.51,-2.12l-30.79 9.79c0.02,9.02 -0.88,23.47 5.72,27.62 6.35,3.99 21.4,4.02 29.93,3.53 11.01,-0.63 19.18,-2.41 24.83,-8.62 2.63,-2.88 4.7,-6.82 4.7,-12.15 0,-2.51 -1.65,-15.02 -1.57,-15.3 -1.05,-1.15 -1.48,-3.32 -2.13,-4.57 -0.7,-1.34 -1.77,-2.92 -2.54,-3.81 -1.84,-2.11 -4.67,-3.37 -8.62,-3.76 3.39,-1.68 5.1,-1.71 7.59,-4.37 6.83,-7.3 5.87,-22.94 3.36,-30.36 -2.18,-6.44 -6.55,-9.35 -14.1,-10.52 -7.84,-1.21 -15.71,-1.34 -23.84,-1.12 -9.41,1.02 -17.19,1.44 -20.9,8.52 -2.78,5.31 -3.3,19.81 -3.1,26.92l25.49 5.63z"/>
    <path class="fil2" d="M310.35 220.68c-6.62,-3.89 -6.94,-2.24 -11.28,-1.11 -6.59,1.72 -3.41,-5.35 -2.42,-8.34 1.73,-5.24 0.72,-8.03 -1.56,-11.8 -6.18,-10.18 -9.7,-6.16 -15.33,1.64 -3.41,4.73 -2.57,5.85 -1.05,11.74 3.82,14.79 -10.74,-1.24 -16.38,9.63 6.38,0.21 10.47,0.79 14.2,4.49 2.91,2.89 5.02,7.76 10.81,7.75 5.68,-0.01 7.93,-5.43 10.6,-7.95 1.37,-1.29 3.38,-2.74 5.53,-3.8 1.91,-0.93 5.72,-1.62 6.86,-2.25z"/>
    <path class="fil2" d="M235.03 204.28l-5.79 3.19 -0.61 -4.25c-1.32,0.31 -2.65,2.38 -4.07,3.26l-2.81 -4.93c-1.1,1.54 -0.91,4.22 -1.95,6.02l-4.99 -2.32 1.2 5.14 -5.83 -0.66c0.8,1.85 2.49,2.83 3.41,4.86l-6.22 1.6 5.69 2.95c-1.17,1.99 -4.14,2.9 -5.23,4.9l6.78 -0.07 -2.37 4.48 5.65 -1 0.06 4.74c1.55,-0.67 2.63,-1.77 4.14,-2.72 1.11,1.55 1.61,4.31 2.47,6.43l2.28 -6.47c1.85,0.64 2.87,2.4 4.41,2.63l0.07 -4.71 6.17 2.26c-0.69,-2.11 -2.49,-4.15 -2.68,-5.9 1.43,-0.13 3.69,0.03 4.84,-0.91l-3.34 -3.31c1.04,-1.13 3.57,-1.32 5.66,-2.61l-6.38 -2.33c0.68,-1.56 2.13,-3.16 2.47,-4.71l-4.88 0.48 1.85 -6.03z"/>
    <path class="fil3" d="M44.17 185.03c-9.26,2.18 -2.4,16.24 0.91,21.62 2.53,4.12 2.07,2.91 7.73,2.69 2.59,-0.1 1.99,0.05 3.3,-7.02 1.65,-8.91 1.44,-20.43 -11.94,-17.29z"/>
    <path class="fil2" d="M53.64 227.9c-2.99,0.2 -4.31,-0.31 -7.04,-0.76 -2.41,7.81 -13.23,24.74 0.18,25.66 6.54,0.45 10.51,-2.63 10.44,-9.08 -0.06,-6.08 -2.49,-10.7 -3.58,-15.83z"/>
    <path class="fil5" d="M21.54 214.11c-2.62,-0.29 -7.49,-0.2 -9.42,-1.46 -1.41,0.78 -0.78,4.03 -0.66,7.21 0.09,2.46 0.28,4.92 0.39,7.43 4.01,0.42 22.96,-7.34 28.69,-8.56 -0.58,-0.48 0.41,-0.01 -1.03,-0.61 -0.01,-0.01 -1.03,-0.29 -1.08,-0.3l-16.89 -3.72z"/>
    <path class="fil4" d="M45.96 214.74c0.31,3.44 -1.84,2.53 0.64,7.52 0.45,0.91 0.21,0.24 0.39,0.92 9.13,3.95 10.38,-4.36 9.79,-6.61 -1.42,-5.44 -7.46,-6.38 -10.12,-2.82l-0.7 0.99z"/>
    <path class="fil6" d="M126.34 216.86l0.55 5.29c3.82,-2.09 3.36,-11.68 1.58,-14.85 -1.43,1.72 -2.14,6.78 -2.14,9.56z"/>
    <path class="fil6" d="M130.34 191.86c2.62,-2.16 2.92,-6.06 1.02,-9.56 -1.5,2.11 -2.66,7.26 -1.02,9.56z"/>
    <path class="fil7" d="M144.51 197.13c1.95,-2.02 2.1,-6.95 0.75,-9.61 -1.16,1.55 -2.09,7.52 -0.75,9.61z"/>
    <path class="fil7" d="M118.15 220.69c1.44,-3.87 2.07,-5.11 0.56,-9.74 -1,1.21 -2.48,7.81 -0.56,9.74z"/>
    <path class="fil8" d="M124.54 184.34c1.23,-2.02 2,-10.13 0.58,-12.48 -1.34,1.93 -0.87,9.79 -0.58,12.48z"/>
    <path class="fil7" d="M124.97 246.86c0.34,-0.37 0.37,-0.18 0.77,-1.03l0.5 -2.85c0.03,-1.44 -0.16,-3.11 -0.72,-4.16 -0.62,2.46 -0.95,5.32 -0.56,8.05z"/>
    <path class="fil9" d="M136.05 199.26c0.17,-0.06 1.16,0.22 1.32,-2.53 0.08,-1.36 -0.07,-2.36 -0.69,-3.15 -0.9,1.65 -0.93,3.78 -0.63,5.69z"/>
    <path class="fil10" d="M121.83 233.21c1.69,-1.27 1.37,-3.92 0.67,-5.9 -1.03,1.52 -1.17,4.02 -0.67,5.9z"/>
    <path class="fil7" d="M113.94 181.38c1.79,-1.58 1.18,-3.69 0.69,-5.96 -1.07,1.41 -1.23,4 -0.69,5.96z"/>
    <path class="fil8" d="M104.23 210.96c1.24,-1.42 1.43,-3.94 0.37,-5.58 -0.85,1.28 -1.25,4.17 -0.37,5.58z"/>
    <path class="fil7" d="M122.96 204.64c0.87,-1.77 1.27,-3.97 0.19,-5.92 -0.33,0.74 -0.56,1.54 -0.7,2.46l-0.01 2.62c0.23,0.72 0.23,0.47 0.52,0.84z"/>
    <path class="fil11" d="M467.56 251.39c-2.39,3.83 -7.9,1.22 -5.46,-3.23 2.41,-4.39 7.78,-0.5 5.46,3.23zm-25.22 -5.59c-2.54,5.9 -10.27,2.91 -8.47,-2.43 1.94,-5.8 10.86,-3.1 8.47,2.43zm36.09 -10.43c-0.63,-4.37 6.11,-5.37 6.56,-1.04 0.46,4.52 -6.02,4.77 -6.56,1.04zm-6.25 -14.53c-0.8,5.81 -2.82,9.91 -5.9,12.85 -3.58,3.42 -6.4,5.86 -13.42,4.12 -4.72,-1.17 -8.62,-4.79 -10.56,-8.09 -2.61,-4.43 -1.93,-10.68 -0.62,-15.83 2.53,-9.9 6.24,-20.14 18.52,-18.15 5.91,0.96 9,3 10.95,7.73 1.9,4.62 1.73,12.23 1.02,17.36zm-43.71 -9.81c4.35,-1.37 7.01,5 2.72,6.21 -4.16,1.18 -6.92,-4.89 -2.72,-6.21zm49.35 -11.02c4.2,-1.83 7.46,5.5 3.5,7.79 -4.2,2.43 -8.37,-5.67 -3.5,-7.79zm-41.27 -12.16c2.31,-0.86 4.44,0.26 4.61,2.47 0.13,1.7 -1.93,3.72 -3.11,4.34 -3.79,2.01 -6.59,-4.92 -1.5,-6.82zm24.45 -7.96c2.02,-0.88 5.2,0.43 5.74,2.33 0.74,2.57 -1.42,4.9 -2.74,5.6 -5.52,2.92 -8.2,-5.65 -3,-7.93zm-10.6 -8.76c-12.64,0.72 -20.8,2.9 -26.64,14.86 -8.6,17.59 -6.73,52.71 2.57,69.04 5.95,10.45 19.82,9.56 31.94,9.64 35.4,0.23 32.78,-20.03 31.45,-50.55 -0.44,-10.07 -1.96,-27.02 -6.31,-34.82 -2.69,-4.83 -6.25,-6.65 -13.35,-7.5 -6.53,-0.79 -13,-1.05 -19.66,-0.67z"/>
    <path class="fil3" d="M457.55 202.82c-10.48,1.94 -14.64,12.26 -8.92,21.69 1.63,2.68 4.16,4.02 8.53,3.52 15.73,-1.82 11.3,-18.28 8.39,-21.93 -1.24,-1.56 -4.87,-3.85 -8,-3.27z"/>
    <path class="fil3" d="M378.26 243.24c4.7,-2.12 6.53,4.74 3.02,6.08 -1.64,0.63 -3.99,-0.64 -4.48,-1.58 -0.83,-1.61 -0.08,-3.81 1.46,-4.51zm11.98 -1.81c4.06,-2.57 7.27,2.99 3.92,5.49 -3.14,2.34 -7.86,-2.99 -3.92,-5.49zm-22.91 -5.36c5.07,-1.51 6.08,4.32 3.2,5.94 -4.2,2.36 -7.39,-4.7 -3.2,-5.94zm27.69 -8.17c4.91,-1.58 6.17,4.36 2.98,6.06 -1.56,0.83 -4.02,-0.46 -4.54,-1.37 -1.07,-1.87 -0.08,-4.16 1.56,-4.69zm-38.55 0.73c4.32,-2.74 7.4,3.71 3.82,5.75 -3.61,2.05 -7.27,-3.57 -3.82,-5.75zm-9.11 -8.48c4.66,-1.78 6.27,4.51 2.9,6.07 -3.97,1.83 -7.11,-4.46 -2.9,-6.07zm41.23 -1.96c5.02,-2.17 6.66,4.49 3.26,5.98 -4.12,1.8 -6.9,-4.4 -3.26,-5.98zm-8.55 -8.91c4.24,-2.34 7.01,3.69 3.79,5.73 -3.73,2.37 -7.63,-3.61 -3.79,-5.73zm-39.93 -1.1c4.64,-2.19 6.73,4.14 3.51,5.87 -3.81,2.06 -7.51,-3.98 -3.51,-5.87zm14.6 -7.1c4.99,-1.27 10.64,4.83 12.78,6.75 3.98,3.56 11.93,11.02 15.31,14.91 3.59,4.12 9.06,7.96 7.2,12.56 -0.74,1.83 -2.99,4.24 -5.41,4.47 -4.55,0.44 -10.56,-5.06 -13.27,-7.06 -4.8,-3.55 -19.1,-14.16 -21.42,-18.86 -2.79,-5.65 -0.26,-11.48 4.81,-12.77zm15.04 -0.27c4.1,-2.16 7,3.46 3.62,5.65 -1.43,0.93 -6.14,0.38 -5.05,-3.94 0.38,-1.51 0.58,-1.27 1.42,-1.71zm-27.2 -5.45c3.73,-2.86 7.22,2.71 4.16,5.33 -2.66,2.28 -8.35,-2.11 -4.16,-5.33zm14.06 -3.12c4.06,-2.65 7.35,3.04 3.93,5.51 -3.07,2.22 -7.81,-2.98 -3.93,-5.51zm51.7 35.54c0.4,-8.46 -0.07,-18.16 0.57,-26.23 0.45,-5.75 1.05,-20.24 -0.75,-24.92 -1.38,-3.58 -3.88,-4.71 -8.24,-5.07 -2.89,-0.24 -10.14,-0.47 -12.49,0.43 -6.24,2.37 -0.27,16.38 -3.33,22.37 -3.09,-0.01 -19.07,-13.8 -22.97,-17.01 -3.25,-2.67 -4.57,-4.85 -7.9,-5.03 -4.24,-0.23 -8.81,0.15 -13.05,0.33 -4.67,0.19 -7.31,0.48 -8.89,4.03 -1.49,3.35 -0.8,20.5 -0.64,25.28 0.58,16.74 -0.95,36.45 0.99,52.5 0.49,4.05 1.03,7.73 4.58,8.86 2.72,0.87 9.41,0.77 12.57,0.54 10.29,-0.77 4.23,-11.01 7.3,-19.15 3.71,0.06 17.67,13.76 23.14,17.41 3.73,2.49 21.15,1.5 23.92,0.09 3.8,-1.93 4.98,-30.13 5.18,-34.42z"/>
    <path class="fil4" d="M357.68 206.7c-4.38,1.97 -3.81,7.09 -0.69,10.5 3.22,3.52 12.98,11.07 17.19,14.14 1.9,1.39 7,6.09 10.65,4.81 1.48,-0.52 3.22,-2.84 2.75,-5.07 -0.35,-1.68 -2.5,-3.49 -3.46,-4.46 -2.65,-2.65 -4.98,-5.42 -7.77,-7.89 -4.75,-4.2 -13.85,-14.22 -18.68,-12.05z"/>
   </g>
  </g>
 </g>
</svg>
