<?xml version="1.0" encoding="UTF-8"?>
<!DOCTYPE svg PUBLIC "-//W3C//DTD SVG 1.1//EN" "http://www.w3.org/Graphics/SVG/1.1/DTD/svg11.dtd">
<!-- Creator: CorelDRAW -->
<svg xmlns="http://www.w3.org/2000/svg" xml:space="preserve" width="33.8667mm" height="15.7771mm" version="1.1" style="shape-rendering:geometricPrecision; text-rendering:geometricPrecision; image-rendering:optimizeQuality; fill-rule:evenodd; clip-rule:evenodd"
viewBox="0 0 681.04 317.27"
 xmlns:xlink="http://www.w3.org/1999/xlink"
 xmlns:xodm="http://www.corel.com/coreldraw/odm/2003">
 <defs>
  <style type="text/css">
   <![CDATA[
    .fil5 {fill:#FEFEFE}
    .fil1 {fill:#FFCC29}
    .fil2 {fill:#EA3637}
    .fil3 {fill:#6F3C85}
    .fil0 {fill:#1D9AD6}
    .fil4 {fill:#1562A6}
   ]]>
  </style>
 </defs>
 <g id="Camada_x0020_1">
  <metadata id="CorelCorpID_0Corel-Layer"/>
  <g id="_2339733773696">
   <path class="fil0" d="M41.75 74.45c9.45,0.3 14.65,3.27 21.6,7.22 8.51,4.83 18.16,11.77 25.64,17.75 1.33,1.06 2.67,2.09 3.96,3.18 26.02,22.11 43.18,39.91 64.55,64.45 3.5,3.68 6.18,7.98 9,12.32 6.16,-1.33 10.46,-2.51 17.45,0.96 2.65,1.31 4.17,2.65 6.12,4.18 13.19,10.36 26.66,42.67 35.34,57.34 5.26,8.89 10.92,17.74 18.93,22.29 4.16,2.36 12.27,3.79 16.22,0.23 2.15,-1.93 2.64,-4.39 2.06,-8.07 -0.42,-2.65 -1.49,-5.45 -2.52,-7.76 -4.59,-10.34 -16.84,-27.65 -24.83,-36.97l-13.85 -17.06c-5.4,-7.12 -13.63,-15.12 -3.3,-17.38 -0.58,-3.61 -6.57,-13.91 -8.49,-17.51 -2.97,-5.58 -6.19,-10.95 -9.2,-16.41 -7.07,-12.8 -16.75,-28.46 -22.84,-41.3 -1.29,-2.71 -3.01,-5.56 -4.43,-8.24l-8.77 -16.82c-4.21,-7.88 -11.47,-25.22 -6.73,-34.62 1.2,-2.38 1.99,-2.82 2.52,-3.82 0.11,-1.7 -1.21,-2.79 -2.5,-4.64 -3.76,-5.38 -8.05,-10.86 -12.57,-15.7 -14.45,-15.45 -39.38,-18.47 -59.15,-11.35 -21.86,7.87 -34.85,23.23 -41.16,43.41 -1.39,4.44 -4.52,20.25 -3.04,24.33z"/>
   <path class="fil1" d="M21.23 138.28c39.35,-2.41 88.95,53.27 115.42,84.93 1.03,1.32 12.06,15.07 12.51,16.16 2.55,1.22 8.89,10.46 15.61,12.81 3.45,1.21 5.5,-0.22 4.96,-3.85 -0.7,-4.76 -5.21,-9.12 -8.05,-10.98 -1.98,-1.31 -3.17,-2.65 -5.01,-4.51 -3.44,-3.48 -13.22,-14.64 -4.96,-17.07 11.92,-3.5 19.98,19.43 27.47,28.98 1.23,1.57 3.32,3.38 4.91,4.61 6.59,5.08 16.5,6.09 20.4,0.8 2.95,-3.99 3.54,-9.73 1.64,-15.28 -1.88,-5.49 -6.47,-10.3 -10.23,-13.54 -0.89,-0.77 -1.55,-1.58 -2.43,-2.32 -4.9,-4.19 -9.99,-9.25 -14.08,-14.47 -7.84,-10 -8.24,-15.18 -12.92,-25.17 -2.82,-4.34 -5.5,-8.64 -9,-12.32 -21.37,-24.54 -38.54,-42.33 -64.55,-64.45 -1.29,-1.1 -2.63,-2.12 -3.96,-3.18 -7.48,-5.97 -17.14,-12.92 -25.64,-17.75 -6.95,-3.95 -12.15,-6.92 -21.6,-7.22 -8.94,1.18 -14.29,3.53 -19.83,8 -11.73,9.47 -17.75,24.27 -11.74,39.25 1.36,3.38 3.18,6.18 4.97,8.75l6.08 7.82z"/>
   <path class="fil2" d="M149.16 239.37c-0.45,-1.09 -11.48,-14.84 -12.51,-16.16 -26.47,-31.65 -76.07,-87.34 -115.42,-84.93 -0.94,0.59 -3.29,2.93 -4.01,3.71 -3.77,4.11 -6.95,8.06 -9.45,13.53 -9.2,20.17 -4.29,41.65 11.12,56.21 26.07,24.61 41.8,10.7 59.35,13.81 19.58,3.47 36.34,30.3 46.65,45.11 5.77,8.3 10.7,14.29 16.49,21.81 5.02,6.52 12.92,14.44 19.69,18.64 9.13,5.67 27.04,5.6 21.51,-16.32 -2.83,-11.22 -10.01,-20.61 -17.1,-28.57 -2.38,-2.67 -9.48,-9.84 -11.1,-11.89 -0.61,-0.77 -1.21,-1.36 -1.82,-2.14 -2.66,-3.38 -6.5,-8.12 -3.4,-12.8z"/>
   <path class="fil3" d="M160.17 38.4c-0.53,1 -1.32,1.44 -2.52,3.82 -4.75,9.4 2.51,26.74 6.73,34.62l8.77 16.82c1.43,2.68 3.15,5.53 4.43,8.24 6.1,12.84 15.77,28.5 22.84,41.3 3.01,5.46 6.23,10.83 9.2,16.41 1.92,3.6 7.91,13.9 8.49,17.51l5.21 8.12c1.59,2.25 4.36,6.05 6.57,7.17 3.7,1.87 4.74,-2.52 7.4,-5.26 1.22,-1.26 2.52,-2.18 5.06,-1.54 2.21,0.56 2.66,1.57 3.63,3.24 3.42,5.89 6.33,11.67 9.77,17.41 1.82,3.04 9.57,15.74 14.51,11.7 0.44,-0.36 1.05,-1.08 1.57,-1.59 1.68,-1.63 3.05,-4.56 3.14,-7.23 0.22,-6.63 -5.88,-13.5 -9.46,-18.08 -3,-3.83 -6.33,-7.2 -9.48,-10.86 -12.17,-14.16 -22.93,-27.64 -29.2,-46.07 -7.96,-23.42 1.4,-22.81 4.75,-42.88 2.71,-16.21 -2.56,-29.53 -12.9,-40.6 -3.39,-3.63 -10.15,-8.87 -15.91,-11.6 -9.66,-4.56 -22.33,-8.71 -33.74,-5.53 -4.82,1.35 -5.31,2.48 -8.88,4.88z"/>
   <path class="fil0" d="M304.57 82.56l0.11 -46.5c6.56,-0.22 13.32,-0.12 19.9,-0.15 6,-0.03 14,-0.54 19.67,0.64 11.47,2.39 17.43,9.47 17.29,22.62 -0.12,11.87 -5.38,20.01 -17.5,22.42 -6.77,1.34 -30.97,0.92 -39.47,0.97zm-0.08 19.83c3.35,-0.56 11.22,-0.17 15.04,-0.19 5.05,-0.03 10.09,-0.05 15.14,-0.08 9.51,-0.05 17.21,-1.15 24.87,-4.9 6.73,-3.29 12.6,-8.62 16.11,-14.03 8.85,-13.64 8.85,-33.56 0.74,-47.44 -8.31,-14.22 -23.69,-19.6 -40.39,-19.45l-44.89 0.27c-5.75,0.04 -7.23,1.99 -7.23,7.61l-0.35 119.44c-0.01,4.79 -0.99,10.71 2.35,12.81 2.02,1.26 11.08,1.18 13.91,0.74 2,-0.31 3.57,-1.76 4.2,-3.44 0.81,-2.17 0.49,-47.97 0.5,-51.35z"/>
   <path class="fil4" d="M655.79 266.02c0.43,3.75 0.03,11.2 -1,14.71 -1.12,3.8 -4.35,6.53 -8.02,7.84 -6.78,2.42 -21.82,2.65 -27.1,-1.55 -3.03,-2.41 -3.97,-7.28 -2.83,-12.29 0.95,-4.19 4.04,-6.49 8.29,-7.6 5.79,-1.51 23.65,-1.05 30.66,-1.1zm0.28 38.66c1.77,2.63 2.44,3.32 6.64,3.29 6.81,-0.05 13.49,1.49 13.53,-6.49l0.15 -49.2c0.02,-6.2 0.42,-13.09 -0.83,-19.06 -3.64,-17.37 -17.61,-23.99 -34.62,-24.88 -12.74,-0.67 -23.89,1.3 -32.29,7.49 -2.03,1.5 -8.6,7.49 -8.98,10.92 -0.38,3.46 2.25,4.96 3.82,6.32l2.66 2.35c7.16,7 9.71,0.66 12.21,-1.81 0.75,-0.74 1.49,-1.64 2.41,-2.35 7.3,-5.65 26.5,-5.28 31.6,0.22 3.04,3.28 4.32,10.43 3.44,16.25 -7.79,0.03 -15.6,0.06 -23.39,0.15 -6.93,0.08 -13.84,1.24 -19.35,3.9 -10.05,4.84 -17.68,13.71 -16.9,29.17 0.68,13.55 9.05,22.75 19.93,26.17 8.32,2.61 22.82,2.81 31.71,0.62 4.7,-1.16 6.89,-2.73 8.26,-3.07z"/>
   <path class="fil5" d="M153.53 248.06l0 0zm19.88 69.19c-2.56,0 -3.7,0.13 -6.22,-0.37 -4.38,-0.87 -7.45,-2.79 -10.47,-4.89 -9.41,-6.55 -18.87,-18.48 -25.72,-27.66l-6.49 -8.83c-9.34,-12.37 -18.86,-28.7 -30.39,-38.3 -2.93,-2.44 -5.8,-4.45 -9.2,-6.15 -8.21,-4.1 -14.48,-2.91 -23.04,-1.95 -16.2,1.81 -25.12,0.41 -38.45,-9.49 -13.45,-9.99 -22.25,-24.45 -23.41,-40.14l0 -7.05c0.41,-5.52 1.78,-11.13 4.24,-16.7 2.26,-5.1 5.06,-10.1 8.97,-14l3.52 -3.88c-0.95,-1.4 -1.99,-2.63 -3.07,-4.06 -8.42,-11.1 -11.82,-23.66 -6.37,-37.13 2.69,-6.65 6.85,-11.81 11.92,-16.08 4.15,-3.5 13.19,-8.76 19.05,-8.76l0.38 -6.73c0.9,-6.19 1.75,-11.82 3.71,-17.64 4.62,-13.69 12.09,-25.02 23.54,-33.51 8.41,-6.23 18.92,-11.2 29.82,-13.08 11.43,-1.97 27.07,-0.49 36.85,4.4 3.87,1.93 7.79,4.05 10.96,7.04 3.23,3.05 5.9,5.45 8.7,9.01 1.34,1.71 8.49,11.52 9.29,12.1 2.72,-1.43 5.37,-2.67 8.61,-3.31 12.85,-2.53 26.36,1.88 37.43,7.97 2.5,1.37 4.65,2.99 6.94,4.7 15.34,11.46 23.04,28.81 20.35,48.27 -2.17,15.75 -10.85,19.63 -6.66,36.55 3.47,14.01 11.5,26.91 19.96,38.11 2.42,3.2 5.09,6.68 7.87,9.57 0.63,0.65 0.77,0.95 1.33,1.57 0.59,0.65 0.79,0.87 1.35,1.55 6.15,7.57 17.05,17.53 19.15,27.34 1.43,6.68 -2.83,13.79 -7.12,15.55 -8.77,3.59 -18.37,-14.19 -18.63,-15.3l-1.17 1.74c-5.61,8.48 -17.24,-0.59 -12.28,-8.74 0.76,-1.25 1.61,-2.05 2.82,-2.73 1.36,-0.77 2.4,-0.79 4.52,-0.79 -0.3,-1.25 -3.16,-6.55 -4.32,-6.81 -1.35,-0.31 -1.83,0.29 -2.4,0.95 -3.06,3.57 -5.68,10.18 -13.13,3.95 -2.82,-2.36 -5.85,-7.04 -7.89,-10.34 -0.52,-0.83 -0.98,-1.21 -1.22,-2.22l-0.8 0c0.2,2.38 6.57,10.05 8.16,12.18 1.48,1.97 2.93,3.62 4.48,5.56l9.03 11.05c1.55,1.95 2.95,3.62 4.44,5.6l12.73 17.65c2.34,3.36 7.33,12.12 8.81,16.26 2.22,6.21 4.11,13.78 -2.22,18.26 -4.16,2.94 -12.05,2.27 -16.44,0.49 -5.64,-2.28 -10.24,-6.99 -13.88,-11.51 -5.2,-6.45 -9.74,-14.34 -13.42,-21.7l-17.61 -32.81c-2.2,-3.64 -7.71,-11.49 -11.06,-14.04l-2.7 -2.32c-4.81,-3.93 -9.28,-4.66 -15.47,-4.15 1.86,7.89 7.86,17.45 12.98,23.72 3.83,4.69 8.79,9.28 13.51,13.19l4.93 4.85c13.47,13.85 9.29,36.64 -9.75,33.34 -14.41,-2.5 -19.92,-15.86 -26.46,-26.67 -2.19,-3.63 -4.14,-6.42 -7.35,-9.29 -1.98,-1.77 -4.63,-2.75 -7.24,-1.51 0,2.05 0.62,2.82 1.41,4.13 1.27,2.11 2.88,4.23 4.63,5.94 0.49,0.48 0.88,0.81 1.32,1.32 1.19,1.41 2.36,2.9 3.95,3.98 2.12,1.44 4.14,2.85 5.69,4.88 2.76,3.62 6.96,10.61 2.33,14.95 -3.16,2.96 -8.97,0.35 -11.69,-1.47 -2.67,-1.79 -4.61,-4.01 -5.79,-4.79 0.41,1.52 3.9,5.06 5.25,6.38 0.82,0.8 1.02,1.11 1.74,1.96 0.6,0.71 1.31,1.32 1.98,1.98l5.45 5.92c4.25,4.14 10.34,12.84 13.03,17.61 1.7,3.01 3.41,7.41 4.38,10.92 1.08,3.91 1.94,8.73 1.05,13.56 -1.3,7.01 -6.82,10.33 -12.99,10.85zm70.17 -118.47c2.8,-0.87 5.52,0.67 5.9,2.99 0.4,2.46 -1.65,5.48 -3.02,6.01 -5,1.92 -8.67,-7.19 -2.88,-9zm-83.4 -160.38c3.57,-2.4 4.06,-3.53 8.88,-4.88 11.41,-3.18 24.08,0.97 33.74,5.53 5.77,2.72 12.52,7.97 15.91,11.6 10.34,11.07 15.61,24.39 12.9,40.6 -3.35,20.07 -12.71,19.45 -4.75,42.88 6.26,18.43 17.02,31.91 29.2,46.07 3.15,3.67 6.48,7.03 9.48,10.86 3.58,4.57 9.67,11.45 9.46,18.08 -0.09,2.66 -1.46,5.59 -3.14,7.23 -0.52,0.51 -1.14,1.23 -1.57,1.59 -4.93,4.04 -12.69,-8.65 -14.51,-11.7 -3.44,-5.74 -6.35,-11.51 -9.77,-17.41 -0.97,-1.67 -1.43,-2.68 -3.63,-3.24 -2.54,-0.64 -3.83,0.28 -5.06,1.54 -2.67,2.74 -3.7,7.14 -7.4,5.26 -2.21,-1.12 -4.98,-4.91 -6.57,-7.17l-5.21 -8.12c-10.33,2.27 -2.1,10.27 3.3,17.38l13.85 17.06c7.99,9.32 20.24,26.63 24.83,36.97 1.03,2.31 2.1,5.11 2.52,7.76 0.58,3.68 0.09,6.14 -2.06,8.07 -3.95,3.56 -12.07,2.13 -16.22,-0.23 -8.02,-4.55 -13.67,-13.4 -18.93,-22.29 -8.68,-14.67 -22.15,-46.98 -35.34,-57.34 -1.95,-1.53 -3.47,-2.87 -6.12,-4.18 -6.99,-3.47 -11.3,-2.29 -17.45,-0.96 4.68,9.99 5.08,15.17 12.92,25.17 4.09,5.21 9.18,10.28 14.08,14.47 0.88,0.75 1.54,1.56 2.43,2.32 3.76,3.24 8.35,8.05 10.23,13.54 1.9,5.55 1.31,11.29 -1.64,15.28 -3.91,5.29 -13.81,4.27 -20.4,-0.8 -1.59,-1.23 -3.68,-3.03 -4.91,-4.61 -7.48,-9.55 -15.55,-32.48 -27.47,-28.98 -8.26,2.43 1.53,13.58 4.96,17.07 1.84,1.86 3.02,3.21 5.01,4.51 2.84,1.87 7.35,6.23 8.05,10.98 0.53,3.64 -1.51,5.06 -4.96,3.85 -6.72,-2.35 -13.07,-11.59 -15.61,-12.81 -3.09,4.69 0.74,9.43 3.4,12.8 0.61,0.78 1.22,1.38 1.82,2.14 1.62,2.05 8.72,9.22 11.1,11.89 7.09,7.96 14.27,17.36 17.1,28.57 5.53,21.93 -12.38,21.99 -21.51,16.32 -6.77,-4.2 -14.68,-12.12 -19.69,-18.64 -5.79,-7.53 -10.72,-13.52 -16.49,-21.81 -10.3,-14.81 -27.06,-41.63 -46.65,-45.11 -17.55,-3.11 -33.28,10.8 -59.35,-13.81 -15.41,-14.55 -20.32,-36.04 -11.12,-56.21 2.49,-5.47 5.67,-9.42 9.45,-13.53 0.72,-0.78 3.07,-3.12 4.01,-3.71l-6.08 -7.82c-1.79,-2.57 -3.62,-5.38 -4.97,-8.75 -6.01,-14.98 0.01,-29.78 11.74,-39.25 5.54,-4.47 10.9,-6.82 19.83,-8 -1.48,-4.08 1.65,-19.88 3.04,-24.33 6.32,-20.18 19.3,-35.54 41.16,-43.41 19.77,-7.12 44.7,-4.1 59.15,11.35 4.52,4.84 8.81,10.32 12.57,15.7 1.3,1.85 2.61,2.94 2.5,4.64z"/>
   <path class="fil0" d="M567.54 74.94c8.48,-0.98 15,3.11 18.3,7.49 4.04,5.36 4.48,13.72 4.61,21.47 0.1,6.61 -0.16,17.76 -2.95,23.11 -6.96,13.32 -25.29,14.22 -34.06,3.05 -3.91,-4.99 -4.45,-14.02 -4.57,-21.42 -0.23,-14.45 0.47,-31.59 18.68,-33.69zm-0.42 -19.04c-10.66,0.62 -17.07,3.97 -24.49,9.83 -0.76,0.6 -0.74,0.75 -1.4,1.5 -1.26,1.44 -1.46,0.92 -4.09,4.63 -7.02,9.9 -8.97,22.68 -8.74,37.03 0.18,11.39 2.51,26.5 10.78,35.01 9.06,9.32 19.07,13.52 33.13,12.74 11.83,-0.65 23.54,-6.77 29.81,-15.94 6.91,-10.09 9.16,-22.49 8.78,-37.07 -0.52,-20.23 -6.2,-36.76 -24.24,-44.66 -5.73,-2.51 -12.71,-3.47 -19.55,-3.07z"/>
   <path class="fil0" d="M511.55 72.59c1.14,-3.4 -0.94,-5.47 -2.74,-6.74 -6.23,-4.39 -13.09,-6.97 -20.99,-8.45 -20.65,-3.87 -47.29,2.35 -49.89,26.13 -0.63,5.77 0.32,11.97 2.64,16.5 7.85,15.29 27.38,14.93 42.56,16.26 5.87,0.52 11.75,1.42 12.84,6.74 3.86,18.78 -28.37,17.26 -39.31,11.55 -7.35,-3.83 -7.7,-8.13 -12.67,-6.6 -1.95,0.6 -9.19,7.73 -9.91,9.65 -1.79,4.79 4.23,8.69 8.03,11.1 13.59,8.63 32.98,10.74 48.43,6.66 10.87,-2.87 18.43,-8.49 22.63,-16.51 4.73,-9.03 3.97,-23.54 -1.87,-30.79 -5.83,-7.25 -15.74,-9.94 -28.17,-10.92 -6,-0.47 -21.26,-0.41 -24.04,-5.51 -1.3,-2.38 -1.38,-5.73 -0.57,-8.49 2.75,-9.35 19.86,-9.24 29.46,-6.18 2.45,0.78 4.77,1.87 6.74,3.06 1.86,1.12 3.81,3.16 6.93,2.19 2.04,-0.63 4.18,-3.16 5.41,-4.38 1.23,-1.21 3.84,-3.39 4.47,-5.28z"/>
   <path class="fil4" d="M461.13 214.61c-1.86,-5.46 -6.3,-4.18 -12.51,-4.15 -7.05,0.03 -7.66,2.25 -7.68,8.93l-0.24 82.08c-0.03,6.89 1.9,7.8 8.72,7.77 14.02,-0.08 11.56,-0.91 11.61,-21.45 0.03,-10.96 0.06,-21.92 0.09,-32.88 0.04,-11.42 0.61,-19.43 8.73,-24.22 3.69,-2.17 9.43,-2.85 14.36,-2.35 18.39,1.85 15.59,20.41 15.55,34.2 -0.03,10.96 -0.06,21.92 -0.08,32.88 -0.01,5.31 -1.23,11.36 3.43,13.12 1.65,0.62 5.92,0.34 7.94,0.33 5.66,-0.04 8.91,-0.02 8.92,-7.66l0.06 -24.47c0.02,-10.7 0.5,-22.3 -0,-32.89 -0.33,-7 -2.17,-13.32 -5.71,-19.02 -7.98,-12.85 -25.5,-18.07 -41.35,-14.73 -5.43,1.14 -7.58,2.65 -11.83,4.51z"/>
   <path class="fil4" d="M344.12 188.76c2.11,-0.4 23.18,-0.25 27.21,-0.27 4.64,-0.02 8.69,0.77 10.99,-2.42 1.39,-1.92 1.31,-9.5 0.96,-12.45 -0.64,-5.47 -6.39,-4.71 -9.02,-4.7l-81.01 0.48c-2.89,0.02 -8.17,-0.52 -8.95,4.54 -0.41,2.69 -0.5,10.63 0.74,12.54 2.19,3.37 6.37,2.49 11.14,2.46 9.03,-0.06 18.06,-0.13 27.1,-0.16l-0.29 98.75c-0.08,21.2 -2.34,22.49 10.65,22.4 2.47,-0.02 5.75,0.36 7.64,-0.89 1.79,-1.18 2.51,-2.97 2.52,-5.72l0.23 -81.82c0.04,-10.81 -0.21,-21.97 0.11,-32.73z"/>
   <path class="fil5" d="M623.9 141.43c-0.9,-0.89 -2.52,-3.22 -3.29,-4.51 -9.48,-15.84 3.48,-30.67 18.32,-27.87 7.59,1.43 13.91,7.83 14.15,16.41 0.33,11.44 -10.39,15.95 -12.31,18.11l15.77 18.9c2.23,-3.82 1.24,-8.86 1.92,-13.06 0.38,-2.37 2.41,-2.55 4.79,-2.55 2.19,-0 4.88,-0.51 6.09,1.25 1.4,2.03 -0.11,10.58 -0.72,13.19 -1.44,6.18 -2.4,6.22 -4.29,10.46l5.68 6.99c2.12,2.45 5.32,5.2 3.05,7.71 -1.43,1.58 -9.9,1.15 -10.87,0.56 -1.17,-0.71 -4.24,-5.17 -5.84,-6.62 -0.83,0.41 -1.4,0.99 -2.21,1.54 -2.36,1.6 -4.43,2.81 -7.21,3.9 -15.47,6.09 -34.61,0.63 -37.86,-16.16 -1.24,-6.38 -0.05,-12.5 3.42,-17.69 4.11,-6.14 9.95,-8.68 11.42,-10.57zm-56.78 -85.53c6.84,-0.4 13.83,0.57 19.55,3.07 18.04,7.9 23.72,24.42 24.24,44.66 0.37,14.58 -1.88,26.98 -8.78,37.07 -6.27,9.17 -17.99,15.29 -29.81,15.94 -14.07,0.78 -24.07,-3.42 -33.13,-12.74 -8.27,-8.51 -10.6,-23.62 -10.78,-35.01 -0.23,-14.35 1.72,-27.12 8.74,-37.03 2.63,-3.71 2.83,-3.19 4.09,-4.63 0.66,-0.75 0.64,-0.9 1.4,-1.5 7.42,-5.86 13.83,-9.21 24.49,-9.83zm2.1 105.6c14.19,0 27.21,-5.95 35.75,-16.68 1.75,-2.2 5.53,-8.3 6.22,-11.2l2.92 6.58c-4.58,2.4 -9.95,10.76 -11.58,16.42 -1.23,4.26 -1.45,8.9 -0.68,13.35 0.31,1.78 0.58,3.02 1.07,4.47 3.76,11.11 12.68,18.28 24.35,20.34 7.92,1.4 16.59,0.16 23.84,-2.93 1.14,-0.49 3.01,-1.68 3.91,-1.92 1.86,1.35 2.71,5.26 12.49,4.74l6.12 -0.51c4.25,-1.2 7.42,-4.99 7.42,-10.01 0,-4.34 -3.39,-7.17 -5.73,-10.11l-2.5 -3.05c2.31,-4.32 6.97,-20.82 2.28,-26.99 -3.33,-4.16 -6.14,-4.32 -11.58,-4.32 -3.76,0 -7.64,0.84 -9.72,3.53 -0.66,0.85 -1.45,1.73 -1.7,2.79 -0.56,-0.41 -0.68,-0.75 -1.06,-1.32 1.94,-1.29 5.09,-5.22 6.29,-7.45 5.28,-9.79 3.35,-20.75 -4.36,-28.39 -3.32,-3.28 -7.17,-5.64 -11.95,-6.58 -9.07,-1.8 -17.29,0.44 -23.78,6.84 -0.57,0.57 -1.34,1.58 -1.79,1.91l0.27 -5c0,-16.94 -3.54,-33.44 -15.34,-43.73 -0.57,-0.5 -0.75,-0.52 -1.33,-1.06 -1.68,-1.54 -3.61,-2.72 -5.54,-3.99 -12.39,-8.13 -34.33,-8.45 -48.45,0.9l-4.17 2.97c-12.4,10.52 -17.14,25.63 -17.08,42.01 0.01,1.63 -0.29,3.16 -0.12,4.31 0.21,1.47 0.13,3.1 0.12,4.64 -0.06,11.03 3.63,25.37 10.97,33.86 8.76,10.14 20.66,15.6 34.45,15.6z"/>
   <path class="fil4" d="M546.12 209.87c-9.26,0.03 -12.11,-0.93 -12.13,8.99 -0.02,9.68 2.69,8.79 12.08,8.75 0.3,2.79 -0.05,35.92 -0.07,41.76 -0.03,11.93 -1.22,24.3 8.69,32.8 6.14,5.26 11.29,6.35 21.43,6.3 1.93,-0.01 5.06,0.19 6.66,-0.41 1.4,-0.53 2.84,-2.01 3.26,-3.59 0.69,-2.53 0.52,-10.85 -0.69,-12.68 -4.17,-6.34 -17.41,3.26 -18.78,-9.02 -0.45,-4 -0.1,-9.74 -0.09,-13.92l0.12 -41.31c4.61,-0.4 9.79,0.14 14.45,-0.14 5.75,-0.35 5.43,-5.37 5.44,-8.8 0.01,-2.96 0.6,-8.68 -5.32,-8.92 -4.64,-0.19 -9.81,0.05 -14.51,0.07 0.02,-6.43 0.04,-12.86 0.05,-19.29 0.01,-3.7 0.4,-5.57 -2.02,-7.62 -1.97,-1.67 -5.52,-1.19 -8.5,-1.17 -8.66,0.06 -9.95,0.64 -9.97,9.32 -0.01,5.8 0.38,13.3 -0.1,18.89z"/>
   <path class="fil3" d="M631.15 149.92l4.49 5.52c1.67,1.96 2.99,3.51 4.59,5.44l6.86 8.2c0.76,0.95 1.61,1.78 2.26,2.68 -0.7,1.05 -3.89,2.82 -5.43,3.51 -7.26,3.25 -16.9,2.96 -21,-2.51 -2.8,-3.72 -4.01,-9.25 -1.36,-14.11 1.76,-3.21 7.05,-7.82 9.58,-8.73zm2.68 -14.75c-1.21,-0.84 -2.15,-2.53 -3.02,-3.88 -4.85,-7.48 0.43,-12.75 6.1,-11.59 3.33,0.68 5.93,4.64 4.33,8.7 -1.15,2.93 -5.52,5.02 -7.41,6.77zm-9.92 6.27c-1.47,1.89 -7.32,4.44 -11.42,10.57 -3.47,5.19 -4.66,11.31 -3.42,17.69 3.25,16.79 22.39,22.24 37.86,16.16 2.78,-1.09 4.86,-2.3 7.21,-3.9 0.81,-0.54 1.38,-1.12 2.21,-1.54 1.6,1.45 4.67,5.92 5.84,6.62 0.97,0.59 9.44,1.02 10.87,-0.56 2.28,-2.51 -0.93,-5.26 -3.05,-7.71l-5.68 -6.99c1.9,-4.25 2.86,-4.29 4.29,-10.46 0.61,-2.61 2.12,-11.16 0.72,-13.19 -1.21,-1.76 -3.9,-1.25 -6.09,-1.25 -2.37,0 -4.4,0.18 -4.79,2.55 -0.68,4.2 0.32,9.24 -1.92,13.06l-15.77 -18.9c1.92,-2.16 12.64,-6.67 12.31,-18.11 -0.25,-8.58 -6.57,-14.98 -14.15,-16.41 -14.84,-2.8 -27.8,12.03 -18.32,27.87 0.78,1.3 2.39,3.62 3.29,4.51z"/>
   <path class="fil5" d="M511.55 72.59c-0.64,1.89 -3.25,4.07 -4.47,5.28 -1.24,1.22 -3.38,3.75 -5.41,4.38 -3.12,0.97 -5.08,-1.07 -6.93,-2.19 -1.97,-1.19 -4.29,-2.28 -6.74,-3.06 -9.6,-3.07 -26.72,-3.18 -29.46,6.18 -0.81,2.77 -0.73,6.11 0.57,8.49 2.78,5.1 18.03,5.03 24.04,5.51 12.43,0.99 22.34,3.68 28.17,10.92 5.84,7.26 6.61,21.77 1.87,30.79 -4.2,8.02 -11.76,13.63 -22.63,16.51 -15.45,4.08 -34.84,1.97 -48.43,-6.66 -3.8,-2.41 -9.82,-6.31 -8.03,-11.1 0.72,-1.92 7.96,-9.05 9.91,-9.65 4.98,-1.53 5.32,2.76 12.67,6.6 10.94,5.7 43.17,7.22 39.31,-11.55 -1.09,-5.32 -6.97,-6.23 -12.84,-6.74 -15.18,-1.33 -34.71,-0.97 -42.56,-16.26 -2.33,-4.53 -3.27,-10.73 -2.64,-16.5 2.59,-23.78 29.23,-30 49.89,-26.13 7.9,1.48 14.76,4.07 20.99,8.45 1.81,1.27 3.89,3.34 2.74,6.74zm-78.6 14.47c0,3.77 0.73,7.45 1.53,10.32 2.36,8.48 9.15,15.09 17.43,18.51 8.64,3.56 20.53,4.3 30.72,5.09 8.95,0.69 8.74,1.64 8.74,5.81 0,8.08 -20.05,7.42 -26.62,5.85 -4.43,-1.06 -8.83,-3.4 -11.96,-6.57 -1.14,-1.15 -1.18,-1.25 -2.76,-2 -4.77,-2.27 -9.26,-0.48 -12.78,3.05 -4.38,4.38 -12.32,10.37 -6.14,18.59 0.96,1.28 1.05,1.1 2.16,2.07 0.86,0.75 1.35,1.22 2.27,1.97 14.68,11.94 40.17,15.58 58.6,9.51 18.09,-5.96 29.34,-19.51 26.47,-39.84 -1.87,-13.27 -9.4,-20.21 -20.9,-24.02 -6.22,-2.06 -11.85,-2.5 -19.47,-3.07 -3.8,-0.29 -11.64,-0.85 -14.87,-1.85 -2.21,-0.69 -2.68,-1.22 -2.68,-3.66 0,-1.32 0.24,-2.52 0.87,-3.35 2.93,-3.9 9.89,-3.49 14.54,-3.49 5.36,0 10.79,1.99 14.7,4.38 2.64,1.62 3.95,3.21 8.65,2.71 3.77,-0.4 6.49,-3.37 9.39,-6.24 2.75,-2.72 5.78,-5.36 5.78,-9.8 0,-2.11 -0.58,-4.02 -1.48,-5.38 -5.33,-8.02 -25.47,-13.83 -36.24,-13.83l-6.11 0c-21.12,0 -39.84,13.68 -39.84,35.25z"/>
   <path class="fil5" d="M461.13 214.61c4.25,-1.86 6.4,-3.36 11.83,-4.51 15.85,-3.34 33.37,1.88 41.35,14.73 3.54,5.69 5.38,12.02 5.71,19.02 0.5,10.59 0.03,22.19 0,32.89l-0.06 24.47c-0.01,7.63 -3.26,7.62 -8.92,7.66 -2.02,0.01 -6.28,0.3 -7.94,-0.33 -4.66,-1.76 -3.44,-7.8 -3.43,-13.12 0.02,-10.96 0.05,-21.92 0.08,-32.88 0.04,-13.8 2.83,-32.35 -15.55,-34.2 -4.93,-0.5 -10.67,0.18 -14.36,2.35 -8.12,4.79 -8.69,12.8 -8.73,24.22 -0.04,10.96 -0.07,21.92 -0.09,32.88 -0.05,20.54 2.42,21.37 -11.61,21.45 -6.82,0.04 -8.75,-0.88 -8.72,-7.77l0.24 -82.08c0.02,-6.68 0.63,-8.9 7.68,-8.93 6.21,-0.03 10.64,-1.31 12.51,4.15zm1.84 -6c-2.25,-1.49 -3.55,-2.89 -7.44,-2.89 -7.5,0 -14.91,-1.14 -18.29,5.83 -1.69,3.47 -1.1,9.94 -1.1,14.95l0 64.72c0,4.75 -0.83,11.12 0.2,15.33 0.87,3.58 4.73,7.3 9.1,7.3 7.96,0 14.86,1.33 18.65,-4.68 2.12,-3.35 1.53,-6.75 1.53,-11.9l0.27 -39.46c0,-11.29 -1.7,-24.99 15.14,-24.99 4.76,0 8.6,1.15 10.82,3.76 2.08,2.45 3.26,7.04 3.26,11.5 0,4.59 0.26,42.58 -0.04,45.21 -0.58,5.08 -1.26,13.33 2.79,17.31 4.05,3.99 9.56,2.98 15.85,2.98 4.79,0 8.8,-2.46 10.33,-6.61 1.21,-3.29 0.56,-12.07 0.56,-16.54 0,-5.85 0.27,-10.81 0.27,-16.57 0,-8.96 0.69,-30.3 -1.27,-38.46 -1.9,-7.9 -5.25,-14.14 -10.88,-19.75l-5.81 -4.51c-6.32,-4.19 -15.11,-6.43 -24.01,-6.75 -3.38,-0.12 -11.56,1.08 -15.05,2.21l-4.88 2.01z"/>
   <path class="fil5" d="M344.12 188.76c-0.32,10.76 -0.07,21.92 -0.11,32.73l-0.23 81.82c-0.01,2.75 -0.73,4.54 -2.52,5.72 -1.89,1.25 -5.18,0.87 -7.64,0.89 -12.98,0.1 -10.73,-1.19 -10.65,-22.4l0.29 -98.75c-9.04,0.04 -18.07,0.11 -27.1,0.16 -4.77,0.03 -8.95,0.91 -11.14,-2.46 -1.24,-1.91 -1.15,-9.85 -0.74,-12.54 0.78,-5.07 6.06,-4.52 8.95,-4.54l81.01 -0.48c2.63,-0.01 8.38,-0.77 9.02,4.7 0.35,2.96 0.43,10.53 -0.96,12.45 -2.3,3.2 -6.35,2.4 -10.99,2.42 -4.03,0.02 -25.1,-0.14 -27.21,0.27zm-64.7 -13.57c0,6.01 -0.88,11.35 2.72,15.2 1.42,1.52 3.98,3.22 6.85,3.22l26.03 0c1.61,0 1.94,-0.26 3.45,-0.26l0 60.51c0,4.78 -0.27,8.97 -0.27,13.94l0 35.25c-0.01,2.59 0.2,4.39 1.07,6.04 3.68,6.92 10.61,5.54 18.58,5.54 4.79,0 7.97,-2.57 9.57,-5.78 1.64,-3.3 1.06,-10.41 1.06,-14.47 0,-10.35 0,-20.7 0,-31.04 0,-5.41 0.27,-10.04 0.27,-15.26l0 -54.72c8.61,0 16.35,-0.26 24.97,-0.26 5.43,0 7.05,0.25 10.36,-2.1 4.96,-3.52 3.98,-10.25 3.98,-16.58 0,-4.7 -3.08,-8.24 -6.6,-9.51 -4.07,-1.46 -10.26,-0.48 -15.18,-0.48 -10.89,-0.01 -21.78,-0 -32.67,-0 -5.62,0 -10.32,0.26 -15.94,0.26 -5.4,0 -10.8,0 -16.2,0 -5.03,0 -11.66,-0.61 -15.45,0.75 -3.54,1.27 -6.6,5.02 -6.6,9.78z"/>
   <path class="fil5" d="M304.49 102.39c-0.01,3.37 0.32,49.18 -0.5,51.35 -0.63,1.68 -2.2,3.13 -4.2,3.44 -2.83,0.43 -11.89,0.52 -13.91,-0.74 -3.34,-2.1 -2.36,-8.02 -2.35,-12.81l0.35 -119.44c0,-5.62 1.48,-7.57 7.23,-7.61l44.89 -0.27c16.69,-0.16 32.07,5.22 40.39,19.45 8.12,13.88 8.11,33.81 -0.74,47.44 -3.51,5.41 -9.38,10.74 -16.11,14.03 -7.66,3.75 -15.36,4.85 -24.87,4.9 -5.05,0.03 -10.09,0.05 -15.14,0.08 -3.82,0.02 -11.7,-0.37 -15.04,0.19zm-25.6 21.5l0 28.94c0,4.55 4.55,9.21 10.36,9.21 6.95,0 12.78,0.98 16.94,-3.22 2.03,-2.04 2.98,-4.67 2.98,-8.62l0 -43.14c2.65,0 4.59,-0.26 7.44,-0.26 16.16,0 33.2,1.82 47.6,-6.79 4.23,-2.53 9.54,-6.62 12.55,-10.46 7.89,-10.06 10.24,-18.18 10.24,-32.74 0,-10.27 -4.42,-21.49 -9.38,-27.54 -6.43,-7.85 -12.37,-11.86 -22.39,-15.18 -11.32,-3.74 -26.78,-2.26 -39.15,-2.26 -5.58,0 -11.16,0 -16.73,0 -5.27,0 -11.64,-0.62 -15.04,1.42 -4.83,2.9 -5.15,6.53 -5.15,11.47 0,11.05 0,22.1 0,33.15 0,11.17 -0.27,21.61 -0.27,32.88 0,11.05 0,22.1 0,33.15z"/>
   <path class="fil5" d="M656.07 304.67c-1.36,0.33 -3.56,1.91 -8.26,3.07 -8.89,2.18 -23.39,1.99 -31.71,-0.62 -10.89,-3.42 -19.25,-12.62 -19.93,-26.17 -0.78,-15.46 6.86,-24.34 16.9,-29.17 5.51,-2.66 12.42,-3.82 19.35,-3.9 7.79,-0.09 15.6,-0.12 23.39,-0.15 0.88,-5.82 -0.4,-12.97 -3.44,-16.25 -5.1,-5.49 -24.3,-5.87 -31.6,-0.22 -0.92,0.71 -1.65,1.61 -2.41,2.35 -2.5,2.48 -5.05,8.81 -12.21,1.81l-2.66 -2.35c-1.57,-1.35 -4.2,-2.86 -3.82,-6.32 0.38,-3.43 6.95,-9.43 8.98,-10.92 8.4,-6.19 19.54,-8.15 32.29,-7.49 17.01,0.89 30.98,7.51 34.62,24.88 1.25,5.97 0.85,12.86 0.83,19.06l-0.15 49.2c-0.03,7.98 -6.72,6.43 -13.53,6.49 -4.2,0.03 -4.87,-0.65 -6.64,-3.29zm-61.09 -77.92c0,6.16 3.55,8.32 8.15,12.18 0.41,0.34 0.54,0.55 0.96,0.89 3.76,3.16 4.29,3.24 8.69,3.24 8.77,0 6.37,-11.05 21.25,-11.05 10.08,0 17.27,-0.64 17.27,11.05 -13.37,0 -25.81,-0.9 -37.75,3.38 -3.61,1.3 -6.97,3.36 -9.95,5.67 -2.38,1.84 -2.36,2.15 -3.89,3.77 -4.78,5.06 -8.17,13.42 -8.17,20.58 0,7.06 0.17,12.67 3.6,18.79 4.61,8.21 10.3,13.21 19.67,16.3 9.7,3.2 27.59,3.08 37.46,-0.2 3.98,-1.32 1.43,-1.05 5.02,0.48 2.74,1.16 10.32,0.67 14.2,0.67 2.73,0 5.71,-1.85 6.95,-3.38 1.59,-1.97 2.61,-4.19 2.61,-7.67l0 -61.56c0,-6.37 -1.64,-11.32 -3.56,-15.94 -3.58,-8.6 -12.94,-15.28 -21.61,-17.8 -13.87,-4.03 -34.34,-3.73 -46.33,3.43 -4.92,2.94 -14.56,11.02 -14.56,17.15z"/>
   <path class="fil4" d="M415.74 304.89c0.36,-2.03 0.14,-25.27 0.15,-29.46 0.02,-9.91 0.05,-19.82 0.09,-29.73 0.03,-6.71 0.41,-24.37 0.08,-29.74 -0.15,-2.48 -1.38,-3.91 -3.02,-4.73 -1.82,-0.9 -12.38,-0.69 -13.88,-0.06 -1.59,0.67 -2.97,2.07 -3.29,4.08 -0.42,2.64 -0.26,55.03 -0.27,59.12 -0.02,9.65 -0.47,20.21 -0.07,29.74 0.26,6.33 6.45,5.4 9.8,5.39 5.09,-0.03 9.51,0.39 10.41,-4.61z"/>
   <path class="fil0" d="M417.88 69.7c0.01,-4.52 0.77,-9.75 -3.18,-11.39 -1.86,-0.77 -5.81,-0.46 -8.04,-0.44 -6.97,0.07 -9.04,0.66 -9.06,7.89l-0.25 84.97c-0.02,7.12 6.7,5.92 10.63,5.9 5.98,-0.03 9.63,-0.23 9.66,-6.69l0.24 -80.24z"/>
   <path class="fil5" d="M546.12 209.87c0.49,-5.59 0.09,-13.09 0.1,-18.89 0.02,-8.68 1.31,-9.26 9.97,-9.32 2.98,-0.02 6.53,-0.5 8.5,1.17 2.42,2.06 2.03,3.93 2.02,7.62 -0.02,6.43 -0.04,12.86 -0.05,19.29 4.7,-0.01 9.87,-0.26 14.51,-0.07 5.93,0.24 5.33,5.96 5.32,8.92 -0.01,3.43 0.3,8.45 -5.44,8.8 -4.66,0.28 -9.84,-0.27 -14.45,0.14l-0.12 41.31c-0.01,4.18 -0.35,9.92 0.09,13.92 1.37,12.28 14.61,2.68 18.78,9.02 1.2,1.83 1.37,10.15 0.69,12.68 -0.43,1.58 -1.86,3.06 -3.26,3.59 -1.6,0.61 -4.73,0.4 -6.66,0.41 -10.15,0.05 -15.29,-1.04 -21.43,-6.3 -9.92,-8.5 -8.73,-20.87 -8.69,-32.8 0.02,-5.84 0.36,-38.97 0.07,-41.76 -9.39,0.04 -12.1,0.93 -12.08,-8.75 0.02,-9.92 2.88,-8.96 12.13,-8.99zm-4.53 -23.36l0 18.68c-3.68,0 -6.36,0.38 -8.83,2.56 -4.43,3.91 -3.38,8.54 -3.38,15.33 0,4.71 4.81,9.21 9.56,9.21l2.39 0 0 49.46c0,7.37 2.3,14.14 6.37,19.73 4.91,6.74 14.07,11.57 22.58,11.57l11.15 0c5.31,0 9.56,-4.89 9.56,-10.26l0 -7.89c0,-4.9 -3.49,-8.74 -7.42,-9.75 -2.89,-0.74 -7.1,0.06 -10.24,-0.38 -1.21,-0.17 -2.13,0.39 -2.26,-4.33 -0.16,-5.47 -0.33,-11.86 0.24,-16.88l0.04 -31.53 9.83 0c5.8,0 10.09,-4.73 10.09,-10.52 0,-5.34 0.67,-9.89 -2.91,-13.43 -4.09,-4.04 -9.27,-3.14 -15.69,-3.14 -0.72,0 -0.73,0.13 -1.33,0.26 0,-6.22 0.06,-12.47 0.01,-18.69 -0.02,-2.96 -1.28,-4.84 -2.79,-6.45 -1.34,-1.42 -3.87,-3.01 -6.52,-3.01l-10.62 0c-5.02,0 -9.83,4.53 -9.83,9.47z"/>
   <path class="fil5" d="M417.72 118.37l-0.08 31.57c-0.03,6.46 -3.67,6.66 -9.66,6.69 -3.93,0.02 -10.66,1.22 -10.63,-5.9l0.25 -84.97c0.02,-7.23 2.09,-7.82 9.06,-7.89 2.23,-0.02 6.18,-0.33 8.04,0.44 3.95,1.64 3.19,6.88 3.18,11.39l-0.15 48.67zm-15.58 42.88c7.84,0 14.16,1.25 18.22,-4.05 2.14,-2.79 1.96,-5.46 1.96,-10.16 0,-8.07 0,-16.13 0,-24.2 0,-8.1 0.27,-15.66 0.27,-23.94l0 -35.78c0,-5.6 -4.66,-10 -10.36,-10 -6.64,0 -14.79,-1.27 -18.25,5.61 -1.8,3.57 -1.14,10.04 -1.14,15.18 0,10.78 0,21.57 0,32.36 0,6.33 -0.97,43.57 0.17,47.71 1,3.63 4.64,7.27 9.13,7.27z"/>
   <path class="fil5" d="M415.74 304.89c-0.9,5 -5.32,4.58 -10.41,4.61 -3.35,0.02 -9.54,0.95 -9.8,-5.39 -0.4,-9.53 0.04,-20.1 0.07,-29.74 0.01,-4.09 -0.15,-56.48 0.27,-59.12 0.32,-2.01 1.71,-3.41 3.29,-4.08 1.49,-0.63 12.06,-0.85 13.88,0.06 1.65,0.82 2.87,2.25 3.02,4.73 0.33,5.37 -0.06,23.03 -0.08,29.74 -0.03,9.91 -0.07,19.82 -0.09,29.73 -0.01,4.2 0.21,27.44 -0.15,29.46zm-15.45 9.21l10.63 0c3,0 5.14,-1.53 6.71,-3.08 1.73,-1.72 2.88,-3.8 2.86,-7.17 -0.11,-19.75 0.26,-39.33 0.26,-59.2l0 -29.2c0,-4.92 -4.67,-9.47 -10.36,-9.47 -7.81,0 -14.67,-1.15 -18.32,5.8 -1.72,3.27 -1.07,10.11 -1.07,14.98l0 56.56c0,2.97 -0.28,5.17 -0.27,7.89 0.01,4.03 -0.41,12.56 0.43,15.62 0.98,3.59 4.69,7.27 9.13,7.27z"/>
   <path class="fil5" d="M327.77 77.85l-18.59 0 0.27 -37.09 27.62 -0.26c7.38,0 15.33,2.45 18.03,8.71 2.62,6.09 2.85,18.51 -3.34,23.73 -6.42,5.41 -15.81,4.91 -23.99,4.91zm-23.2 4.71c8.49,-0.05 32.7,0.37 39.47,-0.97 12.13,-2.41 17.38,-10.55 17.5,-22.42 0.14,-13.16 -5.82,-20.23 -17.29,-22.62 -5.67,-1.18 -13.66,-0.67 -19.67,-0.64 -6.58,0.04 -13.33,-0.07 -19.9,0.15l-0.11 46.5z"/>
   <path class="fil5" d="M553.54 107.84c0,-6.33 0.37,-16.3 2.74,-20.7 4.77,-8.86 19.35,-11.27 26.27,-1.19 4.7,6.84 3.83,34.4 0.16,40 -7.03,10.72 -22.09,8.38 -26.52,-0.21 -1.95,-3.78 -2.65,-12.05 -2.65,-17.9zm14 -32.9c-18.21,2.1 -18.91,19.24 -18.68,33.69 0.12,7.41 0.66,16.44 4.57,21.42 8.77,11.16 27.1,10.27 34.06,-3.05 2.8,-5.35 3.06,-16.49 2.95,-23.11 -0.12,-7.74 -0.57,-16.11 -4.61,-21.47 -3.3,-4.38 -9.82,-8.47 -18.3,-7.49z"/>
   <path class="fil4" d="M399.61 168.83c-3.4,0.57 -4.86,2.67 -4.88,6.36 -0.01,3.08 -0.34,8.47 0.04,11.29 0.43,3.23 2.98,4.61 6.58,4.59 8.57,-0.06 15.88,1.87 15.89,-6.65 0,-8.62 2.08,-15.77 -6.58,-15.72 -2.8,0.02 -8.65,-0.27 -11.04,0.14z"/>
   <path class="fil0" d="M401.28 16.02c-3.39,0.69 -4.71,2.8 -4.73,6.59 -0.03,8.99 -2,15.67 6.92,15.59 8.91,-0.08 15.58,1.84 15.58,-6.9 0,-9.03 2.04,-15.5 -6.81,-15.44 -2.56,0.02 -8.88,-0.26 -10.96,0.16z"/>
   <path class="fil5" d="M399.61 168.83c2.39,-0.4 8.24,-0.12 11.04,-0.14 8.67,-0.05 6.59,7.1 6.58,15.72 -0,8.52 -7.32,6.59 -15.89,6.65 -3.6,0.02 -6.15,-1.36 -6.58,-4.59 -0.38,-2.81 -0.05,-8.21 -0.04,-11.29 0.01,-3.68 1.48,-5.78 4.88,-6.36zm-9.68 6.36c0,7.19 -1.03,12.85 2.73,17.29 1.31,1.55 4.31,3.23 7.1,3.23l11.69 0c7.38,0 10.62,-5.52 10.62,-12.36 0,-6.17 0.89,-11.97 -2.59,-15.85 -1.38,-1.53 -3.9,-3.35 -6.71,-3.35l-12.75 0c-6.07,0 -10.09,4.85 -10.09,11.05z"/>
   <path class="fil5" d="M401.28 16.02c2.08,-0.42 8.4,-0.14 10.96,-0.16 8.85,-0.06 6.82,6.41 6.81,15.44 -0,8.74 -6.67,6.82 -15.58,6.9 -8.91,0.08 -6.95,-6.59 -6.92,-15.59 0.02,-3.79 1.34,-5.9 4.73,-6.59zm-9.5 5.8l0 10.79c0,5.71 4.63,10.26 9.83,10.26l11.15 0c4.13,0 7.11,-1.67 8.93,-4.05 2.73,-3.57 1.67,-5.51 1.96,-10.95 0.1,-1.85 0.39,-3.76 0.27,-6.05 -0.29,-5.61 -4.04,-10.52 -9.3,-10.52l-13.28 0c-5.1,0 -9.56,4.73 -9.56,10.52z"/>
   <path class="fil5" d="M636.94 285.42c-7.94,0 -18.53,1.25 -15.42,-10.01 0.75,-2.69 3.27,-3.49 6.24,-4.08 4.68,-0.93 17.9,-0.64 23.26,-0.64 0,3.12 0.11,5.76 -0.76,8.72 -0.6,2.07 -1.24,2.4 -2.81,3.54 -2.35,1.7 -6.56,2.48 -10.52,2.48zm18.84 -19.4c-7.01,0.05 -24.88,-0.41 -30.66,1.1 -4.25,1.11 -7.34,3.41 -8.29,7.6 -1.14,5.02 -0.2,9.88 2.83,12.29 5.29,4.2 20.32,3.97 27.1,1.55 3.67,-1.31 6.9,-4.04 8.02,-7.84 1.04,-3.52 1.44,-10.96 1,-14.71z"/>
   <path class="fil5" d="M627.38 165.46c0,-2.38 0.3,-4.4 2.39,-5.79l7.56 8.83c0.6,0.74 0.7,0.55 0.94,1.43 -2.77,0 -4.44,0.89 -7.22,0.05 -1.84,-0.55 -3.67,-2.21 -3.67,-4.52zm3.76 -15.54c-2.53,0.91 -7.82,5.52 -9.58,8.73 -2.65,4.86 -1.44,10.39 1.36,14.11 4.11,5.47 13.75,5.76 21,2.51 1.54,-0.69 4.73,-2.46 5.43,-3.51 -0.64,-0.9 -1.49,-1.74 -2.26,-2.68l-6.86 -8.2c-1.61,-1.93 -2.92,-3.48 -4.59,-5.44l-4.49 -5.52z"/>
   <path class="fil1" d="M195.59 268.68c-1.74,2.38 -2.19,5.15 -0.8,8.23 3.57,7.9 14.61,12.69 19.01,4.28 4.12,-7.87 -8.19,-26.2 -18.21,-12.5z"/>
   <path class="fil5" d="M213.8 281.18c-4.4,8.41 -15.43,3.63 -19.01,-4.28 -1.39,-3.07 -0.95,-5.84 0.8,-8.23 10.01,-13.7 22.33,4.63 18.21,12.5zm-23.08 -7.86c0,8.49 13.89,21.86 23.84,12.04 5.98,-5.9 3.34,-14.56 -1.19,-19.21 -4.21,-4.32 -9.25,-7.63 -15.49,-4.41 -2.99,1.54 -7.16,7.49 -7.16,11.58z"/>
   <path class="fil5" d="M231.02 283.45c6.75,-2.13 11.77,7.8 3.56,10.96 -1.71,0.66 -3.48,0.59 -4.87,-0.27 -4.53,-2.79 -3.56,-9.16 1.31,-10.69zm-7.37 5.12c0,2.98 0.48,4.57 2.72,6.78 0.92,0.91 0.97,1.1 2.23,1.74 8.01,4.03 18.51,-6.37 10.93,-13.98 -2.9,-2.91 -4.39,-2.95 -7.91,-2.95 -3.88,0 -7.97,4.33 -7.97,8.42z"/>
   <path class="fil5" d="M633.82 135.17c1.89,-1.75 6.26,-3.84 7.41,-6.77 1.6,-4.06 -1.01,-8.01 -4.33,-8.7 -5.67,-1.16 -10.95,4.11 -6.1,11.59 0.88,1.35 1.81,3.04 3.02,3.88z"/>
   <path class="fil1" d="M231.02 283.45c-4.87,1.54 -5.84,7.9 -1.31,10.69 1.39,0.85 3.16,0.93 4.87,0.27 8.2,-3.16 3.19,-13.1 -3.56,-10.96z"/>
   <path class="fil3" d="M243.58 198.78c-5.8,1.81 -2.12,10.92 2.88,9 1.37,-0.52 3.42,-3.55 3.02,-6.01 -0.38,-2.32 -3.1,-3.86 -5.9,-2.99z"/>
  </g>
 </g>
</svg>
