<?xml version="1.0" encoding="UTF-8"?>
<!DOCTYPE svg PUBLIC "-//W3C//DTD SVG 1.1//EN" "http://www.w3.org/Graphics/SVG/1.1/DTD/svg11.dtd">
<!-- Creator: CorelDRAW -->
<svg xmlns="http://www.w3.org/2000/svg" xml:space="preserve" width="37.2271mm" height="37.2271mm" version="1.1" style="shape-rendering:geometricPrecision; text-rendering:geometricPrecision; image-rendering:optimizeQuality; fill-rule:evenodd; clip-rule:evenodd"
viewBox="0 0 1545.34 1545.34"
 xmlns:xlink="http://www.w3.org/1999/xlink"
 xmlns:xodm="http://www.corel.com/coreldraw/odm/2003">
 <defs>
  <style type="text/css">
   <![CDATA[
    .fil2 {fill:black}
    .fil1 {fill:#FF9B8C}
    .fil0 {fill:#FFDDD3}
    .fil3 {fill:black;fill-rule:nonzero}
   ]]>
  </style>
 </defs>
 <g id="Camada_x0020_1">
  <metadata id="CorelCorpID_0Corel-Layer"/>
  <g id="_1271860124464">
   <path class="fil0" d="M772.67 0l0 0c424.97,0 772.67,347.7 772.67,772.67l0 0c0,424.97 -347.7,772.67 -772.67,772.67l-0 0c-424.97,0 -772.67,-347.7 -772.67,-772.67l0 -0c0,-424.97 347.7,-772.67 772.67,-772.67z"/>
   <g>
    <path class="fil1" d="M749.47 254.52l267.7 128.92 66.11 289.68 -185.26 232.3c-99.04,0 -198.08,0 -297.12,0l-185.26 -232.3 66.11 -289.68 267.7 -128.92z"/>
    <path class="fil2" d="M742.45 453.39c-44.12,-25.87 -55.58,-18.26 -99.22,-26.05 -6.33,-1.13 -18.2,-6.42 -20.55,-13.07 -7.59,-31.59 22.66,-60.82 47.31,-75.33 10.15,-5.97 19.82,-10.34 31.23,-13.36 6.51,-1.59 10.46,0.38 12.07,-2.67 -4.04,-0.94 -6.05,-1.42 -10.31,-0.86 -38.28,5.55 -84.37,41.8 -87.08,82.77 -0.32,6.95 1.28,11.81 5.05,17.58 4.04,5.73 11.52,7.37 11.48,9.3 -0.27,6.71 -3.29,12.79 -5.09,19.18 -3.62,12.85 -9.4,24.49 -13.65,36.86 -9.05,26.29 17.12,36.66 5.16,37.29 -6.38,0.34 -6.6,0.42 -13.13,-2.02 -1.37,-0.51 -3.89,-1.32 -3.89,0.86 0,3.95 2.45,4.47 5.88,5.84 8.34,3.32 15.27,1.33 22.94,-1.95 26.03,-11.13 29.99,-2.8 38.43,-3.51 -0.22,-2.64 -6.06,-5.63 -8.31,-6.42 -9.14,-3.21 -17.85,-0.52 -26.64,2.07 -3.15,0.88 -3.73,2.84 -7.74,2.84 -1.1,0 -4.16,-9.28 -4.64,-10.47 -7.18,-17.1 -2.54,-24.15 3.52,-39.86 3.31,-8.58 5.9,-16.11 8.53,-24.83 0.33,-1.1 0.66,-2.21 1,-3.31 1.63,-3.6 1.65,-8 3.3,-11.43 4.43,0.37 12.06,3 19.28,3.39 38.29,4.17 74.21,12.81 102.35,41.08 21.64,22.14 27.94,51.93 18.86,81.39 -5.19,16.85 -11.65,24.38 -22.71,36.7 -1.81,2.02 -3.04,4.01 -5.17,6.29 -25.88,27.69 -69.07,66.88 -42.65,107.6 15.88,22.92 56.67,33.74 81.84,44.08 15.04,6.47 32.67,14.68 40.46,29.94 5.26,13.98 4.39,17.54 2.55,31.67 -0.94,6.81 -3.62,12.39 -7.29,18.02l-18.8 24.64 -9.65 9.62c-9.18,8.97 -18.96,17.29 -28.24,26.16 -1.04,1.02 -1.85,1.31 -1.98,2.93 2.07,0 2.66,-0.54 3.85,-1.44 5.54,-4.62 10.72,-9.71 16.18,-14.43 9.42,-8.15 23.42,-22.46 31,-32.85 5.66,-7.76 7.92,-10.77 12.33,-19.03 6.55,-12.96 9.42,-33.68 3.63,-47.36 -30.52,-55.46 -88.44,-40.34 -115.74,-73.15 -23,-28.73 6,-64.62 25.25,-86.39 18.65,-20.97 33.59,-33.76 43.42,-61.72 15.95,-45.38 -5.1,-82.91 -44.4,-106.61zm-71.1 170.98c2.42,0 7.45,-1.19 8.44,-3.72 1.5,-3.88 -5.53,-0.45 -8.98,-1 -6.04,-0.95 -3.58,-2.12 -6.26,-2.84 -2.28,1.67 -2.42,3.38 -1.89,5.67 1.36,0.66 6.58,1.89 8.69,1.89zm-0.76 -26.82c7.36,0 8.34,-7.26 9.53,-5.11 0.78,1.41 -1,0.59 0.92,3.34 0.26,0.37 0.83,1.32 0.96,1.69 1.88,5.01 -0.68,3.4 -1.84,3.58 -2.99,0.44 -7.2,4.36 -13.15,1.59 -4.12,-1.91 -7.75,-0.91 -7.75,-3.58 0,-2.92 1.36,-4.34 4.53,-4.91 2.5,0 2.03,3.4 6.8,3.4zm-15.87 3.02c0,1.59 2.18,2.08 3.28,2.76 1.72,1.07 0.94,2.07 3.56,2.49 2.41,0.39 2.97,0.05 4.72,1.33 2.87,2.1 6.59,2.43 9.28,0.66 2.92,-1.91 4.62,-1.51 6.03,-3.79 0.63,-1.01 0.68,-2.69 2.22,-2.69 2.28,0 6.52,5.08 13.79,3.23 2.63,-0.67 2.44,0.04 3.97,-1.71 -0.79,-1.49 -0.81,-1.64 -2.8,-2.11 -8.54,-2.03 -8.79,-4.55 -12.91,-10.51 -0.73,-1.06 -3.42,-4.38 -4.69,-4.38 -4.4,0 -5.44,3.9 -7.45,5.77 -4.1,3.83 -5.3,-1.71 -8.2,-3.35 -3.81,-2.1 -4.62,-0.76 -6.7,2.05 -2.8,3.79 -4.1,5.48 -4.1,10.25zm-6.31 27.43c5.38,14.46 12.59,29.23 30.91,21.74 9.12,-3.73 18.31,-12.01 26.28,-17.96 12.66,-9.33 30.03,-22.12 39.81,-34.23 1.76,-2.76 0.81,-1.75 3.52,-4.77 1.01,-1.12 4.02,-7.25 4.02,-10.92 -1.96,-0.34 -2.09,0.34 -2.79,1.93 -8.62,19.42 -49.61,45.7 -65.72,57.75 -8.22,6.07 -14.94,8.9 -22.48,-0.14 -2.71,-3.25 -8.92,-18.92 -12.17,-24.82 -7.98,-14.17 -29.58,-46.41 -29,-61.64 0.22,-5.7 2.02,-11.13 3.12,-16.68 0.38,-2.04 0.24,-3.13 -0.18,-5.14 -2.34,0.02 -2.26,2.41 -2.81,4.5 -6.67,24.55 -7.19,22.8 4.33,46.26 3.38,6.88 7.03,13.48 10.91,20.1 4.73,8 8.92,15.27 12.25,24.01zm47.79 -284.02c2.45,-1.27 10.17,-4.1 11.42,-5.96 -2.27,-1.52 -5.36,-0.78 -7.9,0.03 -17.21,7.36 -38.51,18.91 -48.41,35.47 -9.14,16.73 2.37,25.35 17.39,30.69 39.72,11.95 81.08,4.52 123.81,15.73 40.86,10.71 68.72,29.06 88.15,67.34 13.8,31.1 -1.24,54.9 -22.05,77.81 -14.21,15.63 -33.98,30.51 -50.86,43.32 -21.19,16.29 -63.17,55.83 -50.26,85.51 8.22,18.6 36.14,20.37 53.92,22.02 13.47,1.2 36.42,5.09 45.71,16.28 3.42,4.12 6.82,8.25 10.23,12.38 1.74,1.99 1.64,1.48 3.87,2.55 -0.22,-0.95 -0.38,-1.47 -0.77,-2.25 -14.62,-25.41 -22.83,-31.21 -53.78,-35.8 -32.95,-4.92 -68.06,-11.28 -41.25,-52.86 27.92,-42.41 109.14,-79.19 119.38,-134.21 7.85,-45.64 -39.02,-90.42 -77.53,-106.45 -43.25,-16.11 -78.28,-12.85 -122.57,-14.98 -12.25,-0.59 -19.56,-2.28 -30.16,-8.65 -20.86,-15.67 11.91,-36.58 24.46,-43.81 2.4,-1.39 4.82,-2.76 7.22,-4.15z"/>
    <path class="fil3" d="M203.99 1052.99l8.47 -3.92c0.81,2.91 2.29,5.14 4.44,6.66 2.13,1.54 4.87,2.3 8.21,2.3 3.17,0 5.67,-0.88 7.55,-2.64 1.86,-1.75 2.79,-4.1 2.79,-7.04 0,-3.84 -3.18,-7.27 -9.57,-10.27 -0.9,-0.44 -1.59,-0.78 -2.06,-0.98 -7.21,-3.52 -12,-6.69 -14.4,-9.54 -2.39,-2.85 -3.59,-6.33 -3.59,-10.42 0,-5.33 1.81,-9.65 5.43,-12.96 3.61,-3.3 8.36,-4.95 14.23,-4.95 4.82,0 8.85,0.93 12.1,2.79 3.25,1.86 5.49,4.52 6.74,8l-8.29 4.3c-1.31,-2.06 -2.74,-3.57 -4.31,-4.51 -1.57,-0.96 -3.37,-1.43 -5.4,-1.43 -2.85,0 -5.13,0.75 -6.81,2.24 -1.69,1.48 -2.53,3.47 -2.53,5.97 0,3.94 3.7,7.6 11.1,10.99 0.56,0.27 1,0.49 1.34,0.63 6.46,2.98 10.89,5.89 13.3,8.73 2.41,2.85 3.61,6.4 3.61,10.65 0,6.19 -1.95,11.11 -5.85,14.75 -3.9,3.64 -9.17,5.47 -15.82,5.47 -5.56,0 -10.12,-1.28 -13.68,-3.84 -3.55,-2.56 -5.88,-6.22 -6.98,-10.99zm136.94 -12.6l18.23 0 -6.71 -14.9c-0.38,-0.95 -0.79,-2.04 -1.2,-3.28 -0.41,-1.23 -0.84,-2.6 -1.25,-4.13 -0.35,1.43 -0.73,2.76 -1.14,3.99 -0.4,1.24 -0.81,2.38 -1.22,3.42l-6.7 14.9zm29.38 25.69l-7.41 -16.82 -25.91 0 -7.59 16.82 -11.15 0 31.65 -67.93 31.62 67.93 -11.22 0zm86.55 0l0 -65.37 10.61 0 0 55.87 23.77 0 0 9.51 -34.38 0zm125.99 -25.69l18.23 0 -6.71 -14.9c-0.38,-0.95 -0.79,-2.04 -1.2,-3.28 -0.41,-1.23 -0.84,-2.6 -1.25,-4.13 -0.35,1.43 -0.73,2.76 -1.14,3.99 -0.4,1.24 -0.81,2.38 -1.22,3.42l-6.7 14.9zm29.38 25.69l-7.41 -16.82 -25.91 0 -7.59 16.82 -11.15 0 31.65 -67.93 31.62 67.93 -11.22 0zm-7.35 -82.93c-0.53,2.96 -1.57,5.26 -3.09,6.89 -1.54,1.63 -3.41,2.44 -5.61,2.44 -0.38,0 -0.78,-0.01 -1.16,-0.06 -0.39,-0.05 -0.79,-0.12 -1.2,-0.22l-5.53 -1.42c-0.49,-0.09 -0.84,-0.15 -1.08,-0.18 -0.23,-0.03 -0.44,-0.05 -0.63,-0.05 -1.03,0 -1.86,0.24 -2.45,0.71 -0.59,0.47 -1.05,1.24 -1.37,2.3l-4.02 0c0.68,-3.15 1.72,-5.5 3.09,-7.03 1.39,-1.54 3.17,-2.3 5.35,-2.3 0.44,0 0.9,0.03 1.35,0.09 0.46,0.06 0.92,0.15 1.36,0.26l5.23 1.39c0.23,0.06 0.5,0.11 0.79,0.14 0.31,0.03 0.73,0.05 1.3,0.05 0.93,0 1.71,-0.26 2.33,-0.79 0.62,-0.52 1.07,-1.27 1.32,-2.22l4.02 0zm149.86 50.38c0,-3.31 -0.61,-6.45 -1.81,-9.42 -1.2,-2.97 -2.94,-5.62 -5.2,-7.94 -2.21,-2.3 -4.75,-4.06 -7.65,-5.29 -2.91,-1.23 -5.98,-1.86 -9.17,-1.86 -3.22,0 -6.28,0.61 -9.19,1.83 -2.9,1.22 -5.49,2.99 -7.74,5.32 -2.25,2.28 -3.99,4.92 -5.18,7.89 -1.19,2.97 -1.78,6.13 -1.78,9.46 0,3.31 0.6,6.43 1.78,9.37 1.19,2.94 2.93,5.57 5.18,7.89 2.25,2.33 4.83,4.1 7.73,5.32 2.88,1.22 5.96,1.83 9.21,1.83 3.18,0 6.2,-0.61 9.08,-1.83 2.86,-1.22 5.45,-2.98 7.74,-5.32 2.26,-2.32 3.99,-4.95 5.2,-7.91 1.2,-2.97 1.81,-6.08 1.81,-9.36zm11.06 0c0,4.65 -0.87,9.04 -2.6,13.17 -1.76,4.14 -4.28,7.83 -7.62,11.08 -3.35,3.25 -7.15,5.73 -11.38,7.45 -4.22,1.72 -8.66,2.59 -13.29,2.59 -4.71,0 -9.19,-0.87 -13.47,-2.61 -4.26,-1.75 -8.03,-4.22 -11.31,-7.43 -3.33,-3.25 -5.87,-6.92 -7.59,-11.03 -1.72,-4.1 -2.59,-8.51 -2.59,-13.21 0,-4.68 0.87,-9.08 2.59,-13.21 1.72,-4.14 4.25,-7.85 7.59,-11.12 3.34,-3.25 7.12,-5.71 11.34,-7.41 4.22,-1.69 8.7,-2.54 13.44,-2.54 4.69,0 9.14,0.86 13.36,2.54 4.21,1.69 7.99,4.16 11.31,7.41 3.34,3.31 5.87,7.04 7.62,11.19 1.74,4.16 2.6,8.53 2.6,13.15zm161.48 -4.94l1.93 0c5.62,0 9.36,-0.66 11.2,-1.97 1.84,-1.31 2.77,-3.63 2.77,-6.97 0,-3.59 -0.99,-6.12 -2.97,-7.6 -1.98,-1.48 -5.65,-2.21 -11,-2.21l-1.93 0 0 18.75zm-0.64 8.23l0 29.26 -9.97 0 0 -65.37 14.81 0c4.34,0 7.71,0.29 10.12,0.85 2.39,0.56 4.43,1.49 6.12,2.81 2.03,1.58 3.58,3.62 4.69,6.12 1.1,2.5 1.65,5.23 1.65,8.22 0,5.23 -1.27,9.33 -3.8,12.3 -2.53,2.96 -6.26,4.74 -11.2,5.33l22.49 29.75 -11.98 0 -21.76 -29.26 -1.19 0zm166.39 -3.29c0,-3.31 -0.61,-6.45 -1.81,-9.42 -1.2,-2.97 -2.94,-5.62 -5.2,-7.94 -2.21,-2.3 -4.76,-4.06 -7.65,-5.29 -2.91,-1.23 -5.97,-1.86 -9.17,-1.86 -3.22,0 -6.28,0.61 -9.19,1.83 -2.89,1.22 -5.48,2.99 -7.74,5.32 -2.26,2.28 -3.99,4.92 -5.18,7.89 -1.19,2.97 -1.78,6.13 -1.78,9.46 0,3.31 0.59,6.43 1.78,9.37 1.19,2.94 2.93,5.57 5.18,7.89 2.25,2.33 4.83,4.1 7.73,5.32 2.88,1.22 5.96,1.83 9.2,1.83 3.18,0 6.2,-0.61 9.08,-1.83 2.86,-1.22 5.45,-2.98 7.74,-5.32 2.25,-2.32 3.99,-4.95 5.2,-7.91 1.2,-2.97 1.81,-6.08 1.81,-9.36zm11.07 0c0,4.65 -0.87,9.04 -2.61,13.17 -1.75,4.14 -4.28,7.83 -7.62,11.08 -3.35,3.25 -7.14,5.73 -11.38,7.45 -4.22,1.72 -8.66,2.59 -13.29,2.59 -4.71,0 -9.19,-0.87 -13.47,-2.61 -4.27,-1.75 -8.03,-4.22 -11.31,-7.43 -3.34,-3.25 -5.87,-6.92 -7.59,-11.03 -1.72,-4.1 -2.59,-8.51 -2.59,-13.21 0,-4.68 0.87,-9.08 2.59,-13.21 1.72,-4.14 4.25,-7.85 7.59,-11.12 3.34,-3.25 7.11,-5.71 11.34,-7.41 4.22,-1.69 8.7,-2.54 13.44,-2.54 4.69,0 9.14,0.86 13.37,2.54 4.21,1.69 7.98,4.16 11.3,7.41 3.34,3.31 5.87,7.04 7.62,11.19 1.74,4.16 2.61,8.53 2.61,13.15zm77.63 19.46l8.47 -3.92c0.81,2.91 2.28,5.14 4.43,6.66 2.13,1.54 4.88,2.3 8.22,2.3 3.17,0 5.67,-0.88 7.54,-2.64 1.86,-1.75 2.79,-4.1 2.79,-7.04 0,-3.84 -3.19,-7.27 -9.57,-10.27 -0.9,-0.44 -1.58,-0.78 -2.05,-0.98 -7.21,-3.52 -12.01,-6.69 -14.4,-9.54 -2.4,-2.85 -3.6,-6.33 -3.6,-10.42 0,-5.33 1.81,-9.65 5.43,-12.96 3.61,-3.3 8.36,-4.95 14.23,-4.95 4.82,0 8.85,0.93 12.1,2.79 3.25,1.86 5.48,4.52 6.73,8l-8.29 4.3c-1.31,-2.06 -2.74,-3.57 -4.31,-4.51 -1.57,-0.96 -3.37,-1.43 -5.39,-1.43 -2.85,0 -5.13,0.75 -6.81,2.24 -1.69,1.48 -2.53,3.47 -2.53,5.97 0,3.94 3.71,7.6 11.1,10.99 0.56,0.27 1,0.49 1.34,0.63 6.46,2.98 10.9,5.89 13.3,8.73 2.41,2.85 3.61,6.4 3.61,10.65 0,6.19 -1.95,11.11 -5.85,14.75 -3.9,3.64 -9.17,5.47 -15.82,5.47 -5.56,0 -10.12,-1.28 -13.69,-3.84 -3.55,-2.56 -5.88,-6.22 -6.98,-10.99zm123.13 13.09l0 -65.37 36.48 0 0 9.05 -25.88 0 0 16.37 25.88 0 0 9.33 -25.88 0 0 21.12 25.88 0 0 9.51 -36.48 0z"/>
    <path class="fil3" d="M349.65 1163.36l0 -39.11 6.35 0 0 14.44 19.26 0 0 -14.44 6.34 0 0 39.11 -6.34 0 0 -18.98 -19.26 0 0 18.98 -6.35 0zm89.17 -15.37l10.9 0 -4.01 -8.92c-0.22,-0.56 -0.47,-1.22 -0.72,-1.96 -0.24,-0.74 -0.5,-1.56 -0.75,-2.47 -0.21,0.86 -0.44,1.65 -0.68,2.39 -0.24,0.74 -0.48,1.42 -0.73,2.04l-4.01 8.92zm17.58 15.37l-4.43 -10.06 -15.5 0 -4.54 10.06 -6.67 0 18.94 -40.64 18.92 40.64 -6.71 0zm50.48 0l0 -39.11 6.35 0 0 39.11 -6.35 0zm61.82 -22.43l1.16 0c3.36,0 5.6,-0.39 6.7,-1.17 1.1,-0.78 1.66,-2.17 1.66,-4.17 0,-2.15 -0.59,-3.67 -1.78,-4.55 -1.19,-0.88 -3.38,-1.32 -6.58,-1.32l-1.16 0 0 11.21zm-0.38 4.92l0 17.51 -5.97 0 0 -39.11 8.86 0c2.6,0 4.61,0.17 6.05,0.51 1.43,0.34 2.66,0.89 3.67,1.68 1.22,0.95 2.15,2.17 2.81,3.67 0.66,1.49 0.98,3.13 0.98,4.91 0,3.13 -0.76,5.58 -2.27,7.36 -1.51,1.77 -3.75,2.84 -6.7,3.19l13.46 17.8 -7.17 0 -13.02 -17.51 -0.71 0zm106.24 17.51l0 -39.11 21.83 0 0 5.41 -15.48 0 0 9.79 15.48 0 0 5.58 -15.48 0 0 12.64 15.48 0 0 5.69 -21.83 0zm142.57 -19.31c-0.07,-0.3 -0.2,-1.14 -0.35,-2.51 -0.15,-1.14 -0.27,-2.09 -0.37,-2.84 -0.16,0.9 -0.39,1.79 -0.68,2.67 -0.29,0.89 -0.66,1.8 -1.11,2.73l-10.23 20.84 -10.23 -21.27c-0.43,-0.87 -0.81,-1.71 -1.11,-2.53 -0.31,-0.82 -0.59,-1.63 -0.81,-2.44 -0.02,0.82 -0.08,1.68 -0.2,2.58 -0.12,0.9 -0.29,1.84 -0.52,2.82l-4.2 19.25 -5.85 0 9.24 -40.76 11.54 24.68c0.17,0.38 0.45,1.04 0.81,1.94 0.37,0.91 0.81,2.03 1.32,3.36 0.37,-1.12 0.97,-2.54 1.77,-4.26 0.21,-0.46 0.37,-0.82 0.47,-1.07l11.28 -24.66 9.46 40.76 -5.91 0 -4.32 -19.31zm63.55 3.94l10.9 0 -4.01 -8.92c-0.23,-0.56 -0.47,-1.22 -0.72,-1.96 -0.25,-0.74 -0.5,-1.56 -0.75,-2.47 -0.21,0.86 -0.44,1.65 -0.68,2.39 -0.24,0.74 -0.49,1.42 -0.73,2.04l-4.01 8.92zm17.58 15.37l-4.43 -10.06 -15.5 0 -4.54 10.06 -6.67 0 18.94 -40.64 18.92 40.64 -6.71 0zm50.37 0l0 -39.11 6.35 0 0 16.19 14.06 -16.19 7.79 0 -15.51 17.4 17.35 21.71 -8.21 0 -15.48 -19.98 0 19.98 -6.35 0zm73.91 0l0 -39.11 21.83 0 0 5.41 -15.48 0 0 9.79 15.48 0 0 5.58 -15.48 0 0 12.64 15.48 0 0 5.69 -21.83 0zm68.93 -39.11l6.29 0 0 23.75c0,3.52 0.81,6.17 2.45,7.94 1.63,1.78 4.06,2.66 7.31,2.66 3.22,0 5.65,-0.88 7.28,-2.66 1.63,-1.77 2.45,-4.43 2.45,-7.94l0 -23.75 6.35 0 0 24.33c0,5.29 -1.33,9.25 -4.01,11.88 -2.67,2.63 -6.7,3.94 -12.08,3.94 -5.38,0 -9.39,-1.31 -12.05,-3.93 -2.65,-2.62 -3.98,-6.58 -3.98,-11.89l0 -24.33zm87.2 16.36l1.63 0c3.53,0 5.88,-0.38 7.06,-1.15 1.18,-0.76 1.76,-2.11 1.76,-4.06 0,-2.08 -0.63,-3.55 -1.88,-4.4 -1.25,-0.85 -3.57,-1.27 -6.93,-1.27l-1.63 0 0 10.88zm-0.38 5.2l0 17.56 -5.96 0 0 -39.11 9.61 0c2.85,0 4.95,0.15 6.3,0.46 1.34,0.31 2.52,0.83 3.52,1.54 1.23,0.9 2.19,2.13 2.89,3.67 0.69,1.54 1.04,3.24 1.04,5.09 0,1.86 -0.35,3.56 -1.04,5.13 -0.7,1.57 -1.66,2.8 -2.89,3.69 -1,0.71 -2.18,1.22 -3.52,1.52 -1.35,0.3 -3.45,0.46 -6.3,0.46l-1.25 0 -2.4 0z"/>
   </g>
  </g>
 </g>
</svg>
