<?xml version="1.0" encoding="UTF-8"?>
<!DOCTYPE svg PUBLIC "-//W3C//DTD SVG 1.1//EN" "http://www.w3.org/Graphics/SVG/1.1/DTD/svg11.dtd">
<!-- Creator: CorelDRAW -->
<svg xmlns="http://www.w3.org/2000/svg" xml:space="preserve" width="55.4431mm" height="51.0927mm" version="1.1" style="shape-rendering:geometricPrecision; text-rendering:geometricPrecision; image-rendering:optimizeQuality; fill-rule:evenodd; clip-rule:evenodd"
viewBox="0 0 519.08 478.35"
 xmlns:xlink="http://www.w3.org/1999/xlink"
 xmlns:xodm="http://www.corel.com/coreldraw/odm/2003">
 <defs>
  <style type="text/css">
   <![CDATA[
    .fil0 {fill:black}
    .fil2 {fill:black}
    .fil3 {fill:red}
    .fil1 {fill:white}
    .fil4 {fill:white}
   ]]>
  </style>
 </defs>
 <g id="Camada_x0020_1">
  <metadata id="CorelCorpID_0Corel-Layer"/>
  <g id="_1880156726864">
   <path class="fil0" d="M192.32 0l10.18 0c5.45,0.26 10.59,0.98 14.46,2.26 2.21,0.73 5.62,1.32 8.05,1.92 1.85,0.46 5.07,2.09 6.94,2.72 5.01,1.67 9.33,3.42 13.95,5.67 1.8,0.88 12.23,5.83 12.56,6.74l1.25 0c0.29,-0.71 5.3,-2.88 6.42,-3.55 2.7,-1.61 3.73,-1.77 6.49,-3.16 2.16,-1.09 18.79,-8.01 21.12,-8.47 8.94,-1.76 14.39,-4.14 24.82,-4.14 26.41,0 28.6,4.36 50.16,9.31 15.01,3.45 20.67,3.55 35.52,2.26 4.25,-0.37 8,-1.85 10.96,-1.8l65.6 118.54 -48.58 25.85 56.67 109.31c8.15,0 12.52,0.44 19.32,3.73 3.83,1.85 9.95,7.65 9.95,13.09l0.93 0 0 6.85 -0.93 0c0,4 -3.14,7.37 -5.27,9.36 -2.81,2.62 -5.4,3.66 -9.46,5.18 -6.73,2.51 -5.13,-0.15 -7.81,6.83 -1.37,3.58 -3.04,6.37 -4.47,9.86 -2.74,6.69 -6.74,12.67 -10.17,19.11 -1.8,3.38 -3.67,5.92 -5.54,9.1 -1.88,3.19 -3.89,5.43 -5.8,8.53 -1.83,2.96 -7.08,9.69 -9.68,12.43 -1.23,1.3 -1.95,2.8 -3.09,4.07 -2.38,2.65 -4.8,4.95 -7.2,7.43 -1.32,1.37 -1.56,2.34 -3.27,3.89 -1.49,1.36 -2.22,2.26 -3.55,3.61 -1.45,1.47 -2.42,1.56 -4.03,3.44 -3.22,3.76 -7.84,6.58 -11.56,10.24 -1.97,1.93 -15.88,11.81 -16.19,12.71l-13.42 -11.8 -1.25 0c-0.32,1.19 -5.47,5.44 -6.72,6.67 -1.15,1.14 -2.71,1.82 -3.93,2.92 -4.54,4.12 -14.17,10.76 -19.72,13.6 -1.78,0.91 -2.94,1.27 -4.45,2.4 -1.18,0.88 -12.29,5.8 -13.64,6.29 -6.19,2.29 -13.64,5.38 -19.8,6.98 -6.41,1.66 -26.68,9.5 -33.78,13.24 -1.55,0.82 -2.62,1.71 -4.19,2.35l-12.5 7.74c-1.8,1.61 -1.89,1.44 -3.85,2.69 -0.99,0.63 -2.56,2.36 -3.62,3.23 -1.13,0.91 -2.55,1.64 -3.77,2.76 -1.76,1.62 -5.21,5.39 -7.03,6.36 -0.81,-0.22 -12.52,-10.64 -14.8,-12.29 -2.73,-1.98 -5.22,-3.61 -7.93,-5.46 -1.3,-0.89 -3.1,-1.7 -4.26,-2.59 -4.65,-3.6 -12.23,-6.58 -17.7,-9.08 -5.79,-2.64 -18.98,-7.55 -24.38,-8.94 -3.17,-0.82 -15.95,-5.54 -19.77,-7.01l-4.75 -2.1c-1.35,-0.51 -2.83,-1.45 -4.43,-2.11 -1.63,-0.68 -3.21,-1.29 -4.52,-2.33 -1.1,-0.87 -2.99,-1.37 -4.33,-2.21 -2.75,-1.72 -5.74,-3.29 -8.36,-5.03 -3.88,-2.58 -21.21,-15.64 -22.09,-18.08l-14.32 11.83c-1.97,-2.26 -6.4,-4.77 -8.81,-6.76 -0.42,-0.35 -1.33,-0.94 -1.81,-1.31 -3.39,-2.63 -6.65,-5.67 -10.13,-8.24 -1.29,-0.95 -5.44,-4.59 -6.41,-5.73 -2.07,-2.44 -4,-3.54 -6.35,-6.11 -1.1,-1.2 -2.16,-1.9 -3.25,-2.98 -1.27,-1.26 -1.26,-2.01 -2.62,-3.3 -1.16,-1.11 -2.25,-1.7 -3.2,-3.03l-8.21 -9.86c-5.51,-6.13 -6.87,-9.56 -10.45,-14.15 -6.05,-7.78 -24.74,-41.01 -25.34,-48.16 -5.47,-1.27 -10.24,-2.71 -14.05,-5.57 -5.74,-4.31 -7.12,-8.35 -7.12,-15.61 0,-5.32 3.81,-10.37 6.92,-12.7 2.26,-1.69 3.67,-2.34 6.37,-3.6 1.12,-0.52 1.98,-1.17 3.57,-1.42 1.21,-0.19 3.3,0.01 3.7,-0.98l8.96 -0.04 57.12 -109.08 -48.64 -25.42c0.73,-3.15 16.35,-29.63 19.2,-35.3 0.9,-1.78 2.08,-4.27 3.08,-5.95 1.2,-2.02 2.37,-3.49 3.35,-5.69 2.59,-5.82 12.43,-21.89 16.16,-29.31 1.94,-3.86 4.65,-7.4 6.4,-11.67l9.76 -17.64c8.26,-14.3 5.87,-14.7 12.39,-12.76 2.36,0.7 5.03,0.95 7.86,1.17 4.75,0.37 8.51,0.76 13.07,0.68 2.74,-0.05 1.42,-0.5 3.71,-0.65 2.95,-0.19 6.02,-0.13 8.68,-0.66 1.15,-0.23 2.57,-0.88 3.57,-1.1 1.27,-0.28 2.75,-0.44 3.74,-0.61 7.39,-1.33 14.04,-3.88 21.37,-5.73 2.08,-0.53 4.81,-1.36 7.13,-1.9 4.03,-0.93 9.31,-1.57 14.87,-1.83z"/>
   <path class="fil1" d="M112.1 28.03l-51.77 93.84c0.92,1.04 43.06,22.82 48.04,25.43l-66.5 128.07c-2.29,1.29 -12.45,-0.42 -15.78,0.47 -4.31,1.15 -9.26,0.48 -9.26,8.49 0,6.3 5.65,6.05 6.23,7.47l11.21 0c0.03,1.26 8.23,18.86 9.78,22.29 0.55,1.22 0.98,2.66 1.56,3.74l7.86 13.63c0.81,1.24 1.27,2.31 2.07,3.54 4.16,6.3 13.39,19.32 18.4,24.58 1.17,1.23 1.22,1.79 2.4,2.9 1.31,1.23 1.44,1.04 2.59,2.7 2.55,3.68 17.65,17.22 21.93,21.35 1.53,1.48 5.14,3.31 5.65,5.25l15.44 -13.23c3.24,2.22 10.34,9.47 13.61,12.51 28.04,25.88 50.14,28.04 83.5,41.43 12.39,4.97 25.01,12.48 35.7,20.39 1.17,0.86 3.32,2.37 4.01,3.67l0.62 0c2.58,-3.86 21.47,-15.14 26.79,-18 17.28,-9.14 36.45,-13.77 54.57,-20.88 5.53,-2.17 10.43,-4.53 15.6,-7.45 15.62,-8.92 24.68,-17.61 37.35,-29.61 0.56,-0.53 1.68,-1.64 2.39,-1.92l15.57 13.08c2.19,-2.98 9.5,-8.05 12.91,-11.74 2.69,-2.9 6.89,-6.39 9.91,-9.38 18.79,-18.61 33.35,-41.6 44.34,-65.56 0.83,-1.8 1.6,-3.59 2.36,-5.43 0.87,-2.14 2.83,-5.33 3.35,-7.55 7.45,0 14.6,0.28 16.56,-5.24 1.05,-2.95 1.14,-5.79 -1,-8.14 -2.7,-2.95 -7.6,-1.93 -8.08,-3.13l-15.57 0c-6.51,-12.5 -66.03,-125.91 -66.64,-128.31l47.75 -25.02c0.3,-1.69 -25.35,-47.04 -29.11,-53.81 -6.62,-11.93 -13.05,-23.93 -19.8,-35.8 -0.88,-1.56 -1.69,-2.95 -2.27,-4.64 -7.34,0.53 -8.4,0.7 -15.57,0.62 -14.23,-0.13 -25.63,-3.53 -39.2,-6.92 -30.07,-7.5 -41.01,-8.36 -70.11,4.9 -7.18,3.27 -12.66,6.27 -19.52,9.78l-1.33 0.68c-3.12,1.56 -2.63,-0.39 -6.84,-2.22 -32.45,-16.45 -49.35,-24.08 -85.92,-13.48 -14.91,4.32 -33.62,9 -49.14,7.47 -2.21,-0.28 -4.42,-0.56 -6.63,-0.84z"/>
   <path class="fil2" d="M120.25 43.75l-39.97 72.29 48.04 25.34 -69.71 134.09c1.27,0.66 8.62,-0.79 12.55,2.2 2.99,2.27 4.66,5.47 2.61,9.71 -3.34,6.92 -14.36,4.43 -23.6,4.43 3.46,13 20.35,39.1 29.03,50.38 6.98,9.06 13.22,16.24 21.41,24.24 1.96,1.91 3.94,3.8 5.9,5.7l16.22 -13.36c0.28,1.03 10.34,9.42 11.77,10.96 5.72,6.14 16.48,17.16 23.62,21.22 6.86,3.9 8.11,4.2 18.18,3.64 13.15,-1.06 25.01,-8.65 33.38,-18.55 47.25,-56.82 45.78,-184.18 33.27,-253.88 -3.97,-22.12 -9.78,-44.34 -19.31,-64.76 -3.36,-7.11 -11.1,-20.83 -18.33,-24.06 -12.78,-5.7 -31.32,2.05 -44.19,5.11 -8.59,1.99 -32.93,7.48 -40.87,5.29z"/>
   <path class="fil3" d="M397.63 43.75l39.97 72.29 -48.04 25.34 69.71 134.09c-1.27,0.66 -8.62,-0.79 -12.55,2.2 -2.99,2.27 -4.66,5.47 -2.61,9.71 3.34,6.92 14.36,4.43 23.6,4.43 -3.46,13 -20.35,39.1 -29.03,50.38 -6.98,9.06 -13.22,16.24 -21.41,24.24 -1.96,1.91 -3.94,3.8 -5.9,5.7l-16.22 -13.36c-0.28,1.03 -10.34,9.42 -11.77,10.96 -5.72,6.14 -16.48,17.16 -23.62,21.22 -6.86,3.9 -8.11,4.2 -18.18,3.64 -13.15,-1.06 -25.01,-8.65 -33.38,-18.55 -47.25,-56.82 -45.78,-184.18 -33.27,-253.88 3.97,-22.12 9.78,-44.34 19.31,-64.76 3.36,-7.11 11.1,-20.83 18.33,-24.06 12.78,-5.7 31.32,2.05 44.19,5.11 8.59,1.99 32.93,7.48 40.87,5.29z"/>
   <path class="fil4" d="M307.03 311.12c-3.07,-0.82 -1.56,-15.85 -1.56,-19.93l0 -137.96c0,-3.22 -0.62,-8.1 2.49,-8.1l37.99 0c1.37,0 0.13,0.77 2.18,1.25l0 26.78 13.08 0 0 -27.72c0,-6.65 -6.87,-13.7 -13.7,-13.7l-41.41 0c-7.26,0 -13.57,7.15 -14.02,14 -0.56,8.51 0.01,19.28 0.01,28.04l0 112.11c0,6.66 -0.97,22.71 0.54,27.49 2.24,7.09 6.84,12.06 15.96,12.06l35.5 0c9.25,0 13.14,-2.75 16.17,-9.05 2.01,-4.16 0.95,-17.85 0.95,-24.12 -0.79,-0.39 -11.33,-0.15 -13.08,-0.15 0,2.85 1.26,17.92 -0.62,18.69 -0.8,1.97 -17.23,0.62 -20.24,0.62 -3.29,0 -18.66,0.69 -20.24,-0.31zm-122.69 -2.49l8.1 0 0 -14.01 -8.1 0 0 14.01zm-0.31 -60.73l9.03 0 0 -13.08 -9.03 0 0 13.08zm-35.19 60.42c2.41,0.56 4.89,0.31 7.78,0.31 0.72,0 0.93,-0.22 0.93,-0.93 0,-3.35 0.36,-10.19 -0.31,-13.08l-8.41 0 0 13.7zm164.41 -131.73l0 13.39 11.83 0 0 -13.39c-1.97,-0.46 -10.15,-0.65 -11.83,0zm-94.66 -26.47l45.46 0 0 -13.08 -45.46 0 0 13.08zm-54.49 6.23l0 14.64 14.01 0c0,-24 -2.48,-20.87 15.57,-20.87l0 -13.08 -13.39 0c-5.86,0 -8.72,3.03 -11.72,6.03 -3.2,3.2 -4.47,7.03 -4.47,13.28zm104.32 91.56l18.06 0 0 -12.93 -0.31 -0.15 -18.68 0 -47.64 0 0 13.08 48.58 0zm-0.93 -57.93l18.99 0c0,-2.6 -0,-5.19 0,-7.79 0,-3.47 1.13,-5.96 -2.13,-5.97 -5.3,-0.01 -10.62,0.05 -15.93,0.05l-49.2 0 0 13.7 48.27 0zm9.96 118.65c9.73,0 9.14,0.93 9.06,-2.77 -0.08,-3.63 0.38,-8.14 -0.34,-11.24l-11.83 0 -55.12 0 0 14.01 58.23 0zm35.81 -60.73c7.7,0 10.61,-0.43 13.91,4.46 2.01,2.97 3.84,9.61 3.84,14.53 0,9.21 -0.14,10.68 -2.79,19.32 -0.76,2.47 -1.95,3.49 -3.27,5.45 -2.56,3.79 -5.94,2.95 -11.69,2.95l0 14.01 5.6 0c15.6,0 23.59,-16.67 25.13,-29.05 1.12,-9.06 1.32,-10.83 -0.07,-20.93 -0.68,-4.95 -3.89,-12.51 -7.07,-15.97 -7.98,-8.69 -11.64,-7.85 -23.6,-7.85l0 13.08zm-181.85 -34.57c0,9.63 2.72,17.85 6.91,23.29 1.01,1.31 0.96,0.73 1.81,1.92 0.67,0.94 0.71,1.15 1.65,2.09 3.16,3.12 10.21,7.27 15.78,7.27l-0.03 -13.08c-0.75,-1.14 -10.09,-1.64 -11.76,-14.99 -1.29,-10.35 -0.47,-14.33 2.88,-22.25 0.9,-2.12 4.35,-5.72 6.53,-6.55 4.05,-1.53 7.08,-1.05 12.34,-1.05 8.82,0 17.65,0 26.47,0l0 -13.7 -29.27 0c-12.07,0 -17.44,1.59 -25.09,10.1 -2.04,2.27 -4.85,8.17 -5.98,11.46 -1.45,4.21 -2.25,9.95 -2.25,15.5zm32.7 109.93c0,0.72 0.22,0.93 0.93,0.93l13.08 0 0 -103.08 72.86 0 0 -13.39 -72.86 0 0 -11.52 -14.01 0 0 127.06zm111.17 -203.05c4.52,0 38.31,-0.34 39.77,0.22l0.95 5.35 13.77 0.04c0,-10.88 -5.7,-19.08 -15.89,-19.61 -11.18,-0.59 -24.11,-0.01 -35.49,-0.01 -14.32,0 -28.65,0 -42.97,0 -6.89,0 -14.7,-0.34 -21.48,0.01 -5.58,0.29 -11.56,4.69 -13.02,8.46 -3.21,8.28 -1.62,29.85 -1.62,41.35 0,14.43 0,28.86 0,43.29l13.7 0 0 -78.48c7.41,-1.98 50.6,-0.62 62.28,-0.62zm16.19 230.46c7.81,0 22.83,1.28 28.56,-1.02 4.81,-1.93 9.12,-7.65 9.83,-12.59 0.19,-1.32 1.67,-5.11 0.22,-5.7 -0.64,-1.58 -10.79,-0.62 -13.08,-0.62 0,3.52 -0.47,4.14 -1.87,6.23l-29.27 0 -71.62 -0.01c-2.3,-1.24 -1.25,-9.59 -1.25,-12.76l0 -97.79 -13.7 0c0,35.95 -0.42,72.16 -0.01,108.08 0.09,8.13 4.95,13.91 11.5,15.6 6.41,1.65 18.74,0.59 26.5,0.59 18.06,0 36.12,0 54.18,0z"/>
  </g>
 </g>
</svg>
