<?xml version="1.0" encoding="UTF-8"?>
<!DOCTYPE svg PUBLIC "-//W3C//DTD SVG 1.1//EN" "http://www.w3.org/Graphics/SVG/1.1/DTD/svg11.dtd">
<!-- Creator: CorelDRAW -->
<svg xmlns="http://www.w3.org/2000/svg" xml:space="preserve" width="248.818mm" height="218.712mm" version="1.1" style="shape-rendering:geometricPrecision; text-rendering:geometricPrecision; image-rendering:optimizeQuality; fill-rule:evenodd; clip-rule:evenodd"
viewBox="0 0 28748.19 25269.75"
 xmlns:xlink="http://www.w3.org/1999/xlink"
 xmlns:xodm="http://www.corel.com/coreldraw/odm/2003">
 <defs>
  <style type="text/css">
   <![CDATA[
    .fil2 {fill:#BA9B60}
    .fil0 {fill:#CE1A1D}
    .fil1 {fill:#FDFDFD}
   ]]>
  </style>
 </defs>
 <g id="Camada_x0020_1">
  <metadata id="CorelCorpID_0Corel-Layer"/>
  <g id="_2049519695248">
   <path class="fil0" d="M10726.92 133.07l-0.01 4868.42c-2,754.27 3.04,1024.86 237.84,1623.23 224.9,573.13 731.64,1177.69 1258.48,1544.35 191.34,133.16 371.01,235.25 588.21,343.72 1388.44,693.45 3245.87,357.22 4287.62,-626.36 1305.9,-1232.96 1144.84,-2265.39 1147.37,-3858.62 2.08,-1307.63 15.16,-2712.74 -1.07,-4009.4 -836.47,-36.03 -2090.62,-7.76 -2956.92,-9.42 -1377.34,-2.61 -3020.01,27.81 -4382.22,-1.04 -172.71,-3.66 -178.22,-34.95 -179.3,125.12z"/>
   <path class="fil1" d="M3790.85 15538.93c55.12,-71.93 189.5,-419.37 218.2,-497.8 390.54,-1066.85 564.25,-805.83 19.57,-1357.27 -460.32,-466.04 -1122.46,-833.66 -1880,-608.23 -1431.15,425.86 -2074.42,2367.9 -1412,3695.13 487.03,975.82 1473.21,1295.36 2217.46,1822.71 1077.49,763.47 639.59,1536.6 169.8,1619.72 -399.04,70.59 -704.61,-155.37 -960.76,-342.52 -236.68,-172.92 -502.99,-416.4 -715.66,-636.54l-652.11 -705.58c-66.39,98.27 -790.32,1830.55 -795.34,1887.12l666.38 582.87c238.85,190.58 478.19,364.29 748.78,486.93 623.67,282.64 1378.3,159.33 1912.91,-183.46 1136.07,-728.45 1633.7,-2404.83 1081.4,-3656.14 -564.75,-1279.54 -2121.01,-1550.21 -2692.15,-2246.76 -473.09,-576.97 -114.15,-1340.24 583.38,-1166.19 44.52,11.11 77.21,21.83 117.64,39.08 23.82,10.16 28.51,13.62 53.03,24.88 13.67,6.27 25.08,10.95 39.31,17.52 331.91,153.1 729.87,592.08 975.43,895.75 68.13,84.27 202.53,300.76 304.75,328.8zm20773.48 5926.24l639.08 2.21c33.95,0.36 80.6,3.91 112.45,2.51 100.07,-4.39 102.39,-10.1 104.23,-142.88l-1.37 -2564.79c0.32,-899.24 -30.29,-1854.79 -1.51,-2746.3 77.98,56.12 280.6,571.26 320.07,664.43l457.5 981.21c24.75,53.23 52.65,104.04 79.92,166.41 121.1,276.89 453.5,938.28 534.69,1150.19 42.43,110.73 100.58,232.83 151.47,346.42 165.83,370.08 550.28,1353.35 669.48,1753.38 31.13,104.47 73.64,291.53 124.68,379.03 173.37,24.27 909.83,20.16 971.2,-13.51 41.05,-157.69 11.84,-1737.62 12.76,-2051.46l1.2 -5147.05c0.16,-321.48 -18.81,-730.68 2.95,-1038.41 -27.27,-2.53 -806.29,-24.69 -842.04,15.77 -52.91,106.38 -19.53,833.88 -19.61,1022.63 -0.14,354.61 1.37,709.63 -0.08,1064.16 -1.87,454.58 19.43,1763.86 -3.51,2099.69 -70.48,-26.5 -182.75,-355.27 -250.55,-494.76 -84.46,-173.79 -156.83,-344.77 -235.71,-526.5l-717.57 -1591.34c-75.96,-170.27 -673.95,-1541.14 -731.21,-1575.58 -67.82,-33.38 -1241.77,-32.51 -1377.06,-7.75 -26.94,280.63 -6.04,710.68 -6.35,1010.36 -0.73,703.64 -28.62,7060.33 4.91,7241.92zm-4519.8 -8023.75l2.32 7840.03c-0.62,227.16 14.77,174.48 219.26,172.58l3346.94 2.8c106.01,-0.03 90.64,-16.44 93.09,-151.97 1.86,-102.82 7.91,-178.84 16.2,-264.95 13.47,-140 26.53,-391.21 23.03,-522.7 -444.06,-27.37 -1300.97,-5.38 -1796.49,-5.25 -290.46,0.08 -231.2,128.2 -232.36,-815.89l-1.72 -2540.95c0.18,-161.57 65.97,-122.17 363.52,-121.2l1019.03 -2.62 0.94 -921.4 -1297.33 -5.34c-78.25,0 -83.65,-5.26 -87.65,-98.23l3.87 -1853.82 2018.83 -7.73c1.91,-131.66 -23.57,-843.46 -53.51,-911.53 -36.83,-55.31 -1101.34,-27.84 -1234.37,-28.02l-2292.87 -4.46c-155.43,0 -110.29,53.46 -110.73,240.66zm-5392.04 704.83l1360.83 1.59c156.95,-0.01 104.11,47.9 104.53,574.9l3.88 6471.83c0,104.12 -8.06,166.73 13.85,268.69 419.72,-26.4 926.9,-11.84 1357,-11.58 352,0.21 295.69,98.97 295.74,-430.84l4.27 -5863.74c0.02,-197.69 -26.96,-874.03 18.49,-999.01l1449.59 -10.31c-0.1,-97.6 -32.82,-1025.78 -79.28,-930.34l-43.93 -15.38c-22.25,-3.86 -67.02,-2.41 -91,-2.1 -1322.99,17.52 -2772.77,5.66 -4105.64,0.34 -170.69,-0.68 -235.6,-57.4 -248.52,130.48 -17.54,255.02 -45.59,543.16 -39.81,815.47zm-2644.97 1409.39c42.39,35.62 34.08,-51.43 73.68,154.24 12.37,64.26 23.42,139.88 34.34,184.92 30.26,124.79 54.08,233.04 81.58,361.96 89.61,420.06 249.73,1012.05 327.89,1430.35 27.8,148.8 152.2,633.53 154.33,721.22l-1283.04 5.1c-6.41,-222.87 330.72,-1542.56 409.26,-1935.57 14.92,-74.67 19.2,-126.36 37.06,-204.35l164.9 -717.87zm-825.18 3937.51c88.55,-37.68 1468.49,-13.51 1779.32,-13.09l113.44 492.99c44.34,161.88 76.81,336.68 112.88,493.05l218.47 989.35 1655.38 -10.86c-0.8,-82.32 -138.31,-614.2 -173.59,-771.46 -175.97,-784.31 -375.76,-1531.19 -544.38,-2339.21 -32.4,-155.2 -94.7,-352.9 -125.87,-493.46 -38.8,-174.94 -66.62,-366.7 -111.39,-534.68 -122.09,-458.12 -249.01,-1087.28 -365.95,-1546.65l-245.19 -1032.49c-56.24,-221.68 -317.05,-1421.74 -366.69,-1523.96l-462.32 -2.58c-1017.77,-8.71 -859.97,-91.32 -953.83,269.3l-1798.73 7985.69 848.01 2.43c70.14,0.01 51.02,-31.17 67.14,-101.97 10.68,-46.93 14.48,-50.21 25.21,-116.42 52.07,-321.01 248.64,-1474.28 308.55,-1695.04 13.24,-48.78 9.29,-30.81 19.53,-50.94zm-4032.83 -5341.84c74.35,-9.01 239.65,24 316.1,55.81 286.31,119.12 443.57,290.16 593.92,608.43 367.38,777.68 491.31,3154.72 -226.41,3418.53 -160.65,59.05 -507.9,66.65 -690.09,35.37l6.48 -4118.13zm-1669.33 7293.32l1663.56 3.93 -2.67 -2188.6c0.06,-8.4 1.34,-55.94 2.31,-62.09 19.76,-124.45 137.32,-80.92 382.63,-82.46 134.74,-0.84 250.12,-8.42 371.21,-20.9 250.51,-25.8 460.68,-44.11 675.01,-126.02 864.07,-330.15 1274.81,-908.88 1415.58,-1985.99 70.84,-542.07 49.88,-1195.72 -52.33,-1700.41 -344.87,-1703.17 -1557.01,-2057.91 -2890.25,-2077.08 -276.81,-3.99 -1378.59,-43.67 -1568.38,9.88 -28.63,210.06 -7.56,6444.39 -8.64,7176.12 -0.37,249.11 -24.4,845.79 11.96,1053.61z"/>
   <path class="fil1" d="M15640.57 5056.99c-137.32,-30.85 -658.59,-144.72 -653.59,-339.5 16.89,-6.3 670.4,51.52 739.73,65.28 139.22,27.65 644.63,62.82 726.08,117.28 -48.49,131.32 -615.72,201.06 -812.22,156.94zm-3102.63 -156.94c56.59,-33.51 408.93,-82.53 498.94,-88.56 152.1,-10.21 352.54,-51.53 492.57,-86 367.07,-90.36 515.41,-221.23 643.05,-532.85 82.16,-200.58 198.87,-729.97 215.06,-956.17 9.86,-137.53 66.99,-1024.32 89.48,-1067.75 58.65,76.53 32.18,1075.93 17.18,1242.05 -66.69,739.07 -153.22,1391.94 -921.28,1596.14 -192.61,51.21 -364.02,74.12 -577.81,60.7 -118.44,-7.43 -426.7,-66.43 -457.2,-167.57zm1485.83 645.12c121.72,51.11 38.27,320.87 63.4,435.88l801.27 6.02c36.46,-237.34 -67.78,-369.23 72.48,-454.89 121.89,-23.48 244.27,-75.18 370.93,-101.25 138.61,-28.51 268.02,-47.44 414.6,-77.65 165.73,-34.15 695.61,-129.9 841.59,-119.42 21.88,-15.29 -9.77,-2.1 42.11,-20.58 63.82,-22.7 46.82,1.94 106.42,-49.97l-10.83 -112.69 -207.03 -931.99c-23.04,-112.79 -33.97,-248.29 -56.6,-355.24 -90.04,-425.25 -115.78,-951.36 -185.82,-1393.11 -221.43,-1396.53 -161.08,-1283.12 -1068.97,-1283.61l-1561.95 0.07c-719.83,-0.73 -773.89,-91.4 -965.4,1402.23 -121.44,947.16 -175.98,1465.85 -380.34,2368.96 -56.33,248.91 -129.18,331.61 56.6,362.69 40.68,6.81 85.49,8.91 127.65,15.04 69.73,10.14 142.84,20.32 226.16,32.21 385.72,55.01 968.55,140.88 1313.73,277.29z"/>
   <path class="fil2" d="M9923.51 24125.93c71.18,68.61 296.47,933.35 376.13,1112.85l399.5 -5.34c55.48,-116.88 130.14,-396.29 178.95,-539.12 39.77,-116.42 123.06,-468.15 196.68,-524.65l9.29 1068.85 246.65 -6.94 -6.49 -1406.44 -429.98 -0.13 -171.75 504.51c-59.06,165.67 -160.65,556.29 -219.44,659.8 -79.59,-105.97 -326.1,-1089.51 -393.03,-1148.13l-217.06 -15.3c-72.72,0.29 -143.66,-0.46 -220.7,-2.5l1.53 1414.6 249.1 -2.56 0.64 -1109.5zm5544.6 -296.92c-21.55,146.41 -21.64,1285.82 3.47,1410.97l240.51 -8.37 -5.29 -1403.73 -238.68 1.12zm1833.75 906.93c-155.86,427.24 -852.77,380.11 -846.29,-214.67 5.92,-543.39 661.71,-629.84 845.53,-196.96 89.73,-8.32 147.55,-51.01 213.35,-76.65 1.5,-549.73 -1326.56,-720.52 -1312,310.67 1.41,99.88 14.5,186.58 46.28,267.5l28.99 61.56c347.25,668.97 1261.52,326.36 1245.77,-70.58 -63.84,-34.55 -154.26,-74.33 -221.64,-80.87zm-5425.01 -909.49c-35.78,148.02 -15.74,875.23 13.89,1000.49 141.77,599.32 1016.9,585.44 1157.3,-12.2 26.41,-112.43 33.41,-851.04 12.1,-987.71l-250.93 3.69c-72.78,536.57 181.65,1180.46 -346.11,1178.47 -312.12,-1.18 -337.93,-232.66 -337.26,-432.74 2.63,-795.2 96.54,-766.98 -248.99,-750zm6390.84 835.6l747.87 2.36 0.15 555.93c90.12,25.27 161.27,22.85 257.22,9.54 0.34,-273.19 -0.42,-546.6 -1.16,-819.88 -1.57,-585.24 55.17,-600.85 -151.95,-582.7l-68.4 12.78c-3.05,-4.79 -10.62,2.76 -15.64,4.92 -58.35,146.4 16.7,381.08 -23.55,556.5l-753.71 -3.93 -6.18 -565.53 -235.36 -2.88 -1.58 1406.17c89.58,1.73 181.6,7.24 248.56,-15.78l3.72 -557.51zm-4425.06 572.13c19.91,-112.14 8.86,-675.44 9.15,-861.16 0.07,-49.96 -2.88,-100.26 -2.8,-149.23l19.4 -110.89c56.86,34.01 277.28,497.8 313.15,558.2l230.27 417.04c18.69,37.52 40.85,108.03 60.53,141.37 106.82,16.5 398.38,63.65 423.62,-47.61l3.42 -309.62c0.36,-216.85 14.62,-922.24 -6.76,-1042.35 -80.88,-7.89 -219.84,-36.48 -240.83,48.54l-4.73 1074.92c-104.39,-53.82 -270.51,-456.33 -326.24,-553.62 -332.56,-580.56 -177.8,-611.41 -716.43,-564.72l10.14 1401.87 228.1 -2.74z"/>
   <path class="fil1" d="M13967.66 7057.94l-47.07 450.51c248.84,194.39 453.26,352.02 748.75,239.05 601.93,-230.14 306.43,-393.27 355.31,-620.35 -44.78,-44.26 -23.33,-2.02 -40.73,-96.47 -71.9,-390.21 112.92,-301.66 -506.87,-302.99l-365.89 -0.3c-175.38,15.22 -62.9,180.55 -143.5,330.56z"/>
   <path class="fil2" d="M22325.42 3151.5c224.2,-174.64 412,264.03 199.44,405.06 -156.01,103.5 -346.26,-33.28 -289.63,-293.62 20.39,-93.71 47.42,-78.13 90.19,-111.44zm-2376.25 -62.77c-11.84,266.46 3.62,176.98 229.81,204.69 0.1,55.61 -22.85,1070.69 23.34,1115.02 38,36.46 168.72,22.25 227.09,13.89l11.97 -1389.82c3.25,-192.51 -12.28,-166.73 -216.43,-152.96 -99.2,186.25 -73.31,131.06 -275.78,209.18zm3691.81 53.7c-1.22,207.92 -207.3,650.6 -257.86,925.94l-8.11 -6.74c-30.21,107.53 -93.04,272.93 -95.52,354.42l252.33 5.63c99.28,-264.84 149.47,-463.25 236.85,-745.86 67.08,-216.97 225.96,-532.06 158.51,-799.61 -149.74,-3.82 -722.58,-17.59 -831.7,12.34 -12.29,158.3 -47.76,255.69 101.66,258.15 140.29,2.32 304.26,1.85 443.83,-4.26zm-2829.65 224.18l197.5 2.01 32.86 -69.07c7.66,-21.55 4.34,-28.02 16.93,-60.6 16.93,-43.86 39.75,-67.88 82.73,-93.55 189.53,-113.24 372.1,133.01 245.54,287.88 -69.49,85 -136.96,77.72 -266.49,79.34l-3.55 257.1c162.56,3.78 203.56,-6.9 272.43,80.95 123.86,157.99 -44.22,405.04 -234.98,312.88 -99.4,-48.01 -81.04,-117.3 -122.56,-217.33l-229.56 -3.3c-22.13,142.89 7.74,240.93 84.25,333.76 122.84,149.02 337.74,216.32 526.97,136.15 220.56,-93.45 321.45,-345.15 259.79,-581.02 -26.54,-101.51 -65.91,-117.24 -102.33,-189.4 31.69,-85.37 168.07,-213.74 102.34,-458.78 -150.14,-559.8 -1024.15,-320.98 -861.86,183zm1795.95 437.83c33.18,534.03 -349.2,448.63 -390.33,155.55l-242.97 -2.28c-5.3,275.66 145.08,493.07 455.12,486.68 144.18,-2.98 232.94,-48.34 318.84,-138.92 97.87,-103.18 121.92,-179.64 123.79,-338.53 0.67,-222.91 33.46,-705.6 -47.64,-864.72 -260.04,-510.16 -1046.47,-198.68 -830.4,470.36 34.96,108.24 118.01,190.99 227.58,240.58 200,90.52 225.39,10.64 386,-8.72z"/>
   <path class="fil2" d="M6684.58 4414.41c174.04,7.67 831.58,21.27 924.85,-10.5l0.43 -258.32 -718.98 -6.45c-0.54,-24.93 -4.3,-407.44 32.8,-341.45l127.95 -13.28c75.25,0.7 450.29,11.16 511.09,-8.62 47.74,-106.86 9.04,-224.21 8.78,-225.37l-152.85 -37.53c-527.8,0.96 -575.27,86.65 -538.41,-276.8 11.08,-109.23 -9.9,-35.9 23.23,-68.36 58.97,-53.19 566.16,-19.28 689.86,-19.58l-1.73 -262.6 -902.56 0.22 -4.47 1528.64zm1189.18 -11.33c95.72,23.36 168.47,21.7 270,9.23l-0.32 -1528.46 -261.75 -3.47 -7.93 1522.7zm483.23 -1242.76l360.09 5.11 -2.05 1244.92 206.46 14.62 6.39 -1271.92 366.87 -1.93 -6.6 -275.24 -925.3 2.8 -5.86 281.65zm-2130.98 721.44c28.92,226.38 -50.14,299.41 -269.04,293.8 -202.31,-5.19 -236.91,-119.05 -344.49,-215.26 -410.32,154.19 109.44,616.35 548.5,455.2 260.67,-95.68 381.29,-403.66 249.63,-679.17 -160.22,-335.31 -605.46,-157.65 -700.39,-333.88 -134.28,-249.32 346.65,-457.63 521.45,-74.19 98.24,-25.8 15.05,7.15 82.29,-40.03 108.65,-76.27 103.29,-117.11 63.04,-184.38 -200.53,-335.1 -622.14,-329.76 -806.51,-71.69 -134.16,187.81 -105.15,493.13 42.08,630.36 83.2,77.54 145.44,100.4 282.83,116.8 253.32,30.25 180.86,4.11 330.61,102.45z"/>
   <path class="fil2" d="M13057.67 7131.21l3.99 137.96 136.46 3.19 -2.74 -528.43c129.05,-31.33 106.68,-19.78 108.01,-104.22l-691.71 -12.92c10.13,75.4 56.87,136.97 120.85,182.01 116.42,-16.8 157.48,-76.73 330.5,-69.73 -7.56,442.88 -472.42,566 -635.56,191.06 -152.34,-350.07 1.57,-878.06 325.33,-769.63 126.58,42.4 149.37,267.48 182.57,325.54 58.75,-4.61 219.97,-47.97 269.82,-84.91 -69.76,-258.08 -370.67,-392.1 -631.4,-356.51 -250.7,34.22 -469.15,228.27 -512.89,472.27 -83.07,463.37 247.1,835.54 666.04,784.88 223.8,-27.06 203.95,-126.26 330.72,-170.57z"/>
   <path class="fil2" d="M12537.93 4900.05c30.5,101.13 338.76,160.14 457.2,167.57 213.79,13.41 385.2,-9.5 577.81,-60.7 768.07,-204.19 854.59,-857.07 921.28,-1596.14 15,-166.12 41.47,-1165.52 -17.18,-1242.05 -22.5,43.43 -79.63,930.23 -89.48,1067.75 -16.2,226.19 -132.9,755.59 -215.06,956.17 -127.65,311.62 -275.99,442.49 -643.05,532.85 -140.02,34.47 -340.47,75.78 -492.57,86 -90.02,6.03 -442.35,55.05 -498.94,88.56z"/>
   <path class="fil2" d="M13967.66 7057.94c80.6,-150 -31.88,-315.34 143.5,-330.56l365.89 0.3c619.79,1.33 434.97,-87.22 506.87,302.99 17.4,94.45 -4.06,52.21 40.73,96.47 -2.11,-70.41 -34.47,-328.71 -50.86,-392.44 -32.66,-126.99 -30.85,-249.12 -36.23,-395.21 -8.17,-221.85 -88.61,-619.1 23.36,-807.3 -140.25,85.66 -36.01,217.55 -72.48,454.89l-801.27 -6.02c-25.13,-115.01 58.32,-384.77 -63.4,-435.88 63.99,114.71 37.04,595.33 18.23,766.21 -12.92,117.41 -5.3,272.52 -27.02,382.04 -25.15,126.82 -42.09,208.31 -47.31,364.51z"/>
   <path class="fil2" d="M16037.94 6196c255.23,-155.83 400.69,35.91 479.87,260.82l261.63 -75.96c-4.24,-140.28 -338.78,-396.26 -713.66,-320.25 -152.14,30.85 -260.17,110.17 -267.92,261.09 -13.74,267.33 321.09,344.01 529.71,500.78 70.52,53 283.13,146.73 235.25,281.13 -44.21,124.11 -494.84,183.86 -564.38,-322.61 -78.16,-8.39 -96.3,9.47 -151.61,39.94 -42.5,23.42 -88.73,45.19 -129.67,68.31 110.96,450.36 912.91,547.53 1056.85,207.05 146.61,-346.8 -309.03,-530.34 -556.46,-672.74 -93.47,-53.79 -191.07,-73.81 -179.59,-227.57z"/>
   <path class="fil2" d="M14986.98 4717.49c-5,194.78 516.27,308.65 653.59,339.5 196.5,44.12 763.72,-25.61 812.22,-156.94 -81.45,-54.47 -586.86,-89.64 -726.08,-117.28 -69.32,-13.76 -722.83,-71.58 -739.73,-65.28z"/>
   <path class="fil2" d="M16588.02 5233.87l150.2 -24.42c18.39,-46.46 27.31,-37.91 22.92,-87.53 -10.64,-120.24 -13.46,-42.95 -35.41,-71.28l10.83 112.69c-59.61,51.91 -42.6,27.27 -106.42,49.97 -51.89,18.47 -20.23,5.29 -42.11,20.58z"/>
  </g>
 </g>
</svg>
