<?xml version="1.0" encoding="UTF-8"?>
<!DOCTYPE svg PUBLIC "-//W3C//DTD SVG 1.1//EN" "http://www.w3.org/Graphics/SVG/1.1/DTD/svg11.dtd">
<!-- Creator: CorelDRAW -->
<svg xmlns="http://www.w3.org/2000/svg" xml:space="preserve" width="51.1708mm" height="37.8877mm" version="1.1" style="shape-rendering:geometricPrecision; text-rendering:geometricPrecision; image-rendering:optimizeQuality; fill-rule:evenodd; clip-rule:evenodd"
viewBox="0 0 210.07 155.54"
 xmlns:xlink="http://www.w3.org/1999/xlink"
 xmlns:xodm="http://www.corel.com/coreldraw/odm/2003">
 <defs>
  <style type="text/css">
   <![CDATA[
    .fil1 {fill:black;fill-rule:nonzero}
    .fil0 {fill:black;fill-opacity:0.639216}
    .fil3 {fill:black;fill-rule:nonzero;fill-opacity:0.690196}
    .fil2 {fill:url(#id0)}
    .fil4 {fill:url(#id1);fill-rule:nonzero}
    .fil5 {fill:url(#id2);fill-rule:nonzero}
   ]]>
  </style>
  <linearGradient id="id0" gradientUnits="userSpaceOnUse" x1="161.29" y1="40.85" x2="54.31" y2="42.71">
   <stop offset="0" style="stop-opacity:1; stop-color:#B47371"/>
   <stop offset="0.0705882" style="stop-opacity:1; stop-color:#E8C4BF"/>
   <stop offset="0.129412" style="stop-opacity:1; stop-color:#EDA6A1"/>
   <stop offset="0.231373" style="stop-opacity:1; stop-color:#CF9891"/>
   <stop offset="0.329412" style="stop-opacity:1; stop-color:#DBA69E"/>
   <stop offset="0.419608" style="stop-opacity:1; stop-color:#F3D7CC"/>
   <stop offset="0.478431" style="stop-opacity:1; stop-color:#E3B2AB"/>
   <stop offset="0.568627" style="stop-opacity:1; stop-color:#E4B5AD"/>
   <stop offset="0.811765" style="stop-opacity:1; stop-color:#E4ABA0"/>
   <stop offset="0.909804" style="stop-opacity:1; stop-color:#E0B9B3"/>
   <stop offset="1" style="stop-opacity:1; stop-color:#CC7E7A"/>
  </linearGradient>
  <linearGradient id="id1" gradientUnits="userSpaceOnUse" x1="108.53" y1="132.91" x2="11.17" y2="135.11">
   <stop offset="0" style="stop-opacity:1; stop-color:#B47371"/>
   <stop offset="0.0705882" style="stop-opacity:1; stop-color:#E8C4BF"/>
   <stop offset="0.129412" style="stop-opacity:1; stop-color:#EDA6A1"/>
   <stop offset="0.231373" style="stop-opacity:1; stop-color:#D5A29A"/>
   <stop offset="0.329412" style="stop-opacity:1; stop-color:#DBA69E"/>
   <stop offset="0.419608" style="stop-opacity:1; stop-color:#F3D7CC"/>
   <stop offset="0.478431" style="stop-opacity:1; stop-color:#E3B2AB"/>
   <stop offset="0.568627" style="stop-opacity:1; stop-color:#E4B5AD"/>
   <stop offset="0.690196" style="stop-opacity:1; stop-color:#D49790"/>
   <stop offset="0.811765" style="stop-opacity:1; stop-color:#E4ABA0"/>
   <stop offset="0.909804" style="stop-opacity:1; stop-color:#E0B9B3"/>
   <stop offset="1" style="stop-opacity:1; stop-color:#CC7E7A"/>
  </linearGradient>
  <linearGradient id="id2" gradientUnits="userSpaceOnUse" xlink:href="#id0" x1="202.71" y1="132.96" x2="117.66" y2="135.54">
  </linearGradient>
 </defs>
 <g id="Camada_x0020_1">
  <metadata id="CorelCorpID_0Corel-Layer"/>
  <g id="_2571962367216">
   <path class="fil0" d="M119.53 27.63c-2.01,4.24 -3.01,8.88 -3.01,13.4 0,1.28 0.06,2.51 0.22,3.74 -3.41,5.11 -6.67,10.72 -10.07,15.98 -3.75,5.85 -6.58,10.02 -8.51,12.51l-0.08 0.09c-2.27,2.84 -3.92,4.26 -4.94,4.26 -0.62,0 -1.18,-0.18 -1.66,-0.55 -0.48,-0.37 -0.94,-0.99 -1.36,-1.87 -0.43,-0.88 -0.79,-1.7 -1.11,-2.47 -0.31,-0.77 -0.64,-1.89 -0.98,-3.36 -0.34,-1.48 -0.6,-2.67 -0.77,-3.58 -0.17,-0.91 -0.43,-2.21 -0.77,-3.92 -0.45,-2.55 -0.82,-4.5 -1.11,-5.83 -0.28,-1.33 -0.7,-2.97 -1.23,-4.9 -0.54,-1.93 -1.14,-3.55 -1.79,-4.85 -0.65,-1.31 -1.4,-2.38 -2.26,-3.23 1.65,-0.62 3.38,-1.53 5.19,-2.72 1.82,-1.19 3.77,-2.77 5.87,-4.72 2.1,-1.96 3.83,-3.62 5.19,-4.98 1.36,-1.36 3.26,-3.35 5.7,-5.96 2.38,-2.55 4.2,-4.47 5.45,-5.75 1.25,-1.28 2.81,-2.75 4.68,-4.43 1.87,-1.67 3.49,-2.88 4.85,-3.62 1.36,-0.74 2.58,-1.11 3.66,-1.11 0.28,0 0.51,-0.08 0.68,-0.26 0.17,-0.17 0.26,-0.4 0.26,-0.68 0,-0.28 -0.08,-0.53 -0.26,-0.72 -0.17,-0.2 -0.4,-0.3 -0.68,-0.3 -1.31,0 -2.7,0.37 -4.17,1.11 -1.48,0.74 -3.19,1.97 -5.15,3.7 -1.96,1.73 -3.59,3.26 -4.9,4.6 -1.31,1.33 -3.23,3.36 -5.79,6.09 -2.33,2.44 -4.14,4.31 -5.45,5.62 -1.31,1.31 -2.98,2.92 -5.02,4.85 -2.04,1.93 -3.93,3.49 -5.66,4.68 -1.73,1.19 -3.39,2.1 -4.98,2.72 4.09,-10.67 7.11,-18.86 9.07,-24.56 1.96,-5.7 2.94,-9.58 2.94,-11.62 0,-0.85 -0.18,-1.59 -0.55,-2.21 -0.37,-0.62 -0.89,-1.11 -1.57,-1.45 -0.68,-0.34 -1.48,-0.51 -2.38,-0.51 -1.65,0 -4.17,0.88 -7.58,2.64 -0.06,0 -0.08,0.03 -0.08,0.09 -2.1,1.08 -5.7,3.18 -10.81,6.3 -2.38,1.48 -4.21,2.6 -5.49,3.36 -1.28,0.77 -2.88,1.67 -4.81,2.72 -1.93,1.05 -3.55,1.83 -4.85,2.34 -1.31,0.51 -2.38,0.77 -3.23,0.77 -1.87,0 -3.42,-0.47 -4.64,-1.4 -1.22,-0.94 -1.94,-2.17 -2.17,-3.7 -0.11,-0.62 -0.48,-0.89 -1.11,-0.81 -0.62,0.08 -0.91,0.44 -0.85,1.06 0.17,1.36 0.65,2.55 1.45,3.58 0.79,1.02 1.83,1.8 3.11,2.34 1.28,0.54 2.68,0.81 4.21,0.81 0.96,0 2.11,-0.23 3.45,-0.68 1.33,-0.45 2.99,-1.22 4.98,-2.3 1.99,-1.08 3.66,-2.02 5.02,-2.81 1.36,-0.79 3.35,-1.99 5.96,-3.58 4.94,-3.06 8.48,-5.16 10.64,-6.3l0.08 0 0.09 -0.08c1.87,-0.91 3.41,-1.36 4.6,-1.36 0.4,0 0.68,0.07 0.85,0.21 0.17,0.14 0.26,0.5 0.26,1.06 0,0.68 -0.14,1.62 -0.43,2.81 -0.28,1.19 -0.75,2.75 -1.4,4.68 -0.65,1.93 -1.26,3.73 -1.83,5.41 -0.57,1.67 -1.4,3.93 -2.51,6.77 -1.11,2.84 -1.99,5.12 -2.64,6.85 -0.65,1.73 -1.6,4.24 -2.85,7.53 -3.23,8.29 -5.68,14.6 -7.32,18.94 -1.65,4.34 -3.29,9.15 -4.94,14.43 -1.65,5.28 -2.47,8.94 -2.47,10.98 0,0.62 0.1,1.22 0.3,1.79 0.2,0.57 0.48,1.04 0.85,1.4 0.37,0.37 0.75,0.55 1.15,0.55 0.11,0.06 0.17,0.09 0.17,0.09 1.02,0 1.67,-0.71 1.96,-2.13 1.19,-5.62 5.48,-18.11 12.85,-37.46 1.53,2.78 3.04,7.97 4.51,15.58 0.28,1.48 0.51,2.6 0.68,3.36 0.17,0.77 0.41,1.82 0.72,3.15 0.31,1.33 0.6,2.36 0.85,3.06 0.26,0.71 0.58,1.58 0.98,2.6 0.4,1.02 0.81,1.8 1.23,2.34 0.43,0.54 0.91,1.08 1.45,1.62 0.54,0.54 1.15,0.92 1.83,1.15 0.68,0.23 1.42,0.34 2.21,0.34 1.99,0 4.57,-1.99 7.75,-5.96 0.62,-0.74 1.25,-1.56 1.87,-2.47 0.06,-0.06 0.08,-0.08 0.08,-0.08l0 -0.09c1.7,-2.27 4.06,-5.79 7.07,-10.56l0.37 -0.57c-0.41,1.34 -0.75,2.66 -1.01,3.95 -0.28,1.51 -0.45,3.01 -0.45,4.47 0,9.21 5.97,16.58 16.86,16.58 0.73,0 1.45,-0.06 2.23,-0.11 12.06,-1.06 23.95,-10.94 31.82,-24.79 4.3,-1.73 6.7,-3.57 11.67,-6.7l-0.5 -0.78c-4.24,2.62 -6.7,4.08 -10.38,5.64 4.41,-10.33 6.36,-19.65 6.36,-27.41 0,-15.24 -7.43,-24.62 -18.42,-24.62 -0.95,0 -1.95,0.06 -2.96,0.22 -8.95,1.28 -15.56,6.46 -20.65,13.74 -0.97,1.39 -3.03,4.85 -3.69,6.25zm-10.55 37.8c-0.28,1.45 -0.45,2.9 -0.45,4.3 0,8.04 4.97,14.13 14.46,14.13 0.84,0 1.73,-0.06 2.62,-0.17 9.99,-1 18.26,-11.17 24.01,-19.32 -3.63,0.89 -7.03,1.34 -10.16,1.34 -11.84,0 -19.99,-6.31 -22.44,-18.98 -3,4.7 -7,13.27 -8.04,18.7zm14.29 -41.76c6.76,-10.39 13.96,-13.85 20.38,-14.52 0.56,-0.06 1.12,-0.11 1.67,-0.11 9.16,0 14.85,7.98 14.85,20.55 0,9.1 -2.96,20.66 -9.83,33.33 -3.57,1 -7.09,1.56 -10.38,1.56 -11.06,0 -19.99,-5.86 -21.89,-19.37 6.03,-8.93 11.78,-15.02 21.66,-19.76 0.45,0 0.84,0.06 1.23,0.06 2.29,0 4.13,-0.39 4.91,-0.67 0.95,-0.33 1.4,-1.06 1.4,-1.84 0,-0.84 -0.56,-1.67 -1.51,-1.9 -0.22,-0.06 -0.45,-0.11 -0.73,-0.11 -1.9,0 -4.75,1.79 -5.86,2.34 -1.68,0.17 -3.74,0.22 -6.2,0.22 -3.29,0 -6.53,0.06 -9.71,0.22zm9.71 1.12c1.23,0 2.34,0 3.41,-0.06 -7.31,4.35 -13.62,11.39 -18.54,18.37 -0.06,-0.67 -0.06,-1.28 -0.06,-1.95 0,-4.35 0.95,-8.82 2.9,-12.95 0.51,-1.07 1.06,-2.11 1.67,-3.13 3.46,-0.22 7.03,-0.28 10.61,-0.28z"/>
   <path class="fil1" d="M51.36 107.97l0 -0.09c0.02,-0.71 0.03,-1.23 0.03,-1.58 0,-0.2 -0,-0.41 -0.01,-0.64 -0,-0.23 -0.01,-0.55 -0.02,-0.95l0.41 -0.01c0.03,0.99 0.29,1.77 0.8,2.35 0.5,0.57 1.18,0.86 2.02,0.86 0.64,0 1.15,-0.17 1.53,-0.51 0.38,-0.34 0.57,-0.8 0.57,-1.38 0,-0.33 -0.05,-0.61 -0.13,-0.83 -0.09,-0.22 -0.23,-0.41 -0.41,-0.55 -0.33,-0.26 -0.89,-0.55 -1.69,-0.85 -0.12,-0.04 -0.2,-0.07 -0.26,-0.1 -0.07,-0.03 -0.17,-0.06 -0.3,-0.11 -0.85,-0.32 -1.46,-0.66 -1.84,-1.01 -0.23,-0.22 -0.41,-0.47 -0.53,-0.77 -0.12,-0.3 -0.17,-0.64 -0.17,-1.02 0,-0.89 0.29,-1.61 0.86,-2.16 0.57,-0.54 1.33,-0.82 2.28,-0.82 0.51,0 0.99,0.07 1.43,0.21 0.44,0.14 0.86,0.36 1.26,0.65l0.12 -0.53 0.31 0c-0.01,0.22 -0.02,0.45 -0.03,0.68 -0,0.23 -0.01,0.47 -0.01,0.72 0,0.24 0,0.48 0.01,0.72 0.01,0.24 0.02,0.48 0.03,0.74l-0.34 0c-0.09,-0.9 -0.36,-1.57 -0.8,-2.02 -0.44,-0.45 -1.05,-0.67 -1.83,-0.67 -0.62,0 -1.13,0.18 -1.5,0.54 -0.38,0.36 -0.56,0.83 -0.56,1.41 0,0.45 0.13,0.82 0.38,1.13 0.25,0.3 0.66,0.57 1.22,0.79 0.27,0.1 0.62,0.24 1.07,0.41 0.67,0.25 1.08,0.43 1.26,0.54 0.55,0.34 0.94,0.7 1.16,1.06 0.23,0.36 0.34,0.8 0.34,1.31 0,0.85 -0.32,1.55 -0.96,2.09 -0.63,0.54 -1.46,0.81 -2.48,0.81 -0.55,0 -1.04,-0.08 -1.48,-0.25 -0.44,-0.17 -0.86,-0.43 -1.26,-0.79l-0.15 0.65 -0.33 0zm10.01 -5.92l-0.1 3.81 0 0.32c0,0.56 0.07,0.95 0.2,1.15 0.13,0.2 0.37,0.3 0.71,0.3 0.23,0 0.43,-0.06 0.59,-0.18 0.16,-0.12 0.3,-0.3 0.41,-0.56l0.29 0.12c-0.13,0.43 -0.36,0.77 -0.68,1.01 -0.32,0.24 -0.71,0.36 -1.16,0.36 -0.53,0 -0.92,-0.14 -1.15,-0.43 -0.24,-0.28 -0.35,-0.76 -0.35,-1.43l0 -0.2 0.11 -4.27 -0.76 0 0 -0.3c0.44,-0.21 0.79,-0.49 1.04,-0.86 0.25,-0.37 0.41,-0.81 0.48,-1.32l0.43 0 -0.06 2.1 1.74 0 0 0.39 -1.74 0zm3.75 0.73c0,-0.37 -0.06,-0.61 -0.19,-0.72 -0.12,-0.1 -0.41,-0.16 -0.85,-0.17l0 -0.42c0.36,-0.01 0.71,-0.05 1.07,-0.09 0.36,-0.05 0.72,-0.11 1.08,-0.18l0 4.78c0,0.64 0.11,1.1 0.35,1.36 0.23,0.26 0.62,0.39 1.18,0.39 0.55,0 1.02,-0.13 1.41,-0.39 0.39,-0.26 0.6,-0.59 0.64,-0.98l0 -3.59c0,-0.37 -0.06,-0.61 -0.19,-0.72 -0.12,-0.1 -0.41,-0.16 -0.85,-0.16l0 -0.42c0.36,-0.01 0.72,-0.05 1.08,-0.09 0.36,-0.05 0.73,-0.11 1.09,-0.18l0 5.66c0,0.44 0.05,0.71 0.15,0.79 0.1,0.09 0.33,0.15 0.7,0.18l-0.01 0.4c-0.17,-0.01 -0.33,-0.02 -0.5,-0.03 -0.16,-0.01 -0.33,-0.01 -0.49,-0.01 -0.17,0 -0.32,0 -0.48,0.01 -0.16,0.01 -0.31,0.02 -0.46,0.03l-0 -1.01c-0.29,0.39 -0.65,0.68 -1.08,0.86 -0.42,0.19 -0.92,0.28 -1.5,0.28 -0.78,0 -1.33,-0.19 -1.66,-0.58 -0.33,-0.39 -0.5,-1.05 -0.5,-1.99l0 -3.03zm12.8 4.16l0 -4.34c-0.22,-0.3 -0.46,-0.52 -0.72,-0.67 -0.26,-0.15 -0.55,-0.22 -0.87,-0.22 -0.65,0 -1.15,0.27 -1.5,0.82 -0.35,0.55 -0.52,1.34 -0.52,2.37 0,0.98 0.16,1.72 0.48,2.21 0.32,0.49 0.81,0.74 1.45,0.74 0.34,0 0.64,-0.07 0.91,-0.22 0.27,-0.15 0.52,-0.38 0.76,-0.69zm0.01 -7.86c0,-0.38 -0.06,-0.62 -0.19,-0.73 -0.13,-0.1 -0.46,-0.15 -1,-0.15l0.01 -0.4c0.4,-0.02 0.79,-0.05 1.17,-0.09 0.38,-0.04 0.76,-0.08 1.14,-0.14l0 9.29c0,0.37 0.06,0.61 0.17,0.71 0.11,0.1 0.36,0.16 0.74,0.17l0 0.4c-0.46,0.05 -0.84,0.09 -1.14,0.12 -0.3,0.04 -0.59,0.07 -0.85,0.11l-0.01 -0.88c-0.3,0.29 -0.64,0.51 -1,0.66 -0.36,0.15 -0.75,0.22 -1.16,0.22 -0.86,0 -1.53,-0.3 -2.02,-0.9 -0.49,-0.6 -0.74,-1.42 -0.74,-2.48 0,-1.14 0.28,-2.05 0.83,-2.72 0.56,-0.67 1.3,-1.01 2.23,-1.01 0.34,0 0.66,0.06 0.96,0.17 0.3,0.11 0.59,0.3 0.87,0.55l0 -2.9zm5.23 0.19c0,0.19 -0.09,0.37 -0.26,0.54 -0.17,0.17 -0.37,0.25 -0.58,0.25 -0.19,0 -0.33,-0.06 -0.44,-0.17 -0.11,-0.11 -0.16,-0.26 -0.16,-0.45 0,-0.19 0.09,-0.36 0.26,-0.53 0.17,-0.17 0.36,-0.25 0.56,-0.25 0.2,0 0.35,0.05 0.46,0.16 0.11,0.11 0.17,0.25 0.17,0.45zm-0.09 7.61c0,0.45 0.06,0.73 0.19,0.82 0.13,0.09 0.46,0.14 1,0.15l0 0.4c-0.33,-0.02 -0.65,-0.04 -0.96,-0.05 -0.3,-0.01 -0.6,-0.02 -0.89,-0.02 -0.29,0 -0.58,0 -0.9,0.02 -0.31,0.01 -0.64,0.03 -1,0.05l-0.01 -0.4c0.68,-0.03 1.09,-0.1 1.22,-0.19 0.13,-0.09 0.19,-0.35 0.19,-0.78l0 -4.1c0,-0.38 -0.06,-0.63 -0.19,-0.73 -0.13,-0.1 -0.45,-0.15 -0.96,-0.15l-0.26 0 0 -0.4c0.44,-0.02 0.86,-0.05 1.29,-0.08 0.42,-0.04 0.84,-0.09 1.26,-0.15l0.01 5.61zm5.15 -5.22c-0.58,0 -1.04,0.29 -1.36,0.87 -0.32,0.58 -0.49,1.4 -0.49,2.44 0,0.96 0.16,1.7 0.48,2.23 0.32,0.53 0.76,0.8 1.32,0.8 0.57,0 1.03,-0.28 1.36,-0.85 0.33,-0.56 0.5,-1.34 0.5,-2.32 0,-1.01 -0.16,-1.79 -0.48,-2.35 -0.32,-0.55 -0.76,-0.83 -1.34,-0.83zm-3.11 3.29c0,-1.12 0.29,-2.01 0.88,-2.68 0.59,-0.67 1.36,-1 2.34,-1 0.9,0 1.62,0.31 2.16,0.93 0.54,0.62 0.81,1.46 0.81,2.51 0,1.11 -0.29,2 -0.89,2.67 -0.59,0.66 -1.37,1 -2.35,1 -0.91,0 -1.63,-0.31 -2.16,-0.93 -0.53,-0.62 -0.8,-1.45 -0.8,-2.51zm14.2 2.84l1.04 0c1.05,0 1.78,-0.17 2.19,-0.52 0.41,-0.34 0.62,-0.94 0.62,-1.78 0,-0.82 -0.23,-1.4 -0.67,-1.76 -0.45,-0.35 -1.2,-0.53 -2.24,-0.53l-0.93 0 0 4.58zm0 -5.04l1.28 0c0.8,0 1.38,-0.17 1.75,-0.52 0.37,-0.34 0.55,-0.89 0.55,-1.64 0,-0.8 -0.18,-1.37 -0.53,-1.69 -0.35,-0.32 -1.01,-0.49 -1.95,-0.49l-1.09 0 0 4.34zm-2.48 5.5l0 -0.46 0.1 0c0.44,0 0.73,-0.06 0.87,-0.2 0.13,-0.13 0.2,-0.46 0.2,-0.97l0 -7.05c0,-0.52 -0.06,-0.85 -0.2,-0.97 -0.13,-0.13 -0.42,-0.19 -0.87,-0.19l-0.1 0 0 -0.47 3.84 0c1.19,0 2.07,0.21 2.64,0.63 0.57,0.42 0.86,1.07 0.86,1.94 0,0.67 -0.2,1.21 -0.59,1.62 -0.39,0.41 -0.97,0.7 -1.74,0.85 0.93,0.18 1.62,0.48 2.07,0.9 0.45,0.41 0.67,0.96 0.67,1.65 0,0.49 -0.09,0.92 -0.28,1.29 -0.18,0.37 -0.46,0.68 -0.83,0.92 -0.28,0.19 -0.65,0.32 -1.11,0.4 -0.45,0.08 -1.15,0.12 -2.1,0.12l-3.45 0zm10.54 -4.1l3.63 -0.14 0 -0.12c0,-0.75 -0.14,-1.31 -0.41,-1.7 -0.28,-0.39 -0.68,-0.58 -1.21,-0.58 -0.61,0 -1.09,0.22 -1.44,0.66 -0.34,0.44 -0.54,1.07 -0.57,1.88zm0 0.39l0 0.32c0,0.94 0.19,1.65 0.57,2.13 0.38,0.48 0.94,0.72 1.69,0.72 0.51,0 0.95,-0.13 1.33,-0.39 0.37,-0.26 0.65,-0.63 0.84,-1.11l0.3 0.12c-0.2,0.68 -0.55,1.19 -1.06,1.56 -0.5,0.36 -1.13,0.54 -1.89,0.54 -0.96,0 -1.71,-0.31 -2.25,-0.92 -0.54,-0.62 -0.81,-1.47 -0.81,-2.57 0,-1.13 0.29,-2.03 0.88,-2.7 0.58,-0.67 1.37,-1 2.36,-1 0.87,0 1.55,0.26 2.04,0.77 0.49,0.51 0.73,1.23 0.73,2.14 0,0.03 -0,0.07 -0.01,0.14 -0,0.06 -0.01,0.11 -0.01,0.15l-4.71 0.12zm9.81 0.32c-1.25,0.26 -2.03,0.5 -2.35,0.73 -0.32,0.23 -0.48,0.56 -0.48,1.01 0,0.36 0.1,0.64 0.29,0.85 0.2,0.21 0.46,0.32 0.79,0.32 0.33,0 0.64,-0.09 0.92,-0.27 0.28,-0.18 0.54,-0.46 0.79,-0.84l0.04 -1.8zm-0.06 2.43c-0.37,0.38 -0.74,0.66 -1.1,0.84 -0.37,0.18 -0.75,0.27 -1.15,0.27 -0.5,0 -0.9,-0.14 -1.18,-0.41 -0.28,-0.28 -0.42,-0.66 -0.42,-1.16 0,-0.45 0.11,-0.82 0.34,-1.1 0.23,-0.28 0.59,-0.5 1.09,-0.65 0.23,-0.07 0.78,-0.21 1.63,-0.41 0.37,-0.09 0.67,-0.16 0.88,-0.21l0.01 -0.7 0 -0.23c0,-0.68 -0.09,-1.16 -0.27,-1.43 -0.18,-0.27 -0.49,-0.4 -0.93,-0.4 -0.28,0 -0.53,0.04 -0.75,0.11 -0.22,0.08 -0.44,0.2 -0.63,0.36 0,0.04 0.01,0.09 0.02,0.16 0.02,0.22 0.04,0.37 0.04,0.45 0,0.26 -0.06,0.46 -0.18,0.62 -0.12,0.16 -0.28,0.24 -0.47,0.24 -0.12,0 -0.23,-0.05 -0.3,-0.14 -0.07,-0.1 -0.11,-0.22 -0.11,-0.39 0,-0.46 0.25,-0.88 0.75,-1.26 0.5,-0.38 1.08,-0.57 1.74,-0.57 0.78,0 1.35,0.18 1.7,0.55 0.35,0.37 0.53,0.96 0.53,1.78l0 0.18 -0.06 2.29c0,0.08 -0,0.18 -0.01,0.31 -0,0.13 -0.01,0.22 -0.01,0.28 0,0.39 0.04,0.65 0.13,0.78 0.09,0.13 0.25,0.2 0.47,0.2 0.15,0 0.28,-0.03 0.39,-0.1 0.11,-0.07 0.2,-0.17 0.28,-0.31l0.24 0.14c-0.16,0.34 -0.37,0.6 -0.62,0.77 -0.25,0.17 -0.54,0.25 -0.88,0.25 -0.34,0 -0.61,-0.09 -0.82,-0.28 -0.2,-0.19 -0.32,-0.46 -0.35,-0.81zm4.18 -4.5c0,-0.37 -0.06,-0.61 -0.19,-0.72 -0.12,-0.1 -0.41,-0.16 -0.85,-0.17l0 -0.42c0.36,-0.01 0.71,-0.05 1.07,-0.09 0.36,-0.05 0.72,-0.11 1.08,-0.18l0 4.78c0,0.64 0.11,1.1 0.35,1.36 0.23,0.26 0.62,0.39 1.18,0.39 0.55,0 1.02,-0.13 1.41,-0.39 0.39,-0.26 0.6,-0.59 0.64,-0.98l0 -3.59c0,-0.37 -0.06,-0.61 -0.19,-0.72 -0.12,-0.1 -0.41,-0.16 -0.85,-0.16l0 -0.42c0.36,-0.01 0.72,-0.05 1.08,-0.09 0.36,-0.05 0.73,-0.11 1.09,-0.18l0 5.66c0,0.44 0.05,0.71 0.15,0.79 0.1,0.09 0.33,0.15 0.7,0.18l-0.01 0.4c-0.17,-0.01 -0.33,-0.02 -0.5,-0.03 -0.16,-0.01 -0.33,-0.01 -0.49,-0.01 -0.17,0 -0.32,0 -0.48,0.01 -0.16,0.01 -0.31,0.02 -0.46,0.03l-0 -1.01c-0.29,0.39 -0.65,0.68 -1.08,0.86 -0.42,0.19 -0.92,0.28 -1.5,0.28 -0.78,0 -1.33,-0.19 -1.66,-0.58 -0.33,-0.39 -0.5,-1.05 -0.5,-1.99l0 -3.03zm9.7 -0.73l-0.1 3.81 0 0.32c0,0.56 0.07,0.95 0.2,1.15 0.13,0.2 0.37,0.3 0.71,0.3 0.23,0 0.43,-0.06 0.59,-0.18 0.16,-0.12 0.3,-0.3 0.41,-0.56l0.29 0.12c-0.13,0.43 -0.36,0.77 -0.68,1.01 -0.32,0.24 -0.71,0.36 -1.16,0.36 -0.53,0 -0.92,-0.14 -1.15,-0.43 -0.24,-0.28 -0.35,-0.76 -0.35,-1.43l0 -0.2 0.11 -4.27 -0.76 0 0 -0.3c0.44,-0.21 0.79,-0.49 1.04,-0.86 0.25,-0.37 0.41,-0.81 0.48,-1.32l0.43 0 -0.06 2.1 1.74 0 0 0.39 -1.74 0zm5.51 6.05l-2.18 -5.3 -0.01 -0.04c-0.24,-0.57 -0.6,-0.9 -1.08,-0.97l0 -0.4c0.22,0.02 0.45,0.03 0.69,0.04 0.23,0.01 0.49,0.01 0.76,0.01 0.28,0 0.54,-0 0.78,-0.01 0.24,-0.01 0.47,-0.02 0.69,-0.04l0 0.4 -0.07 0c-0.22,0 -0.39,0.03 -0.51,0.09 -0.13,0.06 -0.19,0.14 -0.19,0.25 0,0.15 0.04,0.34 0.13,0.57 0.02,0.04 0.03,0.07 0.04,0.09l1.49 3.82c0.11,-0.31 0.26,-0.73 0.45,-1.27 0.63,-1.8 0.95,-2.82 0.95,-3.06 0,-0.15 -0.07,-0.27 -0.22,-0.35 -0.15,-0.08 -0.39,-0.12 -0.71,-0.14l0 -0.4c0.18,0.02 0.36,0.03 0.55,0.04 0.19,0.01 0.39,0.01 0.61,0.01 0.22,0 0.42,-0 0.6,-0.01 0.18,-0.01 0.36,-0.02 0.53,-0.04l0 0.4c-0.23,0 -0.41,0.06 -0.55,0.18 -0.13,0.12 -0.25,0.32 -0.36,0.61l-2.21 6.29c-0.35,1.01 -0.68,1.69 -0.97,2.04 -0.29,0.35 -0.66,0.52 -1.1,0.52 -0.23,0 -0.41,-0.05 -0.55,-0.16 -0.14,-0.11 -0.21,-0.24 -0.21,-0.4 0,-0.17 0.05,-0.3 0.15,-0.4 0.1,-0.1 0.24,-0.15 0.41,-0.15 0.15,0 0.3,0.04 0.45,0.11 0.15,0.07 0.3,0.18 0.44,0.33 0.18,-0.12 0.38,-0.4 0.58,-0.85 0.2,-0.45 0.41,-1.05 0.63,-1.82zm10.69 -0.32l1.04 0c1.05,0 1.78,-0.17 2.19,-0.52 0.41,-0.34 0.62,-0.94 0.62,-1.78 0,-0.82 -0.22,-1.4 -0.67,-1.76 -0.45,-0.35 -1.2,-0.53 -2.24,-0.53l-0.93 0 0 4.58zm0 -5.04l1.28 0c0.8,0 1.38,-0.17 1.75,-0.52 0.37,-0.34 0.55,-0.89 0.55,-1.64 0,-0.8 -0.18,-1.37 -0.53,-1.69 -0.35,-0.32 -1.01,-0.49 -1.95,-0.49l-1.09 0 0 4.34zm-2.49 5.5l0 -0.46 0.1 0c0.44,0 0.73,-0.06 0.87,-0.2 0.13,-0.13 0.2,-0.46 0.2,-0.97l0 -7.05c0,-0.52 -0.06,-0.85 -0.2,-0.97 -0.13,-0.13 -0.42,-0.19 -0.87,-0.19l-0.1 0 0 -0.47 3.84 0c1.19,0 2.07,0.21 2.64,0.63 0.57,0.42 0.86,1.07 0.86,1.94 0,0.67 -0.2,1.21 -0.59,1.62 -0.39,0.41 -0.97,0.7 -1.74,0.85 0.93,0.18 1.62,0.48 2.07,0.9 0.45,0.41 0.67,0.96 0.67,1.65 0,0.49 -0.09,0.92 -0.28,1.29 -0.18,0.37 -0.46,0.68 -0.83,0.92 -0.28,0.19 -0.65,0.32 -1.11,0.4 -0.45,0.08 -1.15,0.12 -2.1,0.12l-3.45 0zm11.81 -0.14l-2.18 -5.3 -0.01 -0.04c-0.24,-0.57 -0.6,-0.9 -1.08,-0.97l0 -0.4c0.22,0.02 0.45,0.03 0.69,0.04 0.23,0.01 0.49,0.01 0.76,0.01 0.28,0 0.54,-0 0.78,-0.01 0.24,-0.01 0.47,-0.02 0.69,-0.04l0 0.4 -0.07 0c-0.22,0 -0.39,0.03 -0.51,0.09 -0.13,0.06 -0.19,0.14 -0.19,0.25 0,0.15 0.04,0.34 0.13,0.57 0.02,0.04 0.03,0.07 0.04,0.09l1.49 3.82c0.11,-0.31 0.26,-0.73 0.45,-1.27 0.63,-1.8 0.95,-2.82 0.95,-3.06 0,-0.15 -0.07,-0.27 -0.22,-0.35 -0.15,-0.08 -0.39,-0.12 -0.71,-0.14l0 -0.4c0.18,0.02 0.36,0.03 0.55,0.04 0.19,0.01 0.39,0.01 0.61,0.01 0.22,0 0.42,-0 0.6,-0.01 0.18,-0.01 0.36,-0.02 0.53,-0.04l0 0.4c-0.23,0 -0.41,0.06 -0.55,0.18 -0.13,0.12 -0.25,0.32 -0.36,0.61l-2.21 6.29c-0.35,1.01 -0.67,1.69 -0.97,2.04 -0.29,0.35 -0.66,0.52 -1.1,0.52 -0.23,0 -0.41,-0.05 -0.55,-0.16 -0.14,-0.11 -0.21,-0.24 -0.21,-0.4 0,-0.17 0.05,-0.3 0.15,-0.4 0.1,-0.1 0.24,-0.15 0.41,-0.15 0.15,0 0.3,0.04 0.45,0.11 0.15,0.07 0.3,0.18 0.44,0.33 0.18,-0.12 0.38,-0.4 0.58,-0.85 0.2,-0.45 0.41,-1.05 0.63,-1.82z"/>
   <path class="fil2" d="M119.53 26.82c-2.01,4.24 -3.01,8.88 -3.01,13.4 0,1.28 0.06,2.51 0.22,3.74 -3.41,5.11 -6.67,10.72 -10.07,15.98 -3.75,5.85 -6.58,10.02 -8.51,12.51l-0.08 0.08c-2.27,2.84 -3.92,4.26 -4.94,4.26 -0.62,0 -1.18,-0.18 -1.66,-0.55 -0.48,-0.37 -0.94,-0.99 -1.36,-1.87 -0.43,-0.88 -0.79,-1.7 -1.11,-2.47 -0.31,-0.77 -0.64,-1.89 -0.98,-3.36 -0.34,-1.48 -0.6,-2.67 -0.77,-3.58 -0.17,-0.91 -0.43,-2.21 -0.77,-3.92 -0.45,-2.55 -0.82,-4.5 -1.11,-5.83 -0.28,-1.33 -0.7,-2.97 -1.23,-4.9 -0.54,-1.93 -1.14,-3.55 -1.79,-4.85 -0.65,-1.31 -1.4,-2.38 -2.26,-3.23 1.65,-0.62 3.38,-1.53 5.19,-2.72 1.82,-1.19 3.77,-2.77 5.87,-4.72 2.1,-1.96 3.83,-3.62 5.19,-4.98 1.36,-1.36 3.26,-3.35 5.7,-5.96 2.38,-2.55 4.2,-4.47 5.45,-5.75 1.25,-1.28 2.81,-2.75 4.68,-4.43 1.87,-1.67 3.49,-2.88 4.85,-3.62 1.36,-0.74 2.58,-1.11 3.66,-1.11 0.28,0 0.51,-0.09 0.68,-0.26 0.17,-0.17 0.26,-0.4 0.26,-0.68 0,-0.28 -0.08,-0.53 -0.26,-0.72 -0.17,-0.2 -0.4,-0.3 -0.68,-0.3 -1.31,0 -2.7,0.37 -4.17,1.11 -1.48,0.74 -3.19,1.97 -5.15,3.7 -1.96,1.73 -3.59,3.26 -4.9,4.6 -1.31,1.33 -3.23,3.36 -5.79,6.09 -2.33,2.44 -4.14,4.31 -5.45,5.62 -1.31,1.31 -2.98,2.92 -5.02,4.85 -2.04,1.93 -3.93,3.49 -5.66,4.68 -1.73,1.19 -3.39,2.1 -4.98,2.72 4.09,-10.67 7.11,-18.86 9.07,-24.56 1.96,-5.7 2.94,-9.58 2.94,-11.62 0,-0.85 -0.18,-1.59 -0.55,-2.21 -0.37,-0.62 -0.89,-1.11 -1.57,-1.45 -0.68,-0.34 -1.48,-0.51 -2.38,-0.51 -1.65,0 -4.17,0.88 -7.58,2.64 -0.06,0 -0.08,0.03 -0.08,0.08 -2.1,1.08 -5.7,3.18 -10.81,6.3 -2.38,1.48 -4.21,2.6 -5.49,3.36 -1.28,0.77 -2.88,1.67 -4.81,2.72 -1.93,1.05 -3.55,1.83 -4.85,2.34 -1.31,0.51 -2.38,0.77 -3.23,0.77 -1.87,0 -3.42,-0.47 -4.64,-1.4 -1.22,-0.94 -1.94,-2.17 -2.17,-3.7 -0.11,-0.62 -0.48,-0.89 -1.11,-0.81 -0.62,0.08 -0.91,0.44 -0.85,1.06 0.17,1.36 0.65,2.55 1.45,3.58 0.79,1.02 1.83,1.8 3.11,2.34 1.28,0.54 2.68,0.81 4.21,0.81 0.96,0 2.11,-0.23 3.45,-0.68 1.33,-0.45 2.99,-1.22 4.98,-2.3 1.99,-1.08 3.66,-2.01 5.02,-2.81 1.36,-0.79 3.35,-1.99 5.96,-3.58 4.94,-3.07 8.48,-5.16 10.64,-6.3l0.08 0 0.09 -0.09c1.87,-0.91 3.41,-1.36 4.6,-1.36 0.4,0 0.68,0.07 0.85,0.21 0.17,0.14 0.26,0.5 0.26,1.06 0,0.68 -0.14,1.62 -0.43,2.81 -0.28,1.19 -0.75,2.75 -1.4,4.68 -0.65,1.93 -1.26,3.73 -1.83,5.41 -0.57,1.67 -1.4,3.93 -2.51,6.77 -1.11,2.84 -1.99,5.12 -2.64,6.85 -0.65,1.73 -1.6,4.24 -2.85,7.53 -3.23,8.29 -5.68,14.6 -7.32,18.94 -1.65,4.34 -3.29,9.15 -4.94,14.43 -1.65,5.28 -2.47,8.94 -2.47,10.98 0,0.62 0.1,1.22 0.3,1.79 0.2,0.57 0.48,1.04 0.85,1.4 0.37,0.37 0.75,0.55 1.15,0.55 0.11,0.06 0.17,0.08 0.17,0.08 1.02,0 1.67,-0.71 1.96,-2.13 1.19,-5.62 5.48,-18.11 12.85,-37.46 1.53,2.78 3.04,7.97 4.51,15.58 0.28,1.48 0.51,2.6 0.68,3.36 0.17,0.77 0.41,1.82 0.72,3.15 0.31,1.33 0.6,2.36 0.85,3.07 0.26,0.71 0.58,1.57 0.98,2.6 0.4,1.02 0.81,1.8 1.23,2.34 0.43,0.54 0.91,1.08 1.45,1.62 0.54,0.54 1.15,0.92 1.83,1.15 0.68,0.23 1.42,0.34 2.21,0.34 1.99,0 4.57,-1.99 7.75,-5.96 0.62,-0.74 1.25,-1.56 1.87,-2.47 0.06,-0.06 0.08,-0.09 0.08,-0.09l0 -0.08c1.7,-2.27 4.06,-5.79 7.07,-10.56l0.37 -0.57c-0.41,1.34 -0.75,2.66 -1.01,3.95 -0.28,1.51 -0.45,3.01 -0.45,4.47 0,9.21 5.97,16.58 16.86,16.58 0.73,0 1.45,-0.06 2.23,-0.11 12.06,-1.06 23.95,-10.94 31.82,-24.79 4.3,-1.73 6.7,-3.57 11.67,-6.7l-0.5 -0.78c-4.24,2.62 -6.7,4.08 -10.38,5.64 4.41,-10.33 6.36,-19.65 6.36,-27.41 0,-15.24 -7.43,-24.62 -18.42,-24.62 -0.95,0 -1.95,0.06 -2.96,0.22 -8.95,1.28 -15.56,6.46 -20.65,13.74 -0.97,1.39 -3.03,4.85 -3.69,6.25zm-10.55 37.8c-0.28,1.45 -0.45,2.9 -0.45,4.3 0,8.04 4.97,14.13 14.46,14.13 0.84,0 1.73,-0.06 2.62,-0.17 9.99,-1 18.26,-11.17 24.01,-19.32 -3.63,0.89 -7.03,1.34 -10.16,1.34 -11.84,0 -19.99,-6.31 -22.44,-18.98 -3,4.7 -7,13.27 -8.04,18.7zm14.29 -41.76c6.76,-10.38 13.96,-13.85 20.38,-14.52 0.56,-0.06 1.12,-0.11 1.67,-0.11 9.16,0 14.85,7.98 14.85,20.55 0,9.1 -2.96,20.66 -9.83,33.33 -3.57,1 -7.09,1.56 -10.38,1.56 -11.06,0 -19.99,-5.86 -21.89,-19.37 6.03,-8.93 11.78,-15.02 21.66,-19.76 0.45,0 0.84,0.06 1.23,0.06 2.29,0 4.13,-0.39 4.91,-0.67 0.95,-0.33 1.4,-1.06 1.4,-1.84 0,-0.84 -0.56,-1.67 -1.51,-1.9 -0.22,-0.06 -0.45,-0.11 -0.73,-0.11 -1.9,0 -4.75,1.79 -5.86,2.34 -1.68,0.17 -3.74,0.22 -6.2,0.22 -3.29,0 -6.53,0.06 -9.71,0.22zm9.71 1.12c1.23,0 2.34,0 3.41,-0.06 -7.31,4.35 -13.62,11.39 -18.54,18.37 -0.06,-0.67 -0.06,-1.28 -0.06,-1.95 0,-4.35 0.95,-8.82 2.9,-12.95 0.51,-1.07 1.06,-2.11 1.67,-3.13 3.46,-0.22 7.03,-0.28 10.61,-0.28z"/>
   <path class="fil3" d="M43.15 121.55c0.06,-0.14 0.06,-0.28 0.06,-0.39 0,-0.5 -0.25,-0.84 -0.87,-0.84 -0.78,0 -2.07,0.53 -4.03,1.96 -0.06,0.03 -6.29,4.72 -12.36,9.64 1.73,-4.11 3.02,-7.74 3.49,-10.34 0.25,-0.92 0.36,-1.73 0.36,-2.49 0,-4.14 -3.44,-5.81 -7.99,-5.81 -6.96,0 -16.55,3.97 -20.38,9.14 -0.61,0.95 -0.87,1.79 -0.87,2.57 0,4.36 8.64,5.81 8.64,5.84l0.11 -0.14c0,-0.03 -8.22,-1.62 -8.22,-5.73 0,-0.7 0.25,-1.48 0.78,-2.32 2.32,-3.55 12.52,-8.3 19.32,-8.3 3.58,0 6.23,1.34 6.23,4.86 0,0.7 -0.11,1.45 -0.34,2.32 -0.92,3.55 -2.68,8.39 -4.78,13.42 -2.94,2.52 -5.51,4.84 -6.79,6.4 -0.34,0.42 -0.73,1.2 -0.73,1.87 0,0.45 0.17,0.84 0.56,1.12 0.22,0.11 0.53,0.14 0.95,0.14 0.53,0 1.17,-0.06 1.96,-0.17 -1.73,3.86 -3.47,7.44 -4.86,10.23 -0.08,0.22 -0.14,0.39 -0.14,0.53 0,0.31 0.2,0.48 0.45,0.48 0.31,0 0.67,-0.22 0.89,-0.67 1.87,-3.35 3.86,-7.13 5.76,-10.96 6.6,-1.31 17,-4.56 17.05,-4.56l-0.47 -0.45c-0.06,0.03 -10.01,2.68 -15.88,3.63 1.2,-2.43 2.35,-4.84 3.38,-7.18 7.04,-5.81 16.69,-13.14 18.7,-13.81zm-22.28 16.88c-0.64,1.45 -1.29,2.94 -1.93,4.36 -0.31,0.03 -0.61,0.06 -0.87,0.06 -0.67,0 -1.12,-0.11 -1.2,-0.34l0 -0.03c0,-0.39 1.62,-1.96 4,-4.05zm24.21 -0.31c0.28,-0.22 0.39,-0.5 0.39,-0.81 0,-0.64 -0.5,-1.4 -1.37,-1.79 -0.36,-0.17 -0.87,-0.25 -1.4,-0.25 -1.34,0 -3.07,0.53 -4.53,1.79 -1.59,1.37 -2.85,3.07 -2.85,4.56 0,0.42 0.11,0.84 0.31,1.2 0.36,0.59 1.01,0.81 1.73,0.81 1.34,0 3.05,-0.73 3.86,-1.23 0.89,-0.5 1.59,-1.01 2.07,-1.01 0.22,0 0.39,0.11 0.5,0.36 0.25,0.56 0.64,0.98 1.51,0.98 0.42,0 0.95,-0.08 1.59,-0.34 2.07,-0.75 4.81,-3.52 4.86,-3.69l0.03 -0.06c0,-0.06 -0.03,-0.06 -0.08,-0.06 -0.03,0 -0.11,0.03 -0.11,0.03 0,0 -2.15,1.9 -3.91,2.6 -0.75,0.31 -1.31,0.45 -1.71,0.45 -0.5,0 -0.75,-0.25 -0.95,-0.73 -0.2,-0.67 -0.34,-1.12 -0.95,-1.12 -0.22,0 -0.5,0.06 -0.87,0.17 -1.26,0.45 -3.52,1.84 -4.14,1.84 -0.06,0 -0.11,0 -0.14,-0.03 -0.06,-0.06 -0.11,-0.17 -0.11,-0.31 0,-0.5 0.67,-1.59 2.8,-2.8 1.23,-0.7 2.04,-0.87 2.57,-0.87 0.67,0 0.89,0.28 0.89,0.28zm7.63 -2.74c0,0 -0.25,0.39 -0.78,1.03 -0.42,0.53 -1.26,1.23 -1.26,2.04 0,0.17 0.03,0.34 0.08,0.5 0.45,0.95 2.24,0.47 2.24,1.23 0,0.06 -0.03,0.14 -0.06,0.22 -0.22,0.78 -0.78,1.84 -0.78,2.63 0,0.28 0.08,0.53 0.25,0.73 0.17,0.14 0.36,0.22 0.61,0.22 0.95,0 2.52,-0.95 4.03,-2.24 1.93,-1.62 2.88,-2.8 2.88,-2.8l0 -0.03c0,-0.03 0,-0.08 -0.06,-0.08 -0.06,0 -0.2,0.08 -0.48,0.34 -0.59,0.59 -2.99,2.4 -4.28,3.24 -0.45,0.31 -0.81,0.45 -1.06,0.45 -0.22,0 -0.34,-0.14 -0.34,-0.39 0,-0.22 0.08,-0.53 0.28,-0.95 0.31,-0.64 0.5,-1.26 0.5,-1.79 0,-0.61 -0.28,-1.09 -0.98,-1.31 -0.59,-0.2 -0.81,-0.34 -0.81,-0.5 0,-0.17 0.28,-0.39 0.59,-0.73 0.47,-0.5 0.89,-1.15 0.89,-1.59 0,-0.14 -0.06,-0.28 -0.14,-0.36 -0.17,-0.17 -0.42,-0.28 -0.64,-0.28 -0.31,0 -0.56,0.14 -0.7,0.42zm18.03 7.99c1.43,-3.49 8.36,-15.68 8.36,-18.73 0,-0.22 -0.03,-0.39 -0.11,-0.5 -0.22,-0.34 -0.56,-0.48 -0.92,-0.48 -1.68,0 -4.56,2.68 -7.02,5.28 -3.02,3.21 -7.07,8.27 -7.07,8.27l-0.17 -0.39c0,0 -0.48,-0.84 -1.51,-0.84 -0.08,0 -0.17,0.03 -0.25,0.03 -1.2,0.11 -2.88,1.4 -4.14,4.08 -0.42,0.92 -0.64,1.82 -0.64,2.6 0,1.4 0.67,2.38 1.93,2.38 0.17,0 0.36,0 0.59,-0.06 2.71,-0.61 4.36,-4.7 4.53,-6.01 0.2,-1.29 0.22,-1.54 0.87,-2.38 0.78,-1.01 9.22,-10.45 10.96,-11.01l0.03 0c0.03,0 0.03,0.03 0.03,0.08 0,1.2 -7.16,15.54 -8.39,18.84 -0.39,1.06 -0.56,1.96 -0.56,2.66 0,1.54 0.75,2.32 1.79,2.32 0.42,0 0.87,-0.11 1.34,-0.39 2.12,-1.23 6.88,-8.11 7.38,-8.86 0.42,-0.59 0.64,-0.98 0.64,-1.15 0,-0.03 0,-0.08 -0.06,-0.08l-0.06 0c-0.14,0 -0.34,0.22 -0.34,0.22 -2.35,3.41 -6.76,8.05 -7.74,8.75 -0.17,0.11 -0.34,0.2 -0.45,0.2 -0.2,0 -0.31,-0.2 -0.31,-0.56 0,-0.7 0.36,-2.1 1.29,-4.28zm-7.38 -5.95c0,0 -0.03,0.17 -0.03,0.34 0,0.08 0,0.17 0.03,0.22 0.03,0.08 0.11,0.28 0.11,0.59 0,0.48 -0.17,1.26 -0.78,2.4 -0.81,1.51 -2.01,3.13 -2.85,3.13 -0.2,0 -0.39,-0.08 -0.53,-0.34 -0.08,-0.17 -0.14,-0.36 -0.14,-0.56 0,-1.37 1.82,-3.61 2.66,-4.72 0.7,-0.95 1.2,-1.09 1.43,-1.09 0.08,0 0.11,0.03 0.11,0.03zm14.7 0.39c0,0 -1.03,1.96 -1.03,3.47 0,0.48 0.11,0.92 0.39,1.23 0.31,0.34 0.75,0.48 1.34,0.48 1.71,0 4.39,-1.37 6.68,-3.91l0 -0.03c0,-0.03 0,-0.08 -0.08,-0.08 -0.03,0 -0.11,0.03 -0.25,0.11 -0.42,0.22 -2.71,2.43 -4.64,2.8 -0.31,0.06 -0.56,0.08 -0.75,0.08 -0.73,0 -0.98,-0.28 -0.98,-0.75 0,-0.28 0.08,-0.61 0.22,-0.98 0.34,-1.03 0.89,-1.96 0.89,-2.35 0,-0.03 0,-0.08 -0.03,-0.11 -0.08,-0.17 -0.5,-0.34 -0.92,-0.34 -0.31,0 -0.64,0.11 -0.84,0.39zm1.84 -4.05c0,0 -0.67,0.61 -0.67,1.2 0,0.08 0,0.14 0.03,0.22 0.06,0.2 0.22,0.28 0.42,0.28 0.5,0 1.23,-0.48 1.51,-0.92 0.11,-0.17 0.17,-0.34 0.17,-0.48 0,-0.36 -0.31,-0.59 -0.67,-0.59l-0.08 0c-0.53,0.06 -0.7,0.28 -0.7,0.28zm6.18 1.79c0,0 -3.83,6.09 -3.83,8.58 0,0.2 0.03,0.36 0.08,0.5 0,0 0.56,1.03 1.29,1.03 0.2,0 0.39,-0.08 0.59,-0.25 1.01,-0.89 5.34,-6.07 6.4,-6.93 0.22,-0.2 0.36,-0.25 0.45,-0.25 0.06,0 0.08,0.03 0.08,0.11 0,0.36 -0.45,1.29 -0.87,2.07 -0.31,0.59 -0.56,1.29 -0.56,1.9 0,0.67 0.31,1.23 1.06,1.4 0.11,0.03 0.2,0.03 0.31,0.03 1.54,0 4.05,-1.82 6.79,-4.67 0,0 0,-0.17 -0.14,-0.17 -0.08,0 -0.25,0.08 -0.56,0.39 -0.7,0.7 -3.21,2.77 -4.5,3.19 -0.28,0.08 -0.53,0.14 -0.73,0.14 -0.36,0 -0.56,-0.17 -0.56,-0.5 0,-0.36 0.2,-0.92 0.64,-1.76 0.59,-1.12 0.84,-1.98 0.84,-2.63 0,-0.56 -0.2,-0.92 -0.61,-1.12 -0.14,-0.06 -0.31,-0.11 -0.45,-0.11 -0.87,0 -2.04,0.89 -3.38,2.26 -1.45,1.54 -3.05,3.41 -3.33,3.41l0 -0.03c0,-0.42 3.94,-7.07 3.94,-8.33 0,-0.06 -0.03,-0.08 -0.03,-0.11 -0.17,-0.59 -0.81,-0.92 -1.31,-0.92 -0.28,0 -0.5,0.11 -0.56,0.36 -0.11,0.64 -0.48,1.2 -1.06,2.4zm18.93 2.57c0.28,-0.22 0.39,-0.5 0.39,-0.81 0,-0.64 -0.5,-1.4 -1.37,-1.79 -0.36,-0.17 -0.87,-0.25 -1.4,-0.25 -1.34,0 -3.08,0.53 -4.53,1.79 -1.59,1.37 -2.85,3.07 -2.85,4.56 0,0.42 0.11,0.84 0.31,1.2 0.36,0.59 1.01,0.81 1.73,0.81 1.34,0 3.05,-0.73 3.86,-1.23 0.89,-0.5 1.59,-1.01 2.07,-1.01 0.22,0 0.39,0.11 0.5,0.36 0.25,0.56 0.64,0.98 1.51,0.98 0.42,0 0.95,-0.08 1.59,-0.34 2.07,-0.75 4.81,-3.52 4.86,-3.69l0.03 -0.06c0,-0.06 -0.03,-0.06 -0.08,-0.06 -0.03,0 -0.11,0.03 -0.11,0.03 0,0 -2.15,1.9 -3.91,2.6 -0.75,0.31 -1.31,0.45 -1.71,0.45 -0.5,0 -0.75,-0.25 -0.95,-0.73 -0.2,-0.67 -0.34,-1.12 -0.95,-1.12 -0.22,0 -0.5,0.06 -0.87,0.17 -1.26,0.45 -3.52,1.84 -4.14,1.84 -0.06,0 -0.11,0 -0.14,-0.03 -0.06,-0.06 -0.11,-0.17 -0.11,-0.31 0,-0.5 0.67,-1.59 2.8,-2.8 1.23,-0.7 2.04,-0.87 2.57,-0.87 0.67,0 0.89,0.28 0.89,0.28z"/>
   <path class="fil3" d="M107.98 135.52l0.22 0.11c1.84,-9.62 10.48,-11.01 18.62,-11.57 -0.22,0.42 -0.45,0.84 -0.64,1.26 -1.01,2.12 -1.51,4.44 -1.51,6.71 0,0.64 0.03,1.26 0.11,1.87 -2.35,3.52 -3.91,7.04 -4.56,10.2 -0.14,0.75 -0.22,1.51 -0.22,2.24 0,4.61 2.99,8.3 8.44,8.3 0.36,0 0.73,-0.03 1.12,-0.06 6.04,-0.53 11.99,-5.48 15.93,-12.41 2.15,-0.87 3.35,-1.79 5.84,-3.35l-0.25 -0.39c-2.12,1.31 -3.35,2.04 -5.2,2.82 2.21,-5.17 3.19,-9.84 3.19,-13.73 0,-7.63 -3.72,-12.33 -9.22,-12.33 -0.48,0 -0.98,0.03 -1.48,0.11 -3.72,0.53 -7.74,2.57 -11.13,8.08 -8.5,0.53 -17.39,2.38 -19.26,12.13zm20.07 -12.19c3.38,-5.2 6.99,-6.93 10.2,-7.27 0.28,-0.03 0.56,-0.06 0.84,-0.06 4.58,0 7.44,4 7.44,10.29 0,4.56 -1.48,10.34 -4.92,16.69 -1.79,0.5 -3.55,0.78 -5.2,0.78 -5.53,0 -10.01,-2.94 -10.96,-9.7 3.02,-4.47 5.9,-7.52 10.85,-9.9 0.22,0 0.42,0.03 0.61,0.03 1.15,0 2.07,-0.2 2.46,-0.34 0.48,-0.17 0.7,-0.53 0.7,-0.92 0,-0.42 -0.28,-0.84 -0.75,-0.95 -0.11,-0.03 -0.22,-0.06 -0.36,-0.06 -0.95,0 -2.38,0.89 -2.94,1.17 -0.84,0.08 -1.87,0.11 -3.1,0.11 -1.65,0 -3.27,0.03 -4.86,0.11zm4.86 0.56c0.61,0 1.17,0 1.7,-0.03 -3.66,2.18 -6.82,5.7 -9.28,9.2 -0.03,-0.34 -0.03,-0.64 -0.03,-0.98 0,-2.18 0.48,-4.42 1.45,-6.49 0.25,-0.53 0.53,-1.06 0.84,-1.57 1.73,-0.11 3.52,-0.14 5.31,-0.14zm-8 10.99c1.23,6.35 5.31,9.5 11.24,9.5 1.57,0 3.27,-0.22 5.09,-0.67 -2.88,4.08 -7.02,9.17 -12.02,9.67 -0.45,0.06 -0.89,0.08 -1.31,0.08 -4.75,0 -7.24,-3.05 -7.24,-7.07 0,-0.7 0.08,-1.43 0.22,-2.15 0.56,-2.91 1.96,-6.12 4.03,-9.36zm33.46 -6.6c0.87,-1.06 1.15,-1.84 1.15,-2.38 0,-0.53 -0.28,-0.84 -0.64,-0.98 -0.17,-0.08 -0.31,-0.11 -0.47,-0.11 -0.53,0 -0.98,0.36 -1.15,0.81 -0.25,0.59 -1.48,2.07 -3.24,5.34 -1.76,3.3 -4.75,9.22 -6.32,13.45 -0.39,1.06 -0.56,1.96 -0.56,2.66 0,1.54 0.78,2.32 1.79,2.32 0.42,0 0.87,-0.11 1.34,-0.39 2.1,-1.23 6.85,-8.11 7.38,-8.86 0.42,-0.61 0.67,-0.98 0.67,-1.15 0,-0.03 -0.03,-0.08 -0.08,-0.08 -0.03,0 -0.03,-0.03 -0.06,-0.03 -0.17,0 -0.34,0.25 -0.34,0.25 -2.35,3.41 -6.76,8.05 -7.74,8.75 -0.17,0.11 -0.31,0.2 -0.45,0.2 -0.2,0 -0.31,-0.2 -0.31,-0.59 0,-0.7 0.36,-2.07 1.26,-4.25 0.67,-1.62 1.68,-4.28 3.08,-6.93 2.12,-4.05 4.7,-8.02 4.7,-8.02zm-0.73 9.53c0,0 -1.03,1.96 -1.03,3.47 0,0.48 0.11,0.92 0.39,1.23 0.31,0.34 0.75,0.48 1.34,0.48 1.71,0 4.39,-1.37 6.68,-3.91l0 -0.03c0,-0.03 0,-0.08 -0.08,-0.08 -0.03,0 -0.11,0.03 -0.25,0.11 -0.42,0.22 -2.71,2.43 -4.64,2.8 -0.31,0.06 -0.56,0.08 -0.75,0.08 -0.73,0 -0.98,-0.28 -0.98,-0.75 0,-0.28 0.08,-0.61 0.22,-0.98 0.34,-1.03 0.89,-1.96 0.89,-2.35 0,-0.03 0,-0.08 -0.03,-0.11 -0.08,-0.17 -0.5,-0.34 -0.92,-0.34 -0.31,0 -0.64,0.11 -0.84,0.39zm1.84 -4.05c0,0 -0.67,0.61 -0.67,1.2 0,0.08 0,0.14 0.03,0.22 0.06,0.2 0.22,0.28 0.42,0.28 0.5,0 1.23,-0.48 1.51,-0.92 0.11,-0.17 0.17,-0.34 0.17,-0.48 0,-0.36 -0.31,-0.59 -0.67,-0.59l-0.08 0c-0.53,0.06 -0.7,0.28 -0.7,0.28zm5.73 1.68c0,0 -2.96,6.6 -2.96,9.08 0,0.39 0.06,0.67 0.22,0.81 0.28,0.25 0.56,0.36 0.87,0.36 1.12,0 2.54,-1.57 4.05,-4.17 1.93,-3.3 4.28,-6.04 5.51,-7.27l1.26 -1.23 0 -0.03c0,-0.03 0,-0.11 -0.11,-0.11 -0.17,0 -0.59,0.22 -1.65,1.26 -1.9,1.82 -4.47,4.56 -5.81,6.43 -1.37,1.9 -1.82,2.49 -1.82,2.49 0,0 2.52,-6.18 2.74,-7.04 0.06,-0.2 0.08,-0.36 0.08,-0.5 0,-0.56 -0.36,-0.87 -1.06,-0.87 -0.89,0 -1.12,0.31 -1.31,0.78zm9.48 1.4c0,0 -3.05,1.23 -3.52,4.11 -0.06,0.25 -0.08,0.48 -0.08,0.67 0,1.48 0.92,2.35 2.32,2.35 0.87,0 1.93,-0.34 3.1,-1.03 3.35,-1.98 5.12,-4.11 5.12,-4.11 0,0 0,-0.14 -0.14,-0.14 -0.06,0 -0.14,0.03 -0.28,0.14 -0.39,0.36 -3.16,2.49 -5.34,3.41 -0.89,0.39 -1.56,0.56 -2.1,0.56 -0.78,0 -1.17,-0.39 -1.23,-1.2 0,0 2.52,-0.7 3.63,-2.04 0.39,-0.5 0.59,-1.06 0.59,-1.57 0,-0.7 -0.39,-1.26 -1.29,-1.26 -0.22,0 -0.5,0.03 -0.78,0.11zm6.09 0.98c0,0 -1.03,1.96 -1.03,3.47 0,0.48 0.11,0.92 0.39,1.23 0.31,0.34 0.75,0.48 1.34,0.48 1.71,0 4.39,-1.37 6.68,-3.91l0 -0.03c0,-0.03 0,-0.08 -0.08,-0.08 -0.03,0 -0.11,0.03 -0.25,0.11 -0.42,0.22 -2.71,2.43 -4.64,2.8 -0.31,0.06 -0.56,0.08 -0.75,0.08 -0.73,0 -0.98,-0.28 -0.98,-0.75 0,-0.28 0.08,-0.61 0.22,-0.98 0.34,-1.03 0.89,-1.96 0.89,-2.35 0,-0.03 0,-0.08 -0.03,-0.11 -0.08,-0.17 -0.5,-0.34 -0.92,-0.34 -0.31,0 -0.64,0.11 -0.84,0.39zm1.84 -4.05c0,0 -0.67,0.61 -0.67,1.2 0,0.08 0,0.14 0.03,0.22 0.06,0.2 0.22,0.28 0.42,0.28 0.5,0 1.23,-0.48 1.51,-0.92 0.11,-0.17 0.17,-0.34 0.17,-0.48 0,-0.36 -0.31,-0.59 -0.67,-0.59l-0.08 0c-0.53,0.06 -0.7,0.28 -0.7,0.28zm6.04 1.62c0,0 -0.25,0.39 -0.78,1.03 -0.42,0.53 -1.26,1.23 -1.26,2.04 0,0.17 0.03,0.34 0.08,0.5 0.45,0.95 2.24,0.47 2.24,1.23 0,0.06 -0.03,0.14 -0.06,0.22 -0.22,0.78 -0.78,1.84 -0.78,2.63 0,0.28 0.08,0.53 0.25,0.73 0.17,0.14 0.36,0.22 0.61,0.22 0.95,0 2.52,-0.95 4.03,-2.24 1.93,-1.62 2.88,-2.8 2.88,-2.8l0 -0.03c0,-0.03 0,-0.08 -0.06,-0.08 -0.06,0 -0.2,0.08 -0.47,0.34 -0.59,0.59 -2.99,2.4 -4.28,3.24 -0.45,0.31 -0.81,0.45 -1.06,0.45 -0.22,0 -0.34,-0.14 -0.34,-0.39 0,-0.22 0.08,-0.53 0.28,-0.95 0.31,-0.64 0.5,-1.26 0.5,-1.79 0,-0.61 -0.28,-1.09 -0.98,-1.31 -0.59,-0.2 -0.81,-0.34 -0.81,-0.5 0,-0.17 0.28,-0.39 0.59,-0.73 0.48,-0.5 0.89,-1.15 0.89,-1.59 0,-0.14 -0.06,-0.28 -0.14,-0.36 -0.17,-0.17 -0.42,-0.28 -0.64,-0.28 -0.31,0 -0.56,0.14 -0.7,0.42zm14.68 2.74c0.28,-0.22 0.39,-0.5 0.39,-0.81 0,-0.64 -0.5,-1.4 -1.37,-1.79 -0.36,-0.17 -0.87,-0.25 -1.4,-0.25 -1.34,0 -3.08,0.53 -4.53,1.79 -1.59,1.37 -2.85,3.07 -2.85,4.56 0,0.42 0.11,0.84 0.31,1.2 0.36,0.59 1.01,0.81 1.73,0.81 1.34,0 3.05,-0.73 3.86,-1.23 0.89,-0.5 1.59,-1.01 2.07,-1.01 0.22,0 0.39,0.11 0.5,0.36 0.25,0.56 0.64,0.98 1.51,0.98 0.42,0 0.95,-0.08 1.59,-0.34 2.07,-0.75 4.81,-3.52 4.86,-3.69l0.03 -0.06c0,-0.06 -0.03,-0.06 -0.08,-0.06 -0.03,0 -0.11,0.03 -0.11,0.03 0,0 -2.15,1.9 -3.91,2.6 -0.75,0.31 -1.31,0.45 -1.71,0.45 -0.5,0 -0.75,-0.25 -0.95,-0.73 -0.2,-0.67 -0.34,-1.12 -0.95,-1.12 -0.22,0 -0.5,0.06 -0.87,0.17 -1.26,0.45 -3.52,1.84 -4.14,1.84 -0.06,0 -0.11,0 -0.14,-0.03 -0.06,-0.06 -0.11,-0.17 -0.11,-0.31 0,-0.5 0.67,-1.59 2.8,-2.8 1.23,-0.7 2.04,-0.87 2.57,-0.87 0.67,0 0.89,0.28 0.89,0.28z"/>
   <path class="fil4" d="M42.57 121.54c0.06,-0.14 0.06,-0.28 0.06,-0.39 0,-0.5 -0.25,-0.84 -0.87,-0.84 -0.78,0 -2.07,0.53 -4.03,1.96 -0.06,0.03 -6.29,4.72 -12.36,9.64 1.73,-4.11 3.02,-7.74 3.49,-10.34 0.25,-0.92 0.36,-1.73 0.36,-2.49 0,-4.14 -3.44,-5.81 -8,-5.81 -6.96,0 -16.55,3.97 -20.38,9.14 -0.61,0.95 -0.87,1.79 -0.87,2.57 0,4.36 8.64,5.81 8.64,5.84l0.11 -0.14c0,-0.03 -8.22,-1.62 -8.22,-5.73 0,-0.7 0.25,-1.48 0.78,-2.32 2.32,-3.55 12.52,-8.3 19.32,-8.3 3.58,0 6.23,1.34 6.23,4.86 0,0.7 -0.11,1.45 -0.34,2.32 -0.92,3.55 -2.68,8.39 -4.78,13.42 -2.94,2.52 -5.51,4.84 -6.79,6.4 -0.34,0.42 -0.73,1.2 -0.73,1.87 0,0.45 0.17,0.84 0.56,1.12 0.22,0.11 0.53,0.14 0.95,0.14 0.53,0 1.17,-0.06 1.96,-0.17 -1.73,3.86 -3.47,7.44 -4.86,10.23 -0.08,0.22 -0.14,0.39 -0.14,0.53 0,0.31 0.2,0.48 0.45,0.48 0.31,0 0.67,-0.22 0.89,-0.67 1.87,-3.35 3.86,-7.13 5.76,-10.96 6.6,-1.31 17,-4.56 17.05,-4.56l-0.47 -0.45c-0.06,0.03 -10.01,2.68 -15.88,3.63 1.2,-2.43 2.35,-4.84 3.38,-7.18 7.04,-5.81 16.69,-13.14 18.7,-13.81zm-22.28 16.88c-0.64,1.45 -1.29,2.94 -1.93,4.36 -0.31,0.03 -0.61,0.06 -0.87,0.06 -0.67,0 -1.12,-0.11 -1.2,-0.34l0 -0.03c0,-0.39 1.62,-1.96 4,-4.05zm24.21 -0.31c0.28,-0.22 0.39,-0.5 0.39,-0.81 0,-0.64 -0.5,-1.4 -1.37,-1.79 -0.36,-0.17 -0.87,-0.25 -1.4,-0.25 -1.34,0 -3.07,0.53 -4.53,1.79 -1.59,1.37 -2.85,3.07 -2.85,4.56 0,0.42 0.11,0.84 0.31,1.2 0.36,0.59 1.01,0.81 1.73,0.81 1.34,0 3.05,-0.73 3.86,-1.23 0.89,-0.5 1.59,-1.01 2.07,-1.01 0.22,0 0.39,0.11 0.5,0.36 0.25,0.56 0.64,0.98 1.51,0.98 0.42,0 0.95,-0.08 1.59,-0.34 2.07,-0.75 4.81,-3.52 4.86,-3.69l0.03 -0.06c0,-0.06 -0.03,-0.06 -0.08,-0.06 -0.03,0 -0.11,0.03 -0.11,0.03 0,0 -2.15,1.9 -3.91,2.6 -0.75,0.31 -1.31,0.45 -1.71,0.45 -0.5,0 -0.75,-0.25 -0.95,-0.73 -0.2,-0.67 -0.34,-1.12 -0.95,-1.12 -0.22,0 -0.5,0.06 -0.87,0.17 -1.26,0.45 -3.52,1.84 -4.14,1.84 -0.06,0 -0.11,0 -0.14,-0.03 -0.06,-0.06 -0.11,-0.17 -0.11,-0.31 0,-0.5 0.67,-1.59 2.8,-2.8 1.23,-0.7 2.04,-0.87 2.57,-0.87 0.67,0 0.89,0.28 0.89,0.28zm7.63 -2.74c0,0 -0.25,0.39 -0.78,1.03 -0.42,0.53 -1.26,1.23 -1.26,2.04 0,0.17 0.03,0.34 0.08,0.5 0.45,0.95 2.24,0.47 2.24,1.23 0,0.06 -0.03,0.14 -0.06,0.22 -0.22,0.78 -0.78,1.84 -0.78,2.63 0,0.28 0.08,0.53 0.25,0.73 0.17,0.14 0.36,0.22 0.61,0.22 0.95,0 2.52,-0.95 4.03,-2.24 1.93,-1.62 2.88,-2.8 2.88,-2.8l0 -0.03c0,-0.03 0,-0.08 -0.06,-0.08 -0.06,0 -0.2,0.08 -0.48,0.34 -0.59,0.59 -2.99,2.4 -4.28,3.24 -0.45,0.31 -0.81,0.45 -1.06,0.45 -0.22,0 -0.34,-0.14 -0.34,-0.39 0,-0.22 0.08,-0.53 0.28,-0.95 0.31,-0.64 0.5,-1.26 0.5,-1.79 0,-0.61 -0.28,-1.09 -0.98,-1.31 -0.59,-0.2 -0.81,-0.34 -0.81,-0.5 0,-0.17 0.28,-0.39 0.59,-0.73 0.47,-0.5 0.89,-1.15 0.89,-1.59 0,-0.14 -0.06,-0.28 -0.14,-0.36 -0.17,-0.17 -0.42,-0.28 -0.64,-0.28 -0.31,0 -0.56,0.14 -0.7,0.42zm18.03 7.99c1.43,-3.49 8.36,-15.68 8.36,-18.73 0,-0.22 -0.03,-0.39 -0.11,-0.5 -0.22,-0.34 -0.56,-0.48 -0.92,-0.48 -1.68,0 -4.56,2.68 -7.02,5.28 -3.02,3.21 -7.07,8.27 -7.07,8.27l-0.17 -0.39c0,0 -0.48,-0.84 -1.51,-0.84 -0.08,0 -0.17,0.03 -0.25,0.03 -1.2,0.11 -2.88,1.4 -4.14,4.08 -0.42,0.92 -0.64,1.82 -0.64,2.6 0,1.4 0.67,2.38 1.93,2.38 0.17,0 0.36,0 0.59,-0.06 2.71,-0.61 4.36,-4.7 4.53,-6.01 0.2,-1.29 0.22,-1.54 0.87,-2.38 0.78,-1.01 9.22,-10.45 10.96,-11.01l0.03 0c0.03,0 0.03,0.03 0.03,0.08 0,1.2 -7.16,15.54 -8.39,18.84 -0.39,1.06 -0.56,1.96 -0.56,2.66 0,1.54 0.75,2.32 1.79,2.32 0.42,0 0.87,-0.11 1.34,-0.39 2.12,-1.23 6.88,-8.11 7.38,-8.86 0.42,-0.59 0.64,-0.98 0.64,-1.15 0,-0.03 0,-0.08 -0.06,-0.08l-0.06 0c-0.14,0 -0.34,0.22 -0.34,0.22 -2.35,3.41 -6.76,8.05 -7.74,8.75 -0.17,0.11 -0.34,0.2 -0.45,0.2 -0.2,0 -0.31,-0.2 -0.31,-0.56 0,-0.7 0.36,-2.1 1.29,-4.28zm-7.38 -5.95c0,0 -0.03,0.17 -0.03,0.34 0,0.08 0,0.17 0.03,0.22 0.03,0.08 0.11,0.28 0.11,0.59 0,0.48 -0.17,1.26 -0.78,2.4 -0.81,1.51 -2.01,3.13 -2.85,3.13 -0.2,0 -0.39,-0.08 -0.53,-0.34 -0.08,-0.17 -0.14,-0.36 -0.14,-0.56 0,-1.37 1.82,-3.61 2.66,-4.72 0.7,-0.95 1.2,-1.09 1.43,-1.09 0.08,0 0.11,0.03 0.11,0.03zm14.7 0.39c0,0 -1.03,1.96 -1.03,3.47 0,0.48 0.11,0.92 0.39,1.23 0.31,0.34 0.75,0.48 1.34,0.48 1.7,0 4.39,-1.37 6.68,-3.91l0 -0.03c0,-0.03 0,-0.08 -0.08,-0.08 -0.03,0 -0.11,0.03 -0.25,0.11 -0.42,0.22 -2.71,2.43 -4.64,2.8 -0.31,0.06 -0.56,0.08 -0.75,0.08 -0.73,0 -0.98,-0.28 -0.98,-0.75 0,-0.28 0.08,-0.61 0.22,-0.98 0.34,-1.03 0.89,-1.96 0.89,-2.35 0,-0.03 0,-0.08 -0.03,-0.11 -0.08,-0.17 -0.5,-0.34 -0.92,-0.34 -0.31,0 -0.64,0.11 -0.84,0.39zm1.85 -4.05c0,0 -0.67,0.61 -0.67,1.2 0,0.08 0,0.14 0.03,0.22 0.06,0.2 0.22,0.28 0.42,0.28 0.5,0 1.23,-0.48 1.51,-0.92 0.11,-0.17 0.17,-0.34 0.17,-0.48 0,-0.36 -0.31,-0.59 -0.67,-0.59l-0.08 0c-0.53,0.06 -0.7,0.28 -0.7,0.28zm6.18 1.79c0,0 -3.83,6.09 -3.83,8.58 0,0.2 0.03,0.36 0.08,0.5 0,0 0.56,1.03 1.29,1.03 0.2,0 0.39,-0.08 0.59,-0.25 1.01,-0.89 5.34,-6.07 6.4,-6.93 0.22,-0.2 0.36,-0.25 0.45,-0.25 0.06,0 0.08,0.03 0.08,0.11 0,0.36 -0.45,1.29 -0.87,2.07 -0.31,0.59 -0.56,1.29 -0.56,1.9 0,0.67 0.31,1.23 1.06,1.4 0.11,0.03 0.2,0.03 0.31,0.03 1.54,0 4.05,-1.82 6.79,-4.67 0,0 0,-0.17 -0.14,-0.17 -0.08,0 -0.25,0.08 -0.56,0.39 -0.7,0.7 -3.21,2.77 -4.5,3.19 -0.28,0.08 -0.53,0.14 -0.73,0.14 -0.36,0 -0.56,-0.17 -0.56,-0.5 0,-0.36 0.2,-0.92 0.64,-1.76 0.59,-1.12 0.84,-1.98 0.84,-2.63 0,-0.56 -0.2,-0.92 -0.61,-1.12 -0.14,-0.06 -0.31,-0.11 -0.45,-0.11 -0.87,0 -2.04,0.89 -3.38,2.26 -1.45,1.54 -3.05,3.41 -3.33,3.41l0 -0.03c0,-0.42 3.94,-7.07 3.94,-8.33 0,-0.06 -0.03,-0.08 -0.03,-0.11 -0.17,-0.59 -0.81,-0.92 -1.31,-0.92 -0.28,0 -0.5,0.11 -0.56,0.36 -0.11,0.64 -0.48,1.2 -1.06,2.4zm18.93 2.57c0.28,-0.22 0.39,-0.5 0.39,-0.81 0,-0.64 -0.5,-1.4 -1.37,-1.79 -0.36,-0.17 -0.87,-0.25 -1.4,-0.25 -1.34,0 -3.08,0.53 -4.53,1.79 -1.59,1.37 -2.85,3.07 -2.85,4.56 0,0.42 0.11,0.84 0.31,1.2 0.36,0.59 1.01,0.81 1.73,0.81 1.34,0 3.05,-0.73 3.86,-1.23 0.89,-0.5 1.59,-1.01 2.07,-1.01 0.22,0 0.39,0.11 0.5,0.36 0.25,0.56 0.64,0.98 1.51,0.98 0.42,0 0.95,-0.08 1.59,-0.34 2.07,-0.75 4.81,-3.52 4.86,-3.69l0.03 -0.06c0,-0.06 -0.03,-0.06 -0.08,-0.06 -0.03,0 -0.11,0.03 -0.11,0.03 0,0 -2.15,1.9 -3.91,2.6 -0.75,0.31 -1.31,0.45 -1.71,0.45 -0.5,0 -0.75,-0.25 -0.95,-0.73 -0.2,-0.67 -0.34,-1.12 -0.95,-1.12 -0.22,0 -0.5,0.06 -0.87,0.17 -1.26,0.45 -3.52,1.84 -4.14,1.84 -0.06,0 -0.11,0 -0.14,-0.03 -0.06,-0.06 -0.11,-0.17 -0.11,-0.31 0,-0.5 0.67,-1.59 2.8,-2.8 1.23,-0.7 2.04,-0.87 2.57,-0.87 0.67,0 0.89,0.28 0.89,0.28z"/>
   <path class="fil5" d="M107.4 135.52l0.22 0.11c1.84,-9.62 10.48,-11.01 18.62,-11.57 -0.22,0.42 -0.45,0.84 -0.64,1.26 -1.01,2.12 -1.51,4.44 -1.51,6.71 0,0.64 0.03,1.26 0.11,1.87 -2.35,3.52 -3.91,7.04 -4.56,10.2 -0.14,0.75 -0.22,1.51 -0.22,2.24 0,4.61 2.99,8.3 8.44,8.3 0.36,0 0.73,-0.03 1.12,-0.06 6.04,-0.53 11.99,-5.48 15.93,-12.41 2.15,-0.87 3.35,-1.79 5.84,-3.35l-0.25 -0.39c-2.12,1.31 -3.35,2.04 -5.2,2.82 2.21,-5.17 3.19,-9.84 3.19,-13.73 0,-7.63 -3.72,-12.33 -9.22,-12.33 -0.48,0 -0.98,0.03 -1.48,0.11 -3.72,0.53 -7.74,2.57 -11.13,8.08 -8.5,0.53 -17.39,2.38 -19.26,12.13zm20.07 -12.19c3.38,-5.2 6.99,-6.93 10.2,-7.27 0.28,-0.03 0.56,-0.06 0.84,-0.06 4.58,0 7.44,4 7.44,10.29 0,4.56 -1.48,10.34 -4.92,16.69 -1.79,0.5 -3.55,0.78 -5.2,0.78 -5.54,0 -10.01,-2.94 -10.96,-9.7 3.02,-4.47 5.9,-7.52 10.85,-9.9 0.22,0 0.42,0.03 0.61,0.03 1.15,0 2.07,-0.2 2.46,-0.34 0.48,-0.17 0.7,-0.53 0.7,-0.92 0,-0.42 -0.28,-0.84 -0.75,-0.95 -0.11,-0.03 -0.22,-0.06 -0.36,-0.06 -0.95,0 -2.38,0.89 -2.94,1.17 -0.84,0.08 -1.87,0.11 -3.1,0.11 -1.65,0 -3.27,0.03 -4.86,0.11zm4.86 0.56c0.61,0 1.17,0 1.71,-0.03 -3.66,2.18 -6.82,5.7 -9.28,9.2 -0.03,-0.34 -0.03,-0.64 -0.03,-0.98 0,-2.18 0.48,-4.42 1.45,-6.49 0.25,-0.53 0.53,-1.06 0.84,-1.57 1.73,-0.11 3.52,-0.14 5.31,-0.14zm-8 10.99c1.23,6.35 5.31,9.5 11.24,9.5 1.57,0 3.27,-0.22 5.09,-0.67 -2.88,4.08 -7.02,9.17 -12.02,9.67 -0.45,0.06 -0.89,0.08 -1.31,0.08 -4.75,0 -7.24,-3.05 -7.24,-7.07 0,-0.7 0.08,-1.43 0.22,-2.15 0.56,-2.91 1.96,-6.12 4.03,-9.36zm33.46 -6.6c0.87,-1.06 1.15,-1.84 1.15,-2.38 0,-0.53 -0.28,-0.84 -0.64,-0.98 -0.17,-0.08 -0.31,-0.11 -0.48,-0.11 -0.53,0 -0.98,0.36 -1.15,0.81 -0.25,0.59 -1.48,2.07 -3.24,5.34 -1.76,3.3 -4.75,9.22 -6.32,13.45 -0.39,1.06 -0.56,1.96 -0.56,2.66 0,1.54 0.78,2.32 1.79,2.32 0.42,0 0.87,-0.11 1.34,-0.39 2.1,-1.23 6.85,-8.11 7.38,-8.86 0.42,-0.61 0.67,-0.98 0.67,-1.15 0,-0.03 -0.03,-0.08 -0.08,-0.08 -0.03,0 -0.03,-0.03 -0.06,-0.03 -0.17,0 -0.34,0.25 -0.34,0.25 -2.35,3.41 -6.77,8.05 -7.74,8.75 -0.17,0.11 -0.31,0.2 -0.45,0.2 -0.2,0 -0.31,-0.2 -0.31,-0.59 0,-0.7 0.36,-2.07 1.26,-4.25 0.67,-1.62 1.68,-4.28 3.07,-6.93 2.12,-4.05 4.7,-8.02 4.7,-8.02zm-0.73 9.53c0,0 -1.03,1.96 -1.03,3.47 0,0.48 0.11,0.92 0.39,1.23 0.31,0.34 0.75,0.48 1.34,0.48 1.71,0 4.39,-1.37 6.68,-3.91l0 -0.03c0,-0.03 0,-0.08 -0.08,-0.08 -0.03,0 -0.11,0.03 -0.25,0.11 -0.42,0.22 -2.71,2.43 -4.64,2.8 -0.31,0.06 -0.56,0.08 -0.75,0.08 -0.73,0 -0.98,-0.28 -0.98,-0.75 0,-0.28 0.08,-0.61 0.22,-0.98 0.34,-1.03 0.89,-1.96 0.89,-2.35 0,-0.03 0,-0.08 -0.03,-0.11 -0.08,-0.17 -0.5,-0.34 -0.92,-0.34 -0.31,0 -0.64,0.11 -0.84,0.39zm1.84 -4.05c0,0 -0.67,0.61 -0.67,1.2 0,0.08 0,0.14 0.03,0.22 0.06,0.2 0.22,0.28 0.42,0.28 0.5,0 1.23,-0.48 1.51,-0.92 0.11,-0.17 0.17,-0.34 0.17,-0.48 0,-0.36 -0.31,-0.59 -0.67,-0.59l-0.08 0c-0.53,0.06 -0.7,0.28 -0.7,0.28zm5.73 1.68c0,0 -2.96,6.6 -2.96,9.08 0,0.39 0.06,0.67 0.22,0.81 0.28,0.25 0.56,0.36 0.87,0.36 1.12,0 2.54,-1.57 4.05,-4.17 1.93,-3.3 4.28,-6.04 5.51,-7.27l1.26 -1.23 0 -0.03c0,-0.03 0,-0.11 -0.11,-0.11 -0.17,0 -0.59,0.22 -1.65,1.26 -1.9,1.82 -4.47,4.56 -5.81,6.43 -1.37,1.9 -1.82,2.49 -1.82,2.49 0,0 2.52,-6.18 2.74,-7.04 0.06,-0.2 0.08,-0.36 0.08,-0.5 0,-0.56 -0.36,-0.87 -1.06,-0.87 -0.89,0 -1.12,0.31 -1.31,0.78zm9.48 1.4c0,0 -3.05,1.23 -3.52,4.11 -0.06,0.25 -0.08,0.48 -0.08,0.67 0,1.48 0.92,2.35 2.32,2.35 0.87,0 1.93,-0.34 3.1,-1.03 3.35,-1.98 5.12,-4.11 5.12,-4.11 0,0 0,-0.14 -0.14,-0.14 -0.06,0 -0.14,0.03 -0.28,0.14 -0.39,0.36 -3.16,2.49 -5.34,3.41 -0.89,0.39 -1.57,0.56 -2.1,0.56 -0.78,0 -1.17,-0.39 -1.23,-1.2 0,0 2.52,-0.7 3.63,-2.04 0.39,-0.5 0.59,-1.06 0.59,-1.57 0,-0.7 -0.39,-1.26 -1.29,-1.26 -0.22,0 -0.5,0.03 -0.78,0.11zm6.09 0.98c0,0 -1.03,1.96 -1.03,3.47 0,0.48 0.11,0.92 0.39,1.23 0.31,0.34 0.75,0.48 1.34,0.48 1.71,0 4.39,-1.37 6.68,-3.91l0 -0.03c0,-0.03 0,-0.08 -0.08,-0.08 -0.03,0 -0.11,0.03 -0.25,0.11 -0.42,0.22 -2.71,2.43 -4.64,2.8 -0.31,0.06 -0.56,0.08 -0.75,0.08 -0.73,0 -0.98,-0.28 -0.98,-0.75 0,-0.28 0.08,-0.61 0.22,-0.98 0.34,-1.03 0.89,-1.96 0.89,-2.35 0,-0.03 0,-0.08 -0.03,-0.11 -0.08,-0.17 -0.5,-0.34 -0.92,-0.34 -0.31,0 -0.64,0.11 -0.84,0.39zm1.84 -4.05c0,0 -0.67,0.61 -0.67,1.2 0,0.08 0,0.14 0.03,0.22 0.06,0.2 0.22,0.28 0.42,0.28 0.5,0 1.23,-0.48 1.51,-0.92 0.11,-0.17 0.17,-0.34 0.17,-0.48 0,-0.36 -0.31,-0.59 -0.67,-0.59l-0.08 0c-0.53,0.06 -0.7,0.28 -0.7,0.28zm6.04 1.62c0,0 -0.25,0.39 -0.78,1.03 -0.42,0.53 -1.26,1.23 -1.26,2.04 0,0.17 0.03,0.34 0.08,0.5 0.45,0.95 2.24,0.47 2.24,1.23 0,0.06 -0.03,0.14 -0.06,0.22 -0.22,0.78 -0.78,1.84 -0.78,2.63 0,0.28 0.08,0.53 0.25,0.73 0.17,0.14 0.36,0.22 0.61,0.22 0.95,0 2.52,-0.95 4.03,-2.24 1.93,-1.62 2.88,-2.8 2.88,-2.8l0 -0.03c0,-0.03 0,-0.08 -0.06,-0.08 -0.06,0 -0.2,0.08 -0.48,0.34 -0.59,0.59 -2.99,2.4 -4.28,3.24 -0.45,0.31 -0.81,0.45 -1.06,0.45 -0.22,0 -0.34,-0.14 -0.34,-0.39 0,-0.22 0.08,-0.53 0.28,-0.95 0.31,-0.64 0.5,-1.26 0.5,-1.79 0,-0.61 -0.28,-1.09 -0.98,-1.31 -0.59,-0.2 -0.81,-0.34 -0.81,-0.5 0,-0.17 0.28,-0.39 0.59,-0.73 0.47,-0.5 0.89,-1.15 0.89,-1.59 0,-0.14 -0.06,-0.28 -0.14,-0.36 -0.17,-0.17 -0.42,-0.28 -0.64,-0.28 -0.31,0 -0.56,0.14 -0.7,0.42zm14.68 2.74c0.28,-0.22 0.39,-0.5 0.39,-0.81 0,-0.64 -0.5,-1.4 -1.37,-1.79 -0.36,-0.17 -0.87,-0.25 -1.4,-0.25 -1.34,0 -3.07,0.53 -4.53,1.79 -1.59,1.37 -2.85,3.07 -2.85,4.56 0,0.42 0.11,0.84 0.31,1.2 0.36,0.59 1.01,0.81 1.73,0.81 1.34,0 3.05,-0.73 3.86,-1.23 0.89,-0.5 1.59,-1.01 2.07,-1.01 0.22,0 0.39,0.11 0.5,0.36 0.25,0.56 0.64,0.98 1.51,0.98 0.42,0 0.95,-0.08 1.59,-0.34 2.07,-0.75 4.81,-3.52 4.86,-3.69l0.03 -0.06c0,-0.06 -0.03,-0.06 -0.08,-0.06 -0.03,0 -0.11,0.03 -0.11,0.03 0,0 -2.15,1.9 -3.91,2.6 -0.75,0.31 -1.31,0.45 -1.71,0.45 -0.5,0 -0.75,-0.25 -0.95,-0.73 -0.2,-0.67 -0.34,-1.12 -0.95,-1.12 -0.22,0 -0.5,0.06 -0.87,0.17 -1.26,0.45 -3.52,1.84 -4.14,1.84 -0.06,0 -0.11,0 -0.14,-0.03 -0.06,-0.06 -0.11,-0.17 -0.11,-0.31 0,-0.5 0.67,-1.59 2.8,-2.8 1.23,-0.7 2.04,-0.87 2.57,-0.87 0.67,0 0.89,0.28 0.89,0.28z"/>
  </g>
 </g>
</svg>
