<?xml version="1.0" encoding="UTF-8"?>
<!DOCTYPE svg PUBLIC "-//W3C//DTD SVG 1.1//EN" "http://www.w3.org/Graphics/SVG/1.1/DTD/svg11.dtd">
<!-- Creator: CorelDRAW -->
<svg xmlns="http://www.w3.org/2000/svg" xml:space="preserve" width="55.013mm" height="57.8873mm" version="1.1" style="shape-rendering:geometricPrecision; text-rendering:geometricPrecision; image-rendering:optimizeQuality; fill-rule:evenodd; clip-rule:evenodd"
viewBox="0 0 3065.72 3225.9"
 xmlns:xlink="http://www.w3.org/1999/xlink"
 xmlns:xodm="http://www.corel.com/coreldraw/odm/2003">
 <defs>
  <style type="text/css">
   <![CDATA[
    .fil1 {fill:black}
    .fil0 {fill:black}
    .fil4 {fill:#FFCC00}
    .fil5 {fill:white}
    .fil2 {fill:black;fill-rule:nonzero}
    .fil3 {fill:#FFCC00;fill-rule:nonzero}
   ]]>
  </style>
 </defs>
 <g id="Camada_x0020_1">
  <metadata id="CorelCorpID_0Corel-Layer"/>
  <g id="_2413368224832">
   <path class="fil0" d="M1367.09 527.88c-1.93,3.46 -5.18,5.07 -9.18,7.02l-82.75 37.35c-32.1,14.37 -64.23,28.05 -96.62,40.86 -45.69,18.06 -93.43,40.85 -124.4,79.69 -5.65,7.08 -9.8,11.61 -15.15,19.58 -4.2,6.26 -7.99,16.96 -13.69,21.42 -3.49,-1.13 -11.61,-8.97 -17.09,-12.28 -11.75,-7.08 -26.18,-13.49 -37.06,-20.83l-94.69 -54.38c-38.71,-20.01 -73.86,-45.13 -112.5,-65.5 -47.84,-25.21 -44.07,-35.82 -66.43,-50.78 -12.02,-8.05 -29,-13.87 -47.02,-12.1 -17.13,1.68 -29.13,9.75 -41.96,17.18 -10.98,6.36 -30.08,14.34 -38.94,20.41 -21.1,14.45 -162.26,93.11 -170.03,96.32 -7.9,3.27 -40.31,24.5 -56.16,32.02 -6.98,3.31 -12.62,6.03 -19.78,9.21 -4.85,2.15 -4.13,2.38 -9.9,4.54 -17.38,6.48 -25.46,24.42 -32.28,43 -6.31,17.21 -12.78,23.06 -28.34,30.96 -19.08,9.68 -37.25,21.43 -55.63,32.67 -12.37,7.56 -25.75,14.61 -39.88,19.45 -12.86,4.41 -9.8,3.94 -16.49,13.92 -9.33,13.92 -16.68,20.75 -26.38,32.93 -9.27,11.64 -17.15,22.21 -25.91,33.41 -16.29,20.82 -22.49,28.73 -36.74,51.54 -21.15,33.87 -34.22,62.44 -49.01,100.02 -5.04,12.82 -2.37,42.85 -2.37,57.03 0,19.28 -0.77,40.21 0.2,59.29 9.84,-2.65 14.48,-16.19 21.01,-23.64l20.68 -25.57c13.89,-16.57 28.98,-31.91 42.43,-48.78 13.42,-16.86 30.08,-31.25 45.53,-45.66 7.95,-7.42 16.17,-12.32 25.22,-19.61 8.88,-7.16 15.94,-16.83 27.77,-19.36 -5,11.45 -3.1,12.19 11.05,12.47 8.92,0.17 19.64,0.52 27.38,-2.23 55.21,-19.64 45.65,-42.19 62.8,-52.92 11.58,-7.25 25.35,-13.48 37.37,-20.52l55.62 -31.22c9.87,-4.79 28.41,-16.26 34.01,-23.86 14.92,-20.25 -7.19,-51.93 -6.9,-69.05 17.29,5.17 30.76,19.77 52.48,24.87 16.29,3.83 38.16,-20.39 50.82,-28.76 10.98,-7.24 19.96,-14.48 31.06,-22.47 35.17,-25.33 72.32,-52.74 109.33,-75.94 25.28,-15.85 6.33,-19.97 53.39,18.52 12.52,10.24 24.55,19.65 36.8,29.78l76.71 57.89c60.57,41.73 85.19,54.8 147.1,85.91 8.04,4.03 15.49,6.05 23.47,11.03 0.01,20.18 -31.68,90.66 -39.5,116.44 -2.6,8.55 -9.21,33.7 -13.92,37.91 -12.79,-3.65 -136.19,-59.97 -151.28,-66.67l-77.55 -32.46c-25.17,-10.68 -52.12,-22.98 -77.76,-32.19 -62.24,-22.35 -75.74,0.96 -99.73,48.14 -3.28,6.44 -6.84,11.54 -10.47,17 -4.7,7.08 -5.53,10.6 -12.97,14.52 -18.59,9.79 -67.11,62.14 -85.07,79.92l-67.64 68.38c-4.32,3.71 -8.84,9.55 -13.4,14.1l-94.03 98.45c-4.73,4.82 -9.77,8.83 -14.11,13.36 -4.79,4.98 -7.46,9.03 -12.74,14.76 -33.58,36.4 -15.95,45.06 -22.37,57.2l-21.08 33.95c-35.4,60.4 -59.88,132.54 -72.64,202.22l-5.75 48.74c-0.5,16.99 -3.31,38.29 15.15,38.51 23.77,-32.48 64.96,-94.8 89.28,-118.7l16.02 -18.69c21.43,-24.85 48.06,-46.78 75.53,-64.87l20.4 -14.33c12.43,-10.04 24.46,-20.31 22.66,-45.53 -0.8,-11.15 -2.67,-19.32 -6.39,-28.6 -3.6,-9.01 -8.12,-16.31 -8.97,-27.18 20.98,3.23 36.17,13.27 56.2,17.7 10.3,2.27 13.5,-8.83 18.63,-15.11 10.81,-13.24 23.33,-27.4 32.37,-41.47l97.58 -123.83c5.97,-7.42 11.66,-13.46 17.2,-20.39 11.04,-13.81 20.94,-27.47 32.33,-41.49 5.82,-7.17 10.05,-12.71 15.76,-20.45 6.09,-8.27 10.84,-11.96 16.46,-20.86 14.03,0.14 67.92,23.86 88.19,31.42l5.49 2.96c-9.61,7.34 -43.12,6.75 -55.01,15.56 -8.77,6.49 -18.65,33.74 -24.76,47.62l-20.67 50.26c-13.35,32.6 21.13,33.63 23.2,42.85 1.62,7.18 -27.45,89.96 -31.47,103.62 -5.28,17.89 -10.19,34.98 -15.31,52.72 -5.07,17.54 -10.99,34.94 -15.13,52.87 -8.07,34.97 -21.53,69.58 -29.35,105.28 -1.5,6.86 -2.53,6.32 -4.3,11.66 -1.39,4.19 -1.48,10.17 -2.17,15.07 -1.88,13.32 -5.74,49.69 1.79,60.97 4.36,6.54 18.16,5.72 27.07,7.57l5.23 83.52c4.8,49.73 12.66,103.55 32.87,149.03 3.68,8.28 9.99,24.59 14.43,31.95 4.71,7.81 14.2,19.72 21.63,24.64 -7.87,18.89 -31.53,31.33 -28.83,75.4 0.96,15.73 6.02,28.29 13.13,38.74 4.5,6.61 6.97,8.34 13.47,12.6 6.63,4.34 12.82,5.5 18.33,9.4 4.78,24.65 5.96,41.53 21.44,57.89 14.27,15.09 31.99,23.72 52.37,28.6 45.41,10.87 99.81,10.87 148.73,9.07 36.14,-1.34 69.3,-6.35 102.47,-17.72 16.33,-5.6 15.64,-5.1 30.2,2.28 22.27,11.29 42.11,13.99 68.59,12.5 11.1,-0.62 24.19,-7.08 33.78,-2.07 4.85,2.53 7.5,4.26 13.64,6.71 4.44,1.77 11.23,3.03 15.11,5.48 3.19,4.21 -2.47,58.91 59.95,100.33 36.67,24.34 90.79,23.55 127.43,2.03 18.91,-11.11 28.91,-22.75 41.31,-39.73 11.18,-15.34 18.38,-40.11 18.84,-62.63 1.48,-72.97 -51.01,-92.88 -59.94,-102.76 2.15,-5.13 8.13,-6.53 13.65,-8.21 86.95,-26.55 172.14,-56.67 258.81,-85.67 23.18,-7.75 45.37,-15.61 68.91,-22.22 7.14,-2.01 26.96,-9.59 33.52,-12.78 10.55,-5.15 22.59,-8.31 34.16,-12.14 22.99,-7.62 45.93,-15.12 68.57,-22.65 10.65,-3.54 61.92,-25.12 69.02,-19.75 1.81,1.98 0.79,-1.16 2,4.09 0.51,2.18 0.42,4.8 0.42,7.06 0.02,32.58 -2.67,50.73 -10.54,82.55 -17.77,71.78 -28.92,89.4 -57.59,153.68 -6.98,15.64 -19.88,34.57 -29.36,50.24 -4.51,7.46 -7.51,9.79 -7.47,20.46 15.73,-0.4 34.95,-16.38 46.77,-25.97 16.85,-13.67 34.25,-25.91 48.93,-42.28 31.89,-35.56 25.81,-26.83 58.26,-70.56 19.96,-26.9 37.18,-60.04 50.5,-95.64 24.5,-65.5 16.12,-69.75 23.16,-124.44 33.71,-12.77 63.7,-29.56 100.87,-21.54 8.77,1.89 15.07,6.4 23.58,8.32l8.06 2.36c4.59,2 3.13,30.67 4.67,38.35 10.6,52.96 59.03,95.06 113.27,99.17 26.11,1.98 49.75,-1.35 72.52,-12.03 67.76,-31.8 86.3,-119.03 53.17,-171.08 -5.38,-8.45 -12.4,-16.45 -19.55,-22.39 -2.17,-1.81 -3.83,-2.63 -6.03,-4.15 -2.33,-1.61 -3.68,-2.58 -6.61,-4.94 -1.9,-1.53 -3.78,-3.37 -5.54,-4.63 -4.56,-3.26 -2.91,-0.43 -6.68,-4.51 2.86,-8.23 13.42,-4.93 23.85,-7.58l73.75 -24.63c13.97,-5.63 30.57,-15.33 42.39,-22.73l27.39 -20.4c24.47,-20.46 49.33,-60.34 56.35,-91.2 9.37,-41.19 3.87,-77.13 -9.43,-113.28l-13.17 -34.52c-2.76,-6.43 -3.06,-5.86 -6.65,-10.77 -4.56,-6.22 -8.02,-12.6 -12.66,-19.17 -22.45,-31.8 -49.63,-56.68 -90.1,-74.87 -8.98,-4.03 -8.07,-12.78 -9.55,-22.4 -1.58,-10.27 -3.78,-17.57 -6.15,-27.1 -4.34,-17.53 -7.03,-35.84 -11.59,-53.45 -4.45,-17.15 -8.93,-35.12 -12.76,-52.42 -3.3,-14.9 -11.06,-41.38 -12.08,-55.36 20.98,1.14 155.31,60.66 185.95,72.55 14.12,5.48 18.65,8.4 33.14,1.7 5.97,-2.76 26.06,-10.11 32.47,-9.43 0.66,10.38 -1.88,18.47 -0.42,30.85 1,8.53 4.71,19.58 8.67,26.04 6.58,10.74 6.16,11.28 17.65,17.06 8.02,4.03 16.29,6.59 24.91,9.85 73.55,27.87 91.53,37.43 155.35,87.75 9.71,7.66 26.78,27.81 35.1,34.32 4.1,3.2 4.92,5 8.42,8.99 2.97,3.39 5.2,5.28 8.33,9.04 5.76,6.94 26.6,37.03 37.08,30.15 14.75,-21.29 -11.46,-85.54 -21.84,-106.17 -15.12,-30.05 -35.45,-58.12 -51.97,-86.99 -4.41,-7.72 -9.26,-13.84 -14.22,-20.49 -8.1,-10.86 -39.82,-42.07 -50.97,-53.25 -12.9,-12.92 -19.68,-21.97 -34.91,-34.55 -15.4,-12.71 -7.66,-30.08 -30.98,-38.5 -9.73,-3.51 -15.7,-6.75 -24.59,-10.14 -9.22,-3.52 -16.5,-4.87 -24.87,-9.85 -26.78,-15.93 -111.43,-47.7 -142.95,-65.43 -7.42,-4.17 -14.57,-8.55 -22.64,-12.1 -7.93,-3.49 -16.63,-6.63 -24.26,-10.46l-46.74 -22.73c-19.24,-8.82 -34.16,-11.65 -50.85,1.64 -13.64,10.87 -19.02,29.9 -39.15,30.06 -22.98,-38.31 -7.65,-42.82 -7.6,-54.62 0.09,-21.83 -8.49,-41.96 -10.07,-63.79 -0.95,-13.18 3.3,-8.81 8.69,-16.19l11.35 -14.74c7.3,-9.07 15.97,-15.17 23.87,-25.34 10.84,-13.95 24.39,-25.34 36.71,-37.06 10.67,-10.14 25.22,-31.31 36.97,-38.18 7.57,2.71 32.18,26.05 38.88,31.95l65.18 57.78c3.92,3.49 6.18,4.64 10.18,8.67 10.17,10.26 22.96,18.85 32.9,29.31 17.03,17.92 48.29,43.57 69.73,64.86 3.37,3.34 6.74,4.99 10.06,8.78 46.34,52.98 36.31,20.7 92.86,9.66 -9.71,37.19 -34.73,63.72 18.14,107.94 5.27,4.4 12.59,9.33 17.93,13.94 6.95,5.99 9.89,10.29 15.85,15.95 3.92,3.73 4.21,5.15 7.4,8.57 2.52,2.69 5.27,4.11 8.56,7.34 11.88,11.66 29.43,38.22 37.26,55.39l26.85 67.14c3.6,10.29 8.89,43.37 24.34,39.68 16.01,-3.81 23.53,-72.65 24.58,-90.06 2.28,-37.88 3.34,-67.11 -4.07,-104.53 -9.16,-46.19 -15.98,-70.22 -31.17,-112.01 -10.35,-28.48 15.58,-15.41 -44.65,-95.72 -8.26,-11.02 -19.21,-19.9 -29.65,-28.23l-66.07 -49.62c-23.75,-15 -44.52,-30.42 -67.66,-46.73 -26.04,-18.36 -149.24,-101.8 -173.19,-113.35 -23.87,-11.52 -31.23,-44.44 -59.74,-54.62 -15.59,-5.56 -34.51,-6.69 -50.05,-1.11 -29.4,10.55 -31.71,45.11 -60.26,55.59 -26.3,9.66 -48.14,32.82 -66.35,47.93l-145.36 113.68c-6.65,4.53 -8.9,8.39 -15.98,12.97 -8.86,5.73 -18.86,10.21 -25.84,17.59 -3.42,3.62 -3.08,4.73 -9.4,4.68l-39.82 -84.23c-3.1,-6.89 -12.24,-23.53 -12.52,-30.09 10.01,-5.34 35.57,-29.21 43.48,-37.42 8.36,-8.68 24.1,-20.57 30.04,-30.77 7.37,-12.66 19.11,-21.27 28.67,-32.08 6.1,-6.9 12.12,-14.62 18.3,-22.23l94.33 -129.98c3.69,-5.67 4.4,-5.07 8.01,-12.27 4.36,-8.69 10.48,-17 15.49,-25.02 10.63,-16.98 20.83,-33.01 29.88,-51.17 4.46,-8.95 8.51,-22.59 12.53,-28.97 6.45,-0.15 14.39,2.47 18.22,5 6.11,4.05 44.34,16.91 53.72,20.16 24.59,8.52 47.96,15.68 71.93,24.94 12.9,4.98 60.01,24.92 71.85,24.34 10.05,-0.5 25.22,-13.35 30.98,-17.77 6.36,-4.88 22.11,-22.07 25.6,-23.45 5.6,18.71 -17.85,67.79 23.68,83.28 16.08,6 112.01,30.88 134.22,35.15 26.07,5.02 14.51,9.36 32.59,23.81 19.92,15.92 57.25,27.59 87.97,15.92l1.33 -10.13c32.14,0.79 109.79,49.78 134.84,71.1 7.48,6.36 14.68,13.98 22.94,18.98 7.77,4.71 5.56,2.07 12.19,8.14 5.19,4.74 28.52,30.4 36.51,24.18 11.76,-16.68 -16.12,-78.41 -24.1,-91.6 -15.04,-24.87 -30.78,-52.04 -50.29,-72.71l-96.68 -85.7c-14.3,-8.28 -24.38,-16.18 -34.01,-28.19 -13.75,-17.15 -14.01,-15.45 -39.59,-21.07 -29.87,-6.56 -64.69,-17.69 -94.12,-27.65 -18.69,-6.33 -32.43,-3.17 -43.1,-19.05 -8.34,-12.43 -27.73,-44.88 -42.94,-48.03l-228.51 -48.03c-33.32,-6.83 -67.38,-18.03 -99.04,-23.9 -69.04,-12.79 -80.89,49.03 -112.21,79 -10.06,9.63 -17.54,23.63 -27.57,34.64 -3.14,3.46 -4.85,4.74 -7.6,8.31 -13.32,17.29 -29.01,31.94 -42.48,48.68l-88.82 94.97c-19.48,19.29 -43.89,40.88 -61,62.01 -4.06,5.02 -26.75,27.77 -32.36,29.57 -6.11,-3.9 -9.04,-9.26 -17.25,-14.31l-19.45 -12.38c-59.47,-37 -127.43,-23.17 -161.12,-31.24 0.03,-5.68 3.53,-15.93 5.13,-21.62 6.95,-24.82 8.45,-51.75 9.2,-77.95 0.29,-10.11 -1.19,-46.88 3.36,-52.77 9.2,-11.93 22.01,-20.19 28.13,-42.9 1.04,-3.85 1.18,-7.85 2.39,-11.97 10.99,-37.64 9.84,-86.68 -10.14,-120.4 -4.41,-7.46 -7.02,-11.6 -12.52,-16.46 -8.64,-7.63 -2.85,-8.26 -6.22,-19.69 -30.11,-102.29 -150.89,-183.45 -286.07,-165.67 -31.61,4.16 -59.77,12.64 -88.89,25.5 -31.27,13.8 -58.86,35.49 -82.23,59.58 -13.9,14.32 -25.04,33.53 -37.56,49.26 -12.73,15.99 -27.11,56.99 -32.91,81.4 -14.22,59.88 -6.89,145.67 21.92,192.21 8.49,13.71 4.3,10.9 20.73,35.7 7.35,11.09 22.46,30.64 32.98,39.37 14.25,11.83 6.18,7.06 24.18,19.24 6.71,4.54 31.84,18.37 35,23.16zm-658.72 1441.56c-5.2,-4.93 -13.54,-36.43 -14.09,-42.12 -3.11,-32.33 -6.34,-31.98 -6.36,-68.03 -0.03,-51.69 -3.33,-42.68 19.75,-94.74 15.31,-34.54 34.6,-74.86 46.81,-109.48 3.16,-8.96 6.97,-20.53 10.49,-28.61 2.6,-5.99 4.53,-5.48 7.11,-11.7 1.92,-4.63 3.48,-10.29 5,-15.27l64.52 -168.53c1.86,-6.48 20.26,-52.36 24.51,-53.29 2.12,-0.46 72.52,1.82 80.21,9.21l61.28 78.78c-3.22,4.22 -37.04,23.57 -45.77,27.72 -18.89,8.97 -16.03,19.02 -26.18,49.03 -4.24,12.53 -8.59,25.15 -12.88,37.82 -8.53,25.21 -18.14,49.12 -24.93,74.92 -7.02,26.65 -14.77,52.51 -22.06,79.18 -11.07,40.49 -16.75,59.83 -23.23,101.17 -1.33,8.5 -1.16,15.6 -2.08,23.8 -1.93,17.14 -15.64,15.13 -28.2,22.75 -10.21,6.2 -19.93,12.04 -30.73,18.45 -9.5,5.64 -23.05,12.48 -31.61,19.06 -4.2,3.23 -8.8,7.62 -13.17,11.41 -7.48,6.5 -34.27,36.22 -38.38,38.48zm14.47 -454.78c5.41,10.46 1.27,63.98 -10.34,85.4 -2.59,4.78 -10.1,18.82 -18.11,14.27 -0.84,-0.48 -5,1.81 -0.16,-12.28l25.9 -81.13c0.28,-0.91 0.76,-2.42 1.12,-3.27 1.47,-3.46 0.51,-1.48 1.58,-2.98zm27.5 -68.41c-1.87,-4 7.09,-42.92 8.21,-50.36 3.9,-25.91 3.29,-74.38 4.46,-80.95 1.52,-8.52 1.92,-4.41 27.85,-4.55 13.34,-0.01 81.59,-11.6 84.89,-9.71 -7.12,7.24 -26.15,13.45 -39.54,27.99l-43.64 57.68c-4.62,6.48 -9.94,14.3 -14.56,20.15 -4.01,5.07 -22.44,37.83 -27.67,39.76zm953.99 -87.47c0.03,-7.47 0.94,-10.5 2.78,-17.33 0.58,-2.15 1.3,-5.74 2.1,-8.07 2.11,-6.17 1.53,-2.95 3.74,-6.38 4.09,-6.34 7.92,-21.13 10.89,-29.64 7.09,-20.26 13.86,-39.86 20.98,-60.07 6.94,-19.72 13.4,-40.46 21.62,-59.42 4.04,-9.32 7.96,-18.87 11.67,-28.81l7.89 -22.45c17.84,-35.01 51.8,-147.82 59.88,-193.43 4.34,-24.49 5.85,-21.48 9.28,-51.5l2.16 -13.74c0.13,-0.39 0.32,-0.8 0.45,-1.15l1.06 -2.26c2.89,2.24 3.51,3.2 5.58,6.61 1.82,2.99 3.08,5.4 4.87,8.11 4.08,6.16 6.51,9.28 10.89,15.13 3.67,4.89 6.68,8.57 10.05,14.57 6.46,11.5 51.71,71.62 52.28,76.59 0.51,4.37 -1.15,5.26 -3.25,7.68l-28.37 35.35c-5,6.55 -7.64,7.52 -12.46,13.59 -7.51,9.47 -14.85,18.99 -22.44,28.21l-72.3 105.62c-4.88,10.98 -3.18,5.06 -9.8,16.32 -6.27,10.68 -14.2,21.17 -19.84,32.31 -16.77,33.19 -36.47,65.52 -53,98.89 -4.88,9.85 -8.25,30.72 -16.73,35.26zm307.76 83.52c1.61,-27.91 36.96,-93.52 56.87,-116.72l82.57 -118.59c5.66,-7.76 17,-25.56 22.5,-30.52 5.37,3.3 37.06,73.64 42.92,87.36 6.79,15.91 15.16,28.32 21.51,43.64 5.8,13.97 19.91,39.38 20.06,47.25 -41.1,10.54 -234.59,86.11 -246.43,87.58zm-753.21 74.61c8.64,1.7 22.02,9.08 30.17,13.47 20.06,10.81 83.32,31.24 104,34.94 30.56,5.46 49.71,8.24 82.28,7.7 20.21,-0.33 62.17,-7.33 78.22,-14.65 10.8,-4.92 8.32,-1.56 16.13,-5.63 5.76,-2.99 10.32,-4.11 16.49,-6.63 18.4,-7.49 18.19,-5.83 37.79,-1.94 28.16,5.6 54.69,5.46 82.92,1.03 47.54,-7.46 88.09,-32.82 121.56,-64.05 1.23,2.83 1.68,3.85 -0.07,10.37 -8.72,32.41 -6.21,26.74 -57.99,43.44 -28.85,9.31 -55.56,20.94 -84.48,29.81 -14.73,4.52 -27.91,8.87 -42.11,14.38 -14.03,5.44 -28.67,9.75 -42.68,15.18 -18.56,7.2 -203.43,75.33 -209.39,74.58 -3.54,-0.45 -8.15,-6.07 -16.51,-11.93l-33.36 -23.09c-27.3,-18.35 -15.26,-0.13 -40.97,-45.9 -4.57,-8.14 -12.61,-16.01 -22.8,-33.61 -5.79,-9.99 -18.46,-29.07 -19.21,-37.49zm-315.71 315.82c-0.75,-8.96 42.31,-118.86 48.93,-135.43 6.96,-17.38 47.98,-127.21 53.45,-133.29 10.35,-0.37 58.71,13.12 64.32,18.22 10.78,9.79 64.43,81.09 73.16,93.27 13,18.14 24.65,29.62 22.64,60.36 -18.47,8.73 -104.82,39.56 -130.42,48.95 -22.35,8.2 -117.92,45.92 -132.08,47.93zm213.81 -832.91c6.65,2.23 8.71,14.33 13.32,24.14l59.01 97.28c5.34,7.97 9.34,16.57 15.25,23.82 8.64,10.6 11.2,17.95 15.72,23.34l86.99 108.39c11.48,13.81 56.65,78.95 57.67,99.43 -6.43,-3.36 -6.2,-7.93 -13.39,-19.29 -5.91,-9.34 -23,-25.75 -31.16,-33.91 -14.96,-14.96 -36.59,-32.28 -53.39,-45.02 -40.83,-30.95 -74,-49.75 -120.03,-75.33 -13.6,-7.56 -29.96,-14.08 -44.14,-20.99 -12.38,-6.04 -35.24,-15.36 -44.55,-21.95 -0.21,-12.83 9.16,-29.59 14.36,-39.49 5.58,-10.64 35.08,-84.52 38.54,-98.85 1.83,-7.58 1.39,-15.21 5.8,-21.58z"/>
   <path class="fil1" d="M1305.03 2941.08c2.44,-6.73 10.75,-10.13 16.42,-14.19 19.83,-14.19 17,-18.55 37.7,-19.88 47.37,-3.04 148.47,1.23 199.59,15.74 26.89,7.63 68.39,22.89 84.2,45.91 3.41,4.96 2.06,8.26 1.76,15.72l-0.99 25.51c-21.2,-11.21 -45.67,-26.59 -71.21,-33.99 -7.73,-2.24 -9.38,-3.9 -15.29,-5.75l-106.4 -23.69c-11.54,-1.39 -24.73,-2.43 -37.79,-4.3 -19.9,-2.84 -104.37,-5.49 -107.99,-1.08zm797.91 80.28c-16.74,-16.72 -95.43,-82.16 -121.23,-102.53 -19.52,-15.4 -10.06,-58.76 37.31,-63.51l107.32 4.74c26.98,1.86 83.7,13.89 113.28,19.04 16.68,2.71 23.96,5.37 38.83,10.92l275.54 101.3c9.89,3.61 23.17,10.11 33.06,10.93l0 1.91 2.23 -1.59 -146.94 -56.47c-43.4,-16.02 -98.51,-38.85 -140.32,-52.89l-48.49 -18.46 -134.21 -66.63 -27.57 -22.15c-20.59,-22.35 -10.41,-34.5 22.65,-47.54 14.68,-5.78 27.31,-8.63 44.84,-12.55 29.16,-6.51 23.04,-2.72 48.95,-2.72l0 1.92 2.23 -1.59 -2.23 -0.32c-5.88,-3.72 -36.8,-6.37 -44.36,-7.29 -25.13,-3.05 -99.08,-14.61 -118.28,-36.67 3.56,-15.25 27.09,-27.09 42.1,-30.58 -6.66,-28.59 -4.33,-17.77 -46.31,-28.28 -14.05,-3.52 -26.49,-6.86 -38.18,-11.55 -43.91,-17.61 -54.69,-50.31 -32.25,-95.92 10.76,-21.86 19.4,-20.79 50.7,-37.29l24.59 -13.66c6.78,-3.62 12.62,-4.77 16.59,-10.18l1.92 0 -1.59 -2.23 -0.32 2.23c-13.11,3.05 -116.68,59.24 -116.72,59.25 5,13.81 -0.78,-2.63 1.51,19.34l5.67 67.15c1.21,9.33 -1.74,6.85 4.22,11.08 9.86,7.01 78.77,24.77 91.93,24.77 -4.39,6.07 3.96,1.9 -17.75,3.47 -50.37,3.64 -49.89,-5.12 -76.01,-7.29 -6.42,13.37 -3.48,12.72 -14.78,23.47 -6.02,5.72 -14.7,12.72 -23.49,14.76 4.06,15.19 28.6,15.6 40.18,22.94 -27.8,0 -56.73,-12.05 -58.23,-12.17 -8,-0.65 -18.66,8.32 -26.42,9.8 -19.04,3.63 -14.5,-2.37 -30.15,8.1 0,12.86 0.01,10.93 7.11,17.75 3.95,3.8 11.71,9.79 13.94,12.83l-55.45 -21.06c-8.29,-4.54 -7.75,-7.42 -11.51,-15.26 23.61,-15.8 36.53,-6.28 61.23,-5.73 -12.27,-18.3 -39.59,-0.16 -53.58,-21.03l10.33 -8.8c14.68,-7.07 29.26,2.53 33.68,-8.4 -13.73,-6.58 -60.28,10.67 -99.7,-11.27 -6.2,-3.45 -7.43,-2.52 -9.36,-9.76 11.17,-2.98 21.92,-12.82 32.53,-15.29 10.97,20.71 51.15,30.54 74.62,32.49 0,-12.34 2.64,-9.94 -19.56,-16.78 -17.93,-5.53 -42.21,-23.8 -21.37,-35.57 4.98,-2.81 21.71,-11.6 25.62,-12.64 0,11.47 -0.72,23.05 13.4,32.49 0,-20.2 -3.83,-34.32 -3.83,-53.53l-39.9 7.94c-8.83,2.35 -26.84,17.54 -28.99,20.74 9.19,-0.77 16.92,-3.82 28.7,-3.82l-26.5 13.67 -65.61 14.76c-12.23,1.33 -28.64,-1.92 -36.09,-5.49 -1.61,14.7 -34.23,20.87 -46.11,20.88 -44.34,0.02 -35.94,-15.97 -51.47,-5.58 3.38,4.61 13.63,8.28 19.13,9.56 -2.33,8.73 -9.71,8.57 -23.81,10.62 -13.66,1.98 -23.44,8.82 -14.2,11.81l52.37 5.02c4.34,1.13 1.59,-1.2 4.78,3.14l-70.31 10.05c-9.75,1.57 -15,0.85 -17.7,10.98 6.96,-3.33 21.69,-3.82 32.53,-3.82 -2.22,26.64 -62.97,22.81 -82.28,51.61 19.25,-4.47 38.64,-16.57 57.08,-15.12 39.04,3.07 0.15,42.51 -9.21,49.56l-38.31 28.64c2.17,-8.1 7.51,-12.01 7.86,-22.98 0.8,-25.43 -29.21,-29.55 -34.61,-26.87 -2.18,1.08 -15.83,13.31 -17.25,15.44 9.62,0.8 2.4,0.01 7.46,2.11 43.46,18.02 -13.73,79.46 -30.42,83.91 2.65,-9.94 13.08,-19.51 8.81,-35.48 -3.45,-12.91 -12.9,-17.55 -22.21,-23.78 -4.53,3.03 -18.06,12.08 -22.96,13.38 2.21,8.27 3.55,5.2 10.37,12.57 21.53,23.27 -5.85,58.66 -25.07,74.05l-27.4 20.42c2.99,-11.19 33.55,-41.87 3.4,-74.13 -14.88,-15.93 -20.49,-14.13 -33.4,-20.15 -6.65,-3.1 -11.79,-6.53 -18.12,-8.69 -19.48,-6.66 -13.25,-1.79 -7.37,-9.81 -5.01,-3.35 -3.95,-0.97 -5.73,-7.65 -11.38,0.95 -10.55,9.42 -25.44,16.64l-93.2 34.97 -5.74 0 0 1.91c10.12,0 2.85,-0.01 5.74,-1.91 11.14,-0.93 53.92,-17.94 70.78,-22.95 6.78,-2.02 17.69,-7.59 24.88,-7.57 10.79,0.02 73.02,19.18 72.91,55.36 -0.08,29.36 -29.79,69.75 -48.2,89.68 -10.86,11.24 -62.19,46.28 -64.88,53.7 -6.46,1.72 -19.4,11.89 -22.97,17.2l-1.91 0 1.59 2.23 0.32 -2.23c5.13,-1.37 7.51,-4.09 11.8,-7.33 4.38,-3.31 8.23,-5.49 11.17,-9.87 5.78,-1.54 33.86,-23.45 41.55,-29.22l19.35 -15.07c19.08,-14.63 131.06,-5.34 159.5,-1.93 22.45,2.69 74.13,14.5 97.89,24.54l110.32 52.27 -2.6 152.1c-0.53,18.14 0.61,20.4 2.75,39.05 1.44,-22.82 7.6,-194.64 12.8,-204.82 15.46,-30.26 48.91,-59.66 78.87,-74.29 51.87,-25.35 126.24,-30.76 187.95,-31.23l33.99 0.62c17.53,0.13 15.92,1.9 38.91,20.47l84.69 68.32c5.46,4.24 11.56,10.84 18.03,12.57l3.83 3.82c2.86,4.12 0.28,2.52 5.74,3.82 -2.94,-4.22 -0.31,-2.37 -5.74,-3.82zm-562.55 -357.45l-1.91 1.91 -1.91 0 1.59 2.23 2.23 -4.14c4.12,-2.86 2.52,-0.28 3.83,-5.73 -4.23,2.94 -2.37,0.31 -3.83,5.73zm572.12 367.01l0.57 -0.57c-0.04,0.04 -0.76,0.38 -0.57,0.57zm495.58 -19.11l0.57 -0.57c-0.04,0.04 -0.76,0.38 -0.57,0.57zm-9.56 -3.82l0.57 -0.57c-0.04,0.04 -0.76,0.38 -0.57,0.57zm-1371.94 -288.64l0.57 -0.57c-0.03,0.04 -0.76,0.38 -0.57,0.57zm-76.54 120.43c0.19,0.19 0.57,-0.84 0.57,-0.57 -0.04,0.04 -0.76,0.38 -0.57,0.57zm36.36 185.42l1.91 0 -1.59 -2.23 -0.32 2.23 -1.91 0 1.59 2.23 0.32 -2.23zm1050.48 -395.68c1.96,1.96 6.92,-2.75 2.22,-1.03 -0.04,0.02 -5.43,-2.18 -2.22,1.03zm-21.05 95.58l5.74 0 0 -1.92 -5.74 0 0 1.92zm375.03 280.99l5.74 0 0 -1.92 -5.74 0 0 1.92zm-1360.45 -288.64l0 1.91 19.08 -2.26 0.05 -1.56c-9.35,0 -13.47,1.92 -19.13,1.92zm928.01 -82.2c5.04,-2.41 65.69,-5.73 76.54,-5.73l-70.26 0.55c-9.98,2.6 -4.37,0.46 -6.29,5.19zm-338.68 -105.13c-1.38,5.93 -2.45,5.54 -3.83,11.47 10.63,0 13.21,-1.26 21.05,-1.91l0 -11.47c-8.65,0.2 -7.61,1.91 -17.22,1.91zm-221.96 61.17c16.14,0 29.11,-6.54 42.1,-9.56l-8.01 -9.23c-29.21,13.22 -20.52,-1.45 -34.09,18.79zm-17.22 22.94c10.68,0 14.49,1.36 20.98,0.93 24.7,-1.67 38.56,-2.28 61.3,-14.31 -10.98,-14.99 -21.9,-6.69 -27.66,-4.71 -31.64,10.9 -43.87,2.06 -54.62,18.09zm-241.09 290.55l0 0zm0 0l0 0zm317.63 86.01c0,-20.96 -2.28,-32.65 6.85,-46.67 13.85,-21.28 26.39,-28.68 45.17,-40.9 44.12,-28.69 110.55,-37.14 162.63,-31.29 20.03,2.25 30.56,4.84 48.29,9.11 13.29,3.2 10.58,1.97 18.84,9.86 5.31,5.07 13.03,8.85 16.72,13.88 -21.69,-5.05 -103.66,-1.69 -128.08,1.91 -43.91,6.48 -94.9,19.19 -131.35,46.67l-26.18 23.55c-13.22,13.1 -4.51,10.86 -12.88,13.89zm296.59 -95.57l0 0zm-308.07 7.65l0 38.23c-13.68,-9.16 -6.59,-11.35 -34.42,-24.87 -49.56,-24.1 -98.61,-27.41 -152.75,-31.78l-78.8 -0.7 43.75 -32.76c19.53,-11.69 82.99,-20.02 104.53,-21.27 43.42,-2.5 97.26,13.49 116.59,55.26 3.29,7.11 2.1,6.78 1.1,17.88zm520.46 -53.53c2.22,-2.21 10.91,3.24 2.39,0.78 -0.23,-0.07 -5.71,2.54 -2.39,-0.78zm-507.06 84.11l0 0zm0 0c0,-10.76 1.3,-15.79 1.62,-23.22 0.69,-16.23 -0.87,-13.32 7.07,-23.54 30.29,-38.96 76.49,-58.38 130.99,-58.38 24.45,0 41.84,4.77 61.23,9.56 17.4,4.29 35.94,13.16 45.92,26.76 -49.63,-13.29 -68.13,-20.96 -120.69,-14.57 -37.97,4.62 -81.79,28.13 -105.94,57.69l-20.2 25.69zm-243.01 -87.93l0 0zm1.92 -1.91l0 0zm533.85 49.7c-10.5,-7.03 -17.04,-12.61 -20.7,-25.34 -17.14,-59.58 84.83,-52.04 120.07,-49.22 40.48,3.24 77.41,12.93 113.01,30.59 -12.04,0 -22.66,-2.35 -32.87,-3.49 -34.9,-3.89 -157.02,-15.38 -178.82,17.57 -7.56,11.42 -3.35,18.49 -0.7,29.89zm-497.5 -66.91l0.57 0.57c-0.04,-0.04 -0.76,-0.38 -0.57,-0.57zm399.91 -3.82l0.57 0.57c-0.04,-0.03 -0.76,-0.38 -0.57,-0.57zm252.57 -3.82l0.57 0.57c-0.04,-0.03 -0.76,-0.38 -0.57,-0.57zm-3.82 -1.91l0.57 0.57c-0.04,-0.03 -0.76,-0.38 -0.57,-0.57zm-5.74 -1.91l0 0zm0 0l0 0zm-3.83 -1.91l0 0zm-430.53 55.43l0 0zm0 0l2.78 -56.18c0.84,-11.82 20.28,-28.37 31,-34.32 31.73,-17.62 86.67,-8.96 106.64,3.76 6.01,4.31 45.17,35.12 49.02,40.87 -39.93,-9.29 -59.54,-24.07 -114.84,-9.59 -28.31,7.41 -51.95,26.53 -69.39,49.2 -1.89,2.46 -3.51,4.32 -5.2,6.27zm-202.82 -42.05c1.61,-6.02 13.5,-12.51 22.69,-19.39 30.04,-22.51 47.58,-37.95 95.95,-37.95 17.63,0 34.83,8.5 47.71,19.24l14.9 15.7c10.38,11.85 6.27,34 6.27,54.9 -7.63,-5.58 -5.31,-13.17 -32.51,-32.52 -39.31,-27.95 -119.33,-18.84 -155.01,0.02zm591.25 -19.11l0 0zm0 0c-15.23,0 -27.67,-3.97 -43.99,-3.85 -23.07,0.18 -82.89,-5.93 -98.15,22.41 -6.9,12.83 -1.29,24.27 4.37,34.95 -6.12,-1.63 -6.39,-3.29 -13.25,-9.7 -12.54,-11.74 -23.72,-22.76 -32.36,-38.4 -31.06,-56.28 76.48,-43.95 95.43,-37.99l87.94 32.57zm-568.29 -13.38l0 0zm1.91 -1.91l0 0zm486.01 -24.85l0.57 0.57c-0.04,-0.04 -0.76,-0.38 -0.57,-0.57zm-3.83 -1.91l0.57 0.57c-0.04,-0.04 -0.76,-0.38 -0.57,-0.57zm-116.72 43.96l0 0zm0 0l-40.77 -33.82c-13.45,-11.23 -32.02,-34.24 -9.09,-44.67 7.99,-3.63 19.69,-5.06 32.46,-3.53l70.47 25.18c10.09,3.53 10.11,2.5 11.99,7.14 -10.77,-5.17 -48.27,-3 -59.39,1.84 -30.05,13.08 -7.32,41.69 -5.67,47.86zm239.18 1.91c-19.55,-0.43 -101.33,-40.83 -111.23,-64.95 -4.61,-11.22 6.16,-22.12 13.66,-26.78 38.49,-23.92 80.22,-7.67 112.88,-7.67l0 3.82c-14.7,0 -69.41,17.25 -73.43,41.48 -3.91,23.57 45.07,42.78 58.12,54.1zm-19.13 -107.05l0.57 0.57c-0.04,-0.04 -0.76,-0.38 -0.57,-0.57zm-105.24 61.17c-12.2,-2.84 -51.43,-19.05 -63.78,-26.12 -71.2,-40.81 10.43,-49.21 49.32,-43.54 11.65,1.69 19.16,2.76 31.68,2.76 -4.12,5.62 -3.74,3.09 -11.45,5.77 -17.57,6.1 -47.19,23.61 -25.73,44.75 8.8,8.68 16.33,11.44 19.96,16.39zm-292.76 -87.93l51.4 40.4c16.59,13.26 36.09,27.32 50.01,41.8 -24.87,-2.07 -59.69,-19.53 -97.63,11.42 -5.74,4.68 -4.67,6.06 -9.52,9.61l1.89 -22.89c0.5,-25.82 3.85,-53.51 3.85,-80.33zm290.85 13.38l0.57 0.57c-0.04,-0.04 -0.76,-0.38 -0.57,-0.57zm-413.31 66.91l86.1 -65c4.26,-3.06 9.22,-6.75 13.4,-9.55 3.58,15.35 -3.86,86.69 0,103.22l-3.83 0c-2.05,-7.65 -8.5,-13.29 -14.45,-18.06 -32.43,-25.99 -66.39,-10.94 -81.22,-10.61zm231.53 -82.2l0 0zm0 0l0.57 0.57c-0.04,-0.03 -0.76,-0.38 -0.57,-0.57zm-216.22 55.44c2.5,-10.71 9.37,-21.06 -3.57,-25.24 -10.86,-3.5 -7.17,4.56 -9.82,-3.44l82.28 -26.76c-4.23,6.31 -58.79,47.61 -68.88,55.44zm122.46 -57.35l97.88 36.03c7.97,2.71 8.99,0.42 13.1,6.02 -8.37,-0.7 -8.65,-1.67 -18.91,0.14 -22.2,3.91 -10.96,21.62 -9.79,26.63l-82.28 -68.82zm26.79 -3.82c20.94,0 40.36,5.73 63.14,5.73 -5.77,7.86 -12.86,3.73 -3.83,17.2 -7.11,-2.61 -52.64,-18.28 -59.32,-22.94zm-135.85 11.47c-0.85,-10.23 -3.81,-8.4 11.21,-9.77 7.77,-0.71 16.62,-3.63 21.32,-1.69l-32.53 11.47zm32.53 -11.47c2.56,-1.94 -4.02,-1.91 5.74,-1.91 -2.34,1.77 2.15,1.24 -5.74,1.91zm97.58 -11.47l0.57 0.57c-0.03,-0.04 -0.76,-0.38 -0.57,-0.57zm-93.76 0l0.57 0.57c-0.04,-0.04 -0.76,-0.38 -0.57,-0.57zm160.73 11.47c-7.61,-3.65 -36.54,-5.85 -46.54,-7.02 -10.32,-1.21 -10.14,1.75 -14.68,-4.45l63.14 -1.91c1.85,5.22 -5.65,-2.61 -1.92,13.38zm-78.45 -19.11l0 0zm53.58 -1.91l0.57 0.57c-0.04,-0.04 -0.76,-0.38 -0.57,-0.57zm-53.58 1.91c5.96,-5.17 22.27,-14.76 28.7,-15.29 2.16,8.06 9.24,11.25 19.14,11.47l0 3.82c-12.4,-2.62 -39.3,3.95 -47.84,0zm-66.97 -1.91c-13.24,0 -22.81,-1.91 -38.27,-1.91 2.84,-3.87 13.27,-8.99 18.04,-8.13l20.22 10.04zm428.61 -9.56l0.57 0.57c-0.04,-0.04 -0.76,-0.38 -0.57,-0.57zm-53.57 40.14c5.45,3.65 5.26,5.33 12.04,8.99 20.26,10.97 33.39,9.26 47.27,15.85 -23.05,0 -191.12,-30.14 -63.87,-60.03l56.22 -4.96c-7.47,10.19 -44.73,10.42 -51.66,40.14zm-375.04 -43.96c17.74,0 19.35,-2.67 32.53,-5.73 -3.28,4.9 -6.11,10.59 -7.65,17.2 -6.31,-2.64 -20.6,-7.76 -24.88,-11.47zm47.84 9.56c0.62,-7.37 6.23,-18.19 9.57,-32.49 21.68,1.8 32.25,3.49 55.49,-1.91 -2.76,3.76 -56.23,29.74 -65.06,34.41zm124.38 -64.99l0 0zm0 0l0.57 0.57c-0.04,-0.04 -0.76,-0.38 -0.57,-0.57z"/>
   <path class="fil1" d="M1386.55 2359.23c20.47,-57.66 36.65,-108.58 86.91,-147.96 32.33,-25.33 78.4,-54.99 120.96,-51.01 50,4.69 67.98,47.96 69.97,91.95 0.72,15.94 -0.23,31.99 -1.49,47.88 -0.85,10.68 -2.23,22.2 -2.22,32.87 0.02,13.98 -5.41,24.99 -13.83,33.97 9,-3.97 13.35,-7.86 25.24,-7.74 15.89,0.17 29.55,9.76 35.69,23.39 13.21,-19.33 46.93,-36.7 68.37,-45.68 1.52,-0.64 3.05,-1.26 4.6,-1.85 -0.79,-2.96 -1.58,-5.93 -2.39,-8.89 -6.85,-6.84 -10.71,-15.68 -11.2,-25.8 -0.11,-2.25 -0.3,-4.88 -1.02,-7.03 -3.73,-11.08 -2.39,-22.66 2.99,-32.14 4.05,-10.02 11.79,-18.65 20.91,-25.68 8.19,-6.31 17.4,-11.85 26.45,-16.84 25.16,-13.84 69.61,-36.37 86.95,1.87 21.48,3.13 41.88,10.87 60.73,23.25 14.17,9.31 28.25,18.79 42.06,28.64 -1.25,-4.19 -2.72,-6.24 -5.11,-14.63 -2.25,-7.9 -2.01,-15.93 0.36,-23.2 2.9,-12.85 11.93,-23.72 22.98,-32.24 8.19,-6.31 17.4,-11.85 26.45,-16.83 25.16,-13.84 69.62,-36.37 86.96,1.87 21.48,3.13 41.88,10.88 60.73,23.25 23.37,15.35 46.48,31.16 68.54,48.34 -2.85,-26.34 -5.93,-52.65 -9.23,-78.94 -4.02,-32.05 24.6,-54.2 48.47,-69.34 9.7,-6.15 24.82,-14.8 35.68,-19.2 24.86,-10.08 53.35,2.27 56.97,30.98 2.54,20.15 4.94,40.31 7.21,60.49 19.74,-7.73 39.83,-8.54 55.5,8.25 18.53,19.85 38.65,37.98 60.1,54.44 11.42,-20.43 23.51,-40.48 36.26,-60.11 10.98,-16.92 30.51,-27.41 48.57,-35.25 9.6,-4.16 20.16,-7.45 29.58,-11.57 12.68,-8.06 29.45,-8.54 42.84,0.15 18.26,11.85 23.49,36.41 11.65,54.68 -73.99,114.23 -126.18,244.38 -137.77,380.76 -2.54,29.9 -32.95,45.98 -56.99,57.34 -8.63,4.07 -35.28,16.67 -47.33,17.61 -24.31,1.89 -44.65,-18.8 -42.46,-43.14 0.88,-10.35 1.98,-20.68 3.28,-30.97 -17.18,15.29 -40.56,26.39 -58.32,35.68 -28.71,16.27 -58.96,-4.17 -60.12,-32.12 -1.96,-47.13 -4.59,-94.23 -7.92,-141.29 -3.79,2.16 -7.5,4.3 -11.06,6.48 -24.31,14.86 -48.67,29.63 -73.04,44.39 3.67,34.77 6.29,69.66 7.81,104.6 1.87,43.04 -51.33,60.51 -83.45,74.63 -29.05,14.13 -57,-6.45 -58.14,-33.22 -2.35,-55.08 -7.5,-109.92 -15.54,-164.31 -4.13,2.35 -8.19,4.68 -12.07,7.05 -24.3,14.86 -48.66,29.63 -73.04,44.38 3.67,34.78 6.3,69.66 7.81,104.6 1.87,43.04 -51.33,60.52 -83.45,74.63 -29.05,14.13 -57,-6.45 -58.13,-33.21 -1.51,-35.47 -4.19,-70.84 -8.05,-106.05 -17.35,23.2 -42,39.71 -69.5,53.87 -50.7,26.09 -97.92,11.47 -131.33,-27.06 -52.14,74.47 -116.83,142.22 -187.43,195.9 -34.23,26.03 -79.67,59.78 -125.19,45.35 -59.81,-18.97 -76.82,-90.09 -82.77,-150.98 -16.12,11.15 -36.43,17.44 -54.03,25.09 -10.58,6.4 -24,7.79 -36.17,2.54 -4.63,-1.99 -8.68,-4.77 -12.08,-8.12 -3.61,1.45 -7.31,2.73 -11.07,3.62 -20.22,4.82 -41.04,-3.67 -49.25,-23.78 -0.57,-1.4 -1.14,-2.81 -1.69,-4.21 -14.28,11.09 -28.83,21.8 -44.28,31.44 -25.87,16.14 -54.59,34.97 -86.8,28.89 -24.1,-4.55 -39.81,-21.18 -48.87,-42.26 -5.45,23.87 -32.37,44.43 -51.91,58.12 -13.03,9.13 -33.49,22.36 -49.2,26.3 -22.76,5.7 -46.1,-5.87 -52.03,-29.42 -22.47,-89.29 -32.95,-180.79 -33.34,-272.65 -31.92,8.59 -66.92,19.89 -85.51,31.04 -14.55,8.73 -38.35,21.88 -54.38,27.28 -23.83,8.03 -50.4,2.05 -59.54,-24.36 -7.07,-20.44 2.37,-38.49 17.31,-51.59 14.42,-12.64 34.65,-23.81 51.08,-33.64 60.62,-36.26 124.66,-65.4 193.56,-81.61 8.98,-4 18.06,-7.8 27.2,-11.39l13.55 -5.04c9.87,-3.27 20.16,-2.39 29,1.52 59.98,-11.01 126.97,-16.47 181.12,12.83 19.09,10.33 26.29,34.27 16.07,53.43 -4.81,9.01 -12.65,15.4 -21.59,18.59l-25.2 19.53c19.72,-5.23 39.63,-9.82 59.49,-14.22 3.59,-4.69 8.09,-8.87 13.16,-12.9 15.86,-12.91 42.27,-28.48 61.69,-35.58 27.48,-10.05 57.92,5.05 58.06,36.5 0,0.55 0,1.09 -0.01,1.63 4.02,4.16 7.22,9.4 9.28,15.73 4.78,14.72 0.75,28.85 -8.48,40.02 1.25,3.83 1.94,7.91 1.95,12.15 0.03,10.06 0.43,20.1 1.23,30.09 0.26,-0.09 0.51,-0.18 0.76,-0.27 22.15,-60.03 42.41,-120.75 60.74,-182.06 6.65,-22.26 32.15,-36.31 51.46,-46.57 8.93,-4.75 23.46,-12.01 33.17,-15.32 24.78,-8.43 51.7,5.12 54.69,32.76 2.43,22.44 6.05,44.68 10.88,66.63zm77.59 187.86c8.14,12.58 16.8,24.82 25.95,36.68 18.13,-24.99 39.28,-56.21 52.99,-83.63 -20.42,11.71 -40.59,26.51 -60.69,37.32 -6.06,3.25 -12.14,6.46 -18.25,9.63zm-75.36 152.2c-0.99,-1.13 -1.97,-2.26 -2.94,-3.39 0.71,1.37 1.45,2.73 2.21,4.08 0.25,-0.23 0.49,-0.46 0.73,-0.69zm1041.19 -229.27c7.72,-29.36 17,-58.31 27.66,-86.76 -11.86,-7.26 -23.44,-14.92 -34.73,-22.98 2.77,36.55 5.13,73.13 7.07,109.73zm-931.46 -48.3c11.47,-6.96 23.02,-13.79 34.81,-20.19 -15.26,-12.64 -14.91,-26.8 -13.74,-44.37 -7.6,21.31 -14.67,42.85 -21.06,64.56zm1017.03 -209.89c7.67,-12.97 15.61,-25.77 23.81,-38.41 13.69,-21.09 35.93,-33.82 58.42,-43.58 9.26,-4.02 18.92,-7.03 28.16,-10.96 20.17,-11.95 45.52,-11.57 65.33,1.29 28.48,18.5 36.71,57.09 18.25,85.59 -71.98,111.11 -122.98,237.83 -134.26,370.49 -3.37,39.62 -37.34,60.37 -69.71,75.67 -8.62,4.07 -34.6,15.64 -45.97,18.27 -35.26,8.16 -69.98,-15.59 -75.25,-51.48 -7.34,3.98 -14.81,7.79 -22.23,11.66 -44.01,24.54 -91.58,-6.65 -93.41,-50.69 -1.44,-34.75 -3.26,-69.48 -5.44,-104.19 -13.51,8.23 -27.04,16.43 -40.57,24.63 2.98,30.54 5.15,61.17 6.48,91.83 1.28,29.54 -15.29,51.8 -38.82,67.67 -18.01,12.14 -37.58,19.47 -57.27,28.09 -44.43,21.15 -88.37,-10.26 -90.17,-52.42 -1.83,-43.02 -5.41,-85.95 -10.77,-128.67 -14.62,8.91 -29.25,17.78 -43.88,26.64 2.98,30.54 5.15,61.17 6.48,91.83 1.28,29.54 -15.29,51.81 -38.82,67.67 -18.02,12.14 -37.59,19.47 -57.28,28.09 -44.43,21.15 -88.37,-10.26 -90.16,-52.43 -0.83,-19.54 -2.02,-39.06 -3.58,-58.55 -12.93,9.63 -26.98,17.87 -41.41,25.29 -48.87,25.15 -98.95,19.01 -138.52,-12.95 -50.12,67.4 -110.3,129.03 -176.93,179.7 -41.18,31.31 -91.11,66.11 -145.48,48.87 -60.56,-19.21 -84.19,-79.52 -94.03,-137.8 -8.53,3.57 -17.21,6.85 -25.9,10.58 -16.85,9.58 -37.23,10.81 -55.13,3.09 -2.52,-1.09 -4.97,-2.33 -7.31,-3.74 -23.63,6.21 -48.02,-0.08 -64.05,-16.71 -8.58,6.22 -17.33,12.21 -26.33,17.83 -31.61,19.73 -63.85,39.25 -102.78,31.89 -17.2,-3.25 -31.6,-11.15 -43.1,-22.38 -19.79,22.31 -68.14,56.94 -97.29,64.25 -34.78,8.72 -70.23,-10.24 -79.14,-45.65 -20.47,-81.36 -31.23,-164.76 -33.55,-248.54 -15.71,4.88 -38.65,12.57 -52.13,20.65 -16.21,9.72 -40.89,23.28 -58.74,29.3 -35.97,12.12 -74.71,-0.38 -87.8,-38.24 -10,-28.89 1.62,-56.33 23.7,-75.7 15.94,-13.98 36.2,-25.16 54.35,-36.02 61.91,-37.02 127.54,-66.88 197.86,-83.7 8.65,-3.82 17.39,-7.46 26.2,-10.92l14.7 -5.46c12.42,-4.11 25.68,-4.13 38.03,-0.32 62.92,-11.05 131.88,-15.07 189.75,16.24 20.95,11.34 32.75,33.12 32.43,55.45 15,-10.06 36.02,-21.78 52.87,-27.94 37.58,-13.74 77.98,5.37 86.48,42.86 8.09,-24.72 15.86,-49.55 23.31,-74.47 8.83,-29.56 36.82,-46.32 62.39,-59.91 10.16,-5.41 25.43,-12.98 36.46,-16.74 34.14,-11.62 70.09,5.05 81.11,37.76 14.73,-30.86 33.71,-58.42 64.78,-82.76 37.38,-29.28 87.46,-60.29 136.83,-55.67 61.49,5.76 87.69,57.27 90.22,113.2 0.76,16.9 -0.21,33.81 -1.54,50.65 -0.81,10.28 -2.17,20.78 -2.15,31.07 0.01,1.66 -0.05,3.3 -0.16,4.93 9.56,1.76 18.48,5.74 26.1,11.5 11.9,-9.37 27.53,-18.22 41.28,-25.11 -3.2,-7.08 -5.03,-14.77 -5.42,-22.82 -0.02,-0.51 -0.04,-1.11 -0.1,-1.66 -5.22,-16.07 -3.73,-33.46 4.24,-48.32 5.81,-13.52 15.85,-24.74 27.43,-33.66 20.74,-15.98 57.96,-35.85 83.04,-39.8 24.09,-3.79 44.99,3.55 58.18,22.39 20.99,4.47 40.75,12.86 58.84,24.73 1.25,0.82 2.49,1.64 3.74,2.46 7.81,-29.82 34.48,-47.62 59.95,-61.62 16.61,-9.13 34.82,-18.12 53.71,-21.09 24.09,-3.78 44.99,3.55 58.19,22.39 20.99,4.47 40.75,12.85 58.83,24.73 9.49,6.24 18.94,12.54 28.3,18.99 -1.12,-9.38 -2.27,-18.75 -3.44,-28.13 -5.25,-41.81 26.7,-70.72 58.68,-91 10.94,-6.94 27.03,-16.08 39.25,-21.04 38.88,-15.77 82.15,6.1 87.55,48.9 1.51,11.96 2.97,23.92 4.38,35.89 19.19,-1.45 37.52,4.35 52.5,20.4 11.8,12.64 24.32,24.59 37.45,35.82z"/>
   <path class="fil2" d="M812.17 2369.7c0.12,-2.6 0.09,-5.05 0.21,-7.65 0.04,-0.25 -19.25,6.78 -41.35,16.78 -64.19,14.6 -125.01,41.51 -185.93,77.89 -5.79,3.52 -54.18,30.27 -51.32,38.34 2.65,7.86 53.39,-22.24 56.2,-23.91 29.9,-17.93 102.93,-38.52 146.22,-47.47 -3.98,110.05 6.34,214.03 31.34,313.34 2.25,8.91 79.51,-42.57 76.13,-55.97 -20.99,-83.31 -31.61,-169.9 -32.1,-260.64 28.38,1.27 53.48,6.2 71.2,15.74 22.1,11.86 101.57,-65.47 107.63,-62.28 -48.43,-26.21 -114.97,-17.3 -178.22,-4.18zm1845.39 -197.63c-2.46,3.78 -54.7,17.25 -66.27,35.04 -20.61,31.79 -39.09,64.11 -55.54,96.68 -37.88,-24.44 -72.31,-52.78 -102.91,-85.56 -6.31,-6.76 -42.41,19.15 -59.25,31.98 -4.07,-41.07 -8.67,-81.99 -13.78,-122.76 -0.31,-2.19 -64.76,30.74 -62.63,47.68 16.61,132.4 27.74,266.38 33.37,401.95 0,-0.91 63.39,-28.02 62.63,-47.68 -3.66,-87.85 -9.61,-175.04 -17.87,-261.56 31.42,31.94 66.55,59.62 105.38,83.12 6.23,3.77 28.23,-10.84 35.26,-14.88 0.58,-0.31 2.93,-1.86 5.97,-3.89 -42.53,91.64 -68.51,185.36 -76.33,277.66 -0.04,0.23 66.77,-24.53 67.99,-38.86 11.35,-133.56 60.38,-269.85 143.99,-398.91zm-480.66 71.65c-21.86,-14.36 -45.02,-19.54 -68.56,-18.12 -1.83,-6.37 -3.54,-12.82 -5.49,-19.19 -1.18,-3.86 -65.57,27.93 -62.55,38.02 0.18,0.57 0.31,1.1 0.46,1.68l-1.58 0.84c0.39,1.35 0.75,2.74 1.04,4.17 0.45,2.1 3.03,5.92 4.76,13.08l0.8 -0.2c33.75,118.49 53.55,241.55 58.96,368.62 -0.08,-0.98 63.2,-22.95 62.55,-38.02 -1.86,-42.86 -5.41,-85.17 -10.44,-127.05 31.54,-19.08 63.06,-38.14 94.55,-57.39 11.93,-7.3 47.46,-24.54 54.17,-39.12 15.39,-33.49 -104.83,-111.65 -128.68,-127.33zm-21.25 214.03c-7.16,-57.04 -17.37,-113.19 -30.63,-168.38 4.5,3.4 8.85,6.82 13.11,10.11 27.66,21.38 103.84,65.47 105.21,105.2 -26.13,20.15 -57.97,36.69 -87.69,53.07zm-213.17 -180.9c-21.86,-14.36 -45.02,-19.54 -68.57,-18.12 -1.83,-6.36 -3.54,-12.82 -5.48,-19.18 -1.18,-3.86 -65.57,27.92 -62.55,38.02 0.17,0.58 0.31,1.1 0.46,1.69l-2.69 1.43c1.84,5.47 2.73,11.11 3.04,17.77 1.54,-0.49 3.09,-0.93 4.68,-1.32 33.75,118.5 53.56,241.56 58.97,368.62 -0.08,-0.98 63.2,-22.95 62.55,-38.02 -1.86,-42.85 -5.41,-85.17 -10.44,-127.05 31.54,-19.09 63.06,-38.15 94.54,-57.4 11.94,-7.3 47.46,-24.54 54.17,-39.12 15.39,-33.49 -104.83,-111.65 -128.67,-127.33zm-21.25 214.04c-7.16,-57.04 -17.37,-113.19 -30.63,-168.38 4.5,3.4 8.84,6.82 13.11,10.11 27.66,21.37 103.84,65.47 105.21,105.2 -26.13,20.15 -57.97,36.69 -87.69,53.07zm-119.17 -120.47c-0.99,-3.52 -65.52,27.47 -62.63,38.03 7.77,28.46 11.96,57.73 10.29,88.6 -0.76,14.36 -1.45,33.42 -6.4,50.42 -21.41,-11.83 -41.83,-41.93 -49.68,-55.83 -15.46,-27.76 -22.17,-59.34 -21.94,-92.89 0,2.06 -62.47,22.08 -62.62,38.03 -0.38,62.38 43.57,185.75 126.08,143.31 31.39,-16.17 59.88,-35.51 69.78,-70.66 13.19,-46.81 8.84,-96.1 -2.89,-139.01zm-400.48 147.37c10.21,-4.26 20.87,-11.86 28.95,-17.27 2.81,-1.92 24.22,-19.19 19.2,-18.71 -20.65,2.01 -41.14,4.68 -61.63,7.87 -26.67,-59.46 -44.26,-124.09 -51.73,-192.82 -0.23,-2.41 -58.89,25.62 -62.09,36.2 -20.26,67.93 -42.97,135.21 -68.03,201.91 -13.48,4.65 -26.89,9.44 -40.22,14.59 -7.33,2.84 -15.26,6.31 -22.88,10.42 -5.95,-27.61 -8.96,-56.18 -9.04,-85.89 0,1.83 -62.7,22.35 -62.62,38.1 0.13,31.29 3.47,61.34 10.06,90.34 -1.58,0.26 -3.55,0.72 -5.8,1.32 -14.47,3.8 -32.07,17.41 -44.26,26.9 -8.6,6.78 -17.29,13.49 -25.97,20.28 -5.18,4.08 -10.44,8.1 -15.62,12.19 0.84,-3.24 1.76,-6.42 2.67,-9.67 -10.59,-11.84 -13.49,-24.22 -17.14,-40.24 -2.13,-9.53 -4.12,-19.23 -6.02,-28.86 12.04,-5.97 24.07,-11.94 36.11,-17.91 8.3,-4.14 16.53,-9.04 24.3,-14.25 4.19,-2.73 14.62,-8.7 17.75,-13.33 1.98,-3.02 4.19,-3.26 1.45,-5.31 -2.21,-1.59 -14.25,5.36 -15.7,6.1 -22.01,10.96 -44.11,21.85 -66.13,32.81 -4.11,-22.2 -7.62,-44.64 -10.59,-67.22 2.66,-0.61 5.41,-1.22 8,-1.89 40.38,-10.66 80.83,-21.4 121.28,-32.07 14.02,-3.73 32.38,-14.56 43.66,-24.45 3.05,-2.79 21.79,-16.49 8.15,-12.88 -7.26,1.92 -14.63,3.77 -22.09,5.56 9.7,-9.91 15.84,-21.79 15.77,-34.99 0,-3.81 -31.24,13.25 -33.52,14.64 -7.32,4.54 -14.78,9.18 -21.49,14.77 -2.28,1.92 -7.62,5.34 -7.62,8.62 0.06,2.61 -0.18,5.15 -0.65,7.68 -66.32,14.48 -135.61,29.38 -193.69,62.98 -20.88,12.17 -56.76,44.29 -12.42,18.59 8.76,-5.05 18.81,-8.83 29.41,-11.93 -0.08,0.46 -0.31,0.95 -0.23,1.48 4.41,37.31 10.05,74.23 17.6,110.65 4.03,19.54 5.79,58.45 29.79,62.98 17.98,3.4 43.04,-13.93 58.51,-23.58 28.72,-17.93 55,-40.54 81.82,-61.47 1.51,-1.18 2.74,-2.2 3.71,-3.08 4.58,19.08 10.57,37.7 18.01,55.93 2.21,5.4 65.9,-29.89 62.62,-38.03 -6.66,-16.32 -12.17,-32.96 -16.54,-49.97 16.82,-5.86 33.67,-11.26 50.52,-16.23 -14.33,37.22 -29.33,74.31 -45.18,111.14 1.22,-2.84 54.09,-17.09 61.56,-34.37 13.03,-30.33 25.45,-60.74 37.48,-91.31 24.91,-5.96 49.98,-10.95 75.11,-14.96 29.11,64.38 69.02,122.58 119.16,172.71 8.61,8.61 63.76,-36.97 62.62,-38.03 -43.12,-43.12 -78.7,-92.18 -106.35,-146.02zm-140.33 -0.12c10.74,-27.95 21.03,-56.07 30.86,-84.2 6.4,24.09 14.17,47.52 23.23,70.23 -18.06,4.15 -36.11,8.84 -54.09,13.97z"/>
   <path class="fil1" d="M1457.09 2477.12c45.75,-26.53 89.57,-58.25 139.36,-75.77 22.32,-7.85 52.31,-11.03 66.27,12.74 12.16,20.7 3.12,48.96 -7.04,68.54 -55.65,107.29 -140.74,207.59 -236.94,280.74 -25.8,19.62 -67.32,52.12 -101.56,41.26 -59,-18.71 -64.94,-116.2 -67.4,-167.62 -2.4,-50.39 32.73,-76.19 78.6,-83.56 10.48,-1.68 22.13,-2.47 34.17,-2.39 -1.41,-2.55 -2.02,-5.62 -1.45,-8.99 0.02,-0.11 0.04,-0.2 0.06,-0.31 11.64,-60.35 30.37,-118.98 50.98,-176.79 18.21,-51.08 32.73,-98.23 77.38,-133.21 14.5,-11.36 30.02,-22.14 46.34,-30.72 16.64,-8.75 37.02,-16.65 56.13,-14.86 35.69,3.34 45.03,36.96 46.39,67.2 0.67,14.83 -0.27,29.86 -1.44,44.65 -0.9,11.43 -2.31,23.53 -2.3,34.96 0.02,17.09 -22.31,28.39 -35.52,34.78 -7.07,3.42 -14.29,6.52 -21.54,9.53 -3.39,1.4 -7.68,2.93 -11.03,4.59 -2.25,1.67 -5.03,2.66 -8.03,2.67 -7.44,0.01 -13.52,-6.05 -13.54,-13.49 -0.07,-25.32 9.49,-85.6 -0.35,-106.8 -0.99,-2.13 -4.21,-8.44 -6.66,-10.58 -2.6,1.73 -6.39,7.21 -7.63,9.16 -4.46,7.03 -8.13,15.1 -11.27,22.81 -25.24,61.89 -47.06,126.11 -61.97,191.45zm-64.06 75.95c17.31,2.15 34.1,5.99 48.1,11.45 6.94,2.7 10.39,10.55 7.7,17.49 -1.71,4.4 -5.49,7.41 -9.8,8.33 -2.69,1.78 -6.29,5.05 -8.41,6.85 -5.65,4.79 -11.24,9.64 -17.06,14.23 -11.49,9.06 -29.45,22.34 -44.86,16.33 -9.8,-3.82 -19.86,-7.08 -30.11,-9.52 1.9,14.92 5.23,29.74 8.19,44.39 5.65,27.85 16.09,48.52 32.2,71.61 0.92,1.32 2.65,3.9 4.35,6.16 0.62,-0.6 1.18,-1.17 1.6,-1.58 4.38,-4.27 8.69,-8.55 13.21,-12.68 12.45,-11.4 24.55,-23.18 36.31,-35.29 26.49,-27.28 50.93,-56.5 73.37,-87.19 21.27,-29.09 41.93,-59.43 58.38,-91.54 6.09,-11.89 14.47,-33.36 12.9,-46.67 -0.16,-1.37 -0.49,-4.31 -2.09,-4.89 -5.21,-1.88 -17.22,2.55 -21.91,4.5 -14.39,5.99 -28.26,14.53 -41.42,22.84 -14.37,9.08 -28.63,18.58 -43.61,26.64 -25.29,13.61 -51.05,26.31 -77.03,38.55z"/>
   <path class="fil3" d="M1600.94 2414.11c-55.92,19.64 -109.02,61.27 -163.19,89.04 14.63,-74.82 39.32,-150.39 68.8,-222.58 11.5,-28.29 31.39,-62.87 50.36,-21.97 11.8,25.45 1.52,83.74 1.6,112.45 0,-1.91 62.62,-22.26 62.62,-38.03 -0.08,-37.63 20.19,-128.63 -30.4,-133.37 -29.48,-2.77 -69.1,24.16 -92.86,42.76 -42.21,33.09 -56.07,79.61 -72.99,127.11 -20.65,57.84 -39.01,115.52 -50.43,174.81 -0.38,2.27 12.34,-3.27 10.74,-2.51 26.44,-12.42 52.57,-25.26 78.48,-39.2 27.88,-14.99 57.52,-38.07 86.24,-50.05 59.04,-24.58 45.18,32.77 28.34,65.7 -16.61,32.36 -37.87,63.79 -59.51,93.35 -22.78,31.18 -47.61,60.82 -74.58,88.63 -11.96,12.28 -24.23,24.22 -36.87,35.84 -24.84,22.71 -23.16,29.18 -39.39,5.87 -16.91,-24.2 -28.19,-46.22 -34.36,-76.66 -3.13,-15.4 -9.07,-40.92 -9.91,-63.66 17.37,2.42 34.21,7.35 49.98,13.5 16.38,6.37 57.14,-40.15 62.63,-38.03 -47.08,-18.33 -177.13,-28.91 -172.94,59.26 2.21,46.24 7.62,139.4 57.98,155.37 27.57,8.75 66.73,-21.92 89.29,-39.13 94.85,-72.07 178.73,-171.23 233.12,-276.21 24.07,-46.29 9.9,-80.86 -42.74,-62.3l0 0z"/>
   <path class="fil4" d="M1600.81 59.47c43.23,16.8 85.75,54.74 101.82,92.03 21.98,51 8.78,32.67 -8.65,46.49l-18.92 19.27c-17.06,-0.4 -21.7,-27.44 -69.26,-42.75 -46.13,-14.85 -31.66,-5.51 -80.41,-30.97 -21.35,-11.15 -22.13,-18.39 -37.93,-17.28 -37.39,5.46 -55.65,13.71 -83.46,39.35 -13.22,12.19 -27.61,22.33 -40.94,3.17 -15.56,-22.36 6.64,-69.56 24.01,-86.24 21.59,-20.7 57.69,-32.13 86.71,-36.89l4 -0.65c42.59,-6.03 82.82,-0.22 123.02,14.47zm-474.49 1917.89c25.65,0.3 54.22,23.07 59.31,52.9 -12.11,-4.36 -13.4,-22.03 -41.65,-40.71 -6.21,-3.95 -15.14,-7.31 -17.66,-12.19zm124.88 -216.59c10.94,-0.44 10.65,3.72 13.79,13.66 2.54,8.02 4.73,14.9 0.36,20.66 -10.52,-0.64 -15.22,-22.9 -14.14,-34.32zm45.3 -18.02l9.89 -1.13c5.96,10.8 15.65,29.03 13.44,44.62l-10.74 2.82c-5.17,-6.46 -14.15,-37.92 -12.58,-46.3zm-690.19 127.27c-8.97,-24.54 -9.5,-64.45 -11.8,-91.49 -0.42,-4.59 -11.47,-125.92 5,-101.91 3.87,5.65 6.93,21.21 8.38,28.34 6.19,29 9.51,43.92 11.06,73.33 1.44,27.41 9.31,47.79 5.3,77.7 -0.88,6.59 -3.74,39.19 -15.54,19.04l-2.4 -5zm649.42 -196.52c-18.33,-32.9 -7.31,-40.96 27.57,-27.66 11.05,4.21 51.16,24.84 48.63,38.94 -0.73,4.09 -24.04,7.16 -30.95,9.46 -29.6,9.87 -26.2,10.18 -45.25,-20.74zm538.86 214.17c-66.45,22.31 -131.2,42.28 -196.86,65.08 -8.11,2.82 -16.45,4.83 -24.25,7.58 -8.67,3.06 -13.97,6.73 -23.85,9.37 -41.54,11.12 -107.25,34.49 -148.15,48.7l-170.03 58.81c-5.15,1.85 -8.04,3.33 -8.74,-1.98 -2.81,-21.21 19.76,-25.84 38.01,-32.63 7.45,-2.77 13.26,-2.56 21.15,-6.29 54.47,-25.76 116.49,-49.56 173.74,-70.84 11.41,-4.24 70.26,-31.04 72.78,-36.19 -36.48,-3.39 -176.11,56.49 -225.76,69.84l-74.76 25.13c-10.15,-30.09 -23.92,-40.23 -45.26,-57.42 -17.67,-14.23 -30.87,-33.63 -74.88,-19.3 -8.65,2.81 -16.75,6.63 -24.85,9.95 -24.43,10.01 -73.23,-13.44 -125.72,46.46 -8.52,9.71 -20.06,33.73 -22.4,45.48 -9.26,46.31 -1.67,37.05 -3.72,60.17 -16.73,6.24 -24.84,10.88 -44.88,14.28 -14.65,2.49 -39.88,6.36 -53.1,0.54 4.61,-7.13 10.25,-6 17.74,-11.2 5.62,-3.91 16.04,-6.96 17.94,-12.45 -31.55,-2.82 -64.5,22.95 -101.03,11.8 -0.57,-15.63 34.52,-51.4 46.93,-63.05 52.17,-48.98 200.26,-97.43 278.86,-127.77 17.83,-6.88 35.7,-13.75 53.35,-20.42l161.07 -60.37c9.42,-5.15 40.35,-13.72 54.22,-19.57 23.83,-10.04 35.48,-14.39 56.53,0.53 13.16,9.32 21.71,31.06 34.33,39.49 19.14,12.79 40.42,-2.6 32.96,-28.65 -4.73,-16.49 -23.22,-36.12 -22.93,-50.14 67.37,-23.71 136.77,-47.55 203.74,-71.97 22.96,-8.37 45.81,-15 68.26,-24.33l66 -25.22c115.38,-34.69 225.17,-83.82 339.03,-122.56 66.45,-22.87 105.15,-43.54 179.27,-38.13 46.87,3.42 96.36,25.05 127,61.34 22.1,27.44 32.93,65.65 10.18,96.35 -8.43,11.36 -9.07,6.44 -13.37,-4.42 -14.13,-35.7 -29.47,-71.92 -69,-85.52 2.11,22.39 73.75,96.49 45.1,126.05 -27.51,28.38 -116.59,44.29 -156.31,55.49 -32.18,9.3 -42.8,20.37 -56.76,-3.29 -7.74,-13.11 19.2,-75.55 -58.29,-125.5 -76.28,-49.16 -199.55,-0.93 -200.5,96.52 0.51,23.24 2.64,25.58 7.08,46.91 3.35,16.09 -5.53,15.86 -20.84,21.26 -4.5,1.58 -60.03,21.48 -52.14,28.77 4.25,3.93 80.82,-17.85 90.46,-12.86 4.89,2.53 15.49,14.96 12.73,19.69 -3.54,6.08 -65.62,23.67 -77.37,27.91 -28.66,10.34 -58.17,19.45 -87.21,29.74 -8.5,3.01 -16.99,5.97 -25.53,8.86zm111.98 -316.22c-5.48,-10.65 -9.95,-20.15 -9.85,-34.9 0.07,-11 1.49,-31.88 10.9,-34.21 2.19,10.33 -3.64,23.4 -4.1,34.21 -0.45,10.84 6.66,26.8 3.05,34.9zm-27.43 6.85c-13.62,-4.21 -19.42,-39.87 -7.84,-68.37 3.34,-7.08 -0.14,-1.86 3.48,-4.08 3.43,8.49 -4.07,25.26 -4.07,36.5 0,18.42 6.62,23.27 8.43,35.96zm81.97 -117.58c-6.33,0.19 -55.62,-4.45 -61.73,-1.96 -4.86,4.08 -3.39,7.81 -11.28,10.09 2.03,-34.78 43.58,-49.23 52.96,-55.58 5.22,-3.53 24.49,-11.03 24.48,-2.61 -0.02,14.53 -0.73,36.73 -4.42,50.07zm-372.97 -245.81c-35.37,-6.89 -48,-1.08 -63.13,-4.59 6.98,-4.35 28.06,-11.7 37.25,-15.25 7.56,-2.91 13.09,-6.48 19.55,-0.93 5.51,4.73 7.66,10.48 6.32,20.76zm-926.39 29.45c-8.43,-0.73 -32.39,21.4 2.18,-57.57 2.55,-5.83 4.16,-11.79 6.33,-16.88 6.19,-7.08 123.88,-20.37 146.63,-22.72 26.64,-2.75 39,-8.64 66.41,-4.94 -2.16,7.27 -7.48,5.21 -17.49,20.65 -14.18,21.87 -26.26,13.37 -57.72,17.44 -12.28,1.59 -71.99,4.73 -80.26,6.74 -71.56,19.72 -44.19,42.27 -56.6,103.41 -4.58,22.55 -4.08,53.76 -11.57,73.22 -4.07,10.59 -7.64,33.73 -11.21,46.97 -10.09,37.48 -13.07,63 -18.96,100.39 -3.09,19.62 -23.91,137.14 -52.89,129.25 -17.97,-4.89 -7.93,-49.79 -4.37,-62.7 10.4,-37.69 23.62,-76.54 34.75,-114.55 18.83,-64.31 36.74,-128.06 50.54,-193.7 1.75,-8.47 3.1,-16.44 4.22,-25.02zm1291.9 155.46c-10.52,4.08 -17.64,6.5 -29.94,7.11 4.2,-30.79 25.77,-67.79 39.23,-93.34 17.79,-33.77 48.76,-96.89 63.4,-133.37 5.6,-13.95 53.73,-129.54 62.41,-136.77 8.18,4.93 18.21,25.15 22.13,31.2 8.35,12.87 13.08,17.33 20.07,35.03 6.78,17.18 2.02,19.97 -17.34,47.8l-71.64 110.69c-9.84,12.44 -29.75,45.79 -44.34,65.65 -5.03,6.84 -11.39,14.61 -15.39,20.91 -12.38,19.49 -25.12,7.73 -28.6,45.08zm-371.07 -310.46c1.69,12.9 6.09,52.4 2.45,63.4 -30.32,-3.43 -98.22,-71 -123.99,-91.33 -9.29,-7.28 -2.86,-6.87 7.62,-8.74 60.8,-11.06 101.53,-42.03 112.24,25.82l1.68 10.85zm40.68 54.14c-15.62,-22.25 -18.35,-92.73 -2.06,-114.32 14.08,-18.66 45.46,-24.43 66.74,-34.39 96.83,-45.47 117.99,-85.57 108.53,-51.1 -28.33,103.26 -64.15,204.15 -102.64,304.23 -5.11,13.3 -12.12,23.89 -17.04,37.89 -4.59,13.05 -12.81,33.31 -21.98,43.55 -8.55,-19.98 -29.89,-107.48 -30.01,-128.55 -0.08,-15.47 5.36,-15.08 19.49,-21.46 6.06,-2.73 30.96,-12.5 33.32,-18.06 -7.33,-9.17 -38.25,-2.17 -54.36,-17.78zm734.65 185.63c2.55,10.85 4.17,18.48 3.27,29.68 -10.55,1.98 -19.97,-1.86 -31.8,-2.15 -6.03,-24.84 -20.1,-54.44 -28.45,-83.6 -14.58,-50.91 -27.76,-84.49 -39.39,-138.64 -12.54,-58.4 -22.42,-106.32 -32.37,-165.11 -8.23,-48.66 -36.58,-45.66 -82.45,-39.28 -61.61,8.57 -88.37,61.26 -142.21,89.21 -9.91,5.14 -60.05,33.92 -68.31,34.67 32.4,-62.59 160.65,-162.14 233.91,-178.52 76.32,-17.06 102.13,2.12 105.3,77.62 2.07,49.34 -9.52,38.51 9.11,98.84 29.91,96.86 50.99,179.29 73.39,277.28zm-572.89 -440.94c-23.9,39.88 -91.52,71.24 -138.87,77.49 -35.41,4.68 -46.19,-12.54 -59.37,-45.53 -4.31,-10.81 -17.53,-70.22 -25.91,-74.57 -17.51,-9.08 -14.39,51.8 -14.71,61.78 -2.18,67.88 -22.96,79.27 -85.71,57.95 -35.07,-11.92 -169.06,-109.72 -172.08,-133.53 12.06,-8.22 55.14,-11.95 72.36,-16.21 20.71,-5.12 59.58,-5.77 83.22,-5.8 -1.74,-11.48 -23.25,-13.24 -34.17,-20.94 -21.2,-14.97 -45.45,-24.7 -67.64,-43.81 -6.02,-5.18 -26.51,-21.14 -28.47,-27.37 17.38,-2.32 161.33,31.51 184.23,29.58 -3.2,-11.7 -28.43,-17.95 -34.02,-32.76 14.71,0.11 58.39,22.23 76.93,27.08 15.17,3.98 23.22,17.96 35.89,4.88 16.46,-17 53.09,-30.65 79.61,-76.7 7.46,-12.93 31.89,-54.12 32.46,-70.21 -15.28,-1.21 -10.39,2.25 -29.89,9.12 -8.64,3.04 -22.64,10.57 -30.22,11.6 -0.76,-9.84 0.53,-20.71 -0.32,-30.08 -0.64,-7 -4.71,-16.17 -5.04,-25.96 25.02,-3.43 49.13,11.72 79.24,11.92 81.58,0.09 154,-13.75 220.08,47.15 24.72,22.79 39.35,52.1 39.98,86.05 0.08,4.47 0.23,8.75 0.42,13.22 3.27,33.72 60,118.01 68.24,160.16 -6.83,-2.51 -13.13,-9.21 -20.73,-13.56 -46.71,-29.12 -40.37,-81.22 -54.16,-85.18 -10.23,-2.93 -22.11,5.02 -35.88,-4.95 1.82,-4.64 4.82,-3.73 7.04,-9.57 -4.54,-1.62 -15.16,-8.33 -21.22,-11.2 -51.14,-24.19 -81.12,-89.55 -70.39,-39.35 2.79,13.04 9.14,30.33 6.09,43.42 -17.86,1.16 -63.99,-31.11 -69.87,-31.69 -15.27,-1.49 7.32,47.34 9.83,56.51 9.7,35.41 19.22,67.62 3.01,101.03zm-647.81 -81.01c1.25,72.44 5.89,48.94 -26,107.63 -47.64,85.84 -79.86,138.15 -85.39,239.74 -1.82,33.32 20.62,55.79 35.51,85.08 35.39,69.62 57.8,135.79 100.86,203.13 30.47,47.12 53.28,96.66 86.71,142.58 5.88,8.38 23.53,32.56 21.2,42.05l-2.51 0.33 -4.15 -1.4c-16.86,-8.72 -30.23,-51.99 -33.95,-41.46 -5.34,15.12 -26.24,-13.08 -30.37,-18.21 -34.19,-42.59 -60.35,-90.76 -91.42,-135.76 -43.05,-59.77 -86.79,-115.15 -127.3,-177.15 -7.66,-11.71 -24.67,-38.8 -37.59,-43.78 -15.8,-6.08 -25.14,-10.5 -20.22,-30.4 6.46,-26.14 38.71,-69.16 51.36,-99.45 19.81,-47.4 33.72,-110.63 49.91,-161.12 5.38,-16.76 11.06,-32.84 17.77,-49.12 4.36,-10.26 7.8,-11.71 10.01,-24.92 0.95,-5.64 -6.89,-49.9 9.89,-91.23 22.56,-45.79 65.18,-79.71 114.29,-98.44 72.24,-27.57 85.33,-29.71 147.14,-65.62 7.88,-4.58 39.16,-24.42 45.85,-25.7 -3.04,8.43 -39.82,31.36 -49.58,39.32 -58.5,47.69 -90.23,42.95 -128.22,80.21 -14.47,14.19 -20.91,26.78 -26.48,32.81 -9.61,10.41 -4.51,9.61 -11.41,17.55 -11.1,12.75 -15.9,56.4 -15.93,73.31zm334.26 -429.81c15.02,-6.83 107.5,29.34 184.84,-46.27 23.9,-23.36 25.87,-6.75 43.99,28.33 4.16,8.06 14.89,14.99 14.92,32.42 0.03,20.93 0.42,108.1 -10.12,115.6 -2.71,-9.04 5.77,-85.79 -2.53,-101.08 -7.73,-0.11 -7.61,0.96 -8.19,8.97 -1.57,21.49 0.4,52.68 -2.13,79.18 -1.65,17.23 -2.59,12.57 -5.6,13.64 -4.22,-2.46 -1.18,1.64 -3.32,-4.47 -4.69,-21.44 -3.15,-69.31 -10.91,-94.57l-6.03 0.12c-5.61,8.43 -2.54,27.71 -2.54,39.06l-0.61 58.95c-32.31,8.92 -12.67,-11.88 -25.5,-91.1l-8.83 0.84 -4.69 82.07 -7.47 -0.08c-6.47,-14.01 -1.6,-72.11 -14.04,-79.78 -12.23,4.58 -6.87,48.36 -6.86,58.05 0.01,12.76 -17.33,14.18 -17.38,-15.92l-1.46 -38.09c-7.56,-2.8 -28.87,-10.72 -31.73,-18.04 6.64,-2.3 9.32,0.31 15.53,-3.2 -1.17,-3.24 2.95,-2.32 -4.57,-3.78 -1.94,-0.38 -35.14,0.08 -47.9,-3.14 -8.04,-2.33 -33.66,-10.12 -36.87,-17.68z"/>
   <path class="fil5" d="M222.88 883.77c-1.86,-0.56 -3.84,-1.57 -5.83,-3.09l-0.01 0c-9.07,-4.75 -19.11,-6.78 -28.6,-5.98 -13.77,1.88 -27.62,9.47 -34.04,22.99 -1.3,2.73 -1.89,4.63 -2.21,6.18 -0.08,0.69 -0.04,1.06 -0.27,1.66 -0.5,4.01 0,6.35 -9.95,19.41 -9.6,12.59 -19.87,24.71 -30.56,36.43 -7.17,8.7 -16.08,17.1 -22,23.06 -12.72,12.81 -25.64,39.81 -31.38,44.9 -2.96,2.62 9.21,-27.16 11.39,-31.64 18.56,-38.3 80.88,-126.63 119.09,-145.17 16.16,-7.84 27.57,-10.52 44.45,-20.68 12.57,-7.56 63.65,-41.6 95.48,-55.74 9.71,-4.35 17.64,-6.87 22.17,-6.23 11.4,3.59 -1.1,15.89 -4.52,23.85 -12.89,29.96 -8.72,23.91 -38.91,40.8 -17.61,9.5 -25.92,10.93 -43.03,17.91 -37.51,15.3 -14.43,44.72 -41.27,31.35zm1377.93 -824.3c43.23,16.8 85.75,54.74 101.82,92.03 20.28,47.06 10.62,35.09 -4.69,43.81 -1.76,-1.35 -30.77,-62.83 -48.15,-68.93 -5.85,-2.05 -5.27,-8.49 -11.32,-10.67 -1.75,-0.46 -3.12,-1.49 -4.07,-3.05 -4.88,-8.04 -53.59,-33.57 -59.55,-33.87 -3.24,-0.16 -4.72,-0.36 -7.87,-1.49 -21.6,-7.76 -72.96,-11.01 -96.19,-7.34 -12.13,1.92 -38.99,5.01 -49.4,10.06 -6.98,3.38 -16.71,2.37 -22.06,8.28 -3.3,3.72 -9.55,2.2 -12.86,6.75 -1.28,1.77 -8.34,6.45 -12.57,4.7 21.44,-35.51 65.22,-49.06 103.88,-54.75 42.59,-6.03 82.82,-0.22 123.02,14.47zm-313.4 2228.48c-5.76,1.95 -6.95,1.35 -9.3,-0.3 14.5,-15.05 24.14,-15.23 36.28,-38.55 10.74,-20.62 12.35,-36.9 10.76,-59.03 -3.03,-42.12 36.29,68.33 -37.74,97.87zm-116.22 -143.56c-0.03,-11.07 7.04,-25.56 8.83,-55.36 9.74,10.43 14.61,30.23 27.46,49.71 14.18,21.5 28.06,24.97 20.96,50.8 -10.42,-1.89 -6.95,-5.63 -14.18,-11.2 -11.31,-8.74 -34.13,-25.81 -43.08,-33.94zm23.78 92.38c7.2,0.27 12.77,2.54 20.1,0.45 22.78,-6.49 18.13,-7.66 30.1,-19.1 19.38,-21.22 18.61,-53.45 0.11,-75.09 -4.1,-4.8 -6.27,-8.97 -7.54,-15.16 19.61,6.53 38.01,35.79 38.84,55.91 2.37,58.2 -64.6,79.14 -81.6,53zm-137.43 -158.95c-9.16,31.08 -49.06,20.25 -43.66,-11.43 1.42,-8.34 3.98,-9.87 9.77,-13.35 23.57,-14.16 37.84,11.33 33.89,24.78zm-66.6 26.17c-20.76,-11.18 -17.66,-52.23 -1.77,-73.87 28.14,-38.31 75.03,-43.63 106.15,-19.44 55.01,42.78 43.94,116.21 -4.92,145.26 -13.18,7.84 -40.13,12.87 -56.21,5.72 2.91,-3.12 0.04,-1.82 11.12,-3.17 65.2,-7.94 89.43,-96.68 48.41,-134.64 -40.05,-37.06 -91.41,-19.65 -107.31,30.93 -7.45,23.7 -0.44,30.27 4.52,49.21zm1339.72 -243.72c20.3,36.21 -4.2,94.78 -41.63,110.61 -10.25,4.34 -15.33,2.73 -5.99,-5.81 20.05,-18.34 31.75,-23.93 40.59,-53.46 5.24,-17.52 5.13,-33.47 5.48,-51.43l1.55 0.09zm-134.62 -82.27c2.91,2.25 5.13,9.66 8.6,17.82 9.42,22.16 34.52,49.22 21.45,70.12 -1.98,-0.8 -50.28,-41.38 -54.37,-48.27 0,-0.01 12.68,-18.09 18.08,-29.78 2.41,-5.22 1.39,-7.52 6.24,-9.9zm47.6 27.97c14.96,3.68 22.59,19.72 29.03,34.6 26.91,63.89 -49.03,109.24 -81.96,79.51 7.27,-3.94 25.38,6.27 50.28,-16.37 22.84,-20.78 22.37,-53.31 10.75,-79.82 -3.56,-7.45 -6.68,-6.64 -8.09,-17.92zm-1525.33 229.73c6.28,-16.82 20.02,-26.75 30.4,-39.12 3.08,-3.67 7.29,-10.21 10.3,-12.82 67.02,-57.97 102.21,-66.12 179.19,-100.13 29.52,-13.04 99.87,-38.95 134.45,-50.77 30.1,-10.29 119.44,-50.23 135.46,-51.5 2.25,4.32 3.79,8.27 4,14.27 -7.48,5.73 -80.9,31.03 -97.91,36.82 -6.5,2.21 -10,4.93 -15.99,7.16l-115.21 45.42c-77.34,29.76 -133.24,50.38 -201.57,97.99 -10.14,7.45 -58.72,50.84 -63.13,52.69zm1360.27 -321.5c-6.51,32.93 -50.64,22.65 -44.52,-7.28 4.61,-22.58 43.99,-25.23 44.52,7.28zm-710.3 54.75c-10.33,-9.18 -5.53,-17.3 -11.52,-28.41 -4.19,-6.99 -13.36,-18.28 -13.16,-26.3 14.93,-3.6 21.53,13.02 26.65,24.49 5.86,13.13 15.83,26.13 -1.97,30.22zm-121.28 -120.49c1.58,-26.85 88.42,16.87 84.93,36.33 -0.35,1.96 -5.85,3.68 -12.25,5.19 -6.57,-4.83 -16.14,-16.88 -27.72,-23.71 -25.92,-15.29 -40.83,-13.5 -44.96,-17.82zm834.68 -10.74c61.69,7.49 91.46,84.47 56.89,135.17 -15.31,20.5 -41.07,37.08 -67.27,36.16 -13.09,-0.84 -49.66,-5.23 -11.08,-10.72 31.55,-3.66 46.11,-13.73 64.58,-41 14.59,-21.55 13.92,-58.33 -0.28,-80.62 -31.74,-49.84 -100.27,-39.27 -119.26,20.83 -6.44,25.66 1.06,24.65 2.36,46.67 -9.1,-2.61 -13.1,-25.89 -13.85,-34.34 -1.62,-38.82 42.94,-75.71 87.92,-72.13zm-466.15 -2.91c32.4,-11.3 64.83,-24.06 97.68,-35.46 19.39,-6.73 66.75,-22.88 86.01,-31.27 6.96,-3.04 3.82,-4.46 13.53,-4.34 5.82,27.58 -1.73,16.04 -21.33,24.11 -80.22,32.03 -192.36,63.87 -264.51,95.78 -4.56,2.01 -7.28,1.65 -12.41,3.54 -11.38,4.03 -81.63,30.39 -87.36,30.45 -4.94,0.05 -4.79,-0.63 -6.32,-6.77 -1.74,-6.98 -0.08,-5.91 7.73,-9.09 58.31,-23.82 126.52,-45.9 186.97,-66.95zm846.72 -42.63c9.3,25.25 -7.03,44.51 -18.52,27.99 -8.32,-13.47 -10.98,-20.64 -21.52,-33.87 -17.65,-21.82 -25.48,-25.32 -48.78,-39.92 -34.57,-21.66 -54.35,-22.98 -93.32,-29.66 -5.65,-0.97 -37.21,-2.06 -35.25,-10.49 1.07,-4.59 39.42,-6.55 44.48,-6.57 71.21,-0.26 143.34,21.59 172.92,92.51zm-555.42 -134.12c-13.85,0.17 -7.34,7.53 -18.74,10.81 2.03,-34.78 43.58,-49.23 52.96,-55.58 3.62,-2.45 14.01,-6.81 20.02,-6.44 7.27,8.78 -16.57,23.54 -23.42,27.51 -12.32,7.15 -26.12,10.01 -30.83,23.69zm89.78 53.87c1.57,-19.99 11.11,-18.75 26.11,-24.21l110.73 -41.25c76.97,-29.81 149.39,-53.79 234.04,-35.02 37.82,9.06 68.25,29.72 93.38,59.19 5.78,6.78 8.38,10.51 9.86,19.27 -36.41,-30 -44.72,-46.58 -95.27,-59.78 -75.55,-19.73 -164.38,3.44 -234.9,32.19 -11.72,4.83 -24.39,7.32 -36.09,11.62 -20.98,7.71 -93.25,36.64 -107.85,37.99zm-1840.32 3.65c1.76,-21.68 46.28,-146.57 70.75,-143 2.51,12.31 -20.29,34.53 -27.04,50.66 -2.67,6.38 -5.95,10.65 -9.47,17.97 -8.28,17.22 -22.13,46.03 -28.42,64.25 -1.84,4.66 -2.89,7.53 -5.81,10.11zm2657.76 -183.27c-29.6,-39.42 -59.62,-80.3 -97.99,-111.69 -4.76,-4.28 -4.42,-6.41 -4.46,-12.56 33.05,8.7 93.46,95.03 105.62,127.06l-0.44 0.55 -2.73 -3.36zm-2152.3 -87.93c-8.43,-0.73 -32.39,21.4 2.18,-57.57 2.55,-5.83 4.16,-11.79 6.33,-16.88 6.19,-7.08 123.88,-20.37 146.63,-22.72 26.64,-2.75 39,-8.64 66.41,-4.94 -1.74,5.86 -5.54,5.66 -12.21,13.48 -13.34,0.47 -79.24,8.65 -93.25,11.37 -3.13,0.83 -11.33,3.93 -14.03,3.81 -11.32,-0.52 -77.81,13.93 -82.88,20.98 -10.15,14.09 -14.68,43.99 -19.17,52.5l0 -0.02zm1465.12 -144.12c13.02,27.17 7.46,26.36 -13.26,57.23l-71.64 110.69c-8.16,11.39 -52.29,80.64 -65.08,93.29 -3.88,-1.53 -5.58,-6.14 -3.43,-9.82 7.47,-12.83 42.89,-64.4 45.24,-75.41 0.7,-3.3 3.14,-5.05 6.42,-5.42 16.16,-29.33 81.62,-130.65 87.87,-151.41 1.64,-5.44 7.05,-19.92 13.88,-19.15zm-1863.56 248.55c-13.94,-3.25 1.54,-4.19 -24.18,-17.73 1.49,-15.17 73.82,-87.4 91.75,-105.44 16.99,-17.09 153.1,-159.01 166.65,-164.17 -6,15.43 -98.5,102.89 -116.87,127.14 -7.63,10.08 -43.26,47.21 -54.81,59.49l-46.32 52.08c-14.93,17.68 -16.21,16.89 -16.22,48.63zm2210.86 -266.12c67.27,30.75 135.92,59.91 202.74,91.43 5.37,2.54 7.55,2.17 1.66,8.63 -2.11,2.32 -13.44,14.05 -15.02,14.31 -2.74,0.45 -10.93,-7.62 -13.97,-9.69 -18.47,-12.57 -53.96,-24.76 -75.95,-35.65 -34.38,-17.05 -68.22,-33.79 -103.37,-49.29 -29.5,-12.98 -53.39,-24.87 -81.17,-41.29 -5.75,-3.4 -7.32,-7.56 -2.56,-13.19 5.34,-6.31 16.32,0.13 22.09,2.76 21.52,9.77 42.35,21.14 63.7,31.11l1.84 0.86zm415.76 70.04c-3.97,-8.49 -13.58,-52.18 -17.2,-65.21 -5.51,-19.83 -11.21,-33.31 -18.76,-52.12 -3.01,-7.51 -4.24,-12.48 -5.97,-20.27 14.87,5.65 18.17,18.7 22.83,32.97 7.01,21.45 24.49,84.58 19.1,104.62zm-2330.61 -156.15c-3.28,-8.3 14.44,-34.11 22.04,-40.35 8.79,-6.54 34.02,6.81 43.9,10.81l89.67 37.63c14.51,6.49 27.73,13.56 43.04,19.23 14.05,5.2 32.53,11.94 44.92,18.73 17.64,9.66 80.61,31.84 86.93,41.33 -16.2,-1.97 -127.23,-51.85 -142.91,-58.6 -34.06,-14.47 -83.29,-33.42 -114.84,-46.3 -47.31,-19.32 -46.77,-24 -68.58,13.21 -2.91,4.97 -2.39,3.61 -4.17,4.32zm1219.24 -54.85c19.26,-13.58 22.94,-16.43 17.89,1.97 -28.1,102.41 -63.56,202.48 -101.69,301.75 -15.05,-3.04 1.06,-38.31 4.64,-61.91 2.8,-18.45 14.5,-59.82 19.38,-78.9 1.04,-4.08 3.59,-7.41 6.19,-17.39 3.78,-14.56 9.1,-28.37 12.24,-43.13 0.97,-4.57 5.53,-14.03 7.61,-21 -8.79,4.82 -18.15,17.15 -28.84,17.5 -11.47,0.38 -6.67,-12.42 -0.76,-18.69 5.15,-5.46 19.93,-18.56 21.98,-25.57 0.52,-1.81 1.66,-3.22 3.24,-4.07 3.73,-2.6 32.52,-43.07 38.11,-50.57zm318.88 -10.93c-40.75,23.73 -78.39,49.29 -110.71,83.9 -2.89,3.1 -40,44.51 -42.06,27.52 -0.56,-4.64 10.4,-16.33 13.51,-20.05 53.64,-62.7 181.33,-165.92 268.66,-151.57 46.48,7.63 49.18,58.41 48.79,96.02 -0.17,8.16 -0.66,16.04 -1.45,24.16 -14.61,-7.78 -11.91,-15.27 -15.22,-30.39 -5.08,-20.1 -16.42,-52.33 -38.47,-58.65 -17.8,-5.1 -45.54,-2.4 -63.35,2.51 -20.29,5.98 -41.3,16.08 -59.69,26.54zm247.19 341.6c-3,4.35 -9.64,3.74 -11.83,-1.09 -1.64,-3.6 -1.17,-5.71 -1.79,-9.07 -6.64,-25.81 -18.05,-50.24 -24.74,-76.08 -11.49,-43.55 -27.3,-86.03 -38.67,-128.91 -2.74,-10.32 -6.9,-37.37 0.95,-45.67 5.67,-6 9.18,14.26 10.07,17.46 18.06,64.85 37.16,127.9 53.7,193.35 4.21,16.65 8.3,33.32 12.31,50.02zm372.63 -384.76c-18.18,-12.58 -32.87,-20.63 -50.18,-36.03 -18.3,-16.28 -32,-28.45 -51.95,-43.09 -38.44,-28.22 -150.78,-112.11 -28.92,-32.92 58.01,37.77 117.14,79.26 173.28,119.85 16.4,11.86 68.75,52.76 73.02,71.14 1.62,6.95 -9.94,7.31 -16.09,9.82 -11.53,-11.04 -13.54,-20.9 -27.11,-33.04 -21.06,-18.82 -48.76,-39.52 -72.04,-55.73zm-497.74 -55.1c-5.09,-0.34 2.13,-5.72 4.49,-8.05 25.03,-24.53 58.32,-54.22 85.96,-75.36 39.32,-30.08 7.97,1.25 -6.99,13.89 -23.76,20.06 -49.21,47.75 -73.5,64.62 -3,2.08 -6.25,4.46 -9.96,4.9zm172.39 -141.64c0.17,-3.08 21.33,-58.33 59.99,-15.11 5.04,5.63 13.75,14.61 13.7,24.88l-7.02 -8.44c-34.82,-47.8 -60.71,-4.08 -66.67,-1.33zm-1630.91 -55.55c7.07,0.26 80.12,38.17 96.14,46.23 41.7,22.36 80.26,46.59 121.43,69.6 16.38,9.16 26.32,11.91 22.72,23.22 -14.34,2.16 -135.62,-74.13 -154.16,-82.86 -12.67,-5.97 -79.7,-47.98 -86.13,-56.18zm758.14 -65.35c7.18,-0.18 18.61,7.76 28.25,10.3 9.42,2.48 22.13,6.28 28.49,12.04 14.47,13.1 11.03,54.5 5.72,64.78 -7.27,-3.04 -2,-1.26 -6.59,-11.79 -4.76,-10.91 -47.07,-42.38 -55.87,-75.33zm-947.11 31.36c19.43,-10.5 30.67,-19.06 45.33,-27.02 37.78,-20.51 47.71,-29.47 80.24,7.73 3.43,3.92 6.07,5.9 6.99,13.13 -16.56,-9.81 -27.12,-38.44 -67.01,-18.03 -52.2,27.3 -108.48,62.94 -157.9,95.43 -21.79,14.32 -38.86,29.91 -61.55,43.24 -54.58,32.07 -35.23,47.56 -67.28,22.24 -14.66,-11.59 -8.32,-11.61 9.03,-20.45 74,-37.97 139.94,-77.01 212.14,-116.27zm1212.99 286.84c-26.06,43.48 -130.04,92.59 -168.42,74.5 0.12,-11.74 36.41,-8.39 55.83,-15.31l23.47 -8.36c8.49,-1.91 9.28,-3.82 20.13,-9.52 15.47,-8.13 22.74,-18.27 25.24,-19.58 1.83,-1.13 7.68,-10.67 10.4,-13.45 3.49,-3.57 2.93,-7.27 4.63,-9.7 13.55,-19.35 10.72,-33.77 14.56,-49.86 8.24,-34.48 -8.51,-60.61 5.03,-66.28 14.75,39.24 27.13,80.45 9.12,117.56zm-238.92 20.99c-2.35,62.55 -21.18,75.86 -75.6,59.36 -0.42,-15.28 28.7,1.91 46.64,-13.41 22.21,-18.97 14.28,-53.73 28.96,-45.95zm376.54 -285.89c24.72,22.79 39.35,52.1 39.98,86.05 0.08,4.47 0.23,8.75 0.42,13.22 3.27,33.72 60,118.01 68.24,160.16 -2.52,-0.93 -18.6,-10.64 -21,-13.74 -5.74,-7.4 -36.53,-70 -43.48,-84.4l-17.43 -38.32c-4.08,-4.67 -4.84,-5.44 -6.58,-11.74 -3.44,-12.49 2.44,-14.23 -1.14,-20.57 -8.92,-15.82 -6.98,-42.55 -37.57,-72.57 -59.37,-54.43 -145.24,-21.55 -215.83,-39.87 -10.81,-2.81 -26.5,-2.32 -39.17,-4.69 -5.05,-0.95 -20.22,-3.4 -21.64,-9.5 -1.61,-6.89 -3.49,-16.14 -4.13,-23.1 30.25,-1.73 53.01,11.98 85.64,11.91 82.56,-0.17 145.95,-12.85 213.67,47.16zm-895.5 548.91c4.99,24.3 22.09,43.61 34.19,67.42 14.44,28.4 26.71,56.22 39.11,83.79 -2.05,5.27 -9.57,5.94 -12.38,0.72l-33.62 -63.02c-2.76,-5.26 -13.09,-19.4 -14.13,-23.91 -4.21,-18.31 -31.7,-43.91 -32.95,-67.53 -0.6,-11.47 11.13,-7.88 19.77,2.53zm129.37 261.47c30,48.88 60.28,106.72 92.4,151.67 2.66,3.8 7.74,10.84 12.29,18.28 -4.35,7.65 -15.77,0.52 -17.63,-1.68 -9.43,-13.53 -10.11,-23.76 -14.8,-15.44l-34.43 -55.53c-8.11,-21.74 -41.21,-71.34 -41.7,-90.95 -0.07,-2.76 1.48,-5.18 3.87,-6.35zm-216.08 -224.64c-14.33,-5.65 -22.49,-10.59 -17.83,-29.47 6.46,-26.14 38.71,-69.16 51.36,-99.45 26.12,-62.51 39.69,-143.34 67.68,-210.25 3.37,-7.93 6.19,-10.6 8.32,-17.5l5.77 1.29c7.09,-3.32 14.05,-0.71 13.41,5.98 -0.75,7.85 -13.56,29.74 -17.67,41.76l-39.91 128.67c-2.25,7.27 -2.24,1.83 -1.57,7.67 0.87,7.54 -5.93,11.12 -6.82,16.73 -2.02,12.76 -15.17,41.57 -18.27,62.48 -1.64,11.08 -8.33,13.39 -12.29,18.37 -39.43,49.55 -24.91,67.41 -32.18,73.72zm110.66 -377.7c-0.95,-17.42 -1.45,-48.25 10.47,-77.61 22.56,-45.79 65.18,-79.71 114.29,-98.44 72.24,-27.57 85.33,-29.71 147.14,-65.62 7.88,-4.58 39.16,-24.42 45.85,-25.7 -3.04,8.43 -39.82,31.36 -49.58,39.32 -55.13,44.94 -86.49,43.33 -121.71,74.18 -8.53,4.9 -34.35,10.62 -42.95,17.73 -7.73,6.39 -24.08,14.67 -43.64,33.51l-13.92 22.66c-24.22,36.32 -12.03,64.64 -28.35,73.45 -4.65,2.51 -12.1,8.29 -17.58,6.5zm1880.55 -309.7c4.59,4.7 36.26,37.87 31.26,43.29 -7.84,-1.98 -59.7,-57.01 -86.07,-67.91 -6.68,-2.76 -45.53,-15.75 -43.41,-23.69 2.71,-10.12 5.04,-2.23 1.74,-12.86 -5.07,-16.38 22.26,4.41 26.85,7.21 28.65,17.48 45.61,30.22 69.61,53.97zm-290.16 -136.33c38.45,6.8 85.42,30.33 126.84,40.87 4.01,1.02 36.65,8.27 37.4,10.91 1.53,5.44 -17.62,20.24 -24.63,21.24 -8.15,1.16 -58.44,-11.28 -70.71,-13.8 -29.55,-6.08 -55.76,-9.02 -74.66,-34.38 -1.63,-2.19 -16.37,-20.39 -16.39,-20.51 -0.9,-5.26 18.83,-4.71 22.16,-4.32zm-662.57 248.53c-13.21,-11.03 -0.84,-19.1 9,-29.3 45.23,-46.92 88.59,-94.95 134.44,-141.43 14.38,-14.58 29.07,-32.55 43.15,-47.93 60.65,-66.28 24.84,-16.02 0.54,14.2 -44.79,55.7 -96.08,114.78 -145.6,166.24 -8.84,9.19 -30.81,32.2 -41.53,38.21zm-311.77 -311.49c14.27,-8.14 18.25,8.21 33.15,37.09 4.16,8.06 14.89,14.99 14.92,32.42 0.03,20.93 0.42,108.1 -10.12,115.6 -2.71,-9.04 5.77,-85.79 -2.53,-101.08 -2.82,-0.04 -4.59,0.08 -5.74,0.64 0.24,-2.35 -2.03,-6.76 -2.36,-11.11 -1.48,-19.48 -1.97,-21.37 -10.38,-39.77 -4.52,-9.87 -7.25,-19.49 -13.94,-28.24 -1.25,-1.64 -2.42,-3.53 -3,-5.53zm69.21 -107.26c9.01,-2.06 11.01,1.15 14.98,6.45 12.61,16.85 14.13,31.63 13.85,55.99 -0.86,75.66 -49.39,60.83 -64.87,29.74 -18.07,-36.3 2.97,-84.64 36.04,-92.18zm645.33 74.01c31.66,7.04 59.21,15.05 91.7,20.93 17.78,3.21 130.59,23.1 133.1,30.3 1.66,4.75 -8.79,23.62 -23.75,21.98 -0.67,-0.07 -148.43,-48.21 -176.06,-54.81 -16.17,-3.88 -107.84,-28.02 -116.44,-25.26 -8.65,2.78 -29.28,23.43 -26.4,12.79 2.8,-10.36 19.92,-28.58 33.77,-26.52 22.44,3.35 58.9,14.93 84.07,20.57zm-879.82 -98.88c23.76,13.81 47.06,12.56 73.18,18.08 69.92,14.77 80.81,102.51 18.68,118.2 -57.09,14.42 -113.15,-47.7 -112.92,-108.31 0.04,-12.2 -2.38,-31.9 2.01,-39.96 7.81,3.09 11.95,7.86 19.05,11.99z"/>
  </g>
 </g>
</svg>
