<?xml version="1.0" encoding="UTF-8"?>
<!DOCTYPE svg PUBLIC "-//W3C//DTD SVG 1.1//EN" "http://www.w3.org/Graphics/SVG/1.1/DTD/svg11.dtd">
<!-- Creator: CorelDRAW -->
<svg xmlns="http://www.w3.org/2000/svg" xml:space="preserve" width="97.1627mm" height="77.3699mm" version="1.1" style="shape-rendering:geometricPrecision; text-rendering:geometricPrecision; image-rendering:optimizeQuality; fill-rule:evenodd; clip-rule:evenodd"
viewBox="0 0 2631.62 2095.54"
 xmlns:xlink="http://www.w3.org/1999/xlink"
 xmlns:xodm="http://www.corel.com/coreldraw/odm/2003">
 <defs>
  <style type="text/css">
   <![CDATA[
    .fil8 {fill:#FEFEFE;fill-rule:nonzero}
    .fil2 {fill:#373435;fill-rule:nonzero}
    .fil0 {fill:#FFCC29;fill-rule:nonzero}
    .fil1 {fill:#ED3237;fill-rule:nonzero}
    .fil5 {fill:#3A3A3B;fill-rule:nonzero}
    .fil7 {fill:#CC6633;fill-rule:nonzero}
    .fil4 {fill:#DDDFE1;fill-rule:nonzero}
    .fil3 {fill:white;fill-rule:nonzero}
    .fil6 {fill:url(#id0);fill-rule:nonzero}
   ]]>
  </style>
  <linearGradient id="id0" gradientUnits="userSpaceOnUse" x1="1363.71" y1="1167.1" x2="1320.31" y2="1466.14">
   <stop offset="0" style="stop-opacity:1; stop-color:#FFCC00"/>
   <stop offset="1" style="stop-opacity:1; stop-color:#FEFEFE"/>
  </linearGradient>
 </defs>
 <g id="Camada_x0020_1">
  <metadata id="CorelCorpID_0Corel-Layer"/>
  <g id="_1276979792464">
   <path class="fil0" d="M564.45 917.26l0 634.55c0,72.17 38.5,138.85 101,174.93l549.53 317.27c62.5,36.08 139.5,36.08 201.99,0l549.54 -317.27c62.5,-36.08 101,-102.76 101,-174.93l0 -634.55c0,-72.17 -38.5,-138.85 -101,-174.93l-549.54 -317.27c-62.5,-36.08 -139.5,-36.08 -201.99,0l-549.53 317.27c-62.5,36.08 -101,102.77 -101,174.93z"/>
   <path class="fil1" d="M1315.99 2095.54c-39.17,0 -78.34,-10.09 -113.28,-30.25l-549.54 -317.27c-69.87,-40.35 -113.27,-115.52 -113.27,-196.2l0 -634.54c0,-80.68 43.4,-155.86 113.27,-196.2l549.54 -317.27c69.87,-40.33 156.67,-40.33 226.55,0l549.53 317.27c69.88,40.34 113.28,115.52 113.28,196.2l0 634.54c0,80.69 -43.4,155.87 -113.28,196.2l-549.53 317.27c-34.94,20.17 -74.1,30.25 -113.27,30.25zm0 -1672.92l0 0c-30.68,0 -61.36,7.9 -88.72,23.7l-549.54 317.28c-54.72,31.6 -88.72,90.48 -88.72,153.67l0 634.54c0,63.2 34,122.07 88.72,153.67l549.54 317.27c54.72,31.59 122.71,31.6 177.44,0l549.53 -317.27c54.72,-31.59 88.72,-90.47 88.72,-153.67l0 -634.54c0,-63.19 -33.99,-122.08 -88.72,-153.67l-549.53 -317.27c-27.37,-15.8 -58.05,-23.7 -88.72,-23.7z"/>
   <path class="fil2" d="M1315.99 2010.7c-33.38,0 -66.75,-8.6 -96.52,-25.78l-505.09 -291.62c-59.53,-34.36 -96.51,-98.42 -96.51,-167.16l0 -583.22c0,-68.74 36.98,-132.79 96.51,-167.16l505.09 -291.61c59.53,-34.36 133.5,-34.37 193.02,0l505.09 291.61c59.53,34.37 96.52,98.43 96.52,167.16l0 583.22c0,68.74 -36.98,132.8 -96.52,167.16l-505.09 291.62c-29.76,17.18 -63.13,25.78 -96.5,25.78zm-0.01 -1537.61l0 0c-30.82,0 -61.65,7.94 -89.14,23.81l-505.09 291.61c-54.99,31.75 -89.14,90.92 -89.14,154.41l0 583.22c0,63.5 34.16,122.66 89.14,154.41l505.09 291.61c54.99,31.74 123.29,31.74 178.29,0l505.09 -291.61c54.98,-31.75 89.14,-90.91 89.14,-154.41l0 -583.22c0,-63.49 -34.16,-122.66 -89.14,-154.41l-505.09 -291.61c-27.49,-15.87 -58.32,-23.81 -89.15,-23.81z"/>
   <polygon class="fil1" points="520.1,1257.64 19.09,1201.71 106.01,1033.29 22.43,861.44 523.44,917.37 "/>
   <path class="fil2" d="M532.25 1271.36l-532.25 -59.44 92.28 -178.8 -90.64 -186.37 534.19 59.65 -3.58 364.95zm-494.06 -79.87l0 0 469.78 52.45 3.1 -315.58 -467.84 -52.24 76.53 157.34 -81.56 158.03z"/>
   <polygon class="fil2" points="492.62,932.2 138.91,906.9 489.52,960 "/>
   <polygon class="fil2" points="492.62,967.22 138.91,941.92 489.52,995.02 "/>
   <polygon class="fil2" points="492.62,1002.25 138.91,976.94 489.52,1030.05 "/>
   <polygon class="fil2" points="492.62,1037.27 138.91,1011.96 489.52,1065.07 "/>
   <polygon class="fil2" points="492.62,1072.29 138.91,1046.98 489.52,1100.09 "/>
   <polygon class="fil2" points="492.62,1107.31 138.91,1082.01 489.52,1135.11 "/>
   <polygon class="fil2" points="492.62,1142.33 138.91,1117.03 489.52,1170.13 "/>
   <polygon class="fil2" points="492.62,1177.36 138.91,1152.05 489.52,1205.16 "/>
   <polygon class="fil2" points="492.62,1212.37 138.91,1187.07 489.52,1240.18 "/>
   <polygon class="fil1" points="2608.02,1659.03 2107.01,1603.09 2110.35,1262.82 2611.36,1318.76 2516.03,1479.51 "/>
   <path class="fil2" d="M2629.37 1673.77l-534.75 -59.71 3.59 -364.95 533.41 59.55 -101.58 171.27 99.33 193.84zm-509.98 -81.65l0 0 467.28 52.18 -84.66 -165.22 89.09 -150.22 -468.61 -52.32 -3.1 315.58z"/>
   <polygon class="fil2" points="2135.09,1591.14 2488.8,1616.44 2138.19,1563.34 "/>
   <polygon class="fil2" points="2135.09,1556.12 2488.8,1581.42 2138.19,1528.32 "/>
   <polygon class="fil2" points="2135.09,1521.1 2488.8,1546.4 2138.19,1493.3 "/>
   <polygon class="fil2" points="2135.09,1486.07 2488.8,1511.38 2138.19,1458.28 "/>
   <polygon class="fil2" points="2135.09,1451.05 2488.8,1476.36 2138.19,1423.25 "/>
   <polygon class="fil2" points="2135.09,1416.03 2488.8,1441.34 2138.19,1388.23 "/>
   <polygon class="fil2" points="2135.09,1381.01 2488.8,1406.32 2138.19,1353.21 "/>
   <polygon class="fil2" points="2135.09,1345.99 2488.8,1371.29 2138.19,1318.19 "/>
   <polygon class="fil2" points="2135.09,1310.97 2488.8,1336.27 2138.19,1283.16 "/>
   <path class="fil2" d="M712.97 987.96c-12.86,-12.68 -9.77,-34.11 0.14,-47.1 9.92,-12.99 24.84,-21 35.98,-32.89 27.65,-29.52 25.81,-83.63 -3.97,-117.2 37.25,28.76 55.03,81.73 41.37,123.25 -4.58,13.93 -12.29,28.65 -6.28,43.15 8.66,20.9 40.77,21.76 53.42,5.41 12.65,-16.35 10.63,-40.84 5.27,-62.55 -5.36,-21.7 -13.57,-43.73 -11.48,-65.23 2.61,-26.88 22.92,-49.28 48.9,-53.91 -26.36,11.74 -30.45,47.28 -30.38,77.63 0.07,27.8 8.14,64.84 35.51,70.3 18.72,3.74 34.74,-12.42 38.11,-30.77 3.36,-18.35 -2.55,-37.97 -8.44,-56.64 26,23.51 33.51,65.24 16.61,92.28 -5.47,8.75 -13.39,17 -12.73,27.89 0.38,6.19 3.62,12.19 7.75,17.15 11.36,13.61 30.29,20.25 46.02,16.13 15.73,-4.11 27.31,-18.74 28.15,-35.54 1.2,-24.01 -17.39,-49.22 -11.22,-71.91 4.87,-17.92 23.2,-26.81 39.91,-33.9 -11.18,20.81 -22.36,43.17 -20.52,68.01 1.84,24.84 22.06,51.96 46.38,51.98 23.53,0.02 38.08,-24.17 40.79,-47.65 4.83,-41.91 -17.38,-88.56 -54.06,-113.56 20.56,-3.36 43.39,8.96 56.33,27.4 12.93,18.44 16.75,41.78 13.55,62.71 -2.52,16.49 -9.07,32.5 -6.17,49.5 4.95,28.99 41.87,49.91 66.39,37.61 17,-8.53 25.03,-27.77 36.26,-43.12 11.23,-15.34 31.76,-27.87 49.75,-17.55 -19.38,12.57 -28.05,39.26 -20.56,63.29 16.69,-4.2 36.76,-0.18 50.06,13.04 13.29,13.22 17.24,36.01 6.3,48.94l-577.16 -66.17z"/>
   <path class="fil2" d="M1959.39 1127.9c15.37,-9.48 17.17,-31.06 10.42,-45.94 -6.76,-14.88 -19.5,-26.03 -27.69,-40.12 -20.33,-34.96 -6.41,-87.29 30.14,-113.32 -42.75,19.69 -71.95,67.32 -67.95,110.84 1.34,14.6 5.56,30.68 -3.54,43.46 -13.13,18.43 -44.61,12.07 -53.28,-6.7 -8.66,-18.77 -1.21,-42.19 8.88,-62.13 10.09,-19.95 23.03,-39.58 25.81,-61 3.48,-26.78 -11.3,-53.16 -35.58,-63.5 23.05,17.34 19.08,52.9 12.2,82.46 -6.29,27.08 -22.46,61.36 -50.37,60.56 -19.08,-0.55 -31.08,-19.89 -30.24,-38.53 0.84,-18.63 11,-36.43 20.92,-53.31 -30.6,17.09 -47.28,56.07 -36.87,86.22 3.36,9.75 9.24,19.57 6.15,30.03 -1.76,5.95 -6.26,11.07 -11.4,14.98 -14.12,10.72 -34.06,12.94 -48.47,5.41 -14.4,-7.53 -22.42,-24.38 -19.47,-40.95 4.21,-23.66 27.98,-44.07 27.05,-67.57 -0.73,-18.55 -16.61,-31.32 -31.3,-41.98 6.23,22.79 12.11,47.08 4.75,70.88 -7.36,23.8 -33.15,45.69 -56.85,40.26 -22.94,-5.25 -31.69,-32.09 -29.07,-55.58 4.69,-41.92 36.79,-82.41 78.14,-98.56 -19.29,-7.88 -44.3,-0.99 -61.03,14.09 -16.74,15.07 -25.69,36.97 -27.27,58.08 -1.25,16.64 1.55,33.71 -5.08,49.62 -11.32,27.14 -51.99,39.25 -73.13,21.78 -14.66,-12.12 -18.17,-32.68 -25.67,-50.14 -7.51,-17.47 -24.7,-34.28 -44.55,-28.25 16.07,16.59 18.54,44.55 5.85,66.29 -15.32,-7.84 -35.79,-8.42 -51.7,1.48 -15.91,9.9 -24.87,31.23 -17.11,46.28l577.31 64.87z"/>
   <path class="fil3" d="M2330.95 591.91c-15.32,-100.41 -119.5,-164.39 -219.56,-181.78 -36.56,-6.35 -75.79,-9.18 -105.7,-31.14 -44.01,-32.3 -54.45,-96.2 -97.03,-130.36 -72.43,-58.11 -184.33,2.21 -271.19,-30.62 -80.45,-30.41 -112.82,-128.93 -184.39,-176.63 -67.26,-44.83 -162.25,-35.06 -227.2,13.05 -64.96,48.1 -101.29,128.32 -108.49,208.82 -7.2,80.51 12.14,161.41 41.68,236.65 34.63,88.21 80.11,163.24 137.98,223.67l-135.33 303.45 572.05 63.16 86.02 -192.88c66.19,-3.58 132.32,-12.98 197.4,-25.48 76.38,-14.69 154.1,-34.57 217.02,-80.3 62.92,-45.72 108.46,-122.72 96.74,-199.61z"/>
   <path class="fil4" d="M1819.79 897.3c66.19,-3.58 132.32,-12.98 197.4,-25.49 76.38,-14.68 154.1,-34.57 217.02,-80.29 62.92,-45.72 108.46,-122.72 96.74,-199.61 -15.32,-100.41 -119.5,-164.39 -219.56,-181.78 -31.72,-5.52 -65.44,-8.39 -93.35,-23.39 -7.3,1.05 -14.69,1.82 -22.31,1.96 -23.02,0.4 -41.95,-18.5 -53.17,-38.61 -11.22,-20.1 -17.94,-42.89 -32.33,-60.87 -17.68,-22.07 -45.37,-34.43 -73.36,-38.49 -27.99,-4.06 -56.51,-0.59 -84.37,4.26 13.87,22.36 8.33,51.38 14.89,76.87 10.95,42.55 53.92,69.09 96.18,81.12 42.25,12.04 87.27,14.21 127.99,30.7 27.04,10.95 51.44,28.03 71.81,48.91 18.52,18.98 33.97,41.52 41.55,66.93 9.93,33.32 5.6,70.01 -8.52,101.78 -14.12,31.77 -37.53,58.84 -64.71,80.54 -30.1,24.03 -65.07,41.88 -102.09,52.5 -45.47,13.04 -93.38,15.15 -140.66,13.68 -137.62,-4.3 -274.22,-38.68 -397.49,-100.03 77.84,118.44 186.3,216.27 318.08,268.44 -27.18,83.91 -7.45,26.97 -37.19,106.98 -0.72,1.95 1.28,-1.66 0,0l61.42 6.78 86.02 -192.88z"/>
   <path class="fil2" d="M1741.34 1103.37l-597.68 -65.98 138.85 -311.34c-54.98,-59.16 -100.33,-133.68 -134.86,-221.66 -35.15,-89.54 -49.05,-168.78 -42.48,-242.23 8.13,-90.93 49.47,-170.24 113.41,-217.6 72.91,-53.99 172.13,-59.49 241.32,-13.4 33,21.99 57.74,53.81 81.68,84.59 29.95,38.52 58.25,74.9 100.25,90.77 35.75,13.51 77.98,9.93 118.8,6.47 54.77,-4.66 111.46,-9.47 155.73,26.06 22.66,18.18 36.58,43.36 50.05,67.71 13.47,24.36 26.2,47.37 46.57,62.32 22.69,16.65 51.76,21.2 82.54,26.01 6.03,0.95 12.04,1.89 17.99,2.92 102.42,17.81 213.14,84.08 229.6,192.03 11.47,75.21 -28.43,158.19 -101.66,211.39 -65.39,47.51 -145.3,67.69 -221.92,82.42 -69.69,13.4 -132.44,21.68 -191.55,25.26l-86.62 194.24zm-561.56 -86.7l0 0 546.43 60.32 85.42 -191.54 7.49 -0.41c60.18,-3.26 124.21,-11.54 195.75,-25.29 73.83,-14.2 150.63,-33.49 212.12,-78.17 65.87,-47.87 101.91,-121.59 91.81,-187.82 -14.61,-95.88 -115.77,-155.24 -209.53,-171.54 -5.8,-1.01 -11.68,-1.93 -17.58,-2.85 -32.33,-5.06 -65.76,-10.29 -93.28,-30.49 -24.72,-18.14 -39.36,-44.62 -53.52,-70.24 -12.88,-23.3 -25.05,-45.3 -43.92,-60.44 -36.61,-29.37 -85.97,-25.18 -138.3,-20.75 -43.53,3.7 -88.58,7.53 -129.55,-7.97 -48.45,-18.31 -80.22,-59.16 -110.95,-98.67 -22.73,-29.23 -46.23,-59.45 -75.92,-79.23 -59.76,-39.82 -149.37,-34.48 -213.08,12.7 -57.45,42.54 -96.17,117.33 -103.57,200.05 -6.22,69.57 7.15,145.15 40.88,231.06 34.54,88 80.1,161.9 135.42,219.66l5.7 5.96 -131.84 295.63z"/>
   <path class="fil5" d="M1539.88 113.65c21.99,33.63 47,66.44 73.14,97.68 26.31,31.23 54.26,61.14 84.22,88.9 29.95,27.75 61.93,53.38 96.39,75.27 17.3,10.79 35.1,20.86 53.64,29.37 18.58,8.42 37.75,15.53 57.47,20.9l0.05 0.01c1.5,0.41 2.39,1.96 1.98,3.46 -0.4,1.47 -1.89,2.34 -3.35,2 -20.26,-4.69 -40.07,-11.18 -59.34,-19.04 -19.24,-7.95 -37.76,-17.51 -55.81,-27.83 -35.96,-20.95 -69.53,-45.8 -101.07,-72.86 -31.55,-27.07 -61.13,-56.38 -89.11,-87.12 -27.92,-30.92 -54.25,-62.75 -78.71,-97.2 -3.93,-5.53 -2.63,-13.2 2.9,-17.12 5.53,-3.93 13.2,-2.63 17.13,2.9 0.08,0.12 0.16,0.23 0.24,0.35l0.23 0.35z"/>
   <path class="fil2" d="M2034.68 406.52c-20.8,-1.77 -40.17,-5.17 -59.82,-9.53 -19.51,-4.41 -38.71,-10.03 -57.49,-16.76 -18.83,-6.58 -37.03,-14.88 -54.59,-24.21 -17.66,-9.18 -34.01,-20.66 -49.66,-32.73 -1.16,-0.89 -1.38,-2.56 -0.48,-3.72 0.85,-1.1 2.39,-1.35 3.53,-0.61l0.13 0.08c16.33,10.56 33.05,20.39 50.93,27.88 17.75,7.65 35.95,14.21 54.63,19.07 18.62,5 37.53,8.89 56.57,11.58 18.91,2.64 38.5,4.34 56.87,4.4l0.46 0c6.79,0.02 12.28,5.54 12.26,12.33 -0.02,6.79 -5.54,12.28 -12.33,12.26 -0.33,0 -0.68,-0.02 -1.01,-0.04z"/>
   <path class="fil2" d="M2029.83 799.73c-11,12.88 -23.35,23.56 -36.52,33.58 -13.1,10.02 -27.02,19.02 -41.66,26.7 -29.07,15.84 -60.82,26.77 -93.36,33.26 -65.35,13.34 -133.34,6.31 -196.21,-12.48 -62.9,-19.46 -121.69,-49.74 -175.19,-86.61 -53.75,-36.64 -102.91,-79.25 -148.32,-125.13 -0.83,-0.84 -0.82,-2.19 0.02,-3.02 0.79,-0.78 2.06,-0.8 2.89,-0.1 49.08,41.66 100.11,80.79 154.22,114.7 54.24,33.59 112.08,61.18 172.6,78.88 60.59,17.12 124.32,22.63 185.9,11.96 30.73,-5.38 60.88,-14.46 89.34,-27.7 28.4,-12.98 55.87,-29.85 79.03,-50.6l0.28 -0.25c2.01,-1.8 5.1,-1.63 6.9,0.38 1.65,1.84 1.64,4.6 0.08,6.43z"/>
   <path class="fil4" d="M1171.3 214.89c-9.06,44.61 -8.64,91.48 -2.95,136.72 6.09,45.38 17.73,89.83 34.44,132.36 9.75,20.69 17.8,42.1 29.47,61.83 5.64,9.93 10.43,20.34 16.75,29.89l18.75 28.74c3.17,4.76 5.95,9.78 9.43,14.33l10.41 13.67 20.82 27.36c14.59,17.69 30.28,34.5 45.12,52.09l0 0 0.7 0.82c2.69,3.16 3.11,7.49 1.43,11l-134.87 280.38c-0.41,0.85 -1.42,1.21 -2.27,0.8 -0.82,-0.39 -1.18,-1.36 -0.84,-2.18l118.48 -287.69 2.13 11.82 -0 -0 -24.3 -25.75c-7.92,-8.75 -16.46,-16.98 -23.88,-26.19l-21.8 -28.03 -10.9 -14.03c-3.64,-4.67 -6.6,-9.84 -9.93,-14.74l-19.16 -29.98c-6.41,-9.97 -11.32,-20.86 -17.04,-31.25 -11.83,-20.62 -20.15,-43 -29.35,-64.85 -15.73,-44.81 -27.25,-91.27 -30.79,-138.61 -3.66,-47.25 -1.54,-95.01 11.85,-140.99 0.67,-2.29 3.07,-3.61 5.35,-2.94 2.17,0.63 3.46,2.81 3.03,4.99l-0.09 0.45z"/>
   <polygon class="fil2" points="2324.58,550.12 1970.88,524.81 2321.49,577.92 "/>
   <polygon class="fil2" points="2332.8,603.22 1979.09,577.92 2329.7,631.02 "/>
   <polygon class="fil2" points="2324.58,650.68 1970.88,625.38 2321.49,678.49 "/>
   <polygon class="fil2" points="2307.06,699.54 1953.36,674.24 2303.97,727.34 "/>
   <polygon class="fil2" points="2270.89,739.21 1917.18,713.91 2267.79,767.01 "/>
   <polygon class="fil2" points="2236.85,781.65 1951.21,761.22 2234.35,804.11 "/>
   <polygon class="fil2" points="2303.65,512.25 2018.01,491.82 2301.15,534.7 "/>
   <polygon class="fil2" points="2259.84,466.37 2018.01,449.07 2257.73,485.38 "/>
   <polygon class="fil2" points="2197.97,430.21 1991.47,415.44 2196.16,446.44 "/>
   <polygon class="fil2" points="2180.98,816.3 2028.11,806.63 2179.17,832.53 "/>
   <polygon class="fil2" points="1806.49,923.05 1653.62,913.38 1804.68,939.28 "/>
   <polygon class="fil2" points="1790.75,953.59 1637.88,943.92 1788.94,969.82 "/>
   <polygon class="fil2" points="1775.01,984.13 1622.14,974.46 1773.2,1000.36 "/>
   <polygon class="fil2" points="1759.27,1014.67 1606.4,1005 1757.46,1030.9 "/>
   <polygon class="fil2" points="1743.53,1045.21 1590.65,1035.54 1741.72,1061.44 "/>
   <polygon class="fil1" points="2216.49,1535.23 412.14,1327.68 415.48,987.41 2219.83,1194.96 "/>
   <path class="fil2" d="M2228.63 1548.98l-1828.88 -210.38 3.58 -364.95 1828.87 210.38 -3.58 364.95zm-1804.11 -232.24l0 0 1779.83 204.73 3.09 -315.58 -1779.82 -204.73 -3.1 315.58z"/>
   <polygon class="fil2" points="403.38,973.7 517.97,904.76 517.97,988.97 "/>
   <polygon class="fil2" points="2228.88,1548.52 2114.3,1615.04 2114.3,1533.25 "/>
   <polygon class="fil4" points="2006.73,1476.36 2180.79,1498.83 2180.79,1353.21 2154.23,1476.36 "/>
   <polygon class="fil4" points="616.56,1039.84 442.49,1017.38 442.49,1163 469.05,1039.84 "/>
   <path class="fil2" d="M539.99 1304.93c-6.65,-0.77 -12.56,-2.36 -17.68,-4.79 -5.17,-2.42 -7.95,-5.93 -8.35,-10.4 -0.67,-20.9 0.53,-44.55 3.55,-70.85 1.26,-11.02 2.94,-22.32 5.13,-33.88 2.19,-11.51 3.96,-23.17 5.31,-34.94 0.98,-8.52 -1.83,-13.16 -8.38,-13.91 -1.54,-0.18 -3.62,0.01 -6.22,0.63 -2.61,0.62 -5.49,1.31 -8.66,2.08 -3.11,0.83 -6.22,1.55 -9.25,2.17 -2.99,0.68 -5.44,0.88 -7.31,0.67 -3.46,-0.4 -6.1,-2.75 -8.03,-7.07 -1.93,-4.32 -3.17,-9.53 -3.65,-15.63 -0.55,-6.05 -0.47,-11.87 0.17,-17.52 0.56,-4.89 1.53,-9.1 2.86,-12.67 1.39,-3.62 3.03,-5.74 5.01,-6.49 8.21,-2.51 19.7,-3.83 34.54,-3.91 14.79,-0.14 30.38,0.8 46.67,2.67 16.35,1.88 31.69,4.5 46.12,8 14.38,3.43 25.32,7.33 32.7,11.63 1.76,1.17 2.93,3.62 3.4,7.46 0.53,3.78 0.53,8.1 -0.04,13 -0.7,6.07 -2.02,11.91 -3.92,17.68 -1.95,5.71 -4.33,10.4 -7.17,14.01 -2.84,3.61 -6.05,5.24 -9.57,4.83 -2.29,-0.26 -7.13,-2.28 -14.46,-6.08 -6.46,-3.39 -10.57,-5.15 -12.39,-5.36 -3.19,-0.37 -5.53,0.77 -6.93,3.47 -1.44,2.64 -2.47,6.94 -3.13,12.75 -2.14,18.63 -4.11,39.5 -5.91,62.7 -1.46,18.76 -3.04,35.84 -4.8,51.12 -0.98,8.52 -1.99,15.41 -3.02,20.64 -1.1,3.49 -5.43,5.9 -12.92,7.31 -7.5,1.41 -15.4,1.63 -23.7,0.68zm157.53 18.1l-3.57 -0.41c-15.28,-1.75 -27.06,-5.75 -35.3,-12.03 -8.23,-6.29 -12.3,-18.24 -12.16,-35.92 0.67,-37.73 3.07,-74.57 7.19,-110.45 2.03,-17.67 4.33,-33.48 6.85,-47.38 3.06,-13.03 17.62,-19.12 43.68,-18.23 9.13,0.34 17.11,0.88 23.98,1.67 12.77,1.47 23.45,3.34 32.04,5.62 8.58,2.33 16.52,5.51 23.7,9.63 1.87,1.13 3.1,3.59 3.59,7.26 0.54,3.73 0.54,7.99 -0.02,12.89 -0.64,5.59 -1.87,11.06 -3.71,16.35 -1.79,5.24 -4.12,9.56 -6.87,12.86 -2.7,3.3 -5.84,4.78 -9.24,4.39 -3.14,-0.36 -7.75,-2.07 -13.82,-5.09 -9.58,-4.44 -16.74,-6.94 -21.42,-7.48 -10.17,-1.17 -15.76,2.39 -16.71,10.7 -0.6,5.22 -0.2,8.77 1.2,10.66 1.45,1.89 3.75,3.02 7,3.39 2.19,0.25 4.66,0.32 7.36,0.25 3.53,-0.24 7.35,-0.13 11.5,0.35 3.14,0.36 5.56,1.88 7.3,4.56 1.74,2.68 2.87,6.05 3.37,10.1 0.46,4.04 0.45,8.3 -0.07,12.78 -0.76,6.65 -2.45,12.83 -5.14,18.45 -2.65,5.69 -5.7,8.3 -9.27,7.89 -5.48,-0.63 -10.01,-1.64 -13.58,-2.96 -2.44,-0.82 -4.59,-1.34 -6.45,-1.55 -3.2,-0.37 -5.51,0.5 -6.83,2.67 -1.38,2.16 -2.53,7.47 -3.5,15.89 -0.77,6.65 0.3,11.47 3.24,14.51 2.89,3.03 6.52,4.79 10.77,5.28 3.94,0.45 8.56,0.17 13.85,-0.78 5.23,-0.96 10.82,-2.15 16.65,-3.64l2.27 -0.5c0.89,-0.22 1.76,-0.28 2.56,-0.19 3.46,0.4 6.07,2.59 7.93,6.52 1.87,3.93 3.1,8.72 3.59,14.33 0.55,5.57 0.46,11 -0.15,16.33 -0.55,4.79 -1.46,8.95 -2.84,12.46 -1.38,3.56 -3.08,5.69 -5.15,6.37 -6.75,1.97 -16.12,3.22 -28.1,3.73 -11.93,0.52 -23.85,0.12 -35.72,-1.25zm111.69 12.84c-5,-0.57 -9.3,-1.72 -12.88,-3.37 -3.63,-1.71 -5.74,-4.05 -6.31,-7.03 -1.66,-11.36 -2.1,-26.35 -1.32,-44.87 0.73,-18.58 2.3,-37.87 4.61,-57.94 4.4,-38.28 10.02,-70.27 16.85,-95.91 1.72,-5.09 5.63,-8.58 11.63,-10.58 6.06,-2 12.54,-2.61 19.52,-1.8 5.06,0.58 9.87,1.89 14.32,3.97 4.46,2.02 7.81,4.78 10.16,8.34 5.25,8.32 11.86,21.65 19.73,40.03 1.92,4.43 3.58,7.8 5.05,10.08 1.41,2.26 2.84,3.45 4.33,3.62 1.54,0.18 3.32,-0.7 5.32,-2.68 2.06,-1.97 4.57,-4.98 7.5,-8.95 12.69,-16.56 22.65,-27.17 29.94,-31.94 8.87,-5.83 17.62,-8.22 26.24,-7.23 7.94,0.91 13.84,2.07 17.78,3.5 3.93,1.48 6.23,3.95 6.92,7.38 2.64,14.54 3.65,34.4 3.01,59.63 -0.63,25.17 -2.35,50 -5.15,74.44 -3.09,26.83 -6.89,48.67 -11.48,65.57 -1.65,4.93 -5.32,8.29 -11.12,9.95 -5.75,1.66 -12.1,2.06 -18.92,1.28 -5.75,-0.66 -11.31,-2 -16.8,-4.04 -5.42,-2.08 -9.89,-4.53 -13.27,-7.46 -3.39,-2.93 -4.92,-6.07 -4.53,-9.37 0.89,-7.72 2.35,-17.2 4.35,-28.47 2.93,-15.25 5.45,-32.01 7.56,-50.32 0.57,-5 0.38,-7.51 -0.58,-7.62 -0.69,-0.08 -1.9,1.02 -3.62,3.36 -1.67,2.34 -3.56,5.2 -5.63,8.57 -2.07,3.43 -4.13,6.86 -6.09,10.31 -1.9,2.97 -4.88,4.94 -8.99,5.98 -4.06,1.1 -8.41,1.35 -12.98,0.83 -4.47,-0.52 -8.59,-1.74 -12.35,-3.74 -3.77,-1.94 -6.28,-4.55 -7.46,-7.87 -4.65,-15.37 -7.75,-23.17 -9.35,-23.35 -0.8,-0.09 -1.39,1.3 -1.72,4.22 -1.86,21.8 -3.27,40.62 -4.11,56.44 -0.64,12.66 -1.28,21.91 -1.94,27.72 -0.29,2.5 -2.46,4.52 -6.54,6.15 -4.07,1.58 -9.04,2.63 -14.83,3.26 -5.84,0.57 -11.45,0.57 -16.82,-0.04zm221.49 26.69c-4.69,-0.54 -8.67,-1.54 -11.96,-2.99 -3.33,-1.52 -5.3,-3.63 -5.91,-6.29 -3.09,-15.35 -4.25,-36.25 -3.46,-62.86 0.79,-26.56 2.62,-52.35 5.5,-77.42 2.75,-23.91 5.99,-43.65 9.83,-59.23 3.4,-10.35 14.9,-15.17 34.52,-14.53 6.82,0.24 12.86,0.72 18.18,1.33l2.67 0.31c19.22,2.21 35.12,7.49 47.65,15.78 12.53,8.34 21.65,18.56 27.5,30.62 5.84,12.05 8.01,24.6 6.51,37.7 -1.84,16.03 -8.45,30.32 -19.87,42.86 -11.42,12.55 -27.52,21.71 -48.42,27.56 -7.95,2.11 -13.55,4.75 -16.88,7.93 -3.32,3.12 -5.27,7.32 -5.86,12.49 -0.37,3.24 -0.06,7.06 1.05,11.5 0.64,3.37 1.18,7.1 1.63,11.19 0.39,4.09 0.35,8.72 -0.25,13.94 -0.3,2.61 -2.81,4.75 -7.49,6.48 -4.67,1.73 -10.21,2.93 -16.66,3.64 -6.49,0.65 -12.53,0.66 -18.28,0zm54.92 -121.69c3.83,0.44 7.09,-0.21 9.72,-1.96 2.63,-1.74 4.62,-4.11 6.1,-7.12 1.42,-2.97 2.37,-6.04 2.73,-9.18 0.59,-5.17 -0.29,-10.17 -2.55,-14.91 -2.31,-4.74 -6.15,-7.56 -11.54,-8.5 -2.51,-0.29 -4.67,1.68 -6.5,5.89 -1.89,4.2 -3.08,8.92 -3.68,14.14 -0.57,4.95 -0.48,9.76 0.4,14.34 0.82,4.57 2.59,6.99 5.31,7.3zm133.15 142.06l-3.57 -0.41c-15.28,-1.76 -27.07,-5.75 -35.29,-12.04 -8.23,-6.29 -12.31,-18.24 -12.16,-35.92 0.67,-37.73 3.07,-74.57 7.19,-110.45 2.03,-17.68 4.33,-33.48 6.85,-47.38 3.06,-13.02 17.62,-19.12 43.68,-18.23 9.13,0.35 17.11,0.89 23.97,1.67 12.78,1.47 23.46,3.34 32.04,5.63 8.58,2.33 16.52,5.51 23.71,9.63 1.87,1.13 3.09,3.59 3.59,7.26 0.54,3.73 0.54,7.99 -0.02,12.89 -0.64,5.59 -1.86,11.06 -3.71,16.35 -1.79,5.24 -4.12,9.56 -6.87,12.86 -2.7,3.3 -5.84,4.78 -9.25,4.39 -3.14,-0.36 -7.74,-2.08 -13.81,-5.09 -9.58,-4.44 -16.74,-6.94 -21.42,-7.48 -10.17,-1.17 -15.76,2.39 -16.71,10.7 -0.6,5.22 -0.2,8.77 1.2,10.66 1.45,1.89 3.75,3.02 7,3.39 2.18,0.25 4.66,0.32 7.36,0.25 3.54,-0.24 7.35,-0.12 11.5,0.35 3.14,0.36 5.56,1.88 7.3,4.56 1.74,2.68 2.87,6.05 3.37,10.1 0.45,4.04 0.45,8.3 -0.07,12.77 -0.76,6.66 -2.44,12.83 -5.14,18.45 -2.65,5.68 -5.7,8.3 -9.27,7.89 -5.48,-0.63 -10.01,-1.64 -13.58,-2.96 -2.44,-0.82 -4.59,-1.34 -6.45,-1.55 -3.2,-0.37 -5.51,0.5 -6.83,2.67 -1.38,2.16 -2.53,7.47 -3.5,15.89 -0.76,6.65 0.3,11.47 3.24,14.5 2.89,3.03 6.52,4.79 10.78,5.28 3.94,0.46 8.56,0.18 13.85,-0.78 5.23,-0.97 10.82,-2.16 16.65,-3.64l2.27 -0.5c0.89,-0.22 1.76,-0.28 2.56,-0.19 3.46,0.4 6.07,2.59 7.93,6.52 1.87,3.94 3.1,8.72 3.59,14.33 0.55,5.56 0.46,11 -0.15,16.32 -0.55,4.79 -1.46,8.95 -2.84,12.46 -1.38,3.56 -3.08,5.69 -5.15,6.36 -6.76,1.98 -16.12,3.22 -28.1,3.73 -11.93,0.52 -23.85,0.12 -35.73,-1.25zm114.96 14.45c-4.58,-0.53 -8.51,-1.52 -11.9,-2.98 -3.33,-1.52 -5.35,-3.64 -5.96,-6.3 -3,-15.23 -4.17,-36.02 -3.46,-62.37 0.71,-26.35 2.53,-52.04 5.41,-77.11 2.76,-24.01 6.09,-44.02 10.03,-60.02 3.27,-10.68 14.78,-15.51 34.57,-14.53 6.83,0.24 12.86,0.72 18.18,1.33l2.61 0.3c19.06,2.19 34.9,7.51 47.53,15.92 12.56,8.46 21.74,18.68 27.5,30.62 5.75,11.93 7.9,24.16 6.45,36.77 -2.61,22.73 -12.81,40.65 -30.65,53.66 -1.61,1.32 -2.87,2.42 -3.78,3.29 -0.92,0.92 -1.41,1.89 -1.52,2.9 -0.17,1.49 0.7,3.8 2.59,7.04 1.9,3.19 4.31,7.03 7.21,11.4 2.95,4.38 5.87,9.03 8.76,13.9 2.9,4.86 5.32,9.62 7.2,14.31 1.89,4.69 2.6,8.82 2.2,12.33 -0.56,4.9 -3.26,9.55 -8.14,14.01 -4.88,4.45 -10.62,7.95 -17.18,10.54 -6.55,2.54 -12.65,3.51 -18.29,2.86 -6.44,-0.74 -10.84,-3.78 -13.3,-9.14 -9.95,-24.17 -17,-36.53 -21.05,-36.99 -1.54,-0.18 -2.63,1.75 -3.2,5.78 -0.19,1.65 -0.05,3.72 0.42,6.19 0.2,2.02 0.36,4.36 0.54,7.02 0.12,2.66 0.05,5.72 -0.35,9.13 -0.29,2.5 -2.8,4.64 -7.48,6.42 -4.68,1.78 -10.21,2.98 -16.66,3.7 -6.49,0.65 -12.53,0.66 -18.28,0zm55.56 -121.62c5.3,0.4 9.49,-1.34 12.52,-5.19 3.03,-3.86 4.83,-8.24 5.39,-13.14 0.59,-5.17 -0.28,-10.17 -2.65,-14.98 -2.36,-4.8 -6.24,-7.68 -11.74,-8.63 -2.42,-0.06 -4.49,1.91 -6.29,5.86 -1.75,3.95 -2.9,8.4 -3.48,13.41 -0.61,5.32 -0.48,10.3 0.39,14.93 0.92,4.64 2.69,7.16 5.38,7.68l0.48 0.05zm149.54 143.95c-13.63,-1.57 -25.15,-6.02 -34.51,-13.3 -9.41,-7.28 -16.77,-16.49 -22.17,-27.69 -5.46,-11.15 -9.01,-23.42 -10.82,-36.79 -1.76,-13.36 -1.87,-26.91 -0.29,-40.65 1.68,-14.64 5.01,-28.61 9.93,-41.85 4.98,-13.23 11.37,-24.8 19.26,-34.73 7.88,-9.93 17.12,-17.56 27.75,-22.76 10.58,-5.2 22.33,-7.04 35.22,-5.56 13.2,1.52 24.53,6.27 33.91,14.2 9.44,7.99 16.97,18.08 22.69,30.22 5.72,12.15 9.59,25.43 11.65,39.91 2.01,14.42 2.18,28.89 0.53,43.32 -1.54,13.42 -4.63,26.22 -9.31,38.36 -4.64,12.2 -10.87,22.81 -18.67,31.94 -7.79,9.09 -17.1,16 -28,20.68 -10.85,4.75 -23.27,6.28 -37.16,4.69zm7.16 -58.13c4.37,0.5 8.21,-1.48 11.58,-6 3.33,-4.53 6.12,-10.57 8.39,-18.08 2.22,-7.57 3.85,-15.63 4.84,-24.26 1.05,-9.16 1.35,-18.29 0.83,-27.42 -0.47,-9.11 -1.8,-16.71 -4,-22.9 -2.16,-6.13 -5.39,-9.47 -9.64,-9.96 -6.65,-0.76 -12.24,3.66 -16.75,13.34 -4.45,9.63 -7.56,22.16 -9.33,37.55 -1.05,9.16 -1.32,18.08 -0.8,26.72 0.52,8.63 2.01,15.82 4.43,21.6 2.36,5.72 5.88,8.88 10.46,9.4zm231.77 85.59l-3.57 -0.41c-15.28,-1.76 -27.07,-5.75 -35.3,-12.04 -8.23,-6.29 -12.31,-18.24 -12.16,-35.92 0.67,-37.74 3.07,-74.57 7.19,-110.46 2.03,-17.68 4.33,-33.48 6.85,-47.38 3.06,-13.03 17.62,-19.12 43.68,-18.23 9.13,0.35 17.11,0.89 23.98,1.67 12.77,1.47 23.45,3.34 32.04,5.63 8.58,2.33 16.52,5.51 23.7,9.63 1.87,1.13 3.09,3.59 3.59,7.26 0.54,3.73 0.54,7.99 -0.02,12.89 -0.64,5.59 -1.86,11.06 -3.71,16.35 -1.79,5.24 -4.12,9.56 -6.87,12.86 -2.7,3.3 -5.84,4.78 -9.25,4.39 -3.14,-0.36 -7.74,-2.08 -13.81,-5.09 -9.58,-4.44 -16.74,-6.94 -21.42,-7.48 -10.17,-1.17 -15.76,2.39 -16.71,10.7 -0.6,5.22 -0.2,8.77 1.2,10.66 1.45,1.89 3.75,3.02 7,3.4 2.18,0.25 4.66,0.32 7.36,0.25 3.53,-0.24 7.35,-0.12 11.5,0.35 3.14,0.36 5.56,1.88 7.3,4.56 1.74,2.68 2.87,6.05 3.37,10.1 0.45,4.04 0.45,8.3 -0.07,12.78 -0.76,6.65 -2.44,12.83 -5.14,18.45 -2.65,5.68 -5.7,8.3 -9.27,7.89 -5.48,-0.63 -10.01,-1.64 -13.58,-2.96 -2.44,-0.82 -4.59,-1.34 -6.45,-1.55 -3.2,-0.37 -5.51,0.5 -6.83,2.67 -1.38,2.16 -2.54,7.48 -3.5,15.89 -0.77,6.65 0.3,11.47 3.24,14.5 2.89,3.03 6.52,4.79 10.78,5.28 3.94,0.46 8.56,0.18 13.85,-0.78 5.23,-0.96 10.82,-2.16 16.65,-3.64l2.27 -0.5c0.89,-0.22 1.76,-0.28 2.56,-0.19 3.46,0.4 6.07,2.59 7.93,6.52 1.87,3.94 3.1,8.72 3.59,14.33 0.54,5.56 0.46,11 -0.15,16.32 -0.55,4.79 -1.46,8.95 -2.84,12.46 -1.38,3.56 -3.08,5.69 -5.15,6.36 -6.75,1.97 -16.12,3.22 -28.1,3.73 -11.93,0.52 -23.85,0.12 -35.73,-1.24zm111.69 12.83c-5,-0.58 -9.3,-1.71 -12.88,-3.37 -3.63,-1.71 -5.74,-4.06 -6.31,-7.03 -1.66,-11.36 -2.1,-26.35 -1.32,-44.87 0.73,-18.58 2.3,-37.87 4.61,-57.94 4.4,-38.28 10.02,-70.27 16.85,-95.91 1.72,-5.09 5.63,-8.58 11.63,-10.58 6.06,-2 12.54,-2.6 19.52,-1.8 5.06,0.58 9.87,1.89 14.32,3.96 4.46,2.02 7.82,4.78 10.16,8.34 5.25,8.31 11.86,21.64 19.73,40.03 1.92,4.43 3.58,7.8 5.04,10.07 1.41,2.27 2.84,3.46 4.33,3.63 1.54,0.18 3.32,-0.7 5.32,-2.68 2.06,-1.97 4.56,-4.98 7.5,-8.95 12.69,-16.56 22.65,-27.17 29.94,-31.94 8.87,-5.83 17.62,-8.23 26.24,-7.23 7.93,0.91 13.84,2.07 17.78,3.5 3.93,1.48 6.23,3.95 6.92,7.38 2.64,14.54 3.65,34.4 3.02,59.63 -0.63,25.17 -2.35,50 -5.15,74.44 -3.08,26.83 -6.89,48.67 -11.47,65.57 -1.65,4.93 -5.32,8.29 -11.12,9.94 -5.74,1.66 -12.1,2.06 -18.92,1.28 -5.75,-0.66 -11.31,-2 -16.8,-4.03 -5.42,-2.08 -9.89,-4.53 -13.27,-7.46 -3.39,-2.93 -4.91,-6.07 -4.53,-9.37 0.89,-7.72 2.35,-17.2 4.35,-28.47 2.94,-15.25 5.46,-32.01 7.56,-50.32 0.58,-5.01 0.38,-7.51 -0.58,-7.62 -0.7,-0.08 -1.9,1.02 -3.62,3.36 -1.67,2.34 -3.56,5.2 -5.63,8.57 -2.07,3.43 -4.13,6.86 -6.09,10.31 -1.9,2.97 -4.88,4.94 -8.99,5.98 -4.07,1.1 -8.4,1.35 -12.98,0.83 -4.47,-0.51 -8.59,-1.74 -12.36,-3.73 -3.77,-1.94 -6.27,-4.55 -7.46,-7.87 -4.65,-15.37 -7.75,-23.17 -9.35,-23.35 -0.8,-0.09 -1.39,1.3 -1.73,4.23 -1.86,21.8 -3.27,40.62 -4.11,56.44 -0.64,12.65 -1.28,21.91 -1.94,27.72 -0.29,2.5 -2.46,4.52 -6.54,6.15 -4.07,1.58 -9.04,2.63 -14.83,3.26 -5.84,0.57 -11.45,0.57 -16.82,-0.05z"/>
   <path class="fil6" d="M536.92 1285.93c-6.65,-0.77 -12.56,-2.36 -17.68,-4.79 -5.17,-2.42 -7.95,-5.93 -8.35,-10.4 -0.67,-20.9 0.53,-44.55 3.56,-70.85 1.26,-11.02 2.94,-22.32 5.13,-33.87 2.19,-11.51 3.96,-23.17 5.31,-34.94 0.98,-8.52 -1.84,-13.16 -8.38,-13.91 -1.54,-0.18 -3.62,0.01 -6.22,0.63 -2.61,0.62 -5.49,1.31 -8.65,2.08 -3.11,0.83 -6.22,1.55 -9.25,2.17 -2.99,0.68 -5.44,0.89 -7.31,0.67 -3.46,-0.4 -6.1,-2.75 -8.03,-7.07 -1.93,-4.32 -3.17,-9.53 -3.65,-15.63 -0.55,-6.05 -0.47,-11.87 0.18,-17.51 0.56,-4.9 1.53,-9.1 2.86,-12.67 1.39,-3.62 3.04,-5.75 5.01,-6.49 8.21,-2.51 19.7,-3.83 34.54,-3.91 14.79,-0.14 30.39,0.79 46.67,2.66 16.34,1.88 31.68,4.51 46.12,8 14.38,3.43 25.32,7.33 32.7,11.63 1.75,1.17 2.93,3.62 3.4,7.46 0.54,3.78 0.53,8.1 -0.04,13 -0.7,6.07 -2.02,11.91 -3.92,17.68 -1.95,5.71 -4.33,10.4 -7.17,14.01 -2.84,3.61 -6.05,5.24 -9.56,4.83 -2.29,-0.26 -7.13,-2.28 -14.46,-6.08 -6.46,-3.39 -10.57,-5.15 -12.38,-5.36 -3.2,-0.37 -5.54,0.77 -6.93,3.47 -1.44,2.64 -2.47,6.94 -3.13,12.75 -2.15,18.63 -4.11,39.5 -5.92,62.7 -1.45,18.76 -3.04,35.84 -4.79,51.12 -0.98,8.52 -1.99,15.41 -3.02,20.64 -1.1,3.49 -5.43,5.9 -12.92,7.31 -7.5,1.41 -15.4,1.63 -23.7,0.68zm157.53 18.1l-3.57 -0.41c-15.28,-1.76 -27.06,-5.75 -35.29,-12.04 -8.23,-6.29 -12.3,-18.24 -12.16,-35.92 0.67,-37.73 3.07,-74.57 7.19,-110.45 2.03,-17.67 4.33,-33.48 6.85,-47.38 3.06,-13.02 17.63,-19.12 43.68,-18.23 9.13,0.35 17.11,0.89 23.97,1.67 12.78,1.47 23.46,3.34 32.04,5.62 8.58,2.33 16.52,5.51 23.71,9.63 1.87,1.13 3.09,3.59 3.59,7.26 0.54,3.73 0.54,7.99 -0.02,12.89 -0.64,5.59 -1.86,11.06 -3.71,16.35 -1.79,5.24 -4.12,9.56 -6.87,12.86 -2.7,3.3 -5.84,4.78 -9.24,4.39 -3.14,-0.36 -7.74,-2.07 -13.81,-5.09 -9.58,-4.44 -16.74,-6.94 -21.42,-7.48 -10.17,-1.17 -15.76,2.39 -16.71,10.7 -0.6,5.22 -0.2,8.77 1.2,10.66 1.45,1.89 3.75,3.02 7,3.39 2.19,0.25 4.66,0.32 7.36,0.25 3.54,-0.24 7.35,-0.13 11.5,0.35 3.14,0.36 5.56,1.88 7.3,4.56 1.74,2.68 2.86,6.05 3.37,10.1 0.45,4.04 0.45,8.3 -0.07,12.78 -0.76,6.65 -2.45,12.83 -5.14,18.45 -2.65,5.69 -5.7,8.3 -9.27,7.89 -5.48,-0.63 -10.01,-1.64 -13.58,-2.96 -2.44,-0.82 -4.59,-1.34 -6.46,-1.55 -3.19,-0.37 -5.5,0.5 -6.83,2.67 -1.38,2.16 -2.53,7.47 -3.5,15.89 -0.77,6.66 0.3,11.47 3.24,14.51 2.89,3.03 6.52,4.79 10.77,5.28 3.94,0.46 8.56,0.17 13.85,-0.78 5.23,-0.96 10.82,-2.16 16.65,-3.64l2.27 -0.5c0.89,-0.22 1.76,-0.28 2.56,-0.19 3.46,0.4 6.07,2.58 7.93,6.52 1.87,3.93 3.1,8.72 3.58,14.33 0.55,5.56 0.46,11 -0.15,16.33 -0.55,4.79 -1.46,8.95 -2.84,12.46 -1.38,3.56 -3.08,5.69 -5.15,6.36 -6.75,1.98 -16.12,3.22 -28.1,3.73 -11.93,0.52 -23.85,0.12 -35.72,-1.25zm111.69 12.84c-5,-0.58 -9.3,-1.72 -12.88,-3.37 -3.63,-1.71 -5.74,-4.05 -6.31,-7.03 -1.66,-11.36 -2.1,-26.35 -1.32,-44.87 0.73,-18.58 2.3,-37.87 4.61,-57.94 4.4,-38.28 10.02,-70.27 16.85,-95.91 1.72,-5.09 5.63,-8.58 11.62,-10.58 6.06,-2 12.55,-2.61 19.52,-1.8 5.06,0.58 9.87,1.89 14.32,3.97 4.46,2.02 7.81,4.78 10.15,8.34 5.25,8.31 11.86,21.65 19.73,40.02 1.92,4.43 3.58,7.8 5.05,10.08 1.41,2.26 2.84,3.45 4.33,3.62 1.54,0.18 3.32,-0.69 5.32,-2.68 2.06,-1.97 4.56,-4.98 7.5,-8.96 12.69,-16.56 22.65,-27.17 29.94,-31.94 8.87,-5.83 17.61,-8.22 26.24,-7.23 7.94,0.91 13.84,2.08 17.78,3.5 3.93,1.47 6.23,3.95 6.92,7.37 2.64,14.54 3.65,34.41 3.02,59.63 -0.63,25.18 -2.35,50 -5.16,74.44 -3.08,26.83 -6.88,48.67 -11.47,65.57 -1.65,4.93 -5.32,8.29 -11.12,9.94 -5.75,1.66 -12.1,2.06 -18.92,1.28 -5.75,-0.66 -11.31,-2 -16.8,-4.04 -5.42,-2.08 -9.89,-4.53 -13.27,-7.46 -3.39,-2.93 -4.92,-6.06 -4.53,-9.37 0.89,-7.72 2.35,-17.21 4.35,-28.47 2.94,-15.25 5.46,-32.01 7.56,-50.32 0.57,-5 0.38,-7.51 -0.58,-7.61 -0.7,-0.08 -1.9,1.02 -3.62,3.36 -1.67,2.34 -3.56,5.2 -5.63,8.58 -2.06,3.43 -4.13,6.86 -6.09,10.3 -1.9,2.97 -4.88,4.94 -9,5.98 -4.06,1.1 -8.4,1.35 -12.98,0.83 -4.47,-0.51 -8.59,-1.74 -12.35,-3.74 -3.77,-1.94 -6.27,-4.55 -7.46,-7.87 -4.65,-15.37 -7.75,-23.17 -9.35,-23.35 -0.8,-0.09 -1.38,1.3 -1.72,4.22 -1.86,21.8 -3.27,40.62 -4.11,56.44 -0.65,12.65 -1.28,21.91 -1.94,27.72 -0.29,2.5 -2.46,4.52 -6.53,6.15 -4.07,1.58 -9.04,2.63 -14.83,3.26 -5.84,0.57 -11.45,0.57 -16.82,-0.04zm221.48 26.69c-4.68,-0.54 -8.67,-1.54 -11.95,-2.99 -3.33,-1.52 -5.3,-3.63 -5.91,-6.29 -3.09,-15.35 -4.25,-36.25 -3.46,-62.86 0.79,-26.56 2.62,-52.35 5.5,-77.42 2.75,-23.9 5.99,-43.65 9.83,-59.23 3.4,-10.34 14.9,-15.17 34.52,-14.53 6.82,0.24 12.86,0.72 18.18,1.33l2.67 0.31c19.22,2.2 35.12,7.48 47.65,15.77 12.53,8.35 21.66,18.57 27.5,30.62 5.85,12.05 8.02,24.6 6.51,37.7 -1.84,16.03 -8.45,30.31 -19.87,42.86 -11.42,12.55 -27.52,21.7 -48.42,27.56 -7.95,2.1 -13.55,4.75 -16.88,7.93 -3.33,3.13 -5.27,7.33 -5.86,12.49 -0.37,3.25 -0.06,7.06 1.05,11.5 0.64,3.36 1.18,7.09 1.63,11.19 0.4,4.09 0.35,8.72 -0.25,13.94 -0.3,2.61 -2.81,4.75 -7.49,6.48 -4.67,1.73 -10.2,2.93 -16.65,3.64 -6.49,0.65 -12.53,0.67 -18.28,0zm54.93 -121.69c3.83,0.44 7.09,-0.21 9.72,-1.96 2.63,-1.74 4.62,-4.1 6.1,-7.12 1.42,-2.96 2.37,-6.03 2.73,-9.18 0.59,-5.17 -0.28,-10.17 -2.55,-14.91 -2.31,-4.74 -6.14,-7.56 -11.53,-8.5 -2.51,-0.29 -4.67,1.67 -6.51,5.89 -1.88,4.2 -3.07,8.92 -3.68,14.14 -0.57,4.95 -0.47,9.76 0.41,14.34 0.82,4.57 2.59,6.99 5.31,7.3zm133.15 142.06l-3.57 -0.41c-15.28,-1.76 -27.07,-5.75 -35.29,-12.04 -8.23,-6.28 -12.31,-18.24 -12.16,-35.92 0.67,-37.74 3.06,-74.57 7.19,-110.46 2.03,-17.68 4.33,-33.48 6.85,-47.38 3.06,-13.03 17.63,-19.12 43.68,-18.23 9.13,0.34 17.1,0.89 23.97,1.67 12.78,1.47 23.46,3.34 32.04,5.63 8.58,2.33 16.52,5.51 23.71,9.62 1.86,1.13 3.09,3.59 3.59,7.26 0.54,3.73 0.54,7.99 -0.02,12.89 -0.64,5.59 -1.87,11.06 -3.71,16.35 -1.79,5.24 -4.12,9.56 -6.87,12.86 -2.7,3.3 -5.83,4.78 -9.24,4.38 -3.14,-0.36 -7.74,-2.07 -13.82,-5.09 -9.57,-4.44 -16.74,-6.94 -21.42,-7.48 -10.17,-1.17 -15.76,2.4 -16.71,10.7 -0.6,5.22 -0.2,8.77 1.2,10.66 1.46,1.89 3.75,3.02 7,3.39 2.18,0.25 4.66,0.32 7.36,0.25 3.53,-0.24 7.35,-0.13 11.5,0.35 3.14,0.36 5.56,1.88 7.3,4.56 1.74,2.68 2.87,6.05 3.37,10.1 0.46,4.04 0.45,8.3 -0.07,12.77 -0.76,6.66 -2.44,12.83 -5.14,18.45 -2.65,5.69 -5.7,8.3 -9.27,7.89 -5.48,-0.63 -10.01,-1.64 -13.58,-2.96 -2.44,-0.82 -4.59,-1.34 -6.46,-1.55 -3.19,-0.37 -5.5,0.5 -6.83,2.67 -1.38,2.16 -2.54,7.47 -3.5,15.89 -0.77,6.65 0.3,11.47 3.24,14.51 2.89,3.03 6.52,4.79 10.78,5.28 3.94,0.45 8.56,0.18 13.85,-0.78 5.23,-0.97 10.82,-2.16 16.65,-3.64l2.27 -0.49c0.89,-0.22 1.76,-0.29 2.56,-0.2 3.46,0.4 6.06,2.59 7.93,6.52 1.87,3.94 3.1,8.72 3.59,14.33 0.54,5.57 0.46,11 -0.15,16.32 -0.55,4.79 -1.46,8.95 -2.83,12.46 -1.38,3.56 -3.08,5.69 -5.15,6.36 -6.75,1.97 -16.12,3.22 -28.1,3.73 -11.93,0.52 -23.86,0.12 -35.73,-1.25zm114.96 14.45c-4.58,-0.53 -8.51,-1.52 -11.9,-2.98 -3.33,-1.52 -5.35,-3.64 -5.97,-6.3 -3,-15.23 -4.17,-36.03 -3.46,-62.37 0.71,-26.35 2.53,-52.04 5.41,-77.11 2.76,-24.01 6.08,-44.02 10.03,-60.02 3.28,-10.68 14.78,-15.51 34.57,-14.53 6.82,0.24 12.86,0.72 18.18,1.33l2.61 0.3c19.06,2.19 34.9,7.52 47.53,15.93 12.57,8.45 21.75,18.68 27.5,30.61 5.75,11.93 7.91,24.16 6.45,36.78 -2.61,22.73 -12.81,40.65 -30.65,53.65 -1.61,1.33 -2.87,2.42 -3.77,3.29 -0.92,0.92 -1.41,1.89 -1.52,2.9 -0.17,1.49 0.7,3.8 2.59,7.04 1.9,3.18 4.32,7.02 7.21,11.4 2.95,4.38 5.87,9.03 8.76,13.9 2.89,4.86 5.32,9.62 7.2,14.31 1.89,4.69 2.6,8.82 2.2,12.33 -0.56,4.9 -3.26,9.55 -8.14,14.01 -4.88,4.45 -10.62,7.95 -17.18,10.54 -6.55,2.54 -12.65,3.51 -18.29,2.86 -6.44,-0.74 -10.84,-3.78 -13.3,-9.14 -9.95,-24.18 -17,-36.53 -21.04,-36.99 -1.54,-0.18 -2.63,1.75 -3.2,5.78 -0.19,1.65 -0.05,3.71 0.42,6.19 0.2,2.02 0.36,4.36 0.54,7.02 0.13,2.66 0.05,5.72 -0.35,9.13 -0.28,2.5 -2.8,4.64 -7.48,6.42 -4.68,1.78 -10.21,2.98 -16.66,3.69 -6.49,0.65 -12.53,0.67 -18.28,0zm55.56 -121.62c5.29,0.39 9.48,-1.34 12.52,-5.19 3.03,-3.86 4.83,-8.24 5.39,-13.14 0.59,-5.17 -0.29,-10.17 -2.65,-14.98 -2.36,-4.8 -6.24,-7.68 -11.74,-8.63 -2.42,-0.06 -4.48,1.91 -6.28,5.86 -1.75,3.95 -2.91,8.4 -3.48,13.41 -0.61,5.32 -0.48,10.3 0.39,14.93 0.92,4.64 2.68,7.16 5.37,7.68l0.48 0.06zm149.54 143.94c-13.63,-1.57 -25.15,-6.02 -34.51,-13.3 -9.41,-7.28 -16.77,-16.49 -22.17,-27.68 -5.46,-11.15 -9.01,-23.42 -10.82,-36.79 -1.75,-13.36 -1.87,-26.91 -0.29,-40.65 1.68,-14.64 5.01,-28.61 9.93,-41.85 4.97,-13.24 11.37,-24.8 19.25,-34.74 7.88,-9.93 17.13,-17.56 27.75,-22.76 10.58,-5.2 22.33,-7.04 35.22,-5.56 13.2,1.52 24.52,6.27 33.91,14.2 9.44,7.99 16.97,18.08 22.69,30.23 5.72,12.15 9.59,25.43 11.65,39.91 2.01,14.41 2.18,28.89 0.53,43.32 -1.54,13.41 -4.63,26.22 -9.31,38.36 -4.64,12.2 -10.87,22.81 -18.67,31.94 -7.79,9.09 -17.1,16 -28,20.68 -10.85,4.74 -23.27,6.28 -37.16,4.68zm7.16 -58.13c4.36,0.5 8.21,-1.48 11.58,-6 3.33,-4.53 6.13,-10.57 8.39,-18.08 2.22,-7.57 3.85,-15.63 4.84,-24.26 1.05,-9.16 1.35,-18.29 0.83,-27.41 -0.46,-9.11 -1.8,-16.71 -4,-22.9 -2.16,-6.13 -5.39,-9.47 -9.64,-9.96 -6.66,-0.76 -12.24,3.66 -16.75,13.34 -4.45,9.63 -7.56,22.17 -9.33,37.55 -1.05,9.15 -1.32,18.08 -0.8,26.72 0.52,8.64 2.02,15.82 4.43,21.6 2.36,5.72 5.88,8.88 10.46,9.4zm231.77 85.59l-3.57 -0.41c-15.28,-1.76 -27.07,-5.75 -35.29,-12.04 -8.23,-6.28 -12.31,-18.24 -12.17,-35.92 0.67,-37.74 3.07,-74.57 7.19,-110.46 2.03,-17.68 4.33,-33.48 6.85,-47.38 3.06,-13.03 17.63,-19.12 43.68,-18.23 9.13,0.34 17.1,0.89 23.97,1.67 12.78,1.47 23.46,3.34 32.04,5.63 8.58,2.33 16.52,5.51 23.71,9.63 1.86,1.13 3.09,3.59 3.59,7.26 0.54,3.73 0.54,7.99 -0.02,12.89 -0.64,5.59 -1.87,11.06 -3.71,16.35 -1.79,5.24 -4.12,9.56 -6.87,12.86 -2.7,3.3 -5.83,4.78 -9.24,4.39 -3.14,-0.36 -7.74,-2.08 -13.82,-5.09 -9.57,-4.44 -16.73,-6.94 -21.42,-7.48 -10.17,-1.17 -15.76,2.4 -16.71,10.7 -0.6,5.22 -0.2,8.77 1.2,10.66 1.45,1.89 3.75,3.02 7,3.39 2.18,0.25 4.66,0.32 7.36,0.25 3.54,-0.24 7.35,-0.13 11.5,0.35 3.14,0.36 5.56,1.88 7.3,4.56 1.74,2.68 2.87,6.05 3.37,10.1 0.45,4.04 0.45,8.3 -0.07,12.78 -0.76,6.66 -2.45,12.83 -5.14,18.45 -2.65,5.69 -5.7,8.3 -9.27,7.89 -5.48,-0.63 -10.01,-1.64 -13.58,-2.96 -2.44,-0.82 -4.59,-1.34 -6.46,-1.55 -3.19,-0.37 -5.5,0.5 -6.83,2.67 -1.38,2.16 -2.53,7.48 -3.5,15.89 -0.77,6.65 0.3,11.47 3.24,14.51 2.89,3.03 6.52,4.79 10.78,5.28 3.94,0.45 8.56,0.18 13.85,-0.78 5.23,-0.96 10.82,-2.15 16.65,-3.64l2.27 -0.49c0.89,-0.22 1.76,-0.29 2.56,-0.2 3.46,0.4 6.07,2.59 7.93,6.52 1.87,3.94 3.1,8.72 3.59,14.33 0.54,5.57 0.46,11 -0.15,16.32 -0.55,4.79 -1.46,8.95 -2.84,12.46 -1.38,3.56 -3.08,5.69 -5.15,6.37 -6.76,1.97 -16.12,3.22 -28.1,3.72 -11.93,0.52 -23.86,0.12 -35.73,-1.24zm111.69 12.83c-5,-0.57 -9.3,-1.71 -12.88,-3.37 -3.63,-1.71 -5.74,-4.05 -6.31,-7.04 -1.67,-11.36 -2.1,-26.35 -1.32,-44.87 0.73,-18.58 2.3,-37.87 4.61,-57.94 4.4,-38.28 10.02,-70.27 16.85,-95.91 1.72,-5.09 5.63,-8.58 11.63,-10.58 6.06,-2 12.54,-2.61 19.52,-1.8 5.06,0.58 9.87,1.89 14.32,3.96 4.46,2.02 7.81,4.78 10.15,8.34 5.25,8.31 11.86,21.65 19.73,40.03 1.92,4.43 3.58,7.8 5.04,10.07 1.41,2.27 2.84,3.46 4.33,3.63 1.54,0.18 3.32,-0.7 5.32,-2.68 2.06,-1.97 4.57,-4.98 7.51,-8.95 12.69,-16.56 22.65,-27.17 29.94,-31.94 8.87,-5.83 17.61,-8.23 26.24,-7.23 7.93,0.91 13.84,2.07 17.78,3.5 3.93,1.48 6.23,3.95 6.92,7.38 2.64,14.54 3.65,34.4 3.02,59.63 -0.63,25.17 -2.35,50 -5.15,74.44 -3.08,26.83 -6.89,48.67 -11.47,65.57 -1.64,4.93 -5.32,8.29 -11.12,9.94 -5.74,1.66 -12.1,2.06 -18.92,1.28 -5.75,-0.66 -11.31,-2 -16.8,-4.03 -5.42,-2.08 -9.89,-4.53 -13.28,-7.46 -3.38,-2.93 -4.91,-6.07 -4.53,-9.37 0.89,-7.72 2.35,-17.2 4.35,-28.47 2.94,-15.25 5.46,-32.01 7.56,-50.32 0.58,-5 0.38,-7.51 -0.58,-7.62 -0.69,-0.08 -1.9,1.02 -3.62,3.36 -1.67,2.34 -3.56,5.2 -5.63,8.57 -2.06,3.43 -4.13,6.86 -6.09,10.31 -1.9,2.96 -4.88,4.94 -8.99,5.97 -4.07,1.1 -8.41,1.35 -12.99,0.83 -4.47,-0.51 -8.59,-1.74 -12.35,-3.74 -3.77,-1.94 -6.27,-4.55 -7.46,-7.87 -4.66,-15.37 -7.75,-23.17 -9.35,-23.35 -0.8,-0.09 -1.39,1.29 -1.73,4.22 -1.86,21.8 -3.27,40.62 -4.11,56.44 -0.64,12.65 -1.28,21.91 -1.94,27.72 -0.29,2.5 -2.46,4.52 -6.53,6.15 -4.07,1.58 -9.04,2.63 -14.83,3.26 -5.84,0.57 -11.45,0.57 -16.82,-0.05z"/>
   <path class="fil7" d="M811.77 1647.16c-5.16,-0.7 -9.57,-1.93 -13.27,-3.75 -3.75,-1.77 -5.85,-4.1 -6.42,-6.91 -2.08,-15.68 -2.19,-36.51 -0.45,-62.5 1.8,-25.98 4.33,-50.87 7.56,-74.66 2.67,-19.66 5.34,-36.17 8.1,-49.57 1.96,-7.46 7.19,-12.27 15.74,-14.53 8.55,-2.2 18.01,-2.97 28.27,-2.2 10.26,0.71 18.45,1.51 24.64,2.35 9.86,1.34 19.07,3.17 27.62,5.59 8.56,2.37 16.46,5.71 23.66,9.99 1.68,1.12 2.78,3.53 3.19,7.11 0.45,3.64 0.37,7.72 -0.26,12.37 -0.75,5.52 -2.06,10.86 -3.91,15.97 -1.79,5.07 -4.09,9.22 -6.83,12.37 -2.74,3.15 -5.82,4.52 -9.22,4.06 -2.01,-0.27 -5.79,-1.84 -11.4,-4.65 -3.66,-1.71 -7.53,-3.39 -11.62,-5.05 -4.09,-1.61 -7.68,-2.62 -10.83,-3.05 -9.65,-1.31 -15.03,1.9 -16.08,9.64 -0.7,5.16 -0.66,8.69 0.24,10.6 0.85,1.9 2.69,3.04 5.37,3.41 1.91,0.26 4.16,0.35 6.74,0.28 3.64,-0.08 8.13,0.16 13.46,0.78 3.04,0.41 5.31,1.93 6.84,4.61 1.53,2.68 2.49,6.02 2.9,10.01 0.34,4.04 0.26,8.13 -0.32,12.36 -0.89,6.56 -2.69,12.46 -5.41,17.77 -2.71,5.25 -5.77,7.68 -9.23,7.21 -2.84,-0.38 -5.14,-0.86 -7.06,-1.43 -1.87,-0.57 -3.65,-0.97 -5.35,-1.2 -6.04,-0.82 -10.1,0.05 -12.23,2.54 -2.07,2.45 -3.63,7.76 -4.72,15.81 -1.13,8.36 -1.7,15.59 -1.57,21.65 0.12,6.06 0.33,11.5 0.73,16.29 0.53,8.06 0.54,14.21 -0.04,18.44 -0.33,2.43 -2.59,4.38 -6.73,5.86 -4.14,1.49 -9.17,2.43 -15.06,2.9 -5.84,0.42 -11.55,0.27 -17.07,-0.48zm104.92 14.25c-6.14,-0.83 -11.46,-2.29 -15.86,-4.31 -4.46,-2.03 -6.7,-4.49 -6.73,-7.38 0.62,-12.74 1.76,-25.36 3.47,-37.9 5.54,-40.82 16.59,-76.48 33.13,-106.98 8.25,-15.07 18.11,-27.34 29.64,-36.76 13.91,-11.46 28.58,-16.15 44.11,-14.04 9.08,1.23 16.94,4.56 23.67,9.94 6.73,5.38 12.32,11.87 16.85,19.53 4.49,7.6 7.97,15.64 10.41,23.96 8.47,29.38 9.65,66.33 3.6,110.87 -2.32,17.08 -5.3,33.55 -8.87,49.46 -0.97,3.29 -3.68,5.39 -8.11,6.31 -4.43,0.92 -9.65,1 -15.58,0.2 -5.62,-0.76 -11.27,-2.11 -16.9,-4.08 -5.68,-1.93 -10.31,-4.19 -13.96,-6.73 -3.65,-2.55 -5.3,-5.08 -4.96,-7.61 0.59,-3.6 1.18,-6.73 1.74,-9.33 0.44,-2.09 0.8,-3.99 1.03,-5.69 0.77,-5.63 0.21,-9.7 -1.66,-12.16 -1.87,-2.46 -5.96,-4.12 -12.31,-4.98 -8.46,-1.15 -14.36,-0.69 -17.57,1.29 -3.27,2.03 -5.35,6.47 -6.28,13.34 -0.25,1.81 -0.4,3.73 -0.47,5.77 -0.02,2.47 -0.31,5.37 -0.76,8.68 -0.39,2.84 -2.52,5.02 -6.51,6.52 -3.94,1.52 -8.74,2.44 -14.35,2.73 -5.67,0.33 -11.21,0.11 -16.78,-0.65zm65.82 -85.62c4.23,0.58 8.57,-0.04 12.97,-1.86 4.4,-1.82 6.9,-4.74 7.45,-8.77 1.26,-10.08 1.65,-18.38 1.12,-24.92 -0.48,-6.53 -1.55,-11.46 -3.16,-14.67 -1.61,-3.27 -3.47,-5.05 -5.58,-5.33 -2.22,-0.3 -5.21,2.39 -9.04,8.13 -3.82,5.69 -7.31,12.04 -10.53,19.12 -3.21,7.03 -5.07,12.56 -5.6,16.48 -0.46,3.41 0.64,6.13 3.26,8.12 2.67,1.99 5.71,3.25 9.11,3.71zm113.83 110.02c-4.85,-0.66 -9,-1.85 -12.45,-3.53 -3.49,-1.74 -5.49,-4.06 -5.99,-6.96 -1.38,-11.07 -1.51,-25.65 -0.38,-43.63 1.08,-18.04 2.99,-36.75 5.64,-56.21 5.04,-37.11 11.13,-68.08 18.29,-92.86 1.77,-4.91 5.64,-8.22 11.51,-10.05 5.93,-1.83 12.24,-2.28 19,-1.37 4.91,0.67 9.56,2.03 13.84,4.14 4.3,2.06 7.49,4.8 9.7,8.31 4.93,8.18 11.09,21.27 18.37,39.29 1.77,4.34 3.33,7.65 4.7,9.89 1.33,2.22 2.69,3.41 4.14,3.6 1.5,0.2 3.24,-0.61 5.23,-2.49 2.04,-1.88 4.53,-4.75 7.47,-8.55 12.66,-15.84 22.55,-25.95 29.73,-30.44 8.73,-5.49 17.28,-7.64 25.64,-6.51 7.69,1.04 13.41,2.29 17.2,3.75 3.79,1.51 5.97,3.97 6.57,7.3 2.28,14.18 2.86,33.5 1.74,58 -1.11,24.44 -3.28,48.54 -6.49,72.23 -3.53,26.01 -7.67,47.15 -12.46,63.48 -1.7,4.77 -5.34,7.95 -11,9.44 -5.62,1.5 -11.8,1.76 -18.41,0.87 -5.57,-0.76 -10.95,-2.17 -16.24,-4.25 -5.23,-2.13 -9.52,-4.6 -12.75,-7.52 -3.24,-2.91 -4.66,-5.99 -4.22,-9.19 1.02,-7.48 2.63,-16.67 4.79,-27.57 3.16,-14.76 5.94,-30.99 8.35,-48.75 0.66,-4.85 0.52,-7.29 -0.41,-7.41 -0.67,-0.09 -1.87,0.96 -3.59,3.19 -1.68,2.25 -3.57,4.98 -5.64,8.22 -2.07,3.29 -4.15,6.59 -6.13,9.89 -1.91,2.84 -4.84,4.7 -8.86,5.63 -3.97,0.98 -8.2,1.15 -12.63,0.54 -4.34,-0.59 -8.32,-1.86 -11.93,-3.88 -3.63,-1.97 -6.01,-4.55 -7.09,-7.8 -4.21,-15.03 -7.07,-22.67 -8.62,-22.88 -0.77,-0.11 -1.38,1.23 -1.76,4.07 -2.24,21.14 -3.99,39.41 -5.13,54.76 -0.88,12.28 -1.68,21.27 -2.44,26.89 -0.33,2.42 -2.48,4.34 -6.47,5.85 -3.98,1.46 -8.84,2.38 -14.48,2.87 -5.68,0.44 -11.13,0.33 -16.35,-0.38zm213.19 28.95c-5.16,-0.7 -9.57,-1.93 -13.28,-3.64 -3.7,-1.76 -5.85,-4.11 -6.35,-7.01 -1.68,-11.22 -1.95,-25.91 -0.89,-44.12 1.1,-18.14 2.98,-37.02 5.63,-56.58 4.92,-36.28 11.15,-66.97 18.65,-92.02 1.92,-5.26 5.93,-8.82 12,-10.62 6.03,-1.81 12.45,-2.25 19.16,-1.34 4.95,0.67 9.62,1.93 13.99,3.79 4.38,1.8 7.86,4.06 10.48,6.78 2.58,2.71 3.68,5.76 3.24,9.06 -3.53,26.01 -6.72,47.55 -9.57,64.61 -3.23,19.17 -6.09,37.91 -8.59,56.28 -1.53,11.3 -2.74,25.23 -3.69,41.86 -0.44,9.45 -1.11,17.82 -1.99,25.12 -0.31,2.32 -2.56,4.17 -6.8,5.59 -4.2,1.48 -9.21,2.38 -15.04,2.74 -5.89,0.41 -11.54,0.22 -16.96,-0.51zm24.45 -225.37c-2.22,-0.3 -4.37,-1.91 -6.38,-4.86 -1.97,-2.95 -2.78,-5.84 -2.38,-8.78 0.27,-2.01 1.34,-3.71 3.27,-5.08 5.56,-3.77 11.54,-8.73 17.89,-14.86 6.39,-6.07 11.67,-11.66 15.84,-16.77 1.51,-1.42 3.53,-1.99 6.06,-1.65 2.94,0.4 6.14,1.62 9.59,3.72 3.45,2.05 6.43,4.5 8.77,7.39 2.39,2.9 3.37,5.77 2.98,8.6 -0.39,2.89 -3.06,6.26 -8.04,10.05 -4.98,3.79 -10.79,7.42 -17.4,10.88 -6.62,3.46 -12.84,6.3 -18.55,8.47 -5.77,2.21 -9.63,3.16 -11.64,2.88zm79.37 237.63c-6.09,-0.83 -11.85,-2.19 -17.31,-4.14 -5.52,-1.91 -9.94,-4.61 -13.3,-8.11 -3.36,-3.51 -5.12,-7.95 -5.17,-13.42 0.08,-13.71 0.88,-31.26 2.35,-52.56 1.42,-21.3 3.61,-42.45 6.46,-63.4 4.02,-29.62 8.69,-51.65 14.01,-66.01 1.62,-3.46 5.61,-5.76 12.02,-6.83 6.4,-1.07 13.24,-1.15 20.52,-0.16 4.86,0.66 9.49,1.76 13.86,3.25 4.41,1.55 7.95,3.39 10.58,5.64 2.59,2.19 3.72,4.71 3.34,7.49 -1.58,11.62 -4.23,25.34 -8.08,41.27 -5.15,23.63 -8.58,41.93 -10.35,54.94 -1.37,10.12 -2.52,20.1 -3.5,30.01l-0.34 3.69c-0.6,4.39 -0.73,7.68 -0.45,9.87 0.23,2.13 1.7,3.38 4.33,3.74 5.31,0.72 14.33,-1.05 27.05,-5.26 4.18,-1.38 8.08,-2.58 11.62,-3.52 3.59,-0.93 6.32,-1.29 8.23,-1.04 3.82,0.52 7.05,3.43 9.7,8.73 2.6,5.24 4.46,11.27 5.54,17.99 1.09,6.72 1.29,12.53 0.62,17.48 -0.57,4.23 -1.9,7.04 -3.95,8.56 -14.55,7.32 -32.47,11.57 -53.76,12.72 -11.52,0.85 -22.89,0.57 -34.03,-0.94zm122.37 18.46c-5.16,-0.7 -9.57,-1.93 -13.27,-3.65 -3.71,-1.76 -5.86,-4.1 -6.35,-7.01 -1.68,-11.22 -1.95,-25.91 -0.9,-44.11 1.1,-18.14 2.98,-37.02 5.63,-56.58 4.93,-36.28 11.15,-66.97 18.65,-92.02 1.92,-5.26 5.93,-8.82 12.01,-10.62 6.03,-1.81 12.45,-2.25 19.16,-1.34 4.95,0.67 9.62,1.94 13.99,3.79 4.38,1.8 7.85,4.06 10.48,6.78 2.57,2.71 3.68,5.76 3.24,9.06 -3.53,26.01 -6.72,47.55 -9.56,64.61 -3.23,19.17 -6.09,37.91 -8.59,56.28 -1.53,11.3 -2.74,25.23 -3.69,41.86 -0.44,9.45 -1.11,17.83 -1.99,25.12 -0.31,2.32 -2.56,4.17 -6.8,5.59 -4.2,1.48 -9.21,2.38 -15.04,2.74 -5.89,0.41 -11.54,0.22 -16.96,-0.52zm81.02 11c-6.14,-0.83 -11.46,-2.29 -15.87,-4.31 -4.45,-2.03 -6.7,-4.49 -6.72,-7.38 0.63,-12.74 1.76,-25.36 3.47,-37.9 5.54,-40.82 16.59,-76.48 33.13,-106.98 8.25,-15.07 18.11,-27.34 29.64,-36.76 13.91,-11.46 28.58,-16.14 44.11,-14.03 9.08,1.23 16.94,4.56 23.67,9.94 6.73,5.38 12.32,11.87 16.85,19.53 4.49,7.6 7.97,15.64 10.41,23.96 8.47,29.38 9.65,66.33 3.6,110.86 -2.32,17.08 -5.29,33.55 -8.87,49.47 -0.97,3.28 -3.68,5.39 -8.11,6.31 -4.43,0.92 -9.65,1 -15.58,0.2 -5.62,-0.77 -11.28,-2.11 -16.9,-4.08 -5.68,-1.93 -10.31,-4.18 -13.96,-6.73 -3.65,-2.55 -5.3,-5.08 -4.96,-7.61 0.59,-3.6 1.18,-6.73 1.74,-9.33 0.44,-2.1 0.81,-3.99 1.04,-5.7 0.76,-5.62 0.21,-9.69 -1.66,-12.16 -1.87,-2.46 -5.96,-4.12 -12.31,-4.98 -8.46,-1.15 -14.35,-0.69 -17.57,1.29 -3.27,2.03 -5.35,6.48 -6.28,13.34 -0.25,1.81 -0.4,3.73 -0.47,5.77 -0.02,2.47 -0.31,5.37 -0.76,8.67 -0.39,2.84 -2.52,5.02 -6.51,6.53 -3.94,1.51 -8.74,2.44 -14.35,2.73 -5.67,0.33 -11.21,0.11 -16.78,-0.65zm65.82 -85.62c4.23,0.57 8.57,-0.04 12.97,-1.86 4.4,-1.82 6.9,-4.74 7.45,-8.77 1.26,-10.08 1.65,-18.38 1.12,-24.92 -0.48,-6.53 -1.55,-11.46 -3.16,-14.67 -1.6,-3.27 -3.47,-5.04 -5.58,-5.33 -2.22,-0.3 -5.21,2.39 -9.04,8.13 -3.82,5.68 -7.31,12.04 -10.53,19.12 -3.21,7.03 -5.07,12.56 -5.6,16.48 -0.46,3.41 0.64,6.13 3.26,8.12 2.67,1.99 5.71,3.24 9.11,3.71z"/>
   <path class="fil8" d="M808.33 1637.43c-5.16,-0.7 -9.57,-1.93 -13.26,-3.75 -3.75,-1.77 -5.85,-4.11 -6.42,-6.92 -2.07,-15.68 -2.19,-36.51 -0.45,-62.5 1.79,-25.98 4.33,-50.87 7.56,-74.66 2.67,-19.66 5.33,-36.17 8.1,-49.57 1.96,-7.46 7.19,-12.27 15.74,-14.52 8.55,-2.2 18.01,-2.97 28.26,-2.2 10.26,0.71 18.46,1.51 24.65,2.35 9.86,1.34 19.07,3.17 27.62,5.59 8.56,2.37 16.46,5.7 23.66,9.99 1.68,1.12 2.78,3.53 3.19,7.11 0.45,3.64 0.37,7.72 -0.26,12.37 -0.75,5.52 -2.05,10.86 -3.9,15.97 -1.79,5.07 -4.09,9.22 -6.83,12.37 -2.74,3.15 -5.82,4.52 -9.23,4.06 -2.01,-0.27 -5.79,-1.84 -11.4,-4.65 -3.66,-1.71 -7.53,-3.39 -11.62,-5.05 -4.09,-1.61 -7.68,-2.62 -10.83,-3.05 -9.65,-1.31 -15.03,1.9 -16.08,9.64 -0.7,5.16 -0.65,8.68 0.25,10.6 0.85,1.9 2.69,3.04 5.37,3.41 1.91,0.26 4.15,0.35 6.74,0.29 3.64,-0.08 8.13,0.16 13.46,0.77 3.04,0.41 5.31,1.93 6.84,4.61 1.53,2.68 2.49,6.02 2.9,10.01 0.34,4.04 0.26,8.13 -0.31,12.36 -0.89,6.56 -2.69,12.46 -5.41,17.77 -2.71,5.25 -5.77,7.68 -9.23,7.21 -2.84,-0.39 -5.14,-0.86 -7.06,-1.43 -1.87,-0.57 -3.65,-0.97 -5.35,-1.2 -6.04,-0.82 -10.1,0.05 -12.23,2.55 -2.06,2.45 -3.63,7.76 -4.72,15.81 -1.13,8.36 -1.7,15.59 -1.57,21.65 0.12,6.06 0.33,11.51 0.73,16.29 0.53,8.06 0.54,14.21 -0.03,18.45 -0.33,2.42 -2.59,4.38 -6.74,5.86 -4.14,1.49 -9.16,2.43 -15.06,2.9 -5.84,0.42 -11.55,0.27 -17.07,-0.48zm104.92 14.24c-6.14,-0.83 -11.46,-2.29 -15.86,-4.31 -4.46,-2.03 -6.7,-4.49 -6.73,-7.38 0.62,-12.74 1.76,-25.36 3.46,-37.9 5.54,-40.82 16.59,-76.48 33.14,-106.98 8.25,-15.07 18.12,-27.34 29.64,-36.76 13.91,-11.46 28.58,-16.14 44.11,-14.03 9.08,1.24 16.93,4.56 23.67,9.94 6.73,5.38 12.32,11.87 16.85,19.53 4.49,7.6 7.97,15.64 10.41,23.96 8.47,29.38 9.65,66.33 3.6,110.87 -2.32,17.08 -5.3,33.55 -8.87,49.46 -0.97,3.28 -3.68,5.39 -8.11,6.31 -4.43,0.92 -9.65,1 -15.58,0.2 -5.63,-0.76 -11.27,-2.11 -16.9,-4.08 -5.68,-1.93 -10.31,-4.18 -13.96,-6.73 -3.65,-2.54 -5.3,-5.08 -4.96,-7.61 0.59,-3.6 1.18,-6.73 1.74,-9.33 0.44,-2.09 0.8,-3.99 1.03,-5.69 0.77,-5.62 0.21,-9.7 -1.66,-12.16 -1.87,-2.46 -5.96,-4.12 -12.3,-4.98 -8.46,-1.15 -14.36,-0.69 -17.58,1.29 -3.27,2.03 -5.35,6.48 -6.28,13.34 -0.24,1.81 -0.4,3.73 -0.47,5.77 -0.02,2.47 -0.31,5.37 -0.76,8.68 -0.38,2.84 -2.52,5.02 -6.51,6.52 -3.94,1.52 -8.74,2.44 -14.35,2.73 -5.67,0.33 -11.21,0.11 -16.78,-0.65zm65.82 -85.61c4.23,0.57 8.57,-0.04 12.97,-1.87 4.4,-1.82 6.9,-4.74 7.45,-8.76 1.26,-10.08 1.65,-18.38 1.12,-24.92 -0.48,-6.53 -1.55,-11.46 -3.16,-14.67 -1.61,-3.27 -3.47,-5.05 -5.58,-5.33 -2.22,-0.3 -5.21,2.39 -9.04,8.13 -3.82,5.68 -7.31,12.04 -10.53,19.12 -3.22,7.03 -5.07,12.56 -5.61,16.48 -0.46,3.41 0.64,6.13 3.26,8.12 2.67,1.99 5.71,3.24 9.11,3.71zm113.83 110.01c-4.85,-0.66 -9,-1.85 -12.45,-3.53 -3.5,-1.74 -5.49,-4.05 -5.99,-6.96 -1.39,-11.07 -1.51,-25.64 -0.38,-43.62 1.08,-18.04 2.99,-36.75 5.64,-56.21 5.04,-37.1 11.13,-68.07 18.29,-92.86 1.77,-4.91 5.64,-8.22 11.51,-10.05 5.92,-1.83 12.24,-2.28 19,-1.36 4.91,0.67 9.56,2.03 13.84,4.14 4.3,2.05 7.49,4.8 9.7,8.31 4.93,8.19 11.09,21.27 18.37,39.29 1.78,4.34 3.32,7.65 4.7,9.89 1.32,2.23 2.69,3.41 4.13,3.61 1.5,0.2 3.23,-0.61 5.22,-2.5 2.04,-1.87 4.54,-4.75 7.47,-8.55 12.66,-15.84 22.55,-25.95 29.73,-30.44 8.73,-5.49 17.28,-7.64 25.64,-6.51 7.69,1.05 13.41,2.29 17.2,3.75 3.79,1.51 5.97,3.97 6.57,7.3 2.28,14.19 2.86,33.5 1.74,58 -1.11,24.45 -3.28,48.54 -6.49,72.23 -3.53,26.01 -7.66,47.16 -12.46,63.48 -1.69,4.76 -5.33,7.95 -11,9.44 -5.62,1.5 -11.8,1.76 -18.41,0.86 -5.57,-0.76 -10.95,-2.17 -16.24,-4.25 -5.23,-2.13 -9.52,-4.6 -12.75,-7.51 -3.23,-2.91 -4.65,-5.99 -4.22,-9.19 1.02,-7.49 2.63,-16.67 4.79,-27.57 3.16,-14.76 5.95,-30.99 8.35,-48.75 0.66,-4.85 0.52,-7.29 -0.41,-7.42 -0.67,-0.09 -1.87,0.96 -3.59,3.2 -1.67,2.24 -3.57,4.98 -5.63,8.22 -2.08,3.29 -4.16,6.59 -6.13,9.89 -1.91,2.84 -4.84,4.7 -8.86,5.63 -3.97,0.99 -8.2,1.15 -12.63,0.54 -4.34,-0.59 -8.32,-1.87 -11.93,-3.88 -3.62,-1.96 -6.01,-4.55 -7.09,-7.8 -4.21,-15.03 -7.06,-22.66 -8.61,-22.88 -0.77,-0.11 -1.38,1.23 -1.76,4.07 -2.24,21.14 -3.99,39.41 -5.13,54.76 -0.88,12.28 -1.67,21.27 -2.44,26.89 -0.33,2.43 -2.48,4.34 -6.47,5.85 -3.98,1.46 -8.84,2.37 -14.48,2.87 -5.68,0.44 -11.13,0.33 -16.35,-0.38zm213.2 28.95c-5.16,-0.7 -9.57,-1.93 -13.28,-3.64 -3.7,-1.76 -5.85,-4.1 -6.35,-7.01 -1.68,-11.22 -1.95,-25.91 -0.89,-44.11 1.1,-18.14 2.98,-37.02 5.63,-56.58 4.92,-36.28 11.15,-66.97 18.65,-92.02 1.92,-5.26 5.93,-8.81 12,-10.62 6.03,-1.81 12.45,-2.25 19.16,-1.34 4.95,0.67 9.62,1.93 13.99,3.79 4.38,1.8 7.86,4.07 10.48,6.79 2.58,2.71 3.69,5.76 3.24,9.06 -3.53,26.01 -6.72,47.55 -9.56,64.61 -3.23,19.17 -6.09,37.91 -8.59,56.28 -1.54,11.3 -2.75,25.22 -3.69,41.86 -0.44,9.45 -1.11,17.83 -1.99,25.12 -0.31,2.32 -2.56,4.18 -6.8,5.6 -4.2,1.48 -9.21,2.38 -15.04,2.74 -5.89,0.41 -11.54,0.22 -16.96,-0.52zm24.45 -225.37c-2.22,-0.3 -4.36,-1.91 -6.38,-4.86 -1.97,-2.95 -2.78,-5.85 -2.38,-8.79 0.27,-2.01 1.34,-3.71 3.26,-5.08 5.56,-3.77 11.54,-8.73 17.89,-14.86 6.39,-6.07 11.68,-11.66 15.84,-16.77 1.51,-1.42 3.53,-1.99 6.06,-1.65 2.94,0.4 6.14,1.63 9.59,3.72 3.45,2.04 6.43,4.5 8.77,7.39 2.39,2.9 3.37,5.76 2.98,8.6 -0.39,2.89 -3.06,6.26 -8.04,10.05 -4.98,3.79 -10.79,7.42 -17.4,10.88 -6.62,3.46 -12.84,6.3 -18.54,8.47 -5.77,2.21 -9.63,3.16 -11.64,2.88zm79.37 237.63c-6.09,-0.83 -11.84,-2.18 -17.31,-4.14 -5.52,-1.91 -9.94,-4.61 -13.3,-8.11 -3.36,-3.5 -5.12,-7.95 -5.17,-13.42 0.08,-13.71 0.88,-31.26 2.35,-52.56 1.42,-21.3 3.61,-42.45 6.46,-63.41 4.02,-29.62 8.7,-51.64 14.01,-66 1.63,-3.46 5.61,-5.76 12.01,-6.83 6.41,-1.07 13.24,-1.14 20.52,-0.15 4.85,0.66 9.49,1.76 13.86,3.25 4.41,1.55 7.95,3.39 10.58,5.64 2.59,2.19 3.72,4.71 3.34,7.5 -1.58,11.61 -4.23,25.34 -8.08,41.27 -5.15,23.63 -8.58,41.94 -10.35,54.94 -1.37,10.12 -2.52,20.1 -3.5,30.01l-0.34 3.68c-0.6,4.39 -0.73,7.68 -0.45,9.88 0.23,2.13 1.7,3.38 4.33,3.74 5.31,0.72 14.33,-1.05 27.05,-5.26 4.18,-1.38 8.08,-2.58 11.62,-3.52 3.59,-0.93 6.32,-1.29 8.23,-1.03 3.82,0.52 7.05,3.43 9.7,8.73 2.6,5.24 4.46,11.28 5.54,18 1.09,6.72 1.29,12.53 0.63,17.48 -0.58,4.23 -1.9,7.04 -3.95,8.55 -14.55,7.33 -32.47,11.57 -53.76,12.72 -11.52,0.86 -22.89,0.57 -34.04,-0.94zm122.38 18.46c-5.16,-0.7 -9.57,-1.93 -13.27,-3.65 -3.7,-1.76 -5.86,-4.1 -6.35,-7.01 -1.68,-11.22 -1.95,-25.91 -0.9,-44.11 1.1,-18.14 2.98,-37.02 5.63,-56.58 4.93,-36.28 11.15,-66.97 18.65,-92.02 1.92,-5.26 5.93,-8.82 12.01,-10.62 6.03,-1.81 12.45,-2.25 19.16,-1.34 4.95,0.67 9.62,1.94 13.99,3.79 4.38,1.81 7.86,4.07 10.48,6.79 2.58,2.71 3.69,5.76 3.24,9.06 -3.53,26.01 -6.72,47.55 -9.56,64.61 -3.23,19.17 -6.09,37.91 -8.59,56.28 -1.54,11.3 -2.74,25.22 -3.69,41.86 -0.44,9.46 -1.11,17.83 -1.99,25.12 -0.32,2.32 -2.56,4.17 -6.8,5.59 -4.2,1.48 -9.21,2.38 -15.04,2.74 -5.89,0.41 -11.54,0.22 -16.96,-0.51zm81.03 11c-6.14,-0.83 -11.46,-2.29 -15.87,-4.31 -4.46,-2.03 -6.7,-4.49 -6.73,-7.38 0.63,-12.74 1.76,-25.36 3.47,-37.9 5.54,-40.82 16.59,-76.48 33.13,-106.98 8.25,-15.07 18.12,-27.34 29.64,-36.76 13.91,-11.46 28.58,-16.15 44.11,-14.04 9.08,1.23 16.94,4.56 23.67,9.94 6.73,5.38 12.32,11.87 16.85,19.53 4.49,7.6 7.97,15.64 10.41,23.96 8.47,29.38 9.65,66.33 3.6,110.86 -2.32,17.08 -5.3,33.55 -8.87,49.46 -0.97,3.29 -3.68,5.39 -8.11,6.31 -4.43,0.92 -9.64,1 -15.58,0.2 -5.62,-0.76 -11.27,-2.11 -16.9,-4.08 -5.68,-1.93 -10.31,-4.19 -13.96,-6.73 -3.65,-2.55 -5.3,-5.08 -4.96,-7.61 0.59,-3.6 1.18,-6.73 1.74,-9.33 0.44,-2.09 0.8,-3.99 1.03,-5.69 0.77,-5.63 0.21,-9.7 -1.66,-12.16 -1.87,-2.46 -5.96,-4.12 -12.3,-4.98 -8.46,-1.15 -14.36,-0.69 -17.58,1.29 -3.27,2.03 -5.35,6.47 -6.28,13.34 -0.24,1.81 -0.4,3.73 -0.47,5.77 -0.02,2.46 -0.31,5.37 -0.76,8.67 -0.39,2.84 -2.52,5.02 -6.51,6.53 -3.94,1.52 -8.74,2.44 -14.35,2.73 -5.67,0.33 -11.21,0.11 -16.78,-0.65zm65.82 -85.62c4.23,0.57 8.57,-0.05 12.97,-1.86 4.4,-1.83 6.9,-4.74 7.45,-8.77 1.26,-10.08 1.65,-18.38 1.12,-24.92 -0.48,-6.53 -1.55,-11.46 -3.16,-14.67 -1.61,-3.27 -3.47,-5.05 -5.58,-5.33 -2.22,-0.3 -5.21,2.39 -9.04,8.13 -3.82,5.68 -7.31,12.04 -10.53,19.12 -3.21,7.03 -5.07,12.56 -5.61,16.48 -0.46,3.4 0.64,6.13 3.26,8.12 2.67,1.99 5.71,3.24 9.11,3.71z"/>
  </g>
 </g>
</svg>
