<?xml version="1.0" encoding="UTF-8"?>
<!DOCTYPE svg PUBLIC "-//W3C//DTD SVG 1.1//EN" "http://www.w3.org/Graphics/SVG/1.1/DTD/svg11.dtd">
<!-- Creator: CorelDRAW -->
<svg xmlns="http://www.w3.org/2000/svg" xml:space="preserve" width="52.9256mm" height="37.7698mm" version="1.1" style="shape-rendering:geometricPrecision; text-rendering:geometricPrecision; image-rendering:optimizeQuality; fill-rule:evenodd; clip-rule:evenodd"
viewBox="0 0 782.25 558.25"
 xmlns:xlink="http://www.w3.org/1999/xlink"
 xmlns:xodm="http://www.corel.com/coreldraw/odm/2003">
 <defs>
  <style type="text/css">
   <![CDATA[
    .fil0 {fill:black}
    .fil1 {fill:#FF6600}
    .fil2 {fill:white}
   ]]>
  </style>
 </defs>
 <g id="Camada_x0020_1">
  <metadata id="CorelCorpID_0Corel-Layer"/>
  <g id="_1716876806320">
   <path class="fil0" d="M67.71 356.63c-9.2,-4.39 -14.13,-14.99 -12.96,-25.49 -11.16,-13.71 -4.81,-36.88 11.3,-40.39 6.08,-12.96 20.74,-16.3 30.66,-7.85l-4.94 -15.41c-4.01,-12.52 1.51,-26.54 12.29,-31.21l73.2 -31.66c3.6,-1.56 7.34,-1.88 10.88,-1.15 2.39,-2.13 5.2,-3.7 8.33,-4.48l36.99 -9.21c14.18,-3.53 29.4,-4.31 42.09,4.36 11.36,7.76 16.78,20.26 19.25,33.68 0.16,0.88 0.3,1.76 0.41,2.64l0.92 -4.4c-1.08,-2.68 -1.75,-5.64 -1.91,-8.77l-0.9 -17.41c-0.69,-13.34 8.11,-24.88 19.59,-25.68l44.62 -3.12c9.33,-0.65 17.48,5.57 20.8,15.68 2.78,-9.78 10.77,-16.82 20.09,-16.69l38.64 0.54c1.96,0.03 3.86,0.37 5.66,0.99 2.39,-0.81 4.93,-1.12 7.55,-0.87l36.65 3.6c11.46,1.13 20.02,12.91 19.05,26.22l-1.29 17.79c-0.8,10.99 -7.38,16.31 -7.4,16.59l11.77 1.16c-3.01,-5.26 -4.27,-11.87 -3.05,-18.51l3.22 -17.46c2.41,-13.07 13.55,-21.44 24.8,-18.65l68.63 17.08c2.79,0.69 5.34,2.01 7.54,3.81 4.09,-1.31 8.55,-1.2 12.81,0.64l35.45 15.33c14.16,6.13 26.95,15.08 33.48,29.96 4.61,10.5 5.05,20.87 2.84,32.01 9.96,-5.07 21.64,-0.55 26.8,10.43 16.11,3.51 22.45,26.68 11.3,40.39 0.46,4.15 -0,8.27 -1.31,12.01 11.49,2.98 22.33,10.12 29.95,20.47 16.4,22.29 18.8,51.54 6.64,75.83 7.21,10.83 14.03,25.65 14.1,37.9 0.05,9.51 -4.16,18.79 -10.46,25.09 7.73,20.11 -4.76,43.78 -24.48,43.78l-284.88 0c-4.78,0 -9.17,-1.74 -12.69,-4.89 -15.86,12.23 -32.98,15.95 -53.92,16.71 -9.24,0.34 -27.06,0.73 -35.58,-3 -6.52,-2.85 -13.05,-6.91 -18.82,-12.03 -3.09,2.09 -6.67,3.2 -10.53,3.2l-302.8 0c-14.77,0 -26.79,-13.96 -26.79,-31.12 0,-8.39 2.87,-16.01 7.53,-21.62 -5.39,-9.28 -6.57,-22.43 -7.5,-35.07 -1.68,-22.69 -2.04,-46.73 0.6,-69.34 1.15,-9.85 2.55,-21.64 5.89,-30.82 4.67,-12.83 13.88,-21.08 26.05,-21.08 15.16,0 25.82,12.74 27.58,29.24 1.93,-3.43 4.02,-6.73 6.28,-9.77zm359.26 -315.92c0.83,9.09 1.66,18.18 -0.98,27.01 -4.44,14.81 -17.83,27.28 -20.92,45.04 -2.07,11.9 2.57,22.86 7,34.35 1.22,-7.41 2.44,-14.82 5.67,-24.36 3.23,-9.54 8.47,-21.2 13.43,-30.31 4.96,-9.11 9.64,-15.67 8.89,-23.86 -0.75,-8.19 -6.92,-18.03 -13.09,-27.87zm-37.47 -40.7c1.93,2.84 3.86,5.68 5.68,11.51 6.75,21.71 -2.39,34.21 -12.6,53.6 -9.91,18.8 -9.4,26.57 -4.88,48.37 2.48,11.95 6.31,28.59 10.15,45.24 -0.9,-20.11 -1.8,-40.23 0.37,-56.12 2.17,-15.89 7.41,-27.56 13.41,-37.65 6.01,-10.09 12.77,-18.6 10.88,-29.17 -1.89,-10.56 -12.45,-23.18 -23,-35.79zm-33.04 -0.01c1.93,2.84 3.86,5.68 5.68,11.51 6.75,21.71 -2.39,34.21 -12.6,53.6 -4.57,8.67 -7.08,15.29 -7.78,22.23 -0.7,6.94 0.42,14.19 3.79,19.88 3.37,5.69 9.01,9.82 14.64,13.95 -2.7,-7.6 -5.39,-15.2 -4.12,-24.83 1.27,-9.63 6.51,-21.3 12.52,-31.39 6.01,-10.09 12.77,-18.6 10.88,-29.17 -1.89,-10.56 -12.45,-23.18 -23,-35.79z"/>
   <path class="fil1" d="M184.54 227.37l10.56 32.95 -16.04 6.93 -5.2 -16.22 -9.16 3.96 17.62 55 9.05 -3.92 5.4 16.86 -40.58 17.55 -5.4 -16.86 8.94 -3.87 -17.62 -55 -9.38 4.06 5.2 16.22 -16.04 6.94 -10.56 -32.95 73.2 -31.66zm16.3 -4.64l36.99 -9.2c6.6,-1.64 12.08,-2.27 16.44,-1.88 4.36,0.39 7.92,1.53 10.69,3.43 2.77,1.89 4.86,4.39 6.26,7.5 1.41,3.11 2.46,6.56 3.16,10.35 0.47,2.56 0.49,5.04 0.06,7.45 -0.43,2.41 -1.23,4.62 -2.41,6.62 -1.18,2 -2.67,3.8 -4.48,5.4 -1.81,1.6 -3.85,2.87 -6.14,3.81 2.04,-0.14 4.05,0.12 6.04,0.78 1.99,0.66 3.82,1.66 5.49,2.99 1.67,1.33 3.12,2.96 4.35,4.86 1.22,1.91 2.06,4.05 2.49,6.43 0.52,2.82 1.12,4.98 1.79,6.47 0.67,1.49 1.54,2.11 2.6,1.84 1.74,-0.43 2.36,-2.06 1.84,-4.88l-0.8 -4.36 7.63 -1.9 1.34 7.27c0.5,2.73 0.72,5.45 0.67,8.13 -0.06,2.69 -0.56,5.16 -1.49,7.42 -0.93,2.26 -2.35,4.25 -4.26,5.97 -1.91,1.72 -4.45,2.98 -7.64,3.77 -7.51,1.87 -13.47,1.09 -17.87,-2.33 -4.4,-3.42 -7.32,-9.01 -8.75,-16.77 -0.55,-3 -1.12,-5.44 -1.71,-7.32 -0.59,-1.88 -1.38,-3.28 -2.38,-4.18 -1,-0.9 -2.3,-1.39 -3.9,-1.45 -1.6,-0.06 -3.65,0.22 -6.15,0.84l3.78 20.5 6.94 -1.73 3.22 17.46 -36.76 9.15 -3.22 -17.46 6.37 -1.59 -10.63 -57.66 -6.37 1.59 -3.19 -17.32zm32.99 9.77l4.14 22.48 5.12 -1.28c3.34,-0.83 5.83,-2.39 7.47,-4.69 1.64,-2.3 2.13,-5.21 1.49,-8.74 -0.73,-3.97 -2.17,-6.7 -4.31,-8.19 -2.14,-1.5 -4.88,-1.83 -8.22,-1l-5.69 1.42zm158.54 55.17l-46.59 3.26 -0.92 -17.68 11.04 -0.77 -2.92 -9.01 -23.82 1.67 -1.96 9.35 9.06 -0.63 0.92 17.68 -36.95 2.58 -0.92 -17.68 7.9 -0.55 12.61 -60.36 -4.76 0.33 -0.9 -17.41 44.62 -3.12 24.54 75.24 8.13 -0.57 0.92 17.68zm-59.75 -39.04l15.22 -1.06 -9.18 -28.62 -6.04 29.69zm65.55 -54.29l38.64 0.54 -0.18 17.85 -7.22 -0.1 -0.61 58.69 7.22 0.1 -0.19 17.99 -38.64 -0.54 0.18 -17.98 7.33 0.1 0.61 -58.69 -7.33 -0.1 0.18 -17.85zm50.34 0.57l36.65 3.6 -1.29 17.79 -6.15 -0.6 -4.26 58.48 14.96 1.47 1.25 -17.11 19.48 1.92 -2.55 35.04 -64.95 -6.38 1.31 -17.92 6.38 0.63 4.26 -58.48 -6.38 -0.63 1.29 -17.79zm81.13 10.3l68.63 17.08 -5.39 29.22 -19.69 -4.9 2.17 -11.77 -18.21 -4.53 -3.36 18.25 21.63 5.38 -3.24 17.59 -21.62 -5.38 -3.97 21.55 18.21 4.53 2.27 -12.3 19.69 4.9 -5.51 29.89 -68.63 -17.08 3.24 -17.59 7.17 1.78 10.58 -57.39 -7.17 -1.79 3.22 -17.46zm86.07 20.54l35.45 15.33c6.33,2.74 11.24,5.63 14.73,8.68 3.49,3.05 5.97,6.24 7.43,9.56 1.46,3.32 2.06,6.74 1.81,10.24 -0.25,3.5 -0.96,7.06 -2.12,10.7 -0.78,2.45 -1.92,4.56 -3.39,6.33 -1.48,1.77 -3.17,3.12 -5.09,4.07 -1.92,0.95 -4.01,1.54 -6.28,1.76 -2.27,0.22 -4.58,0.01 -6.94,-0.62 1.78,1.16 3.36,2.63 4.73,4.43 1.37,1.8 2.45,3.78 3.25,5.95 0.79,2.17 1.27,4.44 1.42,6.82 0.15,2.37 -0.14,4.7 -0.87,6.98 -0.87,2.7 -1.36,4.89 -1.49,6.57 -0.12,1.68 0.32,2.74 1.34,3.18 1.67,0.72 2.94,-0.27 3.81,-2.97l1.34 -4.18 7.31 3.16 -2.23 6.97c-0.84,2.62 -1.91,5.04 -3.2,7.27 -1.29,2.23 -2.86,4.01 -4.69,5.33 -1.83,1.32 -3.95,2.12 -6.35,2.38 -2.4,0.26 -5.13,-0.27 -8.18,-1.59 -7.2,-3.11 -11.86,-7.49 -13.99,-13.12 -2.13,-5.63 -2,-12.17 0.38,-19.6 0.92,-2.87 1.57,-5.29 1.95,-7.24 0.38,-1.95 0.35,-3.62 -0.07,-5.01 -0.43,-1.39 -1.3,-2.61 -2.62,-3.66 -1.32,-1.05 -3.18,-2.1 -5.58,-3.13l-6.29 19.64 6.66 2.88 -5.36 16.73 -35.23 -15.24 5.36 -16.73 6.11 2.64 17.71 -55.26 -6.11 -2.64 5.32 -16.6zm23.3 28.84l-6.9 21.55 4.91 2.12c3.2,1.38 6.02,1.62 8.47,0.7 2.45,-0.91 4.21,-3.06 5.29,-6.44 1.22,-3.8 1.27,-7 0.16,-9.6 -1.11,-2.6 -3.27,-4.59 -6.47,-5.97l-5.45 -2.36z"/>
   <path class="fil2" d="M33.86 361.43c-6.04,0 -8.37,6.39 -11.24,30.91 -2.09,17.89 -2.26,40.05 -0.49,63.99 1.62,21.79 2.6,24.81 8.33,25.41 7.34,0.78 8.08,-2.26 8.98,-36.98l0.76 -29.82 6.28 12.4c7.79,15.4 13.02,21.53 18.35,21.53 6.19,0 9.71,-4.96 17.44,-24.65 3.95,-10.06 7.36,-17.63 7.56,-16.8 0.22,0.83 1.75,12.03 3.41,24.86 3.75,28.92 7.18,47.9 9.49,52.37 1.24,2.42 2.89,3.42 5.7,3.42 6.51,0 7.2,-2.45 5.65,-20.06 -0.74,-8.45 -1.91,-24.19 -2.6,-34.97 -1.53,-23.66 -4.38,-50.97 -6.02,-57.64 -1.55,-6.25 -6.22,-10.94 -10.93,-10.94 -7.4,0 -15.48,11.79 -26.16,38.22l-6.01 14.86 -7.11 -12.6c-10.46,-18.56 -14.45,-27.86 -14.45,-33.68 0,-6.19 -2.58,-9.83 -6.95,-9.83zm97.9 1.89c-1.8,-0.37 -3.79,0.07 -5.67,1.38 -4.71,3.21 -8.19,32.45 -8.17,68.42 0.02,23.04 0.67,27.7 5.14,37.28 2.78,5.93 5.18,8.82 9.98,12.03 10.07,6.72 17.81,6.02 32.24,-2.82 11.82,-7.27 13.53,-9.56 12.16,-16.5 -1.23,-6.3 -5.39,-7.04 -15.69,-2.84 -19.3,7.89 -24.91,3.07 -24.98,-21.49l-0.04 -7.92 11.73 0c11.54,0 21.09,-1.66 27.46,-4.8 3.79,-1.87 5.29,-7.32 3.43,-12.51 -1.77,-4.96 -6.87,-5.86 -26.93,-4.71l-16.85 0.97 0 -9.42 0 -9.39 12.66 -0.02c17.95,-0.05 27.38,-4.45 27.38,-12.77 0,-8.15 -9.62,-11.31 -27.69,-9.12 -9.02,1.11 -9.51,1.02 -11.58,-2.38 -1.15,-1.89 -2.76,-3.05 -4.56,-3.39zm94.33 -2.54c-13.82,2.08 -29.55,18.74 -37.77,40.14 -4.78,12.42 -4.91,13.13 -4.91,27.91 0,14.01 0.27,15.81 3.48,23.22 4.13,9.6 8.39,14.5 17.08,19.67 9,5.31 24.84,6.28 34.47,2.12l6.73 -2.91 1.42 4.64c0.79,2.54 2.22,5.82 3.19,7.27 0.96,1.45 3.19,2.63 4.96,2.63 6.2,0 6.48,-1.82 6.04,-39.79 -0.4,-32.78 -0.56,-34.99 -2.85,-38.2 -3.57,-4.94 -10.75,-4.5 -21.88,1.36 -11.63,6.09 -12.21,6.72 -11.78,13.04 0.49,7.36 2.79,8.75 11.6,6.9l7.27 -1.55 -0.7 4.43c-0.38,2.45 -0.7,7.69 -0.7,11.66 0,6.97 -0.16,7.32 -4.22,9.03 -5.81,2.45 -20.11,1.25 -25.6,-2.17 -7.23,-4.48 -9.74,-10.37 -9.69,-22.74 0.02,-8.73 0.69,-12.26 3.81,-20.5 5.61,-14.87 23.81,-25.92 29.53,-24.01 3.57,1.18 8.06,-3.62 8.06,-8.61 0,-6.92 -4.22,-15.28 -11.31,-14.24l-6.24 0.69zm63.34 48.1c1.55,0 13.1,40.9 11.89,42.08 -0.14,0.14 -4.65,0.62 -10.01,1.08 -7.2,0.62 -9.74,0.39 -9.76,-0.85 -0.05,-3.72 7.14,-42.31 7.88,-42.31zm-2.26 -36.38c-0.79,-0.02 -1.55,0.09 -2.33,0.35 -9.63,3.14 -12.61,12.12 -17.07,51.68 -4.6,40.72 -4.92,57.43 -1.23,62.67 4,5.66 10.81,1.5 11.2,-6.86 0.11,-2.12 0.25,-4.48 0.33,-5.26 0.11,-0.88 5.83,-1.43 14.66,-1.43l14.5 0 1.28 5.47c1.53,6.53 5.27,10.16 9.18,8.91 4.42,-1.41 5.5,-5.61 3.91,-15.21 -0.77,-4.55 -1.06,-9.3 -0.68,-10.57 0.38,-1.27 0,-4.02 -0.83,-6.12 -0.85,-2.1 -2.11,-8.31 -2.83,-13.78 -5.11,-39.24 -18.4,-69.5 -30.11,-69.85z"/>
   <path class="fil2" d="M407.59 318.25c-15.29,1 -30.43,5.99 -41.59,14.71 -25.55,20.03 -41.31,56.19 -35.44,81.13 16.6,59.14 64.77,27.93 95.72,46.47 5.28,7.65 1.49,23.07 -2.65,26.43 -14.85,12.14 -46.68,14.88 -56.31,4.86 -6.32,-6.53 -16.17,-7.86 -20.67,-2.7 -1.56,1.79 -3.18,7.02 -3.6,11.68 -1.09,11.89 8.88,24.65 24.56,31.5 2.87,1.25 15.29,1.91 27.57,1.46 25.29,-0.91 38.96,-6.57 52.41,-21.49 21.85,-24.31 18.74,-80.38 -10.67,-100.75 -26.26,-11.89 -64.6,5.98 -73.47,-17 0.13,-1.37 5.73,-12.51 9.21,-17.17 19.28,-25.73 54.28,-26.56 69.5,-3.74 5.08,7.61 7.63,9.23 13.38,8.52 7.72,-0.96 13.61,-9.6 12.62,-18.58 -1.18,-10.47 -12.95,-26.31 -24.96,-33.54 -13.19,-6.73 -24.49,-12.38 -35.59,-11.8z"/>
   <path class="fil2" d="M499.89 402.17c1.55,0 13.1,40.9 11.89,42.08 -0.14,0.14 -4.65,0.62 -10.01,1.08 -7.2,0.62 -9.74,0.39 -9.76,-0.85 -0.05,-3.72 7.14,-42.31 7.88,-42.31zm-2.25 -36.38c-0.79,-0.02 -1.55,0.09 -2.33,0.35 -9.63,3.14 -12.61,12.12 -17.07,51.68 -4.6,40.72 -4.92,57.43 -1.23,62.67 4,5.65 10.81,1.5 11.2,-6.86 0.11,-2.12 0.25,-4.48 0.33,-5.26 0.11,-0.88 5.83,-1.43 14.66,-1.43l14.5 0 1.28 5.47c1.53,6.53 5.27,10.16 9.18,8.91 4.42,-1.41 5.5,-5.61 3.91,-15.21 -0.77,-4.55 -1.06,-9.3 -0.68,-10.57 0.38,-1.27 0,-4.02 -0.83,-6.12 -0.85,-2.1 -2.11,-8.31 -2.83,-13.78 -5.11,-39.24 -18.4,-69.5 -30.11,-69.85z"/>
   <path class="fil2" d="M575.99 444.16l6.12 0.39 0 6.39c0,3.09 -0.05,4.73 -0.7,5.98 -0.63,1.25 -1.88,2.1 -4.26,3.65 -3.64,2.35 -6.87,3.21 -12.23,3.19 -4.65,0 -7.22,-0.23 -8.57,-1.41 -1.35,-1.18 -1.48,-3.35 -1.26,-7.25l0.34 -6.25 7.23 -2.52c3.97,-1.41 9.96,-2.38 13.33,-2.17zm-17.75 -58.15c1.55,-0.07 3.26,0.18 4.98,0.65 3.41,0.95 6.82,2.84 8.91,5.33 1.21,1.45 1.93,2.54 2.27,3.72 0.36,1.18 0.33,2.42 0.07,4.18 -0.52,3.32 -1.73,6.42 -3.73,9.46 -1.98,3.02 -4.76,5.98 -8.42,9 -3.66,3.05 -7,5.54 -7.41,5.54 -0.58,0 -3.79,-27.65 -3.88,-33.45 0,-0.78 1.42,-2.31 3.19,-3.39 1.08,-0.67 2.47,-0.99 4.02,-1.04zm3.86 -16.76c-7.09,0.12 -12.66,0.55 -16.74,1.38 -4.08,0.81 -6.66,2.01 -7.76,3.55 -0.83,1.15 -1.26,2.68 -1.44,7.43 -0.18,4.75 -0.09,12.76 0.14,26.89 0.29,16.04 0.87,28.78 1.82,39.08 0.96,10.32 2.31,18.17 4.1,24.38 0.97,3.32 1.84,6.09 1.95,6.14 0.11,0.07 4.17,0.92 9.06,1.94 10.34,2.15 18.06,2.65 24.26,1.22 3.1,-0.72 5.83,-1.89 8.32,-3.6 2.49,-1.68 4.74,-3.9 6.89,-6.65 2.11,-2.7 3.5,-4.78 4.49,-6.92 0.99,-2.17 1.57,-4.39 2.08,-7.41 0.58,-3.42 0.74,-6.83 0.56,-10.13 -0.18,-3.3 -0.74,-6.46 -1.59,-9.35 -0.87,-2.86 -2.04,-5.47 -3.48,-7.66 -1.46,-2.17 -3.17,-3.92 -5.12,-5.12l-4.18 -2.56 2.45 -6.21c1.71,-4.32 2.76,-8.56 3.17,-12.63 0.41,-4.06 0.2,-7.96 -0.65,-11.59 -0.85,-3.65 -2.31,-7.02 -4.38,-10.06 -2.06,-3.02 -4.73,-5.75 -7.95,-8.03 -2.72,-1.92 -4.44,-2.98 -6.62,-3.53 -2.17,-0.55 -4.8,-0.6 -9.34,-0.55l-0.02 0z"/>
   <path class="fil2" d="M648.37 389.88c0.69,-0.05 1.55,0.42 2.99,1.34 4.22,2.77 13.96,15.9 16.69,22.53 1.15,2.82 2.36,9 2.69,13.76 0.51,7.29 0.14,9.49 -2.29,14.01 -1.61,2.93 -5.56,7.43 -8.8,9.95 -12.95,10.11 -31.95,4.55 -37.05,-10.83 -4.11,-12.42 -0.92,-32.2 6.84,-42.49 4.29,-5.72 4.87,-6 9.99,-5.1 4.15,0.72 5.83,0.35 7.05,-1.52 0.7,-1.06 1.21,-1.59 1.89,-1.64zm-4.35 -20.78c-2.69,0 -4.96,0.62 -6.53,1.94 -1.68,1.38 -3.91,2.49 -4.98,2.49 -7.27,0 -19.54,14.75 -25.51,30.65 -3.5,9.32 -3.88,11.73 -3.88,25 0,11.68 0.54,16.13 2.58,21.72 5.11,13.92 14.81,24.17 27.15,28.65 8.95,3.25 22.84,2.01 31.14,-2.79 8.33,-4.82 17.08,-14.7 21.54,-24.28 2.9,-6.23 3.28,-8.66 3.28,-20.96 0,-12.42 -0.42,-15.05 -3.84,-24.21 -4.8,-12.76 -15.79,-27.05 -25.42,-33.01 -4.4,-2.7 -8.84,-4.39 -12.74,-4.96 -0.97,-0.16 -1.91,-0.23 -2.8,-0.23z"/>
   <path class="fil2" d="M716.5 386.66c6.19,-0.18 14.88,5.42 18.16,13.97 2.92,7.64 1.23,13.85 -6.17,22.71 -3.12,3.72 -7.83,8.17 -10.44,9.9l-4.78 3.12 -0.67 -5.61c-2.08,-17.91 -3.25,-35.41 -2.6,-38.71 0.51,-2.65 2,-4.25 4.02,-4.96 0.76,-0.25 1.59,-0.39 2.47,-0.42zm4.33 -20.77c-3.07,-0.14 -6.11,0.23 -8.95,1.18 -2.9,0.95 -7.33,1.87 -9.81,2.01 -6.93,0.42 -8.64,4.25 -9.67,21.54 -0.88,15.3 0,38.43 1.98,51.1 2.22,14.27 8.21,35.41 10.46,36.93 3.34,2.31 6.48,1.8 8.73,-1.41 1.59,-2.26 1.97,-4.94 1.66,-11.93l-0.4 -9.02 4.11 -1.73c2.27,-0.95 4.71,-2.05 5.43,-2.45 0.7,-0.39 3.48,3.02 6.17,7.57 2.69,4.55 8.6,12.35 13.17,17.38 4.56,5.01 9.33,9.12 10.61,9.12 2.89,0 7.05,-5.12 7.04,-8.66 -0.04,-6.02 -6.24,-19.23 -13.02,-27.75l-7.14 -8.93 5.2 -7.39c11.63,-16.57 11.35,-37.62 -0.76,-54.06 -5.93,-8.08 -15.57,-13.06 -24.8,-13.5z"/>
   <path class="fil1" d="M28.09 508.23l298.69 0c0.62,4.9 2.06,9.48 4.12,13.72l-302.8 0c-3.25,0 -5.9,-3.09 -5.9,-6.86l0 -0c0,-3.77 2.66,-6.86 5.9,-6.86zm442.31 0l276.92 0c3.25,0 5.9,3.09 5.9,6.86l0 0c0,3.77 -2.66,6.86 -5.9,6.86l-284.88 0c3.14,-4.19 5.78,-8.81 7.96,-13.72z"/>
   <polygon class="fil2" points="703.3,302.54 706.65,314.61 717.57,314.59 708.73,322.02 712.12,334.08 703.3,326.6 694.48,334.08 697.87,322.02 689.03,314.59 699.95,314.61 "/>
   <polygon class="fil2" points="84.32,302.54 87.68,314.61 98.59,314.59 89.75,322.02 93.14,334.08 84.32,326.6 75.5,334.08 78.9,322.02 70.05,314.59 80.97,314.61 "/>
  </g>
 </g>
</svg>
