<?xml version="1.0" encoding="UTF-8"?>
<!DOCTYPE svg PUBLIC "-//W3C//DTD SVG 1.1//EN" "http://www.w3.org/Graphics/SVG/1.1/DTD/svg11.dtd">
<!-- Creator: CorelDRAW -->
<svg xmlns="http://www.w3.org/2000/svg" xml:space="preserve" width="45.9741mm" height="43.6856mm" version="1.1" style="shape-rendering:geometricPrecision; text-rendering:geometricPrecision; image-rendering:optimizeQuality; fill-rule:evenodd; clip-rule:evenodd"
viewBox="0 0 118.51 112.61"
 xmlns:xlink="http://www.w3.org/1999/xlink"
 xmlns:xodm="http://www.corel.com/coreldraw/odm/2003">
 <defs>
  <style type="text/css">
   <![CDATA[
    .fil0 {fill:#F9FAFC}
    .fil2 {fill:#000044}
    .fil1 {fill:#00CCFF}
   ]]>
  </style>
 </defs>
 <g id="Camada_x0020_1">
  <metadata id="CorelCorpID_0Corel-Layer"/>
  <g id="Tubarão_x0020_Escudo.cdr">
   <path class="fil0" d="M32.47 81.87c-0.33,0.1 -0.67,0.17 -1.02,0.2 -2.32,0.23 -4.48,-1.12 -5.32,-3.25 -0.11,-0.27 -0.19,-0.55 -0.25,-0.83 -2.18,-9.56 -3.04,-20.18 -1.25,-30.01 -6.22,-1.94 -13.28,-2.51 -19.54,-2.64 -2.56,-0.05 -4.67,-1.92 -5.03,-4.46 -0.36,-2.54 1.14,-4.92 3.59,-5.68 3.02,-0.95 6.14,-1.62 9.32,-2.06 -0.4,-6.62 -0.2,-13.28 0.48,-19.88 0.23,-2.27 1.84,-4.06 4.07,-4.54l16.5 -3.54c0.04,-0.76 0.25,-1.53 0.64,-2.24 1.03,-1.91 3.02,-2.94 5.17,-2.68 3.48,0.41 6.95,1.04 10.31,1.96 0.59,-0.45 1.3,-0.78 2.08,-0.95l5.33 -1.14c0.75,-0.16 1.43,-0.16 2.18,0 13.34,2.87 26.68,5.73 40.03,8.6 2.24,0.48 3.84,2.27 4.07,4.54 0.1,0.97 0.19,1.94 0.27,2.91 3.62,0.84 7.22,1.82 10.79,2.94 1.7,0.53 2.92,1.77 3.42,3.48 0.5,1.71 0.15,3.41 -0.98,4.78 -4.03,4.85 -8.68,9.09 -13.72,12.84 0,0.24 -0.02,0.49 -0.05,0.73 -3.2,23.8 -14.33,43.53 -32.12,59.48 0.55,1.67 1.19,3.31 1.88,4.93 0.93,2.17 0.33,4.61 -1.52,6.09 -1.84,1.48 -4.35,1.55 -6.27,0.18 -4.41,-3.16 -8.39,-7.37 -10.52,-12.43 -2.1,-0.5 -4.16,-0.73 -6.25,-1.45 -0.07,-0.02 -0.13,-0.04 -0.19,-0.07 -7.72,-3 -13.2,-8.89 -14.07,-16.95 -0.56,0.52 -1.24,0.92 -2,1.15z"/>
   <path class="fil1" d="M106.86 25.87c-2.71,-0.27 -8.53,-0.08 -10.64,-0.05 -2.48,0.03 -5.11,0.66 -7.58,0.9 -3.69,0.35 -9.77,3.32 -11.71,6.9 -1.88,3.47 -1.55,6.38 -1.09,9.82 -2.15,-2.16 -3.58,-5.02 -4.38,-7.67 -0.27,1.44 -0.25,3.56 -0.22,4.78 -2.84,-1.9 -5.3,-6.19 -5.7,-7.82 -23.56,8.44 -34.6,26.16 -34.59,44.18 -1.42,-20.62 6.97,-37.34 34.21,-47.1 -0.05,-2.24 0.38,-4.18 1.54,-5.28 -0.16,5.22 1.11,9 3.51,11.65 -0.1,-3.58 0.36,-5.84 1.47,-6.56 -0.05,4.82 1.24,7.37 2.4,9.32 -0.06,-3.75 0.48,-6.54 1.6,-8.62 2.09,-3.86 8.12,-4.77 12.99,-5.22 2.48,-0.23 4.99,-0.36 7.53,-0.39 2.59,-0.03 7.11,-0.2 9.53,0.6 0.47,0.15 0.85,0.34 1.13,0.57zm-85.33 0.59l3.17 8.94 1.24 -14.26 15.83 -5.83 -20.24 0.86 0 10.3z"/>
   <path class="fil2" d="M100.07 34.71c-1.44,-5.12 -12.46,-4.29 -18.44,1.02 5.41,-3.2 13.42,-3 15.16,2.94 6.29,-4.22 11.89,-9.02 16.52,-14.6 -20.96,-6.58 -40.43,-7.64 -58.38,-3.05 2.23,-1.87 5.69,-3.33 10.64,-4.3 -5.3,-5.62 -13.37,-9.77 -26.36,-11.31 1.5,1.79 2.74,3.89 3.65,6.39l0 -0c0.74,-0.16 1.28,-0.27 1.84,-0.25 1.32,0.06 0.8,0.58 0.16,1.29 -0.29,0.31 -0.59,0.58 -0.91,0.79 0.34,1 0.62,2.08 0.85,3.22 1.08,-0.55 2.98,-0.93 3.11,-0.42 0.07,0.25 -0.23,0.84 -1.53,1.58 -1.24,0.68 -1.82,1.96 -1.85,4.14 -0.11,1.21 -0.49,2.2 -1,3.03 -0.93,1.52 -2.07,2.27 -3.33,3.44 -2.49,2.31 -4.48,4.92 -6.07,7.72 3.25,0.42 5.76,1.31 7.22,2.73 -13.58,-2.07 -25.89,-2.13 -36.15,1.07 9.75,0.21 18.52,1.45 25.5,4.57 -3.01,10.73 -1.9,22.77 0.26,32.18 -1.42,-20.62 6.97,-37.34 34.21,-47.1 -0.05,-2.24 0.38,-4.18 1.54,-5.28 -0.16,5.22 1.11,9 3.51,11.65 -0.1,-3.58 0.36,-5.84 1.47,-6.56 -0.05,4.82 1.24,7.37 2.4,9.32 -0.06,-3.75 0.48,-6.54 1.6,-8.62 2.09,-3.86 8.12,-4.77 12.99,-5.22 2.48,-0.23 4.99,-0.36 7.53,-0.39 2.59,-0.03 7.11,-0.2 9.53,0.6 1.58,0.52 2.25,1.41 0.79,3.04 -2.11,2.15 -4.33,4.21 -6.44,6.36zm-32.72 62.39c17.55,-15.52 28.02,-34.41 31.03,-56.83 -0.12,0.08 -0.24,0.16 -0.36,0.24l-6.7 3.66c-3.31,17.41 -11.67,32.51 -25.18,45.42 0.19,2.53 0.61,5.04 1.21,7.51zm31.66 -78.96c-0.1,-1.44 -0.22,-2.88 -0.37,-4.35 -13.34,-2.87 -26.68,-5.73 -40.03,-8.6l-5.33 1.14c4.24,1.55 8.21,3.71 11.65,6.71l13.76 2.96c6.8,0.07 13.59,0.82 20.31,2.13zm-59.74 -8.79l-20.68 4.44c-0.78,7.59 -0.86,14.85 -0.26,21.78 1.21,-0.08 2.43,-0.13 3.64,-0.16 0.91,-0.02 1.82,-0.02 2.73,-0.01 -0.48,-5.27 -0.53,-10.73 -0.17,-16.39l17.24 -3.7 -1 -2.76c-0.41,-1.12 -0.9,-2.19 -1.49,-3.2zm20.2 87.08c1.44,3.94 4.6,7.79 9.05,10.97 -3.37,-7.84 -4.83,-14.94 -4.69,-21.56 -0.99,-0.03 -1.93,-0.4 -2.79,-1.33 1.11,-0.41 2.05,-0.47 2.85,-0.3 0.07,-1.18 0.19,-2.34 0.36,-3.49 -0.55,-0.09 -1.13,-0.21 -1.74,-0.4 0.71,-0.34 1.33,-0.46 1.88,-0.44 0.58,-3.43 1.6,-6.76 3,-10.01 -5.33,5.23 -8.21,11.1 -9.84,17.31 -5.14,0.23 -11.17,-4.24 -9.25,-12.35 -1.33,2.51 -1.72,5.66 -1.48,9.74 -2.48,-4.14 -1.5,-9.24 3.52,-14.79 0.01,-0.02 0.03,-0.05 0.04,-0.07 4.71,-5.05 9.93,-8.86 15.29,-12.23 3.11,-0.2 6.61,0.57 10.5,2.38 -1.37,-2.41 -3.27,-4.14 -5.55,-5.37 6.87,-4.01 13.78,-7.67 19.96,-12.58 -13.52,7.24 -27.47,12.2 -41.16,21.26 -7.51,5.38 -9.85,10.42 -9.9,15.08 -0.05,5.22 2.45,11.3 10.89,14.58 3.62,1.24 7.85,0.92 11.07,3.86 -0.64,0.19 -1.61,-0.27 -2.02,-0.27zm27.32 -75.42c3.29,-0.52 4.88,-0.08 6.28,1.22 -4.73,0.85 -4.63,0.23 -6.28,-1.22z"/>
  </g>
 </g>
</svg>
