<?xml version="1.0" encoding="UTF-8"?>
<!DOCTYPE svg PUBLIC "-//W3C//DTD SVG 1.1//EN" "http://www.w3.org/Graphics/SVG/1.1/DTD/svg11.dtd">
<!-- Creator: CorelDRAW -->
<svg xmlns="http://www.w3.org/2000/svg" xml:space="preserve" width="45.2979mm" height="21.7707mm" version="1.1" style="shape-rendering:geometricPrecision; text-rendering:geometricPrecision; image-rendering:optimizeQuality; fill-rule:evenodd; clip-rule:evenodd"
viewBox="0 0 90.91 43.69"
 xmlns:xlink="http://www.w3.org/1999/xlink"
 xmlns:xodm="http://www.corel.com/coreldraw/odm/2003">
 <defs>
  <style type="text/css">
   <![CDATA[
    .str0 {stroke:#373435;stroke-width:0.4;stroke-miterlimit:22.9256}
    .fil5 {fill:#FEFEFE}
    .fil16 {fill:#FAFAFA}
    .fil21 {fill:#EFEFF0}
    .fil8 {fill:#FDD1A1}
    .fil18 {fill:#A45E4D}
    .fil19 {fill:#C55543}
    .fil12 {fill:#0098DA}
    .fil9 {fill:#201E1E}
    .fil0 {fill:#00B5B9}
    .fil6 {fill:#13A2AE}
    .fil13 {fill:#65352F}
    .fil20 {fill:#EFB4A0}
    .fil17 {fill:#F2C2B2}
    .fil7 {fill:#F5C587}
    .fil10 {fill:#F9CDBA}
    .fil2 {fill:#FEFEFE;fill-rule:nonzero}
    .fil4 {fill:#FFF212;fill-rule:nonzero}
    .fil11 {fill:#ED3237;fill-opacity:0.101961}
    .fil15 {fill:#ED3237;fill-opacity:0.160784}
    .fil1 {fill:#201E1E;fill-rule:nonzero;fill-opacity:0.278431}
    .fil14 {fill:#ED3237;fill-opacity:0.321569}
    .fil3 {fill:url(#id0);fill-rule:nonzero}
   ]]>
  </style>
  <linearGradient id="id0" gradientUnits="userSpaceOnUse" x1="46.88" y1="31.34" x2="46.88" y2="14.7">
   <stop offset="0" style="stop-opacity:1; stop-color:#FFF212"/>
   <stop offset="1" style="stop-opacity:1; stop-color:#FEFEFE"/>
  </linearGradient>
 </defs>
 <g id="Camada_x0020_1">
  <metadata id="CorelCorpID_0Corel-Layer"/>
  <g id="_2536681461536">
   <path class="fil0" d="M34.62 39.48c-2.37,1.29 -5.25,2.12 -8.36,2.27 -7.97,0.38 -14.45,-3.87 -14.63,-9.53 -6.62,-0.55 -11.64,-4.53 -11.64,-9.61 0,-4.73 4.36,-8.93 10.32,-10.45 1.13,-4.63 6.67,-8.38 13.33,-8.7 2.94,-0.14 5.66,0.41 7.88,1.45 2.55,-1.63 5.85,-2.69 9.44,-2.86 5.81,-0.27 10.82,1.86 13.21,5.19 1.26,-0.31 2.6,-0.5 3.97,-0.57 8.11,-0.38 14.69,3.94 14.69,9.65 0,0.07 -0,0.14 -0,0.21 4.55,1.56 7.64,4.86 7.64,8.83 0,5.78 -6.55,10.78 -14.63,11.16 -1.89,0.09 -3.69,-0.08 -5.34,-0.47 -1.96,4.14 -7.35,7.3 -13.68,7.6 -5.13,0.24 -9.63,-1.45 -12.2,-4.19z"/>
   <path class="fil1" d="M18.47 11.49c0.04,-0.02 0.08,-0.04 0.13,-0.05 0.04,-0.02 0.09,-0.03 0.14,-0.03 0.05,-0.01 0.09,-0.02 0.14,-0.02 0.04,-0 0.09,-0 0.13,-0 0.24,0 0.46,0.06 0.66,0.19 0.2,0.13 0.34,0.3 0.43,0.52l1.19 3.05 1.2 -3.05c0.09,-0.22 0.23,-0.39 0.43,-0.52 0.2,-0.13 0.42,-0.19 0.66,-0.19 0.09,0 0.17,0.01 0.26,0.03 0.08,0.02 0.17,0.05 0.26,0.08 0.22,0.1 0.38,0.24 0.5,0.41 0.12,0.17 0.17,0.36 0.17,0.55 0,0.07 -0.01,0.14 -0.02,0.2 -0.01,0.07 -0.04,0.13 -0.07,0.2l-2.28 4.74c-0.09,0.2 -0.2,0.35 -0.31,0.46 -0.12,0.11 -0.25,0.18 -0.41,0.22 -0.07,0.02 -0.14,0.03 -0.21,0.04 -0.07,0.01 -0.14,0.01 -0.21,0.01 -0.24,0 -0.45,-0.06 -0.63,-0.18 -0.18,-0.12 -0.33,-0.31 -0.45,-0.55l-2.28 -4.74c-0.01,-0.03 -0.02,-0.06 -0.03,-0.1 -0.01,-0.03 -0.02,-0.07 -0.03,-0.11 -0.01,-0.03 -0.01,-0.06 -0.02,-0.1 -0,-0.03 -0.01,-0.07 -0.01,-0.1 0,-0.2 0.06,-0.39 0.17,-0.56 0.12,-0.17 0.28,-0.3 0.49,-0.41zm40.23 18.87c-0.3,-0.16 -0.52,-0.34 -0.65,-0.52 -0.13,-0.18 -0.2,-0.36 -0.2,-0.54 0,-0.05 0,-0.1 0.01,-0.15 0.01,-0.05 0.02,-0.1 0.04,-0.15 0.07,-0.21 0.21,-0.37 0.41,-0.5 0.2,-0.13 0.45,-0.19 0.75,-0.19 0.1,0 0.2,0.01 0.31,0.02 0.11,0.02 0.22,0.05 0.34,0.09l0.27 0.07 0.19 0.06c0.2,0.07 0.36,0.12 0.48,0.15 0.12,0.02 0.22,0.05 0.32,0.06l0.08 0 0.16 0c0.07,0 0.12,-0.01 0.16,-0.03 0.04,-0.02 0.06,-0.05 0.08,-0.08 0.01,-0.02 0.01,-0.03 0.01,-0.04 0,-0.01 0,-0.02 0,-0.02 0,-0.04 -0.01,-0.08 -0.04,-0.11 -0.03,-0.03 -0.07,-0.07 -0.12,-0.1 -0.01,0 -0.02,-0 -0.03,-0.01 -0.01,-0 -0.01,-0.01 -0.01,-0.02 -0.01,-0.01 -0.02,-0.01 -0.03,-0.02 -0.01,-0 -0.02,-0.01 -0.03,-0.01l-0.12 -0.04 -0.27 -0.06 -0.35 -0.1 -0.25 -0.06c-0.62,-0.16 -1.07,-0.33 -1.36,-0.52 -0.28,-0.19 -0.49,-0.44 -0.63,-0.74 -0.05,-0.12 -0.09,-0.23 -0.11,-0.35 -0.02,-0.12 -0.03,-0.23 -0.03,-0.35 0,-0.57 0.29,-1.07 0.87,-1.51 0.58,-0.44 1.37,-0.66 2.38,-0.66 0.02,0 0.03,0 0.04,0 0.01,0 0.02,0 0.04,0 0.01,0 0.02,0 0.03,0 0.01,0 0.02,0 0.03,0 0.23,0 0.45,0.01 0.65,0.04 0.2,0.03 0.39,0.06 0.56,0.1 0.34,0.08 0.61,0.18 0.82,0.3 0.21,0.12 0.36,0.23 0.46,0.36 0.06,0.08 0.11,0.16 0.13,0.25 0.03,0.08 0.04,0.17 0.04,0.26 0,0.19 -0.07,0.37 -0.2,0.54 -0.13,0.17 -0.31,0.28 -0.55,0.34 -0.05,0.01 -0.11,0.02 -0.16,0.02 -0.05,0.01 -0.11,0.01 -0.17,0.01 -0.08,0 -0.17,-0.01 -0.27,-0.02 -0.1,-0.02 -0.23,-0.04 -0.38,-0.07l-0.4 -0.09 -0.2 -0.05 -0.21 -0.04c-0.01,0 -0.02,-0 -0.03,-0.01 -0.01,-0 -0.02,-0.01 -0.03,-0.01 -0.02,-0.01 -0.03,-0.01 -0.04,-0.01 -0.01,0 -0.02,0 -0.04,0 -0.05,-0.01 -0.1,-0.01 -0.14,-0.02 -0.04,-0 -0.08,-0.01 -0.11,-0.01 -0.04,0 -0.07,0 -0.1,0.01 -0.03,0 -0.06,0.01 -0.09,0.03l-0.03 0.02 -0.04 0.04c-0.04,0.03 -0.05,0.07 -0.03,0.11 0.01,0.04 0.06,0.09 0.13,0.14 0.01,0 0.02,0 0.02,0.01 0,0 0.01,0.01 0.02,0.02 0.01,0.01 0.02,0.01 0.03,0.02 0.01,0 0.02,0.01 0.03,0.01l0.12 0.04 0.2 0.06 0.47 0.14 0.33 0.09 0.29 0.1c0.16,0.05 0.31,0.11 0.46,0.18 0.15,0.07 0.29,0.15 0.42,0.23 0.3,0.2 0.53,0.43 0.68,0.71 0.15,0.28 0.23,0.56 0.23,0.85 0,0.02 0,0.05 0,0.07 0,0.02 0,0.05 0,0.07 -0.03,0.25 -0.11,0.51 -0.26,0.76 -0.15,0.25 -0.36,0.48 -0.65,0.68 -0.27,0.2 -0.58,0.35 -0.95,0.46 -0.37,0.11 -0.8,0.16 -1.3,0.16 -0.09,0 -0.18,-0 -0.28,-0.01 -0.1,-0 -0.2,-0.01 -0.29,-0.02 -0.43,-0.03 -0.81,-0.09 -1.12,-0.17 -0.32,-0.08 -0.57,-0.18 -0.78,-0.28zm-6.34 -6.35c0.12,-0.02 0.23,-0.03 0.34,-0.04 0.11,-0.01 0.22,-0.02 0.31,-0.02 0.34,0 0.65,0.05 0.93,0.15 0.28,0.1 0.52,0.24 0.73,0.43l0 0.04 1.22 -0.6c0.03,-0.02 0.06,-0.03 0.09,-0.04 0.03,-0.01 0.06,-0.02 0.1,-0.02 0.04,-0.01 0.07,-0.01 0.1,-0.02 0.03,-0 0.06,-0.01 0.09,-0.01 0.1,0 0.19,0.02 0.29,0.06 0.09,0.04 0.18,0.09 0.25,0.15 0.18,0.16 0.31,0.35 0.41,0.57 0.09,0.21 0.14,0.44 0.14,0.67l0 4.15c0,0.4 -0.13,0.73 -0.4,0.99 -0.27,0.26 -0.58,0.38 -0.93,0.38 -0.01,0 -0.02,0 -0.03,0 -0.01,0 -0.02,0 -0.04,0 -0.01,-0.01 -0.02,-0.01 -0.03,-0.01 -0.01,0 -0.02,0 -0.04,0l-1.21 -0.63 0 0.06c-0.2,0.18 -0.43,0.32 -0.7,0.43 -0.27,0.1 -0.59,0.15 -0.95,0.15 -0.12,0 -0.24,-0.01 -0.36,-0.02 -0.12,-0.01 -0.25,-0.03 -0.39,-0.06 -0.41,-0.07 -0.8,-0.22 -1.18,-0.46 -0.38,-0.24 -0.71,-0.56 -0.99,-0.94 -0.19,-0.27 -0.33,-0.57 -0.43,-0.88 -0.1,-0.32 -0.15,-0.65 -0.15,-0.99 0,-0.03 0,-0.06 0,-0.09 0,-0.03 0,-0.06 0,-0.09 0.04,-0.85 0.34,-1.57 0.89,-2.18 0.55,-0.6 1.2,-0.97 1.95,-1.1zm0.11 3.45c0,0.15 0.02,0.28 0.07,0.39 0.04,0.12 0.11,0.23 0.2,0.33 0.1,0.11 0.21,0.19 0.34,0.25 0.13,0.06 0.26,0.09 0.39,0.09 0.01,0 0.02,0 0.03,0 0.01,0 0.03,0 0.05,0 0.15,-0.02 0.3,-0.07 0.44,-0.15 0.14,-0.08 0.26,-0.2 0.35,-0.36 0.04,-0.06 0.06,-0.12 0.09,-0.17 0.02,-0.06 0.04,-0.12 0.05,-0.19 0.01,-0.04 0.02,-0.08 0.02,-0.12 0,-0.04 0.01,-0.07 0.01,-0.1 0,-0.02 0,-0.03 0,-0.04 0,-0.01 0,-0.02 0,-0.03 -0.01,-0.02 -0.01,-0.03 -0.01,-0.04 0,-0.01 0,-0.02 0,-0.03 -0.04,-0.21 -0.1,-0.39 -0.21,-0.53 -0.1,-0.14 -0.24,-0.24 -0.41,-0.31 -0.04,-0.02 -0.07,-0.03 -0.11,-0.04 -0.04,-0.01 -0.07,-0.02 -0.09,-0.02 -0.04,-0.01 -0.07,-0.01 -0.11,-0.02 -0.04,-0 -0.07,-0.01 -0.11,-0.01 -0.23,0.01 -0.43,0.09 -0.61,0.24 -0.18,0.15 -0.29,0.36 -0.35,0.64 0,0.02 -0,0.03 -0.01,0.06 -0,0.02 -0.01,0.04 -0.01,0.06 0,0.02 -0,0.04 -0.01,0.06 -0,0.02 -0.01,0.04 -0.01,0.06zm-6.76 -3.26c0.04,0.01 0.07,0.02 0.11,0.04 0.04,0.02 0.08,0.03 0.11,0.05l0 -1.89c0,-0.38 0.14,-0.7 0.43,-0.96 0.29,-0.26 0.64,-0.39 1.05,-0.39 0.41,0.01 0.75,0.14 1.04,0.41 0.28,0.26 0.43,0.59 0.43,0.97l0 7.02c0,0.4 -0.14,0.73 -0.41,0.98 -0.27,0.25 -0.58,0.38 -0.93,0.38 -0.01,0 -0.02,0 -0.03,0 -0.01,0 -0.02,0 -0.03,0 -0.01,-0.01 -0.02,-0.01 -0.03,-0.01 -0.01,0 -0.02,0 -0.03,0l-1.22 -0.67 0 0.05c-0.2,0.21 -0.43,0.36 -0.71,0.48 -0.28,0.11 -0.6,0.17 -0.95,0.17 -0.1,0 -0.2,-0.01 -0.31,-0.02 -0.11,-0.01 -0.22,-0.03 -0.33,-0.04 -0.68,-0.11 -1.28,-0.41 -1.79,-0.89 -0.51,-0.49 -0.84,-1.1 -0.99,-1.82 -0.01,-0.06 -0.02,-0.12 -0.03,-0.17 -0.01,-0.06 -0.02,-0.12 -0.03,-0.17 0,-0.06 -0,-0.12 -0.01,-0.17 -0,-0.06 -0.01,-0.12 -0.01,-0.17 0,-0.13 0.01,-0.26 0.02,-0.39 0.01,-0.13 0.04,-0.25 0.07,-0.38 0.12,-0.49 0.33,-0.92 0.63,-1.29 0.29,-0.37 0.65,-0.67 1.07,-0.89 0.26,-0.14 0.52,-0.25 0.8,-0.32 0.28,-0.07 0.55,-0.11 0.83,-0.1 0.2,0 0.41,0.02 0.62,0.06 0.21,0.04 0.42,0.09 0.65,0.17zm-1.73 3.18c-0.01,0.33 0.09,0.59 0.29,0.8 0.2,0.2 0.44,0.3 0.71,0.3 0.01,0 0.02,0 0.02,0 0,0 0.01,0 0.02,0 0.25,-0.01 0.46,-0.09 0.63,-0.24 0.17,-0.15 0.29,-0.38 0.34,-0.67 0,-0.02 0,-0.03 0.01,-0.05 0,-0.02 0.01,-0.04 0.01,-0.06 0,-0.02 0,-0.03 0,-0.05 0,-0.02 0,-0.03 0,-0.05 0,-0.02 0,-0.03 0,-0.05 0,-0.02 0,-0.03 0,-0.05 0,-0.02 -0,-0.03 -0.01,-0.05 -0,-0.02 -0.01,-0.03 -0.01,-0.05 -0.04,-0.24 -0.14,-0.43 -0.27,-0.57 -0.14,-0.14 -0.31,-0.23 -0.51,-0.27 -0.04,-0.01 -0.07,-0.01 -0.11,-0.02 -0.04,-0 -0.08,-0.01 -0.11,-0.01 -0.25,0 -0.46,0.08 -0.64,0.23 -0.18,0.15 -0.29,0.37 -0.35,0.66 0,0.02 -0,0.03 -0.01,0.05 -0,0.02 -0.01,0.03 -0.01,0.05 0,0.02 0,0.03 0,0.05 0,0.02 0,0.03 0,0.05zm-6.11 3.06c-0.14,-0.13 -0.25,-0.28 -0.33,-0.45 -0.08,-0.17 -0.11,-0.34 -0.11,-0.52l0 -7.07c0,-0.37 0.15,-0.69 0.44,-0.96 0.29,-0.27 0.65,-0.4 1.06,-0.39 0.41,0.01 0.75,0.15 1.03,0.41 0.28,0.27 0.42,0.59 0.42,0.96l0 7.03c0,0.18 -0.04,0.36 -0.11,0.52 -0.07,0.17 -0.18,0.32 -0.32,0.46 -0.14,0.13 -0.31,0.23 -0.49,0.29 -0.19,0.06 -0.38,0.09 -0.57,0.09 -0.19,0 -0.37,-0.03 -0.55,-0.09 -0.18,-0.06 -0.34,-0.16 -0.48,-0.29zm-6.19 -6.44c0.12,-0.02 0.23,-0.03 0.34,-0.04 0.11,-0.01 0.22,-0.02 0.31,-0.02 0.34,0 0.65,0.05 0.93,0.15 0.28,0.1 0.52,0.24 0.73,0.43l0 0.04 1.22 -0.6c0.03,-0.02 0.06,-0.03 0.09,-0.04 0.03,-0.01 0.06,-0.02 0.1,-0.02 0.04,-0.01 0.07,-0.01 0.1,-0.02 0.03,-0 0.06,-0.01 0.09,-0.01 0.1,0 0.19,0.02 0.29,0.06 0.09,0.04 0.18,0.09 0.25,0.15 0.18,0.16 0.31,0.35 0.41,0.57 0.09,0.21 0.14,0.44 0.14,0.67l0 4.15c0,0.4 -0.13,0.73 -0.4,0.99 -0.27,0.26 -0.58,0.38 -0.93,0.38 -0.01,0 -0.02,0 -0.03,0 -0.01,0 -0.02,0 -0.04,0 -0.01,-0.01 -0.02,-0.01 -0.03,-0.01 -0.01,0 -0.02,0 -0.04,0l-1.21 -0.63 0 0.06c-0.2,0.18 -0.43,0.32 -0.7,0.43 -0.27,0.1 -0.59,0.15 -0.95,0.15 -0.12,0 -0.24,-0.01 -0.36,-0.02 -0.12,-0.01 -0.25,-0.03 -0.39,-0.06 -0.41,-0.07 -0.8,-0.22 -1.18,-0.46 -0.38,-0.24 -0.71,-0.56 -0.99,-0.94 -0.19,-0.27 -0.33,-0.57 -0.43,-0.88 -0.1,-0.32 -0.15,-0.65 -0.15,-0.99 0,-0.03 0,-0.06 0,-0.09 0,-0.03 0,-0.06 0,-0.09 0.04,-0.85 0.34,-1.57 0.89,-2.18 0.55,-0.6 1.2,-0.97 1.95,-1.1zm0.11 3.45c0,0.15 0.02,0.28 0.07,0.39 0.04,0.12 0.11,0.23 0.2,0.33 0.1,0.11 0.21,0.19 0.34,0.25 0.13,0.06 0.26,0.09 0.39,0.09 0.01,0 0.02,0 0.03,0 0.01,0 0.03,0 0.05,0 0.15,-0.02 0.3,-0.07 0.44,-0.15 0.14,-0.08 0.26,-0.2 0.35,-0.36 0.04,-0.06 0.06,-0.12 0.09,-0.17 0.02,-0.06 0.04,-0.12 0.05,-0.19 0.01,-0.04 0.02,-0.08 0.02,-0.12 0,-0.04 0.01,-0.07 0.01,-0.1 0,-0.02 0,-0.03 0,-0.04 0,-0.01 0,-0.02 0,-0.03 -0.01,-0.02 -0.01,-0.03 -0.01,-0.04 0,-0.01 0,-0.02 0,-0.03 -0.04,-0.21 -0.1,-0.39 -0.21,-0.53 -0.1,-0.14 -0.24,-0.24 -0.41,-0.31 -0.04,-0.02 -0.07,-0.03 -0.11,-0.04 -0.04,-0.01 -0.07,-0.02 -0.09,-0.02 -0.04,-0.01 -0.07,-0.01 -0.11,-0.02 -0.04,-0 -0.07,-0.01 -0.11,-0.01 -0.23,0.01 -0.43,0.09 -0.61,0.24 -0.18,0.15 -0.29,0.36 -0.35,0.64 0,0.02 -0,0.03 -0.01,0.06 -0,0.02 -0.01,0.04 -0.01,0.06 0,0.02 -0,0.04 -0.01,0.06 -0,0.02 -0.01,0.04 -0.01,0.06zm-6.94 3.36c0,-0.01 -0,-0.01 -0.01,-0.01 -0,0 -0.01,0 -0.02,0 -0.01,0 -0.02,0 -0.02,0 -0,0 -0.01,0 -0.01,0 -0.39,0 -0.73,-0.13 -1.01,-0.38 -0.28,-0.25 -0.42,-0.57 -0.42,-0.94l0 -4.13c0,-0.38 0.14,-0.7 0.43,-0.97 0.29,-0.27 0.64,-0.4 1.05,-0.4l1.37 0.86 0 -0.06 0.08 -0.09 0.16 -0.16c0.1,-0.1 0.19,-0.18 0.29,-0.25 0.09,-0.07 0.19,-0.12 0.29,-0.16 0.09,-0.04 0.18,-0.07 0.27,-0.09 0.09,-0.02 0.19,-0.03 0.29,-0.03 0.03,0 0.06,0 0.09,0 0.03,0 0.06,0 0.1,0.01 0.04,0 0.07,0 0.1,0.01 0.03,0.01 0.06,0.02 0.09,0.02 0.26,0.06 0.48,0.17 0.66,0.35 0.18,0.18 0.3,0.38 0.34,0.6 0.02,0.05 0.03,0.1 0.03,0.15 0,0.05 0,0.1 0,0.15 0,0.29 -0.11,0.54 -0.33,0.75 -0.22,0.21 -0.56,0.38 -1.03,0.52 -0.03,0.01 -0.05,0.02 -0.07,0.02 -0.02,0.01 -0.04,0.02 -0.06,0.02 -0.02,0.01 -0.04,0.02 -0.06,0.02 -0.02,0.01 -0.05,0.02 -0.07,0.02 -0.08,0.03 -0.15,0.06 -0.22,0.09 -0.07,0.02 -0.13,0.05 -0.18,0.09 -0.28,0.14 -0.47,0.3 -0.55,0.48 -0.08,0.18 -0.12,0.47 -0.11,0.86l0 1.2c0.01,0.39 -0.13,0.73 -0.42,1 -0.29,0.27 -0.64,0.41 -1.05,0.42l0 0.01zm-6.64 0.07c-0.43,-0.01 -0.79,-0.15 -1.09,-0.43 -0.3,-0.28 -0.45,-0.61 -0.45,-1.01l0 -6.17c0,-0.41 0.15,-0.75 0.45,-1.03 0.3,-0.28 0.67,-0.41 1.11,-0.41l3.63 0c0.18,0 0.35,0.03 0.52,0.1 0.17,0.07 0.32,0.16 0.45,0.28 0.12,0.12 0.22,0.25 0.29,0.39 0.07,0.15 0.1,0.3 0.1,0.47 0,0.16 -0.04,0.31 -0.11,0.47 -0.07,0.16 -0.17,0.3 -0.31,0.42 -0.13,0.11 -0.28,0.19 -0.45,0.26 -0.16,0.07 -0.33,0.1 -0.51,0.1l-2.09 0 0 0.88 1.77 0c0.36,0 0.67,0.12 0.93,0.36 0.26,0.24 0.39,0.53 0.39,0.87 0,0 0,0 0,0 0,0 0,0 0,0 0,0.01 0,0.01 0,0.01 0,0 0,0 0,0 -0.01,0.34 -0.14,0.62 -0.4,0.86 -0.26,0.23 -0.57,0.35 -0.93,0.35l-1.76 0 0 1.79c0,0.39 -0.15,0.73 -0.45,1.01 -0.3,0.28 -0.67,0.41 -1.09,0.41l0 0.01zm32.23 -19.56c0,0.25 -0.1,0.48 -0.3,0.69 -0.2,0.2 -0.46,0.31 -0.79,0.31 -0.19,0 -0.49,-0.08 -0.91,-0.25 -0.42,-0.16 -0.65,-0.25 -0.7,-0.25 -0.13,0 -0.28,0.07 -0.44,0.22 -0.16,0.14 -0.29,0.22 -0.38,0.22 -0.11,0 -0.19,-0.04 -0.24,-0.11 -0.05,-0.07 -0.08,-0.17 -0.08,-0.28 0,-0.25 0.1,-0.48 0.29,-0.69 0.2,-0.2 0.45,-0.31 0.75,-0.31 0.23,0 0.53,0.08 0.92,0.25 0.39,0.16 0.63,0.25 0.73,0.25 0.13,0 0.28,-0.07 0.44,-0.22 0.16,-0.14 0.29,-0.22 0.38,-0.22 0.11,0 0.19,0.04 0.24,0.11 0.05,0.07 0.08,0.17 0.08,0.28zm-23.61 8.74c0.01,0 0.03,0.01 0.04,0.01 0.02,0.01 0.03,0.01 0.04,0.02l0 -0.74c0,-0.15 0.06,-0.27 0.17,-0.38 0.11,-0.1 0.25,-0.15 0.41,-0.15 0.16,0 0.3,0.06 0.41,0.16 0.11,0.1 0.17,0.23 0.17,0.38l0 2.75c0,0.16 -0.05,0.29 -0.16,0.38 -0.11,0.1 -0.23,0.15 -0.36,0.15 -0,0 -0.01,0 -0.01,0 -0.01,0 -0.01,0 -0.01,0 -0,-0 -0.01,-0 -0.01,-0 -0.01,0 -0.01,0 -0.01,0l-0.48 -0.26 0 0.02c-0.08,0.08 -0.17,0.14 -0.28,0.19 -0.11,0.04 -0.23,0.07 -0.37,0.07 -0.04,0 -0.08,-0 -0.12,-0.01 -0.04,-0 -0.09,-0.01 -0.13,-0.02 -0.27,-0.04 -0.5,-0.16 -0.7,-0.35 -0.2,-0.19 -0.33,-0.43 -0.39,-0.71 -0,-0.02 -0.01,-0.04 -0.01,-0.07 -0,-0.02 -0.01,-0.05 -0.01,-0.07 0,-0.02 -0,-0.05 -0,-0.07 -0,-0.02 -0,-0.05 -0,-0.07 0,-0.05 0,-0.1 0.01,-0.15 0.01,-0.05 0.01,-0.1 0.03,-0.15 0.05,-0.19 0.13,-0.36 0.24,-0.5 0.11,-0.15 0.25,-0.26 0.42,-0.35 0.1,-0.05 0.2,-0.1 0.31,-0.13 0.11,-0.03 0.22,-0.04 0.32,-0.04 0.08,0 0.16,0.01 0.24,0.02 0.08,0.01 0.17,0.04 0.25,0.07zm-0.68 1.25c-0,0.13 0.03,0.23 0.11,0.31 0.08,0.08 0.17,0.12 0.28,0.12 0,0 0.01,0 0.01,0 0,0 0,0 0.01,0 0.1,-0 0.18,-0.03 0.25,-0.09 0.07,-0.06 0.11,-0.15 0.13,-0.26 0,-0.01 0,-0.01 0,-0.02 0,-0.01 0,-0.01 0,-0.02 0,-0.01 0,-0.01 0,-0.02 0,-0.01 0,-0.01 0,-0.02 0,-0.01 0,-0.01 0,-0.02 0,-0.01 0,-0.01 0,-0.02 0,-0.01 -0,-0.01 -0,-0.02 -0,-0.01 -0,-0.01 -0,-0.02 -0.02,-0.09 -0.05,-0.17 -0.11,-0.22 -0.05,-0.05 -0.12,-0.09 -0.2,-0.11 -0.01,-0 -0.03,-0.01 -0.04,-0.01 -0.02,-0 -0.03,-0 -0.04,-0 -0.1,0 -0.18,0.03 -0.25,0.09 -0.07,0.06 -0.11,0.15 -0.14,0.26 0,0.01 -0,0.01 -0,0.02 -0,0.01 -0,0.01 -0,0.02 0,0.01 0,0.01 0,0.02 0,0.01 0,0.01 0,0.02zm3.28 -1.32c0.05,-0.01 0.09,-0.01 0.13,-0.02 0.04,-0 0.08,-0.01 0.12,-0.01 0.13,0 0.25,0.02 0.36,0.06 0.11,0.04 0.2,0.09 0.28,0.17l0 0.01 0.48 -0.24c0.01,-0.01 0.02,-0.01 0.03,-0.02 0.01,-0 0.03,-0.01 0.04,-0.01 0.01,-0 0.03,-0.01 0.04,-0.01 0.01,-0 0.02,-0 0.03,-0 0.04,0 0.08,0.01 0.11,0.02 0.04,0.01 0.07,0.03 0.1,0.06 0.07,0.06 0.12,0.14 0.16,0.22 0.04,0.08 0.05,0.17 0.05,0.26l0 1.62c0,0.16 -0.05,0.29 -0.16,0.39 -0.1,0.1 -0.23,0.15 -0.36,0.15 -0,0 -0.01,0 -0.01,0 -0,0 -0.01,0 -0.02,0 -0,-0 -0.01,-0 -0.01,-0 -0,0 -0.01,0 -0.02,0l-0.47 -0.25 0 0.02c-0.08,0.07 -0.17,0.13 -0.27,0.17 -0.11,0.04 -0.23,0.06 -0.37,0.06 -0.05,0 -0.09,-0 -0.14,-0.01 -0.05,-0 -0.1,-0.01 -0.15,-0.02 -0.16,-0.03 -0.31,-0.09 -0.46,-0.18 -0.15,-0.09 -0.28,-0.22 -0.39,-0.37 -0.07,-0.11 -0.13,-0.22 -0.17,-0.35 -0.04,-0.12 -0.06,-0.25 -0.06,-0.39 0,-0.01 0,-0.03 0,-0.04 0,-0.01 0,-0.02 0,-0.04 0.02,-0.33 0.13,-0.62 0.35,-0.85 0.21,-0.24 0.47,-0.38 0.76,-0.43zm0.04 1.35c0,0.06 0.01,0.11 0.03,0.15 0.02,0.04 0.04,0.09 0.08,0.13 0.04,0.04 0.08,0.07 0.13,0.1 0.05,0.02 0.1,0.03 0.15,0.03 0,0 0.01,0 0.01,0 0.01,0 0.01,0 0.02,0 0.06,-0.01 0.12,-0.03 0.17,-0.06 0.06,-0.03 0.1,-0.08 0.14,-0.14 0.01,-0.02 0.03,-0.04 0.03,-0.07 0.01,-0.02 0.01,-0.05 0.02,-0.07 0,-0.02 0.01,-0.03 0.01,-0.05 0,-0.01 0,-0.03 0,-0.04 0,-0.01 0,-0.01 0,-0.02 0,-0 0,-0.01 0,-0.01 -0,-0.01 -0.01,-0.01 -0.01,-0.02 0,-0 0,-0.01 0,-0.01 -0.01,-0.08 -0.04,-0.15 -0.08,-0.21 -0.04,-0.05 -0.09,-0.09 -0.16,-0.12 -0.01,-0.01 -0.03,-0.01 -0.04,-0.01 -0.01,-0 -0.03,-0.01 -0.04,-0.01 -0.01,-0 -0.03,-0.01 -0.04,-0.01 -0.01,-0 -0.03,-0 -0.04,-0 -0.09,0 -0.17,0.03 -0.24,0.09 -0.07,0.06 -0.11,0.14 -0.14,0.25 0,0.01 -0,0.01 -0,0.02 -0,0.01 -0,0.02 -0,0.02 0,0.01 -0,0.01 -0,0.02 -0,0.01 -0,0.02 -0,0.02zm2.44 1.13c-0.12,-0.06 -0.2,-0.13 -0.26,-0.2 -0.05,-0.07 -0.08,-0.14 -0.08,-0.21 0,-0.02 0,-0.04 0.01,-0.06 0,-0.02 0.01,-0.04 0.02,-0.06 0.03,-0.08 0.08,-0.15 0.16,-0.2 0.08,-0.05 0.18,-0.07 0.29,-0.07 0.04,0 0.08,0 0.12,0.01 0.04,0.01 0.09,0.02 0.13,0.03l0.1 0.03 0.07 0.02c0.08,0.03 0.14,0.05 0.19,0.06 0.05,0.01 0.09,0.02 0.13,0.02l0.03 0 0.06 0c0.03,0 0.05,-0 0.06,-0.01 0.01,-0.01 0.02,-0.02 0.03,-0.03 0,-0.01 0.01,-0.01 0.01,-0.01 0,-0 0,-0.01 0,-0.01 0,-0.02 -0.01,-0.03 -0.02,-0.04 -0.01,-0.01 -0.03,-0.03 -0.05,-0.04 -0,0 -0.01,-0 -0.01,-0 -0,-0 -0.01,-0 -0.01,-0.01 -0,-0 -0.01,-0.01 -0.01,-0.01 -0,-0 -0.01,-0 -0.01,-0l-0.05 -0.01 -0.1 -0.02 -0.14 -0.04 -0.1 -0.02c-0.24,-0.06 -0.42,-0.13 -0.53,-0.2 -0.11,-0.07 -0.19,-0.17 -0.24,-0.29 -0.02,-0.05 -0.04,-0.09 -0.04,-0.14 -0.01,-0.05 -0.01,-0.09 -0.01,-0.14 0,-0.22 0.11,-0.42 0.34,-0.59 0.23,-0.17 0.54,-0.26 0.93,-0.26 0.01,0 0.01,0 0.02,0 0,0 0.01,0 0.02,0 0,0 0.01,0 0.01,0 0.01,0 0.01,0 0.01,0 0.09,0 0.18,0.01 0.26,0.02 0.08,0.01 0.15,0.02 0.22,0.04 0.13,0.03 0.24,0.07 0.32,0.12 0.08,0.05 0.14,0.09 0.18,0.14 0.02,0.03 0.04,0.06 0.05,0.1 0.01,0.03 0.02,0.07 0.02,0.1 0,0.07 -0.03,0.14 -0.08,0.21 -0.05,0.07 -0.12,0.11 -0.21,0.13 -0.02,0 -0.04,0.01 -0.06,0.01 -0.02,0 -0.04,0.01 -0.07,0.01 -0.03,0 -0.07,-0 -0.11,-0.01 -0.04,-0.01 -0.09,-0.02 -0.15,-0.03l-0.16 -0.03 -0.08 -0.02 -0.08 -0.01c-0,0 -0.01,-0 -0.01,-0 -0.01,-0 -0.01,-0 -0.01,-0 -0.01,-0 -0.01,-0 -0.02,-0 -0,0 -0.01,0 -0.02,0 -0.02,-0 -0.04,-0.01 -0.05,-0.01 -0.02,-0 -0.03,-0 -0.04,-0 -0.01,0 -0.03,0 -0.04,0 -0.01,0 -0.02,0.01 -0.03,0.01l-0.01 0.01 -0.02 0.01c-0.01,0.01 -0.02,0.03 -0.01,0.04 0.01,0.02 0.02,0.03 0.05,0.05 0,0 0.01,0 0.01,0 0,0 0,0 0.01,0.01 0,0 0.01,0.01 0.01,0.01 0,0 0.01,0 0.01,0l0.05 0.01 0.08 0.02 0.18 0.05 0.13 0.03 0.11 0.04c0.06,0.02 0.12,0.04 0.18,0.07 0.06,0.03 0.11,0.06 0.16,0.09 0.12,0.08 0.21,0.17 0.27,0.28 0.06,0.11 0.09,0.22 0.09,0.33 0,0.01 0,0.02 0,0.03 0,0.01 0,0.02 0,0.03 -0.01,0.1 -0.04,0.2 -0.1,0.3 -0.06,0.1 -0.14,0.19 -0.25,0.27 -0.1,0.08 -0.23,0.14 -0.37,0.18 -0.14,0.04 -0.31,0.06 -0.51,0.06 -0.03,0 -0.07,-0 -0.11,-0 -0.04,-0 -0.08,-0 -0.11,-0.01 -0.17,-0.01 -0.32,-0.04 -0.44,-0.07 -0.12,-0.03 -0.22,-0.07 -0.3,-0.11zm-4.83 -9.38c0.09,-0.01 0.17,-0.02 0.26,-0.03 0.08,-0.01 0.16,-0.01 0.24,-0.01 0.26,0 0.49,0.04 0.71,0.11 0.21,0.08 0.4,0.19 0.55,0.33l0 0.03 0.93 -0.46c0.02,-0.01 0.04,-0.02 0.07,-0.03 0.02,-0.01 0.05,-0.01 0.08,-0.01 0.03,-0.01 0.05,-0.01 0.08,-0.01 0.02,-0 0.05,-0 0.07,-0 0.07,0 0.15,0.01 0.22,0.04 0.07,0.03 0.13,0.07 0.19,0.12 0.14,0.13 0.24,0.27 0.31,0.43 0.07,0.16 0.11,0.33 0.11,0.51l0 3.16c0,0.31 -0.1,0.56 -0.3,0.75 -0.2,0.19 -0.44,0.29 -0.71,0.29 -0.01,0 -0.01,0 -0.02,0 -0.01,0 -0.02,0 -0.03,0 -0.01,-0.01 -0.01,-0.01 -0.02,-0.01 -0.01,0 -0.02,0 -0.03,0l-0.92 -0.48 0 0.05c-0.15,0.14 -0.33,0.25 -0.53,0.32 -0.21,0.08 -0.45,0.12 -0.73,0.12 -0.09,0 -0.18,-0 -0.27,-0.01 -0.09,-0.01 -0.19,-0.02 -0.29,-0.04 -0.31,-0.05 -0.61,-0.17 -0.9,-0.35 -0.29,-0.19 -0.54,-0.43 -0.76,-0.72 -0.14,-0.21 -0.25,-0.43 -0.33,-0.67 -0.07,-0.24 -0.11,-0.49 -0.11,-0.76 0,-0.03 0,-0.05 0,-0.07 0,-0.02 0,-0.05 0,-0.07 0.03,-0.65 0.26,-1.2 0.68,-1.66 0.42,-0.46 0.91,-0.74 1.49,-0.84zm0.08 2.64c0,0.11 0.02,0.21 0.05,0.3 0.03,0.09 0.08,0.17 0.15,0.25 0.07,0.08 0.16,0.14 0.26,0.19 0.1,0.04 0.2,0.07 0.3,0.07 0.01,0 0.02,0 0.03,0 0.01,0 0.02,0 0.04,0 0.12,-0.01 0.23,-0.05 0.34,-0.11 0.11,-0.06 0.2,-0.15 0.26,-0.27 0.03,-0.04 0.05,-0.09 0.07,-0.13 0.02,-0.04 0.03,-0.09 0.04,-0.14 0.01,-0.03 0.01,-0.06 0.02,-0.09 0,-0.03 0.01,-0.05 0.01,-0.08 0,-0.01 0,-0.02 0,-0.03 0,-0.01 0,-0.02 0,-0.02 -0.01,-0.01 -0.01,-0.02 -0.01,-0.03 0,-0.01 0,-0.02 0,-0.02 -0.03,-0.16 -0.08,-0.3 -0.16,-0.41 -0.08,-0.11 -0.18,-0.19 -0.31,-0.24 -0.03,-0.01 -0.05,-0.02 -0.08,-0.03 -0.03,-0.01 -0.05,-0.01 -0.07,-0.02 -0.03,-0.01 -0.05,-0.01 -0.08,-0.01 -0.03,-0 -0.05,-0 -0.08,-0 -0.18,0.01 -0.33,0.07 -0.47,0.18 -0.14,0.12 -0.22,0.28 -0.26,0.48 0,0.01 -0,0.03 -0.01,0.04 -0,0.02 -0.01,0.03 -0.01,0.04 0,0.01 -0,0.03 -0.01,0.04 -0,0.02 -0.01,0.03 -0.01,0.04zm5.44 2.56c0,-0.01 -0,-0.01 -0.01,-0.01 -0,0 -0.01,0 -0.02,0 -0.01,0 -0.01,0 -0.02,0 -0,0 -0.01,0 -0.01,0 -0.3,0 -0.55,-0.1 -0.77,-0.29 -0.21,-0.19 -0.32,-0.43 -0.32,-0.72l0 -3.16c0,-0.29 0.11,-0.54 0.33,-0.74 0.22,-0.2 0.49,-0.31 0.8,-0.31l1.05 0.66 0 -0.05 0.06 -0.07 0.12 -0.12c0.07,-0.08 0.15,-0.14 0.22,-0.19 0.07,-0.05 0.14,-0.09 0.22,-0.12 0.07,-0.03 0.14,-0.05 0.21,-0.07 0.07,-0.02 0.14,-0.02 0.22,-0.02 0.02,0 0.04,0 0.07,0 0.02,0 0.05,0 0.08,0.01 0.03,0 0.05,0 0.08,0.01 0.02,0.01 0.05,0.01 0.07,0.02 0.2,0.04 0.36,0.13 0.5,0.27 0.14,0.13 0.23,0.29 0.26,0.46 0.01,0.04 0.02,0.08 0.02,0.11 0,0.04 0,0.08 0,0.11 0,0.22 -0.08,0.41 -0.25,0.57 -0.17,0.16 -0.43,0.29 -0.79,0.4 -0.02,0.01 -0.04,0.01 -0.06,0.02 -0.02,0.01 -0.03,0.01 -0.05,0.02 -0.01,0.01 -0.03,0.01 -0.05,0.02 -0.02,0.01 -0.04,0.01 -0.06,0.02 -0.06,0.03 -0.12,0.05 -0.17,0.07 -0.05,0.02 -0.1,0.04 -0.14,0.07 -0.22,0.11 -0.36,0.23 -0.42,0.37 -0.06,0.14 -0.09,0.36 -0.08,0.66l0 0.91c0.01,0.3 -0.1,0.56 -0.32,0.76 -0.22,0.21 -0.49,0.31 -0.8,0.32l0 0.01zm8.98 -2.94c0,0.01 0,0.01 0,0.02 0,0.01 0,0.02 0,0.02 0,0.01 0,0.01 0,0.02 0,0.01 0,0.02 0,0.02 0,0.26 -0.07,0.44 -0.21,0.56 -0.14,0.12 -0.38,0.17 -0.71,0.17l-2.64 0c0.02,0.02 0.04,0.04 0.06,0.06 0.02,0.02 0.04,0.04 0.06,0.06 0.01,0.01 0.02,0.01 0.03,0.02 0.01,0.01 0.02,0.02 0.03,0.03 0.12,0.08 0.25,0.15 0.41,0.19 0.16,0.05 0.35,0.07 0.58,0.07 0.01,0 0.03,0 0.05,0 0.02,0 0.03,-0 0.05,-0.01 0.01,0 0.03,0 0.05,0 0.02,0 0.03,0 0.05,0 0.09,-0.01 0.21,-0.02 0.34,-0.04 0.13,-0.02 0.28,-0.05 0.45,-0.09 0.12,-0.03 0.22,-0.05 0.3,-0.07 0.08,-0.01 0.15,-0.02 0.2,-0.02 0.01,0 0.02,0 0.03,0 0.01,0 0.01,0 0.02,0 0.24,0 0.45,0.07 0.6,0.22 0.16,0.15 0.24,0.32 0.24,0.52 0,0.01 0,0.03 0,0.04 0,0.02 -0,0.03 -0.01,0.04 0,0.02 -0,0.04 -0.01,0.05 -0,0.02 -0.01,0.03 -0.02,0.04 -0.05,0.17 -0.15,0.31 -0.29,0.43 -0.15,0.12 -0.39,0.23 -0.72,0.34 -0.12,0.03 -0.26,0.06 -0.4,0.09 -0.15,0.03 -0.3,0.05 -0.47,0.07 -0.12,0.01 -0.23,0.02 -0.34,0.03 -0.11,0.01 -0.22,0.01 -0.33,0.01 -1.02,-0.01 -1.83,-0.26 -2.43,-0.76 -0.6,-0.5 -0.89,-1.12 -0.88,-1.85 0,-0.01 0,-0.01 0,-0.02 0,-0.01 0,-0.01 0,-0.02 0,-0.01 0,-0.01 0,-0.02 0,-0.01 0,-0.01 0,-0.02 0.02,-0.71 0.31,-1.31 0.88,-1.8 0.57,-0.49 1.28,-0.74 2.14,-0.73 0.28,0.01 0.54,0.04 0.8,0.1 0.25,0.06 0.49,0.15 0.72,0.27 0.3,0.16 0.57,0.37 0.78,0.61 0.22,0.24 0.38,0.5 0.49,0.75 0.03,0.09 0.06,0.18 0.08,0.27 0.02,0.09 0.03,0.19 0.04,0.27zm-3.55 -0.19l1.21 0c0,-0.01 0,-0.03 0,-0.04 0,-0.02 -0,-0.03 -0.01,-0.05 -0.03,-0.14 -0.09,-0.26 -0.2,-0.33 -0.11,-0.08 -0.23,-0.12 -0.38,-0.12 -0.01,0 -0.03,0 -0.05,0 -0.02,0 -0.04,0 -0.06,0.01 -0.11,0.03 -0.2,0.07 -0.29,0.15 -0.08,0.07 -0.15,0.17 -0.2,0.31 -0.01,0.01 -0.01,0.03 -0.02,0.04 -0,0.02 -0.01,0.03 -0.01,0.04zm5.16 5.39c-0.3,-0.01 -0.57,-0.12 -0.78,-0.32 -0.22,-0.2 -0.33,-0.44 -0.33,-0.73l0 -5.36c0,-0.14 0.03,-0.28 0.09,-0.4 0.06,-0.13 0.14,-0.24 0.24,-0.34 0.12,-0.11 0.24,-0.19 0.38,-0.24 0.14,-0.05 0.28,-0.08 0.43,-0.08 0.01,0 0.03,0 0.05,0 0.02,0 0.03,0 0.05,0 0.13,0.01 0.25,0.04 0.38,0.09 0.12,0.05 0.23,0.12 0.33,0.22 0.11,0.1 0.19,0.22 0.25,0.34 0.06,0.13 0.09,0.27 0.09,0.41l0 5.35c0,0.29 -0.11,0.54 -0.34,0.74 -0.22,0.2 -0.49,0.3 -0.81,0.3l0 0.01zm-0.84 -8.02c-0.11,-0.11 -0.19,-0.23 -0.25,-0.37 -0.06,-0.14 -0.09,-0.29 -0.09,-0.44 0,-0.01 0,-0.01 0,-0.01 0,-0 0,-0.01 0,-0.01 0.01,-0.14 0.04,-0.28 0.11,-0.42 0.06,-0.13 0.15,-0.26 0.26,-0.36 0.1,-0.09 0.22,-0.17 0.34,-0.22 0.13,-0.05 0.25,-0.08 0.38,-0.09 0.02,0 0.04,0 0.06,0 0.02,0 0.03,0 0.05,0 0.14,0 0.28,0.02 0.42,0.07 0.14,0.05 0.26,0.12 0.37,0.22 0.14,0.11 0.24,0.24 0.3,0.39 0.06,0.15 0.1,0.3 0.1,0.46 0,0.14 -0.03,0.28 -0.08,0.41 -0.05,0.13 -0.14,0.26 -0.24,0.37 -0.12,0.12 -0.25,0.21 -0.4,0.27 -0.15,0.06 -0.31,0.09 -0.46,0.08 -0.16,0 -0.31,-0.03 -0.46,-0.08 -0.15,-0.06 -0.28,-0.14 -0.4,-0.26zm4.66 0.57c0.09,-0.01 0.17,-0.02 0.26,-0.03 0.08,-0.01 0.16,-0.01 0.24,-0.01 0.26,0 0.49,0.04 0.71,0.11 0.21,0.08 0.4,0.19 0.55,0.33l0 0.03 0.93 -0.46c0.02,-0.01 0.04,-0.02 0.07,-0.03 0.02,-0.01 0.05,-0.01 0.08,-0.01 0.03,-0.01 0.05,-0.01 0.08,-0.01 0.02,-0 0.05,-0 0.07,-0 0.07,0 0.15,0.01 0.22,0.04 0.07,0.03 0.13,0.07 0.19,0.12 0.14,0.13 0.24,0.27 0.31,0.43 0.07,0.16 0.11,0.33 0.11,0.51l0 3.16c0,0.31 -0.1,0.56 -0.3,0.75 -0.2,0.19 -0.44,0.29 -0.71,0.29 -0.01,0 -0.01,0 -0.02,0 -0.01,0 -0.02,0 -0.03,0 -0.01,-0.01 -0.01,-0.01 -0.02,-0.01 -0.01,0 -0.02,0 -0.03,0l-0.92 -0.48 0 0.05c-0.15,0.14 -0.33,0.25 -0.53,0.32 -0.21,0.08 -0.45,0.12 -0.73,0.12 -0.09,0 -0.18,-0 -0.27,-0.01 -0.09,-0.01 -0.19,-0.02 -0.29,-0.04 -0.31,-0.05 -0.61,-0.17 -0.9,-0.35 -0.29,-0.19 -0.54,-0.43 -0.76,-0.72 -0.14,-0.21 -0.25,-0.43 -0.33,-0.67 -0.07,-0.24 -0.11,-0.49 -0.11,-0.76 0,-0.03 0,-0.05 0,-0.07 0,-0.02 0,-0.05 0,-0.07 0.03,-0.65 0.26,-1.2 0.68,-1.66 0.42,-0.46 0.91,-0.74 1.49,-0.84zm0.08 2.64c0,0.11 0.02,0.21 0.05,0.3 0.03,0.09 0.08,0.17 0.15,0.25 0.07,0.08 0.16,0.14 0.26,0.19 0.1,0.04 0.2,0.07 0.3,0.07 0.01,0 0.02,0 0.03,0 0.01,0 0.02,0 0.04,0 0.12,-0.01 0.23,-0.05 0.34,-0.11 0.11,-0.06 0.2,-0.15 0.26,-0.27 0.03,-0.04 0.05,-0.09 0.07,-0.13 0.02,-0.04 0.03,-0.09 0.04,-0.14 0.01,-0.03 0.01,-0.06 0.02,-0.09 0,-0.03 0.01,-0.05 0.01,-0.08 0,-0.01 0,-0.02 0,-0.03 0,-0.01 0,-0.02 0,-0.02 -0.01,-0.01 -0.01,-0.02 -0.01,-0.03 0,-0.01 0,-0.02 0,-0.02 -0.03,-0.16 -0.08,-0.3 -0.16,-0.41 -0.08,-0.11 -0.18,-0.19 -0.31,-0.24 -0.03,-0.01 -0.05,-0.02 -0.08,-0.03 -0.03,-0.01 -0.05,-0.01 -0.07,-0.02 -0.03,-0.01 -0.05,-0.01 -0.08,-0.01 -0.03,-0 -0.05,-0 -0.08,-0 -0.18,0.01 -0.33,0.07 -0.47,0.18 -0.14,0.12 -0.22,0.28 -0.26,0.48 0,0.01 -0,0.03 -0.01,0.04 -0,0.02 -0.01,0.03 -0.01,0.04 0,0.01 -0,0.03 -0.01,0.04 -0,0.02 -0.01,0.03 -0.01,0.04zm7.23 2.6c-0.85,-0.01 -1.56,-0.26 -2.13,-0.77 -0.58,-0.51 -0.87,-1.12 -0.87,-1.85 -0.01,-0.73 0.28,-1.35 0.85,-1.88 0.58,-0.52 1.29,-0.79 2.15,-0.79 0.39,0 0.76,0.06 1.1,0.17 0.34,0.11 0.65,0.28 0.92,0.5 0.32,0.25 0.56,0.54 0.72,0.87 0.16,0.33 0.25,0.66 0.26,1.01 0,0.01 0,0.03 0,0.04 0,0.02 0,0.03 0,0.05 0,0.45 -0.12,0.87 -0.37,1.29 -0.25,0.41 -0.61,0.74 -1.09,0.99 -0.22,0.12 -0.47,0.21 -0.73,0.27 -0.26,0.06 -0.53,0.09 -0.82,0.09l0 0.01zm-0.79 -2.63c-0.01,0.26 0.07,0.48 0.23,0.64 0.16,0.16 0.35,0.24 0.56,0.24 0.03,0 0.05,-0 0.08,-0 0.02,-0 0.05,-0.01 0.08,-0.01 0.18,-0.03 0.32,-0.1 0.42,-0.21 0.1,-0.11 0.17,-0.26 0.2,-0.46 0.01,-0.03 0.01,-0.06 0.02,-0.1 0,-0.03 0.01,-0.07 0.01,-0.1 0,-0.09 -0.01,-0.17 -0.04,-0.25 -0.02,-0.08 -0.06,-0.15 -0.1,-0.21 -0.08,-0.13 -0.18,-0.22 -0.29,-0.28 -0.11,-0.06 -0.24,-0.09 -0.37,-0.09 -0.14,0 -0.26,0.03 -0.37,0.09 -0.11,0.06 -0.21,0.15 -0.29,0.28 -0.04,0.06 -0.07,0.13 -0.1,0.21 -0.02,0.08 -0.04,0.16 -0.04,0.26z"/>
   <path class="fil2" d="M18.24 11.23c0.04,-0.02 0.08,-0.04 0.13,-0.05 0.04,-0.02 0.09,-0.03 0.14,-0.03 0.05,-0.01 0.09,-0.02 0.14,-0.02 0.04,-0 0.09,-0 0.13,-0 0.24,0 0.46,0.06 0.66,0.19 0.2,0.13 0.34,0.3 0.43,0.52l1.19 3.05 1.2 -3.05c0.09,-0.22 0.23,-0.39 0.43,-0.52 0.2,-0.13 0.42,-0.19 0.66,-0.19 0.09,0 0.17,0.01 0.26,0.03 0.08,0.02 0.17,0.05 0.26,0.08 0.22,0.1 0.38,0.24 0.5,0.41 0.12,0.17 0.17,0.36 0.17,0.55 0,0.07 -0.01,0.14 -0.02,0.2 -0.01,0.07 -0.04,0.13 -0.07,0.2l-2.28 4.74c-0.09,0.2 -0.2,0.35 -0.32,0.46 -0.12,0.11 -0.25,0.18 -0.41,0.22 -0.07,0.02 -0.14,0.03 -0.21,0.04 -0.07,0.01 -0.14,0.01 -0.21,0.01 -0.24,0 -0.45,-0.06 -0.63,-0.18 -0.18,-0.12 -0.33,-0.31 -0.45,-0.55l-2.28 -4.74c-0.01,-0.03 -0.02,-0.06 -0.03,-0.1 -0.01,-0.03 -0.02,-0.07 -0.03,-0.11 -0.01,-0.03 -0.01,-0.06 -0.02,-0.1 -0,-0.03 -0.01,-0.07 -0.01,-0.1 0,-0.2 0.06,-0.39 0.17,-0.56 0.12,-0.17 0.28,-0.3 0.49,-0.41zm31.96 -0.16c0,0.25 -0.1,0.48 -0.3,0.69 -0.2,0.2 -0.46,0.31 -0.79,0.31 -0.19,0 -0.49,-0.08 -0.91,-0.25 -0.42,-0.16 -0.65,-0.25 -0.7,-0.25 -0.13,0 -0.28,0.07 -0.44,0.22 -0.16,0.14 -0.29,0.22 -0.38,0.22 -0.11,0 -0.19,-0.04 -0.24,-0.11 -0.05,-0.07 -0.08,-0.17 -0.08,-0.28 0,-0.25 0.1,-0.48 0.29,-0.69 0.2,-0.2 0.45,-0.31 0.75,-0.31 0.23,0 0.53,0.08 0.92,0.25 0.39,0.16 0.63,0.25 0.73,0.25 0.13,0 0.28,-0.07 0.44,-0.22 0.16,-0.14 0.29,-0.22 0.38,-0.22 0.11,0 0.19,0.04 0.24,0.11 0.05,0.07 0.08,0.17 0.08,0.28zm-23.61 8.74c0.01,0 0.03,0.01 0.04,0.01 0.02,0.01 0.03,0.01 0.04,0.02l0 -0.74c0,-0.15 0.06,-0.27 0.17,-0.38 0.11,-0.1 0.25,-0.15 0.41,-0.15 0.16,0 0.3,0.06 0.41,0.16 0.11,0.1 0.17,0.23 0.17,0.38l0 2.75c0,0.16 -0.05,0.29 -0.16,0.38 -0.11,0.1 -0.23,0.15 -0.36,0.15 -0,0 -0.01,0 -0.01,0 -0.01,0 -0.01,0 -0.01,0 -0,-0 -0.01,-0 -0.01,-0 -0.01,0 -0.01,0 -0.01,0l-0.48 -0.26 0 0.02c-0.08,0.08 -0.17,0.14 -0.28,0.19 -0.11,0.04 -0.23,0.07 -0.37,0.07 -0.04,0 -0.08,-0 -0.12,-0.01 -0.04,-0 -0.09,-0.01 -0.13,-0.02 -0.27,-0.04 -0.5,-0.16 -0.7,-0.35 -0.2,-0.19 -0.33,-0.43 -0.39,-0.71 -0,-0.02 -0.01,-0.05 -0.01,-0.07 -0,-0.02 -0.01,-0.05 -0.01,-0.07 0,-0.02 -0,-0.05 -0,-0.07 -0,-0.02 -0,-0.04 -0,-0.07 0,-0.05 0,-0.1 0.01,-0.15 0.01,-0.05 0.01,-0.1 0.03,-0.15 0.05,-0.19 0.13,-0.36 0.24,-0.5 0.11,-0.15 0.25,-0.26 0.42,-0.35 0.1,-0.05 0.2,-0.1 0.31,-0.13 0.11,-0.03 0.22,-0.04 0.32,-0.04 0.08,0 0.16,0.01 0.24,0.02 0.08,0.01 0.17,0.04 0.25,0.07zm-0.68 1.25c-0,0.13 0.03,0.23 0.11,0.31 0.08,0.08 0.17,0.12 0.28,0.12 0,0 0.01,0 0.01,0 0,0 0,0 0.01,0 0.1,-0 0.18,-0.03 0.25,-0.09 0.07,-0.06 0.11,-0.15 0.13,-0.26 0,-0.01 0,-0.01 0,-0.02 0,-0.01 0,-0.01 0,-0.02 0,-0.01 0,-0.01 0,-0.02 0,-0.01 0,-0.01 0,-0.02 0,-0.01 0,-0.01 0,-0.02 0,-0.01 0,-0.01 0,-0.02 0,-0.01 -0,-0.01 -0,-0.02 -0,-0.01 -0,-0.01 -0,-0.02 -0.02,-0.09 -0.05,-0.17 -0.11,-0.22 -0.05,-0.05 -0.12,-0.09 -0.2,-0.11 -0.01,-0 -0.03,-0.01 -0.04,-0.01 -0.02,-0 -0.03,-0 -0.04,-0 -0.1,0 -0.18,0.03 -0.25,0.09 -0.07,0.06 -0.11,0.15 -0.14,0.26 0,0.01 -0,0.01 -0,0.02 -0,0.01 -0,0.01 -0,0.02 0,0.01 0,0.01 0,0.02 0,0.01 0,0.01 0,0.02zm3.28 -1.32c0.05,-0.01 0.09,-0.01 0.13,-0.02 0.04,-0 0.08,-0.01 0.12,-0.01 0.13,0 0.25,0.02 0.36,0.06 0.11,0.04 0.2,0.09 0.28,0.17l0 0.01 0.48 -0.24c0.01,-0.01 0.02,-0.01 0.03,-0.02 0.01,-0 0.03,-0.01 0.04,-0.01 0.01,-0 0.03,-0.01 0.04,-0.01 0.01,-0 0.02,-0 0.03,-0 0.04,0 0.08,0.01 0.11,0.02 0.04,0.01 0.07,0.03 0.1,0.06 0.07,0.06 0.12,0.14 0.16,0.22 0.04,0.08 0.05,0.17 0.05,0.26l0 1.62c0,0.16 -0.05,0.29 -0.16,0.39 -0.1,0.1 -0.23,0.15 -0.36,0.15 -0,0 -0.01,0 -0.01,0 -0,0 -0.01,0 -0.02,0 -0,-0 -0.01,-0 -0.01,-0 -0,0 -0.01,0 -0.02,0l-0.47 -0.25 0 0.02c-0.08,0.07 -0.17,0.13 -0.27,0.17 -0.11,0.04 -0.23,0.06 -0.37,0.06 -0.05,0 -0.09,-0 -0.14,-0.01 -0.05,-0 -0.1,-0.01 -0.15,-0.02 -0.16,-0.03 -0.31,-0.09 -0.46,-0.18 -0.15,-0.09 -0.28,-0.22 -0.39,-0.37 -0.07,-0.11 -0.13,-0.22 -0.17,-0.35 -0.04,-0.12 -0.06,-0.25 -0.06,-0.39 0,-0.01 0,-0.02 0,-0.04 0,-0.01 0,-0.02 0,-0.04 0.02,-0.33 0.13,-0.62 0.35,-0.85 0.21,-0.24 0.47,-0.38 0.76,-0.43zm0.04 1.35c0,0.06 0.01,0.11 0.03,0.15 0.02,0.04 0.04,0.09 0.08,0.13 0.04,0.04 0.08,0.07 0.13,0.1 0.05,0.02 0.1,0.03 0.15,0.03 0,0 0.01,0 0.01,0 0.01,0 0.01,0 0.02,0 0.06,-0.01 0.12,-0.03 0.17,-0.06 0.06,-0.03 0.1,-0.08 0.14,-0.14 0.01,-0.02 0.03,-0.04 0.03,-0.07 0.01,-0.02 0.01,-0.05 0.02,-0.07 0,-0.02 0.01,-0.03 0.01,-0.05 0,-0.01 0,-0.03 0,-0.04 0,-0.01 0,-0.01 0,-0.02 0,-0.01 0,-0.01 0,-0.01 -0,-0.01 -0.01,-0.01 -0.01,-0.02 0,-0 0,-0.01 0,-0.01 -0.01,-0.08 -0.04,-0.15 -0.08,-0.21 -0.04,-0.05 -0.09,-0.09 -0.16,-0.12 -0.01,-0.01 -0.03,-0.01 -0.04,-0.01 -0.01,-0 -0.03,-0.01 -0.04,-0.01 -0.01,-0 -0.03,-0.01 -0.04,-0.01 -0.01,-0 -0.03,-0 -0.04,-0 -0.09,0 -0.17,0.03 -0.24,0.09 -0.07,0.06 -0.11,0.14 -0.14,0.25 0,0.01 -0,0.01 -0,0.02 -0,0.01 -0,0.02 -0,0.02 0,0.01 -0,0.01 -0,0.02 -0,0.01 -0,0.02 -0,0.02zm2.44 1.13c-0.12,-0.06 -0.2,-0.13 -0.26,-0.2 -0.05,-0.07 -0.08,-0.14 -0.08,-0.21 0,-0.02 0,-0.04 0.01,-0.06 0,-0.02 0.01,-0.04 0.02,-0.06 0.03,-0.08 0.08,-0.15 0.16,-0.2 0.08,-0.05 0.18,-0.07 0.29,-0.07 0.04,0 0.08,0 0.12,0.01 0.04,0.01 0.09,0.02 0.13,0.03l0.1 0.03 0.07 0.02c0.08,0.03 0.14,0.05 0.19,0.06 0.05,0.01 0.09,0.02 0.13,0.02l0.03 0 0.06 0c0.03,0 0.05,-0 0.06,-0.01 0.01,-0.01 0.02,-0.02 0.03,-0.03 0,-0.01 0.01,-0.01 0.01,-0.01 0,-0 0,-0.01 0,-0.01 0,-0.02 -0.01,-0.03 -0.02,-0.04 -0.01,-0.01 -0.03,-0.03 -0.05,-0.04 -0,0 -0.01,-0 -0.01,-0 -0,-0 -0.01,-0 -0.01,-0.01 -0,-0 -0.01,-0.01 -0.01,-0.01 -0,-0 -0.01,-0 -0.01,-0l-0.05 -0.01 -0.1 -0.02 -0.14 -0.04 -0.1 -0.02c-0.24,-0.06 -0.42,-0.13 -0.53,-0.2 -0.11,-0.07 -0.19,-0.17 -0.24,-0.29 -0.02,-0.05 -0.04,-0.09 -0.04,-0.14 -0.01,-0.04 -0.01,-0.09 -0.01,-0.14 0,-0.22 0.11,-0.42 0.34,-0.59 0.23,-0.17 0.54,-0.26 0.93,-0.26 0.01,0 0.01,0 0.02,0 0,0 0.01,0 0.02,0 0,0 0.01,0 0.01,0 0.01,0 0.01,0 0.01,0 0.09,0 0.18,0.01 0.26,0.02 0.08,0.01 0.15,0.03 0.22,0.04 0.13,0.03 0.24,0.07 0.32,0.12 0.08,0.05 0.14,0.09 0.18,0.14 0.02,0.03 0.04,0.06 0.05,0.1 0.01,0.03 0.02,0.07 0.02,0.1 0,0.07 -0.03,0.14 -0.08,0.21 -0.05,0.07 -0.12,0.11 -0.21,0.13 -0.02,0 -0.04,0.01 -0.06,0.01 -0.02,0 -0.04,0 -0.07,0 -0.03,0 -0.07,-0 -0.11,-0.01 -0.04,-0.01 -0.09,-0.02 -0.15,-0.03l-0.16 -0.03 -0.08 -0.02 -0.08 -0.01c-0,0 -0.01,-0 -0.01,-0 -0.01,-0 -0.01,-0 -0.01,-0 -0.01,-0 -0.01,-0 -0.02,-0 -0,0 -0.01,0 -0.02,0 -0.02,-0 -0.04,-0.01 -0.05,-0.01 -0.02,-0 -0.03,-0 -0.04,-0 -0.01,0 -0.03,0 -0.04,0 -0.01,0 -0.02,0.01 -0.03,0.01l-0.01 0.01 -0.02 0.01c-0.01,0.01 -0.02,0.03 -0.01,0.04 0.01,0.02 0.02,0.03 0.05,0.05 0,0 0.01,0 0.01,0 0,0 0,0 0.01,0.01 0,0 0.01,0.01 0.01,0.01 0,0 0.01,0 0.01,0l0.05 0.01 0.08 0.02 0.18 0.05 0.13 0.03 0.11 0.04c0.06,0.02 0.12,0.04 0.18,0.07 0.06,0.03 0.11,0.06 0.16,0.09 0.12,0.08 0.21,0.17 0.27,0.28 0.06,0.11 0.09,0.22 0.09,0.33 0,0.01 0,0.02 0,0.03 0,0.01 0,0.02 0,0.03 -0.01,0.1 -0.04,0.2 -0.1,0.3 -0.06,0.1 -0.14,0.19 -0.25,0.27 -0.1,0.08 -0.23,0.14 -0.37,0.18 -0.14,0.04 -0.31,0.06 -0.51,0.06 -0.03,0 -0.07,-0 -0.11,-0 -0.04,-0 -0.08,-0 -0.11,-0.01 -0.17,-0.01 -0.32,-0.04 -0.44,-0.07 -0.12,-0.03 -0.22,-0.07 -0.3,-0.11zm-4.83 -9.38c0.09,-0.01 0.17,-0.02 0.26,-0.03 0.08,-0.01 0.16,-0.01 0.24,-0.01 0.26,0 0.49,0.04 0.71,0.11 0.21,0.08 0.4,0.19 0.55,0.33l0 0.03 0.93 -0.46c0.02,-0.01 0.04,-0.02 0.07,-0.03 0.02,-0.01 0.05,-0.01 0.08,-0.01 0.03,-0.01 0.05,-0.01 0.08,-0.01 0.02,-0 0.05,-0 0.07,-0 0.07,0 0.15,0.01 0.22,0.04 0.07,0.03 0.13,0.07 0.19,0.12 0.14,0.13 0.24,0.27 0.31,0.43 0.07,0.16 0.11,0.33 0.11,0.51l0 3.16c0,0.31 -0.1,0.56 -0.3,0.75 -0.2,0.19 -0.44,0.29 -0.71,0.29 -0.01,0 -0.01,0 -0.02,0 -0.01,0 -0.02,0 -0.03,0 -0.01,-0.01 -0.01,-0.01 -0.02,-0.01 -0.01,0 -0.02,0 -0.03,0l-0.92 -0.48 0 0.05c-0.15,0.14 -0.33,0.25 -0.53,0.32 -0.21,0.08 -0.45,0.12 -0.73,0.12 -0.09,0 -0.18,-0 -0.27,-0.01 -0.09,-0.01 -0.19,-0.02 -0.29,-0.04 -0.31,-0.05 -0.61,-0.17 -0.9,-0.35 -0.29,-0.19 -0.54,-0.43 -0.76,-0.72 -0.14,-0.21 -0.25,-0.43 -0.33,-0.67 -0.07,-0.24 -0.11,-0.49 -0.11,-0.76 0,-0.03 0,-0.05 0,-0.07 0,-0.02 0,-0.05 0,-0.07 0.03,-0.65 0.26,-1.2 0.68,-1.66 0.42,-0.46 0.91,-0.74 1.49,-0.84zm0.08 2.64c0,0.11 0.02,0.21 0.05,0.3 0.03,0.09 0.08,0.17 0.15,0.25 0.07,0.08 0.16,0.14 0.26,0.19 0.1,0.04 0.2,0.07 0.3,0.07 0.01,0 0.02,0 0.03,0 0.01,0 0.02,0 0.04,0 0.12,-0.01 0.23,-0.05 0.34,-0.11 0.11,-0.06 0.2,-0.15 0.26,-0.27 0.03,-0.04 0.05,-0.09 0.07,-0.13 0.02,-0.04 0.03,-0.09 0.04,-0.14 0.01,-0.03 0.01,-0.06 0.02,-0.09 0,-0.03 0.01,-0.05 0.01,-0.08 0,-0.01 0,-0.02 0,-0.03 0,-0.01 0,-0.02 0,-0.02 -0.01,-0.01 -0.01,-0.02 -0.01,-0.03 0,-0.01 0,-0.02 0,-0.02 -0.03,-0.16 -0.08,-0.3 -0.16,-0.4 -0.08,-0.11 -0.18,-0.19 -0.31,-0.24 -0.03,-0.01 -0.05,-0.02 -0.08,-0.03 -0.03,-0.01 -0.05,-0.01 -0.07,-0.02 -0.03,-0.01 -0.05,-0.01 -0.08,-0.01 -0.03,-0 -0.05,-0 -0.08,-0 -0.18,0.01 -0.33,0.07 -0.47,0.18 -0.14,0.12 -0.22,0.28 -0.26,0.49 0,0.01 -0,0.03 -0.01,0.04 -0,0.02 -0.01,0.03 -0.01,0.04 0,0.01 -0,0.03 -0.01,0.04 -0,0.02 -0.01,0.03 -0.01,0.04zm5.44 2.56c0,-0.01 -0,-0.01 -0.01,-0.01 -0,0 -0.01,0 -0.02,0 -0.01,0 -0.01,0 -0.02,0 -0,0 -0.01,0 -0.01,0 -0.3,0 -0.55,-0.1 -0.77,-0.29 -0.21,-0.19 -0.32,-0.43 -0.32,-0.72l0 -3.16c0,-0.29 0.11,-0.54 0.33,-0.74 0.22,-0.2 0.49,-0.31 0.8,-0.31l1.05 0.66 0 -0.05 0.06 -0.07 0.12 -0.12c0.07,-0.08 0.15,-0.14 0.22,-0.19 0.07,-0.05 0.14,-0.09 0.22,-0.12 0.07,-0.03 0.14,-0.05 0.21,-0.07 0.07,-0.02 0.14,-0.02 0.22,-0.02 0.02,0 0.04,0 0.07,0 0.02,0 0.05,0 0.08,0.01 0.03,0 0.05,0 0.08,0.01 0.02,0.01 0.05,0.01 0.07,0.02 0.2,0.04 0.36,0.13 0.5,0.27 0.14,0.14 0.23,0.29 0.26,0.46 0.01,0.04 0.02,0.08 0.02,0.11 0,0.04 0,0.08 0,0.11 0,0.22 -0.08,0.41 -0.25,0.57 -0.17,0.16 -0.43,0.29 -0.79,0.4 -0.02,0.01 -0.04,0.01 -0.06,0.02 -0.02,0.01 -0.03,0.01 -0.05,0.02 -0.01,0.01 -0.03,0.01 -0.05,0.02 -0.02,0.01 -0.04,0.01 -0.06,0.02 -0.06,0.03 -0.12,0.05 -0.17,0.07 -0.05,0.02 -0.1,0.04 -0.14,0.07 -0.22,0.11 -0.36,0.23 -0.42,0.37 -0.06,0.14 -0.09,0.36 -0.08,0.66l0 0.91c0.01,0.3 -0.1,0.56 -0.32,0.76 -0.22,0.21 -0.49,0.31 -0.8,0.32l0 0.01zm8.98 -2.94c0,0.01 0,0.01 0,0.02 0,0.01 0,0.02 0,0.02 0,0.01 0,0.01 0,0.02 0,0.01 0,0.02 0,0.02 0,0.26 -0.07,0.44 -0.21,0.56 -0.14,0.12 -0.38,0.17 -0.71,0.17l-2.64 0c0.02,0.02 0.04,0.04 0.06,0.06 0.02,0.02 0.04,0.04 0.06,0.06 0.01,0.01 0.02,0.01 0.03,0.02 0.01,0.01 0.02,0.02 0.03,0.03 0.12,0.08 0.25,0.15 0.41,0.19 0.16,0.05 0.35,0.07 0.58,0.07 0.01,0 0.03,0 0.05,0 0.02,0 0.03,-0 0.05,-0.01 0.01,0 0.03,0 0.05,0 0.02,0 0.03,0 0.05,0 0.09,-0.01 0.21,-0.02 0.34,-0.04 0.13,-0.02 0.28,-0.05 0.45,-0.09 0.12,-0.03 0.22,-0.05 0.3,-0.07 0.08,-0.01 0.15,-0.02 0.2,-0.02 0.01,0 0.02,0 0.03,0 0.01,0 0.01,0 0.02,0 0.24,0 0.45,0.07 0.6,0.22 0.16,0.15 0.24,0.32 0.24,0.52 0,0.01 0,0.03 0,0.04 0,0.02 -0,0.03 -0.01,0.04 0,0.02 -0,0.04 -0.01,0.05 -0,0.02 -0.01,0.03 -0.02,0.04 -0.05,0.17 -0.15,0.31 -0.29,0.43 -0.15,0.12 -0.39,0.23 -0.72,0.34 -0.12,0.03 -0.26,0.06 -0.4,0.09 -0.15,0.03 -0.3,0.05 -0.47,0.07 -0.12,0.01 -0.23,0.02 -0.34,0.03 -0.11,0.01 -0.22,0.01 -0.33,0.01 -1.02,-0.01 -1.83,-0.26 -2.43,-0.76 -0.6,-0.5 -0.89,-1.12 -0.88,-1.85 0,-0.01 0,-0.01 0,-0.02 0,-0.01 0,-0.01 0,-0.02 0,-0.01 0,-0.01 0,-0.02 0,-0.01 0,-0.01 0,-0.02 0.02,-0.71 0.32,-1.31 0.88,-1.8 0.57,-0.49 1.28,-0.74 2.14,-0.73 0.28,0.01 0.54,0.04 0.8,0.1 0.25,0.06 0.49,0.15 0.72,0.27 0.3,0.16 0.57,0.37 0.78,0.61 0.22,0.24 0.38,0.5 0.49,0.75 0.03,0.09 0.06,0.18 0.08,0.27 0.02,0.09 0.03,0.19 0.04,0.27zm-3.55 -0.19l1.21 0c0,-0.01 0,-0.03 0,-0.04 0,-0.02 -0,-0.03 -0.01,-0.05 -0.03,-0.14 -0.09,-0.26 -0.2,-0.33 -0.11,-0.08 -0.23,-0.12 -0.38,-0.12 -0.01,0 -0.03,0 -0.05,0 -0.02,0 -0.04,0 -0.06,0.01 -0.11,0.03 -0.2,0.07 -0.29,0.15 -0.08,0.07 -0.15,0.17 -0.2,0.31 -0.01,0.01 -0.01,0.03 -0.02,0.04 -0,0.02 -0.01,0.03 -0.01,0.04zm5.16 5.39c-0.3,-0.01 -0.57,-0.12 -0.78,-0.32 -0.22,-0.2 -0.33,-0.44 -0.33,-0.73l0 -5.36c0,-0.14 0.03,-0.28 0.09,-0.41 0.06,-0.13 0.14,-0.24 0.24,-0.34 0.12,-0.11 0.24,-0.19 0.38,-0.24 0.14,-0.05 0.28,-0.08 0.43,-0.08 0.01,0 0.03,0 0.05,0 0.02,0 0.03,0 0.05,0 0.13,0.01 0.25,0.04 0.38,0.09 0.12,0.05 0.23,0.12 0.33,0.22 0.11,0.1 0.19,0.22 0.25,0.34 0.06,0.13 0.09,0.27 0.09,0.41l0 5.35c0,0.29 -0.11,0.54 -0.34,0.74 -0.22,0.2 -0.49,0.3 -0.81,0.3l0 0.01zm-0.84 -8.02c-0.11,-0.11 -0.19,-0.23 -0.25,-0.37 -0.06,-0.14 -0.09,-0.29 -0.09,-0.44 0,-0.01 0,-0.01 0,-0.01 0,-0 0,-0.01 0,-0.01 0.01,-0.14 0.04,-0.28 0.11,-0.42 0.06,-0.14 0.15,-0.26 0.26,-0.36 0.1,-0.09 0.22,-0.17 0.34,-0.22 0.13,-0.05 0.25,-0.08 0.38,-0.09 0.02,0 0.04,0 0.06,0 0.02,0 0.03,0 0.05,0 0.14,0 0.28,0.02 0.42,0.07 0.14,0.05 0.26,0.12 0.37,0.22 0.14,0.11 0.24,0.24 0.3,0.39 0.06,0.15 0.1,0.3 0.1,0.46 0,0.14 -0.03,0.28 -0.08,0.41 -0.05,0.13 -0.14,0.26 -0.24,0.37 -0.12,0.12 -0.25,0.21 -0.4,0.27 -0.15,0.06 -0.31,0.09 -0.46,0.08 -0.16,0 -0.31,-0.03 -0.46,-0.08 -0.15,-0.06 -0.28,-0.14 -0.4,-0.26zm4.66 0.57c0.09,-0.01 0.17,-0.02 0.26,-0.03 0.08,-0.01 0.16,-0.01 0.24,-0.01 0.26,0 0.49,0.04 0.71,0.11 0.21,0.08 0.4,0.19 0.55,0.33l0 0.03 0.94 -0.46c0.02,-0.01 0.04,-0.02 0.07,-0.03 0.02,-0.01 0.05,-0.01 0.08,-0.01 0.03,-0.01 0.05,-0.01 0.08,-0.01 0.02,-0 0.05,-0 0.07,-0 0.07,0 0.15,0.01 0.22,0.04 0.07,0.03 0.13,0.07 0.19,0.12 0.14,0.13 0.24,0.27 0.31,0.43 0.07,0.16 0.11,0.33 0.11,0.51l0 3.16c0,0.31 -0.1,0.56 -0.3,0.75 -0.2,0.19 -0.44,0.29 -0.71,0.29 -0.01,0 -0.01,0 -0.02,0 -0.01,0 -0.02,0 -0.03,0 -0.01,-0.01 -0.01,-0.01 -0.02,-0.01 -0.01,0 -0.02,0 -0.03,0l-0.92 -0.48 0 0.05c-0.15,0.14 -0.33,0.25 -0.53,0.32 -0.21,0.08 -0.45,0.12 -0.73,0.12 -0.09,0 -0.18,-0 -0.27,-0.01 -0.09,-0.01 -0.19,-0.02 -0.29,-0.04 -0.31,-0.05 -0.61,-0.17 -0.9,-0.35 -0.29,-0.19 -0.54,-0.43 -0.76,-0.72 -0.14,-0.21 -0.25,-0.43 -0.33,-0.67 -0.07,-0.24 -0.11,-0.49 -0.11,-0.76 0,-0.03 0,-0.05 0,-0.07 0,-0.02 0,-0.05 0,-0.07 0.03,-0.65 0.26,-1.2 0.68,-1.66 0.42,-0.46 0.91,-0.74 1.49,-0.84zm0.08 2.64c0,0.11 0.02,0.21 0.05,0.3 0.03,0.09 0.08,0.17 0.15,0.25 0.07,0.08 0.16,0.14 0.26,0.19 0.1,0.04 0.2,0.07 0.3,0.07 0.01,0 0.02,0 0.03,0 0.01,0 0.02,0 0.04,0 0.12,-0.01 0.23,-0.05 0.34,-0.11 0.11,-0.06 0.2,-0.15 0.26,-0.27 0.03,-0.04 0.05,-0.09 0.07,-0.13 0.02,-0.04 0.03,-0.09 0.04,-0.14 0.01,-0.03 0.01,-0.06 0.02,-0.09 0,-0.03 0.01,-0.05 0.01,-0.08 0,-0.01 0,-0.02 0,-0.03 0,-0.01 0,-0.02 0,-0.02 -0.01,-0.01 -0.01,-0.02 -0.01,-0.03 0,-0.01 0,-0.02 0,-0.02 -0.03,-0.16 -0.08,-0.3 -0.16,-0.4 -0.08,-0.11 -0.18,-0.19 -0.31,-0.24 -0.03,-0.01 -0.05,-0.02 -0.08,-0.03 -0.03,-0.01 -0.05,-0.01 -0.07,-0.02 -0.03,-0.01 -0.05,-0.01 -0.08,-0.01 -0.03,-0 -0.05,-0 -0.08,-0 -0.18,0.01 -0.33,0.07 -0.47,0.18 -0.14,0.12 -0.22,0.28 -0.26,0.49 0,0.01 -0,0.03 -0.01,0.04 -0,0.02 -0.01,0.03 -0.01,0.04 0,0.01 -0,0.03 -0.01,0.04 -0,0.02 -0.01,0.03 -0.01,0.04zm7.23 2.6c-0.85,-0.01 -1.56,-0.26 -2.13,-0.77 -0.58,-0.51 -0.87,-1.12 -0.87,-1.85 -0.01,-0.73 0.28,-1.35 0.85,-1.88 0.58,-0.52 1.29,-0.79 2.15,-0.79 0.39,0 0.76,0.06 1.1,0.17 0.34,0.11 0.65,0.28 0.92,0.5 0.32,0.25 0.56,0.54 0.72,0.87 0.16,0.33 0.25,0.66 0.26,1.01 0,0.01 0,0.03 0,0.04 0,0.02 0,0.03 0,0.05 0,0.45 -0.12,0.87 -0.37,1.29 -0.25,0.41 -0.61,0.74 -1.09,0.99 -0.22,0.12 -0.47,0.21 -0.73,0.27 -0.26,0.06 -0.53,0.09 -0.82,0.09l0 0.01zm-0.79 -2.63c-0.01,0.26 0.07,0.48 0.23,0.64 0.16,0.16 0.35,0.24 0.56,0.24 0.03,0 0.05,-0 0.08,-0 0.02,-0 0.05,-0.01 0.08,-0.01 0.18,-0.03 0.32,-0.1 0.42,-0.21 0.1,-0.11 0.17,-0.26 0.2,-0.46 0.01,-0.03 0.01,-0.06 0.02,-0.1 0,-0.03 0.01,-0.07 0.01,-0.1 0,-0.09 -0.01,-0.17 -0.04,-0.25 -0.02,-0.08 -0.06,-0.15 -0.1,-0.21 -0.08,-0.13 -0.18,-0.22 -0.29,-0.28 -0.11,-0.06 -0.24,-0.09 -0.37,-0.09 -0.14,0 -0.26,0.03 -0.37,0.09 -0.11,0.06 -0.21,0.15 -0.29,0.28 -0.04,0.06 -0.07,0.13 -0.1,0.21 -0.02,0.08 -0.04,0.16 -0.04,0.26z"/>
   <path class="fil3" d="M17.96 30.63c-0.43,-0.01 -0.79,-0.15 -1.09,-0.43 -0.3,-0.28 -0.45,-0.61 -0.45,-1.01l0 -6.17c0,-0.41 0.15,-0.75 0.45,-1.03 0.3,-0.28 0.67,-0.41 1.1,-0.41l3.63 0c0.18,0 0.35,0.03 0.52,0.1 0.17,0.07 0.32,0.16 0.45,0.28 0.12,0.12 0.22,0.25 0.29,0.39 0.07,0.15 0.1,0.3 0.1,0.47 0,0.16 -0.04,0.31 -0.11,0.47 -0.07,0.16 -0.17,0.3 -0.31,0.42 -0.13,0.11 -0.28,0.19 -0.45,0.26 -0.16,0.07 -0.33,0.1 -0.51,0.1l-2.09 0 0 0.88 1.77 0c0.36,0 0.67,0.12 0.93,0.36 0.26,0.24 0.39,0.53 0.39,0.87 0,0 0,0 0,0 0,0 0,0 0,0 0,0.01 0,0.01 0,0.01 0,0 0,0 0,0 -0.01,0.34 -0.14,0.62 -0.4,0.86 -0.26,0.23 -0.57,0.35 -0.93,0.35l-1.76 0 0 1.79c0,0.39 -0.15,0.73 -0.45,1.01 -0.3,0.28 -0.67,0.41 -1.09,0.41l0 0.01zm6.64 -0.07c0,-0.01 -0,-0.01 -0.01,-0.01 -0,0 -0.01,0 -0.02,0 -0.01,0 -0.02,0 -0.02,0 -0,0 -0.01,0 -0.01,0 -0.39,0 -0.73,-0.13 -1.01,-0.38 -0.28,-0.25 -0.42,-0.57 -0.42,-0.94l0 -4.13c0,-0.38 0.14,-0.7 0.43,-0.97 0.29,-0.27 0.64,-0.4 1.05,-0.4l1.37 0.86 0 -0.06 0.08 -0.09 0.16 -0.16c0.1,-0.1 0.19,-0.18 0.29,-0.25 0.09,-0.07 0.19,-0.12 0.29,-0.16 0.09,-0.04 0.18,-0.07 0.27,-0.09 0.09,-0.02 0.19,-0.03 0.29,-0.03 0.03,0 0.06,0 0.09,0 0.03,0 0.06,0 0.1,0.01 0.04,0 0.07,0 0.1,0.01 0.03,0.01 0.06,0.02 0.09,0.02 0.26,0.06 0.48,0.17 0.66,0.35 0.18,0.18 0.3,0.38 0.34,0.6 0.02,0.05 0.03,0.1 0.03,0.15 0,0.05 0,0.1 0,0.15 0,0.29 -0.11,0.54 -0.33,0.75 -0.22,0.21 -0.56,0.38 -1.03,0.52 -0.03,0.01 -0.05,0.02 -0.07,0.02 -0.02,0.01 -0.04,0.02 -0.06,0.02 -0.02,0.01 -0.04,0.02 -0.06,0.02 -0.02,0.01 -0.05,0.02 -0.07,0.02 -0.08,0.03 -0.15,0.06 -0.22,0.09 -0.07,0.02 -0.13,0.05 -0.18,0.09 -0.28,0.14 -0.47,0.3 -0.55,0.48 -0.08,0.18 -0.12,0.47 -0.11,0.86l0 1.2c0.01,0.39 -0.13,0.73 -0.42,1 -0.29,0.27 -0.64,0.41 -1.05,0.42l0 0.01zm6.83 -6.81c0.12,-0.02 0.23,-0.03 0.34,-0.04 0.11,-0.01 0.22,-0.02 0.31,-0.02 0.34,0 0.65,0.05 0.93,0.15 0.28,0.1 0.52,0.24 0.73,0.43l0 0.04 1.22 -0.6c0.03,-0.02 0.06,-0.03 0.09,-0.04 0.03,-0.01 0.06,-0.02 0.1,-0.02 0.04,-0.01 0.07,-0.01 0.1,-0.02 0.03,-0 0.06,-0.01 0.09,-0.01 0.1,0 0.19,0.02 0.29,0.06 0.09,0.04 0.18,0.09 0.25,0.15 0.18,0.16 0.31,0.35 0.41,0.57 0.09,0.21 0.14,0.44 0.14,0.67l0 4.15c0,0.4 -0.13,0.73 -0.4,0.99 -0.27,0.26 -0.58,0.38 -0.93,0.38 -0.01,0 -0.02,0 -0.03,0 -0.01,0 -0.02,0 -0.04,0 -0.01,-0.01 -0.02,-0.01 -0.03,-0.01 -0.01,0 -0.02,0 -0.04,0l-1.21 -0.63 0 0.06c-0.2,0.18 -0.43,0.32 -0.7,0.43 -0.27,0.1 -0.59,0.15 -0.95,0.15 -0.12,0 -0.24,-0.01 -0.36,-0.02 -0.12,-0.01 -0.25,-0.03 -0.39,-0.06 -0.41,-0.07 -0.8,-0.22 -1.18,-0.46 -0.38,-0.24 -0.71,-0.56 -0.99,-0.94 -0.19,-0.27 -0.33,-0.57 -0.43,-0.88 -0.1,-0.32 -0.15,-0.65 -0.15,-0.99 0,-0.03 0,-0.06 0,-0.09 0,-0.03 0,-0.06 0,-0.09 0.04,-0.85 0.34,-1.57 0.89,-2.18 0.55,-0.6 1.2,-0.97 1.95,-1.1zm0.11 3.45c0,0.15 0.02,0.28 0.07,0.39 0.04,0.12 0.11,0.23 0.2,0.33 0.1,0.11 0.21,0.19 0.34,0.25 0.13,0.06 0.26,0.09 0.39,0.09 0.01,0 0.02,0 0.03,0 0.01,0 0.03,0 0.05,0 0.15,-0.02 0.3,-0.07 0.44,-0.15 0.14,-0.08 0.26,-0.2 0.35,-0.36 0.04,-0.06 0.06,-0.12 0.09,-0.17 0.02,-0.06 0.04,-0.12 0.05,-0.19 0.01,-0.04 0.02,-0.08 0.02,-0.12 0,-0.04 0.01,-0.07 0.01,-0.1 0,-0.02 0,-0.03 0,-0.04 0,-0.01 0,-0.02 0,-0.03 -0.01,-0.02 -0.01,-0.03 -0.01,-0.04 0,-0.01 0,-0.02 0,-0.03 -0.04,-0.21 -0.1,-0.39 -0.21,-0.53 -0.1,-0.14 -0.24,-0.24 -0.41,-0.31 -0.04,-0.02 -0.07,-0.03 -0.11,-0.04 -0.04,-0.01 -0.07,-0.02 -0.09,-0.02 -0.04,-0.01 -0.07,-0.01 -0.11,-0.02 -0.04,-0 -0.07,-0.01 -0.11,-0.01 -0.23,0.01 -0.43,0.09 -0.61,0.24 -0.18,0.15 -0.29,0.36 -0.35,0.64 0,0.02 -0,0.03 -0.01,0.06 -0,0.02 -0.01,0.04 -0.01,0.06 0,0.02 -0,0.03 -0.01,0.06 -0,0.02 -0.01,0.04 -0.01,0.06zm6.08 2.99c-0.14,-0.13 -0.25,-0.28 -0.33,-0.45 -0.08,-0.17 -0.11,-0.34 -0.11,-0.52l0 -7.07c0,-0.37 0.15,-0.69 0.44,-0.96 0.29,-0.27 0.65,-0.4 1.07,-0.39 0.41,0.01 0.75,0.15 1.03,0.41 0.28,0.27 0.42,0.59 0.42,0.96l0 7.03c0,0.18 -0.04,0.36 -0.11,0.52 -0.07,0.17 -0.18,0.32 -0.32,0.46 -0.14,0.13 -0.31,0.23 -0.49,0.29 -0.19,0.06 -0.38,0.09 -0.57,0.09 -0.19,0 -0.37,-0.03 -0.55,-0.09 -0.18,-0.06 -0.34,-0.16 -0.48,-0.29zm7.84 -6.24c0.04,0.01 0.07,0.02 0.11,0.04 0.04,0.02 0.08,0.03 0.11,0.05l0 -1.89c0,-0.38 0.14,-0.7 0.43,-0.96 0.29,-0.26 0.64,-0.39 1.05,-0.39 0.41,0.01 0.75,0.14 1.04,0.41 0.28,0.26 0.43,0.59 0.43,0.97l0 7.02c0,0.4 -0.14,0.73 -0.41,0.98 -0.27,0.25 -0.58,0.38 -0.93,0.38 -0.01,0 -0.02,0 -0.03,0 -0.01,0 -0.02,0 -0.03,0 -0.01,-0.01 -0.02,-0.01 -0.03,-0.01 -0.01,0 -0.02,0 -0.03,0l-1.22 -0.67 0 0.05c-0.2,0.21 -0.43,0.36 -0.71,0.48 -0.28,0.11 -0.6,0.17 -0.95,0.17 -0.1,0 -0.2,-0.01 -0.31,-0.02 -0.11,-0.01 -0.22,-0.03 -0.33,-0.04 -0.68,-0.11 -1.28,-0.41 -1.79,-0.89 -0.51,-0.49 -0.84,-1.1 -0.99,-1.82 -0.01,-0.06 -0.02,-0.12 -0.03,-0.17 -0.01,-0.06 -0.02,-0.12 -0.03,-0.17 0,-0.06 -0,-0.12 -0.01,-0.17 -0,-0.06 -0.01,-0.12 -0.01,-0.17 0,-0.13 0.01,-0.26 0.02,-0.39 0.01,-0.13 0.04,-0.25 0.07,-0.38 0.12,-0.49 0.33,-0.92 0.63,-1.29 0.29,-0.37 0.65,-0.67 1.07,-0.89 0.26,-0.14 0.52,-0.25 0.8,-0.32 0.28,-0.07 0.55,-0.11 0.83,-0.1 0.2,0 0.41,0.02 0.62,0.06 0.21,0.04 0.42,0.09 0.65,0.17zm-1.73 3.18c-0.01,0.33 0.09,0.59 0.29,0.8 0.2,0.2 0.44,0.3 0.71,0.3 0.01,0 0.02,0 0.02,0 0,0 0.01,0 0.02,0 0.25,-0.01 0.46,-0.09 0.63,-0.24 0.17,-0.15 0.29,-0.38 0.34,-0.67 0,-0.02 0,-0.03 0.01,-0.05 0,-0.02 0.01,-0.04 0.01,-0.06 0,-0.02 0,-0.03 0,-0.05 0,-0.02 0,-0.03 0,-0.05 0,-0.02 0,-0.03 0,-0.05 0,-0.02 0,-0.03 0,-0.05 0,-0.02 -0,-0.03 -0.01,-0.05 -0,-0.02 -0.01,-0.03 -0.01,-0.05 -0.04,-0.24 -0.14,-0.43 -0.27,-0.57 -0.14,-0.14 -0.31,-0.23 -0.51,-0.27 -0.04,-0.01 -0.07,-0.01 -0.11,-0.02 -0.04,-0 -0.08,-0.01 -0.11,-0.01 -0.25,0 -0.46,0.08 -0.64,0.23 -0.18,0.15 -0.29,0.37 -0.35,0.66 0,0.02 -0,0.03 -0.01,0.05 -0,0.02 -0.01,0.03 -0.01,0.05 0,0.02 0,0.03 0,0.05 0,0.02 0,0.03 0,0.05zm8.39 -3.38c0.12,-0.02 0.23,-0.03 0.34,-0.04 0.11,-0.01 0.22,-0.02 0.31,-0.02 0.34,0 0.65,0.05 0.93,0.15 0.28,0.1 0.52,0.24 0.73,0.43l0 0.04 1.22 -0.6c0.03,-0.02 0.06,-0.03 0.09,-0.04 0.03,-0.01 0.06,-0.02 0.1,-0.02 0.04,-0.01 0.07,-0.01 0.1,-0.02 0.03,-0 0.06,-0.01 0.09,-0.01 0.1,0 0.19,0.02 0.29,0.06 0.09,0.04 0.18,0.09 0.25,0.15 0.18,0.16 0.31,0.35 0.41,0.57 0.09,0.21 0.14,0.44 0.14,0.67l0 4.15c0,0.4 -0.13,0.73 -0.4,0.99 -0.27,0.26 -0.58,0.38 -0.93,0.38 -0.01,0 -0.02,0 -0.03,0 -0.01,0 -0.02,0 -0.04,0 -0.01,-0.01 -0.02,-0.01 -0.03,-0.01 -0.01,0 -0.02,0 -0.04,0l-1.21 -0.63 0 0.06c-0.2,0.18 -0.43,0.32 -0.7,0.43 -0.27,0.1 -0.59,0.15 -0.95,0.15 -0.12,0 -0.24,-0.01 -0.36,-0.02 -0.12,-0.01 -0.25,-0.03 -0.39,-0.06 -0.41,-0.07 -0.8,-0.22 -1.18,-0.46 -0.38,-0.24 -0.71,-0.56 -0.99,-0.94 -0.19,-0.27 -0.33,-0.57 -0.43,-0.88 -0.1,-0.32 -0.15,-0.65 -0.15,-0.99 0,-0.03 0,-0.06 0,-0.09 0,-0.03 0,-0.06 0,-0.09 0.04,-0.85 0.34,-1.57 0.89,-2.18 0.55,-0.6 1.2,-0.97 1.95,-1.1zm0.11 3.45c0,0.15 0.02,0.28 0.07,0.39 0.04,0.12 0.11,0.23 0.2,0.33 0.1,0.11 0.21,0.19 0.34,0.25 0.13,0.06 0.26,0.09 0.39,0.09 0.01,0 0.02,0 0.03,0 0.01,0 0.03,0 0.05,0 0.15,-0.02 0.3,-0.07 0.44,-0.15 0.14,-0.08 0.26,-0.2 0.35,-0.36 0.04,-0.06 0.06,-0.12 0.09,-0.17 0.02,-0.06 0.04,-0.12 0.05,-0.19 0.01,-0.04 0.02,-0.08 0.02,-0.12 0,-0.04 0.01,-0.07 0.01,-0.1 0,-0.02 0,-0.03 0,-0.04 0,-0.01 0,-0.02 0,-0.03 -0.01,-0.02 -0.01,-0.03 -0.01,-0.04 0,-0.01 0,-0.02 0,-0.03 -0.04,-0.21 -0.1,-0.39 -0.21,-0.53 -0.1,-0.14 -0.24,-0.24 -0.41,-0.31 -0.04,-0.02 -0.07,-0.03 -0.11,-0.04 -0.04,-0.01 -0.07,-0.02 -0.09,-0.02 -0.04,-0.01 -0.07,-0.01 -0.11,-0.02 -0.04,-0 -0.07,-0.01 -0.11,-0.01 -0.23,0.01 -0.43,0.09 -0.61,0.24 -0.18,0.15 -0.29,0.36 -0.35,0.64 0,0.02 -0,0.03 -0.01,0.06 -0,0.02 -0.01,0.04 -0.01,0.06 0,0.02 -0,0.03 -0.01,0.06 -0,0.02 -0.01,0.04 -0.01,0.06zm6.23 2.9c-0.3,-0.16 -0.52,-0.34 -0.65,-0.52 -0.13,-0.18 -0.2,-0.36 -0.2,-0.54 0,-0.05 0,-0.1 0.01,-0.15 0.01,-0.05 0.02,-0.1 0.04,-0.15 0.07,-0.21 0.21,-0.37 0.41,-0.5 0.2,-0.13 0.45,-0.19 0.75,-0.19 0.1,0 0.2,0.01 0.31,0.02 0.11,0.02 0.22,0.05 0.34,0.09l0.27 0.07 0.19 0.06c0.2,0.07 0.36,0.12 0.48,0.15 0.12,0.02 0.22,0.05 0.32,0.06l0.08 0 0.16 0c0.07,0 0.12,-0.01 0.16,-0.03 0.04,-0.02 0.06,-0.05 0.08,-0.08 0.01,-0.02 0.01,-0.03 0.01,-0.04 0,-0.01 0,-0.02 0,-0.02 0,-0.04 -0.01,-0.08 -0.04,-0.11 -0.03,-0.03 -0.07,-0.07 -0.12,-0.1 -0.01,0 -0.02,-0 -0.03,-0.01 -0.01,-0 -0.01,-0.01 -0.01,-0.02 -0.01,-0.01 -0.02,-0.01 -0.03,-0.02 -0.01,-0 -0.02,-0.01 -0.03,-0.01l-0.12 -0.04 -0.27 -0.06 -0.35 -0.1 -0.25 -0.06c-0.62,-0.16 -1.07,-0.33 -1.36,-0.52 -0.28,-0.19 -0.49,-0.44 -0.63,-0.74 -0.05,-0.12 -0.09,-0.23 -0.11,-0.35 -0.02,-0.12 -0.03,-0.23 -0.03,-0.35 0,-0.57 0.29,-1.07 0.87,-1.51 0.58,-0.44 1.37,-0.66 2.38,-0.66 0.02,0 0.03,0 0.04,0 0.01,0 0.02,0 0.04,0 0.01,0 0.02,0 0.03,0 0.01,0 0.02,0 0.03,0 0.23,0 0.45,0.01 0.65,0.04 0.2,0.03 0.39,0.06 0.56,0.1 0.34,0.08 0.61,0.18 0.82,0.3 0.21,0.12 0.36,0.23 0.46,0.36 0.06,0.08 0.11,0.16 0.13,0.25 0.03,0.08 0.04,0.17 0.04,0.26 0,0.19 -0.07,0.37 -0.2,0.54 -0.13,0.17 -0.32,0.28 -0.55,0.34 -0.05,0.01 -0.11,0.02 -0.16,0.02 -0.05,0.01 -0.11,0.01 -0.17,0.01 -0.08,0 -0.17,-0.01 -0.27,-0.02 -0.1,-0.02 -0.23,-0.04 -0.38,-0.07l-0.4 -0.09 -0.2 -0.05 -0.21 -0.04c-0.01,0 -0.02,-0 -0.03,-0.01 -0.01,-0 -0.02,-0.01 -0.03,-0.01 -0.02,-0.01 -0.03,-0.01 -0.04,-0.01 -0.01,0 -0.02,0 -0.04,0 -0.05,-0.01 -0.1,-0.01 -0.14,-0.02 -0.04,-0 -0.08,-0.01 -0.11,-0.01 -0.04,0 -0.07,0 -0.1,0.01 -0.03,0 -0.06,0.01 -0.09,0.03l-0.03 0.02 -0.04 0.04c-0.04,0.03 -0.05,0.07 -0.03,0.11 0.01,0.04 0.06,0.09 0.13,0.14 0.01,0 0.02,0 0.02,0.01 0,0 0.01,0.01 0.02,0.02 0.01,0.01 0.02,0.01 0.03,0.02 0.01,0 0.02,0.01 0.03,0.01l0.12 0.04 0.2 0.06 0.47 0.14 0.33 0.09 0.29 0.1c0.16,0.05 0.31,0.11 0.46,0.18 0.15,0.07 0.29,0.15 0.42,0.23 0.3,0.2 0.53,0.43 0.68,0.71 0.15,0.28 0.23,0.56 0.23,0.85 0,0.02 0,0.05 0,0.07 0,0.02 0,0.05 0,0.07 -0.03,0.25 -0.11,0.51 -0.26,0.76 -0.15,0.25 -0.36,0.48 -0.65,0.68 -0.27,0.2 -0.58,0.35 -0.95,0.46 -0.37,0.11 -0.8,0.16 -1.3,0.16 -0.09,0 -0.18,-0 -0.28,-0.01 -0.1,-0 -0.2,-0.01 -0.29,-0.02 -0.43,-0.03 -0.81,-0.09 -1.12,-0.17 -0.32,-0.08 -0.57,-0.18 -0.78,-0.28z"/>
   <path class="fil4" d="M33.47 38.37l0.24 0.42 -1.41 0.69 -0.24 -0.42 1.41 -0.69zm-4.04 1.48l0.09 0.47 -1.57 0.27 -0.09 -0.47 1.57 -0.27zm-4.2 0.44l-0.02 0.48 -1.59 -0.05 0.02 -0.48 1.59 0.05zm-4.26 -0.53l-0.16 0.45 -1.51 -0.46 0.16 -0.45 1.51 0.46zm-4.04 -1.72l-0.33 0.36 -1.21 -0.96 0.33 -0.36 1.21 0.96zm-3 -3.21l-0.48 0.16 -0.54 -1.39 0.48 -0.16 0.54 1.39zm-0.85 -2.46l-0.51 0.03 -0.11 -1.47 0.51 -0.03 0.11 1.47zm-1.78 -1.68l-0.09 0.47 -1.57 -0.25 0.09 -0.47 1.57 0.25zm-4.2 -1.07l-0.24 0.42 -1.4 -0.7 0.24 -0.42 1.4 0.7zm-3.63 -2.46l-0.41 0.28 -0.95 -1.19 0.41 -0.28 0.95 1.19zm-1.84 -3.96l-0.51 0.01 -0.05 -1.48 0.51 -0.01 0.05 1.48zm1.04 -4.26l-0.42 -0.27 0.92 -1.21 0.42 0.27 -0.92 1.21zm2.94 -3.04l-0.29 -0.39 1.32 -0.83 0.29 0.39 -1.32 0.83zm3.79 -1.92l-0.16 -0.45 1.52 -0.45 0.16 0.45 -1.52 0.45zm2.3 -0.81l-0.5 -0.12 0.39 -1.43 0.5 0.12 -0.39 1.43zm1.87 -3.79l-0.39 -0.31 1.04 -1.12 0.39 0.31 -1.04 1.12zm3.39 -2.68l-0.22 -0.43 1.43 -0.64 0.22 0.43 -1.43 0.64zm4.03 -1.44l-0.08 -0.47 1.57 -0.24 0.08 0.47 -1.57 0.24zm4.23 -0.33l0.03 -0.48 1.59 0.1 -0.03 0.48 -1.59 -0.1zm4.31 0.76l0.21 -0.44 1.46 0.6 -0.21 0.44 -1.46 -0.6zm2.86 0.47l-0.29 -0.4 1.33 -0.82 0.29 0.4 -1.33 0.82zm3.22 -1.6l-0.15 -0.46 1.52 -0.44 0.15 0.46 -1.52 0.44zm4.16 -0.96l-0.03 -0.48 1.59 -0.07 0.03 0.48 -1.59 0.07zm4.23 0.01l0.08 -0.47 1.57 0.24 -0.09 0.47 -1.57 -0.24zm4.16 1.01l0.22 -0.43 1.44 0.63 -0.22 0.43 -1.44 -0.63zm3.72 2.3l0.39 -0.31 1.03 1.12 -0.39 0.31 -1.03 -1.12zm2.19 1.81l-0.13 -0.46 1.54 -0.37 0.13 0.46 -1.54 0.37zm3.17 -0.52l-0.03 -0.48 1.59 -0.1 0.03 0.48 -1.59 0.1zm4.27 0.05l0.1 -0.47 1.56 0.27 -0.1 0.47 -1.57 -0.27zm4.17 1.11l0.24 -0.42 1.41 0.69 -0.24 0.42 -1.41 -0.69zm3.67 2.43l0.41 -0.28 0.94 1.19 -0.41 0.28 -0.94 -1.19zm1.94 3.27l0.51 0.01 -0.04 1.48 -0.51 -0.01 0.04 -1.48zm1.38 3.04l0.18 -0.45 1.49 0.53 -0.18 0.45 -1.49 -0.53zm3.46 1.9l0.34 -0.36 1.19 0.98 -0.34 0.36 -1.19 -0.98zm2.3 2.83l0.5 -0.12 0.4 1.43 -0.5 0.12 -0.4 -1.43zm0.23 4.28l0.49 0.15 -0.5 1.4 -0.49 -0.15 0.5 -1.4zm-2.24 3.66l0.36 0.34 -1.15 1.02 -0.36 -0.34 1.15 -1.02zm-3.45 2.43l0.23 0.43 -1.43 0.65 -0.23 -0.43 1.43 -0.65zm-4 1.41l0.1 0.47 -1.56 0.3 -0.1 -0.47 1.56 -0.3zm-4.17 0.41l0.01 0.48 -1.59 0.02 -0.01 -0.48 1.59 -0.02zm-3.26 -0.16l-0.12 0.46 -1.55 -0.35 0.12 -0.46 1.55 0.35zm-2.73 1.08l0.46 0.22 -0.75 1.3 -0.46 -0.22 0.75 -1.3zm-2.12 2.57l0.33 0.37 -1.22 0.95 -0.33 -0.37 1.22 -0.95zm-3.61 2.23l0.2 0.44 -1.47 0.56 -0.2 -0.44 1.47 -0.56zm-4.11 1.22l0.05 0.47 -1.58 0.16 -0.05 -0.47 1.58 -0.16zm-4.26 0.21l-0.07 0.47 -1.58 -0.19 0.07 -0.47 1.58 0.19zm-4.23 -0.82l-0.21 0.44 -1.45 -0.6 0.21 -0.44 1.45 0.6zm-3.79 -2.08l-0.36 0.34 -1.13 -1.04 0.36 -0.34 1.13 1.04z"/>
   <path class="fil5" d="M64.44 18.39c-0.05,0.29 -0.16,0.57 -0.31,0.81 -0.54,0.84 -1.71,1.24 -2.65,0.71 -0.94,-0.52 -1.1,-1.67 -0.56,-2.5 0.12,-0.18 0.27,-0.35 0.44,-0.49 0.06,-0.05 0.12,-0.1 0.18,-0.14l-0.02 -0.01c-0.56,-0.31 -0.74,-0.99 -0.4,-1.51 0.24,-0.36 0.67,-0.55 1.09,-0.53 0.05,-0.23 0.15,-0.46 0.28,-0.67 0.65,-1 2.07,-1.33 3.15,-0.72 1.08,0.6 1.43,1.92 0.78,2.92 -0.12,0.19 -0.28,0.36 -0.45,0.5 0.32,0.35 0.39,0.87 0.12,1.28 -0.34,0.52 -1.07,0.68 -1.63,0.37l-0.03 -0.01zm0.23 -3.57c-0.2,-0.11 -0.46,-0.05 -0.58,0.13 -0.12,0.18 -0.06,0.43 0.14,0.54 0.2,0.11 0.46,0.05 0.58,-0.13 0.12,-0.18 0.06,-0.43 -0.14,-0.54z"/>
   <path class="fil6" d="M62.38 15.44l0.66 0.37c-0.23,-0.44 -0.23,-0.97 0.06,-1.42 0.45,-0.7 1.43,-0.92 2.18,-0.5 0.75,0.42 0.99,1.32 0.54,2.02 -0.29,0.45 -0.8,0.7 -1.32,0.71l0.83 0.46c0.22,0.13 0.3,0.4 0.16,0.61l0 0c-0.14,0.21 -0.43,0.28 -0.66,0.15l-2.95 -1.64c-0.22,-0.13 -0.3,-0.4 -0.16,-0.61l0 0c0.14,-0.21 0.43,-0.28 0.66,-0.15zm2.66 -1.19c0.53,0.3 0.71,0.94 0.39,1.44 -0.32,0.5 -1.02,0.66 -1.55,0.36 -0.53,-0.3 -0.71,-0.94 -0.39,-1.44 0.32,-0.5 1.02,-0.66 1.55,-0.36z"/>
   <path class="fil7" d="M63.31 17.1c0.55,0.31 0.59,1.18 0.22,1.76 -0.38,0.58 -1.13,0.8 -1.68,0.49 -0.55,-0.31 -0.69,-1.03 -0.32,-1.6 0.38,-0.58 1.23,-0.95 1.78,-0.65z"/>
   <path class="fil5" d="M6.5 20.1l2.88 -1.35c0.07,-0.03 0.14,-0.06 0.21,-0.08l-2.28 -1.41c-0.14,-0.07 -0.39,-0.18 -0.55,-0.11 -0.15,0.06 -0.2,0.34 -0.21,0.47l-0.22 2.57c0.05,-0.03 0.1,-0.06 0.16,-0.09zm4.16 2.84l1.02 -0.47c0.07,-0.03 0.16,-0.01 0.2,0.06l0 0c0.04,0.07 0.01,0.15 -0.07,0.18l-1.02 0.47c-0.07,0.03 -0.16,0.01 -0.2,-0.06l0 0c-0.04,-0.07 -0.01,-0.15 0.07,-0.18zm-0.3 -0.56l1.02 -0.47c0.07,-0.03 0.16,-0.01 0.2,0.06l0 0c0.04,0.07 0.01,0.15 -0.07,0.18l-1.02 0.47c-0.07,0.03 -0.16,0.01 -0.2,-0.06l0 0c-0.04,-0.07 -0.01,-0.15 0.07,-0.18zm-0.3 -0.56l1.02 -0.47c0.07,-0.03 0.16,-0.01 0.2,0.06l0 0c0.04,0.07 0.01,0.15 -0.07,0.18l-1.02 0.47c-0.07,0.03 -0.16,0.01 -0.2,-0.06l0 0c-0.04,-0.07 -0.01,-0.15 0.07,-0.18zm-0.3 -0.56l1.02 -0.47c0.07,-0.03 0.16,-0.01 0.2,0.06l0 0c0.04,0.07 0.01,0.15 -0.07,0.18l-1.02 0.47c-0.07,0.03 -0.16,0.01 -0.2,-0.06l0 0c-0.04,-0.07 -0.01,-0.15 0.07,-0.18zm-0.3 -0.56l1.02 -0.47c0.07,-0.03 0.16,-0.01 0.2,0.06l0 0c0.04,0.07 0.01,0.15 -0.07,0.18l-1.02 0.47c-0.07,0.03 -0.16,0.01 -0.2,-0.06l0 0c-0.04,-0.07 -0.01,-0.15 0.07,-0.18zm1.35 -1.87c0.19,0.12 0.36,0.29 0.47,0.49l2.05 3.77c0.49,0.91 0.1,2.02 -0.88,2.48l-1.83 0.85c-0.98,0.46 -2.18,0.09 -2.68,-0.82l-2.05 -3.77c-0.12,-0.21 -0.16,-0.44 -0.15,-0.67l0 0 0 -0.01c0,-0.01 0,-0.01 0,-0.02l0.31 -3.58c0.08,-0.98 0.83,-1.12 1.55,-0.73 1.07,0.66 2.14,1.32 3.2,1.99l0 0zm-3.96 1.89l2.88 -1.35c0.32,-0.15 0.71,-0.03 0.87,0.27l2.05 3.77c0.31,0.56 0.06,1.25 -0.55,1.54l-1.83 0.85c-0.61,0.28 -1.35,0.05 -1.66,-0.51l-2.05 -3.77c-0.16,-0.29 -0.03,-0.66 0.29,-0.8z"/>
   <path class="fil8" d="M8.39 17.92l-1.93 0.9 0.1 -1.21c0.01,-0.13 0.06,-0.4 0.21,-0.47 0.16,-0.06 0.41,0.04 0.55,0.11l1.07 0.66z"/>
   <path class="fil9" d="M68.43 15.13c0.24,-0.1 0.46,-0.25 0.68,-0.39 0.25,-0.16 0.51,-0.33 0.79,-0.44 0.07,-0.03 0.14,-0.03 0.21,-0 0.07,0.03 0.12,0.07 0.15,0.13 0.52,1.15 1.05,2.29 1.57,3.44 0.03,0.06 0.03,0.13 0,0.2 -0.03,0.06 -0.08,0.11 -0.15,0.14 -0.65,0.23 -1.3,0.46 -1.95,0.69 -0.06,0.02 -0.11,0.02 -0.17,0.01 -0.49,-0.14 -0.93,-0.43 -1.27,-0.79 -0.34,-0.35 -0.61,-0.79 -0.74,-1.24 -0.12,-0.41 -0.13,-0.87 0.12,-1.24 0.18,-0.26 0.45,-0.42 0.76,-0.49z"/>
   <path class="fil10" d="M70.01 14.54c-0.53,0.21 -0.96,0.62 -1.49,0.83 -1.6,0.37 -0.51,2.84 1.12,3.29 0.65,-0.23 1.3,-0.46 1.95,-0.69 -0.52,-1.15 -1.05,-2.29 -1.57,-3.44zm0.29 1.78l-0.22 -0.05c0.07,-0.24 -0.97,-0.37 -1.07,-0.26 -0.07,0.08 -0.18,0.08 -0.3,0.27 -0.09,0.14 -0.2,0.18 -0.22,0.41 -0,0.01 -0.08,0.33 -0.02,0.2 0.13,-0.29 0.64,-0.69 1.02,-0.56 0,0 0.13,0.07 0.03,0.08 -0.1,0 -0.36,0.31 -0.36,0.43 0,0.02 -0.11,0.64 -0.02,0.47 0.08,-0.15 0.17,-0.23 0.22,-0.35 0.15,-0.4 0.41,-0.37 0.79,-0.37 0.31,0 0.43,0.22 0.24,-0.08 -0.07,-0.11 -0.02,-0.16 -0.08,-0.19z"/>
   <path class="fil11" d="M70.01 14.54c-0.53,0.21 -0.96,0.62 -1.49,0.83 -1.6,0.37 -0.51,2.84 1.12,3.29 0.65,-0.23 1.3,-0.46 1.95,-0.69 -0.52,-1.15 -1.05,-2.29 -1.57,-3.44zm0.29 1.78l-0.22 -0.05c0.07,-0.24 -0.97,-0.37 -1.07,-0.26 -0.07,0.08 -0.18,0.08 -0.3,0.27 -0.09,0.14 -0.2,0.18 -0.22,0.41 -0,0.01 -0.08,0.33 -0.02,0.2 0.13,-0.29 0.64,-0.69 1.02,-0.56 0,0 0.13,0.07 0.03,0.08 -0.1,0 -0.36,0.31 -0.36,0.43 0,0.02 -0.11,0.64 -0.02,0.47 0.08,-0.15 0.17,-0.23 0.22,-0.35 0.15,-0.4 0.41,-0.37 0.79,-0.37 0.31,0 0.43,0.22 0.24,-0.08 -0.07,-0.11 -0.02,-0.16 -0.08,-0.19z"/>
   <path class="fil9" d="M72.86 38.56c-1,-0.12 -2.01,0.76 -2.63,1.38l-0.24 0.24 -0.17 -0.28c-2.65,-4.43 -1.3,-9.09 1.19,-13.26l0.02 -0.03 0.03 -0.03c1.46,-1.24 2.91,-2.48 4.37,-3.72l0.1 -0.08 0.13 0.03c2.75,0.59 5.5,1.18 8.25,1.77l0.14 0.03 0.04 0.12c0.6,1.67 1.2,3.34 1.8,5l0.01 0.03 0 0.03c0.21,3.61 1.25,7.54 4.82,9.54l0.18 0.1 -0.08 0.18c-0.04,0.11 -0.1,0.21 -0.18,0.3 -0.49,0.61 -1.49,0.76 -2.26,0.81 -0.52,0.03 -1.05,0.03 -1.58,0.01 -0.57,-0.02 -1.14,-0.05 -1.7,-0.08 -0.54,-0.03 -1.07,-0.06 -1.61,-0.07 -0.49,-0.01 -0.98,-0.01 -1.47,0.02l-0.04 0 -0.04 -0.01c-3.04,-0.68 -6.07,-1.35 -9.11,-2.03z"/>
   <path class="fil12" d="M85.66 29.8c0.27,4.66 1.83,7.98 4.94,9.72 -0.72,1.71 -5.55,0.62 -8.57,0.84 -3.04,-0.68 -6.08,-1.36 -9.12,-2.04 -0.91,-0.11 -1.87,0.46 -2.86,1.46 -2.4,-4.01 -1.58,-8.41 1.19,-13.04 1.46,-1.24 2.91,-2.48 4.37,-3.72 2.75,0.59 5.5,1.18 8.26,1.77 0.6,1.67 1.2,3.34 1.8,5z"/>
   <path class="fil9" d="M79.27 43.18c-0.34,0.09 -0.72,0.11 -1.02,-0.08 -0.3,-0.19 -0.41,-0.53 -0.44,-0.86 -0.09,0.01 -0.18,0.01 -0.26,0 -0.16,-0.02 -0.33,-0.05 -0.49,-0.08 -0.47,-0.08 -0.89,-0.1 -1.36,-0 -0.16,0.03 -0.34,0.05 -0.5,0.07 -0.17,0.01 -0.35,0.03 -0.52,0.02 -0.34,0.05 -0.74,0.06 -1.07,-0.06 -0.23,-0.08 -0.46,-0.25 -0.48,-0.5 -0.01,-0.18 0.1,-0.33 0.25,-0.44 0.18,-0.13 0.42,-0.2 0.64,-0.23 0.09,-0.05 0.18,-0.13 0.19,-0.23 0.02,-0.13 -0.11,-0.31 -0.19,-0.41l-0 -0 -0 -0c-1.59,-2.2 -2.58,-4.47 -2.81,-7.13l-0 -0.01 0 -0.01c-0.02,-1.24 0.02,-2.49 0.18,-3.72 0.11,-0.84 0.28,-1.69 0.55,-2.5 -0.24,-0.03 -0.48,-0.07 -0.72,-0.12 -1.13,-0.22 -2.22,-0.6 -3.29,-1.01l-0.01 -0 -0.01 -0.01c-0.57,-0.32 -1.41,-0.31 -2.02,-0.12l-0 0 -0 0c-0.86,0.23 -1.74,0.39 -2.57,-0.01l-0.02 -0.01 -0.01 -0.01c-0.59,-0.44 -0.7,-1.1 -0.68,-1.77l0 -0.01 0 -0.01c0.15,-0.89 0.86,-1.12 1.73,-1 0.02,-0.08 0.03,-0.26 0.03,-0.31 0.01,-0.12 0.01,-0.24 0.04,-0.36l0 -0 0 -0c0.07,-0.26 0.21,-0.54 0.44,-0.71 0.17,-0.13 0.4,-0.21 0.61,-0.11 0.3,0.14 0.29,0.49 0.21,0.75l-0 0 -0 0c-0.07,0.2 -0.11,0.37 -0.13,0.57 0.02,0.03 0.03,0.06 0.05,0.08 0.01,0.02 0.03,0.04 0.04,0.06 0.26,0.16 0.58,0.53 0.75,0.76 0.09,0.09 0.31,-0 0.41,-0.05l0 -0 0 -0c1.04,-0.45 2.13,-0.79 3.25,-1.05 0.89,-0.21 1.8,-0.36 2.71,-0.48 -0.5,-0.24 -0.99,-0.51 -1.45,-0.8 -0.42,-0.27 -0.83,-0.59 -1.16,-0.96 -0.48,-0.55 -0.69,-1.11 -0.66,-1.81 0.02,-0.52 0.16,-1.03 0.22,-1.55 0.06,-0.58 -0.01,-1.08 -0.29,-1.61l-0.04 -0.07 0.02 -0.04c-0.06,-0.07 -0.27,-0.2 -0.33,-0.23 -0.17,-0.11 -0.52,-0.29 -0.49,-0.52 -0.43,-1.12 -0.85,-2.24 -1.28,-3.37l-0.01 -0.03 0 -0.03c0,-0.35 0,-0.69 0,-1.04l0 -0.09 0.08 -0.05c1.39,-0.83 2.79,-1.67 4.18,-2.5l0.04 -0.02 0.05 -0c2.67,-0.05 5.33,-0.1 8,-0.16l0.02 -0 0.02 0c2.2,0.35 4.4,0.69 6.6,1.04l0.12 0.02 0.02 0.11c0.5,2.29 1,4.58 1.51,6.87 1.02,1.08 0.49,2.27 -0.36,3.31l-0.01 0.01 -0.01 0.01c-0.45,0.38 -0.94,0.66 -1.55,0.76 -0.44,0.08 -0.86,0.05 -1.29,0.02 -0.37,0.47 -0.71,0.94 -1.16,1.35 0.1,0.44 0.12,0.86 0.22,1.3 2.04,1.27 3.7,2.93 4.23,5.22l0 0.01 0 0.01c0.02,0.47 -0.06,0.92 -0.31,1.33 -0.79,1.33 -2.79,1.7 -4.31,1.83 0.09,0.4 -0.02,0.72 -0.13,0.86 0.31,0.02 0.6,0.07 0.69,0.35 0.09,0.27 -0.22,0.55 -0.44,0.71 0,0.21 0,0.43 0,0.64 0.45,2.97 -0.16,5.66 -1.76,8.25 -0.02,0.03 -0.03,0.07 -0.03,0.1 -0,0.09 0.04,0.21 0.05,0.31 0.11,0.28 0.24,0.58 0.42,0.82l0.01 0.01 0.01 0.01c0.05,0.11 0.07,0.24 -0.01,0.35 -0.09,0.14 -0.29,0.17 -0.46,0.17 -0.17,0.24 -0.51,0.24 -0.81,0.19 -0.29,0.19 -0.6,0.2 -0.89,0.03 -0.26,0.1 -0.52,0.11 -0.76,-0.03z"/>
   <path class="fil10" d="M81.59 41.68c0.14,0.34 0.28,0.65 0.44,0.87 0.1,0.23 -0.06,0.31 -0.41,0.29 -0.11,0.25 -0.39,0.26 -0.74,0.18 -0.28,0.21 -0.55,0.22 -0.83,0.01 -0.28,0.13 -0.54,0.14 -0.74,-0.03 -0.87,0.25 -1.35,-0.07 -1.33,-1.01 -0.32,0.31 -1.06,-0.23 -2.32,0.01 -0.27,0.05 -0.73,0.09 -1,0.08 -1.5,0.23 -1.87,-0.71 -0.59,-0.91 0.45,-0.25 0.33,-0.56 0.08,-0.88 -1.44,-1.99 -2.54,-4.23 -2.78,-7.05 -0.04,-2.87 0.2,-4.88 0.72,-6.36 -1.36,-0.17 -2.45,-0.51 -4.11,-1.14 -0.6,-0.34 -1.49,-0.35 -2.17,-0.13 -0.84,0.23 -1.66,0.38 -2.44,0 -0.52,-0.39 -0.64,-0.98 -0.62,-1.64 0.13,-0.76 0.7,-1 1.6,-0.86 0.21,0.01 0.13,-0.54 0.2,-0.81 0.28,-1 1.17,-0.94 0.93,-0.16 -0.06,0.18 -0.12,0.36 -0.14,0.65 0.07,0.14 0.08,0.13 0.15,0.23 0.25,0.14 0.6,0.55 0.74,0.74 0.15,0.17 0.42,0.1 0.63,-0.01 2.13,-0.92 4.29,-1.32 6.46,-1.59 -6.15,-2.77 -2.4,-4.36 -3.76,-6.91 0.1,-0.23 -0.92,-0.56 -0.81,-0.79 -0.43,-1.14 -0.86,-2.27 -1.29,-3.41 0,-0.35 0,-0.69 0,-1.04 1.39,-0.83 2.79,-1.67 4.18,-2.5 2.67,-0.05 5.33,-0.1 8,-0.16 2.2,0.35 4.4,0.69 6.6,1.04 0.51,2.3 1.01,4.61 1.52,6.91 0.73,0.74 0.84,1.7 -0.34,3.14 -1.04,0.89 -1.92,0.79 -2.81,0.73 -0.35,0.46 -0.72,1.02 -1.28,1.51 0.11,0.49 0.16,0.91 0.27,1.4 2.21,1.36 3.72,3.03 4.21,5.15 0.09,1.85 -1.67,2.76 -4.72,3.02 0.22,0.43 0.17,0.82 -0.17,1.15 1.03,0 1.09,0.34 0.4,0.83 0,0.24 0,0.49 0,0.73 0.5,3.28 -0.36,5.93 -1.74,8.17 -0.1,0.17 -0.02,0.34 0.01,0.53zm0.55 -15.86c0.43,0.59 1.19,1.47 1.44,1.61 -0.32,0.29 -1.12,1.3 -1.44,1.59 -0.01,-0.62 0.01,-2.58 0,-3.2z"/>
   <path class="fil9" d="M78 42.39c-0.01,-0.13 -0.02,-0.26 -0.03,-0.39 0.09,-0.62 -0.14,-1.25 -0.59,-1.87 -0.82,-1.11 -1.19,-2.98 -1.33,-4.49 0.23,1.57 0.78,3.45 1.51,4.4 0.62,0.96 0.74,1.74 0.44,2.36z"/>
   <path class="fil9" d="M74.91 29.11c0.79,-0.1 1.94,-0.13 2.16,0.73 1.35,-0.08 2.72,0.01 4.07,-0.08 0.05,-0 0.09,0.01 0.12,0.05 -0.61,0.45 -1.26,1.35 -0.99,1.64 0.46,0.5 1.7,0.96 2.64,1.16 0.02,0.03 0.55,-0.38 0.55,-0.35 0,0.24 0,0.49 0,0.73 0,0.04 -0.02,0.08 -0.05,0.11 -0.03,0.03 -0.08,0.04 -0.12,0.03 -0.8,-0.13 -1.61,-0.12 -2.4,0.05 -1.28,0.27 -2.4,0.92 -3.37,1.72 -0.27,0.33 -0.61,0.58 -1.02,0.75 -0.8,0.33 -1.72,0.25 -2.51,-0.07 -0.96,-0.39 -1.72,-1.12 -2.23,-1.96 -0.71,-0.63 -1.12,-1.4 -1.04,-2.32 -0.13,-0.73 -0.3,-1.65 0.06,-2.35 -0.02,-0.47 0.02,-1.18 0.52,-1.44 0.15,-0.08 0.33,-0.1 0.5,-0.09 0.04,0 0.08,0.02 0.1,0.05 0.03,0.03 0.04,0.06 0.03,0.1 -0.07,0.73 0.4,1.2 1.03,1.55 0.43,-0.27 1.03,-0.54 1.54,-0.33 0.17,0.07 0.31,0.18 0.42,0.32z"/>
   <path class="fil5" d="M83.31 32.26c0,0.24 0,0.49 0,0.73 -2.21,-0.36 -4.15,0.37 -5.91,1.81 -0.04,0.04 -0.08,0.08 -0.13,0.12 -1.09,-2.54 -1.44,-4.46 -0.39,-5.19 -0.21,-0.46 -0.81,-0.6 -1.67,-0.52 -0.42,0.16 -0.66,0.52 -0.73,1.09 -0.08,-0.5 -0.05,-0.93 0.23,-1.21 -0.34,-0.32 -0.83,-0.33 -1.5,0.04 -1.16,1.61 -1.57,3.11 -1.27,4.5 0.56,0.9 1.34,1.51 2.14,1.82 -0.68,-0.6 -0.96,-1.27 -0.92,-2 0.1,0.76 0.49,1.47 1.26,2.12 1.13,0.32 2.29,0.07 2.98,-0.78 -0.78,-2.08 -1.36,-4.02 -0.45,-4.81 1.35,-0.09 2.86,0 4.2,-0.08 -0.03,0.47 -0.25,0.61 -0.17,0.94 0.12,0.5 0.09,0.68 0.41,0.98 0.43,0.39 1.41,0.59 1.92,0.44zm-8.9 3.32c-0.11,-0.03 -0.22,-0.07 -0.33,-0.11l0.33 0.11zm-2.72 -2.21c-0.63,-0.62 -0.91,-1.31 -0.84,-2.08 -0.15,-0.84 -0.28,-1.68 0.06,-2.32 -0.05,-1.03 0.27,-1.46 0.86,-1.41 -0.08,0.79 0.41,1.32 1.19,1.73l0.25 -0.15c-0.08,0.04 -0.16,0.09 -0.25,0.15 -0.98,0.95 -1.37,2.34 -1.26,4.08zm3.01 -4.27c0.05,0.05 0.1,0.1 0.14,0.16l0.36 -0.04c-0.12,0.01 -0.24,0.02 -0.36,0.04l-0.14 -0.16zm2.18 0.64c0.03,0.07 0.06,0.16 0.07,0.25l-0.07 -0.25zm-2.75 1.08c-0.42,1.26 -0.36,2.33 0.08,3.24 -0.22,-1.03 -0.24,-2.11 -0.08,-3.24z"/>
   <path class="fil9" d="M87.65 4.57c1.43,-0 2.34,0.72 2.7,2.08 0.02,0.08 -0.02,0.17 -0.1,0.21 -0.08,0.04 -0.18,0.02 -0.24,-0.04 -0.53,-0.53 -1.31,-1.17 -2.13,-0.97 0.7,0.99 1.23,2.08 1.47,3.25 0.21,1.02 0.19,2.04 -0.03,3.05 -0.25,1.16 -0.6,2.15 -1.24,3.17 -0.03,0.05 -0.07,0.14 -0.14,0.14 -0.06,0.01 -0.14,-0.07 -0.18,-0.11 -0.4,-0.4 -1.01,-0.54 -1.61,-0.52 -0.24,0.01 -0.48,0.05 -0.72,0.11 -0.07,0.02 -0.13,0 -0.18,-0.04 -1.76,-1.42 -2.27,-3.17 -1.78,-5.14 -0.5,0.42 -1.03,0.77 -1.66,1.07 -1.3,0.6 -2.81,0.87 -4.24,0.99 -0.08,0.01 -0.15,-0.03 -0.19,-0.09 -0.04,-0.06 -0.04,-0.14 0.01,-0.2 0.66,-0.88 1.15,-1.85 1.33,-2.9 -2.05,0.73 -3.08,2.67 -3.53,4.57 -0.01,0.06 -0.05,0.1 -0.11,0.13 -0.06,0.02 -0.12,0.02 -0.18,-0.01 -1.64,-0.84 -2.56,-2.09 -2.93,-3.68 -0.13,0.89 0.02,1.7 0.48,2.61 0.03,0.07 0.02,0.14 -0.03,0.2 -0.05,0.06 -0.13,0.08 -0.21,0.05 -0.65,-0.21 -1.24,-0.51 -1.7,-1 -0.29,-0.3 -0.49,-0.64 -0.67,-0.99 -0.27,0.32 -0.49,0.67 -0.64,1.06 -0.48,1.24 -0.3,2.54 0.35,3.67 0.04,0.06 0.03,0.13 -0.01,0.19 -0.04,0.06 -0.11,0.09 -0.18,0.08 -0.37,-0.03 -0.58,-0.1 -0.95,-0.13 -0.07,-0.01 -0.12,-0.04 -0.15,-0.09 -0.57,-0.94 -1.04,-1.95 -1.34,-2.99 -0.26,-0.9 -0.4,-1.83 -0.38,-2.77 0.04,-1.69 0.6,-3.28 1.62,-4.68 1.45,-1.99 3.7,-3.42 6.13,-4.18 4.45,-1.4 9.6,-0.61 12.38,3.13 0.03,-0.03 0.06,-0.07 0.09,-0.11 0.21,-0.32 0.11,-0.92 0.06,-1.28 -0.01,-0.08 0.03,-0.16 0.11,-0.19 0.08,-0.03 0.17,-0.02 0.23,0.04 0.13,0.14 0.26,0.28 0.37,0.43 0.42,0.62 0.38,1.25 0.13,1.89z"/>
   <path class="fil13" d="M87.01 2.37c0.1,0.68 0.19,1.37 -0.39,1.67 -6.3,-8.88 -25.69,-1.27 -18.19,11.14 0.37,0.03 0.57,0.06 0.94,0.09 -1.21,-2.09 -0.74,-3.78 0.52,-5.11 0.4,0.85 0.86,1.67 2.39,2.16 -0.58,-1.16 -0.74,-2.24 -0.25,-3.7 0.22,2.53 1.56,3.8 2.98,4.53 0.6,-2.54 1.98,-4.24 3.96,-4.8 -0.13,1.11 -0.6,2.21 -1.4,3.28 3.78,-0.32 5.24,-1.44 6.32,-2.49 -0.8,2.25 -0.32,4.13 1.52,5.62 0.77,-0.19 1.71,-0.36 2.52,0.46 2.25,-3.6 1.76,-6.63 -0.33,-9.47 0.84,-0.36 1.7,0.05 2.58,0.94 -0.38,-1.42 -1.34,-2.03 -2.81,-1.93 0.59,-1.21 0.2,-1.85 -0.34,-2.39z"/>
   <path class="fil9" d="M71.92 27.11c0.03,0.4 -0.08,0.55 -0.05,0.96 0.2,-1.22 0.44,-2.19 1.03,-3.22 0.11,-0.21 0.09,-0.3 -0.05,-0.12 -0.42,0.69 -0.71,1.47 -0.92,2.38z"/>
   <path class="fil9" d="M80.49 22.92c0.02,0.1 0.04,0.2 0.06,0.3 0.05,0.26 0.09,0.51 0.11,0.77 0.03,0.39 0.03,0.78 0.02,1.16 0.02,0.53 0.07,0.75 0.32,1.23 0.03,0.06 0.03,0.12 -0,0.18 -0.03,0.06 -0.09,0.09 -0.16,0.1 -1.28,0.18 -1.99,-0.73 -2.45,-1.7 -0.22,-0.48 -0.18,-0.81 -0.55,-1.37 -0.18,0.14 -0.38,0.25 -0.62,0.3 -0.31,0.06 -0.63,0.01 -0.92,-0.1 -0.28,-0.1 -0.55,-0.25 -0.8,-0.41 -0.18,0.19 -0.23,0.51 -0.23,0.74 -0,0.45 0.14,0.93 0.36,1.33 0.03,0.06 0.07,0.12 0.11,0.18 0.04,0.07 0.04,0.15 -0.01,0.21 -0.05,0.07 -0.13,0.1 -0.21,0.08 -0.84,-0.14 -1.82,-0.49 -2.16,-1.28 -0.09,-0.21 -0.13,-0.43 -0.12,-0.65 0.01,-0.28 0.14,-0.53 0.28,-0.77 0.14,-0.24 0.28,-0.47 0.38,-0.72 0.03,-0.09 0.13,-0.14 0.23,-0.13 1.87,0.25 3.81,0.28 5.65,-0.14 1.31,-0.3 2.47,-0.81 3.57,-1.54 0.05,-0.03 0.1,-0.04 0.16,-0.03 0.55,0.09 1.1,0.28 1.48,0.66 0.49,0.48 0.59,1.15 0.56,1.79 -0,0.08 -0.06,0.15 -0.14,0.18 -0.08,0.03 -0.17,0.01 -0.23,-0.05 -0.27,-0.26 -0.55,-0.49 -0.87,-0.7 -0.23,-0.15 -0.46,-0.27 -0.7,-0.4 -0.45,-0.24 -1.25,0 -1.7,0.17 -0.49,0.18 -0.95,0.42 -1.44,0.61z"/>
   <path class="fil12" d="M81.85 22.12c0.56,-0.2 1.37,-0.43 1.88,-0.15 0.44,0.24 0.92,0.47 1.61,1.13 0.06,-1.4 -0.59,-2.03 -1.87,-2.25 -1.93,1.28 -4.66,2.34 -9.38,1.71 -0.21,0.55 -0.63,0.97 -0.65,1.43 -0.04,0.87 0.7,1.49 2.11,1.73 -0.62,-0.94 -0.7,-2.24 -0.07,-2.6 0.93,0.64 1.76,0.85 2.38,0.15 0.31,0.39 0.46,0.93 0.72,1.6 0.54,1.39 1.4,1.7 2.22,1.59 -0.26,-0.5 -0.31,-0.72 -0.34,-1.31 0.02,-1.31 -0.08,-1.69 -0.22,-2.36 0.63,-0.23 0.97,-0.44 1.6,-0.68z"/>
   <path class="fil9" d="M78.87 22.49c-0.06,0.04 -0.12,0.09 -0.18,0.13 0.5,0.52 0.75,1.4 0.92,2.41 -0.02,-0.9 -0.12,-1.78 -0.74,-2.54z"/>
   <path class="fil9" d="M85.09 21.74c-0.17,-0.24 -0.51,-0.4 -1.04,-0.49 0.23,0 0.54,0.07 0.91,0.22 0.04,0.09 0.08,0.18 0.13,0.27z"/>
   <path class="fil9" d="M72.68 22.08c0.02,-0.05 0.05,-0.1 0.07,-0.15 0.69,0.33 1.35,0.49 1.99,0.51 -0.04,0.06 -0.08,0.12 -0.13,0.18 -0.7,-0.07 -1.35,-0.23 -1.94,-0.54z"/>
   <path class="fil9" d="M76.01 22.69l-0.08 0.02c-0.05,0.04 -0.11,0.07 -0.16,0.12 -0.08,0.09 -0.14,0.06 -0.2,0.2 -0.01,0.03 -0.11,0.16 -0.1,0.18 0,0 0.08,0.06 0.1,-0.01 0.01,-0.03 0.13,-0.18 0.18,-0.2 0.03,-0.02 0.18,-0.12 0.19,-0.15 0,-0 0.11,-0.14 0.11,-0.15 -0.02,-0 -0.03,0 -0.05,-0zm0.79 0.53c0.15,0 0.21,0.04 0.36,0.05 0.06,0 0.13,0.1 0.25,0.09 0.09,-0 0.07,0.08 0.16,0.16 0.02,0.01 0.11,0.18 0.04,0.18 -0.22,0 -0.11,0.03 -0.19,-0.18 -0.01,-0.02 0.01,-0.04 -0.05,-0.08 -0.07,-0.05 -0.08,-0.06 -0.17,-0.07 -0.02,-0 -0.33,-0.14 -0.41,-0.09 -0,0.06 -0.01,0.1 -0.02,0.12 -0.12,0.26 -0.04,0.18 -0.3,0.33 -0.08,0.05 0.05,-0.01 0.11,-0.07 0.21,-0.21 0.17,-0.39 0.17,-0.65 0,-0.1 -0.06,-0.18 -0.06,-0.23 -0,-0.02 -0.07,-0.11 -0.08,-0.11l0.07 -0.04c0.1,-0.03 0.06,0.08 0.08,0.15 0.01,0.06 0.01,0.14 0.02,0.17 0.01,0.04 0.01,0.16 0.01,0.27zm0.78 -0.55l0.08 0.05c0.05,0.08 0.05,0.06 0.08,0.15 0.02,0.06 0.05,0.09 0.07,0.19 0.01,0.05 0.16,0.46 0.1,0.46 -0.11,-0 -0.05,-0.14 -0.13,-0.21 -0.04,-0.04 -0.06,-0.09 -0.09,-0.14 -0.04,-0.06 -0.15,-0.29 -0.15,-0.35 0,-0.07 -0.09,-0.1 -0,-0.14l0.01 -0.01c0.01,0 0.03,0 0.04,0z"/>
   <path class="fil9" d="M85.63 14.89c-0.06,0.01 -0.13,0.03 -0.19,0.04 -0.44,0.14 -0.8,0.5 -1.12,0.96 0.21,-0.58 0.56,-0.97 1.08,-1.14 0.08,0.04 0.16,0.09 0.24,0.13zm-0.94 4.47c0.07,-0.05 0.14,-0.1 0.21,-0.15 -0.41,-0.07 -0.71,-0.34 -0.93,-0.74 -0.05,0.47 0.19,0.77 0.72,0.89z"/>
   <path class="fil9" d="M70.53 14.28c0.71,-0.42 1.57,-0.61 2.64,-0.5 0.29,-0.01 0.29,-0.38 0.03,-0.42 -1.29,-0.02 -2.21,0.26 -2.67,0.92zm7.12 6.27c-0.46,0.34 -0.97,0.41 -1.52,0.3 0.53,-0 1.04,-0.09 1.52,-0.3zm1 -1.1c-1.53,1.01 -2.96,1.11 -4.29,0.21 1.28,0.51 2.7,0.49 4.29,-0.21zm-4.24 -0.89c-0.44,-0.64 0.57,-1.09 0.9,-0.46 -0.44,-0.3 -1.03,-0.18 -0.9,0.46zm6.43 -4.77c-0.79,-0.3 -1.71,-0.37 -2.78,-0.1 -0.3,0.04 -0.36,-0.33 -0.11,-0.41 1.31,-0.22 2.3,-0.08 2.89,0.51z"/>
   <path class="fil14" d="M81.45 18.3c0.46,0 0.83,0.19 0.83,0.42 0,0.23 -0.37,0.42 -0.83,0.42 -0.46,0 -0.83,-0.19 -0.83,-0.42 0,-0.23 0.37,-0.42 0.83,-0.42zm-10.44 0.06c0.46,0 0.83,0.19 0.83,0.42 0,0.23 -0.37,0.42 -0.83,0.42 -0.46,0 -0.83,-0.19 -0.83,-0.42 0,-0.23 0.37,-0.42 0.83,-0.42z"/>
   <path class="fil5" d="M79.69 15.37c0.92,0 1.67,0.63 1.67,1.41 0,0.78 -0.75,1.41 -1.67,1.41 -0.92,0 -1.67,-0.63 -1.67,-1.41 0,-0.78 0.75,-1.41 1.67,-1.41z"/>
   <path class="fil9" d="M80.3 15.86c0.38,0.18 0.64,0.52 0.64,0.92 0,0.58 -0.56,1.05 -1.25,1.05 -0.69,0 -1.25,-0.47 -1.25,-1.05 0,-0.34 0.19,-0.64 0.48,-0.83 -0.29,0.05 -0.58,0.12 -0.86,0.22 0.89,-1 1.99,-1.06 3.31,-0.18 -0.36,-0.07 -0.72,-0.11 -1.08,-0.13z"/>
   <path class="fil5 str0" d="M79.69 15.85c0.24,0 0.43,0.16 0.43,0.36 0,0.2 -0.19,0.36 -0.43,0.36 -0.24,0 -0.43,-0.16 -0.43,-0.36 0,-0.2 0.19,-0.36 0.43,-0.36z"/>
   <path class="fil10" d="M78.26 18.67c-0.01,-0.19 -0.01,-0.37 -0.02,-0.56 1.28,-0.41 2.45,-0.52 3.55,-0.43 0.01,0.09 0.02,0.19 0.03,0.28 -1.19,0.23 -2.37,0.47 -3.56,0.7z"/>
   <path class="fil5" d="M72.3 15.43c0.78,0 1.41,0.63 1.41,1.41 0,0.78 -0.63,1.41 -1.41,1.41 -0.78,0 -1.41,-0.63 -1.41,-1.41 0,-0.78 0.63,-1.41 1.41,-1.41z"/>
   <path class="fil9" d="M72.81 15.92c0.32,0.18 0.54,0.52 0.54,0.92 0,0.58 -0.47,1.05 -1.05,1.05 -0.58,0 -1.05,-0.47 -1.05,-1.05 0,-0.34 0.16,-0.64 0.41,-0.83 -0.25,0.05 -0.49,0.12 -0.73,0.22 0.75,-1 1.68,-1.06 2.79,-0.18 -0.31,-0.07 -0.61,-0.11 -0.91,-0.13z"/>
   <path class="fil5 str0" d="M72.3 15.91c0.2,0 0.36,0.16 0.36,0.36 0,0.2 -0.16,0.36 -0.36,0.36 -0.2,0 -0.36,-0.16 -0.36,-0.36 0,-0.2 0.16,-0.36 0.36,-0.36z"/>
   <path class="fil10" d="M73.76 18.81c0.01,-0.19 0.01,-0.37 0.02,-0.56 -1.28,-0.41 -2.45,-0.52 -3.55,-0.43 -0.01,0.09 -0.02,0.19 -0.03,0.28 1.19,0.23 2.37,0.47 3.56,0.7z"/>
   <path class="fil9" d="M79.31 43.08c-0.07,0.01 -0.13,0.02 -0.19,0.03 0.14,-0.13 0.15,-0.37 0.12,-0.66 0.08,0.16 0.1,0.38 0.08,0.63z"/>
   <path class="fil9" d="M80.1 43.14c-0.06,0.01 -0.13,0.02 -0.19,0.03 0.14,-0.13 0.15,-0.37 0.12,-0.66 0.08,0.16 0.1,0.38 0.08,0.63z"/>
   <path class="fil9" d="M80.94 43.11c-0.06,0.01 -0.13,0.02 -0.19,0.03 0.12,-0.13 0.09,-0.37 0.01,-0.66 0.1,0.16 0.16,0.38 0.18,0.63z"/>
   <path class="fil9" d="M81.73 42.93c-0.06,0.01 -0.12,0.02 -0.18,0.03 0.09,-0.13 0.02,-0.37 -0.11,-0.66 0.13,0.16 0.23,0.38 0.3,0.63z"/>
   <path class="fil15" d="M85.07 17.88c0.19,0.06 0.39,0.12 0.58,0.19 1.24,-0.06 1.83,-0.64 1.98,-1.58 -0.08,-0.19 -0.15,-0.38 -0.23,-0.56 -0.38,-0.07 -0.75,-0.15 -1.13,-0.22 -0.27,0.27 -0.54,0.54 -0.8,0.81 -0.22,0.23 -0.45,0.46 -0.67,0.68 0.09,0.23 0.18,0.46 0.27,0.69zm-14.9 8.78c-0.66,-0.28 -1.33,-0.55 -1.99,-0.83 2.21,0.44 3.7,0.03 4.71,-0.98 -0.2,0.35 -0.41,0.69 -0.61,1.04 -0.06,0.34 -0.13,0.67 -0.19,1.01 -0.64,-0.08 -1.28,-0.15 -1.92,-0.23zm12.19 2.13c-0.07,-0.88 -0.13,-1.76 -0.19,-2.64 -0.34,1.73 -1.15,3.11 -3.06,3.65 0.68,0.03 1.36,0.06 2.05,0.1 0.12,-0.2 0.24,-0.41 0.36,-0.61 0.28,-0.17 0.57,-0.34 0.85,-0.51zm-0.78 12.89c0.14,0.34 0.28,0.65 0.44,0.87 0.1,0.23 -0.06,0.31 -0.41,0.29 -0.11,0.25 -0.39,0.26 -0.74,0.18 -0.28,0.21 -0.55,0.22 -0.83,0.01 -0.28,0.13 -0.54,0.14 -0.74,-0.03 -0.87,0.25 -1.35,-0.07 -1.33,-1.01 -0.32,0.31 -1.06,-0.23 -2.32,0.01 -0.27,0.05 -0.73,0.09 -1,0.08 -1.5,0.23 -1.87,-0.71 -0.59,-0.91 0.45,-0.25 0.33,-0.56 0.08,-0.88 -0.45,-0.63 -0.87,-1.28 -1.24,-1.97 1.9,2.02 3,1.43 4,0.53 2.38,1.88 4.18,1.53 5.73,0.19 -0.29,0.74 -0.66,1.44 -1.06,2.1 -0.1,0.17 -0.02,0.34 0.01,0.53zm2.92 -22.37c-0.07,-0.03 -0.13,-0.06 -0.2,-0.09 -2.64,3.38 -9.12,3.85 -13.4,1.61 1.74,1.45 4.27,2.49 9.85,1.25 2.25,-0.72 3.17,-1.77 3.75,-2.77z"/>
   <path class="fil9" d="M86.88 17.13c-0.26,-0.93 -1.12,-0.69 -1.48,-0.39 -0.39,0.33 -0.47,0.99 0.26,1.33 -0.98,-0.06 -1.2,-0.95 -0.28,-1.77 1.16,-1.03 2.05,-0.89 2.26,0.19 -0.39,-0.68 -0.9,-0.8 -1.52,-0.31 0.84,0.17 0.82,0.55 0.76,0.96z"/>
   <path class="fil12 str0" d="M82.28 26.35c0.22,0.28 0.89,1.06 1.03,1.12 -0.16,0.13 -0.84,0.94 -1,1.07 -0,-0.29 -0.02,-1.9 -0.02,-2.2z"/>
   <path class="fil9" d="M83.15 27.88c0.05,-0.14 0.1,-0.27 0.15,-0.41 0.46,-0.42 0.81,-0.61 1.12,-0.74 -0.44,0.29 -0.86,0.67 -1.27,1.14z"/>
   <path class="fil9" d="M82.65 26.84c-0.02,-0.14 -0.03,-0.28 -0.05,-0.43 -0.34,-0.51 -0.64,-0.77 -0.91,-0.95 0.35,0.38 0.68,0.83 0.96,1.38z"/>
   <path class="fil9" d="M83.5 32.31c-0.48,0.27 -1.18,-0.03 -1.64,-0.21 -0.39,-0.16 -0.77,-0.47 -0.89,-0.86 -0.15,-0.48 -0.05,-1.04 0.17,-1.49 0.04,-0.08 0.09,-0.16 0.15,-0.23 0.13,-0.16 0.31,-0.29 0.47,-0.42 0.17,-0.13 0.35,-0.26 0.49,-0.42 0.03,-0.03 0.08,-0.03 0.11,-0.01 0.03,0.03 0.04,0.07 0.01,0.1 -0.15,0.17 -0.33,0.3 -0.51,0.44 -0.16,0.12 -0.32,0.24 -0.45,0.39 -0.05,0.06 -0.1,0.13 -0.13,0.2 -0.21,0.42 -0.3,0.94 -0.16,1.39 0.1,0.34 0.45,0.62 0.8,0.76 0.4,0.16 1.08,0.45 1.5,0.22 0.04,-0.02 0.09,-0.01 0.11,0.03 0.02,0.03 0.01,0.08 -0.03,0.1z"/>
   <path class="fil16" d="M46.32 38.7c0.75,0.09 1.13,-0.1 1.83,-0.91 -0.21,-0.4 -0.07,-0.32 -0.28,-0.72 -0.38,0.07 -0.77,0.14 -1.15,0.21 -0.17,0.6 -0.23,0.81 -0.4,1.41z"/>
   <path class="fil16" d="M42.87 34.09c0.34,1.2 1.24,2.02 3.28,2.05 0.45,0.14 0.89,0.27 1.34,0.41 0.17,-2.84 -0.53,-5.02 -4.3,-4.83 -0.01,-0.47 -0.34,-0.29 -0.81,0.16 -2.65,0.86 -2.5,2.27 -2.72,3.6 -1.86,1.03 -1.49,2.14 -0.28,3.28 0.66,0.35 0.99,0.33 1.26,0.25 -0.14,-1 -0.28,-2 -0.41,-3.01 0.93,-0.03 1.85,-0.1 2.65,-1.91z"/>
   <path class="fil17" d="M43.53 33.84c1.94,0 3.52,1.48 3.52,3.3 0,1.82 -1.58,3.3 -3.52,3.3 -1.48,0 -2.75,-0.86 -3.27,-2.07 -0.04,0 -0.08,0.01 -0.12,0.01 -0.6,0 -1.08,-0.51 -1.08,-1.14 0,-0.63 0.48,-1.14 1.08,-1.14 0.01,0 0.03,0 0.04,0 0.46,-1.32 1.78,-2.26 3.34,-2.26z"/>
   <path class="fil16" d="M42.87 34.09c0.32,1.12 1.12,1.9 2.87,2.03l1.76 0c0.04,-1.36 -0.16,-2.54 -0.86,-3.33l-6 0c-0.87,0.79 -0.84,1.76 -1,2.69 -0.38,0.21 -0.67,0.43 -0.88,0.64l1.46 0 -0.02 -0.12c0.93,-0.03 1.85,-0.1 2.65,-1.91z"/>
   <path class="fil18" d="M45.18 36.99c0.28,0 0.56,0.14 0.67,0.38 0.03,0.07 0.05,0.14 0.05,0.21 0,0.01 0,0.01 -0,0.02 -0,0.05 -0.04,0.08 -0.09,0.08l-0.11 0c-0.03,0 -0.05,-0.01 -0.07,-0.03 -0.02,-0.02 -0.03,-0.04 -0.03,-0.06 0,-0 0,-0.01 0,-0.01 0,-0.04 -0.01,-0.07 -0.02,-0.1 -0.06,-0.15 -0.24,-0.22 -0.4,-0.22 -0.16,0 -0.34,0.08 -0.4,0.22 -0.01,0.03 -0.02,0.07 -0.02,0.1 0,0 0,0.01 0,0.01 0,0.02 -0.01,0.05 -0.03,0.06 -0.02,0.02 -0.04,0.03 -0.07,0.03l-0.11 0c-0.05,0 -0.09,-0.04 -0.09,-0.08 -0,-0.01 -0,-0.01 -0,-0.02 0,-0.07 0.02,-0.14 0.05,-0.21 0.11,-0.24 0.39,-0.38 0.67,-0.38z"/>
   <path class="fil18" d="M41.86 36.75c0.28,0 0.56,0.14 0.67,0.38 0.03,0.07 0.05,0.14 0.05,0.21 0,0.01 -0,0.01 -0,0.02 -0,0.05 -0.04,0.08 -0.09,0.08l-0.11 0c-0.03,0 -0.05,-0.01 -0.07,-0.03 -0.02,-0.02 -0.03,-0.04 -0.03,-0.06 0,-0 0,-0.01 0,-0.01 0,-0.04 -0.01,-0.07 -0.02,-0.1 -0.06,-0.15 -0.24,-0.22 -0.4,-0.22 -0.16,0 -0.34,0.08 -0.4,0.22 -0.01,0.03 -0.02,0.07 -0.02,0.1 0,0 0,0.01 0,0.01 0,0.02 -0.01,0.05 -0.03,0.06 -0.02,0.02 -0.04,0.03 -0.07,0.03l-0.11 0c-0.05,0 -0.09,-0.04 -0.09,-0.08 0,-0.01 -0,-0.01 -0,-0.02 0,-0.07 0.02,-0.14 0.05,-0.21 0.11,-0.24 0.39,-0.38 0.67,-0.38z"/>
   <path class="fil19" d="M43.35 39.47c0.36,0 0.71,-0.14 0.86,-0.38 0.04,-0.07 0.06,-0.14 0.06,-0.21 0,-0.01 0,-0.01 -0,-0.02 -0,-0.05 -0.05,-0.08 -0.12,-0.08l-0.14 0c-0.03,0 -0.06,0.01 -0.09,0.03 -0.02,0.02 -0.03,0.04 -0.03,0.06 0,0 0,0.01 0,0.01 0,0.03 -0.01,0.07 -0.03,0.1 -0.08,0.15 -0.31,0.22 -0.51,0.22 -0.21,0 -0.43,-0.08 -0.52,-0.22 -0.02,-0.03 -0.03,-0.07 -0.03,-0.1 0,-0 0,-0.01 0,-0.01 0,-0.02 -0.01,-0.04 -0.03,-0.06 -0.02,-0.02 -0.05,-0.03 -0.08,-0.03l-0.14 0c-0.06,0 -0.12,0.04 -0.12,0.08 -0,0.01 -0,0.01 -0,0.02 0,0.07 0.02,0.14 0.06,0.21 0.14,0.24 0.5,0.38 0.86,0.38z"/>
   <path class="fil20" d="M51.28 40.13c1.92,0 3.53,-1.45 3.91,-3.38 0.02,0 0.04,0 0.06,0 0.38,0 0.69,-0.42 0.69,-0.94 0,-0.52 -0.31,-0.94 -0.69,-0.94 -0.03,0 -0.05,0 -0.08,0.01 -0.41,-1.9 -2,-3.32 -3.9,-3.32 -2.21,0 -3.99,1.91 -4,4.27 -0.21,0.16 -0.35,0.47 -0.35,0.82 0,0.52 0.31,0.94 0.69,0.94l0 0c0.62,1.5 2.03,2.55 3.66,2.55z"/>
   <path class="fil18" d="M49.63 35.77c0.35,0 0.7,0.17 0.84,0.46 0.04,0.08 0.06,0.17 0.06,0.26 0,0.01 -0,0.01 -0,0.02 -0,0.06 -0.05,0.1 -0.12,0.1l-0.14 0c-0.03,0 -0.06,-0.01 -0.08,-0.03 -0.02,-0.02 -0.03,-0.05 -0.03,-0.08 0,-0 0,-0.01 0,-0.01 0,-0.04 -0.01,-0.08 -0.03,-0.12 -0.08,-0.18 -0.3,-0.27 -0.51,-0.27 -0.21,0 -0.43,0.09 -0.51,0.27 -0.02,0.04 -0.03,0.08 -0.03,0.12 0,0 0,0.01 0,0.01 0,0.03 -0.01,0.05 -0.03,0.08 -0.02,0.02 -0.05,0.03 -0.08,0.03l-0.14 0c-0.06,0 -0.11,-0.04 -0.12,-0.1 -0,-0.01 -0,-0.01 -0,-0.02 0,-0.09 0.02,-0.18 0.06,-0.26 0.14,-0.3 0.49,-0.46 0.84,-0.46z"/>
   <path class="fil18" d="M53.27 35.15c0.35,0 0.7,0.17 0.84,0.46 0.04,0.08 0.06,0.17 0.06,0.26 0,0.01 -0,0.01 -0,0.02 -0,0.06 -0.05,0.1 -0.12,0.1l-0.14 0c-0.03,0 -0.06,-0.01 -0.08,-0.03 -0.02,-0.02 -0.03,-0.05 -0.03,-0.08 0,-0 0,-0.01 0,-0.01 0,-0.04 -0.01,-0.08 -0.03,-0.12 -0.08,-0.18 -0.3,-0.27 -0.51,-0.27 -0.21,0 -0.43,0.09 -0.51,0.27 -0.02,0.04 -0.03,0.08 -0.03,0.12 0,0 0,0.01 0,0.01 0,0.03 -0.01,0.05 -0.03,0.08 -0.02,0.02 -0.05,0.03 -0.08,0.03l-0.14 0c-0.06,0 -0.11,-0.04 -0.12,-0.1 -0,-0.01 -0,-0.01 -0,-0.02 0,-0.09 0.02,-0.18 0.06,-0.26 0.14,-0.3 0.49,-0.46 0.84,-0.46z"/>
   <path class="fil18" d="M51.6 37.91c-0.3,0 -0.61,-0.17 -0.73,-0.46 -0.03,-0.08 -0.05,-0.17 -0.05,-0.26 0,-0.01 0,-0.01 0,-0.02 0,-0.06 0.05,-0.1 0.1,-0.1l0.12 0c0.03,0 0.05,0.01 0.07,0.03 0.02,0.02 0.03,0.05 0.03,0.08 0,0 -0,0.01 -0,0.01 0,0.04 0.01,0.08 0.02,0.12 0.07,0.18 0.26,0.27 0.44,0.27 0.18,0 0.37,-0.09 0.44,-0.27 0.02,-0.04 0.02,-0.08 0.02,-0.12 0,-0 -0,-0.01 -0,-0.01 -0,-0.03 0.01,-0.05 0.03,-0.08 0.02,-0.02 0.04,-0.03 0.07,-0.03l0.12 0c0.05,0 0.1,0.04 0.1,0.1 0,0.01 0,0.01 0,0.02 0,0.09 -0.02,0.18 -0.05,0.26 -0.12,0.3 -0.43,0.46 -0.73,0.46z"/>
   <path class="fil21" d="M50.9 37.83c-0.18,-1.42 -2.51,0.22 -0.83,0.53 0,0.26 0.27,0.37 0.7,0.4 0.1,0.21 0.4,0.19 0.81,0.06 0.32,0.11 0.62,0.14 0.84,-0.18 0.33,0.01 0.57,-0.07 0.6,-0.37 0.36,-0.01 0.48,-0.26 0.53,-0.59 1.61,-0.67 -1.59,-1.54 -1.03,-0.29 -0.17,0.11 -0.19,0.26 -0.29,0.36 -0.16,0.17 -0.34,0.1 -0.31,0.36 -0.16,-0.23 -0.35,-0.14 -0.5,-0.19 -0.18,-0.06 -0.35,-0.15 -0.53,-0.09z"/>
   <path class="fil21" d="M52.32 34.91c-0.32,-0.2 -0.41,-0.36 0.1,-0.44 0,-0.11 0.16,-0.16 0.41,-0.17 0.06,-0.09 0.23,-0.08 0.47,-0.03 0.18,-0.05 0.36,-0.06 0.49,0.08 0.19,-0.01 0.33,0.03 0.35,0.16 0.03,0 1.03,0.4 0.23,0.64 0.17,-0.15 -1.72,-0.42 -2.03,-0.25z"/>
   <path class="fil21" d="M48.24 36.23c-0.39,-0 -0.56,-0.09 -0.17,-0.42 -0.07,-0.09 0.04,-0.21 0.24,-0.35 -0.01,-0.11 0.14,-0.19 0.37,-0.26 0.13,-0.13 0.26,-0.23 0.45,-0.18 0.16,-0.1 0.3,-0.14 0.39,-0.04 0.03,-0.01 1.1,-0.19 0.57,0.42 0.05,-0.22 -1.69,0.52 -1.85,0.82z"/>
   <path class="fil21" d="M53.93 32.8c0.02,-0.46 0.16,-0.68 0.6,-0.28 0.14,-0.09 0.3,0.01 0.49,0.22 0.15,-0.03 0.26,0.14 0.36,0.4 0.18,0.13 0.32,0.27 0.24,0.51 0.14,0.17 0.19,0.33 0.04,0.46 0.02,0.03 0.23,1.28 -0.62,0.75 0.31,0.03 -0.68,-1.93 -1.1,-2.07z"/>
   <path class="fil21" d="M48 33.94c-0.16,-0.46 -0.36,-0.68 -0.68,-0.28 -0.16,-0.09 -0.3,0.01 -0.42,0.22 -0.16,-0.03 -0.22,0.14 -0.23,0.4 -0.15,0.13 -0.24,0.27 -0.08,0.51 -0.09,0.17 -0.09,0.33 0.1,0.46 -0.01,0.03 0.15,1.28 0.85,0.75 -0.3,0.03 0.1,-1.93 0.48,-2.07z"/>
   <path class="fil18" d="M41.5 35.57c0.84,0 1.55,0.47 1.77,1.12 0.07,-0.02 0.15,-0.03 0.23,-0.03 0.12,0 0.23,0.02 0.34,0.07 0.31,-0.51 0.93,-0.85 1.65,-0.85 1.02,0 1.85,0.71 1.85,1.58 0,0.87 -0.83,1.58 -1.85,1.58 -1.02,0 -1.85,-0.71 -1.85,-1.58 0,-0.17 0.03,-0.33 0.09,-0.48 -0.07,-0.03 -0.15,-0.05 -0.22,-0.05 -0.06,0 -0.11,0.01 -0.17,0.03 0.01,0.06 0.01,0.13 0.01,0.19 0,0.87 -0.83,1.58 -1.85,1.58 -1.02,0 -1.85,-0.71 -1.85,-1.58 0,-0.87 0.83,-1.58 1.85,-1.58zm3.99 0.6c0.85,0 1.53,0.57 1.53,1.28 0,0.71 -0.69,1.28 -1.53,1.28 -0.85,0 -1.53,-0.57 -1.53,-1.28 0,-0.71 0.69,-1.28 1.53,-1.28zm-3.99 -0.31c0.85,0 1.53,0.57 1.53,1.28 0,0.71 -0.69,1.28 -1.53,1.28 -0.85,0 -1.53,-0.57 -1.53,-1.28 0,-0.71 0.69,-1.28 1.53,-1.28z"/>
  </g>
 </g>
</svg>
