<?xml version="1.0" encoding="UTF-8"?>
<!DOCTYPE svg PUBLIC "-//W3C//DTD SVG 1.1//EN" "http://www.w3.org/Graphics/SVG/1.1/DTD/svg11.dtd">
<!-- Creator: CorelDRAW -->
<svg xmlns="http://www.w3.org/2000/svg" xml:space="preserve" width="30.5526mm" height="33.8667mm" version="1.1" style="shape-rendering:geometricPrecision; text-rendering:geometricPrecision; image-rendering:optimizeQuality; fill-rule:evenodd; clip-rule:evenodd"
viewBox="0 0 221.35 245.36"
 xmlns:xlink="http://www.w3.org/1999/xlink"
 xmlns:xodm="http://www.corel.com/coreldraw/odm/2003">
 <defs>
  <style type="text/css">
   <![CDATA[
    .fil12 {fill:none;fill-rule:nonzero}
    .fil15 {fill:black}
    .fil5 {fill:#FEFEFE;fill-rule:nonzero}
    .fil0 {fill:#FFF7D4;fill-rule:nonzero}
    .fil7 {fill:#F58934;fill-rule:nonzero}
    .fil9 {fill:#EFBC50;fill-rule:nonzero}
    .fil10 {fill:#E28F38;fill-rule:nonzero}
    .fil6 {fill:#CF5939;fill-rule:nonzero}
    .fil2 {fill:#BAC0C2;fill-rule:nonzero}
    .fil14 {fill:#B2B2B2;fill-rule:nonzero}
    .fil4 {fill:#949B9D;fill-rule:nonzero}
    .fil13 {fill:#3D3B3C;fill-rule:nonzero}
    .fil11 {fill:#363435;fill-rule:nonzero}
    .fil8 {fill:#282828;fill-rule:nonzero}
    .fil1 {fill:black;fill-rule:nonzero}
    .fil17 {fill:#FDFDFD;fill-rule:nonzero}
    .fil18 {fill:white;fill-rule:nonzero}
    .fil16 {fill:url(#id0)}
    .fil3 {fill:url(#id1)}
   ]]>
  </style>
  <linearGradient id="id0" gradientUnits="userSpaceOnUse" x1="27.72" y1="199.92" x2="193.65" y2="199.92">
   <stop offset="0" style="stop-opacity:1; stop-color:#DEA21C"/>
   <stop offset="0.74902" style="stop-opacity:1; stop-color:#D0972C"/>
   <stop offset="1" style="stop-opacity:1; stop-color:#C18B3C"/>
  </linearGradient>
  <radialGradient id="id1" gradientUnits="userSpaceOnUse" gradientTransform="matrix(0.999998 -0 -0 -0.999998 0 212)" cx="111.15" cy="105.86" r="204.14" fx="111.15" fy="105.86">
   <stop offset="0" style="stop-opacity:1; stop-color:#FEFEFE"/>
   <stop offset="0.980392" style="stop-opacity:1; stop-color:#BCBBBC"/>
   <stop offset="1" style="stop-opacity:1; stop-color:#BCBBBC"/>
  </radialGradient>
 </defs>
 <g id="Camada_x0020_1">
  <metadata id="CorelCorpID_0Corel-Layer"/>
  <g id="_1315319238816">
   <path class="fil0" d="M202.92 105.57c0,50.68 -41.09,91.77 -91.77,91.77 -50.68,0 -91.77,-41.09 -91.77,-91.77 0,-50.68 41.09,-91.77 91.77,-91.77 50.68,0 91.77,41.09 91.77,91.77z"/>
   <path class="fil1" d="M199.37 105.57c0,48.72 -39.5,88.22 -88.22,88.22 -48.72,0 -88.22,-39.5 -88.22,-88.22 0,-48.72 39.5,-88.22 88.22,-88.22 48.72,0 88.22,39.5 88.22,88.22z"/>
   <path class="fil2" d="M195.15 105.57c0,46.39 -37.61,84 -84,84 -46.39,0 -84,-37.61 -84,-84 0,-46.39 37.61,-84 84,-84 46.39,0 84,37.61 84,84z"/>
   <path class="fil3" d="M111.88 181.69l3.48 -0.12c-0.01,0 -0.01,0 -0.01,0 3.7,-0.36 19.89,-0.84 37.13,-12.01 12.75,-8.1 23.26,-20.29 29.59,-35.53 1.26,-5.66 1.93,-11.56 1.93,-17.63 0,-15.95 -4.61,-30.77 -12.49,-43.05 5.13,9.6 8.04,20.56 8.04,32.21 0,37.77 -30.62,68.39 -68.39,68.39 -37.77,0 -68.39,-30.62 -68.39,-68.39 0,-11.65 2.91,-22.61 8.04,-32.21 -7.89,12.28 -12.49,27.1 -12.49,43.05 0,6.2 0.7,12.23 2.02,18.01 16.48,39.89 56.73,45.87 57.01,46.01 5.12,0.93 10.68,1.26 14.55,1.26zm-77.52 -73.08c-0.03,-0.78 -0.05,-1.55 -0.06,-2.34l0.06 2.34zm-0.06 -2.34c0,-0.02 0,-0.04 -0,-0.06 0,0.02 0,0.04 0,0.06zm-0 -0.07c0,-0.02 0,-0.04 0,-0.06 0,0.02 0,0.04 0,0.06zm0 -0.07c0,-0.01 -0,-0.02 -0,-0.03 0,0.01 0,0.02 0,0.03zm-0 -0.09c0,-0.01 0,-0.02 0,-0.03 0,0.01 0,0.02 0,0.03zm153.7 -0.01c0,-0.01 0,-0.01 0,-0.02 0,0.01 0,0.02 0,0.02zm-153.7 -0.04c0,-0.02 0,-0.03 0,-0.05 0,0.02 0,0.03 0,0.05zm153.71 -0c0,-0.02 0,-0.03 0,-0.05 0,0.02 0,0.03 0,0.05zm-153.71 -0.06c0,-0.02 0,-0.03 0,-0.05 0,0.02 0,0.03 0,0.05zm153.71 -0c0,-0.02 0,-0.03 0,-0.04 0,0.02 0,0.03 0,0.04zm-153.71 -0.06c-0,-0.02 -0,-0.03 -0,-0.04 0,0.01 0,0.03 0,0.04zm153.71 0c0,-0.01 0,-0.03 0,-0.04 0,0.01 0,0.03 -0,0.04zm-153.71 -0.06c0,-0.02 0,-0.03 0,-0.04 0,0.02 0,0.03 0,0.04zm153.71 0c0,-0.02 0,-0.03 0,-0.05 0,0.02 0,0.03 0,0.05zm0 -0.06c0,-0.01 0,-0.03 0,-0.04 0,0.02 0,0.03 0,0.04zm-153.71 0c0,-0.02 0,-0.03 0,-0.04 0,0.01 0,0.03 0,0.04zm0 -0.06c0,-0.01 0,-0.04 0,-0.05 0,0.02 0,0.03 0,0.05zm153.71 0c0,-0.02 0,-0.03 0,-0.05 0,0.02 0,0.04 0,0.05zm-153.71 -0.06c0,-0.02 0,-0.04 0,-0.06 0,0.02 0,0.04 0,0.06zm153.71 0c0,-0.02 0,-0.04 0,-0.06 0,0.02 0,0.04 0,0.06z"/>
   <path class="fil4" d="M38.31 116.41c0,-42.44 32.61,-76.85 72.85,-76.85 48.61,0 82.79,48.87 70.27,97.17 4.23,-9.52 6.59,-20.07 6.59,-31.16 0,-42.45 -34.41,-76.85 -76.85,-76.85 -42.45,0 -76.85,34.41 -76.85,76.85 0,11.09 2.35,21.64 6.59,31.16 -1.68,-6.47 -2.58,-13.28 -2.58,-20.32z"/>
   <path class="fil5" d="M34.3 105.57c0.21,-8.47 0.07,-12.01 2.77,-22.1 7.45,-26.55 28.09,-45.47 51.55,-52.6 50.63,-14.47 98.72,21.52 99.39,71.99 0,1.77 0,2.71 0,2.71 -0.15,-1.35 0.04,-9.15 -3.16,-20.23 -5.7,-18.88 -17.53,-33.86 -32.37,-43.3 -16.33,-10.79 -34.33,-11.8 -34.37,-11.81 -0.03,-0 -2.93,-0.22 -2.75,-0.2 -3.2,-0.28 -11.02,-0.14 -18.03,1.14 -0.03,0.02 -44.87,6.78 -59.38,52.55 -3.05,10.1 -3.08,14.16 -3.64,21.84z"/>
   <path class="fil1" d="M34.3 106.04c0.21,8.47 0.07,12.01 2.77,22.1 7.45,26.55 28.09,45.47 51.55,52.6 50.63,14.47 98.72,-21.52 99.39,-71.98 0,-1.77 0,-2.71 0,-2.71 -0.15,1.35 0.04,9.15 -3.16,20.23 -5.7,18.88 -17.53,33.86 -32.37,43.3 -16.33,10.79 -34.33,11.8 -34.37,11.81 -0.03,0 -2.93,0.22 -2.75,0.2 -3.2,0.28 -11.02,0.13 -18.03,-1.14 -0.03,-0.02 -44.87,-6.78 -59.38,-52.55 -3.05,-10.1 -3.08,-14.16 -3.64,-21.84z"/>
   <path class="fil1" d="M179.55 105.57c0,37.77 -30.62,68.39 -68.39,68.39 -37.77,0 -68.39,-30.62 -68.39,-68.39 0,-37.77 30.62,-68.39 68.39,-68.39 37.77,0 68.39,30.62 68.39,68.39z"/>
   <path class="fil6" d="M176.01 105.57c0,35.82 -29.04,64.85 -64.85,64.85 -35.82,0 -64.85,-29.04 -64.85,-64.85 0,-35.82 29.04,-64.85 64.85,-64.85 35.82,0 64.85,29.04 64.85,64.85z"/>
   <path class="fil7" d="M80.21 159.16c8.69,-16.4 20.53,-37.5 30.09,-53.95l-1.82 6.81 -23.18 38.9c-3.03,4.95 -5.08,8.23 -5.08,8.23z"/>
   <path class="fil7" d="M95.14 165.34c4.15,-18.11 10.15,-41.64 15.13,-60.01l0.88 0.24 -0.91 0 0 6.93 -12.33 43.58c-1.64,5.57 -2.78,9.27 -2.78,9.27z"/>
   <path class="fil7" d="M111.15 167.45c-0.68,-18.58 -0.97,-42.83 -0.91,-61.88l0.91 0 -0.88 0.24 1.79 6.69 -0.63 45.28c-0.14,5.8 -0.29,9.67 -0.29,9.67z"/>
   <path class="fil7" d="M127.17 165.34c-5.46,-17.76 -12.03,-41.13 -16.9,-59.54l0.88 -0.24 -0.79 0.46 3.47 6 11.12 43.9c1.36,5.64 2.23,9.41 2.23,9.41z"/>
   <path class="fil7" d="M142.1 159.16c-9.9,-15.78 -22.23,-36.58 -31.73,-53.14l0.79 -0.46 -0.65 0.65 4.9 4.9 22.1 39.53c2.78,5.1 4.59,8.52 4.59,8.52z"/>
   <path class="fil7" d="M154.91 149.32c-13.81,-12.83 -30.8,-29.53 -44.4,-43.11l0.65 -0.65 0.65 0.65c13.17,-13.1 30.63,-30.97 43.11,-44.4 -11.8,10.97 -27.74,26.49 -39.5,38.21 8.47,-14.87 18.92,-33.38 26.69,-48.05 -8.57,13.67 -19.93,32.76 -28.27,47.13 4.33,-16.55 9.63,-37.14 13.34,-53.32 -4.75,15.44 -10.76,36.78 -15.1,52.84 -0.03,-16.61 -0.32,-38.84 -0.91,-54.95 -0.59,16.14 -0.88,38.32 -0.91,54.95 -4.35,-16.08 -10.35,-37.39 -15.1,-52.84 3.71,16.18 9.01,36.76 13.34,53.32 -8.35,-14.4 -19.68,-33.45 -28.27,-47.13 7.77,14.67 18.22,33.18 26.69,48.05 -11.79,-11.74 -27.67,-27.22 -39.5,-38.21 10.98,11.81 26.48,27.73 38.21,39.5 -14.46,-8.3 -33.74,-19.11 -48.05,-26.69 14.06,8.82 32.37,19.62 47.13,28.27 -16.03,-4.27 -37.62,-9.75 -53.32,-13.34 15.4,4.74 36.82,10.78 52.84,15.1 -16.68,0.04 -38.77,0.32 -54.95,0.91 16.14,0.59 38.31,0.88 54.95,0.91 -16.5,4.53 -36.98,10.22 -52.84,15.1 15.79,-3.62 37.18,-9.07 53.32,-13.34 -14.36,8.32 -33.49,19.71 -47.13,28.27 14.24,-7.54 33.65,-18.41 48.05,-26.69 -11.75,11.8 -27.2,27.66 -38.21,39.5 11.17,-10.38 26.34,-25.17 37.56,-36.28 2.81,-2.78 2.04,-2.13 4.07,-5.64 0.68,-1.16 1.12,-1.93 1.28,-2.2 -0.02,0.08 -0.03,0.12 -0.03,0.12l1.67 0.69 3.46 -6 39.5 49.3zm-38.21 -48.01c14.47,-8.31 33.73,-19.11 48.05,-26.69 -13.68,8.58 -32.75,19.93 -47.13,28.27 16.04,-4.27 37.61,-9.74 53.32,-13.34 -17.85,5.49 -40.63,11.82 -59.03,16.76 0.36,0.36 1.16,0.17 1.91,0.17 4.07,0 3.09,-0.34 6.92,0.71 15.23,4.16 35.63,9.91 50.2,14.39 -15.8,-3.62 -37.18,-9.06 -53.32,-13.34 14.36,8.32 33.49,19.71 47.13,28.27 -16.68,-8.84 -37.38,-20.54 -54.05,-30.15l0.46 -0.79 -0.24 0.88 6.69 1.79 37.3 41.08 -38.21 -48.01zm-4.25 5.55l4.25 -5.55zm0 8.51c11.75,11.8 27.21,27.66 38.21,39.5l-38.21 -39.5z"/>
   <path class="fil7" d="M113.81 106.49c-1.69,-0.01 -2.66,-0.01 -2.66,-0.01l0 -0.91 0.24 0.88 6.69 -1.8 45.28 0.63c5.8,0.14 9.67,0.29 9.67,0.29 -17.93,0.65 -40.83,0.88 -59.22,0.92z"/>
   <path class="fil8" d="M108.46 198.13l-0 -1.76c-10.04,0.04 -23.5,-0.17 -29.67,-2.58 -2.63,-1.03 -1.82,-3.38 -2.6,-6.28 -0.54,-2.01 -1.65,-4.47 -2.41,-5.76l-1.52 0.88 1.76 0.05 2.08 -79.83 -1.76 -0.05 0.37 1.72c3.43,-0.74 3.4,-3.83 0.98,-6.49l-0.99 0.85 1.03 -0.81 -0.04 -0.05 -0.99 0.85 -0.3 0.23 1.42 -0.92c-0.05,-0.07 -0.07,-0.1 -0.09,-0.12l-1.33 1.04 -0.05 0.03 1.57 -0.75c-0.05,-0.11 -0.08,-0.16 -0.11,-0.19l-1.46 0.95 -0.01 0 1.67 -0.53c-0.04,-0.11 -0.07,-0.18 -0.09,-0.23l-1.58 0.76 1.67 -0.53 -1.68 0.53 1.76 0c-0,-0.27 -0.05,-0.42 -0.08,-0.53l-1.68 0.53 -0 0 1.66 0.59c0.09,-0.25 0.1,-0.45 0.1,-0.59l-1.76 0 1.32 1.16c0.16,-0.18 0.27,-0.39 0.34,-0.57l-1.66 -0.59 0.53 1.67c0.23,-0.07 0.55,-0.24 0.78,-0.51l-1.32 -1.16 0 1.76c0.12,0 0.29,-0.01 0.53,-0.08l-0.53 -1.67 0 1.76 1.69 0 0.62 -15.68c0.02,-0.4 0.35,-0.73 0.76,-0.73l62.1 0c0.41,-0 0.74,0.32 0.76,0.73l0.62 15.68 1.69 0 0 -1.76 -0.56 1.67c0.23,0.07 0.42,0.09 0.56,0.09l0 -1.76 -1.09 1.38c0.17,0.14 0.36,0.23 0.53,0.29l0.56 -1.67 -1.64 0.62c0.09,0.25 0.29,0.55 0.55,0.75l1.09 -1.38 -1.76 0c0,0.15 0.02,0.36 0.11,0.62l1.64 -0.62 -1.69 -0.49c-0.03,0.11 -0.07,0.25 -0.07,0.49l1.76 0 -1.54 -0.84c-0.03,0.07 -0.08,0.15 -0.15,0.36l1.68 0.48 -0.02 -0.01 -1.39 -1.02c-0.02,0.03 -0.05,0.07 -0.12,0.19l1.51 0.83 -0.16 -0.12 -1.17 -0.98 -0.06 0.08 1.23 0.9 -0.55 -0.46 -0.61 -0.53 -0.01 0.01 0.62 0.52 -0.61 -0.53c-2.38,2.6 -2.47,5.74 0.98,6.49l0.37 -1.72 -1.76 0.05 2.08 79.83 1.76 -0.05 -1.52 -0.88c-1.26,2.27 -2.87,5.88 -2.91,8.99 -0.02,1.35 -0.85,2.55 -2.11,3.04 -6.27,2.45 -19.53,2.58 -29.68,2.58l0 3.52c10.57,0.02 24.1,-0.15 30.95,-2.82 2.59,-1.01 4.31,-3.5 4.34,-6.28 0.04,-3.31 2.68,-7.7 2.68,-7.7l-2.13 -81.71 -1.58 -0.36 -0.27 0.49 0.47 -0.27c-0.21,-0.37 -0.2,-0.2 -0.47,0.27l-0.14 0.08 0.71 0c0,-0.06 -0.02,-0.22 -0.1,-0.35l-0.61 0.35 0.41 0 0.3 0.04 0 -0.04 -0.3 0 0.28 0.04 0.02 0 0 -0 -0.02 -0 0.02 0c0,-0.67 2.21,-1.88 0.97,-3.53 -0.35,-0.47 -0.9,-0.69 -1.4,-0.7l0 1.76 1.76 -0.07 -0.56 -13.99c-0.09,-2.29 -1.97,-4.1 -4.27,-4.1l-62.1 0c-2.29,0 -4.18,1.81 -4.27,4.1l-0.55 13.99 1.76 0.07 0 -1.76c-1.36,0.01 -2.47,1.62 -1.21,3.04l0.78 1.18 0.26 -0.04 -0.26 0 0 0.04 0.26 -0.04 0.41 0 -0.62 -0.23c-0.04,0.1 -0.05,0.19 -0.05,0.23l0.67 0 0.01 0 -0.39 -0.56c-0.05,0.03 -0.18,0.17 -0.24,0.32l0.63 0.24 -0.3 -0.43 -0.08 -0.14 -0.02 0.01 0.09 0.13 -0.08 -0.14 -1.58 0.36 -2.13 81.71 0.25 0.43 0.3 -0.18 -0.3 0.18 0 0 0.3 -0.18 -0.3 0.18c0.93,1.56 2.4,5.02 2.43,7.27 0.03,2.78 1.75,5.27 4.34,6.28 6.85,2.67 20.39,2.84 30.95,2.82l-0.01 0 0 -1.76z"/>
   <path class="fil8" d="M96.28 169.18c14.64,-1.2 33.54,-1.88 48.04,-2.28l0.03 3.91c-14.56,-0.21 -33.35,-0.63 -48.06,-1.63z"/>
   <path class="fil8" d="M108.46 185.24c8.38,-0.73 16.03,-1.37 24.67,-2.53l11.29 -1.42 0.48 2.69c-9.37,2.11 -26.77,2.08 -36.44,1.26z"/>
   <path class="fil8" d="M146.46 175.52c1.79,-1.61 5.82,-5.17 14.52,-12.73 11.11,-9.66 14.4,-26.63 15,-40.25 0.47,-10.59 -7.98,-19.45 -18.62,-19.45l-10.37 -0.08c-1.19,-0.1 -2.59,-0.76 -3.46,-1.43l-0.43 0.55 0.43 -0.54 -0 -0 -0.43 0.55 -1.52 1.9c1.71,1.33 3.62,2.08 6.26,2.14l9.55 0.04c8.8,-0 15.85,7.38 15.46,16.18 -0.57,12.83 -3.61,29.07 -13.93,38.03 -8.71,7.56 -12.74,11.13 -14.57,12.77l2.1 2.32z"/>
   <path class="fil8" d="M144.52 120.89l-0.54 -0.18 0.54 0.19 0 -0.01 -0.54 -0.18 0.54 0.19c0.02,-0.05 0.6,-1.65 2.43,-3.21 1.84,-1.56 4.92,-3.16 10.28,-3.17 9.5,0.01 3.29,25.05 -0.01,30.66 -3.93,6.68 -5.72,12.7 -12.38,7.92l-1.82 2.54c9.59,6.86 13.29,-2.74 16.89,-8.88 3.98,-6.78 11.22,-35.37 -2.68,-35.37 -5.8,0 -10.89,1.78 -14.01,5.66 -1.2,1.49 -1.62,2.71 -1.67,2.84l2.97 0.99z"/>
   <path class="fil8" d="M105.2 161.99c3.19,-0.17 6.19,0.13 8.49,-2.69 1.6,-1.97 1.5,-3.63 1.39,-5.84l-1.47 -44.24c0.01,0.1 0,0.01 0,0.02 -0.31,-3.83 -4.07,-2.97 -7.2,-3.07 -2.12,-0.07 -3.26,1.44 -3.35,3.63l-0.42 8.83c-0.5,9.65 -1.04,16.07 -1.04,16.07l-0.33 -25.47c0.05,-2.9 2.2,-5.06 5.15,-5.11l5.4 0.08c2.79,0.66 4.01,2.79 4.08,5.42 0.39,14.29 0.71,29.69 0.53,43.81 -0.03,2.5 -0.07,4.34 -2.08,6.47 -2.74,2.9 -5.86,2.26 -9.14,2.09z"/>
   <path class="fil8" d="M84.66 157.76c-0.03,1.75 1.59,4.05 4.63,3.79 1.53,-0.13 2.88,0.14 4.14,-1.21 1.27,-1.36 0.89,-3.06 0.79,-4.97 -0.77,-15.12 -1.09,-30.48 -0.89,-45.59 0.03,-2.38 -1.06,-4.06 -3.42,-4.21 -2.19,-0.14 -3.83,1.48 -4.15,3.63 0,-5.74 8.27,-6.04 8.97,-0.18l0.86 18.57c0.1,3.81 0.66,28.66 0.3,30.86 -0.36,2.2 -2.1,3.84 -4.19,4.06 -1.07,0.11 -3.59,-0.05 -4.54,-0.49 -1.85,-0.85 -2.73,-2.86 -2.49,-4.26z"/>
   <path class="fil8" d="M122.32 133.54l-0.4 -20.66c0,-3.1 -0.52,-5.86 2.08,-7.77 3.29,-2.42 8.17,-0.3 8.29,4.15 0.36,12.66 0.54,25.32 0.4,37.88 -0.04,3.07 -0.05,10.63 -0.42,11.75l-1.19 1.87c0.9,-1.11 1.06,-1.99 0.93,-3.51 -1.3,-15.44 -1.61,-32.2 -1.99,-47.93 -0.04,-1.78 -1.25,-2.97 -3.05,-3.09l0.03 0c-3.69,0.17 -3.21,3.8 -3.34,6.69l-1.34 20.62z"/>
   <path class="fil8" d="M144.66 160.82c-1.95,0 -3.68,0.31 -4.85,-0.89 -0.57,-0.58 -0.86,-1.33 -0.85,-2.14l1.11 -48.57c0.04,-1.61 1.35,-2.9 2.97,-2.9l0 -2.34c-2.89,0 -5.24,2.3 -5.31,5.19l-1.1 48.56c-0.03,3.05 2.35,5.43 5.31,5.43l2.73 0 0 -2.34z"/>
   <path class="fil8" d="M127.01 168.86c1.24,7.65 -12.51,14.82 -25.95,16.38 16.9,0.91 24.54,-0.44 32.66,-1.3 8.12,-0.87 10.94,-2.21 10.94,-2.21l-0.33 -12.86 -17.32 0z"/>
   <path class="fil8" d="M139.47 183.11c0,0 -3.27,5.38 -2.88,8.25 0.39,2.87 -9.38,2.87 -13.54,2.87 -4.17,0 -21.1,0 -21.1,0 0,0 21.58,-3.62 21.1,-10.29 4.56,-5.08 16.42,-0.82 16.42,-0.82z"/>
   <path class="fil8" d="M122.86 99.09c3.7,2.41 2.62,6.35 2.62,6.35 0,0 -3.16,-2.64 -3.16,12.73 2.15,-8.07 6.32,-4.04 7.1,5.08 0.78,9.12 2.7,28.78 2.7,28.78 0,0 1.86,8.68 -4.01,9.96 -8.07,1.76 -8.07,1.76 -8.07,1.76 0,0 5.6,1.23 4.69,5.1 13.8,0.23 18.3,0 18.3,0l-1.81 -66.05 -1.76 -3.65 -16.6 -0.07z"/>
   <path class="fil8" d="M122.38 130.93c0.59,-16.08 6.73,-12.64 7.22,-5.67l0 -17.25 -5.78 2.21 -1.44 4.55 0 16.16z"/>
   <path class="fil8" d="M102.02 115.95c1.1,-6.37 3.71,-6.89 6.44,-6.76 2.73,0.13 2.6,7.16 2.87,13.15 0.26,5.99 1.82,30.65 0,34.07 -1.82,3.43 -7.23,5.64 -10.26,5.58 9.78,-0.33 11.5,2.32 14.72,-5.58 -0.08,-5.3 -1.24,-48.4 -1.24,-48.4 0,0 -0.88,-3.78 -5.86,-2.87 -7.53,1.39 -6.8,1.53 -6.67,10.8z"/>
   <polygon class="fil8" points="126.36,99.16 94,99.16 127.29,102.81 "/>
   <polygon class="fil8" points="126.83,100.98 102.73,102.81 127.01,105.15 "/>
   <polygon class="fil8" points="126.2,164.66 105.28,166.75 127.29,167.79 "/>
   <polygon class="fil8" points="129.13,162.19 108.21,164.27 130.22,165.32 "/>
   <path class="fil8" d="M158.51 163.75c-8.71,3.12 -11.25,-3.93 -10.27,-7.34 -4.32,-2.04 -4.32,-2.04 -4.32,-2.04l1.49 19.98 13.09 -10.6z"/>
   <path class="fil8" d="M143.92 112.96c5.49,-4.49 17.02,-5.86 21.7,0 4.69,5.86 4.1,20.9 -4.1,34.18 4.49,-11.13 2.04,-19.04 2.04,-19.04 0,0 1.86,-11.63 -2.24,-13.38 -4.1,-1.76 -11.89,-4.3 -20.11,7.42 -4.31,-6.25 2.7,-9.18 2.7,-9.18z"/>
   <path class="fil8" d="M110.65 84.44c23.33,0 24.12,3.13 24.7,5.86 0.59,2.73 0,8.85 0,8.85l7.23 1.82 -1.35 -17.55 -30.58 1.01z"/>
   <path class="fil0" d="M108.46 198.13c-18.29,0.04 -25.96,-1.01 -30.31,-2.7 -1.92,-0.75 -3.2,-2.6 -3.22,-4.66 -0.04,-3.62 -2.67,-8.13 -2.67,-8.13l2.08 -79.83c2.99,-0.64 -0.04,-3.65 0,-3.65l0.56 -13.99c0.05,-1.35 1.16,-2.41 2.51,-2.41l62.1 0c1.35,0 2.46,1.07 2.51,2.41l0.55 13.99c0.04,0 -2.99,3 0,3.65l2.08 79.83c0,0 -2.62,4.51 -2.67,8.13 -0.02,2.06 -1.3,3.91 -3.22,4.66 -4.35,1.7 -12.02,2.74 -30.31,2.7z"/>
   <path class="fil0" d="M172.87 122.39c-0.55,12.31 -3.42,28.9 -13.93,38.03 -1.71,1.48 -3.28,2.85 -4.72,4.1 -4.41,-0.16 -6.19,-3.82 -6.17,-6.63 5.26,0.75 8,-4.17 10.53,-8.77 2.59,-4.69 4.04,-7.45 5.66,-15.29 0.01,3.34 -0.55,7.95 -2.71,13.3 8.2,-13.28 8.79,-28.32 4.1,-34.18 -4.51,-5.63 -15.33,-4.59 -21.04,-0.5l-0.18 -6.88c6.13,2.31 16.51,-2.61 24.18,5.41 2.91,3.04 4.47,7.2 4.28,11.41z"/>
   <path class="fil9" d="M107.55 193.05c-14.88,0 -23.38,-0.73 -27.56,-2.36 -0.04,-3.56 -1.62,-7.27 -2.63,-9.27l1.98 -75.94c0.48,-0.58 0.84,-1.24 1.08,-1.97 0.46,-1.4 0.59,-3.47 -0.95,-5.95l0.39 -9.74 57.17 0 0.39 9.74c-1.54,2.48 -1.41,4.55 -0.95,5.94 0.24,0.73 0.61,1.39 1.08,1.97l1.98 75.94c-1.01,2 -2.59,5.71 -2.63,9.28 -4.84,1.88 -14.68,2.35 -29.36,2.35z"/>
   <path class="fil10" d="M138.83 153.85l-1.26 -48.36c-0.48,-0.58 -0.84,-1.24 -1.08,-1.97 -0.46,-1.4 -0.59,-3.46 0.95,-5.94l-0.03 -0.76 -36.15 -4.61 0.34 42.5c0,0 -0.53,27.29 4.56,27.29 6.76,0 5.86,8.14 -12.14,7.19 8.2,4.04 4.56,14.82 -4.1,14.75 4.5,1.94 4.62,6.5 4.36,8.85 9.2,0.45 26.25,0.39 34.27,-0.42l10.3 -38.51z"/>
   <path class="fil0" d="M108.91 102.81c0,3.41 -2.77,6.18 -6.18,6.18 -3.41,0 -6.18,-2.77 -6.18,-6.18 0,-3.41 2.77,-6.18 6.18,-6.18 3.41,0 6.18,2.77 6.18,6.18z"/>
   <path class="fil0" d="M127.59 138.58c0,5.72 -8.68,5.72 -8.68,0 0,-5.72 8.68,-5.72 8.68,0z"/>
   <path class="fil0" d="M110.15 121.94c0,4.06 -6.16,4.06 -6.16,0 0,-4.06 6.16,-4.05 6.16,0z"/>
   <path class="fil0" d="M105.28 150.35c0,4.06 -6.16,4.06 -6.16,0 0,-4.05 6.16,-4.05 6.16,0z"/>
   <path class="fil0" d="M128.34 148.71c0,3.09 -4.7,3.09 -4.7,0 0,-3.09 4.7,-3.09 4.7,0z"/>
   <path class="fil0" d="M92.25 170.14c0,3.09 -4.7,3.09 -4.7,0 0,-3.09 4.7,-3.09 4.7,0z"/>
   <path class="fil5" d="M74.72 88.92c-0.24,3.58 -1.24,19.79 1.36,21.77 1.77,1.35 3.9,-1.77 5.68,-0.45 0.69,0.52 -0.86,6.43 23.08,1.98 2.37,-0.44 7,2.72 9.37,2.26 3.6,-0.7 4.54,-2.63 8.09,-1.34 3.59,1.3 7.3,0.35 10.92,-0.6 1.15,-0.3 2.35,-0.63 3.33,-1.75 2.37,-2.71 2.49,-8.6 2.36,-13.56 -0.13,-4.78 -0.39,-8.54 -5.28,-9.66 -10.02,-2.28 -20.2,1.49 -30.26,0.05 -6.33,-0.91 -12.82,-3.84 -18.91,-0.64l-9.73 1.94z"/>
   <path class="fil1" d="M172.87 122.39c-0.55,12.31 -3.42,28.9 -13.93,38.03 -1.71,1.48 -3.28,2.85 -4.72,4.1 -4.41,-0.16 -6.19,-3.82 -6.17,-6.63 5.26,0.75 8,-4.17 10.53,-8.77 2.59,-4.69 4.04,-7.45 5.66,-15.29 0.01,3.34 -0.55,7.95 -2.71,13.3 8.2,-13.28 8.79,-28.32 4.1,-34.18 -4.51,-5.63 -15.33,-4.59 -21.04,-0.5l-0.18 -6.88c6.12,2.3 16.48,-2.64 24.18,5.41 2.91,3.04 4.47,7.2 4.28,11.41zm-34.74 71.4c-6.57,2.56 -22.63,2.67 -29.68,2.58 -16.08,0.04 -24.95,-0.74 -29.67,-2.58 -1.26,-0.49 -2.09,-1.69 -2.11,-3.04 -0.04,-3.37 -1.95,-7.24 -2.66,-8.54l2.04 -78.2c1.48,-0.92 2.07,-2.95 0.06,-5.46l0.53 -13.31c0.02,-0.41 0.35,-0.73 0.76,-0.73l38.67 0c18.03,0.46 18.73,3.29 19.27,5.8 0.57,2.66 0.03,8.51 0,8.84l-12.49 -0.05 0.09 0.07 -28.95 0 23.25 2.55 -14.53 1.1 21.59 2.08c-1.53,0.97 -2.41,2.59 -2.4,4.3 0.03,16.93 0.21,16.92 0.41,24.34 0.23,-2.69 0.45,-5.28 0.62,-8 0.49,-2.94 1.4,-5.99 3.05,-6.06 2.89,-0.12 3.51,4.73 3.6,5.65 0.37,4.21 0.9,9.85 1.38,14.88l1.04 17.23c0.18,2.12 -1.52,4.24 -3.89,4.76 -0.95,0.21 -1.78,0.39 -2.52,0.55l-17.39 1.73 14.73 0.71 -17.66 1.76 18.44 0.87c-9.8,0.44 -16.18,0.66 -27.44,1.57 10.9,0.76 20.48,1.01 30.77,1.29 -0.75,7.02 -13.49,13.31 -25.98,14.76 3.75,0.2 17.25,0.51 21.55,0.52 -3.01,5.5 -20.67,8.46 -20.67,8.46 0,0 16.93,0 21.1,0 4.17,0 13.93,0 13.54,-2.87 -0.24,-1.78 0.93,-4.52 1.85,-6.35 1.14,-0.13 2.16,-0.26 3.33,-0.44 -0.74,1.75 -1.5,4.06 -1.53,6.18 -0.02,1.36 -0.84,2.55 -2.11,3.05zm7.53 -40.13l-0.87 -33.36c0.84,-1.58 3.89,-5.77 12.44,-5.77 1.68,0 2.85,0.68 3.69,2.14 3.59,6.27 -0.84,23.66 -3.7,28.52 -3.55,6.02 -5.5,12.24 -11.55,8.47zm25.19 -44.83c-9.28,-9.69 -20.94,-3.51 -26.53,-6.74l-0.02 -0.71 -1.05 -0.23c0.5,-0.77 1.15,-1.13 1.09,-2.11l-0.55 -13.95c-0.09,-2.3 -1.97,-4.1 -4.27,-4.1l-62.1 0c-2.3,0 -4.18,1.8 -4.27,4.1l-0.55 13.95c-0.07,0.98 0.6,1.36 1.09,2.11l-1.05 0.23 -2.13 81.71c0,0 2.64,4.39 2.68,7.7 0.03,2.8 1.74,5.26 4.34,6.28 7.43,2.9 22.82,2.83 31.91,2.83 16.15,0 24.87,-0.83 29.99,-2.83 2.61,-1.02 4.31,-3.48 4.34,-6.28 0.04,-3.3 2.68,-7.7 2.68,-7.7l-0.2 -7.84 0.24 0.26c2.27,-2.05 7.16,-6.34 14.52,-12.73 11.35,-9.86 14.42,-27.33 15,-40.25 0.23,-5.06 -1.65,-10.06 -5.14,-13.71z"/>
   <path class="fil1" d="M94.74 109.14c-0.67,-6.05 -9.02,-5.67 -8.98,0.05 0.8,-5.11 7.49,-4.59 7.57,0.05l-0 -0.01c-0.2,14.92 0.02,24.36 0.58,39.66 0.32,8.99 0.99,9.89 -0.49,11.45 -1.2,1.29 -2.66,1.14 -4.67,1.23 -2.23,0.1 -3.9,-1.59 -4.09,-3.81 -0.21,2.59 1.57,4.52 4.63,4.68 1.87,0.09 1.97,0.11 2.41,0.06 2.07,-0.21 3.85,-1.86 4.19,-4.06 0.12,-0.77 0.09,-9.03 0.08,-9.61 -0.24,-26.46 -1.23,-39.74 -1.23,-39.7z"/>
   <path class="fil1" d="M101.67 161.98c7.75,-0.17 9.42,1.36 12.68,-2.07 2.41,-2.54 2.15,-4.46 2.1,-14.27 -0.01,-2.77 0,-5.68 -0.04,-8.7 -0.24,-19.3 -0.53,-27.8 -0.53,-27.76 -0.21,-3.23 -2.66,-5.18 -5.47,-5.1 -0.1,0 -4.13,0.05 -4.07,0.05 -4.62,0.23 -5.07,3.74 -5.08,6.68 -0.03,6.26 0.06,15.44 0.33,23.9 0.57,-7.34 1.01,-14.86 1.34,-22.13 1.32,-3.19 3.38,-3.49 5.52,-3.38 2.73,0.13 2.6,7.16 2.87,13.15 0.26,5.99 1.82,30.65 0,34.07 -1.71,3.21 -6.56,5.36 -9.66,5.56z"/>
   <path class="fil5" d="M136.25 77.96c-0.66,-4.45 -5.53,-6.88 -9.47,-4.79 -2.27,-2.84 -6.41,-3.27 -9.21,-0.97 -2.4,-2.3 -5.87,-3.17 -9.13,-2.17 -0.66,-9.62 -13.51,-12.43 -18.16,-4 -5.15,-4.12 -12.85,-1.65 -14.64,4.7 -7.35,-0.51 -9.68,9.66 -2.99,12.48 -2.09,9.89 10.97,15.38 16.64,7.16 4.09,4.27 10.72,4.8 15.44,1.22 4.67,7.46 15.63,7.25 20,-0.4 4.79,8.01 17.16,4.61 17.16,-4.73 0,-3.82 -2.32,-7.1 -5.64,-8.51z"/>
   <path class="fil1" d="M105.15 89.34l0.9 1.44c4.08,6.53 13.58,6.23 17.34,-0.35l1.31 -2.3c1.8,3 3.37,6.02 7.95,6.02 8.33,0 10.65,-11.52 3,-14.77l-0.8 -0.34 -0.13 -0.86c-0.49,-3.33 -4.18,-5.26 -7.21,-3.65l-1.13 0.6c-1.22,-1.53 -2.26,-2.87 -4.67,-2.87 -1.96,0 -2.88,0.91 -4.21,2 -3.93,-3.78 -5.83,-3.61 -10.46,-2.18l-0.13 -1.95c-0.55,-8.05 -11.35,-10.45 -15.26,-3.36l-0.89 1.61c-1.97,-1.57 -3.35,-2.83 -6.23,-2.83 -3.42,0 -6.46,2.3 -7.39,5.6l-0.34 1.21 -1.61 -0.11c-5.38,0 -6.87,7.44 -1.92,9.53l1.18 0.5 -0.44 2.86c0,7.52 9.76,10.53 14.02,4.36l1.08 -1.56c2.45,2.55 4.45,4.48 8.6,4.48 3.36,0 5.08,-1.28 7.45,-3.07zm9.47 9.29c-4.04,0 -7.78,-1.81 -10.27,-4.91 -4.69,2.74 -10.64,2.31 -14.89,-1.1 -7.05,7.32 -19.52,1.61 -18.5,-8.54 -6.6,-4.05 -4.16,-14.28 3.58,-14.9 2.45,-6.03 9.7,-8.53 15.31,-5.32 5.78,-7.54 17.74,-4.9 19.88,4.3 2.82,-0.39 5.68,0.37 7.94,2.08 3.05,-1.76 6.9,-1.34 9.5,1.06 4.46,-1.56 9.27,1.07 10.45,5.57 9.95,5.15 6.3,20.37 -4.96,20.37 -3.04,0 -5.86,-1.25 -7.87,-3.42 -2.49,3 -6.21,4.79 -10.17,4.79z"/>
   <path class="fil5" d="M83.03 86.95c-2.38,8.86 -0.52,24.34 4.38,24.42 6.95,0.11 4.84,-13.93 4.84,-13.93 0.34,8.11 11.23,7.2 11.69,0 0,0 6.45,-0.72 6.64,-7.94l-27.54 -2.54z"/>
   <path class="fil11" d="M103.08 96.14c-0.44,2.3 -0.92,4.53 -2.65,5.25 -5.47,2.26 -7.87,-2.87 -8.19,-3.95 -0.6,4.05 -1.14,12.81 -5.03,12.58 -3.09,-0.65 -4.17,-11.39 -4.16,-15.12 0.01,-1.88 0.06,-5.84 -0.03,-7.94 -4.19,6.63 -2.28,29.3 6.43,25.32 3.23,-1.47 4.01,-6.38 4.13,-9.91 2.54,2.82 6.08,1.7 5.95,1.72 3.27,-0.69 4.48,-2.41 5.3,-5.27 4.65,0.34 7.69,-5.12 5.72,-9.31 -0.42,3.7 -1.78,6.94 -5.74,7.13 -0.67,0.01 -1.76,-0.5 -1.74,-0.48z"/>
   <line class="fil12" x1="102.76" y1="97.35" x2="102.76" y2= "97.35" />
   <path class="fil13" d="M109.74 73.27c-2.68,-3.59 -7.77,-2.91 -10.52,0.76 -1.82,-1.29 -4.22,-1.35 -6.16,1.33 1.4,-0.73 2.9,-1.55 4.58,-0.44 1.25,0.94 1,1.04 1.72,1.94 1.72,-2.11 1.51,-2.21 3.67,-3.54 1.63,-1 4.01,-0.87 5.62,0.14 1.34,0.97 1.25,1.05 2,1.9 -0.17,-0.61 -0.38,-1.41 -0.91,-2.09z"/>
   <path class="fil13" d="M131.83 79.23c-0.68,-6.38 -8.74,-5.81 -9.51,-1.62 1.65,-1.81 4,-2.12 5.8,-1.08 2.17,1.23 1.84,3.99 2.08,5.4 1.03,-0.42 1.62,-1.29 2.56,-0.97 1.06,0.44 1.89,2.15 0.15,3.1 3.1,0.12 2.31,-5.11 -1.07,-4.82z"/>
   <path class="fil1" d="M149.12 163.75c6.15,-1.86 15.6,-13.9 19.45,-24.62 -1.97,11.92 -7.7,22.86 -15.14,26.18 -5,0.78 -4.31,-1.56 -4.31,-1.56z"/>
   <path class="fil14" d="M138.94 84.51c-0.01,2.8 0.05,7.29 -5.61,8.14 -5.66,0.85 -8.77,-5.7 -8.77,-5.7 0,0 -2.1,4.85 -6.59,6.31 -4.49,1.47 -5.99,0.69 -5.99,0.69 0,0 0.03,-3.52 -0.8,-4.95 2.95,1.56 11.34,-0.46 13.88,-4.95 2.48,4.23 4.11,4.44 7.2,4.69 4.59,0.36 6.68,-4.23 6.68,-4.23z"/>
   <path class="fil14" d="M110.15 88.48c-1.04,1.82 -1.03,8.59 -8.3,6.25 0.68,3.82 -1.79,5.54 -3.49,5.73 -1.69,0.2 -5.27,-1.17 -6.45,-4.43 -0.52,2.99 -0.39,11.53 -4.17,11.98 -3.78,0.45 -3.91,-17.58 -3.91,-17.58 0,0 1.24,9.08 3.39,9.39 2.15,0.31 4.33,-7.62 4.33,-7.62 0,0 1.27,5.4 5.44,4.42 4.17,-0.98 3.58,-4.42 3.58,-4.42 0,0 1.38,0.66 3.71,0.38 3.13,-0.38 5.86,-4.1 5.86,-4.1z"/>
   <path class="fil15" d="M131.38 174.81c6.75,-4.46 19.52,-4.25 27.39,-4.25 8.14,0 20.35,0.11 27.62,4.15 7.08,3.93 8.82,11.17 8.82,18.64l0 5.28 -0.65 0c2.64,4.3 2.77,12.05 1.74,16.96 -0.96,4.58 -3.94,8.42 -8.2,10.42 -7.29,3.41 -20.93,3.36 -28.91,3.36 -7.65,0 -20.17,0.18 -26.92,-3.75 -8.67,-5.06 -7.79,-14.59 -7.79,-23.42l2.23 0c-1.69,-2.42 -2.74,-6.49 -2.89,-9.39l-15.66 36.57 -22.18 0 -7.73 -18.02 -7.9 18.02 -22.45 0 -25.02 -58.95 28.47 0 7.77 18.81 7.77 -18.81 22.41 0 7.88 18.65 7.69 -18.65 28.37 0 -1.85 4.39z"/>
   <path class="fil16" d="M128.4 173.63l-21.4 0 -9.8 23.77 -10.04 -23.77 -18.13 0 -9.91 24 -9.91 -24 -21.48 0 22.3 52.53 18.24 0 9.97 -22.73 9.2 20.55 0.85 2.17 18.18 0 0.78 -2.2 21.17 -50.34zm56.63 21.79c6.97,2.42 8.62,6.7 8.62,13.64 0,10.07 -3.38,14.08 -13.35,15.9 -8.47,1.54 -33.47,1.95 -42.19,-0.38 -10.33,-2.75 -10.43,-10.33 -10.43,-19.17l8.8 0c-2.73,-0.9 -6.65,-3.62 -7.82,-6.24 -2.19,-4.91 -2.23,-11.13 -0.2,-16.11 1.49,-3.63 4.91,-6.27 8.6,-7.37 6.56,-1.96 14.89,-1.91 21.72,-1.91 7.4,0 19.45,0.07 26.06,3.74 6.84,3.8 7.17,10.99 7.17,17.91l-6.97 0zm-14.34 -2.68c-2.05,-1.73 -14.19,-1.37 -17.25,-1.25l17.3 1.57c-0.01,-0.12 -0.02,-0.24 -0.05,-0.32zm-22.24 15.01c0.01,0.11 0.02,0.23 0.04,0.32 2.05,1.01 10.05,0.84 12.58,0.84l-12.62 -1.16z"/>
   <path class="fil17" d="M125.27 175.7l-20.26 48.18 0.07 0.21 -15.51 0 0.07 -0.21 -11.44 -25.57 -11.3 25.78 -15.51 0 -20.54 -48.38 16.95 0 11.3 27.36 11.3 -27.36 15.37 0 11.44 27.09 11.16 -27.09 16.89 0zm33.5 0.14c7.53,0 18.98,0.1 25.09,3.45 5.12,2.8 6.07,8.6 6.07,14.06l-17.09 0c0,-1.56 -0.44,-2.28 -2.07,-2.96 -3.44,-1.45 -17.11,-1.14 -20.54,-0.76 -2.38,0.26 -4.44,0.35 -4.34,2.14 0.07,0.62 0.69,0.97 1.93,1.17 1.17,0.21 4.82,0.62 10.96,1.1 0.07,0 0.14,0 0.21,0.07 12.13,0.96 19.85,1.86 23.09,2.62 7.73,1.84 9.51,5.3 9.51,12.34 0,9.06 -2.53,12.13 -11.65,13.85 -8.12,1.54 -32.6,1.83 -41.28,-0.34 -7.91,-1.98 -8.89,-7.81 -8.89,-15.09l16.61 0c0,1.74 0.54,2.35 2.21,2.83 2.72,0.78 8.95,0.69 13.03,0.69 5.24,0 8.41,-0.07 9.58,-0.28 1.88,-0.34 2.41,-2.44 0.48,-2.96 -1.7,-0.46 -22.48,-1.53 -29.36,-3.03 -4.76,-1.04 -6.02,-1.17 -9.79,-4.07 -4.31,-3.31 -3.98,-12.21 -2.14,-16.82 1.19,-2.96 4.22,-5.31 7.31,-6.2 6.15,-1.78 14.43,-1.79 21.09,-1.79z"/>
   <polygon class="fil18" points="7.52,239.56 41.55,239.56 41.55,238.51 7.52,238.51 "/>
   <path class="fil18" d="M34.15 239.42c-4.71,0.64 -4.2,2.04 -5.15,5.94 5.67,-1.74 5.15,-0.97 5.15,-5.94z"/>
   <path class="fil18" d="M34.15 238.65c-4.71,-0.64 -4.2,-2.04 -5.15,-5.94 5.67,1.75 5.15,0.97 5.15,5.94z"/>
   <path class="fil18" d="M39.43 239.42c-4.71,0.64 -4.2,2.04 -5.15,5.94 5.67,-1.74 5.15,-0.97 5.15,-5.94z"/>
   <path class="fil18" d="M39.43 238.65c-4.71,-0.64 -4.2,-2.04 -5.15,-5.94 5.67,1.74 5.15,0.97 5.15,5.94z"/>
   <path class="fil18" d="M28.87 239.42c-4.71,0.64 -4.2,2.04 -5.15,5.94 5.67,-1.74 5.15,-0.97 5.15,-5.94z"/>
   <path class="fil18" d="M28.87 238.65c-4.71,-0.64 -4.2,-2.04 -5.15,-5.94 5.67,1.75 5.15,0.97 5.15,5.94z"/>
   <path class="fil18" d="M23.59 239.42c-4.71,0.64 -4.2,2.04 -5.15,5.94 5.67,-1.74 5.15,-0.97 5.15,-5.94z"/>
   <path class="fil18" d="M23.59 238.65c-4.71,-0.64 -4.2,-2.04 -5.15,-5.94 5.67,1.75 5.15,0.97 5.15,5.94z"/>
   <path class="fil18" d="M18.31 239.42c-4.71,0.64 -4.2,2.04 -5.15,5.94 5.67,-1.74 5.15,-0.97 5.15,-5.94z"/>
   <path class="fil18" d="M18.31 238.65c-4.71,-0.64 -4.2,-2.04 -5.15,-5.94 5.67,1.75 5.15,0.97 5.15,5.94z"/>
   <path class="fil18" d="M13.62 239.32c-3.65,-0.22 -3.48,0.91 -4.78,3.71 4.55,-0.47 4.04,0.04 4.78,-3.71z"/>
   <path class="fil18" d="M13.62 238.75c-3.65,0.22 -3.48,-0.91 -4.78,-3.71 4.55,0.46 4.04,-0.04 4.78,3.71z"/>
   <path class="fil18" d="M5.64 239.04c3.88,2.42 3.16,2.51 6.06,0 -2.89,-2.51 -2.17,-2.42 -6.06,0z"/>
   <polygon class="fil18" points="6.95,239.45 -0,239.04 6.95,238.63 "/>
   <polygon class="fil18" points="10.4,242.41 6.28,244.81 9.96,241.77 "/>
   <polygon class="fil18" points="10.5,240.87 4.01,243.98 10.13,240.19 "/>
   <polygon class="fil18" points="10.13,237.88 4.01,234.09 10.5,237.2 "/>
   <polygon class="fil18" points="9.96,236.3 6.28,233.26 10.4,235.66 "/>
   <polygon class="fil18" points="179.8,239.56 213.83,239.56 213.83,238.51 179.8,238.51 "/>
   <path class="fil18" d="M187.2 239.42c4.71,0.64 4.2,2.04 5.15,5.94 -5.67,-1.74 -5.15,-0.97 -5.15,-5.94z"/>
   <path class="fil18" d="M187.2 238.65c4.71,-0.64 4.2,-2.04 5.15,-5.94 -5.67,1.74 -5.15,0.97 -5.15,5.94z"/>
   <path class="fil18" d="M181.92 239.42c4.71,0.64 4.2,2.04 5.15,5.94 -5.67,-1.74 -5.15,-0.97 -5.15,-5.94z"/>
   <path class="fil18" d="M181.92 238.65c4.71,-0.64 4.2,-2.04 5.15,-5.94 -5.67,1.75 -5.15,0.97 -5.15,5.94z"/>
   <path class="fil18" d="M192.48 239.42c4.71,0.64 4.2,2.04 5.15,5.94 -5.67,-1.74 -5.15,-0.97 -5.15,-5.94z"/>
   <path class="fil18" d="M192.48 238.65c4.71,-0.64 4.2,-2.04 5.15,-5.94 -5.67,1.75 -5.15,0.97 -5.15,5.94z"/>
   <path class="fil18" d="M197.76 239.42c4.71,0.64 4.2,2.04 5.15,5.94 -5.67,-1.74 -5.15,-0.97 -5.15,-5.94z"/>
   <path class="fil18" d="M197.76 238.65c4.71,-0.64 4.2,-2.04 5.15,-5.94 -5.67,1.74 -5.15,0.97 -5.15,5.94z"/>
   <path class="fil18" d="M203.04 239.42c4.71,0.64 4.2,2.04 5.15,5.94 -5.67,-1.74 -5.15,-0.97 -5.15,-5.94z"/>
   <path class="fil18" d="M203.04 238.65c4.71,-0.64 4.2,-2.04 5.15,-5.94 -5.67,1.75 -5.15,0.97 -5.15,5.94z"/>
   <path class="fil18" d="M207.73 239.32c3.65,-0.22 3.48,0.91 4.78,3.71 -4.55,-0.47 -4.04,0.04 -4.78,-3.71z"/>
   <path class="fil18" d="M207.73 238.75c3.65,0.22 3.48,-0.91 4.78,-3.71 -4.55,0.46 -4.04,-0.04 -4.78,3.71z"/>
   <path class="fil18" d="M215.7 239.04c-3.88,2.42 -3.16,2.51 -6.06,0 2.89,-2.51 2.17,-2.42 6.06,0z"/>
   <polygon class="fil18" points="214.39,239.45 221.35,239.04 214.39,238.63 "/>
   <polygon class="fil18" points="210.94,242.41 215.06,244.81 211.39,241.77 "/>
   <polygon class="fil18" points="210.84,240.87 217.34,243.98 211.21,240.19 "/>
   <polygon class="fil18" points="211.21,237.88 217.34,234.09 210.84,237.2 "/>
   <polygon class="fil18" points="211.39,236.3 215.06,233.26 210.94,235.66 "/>
   <path class="fil18" d="M44.41 244.79c6.27,0 5.57,0.25 5.57,-8.68 0,-3.39 -2.69,-2.85 -5.57,-2.85l0 11.53zm2.83 -9.89c0.58,0 0.92,0.3 0.92,1.12 0,7.5 0.54,7.12 -1.94,7.12l0 -8.24 1.02 0zm3.89 9.89l1.81 0 0 -11.53 -1.81 0 0 11.53zm2.9 -8.77c0,3.29 3.54,3.74 3.54,6.11 0,1.54 -1.88,1.54 -1.88,0l0 -0.82 -1.71 0c0,1.86 0.23,3.61 2.7,3.61 1.78,0 2.7,-1.05 2.7,-2.9 0,-3.29 -3.54,-3.74 -3.54,-6.11 0,-1.56 1.81,-1.56 1.81,0l0 0.48 1.71 0c0,-1.92 -0.57,-3.26 -2.67,-3.26 -1.76,0 -2.67,1.05 -2.67,2.9zm5.87 -1.12l1.89 0 0 9.89 1.81 0 0 -9.89 1.9 0 0 -1.65 -5.6 0 0 1.65zm12.03 9.89c-0.65,-1.53 0.62,-4.79 -1.4,-5.63 1.28,-0.6 1.19,-1.94 1.19,-3.25 0,-3.16 -2.5,-2.65 -5.42,-2.65l0 11.53 1.81 0 0 -4.7c2.03,0 1.81,0.33 1.81,3.28 0,0.94 0.07,1.12 0.16,1.42l1.85 0zm-2.95 -9.89c1.12,0 0.92,1.17 0.92,2.32 0,1.38 -0.88,1.22 -1.8,1.22l0 -3.54 0.87 0zm3.94 9.89l1.81 0 0 -11.53 -1.81 0 0 11.53zm5.86 -11.53l-2.73 0 0 11.53c4.19,0 5.6,0.44 5.6,-3.67 0,-1.22 -0.38,-2.09 -1.35,-2.47 1.07,-0.5 1.17,-1.49 1.17,-2.74 0,-1.78 -0.81,-2.65 -2.69,-2.65zm-0.12 6.34c1.36,0 1.17,1.05 1.17,2.4 0,1.34 -0.77,1.14 -1.98,1.14l0 -3.54 0.81 0zm0.07 -4.7c1.03,0 0.92,0.95 0.92,1.83 0,1.38 -0.88,1.22 -1.8,1.22l0 -3.05 0.87 0zm3.92 -1.65l0 8.78c0,3.95 5.4,3.95 5.4,0l0 -8.78 -1.71 0 0 8.9c0,1.54 -1.88,1.54 -1.88,0l0 -8.9 -1.81 0zm6.64 11.53l1.81 0 0 -11.53 -1.81 0 0 11.53zm3.13 0c6.27,0 5.57,0.25 5.57,-8.68 0,-3.39 -2.69,-2.85 -5.57,-2.85l0 11.53zm2.83 -9.89c0.58,0 0.92,0.3 0.92,1.12 0,7.5 0.54,7.12 -1.94,7.12l0 -8.24 1.02 0zm5.55 1c0,-1.55 1.88,-1.55 1.88,0l0 6.23c0,1.55 -1.88,1.55 -1.88,0l0 -6.23zm-1.81 6.11c0,3.94 5.5,3.94 5.5,0l0 -6c0,-3.94 -5.5,-3.94 -5.5,0l0 6zm12.31 2.77c-0.65,-1.54 0.62,-4.79 -1.4,-5.63 1.28,-0.6 1.19,-1.94 1.19,-3.25 0,-3.16 -2.5,-2.65 -5.42,-2.65l0 11.53 1.81 0 0 -4.7c2.03,0 1.81,0.33 1.81,3.28 0,0.94 0.07,1.12 0.16,1.42l1.85 0zm-2.95 -9.89c1.12,0 0.92,1.17 0.92,2.32 0,1.38 -0.88,1.22 -1.8,1.22l0 -3.54 0.87 0zm7.96 -1.65l-2.65 0 -1.85 11.53 1.66 0 0.31 -2.09 2.22 0 0.31 2.09 1.83 0 -1.85 -11.53zm-1.42 2.04l0.87 5.83 -1.75 0 0.87 -5.83zm6.66 9.49c6.27,0 5.57,0.25 5.57,-8.68 0,-3.39 -2.69,-2.85 -5.57,-2.85l0 11.53zm2.83 -9.89c0.58,0 0.92,0.3 0.92,1.12 0,7.5 0.54,7.12 -1.94,7.12l0 -8.24 1.02 0zm5.7 0l3.13 0 0 -1.65 -4.94 0 0 11.53 4.94 0 0 -1.65 -3.13 0 0 -3.38 2.49 0 0 -1.65 -2.49 0 0 -3.21zm9.54 -1.65l-2.73 0 0 11.53c4.19,0 5.6,0.44 5.6,-3.67 0,-1.22 -0.38,-2.09 -1.35,-2.47 1.07,-0.5 1.17,-1.49 1.17,-2.74 0,-1.78 -0.81,-2.65 -2.69,-2.65zm-0.12 6.34c1.36,0 1.17,1.05 1.17,2.4 0,1.34 -0.77,1.14 -1.98,1.14l0 -3.54 0.81 0zm0.07 -4.7c1.03,0 0.92,0.95 0.92,1.83 0,1.38 -0.88,1.22 -1.8,1.22l0 -3.05 0.87 0zm5.82 0l3.13 0 0 -1.65 -4.94 0 0 11.53 4.94 0 0 -1.65 -3.13 0 0 -3.38 2.49 0 0 -1.65 -2.49 0 0 -3.21zm6.99 -1.65l-2.73 0 0 11.53c4.19,0 5.6,0.44 5.6,-3.67 0,-1.22 -0.38,-2.09 -1.35,-2.47 1.07,-0.5 1.17,-1.49 1.17,-2.74 0,-1.78 -0.81,-2.65 -2.69,-2.65zm-0.12 6.34c1.36,0 1.17,1.05 1.17,2.4 0,1.34 -0.77,1.14 -1.98,1.14l0 -3.54 0.81 0zm0.07 -4.7c1.03,0 0.92,0.95 0.92,1.83 0,1.38 -0.88,1.22 -1.8,1.22l0 -3.05 0.87 0zm4 9.89l1.81 0 0 -11.53 -1.81 0 0 11.53zm3.13 0c6.27,0 5.57,0.25 5.57,-8.68 0,-3.39 -2.69,-2.85 -5.57,-2.85l0 11.53zm2.83 -9.89c0.58,0 0.92,0.3 0.92,1.12 0,7.5 0.54,7.12 -1.94,7.12l0 -8.24 1.02 0z"/>
   <path class="fil18" d="M170.19 233.26l-2.65 0 -1.85 11.53 1.66 0 0.31 -2.09 2.22 0 0.31 2.09 1.83 0 -1.85 -11.53zm-1.42 2.04l0.87 5.83 -1.75 0 0.87 -5.83zm3.87 0.72c0,3.29 3.54,3.74 3.54,6.11 0,1.54 -1.88,1.54 -1.88,0l0 -0.82 -1.71 0c0,1.86 0.23,3.61 2.7,3.61 1.78,0 2.7,-1.05 2.7,-2.9 0,-3.29 -3.54,-3.74 -3.54,-6.11 0,-1.56 1.81,-1.56 1.81,0l0 0.48 1.71 0c0,-1.92 -0.57,-3.26 -2.67,-3.26 -1.76,0 -2.67,1.05 -2.67,2.9z"/>
   <path class="fil18" d="M122.77 0.62c3.15,0.24 5.33,0.41 5.1,3.4l-2.92 -0.22c0.09,-1.19 -4.38,-0.89 -4.44,-0.86 -1.28,0.6 4.38,1.05 5.98,1.56 2.42,0.77 1.32,3.42 0.97,3.81 -1.18,1.32 -8.18,0.52 -9.35,-0.26 -0.8,-0.53 -0.78,-1.51 -0.71,-2.39l2.84 0.22c-0.06,0.76 1.5,0.72 2.56,0.8 1.15,0.09 1.92,0.24 1.95,-0.21 0.05,-0.65 -6.46,-0.48 -7.09,-2.37 -0.52,-1.54 -0.08,-3.37 2.17,-3.55l2.95 0.07z"/>
   <path class="fil18" d="M110.73 0.01c3.11,-0.08 5.79,0.48 5.88,4.09 0.09,3.65 -2.42,4.3 -5.58,4.38 -3.35,0.08 -5.62,-0.86 -5.7,-4.25 -0.08,-3.19 2.29,-4.14 5.41,-4.22zm0.27 6.29c4.24,-0.11 2.98,-5.25 -1.26,-3.96 -2.02,0.62 -2.06,4.04 1.26,3.96z"/>
   <polygon class="fil18" points="129.91,1.28 140.6,3.74 139.98,6.42 135.98,5.49 134.73,10.91 132.06,10.29 133.31,4.88 129.3,3.95 "/>
   <path class="fil18" d="M94.71 1.49c1.36,-0.17 6.22,-1.03 7.56,-0.69 3.06,0.8 3.19,6 -0.84,6.51l-3.15 0.4 0.21 1.67 -2.73 0.35 -1.05 -8.24zm6.23 3.42c1.39,-0.18 1.38,-1.93 -0.27,-1.72l-2.92 0.37 0.22 1.72 2.97 -0.38z"/>
   <path class="fil18" d="M147.42 6.03l0.88 9.04 -3.03 -1.02 -0.15 -1.52 -3.89 -1.32 -1.04 1.12 -3 -1.02 6.17 -6.65 4.06 1.37zm-4.49 3.23l2.03 0.69 -0.32 -2.41 -1.71 1.72z"/>
   <path class="fil18" d="M89.92 2.54l5.49 7.23 -3.11 0.72 -0.93 -1.22 -4 0.92 -0.3 1.5 -3.09 0.71 1.76 -8.9 4.17 -0.96zm-2.12 5.1l2.09 -0.48 -1.54 -1.88 -0.55 2.36z"/>
   <path class="fil18" d="M155.98 9.42c2.87,1.3 4.87,2.21 3.63,4.94l-2.67 -1.21c0.49,-1.09 -3.81,-2.33 -3.88,-2.33 -1.41,0.13 3.76,2.48 5.09,3.51 2.01,1.55 0.07,3.66 -0.39,3.91 -1.56,0.84 -7.87,-2.3 -8.7,-3.44 -0.57,-0.77 -0.21,-1.68 0.15,-2.49l2.6 1.17c-0.32,0.7 1.16,1.19 2.13,1.63 1.05,0.48 1.72,0.88 1.9,0.47 0.27,-0.59 -5.91,-2.65 -5.86,-4.65 0.04,-1.62 1.07,-3.19 3.25,-2.59l2.75 1.07z"/>
   <polygon class="fil18" points="71.56,8.28 80.09,4.92 80.93,7.06 74.97,9.42 75.24,10.1 80.83,7.89 81.64,9.95 76.05,12.16 76.32,12.85 82.29,10.5 83.13,12.64 74.6,16.01 "/>
   <polygon class="fil18" points="160.75,21.2 158.55,19.94 159.58,18.15 161.77,19.41 "/>
   <path class="fil18" d="M69.98 18.26l-5.09 2.61 -3.78 -7.37c1.91,-0.98 5.75,-3.28 7.65,-3.43 3.22,-0.25 6.49,5.49 1.21,8.19zm-1.2 -1.92c2.36,-1.21 0.77,-4.61 -1.71,-3.34l-2.46 1.26 1.71 3.34 2.46 -1.26z"/>
   <path class="fil18" d="M170.94 17.62c2.3,1.47 4.5,3.55 2.78,6.22l-2.38 -1.53c0.54,-2.15 -4.59,-5.31 -5.27,-1.96 -0.36,1.79 3.63,3.99 4.63,2.95l2.38 1.53c-2.53,3.94 -9.11,-1.31 -9.81,-3.35 -0.7,-2.05 1.42,-6.46 5.51,-4.98 0.65,0.23 1.37,0.61 2.15,1.11z"/>
   <path class="fil18" d="M56.54 15.79l7.61 4.96 -2.69 1.72 -1.28 -0.84 -3.46 2.22 0.23 1.51 -2.67 1.71 -1.34 -8.98 3.61 -2.31zm-0.28 5.52l1.8 -1.16 -2.08 -1.25 0.28 2.41z"/>
   <polygon class="fil18" points="175.61,27.92 180.16,31.86 178.36,33.94 171.72,28.2 177.16,21.92 179.24,23.72 "/>
   <path class="fil18" d="M182.33 37.92c-4.09,-4.29 -2.09,-5.5 2.3,-9.63l2.01 2.11c-0.89,0.84 -3.05,2.65 -3.43,3.58 -0.53,1.29 1.69,4.83 4.12,2.52l2.69 -2.56 2.01 2.11c-4.38,4.17 -5.61,6.14 -9.68,1.88z"/>
   <path class="fil18" d="M43.86 24.33c2.38,-2.06 4.04,-3.5 6.01,-1.23l-2.22 1.92c-0.78,-0.9 -3.72,2.48 -3.74,2.55 -0.47,1.33 3.82,-2.37 5.32,-3.15 2.25,-1.17 3.36,1.47 3.39,2 0.11,1.77 -5.39,6.18 -6.77,6.46 -0.94,0.19 -1.62,-0.51 -2.2,-1.18l2.16 -1.87c0.5,0.58 1.57,-0.56 2.37,-1.26 0.87,-0.76 1.52,-1.2 1.23,-1.53 -0.43,-0.49 -4.89,4.25 -6.67,3.37 -1.45,-0.71 -2.45,-2.31 -0.99,-4.04l2.13 -2.05z"/>
   <path class="fil18" d="M194.24 48.39c-1.47,1.16 -2.46,0.65 -3.59,-0.8l-4.24 -5.4 6.53 -5.13 4.44 5.86c1,2.04 -1.3,3.17 -2.18,3.01 0.39,0.97 -0.16,1.84 -0.95,2.46zm-1.41 -7.73l-0.62 0.49 2.19 2.6c1.39,0.11 -1.01,-2.37 -1.57,-3.09zm-0.41 5.47c0.34,0.43 0.98,-0.07 0.64,-0.5l-2.5 -3.18 -0.64 0.5 2.5 3.18z"/>
   <path class="fil18" d="M37.02 30.53l8.56 3.02 -2.2 2.31 -1.44 -0.51 -2.83 2.97 0.58 1.42 -2.19 2.29 -3.43 -8.4 2.96 -3.1zm1.03 5.43l1.48 -1.55 -2.32 -0.72 0.84 2.27z"/>
   <path class="fil18" d="M27.68 40.99c1.69,-2.15 3.96,-4.14 6.46,-2.17l-1.75 2.22c-2.08,-0.75 -5.73,4.06 -2.45,5.05 1.75,0.53 4.32,-3.22 3.38,-4.32l1.75 -2.22c3.68,2.89 -2.17,8.95 -4.28,9.44 -2.11,0.5 -6.29,-2.03 -4.43,-5.96 0.3,-0.63 0.74,-1.3 1.31,-2.04z"/>
  </g>
 </g>
</svg>
