<?xml version="1.0" encoding="UTF-8"?>
<!DOCTYPE svg PUBLIC "-//W3C//DTD SVG 1.1//EN" "http://www.w3.org/Graphics/SVG/1.1/DTD/svg11.dtd">
<!-- Creator: CorelDRAW -->
<svg xmlns="http://www.w3.org/2000/svg" xml:space="preserve" width="33.8668mm" height="34.4714mm" version="1.1" style="shape-rendering:geometricPrecision; text-rendering:geometricPrecision; image-rendering:optimizeQuality; fill-rule:evenodd; clip-rule:evenodd"
viewBox="0 0 6499.98 6616.02"
 xmlns:xlink="http://www.w3.org/1999/xlink"
 xmlns:xodm="http://www.corel.com/coreldraw/odm/2003">
 <defs>
  <style type="text/css">
   <![CDATA[
    .fil0 {fill:black}
   ]]>
  </style>
 </defs>
 <g id="Camada_x0020_1">
  <metadata id="CorelCorpID_0Corel-Layer"/>
  <path id="Yasmin_x0020_Logo.cdr" class="fil0" d="M460.22 3039.6c0,-77.19 40.38,-152.72 77.4,-218.3 76.43,-134.02 178.07,-231.27 283.96,-340.38 45.35,-46.73 92.43,-93.58 137.13,-140.68 9.73,-10.25 18.54,-20.19 27.1,-31.42 38.17,-50.07 76.04,-100.51 114.1,-150.76 0.67,-0.81 2.21,-3.09 2.84,-3.63 0.13,-0.1 14.66,-40.59 14.66,14.34 0,73.66 -3.99,47.46 -19.31,103.93 -3.74,13.84 -4.97,26.18 -9.27,40.02 -30.73,93.7 -95.02,209.2 -164.42,279.39 -89.78,90.82 -180.05,181.31 -270.08,271.98 -34.2,31.38 -68.46,63.2 -103.16,94.01 -25.87,22.99 -64.81,72.03 -90.95,81.51zm4543.01 -623.71l-35.18 -44.1c9.37,-7.47 31.69,-39.63 67,-96.52l-96.25 -120.7c-62.38,21.5 -98.59,36.24 -108.67,44.28l-33.68 -42.26c5.14,-4.09 64.08,-21.67 176.78,-52.7 112.62,-30.96 173.16,-49.81 181.58,-56.52l38.69 48.54c-8.27,6.6 -40.07,60 -95.64,160.34 -55.41,100.38 -87,153.58 -94.64,159.66zm51.55 -172.12c55.74,-98.04 86.12,-149.13 91.26,-153.22l-1.82 -2.28c-4.28,3.42 -61.32,21.21 -171.01,53.22l81.57 102.28zm-249.93 -139.72l-31.71 31.48 -167.27 -157.17 23.74 -21.8c37.87,-7.37 96.5,-22.05 175.98,-43.84 85.56,-23.59 131.2,-38.58 137.02,-44.76l2.05 -2.21c-28.41,-26.68 -70.34,-62.97 -125.64,-108.78l29.06 -28.92 159.01 149.4 -24.28 22.78c-34.47,6.95 -91.8,22.24 -171.85,45.85 -83.39,24.37 -127.69,39.36 -132.81,44.82l-2 2.13c26.87,25.26 69.82,62.22 128.69,111.03zm-67.79 -466.29c-18.6,28.21 -35.83,54.47 -51.8,79.06 -15.91,24.51 -30.63,47.48 -44.14,68.86 -63.84,101.03 -135.64,126.29 -215.36,75.91 -20.77,-13.11 -36.73,-27.31 -47.83,-42.74 -11.06,-15.3 -17.5,-32.11 -19.31,-50.44 -1.82,-18.31 0.96,-38.27 8.27,-59.77 7.41,-21.46 19.17,-45.03 35.26,-70.5 14.11,-22.3 28.92,-46.1 44.45,-71.38 15.55,-25.28 31.99,-52.34 49.42,-81.28l42.99 27.16c-38.1,56.37 -67.46,100.78 -88.04,133.35 -16.52,26.16 -28.81,48.33 -36.62,66.5 -7.89,18.12 -12.01,34.74 -12.42,49.92 -0.36,15.1 2.96,28.1 9.98,39.04 7.04,10.92 18.29,21.15 33.64,30.86 16.12,10.19 30.67,16.24 43.7,18 12.96,1.71 25.99,-0.65 39.06,-7.29 13.05,-6.66 26.2,-17.35 39.42,-32.32 13.24,-14.97 28.35,-35.99 45.37,-62.91 10.1,-15.99 21.96,-35.26 35.45,-57.85 13.51,-22.55 29.04,-48.83 46.5,-78.71l41.99 26.52zm-424.01 -61.26c-20.86,53.7 -53.2,90.49 -97.17,110.44 -43.91,19.96 -86.5,21.92 -127.67,5.91 -39.58,-15.37 -68.48,-43.55 -86.89,-84.68 -18.43,-41.05 -17.81,-86.75 1.71,-136.96 21.09,-54.3 53.61,-91.32 97.36,-110.93 43.78,-19.63 86.29,-21.42 127.48,-5.41 39.58,15.37 68.54,43.68 86.87,84.7 18.41,41.13 17.81,86.75 -1.69,136.94zm-46.58 -11.44c16.66,-42.9 18.27,-80.55 4.93,-112.78 -13.42,-32.24 -34.82,-54.07 -64.26,-65.5 -27.22,-10.59 -56.27,-7.68 -87.17,8.81 -30.9,16.51 -54.39,45.47 -70.46,86.83 -16.74,43.05 -18.35,80.72 -4.86,113.01 13.57,32.4 34.97,54.22 64.24,65.6 27.23,10.58 56.33,7.5 87.29,-9.37 30.94,-16.87 54.41,-45.76 70.28,-86.6zm-356.18 -36.95c-14.62,64.28 -66.73,86.33 -156.19,65.98 -32.76,-7.47 -60.94,-17.79 -84.6,-31.03l18.48 -38.87c26.91,16.68 53.43,28.06 79.71,34.03 59.09,13.45 92.45,3.44 100.05,-29.96 3.82,-16.81 -0.56,-32.97 -13.13,-48.48 -8.41,-10.33 -26.1,-25.58 -53.13,-45.87 -28.5,-21.28 -47.73,-39.23 -57.67,-53.95 -13.91,-20.38 -17.98,-42.84 -12.36,-67.5 5.85,-25.81 19.52,-44.72 41.19,-56.83 24.07,-13.53 54.41,-16.08 90.92,-7.79 41.38,9.42 69.09,18.52 83.16,27.45l-15.74 39.96c-24.47,-14.28 -51.65,-24.85 -81.38,-31.63 -44.68,-10.15 -70.44,-0.27 -77.23,29.63 -3.28,14.41 0.46,28 11.07,40.63 7.01,7.95 23.32,21.4 48.98,40.25 29.31,21.46 49.77,40.15 61.28,56.16 17.37,24.09 22.92,49.96 16.58,77.83zm-265.49 -317.76c-0.17,6.66 -11.59,25.64 -34.3,56.96 -32.15,44.3 -53.18,74.47 -62.99,90.47 -22.84,36.7 -34.49,64.79 -34.97,84.24 -0.92,36.7 -0.67,74.51 0.9,113.45l-51.38 -1.29c3.3,-36.81 5.34,-74.76 6.31,-113.81 0.54,-21.36 -8.94,-51.36 -28.54,-89.84 -11.07,-21.46 -29.46,-52.61 -55.2,-93.33 -19.67,-31.55 -29.46,-49.59 -29.35,-54.07l54.78 1.36c-0.13,4.66 14.59,33.43 43.95,86.39 29.46,52.9 44.03,87.67 43.61,104.49l2.65 0.06c0.42,-16.99 15.95,-50.48 46.52,-100.49 30.55,-50.09 45.99,-78.65 46.16,-85.87l51.84 1.29zm-480.78 171.79c9.98,56.73 1.42,104.97 -25.87,144.81 -27.2,39.83 -62.61,63.59 -106.12,71.24 -41.8,7.35 -81.15,-1.77 -118.19,-27.41 -37.04,-25.55 -60.19,-64.95 -69.54,-118 -10.1,-57.37 -1.48,-105.89 25.78,-145.35 27.25,-39.46 62.68,-63.05 106.21,-70.71 41.8,-7.35 81.24,1.84 118.19,27.41 37.04,25.64 60.19,64.95 69.54,118zm-45.77 14.36c-7.97,-45.31 -26.12,-78.36 -54.24,-99 -28.19,-20.63 -57.79,-28.19 -88.9,-22.72 -28.77,5.07 -52.11,22.61 -69.98,52.74 -17.87,30.11 -22.95,67.06 -15.26,110.76 8,45.51 26.16,78.56 54.43,99.15 28.39,20.69 58,28.25 88.94,22.82 28.77,-5.07 52.05,-22.8 69.78,-53.26 17.71,-30.46 22.82,-67.33 15.22,-110.49zm-316.64 250.96l-48.15 16.05c-15.78,-55.64 -33.78,-113.95 -54.07,-174.83 -19.96,-59.84 -38.71,-111.72 -56.12,-155.58l48.15 -16.05c13.09,47.02 29.29,99.65 48.75,158.01 20.42,61.24 40.92,118.69 61.44,172.39zm-206.73 -129.03c22.84,45.24 28.41,92.13 16.76,140.76 -11.75,48.67 -43.01,85.81 -93.78,111.45 -16.54,8.35 -44.76,21.15 -84.49,38.44 -22.57,-50.57 -48.79,-105.56 -78.86,-165.13 -28.25,-55.99 -54.32,-104.6 -78.08,-145.79l26.24 -13.24c6.37,-3.21 15.99,-8.27 28.85,-15.37 12.8,-7.08 21.23,-11.65 25.39,-13.74 56.16,-28.35 104.6,-35.51 145.27,-21.38 40.67,14.15 71.57,42.13 92.7,84.01zm-36.04 31.71c-17.85,-35.37 -43.99,-59.21 -78.54,-71.53 -34.47,-12.36 -75.27,-6.7 -122.47,17.12 -6.68,3.38 -15.39,8.81 -26.22,16.31 20,36.43 39.92,74.24 59.65,113.35 21.69,42.95 44.64,86.18 68.69,129.59 13.97,-3.9 26.91,-8.89 38.64,-14.82 42.05,-21.23 67.02,-49.36 74.89,-84.62 7.87,-35.28 3.05,-70.36 -14.64,-105.41zm-421.2 31.59c20.17,27.1 38.98,52.26 56.62,75.66 17.62,23.32 34.18,45.01 49.67,65.01 73.16,94.49 72.4,170.59 -2.17,228.34 -19.4,15.03 -38.19,25.2 -56.48,30.36 -18.18,5.16 -36.18,5.49 -54.01,0.94 -17.83,-4.55 -35.64,-13.95 -53.36,-28.19 -17.64,-14.28 -35.78,-33.38 -54.22,-57.19 -16.16,-20.86 -33.47,-42.9 -51.92,-66.14 -18.46,-23.22 -38.29,-47.94 -59.56,-74.2l40.21 -31.13c39.98,55.04 71.7,97.81 95.29,128.27 18.94,24.47 35.58,43.57 50.02,57.1 14.34,13.61 28.54,23.17 42.67,28.73 14.09,5.49 27.45,6.79 40.11,3.93 12.67,-2.88 26.12,-9.96 40.5,-21.07 15.09,-11.69 25.74,-23.28 31.82,-34.95 6.05,-11.59 8.29,-24.64 6.49,-39.19 -1.78,-14.55 -7.37,-30.55 -16.93,-48.1 -9.54,-17.54 -24.14,-38.92 -43.64,-64.1 -11.57,-14.95 -25.64,-32.69 -42.26,-53.09 -16.6,-20.38 -35.99,-43.93 -58.12,-70.57l39.27 -30.4zm-313.94 251.94l27.56 25.89c-24.7,25.33 -49.5,52.17 -74.31,80.42 25.47,22.88 58,51.71 97.5,86.41 43.68,38.4 90.09,77.96 139.22,118.73l-32.3 36.75c-44.28,-41.73 -89.36,-82.8 -135.31,-123.18 -38.94,-34.22 -71.95,-62.51 -98.94,-84.76 -17.43,19.81 -41.07,48.38 -71.01,85.64l-27.89 -26.22 175.48 -199.68zm-13.36 404.97c55.26,35.95 57.92,92.47 7.89,169.38 -18.33,28.16 -37.77,51.01 -58.38,68.65l-30.08 -30.79c24.97,-19.48 44.83,-40.44 59.52,-63.01 33.05,-50.82 35.2,-85.58 6.49,-104.26 -14.45,-9.4 -31.13,-10.88 -50.04,-4.45 -12.61,4.32 -33.03,15.64 -61.42,33.99 -29.83,19.38 -53.32,31.23 -70.55,35.47 -23.95,5.99 -46.43,2.03 -67.62,-11.75 -22.21,-14.43 -35.2,-33.8 -39.08,-58.31 -4.38,-27.25 3.72,-56.62 24.13,-88 23.15,-35.58 41.28,-58.42 54.51,-68.54l32.05 28.58c-21.84,18.02 -41.19,39.86 -57.81,65.41 -24.99,38.42 -24.62,66 1.07,82.72 12.4,8.06 26.45,9.25 41.96,3.67 9.88,-3.82 28.16,-14.47 54.72,-32.05 30.27,-20.06 54.87,-32.8 73.89,-38.08 28.6,-7.97 54.8,-4.22 78.75,11.36zm2881.66 2590.08c4.11,5.28 7.29,27.2 9.6,65.79 3.22,54.66 6.08,91.32 8.66,109.9 5.6,42.86 14.41,71.99 26.35,87.33 22.55,28.96 46.72,58.06 72.63,87.15l-40.54 31.59c-20.8,-30.55 -43.28,-61.19 -67.29,-92.01 -13.13,-16.87 -39.48,-34.07 -79.02,-51.4 -22.17,-9.58 -56.14,-21.99 -101.88,-37.18 -35.2,-11.92 -54.22,-19.69 -56.96,-23.2l43.22 -33.66c2.86,3.67 32.47,16.58 88.77,38.92 56.31,22.23 89.63,39.9 99.96,53.16l2.09 -1.63c-10.44,-13.4 -19.67,-49.15 -27.73,-107.21 -8.14,-58.13 -14.32,-89.99 -18.75,-95.68l40.9 -31.88zm-182.79 555.29l-45.41 21.63c-17.12,-35.93 -44.28,-86.58 -81.72,-152.18 -37.29,-65.56 -59.42,-104.98 -66.12,-118.38l-2.46 1.19c8.87,59.98 15.49,126.5 20.02,199.49 4.45,73.01 9.17,114.75 14.16,125.21l-32.65 15.57c-5.37,-11.3 -34.22,-42.34 -86.71,-93.08 -52.42,-50.76 -86.67,-85.1 -102.74,-103.14 -16.08,-18.02 -27.35,-30.84 -33.7,-38.44l-2.48 1.17c10.08,22.21 28.08,68.23 54.14,138.03 25.95,69.75 46.01,119.24 60,148.59l-41.55 19.79c-0.77,-1.63 -16.43,-48.5 -46.93,-140.74 -30.48,-92.18 -53.87,-155.25 -70.09,-189.3l63.55 -30.27c8.44,17.71 42.38,55.83 101.95,114.43 59.46,58.54 92.78,95.35 99.88,110.28l2.48 -1.19c-7.1,-14.91 -13.19,-64.81 -18.06,-149.76 -4.86,-84.87 -11.48,-135.9 -19.69,-153.14l62.07 -29.58c16.22,34.05 48.6,92.43 97.21,175.36 48.62,82.91 73.57,125.73 74.85,128.46zm-551.87 176.65l5.41 40.04 -212.27 37.52c-7.2,-54.89 -16.54,-115.08 -28.17,-180.8 -10.92,-61.76 -21.78,-115.85 -32.47,-162.16l199.13 -35.22 4.8 39.67c-48.63,6.47 -99.99,14.43 -154.1,24.01 5.89,27.04 12.94,63.72 21.11,110.01 46.66,-8.25 88.11,-16.6 124.23,-25.2l6.95 39.27c-39.21,5.28 -80.97,11.82 -125.21,19.65 7.98,45.12 16.28,87.33 24.8,126.61 58.35,-10.33 113.58,-21.48 165.81,-33.41zm-422.11 -77.12c-1.71,50.63 -19.35,94.43 -52.93,131.49 -33.68,37.02 -78.94,54.6 -135.79,52.68 -18.52,-0.61 -49.4,-2.94 -92.57,-6.87 4.51,-55.2 7.93,-116.02 10.17,-182.72 2.11,-62.68 2.61,-117.84 1.55,-165.36l29.38 0.98c7.12,0.25 17.98,0.42 32.69,0.38 14.62,-0.06 24.22,-0.02 28.87,0.15 62.88,2.11 108.78,19.1 137.67,51.03 28.89,31.96 42.53,71.32 40.96,118.23zm-46.85 10.46c1.34,-39.59 -10.13,-73.05 -34.51,-100.45 -24.3,-27.39 -62.8,-42.03 -115.64,-43.82 -7.49,-0.25 -17.71,0.33 -30.84,1.71 0.06,41.57 -0.65,84.29 -2.13,128.07 -1.61,48.1 -2.26,97.04 -2.02,146.63 14.13,3.32 27.87,5.14 41,5.59 47.08,1.59 82.51,-11.09 106.35,-38.23 23.86,-27.16 36.47,-60.25 37.79,-99.5zm-433.62 151.1l-55.12 -11.98c2.53,-11.69 -0.48,-50.73 -9.02,-117.15l-150.86 -32.78c-34.8,56.06 -53.55,90.38 -56.29,102.95l-52.8 -11.48c1.38,-6.41 35.99,-57.29 103.78,-152.52 67.77,-95.14 102.8,-147.96 105.08,-158.49l60.65 13.19c-2.25,10.34 6.81,71.84 27.12,184.71 20.42,112.82 29.54,174.02 27.46,183.56zm-68.73 -166c-18.71,-111.22 -27.43,-170.01 -26.03,-176.44l-2.86 -0.61c-1.17,5.35 -34.12,55.18 -98.96,149.26l127.84 27.79zm-392.55 1.71l-19.86 34.78c-22.72,-3.24 -45.76,-10.23 -69.21,-21.04 -55.72,-25.68 -90.55,-60.25 -104.52,-103.66 -13.95,-43.43 -10.77,-87.21 9.52,-131.22 21.28,-46.2 55.29,-78.77 101.88,-97.81 46.7,-19.1 96.41,-16.39 149.22,7.95 14.59,6.74 28.94,15.97 43.16,27.85l-24.61 35.51c-15.93,-14.49 -31.19,-25.03 -45.77,-31.76 -39.23,-18.06 -74.53,-19.56 -105.94,-4.59 -31.44,14.95 -55.22,39.98 -71.44,75.14 -16.51,35.81 -19.04,71.84 -7.5,108.11 11.57,36.39 37.87,63.99 79.06,82.97 15.68,7.24 37.68,13.15 66.02,17.77zm-407.85 -154.9l-46.35 -32.17c6.83,-9.83 19,-47.06 36.5,-111.68l-126.81 -88.04c-53.61,38.48 -84.08,63.01 -91.42,73.59l-44.39 -30.82c3.74,-5.39 55.18,-39.15 154.25,-101.18 99.02,-61.95 151.6,-97.36 157.75,-106.21l51 35.39c-6.05,8.69 -21.21,68.96 -45.64,181.03 -24.32,112.05 -39.33,172.08 -44.89,180.1zm0.04 -179.68c25.28,-109.92 39.73,-167.57 43.47,-172.97l-2.4 -1.65c-3.11,4.49 -52.65,37.91 -148.55,100.01l107.48 74.6zm1218.05 -4722.73c1709.98,0 3096.25,1386.27 3096.25,3096.25 -5.6,475.21 -114.62,989.12 -337.01,1411.36 -91.65,162.83 -169.86,126.48 -105.48,-8.66l9.87 -20.67c58.42,-113.79 88.48,-166.75 135.79,-287.47 138.97,-354.66 203.19,-714.14 205.54,-1094.56 0,-869.82 -369.67,-1653.19 -960.37,-2201.87l-311.13 -252.9c-68.81,-48.67 -139.84,-94.45 -212.77,-137.31l-268.93 -140.38c-381.07,-174.92 -805,-272.5 -1251.75,-272.5 -247.45,0 -487.86,30.09 -717.89,86.52l-304.32 91.93c-286.74,103.7 -553.15,249.85 -791.76,430.8l300.44 -31.13c255,-37.12 674.43,59 881.04,-88.38 28.12,-20.06 87.98,-67.14 87.98,-2.44 0,22.76 -11.21,20.88 -27.39,38.37 -14.2,15.35 -21.42,23.68 -36.45,37.5l-158.49 120.86c-11.48,6.05 -10.77,4.7 -22.51,10.36l-76.71 38.31c-68.27,28 -145.15,47.1 -214.94,64.37 -80.26,19.86 -392.28,36.91 -480.05,24.87 -137.63,-18.87 -346.26,-4.11 -483.64,46.62l-37.27 12.03c-38.23,14.62 -67.75,31.67 -93.64,51.53 -63.01,66.14 -122.97,135.17 -179.78,206.82 -1.67,2.44 -1.09,1.54 -1.67,2.05 -12.92,16.33 -25.64,32.84 -38.23,49.44 -8,13.55 -14.28,26.51 -25.7,41.23 -8.16,10.52 -15.01,16.29 -20.56,21.34 -4.51,6.28 -9.04,12.53 -13.51,18.85 -1.75,5.11 -2.97,11.63 -3.72,20.56 26.12,-27.68 120.19,-88.29 154.46,-108.36l117.06 -71.92 428.92 -187.26c23.72,-7.95 238.95,-81.07 175.56,9.83l-127.61 128.5c-111.13,105.16 -270.1,243.36 -408.86,305.8 -72.91,32.78 -152.45,62.99 -226.9,93.64 -26.1,10.02 -34.45,13.82 -59.09,23.07 -13.63,5.11 -19.31,6.6 -30.04,11.04 -9.56,3.93 -21.53,9.19 -34.76,14.53l-203.41 120.38c-102.07,198.32 -182.72,409.46 -238.89,630.39l546.86 -629.77 55.43 -100.67c20.61,-47.75 24.01,-50.21 73.11,-50.21 0,87.92 27.14,107.06 5.18,194.19 -15.78,62.63 -1,74.78 -37.89,167.51 -47.2,116.6 -112.18,227.13 -199.64,318.1 -56.43,58.67 -120.32,117.06 -179.18,173.94 -23.63,22.86 -47.33,45.79 -70.99,68.67 -18.25,17.68 -22.71,17.91 -40.88,33.09l-196.19 206.36c-14.86,24.7 -25.55,43.05 -33.2,57.73 -10.06,99.96 -15.24,201.35 -15.24,303.96 0,849.32 352.46,1616.2 918.95,2162.72l37.46 35.47c536.75,500.43 1256.82,806.77 2048.56,806.77 360.46,-2.13 655.76,-53.39 996.26,-171.12 30.75,-10.56 117.21,-41.96 121.36,14.45 4.68,63.41 -195.65,109.19 -244.27,122.76 -293.44,85.2 -567.95,123.43 -873.35,125.21 -1710,0 -3096.27,-1386.27 -3096.27,-3096.25 0,-57.5 1.63,-114.64 4.8,-171.35 -7.97,-14.62 -19.02,-31.61 -34.14,-52.76 -14.62,-24.93 -29.21,-49.96 -43.84,-74.83 -14.99,-25.45 -37.75,-59.34 -48.33,-85.93 -8.18,-20.56 -15.97,-41.3 -23.36,-62.15 -54.05,-152.33 -86.77,-295.59 -98.21,-456.9 -5.59,-78.75 -12.67,-157.75 -16.51,-236.51 -3.01,-61.46 -8.1,-110.84 -16.43,-171.7 -3.49,-25.39 -14.59,-126.75 -22.69,-142.79 -10.63,-21.13 -8.48,-44.8 -8.68,-68.59 0,-65.81 67.25,6.49 82.3,24.53 52.24,62.61 101.64,124.41 140.68,196.17 16.41,32.97 32.86,65.97 49.21,98.9 15.47,31.13 43.24,79.98 53.74,110.07 33.59,96.27 65.87,190.99 67.75,294.05 0.12,27.5 -2.51,38.39 6.89,43.55 4.72,-18.75 9.65,-37.43 14.7,-56.04 -1.11,-3.45 -2.23,-7.95 -3.32,-14.05 -4.66,-25.99 0.38,-69.11 -1.13,-97.48 -1.94,-36.5 -8.06,-39.4 -8.58,-81.78 -1.67,-135.67 -6.68,-309.94 20.27,-432.28l32.65 -238.47c4.61,-30.29 12.3,-47.31 17.64,-72.72l71.92 -281.37c21.98,-87.92 75.04,-174.85 96.12,-265.4 28.62,0 49.36,-5.05 49.36,24.66l0 632.61c0,71.47 -19.5,119.03 -24.64,180.72 3.03,-1.09 5.45,-1.92 7.39,-2.55 28.1,-52.45 57.66,-104.01 88.63,-154.6 -5.16,-20.69 -13.93,-42.59 -13.93,-64.64 0,-103.33 12.21,-148.76 48.33,-247.45l133.29 -302.15c21.44,-44.89 43.68,-89.5 64.79,-134.46 35.68,-75.96 55.22,-131.09 80.63,-210.37 57.25,-178.63 46.08,-340.75 83.74,-518.7 70.53,1.57 56.02,77.94 68.77,128.5 12.32,52.34 18.41,137.94 23.2,192.56 7.16,81.34 15.7,164.31 15.43,245.99 -1.4,84.99 -6.6,194.58 -35.64,276.97l-15.72 59.19c53.8,-53.84 109.69,-105.64 167.32,-155.38 3.78,-15.41 6.41,-32.42 11.75,-52.63l74.45 -188.45c36.35,-59.61 76.18,-112.76 128.25,-159.32l511.66 -367.43c2.51,-1.82 13.17,-9.44 14.39,-10.25 94.74,-60.76 208.8,-109.49 288.1,-189.66 25.08,-25.35 65.24,-91.65 83.45,-122.14 11.25,-18.83 50,-103.72 77.21,-81.13 44.47,36.87 -33.51,210.41 -53.41,254.27 -11.65,25.68 -16.79,33.32 -27.14,55.01 -29.71,62.38 -70.03,106.65 -111.32,159.8 -19.25,24.8 -62.32,68.25 -85.64,86.9l-146.58 116.33c-23.82,14.89 -31.46,21.65 -53.51,36.89l-3.69 2.55c398.85,-187.24 844.1,-292.04 1313.88,-292.04zm-1993.48 847.96c-8.56,7.6 -17.22,15.1 -25.7,22.8 -5.55,6.43 -9.87,13.11 -12.38,20.02 30.61,-2.55 38.46,-10.06 64.31,-17.79 31.21,-9.33 44.49,-3.55 81.49,-8.89 105.18,-15.12 22.3,-14.43 166.36,-14.39l599.93 -16.24c24.22,-7.52 49.84,-11.44 75.39,-14.99l46.72 -10.79c1.96,-0.65 3.99,-1.61 5.95,-2.26 47.92,-16.43 97.98,-32.09 143.98,-53.2l56.39 -33.91c-56.77,-13.22 -600.2,-1.13 -686.6,11.71 -85.56,12.69 -113.45,-9.52 -241.64,21.27 -30.25,7.25 -48.12,4.18 -80.05,10.33 -24.8,4.74 -103.97,35.91 -131.37,49.34 -17.25,9.14 -41.9,21.84 -62.78,37zm-1090.67 1975.19c5.99,-68.42 14.01,-136.25 24.36,-203.31 5.24,-127.29 8.04,-257.3 -14.91,-372.49 -11.42,-57.35 -24.2,-143.5 -45.62,-195.08 -37.45,-90.21 -89.21,-210.93 -147.34,-287.87 -7.72,-10.23 -41.76,-50.36 -53.38,-51.97 -1.27,2.23 16.2,156.88 17.96,173.45 10.65,99.11 12.96,199.13 24.84,297.22 14.22,117.54 27.37,258.76 67.62,369.19 18.19,49.92 37.71,107.65 59.94,155.35 18.52,39.77 35.05,84.05 66.54,115.52zm144.08 -700c22.09,-66.66 46.37,-132.31 72.74,-196.9l93.14 -438.82c7.81,-46.47 3.15,-409.17 3.15,-473.33l-122.74 435.83c-3.65,31.28 -3.8,42.99 -9.58,72.61 -24.93,127.98 -6.95,53.99 -17.71,138.38 -26.29,206.53 -22.44,239.79 -22.44,462.24l3.44 0zm341.57 -710.9c82.93,-127.71 175.08,-248.89 275.4,-362.69 30.13,-51.67 57.73,-104.97 75.24,-161.37 60.98,-199.05 58.21,-271.71 44.22,-477.32 -1.46,-21.32 -9.39,-70.63 -24.34,-85.33 -6.39,26.14 -6.81,63.74 -13.53,94.14 -20.15,91.09 -45.08,175.46 -81.36,261.56 -71.76,170.26 -153.25,341.63 -229.14,510.72 -2.88,9.02 -6.37,21.59 -10,31.09 -9,23.59 -4.7,2.42 -13.72,35.56 -5.68,20.9 -8.77,49.61 -15.64,74.72 -8.02,29.25 -7.35,45.05 -7.12,78.92zm3888.3 4491.19c120.76,69.13 161.68,-144.64 40.63,-129.94 -70.82,8.6 -86.33,94.54 -40.63,129.94zm1309.39 -1105.2c-28.27,-125.67 -194.17,-48.5 -132.78,53.64 34.45,57.35 131.64,36.73 133.77,-35.85l-1 -17.79zm-876.03 801.22c22.84,42.57 69.02,57.08 111.38,38.58 32.38,-14.15 40.96,-57.89 28.1,-90.92 -32.34,-83.01 -172.22,-58.23 -139.47,52.34zm542.54 -360.42c21.34,-118.53 -146.11,-115.44 -144.94,-17.39 1.02,84.03 115.83,105.1 144.94,17.39zm-1834.12 -1649.27c22.07,-14.41 138.11,-89.11 157.67,-86.29 56.77,8.18 234.75,274.86 -75.91,316.55 -162.91,21.86 -224.84,-102.01 -138.57,-181.99 17.45,-16.18 37.52,-34.53 56.81,-48.27zm-1115.81 -28.83c-82.68,224.17 -265.99,498.01 -528.88,513 -149.15,8.5 -154.75,-100.93 -85.66,-203.27l7.6 -11.25c93.05,-137.8 253.27,-219.72 404.83,-277.78 58.38,-22.38 103.68,-33.7 165.46,-42.78 41.94,-5.12 46.02,-8.25 36.64,22.07zm275.84 -1331.13c-2.23,-39.84 -9.25,-82.01 -62.2,-82.01 -54.72,0 -57.08,110.28 -66.31,147.36 -25.32,113.41 -52.45,243.54 -88.31,353.11 -32.34,98.79 -92.05,216.24 -138.28,310.98 -44.53,91.24 -99.17,171.12 -177.82,236.24 -214.19,177.36 -360.13,91.68 -474.64,-132.3 -106.4,-208.11 -148.01,-575 -103.33,-804.68 9.87,-50.73 26.91,-106.67 17.02,-158.07 -4.91,-25.56 -24.95,-31.88 -48.14,-21.13 -31.88,14.78 -38.87,61.24 -47.06,91.88 -77.87,356.08 -25.6,1231.06 501.6,1173.87l15.85 -1.71 40.32 -6.41c15.53,-3.17 38.69,-14.66 59.71,-22.46 158.42,-64.28 257.39,-244.25 336.41,-386.6 23.3,-41.9 97.9,-178.15 99.05,-229.56l16.37 0c-0.67,175.38 -14.57,283.17 -50.17,454.25 -12.69,61.03 -22.99,117.81 -33.15,179.26 -6.89,41.84 -13.93,71.53 -39.4,106.35 -9.4,10.31 -27.58,19.54 -41.13,24.61 -28.19,10.52 -22.36,4.63 -56.64,9.06 -214.63,32.63 -601.29,194.96 -661.86,423.78 -36.58,138.17 9.87,252.79 158.88,279.73 121.99,22.07 241.79,-25.49 333.72,-104.14 146.65,-125.44 263.08,-300.9 330.42,-481.09 26.45,-70.73 39.04,-113.58 55.03,-187.42 38.77,-179.18 76.56,-339.9 96.77,-523.62 4.18,-38 5.93,-76.77 6.18,-115.04 183.5,160.3 333.34,279.04 540.62,408.42 90.61,56.54 178.82,113.54 268.81,170.59 41.42,26.26 82.8,51.63 126.33,74.31 8.37,4.36 16.77,8.21 25.41,12.15 -10.34,44.32 -49.61,49.75 -119.03,86.27 -76.73,56.33 -188.19,128 -167.42,240.33 37.18,200.91 573.92,149.88 544.36,-85.7 -7.18,-57.1 -36.98,-104.83 -67.46,-152.01 -12.96,-19.12 -20.31,-31.44 -26.06,-56.04 70.17,-31.84 162.03,-44.14 238.45,-53.09 73.01,-8.56 58.77,-67.88 -36.72,-53.39 -35.91,5.45 -81.24,16.83 -118.69,23.9 -44.09,8.29 -88.25,16.68 -132.37,25.01 -92.14,-27.29 -186.5,-109.44 -271.9,-160.16 -210.95,-125.29 -632.11,-342.48 -743.84,-558.61 -35.26,-68.23 -27.77,-173.33 10.04,-239.16 28.62,-49.84 72.61,-99.13 112.32,-140.82 298.12,-283.23 945.42,-499.88 1350.96,-452.83 306.99,35.6 458.36,239.14 250.87,490.05 -10.46,12.65 -20.92,25.26 -31.32,38.04 -25.93,32.61 -43.43,37.45 -44.55,86.96 33.55,0 56.87,-0.42 83.12,-23.74 2.86,-2.53 5.57,-5.47 8.29,-8.14l54.74 -60.28c245.4,-294.84 52.26,-534.69 -282.67,-576.11 -369.17,-45.64 -962.15,126.02 -1278.91,320.81 -102.83,63.22 -151.91,106.42 -232.94,194.31l-35.79 38.08c-0.13,-40.98 -1.36,-82.47 -3.55,-123.39zm-2165.41 -648.89c6.3,-57.5 291.5,-251 342.53,-281.79 52.68,-31.78 58.86,-40.38 121.11,-67.85 50.75,-22.4 99.92,-61.32 176.27,-86.66 29.92,-9.92 1.67,0.86 29.17,-11.9 15.58,-6.31 31.19,-12.57 46.72,-19 3.8,-1.57 7.52,-3.55 11.3,-5.12 20.02,-8.31 108.06,-41.61 120.42,-29.27 13.26,13.24 5.26,2.94 -11.4,21.34l-253.27 216.92 -376.83 181.83c-11.09,4.11 -17.45,4.91 -31.21,9.87l-174.81 71.63zm657.26 -944.82c0,-214.27 517.26,-512.83 684.41,-621.81l139.84 -81.99c37.71,-22.4 95.79,-76.02 128.71,-84.85 -9.77,41.84 -57.67,105.39 -84.66,137.11 -55.6,65.39 -155.14,160.16 -226.26,209.14l-129.21 84.41c-12.99,7.75 -23.51,14.64 -35.14,22.38 -3.26,2.17 -6.43,4.55 -9.77,6.66l-160.09 94.58c-99.55,53.85 -202.6,131.32 -280.46,212.5 -21.78,22.71 0.54,11.75 -27.37,21.86z"/>
 </g>
</svg>
