<?xml version="1.0" encoding="UTF-8"?>
<!DOCTYPE svg PUBLIC "-//W3C//DTD SVG 1.1//EN" "http://www.w3.org/Graphics/SVG/1.1/DTD/svg11.dtd">
<!-- Creator: CorelDRAW -->
<svg xmlns="http://www.w3.org/2000/svg" xml:space="preserve" width="20mm" height="20mm" version="1.1" style="shape-rendering:geometricPrecision; text-rendering:geometricPrecision; image-rendering:optimizeQuality; fill-rule:evenodd; clip-rule:evenodd"
viewBox="0 0 110.89 110.89"
 xmlns:xlink="http://www.w3.org/1999/xlink"
 xmlns:xodm="http://www.corel.com/coreldraw/odm/2003">
 <defs>
  <style type="text/css">
   <![CDATA[
    .fil0 {fill:black}
   ]]>
  </style>
 </defs>
 <g id="Camada_x0020_1">
  <metadata id="CorelCorpID_0Corel-Layer"/>
  <path class="fil0" d="M55.57 0c5.29,0 9.61,4.33 9.61,9.61l0 36.1 35.99 0c5.35,0 9.73,4.38 9.73,9.73l0 0c0,5.35 -4.38,9.73 -9.73,9.73l-35.99 0 0 36.1c0,5.29 -4.33,9.61 -9.61,9.61 -5.29,0 -9.61,-4.33 -9.61,-9.61l0 -36.1 -36.22 0c-5.35,0 -9.73,-4.38 -9.73,-9.73l0 -0c0,-5.35 4.38,-9.73 9.73,-9.73l36.22 0 0 -36.1c0,-5.29 4.33,-9.61 9.61,-9.61z"/>
 </g>
</svg>



