<?xml version="1.0" encoding="UTF-8"?>
<!DOCTYPE svg PUBLIC "-//W3C//DTD SVG 1.1//EN" "http://www.w3.org/Graphics/SVG/1.1/DTD/svg11.dtd">
<!-- Creator: CorelDRAW -->
<svg xmlns="http://www.w3.org/2000/svg" xml:space="preserve" width="30.6238mm" height="30.2348mm" version="1.1" style="shape-rendering:geometricPrecision; text-rendering:geometricPrecision; image-rendering:optimizeQuality; fill-rule:evenodd; clip-rule:evenodd"
viewBox="0 0 190.73 188.31"
 xmlns:xlink="http://www.w3.org/1999/xlink"
 xmlns:xodm="http://www.corel.com/coreldraw/odm/2003">
 <defs>
  <style type="text/css">
   <![CDATA[
    .fil0 {fill:black}
    .fil22 {fill:#01042B}
    .fil19 {fill:#0E1212}
    .fil18 {fill:#161D11}
    .fil20 {fill:#1B1E1F}
    .fil21 {fill:#2B2B2A}
    .fil4 {fill:#394F51}
    .fil16 {fill:#3E5408}
    .fil10 {fill:#455543}
    .fil3 {fill:#4A4D4A}
    .fil15 {fill:#878985}
    .fil7 {fill:#90B9C7}
    .fil13 {fill:#C8E7E8}
    .fil6 {fill:#DAFA00}
    .fil5 {fill:#DEFF00}
    .fil2 {fill:#E4FD01}
    .fil9 {fill:#E8F4F6}
    .fil1 {fill:#E9FE01}
    .fil11 {fill:#F1F2ED}
    .fil14 {fill:#F3F7F5}
    .fil8 {fill:#F5F9F9}
    .fil12 {fill:#FAFAFA}
    .fil17 {fill:#FDFDFD}
   ]]>
  </style>
 </defs>
 <g id="Camada_x0020_1">
  <metadata id="CorelCorpID_0Corel-Layer"/>
  <g id="_2413617700448">
   <path class="fil0" d="M168.12 168.09c2.06,-0.72 1.22,-1.6 2.44,-2.06 0.21,1.7 -3.73,3.48 -5.2,3.82l-1.5 -1.92c-4.34,0.54 -3.76,3.9 -21.19,4.41 -3.71,0.11 -2.48,0.09 -5.2,1.2l-10.29 2.3c-1.93,0.16 -3.65,-1.05 -2.76,-2.94 1.2,0.02 0.85,0.04 1.53,1.14 2.43,0.11 10.13,-1.31 11.82,-2.36 2.82,-1.77 0.82,-0.17 5.71,-0.65 1.04,-0.1 2.06,-0.14 3.05,-0.26 1.53,-0.19 1.9,-0.69 3.01,-0.61 1.7,0.13 0.91,0.75 2.8,-0.27 7.08,-3.8 5.88,1 10.76,-7.22 0.77,-1.29 1.73,-3.57 3.74,-3.31 -0.67,2.67 -1.89,4.92 -2.28,7.98 2.7,-0 2.69,-0.11 4.87,-4.34l5.53 -12.41c0.76,-1.84 1.58,-5.31 3.1,-6.24 -0.1,6.14 -9.77,23.02 -9.95,23.76zm5.73 -25.8l0.18 -13.44c1.18,0.74 1.36,11.71 1.39,13.76 1.09,0.42 1.27,0.17 1.65,1.2 -1.55,0.71 -3.08,-0.46 -4.42,-0.74 0.94,-0.45 0.46,-0.06 1.2,-0.78zm-44.91 0.04c0.31,-3.34 -1.47,-7.23 3.04,-7.96l0.49 1.23c0.04,0.17 0.08,1.06 0.09,1.28 0.25,7.63 -0.77,5.75 -4.12,7.51 -1.15,0.61 -1.86,1.18 -3.23,0.84 0.67,-2.23 3.04,-2.64 3.73,-2.89zm-61.59 -4.82c-0.61,4.12 -1.32,7.54 -2.22,11.61 -0.41,1.85 -0.88,3.66 -1.33,5.6 -1.04,4.48 0.15,5.81 -3.31,10.5 -1.28,1.74 -2.2,1.89 -4.47,2.5 -6.18,1.68 -5.25,-2.93 -4.46,-7.66 1.18,-7.03 2.72,-15.9 4.46,-22.94 2.4,-9.68 10.34,-9.06 11.4,-6.17 0.58,1.58 0.15,5.04 -0.08,6.56zm59.07 -8.5c1.01,-0.6 1.61,-0.37 2.46,-1.21 0.61,-0.61 0.92,-1.81 1.22,-2.28 1.62,1.05 1.78,0.43 3.85,0.65 0.56,2.07 0.2,4.47 0.13,6.62 -1.97,-0.23 -2.56,-1.01 -4.37,-1.74 -1.7,-0.69 -2.64,-0.55 -3.29,-2.04zm-99.37 3.79c-0.15,-4.21 2.45,-5.74 6.59,-5.26 0.12,1.1 -0.99,3.21 -1.64,4.15 -1.1,1.59 -2.69,1.19 -4.95,1.11zm-1.64 1.4c1.47,0.15 6.16,-1.04 8.12,-0.28 0.98,5.86 -4.75,2.31 -5.94,6.06 -0.36,1.12 -1.93,9.13 -1.97,10.35 1.48,0.25 2.17,-0.05 3.38,0.54 0.42,1.25 -0.74,2.76 -1.65,3.25 -2.17,1.18 -2.09,-0.13 -2.87,2.8 -0.89,3.36 -1.73,6.21 -2.31,9.71 1.33,0.85 0.9,0.67 2.78,1.06 1.43,0.3 1.69,0.39 2.37,1.3 0.03,1.94 -1.29,2.38 -3.05,2.83 -1.45,0.71 -3.02,0.47 -4.94,0.58 -0.44,0.57 0.02,0.23 -0.78,0.38 -1.13,0.22 -1.39,-0.24 -2.22,-0.21 -0.07,0 -0.17,0.03 -0.24,0.04l-0.47 0.16c0.25,1.73 1.68,1.69 4.86,1.47 11.33,-0.8 6.11,-4.62 10.47,-5.34 2.26,-0.37 0.85,0.41 2.77,0.78 0.72,-1.13 0.48,-2.23 0.82,-3.89 0.3,-1.48 0.27,-1.17 0.63,-1.53 0.32,-3.03 5.6,-30.29 6.29,-31.62 1.31,-0.78 2.4,-0.73 4.22,-0.45 0.93,2.09 0.83,11.95 1.24,15.39 0.87,-0.13 0.75,-0.48 1.08,-1.76 0.23,-0.88 0.46,-1.92 0.54,-2.7 0.16,-1.47 0.44,-4.4 0.82,-5.14 0.77,-11.61 5.93,-6.18 5.94,-6.14 0.36,3.03 -1.14,6.21 -1.44,9.44 -0.43,4.68 -2.19,6.33 -2.88,13.54 -0.18,1.89 -1.62,5.28 -2.25,8.75 -0.52,2.81 0.21,5.87 -4.01,5.72 -1.93,-0.07 -1.35,-0.7 -1.59,-3.73l-0.25 -10.09c-0,-0 0.61,0.31 -0.4,-1.01 -0.68,1.15 -2.67,10.66 -3,12.45 -0.73,4.88 -1.19,3 -6.78,4.83 -4.56,1.49 -4.24,4.56 -15.37,4.38 -4.26,-0.07 -3.02,-1.46 -3.59,-6.8 -0.26,-2.41 -0.48,-4.72 0.46,-5.95 0.06,0.08 0.13,0.1 0.16,0.25 0.02,0.14 0.12,0.18 0.14,0.25 0.52,1.21 -0.01,-0.34 0.3,0.8 0.29,1.09 0.25,2.64 0.98,4.04 0.51,-0.85 0.3,-2.4 0.47,-3.69 0.34,-2.61 0.1,-6.57 0.43,-8.36 0.26,-1.42 0.62,-2.29 0.75,-3.71 1.03,-0.53 -1.27,0.57 0.62,-0.21 0.06,-0.02 0.16,-0.06 0.22,-0.09l0.44 -0.21c0.05,-0.02 0.15,-0.07 0.22,-0.12 0.03,-2.55 -0.29,-9.1 0.63,-10.61 0.41,0.52 0.33,0.45 0.58,1.15 0.67,1.83 -0.45,-0.01 0.68,1.67l0.25 -0.49c0.02,-0.07 0.07,-0.17 0.09,-0.26l0.13 -1.52c0.01,-2.59 0.2,-6.21 -0.94,-7.72 -1.23,-1.61 -4.16,-4.57 -4.42,-6.34 1.12,1.86 6.07,6.05 7.73,6.84 0.61,-0.3 0.98,-0.56 1.77,-0.83zm37.76 -7.08c0.42,-1.03 0.45,-0.86 1.46,-1.54 0.62,-0.42 1.04,-0.69 1.69,-1.14 1.2,-0.83 2.15,-1.97 3.88,-1.7 0.38,2.41 -0.15,3.13 -2.04,3.85 -0.69,0.26 -1.7,0.56 -2.42,0.72 -1.99,0.45 -1.6,0.15 -2.03,0.05l-0.54 -0.24zm46.18 17.32c-0.53,3.16 -1.36,6.33 -1.06,9.86 0.06,-0.07 0.13,-0.28 0.15,-0.23l0.43 -0.97c0.59,-1.55 -0.12,-0.62 0.75,-1.42 -0.27,-1.12 4.75,-27.23 5.45,-28.88 1.08,-0.45 2.67,-0.66 4.11,-0.6 0.01,6.3 -3.22,21.01 -4.69,28.63 -0.41,2.14 -0.28,2.78 -1.59,4.14 -0.9,0.94 -2.06,2.03 -3.33,2.22 -0.75,1.11 -0.05,0.27 -1.09,0.91 -0.51,0.32 -0.87,0.53 -1.41,0.82 -5.31,2.85 -5.71,0.92 -4.78,-4.76 0.56,-3.48 1.54,-9.06 2.52,-12.57l0.77 -1.71c-0.26,-1.05 1.49,-8.1 1.9,-10.16 0.37,-1.88 0.47,-8.4 5.03,-6.78 0.46,2.59 -3.14,21.45 -3.18,21.5zm17.06 -6.68l-0.11 2.84c-1.41,0.78 -3.48,1.13 -4.47,1.86 -0.56,3.11 -1.71,8.66 -1.49,11.73 1.39,0.19 2.55,0.21 3.56,0.95 0.08,8.22 -5.84,1.15 -6.12,1 -1.24,-0.69 -1.75,-0.69 -2.83,-1.63 -0.04,-2.07 1.19,-6.44 1.67,-8.47 1.78,-7.56 2.83,-17.45 5.95,-24.79l9.27 -0.31c-1.14,6.45 -4.76,0.41 -7,7.53 -0.53,1.69 -0.78,4 -1.1,5.85 -0.6,3.5 -0.85,2.75 2.67,3.43zm44.48 2.71c-0.53,4.66 -1.31,9.19 -3.23,12.47 -1.46,0.08 -2.73,-0.15 -3.78,-0.69 -0.55,-2.78 1.59,-7.13 1.62,-10.01l-0.49 -0.06c-0.99,2.97 -1.99,9.55 -3.24,10.08 -5.27,2.24 -1.24,-14.74 -0.96,-16.1 0.71,-3.36 2.99,-18.8 5.99,-20.14 0.56,-0.25 5.94,-1.67 7.21,-0.32 1.49,1.4 -2.3,22.45 -3.13,24.78zm-29.27 -4.14l2.79 -11.62c1.05,-3.54 1.43,-8.97 6.57,-6.82 0.27,3.38 -0.58,6.78 -2.11,9.12 -1.62,2.46 -1.67,5.9 -2.99,8.61 -0.8,4.07 -2.77,8.72 -4.04,12.99 -1.15,3.88 -2.42,11.33 -7.81,7.67 -0.31,-5.5 1.23,-12.5 1.69,-18.14 0.27,-3.33 0.16,-6.5 0.43,-9.73 0.19,-2.19 1.03,-7.09 0.63,-8.8 0.97,-0.39 3.92,-1 5.12,-0.28 0.68,0.64 0.1,-0.45 0.34,0.62 0.22,0.95 -1.76,13.52 -1.78,16.7 1.08,-0.24 0.29,0.05 1.17,-0.34zm-72.39 -21.9c6.44,-0.05 11.13,-4.91 14.91,0.06 1.45,1.91 3.19,3.73 4.45,5.31l4.32 4.79c0.85,0.58 0.31,-0.15 0.96,0.99 0.01,0.01 0.29,0.83 0.3,0.97 0.13,1.1 -0.01,1.08 -0.44,1.95 -0.01,0.39 -0.07,1.41 0.03,1.78 0.39,1.4 -0.46,0.79 0.81,0.73 1.04,-1.74 0.54,-3.48 2.64,-4.96 1.42,-1.01 3.76,-2.25 6.19,-1.48 2.71,0.86 2.31,2.66 1.94,5.48 -0.78,6.02 -2.53,14.17 -3.71,20.55 -0.85,4.59 -0.7,10.22 -2.72,13.64 -2.99,-0.06 -1.47,-1.4 -3.74,-1.5 -1.22,-0 -5.74,-0.4 -6.73,0.32 6.6,1.89 11.08,-0.85 9.16,5.78 -0.73,2.51 -4.19,8.28 -2.15,13.34 1.7,0.53 3.87,0.46 5.83,0.83 5.18,0.96 8,-0.87 10.95,-5.42 0.59,-0.91 0.93,-1.07 1.46,-1.81 0.46,-0.27 -0.45,-0.07 0.92,-0.37 2.86,-0.64 2.63,1 3.74,-1.05l1.13 -1.41c0.82,-1.74 2,-4.88 3.34,-6.14 1.38,0.14 1.4,0.29 2.21,1.24 -0.25,1.15 -1.11,2.1 -0.99,3.04 -0.64,1.2 -1.52,2.18 -2.25,3.5 -0.9,1.62 -1.22,2.37 -2.1,3.48 -1.61,-0.08 -0.51,-0.04 -0.93,-0.38 -2.17,0.28 -4.25,-0.33 -5.49,0.96 -1.28,1.33 -1.33,2.47 -2.92,3.68 -3.06,2.32 -5.41,3.23 -9.88,2.12 -5.42,-1.35 -6.93,0.6 -6.9,-6.32 0.03,-9.17 2.46,-7.12 2.12,-11.29 -2.69,-2.08 -3.35,0.16 -8.13,-3.21l-2.39 -1.44 -0.76 0.16c-1.75,1.1 -0.67,0.95 -1.67,2.47 -1.92,2.92 -4.86,3.27 -8.39,3.58 -6.39,0.57 -11.65,1.44 -17.7,2.23 -3.97,0.52 -6.05,0.52 -10.82,1.47 -3.63,0.72 -11.69,3.11 -13.43,0.68 0.42,-0.23 5.37,-0.41 8.05,-0.98 7.32,-1.57 17.11,-2.57 24.19,-4.93 -0.04,-0.05 -0.51,-0.84 -0.56,-0.93 -1.79,-0.87 0.22,-6.67 0.82,-9.79l4.29 -20.75c0.58,-2.87 0.79,-7.93 4.71,-7.52 1.15,2.49 0.37,5.83 -0.24,8.34 -1.32,5.48 -3.41,18.35 -4.33,23.96 -0.71,5.34 -1.94,6.83 -6.8,8.11l0.53 0.25c0.58,0.14 -0.07,0.13 0.79,0.13 1.44,-0 9.68,-2.73 9.81,-2.81 -2.71,-1.68 -4.53,-1.52 -3.8,-5.07 0.47,-2.28 1.23,-5.58 2.34,-7.09l3.81 -0.16c0.32,2.64 -0.75,4.09 -0.76,6.67 1.17,-1.14 0.97,-2.99 1.38,-4.95 0.47,-2.31 1.6,-2.67 1.38,-5.28 -0.52,-3.53 -3.09,-1.09 -3.57,-5.76 -0.51,-5.01 0.36,-11.16 3.46,-15.12 1.83,-2.34 6.88,-2.17 7.53,-1.78 1.74,1.34 0.78,5.15 0.61,7.37 -0.24,2.99 -0.91,5.1 -4.19,3.82 -1.06,-2.49 0.28,-5.46 -0.59,-7.02 -0.77,0.5 -0.78,0.5 -1.21,2.95 -1.16,6.59 -1.5,6.96 1.33,9.58 3.57,3.31 1.59,6.92 0.58,12.41 0.08,5.84 -4.07,7.94 -6.68,9.76 -1.68,1.17 -2.08,0.98 -4.05,1.61 1.8,0.98 4.86,-1.06 4.88,-1.07 1.69,-0.67 1.75,0.29 4.62,-2.34 1.12,-1.02 2.1,-1.31 1.3,-2.78 2.47,-0.35 4.32,-0.14 6.79,-0.43 -0.17,-2.87 1.51,-9.18 2.09,-12.39 0.44,-2.43 2.5,-11.32 2.23,-12.73l-0.22 -1.37c0.55,0.43 0.05,0.03 -0.36,1.04l-0.98 6.13c-2.5,0.62 -6.38,1.58 -9.23,1.19 0.13,-2.98 1.99,-2.61 4.47,-3.56 2.68,-1.03 1.63,-3.82 2.45,-4.75 -0.02,-1.42 -0.07,-5.92 0.7,-6.78l0.27 -1.13c-6.22,-1.46 -7.22,-0.24 -12.13,-0.32 -2.66,-0.04 -2.77,-0.03 -3.29,-0.79 -0.63,0.16 -1.02,0.25 -1.77,0.16l-1.54 -0.69c-1.02,-1.11 -0.44,-2.67 -0.43,-2.76 0.01,-0.18 0.07,-0.22 0.11,-0.32 1.99,-0.81 1.87,0.07 1.96,0.23 -0.72,-1.18 -2.25,-1.83 -3.58,-2.44 -1.12,0.39 -3.94,3.67 -5.45,4.63 -3,1.92 -4.39,3.96 -5.69,4.32 -1.21,0.34 -3.55,0.11 -4.91,0.12 -5.28,0.02 -1.17,2.81 -13.17,1.89 0.5,-1.13 5.56,-3.35 6.95,-4.28 4.62,-3.1 8.19,-6.31 13.86,-8.79l8.04 -3.34zm37.67 8.46c1.05,-4.47 8.25,-7.68 12.01,-5.7 0.56,3.41 -2.21,3.11 -4.92,3.59 -2.77,0.49 -4.7,1.75 -7.09,2.11zm-93.1 -2.31c3.36,4.31 3.69,4.82 4.39,8.94 -1.4,-1.66 -1.7,-2.78 -2.53,-4.2 -2.45,-4.19 -7,-7.6 -7.31,-12.84 0.96,2.22 3.86,6.04 5.46,8.1zm114.41 -26.9c-3.08,-3.52 -2.51,-7.38 -8.36,-10.48 -2.8,-1.48 -6.09,-0.23 -8.46,-1.01 -1.83,-0.61 -2.18,-3.02 1.83,-5.06 4.3,-2.19 10.02,4.56 11.74,6.32 1.53,1.58 2.93,2.91 4.4,5.04 1.99,2.88 1.07,4.79 -1.14,5.19zm38.73 21.11c-0.06,0.08 -0.15,0.16 -0.21,0.21l-0.61 0.57c-1.26,1.03 -1.95,1.11 -3.28,1.37 -1.72,0.33 -1.07,0.13 -1.47,0.52 2.43,1.57 -0.58,14.45 -1.09,16.76 -0.65,2.93 -2.49,13.38 -3.53,15.43 -1.37,0.22 -3.14,-0.15 -4.28,-0.81 -0.13,-2.32 2,-10.95 2.71,-13.59 0.55,-2.08 2.62,-12.59 1.69,-13.97 -1.31,1.17 -1.59,6.54 -1.89,8.68 -0.79,5.57 -4.14,21.61 -6.3,25.15 -3.45,-0.51 -2.94,-5.28 -2.08,-8.41 0.86,-3.13 1.27,-6.7 1.88,-10.04 0.63,-3.43 1.37,-6.5 2.07,-9.89 1.83,-8.86 2.71,-6.99 3.37,-8.34 -1.6,-0.5 -1.02,-0.02 -2,-1.23 -0.84,-1.03 -0.89,-0.86 -0.81,-1.93 -1.35,0.05 -3.2,1.68 -4.65,2.41 -2.69,1.36 -3.36,-0.37 -5.62,0.17l-4.45 0.79c-0.53,1.13 -0.37,3.06 -2.23,1.94 -1.45,-0.88 -0.04,-1.17 -3.1,-1.29 -3.1,-0.13 -5.71,0.48 -8.75,0.44 0.32,-7.19 5.61,-3.6 10.71,-5.06 0.76,-1.67 -1.41,-4.77 -2.63,-8.3 -1.1,-3.2 -1.21,-6.94 1.59,-8.26 3.98,0.79 7.08,7.98 11.34,9.55 5.93,-4.29 3.36,-11.57 5.52,-14.37 1.51,-1.97 11.18,-4.97 14.48,-5.28 1.43,0.31 1.5,0.77 3.13,1.17 1.97,0.49 2.42,0.3 3.5,-0.26 2.26,-4.09 1.03,-2.14 2.17,-5.17 0.57,-1.51 3.51,-1.98 4.96,-2.55 5.2,-2.05 9.48,-2.35 8.96,-5.6 -3,-0.14 -12.55,4.38 -16.97,4.03 -0.29,-1.78 0.18,-5.2 0.23,-7.32 0.03,-1.26 -0.18,-5.92 0.79,-6.48 0.47,1.17 0.17,9.84 0.24,11.95 4.89,0.2 12.86,-3.9 15.82,-3.28 0.96,0.74 1.72,1.7 1.64,3.49 -1.56,2.23 -7.79,3.55 -11.31,4.49 -3.57,0.95 -2.57,1.06 -3.79,4.12 -0.75,1.9 -1.68,2.98 -2.6,4.98 -1.54,3.32 -2.34,8.14 -3.76,11.97 -0.86,2.32 -4.06,9.36 -4.18,11.29 2.8,-0.68 4.14,-1.76 7.74,-2.19 9.38,-1.1 6.92,3.21 7.1,6.59 0.07,1.32 0.25,2.96 0.38,4.27 0.22,2.14 0.75,7.35 -0.05,8.93 -1.11,-2.43 -0.79,-6.34 -1.07,-9.3 -0.16,-1.66 -0.28,-3.22 -0.39,-4.85 -0.26,-3.94 0.43,-2.53 0.96,-4.17 -2.94,-0.23 -7.15,0.2 -9.91,0.65zm-3.27 -67.01c1.63,1.55 4.25,11.28 4.45,14.15 0.24,3.47 -0.19,14.67 -1.48,16.62 -0.19,0.08 -12.03,1.35 -12.6,1.32 -1.73,-1.48 -2.37,-3.29 -5.26,-3.95 -2.39,-0.54 -4.76,-0.81 -7.27,-1.39 -4.51,-1.05 -10.68,-2.08 -12.34,-5.55 -0.5,-0.29 -0.24,-0.06 -0.73,-0.67l-1.34 -2.72c-0.4,-1.39 -0.49,-3.07 -0.7,-4.61 -0.42,-3.11 -2.76,-6.21 -1.33,-8.5 1.13,-1.8 3.96,-4.61 7.04,-2.34 1.77,1.3 3.3,4.36 4.88,6.08 1.2,-0.09 1.8,-0.51 2.47,-0.95 0.96,-6.03 -2.22,-5.48 -3.44,-7.83 0.79,-1.44 1.38,-1.21 3.17,-1.64 1.95,-0.47 0.82,-1.38 3.29,-1.57 0.29,0.69 0.56,1.72 1.33,2.08 3.13,1.47 -2.18,-7.36 -2.29,-8 0.91,-0.96 1.53,-0.69 1,-2.28 -0.34,-1.01 -0.76,-1.2 -1.03,-2.43 1.06,-0.71 9.44,-4.98 10.4,-5.07 2.11,2.16 11.74,15.21 11.77,19.25zm-151.8 17.91c-0.85,5.77 -0.79,11.25 -1.01,17.22 -2.08,1.85 -7.78,1.78 -8.99,4.2 -0.82,1.64 -0.23,4.24 -0.07,6.03 0.18,2 -0.38,3.6 -0.32,6.07 1.79,-0.33 1.31,-0.98 2.89,-1.71 1.35,-0.62 2.24,-0.33 3.7,-0.45 -0.07,-2.03 -4.51,-5.46 -3.11,-8.36 0.76,-1.24 1.07,-0.35 3.98,-1.8 1.77,-0.89 2.43,-0.65 4.56,-1.03 0.63,-1.6 0.32,-9.56 0.4,-11.97 0.15,-3.95 0.51,-6.84 1.56,-10.38 4.93,-16.69 12.45,-29.69 25.28,-40.55 18.59,-15.74 44.75,-22.11 69.64,-16.33 2.55,0.59 7.6,1.99 9.85,2.18l-0.02 -0.16c-0.73,-1.57 -2.96,-4.24 -3.04,-5.64 3.65,-1.11 8.42,2.07 10.76,3.77 7.67,5.55 2.8,6.84 15.54,14.71l7.32 4.01c2.55,1.11 1.92,0.78 2.01,1.82 -1.52,0.74 -4.92,0.02 -6.96,0.54 -1.67,0.43 -4.63,1.28 -5.82,0.22 -0.86,-0.77 -3.71,-8.55 -4.59,-10.19 -3.28,-6.11 -9.86,-12.94 -16.51,-13.75 0.53,1.35 0.93,1.13 2.21,3.14 0.51,0.8 1.09,2.06 1.68,2.71 0.44,0.44 0.37,0.23 0.74,0.96 0.06,0.11 0.18,0.47 0.24,0.74 0.12,0.57 0.1,1.18 0.09,1.75 0.18,3.26 1.19,3.94 0.6,8.22 -0.35,2.54 -0.56,5.55 -1.54,7.52 -4.12,0.91 -10.59,0.35 -12.12,1.56 2.24,2.98 6.57,2.72 7.83,3.52 1.28,-0.02 1.2,-0.07 2.1,0.58 -0.41,0.71 0.03,0.48 -1.61,0.98 -0.79,0.24 -1.28,0.42 -2.09,0.57l-5.88 0.33c0.73,3.16 3.6,3.32 4.54,5.23 -2.7,1.07 -4.32,1.86 -6.73,2.96 -7.13,3.25 -6.12,-2.54 -13.13,-3.92 -3.08,-0.61 -5.72,-0.2 -8.67,0.33 -7.61,1.35 -8.8,0.36 -14.82,-2.63 -6.38,-3.16 -7.17,-3.29 -14.82,-1.29 -0.19,0.11 -0.05,0.22 -0.87,0.4 -1.73,0.36 -1.08,-0.71 -3.88,-2.82 -2.33,-1.76 -2.44,-1.45 -5.51,-1.54 -1.7,1.36 -2.45,1.49 -3.97,3.12 -4.11,4.42 -3.59,18.03 -9.94,23.76 -4.44,4.01 -4.35,-0.79 -9.1,-1 -4.26,2.44 -3.72,7.54 -4.64,13.21 -0.47,2.93 -1.96,11.89 -4.42,13.22 -0.91,1.93 -5.81,1.13 -9.25,3.57 -0.7,5.13 8.33,11.69 12.9,12.46 2.35,0.25 4.62,0.23 6.57,-0.92 1.79,-1.05 2.1,-2.82 3.52,-3.78 0.77,-1.18 1.54,-2.74 2.38,-3.85 0.83,-1.1 1.67,-2.21 2.57,-3.42 2.02,-2.72 4.03,-4.02 8.91,-3.24l4.26 -0.17 0.06 -2.45c0.35,-3.21 -3.4,-8.63 -1.86,-12.67 1.46,-3.84 6.38,-3.46 10.58,-4.27 0.83,-2.54 0.74,-4.85 3.08,-6.08 1.99,0.1 3.19,1.62 5.35,2.01 1.66,-1.13 5.03,-4.75 6.44,-6.24 1.88,-1.98 2.23,-2.5 6.55,-0.55 1.19,0.54 0.75,0.41 1.5,1.35 3.95,-0.08 2.13,1.02 5.03,-1.26 0.82,-0.64 3.02,-2.67 3.85,-2.85 1.81,-0.39 4.04,1.37 4.62,2.28 1.53,2.41 0.68,3 -0.52,4.75 -1.71,2.5 -3.51,5.15 -6.64,6.91 -3.04,1.71 -5.19,3.46 -8.03,5.2 -5.19,3.18 -11.84,7.1 -9.87,16.43 0.83,3.91 2.45,6.38 4.52,8.96l4.36 5.72c0.65,0.65 0.98,0.75 1.31,1.74 -2.06,2.06 -8.68,3.2 -11.87,4.06 -0.98,0.9 -1.99,0.93 -3.45,1.15 -1.23,0.18 -2.14,0.31 -3.33,0.55 -4.9,0.4 -8.1,1.28 -13.12,0.31 -3.85,-0.74 -7.99,-1.48 -11.74,-2.46 -1.62,-0.3 -8.06,-3.12 -11.23,-4.2l-3.77 -1.11c-0.05,-0.12 -0.17,-0.09 -0.25,-0.14 -2.14,-0.77 -4.44,-1.38 -6.46,-2.1 -1.91,-0.68 -4.53,-1.89 -6.57,-2.36 0.29,1.96 1.66,2.15 1.61,4.38 -0.06,2.25 -0.45,2.95 0.49,4.93 1.72,3.64 4.95,5.48 4.26,7.13 -1.08,-0.37 -0.88,-0.53 -1.6,-1.61 -1.19,-1.78 -2.6,-2.95 -3.6,-5.27 -1.68,-3.93 0.9,-5.78 -2.36,-9.64 -1.52,0.19 -1.51,0.85 -2.81,1.51l0.41 4.08c0.91,5.19 4.22,9.35 4.31,10.65 0.1,1.31 -0.96,-0.43 -0.04,1.78 0.33,0.8 1.85,2.84 2.44,3.59 7.46,9.54 3.67,6.76 6.01,12.21 0.79,1.83 1.89,1.93 2.71,3.44 0.38,1.4 -5.21,26.38 -5.97,30.08 -0.35,1.71 -1.22,6.44 -0.85,7.83 2.15,7.98 14.66,2.63 19.7,2.01 2.9,-0.35 5.72,-0.32 8.49,-0.68 8.62,-1.12 33.76,-3.64 39.73,-5.08 6.16,-1.49 3.97,-5.17 8.32,-3.49 0.84,0.32 2.44,0.8 3,1.13l1.74 0.45c1.39,7.73 -4.27,16.24 6.27,18 4.18,0.7 6.58,1.77 10.52,-0.44 2.49,-1.39 5.2,-4.6 7.68,-5.24 7.16,-1.91 3.44,-0.47 6.14,-3.2 3.34,0.16 2.25,1.38 10.57,-0.49 3.01,-0.68 7.03,-1.49 10,-1.96 3.54,-0.56 7.57,-0.62 10.95,-1.41l9.43 -2.46c1.53,1.25 1.75,1.65 4.76,0.92 4.16,-1.01 6.54,-11.15 9.16,-15.8 0.53,-0.94 0.74,-0.87 1.14,-1.93 1.13,-2.98 3.5,-9.92 1.64,-12.6 -1.78,-2.57 -2.24,-1.32 -0.68,-10.17 0.66,-3.73 1.44,-6.79 1.47,-10.92 0.03,-5.16 0.55,-7.1 -2.86,-9.6 -2.85,-2.09 -6.33,-1.5 -10.36,-1.95 -0.25,-1.31 1.16,-3.65 1.64,-4.98 2.67,-7.25 1.66,-6.64 2.9,-10.94 0.6,-2.07 1.78,-2.82 2.81,-4.06 3.64,-4.38 -1.53,-2.91 8,-5.86 3.97,-1.23 7.83,-2.3 7.93,-5.76 0.13,-4.55 -3.06,-7.01 -7.76,-5.77 -4.16,1.1 -8.4,3.89 -9.77,2.37 -1.69,-1.87 -1.33,-8.8 -1.98,-11.91l-2.72 -10.86c-0.49,-1.94 -0.87,-3.58 -1.75,-5.15 -0.91,-1.62 -1.73,-2.4 -2.64,-4.24 -1.59,-3.21 -3.24,-6.15 -5.09,-8.78 -0.91,-1.3 -2.32,-2.43 -2.7,-4.26 -0.64,-3.04 0.18,-3.22 -1.76,-5.15 -1.83,-1.82 -2.6,-0.94 -5.19,-1.81l-12.21 -8.19c-1.71,-1.75 -1.6,-3.75 -6.09,-7.78 -14.01,-12.57 -16.35,-2.05 -17.14,-1.7 -1.36,0.6 -33.16,-11.35 -67.92,11.16 -7,4.53 -16.57,14.17 -21.15,21.12 -4.88,7.42 -7.57,13.26 -10.62,21.21 -1.92,4.98 -1.21,4.5 -2.37,7.74z"/>
   <path class="fil1" d="M57.53 37.41c7.65,-2.01 8.44,-1.88 14.82,1.29 6.02,2.98 7.22,3.98 14.82,2.63 2.95,-0.52 5.59,-0.93 8.67,-0.33 7.01,1.38 6,7.17 13.13,3.92 2.41,-1.1 4.03,-1.88 6.73,-2.96 -0.94,-1.91 -3.81,-2.07 -4.54,-5.23l5.88 -0.33 -0.09 -0.92c0.88,-0.97 0.55,-0.56 1.7,-1.21 -1.26,-0.79 -5.59,-0.53 -7.83,-3.52 1.53,-1.21 7.99,-0.65 12.12,-1.56 0.98,-1.97 1.19,-4.99 1.54,-7.52 0.59,-4.29 -0.42,-4.96 -0.6,-8.22 -3.95,-2.46 -16.07,-3.27 -21.82,-2.87 -17.12,1.17 -34.92,9.28 -44.69,23.05 -1.37,1.92 -2.23,2.64 -1.59,3.96l1.77 -0.18z"/>
   <path class="fil2" d="M47.1 83.96l0.27 0.47c0.02,0.06 0.08,0.17 0.11,0.25 0.57,1.6 0.28,4.44 2.22,7.54 1.28,2.04 0.9,2.49 3.99,7.02 2.84,4.17 3.28,5.57 6.87,9.21 1.41,1.43 2.32,1.04 4.95,1.01 3.18,-0.86 9.8,-2 11.87,-4.06 -0.32,-0.99 -0.65,-1.08 -1.31,-1.74l-4.36 -5.72c-2.07,-2.58 -3.69,-5.05 -4.52,-8.96 -1.97,-9.33 4.67,-13.25 9.87,-16.43 2.84,-1.74 4.98,-3.48 8.03,-5.2 3.13,-1.76 4.93,-4.41 6.64,-6.91 1.19,-1.75 2.05,-2.33 0.52,-4.75 -0.58,-0.91 -2.81,-2.67 -4.62,-2.28 -0.83,0.18 -3.03,2.21 -3.85,2.85 -2.91,2.28 -1.08,1.18 -5.03,1.26 -0.74,-0.93 -0.31,-0.81 -1.5,-1.35 -4.33,-1.95 -4.67,-1.43 -6.55,0.55 -1.41,1.48 -4.78,5.11 -6.44,6.24 -2.16,-0.39 -3.36,-1.91 -5.35,-2.01 -2.34,1.23 -2.25,3.54 -3.08,6.08 -4.2,0.81 -9.12,0.43 -10.58,4.27 -1.54,4.04 2.21,9.46 1.86,12.67z"/>
   <path class="fil1" d="M129.16 68.99c0.88,-0.06 0.44,0.22 0.62,-0.47 -3.44,-4.34 0.26,-4.05 -3.06,-10.74 -0.55,-1.1 -0.79,-0.79 -0.58,-2.72 0.54,-4.75 4.98,-3.85 5.97,-2.4 0.88,1.29 1.35,3.14 2.37,4.55 1.38,1.89 0.65,3.18 1.48,5.43 1.66,4.48 4.09,4.57 7.92,6.33 3.09,1.42 6.14,2.99 9.09,4.75 2.97,1.78 4.52,2.01 7.83,-0.25 1.09,-0.74 1.25,-0.91 1.46,-2.41 0.68,-4.71 -2.35,-16.02 -2.04,-18.42 0.6,-4.7 -0.42,-3.26 3.32,-3.25l0.09 -1.6c-0.03,-4.05 -9.66,-17.1 -11.77,-19.25 -0.96,0.09 -9.35,4.36 -10.4,5.07 0.27,1.23 0.69,1.41 1.03,2.43 0.53,1.59 -0.09,1.32 -1,2.28 0.11,0.64 5.42,9.47 2.29,8 -0.77,-0.36 -1.05,-1.4 -1.33,-2.08 -2.47,0.19 -1.34,1.1 -3.29,1.57 -1.79,0.43 -2.37,0.2 -3.17,1.64 1.22,2.35 4.4,1.8 3.44,7.83 -0.68,0.44 -1.28,0.87 -2.47,0.95 -1.58,-1.72 -3.11,-4.78 -4.88,-6.08 -3.08,-2.26 -5.92,0.54 -7.04,2.34 -1.43,2.29 0.91,5.39 1.33,8.5 0.21,1.54 0.3,3.22 0.7,4.61l1.34 2.72c0.49,0.61 0.23,0.39 0.73,0.67z"/>
   <path class="fil3" d="M41.91 24.28c1.54,-0.89 11.07,-6.37 11.94,-6.42 0.14,1.99 -0.16,0.76 -1.33,1.79 -1.4,1.23 0.76,1.38 -2.16,1.1 0.95,1.83 0.04,0.56 -1.79,2.2 -0.72,0.65 -1.71,2.04 -1.95,2.99 -0.39,1.53 0.25,0.35 -0.14,1.82 -0.22,0.84 -0.48,0.75 -0.81,1.67 -0.79,2.24 0.12,2.59 0.32,4.24l1.27 -0.23c3.07,0.09 3.18,-0.22 5.51,1.54 2.8,2.11 2.15,3.19 3.88,2.82 0.82,-0.17 0.68,-0.28 0.87,-0.4l-1.77 0.18c-0.63,-1.32 0.23,-2.04 1.59,-3.96 9.77,-13.77 27.57,-21.88 44.69,-23.05 5.76,-0.39 17.87,0.42 21.82,2.87 0,-0.57 0.02,-1.18 -0.09,-1.75 -0.06,-0.27 -0.18,-0.63 -0.24,-0.74 -0.37,-0.73 -0.3,-0.52 -0.74,-0.96 -0.48,0.79 0.69,0.68 -0.64,0.65 -0.29,-0.4 -0.51,-0.65 -0.85,-1.01l-1.11 -0.99 0.02 0.16c1.53,1.42 0.67,-0.6 1.05,1.79 -6.28,-1.63 -13.82,-3.59 -21.75,-4.27 -9.65,-0.83 -14.56,-0.38 -23.35,1.55 -6.7,1.47 -13.47,3.75 -19.06,6.4 -3.15,1.5 -8.55,5.09 -11.5,7.32l-3.7 2.68z"/>
   <path class="fil4" d="M41.91 24.28c-1.74,1.86 -3.84,3.47 -5.65,5.25 -5.76,5.66 -9.74,11.96 -13.41,19.71 -4.09,8.64 -3.14,7.75 -5.61,16.48 -1.5,5.3 -1.08,9.76 -1.27,15.13 -0.06,1.88 -0.61,3.11 -0.78,4.92 2.47,-1.33 3.95,-10.29 4.42,-13.22 0.92,-5.67 0.38,-10.77 4.64,-13.21 4.75,0.21 4.66,5 9.1,1 6.35,-5.73 5.83,-19.34 9.94,-23.76 1.52,-1.63 2.27,-1.76 3.97,-3.12l-1.27 0.23c-0.2,-1.65 -1.11,-2 -0.32,-4.24 0.32,-0.92 0.59,-0.83 0.81,-1.67 0.39,-1.48 -0.25,-0.29 0.14,-1.82 0.24,-0.95 1.22,-2.35 1.95,-2.99 1.83,-1.64 2.74,-0.37 1.79,-2.2 2.92,0.28 0.76,0.13 2.16,-1.1 1.17,-1.03 1.47,0.2 1.33,-1.79 -0.87,0.05 -10.4,5.54 -11.94,6.42z"/>
   <path class="fil5" d="M140.83 117.86c1.01,-1.42 1.95,-1.76 3.38,-2.75 2.93,-2.02 7.66,-6.56 9.79,-9.11 1.71,-2.04 8.81,-12.68 9.04,-15.98 -0.32,-1.26 -0.35,-0.16 0.67,-1.32 -0.23,-0.17 -0.18,-0.42 -0.4,-0.69 -3.29,0.3 -12.96,3.31 -14.48,5.28 -2.16,2.8 0.42,10.09 -5.52,14.37 -4.26,-1.57 -7.36,-8.76 -11.34,-9.55 -2.8,1.32 -2.69,5.06 -1.59,8.26 1.22,3.54 3.39,6.63 2.63,8.3 -5.1,1.46 -10.39,-2.14 -10.71,5.06 3.04,0.04 5.65,-0.57 8.75,-0.44 3.06,0.13 1.65,0.42 3.1,1.29 1.86,1.13 1.7,-0.8 2.23,-1.94l4.45 -0.79z"/>
   <path class="fil6" d="M129.16 68.99c1.66,3.47 7.82,4.5 12.34,5.55 2.51,0.58 4.88,0.85 7.27,1.39 2.89,0.65 3.52,2.46 5.26,3.95 0.56,0.03 12.41,-1.24 12.6,-1.32 1.29,-1.95 1.72,-13.15 1.48,-16.62 -0.2,-2.87 -2.81,-12.6 -4.45,-14.15l-0.09 1.6c-3.74,-0.01 -2.72,-1.45 -3.32,3.25 -0.31,2.4 2.72,13.71 2.04,18.42 -0.22,1.51 -0.38,1.67 -1.46,2.41 -3.31,2.26 -4.86,2.03 -7.83,0.25 -2.95,-1.77 -6,-3.33 -9.09,-4.75 -3.83,-1.76 -6.26,-1.85 -7.92,-6.33 -0.83,-2.25 -0.11,-3.54 -1.48,-5.43 -1.02,-1.41 -1.49,-3.26 -2.37,-4.55 -0.99,-1.45 -5.43,-2.35 -5.97,2.4 -0.22,1.93 0.03,1.62 0.58,2.72 3.32,6.69 -0.39,6.4 3.06,10.74 -0.18,0.7 0.26,0.42 -0.62,0.47z"/>
   <path class="fil7" d="M11.86 65.69c-0.73,0.51 -0.31,0.02 -0.65,0.98 -0.26,0.72 -0.04,1.49 -0.42,2.98 -0.92,3.57 0.45,12.19 -1.02,13.15 -1.02,0.66 -5.27,0.18 -7.75,2.89 -3.09,3.36 -0.26,6.75 -0.81,8.76 -0.16,0.58 -0.94,1.8 -1.13,3.06 -0.29,1.95 0.46,5.69 1.94,7.08l-0.41 -4.08c1.3,-0.66 1.29,-1.32 2.81,-1.51 3.25,3.86 0.68,5.71 2.36,9.64 0.99,2.32 2.4,3.49 3.6,5.27 0.73,1.08 0.52,1.25 1.6,1.61 0.69,-1.65 -2.54,-3.49 -4.26,-7.13 -0.94,-1.99 -0.54,-2.69 -0.49,-4.93 0.06,-2.22 -1.32,-2.42 -1.61,-4.38 2.04,0.47 4.66,1.67 6.57,2.36 2.01,0.72 4.32,1.33 6.46,2.1 2.29,0.25 0.74,0.16 1.27,-0.36l-0.89 -1.19c-0.04,-0.05 -0.12,-0.13 -0.18,-0.2 -4.56,-0.77 -13.59,-7.33 -12.9,-12.46 3.44,-2.44 8.35,-1.64 9.25,-3.57 0.17,-1.81 0.71,-3.04 0.78,-4.92 0.18,-5.37 -0.23,-9.83 1.27,-15.13 2.47,-8.72 1.52,-7.84 5.61,-16.48 3.67,-7.74 7.65,-14.05 13.41,-19.71 1.81,-1.78 3.91,-3.39 5.65,-5.25l3.7 -2.68c2.95,-2.23 8.34,-5.83 11.5,-7.32 5.59,-2.65 12.36,-4.93 19.06,-6.4 8.79,-1.93 13.7,-2.38 23.35,-1.55 7.93,0.68 15.48,2.65 21.75,4.27 -0.38,-2.39 0.48,-0.37 -1.05,-1.79 -2.25,-0.18 -7.3,-1.58 -9.85,-2.18 -24.9,-5.78 -51.05,0.58 -69.64,16.33 -12.83,10.87 -20.35,23.86 -25.28,40.55 -1.04,3.53 -1.41,6.42 -1.56,10.38 -0.09,2.41 0.22,10.37 -0.4,11.97 -2.13,0.38 -2.79,0.14 -4.56,1.03 -2.9,1.46 -3.22,0.56 -3.98,1.8 -1.4,2.9 3.03,6.33 3.11,8.36 -1.46,0.12 -2.35,-0.17 -3.7,0.45 -1.58,0.73 -1.1,1.38 -2.89,1.71 -0.06,-2.48 0.5,-4.07 0.32,-6.07 -0.16,-1.79 -0.75,-4.39 0.07,-6.03 1.21,-2.42 6.91,-2.35 8.99,-4.2 0.22,-5.97 0.17,-11.45 1.01,-17.22z"/>
   <path class="fil8" d="M94.18 157.96c-0.35,-0.87 3.35,-18.08 3.85,-22.26 0.4,-3.35 -0.29,-5.57 2.45,-6.33 0.12,4.87 -2.75,17.01 -4.08,22.32 -0.3,1.19 -0.61,2.28 -0.9,3.48 -0.88,3.65 -0.45,2.48 -1.32,2.78zm0.38 -26.94c-0.08,0.55 -0.19,1.71 -0.33,2.22 -0.23,0.83 -0.05,0.26 -0.27,0.67 -0.31,0.6 -0.15,0.29 -0.47,0.66 0.14,0.4 0.27,-0.26 0.09,0.75 -0.13,0.77 0.05,0.34 -0.44,0.73 0.27,1.41 -1.79,10.31 -2.23,12.73 -0.58,3.21 -2.26,9.51 -2.09,12.39 -0.08,0.09 -0.23,0.03 -0.31,0.18l-4.42 0.41c0.68,0.01 -0,-0.12 0.32,0.59l0.76 -0.16c3.16,-0.52 9.04,-0.06 10,0.56 2.27,0.1 0.75,1.44 3.74,1.5 2.02,-3.42 1.86,-9.05 2.72,-13.64 1.18,-6.38 2.93,-14.53 3.71,-20.55 0.37,-2.82 0.77,-4.62 -1.94,-5.48 -2.43,-0.77 -4.77,0.47 -6.19,1.48 -2.1,1.49 -1.6,3.22 -2.64,4.96z"/>
   <path class="fil8" d="M153.92 118.44c-0.67,1.35 -1.54,-0.52 -3.37,8.34 -0.7,3.39 -1.45,6.47 -2.07,9.89 -0.61,3.34 -1.02,6.92 -1.88,10.04 -0.86,3.13 -1.38,7.89 2.08,8.41 2.16,-3.54 5.51,-19.58 6.3,-25.15 0.3,-2.14 0.58,-7.5 1.89,-8.68 0.93,1.38 -1.14,11.89 -1.69,13.97 -0.7,2.65 -2.84,11.28 -2.71,13.59 1.14,0.65 2.91,1.02 4.28,0.81 1.03,-2.05 2.88,-12.5 3.53,-15.43 0.51,-2.31 3.52,-15.2 1.09,-16.76 -1.51,-0.57 -1.69,-0.99 -3.55,-0.76l-3.89 1.73z"/>
   <path class="fil9" d="M164.99 142.17c1.16,-1.02 4,0.25 5.15,0.18l0.25 -1.03c0.04,-0.1 0.09,-0.18 0.13,-0.28l0.34 -0.57c0.83,-2.33 4.62,-23.38 3.13,-24.78 -1.27,-1.35 -6.65,0.07 -7.21,0.32 -3.01,1.35 -5.29,16.78 -5.99,20.14 -0.29,1.36 -4.31,18.33 0.96,16.1 1.24,-0.53 2.25,-7.1 3.24,-10.08z"/>
   <path class="fil10" d="M28.92 97.09l0.04 1.08c1.9,0.56 3.05,2.52 3.65,4.2 0.41,1.15 -0.1,0.38 0.63,1.58 1.56,2.57 0.37,2.09 0.64,5.05 3.76,0.99 7.89,1.72 11.74,2.46 5.02,0.97 8.22,0.09 13.12,-0.31 -0.46,-0.91 -0.77,-1.07 -1.87,-1.59 -0.9,-0.42 -1.07,-0.35 -1.85,-0.94 2.12,1.96 1.7,0.86 1.99,2.74 -0.7,0 -1.94,0.09 -2.58,-0.1l-1.59 -1.07c-0.05,-0.04 -0.13,-0.1 -0.18,-0.15 -1.84,-1.61 -0.46,-1.28 -3.46,-2.74 -0.07,-0.03 -0.15,-0.07 -0.22,-0.11 -2.45,-1.25 -2.9,-1.96 -3.76,-3.71 -0.51,-1.03 -0.18,-0.37 -0.85,-1.27 -1.71,-2.31 -1.87,-1.95 -2.62,-3.77 -0.19,-0.45 -0.33,-0.84 -0.54,-1.35 -0.86,-2.07 -1.29,-4.31 1.94,-4.37 1.88,-0.04 2.01,0.45 2.01,0.46l-0.97 -6.22 -1.41 -0.41c-4.88,-0.78 -6.89,0.52 -8.91,3.24 -0.9,1.21 -1.73,2.32 -2.57,3.42 -0.84,1.11 -1.62,2.67 -2.38,3.85z"/>
   <path class="fil11" d="M78.01 149.98c0.95,0.73 0.1,0.27 1.22,0.76 0.26,2.37 -0.51,4.08 -1.09,6.07 -0.56,1.95 -0.88,4.24 -3.26,3.75 -0.44,-2.3 0.69,-4.09 -0.54,-5.65 -2.06,0.44 -0.77,0.26 -2.13,3.54 -0.03,0.07 -0.07,0.15 -0.1,0.21 -0.03,0.07 -0.07,0.15 -0.1,0.22l-0.39 1.29c-0.13,0.78 -0.14,2.11 0.2,2.81 1.33,2.69 6.42,1.71 8.48,-3.03 0.25,-0.57 0.4,-0.98 0.63,-1.58l1.03 -1.96c1.02,-5.49 2.99,-9.1 -0.58,-12.41 -2.83,-2.62 -2.49,-2.98 -1.33,-9.58 0.43,-2.45 0.44,-2.45 1.21,-2.95 0.87,1.55 -0.47,4.52 0.59,7.02 3.28,1.28 3.95,-0.83 4.19,-3.82 0.18,-2.22 1.13,-6.03 -0.61,-7.37 -0.66,-0.39 -5.7,-0.56 -7.53,1.78 -3.1,3.95 -3.96,10.11 -3.46,15.12 0.47,4.67 3.05,2.23 3.57,5.76z"/>
   <path class="fil12" d="M49.35 137.98c-0.37,0.75 -0.66,3.67 -0.82,5.14 -0.08,0.78 -0.31,1.82 -0.54,2.7 -0.33,1.27 -0.21,1.63 -1.08,1.76l-0.39 -0.49c-0.65,-1.16 -0.45,-1.13 -0.71,-3.01 -0.36,-2.64 0.6,-10.65 -1.72,-10.55 -1.52,0.07 -1.42,2.8 -2.17,5.64 -1.28,4.83 -4.94,18.01 -3.18,20.48 0.06,-0.06 0.14,-0.24 0.16,-0.19l2.01 -4.37c0.47,-1.42 0.38,-0.91 0.96,-2.13 0.54,-1.13 0.3,-1.56 1.28,-2.41 1.06,1.17 0.92,7.29 0.92,8.7 0.01,2.98 0.62,5.71 0.65,8.49 3.83,0.13 2.48,-1.84 3.78,-6.9 0.93,-3.6 1.45,-6.11 1.99,-9.5 0.24,-1.51 0.4,-3.48 0.74,-5.03 0.43,-1.94 0.79,-2.98 1.02,-4.97 0.27,-2.31 1.56,-8.18 1.28,-9.81l-1.26 0c-0.38,1.25 -1.05,1.78 -1.43,2.56 -0.03,0.06 -0.07,0.14 -0.09,0.2 -0.28,0.7 -0.23,1.04 -0.33,1.73 -0.26,1.74 -0.26,1.38 -1.08,1.96z"/>
   <path class="fil9" d="M126.39 137.77c-3.52,-0.68 -3.27,0.07 -2.67,-3.43 0.32,-1.86 0.56,-4.16 1.1,-5.85 2.24,-7.12 5.86,-1.08 7,-7.53l-9.27 0.31c-3.12,7.33 -4.17,17.22 -5.95,24.79 -0.48,2.03 -1.71,6.4 -1.67,8.47 1.08,0.94 1.59,0.93 2.83,1.63 0.28,0.16 6.2,7.23 6.12,-1 -1,-0.74 -2.17,-0.76 -3.56,-0.95 -0.23,-3.07 0.93,-8.62 1.49,-11.73 0.99,-0.73 3.06,-1.07 4.47,-1.86l0.11 -2.84z"/>
   <path class="fil13" d="M49.35 137.98c0.82,-0.58 0.82,-0.22 1.08,-1.96 0.1,-0.69 0.05,-1.03 0.33,-1.73 0.02,-0.06 0.06,-0.14 0.09,-0.2 0.38,-0.79 1.05,-1.31 1.43,-2.56l1.26 0c0.27,1.63 -1.01,7.5 -1.28,9.81 -0.23,2 -0.59,3.04 -1.02,4.97 -0.34,1.55 -0.5,3.52 -0.74,5.03 -0.55,3.39 -1.06,5.9 -1.99,9.5 -1.31,5.06 0.04,7.03 -3.78,6.9 -0.03,-2.79 -0.64,-5.52 -0.65,-8.49 -0.01,-1.42 0.13,-7.53 -0.92,-8.7 -0.99,0.85 -0.75,1.28 -1.28,2.41 -0.58,1.22 -0.48,0.72 -0.96,2.13l-2.01 4.37c-0.02,-0.05 -0.1,0.13 -0.16,0.19 -1.76,-2.47 1.9,-15.65 3.18,-20.48 0.75,-2.84 0.66,-5.58 2.17,-5.64 2.31,-0.1 1.35,7.91 1.72,10.55 0.26,1.88 0.06,1.85 0.71,3.01l0.39 0.49c-0.41,-3.43 -0.31,-13.3 -1.24,-15.39 -1.83,-0.28 -2.92,-0.33 -4.22,0.45 -0.7,1.33 -5.97,28.59 -6.29,31.62 -0,2.02 -0.57,4.09 -0.01,5.78 1.23,0.34 2.07,0.41 2.82,-0.58 0.49,-0.65 0.75,-1.85 1.5,-2.56 0.33,-1.78 2.32,-11.3 3,-12.45 1.01,1.33 0.4,1.01 0.4,1.01l0.25 10.09c0.23,3.03 -0.34,3.66 1.59,3.73 4.22,0.15 3.5,-2.91 4.01,-5.72 0.64,-3.47 2.07,-6.86 2.25,-8.75 0.69,-7.21 2.46,-8.87 2.88,-13.54 0.3,-3.23 1.8,-6.41 1.44,-9.44 -0.02,-0.03 -5.17,-5.47 -5.94,6.14z"/>
   <path class="fil8" d="M25.4 134.2l-0.06 0.38c-0.01,0.04 -0.04,0.14 -0.06,0.19l-0.2 0.38c-0.39,0.7 -0.24,0.21 -0.61,1 -0.73,1.56 -1.05,4.95 -1.57,6.93 -0.43,1.61 -0.51,2.99 -0.98,4.69 -0.44,1.56 -0.69,3.02 -0.98,4.68 -0.61,3.46 -3.57,17.66 -2.97,19.97l1.35 -0.01c1.92,-0.11 3.48,0.13 4.94,-0.58l0.65 -0.94c-0.17,-0.64 -2.17,-2.15 -2.82,-2.54l0.07 -1.71c0.58,-3.5 1.42,-6.35 2.31,-9.71 0.78,-2.94 0.7,-1.63 2.87,-2.8 0.91,-0.5 2.06,-2 1.65,-3.25 -1.2,-0.59 -1.9,-0.29 -3.38,-0.54 0.04,-1.22 1.62,-9.23 1.97,-10.35 1.19,-3.75 6.92,-0.21 5.94,-6.06 -1.96,-0.76 -6.64,0.43 -8.12,0.28z"/>
   <path class="fil14" d="M141.6 136.33c0.14,0.8 -0.69,6.41 -3.01,7.47 0.04,-2.49 0.69,-6.01 0.84,-9.12 0.12,-2.48 1.1,-7.03 -1.16,-8.01 -0.5,0.7 -0.42,0.58 -0.66,1.43l-1.28 16.03c-0.14,1.68 0.22,2.44 0.25,3.79 0.04,1.97 -0.9,5.67 -0.19,7.02 1.38,0.03 1.38,-0.26 2.05,-1.6 2.61,-5.17 3.69,-5.91 5.08,-12.62 0.49,-2.37 -0.19,-3.27 0.99,-4.13 0.8,-0.59 0.3,0.1 1.36,-0.96 1.32,-2.71 1.37,-6.15 2.99,-8.61 1.54,-2.33 2.39,-5.74 2.11,-9.12 -5.14,-2.15 -5.52,3.28 -6.57,6.82l-2.79 11.62z"/>
   <path class="fil15" d="M39.47 166.9c-0.74,0.71 -1,1.91 -1.5,2.56 -0.75,0.99 -1.59,0.92 -2.82,0.58 -0.57,-1.68 0,-3.75 0.01,-5.78 -0.36,0.36 -0.33,0.06 -0.63,1.53 -0.34,1.66 -0.1,2.76 -0.82,3.89 -1.91,-0.37 -0.51,-1.15 -2.77,-0.78 -4.36,0.71 0.86,4.54 -10.47,5.34 -3.19,0.22 -4.61,0.26 -4.86,-1.47l0.47 -0.16c0.07,-0.01 0.17,-0.03 0.24,-0.04 0.84,-0.04 1.1,0.42 2.22,0.21 0.8,-0.16 0.34,0.18 0.78,-0.38l-1.35 0.01c-0.6,-2.3 2.36,-16.51 2.97,-19.97 0.29,-1.66 0.55,-3.12 0.98,-4.68 0.48,-1.7 0.56,-3.08 0.98,-4.69 0.52,-1.98 0.84,-5.38 1.57,-6.93 0.37,-0.79 0.22,-0.3 0.61,-1l0.2 -0.38c0.02,-0.05 0.04,-0.15 0.06,-0.19l0.06 -0.38c-0.79,0.28 -1.17,0.54 -1.77,0.83 -1.66,-0.79 -6.61,-4.98 -7.73,-6.84 0.26,1.77 3.2,4.73 4.42,6.34 1.15,1.51 0.95,5.12 0.94,7.72l-0.13 1.52c-0.02,0.09 -0.07,0.19 -0.09,0.26l-0.25 0.49c-1.13,-1.68 -0.01,0.16 -0.68,-1.67 -0.25,-0.69 -0.17,-0.63 -0.58,-1.15 -0.92,1.51 -0.6,8.06 -0.63,10.61 -0.07,0.05 -0.17,0.09 -0.22,0.12l-0.44 0.21c-0.06,0.03 -0.16,0.06 -0.22,0.09 -1.89,0.78 0.41,-0.32 -0.62,0.21 -0.13,1.42 -0.49,2.29 -0.75,3.71 -0.33,1.79 -0.1,5.75 -0.43,8.36 -0.17,1.29 0.04,2.84 -0.47,3.69 -0.73,-1.4 -0.69,-2.95 -0.98,-4.04 -0.3,-1.14 0.22,0.42 -0.3,-0.8 -0.03,-0.07 -0.12,-0.1 -0.14,-0.25 -0.02,-0.15 -0.1,-0.17 -0.16,-0.25 -0.94,1.23 -0.71,3.54 -0.46,5.95 0.57,5.34 -0.67,6.73 3.59,6.8 11.13,0.18 10.81,-2.9 15.37,-4.38 5.6,-1.83 6.05,0.05 6.78,-4.83z"/>
   <path class="fil7" d="M55.26 167.23c-0.05,-2 0.57,-3.22 1.85,-4.15 2.05,-1.49 1.95,-3.61 2.95,-8.2 0.39,-1.79 0.8,-2.81 0.82,-4.76 0.04,-3.93 -0.06,-1.78 0.75,-5.01 0.42,-1.69 0.79,-2.81 1.27,-4.42 0.71,-2.34 0.69,-7.65 0.89,-10.58 3.01,-0.3 3.18,0.53 3.21,3.3 0.04,4.05 -0.98,7.27 -1.9,10.83 -0.56,2.18 -0.43,3.55 -0.84,5.86 -0.26,1.5 -1.14,3.29 -1.58,4.65 -0.51,1.55 -0.75,3.86 -1.05,5.5 -0.71,3.8 -2.02,6.8 -6.36,6.99zm-3.08 -0.35c-0.76,-4.58 0.62,-6.59 1.11,-10.23 0.58,-4.21 2.86,-17.13 4.64,-21.28 0.39,-0.9 0.71,-1.16 1.05,-1.81 1.01,-1.91 0.6,-2.99 3.34,-3.27 -0.01,0.35 0.03,1.22 -0.01,1.56 -0.21,1.89 -1.12,1.69 -1.62,3.16 -0.48,1.42 -0.31,3.14 -0.71,4.76 -1.26,5.19 -1.33,1.08 -2.16,9.42 -0.72,7.19 -1.64,4.55 -1.94,9.41 -0.31,4.95 0.54,8.83 -3.7,8.27zm15.15 -29.37c0.22,-1.52 0.66,-4.98 0.08,-6.56 -1.06,-2.9 -9,-3.51 -11.4,6.17 -1.75,7.04 -3.28,15.91 -4.46,22.94 -0.79,4.73 -1.72,9.34 4.46,7.66 2.27,-0.62 3.19,-0.76 4.47,-2.5 3.46,-4.69 2.27,-6.02 3.31,-10.5 0.45,-1.94 0.92,-3.75 1.33,-5.6 0.91,-4.07 1.61,-7.48 2.22,-11.61z"/>
   <path class="fil4" d="M69.57 119.88c-0.47,-1.11 -0.73,-2.6 -0.87,-4.08 0.02,-0.93 0.05,-0.75 0.51,-1.37l-8.04 3.34c-5.67,2.47 -9.24,5.69 -13.86,8.79 -1.39,0.93 -6.45,3.16 -6.95,4.28 11.99,0.92 7.89,-1.87 13.17,-1.89 1.36,-0 3.69,0.22 4.91,-0.12 1.3,-0.36 2.69,-2.4 5.69,-4.32 1.51,-0.97 4.33,-4.25 5.45,-4.63z"/>
   <path class="fil8" d="M64.07 165.94c3.76,0.15 3.04,-1.27 3.91,-3.77 0.33,-0.95 0.49,-1.31 1.34,-1.98 0.92,-5.61 3.01,-18.48 4.33,-23.96 0.61,-2.51 1.38,-5.85 0.24,-8.34 -3.92,-0.42 -4.12,4.64 -4.71,7.52l-4.29 20.75c-0.6,3.12 -2.62,8.91 -0.82,9.79z"/>
   <path class="fil11" d="M109.61 151.68l-0.18 2.22c-0.13,0.86 -0.5,2.74 0.14,3.29 1.27,-0.19 2.44,-1.28 3.33,-2.22 1.31,-1.36 1.17,-2 1.59,-4.14 1.47,-7.62 4.7,-22.33 4.69,-28.63 -1.45,-0.06 -3.04,0.15 -4.11,0.6 -0.7,1.65 -5.72,27.76 -5.45,28.88z"/>
   <path class="fil1" d="M69.21 114.43c-0.46,0.62 -0.49,0.43 -0.51,1.37 3.71,1.72 7.1,4.35 10.98,6.29 2.7,1.35 9.81,4.31 13.14,3.98l0.07 -1.47 -4.32 -4.79c-1.26,-1.59 -3,-3.4 -4.45,-5.31 -3.78,-4.97 -8.47,-0.11 -14.91,-0.06z"/>
   <path class="fil7" d="M69.33 160.19c-0.85,0.67 -1.01,1.03 -1.34,1.98 -0.87,2.5 -0.16,3.92 -3.91,3.77 0.06,0.1 0.52,0.89 0.56,0.93 -7.08,2.36 -16.87,3.36 -24.19,4.93 -2.68,0.57 -7.63,0.75 -8.05,0.98 1.74,2.43 9.8,0.05 13.43,-0.68 4.78,-0.95 6.85,-0.95 10.82,-1.47 6.05,-0.79 11.31,-1.66 17.7,-2.23 3.53,-0.31 6.47,-0.66 8.39,-3.58 1.01,-1.53 -0.08,-1.37 1.67,-2.47 -0.32,-0.71 0.36,-0.58 -0.32,-0.59l4.42 -0.41c0.07,-0.15 0.23,-0.09 0.31,-0.18 -2.47,0.29 -4.32,0.08 -6.79,0.43 0.81,1.47 -0.18,1.75 -1.3,2.78 -2.88,2.63 -2.93,1.67 -4.62,2.34 -0.02,0.01 -3.08,2.05 -4.88,1.07 1.97,-0.63 2.37,-0.44 4.05,-1.61 2.61,-1.83 6.76,-3.92 6.68,-9.76l-1.03 1.96c-0.22,0.59 -0.38,1 -0.63,1.58 -2.07,4.74 -7.15,5.72 -8.48,3.03 -0.34,-0.69 -0.33,-2.02 -0.2,-2.81l0.39 -1.29c0.03,-0.07 0.07,-0.15 0.1,-0.22 0.03,-0.07 0.07,-0.15 0.1,-0.21 1.36,-3.28 0.07,-3.11 2.13,-3.54 1.23,1.55 0.1,3.35 0.54,5.65 2.39,0.49 2.7,-1.81 3.26,-3.75 0.57,-2 1.35,-3.7 1.09,-6.07 -1.12,-0.49 -0.26,-0.03 -1.22,-0.76 0.22,2.61 -0.91,2.97 -1.38,5.28 -0.4,1.96 -0.2,3.8 -1.38,4.95 0.01,-2.58 1.08,-4.03 0.76,-6.67l-3.81 0.16c-1.11,1.52 -1.87,4.81 -2.34,7.09 -0.73,3.55 1.09,3.39 3.8,5.07 -0.13,0.08 -8.37,2.81 -9.81,2.81 -0.87,0 -0.21,0.01 -0.79,-0.13l-0.53 -0.25c4.86,-1.27 6.09,-2.77 6.8,-8.11z"/>
   <path class="fil10" d="M163.04 90.02c0.76,0.14 0.88,0.02 1.31,0.72 1.32,2.15 -2.3,6.32 -4.03,9.27 -2.4,4.09 -2.57,4.35 -3.6,8.07 -0.46,1.66 -0.8,0.94 -0.67,3.3 -0.07,0.06 -0.2,0.02 -0.24,0.14 -0.24,0.74 -0.12,0.01 -0.46,0.3 -0.83,0.7 -0.07,-0.52 -0.72,0.8 1.23,0.04 2.68,1.1 3.51,1.98l0.76 1.29c-1.89,0.62 -0.28,0.12 -1.09,0.82 1.86,-0.23 2.04,0.19 3.55,0.76 0.4,-0.38 -0.26,-0.18 1.47,-0.52 1.33,-0.26 2.02,-0.34 3.28,-1.37l0.61 -0.57c0.06,-0.05 0.14,-0.14 0.21,-0.21 -1.26,0.13 -2.44,0.28 -3.51,0.52 -2.71,0.6 -1.33,1.73 -3.17,0.77 -0.14,-1.35 1.68,-5.57 2.21,-6.73 4.64,-10.1 3.56,-10.49 6.01,-16.93 0.5,-1.3 1.07,-2.28 1.47,-3.5 -1.09,0.56 -1.53,0.75 -3.5,0.26 -1.63,-0.4 -1.7,-0.86 -3.13,-1.17 0.22,0.28 0.17,0.53 0.4,0.69 -1.02,1.16 -0.98,0.06 -0.67,1.32z"/>
   <path class="fil13" d="M169.93 88.92c-0.41,1.23 -0.98,2.2 -1.47,3.5 -2.46,6.44 -1.37,6.82 -6.01,16.93 -0.53,1.16 -2.35,5.38 -2.21,6.73 1.85,0.96 0.46,-0.18 3.17,-0.77 1.07,-0.24 2.24,-0.39 3.51,-0.52 2.76,-0.46 6.97,-0.89 9.91,-0.65 -0.53,1.64 -1.22,0.23 -0.96,4.17 0.11,1.63 0.23,3.18 0.39,4.85 0.28,2.96 -0.04,6.88 1.07,9.3 0.8,-1.59 0.27,-6.8 0.05,-8.93 -0.14,-1.31 -0.31,-2.95 -0.38,-4.27 -0.18,-3.38 2.28,-7.7 -7.1,-6.59 -3.61,0.42 -4.94,1.51 -7.74,2.19 0.12,-1.93 3.32,-8.97 4.18,-11.29 1.42,-3.83 2.22,-8.65 3.76,-11.97 0.93,-2 1.85,-3.08 2.6,-4.98 1.21,-3.06 0.21,-3.17 3.79,-4.12 3.52,-0.94 9.75,-2.27 11.31,-4.49 0.08,-1.79 -0.68,-2.75 -1.64,-3.49 -2.96,-0.61 -10.93,3.49 -15.82,3.28 -0.07,-2.11 0.23,-10.78 -0.24,-11.95 -0.96,0.55 -0.76,5.22 -0.79,6.48 -0.05,2.12 -0.52,5.54 -0.23,7.32 4.42,0.35 13.97,-4.17 16.97,-4.03 0.52,3.25 -3.76,3.55 -8.96,5.6 -1.46,0.57 -4.39,1.04 -4.96,2.55 -1.15,3.03 0.09,1.08 -2.17,5.17z"/>
   <path class="fil13" d="M145.85 135.62c-1.06,1.07 -0.56,0.38 -1.36,0.96 -1.17,0.86 -0.5,1.77 -0.99,4.13 -1.39,6.71 -2.47,7.45 -5.08,12.62 -0.68,1.34 -0.67,1.63 -2.05,1.6 -0.71,-1.35 0.24,-5.04 0.19,-7.02 -0.03,-1.34 -0.39,-2.1 -0.25,-3.79l1.28 -16.03c0.24,-0.84 0.17,-0.73 0.66,-1.43 2.26,0.98 1.27,5.53 1.16,8.01 -0.15,3.11 -0.8,6.63 -0.84,9.12 2.32,-1.07 3.16,-6.68 3.01,-7.47 -0.88,0.39 -0.08,0.1 -1.17,0.34 0.02,-3.19 2,-15.76 1.78,-16.7 -0.24,-1.07 0.34,0.02 -0.34,-0.62 -1.2,-0.73 -4.15,-0.11 -5.12,0.28 0.39,1.7 -0.45,6.6 -0.63,8.8 -0.27,3.23 -0.16,6.4 -0.43,9.73 -0.46,5.64 -2,12.64 -1.69,18.14 5.38,3.65 6.66,-3.8 7.81,-7.67 1.27,-4.27 3.24,-8.92 4.04,-12.99z"/>
   <path class="fil7" d="M168.12 168.09c0.18,-0.74 9.85,-17.62 9.95,-23.76 -1.52,0.93 -2.34,4.41 -3.1,6.24l-5.53 12.41c-2.18,4.23 -2.17,4.33 -4.87,4.34 0.39,-3.06 1.61,-5.31 2.28,-7.98 -2.01,-0.26 -2.97,2.02 -3.74,3.31 -4.88,8.23 -3.69,3.43 -10.76,7.22 -1.9,1.02 -1.11,0.4 -2.8,0.27 -1.11,-0.08 -1.48,0.42 -3.01,0.61 -1,0.12 -2.01,0.16 -3.05,0.26 -4.89,0.48 -2.89,-1.12 -5.71,0.65 -1.69,1.06 -9.39,2.47 -11.82,2.36 -0.67,-1.1 -0.33,-1.12 -1.53,-1.14 -0.89,1.9 0.84,3.1 2.76,2.94l10.29 -2.3c2.73,-1.1 1.49,-1.09 5.2,-1.2 17.43,-0.51 16.84,-3.86 21.19,-4.41l1.5 1.92c1.47,-0.33 5.41,-2.11 5.2,-3.82 -1.22,0.46 -0.39,1.33 -2.44,2.06z"/>
   <path class="fil13" d="M120.19 8.66l1.11 0.99c0.34,0.36 0.56,0.61 0.85,1.01 1.34,0.03 0.16,0.13 0.64,-0.65 -0.59,-0.65 -1.17,-1.91 -1.68,-2.71 -1.28,-2.01 -1.68,-1.79 -2.21,-3.14 6.64,0.81 13.22,7.64 16.51,13.75 0.88,1.64 3.74,9.42 4.59,10.19 1.19,1.07 4.15,0.21 5.82,-0.22 2.04,-0.52 5.44,0.2 6.96,-0.54 -0.1,-1.04 0.53,-0.71 -2.01,-1.82l-7.32 -4.01c-12.74,-7.87 -7.86,-9.15 -15.54,-14.71 -2.34,-1.7 -7.11,-4.88 -10.76,-3.77 0.08,1.4 2.3,4.07 3.04,5.64z"/>
   <path class="fil14" d="M105.58 139.88c0.66,6.95 -2.71,14.86 -1.5,19.5 1.42,-0.2 1.31,0.27 1.88,-3.15 0.66,-3.95 0.8,-9.66 3.37,-11.79 0.03,-0.04 3.64,-18.91 3.18,-21.5 -4.56,-1.62 -4.66,4.9 -5.03,6.78 -0.4,2.06 -2.15,9.11 -1.9,10.16z"/>
   <path class="fil16" d="M42.78 86.58l1.41 0.41 0.97 6.22c2.75,1.7 2.28,6.04 4.01,8.71 0.89,1.38 2.25,1.67 3.11,3.2 0.78,1.39 0.34,1.61 2.74,3.51 0.78,0.59 0.95,0.52 1.85,0.94 1.1,0.52 1.41,0.68 1.87,1.59 1.18,-0.24 2.09,-0.38 3.33,-0.55 1.46,-0.21 2.47,-0.24 3.45,-1.15 -2.63,0.03 -3.54,0.43 -4.95,-1.01 -3.59,-3.64 -4.03,-5.04 -6.87,-9.21 -3.09,-4.54 -2.7,-4.98 -3.99,-7.02 -1.95,-3.1 -1.65,-5.93 -2.22,-7.54 -0.03,-0.08 -0.09,-0.18 -0.11,-0.25l-0.27 -0.47 -0.06 2.45 -4.26 0.17z"/>
   <path class="fil17" d="M55.26 167.23c4.34,-0.18 5.65,-3.19 6.36,-6.99 0.31,-1.63 0.55,-3.94 1.05,-5.5 0.44,-1.35 1.32,-3.14 1.58,-4.65 0.4,-2.31 0.27,-3.68 0.84,-5.86 0.92,-3.56 1.94,-6.78 1.9,-10.83 -0.03,-2.77 -0.19,-3.6 -3.21,-3.3 -0.2,2.93 -0.17,8.24 -0.89,10.58 -0.49,1.6 -0.85,2.72 -1.27,4.42 -0.81,3.24 -0.71,1.08 -0.75,5.01 -0.02,1.95 -0.43,2.98 -0.82,4.76 -1,4.59 -0.9,6.71 -2.95,8.2 -1.28,0.93 -1.9,2.14 -1.85,4.15z"/>
   <path class="fil17" d="M52.18 166.88c4.24,0.56 3.39,-3.32 3.7,-8.27 0.3,-4.86 1.22,-2.22 1.94,-9.41 0.84,-8.35 0.9,-4.23 2.16,-9.42 0.39,-1.62 0.22,-3.34 0.71,-4.76 0.5,-1.47 1.41,-1.27 1.62,-3.16 0.04,-0.34 0.01,-1.21 0.01,-1.56 -2.74,0.28 -2.33,1.36 -3.34,3.27 -0.34,0.65 -0.67,0.91 -1.05,1.81 -1.78,4.15 -4.06,17.06 -4.64,21.28 -0.5,3.63 -1.87,5.64 -1.11,10.23z"/>
   <path class="fil16" d="M140.83 117.86c2.26,-0.54 2.93,1.19 5.62,-0.17 1.45,-0.73 3.3,-2.36 4.65,-2.41 1.22,-1.07 2.04,-2.01 3.52,-2.67 0.65,-1.31 -0.11,-0.1 0.72,-0.8 0.34,-0.29 0.21,0.44 0.46,-0.3 0.04,-0.12 0.17,-0.08 0.24,-0.14 -0.12,-2.36 0.21,-1.63 0.67,-3.3 1.03,-3.72 1.2,-3.98 3.6,-8.07 1.73,-2.95 5.35,-7.11 4.03,-9.27 -0.43,-0.7 -0.55,-0.58 -1.31,-0.72 -0.22,3.3 -7.33,13.94 -9.04,15.98 -2.13,2.55 -6.85,7.09 -9.79,9.11 -1.43,0.98 -2.37,1.33 -3.38,2.75z"/>
   <path class="fil5" d="M128.19 93.68c2.21,-0.4 3.14,-2.32 1.14,-5.19 -1.48,-2.13 -2.87,-3.46 -4.4,-5.04 -1.71,-1.76 -7.44,-8.51 -11.74,-6.32 -4.01,2.04 -3.66,4.45 -1.83,5.06 2.37,0.78 5.66,-0.48 8.46,1.01 5.85,3.1 5.29,6.97 8.36,10.48z"/>
   <path class="fil3" d="M55.02 108.63c-2.4,-1.89 -1.96,-2.12 -2.74,-3.51 -0.86,-1.53 -2.22,-1.82 -3.11,-3.2 -1.73,-2.67 -1.25,-7.02 -4.01,-8.71 -0,-0 -0.13,-0.49 -2.01,-0.46 -3.22,0.06 -2.8,2.3 -1.94,4.37 0.21,0.51 0.35,0.89 0.54,1.35 0.75,1.81 0.92,1.46 2.62,3.77 0.67,0.9 0.35,0.24 0.85,1.27 0.86,1.75 1.31,2.46 3.76,3.71 0.07,0.03 0.15,0.07 0.22,0.11 3,1.46 1.62,1.13 3.46,2.74 0.05,0.05 0.13,0.1 0.18,0.15l1.59 1.07c0.64,0.19 1.88,0.1 2.58,0.1 -0.29,-1.88 0.12,-0.78 -1.99,-2.74z"/>
   <path class="fil7" d="M118.77 177.7c1.5,-0.24 -1.28,-0.15 -1.58,-0.16 -1.66,-0.06 -1.72,0.27 -2.34,-0.74l3.37 -0.5c-1.04,-1.03 -3.05,-0.72 -4.51,-0.51 -0.53,0.74 -0.87,0.91 -1.46,1.81 -2.96,4.55 -5.77,6.38 -10.95,5.42 -1.97,-0.36 -4.13,-0.3 -5.83,-0.83 -2.05,-5.06 1.42,-10.83 2.15,-13.34 1.92,-6.63 -2.56,-3.89 -9.16,-5.78 0.99,-0.72 5.51,-0.32 6.73,-0.32 -0.96,-0.62 -6.84,-1.09 -10,-0.56l2.39 1.44c4.78,3.37 5.44,1.13 8.13,3.21 0.34,4.18 -2.09,2.13 -2.12,11.29 -0.03,6.92 1.49,4.97 6.9,6.32 4.48,1.11 6.82,0.21 9.88,-2.12 1.59,-1.2 1.64,-2.35 2.92,-3.68 1.24,-1.29 3.33,-0.68 5.49,-0.96z"/>
   <path class="fil16" d="M69.57 119.88c1.32,0.6 2.86,1.26 3.58,2.44 0.74,0.57 3.1,2.16 1.67,3.38 0.52,0.76 0.63,0.75 3.29,0.79 4.91,0.08 5.91,-1.14 12.13,0.32l-0.27 1.13c1.29,0.6 2.23,1.32 3.75,0.57 0.43,-0.87 0.57,-0.86 0.44,-1.95 -0.02,-0.13 -0.29,-0.95 -0.3,-0.97 -0.66,-1.13 -0.11,-0.41 -0.96,-0.99l-0.07 1.47c-3.33,0.33 -10.44,-2.63 -13.14,-3.98 -3.88,-1.95 -7.28,-4.57 -10.98,-6.29 0.14,1.47 0.4,2.97 0.87,4.08z"/>
   <path class="fil3" d="M18.84 101.79c0.05,0.07 0.14,0.15 0.18,0.2l0.89 1.19c-0.53,0.51 1.02,0.61 -1.27,0.36 0.08,0.06 0.2,0.03 0.25,0.14l3.77 1.11c3.17,1.08 9.61,3.9 11.23,4.2 -0.27,-2.95 0.92,-2.48 -0.64,-5.05 -0.73,-1.2 -0.22,-0.43 -0.63,-1.58 -0.6,-1.68 -1.75,-3.65 -3.65,-4.2l-0.04 -1.08c-1.42,0.97 -1.73,2.73 -3.52,3.78 -1.95,1.14 -4.22,1.16 -6.57,0.92z"/>
   <path class="fil13" d="M109.57 157.19c-0.63,-0.54 -0.27,-2.43 -0.14,-3.29l0.18 -2.22c-0.87,0.79 -0.16,-0.13 -0.75,1.42l-0.43 0.97c-0.02,-0.05 -0.09,0.16 -0.15,0.23 -0.31,-3.53 0.53,-6.7 1.06,-9.86 -2.58,2.13 -2.72,7.83 -3.37,11.79 -0.57,3.43 -0.46,2.95 -1.88,3.15 -1.21,-4.64 2.16,-12.55 1.5,-19.5l-0.77 1.71c-0.98,3.51 -1.95,9.09 -2.52,12.57 -0.92,5.67 -0.52,7.6 4.78,4.76 0.53,-0.29 0.9,-0.5 1.41,-0.82 1.03,-0.64 0.34,0.2 1.09,-0.91z"/>
   <path class="fil13" d="M164.99 142.17l0.49 0.06c-0.03,2.89 -2.17,7.23 -1.62,10.01 1.05,0.54 2.32,0.78 3.78,0.69 1.92,-3.28 2.7,-7.81 3.23,-12.47l-0.34 0.57c-0.04,0.09 -0.09,0.18 -0.13,0.28l-0.25 1.03c-1.15,0.07 -4,-1.21 -5.15,-0.18z"/>
   <path class="fil7" d="M116.07 180.83c-2.48,0.64 -5.19,3.85 -7.68,5.24 -3.94,2.2 -6.35,1.14 -10.52,0.44 -10.54,-1.77 -4.88,-10.27 -6.27,-18l-1.74 -0.45c0.3,0.61 0.52,0.5 0.75,1.36 1.09,3.99 -4.62,16.6 6.67,18.1 7.13,0.95 9.5,2 15.39,-3.18 1.54,-1.35 2.95,-2.23 3.41,-3.51z"/>
   <path class="fil18" d="M89.27 134.72c-0.83,0.93 0.23,3.72 -2.45,4.75 -2.48,0.95 -4.34,0.58 -4.47,3.56 2.85,0.39 6.73,-0.57 9.23,-1.19l0.98 -6.13c0.41,-1.01 0.91,-0.6 0.36,-1.04l0.22 1.37c0.49,-0.39 0.31,0.05 0.44,-0.73 0.18,-1.01 0.04,-0.35 -0.09,-0.75l-0.2 -1.21 -1.67 0.02 -0.05 2.39 -2.17 0.51 -0.13 -1.56z"/>
   <path class="fil19" d="M94.18 157.96c0.87,-0.31 0.44,0.87 1.32,-2.78 0.29,-1.2 0.6,-2.3 0.9,-3.48 1.33,-5.31 4.19,-17.45 4.08,-22.32 -2.74,0.77 -2.05,2.99 -2.45,6.33 -0.5,4.18 -4.2,21.39 -3.85,22.26z"/>
   <path class="fil1" d="M106.89 122.89c2.4,-0.36 4.32,-1.62 7.09,-2.11 2.71,-0.48 5.48,-0.19 4.92,-3.59 -3.76,-1.97 -10.96,1.24 -12.01,5.7z"/>
   <path class="fil20" d="M128.93 142.34c-0.69,0.25 -3.06,0.66 -3.73,2.89 1.37,0.34 2.08,-0.23 3.23,-0.84 3.35,-1.76 4.37,0.11 4.12,-7.51 -0.01,-0.21 -0.06,-1.11 -0.09,-1.28l-0.49 -1.23c-4.51,0.73 -2.73,4.63 -3.04,7.96z"/>
   <path class="fil20" d="M126.4 129.01c0.65,1.49 1.59,1.36 3.29,2.04 1.81,0.73 2.4,1.5 4.37,1.74 0.07,-2.15 0.43,-4.55 -0.13,-6.62 -2.07,-0.22 -2.23,0.4 -3.85,-0.65 -0.3,0.46 -0.61,1.67 -1.22,2.28 -0.85,0.85 -1.45,0.61 -2.46,1.21z"/>
   <path class="fil21" d="M89.27 134.72l0.13 1.56 2.17 -0.51 0.05 -2.39 1.67 -0.02 0.2 1.21c0.32,-0.37 0.16,-0.06 0.47,-0.66 0.21,-0.41 0.04,0.16 0.27,-0.67 0.14,-0.51 0.25,-1.67 0.33,-2.22 -1.27,0.06 -0.42,0.67 -0.81,-0.73 -0.1,-0.37 -0.04,-1.39 -0.03,-1.78 -1.51,0.75 -2.46,0.03 -3.75,-0.57 -0.78,0.86 -0.72,5.36 -0.7,6.78z"/>
   <path class="fil22" d="M151.1 115.28c-0.08,1.07 -0.03,0.9 0.81,1.93 0.98,1.21 0.41,0.73 2,1.23l3.89 -1.73c0.81,-0.7 -0.8,-0.2 1.09,-0.82l-0.76 -1.29c-0.83,-0.88 -2.28,-1.94 -3.51,-1.98 -1.48,0.66 -2.3,1.6 -3.52,2.67z"/>
   <path class="fil13" d="M27.03 132.8c2.26,0.08 3.85,0.48 4.95,-1.11 0.65,-0.95 1.75,-3.06 1.64,-4.15 -4.14,-0.48 -6.73,1.05 -6.59,5.26z"/>
   <path class="fil4" d="M119.49 172.96l-1.13 1.41c-1.1,2.05 -0.87,0.41 -3.74,1.05 -1.37,0.31 -0.47,0.11 -0.92,0.37 1.46,-0.21 3.47,-0.52 4.51,0.51l-3.37 0.5c0.63,1.01 0.68,0.68 2.34,0.74 0.3,0.01 3.08,-0.08 1.58,0.16 0.43,0.34 -0.67,0.3 0.93,0.38 0.87,-1.11 1.2,-1.86 2.1,-3.48 0.73,-1.32 1.61,-2.3 2.25,-3.5 -2.92,0.26 -2.8,0.89 -4.53,2.53l-0.03 -0.66z"/>
   <path class="fil13" d="M18.17 129.53c-0.7,-4.12 -1.03,-4.63 -4.39,-8.94 -1.6,-2.05 -4.5,-5.88 -5.46,-8.1 0.31,5.25 4.86,8.65 7.31,12.84 0.83,1.42 1.12,2.54 2.53,4.2z"/>
   <path class="fil7" d="M173.85 142.29c-0.73,0.71 -0.25,0.33 -1.2,0.78 1.34,0.28 2.88,1.45 4.42,0.74 -0.38,-1.03 -0.57,-0.78 -1.65,-1.2 -0.03,-2.06 -0.21,-13.02 -1.39,-13.76l-0.18 13.44z"/>
   <path class="fil12" d="M63.15 127.12l0.54 0.24c0.43,0.1 0.04,0.41 2.03,-0.05 0.72,-0.16 1.72,-0.46 2.42,-0.72 1.9,-0.71 2.43,-1.44 2.04,-3.85 -1.73,-0.28 -2.68,0.87 -3.88,1.7 -0.65,0.45 -1.07,0.72 -1.69,1.14 -1.01,0.68 -1.04,0.51 -1.46,1.54z"/>
   <path class="fil7" d="M119.49 172.96l0.03 0.66c1.73,-1.64 1.61,-2.27 4.53,-2.53 -0.11,-0.93 0.75,-1.88 0.99,-3.04 -0.81,-0.95 -0.83,-1.1 -2.21,-1.24 -1.34,1.26 -2.53,4.4 -3.34,6.14z"/>
   <path class="fil13" d="M24.25 171.84c1.77,-0.45 3.09,-0.89 3.05,-2.83 -0.68,-0.91 -0.94,-1.01 -2.37,-1.3 -1.88,-0.39 -1.45,-0.21 -2.78,-1.06l-0.07 1.71c0.65,0.39 2.65,1.9 2.82,2.54l-0.65 0.94z"/>
   <path class="fil22" d="M74.82 125.69c1.43,-1.21 -0.93,-2.81 -1.67,-3.38 -0.09,-0.16 0.03,-1.04 -1.96,-0.23 -0.04,0.1 -0.1,0.14 -0.11,0.32 -0.01,0.09 -0.59,1.65 0.43,2.76l1.54 0.69c0.76,0.1 1.14,0 1.77,-0.16z"/>
   <path class="fil11" d="M117.04 36.4c0.81,-0.15 1.29,-0.33 2.09,-0.57 1.64,-0.5 1.2,-0.27 1.61,-0.98 -0.89,-0.64 -0.82,-0.6 -2.1,-0.58 -1.14,0.65 -0.81,0.24 -1.7,1.21l0.09 0.92z"/>
  </g>
 </g>
</svg>
