<?xml version="1.0" encoding="UTF-8"?>
<!DOCTYPE svg PUBLIC "-//W3C//DTD SVG 1.1//EN" "http://www.w3.org/Graphics/SVG/1.1/DTD/svg11.dtd">
<!-- Creator: CorelDRAW -->
<svg xmlns="http://www.w3.org/2000/svg" xml:space="preserve" width="36.4005mm" height="25.1388mm" version="1.1" style="shape-rendering:geometricPrecision; text-rendering:geometricPrecision; image-rendering:optimizeQuality; fill-rule:evenodd; clip-rule:evenodd"
viewBox="0 0 21.14 14.6"
 xmlns:xlink="http://www.w3.org/1999/xlink"
 xmlns:xodm="http://www.corel.com/coreldraw/odm/2003">
 <defs>
  <style type="text/css">
   <![CDATA[
    .fil0 {fill:black}
    .fil3 {fill:red}
    .fil1 {fill:yellow}
    .fil2 {fill:white}
   ]]>
  </style>
 </defs>
 <g id="Camada_x0020_1">
  <metadata id="CorelCorpID_0Corel-Layer"/>
  <g id="_2598431502688">
   <path class="fil0" d="M8.9 13.52c0.34,-0.08 0.1,-0.08 0.32,-0.08 0,0.1 0,0.05 0.04,0.14l0.02 0.05c0.06,0.16 0.05,0.05 0.06,0.16l-1.04 0.34c-0.03,0.01 -0.06,0.02 -0.1,0.04 -0.15,0.06 -0.19,0.04 -0.31,0.09 -0.46,0.19 -0.45,-0.14 -0.48,-0.23l-0.13 -0.43c-0.01,-0.04 -0.03,-0.07 -0.04,-0.09 -0.05,-0.14 -0.19,-0.72 -0.26,-0.87 -0.13,0.04 -0.11,0.15 -0.06,0.28 0,0 0.01,0.01 0.01,0.02l0.01 0.03c0,0.01 0,0.01 0.01,0.02l0.12 0.43c0.03,0.1 0.13,0.39 0.13,0.49 -0.09,0.01 -0.11,0.02 -0.17,0.05l-0.34 0.08 -0.35 -1.2c-0.01,-0.05 -0.01,-0.06 -0.02,-0.11 -0.02,-0.07 -0.02,-0.04 -0.04,-0.09 -0.03,-0.07 -0.03,-0.12 -0.03,-0.22 0.09,-0.01 0.16,-0.03 0.23,-0.06 0.23,-0.1 0.27,-0.02 0.33,-0 0.06,-0.1 0.09,-0.08 0.2,-0.14 0.43,-0.21 0.45,0.09 0.5,0.24l0.26 0.85c0.15,0.46 0.07,0.56 0.3,0.48l0.85 -0.26zm-0.84 0.07c-0.1,0 -0.14,-0.21 -0.16,-0.29 -0.02,-0.08 -0,-0.02 -0.03,-0.08l-0.25 -0.82c-0.01,-0.02 -0.01,-0.05 -0.02,-0.07 -0.02,-0.09 -0.05,-0.11 -0.04,-0.16l0.03 -0.08c0.03,-0.06 -0.01,-0.01 0.03,-0.06l0.79 -0.27c0.3,-0.09 0.33,0.07 0.39,0.28 0.01,0.06 0.03,0.07 0.04,0.1 0.02,0.05 0.01,0.02 0.02,0.09 0.01,0.03 0.01,0.06 0.03,0.1 0.02,0.06 0.01,0 0.03,0.08 0.04,0.11 0.01,0.13 0.08,0.3 0.01,0.02 0.02,0.06 0.03,0.09 0.03,0.11 0.03,0.08 0.06,0.18 0.06,0.24 0.09,0.3 -0.17,0.4l-0.35 0.11c-0.06,0.02 -0.09,0.02 -0.15,0.03 -0.17,0.05 -0.07,0.06 -0.36,0.06zm4.08 -1.29c0.1,0.03 0.13,0.11 0.2,0.15 0.21,0.13 0.54,0.06 0.74,-0.02 0.15,-0.06 0.19,-0.04 0.29,-0.08l0.04 -0.02c0.01,-0 0.06,-0.02 0.07,-0.02 0.07,-0.02 0.09,-0.03 0.13,-0.05 0.07,-0.03 0.07,-0.02 0.13,-0.05l0.1 -0.07c0.06,-0.06 0.16,-0.3 0.16,-0.37 0.13,0.08 0.05,0.15 0.11,0.29 0.04,0.08 0,-0.04 0.04,0.07l0.92 -0.28c0.27,-0.05 0.2,-0.13 0.26,-0.03 0.02,0.03 -0.01,0.06 -0.04,0.12l-0.31 0.56c-0.15,0.3 -0.3,0.55 -0.44,0.82l-0.09 0.18c-0,0 -0.01,0.01 -0.01,0.01l-0.07 0.11c-0.06,0.11 -0.09,0.2 -0.16,0.31l-0.17 0.3c-0.08,-0.01 -0.13,-0.03 -0.18,-0.07 -0.06,-0.04 -0.08,-0.06 -0.15,-0.09l-1.14 -0.61c-0.03,-0.02 -0.04,-0.02 -0.07,-0.04 -0.08,-0.05 -0.85,-0.45 -0.9,-0.5 0.08,-0.11 0.43,-0.1 0.64,-0.24l-0.07 -0.19c-0,-0.01 -0,-0.01 -0.01,-0.02l-0.03 -0.15zm3.2 -0.71c0.08,0.02 0.08,0.02 0.09,0.11 -0.11,-0.01 -0.09,0 -0.09,-0.11zm-5.88 1.48c-0.16,-0.27 -0.28,-0.57 -0.42,-0.85l-0.18 -0.38c-0.04,-0.08 -0.06,-0.1 -0.08,-0.19 0.15,-0 0.05,-0.02 0.22,-0.07 0.04,-0.01 0.08,-0.01 0.13,-0.03 0.11,-0.03 0.15,-0.12 0.24,0.11l0.22 0.49c0.03,0.06 0.08,0.13 0.08,0.23l0.04 0c0,-0.2 -0.01,-0.13 -0.03,-0.21 -0.01,-0.04 -0.03,-0.18 -0.03,-0.21 -0.01,-0.09 -0.01,-0.14 -0.02,-0.22 -0.03,-0.27 -0.05,0.01 -0.05,-0.26 0,-0.07 0.11,-0.09 0.23,-0.12l0.26 -0.08c0,0.17 0.03,0.07 0.04,0.2 0.02,0.21 0,0.26 0.05,0.43 0.02,0.07 0.01,0.13 0.02,0.2 0.02,0.13 0.01,0.33 0.04,0.45 0.02,0.07 0.02,0.01 0.03,0.1 0.01,0.04 0,0.07 0,0.11 0,0.09 0.02,0.11 0.02,0.2l-0.5 0.15c-0.11,0.03 -0.14,0.07 -0.3,0.08 -0.01,-0.08 -0.01,-0.06 -0.04,-0.12zm0.88 -1.33c-0.02,-0.03 -0.03,-0.04 -0.05,-0.08 -0.01,-0.03 -0.01,-0.02 -0.02,-0.05l-0.04 -0.16c-0.02,-0.15 -0.01,-0.16 0.07,-0.22 0.05,-0.04 0.08,-0.03 0.14,-0.06l0.39 -0.13c0.03,-0.01 0.04,-0.01 0.09,-0.02 0.14,-0.02 0.28,-0.13 0.4,-0.07 0.09,0.05 0.14,0.26 0.16,0.37 0.02,0.12 0.04,0.1 0.07,0.2 0.05,0.18 -0,0.06 0.09,0.29 0.07,0.19 0.08,0.28 0.12,0.4l0.08 0.3c-0.05,0.02 -0.09,0.03 -0.14,0.04 -0.11,0.02 -0.06,0.02 -0.13,0.04l-0.4 0.11c-0.19,0.05 -0.5,0.22 -0.56,-0.04l-0.17 -0.59c-0.02,-0.07 -0.13,-0.14 0.18,-0.3 0.11,-0.05 0.11,-0.02 0.24,-0.07l0.05 -0.02c0.03,-0.01 0.04,-0.01 0.09,-0.02 0,-0.15 -0.02,-0.16 -0.11,-0.22l-0.06 0.12c-0.06,0.08 -0.17,0.08 -0.32,0.12l-0.15 0.05zm-4.71 -0.04c0.02,0.1 0.05,0.1 0.07,0.2 -0.12,0.06 -0.33,0.1 -0.36,0.11 0.02,0.09 0.01,0.2 0.11,0.2 0.09,0 -0.01,0 0.08,-0.03l0.23 -0.06c0.03,0.14 0.09,0.23 0.09,0.33 0,0.07 -0.04,0.07 -0.06,0.08 -0.04,0.02 -0.03,0.01 -0.07,0.02l-0.32 0.1c-0.12,0.05 -0.18,0.04 -0.32,0.09l-0.03 0.01c-0.09,0.02 -0.07,-0.03 -0.1,-0.1 -0,-0.01 -0,-0.01 -0.01,-0.02l-0.09 -0.31c-0,-0 -0.01,-0.01 -0.01,-0.02 -0,-0 -0,-0.01 -0.01,-0.02 -0.03,-0.09 -0.01,-0.09 -0.05,-0.19l-0.04 -0.14c-0.01,-0.05 -0.02,-0.11 -0.04,-0.16l-0.05 -0.15c-0.03,-0.12 -0.1,-0.39 -0.14,-0.46 0.1,-0.04 -0.04,-0.02 0.21,-0.08 0.11,-0.02 0.12,-0.05 0.21,-0.08l0.35 -0.1c0.06,-0.02 0.02,-0.02 0.09,-0.04 0.05,0.08 0.05,0.09 0.07,0.2 0.01,0.02 0.02,0.07 0.03,0.1 0.03,0.09 0.02,-0.02 0.03,0.1 -0.11,0.07 -0.11,0.04 -0.24,0.07 -0.12,0.04 0.01,0.03 -0.12,0.04 0,0.18 0.01,0.09 0.04,0.2 0.3,-0.02 0.34,-0.25 0.42,0.09zm0.31 0.11c-0.15,0 -0.2,-0.2 -0.24,-0.36 -0.07,-0.24 -0.19,-0.5 -0.03,-0.6l0.03 -0.02c0.15,-0.08 0.3,-0.09 0.46,-0.14 0.06,-0.02 0,-0 0.06,-0.02 0.05,-0.02 0.08,-0.02 0.12,-0.03 0.22,-0.05 0.27,-0.19 0.42,0.11 0.04,0.08 0.05,0.17 0.07,0.26l-0.29 0.09c-0.03,0.01 -0.15,0.04 -0.16,0.04 -0.15,0.01 0.02,-0.04 -0.19,-0.04l0 0.18c0.26,0.06 0.51,-0.19 0.69,-0.05 0,0 0.04,0.04 0.04,0.05 0.05,0.08 0.05,0.19 0.09,0.29l0.04 0.12c0.01,0.03 0.01,0.04 0.02,0.07l0.05 0.17c0.02,0.13 -0.01,0.11 -0.04,0.13l-0.19 0.08c-0.05,0.01 -0.1,0.02 -0.15,0.03l-0.55 0.16c-0.1,0.02 -0.2,0.14 -0.25,-0.08 -0.07,-0.27 -0.06,0.04 -0.06,-0.28 0.13,-0 0.05,-0.01 0.16,-0.04 0.46,-0.15 0.32,-0.08 0.42,-0 0.12,-0.08 0.04,-0.16 -0.02,-0.24 -0.12,0.04 -0.38,0.13 -0.49,0.13zm7.73 0.02c0,0.01 -0.05,0.11 -0.06,0.12 -0.04,0.05 -0.27,0.11 -0.34,0.13 -0.07,0.02 -0.03,0.02 -0.11,0.04 -0.05,0.02 -0.07,0.01 -0.13,0.02 -0.16,0.03 -0.49,0.28 -0.59,-0.13l-0.22 -0.74c-0.29,-0.72 -0.02,-0.59 0.38,-0.76 0.04,-0.02 0.05,-0.03 0.12,-0.04 0.31,-0.07 0.24,-0.08 0.5,-0.08 0.02,0.04 0.03,0.06 0.05,0.11 0.03,0.06 0.02,0.04 0.05,0.11 0,0.01 0,0.01 0.01,0.02l0.18 0.58c0.02,0.07 0,0.06 0.03,0.12 -0.05,0 -0.07,0.01 -0.11,0.02l-0.4 0.13c-0.26,0.08 -0.09,0.23 -0.05,0.24 0.13,0.06 0.02,-0.07 0.11,-0.14l0.48 -0.14c0,0.11 0.01,0.05 0.04,0.16 0,0.01 0.01,0.03 0.01,0.03 0.01,0.02 0.02,0.06 0.03,0.09 0.03,0.09 0.03,-0.03 0.03,0.1zm-6.79 -1.2c0,-0.16 0.16,-0.21 0.26,-0.25 0.06,-0.03 0.03,-0.02 0.11,-0.04 0.03,-0.01 0.09,-0.02 0.15,-0.03l0.37 -0.12c0.27,0 0.25,0.05 0.33,0.29 0.03,0.09 0.04,0.04 0.04,0.11 0,0.08 -0.04,0.06 -0.11,0.07l-0.38 0.13c-0.05,-0.07 -0.04,-0.09 -0.16,-0.09l0 0.13c0,0.16 0.29,-0.01 0.49,-0.02 0.09,-0.01 0.08,-0.01 0.16,-0.02 0.06,0.09 0.06,0.05 0.1,0.19l0.13 0.42c0.02,0.08 0.03,0.15 0.03,0.23 0,0.05 -0.33,0.12 -0.38,0.13 -0.09,0.02 -0.05,0.02 -0.12,0.04 -0.09,0.03 -0.18,0.03 -0.26,0.07 -0.11,0.05 -0.28,0.31 -0.42,-0.04 -0.02,-0.05 -0.03,-0.09 -0.04,-0.14 -0.03,-0.08 -0.02,-0.04 -0.04,-0.11 0.23,-0.05 0.42,-0.15 0.53,-0.16 0.01,0.1 -0.02,0.04 0.04,0.09 0.05,-0.01 0.05,-0.02 0.11,-0.02 -0.01,-0.13 -0.04,-0.14 -0.07,-0.2 -0.13,0 -0.08,0.02 -0.27,0.06 -0.13,0.03 -0.3,0.17 -0.41,-0.05l-0.21 -0.68zm6.5 -0.24c0.08,-0.02 0.1,-0.07 0.2,-0.07 0.05,0 0.04,0.06 0.05,0.12l0.02 0.05c0.09,0.27 0.04,0.25 -0.14,0.25 -0.11,0 -0.13,-0.28 -0.13,-0.36zm-5.2 -0.07c-0.04,-0.11 -0.01,-0.19 0.08,-0.26 0.06,-0.04 0.61,-0.2 0.67,-0.21 0,-0 0.09,-0.01 0.1,-0.01 0.07,-0.02 0.04,0.02 0.07,-0.05 0.2,0 0.21,0.11 0.28,0.25 0.07,0.16 0.17,0.6 0.25,0.82 0.03,0.08 0.03,0.13 0.06,0.21l0.01 0.03c0,0.01 0,0.01 0.01,0.02l0.02 0.16c-0.19,0 -0.19,0.03 -0.29,0.18l-0.08 -0.09 -0.3 0.09c-0.05,0.02 -0.03,0.02 -0.08,0.03 -0.06,0.02 -0.04,0.01 -0.11,0.03 -0.18,0.04 -0.08,0.07 -0.29,0.07l-0.07 -0.26c-0,-0 -0,-0.01 -0.01,-0.02l-0.03 -0.1c-0.02,-0.07 -0.02,-0.04 -0.04,-0.1l-0.05 -0.28c0,-0.17 0.19,-0.23 0.34,-0.26 0.07,-0.01 0.19,-0.02 0.22,-0.07 0.03,-0.05 -0.03,-0.12 -0.05,-0.18 -0.1,0.03 -0.06,0.04 -0.12,0.11 -0.07,0.08 -0.38,0.14 -0.53,0.14l-0.05 -0.24zm4.11 0.07c0,-0.09 0.23,-0.19 0.3,-0.23l0.17 -0.1c0.09,-0.05 0.05,-0.07 0.2,-0.07 0.01,0.1 0.04,0.14 0.04,0.24l-0.29 0.11c-0.06,0.03 -0.02,0.02 -0.09,0.04 -0.16,0.06 -0.33,0.2 -0.33,0zm1.67 -0.16c0.06,-0.02 0.02,-0.02 0.08,-0.09 0.04,-0.05 0.04,-0.04 0.09,-0.07l0.65 -0.2c0.07,-0.02 0.05,-0.02 0.14,-0.02l0.06 0.19c0.01,0.05 0.02,0.06 0.03,0.08 0.02,0.06 0.02,-0.04 0.03,0.09 -0.28,0.19 -0.44,0.04 -0.44,0.27 0.06,-0 0.07,-0.01 0.11,-0.02 0.08,-0.02 0.24,-0.05 0.26,-0.11l0.09 0c0.01,0.05 0.02,0.05 0.04,0.09 0.03,0.06 0.01,0.01 0.03,0.1 0.04,0.18 0.05,0.09 0.06,0.21 -0.14,0.02 0.01,-0.01 -0.07,0.02 -0,0 -0.01,0 -0.02,0.01l-0.21 0.06c-0.07,0.03 -0.06,0.04 -0.16,0.04l0.18 0.73c-0.08,0 -0.45,0.13 -0.47,0.13 -0.12,0 -0.08,-0.16 -0.15,-0.36 -0.01,-0.04 -0.02,-0.04 -0.04,-0.1 -0.01,-0.03 -0.01,-0.05 -0.02,-0.09l-0.28 -0.96zm1.11 -0.31c0,-0.06 0.09,-0.15 0.18,-0.18l0.25 -0.08c0.15,-0.06 0.18,-0.03 0.4,-0.11 0.05,-0.02 0.06,-0.03 0.13,-0.03 0.15,0 0.17,-0.01 0.24,0.14l0.31 1.07c0.05,0.23 0.05,0.05 0.05,0.17 0,0.17 0,0.17 -0.21,0.25 -0,0 -0.01,0 -0.02,0.01 -0.01,0 -0.02,0.01 -0.03,0.01l-0.24 0.07c-0,0 -0.01,0 -0.02,0.01 -0.02,0.01 -0.05,0.01 -0.07,0.02 -0.25,0.05 -0.11,0.04 -0.28,0.08 -0.09,0.02 -0.24,0.03 -0.3,-0.07 -0.03,-0.06 -0.17,-0.58 -0.23,-0.74l-0.11 -0.38c-0.06,-0.27 -0.05,0.01 -0.05,-0.23zm4.82 -0.22c0,0.11 0.01,0.05 0.04,0.14 0,0.01 0,0.01 0.01,0.02 0,0.01 0.01,0.03 0.01,0.04 0.01,0.06 0.04,0.13 0.04,0.21 -0.07,0 -0.1,0.04 -0.26,0.07 -0.01,0 -0.06,0.01 -0.07,0.02 -0.11,0.03 -0.05,0.04 -0.18,0.04 -0.01,-0.05 -0.01,-0.03 -0.02,-0.05 -0.04,-0.11 0.03,0.08 -0.01,-0.03 -0.04,-0.1 -0.06,-0.21 -0.06,-0.32l0.23 -0.06c0.26,-0.06 0.09,-0.07 0.28,-0.07zm-8.72 -0.4c0.06,-0.1 0.14,-0.14 0.24,-0.18 0.07,-0.03 0.02,-0.04 0.09,-0.04 0.18,0 0.2,-0.02 0.3,0.05 0.05,0.03 0.05,0.04 0.07,0.09l0.1 0.34c0.07,0.17 0.04,0.18 0.09,0.33l0.12 0.48c0.06,0.26 -0.17,0.2 -0.17,0.35 0,0.29 0.04,0.35 0.04,0.47 -0.08,-0 -0.07,0 -0.12,-0.03 -0.08,-0.05 -0.12,-0.22 -0.14,-0.31l-0.14 -0.46c-0.01,-0.04 -0.02,-0.07 -0.04,-0.12l-0.11 -0.34c-0.05,-0.15 -0.04,-0.35 -0.19,-0.39 -0.04,0.15 -0.03,0.03 0.01,0.25l0.3 1c-0.21,0.04 0.06,0.06 -0.55,0.06l0 -0.04c-0.07,-0.03 -0.03,-0 -0.06,-0.12l-0.25 -0.93c-0.23,0.01 -0.1,0.16 -0.09,0.2l0.24 0.84c0,0.17 -0.07,0.11 -0.22,0.16 -0.08,0.03 -0.12,0.06 -0.27,0.06l-0.16 -0.52c-0.06,-0.15 -0.02,-0.08 -0.06,-0.21 -0.02,-0.09 -0.05,-0.11 -0.07,-0.18l-0.1 -0.38c-0.03,-0.12 -0.05,-0.07 -0.05,-0.17 0.29,-0.15 0.21,-0.07 0.47,-0.18 0.06,0.04 0.03,0.04 0.11,0.07 0.06,-0.05 0.02,-0.03 0.07,-0.07 0.02,-0.02 0,-0 0.04,-0.03 0.24,-0.13 0.26,-0.08 0.49,-0.06zm-6.02 -0.07c0.04,-0.1 0.13,-0.32 0.21,-0.36 0.02,0.03 0.04,0.56 0.06,0.64 -0.12,0.02 -0.18,-0.11 -0.32,-0.14l0.06 -0.14zm12.57 -0.06c0,-0.14 0.13,-0.19 0.23,-0.23 0.07,-0.03 0.1,-0.03 0.18,-0.04 0.06,-0.01 0.4,-0.14 0.52,-0.15 0.08,-0.01 0.1,-0.03 0.16,0.02 0.1,0.08 0.12,0.21 0.15,0.32l0.18 0.6c0.06,0.16 0.03,0.14 0.08,0.25l0.1 0.34c-0.12,0.08 -0.58,0.16 -0.75,0.23l-0.29 0.07c-0.08,0.01 -0.05,-0.01 -0.14,-0.01 -0.01,-0.14 -0.02,0 -0.07,-0.13l-0.08 -0.25c-0.06,-0.29 -0.18,-0.48 0.01,-0.58 0.02,-0.01 0.05,-0.02 0.08,-0.03 0.15,-0.07 0.1,-0.02 0.27,-0.09 0.07,-0.03 0.13,-0.02 0.13,-0.09 0,-0.07 -0.01,-0.16 -0.09,-0.16 -0.09,0 -0.04,0.06 -0.08,0.12 -0.06,0.09 -0.43,0.12 -0.54,0.12 0,-0.13 -0.04,-0.2 -0.04,-0.31zm-14.01 0.09c0,-0.18 0.03,-0.18 0.14,-0.3 0.05,-0.06 0.09,-0.08 0.17,-0.1 0.06,-0.01 0.05,-0 0.08,0.01 0.4,0.14 0.3,0.5 0.17,0.5 -0.14,0 -0.04,-0.05 -0.16,-0.13 -0.06,0.02 -0.13,0.06 -0.13,0.13 0,0.13 0.21,0.09 0.44,0.09 -0,0.08 -0.04,0.14 -0.1,0.23 -0.08,0.13 -0.28,0.11 -0.38,0.06 -0.25,-0.12 -0.23,-0.22 -0.23,-0.5zm1.98 -0.07c0,-0.17 0.03,-0.17 0.12,-0.28 0.14,-0.16 0.45,-0.15 0.54,0.11 0.03,0.08 -0,0.03 0.05,0.11 -0.03,0.05 -0.06,0.07 -0.07,0.16 -0.07,0 -0.11,-0.01 -0.18,-0.05 -0.05,-0.03 -0.08,-0.09 -0.14,-0.09 -0.16,0 -0.01,0.29 0.11,0.29 0.25,0 0.05,-0.03 0.22,-0.04 0,0.33 -0.19,0.22 -0.24,0.36 -0.13,0 -0.11,0.01 -0.19,-0.06 -0.12,-0.12 -0.24,-0.31 -0.24,-0.5zm6.64 -0.33c0.07,-0.03 0.04,-0.02 0.13,-0.02 0.01,0.13 0,-0.01 0.03,0.1l0.09 0.31c0.05,0.23 0.05,0.14 0.08,0.27l0.1 0.41c-0.06,0.04 -0.04,0.04 -0.12,0.08l-0.17 0.1c-0.08,0.04 -0.09,0.07 -0.2,0.07l-0.22 -0.74c-0.01,-0.05 -0.02,-0.09 -0.03,-0.15 -0.03,-0.13 -0.07,-0.19 -0.08,-0.3 0.14,-0.12 0.15,-0.06 0.37,-0.13zm5.18 1.98l-0.3 0.08c-0.15,0.05 -0.35,0.12 -0.44,-0.08 -0.03,-0.06 -0.03,-0.12 -0.05,-0.2 -0.03,-0.1 -0.04,-0.09 -0.06,-0.18 -0.01,-0.05 -0.01,-0.06 -0.03,-0.11 -0.09,-0.24 -0.04,-0.15 -0.08,-0.28 -0.02,-0.07 -0.04,-0.06 -0.07,-0.18 -0.09,-0.44 -0.26,-0.41 0.33,-0.61 0.08,-0.03 0.07,-0.05 0.15,-0.05 0,-0.11 0.01,-0.15 -0.03,-0.25 -0.04,-0.09 -0.03,-0.04 -0.03,-0.17l0.37 -0.12c0.04,-0.02 0.08,-0.03 0.12,-0.03l0.26 0.82c0.01,0.02 0.01,0.05 0.02,0.07l0.11 0.38c0.02,0.06 0.01,0.01 0.03,0.06 0,0.01 0.02,0.07 0.02,0.07l0.15 0.49c0.01,0.06 0.01,0.08 0.01,0.14 -0.16,0.01 -0.32,0.08 -0.48,0.14zm-4.91 -2.05c0.12,-0.08 0.39,-0.16 0.53,-0.16 0.01,0.08 0.01,0.05 0.03,0.13 0.01,0.04 0.01,0.09 0.03,0.13l0.11 0.35c0.02,0.06 0.01,0.08 0.03,0.13l0.07 0.22c0.13,0.56 0.28,0.53 -0.05,0.7 -0.19,0.1 -0.17,-0.06 -0.23,-0.22l-0.1 -0.28c-0.04,0.04 -0.07,0.08 -0.13,0.02 -0.04,-0.04 -0.03,-0.07 -0.04,-0.14l-0.25 -0.88zm6.72 -0.25c0.16,-0.06 0.21,-0.07 0.25,0.04l0.11 0.4c0,0.01 0.01,0.04 0.02,0.05 0,0 0,0.01 0.01,0.02 0.05,0.12 0.02,0.11 0.07,0.24l0.01 0.03c0,0 0,0.01 0.01,0.02l0.05 0.27c-0.06,0.03 -0.05,0.01 -0.12,0.03 -0,0 -0.06,0.02 -0.07,0.02l-0.29 0.08c-0.14,-0.26 -0.04,-0.17 -0.14,-0.4l-0.17 -0.54c-0.02,-0.06 -0.03,-0.08 -0.03,-0.15l0.3 -0.1zm-4.18 -0.27l0.14 0.48c0.02,0.05 0.02,0.07 0.03,0.12 0.04,0.11 0.15,0.17 -0.24,0.26 -0.03,0.01 -0.05,0.01 -0.09,0.02 -0.05,0.02 -0.03,0.02 -0.08,0.03 -0.05,0.02 -0.12,0.03 -0.17,0.03 0,0.11 -0.01,0.21 0.13,0.22 0.03,-0.07 -0.01,-0.14 0.12,-0.19 0.21,-0.08 0.28,-0.01 0.32,-0.1l0.07 0c0.01,0.05 0.11,0.19 0.11,0.4l-0.34 0.13c-0.1,0.06 -0.05,-0.02 -0.09,0.07l-0.16 -0.04c-0.02,0.06 0,0.02 -0.06,0.05l-0.22 0.05c-0.05,0.02 -0.01,0.01 -0.06,0.03l-0.22 0.05c-0.04,-0.07 -0.05,-0.06 -0.07,-0.15l-0.12 -0.43c-0.07,-0.17 -0.03,-0.12 -0.07,-0.24 -0,-0.01 -0.01,-0.04 -0.02,-0.05l-0.03 -0.06c-0.03,-0.08 0.02,0.05 -0.01,-0.03 -0.01,-0.03 -0.01,-0.04 -0.02,-0.09 -0.05,-0.18 -0.06,-0.1 -0.06,-0.34 0,-0.06 0.03,-0.07 0.07,-0.1 0.07,-0.05 0.66,-0.24 0.78,-0.26 0.06,-0.01 0.08,-0.01 0.14,-0.01 0.12,0 0.05,-0.02 0.12,0.05 0.06,0.06 0.04,0.04 0.06,0.11zm-1.13 1.75c-0.06,0.04 -0.11,0.09 -0.12,0.15 -0.02,0.08 0.01,0.11 0.02,0.16 0.03,0.09 0.04,0.21 0.04,0.32l-0.09 0c-0.02,-0.08 -0.02,-0.03 -0.05,-0.13l-0.14 -0.51c-0,-0.01 -0,-0.01 -0.01,-0.02l-0.34 -1.1c-0,-0.02 -0,-0.03 -0.01,-0.06l-0.03 -0.08c-0.03,-0.07 -0.04,-0.08 -0.05,-0.17 0.03,-0.02 0.01,-0.01 0.06,-0.03 0.07,-0.04 0.09,-0.03 0.17,-0.05 0.32,-0.07 0.25,-0.22 0.4,0.28l0.11 0.38c0.02,0.06 0.02,0.02 0.04,0.09l0.18 0.67 -0.19 0.1zm2.11 -2.3c0.13,-0.04 0.16,-0.01 0.27,-0.08 0,0.04 0,0.1 0,0.13 -0.01,0.13 -0.01,0.06 -0.03,0.1 -0.02,0.06 -0.03,0.16 -0.03,0.21 -0.04,0.36 -0,0.16 -0.07,0.42l0.26 0.3c0.08,0.09 0.07,0.12 0.16,0.2 0.06,0.06 0.11,0.08 0.12,0.17 -0.2,0.1 -0.02,-0.06 -0.39,0.16l-0.07 0.04c-0.17,-0.11 -0.13,-0.25 -0.27,-0.29 0.08,0.36 0.13,0.27 -0.05,0.33 -0.06,0.02 -0.32,0.09 -0.37,0.06 -0.05,-0.03 -0.03,-0.05 -0.05,-0.11l-0.01 -0.03c-0,-0.01 -0,-0.01 -0.01,-0.02 -0,-0.01 -0,-0.01 -0.01,-0.02l-0.27 -0.91c-0.02,-0.07 -0.01,-0.07 -0.03,-0.12 -0.04,-0.11 -0.05,-0.12 -0.05,-0.26 0.09,-0.04 0.15,-0.04 0.24,-0.07 0.07,-0.03 0.11,-0.06 0.23,-0.06l0.03 0.04c0.05,0.09 0.06,0.18 0.06,0.29l0.07 0 0 -0.38 0.28 -0.09zm0.43 -0.04c0,-0.1 0.12,-0.12 0.21,-0.15l0.69 -0.2c0.05,-0.01 0.1,-0.01 0.15,-0.01 0.03,0.12 0.04,0.01 0.11,0.16l0.12 0.37c0.01,0.06 0.03,0.13 0.05,0.19l0.18 0.58c0.03,0.08 0.03,0.11 0.01,0.19 -0.39,0 -0.23,0.14 -0.42,0.16 -0.06,-0.1 -0.04,-0.1 -0.08,-0.21l-0.01 -0.03c-0,-0 -0,-0.01 -0.01,-0.02 -0.03,-0.08 -0.09,-0.29 -0.18,-0.31 -0.12,-0.02 -0.06,0.08 -0.06,0.15 0,0.05 -0.07,0.04 -0.12,0.06l-0.39 0.12 -0.07 -0.29c-0.02,-0.13 -0.05,-0.21 0.18,-0.3 0.04,-0.02 0.07,-0.02 0.12,-0.03 0.22,-0.05 0.11,-0.07 0.26,-0.08 -0,-0.19 -0.04,-0.19 -0.13,-0.2 -0.04,0.15 -0.05,0.15 -0.22,0.18 -0.25,0.05 -0.38,0.29 -0.38,-0.34zm-10.77 0.4c0.01,-0.06 0.13,-0.27 0.16,-0.35 0.05,-0.11 0.12,-0.25 0.21,-0.3 0.07,0.05 0.06,0.08 0.02,0.17l-0.2 0.38c-0.06,0.07 -0.07,0.09 -0.19,0.09zm1.15 0.29c0.11,-0.03 0.15,-0.19 0.17,-0.29 0.03,-0.14 0.03,-0.26 0.03,-0.42 -0,-0.14 -0.04,-0.44 0.18,-0.49 0.01,-0 0.19,-0.02 0.2,-0.02 0.54,0 0.34,-0.02 0.46,0.08l-1.3 1.77c-0.06,-0.07 -0.27,-0.51 -0.39,-0.65 -0.14,-0.16 -0.04,-0.14 -0.16,-0.17 0,-0.11 -0.01,-0.07 0.04,-0.14l0.16 -0.25c0.03,-0.04 0,-0 0.02,-0.04 0.03,-0.06 0.03,-0.06 0.06,-0.11 0.07,-0.11 0.05,-0.13 0.2,-0.2 0.05,-0.02 -0.05,-0.02 0.05,-0.02 0.39,0 0.36,0.57 0.31,0.78 -0.02,0.08 -0.06,0.09 -0.02,0.18zm-0.22 0.84c0,-0.14 -0,-0.12 0.07,-0.19l1.06 -1.31c0.04,-0.06 0.08,-0.09 0.12,-0.15 0.14,-0.21 0.21,-0.31 0.53,-0.38l0.9 -0.03c0.19,0 0.32,-0.02 0.51,-0.02 0.54,0 0.28,-0.02 0.47,-0.04l1.04 -0.02c0.12,0 0.14,0.01 0.24,-0.02 0.1,-0.04 0.39,-0.02 0.51,-0.02 0.23,-0 0.2,-0.07 0.33,0.02 -0.03,0.13 -0.24,0.14 -0.42,0.24l-0.19 0.08c-0.03,0.01 -0.06,0.03 -0.08,0.03 -0.04,0.01 -0.06,0.02 -0.1,0.04l-2.47 1.03c-0.08,0.04 -0.12,0.04 -0.2,0.07l-1.63 0.68c-0.19,0.06 -0.53,0.3 -0.53,0.49 0,0.4 0.14,0.22 0.16,0.42 -0.07,0.04 -0.1,0.05 -0.18,0.08 -0.06,0.03 -0.11,0.05 -0.2,0.05 0,-0.35 0.07,-0.24 0.07,-0.53l-0.02 -0.51zm12.48 -1.89c-0,-0.04 -0.02,-0.15 -0.03,-0.19 -0,-0.01 -0,-0.01 -0.01,-0.02l-0.03 -0.07c-0.03,-0.12 0.02,-0.16 0.09,-0.22 0.13,-0.11 0.15,-0.04 0.33,-0.12l0.34 -0.11c0.13,-0.04 0.33,-0.08 0.4,0.07l0.18 0.62c0.02,0.06 0.02,0.01 0.04,0.09 0.02,0.05 0.01,0.06 0.02,0.11 0.01,0.04 0.16,0.46 0.17,0.61l-0.6 0.17c-0.26,0.08 -0.48,0.23 -0.6,-0.02 -0.1,-0.22 -0.06,-0.14 -0.11,-0.33 -0.04,-0.14 -0.15,-0.44 0.04,-0.52l0.34 -0.1c0.2,-0.04 0.08,-0.2 0.07,-0.24l-0.09 0c-0.01,0.18 -0.09,0.15 -0.23,0.19l-0.15 0.05c-0.07,0.02 -0.1,0.03 -0.17,0.03zm-18.34 -0.91c0,-0.05 0.06,-0.11 0.11,-0.11l0.78 0c0.05,0 0.11,0.06 0.11,0.11 0,0.3 0.04,0.49 -0.07,0.49l-0.87 0c-0.11,0 -0.07,-0.19 -0.07,-0.49zm1.15 -0.07c0.13,-0.01 0.05,-0.04 0.13,-0.04l0.78 0c0.05,0 0.09,0.04 0.09,0.09 0,0.26 0.05,0.51 -0.09,0.51 -1.04,0 -0.91,0.07 -0.91,-0.24 0,-0.1 0,-0.21 0,-0.31zm5.77 -0.07c0.11,-0.04 0.79,-0.02 0.95,-0.02 0.05,0 0.07,0.02 0.07,0.07 0,0.17 0.02,0.34 -0.01,0.5l-1.01 0.01 0 -0.56zm-4.62 0.11c0,-0.05 0.04,-0.09 0.09,-0.09l0.84 0c0.14,0 0.09,0.27 0.09,0.56l-0.33 0c-0.13,0 -0.04,0.04 -0.16,0.04 -0.61,0 -0.53,0.08 -0.53,-0.51zm5.79 -0.13l0.98 0c0,0.65 0.05,0.58 -0.2,0.58l-0.78 -0 -0.01 -0.47 0.01 -0.11zm-4.04 0.04c0.1,0 0.42,-0.12 0.42,0.13 0,0.2 0.02,0.26 -0.02,0.42l-0.98 0 0 -0.56 0.58 0zm1.8 -0.02c0.13,0 0.27,-0 0.4,0 0.56,0 0.55,-0.17 0.55,0.42 0,0.1 -0.02,0.04 -0.05,0.13 -0.38,0.04 -0.52,0.03 -0.91,0.03 -0.05,0 -0.07,-0.02 -0.07,-0.07 0,-0.49 -0.01,-0.24 0.07,-0.51zm12.65 2.03c0,0 0,0.01 0.01,0.02 0,0 0,0.01 0.01,0.02 0.01,0.02 0.01,-0 0.02,0.05l-0.3 0.1c-0.21,0.06 -0.13,-0.03 -0.25,0.15 -0.56,0 -0.4,0.09 -0.62,0.09l-0.15 -0.51c-0.03,-0.1 -0.03,-0.06 -0.05,-0.17l-0.17 -0.72c0,-0.15 0.47,-0.26 0.56,-0.27 0,-0.09 -0,-0.15 -0.03,-0.22l-0.06 -0.18c0.13,-0.09 0.11,-0.04 0.26,-0.09 0.07,-0.02 0.03,-0.02 0.13,-0.05 0.04,-0.01 0.08,-0.02 0.14,-0.02 0.01,0.16 0.09,0.31 0.13,0.49l0.21 0.7c0,0.01 0.01,0.05 0.02,0.07l0.16 0.55zm-13.89 -1.92c0,-0.05 0.06,-0.11 0.11,-0.11l0.82 0c-0,0.12 -0.02,0.08 -0.07,0.17 -0.04,0.06 -0.05,0.08 -0.08,0.15 -0.04,0.08 -0.12,0.26 -0.21,0.26 -0.71,0 -0.58,0.12 -0.58,-0.47zm9.28 0.09c0,-0.09 -0,0.01 0.03,-0.08 0.06,-0.14 0.17,-0.37 0.34,-0.37 0.26,0 0.17,0.38 0.16,0.56 -0.11,0.01 -0.04,0.01 -0.12,0.05 -0.03,0.01 -0.09,0.03 -0.12,0.04 0,0.08 -0.02,0.16 0.07,0.16 0.13,0 0.24,-0.09 0.27,-0.17 0.02,-0.05 0.02,-0.1 0.04,-0.16 0.04,-0.12 0.02,-0.03 -0.01,-0.12 -0.01,-0.05 -0.06,-0.28 0.01,-0.29 0.09,-0.02 0.16,0.07 0.2,0.15 0.08,0.15 0.06,0.09 0.07,0.31 0,0.06 0,0.12 -0.01,0.17l-0.02 0.05c-0,0.01 -0,0.01 -0.01,0.02 -0.05,0.15 -0.14,0.33 -0.28,0.41 -0,0 -0.01,0.01 -0.01,0.01 -0,0 -0.01,0 -0.01,0.01 -0.14,0.05 -0.46,-0.03 -0.53,-0.31 -0.06,-0.22 -0.06,-0.05 -0.06,-0.16l0 -0.24zm-0.58 0.47c0,-0.11 -0.03,-0.06 -0.04,-0.16 -0.01,-0.09 0.04,-0.24 0.07,-0.32 0.04,-0.12 0.12,-0.28 0.15,-0.41 0.02,-0.09 0.01,-0.07 0.05,-0.15l0.2 -0.33 0.27 -0.24c0.11,-0.07 0.37,-0.25 0.37,-0.01 0,0.24 -0.07,0.22 -0.25,0.33 -0.2,0.13 -0.45,0.42 -0.48,0.67 -0.04,0.36 -0.05,0.74 0.13,1.04 0.28,0.47 0.34,0.24 0.36,0.42l-0.36 0.08c-0.1,0.03 -0.05,0.03 -0.16,0.06 -0.07,0.02 -0.11,0.02 -0.18,0.04 -0.07,0.02 -0.09,0.03 -0.17,0.05l-1.17 0.36c-0.08,0.03 -0.1,0.02 -0.18,0.04 -0.14,0.04 -0.02,0.03 -0.16,0.06 -0.08,0.02 -0.11,0.01 -0.18,0.04l-0.66 0.21c-0.08,0.02 -0.1,0.04 -0.16,0.06 -0.06,0.02 -0.12,0.03 -0.18,0.05 -0.07,0.02 -0.02,0.01 -0.08,0.03 -0.02,0.01 -0.07,0.02 -0.08,0.03 -0.03,0.01 -0.06,0.02 -0.08,0.03 -0.06,0.02 -0.03,0.02 -0.08,0.03l-0.24 0.07c-0.17,0.05 -0.35,0.06 -0.53,0.14l-0.75 0.23c0.03,0.16 0.09,0.17 0.09,0.33 -0.17,-0.04 -0.19,-0.28 -0.62,-0.18l-0.7 0.21c-0.12,0.03 -0.19,0.1 -0.31,0.13 -0.11,0.04 -0.27,0.02 -0.39,0.06 -0.11,0.04 -0.23,0.09 -0.36,0.09l0.95 -0.49c0.02,-0.01 0.04,-0.02 0.06,-0.03l1.18 -0.62c0.06,-0.03 0.06,-0.03 0.1,-0.06 0.04,-0.02 0.07,-0.03 0.11,-0.05l1.3 -0.68c0.02,-0.01 0.03,-0.01 0.04,-0.02 0.08,-0.04 0.12,-0.07 0.2,-0.11l0.42 -0.2c0.06,-0.03 0.04,-0.03 0.1,-0.06l0.73 -0.38c0.08,-0.04 0.13,-0.06 0.21,-0.11 0.13,-0.08 0.3,-0.12 0.42,-0.2l0.2 -0.11c0.28,-0.07 0.27,0.1 0.62,-0.15 0.05,-0.04 0.05,-0.03 0.1,-0.05 0,0.16 0,0.33 0,0.49 -0,0.17 -0.07,0.25 -0.07,0.42 0.14,-0.01 0.13,-0.1 0.17,-0.21 0.03,-0.09 0.03,0.02 0.03,-0.08l0 -0.4zm2.78 -2.07c0,-0.06 -0,-0.03 -0.01,-0.07 -0.1,-0.34 0.07,-0.25 -0.11,-0.51 -0.1,-0.14 -0.02,-0.08 -0.17,-0.18 -0.08,-0.05 -0.14,-0.08 -0.17,-0.17 0.09,0 0.14,0.02 0.19,0.05l2.25 1.23 -0.27 0.5c-0,0 -0.01,0.01 -0.01,0.01 -0,0 -0.01,0.01 -0.01,0.01l-0.17 0.34c-0.16,0.25 -0.03,0.19 -0.26,0.28 -0.01,0 -0.04,0.02 -0.05,0.02 -0.04,0.01 -0.08,0.02 -0.1,0.03 -0.31,0.06 -0.19,0.11 -0.16,0.17l0.08 0.23c0,0.07 -0.06,0.07 -0.15,0.12 -0.01,0 -0.03,0.02 -0.04,0.02 -0.29,0.14 -0.21,0.05 -0.42,0.09 -0.08,0.01 -0.07,0.02 -0.12,0.04l-0.74 0.21c-0.12,0.04 -0.37,0.14 -0.5,0.14 0.02,-0.1 0.11,-0.2 0.15,-0.32 0.02,-0.05 0.04,-0.14 0.04,-0.18 0.04,-0.22 0.05,-0.06 0.05,-0.17 0,-0.47 -0.01,-0.22 -0.04,-0.38 -0.01,-0.04 -0.01,-0.07 -0.02,-0.12 -0.02,-0.1 -0.04,-0.11 -0.07,-0.19 -0.17,-0.43 -0.4,-0.47 -0.67,-0.6 -0.09,-0.04 -0.1,-0.1 -0.09,-0.31 0.3,-0.15 0.47,0.07 0.6,0.23 0.06,0.07 0.11,0.12 0.15,0.2 0.04,0.07 0.08,0.14 0.11,0.22l0.03 0.07c0.03,0.06 -0.02,0.01 0.03,0.06 0.05,0.05 0.38,-0.03 0.43,-0.04 0.14,-0.04 0.52,0 0.52,-0.17 0,-0.1 -0.02,-0.13 -0.08,-0.19 -0.1,-0.1 -0.23,-0.04 -0.23,-0.21 -0,-0.12 0.04,-0.03 0.04,-0.18l0 -0.29zm-1.15 -0.84c-0.15,0 -0.2,-0.23 -0.22,-0.27l-0.11 -0.37c0.13,0.01 0.18,0.07 0.29,0.11l0.13 0.07c0.05,0.03 0.05,0.03 0.11,0.07l0.23 0.12c0,0 0.01,0.01 0.01,0.01l0.13 0.07c0.05,0.04 0.05,0.05 0.05,0.13 -0.58,0 -0.32,0.07 -0.62,0.07zm0.73 1.46c-0.04,0.08 0.01,0.02 -0.06,0.07 -0.09,-0.02 -0.07,-0.04 -0.12,-0.11l-0.09 -0.11c-0.14,-0.19 -0.36,-0.4 -0.6,-0.43 -0.28,-0.03 -0.39,-0.01 -0.61,0.08 -0.27,0.11 -0.51,0.3 -0.67,0.53 -0.07,0.11 -0.13,0.3 -0.17,0.42 -0.03,0.08 -0.04,0.27 -0.11,0.31l-0.44 0.1c-0.14,0.02 -0.1,0.04 -0.22,0.05 -0.06,0 -0.18,0 -0.25,-0 -0.22,-0.32 0.18,-0.23 0.18,-0.38 0,-0.2 -0.03,-0.04 -0.04,-0.22l-0.03 -0.33c-0.02,-0.13 -0.02,0.02 -0.04,-0.14l-0.05 -0.69c-0.01,-0.13 -0.03,-0.03 -0.04,-0.16l-0.04 -0.87c0,-0.35 -0.04,-0.15 -0.04,-0.33 0,-0.41 1.08,-0.41 1.33,-0.31l0.16 0.07c0.03,0.02 0.06,0.03 0.09,0.04 0.12,0.06 0.22,0.15 0.28,0.28 0.03,0.07 0.02,0.03 0.04,0.11l0.09 0.33c0.03,0.11 0.04,0.11 0.07,0.22 0.05,0.25 0.09,0.16 0.5,0.14l0.12 -0.02c0.16,-0.05 0.31,-0.05 0.5,-0.05 0.03,0.1 0.04,0.03 0.04,0.11 -0,0.09 -0.01,0.01 -0.03,0.1 -0.02,0.09 -0.04,0.18 -0.01,0.24 0.08,-0.02 0.06,-0.01 0.08,-0.07 0,-0.01 0.02,-0.06 0.02,-0.07 0.05,-0.17 0.04,-0.17 0.14,-0.24 0.12,0.03 0.12,0.06 0.16,0.17l0.02 0.05c0.04,0.12 0.05,0.16 0.03,0.26 -0.08,0.03 -0.06,0.03 -0.17,0.03 0,0.26 0.05,0.41 0,0.69 -0.02,0.1 0.01,0.03 -0.03,0.1zm-8.52 0.45l-0.18 -0 -0.02 -0.04c-0.25,0 -0.51,0.02 -0.76,0 -0.11,-0.01 -0.07,0.01 -0.07,-0.04l0.4 -0.75c0.03,-0.05 0.07,-0.13 0.1,-0.19l0.21 -0.39c0.03,-0.04 0.03,-0.06 0.05,-0.1l0.06 -0.12c0.15,-0.28 0.34,-0.65 0.49,-0.9l0.48 -0.89c0,-0 0.01,-0.01 0.01,-0.01l0.43 -0.81c0.04,-0.08 0.07,-0.1 0.11,-0.18l0.09 -0.18c0,-0 0.01,-0.01 0.01,-0.01l0.52 -0.93c0.14,0 0.26,0.1 0.39,0.17 0.02,0.01 0.03,0.02 0.04,0.02 0.01,0 0.02,0.01 0.03,0.02l1.1 0.59c0.18,0.08 0.49,0.27 0.68,0.37l0.63 0.35c0.24,0.12 0.32,0.19 0.48,0.25l0.55 0.3c0.14,0.08 0.38,0.17 0.49,0.27 0.05,0.04 0.02,-0.02 0.04,0.06 -0.07,0.02 -0.18,0.01 -0.27,0.01l-0.72 0.12c-0.12,0.04 -0.13,0.02 -0.22,0.09 -0.22,0.18 -0.2,0.39 -0.17,0.69l0.05 0.82c0.02,0.08 0.02,-0 0.04,0.12l0.02 0.4c0.01,0.25 0.09,0.42 0.09,0.76 -0.12,-0 -0.09,-0.01 -0.15,-0.08 -0.27,-0.29 -0.15,-0.41 -0.24,-0.69l-0.04 -0.41c-0.01,-0.22 -0.04,-0.17 -0.05,-0.31l-0.02 -0.31c-0.01,-0.08 -0.02,-0.11 -0.02,-0.2l-0.04 -0.18c-0.02,-0.1 -0.02,-0.3 -0.03,-0.41 -0.01,-0.07 -0.01,-0.11 -0.02,-0.2 -0.01,-0.15 -0.03,-0.05 -0.04,-0.18 0.03,-0.12 0.21,-0.18 0.33,-0.18l0 -0.07c-0.14,0 -0.24,-0.04 -0.37,-0.02 -0.17,0.02 -0.16,0.05 -0.27,0.13 0,0.4 -0,0.19 0.04,0.38 0.04,0.2 0.01,0.43 0.06,0.63 0.02,0.1 0.02,-0.03 0.03,0.12 0.01,0.11 0.01,0.26 0.03,0.37l0.04 0.22c0.01,0.09 0.02,0.14 0.02,0.25 0,0.11 0.02,0.16 0.02,0.27 0,0.16 0.01,0.12 0.04,0.23 0.06,0.24 -0.02,0.19 0.1,0.46 0.04,0.09 0.25,0.26 0.24,0.31 -0.01,0.07 -0.12,0.05 -0.22,0.05 -0.09,-0 -0.18,-0 -0.27,-0 -1.46,0 -2.89,-0.02 -4.35,-0.02zm-1.35 -0.07c-0.15,0 -0.2,0.02 -0.35,0.02 -0.16,-0 -0.26,-0.01 -0.38,-0.02 -0.33,-0.03 -1.92,-0 -2.33,-0 -1.05,0 -2.03,-0.02 -3.09,-0.02 0,0.15 -0.02,0.54 -0.05,0.68 -0.02,0.09 -0.02,0 -0.04,0.12 -0.02,0.14 0,0.28 -0.03,0.41 -0.02,0.09 -0.02,0 -0.04,0.12 -0.03,0.23 -0.01,0.53 -0.07,0.71 -0.05,0.15 -0.02,0.39 -0.07,0.53 -0.02,0.06 -0.02,0.06 -0.02,0.14 -0,0.12 -0.02,0.16 -0.02,0.29 -0,0.07 -0.01,0.21 -0.02,0.29 -0.01,0.06 -0.01,0.03 -0.01,0.05l-0.07 0.77c-0.01,0.12 -0.04,0.13 -0.04,0.27 0.41,0.03 0.52,0.09 0.69,-0.16l-0.07 -0.16 -0.24 -0.02c0,-0.35 0.05,-0.39 0.07,-0.5l0.11 -1.09c0.01,-0.12 0.02,-0.03 0.04,-0.14 0.12,-0.69 -0.16,-0.77 0.51,-0.77 0.41,0 0.85,-0.05 1.27,-0.02 0.11,0.01 0.16,0.06 0.2,0.14 0.04,0.08 0.04,0.41 0.02,0.53 -0.01,0.06 -0.04,0.1 -0.04,0.2 -0,0.08 -0,0.1 -0.01,0.17 -0.03,0.19 -0,0.44 -0.03,0.61 -0.02,0.12 -0.04,0.1 -0.04,0.27 -0,0.12 -0.04,0.2 -0.03,0.28l-0.08 1.01c-0.01,0.14 -0.02,0.05 -0.04,0.14l-0.05 0.6c-0.03,0.25 -0.14,0.52 -0.21,0.77 -0.07,0.22 0.12,0.24 0.25,-0.05l0.2 -0.56c0,-0.01 0,-0.01 0,-0.02l0.02 -0.18c0.02,-0.17 -0,-0.46 0.03,-0.61 0.03,-0.13 0.02,0.04 0.04,-0.12 0.01,-0.05 0,-0.1 0.01,-0.15l0.1 -1.14c0.01,-0.14 0.05,-0.14 0.05,-0.29 -0,-0.14 0.02,-0.18 0.02,-0.29 0.01,-0.15 -0.01,-0.35 0.03,-0.46 0.04,-0.13 0.02,-0.29 0.08,-0.43 0.03,-0.07 0.06,-0.1 0.12,-0.14 0,-0 0.01,-0.01 0.01,-0.01l0.18 -0.09c0,-0 0.07,-0.02 0.07,-0.02 0.19,-0.03 0.42,-0.02 0.62,-0.03 0.17,-0.01 0.08,-0.05 0.26,-0.05l0.67 0c0.17,0 0.83,-0.06 0.91,0.02 0.05,0.05 -0.17,0.29 -0.22,0.34l-0.36 0.48c-0.1,0.12 -0.18,0.17 -0.18,0.34 0.23,-0.01 0.07,-0.14 0.24,-0.16 -0.16,0.23 -0.26,0.5 -0.4,0.74 -0.02,0.04 -0.01,0.02 -0.04,0.05 -0.02,0.02 -0.04,0.03 -0.05,0.04 -0.02,-0.07 -0.04,-0.07 -0.06,-0.16 -0.01,-0.04 -0.01,-0.05 -0.02,-0.09l-0.21 -0.45c-0.02,-0.03 -0.01,-0.04 -0.04,-0.07 -0.09,-0.13 -0.29,-0.31 -0.43,-0.36 -0.01,-0 -0.03,-0.01 -0.03,-0.01 -0.08,-0.03 -0.11,-0.05 -0.22,-0.01 -0.1,0.04 -0.06,0.01 -0.14,0.09 -0.05,0.05 -0.07,0.06 -0.11,0.14 -0.12,0.25 -0.12,0.47 -0.08,0.8 0.01,0.08 0.01,0.14 0.02,0.2l0.03 0.08c0,0 0,0.01 0.01,0.02 0,0 0,0.01 0.01,0.02l0.04 0.14c0,0.01 0.01,0.03 0.01,0.03 0,0 0.01,0.01 0.01,0.01l0.08 0.19c0.2,0.33 0.65,0.93 1.02,0.43 0.07,-0.1 0.11,-0.18 0.13,-0.31 0.02,-0.15 0.01,-0.31 0.01,-0.46 0.11,0.01 0.09,0.04 0.19,0.08l0.53 0.27c0.19,0.11 0.11,0.17 0.24,0.3 0.06,0.06 0.25,0.21 0.27,0.28 -0.14,0.07 -0.32,0.09 -0.47,0.13l-1.37 0.43c0.01,0.1 0.01,0.04 0.04,0.13 0.02,0.05 0.02,0.09 0.04,0.14l0.11 0.32c0.04,0.1 0.07,0.29 0.14,0.48l0.17 0.63c0.02,0.06 0,0 0.02,0.06l0.07 0.21c0.04,0.14 0.02,0.17 0.09,0.28 0.14,-0 0.3,-0.07 0.43,-0.11 0.1,-0.03 0.05,-0.03 0.14,-0.06 0.06,-0.02 0.09,-0.01 0.15,-0.03l0.21 -0.08c0.3,-0.1 0.22,-0.08 0.39,0.47l0.27 0.95 0.3 -0.1c0.05,-0.02 0.01,-0.01 0.06,-0.03 0.03,-0.01 0.05,-0.01 0.09,-0.02l0.16 -0.06c0.1,0.06 0.11,0.17 0.21,0.23 0.16,0.1 0.35,0.18 0.54,0.1 0.15,-0.07 0.36,-0.1 0.53,-0.16l1.43 -0.41c-0,-0.13 -0.06,-0.23 -0.09,-0.35 -0.06,-0.23 -0.03,-0.17 0.25,-0.26 0.01,-0 0.08,-0.02 0.09,-0.02l0.35 -0.1c0.04,-0.01 0.05,-0.01 0.09,-0.02l0.27 -0.13c0.09,-0.03 0.21,-0.02 0.33,-0.07 0.17,-0.07 0.3,0.06 0.47,0.14l0.48 0.25c0,0 0.01,0.01 0.01,0.01l1.86 1.01c0.11,0.05 0.21,0.15 0.33,0.14 0.01,-0.08 0.07,-0.15 0.11,-0.22l1.22 -2.25c0.03,-0.05 0.03,-0.06 0.06,-0.12l0.18 -0.31c0.06,-0.08 0.12,-0.08 0.23,-0.11l0.13 -0.04c0.05,-0.02 0.07,-0.02 0.12,-0.03l0.13 -0.05c0.08,-0.03 0.16,-0.04 0.24,-0.07 0.01,-0 0.01,-0 0.02,-0.01 0.07,-0.03 0.12,-0.09 0.2,-0.11 0.03,-0.01 0.17,0.01 0.27,-0.02 0.08,-0.02 0.03,-0.01 0.12,-0.04 0.05,-0.02 0.09,-0.02 0.14,-0.04l1.54 -0.46c0.04,-0.01 0.08,-0.03 0.11,-0.04l0.58 -0.17c0.02,-0.01 0.06,-0.01 0.07,-0.02 0.17,-0.03 0.41,-0.14 0.51,-0.15 0.07,-0.01 0.07,-0 0.13,-0.03 0.1,-0.03 0.02,-0.04 0.13,-0.05l0 -0.09c-0.07,-0.03 -0.07,-0.19 -0.12,-0.32l-0.15 -0.49c-0,-0.01 -0,-0.01 -0.01,-0.02 -0.02,-0.07 -0.01,-0.1 -0.05,-0.18 -0.05,-0.11 -0.07,-0.25 -0.07,-0.39 0.15,-0.07 0.33,-0.09 0.49,-0.14 0.08,-0.02 0.01,-0 0.08,-0.03 0.06,-0.02 0.08,-0.02 0.14,-0.04 0.08,-0.02 0.04,-0.02 0.13,-0.05 0.13,-0.04 0.31,-0.02 0.27,-0.19 -0.01,-0.05 -0.01,-0.03 -0.02,-0.05l-0.34 -1.08c-0.03,-0.08 -0.02,-0.14 -0.05,-0.22 -0.02,-0.05 -0.02,-0.02 -0.04,-0.09 -0.05,-0.14 -0.09,-0.37 -0.22,-0.47 -0.03,-0.02 -0.14,-0.08 -0.17,-0.09 -0.07,-0.03 -0.16,-0.04 -0.26,-0.04 -0.09,0 -0.16,0.02 -0.23,0.04l-0.15 0.05c-0.08,0.02 -0.01,0 -0.06,0.03 -0.08,0.03 -0.12,0.03 -0.21,0.05 -0.12,0.03 -0.08,0.05 -0.23,0.05 -0,-0.09 -0.07,-0.3 -0.11,-0.38l-0.15 0.05c-0.05,0.01 -0.12,0.03 -0.18,0.04 0.01,-0.05 0.04,-0.09 0.06,-0.14 0.03,-0.06 0.05,-0.07 0.07,-0.13 0.02,-0.04 0.01,-0.03 0.03,-0.06l0.34 -0.61c0.05,-0.07 0.05,-0.06 0.05,-0.17 -0.11,-0.03 -0.16,-0.08 -0.25,-0.12l-0.42 -0.22c-0.01,-0 -0.02,-0.01 -0.03,-0.02l-0.04 -0.03c-0.03,-0.02 -0.06,-0.04 -0.08,-0.05 -0.07,-0.04 -0.11,-0.05 -0.18,-0.09 -0.07,-0.04 -0.11,-0.05 -0.17,-0.09l-0.09 -0.06c-0.01,-0 -0.02,-0.01 -0.03,-0.02 -0.02,-0.01 -0.02,-0.01 -0.04,-0.02l-0.33 -0.18c-0.22,-0.1 -0.43,-0.24 -0.65,-0.35l-0.03 -0.02c-0.03,-0.01 -0.06,-0.03 -0.09,-0.04l-0.08 -0.05c-0.06,-0.04 -0.1,-0.08 -0.18,-0.09 0,-0.11 0.02,-0.17 0.02,-0.31 -0.12,0.03 -0.11,0.1 -0.11,0.24l-0.99 -0.54c-0.14,-0.11 -0.09,-0.2 -0.16,-0.35 -0.16,0.04 -0.1,0.22 -0.34,0.09l-0.34 -0.19c-0.06,-0.03 -0.11,-0.05 -0.17,-0.09 -0.06,-0.04 -0.12,-0.07 -0.17,-0.1 -0.04,-0.02 -0.06,-0.03 -0.09,-0.04l-2.1 -1.14c-0,-0 -0.01,-0.01 -0.01,-0.01l-1.23 -0.66c-0.23,-0.13 -0.45,-0.26 -0.69,-0.38 -0.08,-0.04 -0.1,-0.06 -0.17,-0.1l-0.17 -0.09c-0.08,0.07 -0.11,0.16 -0.15,0.25l-1.25 2.31c-0,0 -0.01,0.01 -0.01,0.01l-0.02 0.03c-0,0.01 -0.02,0.03 -0.02,0.05l-0.25 0.46c-0.05,0.08 -0.05,0.12 -0.1,0.19 -0.03,0.06 -0.07,0.12 -0.11,0.18l-1.05 1.93c-0.02,0.04 -0.03,0.07 -0.05,0.11 -0.05,0.08 -0.07,0.08 -0.11,0.18l-0.09 0.2z"/>
   <path class="fil1" d="M7.79 5.91l0.18 0 0.02 0.04c1.47,0 2.89,0.02 4.35,0.02 0.09,0 0.18,-0 0.27,0 0.1,0 0.2,0.02 0.22,-0.05 0.01,-0.05 -0.2,-0.22 -0.24,-0.31 -0.12,-0.27 -0.04,-0.22 -0.1,-0.46 -0.03,-0.11 -0.03,-0.07 -0.04,-0.23 -0,-0.1 -0.02,-0.15 -0.02,-0.27 -0,-0.11 -0,-0.16 -0.02,-0.25l-0.04 -0.22c-0.03,-0.11 -0.02,-0.26 -0.03,-0.37 -0.02,-0.15 -0.01,-0.02 -0.03,-0.12 -0.05,-0.2 -0.02,-0.43 -0.06,-0.63 -0.04,-0.19 -0.04,0.02 -0.04,-0.38 0.11,-0.08 0.1,-0.11 0.27,-0.13 0.14,-0.02 0.23,0.02 0.37,0.02l0 0.07c-0.12,0 -0.3,0.05 -0.33,0.18 0.02,0.13 0.03,0.02 0.04,0.18 0.01,0.09 0.01,0.14 0.02,0.2 0.01,0.11 0.01,0.31 0.03,0.41l0.04 0.18c0,0.09 0.01,0.12 0.02,0.2l0.02 0.31c0.01,0.13 0.04,0.09 0.05,0.31l0.04 0.41c0.09,0.29 -0.03,0.4 0.24,0.69 0.06,0.06 0.02,0.07 0.15,0.08 0,-0.33 -0.08,-0.5 -0.09,-0.76l-0.02 -0.4c-0.01,-0.12 -0.02,-0.04 -0.04,-0.12l-0.05 -0.82c-0.03,-0.31 -0.05,-0.51 0.17,-0.69 0.09,-0.07 0.1,-0.05 0.22,-0.09l0.72 -0.12c0.09,0 0.2,0.01 0.27,-0.01 -0.02,-0.08 0,-0.02 -0.04,-0.06 -0.11,-0.1 -0.35,-0.19 -0.49,-0.27l-0.55 -0.3c-0.16,-0.07 -0.23,-0.13 -0.48,-0.25l-0.63 -0.35c-0.19,-0.1 -0.49,-0.29 -0.68,-0.37l-1.1 -0.59c-0.01,-0 -0.02,-0.01 -0.03,-0.02 -0.01,-0.01 -0.03,-0.01 -0.04,-0.02 -0.13,-0.07 -0.24,-0.17 -0.39,-0.17l-0.52 0.93c-0,0 -0.01,0.01 -0.01,0.01l-0.09 0.18c-0.04,0.07 -0.08,0.09 -0.11,0.18l-0.43 0.81c-0,0 -0.01,0.01 -0.01,0.01l-0.48 0.89c-0.16,0.25 -0.34,0.63 -0.49,0.9l-0.06 0.12c-0.02,0.04 -0.02,0.06 -0.05,0.1l-0.21 0.39c-0.03,0.06 -0.07,0.14 -0.1,0.19l-0.4 0.75c0.01,0.05 -0.04,0.03 0.07,0.04 0.25,0.02 0.51,-0 0.76,-0z"/>
   <path class="fil1" d="M14.16 6.95l0 0.4c0,0.1 -0,-0.01 -0.03,0.08 -0.04,0.11 -0.03,0.2 -0.17,0.21 0,-0.17 0.07,-0.25 0.07,-0.42 0,-0.16 -0,-0.33 -0,-0.49 -0.05,0.03 -0.05,0.01 -0.1,0.05 -0.35,0.26 -0.34,0.08 -0.62,0.15l-0.2 0.11c-0.13,0.08 -0.3,0.12 -0.42,0.2 -0.08,0.05 -0.12,0.06 -0.21,0.11l-0.73 0.38c-0.06,0.03 -0.04,0.03 -0.1,0.06l-0.42 0.2c-0.07,0.04 -0.12,0.07 -0.2,0.11 -0.02,0.01 -0.03,0.01 -0.04,0.02l-1.3 0.68c-0.04,0.02 -0.07,0.03 -0.11,0.05 -0.04,0.02 -0.04,0.03 -0.1,0.06l-1.18 0.62c-0.02,0.01 -0.04,0.02 -0.06,0.03l-0.95 0.49c0.13,-0 0.24,-0.05 0.36,-0.09 0.11,-0.04 0.28,-0.02 0.39,-0.06 0.11,-0.04 0.19,-0.1 0.31,-0.13l0.7 -0.21c0.44,-0.1 0.46,0.13 0.62,0.18 0,-0.16 -0.06,-0.17 -0.09,-0.33l0.75 -0.23c0.18,-0.08 0.35,-0.09 0.53,-0.14l0.24 -0.07c0.05,-0.02 0.02,-0.01 0.08,-0.03 0.03,-0.01 0.05,-0.02 0.08,-0.03 0.02,-0 0.06,-0.02 0.08,-0.03 0.06,-0.02 0.01,-0.01 0.08,-0.03 0.06,-0.02 0.12,-0.03 0.18,-0.05 0.06,-0.02 0.08,-0.03 0.16,-0.06l0.66 -0.21c0.08,-0.03 0.1,-0.02 0.18,-0.04 0.14,-0.04 0.02,-0.03 0.16,-0.06 0.08,-0.02 0.11,-0.01 0.18,-0.04l1.17 -0.36c0.08,-0.02 0.1,-0.03 0.17,-0.05 0.07,-0.03 0.11,-0.02 0.18,-0.04 0.11,-0.03 0.06,-0.03 0.16,-0.06l0.36 -0.08c-0.02,-0.18 -0.08,0.05 -0.36,-0.42 -0.18,-0.31 -0.17,-0.68 -0.13,-1.04 0.03,-0.25 0.28,-0.54 0.48,-0.67 0.18,-0.11 0.25,-0.09 0.25,-0.33 0,-0.24 -0.26,-0.06 -0.37,0.01l-0.27 0.24 -0.2 0.33c-0.04,0.08 -0.03,0.06 -0.05,0.15 -0.03,0.13 -0.11,0.29 -0.15,0.41 -0.03,0.08 -0.08,0.24 -0.07,0.32 0.02,0.1 0.04,0.04 0.04,0.16z"/>
   <path class="fil1" d="M6.73 9.73c0,0.3 -0.07,0.18 -0.07,0.53 0.09,-0 0.13,-0.02 0.2,-0.05 0.08,-0.04 0.12,-0.04 0.18,-0.08 -0.02,-0.2 -0.16,-0.02 -0.16,-0.42 0,-0.19 0.34,-0.43 0.53,-0.49l1.63 -0.68c0.07,-0.03 0.12,-0.04 0.2,-0.07l2.47 -1.03c0.03,-0.01 0.06,-0.02 0.1,-0.04 0.02,-0.01 0.05,-0.02 0.08,-0.03l0.19 -0.08c0.18,-0.1 0.39,-0.11 0.42,-0.24 -0.14,-0.09 -0.11,-0.02 -0.33,-0.02 -0.13,0 -0.41,-0.02 -0.51,0.02 -0.1,0.03 -0.12,0.03 -0.24,0.02l-1.04 0.02c-0.19,0.02 0.08,0.05 -0.47,0.04 -0.19,-0 -0.32,0.02 -0.51,0.02l-0.9 0.03c-0.31,0.07 -0.38,0.17 -0.53,0.38 -0.04,0.05 -0.08,0.09 -0.12,0.15l-1.06 1.31c-0.07,0.07 -0.07,0.06 -0.07,0.19l0.02 0.51z"/>
   <path class="fil1" d="M13.39 3.55c0,-0.22 0.08,-0.2 0.24,-0.22 0.12,-0.02 0.03,-0.01 0.08,-0.03 0.15,-0.05 0.78,-0.11 0.99,0.11 0.05,0.05 0.17,0.28 0.17,0.34 0,0.3 -0.03,0.12 -0.07,0.29 -0.2,0 -0.36,0.02 -0.56,0.02 -0.13,-0 -0.15,0.02 -0.27,0.02 -0.29,0.01 -0.14,0.09 -0.49,0.03 -0.11,-0.17 -0.11,-0.37 -0.11,-0.57zm-0.31 -0.24c0,0.18 0.05,-0.01 0.04,0.33l0.04 0.87c0.01,0.13 0.03,0.03 0.04,0.16l0.05 0.69c0.02,0.16 0.02,0.01 0.04,0.14l0.03 0.33c0.02,0.18 0.04,0.02 0.04,0.22 0,0.15 -0.39,0.05 -0.18,0.38 0.06,0 0.18,0.01 0.25,0 0.12,-0.01 0.07,-0.03 0.22,-0.05l0.44 -0.1c0.08,-0.04 0.08,-0.23 0.11,-0.31 0.05,-0.13 0.1,-0.31 0.17,-0.42 0.16,-0.24 0.4,-0.43 0.67,-0.53 0.23,-0.09 0.33,-0.1 0.61,-0.08 0.24,0.02 0.46,0.24 0.6,0.43l0.09 0.11c0.04,0.07 0.03,0.08 0.12,0.11 0.07,-0.05 0.02,0 0.06,-0.07 0.04,-0.08 0.01,0 0.03,-0.1 0.05,-0.28 -0,-0.44 -0,-0.69 0.11,-0 0.08,-0.01 0.17,-0.03 0.02,-0.1 0.01,-0.14 -0.03,-0.26l-0.02 -0.05c-0.04,-0.12 -0.04,-0.14 -0.16,-0.17 -0.11,0.07 -0.09,0.07 -0.14,0.24 -0,0.01 -0.02,0.06 -0.02,0.07 -0.03,0.06 -0,0.05 -0.08,0.07 -0.03,-0.06 -0.01,-0.15 0.01,-0.24 0.02,-0.08 0.03,-0.01 0.03,-0.1 0,-0.08 -0.01,-0.01 -0.04,-0.11 -0.19,0 -0.34,-0 -0.5,0.05l-0.12 0.02c-0.42,0.01 -0.45,0.11 -0.5,-0.14 -0.02,-0.12 -0.04,-0.11 -0.07,-0.22l-0.09 -0.33c-0.02,-0.09 -0.01,-0.05 -0.04,-0.11 -0.06,-0.12 -0.16,-0.22 -0.28,-0.28 -0.03,-0.01 -0.06,-0.03 -0.09,-0.04l-0.16 -0.07c-0.25,-0.1 -1.33,-0.1 -1.33,0.31z"/>
   <path class="fil1" d="M16.94 4.89l0 0.29c0,0.14 -0.04,0.06 -0.04,0.18 0,0.17 0.13,0.12 0.23,0.21 0.06,0.06 0.08,0.09 0.08,0.19 0,0.17 -0.38,0.13 -0.52,0.17 -0.05,0.01 -0.38,0.09 -0.43,0.04 -0.05,-0.05 -0,0.01 -0.03,-0.06l-0.03 -0.07c-0.03,-0.08 -0.07,-0.15 -0.11,-0.22 -0.05,-0.08 -0.1,-0.13 -0.15,-0.2 -0.13,-0.16 -0.3,-0.37 -0.6,-0.23 -0.01,0.22 -0.01,0.27 0.09,0.31 0.27,0.12 0.5,0.16 0.67,0.6 0.03,0.08 0.05,0.09 0.07,0.19 0.01,0.05 0.01,0.08 0.02,0.12 0.03,0.16 0.04,-0.09 0.04,0.38 0,0.11 -0.01,-0.05 -0.05,0.17 -0.01,0.04 -0.02,0.13 -0.04,0.18 -0.04,0.11 -0.13,0.22 -0.15,0.32 0.13,0 0.38,-0.1 0.5,-0.14l0.74 -0.21c0.05,-0.02 0.04,-0.02 0.12,-0.04 0.21,-0.04 0.13,0.04 0.42,-0.09 0.02,-0.01 0.03,-0.02 0.04,-0.02 0.09,-0.05 0.15,-0.05 0.15,-0.12l-0.08 -0.23c-0.02,-0.06 -0.14,-0.11 0.16,-0.17 0.03,-0.01 0.06,-0.01 0.1,-0.03 0.01,-0 0.04,-0.02 0.05,-0.02 0.23,-0.09 0.1,-0.03 0.26,-0.28l0.17 -0.34c0,-0 0.01,-0.01 0.01,-0.01 0,-0 0.01,-0.01 0.01,-0.01l0.27 -0.5 -2.25 -1.23c-0.05,-0.04 -0.1,-0.05 -0.19,-0.05 0.02,0.08 0.09,0.12 0.17,0.17 0.16,0.1 0.08,0.04 0.17,0.18 0.18,0.26 0.01,0.17 0.11,0.51 0.01,0.04 0.01,0.02 0.01,0.07z"/>
   <path class="fil1" d="M12.14 12.3l0.03 0.15c0,0.01 0,0.01 0.01,0.02l0.07 0.19c-0.21,0.14 -0.56,0.13 -0.64,0.24 0.04,0.05 0.81,0.45 0.9,0.5 0.04,0.02 0.04,0.02 0.07,0.04l1.14 0.61c0.07,0.03 0.09,0.06 0.15,0.09 0.05,0.03 0.1,0.06 0.18,0.07l0.17 -0.3c0.07,-0.11 0.1,-0.2 0.16,-0.31l0.07 -0.11c0,-0 0.01,-0.01 0.01,-0.01l0.09 -0.18c0.14,-0.27 0.3,-0.52 0.44,-0.82l0.31 -0.56c0.03,-0.06 0.06,-0.09 0.04,-0.12 -0.06,-0.1 0.01,-0.02 -0.26,0.03l-0.92 0.28c-0.04,-0.11 -0,0.01 -0.04,-0.07 -0.06,-0.13 0.01,-0.2 -0.11,-0.29 -0.01,0.07 -0.11,0.31 -0.16,0.37l-0.1 0.07c-0.06,0.03 -0.06,0.03 -0.13,0.05 -0.04,0.02 -0.06,0.03 -0.13,0.05 -0.01,0 -0.06,0.02 -0.07,0.02l-0.04 0.02c-0.1,0.05 -0.14,0.03 -0.29,0.08 -0.19,0.07 -0.52,0.15 -0.74,0.02 -0.08,-0.05 -0.11,-0.13 -0.2,-0.15z"/>
   <path class="fil2" d="M11.17 9.31c-0.23,-0.02 -0.25,-0.07 -0.49,0.06 -0.04,0.02 -0.02,0.01 -0.04,0.03 -0.04,0.03 -0,0.02 -0.07,0.07 -0.08,-0.02 -0.05,-0.02 -0.11,-0.07 -0.25,0.1 -0.17,0.02 -0.47,0.18 0.01,0.1 0.02,0.05 0.05,0.17l0.1 0.38c0.02,0.07 0.04,0.09 0.07,0.18 0.03,0.13 -0,0.06 0.06,0.21l0.16 0.52c0.15,0 0.19,-0.03 0.27,-0.06 0.15,-0.05 0.22,0.01 0.22,-0.16l-0.24 -0.84c-0.01,-0.04 -0.14,-0.2 0.09,-0.2l0.25 0.93c0.03,0.12 -0.01,0.09 0.06,0.12l0 0.04c0.61,0 0.34,-0.02 0.55,-0.06l-0.3 -1c-0.05,-0.22 -0.05,-0.1 -0.01,-0.25 0.15,0.04 0.14,0.24 0.19,0.39l0.11 0.34c0.02,0.05 0.02,0.07 0.04,0.12l0.14 0.46c0.02,0.09 0.06,0.25 0.14,0.31 0.05,0.03 0.05,0.03 0.12,0.03 -0,-0.12 -0.04,-0.17 -0.04,-0.47 0,-0.15 0.23,-0.09 0.17,-0.35l-0.12 -0.48c-0.05,-0.15 -0.02,-0.17 -0.09,-0.33l-0.1 -0.34c-0.02,-0.04 -0.02,-0.05 -0.07,-0.09 -0.1,-0.07 -0.13,-0.05 -0.3,-0.05 -0.07,0 -0.02,0.01 -0.09,0.04 -0.1,0.04 -0.17,0.09 -0.24,0.18z"/>
   <path class="fil2" d="M6.79 12.35c-0.06,-0.02 -0.1,-0.1 -0.33,0 -0.07,0.03 -0.14,0.06 -0.23,0.06 0,0.09 0,0.15 0.03,0.22 0.02,0.05 0.02,0.03 0.04,0.09 0.01,0.05 0.01,0.06 0.02,0.11l0.35 1.2 0.34 -0.08c0.07,-0.03 0.08,-0.04 0.17,-0.05 0,-0.1 -0.1,-0.39 -0.13,-0.49l-0.12 -0.43c-0,-0.01 -0,-0.01 -0.01,-0.02l-0.01 -0.03c-0,-0 -0.01,-0.01 -0.01,-0.02 -0.06,-0.14 -0.07,-0.25 0.06,-0.28 0.07,0.15 0.21,0.73 0.26,0.87 0.01,0.02 0.03,0.05 0.04,0.09l0.13 0.43c0.03,0.09 0.01,0.42 0.48,0.23 0.12,-0.05 0.16,-0.02 0.31,-0.09 0.04,-0.02 0.06,-0.03 0.1,-0.04l1.04 -0.34c-0.01,-0.12 -0,-0 -0.06,-0.16l-0.02 -0.05c-0.03,-0.09 -0.04,-0.04 -0.04,-0.14 -0.22,0 0.02,0.01 -0.32,0.08l-0.85 0.26c-0.23,0.08 -0.15,-0.02 -0.3,-0.48l-0.26 -0.85c-0.05,-0.14 -0.07,-0.45 -0.5,-0.24 -0.1,0.05 -0.13,0.04 -0.2,0.14z"/>
   <path class="fil2" d="M17.12 9.62c0,0.04 0.02,0.11 0.03,0.15l0.12 0.35c0.13,0.42 0.11,0.37 -0.06,0.37 -0,-0.04 -0.01,-0.09 -0.02,-0.13l-0.1 -0.35c-0.02,-0.06 -0.02,-0.03 -0.04,-0.11 -0.06,-0.23 -0.06,-0.26 0.08,-0.28zm-0.22 -0.8c0,0.13 -0,0.08 0.03,0.17 0.04,0.1 0.03,0.14 0.03,0.25 -0.08,0 -0.07,0.02 -0.15,0.05 -0.59,0.2 -0.42,0.17 -0.33,0.61 0.02,0.11 0.04,0.11 0.07,0.18 0.04,0.12 -0.01,0.03 0.08,0.28 0.02,0.05 0.01,0.06 0.03,0.11 0.02,0.09 0.03,0.08 0.06,0.18 0.02,0.07 0.02,0.14 0.05,0.2 0.09,0.2 0.3,0.13 0.44,0.08l0.3 -0.08c0.16,-0.06 0.32,-0.13 0.48,-0.14 0,-0.07 0,-0.08 -0.01,-0.14l-0.15 -0.49c-0,-0 -0.02,-0.06 -0.02,-0.07 -0.02,-0.05 -0.01,-0.01 -0.03,-0.06l-0.11 -0.38c-0.01,-0.02 -0.01,-0.05 -0.02,-0.07l-0.26 -0.82c-0.04,0.01 -0.08,0.02 -0.12,0.03l-0.37 0.12z"/>
   <path class="fil2" d="M18.6 8.18l-0.14 -0.46c-0.05,-0.22 -0.06,-0.06 -0.06,-0.16l0 -0.09c0.19,0 0.13,-0 0.16,0.07 0,0 0.01,0.05 0.01,0.05 0.05,0.14 0.19,0.58 0.18,0.68l-0.13 0.03c-0.01,-0.04 -0.01,-0.07 -0.03,-0.1zm-0.3 -1.52l0.06 0.18c0.03,0.07 0.03,0.12 0.03,0.22 -0.09,0.01 -0.56,0.11 -0.56,0.27l0.17 0.72c0.03,0.11 0.02,0.07 0.05,0.17l0.15 0.51c0.22,0 0.06,-0.09 0.62,-0.09 0.12,-0.18 0.04,-0.09 0.25,-0.15l0.3 -0.1c-0.01,-0.05 -0.01,-0.03 -0.02,-0.05 -0,-0 -0,-0.01 -0.01,-0.02 -0,-0 -0,-0.01 -0.01,-0.02l-0.16 -0.55c-0.01,-0.02 -0.02,-0.05 -0.02,-0.07l-0.21 -0.7c-0.04,-0.18 -0.12,-0.33 -0.13,-0.49 -0.06,0 -0.1,0.01 -0.14,0.02 -0.11,0.02 -0.06,0.02 -0.13,0.05 -0.15,0.05 -0.13,0.01 -0.26,0.09z"/>
   <path class="fil2" d="M12.74 10.91l0.09 0c0.02,0.22 0.17,0.24 -0.07,0.24l-0.07 -0.2c0.08,-0.01 0.03,0.02 0.04,-0.04zm0.93 0.93c0,-0.13 0,-0.01 -0.03,-0.1 -0.01,-0.02 -0.02,-0.06 -0.03,-0.09 -0,-0.01 -0.01,-0.03 -0.01,-0.03 -0.04,-0.11 -0.04,-0.04 -0.04,-0.16l-0.48 0.14c-0.09,0.07 0.02,0.2 -0.11,0.14 -0.04,-0.02 -0.21,-0.16 0.05,-0.24l0.4 -0.13c0.05,-0.01 0.06,-0.02 0.11,-0.02 -0.03,-0.06 -0.01,-0.06 -0.03,-0.12l-0.18 -0.58c-0,-0.01 -0,-0.01 -0.01,-0.02 -0.03,-0.07 -0.02,-0.05 -0.05,-0.11 -0.02,-0.04 -0.03,-0.07 -0.05,-0.11 -0.26,-0.01 -0.19,0.01 -0.5,0.08 -0.06,0.01 -0.07,0.02 -0.12,0.04 -0.4,0.16 -0.68,0.04 -0.38,0.76l0.22 0.74c0.11,0.4 0.43,0.16 0.59,0.13 0.06,-0.01 0.08,-0.01 0.13,-0.02 0.08,-0.02 0.04,-0.02 0.11,-0.04 0.07,-0.02 0.3,-0.08 0.34,-0.13 0.01,-0.01 0.06,-0.11 0.06,-0.12z"/>
   <path class="fil2" d="M11.06 12.02c0.1,0 0.11,0.14 0.11,0.24 0,0.04 -0.01,0.07 -0.04,0.07 -0.13,0 -0.17,-0.31 -0.07,-0.31zm-0.71 -0.27l0.15 -0.05c0.15,-0.04 0.27,-0.04 0.32,-0.12l0.06 -0.12c0.09,0.06 0.11,0.07 0.11,0.22 -0.05,0 -0.06,0.01 -0.09,0.02l-0.05 0.02c-0.13,0.05 -0.13,0.02 -0.24,0.07 -0.32,0.16 -0.21,0.23 -0.18,0.3l0.17 0.59c0.06,0.26 0.38,0.09 0.56,0.04l0.4 -0.11c0.07,-0.02 0.03,-0.02 0.13,-0.04 0.05,-0.01 0.09,-0.02 0.14,-0.04l-0.08 -0.3c-0.04,-0.11 -0.04,-0.2 -0.12,-0.4 -0.09,-0.23 -0.03,-0.11 -0.09,-0.29 -0.03,-0.1 -0.04,-0.08 -0.07,-0.2 -0.02,-0.12 -0.07,-0.33 -0.16,-0.37 -0.12,-0.06 -0.26,0.05 -0.4,0.07 -0.05,0.01 -0.06,0.01 -0.09,0.02l-0.39 0.13c-0.07,0.03 -0.09,0.02 -0.14,0.06 -0.08,0.06 -0.09,0.07 -0.07,0.22l0.04 0.16c0.01,0.03 0,0.02 0.02,0.05 0.02,0.04 0.03,0.05 0.05,0.08z"/>
   <path class="fil2" d="M8.21 12.26c0.1,-0.06 0.17,0.26 0.18,0.33 0.03,0.14 0.04,0.11 0.07,0.22 0.04,0.18 0.15,0.29 -0.07,0.29 -0,-0.08 -0.09,-0.35 -0.12,-0.43 -0.03,-0.08 -0.03,-0.16 -0.06,-0.23l-0.01 -0.03c-0.02,-0.04 -0.02,0.02 -0.02,-0.06 -0,-0.06 0,-0.06 0.04,-0.09zm-0.15 1.34c0.28,0 0.18,-0.02 0.36,-0.06 0.05,-0.01 0.09,-0.02 0.15,-0.03l0.35 -0.11c0.26,-0.1 0.23,-0.16 0.17,-0.4 -0.03,-0.11 -0.03,-0.08 -0.06,-0.18 -0.01,-0.02 -0.02,-0.06 -0.03,-0.09 -0.06,-0.17 -0.04,-0.19 -0.08,-0.3 -0.02,-0.08 -0.01,-0.01 -0.03,-0.08 -0.02,-0.04 -0.02,-0.08 -0.03,-0.1 -0.01,-0.06 -0.01,-0.04 -0.02,-0.09 -0.01,-0.03 -0.02,-0.04 -0.04,-0.1 -0.05,-0.21 -0.08,-0.36 -0.39,-0.28l-0.79 0.27c-0.04,0.05 -0.01,-0 -0.03,0.06l-0.03 0.08c-0.01,0.05 0.02,0.07 0.04,0.16 0.01,0.03 0.01,0.05 0.02,0.07l0.25 0.82c0.03,0.06 0.01,0.01 0.03,0.08 0.02,0.07 0.05,0.29 0.16,0.29z"/>
   <path class="fil2" d="M15.86 10.21c0.08,0.21 0.06,0.21 0.11,0.34 0.05,0.13 0.09,0.27 -0,0.34 -0.09,-0.07 -0.11,-0.19 -0.15,-0.3l-0.07 -0.24c-0.04,-0.14 -0.09,-0.17 -0.05,-0.33 0.17,0 0.11,0.06 0.16,0.19zm-0.79 -0.28c0,0.25 -0.01,-0.03 0.05,0.23l0.11 0.38c0.07,0.16 0.2,0.69 0.23,0.74 0.06,0.1 0.21,0.09 0.3,0.07 0.16,-0.03 0.02,-0.03 0.28,-0.08 0.02,-0 0.05,-0.01 0.07,-0.02 0.01,-0 0.01,-0 0.02,-0.01l0.24 -0.07c0.01,-0 0.02,-0.01 0.03,-0.01 0,-0 0.01,-0 0.02,-0.01 0.21,-0.08 0.21,-0.08 0.21,-0.25 0,-0.11 -0,0.06 -0.05,-0.17l-0.31 -1.07c-0.07,-0.15 -0.09,-0.14 -0.24,-0.14 -0.07,0 -0.08,0.01 -0.13,0.03 -0.22,0.09 -0.25,0.05 -0.4,0.11l-0.25 0.08c-0.09,0.03 -0.18,0.12 -0.18,0.18z"/>
   <path class="fil2" d="M18.56 9.79c0.05,0 0.11,0.22 0.11,0.22 0,0.06 -0.08,0.07 -0.13,0.07l-0.07 -0.2c0,-0.05 0.04,-0.09 0.09,-0.09zm-0.84 -0.62c0,0.12 0.04,0.18 0.04,0.31 0.11,0 0.48,-0.04 0.54,-0.12 0.04,-0.06 -0.01,-0.12 0.08,-0.12 0.08,0 0.09,0.09 0.09,0.16 0,0.07 -0.06,0.07 -0.13,0.09 -0.17,0.07 -0.12,0.02 -0.27,0.09 -0.02,0.01 -0.05,0.02 -0.08,0.03 -0.19,0.1 -0.07,0.29 -0.01,0.58l0.08 0.25c0.05,0.13 0.05,-0 0.07,0.13 0.1,0 0.07,0.02 0.14,0.01l0.29 -0.07c0.16,-0.07 0.63,-0.15 0.75,-0.23l-0.1 -0.34c-0.05,-0.12 -0.02,-0.09 -0.08,-0.25l-0.18 -0.6c-0.03,-0.11 -0.04,-0.25 -0.15,-0.32 -0.06,-0.04 -0.08,-0.03 -0.16,-0.02 -0.12,0.01 -0.45,0.14 -0.52,0.15 -0.08,0.02 -0.11,0.02 -0.18,0.04 -0.1,0.04 -0.23,0.09 -0.23,0.23z"/>
   <path class="fil2" d="M20.05 7.88c-0.08,0 -0.12,0.01 -0.16,-0.11 -0.07,-0.22 0.16,-0.25 0.16,0.11zm-0.87 -0.56c0.07,-0 0.1,-0.01 0.17,-0.03l0.15 -0.05c0.14,-0.04 0.22,-0.01 0.23,-0.19l0.09 0c0.01,0.05 0.14,0.21 -0.07,0.24l-0.34 0.1c-0.19,0.09 -0.08,0.38 -0.04,0.52 0.05,0.19 0.01,0.11 0.11,0.33 0.11,0.24 0.34,0.1 0.6,0.02l0.6 -0.17c-0.01,-0.14 -0.16,-0.56 -0.17,-0.61 -0.01,-0.05 -0,-0.06 -0.02,-0.11 -0.03,-0.08 -0.02,-0.03 -0.04,-0.09l-0.18 -0.62c-0.07,-0.15 -0.27,-0.11 -0.4,-0.07l-0.34 0.11c-0.18,0.08 -0.2,0.01 -0.33,0.12 -0.07,0.06 -0.13,0.1 -0.09,0.22l0.03 0.07c0,0.01 0,0.01 0.01,0.02 0.01,0.04 0.03,0.16 0.03,0.19z"/>
   <path class="fil2" d="M14.72 8.82c-0.05,0.01 -0.05,0.02 -0.11,0.02 -0.04,0 -0.09,-0.17 -0.09,-0.18 0,-0.05 0.07,-0.07 0.13,-0.07l0.07 0.22zm-0.78 -0.33c0,0.23 0.01,0.16 0.06,0.34 0.01,0.05 0.01,0.06 0.02,0.09 0.03,0.09 -0.02,-0.04 0.01,0.03l0.03 0.06c0,0.01 0.02,0.04 0.02,0.05 0.04,0.13 0,0.07 0.07,0.24l0.12 0.43c0.02,0.09 0.03,0.08 0.07,0.15l0.22 -0.05c0.05,-0.02 0.01,-0.01 0.06,-0.03l0.22 -0.05c0.06,-0.03 0.04,0.01 0.06,-0.05l0.16 0.04c0.03,-0.08 -0.02,-0.01 0.09,-0.07l0.34 -0.13c-0,-0.21 -0.1,-0.35 -0.11,-0.4l-0.07 0c-0.04,0.1 -0.11,0.02 -0.32,0.1 -0.13,0.05 -0.09,0.11 -0.12,0.19 -0.14,-0.01 -0.13,-0.11 -0.13,-0.22 0.05,-0 0.12,-0.01 0.17,-0.03 0.05,-0.02 0.03,-0.01 0.08,-0.03 0.04,-0.02 0.06,-0.02 0.09,-0.02 0.39,-0.09 0.28,-0.14 0.24,-0.26 -0.02,-0.05 -0.02,-0.07 -0.03,-0.12l-0.14 -0.48c-0.02,-0.08 -0.01,-0.06 -0.06,-0.11 -0.07,-0.08 0,-0.05 -0.12,-0.05 -0.07,0 -0.08,-0 -0.14,0.01 -0.12,0.02 -0.71,0.21 -0.78,0.26 -0.04,0.03 -0.07,0.05 -0.07,0.1z"/>
   <path class="fil2" d="M8.95 10.93c0,-0.11 0.16,-0.1 0.16,0.13 0,0.13 -0.11,0.11 -0.14,0.01 -0.01,-0.03 -0.02,-0.08 -0.02,-0.14zm-0.71 -0.36c0.14,0 0.46,-0.06 0.53,-0.14 0.06,-0.07 0.01,-0.08 0.12,-0.11 0.02,0.07 0.08,0.13 0.05,0.18 -0.03,0.05 -0.15,0.05 -0.22,0.07 -0.14,0.03 -0.34,0.1 -0.34,0.26l0.05 0.28c0.02,0.05 0.01,0.03 0.04,0.1l0.03 0.1c0,0 0,0.01 0.01,0.02l0.07 0.26c0.21,0 0.11,-0.03 0.29,-0.07 0.06,-0.01 0.04,-0 0.11,-0.03 0.05,-0.02 0.03,-0.02 0.08,-0.03l0.3 -0.09 0.08 0.09c0.11,-0.16 0.1,-0.18 0.29,-0.18l-0.02 -0.16c-0,-0.01 -0,-0.01 -0.01,-0.02l-0.01 -0.03c-0.02,-0.09 -0.03,-0.13 -0.06,-0.21 -0.08,-0.21 -0.18,-0.66 -0.25,-0.82 -0.06,-0.15 -0.08,-0.25 -0.28,-0.25 -0.02,0.06 0,0.03 -0.07,0.05 -0,0 -0.09,0.01 -0.1,0.01 -0.06,0.01 -0.62,0.17 -0.67,0.21 -0.09,0.07 -0.12,0.15 -0.08,0.26l0.05 0.24z"/>
   <path class="fil2" d="M6.88 10.64l0.21 0.68c0.11,0.23 0.29,0.08 0.41,0.05 0.19,-0.05 0.13,-0.06 0.27,-0.06 0.02,0.06 0.06,0.07 0.07,0.2 -0.06,0 -0.06,0.01 -0.11,0.02 -0.07,-0.05 -0.04,0.01 -0.04,-0.09 -0.12,0 -0.31,0.1 -0.53,0.16 0.02,0.08 0.02,0.03 0.04,0.11 0.02,0.05 0.02,0.09 0.04,0.14 0.14,0.35 0.32,0.09 0.42,0.04 0.08,-0.04 0.18,-0.04 0.26,-0.07 0.07,-0.02 0.02,-0.02 0.12,-0.04 0.05,-0.01 0.38,-0.09 0.38,-0.13 0,-0.08 -0.02,-0.15 -0.03,-0.23l-0.13 -0.42c-0.04,-0.13 -0.04,-0.1 -0.1,-0.19 -0.08,0.01 -0.07,0.01 -0.16,0.02 -0.2,0.02 -0.49,0.19 -0.49,0.02l0 -0.13c0.11,0 0.11,0.02 0.16,0.09l0.38 -0.13c0.07,-0.02 0.11,0.01 0.11,-0.07 0,-0.07 -0.01,-0.02 -0.04,-0.11 -0.08,-0.24 -0.06,-0.29 -0.33,-0.29l-0.37 0.12c-0.06,0.01 -0.11,0.02 -0.15,0.03 -0.08,0.02 -0.05,0.02 -0.11,0.04 -0.1,0.04 -0.26,0.09 -0.26,0.25z"/>
   <path class="fil2" d="M5.95 11.82c0.11,0 0.37,-0.09 0.49,-0.13 0.06,0.09 0.14,0.16 0.02,0.24 -0.11,-0.08 0.04,-0.15 -0.42,0 -0.1,0.03 -0.03,0.04 -0.16,0.04 0,0.31 -0.01,0 0.06,0.28 0.05,0.21 0.15,0.1 0.25,0.08l0.55 -0.16c0.05,-0.01 0.1,-0.01 0.15,-0.03l0.19 -0.08c0.03,-0.02 0.07,0.01 0.04,-0.13l-0.05 -0.17c-0.01,-0.02 -0.01,-0.04 -0.02,-0.07l-0.04 -0.12c-0.04,-0.1 -0.03,-0.21 -0.09,-0.29 -0,-0.01 -0.04,-0.04 -0.04,-0.05 -0.18,-0.15 -0.43,0.11 -0.69,0.05l0 -0.18c0.21,0 0.05,0.05 0.19,0.04 0.01,-0 0.14,-0.03 0.16,-0.04l0.29 -0.09c-0.02,-0.1 -0.03,-0.18 -0.07,-0.26 -0.15,-0.3 -0.2,-0.17 -0.42,-0.11 -0.05,0.01 -0.07,0.01 -0.12,0.03 -0.06,0.02 -0.01,0.01 -0.06,0.02 -0.16,0.05 -0.31,0.06 -0.46,0.14l-0.03 0.02c-0.16,0.11 -0.03,0.36 0.03,0.6 0.04,0.16 0.09,0.36 0.24,0.36z"/>
   <path class="fil2" d="M9.59 11.48c0,0.27 0.02,-0 0.05,0.26 0.01,0.08 0.01,0.13 0.02,0.22 0,0.04 0.02,0.17 0.03,0.21 0.03,0.09 0.03,0.01 0.03,0.21l-0.04 0c-0.01,-0.09 -0.06,-0.16 -0.08,-0.23l-0.22 -0.49c-0.09,-0.23 -0.13,-0.14 -0.24,-0.11 -0.04,0.01 -0.09,0.02 -0.13,0.03 -0.17,0.04 -0.08,0.06 -0.22,0.07 0.02,0.09 0.04,0.11 0.08,0.19l0.18 0.38c0.14,0.28 0.26,0.58 0.42,0.85 0.03,0.06 0.03,0.04 0.04,0.12 0.16,-0 0.19,-0.05 0.3,-0.08l0.5 -0.15c0,-0.09 -0.02,-0.11 -0.02,-0.2 -0,-0.04 0,-0.07 -0,-0.11 -0.01,-0.09 -0.02,-0.03 -0.03,-0.1 -0.03,-0.12 -0.02,-0.31 -0.04,-0.45 -0.01,-0.07 -0,-0.13 -0.02,-0.2 -0.05,-0.17 -0.03,-0.22 -0.05,-0.43 -0.02,-0.13 -0.04,-0.03 -0.04,-0.2l-0.26 0.08c-0.12,0.03 -0.23,0.05 -0.23,0.12z"/>
   <path class="fil2" d="M15.83 7.82l0 0.38 -0.07 0c0,-0.11 -0.02,-0.2 -0.06,-0.29l-0.03 -0.04c-0.12,0 -0.15,0.03 -0.23,0.06 -0.09,0.03 -0.15,0.03 -0.24,0.07 -0,0.15 0,0.15 0.05,0.26 0.02,0.05 0.02,0.06 0.03,0.12l0.27 0.91c0,0.01 0,0.01 0.01,0.02 0,0.01 0,0.01 0.01,0.02l0.01 0.03c0.02,0.06 0,0.08 0.05,0.11 0.06,0.04 0.31,-0.04 0.37,-0.06 0.18,-0.06 0.14,0.04 0.05,-0.33 0.14,0.04 0.1,0.18 0.27,0.29l0.07 -0.04c0.37,-0.22 0.19,-0.07 0.39,-0.16 -0.01,-0.1 -0.06,-0.11 -0.12,-0.17 -0.08,-0.08 -0.07,-0.11 -0.16,-0.2l-0.26 -0.3c0.07,-0.26 0.03,-0.06 0.07,-0.42 0.01,-0.05 0.02,-0.15 0.03,-0.21 0.02,-0.05 0.02,0.02 0.03,-0.1 0,-0.04 -0,-0.1 -0,-0.13 -0.11,0.07 -0.14,0.05 -0.27,0.08l-0.28 0.09z"/>
   <path class="fil2" d="M16.54 7.68c0,0.63 0.13,0.39 0.38,0.34 0.16,-0.03 0.18,-0.03 0.22,-0.18 0.09,0.01 0.13,0.01 0.13,0.2 -0.15,0 -0.04,0.03 -0.26,0.08 -0.05,0.01 -0.08,0.01 -0.12,0.03 -0.23,0.09 -0.2,0.17 -0.18,0.3l0.07 0.29 0.39 -0.12c0.05,-0.02 0.12,-0.01 0.12,-0.06 0,-0.07 -0.06,-0.17 0.06,-0.15 0.1,0.02 0.15,0.23 0.18,0.31 0,0 0,0.01 0.01,0.02l0.01 0.03c0.04,0.11 0.01,0.12 0.08,0.21 0.19,-0.02 0.03,-0.16 0.42,-0.16 0.02,-0.08 0.02,-0.1 -0.01,-0.19l-0.18 -0.58c-0.03,-0.07 -0.04,-0.14 -0.05,-0.19l-0.12 -0.37c-0.07,-0.15 -0.08,-0.04 -0.11,-0.16 -0.05,0 -0.1,-0 -0.15,0.01l-0.69 0.2c-0.09,0.02 -0.21,0.05 -0.21,0.15z"/>
   <path class="fil1" d="M6.93 8.37c-0.04,-0.08 0,-0.1 0.02,-0.18 0.05,-0.2 0.08,-0.78 -0.31,-0.78 -0.1,0 0,-0 -0.05,0.02 -0.16,0.07 -0.14,0.09 -0.2,0.2 -0.04,0.06 -0.03,0.05 -0.06,0.11 -0.02,0.04 0,-0 -0.02,0.04l-0.16 0.25c-0.05,0.07 -0.03,0.03 -0.04,0.14 0.12,0.03 0.02,0.01 0.16,0.17 0.12,0.13 0.33,0.58 0.39,0.65l1.3 -1.77c-0.11,-0.09 0.08,-0.08 -0.46,-0.08 -0.01,0 -0.18,0.02 -0.2,0.02 -0.22,0.04 -0.18,0.34 -0.18,0.49 0,0.16 -0,0.28 -0.03,0.42 -0.02,0.1 -0.06,0.26 -0.17,0.29z"/>
   <path class="fil2" d="M4.53 11.19c0.05,0.07 0.12,0.34 0.14,0.46l0.05 0.15c0.02,0.05 0.03,0.11 0.04,0.16l0.04 0.14c0.04,0.1 0.02,0.11 0.05,0.19 0,0.01 0,0.01 0.01,0.02 0,0 0,0.01 0.01,0.02l0.09 0.31c0,0.01 0,0.01 0.01,0.02 0.02,0.07 0.01,0.13 0.1,0.1l0.03 -0.01c0.14,-0.04 0.2,-0.04 0.32,-0.09l0.32 -0.1c0.05,-0.01 0.03,0 0.07,-0.02 0.02,-0.01 0.06,-0.01 0.06,-0.08 -0,-0.11 -0.06,-0.19 -0.09,-0.33l-0.23 0.06c-0.08,0.04 0.02,0.03 -0.08,0.03 -0.1,0 -0.09,-0.11 -0.11,-0.2 0.03,-0.01 0.24,-0.05 0.36,-0.11 -0.02,-0.1 -0.05,-0.1 -0.07,-0.2 -0.08,-0.34 -0.12,-0.12 -0.42,-0.09 -0.03,-0.11 -0.04,-0.02 -0.04,-0.2 0.13,-0.01 -0,-0 0.12,-0.04 0.13,-0.04 0.13,-0 0.24,-0.07 -0.01,-0.13 0,-0.01 -0.03,-0.1 -0.01,-0.03 -0.03,-0.08 -0.03,-0.1 -0.03,-0.11 -0.02,-0.12 -0.07,-0.2 -0.07,0.02 -0.03,0.02 -0.09,0.04l-0.35 0.1c-0.09,0.03 -0.1,0.05 -0.21,0.08 -0.25,0.05 -0.11,0.04 -0.21,0.08z"/>
   <path class="fil2" d="M13.96 10.24l0.28 0.96c0.01,0.04 0.01,0.06 0.02,0.09 0.02,0.06 0.02,0.06 0.04,0.1 0.07,0.19 0.03,0.36 0.15,0.36 0.02,0 0.39,-0.13 0.47,-0.13l-0.18 -0.73c0.09,-0.01 0.09,-0.02 0.16,-0.04l0.21 -0.06c0,-0 0.01,-0 0.02,-0.01 0.07,-0.03 -0.07,-0.01 0.07,-0.02 -0.01,-0.12 -0.02,-0.02 -0.06,-0.21 -0.02,-0.09 -0,-0.04 -0.03,-0.1 -0.02,-0.04 -0.03,-0.04 -0.04,-0.09l-0.09 0c-0.03,0.06 -0.18,0.09 -0.26,0.11 -0.05,0.01 -0.06,0.01 -0.11,0.02 0.01,-0.23 0.17,-0.08 0.44,-0.27 -0.01,-0.12 -0,-0.02 -0.03,-0.09 -0.01,-0.02 -0.02,-0.04 -0.03,-0.08l-0.06 -0.19c-0.09,0 -0.07,-0.01 -0.14,0.02l-0.65 0.2c-0.05,0.03 -0.05,0.02 -0.09,0.07 -0.07,0.08 -0.03,0.07 -0.08,0.09z"/>
   <path class="fil0" d="M13.39 3.55c0,0.19 0,0.4 0.11,0.57 0.35,0.05 0.2,-0.03 0.49,-0.03 0.11,-0 0.14,-0.02 0.27,-0.02 0.2,0 0.36,-0.02 0.56,-0.02 0.04,-0.17 0.07,0.01 0.07,-0.29 0,-0.06 -0.12,-0.29 -0.17,-0.34 -0.21,-0.22 -0.84,-0.16 -0.99,-0.11 -0.05,0.02 0.04,0.01 -0.08,0.03 -0.16,0.03 -0.24,0.01 -0.24,0.22z"/>
   <path class="fil2" d="M13.23 8.6c0.01,0.09 0.02,0.1 0.05,0.17l0.03 0.08c0,0.02 0.01,0.04 0.01,0.06l0.34 1.1c0,0.01 0,0.01 0.01,0.02l0.14 0.51c0.03,0.1 0.03,0.05 0.05,0.13l0.09 0c0,-0.11 -0.01,-0.23 -0.04,-0.32 -0.02,-0.05 -0.04,-0.09 -0.02,-0.16 0.01,-0.06 0.06,-0.11 0.12,-0.15l0.19 -0.1 -0.18 -0.67c-0.02,-0.07 -0.02,-0.04 -0.04,-0.09l-0.11 -0.38c-0.15,-0.5 -0.08,-0.35 -0.4,-0.28 -0.08,0.02 -0.1,0.01 -0.17,0.05 -0.04,0.02 -0.02,0.02 -0.06,0.03z"/>
   <path class="fil2" d="M12.59 8.8l0.25 0.88c0.01,0.07 0,0.1 0.04,0.14 0.06,0.06 0.09,0.02 0.13,-0.02l0.1 0.28c0.05,0.16 0.03,0.32 0.23,0.22 0.34,-0.18 0.18,-0.14 0.05,-0.7l-0.07 -0.22c-0.02,-0.05 -0.01,-0.07 -0.03,-0.13l-0.11 -0.35c-0.01,-0.04 -0.02,-0.09 -0.03,-0.13 -0.02,-0.07 -0.02,-0.05 -0.03,-0.13 -0.14,0 -0.41,0.07 -0.53,0.16z"/>
   <path class="fil1" d="M14.74 6.49l0 0.24c0,0.11 0,-0.06 0.06,0.16 0.07,0.28 0.39,0.36 0.53,0.31 0,-0 0.01,-0 0.01,-0.01 0,-0 0.01,-0.01 0.01,-0.01 0.14,-0.08 0.24,-0.26 0.28,-0.41 0,-0.01 0,-0.01 0.01,-0.02l0.02 -0.05c0.01,-0.05 0.01,-0.11 0.01,-0.17 -0,-0.22 0.01,-0.17 -0.07,-0.31 -0.04,-0.08 -0.11,-0.16 -0.2,-0.15 -0.07,0.01 -0.02,0.24 -0.01,0.29 0.02,0.08 0.04,-0 0.01,0.12 -0.02,0.06 -0.02,0.11 -0.04,0.16 -0.03,0.09 -0.14,0.17 -0.27,0.17 -0.09,0 -0.07,-0.07 -0.07,-0.16 0.03,-0.01 0.09,-0.02 0.12,-0.04 0.09,-0.04 0.01,-0.04 0.12,-0.05 0.01,-0.17 0.1,-0.56 -0.16,-0.56 -0.17,0 -0.29,0.23 -0.34,0.37 -0.04,0.08 -0.03,-0.02 -0.03,0.08z"/>
   <path class="fil2" d="M11.95 9c0.01,0.11 0.05,0.17 0.08,0.3 0.01,0.06 0.02,0.09 0.03,0.15l0.22 0.74c0.1,-0 0.12,-0.02 0.2,-0.07l0.17 -0.1c0.08,-0.04 0.06,-0.04 0.12,-0.08l-0.1 -0.41c-0.03,-0.13 -0.03,-0.05 -0.08,-0.27l-0.09 -0.31c-0.03,-0.11 -0.02,0.03 -0.03,-0.1 -0.09,0 -0.06,-0 -0.13,0.02 -0.22,0.08 -0.24,0.02 -0.37,0.13z"/>
   <path class="fil2" d="M19 8.64c0,0.07 0.01,0.09 0.03,0.15l0.17 0.54c0.09,0.23 -0,0.13 0.14,0.4l0.29 -0.08c0.01,-0 0.07,-0.02 0.07,-0.02 0.08,-0.02 0.06,-0 0.12,-0.03l-0.05 -0.27c-0,-0.01 -0,-0.01 -0.01,-0.02l-0.01 -0.03c-0.06,-0.12 -0.02,-0.11 -0.07,-0.24 -0,-0 -0,-0.01 -0.01,-0.02 -0,-0.01 -0.01,-0.04 -0.02,-0.05l-0.11 -0.4c-0.04,-0.11 -0.09,-0.1 -0.25,-0.04l-0.3 0.1z"/>
   <path class="fil1" d="M7.77 6.29l0 0.56 1.01 -0.01c0.03,-0.16 0.01,-0.34 0.01,-0.5 0,-0.05 -0.02,-0.07 -0.07,-0.07 -0.16,0 -0.84,-0.02 -0.95,0.02z"/>
   <path class="fil1" d="M6.7 6.29c-0.07,0.28 -0.07,0.02 -0.07,0.51 0,0.05 0.02,0.07 0.07,0.07 0.39,0 0.53,0.01 0.91,-0.03 0.03,-0.08 0.05,-0.03 0.05,-0.13 0,-0.59 0,-0.42 -0.55,-0.42 -0.13,-0 -0.27,0 -0.4,0z"/>
   <path class="fil1" d="M8.93 6.37l0.01 0.47 0.78 0c0.25,0 0.2,0.07 0.2,-0.58l-0.98 0 -0.01 0.11z"/>
   <path class="fil1" d="M5.68 9.2c0,0.18 0.11,0.37 0.24,0.5 0.07,0.07 0.06,0.06 0.19,0.06 0.06,-0.14 0.24,-0.02 0.24,-0.36 -0.17,0.01 0.03,0.04 -0.22,0.04 -0.12,0 -0.27,-0.29 -0.11,-0.29 0.05,0 0.08,0.05 0.14,0.09 0.07,0.04 0.1,0.05 0.18,0.05 0.01,-0.08 0.03,-0.1 0.07,-0.16 -0.05,-0.07 -0.02,-0.02 -0.05,-0.11 -0.09,-0.26 -0.4,-0.27 -0.54,-0.11 -0.1,0.11 -0.12,0.11 -0.12,0.28z"/>
   <path class="fil1" d="M15.78 4.04c0.3,0 0.04,-0.07 0.62,-0.07 -0,-0.08 -0,-0.09 -0.05,-0.13l-0.13 -0.07c-0,-0 -0.01,-0.01 -0.01,-0.01l-0.23 -0.12c-0.06,-0.03 -0.06,-0.04 -0.11,-0.07l-0.13 -0.07c-0.11,-0.05 -0.15,-0.1 -0.29,-0.11l0.11 0.37c0.02,0.04 0.07,0.27 0.22,0.27z"/>
   <path class="fil2" d="M19.38 9.84c0,0.11 0.02,0.22 0.06,0.32 0.04,0.11 -0.03,-0.08 0.01,0.03 0.01,0.02 0.01,0 0.02,0.05 0.13,0 0.07,-0.01 0.18,-0.04 0.01,-0 0.06,-0.01 0.07,-0.02 0.16,-0.03 0.19,-0.07 0.26,-0.07 -0,-0.08 -0.02,-0.15 -0.04,-0.21 -0,-0.01 -0.01,-0.03 -0.01,-0.04 -0,-0.01 -0,-0.01 -0.01,-0.02 -0.03,-0.09 -0.03,-0.03 -0.04,-0.14 -0.19,0 -0.02,0.01 -0.28,0.07l-0.23 0.06z"/>
   <path class="fil2" d="M12.3 10.39c0,0.2 0.17,0.05 0.33,-0 0.07,-0.02 0.04,-0.01 0.09,-0.04l0.29 -0.11c-0,-0.1 -0.04,-0.15 -0.04,-0.24 -0.15,0 -0.11,0.01 -0.2,0.07l-0.17 0.1c-0.07,0.04 -0.3,0.14 -0.3,0.23z"/>
   <path class="fil0" d="M15.96 10.88c0.09,-0.07 0.05,-0.21 0,-0.34 -0.05,-0.13 -0.02,-0.13 -0.11,-0.34 -0.05,-0.14 0,-0.19 -0.16,-0.19 -0.04,0.16 0,0.19 0.05,0.33l0.07 0.24c0.04,0.11 0.06,0.23 0.15,0.3z"/>
   <path class="fil0" d="M18.4 7.55c0,0.11 0.01,-0.05 0.06,0.16l0.14 0.46c0.01,0.04 0.02,0.07 0.03,0.1l0.13 -0.03c0,-0.1 -0.14,-0.53 -0.18,-0.68 -0,-0 -0.01,-0.05 -0.01,-0.05 -0.03,-0.07 0.03,-0.07 -0.16,-0.07l0 0.09z"/>
   <path class="fil0" d="M17.21 10.48c0.17,0 0.19,0.05 0.06,-0.37l-0.12 -0.35c-0.01,-0.04 -0.03,-0.11 -0.03,-0.15 -0.14,0.01 -0.13,0.05 -0.08,0.28 0.02,0.09 0.02,0.06 0.04,0.11l0.1 0.35c0.01,0.04 0.02,0.09 0.02,0.13z"/>
   <path class="fil0" d="M8.39 13.1c0.22,-0 0.11,-0.11 0.07,-0.29 -0.03,-0.11 -0.04,-0.08 -0.07,-0.22 -0.02,-0.08 -0.08,-0.39 -0.18,-0.33 -0.04,0.02 -0.04,0.03 -0.04,0.09 0.01,0.09 0.01,0.02 0.02,0.06l0.01 0.03c0.03,0.07 0.03,0.15 0.06,0.23 0.03,0.08 0.12,0.35 0.12,0.43z"/>
   <path class="fil1" d="M5.08 9.37c0.14,0.03 0.21,0.16 0.32,0.14 -0.02,-0.09 -0.03,-0.62 -0.06,-0.64 -0.07,0.04 -0.16,0.26 -0.21,0.36l-0.06 0.14z"/>
   <path class="fil2" d="M13.39 10.39c0,0.08 0.02,0.36 0.13,0.36 0.17,0 0.23,0.02 0.14,-0.25l-0.02 -0.05c-0.02,-0.06 0,-0.12 -0.05,-0.12 -0.1,0 -0.12,0.05 -0.2,0.07z"/>
   <path class="fil1" d="M5.77 8.08c0.12,0 0.14,-0.02 0.19,-0.09l0.2 -0.38c0.04,-0.09 0.05,-0.12 -0.02,-0.17 -0.09,0.05 -0.16,0.19 -0.21,0.3 -0.04,0.07 -0.16,0.29 -0.16,0.35z"/>
   <path class="fil0" d="M11.12 12.33c0.03,0 0.04,-0.03 0.04,-0.07 0,-0.1 -0.01,-0.24 -0.11,-0.24 -0.1,0 -0.06,0.31 0.07,0.31z"/>
   <path class="fil0" d="M18.47 9.88l0.07 0.2c0.05,0 0.13,-0.01 0.13,-0.07 0,-0.01 -0.06,-0.22 -0.11,-0.22 -0.05,0 -0.09,0.04 -0.09,0.09z"/>
   <path class="fil0" d="M8.95 10.93c0,0.06 0,0.11 0.02,0.14 0.03,0.1 0.14,0.13 0.14,-0.01 0,-0.24 -0.16,-0.24 -0.16,-0.13z"/>
   <path class="fil0" d="M20.05 7.88c0,-0.36 -0.23,-0.33 -0.16,-0.11 0.04,0.12 0.07,0.11 0.16,0.11z"/>
   <path class="fil0" d="M14.52 8.66c0,0.01 0.05,0.18 0.09,0.18 0.06,0 0.06,-0.01 0.11,-0.02l-0.07 -0.22c-0.06,0 -0.13,0.01 -0.13,0.07z"/>
   <path class="fil0" d="M12.7 10.95l0.07 0.2c0.23,0 0.09,-0.02 0.07,-0.24l-0.09 0c-0.02,0.06 0.04,0.04 -0.04,0.04z"/>
   <polygon class="fil3" points="7.99,5.95 7.97,5.91 7.79,5.91 7.82,5.95 "/>
   <path class="fil1" d="M15.43 11.7c-0.01,-0.09 -0.01,-0.09 -0.09,-0.11 0,0.11 -0.02,0.1 0.09,0.11z"/>
  </g>
 </g>
</svg>
