<?xml version="1.0" encoding="UTF-8"?>
<!DOCTYPE svg PUBLIC "-//W3C//DTD SVG 1.1//EN" "http://www.w3.org/Graphics/SVG/1.1/DTD/svg11.dtd">
<!-- Creator: CorelDRAW -->
<svg xmlns="http://www.w3.org/2000/svg" xml:space="preserve" width="28.4571mm" height="25.5141mm" version="1.1" style="shape-rendering:geometricPrecision; text-rendering:geometricPrecision; image-rendering:optimizeQuality; fill-rule:evenodd; clip-rule:evenodd"
viewBox="0 0 12.94 11.6"
 xmlns:xlink="http://www.w3.org/1999/xlink"
 xmlns:xodm="http://www.corel.com/coreldraw/odm/2003">
 <defs>
  <style type="text/css">
   <![CDATA[
    .fil0 {fill:black}
    .fil1 {fill:yellow}
    .fil2 {fill:white}
   ]]>
  </style>
 </defs>
 <g id="Camada_x0020_1">
  <metadata id="CorelCorpID_0Corel-Layer"/>
  <g id="_2598156058912">
   <path class="fil0" d="M12.94 7.55l0 -0.21 -0.05 -0.35 -0.01 -0.02c-0.01,-0.03 -0.01,-0.05 -0.02,-0.08l-0.14 -0.31c-0.05,-0.09 -0.14,-0.21 -0.22,-0.29l-0.16 -0.15c-0.2,-0.15 -0.45,-0.18 -0.69,-0.12 -0.07,0.02 -0.09,0.05 -0.15,0.08 -0.02,0.01 -0.04,0.02 -0.06,0.04 -0.05,0.04 -0.05,0.08 -0.1,0.13l-0.06 0.06c-0.04,0.06 -0.03,0.08 -0.1,0.12 -0.12,-0.03 -0.08,-0.09 -0.36,-0.09 0,-0.06 0.01,-0.09 0.04,-0.13l0.19 -0.35c0.02,-0.04 0.01,-0.04 0.04,-0.08 0.02,-0.03 0.02,-0.03 0.05,-0.07l0.7 -1.3 0.03 -0.12c0.03,-0.16 0.09,-0.33 0.02,-0.54 -0.01,-0.03 -0.02,-0.08 -0.02,-0.1 -0.02,-0.09 -0.07,-0.22 -0.12,-0.3l-0.03 -0.04c-0.09,-0.12 -0.2,-0.3 -0.33,-0.37l-0.23 -0.13c-0.05,-0.02 -0.04,-0.02 -0.08,-0.04l-0.32 -0.15c-0.05,-0.02 -0.11,-0.06 -0.16,-0.08l-0.71 -0.32c-0.02,-0.01 -0.03,-0.01 -0.05,-0.02 -0.05,-0.02 -0.03,-0.02 -0.08,-0.04 -0.04,-0.02 -0.06,-0.02 -0.09,-0.03l-0.08 -0.04c-0.03,-0.01 -0.04,-0.02 -0.07,-0.03 -0.13,-0.06 -0.29,-0.12 -0.42,-0.19 -0.05,-0.03 -0.12,-0.05 -0.17,-0.07l-0.49 -0.23c-0.05,-0.03 -0.02,-0.01 -0.09,-0.04l-1.24 -0.57c-0.05,-0.02 -0.11,-0.04 -0.17,-0.07l-1.52 -0.69c-0.06,-0.02 -0.01,-0 -0.05,-0.02 -0.14,-0.07 -0.3,-0.14 -0.46,-0.15 -0.11,-0.01 -0.19,-0.06 -0.32,-0.03 -0.06,0.02 -0.01,0.02 -0.09,0.03 -0.03,0 -0.07,0.01 -0.11,0.01 -0.13,0.02 -0.32,0.09 -0.44,0.16 -0.2,0.11 -0.26,0.15 -0.42,0.31 -0.14,0.14 -0.23,0.33 -0.34,0.5 -0.02,0.03 -0.02,0.04 -0.04,0.08l-0.21 0.38 -0.13 0.23c-0.03,0.04 -0.02,0.03 -0.05,0.07l-0.35 0.61c-0.03,0.05 -0.02,0.03 -0.04,0.08l-0.56 1c-0.02,0.04 -0.03,0.05 -0.04,0.08 -0.02,0.04 -0.01,0.04 -0.04,0.07l-0.09 0.15c-0.1,0.14 -0.22,0.39 -0.3,0.52 -0,0 -0.01,0.01 -0.01,0.01l-0.48 0.84 -0.43 0.74 -0.06 0.11c-0.11,0.16 -0.26,0.45 -0.32,0.64 -0.06,0.19 -0.08,0.63 0.02,0.84l0.01 0.02c0.05,0.14 0.13,0.26 0.21,0.38 0.07,0.1 0.17,0.16 0.26,0.23l0.11 0.07 0.29 0.15 0.78 0.35c0.19,0.09 0.55,0.28 0.72,0.33 -0.03,0.09 -0.07,0.06 -0.17,0.09l-0.4 0.14c-0.19,0.09 -0.17,0.02 -0.43,0.19 -0.1,0.06 -0.16,0.15 -0.23,0.24 -0.05,0.07 -0.07,0.13 -0.09,0.23 -0.01,0.05 -0,0.08 -0.01,0.13 -0.06,0.24 -0.03,0.18 0,0.36 0.02,0.09 0.01,0.16 0.04,0.24 0.02,0.06 0.02,0.03 0.04,0.1 0.05,0.17 0.14,0.32 0.24,0.46l0.12 0.16c0.05,0.05 0.03,0.03 0.08,0.06 0.04,0.03 0.07,0.06 0.12,0.09l0.09 0.06c0.14,0.09 0.34,0.09 0.51,0.06l0.53 -0.16c0.05,-0.01 0.07,-0.01 0.11,-0.03l0.84 -0.28c0.03,-0.01 0.08,-0.02 0.11,-0.03 0.06,-0.02 0.03,-0.02 0.1,-0.04l0.84 -0.27c0.2,-0.08 0.41,-0.13 0.62,-0.2 0.3,-0.11 0.39,-0 0.65,0.1 0.04,0.02 0.06,0.03 0.09,0.05l0.23 0.1c0.31,0.14 0.39,0.18 0.74,0.18 0.23,0 0.48,-0.04 0.69,-0.15l0.34 -0.22c0.09,-0.06 0.17,-0.17 0.23,-0.26 0.08,-0.11 0.15,-0.22 0.22,-0.34l0.17 -0.31c0.1,-0.16 0.14,-0.3 0.34,-0.36l0.27 -0.08 0.45 -0.15 0.35 -0.1c0.04,-0.02 0.06,-0.03 0.1,-0.04l0.52 -0.17c0.1,-0.04 0.12,-0.02 0.2,-0.07 -0,-0.14 -0.05,-0.26 -0.09,-0.38l-0.05 -0.17c-0.03,-0.1 -0.05,-0.09 -0.05,-0.2 0.16,0 0.14,0.08 0.24,0.4l0.1 0.3c0.08,-0 0.67,-0.19 0.75,-0.24 -0.03,-0.1 -0.05,-0.01 -0.05,-0.14 0.23,0.06 0.32,0.15 0.65,-0.05 0.23,-0.14 0.36,-0.46 0.36,-0.72z"/>
   <path class="fil1" d="M5.55 7.47c0.02,0.08 0.11,0.33 0.11,0.39l-0.39 0.12 -0.36 0.12c-0.04,0.02 -0.08,0.02 -0.12,0.03 -0.13,0.04 -0.04,0.04 -0.11,0.04 -0.2,0 -0.12,-0 -0.21,-0.14 -0.05,-0.08 -0.03,-0.08 -0.06,-0.17 -0.06,-0.15 -0.1,-0.23 -0.1,-0.4 0,-0.13 0.5,-0.25 0.61,-0.28 -0,-0.11 -0.04,-0.08 -0.07,-0.17 0.13,-0.07 0.06,-0.04 0.2,-0.08 0.15,-0.04 0.23,-0.14 0.32,0.02l0.03 0.04 0.08 0.2c0.02,0.05 0.02,0.09 0.04,0.14l0.04 0.13zm0.11 -0.34c0,-0.11 0.05,-0.14 0.12,-0.19 0.03,-0.02 0.06,-0.04 0.09,-0.07 0.1,-0.08 0.32,-0.12 0.45,-0.14 0.1,-0.01 0.05,-0.03 0.11,-0.03 0.1,0 0.25,0.02 0.33,0.09 0.03,0.03 0.09,0.15 0.09,0.22 -0.11,0.07 -0.09,0.04 -0.22,0.09 -0.49,0.19 -0.42,0.01 -0.33,0.38 0.19,0 0.14,-0.08 0.12,-0.24l0.13 -0.05c0.04,-0.01 0.08,-0.02 0.12,-0.04 0.15,-0.06 0.15,-0.04 0.24,-0.04 0.01,0.07 0.02,0.04 0.02,0.1 0,0.18 -0.22,0.29 -0.36,0.36 -0.07,0.03 -0.09,0.03 -0.17,0.05 -0.08,0.02 -0.06,0.03 -0.12,0.04 -0.02,0.01 -0.11,0.02 -0.14,0.02 -0.23,0 -0.33,0.03 -0.39,-0.18 -0.05,-0.17 -0.08,-0.07 -0.08,-0.37zm0.17 -4.42c0.07,-0.02 0.08,-0.05 0.1,-0.11l0.2 -0.51c0.03,-0.09 0.02,-0.14 0.04,-0.22l0.04 -0.11c0.02,-0.05 0,-0.03 0.06,-0.08 0.06,-0.06 0.08,-0.05 0.18,-0.05 0,0.16 -0.01,0.06 -0.03,0.17 -0.07,0.33 -0.07,0.3 -0.07,0.68 0,0.13 0.11,0 0.13,-0.04l0.09 -0.17c0.03,-0.07 0.02,-0.1 0.07,-0.2 0.06,-0.14 0.06,-0.14 0.1,-0.16 0.03,0.05 0.02,0.01 0.02,0.16 0,0.01 -0.13,0.48 -0.33,0.59 -0.07,0.04 -0.05,0.04 -0.08,0.04 -0.08,0 -0.2,0.02 -0.21,-0.12 -0.15,0.01 -0.05,0.16 -0.26,0.26 -0.02,0.01 -0.03,0.01 -0.06,0.03 -0,0 -0.07,0.08 -0.19,-0.04 -0.02,-0.02 -0.05,-0.07 -0.06,-0.09 -0.04,-0.08 -0,-0.08 -0.04,-0.12 -0.03,-0.04 -0.06,-0.04 -0.1,-0.01 -0.04,0.04 -0.13,0.27 -0.17,0.32l-0.17 0.16c-0.02,0.01 -0.01,0.01 -0.03,0.02 -0.09,0.07 -0.05,0.05 -0.2,0.07 -0.16,0.01 -0.19,0.04 -0.27,-0.13 -0.03,-0.07 -0.03,-0.03 -0.05,-0.11 -0.02,-0.09 -0.02,-0.33 0,-0.42l0.13 -0.3c0.09,-0.14 0.33,-0.22 0.36,-0.22 0.13,0 0.27,-0.02 0.35,0.12 0.01,0.02 0.02,0.03 0.03,0.06 0.02,0.06 -0,0.12 0.01,0.18 0.02,0.08 0.03,0.04 0.03,0.16 0.11,-0.03 0.07,-0.12 0.1,-0.23 0.04,-0.14 0.04,-0.22 0.08,-0.31 0.04,-0.1 0.03,-0.13 0.13,-0.2 0.17,-0.11 0.16,0.04 0.12,0.17l-0.06 0.29c-0,0.04 0,0.04 -0.01,0.08 -0.01,0.05 -0.03,0 -0.03,0.06l0 0.26c0,0.06 0.02,0.01 0.03,0.09zm-2.78 0.09c0,-0.04 0.03,-0.09 0.04,-0.13 0.05,-0.14 0.03,-0.06 0.08,-0.16 0.06,-0.11 0.3,-0.44 0.38,-0.49 0.23,-0.18 0.24,-0.26 0.53,-0.37l0.11 -0.05c0.04,-0.01 0.03,-0 0.06,-0.01 0.18,-0.02 0.03,-0.04 0.12,-0.04 0.07,0 -0.01,-0 0.06,0.02 0.21,0.08 0.13,0.26 0.13,0.31 -0,0.03 -0,0.03 -0.01,0.06l-0.04 0.1c-0,0 -0.03,0.06 -0.09,0.1 -0.06,0.04 -0.15,0.08 -0.22,0.08 -0.01,-0.07 0.06,-0.14 0.09,-0.2 0.02,-0.03 0.15,-0.27 0.02,-0.27 -0.04,0 -0.23,0.1 -0.28,0.13 -0.17,0.12 -0.37,0.26 -0.48,0.44 -0.05,0.08 -0.09,0.12 -0.13,0.2 -0.03,0.06 -0.07,0.13 -0.09,0.19 -0.02,0.06 -0.04,0.16 -0.04,0.24 0,0.1 0.08,0.09 0.16,0.08 0.17,-0.03 0.18,-0.06 0.41,-0.08 0.04,-0 0.08,0 0.12,-0 0.09,-0.01 0.04,-0.03 0.09,-0.03 0.09,0 -0.01,0 0.07,0.02 0.14,0.03 0.29,0.02 0.29,0.28 0,0.22 -0.38,0.48 -0.56,0.57 -0.17,0.08 -0.56,0.09 -0.62,-0.04 0.04,-0.02 0.27,-0.04 0.47,-0.14 0.06,-0.03 0.07,-0.02 0.13,-0.07 0.14,-0.09 0.36,-0.25 0.38,-0.42 -0.06,-0.03 -0.1,-0.03 -0.16,-0.02 -0.13,0.02 -0.13,0.05 -0.34,0.07 -0.2,0.02 0.04,0.04 -0.31,0.04 -0.16,0 -0.36,-0.22 -0.36,-0.4zm2.92 3.41l0 0.03 -0.05 0 0 -0.03c-0.08,0 -0.11,0.01 -0.17,-0.02 -0.03,-0.01 -0.07,-0.06 -0.09,-0.05 -0.05,0.04 -0.03,0.01 -0.04,0.1l-0.03 0.33c-0.11,0 -0.04,0.01 -0.1,0.02 -0.12,0.04 -0.22,-0.02 -0.32,-0.02 -0.02,0.04 -0.02,0.05 -0.04,0.09 -0.1,0.16 -0.3,0.19 -0.47,0.11l-0.08 -0.04c-0.05,-0.04 0.01,-0.04 -0.08,-0.06 -0.07,0.05 -0.09,0.15 -0.15,0.22 -0.14,0.17 -0.44,0.08 -0.53,0.03 -0.11,-0.07 -0.17,-0.18 -0.23,-0.29 -0.03,-0.06 -0.02,-0.07 -0.04,-0.13 -0.04,-0.14 -0.03,-0.15 -0.05,-0.3 -0.01,-0.11 -0.04,-0.03 -0.03,-0.14l0.04 -0.14c0.02,-0.09 0.11,-0.17 0,-0.23 -0.01,0.1 -0.09,0.2 -0.16,0.27 -0.11,0.11 -0.31,0.16 -0.26,0.35l0.04 0.17c0.02,0.16 0.02,0.39 0.17,0.47 0.07,0.04 0.08,0.03 0.11,0.04l0.1 0.05c0.06,0.03 0.11,0.1 0.15,0.16 0.19,0.35 -0.21,0.5 -0.53,0.33l-0.13 -0.08c-0.03,-0.02 -0.08,-0.08 -0.1,-0.11 -0.02,-0.02 -0.01,-0.01 -0.02,-0.03 -0.01,-0.02 -0.09,-0.11 -0.1,-0.12 -0.05,-0.03 -0.06,-0.02 -0.12,-0.02 -0.07,-0.01 -0.11,-0.02 -0.19,-0.01 -0.21,0 -0.38,-0.04 -0.58,-0.07l-0.17 -0.04c-0.12,-0.02 -0.21,-0.05 -0.31,-0.11 -0.16,-0.09 -0.21,-0.16 -0.29,-0.34 -0.04,-0.09 -0.06,-0.27 -0.02,-0.38 0.01,-0.03 0.01,-0.02 0.03,-0.08 0.04,-0.15 0.13,-0.3 0.21,-0.43 0.12,-0.19 0.26,-0.36 0.42,-0.52 0.09,-0.09 0.09,-0.12 0.21,-0.21 0.11,-0.09 0.21,-0.22 0.33,-0.3l0.24 -0.16 0.27 -0.18 1.05 -0.43c0.11,-0.04 0.3,-0.04 0.41,-0.01l0.21 0.05c0.39,0.12 0.24,0.07 0.37,0.31 0.02,0.04 -0.01,0 0.02,0.04 0.02,-0.13 0.03,-0.13 0.06,-0.25 0.01,-0.06 0.03,-0.07 0.05,-0.11 0.12,-0.26 0.19,-0.25 0.53,-0.25 0.03,-0.04 0.02,-0.02 0.03,-0.07 0.1,0.01 0.12,0.1 0.23,0.15 0.21,0.1 0.41,0.01 0.6,-0.06 0.07,-0.03 0.14,-0.05 0.2,-0.1 0.05,-0.04 0.07,-0.05 0.08,-0.12 -0.03,-0.03 -0.04,-0.04 -0.08,-0.07 -0.05,-0.03 -0.06,-0.03 -0.1,-0.05 -0.21,-0.13 -0.33,-0.39 -0.14,-0.59 0.31,-0.32 0.53,0.17 0.72,0.3l0.05 -0.18c0.01,-0.07 -0,-0.14 0.01,-0.2l0.03 -0.2c-0,-0.29 0.05,-0.48 -0.12,-0.73l-0.09 -0.14c0.13,-0.03 0.14,0.01 0.21,-0.09 -0.02,-0.02 -0.03,-0.02 -0.06,-0.04l-0.65 -0.3c-0.02,-0.01 -0.04,-0.02 -0.06,-0.03l-1.23 -0.56c-0.21,-0.09 -0.38,-0.13 -0.63,-0.09l-0.14 0.04c-0.35,0.11 -0.46,0.29 -0.65,0.58l-0.06 0.09c-0.01,0.03 -0.02,0.04 -0.03,0.06l-0.57 1.01c-0.01,0.03 -0.02,0.03 -0.03,0.06l-1.33 2.32c-0.03,0.04 -0.04,0.07 -0.06,0.11 -0.04,0.06 -0.03,0.04 -0.06,0.11l-0.91 1.59c-0.05,0.08 -0.06,0.13 -0.1,0.22 -0.05,0.13 -0.06,0.34 -0.02,0.46 0.03,0.1 0.06,0.21 0.13,0.29 0.02,0.02 0.13,0.14 0.15,0.16l0.39 0.2 1.85 0.84c0.21,0.08 0.42,-0.03 0.63,-0.08 0.07,-0.02 0.03,-0.01 0.06,-0.02l0.65 -0.22c0.07,-0.02 0.07,-0.02 0.13,-0.04 0.11,-0.05 0.26,-0.06 0.37,-0.11 0.24,-0.1 0.55,-0.17 0.81,-0.27 0.04,-0.02 0.09,-0.02 0.14,-0.04l0.17 -0.05c0.06,-0.02 0.01,-0.02 0.09,-0.03 0.04,0.05 0.02,0.02 0.04,0.1l0.17 0.47c0.03,0.07 0.03,0.12 0.08,0.18 0,-0.15 -0.07,-0.31 -0.12,-0.44 -0,-0.01 -0.01,-0.04 -0.01,-0.04 -0.03,-0.11 -0.07,-0.17 -0.08,-0.29l0.64 -0.23 0.1 -0.03 0 0.11 0.07 0c0.02,-0.08 0.09,-0.13 0.16,-0.17 0.02,-0.01 0.04,-0.03 0.06,-0.04 0.21,-0.12 0.5,-0.06 0.51,-0.15 0,-0.03 -0.01,-0.02 -0.03,-0.07l-0.09 -0.32 -0.09 -0.45c-0.01,-0.07 -0.01,-0.34 -0.01,-0.4 0.01,-0.08 0,-0.14 0,-0.22l0.06 -0.36c0.04,-0.27 0.06,-0.14 0.06,-0.58 0,-0.23 0,-0.32 -0.15,-0.45 -0,-0 -0.01,-0.01 -0.01,-0.01l-0.55 -0.23c-0.04,-0.01 -0.29,0 -0.4,-0.04 -0,-0 -0.01,-0 -0.01,-0 -0.32,-0.11 -0.46,0.07 -0.75,-0.13l-0.1 -0.05c-0.06,-0.02 -0.06,0.05 -0.06,0.14l-0.04 0.49c-0.01,0.1 -0.02,0.02 -0.03,0.14 -0.01,0.07 -0.01,0.11 -0.01,0.16 -0.01,0.11 -0.05,0.18 -0.03,0.28 0.11,0.02 0.32,-0.03 0.4,0.09l0.06 0.11c0.02,0.05 -0,0.01 0.03,0.05 0.04,-0.09 -0.04,-0.34 0.27,-0.52l0.09 -0.03c0.09,-0.02 0.3,-0.02 0.38,0 0.11,0.04 0.07,0.11 0.18,0.11 0.03,-0.12 0.24,-0.26 0.36,-0.15 0.05,0.04 -0.05,-0 0.04,0.03 0,0.2 -0.16,0.43 -0.26,0.59 -0.07,0.11 -0.08,0.24 -0.12,0.37 -0.03,0.1 -0.04,0.17 -0.11,0.24 -0.14,0.15 -0.67,0.13 -0.86,0.13z"/>
   <path class="fil1" d="M7.27 1.64c0.03,0.06 0.06,0.07 0.07,0.14 -0.07,0 -0.06,0.01 -0.1,0.03 0.01,0.09 0.03,0.03 0.04,0.17l0.02 0.28c0.01,0.09 0,0.02 0.02,0.07l0.02 0.09c0.01,0.4 0,0.35 0.22,0.44 0.05,0.02 0.11,0.03 0.11,0.08 0,0.09 -0.05,0.14 -0.05,0.17 0,0.13 0.17,0.19 0.27,0.26 0.39,0.25 0.5,0.26 0.84,0.63l0.27 0.29c0.15,0.15 0.35,0.31 0.47,0.48l0.09 0.15 0.31 0.54c0.02,0.03 0.05,0.06 0.08,0.08 0.21,0.22 0.25,0.04 0.45,0.04 -0.01,0.11 -0.12,0.14 -0.19,0.19 -0.02,0.01 -0.04,0.03 -0.07,0.05l-0.2 0.11c-0.16,0.11 -0.14,0.06 -0.22,-0.14 -0.02,-0.05 -0.03,-0.07 -0.04,-0.1 -0.02,-0.05 -0.01,-0.05 -0.04,-0.1 -0.08,-0.14 -0.1,-0.16 -0.22,-0.25l-0.59 -0.39c-0.13,-0.06 -0.14,-0.06 -0.28,-0.06 -0.19,0 -0.18,0.28 -0.2,0.41 -0.02,0.14 0,0.1 -0.04,0.26 -0.02,0.06 -0.01,0.2 -0.02,0.27l-0.03 0.12c-0.02,0.07 -0,0.08 -0.06,0.1 -0.09,0.03 -0.19,-0.02 -0.22,0.08 -0.02,0.06 -0.01,0.12 -0.03,0.18 -0.03,0.08 -0.01,0.14 -0.01,0.23 -0,0.08 -0.07,0.64 0.09,0.64 0.14,0 0.33,-0.11 0.49,-0.14 0.11,-0.02 0.06,-0.01 0.14,-0.05 0.22,-0.09 0.45,-0.13 0.69,-0.22 0.04,-0.02 0.02,-0.01 0.07,-0.03 0.06,-0.02 0.1,-0.02 0.16,-0.05l0.16 -0.05c0.04,-0.01 0.02,-0.01 0.08,-0.03l0.22 -0.07c0.15,-0.06 0.24,-0.35 0.32,-0.48 0.04,-0.06 0.04,-0.06 0.07,-0.13 0.03,-0.05 0.06,-0.08 0.08,-0.13l0.82 -1.48c0.1,-0.24 0.1,-0.49 -0.02,-0.73 -0.17,-0.32 -0.53,-0.41 -0.83,-0.56l-0.21 -0.1c-0.03,-0.01 -0.05,-0.01 -0.08,-0.03l-2.47 -1.13c-0.09,-0.05 -0.33,-0.17 -0.42,-0.17z"/>
   <path class="fil2" d="M6.65 5.88c-0.04,0.01 -0.05,0.02 -0.1,0.02 -0.03,-0.13 -0.05,-0.11 -0.05,-0.16 0,-0.05 0.12,-0.05 0.16,-0.05l0 0.19zm-0.17 -0.3c0,-0.13 -0.06,-0.45 0.12,-0.47l0.05 0.17c0,0.08 0.03,0.29 -0.17,0.3zm-2 -0.26c0,-0.15 0,-0.3 0,-0.45l0.03 -0.43c0,0.3 0.03,0.13 0.03,0.23 0,0.19 -0.03,0.05 -0.04,0.21l0 0.31c-0,0.08 -0.02,0.08 -0.02,0.14l-0.02 0zm0.7 -0.24c0,-0.33 0.04,-0.32 0.05,-0.52 0.02,-0.19 0.04,-0.17 0.05,-0.23 0.01,-0.04 0,-0.08 0.01,-0.13 0.01,-0.09 -0.01,-0.06 0.04,-0.1 0.05,0.04 0.04,0.07 0,0.19 -0.05,0.14 -0.02,0.29 -0.06,0.43l-0.1 0.35zm0.1 0.8c0,-0.2 -0,-0.33 0.03,-0.49l0.07 -0.32c0.04,-0.18 0.03,-0.18 0.05,-0.33 0.01,-0.08 0.02,-0.01 0.03,-0.11 0,-0.04 0,-0.07 0.01,-0.11 0.01,-0.07 0.02,-0.18 0.02,-0.24 0,-0.04 -0,-0.09 0,-0.13 0.01,-0.09 0.03,-0.02 0.03,-0.09l-0.05 -0.15c-0.05,-0.1 -0.16,-0.09 -0.26,-0.09 -0.16,0 -0.22,0.45 -0.25,0.58 -0.02,0.07 -0.02,0.01 -0.03,0.13 -0.01,0.26 -0.05,0.7 0.01,0.95 0.02,0.07 0.02,0 0.03,0.09 0,0.03 0,0.07 0,0.1 0.01,0.06 0.02,0.1 0.01,0.19 -0.02,0.14 -0.06,0.43 -0.11,0.55 -0.03,0.06 -0.03,0.1 -0.06,0.15 -0.07,-0.03 -0.09,-0.13 -0.12,-0.19l-0.09 -0.22 -0.03 -0.13c-0.05,-0.17 -0.01,-0.19 0.02,-0.37 0.01,-0.06 0.01,-0.12 0.03,-0.18 0.05,-0.21 0.04,-0.13 0.05,-0.35 0.01,-0.12 0.03,-0.04 0.04,-0.17 0,-0.13 -0,-0.27 -0,-0.4 0,-0.09 0.01,-0.23 -0.02,-0.29 -0.07,-0.16 -0.17,-0.16 -0.33,-0.16 -0.01,0.06 -0.01,0.02 -0.03,0.05 -0.04,0.06 -0.05,0.12 -0.07,0.19 -0.08,0.22 -0.08,0.46 -0.1,0.68 -0.01,0.12 0.01,0.16 0.02,0.26 0.01,0.29 0.02,0.2 0.05,0.37 0.02,0.09 0,0.26 0.02,0.32 0.02,0.05 -0.01,0.02 0.03,0.04l0 0.07c-0.06,0.02 -0.02,-0.04 -0.04,0.07 -0.02,0.14 -0.06,0.3 -0.1,0.42l-0.03 0.08c-0.02,0.05 -0.01,0.03 -0.04,0.06 -0.07,-0.02 -0.09,-0.07 -0.12,-0.15 -0.04,-0.1 -0.03,-0.23 -0.04,-0.34 -0.01,-0.07 -0.02,-0.02 -0.03,-0.09 -0.01,-0.08 0,-0.14 -0.02,-0.22 -0.1,0 -0.12,-0.02 -0.21,-0.02 -0.12,0.17 -0.09,0.13 -0.09,0.35 0,0.08 0,-0.01 0.02,0.05 0.02,0.07 0.05,0.22 0.07,0.28 0.01,0.03 0.03,0.06 0.05,0.09 0.05,0.08 0.07,0.13 0.15,0.18 0.05,0.03 0.09,0.06 0.17,0.06 0.21,0 0.24,0.01 0.3,-0.19 0.08,-0.25 0.01,-0.33 0.1,-0.39 0.01,0.06 0.03,0.1 0.06,0.15 0.1,0.21 0.49,0.45 0.58,0.07l0.06 -0.27 0.05 0 0.11 0.2c0.03,0.02 0.02,0.04 0.07,0.04 0.16,0 0.13,-0.02 0.15,-0.2 0.01,-0.04 0.01,-0.09 0.01,-0.13 0.02,-0.07 0.02,-0 0.03,-0.09l0.02 -0.24c0,-0.14 0.01,-0.1 0.03,-0.21 0.05,0.03 0.05,0.09 0.07,0.15 0.05,0.16 0.1,0.35 0.31,0.35 0.19,0 0.17,-0.07 0.23,-0.19 0.1,0.04 0.03,0.14 0.21,0.14 0.24,0 0.36,0.03 0.43,-0.23 0.04,-0.14 0.04,-0.3 0.13,-0.43l0.05 -0.06 0.17 -0.32c0.01,-0.03 0.07,-0.13 0.02,-0.16 -0.07,-0.03 -0.25,0.25 -0.27,0.32l-0.07 0c-0.02,-0.07 0,-0 -0.02,-0.05 -0.08,-0.14 -0.08,-0.14 -0.23,-0.19 -0.04,-0.01 -0.06,-0.02 -0.11,-0.01 -0.17,0.05 -0.23,0.04 -0.31,0.2 -0.09,0.18 -0.06,0.36 -0.12,0.53l-0.02 0.09c-0.02,0.14 -0,0.14 -0.08,0.18l-0.1 -0.39c-0.09,-0.28 0.03,-0.27 -0.34,-0.27 -0.09,0 -0.16,0.45 -0.2,0.53 -0.02,0.04 -0.01,0.03 -0.06,0.05z"/>
   <path class="fil2" d="M3.17 7.06c0.01,0.12 0.1,0.08 0.14,0.26l-0.05 0c-0.01,-0.12 -0.12,-0.12 -0.12,-0.26l0.03 0zm-1.72 -0.61c0,-0.09 0.01,-0.11 0.04,-0.18 0.07,-0.18 0.14,-0.27 0.21,-0.41 0.04,-0.09 0.12,-0.16 0.18,-0.24l0.66 -0.66c0.08,-0.06 0.14,-0.12 0.22,-0.18 0.13,-0.08 0.26,-0.19 0.4,-0.26 0.13,-0.07 0.25,-0.15 0.39,-0.2l0.28 -0.12 0.47 -0.19c-0.19,0 -0.41,0.01 -0.56,0.06l-0.35 0.12c-0.22,0.09 -0.62,0.29 -0.81,0.43l-0.11 0.08 -0.43 0.34c-0.08,0.07 -0.21,0.2 -0.27,0.28l-0.12 0.16c-0.05,0.07 -0.13,0.14 -0.17,0.22 -0.05,0.08 -0.07,0.1 -0.11,0.17 -0.03,0.05 -0.04,0.08 -0.07,0.14l-0.06 0.15c-0.02,0.08 -0.03,0.04 -0.04,0.1l0.04 0.36c0.06,0.17 0.2,0.28 0.37,0.32l0.37 0.1c0.15,0.03 0.3,0.01 0.45,0.04 0.08,0.01 0.01,0.02 0.11,0.03 0.27,0.03 0.25,-0.1 0.4,0.13 0.02,0.03 0.03,0.04 0.05,0.07 0.05,0.08 0.06,0.08 0.09,0.1 0.13,0.09 0.25,0.09 0.41,0.09 0.11,0 0.11,-0.28 -0.13,-0.41l-0.21 -0.09c-0.05,-0.03 -0.05,-0.03 -0.08,-0.08 -0.04,-0.09 -0.07,-0.26 -0.09,-0.38l-0.02 -0.17c-0.01,-0.05 -0.03,-0.07 -0.03,-0.14 -0,-0.03 0,-0.07 0,-0.11 0.1,-0.03 0.31,-0.2 0.37,-0.29 0.04,-0.06 0.03,-0 0.06,-0.1 0.04,-0.15 -0.02,-0.35 -0.18,-0.39 -0.02,0.05 -0.02,0.11 -0.04,0.18l-0.01 0.03c-0.02,0.07 -0.07,0.09 -0.07,0.17 -0.08,0.01 -0.06,0.03 -0.12,0.07 0,-0.08 -0.01,-0.18 -0,-0.26 0.01,-0.11 0.01,-0.04 0.03,-0.11 0.01,-0.04 0,-0.07 0.01,-0.11 0.01,-0.12 0.06,-0.33 -0.14,-0.33 -0.23,0 -0.15,0.32 -0.18,0.47 -0.02,0.09 -0.03,0.01 -0.03,0.12l0 0.47 -0.34 0.2c-0.08,0.05 -0.16,0.11 -0.22,0.18 -0.08,0.09 -0.14,0.3 0.04,0.35 0.01,-0.03 0.03,-0.07 0.04,-0.1 0.02,-0.04 0.03,-0.04 0.06,-0.07 0.06,-0.07 0.11,-0.13 0.19,-0.18 0.08,-0.05 0.14,-0.12 0.23,-0.13 0,0.04 0.01,0.03 0.01,0.04 0.02,0.06 0.04,0.19 0.06,0.25l0.02 0.04c0.02,0.04 0.03,0.12 0.04,0.17 0.02,0.11 0.05,0.09 0.05,0.2 -0.23,0 -0.48,0.01 -0.71,-0.02l-0.28 -0.07c-0.02,-0.01 -0.03,-0.01 -0.04,-0.02 -0.13,-0.06 -0.23,-0.12 -0.3,-0.24 -0.03,-0.06 -0.03,-0.13 -0.03,-0.21z"/>
   <path class="fil2" d="M3.62 10.92c0.11,0 0.22,-0.03 0.31,-0.07l-0.13 -0.36c-0.01,-0.03 -0.02,-0.06 -0.03,-0.09 -0.06,-0.14 -0.02,-0.12 -0.08,-0.27 -0.03,-0.07 -0.07,-0.24 -0.1,-0.32 -0.05,-0.13 -0.04,-0.14 -0.07,-0.22 -0.02,-0.04 -0.02,-0.02 -0.03,-0.09 -0.04,-0.17 0.03,-0.14 0.1,-0.16l0.26 -0.09c0.28,-0.07 0.27,0.07 0.3,0.14 0.07,0.15 0.06,0.15 0.11,0.28l0.1 0.27c0.02,0.05 0.01,0.06 0.03,0.11l0.08 0.25 0.03 0.09c0.07,0.3 0.08,0.27 0.39,0.15l-0.31 -0.94c-0.01,-0.03 -0.01,-0.06 -0.03,-0.1 -0.02,-0.04 -0.02,-0.03 -0.04,-0.09 -0.08,-0.23 -0.07,-0.32 -0.21,-0.54 -0.03,-0.06 -0.08,-0.08 -0.14,-0.11 -0.17,-0.08 -0.22,-0.01 -0.38,0.03 -0.08,0.02 -0.11,0.04 -0.18,0.06l-0.18 0.06c-0.12,0.03 -0.09,0.04 -0.18,0.06l-0.18 0.06c0,0.06 -0,0.09 0.01,0.15l0.19 0.6c0.02,0.07 -0,0.05 0.04,0.14 0.04,0.09 0.02,0.08 0.07,0.21 0.02,0.04 0.02,0.07 0.04,0.12 0.02,0.05 0.01,0 0.03,0.06l0.21 0.61z"/>
   <path class="fil2" d="M7.26 9.25c-0.02,-0.06 -0.01,0 -0.02,-0.06 -0,-0 -0.01,-0.05 -0.01,-0.06 -0.04,-0.17 -0.15,-0.39 -0.19,-0.59l-0.19 -0.59c-0.04,-0.14 -0.03,-0.01 -0.04,-0.11 -0.1,0.01 -0.01,-0 -0.08,0.02 -0.08,0.03 -0.17,0.03 -0.22,0.1 0,0.01 -0,0.01 0,0.01l0.21 0.72c-0.09,0.01 -0.16,0.05 -0.24,0.07 -0.06,0.02 -0.04,0.02 -0.12,0.04 -0.05,0.01 -0.09,0.02 -0.13,0.03l-0.09 -0.27c-0.02,-0.05 -0.01,-0.02 -0.03,-0.09l-0.09 -0.28c-0.02,-0.05 -0.02,-0.02 -0.03,-0.07 -0.1,0 -0.24,0.05 -0.31,0.1 0.01,0.09 0,0.02 0.02,0.07l0.17 0.53c0.02,0.06 0.02,0.03 0.04,0.11l0.06 0.18c0.06,0.16 0.08,0.32 0.15,0.48l0.17 0.51 0.07 0c0.02,-0.06 -0.02,-0.02 0.06,-0.05 0.04,-0.02 0.1,-0.02 0.14,-0.06 0.07,-0.06 0.02,-0.08 -0,-0.14l-0.05 -0.16c-0.03,-0.07 -0.03,-0.14 -0.06,-0.2l-0.07 -0.19c0,-0.1 0.39,-0.17 0.47,-0.19 0.03,0.04 0.03,0.03 0.05,0.07 0.02,0.04 0.02,0.12 0.05,0.19 0.01,0.04 0.02,0.04 0.04,0.09l0.11 0.36c0.17,0 0.22,-0.08 0.33,-0.09l-0.09 -0.31c-0.01,-0.04 -0,-0.01 -0.02,-0.05 -0.02,-0.04 -0.02,-0.08 -0.04,-0.12z"/>
   <path class="fil2" d="M11.79 6.75c0.04,-0.07 0.12,-0.1 0.14,-0.1 0.08,0 -0.01,-0 0.05,0.02l0.11 0.05c0.04,0.03 0.07,0.07 0.11,0.12 0.05,0.06 0.1,0.21 0.14,0.29 0.04,0.11 0.04,0.27 0.03,0.37 -0.01,0.12 -0.06,0.19 -0.15,0.23 -0.04,0.02 0.04,0.01 -0.04,0.01 -0.05,0 -0.06,-0.01 -0.11,-0.05 -0.09,-0.05 -0.21,-0.21 -0.25,-0.31 -0.08,-0.24 -0.08,-0.18 -0.08,-0.45l0.05 -0.2zm-0.41 0.14c0,0.07 0.01,0.17 0.02,0.24l0.09 0.31c0.03,0.08 0.03,0.12 0.07,0.19 0.04,0.06 0.11,0.17 0.16,0.22 0.05,0.05 0.08,0.08 0.13,0.13 0.09,0.09 0.17,0.16 0.34,0.16 0.24,0 0.23,0.01 0.35,-0.11 0.07,-0.07 0.11,-0.12 0.14,-0.25l0.05 -0.46c0,-0.06 -0.02,-0 -0.03,-0.09l-0.09 -0.39c-0.04,-0.12 -0.12,-0.24 -0.2,-0.34l-0.02 -0.03c-0.05,-0.07 -0.18,-0.17 -0.27,-0.22l-0.08 -0.04c-0.09,-0.04 -0.24,-0.04 -0.33,0.01 -0,0 -0.05,0.02 -0.05,0.02l-0.11 0.1 -0.14 0.3c-0.03,0.07 -0.03,0.15 -0.03,0.25z"/>
   <path class="fil2" d="M7.45 8.32c0,-0.2 0.13,-0.32 0.29,-0.24 0.09,0.05 0.11,0.07 0.16,0.15 0.01,0.02 0.03,0.04 0.04,0.06 0.01,0.03 0.02,0.04 0.03,0.07 0.09,0.17 0.04,0.09 0.08,0.22 0.03,0.08 0.04,0.17 0.02,0.29l-0.07 0.19c-0.03,0.04 -0.05,0.06 -0.08,0.06 -0.12,0 -0.13,0.02 -0.26,-0.11l-0.13 -0.19c-0.07,-0.18 -0.09,-0.21 -0.09,-0.51zm-0.35 0.21c0,0.08 -0,-0.01 0.02,0.05 0.05,0.14 0.02,0.18 0.14,0.43l0.2 0.3c0.04,0.04 0.07,0.08 0.12,0.11l0.14 0.08c0.13,0.07 0.11,0.06 0.29,0.06 0.14,0 0.34,-0.25 0.37,-0.41 0.01,-0.05 0,-0.07 0.01,-0.11 0.02,-0.09 0.03,-0.02 0.03,-0.09 0,-0.4 -0.01,-0.15 -0.03,-0.31 -0.02,-0.11 -0,-0.09 -0.04,-0.19l-0.13 -0.32 -0.08 -0.13c-0.03,-0.06 -0.02,-0.03 -0.06,-0.08 -0.03,-0.03 -0.03,-0.04 -0.05,-0.07 -0.06,-0.07 -0.2,-0.18 -0.29,-0.21l-0.15 -0.04c-0.05,-0.02 0.04,-0.02 -0.04,-0.02 -0.1,0 -0,0.01 -0.11,0.03 -0.03,0.01 -0.06,0.01 -0.09,0.03 -0.05,0.03 -0.01,0.02 -0.06,0.06 -0.05,0.04 -0.03,-0 -0.07,0.05 -0.04,0.06 -0.14,0.3 -0.14,0.33l0 0.45z"/>
   <path class="fil2" d="M8.62 7.92c-0.07,-0.18 -0.1,-0.23 0.16,-0.23 0.1,0 0.09,0.06 0.12,0.16l0.1 0.26c0.01,0.04 0.02,0.05 0.03,0.09 0.01,0.03 0.02,0.05 0.04,0.09l0.09 0.28c0.01,0.04 0.02,0.03 0.03,0.09l0.11 0.33 0.06 0.12 0.02 -0.01c0.1,-0.05 0.04,0.01 0.26,-0.09l-0.1 -0.27c-0.03,-0.09 -0.06,-0.22 -0.13,-0.4 -0.02,-0.04 -0.02,-0.08 -0.03,-0.12l-0.15 -0.45c-0.04,-0.08 -0.04,-0.17 -0.11,-0.32 -0.04,-0.09 -0.11,-0.09 -0.11,-0.18 -0.12,-0.01 -0.08,-0.11 -0.34,-0.03 -0.04,0.01 -0.08,0.02 -0.11,0.03l-0.32 0.11c-0.04,0.01 -0.09,0.01 -0.09,0.05 0,0.13 0.03,0.15 0.06,0.26 0.01,0.04 0.02,0.09 0.03,0.13l0.08 0.24c0.02,0.05 0.02,0.06 0.04,0.12 0.02,0.08 0.02,0.05 0.04,0.11 0.01,0.03 0.01,0.04 0.02,0.07 0.02,0.08 0.04,0.06 0.06,0.17l0.23 0.71c0.02,0.05 0.02,0.08 0.08,0.08 0.11,0 0.04,-0 0.09,-0.03 0.2,-0.09 0.16,-0.06 0.11,-0.22l-0.08 -0.26c-0.01,-0.04 -0.01,-0.06 -0.02,-0.1l-0.24 -0.76z"/>
   <path class="fil2" d="M5.56 10.09l-0.06 -0.17c-0.03,-0.08 -0.03,-0.11 -0.06,-0.18l-0.23 -0.75c-0.02,-0.07 -0.05,-0.09 -0.05,-0.19l0.31 0c0,0.05 0.01,0.05 0.03,0.1 0.02,0.05 0.01,0.02 0.03,0.09l0.26 0.8c0.01,0.04 0.01,0.02 0.03,0.07 0.03,0.1 0.07,0.31 0.14,0.31 0.13,0 0.15,-0.06 0.26,-0.07 -0,-0.1 -0.03,-0.12 -0.06,-0.2l-0.22 -0.72 -0.02 -0.05c-0.01,-0.04 -0.02,-0.09 -0.04,-0.14l-0.19 -0.49c-0,-0 -0.01,-0.02 -0.01,-0.02l-0.02 -0.04c-0.07,-0.14 -0.17,-0.16 -0.31,-0.14l-0.63 0.2c0.02,0.04 0.01,0.08 0.06,0.19l0.51 1.59c0.02,0.07 0.01,0.06 0.04,0.11 0,-0 0.01,-0.01 0.01,-0.01 0.11,-0.05 0.08,-0.01 0.21,-0.07l0.07 -0.03 -0.06 -0.2z"/>
   <path class="fil2" d="M2.87 9.75c-0.02,-0.04 -0.01,-0.02 -0.03,-0.05l-0.16 -0.28 -0.09 -0.14c-0.05,-0.08 0.04,0.05 -0.01,-0.02 -0.01,-0.02 -0.02,-0.04 -0.04,-0.04 -0.09,0 -0.16,0.03 -0.22,0.06 -0.03,0.01 -0.04,0.02 -0.06,0.03 0.01,0.1 0.09,0.19 0.14,0.27l0.29 0.49c0.03,0.06 0.02,0.03 0.05,0.08 0.04,0.06 0.02,0.06 0.09,0.17 0.06,0.09 0.05,0.1 0.12,0.21 0.04,0.06 0.05,0.07 0.06,0.13l-0.13 0.04c-0.19,0.06 -0.16,-0.07 -0.19,-0.28 -0.01,-0.04 -0.01,-0.1 -0.02,-0.14 -0.07,-0.25 -0.02,-0.33 -0.16,-0.26 -0.05,0.02 -0.16,0.07 -0.16,0.13 0,0.28 0.03,0.07 0.04,0.24l0.02 0.29c0.01,0.08 0.02,0.01 0.03,0.11 0.03,0.25 -0,0.25 0.09,0.5 0.04,-0.01 0.11,-0.02 0.14,-0.03 0.08,-0.02 0.34,-0.13 0.52,-0.17 0.07,-0.02 0.07,-0.02 0.13,-0.04l0.25 -0.08c-0,-0.05 -0.09,-0.18 -0.12,-0.23l-0.49 -0.85 -0.08 -0.14z"/>
   <path class="fil2" d="M11.42 7.66c-0.03,-0.04 -0.01,-0.02 -0.03,-0.05 -0.04,-0.07 -0.11,-0.11 -0.15,-0.18 0.02,-0.07 0.07,-0.13 0.07,-0.16 0,-0.36 0.01,-0.14 -0.03,-0.28 -0.02,-0.08 -0,-0.07 -0.05,-0.16 -0.03,-0.06 -0.08,-0.16 -0.14,-0.19l-0.14 -0.07 -0.23 0c-0.08,0 0.01,-0 -0.05,0.02l-0.22 0.06c-0.05,0.02 -0.06,0.03 -0.13,0.04 0,0.1 0.02,0.15 0.04,0.24 0.05,0.16 -0.01,0.04 0.08,0.18l0.35 -0.1c0.14,0 0.12,0 0.18,0.15 0.01,0.02 0.11,0.09 -0.13,0.19 -0.09,0.04 -0.14,0.03 -0.21,0.05 -0.04,0.01 -0.07,0.04 -0.11,0.06 0.04,0.06 0.1,0.28 0.12,0.37 0.12,0 0.23,-0.04 0.32,-0.06 0.15,-0.04 0.21,0.07 0.25,0.17 0.02,0.05 0.02,0.05 0.03,0.1 0.03,0.15 0.06,0.17 0.1,0.28 0.06,0.18 0.16,0.09 0.31,0.05l-0.07 -0.28c-0.01,-0.05 -0.08,-0.19 -0.1,-0.25 -0.04,-0.12 -0.02,-0.08 -0.08,-0.18z"/>
   <path class="fil2" d="M1.62 10.21c0,-0.05 0.02,-0.1 0.04,-0.13l0.07 -0.09 0.21 -0.12c0,-0.16 -0.01,-0.07 -0.04,-0.22 -0.02,-0.12 -0.06,-0.1 -0.06,-0.2l-0.09 0c-0.02,0.04 0,0.01 -0.08,0.06 -0.12,0.07 -0.22,0.13 -0.28,0.26 -0.02,0.04 -0.04,0.07 -0.05,0.09 -0.04,0.1 -0.05,0.43 -0.01,0.55l0.03 0.09c0,0 0.01,0.04 0.01,0.04l0.13 0.35c0.05,0.16 0.23,0.34 0.37,0.41l0.2 0.08c0.31,0 0.14,-0 0.26,-0.03 0.03,-0.01 0.07,-0.02 0.1,-0.02 -0,-0.05 0,-0.03 -0.01,-0.08l-0.11 -0.28c-0.02,-0.05 -0.03,-0.04 -0.06,-0.08l-0.24 0.05c-0.12,0 -0.29,-0.29 -0.32,-0.41l-0.08 -0.34z"/>
   <path class="fil2" d="M9.58 8.65c0.02,0.05 0.01,0.03 0.02,0.06 0.03,0.09 0.03,0.26 0.12,0.26 0.08,0 0.03,-0.01 0.1,-0.03l0.57 -0.18c0.01,-0.01 0,-0.01 0.04,-0.01l-0.09 -0.31c-0.01,-0.04 0.01,-0.17 -0.26,-0.05 -0.11,0.05 -0.12,0.03 -0.19,0.08 -0.05,-0.07 -0.04,-0.04 -0.07,-0.14 -0.04,-0.16 -0.11,-0.19 0.04,-0.22l0.11 -0.03c0.12,-0.05 0.11,-0 0.22,-0.08l-0.05 -0.16c-0.02,-0.06 -0.03,-0.22 -0.11,-0.22l-0.14 0.03c-0.14,0.06 -0.13,0.02 -0.23,0.07 -0.12,0.05 -0.17,0.06 -0.26,0.08 -0.08,0.03 -0.04,-0.01 -0.06,0.05 0,0.01 -0,0.01 -0,0.02l0.04 0.12 0.14 0.44c0.03,0.18 0.02,0.08 0.07,0.23z"/>
   <path class="fil1" d="M6.74 9.48c-0.03,-0.09 -0.01,-0.15 -0.09,-0.17l0.18 0.64c0.1,0.22 -0.06,0.2 -0.15,0.24 -0.18,0.07 -0.15,0.02 -0.17,0.09 0.05,0.01 0.21,0.1 0.43,0.16l0.03 0.01c0.14,0.05 0.37,0.06 0.52,0.01 0.13,-0.05 0.16,-0.04 0.29,-0.12 0.11,-0.06 0.25,-0.22 0.31,-0.33l0.04 -0.06 0.09 -0.22c-0.11,0 -0.15,0.02 -0.26,0.02l-0.31 -0.02c0,0.08 0.01,0.05 0.02,0.12l-0.71 0.24 -0.22 -0.61z"/>
   <path class="fil2" d="M10.46 7.47c-0.04,-0.1 -0.08,-0.25 -0.12,-0.36 -0.02,-0.04 -0.02,-0.08 -0.03,-0.12 -0.03,-0.1 -0.06,-0.1 -0.06,-0.24 -0.13,0 -0.12,0.01 -0.22,0.04 -0.09,0.03 -0.09,0.01 -0.09,0.06 0,0.11 0.11,0.34 0.14,0.47l0.11 0.35c0.01,0.05 0.01,0.06 0.03,0.11l0.06 0.19c0.05,0.11 0.02,0.07 0.05,0.17 0.03,0.1 0.04,0.08 0.07,0.22 0.03,0.1 0.08,0.22 0.11,0.33 0.07,0 0.11,-0 0.17,-0.02 0.09,-0.03 0.05,-0.04 0.15,-0.05 -0,-0.06 -0.01,-0.08 -0.03,-0.13 -0.07,-0.15 -0.03,-0.11 -0.07,-0.24l-0.24 -0.75 -0.02 -0.04z"/>
   <path class="fil2" d="M5.09 9.94c-0.01,-0.04 -0.03,-0.06 -0.04,-0.11 -0.01,-0.05 -0.02,-0.08 -0.04,-0.12l-0.12 -0.35c-0.04,-0.11 -0.04,-0.17 -0.07,-0.24 -0.02,-0.04 -0.01,-0.01 -0.03,-0.06l-0.12 -0.35c-0.06,-0.16 0.01,-0.03 -0.07,-0.16 -0.05,0.02 -0.09,0.02 -0.15,0.04 -0.1,0.03 -0.11,0.04 -0.11,0.08 0,0.1 0.21,0.65 0.25,0.78 0.01,0.03 0.01,0.02 0.01,0.06l0.07 0.23c0.02,0.06 0.02,0.04 0.04,0.11l0.24 0.69c0.07,-0.01 0.22,-0.07 0.28,-0.1 -0,-0.04 -0.01,-0.05 -0.01,-0.07l-0.13 -0.41z"/>
   <path class="fil2" d="M3.83 9.93c0.01,0.03 0.01,0.03 0.03,0.08l0.21 0.66c0.04,0.19 0.13,0.09 0.14,0.08l0.18 -0.06 -0.07 -0.23c-0.03,-0.12 -0.01,-0.08 -0.06,-0.22 -0.02,-0.04 -0.02,-0.04 -0.03,-0.08l-0.17 -0.49c-0.05,-0.22 -0.15,-0.07 -0.32,-0.06 0,0.1 0.05,0.22 0.08,0.32z"/>
   <path class="fil2" d="M9.2 7.5c0.13,0 0.13,-0.03 0.21,-0.05l0.19 -0.06c0.13,-0.04 0.06,-0.01 0.16,-0.05l0.21 -0.09c-0.03,-0.05 -0.01,-0.05 -0.02,-0.11l-0.1 -0.27c-0.11,0 -0.39,0.1 -0.51,0.13 -0.03,0.01 -0.03,0.01 -0.05,0.02 -0.15,0.07 -0.07,0 -0.2,0.09l0.12 0.38z"/>
   <path class="fil1" d="M4.87 2.28c0,0.06 -0,0.08 0.05,0.14 0.03,0.04 0.05,0.04 0.09,0.07 0.06,0.05 0.1,0.1 0.2,0.1 0.04,0 0.02,-0.03 0.05,-0.11 0.08,-0.23 -0.14,-0.4 -0.2,-0.4 -0.13,0 -0.17,0.19 -0.17,0.19z"/>
   <path class="fil1" d="M4.79 2.61c-0.01,0.04 0.01,0.02 -0.03,0.03 0.02,0.08 0.02,0.01 0.03,0.11 0.01,0.11 -0.01,0.05 0.04,0.15 0.04,0.09 0.06,0.16 0.21,0.06 0.05,-0.03 0.18,-0.23 0.19,-0.26 -0.1,0 -0.16,0.01 -0.24,-0.02 -0.12,-0.04 -0.13,-0.01 -0.19,-0.07z"/>
   <path class="fil2" d="M3.62 5.6c0,0.21 0.31,0.25 0.31,-0.02 0,-0.19 -0.21,-0.2 -0.27,-0.1 -0.02,0.04 -0.04,0.06 -0.04,0.12z"/>
   <path class="fil1" d="M4.8 7.38c0,0.12 0.02,0.03 0.06,0.23l0.01 0.06 0.13 0.27c0.15,-0.08 0.07,-0.12 0.06,-0.15l-0.12 -0.35c-0.03,-0.07 -0.02,-0.13 -0.08,-0.13 -0.04,0 -0.07,0.03 -0.07,0.07z"/>
   <path class="fil1" d="M6.14 6.96c0,0.05 0.02,0.06 0.02,0.12 0.1,0 0.14,0.01 0.11,-0.11 -0.02,-0.07 -0.03,-0.08 -0.11,-0.08 -0.01,0.05 -0.02,0.03 -0.02,0.07z"/>
  </g>
 </g>
</svg>
