<?xml version="1.0" encoding="UTF-8"?>
<!DOCTYPE svg PUBLIC "-//W3C//DTD SVG 1.1//EN" "http://www.w3.org/Graphics/SVG/1.1/DTD/svg11.dtd">
<!-- Creator: CorelDRAW -->
<svg xmlns="http://www.w3.org/2000/svg" xml:space="preserve" width="41.0352mm" height="42.2532mm" version="1.1" style="shape-rendering:geometricPrecision; text-rendering:geometricPrecision; image-rendering:optimizeQuality; fill-rule:evenodd; clip-rule:evenodd"
viewBox="0 0 133.57 137.53"
 xmlns:xlink="http://www.w3.org/1999/xlink"
 xmlns:xodm="http://www.corel.com/coreldraw/odm/2003">
 <defs>
  <style type="text/css">
   <![CDATA[
    .fil5 {fill:black}
    .fil7 {fill:#1F1F1F}
    .fil13 {fill:#737373}
    .fil2 {fill:#777777}
    .fil9 {fill:#797979}
    .fil0 {fill:#7F7F7F}
    .fil1 {fill:#838383}
    .fil12 {fill:#858585}
    .fil11 {fill:#8B8B8B}
    .fil10 {fill:#919191}
    .fil8 {fill:#F9F9F9}
    .fil6 {fill:#FBEF2B}
    .fil3 {fill:#FDFDFD}
    .fil4 {fill:#FEFEFE}
   ]]>
  </style>
 </defs>
 <g id="Camada_x0020_1">
  <metadata id="CorelCorpID_0Corel-Layer"/>
  <g id="_2064296185552">
   <path class="fil0" d="M44.74 133.75l0.73 -0.11c-0.35,-1.53 0.58,-3.46 0.4,-5.07l-0.63 0.07c0.34,0.97 -0.14,4.12 -0.5,5.1z"/>
   <path class="fil0" d="M75.96 131.62c0.28,-0.35 0.13,0.11 0.32,-0.66l0.44 -2.97c1.04,0.05 1.87,0.33 2.58,-0.29l-2.7 0.11c-0.28,0.74 -0.63,2.85 -0.64,3.8z"/>
   <path class="fil1" d="M41.05 126.43l5.02 -0.1 -0.19 2.24c0.32,-0.52 1.11,-6.04 1.12,-6.99l-5.16 -0.27c0.25,0.59 -0.02,0.44 2.03,0.42 0.84,-0.01 1.67,-0.02 2.5,0.04l-0.41 4.22c-0.96,0.19 -1.64,0.14 -2.55,0.13 -0.98,-0.01 -1.78,-0.18 -2.36,0.32z"/>
   <path class="fil1" d="M50.15 129.91c0.43,-0.15 0.38,-1.32 0.52,-1.85l1.63 0.14c-0.26,-0.39 0.37,-0.32 -0.84,-0.46 -0.47,-0.06 -0.63,0.03 -1.06,0.13l-0.25 2.04z"/>
   <path class="fil2" d="M41.86 120.42l0.39 -0.48c0.48,-0.61 3.75,-0.45 4.67,-0.5l0.08 0.5 0.61 -2.74c0.06,-0.46 0.12,-0.91 0.22,-1.4l0.42 -1.28 1.48 0.04c-0.14,2.94 -0.74,6.45 -1.14,9.35 -0.37,2.76 -1.15,6.76 -1.09,9.4l0.41 -1.07c0.09,-0.41 0.12,-0.79 0.17,-1.2 0.11,-0.82 0.22,-1.64 0.34,-2.45 0.22,-1.54 0.43,-3.1 0.64,-4.62 0.3,-2.2 0.8,-7.77 1.47,-9.5 -2.87,-0.29 -2.1,0.03 -2.92,0.01 -0.78,-0.02 -3.84,-0.57 -4.94,0.19l4.75 -0.13 -0.52 4.67c-1.04,0.08 -2.04,0.08 -3.05,0.09 -1.4,0.01 -1.59,-0.2 -1.99,1.12z"/>
   <path class="fil2" d="M111.82 133.81c1.13,0.21 1.5,0.25 2.6,-0.04l-2.12 -0.1 2.73 -19.02 5.02 0.06c-0.53,-0.83 -4.48,-0.29 -5.52,-0.32 -0.69,-0.01 -1.14,-0.18 -1.92,0.17l1.84 0.02c-0.19,3.01 -0.89,6.7 -1.3,9.74 -0.28,2.12 -0.73,8.19 -1.34,9.48z"/>
   <path class="fil3" d="M27.55 113.04c-0.83,-0.99 -2.44,-1.95 -3.47,-2.8 -19.21,-16.03 -27.38,-42.53 -18.8,-67.08 4.44,-12.7 12.54,-22.47 20.88,-28.64 9.45,-6.99 21.44,-12.33 36.81,-12.38 50.43,-0.19 79.69,58.02 48.14,98.71 -1.91,2.46 -3.81,4.57 -5.93,6.5l-6.64 5.75 32.73 0.02c0.31,1.41 0.31,20.36 0.04,22.22l-125.17 -0.04c-0.22,-3.13 -0.44,-19.87 0.08,-22.18l21.34 -0.06zm-4.73 -1.57c-4.6,0.17 -9.53,0.02 -14.17,0.03 -4.85,0.01 -4.14,-0.08 -4.06,10.03 0.02,2.36 -0.33,12.67 0.16,14.06 0.65,1.84 2.78,1.32 5.74,1.32 3.05,0 119.35,0.2 120.78,-0.05 2.25,-0.39 1.69,-2.88 1.7,-5.21l0 -14.27c-0.03,-7.55 1.48,-5.88 -15.45,-5.88 -3.9,0 -10.76,0.4 -14.31,-0.08l6.16 -6.11c5.48,-5.79 10.99,-14.96 13.41,-23.19 4.36,-14.81 3.87,-27.51 -1.33,-41.65 -7.57,-20.55 -29.17,-39.87 -58.25,-39.88 -16.12,-0.01 -30.17,6.13 -40.37,14.5l-6.26 5.94c-0.92,1.03 -1.89,2.21 -2.81,3.41 -12.87,16.78 -16.43,36.24 -10.48,57.33 2.59,9.19 7.4,16.75 13.26,23.34 2.52,2.84 3.38,3.18 4.65,4.56 0.66,0.71 1.22,0.84 1.63,1.79z"/>
   <path class="fil3" d="M12.93 120.11l2.97 -0.73c0.18,4.02 -0.79,3.33 -3.23,3.33l0.26 -2.6zm14.1 2.56c0.08,-3.94 0.55,-3.43 2.12,-3.37 1.52,0.05 1.58,-0.06 0.82,3.35l-2.94 0.02zm-6.64 0.42c-0.97,0 -0.79,-0.36 -0.67,-1.25 0.06,-0.41 0.26,-1.36 0.35,-1.78 0.31,-1.4 1.24,-1.12 2.84,-1.03 0.15,0.96 0.05,3.11 -0.34,3.99l-2.18 0.06zm19.21 -4.14l0.61 -4.36c-1.66,-0.03 -3.52,-0.24 -5.12,0.09 -1.98,1.16 -1.59,4 -2.74,6.16 -0.07,-1.9 0.36,-4.3 -0.73,-5.68 -0.73,-0.92 -4.17,-1.05 -5.44,-0.55 -0.87,0.6 -0.42,4.13 -1.23,5.4 -0.05,-3.44 1.08,-5.79 -3.18,-5.56 -3.35,0.18 -2.45,2.91 -3.72,5.04 -0.02,-1.59 0.07,-4.17 -1.13,-4.82 -0.72,-0.39 -4.67,-0.29 -5.2,0.01 -0.47,0.51 -0.22,0.09 -0.4,1.02l-2.42 18.02 2.22 -0.07 0.76 -5.7c1.23,-0.13 2.56,0.11 3.59,-0.52 0.49,-0.3 0.7,-0.59 0.96,-1.12 0.12,-0.25 0.25,-0.64 0.35,-0.81 0.29,-0.49 0.16,-0.33 0.56,-0.64l-1.1 8.87 2.02 -0.1 0.85 -5.67 2.84 -0.02 -0.68 5.79 4.26 -0.03 0.85 -5.69c0.86,-0.17 0.82,-0.21 1.69,0.15l0.18 5.58 2.61 0.02c-0.01,-2.44 -1.03,-6.91 0.91,-8.64 -0.85,10.15 -0.48,8.68 6.01,8.62l0.5 -4.98c-1.99,-0.39 -4.12,0.6 -4.52,-0.81 -0.1,-0.36 -0.07,-0.25 -0.07,-0.64 -0.02,-1.53 0.78,-6.55 1.44,-7.82 1.24,-0.22 3.97,0.31 4.48,-0.52z"/>
   <path class="fil3" d="M111.82 133.81c0.61,-1.3 1.05,-7.36 1.34,-9.48 0.41,-3.03 1.11,-6.72 1.3,-9.74l-1.84 -0.02 -0.5 3.79c-0.01,0.05 -0.12,0.62 -0.12,0.64 -0.16,0.6 -0.16,0.41 -0.26,0.58l0.09 0.28c-0.09,1.41 -0.33,2.73 -0.51,4.16 -0.16,1.25 -0.22,2.9 -0.72,3.79l-0.07 0.94 -4.83 -0.12 0.05 -2.13c0.35,-0.36 -0.07,-0.15 0.51,-0.33 0.58,-0.17 2.97,0.15 4.28,-0.16 0.22,-0.9 0.56,-3.41 0.43,-4.24l-4.46 -0.15 0.36 -2.02c1.32,-0.4 3.58,0.32 4.58,-0.37l0.69 -4.62 -4.77 0.09c-2.19,0.43 -3.12,6.57 -3.38,8.52 -0.44,3.24 -1.5,8 0.27,10.44 2.48,0.33 5.1,-0.14 7.58,0.18z"/>
   <path class="fil3" d="M124.72 119.21c2.53,-1.06 1.88,2.76 1.68,4.3 -0.19,1.5 -0.19,4.77 -1.63,5.26 -3.21,1.09 -2.28,-2.58 -1.96,-4.51 0.33,-1.99 0.24,-4.36 1.91,-5.06zm-3.61 -1.77c-0.19,0.69 -0.27,2.66 -0.36,3.37 -0.14,1.19 -0.4,2.47 -0.32,3.46 0.49,0.62 0.21,1.38 0.07,2.29 -0.21,1.36 -0.62,6.32 0.68,7.2 0.9,0.5 3.37,0.61 4.41,-0.01 2.33,-1.38 3.46,-14.24 3.22,-17.06 -0.17,-1.94 -0.53,-2.49 -2.54,-2.53 -4.92,-0.09 -3.1,3.48 -4.96,5.42 0.02,-0.89 0.21,-1.56 -0.2,-2.13z"/>
   <path class="fil4" d="M54.22 122.61l-2.89 0.07c-0.03,-1.13 0.12,-2.62 0.45,-3.33 0.92,-0.06 2.58,-0.26 2.82,0.41 0.17,0.49 -0.18,2.38 -0.38,2.85zm-7.23 -2.67l-0 1.64c-0.01,0.95 -0.8,6.47 -1.12,6.99 0.18,1.61 -0.75,3.54 -0.4,5.07l4.3 0.07 0.38 -3.8 0.25 -2.04c0.44,-0.1 0.59,-0.18 1.06,-0.13 1.21,0.14 0.58,0.06 0.84,0.46l0.26 5.48 2.48 0.15c-0.03,-1.9 -0.31,-3.55 -0.29,-5.42 0.02,-1.34 3.92,-10.29 0.54,-13.91l-4.78 -0.04c-0.67,1.74 -1.17,7.3 -1.47,9.5 -0.21,1.51 -0.42,3.08 -0.64,4.62 -0.12,0.81 -0.23,1.63 -0.34,2.45 -0.05,0.41 -0.09,0.79 -0.17,1.2l-0.41 1.07c-0.06,-2.64 0.72,-6.64 1.09,-9.4 0.39,-2.91 1,-6.41 1.14,-9.35l-1.48 -0.04 -0.42 1.28c-0.09,0.49 -0.15,0.94 -0.22,1.4l-0.61 2.74z"/>
   <path class="fil4" d="M73.33 118.11l0.52 -3.54 -4.86 0.15c-3.03,0.67 -4.89,15.61 -3.05,18.97l5.38 0.03 0.74 -4.98 -4.61 -0.07c-0.05,-1.47 -0.43,-2.35 0.81,-2.46 4.59,-0.38 3.98,1.28 4.46,-2.16 0.12,-0.85 0.31,-1.49 0.23,-2.37l-4.8 -0.09 0.49 -2.14 4.57 -0.12c0.29,-0.71 0.35,-0.62 0.12,-1.24z"/>
   <path class="fil4" d="M61.8 122.91c-0.65,4.18 -0.34,5.93 -2.52,5.98 -1.45,0.03 -1.72,-0.29 -1.29,-3.8 0.17,-1.41 0.56,-4.8 1.39,-5.53 0.71,-0.62 2.1,-0.63 2.49,0.27 0.31,0.73 0.04,2.38 -0.07,3.08zm-2.23 -8.55c-2.96,1.17 -4.14,14.23 -3.88,17.31 0.09,1 0.24,2 1.1,2.26 0.51,0.16 3.1,0.18 3.64,0.06 2.32,-0.52 3.05,-7.93 3.37,-10.77 0.2,-1.81 1.26,-8.29 -0.91,-8.93 -0.93,-0.28 -2.52,-0.24 -3.32,0.08z"/>
   <path class="fil4" d="M92.2 119.28l2.8 0.18c0.08,1 -0.07,2.32 -0.43,3.05 -0.7,0.29 -1.91,0.22 -2.95,0.15l0.58 -3.38zm-1.96 -1.34c0.46,1.98 -1.95,13.59 -1.95,15.71l1.92 0 0.84 -5.69 1.6 0.15 0.34 5.6 2.5 0.03c-0.01,-2 -0.54,-4.57 -0.11,-6.54 0.45,-2.02 1.12,-3.26 1.44,-5.5 0.26,-1.83 0.44,-4.99 -0.46,-6.39 -0.58,-0.89 -1.15,-0.85 -2.53,-0.84 -2.6,0.02 -3.97,-0.81 -3.58,3.47z"/>
   <path class="fil4" d="M116.36 119.33l2.96 0.2c0.14,0.95 -0.17,2.31 -0.5,3.14l-2.91 -0.09 0.45 -3.25zm-1.94 14.44l0.9 -5.93 1.67 0.21 0.19 5.66 2.63 -0.03c-0.09,-1.59 -0.32,-3.35 -0.35,-5.03 -0.04,-2.3 1.19,-2.81 0.99,-4.38 -0.07,-0.99 0.19,-2.28 0.32,-3.46 0.08,-0.7 0.17,-2.67 0.36,-3.37 0.11,-1.13 -0.36,-2.26 -1.07,-2.74l-5.02 -0.06 -2.73 19.02 2.12 0.1z"/>
   <path class="fil4" d="M40.41 118.75c-0.16,0.69 -0.28,1.2 -0.41,1.84 -0.19,0.92 -0.06,0.83 -0.53,1.52 -0.29,3.21 -1.87,8.91 0.1,11.61l5.18 0.02c0.36,-0.98 0.84,-4.14 0.5,-5.1l-4.21 -0.04 0.01 -2.18c0.57,-0.5 1.38,-0.33 2.36,-0.32 0.91,0.01 1.59,0.06 2.55,-0.13l0.41 -4.22c-0.84,-0.06 -1.67,-0.05 -2.5,-0.04 -2.05,0.02 -1.78,0.17 -2.03,-0.42l0.02 -0.88c0.4,-1.32 0.59,-1.11 1.99,-1.12 1.01,-0.01 2.01,-0.02 3.05,-0.09l0.52 -4.67 -4.75 0.13c-0.94,0.2 -1.25,0.76 -1.69,1.68 -0.32,0.66 -0.77,1.66 -0.57,2.4z"/>
   <path class="fil4" d="M80.2 122.52l-2.94 0.08 0.41 -3.05c0.33,-0.33 -0.23,-0.2 0.72,-0.36l2.37 0.26c0.08,0.87 -0.04,2.39 -0.55,3.07zm-4.24 9.1c0.01,-0.95 0.36,-3.07 0.64,-3.8l2.7 -0.11c1.1,-0.18 2.22,-1.31 2.08,-2.56 0.03,-1.52 0.51,-2.67 0.71,-4.11 0.18,-1.28 0.06,-3.47 0.31,-4.68 0,-1.5 -0.59,-1.86 -2.16,-1.89 -1.15,-0.02 -2.92,-0.07 -4.01,0.08l-2.72 19.1 2.26 0.04 0.19 -2.07z"/>
   <path class="fil4" d="M102.39 133.51l0.6 -4.61c-3.66,-1.43 -5.38,2.63 -4.26,-5.25 0.14,-0.99 0.58,-3.46 1.06,-4.18 1.89,-0.34 3.98,0.62 4.57,-0.77l0.34 -1.76c0.13,-0.82 0.36,-1.51 0.24,-2.41 -1.06,-0.14 -2.91,-0.11 -4.03,-0.07 -1.5,0.05 -1.96,0.7 -2.48,1.8 -1.53,3.27 -2.56,11.48 -2.24,15.16 0.14,1.65 0.29,2.29 1.95,2.32 0.68,0.01 1.4,-0.02 2.1,-0.02l2.13 -0.21z"/>
   <path class="fil5" d="M88.29 133.65l-2.38 0.1 0.61 -5.76c-1,-0.04 -2.03,-0.2 -2.9,0.13l-0.68 5.43c-0.77,0.27 -1.18,0.17 -2.09,0.16 -0.02,-1.17 0.36,-3.2 0.54,-4.41 0.11,-0.74 0.18,-1.32 0.3,-2.02 0.01,-0.09 0.18,-1.01 0.18,-1.01 0.04,-2.16 0.3,-0.65 -0.49,-1.13 0.14,1.25 -0.99,2.38 -2.08,2.56 -0.71,0.62 -1.54,0.34 -2.58,0.29l-0.44 2.97c-0.2,0.77 -0.04,0.31 -0.32,0.66l-0.19 2.07 -2.26 -0.04 2.72 -19.1c1.09,-0.15 2.86,-0.1 4.01,-0.08 1.57,0.02 2.16,0.39 2.16,1.89 0.4,0.47 0.19,0.24 0.26,1.03 0.03,0.33 -0.01,1.03 0.33,1.37 0.54,-2.13 1.05,-4.05 3,-4.33 1.85,-0.26 3.28,-0.05 3.66,1.75 0.2,0.96 -0.04,1.14 0.59,1.76 -0.39,-4.28 0.98,-3.45 3.58,-3.47 1.38,-0.01 1.95,-0.04 2.53,0.84 0.91,1.39 0.73,4.55 0.46,6.39 -0.32,2.24 -0.99,3.49 -1.44,5.5 -0.44,1.97 0.1,4.54 0.11,6.54l-2.5 -0.03 -0.34 -5.6 -1.6 -0.15 -0.84 5.69 -1.92 -0zm32.15 -9.37c0.21,1.57 -1.03,2.08 -0.99,4.38 0.03,1.68 0.26,3.44 0.35,5.03l-2.63 0.03 -0.19 -5.66 -1.67 -0.21 -0.9 5.93c-1.1,0.29 -1.47,0.25 -2.6,0.04 -2.48,-0.32 -5.1,0.15 -7.58,-0.18 -1.77,-2.44 -0.71,-7.19 -0.27,-10.44 0.26,-1.95 1.19,-8.08 3.38,-8.52 0.25,-0.17 -0.25,-0.14 0.72,-0.3l2.08 -0.01c0.9,-0 1.82,0.08 2.46,0.19 0.77,-0.35 1.23,-0.19 1.92,-0.17 1.04,0.02 4.99,-0.52 5.52,0.32 0.72,0.48 1.19,1.62 1.07,2.74 0.4,0.57 0.22,1.24 0.2,2.13 1.86,-1.94 0.04,-5.51 4.96,-5.42 2.02,0.04 2.38,0.6 2.54,2.53 0.24,2.82 -0.88,15.68 -3.22,17.06 -1.05,0.62 -3.51,0.51 -4.41,0.01 -1.31,-0.88 -0.9,-5.84 -0.68,-7.2 0.14,-0.91 0.42,-1.68 -0.07,-2.29zm-60.88 -9.92c0.8,-0.31 2.39,-0.35 3.32,-0.08 2.17,0.65 1.11,7.13 0.91,8.93 -0.32,2.84 -1.05,10.24 -3.37,10.77 -0.54,0.12 -3.13,0.09 -3.64,-0.06 -0.86,-0.26 -1.01,-1.26 -1.1,-2.26 -0.27,-3.07 0.91,-16.14 3.88,-17.31zm13.76 3.75c0.23,0.62 0.17,0.53 -0.12,1.24l-4.57 0.12 -0.49 2.14 4.8 0.09c0.08,0.88 -0.11,1.52 -0.23,2.37 -0.48,3.43 0.14,1.78 -4.46,2.16 -1.24,0.1 -0.86,0.98 -0.81,2.46l4.61 0.07 -0.74 4.98 -5.38 -0.03c-1.84,-3.36 0.02,-18.31 3.05,-18.97 0.43,-0.47 0.22,-0.34 1.1,-0.39l3.96 0.09c0.08,0.77 -0.06,1.17 -0.16,1.95 -0.28,2.07 -0.17,1.31 -0.55,1.73zm26.93 15.62c-0.69,-0.01 -1.41,0.03 -2.1,0.02 -1.66,-0.02 -1.8,-0.67 -1.95,-2.32 -0.32,-3.68 0.71,-11.9 2.24,-15.16 0.51,-1.09 0.98,-1.75 2.48,-1.8 1.11,-0.03 2.96,-0.06 4.03,0.07 0.12,0.9 -0.11,1.59 -0.24,2.41l-0.34 1.76c-0.59,1.39 -2.68,0.43 -4.57,0.77 -0.49,0.72 -0.92,3.18 -1.06,4.18 -1.12,7.88 0.6,3.82 4.26,5.25l-0.6 4.61 -2.13 0.21zm-59.85 -14.97c-0.2,-0.74 0.25,-1.74 0.57,-2.4 0.44,-0.92 0.75,-1.48 1.69,-1.68 1.11,-0.76 4.16,-0.21 4.94,-0.19 0.82,0.02 0.05,-0.3 2.92,-0.01l4.78 0.04c3.37,3.63 -0.53,12.57 -0.54,13.91 -0.03,1.87 0.26,3.52 0.29,5.42l-2.48 -0.15 -0.26 -5.48 -1.63 -0.14c-0.14,0.53 -0.09,1.7 -0.52,1.85l-0.38 3.8 -4.3 -0.07 -0.73 0.11 -5.18 -0.02c-1.98,-2.7 -0.39,-8.41 -0.1,-11.61 0.08,-0.64 0.15,-1.11 0.3,-1.72 0,-0.02 0.18,-0.75 0.18,-0.76 -0.02,-0.69 0.22,-0.37 -0.35,-0.68 -0.5,0.83 -3.24,0.3 -4.48,0.52 -0.66,1.27 -1.47,6.29 -1.44,7.82 0.01,0.39 -0.03,0.27 0.07,0.64 0.39,1.41 2.52,0.42 4.52,0.81l-0.5 4.98c-6.49,0.06 -6.86,1.53 -6.01,-8.62 -1.94,1.73 -0.92,6.2 -0.91,8.64l-2.61 -0.02 -0.18 -5.58c-0.87,-0.36 -0.83,-0.32 -1.69,-0.15l-0.85 5.69 -4.26 0.03 0.68 -5.79 -2.84 0.02 -0.85 5.67 -2.02 0.1 1.1 -8.87c-0.4,0.31 -0.28,0.15 -0.56,0.64 -0.1,0.17 -0.23,0.57 -0.35,0.81 -0.25,0.53 -0.47,0.82 -0.96,1.12 -1.02,0.62 -2.35,0.39 -3.59,0.52l-0.76 5.7 -2.22 0.07 2.42 -18.02c0.18,-0.93 -0.07,-0.51 0.4,-1.02 0.53,-0.3 4.48,-0.4 5.2,-0.01 1.2,0.65 1.11,3.23 1.13,4.82 1.26,-2.13 0.37,-4.86 3.72,-5.04 4.26,-0.23 3.13,2.12 3.18,5.56 0.81,-1.27 0.35,-4.79 1.23,-5.4 1.27,-0.5 4.71,-0.37 5.44,0.55 1.09,1.38 0.66,3.78 0.73,5.68 1.15,-2.17 0.76,-5 2.74,-6.16 0.25,-0.24 0.04,-0.17 0.5,-0.31l2.06 -0.04c0.93,0.01 1.79,-0.04 2.7,0.14 0.14,0.85 0,1.42 -0.14,2.23 -0.49,2.83 -0.27,1.88 0.2,2.05zm35.15 -5.35c-1.2,0.18 -2.77,0.4 -3.28,-0.72 -1.62,-3.53 0.07,-6.38 3.49,-7.52l-0.21 8.24zm-35.86 -1.83c2.6,-2.28 5.84,-4.53 9.24,-6.6 7.31,-4.45 8.27,-2.78 8.17,-7.75 2.38,1.14 0.13,3.99 -0.09,7.26 -0.18,2.63 0.42,6.65 -0.01,8.96 -3.23,0 -6.46,0 -9.69,0 -7.07,0 -7.81,0.8 -7.62,-1.87zm32.94 -9.38c-5.37,5 -3.72,2.64 -6.68,4.6 -0.02,1.62 3.44,3.98 3.63,6.61 -1.47,0.1 -3.07,0.04 -4.55,0.04 -3.33,0 -3.5,0.4 -3.52,-1.09 -0.03,-2.42 0.63,-5.97 0.92,-8.33 0.33,-2.64 0.89,-5.87 0.72,-8.51 -0.14,-2.11 -1.14,-6.15 -1.03,-7.7 1.41,0.31 5.48,2.72 7.57,3.52 4.81,1.85 7.19,1.12 7.4,3.95 0.21,2.81 -2.23,4.85 -4.46,6.92zm-37.23 11.13c-1.78,0.4 -3.21,-0.99 -4.38,-1.76 -6.07,-4.02 -11.93,-9.66 -15.9,-15.64 -17.8,-26.84 -11.46,-61.3 13.68,-79.67 16.33,-11.94 39.51,-14.85 59.24,-5.46 6.6,3.14 13.79,8.52 18.04,13.5 7.45,8.73 12.41,17.61 14.25,29.71 3.27,21.52 -5.21,41.61 -20.5,54 -1.19,0.97 -6.08,4.77 -7.49,5.2 -1.04,0.32 -11.08,0.25 -12.31,-0.02 -0.54,-3.04 0.44,-11.85 2.37,-13.41 0.64,-0.52 1.63,-1.01 2.4,-1.51 5.1,-3.34 2.55,-1.8 9.46,-2.29 0.48,-4.23 -7.24,-9.35 -7.13,-11.74 1.33,-0.42 6.02,-1.1 9.96,-2.25 2.94,-0.85 6.07,-1.93 8.97,-2.95 3.52,-1.24 5.43,-2.32 7.89,-4.34 1.37,-1.13 5.36,-4.55 5.98,-6.11 0.28,-1.77 -4.06,-4.46 -5.56,-5.15 -4.82,-2.21 -13.66,-1.98 -19,-1.66 -2.2,0.13 -8.11,0.92 -9.85,0.58 -0.33,-1.1 -0.36,-3.42 -0.68,-4.83 -0.47,-2.12 -1.6,-2.59 -1.84,-3.54 -0.49,-1.92 1.4,-2.18 2.97,-2.44 1.17,-0.2 0.98,-0.35 1.5,-1.28 0.66,-1.18 0.59,-0.38 1.36,-1.25 -0.67,-2.32 -1.07,-1.38 0.49,-3.1 0.79,-0.88 0.99,-2.22 0.5,-3.53 -0.77,-2.09 -3.27,-3.26 -6.21,-2.67 -3.14,0.62 -3.22,2.25 -4.22,5.06 -0.86,2.4 -0.17,1.89 -0.45,4.02 -0.24,1.84 -1.41,1.28 -2.83,1.66 -2.9,6.13 -2.5,8.53 -3.09,13.97 -1.09,0.68 -3.4,1.21 -5.02,1.66 -5.74,1.59 -5.19,-3.1 -6.05,-6.43 -0.4,-1.56 -1.96,-3.49 -1.83,-4.88 1.53,-1.2 2.88,0.02 3.86,-1.49 0.44,-0.67 0.43,-1.07 0.9,-1.62 0.51,-0.6 0.83,-0.55 1.43,-1.03 -0.58,-2 -1.28,-0.57 -0,-3.31 0.55,-1.18 0.98,-2.46 0.75,-3.84 -0.89,-0.77 -2.07,-1.68 -3.09,-2.4 -1.04,-0.74 -2.5,-1.42 -3.56,-2.02l-0.74 0.95c-0.21,0.34 -0.26,0.43 -0.53,0.85l-1.54 -0.17c-1,4.94 -1.85,3.09 -2.14,4.41 0.08,1.09 0.33,1.36 0.11,2.51 -0.2,1.08 -0.48,0.87 -0.02,1.87 0.87,1.87 0.64,1.86 -0.59,3.28 -1.34,1.55 -2.94,3.5 -4.44,4.9 -0.86,-0.04 -8.47,-3.77 -10.36,-4.52 -3.38,-1.34 -7.49,-2.9 -11.2,-3.77 -3.12,-0.73 -4,0.26 -5.16,2.17 -1.2,1.97 -1.51,3.16 -0.12,5.21 0.68,1 5,6.77 5.31,7.59 0.24,0.65 0.1,0.19 0.17,0.79l0.04 0.85c1.84,1.06 2.99,0.85 4.6,2.29 1.22,1.09 2.23,2.07 3.53,3.14 1.33,1.09 6.7,4.92 7.03,6.25 0.53,2.14 0.12,4.2 1.99,5.03 2.4,1.06 3.24,-0.42 3.68,2.99 0.26,2.03 0.4,3.96 0.77,5.9 0.29,1.54 1.32,4.17 1.36,5.31 -2.27,1.9 -5.49,2.6 -12.46,9.21 -2.19,2.07 -3.06,0.68 -5.15,2.07 -0.16,2.44 0.82,3.82 0.85,5.15zm-7.87 -0.29l-21.34 0.06c-0.52,2.31 -0.29,19.05 -0.08,22.18l125.17 0.04c0.26,-1.85 0.27,-20.81 -0.04,-22.22l-32.73 -0.02 6.64 -5.75c2.12,-1.93 4.02,-4.04 5.93,-6.5 31.55,-40.69 2.29,-98.9 -48.14,-98.71 -15.37,0.06 -27.36,5.4 -36.81,12.38 -8.34,6.17 -16.45,15.93 -20.88,28.64 -8.57,24.55 -0.41,51.05 18.8,67.08 1.03,0.86 2.64,1.81 3.47,2.8z"/>
   <path class="fil5" d="M124.72 119.21c-1.67,0.7 -1.58,3.07 -1.91,5.06 -0.32,1.93 -1.25,5.6 1.96,4.51 1.44,-0.49 1.44,-3.76 1.63,-5.26 0.2,-1.54 0.85,-5.36 -1.68,-4.3z"/>
   <path class="fil5" d="M61.8 122.91c0.11,-0.7 0.38,-2.35 0.07,-3.08 -0.38,-0.9 -1.78,-0.89 -2.49,-0.27 -0.84,0.73 -1.22,4.12 -1.39,5.53 -0.43,3.5 -0.17,3.83 1.29,3.8 2.18,-0.05 1.87,-1.8 2.52,-5.98z"/>
   <path class="fil5" d="M84.49 123.01c3.32,0.25 2.88,0.08 3.04,-1.43 0.1,-0.93 0.26,-1.54 0.05,-2.55 -1.31,-0.1 -2.55,-0.33 -2.83,0.72 -0.27,0.98 -0.53,2.41 -0.26,3.25z"/>
   <path class="fil5" d="M20.38 123.1l2.18 -0.06c0.39,-0.88 0.49,-3.03 0.34,-3.99 -1.6,-0.1 -2.53,-0.37 -2.84,1.03 -0.09,0.42 -0.29,1.37 -0.35,1.78 -0.12,0.89 -0.3,1.25 0.67,1.25z"/>
   <polygon class="fil5" points="110.59,127.81 110.71,126.35 105.74,126.49 105.68,128.63 110.52,128.74 "/>
   <polygon class="fil5" points="45.24,128.64 45.87,128.57 46.06,126.33 41.05,126.43 41.03,128.61 "/>
   <path class="fil5" d="M110.95 121.76c0.61,-0.28 0.26,0.24 0.5,-0.71 0.05,-0.18 0.03,-0.44 0.1,-0.65 0.24,-0.79 0.08,-0.25 0.27,-0.54l-0.09 -0.28c-0.07,-0.44 0.07,-0.36 -0.3,-0.36 -1,0.69 -3.26,-0.03 -4.58,0.37l-0.36 2.02 4.46 0.15z"/>
   <path class="fil5" d="M27.03 122.68l2.94 -0.02c0.76,-3.41 0.7,-3.3 -0.82,-3.35 -1.57,-0.05 -2.04,-0.57 -2.12,3.37z"/>
   <path class="fil5" d="M54.22 122.61c0.2,-0.46 0.56,-2.36 0.38,-2.85 -0.24,-0.67 -1.9,-0.47 -2.82,-0.41 -0.33,0.72 -0.48,2.21 -0.45,3.33l2.89 -0.07z"/>
   <path class="fil5" d="M91.62 122.66c1.05,0.07 2.26,0.14 2.95,-0.15 0.37,-0.74 0.52,-2.06 0.43,-3.05l-2.8 -0.18 -0.58 3.38z"/>
   <path class="fil5" d="M115.91 122.58l2.91 0.09c0.33,-0.83 0.64,-2.2 0.5,-3.14l-2.96 -0.2 -0.45 3.25z"/>
   <path class="fil5" d="M41.86 120.42l-0.02 0.88 5.16 0.27 0 -1.64 -0.08 -0.5c-0.92,0.05 -4.19,-0.11 -4.67,0.5l-0.39 0.48z"/>
   <path class="fil5" d="M12.67 122.71c2.44,0 3.41,0.69 3.23,-3.33l-2.97 0.73 -0.26 2.6z"/>
   <polygon class="fil5" points="80.2,122.52 80.48,119.53 77.66,119.56 77.25,122.61 "/>
   <path class="fil6" d="M35.42 113.32c-0.03,-1.33 -1,-2.7 -0.85,-5.15 2.09,-1.39 2.96,0 5.15,-2.07 6.97,-6.6 10.2,-7.31 12.46,-9.21 -0.05,-1.13 -1.07,-3.76 -1.36,-5.31 -0.37,-1.94 -0.51,-3.86 -0.77,-5.9 -0.44,-3.42 -1.29,-1.93 -3.68,-2.99 -1.87,-0.83 -1.45,-2.89 -1.99,-5.03 -0.33,-1.33 -5.71,-5.16 -7.03,-6.25 -1.3,-1.07 -2.31,-2.05 -3.53,-3.14 -1.61,-1.45 -2.76,-1.23 -4.6,-2.29l-0.04 -0.85c-0.07,-0.6 0.07,-0.14 -0.17,-0.79 -0.31,-0.82 -4.63,-6.59 -5.31,-7.59 -1.39,-2.05 -1.08,-3.24 0.12,-5.21 1.16,-1.91 2.04,-2.9 5.16,-2.17 3.71,0.87 7.82,2.43 11.2,3.77 1.89,0.75 9.49,4.48 10.36,4.52 1.5,-1.4 3.1,-3.35 4.44,-4.9 1.23,-1.42 1.47,-1.42 0.59,-3.28 -0.46,-0.99 -0.18,-0.78 0.02,-1.87 0.22,-1.16 -0.03,-1.43 -0.11,-2.51 0.3,-1.32 1.14,0.53 2.14,-4.41l1.54 0.17c0.27,-0.42 0.32,-0.52 0.53,-0.85l0.74 -0.95c1.07,0.6 2.53,1.28 3.56,2.02 1.02,0.72 2.2,1.64 3.09,2.4 0.23,1.38 -0.2,2.66 -0.75,3.84 -1.27,2.74 -0.58,1.3 0,3.31 -0.6,0.48 -0.92,0.42 -1.43,1.03 -0.47,0.56 -0.46,0.96 -0.9,1.62 -0.99,1.51 -2.34,0.29 -3.86,1.49 -0.13,1.39 1.42,3.31 1.83,4.88 0.86,3.33 0.3,8.03 6.05,6.43 1.62,-0.45 3.93,-0.97 5.02,-1.66 0.59,-5.44 0.19,-7.83 3.09,-13.97 1.42,-0.38 2.59,0.18 2.83,-1.66 0.28,-2.13 -0.4,-1.62 0.45,-4.02 1,-2.81 1.08,-4.44 4.22,-5.06 2.94,-0.58 5.43,0.59 6.21,2.67 0.48,1.31 0.29,2.65 -0.5,3.53 -1.56,1.72 -1.16,0.79 -0.49,3.1 -0.77,0.87 -0.71,0.07 -1.36,1.25 -0.52,0.94 -0.34,1.08 -1.5,1.28 -1.57,0.27 -3.45,0.53 -2.97,2.44 0.24,0.95 1.37,1.42 1.84,3.54 0.31,1.41 0.35,3.73 0.68,4.83 1.74,0.34 7.65,-0.45 9.85,-0.58 5.34,-0.32 14.18,-0.56 19,1.66 1.5,0.69 5.84,3.38 5.56,5.15 -0.61,1.57 -4.6,4.99 -5.98,6.11 -2.46,2.02 -4.37,3.1 -7.89,4.34 -2.9,1.02 -6.03,2.1 -8.97,2.95 -3.94,1.14 -8.62,1.83 -9.96,2.25 -0.11,2.38 7.61,7.51 7.13,11.74 -6.92,0.5 -4.37,-1.05 -9.46,2.29 -0.77,0.5 -1.77,0.99 -2.4,1.51 -1.92,1.56 -2.9,10.37 -2.37,13.41 1.24,0.27 11.28,0.34 12.31,0.02 1.4,-0.43 6.29,-4.24 7.49,-5.2 15.29,-12.39 23.77,-32.48 20.5,-54 -1.84,-12.1 -6.8,-20.97 -14.25,-29.71 -4.25,-4.98 -11.44,-10.36 -18.04,-13.5 -19.73,-9.39 -42.91,-6.48 -59.24,5.46 -25.14,18.37 -31.47,52.83 -13.68,79.67 3.97,5.98 9.83,11.62 15.9,15.64 1.16,0.77 2.59,2.16 4.38,1.76z"/>
   <path class="fil6" d="M69.59 113.4c-0.2,-2.63 -3.65,-4.99 -3.63,-6.61 2.96,-1.95 1.31,0.4 6.68,-4.6 2.22,-2.07 4.67,-4.1 4.46,-6.92 -0.21,-2.84 -2.59,-2.1 -7.4,-3.95 -2.09,-0.8 -6.16,-3.21 -7.57,-3.52 -0.11,1.55 0.89,5.59 1.03,7.7 0.17,2.64 -0.39,5.87 -0.72,8.51 -0.29,2.36 -0.95,5.92 -0.92,8.33 0.02,1.49 0.18,1.09 3.52,1.09 1.49,-0 3.09,0.06 4.55,-0.04z"/>
   <path class="fil6" d="M39.7 111.58c-0.2,2.67 0.55,1.87 7.62,1.87 3.23,0 6.46,0 9.69,0 0.43,-2.3 -0.16,-6.33 0.01,-8.96 0.22,-3.27 2.47,-6.12 0.09,-7.26 0.1,4.97 -0.86,3.3 -8.17,7.75 -3.4,2.07 -6.65,4.32 -9.24,6.6z"/>
   <path class="fil6" d="M75.56 113.4l0.21 -8.24c-3.43,1.14 -5.11,3.99 -3.49,7.52 0.51,1.12 2.08,0.9 3.28,0.72z"/>
   <path class="fil7" d="M22.82 111.47c-0.41,-0.95 -0.97,-1.07 -1.63,-1.79 -1.27,-1.38 -2.13,-1.72 -4.65,-4.56 -5.85,-6.59 -10.66,-14.16 -13.26,-23.34 -5.95,-21.09 -2.39,-40.55 10.48,-57.33 0.92,-1.19 1.89,-2.37 2.81,-3.41l6.26 -5.94c10.2,-8.37 24.25,-14.5 40.37,-14.5 29.08,0.01 50.69,19.32 58.25,39.88 5.2,14.14 5.69,26.84 1.33,41.65 -2.42,8.23 -7.93,17.4 -13.41,23.19l-6.16 6.11c3.55,0.48 10.4,0.08 14.31,0.08 16.93,0 15.42,-1.67 15.45,5.88l-0 14.27c-0.01,2.33 0.55,4.82 -1.7,5.21 -1.43,0.25 -117.73,0.05 -120.78,0.05 -2.96,0 -5.09,0.51 -5.74,-1.32 -0.49,-1.39 -0.15,-11.7 -0.16,-14.06 -0.08,-10.12 -0.79,-10.03 4.06,-10.03 4.64,-0.01 9.57,0.14 14.17,-0.03zm21.74 -108.72c-0.81,0.44 -2.8,0.95 -3.74,1.32 -1.3,0.51 -2.62,0.99 -3.91,1.62 -7.07,3.4 -13.88,7.85 -19.22,13.48 -7.14,7.54 -13.29,17.72 -15.71,28.04 -4.36,18.66 -1.61,36.78 9.32,52.11 1.66,2.33 3.09,3.98 4.8,6.02 1.93,2.31 5.05,4.83 5.55,5.71 -4.77,0.09 -9.62,0.01 -14.39,0.01 -4.37,-0.01 -3.29,3.64 -3.29,10.94 0,2.45 -0.28,12.45 0.33,14.01 0.77,1.97 3.4,1.44 5.74,1.44l107.26 -0.04c3.24,-0 11.44,0.39 14.07,-0.12 2.48,-0.48 2.12,-2.62 2.11,-5.15l0 -14.27c-0,-1.96 0.51,-5.4 -0.88,-6.32 -2.11,-1.41 -23.62,0.2 -28.22,-0.54 0.03,-0.09 2.81,-2.85 3.23,-3.28 1.23,-1.23 2.31,-2.24 3.49,-3.65 6.86,-8.14 11.81,-17.33 13.92,-28.68 2.61,-14.05 0.89,-28.55 -5.81,-41.15 -0.57,-1.06 -2.36,-3.82 -2.49,-4.58 -1.08,-0.8 -9.12,-16.08 -27.95,-24.16 -6.26,-2.69 -13.12,-4.65 -20.75,-5.24 -10.5,-0.82 -14.09,0.51 -23.46,2.5z"/>
   <path class="fil8" d="M84.49 123.01c-0.27,-0.83 -0.01,-2.26 0.26,-3.25 0.29,-1.05 1.53,-0.82 2.83,-0.72 0.21,1 0.04,1.61 -0.05,2.55 -0.16,1.51 0.28,1.68 -3.04,1.43zm-2.09 -6.66c-0.25,1.21 -0.13,3.4 -0.31,4.68 -0.2,1.45 -0.67,2.59 -0.71,4.11 0.79,0.48 0.53,-1.03 0.49,1.13 -0,0 -0.17,0.92 -0.18,1.01 -0.12,0.7 -0.19,1.27 -0.3,2.02 -0.18,1.22 -0.56,3.25 -0.54,4.41 0.91,0.01 1.32,0.11 2.09,-0.16l0.68 -5.43c0.87,-0.33 1.89,-0.18 2.9,-0.13l-0.61 5.76 2.38 -0.1c0,-2.12 2.42,-13.72 1.95,-15.71 -0.63,-0.62 -0.39,-0.8 -0.59,-1.76 -0.38,-1.8 -1.81,-2.01 -3.66,-1.75 -1.96,0.28 -2.46,2.2 -3,4.33 -0.34,-0.35 -0.3,-1.04 -0.33,-1.37 -0.07,-0.78 0.14,-0.56 -0.26,-1.03z"/>
   <path class="fil9" d="M110.95 121.76c0.13,0.83 -0.21,3.34 -0.43,4.24 -1.31,0.31 -3.7,-0.01 -4.28,0.16 -0.58,0.17 -0.16,-0.03 -0.51,0.33l4.97 -0.14 -0.12 1.46c0.5,-0.89 0.56,-2.54 0.72,-3.79 0.18,-1.43 0.43,-2.75 0.51,-4.16 -0.19,0.3 -0.03,-0.25 -0.27,0.54 -0.06,0.21 -0.05,0.48 -0.1,0.65 -0.24,0.95 0.11,0.43 -0.5,0.71z"/>
   <path class="fil10" d="M111.43 119.21c0.37,0 0.23,-0.08 0.3,0.36 0.09,-0.17 0.09,0.02 0.26,-0.58 0.01,-0.02 0.11,-0.59 0.12,-0.64l0.5 -3.79c-0.64,-0.12 -1.55,-0.2 -2.46,-0.19l-2.08 0.01c-0.97,0.16 -0.47,0.13 -0.72,0.3l4.77 -0.09 -0.69 4.62z"/>
   <path class="fil11" d="M39.59 118.95c0.56,0.31 0.33,-0.01 0.35,0.68 0,0.01 -0.17,0.74 -0.18,0.76 -0.15,0.61 -0.22,1.08 -0.3,1.72 0.47,-0.68 0.34,-0.59 0.53,-1.52 0.13,-0.64 0.25,-1.15 0.41,-1.84 -0.47,-0.18 -0.69,0.78 -0.2,-2.05 0.14,-0.81 0.28,-1.38 0.14,-2.23 -0.91,-0.18 -1.77,-0.13 -2.7,-0.14l-2.06 0.04c-0.46,0.14 -0.26,0.08 -0.5,0.31 1.61,-0.33 3.46,-0.11 5.12,-0.09l-0.61 4.36z"/>
   <path class="fil12" d="M73.33 118.11c0.39,-0.42 0.27,0.34 0.55,-1.73 0.11,-0.79 0.24,-1.19 0.16,-1.95l-3.96 -0.09c-0.88,0.05 -0.68,-0.08 -1.1,0.39l4.86 -0.15 -0.52 3.54z"/>
   <path class="fil13" d="M80.2 122.52c0.5,-0.68 0.63,-2.2 0.55,-3.07l-2.37 -0.26c-0.95,0.16 -0.39,0.02 -0.72,0.36l2.82 -0.03 -0.28 2.99z"/>
  </g>
 </g>
</svg>
