<?xml version="1.0" encoding="UTF-8"?>
<!DOCTYPE svg PUBLIC "-//W3C//DTD SVG 1.1//EN" "http://www.w3.org/Graphics/SVG/1.1/DTD/svg11.dtd">
<!-- Creator: CorelDRAW -->
<svg xmlns="http://www.w3.org/2000/svg" xml:space="preserve" width="24.837mm" height="25.537mm" version="1.1" style="shape-rendering:geometricPrecision; text-rendering:geometricPrecision; image-rendering:optimizeQuality; fill-rule:evenodd; clip-rule:evenodd"
viewBox="0 0 258.08 265.35"
 xmlns:xlink="http://www.w3.org/1999/xlink"
 xmlns:xodm="http://www.corel.com/coreldraw/odm/2003">
 <defs>
  <style type="text/css">
   <![CDATA[
    .fil0 {fill:black}
    .fil6 {fill:#747373}
    .fil7 {fill:#918E8F}
    .fil9 {fill:#987A26}
    .fil11 {fill:#E3B22B}
    .fil5 {fill:#E9B638}
    .fil8 {fill:#EEB678}
    .fil4 {fill:#FAF9F9}
    .fil3 {fill:#FBFBFB}
    .fil2 {fill:#FDFDFD}
    .fil10 {fill:#FEC467}
    .fil1 {fill:#FEC82D}
   ]]>
  </style>
 </defs>
 <g id="Camada_x0020_1">
  <metadata id="CorelCorpID_0Corel-Layer"/>
  <g id="_2413234627152">
   <path class="fil0" d="M122.46 3.14c-0.33,1.79 -7.56,8.01 -9.24,9.75 -3.3,3.45 -6.16,6.53 -9.43,10.02 -3.94,4.2 -16.94,17.02 -19.13,20.2l-3.66 0.18 -1.65 -0.52c-4.02,-0.54 -17.16,0.75 -25.32,-0.5l-1.08 0.72c-3.6,2.04 -6.28,0.45 -10.2,4.53 -2.69,2.8 -4.23,6.77 -4.31,11.9 -0.26,17.02 12.47,12.49 19.33,13.19 -0.65,1.79 -5.32,5.76 -6.9,7.72l-50.89 53.19c1.1,7.33 13.16,12.54 13.45,18.34 0.32,6.42 -2.59,8.81 6.04,9.43 6.78,0.49 7.13,2.45 10.53,5.83 5.46,5.44 30.28,29.64 31.46,32.58 -2.95,1.46 -5.39,2.88 -9.61,2.43 -3.92,-0.41 -8.58,-1.2 -11.35,1.31 -1.49,3.02 -1.35,27.65 0.59,29.85 4.25,4.83 9.34,-1.15 11.59,-0.55 1.51,0.41 3.75,2.21 5.76,2.73 3.98,1.04 5.31,-1.25 7.32,-0.04 -1.06,0 -1.31,0.34 -2.14,1.02l8.92 0.39 0.59 -1.22c1.76,-0.15 3.6,-0.13 5.29,-0.63 1.69,-0.5 2.54,-1.48 4.07,-1.45 3.31,0.08 3.01,2.4 9.31,1.67 3.94,-0.46 6.06,1.26 7.99,2.94l17.27 17.94c3.54,4.14 8.98,10.89 13.95,8.87 3,-1.22 7.08,-6.67 8.77,-8.56l8.45 -8.89c10.55,-10.13 8.24,-12.88 22.08,-11.99 6.12,0.39 3.29,2.38 7.25,4.21 5.45,2.51 6.51,-3.54 7.82,-2.05l1.5 -2.36c2.07,0.53 3.42,1.56 6,1.43 2.91,-0.15 2.84,-0.89 6.05,-0.63 3.06,0.24 11.16,-0.26 12.59,0.12 3.42,0.89 6.92,0.94 10.13,-1.96 2.56,-2.31 3.52,-5.2 3.56,-9.87 0.02,-2.41 -0.3,-4.13 -0.75,-6.33 -0.78,-3.82 2.09,-11.07 -2.89,-16.59 -3.86,-4.28 -7.9,-1.18 -17.63,-2.05 -2.36,-0.21 -2.48,-1.14 -3.25,-2.88 3.12,-4.22 3.58,-4.99 11.1,-4.18 0.88,1.12 2.86,2.15 4.39,2.43 11.73,2.18 1.1,-14.6 1.39,-16.12 1.79,-2.77 6.29,-6.86 8.62,-9.25l26.85 -27.79c2.47,-2.61 7.47,-6.17 3.69,-11.56 -2.67,-3.82 -5.8,-6.04 -8.99,-9.41 -2.78,-2.93 -16.81,-16.78 -17.73,-18.87 -2.67,-1.52 -25.89,-25.28 -28.01,-28.19 2.72,-2.94 7.21,-2.33 8.25,-14.17 0.65,-7.44 -0.15,-13.99 -5.95,-16.19 -5.17,-1.96 -14.57,-1.75 -19.34,0.38 -3.89,1.74 -3.13,-0.53 -7.84,-0.88 -6.26,-0.47 -4.66,0.83 -8.14,-3.03l-22.1 -22.56c-3.39,-3.14 -7.73,-7.77 -10.78,-11.28 -7.56,-8.68 -8.87,-6.07 -13.61,-2.75z"/>
   <path class="fil1" d="M240.91 135.22c-0.39,-2.17 -3.42,-6.67 0.3,-7.2 2.46,-0.35 4.98,2.91 3.14,5.42 -2.17,-2.26 0.27,-2.59 -2.63,-4.13 -1.6,2.42 0.74,2.5 0.71,5.26 -0.01,1.81 -0.74,2.09 -1.82,2.27 -2.21,0.36 -6.17,-3.01 -3.1,-5.63l0.38 0.83c0.84,2.74 -0.51,2.84 3.02,3.2zm-7.58 -12.88c6.23,-2.27 7.53,5.94 2.86,7.8 -5.78,2.31 -8.56,-5.73 -2.86,-7.8zm0.75 -3.01c-0.12,0.14 -13.22,9.39 -7.48,-0.92 0.97,-1.73 1.12,-3.58 2.5,-4.27 1.5,2.65 -0.88,3.63 -1.66,7.05 2.53,-0.76 4.58,-3.09 6.63,-1.85zm-13.2 -0.64c0.48,-1.59 1.99,-2.51 3.04,-3.5 1.32,-1.26 1.79,-2.2 3.61,-2.77 -0.08,2.46 -1.28,3.03 -2.62,4.29 -1.24,1.17 -1.68,2.3 -4.03,1.99zm-2.09 -9.81c3.74,-4.08 6.96,1.01 5.07,3.46 -1.55,-1.63 -0.05,-2.36 -2.63,-3.63 -0.95,2.12 -0.55,0.47 0.57,3.26 2.64,6.6 -9.4,3.61 -4.77,-1.77 0.09,0.13 0.19,0.3 0.23,0.41 1.3,3.23 -0.47,3.33 3.28,3.65l-1.76 -5.38zm-9.15 -2.16c0.83,-1.82 4.13,-4.59 5.82,-5.74 1.93,0.87 3.52,2.69 4.3,4.42 -3.9,-0.44 -1.55,-1.76 -4.84,-2.33 0.09,3.29 1.97,1.98 2.01,5.1 -2.7,-0.67 -1.35,-1.7 -4.09,-2.64 -2.32,2.68 0.96,2.64 1.85,5.16 -1.95,0.11 -4.38,-2.47 -5.05,-3.96zm-0.48 -12.07c8.66,3.79 -0.27,14.81 -5.81,5.62l5.81 -5.62zm-12.45 -0.54c0.67,-1.2 0.09,-0.67 1.57,-1.47 2.57,-1.41 4.66,-2.28 7.64,-2.52 -0.36,2.69 -1.95,8.03 -4.01,9.18 -0.83,-4.69 0.47,-1.62 -1.74,-5.25l-3.46 0.06zm-1.2 -5.21c-3.19,2.35 -8.53,-2.82 -4.22,-6.88 3.35,-3.15 8.9,-0.24 6.77,4.09 -1.47,-1.32 -0.69,-2 -2.56,-3.64 -3.4,-1.39 -6.35,5.54 -1.35,5.53 0.18,-2.05 -0.77,-1.4 0.3,-3.01 1.96,1.32 2.6,2.35 1.06,3.9zm-6.52 -7.4c-1.43,3.98 -8.42,-1.39 -4.03,-5.82 3.66,-3.7 8.47,0.08 6.86,3.62 -1.58,-0.25 -0.88,0.14 -1.53,-1.55 -0.53,-1.38 -0.21,-0.96 -1.1,-1.91 -2.06,-0.01 -3.89,1.19 -3.97,3.13 -0.09,2.14 1.97,1.76 3.77,2.53zm-129.98 -3.81c-1.1,2.23 -24.36,25.42 -26.85,28.03 -4.58,4.8 -8.68,8.86 -13.48,13.84 -2.35,2.44 -12.31,12.3 -13.39,14.48 1.3,2.79 8.28,8.43 10.36,11.69 1.65,-0.97 0.36,0.43 0.84,-1.7 -0.81,-2.21 0.55,-3.46 1.41,-4.79 3.21,-4.98 1.71,-12.84 6.86,-13.51 11.56,-1.51 9.02,6.64 13.81,12.81 8.52,0.83 7.46,-3.31 16.59,-11.4 2.79,-2.48 9.33,-2.67 9.5,1.62 0.09,2.12 -2.39,8.45 -2.81,11.71l5.31 -1.73c1.72,-0.57 9.04,-8.03 9.52,-9.42 -2.96,-1.89 -4.42,-2.72 -1.57,-6.38 1.53,-1.97 3.44,-3.27 6.51,-3.86 4.64,-0.9 7.03,1.18 8.63,0.96 2.67,-0.37 3.57,-2.88 7.86,0.02 1.38,5.72 -4.88,7.15 -7.52,9.27 2.56,10.03 6.27,9.87 6.9,11.03 0.77,2.56 -0.99,7.13 2.18,9.24 0.27,-8.3 0.09,-6.99 3.03,-13.3 6.23,-13.35 15.72,-10.83 29.25,-10.68 3.09,0.03 5.01,-0.31 6.48,1.47 2.02,3.77 -0.92,6.03 -4.87,6.08 -3.73,0.04 -7.7,-0.23 -11.6,0.03l-1.34 5.75c4.58,-0.04 10.48,-0.67 13.55,1.21 2.19,8.72 -9,5.62 -15.8,6.25l-1.19 5.61c4.16,0.35 17.95,-2.04 14.14,5.54 -0.91,1.81 -2.2,1.86 -4.59,1.94l-20.17 -0.07c-2.25,-0.51 -2.68,-1.54 -4.55,-2.23 -1.91,1.45 -1,2.21 -4.22,2.51l-13.02 -0.08c-2.09,-0.31 -2.54,-1.34 -3.77,-2.26 -1.81,1.37 -0.88,1.91 -4.16,2.16l-28.94 0.05c-9.67,0.05 -6.15,-0.23 -8.93,-2.7 -1.8,0.87 -0.65,1.11 -3.01,2.09 -3.73,1.55 -7.72,0.74 -9.15,-4.07 -2.73,0.31 10.93,13.06 11.93,14.06 7.72,7.74 24.94,26.79 31.43,32.66 2.11,1.91 2.91,0.94 5.36,2.03 4.41,1.97 2.8,6.37 5.47,9.21 0.83,-1.44 0.22,-0.54 0.6,-2.09l0.64 -2.07c-0.17,-5.56 7.2,-8.27 11.32,-4.28 2.82,-1.07 0.28,-1.41 5.27,-1.37 2.16,0.02 5.24,-0.18 7.26,0.15 6.25,1.02 2.61,-1.19 12.28,0.26 1.72,-0.29 1.58,-0.61 3.12,0.03 3.82,-1.21 7.97,-1.18 9.8,2.2 0.79,1.46 1.17,3.77 1.24,5.63 0.12,3.55 -0.16,3.13 -1.93,4.71 3.54,4.69 4.21,18.05 -4.94,17.88 -3.14,-0.06 -2.35,-1.25 -5.47,-0.81 -2.78,0.39 -10.52,0.53 -13.13,-0.09 -3.22,-0.76 -1.76,0.65 -5.17,0.63 0.93,2.33 17.39,18.36 19.89,20.94 1.95,2.02 4.45,5.81 7.2,6.69 5.08,-6.59 23.99,-23.78 26.13,-27.81l-4.72 -0.15c-1.41,-0.36 -0.71,0.05 -1.48,-0.77l-0.53 -0.4c-0.21,-0.21 -0.65,-0.74 -0.65,-0.75 -2.96,2.26 -6.92,4.22 -10.55,0.44 -3,-3.12 -3.73,-22.87 0.3,-27.11 1.23,-1.29 3.01,-2.33 5.42,-2.14 2.27,0.18 3.51,1.68 4.83,2.81 1.02,-1.57 0.1,-1.8 2.19,-2.24 2.04,-0.43 8.05,-0.75 10.29,1.96 0.1,0.13 0.39,0.53 0.49,0.66 0.52,0.64 0.4,0.58 0.88,1.03l1.02 -2.86c1.19,-1.25 0.53,-0.8 2.95,-0.91 0.94,-0.04 3.39,-0.07 4.27,0.01 2.91,0.26 2.38,1.71 2.9,4.84 1.58,-2.08 1.74,-3.64 4.49,-4.89 3.29,-1.5 4.54,0.32 7.82,0.41 1.3,-1.39 1.4,-2 2.37,-3.4 1.65,-2.39 7.29,-5.31 9.37,-9.45 -7.46,1.14 -24.07,6.5 -31.51,4.28 -7.05,-2.11 -6.7,-21.37 -5.94,-29.19 2.66,-27.49 -17.98,-46.16 -7.91,-58.49 3.74,0.8 2.19,1.12 3.46,4.06 1.49,3.43 1.27,-0.51 2.03,5.92 3.09,0.3 10.72,-7.51 11.2,-8.27l-1.86 -3.2c-4.22,2.08 -3.21,3.31 -7.11,-1.34l-2.58 -1.77c0.35,-5.75 -1.52,-5.14 -1.65,-9.46 -0.11,-3.63 1.88,-5.52 3.28,-7.94 3.36,-5.81 11.76,-3.58 15.02,0.86 3.14,4.27 4.71,10.13 7.4,14.66 2.09,3.52 2.22,3.19 3.16,7.97 1.19,6.07 3.12,1.67 1.84,8.3 3.3,0.88 0.06,-0.86 1.34,-0.21l-0.86 5.23c1.11,0.33 -0.73,-0.01 0.63,-0.03 0.02,-0 0.17,-0.01 0.2,-0.01l-2.69 4.45c-0,-0.03 0.28,-1.11 -0.25,-1.95 -1.96,1.45 -1.74,1.19 -4.5,0.93l-5.55 13.33c-1.61,5.88 3.45,8.14 5.01,13.54 3.38,11.71 -6,15.94 -6.29,30.02 2.22,-0.15 5.46,-1.64 8.57,-2.11l15.3 -1.03c3.26,-0.38 2.03,-0.28 3.66,-2.06 1.93,-2.1 5.6,-1.25 9.06,-2.06 1.89,-1.2 2.25,-0.9 3.38,0 1.26,-1.69 3.15,-3.29 4.68,-4.97 1.71,-1.89 3.1,-3.29 4.86,-5.13l24.85 -25.58c1.36,-1.41 4.39,-3.63 4.59,-5.73l-58.97 -60.66c-2.37,-2.48 -2.22,-1.82 -5.92,-2.57 -3.73,-0.76 -2.85,-2.04 -5.36,-3.14 -4.91,4.1 -4.89,3.16 -13.13,3.16 -4.64,-0 -11.62,0.41 -15.98,-0.21 -0.84,-2.06 -0.33,-3.43 -0.59,-5.93l-4.69 -0.04 -1.14 6.08 -25.73 -0.09c-0.79,0.79 1.11,1.14 -1.72,0.94 -1.34,-0.1 -1.14,-0.99 -1.25,-1.2 -2.06,0.86 -13.86,1.03 -16.16,0.19 -2.49,-1.41 -1.36,-5.38 -5.33,-6.46 -0.24,1.12 -0.26,2.39 -0.48,3.7 -0.84,5.15 -4.78,2.64 -11.08,2.4 -1.09,-0.04 -2.6,0.59 -4.62,0.67 -7.6,0.32 -11.64,-1.35 -14.93,1.99 -1.79,1.81 -3.49,4.32 -5.48,5.31z"/>
   <path class="fil1" d="M91.39 44.47c1.19,2.71 9.13,-1.94 17.4,2.97 0.09,-0.11 0.18,-0.45 0.22,-0.36 0.54,1.26 -0.38,-0.83 1.58,-1.53 0.43,-0.15 2.88,-0.28 3.45,-0.29 3.21,-0.05 5.42,1.07 6.78,0.98 1.73,-0.11 3.47,-0.95 6.35,-1 2.62,-0.05 5.28,0.02 7.91,0.06 3.63,0.05 3.45,0.17 6.53,0.83 2.06,0.44 4.16,-0.84 6.58,-0.95 9.53,-0.45 9.53,1.4 13.42,0.92 1.13,-1.17 1.51,-0.66 3.62,-0.55 -2.29,-4.77 -14.13,-14.59 -18.39,-19.42 -2.73,-3.1 -16.23,-18.05 -18.59,-19.15 -9.05,8.11 -30.77,32.41 -36.84,37.49z"/>
   <path class="fil2" d="M71.61 60.63c2.67,-0.19 6.67,-0.35 8.75,0.4 0.06,3.08 -2.35,2.77 -8.86,2.42l0.12 -2.82zm31.29 -7.22c0.01,0 1.29,-0.52 0.68,1.68 -0.41,1.48 -0.06,0.79 -1.15,0.96 -0.96,0.95 0.17,0.56 -2.01,0.74l-6.36 -0.22 0.15 -4.03 7.22 -0.07c2.38,0.63 0.87,0.23 1.47,0.94zm-30.98 -0.37c2.51,-0.21 7.14,-0.81 9.17,0.61 -0.29,2.19 -0.53,1.9 -3.3,1.9 -5.63,0 -4.93,0.49 -5.87,-0.84l0 -1.66zm-7.43 10.62l0.2 4.56c6.06,0.56 18.43,1.75 20.83,-2.7l0.88 1.72c0.26,0.69 -0.17,0.23 0.32,1.27l5.67 -0.01c1.12,-2.29 0.36,-4.08 1.16,-6.41l5.25 -0.26 3.02 6.53 7.18 0.12c-0.94,-2.17 -2.34,-4.31 -2.94,-6.93 1.45,-2.29 2.92,-2.28 3.25,-6.32 0.29,-3.52 -0.73,-5.36 -2.88,-6.57 -2.66,-1.5 -14.62,-1.52 -18.01,-0.79 -0.23,2.2 -0.57,9.9 -1.71,11.71 -2.16,-2.65 -0.85,-2.01 -0.17,-5 0.88,-3.86 -0.44,-3.55 -0.88,-5.63 -4.43,-1.62 -13.91,-1.92 -19.22,-0.89l-1.08 11.45c-0.06,0.65 -0.05,1.4 -0.16,2.03 -0.22,1.33 0.13,-0.2 -0.2,0.94 -0.49,1.71 -0.03,0.47 -0.52,1.18z"/>
   <path class="fil2" d="M17.38 155.58c0.27,1.77 -1.46,1.66 4.21,1.55 0.56,-0.76 0.36,-0.62 0.76,-1.28 0.06,-0.11 0.14,-0.25 0.21,-0.36l0.71 -1.16c-0.3,-2.5 1.01,-5.83 1.89,-8.22 1.89,1.1 4.7,8.87 7.45,11.41 4.5,-1.6 8.57,-9.12 12.5,-10.65l-2.67 10.11 11.17 0.2c0.78,-2.31 2.99,-9.5 2.52,-11.84 -3.29,-0.05 -6.57,-0.09 -9.86,-0.08 -1.16,0 -3.42,-0.09 -4.44,0.2 -2.1,0.6 -0.77,1.12 -2.91,2.18l-1.56 -2.4c-18.99,-0.11 -16.83,-1.48 -18.61,5.49 -0.31,1.2 -0.86,3.87 -1.37,4.83z"/>
   <path class="fil2" d="M48.77 62.66c-1.11,-2.19 -1.22,-4.31 -0.44,-7.44 0.76,-3.05 2.84,-2.81 5.84,-2.74 4.8,0.11 5.29,2.06 4.32,7.49 -0.8,4.48 -6.37,3.68 -9.73,2.69zm-4.36 5.02c3.31,1.41 8.06,1.08 12.41,0.94 6.15,-0.2 5.28,-3.35 7.1,-5.52 2.17,-14.47 1.13,-16.64 -14,-15.5 -8.63,0.65 -9.65,14.74 -5.51,20.07z"/>
   <path class="fil2" d="M199.33 59.43c-0.5,3.95 -2.67,4.09 -7.04,3.86 -4.36,-0.23 -4.01,-3.39 -3.34,-7.21 0.63,-3.63 3.04,-3.77 7.1,-3.55 4.21,0.23 3.78,2.95 3.29,6.9zm-13.26 -10.26c-3.35,4.8 -4.3,15.35 -1.1,18.15 2.03,1.77 6.09,1.33 9.46,1.35 4.62,0.02 6.28,-0.41 8.75,-2.31 1.73,-3.81 4.23,-13.76 0.62,-17.36 -2.91,-2.9 -14.53,-1.78 -17.74,0.17z"/>
   <path class="fil2" d="M146.27 52.58l8.73 0.09 -0.18 4.01 -9.34 -0.06 0.78 -4.04zm-7.28 15.63l5.36 0.06 0.58 -6.12 9.12 -0.21 -0.26 6.44 5.32 -0.05c1.84,-19.54 4.04,-20.72 -9.34,-20.72 -5.65,0 -8.64,1.19 -9.56,6.57 -0.59,3.43 -1.28,10.71 -1.23,14.05z"/>
   <path class="fil2" d="M167.35 52.85l7.96 0.1c3.9,1.18 1.08,8.13 0.17,10.15l-9.46 -0 1.33 -10.25zm14.2 -2.9c-2.5,-1.66 -4.33,-2.17 -8.66,-2.24 -3.67,-0.06 -7.38,-0.06 -11.03,0.3 0.91,2.43 -1.49,16.18 -1.46,20.29 5.23,0.36 15.31,1.44 18.55,-1.75 1.92,-1.89 2.77,-4.01 3.23,-7.3 0.55,-3.9 -0.34,-6.51 -0.63,-9.3z"/>
   <path class="fil2" d="M125 53.24c0.61,-0.43 -0.11,-0.66 3.22,-0.78l10.73 -0.25 0.62 -4.39 -15.18 0.14c-5.9,0.32 -8.41,10.17 -6.62,16.16 1.15,3.87 3.37,4.31 7.83,4.29 3.73,-0.01 8.35,0.23 11.96,-0.15l1.19 -11.36 -5.43 -0.01c-0.86,4.79 0.39,5.66 -1.94,6.15 -1.95,0.41 -5.95,0.22 -7.36,-0.37 -1.85,-2.22 -0.65,-7.8 0.98,-9.42z"/>
   <path class="fil2" d="M142.42 209.17c1.35,1.98 0.66,6.28 0.66,8.92 0,2.32 0.48,7.76 -0.6,9.35 -1.92,-1.04 -1.11,-3.47 -1.11,-8.83 0,-1.75 0.01,-3.51 -0.01,-5.26 -0.02,-2.24 -0.59,-3.32 1.06,-4.19zm-5.91 7.34c0,6.36 -1.01,15.83 6.36,15.18 5.49,-0.49 5,-7.6 5.03,-13.08 0.03,-5.09 0.61,-12.61 -4.51,-13.67 -6.7,-1.4 -6.87,6.04 -6.87,11.57z"/>
   <path class="fil2" d="M154.32 212.85c0.1,-2.93 0.71,-2.87 0.71,-2.88 0.62,0.84 0.76,0.5 0.81,2.82 0.02,0.88 -0.05,1.98 -0.05,2.89 -1.59,-0.64 -1.61,0.83 -1.48,-2.84zm1.29 18.18l4.64 -0.08 -0.26 -11.44 -1.48 -1.86c1.71,-1.58 1.83,-1.37 1.92,-4.25 0.24,-7.49 -2.12,-9.1 -10.6,-7.93l-0.1 25.64 4.75 0.11c0.14,-3.19 -0.88,-9.19 0.55,-11.43 1.69,1.76 0.93,8.46 0.58,11.24z"/>
   <path class="fil2" d="M72.54 215.57c-1.51,-1 -1.59,-4.8 0,-5.8 1.3,1.57 0.86,4.44 0,5.8zm3.34 2.52c0,-0.01 3.28,-3.93 1.11,-10.23 -1.03,-2.99 -5.96,-2.93 -9.76,-2.26l-0.29 25.52 4.71 -0.05 0.37 -11.2c1.44,0.38 0.86,-0.92 1.25,1.84l0.04 9.5 4.17 -0.32c0.48,-2.38 0.19,-5.1 0.16,-7.57 -0.05,-3.3 0.07,-3.07 -1.75,-5.23z"/>
   <path class="fil2" d="M96.56 229.5c2.03,1.45 3.79,2.61 7.51,1.77 3.19,-3.99 2.5,-4.51 2.61,-11.08 0.08,-4.94 0.33,-9.91 0.09,-14.85l-4.7 0.11c-0.24,4.51 0.81,19.35 -0.63,22.03 -1.61,-0.91 -0.9,-8.4 -0.9,-10.44 0,-3.81 0.14,-7.86 -0.1,-11.64l-4.68 0.03c-0.51,9.35 0.54,16.22 0.79,24.07z"/>
   <path class="fil2" d="M192.33 227.4c-1.41,-1.87 -0.59,-10.44 -0.61,-14.57 -0.02,-4.49 0.3,-3.33 1.13,-3.79 1.31,2.23 0.63,6.7 0.63,9.59 0,4.63 0.8,7.97 -1.15,8.78zm-5.17 -0.37c0.68,5.86 9.58,6.09 10.67,0.34 0.31,-1.61 0.3,-16.38 0,-18.02 -1.06,-5.83 -9.31,-5.62 -10.53,-0.5 -0.36,1.49 -0.38,16.15 -0.14,18.18z"/>
   <path class="fil2" d="M59.94 227.38c-2.17,-0.93 -1.15,-6.96 -1.15,-9.29 0,-5.03 -0.83,-7.98 1.15,-8.87 1.19,1.52 1.3,16.6 0,18.16zm-5.59 0.17c1,5.16 9.1,5.51 10.5,0.29 0.39,-1.47 0.42,-16.73 0.12,-18.53 -0.98,-5.9 -9.31,-5.64 -10.54,-0.48 -0.31,1.29 -0.35,17.29 -0.08,18.72z"/>
   <path class="fil2" d="M113.52 222.24c-1.18,-1.87 -0.81,-8.33 0.4,-10.27 0.28,1.92 0.35,3.67 0.41,5.61 0.16,5.11 -0.08,3.93 -0.8,4.66zm-5.86 8.98l4.66 -0.09c0.81,-2.96 -0.42,-3.56 1.73,-4.58 0.08,0.11 0.17,0.16 0.2,0.36l0.56 4.14 4.88 0.2 -2.67 -25.91c-4.49,-0.5 -6.51,-0.78 -7.01,1.25l-2.34 24.64z"/>
   <path class="fil2" d="M179.72 227.17c-1.65,-1.12 -0.94,-5.16 -0.94,-9.07 0,-2.73 -0.55,-6.84 0.41,-9 1.84,0.55 1.45,0.47 1.56,3.18 0.06,1.51 0.04,2.53 0.25,4.14l3.97 0.05c2.5,-14.33 -10.27,-15.16 -10.78,-4.64 -1.06,21.68 2.29,17.1 6.02,22.56 -0.11,0.07 -0.29,0.07 -0.37,0.09l-2.66 1.04c3.28,2.91 5.55,0.63 3.62,-3.76 1.87,-1 3.08,-0.96 4.02,-3.87 0.7,-2.16 0.65,-4.81 0.03,-6.97l-3.83 0.08c-0.61,2.74 0.58,4.86 -1.29,6.18z"/>
   <path class="fil2" d="M167.49 211.96c0.36,2.2 1.28,8.68 -0.37,10.3 -0.72,-0.91 -0.58,0.32 -0.69,-2.02 -0.1,-1.99 0.11,-7.04 1.06,-8.28zm-6.09 16.65l-0.31 2.1c1.16,0.77 3.06,0.42 4.76,0.3 0.65,-2.33 -0.24,-3.42 1.26,-4.5 3.66,1.68 -2.62,5.31 6.18,4.55l-2.69 -25.41 -1.66 -0.48c-3.19,0.04 -4.85,-0.95 -5.44,1.9 -0.39,1.89 -0.47,5.12 -0.7,7.27 -0.51,4.81 -0.93,9.51 -1.39,14.28z"/>
   <path class="fil2" d="M83.44 215.32l1.18 1.79c1.5,2.39 8.27,6.83 4.21,10.28 -1.92,-2.82 1.09,-6.93 -4.83,-5.18 -1.1,2.61 -0.05,6.92 1.83,8.34 3.76,2.85 7.98,-0.71 8.13,-1.23 0.05,-0.19 0.21,-0.2 0.33,-0.28 -0.31,-4.3 0.8,-8.15 -1.8,-11.44 -1.21,-1.53 -7.47,-5.83 -3.66,-8.3 1.12,1.37 0.58,1.81 0.94,3.55l4.22 0.1c0.14,-5.12 -0.68,-8.81 -6.2,-8.13 -5.45,0.68 -3.51,6.27 -4.35,10.51z"/>
   <path class="fil2" d="M125.06 227.33c-1.2,-2.25 0,-2.81 -1.03,-5.27l-3.62 0.62c-0.89,11.86 9.48,11.44 10.49,4.34 1.82,-12.75 -8.56,-11.14 -5.83,-17.6 1.95,0.47 1.04,1.13 1.38,3.52 2,0.34 3.84,0.99 4.31,-1.2 1.48,-7.02 -8.15,-9.96 -10.18,-3.38 -3.23,10.48 11.6,16.24 4.47,18.97z"/>
   <path class="fil2" d="M209.62 224.93c0,4 1.3,6.61 5.31,6.67 3.95,0.06 5.04,-2.43 5.19,-6.12 0.49,-11.87 -8.44,-9.37 -5.84,-16.28 2.21,1.28 -0.04,1.17 1.7,3.86l3.51 -0.36c1.98,-9.23 -9.44,-10.94 -9.96,-1.99 -0.29,5.11 0.51,6.18 3.26,8.97 1.33,1.35 5.14,5.4 1.35,7.73l-0.54 -5.42 -3.74 0.08 -0.27 2.85z"/>
   <path class="fil2" d="M48.43 216.64l-0.75 -0.23c-0.86,-0.74 -0.56,0.56 -0.8,-1.95 -0.45,-4.72 0.26,-4.55 1.49,-5 0.98,1.47 1.13,3.95 0.68,6 -0.24,1.08 0,0.64 -0.63,1.18zm-1.17 5.13c1.37,-2.61 3.66,0.12 4.98,-3.05 0.49,-1.18 0.46,-5.85 0.43,-7.48 -0.13,-6.21 -3.96,-6.42 -10.15,-5.65l0.27 25.4c5.46,0.32 4.47,1.26 4.47,-9.21z"/>
   <path class="fil2" d="M206 210.64c0.15,-0.05 0.3,-0.09 0.44,-0.14 0.86,-0.27 0.08,0.31 1.49,-0.28l-0.02 -4.7 -7.73 -0.09 -0.27 25.56 8.53 0.13 -0.34 -4.88 -3.2 -0.08 -0.12 -5.44c2.72,-1.28 3.15,1 2.86,-4.73 -1.28,-0.55 -1.69,-0.23 -2.89,-1.05l-0.19 -3.68 1.44 -0.63z"/>
   <path class="fil2" d="M105.24 139.67l11.34 0.08c3.34,-8.78 0.06,-9.06 14.31,-8.89 2.82,0.03 5.13,0.51 4.48,-2.85 -4.42,-0.21 -16.63,-0.48 -20.37,0.18 -3.72,0.66 -9.88,7.54 -9.75,11.47z"/>
   <path class="fil2" d="M85.14 157.11l13.21 0.09c-0.24,-2.05 -3.61,-9.98 -4.79,-11.64l-13.45 -0.19c0.4,2.83 3.83,9.15 5.03,11.73z"/>
   <path class="fil2" d="M128.51 154.79l-14.2 -0.42c-1.37,-3.86 0.79,-6.04 0.49,-8.96l-11.42 -0.11c-0.48,3.31 -0.43,6.14 0.79,8.6 2.42,4.88 6.04,3.19 16.7,3.31 5.94,0.07 7.71,1.05 7.63,-2.42z"/>
   <path class="fil2" d="M71.71 139.56l19.42 0.05c-0.61,-2.2 -1.89,-4.7 -2.99,-6.99 -3.85,-8.01 -4.32,-5.56 -11.35,1.44 -1.36,1.35 -4.55,3.95 -5.07,5.5z"/>
   <path class="fil2" d="M109.12 68.42l6.33 -0.16c0.54,-3.39 2.14,-18.19 1.58,-20.71 -9.45,-0.25 -3.97,-1.99 -7.91,20.87z"/>
   <path class="fil2" d="M22.07 139.75l12.68 0.01c-0.17,-2 -3.95,-10.36 -5.29,-11.84l-4.56 0.04c-0.85,1.87 -2.83,9.64 -2.83,11.78z"/>
   <path class="fil3" d="M19.67 142.97c0.97,1.2 -0.17,0.99 2.44,0.99l34.22 0c2.2,0 2.23,0.06 2.65,-2.04 -0.12,-0.09 -0.32,-0.34 -0.39,-0.21l-1.29 -0.46c-0.54,-0.1 -1.98,-0.09 -2.59,-0.08l-25.76 0.03c-1.77,0 -3.52,-0.02 -5.29,-0.05 -2.8,-0.04 -3.61,-0.58 -3.98,1.82z"/>
   <path class="fil2" d="M55.37 157.33l17.72 0.04c3.11,0.05 4.19,0.68 4.31,-2.32 -3.08,-1.83 -11.39,-0.14 -15.6,-0.79 0.59,-2.06 7.07,-6.69 7.93,-8.93 -5.42,-0.26 -5.68,1.7 -8.29,4.41 -1.81,1.88 -5.17,4.5 -6.08,7.59z"/>
   <path class="fil2" d="M47.56 139.62l10.81 0.2 3.03 -11.74c-4.01,-0.14 -5.98,3.12 -8.06,5.14 -1.5,1.46 -5.44,4.56 -5.78,6.41z"/>
   <path class="fil4" d="M65.74 141.91c0.13,3.18 3.05,2.06 6.28,2.02l16.82 -0.08c3.27,0.01 5.83,0.98 5.49,-2.19 -2.87,-0.84 -26.81,-0.85 -28.59,0.24z"/>
   <path class="fil4" d="M103.27 143.72c2.94,0.58 17,0.12 21.81,0.13 3.26,0.01 5.62,1.08 5.85,-1.94 -0.77,-0.58 -0.04,-0.27 -1.22,-0.56 -2.69,-0.66 -25.5,0.04 -26.42,0.25l-0.03 2.12z"/>
   <path class="fil4" d="M76.78 126.66c3.6,-0.51 2.48,-2.02 5.74,-3.23 0.87,-0.06 9.32,7.91 12.58,-2.11 -3.38,0.44 -1.83,1.83 -5.23,2.79 -2.32,-1.25 -3.86,-3.48 -7.74,-2.61 -2.6,0.58 -4.83,2.97 -5.36,5.16z"/>
   <path class="fil5" d="M68.48 152.25l1.96 0.11 6.31 -0.02 1.91 -0.08c-0.24,-2.62 -1.58,-6.66 -4.83,-5.89 -1.7,0.41 -5.02,3.99 -5.35,5.88z"/>
   <path class="fil5" d="M168.82 60.82c3.94,0.2 5.24,0.63 5.99,-1.63 0.49,-1.45 0.42,-2.69 0.02,-4.33 -4.59,-0.23 -5.52,-0.61 -5.93,1.47 -0.19,0.95 -0.17,3.5 -0.09,4.5z"/>
   <path class="fil5" d="M127.71 60.77l2.56 -0.16c0.88,-1.66 1.18,-3.79 0.98,-5.77l-5.01 0.01c-1.02,1.96 -2.53,6.24 1.47,5.92z"/>
   <path class="fil2" d="M188.31 203.8c2.26,-0 1.74,-0.81 3.2,-0.54 2.23,0.41 1.1,1.24 4.56,0.64 0.54,-0.96 0.91,-1.47 0.91,-3.09 -1.94,-0.24 -1.91,0.22 -3.53,-0.01 -1.3,-0.18 -4.84,-2.79 -5.13,3z"/>
   <path class="fil6" d="M125 53.24l14.05 -0.25c0.69,-1.77 1.26,-3.01 0.93,-5.11 -2.34,-0.93 -8.83,-0.88 -11.75,-0.73l-3.46 0.62c-0.1,0.04 -0.25,0.13 -0.38,0.19l15.18 -0.14 -0.62 4.39 -10.73 0.25c-3.33,0.12 -2.61,0.35 -3.22,0.78z"/>
   <path class="fil7" d="M102.45 56.04c-1.37,0.07 -2.77,0.08 -4.16,0.1 -0.33,0 -1.95,0.06 -2.14,0.04 -1.72,-0.2 -1.75,0.66 -1.75,-3.11l8.52 0.33c-0.6,-0.72 0.91,-0.31 -1.47,-0.94l-7.22 0.07 -0.15 4.03 6.36 0.22c2.18,-0.19 1.06,0.21 2.01,-0.74z"/>
   <path class="fil8" d="M118.33 203.43l0.77 3.71c1.03,-2.09 1.59,-2.32 2.35,-3.68 -1.54,-0.64 -1.4,-0.32 -3.12,-0.03z"/>
   <path class="fil9" d="M209.68 176.71c0.83,0.19 0.68,-0.07 0.57,0.71 1.56,-0.87 -0.1,0.7 1.4,-0.96 1.28,-1.41 0.24,-0.26 0.92,-1.51 -1.13,-0.9 -1.49,-1.2 -3.38,0l2.19 -0.21c-0.64,0.97 -0.14,0.33 -0.83,1.11 -0.11,0.12 -0.65,0.63 -0.87,0.86z"/>
   <path class="fil10" d="M117.06 69.87c0.11,0.22 -0.09,1.11 1.25,1.2 2.84,0.21 0.93,-0.14 1.72,-0.94l-2.45 -1.35 -0.52 1.09z"/>
   <path class="fil11" d="M210.25 177.42c0.11,-0.79 0.26,-0.52 -0.57,-0.71 -1.95,0.26 -0.81,-0.25 -1.79,0.93 0.84,0.54 -0.29,0.59 1.13,0.44 0.42,-0.04 0.76,-0.36 1.22,-0.66z"/>
  </g>
 </g>
</svg>
