<?xml version="1.0" encoding="UTF-8"?>
<!DOCTYPE svg PUBLIC "-//W3C//DTD SVG 1.1//EN" "http://www.w3.org/Graphics/SVG/1.1/DTD/svg11.dtd">
<!-- Creator: CorelDRAW -->
<svg xmlns="http://www.w3.org/2000/svg" xml:space="preserve" width="21.1667mm" height="25.3999mm" version="1.1" style="shape-rendering:geometricPrecision; text-rendering:geometricPrecision; image-rendering:optimizeQuality; fill-rule:evenodd; clip-rule:evenodd"
viewBox="0 0 26.06 31.27"
 xmlns:xlink="http://www.w3.org/1999/xlink"
 xmlns:xodm="http://www.corel.com/coreldraw/odm/2003">
 <defs>
  <style type="text/css">
   <![CDATA[
    .fil0 {fill:black}
    .fil2 {fill:#FEFEFE}
    .fil1 {fill:red}
   ]]>
  </style>
 </defs>
 <g id="Camada_x0020_1">
  <metadata id="CorelCorpID_0Corel-Layer"/>
  <g id="_2481818701968">
   <path class="fil0" d="M6.65 0l0.78 0 0.8 0c0.27,0.01 0.51,0.05 0.72,0.16 0,0.72 -0.3,1.03 -0.3,1.73 0.76,-0.39 0.88,-0.39 1.78,-0.39 1.2,-0 0.96,0.29 1.7,0.47 0.18,-0.83 0.16,-1.72 0.82,-1.88 0.15,-0.04 0.36,-0.07 0.6,-0.08l1.01 0c0.31,0.02 0.59,0.08 0.75,0.16 0,0.31 -0.02,0.32 -0.07,0.55l2 0c0,0.48 -0.07,0.57 -0.07,1.02 0.58,0 1.96,-0.55 2.89,-0.08 0.16,0.08 0.07,0.03 0.14,0.08 0.07,0.11 0.41,0.39 0.52,0.47 0.08,0.04 -0.1,0.1 0.21,-0.01 0.21,-0.08 0.35,-0.26 0.53,-0.38 0.75,-0.5 2.18,-0.43 2.89,-0.08 0.84,0.41 0.74,1.07 0.74,1.74 0,1.43 -0.33,1.26 -1.19,1.26 0.28,0.45 0.67,0.55 0.74,1.27 0.1,1.16 -0.59,3.33 -2.36,3.38 0.15,0.66 3.63,4.77 1.08,11.31 -0.28,0.71 -1.36,2.54 -1.82,2.87 -0.16,0.06 -0.09,-0.03 -0.18,0.13 -0.08,0.14 -0.03,0.1 -0.04,0.27l0.22 0c0.31,0.09 0.6,0.48 0.86,0.43 0.41,-0.07 0.84,-1.01 2.52,-0.65 0.07,0.02 0.18,0.04 0.28,0.09 0.19,0.1 0.11,0.06 0.18,0.13 0.21,0.34 0.23,0.11 0.42,0.5l0.22 0.56c0,-0.01 0.02,0.03 0.03,0.05 0,1.15 -0.14,1.09 -0.15,1.57l-0.74 0c0.12,0.19 0.39,0.53 0.43,0.72 0.17,0.85 -0.04,2.06 -0.7,2.76 -1.41,1.5 -2.85,0.4 -3.28,0.29 -0.09,0.18 -0.12,0.24 -0.22,0.39 -0.37,0 -0.51,-0.05 -0.75,-0.07 -0.47,-0.04 -1.56,0.3 -2.18,0.2 -0.46,-0.08 -1.08,-0.1 -1.57,-0.03 -0.44,0.06 -0.95,0.06 -1.5,0.06 -0.24,-0.16 -0.42,-0.02 -0.74,-0l-1.59 0.04c-0.35,-0.04 -1.32,-0.09 -1.62,0.01 -0.53,0.18 -1.3,0.49 -1.73,-0.42 -0.13,0.12 -0.32,0.28 -0.47,0.37l-0.59 0.24c-1.82,0 -1.12,-0.14 -2.15,-0.39l0 0.31c-0.63,0 -0.97,0.08 -1.63,0.08 -0.54,-0 -1.09,-0 -1.63,-0 -0.41,0 -0.48,0.06 -0.81,0.08l-2.44 -0c0.02,-1.14 1.51,-6.76 1.63,-8.27l2.37 0c-0.08,-0.15 -0.11,-0.26 -0.21,-0.41 -0.08,-0.12 -0.13,-0.18 -0.22,-0.32 -2.66,-4.14 -2.26,-8.86 0.28,-12.9l-1.85 0 1.57 -8.25c0.07,-0.36 0.2,-0.76 0.28,-1.12l2.29 0c0.03,0.16 0.05,0.26 0.1,0.44l0.12 0.34c0.04,-0.57 0.07,-0.74 0.28,-0.79z"/>
   <path class="fil1" d="M13.44 16.46c0.38,-0.2 0.44,-0.51 1.44,-0.95 0.57,-0.25 1.22,-0.3 1.94,-0.38 1.44,-0.16 2.36,0.49 3.08,1.52 1.57,2.23 0.48,2.01 0.85,3.81 0.06,0.28 0.29,0.52 0.11,0.85 -0.13,0.23 -0.69,0.48 -1.22,1.09 -0.02,0.02 -0.06,0.07 -0.07,0.09l-0.18 0.21c-0.37,0.43 -0.31,0.26 -0.05,0.89 0.09,0.21 0.11,0.34 0.19,0.52 0.38,-0.1 1.52,-1.38 1.8,-1.78 0.12,-0.18 0.16,-0.27 0.27,-0.44 0.54,-0.85 1.07,-1.83 1.33,-2.87 0.64,-2.55 0.5,-4.77 -0.47,-7.17 -0.38,-0.94 -1.46,-2.72 -2.29,-3.26 -0.21,0.14 -0.37,0.28 -0.59,0.44 -0.57,0.4 -1.92,0.46 -2.57,0.3 -0.38,-0.1 -0.41,-0.24 -0.78,-0.13 -0.53,0.16 -1.74,0.16 -2.37,-0.01 -0.23,-0.06 -0.08,-0.06 -0.35,-0.13 -0.45,0.29 -0.19,0.25 -0.96,0.24 -1.09,-0.01 -1.16,-0.18 -1.02,0.92 0.03,0.2 0.09,0.59 0.14,0.81 0.58,-0.05 1.15,-0.46 1.68,-0.47 -0.06,0.74 -0.79,1.04 -0.8,1.73 0.33,0.01 1.38,0.21 1.6,0.32 -0.31,0.58 -0.86,0.84 -1.2,1.34 0.22,0.15 0.91,0.49 1.2,0.55 -0.03,0.37 -0.2,0.42 -0.75,0.68 -0.35,0.17 -0.66,0.2 -0.86,0.5 0.25,0.34 0.62,0.3 0.88,0.79l-0.96 0.47c0,1.12 0.27,0.59 -0.64,1.02 0.04,0.5 0.2,0.27 0.24,0.71 -0.55,0.26 -0.37,0.06 -1.02,0.58 -0.5,0.4 -0.66,0.37 -0.67,0.84 0.28,0.06 0.49,0.13 0.83,0.2 0.88,0.19 1.04,0.26 1.19,0.8l0.44 1.54c0.13,0.55 0.15,1.24 0.56,1.41 0.16,0.07 0.54,0.14 0.82,0.14 0.03,-0.39 0.38,-0.82 0.48,-1.26 -0.61,-0.4 -0.59,-0.46 -0.99,-0.92 -0.39,-0.45 -0.55,0 -0.94,-0.49l-0.15 -0.34c-0.08,-0.62 0.36,-0.48 0.23,-0.99 -0.1,-0.41 -0.68,-0.41 -0.21,-1.35 0.56,-1.12 -0.1,-0.79 0.45,-1.76l0.34 -0.61zm-4.49 -7.09c0.17,0.31 0.37,0.58 0.56,0.87 0.31,-0.16 0.26,-0.14 0.47,-0.4 0.14,-0.18 0.24,-0.32 0.5,-0.39l-0.09 -0.47c-0.54,0.12 -0.66,0.39 -1.44,0.39zm-1.44 1.18c0.3,0 0.22,-0.23 0.35,-0.53 0.14,-0.3 0.37,-0.5 -0.03,-0.65l-0.52 -0.13c-0.24,-0.08 -0.49,-0.27 -0.61,-0.27 -0.36,0 -0.06,0.17 -0.42,0.29 -0.82,0.27 -0.94,-0.5 -1.73,0.58l-0.19 0.29c-0.1,0.16 -0.17,0.27 -0.27,0.44 -1.11,1.81 -1.38,3.22 -1.56,5.25 -0.05,0.55 0.12,1.9 0.27,2.48 0.28,1.07 0.39,1.53 0.89,2.51 0.63,1.22 0.85,1.46 1.69,2.44 0.15,0.17 0.18,0.23 0.36,0.28 0.11,-0.22 0.25,-0.89 0.32,-1.18 0.07,-0.29 0.04,-0.37 0.09,-0.7 0.04,-0.27 0.09,-0.25 0.18,-0.54 0.11,-0.4 -0.06,-0.34 0.26,-0.53 0.34,-0.2 1.58,-0.44 1.96,-0.44 -0.01,-0.51 -0.11,-0.48 -0.48,-0.63 -0.34,-0.14 -0.38,-0.22 -0.64,-0.39 -0.4,0.1 -0.05,0.15 -0.56,0.16 -0.02,-0.2 -0.09,-0.57 -0.16,-0.71l-1.04 0c0,-0.57 0.2,-0.57 0.19,-0.96 -0,-0.35 -0.17,-0.33 -0.58,-0.46 -0.34,-0.11 -0.3,-0.02 -0.49,-0.31 0.11,-0.39 0.52,-0.61 0.8,-1.02 -0.65,-0.95 -1.55,-0.5 -1.6,-1.18 0.26,-0.07 1.22,-0.72 1.44,-0.95 -0.19,-0.35 -0.32,-0.55 -0.57,-0.85 -0.22,-0.25 -0.55,-0.5 -0.63,-0.8 0.11,-0.05 1.94,-0.23 2.16,-0.24 0,-0.79 -0.39,-1.04 -0.4,-1.65 1.09,0 1.02,0.39 1.52,0.39z"/>
   <path class="fil2" d="M20.13 5.51c0.08,-0.36 0.19,-0.29 0.3,-0.79 0.26,0.2 0.13,0.22 0.29,0.48 0.23,0.39 0.89,0.8 1.23,1.06 0.78,0.61 0.3,1.69 -0.55,1.69 -0.07,-0.95 0.12,-0.63 0,-1.18 -0.4,-0.1 -1,-0.08 -1.48,-0.08 -0.01,-0.31 0.02,-0.18 -0.07,-0.39 -0.55,-0.05 -0.99,-0.1 -1.41,0 -0.04,0.52 -0.26,1.65 -0.96,1.65 -0.41,0 0.1,-1.98 0.38,-2.27 0.29,-0.3 1.79,-0.17 2.29,-0.17zm-11.03 9.21c0.44,-0.95 -0.59,-1.77 -1.36,-0.89 -0.24,0.27 -0.2,0.42 -0.2,0.89 0.75,0.19 0.13,-0.24 1.55,0zm-5.03 8.43c-0.08,0.35 -0.22,0.59 -0.22,1.18l1.18 0c-0.05,-0.19 -0.89,-1.13 -0.96,-1.18zm-0.96 1.26c0.08,-0.15 0.13,-0.33 0.15,-0.55 -0.52,-0.3 -0.34,-0.05 -0.96,-0.09 -0.04,-0 -0.52,-0.23 -0.52,0.56 0,0.26 0.63,0.08 1.33,0.08zm-1.78 6.38c0.69,0 0.57,-0.18 0.73,-1.03l0.75 -3.77c0.05,-0.22 0.36,-0.95 -0.15,-0.95 -1.18,0 -0.99,-0.1 -1.15,0.59l-0.8 3.87c-0.4,1.56 -0.34,1.29 0.62,1.29zm23.54 -2.68c0,-0.8 -0.68,-1.01 -1.11,-1.34 -0.78,-0.58 -0.26,-1.34 0.22,-1.34 0.21,0 0.13,0.3 0.13,0.45 0,0.14 -0.12,0.26 0.17,0.26 0.59,0 0.47,0.04 0.96,-0.08 0.34,-1.57 -0.56,-1.65 -1.7,-1.65 -1,0 -1.41,1.16 -1.41,2.13 0,0.48 0.18,0.73 0.68,1.09 0.2,0.15 0.8,0.43 0.8,0.72 0,0.36 -0.06,0.72 -0.25,0.92 -0.03,0.03 -0.33,0.22 -0.37,0.23 -0.42,0.05 -0.25,-0.5 -0.2,-0.99 -1.03,-0.25 -1.18,-0.07 -1.18,0.71 0,1.11 0.8,1.1 1.63,1.1 1.14,0 1.63,-1.16 1.63,-2.21zm-16.21 2.68c0.1,0 0.41,-0.13 0.5,-0.19 0.36,-0.22 0.13,-0.1 0.27,-0.5 0.1,-0.27 1.1,-1.74 -0.1,-2.55 -0.72,-0.48 -1.21,-0.63 -0.91,-1.44 0.09,-0.25 0.4,-0.73 0.67,-0.44 0.25,0.27 -0.36,0.86 0.17,0.86 0.54,0 0.61,-0.08 0.95,-0.08 0.07,-0.5 0.22,-0.98 -0.23,-1.31 -0.99,-0.74 -2.94,-0.48 -2.94,1.87 0,0.72 1.55,1.46 1.55,1.73 0,0.55 -0.22,1.1 -0.74,1.1 -0.27,0 -0.07,-0.59 -0.07,-0.87 0,-0.33 -0.74,-0.16 -1.11,-0.16 -0.08,0.96 -0.6,1.97 2,1.97zm10.36 -1.42c0,-0.5 0.23,-1.23 0.62,-1.55 0.35,-0.29 0.35,-0.11 0.37,-0.07 0.04,0.08 -0.15,0.94 -0.2,1.13 -0.09,0.33 -0.17,0.6 -0.64,0.73 -0.05,-0.07 -0.15,-0.19 -0.15,-0.24zm0.52 -2.76c0.36,-1.65 0.89,-1.46 0.89,-1.1 0,2.06 -1.74,1.32 -2.41,2.55 -0.18,0.33 -0.06,0.25 -0.13,0.65 -0.05,0.35 -0.51,1.76 0.61,1.76 0.46,0 0.79,-0.37 1.11,-0.55l0 0.39c0.64,0 0.73,0.05 1.26,-0.08l0.67 -3.31c0.12,-0.86 0.4,-1.74 -0.17,-2.18 -0.45,-0.35 -2.39,-0.72 -2.93,1.26 -0.08,0.31 -0.3,0.69 0.06,0.69 0.61,0 0.53,0.05 1.04,-0.08zm-8.22 2.83c0,-0.76 0.39,-1.51 0.96,-1.65 0,1.76 -0.96,2.46 -0.96,1.65zm0.7 -3.43c0.13,-0.38 0.87,-1.07 0.64,0.21 -0.13,0.69 -0.37,0.71 -0.84,1 -0.2,0.12 -0.38,0.2 -0.61,0.3 -1.05,0.46 -0.86,0.64 -1.05,1.72 -0.15,0.87 -0.33,1.62 0.56,1.62 0.72,0 0.75,-0.64 1.26,-0.79 -0.05,0.23 -0.07,0.24 -0.07,0.55l1.04 0 0.1 -0.21c0.01,-0.02 0.02,-0.04 0.02,-0.06 0.36,-0.94 0.91,-3.81 0.91,-4.78 0,-0.91 -1.41,-1.06 -2.14,-0.78 -0.85,0.32 -1.17,1.08 -1.28,2.04l1.2 0 0.25 -0.83zm-8.47 4.69c0.28,0 0.27,-0.31 0.33,-0.59l0.32 -1.47c0.17,-0.76 0.3,-2.35 0.77,-2.81 0.78,-0.76 0.25,1.14 0.22,1.34 -0.12,0.75 -0.68,3.02 -0.68,3.53 0.64,0 0.73,0.05 1.26,-0.08 0.22,-0.49 0.52,-2.39 0.68,-3.06 0.15,-0.64 0.82,-2.69 -0.31,-2.69 -0.71,0 -0.54,0.04 -1.04,0.39 -0.42,-0.12 -0.04,-0.23 -0.66,-0.24 -1.07,-0.03 -0.82,-0.18 -1.15,1.39 -0.06,0.28 -0.08,0.42 -0.14,0.72 -0.04,0.22 -0.1,0.39 -0.16,0.7l-0.56 2.87 1.11 0zm11.18 -0.24c0.42,0 0.44,-0.81 0.51,-1.19l0.6 -2.83c0.16,-0.75 0.27,-1.02 0.82,-1.02 0,1.24 -0.89,4.13 -0.89,4.96 0.76,0 0.45,0.14 1.33,-0.08l0.46 -2.42c0.17,-1.1 1.16,-3.33 -0.39,-3.33 -0.44,0 -0.55,0.3 -0.89,0.39 -0.15,-0.11 -0.19,-0.24 -0.37,-0.24 -1.23,0 -1.05,-0.12 -1.21,0.68l-0.67 3.3c-0.07,0.3 -0.1,0.43 -0.16,0.78 -0.16,1.09 -0.28,0.94 0.08,0.97l0.78 0.02zm-0.81 -10.95c0,0.45 0.58,1.1 0.96,1.1 0.89,0 0.42,0.02 0.66,-0.09 0.97,-0.46 0.85,-1.23 0.45,-2.04 -0.26,0.07 -0.24,0.14 -0.42,0.34 -0.73,0.78 -1.65,-0.05 -1.65,0.69zm3.11 0.39c0.07,0.14 0.14,0.23 0.26,0.35 0.94,0.88 1.96,-0.1 1.96,-0.74 0,-0.4 -0.13,-0.3 -0.49,-0.34 -0.52,-0.07 -1.21,-0.08 -1.36,-0.68l-0.22 0c-0.06,0.24 -0.3,0.59 -0.3,0.95 0,0.1 0.11,0.4 0.15,0.47zm-7.18 -5.51c0,0.25 0.48,0.22 0.73,0.25 0.02,0 1.53,0.43 0.92,-0.42 -0.39,-0.55 -1.65,-0.57 -1.65,0.17zm2.77 -12.04c-0.45,2.03 -0.91,4.07 -1.11,5.15 -0.23,1.23 -0.33,1.4 0.99,1.42 0.29,0 0.46,-0.02 0.63,-0.04l-0.02 -1.16c-0.33,0.11 0.47,-4.09 0.67,-5.32 -0.39,-0.02 -0.77,-0.03 -1.16,-0.05zm3.37 1.28l0.5 0.23c-0.28,0.75 -0.72,3.17 -0.72,3.92 -0.5,0.06 0.09,0.16 -0.59,0.16 0,-1.22 0.43,-2.75 0.71,-3.97 0.03,-0.13 0.06,-0.24 0.1,-0.33zm2 0.9l0.33 0.15c-0.18,0.06 -0.33,0.02 -0.33,-0.15zm0.33 0.15l-0.33 -0.15c0,-0.58 0.22,-1.55 0.89,-1.4 0.08,0.36 0.04,1.35 -0.56,1.55zm-1.83 -0.82l-0.5 -0.23c0.14,-0.33 0.35,-0.42 0.67,-0.42 -0.01,0.27 -0.08,0.4 -0.17,0.65zm-3.68 -3.01c-0.19,0.88 -0.45,0.79 0.96,0.79 0.7,0 0.6,-0.24 0.6,-0.79l-1.56 0zm-4 7.09c-0.2,-0.39 -0.07,-0.59 0.06,-1.28 0.1,-0.51 0.18,-0.86 0.28,-1.35 0.18,-0.86 0.29,-2.05 0.99,-2.25 0.26,0.42 0.15,0.57 -0.09,1.63 -0.12,0.54 -0.49,2.75 -0.78,3.03 -0.12,0.12 -0.26,0.2 -0.46,0.22zm-1.63 -0.79c0,0.67 -0.12,1.23 0.58,1.59 0.73,0.38 1.99,0.26 2.62,-0.31 0.78,-0.7 1.02,-1.74 1.21,-2.81 0.21,-1.18 0.48,-1.33 0.16,-2.39 -0.42,-1.4 -2.57,-1.2 -3.23,-0.55 -0.75,0.75 -0.79,1.81 -1.04,2.83 -0.09,0.38 -0.31,1.24 -0.31,1.64zm-4.81 1.65c1.63,0 1.33,0.14 1.54,-0.8 0.13,-0.58 0.37,-2.3 0.83,-2.66l0.22 3.47c1.59,0 1.43,0.41 1.92,-1.74l1.01 -5.22c0.09,-0.45 0.19,-0.6 0.1,-0.99l-0.81 0c-0.42,0 -0.39,-0.36 -0.57,0.5l-0.57 2.62c-0.28,0.31 0.06,-0.15 -0.35,0.03 -0.32,-3.84 0.06,-3.08 -1.63,-3.23l-1.7 8.03zm11.62 -6.06l-0 0.55c0.17,0.08 0.44,-0.3 0.34,0.34 -0.16,1.01 -1.08,4.12 -0.77,4.77 0.26,0.54 1.16,0.4 1.84,0.4 0.19,-0.39 0.25,-0.63 0.52,-0.71 0.22,0.9 1.82,0.98 2.55,0.67 1.04,-0.44 0.97,-1.14 1.52,-1.46 -0.03,0.42 -0.13,0.31 0.02,0.76 0.38,1.16 2.51,1.09 3.26,0.28 0.31,-0.33 0.45,-0.91 0.54,-1.47 0.36,-2.03 -2.04,-1.59 -1.73,-3.01 0.12,-0.55 0.81,-1.13 0.92,-0.57 0.04,0.19 -0.12,0.54 -0.13,0.86 1.22,0 1.46,0.17 1.49,-0.55 0.04,-0.87 -0.25,-1.09 -0.85,-1.31 -0.54,-0.19 -1.37,-0.13 -1.83,0.03 -0.54,0.19 -0.83,0.63 -0.95,1.19 -0.63,-0.06 -0.17,-1.21 -1.78,-1.34 -1.69,-0.14 -1.79,0.74 -2.29,0.79 0,-0.53 0.01,-0.34 -0.37,-0.55 0,-1.22 0.42,-1.02 -1.48,-1.02 -0.22,1 -0.18,0.71 -0.56,1.06 -0.19,0.18 -0.04,0.11 -0.26,0.28z"/>
  </g>
 </g>
</svg>
