<?xml version="1.0" encoding="UTF-8"?>
<!DOCTYPE svg PUBLIC "-//W3C//DTD SVG 1.1//EN" "http://www.w3.org/Graphics/SVG/1.1/DTD/svg11.dtd">
<!-- Creator: CorelDRAW -->
<svg xmlns="http://www.w3.org/2000/svg" xml:space="preserve" width="13.2414mm" height="14.6828mm" version="1.1" style="shape-rendering:geometricPrecision; text-rendering:geometricPrecision; image-rendering:optimizeQuality; fill-rule:evenodd; clip-rule:evenodd"
viewBox="0 0 34.63 38.4"
 xmlns:xlink="http://www.w3.org/1999/xlink"
 xmlns:xodm="http://www.corel.com/coreldraw/odm/2003">
 <defs>
  <style type="text/css">
   <![CDATA[
    .fil6 {fill:#FEFEFE}
    .fil0 {fill:black}
    .fil4 {fill:#009933}
    .fil5 {fill:#0F93DE}
    .fil7 {fill:#C6B9C3}
    .fil1 {fill:#F6D4C8}
    .fil2 {fill:#FCBD92}
    .fil3 {fill:#FD0000}
   ]]>
  </style>
 </defs>
 <g id="Camada_x0020_1">
  <metadata id="CorelCorpID_0Corel-Layer"/>
  <g id="Figs_Desenho_SemVar_020">
   <path class="fil0" d="M14.23 35.87c-0.32,-0.14 -0.62,-0.31 -0.91,-0.5 0.01,0.1 0.02,0.2 0.02,0.3 0,0.3 -0.04,0.61 -0.16,0.92 -0.13,0.32 -0.34,0.63 -0.6,0.89 -0.26,0.26 -0.57,0.48 -0.91,0.63 -0.34,0.16 -0.7,0.25 -1.06,0.28 -0.37,0.03 -0.74,0 -1.07,-0.1 -0.3,-0.09 -0.57,-0.24 -0.8,-0.4 -0.27,-0.2 -0.5,-0.43 -0.67,-0.66 -0.14,-0.18 -0.24,-0.33 -0.32,-0.46 -0.07,-0.1 -0.12,-0.19 -0.15,-0.22l-0 0c0,0 0,0.01 -0,0.01 -0.12,-0.02 -0.29,-0.02 -0.54,-0.02l-0.07 -0c-0.63,-0.01 -1.6,-0.01 -2.23,-0.26 -0.43,-0.17 -0.71,-0.43 -0.88,-0.75 -0.16,-0.31 -0.21,-0.64 -0.19,-0.99 0.02,-0.4 0.14,-0.79 0.24,-1.13 0.04,-0.12 0.07,-0.24 0.1,-0.35 0.02,-0.07 0.04,-0.07 0.03,-0.09 -0.01,-0.02 -0.01,0.01 -0.07,-0.02 -0.13,-0.07 -0.33,-0.16 -0.54,-0.25 -0.39,-0.16 -0.82,-0.35 -1.16,-0.58 -0.3,-0.21 -0.52,-0.45 -0.68,-0.71 -0.18,-0.3 -0.27,-0.62 -0.29,-0.93 -0.02,-0.27 0.02,-0.53 0.1,-0.76 0.08,-0.26 0.21,-0.49 0.37,-0.68l0 -0c0.05,-0.06 0.09,-0.11 0.13,-0.15 -0.05,-0.07 -0.09,-0.15 -0.13,-0.24 -0.18,-0.4 -0.15,-0.91 -0.13,-1.42l-0 -2.08 0.21 0.31c0.52,-0.44 1.04,-0.89 1.56,-1.31 0.13,-0.1 0.27,-0.23 0.4,-0.35l0 -0 0.12 -0.11 0 0c0.13,-0.12 0.23,-0.2 0.34,-0.29 0.06,-0.05 0.12,-0.1 0.24,-0.2l1.39 -1.2 -5.89 -1.88 0.84 -0.88 0.03 -0.03c0.37,-0.3 1.1,-0.73 1.91,-1.16 1.11,-0.59 2.38,-1.2 3,-1.47l0.1 -0.04 -0.72 -1.22c-0.17,-0.3 -0.35,-0.61 -0.53,-0.94 -0.19,-0.36 -0.36,-0.68 -0.51,-0.97 -0.17,-0.33 -0.34,-0.68 -0.51,-1.03 -0.14,-0.3 -0.29,-0.62 -0.44,-0.97l-0 0 -0.14 -0.31c-0.26,-0.59 -0.54,-1.22 -0.75,-1.85l-0.32 -0.99 1.03 0.17c0.36,0.06 0.67,0.12 1.11,0.19 2.1,0.37 6.21,1.09 6.48,1.08l0.03 0c0.18,0 0.2,-0.35 0.23,-0.73 0.01,-0.17 0.02,-0.34 0.04,-0.49l0 0 0.76 -8.48 0.82 0.39c0.28,0.13 0.67,0.62 0.89,0.89l0 -0 0.08 0.1c0.11,0.14 0.22,0.26 0.33,0.39 0.13,0.15 0.25,0.29 0.41,0.48 0.17,0.22 0.36,0.43 0.56,0.66l0.15 0.18c0.14,0.17 0.23,0.26 0.31,0.36 0.15,0.18 0.3,0.36 0.42,0.49 0.2,0.22 0.49,0.57 0.82,0.97 0.78,0.94 1.82,2.2 1.92,2.23 0.23,0.07 0.57,-0.4 0.86,-0.81 0.08,-0.11 0.16,-0.22 0.23,-0.32l0 -0 2.11 -2.71 0.01 -0c0.07,-0.09 0.21,-0.28 0.36,-0.49 0.58,-0.81 1.43,-1.98 2.09,-1.97 0.51,0.01 0.81,0.32 0.8,1.06l-0.12 8.36 1.11 -0.36c0.94,-0.28 2.34,-0.65 3.71,-0.93 1.06,-0.22 2.09,-0.38 2.86,-0.41l1.46 -0.06 -0.96 1.1c-0.14,0.16 -0.32,0.29 -0.57,0.47 -0.54,0.39 -1.46,1.06 -2.69,2.54 -0.3,0.37 -0.96,1.33 -1.45,2.29 -0.3,0.59 -0.53,1.15 -0.53,1.5 -0.01,0.62 0.61,0.65 1.42,0.69l0.35 0.02c0.56,0.03 1.05,0.07 1.54,0.11 0.64,0.05 1.28,0.11 1.85,0.13l1.85 0.07 -3.96 2.82c-0.33,0.27 -0.8,0.66 -1.28,1.08 -0.36,0.32 -0.7,0.63 -0.93,0.87l-0.12 0.12c-0.17,0.18 -0.46,0.47 -0.7,0.72 0.48,0.23 1.15,0.53 1.82,0.83 1.16,0.52 2.29,1.04 2.51,1.2l0.52 0.38 -0.39 0.51c-0.17,0.22 -0.54,0.44 -0.95,0.63 -0.49,0.23 -1.1,0.45 -1.42,0.55 -0.43,0.13 -0.98,0.23 -1.53,0.3 -0.19,0.02 -0.38,0.04 -0.57,0.04l0.97 3.62 -3.16 -0.01c0.12,0.16 0.24,0.33 0.35,0.51 0.27,0.43 0.5,0.93 0.57,1.43l0.13 0.91 -0.9 -0.21c-0.19,-0.05 -0.45,-0.13 -0.73,-0.23 -0.21,-0.08 -0.43,-0.16 -0.62,-0.24 -0.24,0.5 -0.56,0.98 -1,1.4l-0.01 0.01c-0.79,0.75 -1.9,1.24 -3.08,1.52 -1.37,0.33 -2.85,0.38 -4.03,0.23 -0.66,-0.08 -1.3,-0.26 -1.91,-0.53z"/>
   <path class="fil1" d="M9.33 24.85c-1.07,0.16 -1.38,1 -1.01,1.89l0.01 0.02c0.16,0.38 0.38,0.68 0.61,0.95 0.25,0.25 0.54,0.43 0.88,0.64l0.01 0.01 0.01 0.01c0,-0.39 -0.48,-2.34 -0.51,-3.52z"/>
   <path class="fil2" d="M10.34 29.19c0.32,1.29 0.88,2.85 1.62,3.89 1,-0.95 2.01,-1.9 3.01,-2.85 -0.65,-0.09 -1.97,-0.29 -1.95,-0.48 0.02,-0.2 0.12,-0.12 0.64,0 1.66,0.56 6.59,0.35 7.74,0.18 0.46,-0.02 0.77,-0.07 1.12,-0.37 0.41,-0.35 0.48,0.2 -0.35,0.48 -0.87,0.28 -0.5,-0.18 -0.92,0.62 -0.45,0.85 -0.78,0.83 -1.03,1.07 -0.19,0.18 -0.34,0.69 -0.47,0.92 -0.39,0.7 -1.31,1.36 -1.56,0.72 -0.15,-0.37 0.07,-0.83 -0.2,-1.16 -0.43,-0.54 -0.47,0.13 -0.77,-1.27 -0.09,-0.43 -0.12,-0.3 -0.35,-0.53l-3.8 3.94c0.87,0.8 2,1.27 3.16,1.42 2.04,0.26 5.04,-0.12 6.59,-1.58 1.16,-1.14 1.42,-2.75 1.67,-4.28 0.42,-2.57 0.9,-7.18 0.76,-9.86 -0.14,-2.58 -0.61,-5.49 -2.34,-7.53 -3.31,-3.87 -9.46,-2.9 -11.53,1.19 -2.38,4.7 -2.26,10.46 -1.03,15.47zm15.06 -4.55c1.65,0.19 1.36,1.83 0.48,2.84l-0.88 0.69c-0.01,-0.39 0.4,-2.35 0.4,-3.53zm-1.59 -0.5c-0.45,-0.07 -1.87,1.46 -4.15,0.08 -0.26,-0.16 -0.48,0.01 -0.04,0.27 1.65,0.99 4.1,0.29 4.2,-0.31 0,-0.02 0.01,-0.03 -0.01,-0.04zm-10.56 0.88c0.78,0.06 1.15,0.06 1.95,-0.27 0.4,-0.17 0.67,-0.58 -0.1,-0.23 -1.98,0.9 -3.66,-0.48 -3.83,-0.43 -0.1,0.02 -0.04,0.17 0.01,0.23 0.29,0.33 1.44,0.66 1.98,0.71zm-1.55 4.69c0.08,-0.9 1.26,-0.8 1.8,-0.8 0.29,0 0.26,-0.21 -0.09,-0.25 -1.47,-0.18 -2.29,0.81 -1.81,1.51 0.26,0.35 0.8,0.59 1.16,0.84 0.48,0.33 0.82,0.05 0.33,-0.14 -0.42,-0.16 -1.38,-0.62 -1.39,-1.16zm11.85 -0.54c0.42,0.52 -0.06,1.22 -0.41,1.46 -0.86,0.57 -2.01,0.5 -1.9,0.8 0.08,0.2 1.89,-0.32 2.44,-0.98 0.58,-0.7 0.19,-1.58 -0.52,-1.77 -0.39,-0.1 -1.02,0.03 -1.53,0.08 -0.29,0.03 -0.27,0.26 0.05,0.25 0.58,-0.02 1.42,-0.37 1.87,0.16zm-5.87 -1.99c1.28,-0.1 1.07,-2.75 1.02,-3.7 -0.01,-0.22 -0.27,-0.46 -0.22,0.15 0.05,0.72 0.22,3.4 -0.9,3.34 -1.13,-0.06 -0.87,-2.6 -1.01,-3.46 -0.01,-0.09 -0.09,-0.12 -0.17,-0.16 -0.19,0.17 0.01,0.56 0.01,1.19 0.01,0.89 0.03,2.7 1.27,2.64zm-6.09 -11.24c0.39,0.87 2.19,-0.26 2.95,-0.5 2.88,-0.94 5.26,-0.31 7.93,0.54 0.5,0.13 1.01,0.13 0.74,-0.53 -0.67,-1.57 -3.56,-2.27 -5.12,-2.35 -2.03,-0.08 -4.06,0.46 -5.8,1.51 -0.49,0.3 -0.93,0.72 -0.7,1.33zm9.36 4.69c-1.01,0.01 -1.96,-0.01 -3,-0.07 0.05,-0.9 -0.03,-1.48 0.38,-2.23 0.14,-0.25 -0,-0.4 -0.19,-0.17 -0.57,0.7 -0.5,2.74 -0.04,3.56 1.1,1.94 4.61,2.58 6.04,-0.04 0.9,-1.66 0.06,-3.96 -0.24,-3.68 -0.09,0.09 0.07,0.4 0.11,0.5 0.21,0.53 0.5,1.36 0.25,1.91 -0.3,0.15 -2.79,0.23 -3.32,0.22zm-9.44 0.12l-0.99 -0.05c-0.33,-0.86 0.6,-1.94 0.3,-2.04 -0.28,-0.09 -1.01,1.74 -0.21,3.3 1.08,2.07 4.29,2.02 5.86,0.35 1.28,-1.37 0.57,-3.78 0.17,-3.65 -0.24,0.07 0.38,0.53 0.36,1.89 -1.35,0.29 -4.08,0.33 -5.48,0.21z"/>
   <path class="fil3" d="M23.02 21.49l0.22 -0.06c0.12,0.16 0.07,0.08 0.12,0.26 -0.23,-0.14 -0.2,-0.03 -0.33,-0.2zm-7.29 -0.1c0.08,-0.04 0.43,-0.13 0.54,0.12 -0.03,0.02 0.01,0.11 -0.3,0.04 -0.24,-0.06 -0.15,-0.02 -0.24,-0.16zm-3.15 -0.33l-2.1 -0.14c0.04,0.34 0.14,0.66 0.31,0.88 0.09,-0.05 0.1,-0.07 0.18,-0.11l0.63 -0.31c0.02,0.36 -0.26,0.21 -0.7,0.56 0.03,0.29 0.29,0.54 0.48,0.64l0.64 -0.42c0.1,-0.09 0.06,-0.13 0.23,-0.1 -0.16,0.28 -0.12,0.25 -0.51,0.44l-0.19 0.09c-0.01,0 -0.03,0.02 -0.04,0.02 -0.01,0 -0.03,0.01 -0.04,0.02 0.26,0.48 1.39,0.73 2.15,0.69 0.73,-0.03 1.76,-0.32 2.13,-0.71 -0.07,-0.12 0.01,-0.05 -0.14,-0.16 -0.32,-0.23 -0.4,0.08 -0.56,-0.24 0.28,-0.06 0.32,-0.03 0.55,0.1 0.01,0.01 0.02,0.02 0.04,0.02l0.33 0.13c0.22,-0.13 0.5,-0.45 0.6,-0.73 0.02,-0.06 0.02,-0.06 0.04,-0.11 0.18,-0.36 0.03,0.2 0.32,-0.79 -0.33,-0.01 -1.02,0.09 -1.42,0.14 -1.37,0.15 -0.61,-0.07 -1.06,0.54 -0.25,0.33 -0.68,0.54 -1.09,0.43 -0.65,-0.18 -0.66,-0.61 -0.79,-0.85zm10.51 1.44c0.2,-0.04 0.13,-0.01 0.28,-0.15l0.47 -0.64c0.23,-0.34 0.3,-0.59 0.4,-1.02l-2.11 0.14c-0.26,0.41 -0.48,0.89 -1.1,0.9 -0.3,0 -0.53,-0.15 -0.69,-0.31 -0.3,-0.3 -0.19,-0.48 -0.39,-0.53l-1.93 -0.11c0.01,0.25 0.08,0.46 0.21,0.66 0.28,-0.03 0.09,-0.06 0.3,-0.09 0.29,-0.05 0.19,-0 0.24,0.05 -0.08,0.18 0.06,0.01 -0.43,0.16 0.02,0.36 0.5,0.75 0.7,0.88l0.33 -0.28c0.29,-0.25 0.21,-0.17 0.26,-0.12 0.06,0.04 0.06,-0.01 -0.02,0.1 -0.15,0.24 -0.68,0.35 -0.08,0.65 0.99,0.49 2.62,0.6 3.48,-0.14 -0.12,-0.3 -0.24,-0.35 -0.45,-0.51 0.39,0.01 0.39,0.1 0.55,0.36z"/>
   <path class="fil4" d="M17.19 30.38c0.23,0.44 0.17,0.52 0.3,0.99 0.15,0.55 0.36,0.4 0.62,0.66 0.25,0.25 0.19,0.66 0.22,1.08 0.05,0.7 0.9,0.12 1.28,-0.65 0.12,-0.25 0.26,-0.68 0.42,-0.86 0.01,-0.01 1.08,-0.6 1.15,-1.41 -0.81,-0 -2.78,0.17 -3.99,0.19z"/>
   <path class="fil5" d="M24.59 30.99c-0.08,0.12 -0.03,0.02 -0.08,0.2 -0.13,0.49 -0.1,0.66 -0.34,1.33 0.4,0.17 1.15,0.47 1.57,0.57 -0.11,-0.81 -0.78,-1.66 -1.15,-2.1zm-7.33 -16.22c1.3,-0.15 3.55,0.44 4.83,0.84 0.45,0.14 1.27,0.54 0.77,-0.31 -0.38,-0.66 -1.41,-1.16 -2.31,-1.47 -1.06,-0.37 -2.06,-0.49 -3.34,-0.49 -1.13,-0 -2.19,0.29 -3.13,0.64 -0.67,0.25 -2.12,0.9 -2.32,1.43 -0.31,0.83 0.59,0.63 1.02,0.49 1.07,-0.36 1.16,-0.65 2.74,-0.98 0.86,-0.18 1.13,-0.09 1.72,-0.15zm9.73 1.61c0.02,-1.15 1.59,-3.53 2.13,-4.18 1.77,-2.14 2.96,-2.66 3.27,-3.02 -1.68,0.07 -4.77,0.82 -6.41,1.32l-1.93 0.63 0.13 -9.24c0.03,-1.43 -1.61,1.15 -2.13,1.8l-2.11 2.71c-0.47,0.62 -0.99,1.59 -1.78,1.35 -0.4,-0.12 -2.47,-2.77 -3.03,-3.38 -0.27,-0.3 -0.49,-0.58 -0.74,-0.87 -0.26,-0.3 -0.5,-0.56 -0.74,-0.86 -0.25,-0.31 -0.48,-0.56 -0.73,-0.87 -0.15,-0.18 -0.56,-0.73 -0.74,-0.81l-0.68 7.6c-0.1,0.83 0.04,1.79 -0.91,1.77 -0.42,0.02 -6.74,-1.12 -7.71,-1.28 0.23,0.7 0.57,1.43 0.86,2.1 0.29,0.66 0.62,1.35 0.94,1.97 0.33,0.65 0.66,1.26 1.02,1.89l1.08 1.82c-0.15,0.11 -0.55,0.24 -0.75,0.33 -1.04,0.45 -3.96,1.88 -4.76,2.54l-0.12 0.13 6.01 1.91 -2.23 1.94c-0.23,0.2 -0.37,0.29 -0.57,0.48 -0.17,0.16 -0.39,0.37 -0.55,0.5l-1.12 0.94c0.15,0.11 0.3,0.12 0.59,0.21l1.74 0.5c0.71,0.2 1.62,0.52 2.33,0.66 -0.08,0.69 -0.35,1.54 -0.56,2.16 -0.18,0.53 -0.47,1.14 -0.65,1.55 0.06,0.08 0.11,0.16 0.16,0.24 0.83,-0.16 2.92,-0.54 3.13,-0.5l0.27 2.54c0.29,-0.08 0.57,-0.13 0.84,-0.13 0.14,0 0.27,0.02 0.39,0.06 0.15,-0.1 0.29,-0.18 0.42,-0.25 -0.06,-0.25 -0.28,-0.59 -0.4,-0.87 -0.14,-0.3 -0.25,-0.56 -0.37,-0.89 -1.04,-3 -0.11,-1.76 -1.22,-2.52 -0.63,-0.43 -1.42,-1.42 -1.4,-2.27 0.02,-0.87 0.56,-1.34 1.35,-1.46l-0.09 -2.93c0.13,-3.14 0.76,-5.97 2.11,-8.46 1.51,-2.79 5.64,-4.2 8.88,-2.93 1.69,0.66 2.92,1.72 3.8,3.35 1.14,2.1 1.61,5.35 1.55,7.8l-0.12 2.94c0.47,-0.02 0.84,0.06 1.11,0.46 0.66,1 0.17,3.33 -1.6,3.56l-0.28 2.03 3.13 0.01 -0.98 -3.63c0.89,0.08 2.01,-0.09 2.75,-0.3 0.52,-0.15 1.81,-0.65 2.05,-0.96 -0.34,-0.25 -4.42,-2 -4.93,-2.33 0.07,-0.2 1.11,-1.25 1.34,-1.49 0.56,-0.58 1.64,-1.49 2.29,-2.02l2.46 -1.75c-1.13,-0.04 -2.28,-0.18 -3.41,-0.24 -1.32,-0.07 -2.39,0.01 -2.36,-1.34z"/>
   <path class="fil6" d="M15.3 30.23l-4.59 4.35c0.07,0.05 0.15,0.1 0.21,0.15 0.23,0.18 0.39,0.39 0.53,0.64 0.04,0.07 0.08,0.14 0.12,0.21l5.11 -5.28c-0.24,0.02 -0.48,0.05 -0.71,0.03 -0.23,-0.01 -0.45,-0.06 -0.67,-0.1z"/>
   <path class="fil7" d="M11.55 33.47c-0.27,-0.24 -0.6,-0.43 -1.03,-0.44 -0.63,-0.02 -1.47,0.36 -2.04,0.57 -0.57,0.21 -0.87,0.26 -1.21,0.22 -0.34,-0.03 -0.73,-0.15 -0.95,-0.32 -0.22,-0.17 -0.26,-0.38 -0.19,-0.72 0.07,-0.33 0.27,-0.78 0.18,-1.25 -0.09,-0.47 -0.45,-0.96 -0.84,-1.19 -0.39,-0.23 -0.8,-0.2 -1.14,-0.17 -0.33,0.02 -0.58,0.03 -0.71,-0.03 -0.13,-0.07 -0.13,-0.22 0,-0.46 0.13,-0.24 0.38,-0.57 0.46,-0.87 0.08,-0.29 -0.01,-0.54 -0.29,-0.71 -0.28,-0.17 -0.73,-0.25 -1.02,-0.38 -0.29,-0.13 -0.4,-0.32 -0.52,-0.5 -0.02,0.45 -0.05,0.89 0.07,1.17 0.12,0.28 0.38,0.38 0.38,0.5 0,0.13 -0.26,0.28 -0.47,0.53 -0.21,0.26 -0.36,0.63 -0.33,1.02 0.02,0.4 0.22,0.82 0.7,1.15 0.48,0.33 1.25,0.57 1.65,0.8 0.4,0.22 0.44,0.43 0.35,0.8 -0.09,0.37 -0.29,0.89 -0.32,1.37 -0.03,0.48 0.12,0.9 0.67,1.11 0.55,0.21 1.5,0.21 2.08,0.22 0.58,0.01 0.79,0.02 0.95,0.17 0.17,0.15 0.29,0.44 0.55,0.76 0.26,0.33 0.65,0.69 1.16,0.85 0.51,0.15 1.14,0.1 1.69,-0.15 0.54,-0.25 1,-0.7 1.2,-1.19 0.19,-0.49 0.13,-1.01 -0.02,-1.43l-0.01 -0.04 -0.83 0.86c-0.1,0.1 -0.15,0.15 -0.25,0.26l-0.87 0.9c-0.06,0.06 -0.14,0.08 -0.23,0.06 -0.26,-0.08 -0.51,-0.16 -0.72,-0.34 -0.21,-0.19 -0.34,-0.46 -0.45,-0.71 -0.04,-0.09 -0.02,-0.19 0.05,-0.26l1.04 -0.98c0.1,-0.09 0.15,-0.15 0.25,-0.24l1 -0.94zm-1.09 1.35l-1.04 0.98c0.11,0.24 0.23,0.48 0.4,0.64 0.17,0.15 0.4,0.22 0.63,0.29l0.87 -0.9 -0 -0.01c-0.05,-0.1 -0.1,-0.19 -0.16,-0.29 -0.12,-0.21 -0.26,-0.39 -0.45,-0.54 -0.07,-0.05 -0.14,-0.11 -0.22,-0.15l-0.04 -0.02z"/>
  </g>
 </g>
</svg>
