<?xml version="1.0" encoding="UTF-8"?>
<!DOCTYPE svg PUBLIC "-//W3C//DTD SVG 1.1//EN" "http://www.w3.org/Graphics/SVG/1.1/DTD/svg11.dtd">
<!-- Creator: CorelDRAW -->
<svg xmlns="http://www.w3.org/2000/svg" xml:space="preserve" width="28.7419mm" height="34.8318mm" version="1.1" style="shape-rendering:geometricPrecision; text-rendering:geometricPrecision; image-rendering:optimizeQuality; fill-rule:evenodd; clip-rule:evenodd"
viewBox="0 0 387.24 469.28"
 xmlns:xlink="http://www.w3.org/1999/xlink"
 xmlns:xodm="http://www.corel.com/coreldraw/odm/2003">
 <defs>
  <style type="text/css">
   <![CDATA[
    .str0 {stroke:#00D8FF;stroke-width:1.03;stroke-miterlimit:22.9256}
    .fil0 {fill:black}
    .fil4 {fill:#00D8FF}
    .fil2 {fill:red}
    .fil1 {fill:#FFF998}
    .fil3 {fill:white}
   ]]>
  </style>
 </defs>
 <g id="Camada_x0020_1">
  <metadata id="CorelCorpID_0Corel-Layer"/>
  <g id="_2029836720032">
   <path class="fil0" d="M65.42 469.28l-0.14 -45.23c-0.01,-43.2 5.87,-45.95 45.35,-61.36l42.17 -17.01 -20.06 -16.16c-11.23,5.54 -24.59,9.48 -36.34,14.15 -6.05,2.4 -11.59,4.65 -17.91,0.51 -9.22,-6.04 -5.72,-17.03 -2.35,-25.24 -18.37,2.66 -23.64,0.82 -40.19,-2.89 2.19,-8.84 2.21,-13.1 6.64,-18.97l11.59 -24.69c0.35,-0.65 0.86,-1.57 1.43,-2.6 -9.29,-4.02 -34.06,-20.31 -43.58,-26.29 9.62,-12.64 9.12,-14.5 23.94,-19.53l27.82 -18.22 -43.22 -22.04c-14.09,-7.21 -12.36,-5.81 -20.57,-16.6 8.07,-10.62 7.32,-10.92 22.56,-15.59l50.22 -13.74 -6.79 -25.14 -15.5 -49.77c-3.28,-15.38 -4.08,-13.82 7.26,-26.9l54.87 17.7c3.92,1.49 5.92,1.94 8.27,4.17 5,1.75 9.21,2.79 14.09,5.91l15.86 -44.32c1.46,-4.46 1.18,-7.96 7.75,-12.59l9.69 -6.83 26.46 32.75 21.11 20.12 14.93 -12.1 22.24 -17.8c22.6,-17.97 14.31,-17.62 41.97,-17.62l0 50.12c0.05,10.38 -1.9,21.01 -2.45,31.43l31.66 0.69c6.3,0.04 12.12,1.39 18.24,1.68 9.41,0.44 22.32,-1.59 28.44,6.88 6.77,9.37 -1.83,22.4 -7.68,31.93 -13.09,21.33 -16.6,24.39 -32.61,43.04 10.91,1.29 24.61,3.15 34.58,6.91l22.01 4.89c0,22.53 1.31,12.99 -10.15,30.44 -9.3,14.79 -23.45,23.95 -38.75,32 14.65,5.66 45.18,17.03 36.29,35.53 -3.67,7.63 -10.89,9.3 -18.11,11.9 -8.74,4.37 -19.54,5.93 -29.71,6.47 2.78,3.82 5.82,8.47 7.77,12.92 3.85,3.39 4.44,6.64 4.44,12.94l0 11.88c-27.89,0 -21.32,-2.37 -47.49,-5.15l-20.64 -2.98c-7,7.74 -17.9,14.57 -28.89,20.35 2.84,1.46 6.99,1.14 13.63,5.67 8.1,5.51 55.06,19.8 62.72,32.3 6.29,10.28 5.85,67.61 6.09,82.11 -87.63,0 -172.81,0 -258.97,0z"/>
   <path class="fil1" d="M211.57 334.07c3.32,-3.36 4.36,-0.68 10.02,-1.76 5.05,-0.97 2.28,-3.57 6.9,-4.75 1.11,2.15 0.85,-0.67 0.85,2.44 0,3.35 -4.23,4.94 -7.12,5.4 -3.39,0.54 -7.97,-0.73 -10.64,-1.32zm-41.73 18.46c1.91,4.65 5.1,8.18 10.15,10.3 10.49,4.42 35.55,6.72 39.76,-6.78 -29.44,6.61 -40.81,-3.07 -49.91,-3.53zm-63.73 -74.39c-0.25,-3.47 -2.37,-9.77 -3.23,-13.73 -1.19,-5.53 -1.37,-9.41 -2.41,-14.78 -10.04,3.22 -10.85,25.52 5.64,28.51zm184.99 6.25c2.39,0.94 11.35,-3.84 12.59,-11.5 0.62,-3.87 0.32,-8.05 -0.87,-11.18 -1.27,-3.35 -2.88,-6.28 -5.8,-7.59 -1.56,2.15 -1.24,4.44 -1.68,7.48l-4.24 22.79zm-135.92 39.64c-0.43,-3.47 0.4,-5.61 3.77,-6.28l-0.61 4.97 6.71 1.57 0 1.63c-5.48,0.32 -6.01,2.12 -9.87,-1.9zm104.91 -60.28c1.98,7.97 -34.61,13.48 -41.46,-2.71 2.14,-3.07 6.23,1.68 8.92,3.13 4.99,2.69 16.73,3.35 22.79,2.2 4.13,-0.78 6.78,-3.16 9.75,-2.62zm-106.03 -1.41c19.65,-0.17 13.93,-7.23 21.15,-3.2 -3.29,8.07 -13.73,6.7 -24.51,7.44 -6.79,0.46 -19.29,-2.27 -18.64,-10.69 4.46,0.77 7.66,6.59 22,6.46zm41.45 18.79c-14.32,0 -11.6,-29.15 -6.77,-33.12 1.62,2.29 0.98,8.09 0.89,11.13 -0.34,11.33 -2.1,12.23 4.76,18.73 6.12,-1.86 7.27,-5.86 8.18,-12.95 1.6,-12.6 -2.49,-12.36 2.26,-15.56 1.9,1.32 2.54,1.44 2.54,4.89 0,8.88 -0.09,26.88 -11.84,26.88zm-58.37 -98.55c20.27,0 41.66,15.23 61.16,10.83 10.59,-2.39 19.41,-5.35 28.99,-7.99 17.12,-4.71 29.75,-11.44 41.82,-5.29 0.18,7.21 -6.49,10.75 -14.06,14.98 -6.39,3.57 -12.43,6.26 -19.47,8.94l-21.78 6.69c-1.17,0.92 -4.78,8.01 -3,10.6 1.82,2.63 10,1.14 13.47,1.14l46.81 -0.55c-0.23,-5.68 -1.61,-8.31 -1.97,-12.49 3.31,-1.58 4.78,-2.02 6.93,2.27 3.78,7.53 3.02,21.04 -1.74,28 -12.43,18.15 -39.82,24.1 -58.01,9.15 -9.72,-7.99 -13.51,-19.89 -10.42,-31.95l0.9 -4.32 -18.02 -0.15c10.93,41.6 -47.23,55.97 -67.59,25.39 -10.7,-16.07 -3.39,-32.45 2.45,-32.45 8.57,0 -5.24,10.01 1.06,13.69l60.13 0.43c-1.12,-10.27 0.87,-6.41 -16.18,-9.39 -8.15,-1.42 -53.61,-13.4 -50.23,-23.47 1.72,-5.1 14.31,-4.07 18.75,-4.07zm39.48 138.19c0.13,3.29 -0.9,22.32 2.31,24.39 3.18,2.05 19.45,2.76 24.19,2.76 9.98,0.01 14.94,-0.84 22.74,-4.21 9.85,-4.26 26.23,-13.47 33.21,-20.11 10.6,-10.08 13.28,-22.21 17.06,-35.67 5.57,-19.81 9.69,-49.06 7.85,-68.82 -4.69,-50.33 -3.37,-81.14 -51.13,-105.9 -25.8,-13.38 -60.72,-6.47 -84.5,8.53 -29.86,18.83 -32.59,37 -35.95,68.94 -3.18,30.28 -2.53,64.22 8.63,92.12 8.7,21.75 12.49,34.26 31.61,47.74 4.19,2.95 11.22,9.14 16.07,10.33 -1.21,-15.42 2.17,-16.69 -3.27,-20.25 -1.85,-1.21 -0.2,1.03 -1.52,-1.2 13.19,-5.03 49.59,0.17 54.42,6.52 -2.36,4.75 -5.73,0.11 -18.76,-2.28 -8.14,-1.49 -14.15,-2.24 -22.97,-2.88z"/>
   <path class="fil2" d="M270.22 227.37c-15.67,0 -14.58,0.55 -31.63,-0.21 -7.65,-0.34 -3.83,0.53 -8.41,2.66 -0.02,-0.02 -1.26,-1.18 -1.26,-1.18l-1.78 -1.65c-2.05,-1.14 -2.65,-0.74 -5.37,-0.63 -4.14,0.18 -7.99,-0.08 -12.18,-0.08 1.98,16.31 12.56,25.54 29.89,25.58 14.74,0.03 30.51,-11.24 30.74,-24.49zm-146.89 -2.47c1.51,7.16 5.84,11.7 10.71,16.01 12.17,10.77 35.41,10.62 45.92,-3.25 11.44,-15.11 -0.87,-12.87 -2.86,-13.05 -19.16,-1.76 -7.46,2.13 -17.97,2.75l-0.63 -3.52c-14.45,0.11 -20.53,-0.44 -35.16,1.05z"/>
   <path class="fil3" d="M116.42 457.4c0.34,-0.7 0.24,-0.13 0.22,0l0.01 0 0.31 -1.21c0.17,-0.64 0.16,-1.04 0.19,-1.68l0.23 -29.34c0.01,-6.12 1.9,-5.34 -4.05,-9.64 -4.88,-3.53 -6.41,-3.25 -2.6,-7.09 2.57,-2.59 5.32,-5.14 7.44,-8.2 1.76,-2.53 0.56,-2.49 3.22,-4.67l18.8 -19.99c2.77,-2.85 4.94,-5.08 7.59,-8.05 2.69,-3.04 5.24,-7 8.24,-6.82 0.67,4.37 -16.52,21.62 -20.45,25.52 -7.99,7.94 -6.29,8.04 -10.62,12.88 -2.19,2.44 -10.15,10.47 -10.95,12.3 0.16,2.04 9.91,7.17 10.75,7.82 7,5.36 13.19,10.87 20.8,15.73 2.75,1.76 8.54,5.31 10.32,7.46 -1.71,2.01 -20.18,11.16 -28.94,14.99l39.61 0c-0.43,-9.99 -1.37,-20.35 -1.51,-29.91l-2.12 -35.76c-1.44,-11.29 1.13,-27.03 0.71,-36.76 -3.71,0.46 -9.92,3.22 -13.21,4.59l-35.02 14.1c-8.61,3.26 -26.36,10.63 -32.44,15.95 -4.73,4.15 -5.33,28.52 -5.33,34.44 0,7.01 0.28,21.38 0.21,33.35l38.59 0z"/>
   <path class="fil3" d="M274.72 457.34l0 0.06 37.13 0c-0.34,-20.68 -0.96,-42.09 -1.5,-45.84 -3.3,-23.19 3.1,-16.64 -22.36,-29.62 -12.16,-6.2 -33.18,-13.04 -39.54,-17.36 -4.15,-2.82 -5.85,-2.26 -10.74,-4.16 -3.68,-1.43 -8.32,-5.56 -8.55,-0.75 -0.08,1.81 0.57,2.22 0.18,4.71l-6.4 89.24c0.26,1.22 0.39,2.51 0.4,3.78l34.33 0 -7.55 -4.41c-4.63,-3.01 -10.44,-6.03 -14.6,-9.04 3.08,-2.84 6.26,-4.69 9.79,-7.31l10.38 -7.35c2.12,-1.56 2.81,-2.19 4.94,-4.08l9.01 -7.68c4.88,-3.98 6.24,-2.6 2.91,-7.92l-6.83 -9.7c-1.66,-2.07 -2.7,-4.72 -4.33,-6.85 -5.24,-6.87 -23.44,-24.09 -24.18,-30.83 3.31,0.13 5.53,3.61 7.22,5.62 2.21,2.62 3.75,4.48 6.01,6.82 14.02,14.53 18.32,23.08 28.61,35.13 2.63,3.08 3.35,4.08 -0.27,6.45 -4.82,3.16 -4.42,2.19 -4.36,8.36 0.04,3.67 0.27,7.26 0.26,10.91 -0.02,7.24 -0.07,14.57 0.01,21.82z"/>
   <path class="fil3" d="M242.59 444.71c1.15,0.97 -0.43,-0.02 1.82,1.27l17.98 9.04c2.55,1.38 3.42,2.03 3.96,2.38l3.01 0 0.86 -33.54c-3.83,1.07 -4.7,2.91 -7.53,5.04 -4.97,3.75 -18.73,13.18 -20.1,15.82z"/>
   <path class="fil3" d="M126.69 452.94c4.45,-3.33 19.24,-7.26 21.71,-9.95 -1.5,-2.92 -12.56,-9.61 -17.48,-13.61 -3.95,-3.21 -2.52,-3.23 -6.86,-3.81l0.63 24.5c1.17,4.26 -0.27,1.43 1.99,2.86z"/>
   <path class="fil4 str0" d="M217.19 457.4l5.09 -70.87c0.65,-6.32 2.05,-14 2.35,-20.44 -11.73,13.33 -44.09,11.6 -56.84,-0.33l4.37 91.64 45.03 0zm-27.61 -258.13c-13.11,0 -25.85,-7.3 -30.41,-8.34 -7.38,-1.68 -25.28,-7.07 -32.61,-2.25 2.84,1.45 3.12,3.32 11.43,6.76 32.32,13.38 60.1,16.83 94.26,4.49 4.02,-1.45 27.2,-10.69 27.99,-16.95 -2.44,-1.96 -7.67,0.1 -9.63,0.71 -12.89,3.99 -50.34,15.58 -61.01,15.58zm-88.28 19.37l-0.55 21.34 -3.26 1.05c-19.35,6.21 -19.02,41.35 6.87,46.04l6.89 1.25 16.33 30.4c-7.7,3.85 -26.54,10.26 -35.88,13.97 -6.05,2.4 -9.48,4.86 -4.25,-8.93 1.66,-4.38 6.44,-13.78 6.54,-18.19 -9.09,-2.04 -26.24,5.42 -43.14,1.63 0.57,-2.3 -0.02,-1.16 1.69,-2.65l6.56 -12.83c0.91,-7.28 12.05,-21.73 12.05,-28.51 -7.19,-3.66 -8.85,-2.15 -22,-10.59l-19.46 -12.22c1.71,-2.24 6.49,-4.43 10.15,-5.09 8.1,-3.29 28.61,-17.92 37.01,-24.23 1.96,-2.27 4.45,-5.12 5.29,-8.14 -3.46,-4.55 -65.1,-33.56 -66.83,-35.84 2.59,-3.4 62.41,-17.67 66.07,-19.66 7.87,-4.28 3.21,-12.7 2.57,-14.87l-6.03 -23.1 -15.31 -48.99c-1.59,-7.47 -2.97,-8.13 -0.76,-10.67l46.27 14.91c3.24,1.23 3.5,0.6 5.33,3.01 1.21,0.88 9.65,2.61 14.89,6.02 6.55,4.27 10.88,3.12 12.18,7.82l4.23 -5.7c0.07,-3.13 4.52,-16.1 5.91,-19.56l11.96 -33.28c1.06,-3.4 0.4,-4.59 3.28,-6.62l17.98 21.99c2.28,4.49 21.07,20.03 26.01,25.86 2.41,1.93 3.09,1.69 3.38,5.09 3.29,0.26 2.2,0.74 5.92,0.82l0 -4.89 19.52 -15.41c3.91,-3.16 6.01,-6.35 10.08,-7.4 2.14,-3.07 8.66,-7.76 12.09,-10.35l12.22 -10.23c4.9,-4.63 5.64,-4.67 9.53,-4.67 0,12.76 -0.06,25.53 0,38.28 0.03,7.64 -2.45,26.94 -2.58,34.99 -0.22,14.81 2.24,8.47 7.62,8.11 4.35,-0.29 5.51,0.8 9.12,0.67l27.31 0.19c6.07,-0.01 12.12,1.4 17.73,1.67 21.82,1.03 24.8,-3.51 10.74,20.9l-13.05 20.02 -24.11 28.1c-6.89,6.65 -8.73,5.75 -9.09,9.98 7.68,1.72 39.11,3.21 54.35,8.96 7.01,2.65 8,1.88 14.17,3.26 0,4.23 0.72,3 -1.69,5.09l-6.56 9.57c-10.41,15.93 -28.81,26.85 -46.42,32.89 -9.09,2.94 -2.23,2.49 -7.94,2.95l0 3.26c4.41,0.99 2.35,1.56 8.74,4.62 3.49,1.67 6.29,2.26 9.24,4.34 4.38,1.62 32.98,12.42 33.51,18.85 0.38,4.6 -6.56,5.88 -12.36,8.03 -20.4,9.11 -33.97,2.64 -42.51,8.14 0.4,4.57 3.8,10.29 6.44,14.16 0.06,0.09 7.46,9.67 8.79,15.16 3.02,1.95 2.54,1.24 2.54,5.7 -3.92,0 -8.49,-1.13 -12.35,-1.95 -14.6,-3.11 -29.77,-3.44 -38.41,-5.38l4.58 -10.25c10.85,-26.72 6.21,-5.69 23.2,-18.53 16.43,-12.42 10.06,-37.39 -2.63,-43.11l-3.48 -1.57c0.93,-21.69 1.05,-34.25 -3.71,-58.16 -0.95,-4.16 -8.17,-30.83 -11.92,-36.53 -7.15,-17.12 -19.96,-31.65 -44.6,-44.43 -29.06,-15.06 -67.55,-7.84 -94.15,8.93 -32.46,20.47 -36.5,40.72 -40.17,75.62 -0.98,9.36 -1.62,19.07 -1.7,28.88z"/>
  </g>
 </g>
</svg>
