<?xml version="1.0" encoding="UTF-8"?>
<!DOCTYPE svg PUBLIC "-//W3C//DTD SVG 1.1//EN" "http://www.w3.org/Graphics/SVG/1.1/DTD/svg11.dtd">
<!-- Creator: CorelDRAW -->
<svg xmlns="http://www.w3.org/2000/svg" xml:space="preserve" width="64.1439mm" height="63.2585mm" version="1.1" style="shape-rendering:geometricPrecision; text-rendering:geometricPrecision; image-rendering:optimizeQuality; fill-rule:evenodd; clip-rule:evenodd"
viewBox="0 0 958.55 945.32"
 xmlns:xlink="http://www.w3.org/1999/xlink"
 xmlns:xodm="http://www.corel.com/coreldraw/odm/2003">
 <defs>
  <style type="text/css">
   <![CDATA[ 
    .fil0 {fill:#020202}
   ]]>
  </style>
 </defs>
 <g id="Camada_x0020_1">
  <metadata id="CorelCorpID_0Corel-Layer"/>
  <path class="fil0" d="M316.9 882.14l0 10.92 -8.49 0c2.67,-5.57 0.4,-10.24 8.49,-10.92zm-67.92 -77.63l0.36 -0.36c-0.03,0.02 -0.49,0.24 -0.36,0.36zm107.95 103.1l-1.21 0 1.01 1.41 25.38 -25.96c12.03,-14.21 -3.1,-23.62 -8.2,-31.24 16.68,0 26.29,14.87 26.76,27.87 0.58,15.97 -15.25,17.9 -28.96,35.43l-9.55 9.86c-8.6,6.69 -30.94,6.44 -26.09,-9.05 3.86,-12.35 9.76,-13.04 16,-21.66 9.65,-13.34 11.67,-8.19 4.95,-25.59 -6.56,-17.01 29.85,-10.38 18.97,8.28l-12.61 18.93 -6.46 11.73zm593.09 -283.81l1.21 0 -1.01 -1.41c-1.16,8.08 -81.14,62.55 -85.35,65.46 -7.31,4.88 -26.64,14.52 -30.08,19.65 11.94,-2.78 64.76,-32.32 78.84,-40.03 -2.3,9.87 -12.04,14.56 -22.32,21.35 -10.66,7.23 -67.53,44.65 -75.62,54.15 -10.08,11.84 -9.59,22.67 -25.77,31.23 7.45,11.14 42.07,38.99 -2.83,61.46 -27.19,13.61 -90.17,20.06 -115.06,0.64 -9.01,-7.03 -7.23,-15.54 -7.03,-24.5 -7.48,0 -13.08,2.17 -19.4,3.64 -1.26,15.13 -12.44,21.83 -29.11,21.83 0.74,8.88 3.62,7.05 -2.72,14.26 -27.6,31.4 -78.93,18.32 -95.24,32.11 -16.09,13.61 -20.66,25.86 -48.82,23.99 -15.72,-1.04 -32.5,-21.48 -33.94,-38.83 -6.88,1.84 -4.85,6.02 -4.85,14.55l-55.57 49.95c-10.83,8.96 -23.99,15.23 -38.6,10.26 -18.15,-6.18 -18.63,-15.22 -18.63,-33.52 -6.08,0 -5.41,1.05 -10.87,1.26 -36.15,-0.1 -48.37,-3.58 -80.9,-19.86 -17.29,-8.65 -14.2,-2.48 -25.37,-19.51 -4.61,-7.03 -6.81,-4.25 -13.85,-7.98 0,41.34 -74.93,7.25 -70.2,-17.95 2.09,-11.15 14.29,-16.14 24.11,-18.43 -6.51,-9.72 -10.91,-2.16 -10.91,-19.41 7.08,-4.74 5.76,-3.64 16.98,-3.64 -3.72,-7.76 0.05,-13.15 8.49,-13.34l-36.71 -33.64c-5.13,-5.62 -5.74,-9.82 -5.74,-17.3 3.3,-2.21 4.05,-3.51 9.7,-3.64 -6.79,-14.15 -7.1,-35.91 -6.08,-50.95 0.32,-4.69 0.83,-2.48 1.23,-7.27 -14.91,5.62 -35.09,14.56 -50.94,14.56 -5.64,-21.11 -33.51,-15.53 -20.23,-99.07 1.41,-6.6 7.42,-5.67 13.44,-7.18l152.33 -35.66 -13.34 -27.9c-8.6,4.13 -9.14,6.83 -16.22,11.68 -18.19,12.48 -44.72,-1.89 -55.34,-17.75 7.06,-3.39 14.93,-4.47 15.77,-14.55l-132.2 10.91c-16.74,-31.64 -13.32,-94.09 0.48,-129.3 1.76,-4.5 5.22,-10.64 5.58,-15.03 35.81,0 71.64,9.78 90.98,9.69 6.45,-0.03 6.74,1.11 12.11,1.23 -2.87,-5.97 -4.68,-20.36 -4.85,-27.9 11.97,3.2 7.77,56.42 32.78,55.92 11.14,-0.22 7.41,-12.28 7.25,-19.53l-12.13 6.07c2.38,-10.22 5.91,-11.85 7.27,-16.98 -5.48,-1.28 -11,-1.63 -13.38,-6.02l-6.02 -13.38 -1.41 1.01c13.75,1.98 9.23,11.88 28.1,7.48 0,8.1 1.21,11.17 1.21,18.19 4.94,3.31 2.34,4.69 9.7,4.85 7.21,-10.77 -3.42,-23.97 -16.51,-28.37 -49.56,-16.66 -38.07,-11.65 -38.07,-32.27 3.48,2.33 4.98,6.26 7.27,9.71 19.44,29.14 57.01,-0.35 57.01,55.79 29.32,0 68.8,16.98 101.88,16.98 0,-9.48 -1.37,-8.77 -4.82,-14.59 -12.53,-21.18 -9.66,-17.85 -7.31,-46.06l-107.21 -61.38 -81.99 -46.57c0,-41.04 26.11,-73.9 60.64,-92.18l53.06 42.76c37.2,31.4 14.26,14.24 41.55,14.24 1.76,6.6 3.92,6.8 4.96,15.65 0.99,8.41 2.53,8.23 7.46,13.15 62.13,61.92 52.2,37.16 72.47,35.47 0.46,5.59 0.98,3.31 3.64,7.28 11.41,0 14.73,-1.51 19.41,-8.49l-20.87 -5.82c-44.38,-11.06 -42.07,-41.14 -48.79,-53.09l-71.92 -80.9c-13.44,-14.28 -54.04,-53.02 -62.18,-65.17 5.99,-11.32 28.79,-36.05 38.54,-46.36 9.33,-9.76 13.79,-18.78 30.49,-19.13 21.98,-0.23 24.04,-2.67 33.73,10.03l106.57 139.65c16.18,21.79 25.32,35.57 49.25,16.72 6.94,-5.47 10.17,-10.6 14.31,-18.43 -15.91,-3.71 -27.23,-9.6 -40.03,-18.19 -22.9,-15.37 -37.52,-26.21 -36.43,-58.27 0.91,-26.81 34.57,-48.39 57.53,-57.69 37.52,-15.19 76.57,-14.74 118.16,-13.82 23.07,0.51 39.23,6.66 52.67,3.94l16.17 -3.94 39.31 0c21.94,1.46 26.82,38.44 43.67,49.73 -0.8,-3.43 -2.82,-7.01 -2.45,-10.83 0.96,-9.89 9.86,-17.97 18.66,-21.47 16.26,-6.45 28.9,0.51 40.39,7.23 15.73,9.21 24.17,-2.72 53.46,26.58 18.16,18.17 18.92,22.85 43.56,35.28 19.55,9.86 42.41,14.56 54.62,38.77 12.83,25.45 -0.47,37.28 -0.85,54.21 59.21,0 68.82,66.86 61.61,112.55 -0.92,5.81 -4.06,13.2 -4.6,19.66 24.59,0 32.17,13.26 31.53,35.68 -0.84,29.58 -33.26,44.27 -55.79,33.45 -0.67,8.08 -2.93,8.85 0.81,17.38 8.45,19.29 11.53,14.49 -2.03,44.46 -9.86,21.79 0.2,33.93 -4.55,52.46 -1.54,6 -3.93,8.12 -3.93,15.48 21.48,11.36 18.16,54.65 -7.22,65.56 -7.97,3.43 -19.69,1.15 -29.17,1.15 -1.69,20.32 -21.55,41.42 -36.39,44.88 2.65,5.52 0.14,11.23 1.64,17.76 1.25,5.44 3.93,9.03 4.42,14.99 13.66,-6.56 34.99,-11.46 49.74,-18.18 9.17,-4.18 17.96,-9.83 27.88,-12.14 -2.91,10.91 -60.11,44.96 -69.13,49.73l0 6.07c12.17,-1.01 101.97,-53.92 115.22,-57.01zm-342.03 -155.25l-1.21 0 1.01 1.42 0.2 -1.42c14.93,-3.48 14.73,-19.47 17.1,-22.92 1.67,-2.43 0.58,-1.48 3.52,-2.55 -1.71,20.53 -9.53,27.08 -18.19,40.03 15.8,-0.36 16.95,-16.88 25.47,-26.68 -0.16,7.08 -3.23,29.56 -8.21,35.46 -1.22,1.44 -6.92,5.16 -14.12,14.99 -5.13,6.99 -14.74,19.15 -23.76,19.9 2.89,-12.42 12.13,-25.99 12.13,-35.17 -12.8,1.06 -4.33,19.26 -23.05,24.26 1.89,-7.08 7.66,-11.45 10.47,-16.22 8.94,-15.21 -4.8,-60.39 6.52,-68.68 -1.37,5.87 -1.21,8.44 -1.21,15.77 7.18,-3.8 11.76,-10.08 21.83,-10.92 0,23.81 -6.57,24.5 -8.49,32.75zm260.77 -47.3c-2.96,0.78 -1.64,-0.54 -2.43,2.42 5.96,-5.96 11.86,-6.89 14.55,-16.98l12.11 6.1c-1.23,5.34 -2.33,11.41 -3.62,16.95 -3.52,-2.58 -2.28,0.17 -2.43,-6.07 -11.38,7.62 -8.49,20.61 -8.49,38.81l-3.64 0c0,15.35 -0.35,27.25 -7.28,37.6 -5.33,-0.12 -3.78,-0.82 -8.49,-1.21 -11.47,17.13 -13.6,9.44 -24.1,36.55 -4.59,11.85 -14.86,31.38 -29.27,32.58 2.57,-3.51 8.48,-4.86 13.37,-10.89 9.7,-11.98 10,-20.14 16.54,-31.98 3.21,-5.81 7.27,-9.53 8.91,-16.56 2.96,-0.79 1.64,0.54 2.42,-2.43 -3.15,0.84 -1.35,-0.45 -2.42,2.43 -11.27,5.96 -9.67,6.67 -17.7,17.48 -23.18,31.22 -21.27,4.67 -33.25,10.42 -3.48,-14.95 -17.61,-16.98 -30.32,-16.98l14.55 9.7c-45.81,-12.89 -52.32,-10.01 -38.81,-30.32 8.99,-13.52 19.41,-24.81 19.41,-44.88l-10.91 18.19c0.14,-6.46 2.37,-9.92 2.47,-16.93 0.12,-8.49 -1.26,-12.21 -1.26,-19.45 -5.1,14.37 -12.99,44.41 -23.05,49.73 1.41,-16.87 13.34,-11.04 13.34,-57 6.09,1.42 12.02,8.21 24.33,9.64 31.76,3.67 48.56,-42.94 14.48,-50.88 5.93,-8.85 3.16,-4.97 1.21,-13.34 5.22,-0.44 2.19,0.17 6.07,-2.43 0,-18.49 5.34,-26.11 17.02,-37.56 4.88,-4.4 11.96,-6.49 19.29,-4.88 12.15,2.67 7.92,8.77 17.05,10.9 -2.12,-25.54 -34.53,-22.5 -54.57,-10.9 -18.5,10.71 -11.32,14.38 -23.06,27.89 0,-15.61 7.65,-19.56 19.08,-28.23 9.64,-7.31 18.78,-17.07 33.02,-15.39 11.48,1.36 21.96,11.31 26.75,21.77 12.49,27.25 -13.02,58.85 -25.45,80.1 -20.67,35.29 -23.95,38.48 -14.12,71.07 3.98,13.17 3.28,17.84 2.01,28.47 -1.31,10.99 5.39,17.93 15.38,12.91 21.33,-10.73 -3.42,-46.18 -0.2,-62.05 1.16,-5.71 2.84,-8.81 2.96,-14.03l2.43 0c0,21.06 -1.69,43.71 10.91,52.15 0,-32.84 -8.56,-27.46 0.5,-72.27 6.55,-32.4 4.9,-23.24 16.09,-44.55 2.46,-4.68 3.81,-10.13 7.67,-12.95 14.81,9.92 9.07,28.47 0.59,39.58 -1.94,2.55 -4.39,0.42 0.62,4.08 2.01,-7.52 19.99,-13.23 18.22,-42.39 -0.19,-3.08 -0.03,-6.63 -0.03,-9.76 11.86,13.64 -6.96,49.22 -8.49,55.79zm-483.94 -348.1l-2.18 -2.67c0.7,3.78 -2.15,2.2 2.18,2.67zm570.05 549.43l-2.18 -2.67c0.7,3.78 -2.16,2.2 2.18,2.67zm-587.03 -177.08c-1.35,-3.61 2.6,-1.89 -3.64,-2.43l3.64 2.43c2.21,9.5 11.86,20.59 12.13,32.75 -2.43,8.33 -18.88,23.44 -27.16,-0.73 -3.26,-9.5 -2.99,-10.47 1.69,-17.46 7.11,0.59 8.75,3.5 14.55,4.85 -3.55,-15.25 -18.48,-7.16 -24.23,-26.71 -1.47,-5.01 -3.28,-7.1 -9.73,-7.25 1.08,4.63 2.56,5.08 3.64,9.7 -8.28,12.37 -25.94,-1.96 -26.68,-10.91 5.38,6.39 8.2,10.69 18.19,10.91 0,-11.63 -6.52,-16.98 -18.19,-16.98l0 6.07c-4.56,-5.25 -0.87,-5.16 -3.64,-10.91 9.64,-0.8 8.97,-2.12 9.7,-4.85 -12.64,0 -25.75,-7.3 -23.63,-17.45 1.29,-6.17 1.8,-5.12 1.8,-12.87 -4.14,2.77 -3.56,2.93 -4.85,8.49 -4.08,-2.16 -2.26,-0.1 -4.85,-3.64 1.36,-5.1 6.24,-4.74 5.35,-10.26 -0.83,-5.16 -4.26,-6.93 -6.56,-10.36 -4.77,0.11 -2.84,-0.33 -6.06,1.21l0 -7.28 9.68 4.89c-4.41,-19.64 -14.65,-18.72 -6.04,-31.57l-3.85 -4.66c2.13,-4.2 1.42,-8.99 1.42,-14.74 -2.85,-0.66 -3.58,-1.13 -7.28,-1.21 1.33,-4.98 0.9,-3.64 7.28,-3.64 -0.54,-6.52 -2.43,-4.12 -2.43,-13.34 6.5,12.63 5.37,19.78 15.81,37.56 2.48,4.22 1.91,0.52 2.38,6.11l-4.66 -3.85c-0.07,5.29 1.77,12.47 3.45,15.97 -10.98,2.63 3,42.79 30.11,63.28 11.53,8.72 13.31,8.28 23.26,8.28 2.48,10.62 6.5,5.39 23.05,13.34 -1.93,2.88 -1.47,1.26 -2.43,4.85l10.92 7.28c-5.85,-0.49 -8.06,-2.7 -12.13,-4.85zm-172.23 190.42c2.96,-0.79 1.64,0.54 2.43,-2.43 -3.15,0.84 -1.35,-0.45 -2.43,2.43 -7.68,1.79 -14.14,5.79 -23.04,-2.43 33.27,0 33.78,-13.15 45.66,-17.41 3.74,-1.34 4.23,-0.33 7.71,-2l-5.08 -5.85c22.09,-10.89 7.01,-10.41 25.69,-14.76l0 21.83c-8.26,0 -5.64,-1.88 -12.13,-2.42 2.5,4.73 2.79,6.7 9.7,7.28 0,6.09 -0.14,6.29 -1.21,10.91l-3.64 0 -1.4 -7.24c-10.42,0.18 -30.31,6.89 -19.22,27.86 4.38,-0.36 5.78,-1.51 9.7,-2.43l-4.85 4.85c-13.73,0 -10.91,-7.32 -10.91,-20.62l-6.06 0c-2.41,10.34 -2.43,14.95 -2.43,27.9 -4.78,-0.4 -5.68,-1.21 -12.13,-1.21 -1.32,2.5 -1.68,2.87 -2.43,6.06 8.08,1.88 11.42,0.26 13.34,8.49 -10.84,0 -22.76,0.14 -24.26,18.19l-3.64 0c-1.08,-4.62 -1.21,-4.82 -1.21,-10.91 -2.5,-1.32 -2.88,-1.68 -6.07,-2.43 -0.48,5.79 -1.21,9.32 -1.21,16.98l-2.43 0c0,-9.04 0.88,-9.53 -2.43,-15.76l-8.49 0c1.62,-19.57 39.15,-32.53 42.45,-44.88zm71.56 69.13l0 -3.64c-3.77,2.72 -3.77,0.92 0,3.64 1.92,8.24 4.47,10.86 9.37,17.31l14.42 18.32c14.35,21.11 -2.64,19.81 6.53,37.14 -3.81,-0.88 -11.68,-2.08 -15.77,-2.42l0 3.64c-8.57,-0.71 -20.14,-19.42 -21.83,-26.68 7.83,5.24 -0.85,0.98 13.34,8.49 -1.76,-7.57 -13.62,-21.29 -15.38,-28.38 -0.44,-1.79 2.82,-21.75 -1.6,-40.75 13.17,3.07 7.61,3.34 13.81,10.45 16.93,19.38 30.41,17.91 32.28,40.49 -12.65,-8.47 -17.12,-25.51 -35.17,-37.6zm49.73 -75.2l2.43 0c-0.85,-3.55 0.15,-1.75 -2.43,-3.64l0 3.64c-9.64,2.57 -10.17,13.1 -18.19,23.04 1.35,-16.25 24.97,-42.08 36.39,-49.73 -2.05,8.78 -6.2,10.86 3.64,19.4 -24.24,2.02 -37.6,67.86 -37.6,81.26 -16.74,-12.27 14.49,-68.49 15.77,-73.98zm409.95 15.77l0 -3.64 -2.43 0c0.8,3.32 -0.49,1.89 2.43,3.64zm-37.6 245c2.5,1.32 2.87,1.68 6.06,2.43l0 -6.06c-4.38,0.36 -4.38,0.52 -6.06,3.64zm52.15 -23.05c0,-5.45 -1.42,-4.85 -7.28,-4.85 -1.94,9.18 7.28,10.69 7.28,4.85zm-69.13 8.49c0,3.28 0.58,3.34 1.21,6.06 4.7,-2.49 6.91,-2.59 8.49,-8.49 -3.49,0 -9.7,-0.94 -9.7,2.43zm-449.98 -390.55c2.62,3.91 4.86,6.77 10.92,7.28 0,-9.17 -0.77,-6.78 -1.21,-12.13 -4.71,0.39 -7.56,1.92 -9.7,4.85zm367.5 401.46c7.19,1.92 -1.28,2.43 10.91,2.43 0.49,-5.88 1.21,-3.2 1.21,-13.34 -5.34,-0.45 -2.96,-1.21 -12.13,-1.21l0 12.13zm-473.02 -107.95c0,10.12 0.37,9.7 10.91,9.7 7.46,0 7.34,-14.56 -6.07,-14.56 -2.84,0 -4.85,2.01 -4.85,4.85zm129.78 -261.98c0,19.54 9.09,13.7 13.34,13.34 5.08,-21.79 -13.34,-21.14 -13.34,-13.34zm106.73 -46.09c0,15.84 15.77,19.99 15.77,12.13 0,-10.66 -2.39,-18.19 -15.77,-18.19l0 6.06zm207.4 120.08c0,-11.06 -1.81,-36.78 -15.76,-40.03 0.32,3.9 1.31,7.33 2.81,10.53 11.09,23.66 2.41,29.26 12.95,29.5zm291.09 -97.03c10.87,-2.9 1.11,-9.46 11.4,-35.9 1.6,-4.12 4,-8.15 4.37,-12.61 -16.89,8.94 -15.77,30.66 -15.77,48.52zm-652.52 294.73c-2.57,11.04 1.34,18.19 13.34,18.19 1.05,-4.5 2,-3.39 2.43,-8.49l10.91 0c-1.23,-4.6 -2.37,-3.06 -3.64,-8.49 -6.32,0.52 -5.68,3.79 -11.31,1.71 -6.34,-2.34 -2.21,-2.92 -11.73,-2.92 1.07,-2.94 13.09,-13.47 21.85,-7.3 9.06,6.38 17.23,11.65 27.88,-8.47 -8.5,0 -9.78,1.67 -13.34,-3.64 7.46,-0.62 7.44,-5.44 14.79,-2.71 3.92,1.46 7.86,6.42 8.26,11.2 -5.7,0.13 -9.66,1.49 -12.13,4.85 4.53,6.76 9.04,3.29 19.41,2.43 -4.85,7.24 -4.32,1.69 -14.55,16.98 4.57,-1.06 7.51,-3.17 11.69,-5.29 6.73,-3.42 9.57,-0.6 14.99,-3.2 -0.59,7.1 -2.98,6.32 -6.06,10.91 4.77,-0.11 2.84,0.33 6.06,-1.21 0.98,3.66 -0.01,2.66 3.64,3.64 1.43,-3.84 -2.63,-1.74 3.64,-2.43 -1.58,5.92 -6.79,8.14 -9.7,20.62l19.41 -14.56c3,4.48 4.67,4.21 4.85,12.13l3.64 0c0.4,-4.74 -0.73,-3.68 3.64,-4.85 0,7.75 0.86,6.73 6.45,9.32 2.88,1.33 9.58,4.02 12.96,4.02l0 1.21c-7.04,0 -9.34,0.78 -14.56,1.21 1.94,2.9 3.58,6.06 8.49,6.06l0 1.21c-10.76,0 -22.4,8.49 -44.88,8.49 4.54,6.19 12.07,4.85 20.5,3.52 41.88,-6.64 25.09,0.72 44.16,2.02 8.16,0.56 14.6,-3.75 21.46,-4.32 -1.08,4.06 -0.58,3.35 -8.61,5.94 -26.3,8.47 -18.77,-6.55 -49.86,1.08 -12.12,2.98 -29.62,7.67 -40.17,3.08 -22.02,-9.58 -33.51,-32.84 -48.42,-42.54l-20.31 -11.22c0,-5.45 0.98,-15.36 4.85,-18.19zm497.28 -128.57c1.2,5.14 4.85,9.67 4.85,20.62l23.04 -29.11c-7.19,0.6 -22.68,5.73 -27.9,8.49zm-180.72 236.51l0 3.64c21.48,11.37 39.45,-16.98 10.92,-16.98 -8.27,0 -10.92,10.02 -10.92,13.34zm282.6 -491.22c0,38.98 -23.62,28.45 -30.32,37.6 7.37,0.61 18.97,4.92 29.36,-8.24 7.58,-9.61 11.36,-34.92 -0.25,-42.7 0,6.15 1.21,6.61 1.21,13.34zm-13.34 55.79c0,27.2 7.42,30.76 9.7,58.22l3.64 0c0.27,-12.07 7.55,-8.36 -4.4,-42.9 -4.97,-14.35 0.18,-22.87 0.77,-29.87 -5.02,2.44 -9.7,9.03 -9.7,14.55zm-563.99 355.37l0 2.43c16.67,8.82 17.03,26.46 38.81,31.53 -7.55,-11.28 -13.71,-13.92 -18.19,-20.62 3.16,-4.71 2.43,-1.67 2.43,-12.13l-4.85 0 0 7.28 -6.34 -5.79c4.03,-0.6 2.57,-0.26 5.13,-1.49l-1.21 -12.13 -9.7 -1.21c-2.3,3.44 -6.06,6.42 -6.06,12.13zm402.67 49.73l0 2.43c18.65,8.95 37.6,0.32 37.6,-12.13 0,-12.25 -37.6,-16.75 -37.6,9.7zm-155.25 -221.95l4.67 3.84c-2.53,5.45 -2.87,10.35 -6.41,16.25l-4.32 18.72 9.46 -8.74 -4.61 16.02c3.28,0.27 3.3,0.57 6.07,1.21 4.41,-8.34 32.06,-42.68 32.74,-50.94l-38.81 -12.13c0,7.38 1.21,8.85 1.21,15.77zm40.17 180.76l3.49 -0.05 0 4.85 -4.85 0 1.36 -4.8zm-11.06 -14.6l0 1.21 -1.41 -1.01 1.41 -0.2zm0 0c0.49,-5.85 2.4,-5.59 3.64,-10.91 -3.55,0.82 -5.62,2.12 -8.49,3.64l1.4 -7.23c-22.49,10.78 -31.35,36.25 -25.57,52.03 1.71,4.68 1.85,3.96 5.98,6.15 0.66,-2.85 1.13,-3.58 1.21,-7.28l4.82 2.49 0.04 -10.98 18.24 -5.91c3.04,5.69 3.36,9.02 10.87,10.77 7.2,-4.82 12.32,-5.72 12.21,-18.22 -0.12,-12.76 -6.24,-10.9 -20.7,-10.9l0 -4.85c-1.63,0.92 -1.34,0.66 -3.64,1.21zm-109.16 -61.86c10.59,-0.23 1.72,-1.24 8.71,-8.27 7.1,-7.13 8.15,1.76 10.69,7.05 8.85,-4.68 13.34,-9.57 13.34,-23.04l2.43 0c0,12.28 -1.91,18.34 -9.68,23.07 -3.4,2.07 -20.03,8.64 -25.49,1.19zm30.32 -35.17l2.43 0 0 3.64c-4.65,-3.23 -0.51,0.01 -2.43,-3.64zm-15.77 -2.42c2.39,1.15 5.6,1.75 8.49,2.42 -0.12,5.49 -1.21,4.82 -1.21,10.92l-25.47 1.21c0,-9.22 1.11,-9.77 1.21,-14.56l-3.64 0c7.41,-11.07 21.74,-14.05 27.9,-4.85 -6.36,0.14 -5.15,0.57 -7.28,4.85zm-33.96 6.06c0,39.55 8.09,46.09 43.66,46.09 21.73,0 36.27,-44.7 2.86,-63.5 -22.79,-12.82 -46.53,4.31 -46.53,17.42zm93.39 43.66c13.66,-9.15 10.96,-17.25 45.26,-33.57 9.37,-4.46 24.01,-9.73 29.94,-18.58 -6.08,0 -7.47,1.21 -14.56,1.21l9.7 -8.49c-6.06,0.13 -9.71,2.29 -15.77,2.43 10.74,-6.59 25.36,-8.29 33.96,-15.77 -21.5,0 -23.54,4.65 -32.75,4.85 8.46,-16.01 43.67,-4.95 55.79,-23.05 -20.11,0.45 -25.32,12.56 -58.22,-4.85 -24.94,16.7 -42.06,52.39 -49.49,80.28 -1.39,5.22 -3.43,10.2 -3.87,15.54zm132.2 -37.6l1.21 -33.96c4.08,-2.73 5.6,-5.52 12.13,-6.07l0 36.39c-4.85,1.13 -8.2,3.21 -13.34,3.64zm-23.04 -27.9c0,16.39 -4.11,52.15 9.7,52.15 11.97,0 40.98,-8.08 47.49,-27.7 4.47,-13.46 3.45,-29.29 3.45,-43.86 0,-39.69 -60.64,-0.31 -60.64,19.41zm88.54 2.43c0,-4.79 0.38,-4.92 1.21,-8.49 3.34,-0.78 6.37,-1.65 9.71,-2.43 -0.6,7.13 -4.77,9.48 -10.92,10.92zm-25.47 -23.05c0,11.79 -1.21,29.56 1.92,39.32 1.68,5.25 2.73,4.06 5.36,7.98 20.85,0 50.94,-14.22 50.94,-37.6 0,-37.4 -17.4,-19.34 -32.75,-15.77l0 -8.49c2.33,-0.54 6.92,-2.43 8.49,-2.43 0,0 14.15,7.09 23.12,-4.78 6.38,-8.44 -0.69,-15.57 -2.5,-18.27 -15.38,0 -26.36,0.03 -40.93,12.44 -7.06,6.01 -13.65,14.98 -13.65,27.59zm175.87 -536.09c0,15.97 -6.42,51.74 -26.95,19.67 -5,-7.82 -3.62,-10.33 -5.8,-19.67l-7.28 0 0 -8.49 -4.85 0c0,45.07 1.4,40.15 -3.56,84.98 -0.51,4.31 0.34,8.73 -0.33,13.01 -3.34,21.21 -4.32,31.33 -8.41,48.64l-8.31 35.29 32.51 -34.3 49.25 -68.3c55.56,-82.38 12.72,-84.28 -33.23,-110.88l-23.06 -13.33c13.05,24.65 40.03,26.74 40.03,53.37zm-514.26 741.07c0,19.81 -0.35,9.2 -2.43,16.98 -7.73,-0.17 -7.02,-2.28 -6.14,-8.48 1.01,-7.16 2.19,-7.02 8.57,-8.5zm36.39 0c0,5.1 -0.51,4.9 1.21,8.49l-7.28 0c3.51,-7.31 -2.14,-4.15 6.06,-8.49zm-54.58 -2.43l0 13.34c-3.23,0.27 -7.39,1.32 -9.7,2.43l-3.64 -4.85c5.44,-11.33 0.93,-4.35 13.34,-10.92zm-23.04 1.21c-18.97,4.42 -4.66,1.21 -19.41,1.21 2.03,-4.23 4.46,-12.13 15.77,-12.13 7.48,0 3.93,8.61 3.64,10.92zm31.53 -1.21c0.18,-8.14 10.26,-10.56 16.98,-12.13 5.14,9.71 4.85,6.19 4.85,14.56 -5.71,-1.33 -9.83,-4.78 -14.56,-7.28 -3.88,2.06 -4.09,2.72 -7.28,4.85zm-20.62 -3.64l0 -2.43 10.91 0 0 1.21c-4.48,0 -7.81,0.01 -10.91,1.21zm46.09 -12.13c7.6,0.63 11.95,6.57 12.13,14.55 -5.51,-0.46 -5.95,-3.41 -12.13,-4.85l0 -9.7zm15.77 2.43c4.71,0.39 3.16,1.1 8.49,1.21 0,4.79 -0.38,4.92 -1.21,8.49 -5.7,-1.33 -7.09,-2.86 -7.28,-9.7zm-84.9 1.21l0 -3.64c4.76,-0.11 2.84,0.33 6.06,-1.21 -1.54,5.75 -0.88,2.28 -6.06,4.85zm160.1 -14.56c5.42,2.6 5.03,0.38 7.69,6.87 5.36,13.06 2.66,13.21 2.01,21.03l-4.85 0c0,-21.49 8.88,2.84 -4.85,-27.9zm-185.57 -4.85c4.21,0.98 8.85,1.11 12.59,3.17 8.9,4.89 9.3,15.43 1.03,20.16 -3.41,1.95 -6.66,1.76 -9.99,3.35l-3.64 -26.68zm207.4 7.28c-4.75,-2.28 -5.49,-0.34 -6.07,-7.28l7.28 0c-1.62,3.37 -1.21,2.35 -1.21,7.28zm-229.24 -13.34l0 -12.13c9.95,0 14.56,4.62 14.56,14.56 0,4.74 -3.93,8.95 -6.06,12.13 -10.3,-4.95 -8.49,-4.38 -8.49,-14.56zm140.7 3.64l-12.1 -1.44c4.65,-2.96 9.06,-2.71 12.1,1.44zm26.68 -6.07l6.06 0 0 1.21 -6.06 0 0 -1.21zm-145.54 0c1.19,-1.19 4.4,1.64 1.46,0.68 -0.03,-0.01 -3.49,1.36 -1.46,-0.68zm-6.31 -9.46c3.22,0.55 1.86,-0.78 2.67,2.18l-2.67 -2.18zm304.67 -63.31c55.25,0 2.23,119.89 -37.54,127.5 -23.42,4.48 -21.15,-35.04 -17.31,-53.79 5.43,-26.49 25.24,-73.71 54.85,-73.71zm50.94 29.11l0 0zm-180.72 -7.28l27.9 2.43c-6.68,0 -22.88,0.75 -27.9,-2.43zm169.8 -1.21l0.36 0.36c-0.02,-0.02 -0.48,-0.24 -0.36,-0.36zm-169.8 1.21l-3.64 0 0 -1.21c6.41,0 1.81,0.01 3.64,1.21zm-50.94 -8.49c2.79,-1.86 2.44,-2.31 7.28,-2.42l0 -4.85 22.84 9.91c5.31,1.67 5.73,-0.61 8.7,3.43l-4.85 2.43c3.46,0.81 5.08,1.91 8.93,3.2 14.91,4.99 25.26,2.65 31.09,7.72 -43.92,0 -34.21,-6.9 -53.37,-8.49 7.42,11.07 38.31,20.62 58.22,20.62 -1.63,6.98 -1.5,12.13 -5.29,17.75 -10.04,14.89 -38.72,4.08 -50.5,4.08l0 3.64c-5.92,-2.84 -15.99,-1.47 -18.19,-9.7l8.49 0c-1.46,-5.49 -7.64,-10.61 -13.34,-12.13 1.2,-4.5 1.23,-1.57 2.43,-6.06 -2.92,-1.4 -1.58,-1.21 -6.07,-1.21l4.85 -1.21 0 -12.13 3.64 0c-2.12,-4 -4.15,-9.12 -4.85,-14.56zm-2.43 -14.55c5.64,0.47 2.12,-1.3 4.85,2.43 -5.63,-0.47 -2.12,1.3 -4.85,-2.43zm-99.45 0l10.92 -13.34c4.04,2.14 3.64,0.88 4.85,6.07l-15.77 7.28zm-60.64 -15.77c3.27,0.27 3.3,0.57 6.07,1.21 -2.54,9.5 -6.05,-1.18 -6.07,-1.21zm357.8 -7.28l-1.21 0 1.01 -1.41 0.2 1.41zm-362.65 -7.28c5.64,2.71 9.08,-0.18 9.7,7.28 -2.2,-1.47 -2.44,-1.76 -5.28,-3.21 -6.6,-3.38 -2.3,-1.3 -4.43,-4.07zm-21.83 -1.21l0 4.85c-3.01,-2.21 -4.16,-2.36 0,-4.85zm-8.49 -9.7l1.21 0 0 6.07 -1.21 0 0 -6.07zm13.34 0c3.45,2.53 3.74,4.92 4.85,9.7 -3.18,-0.85 -4.61,-0.99 -4.85,-9.7zm-7.27 -8.49l1.21 0 0 3.64 -1.21 0 0 -3.64zm171.01 -3.64l0 3.64 -1.21 0c0,-6.41 0.01,-1.81 1.21,-3.64zm520.32 -2.42l0 1.21 -1.41 -1.01 1.41 -0.2zm-694.97 -9.7c0,-2.9 1.96,-0.45 0.78,0 -0.02,0.01 -0.78,3.48 -0.78,0zm-4.85 -3.64l0 3.64 -1.21 0c0,-6.42 0.01,-1.81 1.21,-3.64zm53.37 6.06c0,4.69 4.81,14.5 13.11,7.04 3.42,-3.08 2.01,-3.17 3.87,-7.04l17.29 19.1c4.35,5.18 26.8,21.77 9.12,35.21 -18.65,14.16 -47.11,-3 -52.16,-34.62 -1.33,-8.31 -1.33,-24.32 9.98,-26.96 -0.42,4.99 -1.21,2.71 -1.21,7.28zm-38.81 -6.06c17.32,11.6 5.8,3.72 19.4,10.91l-1.21 19.41c-16.6,-3.87 -16.67,-26.91 -18.19,-30.32zm-14.55 0l0 0zm20.62 -4.85l2.43 0 0 3.64c-4.65,-3.23 -0.51,0.01 -2.43,-3.64zm52.16 -3.64l2.42 0 1.36 4.8 -3.79 0.05 0 -4.85zm-67.92 -1.21l4.85 0c-1.55,3.22 -1.11,1.3 -1.21,6.07 -4.01,-2.94 -1.36,-1.32 -3.64,-6.07zm-2.43 -6.07l0.36 0.36c-0.02,-0.02 -0.48,-0.24 -0.36,-0.36zm406.31 -15.77l0 -1.21c8.73,0 11.33,-1.85 18.19,-2.43 -3.67,5 -11.1,3.64 -18.19,3.64zm-145.54 -4.85c0,-2.9 1.96,-0.45 0.78,0 -0.01,0.01 -0.78,3.48 -0.78,0zm127.35 -3.64l4.85 0 0 2.42 -4.85 0 0 -2.42zm-287.45 -1.21c-0.27,3.27 -0.57,3.3 -1.21,6.06 0,0 -4.23,0.18 1.21,-6.06zm0 0l0 -1.21 1.42 1.01 -1.42 0.2zm-9.7 -3.64l0 -1.21 1.42 1.01 -1.42 0.2zm10.91 -4.85l2.43 0 0 3.64 -2.43 0 0 -3.64zm3.64 -2.43c2.68,1.86 1.5,0.2 2.43,3.64 -4.65,-3.23 -0.51,0.01 -2.43,-3.64zm15.77 -13.34l1.21 0c0,10.34 0.67,9.43 2.43,16.98 -5.33,-3.57 -3.64,-4.54 -3.64,-16.98zm-95.82 15.77c2.75,3.75 3.1,1.63 6.06,6.06 -2.99,4.09 -8.69,4.85 -15.76,4.85 1.38,-2.89 2.83,-7.44 3.64,-10.91 7.87,-1.84 16.11,-3.64 25.47,-3.64 -2.45,9.17 -14.54,-2.29 -19.41,3.64zm256.16 -4.61c0.6,-3.4 -0.69,-1.6 2.18,-2.67l-2.18 2.67zm-46.33 -7.52l1.21 0 0 3.64 -1.21 0 0 -3.64zm-107.95 2.43c2.99,1.21 2.42,-2.44 2.42,4.85l-1.21 0c0,-3.11 -0.29,-2.93 -1.21,-4.85zm161.31 -2.43l2.43 0 0 2.43 -2.43 0 0 -2.43zm309.28 1.21l0 -1.21 1.41 1.01 -1.41 0.2zm66.71 -13.34l1.21 0 0 10.91 -1.21 0 0 -10.91zm-504.55 12.13c0.54,-6.35 -1.16,-2.19 2.43,-3.64 -0.96,1.93 -0.8,2.9 -2.43,3.64zm140.69 -6.06l0 1.21 -1.42 -1.01 1.42 -0.2zm-254.7 0l0.36 0.36c-0.02,-0.03 -0.48,-0.24 -0.36,-0.36zm2.42 -1.21l9.7 0 0 1.21 -9.7 0 0 -1.21zm152.82 -2.43c6.46,3.42 8.26,4.85 18.19,4.85l0 9.7 -3.64 -6.07c-9.37,0.21 -4.57,2.55 -14.33,14.79 -15.3,19.19 -18.45,39.92 -24.49,64.05 0,-22.77 6.18,-44.28 16.58,-62.26 3.64,-6.29 7.6,-9.82 11.32,-15.37 -1.77,-7.58 -2.38,-5 -3.64,-9.7zm44.88 0l6.07 0c-1.33,2.5 -1.68,2.88 -2.43,6.07 -4,-2.93 -1.36,-1.32 -3.64,-6.07zm-80.05 -2.42l2.43 0 0 3.64 -2.43 0 0 -3.64zm-31.53 -2.43c3.4,1.63 5.9,1.63 9.7,3.64 -2.67,4 -2.88,5.97 -8.49,7.28 0,-4.39 0.12,-7.93 -1.21,-10.91zm166.16 8.49c2.41,-3.29 12.54,-8.36 18.19,-8.49 -2.36,3.22 -14.92,8.21 -18.19,8.49zm133.42 2.43c-8.32,12.41 -25.41,-1.89 -15.77,18.19 -20.4,0 -10.73,-8.41 -36.39,-2.43 2.32,-3.47 5.88,-6.72 8.72,-10.69 7.14,-9.96 4.18,-19.64 38.58,-19.64l4.85 14.56zm-357.8 -19.41c1.19,-1.19 4.4,1.64 1.46,0.68 -0.03,-0.01 -3.49,1.36 -1.46,-0.68zm134.63 4.85c2.72,-5.14 9.03,-14.7 15.77,-10.91 -3.64,5.44 -8.37,9.19 -15.77,10.91zm-12.13 -12.13l0 0zm1.21 -1.21l0 0zm1.21 -1.21l0 0zm111.58 -6.07c1.23,1.62 1.21,-2.55 1.21,3.64l-1.21 0 0 -3.64zm-1.21 -6.07c2.05,1.71 1.21,2.23 1.21,6.07 -2.05,-1.71 -1.21,-2.23 -1.21,-6.07zm-120.07 9.7c1.15,-4.29 1.29,-3.74 6.06,-4.85 -2.07,3.09 -2.08,3.79 -6.06,4.85zm-37.6 27.9c-1.49,-1.09 -8.49,-9.05 -8.49,-10.91 0,-12.2 18.85,-16.54 27.41,-19.89 4.59,-1.79 7.73,-3.23 12.61,-4.37 -2.83,10.6 -31.53,3.9 -31.53,35.17zm443.91 8.49l-7.52 8.25c11.55,-2.4 20.65,-8.09 30.7,-11.76 15.73,-5.75 19.99,1.08 36.26,1.08l0 6.07c-34.08,-7.94 -67.5,6.34 -83.32,37.96 -13.32,26.62 -9.57,39.58 -7.65,62.7l-137.05 55.79c8.36,-7.26 86.73,-37.14 97.03,-46.09 -24.71,2.06 -87.83,33.48 -105.52,37.6 3.17,-4.33 33.61,-19.64 40.86,-23.42l12.51 -9.32c-14.58,0.32 -54.97,25.43 -63.07,24.37 -5.48,-0.72 -3.42,-8.1 -4.54,-13.76 -2.67,-13.46 -9.34,-16.29 -13.65,-22.74 7.12,1.66 12.84,9.51 35.17,-1.21l0 -27.9c-17.76,0.39 -41.35,16.17 -49.87,19.26 -14.97,5.44 -26.86,8.13 -39.02,19.21 -9.38,8.54 -23.56,33.16 -25.13,34.3 0,-15.27 2.43,-21.02 -7.27,-21.83 0.77,-9.2 14.62,-30.37 3.63,-50.94 -4.37,-8.18 -11.23,-17.96 -21.83,-18.2 10.47,15.64 24.75,27.37 9.31,56.62 -3.35,6.36 -6.89,10.2 -6.89,19.79 -42.6,0 -48.01,-9.35 -70.35,-14.55 2.99,-35.83 7.92,-51.9 26.68,-80.05 5.64,1.5 1.07,1.91 7.28,2.43 2.97,-12.76 44.12,-41.4 61.86,-48.51 6.18,-2.48 8.32,-0.83 8.49,-8.49 13.91,3.24 30,18.19 48.51,18.19 -16.71,31.09 -50.94,72.56 -50.94,106.73 6.04,-6.94 9.85,-24.23 22.23,-45.69l27.5 -41.63c4.27,0.99 25.66,12.42 38.79,13.36 19.92,1.43 24.8,-10.35 36.42,-16.98 20.47,-11.69 43.72,-19.98 61.87,-31.52 4.15,-2.93 2.77,-4.4 8.47,-4.88 -1.59,-6.64 0.19,-4.18 9.69,-9.72 5.29,-3.09 11.23,-5.57 13.36,-8.47 -23.72,0 -72.97,29.13 -87.33,30.32 0.12,-5.57 -0.37,-4.35 3.72,-5.98 23.44,-9.38 45.26,-17.13 68.66,-28.36 18.49,-8.88 36.11,-12.64 36.78,-12.95l0 3.64c5.02,0 11.32,0.87 14.55,2.42 -1.75,4.85 -2.32,0.95 -6.06,6.07 5.22,0 17.4,-2.1 20.62,-3.64 4.11,17.62 1.8,12.3 9.7,12.13 -1.93,2.89 -1.47,1.26 -2.42,4.85l4.8 -1.36c-2.89,4.15 -1.27,1.51 -6.02,3.79 2.55,4.81 5.53,8.92 8.49,13.34 -6.99,1.63 -11.77,4.43 -14.55,9.7l6.07 0zm-391.76 -47.3l0 0zm0 0l0 1.21 -1.42 -1.01 1.42 -0.2zm366.29 -9.7l4.85 0 0 2.43 -4.85 0 0 -2.43zm-263.19 -3.64l1.21 0 0 3.64 -1.21 0 0 -3.64zm280.17 -1.22l0 0zm0 0l0 -1.21 1.41 1.01 -1.41 0.2zm-487.58 -2.42c0,-2.9 1.96,-0.45 0.78,0 -0.02,0 -0.78,3.48 -0.78,0zm452.4 7.28c3.72,-7.02 7.75,-12.17 14.55,-15.77 1.16,2.41 1.74,4.34 2.43,7.28 -9.83,6.58 -7.68,8.49 -16.98,8.49zm-76.41 14.56c8.22,-2.2 5.48,-8.49 26.68,-8.49 8.79,0 12.15,1.21 20.62,1.21l0 1.21c-32.69,0 -34.87,16.73 -44.88,19.41l0 -4.85 -7.28 0 0 -4.85c-9.58,0 -3.82,-0.5 -7.28,1.21l1.21 -19.41c8.15,-0.18 13.3,-4.48 20.69,-6 14.87,-3.06 41.28,-1.83 49.78,-3.58 7.95,-1.64 10.87,-5.44 19.28,-7.4 -16.7,31.56 -52.8,3.67 -76.39,26.7 -3.13,3.06 -2.01,2.97 -2.44,4.84zm-71.56 -47.3c1.1,-2.21 0.94,-1.52 1.21,-4.85 2.11,1.01 25.57,4.12 30.07,28.14 3.28,17.55 -3.11,33.71 -22.8,33.71 -10.14,0 -7.46,-0.72 -13.34,-1.21 -0.67,-2.89 -1.28,-6.1 -2.43,-8.49 9.17,-0.99 13,-0.17 16.98,-3.64 -7.6,-1.77 -8.17,-1.77 -15.77,0 -5.07,-4.83 -10.22,-8.57 -10.92,-16.98 9.32,0 13.03,0.43 18.19,-7.27 -14.56,0 -12.36,3.87 -24.26,-2.43 1.13,-13.52 11.45,-16.98 23.04,-16.98zm-204.98 55.8l14.82 -15.5c-4.19,0.65 -5.59,1.79 -9.97,2.16 4.13,-6.17 30.06,-18.64 39.74,-28.18 1.74,-1.71 6.46,-9.49 13.62,0.28 -2.83,4.23 -7.92,8.87 -10.91,13.34 9.58,0 10.31,-3.04 20.62,-8.49 -2.08,7.76 -28.49,20.72 -35.17,24.26 1.41,6.07 4.94,8.31 10.92,9.7 -1.11,2.31 -2.16,6.48 -2.43,9.7 18.41,4.29 24.11,-7.31 50.94,-24.26 0.24,10.62 5.28,11.3 12.13,24.26 -19.65,4.58 -64.8,44.2 -77.62,69.13 -10.2,19.84 -21.33,43.95 -21.83,66.71 -6.49,-0.54 -11.71,-5.7 -16.98,-8.49 3.45,-31.4 6.13,-56.02 27.16,-84.42 3.98,-5.38 4.86,-4.08 3.16,-11.4 12.94,8.67 13.31,13.79 24.67,8.9 5.05,-2.17 6.91,-4.74 9.25,-8.95 4.32,-7.77 4.11,-3.36 12.17,-7.23 0,-16.39 -11.81,-23.52 -24.26,-20.62 0,-10.18 -2.75,-18.37 -14.76,-20.42 -14.72,-2.51 -17.65,7.47 -25.27,9.5zm-99.46 -48.52l1.21 0 0 4.85 -1.21 0 0 -4.85zm553.07 0c5.02,3.36 4.83,6.9 8.58,13.35 2.72,4.67 2.83,0.71 1.12,4.85 -3.75,-1.36 -8.63,-13.6 -9.7,-18.19zm0 0l0 0zm-545.79 -6.06c19.17,10.14 14.58,16.63 13.34,31.53 6.73,0 8.07,-1.1 13.34,-1.21 2.27,3.39 1.92,3.7 3.64,7.28l-10.91 -1.21c-10.68,15.95 -11.82,13.66 -2.43,21.83l-7.24 1.4c-7.79,-12.05 -5.47,-3.05 -2.47,-15.95l-4.85 0c6.64,-13.83 -2.21,-36 -2.43,-43.66zm563.99 61.86c0.69,-8.3 1.95,-2.08 11.86,-12.4 8.36,-8.7 10.14,-24.5 12.65,-35.86 2.11,-9.56 5.79,-13.14 7.02,-18.45l3.64 0c0,19.55 -12.03,61.32 -35.17,66.71zm-144.33 -60.64c0.54,-6.35 -1.16,-2.19 2.42,-3.64 -0.96,1.93 -0.8,2.9 -2.42,3.64zm211.04 -4.85l0 10.92c4.35,2.3 4.5,1.91 7.28,6.06 -28.73,15.2 -32.16,-18.99 -21.39,-26.24 10.2,-6.87 20.86,-4.54 26.24,5.63 -9.05,0 -6.2,2.06 -12.13,3.64zm-550.64 -8.49c4.44,-1.18 2.54,-1.28 6.06,-3.64l0 7.28c-3.27,-0.27 -3.3,-0.57 -6.06,-1.21l0 -2.43zm-46.09 4.85l0 -15.77c5.77,3.05 11.02,8.07 14.55,13.34 -5.02,0 -11.32,0.87 -14.55,2.43zm280.17 -4.85c4.53,-5.42 9.09,-8.7 16.3,0.68 8.18,10.66 15.16,38.15 6.75,47.83 0,-32.34 -12.63,-32.96 -23.05,-48.52zm-212.25 -1.21l2.43 0 0 4.85 -2.43 -4.85zm7.28 -2.42c0,-2.9 1.96,-0.45 0.78,0 -0.01,0.01 -0.78,3.48 -0.78,0zm166.16 -2.43l0.36 0.36c-0.02,-0.03 -0.48,-0.24 -0.36,-0.36zm-35.17 -2.43c1.19,-1.19 4.4,1.64 1.46,0.68 -0.03,-0.01 -3.49,1.36 -1.46,-0.68zm-118.86 -3.64c0,-4.48 8.6,-12.31 10.92,-15.77 3.22,1.54 1.3,1.11 6.06,1.21 0.13,5.75 9.73,35.17 -12.13,35.17 -6.11,0 -2.43,-4.64 -2.43,-9.7 0,-5.74 -2.43,-7.75 -2.43,-10.91zm211.04 -4.85l0 1.21 -1.41 -1.01 1.41 -0.2zm237.72 -1.21l0 0zm-343.24 0c24.81,0 24.72,3.78 38.81,10.91 6.23,3.16 12.67,8.94 13.34,16.98 -16.55,-3.86 -4.48,-17.48 -36.67,-22.76l-15.48 -5.14zm343.24 0l0 -1.21 1.42 1.01 -1.42 0.2zm-343.24 0l0 0zm-174.65 -12.13l7.27 16.98c-8.73,-0.73 -7.27,-7.82 -7.27,-16.98zm103.09 14.55c6.51,-24.38 66.18,1.21 84.59,19.72l30.39 36.32c8.19,12.28 13.39,20.9 17.22,37.36 -2.28,4.31 0.21,3.5 -4.85,4.85 -2.77,-11.88 -9.88,-39.43 -20.62,-47.3l-4.67 3.85c-2.04,-15.34 -10.86,-26.79 -23.47,-35.14 -9.35,-6.19 -24.59,-19.65 -38.57,-19.65 0,16.31 2.42,26.56 3.64,41.24 -5.81,-6.69 -5.37,-27 -7.28,-35.17 -3.28,-0.27 -3.3,-0.57 -6.07,-1.21 0,15.06 2.43,29.22 2.43,44.88l-1.21 0c0,-11.18 -0.95,-23.26 -7.28,-27.9l0 19.4c-8.84,-5.92 -8.49,-34.44 -8.49,-47.3 -7.26,0.16 -11.34,3.1 -15.77,6.06zm52.16 -24.26c10.05,0 16.44,4.22 20.62,12.13 -20.57,0 -13.02,3.64 -16.98,3.64 -7.37,0 -9.73,-4.65 -15.77,-6.06 1.65,-7.1 8.68,-9.7 12.13,-9.7zm-93.39 10.91l0 -4.85c5.64,0.47 2.12,-1.3 4.85,2.43 -2.82,3.85 0.84,1.83 -4.85,2.43zm21.83 -19.41c0.33,3.93 1.57,10.9 2.42,14.55l-6.06 0c4.02,-8.38 -2.47,-10.08 3.64,-14.55zm-94.6 6.06l1.21 0c0,6.43 1.21,6.99 1.21,12.13l-1.21 0c0,-3.59 -1.21,-6.21 -1.21,-12.13zm190.42 4.85c4.29,1.15 3.74,1.29 4.85,6.06 -2.56,-1.88 -3.09,-3.44 -4.85,-6.06zm231.48 2.39c-2.03,-1.06 -1.34,-0.9 -4.67,-1.17 1.06,-3.95 2.12,-5.01 6.07,-6.07l-1.4 7.24zm-556.52 21.87c23.65,-5.52 24.98,-14.82 36.39,-15.77 2.91,12.48 3.33,22.01 -11.91,26.9 -16.18,5.19 -30.01,-0.23 -42.67,-8.7l19.73 -20.3c3.55,-3.93 5,-8.29 9.56,-11.06 5.4,-3.27 10.92,-2.8 15.58,-5.04 1.57,2.97 2.23,5.56 3.64,8.49l-30.32 25.47zm191.63 -30.32l-4.85 2.43c0,16.02 2.53,15.76 18.19,15.76l-4.89 9.68 -30.28 -6.04c-3.42,14.66 0.42,11.14 1.21,20.62 -4.48,-3.28 -3.79,-9.57 -5.25,-12.94 -2,-4.63 0.39,-1.51 -3.24,-2.83 -1.79,3.74 -1.22,4.45 -1.22,9.7 -4.8,-5.52 -1.12,-6.62 -2.87,-12.9 -1.31,-4.74 -3.88,-5 -4.41,-11.36l4.85 0c-1.05,-4.49 -2,-3.39 -2.43,-8.49 4.34,0 15.49,-1.13 18.19,-2.43l0 10.92c9.8,-6.56 4.53,-12.13 16.98,-12.13zm0 0l0 0zm303.22 -2.43c5.48,0.46 10.56,3.11 16.98,3.64l0 10.92c-5.31,-1.42 -5.97,-5.25 -8.24,-4.26 -4.87,2.13 5.57,8.53 -18.44,21.24 0,6.47 0.75,6.66 3.64,12.13l-9.7 0c-3.27,4.88 -3.64,1.47 -3.64,9.7l-14.56 0c2.41,10.34 -2.89,3.57 -18.19,10.91 -1.24,-5.32 -3.15,-5.07 -3.64,-10.91 23.95,0 8.26,-9.7 32.75,-9.7 -0.12,-5.49 -1.21,-4.82 -1.21,-10.91 4.23,0.98 6.65,2.8 9.7,4.85 -0.53,-6.36 -2.43,-7.69 -2.43,-15.77 6.74,-1.57 11.76,-5.35 13.34,-12.13 3.71,0.99 5.67,2.97 8.49,4.85 -0.41,-4.87 -3,-11.06 -4.85,-14.56zm-243.79 -1.21c6.23,0.14 3.48,-1.1 6.07,2.43l-6.07 -2.43zm-123.71 -3.64c2.2,1.39 1,1.21 6.06,1.21 -2.84,5.37 -0.69,3.22 -6.06,6.06 -0.12,-5.34 -2.02,-5.59 0,-7.27zm208.61 0l0.36 0.36c-0.03,-0.03 -0.48,-0.24 -0.36,-0.36zm220.74 -1.22l0 1.22 -1.42 -1.01 1.42 -0.2zm-315.35 -2.42c5.21,2.76 2.2,-0.33 3.64,3.64l-3.64 0 0 -3.64zm315.35 2.42c0.83,-3.46 -0.18,-1.82 2.42,-3.64 -0.54,6.35 1.16,2.19 -2.42,3.64zm-231.66 -6.06c3.14,2.1 7.54,4.32 9.7,7.28 -7.69,-0.17 -7.09,-2.31 -9.7,-7.28zm-70.34 1.21l1.21 0 -1.01 1.41 -0.2 -1.41zm-72.77 2.43l0 -18.19c3.14,2.1 4.27,4 4.82,8.55 1.14,9.46 0.28,7.66 -4.82,9.64zm-124.93 -9.7c5.46,3.66 5.91,13.47 6.07,20.62 3.48,-2.33 4.41,-4.37 4.85,-9.7l12.13 0c1.23,14.76 9.82,19.67 -12.13,14.56 0.54,6.46 2.12,5.62 4.85,9.7l10.91 0 0 18.19c7.12,-4.77 7.08,-14.63 18.01,-13.2 7.71,1.01 8.67,14.82 8.67,24.11 0,5.95 -12.01,11.63 -16.98,4.85 -2.89,1.93 -1.26,1.47 -4.85,2.43l-19.41 -30.32c-3.27,0.27 -3.3,0.57 -6.06,1.21 -6.67,-21.03 -5.31,-18.48 -6.07,-42.45zm80.05 13.34c-0.86,-1.86 -4.07,-2.92 6.06,-9.71 -0.47,5.65 -1.84,8.58 -6.06,9.71zm100.67 -9.71l2.43 0 0 2.43 -2.43 0 0 -2.43zm168.59 -1.21l0 1.21 -1.41 -1.01 1.41 -0.2zm-278.96 -8.49l1.36 4.8 -5 0.05c0.4,-4.74 -0.73,-3.68 3.64,-4.85zm240.15 0c8.04,0.18 8.59,4.15 16.98,4.85 -2.89,6.02 -2.46,6.68 1.21,14.56l-10.91 15.76 -7.24 -1.4c-4.7,9.07 -12.53,11.1 -26.72,11.1 0,-11.7 4.57,-10.98 20.62,-16.98 2.44,-10.49 -1.75,-9.36 16.98,-10.91 -3.41,-4.65 -2.9,-0.05 -7.8,-6.76 -6.33,-8.65 -2.97,-4.95 -3.12,-10.22zm157.67 37.6c0,-17.25 8.04,-34.24 21.07,-43.21 4.69,-3.23 10.54,-3.91 16.53,-5.3 2.11,9.06 7.37,13.46 4.85,24.26 -5.55,-1.49 -5.83,-4.6 -12.13,-6.07 -1.5,5.63 -5,7.28 -12.13,7.28l9.7 -16.98c-30.99,20.75 -19.43,33.82 -27.9,40.03zm-181.93 -41.24l0.36 0.36c-0.03,-0.02 -0.48,-0.24 -0.36,-0.36zm-245 0c3.66,-4.65 2.51,-2.89 10.91,-4.85l0 10.92 -9.7 -1.22c-0.32,-3.75 0.01,-2.29 -1.21,-4.85zm228.02 -2.43c8.38,0.7 6.92,3.9 9.7,9.7 -4.79,0 -4.92,-0.38 -8.49,-1.21 0,-3.45 -0.16,-6.13 -1.21,-8.49zm-172.23 9.7c0,5.25 1.47,6.82 3.64,10.91 10.6,0 5.68,-0.92 12.13,-2.42 -2.45,5.1 -4.01,16.78 -21.83,4.85 1.21,-5.19 1.6,-17.24 4.12,-28.63 0.8,-3.61 1.65,-5.38 1.95,-8.97 7.87,4.17 0.59,1.87 5.1,8.24 1.81,2.56 4.73,4.09 7.03,7.53 -7.04,0 -12.13,1.48 -12.13,8.49zm-26.68 15.77c0.08,-3.68 6.84,-24.73 15.77,-25.47l-15.77 25.47zm127.35 -6.07c-4.57,-1.84 -1.01,-2.08 -5.1,-5.82 -8.94,-8.16 -15.93,0.23 -19.16,-13.59 7.77,-1.81 7.89,-8 12.13,0 -4.06,0.95 -6.37,1.96 -8.49,4.85 7.58,1.76 20.33,1.63 20.62,14.56zm-202.55 -13.34c0.54,-6.47 2.83,-8.38 8.49,-9.7 -1.46,6.26 -3.55,7.09 -8.49,9.7zm320.2 -13.34c9.49,2.21 6.24,7.47 16.99,13.33 6.13,3.34 2.64,-1.58 6.05,4.87 -19.31,-4.5 -15.84,-2.06 -23.04,-18.19zm-138.27 0l3.64 0 0 2.43 -3.64 0 0 -2.43zm261.98 -18.19l2.42 0 0 19.4c-4.18,-3.06 -2.42,-7.34 -2.42,-19.4zm-166.16 12.13c3.95,2.64 2.7,2 4.85,6.07l-4.85 0 0 -6.07zm-185.57 1.21c-2.72,0 -2.66,-0.96 -4.85,-2.43l-9.68 4.89 -0.02 -7.31 19.41 -1.21c-0.87,1.65 -2.65,6.06 -4.85,6.06zm261.98 26.68c0,-13.92 10.32,-37.12 12.13,-44.88l15.76 8.49c-6.24,26.79 4.53,39.5 -17.46,75.93 -5.22,8.65 -8.25,10.12 -18.93,12.61 -1.55,-6.66 -4.09,-8.98 -1.1,-16.87 1.31,-3.46 7.32,-13.61 -1.31,-7.5 -11.68,8.26 -12.14,9.94 -12.14,29.22l-4.67 -3.85 -0.19 -20.41c23.08,-12.21 38.81,-24.76 38.81,-52.15l-10.91 19.41zm-60.64 -37.6l2.43 0 0 3.64c-4.65,-3.23 -0.51,0.01 -2.43,-3.64zm-8.49 1.21c0,-2.9 1.96,-0.45 0.78,0 -0.01,0.01 -0.78,3.48 -0.78,0zm20.62 21.83l-1.21 0c0,-21.54 3.99,-16.3 4.85,-26.68 2.7,1.43 3.65,2.02 6.07,3.64l-9.7 23.05zm-220.74 -23.05c1,-2.76 -1.65,-3 6.06,-3.64 -3,4.09 -1.31,1.28 -6.06,3.64zm-26.68 4.85l0 8.49c-19.83,0 -9.45,-0.11 -19.4,-2.43 2.83,-12.18 7.25,-16.98 29.11,-16.98 -3.7,6.99 -2.44,7.08 -9.7,10.92zm225.6 -10.92l0 -2.43 3.64 0c-2.67,3.84 -0.18,0.86 -3.64,2.43zm-138.27 -3.64c5.64,0.13 6.02,0.15 7.28,4.85 -5.12,-2.46 -3.89,0.21 -7.28,-4.85zm-54.58 0l6.07 0c-3.44,6.11 -5.99,0.11 -6.07,0zm257.13 16.98l0 3.64 -3.64 0 2.82 -23.43 6.89 1.6c-2.25,4.25 -6.06,11.9 -6.06,18.19zm6.06 -20.62c0,-2.9 1.96,-0.45 0.78,0 -0.02,0.01 -0.78,3.49 -0.78,0zm-60.6 2.57l-0.05 -11.06c4.99,2.64 2.19,-1.69 4.85,9.7l-4.8 1.36zm130.94 -3.79l0 1.21 -1.42 -1.01 1.42 -0.2zm33.96 66.71c-3.12,0 -5.29,-2.56 -8.08,-4.05 -5.07,-2.73 -5.97,-0.76 -6.48,-6.86 21.19,-0.47 16.49,-24.59 22.64,-40.43 9.28,-23.94 32.28,-38.08 49.18,-25.33 6.63,5 4.02,6.14 7.01,12.39 -9.4,-0.21 -16.16,-9.19 -31.86,8.17 -10.8,11.94 -27.93,56.12 -32.42,56.12zm-304.43 -73.98c13.73,0 38.92,20.19 58.18,31.57 5.31,3.13 14.06,8.01 15.8,14.52 -5.11,-2.45 -7.95,0.39 -21.36,-7.75 -11.64,-7.07 -14.3,-13.33 -35.25,-25.4 -5.41,-3.11 -14.35,-8.43 -17.38,-12.94zm0 0l-1.21 0 1.01 -1.42 0.2 1.42zm160.1 -7.28c0,-8.01 -0.99,-9.42 2.43,-13.34 0,10.15 15.77,33.01 15.77,52.15 0,5.66 -1.21,1.62 -1.21,7.28l-1.21 0c0,-17.28 -15.77,-32.17 -15.77,-46.09zm-195.27 2.42c6.23,0.52 9.51,0.78 10.92,6.07 -11.57,-0.26 -10.18,-4.65 -10.92,-6.07zm504.56 0c0,-2.9 1.96,-0.45 0.78,0 -0.01,0.01 -0.78,3.49 -0.78,0zm-351.73 -1.21c9.9,0 6.96,-4.12 15.77,-4.85 0,5.79 -0.82,5.03 -1.21,9.7l-6.07 0c0,19.8 -4.47,13.06 -10.96,37.55 -3.69,13.92 -6.52,0.83 -8.46,24.29 -0.37,4.47 -1.48,5.74 -2.4,9.72 -6.3,-9.92 -1.21,-24.01 -1.21,-27.9 -4.58,2.43 -8.36,6.12 -13.34,7.28 -1.75,-7.49 -2.42,-8.38 -2.42,-18.19 6.87,4.6 4.87,6.88 10.91,8.49 2.09,-7.79 15.75,-25.13 -3.64,-20.62 0.57,-6.91 3.75,-6.22 8.49,-8.49 2.62,5.45 2.43,7.01 2.43,13.34l4.85 0 1.22 -24.26c9.39,0 9.13,0.87 13.34,-1.21 -2.99,-4.09 -2.86,-1.01 -7.28,-4.85zm152.82 13.34c0.72,-8.69 9.39,-14 16.98,-15.77 -2.14,2.91 -5.7,4.61 -8.74,7.03 -4.21,3.34 -3.08,5.28 -8.24,8.74zm-156.46 -16.98l2.42 0 0 2.43 -2.42 0 0 -2.43zm-19.41 10.91c-4.79,0 -6.34,-3.24 -7.28,-7.28 3.36,-1.61 10.22,-4.49 14.56,-4.85 -0.58,2.5 -2.33,12.13 -7.28,12.13zm189.21 -23.05l0 -1.21 1.42 1.01 -1.42 0.2zm-168.59 -3.64l1.36 4.8c-4.43,-0.95 -4.13,-1.17 -9.85,-1.17 3.94,-3.42 4.48,-1.71 8.49,-3.64zm-43.66 6.07c0.37,-4.46 0.39,-4.48 4.85,-4.85 -1.11,4.76 -0.21,4.74 -4.85,4.85zm-95.82 9.7l-5.85 -5.08c4.43,-8.7 9.45,-16.23 22.83,-13.12 0,8.22 -1.17,21.02 -10.92,21.83 6.39,-12.07 6.07,-0.69 6.07,-18.19 -10.65,0 -12.13,4.09 -12.13,14.56zm-30.32 -18.19l4.85 0 0 3.64c-2.21,-1.1 -1.52,-0.94 -4.85,-1.21l0 -2.42zm31.54 -3.64l0 1.21 -1.42 -1.01 1.42 -0.2zm144.33 4.85c1.28,-4.81 4.76,-7.34 9.7,-8.49 -0.65,7.84 -4.46,5.97 -9.7,8.49zm172.23 -12.13l0 0zm0 0l0 -1.21 1.41 1.01 -1.41 0.2zm-191.63 -1.21l21.83 0c-3.42,5.11 -11.32,7.53 -17.79,4.46 -4.22,-2 -1.91,-0.45 -4.04,-4.46zm306.85 -3.64c1.19,-1.19 4.4,1.64 1.46,0.68 -0.03,-0.01 -3.49,1.36 -1.46,-0.68zm-19.41 -2.43l0.36 0.36c-0.02,-0.03 -0.48,-0.24 -0.36,-0.36zm-451.19 -1.21l3.64 0 0 2.43 -3.64 0 0 -2.43zm553.07 2.43c0.54,-6.35 -1.16,-2.19 2.43,-3.64 -0.95,1.93 -0.8,2.9 -2.43,3.64zm-100.67 -3.64c0,-2.9 1.96,-0.45 0.78,0 -0.02,0 -0.78,3.48 -0.78,0zm-326.26 1.21l0 -4.85c5.61,2.97 4.35,2.88 0,4.85zm-95.82 6.07c0,-7.05 0.77,-11.57 4.85,-14.56 -0.13,5.87 -0.91,11.67 -4.85,14.56zm423.29 -12.13l0.36 0.36c-0.03,-0.02 -0.49,-0.24 -0.36,-0.36zm-309.28 -4.85c7.98,0.18 8.95,2.36 10.92,6.06 -11.57,-0.26 -10.18,-4.65 -10.92,-6.06zm-60.64 30.32c4.31,-3.75 12.71,-4.63 26.91,-22.82 3.18,-4.08 3.89,-5.79 8.26,-8.72 -2.7,11.57 -1.93,13.04 -11.21,22.75 -12.17,12.73 2.72,8.79 -23.96,8.79zm371.14 -32.75c0,-2.9 1.96,-0.45 0.78,0 -0.02,0.01 -0.78,3.48 -0.78,0zm-272.89 -2.43c7.99,0.66 21.68,7.38 25.47,14.55 -12.72,-1.06 -12.26,-6.06 -42.45,-6.06 6.22,-5.42 14.45,-1.22 26.68,-1.22l-9.7 -7.27zm0 0l0 0zm383.27 -6.07c4.5,2.38 7.93,4.22 8.49,10.92 -6.38,-4.27 -6.51,-7.15 -8.49,-10.92zm-506.98 -8.49l1.21 0 0 10.91 -1.21 0 0 -10.91zm-59.43 7.28l1.21 0 -1.01 1.42 -0.2 -1.42zm604.01 -6.07l0 0zm-386.91 -4.85l1.21 0 0 6.06 -1.21 0 0 -6.06zm413.59 13.34c0,5.49 7.28,7.28 13.34,7.28 -0.6,7.22 -5.62,12.02 -11.38,14.09 -21.42,7.66 -32.84,-18.35 -13.81,-34.43 7.3,-6.17 14.05,-2.31 22.76,-0.28l0 4.85c-5.21,0.43 -10.91,3.05 -10.91,8.49zm-231.66 -13.34c-6.48,12.25 -17.68,37.11 -20.62,49.73 15.4,-4.11 14.35,-37.86 31.53,-42.45 -8.22,15.98 -25.43,57.25 -40.02,60.64 1.55,-3.22 1.11,-1.3 1.21,-6.06l-3.64 0c12.27,-23.2 22.62,-59.48 31.53,-61.86zm1.21 -1.21l0 0zm2.43 -1.21l0 0zm0 0l0 0zm69.13 -2.43c1.19,-1.19 4.4,1.64 1.46,0.68 -0.03,-0.01 -3.49,1.36 -1.46,-0.68zm-65.5 0c1.19,-1.19 4.4,1.64 1.46,0.68 -0.03,-0.01 -3.5,1.36 -1.46,-0.68zm-98.24 -9.7c5.11,0 10.55,1.37 14.56,4.85l-21.83 -1.21 7.28 -3.64zm175.87 1.21l0 1.21 -1.41 -1.01 1.41 -0.2zm-78.84 -3.64l19.41 0c-1.72,7.37 -1.5,12.13 -10.91,12.13l3.64 -1.21c-2.67,-5.05 -5,-7.9 -12.13,-8.49l0 -2.42zm-121.29 0l3.64 0 0 2.42c-3.54,-0.85 -1.75,0.16 -3.64,-2.42zm-265.62 -2.43l2.43 0 0 3.64 -2.43 0 0 -3.64zm349.31 -4.85l1.21 0 0 6.06 -1.21 0 0 -6.06zm-327.48 73.98c0,-22.46 4.95,-29.92 -7.28,-36.39 8.26,-17.21 -2.64,-31.44 -3.64,-35.17 3.23,-0.27 7.39,-1.32 9.7,-2.42 6.18,11.69 2.43,7.97 2.43,21.83 6.69,-1.56 6.9,-3.92 13.34,-2.43l0 2.43c-4.76,0.11 -2.84,-0.33 -6.06,1.21 0,6.96 -1.21,9.21 -1.21,16.98l7.27 3.64c3.59,-0.96 1.97,-0.49 4.85,-2.43 -0.5,6 -2.18,3.44 -3.64,9.7 -5.79,0 -5.03,-0.83 -9.71,-1.22 0.43,5.16 0.67,4.93 4.93,5.98 6.51,1.62 3.12,-0.48 5.98,4.93 -13.03,0 -8.91,7.93 -16.98,13.34zm425.72 -73.98c-1.35,3.61 2.6,1.89 -3.64,2.42 1.86,-2.68 0.2,-1.51 3.64,-2.42zm0 0l0 -1.21 1.42 1.01 -1.42 0.2zm-240.15 -2.43c15.7,0 30.99,-3.2 38.81,8.49 -0.66,2.86 -1.13,3.58 -1.21,7.28l4.8 1.36c-1.45,2.69 -2.04,3.01 -2.38,7.13 6.61,1.54 14.23,7.46 19.4,10.92 -1.43,2.7 -2.02,3.65 -3.64,6.06 13.52,0 9.34,-2.72 19.41,43.66 0,-39.14 -4.68,-44.64 -4.85,-52.15 3.71,1.78 7.94,1.06 10.45,11.38 3.03,12.47 -0.1,15.3 10.17,15.3 0,15.54 2.61,26.9 -5.62,30.76 -26.62,12.48 -46.21,-14.92 -53.07,-37.56 -5.41,-17.87 -9.77,-51.42 -32.27,-51.42l0 -1.21zm-235.3 -3.64l3.64 7.28c-3.73,-2.49 -3.48,-1.51 -3.64,-7.28zm394.19 1.21c-1.72,7.39 -9.53,22.27 -16.98,24.26 2.92,-4.35 13.94,-22.03 16.98,-24.26zm0 0l0 0zm30.32 4.85c3.51,-0.94 10.42,-5.32 13.34,-7.28 -1.17,14.06 -20.99,7.36 -29.21,10.84 -6.36,2.69 -4.84,2.39 -2.32,6.14 -18.83,4.39 -40.68,42.58 -54.58,21.83l6.07 0c-0.92,-1.63 -0.66,-1.34 -1.21,-3.64 24.62,0 26.34,0.36 45.85,-30.56 2,-3.18 2.94,-4.2 3.88,-8.25 5.12,2.46 14.19,3.64 20.62,3.64 -1.17,2.45 -1.71,4.31 -2.43,7.28zm63.07 -9.7c-1.44,3.97 1.57,0.88 -3.64,3.64 0.98,-3.65 -0.01,-2.66 3.64,-3.64zm-122.5 77.63c-1.94,7.27 -8.95,9.21 -13.34,15.76l4.85 0c-10.75,16.05 -25.67,24.26 -46.09,24.26 -23.49,0 -31.32,-7.67 -47,-23.35 -19.85,-19.84 -56.94,-53.07 -87.63,-53.07l14.55 9.71c-5.82,-0.13 -20.13,-4.09 -24.26,-6.07 0,-13.96 7.58,-18.25 -6.06,-25.47 0.13,-5.64 1.29,-4.37 1.32,-9.71 0.03,-5.7 -1.44,-5 -2.53,-9.69l4.85 0c0,7.1 1.21,11.01 1.21,19.4 4.68,0.39 4.78,1.21 10.92,1.21l1.21 -21.83c10.86,7.27 -2.31,24.9 15.77,29.11 4.48,-9.35 1.31,-18.67 1.21,-23.05l8.49 0 -2.92 26.37c-1.61,4.92 -0.48,4.36 3.97,5.31 8.67,1.86 12.29,10.71 12.29,-23.2 3.7,0.08 4.42,0.55 7.28,1.21 -1.43,6.13 -3.64,22.07 -3.64,29.11 5.18,-0.43 5.74,-1.99 10.92,-2.43l0 -20.62c12.97,0.29 9.7,9.64 9.7,27.9l6.06 0c0.43,5.13 3.47,15.52 5.32,20.16 5.56,13.97 11.62,16.1 25.51,25.43 10.65,7.16 13.81,15.49 38.34,13.87 30.74,-2.04 15.9,-48.62 15.74,-55.82l24.26 9.7c-2.53,3.77 -6.13,7.39 -8.49,10.91 5.49,-0.12 4.82,-1.21 10.92,-1.21l-8.49 10.91c7.89,-0.66 9.91,-3.48 15.76,-4.85zm-373.56 -76.41l0 0zm496.07 -1.21l0 -1.21 1.41 1.01 -1.41 0.2zm-120.07 20.62c3.97,-2.66 1.69,-3.17 7.27,-3.64 -1,12.05 -11.84,9.66 -16.98,12.13 1.55,-6.65 10.91,-26.24 10.91,-35.17l1.21 0c0,8.15 -2.43,10.69 -2.43,26.68zm-310.49 -24.26c26.01,0 19.62,-11.98 53.37,31.53 2.92,3.96 6.67,10.11 9.7,12.14 -18.06,34.14 -12.79,20.4 -37.6,7.28 0,-13.06 2,-16.56 -4.55,-23.35 -7.23,-8.1 -16.63,-17.9 -20.92,-27.6zm-49.73 0c11.46,5.5 3.09,1.63 9.7,6.06 0.52,-6.28 1.72,-6.19 6.07,-8.49 2.52,10.81 5.84,15.09 20.62,7.28 -0.18,8.12 1.2,2.15 -7.28,9.7 -7.16,-3.43 -24.55,-7.95 -24.72,-8.02 -4.62,-2.04 -2.78,-2.94 -4.39,-6.53zm-52.15 0l6.07 0 0 4.85c-8.26,-1.93 -5.39,-3.56 -6.07,-4.85zm329.9 0l1.21 0 -1.01 1.42 -0.2 -1.42zm-289.88 -4.85l2.42 0 1.36 4.8c-5.91,-3 -2.78,1.11 -3.79,-4.8zm374.78 0l0.36 0.36c-0.02,-0.02 -0.48,-0.24 -0.36,-0.36zm123.71 29.11c2.97,-11.11 19.69,-8.25 34.23,-36.11l0.94 -1.48c-0.38,16.93 -30.33,36.47 -35.17,37.6zm-169.8 -41.24c4.93,2.61 14.07,9.91 14.55,15.76 -6.47,1.51 -1.53,2.43 -12.13,2.43 0,-8.13 -2.23,-11.22 -2.43,-18.19zm-337.18 6.06l0 -3.64 2.43 0c-1.16,4.85 -2.37,3.51 -2.43,3.64zm305.64 -12.13l1.21 0 -1.01 1.42 -0.2 -1.42zm-219.53 6.07c4.82,-7.2 8.77,-7.51 18.19,-9.7 -1.39,5.22 -10.46,7.9 -18.19,9.7zm40.03 -14.56c4.24,0 6.68,1.18 8.49,3.64l-18.19 0c2.66,-2.31 7.59,-3.64 9.7,-3.64zm-20.62 1.21c5.71,-21.38 55.28,-16.49 69.13,9.7 -5.47,0.12 -6.41,1.37 -10.91,2.42 -0.45,-5.33 -1.37,-7.37 -4.85,-9.7 -2.28,4.75 0.37,3.13 -3.64,6.07 -1.4,-5.22 -8.92,-16.98 -20.62,-16.98 -13.57,0 -16.39,1.76 -29.11,8.49zm72.77 -15.77c21.89,15.65 26.68,14.75 26.68,44.88 -2.85,-0.66 -3.58,-1.13 -7.27,-1.21 0,-6.16 1.21,-5.53 1.21,-10.91 0,-5.38 -1.21,-4.75 -1.21,-10.92l-2.43 0c-0.63,2.72 -1.21,2.79 -1.21,6.06l-1.21 0c0,-30.36 -5.3,-10.32 -14.56,-27.9zm-224.38 7.28c2.86,0.66 3.58,1.13 7.28,1.21l0 4.85 -6.07 0 13.34 23.04c6.09,0 6.29,-0.13 10.92,-1.21 0.74,3.19 1.1,3.57 2.43,6.07 8.52,0 6.87,0.58 14.56,-1.21l1.4 7.24c-5.37,-2.38 -12,-1.21 -22.84,-6.41 -7.11,-3.42 -12.07,-6.89 -22.22,-6.89 0,-13.25 -4.67,-22.47 -0.78,-34.76 1.61,-5.09 2.91,-5.33 5.63,-1.62l-3.64 0 0 9.7zm673.15 81.26c0,-14.29 10.88,-28.12 10.91,-77.62 0.01,-15.15 -2.42,-19.46 -2.42,-27.9 14.88,10.9 1.98,93.47 -8.49,105.52zm-166.17 -87.33l9.7 0c-1.1,2.21 -0.94,1.52 -1.21,4.85 -5.35,0 -5.47,-1.01 -8.58,-1.15 -3.57,-0.16 -4.1,1.15 -9.61,1.15 1.2,-4.5 1.23,-1.57 2.43,-6.07 -4.01,0.33 -7.28,1.58 -10.92,2.43 7.38,-11.02 13.72,-14.59 27.9,-15.77 -3.85,16.53 -7.34,5.72 -9.7,14.55zm-196.48 -12.13l0 -6.07 4.8 1.36c-2.11,3.94 0.11,3.53 -4.8,4.7zm-127.35 -9.7c3.09,-2.69 7.95,-4.85 12.13,-4.85 3.42,0 2.25,0.52 3.64,2.43 -5.75,0.48 -9.16,2.43 -15.77,2.43zm-10.91 -4.85c1.19,-1.19 4.4,1.64 1.46,0.68 -0.03,-0.01 -3.49,1.36 -1.46,-0.68zm7.28 -3.64l0 1.21 -1.42 -1.01 1.42 -0.2zm300.79 -2.42l0 0zm-300.79 2.42c2.35,-3.21 3.03,-3.52 8.49,-3.64 -2.35,3.21 -3.03,3.52 -8.49,3.64zm197.7 -4.85l8.49 0 0 1.21 -8.49 0 0 -1.21zm-114.01 0l-2.37 1.39c3.81,7.04 7.01,7.1 15.71,7.1 0,21.4 1.22,14.01 7.28,23.04l-4.85 0c0,9.71 -0.59,15.01 -9.7,15.77 0,-12.23 5.37,-11.04 6.07,-19.41 -4.11,-0.96 -6.24,-2.55 -10.91,-3.64 -2.18,9.35 -2.65,14.68 -9.7,19.41 -3.08,-2.25 -2.32,-1.55 -3.83,-5.88 -5.36,-15.33 3.25,-11.55 9.89,-14.74 -10.94,-16.36 -12.46,4.89 -27.9,8.49l0 -10.91c9.75,0 12.69,-1.7 14.56,-9.7 -12.85,0 -11.95,5.37 -26.68,-2.43 0.12,-5.28 1.21,-6.62 1.21,-13.34 5.55,0.46 14.53,4.35 19.58,5.98 5.86,1.9 13.36,-1.13 21.66,-1.13zm-93.39 -2.43c-3.72,5.56 -16.97,12.66 -21.83,21.83 6.53,-1.52 14.16,-6.74 20.62,-7.28l0 3.64 3.64 1.21c-4.77,0 -6.27,2.3 -7.28,6.07 6.79,-0.15 14.63,-3.2 21.74,-2.36 6.83,0.81 14.56,3.57 21.92,3.57 -1.88,7.05 -5.77,3.06 -13.34,2.43 1.53,2.88 2.8,4.13 3.64,7.27 -14.64,-0.32 -12.07,-12.32 -55.89,-3.73 -28.1,5.51 -32.47,14.9 -53.13,7.22 -9.4,-3.49 -22.2,-9.79 -23.19,-21.68 8.37,5.61 15.21,13.34 29.11,13.34l0 1.21c-4.18,0 -4.7,0.9 -8.49,1.21l0 2.43c57.9,0 66.44,-32.1 82.48,-36.39zm310.49 4.85c0,-5.31 -0.29,-5.37 2.43,-8.49l-2.43 8.49zm-310.49 -4.85c1.81,-2.61 0.18,-1.6 3.64,-2.43 -1.81,2.61 -0.18,1.6 -3.64,2.43zm66.71 -9.7c2.09,1 8.49,1.82 5.27,5.04 -0.5,0.5 -4.3,2.48 -5.27,-5.04zm414.8 -2.42l0.36 0.36c-0.03,-0.02 -0.48,-0.24 -0.36,-0.36zm-388.12 14.56c1.55,-3.75 1.75,-0.43 -1.21,-4.85 21.18,0 23.06,-6.43 35.17,-14.56 0,13.74 -21.85,19.41 -33.96,19.41zm49.73 -18.19l0 1.21 -1.42 -1.01 1.42 -0.2zm145.54 67.92c13.82,-3.22 19.41,-18.98 19.41,-36.39l2.43 0c0.43,5.1 1.38,4 2.43,8.49 5.91,-4.33 0.04,-29.44 19.4,-33.96 -4.84,9.16 -6.81,0.16 -12.13,23.05 16.46,-0.37 -1.73,-10.91 29.11,-10.91 -5.8,24.9 -37.6,1.94 -37.6,52.15 5.28,-3.87 4.85,-6.73 4.85,-10.91l2.42 0c0,11.38 5.21,26.55 -7.79,24.82 -18.52,-2.46 -13.5,-18.76 -41.94,-18.76l5.08 5.85c-5.96,-1.13 -8.81,-3.4 -15.95,-3.47 -6.85,-0.07 -13.8,0.05 -20.66,0.05l0 -1.21c5.62,0 17.27,-8.49 23.04,-8.49 20.67,0 25.25,13.98 30.83,-16.47 3.05,-16.65 -4.99,-40.06 10.41,-44.17 -6.49,27.87 -3.14,6.77 -2.38,27.85 1.04,29.05 2.3,22.69 -10.96,42.5zm-229.23 -77.63l1.21 0 -1.01 1.42 -0.2 -1.42zm70.35 -2.43c0,-2.9 1.96,-0.45 0.78,0 -0.01,0.01 -0.78,3.48 -0.78,0zm-183.14 -1.21c0,-2.9 1.96,-0.45 0.78,0 -0.01,0 -0.78,3.48 -0.78,0zm112.8 3.64c-3.39,-4.87 -2.42,-7.49 -2.42,-14.55 3.85,2.82 2.42,0.21 2.42,14.55zm-55.79 23.04c2.04,-2.79 28.58,-21.06 31.53,-25.47 -5.69,0.47 -5.81,2.28 -12.13,2.43 4.82,-7.2 5.43,-5.5 8.49,-4.85l0 -2.43c4.5,-1.05 3.39,-2 8.49,-2.43 -0.28,12.66 -10.75,23.17 -23.51,27.43 -5.54,1.85 -7.88,4.15 -12.88,5.32zm27.9 -30.32l-1.21 0 1.01 -1.42 0.2 1.42zm-72.77 8.49c6.95,3.34 11.86,-0.48 15.77,4.85l-8.49 3.64c35.37,0 31.95,4.45 44.37,-13.84 5.11,-7.53 4.93,-7.62 10.21,-10.41 -0.67,8.04 -19.42,39.43 -48.72,30.53 -7.45,-2.27 -12.96,-6.73 -13.14,-14.76zm291.09 -10.92l0 14.56 10.91 -1.21c-2.15,9.22 -7.2,8.49 -14.56,8.49 -5.09,-7.61 -6.06,-6 -6.06,-18.19 0,-8.89 6.29,-8.49 12.13,-8.49 4.64,0 0.44,-0.37 3.64,1.21 -2.21,3.01 -1.63,2.58 -6.07,3.64zm-169.8 -12.13c7.77,1.81 8.49,2.63 8.49,10.91 0,6.47 -9.09,5.84 -13.34,4.85l0 -2.43c2.94,-0.68 4.87,-1.27 7.28,-2.43 -0.42,-4.97 -1.76,-5.7 -2.43,-10.91zm-20.62 -4.85l1.21 0 0 6.06 -1.21 0 0 -6.06zm65.5 -7.28c6.29,0.52 7.44,3.48 13.34,4.85 -2.98,12.8 -4.85,3.91 -4.85,21.83l-1.21 0c0,-25.04 -1.15,-17.53 -7.28,-26.68zm0 0l-1.21 0 1.01 -1.42 0.2 1.42zm-47.3 -1.21c1.19,-1.19 4.4,1.64 1.46,0.68 -0.03,-0.01 -3.5,1.36 -1.46,-0.68zm220.74 -1.21l1.21 0 -1.01 1.42 -0.2 -1.42zm-155.25 46.09l2.49 -4.82 -4.92 -0.03c1.86,-7.97 -4.42,-22.62 12.13,-47.3 6.1,0 5.43,1.09 10.91,1.21 0,7.8 0.49,8.64 3.64,13.34 -4.15,2.78 -3.76,2.93 -6.06,7.28l2.67 2.18c15.91,-2.55 17.04,-18.22 37.35,-19.17 5.01,-0.24 7.27,-1.46 10.79,-1.17 23.71,1.9 62.24,3.63 71.31,20.96 2.73,5.21 4.66,10.98 5.23,17.82 5.05,-3.38 7.28,-7.35 7.28,-15.77 5.01,2.65 9.07,6.35 12.13,10.91 -18.83,9.03 -24.26,15.23 -24.26,46.09 -25.55,11.24 -22.81,13.34 -44.88,13.34l9.7 6.06c-12.65,18.89 -33.78,3.6 -47.28,-0.03 -9.07,-2.44 -10.96,-0.74 -14.58,6.1 5.29,-0.12 7.59,-1.21 14.56,-1.21 0.15,6.99 1.17,3.74 0.03,10.89 -4.43,27.67 8.29,13.71 -3.67,31.56l7.28 3.64 -15.77 -3.64c0,-10.61 2.43,-20.36 2.43,-30.32l-12.13 0c1.5,2.84 2.08,3.16 2.43,7.28l-2.36 1.32 -0.06 15.67 -8.49 0c1.43,2.7 2.02,3.65 3.64,6.06 -3.7,-0.08 -4.42,-0.55 -7.28,-1.21 -2.52,-10.8 4.6,-17.64 4.85,-29.11l-10.91 0 -2.43 29.11c-3.23,-1.55 -9.54,-2.42 -14.56,-2.42 0,-11.53 4.05,-16.92 1.21,-29.11 23.85,0 25.47,-1.77 25.47,-26.68 -7.88,9.09 -6.59,13.8 -9.39,17.29 -5.12,6.39 -15.56,2.12 -23.35,2.12 5.08,9.6 2.43,9.65 2.43,23.05 -5.49,0.12 -4.82,1.21 -10.92,1.21 0,-16.03 3.87,-21.93 -4.85,-24.26 -5.56,11.59 1.76,15.24 -10.91,18.19 0,-16.54 -0.13,-14.84 8.49,-19.41l-3.64 -4.85c1.32,-2.5 1.69,-2.88 2.43,-6.06 -14.5,-1.21 -10.97,-25.06 1.21,-27.9 -2.67,11.46 -4.61,7.75 -3.64,19.41 8.75,0 6.05,-1.01 12.13,-2.43 2.74,5.72 4.53,13.69 7.28,19.41 20.55,-1.72 27.9,-29.03 27.9,-47.3l7.05 6.3c-0.93,2.17 -1.51,4.1 -2.2,7.04 11.49,0 18.38,-1.21 29.11,-1.21l0 1.21c-6.33,0 -9.58,2.3 -10.91,7.28 19.01,0 48.87,6.06 66.71,6.06 -4.31,-6.44 -21.1,-10.92 -25.47,-10.92l0 -1.21c24.51,0 40.85,9.06 48.51,9.7 0,-25.51 22.65,-49.61 -25.95,-68.65 -10.83,-4.24 -29.38,-8.33 -44.44,-7.81 -15.99,0.55 -25.75,11.04 -31.48,21.88 -9.62,0 -6.84,-0.91 -13.34,-2.43l1.22 26.68c-14.67,-7.76 -9.87,-2.21 -21.83,-1.21zm-60.64 -47.3l7.27 0 0 1.21 -7.27 0 0 -1.21zm-21.83 -10.92l1.21 0 -1.01 1.42 -0.2 -1.42zm265.62 -76.41l0 0zm-57 -2.43l2.67 2.18c-6.23,-1.34 -0.86,0.02 -2.67,-2.18zm76.41 -2.43c6.29,1.46 12.07,8.3 16.66,12.45 14.7,13.31 57.61,39.23 78.19,52.8 10.01,6.59 17.55,12.94 18,25.67 1.27,36.45 -41.9,93.91 -66.43,122.87 -9.32,10.23 -26.08,31.65 -36.71,37.28 3.82,16.39 -15.54,15.68 -24.99,39.29 -1.92,4.79 -4.27,12.73 -7.76,15.29 -0.15,-6.77 -2.28,-6.58 -2.43,-13.34 -3.09,2.26 -2.69,2.81 -3.58,7.34 -3.54,17.93 0.64,14.01 3.58,26.62 -8.31,-1.94 -10.77,-3.64 -21.83,-3.64 1.04,-12.44 30.89,-51.24 41.25,-73.97 8.64,-18.97 20.62,-80.11 20.63,-97.02 0.02,-49.14 6.49,-63.64 -13.86,-114.75 -7.74,-19.43 -13.79,-22.58 -20.12,-32.03 13.37,3.57 48.42,64 51.64,68.43 2.44,3.34 0.81,2.1 4.15,4.34 -0.42,-18.85 -35.36,-65.3 -36.39,-77.63zm-20.62 3.64l0 0zm-1.21 -1.21l0 0zm-1.21 -1.21l0 0zm23.04 -1.21l-1.21 0 1.01 -1.42 0.2 1.42zm-24.26 0l0 0zm-2.43 -1.21l0 0zm-1.21 -1.21l0 0zm-257.13 83.69c-12.19,-1.01 -59.7,-22.49 -69.46,-32.42 -8.28,-8.43 -6.95,-12.75 -6.95,-28.22 -3.76,0.88 -3.51,1.55 -7.28,2.43 0,6.62 0.08,11.35 1.45,16.74 6.62,26.01 52.37,35.13 73.83,45.03 3.59,1.66 3.44,1.13 3.55,6.15 -28.06,-6.53 -57.85,-17.47 -79.16,-38.49 -8.99,-8.86 -17.77,-29.64 -4.07,-39.89 43.95,-32.9 123.9,-41.09 177.35,-27.87 32.59,8.06 64.32,25.49 89.93,47.13 14.89,12.59 39.84,38.97 43.97,56.69 -11.58,-0.26 -14.78,-14.15 -27.01,-27.57 -17.05,-18.71 -32.05,-33.41 -53.27,-47.4 -21.39,-14.1 -58.82,-28.25 -83.45,-28.13 -14.78,0.07 -65.72,3.66 -72.78,16.99 20.51,0 67.26,-23.04 130.2,8.07 27.35,13.52 45.85,25.17 66.59,49.84 6.17,7.34 12.1,13.49 16.67,22.14 -19.72,0 -42.01,-29.2 -69.36,-47.08 -34.41,-22.5 -77.68,-38.6 -120.57,-24l-25.96 12.85c41.96,-3.49 71.03,-34.52 148.98,24.46 4.08,3.08 33.75,24.01 35.38,30.12 -9.79,-4.7 -8.95,0.48 -22.74,-11.23 -10.62,-9.02 -22.32,-21.52 -37.91,-21.52 6.12,8.36 38.23,22.7 41.24,33.96 -15.66,1.3 -25.8,1.16 -41.96,-1.7 -36.78,-6.51 -47.96,8.93 -82.55,-8.41 -8.09,-4.05 -23.6,-14.91 -30.73,-16.57 2.75,-3.76 36.65,-14.92 40.97,-16.03 20.45,-5.25 30.56,1.48 51.21,1.48 -13.17,-19.66 -83.62,-1.17 -101.88,8.49 4.58,19.63 35.47,21.71 43.66,33.96 -18.5,-1.54 -64.26,-29.66 -84.9,-35.17 -0.08,-3.7 -0.55,-4.42 -1.21,-7.28 -4.84,0.11 -4.49,0.56 -7.28,2.43 1.63,19.56 48.25,25.03 65.5,40.02zm255.92 -84.9c-6.28,-1.68 -11.5,-9.16 -24.26,-12.13l-6.06 15.77c-6.59,-4.41 -4.85,-8.99 -4.85,-19.41 12.67,0 17.04,-0.3 28.2,9.41 2.71,2.35 5.09,3.54 6.98,6.36zm-318.99 -23.05l6.07 0 0 1.21 -6.07 0 0 -1.21zm300.79 120.07c-39.33,-56.69 -44.82,-69.81 -116.42,-105.53 -55.7,-27.79 -157.03,-17.71 -207.68,14.3 -20.87,13.19 -15.23,24.15 -14.29,35.44 -6.36,-4.26 -7.06,-9.57 -7.28,-19.4 13.04,-1.09 0.75,-13.42 45.26,-34.79 24.22,-11.63 53.76,-10.09 60.26,-19.79 -14.59,0 -22.77,4.85 -37.6,4.85l0 -1.21c11.46,0 48.44,-13.08 93.65,-6.33 42.54,6.36 74.99,24.35 112.5,45.17 11.95,6.63 40.48,31.54 49.04,43.13 6.27,8.49 22.03,38.01 22.54,44.16z"/>
 </g>
</svg>
