<?xml version="1.0" encoding="UTF-8"?>
<!DOCTYPE svg PUBLIC "-//W3C//DTD SVG 1.1//EN" "http://www.w3.org/Graphics/SVG/1.1/DTD/svg11.dtd">
<!-- Creator: CorelDRAW -->
<svg xmlns="http://www.w3.org/2000/svg" xml:space="preserve" width="39.6555mm" height="45.1029mm" version="1.1" style="shape-rendering:geometricPrecision; text-rendering:geometricPrecision; image-rendering:optimizeQuality; fill-rule:evenodd; clip-rule:evenodd"
viewBox="0 0 240.37 273.39"
 xmlns:xlink="http://www.w3.org/1999/xlink"
 xmlns:xodm="http://www.corel.com/coreldraw/odm/2003">
 <defs>
  <style type="text/css">
   <![CDATA[
    .fil0 {fill:#010101}
    .fil12 {fill:#052148}
    .fil9 {fill:#064D7A}
    .fil28 {fill:#292316}
    .fil26 {fill:#292C2D}
    .fil6 {fill:#336BB9}
    .fil22 {fill:#4F5D63}
    .fil13 {fill:#546368}
    .fil31 {fill:#737472}
    .fil1 {fill:#777B75}
    .fil10 {fill:#810001}
    .fil15 {fill:#8CAAB3}
    .fil7 {fill:#8E918D}
    .fil18 {fill:#8EACB6}
    .fil5 {fill:#919490}
    .fil19 {fill:#924E27}
    .fil21 {fill:#93702E}
    .fil3 {fill:#955028}
    .fil25 {fill:#95712E}
    .fil24 {fill:#97732F}
    .fil27 {fill:#9A552C}
    .fil29 {fill:#AEB0AF}
    .fil16 {fill:#BCBCBB}
    .fil11 {fill:#C1C0BF}
    .fil23 {fill:#E7E9E9}
    .fil30 {fill:#E8E9E9}
    .fil4 {fill:#F11019}
    .fil2 {fill:#F9A97A}
    .fil17 {fill:#FDA81C}
    .fil14 {fill:#FEC901}
    .fil20 {fill:#FECBA8}
    .fil8 {fill:#FEFEFE}
   ]]>
  </style>
 </defs>
 <g id="Camada_x0020_1">
  <metadata id="CorelCorpID_0Corel-Layer"/>
  <g id="_2064427272672">
   <path class="fil0" d="M67.19 252.62c2.34,0.13 3.43,1.38 5.29,2.39 3.25,1.76 13.58,6.31 16.75,7.26 4.84,1.46 21.17,6.58 26.19,5.74 -5.48,-2.98 -12.77,-2.1 -20.57,-10.28 -1.44,-1.51 -4.41,-3.43 -4.29,-5.76 1.6,-0.2 5.07,1.46 6.94,2.03 13.36,4.04 27.28,5.31 40.85,1.5 2.5,-0.7 4.78,-1.14 7.01,-2.22 2.27,-1.1 4.43,-2.31 7.39,-1.36 0.56,3.08 -6.77,8.04 -9.28,9.45 -1.9,1.06 -12.14,5.72 -12.79,6.36 2.53,1.17 26.55,-7.75 31.53,-9.77 2.41,-0.98 8.1,-3.98 10.4,-3.73l-11.08 5.99c-12.88,7.29 -29.09,10.23 -44.55,10.23 -11.32,0 -18.32,-2.63 -27.89,-5.85 -4.69,-1.58 -19.83,-9.37 -21.91,-11.98zm99.79 -29.61c-3.37,-2.56 -4.74,-11.13 -4.38,-16.14 0.3,-4.12 2.11,-14.54 3.87,-17.18 1.34,0.39 3.17,1.99 4.3,2.84l4.33 3.34c1.47,0.15 4.48,1.45 5.93,1.95 2.17,0.73 4.21,1.34 6.68,1.86 2.64,0.56 14.61,1.01 15.4,1.46 0.95,2.12 -3.92,10.12 -5.05,12.13 -2.16,3.85 -4.97,8.04 -7.6,10.51 -6.92,6.49 -18.33,8.71 -23.49,-0.77zm-122.4 -25.88c4.37,-0.05 3.25,0.68 3.47,1.18 -0.53,0.74 -0.65,1.19 -2.31,0.78 -1.12,-0.28 -1.1,-0.7 -1.17,-1.95zm16.17 1.58c-1.11,-1.6 -1.46,-5.37 1.21,-6 0.99,0.82 1.29,1.49 1.04,3.38 -0.21,1.64 -0.73,2.39 -2.25,2.62zm-2.12 -1.51c-3.09,0.42 -3.52,-1.97 -3.25,-4.8l4.28 0.47 -1.03 4.32zm50.45 -6.04c1.65,0.44 3.4,0.85 4.37,2.46 -4.11,0.05 -8.61,-0.65 -9.31,-4.06 1.73,0.67 2.7,1 4.93,1.6zm87.53 -3.34c1.39,0.16 0.82,0.05 1.18,0.51l1.89 0.28 1.18 -1.08c3.02,-1.31 6.46,-0.76 7.74,1.55 -0.34,1.04 0.08,0.47 -0.68,1.04 -0.36,0.74 -0.86,1.48 -1.14,2.36 1.4,-0.5 1.1,-1.31 2.9,-2.35 1.86,-0.46 5.9,3.09 -1.03,4.64 -0.68,0.15 -1.96,0.41 -2.48,0.78 -0.75,0.53 -0.2,-0.05 -0.65,0.78l-0.57 1.46 -0.44 0.62c-1.69,-0.34 -3.04,-1.2 -3.7,-2.66 -1.61,-3.58 -1.05,-1.9 -2.14,-3.91 -0.07,-0.07 -0.15,-0.31 -0.19,-0.25l-1.23 -0.9c-0.1,-0.04 -0.25,-0.06 -0.33,-0.09 -0.09,-0.03 -0.23,-0.06 -0.35,-0.07 -0.27,0.57 -0.16,0.4 -0.49,0.8l-0.81 -0.35 -0.43 -2.29c-1,-0.51 -1.26,-0.36 -1.74,-1.49 2.27,-0.72 0.9,0.74 3.51,0.61zm-96.2 -3.9c1.67,0.11 2.25,1.11 2.18,2.95 -1.62,-0.19 -2.25,-1.1 -2.18,-2.95zm27.31 10.32c1.36,-2.65 6.38,-2.68 8.83,-4.81 4.08,-3.57 5.04,-5.96 6.21,-6.9 0.36,2.42 -0.94,3.65 -1.93,4.89 -3.51,4.42 -6.48,6.34 -13.1,6.82zm-53.78 -10.06c-0.1,0.14 -0.47,0.8 -0.59,0.9 1.46,0.54 1.73,0.63 1.73,2.51 0,1.71 -0.23,3.22 -1.71,3.77 -3.01,1.12 -7.05,0.26 -5.76,-5.52 2.86,-1.65 2.94,-0.28 2.92,-2.14l-2 0.32c-2.73,1.75 -5.92,1.82 -6.45,3.6 1.05,0.79 1.25,0.48 2.59,0.63l0.08 2.73c0.67,0.05 1.56,0.07 2.1,0.28 1.29,0.52 0.76,0.26 1.09,1.16 -1.01,0.8 -0.64,0.53 -2.24,0.77 -0.29,2.11 0.53,1.52 -0.78,2.3 -1.23,-0.96 -1.44,-3.6 -1.96,-4.78 -14.66,-2.79 -8.68,5.85 -8.34,8.36 -1.21,1.07 -3.1,1.71 -4.84,0.74l-0.46 -6.58c-1.63,0.01 -8.16,1.41 -9.12,2.07 -0.29,3.44 0.02,4.49 1.58,6.68 1.97,0.05 3.7,-0.98 6.53,-0.87 20.19,0.82 12.24,-3.74 18.87,-3.76 1.83,-1.88 4.51,-4.48 7.33,-4.53 2.02,4.54 4.55,9.4 4.95,15.47 0.32,4.9 -1.24,13.93 -4.24,16.7 -3.41,9.88 -16.99,5.51 -22.66,0.5 -3.23,-2.86 -4.96,-4.98 -7.49,-9.49 -1.14,-2.04 -4.74,-9.49 -4.99,-12.26 -0.61,-6.62 -4.81,-3.03 -4.15,-11.57 4.62,-3.24 19.87,-0.68 24.58,-6.38 1.07,-1.29 1.87,-2.09 2.97,-3.31 1.5,-1.65 4.43,-6.02 5.88,-6.73 1.08,0.55 1.24,0.88 1.88,1.86 1.1,0.52 2.35,1.14 3.47,1.73 1.27,0.68 1.73,1.16 1.82,3.12 -0.78,1.18 -1.1,1.87 -2.58,1.74zm120.81 9.73l0.9 -0.83c1.05,0.98 1.56,1.84 1.47,3.79l-1.38 0.28c-3.94,0.89 -6.1,0.8 -9.16,-1.09 -2.14,-0.6 -3.68,-1.03 -4.7,-2.8 -0.52,-0.9 -0.59,-1.62 -1.11,-2.57 -0.55,-1 -0.89,-1.08 -1.45,-1.92 -0.6,-1.28 -1.46,-1.94 -1.87,-3.38 0.8,-0.92 1.12,-0.68 1.43,-1.7 -2.62,0.31 -1.71,2.31 -5.58,-1.8 -1.21,-1.29 -3.44,-3.07 -2.62,-5.99 2.67,-0.25 8.11,6.68 12.83,9.46 3.85,2.27 10.4,0.69 10.71,5.95 0.15,2.49 -1.58,2.9 -0.78,4.38 0.55,-0.37 0.09,0.12 0.72,-0.73 0.12,-0.16 0.47,-0.84 0.59,-1.05zm-23.08 -9.4c2.07,1.31 4.27,4.9 4.35,4.72 0.03,-0.06 0.14,0.14 0.21,0.21 2.13,1.67 3.81,2.44 4.68,5.57 -3.47,-0.73 -5.18,-2.01 -7.33,-3.64 -1.35,-0.98 -2.81,-2.05 -3.98,-3.2 -0.98,-0.96 -2.28,-3.02 -3.07,-3.64 -0.08,-0.08 -0.17,-0.2 -0.22,-0.27l-0.57 -0.77c-0.1,-0.15 -0.38,-0.61 -0.56,-0.89 -0.92,-1.39 -2.92,-4.85 -1.93,-6.41 2.74,-2.13 4.09,-1.05 5.1,2.16 0.92,2.95 2.48,3.77 3.33,6.14zm-52.46 -15.14c3.63,-0.66 7.92,-7.85 12.96,-9.75 8.03,-3.02 8.44,0.47 10.28,9.97 0.71,3.64 1.08,6.9 -0.8,9.82 -4.02,6.27 -14.26,12.81 -19.83,14.2 -4.17,1.04 -4.98,-1.43 -7.69,-3.13 -2.44,-1.54 -4.75,-2.58 -7.64,-3.8 -3.75,-1.59 -8.65,-10.25 -8.49,-14.2 0.1,-2.48 1.1,-7.77 1.89,-9.71 1.26,-3.12 3.52,-4.32 7.42,-3.76 3.19,0.46 5.07,3.18 6.57,4.76 1.07,1.13 1.68,1.49 2.95,2.59 1.48,1.28 1.16,1.52 2.38,3.01zm-40.62 2.1c-1.62,-0.74 -3.06,-3.83 -0.7,-4.07 2.16,-0.23 1.99,1.68 1.36,3.1 -0.63,1.43 -0.15,0.39 -0.65,0.97zm81.74 3.15c-0.23,-2.48 1.24,-7.85 3.11,-8.71 0.29,2.43 -1.34,7.91 -3.11,8.71zm-14.65 1.97c-1.4,-3.36 -1.25,-13.26 1.6,-15.78 1,1.34 -0.14,5.98 -0.31,8 -0.21,2.49 -0.14,6.64 -1.29,7.77zm-26.95 -11.84c-1.25,-1.8 -4.13,-11.23 2.99,-9.87 3.27,0.63 2.73,10.58 -2.99,9.87zm-39.72 -8.2c-7.35,-11.03 2.29,-14.04 5.89,-4.4 1.22,3.26 2,6.64 3.37,9.92 5.05,12.1 7.72,17.03 3.71,32.25 -2.17,-0.95 -4.87,-7.66 -6.23,-10.14 -1.71,-3.12 -5.79,-8.57 -4.99,-10.59 2.27,0.8 1.86,2.83 3.68,3.32 0.77,-12.55 0.11,-12.05 -5.43,-20.36zm64.94 -9.28c0.83,-0.42 2.05,-0.17 3.02,0.4 1.18,0.7 1.14,1.23 1.02,2.99 -0.13,1.88 0.03,6.07 -1.33,6.86 -3.44,2.01 -5.83,-8.66 -2.71,-10.25zm5.31 49.18c-0.49,2.35 -1.04,3.67 -1.05,6.3 -0.05,7.4 1.51,6.65 -2.08,7.71 -1.82,0.54 -1.64,0.72 -1.67,1.52l6.18 0.31c0.75,1.73 1.82,7.03 1.37,9.23 -0.7,0.12 -10.87,-0.19 -12.14,-0.3 -3.64,-0.3 -3.2,-4.75 -5.69,-7.24 -2.43,-2.43 -6.44,-1.19 -10.39,-2.15 -3.73,-0.91 -6.34,-3.85 -9.07,-0.96 -0.07,4.09 4.06,5.52 3.28,9.57 -1.78,1.85 -2.18,0.18 -2.94,3.35 0.2,1.08 -0.2,0.75 0.23,1.2 3.57,-0.22 8.17,-3.89 11.88,-4.69 -0.11,2.46 -1.12,6.6 -1.72,8.99 -0.66,2.64 -2.07,5.63 -4.77,5.56 -1.67,-1.42 -4.76,-8.23 -6.18,-10.49 -2.54,-0.17 -1.97,-1.89 -6.31,-1.16 -0.47,0.27 -2.88,7.98 -9.53,6.74 0.57,-1.3 2.35,-0.75 3.43,-2.46 -1.83,-0.95 -5.63,1.18 -6.15,2.28 -0.74,1.32 -0.57,0.54 -0.57,2.17l0.47 1.94c3.24,1.16 0.31,-2.26 3.72,-1.47 1.75,3.07 -1.94,2.64 -1.91,5.11 0.78,0.82 1.27,0.87 2.47,0.88l1 -0.17c1.97,-3.09 -0.46,-1.12 3.02,-2.88 2.06,-1.04 0.68,-2.21 3.25,-2.76 2.7,2.62 -0.57,2.76 0.8,6.92 9.95,7.38 3.75,11.09 12.51,10.97 5.51,-0.08 4.09,-2.9 4.48,-7.46 0.34,-3.96 5.99,-1.74 6.58,-5.64 -1.48,-0.71 -5.74,-1.29 -6.78,-2.49 0.9,-1.75 1.15,-0.56 1.95,-1.83 0.27,-0.42 1.5,-7.67 3.35,-8.51 0.81,-0.13 22.3,-0.61 22.38,-0.59 0.44,4.76 0.26,12.19 0.32,17.22 0.07,5.63 0.24,6.56 -7.35,10.19 -8.15,3.9 -20.17,5.3 -30.41,4.43 -7.66,-0.65 -21.44,-2.28 -25.16,-9.86 -1.55,-3.16 0.56,-28.83 1.7,-32.59l5.69 -1.18c-0.75,-1.88 -2.2,-2.09 -2.87,-3.64 -0.82,-1.9 -0.03,-4.46 0.07,-6.5 0.19,-4.02 -1.66,-7.66 -0.15,-11.35 2.24,-0.11 12.01,5.36 18.43,4.84 3.35,-0.27 3.74,-0.08 7,0.04 3.39,0.13 11.1,-0.37 14.51,-1.12 2.45,-0.54 4.02,-1.01 5.92,-1.87 1.95,-0.89 4.05,-1.98 6.6,-1.71 0.59,2.58 -0.2,6.42 0.68,7.68l1.04 -2.12c0.87,-4.72 -0.18,-10.33 0.18,-15.39 0.32,-4.42 1.82,-8.78 3.08,-12.76 2.06,-6.47 4.83,-19.78 8.16,-23.86 2.46,0.27 3.47,3.31 3.29,6.18 -0.18,2.82 -1.27,5.14 -2.42,7.16 -1.64,2.87 -5.98,9.44 -4.6,13.78 1.86,5.84 4.97,2.27 -0.49,12.89 -1.45,2.81 -5.09,10.32 -6.63,12.04zm-43.63 -41.43c-0.94,-1.13 -2.03,-8.46 -2.39,-10.77 2.13,0.09 9.24,1.22 11.41,2.12 3.77,1.57 4.58,1.99 -0.44,6.32 -1.76,1.51 -5.81,5.64 -8.58,2.32zm16.69 -6.55c1.11,-2.08 5.2,-2.93 8.3,-3.11 1.56,-0.09 3.95,0.1 5.34,-0.48 1.52,-0.64 1.05,-1.66 3.89,-1.59 -0.73,1.9 -1.7,1.49 -3.16,2.6 -0.05,2.53 1.27,5.19 0.35,7.49 -0.64,1.61 -2.88,3.47 -5.5,2.74 -0.87,-0.24 -8.7,-6.9 -9.22,-7.65zm24.46 -3.78l-5.54 0.21c-1.24,-3.79 7.11,-5.67 9.1,-3.32l1 1.57c0.63,-1.54 0.01,-1.29 1.12,-2.61l1.7 0.3c0.62,1.2 0.69,5.52 -4.58,4.69 -0.2,-0.03 -1.45,-0.28 -1.58,-0.32 -2.65,-0.79 1.92,0.72 -0.63,-0.23l-0.59 -0.3zm-107.22 -5.08c0.07,-0.9 2.53,-7.47 3.14,-8.94 2.17,-5.23 5.59,-2.07 6.34,-0.28 0.32,0.76 1.35,9.94 -0.43,10.97 -2.17,1.25 -7.42,-0.4 -9.05,-1.74zm13.54 0.75c-0.68,-1.27 -0.6,-2.19 -0.35,-3.66 0.53,-3.17 1.1,-2.44 1.46,-2.61 0.79,1.08 0.69,2.23 0.52,3.69 -0.39,3.27 -1.26,2.5 -1.62,2.58zm63.28 -0.2c9.63,2.55 11.93,-3.82 19.95,-4.41 -0.67,4.31 -4.94,4.88 -8.42,6.69 -9.47,4.95 -9.47,3.36 -22.05,-2.05 -3.76,-1.62 -8.16,-3.3 -7.61,-7.01 2.95,-0.14 14.04,5.69 18.13,6.78zm18.05 -8.78c-0.59,-1.5 -0.27,-2.62 1.7,-2.44 0.23,1.83 0.04,2.45 -1.7,2.44zm-64.94 -5.21c2.13,5.62 -4.96,4.41 -6.03,3.45 -1.15,-1.02 -1.06,-3.33 0.72,-3.84 1.38,-0.4 4.25,0.05 5.31,0.39zm114.32 56.8l-4.19 -3.34c-4.6,-3.85 -6.92,-6.98 -9.09,-13.04 -4.96,-13.85 -3.35,-11.1 -4.81,-24.45 -1.37,-0.87 -6.9,-2.43 -5.11,-5.49 1.44,-0.54 5.41,-0.23 7.11,-0.11 2.42,2.84 0.81,6.37 7.1,6.03 2.34,-1.02 3.49,-1.47 3.52,-4.58 -1.59,0.52 -3.3,2.59 -5.16,3.24 -0.66,0.23 -0.17,0.24 -1.11,0.15 -2.14,-0.22 -1.9,-4.2 0.37,-5.42 0.83,-0.44 3.99,-1.88 4.73,-2.05 7.14,4.91 4.82,16.35 6.34,20.42 4.68,1.06 2.39,-7.76 4.37,-10.67 3.51,-0.64 8.53,3.55 9.66,5.49 1.12,1.93 1.23,3.9 1.31,6.32 0.07,2.34 -0.39,5.97 0.48,7.15 1.39,-1.8 0.48,-1.19 0.49,-1.23l-0.06 -4.44c-0.22,-7.32 -0.67,-7.5 -2.31,-14.48 -4.71,-1.7 -8.57,-1.22 -7.41,-7.41 0.37,-1.96 1.22,-3.89 2,-5.35 4.17,-7.94 4.88,-1.72 6.48,1.13 1.06,1.9 2.68,2.21 2.35,5.45 -0.89,1.69 -6.52,1.73 -5.1,4.78l1.86 -0.04c4.58,-2.16 8.49,2.04 11.34,3.53l0.74 0.36 0.01 -1.37c0.16,-6.41 -1.04,-11.5 2.24,-19.39 1.38,-3.33 5.91,-13.89 11.32,-9.95 1.59,1.16 2.28,5.99 2.6,8.54 0.48,3.93 -0.46,6.43 -0.81,10.01 -0.35,3.51 1.1,7.48 -0.66,9.79 -1.32,1.73 -4.28,4.47 -2.53,7.91 1.45,-0.93 1.64,-3.02 2.32,-4.45 1.53,-3.25 4.34,-5.44 8.03,-5.28 1.48,0.07 4.46,0.42 5.49,1.12 -0.26,2.68 -4.08,5.8 -5.49,7.4 -1.97,2.24 -8.61,17.23 -14.11,24.66 -4.81,6.5 -5.92,7.97 -14.33,11.53 -5.16,2.18 -9.45,1.35 -15.51,-0.73 -1.52,-0.52 -2.95,-1.31 -4.45,-1.72zm-11.62 -54.26c-1,-0.31 -5.37,0.45 -3.32,-1.82 1.15,-1.27 3.62,-0.47 5.26,-0.8 0.45,-0.09 5.72,-4.86 2.51,4.1 -1.08,3.02 -1.63,1.37 -3.65,2.6 -1.43,0.87 -0.88,3.01 -3.14,2.66 -2.56,-0.41 -0.71,-2.92 -0.06,-3.6 1.34,-1.39 2.54,-1.3 2.38,-3.14zm-15.07 -3.41c-1.04,8.04 -16.27,6.48 -14.64,-3.51 1.9,0.01 12.72,2.82 14.64,3.51zm-128.71 2.67c0.44,0.6 3.06,11.81 3.08,13.1 0.07,3.71 -0.9,6.07 -0.7,11.45 0.02,0.6 0.06,1.43 0.14,1.93l0.39 1.42c1.09,-3.54 0.03,-6.72 2.34,-10.58 1.87,-3.12 6.78,-3.49 9.32,-1.14 0.59,1.03 -2.23,16.18 -0.95,19.27 0.09,-0.15 0.47,-5.78 0.76,-7.09 1.84,-8.44 1.73,-9.21 8.36,-11.36 0.47,-0.15 0.95,-0.35 1.6,-0.36 1.11,-0.01 0.43,0.03 1,0.16l0.61 0.27c0.5,0.57 -0.24,7.19 0.55,12.37 0.75,-0.91 7.03,-22.67 7.03,-22.67 2.33,-0.33 6.28,-0.46 8.24,0.28 0.3,0.24 0.59,1.13 0.52,2.36l-0.59 2.08 -8.03 1.24c0.47,1.45 3.88,2.1 5.27,2.13 2.38,0.09 4.64,0.11 6.55,-0.58l0.75 -2.34c0.08,-1.54 0.38,-2.84 1.36,-3.71 1.35,-0.56 2.76,-0.65 4.06,-0.06 1.72,1.9 0.5,4.67 -1.46,5.2l-0.55 0.28c-4.15,1.78 -2.21,-0.58 -3,7.62 -0.22,2.29 -0.59,3.99 -1.12,5.95 -1.81,6.81 -3.16,15.6 -7.33,20.06 -1.16,1.24 -5.58,5.88 -7.16,6.8 -0.38,1.08 -2.38,2.85 -3.6,3.51 -4.66,2.53 -14.96,0.92 -20.18,1.58 -0.37,1.34 0.1,1.77 -1.04,2.21 -1.25,-2.12 1.1,-2.18 -1.11,-3.94 -1.03,-0.82 -1.62,-0.97 -2.79,-2.02 -8.04,-7.22 -13.89,-18.41 -19.87,-28.14 -3.54,-5.75 -9.1,-8.91 -7.62,-10.74 2.73,-1.76 9.79,-0.62 11.46,1.35 0.88,1.04 1.93,3.02 2.75,4.28 0.45,0.7 0.81,1.22 1.33,1.97 0.99,1.44 0.54,1.23 2.02,1.74 -0.4,-1.93 -1.78,-4.33 -2.46,-6.02 -1.07,-2.65 -4.73,-17.56 -3.9,-20.38l6.69 -0.54 1.51 -0.6c-0.37,-1.21 -1.88,-2.44 -3.15,-2.8 -2.03,1.01 -0.44,1.59 -2.95,1.8 -1.64,-1.08 -1.88,-3.56 -1.33,-5.55 1.09,-1.68 8.75,-3.12 13.2,8.2zm18.35 -5.45c1.92,-0.74 10.52,-2.01 12.16,-1.3 0.25,1.91 -1.47,3.48 -2.38,4.84 -0.99,1.49 -1.79,3.38 -3.44,4.12 -0.5,0.02 -6.3,-5.09 -6.34,-7.66zm123.03 -1.35c-0.35,-1.44 0.17,-3.45 0.82,-4.76 1.68,-0.11 2.86,0.8 4.26,1.47 1.94,0.93 2.84,0.73 2.68,2.93 -1.72,0.41 -5.8,0.69 -7.76,0.36zm-95.67 1.19c1.8,0.65 5.02,4.4 6.42,6.05 2.06,2.42 3.66,3.43 5.33,6.87 2.46,5.06 13.96,3.34 13.36,11.33 -0.54,2.41 -0.57,6.11 -1.39,8.17 -0.61,1.52 -3.51,4.09 -5.18,4.32 -2.43,-4.59 0.24,-9.67 3.72,-11.35l-0.17 -1.05c-3.9,-2.06 -6.53,5.09 -10.76,-5.81 -2.37,-6.09 1.56,-1.93 -4.48,-7.73 -7.28,-6.98 -4.35,-5.72 -7.1,-10.41 -3.3,-0.83 -8.39,-0.43 -10.2,-2.15 -0.28,-2.93 2.9,-4.05 5.69,-2.81 1.73,0.77 1.36,1.18 2.35,2.48 0.89,1.17 1.42,1 2.42,2.08zm112.9 10.34c-0.7,-2.19 -1.42,-4.59 -2.22,-6.97 -0.85,-2.52 -2.28,-4.12 -2.95,-6.55 2.47,-0.27 5.32,-0.4 7.9,-0.47 3.43,-0.1 4.22,0.31 3.2,3.77 -0.59,1.99 -1.72,3.73 -2.69,5.44 -1.74,3.07 -1.5,4.14 -3.23,4.78zm-18.73 -16.33c-0.06,0.73 -1.53,7.31 -1.81,8.06 -0.83,2.27 -2.86,3.87 -4.47,5.17 -2.14,1.73 -3.58,2.47 -5.13,4.84 -0.86,1.31 -2.99,5.52 -5.62,2.68 -2.86,-3.09 1.83,-4.24 3.95,-4.78 2.98,-0.76 3.78,-1.98 5.13,-4.42 2.49,-4.48 4.62,-8.93 7.95,-11.55zm5.52 -16.57l-2.75 0.15c0.06,-1.95 -0.13,-7.72 1.69,-8.75 1.41,1.86 1.15,5.97 1.06,8.6zm0 0c0.67,-0.55 -0.1,0.09 0.6,-0.6 0.23,-0.23 0.19,-0.24 0.58,-0.57 0.49,-0.41 0.52,-0.42 1.15,-0.7 0.78,-0.35 2.08,-0.78 3.04,-1.03l13.95 -1.85c5.47,-0.35 4.88,-1.83 6.53,-0.5 0.66,0.59 1.22,0.94 0.39,2.13 -0.3,0.43 -1.23,0.92 -1.73,1.26 -1.43,0.95 -1.66,1.71 -2.85,3.07 -4.36,5 -11.67,5.51 -18.29,5.59 -6.29,0.07 -3.22,-3.11 -3.35,-6.8zm-19.16 -5.26c0.16,-3.07 -1.28,-3.42 -2.02,-5.52 0.26,-0.26 0.43,-0.69 1.97,-1.16 2.19,-0.67 5.17,-0.21 7.44,-0.05 7.71,0.56 6.86,-2.66 8.53,-0.68 2.15,3.21 -1.24,9.08 -1.49,12.6 -0.35,5.11 -0.39,7.83 -2.24,12.19 -1.52,3.59 -3.31,6.51 -5.37,9.04 -2.9,3.56 -6.84,3.16 -10.5,1.02 0.32,-5.41 9.73,-18.16 10.51,-21.14 -0.94,-1.15 -2.79,-1.91 -4.01,-2.82l-2.66 -3.25c-0.02,-0.12 -0.1,-0.15 -0.16,-0.22zm-84.14 -6.33c0.11,-0.02 7.83,0.51 8.6,0.62 5.49,0.78 4.56,1.58 5.13,3.38l0.25 0.61c2.44,-1.53 3.87,-2.14 7.08,-3.13 -1.17,-4.85 -9.55,1.75 -12.02,-2.52 1.24,-3.83 9.98,-4.93 14.41,-3.56 1.21,0.37 2.28,1.19 3.29,1.44 1.89,0.46 2.51,-0.22 3.67,1.21 0.72,0.9 2.32,5.34 2.45,6.89 -2.6,-0.78 -5.61,-3.44 -8.26,-2.01 3.9,1.1 7.35,2.81 9.53,5.42 3.57,4.27 0.52,4.97 8.65,5.75 2.7,0.26 3.85,0.73 4.4,3.04 1.62,6.76 -0.7,7.28 -7.59,13.34 -1.38,1.22 -2.56,2.22 -3.83,3.56 -1.91,2.02 -2.27,1.88 -5.19,0.75 -3.68,-1.42 -6.36,-3.31 -9,-5.38 -11.68,-9.13 -6.99,-11.91 -8.26,-19.81 -2.19,0.06 -4.42,1.28 -5.14,2.75 -0.97,1.99 0.34,3.79 1.21,5.24 4.36,7.28 6.7,12.19 14.18,16.08 1.9,0.99 8.38,4.64 10,4.85 2,-0.41 13.69,-11.96 15.22,-12.23 3.62,-0.63 13.24,9.76 13.79,13.47 0.45,3.05 -4.46,5.71 -6.61,6.71 -12.47,5.78 -19.92,-6.19 -33.47,-4.32 0.34,2.24 1.3,1.37 2.98,2.95 0.85,0.8 1.57,2.51 1.44,4.06 -6.91,0.56 -9.02,-3.32 -11.8,-6.26 -5.76,-6.08 -11.77,-12.74 -13.87,-21.49 -0.87,-3.63 -2.65,-10.9 -3.02,-14.53 -1.79,1.95 -0.86,6.66 -1.16,9.4 -6.85,-2.98 -0.81,-13.2 0.65,-17.03 0.85,-2.23 0.39,-4.38 1.38,-6.24 1.83,0.28 1.33,0.66 2.26,1.99 0.74,1.06 1.47,1.05 1.38,2.27 -1.46,0.01 -0.85,-0.54 -2.65,-0.05l-0.06 2.79zm97.2 -8.06c1.51,0.96 1.47,2.76 1.27,4.8 -1.47,0.95 -3.97,2.13 -6.43,2.09 1.33,-1.23 3.56,-2.06 4.98,-3.25l0.18 -3.64zm-36.69 8.87c-2.89,-3.68 1.77,-10.02 4.3,-9.16 3.89,1.32 -3.12,8.79 -4.3,9.16zm-5.49 -3.77c0.67,0.98 0.32,0.96 1.25,1.73 0.38,0.32 1.3,0.83 1.76,1.18 4.04,3.06 4.71,8.8 0.31,10.73 0.2,-3.19 2.86,-4.82 -2.11,-10.78 -0.78,-0.94 -1.92,-1.61 -2.55,-2.26 -13.95,0.91 -7.77,-1.17 -12.4,-2.38 -1.78,-0.47 -2.29,-0.5 -2.32,-2.58 0.12,-0.39 6.15,-5.13 9.85,-3.1 2.95,1.62 4.9,4 6.19,7.45zm-45.46 -1.04c-2.23,2.44 -4.68,-1.67 -5.34,-2.79 -1.17,-1.96 -2.92,-3.17 -2.26,-6.31 1.58,0.08 3.73,2.99 4.54,4.04 2.4,3.13 4.02,4.01 3.07,5.06zm39.14 -13.75c0.73,0.51 0.19,-0.03 0.76,0.82l1.31 2.76c1.37,2.69 2.44,3.98 5.17,5.52 1.42,0.81 2.46,0.69 3.27,2.08 -1.68,5.66 -6.31,-2.19 -6.84,-2.92 -1.68,-2.32 -6.2,-3.72 -3.66,-8.26zm-31.07 -7.56c1.34,2.36 1,7.73 1.12,10.97 0.18,5.29 1.35,10.74 -3.19,8.82 -1.83,-0.77 -1.01,-8.85 -1.09,-11.15 -0.23,-6.95 -1.21,-9.36 3.16,-8.65zm-20.14 9.63c-2.18,0.55 -6.02,-1.36 -3.49,-3.87 0.69,-0.68 2.76,-1.07 3.47,-0.06 0.73,1.05 0.29,3.09 0.03,3.94zm125.82 6.13c2.98,2.67 10.01,8.68 10.49,12.81 -2.04,-0.3 -2.46,-1.42 -3.55,-2.76l-17.78 -16.95c-1.61,-1.1 -2.63,-0.77 -2.34,-2.94 1.73,-0.03 2.02,1.05 3.49,2.16l9.68 7.68zm-23.83 -7.18c-0.11,-2.74 0.72,-0.84 0.66,-5.32 4.58,-0.29 1.2,4.7 -0.66,5.32zm-36.97 8.48l-1.98 0.16c-0.85,-3.19 -0.5,-4.14 -2.33,-6.88 -1.2,-1.8 -2.27,-3.65 -2.55,-6.44 2.27,-0.03 2.15,0.69 2.85,2.46 1.36,3.42 4.51,8.82 4.01,10.69zm19.35 3.34c0.97,0.02 2.39,-0.11 3.3,-0.36 1.33,-0.37 1.08,-0.58 2.24,-1.39 1.36,-0.95 3.57,-1.68 5.27,-2.08 0.67,-1.18 0.64,-0.91 0.32,-2.59 -4.23,-0.38 -3.65,1.46 -3.76,-4.85 -0.04,-2.31 -0.75,-6.59 -0.19,-8.41 3.83,-0.42 3.25,3.25 3.62,6.56 0.68,5.99 5.97,6.34 0.96,9.89 -1.08,2.82 -4.39,3.64 -7.13,4.97 -7.59,3.68 -1.78,1.39 -8.99,3.18 0.22,2.79 1.62,1.49 3.98,2.72 1.64,0.86 2.07,2.48 2.42,3.15l0.27 0.45c-0.13,5.41 3.06,9.04 0.1,14.87 -1.76,3.48 -4.98,8.03 -8.38,9.33 -2.63,1.01 -4.02,3.08 -5.51,3.32 -2.35,0.37 -14.38,-3.83 -17.16,-8.91 -0.53,-0.3 -0.55,-0.23 -1.26,-0.8 -0.87,-0.7 -0.27,-0.11 -0.86,-0.87 -0.1,-2.44 -1.39,-4.88 0.33,-6.82 1.26,-1.42 2.93,-2.04 5.53,-2.63 4.36,-0.99 5.69,-3.37 8.4,-7.64 0.07,-0.53 0.1,-1.24 0.2,-1.73l0.61 -1.42c0.2,-2.23 1.32,-3.2 1.97,-4.74 0.49,-5.57 -2.01,-6.14 -1.99,-11.14 0.01,-2.22 0.02,-4.44 0.03,-6.66 0.01,-2.54 -0.43,-4.57 0.67,-5.51 1.05,-0.76 5.59,-0.79 6.63,-0.05 1.36,1.98 0.45,7.28 0.44,9.99 -0,2.48 0.46,7.71 0.21,9.57 -1.4,1.03 -2.82,1.12 -4.62,2.52l0.52 0.31 6.95 -1.74c0.62,-2.4 0.43,-16.16 0.05,-19 -0.52,-3.88 -2.42,-3.5 -6.16,-3.48 -2.76,0.02 -6.5,-0.42 -9.03,0.08 -2.78,0.88 -1.43,1.95 -2.5,2.8 -0.34,0.27 -7.73,0.57 -8.84,-1.79 0.91,-1.66 3.76,-1.67 5.96,-1.8 8.2,-0.49 7.22,-3.52 18.46,-3.68 5.32,-0.07 20.91,1.27 22.25,7.32 -4.36,-0.38 -4.74,-3.68 -8.48,-3.23l-5.53 0.7c0.38,1.65 1.18,1.61 1.37,4.37 0.25,3.81 1.34,14.43 -0.36,15.96 -1.53,0.95 -3.81,0.45 -5.02,1.04l2.73 0.18zm-48.33 -22.08c2.45,0.18 4.96,-0 7.42,-0.1 1.88,-0.07 5.86,-0.08 3.81,2.84 -1.41,2.01 -9.87,0.14 -11.62,-0.86l-1.71 -0.12 0.33 1.24 0.99 13.72c1.08,1.1 0.17,0.73 1.54,1.19 1.36,-1.19 2.53,-4.02 3.54,-5.81l3.11 -5.8c0.47,0.79 0.24,-0.03 0.38,1.2 0.33,2.89 -5.55,11.03 -5.65,11.42 -0.62,2.44 6.64,8.18 5.14,10.54 -1.93,-0.1 -2.33,-3.14 -3.57,-4.18 -0.97,1.68 3,8.75 1.7,12.29 -3.82,-0.08 -1.83,-4.25 -4.7,-12.32 -0.93,-2.61 -0.82,-1.6 -2.79,-2.62l-0.39 -3.69 0.26 0.01c-3.39,0.94 -2.55,2.61 -4.43,3.89 -0.77,-0.29 -2.16,-1.22 -2.71,-2.07 0.81,-1.01 1.64,-1.34 3.15,-1.79 0.11,-2.83 -0.92,-5.83 -0.96,-8.92 -0.04,-2.89 0.04,-6.16 0.2,-9.04 0.85,-1.14 -0.06,-0.06 1.08,-0.98 0.82,-0.66 -0.22,0.44 0.73,-0.58 -0.57,-0.49 0.85,-0.33 -1.13,-0.48 -4,-0 -6.95,0.86 -11.43,0.62 -5.34,-0.29 -6.11,0.62 -8.14,4.07 -2.15,-0.54 0.15,-0.77 -2.23,-0.99 -1.55,0.96 -2.85,1.49 -5.08,1.02 -0.03,-1.75 1.42,-2.76 2.86,-3.38 2.99,-0.99 3.26,0.32 6.57,-1.83 1.91,-1.24 3.18,-2.3 4.54,-3.42 0.44,-1.08 -0.11,-0.54 0.92,-1.15 0.64,-2.53 4.32,-7.04 6.13,-8.21 8.79,-5.65 26.11,7.8 26.66,13.72 -3.27,-0.54 -7.48,-7.06 -13.1,-9.19 -2.09,-0.31 -0.47,-0.26 -1.12,0.24 2.13,1.99 1.11,2 0.06,4.39 -0.42,0.96 -1.19,3.95 -1.43,4.98l1.05 0.14zm72.07 3.03c0.1,-1.55 2.52,-4.7 3.42,-6.14 2.2,-3.5 4.55,-9.01 6.31,-12.9 0.78,-1.74 2,-4.92 3.58,-5.74 0.15,3.55 -0.27,5.21 -1.77,7.91l-9 15.01c-0.9,1.22 -1.18,1.77 -2.53,1.86zm-45.05 -17.37c1.82,0.53 1.37,0.07 1.46,1.51 -1.83,0.81 -6.83,-0.02 -8.96,-0.27 -4.4,-0.52 -4.41,-1.02 -7.7,-2.31 -2.75,-1.08 -6.55,-0.1 -9.59,-0.37 -3.68,-0.33 -3.79,-1.42 -5.43,-4.06 -2.18,0.01 -3.08,0.64 -5.23,-0.07 0.62,-1.1 2.6,-1.92 3.87,-2.31 2.45,-0.75 8,0.83 10.48,1.64l21.1 6.23zm53.42 -5.41c-1.44,-7.19 -1.67,-5.52 -2.88,-9.82 1.53,0.72 2.5,2.58 3.45,4.47 1.62,3.21 -0.59,3.63 -0.57,5.36zm-78.68 -14.4c-0.28,-1.28 -0.4,-5.57 -0.12,-7.06 0.38,-2.07 3,-1.74 5.04,-1.9 3.55,-0.28 4.16,-0.01 3.74,3.69 -0.21,1.85 -0.04,4.49 -1.41,5.69 -1.91,0.72 -5.73,0.21 -7.24,-0.42zm63.09 -8.64c0.16,1.41 0.74,1.89 1.26,3.04 0.5,1.1 0.54,2.17 1.05,3.37 4.95,11.72 12.11,21.07 -6.15,26.9 -2.27,0.72 -4.78,1.22 -7.42,1.3 -1.57,0.05 -4.73,0.25 -6.17,-0.36 -1.4,-0.59 -0.64,-0.27 -1.17,-0.79 -0.96,0.01 -0.29,0.18 -1.21,-0.18 -0.74,-0.29 -0.24,-0.08 -0.69,-0.54l-3.7 -1.14c-1.84,1.21 -0.97,1.73 -3.5,2.25 0.7,-2.62 2.05,-1.4 2.72,-5.45 1.21,-7.22 10.38,-35.35 16.06,-36.25 1.49,-2.54 3.23,-0.45 4.25,-0.23l1.03 0.86c0.24,0.2 0.47,0.4 0.83,0.66 1.99,1.45 2.61,1.5 3.87,4.13 2.11,2.22 7.08,7.78 8.18,11.13l-8.68 -9.67c-1.22,0.18 -0.97,-1.09 -0.56,0.97zm-67.66 15.98l-1.16 1.11c-1.83,2.02 -4.24,2.06 -4.1,-0.39 0.11,-2.03 4.47,-4.5 5.95,-5.18 5.64,-0.54 32.06,0.77 35.61,-2.77 1.87,-1.86 1.22,-8.09 0.98,-10.99 -1.29,0.42 -0.46,-0.45 -1.09,0.71l-0.81 9.05c-1.15,0.4 -3.2,1.17 -4.53,0.67 -0.63,-1.26 -0.19,-3.87 -0.17,-5.6l-0.04 -5.66c-2.39,-0.58 -2.47,-0.34 -4.99,-0.12l-0.52 0.48c1.33,0.25 1.47,-0.04 2.3,0.68 0.15,-0.01 0.33,-0.07 0.43,-0.06l0.67 0.11c0.05,-0.09 0.16,0.12 0.24,0.17 -0.48,9.15 0.29,11.74 -6,10.71 -2.17,-3.86 0.87,-5.99 0.52,-9.04l0.08 -1.52c-2.08,-0.5 -2.19,0.46 -2.66,2.19 -0.32,1.17 -0.67,3.1 -1.29,4.05l-0.07 4.93c-0.87,0.33 -1.44,0.71 -2.12,0.08 -1.08,-0.78 -0.77,-1.13 -0.56,-2.79 0.14,-1.13 0.23,-1.82 0.23,-3.06 0,-2.54 -0.49,-3.83 -0.68,-6.03 -20.12,0.08 -11.02,4.74 -14.18,10.33 -1.96,0.06 -2.18,-1.06 -3.25,-2.48 -0.72,-0.95 -1.78,-2.29 -2.26,-3.62 -0.74,-1.99 -1.62,-8.17 -0.5,-9.84 1.75,-2.62 16.12,-2.89 20.12,-3.02 12.18,-0.4 21.7,0.29 34.23,-0.98 3.4,-0.34 6.91,-1.43 9.74,-0.32 -1.75,3.99 -7.58,2.32 -13.18,11.3 -10.56,16.93 -9.28,16.98 -28.45,19.56 -4.51,0.61 -5.56,1.49 -10.76,1.1 -3.99,-0.3 -6.78,0.07 -7.74,-3.77zm-37.99 29.22c0.13,-2.12 -0.08,-2.03 -0.68,-3.88 -0.73,-0.98 -4.76,-8.35 -3.86,-9.75 1.42,-2.17 3.47,0.08 3.93,2.19 0.4,1.85 0.85,3.82 0.76,5.73 4.86,4.65 4.82,-8.73 4.92,-12.14 0.1,-3.29 1.05,-4.45 2.23,-6.93 0.84,-1.76 1.7,-4.84 3.36,-5.96 0.91,-1.12 1.49,-2.09 3.3,-2.87 6.59,-2.83 5.72,1.16 5.78,3.23 0.16,5.7 2.65,4.66 4.28,8.57 1.26,1.09 0.06,0.86 1.65,1.43 2.2,-1.24 2.17,-6.74 4.8,-7.27 0.75,2.69 0.5,4.81 -1.08,6.15 -4.11,3.48 -2.07,2.15 -4.05,4.08 -1.93,1.89 -3.64,0.51 -5.79,-0.21 -3.13,-1.04 -4.61,-0.08 -7.14,-0.71 -2.1,-3.19 0.76,-3.76 0.53,-6.51 -3.88,-1.78 -1.11,-1.53 -3.56,-1.47 -3.81,11.1 1.07,16.47 -9,27.34 -1.04,6.91 -6,6.29 3.46,13.59 0.41,5.55 -10.73,21.35 -1.32,30.92 1.2,1.23 2.22,1.31 2.5,3.46 -1.38,3.3 -7.7,5.42 -12.61,5.56 -21.68,0.62 -14.16,1.85 -16.5,12.73 -0.44,2.04 -1.56,7.21 -3.44,7.78 -2.56,-2.01 -5.2,-22.1 -15.2,-24.25 -10.95,-2.34 -9.91,11.94 -8.02,19.09 0.53,2 2.24,6.19 2.09,7.79 -4.09,0.42 -6.68,-2.16 -11.46,-0.4 -4.24,1.55 -3.79,5.16 -1.08,8.33 4.39,5.15 8.43,7.98 12.39,14.58 4.32,7.19 5.6,9.39 10.49,16.46 1.29,1.86 4.54,6.21 5.28,8.01 1.47,3.59 -5.22,6.39 -3.22,8.72 1.13,1.62 3.53,0.27 5.97,2.2 0.82,0.65 1.15,1.3 2.1,1.96 1.13,0.79 1.67,0.62 2.46,1.54 -0.67,1.84 -2.48,2.76 -3.18,4.39 0.45,1.14 0.66,0.55 2.05,1.21 0.6,5.02 -3.66,5.73 -3.78,11.01 -0.06,2.84 0.3,4.23 2.14,5.43 1.18,0.77 3.45,2.34 4.68,2.73 1.4,-1.37 1.19,-3.73 4.8,-3.97 2.54,-0.17 2.38,0.56 2.55,0.74 4.31,2.05 8.12,5.67 12.78,7.1 2.79,0.85 5.59,0.99 8.61,1.39 3.52,0.47 6.03,0.49 7.34,-2.24 0.95,-2.74 3.04,-6.07 4.24,-9.31 1.21,-3.26 2.19,-7.12 1.88,-11.11 -0.34,-4.45 -4.1,-19.45 -3.54,-21.89 1.83,0.11 4.63,2.64 5.71,3.77 1.31,1.38 2.75,3.97 3.73,5.89 2.43,4.78 2.88,6.05 2.58,11.88 -0.04,0.81 -0.09,1.83 -0.18,2.61 -0.16,1.39 0.16,0.9 -0.46,1.7 0.21,4.02 -1.6,12.68 -1.87,17.55 -0.23,4.15 0.09,16.33 -0.81,19.18 -2.54,0.9 -16.72,-4.38 -20.05,-5.56 -7.67,-2.72 -15.62,-8.72 -17.06,-9.01 -2.62,-0.65 -7.32,-5.46 -10.49,-3.14 1.51,1.69 7.26,4.79 9.47,6.59 9.67,7.89 12.11,13.6 27.02,22.46 13.88,8.25 34.75,12.96 54.13,10.65 26.23,-3.13 37.79,-8.78 56.14,-25.85 2.95,-2.74 5.12,-5.89 8.18,-8.44 3.35,-2.79 15.63,-11.15 18.22,-14.55 -1.09,-2.43 -2.8,-0.1 -3.63,0.71 -2.05,2.02 -2.08,0.94 -3.93,1.93 -0.74,0.4 -2.12,2.39 -2.83,3.12l-2.93 3.17c-0.87,0.93 -17.05,8.79 -19.43,9.74 -3.12,1.56 -18.83,7.21 -22.38,6.58 -2.62,-4.04 -2.24,-10.86 -2.29,-16.56 -0.06,-6.4 -0.66,-11.37 -1.49,-17.53 -0.83,-6.17 -1.33,-11.96 1,-17.04 1.6,-3.49 4.42,-10.95 8.99,-10.03 0.65,3.93 -3.91,14.46 -2.31,25.65 0.35,2.44 1.84,6.28 1.89,7.82 0.08,0.07 0.17,0.09 0.2,0.23 0.16,0.78 6.3,11.94 15.98,9.6 2.66,-0.65 6.96,-3.03 9.01,-4.29l7.85 -5.17c3.65,-6.38 7.82,3.52 9.2,3.65 0.2,0.02 8.45,-2.65 3.04,-10.71 -6.25,-9.31 -3.21,-7.52 -1.24,-11.08 -2.37,-7.31 6.22,-6.78 8.06,-10.62 -0.29,-2.85 -4.55,-3.53 -2.26,-8.66 1.78,-4 7.51,-10.38 9.94,-14.8 2.57,-4.67 6,-12.1 8.97,-15.77 3.09,-3.82 12.17,-10.02 7.1,-15.07 -2.77,-2.75 -6.99,-1.19 -10.61,-1.19 -1.84,-5.84 -0.11,-10.67 -0.1,-16.52 0,-2.92 -0.13,-5.54 -1.84,-7.4 -6.33,-6.84 -11.96,0.79 -15.31,7.23 -2.22,4.28 -3.11,8.9 -5.16,13.29 -3.94,-0.24 -4.55,-4.94 -5,-8.71 -0.69,-5.94 1.19,-8.02 -5.56,-8.49 -13.47,-0.93 -9.39,2.33 -21.78,-2.97 -1.41,-0.6 -1.56,-0.36 -2.25,-1.51 -2.41,-4.72 11.21,-3.08 19.91,-5.94 6,-1.98 13.2,-6.62 14.64,-12.28 3.7,-14.6 -20.56,-23.85 -24.55,-28.99 0.55,-1.9 7.21,-12.75 9.18,-17.05 3.36,-7.33 0.5,-11.78 -4.28,-18.87 -3.5,-5.19 -7.71,-10.43 -11.55,-14.68 -1.97,-2.17 -1.41,-1.17 -2.13,-4.49 -1.62,-7.51 -7.04,-8.15 -9.64,-10.27l-5.45 0c-4.97,4.13 -12.33,3.31 -19.71,3.46 -14.23,0.3 -29.46,0.31 -42.96,4.18 -3.95,1.13 -4.29,3.11 -4.52,7.5 -0.09,1.76 -0.2,10.06 -0.53,11.01 -3.36,4.02 -12.81,-8.53 -20.95,8.63 -1.08,2.28 -1.74,6.45 -2.89,8.2 -3.04,4.65 -11.55,1.42 -12.81,9.07 -1.25,7.64 6.89,11.25 10.21,11.56z"/>
   <path class="fil1" d="M108.19 239.49c-1.93,-0.14 -6.94,-0.24 -8.07,-1.11 -1.21,-0 -1.69,-0.06 -2.47,-0.88l-2.84 -1.11c-0.04,-1.31 0.07,-2.48 0.11,-3.78 0.07,-2.06 -0.32,-2.15 1.02,-2.87 0.52,-1.09 4.33,-3.22 6.15,-2.28 -1.07,1.71 -2.86,1.16 -3.43,2.46 6.65,1.23 9.06,-6.47 9.53,-6.74 4.34,-0.73 3.76,0.99 6.31,1.16 -0.22,-0.94 -0.2,-0.31 0.56,-0.57 0.76,-3.17 1.16,-1.5 2.94,-3.35 0.78,-4.05 -3.34,-5.48 -3.28,-9.57 2.73,-2.89 5.34,0.04 9.07,0.96 3.95,0.97 7.96,-0.27 10.39,2.15 2.49,2.49 2.05,6.94 5.69,7.24 1.26,0.1 11.44,0.41 12.14,0.3 0.46,-2.21 -0.61,-7.5 -1.37,-9.23l-6.18 -0.31c0.03,-0.8 -0.15,-0.98 1.67,-1.52 3.59,-1.06 2.03,-0.32 2.08,-7.71 0.02,-2.64 0.57,-3.95 1.05,-6.3l-0.58 -0.05 -1.04 2.12c-0.88,-1.26 -0.09,-5.09 -0.68,-7.68 -2.55,-0.27 -4.65,0.82 -6.6,1.71 -1.9,0.86 -3.47,1.33 -5.92,1.87 -3.41,0.75 -11.13,1.25 -14.51,1.12 -3.25,-0.12 -3.65,-0.31 -7,-0.04 -6.42,0.51 -16.19,-4.96 -18.43,-4.84 -1.52,3.69 0.34,7.34 0.15,11.35 -0.1,2.03 -0.89,4.59 -0.07,6.5 0.67,1.55 2.12,1.75 2.87,3.64l-5.69 1.18c-1.14,3.76 -3.24,29.44 -1.7,32.59 3.72,7.58 17.49,9.2 25.16,9.86 10.25,0.87 22.26,-0.54 30.41,-4.43 7.59,-3.63 7.42,-4.55 7.35,-10.19 -0.06,-5.03 0.12,-12.46 -0.32,-17.22 -0.08,-0.02 -21.57,0.46 -22.38,0.59 -1.85,0.84 -3.08,8.09 -3.35,8.51 -0.81,1.27 -1.05,0.08 -1.95,1.83 1.04,1.2 5.29,1.78 6.78,2.49 -0.6,3.9 -6.25,1.68 -6.58,5.64 -0.39,4.56 1.03,7.38 -4.48,7.46 -8.76,0.13 -2.56,-3.59 -12.51,-10.97z"/>
   <path class="fil2" d="M187.06 160.59c1.39,1.22 1.43,3.85 1.27,5.59 -1.22,-1.22 -1.35,-3.92 -1.27,-5.59zm37.88 -31.92c-2.41,-0.48 -2.67,-2.03 -4.31,-3.35 -1.38,-1.1 -2.67,-2.38 -3.22,-4.36 1.73,0.55 6.91,6.29 7.53,7.7zm-15.22 14.84c0.14,0.24 0.08,-0.02 0.4,0.84l0.56 2.01c0.31,1.09 0.4,1.6 0.58,2.77l0.28 4.86c-0.26,2.08 0.29,-1.17 -0.13,0.6l-0.24 0.47c-1.64,-1.52 -0.35,-5.99 -2.2,-10.54 -2.84,-1.49 -6.75,-5.68 -11.34,-3.53l-0.17 1.46c1.64,6.99 2.1,7.16 2.31,14.48l0.06 4.44c-0.01,0.04 0.9,-0.57 -0.49,1.23 -0.87,-1.18 -0.4,-4.82 -0.48,-7.15 -0.08,-2.41 -0.19,-4.39 -1.31,-6.32 -1.13,-1.94 -6.15,-6.14 -9.66,-5.49 -1.98,2.91 0.31,11.73 -4.37,10.67 -1.52,-4.07 0.81,-15.51 -6.34,-20.42 -0.74,0.17 -3.91,1.61 -4.73,2.05 -2.28,1.22 -2.52,5.2 -0.37,5.42 0.94,0.1 0.45,0.08 1.11,-0.15 1.86,-0.65 3.57,-2.72 5.16,-3.24 -0.03,3.11 -1.18,3.57 -3.52,4.58 -2.01,1.87 -2.53,0.45 -2.39,4.41 0.07,2 0.1,4.31 0.27,6.3 0.34,3.91 3.3,11.45 4.68,15.68 1.92,5.88 1.27,4.36 4.03,9.23 0.53,0.93 0.67,0.96 1.14,2.19 0.75,1.96 0.76,1.09 1.26,2.57 1.5,0.41 2.93,1.2 4.45,1.72 6.06,2.08 10.35,2.91 15.51,0.73 8.42,-3.57 9.53,-5.04 14.33,-11.53 5.5,-7.44 12.14,-22.43 14.11,-24.66 1.4,-1.6 5.23,-4.72 5.49,-7.4 -1.04,-0.7 -4.01,-1.05 -5.49,-1.12 -3.69,-0.17 -6.5,2.02 -8.03,5.28 -0.67,1.43 -0.87,3.52 -2.32,4.45 -1.75,-3.44 1.22,-6.18 2.53,-7.91 1.75,-2.31 0.31,-6.27 0.66,-9.79 0.35,-3.58 1.3,-6.08 0.81,-10.01 -0.31,-2.55 -1.01,-7.38 -2.6,-8.54 -5.41,-3.94 -9.94,6.62 -11.32,9.95 -3.28,7.89 -2.08,12.98 -2.24,19.39z"/>
   <path class="fil2" d="M59.45 182.05c0.97,-2.77 -0.17,-2.62 1.52,-5.03 4.2,-6 2.78,-5.41 5.04,-13.08 1.4,-4.74 3.86,-16.81 1.32,-21.11 -1.38,-0.03 -4.79,-0.68 -5.27,-2.13l8.03 -1.24 0.59 -2.08c0.07,-1.24 -0.22,-2.12 -0.52,-2.36 -1.95,-0.74 -5.91,-0.62 -8.24,-0.28 -0,0 -6.28,21.77 -7.03,22.67 -0.8,-5.18 -0.05,-11.8 -0.55,-12.37l-0.61 -0.27c-0.57,-0.13 0.11,-0.17 -1,-0.16 -0.65,0 -1.13,0.2 -1.6,0.36 -6.63,2.15 -6.52,2.91 -8.36,11.36 -0.28,1.31 -0.67,6.93 -0.76,7.09 -1.27,-3.09 1.55,-18.24 0.95,-19.27 -2.54,-2.36 -7.45,-1.99 -9.32,1.14 -2.31,3.86 -1.25,7.04 -2.34,10.58l-0.39 -1.42c-0.08,-0.49 -0.12,-1.33 -0.14,-1.93 -0.2,-5.38 0.77,-7.74 0.7,-11.45 -0.02,-1.29 -2.64,-12.51 -3.08,-13.1 -3.32,-1.32 -3.45,-1.05 -7.27,-1.06l-6.69 0.54c-0.83,2.82 2.83,17.73 3.9,20.38 0.68,1.68 2.05,4.09 2.46,6.02 -1.47,-0.5 -1.02,-0.3 -2.02,-1.74 -0.52,-0.75 -0.88,-1.27 -1.33,-1.97 -0.81,-1.26 -1.86,-3.24 -2.75,-4.28 -1.67,-1.98 -8.73,-3.12 -11.46,-1.35 -1.48,1.83 4.08,4.99 7.62,10.74 5.98,9.73 11.83,20.92 19.87,28.14 1.17,1.05 1.76,1.2 2.79,2.02 2.21,1.76 -0.14,1.83 1.11,3.94 1.14,-0.44 0.67,-0.87 1.04,-2.21 5.22,-0.65 15.51,0.95 20.18,-1.58 1.22,-0.66 3.21,-2.43 3.6,-3.51z"/>
   <path class="fil2" d="M97.74 114.48c-1.51,2.88 -0.82,1.89 -1.8,2.12 -0.61,-1.73 -0.38,-2.04 -1.77,-2.94 -0.7,-0.45 -2.87,-1.08 -1.91,-2.15 1.73,-1.94 1.81,1.49 4.77,2.64 0.87,0.34 0.37,0.11 0.72,0.34zm-1.57 -4.8c2.03,-2.39 6.3,-0.67 8.9,-1.19 3.47,-0.69 5.03,-0.93 8.09,0.82l-0.42 0.13c-1.14,0.14 1.09,0.09 -0.49,0.03 -0.64,-0.02 -0.4,-0.06 -0.85,-0.14 -10.02,-1.85 -9.43,2.61 -12.61,3.85 0.46,-1.46 0.72,-1.36 0.96,-2.81 -1.7,-0.16 -2.26,-0.07 -3.58,-0.69zm-27.46 -14.61c0.38,3.63 2.15,10.9 3.02,14.53 2.11,8.75 8.12,15.41 13.87,21.49 2.78,2.94 4.89,6.82 11.8,6.26 0.13,-1.56 -0.59,-3.26 -1.44,-4.06 -1.68,-1.58 -2.63,-0.71 -2.98,-2.95 13.55,-1.87 21,10.1 33.47,4.32 2.15,-1 7.06,-3.66 6.61,-6.71 -0.55,-3.71 -10.17,-14.1 -13.79,-13.47 -1.52,0.27 -13.22,11.82 -15.22,12.23 -1.62,-0.21 -8.1,-3.86 -10,-4.85 -7.48,-3.89 -9.82,-8.8 -14.18,-16.08 -0.87,-1.45 -2.18,-3.25 -1.21,-5.24 0.72,-1.47 2.95,-2.69 5.14,-2.75 1.27,7.9 -3.42,10.68 8.26,19.81 2.64,2.07 5.32,3.96 9,5.38 2.93,1.13 3.28,1.27 5.19,-0.75 1.27,-1.34 2.45,-2.35 3.83,-3.56 6.89,-6.06 9.2,-6.58 7.59,-13.34 -0.55,-2.3 -1.7,-2.78 -4.4,-3.04 -8.12,-0.77 -5.08,-1.48 -8.65,-5.75 -2.18,-2.61 -5.63,-4.32 -9.53,-5.42 -1.35,-0.61 -1.95,-1.3 -3.54,-1.45 -3.21,0.99 -4.64,1.6 -7.08,3.13l-0.25 -0.61c-0.57,-1.8 0.36,-2.6 -5.13,-3.38 -0.78,-0.11 -8.49,-0.64 -8.6,-0.62l-1.63 -0.3c-1.15,2.06 -0.64,4.74 -0.18,7.17z"/>
   <path class="fil3" d="M110.35 182.87c-0.05,-0.08 -0.11,-0.32 -0.12,-0.27l3.06 -10.2c0.75,-1.54 0.06,-0.7 1.12,-1.02 0.56,1 -2.07,8.46 -2.92,10.31 -0.73,1.59 -0.03,0.72 -1.14,1.18zm8.86 -13.51c-1.22,-1.49 -0.9,-1.73 -2.38,-3.01 -1.27,-1.1 -1.88,-1.46 -2.95,-2.59 -1.5,-1.58 -3.37,-4.3 -6.57,-4.76 -3.9,-0.56 -6.16,0.64 -7.42,3.76 -0.79,1.94 -1.79,7.23 -1.89,9.71 -0.16,3.95 4.75,12.61 8.49,14.2 2.89,1.22 5.2,2.27 7.64,3.8 2.71,1.71 3.52,4.17 7.69,3.13 5.57,-1.39 15.81,-7.93 19.83,-14.2 1.87,-2.92 1.5,-6.18 0.8,-9.82 -1.84,-9.5 -2.25,-12.99 -10.28,-9.97 -5.04,1.9 -9.33,9.09 -12.96,9.75z"/>
   <path class="fil4" d="M117.46 16.14c1.65,-0.53 2.84,0.12 4.62,0.02 1.76,-0.1 3.35,-0.88 4.81,-0.91 2.53,-0.22 2.6,-0.45 4.99,0.12l0.04 5.66c0.1,-0.8 0.1,-1.69 0.13,-2.56 0.04,-1.44 -0.16,-2.02 0.59,-2.86 1.35,-1.19 4.38,-0.88 4.79,1.29 0.63,-1.15 -0.2,-0.29 1.09,-0.71 0.24,2.9 0.89,9.13 -0.98,10.99 -3.56,3.54 -29.97,2.23 -35.61,2.77l-0.69 4.45c0.95,3.84 3.74,3.47 7.74,3.77 5.21,0.39 6.25,-0.49 10.76,-1.1 19.17,-2.58 17.89,-2.63 28.45,-19.56 5.6,-8.98 11.43,-7.31 13.18,-11.3 -2.83,-1.11 -6.35,-0.03 -9.74,0.32 -12.54,1.27 -22.06,0.58 -34.23,0.98 -4,0.13 -18.37,0.4 -20.12,3.02 -1.11,1.67 -0.24,7.85 0.5,9.84 0.49,1.32 1.55,2.67 2.26,3.62 1.07,1.42 1.29,2.54 3.25,2.48 3.16,-5.6 -5.94,-10.25 14.18,-10.33z"/>
   <path class="fil2" d="M166.99 223.01c5.16,9.48 16.57,7.27 23.49,0.77 2.63,-2.46 5.44,-6.65 7.6,-10.51 1.13,-2.01 6,-10.01 5.05,-12.13 -0.79,-0.44 -12.76,-0.9 -15.4,-1.46 -2.47,-0.52 -4.51,-1.13 -6.68,-1.86 -1.46,-0.49 -4.46,-1.8 -5.93,-1.95 -2.12,0.57 -3.16,2.67 -3.85,4.96 -0.76,2.54 -2.14,4.38 -2.39,6.4 -0.36,2.98 -2.74,13.29 -1.88,15.77z"/>
   <path class="fil2" d="M41.77 201.95c-0.31,0.55 -0.31,0.62 -0.66,0.99 -0.64,0.68 -0.19,0.3 -1.04,0.76 0.24,2.78 3.85,10.23 4.99,12.26 2.52,4.51 4.25,6.64 7.49,9.49 5.67,5.01 19.25,9.38 22.66,-0.5 0.46,-2.2 0.08,-6.86 -0.03,-9.32 -0.1,-2.28 -3.35,-10.7 -4.36,-13.25 -0.45,-1.14 -0.99,-1.96 -1.49,-2.95 -0.69,-1.39 -0.67,-2.33 -2.16,-2.11 -6.63,0.02 1.33,4.57 -18.87,3.76 -2.84,-0.11 -4.56,0.92 -6.53,0.87z"/>
   <path class="fil2" d="M142 113.29l1.95 -0.14c0.06,0.15 0.14,0.17 0.16,0.35 0.02,0.17 0.12,0.22 0.14,0.3l0.17 2.18c-0.12,1.4 -0.23,1.43 -0.83,2.25 -1.5,-0.72 -1.39,-2.34 -1.58,-4.94zm10.37 -30.01l-4.89 0.5 -6.95 1.74c-0.7,0.69 -0.7,0.61 -1.88,0.96 -0.65,1.54 -1.77,2.51 -1.97,4.74l-0.3 2.42c1.8,-0.95 5.66,-3.82 8.55,-2.06 -2.1,1.7 -7.75,2.21 -8.36,2.36 -0.06,0.01 -0.19,0.08 -0.23,0.1 -0.07,0.02 -0.38,0.25 -0.47,0.33 -2.71,4.27 -4.05,6.66 -8.4,7.64 -2.6,0.59 -4.27,1.21 -5.53,2.63 -1.72,1.93 -0.44,4.37 -0.33,6.82l1.3 0.13 0.65 -1.94c7.52,-1.2 15.66,-3.32 23.74,0.76 -0.18,1.52 0.12,0.49 -0.91,1.65l-11.11 -2.32c-5.87,-0.92 -6.8,0.26 -11.32,2.1l-0.23 1.29c2.78,5.09 14.81,9.28 17.16,8.91 1.48,-0.23 2.88,-2.31 5.51,-3.32 3.4,-1.3 6.61,-5.85 8.38,-9.33 2.96,-5.83 -0.23,-9.46 -0.1,-14.87l-0.27 -0.45c-0.35,-0.67 -0.78,-2.3 -2.42,-3.15 -2.36,-1.23 -3.75,0.07 -3.98,-2.72 7.21,-1.79 1.4,0.5 8.99,-3.18 2.74,-1.33 6.05,-2.15 7.13,-4.97 -0.19,-1.15 0.86,-0.74 -0.95,-0.6 -1.7,0.4 -3.91,1.13 -5.27,2.08 -1.16,0.81 -0.91,1.02 -2.24,1.39 -0.91,0.25 -2.32,0.38 -3.3,0.36z"/>
   <path class="fil5" d="M67.19 252.62c2.08,2.61 17.22,10.4 21.91,11.98 9.57,3.22 16.57,5.85 27.89,5.85 15.46,0 31.67,-2.94 44.55,-10.23l11.08 -5.99c-2.29,-0.26 -7.98,2.75 -10.4,3.73 -4.98,2.02 -29,10.94 -31.53,9.77 0.65,-0.64 10.89,-5.3 12.79,-6.36 2.51,-1.41 9.84,-6.36 9.28,-9.45 -2.96,-0.96 -5.11,0.26 -7.39,1.36 -2.24,1.08 -4.51,1.52 -7.01,2.22 -13.57,3.81 -27.49,2.54 -40.85,-1.5 -1.87,-0.57 -5.35,-2.23 -6.94,-2.03 -0.12,2.33 2.85,4.25 4.29,5.76 7.8,8.18 15.09,7.3 20.57,10.28 -5.03,0.84 -21.35,-4.28 -26.19,-5.74 -3.17,-0.96 -13.5,-5.5 -16.75,-7.26 -1.86,-1.01 -2.95,-2.26 -5.29,-2.39z"/>
   <path class="fil6" d="M75.52 230.53c-1.31,2.73 -3.82,2.71 -7.34,2.24 -3.02,-0.4 -5.82,-0.54 -8.61,-1.39 -4.66,-1.43 -8.47,-5.05 -12.78,-7.1 -3.83,-0.49 -7.04,3.13 -3.79,5.91 2.85,2.44 0.68,-0.02 3.12,3.16 1.17,1.53 2.57,1.26 3.54,2.89 1.45,0.29 9.39,6.3 17.06,9.01 3.34,1.18 17.51,6.46 20.05,5.56 0.9,-2.86 0.58,-15.03 0.81,-19.18 0.27,-4.87 2.09,-13.53 1.87,-17.55l-0.17 -1.1c-1.86,0.95 -1.23,1.62 -2.22,3.47 -1.88,-0.95 0.57,-0.72 -1.48,-1.35 -1.44,1.63 -1.68,2.55 -2.58,4.66 -1.77,4.16 2.21,3.39 -4.09,9.92 -1.82,1.88 -0.95,2.66 -3.78,3.5 0.17,-0.56 0.55,-1.32 0.59,-1.56 0.4,-2.05 0.29,-0.51 -0.23,-1.08z"/>
   <path class="fil6" d="M179.6 242.63c0.42,-2.53 -1.04,-1.9 -0.67,-3.56 0.35,-1.61 1.79,-0.64 1.02,-3.19 -1.08,-1.99 -9.55,-2.1 -11.75,-3.84 -2.4,-1.9 -4.71,-5.81 -5.18,-10.52 -0.05,-1.54 -1.54,-5.38 -1.89,-7.82 -1.6,-11.19 2.96,-21.72 2.31,-25.65 -4.56,-0.92 -7.39,6.54 -8.99,10.03 -2.33,5.08 -1.83,10.87 -1,17.04 0.83,6.16 1.43,11.13 1.49,17.53 0.06,5.7 -0.33,12.53 2.29,16.56 3.55,0.63 19.26,-5.02 22.38,-6.58z"/>
   <path class="fil7" d="M150.3 51.87c0.52,0.53 -0.23,0.2 1.17,0.79 1.44,0.61 4.6,0.41 6.17,0.36 2.64,-0.08 5.15,-0.58 7.42,-1.3 18.26,-5.82 11.1,-15.18 6.15,-26.9 -0.51,-1.2 -0.56,-2.27 -1.05,-3.37 -0.51,-1.15 -1.1,-1.62 -1.26,-3.04 -1.9,-1.11 -1.73,-2.06 -3.66,-3.06 0.54,3.2 -0.94,7.59 0.4,11.78 0.99,3.1 3.04,5.51 2.56,9.64 -2.37,1.65 -4.57,0.6 -7.64,0.79 -2.71,0.17 -3.54,1.9 -4.9,3.29 -1.49,1.53 -3.21,2.14 -3.92,4.52 -0.7,2.36 0.52,4.98 -1.43,6.49z"/>
   <path class="fil2" d="M154.66 94.52c0.06,0.07 0.14,0.09 0.16,0.22l2.66 3.25c1.22,0.92 3.08,1.67 4.01,2.82 -0.79,2.98 -10.19,15.73 -10.51,21.14 3.67,2.14 7.61,2.53 10.5,-1.02 2.06,-2.53 3.84,-5.45 5.37,-9.04 1.85,-4.36 1.88,-7.08 2.24,-12.19 0.24,-3.52 3.63,-9.39 1.49,-12.6 -1.67,-1.98 -0.81,1.23 -8.53,0.68 -2.27,-0.16 -5.25,-0.62 -7.44,0.05 -1.54,0.47 -1.71,0.9 -1.97,1.16 0.74,2.1 2.18,2.45 2.02,5.52z"/>
   <path class="fil8" d="M148.39 51.15l1.61 -0.06c1.64,-5.93 -2.83,-4.07 4.56,-11.32 7.53,-7.39 5.4,-3.54 9.6,-5.89 0.36,-2.04 -0.17,-3.96 -0.6,-5.83 -1.3,-5.61 0.37,-13.89 -1.45,-17.42l-2.13 -0.05c-5.68,0.89 -14.85,29.02 -16.06,36.25 -0.68,4.05 -2.02,2.83 -2.72,5.45 2.52,-0.52 1.66,-1.05 3.5,-2.25l3.7 1.14z"/>
   <path class="fil9" d="M84.44 176.89c-1.82,-0.49 -1.4,-2.52 -3.68,-3.32 -0.8,2.02 3.28,7.48 4.99,10.59 1.36,2.48 4.06,9.2 6.23,10.14 4.01,-15.22 1.33,-20.15 -3.71,-32.25 -1.37,-3.29 -2.15,-6.67 -3.37,-9.92 -3.6,-9.64 -13.24,-6.63 -5.89,4.4 5.54,8.31 6.2,7.81 5.43,20.36z"/>
   <path class="fil9" d="M179.6 242.63c2.37,-0.95 18.56,-8.81 19.43,-9.74 0.73,-3.64 1.89,-1.54 1.87,-7.27 -0.01,-3.3 -1.24,-4.98 -4.84,-3.72l-7.85 5.17c-2.05,1.26 -6.35,3.64 -9.01,4.29 -9.68,2.35 -15.82,-8.82 -15.98,-9.6 -0.03,-0.14 -0.13,-0.16 -0.2,-0.23 0.47,4.71 2.78,8.62 5.18,10.52 2.2,1.74 10.67,1.85 11.75,3.84 0.76,2.55 -0.67,1.58 -1.02,3.19 -0.36,1.66 1.09,1.03 0.67,3.56z"/>
   <path class="fil6" d="M148.69 196.38l0.58 0.05c1.54,-1.72 5.18,-9.23 6.63,-12.04 5.46,-10.61 2.35,-7.05 0.49,-12.89 -1.38,-4.34 2.96,-10.91 4.6,-13.78 1.15,-2.02 2.25,-4.33 2.42,-7.16 0.18,-2.87 -0.83,-5.91 -3.29,-6.18 -3.33,4.07 -6.1,17.39 -8.16,23.86 -1.27,3.98 -2.76,8.33 -3.08,12.76 -0.37,5.06 0.69,10.67 -0.18,15.39z"/>
   <path class="fil3" d="M183.82 182.95c-0.5,-1.48 -0.51,-0.61 -1.26,-2.57 -0.47,-1.23 -0.61,-1.26 -1.14,-2.19 -2.77,-4.87 -2.11,-3.36 -4.03,-9.23 -1.38,-4.23 -4.35,-11.77 -4.68,-15.68 -0.17,-1.99 -0.2,-4.3 -0.27,-6.3 -0.14,-3.97 0.38,-2.54 2.39,-4.41 -6.29,0.34 -4.68,-3.19 -7.1,-6.03 -1.7,-0.12 -5.67,-0.42 -7.11,0.11 -1.79,3.06 3.74,4.62 5.11,5.49 1.46,13.36 -0.15,10.6 4.81,24.45 2.17,6.06 4.49,9.19 9.09,13.04l4.19 3.34z"/>
   <path class="fil9" d="M75.52 230.53c0.52,0.57 0.63,-0.97 0.23,1.08 -0.05,0.24 -0.42,1 -0.59,1.56 2.82,-0.84 1.96,-1.62 3.78,-3.5 6.3,-6.53 2.32,-5.76 4.09,-9.92 0.9,-2.11 1.14,-3.03 2.58,-4.66 2.05,0.63 -0.41,0.4 1.48,1.35 0.99,-1.85 0.36,-2.52 2.22,-3.47l0.17 1.1c0.62,-0.81 0.31,-0.31 0.46,-1.7 0.09,-0.79 0.14,-1.81 0.18,-2.61 0.31,-5.83 -0.15,-7.1 -2.58,-11.88 -0.97,-1.92 -2.41,-4.51 -3.73,-5.89 -1.07,-1.13 -3.87,-3.66 -5.71,-3.77 -0.55,2.44 3.2,17.44 3.54,21.89 0.31,3.98 -0.68,7.85 -1.88,11.11 -1.2,3.24 -3.29,6.57 -4.24,9.31z"/>
   <path class="fil10" d="M173.82 99.78c0.14,3.69 -2.94,6.88 3.35,6.8 6.62,-0.08 13.94,-0.59 18.29,-5.59 1.18,-1.36 1.42,-2.11 2.85,-3.07 0.51,-0.34 1.43,-0.83 1.73,-1.26 0.83,-1.19 0.28,-1.54 -0.39,-2.13 -1.65,-1.33 -1.06,0.15 -6.53,0.5l-13.95 1.85c-0.96,0.26 -2.26,0.68 -3.04,1.03 -0.63,0.29 -0.65,0.29 -1.15,0.7 -0.39,0.32 -0.34,0.34 -0.58,0.57 -0.7,0.69 0.08,0.05 -0.6,0.6z"/>
   <path class="fil3" d="M67.34 142.83c2.54,4.29 0.08,16.36 -1.32,21.11 -2.26,7.67 -0.85,7.08 -5.04,13.08 -1.69,2.42 -0.56,2.27 -1.52,5.03 1.58,-0.92 6,-5.55 7.16,-6.8 4.16,-4.46 5.52,-13.25 7.33,-20.06 0.52,-1.97 0.89,-3.67 1.12,-5.95 0.8,-8.2 -1.15,-5.84 3,-7.62l0.55 -0.28c-1.72,0.18 -1.96,0.48 -3.72,0.06l-0.24 -1.48 -0.75 2.34c-1.91,0.68 -4.17,0.67 -6.55,0.58z"/>
   <path class="fil11" d="M40.07 203.71c0.84,-0.46 0.4,-0.09 1.04,-0.76 0.35,-0.37 0.36,-0.44 0.66,-0.99 -1.56,-2.19 -1.87,-3.23 -1.58,-6.68 0.96,-0.66 7.5,-2.06 9.12,-2.07l0.46 6.58c1.74,0.97 3.63,0.33 4.84,-0.74 -0.34,-2.51 -6.33,-11.15 8.34,-8.36 0.52,1.18 0.73,3.82 1.96,4.78 1.31,-0.78 0.49,-0.19 0.78,-2.3 1.61,-0.24 1.24,0.04 2.24,-0.77 -0.33,-0.9 0.19,-0.64 -1.09,-1.16 -0.53,-0.21 -1.43,-0.23 -2.1,-0.28l-0.08 -2.73c-1.34,-0.15 -1.55,0.16 -2.59,-0.63 0.53,-1.78 3.72,-1.85 6.45,-3.6l0.16 -1.64 -1.04 -0.74c-0.05,-1.96 0.63,-2.43 1.71,-3.43l1.03 0.3 0.83 -0.92c-0.64,-0.98 -0.8,-1.31 -1.88,-1.86 -1.45,0.71 -4.39,5.08 -5.88,6.73 -1.1,1.22 -1.9,2.02 -2.97,3.31 -4.71,5.69 -19.96,3.14 -24.58,6.38 -0.65,8.55 3.54,4.95 4.15,11.57z"/>
   <path class="fil12" d="M39.18 233.1c3.16,-2.33 7.87,2.49 10.49,3.14 -0.97,-1.64 -2.37,-1.37 -3.54,-2.89 -2.45,-3.18 -0.27,-0.73 -3.12,-3.16 -3.26,-2.78 -0.05,-6.4 3.79,-5.91 -0.17,-0.19 -0.01,-0.91 -2.55,-0.74 -3.61,0.24 -3.4,2.6 -4.8,3.97 -1.23,-0.38 -3.5,-1.96 -4.68,-2.73 -1.84,-1.2 -2.2,-2.59 -2.14,-5.43 0.12,-5.29 4.38,-6 3.78,-11.01 -1.39,-0.66 -1.6,-0.07 -2.05,-1.21 -0.51,0.35 -0.22,0.14 -0.66,0.56l-11.3 10.94c0.43,1.34 0.7,1.17 1.71,2.04 4.13,3.57 9.43,9.66 15.07,12.44z"/>
   <path class="fil3" d="M166.99 223.01c-0.86,-2.48 1.52,-12.8 1.88,-15.77 0.25,-2.02 1.63,-3.86 2.39,-6.4 0.69,-2.29 1.73,-4.39 3.85,-4.96l-4.33 -3.34c-1.13,-0.86 -2.96,-2.45 -4.3,-2.84 -1.76,2.63 -3.57,13.06 -3.87,17.18 -0.36,5.01 1.01,13.58 4.38,16.14z"/>
   <path class="fil12" d="M196.05 221.9c3.6,-1.26 4.84,0.42 4.84,3.72 0.01,5.73 -1.14,3.63 -1.87,7.27l2.93 -3.17c0.71,-0.73 2.09,-2.72 2.83,-3.12 1.85,-0.99 1.88,0.08 3.93,-1.93 0.82,-0.81 2.54,-3.14 3.63,-0.71 1.67,-0.99 2.63,-2.53 4.13,-4.09 1.07,-1.13 3.4,-2.8 3.82,-4.2 -2.07,-2.17 -6.15,-4.2 -10.07,-8.66l-2.54 -2.65c-0.37,-0.38 -0.25,-0.3 -0.62,-0.59 -1.97,3.57 -5.01,1.77 1.24,11.08 5.41,8.06 -2.84,10.73 -3.04,10.71 -1.38,-0.13 -5.55,-10.04 -9.2,-3.65z"/>
   <path class="fil13" d="M132.33 61.39c2.54,-0.5 6.27,-0.06 9.03,-0.08 3.74,-0.03 5.65,-0.4 6.16,3.48 0.38,2.84 0.57,16.6 -0.05,19l4.89 -0.5 -2.73 -0.18c1.21,-0.58 3.49,-0.09 5.02,-1.04 1.7,-1.53 0.62,-12.16 0.36,-15.96 -0.18,-2.76 -0.98,-2.73 -1.37,-4.37l5.53 -0.7c-4.82,0.03 -8.24,-0.45 -13.37,-0.07 -2.4,0.18 -12.44,-0.26 -13.48,0.44z"/>
   <path class="fil3" d="M67.17 197.33c1.49,-0.22 1.47,0.73 2.16,2.11 0.5,1 1.04,1.82 1.49,2.95 1.01,2.55 4.26,10.96 4.36,13.25 0.1,2.46 0.49,7.12 0.03,9.32 3,-2.77 4.57,-11.8 4.24,-16.7 -0.4,-6.06 -2.93,-10.93 -4.95,-15.47 -2.82,0.05 -5.51,2.66 -7.33,4.53z"/>
   <path class="fil13" d="M138.65 86.48c1.18,-0.35 1.18,-0.27 1.88,-0.96l-0.52 -0.31c1.8,-1.4 3.22,-1.49 4.62,-2.52 0.25,-1.87 -0.21,-7.09 -0.21,-9.57 0,-2.71 0.91,-8.01 -0.44,-9.99 -1.04,-0.74 -5.58,-0.71 -6.63,0.05 -1.1,0.94 -0.66,2.97 -0.67,5.51 -0,2.22 -0.02,4.44 -0.03,6.66 -0.02,4.99 2.48,5.57 1.99,11.14z"/>
   <path class="fil2" d="M136.34 135.73c-8.02,0.59 -10.32,6.95 -19.95,4.41 -4.1,-1.08 -15.19,-6.91 -18.13,-6.78 -0.55,3.71 3.85,5.4 7.61,7.01 12.59,5.41 12.58,7 22.05,2.05 3.47,-1.82 7.75,-2.38 8.42,-6.69z"/>
   <path class="fil3" d="M85.78 55.14c-1.03,0.61 -0.48,0.06 -0.92,1.15 2.57,0.08 6.16,0.34 9.14,0.46 2.21,0.09 6.55,-0.42 7.21,1.97 -1.05,1.69 -1.92,0.71 -3.44,1.49 1.98,0.16 0.56,-0 1.13,0.48 -0.95,1.01 0.09,-0.09 -0.73,0.58 -1.14,0.92 -0.23,-0.16 -1.08,0.98 1.89,-0.11 3.55,0.58 4.86,1.42l0.32 0.56 -0.33 -1.24 1.71 0.12 -0.41 -1.02 0.79 -0.86 -1.05 -0.14c0.24,-1.03 1.01,-4.02 1.43,-4.98 1.04,-2.38 2.07,-2.39 -0.06,-4.39 0.65,-0.51 -0.97,-0.55 1.12,-0.24 -1.69,-2.18 -3.35,-0.67 -6.02,-1.79 -1.89,-0.79 -2.94,-2.16 -5.45,-1.41 -3.4,1 -2.07,3.06 -7.7,7.37 -0.75,-0.19 -0.34,0.28 -0.51,-0.48z"/>
   <path class="fil14" d="M132.33 61.39c1.04,-0.71 11.08,-0.27 13.48,-0.44 5.13,-0.38 8.55,0.1 13.37,0.07 3.74,-0.45 4.12,2.85 8.48,3.23 -1.34,-6.05 -16.93,-7.39 -22.25,-7.32 -11.24,0.16 -10.26,3.19 -18.46,3.68 -2.2,0.13 -5.05,0.14 -5.96,1.8 1.11,2.36 8.49,2.06 8.84,1.79 1.07,-0.86 -0.28,-1.92 2.5,-2.8z"/>
   <path class="fil15" d="M96.21 146.69c0.54,0.21 0.8,0.41 1.59,0.4 1.84,-0.02 0.62,0.27 1.43,-0.5 0.6,-7.99 -10.9,-6.27 -13.36,-11.33 -1.67,-3.43 -3.27,-4.44 -5.33,-6.87 -1.4,-1.65 -4.62,-5.4 -6.42,-6.05l-0.26 0.4c2.75,4.69 -0.18,3.43 7.1,10.41 6.04,5.8 2.12,1.64 4.48,7.73 4.24,10.9 6.86,3.75 10.76,5.81z"/>
   <path class="fil4" d="M95.61 41.3c2.15,0.71 3.06,0.08 5.23,0.07 1.64,2.64 1.75,3.73 5.43,4.06 3.04,0.27 6.84,-0.71 9.59,0.37 3.29,1.29 3.29,1.79 7.7,2.31 2.12,0.25 7.13,1.08 8.96,0.27 -0.08,-1.44 0.36,-0.98 -1.46,-1.51l-21.1 -6.23c-2.48,-0.82 -8.03,-2.39 -10.48,-1.64 -1.27,0.39 -3.26,1.2 -3.87,2.31z"/>
   <path class="fil16" d="M179.32 188.77l1.6 -0.07 1.09 -1.42 1.08 0.4c2.09,0.22 3.88,1.27 5.03,2.3 1.7,1.51 0.16,1.24 1.81,3.73 0.49,0.74 0.2,0.17 0.65,1.05l-2.87 -0.49 -1.24 0.44 0.12 1.36c3.07,1.89 5.22,1.98 9.16,1.09 0.16,-0.84 0.26,-1 0.02,-1.85 -0.08,-0.29 -0.19,-0.55 -0.35,-0.8 -0.42,-0.66 -0.1,-0.15 -0.67,-0.58 -0.12,0.21 -0.47,0.89 -0.59,1.05 -0.63,0.86 -0.17,0.36 -0.72,0.73 -0.8,-1.48 0.93,-1.89 0.78,-4.38 -0.32,-5.25 -6.86,-3.68 -10.71,-5.95 -4.72,-2.79 -10.15,-9.72 -12.83,-9.46 -0.82,2.92 1.41,4.7 2.62,5.99 3.87,4.11 2.96,2.12 5.58,1.8 -0.31,1.02 -0.63,0.77 -1.43,1.7 0.42,1.44 1.27,2.11 1.87,3.38z"/>
   <path class="fil17" d="M91.58 89.67c1.59,0.15 2.19,0.84 3.54,1.45 2.65,-1.43 5.66,1.23 8.26,2.01 -0.13,-1.55 -1.73,-6 -2.45,-6.89 -1.16,-1.43 -1.77,-0.75 -3.67,-1.21 -1.01,-0.25 -2.08,-1.06 -3.29,-1.44 -4.43,-1.37 -13.17,-0.27 -14.41,3.56 2.47,4.27 10.84,-2.33 12.02,2.52z"/>
   <path class="fil18" d="M122.33 148.45c0.52,0.74 8.34,7.4 9.22,7.65 2.62,0.73 4.86,-1.13 5.5,-2.74 0.92,-2.3 -0.4,-4.96 -0.35,-7.49 1.45,-1.11 2.43,-0.7 3.16,-2.6 -2.83,-0.06 -2.37,0.96 -3.89,1.59 -1.39,0.59 -3.78,0.39 -5.34,0.48 -3.09,0.18 -7.19,1.02 -8.3,3.11z"/>
   <path class="fil18" d="M103.24 144.24c0.36,2.31 1.45,9.64 2.39,10.77 2.76,3.32 6.82,-0.81 8.58,-2.32 5.02,-4.33 4.21,-4.76 0.44,-6.32 -2.16,-0.9 -9.28,-2.03 -11.41,-2.12z"/>
   <path class="fil11" d="M159.98 10.57l2.13 0.05c1.82,3.53 0.15,11.81 1.45,17.42 0.43,1.87 0.96,3.78 0.6,5.83 -4.2,2.35 -2.06,-1.49 -9.6,5.89 -7.39,7.25 -2.93,5.38 -4.56,11.32l-1.61 0.06c0.45,0.46 -0.04,0.25 0.69,0.54 0.92,0.36 0.25,0.19 1.21,0.18 1.95,-1.51 0.73,-4.12 1.43,-6.49 0.71,-2.38 2.43,-2.99 3.92,-4.52 1.36,-1.39 2.19,-3.12 4.9,-3.29 3.07,-0.2 5.26,0.86 7.64,-0.79 0.49,-4.13 -1.57,-6.55 -2.56,-9.64 -1.34,-4.18 0.14,-8.57 -0.4,-11.78 -0.16,-2.78 -0.64,-2.62 -1,-5.02 -1.01,-0.22 -2.75,-2.31 -4.25,0.23z"/>
   <path class="fil19" d="M197.46 142.46l0.17 -1.46 -1.86 0.04c-1.42,-3.05 4.21,-3.09 5.1,-4.78 0.33,-3.24 -1.29,-3.55 -2.35,-5.45 -1.6,-2.85 -2.3,-9.06 -6.48,-1.13 -0.77,1.47 -1.63,3.4 -2,5.35 -1.16,6.19 2.69,5.71 7.41,7.41z"/>
   <path class="fil20" d="M85.78 55.14c0.17,0.76 -0.24,0.29 0.51,0.48 5.63,-4.32 4.31,-6.37 7.7,-7.37 2.52,-0.74 3.56,0.62 5.45,1.41 2.67,1.12 4.34,-0.39 6.02,1.79 5.62,2.13 9.83,8.65 13.1,9.19 -0.55,-5.92 -17.87,-19.37 -26.66,-13.72 -1.82,1.17 -5.49,5.68 -6.13,8.21z"/>
   <path class="fil19" d="M39.56 139.59c1.62,1.35 6.88,2.99 9.05,1.74 1.78,-1.03 0.75,-10.21 0.43,-10.97 -0.74,-1.79 -4.17,-4.94 -6.34,0.28 -0.61,1.47 -3.07,8.04 -3.14,8.94z"/>
   <path class="fil13" d="M115.07 223.79c-0.76,0.26 -0.78,-0.37 -0.56,0.57 1.41,2.27 4.51,9.07 6.18,10.49 2.7,0.07 4.11,-2.92 4.77,-5.56 0.6,-2.4 1.61,-6.53 1.72,-8.99 -3.71,0.81 -8.31,4.47 -11.88,4.69 -0.43,-0.44 -0.02,-0.12 -0.23,-1.2z"/>
   <path class="fil2" d="M124.21 85.84l0.91 0.2c0.64,-0.42 0.18,0.25 0.41,-0.81 -1.29,-3.45 -3.24,-5.83 -6.19,-7.45 -3.7,-2.03 -9.73,2.71 -9.85,3.1 0.03,2.08 0.55,2.12 2.32,2.58 4.62,1.21 -1.55,3.29 12.4,2.38z"/>
   <path class="fil21" d="M103.26 77.94l-0.17 2.02 -1.49 0.2 0.39 3.69c1.97,1.02 1.86,0.01 2.79,2.62 2.87,8.06 0.87,12.24 4.7,12.32 1.3,-3.55 -2.67,-10.61 -1.7,-12.29 1.24,1.04 1.64,4.08 3.57,4.18 1.5,-2.35 -5.77,-8.1 -5.14,-10.54 0.1,-0.39 5.98,-8.53 5.65,-11.42 -0.14,-1.23 0.09,-0.41 -0.38,-1.2l-3.11 5.8c-1.01,1.8 -2.18,4.62 -3.54,5.81 -1.37,-0.45 -0.46,-0.09 -1.54,-1.19z"/>
   <path class="fil19" d="M87.28 41.81c-0.15,1.86 -1.07,2.54 -3.15,2.41 -1.29,-1.25 -1.27,-2.43 -2.13,-4.43 -0.61,-1.43 -0.34,-0.91 -2.28,-2.51 -0.72,-0.6 0.18,-0.27 -0.88,-0.55 -0.9,2.3 -0.58,0.51 -2.63,2.05 0.23,2.75 -2.64,3.32 -0.53,6.51 2.53,0.62 4,-0.34 7.14,0.71 2.14,0.71 3.85,2.1 5.79,0.21 1.98,-1.94 -0.06,-0.6 4.05,-4.08 1.58,-1.34 1.83,-3.46 1.08,-6.15 -2.63,0.53 -2.6,6.03 -4.8,7.27 -1.58,-0.57 -0.39,-0.34 -1.65,-1.43z"/>
   <path class="fil9" d="M181.85 119.17c0.67,2.42 2.1,4.02 2.95,6.55 0.8,2.38 1.52,4.78 2.22,6.97 1.73,-0.64 1.49,-1.71 3.23,-4.78 0.97,-1.71 2.1,-3.45 2.69,-5.44 1.02,-3.46 0.24,-3.87 -3.2,-3.77 -2.58,0.08 -5.43,0.21 -7.9,0.47z"/>
   <path class="fil21" d="M63.4 57.91l0.07 1.59 -0.91 0.24c0.59,1.85 0.8,1.76 0.68,3.88 0.58,0.41 0.54,-0.34 0.41,1.04 10.07,-10.87 5.19,-16.24 9,-27.34 2.45,-0.06 -0.32,-0.31 3.56,1.47 2.05,-1.54 1.73,0.25 2.63,-2.05 -1.11,-2.35 -1.66,-2.36 -5,-2.92l0.07 -0.94c-1.67,1.11 -2.53,4.2 -3.36,5.96 -1.18,2.48 -2.13,3.64 -2.23,6.93 -0.11,3.41 -0.07,16.79 -4.92,12.14z"/>
   <path class="fil17" d="M73.75 61.54l2.61 0.16c0.21,1.57 0.27,0.99 -0.38,2.2 2.39,0.23 0.08,0.45 2.23,0.99 2.03,-3.45 2.81,-4.36 8.14,-4.07 4.48,0.24 7.42,-0.62 11.43,-0.62 1.52,-0.78 2.39,0.21 3.44,-1.49 -0.66,-2.39 -5,-1.88 -7.21,-1.97 -2.98,-0.12 -6.56,-0.38 -9.14,-0.46 -1.37,1.12 -2.64,2.18 -4.54,3.42 -3.31,2.15 -3.58,0.84 -6.57,1.83z"/>
   <path class="fil17" d="M157.12 125.28c-1.92,-0.68 -12.74,-3.5 -14.64,-3.51 -1.63,9.99 13.6,11.55 14.64,3.51z"/>
   <path class="fil7" d="M88.14 62.87c-4.38,-0.71 -3.39,1.7 -3.16,8.65 0.07,2.3 -0.74,10.37 1.09,11.15 4.54,1.92 3.37,-3.53 3.19,-8.82 -0.11,-3.24 0.23,-8.61 -1.12,-10.97z"/>
   <path class="fil8" d="M105.8 27.06c1.51,0.63 5.33,1.14 7.24,0.42 1.37,-1.21 1.2,-3.84 1.41,-5.69 0.42,-3.69 -0.18,-3.96 -3.74,-3.69 -2.04,0.16 -4.66,-0.17 -5.04,1.9 -0.27,1.49 -0.15,5.78 0.12,7.06z"/>
   <path class="fil20" d="M73.92 32.89l-0.07 0.94c3.34,0.55 3.88,0.56 5,2.92 1.06,0.28 0.16,-0.05 0.88,0.55 1.93,1.6 1.67,1.08 2.28,2.51 0.85,2 0.84,3.18 2.13,4.43 2.08,0.12 3,-0.56 3.15,-2.41 -1.63,-3.91 -4.13,-2.87 -4.28,-8.57 -0.06,-2.07 0.81,-6.06 -5.78,-3.23 -1.81,0.78 -2.39,1.75 -3.3,2.87z"/>
   <path class="fil22" d="M168.3 116.36c-3.33,2.62 -5.47,7.07 -7.95,11.55 -1.35,2.44 -2.16,3.66 -5.13,4.42 -2.12,0.54 -6.81,1.68 -3.95,4.78 2.63,2.84 4.76,-1.37 5.62,-2.68 1.55,-2.36 2.99,-3.11 5.13,-4.84 1.61,-1.3 3.65,-2.9 4.47,-5.17 0.28,-0.75 1.75,-7.33 1.81,-8.06z"/>
   <path class="fil5" d="M101.85 80.16c-1.94,-3.15 -2.13,-12.03 -1.09,-15.12 0.53,-1.57 -0.46,-1.41 1.19,-1.39 -1.32,-0.83 -2.97,-1.52 -4.86,-1.42 -0.15,2.88 -0.24,6.15 -0.2,9.04 0.04,3.09 1.07,6.09 0.96,8.92 -1.51,0.45 -2.34,0.78 -3.15,1.79 0.56,0.85 1.94,1.78 2.71,2.07 1.88,-1.28 1.04,-2.95 4.43,-3.89z"/>
   <path class="fil6" d="M46.77 122.5c0.04,2.57 5.84,7.68 6.34,7.66 1.65,-0.74 2.45,-2.64 3.44,-4.12 0.9,-1.36 2.63,-2.92 2.38,-4.84 -1.64,-0.71 -10.23,0.56 -12.16,1.3z"/>
   <path class="fil19" d="M204.31 91.45c-0.48,-4.13 -7.51,-10.15 -10.49,-12.81l-9.68 -7.68c-1.48,-1.1 -1.77,-2.19 -3.49,-2.16 -0.29,2.17 0.72,1.84 2.34,2.94l17.78 16.95c1.09,1.34 1.51,2.46 3.55,2.76z"/>
   <path class="fil17" d="M21.14 126.89c3.82,0.01 3.95,-0.26 7.27,1.06 -4.45,-11.32 -12.11,-9.88 -13.2,-8.2 -0.55,1.99 -0.31,4.47 1.33,5.55 2.51,-0.21 0.92,-0.79 2.95,-1.8 1.28,0.36 2.78,1.58 3.15,2.8l-1.51 0.6z"/>
   <path class="fil23" d="M124.53 18.29c0.35,3.05 -2.69,5.18 -0.52,9.04 6.29,1.03 5.52,-1.56 6,-10.71 -0.08,-0.05 -0.18,-0.26 -0.24,-0.17l-0.67 -0.11c-0.1,-0 -0.29,0.05 -0.43,0.06 -1.03,0.09 -1.97,-0.35 -2.83,0.18 -1.09,0.67 0.1,-0.25 -0.75,1.06 -0.53,0.82 -0.17,0.57 -0.57,0.64z"/>
   <path class="fil1" d="M163.17 79.45c1.81,-0.13 0.76,-0.55 0.95,0.6 5.01,-3.55 -0.28,-3.9 -0.96,-9.89 -0.38,-3.31 0.21,-6.98 -3.62,-6.56 -0.56,1.82 0.16,6.1 0.19,8.41 0.11,6.31 -0.48,4.47 3.76,4.85 0.32,1.68 0.35,1.4 -0.32,2.59z"/>
   <path class="fil21" d="M68.71 95.07c-0.46,-2.43 -0.97,-5.11 0.18,-7.17l1.63 0.3 0.06 -2.79c1.8,-0.49 1.2,0.05 2.65,0.05 0.08,-1.22 -0.64,-1.2 -1.38,-2.27 -0.93,-1.33 -0.43,-1.71 -2.26,-1.99 -0.98,1.86 -0.52,4 -1.38,6.24 -1.46,3.83 -7.51,14.05 -0.65,17.03 0.3,-2.73 -0.64,-7.45 1.16,-9.4z"/>
   <path class="fil24" d="M197.78 188.33l-1.21 2.2c0.12,0.01 0.26,0.04 0.35,0.07 0.08,0.03 0.23,0.05 0.33,0.09l1.23 0.9c0.04,-0.07 0.12,0.17 0.19,0.25l1.04 -0.52c0.78,0.61 1.87,2.29 2.74,3.15 0.89,0.88 2.48,1.81 2.5,3.32l0.57 -1.46c0.45,-0.83 -0.1,-0.25 0.65,-0.78 0.52,-0.37 1.8,-0.62 2.48,-0.78 6.93,-1.55 2.89,-5.1 1.03,-4.64 -1.8,1.05 -1.5,1.85 -2.9,2.35 0.28,-0.88 0.77,-1.62 1.14,-2.36 -1.47,0.29 -3.85,1.09 -5.26,0.95 -0.95,-0.09 -1.62,-0.42 -2.01,-1.15 -0.74,-1.38 -0.47,-1.71 0.21,-2.4l-1.18 1.08 -1.89 -0.28z"/>
   <path class="fil23" d="M131.92 21.03c-0.02,1.73 -0.46,4.34 0.17,5.6 1.32,0.5 3.38,-0.27 4.53,-0.67l0.81 -9.05c-0.42,-2.18 -3.44,-2.49 -4.79,-1.29 -0.75,0.84 -0.55,1.42 -0.59,2.86 -0.02,0.87 -0.03,1.76 -0.13,2.56z"/>
   <path class="fil25" d="M99.24 146.59c-0.82,0.77 0.4,0.47 -1.43,0.5 -0.8,0.01 -1.06,-0.19 -1.59,-0.4l0.17 1.05c-3.48,1.68 -6.15,6.77 -3.72,11.35 1.67,-0.23 4.58,-2.8 5.18,-4.32 0.82,-2.06 0.85,-5.77 1.39,-8.17z"/>
   <path class="fil26" d="M172.19 128.69c0.16,1.84 -1.05,1.75 -2.38,3.14 -0.65,0.68 -2.51,3.2 0.06,3.6 2.26,0.36 1.71,-1.79 3.14,-2.66 2.02,-1.23 2.57,0.41 3.65,-2.6 3.21,-8.96 -2.06,-4.19 -2.51,-4.1 -1.64,0.33 -4.12,-0.47 -5.26,0.8 -2.06,2.27 2.31,1.5 3.32,1.82z"/>
   <path class="fil17" d="M118.73 164.74c5.71,0.71 6.26,-9.24 2.99,-9.87 -7.12,-1.37 -4.24,8.07 -2.99,9.87z"/>
   <path class="fil1" d="M176.11 64.23c1.34,-0.08 1.63,-0.64 2.53,-1.86l9 -15.01c1.5,-2.7 1.92,-4.37 1.77,-7.91 -1.57,0.82 -2.79,4.01 -3.58,5.74 -1.76,3.9 -4.11,9.41 -6.31,12.9 -0.9,1.43 -3.31,4.59 -3.42,6.14z"/>
   <path class="fil25" d="M73.94 184.17c-1.61,-0.08 -1.41,0.24 -2.86,-0.21l-0.54 -0.28c0.02,1.86 -0.06,0.49 -2.92,2.14 -1.29,5.78 2.75,6.65 5.76,5.52 1.48,-0.55 1.71,-2.05 1.71,-3.77 -0,-1.88 -0.27,-1.97 -1.73,-2.51 0.12,-0.1 0.48,-0.75 0.59,-0.9z"/>
   <path class="fil17" d="M143.95 147.25c-3.13,1.59 -0.73,12.26 2.71,10.25 1.36,-0.79 1.2,-4.98 1.33,-6.86 0.12,-1.76 0.16,-2.29 -1.02,-2.99 -0.97,-0.57 -2.19,-0.82 -3.02,-0.4z"/>
   <path class="fil27" d="M121.6 111.46c0.59,0.76 -0.01,0.17 0.86,0.87 0.71,0.57 0.73,0.5 1.26,0.8l0.23 -1.29c4.52,-1.84 5.46,-3.02 11.32,-2.1l11.11 2.32c1.03,-1.15 0.74,-0.13 0.91,-1.65 -8.08,-4.08 -16.22,-1.97 -23.74,-0.76l-0.65 1.94 -1.3 -0.13z"/>
   <path class="fil28" d="M166.53 184.53c0.34,-2.79 3.84,-0.36 5.14,-0.04 -0.85,-2.37 -2.41,-3.19 -3.33,-6.14 -1,-3.22 -2.35,-4.29 -5.1,-2.16 -0.99,1.56 1.01,5.02 1.93,6.41 0.18,0.28 0.46,0.74 0.56,0.89l0.57 0.77c0.05,0.07 0.14,0.19 0.22,0.27z"/>
   <path class="fil17" d="M103.66 63.09c1.74,1 10.2,2.87 11.62,0.86 2.05,-2.92 -1.94,-2.91 -3.81,-2.84 -2.46,0.1 -4.98,0.28 -7.42,0.1l-0.79 0.86 0.41 1.02z"/>
   <path class="fil16" d="M101.85 80.16l-0.26 -0.01 1.49 -0.2 0.17 -2.02 -0.99 -13.72 -0.32 -0.56c-1.65,-0.02 -0.66,-0.18 -1.19,1.39 -1.04,3.09 -0.86,11.97 1.09,15.12z"/>
   <path class="fil25" d="M179.32 188.77c0.56,0.83 0.9,0.91 1.45,1.92 0.53,0.95 0.6,1.67 1.11,2.57 1.02,1.77 2.56,2.2 4.7,2.8l-0.12 -1.36 1.24 -0.44c-1.4,-4.46 -1.74,-4.4 -5.19,-6.48l0.57 -0.1 -1.08 -0.4 -1.09 1.42 -1.6 0.07z"/>
   <path class="fil25" d="M166.53 184.53c0.79,0.62 2.09,2.67 3.07,3.64 1.17,1.15 2.62,2.22 3.98,3.2 0.42,-1.46 0.81,-1.96 2.65,-1.94 -0.07,-0.07 -0.17,-0.27 -0.21,-0.21 -0.09,0.18 -2.28,-3.41 -4.35,-4.72 -1.31,-0.33 -4.8,-2.75 -5.14,0.04z"/>
   <path class="fil2" d="M70.41 178.49l-0.23 3.32 -1.47 0.55 -0.16 1.64 2 -0.32 0.54 0.28c1.46,0.45 1.26,0.13 2.86,0.21 1.49,0.12 1.8,-0.56 2.58,-1.74 -0.09,-1.96 -0.55,-2.44 -1.82,-3.12 -1.11,-0.6 -2.37,-1.21 -3.47,-1.73l-0.83 0.92z"/>
   <path class="fil17" d="M129.71 81.61c-0.8,-1.39 -1.84,-1.27 -3.27,-2.08 -2.72,-1.54 -3.79,-2.82 -5.17,-5.52l-1.31 -2.76c-0.57,-0.85 -0.04,-0.31 -0.76,-0.82 -2.54,4.54 1.99,5.94 3.66,8.26 0.53,0.73 5.16,8.58 6.84,2.92z"/>
   <path class="fil25" d="M131.03 89c1.18,-0.37 8.19,-7.84 4.3,-9.16 -2.53,-0.86 -7.19,5.48 -4.3,9.16z"/>
   <path class="fil21" d="M73.86 122.74l0.26 -0.4c-1,-1.09 -1.53,-0.92 -2.42,-2.08 -0.99,-1.3 -0.62,-1.71 -2.35,-2.48 -2.79,-1.24 -5.97,-0.12 -5.69,2.81 1.81,1.72 6.9,1.32 10.2,2.15z"/>
   <path class="fil25" d="M72.47 75.09c-0.66,3.13 1.09,4.34 2.26,6.31 0.67,1.12 3.12,5.23 5.34,2.79 0.95,-1.04 -0.67,-1.93 -3.07,-5.06 -0.81,-1.05 -2.96,-3.96 -4.54,-4.04z"/>
   <path class="fil15" d="M146.79 144.67c2.33,-0.33 4.15,-0.59 3.55,-3.11 -1.99,-2.35 -10.34,-0.47 -9.1,3.32l5.54 -0.21z"/>
   <path class="fil26" d="M100.12 238.39c1.13,0.87 6.14,0.96 8.07,1.11 -1.37,-4.16 1.9,-4.3 -0.8,-6.92 -2.58,0.55 -1.19,1.71 -3.25,2.76 -3.48,1.76 -1.05,-0.21 -3.02,2.88l-1 0.17z"/>
   <path class="fil22" d="M127.72 194.24c6.63,-0.48 9.59,-2.4 13.1,-6.82 0.99,-1.24 2.29,-2.47 1.93,-4.89 -1.17,0.93 -2.12,3.33 -6.21,6.9 -2.45,2.14 -7.46,2.17 -8.83,4.81z"/>
   <path class="fil2" d="M74.64 139.91l0.24 1.48c1.77,0.42 2,0.12 3.72,-0.06 1.96,-0.52 3.18,-3.3 1.46,-5.2 -1.3,-0.58 -2.72,-0.49 -4.06,0.06 -0.98,0.87 -1.28,2.18 -1.36,3.71z"/>
   <path class="fil29" d="M117.46 16.14c0.19,2.19 0.68,3.49 0.68,6.03 -0,1.24 -0.09,1.93 -0.23,3.06 -0.21,1.66 -0.51,2.01 0.56,2.79 -0.37,-2.09 0.14,-5.88 0.37,-8.42 1.91,0.24 1.43,1.34 1.81,3.41 0.62,-0.95 0.98,-2.88 1.29,-4.05 0.47,-1.73 0.58,-2.7 2.66,-2.19l-0.08 1.52c0.39,-0.08 0.04,0.17 0.57,-0.64 0.85,-1.31 -0.34,-0.4 0.75,-1.06 0.86,-0.53 1.8,-0.09 2.83,-0.18 -0.82,-0.72 -0.97,-0.43 -2.3,-0.68l0.52 -0.48c-1.46,0.03 -3.05,0.81 -4.81,0.91 -1.79,0.1 -2.98,-0.55 -4.62,-0.02z"/>
   <path class="fil17" d="M62.56 59.74l0.91 -0.24 -0.07 -1.59c0.09,-1.91 -0.36,-3.88 -0.76,-5.73 -0.46,-2.11 -2.51,-4.36 -3.93,-2.19 -0.91,1.39 3.13,8.77 3.86,9.75z"/>
   <path class="fil9" d="M69.5 126.16c-1.07,-0.35 -3.93,-0.79 -5.31,-0.39 -1.78,0.52 -1.87,2.82 -0.72,3.84 1.08,0.96 8.16,2.17 6.03,-3.45z"/>
   <path class="fil19" d="M169.8 121.16c1.97,0.33 6.04,0.05 7.76,-0.36 0.16,-2.2 -0.74,-2 -2.68,-2.93 -1.4,-0.67 -2.58,-1.59 -4.26,-1.47 -0.65,1.31 -1.17,3.31 -0.82,4.76z"/>
   <path class="fil21" d="M131.04 80.11l1.98 -0.16c0.5,-1.87 -2.65,-7.27 -4.01,-10.69 -0.7,-1.77 -0.58,-2.5 -2.85,-2.46 0.28,2.79 1.36,4.64 2.55,6.44 1.83,2.75 1.48,3.69 2.33,6.88z"/>
   <path class="fil29" d="M200.86 187.52c-0.68,0.69 -0.94,1.01 -0.21,2.4 0.39,0.73 1.06,1.06 2.01,1.15 1.42,0.14 3.79,-0.66 5.26,-0.95 0.76,-0.57 0.34,-0 0.68,-1.04 -1.28,-2.32 -4.73,-2.86 -7.74,-1.55z"/>
   <path class="fil6" d="M145.68 176.57c1.14,-1.14 1.08,-5.29 1.29,-7.77 0.17,-2.02 1.31,-6.66 0.31,-8 -2.84,2.51 -3,12.42 -1.6,15.78z"/>
   <path class="fil7" d="M124.21 85.84c0.63,0.66 1.76,1.32 2.55,2.26 4.97,5.97 2.31,7.59 2.11,10.78 4.39,-1.93 3.72,-7.67 -0.31,-10.73 -0.47,-0.36 -1.38,-0.86 -1.76,-1.18 -0.94,-0.78 -0.58,-0.75 -1.25,-1.73 -0.23,1.05 0.23,0.38 -0.41,0.81l-0.91 -0.2z"/>
   <path class="fil25" d="M101.23 34.4l0.69 -4.45c-1.48,0.68 -5.84,3.14 -5.95,5.18 -0.14,2.45 2.27,2.41 4.1,0.39l1.16 -1.11z"/>
   <path class="fil0" d="M96.18 109.68c1.32,0.62 1.88,0.53 3.58,0.69 -0.25,1.45 -0.5,1.36 -0.96,2.81 3.18,-1.24 2.6,-5.7 12.61,-3.85 0.46,0.08 0.21,0.12 0.85,0.14 1.58,0.06 -0.65,0.1 0.49,-0.03l0.42 -0.13c-3.06,-1.75 -4.62,-1.51 -8.09,-0.82 -2.59,0.52 -6.87,-1.21 -8.9,1.19z"/>
   <path class="fil29" d="M173.82 99.78c0.09,-2.63 0.35,-6.74 -1.06,-8.6 -1.81,1.03 -1.63,6.8 -1.69,8.75l2.75 -0.15z"/>
   <path class="fil23" d="M173.58 191.37c2.16,1.63 3.87,2.9 7.33,3.64 -0.87,-3.13 -2.55,-3.91 -4.68,-5.57 -1.84,-0.02 -2.23,0.48 -2.65,1.94z"/>
   <path class="fil26" d="M165.23 15.36c1.94,1 1.76,1.95 3.66,3.06 -0.41,-2.05 -0.66,-0.79 0.56,-0.97 0.06,-1.6 -0.2,-0.75 0.5,-1.46 -1.27,-2.63 -1.88,-2.69 -3.87,-4.13 -0.37,-0.27 -0.6,-0.47 -0.83,-0.66l-1.03 -0.86c0.36,2.41 0.84,2.24 1,5.02z"/>
   <path class="fil13" d="M150.34 141.56c0.6,2.52 -1.22,2.78 -3.55,3.11l0.59 0.3c2.55,0.94 -2.03,-0.56 0.63,0.23 0.14,0.04 1.38,0.29 1.58,0.32 5.27,0.83 5.19,-3.49 4.58,-4.69l-1.7 -0.3c-1.12,1.31 -0.5,1.07 -1.12,2.61l-1 -1.57z"/>
   <path class="fil26" d="M97.65 237.51c-0.03,-2.47 3.65,-2.04 1.91,-5.11 -3.41,-0.79 -0.48,2.63 -3.72,1.47l-0.47 -1.94c-0,-1.63 -0.17,-0.85 0.57,-2.17 -1.34,0.72 -0.95,0.81 -1.02,2.87 -0.04,1.3 -0.15,2.47 -0.11,3.78l2.84 1.11z"/>
   <path class="fil21" d="M68 72.51c0.26,-0.84 0.71,-2.89 -0.03,-3.94 -0.71,-1.01 -2.78,-0.62 -3.47,0.06 -2.52,2.52 1.31,4.43 3.49,3.87z"/>
   <path class="fil23" d="M118.47 28.02c0.67,0.63 1.24,0.25 2.12,-0.08l0.07 -4.93c-0.39,-2.07 0.1,-3.18 -1.81,-3.41 -0.24,2.54 -0.74,6.33 -0.37,8.42z"/>
   <path class="fil21" d="M59.67 192.88l-4.28 -0.47c-0.27,2.83 0.16,5.22 3.25,4.8l1.03 -4.32z"/>
   <path class="fil7" d="M113.46 193.62c-0.97,-1.61 -2.72,-2.02 -4.37,-2.46 -2.23,-0.6 -3.21,-0.93 -4.93,-1.6 0.69,3.41 5.2,4.11 9.31,4.06z"/>
   <path class="fil30" d="M204.96 197.78c-0.02,-1.51 -1.62,-2.44 -2.5,-3.32 -0.87,-0.86 -1.96,-2.54 -2.74,-3.15l-1.04 0.52c1.09,2.01 0.54,0.33 2.14,3.91 0.66,1.46 2.01,2.33 3.7,2.66l0.44 -0.62z"/>
   <path class="fil0" d="M187.7 194.26l2.87 0.49c-0.45,-0.88 -0.16,-0.31 -0.65,-1.05 -1.65,-2.49 -0.11,-2.22 -1.81,-3.73 -1.15,-1.02 -2.93,-2.07 -5.03,-2.3l-0.57 0.1c3.44,2.08 3.78,2.02 5.19,6.48z"/>
   <path class="fil7" d="M169.45 17.46l8.68 9.67c-1.1,-3.35 -6.07,-8.91 -8.18,-11.13 -0.7,0.71 -0.45,-0.14 -0.5,1.46z"/>
   <path class="fil30" d="M60.76 198.71c1.53,-0.23 2.04,-0.98 2.25,-2.62 0.25,-1.89 -0.05,-2.57 -1.04,-3.38 -2.67,0.63 -2.32,4.4 -1.21,6z"/>
   <path class="fil2" d="M75.97 63.9c0.65,-1.21 0.59,-0.62 0.38,-2.2l-2.61 -0.16c-1.44,0.62 -2.89,1.63 -2.86,3.38 2.23,0.47 3.53,-0.06 5.08,-1.02z"/>
   <path class="fil28" d="M110.35 182.87c1.11,-0.45 0.41,0.41 1.14,-1.18 0.85,-1.85 3.48,-9.31 2.92,-10.31 -1.05,0.32 -0.36,-0.52 -1.12,1.02l-3.06 10.2c0.01,-0.05 0.07,0.18 0.12,0.27z"/>
   <path class="fil31" d="M184.48 41.46c-0.02,-1.72 2.19,-2.14 0.57,-5.36 -0.95,-1.88 -1.92,-3.75 -3.45,-4.47 1.21,4.3 1.44,2.63 2.88,9.82z"/>
   <path class="fil2" d="M167.53 83.77c-1.41,1.2 -3.65,2.02 -4.98,3.25 2.47,0.04 4.96,-1.14 6.43,-2.09 0.19,-2.04 0.23,-3.84 -1.27,-4.8l-0.18 3.64z"/>
   <path class="fil21" d="M160.33 174.6c1.77,-0.8 3.4,-6.28 3.11,-8.71 -1.87,0.87 -3.34,6.23 -3.11,8.71z"/>
   <path class="fil27" d="M135.86 94.37c0.09,-0.08 0.4,-0.31 0.47,-0.33 0.05,-0.02 0.18,-0.08 0.23,-0.1 0.61,-0.15 6.26,-0.65 8.36,-2.36 -2.89,-1.76 -6.75,1.1 -8.55,2.06l0.3 -2.42 -0.61 1.42c-0.1,0.49 -0.14,1.2 -0.2,1.73z"/>
   <path class="fil27" d="M208.97 144.53c1.84,4.56 0.56,9.02 2.2,10.54l0.24 -0.47c0.42,-1.77 -0.12,1.48 0.13,-0.6l-0.28 -4.86c-0.18,-1.17 -0.27,-1.68 -0.58,-2.77l-0.56 -2.01c-0.31,-0.86 -0.26,-0.6 -0.4,-0.84l-0.01 1.37 -0.74 -0.36z"/>
   <path class="fil28" d="M224.93 128.68c-0.62,-1.41 -5.8,-7.15 -7.53,-7.7 0.55,1.98 1.84,3.26 3.22,4.36 1.64,1.31 1.9,2.86 4.31,3.35z"/>
   <path class="fil9" d="M53.11 140.34c0.37,-0.08 1.23,0.7 1.62,-2.58 0.18,-1.47 0.28,-2.62 -0.52,-3.69 -0.36,0.17 -0.93,-0.55 -1.46,2.61 -0.25,1.46 -0.33,2.38 0.35,3.66z"/>
   <path class="fil0" d="M95.94 116.6c0.98,-0.22 0.29,0.76 1.8,-2.12 -0.34,-0.23 0.15,-0 -0.72,-0.34 -2.96,-1.14 -3.04,-4.58 -4.77,-2.64 -0.96,1.08 1.22,1.71 1.91,2.15 1.4,0.9 1.16,1.21 1.77,2.94z"/>
   <path class="fil27" d="M144.24 113.79c-0.02,-0.09 -0.12,-0.13 -0.14,-0.3 -0.02,-0.17 -0.1,-0.2 -0.16,-0.35l-1.95 0.14c0.19,2.6 0.08,4.22 1.58,4.94 0.61,-0.82 0.71,-0.85 0.83,-2.25l-0.17 -2.18z"/>
   <path class="fil28" d="M169.99 71.46c1.86,-0.62 5.24,-5.61 0.66,-5.32 0.06,4.48 -0.77,2.59 -0.66,5.32z"/>
   <path class="fil9" d="M78.59 171.45c0.51,-0.58 0.02,0.46 0.65,-0.97 0.63,-1.42 0.81,-3.33 -1.36,-3.1 -2.36,0.25 -0.92,3.34 0.7,4.07z"/>
   <path class="fil0" d="M68.7 182.36l1.47 -0.55 0.23 -3.32 -1.03 -0.3c-1.08,1 -1.76,1.47 -1.71,3.43l1.04 0.74z"/>
   <path class="fil7" d="M48.06 198.31c-0.22,-0.5 0.89,-1.22 -3.47,-1.18 0.07,1.25 0.04,1.67 1.17,1.95 1.66,0.41 1.77,-0.04 2.31,-0.78z"/>
   <path class="fil29" d="M195.27 190.97l0.81 0.35c0.33,-0.4 0.22,-0.23 0.49,-0.8l1.21 -2.2c-0.36,-0.46 0.22,-0.34 -1.18,-0.51l-1.4 0.89 0.06 2.27z"/>
   <path class="fil21" d="M194.75 193.9c0.57,0.43 0.25,-0.08 0.67,0.58 0.16,0.25 0.27,0.51 0.35,0.8 0.24,0.86 0.14,1.02 -0.02,1.85l1.38 -0.28c0.09,-1.95 -0.43,-2.81 -1.47,-3.79l-0.9 0.83z"/>
   <path class="fil28" d="M187.06 160.59c-0.08,1.68 0.05,4.37 1.27,5.59 0.16,-1.75 0.12,-4.37 -1.27,-5.59z"/>
   <path class="fil19" d="M102.59 186.87c0.08,-1.84 -0.51,-2.84 -2.18,-2.95 -0.07,1.85 0.56,2.76 2.18,2.95z"/>
   <path class="fil19" d="M134.44 131.36c1.73,0 1.93,-0.62 1.7,-2.44 -1.97,-0.18 -2.28,0.94 -1.7,2.44z"/>
   <path class="fil19" d="M195.27 190.97l-0.06 -2.27 1.4 -0.89c-2.61,0.12 -1.24,-1.33 -3.51,-0.61 0.48,1.12 0.74,0.98 1.74,1.49l0.43 2.29z"/>
  </g>
 </g>
</svg>
