<?xml version="1.0" encoding="UTF-8"?>
<!DOCTYPE svg PUBLIC "-//W3C//DTD SVG 1.1//EN" "http://www.w3.org/Graphics/SVG/1.1/DTD/svg11.dtd">
<!-- Creator: CorelDRAW -->
<svg xmlns="http://www.w3.org/2000/svg" xml:space="preserve" width="19.9476mm" height="19.6876mm" version="1.1" style="shape-rendering:geometricPrecision; text-rendering:geometricPrecision; image-rendering:optimizeQuality; fill-rule:evenodd; clip-rule:evenodd"
viewBox="0 0 95.53 94.28"
 xmlns:xlink="http://www.w3.org/1999/xlink"
 xmlns:xodm="http://www.corel.com/coreldraw/odm/2003">
 <defs>
  <style type="text/css">
   <![CDATA[
    .fil1 {fill:black}
    .fil2 {fill:#22CCD8}
    .fil0 {fill:#FD24A1}
   ]]>
  </style>
 </defs>
 <g id="Camada_x0020_1">
  <metadata id="CorelCorpID_0Corel-Layer"/>
  <g id="_2413771986896">
   <path class="fil0" d="M54.7 75.2c-0.94,-0.91 -0.33,-1.91 -1.11,-2.83 -0.33,-0.39 -1.62,-1.09 -2.34,-1.8 -1.38,-1.35 -3.07,-4.04 -3.01,-6.07 0.06,-2.19 1.88,-2.95 4.24,-4.19 1.78,-0.94 5.11,-2.7 6.94,-3.23 1.4,-0.41 1.84,-0.1 2.68,1.01 0.7,0.94 1.29,2.06 1.76,3.15 2.69,6.18 -0.66,5.4 -6.37,9.25 -3.6,2.43 -0.61,3.61 -2.78,4.72zm33.04 -18.84c3.46,3.07 -1.11,7.57 -3.93,5.02 -3.47,-3.13 0.77,-7.83 3.93,-5.02zm-27.8 -52.52c-0.44,0.61 -0.05,1.07 -0.17,1.77 1.26,1.19 2.86,2.29 2.16,4.41 -0.64,1.96 -2.16,2.53 -4.35,2.42l-2.72 5.01c2.72,2.03 4.35,0.35 6.73,5.26 4.19,8.64 7.21,11.32 3.92,18.98 -1.93,4.48 -8.13,3.7 -7.88,6.22 0.6,5.97 5.6,6.29 -1.8,9.74 -11.82,5.5 -7.59,4.55 -12.23,-0.18 -1.82,2.67 -3.29,8.36 -4.46,11.98 -1.2,3.71 -2.46,8.88 -2.96,12.61 0.88,1.1 3.83,2.58 1.9,5.22 -1.61,2.21 -3.99,2.07 -5.52,0.16l-1 -0.34 1.79 3.21c2.92,-0.51 21.51,-10.94 25.46,-13.1 3.66,-2 9.22,-6.03 11.49,-1.56 1.86,3.65 1.19,9 3.21,12.69 2.46,-0.4 2.16,-2.38 2.19,-4.37 0.03,-2.41 -0.83,-8.46 1,-10.07 1.75,-1.54 2.9,0.94 4.05,1.74 0.83,-1.44 -0.47,-6.37 0.8,-9.32 0.71,-1.65 2.64,-2.2 4.46,-3.1 1.85,-0.91 3.43,-1.83 5.37,-2.74 -0.98,-3.42 -5.68,-11.35 -7.61,-14.86l-21.53 -39.17c-0.29,-0.54 -0.64,-1.2 -1.01,-1.72 -0.74,-1.04 -0.43,-0.79 -1.31,-0.88z"/>
   <path class="fil1" d="M54.88 17.46c-2.94,-0.06 -1.89,-1.76 -6.88,0.59l-22.94 10.82c-2.93,1.46 -4.48,2.1 -5.43,4.5 -0.53,1.35 -1.45,4.38 -1.59,6.02 -0.36,4.1 4.73,13.29 6.49,13.79 0.9,0.15 2.4,-0.54 3.44,-0.93l1.39 7.04c0.25,1.05 0.22,1.86 0.98,2.35 0.79,-0.72 0.5,-1.17 0.35,-2.4 -0.11,-0.94 -0.2,-1.75 -0.29,-2.77 -0.09,-0.95 -0.14,-1.67 -0.24,-2.58 -0.13,-1.16 -0.42,-1.92 0.92,-1.98 0.38,0.27 -0.07,-0.39 0.41,0.48 0.25,0.46 0.12,0.32 0.27,0.66 0.17,0.4 -0.02,0.19 0.29,0.66 0.37,0.56 0,0.21 0.47,0.48 1.59,-0.2 0.76,-2.36 1.01,-3.88 0.33,-2.03 1.61,-1.96 3.29,-3.24 3.16,-2.42 -0.71,-6.09 -1.65,-9.44 1.2,-1.03 10.27,-5.86 11.84,-6.08 0.68,0.71 2.83,4.93 3.13,5.97 -3.76,3.22 -5.86,1.47 -8.51,7.84 -2.5,6.02 0.04,7.04 1.97,12.14 4.64,4.74 0.41,5.68 12.23,0.18 7.4,-3.44 2.4,-3.76 1.8,-9.74 -0.25,-2.52 5.95,-1.74 7.88,-6.22 3.29,-7.66 0.27,-10.35 -3.92,-18.98 -2.38,-4.91 -4.01,-3.23 -6.73,-5.26z"/>
   <path class="fil2" d="M12.22 34.43c2.82,3.55 -2.66,7.16 -5.06,4.06 -2.66,-3.43 2.37,-7.44 5.06,-4.06zm19.34 52.68l1 0.34c-0.57,-1.53 -0.73,-2.47 0.02,-3.67 0.88,-1.41 2.06,-1.4 3.61,-1.71 0.5,-3.73 1.76,-8.9 2.96,-12.61 1.17,-3.62 2.64,-9.31 4.46,-11.98 -1.93,-5.1 -4.47,-6.12 -1.97,-12.14 2.65,-6.37 4.75,-4.62 8.51,-7.84 -0.3,-1.03 -2.45,-5.25 -3.13,-5.97 -1.57,0.23 -10.65,5.05 -11.84,6.08 0.94,3.35 4.82,7.01 1.65,9.44 -1.68,1.29 -2.96,1.21 -3.29,3.24 -0.25,1.52 0.58,3.68 -1.01,3.88 -0.47,-0.27 -0.1,0.09 -0.47,-0.48 -0.31,-0.47 -0.12,-0.26 -0.29,-0.66 -0.15,-0.34 -0.02,-0.2 -0.27,-0.66 -0.48,-0.88 -0.03,-0.21 -0.41,-0.48 -1.34,0.06 -1.05,0.82 -0.92,1.98 0.1,0.91 0.15,1.63 0.24,2.58 0.09,1.03 0.19,1.84 0.29,2.77 0.14,1.23 0.44,1.68 -0.35,2.4 -0.76,-0.49 -0.73,-1.3 -0.98,-2.35l-1.39 -7.04c-1.03,0.38 -2.53,1.08 -3.44,0.93 -1.76,-0.49 -6.85,-9.69 -6.49,-13.79 0.14,-1.64 1.06,-4.67 1.59,-6.02 0.95,-2.4 2.51,-3.04 5.43,-4.5l22.94 -10.82c4.98,-2.34 3.94,-0.64 6.88,-0.59l2.72 -5.01c-1.07,-1.45 -2.5,-2.25 -1.62,-4.4 0.65,-1.59 2.03,-1.93 3.8,-2.43 0.12,-0.71 -0.27,-1.17 0.17,-1.77 -0.06,0 -53.02,27.7 -56.58,30.08 1.63,4.09 27.31,52.37 28.2,53.18z"/>
   <path class="fil1" d="M59.94 3.84c0.87,0.09 0.56,-0.16 1.31,0.88 0.37,0.52 0.71,1.18 1.01,1.72l21.53 39.17c1.93,3.51 6.63,11.44 7.61,14.86 -1.94,0.91 -3.53,1.84 -5.37,2.74 -1.82,0.9 -3.76,1.45 -4.46,3.1 -1.27,2.95 0.03,7.88 -0.8,9.32 -1.16,-0.8 -2.31,-3.28 -4.05,-1.74 -1.83,1.61 -0.97,7.67 -1,10.07 -0.02,1.99 0.27,3.97 -2.19,4.37 -2.02,-3.69 -1.36,-9.04 -3.21,-12.69 -2.27,-4.47 -7.83,-0.44 -11.49,1.56 -3.95,2.16 -22.54,12.59 -25.46,13.1l-1.79 -3.21c-0.89,-0.81 -26.57,-49.09 -28.2,-53.18 3.56,-2.38 56.52,-30.08 56.58,-30.08zm35.58 57.55c0.19,-0.97 -22.34,-41.55 -24.73,-45.75 -2.15,-3.8 -4.23,-7.56 -6.37,-11.31 -2.99,-5.22 -2.25,-5.76 -10.02,-1.39 -15.07,8.47 -31.07,16.44 -46.36,24.7 -7.04,3.81 -9.14,4.03 -7.54,7.84 1.98,4.7 9.32,17.54 12.32,23.23 2.89,5.48 2.48,6.42 3.05,11.78l1.88 16.92c0.16,1.51 -0.03,4.59 1.27,5.36 0.86,-0.56 0.44,-1.62 0.34,-2.66 -0.09,-1.04 -0.18,-1.95 -0.29,-2.96 -0.47,-4.28 -1.28,-10.54 -1.31,-14.79 -0.01,-1.2 -0.24,-1.73 0.69,-2.38 0.67,1.28 0.68,3.26 1.31,4.23 0.7,1.1 0.75,-0.05 1.11,1.63 0.29,1.38 0.27,8.2 1.39,9.77 2.23,-0.39 0.3,-3.89 0.91,-6.49l0.58 0.35c0.04,0.03 0.09,0.09 0.12,0.13 0.19,0.21 0.37,0.56 0.54,0.87l3.31 6.45c1.29,2.65 2.69,5.33 4.38,7.37 5.89,-1.38 19.77,-11.15 26.77,-13.2 0.38,1.24 0.56,4.25 0.67,5.6 0.1,1.2 0.25,4.61 0.51,5.26 1.41,-0.54 1.33,-1.37 1.17,-2.68 -0.54,-4.5 -1.87,-7.68 1.48,-8.75l0.65 4.58c2.58,-1.37 0.64,-1.53 1.65,-3.65 0.43,-0.91 1.87,-2.67 3.03,-3.23 1.44,3.72 0.43,13.67 6.03,13.43 5.5,-0.23 4.42,-7.69 4.62,-8.57 0.13,-0.6 0.31,-0.84 0.29,-1.8 -0.01,-0.61 -0.15,-1.02 -0.06,-1.65 1.1,-0.19 4.27,1.27 4.68,-3.35 0.76,-8.6 -1.26,-7.62 5.26,-10.98 1.55,-0.8 6.02,-2.69 6.66,-3.89z"/>
   <path class="fil1" d="M54.7 75.2c2.17,-1.11 -0.82,-2.28 2.78,-4.72 5.71,-3.85 9.06,-3.08 6.37,-9.25 -0.47,-1.08 -1.06,-2.21 -1.76,-3.15 -0.83,-1.11 -1.28,-1.41 -2.68,-1.01 -1.84,0.53 -5.16,2.3 -6.94,3.23 -2.36,1.24 -4.18,2 -4.24,4.19 -0.06,2.04 1.63,4.72 3.01,6.07 0.72,0.71 2.01,1.41 2.34,1.8 0.79,0.92 0.17,1.93 1.11,2.83z"/>
   <path class="fil1" d="M36.18 82.06c-1.55,0.31 -2.72,0.31 -3.61,1.71 -0.75,1.2 -0.59,2.14 -0.02,3.67 1.53,1.91 3.91,2.05 5.52,-0.16 1.93,-2.64 -1.02,-4.13 -1.9,-5.22z"/>
   <path class="fil1" d="M12.22 34.43c-2.69,-3.38 -7.72,0.62 -5.06,4.06 2.4,3.1 7.88,-0.51 5.06,-4.06z"/>
   <path class="fil1" d="M87.74 56.36c-3.16,-2.81 -7.4,1.88 -3.93,5.02 2.82,2.55 7.39,-1.94 3.93,-5.02z"/>
   <path class="fil1" d="M59.77 5.61c-1.76,0.5 -3.15,0.84 -3.8,2.43 -0.88,2.15 0.55,2.95 1.62,4.4 2.19,0.11 3.71,-0.46 4.35,-2.42 0.69,-2.13 -0.91,-3.22 -2.16,-4.41z"/>
  </g>
 </g>
</svg>
