<?xml version="1.0" encoding="UTF-8"?>
<!DOCTYPE svg PUBLIC "-//W3C//DTD SVG 1.1//EN" "http://www.w3.org/Graphics/SVG/1.1/DTD/svg11.dtd">
<!-- Creator: CorelDRAW -->
<svg xmlns="http://www.w3.org/2000/svg" xml:space="preserve" width="44.2038mm" height="80.6461mm" version="1.1" style="shape-rendering:geometricPrecision; text-rendering:geometricPrecision; image-rendering:optimizeQuality; fill-rule:evenodd; clip-rule:evenodd"
viewBox="0 0 51.41 93.8"
 xmlns:xlink="http://www.w3.org/1999/xlink"
 xmlns:xodm="http://www.corel.com/coreldraw/odm/2003">
 <defs>
  <style type="text/css">
   <![CDATA[
    .fil0 {fill:black}
    .fil5 {fill:blue}
    .fil2 {fill:#C80609}
    .fil7 {fill:#CCCCCC}
    .fil8 {fill:#D4C3A6}
    .fil9 {fill:#DCCBAD}
    .fil1 {fill:#F2EFE8}
    .fil3 {fill:#F3BC7D}
    .fil4 {fill:#F9FC02}
    .fil6 {fill:white}
   ]]>
  </style>
 </defs>
 <g id="Camada_x0020_1">
  <metadata id="CorelCorpID_0Corel-Layer"/>
  <g id="_2015303062608">
   <path class="fil0" d="M44.15 10.4c0.23,-0.53 0.6,-0.45 0.14,-1.21 -3.01,-4.88 -5.86,-6.45 -10.96,-7.76 -0.98,-0.25 -1.95,-0.27 -2.96,-0.47 -0.87,-0.17 -1.75,-0.59 -2.6,-0.75 -2.34,-0.44 -3.9,-0.13 -6.08,0.27 -0.97,0.18 -2.09,0.19 -3.11,0.32 -2.15,0.27 -5.71,1.37 -7.24,2.9 -5.59,5.58 -3.03,4.86 -3.92,6.17 -1.34,1.98 -1.82,4.85 -3.07,5.49 -1.58,0.8 -1.35,1.32 -1.23,3.72 0.31,8.27 0.19,4.87 -1.88,8 -1.91,2.89 -1.5,7.6 0.54,10.59 0.81,1.19 1.74,1.67 3.13,2.02 1.27,0.32 0.99,0.96 2.47,0.51 0.68,-0.21 1.05,0.07 1.55,-0.04 0.68,-0.14 1.72,-1.16 2.19,-1.17 0.28,0.29 0.55,0.76 0.81,1.09 1.2,1.53 1.9,1.71 2.98,2.71 -0.21,0.63 -4.35,2.49 -7.19,10.38 -0.34,0.94 -0.33,0.97 -0.34,2.1l-0.31 0.08c-0.64,2.7 -0.8,3.96 -1.14,6.75 -0.1,0.78 -0.09,0.97 -0.57,1.38 -1.86,1.65 -0.74,3.97 0.92,5.13 0.66,0.46 0.6,0.25 0.96,1 1.76,3.69 2.01,3.34 6.02,5.71 -0.63,0.84 -1.63,2.46 -1.82,3.48 -0.11,0.61 -0.25,0.45 -0.55,0.92 -1.14,1.8 -2.55,1.57 -4.13,4.18 -0.46,0.76 -0.76,0.94 -0.9,2.09 -0.1,0.82 -0.68,4.65 0.27,5.16 0.35,0.18 0.67,0.31 1.02,0.5 1.07,0.57 1.64,1.31 3.02,1.48 1.78,0.22 3.88,0.34 5.7,0.3 1.87,-0.05 7.2,-0.79 8.92,-1.58 0.39,-0.18 0.59,-0.4 1.05,-0.18 2.41,1.13 7.19,1.88 9.95,2.09 2.47,0.19 8.2,-0.21 9.32,-2.66 0.71,-1.56 0.22,-3.06 0.03,-5.29 -0.13,-1.58 -1.72,-3.68 -2.91,-4.57 -3.58,-2.69 -1.84,-1.72 -3.22,-4.25l-1.12 -1.86c2.08,-1.11 3.18,-0.11 5.83,-5.4 0.19,-0.39 0.25,-0.75 0.58,-1.01 1.01,-0.78 2.64,-1.64 2.39,-3.98 -0.12,-1.15 -0.91,-1.28 -1.28,-1.88 -0.11,-0.17 -0.28,-2.42 -0.33,-2.84 -0.83,-6.82 -2.78,-12.48 -8.45,-17.03 0.13,-0.2 1.79,-1.38 2.15,-1.71 0.81,-0.75 1.15,-1.41 1.78,-2.07 0.22,0.09 0.3,0.21 0.44,0.35 1.2,1.18 2.23,0.67 3,0.8 0.54,0.09 0.67,0.38 1.3,0.15 0.47,-0.17 0.51,-0.34 1.11,-0.47 4.72,-0.97 5.87,-8.31 4.43,-11.65 -1.01,-2.33 -2.55,-2.13 -2.42,-3.92 0.09,-1.23 0.45,-4.98 0.22,-5.99 -0.24,-1.07 0.35,-1.65 -0.9,-2.28 -1.48,-0.74 -1.66,-2.13 -2.49,-3.78l-1.09 -2.03z"/>
   <path class="fil1" d="M40.6 23.77c0.02,0.31 0.05,0.72 -0.03,0.98 -0.25,0.11 -7.88,-0.05 -9.29,-0.06 -0.53,-0 -1.06,0 -1.59,-0.01 -0.64,-0.01 -0.7,-0.22 -0.88,-0.74 -0.15,-0.45 -0.18,-0.45 0.94,-0.44l4.76 0.03c2.01,0.04 4.18,-0.09 6.08,0.24zm-0.29 41.36c-0.18,0.79 -0.32,1.65 -0.57,2.34 -0.06,0.17 -0.14,0.3 -0.21,0.5 -0.07,0.21 -0.1,0.41 -0.17,0.6 -0.12,0.32 -0.32,0.65 -0.48,0.97 -0.33,0.63 -0.69,1.27 -1.12,1.79 -0.24,0.29 -0.44,0.54 -0.67,0.79 -0.17,0.19 -0.63,0.59 -0.62,0.81 1.24,0.34 3.18,-0.77 4.01,-1.86 0.36,-0.47 0.81,-1.26 1.09,-1.89 0.83,-1.85 0.18,-0.71 -0.77,-1.41 -0.32,-0.24 -0.38,-0.72 -0.06,-1 0.41,-0.37 1.66,0.26 2.65,-0.15 0.52,-0.21 0.5,-0.29 0.81,-0.71 0.33,-0.45 0.25,-0.86 -0.03,-1.01 -0.28,-0.15 -0.94,0.11 -1.23,0.19 -1.53,0.43 -1.96,0.03 -2.63,0.03zm-3.26 25.35l0.01 0.31c-0.25,0.1 -0.47,0.06 -0.77,0.04 -0.27,-0.01 -0.59,0.03 -0.64,-0.18 -0.13,-0.48 1.23,-0.24 1.41,-0.18zm0.54 0.08c0.4,-0.22 0.89,-0.32 1.4,-0.15l-0.03 0.26c-0.55,0.05 -0.82,0.13 -1.42,0.07l0.05 -0.18zm1.67 -0.56c-0.39,0.01 -0.81,0.08 -1.19,0.11 -0.28,0.02 -0.87,-0.01 -1.05,0.15 -1,-0.18 -2.32,-0.08 -3.39,-0.22l-2.32 -0.34c-0.24,-0.08 -0.48,-0.18 -0.7,-0.21l0.71 0.32 -0.09 0.41c-0.49,0.05 -1.02,-0.23 -1.27,-0.44l0.14 -0.39 -1.66 -0.65c-0.3,-0.04 -0.67,-0.11 -0.89,-0.23 -0.29,-0.16 -0.38,-0.32 -0.85,-0.36 0.1,0.22 0.72,0.05 1.02,0.89 -0.44,-0.05 -1.05,-0.23 -1.36,-0.44l0.09 -0.54c-0.21,-0.05 -0.16,-0.09 -0.37,-0.02 -0.15,0.34 -0.1,0.98 -0.05,1.4 0.71,0.23 1.27,0.52 2.02,0.72 0.74,0.19 1.47,0.38 2.23,0.57 1.51,0.38 3.05,0.78 4.7,0.88 2.86,0.19 5.73,-0.14 8.33,-1.31 0.39,-0.18 0.41,-0.47 0.42,-0.98 -0.52,-0.06 -0.68,-0.28 -1.11,-0.15 -0.82,0.24 -2.47,0.8 -3.34,0.81zm-5.42 0.33l1.25 0.08 0.05 0.36c-0.29,0.06 -1.16,0.02 -1.41,-0.06 -0.02,-0.23 0.01,-0.17 0.11,-0.38zm-1.85 -0.39l1.14 0.24 -0.01 0.45c-0.48,0.07 -1.02,-0.12 -1.46,-0.21l0.32 -0.47zm7.54 0.55c-0,-0.41 0.26,-0.35 0.66,-0.46 0.34,-0.09 0.71,-0.2 0.81,0.21 -0.24,0.17 -1.21,0.28 -1.47,0.25zm1.78 -0.63c0.15,-0.21 1.17,-0.54 1.51,-0.38 0,0.3 0.03,0.17 -0.73,0.47 -0.34,0.14 -0.58,0.25 -0.77,-0.09zm-12.89 -0.99c0.18,0.08 0.37,0.2 0.56,0.3 0.22,0.12 0.42,0.15 0.54,0.4 -0.55,0.14 -0.91,-0.11 -1.43,-0.28 0.05,-0.24 0.16,-0.32 0.33,-0.43zm-12.42 2c-0.02,-0.43 0.09,-0.32 0.56,-0.36 0.27,-0.03 0.51,-0.09 0.8,-0.04l-0.01 0.32 -1.34 0.09zm-2.52 -0.09c-0.25,0.11 -0.45,0.05 -0.73,0.02l-0.5 -0.06c-0.26,-0.06 -0.07,-0.01 -0.17,-0.06l0.22 -0.33c0.27,0 0.45,0.09 0.76,0.11 0.28,0.02 0.42,0.01 0.41,0.32zm-3.34 -0.41c0.18,-0.34 0.33,-0.38 0.8,-0.28 0.35,0.08 0.67,0.1 0.58,0.5 -0.44,0.06 -1.07,-0 -1.38,-0.22zm-1.2 -0.63c0.62,0.24 0.56,0.08 0.71,0.32 -0.04,0.19 -0.03,0.25 -0.32,0.24 -0.23,-0.01 -1.03,-0.36 -1.07,-0.46 -0.16,-0.4 0.53,-0.15 0.68,-0.1zm12.61 -0.06c0.16,-0.33 1.05,-0.75 1.31,-0.76l0.12 0.4c-0.21,0.07 -0.44,0.18 -0.69,0.26 -0.28,0.1 -0.53,0.22 -0.74,0.1zm2.79 -1.43c0.55,-0.14 0.41,0.39 0.19,0.52 -0.15,0.09 -0.31,0.07 -0.49,0.09 -0.33,0.04 -0.18,0.06 -0.38,0.13 -0.52,0.18 -0.46,-0.46 0.68,-0.74zm-8.31 2.04c-0.22,0.18 -0.35,0.06 -0.55,0.16 -0.25,0.12 -0.13,0.2 -0.08,0.49 -1.78,-0.05 -0.89,-0.01 -1.4,-0.36l-0.42 -0.23c-0.47,0 -1.21,-0.05 -1.67,-0.14 -0.59,-0.12 -0.84,-0.24 -1.51,-0.28 -0.58,-0.03 -0.97,-0.18 -1.49,-0.33 -1.55,-0.44 -0.67,0.05 -1.58,-0.15l0.07 0.83c0.36,0.28 1.54,0.61 2.09,0.76 0.83,0.23 1.61,0.26 2.5,0.34 0.89,0.08 1.57,0.29 2.54,0.31 2.57,0.05 4.95,-0.57 7.4,-1.15 0.4,-0.09 2.99,-0.87 3.13,-1.18 0.12,-0.25 0.1,-1.06 -0.01,-1.26 -0.11,-0.14 -0.17,-0.13 -0.56,-0.01 -0.18,0.05 -0.33,0.11 -0.52,0.18 -0.36,0.14 -0.62,0.28 -0.96,0.43 -0.66,0.28 -1.31,0.49 -1.96,0.78l-0 0.49c-0,-0.01 -0.01,0.04 -0.01,0.05 -0.2,0.07 -1.01,0.27 -1.21,0.2 -0.03,-0.52 0.71,-0.38 1.07,-0.61 -0.24,-0.16 -1.71,0.34 -1.92,0.44 0.08,0.16 0.23,0.22 0.38,0.31 -0.07,0.07 -0.03,0.09 -0.31,0.15l-1.01 0.15c-0.23,-0.09 -0.14,-0.4 0.06,-0.45 0.29,-0.08 0.37,0.1 0.67,-0.16 -0.33,-0.15 -2.14,0.29 -2.72,0.23zm4.18 -1.5c0.4,-0.06 1.34,-0.45 1.69,-0.61 0.53,-0.24 1.22,-0.37 1.23,-1.03 -0.64,-0.01 -0.78,0.57 -1.63,-0.14 -0.6,-0.5 -1.16,-0.85 -1.43,-1.89 -0.07,-0.29 -0.37,-2.72 0.04,-2.91 0.36,-0.02 0.36,0.15 0.59,0.39 1.06,1.13 1.82,0.91 1.71,0.18 -0.06,-0.42 -1.03,-2.71 -1.36,-2.86 -0.22,0.32 -0.07,1.02 -1.02,1.75 -0.34,0.26 -0.47,0.26 -0.59,0.8 -0.13,0.57 0.04,0.74 0.24,1.15 0.12,0.26 0.1,0.27 0.14,0.58 0.03,0.26 0.21,0.87 0.32,1.82 0.11,0.95 0,1.84 0.07,2.75zm8.64 -1.52c-0.41,-0 -0.57,-0.1 -0.87,-0.22l-0 0.53c0.4,0.31 2.21,0.99 2.89,1.05 -0.07,-0.65 -0.05,-1.15 -0.02,-1.8 0.03,-0.55 0.18,-1.14 0.18,-1.65 -0.31,0.29 -0.49,0.95 -0.84,1.27 -0.19,0.18 -0.41,0.29 -0.62,0.46 -0.27,0.22 -0.21,0.37 -0.71,0.37zm2.68 -5.11c-0.01,-0.01 -0.03,-0.03 -0.04,-0.04l-0.41 -0.61c-0.22,-0.09 -0.46,-0.41 -0.63,-0.65 -0.37,-0.51 -0.17,-0.49 -0.39,-0.94 -0.23,0.04 -0.16,0.01 -0.31,0.26 -0.09,0.15 -0.15,0.25 -0.23,0.4 -0.27,0.52 -1.22,2.37 -0.67,2.71 0.37,0.23 1.32,-0.41 1.64,-0.92 0.12,-0.21 0.23,-0.33 0.57,-0.27 0.23,0.37 0.12,1.01 0.15,1.5 0.19,-0.07 0.14,-0.04 0.24,-0.27 0.43,-0.97 0.39,-0.56 0.09,-1.18zm-22.3 -13.86c-0.1,0.34 0.47,1.52 0.67,1.84 1.05,1.67 2.34,3.19 4.87,2.93 -0,-0.34 -0.78,-1.04 -1.25,-1.61 -0.78,-0.96 -1.6,-2.51 -1.97,-3.73 -0.12,-0.4 -0.24,-0.69 -0.36,-1.04 -0.12,-0.36 -0.14,-0.98 -0.24,-1.22 -0.38,-0.16 -0.87,0.11 -1.39,0.13 -0.57,0.02 -0.98,-0.1 -1.49,-0.24 -0.33,-0.09 -1.25,-0.39 -1.39,0.01 -0.17,0.47 0.33,1.52 1.63,1.64 0.67,0.06 1,-0.09 1.57,-0.12 0.3,-0.02 0.51,0.02 0.63,0.23 0.12,0.21 0.12,0.56 0.01,0.76 -0.2,0.34 -0.83,0.35 -1.3,0.42zm1.84 -44.83c0.78,-0.11 5.46,-0.1 6.55,-0.1 1.12,0 2.24,0.02 3.36,0.03 0.56,0 1.05,0.04 1.59,0.05 0.32,0.01 0.52,-0.04 0.49,0.27 -0.01,0.09 -0.2,0.62 -0.24,0.67 -0.29,0.44 -2.41,0.19 -2.99,0.18 -1.12,-0.01 -2.24,-0.02 -3.36,-0.02 -1.65,0.01 -3.24,0.11 -4.95,0.09 -0.36,-0 -0.4,-0.04 -0.43,-0.38 -0.01,-0.22 -0.05,-0.59 -0.03,-0.78zm29.47 -1.66c0.32,1.17 -0.18,1.08 -0.59,1.07l-11.17 -0.12c-0.35,-0 -0.46,0.02 -0.6,-0.26 -0.54,-1.1 -0.01,-0.88 2.13,-0.86 1.16,0.01 2.32,0.03 3.49,0.04 0.93,0 6.3,-0.03 6.75,0.13zm-29.36 0.7l-0.01 -0.96c1.11,-0.13 8.3,-0.08 9.81,-0.03 0.55,0.02 1.1,0.02 1.65,0.03 0.94,0.01 1.32,-0.12 1.08,0.46 -0.37,0.89 -0.34,0.64 -2.66,0.62 -2.05,-0.02 -4.64,-0.1 -6.6,-0.05 -1.03,0.02 -2.29,0.12 -3.27,-0.07zm12.92 -1.82c-0.88,0.13 -7.81,-0.08 -9.52,-0.04 -1,0.02 -2.15,0.13 -3.14,0 -0.21,-0.6 0.11,-1.04 0.61,-1.09 1.1,-0.11 4.11,-0.07 5.23,-0.05 0.97,0.02 6.57,-0.03 7,0.1 0.15,0.53 0.02,0.7 -0.19,1.07zm3.46 -0.91c0.67,-0.24 9.97,-0.03 12.01,0.06 0.35,0.02 0.52,-0.01 0.66,0.26 0.1,0.2 0.15,0.51 0.09,0.77 -0.56,0.15 -8.66,-0.03 -10.39,-0.05 -0.56,-0.01 -1.09,-0.03 -1.65,-0.03 -0.35,0 -0.58,0.09 -0.68,-0.26 -0.05,-0.15 -0.09,-0.56 -0.04,-0.76zm0.27 -0.91c-0.19,-1.4 1.41,-1.05 2.36,-1.05 1.12,0 2.19,-0.09 3.3,-0.1 1.16,-0.01 2.33,0.01 3.49,0 0.69,-0 0.89,-0.01 1.43,0.28 0.38,0.2 0.89,0.42 0.77,0.92 -0.27,0.09 -4.92,-0 -5.62,-0.01 -0.87,-0.01 -5.31,0.03 -5.72,-0.04zm-5.69 -0.11c-2.08,0 -4.22,-0.11 -6.28,-0.06 -0.33,0.01 -3.01,0.07 -3.08,0.05 -0.49,-0.17 0.33,-0.73 0.44,-0.82 0.46,-0.34 0.63,-0.3 1.24,-0.32 2.12,-0.07 4.16,0.12 6.28,0.06 0.53,-0.02 1.06,-0.03 1.59,-0.03 0.66,-0 0.89,-0.11 1.33,0.27 0.12,0.1 0.72,0.8 0.19,0.86l-1.71 0.01zm-12.8 1.94c-0.01,0.48 0.17,0.07 0.03,0.54 -0.11,0.35 -0,0.28 -0.01,0.63 -0.01,0.8 0.33,0.9 0.49,1.04 0.6,0.53 0.37,1.64 0.6,2.5 0.26,0.96 0.46,1.51 0.96,2.15 0.28,0.35 1.12,1.36 1.84,1.25l0.11 -0.37c-0.39,-0.37 -0.73,-0.33 -0.97,-0.83 0.22,-0.58 0.8,-0.2 1.83,-0.29 0.61,-0.06 0.86,-0.76 1.65,-0.22 0.43,0.29 1.17,0.19 1.96,0.19 0.45,0 1.87,-0.11 2.15,0.08 0.17,0.26 -0.04,0.49 -0.31,0.61 -1.45,0.66 -0.98,0.44 -2.69,0.56 0.05,0.22 0.66,0.61 1.04,0.59 0.4,-0.01 1.08,-0.18 1.44,-0.33 0.6,-0.25 0.46,-0.46 0.71,-1.07 0.2,-0.49 0.53,-0.76 0.61,-1.22 -1.67,0.12 -3.57,-0.01 -5.29,0.04 -0.6,0.02 -3.33,0.14 -3.84,-0.05 -0.24,-0.09 -0.44,-0.61 -0.29,-0.91 0.17,-0.31 0.52,-0.23 0.96,-0.23l3.62 -0.02c1.63,-0.02 3.25,0.02 4.88,0.04 1.4,0.01 0.73,0.3 1.91,-0.28 0.28,-0.14 0.56,-0.28 0.67,-0.53l0.37 -0.84c0.31,-0.97 0.94,-2.83 2.05,-2.87 1.36,-0.05 1.79,1.62 2.2,2.66 0.1,0.25 0.63,1.52 0.79,1.61 0.09,0.05 0.3,0.11 0.41,0.16 0.89,0.4 -0.08,0.18 1.54,0.19 1.61,0.01 3.22,0.02 4.82,0.05 0.54,0.01 4.61,-0.03 4.76,0.12 0.22,0.39 -0.06,0.86 -0.18,1.16l-4.52 -0.1c-1.55,-0.01 -3.12,-0.04 -4.67,-0.02 0.09,0.33 0.34,0.56 0.61,1.19 0.27,0.64 0.12,0.68 0.75,0.96 0.37,0.17 0.89,0.33 1.31,0.4 0.38,0.07 0.43,0.05 0.68,-0.16 0.15,-0.13 0.35,-0.24 0.43,-0.46 -1.65,-0.08 -0.88,0.3 -2.51,-0.53 -0.34,-0.17 -0.48,-0.19 -0.48,-0.63 0.59,-0.08 1.41,-0.04 2.05,-0.04 0.61,0 1.49,0.13 1.94,-0.16 0.71,-0.46 0.91,-0.07 1.54,0.12 0.57,0.17 1.98,-0.03 2,0.21 0.02,0.2 0.19,0.35 -0.41,0.72 -0.27,0.17 -0.73,0.26 -0.44,0.58 0.38,0.33 2.33,-0.89 2.73,-3.06 0.11,-0.62 0.18,-2.1 0.54,-2.44 0.48,-0.45 0.58,-0.28 0.63,-0.84 0.05,-0.6 0.08,-0.85 0.04,-1.48 -1.06,-0.3 -0.99,-0.19 -1.35,-1.23 -1.24,-3.68 -6.57,-3.34 -9.96,-3.09 -1.8,0.14 -3.3,0.19 -5.12,0.19 -1.71,0 -3.24,-0.28 -4.95,-0.31 -2.92,-0.06 -6.7,-0.64 -9.09,1.33 -0.46,0.38 -0.86,0.81 -1.12,1.54 -0.36,0.99 -0.41,0.94 -1.44,1.22z"/>
   <path class="fil2" d="M8.61 19.94c0.23,-0.01 0.19,-0.12 0.4,-0.24 0.17,-0.1 0.33,-0.11 0.5,-0.19 0.33,-0.17 0.25,-0.59 0.51,-0.96 0.39,-0.56 0.94,-0.98 1.46,-1.46 0.88,-1 1.53,-2.84 2.47,-4.09 0.89,-1.2 2.15,-2.53 3.36,-3.41 0.45,-0.32 0.76,-0.61 1.25,-0.92l0.3 -0.17c0.32,-0.18 0.66,-0.28 0.99,-0.47 0.09,-1.23 -0.49,-1.65 0.34,-3.34 0.14,-0.29 0.39,-0.61 0.38,-0.94 -0.85,0.07 -2.01,1.12 -2.79,1.62 -3.46,2.27 -6.98,7.39 -8.49,11.22l-0.15 0.39c-0.16,0.43 -0.31,0.92 -0.39,1.37 -0.05,0.29 -0.16,1.33 -0.13,1.6zm34.29 43.6c0.07,-1.81 -0.62,-6.43 -1.14,-8.23 -0.58,-1.97 -1.45,-4.37 -2.58,-6.1 -0.65,-1 -2.29,-3.21 -3.34,-3.63 0.03,0.23 0.38,0.89 0.55,1.06 0.11,0.13 1.25,2.59 1.38,2.88 1.66,3.73 2.36,6.62 2.67,10.66 0.08,0.97 0.07,2.12 0.09,3.11 0.1,1.04 1.7,0.38 2.37,0.26zm-21.78 -14.19c0.42,0.1 1.67,-0.2 2.17,-0.27 0.8,-0.11 1.64,-0.12 2.48,-0.12 3.57,0 3.27,0.43 4.72,0.52l-0.46 -2.38c-0.15,-0.5 -0.46,-1.69 -0.69,-2.09 -1.16,-0.12 -2.59,0.63 -6.02,0.13 -0.93,-0.14 -1.11,-0.42 -1.66,1.54 -0.09,0.31 -0.57,2.56 -0.54,2.67zm-12.82 13.36l0.02 1.25c0.16,0.03 1.4,0.11 1.53,0.1 1.08,-0.16 0.92,-0.78 0.91,-1.76 -0.04,-3.22 0.72,-7.42 1.99,-10.4 0.9,-2.12 2.06,-4.14 3,-6.23 0.12,-0.26 -0.03,-0.13 -0.21,-0.02 -1.55,0.91 -3.44,3.88 -4.29,5.46 -1.63,3.03 -2.28,5.96 -2.77,9.34 -0.11,0.77 -0.18,1.48 -0.18,2.25zm1.89 21.05c-0.58,0.14 -0.51,0.2 -0.83,0.53 -0.17,0.18 -0.66,0.41 -0.71,0.7 -0.08,0.46 1.16,0.98 1.65,1.12 1.26,0.35 3.8,0.39 5.13,0.36 0.78,-0.02 1.39,0.32 1.49,-1.24 0.03,-0.58 -0.1,-0.48 -0.68,-0.49 -0.97,-0.01 -1.53,-0.11 -2.43,-0.43 -1.02,-0.36 -2.55,-0.77 -3.62,-0.53zm5.89 -6.15l0.27 0.18 0 0.47 -0.72 -0.04c0.08,0.27 0.31,0.27 0.57,0.34 0.31,0.08 0.42,0.2 0.68,0.25 0.15,-0.18 0.88,-2.1 0.87,-2.45 -0.42,-0.27 -0.88,-0.24 -1.07,0.17 -0.33,0.69 -0.48,0.62 -0.61,1.09zm-1.23 -1.46c-0.17,0.49 -0.12,0.72 -0.22,1.22 -0.1,0.5 -0.4,0.58 -0.57,0.88 0.15,0.13 0.4,0.15 0.61,0.14 0.32,-0.47 0.02,-0.48 0.65,-1.45 0.16,-0.24 0.21,-0.45 0.46,-0.55 0.3,-0.12 0.63,-0.02 0.77,-0.27 -0.35,-0.04 -0.51,0.05 -0.8,0.07 -0.36,0.03 -0.5,-0.09 -0.9,-0.04zm19.59 2.02c0.16,-0.18 0.08,-0.34 0.1,-0.62 0.04,-0.45 0.17,-0.12 0.37,-1.02 0.05,-0.24 0.15,-0.37 0.21,-0.58 -0.42,0 -0.71,0.07 -1.05,0.18 -0.36,0.11 -0.6,0.17 -0.51,0.61 0.08,0.39 0.5,1.72 0.89,1.43zm1.04 -0.93c0.31,0.16 0.79,0.01 0.61,0.61 -0.53,0.09 -0.81,-0.27 -1,0.15 0.21,0.17 0.63,0.07 0.89,0.07 0.76,0 0.74,0.09 0.4,-1.72 -0.12,-0.62 -0.41,-0.54 -0.53,-0.01 -0.22,0.98 -0.34,0.32 -0.37,0.9zm-1.16 8.74c0.32,0.34 1.34,0.33 1.79,0.35 1.53,0.06 4.13,-0.33 5.58,-0.85l0.01 -0.51 0.69 -0.18c0.02,-0.39 -0.36,-0.82 -0.55,-1.04 -0.29,-0.36 -0.52,-0.44 -1.1,-0.46 -0.72,-0.02 -1.28,-0.02 -1.93,0.32 -0.59,0.31 -1.64,0.52 -2.3,0.6 -0.37,0.04 -0.72,0.08 -1.08,0.14 -0.91,0.15 -1.29,-0.17 -1.36,0.25 -0.01,0.05 0.24,1.34 0.26,1.39zm-5.12 -0.69c-0.18,0.19 -0.13,0.05 -0.3,0.28 -0.12,0.17 -0.12,0.26 -0.31,0.33 -0.33,0.12 -0.8,-0.26 -0.88,0.22 -0.06,0.4 0.02,0.23 0.64,0.57 0.4,0.22 0.74,0.07 0.91,-0.26 0.02,-0.5 -0.19,-0.25 -0.17,-0.6 0.34,-0.11 0.58,0.29 0.95,0.19 0.32,-0.09 0.22,-0.52 0.47,-0.85 0.22,-0.3 0.44,-1.84 0.24,-2.26 -0.29,0.02 -0.58,0.32 -0.77,0.46 -0.09,0.06 -1.31,0.39 -1.37,1.18 -0.03,0.39 0.37,0.37 0.57,0.75zm-0.76 -2c-0.53,-0 -0.52,0.6 -1.01,1.03 -0.54,-0.54 -0.52,-1.92 -1.1,-2.21 -0.14,2.73 1.19,4.17 1.4,3.31 0.14,-0.56 0.18,-0.32 0.42,-0.67 0.14,-0.22 0.2,-0.46 0.37,-0.71 0.19,-0.29 0.17,-0.48 -0.07,-0.74zm-4.63 1.1c-0.4,-0.07 -0.86,-1.12 -1.01,-1.25 -0.71,0.69 0.85,2.62 0.89,2.64 0.73,-0.64 1.43,-3.09 1.14,-3.58 -0.18,0.06 -0.51,0.71 -0.62,0.95 -0.2,0.43 -0.09,0.85 -0.4,1.24zm-2.54 1.78c0.19,-0.18 0.05,-0.15 0.25,-0.3 0.34,0.2 0.33,0.44 0.39,0.61 0.19,0.61 0.74,0.19 0.88,0.17 0.12,-0.02 0.19,0.04 0.39,0.04 0.08,-0.35 0.38,-0.6 0.14,-0.86 -0.28,-0.29 -0.5,0.09 -0.92,0.1 -0.22,-0.25 -0.43,-0.62 -0.66,-0.87 -0.24,-0.25 -0.78,-0.3 -0.56,-0.86 0.12,-0.15 0.51,0.04 0.65,0.08 0.02,0.48 -0.05,0.38 0.1,0.84 0.53,-0.03 0.5,-0.51 0.36,-1.05 -0.29,-0.12 -0.31,-0.07 -0.58,-0.24 -0.32,-0.2 -0.42,-0.1 -0.66,-0.22 -0.4,-0.21 -0.28,-0.87 -0.91,-0.78 -0.01,0.33 0.21,1.58 0.3,1.9 0.15,0.59 0.3,1.38 0.83,1.45zm11.09 -77.72c2.98,1.62 6.29,4.68 7.48,7.91 0.14,0.39 1.01,1.04 1.32,1.3 0.78,0.66 0.53,0.84 1.03,1.76 0.14,0.26 0.16,0.17 0.44,0.27 0.39,0.13 0.02,0.21 0.46,0.22 0.19,-0.56 -0.03,-0.85 -0.15,-1.36 -1.1,-4.33 -4.25,-8.43 -7.42,-11.49 -0.69,-0.67 -2.93,-2.37 -3.72,-2.58l0.47 1.27c0.16,0.23 0.14,0.05 0.21,0.44 0.16,0.96 -0.07,1.69 -0.11,2.25zm-14.51 3.02l1.45 -0.74c3.31,-1.49 8.13,-1.84 11.54,-0.58 0.49,0.19 1.18,0.56 1.66,0.66l-0.76 -0.54c-2.68,-1.64 -5.68,-2.45 -8.78,-1.58 -0.76,0.21 -2.08,0.42 -2.59,1.06 -0.47,0.59 -1.74,0.84 -2.53,1.72z"/>
   <path class="fil3" d="M22 13.62c0.04,0.28 0.14,0.34 0.3,0.56 0.33,0.45 0.9,1.69 0.94,1.72 0.68,0.15 4.61,0.28 5.32,0.16 0.19,-0.3 0.39,-0.72 0.57,-1.08 0.52,-1.05 0.35,-0.57 0.68,-1.02 -0.58,-0.5 -2.93,-0.75 -3.74,-0.76 -1.69,-0.03 -2.56,0.1 -4.08,0.43zm16.81 17.81c-0.13,0.4 -0.34,0.77 -0.59,1.07 -0.32,0.38 -0.49,0.44 -0.86,0.79 -0.09,0.49 0.08,0.3 -0.14,0.88 -0.11,0.28 -0.12,0.51 -0.25,0.82 -0.43,0.99 -1.38,1.63 -2.43,1.83 -0.84,0.16 -1.33,-0.11 -2,-0.1 -0.47,1.14 -1.42,2.12 -2.86,2.34 -0.75,0.11 -1.65,0.07 -2.3,-0.17 -0.69,-0.26 -1.21,-0.88 -1.57,-1.02 -0.24,0.14 -0.41,0.35 -0.7,0.55 -0.96,0.64 -2.18,0.7 -3.35,0.56 -0.7,-0.08 -1.32,-0.52 -1.74,-0.85 -0.68,-0.54 -0.87,-1.28 -1.06,-1.54 -0.24,-0.02 -1.84,0.52 -3.43,-0.56 -1.02,-0.69 -1.15,-1.49 -1.32,-3 -0.53,-0.28 -0.86,-0.62 -1.19,-1.08 -0.17,-0.24 -0.13,-0.27 -0.15,-0.61 -0.63,0.09 -0.66,1 -0.74,1.26 -0.07,0.22 -0.07,0.09 -0.07,0.37 -0.01,1.38 0.13,2.27 0.6,3.6 0.61,1.72 1.73,2.82 2.97,3.75 5.76,4.36 14.42,4.57 20.29,0.28 2.64,-1.93 3.97,-4.67 3.51,-8.03 -0.06,-0.41 -0.23,-0.91 -0.62,-1.13zm-13.76 -5.6c-1.75,0.3 -3.07,1.04 -3.63,2.6 -0.99,2.73 1.49,5.12 5.39,4.69 1.01,-0.11 2.41,-0.6 2.96,-1.17 0.7,-0.72 1.11,-2.01 0.71,-3.24 -0.6,-1.87 -2.73,-3.34 -5.42,-2.89zm-0.55 -1.36c0.5,0.07 1.01,-0.03 1.52,-0.02 0.46,0.01 1.05,0.12 1.46,0.1 -0.06,-0.24 -0.52,-1.2 -0.67,-1.5 -0.23,-0.46 -0.46,-1.12 -0.92,-1.26 -0.38,0.22 -0.6,0.8 -0.8,1.25 -0.13,0.3 -0.54,1.18 -0.59,1.43z"/>
   <path class="fil4" d="M16.78 50.91c-1.46,0.49 -2.28,2.34 -2.2,3.81 0.03,0.56 0.5,2.15 1.67,1.97 1.56,-0.25 2.4,-3.5 2.01,-4.99 -0.19,-0.74 -0.59,-1.09 -1.48,-0.79zm16.88 -0.23c-0.48,0.37 -0.52,1.15 -0.53,1.82 -0.01,1.01 0.06,1.22 0.32,2.08 0.14,0.46 0.57,1.16 0.95,1.46 0.53,0.43 1.06,0.67 1.67,0.16 0.98,-0.82 0.83,-2.46 0.39,-3.66 -0.24,-0.66 -0.55,-1.07 -0.99,-1.42 -0.31,-0.24 -1.25,-0.85 -1.8,-0.43z"/>
   <path class="fil5" d="M31.02 44.64c-0.02,0.4 0.41,1.59 0.57,2.04 0.1,0.28 -0.05,0.37 0.03,0.72 0.11,0.48 0.22,0.99 0.33,1.45 0.14,0.56 -0.08,1.03 0.43,1.28 -0.06,-0.52 -0.05,-0.47 0.36,-0.72 1.25,-0.77 2.22,-0.25 3.08,-0.16 -0.12,-0.55 -2.51,-4.79 -3.01,-5.22l-1.79 0.62zm-6.73 37.48l0.35 -0.25c-0.11,-0.41 -0.68,-0.76 -0.97,-1.28 -0.11,-0.2 -0,-0.1 -0.17,-0.24l-1.55 -0.7c-0,0.37 1.7,3.8 1.72,3.81 0.42,-0.3 0.17,-0.61 0.61,-1.34zm18.73 4c-1.33,-0.13 -4.82,2 -8.95,0.76 -1.36,-0.41 -0.5,-2.19 -0.88,-2.67 -0.21,-0.2 -0.38,-0.11 -0.61,-0.28 -0.3,-0.22 -0.14,-0.36 -0.48,-0.41 -0.4,0.76 -0.44,3.61 -0.45,4.69 -0,1.02 0.69,0.48 1.84,0.76 2.15,0.52 7.18,0.16 9.26,-0.76 0.68,-0.3 0.38,-1.86 0.25,-2.09zm-16.43 1.15c0.18,-0.04 1.3,-0.61 0.14,-1.61 -0.31,-0.27 -0.2,-0.87 -0.66,-1.1 -0.03,0.69 -0,2.23 0.52,2.71zm0.11 -5.34c0.56,1.04 0.14,-0.16 0.73,1.56 0.37,-0.04 0.35,-0.56 0.44,-0.9 0.14,-0.54 1.25,-2.47 1.33,-2.89 -0.47,0.07 -0.48,0.13 -0.82,0.35 -0.59,0.38 -0.58,-0.12 -1.14,1.2 -0.19,0.45 -0.37,0.32 -0.54,0.68zm-1.66 2.88c-0.44,-0.02 -2.48,3.22 -0.49,2.37 0.73,-0.31 0.54,-2.16 0.49,-2.37zm-7.22 1.43c-0,0.79 -1.01,1.16 -1.82,1.2 -1.57,0.07 -3.95,-0.05 -5.51,-0.32 -0.94,-0.16 -1.31,-0.57 -2.47,-0.47 -0.22,0.36 -0.45,1.23 -0.33,1.81l2.56 0.75c1.73,0.47 4.35,0.34 6.19,0.26 0.33,-0.01 2.71,-0.41 2.84,-0.52 0.21,-0.18 0.34,-3.85 -0.26,-5.1 -0.07,0.02 -1.05,0.59 -1.09,0.65 -0.24,0.29 -0.12,1.29 -0.12,1.74zm1.93 -34.81c0.25,0.68 0.18,0.2 0.13,1.65 -0.07,1.91 -1.16,4.68 -2.8,5.08 -3.19,0.78 -3.57,-1.67 -3.87,-1.8 -0.33,0.3 -2.9,11.07 2.55,15.61 2.05,1.71 0.71,0.83 0.47,2.64 -0.03,0.24 0.11,0.59 0.18,0.84 0.17,0.55 1.03,0.32 1.51,0.7 0.25,0.2 -0,0.28 0.55,0.6 0.8,0.46 0.87,1.26 4.34,2.33 0.13,0.38 0.01,0.53 0.62,0.52 0.38,-0.01 0.64,-0.19 0.87,-0.34 0.01,-0.41 0.08,-1.91 -0.04,-2.2 -0.14,-0.08 -0.84,-0.29 -1.05,-0.3 0.21,-1.26 -0.26,-1.5 1.61,-1.09 1.12,0.24 1.88,-0.13 2.67,-0.4 0.24,0.17 -0,0.06 0.5,0.38 0.04,0.38 -0.07,0.53 -0.07,0.95 -0.41,0.27 -1.2,0.3 -1.11,0.81 0.17,0.99 -0.02,1.14 0.17,1.86 0.91,0.37 2.4,-0.69 3.32,-1.26 0.53,-0.32 0.95,-0.34 1.48,-0.93 0.69,-0.77 0.86,-0.38 1.2,-0.65 0.26,-0.21 0.07,-0.21 -0,-0.37 1.73,-0.6 1.81,-0.14 1.93,-2.32 -1.43,-1.45 0.62,-0.38 3.07,-5.37 1.16,-2.37 0.53,-1.16 0.97,-3.22 0.18,-0.83 0.15,-3.73 0.03,-4.58 -0.18,-1.25 -0.06,-1.27 -0.15,-1.95l-0.55 -2.23c-0.25,0.08 -0.2,0.45 -0.82,1.01 -1.02,0.92 -1.4,0.43 -2.1,0.46 -3.45,0.14 -4.11,-5.12 -3.65,-6.52 -0.32,-0.05 -0.21,0.12 -0.66,-0.03 -2.54,-0.85 -7.2,-1.12 -9.86,-0.09 -1.43,0.55 -0.01,0.2 -1.42,0.22zm-3.98 -2.05c0.25,0.03 1.86,-0.46 3,0.17 0.34,0.19 0.33,0.5 0.65,0.54l0.46 -2.83c0.14,-0.69 0.83,-1.97 0.52,-2.69 -0.23,-0.16 -0.64,-0.2 -0.95,-0.32 -1.07,-0.43 -0.54,-0.3 -1.88,1.65 -0.23,0.34 -1.78,3.26 -1.8,3.49z"/>
   <path class="fil4" d="M17.92 78.62c0.46,0.35 1.61,-0.08 1.55,1.2 -0.05,1.06 -1.31,0.43 -2.01,0.38 0.16,0.19 0.42,0.19 0.66,0.35 0.29,0.19 0.29,0.37 0.56,0.51 -0.09,0.38 -0.48,0.95 -0.74,1.01 -0.27,0.06 -0.98,-0.3 -1.37,-0.31l-0.38 0.52c0.41,0.28 0.87,0.3 0.82,1.03 -0.35,0.72 -4.6,-0.41 -4.84,-0.25 0.56,0.23 2.1,0.77 2.65,0.86 0.99,0.15 2.4,0.17 3.16,-0.28 0.95,-0.58 0.57,-1.78 1.18,-2.43 0.36,-0.39 0.53,-0.09 0.91,-0.86 0.15,-0.31 0.29,-1.17 0.22,-1.59 -0.24,-0.08 -0.33,-0.01 -0.6,-0.13 -0.2,-0.09 -0.31,-0.17 -0.53,-0.22 -0.49,-0.11 -1,-0.07 -1.23,0.23z"/>
   <path class="fil4" d="M30.8 78.7c-0.04,0.37 -0,1.23 0.1,1.52 0.07,0.19 0.65,0.62 0.86,0.78 1.21,0.91 0.07,3.28 3.84,2.64 0.44,-0.07 0.95,-0.16 1.36,-0.29l1.18 -0.48c-0.26,-0.13 -2.98,0.61 -3.8,0.48 -0.65,-0.66 -0.02,-0.89 0.24,-1.19 0.11,-0.13 0.34,-0.63 -0.25,-0.59 -0.47,0.03 -1.22,0.46 -1.62,-0.08 -0.15,-0.2 -0.27,-0.54 -0.13,-0.81 0.23,-0.45 1.01,-0.42 1.3,-0.74 -1.21,-0.07 -1.72,0.78 -2.17,-0.11 -0.55,-1.09 1.1,-1.27 1.36,-1.41 -0.03,-0.05 0.03,-0.2 -0.52,-0.23 -0.4,-0.02 -1.51,0.32 -1.75,0.5z"/>
   <path class="fil1" d="M22.82 3.58c-0.77,0.2 -2.43,2.66 -1.79,3.95 0.12,0.24 0.85,0.01 1.06,-0.1 0.29,-0.15 0.27,-0.8 0.33,-1.2 0.12,-0.84 0.33,-1.81 0.4,-2.64zm1.36 1.12c0.42,0.19 2.39,0.11 3.05,0.05 0.39,-0.04 0.67,-0.08 0.78,-0.4 -1.07,-0.31 -1.98,-0.31 -3.1,-0.14 -0.46,0.07 -0.74,0.04 -0.73,0.49zm-0.41 2.31c0.58,-0.01 1.15,-0.05 1.74,-0.05 0.56,0 1.1,0.08 1.66,0.08 -0.01,-0.27 -0.03,-0.21 -0.15,-0.43 -0.33,-0.61 -0.06,-0.4 -1.57,-0.4 -0.38,0 -1.21,-0.11 -1.46,-0.07 -0.15,0.23 -0.2,0.58 -0.22,0.87zm4.55 -1.09c-0.07,0.37 0.3,1.03 0.46,1.08 0.72,0.25 0.34,-0.88 0.35,-0.91 0.3,-0.41 1.12,-0.65 1.4,0.04 0.1,0.25 0.13,0.71 0.06,1.01 -0.09,0.39 -0.32,0.43 -0.41,0.73l0.88 0.19c0.82,-1.25 -1.11,-3.98 -1.55,-4.05 0.31,1.52 -0.33,1.34 -1.2,1.91z"/>
   <path class="fil6" d="M6.75 38.55c0.07,-0.66 -0.36,-2.52 -0.51,-3.18 -0.24,-1.06 -0.33,-2.09 -0.59,-3.15l-0.83 -5.66c-0.02,-0.35 0.07,-0.63 -0.35,-0.55 -0.1,0.6 1.42,9.65 1.79,11.11 0.12,0.48 0.07,1.26 0.48,1.43zm39.07 -15.13c0.02,-0.12 0.07,-0.31 0.01,-0.44 -0.06,-0.12 -0.01,-0.03 -0.1,-0.1 -0.07,0.31 -0.07,0.39 0.09,0.54zm-37.75 4.94c0.14,-0.35 -0.08,-0.43 -0.13,-0.45 -0.07,0.08 -0.11,0.07 -0.09,0.24 0.02,0.21 0.06,0.17 0.22,0.21zm36.71 -2.58c0.21,0.17 0.64,0.04 0.76,-0.04 -0.15,-0.26 -0.58,-0.05 -0.76,0.04zm-36.42 3.72c-0.04,-0.24 -0.04,-0.41 -0.22,-0.55 -0.34,0.19 -0.29,0.55 0.22,0.55zm-0.24 0.94c0.23,0.02 0.36,0.22 0.44,-0.56 -0.31,0.09 -0.44,0.19 -0.44,0.56zm-5.38 -0.33c0.28,-0.05 0.99,-0.67 1,-0.87 -0.26,-0.01 -0.37,0.19 -0.56,0.34 -0.43,0.35 -0.42,0.26 -0.44,0.53zm46.11 0.63c-0.04,-0.42 -0.58,-0.96 -1.05,-1.05 0.14,0.29 0.32,0.37 0.52,0.57 0.18,0.18 0.28,0.37 0.53,0.48zm-39.44 -6.47c0.01,-0.33 -0.01,-0.37 -0.22,-0.55 -0.13,-0.11 -0.29,-0.27 -0.5,-0.24 -0.09,0.54 0.12,0.91 0.72,0.79zm30.88 6.13c0.07,-0.17 0.13,-0.4 0.2,-0.63 0.08,-0.26 0.19,-0.35 0.24,-0.55 -0.4,0.14 -1.37,0.81 -0.44,1.18zm-28.72 -0.12c0.16,-0.11 0.26,-0.33 0.3,-0.56 -0.15,-0.19 -0.57,-0.58 -0.8,-0.62 -0.01,0.3 0.32,1.05 0.5,1.18zm32.17 -2.33c0.22,-0.03 0.31,-0.11 0.44,-0.18 -0.01,-0.22 -0.02,-0.19 -0.13,-0.33 0.37,-0.25 0.35,0.11 0.46,-0.82l0.29 -0.19 -0.02 -0.54c-0.45,0.15 -0.46,0.55 -0.66,0.92 -0.35,0.64 -0.19,0.35 -0.37,1.14zm-41.81 1.51c0.32,-0.14 0.84,-0.81 1.07,-1.01 0.15,-0.13 0.3,-0.17 0.45,-0.31l-0.06 -0.44c-0.63,0 -1.36,1.18 -1.46,1.77zm44.46 0.76c0.2,-0.1 0.18,-0.4 0.27,-0.87l0.38 -2.03c0.09,-0.48 0.23,-0.78 0.05,-0.92 -0.23,0.17 -0.59,2.7 -0.71,3.3 -0.05,0.25 -0.12,0.34 0.02,0.52zm3.31 -0.18c-0.06,-0.67 -1.02,-1.84 -1.4,-1.95 -0.52,0.53 0.22,0.75 0.91,1.48 0.19,0.2 0.24,0.35 0.5,0.47zm-43.59 -4.7c0.08,0.1 -0.03,0.03 0.11,0.09 0.37,0.15 0.6,-0.1 0.66,0.24 0.1,0.61 0.02,0.35 0.37,0.62l-0.15 0.6c0.46,0.11 0.42,0.18 0.4,0.68l0.47 0.05c-0,-0.56 -0.62,-2.38 -1.4,-2.44 -0.18,-0.01 -0.43,0.02 -0.46,0.16zm38.66 13.29c0.51,0.04 0.26,-0.52 0.63,-1.86 0.15,-0.56 0.28,-1.54 0.37,-2.17 0.07,-0.5 0.82,-4 0.69,-4.24 -0.27,0.15 -0.41,1.07 -0.44,1.45 -0.05,0.52 -0.02,0.14 -0.18,0.45 -0.12,0.22 -0.02,0.31 -0.03,0.5 -0.01,0.17 -0.1,0.27 -0.15,0.46 -0.25,0.98 -0.98,4.7 -0.89,5.41z"/>
   <path class="fil7" d="M16.77 79.51c0.13,0.21 0.57,0.35 0.89,0.38 0.23,0.02 0.4,-0 0.63,-0 0.3,-0 0.39,0.06 0.67,0.09 -0.02,-1.11 -1.11,-0.75 -1.62,-0.73 -0.33,0.01 -0.43,0.05 -0.56,0.26z"/>
   <path class="fil7" d="M25.98 80.02c-0.12,0.43 -0.03,0.91 0.23,1.14 0.25,-0.05 0.62,-0.44 0.72,-0.63 -0.17,-0.47 -0.51,-0.65 -0.95,-0.51z"/>
   <path class="fil7" d="M32.16 79.51c0.34,0.25 1.81,-0.11 1.93,-0.32 -0.34,-0.4 -1.71,0.08 -1.78,0.13 -0.2,0.12 -0.08,-0.05 -0.15,0.19z"/>
   <path class="fil7" d="M15.06 80.09c-0.04,-0.31 -0.2,-0.32 -0.75,-0.6 -0.72,-0.37 -0.43,-0.37 -0.66,-0.73 -0.27,0.01 -0.41,0.19 -0.28,0.46 0.09,0.2 1.38,0.83 1.69,0.87z"/>
   <path class="fil7" d="M24.16 80.25c0.06,0.24 0.45,0.82 0.65,0.91 0.3,-0.48 0.17,-0.89 -0.19,-1.15l-0.46 0.24z"/>
   <path class="fil7" d="M12.17 80.59c0.12,0.23 0.49,0.39 0.72,0.51 0.26,0.14 0.58,0.27 0.91,0.32 -0.23,-0.42 -0.66,-0.7 -1.09,-0.83 -0.02,-0.01 -0.26,-0.07 -0.27,-0.07 -0.05,-0 -0.12,-0.04 -0.26,0.07z"/>
   <path class="fil7" d="M15.99 78.88l-1.4 -0.09c0.07,0.23 0.08,0.2 0.26,0.35 0.38,0.31 0.47,0.28 0.81,0.04 0.18,-0.13 0.24,-0.09 0.33,-0.3z"/>
   <path class="fil7" d="M34.99 78.69l0.85 0.35c0.14,-0.1 0.55,-0.45 0.62,-0.58 -0.3,-0.01 -1.29,0.11 -1.47,0.22z"/>
   <path class="fil7" d="M16.78 80.97c0.05,0.4 0.76,0.51 1.1,0.41 0,-0.38 -0.77,-0.54 -1.1,-0.41z"/>
   <path class="fil7" d="M35.91 81.29l-0.53 -0.05c0.02,0.61 0.58,0.57 0.53,0.05z"/>
   <path class="fil7" d="M13.82 80.32c-0.16,0.41 0.28,0.3 0.53,0.21 -0.03,-0.38 -0.27,-0.34 -0.53,-0.21z"/>
   <path class="fil7" d="M15.51 81.98c0.1,-0.15 0.15,-0.17 0.15,-0.36 -0.25,-0.09 -0.26,-0.09 -0.51,0.01 -0.02,0.26 0.14,0.32 0.36,0.35z"/>
   <path class="fil7" d="M36.68 80.08c0.2,0.15 0.34,0.16 0.56,0.05 -0.01,-0.42 -0.41,-0.34 -0.56,-0.05z"/>
   <path class="fil8" d="M22.79 85.52c0.12,-0.21 0.1,-0.23 0.03,-0.45 -0.17,-0.03 -0.24,-0 -0.27,0.16 -0.05,0.27 0.06,0.29 0.24,0.29z"/>
   <path class="fil7" d="M31.55 82.13c0.06,-0.17 0.04,-0.08 0.06,-0.13 0.04,-0.09 0,0.07 0.05,-0.14 -0.23,-0.27 -0.21,-0.19 -0.57,-0.38l0.41 0.61c0.01,0.01 0.02,0.03 0.04,0.04z"/>
   <path class="fil9" d="M28.53 85.5c0.11,-0.31 0.06,-0.41 -0.23,-0.42 -0.13,0.24 -0.03,0.41 0.23,0.42z"/>
  </g>
 </g>
</svg>
