<?xml version="1.0" encoding="UTF-8"?>
<!DOCTYPE svg PUBLIC "-//W3C//DTD SVG 1.1//EN" "http://www.w3.org/Graphics/SVG/1.1/DTD/svg11.dtd">
<!-- Creator: CorelDRAW -->
<svg xmlns="http://www.w3.org/2000/svg" xml:space="preserve" width="26.7565mm" height="31.255mm" version="1.1" style="shape-rendering:geometricPrecision; text-rendering:geometricPrecision; image-rendering:optimizeQuality; fill-rule:evenodd; clip-rule:evenodd"
viewBox="0 0 11.44 13.36"
 xmlns:xlink="http://www.w3.org/1999/xlink"
 xmlns:xodm="http://www.corel.com/coreldraw/odm/2003">
 <defs>
  <style type="text/css">
   <![CDATA[
    .fil0 {fill:#050707}
    .fil4 {fill:#270910}
    .fil10 {fill:#35413F}
    .fil16 {fill:#3D4549}
    .fil11 {fill:#3E385A}
    .fil19 {fill:#44464B}
    .fil15 {fill:#474755}
    .fil21 {fill:#4B4C4C}
    .fil12 {fill:#585768}
    .fil6 {fill:#5C5A6B}
    .fil14 {fill:#5F6070}
    .fil18 {fill:#636374}
    .fil5 {fill:#820000}
    .fil20 {fill:#8B8C8C}
    .fil8 {fill:#B40000}
    .fil7 {fill:#B80101}
    .fil3 {fill:#B90000}
    .fil22 {fill:#C16577}
    .fil13 {fill:#C9C6E9}
    .fil2 {fill:#CAC9EC}
    .fil17 {fill:#FBFBFB}
    .fil9 {fill:#FDFDFE}
    .fil1 {fill:#FEFEFE}
   ]]>
  </style>
 </defs>
 <g id="Camada_x0020_1">
  <metadata id="CorelCorpID_0Corel-Layer"/>
  <g id="_2597686330464">
   <path class="fil0" d="M9.02 5.61c0.11,0.14 0.31,3.07 0.43,3.36 0.12,0.02 0.39,-0.26 0.52,-0.38 0.22,-0.19 1.44,-1.2 1.46,-1.27 0.03,-0.09 -1,-2.99 -1.08,-3.08 -0.18,-0.01 -0.5,0.32 -0.68,0.37 -0.14,-0.21 -0.31,-0.59 -0.44,-0.82 -0.22,-0.41 -0.14,-0.39 -0.03,-1 0.12,-0.72 0.28,-1.6 -0.09,-2.21 -0.2,-0.32 -0.41,-0.39 -0.91,-0.37 -0.77,0.04 -1.79,1.12 -2.2,1.64 -0.14,-0 -0.35,-0.08 -0.5,-0.11 -0.56,-0.11 -1.13,-0.16 -1.71,-0.1 -0.61,0.06 -0.39,0.2 -0.78,-0.29 -1.27,-1.6 -3.3,-2.12 -2.98,0.44 0.09,0.69 0.35,1.29 0.63,1.82 0.08,0.16 -0.06,0.28 -0.14,0.42 -0.37,0.69 -0.38,1.31 -0.29,2.07 0.02,0.2 0.02,0.38 0.01,0.59 -0.01,0.59 0.12,0.77 0.15,1.09 0.02,0.27 -0.08,0.82 -0.09,1.14 -0.02,0.38 0.02,0.77 0.13,1.11 0.42,1.3 1.97,2.3 3.06,3.07 0.28,0.2 0.49,0.34 0.93,0.25 0.34,-0.07 0.6,-0.23 0.84,-0.38l1.49 -0.98c0.39,-0.28 0.37,-0.28 0.66,-0.56 0.37,-0.36 0.74,-0.87 0.98,-1.47 0.53,-1.31 0.45,-2.85 0.61,-4.32zm0.01 -0.61c0.1,0.01 0.48,-0.25 0.54,-0.32l-0.49 -0.97c-0.13,0.13 -0.06,1.04 -0.05,1.29z"/>
   <path class="fil1" d="M0.71 10.15c0.11,0.02 0.14,0.1 0.2,0.17 0.03,0.04 0.05,0.06 0.08,0.1 0.05,0.06 0.06,0.05 0.06,0.13 -0.1,-0.01 -0.18,-0.16 -0.27,-0.27 -0.06,-0.07 -0.06,-0.04 -0.07,-0.14zm-0.04 -0.97c0.03,0.03 0.02,-0 0.03,0.05l-0.01 0.25c-0.01,0.2 0.01,0.23 -0.05,0.28 -0.08,-0.06 -0.04,-0.05 -0.03,-0.28 0,-0.05 0,-0.11 0,-0.16 0,-0.12 -0.01,-0.1 0.05,-0.14zm3.03 0.15c-0.09,0.03 -0.21,0.03 -0.29,-0 -0.02,-0.11 0.04,-0.1 0.14,-0.1 0.11,0 0.16,-0.01 0.15,0.11zm-0.25 -0.26c0.05,-0.07 0.04,-0.05 0.14,-0.05 0.18,-0 0.14,0.02 0.16,0.05 -0.04,0.07 -0.13,0.07 -0.23,0.05 -0.12,-0.02 -0.04,-0.02 -0.07,-0.05zm-2.85 -0.11c-0.03,-0.05 -0.03,-0.04 -0.03,-0.16l0.01 -0.41c0,-0.1 -0.01,-0.11 0.06,-0.13 0.04,0.07 0.01,0.65 0.01,0.65 -0.03,0.09 -0.02,0.03 -0.06,0.06zm2.17 -1.86c0.09,0.01 0.16,0.09 0.17,0.17 -0.09,-0 -0.04,0.01 -0.11,-0.07 -0.04,-0.04 -0.06,-0.04 -0.06,-0.1zm1.75 0.28c-0.01,-0.09 0.08,-0.16 0.14,-0.23 0.03,-0.03 0.05,-0.07 0.08,-0.1 0.05,-0.06 0.02,-0.07 0.12,-0.06 -0.01,0.04 -0.22,0.4 -0.33,0.4zm0.01 -0.35c0.02,-0.11 0.13,-0.23 0.23,-0.26 -0.03,0.12 -0.12,0.23 -0.23,0.26zm-1.8 -0.31c0.07,-0 0.23,0.09 0.23,0.19 -0.08,0.01 -0.09,-0.02 -0.15,-0.06 -0.08,-0.06 -0.1,-0.03 -0.08,-0.13zm2.4 -0.16c0.07,0.05 0.09,0.03 0,0.09 -0.02,-0.02 -0.04,-0.02 0,-0.09zm-2.73 -0.12c0.02,0.03 0.03,-0.05 0.03,0.08 -0.11,-0.01 -0.05,-0.01 -0.07,-0.03 -0.05,-0.03 -0.08,-0.02 -0.02,-0.1 0.06,0.03 0.04,0.01 0.06,0.06zm3.89 -0.12c-0.44,0.07 -0.41,-0.12 -0.24,-0.42 0.11,-0.01 0.23,0.02 0.31,0.06 0.01,0.13 -0.02,0.28 -0.07,0.36zm-1.02 -0.24c0,-0.12 0.04,-0.14 0.11,-0.21 0.14,-0.14 0.19,-0.31 0.34,-0.18 0.21,0.17 0.15,0.18 -0.11,0.52 -0.12,0.01 -0.28,-0.08 -0.35,-0.13zm-4.66 -0.22c-0.11,-0.01 -0.12,-0.13 -0.02,-0.17 0.06,0.06 0.06,0.09 0.02,0.17zm4.25 -0.14c-0.06,-0.03 -0.1,-0.09 -0.16,-0.15 -0.15,-0.17 -0.02,-0.19 0.18,-0.32 0.09,-0.06 0.12,-0.09 0.23,-0.1 0.05,0.06 0.16,0.16 0.16,0.27 -0.05,0.07 -0.32,0.27 -0.42,0.29zm-4.3 -0.2c-0.13,-0.05 -0.1,-0.27 -0.09,-0.4 0.02,-0.18 0.02,-0.33 0.11,-0.38 0.05,0.06 0.03,0.11 0.01,0.21l-0.04 0.56zm0.3 0.45c-0.13,-0.01 -0.12,-0.11 -0.14,-0.24 -0.03,-0.23 -0.03,-0.5 -0.01,-0.74 0.01,-0.12 -0.01,-0.24 0.1,-0.25 0.05,0.09 -0.01,0.47 -0.01,0.62 0,0.15 0.08,0.53 0.06,0.61zm3.59 -0.81c-0.05,-0.04 -0.23,-0.26 -0.16,-0.34 0.05,-0.06 0.33,-0.13 0.41,-0.12 0.03,0.07 0.08,0.19 0.08,0.3 -0.05,0.04 -0.22,0.16 -0.34,0.16zm-0.42 -0.79c0.06,-0.05 0.29,-0.12 0.39,-0.14 0.1,-0.02 0.11,0 0.13,0.1 0.02,0.07 0.03,0.12 0.02,0.2 -0.07,0.05 -0.35,0.12 -0.46,0.1 -0.05,-0.07 -0.08,-0.17 -0.08,-0.27zm-3.14 0.15c-0.03,-0.06 -0.01,-0.2 0.07,-0.26 0.06,0.05 0.04,0.05 0.02,0.14 -0.03,0.1 -0,0.1 -0.08,0.11zm-0.25 0.06c-0.04,-0.08 0,-0.15 0.03,-0.24 0.07,-0.25 0.04,-0.17 0.13,-0.17 0.02,0.07 -0.02,0.15 -0.04,0.23 -0.03,0.1 -0.02,0.17 -0.12,0.19zm0.52 -0.64c0.01,0.01 0.04,-0.03 0.03,0.07 -0.01,0.09 -0.03,0.04 -0.05,0.05 -0.01,-0.02 -0.03,0.03 -0.02,-0.07 0.01,-0.05 0.04,-0.05 0.04,-0.05zm3.23 0.14c-0.07,0.04 -0.28,0.01 -0.36,-0.02 -0.11,-0.04 -0.09,-0.14 -0.04,-0.33 0.1,-0.04 0.33,-0.04 0.4,0.02 0.05,0.06 0.04,0.25 0.01,0.34zm-3.44 -0.13c0.01,-0.11 0.05,-0.15 0.15,-0.17 -0.03,0.1 -0.06,0.14 -0.15,0.17zm0.47 -0.46c-0.06,-0.14 0.05,-0.22 0.17,-0.17 -0,0.09 -0.1,0.16 -0.17,0.17zm2.93 -0.06c-0.08,0 -0.28,-0.1 -0.32,-0.16 -0.06,-0.09 0.07,-0.26 0.11,-0.32 0.14,-0 0.25,0.08 0.34,0.14 0,0.11 -0.08,0.27 -0.13,0.34zm0.16 -0.52c-0.06,-0.01 -0.29,-0.15 -0.3,-0.21 -0.01,-0.08 0.14,-0.24 0.18,-0.28 0.09,0.01 0.25,0.13 0.31,0.2 -0,0.1 -0.13,0.26 -0.2,0.3zm-2.72 0.06c0.01,-0.09 -0.03,-0.02 0.05,-0.09l0.23 -0.15c0.06,-0.04 0.11,-0.07 0.16,-0.11 0.07,-0.05 0.09,-0.09 0.16,-0.04 -0.03,0.07 -0.53,0.41 -0.61,0.39zm2.97 -0.58c-0.17,-0.1 -0.28,-0.46 0.21,-0.42 0.04,0.05 0.08,0.09 0.09,0.18 -0.04,0.09 -0.18,0.23 -0.3,0.24zm0.83 -0.49c-0.08,0.02 -0.08,0.07 -0.19,0.1 -0.09,0.03 -0.16,0.04 -0.24,0.02 -0.02,-0.14 0.01,-0.09 0.02,-0.2 -0.39,-0.03 -0.7,-0.09 -1.11,-0.07 -1.14,0.06 -1.66,0.45 -2.41,1.1 -0.21,0.18 -0.38,0.39 -0.57,0.61 -0.65,0.74 -0.87,1.64 -0.7,2.68 0.39,0.02 0.72,-0.11 1.22,0.09 1.03,0.42 1.05,1.34 1.23,2.15 0.03,0.15 0.11,0.41 0.12,0.53 0.02,0.03 0.05,-0.04 0.03,0.11 -0.05,0.01 -0.02,0.02 -0.09,0 -0.09,-0.02 -0.05,-0.02 -0.07,-0.03 -0.38,0 -1.01,-0.16 -1.33,-0.3 -0.19,-0.08 -0.38,-0.19 -0.52,-0.3 -0.23,-0.17 -0.35,-0.35 -0.42,-0.4 -0.08,0.25 -0.09,0.84 -0.09,1.13 0,0.76 0.22,1.25 0.66,1.8 0.17,0.22 0.38,0.45 0.6,0.61l0.04 -0.14c0.04,-0.15 0.14,-0.23 0.3,-0.27 0.34,-0.09 0.44,0.11 0.58,0.11 0.17,-0.07 0.42,-0.22 0.6,-0.32 0.27,-0.14 0.41,-0.14 0.39,-0.52 -0.15,-0.14 -0.21,-0.13 -0.34,-0.32 -0.08,-0.12 -0.18,-0.33 -0.15,-0.51 0.18,-0.12 1.44,-0.16 1.14,0.3 -0.09,0.13 -0.2,0.27 -0.32,0.36 -0.25,0.19 -0.19,0.07 -0.2,0.47 0.09,0.08 1.19,0.65 1.4,0.77 0.13,-0.03 0.21,-0.2 0.45,-0.16 0.21,0.03 0.26,0.18 0.36,0.27 0.08,-0 0.04,0.01 0.17,-0.15 0.04,-0.06 0.09,-0.11 0.13,-0.16 0.29,-0.36 0.52,-0.58 0.72,-1.07 0.12,-0.28 0.22,-0.58 0.32,-0.89 0.08,-0.26 0.08,-0.51 0.15,-0.75 0.05,-0.19 0.09,-0.17 0.02,-0.17 -0.11,0.04 -0.24,0.22 -0.57,0.38 -0.62,0.29 -1.08,0.11 -1.64,0.07 -0.65,-0.05 -0.5,0.17 -0.75,0.18 0.01,-0.1 0.13,-0.31 0.17,-0.44 0.05,-0.17 0.08,-0.32 0.13,-0.48 0.11,-0.34 0.24,-0.57 0.4,-0.82 0.36,-0.55 0.84,-0.81 1.44,-0.99l0.01 -0.31c0,-0.09 0.01,-0.03 -0.02,-0.08 -1.56,-0.15 -2.53,-2.07 -1.77,-3.16 0.19,-0.28 0.45,-0.52 0.81,-0.55 0.16,-0.02 0.31,0.03 0.44,0.01l0.09 -0.01c-0,-0.22 0.06,-0.25 0.16,-0.37 0.08,-0.09 0.13,-0.2 0.21,-0.29 0.22,-0.25 1.15,-0.87 1.48,-1.06 0.13,-0.08 0.32,-0.03 0.32,-0.17 -0.34,0.05 -0.59,0.16 -0.83,0.32 -0.23,0.16 -0.46,0.31 -0.65,0.49 -1.13,1.04 -0.5,0.95 -1.31,0.8z"/>
   <path class="fil2" d="M7.89 8.78c-0.02,-0.04 -0.04,0.05 -0.01,-0.07 0,-0 0.04,-0.07 0.04,-0.08 0.03,-0.06 0.02,-0.08 0.09,-0.1 0.03,0.05 0,0.09 -0.01,0.13 -0,0 -0.03,0.06 -0.03,0.06 -0.05,0.08 0.01,0.02 -0.07,0.06zm-0.17 -0.16c-0.01,-0.11 0.05,-0.25 0.14,-0.27 0.01,0.12 -0.05,0.24 -0.14,0.27zm0.47 -2.55c-0.04,-0.04 -0.16,-0.24 -0.17,-0.32 -0.01,-0.1 0.04,-0.11 0.12,-0.14 0.28,-0.11 0.35,0.27 0.35,0.27 -0.02,0.08 -0.22,0.19 -0.3,0.19zm-2.08 -3.9c0.05,0.04 0.17,0.07 0.23,0.09 0.24,-0.02 1.27,-1.47 1.94,-1.38 0.25,0.03 0.32,0.25 0.32,0.52 -0,0.64 -0.1,1.28 -0.17,1.92 -0.01,0.11 -0.08,0.28 -0.08,0.31 0.1,0.17 0.21,0.18 0.29,0.44 0.05,0.19 0.05,0.41 -0,0.61 -0.09,0.33 -0.37,0.64 -0.58,0.78 -0.29,0.27 -0.91,0.47 -1.43,0.4 0.03,0.05 0.02,-0.01 0.02,0.08 0.06,-0.03 0.29,-0.04 0.36,0.01 0.06,0.06 0.02,0.17 0.03,0.27l0.5 0.06c-0.02,-0.13 -0.06,-0.27 -0.05,-0.41 0.07,-0.03 0.18,-0.09 0.29,-0.07 0.05,0.08 0.12,0.32 0.13,0.43l-0.25 0.09c0.33,0.23 0.72,0.03 0.85,0.11 0.03,0.04 0.03,-0.04 0.01,0.06l-0.26 0.4c-0.21,0.36 -0.22,0.72 -0.64,1.27 -0.07,0.09 -0.12,0.13 -0.17,0.22 0.07,0.01 0.03,-0.02 -0.02,0.17 -0.07,0.24 -0.07,0.5 -0.15,0.75 -0.09,0.31 -0.2,0.61 -0.32,0.89 -0.2,0.49 -0.42,0.71 -0.72,1.07 -0.04,0.05 -0.09,0.11 -0.13,0.16 -0.13,0.16 -0.08,0.14 -0.17,0.15 0.22,0.58 -0.29,0.87 -0.76,0.62l0.01 0.06c-0.35,0.19 -0.42,0.35 -0.62,0.48 -0.12,0.07 -0.23,0.13 -0.34,0.2 -0.15,0.09 -0.2,0.09 -0.27,0.29 0.64,0 0.79,-0.09 1.24,-0.36 0.89,-0.53 2.07,-1.3 2.63,-2.1 0.87,-1.22 0.84,-2.4 0.97,-3.78 0.04,-0.5 0.07,-0.98 0.11,-1.48 -0.13,0.04 -0.18,0.12 -0.31,0.16 -0.07,-0.04 -0.16,-0.19 -0.19,-0.26 0.03,-0.1 0.11,-0.16 0.19,-0.21 0.14,0.03 0.2,0.17 0.3,0.23 -0,-0.4 0,-0.79 -0.02,-1.18 -0.01,-0.24 -0.01,-0.34 0.05,-0.55 0.08,-0.3 -0.07,-0.28 -0.05,-0.48l0.14 0.01c0.14,-0.78 0.65,-2.92 -0.65,-2.96 -0,0.14 -0.19,0.09 -0.32,0.17 -0.33,0.19 -1.26,0.82 -1.48,1.06 -0.08,0.09 -0.13,0.2 -0.21,0.29 -0.1,0.12 -0.16,0.15 -0.16,0.37l-0.09 0.01z"/>
   <path class="fil3" d="M6.62 5.88c0.52,0.07 1.14,-0.13 1.43,-0.4 -0.05,-0.32 -0.1,-1.57 0.01,-1.84l-0.03 -0.07c-0.02,-0.06 -0.3,-0.29 -0.38,-0.35 -0.24,-0.16 -1.2,-0.75 -1.32,-0.86l0.01 -0.1c-0.07,-0.02 -0.18,-0.05 -0.23,-0.09 -0.13,0.01 -0.28,-0.03 -0.44,-0.01 -0.36,0.04 -0.62,0.28 -0.81,0.55 -0.76,1.1 0.21,3.01 1.77,3.16z"/>
   <path class="fil1" d="M3.35 11.45c0.01,-0.1 0.04,-0.08 0.16,-0.09 0.14,-0.02 0.5,-0.06 0.58,0.11 -0.09,0.06 -0.22,-0.02 -0.37,-0.03 -0.11,-0 -0.28,0.05 -0.37,0.01zm-0.65 -0.03c0.13,0.26 -0.15,0.56 -0.35,0.57 -0.06,0.07 -0.02,-0 -0.03,0.07 0.05,0.06 1.51,1.12 1.64,1.17 0.07,-0.2 0.12,-0.2 0.27,-0.29 0.12,-0.07 0.23,-0.13 0.34,-0.2 0.2,-0.13 0.27,-0.29 0.62,-0.48l-0.01 -0.06c-0.03,-0.08 -0.11,-0.13 -0.14,-0.26 -0.04,-0.15 0.01,-0.22 0.02,-0.36 -0.41,-0.22 -0.8,-0.44 -1.21,-0.65 -0.16,-0.09 -0.17,-0.12 -0.32,-0.03l-0.57 0.34c-0.08,0.05 -0.24,0.11 -0.25,0.18z"/>
   <path class="fil4" d="M6.33 2.27l-0.01 0.1c0.11,0.11 1.08,0.7 1.32,0.86 0.08,0.06 0.36,0.29 0.38,0.35 0.1,0.04 0.17,0.09 0.32,0.07 0,-0.03 0.07,-0.2 0.08,-0.31 0.08,-0.63 0.17,-1.28 0.17,-1.92 0,-0.27 -0.07,-0.49 -0.32,-0.52 -0.67,-0.09 -1.7,1.36 -1.94,1.38z"/>
   <path class="fil4" d="M1.28 2.99l0.54 -0.49c0.28,-0.27 0.39,-0.26 0.6,-0.45 0.14,-0.12 0.04,-0.19 -0.05,-0.32 -0.1,-0.16 -0.35,-0.44 -0.52,-0.52 -0.17,-0.09 -0.26,-0.27 -0.61,-0.41 -0.12,-0.05 -0.27,-0.16 -0.38,-0.12 -0.22,0.08 -0.21,0.57 -0.18,0.83 0.04,0.34 0.19,0.89 0.39,1.16 0.14,0.19 0.09,0.25 0.2,0.33z"/>
   <path class="fil1" d="M7.65 7.86c0.08,-0.31 -0.02,-0.51 -0.01,-0.7 0.01,-0.23 0.07,-0.43 0.18,-0.57l-0.04 -0.06c-0.15,-0.09 -0.51,-0.15 -0.73,-0.16 -0.21,-0.01 -0.41,0.01 -0.6,0.08 -0.01,0 -0.08,0.03 -0.08,0.03 -0.08,0.05 -0.02,0 -0.06,0.05 0.34,0 0.49,0.01 0.73,0.16 0.16,0.1 0.33,0.25 0.41,0.47 0.45,1.11 -1.01,1.85 -1.72,1.17 -0.15,-0.15 -0.24,-0.34 -0.27,-0.61 -0.04,-0.4 0.06,-0.46 0.13,-0.76 -0.1,0.05 -0.29,0.31 -0.37,0.44 -0.16,0.25 -0.52,0.85 -0.33,1.14 0.13,0.19 0.19,0.12 0.59,0.18 0.52,0.08 0.88,0.11 1.36,-0.1 0.29,-0.13 0.76,-0.57 0.79,-0.77z"/>
   <path class="fil1" d="M0.73 0.61c-0.03,-0.1 0.09,-0.21 0.26,-0.23 0.17,-0.02 0.34,-0 0.49,0.05 0.1,0.04 0.66,0.28 0.7,0.26 -0.07,-0.17 -0.76,-0.51 -1.11,-0.56 -0.59,-0.08 -0.81,0.27 -0.91,0.77 -0.09,0.45 0.01,1.07 0.14,1.48 0.08,0.24 0.38,1.08 0.52,1.18l0.37 -0.45 -0.3 -0.56c-0.16,-0.35 -0.35,-0.93 -0.36,-1.33 -0,-0.2 0.06,-0.58 0.2,-0.62z"/>
   <path class="fil2" d="M0.73 0.61c0.26,-0.08 0.47,-0 0.66,0.11 0.74,0.42 1.19,1.08 1.32,1.19l0.45 -0.14c-0.06,-0.15 -0.34,-0.46 -0.44,-0.58 -0.21,-0.25 -0.28,-0.26 -0.38,-0.37 -0.08,-0.08 -0.06,-0.08 -0.16,-0.12 -0.04,0.02 -0.6,-0.23 -0.7,-0.26 -0.14,-0.05 -0.32,-0.07 -0.49,-0.05 -0.17,0.02 -0.29,0.12 -0.26,0.23z"/>
   <path class="fil5" d="M8.05 5.48c0.2,-0.14 0.49,-0.45 0.58,-0.78 0.05,-0.2 0.06,-0.42 0,-0.61 -0.08,-0.26 -0.19,-0.28 -0.29,-0.44 -0.15,0.02 -0.21,-0.03 -0.32,-0.07l0.03 0.07c-0.11,0.27 -0.06,1.51 -0.01,1.84z"/>
   <path class="fil6" d="M9.84 7.13c0.02,0.18 0.15,0.31 0.11,0.67 -0.03,0.22 -0.05,0.16 0,0.17 0.12,-0.04 1.01,-0.81 1.23,-0.96 0.02,-0.21 -0.05,-0.28 -0.24,-0.3 -0.47,-0.06 -0.82,0.13 -1.11,0.43z"/>
   <path class="fil7" d="M6.39 7.26c0.46,-0.11 0.61,0.52 0.18,0.64 -0.47,0.13 -0.66,-0.52 -0.18,-0.64zm0.74 0.44c0.09,-0.38 -0.19,-0.66 -0.5,-0.73 -0.38,-0.08 -0.71,0.15 -0.79,0.46 -0.19,0.81 1.09,1.05 1.28,0.27z"/>
   <path class="fil1" d="M2.66 8.46c0.06,-0.16 -0.18,-1.13 -0.26,-1.34 -0.02,0.04 0.07,0.38 -0.03,0.62 -0.07,0.17 -0.2,0.32 -0.33,0.42 -0.56,0.41 -1.11,0.03 -1.15,0.02 0.12,0.23 1.14,0.65 1.54,0.62 0.04,-0.04 0.22,-0.29 0.24,-0.33z"/>
   <path class="fil3" d="M5.12 11.47c0.08,0.05 0.18,0.09 0.25,0.11 0.13,0.04 0.21,0.02 0.2,0.17 -0.17,0.09 -0.38,-0.08 -0.52,-0.17 -0.01,0.13 -0.06,0.2 -0.02,0.36 0.03,0.13 0.11,0.18 0.14,0.26 0.47,0.24 0.98,-0.04 0.76,-0.62 -0.11,-0.09 -0.15,-0.24 -0.36,-0.27 -0.24,-0.03 -0.32,0.13 -0.45,0.16z"/>
   <path class="fil8" d="M6.34 6.83c0.47,-0.09 0.87,0.23 0.95,0.6 0.21,0.99 -1.37,1.28 -1.59,0.32 -0.12,-0.5 0.25,-0.84 0.64,-0.91zm-0.08 -0.15c-0.76,0.15 -0.93,1.28 -0.29,1.65 0.21,0.12 0.49,0.17 0.75,0.09 1.16,-0.33 0.73,-1.98 -0.46,-1.75z"/>
   <path class="fil8" d="M1.31 7.02c0.39,-0.16 0.68,0.48 0.24,0.66 -0.41,0.17 -0.71,-0.46 -0.24,-0.66zm-0.06 -0.15c-0.15,0.06 -0.23,0.1 -0.32,0.24 -0.25,0.4 0.19,0.96 0.72,0.76 0.72,-0.26 0.28,-1.27 -0.41,-1z"/>
   <path class="fil3" d="M1.7 11.54c0.05,0.06 0.51,0.43 0.59,0.48l0.07 -0.03c0.2,-0.01 0.48,-0.31 0.35,-0.57 -0.2,0.05 -0.29,0.22 -0.44,0.14 -0,-0.12 0.06,-0.12 0.16,-0.18 0.06,-0.04 0.15,-0.09 0.2,-0.14 -0.14,-0 -0.24,-0.2 -0.58,-0.11 -0.16,0.04 -0.26,0.12 -0.3,0.27l-0.04 0.14z"/>
   <path class="fil9" d="M0.63 7.9c0.02,-0.05 -0.3,-0.57 0.12,-1.12 0.1,-0.13 0.24,-0.24 0.44,-0.3 0.29,-0.09 0.53,0.03 0.63,0.01 -0.23,-0.11 -0.31,-0.19 -0.63,-0.24 -0.16,-0.02 -0.63,-0.04 -0.78,0.02 -0.1,0.39 0.03,1.39 0.21,1.64z"/>
   <path class="fil8" d="M1.26 6.72c0.92,-0.24 1.31,1.04 0.41,1.31 -0.92,0.27 -1.36,-1.06 -0.41,-1.31zm-0.6 0.81c0.06,0.4 0.45,0.76 0.95,0.68 1.03,-0.17 0.82,-1.76 -0.27,-1.61 -0.39,0.05 -0.75,0.46 -0.68,0.93z"/>
   <path class="fil10" d="M3.64 10.25c0.09,-0 0.22,-0.16 0.29,-0.21 0.44,-0.35 0.11,-0.37 -0.2,-0.39 -0.18,-0.01 -0.34,-0.06 -0.47,0.01 -0.05,0.23 0.24,0.6 0.38,0.59z"/>
   <path class="fil11" d="M9.95 7.96c-0.05,-0.01 -0.03,0.05 -0,-0.17 0.04,-0.35 -0.1,-0.49 -0.11,-0.67l-0.19 0.23c-0.18,0.29 -0.27,0.77 -0.13,0.94 0.08,-0.04 0.38,-0.26 0.43,-0.34z"/>
   <path class="fil2" d="M9.39 7.51c0.08,-0.04 0.08,-0.08 0.12,-0.16 0.16,-0.29 0.2,-0.2 0.23,-0.55 0.01,-0.17 0.12,-0.82 0.02,-0.92 -0.11,0.04 -0.14,0.25 -0.17,0.36 -0.17,0.56 -0.27,0.68 -0.2,1.26z"/>
   <path class="fil2" d="M7.65 7.86c0.13,-0.09 0.62,-1.13 0.26,-1.29 -0.05,-0.02 -0.08,-0.03 -0.13,-0.04l0.04 0.06c-0.11,0.14 -0.17,0.34 -0.18,0.57 -0.01,0.19 0.09,0.39 0.01,0.7z"/>
   <path class="fil9" d="M10.17 5.62c0.07,0.16 0.28,0.39 0.4,0.54 0.26,0.32 0.25,0.4 0.5,0.44 -0.01,-0.12 -0.13,-0.4 -0.19,-0.55 -0.03,-0.09 -0.02,-0.1 -0.09,-0.14 -0.09,-0.06 -0.56,-0.29 -0.63,-0.29z"/>
   <path class="fil9" d="M10.14 5.84c-0.17,0.06 -0.05,0.25 -0.01,0.39 0.03,0.11 0.09,0.35 0.15,0.42l0.42 -0.08c-0,-0.1 -0.51,-0.7 -0.56,-0.73z"/>
   <path class="fil12" d="M9.13 5.25c0.12,0.01 0.56,-0.26 0.65,-0.31 0.11,-0.07 0.54,-0.31 0.6,-0.39 -0.03,-0.08 -0.05,-0.11 -0.1,-0.15 -0.19,0.1 -0.43,0.27 -0.62,0.4 -0.11,0.07 -0.55,0.32 -0.53,0.45z"/>
   <path class="fil7" d="M9.65 5.59c0.1,0.27 0.51,0.37 0.45,-0.21 -0.02,-0.19 -0.13,-0.25 -0.32,-0.18 -0.12,0.04 -0.18,0.23 -0.13,0.38z"/>
   <path class="fil3" d="M4.85 5.72c0.09,-0.02 0.36,-0.22 0.42,-0.29 -0,-0.11 -0.11,-0.21 -0.16,-0.27 -0.12,0 -0.14,0.04 -0.23,0.1 -0.21,0.13 -0.34,0.14 -0.18,0.32 0.06,0.07 0.1,0.12 0.16,0.15z"/>
   <path class="fil3" d="M5.26 6.08c0.07,0.05 0.22,0.14 0.35,0.13 0.26,-0.34 0.32,-0.35 0.11,-0.52 -0.15,-0.13 -0.2,0.04 -0.34,0.18 -0.07,0.07 -0.11,0.09 -0.11,0.21z"/>
   <path class="fil13" d="M9.3 6.65c0.08,-0.04 0.13,-0.34 0.16,-0.44 0.05,-0.16 0.12,-0.35 0.14,-0.5 -0.15,0.05 -0.25,0.18 -0.38,0.23 -0,0.13 0.05,0.61 0.08,0.71z"/>
   <path class="fil7" d="M4.02 4.38c-0,0.1 0.03,0.2 0.08,0.27 0.11,0.02 0.39,-0.05 0.46,-0.1 0.01,-0.08 -0.01,-0.13 -0.02,-0.2 -0.03,-0.1 -0.03,-0.12 -0.13,-0.1 -0.1,0.02 -0.32,0.09 -0.39,0.14z"/>
   <path class="fil3" d="M7.52 6.3l0.12 0.03 0.25 -0.09c-0.01,-0.11 -0.07,-0.35 -0.13,-0.43 -0.11,-0.02 -0.22,0.04 -0.29,0.07 -0.01,0.15 0.03,0.28 0.05,0.41z"/>
   <path class="fil3" d="M4.44 5.17c0.12,-0.01 0.29,-0.12 0.34,-0.16 0,-0.11 -0.05,-0.22 -0.08,-0.3 -0.08,-0.01 -0.36,0.06 -0.41,0.12 -0.07,0.08 0.11,0.3 0.16,0.34z"/>
   <path class="fil3" d="M4.37 4.07c0.03,-0.08 0.05,-0.27 -0.01,-0.34 -0.07,-0.06 -0.3,-0.06 -0.4,-0.02 -0.05,0.2 -0.07,0.3 0.04,0.33 0.09,0.03 0.29,0.06 0.36,0.02z"/>
   <path class="fil5" d="M8.19 6.07c0.08,-0 0.28,-0.11 0.3,-0.19 0,-0 -0.07,-0.38 -0.35,-0.27 -0.09,0.03 -0.13,0.03 -0.12,0.14 0.01,0.09 0.13,0.29 0.17,0.32z"/>
   <path class="fil7" d="M6.23 7.64c0.06,0.23 0.53,0.19 0.46,-0.11 -0.06,-0.25 -0.54,-0.19 -0.46,0.11z"/>
   <path class="fil8" d="M1.32 7.19c-0.31,0.14 -0.03,0.49 0.24,0.36 0.25,-0.13 0.06,-0.5 -0.24,-0.36z"/>
   <path class="fil3" d="M4.33 3.41c0.05,-0.07 0.13,-0.23 0.13,-0.34 -0.1,-0.06 -0.21,-0.14 -0.34,-0.14 -0.04,0.06 -0.17,0.23 -0.11,0.32 0.04,0.06 0.24,0.16 0.32,0.16z"/>
   <path class="fil3" d="M4.49 2.9c0.07,-0.04 0.19,-0.2 0.2,-0.3 -0.06,-0.07 -0.22,-0.18 -0.31,-0.2 -0.05,0.04 -0.2,0.21 -0.18,0.28 0.01,0.07 0.23,0.2 0.3,0.21z"/>
   <path class="fil7" d="M6.28 6.31c0.05,-0.08 0.09,-0.23 0.07,-0.36 -0.08,-0.04 -0.2,-0.07 -0.31,-0.06 -0.17,0.3 -0.2,0.48 0.24,0.42z"/>
   <path class="fil9" d="M9.83 5.06c0.44,0.01 0.19,0.2 0.67,-0.1 -0,-0.08 -0.04,-0.18 -0.09,-0.24 -0.08,0.02 -0.56,0.29 -0.58,0.34z"/>
   <path class="fil5" d="M8.9 5.51l-0 -0.08c-0.11,-0.07 -0.16,-0.21 -0.3,-0.23 -0.08,0.05 -0.15,0.11 -0.19,0.21 0.03,0.07 0.12,0.22 0.19,0.26 0.13,-0.04 0.17,-0.12 0.31,-0.16z"/>
   <path class="fil9" d="M9.85 6.9c0.11,-0.03 0.21,-0.11 0.29,-0.16 -0.01,-0.1 -0.15,-0.62 -0.21,-0.69 -0.04,0.05 -0.03,0.12 -0.04,0.2l-0.05 0.65z"/>
   <path class="fil3" d="M4.74 2.38c0.12,-0.01 0.27,-0.15 0.3,-0.24 -0.02,-0.09 -0.06,-0.13 -0.09,-0.18 -0.49,-0.04 -0.38,0.31 -0.21,0.42z"/>
   <path class="fil14" d="M0.85 5.97c0.02,-0.08 -0.06,-0.45 -0.06,-0.61 -0,-0.15 0.06,-0.53 0.01,-0.62 -0.11,0.01 -0.08,0.13 -0.1,0.25 -0.02,0.23 -0.02,0.5 0.01,0.74 0.02,0.13 0.01,0.23 0.14,0.24z"/>
   <path class="fil13" d="M9.21 5.8c0.07,-0.02 0.25,-0.13 0.27,-0.19 0.02,-0.07 -0,-0.12 0.01,-0.21 0.01,-0.06 0.04,-0.1 0.06,-0.17 -0.1,0.01 -0.29,0.15 -0.39,0.2 -0,0.11 0,0.27 0.05,0.37z"/>
   <path class="fil7" d="M6.64 5.96l-0.01 0.31 0.39 -0.03c-0.01,-0.1 0.02,-0.21 -0.03,-0.27 -0.07,-0.05 -0.3,-0.04 -0.36,-0.01z"/>
   <path class="fil9" d="M10.22 5.46c0.04,0.07 0.16,0.11 0.27,0.17 0.08,0.04 0.2,0.11 0.29,0.13 -0.01,-0.12 -0.08,-0.25 -0.12,-0.36 -0.08,-0.01 -0.33,0.01 -0.41,0.05 -0,0 -0.01,0.01 -0.02,0.01 -0,-0 -0.01,0.01 -0.01,0.01z"/>
   <path class="fil14" d="M0.55 5.52l0.04 -0.56c0.01,-0.11 0.03,-0.15 -0.01,-0.21 -0.1,0.05 -0.1,0.19 -0.11,0.38 -0.01,0.13 -0.04,0.35 0.09,0.4z"/>
   <path class="fil14" d="M3.35 11.45c0.09,0.05 0.25,-0.01 0.37,-0.01 0.15,0 0.27,0.08 0.37,0.03 -0.07,-0.17 -0.43,-0.13 -0.58,-0.11 -0.12,0.02 -0.15,-0 -0.16,0.09z"/>
   <path class="fil15" d="M0.6 8.96c0.04,-0.03 0.03,0.04 0.06,-0.06 0,-0 0.03,-0.58 -0.01,-0.65 -0.07,0.02 -0.06,0.03 -0.06,0.13l-0.01 0.41c-0,0.12 -0.01,0.11 0.03,0.16z"/>
   <path class="fil7" d="M5.57 1.89l-0.4 -0.08c-0.02,0.11 -0.05,0.06 -0.02,0.2 0.08,0.02 0.15,0.01 0.24,-0.02 0.11,-0.04 0.11,-0.08 0.19,-0.1z"/>
   <path class="fil16" d="M1.76 2.96c0.08,0.02 0.59,-0.32 0.61,-0.39 -0.07,-0.05 -0.1,-0.01 -0.16,0.04 -0.06,0.04 -0.11,0.07 -0.16,0.11l-0.23 0.15c-0.09,0.07 -0.04,-0 -0.05,0.09z"/>
   <path class="fil17" d="M10.23 5.3c0.13,0.02 0.25,-0 0.36,-0.04l-0.03 -0.13c-0.09,-0.01 -0.32,0.05 -0.34,0.18z"/>
   <path class="fil16" d="M0.67 9.18c-0.06,0.04 -0.05,0.02 -0.05,0.14 -0,0.05 -0,0.11 -0,0.16 -0.01,0.23 -0.05,0.22 0.03,0.28 0.06,-0.05 0.04,-0.07 0.05,-0.28l0.01 -0.25c-0.01,-0.05 -0.01,-0.02 -0.03,-0.05z"/>
   <path class="fil14" d="M0.63 4.58c0.09,-0.02 0.09,-0.09 0.12,-0.19 0.02,-0.07 0.07,-0.16 0.04,-0.23 -0.09,-0 -0.05,-0.08 -0.13,0.17 -0.03,0.09 -0.07,0.17 -0.03,0.24z"/>
   <path class="fil16" d="M0.91 10.33c-0.06,-0.07 -0.09,-0.16 -0.2,-0.17 0.01,0.1 0.01,0.07 0.07,0.14 0.09,0.11 0.17,0.26 0.27,0.27 0,-0.09 -0.01,-0.07 -0.06,-0.13 -0.03,-0.04 -0.05,-0.06 -0.08,-0.1z"/>
   <path class="fil16" d="M4.52 7.38c0.11,0 0.32,-0.35 0.33,-0.4 -0.1,-0.01 -0.07,-0.01 -0.12,0.06 -0.03,0.04 -0.05,0.07 -0.08,0.1 -0.05,0.07 -0.14,0.15 -0.14,0.23z"/>
   <path class="fil14" d="M1.4 3.48c0.08,-0.01 0.17,-0.09 0.17,-0.17 -0.13,-0.05 -0.23,0.03 -0.17,0.17z"/>
   <path class="fil16" d="M2.95 6.9c0,-0.1 -0.16,-0.19 -0.23,-0.19 -0.02,0.1 -0,0.07 0.08,0.13 0.05,0.04 0.07,0.07 0.15,0.06z"/>
   <path class="fil16" d="M4.53 7.03c0.12,-0.03 0.21,-0.14 0.23,-0.26 -0.1,0.02 -0.22,0.15 -0.23,0.26z"/>
   <path class="fil15" d="M0.88 4.52c0.08,-0.01 0.06,-0.01 0.08,-0.11 0.02,-0.09 0.05,-0.09 -0.02,-0.14 -0.07,0.05 -0.1,0.2 -0.07,0.26z"/>
   <path class="fil18" d="M0.6 5.86c0.04,-0.08 0.04,-0.11 -0.02,-0.17 -0.1,0.04 -0.09,0.15 0.02,0.17z"/>
   <path class="fil16" d="M0.94 3.94c0.09,-0.03 0.12,-0.07 0.15,-0.17 -0.1,0.02 -0.14,0.06 -0.15,0.17z"/>
   <path class="fil19" d="M1.13 4.06c0.03,-0.01 0.04,0.03 0.05,-0.05 0.01,-0.1 -0.02,-0.06 -0.03,-0.07 -0,0 -0.03,-0 -0.04,0.05 -0.02,0.1 0.01,0.05 0.02,0.07z"/>
   <path class="fil20" d="M2.8 8.99c0.02,0.01 -0.03,0.01 0.07,0.03 0.06,0.01 0.04,0 0.09,-0 0.03,-0.15 -0,-0.08 -0.03,-0.11l0.02 0.1 -0.15 -0.01z"/>
   <path class="fil21" d="M5.12 6.64c0.09,-0.05 0.07,-0.04 0,-0.09 -0.04,0.06 -0.02,0.06 0,0.09z"/>
   <path class="fil22" d="M2.32 12.06c0.01,-0.07 -0.03,-0 0.03,-0.07l-0.07 0.03 0.03 0.05z"/>
  </g>
 </g>
</svg>
