<?xml version="1.0" encoding="UTF-8"?>
<!DOCTYPE svg PUBLIC "-//W3C//DTD SVG 1.1//EN" "http://www.w3.org/Graphics/SVG/1.1/DTD/svg11.dtd">
<!-- Creator: CorelDRAW -->
<svg xmlns="http://www.w3.org/2000/svg" xml:space="preserve" width="25.8362mm" height="25.3578mm" version="1.1" style="shape-rendering:geometricPrecision; text-rendering:geometricPrecision; image-rendering:optimizeQuality; fill-rule:evenodd; clip-rule:evenodd"
viewBox="0 0 10.67 10.47"
 xmlns:xlink="http://www.w3.org/1999/xlink"
 xmlns:xodm="http://www.corel.com/coreldraw/odm/2003">
 <defs>
  <style type="text/css">
   <![CDATA[
    .fil0 {fill:#060909}
    .fil6 {fill:#616262}
    .fil7 {fill:#6B6C6C}
    .fil8 {fill:#78870C}
    .fil5 {fill:#797979}
    .fil2 {fill:#E3FD0E}
    .fil3 {fill:#F90000}
    .fil4 {fill:#FDFDFD}
    .fil1 {fill:#FEFEFE}
   ]]>
  </style>
 </defs>
 <g id="Camada_x0020_1">
  <metadata id="CorelCorpID_0Corel-Layer"/>
  <g id="_2599168673840">
   <path class="fil0" d="M10.51 1.67c0.06,-0.34 -0.02,-0.52 -0.19,-0.7 -0.28,-0.29 -0.42,-0.15 -0.51,-0.39 -0.35,-0.91 -1.43,-0.63 -1.52,0.07 -0.07,0.53 0.2,0.47 -0.07,0.71l-0.67 0.69c-0.32,0.34 -0.09,0.24 -0.83,-0.09 -0.99,-0.44 -2,-0.4 -2.97,0.07 -0.47,0.23 -0.39,0.29 -0.57,0.11 -0.17,-0.17 -0.29,-0.3 -0.45,-0.45 -0.13,-0.13 -0.33,-0.34 -0.46,-0.44 0.01,-0.19 0.22,-0.49 -0.05,-0.9 -0.14,-0.21 -0.42,-0.35 -0.79,-0.33 -0.14,0.06 -0.24,0.06 -0.39,0.19 -0.12,0.1 -0.17,0.2 -0.24,0.38 -0.06,0.16 -0.2,0.13 -0.35,0.24 -0.11,0.08 -0.22,0.19 -0.27,0.34 -0.14,0.35 -0.01,0.72 0.19,0.91 0.1,0.1 0.23,0.16 0.4,0.18 0.24,0.03 0.33,-0.05 0.54,-0.07 0.08,0.02 0.81,0.8 1.03,0.97l-0.25 0.57c-0.09,0.22 -0.1,0.16 -0.57,0.26 -0.16,0.03 -0.29,0.07 -0.44,0.11 -2.1,0.52 -0.71,1.05 0.32,1.29 0.53,0.13 0.38,0 0.56,0.54 0.11,0.33 0.25,0.65 0.44,0.94 0.04,0.06 0.08,0.09 0.13,0.15 -0.03,0.07 -1.18,1.23 -1.22,1.24 -0.31,-0.03 -0.34,-0.16 -0.71,-0.04 -0.56,0.19 -0.68,1.02 -0.12,1.36 0.07,0.04 0.25,0.1 0.29,0.14 0.04,0.04 0.26,0.86 1.07,0.61 0.22,-0.07 0.37,-0.22 0.45,-0.42 0.15,-0.38 -0.04,-0.45 -0.03,-0.73l1.27 -1.29c0.09,0.02 0.14,0.05 0.19,0.1 -0,0.09 -0.1,0.31 -0.14,0.42 -0.04,0.15 -0.08,0.31 -0.11,0.46 -0.06,0.35 0.06,0.66 0.22,0.91 0.65,0.97 2.57,0.84 3.2,-0.02 0.33,-0.45 0.26,-0.85 0.11,-1.36 -0.03,-0.11 -0.13,-0.33 -0.14,-0.43 0.21,-0.11 0.18,-0.06 0.41,0.17l0.7 0.66c0.54,0.51 0.29,0.25 0.27,0.72 -0.01,0.14 0.02,0.26 0.07,0.37 0.09,0.19 0.24,0.36 0.44,0.44 0.79,0.31 1.02,-0.55 1.06,-0.59 0.02,-0.02 0.85,-0.34 0.63,-1.06 -0.07,-0.23 -0.2,-0.39 -0.41,-0.47 -0.39,-0.16 -0.51,0.03 -0.77,0.01 -0.09,-0.06 -1.15,-1.11 -1.19,-1.19 0.02,-0.08 0.16,-0.24 0.22,-0.33 0.15,-0.23 0.27,-0.48 0.35,-0.75 0.14,-0.43 0.02,-0.48 0.26,-0.54 0.07,-0.02 0.16,-0.04 0.23,-0.06 0.15,-0.04 0.29,-0.07 0.44,-0.12 0.22,-0.07 1.09,-0.27 1.05,-0.59 -0.02,-0.14 -0.17,-0.2 -0.3,-0.26 -0.66,-0.32 -1.53,-0.43 -1.7,-0.5 -0.09,-0.04 -0.14,-0.25 -0.19,-0.35 -0.07,-0.13 -0.16,-0.26 -0.21,-0.36 0.07,-0.13 0.57,-0.55 0.73,-0.72 0.39,-0.42 0.28,-0.25 0.63,-0.23 0.27,0.01 0.53,-0.09 0.7,-0.28 0.06,-0.07 0.15,-0.26 0.18,-0.28z"/>
   <path class="fil1" d="M5.21 6.9c0.5,-0.15 0.68,0.61 0.23,0.73 -0.51,0.14 -0.7,-0.59 -0.23,-0.73zm1.39 -1.9c0.58,-0.11 1.06,0.3 1.16,0.78 0.11,0.59 -0.31,1.08 -0.8,1.16 -0.58,0.1 -1.05,-0.3 -1.14,-0.79 -0.12,-0.6 0.32,-1.07 0.79,-1.16zm-2.99 0.01c0.61,-0.18 1.08,0.28 1.2,0.71 0.17,0.6 -0.26,1.09 -0.7,1.21 -1.22,0.34 -1.84,-1.52 -0.5,-1.92zm-1.53 -0.06c-0.02,0.42 0.13,0.99 0.28,1.31 0.2,0.43 0.39,0.65 0.66,0.93 0.43,0.45 1.41,0.89 2.29,0.88 0.96,-0.01 1.8,-0.42 2.29,-0.88 0.22,-0.21 0.5,-0.55 0.66,-0.92 0.13,-0.29 0.32,-0.92 0.28,-1.31 -0.84,-0.35 -2.18,-0.44 -3.23,-0.45 -1.13,-0.01 -2.29,0.1 -3.23,0.44z"/>
   <path class="fil2" d="M1.82 5.15c0.03,-0.29 -0.09,-0.24 0.19,-0.36 1.46,-0.62 4.75,-0.61 6.21,-0.14 0.7,0.22 0.58,0.24 0.59,0.49 0.18,0.02 0.62,-0.11 0.78,-0.17 0.11,-0.04 0.58,-0.19 0.68,-0.28 -0.09,-0.15 -0.82,-0.36 -1.04,-0.42 -0.38,-0.11 -0.77,-0.17 -1.19,-0.24 -1.53,-0.24 -3.88,-0.21 -5.41,0.02 -0.48,0.07 -1.95,0.3 -2.28,0.6 0.03,0.07 0.07,0.08 0.14,0.12 0.33,0.18 0.98,0.43 1.32,0.38z"/>
   <path class="fil2" d="M7.97 3.35l0.04 0 -0.01 -0.04c-0.19,-0.35 -0.68,-0.79 -1.04,-0.99 -1.21,-0.69 -2.85,-0.48 -3.86,0.45 -0.12,0.11 -0.42,0.4 -0.49,0.58 0.42,-0.02 0.88,-0.09 1.31,-0.12 0.6,-0.05 2.17,-0.06 2.75,0 0.22,0.02 0.44,0.03 0.65,0.05 0.19,0.02 0.48,0.07 0.64,0.07z"/>
   <path class="fil1" d="M9.54 9.82l0.03 -0.36 0.31 -0.01c0.28,-0.04 0.49,-0.49 0.27,-0.79 -0.06,-0.09 -0.23,-0.22 -0.4,-0.23 -0.26,-0.02 -0.3,0.11 -0.46,0.16 -0.21,-0.16 -1.17,-1.22 -1.36,-1.33 -0.08,0.03 -0.54,0.39 -0.61,0.47 0.01,0.09 0.25,0.31 0.33,0.39 0.19,0.2 0.99,0.96 1.04,1.08 -0.08,0.14 -0.17,0.22 -0.17,0.44 0,0.41 0.42,0.54 0.7,0.47 0.16,-0.04 0.24,-0.14 0.3,-0.28z"/>
   <path class="fil1" d="M0.75 9.45l0.33 0.02 0.02 0.32c0.03,0.45 0.99,0.49 1,-0.15 0,-0.26 -0.09,-0.29 -0.16,-0.44 0.04,-0.1 0.85,-0.9 1.04,-1.09 0.11,-0.11 0.28,-0.24 0.35,-0.36 -0.04,-0.07 -0.24,-0.21 -0.31,-0.26 -0.09,-0.07 -0.22,-0.19 -0.31,-0.23l-1.02 1.01c-0.11,0.11 -0.21,0.23 -0.34,0.33 -0.01,-0 -0.51,-0.43 -0.86,0.07 -0.21,0.3 -0.02,0.73 0.27,0.79z"/>
   <path class="fil1" d="M1.07 0.93c-0.27,0 -0.34,-0.03 -0.52,0.14 -0.32,0.32 -0.15,0.74 0.22,0.88 0.24,0.09 0.41,-0.05 0.55,-0.14 0.18,0.08 1.03,1.1 1.18,1.14l0.55 -0.53c-0.03,-0.08 -0.47,-0.53 -0.56,-0.61 -0.1,-0.09 -0.18,-0.19 -0.28,-0.29 -0.08,-0.09 -0.23,-0.21 -0.28,-0.31 0.09,-0.16 0.19,-0.25 0.16,-0.53 -0.05,-0.41 -0.57,-0.52 -0.86,-0.29 -0.21,0.17 -0.11,0.26 -0.16,0.54z"/>
   <path class="fil1" d="M8.69 1.21c-0.06,0.12 -0.44,0.47 -0.56,0.6l-0.56 0.6 0.54 0.55c0.09,-0.05 0.49,-0.47 0.59,-0.58 0.1,-0.1 0.18,-0.18 0.28,-0.29 0.08,-0.08 0.21,-0.25 0.32,-0.29 0.15,0.08 0.27,0.22 0.53,0.14 0.3,-0.09 0.57,-0.49 0.27,-0.86 -0.18,-0.22 -0.29,-0.12 -0.55,-0.17 -0.02,-0.24 0.02,-0.4 -0.15,-0.53 -0.13,-0.1 -0.36,-0.15 -0.54,-0.08 -0.15,0.06 -0.29,0.19 -0.32,0.36 -0.05,0.29 0.05,0.38 0.15,0.55z"/>
   <path class="fil1" d="M6.86 9.24l0.01 -0.1 -0.07 0.02c-0.09,0.02 -0.22,0.1 -0.33,0.14 -0.37,0.14 -0.79,0.23 -1.2,0.22 -0.43,-0.01 -0.79,-0.09 -1.17,-0.25 -0.11,-0.04 -0.21,-0.12 -0.32,-0.15 -0.06,1.44 3.02,1.42 3.09,0.11z"/>
   <path class="fil3" d="M2.35 3.85l1.44 -0.13c0.52,-0.03 1.01,-0.06 1.53,-0.06 0.61,0.01 1.62,0.05 2.24,0.12 0.24,0.03 0.49,0.07 0.74,0.07 -0.03,-0.32 -0.15,-0.27 -0.55,-0.33 -0.76,-0.11 -1.64,-0.15 -2.42,-0.16 -0.56,-0.01 -1.11,0.02 -1.66,0.07 -0.26,0.02 -0.51,0.06 -0.76,0.09 -0.29,0.04 -0.5,0.03 -0.54,0.33z"/>
   <path class="fil1" d="M5.42 9.32c0.24,0.01 0.7,-0.08 0.88,-0.18 0.01,-0.11 -0.05,-0.28 -0.11,-0.36l-0.76 0.12c-0.03,0.12 -0.02,0.29 -0.01,0.42z"/>
   <path class="fil1" d="M4.35 9.15c0.19,0.1 0.63,0.19 0.88,0.17l-0.01 -0.42 -0.79 -0.1c-0.05,0.08 -0.1,0.26 -0.09,0.35z"/>
   <path class="fil1" d="M5.4 8.4c-0.05,0.41 0.15,0.32 0.45,0.28 0.09,-0.01 0.27,-0.01 0.3,-0.09 0.04,-0.09 -0.02,-0.27 -0.06,-0.32 -0.02,-0.02 -0.58,0.01 -0.69,0.13z"/>
   <path class="fil1" d="M4.5 8.6c0.05,0.06 0.05,0.05 0.2,0.07 0.43,0.06 0.51,0.14 0.54,-0.14 0.02,-0.22 -0.09,-0.2 -0.27,-0.22 -0.1,-0.02 -0.34,-0.07 -0.43,-0.04 -0.05,0.07 -0.09,0.25 -0.05,0.33z"/>
   <path class="fil1" d="M4.17 9.08c0.05,-0.08 0.07,-0.26 0.07,-0.35 -0.07,-0.04 -0.3,-0.14 -0.39,-0.14 -0.05,0.06 -0.09,0.21 -0.08,0.31 0.09,0.07 0.29,0.19 0.41,0.18z"/>
   <path class="fil1" d="M6.41 8.73c-0,0.11 0.01,0.27 0.07,0.36 0.1,0.01 0.3,-0.1 0.4,-0.18 0.02,-0.1 -0.01,-0.24 -0.07,-0.31 -0.1,-0 -0.33,0.1 -0.4,0.13z"/>
   <path class="fil4" d="M6.29 8.2c-0,0.09 0.03,0.25 0.08,0.34l0.4 -0.14 -0.12 -0.29c-0.09,0 -0.27,0.05 -0.37,0.09z"/>
   <path class="fil4" d="M4.36 8.21l-0.35 -0.09 -0.12 0.27c0.06,0.06 0.3,0.15 0.4,0.15l0.07 -0.33z"/>
   <path class="fil5" d="M9.54 9.82c0.04,-0.06 -0.02,0.09 0.03,-0.05l0.02 -0.12c0.01,-0.06 -0,-0.11 -0,-0.18 0.09,-0.01 0.09,0.02 0.17,0.02 0.06,-0 0.09,-0.02 0.13,-0.05l-0.31 0.01 -0.03 0.36z"/>
   <path class="fil6" d="M1.1 9.78l-0.02 -0.32 -0.33 -0.02c0.09,0.08 0.18,0.03 0.31,0.03 0,0.08 -0.03,0.27 0.04,0.31z"/>
   <path class="fil7" d="M6.86 9.24c0.02,-0.03 0.02,0.05 0.03,-0.06 0,-0.06 -0.01,-0.03 -0.02,-0.05 -0.08,0.01 -0.03,-0.01 -0.07,0.04l0.07 -0.02 -0.01 0.1z"/>
   <path class="fil8" d="M7.97 3.35c0.03,0.03 -0.04,0.02 0.07,0.03 0,-0.12 -0,-0.03 -0.03,-0.07l0.01 0.04 -0.04 -0z"/>
  </g>
 </g>
</svg>
