<?xml version="1.0" encoding="UTF-8"?>
<!DOCTYPE svg PUBLIC "-//W3C//DTD SVG 1.1//EN" "http://www.w3.org/Graphics/SVG/1.1/DTD/svg11.dtd">
<!-- Creator: CorelDRAW -->
<svg xmlns="http://www.w3.org/2000/svg" xml:space="preserve" width="66.9109mm" height="88.5531mm" version="1.1" style="shape-rendering:geometricPrecision; text-rendering:geometricPrecision; image-rendering:optimizeQuality; fill-rule:evenodd; clip-rule:evenodd"
viewBox="0 0 1060.65 1403.71"
 xmlns:xlink="http://www.w3.org/1999/xlink"
 xmlns:xodm="http://www.corel.com/coreldraw/odm/2003">
 <defs>
  <style type="text/css">
   <![CDATA[
    .fil0 {fill:#08090B}
    .fil19 {fill:#0A0A0B}
    .fil4 {fill:#0A0B2C}
    .fil6 {fill:#0A0B2D}
    .fil24 {fill:#0C0C0D}
    .fil12 {fill:#1C2CF4}
    .fil15 {fill:#321B12}
    .fil28 {fill:#642E00}
    .fil10 {fill:#683000}
    .fil5 {fill:#707F8D}
    .fil21 {fill:#AF5D00}
    .fil20 {fill:#B60134}
    .fil3 {fill:#C1C8D4}
    .fil23 {fill:#C37C2E}
    .fil2 {fill:#C76C00}
    .fil25 {fill:#C87D2B}
    .fil7 {fill:#C8802D}
    .fil26 {fill:#C97271}
    .fil17 {fill:#CCA8AB}
    .fil14 {fill:#D3D53B}
    .fil27 {fill:#DEDEDE}
    .fil22 {fill:#E4C7CA}
    .fil18 {fill:#F8DA99}
    .fil8 {fill:#F8EAE5}
    .fil1 {fill:#F9D3CE}
    .fil11 {fill:#F9E8BD}
    .fil16 {fill:#FBFBFC}
    .fil9 {fill:#FDFDFD}
    .fil13 {fill:#FEFEFE}
   ]]>
  </style>
 </defs>
 <g id="Camada_x0020_1">
  <metadata id="CorelCorpID_0Corel-Layer"/>
  <g id="_2598206449920">
   <path class="fil0" d="M4.28 864.84l3.41 3.33c11.44,13.47 15.33,20.71 30.43,37.06 17.99,19.5 14.12,14.39 51.39,24.15 25.15,6.58 101.05,28.85 123.46,28.22 14.33,-27.87 56.38,-189.2 65.24,-198.77 9.12,2.99 68.99,64.41 71.72,76.19 4.69,3.38 8.41,8.78 11.19,13.56 9.24,-1.31 2.65,-3.98 10.53,-0.72 0.89,0.37 5.82,4.05 6.67,4.66 23.02,16.25 52.57,16.99 53.5,17.46 3.62,3.99 10.76,17.85 15.48,24.33 30.91,42.36 65.25,4.43 88.66,10.98 2.18,6.2 1.68,16.96 1.73,24.87 0.13,21.61 -21.29,50.07 -19.14,57.77 2.25,8.06 23.43,14.23 28.5,20.88 -3.18,5.74 -16.47,13.81 -31.05,32.25 -13.74,17.38 -8.69,22.18 -37.23,25.62 -110.88,13.37 -121.27,9.05 -87.73,54.08 7.29,9.79 15.27,19.26 22.99,28.43 7.98,9.48 16.69,18.25 24.94,26.45 7.65,7.6 17.28,17.46 29.43,21.95 -1.09,8.58 -10.28,17.76 -15.03,24.94 -5.12,7.73 -10.09,15.58 -14.79,23.8 -9.26,16.22 -16.63,35.92 -25.54,51.5 -5.21,9.1 -24.64,23.59 -37.71,39.33 -9.26,11.15 -23.21,33.68 -21.63,54.82 6.58,6 6.45,10.37 19.39,11.35 8.3,0.62 58.06,0.85 63.1,-2.13 18.05,-10.7 20.51,-52.43 24.82,-74.98 4.48,-23.48 11.27,-30.1 26.47,-40.72 24.87,-17.38 53.44,-37.34 92.56,-38.18 41.76,-0.9 92.6,-3.15 133.63,-0.73 12.79,19.93 13.9,13.64 65.64,9.6 14.11,-1.1 27.57,-5.32 36.5,3.47l40.58 44.55c5.62,5.8 16.3,16.58 19.7,23.72 15.14,31.76 -57.75,71.09 17.18,68.15 11.39,-0.45 25.74,-0.75 29.93,-10.53 8.8,-20.54 -6.73,-48.26 -11.96,-65.56 -6.75,-22.31 -11.96,-39.12 -20.07,-60.11 -3.58,-9.27 -8.05,-19.79 -12.58,-27.62 -4.63,-8 -16.16,-19.09 -16.97,-23.67 10.73,-0.2 12.09,8.39 23.97,-0.26 25.85,-18.83 55.88,-52.22 78.54,-74.01 6.33,-6.08 25.91,-23.27 25.25,-35.4 -17.96,-7.43 -41.13,-12.15 -61.34,-17.14l-67.33 -13.19c-4.56,-15.09 8.61,-38.3 12.22,-59.08 4.89,-28.13 21.48,9.32 21.5,9.37 5.31,8.17 11.78,15.33 19.52,20.61 16.61,11.33 5.41,9.56 12.19,28.04 9.52,25.96 47.25,8.36 51.48,-5.02 3.28,-10.38 -8.63,-19.23 -13.45,-25.07 -9.11,-11.05 -3.16,-16.94 -9.12,-31.01 -3.96,-9.34 -11.01,-19.2 -13.33,-26.51 7.35,-13.07 10.8,-14.01 7.3,-35.02 -2.43,-14.62 -9.78,-22.16 -11.78,-30.82 6.61,-3.67 12.46,-3.88 19.8,-8.38 7.92,-4.86 9.97,-8.49 16.21,-12.71 7.35,-4.96 12.54,-4.92 16.05,-12.99 6.09,-13.99 -5.68,-52.08 -40.41,-33.86 -7.5,3.94 -13.47,4.73 -21.26,7.76 -8.77,3.41 -13.29,8.78 -19.96,10.85 -9.61,-6.24 4.16,-2.11 -19.4,-14.58 -1.54,-30.95 -6.82,-26.21 -7.53,-36.8 26.32,-7.86 39.63,-12.05 58.31,-26.86 26.67,-21.14 21.15,-22.52 39.76,-45.17 3.28,11.46 -15.4,46.88 -16.51,53.67 23.02,-10.14 44.23,-48.06 49.45,-77.18 9.77,-54.45 3.81,-76.52 6.27,-120.19l11.25 40.9c6.17,32.7 8.01,60.88 9.96,94.09 0.53,9.04 -1.61,45.43 0.12,48.83 5.37,-7.59 15.43,-63.46 17.11,-76.51 8.2,-63.68 4.16,-112.56 -10.05,-173.64 -4.84,-20.82 2.54,-63.86 3.87,-87.86 3.4,-61.54 -2.77,-119.11 -13.4,-177.27 -9.92,-54.33 -32.22,-97.33 -59.59,-131.45 -26.34,-32.83 -45.71,-42.33 -90.17,-53 -19.03,-4.56 -22.57,-0.99 -32.44,-15.47 -36.68,-53.83 -65.08,-30.71 -93.69,-49.27 -24.07,-15.61 -43.37,-22.81 -72.79,-11.32 -16.91,6.6 -20.47,6.88 -40.65,6.65 -106.85,-1.2 -202.02,77.26 -210.64,78.76 -5.48,9.04 -79.77,52.26 -137.61,166.43 -15.66,30.9 -15.95,39.03 -25.64,62.62 -3.05,7.43 -0.13,3.85 -5.65,6.35 -1.97,-34.29 17.86,-31.99 -24.42,-44.3 -29.1,-8.47 -27.58,-11.12 -48.32,14.22 -51.22,62.55 -71.57,120.9 -102.51,196.19 -6.92,16.85 -36.99,108.95 -39.34,110.52 -18.2,5.78 -14.23,-1.27 -21.96,19.26 -5.29,14.04 -17.73,52.59 -10.35,65.46 3.12,5.44 17.14,18.9 18.32,21.81 2.33,5.76 -13.57,53.56 -16.35,63.31 -2.73,9.53 -16.2,55.85 -19.44,60.84 -3.54,16.6 -6.21,14.83 0.67,31.07zm780.46 136.27c-0.31,12.96 5.69,18.04 13.04,24.41 4.92,4.26 16.01,15.01 21.57,16.92 8.21,-7.51 9.17,-16.01 7.01,-29.38 -2.49,-15.43 1.28,-23.45 2.37,-36.73 1.21,-14.73 -8.27,-15.65 -15.88,-22.04 -12.74,-10.71 -3.74,-18.57 -3.33,-30.6 -5.16,-3.76 -9.7,-4.49 -15.13,-8.75 -5.38,-4.22 -6.42,-9.51 -13.47,-10.27 -8.04,28.56 28.93,61.75 23.39,79.29 -2.39,7.56 -13.85,11.98 -19.58,17.15zm94.03 -213.77c3.05,-1.89 0.57,1.36 3.49,-3.23l6.24 -18.21 -10.74 3.82c-0.55,6.72 -1.75,12.94 1.01,17.62zm-89.92 66.62c1.7,-6.46 1.34,-14.23 2.74,-20.88 1.74,-8.24 5.21,-12.37 3.27,-21.36 -6.4,-2.81 -33.33,3.18 -39.56,7.6 1.15,10.21 3.2,1.4 15.25,18.33 4.9,6.89 8.03,17.33 18.3,16.31z"/>
   <path class="fil1" d="M907.67 617.19c-2.99,-6.76 1.89,-34.07 2.29,-44.78 0.39,-10.05 1.73,-35.61 13.76,-37.81 3.89,5.86 -3.69,31.17 -5.82,41.11 -2.5,11.68 -4.63,33.41 -10.24,41.48zm-159.59 -114.97c1.6,-4.66 -0.05,-4.51 5.55,-7.06 6.4,-2.91 57.57,-10.5 66.76,-5.04 -7.01,6.17 -25.42,4.55 -36.01,5.83 -11.6,1.4 -25.13,6 -36.3,6.27zm-16.14 -52.96l58.18 -41.36c7.31,-5.63 21.12,-17.64 29.23,-20.62 -5.1,10.4 -38.3,41.59 -48.98,50.64 -15.39,13.05 -44.06,37.46 -65.82,32.39 0.85,-6.08 21.62,-17.34 27.39,-21.05zm-172.87 60.07c-7.52,0.56 -25.43,-6.66 -34.26,-8.49 -13.63,-2.82 -30.91,-0.36 -40.85,-2.89 1.14,-4.9 0.14,-4.52 6.38,-5.54 15.75,-2.58 62.95,2.33 68.72,16.92zm-88.13 146.18c-7.58,4.29 -13.64,-0.77 -26.88,-10.04 -5.33,-3.73 -17.62,-12.32 -15.56,-22.71 6.69,0.08 7.47,6.28 20.73,15.9 3.66,2.66 7,5.05 11.48,7.8 12.09,7.4 8.71,3.88 10.23,9.05zm11.17 -41.23l8.58 -3.48c4.86,-2.25 13.7,-10.19 6.15,-20.72 -11.42,-0.21 -13.08,-3.01 -28.37,-0.97l-5.59 -7.11c-9.95,4.12 -20.26,8.46 -30.42,12.67 -30.96,12.83 -13.58,-2.03 -22.09,-7.33l-10.27 -0.45c3.19,-11.86 20.16,-16.22 25.61,-27.73 -4.41,-10.57 -12.52,-8.09 -11.42,-26.03 10.18,3.4 12.64,14.18 21.28,19.19 5.85,-2.2 8.28,-4.87 13.76,-8.3 4.5,-2.82 10.07,-4.63 13.71,-8.95 -4.08,-8.62 -10.24,-9.9 -10.26,-22.81 9.19,0.81 14.22,11.48 17.65,16.69 12.48,1.67 29.44,-7.41 43.83,-8.76 42.57,-4.02 66.77,74.78 63.94,85.06 -10.37,-0.07 -9.49,-9.29 -17.38,-14.79 -4.58,10.2 -3.35,16.58 -10.85,28.45 -30.3,47.91 -68.87,5.8 -67.87,-4.64zm438.64 32.56c0.59,-8.4 3.98,-18.33 2.02,-24.89 3.12,-54.63 19.02,-86.84 19.76,-95.2 1.35,-15.34 -6.3,-57.99 -10.7,-75.27 -1.09,-4.28 -1.88,-7.24 -3.11,-11.15l-2.79 -7.11c-1.24,-2.12 -1.17,-1.88 -2.3,-3.1 -1.63,68.91 -6.57,86.62 -25.41,145.38 -3.8,11.84 1.85,8.51 3.81,20.07l-9.66 -2.94 -10.27 23.04c-5.96,-1.33 -2.2,1.32 -3.43,-5.11 -3.66,4.6 -3.09,-6.48 -3.09,6.96 0.23,-3.15 1.88,-4.24 -1.94,-5.52 -10.58,-3.56 -3.58,-1.22 -6.09,1.94 7.07,0.41 2.35,-2.02 5.56,1.43 -2.59,8.83 -1.63,10.2 -8.13,15.12 -5.68,4.28 -5.32,6.36 -10.42,10.47 -0.98,0.79 -18.55,12.4 -22.35,12.49 -7.42,0.18 -8.02,-3.12 -8.54,-3.75 -13.77,4.73 -45.23,0.15 -56.52,-7.69 -4.45,-3.09 -11.33,-13.08 -15.02,-17.19 -14.35,-15.99 -9.54,-9.14 -8.97,-18.62 -3.21,1.15 -1.12,0.94 -4.68,0.32 -4.25,-14.22 -0.24,-38.2 3.22,-52.99 3.7,-15.83 9.9,-36.22 24.71,-37.97 29.55,-3.5 60.31,24.69 73.45,16.05 6.97,-4.57 9.09,-11.08 18.16,-14.35 -0.29,11.54 -10,12.74 -13.3,22.65 3.28,3.73 9.33,6.76 13.69,9.22 8.46,4.78 11.76,2.79 17.86,-2.11 15.55,-12.5 16.23,-5.81 16.84,-31.19 0.79,-32.5 -3.37,-61.04 -4.26,-91.74 -1.41,-1.82 -8.7,-18.35 -10.3,-21.94 -3.15,-7.08 -4.88,-16.1 -6.96,-23.41 -6.79,-23.89 -43.59,-116.94 -55.44,-128.43 -5.9,2.59 -74.68,64.96 -95.25,73.22 -3.35,6.13 -1.09,2.16 -6.16,5.81 -2.78,2.01 -2.54,2.15 -5.28,4.28 -4.83,3.74 -8.24,4.33 -15.23,4.82 -4.35,1.06 -9.48,6.48 -16.41,11.76 -5.95,4.54 -11.53,8.8 -17.4,13.12 -33.14,24.35 -71.24,51.75 -107.56,72.03 5.36,10.01 51.65,30.76 53.82,39.6 -29.9,6.14 -48.92,-22.97 -65.12,-31.63 -7.05,1.76 -118.83,61.07 -120.84,63.14 -4.81,20.5 -22.89,22.69 -25.99,32.59 -0.97,3.09 -6.1,48.8 -5.88,51.44 0.9,20.03 18.26,52.95 19,72.99 0.32,8.68 -1.71,24.46 0.66,31.79 6.25,19.3 34.37,-10.1 58.98,27.98 6.66,10.31 5.03,12.9 6.38,25.43 5.49,6.13 16.4,12.86 23.65,18.35 7.74,5.87 15.42,11.54 24.63,17.15 28.67,17.44 24.63,15.69 62.92,20.55 14.18,1.8 21.43,7.63 33.49,8.5 12.72,0.92 27.25,0.85 40.21,1.24 26.21,0.79 51.98,-1.58 76.63,-6.88 1.45,-19.1 -9.81,-9.61 -37.77,-6.76 -18.12,1.84 -35.58,2.54 -54.92,2.13 -13.99,-0.3 -40.1,-1.8 -51.8,-5.76 -10.35,-3.51 -8.88,-5.17 -14.13,-14.74 -3.76,-6.84 -8.74,-9.71 -11.8,-15.21 12.63,-1.95 29.48,0.04 61.63,-5.74 33.58,-6.03 72.72,-17.86 102.23,-32.55 7.79,-3.88 15.12,-8.07 21.59,-12.23 5.56,-3.58 16.88,-8.83 17.56,-16.22 -7.18,-2.8 -9.89,0.58 -13.84,-4.82 5.08,-3.88 35.45,-4.46 37.9,22.58 2.22,24.55 -17.68,33.78 0,49.84 11.3,-1.53 23.86,-13.63 52.65,-10.55 19.22,2.06 18.13,11.72 44.98,-12.4 13.73,-12.33 14.78,-22.83 19.13,-45.15 3.55,-18.22 8.76,-36.19 11.92,-53.13z"/>
   <path class="fil2" d="M999.07 382.27c-3.42,-4.29 -18.57,-47.03 -22.94,-56.9 -18.06,-40.73 -46.45,-96.36 -70.37,-133.59 -5.02,-7.82 -15.55,-17.74 -17.24,-24.27 23.54,4.07 65.91,55.31 78.64,84.92 7.36,17.12 37.5,116.07 31.91,129.83zm-584.22 63.99c-9.33,9.11 -13.91,30.2 -13.47,46.02l-0.81 7.49c1.31,1.72 -2.66,1.94 2.87,1.13l63.69 -32.01c9.01,-4.6 59.82,-28.59 63.47,-34.96 -8.1,-11.09 -35,-29.36 -37.94,-42.37 8.25,3.49 10.13,7.74 16.96,11.51 -0,-5.09 1.2,-1.23 6.15,-2.56 10.77,-2.88 3.26,-3.03 14.03,-8.87 28.02,-15.18 32.81,-19.42 59.31,-38.63 7.25,-5.25 10.99,-8.95 17.78,-14.32l73.67 -58c7.72,-8.39 8.98,-8.71 16.72,-15.41 6.28,-5.44 10.43,-10.16 16.04,-16.05 11.92,-12.51 6.78,-1.6 25.74,-24.02 1.97,-2.33 5.36,-5.57 7.87,-8.21l31.26 -34.59c5.45,-6.09 8.75,-14.1 18.68,-15.34 4.15,-3.26 4.73,-6.38 11.15,-9.24 -0.75,11.02 -3.03,13.41 -7.7,19.6 1.53,5.05 -28.42,45.94 -30.15,55.33 -1.92,9.96 -0.55,3.04 1,5.83 5.64,-3.25 21.23,-21.51 26.07,-27.49 4.94,-6.11 7.54,-7.5 12.91,-12.8 4.58,-4.51 7.2,-10.89 14.01,-13.64 13.33,7.42 26.65,35.2 34.48,51.15 4.47,9.11 8.92,19.53 13.11,28.59 7.82,16.93 1.56,19.08 22.27,21.87l-0.39 -6.14c8.16,5.03 21.96,46.64 25.2,58.49 12.3,12.86 31.53,83.01 35.41,88.63 3.09,-4.18 -0.52,-21.32 -1.38,-28.64 -1.22,-10.4 -2.3,-21.7 -4.14,-31.9 -0.72,-15.06 -15.07,-53.14 -12.14,-60.09 6.66,5.76 5.83,10.56 9.93,15.67 0.64,-4.32 -0.97,-1.55 2.92,-3.22 12.46,8.53 49.93,143.65 54.85,159.63 4.95,16.07 8.16,45.38 22.23,49.25 5.87,-8.13 1.66,-12.78 -0.93,-19.23 -2.7,-6.71 -2.6,-14.97 -4.62,-22.76 -2.8,-10.75 -15.42,-34.15 -7.61,-45.31 -1.75,-6.1 -9.49,-33.25 -9.06,-36.86 7.1,4.53 9.59,17.31 13.77,25.45 10.38,-14.5 13.56,3.88 10.48,-54.66 -1.23,-23.37 -10.58,-99.3 -15.02,-122.03 -4.23,-21.65 -9.98,-32.92 -18.37,-50.63 -16.89,-35.67 -27.04,-51.73 -56.28,-80.18 -37.39,-36.39 -88.34,-16.95 -97.51,-40.42 -6.48,-7.41 -12.63,-13.96 -19.78,-20.58 -4.04,-3.74 -6.94,-6.79 -10.65,-10.19 -6.32,-5.79 -6.83,-4.64 -15.84,-2.36 2,3.89 17.63,26.82 18.59,31.96 1.05,5.65 1.94,2.66 -1.38,5.35 -1.7,16.39 -22.65,-18.28 -23.47,-19.29 -15.06,-18.48 -64.81,-63.09 -81.82,-48.79l7.12 6.11c-1.54,0.23 -1.19,0.38 -3.48,0.32 -10.58,-0.26 -26,-4.69 -51.89,-4.24 -12.51,0.22 -50.61,1.95 -58.97,6.81l3.57 0.41c-24.66,5.94 -87.27,36.56 -109.02,51.58 -6.38,4.41 -27.92,18.75 -29.87,23.05l-1.04 3.59c14.23,2.11 5.2,2.37 13.42,9.76l2.36 1.82c0.33,0.26 0.91,0.58 1.32,0.94 -2.38,7.12 -23.89,29.77 -30.09,37.38 -19.24,23.6 -41.03,53.28 -57.2,79.36 -7.3,11.78 -20.67,41.97 -23.5,43.27 -4.34,-7.86 6.17,-37.72 9.01,-46.55 7.43,-23.13 20.71,-37.6 34.77,-55.2 8.38,-10.49 40.07,-38.31 41.34,-43.75 2.76,-6.07 1.08,-1.63 -0.01,-3.06 -5.11,2.47 -3.65,3.12 -9.5,-0.14 -6.66,-3.72 0.12,-4.06 -8.17,-3.99 -15.55,8.44 -82.66,90.63 -98.13,117.85l-23.94 48.76 13.21 1.6c-0.35,-2.73 0.18,-2.5 1.28,-4.44 12.78,0.19 25.52,4.16 37.37,6.06 44.62,7.15 30.34,22.93 53.9,-23.17l34.78 -61.63c4.36,-7.62 14.79,-21.61 20.49,-27.83l4.18 1.89c4.47,-2.9 2.62,-1.69 6.13,-5.92 2.71,-3.27 2.07,-3.9 6.84,-5.84 -4.47,15.66 -24.6,33.86 -32.4,61.73 5.31,-4.05 4.56,-6.61 8.62,-10.14 7.62,-6.64 3.37,3.2 32.68,-25.12 9.48,-9.16 30.65,-28.86 40.97,-34.24l2.64 2.69 47.88 -31.13c4.43,-0.43 1.7,-1.09 4.18,1.18 4.11,-1.97 6.84,-4.95 11.54,-7.92 14.34,-9.06 25.05,-14.93 41.96,-20.71 10.91,-3.73 57.92,-16.1 67.49,-10.2 -8.39,4.26 -31.3,8.4 -42.34,12.69 -13.57,5.28 -26.54,10.26 -39.93,16.28 -81.48,36.67 -101.42,60.72 -160.87,121.95 -4.1,4.22 -9.14,10.65 -13.35,15.55 -6.22,7.25 -7.18,7.4 -15.06,12.97l-5.2 6.12c-2.62,30.99 -20.77,73.6 -21.35,90.77 7.69,-3.23 16.16,-11.23 22.8,-16.24 7.79,-5.87 13.65,-10.66 20.89,-16.04 13.25,-9.85 30.3,-25.25 46.13,-30.55 7.26,-7.58 56.63,-41.06 72.33,-44.58 -3.83,8.36 -37.58,29.76 -47.31,37.08 -17.14,12.9 -31.04,26.48 -46.97,38.85 3.75,3.21 1.32,-1.9 2.3,4.41 1.24,7.98 0.81,2.06 -0.93,5.38l-34.66 33.12c-3.08,3.64 -1.34,3.34 -5.85,6.89l3.48 0.33c-4.09,10.88 -23.51,27.12 -29.36,37.15l-8.74 15.8zm-5.43 -199.8c-1.89,-24.31 39.47,-88.36 56.49,-88.83l-53.43 86.4c-2.54,2.57 0.68,0.22 -3.06,2.43z"/>
   <path class="fil3" d="M316.76 439.18c-0.46,0.24 -1.15,0.58 -1.39,0.68 -0.19,0.08 -0.94,0.38 -1.13,0.45l-1.22 0.05c4.18,-18.4 18.46,-36.95 22.13,-45.68 2.87,-6.85 27.1,-49.75 32.58,-55.86 3.9,-4.35 7.55,-5.76 8.65,-12.47 -8.09,-10.31 -55.25,-16.16 -62.27,-14.14 -9.25,2.67 -11.34,13.84 -16.3,22.53 -4.19,7.36 -13.89,15.75 -23.96,8 2.56,0.57 4.89,1.48 7.62,1.19 4.37,-0.46 5.81,-2.34 5.81,-2.34 -0.25,-0.15 1.02,-0.55 1.34,-1.01 -12.01,2.09 -16.48,-1.87 -26.56,-4.62 -8.64,-2.35 -18.27,-2.3 -25.88,-6.4 0.36,-13.73 16.59,-24.69 17.05,-33.02 -7.5,-3.29 -20.98,-3.52 -28.67,-6.22 -2.82,10.81 -3.04,-4.01 -20.04,21.76 -17.45,26.47 -31.39,44.68 -43.46,77.05 -13.38,35.87 38.37,40.61 69.12,44.63 8.71,1.14 30.79,2.36 29.94,10.62 12.19,4.17 18.12,2.29 19.81,8.83 -6.94,4.94 -53.25,-7 -64.43,-9.26 -10.27,-2.08 -21.53,-4.34 -32.32,-6.49 -21.77,-4.34 -25.58,-1.99 -27.66,-10.99l13.47 1.08c-1.9,-1.46 -1.15,-1.52 -4.83,-2.66 -1.99,-0.61 -2.7,-0.84 -4.91,-0.55 -10.28,1.34 -2.54,0.36 -5.97,3.52l-8.29 7.74c-6.32,6.34 -27.29,58.91 -31.61,69.54l-27.19 74.03c-3.17,10.19 -3.51,19.37 -5.73,24.46l-11.39 1.24c0.36,0.35 0.47,0.75 1.24,0.86l4.06 1.84c2.29,0.55 8.22,0.03 18.25,2.38 19.64,4.62 125.03,26.99 132.31,31.42 7.15,4.35 7.48,10.37 13.12,14.07l56.65 -163.22c7.31,-19.4 16.54,-32.05 22.06,-53.03z"/>
   <path class="fil4" d="M653.64 1174.82c9.68,-2.59 23.6,-9.63 29.26,-17.76 20.89,2.42 70.73,-14.85 97.21,-20.59 5.63,-1.22 11.53,-0.68 14.49,-3.51l-4.21 0.12c27.06,-17.07 25.41,-14.31 15.73,-39.37 7.42,3.67 12.1,10.45 18.04,16.26 11.6,11.33 8.29,9.41 3.12,23.42 9.67,3.06 -18.71,31.34 -21.86,40.71 9.38,7.1 50.34,18.94 62,17.67 -1.43,-10.94 -20.32,-31.45 -22.34,-46.42 25.69,2.61 20.31,67.44 50.44,34.39 10.51,-11.53 19.46,-17.94 29.16,-27.06l11.56 -9.02c5.75,-3.94 1.84,1.63 5.13,-5.25l-0.9 -0.1c7.72,-16.77 17.59,-15.01 -4.32,-24.7l-40.87 -18.36 -0.45 -7.76c-0.26,-10.1 0.83,-0.52 -3,-4.24l-0.13 9.09c-8.19,-0 -6.8,-0.06 -6.63,-8.24 -7.71,2.98 -1.4,3.84 -9.24,1.73 -10.39,-2.79 -8.94,-1.01 -10.9,-5.69 -7.68,3.11 -18.07,-5.58 -24.9,-8.48 -37.3,-15.85 -14.02,-9.12 -39.94,-27.58 -5.26,-3.74 -17.51,-12.64 -20.8,-13.79 1.75,17.79 28.99,45.28 29.29,59.7 -12.12,-4.31 -24.29,-28.75 -29.99,-38.81 -1.72,-3.04 -2.66,-4.63 -4.02,-7.09 -3.98,-7.22 1.04,-3.06 -5.65,-7.5 -7.62,-0.12 -8.19,-7.93 -14.72,-10.8l-44.43 -8.55c-8.11,-1.49 -15.63,-1.85 -20.4,-5.73 -6.94,0.42 0.52,-0.33 -5.77,1.08 -27.02,6.07 -25.1,0.16 -28.31,23.49l-8.19 50.8c4.04,6.01 0.36,34.65 0.11,43.95 -0.7,26.33 -0.63,26.78 8.9,40.15 -1.2,1.03 -1.48,2.79 -2.49,3.84z"/>
   <g>
    <path class="fil3" d="M109.59 780.38c0,0 0,0 0,0l0 0zm61.73 92.73c3.94,-3.63 8,-23.48 10.08,-30.04 3.18,-10.04 6.37,-20.36 9.77,-30.4 5.72,-16.93 13.09,-45.62 22.91,-56.75 1.05,-3.58 1.3,-2.69 -0.1,-6.68 -12.64,-7.29 -55.84,-14.43 -73.63,-18.11 -26.93,-5.57 -51.61,-10.48 -77.42,-16.53l-2.52 0 -27.53 100.12c-3.93,13.36 -3.49,23.75 8.67,29.3 22.35,10.21 41.9,10.57 49.58,14.63 14.5,7.67 32,9.57 49.56,14.61 14.92,4.28 20.62,5.83 30.34,-4.27l0.29 4.11z"/>
   </g>
   <path class="fil5" d="M323.12 564.72c-6.24,2.14 -1.5,0.99 -3.46,-0.73 -0.94,-16.46 -2.07,-32.95 -3.38,-49.62 -1,-12.71 -6.49,-39.52 -4.13,-50.39l-15.45 54.27c-7.49,25.24 -46.46,156.09 -50.06,161.59 -19.65,-0.02 -19.12,-19.61 -30.55,-25.73l-1.38 4.01c-0.16,0.24 -0.44,0.76 -1.04,0.94 -0.65,0.19 -0.83,0.58 -1.21,0.92 9.27,0.12 6.88,5.15 4.74,13.25l-13.3 49.74c6.23,10.02 21.06,17.74 22.5,34.76 -5.09,-3.21 -6.5,-5.67 -12.44,-8.48 1.4,3.99 1.15,3.1 0.1,6.68 1.8,2.08 1.21,-0.14 1.15,3.88l-25.9 91.12c-3.41,11.3 -14.74,38.18 -9.54,47.36l24.55 38.54c5.38,-5.1 26.28,-78.96 30.3,-91.91 22.91,-73.76 52.37,-158.76 73.83,-231.63 4.45,-15.13 9.35,-34.41 14.66,-48.56z"/>
   <path class="fil6" d="M554.09 1019.14c0.59,2.09 -30.01,34.58 -34.21,38.67 -12.53,12.24 -9.19,11.8 -10.05,7.2 -12.64,4.7 4.34,3.91 -26.1,27.69 -1.49,-2.57 -3.09,3.92 -0.01,-5.42 -12.36,7.78 -4.52,7.28 -24.05,7.82 -11.25,0.31 -20.7,1.49 -32.13,0.81 4.74,3.44 3.82,2.1 12.36,3.63 4.04,0.73 7.18,1.76 10.42,3.71 5.67,3.41 10.21,8.2 16.52,12.37 11.35,7.5 26.5,13.34 36.98,20.81 21.03,14.98 47,38.33 83.65,29.09 9.01,-26.48 -1.68,-5.9 16.74,-34.67 7.09,-11.08 1.67,1.69 14.81,-10.83 5.95,-5.66 7.53,-5.64 10.75,-15.2 4.83,-14.35 11.05,-22.45 12.47,-38.62 0.68,-7.77 5.32,-44.88 4.81,-47.03 -21.58,0.65 -8.79,16.55 -22.01,27.69 -2.1,-7.12 1.36,-14.83 1.79,-22.43 -30.68,-1.14 -20.69,13.76 -61.73,-3.73 -5.83,-2.48 -4.02,-0.33 -6.55,-4.51 -8.98,0.65 -1.06,-0.46 -4.47,2.94z"/>
   <path class="fil0" d="M410.35 587.35c5.79,-6.74 43.85,-25.42 54.68,-25.53 1.5,12.03 0.26,16.23 3.41,27.31 15.29,-2.04 16.95,0.77 28.37,0.97 14.75,4.32 3.28,13.16 17.85,15.39 12.41,1.89 11.75,-8.55 18.85,-12.98 4.97,4.03 12.95,9.72 8.74,18.56 -7.3,15.37 -21.31,27.18 -38.66,15 -8.3,-5.83 -8.52,-14.41 -21.51,-11.77 -1,10.44 37.57,52.54 67.87,4.64 7.5,-11.86 6.28,-18.25 10.85,-28.45 7.88,5.5 7.01,14.71 17.38,14.79 2.82,-10.28 -21.37,-89.08 -63.94,-85.06 -14.39,1.36 -31.35,10.43 -43.83,8.76 -3.43,-5.21 -8.45,-15.88 -17.65,-16.69 0.02,12.91 6.18,14.19 10.26,22.81 -3.64,4.32 -9.21,6.13 -13.71,8.95 -5.48,3.43 -7.91,6.11 -13.76,8.3 -8.63,-5.02 -11.09,-15.79 -21.28,-19.19 -1.11,17.93 7.01,15.46 11.42,26.03 -5.45,11.51 -22.42,15.87 -25.61,27.73l10.27 0.45z"/>
   <path class="fil7" d="M894.01 286.28c-20.71,-2.79 -14.45,-4.94 -22.27,-21.87 -4.18,-9.06 -8.64,-19.48 -13.11,-28.59 -7.83,-15.94 -21.14,-43.72 -34.47,-51.15 -6.82,2.75 -9.43,9.12 -14.01,13.64 -5.37,5.29 -7.96,6.69 -12.91,12.8 -4.84,5.98 -20.43,24.24 -26.07,27.49 -1.54,-2.8 -2.92,4.12 -1,-5.84 -6.7,3.13 -34.04,31.32 -40.1,37.94 -3.91,4.27 -2.02,1.28 -4.44,6.53l13.19 -5.52c-6.4,10.09 -14.09,13.17 -22.48,20.67 -8.65,7.73 -10.14,11.47 -22.69,20.64 -4.78,3.5 -7.71,5.58 -12.71,9.76 -4.81,4.02 -6.35,7.4 -10.42,10.46l-48.77 37.99c-6.52,6.41 -42.34,29.5 -52.3,34.32 -5.24,2.53 -10.69,4.46 -15.02,7.51 -17,11.95 -15.7,3.54 -27.88,-4.69 -6.37,-0.74 -2.28,-0.23 -4.47,-1.74 3.64,-6.57 29.59,-21.74 37.32,-27.07 50.86,-35.06 98.33,-73.26 143.41,-113.55l64.62 -63.82c6.42,-7.06 25.9,-27.77 29.44,-35.1 -9.94,1.24 -13.23,9.25 -18.68,15.34l-31.26 34.59c-2.5,2.64 -5.9,5.88 -7.87,8.21 -18.96,22.42 -13.81,11.51 -25.74,24.01 -5.61,5.89 -9.76,10.62 -16.04,16.05 -7.74,6.7 -9,7.02 -16.72,15.41l-73.67 58c-6.8,5.38 -10.53,9.07 -17.78,14.32 -26.49,19.21 -31.29,23.45 -59.31,38.63 -10.77,5.83 -3.26,6 -14.03,8.87 -4.96,1.32 -6.16,-2.54 -6.15,2.56l31.73 24.85c20.38,-2.97 131.36,-88.23 152.71,-108.02 39.76,-36.86 59.08,-52.04 99.71,-96.21 5.03,-5.47 27.08,-31.69 31.98,-33.21 7.72,6.82 30.32,57.13 36.37,70.65 28.29,63.31 42.47,161.19 41.18,232.21 -0.28,15.2 0.84,35.95 -6.26,47.92 16.43,-7.88 18.29,-104.45 17.13,-128.23 -2.14,-44.11 -8.14,-88.63 -20.17,-126.76z"/>
   <path class="fil3" d="M163.54 708.38c4.62,3.05 28.33,7.44 32.76,7.58 2.81,-4.35 9.75,-36.18 11.03,-42.76l-2.42 1.66c-0.15,0.1 -0.73,0.17 -0.99,0.42 -3.95,-7.82 1.47,-8.19 0.77,-18.15 -7.54,-5.99 -138.92,-32.16 -148.76,-21.62 -5.04,5.39 -18.13,29.16 -16.49,40.47 23.34,3.39 110.68,21.79 126.03,28.15 1.58,5.92 1.19,1.63 -1.93,4.25z"/>
   <path class="fil8" d="M398.31 782.09c-4.48,6.89 -3.12,11.7 -9.31,13.41 -4.22,-7.58 9.25,-32.56 15.88,-25.75 2.41,4.68 -3.11,7.01 -6.57,12.34zm-35.41 23.91c4.6,29.43 26.71,43.82 56.82,48.48 33.65,5.21 56.31,-15.03 53.44,-52.91 -1.36,-17.9 -9.3,-24 -21.92,-29.89l-37.07 -15.87c-31.89,-8.67 -55.63,22.27 -51.27,50.19z"/>
   <path class="fil9" d="M316.76 439.18c8.31,-9.42 54.25,-113.34 71.23,-111.87 0.64,6.55 -13.51,25.55 -18.05,32.99 -10.02,16.42 -52.42,89.83 -57.8,103.69 -2.36,10.87 3.14,37.69 4.13,50.39 1.31,16.67 2.44,33.16 3.38,49.62 1.96,1.72 -2.78,2.87 3.46,0.73 4.58,-5.33 49.37,-150.6 58.24,-178.43 4.29,-13.45 18.26,-50.61 18.89,-61.56 -12.37,-9.03 -72.97,-20.08 -93.15,-18.61 -3.45,1.56 -10.36,23.22 -18.48,34.44 -0.32,0.46 -1.59,0.86 -1.34,1.01 0,0 -1.44,1.88 -5.81,2.34 -2.72,0.29 -5.05,-0.62 -7.62,-1.19 10.06,7.75 19.77,-0.64 23.96,-8 4.95,-8.7 7.04,-19.86 16.3,-22.53 7.02,-2.02 54.18,3.82 62.27,14.14 -1.09,6.71 -4.75,8.13 -8.65,12.47 -5.48,6.11 -29.7,49.01 -32.58,55.86 -3.66,8.73 -17.94,27.28 -22.13,45.68l1.22 -0.05c0.18,-0.07 0.94,-0.37 1.13,-0.45 0.24,-0.1 0.93,-0.44 1.39,-0.68z"/>
   <path class="fil6" d="M562.71 971.86c13.53,-2.89 -1.78,-4.39 14.1,-3.52 6.83,0.37 11.77,-0.2 18.11,-0.77 11.21,-1 26.06,-2.93 36.8,-1.5 3.97,-9.14 9.29,-8.94 10.08,-24.66 0.56,-11.14 1.26,-21.07 1.64,-32.17 0.46,-13.45 1.08,-18.12 -7.38,-27.01 -5.28,-5.55 -3.69,-1.11 -15.86,-7.96 -0.66,-0.37 -2.6,-1.42 -3.23,-1.92 -3.93,-3.11 0.71,2.8 -3.16,-3.24 -9.49,9.93 -37.52,26.36 -52.7,28.76 -10.26,1.62 -7.89,-0.12 -10.72,3.51 7.29,-0.62 2.43,-1.77 5.87,1.44 0.01,12.72 -0.24,24.63 -1.06,37.04 -0.7,10.53 -7.07,24.61 -6.19,29.36 13.88,1.98 10.23,-5.28 13.68,2.64z"/>
   <path class="fil10" d="M989.56 697.64c8.38,12.77 -2.3,49.75 -0.24,55.38 17.13,-19.07 20.94,-103.9 20.03,-136.7l-3.83 7.09c-10.2,35.94 -32.93,63.41 -61.88,85.78 -5.41,4.18 -18.58,10.82 -23.18,15.36 -5.7,5.63 -0.73,7.27 -14.52,25.58 -8.08,10.74 -6.09,15.32 -11.05,27.37 -4.32,10.51 -12.7,17.34 -14.81,26.3 23.86,-2.73 58.42,-27.4 69.1,-39.33 31.42,-35.09 28.89,-65.5 40.37,-66.84z"/>
   <path class="fil11" d="M315.09 291.47l23.94 -48.76c15.47,-27.22 82.58,-109.4 98.13,-117.85 3.59,-5.9 22.73,-21.08 27.3,-23.41 1.96,-4.29 23.49,-18.64 29.87,-23.05 21.75,-15.02 84.36,-45.64 109.02,-51.57l-3.57 -0.41c-29.6,2.73 -87.98,29.18 -112.07,42.12 -79.09,42.47 -147.87,121.24 -186.04,202.71l-24.08 55.83c7.1,-2.06 6.06,-3.24 9.12,-9.81 7.99,-17.17 9.17,-27.87 28.38,-25.8z"/>
   <path class="fil12" d="M631.73 966.07l17.8 -2.64 1.91 -74.39c21.58,-7.85 58.35,-13.91 84.53,-12.2 -2.71,13.33 -5.01,8.93 -13.84,13.9 -5.88,3.31 -10.14,7.68 -16.72,10.79l4.73 1.58c35.84,-4.07 34.27,-2.35 39.31,-20.48 2.93,-10.54 1.87,-18.19 -1.8,-26.81 -4.26,-10.04 -7.52,-12.65 -20.81,-13.33 3.98,10.03 10.66,8.22 9.17,18.32 -2.19,14.83 -24.46,16.71 -28.2,-2.08 -1.94,-9.74 3.82,-11.58 8.41,-16.93 -9.58,-7.26 -73.84,-16.86 -88.7,-12.2 -0.5,15.87 -3.79,31.73 -13.71,39.51 3.87,6.05 -0.77,0.13 3.16,3.24 0.63,0.5 2.57,1.55 3.23,1.92 12.17,6.85 10.57,2.41 15.86,7.96 8.46,8.88 7.84,13.56 7.38,27.01 -0.38,11.1 -1.08,21.04 -1.64,32.17 -0.79,15.72 -6.11,15.52 -10.08,24.66z"/>
   <path class="fil4" d="M612.19 855.79c-6.28,-2.01 -1.82,3.19 -1.56,-14.07 0.19,-12.5 -7.9,-15.51 -17.47,-19.32 -5.54,-2.2 -9.57,-2.23 -10.48,-7.33l-1.7 1.92c-1.35,1.08 -0.32,5.48 -17.41,1.31 -7.9,-1.93 -13.33,-6.89 -19.28,-4.27 -3.99,7.16 -3.48,17.79 -9.07,26.21 -13.1,19.72 -19.89,7.15 -35.68,35.03 -4.31,7.61 -12.62,16.63 -12.68,24.34 14.16,0.81 55.15,-9.37 70.72,-12.81 11.73,-2.6 22.4,-4.73 32.13,-9.64 5.32,-2.68 8.25,-4.66 12.04,-8.88 3.23,-3.59 8.91,-8.38 10.44,-12.49z"/>
   <path class="fil13" d="M730.27 784.89c1.05,-6.49 -1.9,-14.77 -4.34,-19.71 -8.21,0.05 -13.71,4.94 -20.49,1.14 13.79,-9.13 93.89,-17.17 71.57,-55.39 -6.4,0.42 -31.28,17.76 -40.34,22.55 -27.26,14.4 -68.49,28.2 -98.93,33.11 -20.96,3.38 -39.79,2.5 -60.61,5 2.64,24.66 43.37,23.08 68.8,23.45 19.06,0.28 71.49,-1.36 84.34,-10.15z"/>
   <path class="fil8" d="M960.96 600.44c-2.82,8.33 -5.97,17.28 -5.96,25.83 -8.19,53.92 -39,36.79 -35.32,80.07 11.44,-3.24 37.52,-26.6 47.36,-39.64 13.2,-17.49 22.24,-34.95 28.49,-61.6 11.21,-47.76 -0.44,-97.58 -41.94,-57.83 -6.35,6.08 -13.06,17.54 -14.95,29.58 10.04,-2.87 28.2,-23.09 37.81,-4.61 -4.76,-1.2 -12.5,-5.02 -20.56,-0.27l-3.82 3.26c5.39,7.98 14.08,4.47 8.9,25.21z"/>
   <path class="fil6" d="M710.15 903.1l-4.73 -1.58c6.58,-3.11 10.84,-7.48 16.72,-10.79 8.83,-4.97 11.13,-0.57 13.84,-13.9 -26.18,-1.71 -62.95,4.36 -84.53,12.2l-1.91 74.39c24.37,2.79 70.32,0.08 96.24,-1.1 -3.04,-7.36 -15.64,-12.86 -22,-18.52 -21.44,-19.09 -1.88,-26.31 -21.26,-29.97 -0.99,-0.19 -4.46,-0.6 -5.36,-0.9l-3.49 -1.73c-0.27,-0.15 -0.77,-0.45 -1.08,-0.75l12.29 -4.78c6.49,-2.3 1.71,0.38 5.28,-2.59z"/>
   <path class="fil14" d="M836.98 909.7c22.26,19.19 9.52,34.8 -1.95,47.71 0.63,7.58 3.8,10.32 4.06,15.79 0.15,3.13 -12.17,59.53 9.31,60.89 11.02,0.7 13,-9.37 15.46,-22.54 1.46,-7.81 3.61,-11.77 -2.3,-13.23 -4.22,6.9 -0.98,17.28 -6.8,23.78l-0.58 -26.12c-5.66,-6.49 -12.3,-9.77 -12.74,-21.14 11.14,4.45 8.71,10.13 19.65,11.39 -1.52,-8.75 -6.15,-8.97 -6.36,-17.07 4.98,1.29 3.18,0.63 5.95,4.72 2.92,4.3 1.86,3.55 5.19,6.48 -2.82,-9.23 -19.97,-43.24 -15.22,-64.72 1.48,-6.7 0.29,-2.34 2.51,-4.79 1.82,19.48 1.38,28.18 8.38,46.14 3.41,8.76 15.72,29.63 21.44,33.2 10.57,6.61 7.76,-0.5 13.94,13.38 2.9,6.51 5.94,11.58 10.33,16.89 6.86,8.29 48.6,45.37 27.49,-3.34 -2.89,-6.67 -10.12,-16.31 -10.74,-22.42 10.39,3.66 15.08,26.99 21.41,35.89 1.9,-16.01 -4.12,-31.93 -12.05,-41.96 -32.93,-2.69 -37.33,7.61 -51.13,-21.72 -15.46,-32.84 -4.47,-29.82 8.48,-48.02l-4.87 -12.77c-23.05,7.43 -18.92,-1.89 -30.08,-4.39 -4.64,-1.04 -8.1,2.6 -16.95,1.21 -8.15,-1.28 -11.99,-5.48 -14.21,4.7 3.89,2.74 -3.35,1.17 5.91,2.27 0.2,0.02 5.41,-0.23 6.49,-0.2z"/>
   <path class="fil5" d="M24.16 854.97c-5.16,4.57 -1.38,3.29 -6.94,4.32 0.25,0.39 0.2,0.95 0.81,1.13l3.25 3.96c1.37,1.47 2.16,2.03 4.02,3.92 33.51,34.1 11.33,32.72 69.69,47.53 13.14,3.34 101.08,28.8 107.32,23.92 -9.21,-4.84 -5.17,-1.31 -16.19,-15.53 -23.99,-30.99 -3.61,-21.21 -62.62,-36.67l-78.3 -21.36c-7.61,-1.88 -21.94,-1.94 -21.03,-11.23z"/>
   <path class="fil10" d="M948.71 366.71c1.84,10.2 2.92,21.51 4.14,31.9 0.86,7.32 4.47,24.46 1.38,28.64 -3.88,-5.62 -23.11,-75.77 -35.41,-88.63 0.35,20.9 -0.59,30.95 4.48,51.01 11.69,46.27 16.2,36.82 25.26,86.99 3.37,18.67 7.06,29.38 6.26,49.16 7.75,-1.92 13.13,-6.36 19.22,-7.53 10.22,-1.96 15.18,1.77 23.79,3.22 -1.67,-11.44 -7.59,-27.91 -11.17,-39.79 -7.32,-24.34 -21.41,-78.04 -29.03,-97.75 -2.12,-5.49 -4.88,-13.69 -8.93,-17.23z"/>
   <path class="fil13" d="M856.01 580.05c3.89,-2.15 3.98,-3.34 13.96,2.38 3.24,1.86 12.36,4.97 9.95,9.94 -3.29,6.77 -21.8,-6.13 -23.91,-12.32zm-32.36 69.66c6.52,-1.22 20.29,-10.47 24.67,-14.98 3.61,-3.73 18.47,-17.77 19.22,-20.78 2.51,-3.16 -4.49,-5.5 6.09,-1.94 3.82,1.29 2.16,2.37 1.94,5.52 0,-13.44 -0.57,-2.36 3.09,-6.96 2.89,-4.43 7.53,-18.71 8.05,-24.33 -8.48,-4.86 -28.38,-20.1 -36.83,-22.5 -4.15,6.3 -5.31,26.08 -8.67,34.82 -7.24,18.89 -28.63,41.33 -50.27,35.89 -10.08,-2.53 -22.26,-13.25 -25.41,-19.07l4.09 -2.82c7.76,-7.5 16.04,-13.21 3.84,-24.24l-23.22 -2.49 -7.08 20.37c-0.57,9.49 -5.38,2.63 8.97,18.62 3.69,4.12 10.57,14.1 15.02,17.19 11.29,7.84 42.75,12.43 56.52,7.69z"/>
   <path class="fil15" d="M901.5 1328.38c1.64,-12.59 -20.82,-64.81 -27.76,-72.04l0.74 17.06c-7.09,-1.24 -11.14,-9.13 -14.65,-15.99 -4.05,-7.92 -8.27,-12.52 -11.22,-18.46 10.69,-1.51 11.77,4.6 21.99,6 -10.26,-22.57 -32.8,-28.85 -54.02,-32.52 -9.13,-1.58 -34.94,-8.04 -23.66,8.93l21.7 21.81c14.88,15.11 26.36,31.85 40.9,45.77 33.57,32.11 26.48,44.65 45.97,39.45z"/>
   <path class="fil7" d="M1013.33 440.64c-7.81,11.16 4.81,34.56 7.61,45.32 2.03,7.79 1.93,16.05 4.62,22.76 2.59,6.45 6.8,11.09 0.93,19.23 -14.07,-3.87 -17.28,-33.18 -22.23,-49.25 -4.92,-15.98 -42.39,-151.1 -54.85,-159.63 -3.89,1.67 -2.28,-1.1 -2.92,3.22l30.53 87.35c26.75,80.33 61.7,201.95 69.36,284.42 12.06,-36.76 -6.56,-150.09 -17.44,-195.21 -4.75,-19.71 -11.08,-39.06 -15.61,-58.21z"/>
   <path class="fil16" d="M169 427.54l91.13 16.82c0.85,-8.27 -21.23,-9.48 -29.94,-10.62 -30.75,-4.02 -82.5,-8.76 -69.12,-44.63 12.07,-32.37 26.01,-50.58 43.46,-77.05 16.99,-25.77 17.21,-10.95 20.04,-21.76 -10.54,-7.09 -16.53,8.59 -28.87,25.8 -33.1,46.17 -38.93,59.04 -62.72,115.54 -11.15,26.48 -59.39,145.12 -63.91,173.21l11.39 -1.24c2.22,-5.09 2.56,-14.27 5.73,-24.46l27.19 -74.03c4.31,-10.63 25.29,-63.2 31.61,-69.54l8.29 -7.74c3.43,-3.16 -4.31,-2.18 5.97,-3.52 2.22,-0.29 2.93,-0.07 4.91,0.55 3.68,1.14 2.93,1.2 4.83,2.66z"/>
   <path class="fil2" d="M725.64 277.23l-86.83 61.26c-10.63,6.78 -25.68,20.12 -30.83,16.4 -7.52,3.38 -14.12,9.38 -20.87,13.81 -7.11,4.67 -12.64,8.94 -20.05,13.76l-35.98 21.72c-2.41,1.69 -1.56,1.21 -2.8,2.32l-1.72 1.87c12.18,8.24 10.87,16.64 27.88,4.69 4.34,-3.05 9.78,-4.97 15.02,-7.51 9.96,-4.82 45.77,-27.91 52.3,-34.32l48.77 -37.99c4.06,-3.05 5.61,-6.43 10.42,-10.46 5,-4.18 7.93,-6.26 12.71,-9.76 12.55,-9.17 14.04,-12.91 22.69,-20.64 8.39,-7.51 16.09,-10.58 22.48,-20.67l-13.19 5.52z"/>
   <path class="fil10" d="M510.56 311.81c-15.83,5.3 -32.88,20.7 -46.14,30.55 -7.24,5.38 -13.1,10.18 -20.89,16.04 -6.64,5.01 -15.11,13.01 -22.8,16.24 0.58,-17.17 18.73,-59.79 21.35,-90.77l-6.57 7.14c-2.3,2.67 -3.55,4.26 -5.84,6.97 -18.98,22.51 -14.42,26.55 -24.38,57.8 -5.04,15.81 -24.09,69.54 -24.9,83.33 6.36,-3.44 9.82,-10.8 14.6,-16.83 16.52,-20.83 76.36,-73.21 99.7,-93.01l11.86 -12.13c0.22,-0.31 0.48,-0.68 0.71,-0.99l3.28 -4.35z"/>
   <path class="fil17" d="M720.88 323.52c20.57,-8.26 89.35,-70.62 95.25,-73.22 11.85,11.49 48.66,104.54 55.44,128.43 2.07,7.31 3.8,16.33 6.96,23.41 1.6,3.59 8.89,20.13 10.3,21.94 -0.71,-13.2 -8.57,-74.52 -14.03,-81.02 -9.29,1.69 -11.3,-17.99 -13.53,-26.79 -5.28,-20.84 -19.41,-59.1 -28.87,-78.54 -2.63,-5.4 -2.63,-10.73 -4.97,-15.59 -7.32,-0.78 -6.77,-0.08 -10.44,3.83l-42.22 47.75c-15.14,17.22 -44.51,33.13 -54.13,50.06l0.23 -0.26z"/>
   <path class="fil7" d="M1018.04 429.23l17.62 51.28c2.94,-7.38 1.86,-59.12 1.92,-67.46 0.66,-98.28 -14.69,-210.44 -81.65,-282.69 -27.11,-29.25 -49.66,-37.81 -99.57,-47.76l-0.06 1.94c-7.11,0.2 -9.97,-1.48 -14.94,-3.22 9.17,23.47 60.12,4.03 97.51,40.42 29.24,28.45 39.38,44.51 56.28,80.18 8.38,17.7 14.14,28.98 18.37,50.62 4.44,22.73 13.8,98.65 15.02,122.02 3.07,58.54 -0.1,40.16 -10.48,54.66z"/>
   <path class="fil18" d="M999.07 382.27c5.59,-13.76 -24.55,-112.71 -31.91,-129.83 -12.73,-29.61 -55.11,-80.85 -78.64,-84.92 1.69,6.52 12.22,16.45 17.24,24.26 23.92,37.23 52.32,92.86 70.37,133.59 4.38,9.88 19.52,52.62 22.94,56.9z"/>
   <path class="fil19" d="M526.56 408.36l1.72 -1.87c1.24,-1.11 0.39,-0.63 2.8,-2.32l35.98 -21.72c7.41,-4.81 12.94,-9.09 20.05,-13.76 6.74,-4.43 13.34,-10.43 20.87,-13.81l50.56 -40.02c33.19,-25.42 96.04,-79.77 120.42,-112.43 7.39,-9.91 13.42,-16.99 21.37,-25 4.67,-6.19 6.95,-8.58 7.7,-19.6 -6.42,2.87 -7,5.99 -11.15,9.24 -3.54,7.33 -23.02,28.04 -29.44,35.1l-64.62 63.82c-45.08,40.29 -92.55,78.49 -143.41,113.55 -7.74,5.33 -33.69,20.51 -37.32,27.07 2.19,1.5 -1.89,0.99 4.47,1.74z"/>
   <path class="fil0" d="M139.75 795.14c5.12,22.63 -9.76,31.83 -22.74,39.67 -18.97,11.46 -25.3,11.71 -35.83,-7.99 -19.71,-36.86 -4.54,-67.37 10.38,-47.35 4.95,6.64 7.65,11.9 14.81,16.4 20.69,-8.89 11.13,-13.04 33.37,-0.73zm-30.16 -14.76c0,0 0,0 0,0z"/>
   <path class="fil20" d="M139.75 795.14c-22.24,-12.31 -12.69,-8.16 -33.37,0.73 -7.16,-4.5 -9.86,-9.76 -14.81,-16.4 -14.92,-20.01 -30.09,10.49 -10.38,47.35 10.53,19.7 16.86,19.45 35.83,7.99 12.98,-7.84 27.86,-17.04 22.74,-39.67z"/>
   <path class="fil14" d="M829.74 893.6c-4.32,-14.94 -12.58,-16.75 -11.41,-38.61 4.59,7.62 5.97,18.02 10.78,25.22 6.37,9.55 4.06,1.26 11.93,7.33 5.71,4.41 3.07,6.69 10.62,8.89 4.67,-14.4 -5.19,1.62 8.41,-28.45 6.1,-13.49 -1.63,-22.86 2.59,-30.46 9.42,1.61 4.52,11.09 8.09,18.65 3.32,-1.54 5.48,-1.17 4.17,-15.42 -0.52,-5.61 -1.57,-11.77 -4.17,-16.55 -6.32,2.12 -12.46,12.87 -31.02,15.28 -22.46,2.91 -25.99,-9.43 -36.43,-10.5 -4.58,12.07 -6.6,29.9 -0.56,40.6 4.56,8.07 17.24,20.46 27,24.02z"/>
   <path class="fil16" d="M163.54 708.38c3.12,-2.63 3.52,1.67 1.93,-4.25 -15.35,-6.35 -102.69,-24.76 -126.03,-28.15 -1.64,-11.31 11.45,-35.07 16.49,-40.47 9.84,-10.54 141.22,15.63 148.76,21.62 0.7,9.95 -4.72,10.33 -0.77,18.15 0.26,-0.25 0.84,-0.32 0.99,-0.42l2.42 -1.66c1.58,-3.01 4.69,-9.79 5.13,-13.21 0.38,-0.34 0.56,-0.73 1.21,-0.92 0.6,-0.17 0.88,-0.7 1.04,-0.94l1.38 -4.01c-10.25,-7.82 -152.99,-37.3 -169.44,-35.97 -3.39,10.57 -18.03,50.43 -14.39,59.99 3.09,4.16 128.82,30.45 131.27,30.24z"/>
   <path class="fil9" d="M24.16 854.97c8.04,-0.6 57.77,13.87 70.01,16.81 14.98,3.59 61.32,16.12 73.22,15.98 3.2,-5.17 4.04,-8.11 3.92,-14.64l-0.29 -4.11c-9.72,10.1 -15.42,8.55 -30.34,4.27 -17.55,-5.04 -35.06,-6.94 -49.56,-14.61 -7.68,-4.06 -27.23,-4.42 -49.58,-14.63 -12.16,-5.56 -12.6,-15.94 -8.67,-29.3l27.53 -100.12 -0.29 -4.6 -5.67 -0.66c-0.92,13.91 -15.77,57.45 -20.55,74.34 -5.77,20.4 -21.6,54.56 -16.68,75.58 5.56,-1.03 1.78,0.25 6.94,-4.32z"/>
   <path class="fil18" d="M480.52 117.55c-8.36,0.1 -18.34,10.39 -25.68,14.51 -1.27,5.44 -32.96,33.26 -41.34,43.76 -14.06,17.6 -27.34,32.08 -34.77,55.2 -2.84,8.83 -13.35,38.68 -9.01,46.55 2.84,-1.3 16.2,-31.49 23.5,-43.27 16.17,-26.08 37.96,-55.76 57.2,-79.36 6.21,-7.61 27.71,-30.27 30.09,-37.38z"/>
   <path class="fil21" d="M400.13 1362.13c21.38,-1.77 -3.06,22.89 0,0zm7.23 -32.17l-2.42 6.09c10.09,-0.69 30.58,-1.23 33.07,7.75l-33.51 -0.98 -0.15 -5.53c-3.39,6.18 -4.13,10.13 -12.14,12.13 -3.14,6.45 -5.27,5.27 -12.76,6.56 -11.64,2 -25.68,26.3 11.19,26.07 7.54,-0.05 10.49,-0.36 16.94,-3.12 11.41,-4.89 6.12,-1 15.61,0.65 11.24,1.96 18.73,-10.34 18.61,-21.83l-33.7 -6.31c0.44,-0.86 0.61,-1.11 1.24,-1.17 1.9,-0.18 1.65,-2.51 14.21,-0.21 6.96,1.28 9.63,2.72 17.23,2.44l3.84 -12.35c-8.64,-7.41 -19.58,-17.91 -37.25,-10.18z"/>
   <path class="fil11" d="M725.64 277.23c2.43,-5.25 0.54,-2.26 4.44,-6.53 6.06,-6.62 33.39,-34.81 40.1,-37.94 1.73,-9.39 31.67,-50.28 30.15,-55.33 -7.94,8 -13.97,15.09 -21.37,25 -24.38,32.66 -87.22,87.01 -120.42,112.43l-50.56 40.02c5.14,3.72 20.2,-9.62 30.83,-16.4l86.83 -61.26z"/>
   <path class="fil22" d="M720.88 323.52l-0.23 0.26c9.62,-16.93 38.98,-32.84 54.13,-50.06l42.22 -47.75c3.66,-3.91 3.12,-4.61 10.44,-3.83 2.34,4.86 2.34,10.19 4.97,15.59 9.46,19.44 23.59,57.7 28.87,78.54 2.23,8.8 4.24,28.49 13.53,26.79 0.52,-21.34 -23.33,-80.12 -33.44,-102.86 -4.68,-10.54 -11.45,-21.61 -14.86,-31.89 -6.68,2.24 -12.76,10.79 -17.28,16.37 -24.49,30.18 -67.98,69.39 -97.65,96.63 -3.21,2.94 -5.41,4.59 -8.64,7.44 -3.95,3.49 -6.5,5.9 -8.72,9.68 6.98,-0.49 10.4,-1.08 15.23,-4.82 2.74,-2.13 2.5,-2.27 5.28,-4.28 5.06,-3.65 2.8,0.32 6.16,-5.81z"/>
   <path class="fil15" d="M681.43 979.59c-9.05,-5.5 -79.63,6.82 -98.03,8.65 -10.11,1 -20.21,6.54 -18.74,16.79 7.38,3.69 20.42,-1.27 29.99,-2.19 12.11,-1.16 24.44,-1.51 36.83,-1.73 12.84,-0.24 25.71,-0.45 38.55,-0.84 8,-0.24 17.39,-0.01 15.03,-13.82l-3.62 -6.85z"/>
   <path class="fil11" d="M597.85 137.15c-14.53,10.69 -28.03,19.35 -42.17,29.9 -13.96,10.41 -26.83,22.81 -38.99,34.86 -23.1,22.9 -50.41,45.63 -69.4,75.85 7.87,-5.57 8.84,-5.71 15.05,-12.97 4.21,-4.91 9.24,-11.33 13.35,-15.56 59.45,-61.23 79.39,-85.28 160.87,-121.95 13.39,-6.03 26.37,-11.01 39.93,-16.28 11.04,-4.29 33.95,-8.43 42.34,-12.69 -9.57,-5.9 -56.57,6.47 -67.49,10.2 -16.91,5.78 -27.62,11.65 -41.96,20.71 -4.7,2.97 -7.43,5.95 -11.54,7.92z"/>
   <path class="fil5" d="M54.45 709.36l5.67 0.66 0.29 4.6 2.52 0 1.03 -5.53 140.23 27.86c-6.09,-15.93 -52.83,-21.49 -77.56,-27.57l-84.67 -20.23c2.83,6.59 8.88,10.46 14.02,14.52l-1.54 5.7z"/>
   <path class="fil17" d="M955 626.27c-0.01,-8.55 3.14,-17.5 5.96,-25.83 -6.97,-6.09 -0.55,-12.99 -13.15,-19.24 -7.39,3.63 -11.65,8.44 -15.3,17.19 -2.8,6.72 -2.67,20.89 -9.76,23.57 1.96,6.56 -1.42,16.5 -2.02,24.89 3.67,5.72 1.51,12.36 1.94,19.13 23.06,-16.28 24.88,-34.27 32.32,-39.71z"/>
   <path class="fil14" d="M846.51 777.71c5.3,-0.39 1.67,0.41 3.2,1.46 -2.51,6.14 -3.7,4.78 -6.67,0 1.43,-0.89 0.24,-1.22 3.47,-1.46zm-20.75 -0.78c6.7,0.86 2.37,0.97 3.8,3.85 -1.17,0.9 2.49,3.24 -5.27,2.1 -5.31,-0.78 -2.46,-1.6 -3.47,-3.71 0.37,-0.3 -1.28,-3.04 4.95,-2.24zm35.7 20.4l3.3 -0.15 1.65 -21.52c-29.02,-20.82 -65.05,-4.11 -67.76,1.9 -3.23,15.37 11.17,19.62 24.81,21.59 23.55,3.4 29.79,-6.88 38.28,-6.08l-0.27 4.26z"/>
   <path class="fil8" d="M898.53 931.41c2.05,13.99 11.42,23.69 12.74,38.8 -5.78,-1.21 -11.66,-6.64 -14.48,-11.57 -2.85,-4.98 -1,-15.48 -3.83,-19.76 -7.53,5.28 3.84,29.13 8.03,33.3 9.33,9.29 29.45,2.8 33.95,-6.77 5.14,-10.94 -1.15,-31.8 -6.86,-39.62 -9.59,-13.14 -24.35,-3.13 -29.55,5.64z"/>
   <path class="fil23" d="M339.21 631.88c-2.76,-17.23 -2.78,-41.71 2.3,-59.06 3.96,-13.52 7.46,-10.36 8.95,-10.6 5.25,9.54 2.02,27.93 2.19,40.31 0.15,10.67 3.78,30.17 0.21,38.17l-6.17 -1.23c2.24,3.66 0.99,3.07 6.38,6.02 1.15,0.63 2.36,0.75 4.54,1.99l-0.04 11.1c3.91,-4.43 1.73,-36.26 1.77,-43.21 0.09,-15.31 -0.28,-31.34 0.78,-46.55 1.99,-28.61 4.75,-57.06 7.03,-85.65l-22.43 63.84c-9.85,30.76 -11.25,39.44 -12.12,74.35 5.21,0.25 0.14,4.91 6.61,10.52z"/>
   <path class="fil10" d="M403.45 500.9c-5.53,0.81 -1.56,0.59 -2.87,-1.13l0.81 -7.48c-0.44,-15.82 4.14,-36.91 13.47,-46.02l8.74 -15.8c-16,6.96 -24.61,18.93 -34.68,30.69 -13.66,15.96 -17.62,20.05 -14.32,49.79 5.83,-0.31 24.45,-5.61 28.85,-10.04z"/>
   <path class="fil24" d="M819.35 387.29c-8.11,2.98 -21.92,14.99 -29.23,20.62l-58.18 41.36c-5.76,3.71 -26.53,14.97 -27.39,21.05 21.76,5.07 50.43,-19.34 65.82,-32.39 10.67,-9.05 43.87,-40.25 48.98,-50.64z"/>
   <path class="fil14" d="M956.17 886.26c-7.32,1.96 -8.7,6.37 -12.27,6.99 -7.1,1.24 2.59,-6.36 3.79,-10.07 -10.55,2.41 -16.25,11.8 -28.76,11.68 3.54,-5.48 16.27,-11.63 23.25,-13.88l-0.24 -19.18c-30.78,6.99 -50.73,35.33 -48.71,45.7 2.19,11.22 11.17,2.18 32.45,-4.29 11.4,-3.47 26.18,-7.29 30.49,-16.95z"/>
   <path class="fil25" d="M328.3 293.07c20.81,2.36 67.71,19.21 79.84,18.79 8.45,-23.85 37.81,-75.73 51.79,-97.64 4.76,-7.47 18.75,-25.15 20.38,-30.28l-4.18 -1.89c-5.71,6.23 -16.13,20.22 -20.49,27.83l-34.79 61.63c-23.56,46.1 -9.28,30.32 -53.9,23.17 -11.86,-1.9 -24.59,-5.86 -37.37,-6.06 -1.11,1.93 -1.63,1.7 -1.28,4.44z"/>
   <path class="fil5" d="M453.23 1312c3.73,-3.39 8.32,-12.88 12.32,-17.81 3.12,-3.85 13.09,-12.54 14.01,-15.62 -7.31,-5.25 -7.8,5.41 -20.27,6.56 -3.72,-5.19 -9.1,-10.24 -11.63,-14.59 -0.32,-12.88 6.56,-12.77 6.64,-28 -7.29,8.59 -25.56,42.01 -27.75,55.3 2.22,1.66 24.62,13.36 26.68,14.16z"/>
   <path class="fil12" d="M941.38 1138.4c1.91,-5.57 28.35,-22.04 32.56,-31.65 -2.57,-2.63 -2.88,-2.72 -9.15,-4.18 -3.72,-0.87 -6.31,-1.38 -10.24,-2.32 -7.5,-1.79 -13.18,-3.18 -20.68,-5.04 -7.23,-1.79 -35.3,-10.09 -39.02,-7.72l0.45 7.76 40.87 18.36c21.91,9.68 12.03,7.93 4.32,24.7l0.9 0.1z"/>
   <path class="fil26" d="M496.82 590.1c7.55,10.53 -1.28,18.46 -6.15,20.72l-8.58 3.48c13,-2.64 13.22,5.94 21.51,11.77 17.34,12.18 31.35,0.38 38.66,-15 4.2,-8.85 -3.77,-14.54 -8.74,-18.56 -7.1,4.44 -6.43,14.88 -18.85,12.98 -14.57,-2.22 -3.1,-11.06 -17.85,-15.39z"/>
   <path class="fil23" d="M449.48 392.97c4.51,-3.56 2.77,-3.25 5.85,-6.9l34.66 -33.12c1.73,-3.32 2.16,2.59 0.93,-5.38 -0.98,-6.32 1.46,-1.2 -2.3,-4.42 -41.76,33.93 -55.57,49.55 -85.28,85.83 -8.17,9.98 -20.81,17.61 -25.39,31.92 9.58,-8.4 18.2,-20.93 33.65,-34.88l37.89 -33.06z"/>
   <path class="fil26" d="M773.44 588.32c12.2,11.03 3.92,16.74 -3.84,24.24l5 -0.63c20.63,37.93 72.36,-9.59 39.93,-21.01 -5.59,5.79 -7.05,14.84 -19.03,13.28 -9.83,-1.28 -11.02,-8.73 -12.13,-12.17 -0.16,-0.51 -0.61,-2.03 -0.79,-2.5 -0.95,-2.43 -0.84,-2.22 -1.77,-3.5l-7.37 2.29z"/>
   <path class="fil17" d="M388.84 590.47c-0.21,-2.65 4.91,-48.35 5.88,-51.44 3.1,-9.9 21.18,-12.09 25.99,-32.59l-42.56 17.62c-1.71,12.46 4.21,56.65 10.68,66.41z"/>
   <path class="fil22" d="M394.29 684.99c1.15,-34.85 -7.17,-40.21 -15.08,-67.77 -2.15,-7.51 -3.17,-15.36 -6.28,-20.78 -4.31,6.85 -0.62,41.58 -0.46,52.67 0.11,7.62 -1.91,18.89 3.58,24.22 2.69,2.6 13.7,10.33 18.23,11.67z"/>
   <path class="fil3" d="M468.45 589.13c-3.15,-11.08 -1.92,-15.28 -3.41,-27.31 -10.83,0.11 -48.89,18.79 -54.68,25.53 8.51,5.29 -8.87,20.15 22.09,7.33 10.16,-4.21 20.47,-8.54 30.42,-12.67l5.59 7.11z"/>
   <path class="fil21" d="M346.69 639.47l6.17 1.23c3.57,-8.01 -0.06,-27.5 -0.21,-38.17 -0.17,-12.38 3.06,-30.77 -2.19,-40.31 -1.49,0.24 -4.99,-2.92 -8.95,10.6 -5.08,17.35 -5.06,41.83 -2.3,59.06l-0.14 4.58 3.24 3.02 4.38 -0.01z"/>
   <path class="fil8" d="M419.68 735.18c12.72,26.08 46.64,20.32 36.57,-2.41 -9.86,-22.28 -48.33,-21.7 -36.57,2.41z"/>
   <path class="fil25" d="M707 17.42c17,-14.3 66.76,30.31 81.82,48.79 0.82,1.01 21.76,35.68 23.47,19.29 -11.05,-18.79 -32.46,-40.86 -47.97,-52.59 -18.63,-14.09 -42.08,-31.07 -71.87,-19.79 0.33,0.27 0.47,0.59 1.09,0.68 0.12,0.02 4.2,2.26 13.47,3.62z"/>
   <path class="fil12" d="M762.53 904.95c1.79,16.59 -5.83,18.14 4.05,36.19 4.58,8.37 11.67,18.98 14.08,29.11l-6.07 4.59c2.96,3.57 9.25,10.06 13.45,5.88 8.59,-8.31 -20,-32.73 -21.26,-61.96 -0.35,-8.17 2.31,-12.93 2.61,-19.71 0.46,-10.46 -5.74,-5.46 -7.69,-14.23 -2.65,-11.94 12.56,-26.31 -1.39,-33.26 -1.63,6.76 -2.34,16.43 -3.8,23.31 -1.76,8.34 -4.91,15.3 -4.57,23.11l10.59 6.96z"/>
   <path class="fil0" d="M260.13 444.36l-91.13 -16.82 -13.47 -1.08c2.08,9 5.89,6.64 27.66,10.99 10.79,2.15 22.04,4.42 32.32,6.49 11.18,2.26 57.49,14.2 64.43,9.26 -1.69,-6.55 -7.61,-4.66 -19.81,-8.83z"/>
   <path class="fil18" d="M409.43 246.46c3.74,-2.21 0.53,0.14 3.06,-2.43l53.43 -86.4c-17.02,0.47 -58.38,64.52 -56.49,88.83z"/>
   <path class="fil17" d="M795.07 48.19c9.01,-2.28 9.52,-3.43 15.84,2.36 3.71,3.4 6.61,6.45 10.65,10.19 7.16,6.62 13.31,13.17 19.78,20.58 4.97,1.74 7.83,3.42 14.94,3.22l0.06 -1.94c-2.21,-7.53 -21.15,-25.94 -26.71,-31.49 -9.76,-9.73 -26.49,-15.12 -44.37,-15.91l9.81 12.99z"/>
   <path class="fil12" d="M653.64 1174.82c1.01,-1.05 1.29,-2.81 2.49,-3.84 -9.53,-13.36 -9.6,-13.82 -8.9,-40.15 0.25,-9.3 3.93,-37.93 -0.11,-43.95 0.17,12.16 -5.07,31.57 -7.79,45.64 -2.83,14.64 -6.09,33.64 -6.12,49.43 12.85,0.19 12.74,-6.71 20.44,-7.14z"/>
   <path class="fil23" d="M545.8 167.09l-2.64 -2.69c-10.33,5.38 -31.49,25.08 -40.97,34.24 -29.31,28.32 -25.06,18.48 -32.68,25.12 -4.06,3.53 -3.31,6.09 -8.62,10.14 -5.55,12.18 -19.66,25.37 -23.1,37.27 0.26,-0.11 46.43,-48.98 51.24,-53.56 9.02,-8.58 17.62,-17.15 27.53,-25.47 5.56,-4.67 8.74,-7.86 14.66,-12.62 4.3,-3.46 11.14,-7.93 14.58,-12.42z"/>
   <path class="fil13" d="M893.69 863.68c-20.03,-6.9 -35.68,24.79 -26.79,33.45 9.17,8.94 33.58,-11.96 26.79,-33.45z"/>
   <path class="fil12" d="M562.71 971.86c-3.45,-7.92 0.2,-0.66 -13.68,-2.64 -0.88,-4.75 5.49,-18.83 6.19,-29.36 0.82,-12.41 1.08,-24.32 1.06,-37.04 -3.45,-3.21 1.42,-2.06 -5.87,-1.44 5.5,56.05 -24.46,62.56 -19.78,82.94 4.59,-0.49 14.61,-10.62 32.08,-12.45z"/>
   <path class="fil9" d="M789.96 793.62c-1.48,-4.54 -10.07,-17.53 -13.97,-20.5 -5.94,2.24 -10.59,6.58 -16.36,10.57 -9.16,6.33 -9.83,6.23 -6.66,20.19 5.14,0.7 32.69,-7.03 37,-10.26z"/>
   <path class="fil12" d="M794.61 1132.95l26.33 -4.61c-1.07,12 -5.46,12.01 -7.94,21.8 5.32,-4.03 9.18,-13.5 14.3,-16.77 5.16,-14 8.47,-12.09 -3.12,-23.42 -5.94,-5.8 -10.62,-12.59 -18.04,-16.26 9.68,25.06 11.33,22.31 -15.73,39.37l4.21 -0.12z"/>
   <path class="fil12" d="M427.54 1095.91c11.43,0.69 20.89,-0.49 32.13,-0.81 19.54,-0.54 11.69,-0.04 24.05,-7.82l-0.34 -5.43c-16.45,-0.25 -60.95,7.26 -77.76,11.39l21.91 2.66z"/>
   <path class="fil17" d="M907.67 617.19c5.61,-8.07 7.74,-29.8 10.24,-41.48 2.13,-9.94 9.71,-35.25 5.82,-41.11 -12.03,2.2 -13.38,27.76 -13.76,37.81 -0.41,10.72 -5.29,38.03 -2.29,44.78z"/>
   <path class="fil14" d="M954.43 868.24c9.04,23.48 29.69,13.39 24.24,-4.28 -6.49,-21.03 -31.35,-14.19 -24.24,4.28z"/>
   <path class="fil7" d="M454.84 132.06c7.34,-4.11 17.32,-14.41 25.68,-14.51 -0.41,-0.36 -0.99,-0.67 -1.32,-0.94l-2.36 -1.82c-8.22,-7.39 0.81,-7.66 -13.42,-9.76l1.04 -3.59c-4.57,2.33 -23.71,17.51 -27.3,23.41 8.29,-0.07 1.52,0.27 8.17,3.99 5.85,3.27 4.39,2.62 9.5,0.14 1.09,1.43 2.77,-3.01 0.01,3.06z"/>
   <path class="fil21" d="M417.35 1308.8c-4.42,5.7 -11.21,9.17 -13.81,16.57 3.88,0.16 21.03,-2.68 34.74,0.57 0,0 17.4,9.11 11.28,-6.44 -2.64,-6.72 -28.82,-10.81 -32.21,-10.7z"/>
   <path class="fil24" d="M559.06 509.34c-5.77,-14.59 -52.97,-19.5 -68.72,-16.92 -6.24,1.02 -5.24,0.64 -6.38,5.54 9.94,2.53 27.22,0.07 40.85,2.89 8.82,1.82 26.74,9.05 34.26,8.49z"/>
   <path class="fil14" d="M817.72 912.3c-7.8,-7.5 -17.81,-7.24 -19.66,-19 7.45,3.36 15.09,13.51 21.18,9.42 6.2,-7.87 -3.32,-9.54 -9.92,-13.94 -5.58,-3.71 -10.12,-9.29 -15.65,-10.92 -6.18,10.08 -7.14,14.9 0.86,22.48 5.81,5.5 12.98,10.99 23.2,11.95z"/>
   <path class="fil14" d="M937.74 1068.28c7.22,-7.87 -2.19,5.89 1.92,-3.49 0.95,-2.18 -0.41,-0.9 1.72,-4.81l1.29 2.2c0.13,0.24 0.45,0.79 0.61,1.09 0.16,0.29 0.41,0.77 0.58,1.08 1.23,2.21 -0.01,1.04 2.34,4.1 8.41,0.14 16.21,0.56 18.78,-7.43 2.68,-8.34 -3.9,-14.65 -9.15,-16.52 -8.88,8.89 -5.79,8.6 -21.32,8.82l3.22 14.95z"/>
   <path class="fil0" d="M867.53 613.94c-0.75,3.01 -15.6,17.05 -19.22,20.78 -4.37,4.51 -18.15,13.76 -24.67,14.98 0.52,0.64 1.13,3.93 8.54,3.75 3.8,-0.09 21.37,-11.7 22.35,-12.49 5.09,-4.11 4.74,-6.19 10.42,-10.47 6.5,-4.91 5.54,-6.29 8.13,-15.12 -3.21,-3.46 1.51,-1.03 -5.56,-1.43z"/>
   <path class="fil24" d="M820.39 490.13c-9.19,-5.46 -60.36,2.13 -66.76,5.04 -5.6,2.55 -3.94,2.4 -5.55,7.06 11.17,-0.28 24.7,-4.87 36.3,-6.27 10.59,-1.28 29.01,0.34 36.01,-5.83z"/>
   <path class="fil12" d="M768.94 1036.59c-11.44,-6.45 -3.96,-16.35 -29.72,-21.41 -8.27,-1.63 -13.66,-2.48 -22.59,-2.91 -8.87,-0.43 -18.99,0.88 -27.24,-0.75 4.77,3.88 12.29,4.25 20.4,5.73l44.43 8.55c6.53,2.87 7.1,10.68 14.72,10.8z"/>
   <path class="fil24" d="M470.93 655.52c-1.52,-5.18 1.86,-1.65 -10.23,-9.05 -4.48,-2.74 -7.81,-5.14 -11.48,-7.8 -13.26,-9.62 -14.04,-15.82 -20.73,-15.9 -2.07,10.39 10.23,18.98 15.56,22.71 13.24,9.27 19.3,14.33 26.88,10.04z"/>
   <path class="fil9" d="M825.77 946.53c7.98,-5.74 13.91,-15.34 8.46,-26.24 -19.57,-2.48 -27.34,22.85 -8.46,26.24z"/>
   <path class="fil9" d="M747.87 777.86c9.04,-0.45 15.76,-7.77 20.28,-13.15 -0.99,-5.96 -1.72,-6.15 -5,-9.93 -7.09,0.07 -10.29,2.07 -16.92,3.99l1.64 19.09z"/>
   <path class="fil12" d="M612.19 855.79c-0.34,-7.2 10.86,-16.23 -1.48,-30.14 -5.3,-5.98 -17.02,-12.6 -28.03,-10.57 0.91,5.09 4.94,5.12 10.48,7.33 9.58,3.81 17.67,6.82 17.47,19.32 -0.26,17.26 -4.72,12.06 1.56,14.07z"/>
   <path class="fil17" d="M898.53 931.41c-2.43,1.75 -1.07,0.07 -2.95,2.55 -1.72,2.26 -1.31,1.78 -2.62,4.91 2.83,4.28 0.98,14.78 3.83,19.76 2.83,4.93 8.71,10.36 14.48,11.57 -1.32,-15.11 -10.69,-24.8 -12.74,-38.8z"/>
   <path class="fil14" d="M833.22 1049.73l2.76 5.51c0,0 -0.59,5.84 7.72,6.5 1.72,0.14 1.05,0.2 2.83,-0.05 6.58,-0.93 0.71,0.26 4,-1.51l1.41 -13.39c-13.95,0.03 -11.12,-2.49 -19.06,-3.44 -3.88,5.06 -4.28,5.65 -3.62,13.28 4.7,-2.09 2.69,-0.81 3.96,-6.91z"/>
   <path class="fil16" d="M888.4 570.25l4.54 -27.8c-5.47,0.62 -15.57,11.58 -19.91,15.36 2.98,5.28 9.72,11.57 15.37,12.44z"/>
   <path class="fil14" d="M840.22 821.75c10.79,-1.43 10.21,-5.05 9.38,-16.42l-23 1.75c-0.88,10.95 2.9,4.82 9.46,10.12 2.23,1.8 -0.13,1.1 4.16,4.54z"/>
   <path class="fil17" d="M357.56 658.58l0.04 -11.1c-2.18,-1.25 -3.39,-1.37 -4.54,-1.99 -5.39,-2.95 -4.15,-2.36 -6.38,-6.02l-4.38 0.01 -3.24 -3.02 0.14 -4.58c-6.47,-5.61 -1.4,-10.27 -6.61,-10.52 -1.13,14.96 -3.76,13.86 7.06,22.49 6.41,5.11 11.68,9.97 17.91,14.74z"/>
   <path class="fil12" d="M554.09 1019.14c-12.5,5.6 -17.35,10.96 -24.75,20.81 -3.48,4.63 -16.99,23.88 -19.5,25.06 0.86,4.61 -2.48,5.05 10.05,-7.2 4.19,-4.1 34.8,-36.59 34.21,-38.67z"/>
   <path class="fil11" d="M823.9 820.63c-2.36,-14.61 -7.03,-18.23 -22.08,-20.56 0.96,3.73 4.96,11.07 6.99,13.75 2.9,3.84 8.95,6.02 15.09,6.81z"/>
   <path class="fil17" d="M392.2 1349.41c8.01,-1.99 8.75,-5.95 12.14,-12.13l0.6 -1.23 2.42 -6.09c-11.74,1.07 -20.3,8.06 -21.99,18.23l6.83 1.23z"/>
   <path class="fil27" d="M748.41 814.99c-0.37,-9.22 -2.5,-17.19 -4.22,-26.12l-3.42 -18.83c-0.15,-0.53 -0.57,-2.03 -0.79,-2.51 -1.23,-2.69 -1.37,-2.19 -2.52,-3.62 -1.09,1.93 -3.27,-2.4 -0.21,12.27 1.05,5.02 1.72,8.86 2.67,13.82 0.81,4.24 1.84,9.19 2.58,13.36 1.47,8.24 -0.31,8.48 5.91,11.63z"/>
   <path class="fil24" d="M404.93 1336.05l-0.6 1.23 0.15 5.53 33.51 0.98c-2.49,-8.98 -22.98,-8.43 -33.07,-7.75z"/>
   <path class="fil17" d="M345.5 806.47c-0.08,-14.17 1.1,-30.87 -12.13,-31.34 -0.18,4.95 2.45,12.3 4.1,16.95 2.1,5.93 3.75,11.66 8.03,14.39z"/>
   <path class="fil3" d="M856.01 580.05c2.1,6.19 20.62,19.09 23.91,12.32 2.41,-4.97 -6.7,-8.08 -9.95,-9.94 -9.98,-5.72 -10.07,-4.53 -13.96,-2.38z"/>
   <path class="fil24" d="M389 795.5c6.19,-1.72 4.83,-6.52 9.31,-13.41 3.47,-5.33 8.98,-7.66 6.57,-12.34 -6.63,-6.81 -20.11,18.17 -15.88,25.75z"/>
   <path class="fil28" d="M888.7 1368.17c2.32,3.2 3.4,-3.94 1.6,4.06l-3.43 2.84c4.87,0.6 8.55,1.66 13.8,0.86 11.22,-1.72 9.66,-5.08 10,-7.43 -4.64,-3.01 -16.79,-1.79 -21.97,-0.32z"/>
   <path class="fil12" d="M891.85 1083.25l-26.9 -3.1c1.96,4.67 0.51,2.9 10.9,5.69 7.84,2.1 1.53,1.24 9.24,-1.73 -0.17,8.18 -1.56,8.23 6.63,8.24l0.13 -9.09z"/>
   <path class="fil16" d="M496.87 856.25c-1.39,-6.81 -13.8,-13.34 -19.62,-9.63 1.13,6.67 1.73,4.62 8.33,7.82 5.5,2.66 5.94,4.75 11.29,1.82z"/>
   <path class="fil16" d="M726.79 863.3c1.97,-8.74 -5.67,-16.87 -10.3,-12.02 -2.93,3.07 -0.25,15.92 10.3,12.02z"/>
   <path class="fil11" d="M774.39 880.1c7.05,0.86 4.34,2.15 8.12,-4.52 2.35,-4.15 3.43,-5.46 3.05,-11.27 -6.82,-0.21 -5.17,-0.49 -8.63,5.73 -2.18,3.91 -4.03,5.61 -2.54,10.07z"/>
   <path class="fil27" d="M787.66 774.89c-1.29,-6.39 -3.59,-8.36 -6.81,-13.33 -8.11,-12.54 -3.81,-8.37 -10.77,-10.91 1.56,5.77 7.63,14.95 11.22,19.93 5.06,7 -0.96,2.45 6.35,4.32z"/>
   <path class="fil18" d="M864.76 797.18l-3.3 0.15c-7.39,2.52 -5.47,8.78 -5.16,17.18 5.07,-1.01 4.79,-0.12 6.56,-6.23 0.92,-3.17 1.55,-7.39 1.9,-11.1z"/>
   <path class="fil11" d="M728.63 934.05c9.94,-12.52 -10.82,-22.24 -6.58,-2.77 2.34,1.92 2.47,2.83 6.58,2.77z"/>
   <path class="fil28" d="M904.81 1342.8c-1.52,-3.95 -3.24,-6.56 -9.45,-5.64 -5.35,0.79 -6.32,2.82 -7.12,8.67 6.1,-0.15 12.2,-0.65 16.57,-3.04z"/>
   <path class="fil17" d="M400.13 1362.13c-3.06,22.89 21.38,-1.77 0,0z"/>
   <path class="fil3" d="M253.37 326.55c0.36,-5.17 -0.04,-8.4 1.36,-12.42 1.25,-3.59 2.8,-3.58 2.89,-7.34 -0.06,1.74 1.05,-0.57 -1.89,3.15 -6.28,7.95 -8.76,8.68 -9.43,14.78l7.08 1.83z"/>
   <path class="fil23" d="M886.87 1375.07l3.43 -2.84c1.79,-8 0.71,-0.86 -1.6,-4.06 -1.29,0.25 -6.27,1.29 -6.91,1.69 -4.61,2.88 -2.4,2.14 -3.87,6.05l8.95 -0.85z"/>
   <path class="fil15" d="M829.56 780.77c-1.43,-2.87 2.91,-2.99 -3.8,-3.85 -6.22,-0.8 -4.58,1.94 -4.95,2.24 1.01,2.11 -1.83,2.93 3.47,3.71 7.76,1.14 4.11,-1.2 5.27,-2.1z"/>
   <path class="fil5" d="M318 775.36c2.99,-6.19 -2.02,-9.72 -7.47,-10.74l7.47 10.74z"/>
   <path class="fil3" d="M708.55 980.22c7.13,-1.56 6.71,-5.4 0,-6.82 -2.92,5.71 -2.09,2.81 0,6.82z"/>
   <path class="fil15" d="M849.71 779.17c-1.53,-1.05 2.1,-1.86 -3.2,-1.46 -3.23,0.24 -2.04,0.57 -3.47,1.46 2.97,4.78 4.16,6.14 6.67,0z"/>
   <path class="fil3" d="M753.51 985.62c4.64,-2.95 4.54,-3.86 0,-6.9 -2.32,3.25 -3.09,2.29 0,6.9z"/>
   <path class="fil23" d="M886.79 1354.09c-3.89,3.06 -2.29,0.16 -3.39,6.7 2.76,-1.3 2.88,-0.19 4.11,-2.9 2.33,-5.16 -0.67,-3.72 -0.71,-3.8z"/>
  </g>
 </g>
</svg>
