<?xml version="1.0" encoding="UTF-8"?>
<!DOCTYPE svg PUBLIC "-//W3C//DTD SVG 1.1//EN" "http://www.w3.org/Graphics/SVG/1.1/DTD/svg11.dtd">
<!-- Creator: CorelDRAW -->
<svg xmlns="http://www.w3.org/2000/svg" xml:space="preserve" width="67.6225mm" height="89.8517mm" version="1.1" style="shape-rendering:geometricPrecision; text-rendering:geometricPrecision; image-rendering:optimizeQuality; fill-rule:evenodd; clip-rule:evenodd"
viewBox="0 0 3253.5 4323.01"
 xmlns:xlink="http://www.w3.org/1999/xlink"
 xmlns:xodm="http://www.corel.com/coreldraw/odm/2003">
 <defs>
  <style type="text/css">
   <![CDATA[
    .fil0 {fill:black}
    .fil6 {fill:#2137E8}
    .fil9 {fill:#2F2D32}
    .fil7 {fill:#302E32}
    .fil5 {fill:#312F34}
    .fil2 {fill:#323034}
    .fil24 {fill:#333136}
    .fil29 {fill:#393639}
    .fil22 {fill:#6D647A}
    .fil27 {fill:#746A84}
    .fil30 {fill:#7C718D}
    .fil1 {fill:#867A99}
    .fil16 {fill:#8C7EA0}
    .fil3 {fill:#9184A6}
    .fil31 {fill:#A3A3A4}
    .fil28 {fill:#A499B4}
    .fil23 {fill:#AD9A91}
    .fil25 {fill:#B9A59A}
    .fil15 {fill:#C3ADA1}
    .fil10 {fill:#C6B0A4}
    .fil21 {fill:#CAB5AA}
    .fil12 {fill:#D0D0E0}
    .fil11 {fill:#D1D1E1}
    .fil20 {fill:#ECE2DC}
    .fil18 {fill:#EEEDEE}
    .fil26 {fill:#F4F4F5}
    .fil19 {fill:#F9F8F9}
    .fil17 {fill:#F9F9FA}
    .fil4 {fill:#FAFAFA}
    .fil13 {fill:#FBD9CF}
    .fil8 {fill:#FDFDFD}
    .fil14 {fill:#FEFEFE}
   ]]>
  </style>
 </defs>
 <g id="Camada_x0020_1">
  <metadata id="CorelCorpID_0Corel-Layer"/>
  <g id="_2596363924592">
   <path class="fil0" d="M1207.37 178.7c-3.87,4.08 -103.62,49.18 -120.12,57.03 -196.72,93.57 -555.22,318.83 -747.2,351.8 -27.77,4.77 -53.19,8.01 -80.1,-0.01 -27.79,-8.29 -43.76,-21.11 -64.37,-28.23 -1.89,17.2 13.44,25.2 25.8,35.41 90.16,74.45 238.07,98.91 352.16,112.48 -2.49,24.7 -192.61,210.7 -227.53,239.7 -59.96,49.77 -145.14,102.14 -226.31,125.97 -17.9,5.25 -80.63,18.15 -88.36,30.05 16.17,9.27 159.75,-13.33 188.2,-17.64 94.92,-14.38 146.64,-47.86 167.24,-49.99 -12.75,44.41 -147.06,219.93 -205.6,266.91 -18.95,15.21 -33.67,26.1 -55.36,39.01 -28.86,17.19 -63.3,33.13 -95.73,44.05 -16.14,5.44 -26.24,4.39 -30.09,18.02 30.31,19.22 174.02,-19.72 217.61,-36.62 13.23,-5.12 53.44,-24.47 62.55,-24.92 -3.84,24.68 -14.57,56.13 -20.27,84.85 -33.17,166.98 11.35,273.68 -79.93,467.82 -11.17,23.77 -26.28,47.71 -40.43,67.73 -8.49,12 -15.48,22.9 -23.46,32.36 -9.68,11.46 -19.72,18.37 -23.73,34.65 21.6,-4.58 79.72,-53.29 96.46,-66.77 24.41,-19.66 77.23,-75.35 82.92,-78.05 -0.61,19.1 -46.68,115.1 -57.69,134.88 -30.14,54.17 -81.86,87.66 -87.76,104.95 64.92,1.5 194.02,-96.47 244.16,-137.28 19.53,-15.9 50.23,-54.43 69.56,-60.77 -6.9,81.58 -57.19,264.27 -111.11,340.46 -9.11,12.88 -22.41,27.43 -27.37,42.59 25.27,-3.24 42.42,-20.52 58.58,-32.46 45.18,-33.39 55.06,-39.4 94.93,-79.56 13.86,-13.97 29.26,-41.61 40.1,-49.61 4.59,9.01 8.26,30.77 11.77,42.77 9.18,31.34 37.61,100.09 64.48,109.75 0.42,-26.52 -20.65,-100.57 -9.91,-120l3.5 4.16c0.31,0.52 1.15,1.61 1.51,2.28l24.27 83.99c17.53,55.54 80.03,221.73 120.02,238.65 -2.03,-34.33 -26.73,-73.5 -30.09,-181.13 -1.1,-35.18 5.24,-172.73 13.88,-198.34 17.55,6.75 52.9,70.11 64.57,91.54 99.85,183.38 6.56,234.31 131.25,343.41 89.45,78.26 186.69,132.22 309.71,165.2 46.57,12.49 92.2,14.43 137.02,23.14 -4.56,32.3 -7.99,42.08 18.24,58.88 17.04,10.92 39.58,22.86 54.37,32.37 1.17,31.39 -17.11,24.18 9.55,50.5 21.57,21.29 -23.03,45.29 -59.51,126.86 -25.46,56.93 -48.02,132.37 -67.68,201.12 -45.33,158.54 -56.28,152.95 -121.4,280.07 -11.33,22.1 -44.8,77.88 -26.42,102.73 14.17,19.15 76.92,25.4 96.42,36.28 18.08,10.07 53.31,189.7 57.7,210.95 39.4,191.1 -1.47,95.22 153.27,251.95 14.24,14.42 18.21,20.63 30.58,35.74 14.72,17.97 19.83,18.9 16.48,48.68 -6.45,57.25 42.58,47.04 61.83,72.51 -15.57,22.64 -59.83,17.75 -52.26,58.65 25.64,5.85 100.31,0.64 132.04,1 43.14,0.49 88.13,6.81 112.65,-20.37 7.15,-7.93 51.94,-73.5 52.69,-81.37 3.15,-32.98 -28.57,-11.88 -20.54,-113.02 1.71,-21.54 1.77,-43.21 1.35,-64.79 -0.75,-39.13 7.3,-31.31 12.59,-54.27 4.24,-18.41 -10.49,-28.6 -15.68,-46.7 -7.47,-26.04 14.97,-177.69 17.21,-241.04 0.41,-11.67 0.66,-23.33 0.58,-35.02 -0.16,-20.66 -2.17,-24.46 4.68,-30.21 22.89,-14.76 96.06,9.87 112.7,-13.07 23.4,-29.79 -2.55,-184.89 -5.89,-221.92 -4.47,-49.66 52.92,-51.3 3.77,-118.9 -21.66,-29.78 -18.18,-21.09 -7.28,-62.79 10.23,-39.13 23.45,-90.07 36.25,-127.33 36.47,2.48 37.48,6.21 77.05,-3.32 41.39,-9.96 87.77,-27.7 124.66,-49.97 13.44,-8.11 42.51,-31.16 55.34,-32.26 8.36,15.32 7.19,48.62 17.34,70 26.79,56.5 103.83,73.17 147.25,28.43 9.02,-9.29 12.41,-20.2 16.66,-26.23 7.29,-59.71 -20.71,-108.67 -18.54,-174.05 24.17,7.15 43.74,20.59 68.45,28.03 94.7,28.5 181.81,-23.23 181.29,-79.55 -0.52,-57.55 -57.3,-68.25 -104.17,-81.3 -32.84,-9.15 -111.8,-35.47 -124.07,-58.29 9.44,-19.15 35.18,-20.74 56.65,-27.39 60.11,-18.63 115.57,-43.7 154.06,-87.44 49.64,-56.42 54.21,-125.06 -11.18,-156.98 -28.49,-13.9 -44.41,-5.03 -72.48,-7.76 2.96,-41.37 152.98,-251.23 174.06,-263.64 7.39,9.01 13.36,76.35 44.14,132.71 9.71,17.78 10.07,29.38 28.34,25.5 0.23,-21.84 -15.32,-41.07 -12.11,-82.84 4.75,-61.94 44.32,-164.03 67.98,-216.19 11.87,8.01 8.96,10.35 16.45,33.1 8.41,25.52 33.79,82.37 60.42,85.03 0.08,-17.9 -3.02,-18.86 -8.31,-31.95 -4.77,-11.8 -4.53,-23.35 -5.37,-37.33 -5.36,-89.47 3.75,-146.19 20.18,-231.46 14.25,3.32 13,5.05 21.9,15.38 26.48,30.78 102.27,89.33 139.79,93.88 -3.24,-6.34 -38.92,-38.97 -46.65,-47.38 -12.24,-13.32 -28.31,-36.64 -38.88,-55.34 -18.09,-31.99 -45.01,-90.23 -54.26,-131.51 7.06,1.64 76.08,47.19 119.63,65.93 44.9,19.32 95.2,35.18 151.54,37.64 -6.25,-11.83 -11.01,-12.24 -25.24,-20.76 -52.91,-31.67 -105.59,-91.97 -137.99,-144.54 -32.37,-52.52 -30.87,-58.69 -31.23,-129.87 -0.26,-51.2 -8.34,-106.83 -7.1,-154.16 17.22,2.39 41.06,26.35 58.3,37.17 43.69,27.43 160.58,83.58 204.27,68.13 -2.46,-16.27 -4.94,-8.77 -40.25,-22.58 -214.36,-83.81 -221.03,-427.24 -298.53,-644.13 -32.37,-90.57 -113.97,-261.2 -166.48,-336.09 -43.66,-62.26 -122.78,-149.66 -191.33,-185.88 -14.82,-7.83 -73.55,-31.04 -76.95,-41.77 37.85,-6.81 67.19,12.96 82.4,1.89 -6.09,-13.9 -27.67,-17.89 -42.46,-24.35 -94.95,-41.44 -112.09,-12.48 -170.03,-14.96 -8.01,-23.77 -4.61,-28.53 -18.2,-51.5 -17.57,-29.71 -70.84,-103.36 -106.05,-105.66 1.4,24.79 54.8,83.63 43.14,111.6 -15.2,-10.39 -30.56,-38.19 -76.57,-72.5 -71.22,-53.13 -254.91,-111.17 -330.85,-89.12l-12.18 6.5c47.25,9.23 82.52,15.37 124.6,32.07 21.55,8.56 90.57,41.53 99.02,57.07 -22.09,-1.22 -76.22,-21.2 -104.29,-27.44 -245.54,-54.53 -436.28,-17.37 -665.03,68.38 -30.98,11.61 -66.27,29.03 -96.08,37.33z"/>
   <g>
    <path class="fil1" d="M1467.1 3166.04c-1.91,-17.32 -6.41,-20.79 -20.43,-25.94 1.89,17.88 5.74,21.21 20.43,25.94z"/>
    <path class="fil1" d="M1508.16 1626.45c12.91,6.16 16.7,0.66 21.94,-6.98 -0.02,-0.01 3.12,-9.45 -14.15,-2.87 -5.49,2.09 -6.23,4.98 -7.79,9.85z"/>
   </g>
   <g>
    <path class="fil2" d="M914.86 2253.85c18.55,3.64 32.15,-3.36 33.53,-19.6 -19.29,-2.73 -31.72,2.84 -33.53,19.6z"/>
    <path class="fil2" d="M964.12 2263.77c7.27,0.89 10.32,3.49 16.52,-2.35 10.3,-9.69 0.71,-14.77 0.66,-14.86 -13,-4.58 -21.41,-0.52 -17.18,17.21z"/>
   </g>
   <g>
    <path class="fil3" d="M1700.12 2000.48c28.84,18.54 20.08,17.03 55.39,6.6l0.52 6.67c11.52,-8.16 0.76,1.69 6.74,-6.47 1.58,-2.17 4,-7.37 4.84,-9.22 3.63,-7.98 5.12,-9.9 7.18,-18.54 -16.28,11.06 -45.06,14.71 -71.66,12.36 -5,4.58 -6.45,-8.12 -3.02,8.61z"/>
    <path class="fil3" d="M1643.88 1940.5l10.14 -2.26c5.12,-9.75 11.13,-17.43 21.78,-25.06 12.16,-8.71 20.87,-6.68 31.3,-16.11 -10.57,1.62 -17.8,3.78 -28.35,4.19 -14.93,0.57 -33.49,-4.19 -34.26,11.59 -0.58,11.98 4.79,7.37 -0.62,27.65z"/>
   </g>
   <g>
    <path class="fil4" d="M1627.6 1879.51c23.24,0.8 88.33,-18.66 121.13,-21.83 29.39,-2.84 40.46,-2.46 66.11,5.84 21.37,6.92 35.06,19.62 53.47,22.98 -0.55,-21.56 -7.35,-22.9 -47.33,-39.37 -21.58,-8.89 -43.78,-16.27 -70.93,-13.15 -45.59,5.23 -107.38,10.77 -122.46,45.53z"/>
    <path class="fil4" d="M879.16 1952.33l7.38 -123.46 -37.98 -10.33c-1.09,18.49 23.13,126.25 30.6,133.8z"/>
    <path class="fil4" d="M1665.46 1789.59c10.74,-4.65 70.02,-100.47 70.33,-104.47 0.69,-9.16 -16.37,-30.37 -26.75,-35.65 -15.62,84.41 -32.19,98.14 -43.58,140.11z"/>
    <path class="fil4" d="M1492.85 1933.76c10.48,-5.12 13.5,-8.44 26.12,-13.27 28.75,-11.01 60.89,-26.05 74.14,-54.98 -44.16,5.1 -93.75,26.21 -100.26,68.26z"/>
    <path class="fil4" d="M819.79 2019.82c12.65,2.37 38.69,-2.55 48.98,-9.45l-12.39 -30.85c-21.13,7.73 -2.91,10.36 -28.63,24.53 -9.87,5.44 -8.41,3.55 -7.95,15.77z"/>
   </g>
   <g>
    <path class="fil5" d="M2244.36 1804.46l-0.66 19.87c28.04,-10.83 45.65,-149.69 47.55,-173.6 5.9,-74.22 13.09,-147.76 8.57,-223.21 -5.93,-24.65 -4.35,-69.45 -20.61,-88.04 -6.45,8.41 -3.8,16.23 -2.43,29.5 14.03,136.54 5.39,308.57 -32.43,435.48z"/>
    <path class="fil5" d="M1599.66 2103.53c18.07,4.81 26.27,-2.89 26.51,-19.65 -16.78,-2.42 -26.46,1.9 -26.51,19.65z"/>
   </g>
   <path class="fil6" d="M1650.14 4191.77c8.11,-23.75 18.06,-7.16 9.86,-64.14 -2.93,-20.26 -8.96,-48.02 -4.41,-66.79l24.54 -90.97c5.38,-9.97 12.65,-10.23 5.55,-21.3l-45.6 54.62c-23.21,20.23 -39.75,-13.52 -58.62,-23.36 0.55,22.19 33.05,78.51 43.03,105.81 34.8,95.15 7.34,80.38 -5.37,109.63 8.01,8.35 30.25,16.6 44.46,16.46 -3.96,-12.62 -7.01,-6.55 -13.44,-19.95zm-345.17 -882.82c13.23,-27.44 21.01,-56.38 31.86,-87.45 16.99,-48.66 63.45,-141.54 70.39,-166.52 3.28,-11.81 23.35,-85.33 20.09,-91.34 -23.08,15.7 -126.67,307.52 -123.69,340.72l1.34 4.59zm130.09 -614.49l65.66 111.61c13.07,25.9 5.48,24 -4.71,42.47 12.66,-3.18 26.16,-10.14 34.25,-21.45 -0.53,-0.77 -1.54,-2.74 -1.87,-2.12l-7.73 -7.52c-6.63,-6.31 -3.48,-0.92 -9.65,-11.48l-37.68 -77.37c-10.67,-23.97 -12.57,-39.13 13.37,-48.22 9.44,-3.31 18.99,-6.11 29.14,-9.2 2.55,-0.78 14.72,-4.18 15.84,-4.69 18.45,-8.37 6.63,1.55 10.87,-10.81 -15.04,-14.72 -12.33,-8.77 -55.26,11.63 -14.4,6.84 -39.77,16.23 -52.23,27.15zm428.02 340.08c4.96,7.83 4.1,11.69 11.78,22.27 3.45,4.74 10.74,14.06 12.36,19.36 4.3,14 -3.57,37.72 -6.59,51.45 -3.12,14.2 -15.53,78 -14.52,93.24l1.12 4.08c9.51,-15.75 26.85,-83.26 32.62,-106.49 4.45,-17.91 13.63,-39.68 2.95,-54.63 -5.65,-7.91 -27.56,-25 -39.73,-29.28zm-503.02 639.87c7.06,13.88 4.39,11.24 14.78,21.85 5.79,5.91 8.73,9.05 15.68,15.78 9.91,9.59 23.84,23.31 41.43,27.91 -9.05,-21.29 -46.56,-56.49 -71.88,-65.54zm5.21 -893.41c19.08,2.17 45.29,-48.17 46.85,-60.31 -16.34,4.27 -7.03,-1.33 -28.8,27.59 -7.66,10.18 -17.61,18.69 -18.05,32.72zm377.62 1252.56c7.17,-1.91 9.98,0.36 14.86,-7.92 6.47,-10.97 -1.82,-12.65 -2.22,-13.38 -14.39,5.48 -10.98,3.71 -12.63,21.29zm-315.56 -952.29c-20.75,1.86 -22.06,35.56 -21.53,54.01l26.13 0.38c0.68,-18.24 3.39,-38.45 -4.6,-54.39zm119.44 -177.95c31.69,8.88 46.11,-11.88 60.55,-25.39 8.67,-8.12 16.1,-12.65 24.5,-20.91l69.27 -59.92c12.79,-10.18 29.77,-25.84 32.02,-48.98 -12.97,1.88 -123.46,101.31 -139.96,119.08 -22.8,24.55 -40.66,23.96 -46.38,36.13zm66.7 535.58c9.11,9.14 -0.63,3.72 12.87,6.5 17.74,3.67 116.89,-22.72 130.27,-27.02 49.91,-16.05 80.39,-27.14 79.62,-88.48 -11.74,4.64 -28.22,27.03 -44.75,39.22 -64.37,47.46 -97.96,47.2 -178.01,69.77zm215.81 -633.26c-6.24,-11.3 -8.97,-23.12 -20,-25.62 -2.08,10.32 107.18,274.2 187.27,225.1l-19.47 -8.73c-18.32,-7.15 -29.56,-18.83 -43.49,-33.16 -12.89,-13.25 -30.38,-42.85 -40.17,-64.68 -20.13,-44.87 -18.13,-30.5 -43.09,-61.49 -7.4,-9.19 -15.13,-20.7 -21.05,-31.41zm-361.59 1145.91c-26.31,-21.47 -87.73,0.48 -102.23,-36.52 -13.68,-34.93 -10,-82.49 -32.63,-107.58 1.7,33.28 16.57,101.59 23.46,137.93 6.07,32.03 55.55,61.05 77.68,79.25 21.98,18.09 99.64,107.41 105.07,136.11 4.75,25.11 -21.34,55.75 10.49,51.1 9.03,-29.1 12.62,-47.12 -1.49,-67.36 -27.41,-39.35 -46.1,-67.24 -78.33,-103.23 -7.27,-8.12 -35.87,-35.96 -37.94,-48.38 10.05,-21.19 34.91,-17.91 35.93,-41.31z"/>
   <g>
    <path class="fil7" d="M2753.36 1223.87c2.43,2.98 2.47,2.46 4.79,7.82l13.92 66.46c5.31,26.47 8.88,52.13 11.14,79.93 8.15,100.08 18.14,254.93 11.24,352.34 -1.81,25.5 -19.95,152.36 -15.95,160.88 39.19,-31.94 42.84,-245.66 39.02,-306.65 1,-61.2 -10.3,-175.39 -19.15,-239.83 -5.51,-40.11 -30.39,-187.1 -60.91,-195.25 -2.29,25.66 17.13,50.01 15.89,74.29z"/>
    <path class="fil7" d="M2022.54 481.65c7.57,7.06 47.55,-0.92 63.97,1.33 48.87,6.7 114.42,45.64 148.14,74.62 69.93,60.09 83.17,108.84 120,159.25 10.69,14.63 -0.98,4.82 13.07,11.38 -9.82,-56.88 -74.7,-145.05 -119.79,-187.39 -20.79,-19.54 -61.28,-46.16 -94.83,-59.02 -29.51,-11.31 -103.08,-17.6 -130.57,-0.17z"/>
    <path class="fil7" d="M2395.08 1919.73c3.77,8.81 -2.24,9.45 24.97,-12.88 61.53,-50.51 60.55,37.69 62.84,89.57l6.54 -0.71c7.88,-28.59 18.39,-37.88 9.34,-75.25 -8.84,-36.53 -16.36,-36.29 -45.06,-49.69 6.51,-14.38 47.93,-39.42 70.03,-39.42 37.43,0 28.96,48.35 49.43,64.71 3.7,-32.45 -1.81,-58.67 -19.52,-76.28 -33.13,-32.96 -95.88,22.08 -119.08,45.73 -16.47,16.8 -22.58,32.78 -39.49,54.23z"/>
    <path class="fil7" d="M2489.04 1148.42c2.42,-65.16 -65.74,-345.35 -105.07,-362.88 -2.14,4.97 48.27,156.82 53.77,176.67l40.83 164.62c3.49,15.44 1.09,14.1 10.47,21.59z"/>
   </g>
   <g>
    <path class="fil8" d="M1297.94 1967.98c45.22,-23.6 208.95,-248.57 225.2,-326.13 -17.56,3.37 -78.23,34.76 -94.92,44.76 -27.89,16.71 -38.84,114.37 -79.67,192.72l-50.6 88.65z"/>
    <path class="fil8" d="M2227.77 2959.73c4.31,4.65 3.78,3.1 6.79,11.15 10.38,27.69 -13.41,0.01 12.97,27.51 18.45,19.23 12.91,67.59 39.8,72.09 15.79,2.64 70.64,-29.08 11.39,-95.31 -14.5,-16.2 -28.82,-47.4 -68.13,-36.42 -6.96,5.52 -4.76,11.09 -2.81,20.98z"/>
    <path class="fil8" d="M2397.59 1772.91c15.03,-6.42 24.41,-21.6 39.27,-34.26 13.66,-11.63 30.43,-21.41 44.59,-31.9 -0.64,-2.52 -45.97,-100.33 -48.6,-103.48l-35.26 169.64z"/>
    <path class="fil8" d="M1744.1 1552.83c0.07,20.67 4.9,72.92 14.91,88 12.75,-6.3 54.23,-91.81 54.81,-100.36 -18.1,-1.75 -49.58,9.19 -69.72,12.36z"/>
    <path class="fil8" d="M907.65 1922.03l50.09 6.57 -21.42 -76c-5.87,-16.82 -1,-13.44 -18.75,-15.16 -9.25,13.26 -11.2,75.2 -9.92,84.58z"/>
    <path class="fil8" d="M2263.9 2548.95l34.83 1.37c2.55,-15.85 -20.59,-80.91 -29.98,-89.6 -26.91,21.11 -23.03,58.02 -4.84,88.23z"/>
    <path class="fil8" d="M2404.05 2486.34c15.32,-3.54 36.57,-14.65 47.43,-25.73l0.18 -85.25c-12.99,7.2 -18.29,31.08 -26.68,52.73 -7.29,18.83 -17.02,39.45 -20.93,58.25z"/>
    <path class="fil8" d="M837.06 2090.79c13.09,-2.02 18.92,-9.13 29.3,-16.44 10.21,-7.19 19.27,-11.18 24.4,-22.1 -18.28,-34.48 -80.11,-17.22 -53.7,38.53z"/>
   </g>
   <g>
    <path class="fil9" d="M2204.92 431.69c6.9,12.25 18.75,15.31 34.99,26.37 34.82,23.72 70.87,57.54 95.32,89.78 35.08,46.25 62.25,91.72 90.1,154.42 72.32,162.83 74.6,362.67 91.31,396.14 14.56,-23.11 -9.43,-189.63 -15.73,-223.15 -20.09,-107.06 -83.58,-267.05 -148.86,-347.71 -24.67,-30.48 -116.39,-114.59 -147.13,-95.84z"/>
    <path class="fil9" d="M463.28 1773.02c5.14,-20.08 51.06,-135.86 61.73,-145.17 0.88,-33.15 49.97,-148.61 36.43,-178.08 -13.3,3.27 -12.99,14.01 -17.41,29.92 -29.64,106.77 -87.18,266.98 -139.55,359.9 -11.16,19.8 -63.92,103.72 -66.19,114.44 24.86,-14.36 54.68,-56.19 72.49,-83.67 13.12,-20.24 43.22,-86.74 52.5,-97.34z"/>
    <path class="fil9" d="M1431.37 2548.01c16.44,3.15 120.22,-27 134.99,-32.02 20.95,-7.13 42.7,-14.17 64.02,-23.64 31.51,-14 46.97,-20.95 39.16,-43.63 -20.79,-3.64 -37.5,16 -56.81,25.91 -21,10.77 -41.91,16.42 -63.58,24 -22.42,7.84 -43.33,14.59 -65.87,21.04 -10.51,3.01 -22.25,6.58 -32.56,9.38 -15.54,4.22 -22.02,2.29 -27.93,15.33l8.59 3.63z"/>
    <path class="fil9" d="M994.94 2160.14c11.62,-3.81 2.54,-3.95 17.21,-7.11 9.17,-1.98 15.06,-0.86 23.45,-3.3 5.81,-55.25 -47.59,-70.36 -37.19,-25.08 5.51,23.98 -3.72,14.73 -3.47,35.49z"/>
   </g>
   <g>
    <path class="fil10" d="M2395.08 1919.73c-20.18,22.21 -18.37,86.23 -20.37,103.02 -2.51,21.06 -17.56,70.65 -31.51,89.3 17.69,-3.44 36.26,-8.74 56.29,-12.97 16.81,-3.55 48.81,0.34 59.68,-10.42l-29.56 3.02c7.86,-14.44 22,-26.75 33.08,-44.46 8.16,-13.04 19.71,-35.56 26.74,-51.52l-6.54 0.71c-2.29,-51.88 -1.31,-140.08 -62.84,-89.57 -27.2,22.33 -21.19,21.7 -24.97,12.88z"/>
    <path class="fil10" d="M1781.87 1679.22c31.22,1.8 16.41,23.78 82.32,-76.74 10.92,-16.66 58.35,-88.28 63.08,-104.35 0.73,3.44 1.77,9.97 2.75,13.05l4.89 11c-0.93,-27.74 -15.51,-147.46 -29.27,-164.06 -6,11.79 -14.83,68.11 -20.22,87.6 -8.54,30.91 -15.79,55.87 -26.63,85.03 -20.99,56.45 -55.72,100.43 -76.92,148.48z"/>
    <path class="fil10" d="M1998.78 2871.23c3.94,10.44 5.68,13.08 -8.92,14.9 -28.38,3.54 -54.98,-6.72 -78.17,-8.54 8.99,32.9 28.13,57.68 48.01,76.99 15.79,15.33 18.11,17.52 47.1,14.48 14.99,-1.57 33.48,-5.37 47.06,-11.03 -0.39,-18.05 -20.18,-34.16 -22.39,-57.63 5.9,-4.71 -2.16,-3.71 11.43,-2.95l-7.69 -8.2c-2.98,-3.87 -1.51,3.28 -5.67,-9.78l8.75 -14.18c-24.36,3.68 -9.78,2.93 -14.22,-6.75l-11.09 9.59c-8.26,4.57 -2.59,2.49 -14.21,3.12z"/>
    <path class="fil10" d="M1992.89 1866.12c2.46,5.53 4.59,77.56 5.98,91.9 3.01,31.24 11.8,57.37 11.53,87.28 8.05,-7.52 7.19,-8.48 13.24,-29.02 3.14,-10.64 4.75,-20.12 6.89,-31.26 9.83,-51.23 13.37,-177.38 6.8,-228.77 -12.35,7.99 -10.17,9.41 -15.17,25.12l-29.27 84.75z"/>
   </g>
   <g>
    <path class="fil11" d="M2500.82 1458.93c20.31,5.42 19.65,46.57 26.83,83.26 3.63,18.55 27.69,115.1 36.58,131.06 8.39,15.06 27.07,8.51 67.01,44.52 10.42,9.39 15.69,22.05 28.54,27.47 19.02,-35.3 39.16,-142.67 43.38,-189.47 6.7,-74.26 6.67,-153.49 3.45,-229.63 -4.29,-101.61 -16.86,-204.19 -46.57,-300.72l-27.39 -80.94c-3.31,-6.44 -1.43,-3.37 -4.63,-6.9 -0.98,25.76 -22.41,16.61 -8.37,69.38 6.23,23.38 -0.08,49.66 6.38,80.37 20.6,97.91 20.68,234.67 10.97,335.92 -3.07,32.07 -11.8,127.27 -22.62,153.94 -10.97,-8.53 -15.57,-95.08 -17.22,-107.76 -7.33,-56.41 -52.26,-281.95 -91.01,-295.07 -6.94,16.74 0.97,113.46 1.55,137.95 1.18,50.15 -0.52,98.05 -6.89,146.62z"/>
    <path class="fil11" d="M1765.56 1526.52c58.34,-11.22 56.88,9.81 75.1,-49.36 31.14,-101.15 51.39,-178.67 53.82,-287.21 0.02,-1.16 0.61,-13.61 0.67,-13.87 3.57,-14.73 -4.74,-8.67 7.14,-8.55 -1.75,-19.26 -9.11,-33.52 -9.65,-53.98 -2.49,-95.16 -10.15,-94.58 -20.98,-178.22 -4.73,-36.58 -35.33,-195.57 -53.32,-208.4 -12.89,12.49 -5.31,74.53 -4.48,97.51 9.2,254.63 -10.1,367.46 -49.58,609.17 -2.58,15.8 -6.36,30.32 -7.86,46.24 -2.88,30.63 6.84,24.69 9.12,46.66z"/>
    <path class="fil11" d="M1463.77 1395.35c13.26,-9.43 17.6,-34.46 26.4,-51.91 6.71,-13.31 18.09,-42.57 32.14,-46.7 1.69,-22.95 12.61,-44.32 18.29,-67 13.86,-55.32 15.35,-75.48 36,-131.17 8.39,-22.63 20.17,-42.49 8.91,-66.09 -18.97,0.74 -13,1.02 -29.95,34.82 -7.47,14.9 -14.46,28.85 -22.02,44.25 -33.17,67.62 -90.42,154.03 -91.46,232.19 -0.42,31.22 -5.16,41.02 25.21,41.04l-3.53 10.57z"/>
   </g>
   <g>
    <path class="fil12" d="M3012.44 1685.64l-0.02 9.08c-44.3,-3.88 -89.94,-143.37 -105.45,-196.15 -11.48,-39.05 -20.66,-81.52 -29.07,-121.14 -4.81,-22.66 -8.27,-125.55 -15.61,-133.63 -15.1,6.65 -8.9,67.59 -9.63,85.99 -2.32,58.28 -11.81,122.94 -13.75,177.95 -0.98,27.67 -1.28,62.31 -21.4,76.91 3.82,60.99 0.17,274.71 -39.02,306.65 -4,-8.53 14.15,-135.38 15.95,-160.88 6.9,-97.41 -3.09,-252.26 -11.24,-352.34 -2.27,-27.8 -5.84,-53.46 -11.14,-79.93l-13.92 -66.46c-2.32,-5.36 -2.36,-4.84 -4.79,-7.82l-0.37 17.63 -12.89 2.65 -8.95 -22.64c-0.31,-2.01 -1.02,-2.37 -1.76,-3.41 13.57,171.62 33.29,322.24 -22.54,493.91 -6.21,19.11 -26.69,64.84 -24.21,80.45 4.25,26.77 16.73,50.85 20.1,88.23 3,33.26 2.17,66.98 -3.43,99.32 -21.3,123.33 -104.32,196.66 -186.29,246.51 -23.76,14.46 -47.44,26.86 -70.38,37.75 -15.77,7.49 -64.97,25.36 -74.81,33.63 -25.31,21.26 -21.51,158.88 -39.73,180.01 -15.09,-13.02 -6.49,-86.63 -6.16,-112.59 -46.06,33.5 -13.59,128.1 5.73,164.81 46.32,-2.13 46.14,-50.43 71.47,-109.93 9.34,-21.95 19.34,-39.85 30.43,-60.63 9.43,-17.67 19.41,-51.72 42.87,-46.71 6.83,31.38 -8.84,99.51 2.45,133.22 22.67,-4.6 7.72,-32.01 44.57,-91 37.59,-60.18 102.55,-141.79 148.02,-197.47 11.92,-14.6 19.01,-31.19 37.7,-31.06 3.63,13.42 2.67,28.93 5.21,43 2.86,15.87 7.78,27.82 10.83,41.72 13.01,-12.94 14.07,-67.95 36.71,-123.96 10.29,-25.45 36.7,-94.77 55.49,-105 13.78,-1.68 22.18,24.67 25.15,30.78 8.39,17.31 -1.11,6.87 9.77,11.32 5.36,-16.85 -1.22,-61.15 11.18,-114.48 8.44,-36.3 17.55,-64.79 29.77,-95.11 25.92,2.45 52.05,48.83 77.82,62.65 -3.69,-17.27 -30.88,-60.41 -41.08,-87.94 -7.92,-21.39 -25.48,-80.87 -25.08,-103.43 18.37,2.4 105.83,75.93 205.73,103.2 -3.83,-9.07 -54.92,-53.03 -80.6,-88.9 -2.48,-3.46 -2.19,-3.57 -4.55,-6.27 -8.16,-9.33 1.49,-1.15 -9.09,-8.5z"/>
    <path class="fil12" d="M525.01 1627.85c-10.67,9.3 -56.59,125.08 -61.73,145.17l12.31 -1.18 7.04 21.73c9.35,-2.9 14.92,-6.81 28.43,-5.34 1.54,31.4 -33.99,65.76 -36.72,106.82 -11.27,169.56 -99.69,335.77 -99.41,346.89 3.89,-6.04 28.97,-27.15 37.45,-35.05 12.52,-11.66 26.24,-27.75 38.14,-42.14 15.06,-18.23 37.9,-46.51 46.76,-68.49 6.84,-16.96 3.35,-22.21 18.77,-23.17 4.21,8.84 0.21,52.83 3.46,72.95 3.43,21.23 7.33,50.84 17.49,66.2 2.31,-5.39 -0.25,-191.72 17.46,-205.7 12.35,7.13 14.54,68.71 20.29,98.91 6.71,35.21 13.42,66.3 21.9,99.65 9.53,37.43 44.7,157.86 62.55,179.12l-2.66 -52.64c-0.62,-76.56 5.58,-216.41 28.49,-284.8 15.54,-46.39 4.23,-58.8 -8.9,-102.26 -31.04,-102.74 -44.15,-236.58 -33.03,-345.6 4.02,-39.42 12.85,-79.9 15.62,-115.56 -7.38,9.32 -4.24,-12 -6.49,11.62 -29.92,5.46 -4.43,-40.5 -41.39,65.86 -18.85,54.23 -36.65,126.81 -52.85,184.44 -3.72,13.23 -21.29,87.63 -24.48,93.63 -13.06,-1.89 -10.07,-0.3 -13.2,-17.43 -7.93,-43.32 6.57,-22.2 7.24,-55.18 0.89,-44.07 3.74,-103.74 -2.54,-138.45z"/>
    <path class="fil12" d="M2244.36 1804.46c-7.04,8.11 -5.72,22.74 -6.18,26.51l-20.36 53.51c9.93,5.54 2.64,-3.8 5.34,10.99 0.51,2.81 0.08,9.97 -0.27,12.99 -5.74,49.59 -43.02,85.65 -43.8,150.03 21.41,-8.97 53.75,-75.18 68.19,-100.97 6.28,-11.21 4.33,-10.72 14.47,-13.26 10.64,30.52 -8.73,57.82 -3.49,67.94 13.46,-4.43 36.28,-70.86 43.5,-87.64 14.28,-33.19 31.8,-67.3 42.08,-94.95l-14.16 -2.23c-1.01,-7.19 -3.42,-104.85 -2.68,-108.46 7.17,-34.87 17.69,-23.46 14.82,-99.48 -3.01,-79.73 -21.13,-97.13 -31.88,-141.47 -4.85,-20.04 -0.52,-26.7 -4.9,-40.17l-5.23 -10.27c4.51,75.45 -2.67,149 -8.57,223.21 -1.9,23.91 -19.51,162.77 -47.55,173.6l0.66 -19.87z"/>
    <path class="fil12" d="M822.18 2302.45c3.54,-19.21 4.19,-69.88 0.25,-88.9 -5.35,-25.86 -21.48,-44.08 -30.19,-64.08l-24.27 -1.95c1.25,-16.56 4.77,-7.48 6.22,-26.26 -33.95,-29.22 -49.11,-67.28 -61.94,-78.36 -17.54,31.01 -7.26,46 8.92,69.54 26.25,38.19 52.31,79.19 73.1,122.64 6.63,13.84 21.74,59.37 27.89,67.38z"/>
    <path class="fil12" d="M1717.52 1908.5c30.16,-14.96 41.66,43.54 19.12,51.96 -31.82,11.88 -44.47,-39.38 -19.12,-51.96zm-63.49 29.74c29.58,4.11 35.46,39.26 40.48,51.99 0.34,0.87 0.71,1.8 1.09,2.63 0.38,0.84 0.95,1.82 1.33,2.57 0.39,0.77 1.2,1.91 1.54,2.54 0.35,0.63 0.97,1.78 1.66,2.51 -3.44,-16.72 -1.99,-4.03 3.02,-8.61 26.6,2.35 55.38,-1.3 71.66,-12.36 3.29,-17.86 24.58,-48.81 12.48,-66.88 -7.06,-13.98 -15.51,-11.16 -34.75,-14.47 -18.12,-3.11 -25.89,-5.46 -45.42,-1.08 -10.43,9.43 -19.14,7.39 -31.3,16.11 -10.65,7.63 -16.66,15.31 -21.78,25.06z"/>
   </g>
   <path class="fil13" d="M1258.78 2560.9c32.22,-2.14 43.39,2.21 81.7,-2.96 13.94,-1.89 19.55,-3.35 29.28,3.88 -5.42,6.67 4.37,1.51 -11.14,8.02l-43.94 11.36c-57.74,10.51 -57.55,1.54 -55.89,-20.3zm-346.12 -549.41l87.07 5.89 -24.91 -53.54c-10.94,-23.08 -8.21,-16.95 -66.1,-24.44 -0.52,19.5 -2.96,55.76 3.93,72.08zm1086.13 859.73c11.62,-0.63 5.95,1.45 14.21,-3.12l11.09 -9.59c17.55,-12.57 38.53,-54.6 45.92,-83.24 13.38,-51.79 -2.25,-75.62 -5.39,-120.84 42.85,6.29 46.66,78.53 36.53,119.55 -17.29,69.9 -59.57,74.87 -62.85,91.28l-8.74 14.17c4.16,13.06 2.68,5.92 5.67,9.79l7.69 8.2c34.71,68 88.06,81.55 163.37,72.78 6.39,-18.99 9.1,-70.56 57.38,-81.7 0.16,22.79 -22.78,29.87 -33.08,50.25 39.31,-10.98 53.64,20.22 68.13,36.42 59.25,66.22 4.39,97.95 -11.39,95.31 -26.9,-4.5 -21.36,-52.87 -39.8,-72.1 -26.38,-27.49 -2.59,0.18 -12.97,-27.51 -3.01,-8.04 -2.48,-6.5 -6.79,-11.14 3.28,38.1 6.72,88.97 32.42,113.22 30.35,28.66 82.53,23.6 90.61,-19.77 5.13,-27.51 -10.81,-93.49 -15.04,-124.6 -2.88,-21.08 1.1,-45.06 -6.76,-63.85 -8.27,-19.78 -14.97,-34.2 -0.89,-55.1 20.14,8.39 6.01,74.32 136.66,90.48 113.91,14.08 141.21,-52.92 100.09,-79.32 -61.69,-39.6 -229.17,-53.35 -217.47,-118.26 8.94,-49.58 143.81,-47.1 218.29,-119.65 44.71,-43.56 57.91,-126.7 -30.9,-120.94 -36.86,2.39 -54.03,17.28 -78.64,32.5 -46.77,28.93 -145.35,97.12 -192.59,83.14 -18.75,-5.55 -19.24,-16.68 -33.19,-22 -12.33,7.72 -7.16,11.14 -24.74,13.59 -11.38,-112.35 129.42,-222.23 83.04,-309.9 -20.33,-38.42 -70.09,-19.26 -93.21,-1.11 -61.62,48.35 -109.4,274.42 -225.14,316.14 -20.58,7.42 -43.66,5.23 -58.58,10.94 -24.23,9.27 -22.75,14.25 -50.65,-0.11 -29.94,-15.41 -60.45,-31.53 -90.63,-45.39 -131.63,-60.43 -126.23,64.91 -89.8,110.86 43.74,55.14 128.89,67.4 159.85,112.49 21.32,31.05 26.57,54.63 63.07,73.31 21.02,10.76 71.87,30.07 95.24,34.81zm-576.02 -326.85c5.92,-13.03 12.4,-11.1 27.94,-15.32 10.32,-2.8 22.05,-6.37 32.56,-9.38 22.54,-6.45 43.46,-13.2 65.87,-21.04 21.67,-7.59 42.59,-13.23 63.58,-24 19.31,-9.91 36.02,-29.55 56.81,-25.91 7.81,22.69 -7.65,29.63 -39.16,43.63 -21.31,9.47 -43.07,16.51 -64.02,23.64 -14.77,5.03 -118.55,35.17 -134.99,32.02l-8.59 -3.64zm-458.65 -280.6c-4.23,-17.73 4.19,-21.79 17.18,-17.21 0.05,0.1 9.63,5.18 -0.66,14.87 -6.2,5.83 -9.24,3.23 -16.51,2.34zm63.66 -3.37c-6.25,1.71 -0.68,2.12 -8.82,1.53 -8.29,-0.59 -3.58,-0.63 -8.54,-3.76 3.92,-16.69 12.57,-13.71 17.35,2.22zm-112.92 -6.55c1.81,-16.76 14.25,-22.33 33.54,-19.61 -1.39,16.24 -14.99,23.24 -33.54,19.61zm120.73 -104.13c-8.39,2.44 -14.28,1.32 -23.45,3.3 -14.66,3.17 -5.58,3.31 -17.2,7.11 -0.25,-20.76 8.98,-11.5 3.47,-35.49 -10.4,-45.27 43,-30.17 37.19,25.08zm621.89 -60.03c15.12,-7.62 18.94,13.33 4.83,19.42 -12.8,5.53 -22.94,-10.3 -4.83,-19.42zm-57.82 13.83c0.05,-17.76 9.73,-22.07 26.51,-19.64 -0.24,16.75 -8.44,24.46 -26.51,19.64zm107.15 -5.55l-5.41 -2.54c-5.91,-13.95 12.89,-19.05 14.87,1.5 -7.9,1.92 -2.55,1.4 -9.46,1.04zm-245.72 -226.76c-0.13,-23.81 28.5,-47.19 54.85,-49.79 -4.32,11.49 -11.52,15.75 -26.33,27.84 -8.98,7.32 -17.51,16.73 -28.52,21.95zm320.78 -191.99c-9.3,17.21 40.96,57.6 44.61,87.26 -25.84,-5.05 -45.05,-44.78 -67.48,-52.8 -15.57,23.55 -3.47,13.53 -35.16,55.64 -10.29,13.68 -36.28,38.18 -40.53,51.22 22.04,2.29 52.1,-10.2 79.15,-11 49.77,-1.5 120.84,35.63 125.21,58.57 3.14,16.51 -22.1,51.88 -30.9,56.83 -19.9,-12.95 -11.39,-27.25 -35.89,-30.8 -0.75,64.05 -11.87,111.7 -49.81,145.72 -19.92,17.86 -46.33,23.04 -75.92,9.69 -17.55,-7.92 -46,-31.55 -50.55,-46.16 30.62,-33.28 40.49,1.63 66.14,20.37 17.4,12.71 39.17,5.6 45.31,-10.01l-0.53 -6.67c-35.31,10.44 -26.55,11.95 -55.39,-6.59 -0.68,-0.74 -1.31,-1.88 -1.66,-2.51 -0.34,-0.62 -1.15,-1.76 -1.54,-2.54 -0.38,-0.75 -0.95,-1.73 -1.33,-2.57 -0.38,-0.83 -0.75,-1.76 -1.09,-2.63 -5.01,-12.73 -10.89,-47.88 -40.48,-51.99l-10.14 2.26c-8.93,-0.25 -22.33,6.63 -34.01,2.43 -13.96,-5.02 -7.65,-15.3 -11.97,-29.47 -26.97,3.1 -17.96,21.05 -36.26,28.81 -28.11,11.93 -22.77,-7.69 -47.04,22.66 -9.7,-2.57 -5.88,-5.8 -17.46,-10.95 -18.42,8.24 -25.41,28.41 -50.18,36.23 2.55,-24 21.27,-40.48 28.13,-62.78 -15.95,2.75 -13.97,12.25 -34.16,16.03 -1.62,-24.4 55.88,-65.61 77,-76.54 38.93,-20.16 88.14,-17.94 106.95,-49.71 14.92,-25.2 32.81,-79.41 42.56,-111.27 12.78,-41.81 32.42,-84.67 6.27,-126.69 -57.51,-3 -71.84,60.54 -89.53,92.33l-73.09 110.78c24.26,-5.36 85,-36.22 111.82,-19.82 -5.18,13.9 -29.59,13.65 -62.26,24.81 -117.14,40.02 -95.42,52.6 -152.54,113.06 -29.63,31.36 -57.94,53.86 -94.75,83.26 -16.27,12.99 -32.61,24.79 -50.13,37.15 -15.76,11.12 -35.15,31.71 -59.71,32.47 6.18,-13.26 79.93,-82.47 100.87,-150.32 -5.95,2.89 -77.95,63.88 -133.93,94.9 -35.43,19.63 -86.19,28.62 -62.37,101.46 4.67,14.25 14.85,26.59 17.15,38.55 -20.32,-1.19 -37.42,-25.02 -55.29,-34.23 6.74,31.3 16.58,27.23 11.29,70.86 -2.47,20.35 -11.53,47.78 -25.88,57.47 -31.26,21.11 -97.69,-35.66 -99.56,-54.1 22.77,-23.31 36.52,2.19 48.92,14.15 19.75,19.03 40,17.35 43.13,-14.16 -16.5,6.47 -25.14,23.91 -37.14,0.01 10.18,-11.91 21.41,-4.28 36.85,-13.96 11.15,-14.65 -9.25,-75.55 -14.65,-90.68 -34.3,-5.78 -81,1.95 -79.32,37.53 0.48,10.03 5.62,13.2 -3.48,19.6 -30.31,21.27 -41,-39.22 -43.03,-42.7 -6.55,5.53 -15.84,18.44 -22.43,25.33 -5.4,-13.67 -14.49,-21.41 -24.95,-6.45 -17.75,25.37 49.06,61.3 50.15,91.47 -24.77,4.11 -67.45,-32.37 -90.18,-41.15 5.95,17.8 24.63,39.56 33.67,57.09 37.06,71.77 -13.73,172.86 11.22,243.57 22.2,62.98 125.71,136.74 196.1,174.1 84.37,44.78 176.93,72.76 286.35,79.94 38.42,2.52 60.82,-31.6 123.81,-60.78 93.6,-43.36 87.35,-21.42 149.05,-36.17 4.97,-37.02 -6.96,-45.36 15.89,-78.21 32.04,-46.05 85.13,-52.54 135.94,-33.26 21.56,8.18 46.29,28.2 67.58,31 12.39,-7.23 24.84,-19.09 38.55,-28.07 48.54,-31.8 95.43,-44.6 157.15,-42.62l87.86 -162.84c51.85,-91.87 71.71,-91.93 155.04,-99.94 9.78,-21.73 8.11,-31.83 23.96,-52.53 18.12,-23.67 28.97,-25.08 41.33,-36.12 13.96,-18.65 29.01,-68.23 31.51,-89.3 2,-16.78 0.19,-80.81 20.37,-103.01 16.91,-21.44 23.01,-37.43 39.49,-54.23 23.2,-23.65 85.95,-78.69 119.08,-45.73 17.71,17.61 23.23,43.84 19.52,76.28 -20.47,-16.36 -12,-64.71 -49.43,-64.71 -22.1,0 -63.52,25.04 -70.02,39.42 28.69,13.4 36.21,13.16 45.05,49.7 9.05,37.36 -1.47,46.66 -9.34,75.24 -7.03,15.96 -18.59,38.48 -26.74,51.52 -11.08,17.72 -25.22,30.01 -33.08,44.46l29.56 -3.01c40.2,-0.32 74.08,-48.04 88.9,-54.63 13.08,24.55 -36.27,58.46 -54.94,67.89 -39.58,20.01 -66.79,11.13 -108.83,20.38 -61.36,13.5 -96.06,77.89 -76.74,100.44 17.15,20.01 12.48,17.29 25.23,40.83 32.64,1.01 146.75,-63.61 172.05,-80.07 49.66,-32.3 96.78,-74.79 124.83,-129.86 15.19,-29.82 24.35,-59.48 28.16,-97.64 2.02,-20.15 2.21,-40.68 1.15,-60.93 -2.07,-39.31 -44.83,-48.25 -96.74,-97.87l-63.04 -66.67c-30.86,0.61 -85.35,51.46 -98.48,66.21 -25.66,28.82 -36.79,73.16 -56.72,110.61l-108.47 201.99c-9.21,13.97 0.1,6.02 -12.64,9.79 -3.25,-31.54 17.37,-69.97 20.92,-100.9 -8.42,5.17 -40.85,52.04 -50.3,63.49 -9.93,12.02 -44.97,47.24 -63.87,50.59 4.01,-26.62 24.17,-49.35 28.54,-84.61 -10.65,5.82 -6.12,2.62 -14.37,12.39l-38.89 41.25c-39.43,39.49 -135.54,118.98 -179.06,136.46 6.81,-21.32 30.08,-37.68 51.03,-89.55 7.9,-19.56 36.51,-86 33.52,-102.98 0.26,-29.9 -8.52,-56.04 -11.53,-87.28 -1.38,-14.35 -3.52,-86.37 -5.98,-91.9 -5.61,7.55 -57.31,104.97 -93.93,158.51 -2.95,4.32 -3.75,6.25 -6.99,10.32 -7.49,9.39 -2.47,4.95 -11.87,10.74 2.96,-26.75 29.14,-79.7 38.81,-109.05 22.62,-68.7 29.52,-200.59 25.15,-275.3 -2.52,-43.18 -8.99,-97.07 -9.17,-139.16l-4.89 -11c-0.98,-3.07 -2.02,-9.61 -2.75,-13.06 -4.73,16.07 -52.15,87.7 -63.08,104.36 -65.91,100.52 -51.1,78.55 -82.32,76.74z"/>
   <path class="fil14" d="M2383.97 785.55c39.34,17.53 107.5,297.72 105.07,362.88 -9.39,-7.49 -6.99,-6.14 -10.47,-21.59l-40.83 -164.62c-5.5,-19.84 -55.91,-171.7 -53.77,-176.67zm-361.43 -303.9c27.49,-17.44 101.06,-11.14 130.57,0.17 33.54,12.86 74.03,39.48 94.83,59.02 45.08,42.34 109.97,130.51 119.79,187.39 -14.05,-6.56 -2.39,3.25 -13.07,-11.38 -36.83,-50.41 -50.07,-99.16 -120,-159.25 -33.72,-28.98 -99.27,-67.93 -148.14,-74.62 -16.41,-2.25 -56.4,5.74 -63.97,-1.33zm-1409.14 472.32c0.89,-54.11 158.25,-224.92 201.18,-264.63 78.58,-72.7 164.72,-142.67 268.27,-192.83 42.31,-20.5 179.15,-88.49 236.47,-56.74 -8.05,10.82 -91.69,25.73 -119.84,34.16 -94.18,28.19 -219.63,111.68 -291.04,166.1 -90.52,68.98 -158.44,142.81 -228.65,228.7 -20.63,25.23 -48.74,76.88 -66.38,85.25zm1626.51 -495.92c-16.23,-11.06 -28.09,-14.12 -34.99,-26.37 30.74,-18.75 122.46,65.35 147.13,95.84 65.28,80.66 128.77,240.65 148.86,347.71 6.29,33.52 30.29,200.04 15.73,223.15 -16.71,-33.46 -18.99,-233.31 -91.31,-396.14 -27.85,-62.7 -55.01,-108.17 -90.1,-154.42 -24.45,-32.24 -60.5,-66.06 -95.32,-89.78zm-1757.28 1335.51l-7.04 -21.73 -12.31 1.18c-9.28,10.6 -39.38,77.1 -52.5,97.34 -17.81,27.48 -47.64,69.31 -72.49,83.67 2.27,-10.72 55.03,-94.64 66.19,-114.44 52.37,-92.92 109.91,-253.14 139.55,-359.9 4.42,-15.91 4.1,-26.64 17.41,-29.92 13.54,29.47 -35.55,144.93 -36.43,178.08 6.28,34.71 3.44,94.39 2.54,138.45 -0.67,32.98 -15.17,11.86 -7.24,55.18 3.13,17.13 0.14,15.54 13.2,17.43 3.2,-6 20.77,-80.41 24.48,-93.63 16.2,-57.63 34.01,-130.21 52.85,-184.44 36.96,-106.35 11.47,-60.4 41.39,-65.86 2.25,-23.62 -0.89,-2.29 6.49,-11.62 14.15,-39.22 30.13,-167.76 66.83,-178.18 -1.07,24.57 -16.45,67.76 -22.8,96.3 -43.07,193.9 -42.84,491.98 61.65,660.7 8.78,14.18 16.19,28.15 35.15,28.65 4.54,-13.91 -17.23,-101.5 -20.67,-129.76 -6.25,-51.35 -4.01,-99.28 -8.68,-149.5 -11.65,-5.56 -15.25,-1.96 -22.79,-10.63 30.68,-24.77 17.72,36.04 29.02,-76.86 3.26,-32.61 13.58,-63.9 15.12,-94.05 3.38,-66.22 -9.88,-134.4 -4.18,-206.88 15.29,-194.16 61.78,-336.16 163.27,-486.08 26.74,-39.5 66.63,-92.22 96.13,-120.35 77.73,-74.12 78.88,-83.02 172.54,-152.11 14.52,-10.71 50.34,-42.28 70.2,-34.96 -0.29,13.57 -62.39,51.59 -86.68,70.84 -43.31,34.3 -129.32,113.13 -163.9,157.27 -131.57,167.96 -202.27,329.9 -223.31,546.68 -0.95,9.81 -3.97,28.02 0.69,36.35 7.08,-13.64 14.18,-54.61 19.69,-74.2 18.91,-67.23 50.13,-153.08 80.24,-212.39 49.2,-96.92 71.95,-130.03 130.97,-211.37 7.77,-10.71 12.63,-24.34 23.24,-17.18 6.04,6.51 -38.82,63.06 -50.25,80.96 -60.31,94.45 -98.07,179.89 -135.45,290.17 -23.7,69.9 -41.39,155.91 -50.2,232.26 -5.04,43.71 -10.46,86.45 -7.63,131.85 1.74,27.93 5.33,105.56 17.35,126.1 13.63,5.09 34.38,5.3 48.86,2.28 16.77,-29.15 38.16,-189.03 79,-200.13 1.27,32.68 -19.31,66.39 -12.5,159.5 6.62,90.44 6.91,59.21 43.33,89.14 9.69,7.96 18.1,14.57 21.29,27.41 -28.21,-0.73 -27.08,-6.95 -47.97,-12.11 2.01,39.37 51.56,189.89 101.02,204.77 5.96,-40.43 14.38,-54.06 33.05,-81.59 9.5,-14.01 42.75,-64.76 55.14,-53.6 0.44,0.4 9.6,0.33 -2.95,18.09 -4.27,6.04 -7.19,9.2 -12.34,15.98 -8.32,10.95 -19.37,22.89 -23.82,36.63 20.57,-9.81 132.03,-90.61 153.91,-109.08 21.78,-18.39 46.64,-45 61.2,-71.22 7.71,-13.89 33.63,-81.43 36.46,-95.65l-26.9 5.97c2.53,-27.88 44.66,-38.08 47.52,-81.66l-143.64 101.98c-26.14,16.24 -137.2,88.07 -162.18,77.48 3.44,-9.12 89.08,-65.39 112.84,-84.85 37.63,-30.8 69.19,-60.67 100.82,-98.09 30.29,-35.82 56.3,-70.57 85.4,-113.56 11.97,-17.69 69,-110.34 71.95,-129.33l3.53 -10.57c-30.37,-0.02 -25.63,-9.82 -25.21,-41.04 1.04,-78.16 58.28,-164.57 91.46,-232.19 7.56,-15.4 14.55,-29.35 22.02,-44.25 16.95,-33.8 10.97,-34.08 29.95,-34.82 11.27,23.59 -0.51,43.46 -8.91,66.09 -20.65,55.7 -22.14,75.86 -36,131.17 -5.69,22.68 -16.6,44.04 -18.29,67 -5.02,29.43 -2.25,30.9 -13.64,58.71 -40.05,97.82 -75.4,158.72 -138.41,241.93 -14.22,18.78 -65.89,71.75 -70.62,86.11 29.42,-10.15 108.09,-81.18 136.27,-107.76 11.77,-11.1 28.28,-35.51 46.45,-28.56 -0.68,14.22 -22.92,33.31 -32.22,42.79 -20.04,20.44 -18.86,16.53 -26.73,51.16 25.62,-7.72 86.38,-49.84 135.41,-64.94 19.38,-5.97 37.43,-4.27 46.48,-19.55 42.82,-72.28 20.46,-101.64 10.76,-154.26 -3.32,-18.02 -3.84,-41.61 -10.7,-57.8 -6.87,3.93 -41.71,76.69 -51.11,91.19 -13.31,20.55 -44.17,75.07 -68.8,79.18 14.72,-57.76 131.47,-145.22 188.37,-569.46 5.22,-38.9 8.03,-81.91 6.05,-121.79 -1.26,-25.4 -13.41,-105.12 -6.74,-119.57 10.92,3.76 10.58,1.3 15.36,16.14l9.59 83.87c2.63,40.17 2.95,80.64 1.24,120.86 -4.9,114.75 -24.75,207.31 -57.56,311.39 -15.25,48.39 -16.07,53.01 -7.9,106.12 10.76,69.97 25.58,138.07 51.82,196.15 47.84,7.23 21.81,-26.24 30.62,-136.76 1.94,-24.29 -3.48,-40.95 18.87,-40.52 12.48,23.84 -1.61,129.49 2.29,167.48l28.07 -2.33c-2.28,-21.97 -11.99,-16.03 -9.12,-46.66 1.5,-15.93 5.28,-30.45 7.86,-46.24 39.48,-241.71 58.77,-354.54 49.58,-609.17 -0.83,-22.98 -8.41,-85.02 4.48,-97.51 17.99,12.82 48.58,171.82 53.32,208.4 10.83,83.63 18.49,83.06 20.98,178.22 0.53,20.46 7.9,34.72 9.65,53.98 -1.15,24.57 18.86,134.9 26.62,163.88 38.78,144.92 63.61,281.35 45.68,433.28 -2.52,21.36 -12.13,69.39 -11.16,85.58l2.87 10.88c0.43,-0.38 1.89,-1.46 2.72,-2.3 35.85,-91.16 45.59,-168.78 66.54,-252.69 4.23,-16.94 0.09,-11.02 9.73,-14.67 12.67,23.08 26.4,268.42 22.16,322.48 -4.56,58.21 -13,96.23 -27.97,146.06 -6.59,21.93 -25.1,70.39 -38.89,90.67 -5.5,8.08 -16.17,14.53 -16.37,25.23 23.61,-8.24 152.57,-147.34 186.76,-207.44 11.34,-19.94 44.08,-72.06 46.84,-84l20.36 -53.51c0.46,-3.78 -0.87,-18.41 6.18,-26.51 37.82,-126.91 46.46,-298.94 32.43,-435.48 -1.37,-13.27 -4.01,-21.08 2.43,-29.5 16.25,18.59 14.68,63.38 20.61,88.04l5.23 10.27c4.37,13.47 0.04,20.13 4.9,40.17 10.75,44.34 28.87,61.74 31.88,141.47 2.86,76.02 -7.65,64.62 -14.82,99.48 -0.74,3.61 1.67,101.26 2.68,108.46l14.16 2.23c15.55,-58 28.17,-74.95 44.71,-156.8 23.09,-114.24 26.15,-259.78 13.7,-375.76 -3.01,-27.99 -4.46,-62.75 -11.21,-88.92 -4.8,-18.59 -26.45,-66.85 -21.05,-76.94 41.38,18.07 68.6,292.72 66.95,355.66 -1.89,71.91 16.27,110.7 44.82,164.3 18.24,34.24 64.07,106.58 91.65,123.44 -3.6,-16.72 -33.51,-86.53 -48.05,-146.2 -6.6,-27.09 -10.63,-51.11 -15.07,-78.98 -4.43,-27.82 -4.08,-63.36 -9.48,-90.46 6.37,-48.57 8.07,-96.47 6.89,-146.62 -0.58,-24.48 -8.49,-121.21 -1.55,-137.95 38.75,13.12 83.68,238.66 91.01,295.07 1.65,12.68 6.25,99.24 17.22,107.76 10.82,-26.67 19.55,-121.86 22.62,-153.94 9.7,-101.25 9.62,-238.01 -10.97,-335.92 -6.46,-30.71 -0.15,-56.99 -6.38,-80.37 -14.04,-52.77 7.39,-43.62 8.37,-69.38l-39.35 -113.07c32.1,15.15 73.6,143.35 88.17,181.53 28.83,75.59 36.88,130.66 52.52,212.05 0.75,1.04 1.45,1.4 1.76,3.41l8.95 22.64 12.89 -2.65 0.37 -17.63c1.25,-24.28 -18.17,-48.63 -15.89,-74.29 30.52,8.15 55.4,155.13 60.91,195.25 8.85,64.44 20.15,178.63 19.15,239.83 20.12,-14.61 20.41,-49.24 21.4,-76.91 1.94,-55.01 11.43,-119.68 13.75,-177.95 0.73,-18.4 -5.48,-79.34 9.63,-85.99 7.34,8.08 10.8,110.97 15.61,133.63 8.41,39.62 17.59,82.09 29.07,121.14 15.51,52.78 61.15,192.27 105.45,196.15l0.02 -9.08c-0.62,-7.66 -25.62,-54.74 -31.98,-68.91 -24.6,-54.88 -70.05,-194.81 -70.5,-249.07 9.84,5.02 7.63,2.02 14.42,15.35 7.9,15.49 16.53,50.99 21.61,68.69 6.37,22.21 19.31,75.01 30.79,86.81 2.15,-28.66 -8.51,-125.05 -11.22,-167.09 -1.68,-26.14 -1.54,-27.67 -16.94,-40.7 -28.72,-24.31 -94.34,-117.41 -95.73,-143.09 22.39,-5.25 17.27,13.35 54.12,62.57 43.09,57.56 135.31,145.33 200.51,164.25 -4.86,-9.69 -43.37,-50.15 -86.29,-135.21 -25.37,-50.27 -43.01,-105.72 -57.45,-166.34 -16.27,-68.28 -65.2,-303.34 -91.02,-351.53l1.06 26.48c14.55,64.72 21.41,123.69 24.58,189.43 1.27,26.45 3.49,25.4 -4.69,34.82 -12.58,-8.62 -11.35,-48.77 -13.35,-63.26 -30.88,-223.93 -99.5,-451.87 -276.89,-599.38 -36.17,-30.08 -108.54,-74.27 -157.12,-84.29 -17.13,-3.54 -56.63,0.82 -66.08,-13.89 19.79,-12.02 89.02,-7.49 116.29,-13.6 -5.33,-10.72 5.1,-3.6 -12.19,-10.01 -59.22,-21.97 -133.17,12.21 -148.78,12.05 -11.28,-26.59 -21.89,-102.17 -59.35,-130.61 7.7,37.7 35.69,83.99 20.44,127.98 -26.23,-3.26 -2.29,-35.04 -106.36,-113.36 -26.15,-19.68 -106.67,-67.14 -146.03,-75.22l14.4 11.37c6.38,3.53 9.7,5.01 15.73,8.64 54.82,32.97 178.58,135.26 181,178.73 -16.86,0.49 -17.21,-3.78 -25.17,-13.33 -98.08,-117.68 -327.47,-149.52 -471.24,-151.81 -350.25,-5.58 -680.95,197.8 -975.91,352.31 -109.75,57.49 -220.26,112.38 -340.19,155.67 -61.2,22.09 -83.97,14.64 -147.27,19.99l12.87 8.96c61.77,27.28 218.51,52.8 286.26,45.24 33.21,-3.71 36.72,-15.84 53.15,-33.36 87.98,-93.84 241.35,-208.75 351.82,-273.18 20.49,-11.96 226.59,-116.41 252.02,-95.98 -4,12.17 -59.36,30.87 -73.43,37.18 -25.68,11.51 -52,21.97 -77.2,34.44 -154.16,76.26 -394.2,271.44 -498.4,398.96 -235.31,287.97 -321.57,286.8 -354.58,321.26 28.28,-3.23 144.11,-43.27 164.03,-64.98 24.17,-26.34 16.62,-42.37 39.37,-38.02 -1.72,15.27 -48.14,101.76 -59.2,122.98 -53.09,101.9 -133.66,217.76 -231.45,278.14l-21.94 13.07c-7.71,6.36 -2.39,0.32 -7.34,8.23 35.85,-6.11 143.78,-50.61 158.49,-70.14 10.39,-13.8 24.95,-55.14 36.25,-75.42 10.78,-19.35 30,-60.04 52.08,-66.63 -9.48,55.77 -84.74,99.49 -101.12,382.77 -4.81,83.21 0.24,142.89 -19.43,223.21 -23.31,95.19 -64.11,145.84 -69.83,169.9 17.42,-10.45 62.4,-65.57 78.71,-88.21 22.18,-30.8 29.83,-51.11 33.53,-91.71 3.37,-37.04 -0.87,-27.4 9.77,-34.35 11.13,7.95 6.74,21.15 6.01,50.73 -4.93,199.98 -100.31,269.5 -110.56,303.35 58.89,-28.1 183.36,-143.13 223.48,-195.03 13.65,-17.66 50.42,-66.06 53.65,-87.92z"/>
   <path class="fil15" d="M819.79 2019.82c-0.46,-12.22 -1.91,-10.33 7.95,-15.77 25.73,-14.17 7.5,-16.81 28.63,-24.53 -22.72,-55.5 -37.86,-156.49 -50.53,-166.25 -5.95,7.03 -6.12,9.98 -5.66,25.97 0.77,27.46 4.02,165.41 19.61,180.59z"/>
   <path class="fil16" d="M1881.14 2547.88c8.67,-1.22 121.8,-32.94 129.18,-45.38 -23.62,-22.19 -125.29,6.36 -129.18,45.38z"/>
   <path class="fil17" d="M2653.54 1839.5c-1.04,-20.53 -16.17,-45.8 -24.56,-59.95 -9.85,-16.6 -23.54,-42.93 -40.34,-50.42 4.65,28.48 43.87,99.74 64.9,110.37z"/>
   <path class="fil18" d="M908.01 2045.27c13.37,6.37 89.27,2.91 103.09,-3.49 -13.62,-10.21 -65.09,-6.59 -83.25,-6.7 -16.88,-0.11 -18.66,-3.77 -19.84,10.19z"/>
   <path class="fil19" d="M1730.29 1631.94c2.28,-19.48 -7.94,-52.82 -16.67,-68.47l-12.36 1.86c-1.76,14.51 16.31,61.55 29.03,66.61z"/>
   <path class="fil20" d="M1538.57 1683.58c10.27,-7.72 14.78,-17.7 20.83,-29.84 5.9,-11.85 12.94,-25.35 16.09,-39.91 -27.94,7.14 -33.41,43.96 -36.92,69.76z"/>
   <path class="fil21" d="M1461.1 1871.22c11.02,-5.23 19.54,-14.63 28.52,-21.95 14.81,-12.09 22.01,-16.35 26.33,-27.84 -26.35,2.59 -54.98,25.98 -54.85,49.79z"/>
   <path class="fil22" d="M1522.51 3444.86c6.97,4.11 68.36,4.3 78.41,0 -5.42,-12.04 -25.36,-13.06 -38.82,-8.49 -39.2,13.28 -21.22,-3.48 -39.59,8.49z"/>
   <path class="fil23" d="M924.55 1799.3c13.27,-9.14 7.1,-17.93 5.85,-50.84l-13.3 39.16c0.17,17.87 -2.43,6.04 7.45,11.68z"/>
   <path class="fil24" d="M1657.49 2089.7c-18.11,9.13 -7.97,24.96 4.83,19.42 14.11,-6.1 10.29,-27.04 -4.83,-19.42z"/>
   <path class="fil25" d="M805.84 1789.58c3.29,-4.42 5.72,-2.06 4.07,-12.96 -1.6,-10.58 -3.61,-8.35 -11.05,-9.42 -10.16,23.89 6.98,22.38 6.98,22.38z"/>
   <path class="fil26" d="M1647.28 1550.27c6.16,-0.12 11.97,4.85 12.95,-7.33 0.93,-11.55 -9.52,-10.02 -12.95,-10.36 -5.08,10.93 -4.77,8.03 0,17.7z"/>
   <path class="fil27" d="M823.92 2125.55c-1.2,-7.11 -1.28,-10.23 -5.27,-16.25 -4.84,-7.32 -2.95,-5.97 -12.11,-7.61 2.59,15 5.59,20.49 17.38,23.86z"/>
   <path class="fil28" d="M1701.4 2095.45l5.41 2.53c6.91,0.37 1.55,0.89 9.46,-1.03 -1.98,-20.54 -20.79,-15.45 -14.87,-1.5z"/>
   <path class="fil29" d="M1010.43 2258.17c4.95,3.14 0.24,3.18 8.53,3.77 8.15,0.58 2.57,0.17 8.82,-1.54 -4.78,-15.93 -13.43,-18.91 -17.35,-2.23z"/>
   <path class="fil30" d="M1703.14 3925.48c0.01,-0.1 12.11,-5.56 3.49,-18.24 -4.21,2.22 -5.37,-0.97 -7.58,6.29 -7.39,24.28 -0.72,5.78 4.09,11.95z"/>
   <path class="fil31" d="M1969.03 1858.84c-0.84,0.84 -2.29,1.92 -2.72,2.3l-2.87 -10.88 -6.88 15.67c-1.99,11.54 -1.53,8.6 1.46,14.49l11.02 -21.57z"/>
  </g>
 </g>
</svg>
