<?xml version="1.0" encoding="UTF-8"?>
<!DOCTYPE svg PUBLIC "-//W3C//DTD SVG 1.1//EN" "http://www.w3.org/Graphics/SVG/1.1/DTD/svg11.dtd">
<!-- Creator: CorelDRAW -->
<svg xmlns="http://www.w3.org/2000/svg" xml:space="preserve" width="43.8762mm" height="52.5742mm" version="1.1" style="shape-rendering:geometricPrecision; text-rendering:geometricPrecision; image-rendering:optimizeQuality; fill-rule:evenodd; clip-rule:evenodd"
viewBox="0 0 397.96 476.85"
 xmlns:xlink="http://www.w3.org/1999/xlink"
 xmlns:xodm="http://www.corel.com/coreldraw/odm/2003">
 <defs>
  <style type="text/css">
   <![CDATA[
    .fil0 {fill:black}
    .fil11 {fill:#353A35}
    .fil10 {fill:#3E3352}
    .fil16 {fill:#403354}
    .fil14 {fill:#5D934A}
    .fil19 {fill:#5F3F81}
    .fil18 {fill:#5F964C}
    .fil1 {fill:#639A4B}
    .fil3 {fill:#715249}
    .fil9 {fill:#789CB6}
    .fil2 {fill:#79B54A}
    .fil17 {fill:#7CA2BD}
    .fil13 {fill:#7EBE4D}
    .fil24 {fill:#80C04D}
    .fil6 {fill:#88594B}
    .fil25 {fill:#90559A}
    .fil22 {fill:#92B5D0}
    .fil20 {fill:#A560A5}
    .fil4 {fill:#A87458}
    .fil15 {fill:#B2D572}
    .fil5 {fill:#B47C5D}
    .fil12 {fill:#BA81B6}
    .fil21 {fill:#C3C9C6}
    .fil26 {fill:#C4C9C8}
    .fil7 {fill:#D2828B}
    .fil8 {fill:#E1ABAE}
    .fil23 {fill:#F1F1EF}
   ]]>
  </style>
 </defs>
 <g id="Camada_x0020_1">
  <metadata id="CorelCorpID_0Corel-Layer"/>
  <g id="_2377741803264">
   <path class="fil0" d="M83.77 419.68c-0.1,2.66 3.75,15.73 6.15,17.67 2.48,0.98 4.94,2.96 7.97,3.39 15.38,2.2 27.54,-9.41 24.1,1.48 0.52,0.51 1.63,2.26 1.98,3 0.82,0.12 2.91,0.73 4.28,0.92 -0.16,2.98 -4.86,4.85 -7.25,7.11 -2.37,2.25 -2.61,4.34 -3.14,7.43 0.48,-0.01 0.6,-0.87 0.42,0.28 6.92,-0.02 29.6,-4.97 35.18,-7.75 13.8,-6.88 8.32,-2.96 9.05,-10.89 1,-0.62 1.61,-1.34 3.14,-1.45 0.68,-1.14 3.07,-3.34 4.98,-4.64 -0.95,-11.01 24.48,-8.21 28.47,-8.93 4.71,-0.85 2.44,-2.93 5.7,-4.07 1.26,0.49 1.37,1.01 2.58,1.63 2.33,1.2 8.89,1.89 10.64,3.86 1.9,1.93 5.16,5.59 5.77,8.28 2.73,0.71 6.95,8.83 14.5,12.03 1.32,0.56 1.88,1.14 2.31,1.78 5.76,-0.14 6.36,2.77 8.51,5.56 1.04,1.35 1.49,1.46 2.35,2.56l12.65 -0.22c2.43,1.37 1.29,3.24 4.95,4.29 7.08,2.03 4.53,-0.62 13.82,8.71 0.98,1.05 1.9,2.12 2.21,2.68 2.59,0.51 16.31,5.35 17.16,-0.14 0.88,-7.83 -3.97,-13.17 -7.5,-18.87 -2.53,-4.09 -2.15,-15.27 -2.16,-20.84 -0.01,-4.04 -1.29,-10 -0.93,-12.92 3.4,-2.45 6.3,-2.99 9.58,-3.31 1,2.48 1.18,12.77 2.37,16.69 2.5,8.24 10.27,5.79 12.6,5.88 1.02,-1.42 9.09,-5.89 11,-7.39 13.52,-10.61 13.58,-7.1 11.68,5.04 -0.38,2.43 -0.25,1.98 -1.45,3.79 1.12,3.03 -2.59,12.47 -2.89,16.84 3.72,-0.92 2.28,-1.38 4.37,-4.1 0.88,-1.14 2.22,-3.69 3.91,-4.66 0.32,-3.61 9,-12.59 10.34,-16.71 0.28,-4.62 2.26,0.8 2.76,-11.84 1.78,-44.97 -23.41,-79.14 -23.59,-84.34 -0.15,-4.42 14.39,-2.35 20.1,-34.36 1.21,-6.8 4.64,0.5 15.76,-4.65 6.01,-2.78 6.01,-5.34 9.19,-5.9 0.17,2.97 0.24,6.18 1.37,8.48 2.35,2.2 5.99,5.51 10.56,3.72 5.07,-1.98 4.17,-4.2 5.11,-6.35 0.43,-0.77 1.23,-1.5 1.62,-2.23 1.93,-8.06 3.66,-12.66 -1.49,-19.18 -1.24,0.19 -1.04,0.16 -1.04,-0.62l-1.7 -0.72c0.15,-1.9 0.94,-2.67 1.63,-4.33 1.37,-3.32 -0.06,-2.38 1.72,-3.74l1.36 -7.92c0.08,-2.53 -0.47,-3.16 -0.58,-6.06l0.34 0.02c-0.31,-0.19 -1.3,0.32 -0.5,-1.79 -1.17,-0.84 -3.51,-3.75 -4.53,-5.11 -1.72,0.14 -3.15,0.16 -4.4,-1.02 -0.68,0.78 0.86,0.77 -1.82,1.09 -1.33,-4.19 11.09,-23.26 -2.84,-31.78 -3.27,-2 -10.86,-0.22 -12.59,3.23 -2.44,4.87 -4.42,4.6 -8.27,6.96 -1.57,0.96 -3.21,3.58 -5.13,4.31 -0.8,1.8 -4.02,5.99 -5.98,2.58 0.52,-2.74 0.04,-0.84 0.93,-1.32 0.31,-5.7 5.25,-6.7 3.63,-25.7 -0.97,-11.39 -12.16,-11.99 -16.11,-9.37 -2.06,1.37 -4.12,4.27 -5.77,6.18 -1.31,1.51 -3.14,7.09 -3.74,10.2 -0.9,4.71 -0.03,2.22 -0.04,8.43 -0,1.6 -0.32,3.4 0.07,4.96 0.32,0.05 0.13,-1.46 0.47,1.02 0.9,6.52 -1.07,9.16 -5.14,13.97 -0.84,0.99 -22.12,4.31 -23.16,4.14 -0.89,0.82 -11.91,5.13 -13.75,4.95 -2.89,3.05 -12.13,4.96 -16.22,8.62 -0.73,0.94 -0.04,1.74 -3.5,0.75 0.2,-1.75 0.85,-2.28 3.12,-3.02 1.11,-2.94 8.62,-7.74 11.19,-10.36l23.62 -27.12c7.89,-11.42 20.43,-33.43 25.6,-46.02 2.66,-6.48 11.08,-28.06 12.45,-35.12 2.6,-13.48 -10.78,-5.19 -14.55,-5.28 -1.96,2.07 -9.19,4.08 -9.87,5.15 -1.04,1.64 -1.37,2.81 -4.6,3.54 -3.51,0.79 -3.98,2.79 -7.11,3 -0.9,1.28 -3.04,2.82 -5.41,2.9 -0.17,-7.3 0.1,-4.84 0.85,-5.51 0.31,-5.72 1.03,-1.93 -0.79,-8.24 -1.29,-4.46 2.45,-10.44 1.37,-17.7 -0.46,-3.07 -3.14,-3.55 -3.89,-5.97 -2.14,-0.91 -1.06,-0.19 -1.83,-2.26 -1.93,-5.82 -2.72,-28.26 -2.14,-35.82 0.59,-7.77 -1.88,-5.95 -2.91,-10.03 -2.17,-1.23 -2.32,-1.91 -4.93,-2.76 -2.76,-0.91 -3.99,0.01 -4.62,-2.28 -1.86,-1.18 -0.82,-0.83 -1.7,-3.36 -1.75,-5.01 -5.91,-5.76 -7.37,-7.52 -3.8,-0.35 -5.86,-4.98 -7.77,-7.26 -2.47,-2.95 -4.94,-5.72 -4.28,-10.8l-1.27 -1.9c-4.71,-7.97 -17.52,-3.66 -22.69,-5.96 -0.59,-0.26 -2.35,-1.68 -3.23,-2.25 -39.9,-24.24 -101.33,-21.96 -140.51,2.73 -10.68,6.73 -19.82,14.62 -28.85,23.39 -2.6,2.55 -4.04,5.61 -6.31,8.55 -3.22,3.89 -8.72,9.09 -10.08,13.93 -4.26,1.91 -5.87,2.11 -10.89,5.08 -2.31,1.37 -3.3,2.96 -5.37,4.06 0.1,1.78 -0.36,3.29 0.08,5.3 0.67,5.31 4.24,0.98 -3.91,16.34 -0.2,0.37 -0.62,4.69 -1.52,5.88 0.78,2.69 -1.76,19.17 -3.78,22.3 -1.74,2.69 -3.98,2.83 -4.41,4.61 -0.5,4.83 1.6,11.48 -1.92,15.12 -4.22,7.33 4.36,17.21 5.9,18.61 1.63,0.72 0.91,4.54 1.01,6.35 0.22,3.83 2.31,17.64 3.69,19.86 2.65,4.29 1.8,2.75 2.66,7.91 0.81,4.87 6.62,9.93 1.69,16.61 -2.27,0 -16.65,-8.23 -20.67,-9.8 -2.44,-0.96 -1.89,-1.37 -2.11,-2.09l-9.84 -0.31c0.4,7.29 -0.04,6.22 3.28,11.74 0.8,1.32 6.13,7.45 9.23,12.48 0.81,1.32 8,8.94 8.73,9.24 3.37,1.35 15.35,13.61 16.01,16.09 0.46,1.72 3.5,3.53 4.97,4.89 6.72,6.22 16.22,14.16 23.51,19.51 3.6,2.36 9.35,4.37 13.7,6.09 4.61,1.82 6.64,2.12 7.92,12.2 1.31,1.49 0.89,0.94 0.9,2.57 2.16,1.89 2.49,5.9 3.77,7.78 1.99,1.31 3.52,3.15 4.58,5.09 2,0.32 0.91,-0.18 2.18,1.32 -0.59,0.5 -9.65,2.7 -14.49,6.07 -0.47,7.29 4.26,11.33 8.94,15.73 3.78,3.55 13.43,9.71 18.61,12.38 1.38,0.34 9.03,3.75 4.51,5.11 -0.04,3.19 -0.25,3.24 -2.17,5.83l-0.18 -1.07c-4.39,-3.13 -7.11,-15.74 -19.45,-8.81 -1.44,5.15 -2.65,-0.08 -2.28,12.34l-1.82 0.6c-0.15,1.6 -24.84,-0.98 -25.63,6.69 -3.57,2.62 -2.06,5.53 -0.54,9.16 2,0.76 1.38,0.19 2.69,1.59 -0.56,2.27 -7.27,6.65 -9.56,7.84l0.47 0.43c-0.84,1.69 -11.7,14.26 -12.62,15.01 -3.02,2.46 -7.19,18.86 -3.26,27.83 5.38,12.27 4.51,7.68 10.96,15.27 1.68,-0.86 1.03,0.35 1.97,-0.81 -1.18,-3.08 -2.57,-5.67 -3.15,-9.22 -0.06,-0.17 -1.21,0.07 -1.38,-6.15 -0.22,-8.23 -0.26,-13.3 5.9,-15.69 8.53,-3.32 15.69,-2.44 22.6,3.36 3.48,2.92 2.45,3.67 4.84,5.73z"/>
   <path class="fil1" d="M315.37 333.62c1.83,-1.22 1.53,-0.16 1.58,-1.86 -2.08,-0.15 -4.37,0.08 -6.37,-0.14 -2.29,-0.25 -2.42,-1.03 -4.92,-0.9 -0.28,1.15 -0.03,1.01 -0.44,2.22 -0.65,1.93 -0.2,0.08 -0.84,1.79 4.45,1.66 2.12,2.77 5.55,3.94 1.78,0.61 6.39,0.7 8.06,-0.08 -0.75,-1.77 -1.53,-0.56 -3.55,-1.82l2.56 -1.49c-0.8,-1.45 0.34,0.23 -0.62,-0.77l-1.01 -0.89z"/>
   <path class="fil1" d="M331.25 331.77c2.78,-1.04 5.14,-4.38 7.34,-6.55 1.68,-1.65 4.72,-5.91 4.74,-7.84 -1.93,0.18 -4.85,5.43 -5.81,6.78 -2.41,3.39 -5.1,3.94 -6.27,7.62z"/>
   <path class="fil2" d="M138.34 386.79c1.74,0.62 7.7,-0.23 10.62,-0.86 2.12,-0.46 3.04,-0.92 4.38,-1.74 1.97,-1.21 0.19,-0.6 2.45,-1.11 1.16,-0.26 1.21,0.11 2.58,-0.38 -1.03,-2.66 -0.87,-0.21 -8.36,1.07 -3.36,0.58 -2.87,-0.41 -2.99,-0.52 3.54,-1.25 6.31,-1.34 10.77,-2.96 2.25,-0.81 2.01,-0.41 2.57,-2.36 -2.48,-0.08 -7.75,2.44 -10.95,3.22 -3.84,0.93 -4.29,0.4 -10.14,2.17 -1.2,0.36 -0.27,-0.18 -1.32,0.48l0.41 2.99z"/>
   <path class="fil2" d="M149.03 374.71l-0.63 0.57c-1.82,1.34 0.77,-0.42 -0.69,0.47 -4.65,2.83 -9.68,2.09 -9.86,5.09 3.38,-0.39 7.57,-2.47 10.75,-3.19 1.87,-0.42 9.78,2.05 9.82,-1.78 -2.18,0.18 -2.82,-0.26 -4.67,-1.13 -3.33,-1.55 -1.55,-0.42 -4.71,-0.03z"/>
   <path class="fil3" d="M305.91 321.2c-0.42,11.05 19.41,10.62 28.32,-17.49 0.56,-1.77 1.44,-3.71 0.64,-5.1l-4.83 10.3c-3.61,7.15 -9.65,19.52 -19.64,16 -2.85,-1 -2.2,-2.33 -4.49,-3.71z"/>
   <path class="fil3" d="M148.04 374.45l2.65 -1.55 -0.15 -2.08c-1.48,0.01 -5.58,2.45 -7.2,3.22 -7.94,3.75 -7.05,-0.22 -6.98,3.68 4.6,-0.09 7.73,-1.91 11.68,-3.27z"/>
   <path class="fil3" d="M83.38 181.05c-1.65,0.4 -0.43,0.35 -0.9,-0.38 -1.55,0.86 -1.94,1.24 -3.34,2.38 -1.37,1.12 -2.05,1.15 -2.89,2.76 2.03,-0.71 5.97,-2.97 7.14,-4.77z"/>
   <path class="fil3" d="M225.23 334.18c-1.46,0.98 -0.54,0.67 -1.06,-0.18 -0.54,0.48 -0.42,0.24 -0.94,0.96l-1.86 3.67c1.07,-0.6 1.12,-0.6 2.09,-1.75l1.77 -2.71z"/>
   <path class="fil4" d="M287.91 310.68c8.64,4 17.11,12.82 10.65,20.24 -1.91,2.19 -6.29,3 -7.25,4.91 2.17,1.15 13.54,-0.67 11.73,-14.04 -0.7,-5.15 -1.53,-5.39 -5.48,-8.15 -1.65,-1.16 -6.28,-3.94 -8.35,-3.55l-1.31 0.59z"/>
   <path class="fil4" d="M133.99 390.46c0.09,-3.04 -0.94,-8.06 -1.82,-10.68 -0.76,-2.26 -3.19,-7.54 -3.24,-9.06 -1.21,-0.97 -1.17,-1.5 -1.65,-2.03 -1.27,-1.41 0.36,-0.99 -2.4,-1.21 1.57,5.55 5.25,10.24 6.35,17.03 0.21,1.3 0.31,2.12 0.58,3.3 0.78,3.43 0.05,2.42 2.18,2.65z"/>
   <path class="fil4" d="M123.64 374.27c2.08,1.8 2.77,4.82 3.78,8.06 0.68,2.18 0.45,8.52 1.89,9.66 2.71,-1.43 -0.48,-10.5 -1.06,-12.67 -1.24,-4.58 -3.5,-7.4 -5.02,-11.51l-1.41 0.55c0.2,3.3 2.08,2.62 1.84,5.91z"/>
   <path class="fil4" d="M129.29 370.02c2.45,1.09 6.13,15.71 6.39,19.03l1.33 0.27c0.44,-3.36 -2.57,-15.07 -4.55,-18.64 -2.42,-4.36 -2.19,-3.35 -4.1,-3.75l0.93 3.08z"/>
   <path class="fil5" d="M287.73 458.68c0.43,1.94 2.04,2.7 2.64,4.44 1.11,3.22 -2.09,0.7 0.17,4.72 1.58,2.81 5.64,5.79 8.92,5.31 0.57,-6.3 -1.11,-4.17 -3.59,-5.52 0.53,-1.71 0.67,-1.24 1.38,-2.63 -2.28,0.22 -1.92,1.26 -3.72,0.43 1.27,-2.09 1.28,-1.07 2.91,-2.76 -0.28,-2.08 -3.37,-6.38 -5.1,-7.13 -0.61,0.39 -3.23,2.74 -3.61,3.14z"/>
   <path class="fil5" d="M140.34 454.43l0.89 -2.6c-2.13,-0.51 -4.87,-0.62 -6.53,0.22 -1.54,0.78 -0.94,1.26 -2.29,1.49 -2.01,0.35 -1.97,-0.84 -2.1,-0.98l-2.11 -1.47c-2.02,0.83 -6.72,4.24 -7.28,7.2 3.3,-0.14 17.58,-2.24 19.42,-3.86z"/>
   <path class="fil6" d="M299.46 473.15c-3.28,0.49 -7.34,-2.5 -8.92,-5.31 -2.26,-4.02 0.94,-1.5 -0.17,-4.72 -0.6,-1.74 -2.21,-2.51 -2.64,-4.44l-10.04 4.06c0.67,2.03 2.29,3.32 4.28,4.32 3.55,1.78 1.98,1.4 4.38,3.93 1.4,1.48 11.84,5.38 13.12,2.17z"/>
   <path class="fil6" d="M130.31 452.56c0.14,0.15 0.1,1.33 2.1,0.98 1.35,-0.23 0.75,-0.71 2.29,-1.49 1.66,-0.84 4.39,-0.73 6.53,-0.22l-0.89 2.6c2.33,-0.84 1.91,-0.62 2.99,-2.95 4.1,0.7 0.14,2.33 5.28,0.74 2.74,-0.85 11,-3.8 11.25,-6.33 -1.52,-0.1 -9.44,1.92 -12.57,2.25 -2.79,0.29 -5.22,-0.26 -7.55,-0.08 -4.59,0.35 -0.57,2.39 -5.47,0.31l-0.9 1.86c-0.03,-0.09 -0.12,0.27 -0.2,0.39 -1.33,-0.54 -1.29,-0.75 -2.78,-1.18 0.45,1.7 0.49,1.11 1.15,2.75 -0.59,0.61 1.05,0.75 -1.22,0.36z"/>
   <path class="fil6" d="M330.72 292.81c2.78,2.56 9.27,2.8 13.37,3.12 -1.95,-4.81 -4.05,-3.94 -9.22,-3.95 -4.78,-0.01 -3.65,0.48 -4.15,0.83z"/>
   <path class="fil7" d="M284.2 322.83c-0.41,0.45 -1.08,1.13 -1.36,1.71 -1.24,-6.26 1.32,-8.94 2.15,-12.72 -4.58,-1.29 -6.08,3.11 -7.6,6.71 -1.46,3.45 -2.92,7.13 -3.38,11.23 2.01,2.03 4.6,2.86 7.29,2.62 0.41,-0.98 2.76,-8.55 2.91,-9.55z"/>
   <path class="fil7" d="M331.02 302.02c1.12,-1.39 1.58,-2.89 1.6,-4.8 -1.93,-1.38 -4.36,-2.14 -6.41,-3.47 -1.75,-1.14 -4.16,-3.77 -6.34,-4.27 -1.37,2.32 -2.21,3.91 2.02,8.06 1.88,1.84 6.01,4.45 9.13,4.49z"/>
   <path class="fil7" d="M271.5 328.34l5.43 -14.5c-1.71,0.22 -3.06,1.13 -5.09,1.89 -2.56,0.97 -3.06,0.85 -3.84,3.49 -1.45,4.89 -0.59,7.6 3.5,9.12z"/>
   <path class="fil8" d="M327.04 311.38c1.16,-1.96 2.83,-4.53 2.85,-6.96 -3.06,-1.18 -5.37,-1.97 -7.65,-3.93 -1,-0.86 -4.47,-5.43 -5.54,-5.82 -5.32,6.75 -4.65,7.77 -1.7,10.86 2.38,2.5 7.38,6.37 12.05,5.84z"/>
   <path class="fil8" d="M325.21 313.77c-1.37,-0.65 -2.79,-0.64 -4.37,-1.4 -4.65,-2.24 -5.48,-3.13 -8.35,-6.5 -1.46,-1.71 -0.03,-0.69 -2.17,-1.68 -0.71,1.37 -3.36,5.37 -2.77,7.69 1.16,4.57 10.02,9.85 13,8.52 1.82,-0.81 4.53,-4.71 4.66,-6.63z"/>
   <path class="fil8" d="M284.49 332.79l6.29 0.31c0.73,-2.43 1.11,-5.1 2.16,-7.28 2.22,-4.65 7.65,-6.37 -1.05,-10.83 -4.2,1.61 -8.87,14.37 -7.4,17.8z"/>
   <path class="fil8" d="M141.18 373.03c2.12,0.11 3.99,-1.22 5.54,-2.46 0.2,-4.62 -3.94,-9.48 -8.97,-6.93 -0.56,1.79 0.8,3.14 1.61,4.6 0.95,1.73 1.09,2.98 1.82,4.8z"/>
   <path class="fil8" d="M284.2 322.83c0.62,-1.07 1.57,-3.24 2.23,-4.62 1.17,-2.45 2.23,-2.78 2.19,-4.99l-3.64 -1.39c-0.83,3.78 -3.39,6.46 -2.15,12.72 0.28,-0.58 0.95,-1.27 1.36,-1.71z"/>
   <path class="fil8" d="M138.21 370.52c-0.8,-1.78 -1.61,-3.65 -2.91,-4.83l-2.6 1.06c0.29,2.7 1.71,6.22 3.77,8.19 3.6,-0.52 2.93,-1.81 1.75,-4.42z"/>
   <path class="fil8" d="M292.58 331.93c4.81,0.46 8.57,-6.45 5.37,-9.98 -1.58,1 -5.07,8.41 -5.37,9.98z"/>
   <path class="fil8" d="M317.44 322.59c-10.23,-4.28 -7.42,-5.52 -10.63,-7.06 -0.12,8.25 7.64,9.06 10.63,7.06z"/>
   <path class="fil9" d="M162.48 377.81c0.27,2.2 1.45,2.18 3.35,3.06 10.34,4.73 33.56,3.25 44.36,1.54 6.88,-1.09 15.81,-3.21 21.76,-5.65 3.4,-1.39 6.46,-2.57 9.76,-3.96 2.02,-0.85 8.85,-3.66 8.92,-5.64 0.14,-4.1 -7.11,1.38 -8.46,2.21 -7.33,4.51 -21.83,9.11 -30.78,10.42 -12.56,1.84 -7.76,3.48 -25.31,2.45 -4.46,-0.26 -8.93,-0.25 -13.19,-0.82 -4.23,-0.57 -8.01,-3.56 -10.4,-3.62z"/>
   <path class="fil9" d="M190.74 379.95c3.69,2.19 14.13,-1.29 17.84,-1.86 6.27,-0.97 11.78,-1.84 17.41,-3.94 7.83,-2.92 24.68,-9.27 26.19,-16.16 -4.54,1.98 -8.97,4.72 -13.9,6.95 -9.26,4.17 -20.4,9.81 -29.73,12.11 -5.78,1.43 -12.2,0.7 -17.81,2.9z"/>
   <path class="fil9" d="M135.31 391.28c-0.78,0.69 0.09,0.19 -1.12,0.68 -0.49,0.2 -1.26,0.33 -1.7,0.45 0.36,1.68 0.47,1.63 1.23,2.97 2.44,0.7 3.82,-1.15 6.57,-2.76 2.56,-1.5 4.81,-2.74 7.2,-3.88 -1.37,-0.63 -4.8,0.08 -6.26,0.41 -3.26,0.74 -3.19,2.21 -5.92,2.13z"/>
   <path class="fil9" d="M179.17 379.39c-2.7,-1.44 -7.08,-1.84 -10.37,-1.71 1.31,1.82 2.57,1.47 4.9,1.84 1.79,0.28 4.09,0.58 5.47,-0.13z"/>
   <path class="fil10" d="M155.76 368.82l-3.5 -0.32c0.77,7.92 12.02,4.93 18.73,6.66 9.26,2.39 24.19,3.09 32.49,-0.96 5.8,-2.82 6.69,1.79 19.35,-6.01 1.38,-0.85 2.22,-1.46 3.75,-2.27 0.75,-0.39 1.42,-0.65 2.23,-1.08l2.16 -1.5c-1.72,-0.19 -0.7,0.43 -1.44,-0.5 2.75,-3.13 1.51,-0.65 5.64,-6.04 1.4,-1.82 1,-0.58 2.19,-3.32 0.59,-1.35 1.21,-2.87 1.73,-4.17 -1.41,1.15 -1.14,1.27 -2.1,2.21 -4.33,4.21 -9.97,6.8 -15.09,9.09 -2.67,1.19 -8.49,2.25 -10.28,4.07 -2.44,2.46 -1.13,1.22 -4.32,2.9 -1.96,1.03 -2.18,1.76 -4.1,2.55 -10.77,4.4 -10.74,3.79 -23.74,3.32 -3.57,-0.13 -9.5,-0.61 -12.45,-1.36 -3.57,-0.91 -7.23,-2.4 -11.24,-3.27z"/>
   <path class="fil10" d="M290.52 453.18c-1.57,-0.18 -0.63,0.45 -1.4,-0.44l0.33 -1.76c-3.34,1.16 -4.88,3.49 -8.9,4.63 -2.33,0.66 -8.56,1.94 -9.71,3.2 2.6,4.24 7.64,0.91 10.39,-0.11 2.52,-0.94 7.46,-3.23 9.3,-5.52z"/>
   <path class="fil11" d="M129.94 153.29c-1.71,1.88 -21.46,11.01 -24.69,12.87 -4.06,2.33 -8.01,4.65 -11.72,7.06 -3.37,2.18 -8.1,4.81 -11.05,7.46 0.47,0.73 -0.75,0.78 0.9,0.38 2.75,-0.67 14.54,-8.47 18.11,-10.37 3.07,-1.63 6.46,-3.55 9.31,-5.02 2.47,-1.28 7.4,-4.07 10.02,-4.76 1.56,-1.32 25.28,-11.99 30.39,-13.82 1.44,-0.52 3.04,-0.9 4.54,-1.53 24.9,-10.4 52.82,-16.71 79.81,-21.58 13.9,-2.51 30.17,-4.17 44.47,-5.85 0.08,-0.19 0.3,-0.13 0.44,-0.21 -7.95,-0.41 -37.11,1.86 -43.75,3.44 -3.34,0.8 -6.42,1.15 -9.84,1.73 -8.59,1.46 -20.02,4.84 -28.06,6.54 -14.8,3.14 -38.63,11.8 -52.79,17.27 -3.14,1.21 -14.35,6.79 -16.11,6.4z"/>
   <path class="fil11" d="M81.98 124.92c-0.98,1.34 -20.63,14.59 -20.98,14.66 -0.17,1.47 -0.49,1.12 1,1.02 0.92,-1.68 16.96,-10.99 19.71,-12.01l33.35 -17.16c8.47,-3.78 29.04,-11.12 37.73,-13.04 6.42,-1.42 13.46,-3.19 20.44,-4.8 25.85,-5.96 45.17,-5.03 69.39,-7.28 -8.42,-2.27 -37.42,0.19 -46.76,1.29 -28.23,3.31 -72.91,15.46 -97.17,28.99l-16.72 8.34z"/>
   <path class="fil12" d="M192.22 28.5l29.06 -7.15c2.97,-0.53 8.7,-0.78 10.91,-1.7 -1.35,-2.62 -17.95,-8.63 -22.02,-10.2 -6.55,-2.53 -19.44,-4.97 -27.37,-5.25 1.27,2.83 12.23,6.73 14.9,9.49 4.83,5.02 3.35,5.51 -5.35,12.41 -1.61,1.28 -1.75,1 -2.68,2.88l2.55 -0.48z"/>
   <path class="fil12" d="M264.88 320.52c0.79,-0.95 0.95,1.45 0.67,-1.2 -0.15,-1.4 -0,-0.38 -0.67,-1.1 -1,1.31 -1.14,0.77 0,2.29z"/>
   <path class="fil13" d="M315.37 333.62l1.01 0.89c0.96,0.99 -0.18,-0.68 0.62,0.77l-2.56 1.49c2.02,1.26 2.81,0.05 3.55,1.82 -1.66,0.78 -6.28,0.69 -8.06,0.08 -3.43,-1.17 -1.1,-2.28 -5.55,-3.94 0.64,-1.71 0.19,0.15 0.84,-1.79 0.41,-1.21 0.16,-1.07 0.44,-2.22 2.5,-0.14 2.62,0.65 4.92,0.9 2,0.22 4.29,-0.01 6.37,0.14 -0.05,1.7 0.24,0.65 -1.58,1.86zm15.89 -1.85c1.17,-3.68 3.86,-4.23 6.27,-7.62 0.96,-1.35 3.88,-6.59 5.81,-6.78 -0.02,1.93 -3.06,6.19 -4.74,7.84 -2.2,2.17 -4.57,5.51 -7.34,6.55zm1.28 -14.37c-0.58,0.95 -0.86,1.43 -1.37,2.07 -2.07,2.62 -3.98,6.26 -6.24,7.5 -2.77,1.53 -1.21,-0.11 -4.2,0.95 -2.82,0.43 -3.48,2.27 -7.91,2.13 -4.49,-0.14 -4.15,-2.08 -7.73,-2.57 -0.79,2.26 -1.22,3.8 -2.48,5.29 -1.5,1.77 -3.37,2.17 -4.11,4.09 11.73,0.55 4.69,4.47 18.82,5.86 7.49,0.74 6.8,-1.06 11.9,-6.48 1.16,-1.23 2.44,-2.67 3.23,-3.4 5.36,-4.94 8.05,-5.26 12.16,-13.23 3.13,-6.08 3.59,-8.18 4.33,-14.49 0.41,-3.5 1.04,-3.82 -0.28,-5.8 -1.64,1.26 -2.25,3.99 -2.9,5.94 -1.26,3.79 -6.05,16.67 -9.57,17.12 0.29,-2.22 3.99,-7.37 5.36,-10.7l3.88 -10.62c-0.03,-1.77 0.18,-0.83 -0.62,-1.8 -0.53,0.5 -6.44,17.34 -9.77,18.81 0.27,-1.53 3.04,-6.22 3.92,-8.57 0.54,-1.45 0.95,-2.96 1.51,-4.44 0.13,-0.33 0.88,-2.45 0.89,-2.5 0.7,-4.69 0.39,-1.66 -0.69,-2.89 -1.76,8.21 -8.05,16.67 -8.11,17.74z"/>
   <path class="fil13" d="M91.49 382.53c2.33,5.59 -7.49,9.12 -11.06,8.3 -3.01,-0.69 -4.88,-4.52 -1.63,-6.85 2.47,-1.76 9.08,-2.98 12.69,-1.45zm-7.16 -2.45c-5.26,1.07 -9.44,3.03 -12.64,6.2 -6.52,6.46 7.75,15.08 20.31,2.12 4.86,-5.01 -1.33,-9.62 -7.67,-8.33z"/>
   <path class="fil13" d="M78.84 363.54c9.36,-1.8 10.89,7.47 1.25,9.12 -9.33,1.59 -11.62,-7.12 -1.25,-9.12zm-13.29 2.44c-2.79,7.64 4.73,9.63 11.86,8.86 2.74,-0.3 6.09,-1.44 8.15,-2.83 2.43,-1.64 4.71,-3.15 4.35,-7l-0.95 -0.97c-4.61,-4.94 -15.73,-1.87 -20.94,1l-2.47 0.93z"/>
   <path class="fil13" d="M104.5 367.41c-6.13,-1.41 -10.03,-12.5 -3.77,-13.92 7.78,-1.77 9,10.78 3.77,13.92zm-4.77 -20.99c-11.62,2.54 -2.14,21.59 4.24,22.12 6.37,0.52 6.46,-7.77 4.37,-12.32 -2.19,-4.75 -1.55,-11.34 -8.61,-9.8z"/>
   <path class="fil13" d="M296.61 306.28l-1.12 1.68c3.97,0.8 4.59,3.27 8.05,4.29 -0.59,-2.57 -0.99,-2.06 -2.4,-4.11 3.11,0.7 0.33,0.87 3.75,1.24 0.52,-1.24 1.41,-2.99 1.8,-4.92 -3.98,0.19 -6.55,1.93 -10.09,1.82z"/>
   <path class="fil14" d="M13.84 221.66c4.67,6.06 9.12,10.66 14.84,16.31l7.72 7.72c2.79,2.67 4.93,5.1 7.7,7.71 7.28,6.86 26.72,24.24 37.36,24.7 -1.22,-6.59 -5.83,-5.07 -13.15,-13.62 -3.56,-4.16 -1.41,-3.73 -8.19,-4.92 -10.1,-1.76 -16.45,-12.12 -18.82,-20.87 -1.33,-4.91 0.31,-6.35 -3.84,-9.5 -1.7,-1.29 -6.48,-4.85 -8.34,-5.24 0.2,4.5 7.27,12.22 7.26,15.55 -0.49,-0.65 -1.81,-1.92 -2.54,-2.82 -13.45,-16.46 -2.6,-12.72 -12.32,-18.05 -2.46,-1.35 -4.84,-3.47 -7.64,-4.73 0.16,1.26 0.91,5.15 0.76,6.08 -0.34,2.14 0.99,0.82 -0.8,1.68z"/>
   <path class="fil14" d="M261.02 242.57c2.94,-0.22 6.23,-4.07 7.83,-5.9 1.67,-1.9 5.32,-5.77 5.21,-8.14 -3.95,-0.57 -7.19,2.76 -9.3,4.62 -2.18,1.92 -4.88,6.27 -3.74,9.43z"/>
   <path class="fil14" d="M320.73 327.92c2.99,-1.06 1.43,0.58 4.2,-0.95 2.26,-1.25 4.18,-4.88 6.24,-7.5 0.51,-0.65 0.79,-1.12 1.37,-2.07 -1.02,-0.4 -1.04,0.59 1.09,-3.78l4.72 -11.85c0.8,-2.79 0.25,-1.66 -0.16,-2.23 -0.63,0.75 -2.91,6.07 -3.5,7.4 -7.18,16.17 -10.85,16.17 -13.95,20.98z"/>
   <path class="fil14" d="M182.06 208.07c-1.47,-0.08 -0.83,0.19 -1.5,-1.34 -2.99,-0.35 -0.33,-0.17 -1.48,0.6 2.06,0 0.9,-0.17 1.25,0.54l-7.72 6.93c-1.57,1.4 -2.06,1.81 -3.7,3.44 -4.52,4.51 -3.68,2.4 -11.42,11.2 -3.29,3.75 -3.48,2.53 -6.42,7.89l3.51 -3.08c1.37,-1.15 0.54,-0.67 1.62,-2.2l25.85 -23.99z"/>
   <path class="fil14" d="M78.03 269.97c-0.29,-1.38 -2.43,-5 -3.49,-6.76 -1.77,-2.93 -1.86,-4.19 -6.61,-3.67 -0.21,2.88 7.88,9.65 10.1,10.43z"/>
   <path class="fil14" d="M300.99 314.81c1.88,-0.12 0.65,0.54 1.6,-0.49 -2.52,-4.62 -5.27,-3.29 -8.27,-6.38l-2.19 0.45c0.54,0.97 3.17,2.01 4.51,2.79l3.62 2.49c0.77,0.73 0.46,0.34 0.73,1.13z"/>
   <path class="fil14" d="M183.28 275.17c-0.47,0.02 -1.07,0.01 -1.53,0.1 -1.68,0.31 0.02,-0.24 -0.92,0.45 3.9,-0.62 0.35,0.17 1.93,-1.09l-6.37 1.47c0.62,1.5 0.36,1.06 4.72,0.08 2.91,-0.66 0.96,0.13 2.17,-1z"/>
   <path class="fil15" d="M252.41 191.99c-0.28,2.34 2.04,4.37 4.21,4.75 1.65,-0.55 3.56,-2.61 4.58,-3.58 4.38,-4.15 8.51,-6.98 13.88,-12.03l13.48 -11.87c1.52,-1.26 2.82,-2.87 4.48,-4.36l19.58 -14.59c3.03,-2.41 7.54,-4.39 10.78,-6.27 3.91,-2.26 7.61,-4.75 12.79,-4.17 0.54,2.46 0.43,4.42 1.06,7.25 0.96,-2.24 -0.09,-0.08 1.05,-1.14 0.83,-2.83 2.68,-9.18 2.32,-12.26 -4.74,-1.72 -21.41,7.79 -25.65,10.12 -13,7.14 -21.58,13.24 -32.98,22.15l-24.45 21.86c-2.22,2.08 -3.45,1.58 -5.13,4.15z"/>
   <path class="fil15" d="M207.51 279.02c2.51,1.63 13.3,2.93 17.17,2.77 3.54,-0.15 5.14,-0.69 5.88,-4.24 2.73,-13.17 2.01,-11.63 -4.1,-8.85l-13.74 6.08c-3.61,1.8 -4.76,1.67 -5.21,4.24z"/>
   <path class="fil15" d="M336.5 202.73c-0.32,2.95 -0.23,0.7 0.58,1.55 1.34,-0.32 12.72,-6.94 13.36,6.86l1.42 0.06c0.29,-5.83 -0.25,-10.61 -4.12,-12.93 -4.59,-2.75 -9.84,1.78 -11.24,4.47z"/>
   <path class="fil15" d="M372.9 219.52c-0.4,1.66 -0.86,0.66 0.55,1.31 4.19,0 6.63,-0.29 8.68,2.66 2,2.89 0.82,7.04 1.56,10.7l1.47 -0.82c0.34,-1.14 0.57,-2.5 0.63,-3.96 0.15,-3.36 0.29,-5.14 -1.24,-7.84 -1.86,-3.29 -8.14,-5.99 -11.66,-2.05z"/>
   <path class="fil15" d="M380.29 253.7c-0.22,2.02 4.78,-0.35 8.42,1.74 2.55,1.47 2.15,4.46 2.55,8.01 0.75,-0.33 0.67,-0.19 1.47,-0.72 0.35,-5.07 1.3,-8.81 -2.74,-12.33 -3.04,-0.34 -8.37,1.32 -9.7,3.3z"/>
   <path class="fil15" d="M122.32 244.82c-1.93,-1.72 -7.98,-6.97 -10,-7.64 -0.76,0.46 -1.71,0.06 0.98,3.24 1.14,1.35 1.5,1.82 2.8,3.25 1.83,2.02 3.74,5.47 7.2,3.37l-0.66 -1.81c-0.06,-0.11 -0.22,-0.27 -0.33,-0.41z"/>
   <path class="fil15" d="M388.12 281.29c1.42,2.17 1.08,-0.02 2.48,2.63 1.31,2.49 -0.37,1.74 3.25,2.59 0.24,-0.58 0.56,0.69 0.28,-1.84 0.31,-2.48 -0.42,-3.58 -1.5,-4.91l-3.52 0.01 -0.99 1.52z"/>
   <path class="fil16" d="M280.37 437.57c-0.12,0.11 -0.26,0.25 -0.34,0.33 -4.22,3.6 -8.71,1.44 -8.93,-2.33l-1.25 -2.62c-3.1,2.43 -1.8,4.97 -11.03,4.68 -8.9,-0.27 -15.62,-2.67 -22.87,-7.23 -1.41,-0.89 -7.77,-5.69 -8.18,-6.88 -0.7,-7.83 9.49,-16.53 12.67,-21.52 -7.91,4.23 -7.15,4.42 -13.3,10.22 -2.01,1.9 -10.31,9.55 -10.56,11.72 7.83,3.85 4.27,4.7 10.54,10.9 4.64,4.59 2.34,3.37 4.74,6.28 4.18,5.07 15.99,9.01 22.13,9.71 13.68,1.57 12.58,-4.25 16.07,-4.43 -1.47,6.99 -8.84,6.96 -12.16,8.23l-0.88 0.48c4.45,1.16 14.73,0.85 18.32,-1.82 4.31,-3.21 4.13,-9.28 5.05,-15.71z"/>
   <path class="fil16" d="M118.83 430.1c1.59,4.53 4.04,4.03 7.51,6.28 1.29,0.84 2.53,2.15 4.28,2.53 3.33,0.72 2.01,-1.05 4.9,-1.42l0.05 3.39c-5.94,2.44 -7.15,-0.82 -9.89,0.28 1.19,2.56 5.63,2.29 9.24,3.21 9.85,2.51 26.07,0.83 27.27,-6.91 -2.82,0.07 -5.14,3.46 -10.32,3.28 1.19,-1.86 -0.11,-0.38 1.78,-1.68 2.35,-1.61 11.86,-6.34 12.33,-8.38 -1.45,-0.72 -7.15,1.99 -9.15,2.69 -1.9,0.66 -8.55,2.01 -10.22,1.17 0.86,-2.13 2.16,-1.75 4.18,-2.28 2.13,-0.56 2.9,-1.14 4.88,-1.71l10.79 -2.68c-16.47,1.09 -16.63,1.67 -28.61,-5.72 -2.76,-1.7 -9.2,-5.39 -13.43,-4.18 -5.05,1.45 -0.97,9.95 -3.94,13.83 -0.89,-1.1 -0.67,-0.82 -1.65,-1.71z"/>
   <path class="fil16" d="M289.97 440.14c-1.45,0.75 -2.67,1.5 -4.8,1.56 -3.1,-3.49 -1.92,-3.39 -1.92,-11.01 -0,-4.2 -0.08,-8.48 0.09,-12.78l2.02 0.91c-1.03,-1.19 -0.53,-1.03 -2.29,-1.52 -1.4,3.65 0.11,21.54 -0.76,27.59 -0.4,2.75 -1.67,4.06 -1.8,7.14 3.1,0.22 5.46,-2.18 6.91,-3.76 2.6,-2.84 2.51,-3.79 2.56,-8.11z"/>
   <path class="fil17" d="M258.98 352.17c-1.43,2.44 -2.88,1.24 -3.93,4.73 -1.23,4.1 -0.58,3.42 -3.45,5.81 0.72,4.47 1.7,6.13 3.96,8.37 2.87,2.83 6.14,9 8.15,10.57 1.77,1.38 2.76,0.69 4,2.61 1.95,3.02 0.83,6.71 3.78,9.19 0.96,-1.39 0.81,-3.39 0.77,-5.24l-1.63 -14.96c-0.31,-2.85 -2.77,-18.12 -2.45,-18.95 3.67,6.46 6.18,28.47 6.19,37.79 0,6.79 2.78,6.36 6.74,15.16 4.46,9.91 -1.3,1.76 6.9,9.65 0.96,0.93 1.8,1.95 2.77,2.62 2.87,-0.53 2.31,-1.7 5.77,-1.74 1.06,-1.02 2.83,-1.1 4.47,-1.99l-0.4 -19.87c-0.29,-2.24 0.12,-1 -0.72,-2.1 -1.05,4.62 0.26,12.13 0.25,17.18 -2.06,-1.4 -0.4,-1.23 -3.33,-1.74 -2.89,-0.5 -6.57,-0.32 -7.01,-7.8 -0.25,-4.31 1.6,-16.8 -1.24,-19.86l-0.55 8.89c-0.23,-0.65 -0.26,-1.48 -0.38,-2.3 -1.89,-13.86 -13.65,-50.61 -20.02,-56.78l-6.12 10.02c-0.72,4.27 4.7,4.31 -2.53,10.74z"/>
   <path class="fil17" d="M82.82 414.52c-0.3,-3.93 0.19,-0.84 1.27,-4.83 0.68,-2.51 0.55,-3.37 3.33,-3.7 3.63,1.35 2.62,4.96 4.2,8.38 1.52,3.28 2.77,5.39 4.1,8.58 1.47,3.53 9.76,12.68 11.63,13.68l-0.55 1.91 12.43 -2.9c-0.62,-3.38 -3.14,-2.52 -3.4,-11.56 -0.41,-13.7 -0.6,-16.21 13.16,-24.6 2.65,-1.61 3.2,-0.85 3.91,-3.65 -7.47,-4.85 -4.1,0.07 -10.02,4.66 -6.03,4.67 -5.26,9.16 -14.52,8.82 -4.39,-0.16 -6.64,-0.47 -8.23,-3.99l-4.91 0.22c-0.64,3.87 3.43,11.6 5.1,14.46 1.84,3.16 6.11,8.07 8.9,10.44 -10.42,-0.57 -17,-25.52 -17,-25.52 -1.1,-1.51 -2.27,-1.14 -3.83,-3.3 -1.29,-1.78 -1.65,-3.55 -2.6,-5.36 -9.32,1 -16.26,4.96 -17.9,-8.3 -2.95,1.26 -12.58,17.01 -13.99,21.14 7.24,-2.2 14.72,-5.28 23.5,0.75 4.44,3.05 3.75,3.54 5.46,4.65z"/>
   <path class="fil17" d="M276.7 343.59l-0.6 -2.51c3.65,0.29 6.97,1.44 10.38,2.24 12.62,2.97 11.93,-4.05 26.92,22.85 0.99,1.78 1.14,1.88 1.95,4.11 1.29,3.54 1.21,1.88 2.58,4.02 3.5,5.45 1.51,8.59 6.81,13.44 1.09,1 1.16,2.45 1.72,3.23 -0.67,-12.77 -8.52,-32.51 -12.95,-43.12 -2.28,-5.47 -0.5,-0.73 -7.82,-5.99 -7.24,-5.19 -6.05,0.7 -23.47,-4.64 -3.92,-1.21 -7.08,-3.1 -10.25,-4.32l3.68 9.26c0.82,1.5 0.23,0.62 1.05,1.44z"/>
   <path class="fil18" d="M171.83 316.88l-5.16 -0.2c-1.17,-1.67 -1.18,-1.94 -0.95,-4.57l1.61 -1.64c-3.1,0.82 -5.92,1.42 -8.59,-0.57 1.16,-2.94 1.14,-1.7 3.21,-3.4 -3.21,0.59 -8.5,-0.66 -6.79,-4.32 -3.36,0.94 -5.97,1.81 -7.37,-1.97 1.92,-0.05 3.37,0.2 5.27,0.13 3.64,-0.14 3.38,-0.87 3.73,-1.19 -2.89,0.76 -6.13,0.97 -9.15,0.13 -0.55,-4.21 0.85,-0.93 1.18,-3.95 -2.31,-0.06 0.09,0.23 -1.94,0.38 -0.06,0 -0.3,0.09 -0.34,-0.02 -0.04,-0.12 -0.24,0 -0.38,-0.04l-0.31 -3.69c-0.32,0.5 -0.36,0.42 -0.54,1.42 -0.5,2.79 -0.25,-1.33 0.22,3.42 -3.98,-0.11 -2.57,-0.78 -5.4,-2.76l0.39 -2.45 -1.33 1.35c-1.68,1.39 -11.43,3.43 -13.51,3.11 -6.4,-0.96 -8.89,-3.35 -13.43,-6.01l1.08 -1.63c-11.57,1.5 -20.61,-8.07 -20.84,-10.92 4.74,2.32 7.16,9.18 16.99,9.09 5.13,-0.04 18.25,-2.47 21.97,-4.19 -17.73,0.37 -24.35,4.66 -38.48,-10.04 -4.05,-4.21 -7.63,-8.79 -11.42,-13.38 -1.75,-2.12 -10.45,-11.72 -12.3,-12.45l-1.57 1.54c3.87,7.77 10.51,5.59 23.21,45.7 5.44,17.17 25.7,23.31 42.57,26.29 5.11,0.9 15.86,3.52 19.66,1.49 3.82,-2.04 6.21,-4.03 13.12,-3.93 1.75,0.03 2.84,0.35 4.34,-0.09 1.19,-0.35 0.58,-0.09 1.28,-0.66z"/>
   <path class="fil18" d="M85.73 245.67c-1.28,-3.99 -3.65,-9.28 -4.07,-12.07 -0.63,-4.27 -1.14,-11.69 3.33,-12.14 -1.46,-1.47 -4.06,-1.95 -5.68,-3.66l0.87 -0.26c1.77,-0.11 3.6,0.91 5.42,1.33l-0.25 -1.44c8.48,-3.35 31.65,-10.77 40.2,-11.96l0.76 6.3c0.05,0.13 0.14,0.32 0.23,0.48 -0.33,-5.37 -0.44,-11.15 -1.66,-13.41 -5.64,-0.02 -26.89,5.65 -33.89,7.17 -6.57,1.43 -27.58,6.23 -32.22,9.03 -3.29,1.98 -9.34,5.9 -11.25,9.15 -2.78,4.7 -5.79,8.49 -2.93,14.98 2.79,6.32 3.63,7.9 7.75,12.61 4.64,5.29 8.04,4.92 16.57,4.79 -0.6,-2.37 -1.39,-2.39 -2.28,-4.08 -3.12,1.41 0.9,1.57 -3.68,1.98 1.22,-4.49 3.6,-10.87 7.33,-12.44 3.85,-1.62 11.85,2.43 15.45,3.63z"/>
   <path class="fil18" d="M128.34 209.14l0.28 -4.72c3.47,-1.18 9.78,-2.11 13.89,-2.76 4.9,-0.77 9.47,-1.86 14.45,-2.66 24.15,-3.86 35.28,-5.6 60.54,-6.71 6.97,-0.31 27.16,-2.44 32.01,-1.06 0.78,-2.93 -0.12,-0.26 1.47,-2.65 -3.66,-2.87 -54.4,1.22 -63.83,1.25 -7.74,0.02 -52.52,6.03 -59.45,8.19 -0.09,1.53 -0.35,9.63 0.63,11.11z"/>
   <path class="fil18" d="M302.96 189.91c-1.06,-7.61 1.51,-8.78 5.05,-12.77 1.52,-1.72 7.53,-7.65 10.23,-7.68 0.78,1.18 0.99,1.51 1.09,3.26 2.85,-3.26 6.72,-14.12 6.19,-18.27 -6.09,3.05 -24.22,14.63 -26.45,18.7 -0.18,1.14 3,7.22 2.93,11.58 -0.04,2.21 -0.38,3.44 0.96,5.19z"/>
   <path class="fil18" d="M342.6 267.01c1.49,9.88 -1.31,13.75 -1.51,18.39 5.77,-1.78 11.79,-9.5 27.2,-10.35 -3.08,-5.41 -4.94,-5.53 -10.59,-7.81l-13.62 -4.98c0.51,5.84 2.38,8.16 0.17,14.14l-0.77 -2.29c-0.32,-2.89 0.99,-5.08 -0.88,-7.09z"/>
   <path class="fil18" d="M269.73 216.04c2.22,4.15 1.84,5.98 0.05,10.2 8.59,-1.06 7.16,0.04 10.71,-7.18 2.16,-4.4 4.73,-8.12 2.04,-13.45 -0.91,-1.81 -2.4,-3.39 -4.71,-3.9 -6.96,-1.52 -8.67,-0.18 -12.04,4.9 -2.16,3.25 -0.67,4.24 0.92,6.48 9.3,0.79 9.47,-5 14.7,-4.63 -0.6,3.61 -8.41,6.9 -11.68,7.57z"/>
   <path class="fil18" d="M283.75 202.51c0.3,-3.44 4.28,-8.2 6.27,-10.84 1.56,-2.06 2.31,-2.9 4.12,-4.69 2.81,-2.79 2.35,-4.13 4.93,-3.45 -0.2,-3.38 -0.74,-5.97 -2.22,-8.36 -2.83,0.86 -22.41,20.39 -23.61,23.27 2.69,0.62 5.56,-0.15 8.39,2.04l2.12 2.03z"/>
   <path class="fil18" d="M141.74 246.96c3.39,2.48 -1.66,-0.25 1.38,0.51l12.7 1.11c3.08,-5.19 6.3,-10.8 9.74,-15.99 2.73,-4.11 9.31,-13.06 10.33,-15.91 -2.09,0.75 -12.11,10.1 -14.01,12.2l-12.18 13.54 -1.1 -2.33c-4.53,4.6 -3.09,6.65 -6.85,6.86z"/>
   <path class="fil18" d="M220.08 243.87c1.76,-1.53 2.43,-1.83 4,-4.04 1.12,-1.57 2.08,-3.3 3.27,-4.97 2.38,-3.33 4.08,-5.79 7.14,-8.52 0.08,-0.07 0.23,-0.2 0.35,-0.31l-7.98 0.17c-1.07,1.29 -6.2,15.3 -6.77,17.67z"/>
   <path class="fil18" d="M109.5 399.55c2.23,-0.9 3.64,-0.72 6.02,-0.27l0.82 4.32c1.28,-0.89 1.94,-1.76 2.62,-3.09 4.04,-7.81 -5.13,-12.17 -6.95,-6.92 -0.24,0.69 -0.3,1.31 -0.6,2.13 -0.48,1.32 -1.26,2.2 -1.92,3.82z"/>
   <path class="fil18" d="M95.67 390.67c5.13,-0.81 10.38,2.87 10.73,8.04 6.18,-4.24 3.38,-15.55 -7.81,-9.79l-2.92 1.76z"/>
   <path class="fil18" d="M109.05 379.62c0.97,1.07 0.4,0.67 2.86,1.43 -3.32,1.77 -8.46,-0.61 -11.3,-1.13 1.69,4.8 5.85,3.92 10.18,8.76 0.07,0.08 0.2,0.23 0.3,0.34 -0.06,-7.9 7.26,-10.5 1.38,-9.31 -2.36,0.48 -0.58,0.59 -3.42,-0.09z"/>
   <path class="fil19" d="M240.43 401.99c-3.18,4.99 -13.37,13.69 -12.67,21.52 0.41,1.19 6.77,5.99 8.18,6.88 7.25,4.56 13.97,6.96 22.87,7.23 9.23,0.28 7.93,-2.25 11.03,-4.68 -0.24,-1.65 0.88,-6.49 1.13,-8.43 0.81,-6.41 0.04,-21.19 -2.16,-26.96 -0.86,-2.25 -1.87,-5.1 -2.3,-7.83 -1.41,-8.94 -0.14,1.55 -8.46,-11.2 -1.26,-1.93 -2.47,-3.43 -4.18,-5.04 -1.58,0.23 -4.64,1.95 -5.78,2.86 -2.91,2.31 -1.41,3.49 -0.58,6.5 -3,-1.05 -3.27,-2.85 -5.7,-2.83 -1.43,0.01 -4.16,1.45 -6.16,2 -10.08,2.77 -8.48,4.4 -9.89,6.63 -2.02,-1.5 -3.52,-2.88 -7.37,-2.27 -0.13,1.87 0.56,6.03 0.75,7.99 0.23,2.45 0.28,6.89 0.08,9.34 -2.05,-0.52 -0.54,0.49 -2.08,-1.35 -1.23,-1.46 -2.62,-4.64 -2.58,-6.46l2.77 1.46c0.39,-3.15 -0.89,-7.88 -2.08,-9.52 -3.53,-0.11 -13.56,1.37 -15.66,2.81 -0.21,4.48 2.4,15.28 4.21,18.44 7.34,12.83 14.01,3.62 19.21,-1.56 2.61,-2.6 6.27,-7.2 10.26,-6.94 3.26,0.21 0.76,0.56 3.83,-1.08 2.74,-1.46 4.94,-3.22 8.18,-3.27 -0.61,2.3 -3.03,4.43 -4.84,5.76zm49.02 48.99l-0.33 1.76c0.77,0.89 -0.17,0.27 1.4,0.44 0.79,-1.11 0.92,-1.26 0.77,-3.14 -1.83,0.23 -0.84,-0.46 -1.84,0.94zm0.52 -10.84c-0.43,-7.61 1.47,-17.9 -4.61,-21.32l-2.02 -0.91c-0.17,4.3 -0.1,8.58 -0.09,12.78 0.01,7.63 -1.18,7.52 1.92,11.01 2.13,-0.06 3.35,-0.81 4.8,-1.56zm-18.88 -4.58c0.22,3.86 4.95,6.07 9.28,2.01 -0.31,-3.52 1.01,-10.47 -0.16,-22.27 -0.52,-5.29 -4.15,-13.63 -7.85,-15.78 1.4,11 2.58,17.35 0.74,28.24 -0.52,3.09 -1.64,5.37 -2.01,7.81zm-32 -86.24c-0.52,1.3 -1.14,2.82 -1.73,4.17 -1.19,2.75 -0.8,1.5 -2.19,3.32 -4.13,5.38 -2.89,2.91 -5.64,6.04 0.75,0.93 -0.27,0.31 1.44,0.5 2.56,-1.37 3.86,-3.36 5.86,-4.34 1.49,-0.72 2.59,-0.6 4.11,-1.39 1.49,-0.77 1.69,-1.34 3.55,-2.11 1.49,0.72 0.3,0.16 1.28,1.14 1.24,1.24 -0.54,0.27 0.92,0.97 1.36,-1.26 8.13,-4.27 11.37,-7.84 1.9,-2.32 1.41,-2.69 0.72,-5.77 -2.97,-0.12 -2.54,0.99 -5.35,1.65 1.04,-4.27 6.5,-6.14 9.02,-11.67 1.86,-4.08 2.81,-5.59 1.99,-7.61 -0.87,-2.13 -2.86,-5.79 -4.53,-6.76 -2.69,0.78 -9.19,11.93 -10.89,14.65 -1.43,2.29 -3.18,4.94 -5.06,7.64 -1.53,2.18 -3.29,5.52 -4.88,7.39zm-120.26 80.78c0.98,0.89 0.76,0.61 1.65,1.71 2.97,-3.88 -1.11,-12.39 3.94,-13.83 4.23,-1.21 10.67,2.48 13.43,4.18 11.98,7.39 12.14,6.81 28.61,5.72 3.95,0.15 9.64,-1.76 13.86,-2.34 5.31,-0.73 10.44,-0.54 15.75,-0.91 -1.48,-2.94 -4.79,-2.88 -6.54,-5.41 5.32,-0.39 6.87,2.87 10.95,3.24 -0.93,-3.02 -2.51,-2.39 -3.48,-6.49 -0.63,-2.68 -1.18,-5.19 -1.67,-7.67 -2.34,-11.77 -0.61,-12.99 -1.41,-18.21l-6.37 0.15c-0.78,2.24 -0.15,6.67 -2.03,7.77 -0.84,-2.34 0,-5.88 -1.31,-7.37 -1.29,-1.15 -2.44,-0.61 -4.64,-0.84 -11.89,-1.2 -9.8,-1.4 -9.89,-3.8l-0.04 -0.77c-1.12,-0.45 -6.6,-1.94 -8.11,-2.34 0.85,2.41 -0.37,0.84 2.09,2.5 2.27,1.53 4.71,2.79 5.41,5.72 -2.6,-0.61 -4.23,-3.39 -9.91,-5.13 -3.67,-1.12 -3.4,0.03 -3.4,0.03 1.88,1.21 4.81,1.86 7.21,3.32 3.93,2.37 16.73,10.35 17.62,13.75l-18.64 -11.64c-9.25,-5.17 -8.79,-3.46 -19.97,3.36 -4.5,2.75 -15.14,9.29 -18.4,11.92 -3.67,2.95 -4.92,3.29 -5.09,9.6 -0.07,2.71 0.66,12.8 0.38,13.77z"/>
   <path class="fil20" d="M103.04 56.08c3.71,0.81 23.23,0.04 29.04,0.18 5.19,0.12 12.41,-5.89 19.55,-9.64 6.56,-3.45 12.48,-6.8 19.59,-9.66 6.26,-2.52 11.17,-5.15 18.25,-7.12 1.64,-0.46 1.28,-0.38 2.75,-1.34l-2.55 0.48c0.93,-1.89 1.06,-1.61 2.68,-2.88 8.71,-6.9 10.19,-7.39 5.35,-12.41 -2.66,-2.76 -13.63,-6.66 -14.9,-9.49l-0.55 0.33c-9.32,1.61 -18.37,-4.1 -42.36,8.77 -14.58,7.82 -18.25,9.83 -30.18,21.13 -3.23,3.06 -5.39,5.36 -8.11,8.97l-7.08 10.07c0.7,1.78 0.63,0.52 0.64,2.79 2.87,-0.38 5,-0.77 7.86,-0.18z"/>
   <path class="fil20" d="M149.69 369.37c0.75,-1.96 0.1,-3.3 -2.06,-3.49 -0.22,2 0.09,2.93 2.06,3.49z"/>
   <path class="fil21" d="M131.65 143.71c-7.24,0.34 -24.51,5.48 -31.44,8.58 -2.71,1.21 -6.79,3.52 -9.48,3.48 -2.28,-0.88 -9.44,-22.94 -9,-27.17 -2.75,1.02 -18.8,10.33 -19.71,12.01 -1.72,2.04 -1.35,0.93 -3.58,2.44 -1.26,0.86 -1.94,1.25 -3.4,1.81 0.96,-1.74 5.37,-4.84 5.5,-5.03 0.08,-0.23 0.32,-0.17 0.48,-0.25 0.34,-0.08 20,-13.33 20.98,-14.66l-1.53 -0.31c-0.12,-3.08 -0.9,-4.73 0.27,-7.31 -9.9,2.77 -36.71,22.89 -44.08,30.95 -11.31,12.36 -10.13,14.21 -6.45,34.15l2.05 7.34c2.62,3.8 2.34,9.77 5.02,13.71 1.32,-0.61 0.03,0.13 1.32,-0.89 2.69,-2.13 10.9,-10.55 13.65,-12.23l6.07 -3.86c3.28,-2.42 7.28,-5.57 11.01,-8.28 16.12,-11.71 37.16,-22.79 55.56,-31.06 4.48,-2.01 4.82,-1.62 6.78,-3.43z"/>
   <path class="fil21" d="M172.17 152.4c-6.12,-0.6 -34.33,10.36 -41.81,12.96 -4.46,1.55 -5.89,2.76 -9.09,4.16 -3.05,1.34 -2.83,0.27 -2.92,0.18 -2.19,-2.35 1.63,-3.63 2.48,-8.81 -3.42,0.91 -15.3,7.64 -19.33,9.78 -3.57,1.9 -15.36,9.7 -18.11,10.37 -1.18,1.8 -5.11,4.05 -7.14,4.77 0.84,-1.61 1.53,-1.64 2.89,-2.76 1.4,-1.14 1.79,-1.52 3.34,-2.38 2.95,-2.65 7.68,-5.28 11.05,-7.46 3.71,-2.4 7.66,-4.72 11.72,-7.06 3.23,-1.86 22.98,-10.98 24.69,-12.87l-1.86 -0c0.93,-2.39 1.64,-2.36 2.87,-5.5 -15.16,4.63 -44.94,22.25 -58.47,31.4 -4.66,3.15 -8.25,6.06 -12.68,9.34 -3.37,2.5 -4.71,1.76 -12.78,9.83 -3.52,3.53 -8.52,6.42 -10.21,12.49 -0.72,2.57 -1.93,6.41 0.05,8.45 0.9,0.92 6.34,3.37 8.27,3.53 1.83,-4.04 2.33,-3.76 5.89,-6.13 2.79,-1.86 4.77,-3.24 7.25,-4.92 4.46,-3.01 30.71,-19.98 34.15,-21.47 1.57,-0.68 2.85,-0.66 4.61,-1.54 2.55,-1.26 5.35,-3.01 8.12,-4.53 18.43,-10.11 30.55,-15.9 49.53,-24.27l16.46 -6.84c1.11,-0.63 0.27,0.01 1.02,-0.74z"/>
   <path class="fil21" d="M258.4 181.75c-1.38,0.08 -14.99,-3.17 -17.5,-3.75 -3.13,-0.72 -6.31,-0.87 -9.55,-1.52l-28.69 -3.59c-5.22,-0.25 -15.04,0.08 -17.75,-3.06 1.47,-1.98 2.79,-2.2 5.51,-3.38 4.42,-1.92 9.38,-2.69 14.14,-3.58 3.78,-0.7 2.03,-1.6 6.84,-1.6l34.24 0.5c-1.85,-1.41 -16.69,-1.29 -18.78,-1.3 -21.09,-0.09 -36.76,0.09 -57.82,3.33 -7.82,1.2 -26.7,4.65 -33,7.84 -3.03,1.53 -25.06,11.22 -26.86,14.46 3.83,-0.31 5.5,-1.07 8.91,-1.65 25.76,-4.34 38.09,-5.92 66.34,-6.02 25.49,-0.1 42.7,1.75 66.74,5.64 3.29,0.53 5.3,1.22 7.24,-2.33z"/>
   <path class="fil21" d="M90.8 108.38l-0.44 -0.66c1.41,-0.72 2.95,-2.07 4.43,-3.31l14.03 -9.16c3.04,-1.97 6.6,-4.06 9.53,-5.86 3.84,-2.36 7.15,-2.1 9.3,-6.47 -25.96,7.75 -72.18,29.24 -93.44,48 -4.64,4.1 -16.5,13.14 -14.3,20.32 0.81,2.66 2.77,6.24 4.69,7.48l13.22 -15.37c9.79,-9.76 17.8,-14.67 28.96,-21.75l24.05 -13.23z"/>
   <path class="fil21" d="M66.24 105.49l-2.26 0.09c-0.56,-3.73 -1.57,-10.13 -0.59,-13.81l1.97 -3.59c-1.35,0.39 -12.29,3.13 -13.69,2.23 2.89,-1.68 13.71,-3.83 15.22,-5.51l-3.65 0.8 2.12 -8.13c-5.5,0.99 -11.08,2.09 -16.29,3.62 -7.18,2.1 -9.49,0.68 -12.67,7.29 -2.86,5.94 -7.04,25.13 -7.54,32.86 2.07,-0.63 7.17,-3.8 9.02,-4.93 3.22,-1.96 6.44,-3.56 10.59,-3.56 -1.24,2.25 -3.45,2.63 -7.81,4.61 -2.66,1.21 -5.9,3 -8.14,4.6 -5.62,4.01 -12.63,8.59 -9.04,14.08l9.67 -8.48c8.29,-6.93 17.24,-13.11 27.1,-18.66 2,-1.12 4.53,-1.66 5.99,-3.51z"/>
   <path class="fil21" d="M71.06 207.18c3.56,-0.11 13.75,-3.06 17.88,-4.33l37.38 -7.94c6.27,-1.07 13.17,-1.98 19.25,-3.33 7.6,-1.69 12.8,-1.37 20.67,-1.96 3.68,-0.28 6.69,-0.48 10.23,-0.91 2.9,-0.35 7.41,-1.18 10.15,-1.37 5.1,-0.36 40.76,-2.34 42.34,-3.17 -3.41,-1.86 -36.72,-2.7 -43.44,-2.7 -26.77,0 -39.67,1.82 -64.36,5.52 -3.29,0.49 -6.45,1.29 -9.67,1.88 -3.49,0.64 -7.95,0.59 -11.05,1.2 -4.86,0.96 -26.79,14.82 -29.38,17.11z"/>
   <path class="fil21" d="M194.93 38.88l-1.34 -0.3c1.72,-1.56 9.66,-5.42 12.31,-6.62l12.38 -6.74c-14.64,2.92 -29.63,7.31 -42.49,12.98 -5.45,2.4 -33.66,16.01 -35.91,19.13 23.54,4.25 13.09,4.49 25.36,-3.2 7.61,-4.77 15.36,-9.5 24.25,-12.74l3.93 -1.57 1.51 -0.94z"/>
   <path class="fil21" d="M188.71 159.09c-2.49,-0.47 -3.18,0.58 -6.28,0.55 1.24,-1.84 0.64,-1.12 3.06,-2.04 7.57,-2.87 14.2,-5.89 22.49,-8.4 8.81,-2.66 18.82,-5.63 28.16,-7.5 4.86,-0.97 9.65,-2.32 14.65,-2.99 5.1,-0.69 10.69,-1.59 16.04,-2.46 5.87,-0.96 27.4,-4.78 31.62,-3.38 -0.85,-2.14 -0.02,-0.87 -2.15,-1.27 -0.01,-0 -2.55,0.03 -2.76,0.04 -31.24,0.97 -42.65,2.68 -74.74,9.83 -10.27,2.29 -24.08,6.17 -34.43,10.1 -2.69,1.02 -5.48,1.8 -8.12,2.91 -3.22,1.32 -21.98,8.55 -24.1,9.82l17.65 -2.51c3.63,-0.76 17.01,-1.36 18.89,-2.71z"/>
   <path class="fil21" d="M78.3 73.56l-6.73 0.45c1.83,-2.92 16.02,-7.11 20.64,-8.22 4.43,-1.07 20.31,-4.76 22.6,-6.44 -11.75,0.04 -32.43,1.96 -43.55,4.93 -6.38,1.71 -13.2,2.6 -19.49,4.83 -9.07,3.2 -10.02,2.02 -16.15,8.51l1.39 4.08c2.36,0.1 21.64,-5.42 30.24,-6.52 2.67,-0.34 9.53,-0.16 11.04,-1.6z"/>
   <path class="fil21" d="M88.84 322.5l-0.77 -2.35c3.15,0.69 6.77,3.85 9.93,5.6 9.65,5.34 14.21,8.17 26.53,10.99 2.59,0.59 4.6,0.48 6.97,1.05l-2.73 -3.09c-4.95,-5.62 -2.82,-6.67 -2,-12.3l-9.65 -2.36c0.01,4.98 0.75,5.28 1.3,7.87l-0.14 2.41c-4.89,-3.44 -0.74,-11.68 -6.52,-12.03 -0.6,5.1 2.64,11.15 1.56,13.64 -3.33,-2.97 -3.62,-9.38 -4.08,-14.73 -4.28,-3.64 -7.37,-3.6 -13.57,-2.3 -2.21,0.46 -5.14,0.89 -6.86,1.95 -2.71,1.66 -2.1,4.05 0.03,5.66z"/>
   <path class="fil21" d="M149.77 330.05c2.62,-0.14 4.25,-0.19 6.41,0.76 -0.74,1.75 -2.18,1.63 -4.27,1.75 -2.3,0.12 -4.06,0.35 -5.67,-0.69 -1.79,-0.41 -2.62,-1.02 -3.73,-2.09 -2.3,-2.2 -2.02,-5.66 -10.34,-6.35 -2.09,-0.17 -2.01,0.27 -2.31,0.52 2.38,3.46 0.29,2.47 4.14,5.49 2.01,1.57 3.51,2.49 6.39,3.6 10.77,4.15 21.88,-0.35 31.84,-4.51 4.96,-2.07 8.66,-3.81 13.82,-6.78l3.36 1.07c-0.66,-0.61 -0.78,-0.86 -1.77,-1.33 -4.78,-2.25 -25.98,-2.99 -31.74,1.25 -4.67,3.44 -4.96,5.33 -8.01,5.57l-0.24 -2.57 -5.18 -0.43c0.65,3.54 3.36,4.96 7.28,4.75z"/>
   <path class="fil21" d="M186.97 63.07l-2.58 -0.17c-2.38,-9.72 0.71,-11.3 7.18,-15.52 3.36,-2.19 13.24,-5.69 15.27,-9.42 -16.69,4.43 -31.05,10.83 -44.68,20.8 -1.45,1.06 -1.56,1.06 -1.96,2.44 2.2,0.85 4.19,1.36 6.26,1.85 6.96,1.67 7.03,4.41 19.02,0.7 1.2,-0.37 0.83,-0.06 1.5,-0.67z"/>
   <path class="fil21" d="M199.07 319.9c0.14,-0.09 0.33,-0.41 0.41,-0.28 0.69,1.15 -0.19,-0.27 1.91,-1.1 1.32,-0.52 3.84,-0.81 8.67,-2.78 2.8,-1.15 7.15,-4.47 8.45,-7.16 -7.14,-0.04 -12.36,-2.14 -18.65,-2.18 -5.98,-0.03 -11.87,4.06 -13.3,8.05 4.41,2 4.21,0.1 8.19,-0.71 1.87,-0.38 8.72,-1.03 9.83,-0.51 -0.91,0.37 -3.53,1.24 -4.85,1.59 -1.91,0.49 -3.67,0.46 -5.39,1.17 0.7,2 -0.53,0.75 1.67,1.67 0.28,0.12 2.69,0.65 3.12,0.73l-0.04 1.52z"/>
   <path class="fil21" d="M221.79 308.45c2.14,-5.2 -2.14,-0.86 3.78,-5.35 1.71,-1.29 3.12,-3.43 4.04,-5.93 -1.7,0.58 -13.58,7.13 -14.02,8.87 3.49,1.55 5.67,-0.66 6.2,2.41z"/>
   <path class="fil22" d="M276.7 343.59l6.79 18.26c3.13,8.09 4.05,17.35 5.09,19.75 2.84,3.05 0.99,15.55 1.24,19.86 0.43,7.48 4.11,7.3 7.01,7.8 2.93,0.51 1.27,0.34 3.33,1.74 0.01,-5.05 -1.29,-12.56 -0.25,-17.18 0.43,-3.87 -1.06,-13.3 -1.55,-17.66 -0.56,-4.96 -2.77,-11.63 -2.41,-16.45 3.29,8.89 1.83,5.91 3.91,13.33 4.72,16.88 2.86,54.56 6.34,62.12 4.24,9.23 17.94,-2.23 22.24,-5.39 9.39,-6.89 7.14,-3.54 12.14,-4.95 1.62,-15.22 0.33,-30.82 -1.7,-45.13 -1.11,-7.78 -7.66,-32.32 -11.72,-36.68 -6.04,3.89 -5.29,2.2 -12.02,2.2l5.51 14.72c6.44,20.09 9.79,29.03 8.85,52.41 -1.57,-4.2 -0.94,-1.82 -1.29,-5.38 -0.18,-1.85 -0.21,-3.56 -0.37,-5.51 -0.2,-2.52 -0.71,-8.36 -1.38,-10.48 -0.56,-0.78 -0.63,-2.23 -1.72,-3.23 -5.3,-4.85 -3.31,-7.99 -6.81,-13.44 -1.37,-2.14 -1.3,-0.48 -2.58,-4.02 -0.81,-2.23 -0.96,-2.33 -1.95,-4.11 -15,-26.9 -14.3,-19.88 -26.92,-22.85 -3.41,-0.8 -6.73,-1.95 -10.38,-2.24l0.6 2.51z"/>
   <path class="fil22" d="M82.82 414.52c0.42,1.41 1,2.22 1.58,4.18 0.14,0.1 0.12,-0.09 0.63,0.67 5.66,8.33 -0.3,20.85 21.77,19.18l0.55 -1.91c-1.87,-1 -10.16,-10.15 -11.63,-13.68 -1.33,-3.19 -2.59,-5.3 -4.1,-8.58 -1.58,-3.42 -0.58,-7.03 -4.2,-8.38 -2.77,0.33 -2.65,1.18 -3.33,3.7 -1.08,3.99 -1.57,0.9 -1.27,4.83z"/>
   <path class="fil23" d="M297.4 250.38c-4.27,4.25 -11.26,8.32 -20.47,18.09l-18.75 19.38c-1.69,1.59 -1.73,6.11 -4.1,7.05 1.35,-7.09 12.4,-31.82 12.6,-33.08 -6.4,-0.62 -8.88,3.38 -10.6,7.8 -5.3,13.63 -7.68,22.32 -9.15,36.87 -0.19,1.9 0.2,6.1 -1.35,7.35 -0.48,-0.67 -0.25,-0.09 -0.55,-1.27 -0.59,-2.29 0.12,-7.5 0.43,-9.81 0.47,-3.41 0.8,-6.8 1.35,-10.26 1.15,-7.13 4.72,-18.18 4.81,-18.9 -1.68,2.01 -3.52,4.47 -5.07,6.4 -7.19,8.92 -6.15,3.41 -5.08,10.26 0.25,1.6 -0.1,3.07 -0.33,4.75 -1.38,10.35 -2.39,17.43 -7.47,26.12 -2.1,3.6 -5.67,11.22 -8.47,13.04l-1.77 2.71c-0.97,1.15 -1.02,1.14 -2.09,1.75l1.86 -3.67c0.52,-0.72 0.4,-0.48 0.94,-0.96 0.72,-2.4 3.68,-4.9 4.45,-8.17 0.73,-1.74 0.46,-0.59 -0.36,-1.04 -3.46,1.65 -7.39,5.34 -16.38,9.36 -5.76,2.57 -3.38,1.22 -7.09,5.54 -4.83,5.62 -19.7,9.51 -27.1,11.01 -13.29,2.69 -15.64,-5.69 -20.62,-4.18 0.21,3.29 5.88,7.9 9.12,9.2 4.57,1.83 10.37,2.64 15.75,1.34 6.53,-1.57 22.45,-8.17 25.26,-11.81 1.47,-1.55 1.89,-1.41 4.22,-1.66 -0.36,1.13 0.1,0.82 -0.98,1.81l-1.94 1 -13.17 8.1c-2.03,1.11 -5.08,2.62 -7.52,3.48 -1.91,0.68 -6.5,0.87 -7.6,2.39 6.41,0.49 14.22,-0.25 18.99,-2.58 2.97,-1.45 11.26,-7.45 13.89,-8.06 -0.99,1.8 -9.41,7.82 -12.53,9.42 -5.28,2.71 -11.08,3.89 -18.39,3.58 -3.45,-0.15 -5.67,-1.21 -8.49,-2.38 -6.68,-2.77 -10.99,0.19 -19.74,-13.19 -14.87,-0.86 -11.52,-3.82 -15.61,-4.03 -0.13,6 -0.72,13.07 2.8,16.16 7.52,6.59 34.51,11.06 44.36,11.8 13.39,1 19.44,-5.3 26.26,-11.16 3.03,-2.6 18.39,-16.18 18.95,-17.92l1.41 -1.22c0.94,-0.63 -1.35,0.43 1.34,-0.53 -0.38,1.31 -0.45,1.83 -1.86,2.61 -0.88,0.38 -0.63,0.54 -1.48,1.71 -2.91,4.01 -11.01,11.84 -11.94,13.79 2.73,-0.21 9.77,-3.58 12.29,-5.12 3.8,-2.33 6.35,-6.09 8.53,-9.1 5.16,-7.13 8.95,-13.95 13.71,-21.04 4.42,-6.6 8.98,-12.97 14.48,-20.26l12.31 -21.85c0.29,7.15 -11.56,24.4 -13.23,28.06 6.27,-1.19 8.86,-5.48 11.9,-10.13 1.51,-2.31 6.2,-12.21 8.06,-13.09 0.38,2.88 -1.55,5.11 -2.25,7.84 1.33,-0.24 1.97,-1.17 3.2,-2.25 2.55,-2.22 8.37,-5.23 9.52,-6.87 -1.11,-1.45 -1.42,-1.06 -3.18,-2.18 -8.75,-5.58 -4.35,-20.92 1.26,-23.61 7.17,-3.43 23.5,-7.31 26.27,-13.82 -4.9,-0.13 -19.23,3.75 -23.66,5.45z"/>
   <path class="fil23" d="M188.71 159.09c5.16,0.35 14.44,-0.63 20.5,-0.77 7.32,-0.17 14.25,0.12 21.51,0.11 7.13,-0 33.84,2.68 38.51,4.74l-23.61 -1.39 -34.24 -0.5c-4.81,0 -3.05,0.9 -6.84,1.6 -4.76,0.88 -9.72,1.66 -14.14,3.58 -2.71,1.18 -4.03,1.4 -5.51,3.38 2.72,3.14 12.54,2.81 17.75,3.06l28.69 3.59c3.24,0.65 6.42,0.8 9.55,1.52 2.5,0.58 16.12,3.83 17.5,3.75 1.6,-0.56 6.4,-5.35 8.5,-7.13 1.2,-1.02 1.94,-1.53 2.3,-2.99 -12.54,-4.54 -34.87,-3.08 -40.67,-6.22 5.39,-2.04 32.43,1.82 38.34,3.48 7.01,1.97 4.86,0.9 13.62,-6.06l18.24 -13.76c2.23,-4.64 -1.75,-5.06 -4.75,-5.48 -16.57,-2.32 -24.21,-1.02 -40.15,0.33l-18.02 1.56c-1.26,-0.28 -0.62,-0.07 -1.16,-0.46 5.9,-2.83 39.32,-5.32 47.9,-5.06 4.52,0.14 13.29,2.16 16.52,1.64 1.4,-2.94 1.54,-6.46 -0.59,-8.71 -4.22,-1.4 -25.75,2.42 -31.62,3.38 -5.35,0.87 -10.95,1.78 -16.04,2.46 -5,0.67 -9.79,2.02 -14.65,2.99 -9.34,1.86 -19.35,4.83 -28.16,7.5 -8.3,2.51 -14.93,5.53 -22.49,8.4 -2.42,0.92 -1.82,0.2 -3.06,2.04 3.11,0.03 3.79,-1.02 6.28,-0.55z"/>
   <path class="fil23" d="M218.28 25.21l-12.38 6.74c-2.65,1.19 -10.59,5.05 -12.31,6.62l1.34 0.3c1.73,0.1 6.28,-1.64 8.52,-2.22 3.31,-0.85 5.78,-1.71 9.12,-2.44 6.09,-1.34 12.36,-2.73 18.91,-3.38 0.76,-0.44 -0.76,-0.13 1.41,-0.66 0.54,-0.13 1.1,-0.12 1.66,-0.14 2.77,-0.11 5.66,-0.16 8.19,0.48 -2.38,1.87 -9.37,1.98 -13.03,2.78 -3.92,-0.33 -18.66,3.42 -22.88,4.65 -2.03,3.73 -11.91,7.23 -15.27,9.42 -6.47,4.22 -9.56,5.8 -7.18,15.52l2.58 0.17c3.92,0.2 6.87,-1.09 10.5,-1.65 3.61,-0.55 7.32,-1.03 11.13,-1.55l22.12 -2.57c15.05,-2.46 32.95,-0.44 48.39,-1.8 0.02,-13.84 -41.09,-7.63 -50.53,-6.23 -3.52,0.52 -6.63,1.44 -10.34,2.22l-19.84 4.47c4.39,-4.41 38.61,-10.95 48.85,-11.02 6.64,-0.04 13.64,0.22 20.22,-0.04 -0.6,-1.98 -5.57,-6.83 -7.14,-10.59 -4.13,-9.94 2.47,-11.22 -25.76,-11.31 -7.29,-0.03 -10.44,1.83 -16.29,2.22z"/>
   <path class="fil23" d="M232.51 302.18c-0.9,1.54 -0.74,1.65 -2.14,2.08 0.07,-0.96 -0.13,-0.63 0.27,-1.59 0.35,-0.85 0.38,-0.57 0.78,-1.02 0.99,-1.75 3.03,-6.64 3.18,-8.82 -1.95,1.05 -4.38,2.66 -5,4.36 -0.92,2.5 -2.33,4.64 -4.04,5.93 -5.92,4.49 -1.64,0.15 -3.78,5.35l-3.28 0.11c-1.3,2.69 -5.64,6.02 -8.45,7.16 -4.83,1.97 -7.35,2.26 -8.67,2.78 -2.11,0.83 -1.22,2.25 -1.91,1.1 -0.07,-0.12 -0.27,0.2 -0.41,0.28 -5.02,-0.43 -17.34,-5.42 -21.22,-3.37 1.2,1.65 3.4,0.82 7.23,2.08 2.05,0.67 4.06,1.76 6.38,2.79 0.57,0.82 0.67,-1.26 0.58,1.7 -3.02,0.39 -1.08,0.03 -1.79,-0.52l-0.82 0.24 -3.36 -1.07c-5.16,2.97 -8.86,4.71 -13.82,6.78 -9.96,4.17 -21.07,8.66 -31.84,4.51 -2.89,-1.11 -4.39,-2.03 -6.39,-3.6 -3.86,-3.02 -1.76,-2.03 -4.14,-5.49 -1.06,0.54 -1.9,1.18 -1.81,4.14 0.06,2.16 0.5,2.88 1.96,4.28 2.57,2.46 4.1,4.19 6.32,5.8 5.9,4.28 9.85,7.02 18.89,5.96 6.82,-0.79 13.5,-2.86 19.29,-5l15.77 -5.81c4.04,-1.1 1.88,-0.13 2.41,0.3l-25.69 10.64c-1.18,0.38 -2.75,0.37 -4.11,1.5 9.64,7.21 26.25,-0.05 35.37,-3.84 7.3,-3.04 12.43,-17.02 20.26,-24.79 -0.39,2.81 -6.67,12.18 -8.62,15.34 4.26,-0.72 20.15,-10.79 22.71,-14.05 2.97,-3.8 4.07,-8.33 4.8,-13.4 0.54,-3.74 2.84,-13.05 1.5,-15.95 -2.16,0.64 -2.33,3.67 -3.33,6.42 -0.99,2.74 -2.11,4.57 -3.08,6.7z"/>
   <path class="fil23" d="M114.8 59.35c-2.29,1.68 -18.17,5.37 -22.6,6.44 -4.61,1.11 -18.8,5.3 -20.64,8.22l6.73 -0.45c11.68,0.79 33.61,-2.18 46.38,2.72 -2.53,0.44 -10.02,-0.74 -13.56,-0.81 -6.66,-0.13 -26.23,-0.45 -31.84,0.34 -4,0.56 -9.9,1.57 -13.92,1.77l-2.12 8.13 3.65 -0.8c1.58,0.27 18.16,-3.07 25.46,-3.51 6.76,-0.41 27.74,0.83 28.47,0.65l44.31 -13.71c1.01,-0.87 -0.12,-0.33 1.42,-1 0.26,-0.11 1.15,-0.07 1.36,-0.07 -4.04,-0.79 -0.85,-0.13 -2.03,-1.2 -4.68,-1.97 -17.58,-4.32 -23.8,-5.14 -8.07,-1.07 -18.83,-2.09 -27.27,-1.57z"/>
   <path class="fil23" d="M161.39 269.65c1.07,8.7 13.12,4.8 19.08,2.63 17.09,-6.22 28.18,-6.67 33.95,-21.74 2.1,-5.5 5,-16.07 5.32,-22.68 -2.63,0.79 -29.16,18.58 -29.96,20.22 -1.55,3.19 -1.21,5.35 -4.6,7.44 -3.41,2.1 -4.59,-1.29 -9.86,2.81 -3.66,2.85 -11.59,8.37 -13.94,11.32z"/>
   <path class="fil23" d="M137.27 276.82l-1.48 -1.53c-10.76,-8.67 -9.3,-0.99 -13.46,-5.84 -2.16,-2.52 -0.42,-2.98 -5.53,-6.04 -5.95,-3.57 -16.92,-8.94 -23.22,-11.53 -3.04,-1.25 -13.18,-5.88 -16.55,-6.36 0.92,7.07 15.78,23.59 20.96,28.45 5.13,4.81 9.04,6.58 18.08,6.69 5.49,0.07 18.12,-0.3 21.21,-3.84z"/>
   <path class="fil23" d="M332.07 342.52c-1.05,-2.04 -0.49,-1.76 -2.15,-2.24 -0.54,1.02 3.24,9.5 3.95,11.44 7.44,20.28 11.88,49.51 9.34,70.92 -1.2,10.1 -2.62,18.55 -4.4,27.89 2.31,-1.39 13.25,-19.04 14.43,-22.96 2.13,-7.07 -0.71,-27.17 -1.84,-34.3 -3.07,-19.31 -10.89,-34.45 -19.32,-50.75z"/>
   <path class="fil23" d="M65.37 88.18l-1.97 3.59c-0.98,3.68 0.03,10.09 0.59,13.81l2.26 -0.09c1.48,-0.17 19.12,-9.14 21.92,-10.48 3.01,-1.44 21.97,-8.97 22.4,-9.43l1.27 -2.09c-3.9,-0.08 -7.97,-0.54 -12.3,-0.54 -4.38,0 -8.32,0.72 -12.62,1.09 -3.17,0.27 -20.22,3.16 -21.55,4.14z"/>
   <path class="fil23" d="M294.93 289.5c2.36,1.51 2.49,-0.2 3.65,2.35 -7.01,0.51 -3.17,-3.44 -11.41,2.84 -2.78,2.12 -6.18,5.15 -8.33,7.67 -2.48,2.92 -4.7,6.19 -7.53,7.9 -3.83,2.31 -8.71,0.71 -10.26,5.71 5.65,0.2 20.92,-7.22 27.19,-9.25 2.49,-0.81 20.01,-5.07 21.02,-5.9 0.92,-0.76 3.33,-4.44 3.82,-6.07 -3.49,0 -11.58,2.02 -14.62,3.05 -2.25,0.76 -4.12,1.22 -6.46,1.77l-6.71 0.97c5.07,-3.59 18.26,-5.81 24.41,-7.65 -0.7,-1.51 -1.31,-1.98 -2.85,-2.95 -2.7,-1.69 -7.12,-5.92 -11.93,-0.44z"/>
   <path class="fil23" d="M88.84 322.5c0.7,2.76 6.32,7.88 9.27,9.79 6.83,4.41 31.65,20.17 37.62,20.49 0.03,-5.92 1.48,-13.83 -4.23,-14.99 -2.37,-0.56 -4.38,-0.46 -6.97,-1.05 -12.32,-2.81 -16.88,-5.65 -26.53,-10.99 -3.16,-1.75 -6.77,-4.91 -9.93,-5.6l0.77 2.35z"/>
   <path class="fil23" d="M49.81 435.04c-0.44,-3.02 -1.42,-4.49 -1.65,-8.75 -0.52,-9.68 1.99,-16.64 6.57,-24.99 3.23,-5.89 8.96,-13.36 13.35,-18.09 1.76,-1.9 3.99,-3.16 5.01,-5.47 -5.11,-0.3 -9.77,4.71 -14.45,9.27 -7.86,7.66 -16.93,19.42 -16.19,31.5 0.33,5.41 3.72,14.82 7.35,16.52z"/>
   <path class="fil23" d="M116.57 357.39c3.21,-0.75 9.32,-3.22 11.49,-3.18 -0.78,1.91 -3.68,3.08 -5.8,3.76 -4.51,1.44 -6.01,-0.46 -5.77,4.53 4.29,0.06 15.45,-3.33 19.71,-4.78 -0.66,-1.61 -0.22,-0.96 -1.53,-1.9l-14.74 -6.38c-1.22,1.77 -3.01,6.01 -3.37,7.96z"/>
   <path class="fil23" d="M372.96 243.18c0,3.37 -0.23,4.21 1.03,7.2 4.52,-0.2 9.49,-7.47 7.97,-13.6 -1.81,-7.28 -9,-1.47 -9,6.4z"/>
   <path class="fil23" d="M346.18 213.15c-3.7,-0.9 -6.5,0.25 -7.31,3.72 -0.68,2.88 -0.6,9.1 0.95,10.92 3.87,4.54 8.18,-8.73 6.36,-14.64z"/>
   <path class="fil23" d="M312.83 288.99c3.03,-7.98 -5.45,-15.82 -10.1,-11.8 -6.41,5.54 9.9,11.79 10.1,11.8z"/>
   <path class="fil23" d="M381.53 276.27l0.09 3.35c4.03,-0.2 9.57,-7.53 8.06,-11.26 -1.88,-4.66 -8.15,0.07 -8.15,7.92z"/>
   <path class="fil23" d="M388.89 299.35c4.64,0.07 6.01,-6.78 4.35,-10.89 -2.48,0.05 -3.65,1.85 -4.44,4.22 -0.82,2.45 -1.1,4.55 0.09,6.67z"/>
   <path class="fil23" d="M100.88 355.42c-1.77,1.98 -1.89,3.47 -0.55,6.03 1,1.9 2.33,3.32 4.16,3.71 2.04,-3.5 1.59,-10.36 -3.62,-9.73z"/>
   <path class="fil23" d="M74.1 369.69c3.66,1.52 10,1.31 10.52,-2.98 -2.89,-2.24 -9.89,-1.73 -10.52,2.98z"/>
   <path class="fil23" d="M79.13 387.67c4.31,3.17 10.03,-1.56 10.8,-2.76 -0.83,-0.63 -1.12,-0.89 -3.07,-0.91 -2.93,-0.03 -7.29,0.35 -7.73,3.67z"/>
   <path class="fil23" d="M127.65 82.92c-2.15,4.37 -5.46,4.1 -9.3,6.47 -2.93,1.8 -6.49,3.89 -9.53,5.86l-14.03 9.16c-1.47,1.23 -3.02,2.59 -4.43,3.31l0.44 0.66c2.07,0.08 18.6,-7.97 23.97,-8.94 0.24,-0.25 -0.53,-1.03 2.09,-1.32 2.6,-0.29 1.22,0.29 1.81,0.57 -0.13,0.14 -0.26,0.33 -0.37,0.42 -1.9,1.55 -1.16,0.8 -2.16,0.98 -4.28,1.07 -13,6.24 -17.89,8.34 -2.1,0.9 -17.03,7.93 -17.54,8.87 -1.17,2.58 -0.39,4.23 -0.27,7.31l1.53 0.31 16.72 -8.34c24.26,-13.53 68.94,-25.67 97.17,-28.99 9.34,-1.1 38.34,-3.57 46.76,-1.29 -24.22,2.25 -43.54,1.33 -69.39,7.28 -6.97,1.61 -14.02,3.37 -20.44,4.8 -8.69,1.93 -29.26,9.26 -37.73,13.04l-33.35 17.16c-0.44,4.23 6.72,26.29 9,27.17 2.69,0.04 6.77,-2.27 9.48,-3.48 6.93,-3.09 24.21,-8.24 31.44,-8.58 2.38,0.09 13.92,-5.03 17.94,-6.41 9.13,-3.14 50.25,-15.8 59.49,-16.45 1.01,-0.69 6.51,-2.29 8.49,-1.21 -1.75,1.11 -4.32,1.43 -6.78,1.75 -19.32,5.58 -42.4,11.14 -61.12,18.68l-14.15 5.62c-1.79,0.72 -3.89,1.04 -4.56,2.08 -1.23,3.14 -1.93,3.11 -2.87,5.5l1.86 0c1.76,0.4 12.97,-5.18 16.11,-6.4 14.15,-5.48 37.99,-14.13 52.79,-17.27 8.03,-1.7 19.47,-5.09 28.06,-6.54 3.42,-0.58 6.5,-0.93 9.84,-1.73 6.64,-1.58 35.8,-3.85 43.75,-3.44 -0.14,0.09 -0.35,0.02 -0.44,0.21 -14.29,1.68 -30.57,3.35 -44.47,5.85 -26.99,4.87 -54.91,11.19 -79.81,21.58 -1.51,0.63 -3.1,1.01 -4.54,1.53 -5.11,1.83 -28.83,12.5 -30.39,13.82 -0.85,5.18 -4.67,6.46 -2.48,8.81 0.09,0.1 -0.14,1.16 2.92,-0.18 3.2,-1.41 4.64,-2.61 9.09,-4.16 7.49,-2.6 35.69,-13.56 41.81,-12.96 1.9,-0.16 11.71,-3.52 14.12,-4.41 13.14,-4.88 45.3,-12.88 59.89,-15.19 5.32,-0.84 11.41,-1.14 16.62,-2.09 10.79,-1.97 24.03,-1.65 35.57,-2.46 1.43,-2.01 2.78,-7.32 2.57,-10.84 -0.61,-10.15 -23.01,-9.82 -30.54,-9.82 -8.8,0 -17.26,0.13 -25.93,0.55 -8.47,0.41 -16.45,1.75 -25.2,1.4 10.92,-3.58 42.33,-4.24 56.06,-3.62 3.32,0.15 6.4,0.31 9.43,0.54 3.48,0.26 6.31,1.08 9.49,1.1l-2.92 -30c-3.56,-1.36 -14.68,-2.85 -19.27,-3.17 -22.47,-1.58 -21.37,-1.04 -43.02,0.04 -6.36,0.32 -14.5,1.97 -20.73,1.52 6.34,-2.88 32.13,-4.77 41.14,-4.78 6.64,-0.01 25.53,1.09 32.54,2.1 3.57,0.52 5.94,1.51 9.94,1.8 0.75,-4.59 2.52,-5.8 -0.48,-10.11 -2.06,-2.95 -4.92,-3.62 -8.38,-4.42 -18.46,-4.27 -53.84,0.13 -72.21,2.13 -25.47,2.77 -41.14,7.91 -63.74,14.09 -6.58,1.8 -12.94,3.83 -19.47,6.16z"/>
   <path class="fil24" d="M207.51 279.02c0.46,-2.57 1.6,-2.44 5.21,-4.24l13.74 -6.08c6.11,-2.78 6.82,-4.31 4.1,8.85 -0.73,3.54 -2.34,4.09 -5.88,4.24 -3.87,0.16 -14.66,-1.14 -17.17,-2.77zm-31.63 -62.34c-1.02,2.86 -7.6,11.8 -10.33,15.91 -3.44,5.19 -6.66,10.79 -9.74,15.99l-12.7 -1.11c-3.04,-0.76 2,1.97 -1.38,-0.51 4.41,-9.04 18.09,-23.58 26.84,-31.22l10.51 -8.41c1.14,-0.77 -1.51,-0.95 1.48,-0.6 0.67,1.52 0.03,1.25 1.5,1.34 4.22,-1.73 12.8,-9.29 17.59,-9.93 -0.95,2.75 -21.43,13.79 -23.76,18.55zm143.44 -43.98c-0.1,-1.75 -0.31,-2.08 -1.09,-3.26 -2.7,0.03 -8.71,5.96 -10.23,7.68 -3.54,4 -6.1,5.16 -5.05,12.77 0.64,1.76 0.22,1.8 -1.15,2.37 -1.47,-2.35 -1.98,-5.74 -2.74,-8.75 -2.57,-0.67 -2.12,0.67 -4.93,3.45 -1.81,1.79 -2.56,2.63 -4.12,4.69 -2,2.63 -5.97,7.4 -6.27,10.84 2.08,7.15 4.24,5.76 0.59,14.33 -3.58,8.42 -8.18,14.84 -13.79,21.54 -3.64,4.35 -6.24,7.04 -11.18,6.36 -4.24,-7.64 5.59,-15.92 10.4,-18.5 1.78,-4.22 2.17,-6.06 -0.05,-10.2 -2.88,-0.12 -4.76,-0.72 -6.05,-2.55 -1.14,-1.62 -2.01,-4.81 -1.13,-6.76 1.15,-2.55 5.8,-6.89 8,-9.73l26.37 -25.99c5.86,-4.77 25.55,-20.58 31.87,-20.47 1.55,11.66 -15.78,41.94 -20.98,43.44 0.01,-2.99 3.2,-5.45 6.15,-10.33 1.24,-2.05 5.17,-9.25 5.37,-10.93zm-66.92 19.29c-1.5,0.37 -1.4,0.63 -2.89,-0.77 -4.85,-1.38 -25.04,0.76 -32.01,1.06 -25.26,1.11 -36.39,2.85 -60.54,6.71 -4.98,0.8 -9.55,1.89 -14.45,2.66 -4.11,0.65 -10.42,1.57 -13.89,2.76l-0.28 4.72c-1.5,8.38 4.05,20.48 4.02,28.22 -2.67,-2.51 -5.95,-21.26 -5.81,-25.1 -0.09,-0.15 -0.18,-0.35 -0.23,-0.48l-0.76 -6.3c-8.55,1.19 -31.73,8.6 -40.2,11.96l0.25 1.44c1.94,1.6 16.09,6.69 29.63,17.97 2.22,1.85 6.35,6.49 8.74,7.03 -0.88,-2.71 -5.53,-5.73 -7.64,-7.57 -3.68,-3.21 -7.35,-4.84 -7.28,-7.26 3.64,2.26 6.07,3.66 9.23,6.4 2.03,1.76 7.07,5.69 7.72,8.44l-3.68 0.94c0.11,0.14 0.26,0.3 0.33,0.41l0.66 1.81c-3.46,2.11 -5.37,-1.35 -7.2,-3.37 -1.3,-1.43 -1.65,-1.9 -2.8,-3.25 -2.69,-3.18 -1.74,-2.78 -0.98,-3.24 -1.6,-2.16 -10.18,-7.39 -12.84,-8.8 -2.91,-1.55 -11.23,-6.45 -14.48,-6.9 -4.47,0.45 -3.96,7.87 -3.33,12.14 0.41,2.79 2.79,8.07 4.07,12.07 3.82,2.05 9.42,4.04 13.58,5.95 10.43,4.79 16.9,8.83 26.29,13.97 4.28,2.34 7.51,5.54 12.45,7.73 -0.68,-3.7 -6.64,-14.09 -3.24,-17.79 2.24,3.15 1.53,16.18 9.62,18.16 8.45,2.07 10.35,-2.5 18.48,-9.01l24.2 -18.24c7.85,-5.82 17.09,-12.15 25.1,-17.37 15.5,-10.09 14.34,-3.43 22.21,-5.87 1.48,-0.46 12.46,-10.84 7.68,-17.87 -1.13,-1.67 -5.84,-5.04 -7.9,-6.46 -3.58,-2.48 -8.13,-4.41 -9.12,-5.32 1.76,-1.25 3.19,0.06 6.05,1.18 2.66,1.04 3.2,1.46 5.46,2.83 10.59,6.4 11.53,11.29 6.13,20.17 -2.66,4.39 -3.65,5.76 -7.89,8.31l-0.69 0.62c-2.69,2.39 -4.69,5.27 -6.8,8.21 -1.19,1.67 -2.16,3.41 -3.27,4.97 -1.57,2.21 -2.24,2.51 -4,4.04 -4.84,5.73 -3.26,19.62 -24.47,26.45 -2.55,0.82 -11.7,3.24 -12.85,4.31 -1.58,1.26 1.97,0.47 -1.93,1.09 0.94,-0.69 -0.76,-0.13 0.92,-0.45 0.46,-0.09 1.07,-0.08 1.53,-0.1 3.71,1.02 23.58,-3.91 27.06,-5.54 7.37,-3.46 11.04,-17.05 14.8,-18.73 -0.22,2.55 -5.42,10.08 -6.93,12.85 -3.29,5.99 -4.68,6.82 -11.28,9.03 -10.58,3.55 -21.55,4.89 -33.68,6.77 -8.06,1.25 -8.6,-5.06 -15.31,-4.68 -3.3,0.19 -4.32,2.17 -7.75,2.61 -9.39,1.19 -3.33,-5.28 -14.03,4 -7.57,6.57 -12.21,5.1 -22.85,6.95l-1.08 1.63c4.54,2.66 7.03,5.05 13.43,6.01 2.08,0.31 11.83,-1.73 13.51,-3.11l1.33 -1.35c1.01,-2.9 4.02,-5.41 7.65,-5.98 -0.57,2.65 -2.3,3.66 -2.32,6.34l0.31 3.69c0.14,0.04 0.34,-0.08 0.38,0.04l1.01 -0.03c0.69,-0.1 -0.62,-0.38 1.28,-0.32 -0.33,3.01 -1.73,-0.26 -1.18,3.95 3.02,0.84 6.26,0.63 9.15,-0.13 4.04,-0.24 8.79,-5.65 10.89,-8.77 1.66,-2.47 0.59,-2.96 3.68,-3.72 -2.15,7.58 -9.32,13.47 -16.19,15.53 -1.71,3.66 3.58,4.91 6.79,4.32l7.02 -2.07c1.05,1.41 1.79,2.17 2.09,3.81l-3.73 2.22 -1.61 1.64c-0.23,2.63 -0.22,2.91 0.95,4.57l5.16 0.2c3.56,0.03 3.6,-2.54 7.13,-3 5.97,-0.78 3.84,0.67 7.3,-3.22 3.15,-3.53 7.48,-7.24 14.55,-6.74 9.98,0.71 7.59,1.37 15.77,-3.18 14.07,-7.82 24.05,-17.62 33.2,-30.77 4.85,-6.96 3.21,-5.85 10.27,-10.66 4.49,-3.06 8.54,-5.77 12.53,-8.97 13.76,-11.03 29.48,-30.18 38.89,-46.03l14.8 -27.71c1.03,-2.41 2.1,-4.69 3.26,-7.18 2.26,-4.85 8.16,-19.25 8.75,-23.45 -1.14,1.07 -0.09,-1.1 -1.05,1.14 -0.63,-2.82 -0.52,-4.78 -1.06,-7.25 -5.19,-0.58 -8.89,1.91 -12.79,4.17 -3.24,1.88 -7.75,3.85 -10.78,6.27l-19.58 14.59c-1.66,1.49 -2.96,3.09 -4.48,4.36l-13.48 11.87c-5.36,5.06 -9.5,7.88 -13.88,12.03 -1.02,0.97 -2.93,3.03 -4.58,3.58 -2.17,-0.38 -4.49,-2.4 -4.21,-4.75z"/>
   <path class="fil24" d="M368.29 275.04c-15.41,0.85 -21.43,8.58 -27.2,10.35 0.2,-4.64 2.99,-8.51 1.51,-18.39 0.48,-1.87 -0.58,-4.92 -1.84,-5.99 -3.12,-2.66 -7.6,-1.06 -11.09,-11.54 2.08,1.37 1.8,2.64 4.17,4.67 7.52,6.45 23.88,8.78 31.19,13.99 2.85,2.03 4.29,5.35 5.39,8.52 0.31,0.9 0.81,2.06 0.28,2.93 -0.81,-1.42 -1.55,-3.1 -2.41,-4.54zm24.45 -12.31c-0.8,0.54 -0.73,0.39 -1.47,0.72 -0.4,-3.55 -0,-6.54 -2.55,-8.01 -3.64,-2.1 -8.64,0.28 -8.42,-1.74 -1.23,1.18 -2.13,2.17 -3.65,3.11 -8.41,5.18 -12.57,-4.26 -13.66,-4.76 -7.74,-0.49 -8.07,-1.93 -9.79,-8.93 4.07,1.55 2.24,7.06 8.93,5.78 0.79,-10.78 1.54,-13.61 6.23,-20.62 0.55,0.63 1.67,-1.27 -0.36,3.79 -0.61,1.52 -0.98,2.75 -1.47,4.08 -4.45,12.14 1.14,23.65 10.08,16.89 -3.16,-1.85 -4.58,0.61 -5.41,-4.91 -0.49,-3.22 -0.14,-7.54 0.75,-10.38 0.79,-2.53 2.68,-4.98 4.46,-6.03 3.34,-1.99 5.27,0.63 7.31,2.45 -0.74,-3.66 0.43,-7.81 -1.56,-10.7 -2.04,-2.96 -4.48,-2.66 -8.68,-2.66 -1.41,-0.65 -0.95,0.35 -0.55,-1.31 -2.8,1.39 -7.26,6.35 -9.87,8.82 -15.73,14.84 -10.1,5.17 -16.67,8.04 -11.41,4.96 -8.8,-1.07 -14.04,-3.53 -0.09,4.32 2.66,7.77 1.46,9.66 -1.3,-0.5 -2.47,-2.12 -3.51,-3.37 -1.52,0.67 -0.72,0.11 -1.64,1.06 -2.39,2.45 -1.37,10.2 -22.67,18.23 -2.66,1 -5.08,1.73 -7.74,2.71 -3.2,1.18 -4.35,2.02 -5.27,5.63 -2.03,7.95 -0.57,11.93 5.57,14.2 0.24,-0.33 3.29,-11.05 11.13,-5.9 5.02,3.29 5.96,6.6 6.13,13.23 4.38,-2.5 8.28,-12.33 -0.97,-18.95 -2.3,-1.65 -4.65,-2.12 -6.76,-3.38 8.93,-1.14 13.96,6.28 14.29,6.53 1.27,-5.93 -0.63,-6.82 -1.08,-10.91 3.05,1.41 4.39,6.58 3.88,10.79l-2.07 13.59c16.67,7.04 13.5,-0.96 22.5,6.11 6.14,4.82 14.2,7.86 21.63,3.87 2.31,-1.24 3.97,-2.57 5.47,-3.96l4.89 -5.23c-3.17,-3.59 -5.68,-3.2 -5.09,-11.01 0.18,-2.36 1.16,-5.17 0.22,-7.45 -0.77,-1.89 -3.3,-2.48 -1.97,-5.14l2.56 2.87c3.03,-1.73 2.6,-6.19 7.76,-10.46 -0.3,2.47 -3.36,6.17 -4.54,12.77 -0.64,3.58 -2.13,14.52 3.31,13.76 -0.03,-2.93 -2.11,-13.49 5.21,-16.91 3.43,-1.61 3.78,-0.06 6.72,0.8l1.01 -3.24z"/>
   <path class="fil24" d="M90.54 363.87c0.33,0.52 0.82,1.3 0.96,1.96 1.26,6.06 -8.1,7.8 -8.21,11.12 3.13,1.93 12.29,-1.08 12.78,10.28l5.58 -2.17c-3.11,-5.53 -9.67,-7.07 -8.71,-17.24 2.47,3.62 0.38,5.47 5.37,8.4 1.74,1.02 8.23,3.47 10.73,3.4 2.84,0.68 1.06,0.56 3.42,0.09 5.88,-1.19 -1.44,1.42 -1.38,9.31 1.66,1.76 4.2,-1.08 7.75,1.4 3.01,2.11 2.45,3.9 3.85,6.52 1.94,-1.07 3.14,-5.88 2.45,-8.39 -0.85,-3.1 -3.15,-5.34 -3.39,-7.91 1.91,1.19 2.12,2.84 4.02,3.48l-2.6 -9.41 -2.09 -2.42 -0.56 4.96c-1.91,-1.16 -1.04,-1.04 -1.75,-5.37 -1.15,-7 -3.58,-5.08 -4.79,-9.82 -0.71,-2.77 -0.62,-3.16 -2.36,-4.85 0.01,6.23 0.19,14.23 -7.63,13.48 -5.55,-0.53 -7.76,-6.27 -10.58,-10.53l-2.8 1.58 -0.04 2.12z"/>
   <path class="fil24" d="M348.88 218.91c-0.45,4.03 -3.2,10.52 -5.54,11.84 -5.05,2.86 -7.24,-5.29 -7.34,-9.1 -0.34,-13.12 14.41,-16.53 12.88,-2.74zm-12.38 -16.18c-0.48,0.63 -0.37,0.39 -0.94,1.42 -4.78,8.67 -4.38,23.05 1.52,29.66 3.13,3.5 8.28,1.49 11.41,-5.19 2.81,-6.01 3.34,-9.75 3.37,-17.43l-1.42 -0.06c-0.64,-13.8 -12.02,-7.17 -13.36,-6.86 -0.82,-0.85 -0.9,1.4 -0.58,-1.55z"/>
   <path class="fil24" d="M13.84 221.66c1.79,-0.86 0.47,0.46 0.8,-1.68 0.18,-1.15 -0.71,-4.91 -0.76,-6.08 0.13,-3.03 -0.09,-0.77 0.78,-1.57 4.16,2.84 14.32,7.09 21.46,13.23 2.09,1.79 5.02,5.31 6.78,1.07 -1.5,-2.48 -5.51,-1.92 -8.96,-6.06 -1.42,-1.71 -1.62,-2.81 -3.72,-4.03 -5.57,-3.22 -21.64,-11.86 -27.33,-11.68 0.56,3.33 8.29,14.29 10.95,16.79z"/>
   <path class="fil24" d="M106.4 398.7c-0.35,-5.16 -5.6,-8.84 -10.73,-8.04 -5.19,1.64 -10.08,6.07 -4.37,10.75 4.45,3.64 12.94,0.75 15.09,-2.71z"/>
   <path class="fil24" d="M394.12 284.67c0.29,2.53 -0.04,1.27 -0.28,1.84 -3.62,-0.84 -1.94,-0.1 -3.25,-2.59 -1.39,-2.65 -1.06,-0.46 -2.48,-2.63 -6.35,2.99 -9.87,11.41 -6.63,17.81 1.5,2.96 2.98,3.09 6.3,3 -1.8,-4.15 -3.42,-9.54 1.18,-14.19 1.97,-1.98 3.08,-1 6.04,-1.01 -0.23,-2.49 0.13,-1.19 -0.89,-2.24z"/>
   <path class="fil24" d="M116.34 403.6l-0.82 -4.32c-2.38,-0.45 -3.79,-0.63 -6.02,0.27 -1.07,0.71 -2.17,1.67 -3.64,2.73 -1.76,1.27 -2.93,1.17 -3.4,3.03 4,3.59 12.11,2.19 13.88,-1.71z"/>
   <path class="fil25" d="M103.04 56.08c-2.86,-0.6 -5,-0.21 -7.86,0.18 -0.01,-2.27 0.07,-1.01 -0.64,-2.79 5.44,-7.74 8.21,-12.43 15.18,-19.04 11.94,-11.3 15.6,-13.31 30.18,-21.13 23.99,-12.86 33.04,-7.16 42.36,-8.77 -2.69,-1.3 -8.03,-0.91 -11.08,-0.96 -36.52,-0.65 -68.55,11.12 -95.34,35 -4.9,4.36 -20.43,20.51 -21.56,26.12l42.12 -7.77c3.43,-0.6 2.33,0.54 6.64,-0.84z"/>
   <path class="fil26" d="M258.18 287.84l18.75 -19.38c9.21,-9.76 16.2,-13.84 20.47,-18.09 -8.95,2.61 -18.61,7.78 -26.19,11.82 -3.7,1.97 -5.71,7.28 -7.36,11.42 -1.84,4.61 -4.53,9.54 -5.66,14.22z"/>
  </g>
 </g>
</svg>
