<?xml version="1.0" encoding="UTF-8"?>
<!DOCTYPE svg PUBLIC "-//W3C//DTD SVG 1.1//EN" "http://www.w3.org/Graphics/SVG/1.1/DTD/svg11.dtd">
<!-- Creator: CorelDRAW -->
<svg xmlns="http://www.w3.org/2000/svg" xml:space="preserve" width="29.1657mm" height="51.5464mm" version="1.1" style="shape-rendering:geometricPrecision; text-rendering:geometricPrecision; image-rendering:optimizeQuality; fill-rule:evenodd; clip-rule:evenodd"
viewBox="0 0 77.57 137.09"
 xmlns:xlink="http://www.w3.org/1999/xlink"
 xmlns:xodm="http://www.corel.com/coreldraw/odm/2003">
 <defs>
  <style type="text/css">
   <![CDATA[
    .fil0 {fill:#050306}
    .fil3 {fill:#0548AA}
    .fil2 {fill:#2169CE}
    .fil6 {fill:#262529}
    .fil11 {fill:#2F073F}
    .fil8 {fill:#3D2517}
    .fil9 {fill:#753E92}
    .fil4 {fill:#784096}
    .fil5 {fill:#7A5336}
    .fil12 {fill:#93761F}
    .fil1 {fill:#A76DBE}
    .fil13 {fill:#B3B0B9}
    .fil10 {fill:#DCBB48}
    .fil7 {fill:#EEEEEE}
   ]]>
  </style>
 </defs>
 <g id="Camada_x0020_1">
  <metadata id="CorelCorpID_0Corel-Layer"/>
  <g id="_2377770746032">
   <path class="fil0" d="M62.34 108.07c-0.65,-0.85 -1.13,-2.83 -1.75,-3.86 -0.7,-1.17 -1.19,-2.5 -2,-3.63 -1.53,-2.14 -1.41,-6.47 -2.28,-9.05 -0.33,-0.97 -0.41,-2.05 -0.74,-3 -0.29,-0.83 -0.83,-2.16 -0.91,-3 0.36,-0.38 1.53,-1.48 2.01,-1.64 0.57,-0.19 0.76,-0.12 1.32,-0.46 0.17,-0.1 0.4,-0.24 0.54,-0.33 0.31,-0.22 0.24,-0.27 0.52,-0.46 0.35,-0.24 3.86,-1.43 5.05,-2.23 1.78,-1.19 1.61,-3.56 0.75,-5.28l-1.78 -3.63c-0.28,-0.58 -0.03,-0.77 -0.18,-1.41 -0.38,-1.59 -1.28,-0.91 -1.75,-1.93 -0.44,-0.94 -0.62,-1.75 -1.07,-2.57l-0.87 -1.76c-0.16,-0.25 -0.35,-0.33 -0.44,-0.55 -0.42,-1.11 0.33,-1.8 -1.04,-2.63 -2.47,-1.51 -2.91,-1.12 -5.75,-1.5 -0.96,-0.13 -2.61,-0.21 -3.58,-0.16 -0.5,0.03 -1.16,0.15 -1.62,0.32 -0.46,0.17 -0.79,0.48 -1.4,0.53l0.48 -1.32c0.2,-0.84 -0.03,-0.86 0.5,-1.38 1.4,-1.37 3.33,0.33 7.51,-3.67 1.5,-1.44 3.96,-4.08 5.07,-6.11 0.59,-1.08 0.45,-1.99 0.55,-3.24 0.46,-0.61 1.03,-1.1 1.53,-1.7 1.98,-2.38 1.52,-5.36 1.33,-8.34 -0.05,-0.82 0.05,-2.47 0.07,-3.39 0.05,-1.99 0.51,-4.12 0.62,-6.12 0.02,-0.35 0.19,-2.97 0.25,-3.11 0.23,-0.62 0.64,-0.6 0.94,-2.31 0.53,-3.03 -0.96,-2.98 -1.25,-3.74 -0.21,-0.55 -0.33,-3.83 -0.51,-4.68 -0.59,-2.76 -1.51,-5.34 -2.06,-8.1 -0.17,-0.83 -0.52,-1.73 -1.24,-2.14 -2.25,-1.27 -3.33,0.31 -4.45,1.38 -5.77,5.54 -9.63,14.08 -12.25,21.52 -0.28,0.8 -0.55,1.66 -0.8,2.59 -0.62,2.31 -0.05,3.89 -3.05,3.19 -0.41,-0.1 -0.97,-0.25 -1.37,-0.28 -0.67,-0.05 -1.01,0.17 -1.59,0.12 -0.15,-0.62 -0.11,-1.09 -0.23,-1.66l-1.21 -4.77c-1.18,-3.77 -3.07,-7.28 -5.38,-10.47 -1.9,-2.63 -3.33,-4.58 -5.58,-6.99 -0.5,-0.54 -1.23,-0.99 -1.8,-1.45 -1.81,-1.45 -5.19,-5.39 -7.17,-2.06 -1.74,2.94 -2.31,5.94 -2.46,9.51 -0.21,5.03 -0.63,10.23 -0.27,15.36 0.31,4.41 0.6,6.45 1.25,10.59 0.14,0.88 0.2,0.72 0.61,1.37 0.35,0.55 0.46,0.74 0.88,1.13 0.65,0.59 1.09,1.77 1.44,2.45 0.29,0.56 -0.28,1.55 0.26,3.48 0.48,1.73 1.82,3.78 2.59,5.33 0.97,1.96 2.11,2.98 3.96,3.98 4.23,2.3 3.22,1.11 6.07,1.81l-0.01 1.97c-0.48,0.15 -2.24,-0.43 -5.81,0.46 -1.24,0.31 -2.46,0.75 -3.62,1.27 -0.4,0.18 -0.93,0.28 -1.18,0.62 -0.29,0.56 0.07,0.55 -0.01,1.25 -0.66,0.64 -0.67,0.55 -1.51,0.05 -0.59,-0.35 -1.39,-0.34 -1.95,-0.57 -0.17,-0.41 -0.24,-1.47 -0.37,-2.01 -0.2,-0.89 -0.17,-1.15 -0.54,-1.96 -0.56,-1.24 -1.11,-2.22 -2.18,-2.88 -0.99,-0.61 -2.14,-1.29 -3.76,-1.06 -1.39,0.2 -2.56,1.03 -2.97,2.06 -0.82,2.04 0.83,2.02 -1.61,3.37 -1.52,0.84 -0.94,1.76 -2.22,2.81 -1.26,1.05 -1.02,3.31 -0.36,4.77 0.42,0.93 1.66,1.17 2.69,1.15 1.91,2.1 -0.25,1.23 3.18,3.25 0.17,3.09 0.61,1.68 2.06,3.6 0.37,0.48 0.36,0.7 0.8,1.09 4.31,3.86 5.07,2.29 9.76,-1 2.1,-1.47 1.64,-0.54 2.58,-1.19 0.81,-0.56 1.15,-1.37 1.52,-2.24 0.01,-0.02 0.03,-0.06 0.04,-0.08 0.51,0.17 1.66,2.02 2.07,2.58 0.97,1.32 0.24,2.22 0.55,4.07 0.14,0.84 -0.12,0.87 -0.54,1.47l-4.49 6.06c-0.02,0.02 -0.03,0.05 -0.05,0.08 -1.07,1.73 -0.8,2.95 -1.19,4.7 -0.21,0.92 -2.86,4.83 -3.54,5.86 -1.4,2.13 -4.33,7.06 -4.23,9.83 0.03,0.79 0.1,1.35 0.35,2.01 0.25,0.64 0.1,1.5 0.17,2.25 0.33,3.76 0.95,4.31 3.38,6.03 0.93,0.66 1.84,1.34 2.96,1.69l1.99 1.49c0.2,0.14 0.56,0.29 0.77,0.46l0.02 3.1c-1.35,0.88 -2.37,0.06 -2.94,2.64 -0.32,1.46 0.22,0.97 -0.76,1.97 -1.57,1.59 0.35,1.15 -2.98,2.66 -1.34,0.61 -4.17,3.07 -4.41,4.07 -0.17,0.72 0.47,1.18 1.04,1.42 0.9,0.38 1.19,0.23 2.05,0.17 3.55,-0.21 10.14,-0 13.07,-1.31 1.45,-0.65 1.06,-1.82 1.54,-3.19 0.19,-0.55 0.56,-1.09 0.66,-1.74 0.21,-1.39 -0.48,-1.13 -0.37,-2.9l-0.26 -2.08c-0.41,-1.23 1.42,-4.41 1.43,-4.42 0.55,-0.24 1.37,-0.26 2.03,-0.57l3.87 -2.68c0.75,-0.73 0.89,-0.57 1.5,0.22 0.77,1 3.27,2.39 4.44,3.1l3.09 1.8c0.77,0.49 0.77,0.7 1.1,1.64 0.09,0.25 0.32,0.79 0.36,1.03 0.08,0.5 -0.13,0.68 -0.26,1.07 -0.27,0.84 0.01,1.7 0.01,2.53 -0.53,0.44 -1.15,0.98 -1,2.15 0.14,1.05 1.21,1.01 1.53,2.51 0.13,0.63 0.3,1.25 0.84,1.67 0.3,0.24 0.66,0.5 1.02,0.65 0.4,0.16 0.86,0.24 1.26,0.37 1.76,0.55 3.37,0.83 5.3,1.07 1.64,0.2 7.57,0.71 8.66,-0.73 1.09,-1.45 -1,-3.23 -2.05,-3.99 -0.92,-0.67 -3.87,-1.58 -4.06,-2.31 -0.27,-1 -0.37,-1.48 -1.23,-2.06 -1.06,-0.72 -0.29,-2.56 -1.5,-3.38 -0.91,-0.61 -1.22,-0.04 -1.34,-1.13 -0.06,-0.51 -0.21,-2.25 -0.09,-2.57 0.45,-1.14 2.89,-0.75 4.02,-1.22 1.8,-0.74 3.26,-2.04 4.47,-3.45l0.41 -0.49c0.42,-0.67 0.41,-1.44 1.28,-1.66 0.53,-0.13 0.57,-0.2 1.01,-0.42l1.78 -0.98c4.04,-2.35 2.7,-7.91 3.76,-12.05 0.6,-2.35 1.73,-3.56 3.83,-4.19 0.14,-0.04 5.85,-0.74 3.49,-3.37 -1,-1.11 -2.27,-1.2 -4.23,-0.99 -1.68,0.18 -2.62,0.76 -3.78,1.56 -0.91,0.62 -2.22,1.73 -2.82,2.46 -0.81,0.99 -1.28,2.5 -1.62,3.78 -0.41,1.52 -0.73,7.99 -2.2,8.41zm-9.49 -37.75c-0.61,-0.45 0.07,-0.23 -0.66,-0.37 -0.09,0.89 -1.79,3.05 -2.57,3.73 -1.9,1.66 -0.33,1.65 -0.75,3 -0.24,0.78 -0.57,0.62 -0.24,1.71 0.3,0.97 1.08,2.01 1.6,2.59 0.4,-0.36 0.09,-0.2 0.37,-0.57 0.11,-0.95 0.45,-0.5 1.18,-0.67 0.29,-0.07 0.71,-0.52 1.06,-0.69 0.13,-0.26 0.29,-0.89 0.55,-1.14 0.41,-1.09 0.72,0.14 1.56,-0.53l1.37 -1.14c-0.16,-0.47 -0.73,-1 -1.09,-1.54 -0.72,-1.08 -1.99,0.19 -2.99,-2.27 -0.41,-1 0.1,-1.31 0.69,-1.68l-0.08 -0.43z"/>
   <path class="fil1" d="M17.25 33.31c-0.23,-0.14 -0.13,-0 -0.39,-0.32 -0.35,-0.42 -0.43,-1.15 -0.46,-1.68 -0.13,-2.12 0.33,-3.94 1.5,-5.66l0.9 -0.7 0.85 -1.25c-0.09,0.63 -0.58,1.92 -0.78,2.55 -1.23,3.96 -0.68,5.35 -1.15,8.51 -0.24,-0.35 -0.38,-1.03 -0.47,-1.45zm4.09 9.97c2.5,1.78 5.57,2.7 9.5,2.86 -1.18,0.66 -4.47,-0.16 -5.63,-0.55 -1.26,-0.42 -3.29,-1.46 -3.87,-2.31zm-0.77 -2.05c1.61,-0.83 5.93,-0.17 7.78,0.23 2.1,0.45 4.5,1.51 6.15,2.49 -0.74,1.8 -6.1,1.42 -8.02,0.87 -1.88,-0.54 -5.62,-2.16 -5.9,-3.6zm19.63 0.92c-0.01,0.65 -0.01,1.25 0.07,1.85 0.11,0.83 0.39,0.7 0.99,1.12 0.95,0.48 2.01,1.72 2.16,3.05 -0.15,-0.12 -0.09,-0.04 -0.23,-0.2 -0.03,-0.03 -0.12,-0.18 -0.15,-0.23 -0.54,-0.9 -1.09,-1.89 -1.98,-2.49 -1.31,-0.66 -3.42,-0.96 -4.96,-0.12 -0.78,0.17 -1.79,2.31 -2.17,3.58 -0.15,-0.16 -0.3,0.22 -0.22,-0.67 0.13,-1.41 1.56,-2.6 1.96,-3.13 0,-0.65 -0.18,-0.84 -0.37,-1.4 -0.03,-1.83 -3.14,-4.44 -3.28,-4.85 0.47,0.03 0.83,0.47 1.17,0.74 0.4,0.31 0.76,0.68 1.12,0.82 1.32,0.04 2.43,0.36 3.75,-0.03 0.93,-0.27 2.17,-0.61 3.08,-0.95 0.28,-0.07 0.45,-0.44 0.68,-0.69l2.06 -2.18c-0.4,1.17 -3.7,4.38 -3.68,5.79zm2.37 2.22c2.58,-2.55 9.98,-3.38 13.86,-3 -0.09,0.65 -1.96,1.88 -2.59,2.28 -3.65,2.34 -10.46,2.4 -11.27,0.72zm4.44 1.9c1.95,-0.01 3.54,-0.08 5.2,-0.73 2.49,-0.97 2.39,-1.35 3.7,-2.04 -1.8,1.99 -5.8,3.52 -8.43,3.04 -0.68,-0.13 -0.33,-0.01 -0.46,-0.27zm8.42 -22.6l0.32 0.32c0.07,0.07 0.11,0.13 0.18,0.21l1.06 1.31c0.42,0.64 0.91,1.38 0.93,2.3 0.02,1.05 -0.75,2.68 -1.35,3.5l-0.66 0.92c0.03,0.02 -0.05,0.06 -0.08,0.09 -0.46,0.26 -0.11,0.39 -0.64,0.61 -0.06,-1.05 0.95,-3.1 0.49,-5.97 -0.31,-1.94 -1.14,-3.32 -1.48,-4.92 0.56,0.29 0.76,1.24 1.24,1.62zm-9.33 -6.61c-0.12,2.52 -3.01,10.84 -2,12.77l0.12 0.21c-1.62,0.07 -1.46,-0.88 -3.48,0.02 0.22,0.76 0.69,0.43 1.03,1.15 -0.76,-0.16 -0.92,-0.69 -3.61,-1.3 -1.94,-0.44 -2.56,0.44 -3.87,0.94 0.26,-0.62 0.35,-0.37 0.63,-0.96 -1.74,0 -2.55,0.46 -3.92,0.63 0.29,-0.27 0.25,-0.22 0.61,-0.45 0.58,-1.17 -0.21,-5.32 -0.49,-6.59 -0.41,-1.79 -1.09,-3.66 -1.69,-5.3 -0.59,-1.61 -1.45,-3.55 -2.19,-4.96 -0.55,-1.06 -2.19,-3.98 -2.38,-4.73 -0.31,-1.01 -7.24,-7.29 -8.62,-7.38 -1.18,-0.08 -2.52,3.82 -2.84,5.13 -0.56,2.25 -0.6,4.74 -0.73,7.15 -0.32,5.82 -0.44,17.1 0.98,22.83 0.14,0.55 0.26,1.04 0.52,1.48 0.34,0.57 0.56,0.67 0.91,1.1 0.54,0.66 0.94,1.89 1.45,2.43 1.49,-0.51 1.79,-3.95 3.26,-5.38 0.63,-0.61 0.89,-0.61 1.7,-1.11 1.58,-3.33 1.48,-6.38 1.01,-10.42 -0.19,-1.61 -0.46,-3.44 -0.77,-5.08 -0.24,-1.28 -0.9,-3.99 -0.74,-5.2 -0.01,-0.58 -0.88,-3.09 -1.16,-3.92 -0.39,-1.18 -1.11,-2.78 -1.3,-3.89 0.75,0.87 3.1,7.05 3.69,8.76 1.06,3.06 2.09,6.41 2.74,9.69 0.35,1.75 0.63,3.92 0.5,5.8 -0.29,4.31 -4,4.4 -5.66,6.65 -0.32,0.43 -2.01,3.86 -2.05,4.04 -1.18,2.38 2.05,7.39 3.38,9.06 0.8,1.01 2.11,2.36 3.12,3.15 1.14,0.89 2.22,1.9 4.34,1.92 0.14,-0.2 0.14,0.02 0,-0.38 0.05,-0.58 -1.23,-1.78 -0.81,-3.66 0.24,-1.09 1.21,-2.4 2.05,-2.72 -0.5,0.75 -1.38,1.24 -1.6,2.67 -0.2,1.29 0.33,2.44 0.86,3.23 1.63,2.41 5.07,2.22 5.91,1.65 0.8,-0.94 2.21,-2.54 2.13,-4.22 -0.7,-0.39 -0.39,-0.61 -0.67,-1.27 -0.68,-0.04 -0.83,0.64 -1.47,-0.17 -1.1,-1.37 1.14,-2.44 3.4,-2.47 1.9,-0.03 4.86,0.8 3.68,2.37 -0.46,0.62 -0.51,0.24 -1.24,0.28 -0.34,0.59 -0.22,0.79 -0.78,1.27 -0.07,0.92 -0.07,1.91 0.36,2.54 0.39,0.57 1.02,0.88 1.33,1.5 2.52,0.56 4.37,-0.17 5.39,-2.54 0.97,-2.25 -0.34,-4.7 -1.41,-5.95 0.6,0.27 1.51,1.58 1.9,2.53 0.7,1.68 0.19,2.25 0.05,3.78 0.21,0.23 -0.17,0.24 0.53,0.11 0.07,-0.01 0.36,-0.13 0.47,-0.17 2.84,-0.97 3,-0.82 5.54,-3.63 1.45,-1.6 3.62,-3.67 3.59,-6.92 0.08,-1.18 -1.14,-4.47 -1.68,-5.31 -0.57,-0.89 -0.95,-1.1 -1.78,-1.74 -1.49,-1.15 -1.22,-3.06 -3.38,-3.66 -1.13,-0.32 -1.63,-0.52 -1.97,-1.5 -0.41,-1.16 -0.07,-5.19 0.06,-6.61 0.38,-4.05 1.28,-7.98 2.6,-11.46 0.97,-2.55 2.88,-8.13 4.34,-9.66 0.12,-0.2 -0.07,-0.09 0.22,-0.3 0.24,0.26 0.06,0.12 0.23,0.37 0.17,0.23 0.18,0.17 0.26,0.34 0.27,0.53 -0.35,2.36 -0.54,2.85 -1.59,4.15 -2.41,6.28 -3.32,10.98 -1.15,5.95 -0.71,7.59 0.69,12.56 0.83,2.96 0.36,2.13 0.73,4.08 0.13,1.27 2.14,2.63 2.83,3.78 0.97,1.6 0.99,3.13 1.74,4.76 0.97,-0.24 2.22,-2.46 2.31,-3.99 0.06,-0.96 -0.12,-2.04 -0.17,-3.01 -0.23,-4.77 0.48,-10.01 0.88,-14.71 -0.99,-0.12 -2.63,0.13 -3.48,-0.28 -0.86,-0.42 -1.07,-1.82 -0.72,-2.89 0.37,-1.13 1.65,-0.78 2.78,-0.99 1.4,-0.26 1.11,-1.31 0.97,-2.69 -0.24,-2.31 -0.66,-4.13 -1.17,-6.33 -0.33,-1.43 -1,-4.67 -1.54,-5.85 -1.08,-2.37 -2.91,0.32 -4.06,1.44 -2.45,2.38 -4.52,5.62 -6.18,8.76 -0.44,0.84 -2.3,4.34 -2.35,5.01z"/>
   <path class="fil2" d="M56.86 105.28c-0.68,0.01 -0.97,0.29 -1.35,0.59 -0.42,1.25 -1.8,4.11 -2.6,4.5 0.15,-0.77 2.04,-3.21 2.59,-7.33 0.37,-2.73 0.41,-6.54 -0.06,-9.21 -0.35,-2.01 -1.37,-6.24 -2.1,-7.82 -0.45,-0.97 -1.48,-1.96 -2.14,-2.76 -0.74,-0.89 -1.35,-1.93 -2.12,-2.86 -0.66,-0.09 -0.98,0.15 -1.29,0.5 -3.12,3.46 -1.78,5.85 -1.34,10.51 0.22,2.35 0.33,4.63 0.33,7.06 0,1.29 -0.51,6.61 -0.35,7.17 0.52,0.58 1.05,0.91 1.77,1.35 0.67,0.41 1.62,0.66 2.12,1.17l-1.1 -0.26c-0.36,0.51 -0.12,1.79 -0.17,2.5 -0.06,0.8 -0.36,1.8 -0.27,2.5 -0.38,-0.09 -0.69,-0.35 -1.02,-0.59l-0.17 -0.14c-0.32,-0.34 -1.4,-0.99 -1.86,-1.33 -3.61,-2.7 -3.27,-4.4 -4.23,-5.59 -0.18,-0.27 -0.19,-0.23 -0.16,-0.62l-0.34 0.05 -0.42 0.33c0.04,1.33 1.2,4.06 1.76,5.21 2.26,4.64 1.22,2.17 2.46,3.68 0.05,0.06 0.18,0.23 0.22,0.3 0.21,0.38 0.04,-0.19 0.15,0.41 0.51,1.62 5.67,6.69 7.27,4.23 2.31,-3.57 3.95,-2.16 5.12,-3.54 0.51,-0.6 0.9,-2.36 1.03,-3.36 0.2,-1.5 0.06,-2.33 -0.43,-3.61 -0.24,-0.63 -0.89,-2.62 -1.29,-3z"/>
   <path class="fil2" d="M22.56 94.83c0.71,2.03 -0.4,10.89 -1.95,10.85 0.03,-0.49 1.12,-2.8 1.42,-4.98 0.14,-1.04 0.12,-2.05 0.13,-3.12 0.01,-0.44 0.02,-2.17 0.21,-2.56 0.14,-0.28 -0.04,-0.04 0.18,-0.19zm2.25 -13.14c-0.8,0.58 -2.08,2.63 -2.85,3.61 -1.25,1.58 -1.38,2.66 -1.2,5.15 0.23,3.06 0.33,6.23 -0.22,9.26 -0.13,0.72 -0.5,2.1 -0.51,2.7 -0.24,1.54 -1.51,3.11 -1.89,2.86 -0.42,-0.5 0.14,-4.2 0.17,-5.18l-0.01 -4.27c-0.13,-1.19 -0.41,-0.77 -0.5,-0.75 -0.25,0.16 -2.11,3.11 -2.41,3.63 -1.32,2.24 -3.65,6.46 -2.24,9.04 0.35,0.65 0.75,1.24 1.16,1.86 0.42,0.63 0.91,1.1 1.28,1.7 0.6,0.57 0.21,1.24 1.59,1.95 0.33,0.17 0.96,0.4 1.37,0.4 0.49,-0 0.79,-0.36 1.19,-0.58 1.27,-0.53 2.06,-0.89 3.59,-1.26 2.61,-0.63 4.76,-1.32 6.78,-3.04 0.44,-0.38 0.86,-0.82 1.24,-1.28 0.2,-0.24 0.33,-0.45 0.53,-0.73 0.26,-0.38 0.2,-0.42 0.55,-0.49 -0.78,2.17 -4.29,4.4 -4.34,4.48 -0.08,0.31 -0.12,0.09 0.01,0.29l0.63 -0.19c1.28,-0.05 4.59,-2.77 5.39,-3.45 -0.07,-1.84 -3.2,-4.83 -4.17,-5.68 -2.76,-2.41 -2.53,-2.87 -2.06,-7.02 0.34,-2.97 0.49,-5.82 0.91,-8.68 0.29,-2.02 0.17,-4.16 -2.19,-4.82 -0.32,-0.09 -0.74,-0.15 -1.09,-0.02 -0.32,0.12 -0.45,0.36 -0.7,0.5z"/>
   <path class="fil3" d="M24.81 81.69c0.26,-0.14 0.38,-0.38 0.7,-0.5 0.35,-0.13 0.78,-0.07 1.09,0.02 2.36,0.66 2.48,2.8 2.19,4.82 -0.41,2.86 -0.57,5.71 -0.91,8.68 -0.47,4.15 -0.71,4.61 2.06,7.02 0.97,0.84 4.09,3.83 4.17,5.68l0.43 -0.36c0.18,-0.17 0.14,-0.13 0.29,-0.33 0.32,-0.45 0.16,-0.47 0.67,-0.63 -0.22,1.02 -2.02,2.53 -2.86,3.08 -0.98,0.65 -2.57,1.53 -3.81,2.02 -0.19,-0.18 -0.26,0.31 -0.11,-0.33l-0.63 0.19c-0.13,-0.21 -0.09,0.01 -0.01,-0.29 -2.23,0.73 -1.39,0.69 -4.29,1.36l-3.77 1.01c-0.44,0.12 -0.23,0.14 -0.27,-0.06 -0.41,0.21 -0.7,0.58 -1.19,0.58 -0.41,0 -1.04,-0.23 -1.37,-0.4 -1.38,-0.72 -0.99,-1.39 -1.59,-1.95l-0.06 0.27c-0.46,-0.46 -0.81,-0.69 -1.2,-1.12 -0.38,-0.41 -0.67,-1.05 -1.05,-1.28 -0.38,0.91 -0.14,3.01 0.28,3.81 0.55,1.07 1.26,1.54 2.17,2.23 3.38,2.57 2.69,1.3 6.22,2.45l-0.6 0.08c-0.45,-0.06 -0.76,-0.28 -1.67,-0.22 0.26,0.69 1.38,1.14 2.34,1.33 0.97,0.19 2.32,0.19 3.37,0.25 1.18,0.07 2.13,0.14 3.14,-0.35 0.75,-0.36 1.55,-1.2 2.23,-1.37 -0.25,0.83 -1.07,0.83 -1.49,1.61 1.58,0.01 2.18,-0.3 3.14,-1.13 0.83,-0.72 1.42,-1.05 2.2,-1.82 1.16,-1.15 1.5,-1.24 1.74,-2.44 0.18,-0.91 0.6,-2.74 0.15,-3.57 -0.53,0.65 -0.84,2.52 -1.54,2.79 0.59,-1.83 0.58,-0.68 1.26,-3.97 0.5,-2.41 0.34,-1.87 -0.72,-2.85 -0.23,-0.22 -0.39,-0.4 -0.62,-0.64 -0.47,-0.49 -0.87,-0.96 -1.34,-1.41 -0.47,-0.45 -0.81,-0.89 -1.27,-1.38 -2.67,-2.84 -3.76,-2.46 -2.87,-7.32 0.43,-2.35 1.81,-13.26 1.52,-14.43 -0.77,-0.24 -1.66,-0.24 -2.5,-0.41 -0.91,-0.19 -1.25,-0.56 -1.98,-0.75 -0.68,0.36 -1.32,1.29 -1.64,2.06z"/>
   <path class="fil4" d="M23.83 66.89l0.01 0.45 -1.51 0.67 -0.31 -0.45c0.14,1.75 -0.47,1.41 -1.36,2.03 0.24,0.37 0.32,0.3 0.62,0.65 0.28,0.33 0.26,0.46 0.66,0.71 0.48,-0.43 1.33,-1.06 2.31,-1.08l-0.7 0.45c0.21,0.76 2.67,3.97 3.28,4.39l1.61 -0.14c-0.39,-1.11 -1.86,-2.64 -2.03,-4.13 0.53,0.15 1.45,0.97 2.21,1.38 2.49,1.36 5.87,1.7 8.75,1.79 3.04,0.09 6.27,-0.36 9.04,-1.48 0.73,-0.29 1.93,-0.88 2.6,-0.99 -0.03,1.01 -1.79,2.6 -1.96,3.82 1.22,-0.28 1.31,-0.41 1.98,-1.1 1.48,-1.52 2.18,-2.27 3.05,-4.36 0.18,-0.44 0.18,-0.62 0.49,-0.93 0,0.64 -0.07,0.89 -0.37,1.39 0.72,0.14 0.05,-0.08 0.66,0.37 0.01,-0.26 -0.08,-0.46 0.21,-0 0.22,0.35 0.15,0.24 0.17,0.69l0.62 0.31 0.16 0.55 0.24 0.03 0.37 -0c-0.37,-1.08 -1.41,-2.18 -1.74,-2.84 -0.7,-1.4 2.55,-4.65 4.02,-4.29 0.65,0.16 1.42,1.04 1.83,1.56l0.5 0.59c-0.51,-1.53 -1.17,-2.97 -2.15,-3.84 -0.79,0.34 -1.6,1.7 -3.06,2.72 -8.94,6.25 -21.31,7.29 -30.18,1.11z"/>
   <path class="fil3" d="M45.17 114.56c-0.12,-0.59 0.05,-0.02 -0.15,-0.41 -0.03,-0.06 -0.17,-0.23 -0.22,-0.3 -1.24,-1.51 -0.2,0.96 -2.46,-3.68 -0.56,-1.16 -1.72,-3.88 -1.76,-5.21 -0.56,0.33 -1.95,1.97 -2.47,2.39 -0.6,0.49 -0.43,0.09 -1.04,0.09 -0.13,0.71 -0.02,2.57 -0.04,3.43 -0.1,5 -1.56,4.5 2.89,7.37 1.37,0.89 2.97,1.94 4.44,2.72 0.61,0.32 2.18,0.75 2.95,0.48 0.56,-0.2 1.77,-1.21 1.83,-1.74 -1.35,-0.19 -2.47,0.1 -3.87,-0.43 -0.67,-0.25 -2.2,-1.2 -2.45,-1.71 1,0.16 1.6,1.86 5.9,1.74 -0.15,-0.37 -0.14,-0.32 -0.49,-0.59 -0.73,-0.57 -0.95,-0.71 -1.68,-1.58 -0.3,-0.35 -1.63,-2.13 -1.37,-2.58z"/>
   <path class="fil3" d="M46.42 105.62c-0.16,-0.56 0.35,-5.87 0.35,-7.17 -0,-2.43 -0.1,-4.71 -0.33,-7.06 -0.45,-4.66 -1.78,-7.05 1.34,-10.51 0.32,-0.35 0.64,-0.59 1.29,-0.5l-0.65 -1.14c-0.15,-0.01 -4.83,1.03 -5.02,1.12 -0.1,0.16 -0.05,-0 -0.08,0.27l1.25 13.43c0.49,5.54 1.23,5.76 -1.68,8.65l-1.89 1.92 0.34 -0.05c-0.03,0.39 -0.03,0.35 0.16,0.62 -0.02,-1.02 -0.08,0.22 0,-0.33l0.14 -0.19c0.48,0.54 0.92,1.53 1.29,2.14 0.46,0.77 0.92,1.33 1.43,1.96 0.98,1.21 2.17,2.35 3.54,3.23 -0.11,0.17 0.21,0.13 -0.31,0.12l0.17 0.14c0.33,0.24 0.64,0.51 1.02,0.59 -0.09,-0.7 0.21,-1.7 0.27,-2.5 0.05,-0.71 -0.19,-1.99 0.17,-2.5 -0.12,-0.1 0.02,-0.02 -0.25,-0.16l-1.35 -0.55c-1.76,-0.78 -3.35,-2.85 -2.96,-3.49 0.55,0.81 0.99,1.56 1.77,1.95z"/>
   <path class="fil1" d="M7.92 58.1c-0.15,-0.2 -1.42,-1.63 -0.47,-2.1 0.68,-0.33 0.62,0.21 0.48,0.61 -0.28,0.77 0.01,0.86 -0.01,1.49zm1.25 0.84c-0.01,0.88 1.73,1.68 1.51,3.72 -0.08,0.7 -0.41,1.43 -0.51,2.18 -0.17,1.16 -0.47,1.94 -0.36,2.37 0.12,0.21 0.08,0.19 0.29,0.3 0.04,0.03 0.14,0.06 0.11,0.07l0.29 0.17c1.94,-0.44 2.02,0.23 3.11,-0.2 0.51,-0.21 0.53,-0.44 1.11,-0.66 0.5,-0.19 1.1,-0.17 1.57,-0.05 0.93,0.24 1.71,0.76 2.53,1.07 1.27,0.48 2.13,-0.08 1.8,-1.48 -1.56,-0.91 -2.24,-1.02 -3.24,-2.34 -1.32,-1.74 -2.58,-0.96 -3.73,-1.79 -0.34,-0.45 -0.42,-2.01 -0.56,-2.72 -0.49,-2.46 -1.66,-4.57 -4.63,-4.92 -3.37,-0.4 -4.54,3.58 -1.26,4.44 1.15,0.3 1.46,-0.41 2.05,-0.89l-0.08 0.72z"/>
   <path class="fil1" d="M61.63 109.36l0.08 0.41c0.95,-0.03 1.86,-0.56 2.52,-1.02 3.67,-2.54 2.29,-8.36 5.17,-11.91 1.08,-1.33 2.43,-2.04 4.66,-2.16 0.35,-0.04 1.71,-0.47 1.98,-0.73 0.31,-0.92 -1.29,-1.57 -2.4,-1.6 -3.27,-0.09 -6.63,2.46 -7.8,4.69 -2.07,3.95 -0.83,8.76 -3.19,11.24 -0.39,0.41 -0.89,0.65 -1.01,1.06z"/>
   <path class="fil4" d="M55.97 3.17c0.16,0.41 -0.42,1.17 -0.59,1.61 -1.14,2.96 -3.78,11.33 -4.37,13.93 -0.61,2.67 -1.12,6.38 -1.24,9.22 -0.17,3.99 1.79,3.44 3.34,4.59 0.47,0.35 0.6,1.12 1.14,1.54 -0.37,-1.95 0.1,-1.12 -0.73,-4.08 -1.4,-4.97 -1.84,-6.61 -0.69,-12.56 0.91,-4.7 1.74,-6.84 3.32,-10.98 0.19,-0.49 0.8,-2.32 0.54,-2.85 -0.09,-0.18 -0.1,-0.11 -0.26,-0.34 -0.18,-0.24 0,-0.1 -0.23,-0.37 -0.29,0.2 -0.1,0.1 -0.22,0.3z"/>
   <path class="fil5" d="M55.64 130.39c-0.69,-0.09 -1.57,0.86 -3.6,1.18 -1.26,0.2 -3.8,0.04 -2.32,1.72 1.82,2.06 7.1,2.14 7.42,2.38 1.14,-0.17 4.45,0.27 5.14,-0.54 0.29,-1.12 -1.8,-2.55 -2.62,-2.98 -0.83,-0.44 -3.21,-1.59 -4.01,-1.75z"/>
   <path class="fil1" d="M42.89 80.51c-0.72,0.15 -0.49,0.81 -0.42,1.58l0.49 5.7c0.13,2.38 0.51,4.92 0.64,7.39 0.19,3.65 0.32,4.43 -1.67,6.57 -0.48,0.52 -3.75,3.63 -4.64,3.46 -0.97,-0.18 -3.98,-3.22 -4.51,-3.79 -2.57,-2.77 -2.44,-2.18 -2.11,-5.67 0.24,-2.59 0.53,-5.02 0.7,-7.59 0.09,-1.31 0.19,-2.53 0.29,-3.87 0.09,-1.16 0.51,-3.23 -0.06,-3.55 -0.4,0.22 -0.29,0.47 -0.29,1.01 -0.03,2.49 -0.21,4.91 -0.51,7.39 -0.32,2.64 -0.85,5.27 -1.18,7.83 -0.23,1.78 0.22,2.69 1.1,3.49 1.29,1.17 5.81,6.26 6.9,6.69l4.65 -4.3c2.18,-2.2 2.56,-2.01 2.13,-6.14l-1.5 -16.2z"/>
   <path class="fil3" d="M55.51 105.87c0.37,-0.3 0.66,-0.58 1.35,-0.59l0.01 -0.23c0.65,0.74 1.41,2.39 1.81,3.46 0.65,1.74 0.53,2.78 0.15,4.62 -0.35,1.71 -0.61,2.64 -2.09,3.2 -1.17,0.44 -3.15,0.87 -3.22,2.19 1.89,0.08 1.88,0.28 3.31,-0.59 2.97,-1.8 4.51,-2.91 4.23,-7.55 -0.25,-4.21 -1.21,-4.91 -3.13,-8.54 -0.27,-0.52 -0.96,-2.34 -1.51,-2.53 -0.16,0.41 -0.28,4.17 -0.93,6.55z"/>
   <path class="fil6" d="M41.88 81.49c-0.46,0.5 -0.66,1.48 -1.02,2.14 -0.33,0.62 -0.77,1.34 -1.14,2 -0.88,1.53 -1.52,2.8 -2.43,3.85 -0.72,0.84 -1.95,2.48 -3.95,2.4 -1.07,-0.04 -2.05,-1 -2.04,0.29 0.02,1.29 4.34,7.04 8.33,-0.74 0.45,-0.88 0.59,-1.05 0.92,-2.23 0.31,-1.12 1.96,-6.79 1.33,-7.72z"/>
   <path class="fil1" d="M28.43 74.56c3.55,-0.16 6.06,0.24 9.42,0.5 1.56,0.12 3.01,0.26 4.66,0.24 1.63,-0.03 2.97,-0.23 4.54,-0.34 0.17,-1.22 1.93,-2.8 1.96,-3.82 -0.67,0.11 -1.88,0.69 -2.6,0.99 -2.77,1.12 -6,1.57 -9.04,1.48 -2.88,-0.09 -6.26,-0.43 -8.75,-1.79 -0.76,-0.42 -1.69,-1.24 -2.21,-1.38 0.17,1.49 1.64,3.02 2.03,4.13z"/>
   <path class="fil1" d="M56.05 74.03c0.16,0.48 0.34,0.68 0.61,1.11 0.46,0.72 0.22,0.37 0.86,0.85l-0.25 0.17c-0.66,0.17 -2.17,1.29 -2.7,1.7 -0.06,0.74 0.6,1.85 0.98,2.02 0.45,0.32 1.43,-0.29 2.44,-0.69 2.36,-0.93 4.88,-2.13 5.07,-5.12 -0.04,-0.57 -1.3,-2.41 -1.58,-3.12 -0.52,0.15 -0.91,0.6 -1.29,0.89 -1.15,0.89 -2.76,1.71 -4.15,2.19z"/>
   <path class="fil4" d="M24.86 8.48c0.19,0.75 1.83,3.66 2.38,4.73 0.73,1.41 1.6,3.35 2.19,4.96 0.6,1.65 1.29,3.52 1.69,5.3 0.29,1.27 1.07,5.42 0.49,6.59l2.99 -0.75c0.03,-1.45 -0.87,-5 -1.31,-6.35 -1.73,-5.28 -3.63,-8.11 -6.72,-12.37l-1.2 -1.68c-0.26,-0.33 -0.21,-0.26 -0.52,-0.44z"/>
   <path class="fil2" d="M41.69 76.14l0.58 -0.21c0.32,-0.09 0.37,0.04 0.39,-0.14 -0.32,-0.25 -3.32,-0.16 -4.04,-0.2 -4.52,-0.22 -4.78,-0.65 -10.16,-0.51 -1.04,0.03 -1.51,-0.12 -1.86,0.32 -0.35,0.41 0.02,0.68 0.09,1 0.14,0.57 -0.14,0.53 -0.1,1.22 1.46,0.86 3.49,0.49 5.36,0.69 1.71,0.18 3.52,0.71 5.29,0.74 2.44,0.04 5.66,-0.52 8.03,-1.03 0.48,-0.1 1.89,-0.41 2.27,-0.77 -0.87,-0.45 -6.95,1.07 -8.41,1.21 -1.91,0.19 -7.55,-0.57 -8.28,-1.73 0.97,0.04 1.63,0.27 2.76,0.2 2.69,-0.18 4.3,-0.8 8.08,-0.78z"/>
   <path class="fil1" d="M59.22 66.9l-0.5 -0.59c-0.41,-0.51 -1.18,-1.4 -1.83,-1.56 -1.47,-0.35 -4.72,2.89 -4.02,4.29 0.33,0.67 1.37,1.76 1.74,2.84 0.7,0.4 2.57,-0.55 3.26,-0.85 0.37,-0.16 1.17,-0.61 1.44,-0.82 0.38,-0.29 0.62,-0.9 0.55,-1.6l-0.64 -1.71z"/>
   <path class="fil7" d="M50.77 66.58c-0.44,-0.08 -3.48,1.77 -5.75,2.38 -2.4,0.64 -4.86,0.9 -7.57,0.68 -4.49,-0.37 -7.64,-1.15 -11.39,-3.3 -0.44,-0.25 -0.88,-0.58 -1.33,-0.77 -0.64,-0.08 -0.96,0.29 -0.89,0.91 3.34,2.52 8.04,4.23 13.27,4.3 2.46,0.03 5.57,-0.5 7.8,-1.06 1.19,-0.3 5.51,-1.84 6.14,-2.5l0.2 -0.32c0.13,-0.42 -0.08,-0.4 -0.49,-0.32z"/>
   <path class="fil8" d="M17.55 128.77c-0.16,0.19 -0.07,0.03 -0.14,0.31 -0.15,0.62 0.04,-0.36 -0.03,0.23 -0.02,0.18 0.03,0.3 -0.03,0.64 1.2,0.09 0.4,0.4 2.57,0.88 0.82,0.18 2.39,0.3 2.99,0.51 -0.83,1.87 -9.53,3.75 -10.95,1.98l-0.36 0.35c-0.35,0.39 -0.49,0.55 -0.42,1.01 1.33,0.64 12.57,-0.03 14.34,-0.91 0.85,-0.42 1.01,-0.44 1.09,-1.57 0.13,-1.79 -0.2,-0.85 0.73,-2.02 -1.77,0.56 -3.53,0.79 -5.56,0.55 -1.57,-0.18 -4.14,-0.47 -4.21,-1.97z"/>
   <path class="fil9" d="M40.32 60.49c-2.52,0.63 -5.16,0.73 -7.71,0.28 -1.18,-0.21 -2.21,-1.01 -3.13,0.03 0.41,1.44 5.73,2.07 7.5,2.14 1.63,0.06 2.97,-0.06 4.44,-0.46 1.04,-0.28 2.72,-0.86 3.08,-1.68 -0.22,-0.68 -0.54,-0.5 -0.83,-1.31 -0.72,0.04 -2.44,0.77 -3.37,1z"/>
   <path class="fil10" d="M41.97 59.52c0.73,-0.23 3.13,-0.63 2.42,-2.25 -0.68,-0.05 -5.22,3.35 -11.28,0.63 -1.07,-0.48 -2.63,-1.52 -3.16,-1.49 -0.52,0.67 -0.57,1.65 -0.43,2.72 1.4,1.18 6.15,1.49 8.45,1.26 1.52,-0.15 2.58,-0.43 3.99,-0.86z"/>
   <path class="fil4" d="M20.98 14.01c-0.15,1.21 0.5,3.93 0.74,5.2 0.31,1.65 0.59,3.48 0.77,5.08 0.47,4.05 0.58,7.09 -1.01,10.42 1.7,-0.7 2.79,-1.76 3.05,-3.93 0.46,-3.91 -1.56,-10.34 -2.64,-14.26 -0.12,-0.42 -0.27,-0.93 -0.4,-1.35 -0.07,-0.23 -0.13,-0.43 -0.22,-0.65l-0.3 -0.52z"/>
   <path class="fil5" d="M17.35 129.96c-1.2,0.4 -2.11,0.77 -3.06,1.39 -0.63,0.41 -2.06,1.46 -2.33,1.98 1.42,1.77 10.12,-0.11 10.95,-1.98 -0.6,-0.21 -2.16,-0.33 -2.99,-0.51 -2.17,-0.48 -1.37,-0.79 -2.57,-0.88z"/>
   <path class="fil4" d="M61.63 109.36l-0.14 3.52c1.86,0.01 4.07,-1.86 4.86,-2.76 2.51,-2.85 0.14,-8.35 2.82,-12.49 1.47,-2.26 2.78,-2.32 4.53,-2.79l0.35 -0.15c-2.23,0.11 -3.58,0.83 -4.66,2.16 -2.88,3.55 -1.49,9.37 -5.17,11.91 -0.66,0.46 -1.57,0.99 -2.52,1.02l-0.08 -0.41z"/>
   <path class="fil3" d="M37.37 80.36c3.04,0 7.86,-0.45 10.56,-1.52l-0.15 -0.95c-0.37,-0.07 -7.16,1.67 -10.17,1.58 -2.58,-0.07 -4.68,-0.78 -8.03,-0.85 -1.14,-0.02 -1.71,-0.17 -2.68,-0.28l-0.31 0.78c0.33,0.31 0.44,0.36 0.94,0.52 2.17,0.71 7.57,0.71 9.83,0.71z"/>
   <path class="fil4" d="M18.37 71.45c-0.27,0.67 -2.74,2.46 -3.55,2.95 -0.79,0.48 -1.36,0.83 -2.5,0.62 -0.75,-0.14 -1.69,-0.59 -1.84,-1.37l-1.16 0.13 -0.02 -0.28 -1.28 -0.27c1.11,1.14 0.38,0.39 1.11,1.38 0.83,1.11 2.97,3.11 4.55,2.66 0.74,-0.21 5.41,-3.4 5.86,-3.91 -0.13,-0.57 -0.71,-1.5 -1.17,-1.9z"/>
   <path class="fil1" d="M14.78 68.83l-0.63 -0.07c-0.21,0.45 -0.01,0.64 0.04,0.87 0.38,2.09 -1.96,3.79 -3.7,4.01 0.14,0.79 1.09,1.23 1.84,1.37 1.13,0.21 1.71,-0.14 2.5,-0.62 0.81,-0.49 3.28,-2.27 3.55,-2.95 -0.5,-1.23 -2.62,-1.77 -3.6,-2.62z"/>
   <path class="fil4" d="M34.32 40.2c0.28,0.55 0.59,0.82 0.87,1.47 0.25,0.6 0.41,1.25 0.46,2 -0.01,-0.01 -0.31,-0.15 -0.34,-0.17 0.19,0.56 0.38,0.76 0.37,1.4 0.69,-0.08 0.33,-0.07 0.42,0.23 1.54,-0.84 3.65,-0.54 4.96,0.12l0.2 -0.12c-0.6,-0.42 -0.88,-0.29 -0.99,-1.12 -0.08,-0.6 -0.08,-1.2 -0.07,-1.85 -0.08,0.09 -0.18,-0 -0.19,0.7 -0,0.28 0.03,0.56 0.06,0.84 -1.82,-1.11 0.67,-3.54 1.08,-4.46 -0.91,0.34 -2.15,0.68 -3.08,0.95 -1.31,0.38 -2.42,0.07 -3.75,0.03z"/>
   <path class="fil3" d="M17.8 95.06c0.08,-0.02 0.37,-0.44 0.5,0.75l0.01 4.27c-0.03,0.98 -0.59,4.68 -0.17,5.18 0.38,0.26 1.64,-1.31 1.89,-2.86 -0.19,0.11 -0.13,0.09 -0.18,0.06 -0.16,-1.55 0.35,-3.54 0.38,-5.27 0.03,-1.58 0.15,-4.11 -0.19,-5.52 -0.52,0.07 -0.44,0.13 -0.72,0.66 -0.53,1.02 -1.14,1.67 -1.53,2.72z"/>
   <path class="fil4" d="M17.74 41.13c-0.71,0.39 -1.11,1.43 -1.12,2.48 -0.03,2.28 2.01,5.28 3.06,7.26 1.29,2.44 5.75,4.81 8.52,4.6l0.68 -0.19c-0.18,-0.6 -0.03,-0.19 -0.31,-0.4 0.14,0.4 0.14,0.18 -0,0.38 -2.12,-0.01 -3.2,-1.03 -4.34,-1.92 -1.01,-0.79 -2.32,-2.15 -3.12,-3.15 -1.33,-1.67 -4.55,-6.68 -3.38,-9.06z"/>
   <path class="fil4" d="M63.06 74.07c-0.18,2.99 -2.71,4.19 -5.07,5.12 -1.01,0.4 -1.98,1.02 -2.44,0.69 0.48,0.98 1.76,1.84 2.84,1.48 0.92,-0.31 2.58,-0.82 3.29,-1.25 0.96,-0.59 2.28,-0.93 2.29,-2.23 0.01,-1.06 -0.1,-2.47 -0.61,-3.41l-0.3 -0.4z"/>
   <path class="fil6" d="M40.24 91.07c-0.33,0.25 -0.99,1.8 -1.32,2.29 -0.46,0.67 -1.06,1.36 -1.69,1.82 -0.64,0.47 -1.7,0.8 -2.77,0.56 -1.12,-0.26 -1.45,-1.16 -2.23,-1.33 -0.01,0.91 0.11,0.58 0.6,1.07 0.21,0.21 0.47,0.55 0.7,0.8 2.73,2.85 4.7,-1.4 5.63,-1.85 -0.1,0.43 -1.14,1.73 -1.43,2.01 -3.01,2.95 -4.98,-0.58 -5.88,-1.63 -0.25,0.69 1.5,2.73 1.85,3.18 0.81,1.06 2.14,1.73 3.65,0.58 1.85,-1.42 2.13,-4.67 2.43,-5.5 0.23,-0.62 0.54,-1.21 0.46,-2z"/>
   <path class="fil5" d="M22.24 125.43l-0.13 -5.15 -0.09 -0.15 0.08 4.51 -0.39 -0.71c-1.36,-0.07 -2.39,0.52 -2.58,1.76 -0.02,1.9 -0.03,2.8 2.58,3.24 3.96,0.67 2.75,-2.4 2.63,-2.51 -0.62,-0.38 -2.39,-0.31 -2.75,-1.05l0.65 0.06z"/>
   <path class="fil4" d="M20.63 66.43c0.33,1.39 -0.53,1.96 -1.8,1.48 -0.82,-0.31 -1.6,-0.83 -2.53,-1.07 -0.47,-0.12 -1.07,-0.14 -1.57,0.05 -0.57,0.22 -0.6,0.45 -1.11,0.66 -1.08,0.44 -1.16,-0.23 -3.11,0.2l-0.29 -0.17c0.02,-0.01 -0.08,-0.05 -0.11,-0.07l-0 0.29 -0.18 -0.04 0.18 0.32c-0.64,0.73 -1.82,1.79 -3.37,1.25 -0.76,-0.27 -2.24,-1.53 -1.91,-2.72 -0.93,0.48 -0.81,1.19 -0.22,2.24 1.48,2.63 5.09,1.37 6.3,-0.12 0.99,-1.22 -0.56,0.36 0.37,-0.46 0.16,0.18 0.21,-0.21 0.11,0.26l0.41 0.04c0.38,-0.17 1.13,0.07 1.69,-0.04 0.53,-0.1 0.91,-0.42 1.35,-0.64 1.18,-0.59 2.08,0.02 3.01,0.52 2.84,1.54 4.89,-0.13 3.34,-1.58 -0.25,-0.23 -0.27,-0.25 -0.55,-0.4z"/>
   <path class="fil2" d="M45.11 60.93c0.02,0.02 0.09,0.05 0.07,0.06l5.44 2.49c0.29,0.17 0.58,0.32 0.85,0.52 0.93,0.68 0.91,0.84 2.13,-0.51 0.35,-0.39 0.81,-0.78 0.88,-1.49 -1.27,-0.42 -8.36,-2.94 -9.37,-1.08z"/>
   <path class="fil11" d="M35.35 49.54c0.66,-1.51 5.52,-1.22 6.39,-0.03 -0.21,0.16 0.11,0.07 -0.25,0.08 -0.17,0.01 -0.22,-0.02 -0.35,-0.06 -0.36,-0.1 -0.47,-0.17 -0.89,-0.16 -0.58,0.01 -1.14,0.33 -1.57,0.43 -0.82,0.19 -0.88,-0.1 -1.55,-0.3 -0.86,-0.27 -1.02,0.08 -1.78,0.04zm1.77 2.3c1.62,0.77 1.36,0.5 2.92,0.01 0.55,-0.48 0.44,-0.68 0.78,-1.27 0.73,-0.03 0.77,0.34 1.24,-0.28 1.18,-1.57 -1.78,-2.39 -3.68,-2.37 -2.26,0.03 -4.5,1.1 -3.4,2.47 0.65,0.81 0.79,0.13 1.47,0.17 0.28,0.66 -0.03,0.89 0.67,1.27z"/>
   <path class="fil10" d="M54.93 128.07c-0.92,-0.17 -0.94,1.17 -4.25,1.78 -2.92,0.53 -3.89,-0.94 -4.74,-1 -0.38,0.32 -0.85,0.6 -0.71,1.35 0.13,0.69 0.66,0.69 1.07,0.98 2.34,0.33 2.6,0.35 4.98,0.02 0.8,-0.11 1.57,-0.23 2.3,-0.45 0.93,-0.28 1.23,-0.69 1.81,-1 0.54,-1.32 0.32,-0.74 -0.46,-1.67z"/>
   <path class="fil10" d="M18.58 127.76c-0.57,0.31 -0.65,0.66 -1.03,1.01 0.07,1.5 2.64,1.78 4.21,1.97 2.04,0.24 3.79,0.01 5.56,-0.55l0.13 -0.16 0.04 -1.67c-1.21,0.2 -4.54,1.74 -7.23,0.5 -0.64,-0.3 -1.09,-0.98 -1.69,-1.1z"/>
   <path class="fil10" d="M62.61 16.92c-0.71,-1.81 -0.85,0.23 -2.91,0.31 -0.91,0.04 -1.32,-0.01 -1.66,0.61 -0.27,0.49 -0.25,1.43 0.02,1.95 0.47,0.92 2.38,0.86 3.64,0.6 0.73,-0.15 0.99,-0.47 1.06,-1.23 0.07,-0.72 0.1,-1.61 -0.15,-2.23z"/>
   <path class="fil3" d="M42.66 75.79c-0.02,0.19 -0.07,0.05 -0.39,0.14l-0.58 0.21 1.14 -0.06c-0.14,0.11 -0.08,0.08 -0.31,0.17 -0.31,0.12 -7.05,0.73 -8.56,1.09 0.26,0.3 -0.28,0.04 0.43,0.29 0.06,0.02 0.34,0.06 0.42,0.08 4.73,0.7 5.17,0.08 9.74,-0.69 1.32,-0.22 2.37,-0.19 3.71,-0.31 0.09,-0.51 -0.14,-1 -0.27,-1.39 -0.99,0.04 -1.87,0.26 -2.78,0.46 -0.4,0.09 -1.71,0.46 -2.06,0.38 -0.34,-0.07 -0.37,-0.27 -0.49,-0.37z"/>
   <path class="fil1" d="M22.11 120.28l0.13 5.15c0.5,0.22 1.15,0.38 1.81,0.44 0.5,-0.75 2.01,-3.91 1.94,-5.12 -0.62,-0.12 -1.36,0.01 -2.06,-0.08 -0.76,-0.09 -1.12,-0.27 -1.82,-0.4z"/>
   <path class="fil4" d="M44.1 29.82c-1,-1.93 1.89,-10.25 2,-12.77l-0.41 0.62c-0.09,0.19 -0.24,0.49 -0.33,0.69 -0.19,0.41 -0.42,0.93 -0.61,1.39 -0.42,0.98 -0.72,1.91 -1.09,2.94 -0.58,1.63 -1.74,4.59 -1.65,6.48l2.09 0.65z"/>
   <path class="fil8" d="M55.64 130.39c-0.15,-0.27 -0.23,-0.32 -0.25,-0.65 -0.58,0.31 -0.88,0.72 -1.81,1 -0.73,0.22 -1.5,0.34 -2.3,0.45 -2.38,0.33 -2.64,0.31 -4.98,-0.02 0.42,1.06 0.15,2.08 1.13,2.77 0.6,0.42 2.02,0.81 2.86,1.03 1.49,0.38 5.31,1.04 6.84,0.7 -0.32,-0.23 -5.6,-0.31 -7.42,-2.38 -1.48,-1.68 1.06,-1.52 2.32,-1.72 2.04,-0.32 2.91,-1.27 3.6,-1.18z"/>
   <path class="fil4" d="M9.18 58.93c-0.66,0.65 -0.09,0.95 0.3,1.65 1.09,1.96 -0.26,3.4 -3.05,3.54 -0.56,1.15 -0.96,0.74 -1.41,1.89 0.81,-0.01 2.21,0.24 2.84,0.64l0.14 -0.31c1.04,0.06 1.11,0.48 1.82,0.85 -0.11,-0.43 0.19,-1.21 0.36,-2.37 0.11,-0.75 0.44,-1.48 0.51,-2.18 0.22,-2.04 -1.51,-2.84 -1.51,-3.72z"/>
   <path class="fil4" d="M22.02 120.12l0.09 0.15c0.7,0.13 1.06,0.31 1.82,0.4 0.69,0.08 1.44,-0.04 2.06,0.08 0.07,1.21 -1.44,4.37 -1.94,5.12 1.94,0.15 1.63,-0.68 2.55,-1.55l1.91 -4.85c-0.7,-0.06 -2.16,0.23 -3.19,0.2 -1.09,-0.03 -2.23,-0.19 -3.31,-0.19l0.02 0.64z"/>
   <path class="fil4" d="M46.73 124.59l1.16 2.11c0.61,0.07 1.65,0.14 2.07,-0.12l-0.43 0.02c-0.39,-1.08 -1.33,-2.35 -1.43,-3.63l2.63 -1.51c0.59,-0.32 0.45,-0.3 0.93,0.04l-0.1 -1.47 -1.77 -0.31c-0.84,1.2 -1.71,2.42 -4.03,2.2l0.97 2.66z"/>
   <path class="fil2" d="M43.05 68.94c0.73,0.1 2.71,-0.51 3.46,-0.85 0.08,-0.9 -2.71,-4.65 -3.3,-5.22 -0.49,-0.49 -1.23,-0.55 -1.05,0.39 0.12,0.62 0.31,1.03 0.42,1.71 0.22,1.35 0.33,2.57 0.46,3.97z"/>
   <path class="fil5" d="M51.69 123.15l-0.04 2.8c0.41,-0.3 0.23,-0.35 0.77,-0.51 -0.65,1.45 -1.92,1.07 -3.14,1.75 -0.08,0.48 -0.04,0.61 0.02,1.1l0.11 0.64c0.36,1.1 3.81,0.33 4.64,-1.67 0.02,-0.68 -0.06,-1.53 -0.39,-2.04 -0.39,-0.61 -0.9,-0.56 -1.75,-0.73l-0.21 -1.33z"/>
   <path class="fil8" d="M54.04 127.26c-0.83,2 -4.27,2.77 -4.64,1.67l-0.11 -0.64c-0.06,-0.48 -0.11,-0.61 -0.02,-1.1 1.22,-0.68 2.49,-0.3 3.14,-1.75 -0.53,0.16 -0.35,0.21 -0.77,0.51 -0.42,0.29 -1.07,0.57 -1.7,0.62 -0.42,0.26 -1.46,0.19 -2.07,0.12l-1.16 -2.11c0.14,1.41 -0.55,-0.09 -0.51,3.11 0,0.1 0,0.54 -0.01,0.61 -0,0.01 0.08,0.11 -0.26,0.53 0.85,0.07 1.82,1.54 4.74,1 3.31,-0.61 3.33,-1.94 4.25,-1.78 -0.19,-0.14 0.23,-0.35 -0.7,-0.16 -0,-0.02 -0.04,-0.33 -0.04,-0.34 -0.06,-0.2 -0.09,-0.21 -0.14,-0.31z"/>
   <path class="fil4" d="M57.79 43.11c0.03,3.25 -2.14,5.32 -3.59,6.92 -2.54,2.81 -2.69,2.66 -5.54,3.63 -0.11,0.04 -0.4,0.15 -0.47,0.17 -0.7,0.13 -0.32,0.12 -0.53,-0.11l-0.12 0.18c-0.02,0.02 -0.09,0.14 -0.11,0.17 -0.41,0.7 -0.55,0.72 -0.51,1.22 2.69,0.73 5.73,-2.43 7.4,-4.25 1,-1.08 1.67,-2 2.58,-3.31 0.87,-1.25 1.38,-2.23 1.09,-4.01 -0.02,-0.15 -0.02,-0.18 -0.07,-0.32 -0.11,-0.31 0,-0.1 -0.14,-0.28z"/>
   <path class="fil1" d="M49.95 126.58c0.63,-0.06 1.27,-0.33 1.7,-0.62l0.04 -2.8 -0.04 -1.65c-0.48,-0.34 -0.34,-0.36 -0.93,-0.04l-2.63 1.51c0.09,1.28 1.04,2.56 1.43,3.63l0.43 -0.02z"/>
   <path class="fil8" d="M26.6 124.32c-0.93,0.87 -0.61,1.7 -2.55,1.55 -0.66,-0.06 -1.31,-0.21 -1.81,-0.44l-0.65 -0.06c0.36,0.74 2.13,0.66 2.75,1.05 0.11,0.11 1.33,3.18 -2.63,2.51 -2.61,-0.44 -2.6,-1.33 -2.58,-3.24 -0.02,0.04 -0.04,0.08 -0.05,0.12l-0.11 0.37c-0.07,0.42 0.07,0.86 0.14,1.26 -0.03,0.01 -0.07,0.02 -0.08,0.03l-0.22 0.1c-0.18,0.1 -0.06,-0.02 -0.23,0.19 0.6,0.11 1.05,0.8 1.69,1.1 2.69,1.25 6.02,-0.3 7.23,-0.5l-0.04 1.67c0.23,-0.21 0.12,-0.04 0.23,-0.45 0.31,-1.15 -0.51,-1.38 -0.53,-2.38 -0.02,-1.08 0.4,-2.29 -0.66,-2.47l0.1 -0.41z"/>
   <path class="fil4" d="M40.04 51.85c-1.56,0.49 -1.3,0.76 -2.92,-0.01 0.08,1.68 -1.33,3.28 -2.13,4.22 1.21,-0.22 2.2,-0.83 3.38,-0.88 1.27,-0.05 2.24,0.37 3.36,0.71 -0.31,-0.62 -0.94,-0.93 -1.33,-1.5 -0.43,-0.63 -0.43,-1.61 -0.36,-2.54z"/>
   <path class="fil12" d="M13.75 68.71c-1.5,0.42 -0.68,0.91 -1.88,1.28 0.3,-0.42 0.64,-0.5 0.76,-1.17l-0.84 -0.25 -0.41 -0.04c-0.36,0.43 -0.52,0.81 -0.95,1.1 -0.05,0.04 -1.01,0.68 -0.77,0.77 0.02,0.01 -0.01,0.04 -0.02,0.06 -0.26,-0 -0.51,-0.01 -0.76,0.02 -0.66,0.08 -0.51,0.13 -0.57,0.19l1.78 -0.07 -0.26 1.54c0.87,-0.01 1.56,-0.14 2.16,-0.58 0.61,-0.44 0.68,-0.88 1.14,-1.32 -0.1,1.38 -1.72,2.36 -3.49,2.24l0.28 0.37c-0.07,0.25 -0.11,0.36 -0.18,0.56 0.96,0.01 2.59,-0.86 3.15,-1.33 0.95,-0.79 1.13,-1.77 0.87,-3.37z"/>
   <path class="fil1" d="M7.91 59.75c-0.45,-0.12 -1.08,-0.28 -1.51,-0.5 -0.54,-0.27 -0.73,-0.68 -1.17,-0.81 -1.3,1.04 -0.69,4.58 0.89,4.8 0.93,-0.18 1.5,-0.18 1.89,-0.92 0.39,-0.75 -0,-1.79 -0.1,-2.58z"/>
   <path class="fil2" d="M29.14 67.33c0.53,0.51 2.41,1.12 3.01,0.95 0.05,-0.98 0.05,-1.92 0.16,-2.9 0.09,-0.79 0.47,-1.81 0.25,-2.53 -0.27,-0.12 -0.59,-0.19 -0.99,-0.17 -0.47,0.66 -2.38,3.58 -2.43,4.64z"/>
   <path class="fil1" d="M9.92 67.76l-2.06 -1.11c-0.63,-0.39 -2.03,-0.64 -2.84,-0.64l-0.2 0.59c-0.33,1.18 1.15,2.45 1.91,2.72 1.55,0.54 2.73,-0.52 3.37,-1.25l-0.18 -0.32z"/>
   <path class="fil1" d="M22.02 67.55l0.31 0.45 1.51 -0.67 -0.01 -0.45c-1.3,-0.87 -4.62,-4.21 -4.79,-4.23 -0.54,0.12 -1.15,0.65 -1.4,1.16 0.2,0.81 1.51,1.47 2.31,1.84 1.06,0.49 1.74,0.89 2.07,1.89z"/>
   <path class="fil10" d="M53.29 41.98c-1.28,-0.16 -2.61,-0.03 -3.85,0.15 -1.52,0.23 -0.6,0.2 -1.06,0.97 -0.46,0.77 -0.94,-0.14 -1.06,-0.39 -0.79,0.12 -2.91,0.87 -3.43,1.27 0.12,0.1 0,0.05 0.25,0.14 0.93,0.32 4.39,-0.04 5.19,-0.23 0.95,-0.22 3.62,-1.32 3.96,-1.91z"/>
   <path class="fil13" d="M23.85 66.48c-0.07,-0.62 0.25,-0.99 0.89,-0.91l-1.3 -1.12c-0.5,-0.43 -0.68,-0.67 -1.13,-1.13 -2.04,-2.13 -1.41,-3.16 -3.36,-2.01 -0.08,0.86 1.52,2.31 2.1,2.89l2.8 2.28z"/>
   <path class="fil1" d="M41.64 56.41c-3.15,-1.37 -4.33,-0.62 -7.23,0.36 -0.11,0.26 0.07,0.29 -0.12,0.2 1.72,0.38 1.84,0.73 3.95,0.67 1.14,-0.03 2.89,-0.45 3.74,-0.97 -0.49,-0.14 -0.25,-0.17 -0.35,-0.26z"/>
   <path class="fil9" d="M41.64 56.41c0.1,0.09 -0.14,0.11 0.35,0.26 -0.85,0.52 -2.61,0.94 -3.74,0.97 -2.11,0.06 -2.23,-0.28 -3.95,-0.67 0.19,0.1 0.02,0.06 0.12,-0.2 -0.83,0.16 -1.47,-0.02 -2.29,0.06 0.43,0.83 4.86,1.7 6.24,1.65 1.67,-0.06 5.41,-0.94 5.91,-2.07 -1.24,0.14 -1.36,0.26 -2.64,0.01z"/>
   <path class="fil2" d="M27.08 63.07c0.35,-0.42 1.57,-1.71 1.71,-2.1 -1.34,0.06 -4.95,1.84 -5.51,2.6 0.12,0.53 0.56,0.8 0.87,1.04 0.33,0.26 0.75,0.6 1.17,0.7 0.62,-0.53 1.21,-1.58 1.76,-2.23z"/>
   <path class="fil10" d="M28.11 41.96c-1.19,-0.31 -3.58,-0.5 -4.92,-0.36 0.54,0.62 2.85,1.51 3.85,1.79 1.11,0.32 4.19,0.57 5.31,0.21 -0.16,-0.39 0.11,0.01 -0.16,-0.22l-2.21 -0.95c-0.86,-0.22 -0.41,0.37 -1.06,0.48 -0.64,0.11 -0.66,-0.5 -0.81,-0.96z"/>
   <path class="fil13" d="M50.77 66.58c0.41,-0.08 0.62,-0.1 0.49,0.32l-0.2 0.32c1.5,-0.55 5.97,-4.19 6.26,-5.16 -0.1,-0.57 -0.43,-0.94 -1,-1.05 -0.48,0.3 -0.79,1.01 -1.18,1.5 -1.75,2.17 -3.9,3.48 -4.36,4.07z"/>
   <path class="fil12" d="M59.86 68.61c0.07,0.7 -0.17,1.31 -0.55,1.6 -0.27,0.21 -1.07,0.66 -1.44,0.82 -0.7,0.31 -2.56,1.26 -3.26,0.85l-0.37 0c-0.33,0.83 -1.05,0 -1.87,-0.11 -0.03,1.57 1.23,2.37 2.56,2.23 0.44,-0.05 0.97,-0.15 1.3,-0.42l-0.54 0.05c-0.2,-0.31 -0.16,-0.35 -0.3,-0.61 -0.26,-0.47 -0.23,-0.16 -0.38,-0.74 4.01,-0.91 4.05,-1.71 4.95,-2.11 0.34,0.22 0.54,0.42 0.71,0.82l0.48 -0.36c0.18,-0.15 0.28,-0.27 0.44,-0.4 -0.15,-1.19 -0.9,-0.92 -1.72,-1.64z"/>
   <path class="fil1" d="M4.02 64.61c0.85,-0.03 1.01,-0.29 1.33,-0.98 -0.21,-0.44 -0.68,-0.75 -1.02,-1.54 -0.33,-0.76 -0.34,-1.48 -0.33,-2.34 -2.62,0.28 -1.91,4.49 0.02,4.86z"/>
   <path class="fil10" d="M56.23 73.59c1.51,-0.25 3.64,-1.8 4.44,-2.59 -0.17,-0.4 -0.37,-0.6 -0.71,-0.82 -0.9,0.41 -0.94,1.2 -4.95,2.11 0.15,0.57 0.12,0.26 0.38,0.74 0.14,0.26 0.11,0.3 0.3,0.61l0.54 -0.05z"/>
   <path class="fil10" d="M20.3 69.59c-0.22,-0.18 -1.25,-0.22 -1.65,-0.37 -0.5,-0.2 -0.97,-0.53 -1.46,-0.6 -0.52,0.06 -0.87,0.12 -0.99,0.61 0.39,0.34 1.33,0.93 1.71,1.24 0.45,0.37 0.97,1.02 1.32,1.49 0.62,-0.16 1.34,-0.8 1.8,-1.24 -0.06,-0.65 -0.28,-0.6 -0.74,-1.13z"/>
   <path class="fil4" d="M55.43 23.66c0.31,1.42 1.14,2.52 1.23,4.15 0.08,1.41 -0.57,3.14 -0.84,4.5 0.03,-0.03 0.11,-0.07 0.08,-0.09l0.66 -0.92c0.6,-0.82 1.37,-2.45 1.35,-3.5 -0.02,-0.93 -0.51,-1.67 -0.93,-2.3l-1.06 -1.31c-0.06,-0.08 -0.11,-0.14 -0.18,-0.21l-0.32 -0.32z"/>
   <path class="fil1" d="M1.24 65.95c1.31,0.56 2.14,0.47 2.57,-0.67 -1.3,-1.01 -1.39,-1.06 -1.94,-2.97 -1.14,0.44 -1.57,2.78 -0.63,3.64z"/>
   <path class="fil4" d="M17.25 33.31c-0.05,-1.87 -0.12,-2.84 0.29,-4.61 0.33,-1.44 0.95,-2.48 1.26,-3.76l-0.9 0.7c-1.17,1.73 -1.63,3.55 -1.5,5.66 0.03,0.52 0.11,1.26 0.46,1.68 0.26,0.32 0.16,0.18 0.39,0.32z"/>
   <path class="fil9" d="M35.35 49.54c0.77,0.05 0.93,-0.31 1.78,-0.04 0.67,0.21 0.73,0.49 1.55,0.3 0.43,-0.1 0.98,-0.42 1.57,-0.43 0.42,-0.01 0.53,0.06 0.89,0.16 0.14,0.04 0.18,0.07 0.35,0.06 0.36,-0.02 0.04,0.08 0.25,-0.08 -0.87,-1.2 -5.73,-1.48 -6.39,0.03z"/>
   <path class="fil10" d="M54.33 81.21l-0.23 -0.24c-0.53,-0.6 -0.36,-0.77 -0.8,-1.15 -0.63,0.17 -0.87,0.63 -1.39,0.95l0.02 0.53c0.14,0.56 0.53,1.01 0.97,1.28 0.73,0.04 1.28,-0.45 1.71,-0.68l-0.1 -0.41 -0.18 -0.29z"/>
   <path class="fil12" d="M20.66 69.58l-0.36 0.01c0.45,0.53 0.68,0.48 0.74,1.13 -0.46,0.44 -1.18,1.07 -1.8,1.24l0.71 1.25c0.63,-0.01 1.1,-0.28 1.47,-0.62 0.47,-0.43 0.55,-0.82 0.53,-1.64 -0.4,-0.25 -0.38,-0.38 -0.66,-0.71 -0.3,-0.35 -0.38,-0.28 -0.62,-0.65z"/>
   <path class="fil4" d="M7.91 59.75c0.1,0.79 0.49,1.83 0.1,2.58 -0.38,0.74 -0.95,0.74 -1.89,0.92l0.86 0.24c0.35,0.02 0.63,0.02 0.97,-0.07 2.75,-0.74 0.68,-3.38 0.54,-3.62l-0.59 -0.04z"/>
   <path class="fil12" d="M53.38 77.91c-0.26,0.25 -0.41,0.88 -0.55,1.14 0.43,-0.16 0.09,-0.08 0.23,0.1 -0.98,0.75 -1.51,1.29 -1.26,1.96l0.13 0.21 -0.02 -0.53c0.52,-0.32 0.77,-0.78 1.39,-0.95 0.44,0.38 0.27,0.54 0.8,1.15l0.23 0.24c0.01,-0.23 -0.05,-0.17 0.17,-0.17 -0.02,-0.03 -0.05,-0.07 -0.06,-0.1 -0.42,-0.66 -0.9,-1.19 -0.6,-1.81l0.68 -0.03c-0.18,-0.43 -0.29,-1 -0.49,-1.31l-0.65 0.12z"/>
   <path class="fil4" d="M3.81 65.28c-0.43,1.14 -1.26,1.23 -2.57,0.67 0.69,1.99 3.33,1.1 3.7,-0.51l-1.13 -0.15z"/>
   <path class="fil10" d="M9.63 72.48c-0.96,-0.25 -1.15,-0.38 -1.9,-0.76 -1.13,-0.59 -0.66,1.07 0.29,1.5l1.28 0.27 0.43 -0.08c0.07,-0.2 0.1,-0.31 0.18,-0.56l-0.28 -0.37z"/>
   <path class="fil10" d="M8.3 70.67l-0.91 0.3c0.21,0.62 1.68,0.98 2.43,1.17l0.26 -1.54 -1.78 0.07z"/>
   <path class="fil10" d="M54.52 79.11l-0.68 0.03c-0.29,0.63 0.18,1.15 0.6,1.81 0.02,0.02 0.04,0.07 0.06,0.1 0.14,0.26 0.13,0.27 0.4,0.39 0.54,0.06 0.82,-0.15 1,-0.59 -0.45,-0.4 -1.15,-1.07 -1.39,-1.74z"/>
   <path class="fil12" d="M55.91 80.85c-0.18,0.44 -0.45,0.64 -1,0.59 0.38,0.59 1.95,1.78 2.52,0.58 -0.15,-0.37 -0.31,-0.41 -0.63,-0.6l-0.62 -0.4c-0.26,-0.17 0.04,0 -0.27,-0.17z"/>
   <path class="fil12" d="M54.52 81.5l0.1 0.41c-0.43,0.23 -0.98,0.71 -1.71,0.68l0.46 0.25c0.81,0.3 1,0.4 1.61,0.28 0.09,-0.05 0.19,-0.08 0.28,-0.15 0.31,-0.21 0.14,-0.05 0.37,-0.33 -0.15,-0.34 -0.56,-0.71 -0.86,-0.96 -0.14,-0.12 -0.08,-0.07 -0.24,-0.18z"/>
   <path class="fil12" d="M52.62 82.88c0.03,0.31 0.12,0.32 -0.14,0.47 -0.39,0.22 -0.24,0.07 -0.55,-0.08 0.21,0.38 0.15,0.32 0.54,0.58 0.23,0.16 0.39,0.25 0.68,0.33 0.71,0.2 1.2,0.14 1.3,-0.62 -0.67,-0.16 -1.36,-0.46 -1.83,-0.68z"/>
   <path class="fil10" d="M51.45 81.3l-0.63 0.25 0.03 0.33c0.15,0.45 0.72,1.2 1.09,1.38 0.31,0.14 0.16,0.29 0.55,0.08 0.26,-0.14 0.16,-0.16 0.14,-0.47 -0.71,-0.6 -0.68,-0.67 -1.18,-1.57z"/>
   <path class="fil12" d="M14.73 68.65c0.5,0.19 1,0.42 1.48,0.57 0.12,-0.48 0.46,-0.55 0.99,-0.61l-0.15 -0.13c-0.02,-0.02 -0.05,-0.04 -0.08,-0.06 -0.93,-0.63 -1.65,-0.26 -2.34,-0.07l0.11 0.3z"/>
   <path class="fil4" d="M56.05 74.03l-0.7 0.23c0.07,0.53 0.83,1.24 1.08,1.76 0.5,0.07 0.56,-0.07 0.84,0.15l0.25 -0.17c-0.64,-0.48 -0.4,-0.13 -0.86,-0.85 -0.27,-0.43 -0.45,-0.64 -0.61,-1.11z"/>
   <path class="fil9" d="M5.35 63.63c-0.32,0.69 -0.49,0.95 -1.33,0.98 0.15,0.16 0.03,0.12 0.31,0.23 0.1,0.04 0.21,0.05 0.31,0.06 0.27,0.03 0.51,0.01 0.75,-0.08 0.42,-0.15 0.65,-0.44 0.8,-0.75 -0.24,-0.28 -0.41,-0.33 -0.84,-0.43z"/>
   <path class="fil12" d="M50.59 80.41c-0.27,0.37 0.03,0.21 -0.37,0.57 0.19,0.34 0.34,0.69 0.62,0.9l-0.03 -0.33 0.63 -0.25c-0.12,-0.46 -0.07,-0.72 -0.28,-1.09 -0.45,0.1 -0.32,0.06 -0.55,0.39l-0.03 -0.19z"/>
   <path class="fil10" d="M53.22 71c-0.47,0.14 -0.37,0.04 -0.6,0.47 0.15,0.15 -0,0.08 0.24,0.21 0.39,0.21 0.74,0.18 1.14,0.18l-0.16 -0.55 -0.62 -0.31z"/>
  </g>
 </g>
</svg>
