<?xml version="1.0" encoding="UTF-8"?>
<!DOCTYPE svg PUBLIC "-//W3C//DTD SVG 1.1//EN" "http://www.w3.org/Graphics/SVG/1.1/DTD/svg11.dtd">
<!-- Creator: CorelDRAW -->
<svg xmlns="http://www.w3.org/2000/svg" xml:space="preserve" width="30.8972mm" height="44.0804mm" version="1.1" style="shape-rendering:geometricPrecision; text-rendering:geometricPrecision; image-rendering:optimizeQuality; fill-rule:evenodd; clip-rule:evenodd"
viewBox="0 0 162.15 231.33"
 xmlns:xlink="http://www.w3.org/1999/xlink"
 xmlns:xodm="http://www.corel.com/coreldraw/odm/2003">
 <defs>
  <style type="text/css">
   <![CDATA[
    .fil0 {fill:black}
    .fil3 {fill:#54A8FE}
    .fil5 {fill:#E49564}
    .fil1 {fill:#F62C08}
    .fil6 {fill:#FBFCFB}
    .fil4 {fill:#FEFEFE}
    .fil2 {fill:white}
   ]]>
  </style>
 </defs>
 <g id="Camada_x0020_1">
  <metadata id="CorelCorpID_0Corel-Layer"/>
  <g id="_2064432421152">
   <path class="fil0" d="M69.11 183.15l1.22 -4.98c-0.29,-1.11 1.23,-4.41 1.77,-5.08 0.82,-0.05 4.68,0.83 8,0.83 11.49,-0 8.96,-3.61 13.85,0.97 0.83,0.78 3.83,4.22 2.87,5.31 -0.61,0.68 -3.17,-0.19 -6.58,0.89 -4.71,1.48 -8.41,5.62 -10.23,10.08l-0.63 1.28c-1.59,-0.45 -1.64,-3.5 -10.64,-5.44 0.07,-1.46 0.39,-2.34 0.38,-3.86zm24.5 -12.58c1.02,-1.05 2.47,-1.86 3.58,-2.91 3.92,-3.69 7.42,-10.77 8,-11.23 0.58,0.23 5.75,5.59 6.38,6.31 1.77,2.06 3.97,4.66 4.79,7.78 1.76,6.67 1.25,11.29 -3.27,16.67l-0.77 0.87c-0.31,0.38 -0.35,0.35 -0.32,0.99 1.89,-0.24 5.21,-4.07 6.06,-5.95 2.31,-0.24 6.44,0.89 8.42,1.31 4.36,0.92 9.75,3.59 12.84,6.39 4.23,3.84 5.36,8.23 4.62,13.94 -0.25,1.93 -2.82,4.67 -3.98,5.69 -1.84,1.61 -3.71,2.77 -6.04,3.6 -2.47,0.88 -4.98,1.46 -8,1.46 -3.84,0 -11.83,-0.79 -15.49,-1.78 -1.49,-0.41 -3.07,-0.63 -4.55,-1.08 -1.34,-0.41 -3.17,-0.77 -4.55,-1.09 -1.35,-0.31 -3.06,-0.84 -4.33,-1.32 -3.06,-1.14 -8.67,-3.7 -11.06,-5.83 -3.63,-3.23 -4.69,-7.88 -3.39,-12.62 1.59,-5.8 7.47,-9.29 13.72,-8.6 -0.25,1.03 -2.04,2.13 -2.43,3.52 1.11,-0.14 2.87,-1.8 3.57,-2.63 0.67,-0.81 1.87,-2.82 1.87,-4.02 0,-3.43 -5.37,-8.54 -5.66,-9.45zm-11.69 -20.72c6.67,0 11.72,-0.78 17.9,-2.49 1.37,-0.38 3.84,-1.63 5.22,-1.53 0.21,5.1 -1.1,9.4 -3.62,13.5 -4.63,7.53 -8.6,10.02 -17.48,11.46 -2.38,0.39 -4.27,0.47 -6.77,0.24l-6.34 -0.83c-0.85,0.38 -1.6,4.41 -2.05,5.81 -0.59,1.84 -1.1,4.13 -1.61,6.19 -0.67,2.75 -1.37,12.88 0.03,14.04l0.25 -0.93c0.07,-0.88 -0.09,-1.71 0.18,-2.49 0.34,-0.95 0.68,-1.96 0.95,-2.89 3.44,0.13 8.31,2.55 9.6,6.43 1.52,4.55 1.51,8.48 -1.2,12.71 -1.39,2.17 -2.38,2.64 -4.16,3.83 -1.51,1.01 -3.12,2.1 -4.73,3.09 -1.66,1.02 -3.25,1.98 -5.02,2.8 -1.7,0.79 -3.5,1.68 -5.29,2.52 -1.91,0.89 -3.7,1.42 -5.73,2.26 -0.78,0.33 -2.22,0.72 -3.09,0.92 -1.15,0.27 -1.9,0.53 -2.88,0.93 -2.65,1.07 -9.93,2.72 -12.69,2.93 -5.27,0.4 -9.6,0.43 -14.2,-1.04 -6.46,-2.06 -10.29,-7.09 -8.26,-14.14 0.73,-2.54 2.89,-5.2 4.79,-7.01 0.59,-0.57 1.42,-1.22 2.12,-1.71 3.61,-2.54 3.68,-2.51 7.29,-4.51 1.07,-0.59 1.8,-0.81 2.72,-1.27 4.35,-2.17 7.47,-2.78 11.57,-4.05 1.87,-0.58 4.8,-0.83 6.33,-1.49 3.27,-1.41 2.09,-1.99 2.28,-5.65 0.16,-3.01 1.8,-10.36 2.66,-13.02l4.28 -11.37c1.51,-3.33 3.58,-7.76 4.47,-11.14 0.48,-1.82 0.96,-4.72 1.94,-5.92 2.05,0.92 1.73,0.88 4.22,1.78 1.11,0.4 3.53,1.11 4.7,1.27 0.96,0.13 1.69,0.4 2.6,0.5 0.86,0.1 1.93,0.05 2.85,0.11l6.18 0.17zm57.95 -3.64c0.35,-0.43 0.99,-0.76 1.46,-1.12 0.45,-0.34 0.89,-0.76 1.25,-1.11 3.04,-2.92 1.78,-4.1 5.21,-1.31 2.72,2.22 5.09,7.54 3.72,9.86 -0.89,1.5 -3.53,3.93 -5.6,4.02 -0.54,-0.77 -1.07,-3.97 -2.08,-6.08 -1.16,-2.43 -3.45,-3.11 -3.96,-4.27zm-87.23 17.46c-0.17,-1.7 -0.07,-2.94 -0.53,-4.6l-2.48 -7.68c-0.53,-1.53 -1.08,-2.47 0.06,-3.78 1.43,-1.66 6.11,-5.8 7.96,-7.31 1.29,-1.05 2.12,-2.15 2.91,-2 0.18,6.02 -1.22,9.34 -3.02,14.44 -0.22,0.63 -4.45,10.64 -4.89,10.93zm-36.17 -17.48c-1.23,-0.07 -4.28,1.34 -5.56,1.69 -0.61,0.16 -1.61,0.16 -2.26,0.12 -2.75,-0.15 -4.32,-1.97 -5.2,-4.4 -0.67,-1.86 -0.54,-2.19 -0.7,-4.2 -0.14,-1.74 0.22,-2.31 0.98,-3.56 1.29,-2.12 3,-3.34 6.58,-2.76 3.65,0.59 7.18,6.21 9.95,3.48l2.24 -2.12c1.5,-1.36 3.82,-2.99 6.69,-2.99 2.23,-0 3.52,0.98 5.41,1.93 0.72,0.36 0.88,0.17 1.41,-0.34 1.62,-1.55 9.12,-6.92 11.19,-8.09l10.61 -6.29c2.82,-1.83 -0.33,-0.82 5.74,-0.82 2.1,0 2.44,-0.18 4.27,0.47 3.04,1.08 4.86,-0.08 6.44,0.1 0.96,0.11 1.01,0.3 2.14,0.1 4.06,-0.69 4.01,1.45 6.1,0.64l1.63 -0.73c1.25,-0.52 1.8,-1.74 3.04,-1.76 0.72,-0.01 1.61,0.08 2.39,0.08 1.3,0 1.13,-0.2 2.02,-0.33 1.32,1.52 1.15,0.49 3.08,0.67 0.27,0.35 0.64,0.99 0.94,1.45 1.64,2.46 4.22,8.21 5.38,10.81 1.77,3.96 4.45,10.28 4.22,14.18 -1.45,0.48 -3.04,1.32 -4.77,1.73 -0.76,0.18 -1.75,0.48 -2.54,0.72 -2.37,0.74 -5.59,1.31 -7.97,1.84 -1.27,0.29 -4.31,0.45 -5.82,0.52 -5.06,0.23 -12.87,-0.53 -17.64,-1.95 -1.16,-0.34 -3.47,-1.34 -4.37,-1.96 -0.17,-1.03 0.25,-4.23 0.38,-5.44 0.38,-3.35 0.84,-2.82 3.95,-6.29 0.77,-0.85 2.87,-3.07 3.21,-3.87 -1.12,-0.2 -7.87,4.9 -9.22,5.88 -2.01,1.45 -6.2,5.27 -8.02,7.07 -3.53,3.5 -6.53,5.39 -5.75,8.97 0.88,4.04 2.95,6.49 3.16,12 0.09,2.29 -0.25,4.79 -0.92,6.83 -1.37,4.21 -4.23,5.8 -7.73,7.52 -3.47,1.71 -8.35,2.69 -10.65,-1.49 -0.73,-1.33 -0.76,-1.43 -0.21,-2.83 1.28,-3.24 1.88,-3.91 5.37,-5.9 1.68,-0.96 2.35,-1.14 3.98,-1.63 0.69,-0.21 0.82,-0.22 0.91,-0.83 -2.6,-0.73 -5.08,2.42 -13.33,-2.24 -1.25,-0.71 -2.29,-1.57 -3.35,-2.01 0.14,1.06 1.02,1.53 1.76,2.12 4.31,3.42 4.32,2.55 6.8,4.1 -0.09,0.65 0.01,0.34 -0.61,0.82 -4.57,3.57 -3.82,7.76 0.3,11.32 0.69,0.6 1.21,0.76 1.49,1.49 -0.46,0.85 -2.9,2.46 -4.22,2.19 -1.16,-0.24 -3.22,-1.78 -3.9,-2.51 -1.82,-1.94 -2.29,-4.25 -2.62,-7.02 -0.09,-0.75 -0.02,-2.12 -0.43,-2.59 -1.06,0.96 -0.14,6.15 -0.43,7.88 -1.27,0.09 -3.53,-2.73 -4.14,-3.92 -1.12,-2.18 -1.24,-3.96 -1.58,-6.61 -0.26,-2.05 -0.45,-13.83 -0.18,-15.75 0.69,0.31 2.68,1.91 4.62,2.44 0.1,-0.9 0.05,-0.6 -0.39,-1.09 -3.41,-3.73 -2.59,-4.31 -3.89,-6.85zm134.75 -17.47c1.85,2.89 6.32,6.63 6.37,10.57 0.01,1.28 0.15,2.9 -0.12,4.1 -0.26,1.18 -0.55,2.24 -1.11,3.08 -2.37,3.52 -2.55,1.69 -4.2,-0.88 -1.27,-1.97 -2.98,-3.68 -4.68,-5.14 -1.6,-1.37 -0.62,-2 -0.62,-3.94 -0.83,0.33 -1.66,1.98 -2.47,3.08 -1.17,1.58 -4.2,4.58 -5.84,5.06 -1.13,0.33 -3.14,-1.12 -3.87,-0.81 0.29,0.91 2.93,2.09 5.25,4.72 1.26,1.43 3.34,4.12 3.45,6.38 0.15,3.09 -1.66,4.53 -3.93,5.88 -9.05,5.37 -17.08,-6.24 -18.84,-15.26 -0.15,-0.76 -0.1,-1.32 -0.28,-2.09 -0.53,-2.19 -0.4,-1.99 0.04,-4.12 0.09,-0.42 0.49,-4.16 0.48,-4.46 -1.24,-0.65 -2.21,-1.13 -3.81,-1.62 -2.28,-0.69 -6.6,-1.57 -9.04,-1.9 -5.24,-0.69 -4.64,0.64 -6.51,-4.15l-3.63 -7.3c-0.52,-1.02 -1.63,-2.51 -1.69,-3.53 0.36,-0.26 2.34,-0.87 2.97,-1.15 1.27,-0.58 1.6,-0.86 3.19,-0.73l14.06 2.68c2.2,0.5 4.38,1.04 6.62,1.56l4.78 1.62c2.26,0.23 -0.14,-3.94 3.42,-6.69 1.09,-0.84 1.81,-0.89 3.44,-0.83 2.58,0.09 8.56,3.25 10,1.36 1.28,-1.67 0.14,-4.74 1.24,-6.77 0.93,-1.71 2.78,-3.04 5.42,-2.81 2.22,0.2 4.83,1.2 6.03,2.33 1,0.95 2.85,3.48 2.56,5.57 -0.33,2.37 -1.68,4.01 -3.18,5.2 -1.02,0.81 -3.15,1.21 -4.69,1.46 -0.68,0.11 -1.24,0.03 -1.91,0.14 -2.8,0.44 -1.19,4.23 -2.53,5.82 -0.57,0.68 -1.28,1.54 -2.02,2.16 -1.42,1.19 -2,0.73 -2.35,1.62 0.68,0.33 2.73,-0.63 3.36,-0.98l2.79 -1.74c0.45,0.34 1.48,1.89 1.86,2.49zm-123.84 -33.03c-1.88,-0.78 -5.71,-8.28 -0.4,-14.94 3.14,-3.94 10.27,-5.99 15.11,-3.82 0.24,1.8 -0.36,2.03 -1.83,2.41 -3.18,0.81 -5.69,2.3 -7.98,4.53 -2.67,2.6 -4.04,6.39 -4.63,10.13l-0.23 1.56c-0.01,-0.02 -0.02,0.09 -0.05,0.13zm15.9 -17.09c0.45,-3.89 2.51,-9.14 4.37,-12.44 0.34,-0.61 1.72,-3.23 2.27,-3.26 1.02,-0.05 5.92,5.42 6.81,6.52 0.88,1.09 4.9,6.74 4.93,8.27 -3.27,1.37 -5.04,2.55 -6.2,5.91 -0.86,2.49 1.33,8.75 2.91,8.71 -0.18,-1.7 -3.68,-4.65 -0.64,-9.53 3.8,-6.12 12.77,-4.42 19.36,-3.32 0.76,0.13 2.46,0.48 3.11,0.67 2.37,0.7 10.17,2.76 12.4,3.09 7.72,1.13 16.63,-0.44 21.32,-6.98 0.43,-0.6 0.34,-0.65 0.9,-0.92 0.63,0.37 2.3,3.07 2.68,4.07 0.79,2.08 0.65,3.79 0.13,6.01 1.22,-0.64 1.26,-3.02 1.26,-4.26 0,-4.72 -2.84,-6.09 -2.95,-7.63 0.97,-0.97 1.58,-0.32 2.38,0.31 4.58,3.6 6.21,10.76 4.8,16.15 -0.19,0.72 -0.83,2.14 -0.84,2.76 0.76,-0.19 1.17,-1.49 2.02,-2.65 0.8,-1.09 2.82,-0.75 3.5,-0.48 0.1,0.88 -2.66,5.06 -3.17,5.72 -0.72,0.95 -1.31,1.67 -1.99,2.55l-2 2.53c0.91,0.75 2.58,0.8 3.66,1.45 -0.37,0.63 -0.94,0.94 -1.54,1.4 -0.6,0.46 -1.09,0.8 -1.58,1.15 -2.92,2.04 -4.48,2.57 -7.53,3.75 -1.85,0.71 -2.85,0.76 -3.41,0.94 -0.73,0.25 -0.52,0.15 -0.76,0.65l2.49 1.02 -0.65 0.49c-0.91,0.42 -4.72,1.23 -5.66,1.43 -1.25,0.27 -2.42,0.3 -3.75,0.38 -1.99,0.12 -1.67,0.12 -3.51,-0.12 -0.03,1.62 0.62,0.29 0.8,1.63 -0.46,0.3 -5.2,1.31 -6.01,1.35 -1.98,0.09 -4.96,-0.18 -6.73,-0.7 -1.1,0.64 -2.94,3.32 -4.78,2.48 -0.51,-0.75 -0.23,-1.07 -0.67,-1.83 -1.09,0.06 -2.49,1.5 -4.18,1.82 -0.18,-0.21 -0.1,-0.09 -0.23,-0.37 -0.02,-0.05 -0.09,-0.21 -0.11,-0.26 -0.1,-0.27 -0.12,-0.48 -0.18,-0.71 -1.08,-0.04 -3.05,0.66 -4.09,0.87 -2.5,0.49 -1.86,0.05 -3.05,-1.26l-6.52 0.65c-5.79,0.29 -19.03,-2.14 -22.61,-4.77 0.14,-0.4 0.18,-0.5 0.49,-0.84 1.11,-1.22 5.43,0.66 6.77,-0.07 -0.16,-0.49 0.27,-0.15 -0.58,-0.44 -0.15,-0.05 -0.64,-0.15 -0.87,-0.21 -0.53,-0.13 -1.06,-0.22 -1.59,-0.41 -7.85,-2.82 -6.3,-1.89 -12.22,-7.94 -4.32,-4.41 -3.11,-12.41 2.15,-17.08 1.11,-0.99 3.44,-2.41 4.96,-3.21 1.74,-0.91 5.39,-2.05 5.64,-2.33 -0.39,-0.74 -0.64,-0.14 -1.51,-0.73zm28.44 -7.82c-1.51,-0.27 -3.54,-4.68 -4.06,-6.48 -0.99,-3.39 0.52,-10.54 6.17,-9.21 1.62,0.38 4.98,3.17 6.05,4.45 0.55,0.66 1.77,2.46 2.5,2.8l1.9 -3c3.69,-5.07 7.63,-1.14 10.18,2.21 0.49,0.65 0.29,0.92 -0.01,1.57 -1.5,3.25 -3.15,7 -6.65,8.16 0.23,-2.24 0.98,-4.39 -0.98,-5.66 -1.57,-0.04 -2.25,1.05 -2.28,2.62 -0.03,1.7 0.85,2.41 1.3,3.46 -0.55,1.03 -3.09,2.8 -4.86,2.92 -1.62,0.11 -5.18,-0.88 -6.05,-1.64 0.11,-0.62 1.96,-3.77 -0.29,-6.37 -0.6,-0.69 -3.45,-1.53 -2.93,4.18zm-11.42 -12.53c0.83,-1.68 -0.08,-5.97 3.03,-8.41 1.82,-1.43 1.74,-1.41 4.11,-0.71 1.39,0.41 1.23,-0.25 2.31,-0.44 2.7,-0.48 8.81,-0.58 10.43,0.18 0.89,0.42 0.23,0.84 1.73,0.93 2.99,0.17 3.56,2.83 5.82,2.9 1.03,0.03 1.32,-0.63 1.82,-1.04 2.93,0.48 7.93,3.25 9.09,5.32 -0.34,0.74 -2.27,2.62 -3.09,3.03 -0.7,-0.19 -2.4,-2.09 -3.42,-2.7 -5.54,-3.32 -7.15,-1.51 -10.4,2.52 -0.66,-0.17 -2.7,-2.58 -3.86,-3.54 -1.93,-1.6 -5.57,-3.43 -8,-1.72l-1.68 1.98c-2.32,3.93 -2.15,9.61 0.27,12.97 2.73,3.78 6.39,6.25 11.45,6.26 3.87,0 4.02,-1.02 6.34,-2.45 0.98,-0.6 2.34,-0.09 3.54,-0.99 3.43,-2.59 4.1,-9.04 8.87,-13.14 1.18,-1.02 3.98,-2.48 6.34,-2.48 3.57,0 5.32,-0.1 8.37,2.27 3.11,2.42 4.02,8.07 2.55,11.44 -2.26,5.15 -6.64,8.74 -11.82,10.77 -4.8,1.87 -7.78,1.05 -12.67,-0.05 -2.04,-0.46 -4.24,-0.88 -6.17,-1.49 -1.7,-0.54 -4.39,-0.87 -6.27,-1.2 -1.54,-0.27 -5.18,-0.67 -6.7,-0.68 -10.1,-0.1 -6.7,1.17 -10.92,-4.24 -2.39,-3.07 -4.15,-5.44 -6.83,-8.07 -1.1,-1.08 -2.66,-2.3 -3.75,-3.74 0.59,-1.32 5.83,-6.03 7.32,-6.18 0.43,0.76 0.77,2.69 2.18,2.74zm26.25 -7.01c-0.43,-0.39 -0.69,-0.67 -1.13,-1.05 -1.34,-1.12 -1.94,-0.58 -3.52,-1.04 0.02,-0.1 -0.17,-0.45 0.78,-0.71 1.13,-0.31 2.03,0.13 3.02,0.74 0.83,0.51 2.39,1.82 2.45,2.93 -0.77,-0.07 -0.65,-0.03 -1.31,-0.62 -0.12,-0.11 -0.16,-0.14 -0.29,-0.25zm-26.48 5.87c-1.21,-0.09 -1.14,-1.82 -1.13,-3.05 0.02,-2.1 0.09,-4.7 2.25,-5.81 0.93,-0.48 2.06,-0.85 3.13,-0.19 -0.4,1.28 -3.14,0.91 -3.95,6.13 -0.14,0.88 -0,2.15 -0.3,2.92zm-35.41 22.92c-0.61,-0.42 -0.65,-1.49 -0.96,-2.83l-0.94 -9.99c-0.18,-2.44 -0.28,-4.89 -0.16,-7.34 0.36,-8.03 2.13,-16.99 5.48,-24.01 3.16,-6.62 6.54,-12.73 11.36,-18.09 2.15,-2.4 5.09,-4.84 7.77,-6.96 1.23,-0.97 2.94,-1.96 4.33,-2.94 2.94,-2.06 5.89,-4.04 9.3,-5.25 9.87,-3.52 27.9,-1.03 36.39,4.87 1.47,1.03 2.92,1.66 4.48,2.96 1.27,1.06 2.46,2.29 3.29,4 0.97,1.96 1.17,3.92 1.18,6.35 0.01,2.51 -0.83,3.85 -1.83,5.51 -3.13,5.19 -17.82,6.31 -23.6,5.62 -2.21,-0.27 -4.65,-0.11 -6.97,-0.32 -2,-0.18 -4.52,-0.54 -6.57,-0.61 0.29,1.7 7.17,1.85 9.19,2.22 3.5,0.65 8.88,0.53 10.26,1.07 0.23,0.83 0.35,3.79 0.65,4.74 0.24,0.75 0.3,0.6 0.32,1.46 -1.61,0.03 -3.22,-0.33 -4.97,-0.33 -1.7,0 -3.39,0.01 -5.09,0 -3.43,-0.01 -6.73,-0.06 -10.18,-0.01 -3.26,0.05 -6.38,0.14 -9.44,0.62 -1.96,0.3 -6.61,1.93 -6.88,3.28 0.86,0.39 2.76,-0.45 3.76,-0.6 1.01,-0.16 2.74,-0.49 3.79,-0.74 6.6,-1.56 11.17,-0.93 17.31,-0.9 7.25,0.03 11.35,1.36 16.75,1.63 2.82,0.14 8.65,1.52 11.23,2.83 3.3,1.68 5.33,5.63 5.21,8.25 -1.01,0.35 -5.35,0.39 -6.1,-0.27 -0.55,-0.49 -0.61,-1.43 -1.19,-2.08 -0.43,-0.48 -1.22,-0.94 -1.85,-1.4 -1.36,-0.99 -2.35,-1.6 -4.43,-2.16 -1.7,-0.46 -3.48,-1.13 -5.23,-1.29 -1.93,-0.18 -3.98,-0.77 -5.83,-0.78 -2.16,-0.02 -4.2,-0.14 -6.36,-0.13l-12.46 0.25c-5.62,-0.58 -6.36,0.95 -8.86,4.08 -1.26,1.57 -1.02,2.42 -2.72,3.83 -0.98,0.82 -2.31,2.19 -3.24,3.31 -2.17,2.62 -3.47,5.03 -5.04,8.05 -1.22,2.33 -3.31,8.04 -3.85,8.99 -2.14,0.35 -6.85,-2.31 -14.16,2.44 -1.45,0.94 -2.6,2.42 -3.11,2.68zm13.77 -63.95c-0.32,0.61 -0.26,0.54 -0.87,0.9l-4.9 6.21c-0.42,0.56 -4.02,6.41 -4.39,6.58 -0,0 -3.33,7.99 -3.86,8.69 -0.08,0.78 -0.98,2.87 -1.29,3.9 -0.4,1.28 -0.79,2.68 -1.12,3.96 -0.75,2.89 -0.96,5.51 -1.51,8.48l0.04 16.36c0.13,0.59 0.24,1.54 0.1,2.1 0.46,0.85 0.21,2.29 0.69,3.91 0.06,1.29 0.44,3.59 0.74,4.75 1.27,4.92 -1.21,5.69 0.09,9.73 0.26,0.81 0.35,1.29 0.68,2.05 0.23,0.54 0.68,1.49 0.66,1.99l0.63 0.73c1.88,2.86 3.62,3.95 5.87,6.67 2.01,2.43 2.94,3.41 5.82,5.46 1.73,1.23 1.12,1.08 1.65,2.14 1.23,2.45 3.18,3.54 5.28,4.54l0.67 0.51c0.62,-0.07 1.95,0.51 2.25,0.8l5.72 1.86c-0.82,0.59 -2,1.07 -3.11,1.79 -3.1,2.03 -5.51,3.44 -8.65,6.08 -0.91,0.76 -1.97,1.31 -2.88,2.02 -2,1.55 -0.61,1.22 -3.22,0.68 -5.72,-1.18 -4.69,-0.61 -8.42,0.34l-4.05 2.74c-5.21,3.67 -2.64,2.06 -8.84,-0.67 -3.71,-1.64 -7.28,-0.97 -9.71,2.49 -0.86,1.23 -1.92,2.85 -2.23,4.69 -0.59,3.59 -0.28,5.42 1.65,8.02 0.3,0.41 1.29,1.34 1.39,1.78 0.79,0.26 1.3,0.76 2.06,1.12 0.5,0.24 1.95,0.58 2.21,0.79l5.89 0.24c-0.13,2.2 -0.47,3.68 -0.48,6.05 -0.01,1.93 -0.04,3.8 -0,5.81 0.06,3.4 0.58,7.97 1.83,10.55 2.68,5.52 3.82,4.36 6.54,6.01l3.47 2.71c0.7,0.62 0.92,0.77 1.77,1.31 0.74,0.47 1.61,0.62 2.14,0.8 2.84,0.12 2.9,0.2 5.11,-0.67 0.52,-0.65 1.64,-1.17 2.45,-1.78 1.24,-0.93 1.42,-0.79 3.01,-1.35 1.08,-0.39 2.18,-0.75 3.2,-1.16 0.86,-0.34 2.11,-0.83 2.99,-1.09 -0.15,0.86 -0.43,1.62 -0.61,2.56 -0.38,1.99 0.05,8.63 -0.41,9.37 -0.36,0.58 -5.71,1.77 -6.38,1.93 -0.28,0.22 -7.83,2.83 -8.82,3.02 -0.3,0.36 -1.25,0.65 -1.75,0.86 -0.79,0.33 -1.22,0.64 -1.92,0.68 -0.28,0.34 -0.01,0.1 -0.45,0.39 -0.01,0.01 -0.47,0.25 -0.48,0.25 -4.07,2.07 -5.4,2.76 -9.23,5.66 -0.91,0.69 -2.18,2.06 -3.06,2.49 -0.04,0.6 0.08,0.44 -0.44,0.46 -0.37,1.14 -4.1,4.09 -4.45,10.79 -0.18,3.53 0.29,5.74 2.33,8.29 0.77,0.97 1.87,1.84 2.07,2.36 0.73,0.05 0,-0.1 1.25,0.69 3.33,2.1 3.95,1.99 7.67,3.24 0.7,0.24 2.93,0.36 3.87,0.48 3.77,0.46 11.74,-0.87 15.11,-1.91 6.4,-1.97 9.9,-3.06 15.94,-5.68l5.88 -2.85c0.72,-0.38 2.24,-1.41 2.92,-1.42 0.36,-0.51 1.28,-1.09 1.99,-1.25 0.13,-0.28 -0.06,-0.03 0.3,-0.3 0.01,-0.01 0.54,-0.33 0.56,-0.34 0.32,-0.18 0.79,-0.42 1.07,-0.49 0.54,-0.59 1.51,-1.02 2.24,-1.48 2.29,-1.41 4.67,-3.34 6.6,-4.54 0.14,-0.61 1.44,-1.82 2.35,-3.62l1.91 -4.12 4.96 3.46c1.78,1.21 3.58,2.19 5.43,3.11 5.9,2.92 12.23,4.26 12.51,4.39l5.14 1.14c0.64,-0.09 7.98,1.15 10.02,1.31 5.23,0.41 9.62,-0.74 10.78,-0.59l0.97 -0.39c0.5,-0.11 0.47,-0.09 1.01,-0.26 0.75,-0.24 1.43,-0.33 2.19,-0.49 0.91,-0.87 1.68,0.08 6.22,-4.38 0.85,-0.84 1.65,-1.77 2.46,-2.81l1.49 -2.52c0.22,-0.46 -0.02,-0.44 0.44,-0.82 0.24,-0.69 0.62,-3.47 0.53,-4.36l-0.45 -3.48 -0.28 -0.67c-0.05,-0.2 -0.06,-0.38 -0.12,-0.6l-1.3 -3.25c-0.18,-0.16 -0.83,-1.17 -0.98,-1.39 -0.38,-0.54 -0.67,-0.94 -1.1,-1.44l-2.41 -2.39c-0.95,-0.33 -1.32,-0.73 -2.14,-1.25 -2.47,-1.57 -4.09,-2.27 -6.03,-3.44l-0.24 -0.16c-0.73,-0 -4.15,-0.89 -5.14,-1.15 -0.99,-0.25 -4.8,-0.57 -5.24,-0.98 -0.55,-0.58 -0.3,-3.57 -0.3,-4.35 -0,-3.87 -2.9,-9.06 -3.15,-10.17 -0.41,-0.16 -0.32,-0.28 -0.56,-0.7 -0.19,-0.34 -0.29,-0.5 -0.55,-0.91l-2.37 -3.45c-1.2,-1.57 -4.11,-4.6 -5.51,-5.95 -0.49,-0.47 -1.04,-0.72 -0.87,-1.58 0.71,-3.81 0.74,-6.54 0.34,-10.57 -0.39,-3.82 -1.74,-5.87 -2.39,-9.11 3.18,0.1 4.64,0.48 7.4,1.14 1.28,0.3 5.18,1.59 5.85,2.34 0.29,0.66 -1.88,11.38 4.3,20.44 0.39,0.57 0.69,1.03 1.06,1.48 1.51,1.83 4.79,5.22 7.3,5.34 1.89,0.24 2.54,0.64 4.66,0.46 0.58,-0.32 2.65,-0.6 3.41,-0.33 0.79,-0.68 1.17,-0.49 2.21,-1.01 0.84,-0.42 1.17,-0.86 1.96,-1.23l0.38 -0.59c1.45,-1.64 1.88,-1.91 4.25,-2.53 4.94,-1.29 4.73,-4.44 7.12,-8.3 0.98,-1.58 2.14,-3.08 3.03,-4.61 2.03,-3.5 1,-8.69 -1.44,-12.08 -1.84,-2.55 -4.36,-4.51 -4.98,-6.64l-0.76 -3.03c2.15,-2.36 6.06,-0.16 9.9,-6.06 0.92,-1.41 0.95,-1.96 1.53,-3.57l0.04 -2.66c-0.18,-1.13 -0.83,-2.31 -1.5,-3.16 -3.3,-4.26 -6.9,-4.32 -8.38,-5.08l-4 0.21c-0.43,0.27 -0.57,0.13 -0.99,0.25 -2.97,0.87 -3.52,3.58 -4.38,5.22 -0.04,0.78 -0.16,1.31 -0.13,2.01 0.02,0.61 0.08,1.61 -0.14,2.06 -0.4,0.5 -3.18,-1.33 -3.3,-1.46 -1.57,-0.12 -2.1,-0.68 -4.32,-0.68 -3.4,0.01 -5.14,0.45 -7.01,3.17 -0.75,1.1 -1.41,2.1 -2.01,3.06 -1.02,-0.08 -2.44,-0.66 -3.37,-0.94 -1.02,-0.31 -2.02,-0.59 -3.07,-0.91 -2.06,-0.63 -4.51,-0.78 -6.55,-1.44 0.07,-0.53 -0.02,-0.41 0.91,-0.97 1.4,-0.85 1.52,-2.07 2.27,-2.99 1.53,-1.89 5.1,-2.22 9.97,-7.3 0.74,-0.77 1.22,-0.87 1.34,-2.27 -0.7,-0.35 -1.79,-1.12 -2.11,-1.77 0.26,-0.78 1.97,-3.14 2.49,-3.53 0.14,-0.63 1.26,-2.83 1.99,-5.66 0.85,-3.31 -3.15,-3 -3.93,-3.36 -0.27,-0.74 -0.11,-2.42 -0.28,-3.32 -0.14,-0.74 -0.53,-2.37 -0.54,-2.87 -0.03,-0.04 -0.06,-0.1 -0.07,-0.12l-0.37 -0.77c-0.14,-0.33 -0.17,-0.39 -0.32,-0.77 -2.09,-5.3 -7.83,-6.77 -5.41,-8.82 -0.05,-0.76 0.23,-1.72 0.41,-2.12 0.4,-4.01 -0.83,-4.5 -1.43,-7.56 -0.56,-0.15 -0.2,-0.34 -1.01,-1.15 -1.8,-1.81 -5.47,-3.3 -5.79,-5.26 -0.51,-3.1 -2.64,-6.56 -4.91,-8.42 -2.48,-2.03 -5.37,-1.86 -6.36,-2.2 -0.93,-0.07 -5.38,-0.28 -5.89,-0.67 -4.37,0.29 -4.28,-1.65 -4.12,-4.84 0.1,-1.91 0.66,-2.11 2.43,-2.27 1.53,-0.14 5.69,-0.96 7.29,-1.57 1.13,-0.43 1.98,-0.75 3.03,-1.32 3.88,-2.13 3.94,-3.48 4.81,-3.91 0.28,-0.55 0.63,-1.13 0.9,-1.65 0.18,-0.37 0.23,-0.47 0.42,-0.85 0.22,-0.43 0.12,-0.39 0.39,-0.72 0.01,-0.18 0.47,-2.43 0.48,-2.45 0.18,-1.75 0.3,-1.45 -0.04,-3.17 -0.19,-0.94 -0.36,-2.05 -0.51,-2.92 -0.77,-1 -1.74,-4.79 -6.92,-8.25l-2.92 -1.97c-0.79,-0.35 -1.36,-0.55 -2.21,-0.91 -2.21,-0.93 -5.63,-2.11 -6.22,-2.61 -1.34,0.18 -5.71,-1.27 -7.57,-1.42 -2.43,-0.21 -5.37,-0.83 -7.83,-1.06l-8.63 -0.1c-2.29,0.27 -5.2,1.11 -7.08,1.83 -2.16,0.83 -4.35,1.73 -6.11,2.8 -1.02,0.62 -1.87,1.15 -2.82,1.73 -3.16,1.96 -7.39,4.96 -10.1,7.72 -0.41,0.42 -1.77,1.78 -2.2,2.02z"/>
   <path class="fil1" d="M24.66 80.04c0.51,-0.26 1.67,-1.74 3.11,-2.68 7.31,-4.75 12.02,-2.09 14.16,-2.44 0.54,-0.95 2.63,-6.66 3.85,-8.99 1.57,-3.02 2.88,-5.44 5.04,-8.05 0.93,-1.12 2.26,-2.49 3.24,-3.31 1.69,-1.42 1.45,-2.26 2.72,-3.83 2.51,-3.13 3.25,-4.66 8.86,-4.08l12.46 -0.25c2.16,-0.02 4.21,0.11 6.36,0.13 1.85,0.02 3.91,0.61 5.83,0.78 1.75,0.16 3.53,0.83 5.23,1.29 2.08,0.56 3.07,1.17 4.43,2.16 0.63,0.46 1.42,0.92 1.85,1.4 0.58,0.65 0.64,1.59 1.19,2.08 0.75,0.66 5.09,0.62 6.1,0.27 0.12,-2.62 -1.91,-6.57 -5.21,-8.25 -2.58,-1.31 -8.41,-2.69 -11.23,-2.83 -5.4,-0.27 -9.49,-1.6 -16.75,-1.63 -6.14,-0.03 -10.71,-0.66 -17.31,0.9 -1.05,0.25 -2.78,0.59 -3.79,0.74 -1.01,0.16 -2.9,0.99 -3.76,0.6 0.27,-1.35 4.92,-2.97 6.88,-3.28 3.07,-0.47 6.18,-0.57 9.44,-0.62 3.45,-0.05 6.75,-0.01 10.18,0.01 1.7,0.01 3.39,-0 5.09,-0 1.75,0 3.36,0.36 4.97,0.33 -0.02,-0.86 -0.08,-0.71 -0.32,-1.46 -0.3,-0.94 -0.42,-3.91 -0.65,-4.74 -1.38,-0.54 -6.76,-0.42 -10.26,-1.07 -2.02,-0.37 -8.9,-0.52 -9.19,-2.22 2.05,0.07 4.57,0.44 6.57,0.61 2.33,0.21 4.76,0.05 6.97,0.32 5.78,0.69 20.48,-0.43 23.6,-5.62 1,-1.66 1.84,-3 1.83,-5.51 -0.01,-2.43 -0.21,-4.38 -1.18,-6.35 -0.84,-1.7 -2.02,-2.93 -3.29,-4 -1.56,-1.31 -3,-1.94 -4.48,-2.96 -8.49,-5.91 -26.52,-8.39 -36.39,-4.87 -3.41,1.22 -6.36,3.19 -9.3,5.25 -1.39,0.97 -3.1,1.97 -4.33,2.94 -2.68,2.12 -5.62,4.56 -7.77,6.96 -4.82,5.36 -8.2,11.47 -11.36,18.09 -3.36,7.03 -5.12,15.98 -5.48,24.01 -0.11,2.44 -0.01,4.9 0.16,7.34l0.94 9.99c0.31,1.33 0.35,2.41 0.96,2.83z"/>
   <path class="fil1" d="M81.92 149.86l-6.18 -0.17c-0.91,-0.06 -1.99,-0.02 -2.85,-0.11 -0.92,-0.1 -1.64,-0.37 -2.6,-0.5 -1.17,-0.16 -3.58,-0.86 -4.7,-1.27 -2.49,-0.9 -2.16,-0.87 -4.22,-1.78 -0.98,1.2 -1.46,4.1 -1.94,5.92 -0.89,3.38 -2.97,7.81 -4.47,11.14l-4.28 11.37c-0.87,2.66 -2.5,10.01 -2.66,13.02 -0.2,3.66 0.99,4.25 -2.28,5.65 -1.54,0.66 -4.46,0.91 -6.33,1.49 -4.1,1.27 -7.23,1.89 -11.57,4.05 -0.93,0.46 -1.65,0.68 -2.72,1.27 -3.61,2 -3.68,1.98 -7.29,4.51 -0.7,0.49 -1.52,1.14 -2.12,1.71 -1.89,1.82 -4.05,4.47 -4.79,7.01 -2.03,7.05 1.79,12.08 8.26,14.14 4.6,1.47 8.93,1.44 14.2,1.04 2.76,-0.21 10.04,-1.85 12.69,-2.93 0.98,-0.4 1.73,-0.66 2.88,-0.93 0.87,-0.2 2.31,-0.6 3.09,-0.92 2.03,-0.85 3.83,-1.37 5.73,-2.26 1.79,-0.84 3.6,-1.73 5.29,-2.52 1.77,-0.82 3.36,-1.78 5.02,-2.8 1.61,-0.99 3.21,-2.08 4.73,-3.09 1.78,-1.19 2.77,-1.66 4.16,-3.83 2.71,-4.23 2.72,-8.17 1.2,-12.71 -1.29,-3.88 -6.16,-6.31 -9.6,-6.43 -0.26,0.94 -0.61,1.94 -0.95,2.89 -0.27,0.77 -0.11,1.61 -0.18,2.49l-0.25 0.93c-1.4,-1.16 -0.7,-11.29 -0.03,-14.04 0.5,-2.06 1.02,-4.34 1.61,-6.19 0.45,-1.4 1.2,-5.43 2.05,-5.81l6.34 0.83c2.5,0.23 4.38,0.15 6.77,-0.24 8.88,-1.44 12.85,-3.93 17.48,-11.46 2.52,-4.1 3.83,-8.4 3.62,-13.5 -1.39,-0.1 -3.86,1.15 -5.22,1.53 -6.17,1.71 -11.23,2.5 -17.9,2.49z"/>
   <path class="fil2" d="M71.84 93.18c0.35,-1.86 2.9,-2.69 4.05,-2.51l0.32 0.12c-0.31,0.82 0.01,0.32 -0.54,0.68 -0.31,0.21 -0.43,0.11 -0.65,0.41 3.83,3.16 13.04,4.69 17.66,3.69 1.1,-0.24 1.92,-0.43 2.95,-0.68 0.91,-0.23 1.92,-0.87 2.65,-0.46 -0.27,0.4 -0.4,0.37 -1.09,0.74 -0.44,0.24 -0.75,0.36 -1.14,0.5 -0.62,0.24 -1.63,0.66 -2.19,1.08 -0.6,0.46 -1.13,1.18 -1.74,1.7 -1.63,1.38 -4.22,3.13 -6.38,3.64 -2.59,0.62 -3.59,0.6 -5.5,-0.39 -0.41,-3.66 1.17,-3.54 1.83,-5.6l-7.45 -3.48c-1.2,-0.49 -1.27,0.53 -2.79,0.57zm-28.56 -14.57c0.87,0.59 1.12,-0.02 1.51,0.73 -0.25,0.28 -3.9,1.42 -5.64,2.33 -1.53,0.8 -3.85,2.22 -4.96,3.21 -5.25,4.68 -6.47,12.67 -2.15,17.08 5.93,6.05 4.37,5.12 12.22,7.94 0.53,0.19 1.07,0.28 1.59,0.41 0.23,0.06 0.72,0.16 0.87,0.21 0.85,0.29 0.42,-0.05 0.58,0.44 -1.34,0.73 -5.66,-1.15 -6.77,0.07 -0.31,0.34 -0.35,0.44 -0.49,0.84 3.57,2.63 16.82,5.05 22.61,4.77l6.52 -0.65c1.19,1.3 0.56,1.74 3.05,1.26 1.05,-0.2 3.01,-0.9 4.09,-0.87 0.06,0.23 0.08,0.43 0.18,0.71 0.02,0.05 0.08,0.21 0.11,0.26 0.13,0.28 0.05,0.16 0.23,0.37 1.69,-0.32 3.09,-1.76 4.18,-1.82 0.44,0.76 0.16,1.09 0.67,1.83 1.84,0.84 3.68,-1.84 4.78,-2.48 1.77,0.52 4.75,0.78 6.73,0.7 0.81,-0.03 5.54,-1.05 6.01,-1.35 -0.17,-1.34 -0.83,-0.01 -0.8,-1.63 1.84,0.24 1.52,0.24 3.51,0.12 1.33,-0.08 2.49,-0.11 3.75,-0.38 0.94,-0.2 4.75,-1.01 5.66,-1.43l0.65 -0.49 -2.49 -1.02c0.25,-0.5 0.04,-0.4 0.76,-0.65 0.56,-0.19 1.56,-0.23 3.41,-0.94 3.06,-1.17 4.61,-1.71 7.53,-3.75 0.49,-0.34 0.99,-0.69 1.58,-1.15 0.61,-0.46 1.18,-0.77 1.54,-1.4 -1.08,-0.66 -2.75,-0.7 -3.66,-1.45l2 -2.53c0.69,-0.88 1.27,-1.6 1.99,-2.55 0.5,-0.66 3.27,-4.84 3.17,-5.72 -0.68,-0.27 -2.7,-0.61 -3.5,0.48 -0.85,1.16 -1.27,2.46 -2.02,2.65 0.01,-0.62 0.65,-2.04 0.84,-2.76 1.4,-5.39 -0.23,-12.55 -4.8,-16.15 -0.8,-0.63 -1.42,-1.28 -2.38,-0.31 0.11,1.54 2.95,2.91 2.95,7.63 -0,1.25 -0.04,3.62 -1.26,4.26 0.52,-2.23 0.66,-3.94 -0.13,-6.01 -0.38,-1 -2.05,-3.7 -2.68,-4.07 -0.56,0.27 -0.47,0.32 -0.9,0.92 -4.69,6.55 -13.6,8.11 -21.32,6.98 -2.23,-0.33 -10.04,-2.39 -12.4,-3.09 -0.64,-0.19 -2.35,-0.55 -3.11,-0.67 -6.59,-1.1 -15.56,-2.8 -19.36,3.32 -3.03,4.89 0.46,7.83 0.64,9.53 -1.57,0.04 -3.77,-6.22 -2.91,-8.71 1.16,-3.37 2.93,-4.54 6.2,-5.91 -0.03,-1.54 -4.05,-7.18 -4.93,-8.27 -0.89,-1.1 -5.8,-6.57 -6.81,-6.52 -0.55,0.03 -1.93,2.65 -2.27,3.26 -1.86,3.3 -3.91,8.56 -4.37,12.44z"/>
   <path class="fil3" d="M32.79 158.8c-2.78,-1.64 -3.28,-2.89 -4.29,-5.54 -0.29,-0.77 -0.32,-1.14 -0.33,-2.13l0.07 -2.05c0,-0.06 0.02,-0.09 0.04,-0.12 0.67,0.39 0.44,0.83 0.79,1.73 1.19,3.08 2.62,5.02 4.94,7.26 1.25,1.2 2.29,1.39 2.44,2.31 -1.1,-0.06 -2.74,-0.9 -3.67,-1.45zm-16.32 -12.6c1.31,2.54 0.48,3.12 3.89,6.85 0.45,0.49 0.49,0.19 0.39,1.09 -1.94,-0.53 -3.94,-2.13 -4.62,-2.44 -0.27,1.92 -0.09,13.69 0.18,15.75 0.34,2.65 0.46,4.43 1.58,6.61 0.62,1.19 2.87,4.02 4.14,3.92 0.29,-1.73 -0.62,-6.92 0.43,-7.88 0.41,0.47 0.34,1.84 0.43,2.59 0.32,2.77 0.79,5.08 2.62,7.02 0.68,0.73 2.74,2.28 3.9,2.51 1.32,0.27 3.76,-1.34 4.22,-2.19 -0.28,-0.72 -0.8,-0.89 -1.49,-1.49 -4.12,-3.57 -4.87,-7.75 -0.3,-11.32 0.61,-0.48 0.52,-0.18 0.61,-0.82 -2.47,-1.55 -2.49,-0.68 -6.8,-4.1 -0.74,-0.59 -1.62,-1.05 -1.76,-2.12 1.05,0.45 2.1,1.31 3.35,2.01 8.26,4.66 10.74,1.51 13.33,2.24 -0.09,0.61 -0.22,0.62 -0.91,0.83 -1.64,0.49 -2.3,0.68 -3.98,1.63 -3.5,1.99 -4.09,2.65 -5.37,5.9 -0.55,1.4 -0.52,1.5 0.21,2.83 2.3,4.18 7.19,3.2 10.65,1.49 3.5,-1.72 6.35,-3.31 7.73,-7.52 0.66,-2.04 1,-4.54 0.92,-6.83 -0.21,-5.5 -2.28,-7.95 -3.16,-12 -0.78,-3.59 2.22,-5.47 5.75,-8.97 1.82,-1.8 6.01,-5.62 8.02,-7.07 1.35,-0.98 8.1,-6.07 9.22,-5.88 -0.35,0.8 -2.44,3.02 -3.21,3.87 -3.11,3.47 -3.57,2.94 -3.95,6.29 -0.14,1.21 -0.55,4.41 -0.38,5.44 0.9,0.62 3.21,1.62 4.37,1.96 4.77,1.42 12.58,2.18 17.64,1.95 1.52,-0.07 4.55,-0.24 5.82,-0.52 2.38,-0.53 5.6,-1.1 7.97,-1.84 0.79,-0.25 1.79,-0.55 2.54,-0.72 1.73,-0.4 3.33,-1.24 4.77,-1.73 0.22,-3.9 -2.45,-10.23 -4.22,-14.18 -1.17,-2.6 -3.74,-8.34 -5.38,-10.81 -0.3,-0.46 -0.68,-1.1 -0.94,-1.45 -1.93,-0.18 -1.76,0.86 -3.08,-0.67 -0.89,0.13 -0.73,0.33 -2.02,0.33 -0.77,-0 -1.66,-0.09 -2.39,-0.08 -1.24,0.02 -1.79,1.24 -3.04,1.76l-1.63 0.73c-2.09,0.82 -2.04,-1.33 -6.1,-0.64 -1.13,0.19 -1.18,0.01 -2.14,-0.1 -1.58,-0.18 -3.4,0.97 -6.44,-0.1 -1.83,-0.65 -2.17,-0.47 -4.27,-0.47 -6.07,0 -2.93,-1.01 -5.74,0.82l-10.61 6.29c-2.07,1.17 -9.57,6.54 -11.19,8.09 -0.53,0.51 -0.69,0.7 -1.41,0.34 -1.89,-0.96 -3.18,-1.94 -5.41,-1.93 -2.88,0 -5.19,1.63 -6.69,2.99l-2.24 2.12c-2.77,2.73 -6.3,-2.89 -9.95,-3.48 -3.58,-0.58 -5.29,0.64 -6.58,2.76 -0.76,1.25 -1.13,1.82 -0.98,3.56 0.17,2.01 0.03,2.34 0.7,4.2 0.88,2.43 2.45,4.26 5.2,4.4 0.66,0.04 1.65,0.04 2.26,-0.12 1.28,-0.34 4.34,-1.76 5.56,-1.69z"/>
   <path class="fil1" d="M93.61 170.57c0.29,0.92 5.66,6.02 5.66,9.45 0,1.2 -1.2,3.21 -1.87,4.02 -0.7,0.83 -2.46,2.49 -3.57,2.63 0.39,-1.39 2.18,-2.49 2.43,-3.52 -6.25,-0.69 -12.13,2.8 -13.72,8.6 -1.3,4.75 -0.24,9.4 3.39,12.62 2.4,2.13 8.01,4.69 11.06,5.83 1.27,0.47 2.98,1.01 4.33,1.32 1.38,0.31 3.21,0.68 4.55,1.09 1.48,0.45 3.06,0.68 4.55,1.08 3.66,0.99 11.65,1.78 15.49,1.78 3.02,0 5.53,-0.58 8,-1.46 2.34,-0.83 4.21,-1.99 6.04,-3.6 1.16,-1.02 3.73,-3.76 3.98,-5.69 0.74,-5.71 -0.39,-10.09 -4.62,-13.94 -3.09,-2.81 -8.48,-5.47 -12.84,-6.39 -1.98,-0.42 -6.12,-1.55 -8.42,-1.31 -0.85,1.88 -4.18,5.71 -6.06,5.95 -0.03,-0.64 0.01,-0.61 0.32,-0.99l0.77 -0.87c4.52,-5.38 5.03,-10 3.27,-16.67 -0.82,-3.11 -3.03,-5.72 -4.79,-7.78 -0.62,-0.73 -5.8,-6.08 -6.38,-6.31 -0.58,0.46 -4.08,7.55 -8,11.23 -1.11,1.04 -2.56,1.85 -3.58,2.91z"/>
   <path class="fil3" d="M136.85 136.08c-0.24,0.47 -0.31,0.56 -0.58,0.52 -0.73,-1.29 0.35,-2.71 -1.22,-6.39 -0.26,-0.61 -0.6,-1.13 -0.65,-1.82 0.72,0.12 0.53,0.09 0.97,0.75 1.47,2.18 2.79,4.4 1.48,6.94zm-40.69 -19.67c0.06,1.02 1.17,2.51 1.69,3.53l3.63 7.3c1.87,4.79 1.27,3.46 6.51,4.15 2.44,0.32 6.76,1.2 9.04,1.9 1.6,0.49 2.57,0.97 3.81,1.62 0.02,0.29 -0.39,4.04 -0.48,4.46 -0.44,2.13 -0.56,1.93 -0.04,4.12 0.19,0.77 0.14,1.32 0.28,2.09 1.76,9.02 9.78,20.63 18.84,15.26 2.27,-1.35 4.08,-2.79 3.93,-5.88 -0.11,-2.26 -2.18,-4.94 -3.45,-6.38 -2.32,-2.63 -4.96,-3.81 -5.25,-4.72 0.72,-0.32 2.74,1.14 3.87,0.81 1.64,-0.48 4.67,-3.48 5.84,-5.06 0.81,-1.1 1.64,-2.75 2.47,-3.08 0,1.95 -0.98,2.57 0.62,3.94 1.71,1.46 3.42,3.17 4.68,5.14 1.65,2.57 1.83,4.4 4.2,0.88 0.56,-0.84 0.85,-1.9 1.11,-3.08 0.27,-1.2 0.14,-2.82 0.12,-4.1 -0.05,-3.94 -4.52,-7.68 -6.37,-10.57 -0.39,-0.61 -1.41,-2.15 -1.86,-2.49l-2.79 1.74c-0.63,0.35 -2.68,1.31 -3.36,0.98 0.35,-0.9 0.93,-0.43 2.35,-1.62 0.74,-0.62 1.45,-1.48 2.02,-2.16 1.34,-1.59 -0.27,-5.38 2.53,-5.82 0.67,-0.1 1.23,-0.03 1.91,-0.14 1.54,-0.25 3.66,-0.64 4.69,-1.46 1.5,-1.19 2.85,-2.83 3.18,-5.2 0.29,-2.1 -1.55,-4.62 -2.56,-5.57 -1.2,-1.13 -3.81,-2.14 -6.03,-2.33 -2.64,-0.23 -4.49,1.1 -5.42,2.81 -1.1,2.03 0.04,5.09 -1.24,6.77 -1.44,1.88 -7.42,-1.28 -10,-1.36 -1.64,-0.05 -2.36,-0.01 -3.44,0.83 -3.57,2.75 -1.17,6.92 -3.42,6.69l-4.78 -1.62c-2.24,-0.51 -4.42,-1.05 -6.62,-1.56l-14.06 -2.68c-1.59,-0.13 -1.91,0.15 -3.19,0.73 -0.63,0.29 -2.61,0.9 -2.97,1.15z"/>
   <path class="fil3" d="M60.3 58.26c-1.41,-0.05 -1.75,-1.98 -2.18,-2.74 -1.5,0.15 -6.74,4.87 -7.32,6.18 1.09,1.44 2.65,2.66 3.75,3.74 2.67,2.63 4.44,4.99 6.83,8.07 4.21,5.41 0.81,4.15 10.92,4.24 1.51,0.01 5.16,0.41 6.7,0.68 1.88,0.33 4.57,0.66 6.27,1.2 1.93,0.62 4.13,1.03 6.17,1.49 4.89,1.1 7.88,1.92 12.67,0.05 5.18,-2.02 9.56,-5.61 11.82,-10.77 1.48,-3.37 0.56,-9.02 -2.55,-11.44 -3.05,-2.37 -4.8,-2.27 -8.37,-2.27 -2.37,0 -5.16,1.46 -6.34,2.48 -4.76,4.1 -5.43,10.55 -8.87,13.14 -1.2,0.9 -2.56,0.39 -3.54,0.99 -2.32,1.43 -2.47,2.45 -6.34,2.45 -5.06,-0.01 -8.73,-2.47 -11.45,-6.26 -2.42,-3.36 -2.58,-9.04 -0.27,-12.97l1.68 -1.98c2.43,-1.7 6.07,0.12 8,1.72 1.16,0.96 3.19,3.38 3.86,3.54 3.25,-4.03 4.86,-5.84 10.4,-2.52 1.01,0.61 2.71,2.5 3.42,2.7 0.82,-0.41 2.76,-2.29 3.09,-3.03 -1.16,-2.06 -6.16,-4.84 -9.09,-5.32 -0.5,0.41 -0.79,1.07 -1.82,1.04 -2.25,-0.07 -2.83,-2.73 -5.82,-2.9 -1.5,-0.08 -0.84,-0.51 -1.73,-0.93 -1.62,-0.76 -7.73,-0.66 -10.43,-0.18 -1.08,0.19 -0.92,0.85 -2.31,0.44 -2.37,-0.7 -2.29,-0.72 -4.11,0.71 -3.11,2.44 -2.2,6.73 -3.03,8.41z"/>
   <path class="fil4" d="M71.72 70.79c-0.52,-5.71 2.33,-4.87 2.93,-4.18 2.25,2.6 0.4,5.74 0.29,6.37 0.88,0.76 4.43,1.75 6.05,1.64 1.77,-0.12 4.31,-1.89 4.86,-2.92 -0.45,-1.04 -1.33,-1.76 -1.3,-3.46 0.03,-1.57 0.71,-2.66 2.28,-2.62 1.96,1.27 1.22,3.42 0.98,5.66 3.5,-1.16 5.15,-4.91 6.65,-8.16 0.3,-0.65 0.5,-0.92 0.01,-1.57 -2.56,-3.35 -6.5,-7.28 -10.18,-2.21l-1.9 3c-0.72,-0.33 -1.95,-2.13 -2.5,-2.8 -1.07,-1.28 -4.43,-4.07 -6.05,-4.45 -5.65,-1.33 -7.16,5.81 -6.17,9.21 0.52,1.79 2.55,6.21 4.06,6.48z"/>
   <path class="fil3" d="M27.38 95.7c0.02,-0.04 0.04,-0.16 0.05,-0.13l0.23 -1.56c0.59,-3.74 1.96,-7.53 4.63,-10.13 2.29,-2.23 4.8,-3.73 7.98,-4.53 1.47,-0.37 2.08,-0.6 1.83,-2.41 -4.84,-2.17 -11.97,-0.12 -15.11,3.82 -5.31,6.66 -1.48,14.17 0.4,14.94z"/>
   <path class="fil3" d="M139.88 146.22c0.51,1.16 2.8,1.84 3.96,4.27 1.01,2.11 1.54,5.31 2.08,6.08 2.07,-0.09 4.72,-2.51 5.6,-4.02 1.37,-2.32 -1,-7.65 -3.72,-9.86 -3.43,-2.8 -2.17,-1.61 -5.21,1.31 -0.36,0.34 -0.81,0.76 -1.25,1.11 -0.47,0.36 -1.11,0.69 -1.46,1.12z"/>
   <path class="fil5" d="M82.6 96.8c-0.65,1.07 -2.55,3.85 -0.7,4.73 1.24,0.59 4.36,0.25 5.45,-1.11 -0.17,-0.89 -0.77,-2.37 -1.17,-2.97 -0.51,-0.75 -2.31,-0.82 -3.57,-0.65z"/>
   <path class="fil0" d="M36.46 160.26c-0.15,-0.92 -1.19,-1.11 -2.44,-2.31 -2.32,-2.24 -3.75,-4.19 -4.94,-7.26 -0.34,-0.89 -0.11,-1.33 -0.79,-1.73 -0.02,0.04 -0.04,0.06 -0.04,0.12l-0.07 2.05c0.01,0.99 0.04,1.36 0.33,2.13 1.01,2.65 1.51,3.91 4.29,5.54 0.93,0.55 2.56,1.39 3.67,1.45z"/>
   <path class="fil4" d="M60.07 57.12c0.3,-0.77 0.16,-2.04 0.3,-2.92 0.81,-5.22 3.55,-4.85 3.95,-6.13 -1.07,-0.67 -2.2,-0.29 -3.13,0.19 -2.16,1.11 -2.22,3.71 -2.25,5.81 -0.01,1.23 -0.08,2.96 1.13,3.05z"/>
   <path class="fil0" d="M136.27 136.6c0.27,0.05 0.34,-0.05 0.58,-0.52 1.32,-2.54 -0.01,-4.76 -1.48,-6.94 -0.44,-0.66 -0.25,-0.63 -0.97,-0.75 0.05,0.69 0.39,1.2 0.65,1.82 1.57,3.68 0.49,5.1 1.22,6.39z"/>
   <path class="fil6" d="M81.91 49.17c1.58,0.46 2.18,-0.08 3.52,1.04 0.45,0.37 0.7,0.66 1.13,1.05 0.12,0.11 0.17,0.15 0.29,0.25 0.66,0.59 0.54,0.55 1.31,0.62 -0.06,-1.11 -1.62,-2.41 -2.45,-2.93 -0.99,-0.61 -1.89,-1.05 -3.02,-0.74 -0.95,0.26 -0.76,0.61 -0.78,0.71z"/>
  </g>
 </g>
</svg>
