<?xml version="1.0" encoding="UTF-8"?>
<!DOCTYPE svg PUBLIC "-//W3C//DTD SVG 1.1//EN" "http://www.w3.org/Graphics/SVG/1.1/DTD/svg11.dtd">
<!-- Creator: CorelDRAW -->
<svg xmlns="http://www.w3.org/2000/svg" xml:space="preserve" width="21.7325mm" height="21.14mm" version="1.1" style="shape-rendering:geometricPrecision; text-rendering:geometricPrecision; image-rendering:optimizeQuality; fill-rule:evenodd; clip-rule:evenodd"
viewBox="0 0 37.33 36.31"
 xmlns:xlink="http://www.w3.org/1999/xlink"
 xmlns:xodm="http://www.corel.com/coreldraw/odm/2003">
 <defs>
  <style type="text/css">
   <![CDATA[
    .fil0 {fill:#2A2A2A}
    .fil4 {fill:#2D2D2D}
    .fil7 {fill:#2F322F}
    .fil3 {fill:#333333}
    .fil10 {fill:#585757}
    .fil12 {fill:#63635B}
    .fil13 {fill:#686868}
    .fil11 {fill:#787878}
    .fil9 {fill:#959697}
    .fil8 {fill:#9DA3A7}
    .fil14 {fill:#A6A8A9}
    .fil6 {fill:#F52F2E}
    .fil2 {fill:#F8DCBE}
    .fil5 {fill:#FDFDFD}
    .fil1 {fill:#FEFEFE}
   ]]>
  </style>
 </defs>
 <g id="Camada_x0020_1">
  <metadata id="CorelCorpID_0Corel-Layer"/>
  <g id="_2064430293632">
   <path class="fil0" d="M10.73 29.8c-0.05,0.52 -0.93,0.95 -1.51,1.03 -0.7,0.09 -1.52,-0.19 -2.07,-0.51 -0.92,-0.53 -1.82,-2.36 -1.27,-3.7 0.36,0.22 0.53,1.13 1.81,2.22 1.01,0.86 1.46,0.9 3.04,0.96zm19.55 -1.1c0.55,-0.85 3.28,0.2 4.24,-4.13 0.1,0.07 0.03,0.01 0.12,0.1 0.05,0.06 0.01,-0 0.08,0.12 0.03,0.05 0.09,0.18 0.1,0.22 0.09,0.19 0.12,0.27 0.2,0.48 0.38,1.12 0.11,2.19 -0.69,2.94 -1.32,1.23 -3.84,0.88 -4.05,0.27zm-4.76 -3.76c-0.17,0.07 -0.11,0.02 -0.08,0.14 0.01,0.13 0.14,0.18 0.3,0.34 0.11,0.11 0.22,0.25 0.34,0.39 0.19,0.24 0.37,0.65 0.55,0.85 0.06,0.08 0.07,0.03 0.1,0.19 0.05,0.29 -0.2,0.31 -0.28,0.33 0.1,0.16 0.13,0.24 -0,0.4l-0.17 0.76 0.05 0.2 0.71 -1.28c0.26,0.05 0.92,0.49 1.21,0.64 0.24,0.13 0.38,0.2 0.63,0.3 0.19,0.07 0.52,0.16 0.65,0.24 0.01,0.41 -0.64,1.4 -0.87,1.7 -0.39,0.52 -0.83,0.98 -1.25,1.34 -0.73,0.64 -2.36,1.81 -3.42,1.74 0.06,-0.42 0.53,-0.26 0.31,-0.78 -0.31,0.02 -0.47,0.35 -0.69,0.56 -0.19,0.19 -0.44,0.37 -0.67,0.53 -1.61,1.07 -2.5,0.6 -4.43,-0.15 -0.73,-0.28 -0.35,-0.05 -0.86,0.04 -0.81,0.15 -2.99,-0.91 -3.54,-1.24 -0.71,-0.43 -2.19,-1.7 -2.39,-2.41 0.22,-0.31 2.27,-1.8 2.67,-1.89 0.25,0.02 0.21,0.36 0.9,0.42 0.27,0.02 0.21,0.01 0.3,-0.06 -0.14,-0.25 0.04,-0.05 -0.29,-0.2 -0.23,-0.11 -0.64,-0.41 -0.67,-0.53 0.04,-0.35 0.66,-1.12 0.82,-1.2 -0.13,-0.19 0.08,-0.14 -0.27,-0.01 -0.34,0.1 -2.16,1.66 -2.66,2.07 -1.21,1.01 -1.34,1.42 -3.43,0.91 -1.08,-0.26 -2.07,-1.32 -2.55,-2.24 -0.48,-0.92 1.13,-2.11 1.29,-3.12l0.08 -0.21c-0.18,0.15 -0.09,0.06 -0.25,0.11 -0.5,0.33 -1.07,2.03 -1.52,2.61 -0.1,-0.17 0.12,-0.72 0.16,-1.02 0.06,-0.4 0.06,-0.82 0.06,-1.23 0.01,-2.12 1.12,-3 1.04,-4.12 -0.05,-0.66 -0.31,-1.48 -0.49,-2.1 -0.14,-0.49 -0.58,-1.64 -0.41,-2.12 0.53,-1.46 3.92,-0.67 3.29,2.97 0.29,-0.13 0.66,-0.5 1.02,-0.73 0.7,-0.43 1.73,-0.7 2.55,-0.91 0.23,-0.06 1.27,-0.2 1.36,-0.24 0.02,-0.02 0.03,-0.05 0.04,-0.06l0.09 -0.14 4.34 0.01c-0.06,-0.1 -0.06,-0.15 -0.27,-0.22 -0.17,-0.06 -0.3,-0.06 -0.48,-0.06 -1.06,-0.02 -4.36,-0.01 -5.14,0.21 -0.52,0.14 -0.99,0.43 -1.41,0.62 -0.02,-1.07 1.32,-3.21 2.82,-3.89 0.94,-0.42 2,-0.16 2.72,0.26 0.4,0.23 0.66,0.5 0.94,0.79 0.39,0.4 0.54,0.78 0.78,0.88 0.4,-0.89 0.64,-1.44 1.29,-2.03 0.55,-0.49 1.51,-0.94 2.45,-0.73 1.18,0.27 3.44,2.07 3.34,3.01 -0.04,0.39 -1.16,0.2 -1.84,0.21 -0.62,0.01 -1.07,0.09 -1.66,0.15l-0.11 0.07c-0,-0.01 0,-0.01 0,-0.02 0.14,0.15 -0.06,0.04 0.18,0.07 0.16,0.02 0.26,-0.04 0.61,0.05 0.48,0.13 1.12,-0 1.64,0.01 2.52,0.07 3.07,0.84 3.86,0.9l0.29 0.06c-0.17,-0.26 -0.15,-0.24 -0.16,-0.56 0.11,-0.39 0.04,-0.13 0.16,-0.23 1.67,-3.48 3.53,-2.18 3.68,-1.61 0.12,0.44 -0.2,1.4 -0.31,1.84 -0.58,2.31 -0.38,2.03 0.43,3.36 0.37,0.6 1.22,2.44 1.08,3.14l-0.07 0.15c-0.22,-0.42 -0.65,-2 -1.23,-2.24 -0.04,0.4 0.47,1.4 0.69,1.79 0.11,0.2 0.44,0.59 0.49,0.79 0.06,0.26 0.04,0.91 0.01,1.19 -0.13,1.21 -1.06,2.75 -1.97,2.95 -0.36,0.08 -0.75,0.08 -1.12,0.16 -1.1,0.24 -1.93,0.18 -2.96,-0.46 -1.38,-0.86 -1.87,-2.32 -2.46,-2.42zm-5.32 -13.87c-0.13,0.2 -0.35,0.2 -0.58,0.33 -0.07,1.02 -1.55,0.21 -1.81,0.09 -1.17,-0.51 -1.08,-0.13 -1.11,-1.59 -0.08,-3.29 -0.86,-5.69 -3.82,-7.24 -4.08,-2.13 -8.83,-0.67 -11.35,3.32 -1.47,2.34 -2.17,5.83 -0.72,8.7 1.64,3.24 3.22,2.68 4.2,3.97 0.54,0.71 0.59,1.18 0.29,2.2 -0.47,1.57 -0.74,2.81 -1.02,4.51 -0.39,2.36 -0.73,4.56 1.22,6.42 1.03,0.98 2.69,1.39 4.12,0.97 1.21,-0.36 1.05,-0.49 2.03,0.25 2.16,1.65 3.11,1.89 5.73,2.51 3.37,0.79 2.98,1.35 6.61,-0.08 0.65,-0.26 1.28,-0.51 1.93,-0.79 1.44,-0.62 2.87,-1.88 3.93,-2.98 0.32,-0.33 0.31,-0.45 0.97,-0.42 2.09,0.11 2.94,0.08 4.35,-1.04 1.64,-1.3 2.36,-3.93 1.38,-5.96 -0.38,-0.79 -0.49,-1.13 -0.69,-2.09 -0.15,-0.74 -0.36,-1.46 -0.61,-2.11 -0.72,-1.87 -1.51,-1.95 -0.65,-4.09 0.84,-2.1 1.9,-1.74 2.61,-5.62 0.54,-2.96 -0.93,-6.03 -2.94,-7.86 -2.28,-2.07 -5.07,-3.09 -8.15,-2.04 -1.66,0.56 -2.42,1.01 -3.45,2.07 -0.88,0.91 -1.7,1.74 -2.08,3.44 -0.57,2.49 0.14,3.65 0.1,4.96 -0.15,0.1 -0.24,0.19 -0.49,0.19z"/>
   <path class="fil1" d="M31.03 24.06c0.37,0.15 1.71,1.97 1.69,2.56 -0.4,-0.17 -1.7,-1.97 -1.69,-2.56zm0.78 -1.76c0.69,0.07 1.53,2.01 1.27,2.48 -0.07,-0.05 -0.03,-0.01 -0.1,-0.1 -0.23,-0.3 -1.15,-2.24 -1.17,-2.38zm-2.56 -5.99l-0.03 0.59c0.25,0.2 0.55,0.36 0.84,0.55 0.24,0.09 0.31,0.08 0.35,0.34 -0.09,-0.01 -0.17,-0.02 -0.24,-0.05 -0.16,-0.07 -0.11,-0.07 -0.17,-0.14 -0.2,-0.05 -0.88,-0.36 -1.03,-0.56 -0.79,-0.07 -1.33,-0.84 -3.86,-0.9 -0.52,-0.01 -1.16,0.12 -1.64,-0.01l-1.49 0.29c-0.87,0.2 -3.41,1.1 -2.59,2.38 0.25,-0.01 2.41,-0.78 3.33,-0.66 0.12,-0.07 -0.17,-0.09 0.52,-0.11 0.2,-0 0.4,-0.02 0.6,-0.02 0.25,-0 0.79,0.05 1.02,0.12l0 0.16 -1.53 0.05c-0.8,-0.08 -2.97,0.51 -3.71,0.76 -0.34,0.11 -0.38,0.25 -0.49,0.65 -0.57,2.05 1.13,1.31 1.68,1.34 0.11,-0.15 -0.05,-0.06 0.23,-0.13 0.02,-0.01 0.23,-0.01 0.27,-0.01l3.17 0.14c0.27,0.02 0.32,-0.02 0.42,0.17 -0.21,0.22 -3.33,0.08 -4.81,0.46l-0.21 0.04c-0.36,1.87 1.14,1.53 2.46,1.85 0.82,0.2 2.83,0.75 3.17,1.34 0.58,0.11 1.08,1.56 2.46,2.42 1.03,0.64 1.85,0.71 2.96,0.46 0.37,-0.08 0.76,-0.08 1.12,-0.16 0.91,-0.2 1.83,-1.74 1.97,-2.95 0.03,-0.28 0.06,-0.93 -0.01,-1.19 -0.05,-0.2 -0.38,-0.59 -0.49,-0.79 -0.22,-0.39 -0.73,-1.39 -0.69,-1.79 0.59,0.24 1.01,1.83 1.23,2.24l0.07 -0.15c0.13,-0.7 -0.72,-2.54 -1.08,-3.14 -0.81,-1.32 -1,-1.05 -0.43,-3.36 0.11,-0.44 0.42,-1.4 0.31,-1.84 -0.15,-0.56 -2.01,-1.87 -3.68,1.61z"/>
   <path class="fil1" d="M9.11 28.17c0.06,-0.48 1.19,-1.52 1.67,-1.62 -0.05,0.39 -0.46,0.75 -0.71,1 -0.17,0.17 -0.6,0.59 -0.96,0.61zm-1.35 -1.05c0.01,-0.46 1.11,-2.37 1.76,-2.23 0.05,0.3 -0.43,0.65 -0.83,1.15 -0.44,0.55 -0.57,1.02 -0.93,1.08zm-0.08 -3.3c0.11,-0.21 0.2,-0.25 0.42,-0.32 -0.03,0.13 -0.02,0.16 -0.09,0.28 -0.16,0.26 -0,0.03 -0.16,0.14 -0.16,1.01 -1.78,2.2 -1.29,3.12 0.48,0.92 1.47,1.98 2.55,2.24 2.09,0.51 2.22,0.1 3.43,-0.91 0.49,-0.41 2.31,-1.97 2.66,-2.07 0.08,-0.14 0.02,-0.06 0.1,-0.16 0,-0 0.1,-0.1 0.11,-0.1 0.13,-0.11 0.08,-0.06 0.23,-0.16 0.16,-0.1 0.27,-0.2 0.44,-0.28l0.15 -0.12c0.6,-0.51 2.82,-1.65 3.49,-1.82l0 -0.14c0.02,-0.2 -0.19,-0.59 -0.23,-0.87 -0.04,-0.32 -0,-0.82 -0.15,-1.07 -0.42,-0.71 -1.51,-0.12 -1.87,-0.18 -0.14,0.16 -0.1,0.13 -0.36,0.24l-1.12 0.51c0.07,-0.24 -0.12,-0.05 0.38,-0.38 0.17,-0.11 0.26,-0.19 0.48,-0.29l1.73 -0.67c0.1,-0.43 0.42,-2.15 0.32,-2.5 -0.42,-0.07 -1.46,0.09 -1.84,0.17 -0.69,0.14 -1.34,0.45 -1.52,0.49 -0.08,0.11 -0,0.04 -0.11,0.13l-0.43 0.18c0.03,-0.33 0.06,-0.25 0.27,-0.33 0.71,-0.61 1.16,-0.66 2.18,-0.83 0.34,-0.06 0.99,-0.1 1.33,-0.19 0.32,-0.09 0.52,-0.71 0.48,-1.04 -1.39,-0.05 -3.18,-0.06 -4.51,0.06 -0.08,0.04 -1.13,0.18 -1.36,0.24 -0.82,0.2 -1.85,0.47 -2.55,0.91 -0.36,0.22 -0.73,0.59 -1.02,0.73 0.63,-3.64 -2.75,-4.43 -3.29,-2.97 -0.18,0.49 0.26,1.63 0.41,2.12 0.18,0.62 0.44,1.43 0.49,2.1 0.08,1.12 -1.03,2 -1.04,4.12 -0,0.41 -0.01,0.82 -0.06,1.23 -0.04,0.29 -0.25,0.84 -0.16,1.02 0.45,-0.58 1.02,-2.28 1.52,-2.61z"/>
   <path class="fil2" d="M17.73 26.64c-0.18,-0.7 0.51,-1.19 0.92,-1.47 0.99,-0.69 3.14,-0.8 4.08,-0.32 1.37,0.69 1.39,2.09 0.19,2.93 -0.86,0.6 -2.96,0.8 -4.03,0.16 -0.43,-0.26 -1.02,-0.74 -1.16,-1.3zm-1.64 -1.04c0.21,-0.04 0.05,-0.03 0.11,0.04 -0.1,0.11 -0.21,0.19 -0.34,0.31 -0.25,0.24 -0.05,0.24 -0.38,0.35 -0.16,0.08 -0.78,0.84 -0.82,1.2 0.03,0.13 0.44,0.43 0.67,0.53 0.33,0.15 0.14,-0.05 0.29,0.2 -0.09,0.07 -0.03,0.08 -0.3,0.06 -0.69,-0.06 -0.65,-0.4 -0.9,-0.42 -0.41,0.09 -2.45,1.57 -2.67,1.89 0.2,0.71 1.67,1.98 2.39,2.41 0.55,0.33 2.72,1.39 3.54,1.24 0.51,-0.1 0.13,-0.32 0.86,-0.04 1.93,0.75 2.81,1.22 4.43,0.15 0.23,-0.15 0.47,-0.33 0.67,-0.53 0.21,-0.21 0.38,-0.54 0.69,-0.56 0.22,0.52 -0.25,0.36 -0.31,0.78 1.06,0.07 2.69,-1.1 3.42,-1.74 0.42,-0.37 0.86,-0.82 1.25,-1.34 0.23,-0.3 0.88,-1.29 0.87,-1.7 -0.14,-0.09 -0.46,-0.17 -0.65,-0.24 -0.26,-0.1 -0.39,-0.17 -0.63,-0.3 -0.29,-0.15 -0.95,-0.59 -1.21,-0.64l-0.71 1.28c-0.17,0.62 -2.85,3.69 -3.28,4.09 -0.2,0.28 -0.61,0.51 -1,0.66 -0.53,0.2 -0.83,0.23 -1.4,0.14 -1,-0.16 -1.83,-0.42 -2.19,-1.2 -0.52,-0.32 -1.37,-1.05 -1.93,-1.52 -0.56,-0.47 -1.52,-1.09 -1.58,-1.89 0.25,0.21 0.34,0.53 0.98,1.09 0.31,0.28 0.74,0.59 1.27,0.79 2.2,0.83 4.67,0.71 6.87,-0.38 0.38,-0.19 1.51,-1.02 1.8,-1.33 0.19,-0.2 0.23,-0.48 0.41,-0.66l0.17 -0.76 0 -0.28c-0.46,0.05 -0.29,0.17 -0.55,0.02 0.03,-0.05 -0.04,-0.13 0.31,-0.22 0.21,-0.05 0.25,-0.02 0.43,-0.1l-0.01 -0.34c-0.18,-0.21 -0.36,-0.61 -0.55,-0.85 -0.11,-0.15 -0.22,-0.28 -0.34,-0.39 -0.15,-0.15 -0.29,-0.21 -0.3,-0.34 -0.39,-0.15 -0.67,-0.42 -1.19,-0.63 -0.37,-0.15 -0.85,-0.33 -1.2,-0.45 -1.06,-0.36 -1.96,-0.13 -3.13,-0.23 -0.12,-0.17 -0.04,-0.1 -0.2,-0.25l0 0.14c-0.66,0.17 -2.88,1.32 -3.49,1.82l-0.15 0.12z"/>
   <path class="fil2" d="M19.22 16.76c0.49,0.17 1.16,-0.25 1.72,-0.4 0.5,-0.13 1.35,-0.36 1.84,-0.4 0.59,-0.06 1.04,-0.13 1.66,-0.15 0.68,-0.01 1.8,0.17 1.84,-0.21 0.1,-0.94 -2.16,-2.74 -3.34,-3.01 -0.94,-0.22 -1.91,0.24 -2.45,0.73 -0.65,0.58 -0.89,1.13 -1.29,2.03 -0.25,-0.09 -0.39,-0.47 -0.78,-0.88 -0.29,-0.29 -0.54,-0.55 -0.94,-0.79 -0.72,-0.42 -1.78,-0.68 -2.72,-0.26 -1.5,0.68 -2.85,2.81 -2.82,3.89 0.42,-0.2 0.89,-0.48 1.41,-0.62 0.78,-0.22 4.08,-0.23 5.14,-0.21 0.18,0 0.32,0 0.48,0.06 0.2,0.07 0.21,0.12 0.27,0.22z"/>
   <path class="fil0" d="M17.73 26.64c0.14,0.56 0.74,1.04 1.16,1.3 1.06,0.64 3.17,0.44 4.03,-0.16 1.2,-0.84 1.18,-2.24 -0.19,-2.93 -0.94,-0.48 -3.1,-0.37 -4.08,0.32 -0.4,0.28 -1.1,0.77 -0.92,1.47z"/>
   <path class="fil3" d="M19.22 16.76l-4.34 -0.01 -0.09 0.14c-0.01,0.01 -0.03,0.04 -0.04,0.06 1.33,-0.12 3.12,-0.11 4.51,-0.06 0.04,0.33 -0.16,0.95 -0.48,1.04 -0.34,0.09 -0.99,0.13 -1.33,0.19 -1.01,0.17 -1.47,0.22 -2.18,0.83 -0.04,0.17 -0.09,0.04 0.01,0.11l0.26 -0.09c0.18,-0.04 0.83,-0.35 1.52,-0.49 0.38,-0.08 1.43,-0.23 1.84,-0.17 0.11,0.35 -0.21,2.07 -0.32,2.5l-1.73 0.67c0.11,0.13 -0.19,0.22 0.27,0.05 0.16,-0.06 0.13,-0.07 0.35,-0.12 0.35,0.05 1.44,-0.54 1.87,0.18 0.15,0.25 0.11,0.75 0.15,1.07 0.04,0.28 0.25,0.68 0.23,0.87 0.16,0.15 0.08,0.09 0.2,0.25 1.17,0.1 2.07,-0.13 3.13,0.23 0.35,0.12 0.83,0.3 1.2,0.45 0.52,0.21 0.81,0.48 1.19,0.63 -0.02,-0.12 -0.09,-0.07 0.08,-0.14 -0.33,-0.58 -2.34,-1.14 -3.17,-1.34 -1.32,-0.32 -2.83,0.02 -2.46,-1.85l0.21 -0.04c0.11,-0.15 -0.12,-0.07 0.28,-0.18 0.01,-0 0.19,-0.01 0.22,-0.02 0.17,-0.02 0.34,-0.04 0.52,-0.06 1.31,-0.13 2.1,-0.12 3.34,-0.2l-1.75 -0.2c-0.59,-0.02 -1.31,-0.02 -1.89,0.04 -0.55,-0.04 -2.26,0.7 -1.68,-1.34 0.11,-0.4 0.15,-0.53 0.49,-0.65 0.74,-0.24 2.92,-0.83 3.71,-0.76 0.1,-0.06 -0.11,-0.04 0.24,-0.1l0.67 -0.04c-0.36,-0.18 -1.07,-0.03 -1.52,-0.06 -0.92,-0.13 -3.08,0.65 -3.33,0.66 -0.82,-1.28 1.71,-2.18 2.59,-2.38l1.49 -0.29c-0.35,-0.09 -0.45,-0.02 -0.61,-0.05 -0.24,-0.03 -0.04,0.08 -0.18,-0.07 -0,0.01 -0,0.02 -0,0.02l0.11 -0.07c-0.49,0.04 -1.33,0.26 -1.84,0.4 -0.56,0.15 -1.24,0.56 -1.72,0.4z"/>
   <path class="fil4" d="M18.45 32.23c0.35,-0.08 0.53,-0.27 1.01,-0.31 0.42,-0.04 0.89,0 1.33,-0.02 0.51,-0.03 1.95,-0.47 2.3,-0.18 0.35,0.33 -0.67,0.79 -0.05,0.91 0.43,-0.4 3.11,-3.46 3.28,-4.09l-0.05 -0.2c-0.18,0.18 -0.22,0.46 -0.41,0.66 -0.29,0.31 -1.42,1.14 -1.8,1.33 -2.2,1.09 -4.67,1.21 -6.87,0.38 -0.53,-0.2 -0.96,-0.51 -1.27,-0.79 -0.64,-0.56 -0.73,-0.88 -0.98,-1.09 0.06,0.79 1.02,1.42 1.58,1.89 0.56,0.47 1.41,1.2 1.93,1.52z"/>
   <path class="fil5" d="M30.29 28.7c0.21,0.61 2.73,0.97 4.05,-0.27 0.81,-0.75 1.08,-1.82 0.69,-2.94 -0.07,-0.21 -0.11,-0.29 -0.2,-0.48 -0.02,-0.04 -0.07,-0.17 -0.1,-0.22 -0.07,-0.12 -0.03,-0.06 -0.08,-0.12 -0.09,-0.1 -0.02,-0.03 -0.12,-0.1 -0.97,4.33 -3.69,3.28 -4.24,4.13z"/>
   <path class="fil5" d="M10.73 29.8c-1.58,-0.06 -2.03,-0.1 -3.04,-0.96 -1.28,-1.09 -1.44,-2.01 -1.81,-2.22 -0.55,1.34 0.35,3.17 1.27,3.7 0.54,0.31 1.37,0.6 2.07,0.51 0.59,-0.08 1.46,-0.5 1.51,-1.03z"/>
   <path class="fil6" d="M18.45 32.23c0.36,0.77 1.19,1.03 2.19,1.2 0.57,0.09 0.87,0.07 1.4,-0.14 0.39,-0.15 0.8,-0.39 1,-0.66 -0.62,-0.13 0.41,-0.58 0.05,-0.91 -0.35,-0.29 -1.79,0.16 -2.3,0.18 -0.43,0.02 -0.91,-0.01 -1.33,0.02 -0.48,0.04 -0.67,0.24 -1.01,0.31z"/>
   <path class="fil7" d="M32.73 26.62c0.02,-0.58 -1.33,-2.4 -1.69,-2.56 -0,0.59 1.3,2.39 1.69,2.56z"/>
   <path class="fil4" d="M33.08 24.78c0.25,-0.47 -0.58,-2.41 -1.27,-2.48 0.02,0.14 0.93,2.08 1.17,2.38 0.07,0.09 0.03,0.05 0.1,0.1z"/>
   <path class="fil7" d="M7.77 27.12c0.36,-0.06 0.49,-0.52 0.93,-1.08 0.4,-0.51 0.88,-0.85 0.83,-1.15 -0.65,-0.14 -1.75,1.77 -1.76,2.23z"/>
   <path class="fil8" d="M20.1 21.72c1.48,-0.38 4.6,-0.23 4.81,-0.46 -0.11,-0.19 -0.16,-0.15 -0.42,-0.17l-3.17 -0.14c-0.04,0 -0.25,0.01 -0.27,0.01 -0.28,0.07 -0.12,-0.02 -0.23,0.13 0.58,-0.07 1.31,-0.06 1.89,-0.04l1.75 0.2c-1.24,0.08 -2.03,0.07 -3.34,0.2 -0.18,0.02 -0.34,0.04 -0.52,0.06 -0.04,0 -0.21,0.02 -0.22,0.02 -0.4,0.11 -0.16,0.03 -0.28,0.18z"/>
   <path class="fil7" d="M9.11 28.17c0.36,-0.02 0.79,-0.44 0.96,-0.61 0.26,-0.26 0.66,-0.62 0.71,-1 -0.48,0.1 -1.61,1.14 -1.67,1.62z"/>
   <path class="fil9" d="M23.33 18.35l1.53 -0.05 -0 -0.16c-0.23,-0.07 -0.77,-0.12 -1.02,-0.12 -0.2,0 -0.4,0.01 -0.6,0.02 -0.7,0.02 -0.4,0.04 -0.52,0.11 0.45,0.03 1.15,-0.12 1.52,0.06l-0.67 0.04c-0.35,0.06 -0.14,0.04 -0.24,0.1z"/>
   <path class="fil10" d="M28.96 17.04c0.15,0.19 0.82,0.51 1.03,0.56l0.19 0.02 -0.12 -0.17c-0.29,-0.18 -0.59,-0.35 -0.84,-0.55l0.03 -0.59c-0.12,0.11 -0.05,-0.15 -0.16,0.23 0,0.32 -0.01,0.3 0.16,0.56l-0.29 -0.06z"/>
   <path class="fil11" d="M16.86 21.47c-0.22,0.11 -0.31,0.18 -0.48,0.29 -0.49,0.33 -0.3,0.14 -0.38,0.38l1.12 -0.51c0.27,-0.11 0.23,-0.08 0.36,-0.24 -0.22,0.05 -0.2,0.07 -0.35,0.12 -0.46,0.17 -0.16,0.08 -0.27,-0.05z"/>
   <path class="fil9" d="M15.21 26.3c0.35,-0.14 0.14,-0.18 0.27,0.01 0.33,-0.11 0.13,-0.11 0.38,-0.35 0.13,-0.12 0.24,-0.2 0.34,-0.31 -0.06,-0.07 0.1,-0.08 -0.11,-0.04 -0.17,0.09 -0.28,0.18 -0.44,0.28 -0.15,0.09 -0.1,0.04 -0.23,0.16 -0,0 -0.1,0.1 -0.11,0.1 -0.08,0.1 -0.02,0.02 -0.1,0.16z"/>
   <path class="fil12" d="M26.44 27.57c0.13,-0.15 0.11,-0.24 0,-0.4 0.08,-0.03 0.33,-0.05 0.28,-0.33 -0.03,-0.16 -0.04,-0.11 -0.1,-0.19l0.01 0.34c-0.18,0.08 -0.22,0.05 -0.43,0.1 -0.35,0.09 -0.28,0.17 -0.31,0.22 0.25,0.16 0.08,0.03 0.55,-0.02l-0 0.28z"/>
   <path class="fil13" d="M7.69 23.82c0.16,-0.05 0.08,0.04 0.25,-0.11l-0.08 0.21c0.15,-0.11 -0,0.11 0.16,-0.14 0.07,-0.11 0.06,-0.15 0.09,-0.28 -0.22,0.07 -0.31,0.12 -0.42,0.32z"/>
   <path class="fil14" d="M15.53 18.96l-0.26 0.09c-0.1,-0.08 -0.05,0.06 -0.01,-0.11 -0.21,0.07 -0.23,-0 -0.27,0.33l0.43 -0.18c0.11,-0.08 0.03,-0.01 0.11,-0.13z"/>
   <path class="fil9" d="M29.99 17.6c0.07,0.07 0.01,0.06 0.17,0.14 0.07,0.03 0.15,0.04 0.24,0.05 -0.03,-0.26 -0.1,-0.24 -0.35,-0.34l0.12 0.17 -0.19 -0.02z"/>
  </g>
 </g>
</svg>
