<?xml version="1.0" encoding="UTF-8"?>
<!DOCTYPE svg PUBLIC "-//W3C//DTD SVG 1.1//EN" "http://www.w3.org/Graphics/SVG/1.1/DTD/svg11.dtd">
<!-- Creator: CorelDRAW -->
<svg xmlns="http://www.w3.org/2000/svg" xml:space="preserve" width="37.1652mm" height="38.7921mm" version="1.1" style="shape-rendering:geometricPrecision; text-rendering:geometricPrecision; image-rendering:optimizeQuality; fill-rule:evenodd; clip-rule:evenodd"
viewBox="0 0 298.8 311.88"
 xmlns:xlink="http://www.w3.org/1999/xlink"
 xmlns:xodm="http://www.corel.com/coreldraw/odm/2003">
 <defs>
  <style type="text/css">
   <![CDATA[
    .fil0 {fill:#19191B}
    .fil1 {fill:#E6A6CB}
    .fil2 {fill:#E9EAE9}
    .fil3 {fill:#F61A17}
   ]]>
  </style>
 </defs>
 <g id="Camada_x0020_1">
  <metadata id="CorelCorpID_0Corel-Layer"/>
  <g id="_2066216414816">
   <path class="fil0" d="M203.49 295.49c1.31,0.69 0.96,-0.11 1.03,2.12 -1.05,-0.54 -1.62,-0.75 -1.03,-2.12zm-84.74 -54.15c-3.29,0.28 -7.45,-4.45 -9.08,-6.07 -10.32,-10.26 -11.24,-9.59 -6.62,-18.38 1.81,-3.44 3.81,-6.57 5.79,-8.87 4.83,-0.32 13.86,9.87 16.2,12.85 2.82,3.59 -0.14,7.8 -1.67,10.93 -1.61,3.3 -2.73,6.13 -4.62,9.53zm-20.57 -19.95c-1.85,-0.69 -5.39,-4.18 -5.43,-7 -0.03,-1.95 3.41,-5.62 4.59,-7.17 3.98,-5.27 5.95,-9.02 15.92,-6.37 6.77,1.8 10.91,5.77 14.42,9.54 4.95,5.33 6.02,7.8 6.02,17.25 -0,11.33 4.52,16.85 4.39,22.29 -5.12,0.2 -14.56,-3.89 -17.74,-6.62 1.65,-8.75 11.76,-15.81 5.53,-23.78 -2.88,-3.68 -14.03,-16.63 -18.94,-11.54 -2.79,2.89 -6.35,11.44 -8.76,13.39zm-6.86 -10c-3.35,-2.51 -6.14,-12.55 -7.9,-17.54 -1.38,-3.93 -1.41,-6.82 0.79,-10.03 2.38,-3.47 4.73,-2.62 8.69,-0.85 5.23,2.34 12.63,6.96 8.9,13.97 -2.96,5.55 -6.53,10.82 -10.49,14.45zm108.02 -36.05c3.16,-1.09 4.47,-0.21 5.95,2.02 3.92,5.87 18.21,29.65 6.02,31.8 -5.06,0.89 -11.65,0.44 -16.59,-0.6 -11.05,-2.34 -16.85,-7.25 -18.05,-19.46 -1.21,-12.31 -1.03,-8.93 8.2,-9.86 5.57,-0.56 10.04,-2.36 14.47,-3.89zm64.29 12.52c-2.74,0.43 -30.15,-1.07 -22.53,-16.66 1.67,-3.41 4.18,-2.56 8.32,-2.2 1.58,0.14 8.01,0.64 9.13,1.18 2.75,1.31 5.78,11.11 5.07,17.68zm-159.86 -59.54c4.14,-0.57 13.76,-1.61 16.42,1.89 2.09,2.75 5.05,8.61 6.49,12.12 3.23,7.9 5.01,14.73 2.34,23.5 -0.89,2.91 -2.09,3.91 -5.33,4.17 -11.56,0.94 -22.98,-3.32 -25.94,-11.48 -1.61,-4.45 0.51,-19.01 1.92,-24.87 0.19,-0.8 0.69,-3.13 1.1,-3.83 1.05,-1.83 0.96,-1.21 3.01,-1.5zm137.07 36.51c-0.1,-2.9 4.33,-8.22 5.8,-10.61 2.01,-3.28 3.9,-6.94 5.65,-10.47 2.16,-4.38 2.64,-8.13 9.21,-6.48 4.98,1.25 13.36,4.86 14.39,10.19 1.32,6.81 2.17,11.99 -6.39,15.96 -6.85,3.17 -20.54,2.92 -28.66,1.41zm-152 -7.26c-2.45,0.56 -5.73,0.08 -7.76,-0.96 -2.49,-1.27 -2.13,-3.26 -1.48,-6.29 0.77,-3.59 2.54,-10.49 5.37,-11.94 3.38,2.46 5.14,13.83 3.88,19.19zm50.94 0.16c8.07,0.08 11.68,-1.23 13.14,5.29 2.45,10.94 12.16,9.45 10.85,16.44 -1.76,9.42 -11.81,3.99 -16.58,0.68 -3.43,-2.39 -6.86,-5.33 -8.09,-10.16 -2.71,-10.66 0.6,-19.39 7.34,-27.32 2.16,-2.54 4.06,0.2 5.48,1.37 1.43,1.18 3.59,2.87 4.56,4.27 -0.46,3.04 -2.09,6.62 -3.93,8.45 -1.54,0.77 -10.2,-1.05 -12.77,0.98zm40.99 -14.82c0.68,-2.59 3.28,-3.16 5.83,-4.2 19.06,-7.73 34.36,-10.32 56.09,-9.2 1.72,0.09 7.94,0.27 8.81,1.15 1.1,1.12 -2.26,4.37 -3.25,5.08 -13.04,9.26 -42.52,3.74 -49.13,6.68 0.82,1.84 5.06,1.9 8.64,2.53 9.01,1.58 12.05,1.3 21.23,1.14 3.23,-0.06 6.27,-0.75 9.76,-0.71 -0.37,2.54 -3.34,2.99 -5.6,3.62 -2.35,0.66 -5.07,1.14 -7.41,1.42 -5.62,0.68 -11.27,0.41 -16.81,-0.15 -3.64,-0.37 -25.45,-3.86 -28.16,-7.35zm-90.78 -25.58c0.17,-3.34 2.51,-11.52 3.75,-14.69 1.43,-3.67 3.81,-10.48 7.38,-11.12 1.1,1.46 11.02,23.53 11.21,24.44 -1.35,0.8 -19.64,1.67 -22.35,1.36zm-43.24 -14.5l0.01 3.06c2.67,4.44 10.07,9.68 14.28,16.85 3.68,6.27 9.54,15.08 7.76,21.59 -1.78,-0.24 -1.77,-0.76 -3.4,-4.37 -4.28,-9.49 -7.17,-14.98 -13.76,-23 -0.94,-1.14 -2.42,-2.77 -3.28,-4.07 -1.26,-1.89 -1.11,-3.47 -3.06,-4.5 -2.3,1.45 -4.81,9.61 -9.35,7.08 -1.73,-4.39 1.63,-4.44 0.81,-9.15 -3.48,-2 -11.75,-3.42 -9.31,-9.16 5.12,-1.72 8.56,2.62 10.5,4.83 2.45,-1.32 6.38,-13.51 10.7,-7.97 1.85,2.7 -0.9,6.84 -1.89,8.8zm70.09 -46.98c8.29,0.32 16.45,3.74 20.49,8.73 3.96,4.89 7.7,11.56 10.47,18.48 2.35,5.87 5.16,18.27 3.59,25.29 -0.92,4.12 -3.45,7.42 -5.34,9.43 -1.71,1.81 -2.12,1.87 -4.23,3.14 -1.33,0.8 -2.75,2.11 -4.12,2.73 -3.54,1.6 -18.76,-4.25 -21.26,-6.82 -4.25,-4.35 -7.33,-11.37 -10.19,-18.74 -1.8,-4.63 -2.32,-6.68 -2.72,-11.91 -0.48,-6.35 0.02,-7.81 3.47,-11.35 6.31,-6.49 6.6,-14.92 9.85,-18.97zm98.59 21.11c0.98,-3.32 1.4,-4.07 2.72,-7.06 1.24,-2.81 1.62,-4.27 4.89,-4.24 5.11,5.56 -1.64,9.12 -0.67,14.24 3.27,0.19 13.25,0.81 9.7,5.79 -2.61,3.66 -9.88,-1.04 -11.92,-1.47 -2.05,2.55 -3.81,8.09 -4.98,11.13 -2,5.21 -2.78,9.84 -5.8,9.91 -2.31,-3.66 4.71,-17.42 5.4,-22.21 -2.18,-1.15 -13.84,-4.09 -9.44,-8.81 4.77,-2.88 4.01,3.73 10.09,2.72zm-30.36 41.21c-17.63,1.22 -37.2,-42.54 -27.9,-61.72 1.24,-2.56 4.06,-6.13 6.16,-7.23 2.76,0.73 8.41,7.95 14.56,10.55 7.5,3.17 7.47,6.4 11.41,13.58 5.09,9.25 9.57,30.35 4.3,40.17 1.21,1.83 -0.47,1.13 0.96,0.33 1.09,-0.62 2.07,-7.95 3.54,-8.73 3.08,-0.33 18.87,6.1 21.32,7.63 3.14,1.95 5.61,3.86 8.19,6.03 1.34,1.13 6.86,5.16 7.1,6.85 -3.03,0.9 -11.65,0.15 -15.67,0.55 -12.37,1.22 -27,5.58 -37.31,11.18 -4.55,2.48 -7.56,3.97 -3.41,9.16 4.26,5.32 11.77,10.72 17.67,14.65 2.71,1.81 7.66,4.53 9.03,7.21 -2.28,2.49 -8.85,4.53 -12.86,5.86 -9.22,3.04 -22.4,2.09 -29.68,-2.57 -2.11,-1.35 -8.4,-5.9 -7.78,-9.92 2.32,-0.05 3.32,1.23 5.15,-0.22 -1.07,-3.03 -2.94,0.2 -6.33,-2.84 -0.02,-2.87 1.82,-2.94 3.23,-5.69 4.36,-8.52 2.88,-5.27 -9.02,-14.09 -3.79,-2.8 -6.51,-5.21 -11.36,-7.29 -10.43,-4.47 -17.34,-7.25 -30.35,-6.6 -24.54,1.23 -32.47,19.65 -30.07,43.9 2.84,28.75 16.08,56.64 39.81,72.99 6.51,4.49 15.59,8.17 23.64,9.3 3.9,0.55 3.65,-0.22 4,-0.78 -2.41,-0.36 -2.7,-2.2 -3.98,-5.3 -6.15,-14.94 -7.48,-22.97 5.53,-30.45 3.51,-2.02 7.9,-5.1 12.91,-4.51 4.4,5.18 3.61,17.13 2.22,24.94 -1.07,6.02 -2.63,16.77 -12.83,15.55 2.09,1.32 6.08,-0.47 7.59,-1.63 4.64,-3.55 7.7,-15.44 18.02,-8.92 1.02,8.23 -6.97,13.73 -12.09,16.37 -8.26,4.25 -15.32,3.06 -24.72,4.12 5.93,2.34 15.71,-0.48 21.82,-0.01 1.28,3.35 3.31,6.73 3.79,10.68 0.77,6.34 -1.59,8.1 -1.61,12.08 3.56,1.37 12.94,-1.7 27.44,5.38 2.57,1.25 4.65,3.23 7.79,3.12 1.38,-1.68 2.73,-4.33 6.59,-3.26 0.63,2.28 -0.71,3.79 -1.88,5.14 -1.57,1.81 -2.66,1.81 -2.96,4.12 3.91,1.82 9.71,3.15 8.52,9.29 -2.47,0.8 -5.3,-0.97 -6.75,-2.31 -2.19,-2.02 -2.07,-3 -3.2,-5.98 -4.9,0.53 -4.11,8.45 -9.91,4.41 -1.31,-5.96 3.58,-4.14 5.15,-7.02 -1.42,-2.89 -12.31,-5.9 -15.13,-6.46 -26.3,-5.16 -14.78,10.29 -45.38,16.14 -11.4,2.18 -27.05,0.83 -37.26,-3.11 -11.74,-4.53 -19.27,-8.28 -24.41,-17.71 -5.52,0.15 -9.65,4.01 -21.01,1.41 -14.46,-3.31 -11.51,-4.25 -15.63,-5.96 -0.92,-0.38 0.14,-0.16 -1,-0.24 -2.72,-0.19 -1.06,4.9 -1.78,6.65 -0.43,1.03 -4.42,3.75 -5.16,0.41 -0.54,-2.45 0.78,-3.8 0.46,-5.71l-0.29 -0.7c-0.21,-2.08 -3.59,0.22 -6.24,-2.03 -1.86,-1.58 -5.05,-6.39 3.6,-4.96 0.9,1.59 0.66,2.44 2.59,3.32 1.83,-2.82 0.72,-6.72 3.77,-10.9 5.26,-0.55 4.64,1.13 4.29,5.86 -2.32,1.16 -1.2,-0.71 -1.82,1.53 -0.76,2.73 2.36,3.47 4.94,4.47 12.64,4.86 19.17,5.43 31.48,2.35 -2.48,-4.73 -3.43,-1.8 -5.39,-12.69 -0.92,-5.1 -1.87,-9.98 -2.59,-15.2 -0.63,-4.58 -1.39,-31.71 0.09,-34.42 2.56,1.87 2.04,6.7 7.86,4.52 3.75,-1.4 4.25,-3.81 4.39,-8.84 0.3,-11.33 -4.65,-13.31 -9.36,-16.66 0.12,-1.92 1.77,-5.17 2.54,-7.26 0.81,-2.18 1.35,-5.09 3.38,-6.23 1.99,1.2 3.04,4.62 4.06,7.03 1.39,3.31 1.47,5.69 3.54,7.08 -0.47,-6.17 -3.22,-12.26 -4.31,-18.51 -3.07,-17.59 -2.33,-41.72 10.41,-53.17 7.7,-6.92 24.88,-9.16 36.65,-5.74 5.89,1.71 19.34,5.64 24.33,8.96 1.85,1.23 4.72,3.46 6.71,4.21 -1.97,-3.49 -8.4,-6.17 -9.61,-9.36 2.61,-4.77 7.79,0.09 10.41,-0.98 -1.38,-1.07 -3.31,-1.53 -4.87,-1.67 0.01,-2.68 2.42,-5.95 4.97,-6.22 1.86,1.92 0.91,2.3 1.65,5.28l0.31 0.79c1.45,-0.7 1.54,-1.04 1.61,-3.53 0.04,-1.49 -0.15,-2.95 -0.15,-4.46 0.01,-2.86 0.38,-5.86 0.48,-8.8 0.3,-8.77 -3.64,-22.44 -7.35,-29.91 -1.4,-2.82 -6.13,-10.28 -6.26,-12.22 1.34,-1.22 8.35,-3.1 10.2,-2.82 0.81,2.48 0.93,10.27 1.25,13.44 1.62,16.21 12.23,37.58 27.23,45.62 7.37,3.95 19.92,4.34 21,-1.79 -2.13,0.91 -3.23,2.58 -6.86,2.51 -2.19,-0.04 -2.59,-0.65 -4.45,-0.86 -1.89,-0.21 -2.47,0.41 -3.7,-0.53zm-53.77 -68.32c-0.47,0.28 -0.54,0.86 -3.24,0.08 -1,-0.29 -2.04,-0.67 -3.01,-1.01 -2.11,-0.73 -3.66,-1.58 -5.31,-2.5 -0.16,-1.77 -0.08,-3.49 0.98,-4.81 2.2,0.68 4.38,2.19 5.65,3.56l4.93 4.67zm-56.17 -4.58c-9.27,-0.4 -23.39,-5.75 -31.32,-8.66 -1.24,-0.46 -27.29,-10.08 -27.86,-12.07 -0.05,-0.19 -0.2,-0.2 -0.29,-0.32 3.98,0.2 11.98,3 16.31,4.09 5.58,1.41 10.59,2.66 15.52,4.61 4.46,1.76 25.31,10.4 27.63,12.35zm40.36 -19.75c-6.43,1 -23.26,-5.29 -29.07,-7.5 -6.41,-2.44 -22.04,-8.48 -24.06,-13.22 10.93,0.47 31.32,9.2 41.65,14.24l11.49 6.48zm87.83 73.91c-1.48,-6.28 -1.8,-13.46 -3.83,-19.56 -1.66,-5 -6.15,-12.49 -6.54,-16.8 2.9,-2.68 6.94,-2.77 7.18,-6.99 -4.24,-1.64 -9.04,-0.26 -14.25,-1.81 -14.91,-4.43 -19.13,-22.24 -23.01,-24.41 -3.48,-0.75 -5.7,1.47 -7.05,3.15 -5.49,6.86 4.58,8.88 0.43,14.13 -1.06,1.34 -3.43,4.11 -5.15,4.7 -4.72,-2.78 -14.54,-17 -26.04,-24.45 -3.41,-2.21 -6.63,-4.4 -9.93,-6.72 -11.99,-8.41 -33.61,-15.61 -48.7,-18.36 -3.49,-0.64 -11.51,-2.46 -14.73,-2.32 -5.18,0.22 -7.82,5.41 -4.02,8.76 5.82,5.14 13.51,9.22 20.37,12.92 7.21,3.89 15.2,7.22 23.33,9.94 6.27,2.1 13.39,3.33 20.03,4.98 2.49,0.62 4.98,0.4 5.52,2.95 -4.06,1.55 -7.35,0.35 -10.01,3.92 -0.5,5.98 0.47,10.7 -0.89,16.66 -2.35,-0.04 -3.99,-2 -5.93,-3.35 -14.53,-10.1 -22.46,-16.65 -40.43,-24.22 -7.69,-3.24 -53.23,-18.43 -58.78,-10 -3.3,5.01 3.91,9.33 6.33,10.99 11.31,7.73 22.64,14.45 36.52,18.79 4.87,1.52 9.61,2.97 14.53,4.01 15.95,3.37 13.26,-0.99 29.16,8.18 2.65,1.53 10,4.6 11.2,6.87 -1.7,3.83 -10.9,4.13 -11.71,6.97 -1.01,3.55 2.31,3.81 4.91,4.07 2.81,0.27 5.31,0.68 8,1.05 -3.51,9.19 -8.81,9.87 -11.95,24.67 -1.53,7.22 -1.53,8.33 -6.44,11.62 -3.87,2.59 -5.87,6.49 -9.19,8.87 -1.14,-0.62 -7.57,-10.85 -8.94,-12.55 -1.55,-1.93 -9.59,-10.07 -9.96,-11.39 -0.53,-1.92 6.94,-9.34 -1,-15.36 -7.37,-5.58 -12.9,3.3 -14.6,3.78 -2.64,0.74 -12.95,-4.95 -14.65,4.24 -1.36,7.35 4.43,9.21 8.48,12.61 0.08,2.64 -0.62,4.69 0.49,6.99 4.15,8.6 13.37,0.05 14.24,-0.34 2.74,1.26 6.04,7.23 7.69,9.78 2.29,3.54 3.91,6.7 6.03,10.64 7.09,13.17 3.96,13.84 3.96,27.42 -0,5.96 1.62,10.12 -0.48,15.79 -1.48,4.01 -3.34,7.78 -5.01,11.61 -4.3,9.89 -3.31,20.62 -5.83,27.33 -3.35,-0.98 -5.4,-7.17 -11.11,-6.02 -2.07,2.82 -1.52,5.97 -2.9,9.3 -0.97,2.36 -4.63,3.21 -7.07,4.69 -14.4,8.7 1.18,9.97 1.5,10.27 1.84,2.96 -0.46,11.06 1.53,15.13 6.6,1.17 9.69,-9.05 17.66,-7.83 1.12,4.78 1.55,11.2 2.56,16.48 0.72,3.74 3.01,13.18 2.72,16.37 -4.28,1.13 -16.14,-1.74 -19.65,-4.19 -0.17,-3.02 0.75,-6.27 -0.91,-8.56 -0.84,-1.15 -3.76,-3.12 -5.95,-3.33 -6.41,-0.61 -6.55,6.19 -10.75,7.34 -2.65,0.73 -5.11,0.92 -6.67,2.55 -4.08,4.25 -0.79,9.56 3.32,12.04 3.62,2.18 2.02,1.32 3.48,5.31 1.69,4.61 7.05,6.78 11.51,2.92 5.46,-4.74 -0.78,-5.29 11.35,-1.77 5.53,1.6 8.99,2.86 15.08,1.76 9.47,-1.71 8.02,0.66 13.05,4.41 13.63,10.18 35.19,17.78 57.16,15.34 26.76,-2.97 29.02,-17.84 37.2,-17.98 28.49,-0.5 9.03,7.7 17.9,13.8 4.59,3.16 8.31,-0.84 13.54,2.14 10.77,6.14 17.26,-0.9 11.29,-11.27 -2.44,-4.24 1.18,-9.79 -3.07,-13.11 -5.01,-3.91 -7.69,0.25 -12.25,0.41 -1.4,0.05 -8.82,-3.45 -11.25,-4.28 -3.82,-1.31 -10.45,-1.63 -12.77,-2.89 -1.32,-5.27 0.1,-5.09 -2.99,-15.77 -0.9,-3.12 1.46,-3.53 3.24,-5.23 4.86,-4.64 11.1,-8.98 9.08,-17.71 -0.72,-3.09 -1.7,-4.13 -4.53,-4.79 -2.14,-0.49 -5.84,-1.39 -7.67,-0.73 -0.36,-2.88 0.33,-5.76 0.41,-8.82 0.96,-37.63 -24.54,-13.93 -29.59,-13.03 -2.06,-4.42 -6.52,-8.96 -10.32,-12.13 -1.27,-1.06 -2.76,-1.7 -4.06,-3.25 0.57,-4.11 11.09,-18.96 14.65,-19.16 0.19,-0.01 12.08,8.1 16.51,9.54 6.97,2.28 9.79,0.96 13.6,-4.35 1.43,-1.99 1.37,-2.61 4.03,-3.02 0.18,6.48 -1.04,9.84 1.15,16.02 4.71,13.27 19.6,17.18 33.8,17.03 32.01,-0.34 3.39,-39.2 2.91,-41.54 6.06,0.78 12.29,5.51 19.37,4.22 1.4,-0.25 1.81,-0.45 3.04,-0.93 5.02,-1.98 2.13,3.73 4.45,7.1 4.53,6.57 31.38,15 32.58,4.34 0.65,-5.79 -2.66,-12.1 -2.35,-15.47 6.64,-4.43 13.1,-3.02 16.64,-14.2 1.7,-5.37 -0.66,-7.92 5.27,-9.83 1.97,-0.64 10.12,-2.67 10.43,-5.1 -1.43,-7.61 -15.36,0.49 -18.9,-1.47 -0.08,-3.11 4.04,-3.57 6.49,-4.8 2.66,-1.34 5.7,-2.02 6.61,-4.51 -1.99,-7.82 -16.21,1.3 -19.47,2.97 -3.29,1.68 -8.26,-0.21 -11.51,-1.71 -2.87,-1.33 -3.19,-4.79 -7.54,-6.7 -3.72,-1.63 -7.59,-1.6 -11.06,-3.09 -1.8,-0.77 -2.7,-2.26 -3.96,-3.42 -7.22,-6.69 -14.45,-9.39 -20.8,-14.36 -0.17,-3.31 2.89,-9.98 3.78,-12.99 4.23,-0.56 11.77,3.24 16.31,-3.8 1.81,-2.8 1.22,-6.67 -0.53,-8.75 -1.92,-2.28 -4.14,-2.42 -6.62,-3.97 0.15,-3.5 1.91,-5.6 0.07,-9.6 -3.03,-6.56 -11.61,-6.98 -17.02,0.18 -0.89,1.17 -1.09,1.85 -2.34,2.93 -2.57,1.05 -11.64,-2.31 -12.14,7.97 -0.31,6.24 6.07,6.99 8.69,10.77 0.83,2.25 -1.6,11.49 -5.54,12.35z"/>
   <path class="fil1" d="M180.47 165.52c-0.97,-1.89 -0.2,-2.97 1.83,-2.88 0.35,2.1 0.06,2.61 -1.83,2.88zm-12.59 -0.56c-0.02,-2.04 1.6,-1.9 2.63,-0.49 -0.72,1.21 -0.93,1.83 -2.63,0.49zm1.81 -6.95c-0.76,-1.78 -0.32,-3.38 0.98,-4.53 0.86,1.29 0.45,-1.64 0.65,1.69 0.17,2.84 -1.63,2.84 -1.63,2.84zm-22.44 92.64l-3.85 -0.22c-0.35,0.56 -0.1,1.34 -4,0.78 -8.05,-1.14 -17.12,-4.81 -23.64,-9.3 -23.72,-16.35 -36.97,-44.24 -39.81,-72.99 -2.39,-24.24 5.54,-42.66 30.07,-43.9 13.02,-0.65 19.92,2.13 30.35,6.6 4.84,2.08 7.57,4.49 11.36,7.29 11.9,8.81 13.38,5.57 9.02,14.09 -1.41,2.75 -3.24,2.83 -3.23,5.69 3.4,3.04 5.26,-0.19 6.33,2.84 -1.83,1.45 -2.83,0.17 -5.15,0.22 -0.62,4.02 5.67,8.57 7.78,9.92 7.28,4.66 20.46,5.6 29.68,2.57 4.01,-1.32 10.58,-3.37 12.86,-5.86 -1.37,-2.67 -6.32,-5.4 -9.03,-7.21 -5.9,-3.94 -13.42,-9.33 -17.67,-14.65 -4.15,-5.19 -1.15,-6.68 3.41,-9.16 10.31,-5.6 24.93,-9.96 37.31,-11.18 4.02,-0.4 12.64,0.35 15.67,-0.55 -0.25,-1.69 -5.76,-5.72 -7.1,-6.85 -2.58,-2.17 -5.05,-4.08 -8.19,-6.03 -2.45,-1.53 -18.24,-7.96 -21.32,-7.63 -1.47,0.78 -2.45,8.11 -3.54,8.73 -1.43,0.81 0.25,1.5 -0.96,-0.33l-0.61 0.67c-2.28,2.71 1.65,-2.01 -0.51,0.64 -2.54,3.11 -3.8,2.55 -7.41,3.33 1.23,0.94 1.81,0.32 3.7,0.53 1.86,0.21 2.26,0.82 4.45,0.86 3.62,0.06 4.73,-1.6 6.86,-2.51 -1.09,6.13 -13.63,5.74 -21,1.79 -15,-8.05 -25.6,-29.41 -27.23,-45.62 -0.32,-3.17 -0.43,-10.96 -1.25,-13.44 -1.85,-0.28 -8.85,1.6 -10.2,2.82 0.14,1.93 4.86,9.4 6.26,12.22 3.71,7.47 7.65,21.14 7.35,29.91 -0.1,2.94 -0.47,5.94 -0.48,8.8 -0.01,1.51 0.19,2.97 0.15,4.46 -0.07,2.49 -0.16,2.83 -1.61,3.53l-0.31 -0.79c-0.74,-2.98 0.21,-3.36 -1.65,-5.28 -2.55,0.27 -4.96,3.53 -4.97,6.22 1.57,0.14 3.5,0.61 4.87,1.67 -2.62,1.07 -7.8,-3.79 -10.41,0.98 1.2,3.19 7.63,5.87 9.61,9.36 -1.99,-0.75 -4.86,-2.97 -6.71,-4.21 -4.99,-3.32 -18.44,-7.25 -24.33,-8.96 -11.78,-3.42 -28.95,-1.18 -36.65,5.74 -12.74,11.45 -13.47,35.57 -10.41,53.17 1.09,6.25 3.84,12.34 4.31,18.51 -2.07,-1.39 -2.14,-3.77 -3.54,-7.08 -1.02,-2.41 -2.07,-5.83 -4.06,-7.03 -2.03,1.14 -2.58,4.05 -3.38,6.23 -0.77,2.09 -2.43,5.34 -2.54,7.26 4.71,3.36 9.66,5.33 9.36,16.66 -0.14,5.03 -0.64,7.43 -4.39,8.84 -5.82,2.18 -5.3,-2.66 -7.86,-4.52 -1.49,2.71 -0.73,29.84 -0.09,34.42 0.72,5.22 1.67,10.1 2.59,15.2 1.96,10.88 2.91,7.95 5.39,12.69 -12.3,3.09 -18.84,2.51 -31.48,-2.35 -2.59,-0.99 -5.7,-1.74 -4.94,-4.47 0.62,-2.24 -0.5,-0.37 1.82,-1.53 0.35,-4.73 0.97,-6.42 -4.29,-5.86 -3.05,4.18 -1.94,8.08 -3.77,10.9 -1.93,-0.88 -1.69,-1.72 -2.59,-3.32 -8.65,-1.43 -5.45,3.38 -3.6,4.96 2.65,2.25 6.03,-0.05 6.24,2.03l0.29 0.7c0.32,1.91 -1,3.26 -0.46,5.71 0.73,3.34 4.73,0.62 5.16,-0.41 0.72,-1.75 -0.94,-6.85 1.78,-6.65 1.14,0.08 0.08,-0.14 1,0.24 4.11,1.71 1.17,2.65 15.63,5.96 11.36,2.6 15.49,-1.25 21.01,-1.41 5.14,9.44 12.67,13.19 24.41,17.71 10.21,3.94 25.85,5.29 37.26,3.11 30.6,-5.85 19.08,-21.3 45.38,-16.14 2.82,0.55 13.7,3.57 15.13,6.46 -1.57,2.88 -6.46,1.06 -5.15,7.02 5.81,4.04 5.02,-3.88 9.91,-4.41 1.14,2.97 1.01,3.96 3.2,5.98 1.45,1.34 4.28,3.1 6.75,2.31 1.19,-6.13 -4.61,-7.46 -8.52,-9.29 0.3,-2.31 1.39,-2.31 2.96,-4.12 1.17,-1.35 2.51,-2.87 1.88,-5.14 -3.86,-1.07 -5.22,1.58 -6.59,3.26 -3.14,0.12 -5.23,-1.86 -7.79,-3.12 -14.5,-7.08 -23.89,-4.01 -27.44,-5.38 0.02,-3.97 2.39,-5.74 1.61,-12.08 -0.48,-3.96 -2.51,-7.33 -3.79,-10.68 -6.11,-0.47 -15.9,2.35 -21.82,0.01 9.4,-1.06 16.46,0.13 24.72,-4.12 5.12,-2.64 13.11,-8.14 12.09,-16.37 -10.32,-6.52 -13.38,5.37 -18.02,8.92 -1.51,1.15 -5.5,2.95 -7.59,1.63z"/>
   <path class="fil2" d="M131.94 79.1c-0.47,-3.19 -4.58,-2.55 -5.42,-5.27 0.73,-0.79 5.16,-1.99 7.88,4.04 7.03,15.61 -7.93,18.18 -8.84,0.97l6.39 0.26zm-15.11 -23.24c-3.24,4.05 -3.54,12.48 -9.85,18.97 -3.45,3.55 -3.95,5 -3.47,11.35 0.4,5.22 0.92,7.28 2.72,11.91 2.86,7.37 5.94,14.39 10.19,18.74 2.5,2.57 17.72,8.42 21.26,6.82 1.37,-0.62 2.79,-1.93 4.12,-2.73 2.11,-1.27 2.52,-1.33 4.23,-3.14 1.9,-2.01 4.42,-5.31 5.34,-9.43 1.57,-7.01 -1.24,-19.41 -3.59,-25.29 -2.77,-6.92 -6.51,-13.59 -10.47,-18.48 -4.05,-4.99 -12.2,-8.41 -20.49,-8.73z"/>
   <path class="fil2" d="M169.16 70.71c3.52,-1.1 6.55,3.46 6.97,6.34 0.54,3.67 1.84,10.04 -2.17,10.89 -5.56,1.17 -11.5,-15.12 -4.79,-17.22zm15.9 47.47c3.61,-0.79 4.88,-0.23 7.41,-3.33 2.16,-2.65 -1.77,2.08 0.51,-0.64l0.61 -0.67c5.27,-9.83 0.79,-30.92 -4.3,-40.17 -3.95,-7.18 -3.91,-10.41 -11.41,-13.58 -6.15,-2.6 -11.8,-9.82 -14.56,-10.55 -2.1,1.1 -4.92,4.68 -6.16,7.23 -9.29,19.18 10.27,62.94 27.9,61.72z"/>
   <path class="fil2" d="M199.34 175.35c-4.43,1.53 -8.9,3.33 -14.47,3.89 -9.23,0.93 -9.4,-2.45 -8.2,9.86 1.2,12.21 7,17.12 18.05,19.46 4.94,1.05 11.53,1.5 16.59,0.6 12.19,-2.15 -2.1,-25.92 -6.02,-31.8 -1.48,-2.22 -2.8,-3.11 -5.95,-2.02z"/>
   <path class="fil2" d="M105.32 149.97c2.28,-1.57 8.31,0.21 9.47,1.78 2.18,2.93 3.04,10.63 -7.73,9.24 -1.55,-0.2 -9.25,-5.85 -1.74,-11.01zm-1.55 -21.65c-2.05,0.28 -1.96,-0.33 -3.01,1.5 -0.4,0.7 -0.91,3.03 -1.1,3.83 -1.41,5.86 -3.53,20.42 -1.92,24.87 2.96,8.16 14.37,12.42 25.94,11.48 3.24,-0.26 4.44,-1.25 5.33,-4.17 2.67,-8.77 0.89,-15.61 -2.34,-23.5 -1.44,-3.51 -4.4,-9.37 -6.49,-12.12 -2.65,-3.49 -12.28,-2.46 -16.42,-1.89z"/>
   <path class="fil3" d="M180.76 142.92c2.71,3.5 24.52,6.98 28.16,7.35 5.55,0.56 11.19,0.83 16.81,0.15 2.34,-0.28 5.05,-0.76 7.41,-1.42 2.26,-0.63 5.23,-1.08 5.6,-3.62 -3.5,-0.04 -6.53,0.65 -9.76,0.71 -9.18,0.16 -12.23,0.44 -21.23,-1.14 -3.58,-0.63 -7.82,-0.68 -8.64,-2.53 6.62,-2.94 36.09,2.58 49.13,-6.68 1,-0.71 4.36,-3.96 3.25,-5.08 -0.87,-0.88 -7.09,-1.06 -8.81,-1.15 -21.73,-1.12 -37.03,1.47 -56.09,9.2 -2.55,1.04 -5.16,1.61 -5.83,4.2z"/>
   <path class="fil2" d="M143.4 250.43l3.85 0.22c10.2,1.22 11.76,-9.53 12.83,-15.55 1.39,-7.81 2.18,-19.75 -2.22,-24.94 -5.01,-0.59 -9.4,2.49 -12.91,4.51 -13.01,7.48 -11.68,15.52 -5.53,30.45 1.28,3.1 1.57,4.95 3.98,5.3z"/>
   <path class="fil1" d="M261.73 148.91l-0.1 3.1c-2.69,1.08 -3.6,0.21 -3.27,-3.47l3.37 0.37zm-20.89 15.93c8.13,1.52 21.81,1.77 28.66,-1.41 8.57,-3.97 7.72,-9.15 6.39,-15.96 -1.04,-5.34 -9.42,-8.94 -14.39,-10.19 -6.58,-1.65 -7.05,2.1 -9.21,6.48 -1.74,3.53 -3.64,7.19 -5.65,10.47 -1.47,2.39 -5.9,7.71 -5.8,10.61z"/>
   <path class="fil3" d="M98.18 221.4c2.41,-1.94 5.97,-10.49 8.76,-13.39 4.91,-5.09 16.06,7.86 18.94,11.54 6.23,7.96 -3.89,15.03 -5.53,23.78 3.18,2.73 12.62,6.82 17.74,6.62 0.13,-5.44 -4.39,-10.96 -4.39,-22.29 0.01,-9.46 -1.06,-11.92 -6.02,-17.25 -3.51,-3.78 -7.65,-7.74 -14.42,-9.54 -9.97,-2.65 -11.94,1.1 -15.92,6.37 -1.18,1.56 -4.62,5.22 -4.59,7.17 0.04,2.81 3.58,6.3 5.43,7z"/>
   <path class="fil2" d="M139.78 157.74c2.57,-2.03 11.23,-0.2 12.77,-0.98 1.84,-1.83 3.47,-5.41 3.93,-8.45 -0.97,-1.4 -3.13,-3.09 -4.56,-4.27 -1.42,-1.17 -3.32,-3.91 -5.48,-1.37 -6.74,7.93 -10.06,16.67 -7.34,27.32 1.23,4.83 4.66,7.78 8.09,10.16 4.77,3.31 14.82,8.73 16.58,-0.68 1.31,-6.99 -8.4,-5.5 -10.85,-16.44 -1.46,-6.53 -5.07,-5.22 -13.14,-5.29z"/>
   <path class="fil2" d="M118.75 241.34c1.89,-3.4 3.01,-6.23 4.62,-9.53 1.53,-3.13 4.49,-7.34 1.67,-10.93 -2.34,-2.98 -11.37,-13.17 -16.2,-12.85 -1.98,2.29 -3.98,5.43 -5.79,8.87 -4.63,8.79 -3.7,8.12 6.62,18.38 1.63,1.62 5.79,6.34 9.08,6.07z"/>
   <path class="fil1" d="M46.75 105.91c-0.75,-1.31 -0.25,-0.59 -1.05,-1.19 -0.98,-0.73 -0.76,0 -1.2,-1.06l2.25 -0.82c1,-1.96 3.74,-6.1 1.89,-8.8 -4.32,-5.54 -8.25,6.65 -10.7,7.97 -1.94,-2.21 -5.38,-6.55 -10.5,-4.83 -2.44,5.74 5.83,7.16 9.31,9.16 0.82,4.71 -2.55,4.76 -0.81,9.15 4.54,2.52 7.05,-5.63 9.35,-7.08 1.95,1.03 1.8,2.61 3.06,4.5 0.87,1.3 2.34,2.92 3.28,4.07 6.6,8.02 9.49,13.51 13.76,23 1.63,3.61 1.62,4.13 3.4,4.37 1.77,-6.51 -4.08,-15.32 -7.76,-21.59 -4.21,-7.17 -11.61,-12.41 -14.28,-16.85z"/>
   <path class="fil2" d="M91.32 211.4c3.96,-3.63 7.53,-8.89 10.49,-14.45 3.73,-7.01 -3.67,-11.63 -8.9,-13.97 -3.96,-1.77 -6.32,-2.62 -8.69,0.85 -2.2,3.21 -2.18,6.09 -0.79,10.03 1.76,4.99 4.54,15.03 7.9,17.54z"/>
   <path class="fil2" d="M263.63 187.87c0.71,-6.57 -2.32,-16.37 -5.07,-17.68 -1.12,-0.53 -7.55,-1.04 -9.13,-1.18 -4.14,-0.37 -6.65,-1.21 -8.32,2.2 -7.62,15.58 19.79,17.09 22.53,16.66z"/>
   <path class="fil1" d="M89.99 117.34c2.7,0.31 21,-0.56 22.35,-1.36 -0.19,-0.91 -10.11,-22.98 -11.21,-24.44 -3.57,0.64 -5.95,7.45 -7.38,11.12 -1.24,3.17 -3.58,11.35 -3.75,14.69z"/>
   <path class="fil1" d="M215.42 76.97c-6.07,1.01 -5.32,-5.6 -10.09,-2.72 -4.4,4.72 7.26,7.66 9.44,8.81 -0.7,4.79 -7.71,18.55 -5.4,22.21 3.02,-0.07 3.79,-4.71 5.8,-9.91 1.17,-3.04 2.93,-8.58 4.98,-11.13 2.04,0.43 9.3,5.13 11.92,1.47 3.55,-4.98 -6.44,-5.6 -9.7,-5.79 -0.97,-5.12 5.77,-8.68 0.67,-14.24 -3.27,-0.03 -3.65,1.44 -4.89,4.24 -1.32,2.99 -1.73,3.74 -2.72,7.06z"/>
   <path class="fil1" d="M115.49 25.53l-11.49 -6.48c-10.33,-5.05 -30.71,-13.77 -41.65,-14.24 2.02,4.74 17.65,10.77 24.06,13.22 5.82,2.22 22.64,8.5 29.07,7.5z"/>
   <path class="fil1" d="M75.13 45.27c-2.32,-1.96 -23.17,-10.59 -27.63,-12.35 -4.93,-1.95 -9.94,-3.21 -15.52,-4.61 -4.33,-1.09 -12.33,-3.88 -16.31,-4.09 0.09,0.11 0.23,0.13 0.29,0.32 0.56,2 26.62,11.62 27.86,12.07 7.93,2.91 22.04,8.26 31.32,8.66z"/>
   <path class="fil2" d="M88.84 157.58c1.26,-5.36 -0.5,-16.73 -3.88,-19.19 -2.83,1.44 -4.59,8.35 -5.37,11.94 -0.65,3.03 -1.01,5.02 1.48,6.29 2.04,1.04 5.32,1.52 7.76,0.96z"/>
   <path class="fil0" d="M126.52 73.83c0.84,2.72 4.96,2.08 5.42,5.27l-6.39 -0.26c0.91,17.21 15.87,14.64 8.84,-0.97 -2.72,-6.03 -7.14,-4.82 -7.88,-4.04z"/>
   <path class="fil0" d="M168.36 77.15c-0.32,-2.2 0.47,-3.64 1.83,-4.78 5.42,0.23 1.76,6.16 -1.83,4.78zm0.81 -6.44c-6.7,2.1 -0.76,18.39 4.79,17.22 4.01,-0.84 2.71,-7.22 2.17,-10.89 -0.42,-2.88 -3.45,-7.44 -6.97,-6.34z"/>
   <path class="fil0" d="M103.41 157.87c-0.19,-10.78 5.76,-8.48 5.76,-3.19 0,5.93 -1.14,6.08 -5.76,3.19zm1.91 -7.89c-7.52,5.17 0.18,10.81 1.74,11.01 10.77,1.4 9.91,-6.3 7.73,-9.24 -1.16,-1.57 -7.18,-3.35 -9.47,-1.78z"/>
   <path class="fil2" d="M103.41 157.87c4.62,2.89 5.76,2.74 5.76,-3.19 0,-5.29 -5.95,-7.59 -5.76,3.19z"/>
   <path class="fil2" d="M168.36 77.15c3.59,1.37 7.24,-4.55 1.83,-4.78 -1.36,1.14 -2.15,2.58 -1.83,4.78z"/>
   <path class="fil0" d="M258.36 148.54c-0.33,3.68 0.58,4.55 3.27,3.47l0.1 -3.1 -3.37 -0.37z"/>
   <path class="fil0" d="M169.69 158.01c0,0 1.8,0 1.63,-2.84 -0.2,-3.33 0.21,-0.4 -0.65,-1.69 -1.3,1.14 -1.74,2.75 -0.98,4.53z"/>
   <path class="fil0" d="M180.47 165.52c1.89,-0.28 2.17,-0.79 1.83,-2.88 -2.03,-0.08 -2.8,0.99 -1.83,2.88z"/>
   <path class="fil0" d="M167.88 164.96c1.69,1.34 1.91,0.72 2.63,-0.49 -1.03,-1.41 -2.64,-1.55 -2.63,0.49z"/>
   <path class="fil3" d="M46.75 105.91l-0.01 -3.06 -2.25 0.82c0.45,1.06 0.23,0.33 1.2,1.06 0.8,0.6 0.3,-0.13 1.05,1.19z"/>
  </g>
 </g>
</svg>
