<?xml version="1.0" encoding="UTF-8"?>
<!DOCTYPE svg PUBLIC "-//W3C//DTD SVG 1.1//EN" "http://www.w3.org/Graphics/SVG/1.1/DTD/svg11.dtd">
<!-- Creator: CorelDRAW -->
<svg xmlns="http://www.w3.org/2000/svg" xml:space="preserve" width="12.4008mm" height="14.683mm" version="1.1" style="shape-rendering:geometricPrecision; text-rendering:geometricPrecision; image-rendering:optimizeQuality; fill-rule:evenodd; clip-rule:evenodd"
viewBox="0 0 27.34 32.38"
 xmlns:xlink="http://www.w3.org/1999/xlink"
 xmlns:xodm="http://www.corel.com/coreldraw/odm/2003">
 <defs>
  <style type="text/css">
   <![CDATA[
    .fil7 {fill:#FFCC29}
    .fil0 {fill:black}
    .fil6 {fill:#2B8B9B}
    .fil4 {fill:#616163}
    .fil5 {fill:#989898}
    .fil3 {fill:#F72226}
    .fil1 {fill:#FBC6D0}
    .fil2 {fill:white}
   ]]>
  </style>
 </defs>
 <g id="Camada_x0020_1">
  <metadata id="CorelCorpID_0Corel-Layer"/>
  <g id="Figs_Desenho_VarCor_015">
   <path class="fil0" d="M6.56 0l0.34 0.03c0.29,0.07 0.65,0.24 1.15,0.64 0.69,0.56 1.17,1.31 1.43,2.17 0.24,0.8 0.87,2.16 1.26,2.98 0.08,0.16 0.15,0.31 0.23,0.46 0.51,0.05 1.44,0.19 1.92,0.16 0.15,-0.01 0.45,-0.02 0.58,-0.01 0.01,-0.48 -1.32,-1.06 -1.67,-1.21 -0.18,-0.08 -0.52,-0.14 -0.62,-0.32 0.23,0.02 1.12,0.31 1.42,0.4 0.89,0.27 1.63,0.62 2.31,1.23 0.38,0.34 0.7,0.8 0.79,0.88l0.82 -0.2c0.99,-0.29 1.91,-0.83 2.75,-1.39l1.28 -0.83c0.41,-0.27 0.83,-0.56 1.27,-0.8l0.67 -0.38c0.44,-0.23 1.32,-0.63 1.82,-0.75 0.54,-0.13 2.84,-0.54 3,-0.34 0.02,0.06 0.03,0.04 0.02,0.13 -0.01,0.2 -0.01,0.06 -0.04,0.11l-0.13 0.15c-0.38,0.64 -0.64,1.44 -0.8,2.17 -0.12,0.54 -0.31,2.65 -0.35,3.23 -0.01,0.23 -0.06,0.34 -0.09,0.51 -0.09,0.53 -0.11,1.1 -0.2,1.62 -0.24,1.38 -0.77,2.37 -1.68,2.96 -0.45,0.3 -0.94,0.53 -1.51,0.69 -0.53,0.15 -1.11,0.38 -1.67,0.45 -0.05,0.57 0.1,1.11 0.04,1.72 0.2,-0.07 1.43,-0.26 1.7,-0.24l-0.02 0.2c-0.59,-0.05 -1.11,0.21 -1.66,0.28 -0.02,0.22 0.03,0.27 -0.01,0.47 -0.03,0.15 -0.06,0.27 -0.08,0.48 -0.08,0.9 -0.27,1.87 -0.52,2.73 -0.36,1.26 -1.29,2.38 -1.43,2.76 0.94,0.31 1.71,0.76 2.57,1.19 0.1,0.05 0.27,0.13 0.34,0.2 -0.49,-0.06 -2.32,-1.06 -3.21,-1.14 -0.04,0.18 -0.01,0.05 -0.15,0.21l-0.95 1.32c-0.11,0.14 -0.19,0.25 -0.3,0.39 -0.19,0.24 -0.81,0.84 -0.87,1.07 -0.11,0.39 -0.2,0.67 -0.39,0.98 -0.45,0.71 -1.39,1.61 -2.37,1.28 -0.14,0.37 -0.37,0.47 -0.5,0.92 -0.16,0.52 -0.33,0.75 -0.74,1.07 -0.07,0.05 -0.15,0.11 -0.21,0.17 -0.09,0.09 -0.1,0.17 -0.13,0.28 -0.04,0.14 -0.1,0.32 -0.11,0.46 -0.01,0.09 0.03,0.15 0.05,0.24 0.06,0.2 0.02,0.39 -0.17,0.51 -0.19,0.12 -0.51,0.15 -0.72,0.05 -0.23,-0.11 -0.33,-0.36 -0.33,-0.6 -0,-0.17 0.05,-0.31 0.11,-0.47 0.02,-0.05 0.05,-0.1 0.03,-0.16 -0.01,-0.03 -0.03,-0.07 -0.05,-0.11 -0.02,0.06 -0.03,0.12 -0.07,0.19 -0.09,0.14 -0.24,0.19 -0.4,0.19 -0.19,0 -0.43,-0.05 -0.56,-0.2 -0.14,-0.15 -0.14,-0.36 -0.12,-0.56 0.01,-0.06 0.03,-0.18 0.01,-0.23 -0.02,-0.05 -0.06,-0.1 -0.09,-0.14 -0.06,-0.09 -0.1,-0.18 -0.13,-0.28 -0.14,-0.59 0.17,-0.91 0.26,-1.46 0.06,-0.4 0.1,-0.63 0.29,-1 0.16,-0.29 0.34,-0.56 0.52,-0.83 -0.25,-0.07 -0.58,-0.22 -0.86,-0.31 -0.75,-0.24 -1.35,-0.57 -2.1,-0.81 -0.82,-0.26 -1.03,-0.38 -1.7,-0.92 -0.21,-0.17 -0.41,-0.35 -0.61,-0.53 -0.46,-0.42 -0.83,-1.37 -0.98,-1.49 -0.03,0.33 -0.19,0.64 -0.25,0.94l-0.08 -0.01c0.02,-0.16 0,-0.42 0.01,-0.63 0,-0.12 0.04,-0.34 0.06,-0.56 -0.9,-0.08 -2.25,0.05 -3.08,0.25 -0.22,0.05 -0.7,0.19 -0.91,0.18 0.06,-0.16 0.24,-0.18 0.4,-0.23 0.79,-0.22 1.61,-0.31 2.44,-0.36 0.34,-0.02 0.71,0.01 1.06,-0.04 0.06,-0.69 0.35,-0.68 0.76,-1.07 0.31,-0.3 0.57,-0.67 0.62,-0.71 0.1,-0.1 0.13,-0.13 0.21,-0.23 -0.15,-0.13 -0.27,-0.24 -0.43,-0.38 -0.61,-0.51 -1.84,-1.24 -2.59,-1.51l-0.94 -0.31c-0.11,-0.05 -0.15,-0.07 -0.17,-0.19 1.35,0.13 2.87,1.05 3.9,1.88 0.06,0.05 0.35,0.33 0.41,0.28 0.19,-0.31 -0.03,-0.69 -0.14,-0.91l-0.27 -0.83c-0.13,-0.43 -0.37,-0.8 -0.51,-1.22 -0.12,-0.38 -0.32,-0.1 -0.25,-0.39 0.04,-0.13 0.07,-0.14 0.05,-0.28 -0.1,-0.51 -0.13,-0.92 -0.08,-1.47 0.07,-0.7 0.03,-1.34 0.38,-1.92 -0.07,-0.11 -0.08,-0.07 -0.15,-0.13 0.19,-0.03 0.2,-0 0.29,-0.18 0.19,-0.42 -0.23,-2.26 -0.3,-2.73l-0.14 -1.64c-0.11,-2.27 1.71,-5.52 1.48,-7.4 -0.04,-0.28 -0.2,-0.42 -0.18,-0.69 0.23,0.02 0.44,-0.08 0.72,-0.09z"/>
   <path class="fil1" d="M5.27 11.95c0.23,-0.78 0.87,-1.73 1.29,-2.34 0.38,-0.57 0.27,-0.48 0.81,-0.97 0.29,-0.26 0.91,-0.65 0.98,-0.75 -0.38,0 -0.76,0.27 -1.05,0.16 0.1,-0.26 1.04,-0.53 1.4,-0.61l-0.03 -0.6c-0.26,-0.02 -0.35,0.08 -0.45,-0.01 0.43,-0.46 0.6,0.54 0.28,-1.56 -0.1,-0.67 -0.24,-1.25 -0.41,-1.86 -0.19,-0.67 -0.63,-1.89 -1.04,-2.43 -0.17,-0.22 -0.42,-0.41 -0.58,-0.65l-0.33 -0.02c0.13,0.62 0.19,0.59 0.08,1.44 -0.18,1.34 -0.87,2.98 -1.15,4.28 -0.39,1.81 -0.3,1.37 -0.22,3.11 0.02,0.5 0.11,0.94 0.19,1.42 0.08,0.41 0.13,1 0.23,1.37z"/>
   <path class="fil2" d="M11.82 22.21c-0.3,-0.23 -0.33,-0.53 -0.72,-0.69 -0.24,0.09 -0.23,0.31 -0.37,0.52 -0.55,-0.05 -0.22,-0.51 -0.22,-0.52 0.1,-0.09 0.13,-0.05 0.3,-0.04 -0.25,-0.65 -1.24,-0.13 -1.63,-0.04l0.04 0.39c-0.22,-0.19 -0.2,-0.33 -0.39,-0.46 -0.4,-0.28 -0.84,-0.38 -1.25,-0.16 -0.19,0.1 -0.39,0.18 -0.43,0.43l0.16 0.03 -0.04 0.23c-0.38,0.02 -0.15,-0.12 -0.42,-0.54 -0.17,-0.27 -0.47,-0.21 -0.74,-0.15 -0.59,0.14 -0.94,0.26 -1.01,0.98l0.67 0.06c0.2,0.02 0.33,-0.01 0.52,0 0.22,0.01 0.29,0.07 0.49,0.12 0.45,0.11 0.43,-0.22 0.64,-0.42 0.17,-0.17 0.52,-0.3 0.84,-0.23 0.51,0.12 0.23,0.26 0.92,0.19 0.68,-0.07 1.41,0.3 1.27,0.96 -0.1,0.48 -0.82,0.8 -1.26,0.99 -0.79,0.35 -0.13,0.97 0.41,1.09 0.45,0.1 1.51,-0.1 1.85,-0.26 0.61,-0.29 2.23,-1.42 2.37,-2.17l-1.99 0.11c-0.26,0.03 -0.26,0.17 -0.37,0.38 -0.17,-0.01 -0.23,-0.08 -0.34,-0.15 0.06,-0.62 0.23,-0.35 0.8,-0.39 0.43,-0.03 0.74,-0.02 1.17,-0.08 0.98,-0.13 0.75,0.25 1.29,-0.69 0.08,-0.15 0.17,-0.3 0.2,-0.51l-1.02 0.36c-0.81,0.3 -0.98,-0.96 -1.97,-0.27 -0.4,0.28 0.23,0.59 0.21,0.91zm4.92 -3.28c-0.14,0.06 -0.19,0.18 -0.3,0.31 -0.15,0.17 -0.65,0.43 -0.85,1 -0.19,0.56 -0.22,1.59 -0.19,2.2 0.75,0.08 1.81,0.31 2.59,0.49 0.13,0.03 0.25,0.07 0.37,0.04 0.41,-0.86 0.57,-2.42 0.27,-3.38 -0.17,-0.53 -0.58,-0.16 -0.92,-0.3 0.03,-0.21 0.25,-0.32 0.37,-0.42 -0.4,-0.06 -1,0.43 -1.28,0.43 -0.28,-0 -0.1,-0.16 -0.07,-0.36zm-0.12 6.56c0.19,-0.16 0.7,-0.79 0.86,-0.99 0.19,-0.23 0.75,-0.99 0.78,-1.36 -0.37,-0.21 -2.27,-0.5 -2.82,-0.54 -0.1,1.14 0.45,2.09 0.21,3.21 -0.11,0.52 -0.22,1.1 -0.49,1.48 -0.13,0.19 -0.3,0.32 -0.47,0.45 -0.25,0.21 -0.32,0.2 -0.71,0.15 -0.08,0.22 -0.21,0.32 -0.25,0.54 0.96,0.1 1.61,-0.65 2.02,-1.26 0.6,-0.9 0.52,-1.65 0.74,-2.78 -0.01,0.07 0.05,0.35 0.05,0.54 -0.01,0.21 -0.07,0.45 -0.05,0.66 0.06,-0.07 0.06,-0.05 0.13,-0.11zm-11.07 -1.58l0.38 0.45c0.91,0.75 0.88,0.78 2,1.2 0.61,0.23 1.09,0.46 1.74,0.66 0.12,0.03 0.22,0.07 0.34,0.11 0.19,0.07 0.37,0.18 0.58,0.24 0.08,-0.06 0.54,-0.54 0.56,-0.63 0.07,-0.23 -0.29,-0.52 -0.49,-0.62 -0.22,-0.11 -0.74,-0.19 -1.01,-0.23 -0.95,-0.12 -1.12,0.12 -2.01,-0.58 -0.18,-0.14 -0.33,-0.28 -0.5,-0.44 -0.27,-0.25 -0.32,-0.32 -0.53,-0.62 -0.14,-0.2 -0.42,-0.42 -0.77,-0.43 -0.08,0.16 -0.13,0.22 -0.14,0.35l-0.08 -0.05c0.05,-0.57 0.24,-0.48 0.4,-0.85l-0.91 -0.08c-0.05,0.6 0.14,1.06 0.44,1.53zm2.57 -4.28c-0,0.31 0.18,0.51 0.21,0.93 0.04,0.49 0.21,0.36 0.55,0.64 0.28,0.23 0.21,0.16 0.75,-0.09 0.4,-0.18 0.56,-0.11 1.02,-0.14 -0.54,-1.14 -0.43,-1.56 -0.54,-1.78 -0.13,0.08 -0.4,0.42 -0.88,0.38 -0.35,-0.03 -0.18,-0.15 -0.55,0 -0.17,0.07 -0.37,0.06 -0.57,0.05zm-1.43 3.75c0.7,0.9 1.26,1.45 2.45,1.59 0.01,-0.24 -0.09,-0.1 -0.24,-0.32 -0.08,-0.11 -0.08,-0.23 -0.12,-0.37 -0.09,-0.32 -0.78,-0.43 -1.17,-0.93 -0.14,-0.18 -0.23,-0.43 -0.38,-0.62 -0.57,0.15 -0.25,-0.12 -0.7,-0.23 -0.36,-0.09 -0.51,0.07 -0.62,0.34 0.43,0.22 0.51,0.19 0.79,0.55zm4.68 -2.05c0.18,-0.08 0.28,-0.14 0.44,-0.23 0.24,-0.14 0.31,-0.05 0.36,-0.4 -0.25,0 -0.2,0.08 -0.45,0.25 -0.13,0.09 -0.29,0.2 -0.35,0.38zm-4.21 -0.07c-0.05,-0.1 0.01,-0.06 -0.13,-0.11 0.03,0.14 0.02,0.16 0.13,0.11z"/>
   <path class="fil1" d="M23.58 8.44c-0.16,0.27 -0.38,0.51 -0.57,0.78 -0.5,0.69 -1.88,2.51 -2.42,3.07 -1.01,1.05 -0.34,1.34 0.4,0.92 0.19,-0.11 0.65,-0.45 0.9,-0.41 -0.22,0.2 -0.52,0.44 -0.73,0.67 -1.46,1.55 0.33,0.89 1.09,0.65 3.02,-0.93 3.12,-2.33 3.5,-5.37 0.09,-0.69 0.05,-1.47 0.18,-2.14 0.22,-1.15 0.19,-1.67 0.66,-2.81 0.11,-0.26 0.29,-0.56 0.37,-0.82 -0.62,0.15 -2.28,1.25 -2.9,1.68 -0.74,0.5 -1.7,1.67 -2.28,2.4 -0.43,0.54 -0.88,1.32 -1.27,1.96 -0.4,0.66 -0.84,1.34 -1.04,2.17 -0.28,1.13 0.16,1.71 1.19,0.61 0.49,-0.52 0.95,-1.15 1.42,-1.72 0.48,-0.59 0.69,-0.76 1.13,-1.24 0.13,-0.14 0.28,-0.26 0.39,-0.39z"/>
   <path class="fil3" d="M13.81 27.68c0.2,-0.09 0.11,0.09 0.26,-0.15l0.45 -0.87c0.22,-0.42 0.44,-1.02 0.73,-1.06 -0.15,0.52 -0.15,0.12 -0.31,0.5 -0.19,0.48 -0.76,1.36 -0.75,1.6 0.26,-0.01 0.5,-0.25 0.65,-0.4 0.46,-0.48 0.75,-2.03 0.58,-2.56 -0.86,-0.22 -2,0.49 -2.49,1.1 -0.32,0.4 -1.03,1.68 -1.15,2.18 -0.05,0.22 0.01,0.26 -0.21,0.24 -0.14,-0.41 1.32,-2.67 1.37,-2.8 -0.33,0.02 -1.32,0.27 -1.58,0.57 -0.41,0.47 -0.62,0.7 -0.99,1.24 -0.25,0.36 -0.39,0.79 -0.46,1.2l0.1 0.08c0.14,0.11 0.29,0.23 0.38,0.39 0.08,0.15 0.07,0.27 0.12,0.42 0,0.02 0.02,0.06 0.04,0.07 0.03,0 0.07,-0.01 0.1,-0.01 0.09,-0.02 0.19,-0.05 0.28,-0.03 0.05,0.01 0.09,0.03 0.13,0.06 0.1,0.07 0.11,0.15 0.17,0.23 0,0.01 0.01,0.01 0.02,0.02 0.02,-0.04 0.04,-0.1 0.06,-0.12 0.04,-0.07 0.08,-0.13 0.14,-0.18 0.17,-0.15 0.42,-0.17 0.63,-0.15 0.11,0.01 0.25,0.03 0.36,0.02 0.12,-0.01 0.26,-0.07 0.38,-0.05 0.01,0 0.02,0 0.03,0.01 0.33,-0.45 0.8,-1.09 0.94,-1.52z"/>
   <path class="fil4" d="M6.78 20.44l-0.17 -0.35c-0.03,-0.03 -0.07,-0.06 -0.11,-0.09 -0.17,-0.17 -0.51,-1.27 -0.55,-1.52 -0.08,-0.54 -0.04,-0.74 0.07,-1.24 0.06,-0.25 -0.37,-0.75 -0.6,-0.8 -0.21,0.51 -0.04,0.67 -0.04,0.88 -0.01,0.15 -0.05,0.16 -0.06,0.3 -0,0.14 0.3,0.83 0.37,1.04 0.15,0.45 0.22,0.59 0.44,0.95 0.14,0.22 0.43,0.73 0.64,0.84zm-2.35 1.41c-0.09,0.15 -0.1,0.04 -0.14,0.3l0.6 0.02c0.26,-1.34 1.08,-1 1.5,-1.26 -0.11,-0.14 -0.56,-0.57 -0.72,-0.63 -0.4,0.37 -0.5,0.69 -1.1,1.14 -0.18,0.13 -0.34,0.19 -0.13,0.42zm1.5 2.51l-0.38 -0.45c-0.1,0.04 -0.47,-0.43 -0.53,-0.57 -0.34,-0.74 0.17,-1.03 -0.64,-1 0.21,0.13 0.54,1.38 1.56,2.01zm10.67 -6.35c-0.26,-0.03 -0.32,0.04 -0.61,0.24 -0.57,0.38 -1.65,0.92 -2.37,1.36 -0.22,0.13 -0.89,0.62 -1.08,0.82 -0.21,0.21 0.03,0.49 0.19,0.61 0.59,0.48 0.59,0.38 1.27,0.13 0.86,-0.31 0.49,-0.06 1.16,-0.72 0.27,-0.26 0.19,-0.3 0.37,-0.61 0.14,-0.23 0.27,-0.31 0.42,-0.55 0.19,-0.32 0.55,-0.94 0.65,-1.29zm1.02 -0.52c-0.08,0.16 0.07,-0.01 -0.01,0.16 -0.23,-0.04 -0.3,-0.04 -0.47,0.05 -0.14,0.08 -0.25,0.14 -0.3,0.25l-0.33 0.83c0.57,-0.3 0.38,-0.27 0.8,-0.58 0.17,-0.13 0.62,-0.45 0.67,-0.74l-0.35 0.03zm-0.61 1.49c0.95,-0.36 0.58,-0.41 1.54,-0.31 -0.06,0.11 -0.23,0.29 -0.31,0.39 0.45,0.05 0.54,0.21 0.65,0.56 0.26,0.84 0,1.78 0.07,2.17 0.04,0.26 0.01,0.14 -0.01,0.18l-0.07 0.26c-0.04,0.17 -0.11,0.32 -0.15,0.51 0.44,-0.52 1.16,-1.74 1.37,-2.51 0.27,-0.95 0.58,-2.49 0.58,-3.49 -0.36,0.06 -0.8,0.19 -1.16,0.28 -1.67,0.43 -0.89,0.02 -1.46,0.76 -0.35,0.46 -1.02,0.73 -1.07,1.2zm-8.21 -12.14l0.01 0.45c0.51,0.01 0.7,-0.09 1.03,-0.29 -0.37,-0.24 -0.65,-0.31 -1.04,-0.15zm3.86 7c0.13,-0.43 0.17,-0.36 0.41,-0.57 0.62,-0.54 0.99,-0.91 1.82,-0.98 1.35,-0.13 1.5,1.08 1.36,2.28l-0.16 -0.12c-0.06,-0.69 0.18,-0.77 -0.18,-1.42 -0.26,-0.48 -1.07,-0.57 -1.51,-0.31 -0.25,0.15 -0.05,-0.09 -0.52,0.29 -0.08,0.07 -0.15,0.1 -0.24,0.15 -0.5,0.3 -0.52,0.74 -0.98,0.67zm2.89 -6.16c-0.15,-0.22 -0.24,-0.41 -0.4,-0.59 -0.47,-0.51 -1.09,-1.05 -1.8,-1.26 0.1,0.14 0.42,0.37 0.54,0.77 -0.58,0.3 -3.16,-0.2 -4.09,-0.05 0.12,0.17 0.35,0.29 0.28,0.62 -0.34,0.27 -1.19,0.29 -1.63,0.52 0.11,0.01 0.13,-0 0.22,0 0.21,0.01 0.13,-0.03 0.18,0.08 0.1,0.23 -0.6,0.29 -1.22,0.87 -0.46,0.44 -0.67,0.67 -1.05,1.21 -0.43,0.62 -0.87,1.29 -1.14,2.01l-0.16 0.37c-0.01,0.29 -0.14,0.43 -0.16,0.7 0.15,0.16 0.37,0.15 0.49,0.36 -0.22,0.12 -0.42,-0.08 -0.67,-0.05l-0.17 0.52c0.44,-0.05 0.71,-0.33 1.3,0.27 0.22,0.22 0.59,0.73 0.58,1.18 -0.33,-0.2 -0.82,-1.8 -1.7,-1.17 -0.26,0.19 -0.25,0.48 -0.27,0.87 0.05,0.05 0.19,0.11 0.26,0.19 0.14,0.16 -0.01,0.16 0.27,0.16 0.03,-0.29 -0.28,-0.3 -0.15,-0.7 0.14,0.08 0.54,0.58 0.66,0.76l0.18 -0.2c0.11,0.11 0.19,0.78 0.51,1.05l0.01 -0.37c0.22,0.13 0.31,0.43 0.4,0.74 0.1,0.34 0.19,0.55 0.35,0.82 0.03,-0.14 -0,-0.16 0.08,-0.24 0.22,0.08 0.17,0.12 0.22,0.38 0.14,0.63 0.47,1.17 0.52,1.39 0.1,0.03 0.02,0.04 0.12,-0.06 0.01,0.23 0.06,0.37 0.25,0.49 0.13,-0.05 0.09,-0.03 0.19,-0.12 -0.01,-0.27 -0.24,-0.81 -0.29,-1.19 -0.04,-0.29 -0.09,-1.23 0.15,-1.38 0.26,0.14 -0.02,0.42 0.05,1.26 0.04,0.5 0.1,0.74 0.37,1.03l0.31 -0.04c0.52,-0.08 0.74,-1.82 0.98,-2.38 0.48,0.18 -0.03,0.77 0.12,1.19 0.11,-0.14 0.72,-1.85 0.78,-2.13 0.37,0.1 0.18,0.42 0.14,0.74 0.53,-0.19 0.51,-1.78 1.02,-1.97 0.21,0.22 0.05,0.57 0.01,0.89 0.39,-0.28 0.91,-1.12 1.18,-1.59 0.13,-0.23 0.24,-0.38 0.57,-0.3l-0.12 0.3c0.2,0.01 0.13,-0.05 0.28,-0.25 0.07,-0.1 0.18,-0.26 0.27,-0.32 0.14,0.04 0.14,0.06 0.22,0.16 -0.07,0.19 -0.2,0.18 -0.22,0.41 0.11,-0.1 0.32,-0.19 0.52,-0.24 0.25,0.19 0.65,1.46 0.15,1.75 -0.19,-0.46 0.26,-0.51 -0.27,-0.91 -0.55,0.13 -2.15,1.65 -2.54,2.25 -0.29,0.45 0.57,0.7 0.44,2.19 0.16,-0.18 0.26,-0.51 0.39,-0.71 0.14,-0.23 0.29,-0.43 0.44,-0.66l0.47 -0.58c0.24,-0.23 0.14,-0.45 0.6,-0.43 0.04,0.29 -0.24,0.37 -0.59,0.84 -0.72,0.96 -1.35,1.65 -1.51,2.99 0.33,-0.14 0.61,-0.38 0.91,-0.57l1.81 -1.16c0.3,-0.19 1.62,-0.82 2,-0.98 0.35,-0.14 0.74,-0.27 1.1,-0.39 0.3,-0.1 0.82,-0.2 1.16,-0.27 0.37,-0.08 0.87,-0.22 1.22,-0.25 0.02,-0.63 0.01,-1.1 -0.14,-1.66 -0.07,-0.24 -0.16,-0.49 -0.04,-0.75 0.1,-0.22 0.35,-0.47 0.39,-0.6 -0.37,0.02 -0.88,0.28 -0.96,-0.31 -0.03,-0.21 0.06,-0.27 0.09,-0.48 -0.59,-0.24 -1.05,-0.25 -0.81,-1.31 0.36,-1.59 1.57,-3.27 2.47,-4.52 0.33,-0.45 0.69,-0.78 1.05,-1.21 0.53,-0.63 1.2,-1.04 1.84,-1.52 0.75,-0.57 1.33,-0.77 2.11,-1.22 -1.44,0.01 -2.7,0.41 -3.87,0.96 -0.1,0.05 -0.23,0.11 -0.34,0.17 -0.12,0.07 -0.18,0.14 -0.3,0.2 -1.6,0.79 -3.3,2.3 -5.08,2.99 -0.34,0.13 -1.17,0.38 -1.56,0.42zm-6.77 -1.16c0.65,0.01 1.27,-0.26 1.91,-0.22 -0.07,-0.23 -0.27,-0.56 -0.38,-0.82 -0.13,-0.28 -0.25,-0.56 -0.39,-0.85 -0.51,-1.09 -0.81,-2.57 -1.55,-3.32 -0.41,-0.42 -0.8,-0.85 -1.65,-0.96 0.41,0.57 0.48,0.34 0.85,1.27 0.19,0.49 0.39,0.99 0.54,1.52 0.24,0.82 0.73,2.46 0.68,3.38z"/>
   <path class="fil5" d="M5.84 20.07c0.08,0.14 0.65,0.68 0.83,0.75l-0.69 -1.03 -0.15 0.29z"/>
   <path class="fil6" d="M9.91 28.71c0.13,0.1 0.26,0.2 0.32,0.32 0.07,0.12 0.07,0.27 0.11,0.38 0.04,0.11 0.11,0.2 0.22,0.21 0.12,0.01 0.28,-0.06 0.37,-0.05 0.09,0.01 0.1,0.11 0.17,0.2 0.07,0.1 0.19,0.19 0.27,0.13 0.08,-0.06 0.12,-0.27 0.24,-0.38 0.12,-0.11 0.33,-0.11 0.49,-0.1 0.16,0.01 0.27,0.03 0.4,0.02 0.12,-0.01 0.26,-0.06 0.32,-0.05 0.07,0.01 0.06,0.08 0.01,0.23 -0.06,0.15 -0.17,0.38 -0.34,0.56 -0.17,0.18 -0.39,0.32 -0.52,0.43 -0.12,0.12 -0.14,0.22 -0.19,0.38 -0.04,0.15 -0.11,0.36 -0.12,0.5 -0.01,0.14 0.03,0.22 0.06,0.31 0.03,0.09 0.04,0.21 -0.08,0.28 -0.12,0.07 -0.37,0.11 -0.52,0.04 -0.15,-0.08 -0.21,-0.26 -0.22,-0.42 -0,-0.16 0.05,-0.29 0.1,-0.39 0.04,-0.1 0.07,-0.18 0.04,-0.29 -0.03,-0.11 -0.12,-0.27 -0.21,-0.3 -0.09,-0.04 -0.17,0.05 -0.21,0.12 -0.04,0.08 -0.04,0.15 -0.08,0.2 -0.04,0.05 -0.11,0.09 -0.23,0.09 -0.13,0 -0.31,-0.03 -0.4,-0.13 -0.09,-0.1 -0.09,-0.27 -0.07,-0.4 0.02,-0.13 0.04,-0.23 -0,-0.34 -0.05,-0.11 -0.16,-0.22 -0.21,-0.4 -0.05,-0.18 -0.03,-0.41 0.03,-0.62 0.06,-0.21 0.15,-0.38 0.25,-0.55z"/>
   <path class="fil7" d="M6.15 17.62c-0.07,0.82 0.17,1.55 0.5,2.24 0.42,0.1 0.43,-0.15 0.85,0.25 0.16,0.16 0.25,0.52 0.33,0.75 0.05,-0.06 0.02,0.07 0.05,-0.13 0.02,-0.11 -0.16,-0.84 -0.19,-0.97 -0.23,-0.75 -0.5,-1.08 -0.96,-1.76 -0.17,-0.26 -0.53,-0.97 -0.58,-0.39zm4.32 2.44c0.32,0 0.47,-0.03 0.71,0.18 0.2,0.17 0.31,0.32 0.21,0.63 0.15,-0.01 0.33,-0.14 0.46,-0.21 0.15,-0.09 0.31,-0.18 0.36,-0.36 0.09,-0.34 0.13,-0.93 0.19,-1.3 0.07,-0.51 0.11,-0.79 -0.02,-1.25 -0.09,-0.35 -0.26,-0.74 -0.5,-0.87 -0.28,0.46 -0.72,1 -1.06,1.4 -0.17,0.2 -0.47,0.45 -0.48,0.77 -0.01,0.35 0.05,0.74 0.13,1.01z"/>
  </g>
 </g>
</svg>
