<?xml version="1.0" encoding="UTF-8"?>
<!DOCTYPE svg PUBLIC "-//W3C//DTD SVG 1.1//EN" "http://www.w3.org/Graphics/SVG/1.1/DTD/svg11.dtd">
<!-- Creator: CorelDRAW -->
<svg xmlns="http://www.w3.org/2000/svg" xml:space="preserve" width="16.2196mm" height="14.683mm" version="1.1" style="shape-rendering:geometricPrecision; text-rendering:geometricPrecision; image-rendering:optimizeQuality; fill-rule:evenodd; clip-rule:evenodd"
viewBox="0 0 59.36 53.73"
 xmlns:xlink="http://www.w3.org/1999/xlink"
 xmlns:xodm="http://www.corel.com/coreldraw/odm/2003">
 <defs>
  <style type="text/css">
   <![CDATA[
    .fil0 {fill:black}
    .fil1 {fill:#FFCC00}
   ]]>
  </style>
 </defs>
 <g id="Camada_x0020_1">
  <metadata id="CorelCorpID_0Corel-Layer"/>
  <g id="Figs_Desenho_VarCor_019">
   <path class="fil0" d="M14.56 4.81c-3.77,0 -5.54,3.15 -4.85,6.44 0.2,0.95 0.33,0.5 0.33,1.8 0,0.43 -1.62,2.35 -1.73,5.18 -0.18,4.37 0.53,4.08 0.53,6.12 -2.06,1.09 -2.21,0.9 -4.1,2.41 -1.77,1.41 -3.6,3.06 -4.36,5.35 -1.58,4.74 2.01,6.07 6.34,5.01l2.39 -0.67c-2.52,3.76 -6.07,8.18 -3.72,12.9 1.46,2.92 5.09,4.39 8.64,4.39 3.1,0 5.47,-1.2 6.65,-1.2 0.53,0 2.93,2.87 10.55,-1.55l3.6 -2.38c0.76,-0.56 1.69,-0.96 2.53,-1.46 4.86,-2.91 8.41,-2.6 13.65,-2.5 0.32,0.01 0.22,-0.03 0.65,-0.07 1.58,-0.13 2.27,0.16 4.47,-0.59 2.69,-0.92 4.12,-2.99 2.62,-5.71 -1.37,-2.48 -4.86,-3.71 -7.22,-4.75 -1.73,-0.76 -1.63,-0.68 -3.19,-1.72 0.15,-1.83 1.91,-2.78 2.96,-3.82 1.44,-1.43 3.17,-3.86 1.87,-6.06 -1.37,-2.33 -2.7,-1.29 -4.43,-1.15 0,-2.67 2.87,-3.1 3.31,-6.27 0.32,-2.3 -0.95,-4.09 -2.54,-4.34 -0.64,-0.1 -1.58,-0.16 -2.23,-0.16 -0.14,-0.58 -1.64,-3.5 -2,-4.12 -1.4,-2.42 -4.72,-4.08 -7.29,-4.94 -4.85,-1.63 -11.61,-0.97 -16.11,0.81l-3.63 1.68c-0.63,0.32 -1.09,0.67 -1.68,0.98 -1.54,0.81 -1.53,0.4 -2,0.4z"/>
   <path class="fil1" d="M16.69 5.2c0.62,-0.16 1.92,-1.15 2.61,-1.51 1,-0.51 1.92,-0.82 3.06,-1.2 5.77,-1.94 13.55,-1.95 18.82,1.35 2.07,1.3 5.1,4.12 5.16,6.67 -1.73,1.16 -3.67,2.16 -5.36,3.42 -0.39,0.29 -0.45,0.35 -0.79,0.67l-3.72 3.59c-0.72,0.72 -2.39,2.35 -2.63,3.22 0.71,-0.19 3.13,-2.94 3.89,-3.69 0.35,-0.34 0.53,-0.41 0.87,-0.73 2.18,-2.02 6.88,-5.69 9.74,-5.69 1.54,0 2.53,0.59 2.53,2.53 0,0.98 -0.9,3.7 -1.99,3.99 -0.1,-0.41 -0.17,-0.38 -0.27,-0.8l-0.93 2.93c-0.26,0.93 -0.89,1.75 -1.07,2.52l1.55 -0.58c1.63,-0.78 4.3,-0.71 4.3,1.11 0,1.55 -0.45,2.78 -1.43,3.89 -0.75,0.85 -1.45,1.61 -2.35,2.31 -0.61,0.47 -0.91,1.1 -1.54,1.52 -0.37,-0.56 -1.2,-1.43 -1.2,-2.26 0,-0.62 2.13,-2.53 2.79,-2.53 0.62,0 0.65,0.87 1.2,1.06 0,-3.09 -2.72,-1.68 -3.72,-1.6l0 0.27c0.3,0.07 0.31,0.1 0.66,0.13l-0.35 0.45c-0.19,0.18 -0.3,0.25 -0.49,0.44 -1.13,1.11 -1.43,1.94 -1.43,3.76 0.37,-0.13 0.35,-0.12 0.4,-0.66 0.58,0.39 0.83,1.13 1.27,1.66 3.17,3.48 10.77,3.55 11.7,8.37 0.63,3.25 -5.24,3.8 -7.36,3.9 -0.54,0.03 -1.07,0.04 -1.61,0.04 -0.87,0 -1.33,-0.11 -2,-0.14 -1.66,-0.07 -4.67,0.67 -5.71,0.67 0.61,-0.53 1.55,-0.65 2.28,-0.91l0.78 -0.42c-2.43,0 -5.41,1.55 -7.63,2.34l-7.31 2.66c-1.74,0.59 -3.25,1.18 -5.08,1.7l-5.02 1.62c-3.31,1.08 -7.75,1.71 -10.78,-0.3 -1.63,-1.08 -2.74,-2.03 -2.74,-4.44 0,-3.87 2.82,-7.67 5.07,-10.49 2.7,-3.37 2.39,-4.18 -0.17,-5.18 -0.25,-0.1 -0.16,-0.04 -0.38,-0.15 -0.22,-0.11 -0.23,-0.12 -0.4,-0.27 0.71,-0.02 1.24,-0.27 1.99,-0.27 -0.15,-0.55 -0.52,-0.53 -1.73,-0.53 -1.77,0 -3.09,0.39 -4.18,1.14 -0.82,0.56 -2.23,1.96 -2.47,2.98 0.45,-0.12 0.58,-0.37 0.9,-0.7 2.64,-2.7 5.75,-2.25 5.75,0.7 0,1.42 -3.94,2.39 -5.19,2.39 -1.81,0 -3.99,-0.24 -3.99,-2.53 0.05,-3.11 3.92,-6.26 6.45,-7.55 1.39,-0.7 2.89,-1.18 4.45,-1.23l0 -0.27c-0.53,-0.12 -0.62,-0.2 -1.29,-0.3 -0.63,-0.09 -0.81,0.03 -1.06,-0.54 -0.94,-2.13 -0.38,-8.02 1.29,-9.13 0.54,0.36 2.05,3.18 0.95,0.25 -0.79,-2.12 -1.92,-5.61 -0.12,-7.53 0.94,-1 1.67,-1.36 3.16,-1.36 2.05,0 4.96,3.15 5.94,4.83 1.69,2.86 2.23,4.49 3.59,7.18 0.64,1.26 1.87,3.76 3.24,4.08 -0.3,-1.31 -1.9,-3.02 -2.57,-4.34 -1.7,-3.37 -2.3,-6.04 -4.77,-9.06 -0.53,-0.65 -0.96,-1.31 -1.6,-1.85 -0.31,-0.27 -0.66,-0.5 -1,-0.73 -0.59,-0.39 -0.69,-0.38 -0.96,-0.9zm18.75 41.75l0.26 -0.15 -0.26 0.15zm-19.28 -33.77c0,0.79 -1.6,3.02 -1.6,6.52 0,4.18 2.67,8.11 6.78,8.11 1.49,0 1.23,-0.11 2.53,-0.8 0.51,0.34 0.81,0.83 1.33,1.2 1.28,0.92 2.4,1.02 3.75,0.15 1.28,-0.82 0.18,-0.02 2.76,-0.02 1.05,0 1.72,-0.53 2.53,-0.53 0.92,0 4.28,1.23 6.86,-0.46 1.26,-0.83 2.53,-2.91 2.7,-4.48l0.15 -3.44c0.48,-0.26 0.78,-0.52 1.28,-0.85l2.68 -1.84c0.23,-0.17 0.38,-0.28 0.61,-0.46 0.62,-0.5 0.45,-0.27 0.49,-0.7 -2.02,0.47 -3.09,1.16 -4.73,2.45 -0.71,0.56 -1.24,1.1 -1.94,1.65 -0.38,0.3 -0.56,0.58 -0.97,0.89 -0.45,0.35 -0.59,0.5 -0.97,0.89 -1.99,2 -6.06,5.95 -8.68,5.95 -1.41,0 -1.61,0.1 -0.91,-0.9l1.41 -2.05c0.31,-0.35 0.58,-0.66 0.83,-1.03 -0.51,0.04 -0.45,0.11 -0.81,0.39 -0.28,0.22 -0.36,0.28 -0.6,0.59 -0.74,0.97 -2.91,3.4 -4.18,3.4 -0.96,0 -1.85,-0.95 -2.36,-1.49 -0.64,-0.69 -0.94,-1.56 -1.28,-2.58 -1.42,-4.28 -1.36,-6.89 -5.31,-10.25 -1.35,-1.15 -3.48,-2.43 -5.41,-2.43 0.1,0.38 0.26,0.43 0.58,0.62 0.32,0.18 0.59,0.3 0.88,0.45 0.36,0.18 1.6,0.61 1.6,1.06zm17.42 18.22c0,1.92 5.45,2.38 5.45,0.66 0,-1.27 -2.19,-1.86 -2.92,-1.86 -0.66,0 -2.53,0.19 -2.53,1.2zm0.53 -0.27c0.71,-0.97 4.16,-0.57 4.52,0.8 -1.93,-1.02 -1.95,-1.4 -4.52,-0.8zm8.91 2.13c0,2.33 5.32,2.84 5.32,1.46 0,-2.22 -5.32,-2.98 -5.32,-1.46zm1.33 -0.4c1.57,0 3.44,0.2 3.59,1.99 -0.74,-0.5 -0.19,-0.5 -1.38,-1.28 -0.66,-0.44 -1.17,-0.58 -2.21,-0.58l0 -0.13zm-14.63 -29.38c0,2.15 5.58,1.96 5.58,0.53 0,-2.36 -5.58,-1.91 -5.58,-0.53zm0.4 0c0.61,-0.9 1.19,-0.8 2.39,-0.8 1.19,0 2.16,0.22 2.39,1.2 -2.32,-1.11 -2.65,-0.9 -4.79,-0.4zm-15.56 31.78c0,0.52 0.04,1.06 1.2,1.06 4.36,0 5.95,-5.36 0.4,-2.79 -0.43,0.2 -1.59,1.22 -1.59,1.73zm0.4 0.4c0.04,-1.94 3.93,-3.2 4.25,-1.99 -3.11,0 -3.07,1.2 -4.25,1.99zm26.78 2.08c1.07,0.19 3,0.24 3,-1.01 -0.04,-0.7 -1.59,-1.42 -2.15,-1.61 -1.15,-0.37 -2.68,-0.4 -3.36,0.81 -0.11,0.2 0.05,0.37 0.17,0.54 0.55,0.77 1.44,1.1 2.33,1.27zm-1.12 -2.47c1.2,0 3.69,0.21 3.72,1.73 -0.5,-0.27 -0.73,-0.45 -1.15,-0.8 -0.57,-0.47 -1.23,-0.48 -1.95,-0.51 -0.47,-0.02 -0.95,-0.02 -1.42,-0.02 0.26,-0.34 0.36,-0.39 0.8,-0.4zm-25.79 5.72c0,0.84 0.05,0.93 1.2,0.93 1.58,0 3.59,-1.94 3.59,-3.06 0,-0.3 -0.05,-0.15 -0.13,-0.53 -2.66,-0.62 -4.65,1.63 -4.65,2.66zm0.53 0.27l-0.27 0c0.03,-1.53 1.76,-2.79 3.86,-2.79l0 0.27c-1.56,0.04 -3.3,1.3 -3.59,2.53zm18.08 -25.13c0.95,0 3.32,-0.02 3.39,-1.22 0.11,-1.95 -4.68,-1.66 -5.48,-0.46 -0.68,1.02 1.07,1.68 2.09,1.68zm-1.73 -1.33c0.75,-1.41 3.34,-1.24 4.31,-0.59 0.36,0.24 0.24,0.05 0.34,0.45 -0.74,-0.06 -1.29,-0.53 -2.13,-0.53 -1.07,0 -1.62,0.59 -2.53,0.66zm1.99 -6.91c1,0.23 2.14,0.11 2.39,1.06 -2.85,-1.37 -3.72,-0.28 -4.64,-0.19 -0.11,0.01 -0.54,-0.18 -0.54,0.19 0,1.98 5.58,1.62 5.58,0.13 0,-0.72 -0.53,-1 -1.06,-1.2 -0.32,-0.12 -1.66,-0.45 -1.73,0.01zm-7.18 2.53c-1.73,0.04 -3.71,2.13 0.04,2.5 3.04,0.3 5.19,-2.63 1.42,-2.77l-1.46 0.27zm0 0c1.35,0 2.49,-0.27 3.06,0.8 -2.17,0 -2.42,-0.97 -4.65,0.53 0.21,-0.89 0.66,-0.88 1.33,-1.19l0.26 -0.14zm-3.59 22.87c0,1.93 5.05,0.39 5.05,-1.73 0,-1.24 -2.26,-0.56 -2.88,-0.35 -0.6,0.2 -0.94,0.4 -1.35,0.78 -0.24,0.22 -0.83,0.93 -0.83,1.3zm0.4 0.27c0,-0.98 0.46,-1.3 1.09,-1.71 0.51,-0.34 2.72,-1.33 3.04,-0.15 -3.29,0 -2.88,1.03 -4.12,1.86zm15.69 -26.33c0,0.67 1.2,1.44 1.78,1.68 1.29,0.52 1.58,0.49 2.87,0.18 0.09,-0.36 0.13,-0.25 0.13,-0.53 0,-1.98 -4.79,-3.13 -4.79,-1.33zm0.66 -0.53c1.07,-0.25 1.35,-0.19 2.57,0.49 0.57,0.32 0.99,0.56 1.15,1.24 -0.92,-0.25 -0.88,-1.25 -2.53,-1.46l-1.19 -0.27zm-2.79 4.92c0,1.68 4.59,2.32 4.79,0.8 -0.24,-1.03 -1.77,-1.73 -3.06,-1.73 -0.65,0 -1.73,0.52 -1.73,0.93zm0.66 -0.4c1.23,-0.29 3.18,-0.12 3.46,0.93 -2.62,-1.39 -1.92,-0.64 -3.16,-0.83 -0.31,-0.05 -0.13,0 -0.29,-0.1zm-15.82 -5.05c0,0.99 2.27,1.06 3.06,1.06 0.68,0 1.99,-0.63 1.99,-1.06 0,-1.91 -5.05,-1.71 -5.05,0zm0.4 -0.13c0.27,-0.51 0.29,-0.59 0.98,-0.74 1.14,-0.25 2.58,-0.43 3.27,0.61 -0.94,-0.02 -1.19,-0.4 -2.39,-0.4 -0.93,0 -1.08,0.47 -1.86,0.53zm-6.52 40.02l-0.29 0.07 0.29 -0.07c0.56,-0.05 1.38,-0.39 1.94,-0.58 6.95,-2.32 13.42,-4.44 20.92,-5.27 3.22,-0.36 6.7,-0.57 9.84,-0.4 0.74,0.04 1.65,0.27 2.39,0.27 -0.13,-0.48 -0.22,-0.41 -0.79,-0.54 -3.79,-0.88 -9.64,-0.53 -13.59,0.12 -1.62,0.27 -3.09,0.56 -4.53,0.92 -1.48,0.37 -2.77,0.72 -4.2,1.12 -3.06,0.85 -8.68,2.77 -11.5,4.05 -0.29,0.13 -0.3,0.15 -0.49,0.31zm19.81 0.93c-0.28,0.38 -0.8,0.58 -1.25,0.88 -1.77,1.16 -2,1.49 -4.11,2.54 -3.12,1.56 -3.76,1.79 -7.14,1.51 0.18,-0.15 0,-0.05 0.32,-0.21 0.04,-0.02 0.36,-0.15 0.38,-0.16l2.32 -0.87c1.24,-0.48 8.6,-3.48 9.48,-3.68z"/>
  </g>
 </g>
</svg>
