<?xml version="1.0" encoding="UTF-8"?>
<!DOCTYPE svg PUBLIC "-//W3C//DTD SVG 1.1//EN" "http://www.w3.org/Graphics/SVG/1.1/DTD/svg11.dtd">
<!-- Creator: CorelDRAW -->
<svg xmlns="http://www.w3.org/2000/svg" xml:space="preserve" width="40.1751mm" height="52.0434mm" version="1.1" style="shape-rendering:geometricPrecision; text-rendering:geometricPrecision; image-rendering:optimizeQuality; fill-rule:evenodd; clip-rule:evenodd"
viewBox="0 0 278.79 361.15"
 xmlns:xlink="http://www.w3.org/1999/xlink"
 xmlns:xodm="http://www.corel.com/coreldraw/odm/2003">
 <defs>
  <style type="text/css">
   <![CDATA[
    .fil0 {fill:#020201}
    .fil6 {fill:#4C4C4A}
    .fil5 {fill:#768797}
    .fil4 {fill:#9EA0A1}
    .fil3 {fill:#DD1018}
    .fil7 {fill:#E0E0E0}
    .fil2 {fill:whitesmoke}
    .fil1 {fill:#FDB11A}
   ]]>
  </style>
 </defs>
 <g id="Camada_x0020_1">
  <metadata id="CorelCorpID_0Corel-Layer"/>
  <g id="_2377764665360">
   <path class="fil0" d="M184.89 284.03c-3.21,-1.32 -5.39,-3.03 -8.72,-4.28 -4.72,-1.77 -6.46,1 -7.63,-4.71 -1.89,-6.5 -13.69,-27.33 -13.31,-32.76 2.37,-2.22 6.93,-6.27 6.67,-11.33 -2.27,-1.41 -4.7,-2.67 -7.15,-4.22 -4.53,-2.88 -16.24,-12.24 -18.64,-15.75 -2.4,-3.52 -5.09,-11.68 -6.32,-16.67 -0.75,-3.07 -1.95,-6.51 -1.64,-9.71 1.32,-13.64 2.97,-8.63 12.85,-13.77 5.79,-3.02 5.31,-3.07 11.71,-1.02 7.59,2.44 16.61,4.48 23.77,7.48 0.34,2.97 -0.52,6.51 -0.95,9.2 -1.42,8.84 -10.58,10.77 -11.6,20.97 -1.46,14.5 13.63,19.58 19.32,23.45 0.69,6.22 1.51,6.19 5.66,9 7.78,5.26 14.17,5.58 23.03,2.48 2.67,-0.93 17.12,-9.39 18.77,-10.96 3.7,-3.52 5.66,-3.07 9.21,-5.88 5.26,-4.17 8.44,-13.2 7.53,-22.78 -0.89,-9.28 -5.93,-14.88 -10.51,-19.23 -3.12,-2.96 -8.5,-7.23 -12.93,-8.94 -1.89,-0.73 -4.11,-0.96 -5.72,-2.1 -3.02,-2.14 -3.65,-8.25 -17.99,-11.68 -8.59,-2.05 -17.11,-3.41 -26.36,-3.86 4.5,-5.27 11.42,-2.19 14.61,-11.46 2.61,-7.58 -1.39,-15.52 -3.9,-21.6 -2.26,-5.47 -0.02,-3.91 0.87,-9.52 0.69,-4.31 1.04,-7.86 0.1,-12.28 -1.31,-6.15 -0.95,-19.07 -0.58,-25.8 2.05,-1.28 5.7,-1.71 8.48,-2.89 2.59,-1.1 5.05,-2.58 7.16,-4.26 4.35,-3.49 7.03,-7.37 9.58,-13.35 13.04,-30.53 -26.57,-63.62 -52.85,-32.01 -3.87,4.65 -5.52,8.42 -6.98,15.91 -3.3,0.5 -7.33,-1.04 -10.73,-1.61 -4.35,-0.73 -6.93,-0.82 -11.44,-1.05 0.5,-5.44 4.09,-0.93 2.19,-17.28 -2.31,-19.91 -27.08,-23.14 -41.37,-16.9 -19.5,8.52 -23.12,35.31 -8.07,48.69 2.06,1.83 4.01,2.55 6.51,4.42 -0.31,3.61 -1.98,6.99 -3.34,10.15 -1.37,3.2 -0.8,1.92 -3.21,3.6 -1.71,1.19 -1.86,2.5 -1.68,5.02 1.01,0.99 1.37,1.02 2.63,2.06 0.02,5.15 -6.54,23.42 -7.92,28.49 -1.24,4.54 -2.96,4.19 -5.74,6.9 -8.07,7.87 -4.25,5.37 -7.71,16.84 -2.77,9.19 -3.07,10.9 -2.86,21.56 -17.69,-0.32 -28.03,-7.8 -34.24,16.86 -2.64,10.5 -3.18,9.81 -11.13,14.79 -4.12,2.58 -11.95,8.6 -12.29,13.8 -0.4,6.06 6.66,13.7 8.97,17.08 5.45,7.97 8.6,8.38 16.08,9.87 4.72,0.95 3.87,3.14 10.92,2.32 2.57,-0.3 9.28,-2.3 10.82,-2.07 1.68,0.26 4.47,2.87 10.73,0.66 3.66,-1.29 5.69,-3.98 8.01,-4.82 3.41,5.52 8.12,12.31 9.03,18.16 1.51,9.69 1.07,13.89 10.42,16.42 21.56,5.82 16.49,-4.51 24.01,16.75 1.64,4.64 0.41,7.16 -3.27,9.04 -3.07,-0.91 -7.1,-3.43 -10.93,-4.83 -12,-4.4 -28.17,-6.1 -39.34,-0.24 -15.31,8.02 -19.21,27.5 -6.15,42.11 9.97,11.15 26.21,18.84 41.41,22.08 31.03,6.62 49.15,-5.84 54.06,-6.12 2.03,1.96 3.07,3.95 5.05,5.86 13.83,13.32 31.47,26.15 52.62,22.04 12.89,-2.5 21.04,-5.19 31.4,-12.26 7.09,-4.84 18.52,-16.69 18.25,-26.15 12.76,-6.93 24.26,-9.39 26.38,-28.56 0.44,-3.95 0.58,-9.24 -0.97,-12.97 -0.94,-2.25 -0.93,-1.95 -1.96,-2.54 -0.79,9.5 2.13,23.11 -12.52,33.29 -1.88,1.31 -7.8,4.98 -10.47,5.19 -3.26,-3.59 -7.03,-19.38 -27.76,-22.29 -15.35,-2.16 -12.16,0.67 -32.13,-5.29 -3.42,-1.02 -5.73,-0.66 -6.83,-2.61 -0.76,-1.34 0.03,-1.31 -0.96,-2.14zm-52.98 -30.72c0.57,4.59 4.53,11.85 6.44,15.86 2.05,4.3 5.39,11.3 10.59,12.2 -0.12,-0.81 -7.6,-19.77 -9.49,-31.09l-7.54 3.03zm-8.91 5.73c0.92,3.1 2.8,7.41 4.3,10.19 0.61,1.13 2.18,3.61 2.89,4.44 1.57,1.86 2.73,1.36 5.62,1.72 0.07,-0.05 1.47,0.38 0.12,-2.66 -0.38,-0.86 -0.91,-1.64 -1.28,-2.48 -1.98,-4.49 -4.73,-13.99 -6.5,-15.97l-6.89 0.7c0.1,0.32 1.62,3.91 1.74,4.05z"/>
   <path class="fil1" d="M173.33 314.28c1.31,-5.78 12.33,-9.89 18.89,-11.49 5.34,-1.3 22.9,-2.26 28.06,-0.53 0.14,2.95 -2.03,2.63 -5.18,2.77 -11.07,0.51 -22.73,0.08 -32.32,3.96 -7.98,3.23 -6.58,4.8 -9.45,5.3zm13.61 -17.23c-2.79,11.48 -20.15,7.22 -29.24,4.3 -3.33,-1.07 -7.11,-3.29 -9.21,-3.73 -2.22,8.6 -5.43,14.45 -3.68,24.94 0.58,0.92 0.47,1.53 1.04,2.53 1.06,1.85 1.01,0.84 1.93,2.28 1.52,2.39 0.81,3.03 2.99,5.34 8.43,8.91 15.71,15.07 28.1,20.85 15.89,7.41 38.97,-0.23 50.89,-7.95 6.84,-4.43 11.44,-9.52 15.9,-16.92 2.69,-4.47 3.38,-7.81 1.07,-13.32 -6.39,-15.25 -18.54,-16.08 -32.14,-16.93 -11.25,-0.71 -21.3,-5.52 -26.88,-5.64l-0.79 4.26z"/>
   <path class="fil1" d="M111.19 298.93c2.56,1.02 6.36,1.8 8.39,3.32 -0.16,4.52 -6.78,1.84 -9.18,0.57 -3.47,-1.83 -5.47,-3.4 -7.56,-5.99 -2.12,-2.63 -3.71,-5.18 -5.75,-7.78 -1.83,-2.34 -5.02,-5.14 -5.63,-8.33 6.61,1.85 10.94,14.69 19.74,18.21zm30.24 24.44c-2.19,-2.44 -1.27,-9.23 -0.53,-12.56 1.75,-7.88 3.07,-6.16 4.07,-10.43 -13.62,0 -24.17,2.84 -33.54,-8.49 -3.33,-4.02 -3.63,-2.81 -4.32,-9.22 -4.21,-2.93 -16.46,-5.32 -22.96,-6.26 -15.91,-2.31 -35.02,-1.48 -37.41,18.69 -1.18,9.93 3.2,15.94 7.81,20.35 10.3,9.86 20.58,15.21 39.19,18.58 9.65,1.75 16.25,2.36 26.2,0.72 5.82,-0.96 18.37,-3.77 22.37,-6.48l-0.88 -4.9z"/>
   <path class="fil2" d="M199.85 190.96c-0.76,-2.02 -2.01,-2.91 -2.17,-4.63 3.26,0.12 4.7,4.81 6.07,8.05 0.73,1.71 4.22,8.97 2.85,10.43 -3.29,3.5 -5.4,-10.27 -6.75,-13.85zm6.55 -8.42c4.8,0.42 13.58,13.6 12.25,15.04 -2.34,2.55 -3.9,-3.02 -6.48,-6.95l-5.77 -8.1zm20.14 14.19c-2.12,-0.72 -2.53,-3.44 -5.39,-7.79 -0.82,-1.25 -1.77,-2.68 -2.66,-3.6 -1.69,-1.73 -2.19,-0.99 -3.17,-3.58 4.41,1.07 9,6.67 10.63,10.21 1.87,4.07 1.35,3.52 0.59,4.76zm-44.24 23.26c4.63,1.28 6.98,3.68 10.39,6.26 2.76,2.09 6.41,4.43 5.34,9.99 -1.78,0.36 -1.47,0.52 -2.39,-0.52 -1.94,-0.29 -3.9,-1.28 -5.37,-2.37 -2.58,-1.91 -1.38,-3.36 -3.22,-4.82 -3.62,4.66 7.04,11.44 17.63,11.47 17.65,0.06 11.89,-7.7 18.17,-12.76 -0.17,2.13 -0.79,2.91 -0.37,5.08 4.61,-0.47 6.08,-2.86 8.05,-5.76 2.59,-3.81 2.22,-7.44 3.83,-10.53 0.98,1.99 0.47,5.5 0.21,7.84 6.76,-1.64 15.38,-19.04 1.7,-34.95 -8.39,-9.76 -22.53,-15.93 -35.84,-13.25 -8.69,1.75 -10.12,5.64 -14.48,10.47 -8.86,9.83 -4.8,-0.21 -13.09,11.91 -3.77,5.52 -7.57,9.87 -3.03,17.71 2.34,4.04 9.48,10.92 14.5,10.41 -0.29,-3.16 -2.75,-2.05 -2.98,-5.68l0.97 -0.52z"/>
   <path class="fil3" d="M94.24 185.62c2.62,-0.46 4.41,-3.6 9.37,-2.16 5.99,1.73 9.04,19.26 8.92,25.61 -0.1,5.3 -5.98,13.39 -11.94,8.77 -4.17,-3.23 -4.91,-9.48 -7.86,-14.94 -2.03,0.39 -3.82,1.86 -5.85,2.86 -3.14,1.55 -3.84,0.49 -5.72,3.69 -4.69,7.98 -5.04,4.05 -10.82,2.12 -7.45,6.96 6.48,18.88 11.58,22.86 2.34,1.83 6.05,3.41 5.49,7.27 -3.26,-0.53 -7.23,-5.37 -10.04,-6.86 -0.38,2.59 -0.04,8.79 1.46,10.5 1.84,2.08 7.76,1.69 10.83,2.06 5.16,0.62 19.48,1.76 23.43,-0.86 0.29,-4.67 -2.21,-3.05 -3.28,-6.9 4.04,-1.03 4.01,0.33 5.89,2.67 1.62,2.01 3.03,2.94 4.53,4.84 3.27,4.16 6.03,4.09 13.58,0.94 10.86,-4.54 11.86,-7.42 17.6,-10.54 2.95,-1.61 4.81,-0.55 5.99,-4.02 -0.07,-1.08 -5.75,-3.91 -8.7,-5.99 -3.18,-2.24 -5.21,-4.74 -8.02,-7.08 -6.43,-5.37 -9.15,-7.35 -11.38,-18.34 -2.18,-10.73 -1.75,-10.02 -13.61,-16.07 -8.69,-4.43 -13.08,-7.94 -22.6,-7.87 0.02,2.88 0.23,5.2 1.15,7.45z"/>
   <path class="fil2" d="M61.73 216.91c0.26,-2.4 1.98,-5.62 4.49,-6.1 2.4,-2.72 -0.92,-5.2 -2.23,-6.32 -1.78,-1.52 -3.33,-3.13 -5.21,-4.68 -5.5,-4.52 -10.3,-6.72 -8.76,-10.59 4.08,-0.2 16.45,11.9 17.44,13.61 2.88,0.51 3.18,0.34 4.21,-1.91 0.48,-1.06 1.2,-2.88 1.5,-4.37 0.76,-3.76 1.09,-5.59 1.08,-9.44 -0.52,-4.14 -11.78,-10.28 -16.27,-13.58 -2.74,-2.01 -3.83,-2.41 -2.74,-6.62 1.92,0.45 14.8,9.81 17.19,11.95 2,1.8 3.06,3.97 5.21,4.63 3.34,-5.27 6.32,-18.23 -1.74,-20.12 -22.97,-5.39 -4.79,-12.42 -32.74,-10.36 -5.94,0.44 -8.3,-0.27 -10.78,4.04 -2.15,3.72 -8.05,17.18 -8.33,21.28 1.51,1.25 1.67,0.51 2.22,2.08 -2.04,2.82 -2.72,1.55 -4.05,6.53 -1.92,7.18 0.85,6.57 2.45,7.53 -1.24,1.75 -2.5,1.73 -3.97,3.98 -0.83,1.27 -2.48,4.31 -2.8,6.08 -1.41,7.86 7.88,17.05 17.04,16.93 4.82,-0.06 11.19,-1.51 12.38,-5.13 -2.31,-1.5 -3.54,-0.65 -5.42,-1.56 1.21,-2.53 6.62,-1.07 8.87,-0.11 2.35,1 1.78,0.28 1.75,2.19 -2.84,1.08 -4.56,-0.15 -4.93,3.12 3.8,3.73 13.35,-0.2 14.14,-3.08z"/>
   <path class="fil2" d="M92.19 70.63c6.93,0.33 15.92,3 22.49,4.49 7.43,1.69 15.65,2.78 23.03,4.01 7.89,1.31 14.85,2.86 22.45,4.7 6.04,1.46 16.24,3.77 21.05,6.57l0.2 -15.14c-2.55,0.6 -3.57,1.37 -6.81,1.27 -4.05,-0.12 -2.11,1.74 -5.42,2.08 -4.96,0.51 -7.59,-6.66 -9.83,-10.49l-5.38 -7.22c-2.28,-3.21 -6.91,-7.34 -7.3,-8.56 1.34,-1.8 1.75,-0.5 2.68,-2.82 0.78,-1.94 0.2,-2.93 0.04,-4.94 -3.05,-0.83 -6.27,-1.07 -9.54,-1.9 -2.8,-0.7 -6.82,-1.75 -9.6,-1.83 -10.96,-0.3 -28.27,5.18 -33.14,12.21 -4.71,6.8 -2.08,4.44 -3.64,7.85 -1.47,3.22 -2.79,4.44 -2.52,8.6 0.04,0.04 1.09,1.02 1.24,1.11z"/>
   <path class="fil2" d="M154.85 104.35c-0.07,2.06 0.08,0.7 0.71,1.15 0.08,0.06 0.23,0.12 0.32,0.18l1.69 0.66c0.73,3.32 2.15,4.01 0.83,9.15 -0.95,3.71 -1.55,5.59 -3.69,7.68 -8.37,8.2 -8.73,0.4 -10.3,-4.64l-0.4 -0.78c-0.61,-2.36 0.06,-1.72 -0.2,-4.01 -4.07,1.06 -4.97,2.31 -9.82,0.37 -2.97,-1.19 -5.63,-2.75 -7.74,-5.57 -3.06,-2.91 -11.45,-8.12 -12.67,-12.02 3.91,1.35 10.44,10.9 21.52,13.94 7.86,2.16 8.98,0.06 12.83,-3.46 2.11,-1.92 6.39,-7.69 9.68,-7.15 -0.5,2.51 -1.51,3.07 -2.77,4.48zm-53.27 -18.7l-6.56 4.88c-1.78,1.02 -4.81,2.49 -7.02,2.35 -2.08,-0.13 -1.53,0.25 -1.79,-0.95l-0.71 -0.26c-0.75,-0.35 -0.87,-0.26 -1.57,-0.66 -2.28,3.06 -0.21,2.8 -2.6,7.67 0.76,0.44 -1.43,0.71 1.36,0.31 5.44,0.04 9.11,-3.47 13.69,-4.13 4,3.19 1.62,6.75 -0.91,15.27 0.39,0.63 -0.91,0.61 1.1,0.43 5.6,-1.72 9.4,1.6 12.33,4.23 1.68,1.51 3.7,2.21 3.56,5.17 -0.13,2.84 -2.44,4.95 -0.53,7.24 3.78,0.1 2.13,-4.67 1.69,-7.27 1.53,0.51 4.62,3.87 4.77,4.15 1.27,2.5 -0.59,2.87 -0.79,4.87 -0.21,2.14 -0.37,-1.31 0.03,0.88 0.24,1.31 -0.07,0.48 0.6,1.28 1.76,-1.78 1.04,-3.35 2.08,-5.39 2.09,1.03 9.87,9.57 11.26,12 2.56,1.04 1.07,0.89 3.35,2.56 1.11,0.81 2.36,1.44 3.61,2.27l3.29 -2.05c2.75,-1.72 5.21,-2.07 7.87,-3.1 1.19,-0.46 2.29,-1.16 3.79,-1.87 3.47,-1.65 12.37,-5.98 16.05,-5.58l2.39 -1.44c0.56,-7.31 -3.87,-3.86 -4.39,-16.81 -0.24,-6.04 -0.35,-4.63 2.06,-8.53 1.97,-3.18 1.56,-3.94 4.01,-6.57l-1.95 -1.28c-4.03,0.23 -12.17,-0.75 -16.27,-1.55 -3.32,-0.64 -12.46,-3.54 -14.33,-3.42 -0.83,0 -0.61,-0.19 -0.45,0.36 3.09,1.24 10.75,2.99 13.21,5.37 -0.65,2.99 -5.68,7.16 -8.17,8.66 -6.14,3.7 -18.46,-4.28 -22.93,-7.95 -4,-3.28 -5.03,-5.43 -7.11,-8.52l-1.62 -1.55c-1.49,-0.99 -3.55,-0.81 -5.6,-1.18 -4.32,-0.79 -3.25,-2.51 -6.08,-0.55 -0.1,0.07 -0.3,0.44 -0.37,0.32 -0.07,-0.11 -0.24,0.24 -0.38,0.35z"/>
   <path class="fil2" d="M66.47 128.22l-2.68 4.98c-0.65,1.86 -1.12,3.71 -1.6,5.31 -1.76,5.79 -0.94,6.87 0.69,12.21l0.18 1.14c1.92,-1.26 0.38,0.49 0.91,-1.67 0.2,-0.81 -0.14,-2.8 0.58,-4.7 3.45,-9.15 12.25,-2.18 13.12,-1.77 2.92,0.6 3.09,-1.67 4.33,-3.7 1.56,-2.55 1.68,-2.62 4.47,-3.85 4.58,-2.03 8.1,-1.8 11.54,2.82 2.38,2.15 3.68,8.92 5.66,12.29 2.37,0.19 6.41,-0.38 8.1,0.76 4.44,-0.46 8.24,0.73 10.87,3.15 4.79,4.4 2.47,3.65 3.04,10.89l-0.92 4.92 3.01 0.21c6.08,0.02 10.82,-2.8 14.88,-5.43 3.98,-2.58 8.35,-7 11.75,-8.55 -0.73,-3.13 -4.18,-5.22 -6.8,-7.2 -1.74,-1.31 -6.23,-5.14 -7.91,-5.66 -1.81,-1.08 -2.71,-1.75 -4.45,-2.8 -0.65,-0.39 -1.56,-0.82 -2.32,-1.26 -1.56,-0.9 -0.67,0.08 -1.91,-1.56l-19.06 -10.33c-2.12,-1.16 -4.38,-2.72 -6.5,-3.73 -1.45,-0.21 -2.1,0.13 -2.6,-0.97l-2.36 -1.15c-1.36,-0.6 -6.53,-2.43 -8.26,-2.46 -2.14,-0.04 -5.63,1.31 -8.55,1.45l-7.73 2.12c0.4,-3.22 0.78,-8.47 -0.18,-10.95 -0.99,-1.11 -4.21,0.02 -4.73,3.8 -0.46,3.4 0.6,5.31 0.38,8.73 -1.78,1.15 -3.18,1.58 -4.95,2.99z"/>
   <path class="fil2" d="M174.96 134.99l-0.83 0.03c-0.12,0.08 -0.29,0.17 -0.37,0.22 -0.09,0.05 -0.26,0.15 -0.37,0.21l-2.18 1.05c-4.18,1.95 -6,3.32 -8.71,0.74l-1.04 1.82c-6.34,-2.96 -2.43,1.43 -6.64,3.45 -2.84,1.36 -4.04,2.88 -6.68,4.81l0.21 1.38c0.93,1.47 5.43,5.13 7.27,7.31 2.98,0.02 7.53,-1.83 11.12,-2.44 4.94,-0.84 6.66,-1.04 10.82,-3.15 1.61,-2.1 2.51,-2.5 3.48,-5.17 1.06,-2.92 0.64,-4.97 -0.75,-7.6 0.01,-1.73 -1.38,-4.05 -2.55,-5.52 -3.09,0.22 -0.73,-0.15 -1.58,0.89l-0.91 1.54c-0.05,-0.09 -0.17,0.31 -0.29,0.43z"/>
   <path class="fil1" d="M110.12 281.13c1.5,6.77 8.01,13.5 14.29,14.96 3.43,0.8 16.44,1.79 20.32,1.22 2.95,-0.43 4.31,-0.7 3.48,-4.26 1.15,-8.52 -6.94,-14.33 -15.02,-15.41 0.88,2.98 2.63,3.9 2.51,7.23 -4.02,2.39 -17.34,2.44 -20.72,-3.33 -1.8,-3.08 -2.78,-2.7 -4.87,-0.41z"/>
   <path class="fil2" d="M76.58 201.77c3.75,1.96 19.55,2 15.77,-11.03l-4.73 -18.1c-0.62,-3.04 -0.31,-4.22 -3.3,-4.79 -0.49,10.12 -0.57,8.04 -5.11,15.74 -1.89,3.21 0.11,5.87 -0.44,9.82 -0.42,2.97 -2.54,5.02 -2.18,8.36z"/>
   <path class="fil2" d="M79.42 101.33c-0.63,1.91 -2.47,5.49 -2.86,8.79 -0.49,4.09 0.25,7.84 0.91,11.64 4.18,0.04 12.37,-9.61 15.61,-9.91 1.34,-3.41 4.92,-11.13 4.45,-15.31 -2.58,-0.19 -6.47,1.74 -9.02,2.56 -2.88,0.93 -5.98,1.71 -9.09,2.23z"/>
   <path class="fil2" d="M99.22 186.33c-4.02,3.08 -2.39,2.4 -2.19,8.15 0.13,3.67 -0.55,6.29 0.28,10.08 2.78,12.62 15.32,18.05 10.24,-7.21 -0.81,-4.04 -3.3,-14.87 -8.33,-11.02z"/>
   <path class="fil4" d="M92.19 70.63c-0.15,-0.1 -1.19,-1.08 -1.24,-1.11 -0.27,-4.16 1.04,-5.39 2.52,-8.6 1.56,-3.41 -1.07,-1.05 3.64,-7.85 4.87,-7.03 22.18,-12.51 33.14,-12.21 2.78,0.07 6.79,1.12 9.6,1.83 3.28,0.82 6.5,1.07 9.54,1.9 0.16,2.01 0.74,2.99 -0.04,4.94 -0.93,2.31 -1.34,1.02 -2.68,2.82 0.4,1.22 5.02,5.35 7.3,8.56l5.38 7.22c2.25,3.84 4.87,11 9.83,10.49 3.3,-0.34 1.37,-2.2 5.42,-2.08 3.24,0.1 4.26,-0.67 6.81,-1.27l-0.84 -0.36c-0.12,-0.03 -0.3,-0.1 -0.45,-0.14l-2.47 -0.22c-1.81,-0.14 -2.12,-0.34 -3.73,-0.87 -4.48,-1.49 -4.61,-0.11 -4.13,4.18 -4.17,-1.1 -6.84,-9.01 -11.87,-15.23 -10.99,-13.58 -6.15,-7.67 -8.12,-19.01 -3.85,-2.36 -14.57,-3.36 -20.12,-3.48 -8.47,-0.18 -13.72,-0.64 -20.95,2.7 -10.57,4.89 -19.23,12.5 -21.35,26.15 1.21,0.83 3.07,1.43 4.79,1.63z"/>
   <path class="fil1" d="M151.07 288.38c-0.31,5.91 -0.34,6.55 4.55,8.25 3.34,1.16 6.8,2.21 10.33,2.81 4.28,0.73 7.15,0.8 11.69,0.41 5.51,-0.48 6.57,-1.71 6.34,-7.48 -1.96,-4.97 -4.2,-8.47 -10.69,-9.91 1.19,4.13 5.43,5.54 4.29,11.96 -14.64,4.74 -21.24,-6.73 -26.26,-8.92l-0.25 2.89z"/>
   <path class="fil5" d="M131.59 137.72c0.73,1.77 0.54,0.64 -0.59,1 1.25,1.64 0.35,0.67 1.91,1.56 0.77,0.44 1.67,0.87 2.32,1.26 1.74,1.05 2.64,1.72 4.45,2.8 0.5,-0.99 -0.59,-1 1.5,0.02 0.79,0.39 1.48,0.93 2.3,1.42 1.67,1 3.26,2.02 4.86,2.88l-0.21 -1.38c2.64,-1.93 3.84,-3.44 6.68,-4.81 4.21,-2.02 0.3,-6.4 6.64,-3.45l1.04 -1.82c2.71,2.59 4.53,1.22 8.71,-0.74l2.18 -1.05c0.11,-0.06 0.28,-0.16 0.37,-0.21 0.09,-0.05 0.25,-0.14 0.37,-0.22 -1.8,-0.79 -2.67,-2.63 -3.41,-4.69l3.02 0.23c-0.94,-0.86 0.27,-0.5 -1.87,-0.84 -0.87,-0.14 -1.44,0.06 -2.31,0.23 -3.68,-0.4 -12.58,3.93 -16.05,5.58 -1.5,0.71 -2.6,1.41 -3.79,1.87 -2.67,1.03 -5.12,1.38 -7.87,3.1l-3.29 2.05c-1.25,-0.83 -2.5,-1.46 -3.61,-2.27 -2.28,-1.66 -0.8,-1.51 -3.35,-2.56z"/>
   <path class="fil4" d="M89.65 81.04l12.53 2.36 -0.59 2.25c0.14,-0.1 0.3,-0.46 0.38,-0.35 0.07,0.11 0.27,-0.26 0.37,-0.32 2.83,-1.96 1.76,-0.24 6.08,0.55 2.05,0.37 4.11,0.19 5.6,1.18l1.62 1.55c-0.13,-2.61 -0.21,-1 0.53,-1.55 2.02,0.32 3.01,0.84 4.96,1.24 2.55,0.52 3.44,-0.2 5.84,0.45 -0.29,1.23 -6.11,9.26 2.22,11.17 1.69,-1.24 2.43,-2.05 3.1,-4.56 1.07,-4.05 0.37,-3.33 -0.93,-6.15l9.29 1.83c-0.16,-0.55 -0.38,-0.36 0.45,-0.36 -1.29,-1.34 -0.37,-0.6 -2.9,-1.17l-9.59 -2.36c-10.11,-2.41 -16.34,-2.75 -26.25,-5 -4.18,-0.95 -9.18,-2.26 -12.72,-2.97 -2.3,-0.15 -2.04,-0.63 -3.61,0.57 0.56,1.44 -1.08,0.49 1.51,1.11l2.14 0.52z"/>
   <path class="fil2" d="M179.89 186.86c2.11,-0.87 2.71,-2.89 6.01,-6.48 9.99,-10.87 17.69,-7.18 27.93,-5.38 -1.46,-8.58 -13.39,-7.82 -20.45,-4.32 -7.63,3.79 -12.45,5.44 -13.49,16.17z"/>
   <path class="fil4" d="M169.56 129.95c0.87,-0.17 1.44,-0.37 2.31,-0.23 2.14,0.34 0.92,-0.02 1.87,0.84 1.42,1.96 1.53,1.65 1.22,4.43 0.12,-0.13 0.24,-0.52 0.29,-0.43l0.91 -1.54c0.85,-1.04 -1.51,-0.67 1.58,-0.89 -0.07,-0.13 -0.18,-0.49 -0.21,-0.4 -0.15,0.34 -7.2,-13.82 -6.6,-17.34l1.59 1.06c-1.2,-11.04 2.12,-12.02 5.59,-19.09 -2.26,-0.01 -3.94,-1.38 -6.43,-1.05l1.95 1.28c-2.45,2.63 -2.04,3.38 -4.01,6.57 -2.41,3.9 -2.3,2.49 -2.06,8.53 0.52,12.95 4.94,9.51 4.39,16.81l-2.39 1.44z"/>
   <path class="fil2" d="M178.11 96.36c-3.47,7.07 -6.79,8.05 -5.59,19.09l1.91 5.08c3.22,0.2 4.45,-1.24 6.65,-2.31l-0.07 -0.77 0.48 -2.72c-1.98,0.64 -2.79,1.21 -5.19,0.81 -2.12,-3.64 -0.82,-8.92 3.45,-10.07l2.24 -0.54 -0.23 -1.93c-1.66,-5.47 0.85,-7.06 -1.23,-11.92l-2.42 5.29z"/>
   <path class="fil2" d="M117.71 170.8l4.03 0.52c0.03,-1.42 -0.16,-1.77 0.55,-3.08 0.08,-0.14 0.23,-0.3 0.3,-0.41 0.08,-0.12 0.22,-0.29 0.33,-0.43l0.35 -1.03c0.71,-3.04 0.23,-0.94 -0.33,-1.85 -1.76,0.84 -0.58,0.95 -1.85,2.08 -0.66,0.59 -1.76,0.71 -2.83,0.7 -0.78,-0.01 -2.36,-0.24 -3.07,-0.38l-2.62 -0.85c-0.14,-0.06 -0.32,-0.17 -0.48,-0.26 -2.81,-0.85 -4.76,-3.84 -4.27,-7.76 2.57,-0.68 5.46,-1.26 6.94,-3.38l-10.84 -1.53 -0.51 0.07 0.57 10.55c0.92,1.13 4.51,3.19 5.9,4.21 1.93,1.42 4.63,2.92 7.83,2.84z"/>
   <path class="fil2" d="M67.71 155.42c1.1,0.44 1.21,1.24 2.46,2.26 1.18,0.97 1.97,1.14 3.3,1.8 3.17,0.29 8.22,1.27 10.56,0.29 0.04,-0.12 0.07,-0.46 0.07,-0.38l-0.12 -1.44c-0.21,-0.57 -0.74,-1.04 -0.97,-1.26l-2.28 -0.88 -2.06 0.65c-3.89,-1.2 -6.82,0.83 -7.96,-4.01 -1.3,-5.51 3.01,-4.66 4.36,-8.04 -2.89,-1.24 -6.79,-1.64 -8.36,1.12 -1.52,2.66 0.45,7.46 0.99,9.89z"/>
   <path class="fil2" d="M185.67 141.19c-0.11,-3.52 -0.31,-6.34 -1.53,-9.48 -1.05,-2.72 -3.22,-6.09 -3.61,-8.29 -1.39,-1.18 -0.19,-2.78 -5.61,-1.39 -0.14,3.7 4.09,8.71 5.81,11.53 2.58,4.23 3.26,6.81 4.99,11.78l-0.04 -4.15z"/>
   <path class="fil2" d="M17.5 217.04c-0.96,-6.11 -4.08,-7.64 -1.9,-14.3 1.43,-4.36 5.04,-9.1 2.15,-13.39l-5.72 13.58c-0.51,2.53 0.21,6 0.93,8.31 0.8,2.54 2.01,4.95 4.53,5.81z"/>
   <path class="fil4" d="M126.26 108.55c2.12,2.82 4.77,4.38 7.74,5.57 4.85,1.94 5.75,0.69 9.82,-0.37 0.26,2.29 -0.41,1.65 0.2,4.01l0.4 0.78c-0.58,-3.71 3.9,-5 6.12,-6.33 1.42,-0.85 2.69,-1.39 3.59,-2.67 1.31,-1.86 0.74,-2.9 3.46,-3.2l-1.69 -0.66c-0.1,-0.05 -0.24,-0.12 -0.32,-0.18 -0.62,-0.45 -0.77,0.91 -0.71,-1.15l-3.12 2.82c-0.97,1.01 -1.53,1.72 -2.6,2.61 -9.08,7.51 -11.33,2.21 -22.88,-1.23z"/>
   <path class="fil4" d="M195.65 235.73c0.92,1.03 0.61,0.88 2.39,0.52 1.07,-5.56 -2.58,-7.91 -5.34,-9.99 -3.41,-2.58 -5.76,-4.98 -10.39,-6.26 1.99,5.12 11.79,9.47 15.03,15.62l-1.69 0.12z"/>
   <path class="fil4" d="M62.87 150.73c-1.63,-5.34 -2.44,-6.42 -0.69,-12.21 0.49,-1.61 0.95,-3.46 1.6,-5.31l2.68 -4.98c-1.04,-0.4 -0.91,0.72 -0.8,-0.92 1.56,-0.92 3.24,-1.54 3.72,-3.68l-0.34 -4.75c-0.44,-1.29 -0.26,-0.89 -0.79,-1.46 -2.81,4.93 -8.82,23.08 -7.56,29.57 0.32,1.67 0.91,2.89 2.17,3.74z"/>
   <path class="fil4" d="M77.67 143.74c0.71,0.99 0.06,0.68 2.57,1.92 1.31,-0.6 0.12,0.03 1.03,-0.63 0.71,-0.51 0.15,-0.15 0.89,-0.72 4.66,-3.58 1.66,-4.34 4.06,-6.34 2.92,-2.42 8.82,-0.11 11.78,1.02 -3.44,-4.62 -6.96,-4.85 -11.54,-2.82 -2.79,1.24 -2.91,1.31 -4.47,3.85 -1.24,2.03 -1.41,4.31 -4.33,3.7z"/>
   <path class="fil4" d="M80.83 93.23l0.05 6.43c2.13,-0.11 0.98,0.06 1.81,-0.67 -2.79,0.4 -0.6,0.13 -1.36,-0.31 2.39,-4.87 0.32,-4.61 2.6,-7.67 0.7,0.4 0.82,0.31 1.57,0.66 -0.49,-4.26 1.98,-3.84 1.35,-9.13 -3.84,1.12 -2.34,0.27 -3.7,4.37 -0.78,2.37 -1.8,3.92 -2.32,6.32z"/>
   <path class="fil2" d="M102.84 123.69c0.5,1.1 1.15,0.76 2.6,0.97 -0.73,-1.02 0.65,-0.34 -0.57,-0.89 2.61,-0.17 1.34,0.07 2.58,-2.56 1.1,-2.32 1.15,-1.59 0.99,-4.48 -1.85,-1.2 -0.79,-1.34 -3.21,-1.43 -2.15,2.66 -2.17,8.17 -2.39,8.39z"/>
   <path class="fil2" d="M77.17 212.16c0.69,-1.19 1.95,-2.84 1.79,-4.97 -1.66,-1.25 -5.98,-3.11 -6.9,-0.03 -0.84,2.83 2.56,4.89 5.11,5z"/>
   <path class="fil4" d="M67.45 202.83l3.25 3.43c0.26,-0.26 0.4,-0.55 0.44,-0.47 0.33,0.74 6.43,-12.82 3.94,-17.69 -0.49,-0.96 -0.2,-0.34 -0.83,-0.99 0.01,3.85 -0.32,5.68 -1.08,9.44 -0.3,1.5 -1.02,3.31 -1.5,4.37 -1.02,2.24 -1.32,2.42 -4.21,1.91z"/>
   <path class="fil2" d="M94.84 114.09l-0.28 2.29 2.86 2.01 1.31 -0.12 2.2 -6.6c-2.5,0.23 -2.18,-0.26 -2.99,1.88 -2.09,-0.59 1.63,0.57 -0.92,-0.4 -0.5,-0.19 0.47,-0.05 -1.24,-0.42l-0.93 1.37z"/>
   <path class="fil4" d="M177.56 150.41c2.36,-0.95 4.15,-2.43 6.05,-3.3 0.46,-4.53 -0.16,-7.53 -3.32,-9.47 1.39,2.63 1.81,4.68 0.75,7.6 -0.97,2.67 -1.87,3.06 -3.48,5.17z"/>
   <path class="fil4" d="M112.09 165.81c0.16,0.09 0.34,0.19 0.48,0.26l2.62 0.85c0.7,0.13 2.28,0.37 3.07,0.38 1.07,0.01 2.17,-0.11 2.83,-0.7 1.27,-1.13 0.1,-1.24 1.85,-2.08 0.56,0.91 1.05,-1.19 0.33,1.85 0.46,-0.35 1.85,-0.02 0.41,-3.88 -3.49,0.07 -2.77,3.38 -11.59,3.32z"/>
   <path class="fil4" d="M122.92 167.4c-0.11,0.15 -0.25,0.31 -0.33,0.43 -0.07,0.12 -0.22,0.27 -0.3,0.41 -0.71,1.31 -0.53,1.65 -0.55,3.08l-4.03 -0.52c1.49,1.14 3.83,1.68 5.74,-0.24 0.66,0.62 0.23,-0.1 1.04,1.29 1.59,0.07 2.54,0.46 3.28,-0.64l-3.01 -0.21 0.92 -4.92 -1.55 1.62c-1.78,1.52 -0.69,0.9 -1.21,-0.3z"/>
   <path class="fil6" d="M89.65 81.04l-2.14 -0.52c-2.6,-0.62 -0.96,0.33 -1.51,-1.11 1.57,-1.2 1.32,-0.72 3.61,-0.57l-4.16 -1.9c-1.07,1.61 -1.21,2.15 -1.25,4.26 2.24,-0.03 3.15,0.06 5.45,-0.17z"/>
   <path class="fil4" d="M61.73 216.91c1.08,-0.58 0.18,0.22 1.47,-0.95 0.44,-0.4 0.81,-0.93 1.19,-1.41 1.24,-1.59 1.31,-1.89 1.83,-3.74 -2.51,0.48 -4.23,3.71 -4.49,6.1z"/>
   <path class="fil2" d="M109.95 160.09c0.35,0.83 -0.17,2.49 3.04,2.1 1.03,-0.12 0.77,-0.25 1.27,-0.52 -1.07,-1.46 -2.37,-1.55 -4.31,-1.58z"/>
   <path class="fil7" d="M126.79 134.9c-0.75,-1.62 -1.75,-2.82 -3.73,-2.84 0.12,2.65 0.93,2.6 3.73,2.84z"/>
   <path class="fil4" d="M78.69 156.47l2.06 -0.65 2.28 0.88c-0.44,-1.68 -0.61,-2.61 -1.75,-3.66 -0.77,1.72 0.05,1.14 -1.49,2.53 -3.55,3.19 1.12,-1.39 -1.1,0.9z"/>
  </g>
 </g>
</svg>
