<?xml version="1.0" encoding="UTF-8"?>
<!DOCTYPE svg PUBLIC "-//W3C//DTD SVG 1.1//EN" "http://www.w3.org/Graphics/SVG/1.1/DTD/svg11.dtd">
<!-- Creator: CorelDRAW -->
<svg xmlns="http://www.w3.org/2000/svg" xml:space="preserve" width="44.171mm" height="37.0049mm" version="1.1" style="shape-rendering:geometricPrecision; text-rendering:geometricPrecision; image-rendering:optimizeQuality; fill-rule:evenodd; clip-rule:evenodd"
viewBox="0 0 83.94 70.32"
 xmlns:xlink="http://www.w3.org/1999/xlink"
 xmlns:xodm="http://www.corel.com/coreldraw/odm/2003">
 <defs>
  <style type="text/css">
   <![CDATA[
    .fil0 {fill:black}
    .fil7 {fill:#2F61ED}
    .fil12 {fill:#6D3D26}
    .fil8 {fill:#90836D}
    .fil4 {fill:#AC6A4F}
    .fil11 {fill:#BB5C01}
    .fil10 {fill:#E66E60}
    .fil9 {fill:#F2ECE4}
    .fil6 {fill:#FEB30F}
    .fil1 {fill:#FEC4BA}
    .fil5 {fill:#FF0001}
    .fil3 {fill:#FFC800}
    .fil2 {fill:white}
   ]]>
  </style>
 </defs>
 <g id="Camada_x0020_1">
  <metadata id="CorelCorpID_0Corel-Layer"/>
  <g id="_2076184604928">
   <path class="fil0" d="M43.05 63.47c-1.2,-0.31 -2.31,-1.46 -1.74,-2.83 0.55,-1.28 2.91,-2.07 4.43,-2.75 0.43,0.65 0.35,1.09 1.14,1.81 0.94,0.86 2.69,1.06 3.81,0.42 1.16,-0.66 1.21,0.02 2.65,-0.62 1.24,-0.54 1.79,0.36 3.36,-1.28 1.05,-1.14 1.35,-2.34 0.57,-3.74 -0.16,-0.28 -0.52,-0.63 -0.6,-0.91 -0.34,-1.22 -0.16,-1.02 -1.16,-2.04 0.23,-0.26 1.02,-0.87 1.38,-1.2 0.31,-0.3 0.62,-0.58 1.24,-0.64 2.86,-0.3 8.87,1.65 10.09,2.91 -0.02,1.97 -0.98,5.34 -0.93,5.96 1.68,-0.33 3.43,-0.99 5.15,-1.41 2.79,-0.68 5.38,-1.23 8.24,-1.52 1.15,-0.11 2.1,-0.13 3.25,-0.35 -1.3,-3.07 -3.45,-6.07 -5.03,-9.1 -2.01,-3.85 -3.85,-7.86 -5.47,-11.9 -0.25,-0.61 -0.45,-1.18 -0.64,-1.82 1.71,-2.19 4.09,-3.86 5.6,-6.06 -0.59,0.07 -1.14,0.43 -1.67,0.7l0 0.02 -1.81 1.22 0 0.02c-0.78,0.61 -3.75,2.75 -3.86,3.75 -0.01,1.18 2.56,6.83 3.28,8.42 1.51,3.34 3.41,6.8 5.14,10.05 0.68,1.28 1.46,2.18 2.05,3.58 -2.84,0.26 -6.15,0.91 -8.93,1.55 -1.26,0.29 -2.36,0.71 -3.64,0.95 0.24,-1.15 1.03,-4.06 0.44,-5.05 -0.56,-0.7 -5.34,-2.45 -6.53,-2.75 -1.25,-0.32 -2.53,-0.53 -3.77,-0.88 0,-0.17 -0.12,-0.13 0.26,-0.6 0.51,-0.63 1.09,-2.48 1,-3.29 -0.04,-0.32 -1.09,-1.16 -1.34,-1.39l0 -0.02 -0.6 -0.56c0.08,-0.31 -0.03,-0.25 0.36,-0.46 1.41,-0.75 1.41,-1.15 1.19,-2.71 -0.25,-1.83 -1.13,-5.66 -1.76,-7.39 -0.4,-1.08 -0.8,-2.11 -1.31,-3.15l-0.02 0c-1.52,-2.53 -4.4,-4.85 -7.15,-6l0 -0.02c-0.83,-0.32 -1.45,-0.5 -2.29,-0.73 -0.6,-0.17 -0.47,-0.4 -0.49,-1.03 -0.06,-1.87 -0.66,-4.31 -1.23,-6.13 -0.19,-0.59 -0.83,-1.52 -1.14,-2.13 3.47,2.08 5.45,2.88 9.46,3.67 2.74,0.54 7.06,0.9 9.65,-0.27 0.77,-0.35 1.28,-0.73 1.87,-1.33l0.02 0c1.1,-1.76 1.35,-3.14 0.26,-5 -0.82,-1.4 -3.81,-2.96 -5.31,-3.54 -4.12,-1.59 -10.69,-2.55 -14.64,-0.15 -1.36,0.82 -2.19,2.04 -2.58,3.57 -0.05,0.18 -0.01,0.72 0,0.9l0.38 1.08c-0.51,-0.21 -0.96,-0.57 -1.57,-0.74 -2.46,-0.64 -5.73,-0.36 -8.22,0.08 -0.75,0.13 -1.47,0.26 -2.22,0.34 2.22,-0.93 5.17,-2.11 6.77,-3.96l0.48 -0.6 0.02 0c1.02,-1.74 1.7,-3.47 -0.14,-5 -3.78,-2.96 -10.69,-0.69 -14.22,1.72 -1.44,0.98 -2.71,2.23 -2.88,4.09 -0.08,0.9 0.21,1.53 0.72,2.24 1.16,1.35 2.69,1.89 4.2,2.19 0.94,0.09 1.64,-0.16 2.62,0.04 -0.64,0.3 -1.38,0.5 -2.03,0.78 -1.45,0.62 -4.29,2.35 -5.32,3.27 -1.03,0.92 -1.88,1.77 -2.58,3.15 -0.95,1.87 -0.29,2.87 0.93,3.92 -0.4,3.14 -0.99,0.29 -2.93,-1.69 -0.12,0 -0.76,-0.68 -0.91,-0.8 -0.93,-0.7 -2.16,-1.29 -3.36,-1.16l-1.5 0.34c-0.75,-3.2 0.88,-6 0.33,-8.06 -0.22,-0.84 -1.31,-1.75 -2.16,-1.86 -2.01,-0.26 -3,-0.14 -4.71,1.07 -1.66,1.17 -3.65,3.34 -4.41,5.4 -0.73,1.98 -0.89,4.48 0,6.32 1.2,2.48 3.65,2.71 4.36,3.11 -0.54,3.54 -0.4,6.73 2.77,9.01 2.73,1.97 7.41,2.58 10.69,2.07 0.22,-0.04 0.44,-0.08 0.66,-0.13 0.05,0.22 -0.12,0.21 0.47,0 0.68,1.13 0.87,6.03 1.38,6.45 0.62,-0.63 0.64,-1.65 1.05,-2.45 -0.19,1.35 -0.41,4.42 0.29,5.66 0.17,0.3 0.65,0.33 0.95,0.42 0.32,1.58 0.39,1.69 1.17,3.17 -0.63,0.38 -0.69,0.56 -1.14,1.04 -0.46,-0.06 -1.09,-0.26 -1.55,-0.06 -1.76,0.76 -0.5,3.21 0.67,3.96 0.69,0.44 1.64,0.53 2.43,0.68l0.79 2.75c-1.5,1.46 -2.33,2.84 -0.79,4.96 0.16,0.22 0.3,0.29 0.52,0.5 -0.79,0.34 -4.24,-1.29 -4.96,-1.65 -2.75,-1.37 -4.5,0.46 -6.94,1.63 -0.58,0.28 -3.49,2.21 -3.51,3.61 -0.03,2.49 6.72,1.94 8.37,1.97 0.96,0.02 0.47,0.52 2.15,0.68l0 0.02 0.45 0.04 0 0.02c2.05,0.19 8.78,0.6 10.37,0.44 2.99,-0.3 5.9,-0.23 8.87,-0.46 2.46,-0.24 5.82,-0.58 7.84,-1.57 2.1,-1.72 -1.65,-3.11 -3.1,-3.96l0.17 -0.44c-0.7,-0.19 -1.34,-0.1 -2,-0.38z"/>
   <path class="fil1" d="M22.66 33.97c-0.26,-0.36 -0.36,-0.57 -0.72,-0.7l-0.1 1.18 -0.33 0.06c-0.64,-0.45 -0.63,-1.16 -1.36,-1.04 -0.05,0.46 0.26,1 0.38,1.37l-0.83 0.2 0 -0.32c0.02,-0.26 0.1,-0.1 -0.02,-0.46 -0.64,-0.16 -1.19,0.8 -1.43,1.14l-1.91 0.08c-0.05,-0.28 -0.05,-0.36 -0.07,-0.58 -0.19,-1.28 -0.76,-0.22 -0.98,0.56l-0.81 -0.1c0.12,-0.32 0.21,-0.32 0.12,-0.7 -0.55,0 -1,0.32 -1.26,0.56l-0.62 -0.04 0.24 -0.28c1.22,-1.28 -1.05,-0.22 -1.53,-0.16l-0.41 -0.1 0.43 -0.34c-0.36,-0.62 -1.45,-0.34 -2.05,-0.32 -0.57,-0.5 -0.95,-0.52 -1.36,-1.12 0.33,-0.22 0.29,-0.06 0.43,-0.4 -0.38,-0.2 -0.57,-0.12 -1,-0.08 -0.12,-0.36 -0.19,-0.32 -0.41,-0.66 -0.98,-1.67 -1.05,-3.45 -0.79,-5.36 0.24,-1.77 1.41,-0.18 4.32,-2.11 2.84,-1.89 1.41,-2.89 1.74,-3.27 0.67,-0.34 1.81,-0.18 2.46,0.08 0.83,0.36 1.79,1.41 2.31,2.11l1.86 2.69 1.31 2.47c0.21,0.36 0.48,0.8 0.69,1.12 0.67,1.04 0.26,0.92 0.83,0.94 0.02,-0.92 -0.31,-1.63 -0.57,-2.41 -0.14,-0.44 -0.26,-0.7 -0.41,-1.08 -0.26,-0.62 -0.38,-0.68 -0.26,-0.9l0.5 0.02c2.19,0.36 4.77,1.61 6.49,2.89 0.24,0.18 1.81,1.59 1.34,0.48 -0.43,-0.98 -2.29,-2.51 -3.17,-3.07 -1.96,-1.26 -2.17,-1.14 -4.22,-1.97l0.17 -0.9c2.55,0.42 3.93,0.36 6.51,-0.06 0.55,-0.1 4.96,-1.06 5.2,-1.61 0.24,-0.6 -2.6,-0.04 -2.93,0 -2.34,0.34 -7.18,1.18 -8.92,-0.1 -0.5,-0.38 -1,-1.49 -0.67,-2.41 0.21,-0.62 0.88,-1.43 1.48,-1.91 1.48,-1.28 4.22,-2.97 6.18,-3.79 1.36,-0.58 1.36,-0.28 2.41,0.36 0.69,0.42 1.29,0.94 1.88,1.41 0.88,0.7 1.03,0.86 1.07,2.31 0.1,4.36 0.41,9.08 0.24,13.41 -2.93,-0.18 -6.37,0.68 -8.96,1.81 -0.79,0.36 -1.74,0.8 -2.48,1.08zm5.82 21.88c-0.12,-0.12 -0.05,0.02 -0.19,-0.24 -0.21,-0.44 -0.02,-0.78 -0.64,-0.86 -0.29,0.58 -0.36,1.12 -0.41,1.93 -0.26,0.32 -0.24,0.32 -0.57,0.44 -0.36,-0.54 -0.52,-1.33 -0.57,-2.15 0.43,-0.4 0.55,-0.76 1.26,-0.56 0.62,0.16 1.03,0.2 1.67,0 0.79,-0.28 1.74,-1.37 1.48,-2.23 -0.43,0.16 -0.41,0.32 -0.81,0.58 -1.43,0.92 -2.58,0.04 -3.22,-0.04l-0.64 0.74c-1.19,0.94 -3.79,0.18 -3.36,-1.41 0.26,-0.14 0.55,-0.04 0.74,-0.02 0.93,0.12 0.52,-0.46 1.48,-0.74 0.74,-0.22 1.91,0.24 2.74,-0.18 -0.02,-0.58 0.07,-0.04 -0.98,-0.9 -0.86,-0.7 -1.81,-2.63 -1.86,-3.77l1.72 -0.26c0.38,0.68 0.79,1.16 1.19,1.77 0.93,1.31 3.5,3.29 4.7,3.86 -0.24,0.7 -0.64,0.38 -0.83,1.16l1.03 0.38c-0.1,0.12 -0.02,0.06 -0.21,0.2l-1.69 1.06c-0.67,0.44 -1.29,0.8 -2,1.24zm26.82 -1.65c-0.14,1.82 -1.37,2.32 -1.48,3.03 1.22,-0.02 1.93,-1.18 2.43,-1.93 0.76,0.71 -0.09,2.44 -1.5,2.67 -0.79,0.12 -0.81,-0.14 -1.31,-0.18l-0.45 -0.36c-1.05,-0.76 -1.67,-2.15 -2.22,-2.45 -0.52,1.2 0.57,2.57 1.34,3.43 -0.36,0.06 -0.72,-0.04 -0.98,-0.1 -0.64,-0.46 -0.91,-0.56 -1.5,-1.2 -0.79,-0.84 -0.52,-1.31 -0.86,-1.81 -0.62,0.2 -0.38,1.37 -0.26,1.89 0.33,1.47 0.95,1.18 0.98,1.83 -0.57,0.02 -1.03,-0.1 -1.43,-0.42 -0.38,-0.28 -0.52,-0.56 -0.67,-1.14 -0.33,-1.24 0.05,-2.01 0.14,-3.21l0.19 -0.58c0.26,-0.9 -0.47,-0.43 -0.83,0.14 -2,-0.86 -0.83,-3.09 -0.21,-3.11 0.33,-0.02 1.5,1.47 3.12,1.55 0.43,-0.62 1.19,-3.37 1.41,-4.36 0.36,-1.55 0.67,-3.13 0.79,-4.82 1.79,0.02 3.6,0.04 5.1,-0.6 0.55,0.42 0.57,0.62 1,1.08 0.31,0.36 0.95,0.58 0.98,1.14 0.07,1.59 -2.46,4.12 -3.34,5.04 -0.29,0.28 -0.79,0.64 -1.19,0.94 -0.67,0.5 -0.86,0.52 -1.03,0.98 0.29,0.32 0.36,0.28 0.62,0.54 1.1,0.98 0.91,1 1.17,2.01zm-22.39 -18.75c-0.12,-0.3 -0.05,-0.42 -0.31,-0.72 -0.41,0.18 -0.38,0.54 -0.41,1l-0.24 0.08c-0.28,-0.62 0.03,-0.23 -0.24,-0.5 -0.43,0.04 -0.69,0.5 -0.88,0.74l-0.76 -0.02c-0.67,-0.46 -0.07,-0.6 -0.62,-1.04 -0.38,0.1 -0.45,0.38 -0.52,0.9l-0.69 -0.1 0.14 -0.46c-0.72,-0.26 -0.43,0.28 -1.26,0.26l-0.17 -0.12c0.13,-0.15 0.2,-0.28 0.14,-0.48 -0.5,-0.1 -0.81,0.16 -1.24,0.24 -0.33,-0.2 -1,-0.44 -1.43,-0.62 0.55,-0.48 3.39,-1.39 4.34,-1.67 1.72,-0.48 3.51,-0.78 5.36,-0.62l0 2.61 -1.22 0.52z"/>
   <path class="fil2" d="M50.47 41.36l-0.43 -0.32c0.05,-2.91 0.43,-10.16 -0.86,-12.93 -0.36,-0.82 -0.5,-1.08 -1,-1.14l0.24 1.51c0.33,0.96 0.31,5.38 0.33,6.75l-0.29 6.65c0.74,0.4 0.95,0.6 2,0.86 0.17,2.63 -0.5,5.62 -1.43,7.71 -0.76,-0.18 -1.05,-0.44 -1.48,-0.88 -0.45,-0.44 -0.6,-0.9 -1.41,-0.72 -0.6,0.3 -0.88,0.68 -1.19,1.33l-0.55 1.81c0,-0.02 -0.02,0.06 -0.02,0.1 -2.86,0.72 -6.51,0.88 -9.49,0.4 -0.21,-0.04 -0.43,-0.08 -0.6,-0.12l-0.5 -0.22c0.14,-0.22 0.5,-0.62 0.6,-0.86 -0.17,-0.2 -2.07,-1.04 -3.31,-2.07 -0.69,-0.56 -2.1,-1.97 -2.69,-2.73 -0.45,-0.6 -1.12,-1.39 -1.43,-2.15 -0.6,-1.3 -0.83,-2.23 -0.98,-3.85 -0.05,-0.52 -0.19,-3.55 0.45,-3.79l0.12 -0.02c-0.12,0.7 -0.5,1.95 0.19,2.29 0.29,-0.16 0.17,-0.04 0.33,-0.5 0.14,-0.4 0.05,-0.34 0.29,-0.58 0.45,1.27 1.34,2.41 2.65,2.87 1.74,0.6 3.15,-0.62 4.12,-1.1 -0.05,1.41 -0.05,2.81 -0.05,4.22l-0.1 3.01c0,0.14 -0.02,0.38 -0.02,0.52l0.1 0.36c0.33,0.08 0.45,-0.36 0.62,-0.72l1.1 -3.15 1.03 -4.62c0.21,0.4 1.03,6.93 1.86,9.34 0.14,0.36 0.02,0.2 0.24,0.4 0.45,-0.34 0.45,-1.12 0.55,-1.81 0.26,-2.19 0.57,-4.26 0.52,-6.55 0.29,0.6 0.72,3.27 0.98,4.26l0.98 2.95c0.07,0.14 0.12,0.32 0.19,0.46 0.29,0.44 0,0.18 0.36,0.28 0.64,-1.06 0.62,-6.59 0.81,-8.31 0.07,0.78 0.72,3.09 0.98,3.9 0.31,1.02 0.81,3.29 1.62,3.47 0.29,-1.02 0.29,-4.74 0.38,-6.16 0.12,-2.03 0.1,-4.06 0.29,-6.14 0.17,-1.93 0.26,-4.1 0.33,-6.08 0.1,-2.11 0.24,-4.02 0.17,-6.2 0.93,0.1 1.98,0.6 2.72,0.92 0.86,0.36 1.55,0.86 2.24,1.35 0.72,0.54 2.29,1.83 2.84,2.57 1.24,1.71 2.05,4 2.67,6.16 0.24,0.84 1.31,5.24 1.17,5.82 -0.12,0.26 -0.45,0.4 -0.81,0.6 -0.86,0.48 -1.86,0.78 -2.89,0.94 -2.77,0.44 -2.57,0.08 -4.53,-0.14z"/>
   <path class="fil3" d="M36.92 65.63c0.14,0.7 0.76,1.22 1.38,1.53 2.38,1.22 4.12,0.56 5.34,-1.79 0.6,0.14 2.91,1.16 2.84,1.81 -0.12,1 -5.17,1.35 -5.79,1.39 -4.48,0.34 -5.84,0.4 -10.18,0.38 -2.22,0 -8.63,0.1 -9.99,-0.58l0.14 -0.5c0,-0.02 0.02,-0.06 0.05,-0.06 0.52,-0.68 1.31,-1.06 2,-1.53 0.41,-0.28 0.64,-0.42 1.12,-0.68 0.21,-0.12 0.33,-0.18 0.55,-0.28l0.64 -0.26c1.34,-1 4.05,-0.24 5.77,0 0.95,0.14 2.22,0.26 3.17,0.28 1.45,0.02 1.62,-0.24 2.96,0.28z"/>
   <path class="fil4" d="M44.93 17.13c0.17,0.7 0.72,3.47 0.41,4.1 -0.41,0.84 -3.91,3.55 -5.98,3.29 -1.86,-0.24 -0.26,-2.89 -1.36,-3.43 -0.95,-0.5 -1.96,0.64 -2.48,1.06 0.07,-1.43 -0.31,-3.94 0.17,-4.56 0.52,-0.66 3.46,-3.69 4.63,-3.37 1.69,0.46 -0.83,4.12 0.43,5.02 1.26,0.9 3.67,-1.89 4.2,-2.11z"/>
   <path class="fil5" d="M35.25 55.46l0 -0.08c-0.57,-0.1 -0.81,-0.38 -1.41,-0.44 0,0.58 0.24,0.7 0.48,1.12 -0.43,0.16 -0.67,0.38 -1.07,0.62 -1.57,0.92 -4.12,2.49 -3.74,4.68 0.17,0.96 0.74,1.67 1.07,2.45 -1.57,-0.18 -3.15,-0.58 -4.08,-1.77 -1.31,-1.71 0.48,-3.09 1.12,-3.71l1.53 -1.32c1.22,-0.84 4.03,-2.69 5.34,-3.13 0.79,-0.02 1.93,0.2 2.77,0.28 2.12,0.22 5.51,0.06 7.51,-0.46 1.03,1.27 0.79,0.7 1.41,1.35 -0.21,2.23 -1.6,0.88 -5.36,3.88 -1.62,1.29 -2.03,2.87 -0.48,4.52 0.31,0.34 0.62,0.5 0.98,0.72l0.31 0.24c-1.07,0.52 -4.51,0.34 -5.67,-0.98 -3.41,-3.85 3,-5.08 4.03,-6.99l-0.14 -0.08c-0.5,-0.22 -1.14,-0.08 -2.36,-0.26 -0.86,-0.16 -1.48,-0.5 -2.22,-0.66z"/>
   <path class="fil6" d="M22.86 64.39c-0.29,0.4 -0.88,0.54 -1.34,0.8 -2.05,1.12 -2.79,2.13 -3,2.29 -0.38,0.28 -0.38,0.04 -0.72,0.24 -1.86,0 -4.41,0.46 -5.77,-0.5 0.02,-0.86 1.38,-1.91 2,-2.37 0.83,-0.62 1.55,-1.2 2.6,-1.63 2.93,-1.22 3.05,0.56 6.22,1.18z"/>
   <path class="fil7" d="M8.88 13.29c0,1.73 -0.86,2.37 -1.88,4.2 -0.62,1.16 -1.12,2.69 -1.12,4.3 -0.02,-0.04 -0.05,-0.1 -0.05,-0.08 -0.02,0.02 -0.05,-0.06 -0.05,-0.08 -0.05,-0.1 -0.05,-0.08 -0.1,-0.16 -0.31,-0.76 -0.45,-2.21 -0.36,-3.13 0.05,-0.56 0.17,-1.18 0.33,-1.71 0.17,-0.54 0.48,-1.16 0.38,-1.53 -1.03,0.28 -2.36,3.05 -2.6,4.66 -0.1,-0.18 -0.05,-0.02 -0.1,-0.28 -0.24,-1.06 0.86,-3.63 0.81,-3.69 0,0 0,-0.52 -0.69,0.22 -0.17,0.2 -0.38,0.5 -0.55,0.74 -0.17,0.24 -0.31,0.58 -0.43,0.84 -0.19,0.42 -0.17,0.58 -0.45,0.88 0,-1.71 0.95,-3.21 1.74,-4.18 2.1,-2.59 5.1,-2.73 5.1,-1z"/>
   <path class="fil8" d="M50.47 41.36l0 1.39c-1.05,-0.26 -1.26,-0.46 -2,-0.86l0.29 -6.65c-0.02,-1.37 0,-5.8 -0.33,-6.75l-0.24 -1.51c0.5,0.06 0.64,0.32 1,1.14 1.29,2.77 0.91,10.02 0.86,12.93l0.43 0.32z"/>
   <path class="fil9" d="M24.72 36.18c-0.21,0.7 -0.81,0.74 -0.57,2.25 0.38,-0.12 0.43,-0.08 0.52,-0.5 0.17,0.14 0.05,-0.06 0.1,0.18l0 0.16c0,0.82 -0.19,1.89 -0.02,3.19 0.19,1.61 0.74,2.75 0.74,3.23 -0.62,0.04 -1.6,0.18 -2.12,-0.12 -0.43,-0.74 -0.24,-3.59 -0.07,-4.58 0.24,-1.53 0.43,-2.59 0.98,-3.94l0.45 0.14z"/>
   <path class="fil10" d="M21.07 26.04l0.43 -1.67c2.05,0.84 2.27,0.72 4.22,1.97 0.88,0.56 2.74,2.09 3.17,3.07 0.48,1.12 -1.1,-0.3 -1.34,-0.48 -1.72,-1.28 -4.29,-2.53 -6.49,-2.89z"/>
   <path class="fil8" d="M26.43 36.74c-0.64,0.24 -0.5,3.27 -0.45,3.79 0.14,1.61 0.38,2.55 0.98,3.85 -0.5,0.04 -1.14,0.14 -1.48,0.32 0,-0.48 -0.55,-1.61 -0.74,-3.23 -0.17,-1.3 0.02,-2.37 0.02,-3.19l0 -0.16c-0.05,-0.24 0.07,-0.04 -0.1,-0.18l0.14 -0.12c0.02,-0.02 0.05,-0.04 0.07,-0.06 0.1,-0.1 0,0 0.17,-0.16 0.07,-0.1 0.21,-0.28 0.26,-0.36 0.1,-0.14 0.17,-0.22 0.29,-0.36l0.33 -0.36 0.5 0.22z"/>
   <path class="fil11" d="M25.03 65.07l-0.64 0.26c-0.21,0.1 -0.33,0.16 -0.55,0.28 -0.48,0.26 -0.72,0.4 -1.12,0.68 -0.69,0.48 -1.48,0.86 -2,1.53 -0.02,0 -0.05,0.04 -0.05,0.06 -0.21,-0.26 0.36,-0.22 -0.33,-0.18l-2.53 0.02c0.33,-0.2 0.33,0.04 0.72,-0.24 0.21,-0.16 0.95,-1.18 3,-2.29 0.45,-0.26 1.05,-0.4 1.34,-0.8 0.33,0.24 1.67,0.66 2.17,0.68z"/>
   <path class="fil11" d="M36.92 65.63c1.55,0.24 2.12,0.26 3.74,0.28l-1.93 0.08c0.17,0.3 0,0.12 0.31,0.32 0.52,0.32 2.69,0.54 3.17,-0.6l1.43 -0.34c-1.22,2.35 -2.96,3.01 -5.34,1.79 -0.62,-0.32 -1.24,-0.84 -1.38,-1.53z"/>
   <path class="fil1" d="M28.86 37.1c0.45,0.26 0.41,0.62 0.74,1.12 0.19,0.28 0.45,0.72 1,0.68 -0.02,-0.62 -0.45,-1.1 -0.38,-1.69l0.29 0c0.12,0.56 0.24,0.88 0.64,1.2 0.14,-0.16 0.05,0.14 0.14,-0.28 0.07,-0.28 -0.02,-0.62 0.26,-1.02l0.76 -0.14c0.48,0.14 -0.05,-0.1 0.57,0.58 1.22,1.37 0.41,-0.96 0.41,-0.96l0.76 -0.24 0.07 1.51c-1.38,0.96 -3.19,2.27 -4.63,0.68 -0.45,-0.5 -0.64,-0.58 -0.91,-1.35l0.26 -0.08z"/>
   <path class="fil10" d="M26.1 54.97c-0.05,-0.3 -0.05,-0.5 -0.07,-0.76 -0.02,-0.12 -0.02,-0.32 -0.05,-0.42 -0.12,-0.44 0.02,-0.12 -0.14,-0.34l0.64 -0.74c0.64,0.08 1.79,0.96 3.22,0.04 0.41,-0.26 0.38,-0.42 0.81,-0.58 0.26,0.86 -0.69,1.95 -1.48,2.23 -0.64,0.2 -1.05,0.16 -1.67,0 -0.72,-0.2 -0.83,0.16 -1.26,0.56z"/>
   <path class="fil10" d="M18.97 25.88l1.6 0.14c-0.12,0.22 0,0.28 0.26,0.9 0.14,0.38 0.26,0.64 0.41,1.08 0.26,0.78 0.6,1.49 0.57,2.41 -0.57,-0.02 -0.17,0.1 -0.83,-0.94 -0.21,-0.32 -0.48,-0.76 -0.69,-1.12l-1.31 -2.47z"/>
   <polygon class="fil9" points="33.47,0 33.51,0 33.47,0.02 "/>
   <path class="fil10" d="M51.13 58.29c-0.76,0.56 -0.5,0.48 -1.65,0.72 -0.02,-0.66 -0.64,-0.36 -0.98,-1.83 -0.12,-0.52 -0.36,-1.69 0.26,-1.89 0.33,0.5 0.07,0.98 0.86,1.81 0.6,0.64 0.86,0.74 1.5,1.2z"/>
   <path class="fil10" d="M53.45 57.78c-0.36,0.3 -0.74,0.54 -1.34,0.62 -0.76,-0.86 -1.86,-2.23 -1.34,-3.43 0.55,0.3 1.17,1.69 2.22,2.45l0.45 0.36z"/>
   <path class="fil10" d="M56.26 55.29c-0.5,0.76 -1.22,1.91 -2.43,1.93 0.07,-0.48 0.64,-0.9 0.91,-1.33 0.29,-0.44 0.52,-1.08 0.57,-1.69 0.45,0.26 0.67,0.62 0.95,1.1z"/>
   <path class="fil12" d="M8.05 32.87c-1.27,0.65 -0.93,1.08 -1.12,1.3 0,0 -0.69,-0.34 -0.69,-0.96 0.08,-0.05 1.13,-1.32 2.24,-0.74 -0.14,0.34 -0.1,0.18 -0.43,0.4zm22.03 3.15c-0.02,0.82 -0.12,0.91 0.14,1.18 -0.07,0.6 0.36,1.08 0.38,1.69 -1.06,0.08 -1.1,-1.42 -1.74,-1.79 0.2,-0.13 0.14,0.07 0.12,-0.5 -0.02,-0.45 -0.2,-1.44 0.48,-1.61 0.55,0.44 -0.05,0.58 0.62,1.04zm1.88 -0.22c-0.42,0.35 -0.23,0.86 -0.41,1.3 -0.48,1.18 -0.06,0.91 -0.41,1.29 -1.32,-1.04 -0.18,-3.02 0.57,-3.09 0.27,0.27 -0.04,-0.12 0.24,0.5zm0.95 -0.36c0.11,0.32 1.4,3.67 -0.02,2.09 -0.62,-0.68 -0.1,-0.44 -0.57,-0.58l0.19 -0.08c-0.16,-0.59 -0.66,-1.82 0.1,-2.15 0.26,0.3 0.19,0.42 0.31,0.72zm-4.67 0.34c-0.31,0.64 -1.1,1.35 -0.88,2.15 -0.45,0.45 -0.11,0.79 -0.62,1.08 -0.69,-0.34 -0.31,-1.59 -0.19,-2.29 0.29,-0.16 0.48,-0.7 0.81,-0.94l-0.24 -0.2c0.83,0.02 0.55,-0.52 1.26,-0.26l-0.14 0.46zm-1.29 -0.32l-2.29 2.47c-0.1,0.42 -0.14,0.38 -0.52,0.5 -0.24,-1.51 0.36,-1.55 0.57,-2.25 0.24,-0.12 0.95,-0.74 1.14,-0.96 0.43,-0.08 0.74,-0.34 1.24,-0.24 0.05,0.2 -0.01,0.33 -0.14,0.48zm-4.29 -1.49c0.26,0.3 0.41,0.86 0.21,1.33 -0.62,0.24 -0.74,-0.72 -1.03,-0.86l0.1 -1.18c0.35,0.12 0.46,0.34 0.72,0.7zm-1.14 0.54c0.12,0.7 0.64,1.57 -0.05,2.15 -0.57,-0.2 -0.51,-0.81 -0.72,-1.31 -0.2,-0.48 -0.64,-1.41 -0.6,-1.87 0.73,-0.12 0.72,0.59 1.36,1.04zm-1.81 0.54c-0.45,0.45 -0.6,0.91 -0.6,1.59l-1.36 0.12 0.5 -1.35c0.24,-0.34 0.79,-1.3 1.43,-1.14 0.12,0.35 0.02,0.22 0.02,0.78zm-3.36 0.44c0.1,0.62 0.26,0.8 0.41,1.29l0.38 -0.02 -1.6 0.08 -0.02 -0.04 -0.6 -0.04 0.55 0.02 -0.17 -1.31c0.21,-0.78 0.79,-1.83 0.98,-0.56 0.02,0.22 0.02,0.3 0.07,0.58zm-1.86 -0.12c-0.14,0.28 -0.48,1.06 -0.33,1.33l-0.02 0.04 -0.24 -0.02c-0.02,0.3 -0.45,1.55 -0.6,1.69 -0.62,-0.16 -0.69,-1.24 -0.48,-1.93l-0.05 -0.02c0.19,-0.9 0.78,-1.79 1.84,-1.79 0.1,0.38 0,0.38 -0.12,0.7zm-1.96 1.1l-0.02 -0.02 0.26 0.02 -0.24 0zm0.19 -1.28c-0.8,0.07 -1.14,1.03 -1.41,1.24 -0.6,0.32 -0.72,1.51 -1.29,1.67 -0.49,-0.81 0.26,-1.76 0.48,-2.25l-0.1 -0.02 0 -0.02c0.38,-0.16 0.48,-0.66 1.14,-0.92 -0.26,0.04 0,0.02 -0.12,-0.14 0.48,-0.06 2.74,-1.12 1.53,0.16l-0.24 0.28zm-1.69 -0.54c-0.91,-0.28 -1.64,0.67 -1.81,0.82 -0.35,-0.06 -0.95,0.82 -1.76,1.16 -0.17,-0.15 -0.05,-0.61 0,-0.8l0.02 0 0.6 -1 -0.02 -0.02 0 -0.02c0.21,-0.06 1.26,-0.64 1.36,-0.8 0.6,-0.02 1.69,-0.3 2.05,0.32l-0.43 0.34z"/>
   <path class="fil1" d="M40.67 65.9l1.55 -0.2c-0.48,1.14 -2.65,0.92 -3.17,0.6 -0.31,-0.2 -0.14,-0.02 -0.31,-0.32l1.93 -0.08z"/>
   <path class="fil10" d="M28.48 55.84l-1.24 0.84c0.05,-0.82 0.12,-1.35 0.41,-1.93 0.62,0.08 0.43,0.42 0.64,0.86 0.14,0.26 0.07,0.12 0.19,0.24z"/>
   <path class="fil0" d="M32.32 36.96l-0.76 0.14c0.05,-0.32 0.07,-0.46 0.14,-0.74 0.12,-0.48 -0.02,-0.32 0.26,-0.56l0.24 -0.08 0.31 1.16 -0.19 0.08z"/>
   <path class="fil0" d="M27.12 35.58l0.24 0.2c-0.33,0.24 -0.52,0.78 -0.81,0.94l-0.12 0.02 -0.5 -0.22 1.03 -1.06 0.17 0.12z"/>
   <path class="fil0" d="M30.51 37.2l-0.29 0c-0.12,-0.12 -0.05,0.02 -0.17,-0.2l0.02 -0.98 0.76 0.02c0,0 -0.29,0.82 -0.33,1.16z"/>
   <path class="fil10" d="M47.53 54.25c-0.26,-0.28 -0.36,-0.26 -0.64,-0.44 0.17,-0.26 0.12,-0.2 0.36,-0.42 0.43,-0.36 0.62,-0.32 0.48,0.28l-0.17 0.5c0,0.02 -0.02,0.06 -0.02,0.08z"/>
  </g>
 </g>
</svg>
