<?xml version="1.0" encoding="UTF-8"?>
<!DOCTYPE svg PUBLIC "-//W3C//DTD SVG 1.1//EN" "http://www.w3.org/Graphics/SVG/1.1/DTD/svg11.dtd">
<!-- Creator: CorelDRAW -->
<svg xmlns="http://www.w3.org/2000/svg" xml:space="preserve" width="22.3441mm" height="30.2128mm" version="1.1" style="shape-rendering:geometricPrecision; text-rendering:geometricPrecision; image-rendering:optimizeQuality; fill-rule:evenodd; clip-rule:evenodd"
viewBox="0 0 90.29 122.09"
 xmlns:xlink="http://www.w3.org/1999/xlink"
 xmlns:xodm="http://www.corel.com/coreldraw/odm/2003">
 <defs>
  <style type="text/css">
   <![CDATA[
    .fil0 {fill:black}
    .fil4 {fill:#292826}
    .fil11 {fill:#2F4834}
    .fil10 {fill:#598247}
    .fil5 {fill:#615DA2}
    .fil15 {fill:#8580B6}
    .fil6 {fill:#8681B8}
    .fil12 {fill:#915535}
    .fil3 {fill:#923134}
    .fil8 {fill:#945736}
    .fil7 {fill:#DA8B49}
    .fil16 {fill:#DB3134}
    .fil13 {fill:#DC8C49}
    .fil2 {fill:#ED3033}
    .fil17 {fill:#EDA96A}
    .fil1 {fill:#F0AB6B}
    .fil18 {fill:#FCFBFB}
    .fil9 {fill:#FDFDFD}
    .fil14 {fill:#FEFEFE}
   ]]>
  </style>
 </defs>
 <g id="Camada_x0020_1">
  <metadata id="CorelCorpID_0Corel-Layer"/>
  <g id="_2413915847200">
   <path class="fil0" d="M24.35 8.49c-0.78,1.07 -1.82,1.31 -3.79,3.65 -1.18,1.4 -2.1,2.81 -2.89,4.68 -0.83,1.97 -1.24,4.03 -1.16,6.39 0.09,2.84 1.01,3.72 2.62,4.88 -0.08,1.43 -1.1,3.93 -1.59,5.35 -0.3,0.88 -2.93,2.65 -3.67,3.27 -7.24,6.04 -14.87,16.64 -13.77,27.64 0.43,4.31 2.75,7.12 4.89,8.99 1.79,1.57 1.35,1.33 2.13,4.8 0.44,1.93 0.87,3.65 1.69,5.27 2.71,5.36 2.87,4.43 5.69,8.2 0.85,1.13 1.91,3.03 2.38,4.56 0.34,1.11 1.02,4.93 0.74,5.98 -9.41,0.43 -11.83,9.16 -7.93,14.29 0.45,0.6 0.76,0.84 1.15,1.5 0.41,0.71 0.43,1.02 1.04,1.63 3.59,3.61 14.29,2.98 17.39,0.37 1.31,-1.1 0.91,-0.32 3.07,-0.81 2.52,-0.58 5.64,-1.29 6.35,-4.06 0.21,-0.84 0.17,-1.41 0.44,-2.22 0.75,-2.24 1.18,-3.99 -0.02,-6.42 -0.46,-0.93 -0.67,-1.01 -0.1,-2.06 0.33,-0.61 0.58,-1.23 1.2,-1.5 1.64,1.91 0.98,2.4 0.58,3.27 -1.17,2.51 -0.28,6.18 0.65,8.83 1.5,4.27 7.94,3.45 9.04,4.22 0.57,0.4 0.7,0.68 1.55,1.11 4.43,2.24 14.33,2.17 16.83,-1.41 1.65,-2.36 0.17,-0.54 2.29,-3.02 0.69,-0.8 1.5,-2.16 1.8,-3.55 0.68,-3.13 -0.6,-6.53 -2.3,-7.99 -2.47,-2.11 -4.66,-2.19 -8.69,-1.98 0.41,-7.33 4.67,-4.43 10.53,-13.34 0.56,-0.85 2.42,-4.33 3.06,-4.91 0.52,-0.46 1.76,-0.86 2.5,-1.39l4.36 -3.41c0.73,-0.82 0.82,-1.65 1.7,-2.39 3.16,-2.69 5.35,-5.2 6.02,-9.86 1.27,-8.88 -5.43,-17.76 -9.16,-22.27 -2.31,-2.79 -5.14,-5.58 -7.68,-8.05 -4.07,-3.95 -1.48,-0.99 -3.32,-4.66 -0.9,-1.8 0.26,-3.12 0.1,-7.22l-1.53 -0.55c-0.19,-1.73 0.15,-3.04 -0.2,-4.91 -0.95,-5.11 -2.72,-5.6 -2.98,-7.42 -0.59,-4.09 -3.14,-7.03 -7.59,-8.15 -4.64,-1.16 -6.62,1.93 -7.56,2.42 -0.03,-2.5 0.29,-2.61 -1.34,-3.74 -5.04,-3.47 -17.17,-3.15 -21.05,-0.08 -0.66,0.52 -1.85,1.82 -2.51,2.6 -1.52,1.82 -1.55,1.1 -0.95,3.47z"/>
   <path class="fil1" d="M33.53 28.47c-0.5,4.05 0.44,6.98 2.22,10.43 0.63,1.22 0.52,2.03 0.78,3.46 1.17,6.49 5.97,8.53 7.08,10.08 1.48,1 7.88,1.29 10.11,1.02 3.65,-0.44 6.2,-1.47 8.48,-3.35 1.92,-1.58 3.44,-4.06 4.24,-7.59 0.97,-4.28 0.37,-6.68 -1.31,-9.9 -0.98,-0.09 -0.6,0.23 -1.55,0.07 -0.44,-0.07 -0.93,-0.36 -1.52,-0.49 0.51,1.18 1.9,1.44 2.34,3.56 0.55,2.62 -0.75,3.12 -0.82,4.82 -0.1,2.42 0.78,2.6 -0.7,4.89 -0.61,0.94 -1.96,2.33 -3.37,2.59 1.92,-1.96 3.73,-2.36 3.48,-6.62 -0.73,0.01 -1.2,0.67 -1.81,1.1 -1.36,0.96 -5.75,2.7 -6.98,1.71 1.57,-0.51 3.1,-0.4 4.73,-1.1 2.9,-1.26 5.16,-3.6 4.7,-7.02 -0.2,-1.48 -1.38,-3.42 -2.92,-2.63 -0.69,0.8 2.46,4.73 -3.29,7.13 -2.85,1.19 -6.85,1.31 -10.17,0.63 -3.86,-0.79 -4.75,-2.5 -7.52,-3.89 -1.51,-0.76 -2.53,-1.37 -3.36,-2.35 -1.51,-1.78 -1.11,-2.72 -1.65,-3.11 -0.03,-0.03 -0.33,-0.08 -0.39,-0.11 -0.34,-2.31 1.83,-3.49 2.36,-2.04 -0.61,0.62 -0.52,0.03 -1.4,0.61 -0.41,3.5 3.51,6.3 6.44,7.08 7.18,1.91 15.47,0.12 19.58,-6 2.32,-3.45 2.39,-5.97 2.53,-10.69 -0.09,-1.71 -0.55,-2.88 -1.36,-4.3 -0.34,-0.6 -0.28,-0.64 -0.83,-0.98 -1.01,1.12 -1.5,2.81 -3.65,2.59 -2.28,-0.23 -2.7,-1.95 -3.91,-2.39 -1.04,0.94 -1.86,2.79 -2.18,4.53 -0.49,2.68 0.33,3.79 0.43,5.96 -0.91,-0.66 -1.2,-3.78 -1.57,-4.93 -0.93,0.43 -1.92,1.61 -2.36,2.85 -0.64,1.81 -0.2,2.8 0.09,4.44 -1.09,-0.77 -1.03,-2.77 -1.09,-4.32 -1.68,0.77 -1.54,3.35 -1.81,4.95l-0.51 -0.96c-1.05,0.96 -0.95,1.6 -2.89,1.95 -2.15,0.39 -2.46,-0.36 -4.13,-0.63l0.15 1.78c-0.74,-0.65 -0.59,-1.23 -0.69,-2.32 -0.3,-3.1 -2.38,-2.29 -3.59,-1.15 -0.51,0.48 -0.28,0.14 -0.43,0.68z"/>
   <path class="fil2" d="M45.42 69.51c3.15,0.64 2.97,3.18 1.95,4.17 -1.3,1.26 -4.48,0.67 -6.34,1.06 -1.16,2.65 -1.37,2.54 -4.32,2.4 -2.05,-0.1 -3.49,1.63 -5.29,1.78l-0.7 0.48c0.22,3.89 6.45,7.66 9.44,9.26 4.42,2.38 9.74,3.17 15.59,2.13 4.69,-0.43 14.47,-7.19 15.7,-9.96 -0.35,-0.66 -0.9,-0.79 -1.49,-1.34 -0.52,-0.49 -0.92,-1.28 -1.38,-1.68 -0.85,-0.73 -1.39,-0.05 -2.4,-0.66 -0.72,-0.44 -0.68,-1.01 -1.65,-1.45 -1.51,0.48 -1.42,1.65 -3.83,1 -3.07,-0.83 -4.86,-3.39 -3.33,-6.29 1.1,-2.08 1.67,-1.35 4.19,-1.31 0.14,-1.53 0.58,-2.14 0.82,-3.48l-14.26 0.67c-1.1,0.2 -2.61,0.87 -3.64,1.21 0.13,1.38 0.22,1.59 0.94,2.02z"/>
   <path class="fil3" d="M21.23 66.8c-2.25,0.6 -6.32,-1.94 -7.54,-2.97 -1.57,-1.31 -4.44,-3.92 -3.11,-7.13 -1.53,0.47 -0.71,0.79 -1.71,1.33 0.2,-0.61 1.19,-1.54 1.7,-1.96 0.95,-0.78 2.06,-0.71 2.94,-1.24 -1.09,-0 -0.4,0.02 -0.72,-0.17 0.35,-3.06 1.86,-4.94 3.45,-6.41 1.31,-1.21 4.03,-3.52 6.68,-3.23 0.83,1.11 2.02,2.85 2.69,4.42 1.04,2.45 1.24,2.75 0.82,5.59 0.47,-0.56 0.24,-0.8 0.58,-1.45 0.53,1.94 -0.5,3.87 -1.24,5.16 0.53,1.12 1.81,1.77 3.15,4.31 0.03,0.06 0.2,0.37 0.23,0.4 0.23,0.32 0.04,0.14 0.34,0.38 -0.7,-2.52 2.63,-6.82 3.58,-7.22l0.9 0.78c-0.3,-1.49 0.73,-4.22 1.31,-5.21 1.08,-0.1 2.62,0.2 3.41,-0.38 -1.57,-1.33 -3.82,-1.72 -6.76,-6.01 -0.51,-0.75 -0.78,-1.2 -1.2,-2.07 -1.38,-2.84 -1.7,-0.65 -5.35,-4.46 -3.06,-3.2 -2.08,-3.86 -7.52,0.18 -6.42,4.76 -15.35,16.41 -13.53,25.36 1.27,6.22 12.41,10.72 15.55,10.41 -1.16,-4.54 -0.64,-5.05 1.36,-8.41z"/>
   <path class="fil2" d="M77.11 58.12c-2.24,-0.11 -2.68,-0.05 -3.69,1.35 -0.92,1.26 -1.36,2.11 -1.04,3.94 1.02,0.19 2.56,-0.4 3.26,0.39 1.74,0.12 3.14,1.56 3.96,3.18 1.04,2.06 0.65,3.83 1.09,6.25 3.24,-0.95 4.96,-5.88 4.79,-9.58 -0.18,-4.12 -2.36,-7.65 -3.97,-10.44 -0.97,-1.68 -1.89,-3.01 -2.9,-4.24 -1.11,-1.36 -2.16,-2.72 -3.25,-3.9 -1.12,-1.21 -6.06,-6.55 -7.54,-6.74 -0.17,3.43 -0.48,5.32 -1.7,8.14 -1.45,3.36 -4.31,4.81 -3.81,6.16 0.61,0.84 1.22,0.74 1.58,1.24 0.32,0.45 0.29,1.41 0.72,2.15 1.02,0.24 1.9,-0.01 2.62,0.45 2.06,1.31 0.06,0.58 2.54,0.73l0.65 1.33c0.69,-0.07 1.29,-0.35 1.75,-0.99 -0.63,-1.68 -2.58,-3.3 -3.38,-4.71l1.88 1.24 -0.47 -3.06c0.95,0.8 1.09,1.78 1.28,3.24 0.21,1.55 1,1.94 1.61,2.88 2.21,0.27 2.67,-0.63 5.54,0.4 1.26,0.46 3.37,1.6 3.61,2.78 -1.23,-0.78 -3.08,-2.06 -5.14,-2.18z"/>
   <path class="fil4" d="M43.35 26.33c-2.73,-0.34 -4.57,-2.5 -5.01,-5.19 -0.8,-4.94 4.12,-1.36 5,0.23 -0.54,0.52 -0.69,0.26 -1.06,0.85 -0.87,1.39 0.86,3.42 1.07,4.11zm3.51 -9.16c1.04,0.97 2.28,2.53 1.77,4.46 -1.83,-0.55 0.34,-1.26 -2.67,-1.34 -0.04,-0 -0.14,0.04 -0.17,-0.02 -0.03,-0.06 -0.12,-0.01 -0.17,-0.03 -0.71,-1.33 -1.17,-5.31 1.24,-3.07zm11.41 -6.59c-0.49,0.48 -1.48,0.04 -1.9,-0.26 -1.46,-1.04 -0.56,-1.31 -0.54,-1.34 0.89,-0.89 3.2,0.84 2.43,1.6zm-13.87 2.15c-0.08,0.88 -0.82,-0.05 -1.83,0.76 -0.64,0.51 -0.43,1.11 -1.12,1.54 -0.61,-0.76 -0.54,-0.97 -0.37,-2.05 -0.43,0.23 -0.53,0.03 -0.35,0.2l-0.04 -1.07c-0.95,-0.04 -4.15,0.31 -4.63,0.77 0.88,0.19 1.22,-0.17 2.01,0.04 0.43,0.12 0.95,0.66 1.32,0.89l-0.41 0.11c0.16,0.19 0.14,0.15 0.36,0.33 0.53,0.44 0.49,0.23 0.88,0.79 -2.74,-0.17 -3.35,-0.57 -4.83,1.28 -1.06,1.33 -0.98,3.28 -1.31,5.05 -5.7,1.95 -4.43,4.92 -5.79,4.3 0.08,0.98 0.92,0.42 1.44,3.44 0.84,-0.91 2.61,-2.87 4.49,-2.98 -0.58,0.82 -1.43,1.2 -1.98,2.36 -0.21,0.44 -0.45,1.18 -0.57,1.71l-0.07 1.57c0.15,0.52 0.04,0.25 0.25,0.5 0.49,-1.01 0.47,-2.48 1.21,-3.36 0.43,-0.51 0.16,-0.2 0.48,-0.44 0.15,-0.54 -0.07,-0.2 0.43,-0.68 1.2,-1.14 3.29,-1.95 3.59,1.15 0.11,1.09 -0.05,1.67 0.69,2.32l-0.15 -1.78c1.67,0.27 1.98,1.02 4.13,0.63 1.94,-0.35 1.84,-0.99 2.89,-1.95l0.51 0.96c0.26,-1.59 0.13,-4.17 1.81,-4.95 0.06,1.55 0,3.55 1.09,4.32 -0.29,-1.64 -0.73,-2.63 -0.09,-4.44 0.44,-1.24 1.42,-2.42 2.36,-2.85 0.37,1.16 0.67,4.27 1.57,4.93 -0.1,-2.17 -0.91,-3.28 -0.43,-5.96 0.32,-1.74 1.13,-3.59 2.18,-4.53 1.21,0.44 1.63,2.16 3.91,2.39 2.15,0.21 2.64,-1.47 3.65,-2.59 0.55,0.34 0.49,0.38 0.83,0.98 0.81,1.42 1.27,2.59 1.36,4.3l0.2 -0.4c1,-2.97 -0.66,-4.28 -1.83,-6.91 -1.07,-2.4 -1.81,-4.68 -4.11,-5.68 -3.62,-1.58 -5.3,0.67 -5.08,4.21 0.24,3.88 -0.06,3.11 -1.28,6.03 -0.32,0.76 -0.4,1.09 -0.91,1.6 -0.04,-0.03 -0.1,-0.14 -0.12,-0.1l-0.69 -0.8c-2.34,-3.28 -2.37,-3.79 -5.3,-5.74l-0.33 -0.22z"/>
   <path class="fil3" d="M55.75 90.78c-5.85,1.03 -11.17,0.25 -15.59,-2.13 -2.98,-1.61 -9.22,-5.38 -9.44,-9.26l0.7 -0.48c-3.04,0.36 -4.96,-0.04 -7.53,-1.37 -0.36,-0.19 -0.59,-0.31 -0.94,-0.49l-0.93 -0.59c-0.96,0.07 -5.03,-0.77 -6.19,-1.08 -2.09,-0.56 -3.29,-1.55 -5.08,-2.11 0.13,1.45 2.23,4.47 2.97,5.44 6.11,8.03 17.02,12.88 27.36,13.67 2.39,0.18 5.61,0.15 7.96,-0.08 1.14,-0.11 5.98,-0.62 6.72,-1.52z"/>
   <path class="fil5" d="M29.34 103.34c0.03,-1.06 0.01,-2.45 0.34,-3.24l6.75 -0.91c0.37,-0.33 0.28,0.44 0.32,-0.44 -1.39,-0.11 -3.41,-0.67 -4.31,-1.35 2.92,0.11 7.74,1.16 11.06,1.33 0.66,0.03 1.37,0.02 2.03,-0.01l1.37 -0.23c0.03,-0.01 0.12,-0 0.15,-0.07 0.02,-0.06 0.1,-0.04 0.15,-0.07 -1.95,-0.05 -3.32,-0.63 -5.16,-1.77 -0.82,-0.51 -1.4,-0.9 -2.04,-1.44 -0.37,-0.32 -1.55,-1.38 -1.9,-1.52l1.24 -0.04c-0.49,-0.35 -1.7,-0.26 -2.47,-0.42 -0.76,-0.16 -1.46,-0.26 -2.21,-0.44 -4.13,-0.98 -7.92,-2.37 -11.5,-4.44 -1.86,-1.08 -4.98,-3.3 -6.23,-4.6l-4.9 -5.72c0.31,2.69 3.4,7.48 4.72,9.16 3.51,4.49 5,4.69 6.94,6.81 -1.6,-0.42 -2.26,-1.5 -3.55,-2.12 0.27,1.43 0.97,2.56 1.26,4.17 0.7,3.88 -1.07,7.04 7.96,7.37z"/>
   <path class="fil6" d="M39.33 93.58l-1.24 0.04c0.35,0.13 1.53,1.2 1.9,1.52 0.63,0.54 1.22,0.93 2.04,1.44 1.84,1.14 3.21,1.73 5.16,1.77l2.82 0.17 -1.01 0.32c-0.59,0.41 0.61,0.05 -0.62,0.38l1.24 4.18 2.71 -0.11c1.29,0.14 4.23,-0.93 5.27,-1.39 0.23,-4.78 0.17,-2.99 1.41,-5.96l-1 -0.35c3.74,-1.47 8.9,-6.04 10.39,-9.09 -1.72,0.52 -8.27,6.54 -20.21,7.16 -2.66,0.14 -8.52,-0.11 -8.85,-0.08z"/>
   <path class="fil2" d="M10.58 56.7c-1.33,3.21 1.53,5.82 3.11,7.13 1.23,1.03 5.29,3.57 7.54,2.97 0.42,-0.23 0.66,-0.58 1.03,-0.87 0.46,-0.35 0.91,-0.66 1.37,-0.89 0.95,-0.48 2.21,-0.96 3.51,-0.74l1.35 0.25c-0.78,-3.24 -4.41,-6.14 -6.98,-7.51 -1.52,-0.81 -3.45,-1.56 -5.42,-1.66 -1.41,-0.07 -3.84,0.16 -5.09,0.93 -0.58,0.36 -0.26,0.06 -0.43,0.39z"/>
   <path class="fil7" d="M29.71 29.11c0.08,0.84 0.02,0.43 -0.23,0.61 0.05,0.89 0.1,1.2 -0.58,1.46 0.6,3.88 -1.05,5.33 -3.82,6.29 0.54,1.28 3.1,3.51 4.65,4.06l0 -1.64c0.21,0.23 0.08,-0.1 0.35,0.57l0.54 1.91c0.29,0.93 0.61,1.53 1.08,2.2 2.78,4.01 6.55,6.84 11.9,7.86 -1.11,-1.55 -5.91,-3.58 -7.08,-10.08 -0.26,-1.43 -0.15,-2.24 -0.78,-3.46 -1.78,-3.45 -2.72,-6.38 -2.22,-10.43 -0.32,0.25 -0.05,-0.07 -0.48,0.44 -0.74,0.87 -0.72,2.35 -1.21,3.36 -0.21,-0.25 -0.11,0.02 -0.25,-0.5l0.07 -1.57c0.11,-0.53 0.36,-1.26 0.57,-1.71 0.56,-1.17 1.4,-1.54 1.98,-2.36 -1.88,0.12 -3.64,2.07 -4.49,2.98z"/>
   <path class="fil8" d="M34.05 64.75c-0.36,1.05 -1.33,1.99 -2.12,2.68 -1.09,0.96 -1.6,0.89 -3.2,1.33 -2.25,0.62 -3.11,3.49 -3.62,4.52 -0.26,0.52 -0.1,0.3 -0.46,0.6 0.01,-1.64 0.68,-2.94 1.43,-3.91 0.43,-0.56 0.76,-0.93 1.32,-1.35 0.35,-0.26 1.1,-0.67 1.27,-0.93 -5.18,1.58 -6.12,6.72 -4.4,9.05 0.99,1.34 3.81,1.7 5.94,1.57 3.6,-0.21 4.6,-2.45 3.87,-3.2 -0.89,-0.69 -3.08,0.47 -3.59,-0.41 0.02,-0.01 2.73,-0.54 2.81,-0.54 0.98,-0.04 1.54,0.79 2.09,1.28 1.16,1.03 3.59,1.82 4.76,0.08l-0.59 0.23c-1.09,-2.45 -5.33,-5.26 -8.79,-5.9 0.02,-0.06 0.04,-0.14 0.05,-0.18 0.02,-0.04 0.06,-0.14 0.07,-0.18 0.02,-0.04 0.17,-0.28 0.21,-0.33 -0.17,-0.14 -0.66,0.1 0.16,-0.7 3.14,-3.02 4.9,-0.56 5.7,-0.35l-0.34 -2.07 0.63 0.79c0.13,0.25 0.16,0.39 0.32,0.69 0.22,0.39 0.63,0.97 0.84,1.21 0.3,0.36 0.69,0.71 1.07,0.97 0.51,0.36 0.9,0.43 1.32,0.79 0.53,-0.08 0.87,-0.04 1.39,-0.13 0.18,-0.03 0.49,-0.12 0.61,-0.19 0.45,-0.25 0.26,-0.13 0.53,-0.45 -2.05,0.14 -3.62,-1.65 -4.52,-2.82 -0.71,-0.91 -2.56,-3.46 -1.66,-5.19l1.34 0.1 -0.73 -0.34c-0.97,-0.19 -1.73,0.21 -2.21,1 -0.43,0.7 -0.9,1.94 -1.5,2.28z"/>
   <path class="fil2" d="M13.5 54.84c3,-0.12 3.76,-0.41 6.67,0.65 2.55,0.94 3.91,2.55 4.92,2.86 0.68,-0.76 1.38,-2.07 1.33,-3.31 0.42,-2.84 0.22,-3.15 -0.82,-5.59 -0.67,-1.57 -1.86,-3.3 -2.69,-4.42 -2.65,-0.29 -5.37,2.02 -6.68,3.23 -1.6,1.47 -3.1,3.35 -3.45,6.41 0.32,0.19 -0.36,0.16 0.72,0.17z"/>
   <path class="fil8" d="M62.82 115.05c-0.24,-0.55 -0.04,-0.04 0.39,-0.79 1.04,-1.8 0.53,-4.61 -1.47,-5.73 -1.45,-0.81 -2.53,-0.1 -2.22,-0.93 -0.77,0.11 -1.79,0.79 -2.35,1.19l-0.2 -0.84c-1.74,-0.14 -4.81,1.76 -9.05,0.11 -1.14,-0.44 -1.3,-0.96 -2.19,-1.3 -0.89,0.84 -1.28,1.78 -1.11,3.09 0.28,2.02 2.04,0.69 4.95,2.28 1.4,0.77 1.95,1.71 3.42,2.29 2.69,1.05 5.8,1.22 8.68,0.93 0.82,-0.08 0.7,0.09 1.14,-0.29z"/>
   <path class="fil9" d="M59.16 53.47c3,-0.03 1.93,0.3 1.98,3.86l0.1 3.58c-1.81,0.24 -1.52,-0.58 -1.58,-2.15 -0.05,-1.27 -0.11,-2.54 -0.16,-3.8 -4.35,-0.08 -2.44,-0.56 -4.26,-0.59 0.33,1.68 2.46,5.9 2.45,6.74 -1.61,0.07 -1.78,-1.45 -2.29,-2.64 -0.51,-1.2 -0.89,-2.54 -1.5,-3.77l-2.91 -0.03c0.01,1.51 2.39,5.67 2.19,6.63 -1.26,0.26 -1.2,-0.29 -2.18,-2.69 -1.82,-4.46 0.01,-3.64 -4.65,-4.22l-0.65 2.29c2.32,0.21 2.5,0.56 3.59,2.01 1.21,1.6 1.43,1.61 1.43,4.27 3.87,-0.09 7.69,-0.3 11.55,-0.47 5.27,-0.24 2.54,-0.72 4.93,-1.01 1.27,-0.16 1.43,-0.14 1.97,-1.13 0.58,-1.07 0.29,-1.68 -0.69,-2.07 0.03,1.22 0.42,2.33 -0.9,2.57 -4.81,0.89 -4.77,-6.36 -4.77,-6.36 -0.45,-0.51 -0.49,-0.35 -0.91,-0.85 -0.31,-0.37 -0.58,-0.86 -0.85,-1.22 -0.87,0.15 -1.48,0.46 -1.89,1.07z"/>
   <path class="fil10" d="M36.05 12.9c0.48,-0.46 3.68,-0.81 4.63,-0.77 2.28,-1.04 1.13,-0.63 3.62,-0.53 1.03,-1.54 1.6,-3.64 1.61,-5.78 -3.7,-2.01 -10,-1.65 -14.41,-0.7 -0.07,0.87 0.77,3.4 1,4.55 0.4,2.03 0.21,3.34 0.25,5.47 0.75,-0.51 0.71,-1 1.33,-1.53 0.5,-0.43 1.13,-0.7 1.96,-0.71z"/>
   <path class="fil7" d="M21.44 115.9c6.95,-0.11 7.66,-2.4 10.41,-3.59 1.34,-0.58 2.4,-0.41 3.39,-1.29 0.31,-1.51 0.1,-2.54 -0.75,-3.53 -2.53,0.38 -1.4,2.16 -9.7,1.05 0.31,0.79 0.99,1.66 1.45,2.28 -3.06,-2.37 -0.04,-0.98 -5.35,-3.64 -4.12,0.18 -3.82,5.11 -0.05,8.13l0.6 0.59z"/>
   <path class="fil11" d="M23.46 25.71c0.66,-0.4 0.88,-0.94 1.66,-1.25 1.07,-0.43 1.46,0.01 2.43,-0.07 1.37,-2.8 2.71,-4.14 2.73,-7.93 0.01,-0.92 -0.19,-4.21 -0.55,-4.86 -1.47,-2.72 -14.8,11.05 -6.27,14.11z"/>
   <path class="fil8" d="M21.44 115.9l-0.6 -0.59c-3.78,-3.03 -4.07,-7.95 0.05,-8.13 -0.88,-0.89 -4.67,-0.64 -5.77,-0.16 -1.45,0.64 -2.59,2.22 -2.55,4.25 0.09,4.22 5.06,4.22 8.87,4.63z"/>
   <path class="fil9" d="M36.36 53.24c-0.13,1.05 1.02,4.15 1.38,5.35 0.39,1.32 0.27,1.65 1.18,2.28 0.8,0.55 1.34,1.22 2.24,1.43 -0.6,-2.79 -0.18,-3.87 -0.25,-6.64 -1.49,0.03 -3.14,0.64 -2.9,-1.16 0.4,-0.11 4.59,-0.59 4.62,0.22 0.08,2.12 -0.63,1.91 -0.36,6.69 0.66,-0.16 2,-1.01 2.5,-1.43 0.02,-0.97 -0.45,-1.93 -0.55,-2.86 -0.18,-1.68 0.26,-1.8 0.6,-3.16 -2.56,-0.46 -5.38,-1.74 -8.47,-0.72z"/>
   <path class="fil7" d="M59.52 107.6c-0.31,0.83 0.77,0.12 2.22,0.93 2,1.12 2.52,3.93 1.47,5.73 -0.44,0.75 -0.63,0.24 -0.39,0.79 3.17,0.17 6.99,-2.65 5.5,-6.15 -1.52,-3.57 -5.58,-2.39 -8.8,-1.3z"/>
   <path class="fil7" d="M41.6 63.04c0.19,0.91 1.79,3.12 2.34,3.8 2.76,-0.35 7.34,-3.36 5.55,-6.33 -1.45,-2.41 -3.19,-0.46 -3.96,0.09 -0.99,0.71 -2.99,1.55 -3.94,2.44z"/>
   <path class="fil1" d="M26.69 35.95c1.27,-0.45 1.92,-1.95 2.02,-3.36 0.02,-0.34 0.01,-0.69 0.05,-1.02 0.13,-1.1 0.08,-0.47 0.16,-0.39 0.68,-0.26 0.63,-0.57 0.58,-1.46 -0.09,-0.87 -0.61,-2.05 -1.07,-2.92 -0.49,-0.93 -0.86,-1.91 -2.11,-1.88 -0.55,0.19 -0.65,0.91 -0.88,2.12l-0.79 8.47c0.54,0.22 1.36,0.35 2.04,0.43z"/>
   <path class="fil2" d="M29.48 63.84c0.14,1.35 0.76,2.52 1.74,2.94 0.78,0.04 1.78,-1.65 2.14,-2.02 0.25,-0.25 0.09,-0.11 0.38,-0.33 0.22,-1.2 1.39,-1.57 1.15,-3.39 -0.16,-1.23 -0.72,-2.38 -0.94,-3.64l-0.9 -0.78c-0.95,0.4 -4.28,4.7 -3.58,7.22z"/>
   <path class="fil7" d="M73.14 66.01c-0.04,0.05 -0.09,0.05 -0.11,0.13l-0.74 0.78c-5.19,4.95 -2.86,8.39 -0.62,7.15 1.02,-0.22 1.83,-2.17 2.9,-2.77l0.31 0.15c0.19,0.07 0.07,0.07 0.5,0.16 0.45,0.09 0.9,0.08 1.36,0.08 -0.37,-1.58 -1.21,-1.43 -1.43,-3.44 -0.17,-1.63 -0.55,-2.48 -2.16,-2.24z"/>
   <path class="fil7" d="M28.27 25.67c1.37,0.63 0.1,-2.35 5.79,-4.3 0.32,-1.77 0.25,-3.72 1.31,-5.05 1.48,-1.85 2.08,-1.44 4.83,-1.28 -0.39,-0.55 -0.35,-0.35 -0.88,-0.79 -0.22,-0.18 -0.2,-0.14 -0.36,-0.33 -0.69,-0.08 -5.97,-2.17 -5.94,4.52 -0.69,-0.57 0.02,-0.2 -0.82,-0.41 -1.14,2.1 -4.07,4.43 -3.92,7.63z"/>
   <path class="fil7" d="M66.65 70.18c0.64,-0.88 1.58,-2.36 1.93,-3.54 0.04,0.05 0.06,0.08 0.07,0.17l0.35 1.12c1.03,-1.86 2.68,-4.75 -0.48,-5.68 -1.58,0.08 -3.39,2.26 -4.06,3.6 -0.45,0.92 -0.54,2 -0.09,3.07 0.37,0.87 1.45,1.58 2.29,1.27z"/>
   <path class="fil12" d="M60.86 70.6c0.62,-0.49 0.61,0.02 0.53,-0.91 -1.96,-0.08 -4.14,-0.48 -3.87,3.17 0.24,3.27 7.22,4.93 6.21,0.84 -0.19,-0.76 -0.84,-0.9 -1.45,-1.47 -0.87,-0.83 -0.5,-1.14 -1.43,-1.63z"/>
   <path class="fil7" d="M43.34 69.72c0.84,-0.82 0.41,-1.47 -0.07,-2.17 -0.49,-0.71 -0.91,-1.35 -1.41,-2.06 -0.86,-1.22 -2.05,-3.25 -3.37,-3.68l-1.34 -0.1c-0.9,1.73 0.96,4.28 1.66,5.19 0.91,1.17 2.47,2.96 4.52,2.82z"/>
   <path class="fil13" d="M26.69 35.95c-0.68,-0.09 -1.51,-0.21 -2.04,-0.43l0.79 -8.47c0.23,-1.2 0.33,-1.93 0.88,-2.12 -0.51,-0.97 -1.82,0.63 -2.05,1.13 -0.7,1.54 -0.91,4.46 -1.63,6.14 -0.49,1.14 -2.29,3.7 1.29,4.47 0.61,0.13 0.9,0.1 1.5,-0.02 1.37,-0.29 1.22,-0.63 1.27,-0.7z"/>
   <path class="fil8" d="M71.66 74.08c-2.23,1.24 -4.57,-2.2 0.62,-7.15l0.74 -0.78c0.02,-0.08 0.07,-0.09 0.11,-0.13 -2.2,0.32 -3.89,2.8 -5.03,4.08 -0.88,0.98 -3.38,4.74 -1.6,6.3 1.79,1 4.59,-1.26 5.16,-2.32z"/>
   <path class="fil3" d="M22.33 76.26l0.91 0.23c-0.29,-2.41 -1.21,-3.78 1.06,-6.89 0.72,-0.99 0.96,-0.54 1.5,-1.44 -0.64,0.34 -1.29,0.75 -2.2,0.28 -0.56,-0.29 -1.15,-0.85 -1.32,-1.38l-0.49 0.44c-0.13,0.13 -0.27,0.29 -0.39,0.43 -1.56,1.81 -2.05,4.63 -0.92,6.84 0.52,1.01 1.26,0.99 1.84,1.47z"/>
   <path class="fil7" d="M31.11 69.15c-0.04,0.05 -0.2,0.29 -0.21,0.33 -0.02,0.04 -0.06,0.14 -0.07,0.18 -0.02,0.04 -0.03,0.12 -0.05,0.18 3.46,0.65 7.7,3.45 8.79,5.9l0.59 -0.23c0.05,-2.04 0.1,-2.16 -0.99,-3.44 -0.82,-0.96 -1.29,-1.51 -2.12,-2.38 -1.97,-2.05 -3.33,-2.44 -5.93,-0.54z"/>
   <path class="fil14" d="M43.35 26.33c-0.21,-0.69 -1.95,-2.72 -1.07,-4.11 0.37,-0.59 0.53,-0.33 1.06,-0.85 -0.89,-1.58 -5.81,-5.17 -5,-0.23 0.44,2.69 2.28,4.85 5.01,5.19z"/>
   <path class="fil8" d="M40.42 70.82l-1.41 -0.45c0.36,0.71 0.79,1.2 1.23,1.84 0.73,1.05 0.64,1.61 1.2,1.77 1.59,0 4.79,0.17 5.5,-0.94 1.2,-1.88 -1.12,-3.31 -2.84,-3.01 -0.09,0.38 -0.14,0.32 -0.58,0.6 -0.29,0.18 -0.74,0.39 -0.97,0.46 -0.72,0.2 -1.7,0.15 -2.13,-0.26z"/>
   <path class="fil15" d="M29.34 103.34l5.15 -0.28c0.67,-0.91 1.77,-2.99 1.94,-3.87l-6.75 0.91c-0.34,0.79 -0.31,2.18 -0.34,3.24z"/>
   <path class="fil16" d="M71.83 65.09c0.05,0.03 0.13,0 0.16,0.07l1.32 0.14c0.56,0.01 0.86,0 1.32,0.3 2.03,1.35 0.76,5.86 4.73,5.34 0.33,-4.96 -3.59,-7.19 -6.4,-6.61 -0.22,0.04 -0.42,0.1 -0.6,0.21 -0.69,0.41 -0.31,0.19 -0.53,0.54z"/>
   <path class="fil7" d="M74.74 74.46c-0.27,1.17 -0.06,1.69 0.42,2.45 1.64,0.36 2.73,-0.62 3.59,-1.28 1.2,-0.92 1.03,-1.78 0.62,-3.6 -1.42,-1.53 -4.48,1.62 -4.62,2.43z"/>
   <path class="fil8" d="M66.65 70.18c-0.83,0.31 -1.92,-0.4 -2.29,-1.27 -0.45,-1.06 -0.36,-2.15 0.09,-3.07 0.67,-1.34 2.48,-3.52 4.06,-3.6 -1.13,-1.35 -5.22,2.54 -5.99,5.15 -1.45,4.92 1.7,6.56 4.13,2.78z"/>
   <path class="fil5" d="M52.33 103.29l-2.71 0.11 -1.24 -4.18c1.23,-0.33 0.04,0.04 0.62,-0.38 -1.33,0.08 -3.89,0.17 -4.92,0.77 0.56,1.68 0.75,3.19 2.62,3.56 1.18,0.24 4.49,0.71 5.62,0.11z"/>
   <path class="fil12" d="M76.73 71.69c-0.46,0 -0.91,0.01 -1.36,-0.08 -0.43,-0.08 -0.31,-0.09 -0.5,-0.16l-0.31 -0.15c-0.29,2.02 -4.12,4.74 -5.12,5.63 0.1,2.09 3.12,3.94 5.21,2.45 -0.85,-0.49 -1.93,-0.15 -2.44,-1.16 -1.14,-2.24 2.57,-3.92 4.51,-6.53z"/>
   <path class="fil16" d="M22.29 67.07c0.16,0.53 0.76,1.09 1.32,1.38 0.9,0.46 1.55,0.05 2.2,-0.28 0.49,-0.33 0.88,-0.62 1.49,-0.9 0.66,-0.3 1.38,-0.36 1.93,-0.75 -0.55,-1.12 -1.39,-1.68 -3.09,-1.6 -1.5,0.83 -2.46,0.99 -3.83,2.15z"/>
   <path class="fil7" d="M28.36 107.03c-0.77,0.18 -0.23,0.63 0,1.46 2.47,-0.34 3.6,-0.08 5.4,-1.44 2.07,-1.56 -0.61,-2.54 -2.36,-2.73 -0.06,1.94 0.25,1.89 -3.04,2.71z"/>
   <path class="fil3" d="M75.63 63.8c-0.7,-0.79 -2.24,-0.2 -3.26,-0.39 -0.32,-1.83 0.12,-2.68 1.04,-3.94 1.01,-1.39 1.45,-1.46 3.69,-1.35 -1.95,-1.1 -6.33,0.85 -7.77,3.29 0.36,0.77 0.59,0.61 1.17,1.17 0.6,0.58 0.37,0.62 0.76,1.48 0.66,-0.05 1.12,-0.3 2.03,-0.4 1.16,-0.12 1.36,0.1 2.33,0.14z"/>
   <path class="fil8" d="M53.54 108.19l-2.11 -0.03c-0.04,-1.1 0.14,-1.2 0.9,-1.59 -0.98,-0.04 -1.88,0.07 -2.75,-0.37 -0.95,-0.48 -0.6,-0.89 -0.98,-1.87 -1.55,-0.19 -2.36,0.46 -2.46,1.88 0.93,0.65 1.59,1.33 3.1,1.78 1.18,0.35 3.29,0.77 4.31,0.21z"/>
   <path class="fil8" d="M74.74 74.46l-0.94 0.74c-4.95,4.95 6.31,4.35 6.07,-1.74 -0.03,-0.76 -0.12,-1.05 -0.51,-1.43 0.42,1.82 0.59,2.69 -0.62,3.6 -0.86,0.66 -1.95,1.64 -3.59,1.28 -0.47,-0.76 -0.69,-1.28 -0.42,-2.45z"/>
   <path class="fil9" d="M45.62 20.24c0.05,0.02 0.14,-0.03 0.17,0.03 0.03,0.06 0.13,0.02 0.17,0.02 3.01,0.08 0.84,0.79 2.67,1.34 0.51,-1.93 -0.74,-3.5 -1.77,-4.46 -2.41,-2.24 -1.94,1.74 -1.24,3.07z"/>
   <path class="fil8" d="M28.36 108.49c-0.23,-0.83 -0.77,-1.28 -0,-1.46 -0.4,-0.29 -1.5,-0.41 -2.03,-0.52l0.23 -1.65c-1.45,0.2 -3.64,1.01 -2.85,2.45 0.65,1.19 3.05,1.06 4.66,1.18z"/>
   <path class="fil7" d="M52.32 106.57c-0.75,0.39 -0.93,0.49 -0.9,1.59l2.11 0.03c1.49,0.12 2.23,-0.21 2.89,-1.22 -0.11,-1.35 -1.3,-2.05 -2.75,-2.24l0.19 1.77 -1.55 0.07z"/>
   <path class="fil9" d="M52.44 38.53c-0,0.66 0.19,1.11 0.51,1.54 1.18,0.15 1.93,-0.19 2.94,-0.57 1.3,-0.48 1.29,-1 0.74,-2.28 -0.79,-0.08 -3.58,0.9 -4.2,1.31z"/>
   <path class="fil9" d="M62.67 31.58c1.63,0.9 1.77,-0.06 2.3,-1.39 0.61,-1.54 1.21,-2.4 -0.89,-2.71 -0.39,1.28 -1.4,2.92 -1.41,4.1z"/>
   <path class="fil12" d="M46.23 113.83c0.64,0.28 1.73,0.64 2.46,0.45 0.16,-1.52 0.8,-2.52 -3.4,-2.6 -0.01,1.23 0.01,1.75 0.93,2.15z"/>
   <path class="fil7" d="M27.16 104.16c-0.09,0.82 -0.08,1.39 0.29,2.08 2.9,0.36 3.23,-0.31 3.1,-1.88l-3.39 -0.2z"/>
   <path class="fil7" d="M31.28 113.15c-0.31,1.8 0.31,1.72 1.7,1.32 1.58,-0.45 1.59,-0.46 1.61,-2.25 -1.08,0.13 -2.63,0.46 -3.31,0.93z"/>
   <path class="fil7" d="M49.6 104.52c-0.13,1.89 1.71,1.71 3.49,1.58l-0.03 -1.8 -3.46 0.22z"/>
   <path class="fil17" d="M41.07 12.99c-0.17,1.08 -0.24,1.29 0.37,2.05 0.69,-0.43 0.49,-1.04 1.12,-1.54 1.02,-0.81 1.76,0.12 1.83,-0.76 -0.61,-0.24 -0.74,-0.69 -1.73,-0.68 -1.16,0.01 -1.02,0.49 -1.59,0.93z"/>
   <path class="fil18" d="M55.83 8.98c-0.03,0.03 -0.93,0.29 0.54,1.34 0.42,0.3 1.41,0.75 1.9,0.26 0.76,-0.76 -1.54,-2.49 -2.43,-1.6z"/>
   <path class="fil18" d="M66.91 59.5c0.46,-1.6 -0.58,-2.36 -2.1,-2.1 -0.15,1.19 0.83,2.51 2.1,2.1z"/>
  </g>
 </g>
</svg>
