<?xml version="1.0" encoding="UTF-8"?>
<!DOCTYPE svg PUBLIC "-//W3C//DTD SVG 1.1//EN" "http://www.w3.org/Graphics/SVG/1.1/DTD/svg11.dtd">
<!-- Creator: CorelDRAW -->
<svg xmlns="http://www.w3.org/2000/svg" xml:space="preserve" width="20.4063mm" height="15.4328mm" version="1.1" style="shape-rendering:geometricPrecision; text-rendering:geometricPrecision; image-rendering:optimizeQuality; fill-rule:evenodd; clip-rule:evenodd"
viewBox="0 0 92.61 70.04"
 xmlns:xlink="http://www.w3.org/1999/xlink"
 xmlns:xodm="http://www.corel.com/coreldraw/odm/2003">
 <defs>
  <style type="text/css">
   <![CDATA[
    .fil4 {fill:#030303}
    .fil29 {fill:#121212}
    .fil19 {fill:#161615}
    .fil17 {fill:#181705}
    .fil37 {fill:#252525}
    .fil16 {fill:#2E2E2E}
    .fil36 {fill:#555555}
    .fil26 {fill:#626262}
    .fil38 {fill:#6E6E6E}
    .fil30 {fill:#797979}
    .fil31 {fill:#7C7E73}
    .fil35 {fill:#7D7D7D}
    .fil2 {fill:#82081C}
    .fil7 {fill:#873030}
    .fil14 {fill:#891729}
    .fil10 {fill:#8E8E8E}
    .fil18 {fill:#999999}
    .fil23 {fill:#A6A6A6}
    .fil32 {fill:#AB5966}
    .fil22 {fill:#B36974}
    .fil34 {fill:#BC7A85}
    .fil21 {fill:#C1C1C1}
    .fil28 {fill:#C48B94}
    .fil33 {fill:#CD9CA3}
    .fil0 {fill:#D61F20}
    .fil5 {fill:#D71F20}
    .fil27 {fill:#E87E80}
    .fil12 {fill:#EEEEEE}
    .fil11 {fill:#F1F1F1}
    .fil24 {fill:#F2F2F2}
    .fil13 {fill:#F4F4F4}
    .fil25 {fill:#F6F6F6}
    .fil20 {fill:#F9F9F9}
    .fil15 {fill:#FAFAFA}
    .fil8 {fill:#FAFCE4}
    .fil6 {fill:#FBFBFB}
    .fil9 {fill:#FCFCFC}
    .fil3 {fill:#FDF516}
    .fil1 {fill:#FEFEFE}
   ]]>
  </style>
 </defs>
 <g id="Camada_x0020_1">
  <metadata id="CorelCorpID_0Corel-Layer"/>
  <g id="_2416641966000">
   <path class="fil0" d="M16.55 12.61c0.75,-0.89 4.34,-3.18 5.81,-4.28 0.71,-0.53 1.33,-1.14 1.89,-1.04 -0.54,0.66 -2.9,2.17 -3.77,2.79 -0.77,0.54 -3.09,2.45 -3.93,2.53zm22.77 1.52c0.77,-0.61 3.09,-1.19 4.37,-0.99 -0.3,0.23 -0.08,0.14 -0.58,0.37 -0.37,0.17 -0.06,0.05 -0.46,0.16 -0.92,0.26 -2.33,0.6 -3.33,0.46zm-14.73 39.89c0.41,0.56 1.11,1.97 1.78,2.41l0.38 -0.44c0.32,-1.67 -0.84,-2.48 -0.6,-5.66 0.32,-4.21 -0.25,-4.78 -1.96,-8.21 -0.45,-0.9 -0.62,-1.63 -1.02,-2.53 -0.78,-1.72 -1.35,-3.13 -1.11,-5.52 0.36,-3.58 2.48,-9.91 5.42,-12.39 2.04,-1.72 5.21,-3.48 7.58,-4.78 0.52,-0.28 2.04,-1.28 2.54,-1.25 -0.96,1.88 -7.68,4.18 -8.49,6.43 1.79,1.9 2.66,2.59 3.6,4.6 0.59,1.25 1.27,3.97 2.99,4.93 0.11,-2.13 -3.41,-9.05 4.02,-14.09 3.69,-2.5 4.59,-1.11 8.92,2.89 3.75,3.47 3.93,3.68 8,7.03 0.67,0.55 1.26,1.36 1.93,1.76 1.52,0.89 1.77,0.05 2.68,-0.02 0.03,-0.45 -0.02,-0.65 0.42,-0.95 -0.11,-0.5 -0.29,-0.76 -0.54,-1.17l-0.47 -0.84c-0.01,-0.03 -0.05,-0.07 -0.04,-0.13 0.01,-0.07 -0.03,-0.09 -0.04,-0.14 2.87,2 2.49,9.01 4.02,13.24 0.66,1.83 2.51,2.52 3.04,3.71 -0.66,1.77 -2.52,3.37 -3.41,5.84 -0.82,2.29 0.01,3.53 0.24,5.42 0.22,1.88 -0.32,4.22 -2.28,5.08 -2.68,1.17 -3.05,-0.93 -5.27,-2.05 -0.02,1.08 3.21,7.12 8.7,2.9 3.43,-2.64 3.75,-7.08 5.09,-10.92 0.68,-1.96 1.8,-3.99 1.9,-5.96 0.08,-1.71 -0.29,-3.54 -0.33,-5.19 -0.04,-1.86 -0.29,-3.19 0.06,-5.31 0.21,-1.25 0.58,-1.84 1,-3.03 0.36,-1.01 0.11,-1.95 0.68,-2.85 2.26,-0.42 2.93,0.25 4.46,0.48 0.45,0.07 0.92,0.03 1.35,0.17 1.49,0.47 2.9,2.69 3.59,3.59 1.22,1.6 1.6,2.42 2.1,4.19 0.39,1.36 0.75,2.97 0.61,4.72 -0.14,1.82 -0.48,3.64 -1.51,5.45 -0.95,1.67 -2.36,3.89 -2.83,5.73 -0.77,3.04 0.5,9.35 3.63,6.97 -0.12,-0.62 -0.33,-0.64 -0.69,-1.16 -2.22,-3.29 0.42,-5.21 2.75,-7.78 2.36,-2.6 3.96,-7.51 4.59,-10.87 1.58,-8.42 -0.6,-12.76 -3.35,-18.42 -1.66,-3.43 -1.72,-5.62 -5.67,-7.86 -5.54,-3.14 -13.36,-3.05 -18.31,-6.37 -6.37,-4.27 -8.86,-5.53 -16.84,-5.68 -3.9,-0.08 -6.86,0.73 -10.44,1.01 -3.58,0.28 -7.34,-0.41 -10.79,0.23 -5.33,0.99 -9.28,6.81 -10.47,11.71 -0.45,1.84 -1.22,3.55 -1.66,5.42 -0.87,3.65 -1.26,6.85 -1.22,10.3 0.11,9.85 5.45,10.67 7.59,16.93 0.47,1.38 1.09,3.08 1.68,4.34 0.38,0.81 1.94,3.42 2.01,4.09z"/>
   <path class="fil1" d="M37.81 36.33c0.61,-0.43 2.91,-0.62 3.89,-0.28 0.68,2.52 -3.46,1.75 -3.89,0.28zm-6.55 -6.36c-0.62,0.01 -0.74,-0.3 -0.73,-0.86 0.65,0.38 0.68,0.38 0.73,0.86zm-0.91 1.07c0.3,0.54 0.67,2.28 -0.2,2.96 -0.37,-0.4 -0.19,-0.64 -0.13,-1.53 0.13,-1.92 -1.23,-2.04 -0.71,-4.28 0.06,0.95 0.58,2.02 1.04,2.85zm27.15 -0.83c0.35,-0.36 0.09,-0.31 0.75,-0.2 0.44,0.07 0.36,0.09 0.68,0.25 -0.43,0.39 -0.93,0.16 -1.43,-0.05zm-17.97 -6.54c0.4,-0.72 3.16,-2.51 5.18,-0.86 0.71,0.58 3.34,3.27 3.33,3.93 -4.24,-2.92 -2.93,-5.69 -8.51,-3.07zm2.71 -3.39c-0.35,0.27 0.52,0.3 -0.65,0.12 0.14,-0.21 0.05,-0.18 0.31,-0.36 0.37,-0.25 -0.01,-0.03 0.42,-0.14 0.92,0.14 2.76,0.45 3.18,1.29l-3.27 -0.9zm3.3 43.95c0.18,-0.27 0.36,-0.54 0.59,-0.78 0.1,-0.1 0.14,-0.16 0.27,-0.24 0.51,-0.31 0.13,-0.1 0.55,-0.17l-1.09 1.25 0.63 0.1c1.01,0.19 2.58,-0.08 2.54,-1.32 -0.01,-0.41 -0.41,-2.37 -0.55,-2.89 -1,-0.15 -4.7,0.84 -7.28,-2.77 -1.5,-2.09 -1.68,-3.69 -2.19,-6.33 -0.44,-2.24 -0.86,-4.33 -1.21,-6.55 -0.48,-3.1 -0.31,-3.9 -1.26,-6.56 -0.49,1.31 0.85,9.01 0.87,10.48l0.24 1.42c-0.44,-0.63 -0.46,-0.7 -0.44,-1.4 -0.55,-0.57 -0.86,-4.26 -1,-5.43l-0.21 -4.38c0,-0.65 0.12,-1.05 -0.33,-1.42 -1.24,0.21 -1.34,2.23 -1.54,3.11 0.17,0.31 0.04,-0.16 0.2,0.48 0.06,0.24 0.06,0.39 0.09,0.57 0.09,0.48 0.09,0.61 0.12,1.1 -0.49,-0.59 -0.64,-1.39 -0.6,-2.08 -0.22,-0.85 -0.45,-2.15 -0.02,-3.22 0.36,-0.23 1.25,-0.62 1.79,-0.56 0.68,0.08 1.18,0.86 1.52,1.22 1.45,1.57 4.87,4.17 7.1,4.92 1.55,0.52 3,0.67 4.61,1.36 0.47,0.21 0.74,0.36 1.14,0.62 0.05,0.03 0.48,0.31 0.49,0.31 0.63,0.25 0.24,0.24 0.68,0.01 -0.39,-0.34 -1.72,-2.78 -1.8,-3.35l1.11 -0.91c-1.64,-0.18 -4.15,2.13 -8.41,-0.04l0.63 -0c0.03,0 0.37,0.07 0.42,0.08 5.63,1.14 8.12,-3.15 12.03,2.14 -0.14,0.02 0.05,0.29 -0.65,-0.21 -0.08,-0.06 -0.46,-0.45 -0.54,-0.53 -2.58,-2.58 -3.94,-0.44 -3.94,-0.41 0.35,1.35 3.46,2.9 4.88,4.19 2.45,2.23 2.16,4.34 4.45,3.69 0.45,-0.88 -0.72,-5.04 -0.88,-6.3 -0.24,-1.87 0.05,-4.85 -0.62,-6.4l-2.95 -0.95c-0.11,0.74 0.77,1.9 0.52,3.28 -1.79,-0.46 -3.42,-1.59 -5.13,-1.74 -1.91,-0.16 -2.34,0.26 -4.45,-0.61 -0.47,0.16 -0.52,0.23 -0.92,0.47 -0.13,-0.29 -0.35,0.13 -0.03,-0.82 0.25,-0.73 0.84,-0.59 1.35,-1.53l0.29 -0.33c-0.12,-0.18 0.45,-0.12 -0.31,-0.16 -0.95,-0.29 -2.17,0.2 -3.37,-0.09 0.56,-0.44 1.99,-0.66 2.95,-0.34 0.05,-0.01 0.1,-0.02 0.14,-0.02l0.97 0.18c0.28,-0.67 0.53,-0.84 0.09,-1.33 -0.17,-0.19 -0.49,-0.42 -0.77,-0.48 -0.95,-0.23 -0.2,-0.25 -0.71,0.12 0.06,0.51 -0.39,0.18 0.51,0.57 0.07,-0.01 -0.06,-0.24 0.6,0.01 0.57,0.22 0.13,0.08 0.29,0.36l-0.57 0.17c-0.5,-0.23 -1.1,-0.24 -1.61,-0.3 -1.17,-0.14 -0.99,-0.39 -1.73,-0.59 -0.29,0.26 -0.26,0.25 -0.27,0.57 0.47,0.25 0.42,0.1 0.66,0.43 -1.8,0.36 -0.19,-0.63 -1.63,-0.26 -0.02,0.55 0.66,1.21 1.35,1.43 0.63,0.2 1.36,0.05 2.04,0.06 0.31,-0.08 -0.29,-0.32 0.59,-0.01 -0.29,0.27 -0.05,0.08 -0.33,0.24l-0.27 0.07c-0.53,0.34 -1.04,0.41 -1.89,0.12 -3.26,-1.12 -0.33,-2.36 -3.61,-2.99 -1.1,-0.21 -1.09,-0.58 -0.71,-1.43 0.12,-0.26 0.31,-0.59 0.44,-0.87 0.29,-0.58 0.53,-1.27 1.07,-1.63 1.63,-1.09 2.85,0.59 3.1,0.69l1.04 0.65c0.68,0.65 0.12,0.04 0.31,0.54 0.23,0.75 0.95,0.64 1.87,0.88 1.03,0.53 1.46,1.18 2.82,1.68 -0.28,-0.6 -1.73,-2.05 -2.26,-2.69 -5.76,-6.91 -4.8,-5.37 -7.86,-3.94 -0.25,0.12 -0.15,0.08 -0.39,0.14 0.71,-0.94 1.76,-1.42 2.65,-1.67 2.92,-0.84 6.3,6.92 11.87,9.81 2.48,1.29 4,1.94 5.93,0.69 0.4,-0.26 0.15,-0.25 0.54,-0.29 0.67,-0.38 0.58,-0.11 1.11,-0.45 0.13,-0.54 0.16,-1.09 -0.14,-1.62l-1.16 0.69c0.74,0.44 0.52,-0.06 0.97,0.5 -0.21,0.16 -0.26,0.37 -0.83,0.18l-2.65 -1.49c-0.9,-0.74 -1.54,-1.68 -1.76,-2.48 1,0.61 1.38,1.42 2.22,1.96 0.92,0.6 2.43,0.45 2.51,-0.26 -0.3,-0.85 -1.1,-0.73 -2.15,-1.18 0.5,-0.15 0.81,-0.21 1.28,0.14l0.39 -0.36 -0.68 -0.76c-0.44,-0.4 -0.49,-0.16 -0.65,-0.57 -4.11,-1.44 -13.19,-12.35 -16.04,-12.38 -1.23,-0.01 -3.08,1.46 -4,2.38 -5.75,5.77 -1.8,11.4 -1.72,13.3 -3.93,-1.5 -4.29,-6.79 -5.97,-8.24 0.11,0.68 0.45,1.31 0.68,2.01 0.21,0.66 0.38,1.32 0.56,1.97 0.58,2.13 1.45,3.26 0.08,3.59l0.03 -0.21c0.18,-0.65 0.38,-0.27 0.07,-0.91 -0.95,-1.97 -1.89,-6.72 -3.1,-7.84 0.01,2.08 1.49,4.24 0.75,4.85 -0.72,-0.68 -0.12,-1.13 -0.76,-2.43 -0.95,3.53 -0.52,4.93 -0.55,7.43 -0.01,0.76 -0.16,1.77 -0.12,2.44 1.96,0.33 2.28,-0.31 3.43,-0.82 -1.01,2.51 -1.06,2.32 -0.62,4.66 0.28,1.45 0.72,2.85 1.3,4 0.79,1.59 2.52,6.11 2.97,7.85 0.69,2.64 1.27,5.98 2.4,8.06 1.7,3.15 2.5,4.53 7.53,5.09z"/>
   <path class="fil1" d="M3.95 65.89c0.94,-0.86 1.49,-0.59 2.5,-2.06 0.47,0.45 0.37,0.72 0.96,1.13 0.51,0.36 1.15,0.47 1.74,0.79 -0.47,0.27 -0.55,0.19 -1.24,0.19 -1.18,0 -2.99,0.14 -3.96,-0.06zm0.4 -4.92c0.05,-0.31 -0.74,-2.46 1.94,-2.59 1.89,-0.09 1.68,1.66 1.95,2.53 1.01,-0.01 1.54,-0.32 2.15,0.83 0.39,0.74 0.24,1.38 -0.43,2.3 -1.22,0.31 -1.7,0.08 -3.22,-0.38 -1.24,-0.37 -1.42,0.57 -2.76,0.61 -1.3,0.04 -1.94,-0.96 -1.86,-1.89 0.14,-1.75 1.25,-1.24 2.24,-1.41zm-3.88 6.1l1.23 0.53c-0.1,0.93 -0.34,0.72 -1.12,0.76 0.81,1.11 0.23,0.62 0.49,1.67l11.46 -0.17c0.14,-1.61 -0.13,-4.26 -0.19,-6.04 -0.11,-2.94 -1.83,-5.16 -3.4,-7.82 -0.48,-0.81 -0.77,-1.78 -2.36,-1.76 -1.23,0.01 -5.77,-0.07 -6.58,0.23l0.47 12.61z"/>
   <path class="fil1" d="M14.44 61.77c0.72,0.39 1.08,1.13 1.07,1.93 -0.76,-0.53 -0.2,-0.28 -0.64,-0.89 -0.14,-0.19 -0.24,-0.2 -0.34,-0.35 -0.45,-0.7 -0.05,-0.08 -0.08,-0.68zm-5.67 -11.66l-0.76 -0.36 -0.87 0.12c0.03,0.72 3.24,6.18 3.84,7.21l3.16 5.38c0.32,0.57 0.49,1.23 1.18,1.62 0.95,-0.02 2.33,-0.43 2.77,-1.52 0.08,-1.52 1.18,-2.53 2.35,-3.11 2.01,-1 3.53,-0.27 3.98,-0.47l0.06 -0.97c-0.1,-0.64 0.01,-0.62 -0.22,-1.12 -1.35,-0.5 -3.89,-0.49 -5.47,-0.83l-0.28 2.27 -4.99 -2.15 1.05 -4.78 3.5 1.64c0.59,0.11 0.17,0.18 0.64,-0.04 0.46,-2.02 0.36,-3.31 0.45,-5.1 -0.98,-0.23 -0.86,0.45 -1.59,-0.28 0.52,-0.35 0.52,-0.07 1.23,-0.2 -0.19,-1.1 -1.17,-1.61 -2.39,-1.23 -4.59,1.45 -2.95,2.19 -4.91,3.32 -0.64,0.37 -2.02,0.97 -2.75,0.61z"/>
   <path class="fil2" d="M42.6 50.45l1.32 0.59c0.09,0.84 -0.69,3.6 -0.56,5.6 0.04,0.67 0.3,1.32 0.2,1.85 -1.59,-0.86 -1.42,-2.1 -1.44,-3.7 -0.01,-0.88 0.08,-3.49 0.48,-4.34zm6.65 2.06c0.48,-0.91 2.91,-4.17 3.69,-4.61 0.35,0.43 0.32,0.47 0.04,1.09l-1.85 3.66c-0.67,0.1 -1.23,0.12 -1.89,-0.14zm1.35 -5.73c0.65,-0.16 1.25,0.1 1.72,0.41 0.04,0.5 0.01,0.46 -0.24,0.94l-0.57 0.65c-0.49,0.97 -2.33,3.26 -3.1,3.73l-1.7 -0.68c0.14,-0.38 1.54,-2.21 1.9,-2.74 0.54,-0.8 1.19,-2.15 1.99,-2.32zm-6.02 4.01c0.33,-0.91 1.47,-2.39 2.04,-3.29 0.97,-1.52 1.18,-1.79 3.14,-1.18 -0.73,1.53 -2.43,4.04 -3.45,5.32l-1.73 -0.85zm-1.05 -6.4c0.37,-0.14 -0.22,-0.22 0.63,-0.13 0.55,0.06 0.37,0.12 0.63,0.28 0.03,0.53 0.05,0.63 -0.49,0.77 -0.42,0.95 -1.26,2.07 -1.86,3.05 -0.77,1.25 -0.35,1.7 -0.48,2.99 -0.28,2.81 0.01,5.07 -0.05,5.68 -2.44,-1.32 -0.92,-8.84 -0.54,-9.67 0.3,-0.66 1.45,-2.91 2.15,-2.98zm3.19 0.81c0.21,-0.06 0.04,-0.06 0.47,-0.07 0.59,-0.02 -0.14,-0.05 0.35,0.07 0.01,0.28 0.36,-0.2 -0.1,0.6 -0.31,0.53 -0.34,0.25 -0.42,0.28l-2.79 4.49c-0.69,-0.18 -1.28,-0.37 -1.8,-0.82 0.19,-0.91 1.15,-2.52 1.67,-3.31 0.72,-1.08 1.39,-1.46 2.61,-1.24zm-8.65 -4.79l3.01 2.58c-0.56,1.65 -2.04,3.59 -1.59,4.3 0.79,-0.53 1.25,-3.05 2.06,-4.05l1.23 0.56c-0.32,1.39 -1.95,3.22 -2.18,4.43 -0.21,1.09 0.02,2.55 -0.38,3.85 0.14,0.28 0.13,0.01 0.14,0.39 0,0.25 -0.04,0.24 -0.13,0.46 -0.65,-0.59 -0.29,-0.24 -0.31,-0.64 -0.08,-1.17 -1.82,-10.9 -2.24,-11.7 -0.15,-0.32 -0.55,0.23 0,-0.61l0.33 0.32c0.03,-0.03 0.05,0.08 0.07,0.12zm-4.15 0.01l0.2 -0.05c0.2,-0.88 0.3,-2.9 1.54,-3.11 0.45,0.37 0.33,0.77 0.33,1.42l0.21 4.38c0.14,1.17 0.45,4.86 1,5.43l0.19 -0.02c-0.02,-1.47 -1.35,-9.18 -0.87,-10.48 0.95,2.66 0.77,3.46 1.26,6.56 0.35,2.22 0.77,4.32 1.21,6.55 0.52,2.64 0.7,4.23 2.19,6.33 2.58,3.61 6.28,2.61 7.28,2.77l0.31 -0.83c-4.06,0.21 -4.77,0.26 -4.98,-2.15 -0.09,-1.07 -0.09,-4.86 0.54,-5.83 0.7,0.12 1.15,0.28 1.49,0.67 0.01,0.06 0.08,0.08 0.05,0.17l0.31 -0.12c0.76,0.2 1.76,0.52 2.21,0.93l-0.11 0.81c-0.49,0.87 -1.27,4.07 -1.09,4.94 0.1,-0.05 0.26,0.07 0.48,-0.64 0.04,-0.12 0.11,-0.62 0.14,-0.81 0.19,-1.06 0.78,-3.82 1.24,-4.59l1.94 0.45 -0.09 0.54 2.11 -2.87c-0.34,-0.14 -0.24,-0.05 -0.4,-0.24 0.32,-0.7 0.43,-0.67 0.82,-1.25 0.44,-0.65 0.33,-0.84 0.63,-1.51 0.45,0.47 0.05,0.31 0.59,0.74 0.9,-1.59 -1.01,-1.57 -2.37,-2.19 -0.58,-0.27 -3.06,-1.91 -3.39,-2.26 -1.61,-0.69 -3.06,-0.83 -4.61,-1.36 -2.22,-0.75 -5.65,-3.35 -7.1,-4.92 -0.34,-0.37 -0.84,-1.15 -1.52,-1.22 -0.54,-0.06 -1.43,0.33 -1.79,0.56 -0.42,1.06 -0.19,2.36 0.02,3.22z"/>
   <path class="fil1" d="M24.2 39.71c0.05,0.47 -0.11,0.2 0.12,0.83l0.78 1.89c0.41,0.92 0.71,1.9 1.15,2.63 0.04,-0.02 0.09,-0.05 0.12,-0.07l0.83 -0.32c0.73,0.95 1.29,1.77 2.1,2.78 0.83,1.03 1.09,2.11 -0.44,2.86l-1.95 -0.55c-0.71,1.31 1.36,1.52 2.21,2.42 -0.59,0.26 -1.57,-0.28 -2.37,-0.36 -0.11,0.57 0.52,3.59 0.8,4.21 0.85,0.26 3.25,0.53 4.02,0.37 0.36,-1.07 0.53,-3.08 0.67,-4.22 0.48,-4.07 1.18,-4.79 0.08,-7.97 -1.75,-5.07 -0.28,-3.06 -8.11,-4.49z"/>
   <path class="fil1" d="M72.7 36.05c1.01,-0.95 1.26,-3.82 2.79,-4.62 0.78,-0.41 1.8,-0.11 2.3,0.69 0.33,0.54 0.19,1.43 0.09,2.13 1.12,0.17 1.93,-0.08 1.99,1.35 0.11,2.74 -4.46,1.45 -6.31,1.29l-0.6 0.02c-0.01,-0.04 -0.11,0.01 -0.16,0.03 0.03,0.89 0.19,4.61 0.44,5.2 0.52,-0.09 8.82,-4.42 9.15,-4.8l0.47 -0.99c0.54,-0.08 0.46,-0.11 1,-0.4 0.75,0.29 0.37,0.36 0.95,0.14 -0.09,-0.97 -4.9,-8.12 -5.44,-8.48 -0.74,0.18 -4.35,2.03 -5.1,2.57 -1.57,1.13 -1.38,4.84 -1.56,5.88z"/>
   <path class="fil3" d="M84.22 62.22c0.5,0.61 1.35,2.81 1.34,3.34 -0.88,-0.48 -1.64,-2.37 -1.34,-3.34zm5.45 2.59c1.57,-1.9 0.6,-4.28 -1.06,-5.38 -2.16,-1.42 -4.88,-0.87 -6.13,0.75 -3.24,4.2 3.8,8.75 7.19,4.63z"/>
   <path class="fil3" d="M22.29 66.37c-0.71,-0.51 -0.96,-0.99 -1.16,-1.58 -0.15,-0.42 -0.4,-1.36 0.01,-1.7 0.43,0.3 0.34,0.12 0.28,0.88 -0.12,1.67 0.83,1.16 0.88,2.4zm-4.2 -3.81c0.25,-0.24 0.03,-0.13 0.33,-0.2 -0.16,1.4 0.25,2.08 1.2,3.09 1.1,1.17 2.01,1.39 3.56,1.11 4.68,-0.84 3.07,-4.02 2.71,-5.33 -0.54,-0.69 -1.26,-1.36 -1.48,-2.25 -0.45,0.21 -1.97,-0.53 -3.98,0.47 -1.17,0.58 -2.27,1.58 -2.35,3.11z"/>
   <path class="fil0" d="M8.56 42.88c0.9,-0.11 1.78,0.04 2.86,0.57 0.58,-1.28 3.68,-3.15 4.28,-4.68 -0.66,-0.76 -1.35,-1.98 -1.8,-2.83 -1.1,-2.07 -0.6,-2.21 -0.96,-3.01 -0.59,0.96 -0.88,2.2 -1.56,3.09 -0.75,1 -4.1,1.91 -3.55,5.81 0.14,0.96 0.26,0.41 0.74,1.06z"/>
   <path class="fil3" d="M8.56 42.88c-2.38,0.57 -3.99,1.82 -2.92,4.54 1.49,3.75 3.94,0.97 3.97,-0.21 1.29,0.61 -0.98,2.15 -1.61,2.55l0.76 0.36c1.04,-0.58 2.75,0.02 4,-2.67 0.81,-1.77 -0.19,-2.83 -1.34,-3.99 -1.08,-0.53 -1.96,-0.68 -2.86,-0.57z"/>
   <path class="fil3" d="M63.72 55.4c0.26,-1.68 -0.57,-3.01 -2.63,-3.95 -0.47,1.44 0.72,2.29 -0.52,4.48 -0.24,-0.81 0.66,-2.46 -0.02,-4.32 -3.95,-1.09 -6.59,5.26 -0.84,6.59 1.49,0.34 3.74,-1.01 4.02,-2.79z"/>
   <path class="fil1" d="M48.31 53.84l-0.04 -0.8 -1.98 -0.75 -0.33 1c-1.05,7.25 0.28,3.88 0.17,5.71 -1.44,-0.39 -1.07,-1.31 -1.01,-2.5 0.04,-0.85 0.13,-2.3 0.47,-3.16l0.24 -1.29c-0.34,-0.39 -0.79,-0.56 -1.49,-0.67 -0.64,0.97 -0.64,4.76 -0.54,5.83 0.21,2.41 0.92,2.36 4.98,2.15 0.36,-0.99 -0.27,-1.12 0.5,-2.7 0.48,-0.99 1.03,-2.01 1.65,-2.93l0.09 -0.54 -1.94 -0.45c-0.46,0.78 -1.05,3.53 -1.24,4.59 -0.03,0.18 -0.1,0.69 -0.14,0.81 -0.22,0.71 -0.38,0.6 -0.48,0.64 -0.18,-0.88 0.6,-4.07 1.09,-4.94z"/>
   <path class="fil4" d="M4.35 60.98c-0.99,0.16 -2.1,-0.34 -2.24,1.41 -0.08,0.93 0.56,1.93 1.86,1.89 1.34,-0.04 1.52,-0.98 2.76,-0.61 1.51,0.46 2,0.69 3.22,0.38 0.68,-0.92 0.82,-1.55 0.43,-2.3 -0.61,-1.15 -1.14,-0.84 -2.15,-0.83 -0.27,-0.87 -0.06,-2.63 -1.95,-2.53 -2.68,0.13 -1.89,2.28 -1.94,2.59z"/>
   <path class="fil5" d="M72.7 36.05l0.09 0.87c0.05,-0.02 0.15,-0.07 0.16,-0.03l0.6 -0.02c1.86,0.16 6.43,1.45 6.31,-1.29 -0.06,-1.42 -0.87,-1.18 -1.99,-1.35 0.1,-0.7 0.24,-1.59 -0.09,-2.13 -0.5,-0.8 -1.52,-1.1 -2.3,-0.69 -1.53,0.8 -1.78,3.67 -2.79,4.62z"/>
   <path class="fil0" d="M18.8 56.06c-0.51,-0.58 -0.28,-0.76 -0.18,-1.59 0.05,-0.39 0.08,-1.09 0.09,-1.46 -0.48,0.22 -0.06,0.14 -0.64,0.04l-3.5 -1.64 -1.05 4.78 4.99 2.15 0.28 -2.27z"/>
   <path class="fil1" d="M39.92 52.27c0.3,-0.02 0.1,0.29 0.31,-0.21 0.41,-1.29 0.17,-2.76 0.38,-3.85 0.23,-1.21 1.86,-3.03 2.18,-4.43l-1.23 -0.56c-0.81,1 -1.27,3.52 -2.06,4.05 -0.45,-0.7 1.03,-2.65 1.59,-4.3l-3.01 -2.58c-0.39,-0.15 -0.25,-0.19 -0.41,0.17 0.43,0.8 2.16,10.53 2.24,11.7z"/>
   <path class="fil1" d="M24.47 55.74c0.44,-0.52 0.15,-0.84 -0.03,-1.45 -1.21,-1.73 -3.62,-6.32 -3.91,-6.58 -0.21,0.91 -0.15,1.93 -0.26,2.93 -0.04,0.36 -0.12,1 -0.04,1.35 0.19,0.86 0.39,0.36 0.9,0.99 -0.55,0.38 -0.17,0.09 -1.01,0.12 -0.13,0.59 -0.09,1.34 -0.06,1.84 1.4,0.47 3.08,0.24 4.41,0.82z"/>
   <path class="fil1" d="M44.32 45.31c0.01,-0.01 0.21,-0.32 0.22,-0.33 0.13,-0.29 0.06,-0.2 0.06,-0.43l-1.06 -0.17c-0.7,0.08 -1.84,2.32 -2.15,2.98 -0.38,0.83 -1.91,8.35 0.54,9.67 0.06,-0.61 -0.23,-2.87 0.05,-5.68 0.13,-1.29 -0.29,-1.75 0.48,-2.99 0.6,-0.97 1.44,-2.09 1.86,-3.05z"/>
   <path class="fil1" d="M51.52 48.79l0.75 -1.51 -1.66 -0.49c-0.8,0.17 -1.45,1.52 -1.99,2.32 -0.36,0.53 -1.76,2.36 -1.9,2.74l1.7 0.68c0.77,-0.47 2.61,-2.77 3.1,-3.73z"/>
   <path class="fil1" d="M47.03 46.07l0.5 -0.71 -0.8 -0.16c-1.23,-0.22 -1.89,0.16 -2.61,1.24 -0.52,0.78 -1.48,2.4 -1.67,3.31 0.52,0.45 1.11,0.64 1.8,0.82l2.79 -4.49z"/>
   <path class="fil1" d="M44.59 50.79l1.73 0.85c1.02,-1.28 2.73,-3.79 3.45,-5.32 -1.96,-0.61 -2.17,-0.34 -3.14,1.18 -0.57,0.9 -1.72,2.38 -2.04,3.29z"/>
   <path class="fil1" d="M58.82 38.58c-0.15,0.63 -0.07,2.03 -0.07,2.72 0,0.77 -0.21,1.8 0.2,2.11 1.25,0.94 0.7,-1.52 0.7,-1.52 1.27,0.58 2.09,1.23 3.32,0.9 -0.11,-0.49 0.05,-0.1 -0.34,-0.59 -1.79,-2.25 -0.97,-2.26 -3.08,-3.84l-0.65 -0.3 -0.08 0.52z"/>
   <path class="fil6" d="M52.58 36.2c-0.8,0.23 0.06,0.15 -0.87,0.07 0.49,-0.44 0.32,-0.21 0.52,-0.4 0.11,-0.1 0.09,-0.03 0.26,-0.36 -0.21,-0.35 -3.98,-2.83 -5.29,-0.11 1.03,0.08 4.3,0.22 4.86,1.38 -1.57,0.38 -4.09,-1.8 -5.88,-0.02 1.19,0.3 2.29,0.26 3.38,0.29 0.64,0.02 1.04,0 1.63,0.05l1.24 0.18c0.35,0.02 0.2,0.03 0.46,-0.03l-0.3 -1.05z"/>
   <path class="fil1" d="M43.92 51.04l-1.32 -0.59c-0.4,0.85 -0.49,3.46 -0.48,4.34 0.01,1.6 -0.16,2.84 1.44,3.7 0.1,-0.53 -0.16,-1.18 -0.2,-1.85 -0.13,-2.01 0.66,-4.76 0.56,-5.6z"/>
   <path class="fil7" d="M24.44 54.29c0.19,0.62 0.48,0.93 0.03,1.45 0.43,0.3 0.35,0.56 0.36,1.1 0,0.13 -0.01,0.66 -0.04,0.73 -0.26,0.9 -0.04,0.29 -0.31,0.43l-0.06 0.97c0.22,0.89 0.94,1.55 1.48,2.25 0.19,-0.77 0.4,-0.7 0.43,-1.41 0.02,-0.39 -0.06,-0.69 0,-1.22 0.12,-1.16 0.62,-2.03 0.43,-2.59l-0.38 0.44c-0.67,-0.44 -1.38,-1.85 -1.78,-2.41l-0.16 0.26z"/>
   <path class="fil8" d="M61.25 29.21l-0.04 0.51 -1.34 -0.01c0.06,0.46 -0.68,0.12 0.44,0.48 0.08,0.03 0.44,0.03 0.78,0.13 0.24,0.66 0.37,1.02 0.36,1.78 0.28,0.85 0.23,1.64 0.41,2.68 0.15,0.87 0.54,1.74 0.67,2.68 -0.04,0.01 -0.1,-0.02 -0.14,0.03 -0.2,0.22 -0.65,-0.27 -1.1,0.52 0.38,0.37 1.33,0.42 1.87,0.41 0.37,-0 0.15,0.03 0.39,-0.04 -1.28,-3.59 -1.31,-8.03 -1.87,-10.12 -0.44,0.3 -0.39,0.5 -0.42,0.95z"/>
   <path class="fil9" d="M49.26 52.51c0.66,0.26 1.21,0.23 1.89,0.14l1.85 -3.66c0.27,-0.62 0.31,-0.65 -0.04,-1.09 -0.78,0.44 -3.21,3.7 -3.69,4.61z"/>
   <path class="fil10" d="M53.04 50.85c0.73,-0.85 2.47,-2.4 2.86,-3.25 -0.57,-0.68 -1.09,-0.96 -2.21,-1.26 -1.13,-0.31 -1.85,-0.44 -2.45,-1.25 -0.44,0.23 -0.05,0.24 -0.68,-0.01 -0.01,-0 -0.44,-0.28 -0.49,-0.31 -0.4,-0.26 -0.68,-0.41 -1.14,-0.62 0.33,0.34 2.81,1.99 3.39,2.26 1.36,0.62 3.27,0.6 2.37,2.19 -0.54,-0.42 -0.14,-0.26 -0.59,-0.74 -0.3,0.67 -0.19,0.85 -0.63,1.51 -0.39,0.57 -0.5,0.54 -0.82,1.25 0.16,0.19 0.06,0.11 0.4,0.24z"/>
   <path class="fil11" d="M42.05 32.65c-0.44,-0.38 -0.34,-0.29 -0.26,-0.79l0.84 0.25 -0.58 0.54zm-0.89 -1.68l-0.44 -0.23 0.04 0.41 0.73 0.63 -0.23 0.31c-0.38,-0.04 -0.52,-0.31 -0.66,-0.42 -0.73,0.26 -0.12,0.42 -0.95,0.09l-0.55 -0.25c0.01,1.44 1.12,0.51 2,1.02 0.01,0.01 0.59,0.58 0.6,0.59 0.39,0.26 0.44,0.08 1.09,0.37 0.01,-0.32 -0.02,-0.31 0.27,-0.57 -0.26,-0.33 -0.71,0.24 -0.08,-0.5 0.07,-0.08 0.26,-0.1 0.36,-0.09 0.96,0.14 0.01,0.9 0.58,0.51 0.03,-0.02 0.04,0.07 0.08,0.11 0.61,0.07 0.93,0.21 1.45,-0.13 -0.12,-0.2 0.21,-0.33 -0.62,-0.41 -0.56,0.16 0.43,0.37 -0.62,0.1 -0.26,-0.29 -0.28,-0.19 -0.27,-0.52 -0.81,-0.33 -1.99,-0.51 -2.79,-1.01z"/>
   <path class="fil12" d="M42.67 29.91c-0.61,-0.38 -0.33,0 -0.25,-0.61 0.41,0.4 0.33,0.03 0.25,0.61zm2.3 0.62c-0.19,-0.51 0.37,0.11 -0.31,-0.54l-1.04 -0.65c-0.54,0.49 0.16,0.24 -0.35,0.08 -0.24,-0.07 -0.6,-0.64 -1.74,-0.63 -0.72,0 -1.43,0.25 -1.26,1.12 0.35,0.38 0.65,0.37 1.26,0.63 0.74,0.33 0.65,0.51 1.19,0.16 -0.56,-0.45 -0.46,0.2 -1.17,-0.63 -0.23,-0.26 -0.02,-0.21 -0.33,-0.33 -0.35,-0.14 -0.05,0.27 -0.54,-0.19 0.33,-0.32 -0.1,-0.13 0.41,-0.24 0.14,-0.03 0.46,0 0.63,0.02 0.52,0.94 0.28,0.57 1.38,0.82 0.47,0.11 0.8,0.17 0.58,0.56 -0.26,0.46 -0.37,-0.09 -0.62,0.41 0.53,0.4 1.36,0.29 1.93,-0.04 -0.86,-1.06 -0.99,0.03 -1.06,-1.17l1.04 0.62z"/>
   <path class="fil4" d="M3.95 65.89c0.97,0.19 2.78,0.06 3.96,0.06 0.69,-0 0.77,0.08 1.24,-0.19 -0.59,-0.32 -1.23,-0.43 -1.74,-0.79 -0.59,-0.41 -0.49,-0.68 -0.96,-1.13 -1.01,1.46 -1.56,1.19 -2.5,2.06z"/>
   <path class="fil13" d="M60.86 38.81c0.17,0.55 0.95,1.34 1.44,1.95 0.89,1.13 0.96,1.6 1.32,1.94 2.19,-0.3 0.01,-3.19 -0.73,-3.19 0.03,0.84 1.08,1.29 1.15,2.29 -1.15,-1.05 -1.15,-2.12 -3.18,-3z"/>
   <path class="fil14" d="M45.6 53.34c-0.34,0.85 -0.43,2.31 -0.47,3.16 -0.06,1.19 -0.43,2.11 1.01,2.5 0.11,-1.83 -1.22,1.54 -0.17,-5.71l-0.09 -0.34c0.02,-0.08 -0.02,-0.11 -0.01,-0.16l-0.26 0.56z"/>
   <path class="fil15" d="M53.04 35.38c0.06,0.35 -0.16,0.13 0.21,1.01 0.55,1.27 0.48,1.79 1.63,2.41 -0.01,-0.84 -0.28,-1.08 -0.56,-1.83 -0.28,-0.73 -0.22,-1.06 -1.28,-1.59z"/>
   <path class="fil16" d="M58.61 29.44c0.17,0.4 0.21,0.16 0.65,0.57l0.68 0.76 -0.39 0.36c0.63,-0.05 0.17,0.12 0.67,-0.16 0.25,-0.92 0.01,-0.25 0.38,-0.42 0.51,0.47 0.21,0.05 0.38,0.68 0.1,0.39 0.16,0.38 -0.02,0.74l0.49 0.12c0.01,-0.76 -0.11,-1.12 -0.36,-1.78 -0.34,-0.1 -0.7,-0.1 -0.78,-0.13 -1.12,-0.36 -0.38,-0.02 -0.44,-0.48 -0.39,-0.02 -0.77,-0.16 -1.26,-0.27z"/>
   <path class="fil17" d="M85.57 65.55c0.01,-0.52 -0.84,-2.73 -1.34,-3.34 -0.29,0.97 0.46,2.85 1.34,3.34z"/>
   <path class="fil18" d="M82.39 37.33c0.64,-0.06 0.14,0.1 0.8,-0.26l1.34 -0.6c0.67,-0.32 0.33,-0.26 0.29,-0.39 -0.57,0.22 -0.2,0.15 -0.95,-0.14 -0.55,0.29 -0.47,0.32 -1,0.4l-0.47 0.99z"/>
   <path class="fil19" d="M46.28 34.64c-0,-0.45 0.09,-0.17 -0.42,-0.43 -0.96,-0.32 -2.39,-0.09 -2.95,0.34 1.2,0.28 2.42,-0.21 3.37,0.09z"/>
   <path class="fil20" d="M63.39 49.65c0.39,-0.6 0.55,-1.06 0.41,-1.74l-0.88 0.01c-0,0.74 -0.29,1.22 0.47,1.73z"/>
   <path class="fil17" d="M22.29 66.37c-0.05,-1.24 -1,-0.73 -0.88,-2.4 0.06,-0.76 0.15,-0.58 -0.28,-0.88 -0.41,0.34 -0.15,1.28 -0.01,1.7 0.21,0.6 0.45,1.07 1.16,1.58z"/>
   <path class="fil21" d="M43.95 31.98c-0.01,0.33 0.01,0.23 0.27,0.52 1.05,0.28 0.05,0.06 0.62,-0.1l-0.68 -0.18c0.36,-0.26 -0.09,-0.21 1.12,-0.34 0.53,-0.05 0.78,-0.09 1.44,0.15l0.15 -0.28c-0.84,-0.53 -2.32,-0.11 -2.91,0.22z"/>
   <path class="fil22" d="M45.84 52.05l-0.24 1.29 0.26 -0.56c-0.01,0.05 0.03,0.08 0.01,0.16l0.09 0.34 0.33 -1 1.98 0.75 0.04 0.8 0.11 -0.81c-0.45,-0.42 -1.45,-0.74 -2.21,-0.93l-0.31 0.12c0.03,-0.09 -0.04,-0.11 -0.05,-0.17z"/>
   <path class="fil23" d="M14.44 61.77c0.03,0.61 -0.37,-0.01 0.08,0.68 0.1,0.15 0.2,0.15 0.34,0.35 0.44,0.62 -0.12,0.37 0.64,0.89 0.02,-0.8 -0.35,-1.53 -1.07,-1.93z"/>
   <path class="fil24" d="M60.22 30.98c0.27,0.24 0.01,-0.27 0.25,0.32 0.06,0.15 0.08,0.36 0.11,0.57l0.39 0.12c0.18,-0.37 0.12,-0.36 0.02,-0.74 -0.17,-0.64 0.13,-0.22 -0.38,-0.68 -0.37,0.16 -0.12,-0.51 -0.38,0.42z"/>
   <path class="fil25" d="M60.33 35.2l-0.45 0.51 1.57 0.05c0.09,-0.54 0.14,-0.14 -0.01,-0.52l-1.12 -0.04z"/>
   <path class="fil22" d="M33.93 40.42c-0.03,0.69 0.11,1.49 0.6,2.08 -0.03,-0.49 -0.03,-0.62 -0.12,-1.1 -0.03,-0.18 -0.03,-0.33 -0.09,-0.57 -0.15,-0.64 -0.03,-0.17 -0.2,-0.48l-0.2 0.05z"/>
   <path class="fil26" d="M45.54 64.24l0.47 0.34 0.46 -0.19 -0.63 -0.1 1.09 -1.25c-0.42,0.07 -0.04,-0.13 -0.55,0.17 -0.13,0.08 -0.17,0.14 -0.27,0.24 -0.22,0.24 -0.4,0.52 -0.59,0.78z"/>
   <path class="fil22" d="M51.52 48.79l0.57 -0.65c0.26,-0.48 0.28,-0.44 0.24,-0.94 -0.47,-0.3 -1.07,-0.56 -1.72,-0.41l1.66 0.49 -0.75 1.51z"/>
   <path class="fil20" d="M39.81 30.59l-0.27 0.76 0.62 0.16c0.17,-0.44 0.14,-0.79 -0.06,-1.19l-0.29 0.27z"/>
   <path class="fil27" d="M57.5 30.21c0.5,0.21 1,0.44 1.43,0.05 -0.32,-0.16 -0.24,-0.18 -0.68,-0.25 -0.66,-0.1 -0.4,-0.16 -0.75,0.2z"/>
   <path class="fil28" d="M44.32 45.31c0.53,-0.14 0.52,-0.24 0.49,-0.77 -0.26,-0.16 -0.09,-0.22 -0.63,-0.28 -0.85,-0.09 -0.26,-0.01 -0.63,0.13l1.06 0.17c-0,0.23 0.06,0.14 -0.06,0.43 -0,0.01 -0.21,0.32 -0.22,0.33z"/>
   <path class="fil29" d="M42.05 32.65l0.58 -0.54 -0.84 -0.25c-0.08,0.49 -0.18,0.4 0.26,0.79z"/>
   <path class="fil30" d="M60.15 35.15l0.18 0.05 1.12 0.04c-0.04,-0.35 -0.04,-0.31 -0.18,-0.54 -0.53,0.34 -0.44,0.08 -1.11,0.45z"/>
   <path class="fil30" d="M46.28 34.64c0.76,0.04 0.19,-0.02 0.31,0.16l-0.29 0.33c0.49,0 0.49,-0.35 0.66,-0.76l-0.97 -0.18c-0.03,0 -0.09,0.01 -0.14,0.02 0.51,0.26 0.42,-0.02 0.42,0.43z"/>
   <path class="fil31" d="M52.58 36.2c0.23,-0.48 0.11,-0.39 -0.09,-0.69 -0.17,0.33 -0.14,0.26 -0.26,0.36 -0.2,0.19 -0.04,-0.05 -0.52,0.4 0.93,0.09 0.06,0.16 0.87,-0.07z"/>
   <path class="fil18" d="M39.12 31.5l0.55 0.25c0.07,-0.03 0.43,-0.2 0.5,-0.24l-0.62 -0.16 0.27 -0.76 -0.69 0.91z"/>
   <path class="fil32" d="M37.21 48.48c-0.02,0.7 -0,0.77 0.44,1.4l-0.24 -1.42 -0.19 0.02z"/>
   <path class="fil33" d="M47.03 46.07c0.08,-0.03 0.11,0.25 0.42,-0.28 0.47,-0.8 0.12,-0.32 0.1,-0.6 -0.49,-0.11 0.24,-0.09 -0.35,-0.07 -0.44,0.02 -0.26,0.02 -0.47,0.07l0.8 0.16 -0.5 0.71z"/>
   <path class="fil34" d="M39.92 52.27c0.02,0.4 -0.34,0.05 0.31,0.64 0.09,-0.22 0.13,-0.21 0.13,-0.46 -0,-0.38 -0,-0.11 -0.14,-0.39 -0.21,0.5 -0,0.19 -0.31,0.21z"/>
   <path class="fil35" d="M46.41 33.8l0.57 -0.17c-0.16,-0.28 0.28,-0.14 -0.29,-0.36 -0.65,-0.25 -0.52,-0.02 -0.6,-0.01l0.72 0.21c-0.06,0.04 -0.31,0.26 -0.4,0.33z"/>
   <path class="fil34" d="M37.68 40.57c0.15,-0.36 0.01,-0.31 0.41,-0.17 -0.03,-0.04 -0.04,-0.15 -0.07,-0.12l-0.33 -0.32c-0.55,0.84 -0.16,0.29 -0,0.61z"/>
   <path class="fil36" d="M58.82 38.58l0.08 -0.52 0.65 0.3c-0.25,-0.28 -0.25,-0.32 -0.71,-0.4 -0.36,0.6 -0.16,0.31 -0.03,0.62z"/>
   <path class="fil37" d="M42.67 29.91c0.08,-0.57 0.16,-0.21 -0.25,-0.61 -0.08,0.61 -0.36,0.23 0.25,0.61z"/>
   <path class="fil38" d="M61.39 36.5c0.54,0.64 0.44,0.21 0.52,0.21 -0.18,-0.31 0.46,-0.04 -0.15,-0.22 -0.43,-0.12 -0.01,-0.08 -0.37,0.01z"/>
   <path class="fil38" d="M45.22 35.44l0.27 -0.07c0.28,-0.15 0.04,0.03 0.33,-0.24 -0.88,-0.31 -0.29,-0.08 -0.59,0.01 0.26,0.23 0.51,-0.01 -0,0.3z"/>
   <path class="fil10" d="M40.77 31.14l-0.04 -0.41 0.44 0.23 -0.44 -0.43c-0.22,0.67 -0.15,0.19 0.04,0.6z"/>
  </g>
 </g>
</svg>
