<?xml version="1.0" encoding="UTF-8"?>
<!DOCTYPE svg PUBLIC "-//W3C//DTD SVG 1.1//EN" "http://www.w3.org/Graphics/SVG/1.1/DTD/svg11.dtd">
<!-- Creator: CorelDRAW -->
<svg xmlns="http://www.w3.org/2000/svg" xml:space="preserve" width="49.6649mm" height="48.0617mm" version="1.1" style="shape-rendering:geometricPrecision; text-rendering:geometricPrecision; image-rendering:optimizeQuality; fill-rule:evenodd; clip-rule:evenodd"
viewBox="0 0 205.78 199.14"
 xmlns:xlink="http://www.w3.org/1999/xlink"
 xmlns:xodm="http://www.corel.com/coreldraw/odm/2003">
 <defs>
  <style type="text/css">
   <![CDATA[
    .fil7 {fill:#043301}
    .fil28 {fill:#050901}
    .fil3 {fill:#053501}
    .fil6 {fill:#060A01}
    .fil17 {fill:#066601}
    .fil11 {fill:#0B4205}
    .fil0 {fill:#0E0705}
    .fil5 {fill:#107307}
    .fil21 {fill:#137B05}
    .fil10 {fill:#148404}
    .fil16 {fill:#16C401}
    .fil12 {fill:#171206}
    .fil8 {fill:#17C801}
    .fil37 {fill:#1A1A1A}
    .fil34 {fill:#1BCA01}
    .fil24 {fill:#369B0A}
    .fil27 {fill:#4D4115}
    .fil14 {fill:#530D0B}
    .fil35 {fill:#5CEC0A}
    .fil23 {fill:#5D5832}
    .fil2 {fill:#5EEF0B}
    .fil29 {fill:#84F60A}
    .fil4 {fill:#89F80A}
    .fil13 {fill:#ADFD1A}
    .fil33 {fill:#C4C2C2}
    .fil9 {fill:#D3CA5C}
    .fil32 {fill:#D3D3D4}
    .fil25 {fill:#D8000F}
    .fil18 {fill:#F08202}
    .fil15 {fill:#F1B10D}
    .fil38 {fill:#F4F4F9}
    .fil30 {fill:#F6F6EB}
    .fil19 {fill:#F8F7F1}
    .fil26 {fill:#FAFBD3}
    .fil31 {fill:#FBF99B}
    .fil22 {fill:#FCFA9D}
    .fil36 {fill:#FCFCFB}
    .fil20 {fill:#FDFDFD}
    .fil1 {fill:#FEFEFE}
   ]]>
  </style>
 </defs>
 <g id="Camada_x0020_1">
  <metadata id="CorelCorpID_0Corel-Layer"/>
  <g id="_2377766721616">
   <path class="fil0" d="M115.81 168.71c3.62,-0.19 2.02,-1.04 4.13,-1.51 0.82,1.74 1.04,4.17 -0.35,5.59 -2.74,-1.02 -0.86,-2.06 -4.66,-2.16 -0.92,-0.39 -0.69,-0.15 -1.09,-1.01 0.6,-0.57 1.08,-0.65 1.97,-0.9zm-0.16 -0.6l0.58 -2.27 1.45 0.12c0.08,0.02 0.16,0.09 0.22,0.12 0.06,0.02 0.14,0.09 0.22,0.14 -0.35,0.98 -0.67,1.26 -2.47,1.9zm12.04 -50.12c-0.86,-1.56 1.85,-4.15 3.19,-4.32 -0.49,1.32 -2.17,2.33 -2.51,2.94 -0.62,1.13 0.23,0.64 -0.69,1.38zm-48.36 -4.73c0.83,0.5 0.89,0.78 1.64,1.34 0.94,0.69 1.02,0.33 1.39,1.6 -1.73,0.68 -2.36,-1.45 -3.03,-2.93zm63.58 6.76l4.06 -8.71c0.57,-1.1 0.94,-0.99 1.77,-2.23 0.92,0.6 2.01,2.13 2.47,3.64 -1.38,1.52 -6.62,6.76 -8.3,7.3zm-7.75 -6.17c-1.25,-0.29 -0.49,0.02 -1.42,-0.59 0.19,-1.42 1.8,-4.63 2.84,-5.16 0.03,2.23 -0.94,3.93 -1.41,5.75zm-11.87 43.42c0.38,-1.64 5.32,-10.08 5.86,-11.65 0.75,-2.19 1.2,-4.5 2.19,-6.46 0.91,-1.8 0.35,-1.61 0.81,-3.64l5.34 -16.83c0.8,-2.34 1.5,-4.31 2.19,-6.76 0.72,-2.57 1.65,-4.5 2.34,-6.63 4.29,-0.48 1.7,-0.61 3.76,-0.81l1.88 3.02c0.83,1.79 0.14,2.64 -1.47,2.86l0.22 -3.29c-1.74,1.63 0.81,2.72 -1.4,7.53 -0.75,1.64 -1.98,4.95 -2.78,6.39 -1.1,1.98 -2.3,2.96 -3.57,5.51 -1,2 -1.85,4.2 -2.89,6.25 -2.25,4.43 -3.51,8.73 -5.56,12.79 -2.27,4.49 -3.61,4.7 -5.81,10.37 -0.48,1.24 -0.19,0.99 -1.1,1.34zm-53.38 -50.71c-0.3,-4.32 2.03,-2.78 2.39,-1.26 -0.66,0.84 -1.34,1.22 -2.39,1.26zm73.98 -2.03c-0,-0 -0.81,-0.8 -0.48,-1.94 0.73,-2.55 4.16,1.99 0.48,1.94zm-7.44 0.65c0.09,-1.32 1.11,-2.23 2.41,-2.54 -0.34,1.42 -1.11,2.44 -2.41,2.54zm-72.59 -4.65c-2.11,0.21 -5.24,-1.21 -4.61,-4.02 0.47,-2.13 3.19,-3.87 5.47,-3.2 0.2,1.34 -0.57,5.7 -0.86,7.22zm28.59 -2.31c1.46,0.11 1.69,0.69 2.42,1.7 0.85,1.17 1.25,0.74 1.89,2.1 -1.41,-0.07 -3,0.25 -4.23,-0.32 -1.5,-0.69 -2.53,-0.24 -3.44,-1.05 -2.6,-0.96 -5.02,-1.67 -7.49,-2.86 -2.13,-1.03 -4.64,-3.08 -5.26,-5.52 2.69,1.16 13.65,5.59 16.11,5.96zm-13.57 8.62l-2.41 -1.93c-0.31,-0.32 -0.57,-0.78 -0.88,-1.16 -0.71,-0.85 -0.94,-0.7 -1.35,-1.11 -3.12,0.27 -5.51,-0.81 -8.39,-1.65 -0.07,-2.65 0.36,-4.99 1.17,-7.04 3.56,-0.22 6.27,-2.27 7.64,1.76 -0.43,0.38 -0.01,0.15 -0.81,0.51l-1.84 0.48c-0.37,0.13 -0.01,-0.06 -0.46,0.19 -0.82,0.46 0.04,-0.37 -0.71,0.55 11.34,-0.19 8.2,2.5 17.1,4.3 1.31,0.27 3.39,0.3 4.49,0.68 6.14,2.14 5.87,0.59 8.48,2.02 1.24,0.68 3.36,0.83 4.65,0.27 -0.35,-1.38 -1.47,-1.28 -3.65,-1.93l-1.52 -0.69c5.81,-3.07 5.34,-5.63 7.84,-1.7 0.91,1.44 1.44,1.14 1.38,3.3 1.34,-0.69 3.43,-1.98 5.14,-1.5l0.82 0.25c0.12,1.69 -0.01,2.08 1.59,1.77 1.67,-2.59 2.19,-3.47 6.23,-3.39 4.26,0.09 4.4,0.23 7.84,-1.72 2.08,-1.18 4.15,-2.44 6.26,-3.61 3.63,-2 4.66,-0.78 8.7,-0.86 -0.47,-1.9 -3.41,-2.84 -5.25,-3.01 -1.1,-0.1 -1.49,0.37 -2.47,0.5 0.52,-1.32 0.67,-0.79 1.31,-2.07 0.64,-1.27 0.1,-1.22 1.44,-1.82 1.55,-0.69 3.55,-0.47 5.27,-1.09 2.51,-0.9 2.22,0.1 3.15,2.3 0.77,1.82 1.46,2.79 1.77,5.09 0.39,2.9 -0.35,3.21 -2.26,4.04 -1.46,0.63 -3.11,1.69 -4.7,1.89 -3.29,0.42 -4.14,-0.26 -7.5,1.5 -0.98,0.51 -1.88,0.46 -2.51,0.84 0.4,1.34 0.62,0.8 0.95,2.16 -2.57,4.24 -11.81,10.5 -16.8,10.47 0.1,-2.17 1.19,-1.7 2.58,-2.5 0.28,-2.55 -1.57,-4.95 -3.16,-5.67 -1.07,0.29 -2.48,1.39 -2.94,2.06 -0.33,0.48 -0.42,0.92 -0.72,1.63 -0.41,0.96 -0.58,0.9 -0.99,1.79 1.35,-0.3 6.17,-4.51 6.32,-0.63 0.06,1.49 -1.61,1.94 -2.55,2.67 -1.06,0.82 -1.43,1.61 -2.34,2.89 -3.69,5.2 -5.79,12.14 -7.57,13.63 -3.88,-1.04 -2.64,-7.66 -6.06,-11.97l-4.2 -4.77c-1.06,-0.92 -4.66,-2.95 -3.45,-4.89 0.73,-0.52 2.51,0.44 3.73,0.6 2.6,0.33 1.35,1.3 3.15,1.75 -0.42,-2.63 -0.69,-3.03 -2.08,-4.33 -1.96,0.16 -0.23,1.1 -2.39,0.05 -1.36,-0.66 -3.11,-0.33 -3.17,0.48 -0.5,6.65 2.82,7.08 1.57,8.58 -1.77,0.99 -7.73,-2.45 -9.05,-3.37 -1.28,-0.89 -2.57,-2.05 -3.56,-3.04 -1.42,-1.43 -2.22,-3.36 -2.78,-3.56zm39.42 -7.77c0.3,-4.26 8.27,-4.6 9.86,-5.34 2.18,-1.02 7.56,-5.07 10.01,-5.03 0.15,2.39 -7.11,9.56 -12.91,9.56 -2.99,0 -5.23,1.15 -6.95,0.8zm35.29 -6.53c-1.41,2.16 0.49,4.02 -0.54,5.74 -1.07,-0.47 -0.84,-0.58 -0.68,-2.19 0.09,-0.9 0.21,-1.54 0.25,-2.53 0.1,-2.26 -0.2,-3.33 -0.46,-5.34 0.72,0.51 0.12,0 0.64,0.67 0.22,0.29 0.22,0.39 0.47,0.7 0.64,0.82 0.37,0.1 0.96,1.07 1.26,-0.91 1.24,-1.24 2.76,0.21 0.72,0.69 1.52,1.57 1.66,3.04 0.25,2.65 -1.84,5.57 -4.15,4.78 -0.16,-1.18 -0.14,-2.29 -0.26,-3.47 -0.19,-2.02 -0.55,-2.48 -0.55,-2.51 -0.01,-0.11 -0.07,-0.13 -0.11,-0.19zm-89.9 -4.62c-0.29,-1.06 0.01,-2.39 0.19,-3.48 0.81,0.44 1.36,1.32 1.97,1.99 -0.04,1.21 -0.25,2.87 -0.79,3.78l-1.37 -2.29zm78.79 -2.11c0.81,-1.53 2.82,-0.23 2.49,-5.25 1.38,0.66 2.41,4.73 2.41,5.5 -1.09,0.05 -1.99,-0.23 -2.69,-0.19 -0.87,0.05 -1.38,0.7 -2.21,-0.07zm-79.68 0.23c-1.3,0.36 -3.27,-1.21 -4.19,-1.81 -1.05,-0.68 -3.16,-2.1 -1.58,-3.89 1.59,-1.8 6.81,1.14 5.77,5.7zm59.08 8.22c0.62,-1.7 4.04,-3.98 5.51,-5.07 4.94,-3.66 6.59,-5.58 10.54,-10.18 1.43,-1.67 3.38,-4.31 4.86,-5.58 0.72,1.2 1.05,2.98 1.3,4.69 0.39,2.58 0.8,2.87 -0.52,4.58 -2.77,3.59 -2.49,2.55 -6.49,4.64 -2.42,1.26 -4.8,2.49 -7.15,3.82 -2.67,1.52 -4.71,2.59 -8.06,3.1zm-47.52 -3.63c-1.22,-0.62 -4.61,-2.99 -5.62,-2.78 0,1.46 1.29,1.97 1.08,4.34 -1.26,0.83 -1.7,0.81 -2.75,-0 -0.27,-2.49 1.3,-6.3 2.31,-8.17 0.76,0.29 0.95,0.8 2.03,0.44 -0.01,-1.12 -2.63,-4.05 -0.41,-6.79 1.29,0.77 3.54,5.01 4.58,6.3 6.61,8.23 18.87,4.72 18.92,12.73 -1.93,0.32 -11.22,-3.22 -13.5,-4.05 -2.29,-0.83 -4.76,-1.07 -6.63,-2.03zm-7.52 -12.74c1.23,0.98 1.1,2.14 1.06,4.22 -0.03,1.67 -0.17,3.08 -0.96,4.03 -1.03,-0.32 -1.16,-1.16 -1.79,-2.29 -1.71,-3.04 -3.63,-3.68 -5.1,-6.08 2.25,-1.51 4.83,-1.46 6.8,0.12zm14.43 -12.06c4.2,3.4 4.58,3.52 5.69,11.13 -0.98,-0.38 -1.85,-1.43 -2.87,-2.13 -0.93,-0.64 -1.82,-1.21 -2.76,-1.8 -1.99,-1.25 -3.73,-2.62 -5.37,-3.46 1.05,2.86 4.72,4.78 7.2,6.64 2.72,2.04 4.98,3.86 8.62,5.25 5.03,1.92 4.99,2.61 8.27,5.7 1.25,1.18 2.27,2.22 3.31,3.63 0.78,1.06 2.14,3.13 3.34,3.71 -0.16,-0.99 -0.31,-1 -0.54,-1.92 -0.63,-0.85 -0.41,-1.23 -1,-2.03 -0.35,-0.47 -0.92,-0.92 -1.3,-1.27 -0.92,-0.84 -1.87,-1.88 -2.36,-3.13 -0.21,-1.02 -0.47,-0.44 -0.53,-1.85 3.01,-0.07 1.93,-0.1 4.2,-1.12 1.39,-0.62 3.18,-0.44 4.76,-0.69l1.6 0.11c4.85,0.27 13.1,-8.69 17.61,-12.14 1.76,-1.34 4.55,-2.53 4.55,-5.28 -0.78,0.25 -0.42,0.14 -1.09,0.61l-6.67 5.62c-2.78,2.45 -4.27,5.69 -6.61,5.69 -1.5,-4.76 1.5,-5.41 2.9,-7.4 0.05,-0.06 0.12,-0.13 0.16,-0.16l0.94 -0.83c0.51,-0.46 0.54,-0.52 0.93,-1.08 1.43,-2 2.2,-2.58 4.43,-3.62 0.14,-0.07 1.19,-0.53 1.31,-0.54 0.97,-0.07 0.16,-0.14 0.57,0.23l1.12 0.35c0.87,-0.89 1.58,-2.01 3.64,-0.64 0.36,0.24 0.29,0.24 0.5,0.46 2.16,1.31 1.57,1.24 1.84,6.79 0.3,6.19 -5.36,12.62 -9.57,15.59 -3.36,2.37 -5.73,4.98 -8.89,7.45 -2.67,2.08 -7.34,7.09 -10.28,2.86l1.66 -1.13c0.09,0.41 -0.03,0.24 0.11,0.51 1.29,-0.94 4.13,-6.45 4.78,-7.92 -1.86,0.8 -3.54,4.53 -7.29,7.58 -2.25,1.83 -3.08,1.13 -4.65,-0.69 -1,-1.15 -3.5,-2.11 -5.06,-2.43 0.38,0.72 0.02,0.2 0.55,0.78 0.82,0.9 3.44,2.33 4.24,3.97 -1.66,2.06 -4.42,2.86 -5.97,0.8 -1.56,-2.08 -1.93,-3.82 -3.46,-5.62 -5.53,-6.52 -13.61,-1.78 -19.33,-15.87 -2.45,-6.03 1.26,-9.59 4.81,-11.47l3.34 -0.82 2.01 3.23c-1.47,-0.43 -1.94,-2.36 -3.61,-2.38l0.23 0.71zm35.3 -4.44c-0.92,4.72 -0.01,9.62 0.13,14.05 0.46,3.26 -0.43,4.01 -3.27,4.55 -3.73,0.7 -10.9,-0.27 -14.91,-0.21 -2.21,0.03 -8.96,2.4 -10.04,-5.3 -1.46,-10.45 -0.09,-7.19 12.27,-11.32 -0.36,3.57 -2.18,12.02 -0.35,14.92 1.36,0.2 2.24,0.3 3.01,-0.56 0.76,-0.85 0.6,-1.84 1.09,-2.52 0.26,-2.88 -0.08,-5.99 -0.03,-8.96 0.05,-2.57 0.43,-5.8 0.29,-8.2 -0.17,-3.37 -0.25,-4.71 0.02,-8.1 0.13,-1.6 1.11,-1.84 3.18,-1.93 5.36,-0.24 4.82,-0.05 4.74,0.89 0.89,0.17 0.93,0.62 1.65,1.05 0.62,0.38 1.17,0.38 1.95,0.57 0.68,2.19 1.33,2.28 0.98,5.38 -0.14,1.22 -0.36,4.99 -0.72,5.71zm-14.53 -3.61l-0.5 2.25c-1.36,2.28 -5.24,2.49 -7.61,3.27 -2.61,0.86 -4.91,2.11 -7.36,3.14l-0.91 0.39c-1.08,-1.84 -1.01,-5.17 -1.3,-7.82 -2.12,-0.12 -8.83,6.05 -10.56,6.67l0.92 -3.56 -0.17 -1.04c-1.64,-0.08 -2.54,-0.02 -2.58,1.99 2.12,2.83 0.37,3.84 -0.8,6.87 -0.8,2.08 -1.36,5.44 -2.36,7.26 -2.9,-0.52 -4.22,-4.4 -8.55,-0.86 -0.72,0.59 -0.89,0.86 -1.79,1.33 -2.14,1.12 -3.34,3.56 -3.36,5.63 3.69,2.84 6.14,3.62 8.56,7.46 -0.72,0.99 -2.26,1.65 -3.31,2.37 -2.09,1.44 -1.81,2.18 -2.75,3.07 0.23,8.55 5.34,3.94 11.49,7.23 -0.34,3.66 -3.34,7.28 -4.21,10.82 0.66,1.95 1.49,2.1 3.1,2.85 2.79,1.29 6.82,6.79 8.77,9.39 4.46,5.96 18.77,33.88 20.61,41.05 0.46,1.8 0.4,3.74 0.87,5.42 0.8,2.85 2.37,1.37 2.98,2.87 0.46,0.43 0.36,0.14 0.89,0.43l-0.08 -1.03 0.26 -2.23c-1.34,-0.65 -0.9,-0.22 -1.34,-1.26 -0.13,-1.15 -0.24,-0.96 -0.16,-2.58 -0.23,-0.65 -0.4,-0.49 -1.04,-1.13 -0.97,-0.98 -4.34,-10.62 -5.36,-12.9 -0.89,-1.97 -2.05,-4.24 -2.98,-6.17 -0.77,-1.61 -2.21,-4.77 -3.02,-5.97 0.16,-0.87 0.46,-0.14 0.61,-1.19 -4.46,-6.15 -12.29,-20.73 -18.28,-25.71 -1,-0.83 -2.62,-1.81 -3.47,-2.78 0.3,-2.79 3.52,-6.95 5.63,-6.8l1.5 4.52c0.47,-0.2 1.82,0.52 2.32,1 0.46,0.44 1.19,1.61 1.59,2.2 0.59,0.87 0.95,1.41 1.66,2.11 1.88,1.87 1.55,0.48 2.17,1.61 0.04,-0.67 0.03,-0.4 0.26,-0.8 0.34,-0.64 -0.37,-0.47 1.06,-0.91 0.5,-0.15 1.2,0.11 1.25,0.12 0.57,0.22 1.46,1.05 1.69,1.3 0.21,-1.25 -0.09,-0.78 0.9,-1.07 0.7,2.61 1.04,1.78 3.37,2.31 1.26,0.28 2.96,1.17 4.36,1.64 0.07,-0.06 0.37,-0.25 0.42,-0.28 0.05,-0.03 0.18,-0.11 0.24,-0.15 0.06,-0.04 0.17,-0.1 0.25,-0.15 0.45,-0.38 0.22,-0.33 0.98,-0.38 0.01,0.02 0.5,0.54 0.5,0.54 0.56,0.74 0.26,0.22 0.6,1.08 1.54,0.81 3.19,4.1 4.37,6.24 1.37,2.47 2.71,5.3 6.4,4.38 1.36,-0.83 2.7,-8.7 6.92,-11.94 0.29,-0.34 0.11,-0.27 0.58,-0.51l6.37 -1.72c0.45,0.01 1.27,-0.85 2.67,-1.08l-3.62 4.78c0.63,2.11 0.27,2.68 0.37,4.88 1.48,-2.39 1.92,-6.58 3.99,-7.94 2.21,0.4 1.08,1.77 1.89,3.34l3.58 -6.36 2.74 0.02c0.18,1.88 -4.07,16.98 -4.89,19.43 -0.72,2.16 -0.47,2.61 -2.33,3.57 -2.99,1.54 -7.83,4.73 -9.5,5.21 -0.91,0.26 -1.9,0.07 -2.41,0.42 1.12,0.79 5.26,-0.55 6.23,-1.34 2.19,-1.79 2.75,-2.16 6.21,-2.57 -0.27,1.85 -1.42,2.96 -2.48,7.71 -1.37,6.13 -2.45,9.46 -4.68,15.06 -0.56,1.4 -0.69,2.53 -2.19,2.59 -2.17,0.1 -1.35,-1.54 -2.15,-2.87 -0.79,1.67 -0.85,3.78 -1.89,5.49 -0.85,-0.11 -1.02,-0.42 -2.39,-0.62l-0.83 -3.91c-1.08,1.83 0.75,3.12 -2.08,3.68 -0.85,0.61 0.31,0.35 0.9,1.5 -1.48,1.29 -3.86,1.31 -4.82,2.78 0.46,0.76 1.63,1.55 2.63,1.9 0.89,0.07 1.88,-0.06 2.8,0.05 1.05,0.12 1.13,0.39 2.42,0.57 1.87,0.25 3.66,0.26 5.61,0.41 0.91,1.7 1.01,2.27 1.56,4.44 0.55,2.38 1.45,7.48 -0.58,8.78l-0.44 0.7c-0.7,0.95 -1.49,1.52 -2.49,2.16 -4.29,2.75 -10.06,0.76 -11.43,-1.87 -0.78,-0.3 -0.98,-0.64 -1.51,-1.53 -0.38,-0.64 -0.87,-1.6 -1.05,-2.47 -0.62,-2.94 0.48,-4.3 0.5,-6.41 0.1,-1.22 0.42,-1.22 -0.21,-1.5l-1.22 0.5c-0.05,0.03 -0.12,0.12 -0.18,0.17 -0.27,2.34 -2.26,3.68 -0.89,8.02 3.22,10.17 16.84,11.5 21.7,1.45 1.31,-2.7 0.33,-5.81 0.11,-8.87 -0.2,-2.8 0.88,-5.26 0.99,-8.64 0.26,-8.17 3.98,-14.37 7.51,-21.81 2.19,-4.61 4.08,-8.69 5.93,-13.31 2.99,-7.43 6.88,-11.43 12.07,-16.15 1,-0.91 4.3,-3.6 4.91,-4.7 -1.05,-2.76 -7.01,-8.6 -6.58,-12.06 4.92,-2.9 10,2.35 12.9,-5.95 0.91,-2.6 -0.22,-3.62 -0.94,-5.28 -2.72,0.24 -0.65,0.9 -5.07,-2.38 0.95,-0.68 0.8,-0.13 1.9,-1.38 4.86,-5.52 3.58,-3.66 3.75,-6.97 -1.09,0.15 -1.13,0.17 -1.45,1.23 0.93,0.53 0.36,-0.89 1.15,0.62 -0.3,0.77 -4.81,5.1 -6.44,4.82 0.32,-1.17 0.89,-0.79 2.37,-5.05 0.87,-2.51 2.82,-2.64 2.8,-4.3 -1.13,0.18 -1.41,1.17 -2.06,2.07 -1.04,-0.14 -1.16,-1.46 -2.63,1.91 -0.63,1.46 -0.91,2.43 -1.96,3.15 -1.5,-0.53 -2.09,-2.45 -2.16,-4.16 0.76,-0.82 1.6,-2.05 2.29,-3.26 1.88,-3.32 1.01,-1.39 2.48,-2.85 -2.79,0.09 -3.78,4.78 -5.82,5.23 -0.62,-2.45 -0.9,-5.38 -1.62,-7.79 -2.2,-7.36 0.31,-9.22 2.15,-14.53 1.11,-3.2 2.14,-2.37 4.85,-3.52l0.18 -1.52c1.89,-0.4 2.91,-0.75 4.21,-1.68l-1.1 0.06c-1.04,-0.03 -8.18,2.31 -9.23,2.93 -1.77,1.03 -2.19,5.25 -2.49,7.4 -0.16,1.18 -0.43,1.24 -0.61,2.29 -0.97,2.89 -1.19,1.06 -0.48,5 0.3,1.67 0.55,2.91 -0.72,4.76 -0.74,-1.55 -1.65,-2.52 -2.19,-3.86 -0.3,-0.21 -4.38,-5.82 -5.01,-6.71 -2.12,-0.54 -3.79,-2.47 -6.47,-1.02 -1.21,0.66 -0.96,1.11 -2.51,1.77 -1.31,0.56 -1.41,1.03 -2.58,1.56 -0.27,0.62 -0.12,0.31 -0.64,0.92l-2.18 2.47c-0.86,1 -1.75,2.45 -3.53,2.65l0.81 -11.64c0.04,-1.23 0.01,-3.13 0.44,-4.14 0.82,-1.91 6.67,-1.76 6.36,-4.83 -0.6,-1.83 -0.6,-0.91 -1.69,-1.96 -1.69,0.11 -5.32,-0.54 -7.55,-0.58 -5.37,-0.11 -17.24,0.91 -21.78,2.33 -1.86,8.47 4.56,4.53 7.8,4.25l-0.58 4.41z"/>
   <path class="fil1" d="M107.55 145.94c0.54,-1.16 0.66,-0.99 1.78,-1.4 1.34,-0.48 1.24,-0.72 1.52,0.65 -0.78,0.7 -2.16,0.75 -3.31,0.75zm8.08 -2.96c0.46,-1.5 1,-0.7 2.28,-1.18l2.31 -1.65c-0.23,1.64 -0.54,1.68 -2,1.89 -1.64,0.23 -1.39,0.86 -2.59,0.94zm7.03 -25.3c-0.35,1.11 -0.65,1.03 -1.88,1.36 -0.96,0.26 -1.29,0.13 -2.27,0.15 -0.05,1.17 -0.78,5.03 -1.63,5.52 -0.91,-1.24 -0.07,-3.31 -0.05,-4.95l-1.13 0.15c-4.21,3.24 -5.56,11.1 -6.92,11.94 -3.69,0.92 -5.04,-1.91 -6.4,-4.38 -1.18,-2.14 -2.83,-5.43 -4.37,-6.24 -1.01,-0.19 -0.69,-0.18 -1.45,-0.55l-0.97 4.41 -2.04 -1.1c-0.49,-0.49 -0.06,0.03 -0.44,-0.6 -0.43,-0.7 -0.82,-1.33 -1.21,-2.14 -0.55,-1.13 -0.46,-1.38 -1.74,-1.52 -0.87,1.12 -0.6,1.5 -1.15,3.09l-0.2 0.45c-3.79,-3.33 -1.65,-6.36 -6.43,-6.1 -0.23,0.39 -0.22,0.13 -0.26,0.8l7.37 15.61c1.88,4.06 4.43,7.15 8.35,8.08 2.17,0.52 3.01,-0.05 2.96,3.02 -2.79,-0.13 -6.52,-2.79 -7.77,-2.73 0.64,1.7 2.06,4.03 3.07,6.29 2.11,4.68 3.61,8.71 5.96,13.6 0.5,1.04 1.09,2.32 1.72,3 1.3,1.39 2.1,0.48 3.12,-0.1 0.33,1.05 -0.13,0.67 0.54,1.43l1.44 1.01c2.83,-0.56 1,-1.85 2.08,-3.68l0.83 3.91c1.37,0.2 1.54,0.52 2.39,0.62 1.04,-1.71 1.1,-3.83 1.89,-5.49 0.8,1.32 -0.02,2.96 2.15,2.87 1.5,-0.07 1.63,-1.2 2.19,-2.59 2.24,-5.6 3.31,-8.93 4.68,-15.06 1.06,-4.75 2.21,-5.85 2.48,-7.71 -3.45,0.41 -4.02,0.78 -6.21,2.57 -0.97,0.79 -5.11,2.13 -6.23,1.34 0.51,-0.35 1.5,-0.16 2.41,-0.42 1.68,-0.48 6.51,-3.66 9.5,-5.21 1.86,-0.96 1.61,-1.42 2.33,-3.57 0.81,-2.45 5.07,-17.55 4.89,-19.43l-2.74 -0.02 -3.58 6.36c-0.81,-1.57 0.32,-2.94 -1.89,-3.34 -2.07,1.36 -2.5,5.55 -3.99,7.94 -0.1,-2.19 0.25,-2.76 -0.37,-4.88l3.62 -4.78c-1.4,0.23 -2.22,1.09 -2.67,1.08z"/>
   <path class="fil2" d="M134.08 25.41c2.22,-0.75 8.74,-0.95 11.4,-0.74 -0.22,3.65 -11.35,4.25 -11.55,1.49 -0.1,-1.4 -0.06,-0.23 0.15,-0.75zm-0.16 -5.44c0.84,-0.41 7.14,-0.32 9.12,-0.7l7.6 -1.21c1.03,0.13 0.53,0.07 0.96,0.4 -2.35,0.52 -15.44,4.09 -17.67,1.51zm-3.59 -1.88l-0.21 0.64c-2.53,-0.3 -3.23,-1.42 -7.83,0.62 -0.33,0.15 -0.81,0.36 -1.11,0.56l-0.7 0.6c-0.03,-0.06 -0.12,0.12 -0.17,0.18l3.81 -1.23c-0.18,2.84 -9.14,6.65 -12.38,7.55 -3.7,1.02 -8.43,1.1 -12.9,1.9 -3.74,0.67 -0.76,-0.15 -3.81,1.04 -1.02,-0.95 -0.94,-1.09 -2.67,-0.68 -1.6,1.01 -3.36,-0.39 -3.57,2.26l1.9 0.78c4.52,0.1 2.39,-0.44 4.34,-0.53l0.09 1.95c-1.38,-0.18 -1.33,-0.66 -2.32,0.15 -0.04,1.81 0.5,1.36 1.82,0.78 2.2,-0.97 5.11,-1.35 7.56,-1.87 17.54,-3.77 20.83,-9.83 27.12,-11.52 -0.5,1.34 -1.08,0.82 -1.84,2.25l0.75 0.16c-0.02,1.95 -0.85,3.45 -0.91,6.51 -0.06,2.64 -1.26,3.15 -1.71,5.59 -1.34,7.24 3.12,12.31 -1.4,11.61 1.09,1.05 1.09,0.13 1.69,1.96 0.3,3.07 -5.54,2.92 -6.36,4.83 -0.43,1.01 -0.41,2.9 -0.44,4.14 0.71,-1.07 0.16,-0.74 0.99,-1.33 0.42,-0.3 1,-0.44 1.36,-0.62 3.13,-1.57 4.18,-6.88 6.55,-6.19 2.22,1.42 3.17,4.42 1.45,7.96 -1.02,2.1 -3.75,2.88 -4.82,5.79 1.16,-0.54 1.27,-1.01 2.58,-1.56 1.55,-0.66 1.3,-1.11 2.51,-1.77 2.67,-1.45 4.35,0.48 6.47,1.02l1.03 0.27c0.68,-8.29 0.78,-2.27 -2.85,-10.53 -0.69,-1.56 -1.42,-1.83 -2.11,-2.84 -1.11,-1.62 -3.56,-10.9 2.08,-14.39 0.53,-1.02 2.96,-2.61 4.54,-3.26 5.91,-2.4 12.88,-1.99 18.05,1.73 5.17,3.72 10.85,13.33 11.83,20.15 2.32,7.71 2.69,22.42 2.18,31.23 -0.3,5.09 -0.91,10.37 -1.83,15.25 -0.89,4.77 -2.3,9.93 -2.94,14.43 0.54,-0.38 0.25,-0.12 0.63,-0.68 0.01,-0.01 0.36,-0.68 0.42,-0.79 0.91,-2.04 1.04,-4.25 1.52,-6.29 0.9,-3.81 1.72,-5.19 4.42,-5.68l-0.11 2.32c0.78,-1.18 0.98,-4.1 1.29,-5.75 0.41,-2.23 0.75,-3.28 1.55,-5.26 -0.46,-1.7 0.37,-0.08 -1.13,-0.76 -0.88,-4.35 0.89,-15.68 1.37,-20.39 0.76,-7.4 1.2,-13 1.17,-20.79 -0.61,-3.96 -3.38,-11.4 -5.04,-14.41 -1.16,-2.11 -2.54,-4.23 -3.75,-5.92l-4.15 -5.4c-1.11,-0.58 -2.59,-1.9 -3.74,-2.9 -1.26,-1.09 -2.52,-1.74 -2.71,-4.05 2.74,0.33 7.06,5.89 10.89,6.99l-0.18 -1.11c-1.66,-1.88 -5.15,-4.58 -7.41,-6.2 -7.76,-5.55 -9.5,-1.7 -15.04,-0.53l-10.7 2.55c-3.72,1.27 -2.3,0.81 -5.08,-0.5z"/>
   <path class="fil3" d="M34.33 99.44c-1.26,-0.9 -2.08,-6.12 -2,-8.09 0.52,0.53 0.48,0.23 0.93,1.87 0.57,2.08 1.16,3.99 1.07,6.22zm44.5 -96.51l-1.62 0.34c-0.11,0.08 -3.99,1.35 -4.88,1.83 -0.91,0.49 -1.42,0.78 -2.54,1.12 -2.05,0.61 -0.77,0.47 -1.76,1.95 -1.52,0.24 -3.79,-0.37 -5.68,-0.25 -1.83,0.11 -3.66,0.61 -5.43,0.84 -3.96,0.51 -8.22,-0.3 -12.05,0.5 -0.84,0.17 -6.83,3.83 -8.3,4.68 -2.99,1.72 -5.24,3.4 -7.27,5.9 -2.6,3.19 -7.41,13.17 -8.42,18.82 -1.1,6.17 1.37,8.38 -4.36,9.15 -3.47,0.47 -5.47,3.64 -7.23,6 -3.09,4.14 -3.03,5.47 -4.92,8.59 -2.4,3.98 -1.77,2.16 2.2,8.5 6.03,9.62 12.27,28.78 13.47,41.42 0.42,4.41 0.1,8.97 -0.62,13.05 -0.64,3.65 -1.29,8.61 -2.14,11.79 -2.44,0.88 -5.63,0.8 -8.47,1.78 -2.59,0.9 -5.29,1.72 -6.82,3.59 -4.21,5.14 -0.98,15.61 2.6,15.35 1.07,0.66 0.04,0.47 1.43,0.35 -0.23,-1.13 0.02,-0.42 -0.87,-1.65 -0.36,-0.51 -0.04,0.08 -0.42,-0.63 -1.73,-1.76 -3.09,-2.64 -2.97,-7.05 0.05,-1.94 0.49,-2.83 1.26,-3.96 0.99,-1.46 1.7,-1.48 2.66,-2.83 1.04,0.16 3.82,-1.77 5.76,-1.69 1.19,-1.2 5.3,-0.83 6.65,-0.67 2.2,0.26 3.96,1.27 5.37,2.4 2.28,1.82 3.6,5.74 3.24,9.24 -0.19,1.87 -0.67,1.58 -1.18,2.75 -0.38,1.35 -0.17,0.33 0.12,0.73 4,-2.26 0.98,-6.21 3.24,-8.3 0.76,0.23 1.4,0.96 1.89,2.01l-0.07 0.05 0.27 -0.79 0.94 0.08c-3.08,-2.9 -3.55,-3.18 -3.16,-8.45 1.27,-0.12 0.49,0.28 1.8,0.91 -0.02,-1.49 -0.37,-2.13 -0.35,-3.22l0.89 -0.69c0.06,-0.05 0.15,-0.14 0.23,-0.21l-2.01 0.05c1.01,-3.63 8.15,-6.71 12.1,-7.69 0.81,-1.56 0.44,-2.39 1.9,-3.15 -0.18,-2.76 0.06,-5.45 -0.22,-8.37 -0.22,-2.32 -0.61,-4.68 -0.94,-6.87 -0.7,-4.67 -0.83,-9.86 -1.62,-14.3l-0.47 -1.4c-0.11,-0.54 -0.08,-0.84 -0.13,-1.35 -0.25,-2.83 -0.28,-4.74 -1.33,-7.02l-1.29 -4.48c-0.23,-0.13 -0.56,-0.28 -0.71,-0.33 -1.09,-0.39 0.96,0.05 -0.44,-0.05 -0.3,0.93 0.07,2.55 0.15,3.53 -0.04,2.32 1.28,8.17 1.7,10.99l2.96 22.19c0.32,3.37 1.32,9.65 -1.85,10.04l-0.21 -0.48c-0.55,-1.28 -0.8,-1.66 -0.95,-3.07l-1.32 -12.23c-0.36,-2.79 -0.77,-5.21 -1.26,-7.96 -1.41,-8.01 0.12,-5.65 -2.95,-14.82 -0.88,-2.62 -2.69,-11.17 -3.39,-14.38 -0.42,-1.92 -1.76,-5.37 -0.98,-7.05 0.37,-0.55 -0.05,0.01 0.41,-0.58 1.57,-2.02 3.37,-3.93 5.73,-4.29l0.27 -0.97c0.26,-1.65 -1.15,-11.03 -1.13,-14.39 -0.16,-0.29 -0.2,-0.3 -0.34,-0.9l0.12 -5.6c0.03,-0.85 0.74,-4.66 1.2,-5.36 1.31,-2.26 1.85,-1.41 4.42,-1.46l1.04 -0.45c0.42,-2.52 -1.93,-2.55 -3.2,-1.85 -0.76,0.42 -0.37,0.58 -1.59,1.27 -0.75,0.42 -1.13,0.66 -1.87,1.18l-0.7 0.6c-1.5,3.3 -0.77,2.65 -1.26,6.65 -1.05,8.62 1.07,16.77 0.4,20.77 -3.97,1.51 -1.41,1.38 -4.8,2.53 -1.08,0.37 -3.37,1.93 -4.44,2.62 -1.04,0.67 -2.53,2.72 -3.48,3.76 -1.11,1.22 -2.49,2.51 -2.52,5.21l0.34 1.02c1.01,1.29 3.23,8.9 4,11.25 1.1,3.37 2.59,9.02 2.38,12.99 0.65,0.83 0.52,2.89 0.54,4.21 0.12,9.93 1.09,12.53 -0.17,23.7 -0.45,3.95 -2.12,7.17 -0.97,7.71 1.65,-2.72 3.26,-12.66 3.39,-16.87 0.51,-16.43 0.77,-22.25 -3.82,-37.63 -0.51,-1.72 -2.22,-6.65 -1.79,-8.37 0.45,-1.79 3.13,-5.33 4.32,-5.57 2.11,2.65 8.79,32.3 9.69,37.66 0.62,3.72 3.17,18.69 1.84,21.49 -0.76,1.6 -4.5,1.59 -7.08,4.3 -3.6,3.79 -2.54,6.19 -2.9,8.74 -2.21,0.61 -2.9,-1.33 -3.88,-2l-3.12 -0.64c0.21,-1.8 1.37,-4.94 1.84,-6.96 1.88,-8.1 1.19,-16.04 -0.06,-24.15 -1.71,-11.2 -2,-11.91 -4.44,-21.82 -0.7,-2.85 -1.51,-3.81 -2.54,-5.97 -0.91,-1.25 -2.67,-5.36 -3.5,-6.9 -0.82,-1.52 -3.51,-5.33 -3.76,-7.04l2.96 -3.38c1.21,-1.48 6.86,-6.84 7.29,-9.7 -1.19,0.04 -3,2.21 -4.88,2.79 0.47,-2.92 4.88,-6.09 7.77,-6.67l1.8 -0.57c-0.26,-1.62 -0.09,0.15 -0.38,-1.1 -0.35,-1.49 0.23,-1.68 0.53,-3.04 0.34,-1.55 -0.08,-3.97 0.51,-5.1 0.14,-3.03 0.82,-5 3.34,-5.26 1.28,-1.01 1.39,0.07 2.47,-0.95 -0.28,-2.17 -0.74,-0.06 -1.34,-2.29 -0.07,-2.29 0.49,-3.32 1.84,-4.19l0.67 -0.62c1.07,-0.87 0.87,-0.44 1.62,-1.48l0.27 -0.39c0.03,-0.05 0.12,-0.09 0.14,-0.21 0.02,-0.13 0.09,-0.15 0.15,-0.22 -0.04,-3.37 1.65,-4.66 3.59,-5.9 1.86,-1.19 4,-2.27 5.98,-3.35 10.28,-5.59 5.08,-2.37 14.53,-3.6 1.78,0.09 1.19,0.16 2.68,-0.47 4.19,-1.77 3.93,1.3 5.59,1.86 1.07,-0.25 3.4,-1.96 4.54,-2.66 1.35,-0.83 3.5,-1.76 5.14,-2.15 2.49,-2.03 15.64,-5.03 19.7,-5.15l16.57 1.31c1.9,0.53 2.82,1.41 4.25,1.98 -0.84,-0.87 -0.25,-0.35 -0.84,-1.27 -2.08,-3.24 -6.33,-1.41 -7.28,-1.4l-2.39 -0.51c-0.61,-0.28 -0.19,0.01 -0.59,-0.38l-1.19 -0.67c-1.35,-0.42 -2.68,0.34 -4.6,0.44l-0.42 -1.64c-1.58,0.07 -2.62,1.48 -8.91,1.42 -4.33,-0.04 -5.25,1.36 -8.91,1.51z"/>
   <path class="fil4" d="M73.43 7.29c-0.41,0.69 -0.56,0.99 -0.86,1.55 -0.42,0.76 -0.39,0.5 -0.75,1.19l2.33 -0.44c2.22,-0.11 4.14,-1.58 7.45,-1.54 -0.32,0.5 -0.26,0.61 -1.43,1.07 -4.2,1.66 -5.32,3.24 -9.42,5.74l-3.1 2.19c0,0.06 -0.02,0.09 -0.03,0.17 -0.07,0.62 -1.35,1.52 -1.44,1.82 0.04,1.37 2.69,10.46 3.41,11.26l1.18 -0.26c1.14,-0.02 4.08,-1.57 5.34,-2.1 1.84,-0.77 3.74,-1.5 5.71,-2.01 1.62,-0.85 3.99,-1.25 5.99,-1.55 2.51,-0.39 4.35,-1.24 6.51,-1.6 1.22,-1.03 7.38,-1.65 9.38,-1.67 1.15,-0.01 3.16,0.75 4.57,1.02 2.16,0.41 2.36,1.1 3.51,2.25l1.23 -0.22c1.3,-0.12 2.68,-0.8 4.04,-1.3 1.45,-0.54 2.23,-1.4 3.27,-2.16 0.05,-0.07 0.14,-0.24 0.17,-0.18l0.7 -0.6c0.31,-0.2 0.79,-0.41 1.11,-0.56 4.6,-2.04 5.31,-0.92 7.83,-0.62l0.21 -0.64c-2.03,-2.56 -5.18,-4.54 -7.88,-6.65 -1.4,-1.09 -2.65,-2.09 -4.01,-3.14 -0.99,-0.76 -4.03,-2.33 -4.48,-2.88 -1.43,-0.57 -2.35,-1.45 -4.25,-1.98l-16.57 -1.31c-4.06,0.12 -17.21,3.12 -19.7,5.15z"/>
   <path class="fil1" d="M110.68 115.88l1.17 -0.14c-0.09,1.07 0.17,0.56 -0.35,1.15l-0.94 0.64c-0.03,-0.06 -0.13,0.08 -0.19,0.14 0.54,1.24 0.53,1.85 -0.23,3.3 -1.13,-1.72 -0.37,-2.82 -0.99,-4.73l1.53 -0.36zm-8.1 3.83c-0.6,-0.32 -0.93,-1.98 -0.76,-2.9 0.3,-1.69 0.79,-0.19 0.22,-2.89 1.8,0.15 1.03,0.91 0.85,2.52 -0.14,1.23 0.17,2.25 -0.3,3.27zm-9.19 -15.03c0.72,0.49 0.11,-0.2 0.63,0.82 0.4,0.79 0.2,0.26 0.37,0.97 -1.41,0.94 -1.49,-0.51 -1,-1.79zm3.69 2.3c-1.1,-0.32 -1.22,-0.28 -1.48,-1.31 1.3,0.14 1.12,0.11 1.48,1.31zm20.05 -2.75l-2.93 2.63c-2.09,2.08 -4.48,1.67 -6.75,2.85 0.49,-1.54 0.56,-0.59 0.71,-2.54 0.1,-1.4 0.2,-1.61 0.86,-2.4 -0.12,1.16 -1.79,5.61 4.49,1.54 0.53,-0.72 -0.71,-0.21 0.79,-0.7l-0.1 -1.54c0.91,-0.74 0.45,0.06 0.98,-0.93 -0.04,-0.09 -0.11,-0.36 -0.14,-0.41 -0.02,-0.05 -0.12,-0.11 -0.14,-0.25 -0.02,-0.16 -0.11,-0.19 -0.18,-0.28 -1.72,-0.48 -3.8,0.81 -5.14,1.5 0.06,-2.16 -0.46,-1.86 -1.38,-3.3 -2.5,-3.93 -2.03,-1.37 -7.84,1.7l1.52 0.69c2.18,0.65 3.3,0.55 3.65,1.93 -1.29,0.56 -3.41,0.4 -4.65,-0.27 -2.61,-1.42 -2.34,0.12 -8.48,-2.02 -1.1,-0.38 -3.19,-0.42 -4.49,-0.68 -8.9,-1.81 -5.76,-4.49 -17.1,-4.3 0.75,-0.92 -0.11,-0.09 0.71,-0.55 0.45,-0.25 0.09,-0.06 0.46,-0.19l1.84 -0.48c0.8,-0.37 0.38,-0.13 0.81,-0.51 -1.37,-4.03 -4.07,-1.98 -7.64,-1.76 -0.81,2.05 -1.24,4.39 -1.17,7.04 2.88,0.84 5.27,1.92 8.39,1.65 2.33,0.13 6.6,1.15 8.85,2.1 1.73,0.74 1.81,0.54 2.23,1.46 -1.81,-0.63 -4.46,-1.96 -6.51,-0.92l0.07 1.56c0.56,0.2 1.36,2.13 2.78,3.56 0.99,1 2.28,2.15 3.56,3.04 1.32,0.92 7.28,4.36 9.05,3.37 1.24,-1.5 -2.07,-1.93 -1.57,-8.58 0.06,-0.81 1.81,-1.15 3.17,-0.48 2.16,1.05 0.43,0.11 2.39,-0.05 1.39,1.3 1.66,1.7 2.08,4.33 -1.81,-0.45 -0.55,-1.42 -3.15,-1.75 -1.22,-0.16 -3,-1.11 -3.73,-0.6 -1.2,1.94 2.39,3.98 3.45,4.89l4.2 4.77c3.41,4.31 2.18,10.93 6.06,11.97 1.79,-1.49 3.88,-8.43 7.57,-13.63 0.91,-1.28 1.28,-2.06 2.34,-2.89 0.94,-0.73 2.61,-1.18 2.55,-2.67 -0.15,-3.88 -4.96,0.33 -6.32,0.63 0.41,-0.88 0.58,-0.83 0.99,-1.79 0.3,-0.7 0.4,-1.14 0.72,-1.63 0.46,-0.67 1.87,-1.77 2.94,-2.06 1.59,0.72 3.44,3.12 3.16,5.67 -1.39,0.8 -2.47,0.33 -2.58,2.5 4.99,0.04 14.23,-6.23 16.8,-10.47 -0.33,-1.36 -0.54,-0.82 -0.95,-2.16 0.63,-0.38 1.54,-0.33 2.51,-0.84 3.37,-1.76 4.21,-1.08 7.5,-1.5 1.59,-0.2 3.24,-1.26 4.7,-1.89 1.92,-0.83 2.65,-1.14 2.26,-4.04 -0.31,-2.3 -1,-3.28 -1.77,-5.09 -0.94,-2.21 -0.64,-3.2 -3.15,-2.3 -1.72,0.62 -3.72,0.39 -5.27,1.09 -1.33,0.6 -0.8,0.54 -1.44,1.82 -0.64,1.28 -0.78,0.75 -1.31,2.07 0.97,-0.13 1.37,-0.6 2.47,-0.5 1.83,0.17 4.78,1.12 5.25,3.01 -4.04,0.08 -5.07,-1.14 -8.7,0.86 -2.11,1.16 -4.18,2.43 -6.26,3.61 -3.44,1.95 -3.58,1.81 -7.84,1.72 -4.04,-0.08 -4.56,0.8 -6.23,3.39z"/>
   <path class="fil2" d="M42.3 34.48c0.88,0.39 1.67,1.37 0.9,2.69 2.39,-0.95 7.23,-3.76 8.23,-4.02 -1.17,2.31 -5.14,4.1 -7.2,5.93l-6.59 5.7 0.49 -1.32c-1.24,0.17 -1.45,0.69 -2.3,0.83 -1.95,0.33 -0.75,-0.84 -2.17,-0.36 -0.53,1.46 -0.29,2.29 -0.29,3.86 -0.02,3.37 1.39,12.74 1.13,14.39 0.18,0.27 0.18,0.24 0.37,0.72l1.3 5.04c3.99,12.5 8.03,23.89 13.16,35.62 6.45,14.77 8.36,23.48 9.21,40.07 0.13,2.59 -0.3,4.53 1.12,5.71 1.27,-0.19 1.17,0.27 1.31,-1.67 0.79,-11.25 -0.04,-26.24 -4.25,-35.93 -5.3,-12.19 -15.69,-35.68 -15.29,-49.12 0.13,-4.31 1.41,-5.41 2.54,-8.37 0.66,-1.73 0.51,-2.4 1.52,-3.84 3.27,-4.67 3.13,-3.9 7.62,-7.66 1.84,-1.54 3.88,-2.81 5.68,-4.31 3.43,-2.85 9.52,-6.27 11.32,-7.77l0.32 -0.3c0.04,-0.03 0.13,-0.06 0.16,-0.17 0.03,-0.11 0.1,-0.11 0.15,-0.17l-1.18 0.26c-0.72,-0.8 -3.37,-9.89 -3.41,-11.26 0.09,-0.3 1.37,-1.2 1.44,-1.82 0.01,-0.07 0.03,-0.11 0.03,-0.17 -4.49,3.21 -8.21,6.12 -12.2,9.51 -1.96,1.67 -4.28,2.53 -6.58,3.89 -1.74,1.03 -5.35,2.82 -6.56,4.02z"/>
   <path class="fil1" d="M133.69 65.21c0,2.75 -2.79,3.93 -4.55,5.28 -4.51,3.45 -12.76,12.41 -17.61,12.14 -1.16,2.01 -0.49,-0.12 -3,4.76 -0.98,1.9 -2.6,2.73 -2.37,5.22 0.23,0.92 0.37,0.92 0.54,1.92 -1.2,-0.59 -2.56,-2.66 -3.34,-3.71 -1.04,-1.41 -2.06,-2.46 -3.31,-3.63 -3.28,-3.09 -3.24,-3.78 -8.27,-5.7 -3.64,-1.39 -5.9,-3.2 -8.62,-5.25 -2.48,-1.86 -6.15,-3.78 -7.2,-6.64 1.64,0.84 3.38,2.21 5.37,3.46 0.95,0.59 1.84,1.17 2.76,1.8 1.02,0.7 1.89,1.76 2.87,2.13 -1.11,-7.61 -1.49,-7.73 -5.69,-11.13l-1.97 -0.74c-3.55,1.88 -7.27,5.44 -4.81,11.47 5.73,14.09 13.81,9.35 19.33,15.87 1.52,1.8 1.9,3.53 3.46,5.62 1.54,2.06 4.31,1.26 5.97,-0.8 -0.79,-1.64 -3.42,-3.06 -4.24,-3.97 -0.53,-0.58 -0.18,-0.06 -0.55,-0.78 1.56,0.33 4.06,1.28 5.06,2.43 1.57,1.81 2.39,2.52 4.65,0.69 3.75,-3.05 5.43,-6.78 7.29,-7.58 -0.65,1.46 -3.49,6.98 -4.78,7.92 -0.13,-0.27 -0.02,-0.1 -0.11,-0.51l-1.66 1.13c2.93,4.23 7.61,-0.78 10.28,-2.86 3.16,-2.47 5.53,-5.08 8.89,-7.45 4.21,-2.97 9.87,-9.4 9.57,-15.59 -0.27,-5.55 0.32,-5.48 -1.84,-6.79 -1.55,-0.02 -1.66,0.01 -2.13,1.32z"/>
   <path class="fil5" d="M73.13 53.84c2.91,-1.08 2.1,3.8 -0.14,4.59 -2.89,1.02 -2.52,-3.6 0.14,-4.59zm-2.38 -23.79c-0.05,0.06 -0.13,0.06 -0.15,0.17 -0.03,0.11 -0.12,0.13 -0.16,0.17l-0.32 0.3c-1.8,1.5 -7.89,4.91 -11.32,7.77 -1.81,1.5 -3.85,2.77 -5.68,4.31 -4.49,3.76 -4.35,2.99 -7.62,7.66 -1.01,1.44 -0.86,2.11 -1.52,3.84 -1.12,2.96 -2.41,4.06 -2.54,8.37 -0.39,13.44 9.99,36.93 15.29,49.12 4.21,9.69 5.04,24.68 4.25,35.93 -0.14,1.94 -0.04,1.48 -1.31,1.67l0 0.44 2.82 -0.31c0.13,-5.22 0.97,-10 0.65,-15.44l-1.43 -15.07c-1.09,-5.29 -8.71,-21.11 -8.71,-22.86 -0.75,-0.74 -1.17,-2.02 -1.69,-3.21l-4.16 -10.48c-1.75,-2.47 -1.52,-5.87 -1.92,-9.11 -0.24,-4.07 0.11,-3.1 1.09,-6.15 0.53,-1.63 0.35,-1.17 1.48,-2.06 0.85,-0.68 1.19,-1.22 1.93,-1.8 -0.17,-0.16 0.14,-0.87 -1.66,-0.05 0.57,-1.7 2.42,-2.01 5.05,-2.86 4.01,-1.3 9.93,-1.55 13.99,-0.73 2.91,0.59 3.1,1.92 4.9,3.41 0.04,-2 0.94,-2.07 2.58,-1.99l0.17 1.04c2.56,-1.79 5.47,-4.79 5.75,-8.51 -4.13,0.16 -2.78,3.87 -6.19,-0.95 -1.15,-1.62 -0.51,-1.43 -1.14,-3.28 -2.91,-0.61 -8.73,8.21 -17.81,7.38 0.56,-3.17 2.73,-0.42 5.57,-7.5 1.27,-3.17 3.3,-5.39 4.32,-8.82 -3.63,1.21 -6.35,4.26 -8.77,7.1 -1.11,1.3 -2.67,4.09 -5.42,3.61 0.39,-2.13 4.29,-5.79 5.85,-7.14 3.73,-3.22 2.79,-6.01 6.15,-6.81 -0.33,1.35 -0.67,1.15 -0.72,2.57 2.27,-0.22 0.99,-0.99 4.94,-3.38 1.9,-1.15 3.16,-2.25 4.89,-3.35 0.69,-0.43 0.83,-0.66 1.35,-0.93 0.59,-0.3 0.81,-0.24 1.44,-0.5 0.9,-0.36 1.88,-0.82 2.39,-1.6 1.15,-1.75 0.68,-0.99 2.29,-2.01 0.7,-0.44 1.72,-1.45 2.17,-2.07 -1.97,0.51 -3.87,1.24 -5.71,2.01 -1.26,0.53 -4.2,2.08 -5.34,2.1z"/>
   <path class="fil4" d="M99.88 35.76c-0.69,0.53 -5.02,2 -6.34,6.58 -1.13,3.91 -3.24,4.28 -5.16,8.04 -0.84,1.65 -1.55,2.61 -0.58,4.77 0.49,1.08 2.37,2.14 3.77,2.39 1.51,0.27 5.65,0.44 6.59,0.91 1.05,0.52 0.46,0.51 0.91,0.77 0.95,0.54 0.89,-0.69 1.36,-1.49l1.63 0.06 0.58 -4.41c-3.25,0.28 -9.66,4.22 -7.8,-4.25 4.54,-1.42 16.41,-2.44 21.78,-2.33 2.23,0.05 5.87,0.69 7.55,0.58 4.51,0.7 0.06,-4.36 1.4,-11.61 0.45,-2.44 1.65,-2.96 1.71,-5.59 0.06,-3.05 0.89,-4.56 0.91,-6.51l-0.75 -0.16c-0.8,0.12 -0.82,0.25 -1.58,0.86l-4.5 3.19c-2.24,1.42 -4.07,2.43 -6.47,3.72 -4.54,2.46 -9.75,3.07 -15.02,4.47z"/>
   <path class="fil2" d="M70.59 36.82c-1.09,0.32 -4.41,2.71 -5.36,3.62 -1.02,3.43 -3.05,5.65 -4.32,8.82 -2.84,7.08 -5,4.33 -5.57,7.5 9.08,0.83 14.9,-7.99 17.81,-7.38 0.63,1.85 -0,1.66 1.14,3.28 3.4,4.82 2.06,1.1 6.19,0.95 -0.28,3.73 -3.18,6.72 -5.75,8.51l-0.92 3.56c1.73,-0.63 8.44,-6.8 10.56,-6.67 0.29,2.65 0.23,5.98 1.3,7.82l0.91 -0.39c0.93,-1.11 1.44,-1.88 2.3,-3.41 1,-1.77 1.53,-1.58 3.56,-1.88 3.22,-0.48 5.88,-1.33 9.11,-1.12l0.5 -2.25 -1.63 -0.06c-0.47,0.8 -0.41,2.03 -1.36,1.49 -0.45,-0.25 0.15,-0.25 -0.91,-0.77 -0.94,-0.46 -5.08,-0.63 -6.59,-0.91 -1.4,-0.25 -3.28,-1.31 -3.77,-2.39 -0.97,-2.16 -0.26,-3.11 0.58,-4.77 1.91,-3.76 4.02,-4.13 5.16,-8.04 1.33,-4.58 5.65,-6.05 6.34,-6.58 -1.43,0.23 -2.83,0.45 -4.26,0.67 -1.44,0.22 -2.64,0.79 -3.84,0.94 -1.27,-1.22 -1.75,-2.96 -3.23,-3.98 -1.66,-0.37 -2.48,0.22 -2,2.07 1.59,6.06 2.74,1.52 4.59,3.4 0.41,0.57 0.21,-0.57 0.27,0.89 0.03,0.78 -0.43,1.66 -1.13,2 -2.75,1.33 -3.29,-1.97 -7.72,4.7 -2.16,-0.07 -5.48,-2.56 -6.73,-4.21 -0.91,-1.2 -1.93,-2.01 -2.55,-2.97 -0.86,-1.32 -0.89,-2.72 -2.7,-2.46z"/>
   <path class="fil6" d="M113.95 5.43c0.46,0.55 3.49,2.11 4.48,2.88 1.36,1.05 2.61,2.05 4.01,3.14 2.7,2.11 5.85,4.09 7.88,6.65 2.78,1.31 1.36,1.78 5.08,0.5l10.7 -2.55c5.54,-1.17 7.28,-5.02 15.04,0.53 2.26,1.62 5.75,4.32 7.41,6.2 0.82,0.6 1.87,2.37 2.34,3.17 0.66,0.59 0.44,0.77 1.12,1.14 0.86,0.33 0.91,0.47 1.54,-0.28 0.46,-0.55 0.09,-0.22 0.44,-0.73 0.25,-0.36 0.1,-0.25 0.44,-0.52 2.45,0.16 10.16,3.8 12.58,4.97 3.95,1.91 6.55,5.64 8.81,9.09 5.92,9.01 7.02,18.05 7.95,29.51 1.17,14.49 -8.05,29.23 -11.8,44.58 -1.09,4.46 -2.16,11.55 -3.44,15.08 -0.4,0.47 -0.06,0.12 -0.68,0.49 -0.34,0.2 -0.16,0.09 -0.41,0.21 -0.08,0.04 -0.71,0.3 -0.81,0.33 -0.65,0.19 -1.09,0.17 -1.68,0.53 -2.2,0.57 -8.07,4.18 -9.7,6.88 -2.32,3.86 -2.46,9.35 1,13.23 4.34,4.86 12.66,5.61 18.95,4.37 1.22,-0.24 2.04,-0.46 3.14,-1.02l2.34 -1.82c0.23,-0.97 1.14,-2.43 0.75,-3.2 -1.04,0.32 -3.54,2.75 -5.49,2.8 -0.34,0.43 0.41,0.1 -0.88,0.63 -0.17,0.07 -0.67,0.18 -0.88,0.22 -0.64,0.14 -1.29,0.25 -1.83,0.34 -5.28,0.88 -3.24,0.24 -5.59,-0.23 -0.66,-0.13 -1.22,-0.05 -1.95,-0.15 -6.29,-0.88 -9.55,-5 -8.13,-12.36 0.32,-1.68 0.64,-1.58 0.77,-1.72 0.43,-3.47 6.77,-5.85 10.46,-6.71l0.45 -0.29c0.07,-0.04 0.14,-0.08 0.23,-0.12l0.94 -0.2c0.95,-0.13 0.72,0.16 1.59,-0.36l-0.47 -0.95 -0.73 -0.49c0.32,-2.12 1.22,-5.69 1.69,-7.9 1.13,-5.21 5.07,-16.27 6.79,-21.27 6.45,-18.77 9.99,-25.45 5.03,-47.51 -1.87,-8.33 -7.8,-18.06 -14.07,-22.84 -1.75,-1.34 -3.4,-2.33 -5.49,-3.3 -1.44,-0.67 -5.41,-1.93 -6.12,-2.68 -1.28,-0.24 -6.07,-1.53 -7.03,-2.07 -1.69,-0.96 -3.64,-2.58 -5.1,-3.73 -3.46,-2.73 -6.54,-6.19 -12.31,-5.8 -2.75,0.79 -14.68,4.17 -16.9,3.46 -3.01,1.85 -6.95,-1.13 -9.09,-2.95 -2.04,-1.73 -4.53,-4.03 -7.02,-5.46 -1.17,-0.47 -1.84,-1.15 -2.96,-1.68 -1.62,-0.77 -1.88,0.03 -3.41,-0.06z"/>
   <path class="fil7" d="M181.18 64.73c-0.12,5.14 -3.56,23.6 -5.36,26.78 -0.8,1.98 -1.13,3.02 -1.55,5.26 -0.3,1.65 -0.5,4.57 -1.29,5.75 0.01,2.81 -3.86,16.81 -4.79,20.44 -1.72,6.71 -4.09,12.6 -6.16,18.79 -0.59,2.56 -3.4,12.6 -3.16,14.69 0.53,-0.98 0.35,-0.99 1.23,-1.34 0.24,2.24 -0.52,6.54 -0.91,8.85 -0.46,2.73 -2.07,6.49 1.18,6.57 1.09,-10.76 1.65,-20.06 4.35,-29.9 2.44,-8.9 5.23,-17.52 7.35,-26.52 1.08,-4.58 2.14,-9.2 3.32,-13.46 1.23,-4.44 2.34,-9.09 3.86,-13.24 1.7,-4.66 2.73,-8.22 3.44,-13.69 0.61,-4.69 1.27,-11.37 1.43,-16.03 2.35,1.06 13.42,23.09 6.4,32.73 -2.14,2.94 -3.99,0.52 -4.17,6.53 -0.11,3.71 -0.28,7.4 -0.47,11.09 -0.18,3.6 -0.37,7.23 -0.39,10.87 -0.03,3.72 0.36,8.11 -0.53,11.44 0.6,-0.36 1.03,-0.34 1.68,-0.53 0.1,-0.03 0.73,-0.29 0.81,-0.33 0.25,-0.12 0.08,-0.01 0.41,-0.21 0.61,-0.37 0.28,-0.02 0.68,-0.49l-1.48 0.1c0.04,-3.94 0.35,-7.96 0.58,-11.84 0.2,-3.5 1.04,-8.04 1,-11.38 -0.02,-2.4 -0.49,-6.98 0.32,-9 2.58,-0.75 3.16,0.84 5.46,-1.02 0.27,-0.89 0.87,-2.07 1.24,-3.08 0.4,-2.46 1.34,-5.44 1.4,-7.97 0.07,-2.93 -0.6,-5.63 -0.97,-8.25l-0.51 -0.87c-1.8,-3.62 -2.84,-9.6 -3.83,-11.1 -1.96,-2.99 -4.36,-6.95 -6.84,-9 -0.84,0.53 -0.39,0.53 -0.96,0.75 -0.68,0.27 -0.21,-0.21 -1.07,0.16 -1.86,0.81 -0.9,5.36 -1.51,7.86l-0.19 0.57z"/>
   <path class="fil8" d="M143.58 34.55c-0.7,0.21 -1.94,0.7 -2.7,1.19 0.75,1.52 0.82,0.56 2.46,0.33 0.62,0.69 0.52,0.79 1.03,1.59 0.39,0.61 0.69,0.87 1.06,1.37 0.42,0.53 0.33,-0.83 0.47,1.04 -0.76,0.55 -1.74,0.24 -2.55,-0.03 -5.98,-1.96 -4.93,2.17 -5.19,3.65l-3.89 1.85c0.66,-2.42 1.68,-0.97 2.55,-3 -1.07,-0.49 -1.86,0.33 -3.54,-0.2 -0.47,-3.49 0.69,-2.7 1.83,-4.12 0.1,-2.32 -1.7,-1.32 -0.82,-4.1 -5.64,3.49 -3.19,12.76 -2.08,14.39 0.69,1.01 1.42,1.28 2.11,2.84 3.63,8.26 3.54,2.24 2.85,10.53l-1.03 -0.27c0.63,0.89 4.71,6.5 5.01,6.71 0.37,-0.48 -0.03,-1.18 -0.15,-2.3 -0.2,-1.89 0.15,-1 -0.8,-2.44l0.34 -0.2c0.04,-0.02 0.13,-0.07 0.18,-0.09l1.01 -0.34c0.22,-2.32 -0.39,-2.13 0.36,-4.56 0.49,-1.6 0.49,-2.79 1.82,-3.21 -0.5,3.46 -1.51,3.96 -0.28,7.75 0.55,-0.21 0.39,-0.14 0.91,-0.52 0.19,-1.05 0.45,-1.12 0.61,-2.29 0.3,-2.15 0.72,-6.37 2.49,-7.4 1.05,-0.61 8.2,-2.96 9.23,-2.93 0.76,-0.77 3.96,-0.89 5.89,-1.36 -0.47,-0.93 -1.3,-1.34 -2.07,-2.56 -0.71,-1.12 -1.09,-1.51 -1.41,-3.18l-1.14 -1.63c-0.63,-1.39 -0.72,-2.98 -2.96,-4.06 -2.89,-1.39 -2.69,-3.23 -4.82,-4.31 -0.75,1.36 -0.08,1.81 -1.62,3.29 -1.51,0.06 -1.43,-0.4 -2.49,-0.53 -1.28,-0.16 -1.01,0.28 -2.12,0.52 -0.67,-1.99 0.3,-0.45 -0.55,-1.41z"/>
   <path class="fil2" d="M185.24 55.01c2.26,-0.38 7.48,3.11 9.11,4.23 1.85,1.25 2.3,1.31 3.43,3.5 0.66,1.29 2.3,3.74 2.51,4.54 -3.25,2.17 -4.15,1.34 -4.21,9.08 0.36,2.62 1.04,5.31 0.97,8.25 -0.06,2.53 -1,5.51 -1.4,7.97 1.9,-2.02 4.63,-9.29 5.21,-11.99 2.93,-13.71 0.19,-16.13 0.16,-21.34 -0.02,-2.5 0.09,-3.11 -0.59,-5.42 -2.39,-8.09 -3.36,-8.9 -7.39,-15.65 -0.79,-1.32 -1.41,-2.31 -2.45,-3.08 -0.98,-0.73 -2.26,-2.06 -3.17,-2.56 -1.36,-0.75 -4.72,-1.59 -5.78,-2.29 -0.94,-0.62 -0.52,-0.76 -1.83,-1.15 0.75,1.04 1.52,1.74 1.46,3.67 -0.98,-0.56 -1.1,-1.23 -2.52,-1.07 0.14,2.06 1.12,1.26 3.11,4.15 3.35,4.87 2.16,5.36 2.8,12.25 0.41,4.41 -0.02,3.84 -0,5.3l0.59 1.61z"/>
   <path class="fil9" d="M148.74 177.12c-3.02,0.84 -6.24,6.63 -4.6,11.67 3.3,10.12 18.84,11.13 19.47,4.92 0.27,-2.64 -1.89,-3.6 0.54,-7.07 1.21,-1.72 2.94,-2.56 5.61,-2.1 0.92,1.74 0.79,1.71 1.06,4.05 0.21,1.79 1.07,2.37 -0.03,3.46 -0.01,-0.18 0.07,-0.58 0.07,-0.6l-0.25 -1 -7.44 5.88c2.29,-0.29 4.87,-1.42 6.75,-2.44 2.12,-1.15 4.09,-1.76 4.14,-5.09 0.05,-3.52 0.76,-5.2 -1.24,-7.79 -0.92,-1.19 -3.33,-3.22 -4.91,-4.08 -0.09,1 0.27,0.32 -0.27,0.87 -1.91,-0.46 -3.84,-1.74 -6.14,-1.27 -0.43,2.09 1.39,2.55 -1.29,4.37 -1.59,1.08 -2.04,0.89 -3.5,2.18 -2.46,2.2 -1.47,-0.76 -6.55,0.79 -1.12,0.34 -0.34,0.63 -1.68,1.16 -1.26,-1.27 -0.66,-1.92 -0.3,-3.43 0.39,-1.63 -0.04,-3.35 0.56,-4.47z"/>
   <path class="fil10" d="M34.78 24.43c-0.76,0.92 -0.6,1.36 -1.84,1.92 -1.04,-0.5 -1.45,-1.15 -1.55,-2.79 -0.05,0.07 -0.12,0.09 -0.15,0.22 -0.02,0.12 -0.11,0.16 -0.14,0.21l-0.27 0.39c-0.76,1.04 -0.56,0.61 -1.62,1.48l-0.67 0.62c2.77,0.07 1.44,4.41 -1.84,4.19 0.6,2.23 1.06,0.12 1.34,2.29 -1.08,1.01 -1.19,-0.07 -2.47,0.95l1.63 0.08c0.03,0.46 -0.95,5.31 -1.31,6.05 -0.73,1.51 -2.05,3.7 -3.54,3.72l-0.13 -4.59c-0.59,1.13 -0.16,3.55 -0.51,5.1 -0.3,1.37 -0.87,1.56 -0.53,3.04 0.29,1.25 0.13,-0.52 0.38,1.1l-1.8 0.57c1.77,-0.11 4.99,-0.37 6.62,0.13 0.65,1.08 0.77,2.69 0.47,4.5 -0.2,1.18 -1.44,1.98 -2.28,2.56 -2.28,1.58 -3.57,2.24 -5.56,4.14 -1.53,1.46 -5.18,7.18 -5,10.02 0.05,0.69 0.45,3.87 0.59,4.71 0.49,1.23 0.84,0.74 1.72,1.73 0.03,-2.7 1.41,-3.99 2.52,-5.21 0.95,-1.05 2.45,-3.09 3.48,-3.76 1.07,-0.69 3.35,-2.25 4.44,-2.62 3.4,-1.15 0.83,-1.02 4.8,-2.53 0.68,-4 -1.45,-12.15 -0.4,-20.77 0.49,-4 -0.24,-3.34 1.26,-6.65 -1.05,0.76 -3.47,4.01 -4.99,4.29 -0.3,-4.12 3.85,-7.03 5.43,-9.41 1.96,-2.95 5.7,-6.59 6.08,-8.68 -2.42,0.03 -2.94,1.54 -3.7,2.47 -0.35,0.43 -0.09,0.17 -0.49,0.52z"/>
   <path class="fil5" d="M55.49 10.71l1.36 0.78c0.03,-0.06 0.11,0.08 0.16,0.13 -0.88,0.96 -3.01,1.36 -4.58,1.55 -1.82,1.38 -4.86,1.81 -7.2,2.94 -1.28,0.62 -1.42,1.7 -2.21,3.04 -0.7,1.19 -1.45,2.13 -1.22,3.71 0.48,3.27 -2.94,2.69 -4.88,4.76 -1.1,1.17 -1.06,2.08 -1.84,3.45 -0.7,1.22 -1.42,2.33 -1.93,3.56 0.73,-0.52 1.12,-0.76 1.87,-1.18 1.22,-0.69 0.83,-0.85 1.59,-1.27 1.27,-0.7 3.62,-0.67 3.2,1.85l-1.04 0.45c0.25,0.37 0.35,0.54 0.58,0.96 -0.33,0.91 -0.45,0.66 -0.95,1.29 -1.15,1.43 -0.94,3.25 -3.4,2.84 -0.66,-1.08 -0.68,-2.21 -0.65,-3.63 -0.45,0.71 -1.16,4.52 -1.2,5.36l-0.12 5.6c0.14,0.6 0.18,0.62 0.34,0.9 -0,-1.58 -0.25,-2.4 0.29,-3.86 1.42,-0.48 0.22,0.69 2.17,0.36 0.86,-0.15 1.06,-0.66 2.3,-0.83l-0.49 1.32 6.59 -5.7c2.07,-1.82 6.03,-3.61 7.2,-5.93 -1,0.26 -5.84,3.07 -8.23,4.02 -0.85,0.72 -3.53,2.22 -4.7,2.07 -0.44,-1.61 0.52,-2.29 1.37,-2.99 0.72,-0.59 1.63,-1.45 2.42,-1.78 1.21,-1.2 4.81,-2.99 6.56,-4.02 2.3,-1.37 4.62,-2.22 6.58,-3.89 3.99,-3.39 7.7,-6.3 12.2,-9.51l3.1 -2.19c-0.75,-3.08 -3.92,0.67 -5.19,1.64 -0.86,0.66 -1.71,1.3 -2.61,1.96 -1.21,0.89 -1.5,1.63 -2.48,2.14 -2.23,2.21 -5.23,3.34 -8.18,4.81 -2.07,1.03 -6.37,4.33 -8.73,3.71 -0.02,-1.86 7.67,-7.94 9.3,-9.22 1.01,-0.79 10.35,-6.96 10.89,-7.8 -1.66,-0.56 -1.39,-3.63 -5.59,-1.86 -1.48,0.63 -0.9,0.56 -2.68,0.47z"/>
   <path class="fil11" d="M159.29 42.69c0.32,1.67 0.7,2.06 1.41,3.18 0.77,1.23 1.6,1.64 2.07,2.56 -1.93,0.47 -5.13,0.59 -5.89,1.36l1.1 -0.06c-1.3,0.94 -2.32,1.29 -4.21,1.68l-0.18 1.52c2.79,-0.71 5.99,-1.69 9.18,-1.4 3.07,0.28 4.19,2.84 4.93,6.06 0.66,2.83 2.19,20.32 0.9,21.12 -0.23,4.61 -2.46,18.15 -3.41,23.12 -1.4,7.32 -2.86,14.64 -4.65,21.6 -4.47,17.39 -5.97,26.56 -7.28,45.25 0.24,0.62 -0.11,0.45 0.41,0.43 1.26,-3.45 1.05,-8.79 1.45,-12.71 0.52,-5.16 3.72,-17.76 5.17,-23.06 0.7,-2.58 1.76,-9.59 3.4,-10.63l2.42 -9.06c0.64,-4.51 2.05,-9.66 2.94,-14.43 0.92,-4.88 1.53,-10.16 1.83,-15.25 0.51,-8.81 0.14,-23.52 -2.18,-31.23l-1.57 -2.2c-0.06,-0.06 -0.27,-0.27 -0.31,-0.32l-0.33 -0.33 -3.01 -3.22c-1.06,-1.22 -1.52,-2.39 -2.17,-3.99 -1.58,-3.9 -2.18,-5.51 -4.64,-7.53 -0.06,0.06 -0.16,0.12 -0.19,0.16l-0.48 0.5c-0.46,-0.78 -0.74,-1.11 -1.51,-1.24 0.59,1.21 4.04,3.31 4.79,8.12z"/>
   <path class="fil9" d="M45.54 153.56c5.7,0.6 5.63,-1.81 7.62,1.89 0.62,1.16 0.32,6.03 -3,4.68 1.17,5.21 -2.24,5.85 -4.21,8.55 -0.01,3.74 1.75,3.15 4.31,4 1.36,0.45 1.42,0.86 3.2,0.93 1.36,0.06 2.35,-0.3 3.54,-0.16l1.11 -0.7c1,-0.78 0.66,-2.13 2.78,-2.69l-0.42 1.66 0.75 -0.09c2.81,-0.88 4.69,-3.49 5.68,-7.04 1.32,-4.73 -0.96,-7.7 -2.88,-9.55 -2.66,-2.56 -4.37,-3.17 -8.72,-3.51 -3.73,-0.29 -7.23,0.13 -9.75,2.02z"/>
   <path class="fil12" d="M41.42 128.61c1.42,0.1 3.6,0.48 4.48,1.43 9.08,2.26 10.04,16.71 1.56,20.02 -6.01,2.35 -5.5,2.03 -9.31,-0.32 -1.21,-0.75 -2.66,-0.86 -3.41,-1.34 -0.75,-0.48 -0.48,-0.34 -0.79,-0.8l-0.47 -0.88c-1.01,-0.47 0.06,-0.15 -1.24,-0.33l0.36 1.53 -0.69 -0.02 -0.94 -0.08 -0.27 0.79 0.04 -0.03c2.6,2.16 3.29,1.24 6.02,2.44 6.4,2.81 3.5,0.54 5.36,3.01l2.91 -0.68 0.5 0.19c2.52,-1.89 6.03,-2.31 9.75,-2.02 4.35,0.34 6.06,0.95 8.72,3.51 1.92,1.85 4.2,4.81 2.88,9.55 -0.99,3.55 -2.87,6.17 -5.68,7.04 -0.78,1.02 -2.86,1.8 -4.22,1.82 -1.19,-0.14 -2.18,0.21 -3.54,0.16 -1.78,-0.08 -1.85,-0.48 -3.2,-0.93 -2.55,-0.84 -4.32,-0.25 -4.31,-4 1.97,-2.7 5.39,-3.34 4.21,-8.55 -1.01,-1.4 -0.82,-2.82 -2.78,-3.01 -1.85,-0.2 -2.64,-0.42 -3.32,1.98 -0.48,1.72 -0.53,3.94 -0.28,5.87l1.37 0.98c0.89,0.33 0.61,0.07 1.1,0.88 -0.14,0.62 -0.03,0.42 -0.34,0.79 -0.72,0.8 -0.77,0.49 -1.65,1.07 -0.21,2.31 1.37,3.07 1.98,4.73 -1.56,-0.14 -2.08,-1.13 -3.62,-1.62 -1.29,-0.41 -0.59,-0.29 -1,0.1 4.43,2.75 5.23,3.66 11.29,4.22 4.11,0.38 9.24,-1.41 11.96,-3.62 2.22,-1.8 4.55,-7.97 3.72,-12.56 -1.45,-8.06 -6.6,-5.25 -6.11,-10.45l-2.82 0.31 -3.55 -0.7c-1.3,0.88 -1.9,0.66 -3.57,0.5 0.35,-3.06 2.39,-4.42 2.35,-7.81 -0.03,-2.33 -0.9,-6.38 -1.65,-8.1 -1.69,-3.86 -4.13,-4.88 -7.49,-6.25 -1.63,-0.66 -1.74,-0.48 -2.42,-1.99 -1.46,0.77 -1.09,1.6 -1.9,3.15z"/>
   <path class="fil13" d="M179.15 28.84c0.12,0.05 0.49,0.15 0.66,0.26 1.31,0.39 0.89,0.53 1.83,1.15 1.06,0.7 4.42,1.54 5.78,2.29 0.91,0.5 2.18,1.83 3.17,2.56 1.04,0.77 1.66,1.76 2.45,3.08 4.03,6.75 5,7.56 7.39,15.65 0.68,2.31 0.57,2.91 0.59,5.42 0.03,5.21 2.77,7.63 -0.16,21.34 -0.58,2.7 -3.31,9.97 -5.21,11.99 -0.37,1.01 -0.96,2.18 -1.24,3.08 -0.32,1.93 -1.14,3.12 -1.7,4.67l-1.68 4.46 -0.03 -2.73c-0.5,0.23 -1.83,2.97 -2.37,3.63 0.05,3.34 -0.79,7.88 -1,11.38 -0.23,3.88 -0.53,7.9 -0.58,11.84l1.48 -0.1c1.28,-3.53 2.34,-10.61 3.44,-15.08 3.75,-15.36 12.98,-30.1 11.8,-44.58 -0.93,-11.46 -2.03,-20.51 -7.95,-29.51 -2.26,-3.44 -4.86,-7.18 -8.81,-9.09 -2.42,-1.17 -10.13,-4.81 -12.58,-4.97l-0.08 0.82 4.78 2.47z"/>
   <path class="fil11" d="M80.31 29.7c0.45,-1.98 0.86,-1.55 2.53,-1.72 1.11,-0.12 2.15,-0.61 3.1,0.03 -0.33,0.46 0.01,0.2 -0.63,0.62 -0.8,0.52 -4.16,1 -5,1.07zm39.99 -9.01c-1.04,0.76 -1.82,1.62 -3.27,2.16 -1.35,0.51 -2.73,1.18 -4.04,1.3 -0.97,1.15 -3.48,1.42 -5.02,1.56 -1.13,0.1 -2.27,-0.09 -3.25,0 -1.82,0.16 -0.88,0.91 -2.73,0.73l0.49 -1.42c-2.75,-1.74 -5.14,-2.31 -8.19,-2.24 -2.16,0.36 -4,1.21 -6.51,1.6 -2,0.31 -4.37,0.7 -5.99,1.55 -0.45,0.62 -1.46,1.63 -2.17,2.07 -1.62,1.02 -1.14,0.26 -2.29,2.01 -0.51,0.77 -1.49,1.24 -2.39,1.6 -0.63,0.26 -0.86,0.2 -1.44,0.5 -0.52,0.27 -0.66,0.5 -1.35,0.93 -1.73,1.09 -2.99,2.19 -4.89,3.35 -3.95,2.39 -2.67,3.15 -4.94,3.38 0.05,-1.41 0.39,-1.22 0.72,-2.57 -3.35,0.8 -2.41,3.59 -6.15,6.81 -1.56,1.35 -5.47,5.01 -5.85,7.14 2.75,0.47 4.31,-2.31 5.42,-3.61 2.41,-2.84 5.14,-5.89 8.77,-7.1 0.94,-0.91 4.27,-3.3 5.36,-3.62 2.03,-2.48 7.2,-1.55 8.22,-2.65 0.56,-0.6 0.7,-1.51 1.75,-2.01 1.16,-0.56 4.37,-1.17 5.75,-1.47 2.73,-0.59 0.78,-0.94 6.04,-1.42 1.73,-0.41 1.64,-0.27 2.67,0.68 3.05,-1.19 0.07,-0.38 3.81,-1.04 4.47,-0.8 9.2,-0.87 12.9,-1.9 3.24,-0.9 12.21,-4.71 12.38,-7.55l-3.81 1.23z"/>
   <path class="fil14" d="M106.13 169.51c-0.4,-0.68 -0.43,-0.51 -0.44,-1.62l2.78 0.45c-0.44,1 -1.32,1.2 -2.35,1.17zm-6.37 -1.45c0.65,0.64 0.81,0.49 1.04,1.13 1.04,0.04 0.58,0.11 1.02,1.32 0.22,0.59 0.42,0.95 0.46,1.81l-1.33 -0.55c0.44,1.03 -0,0.61 1.34,1.26l-0.26 2.23 0.57 -0.6c0.44,-0.36 0.24,-0.28 0.88,-0.52 0.2,1.12 -0.26,1.69 -0.71,2.55 0.63,0.29 0.32,0.28 0.21,1.5 0.6,-0.78 0.47,-1.12 0.9,-2.12 0.37,-0.87 0.6,-1.19 1.33,-1.42l2.38 -1.28c-1,-0.35 -2.17,-1.14 -2.63,-1.9 0.96,-1.47 3.34,-1.49 4.82,-2.78 -0.59,-1.16 -1.75,-0.9 -0.9,-1.5l-1.44 -1.01c-0.67,-0.75 -0.21,-0.38 -0.54,-1.43 -1.02,0.59 -1.82,1.5 -3.12,0.1 -0.63,-0.68 -1.22,-1.96 -1.72,-3 -2.35,-4.89 -3.85,-8.91 -5.96,-13.6 -1.01,-2.25 -2.43,-4.59 -3.07,-6.29 1.26,-0.06 4.98,2.6 7.77,2.73 0.04,-3.06 -0.79,-2.5 -2.96,-3.02 -3.92,-0.93 -6.47,-4.02 -8.35,-8.08l-7.37 -15.61c-0.62,-1.13 -0.29,0.26 -2.17,-1.61 -0.7,-0.7 -1.07,-1.25 -1.66,-2.11 -0.4,-0.59 -1.13,-1.76 -1.59,-2.2 -0.5,-0.48 -1.85,-1.2 -2.32,-1l15.74 31.08c0.74,1.97 -0.63,0.2 1.49,3.58l6.46 14.19c1.21,2.77 1.79,4.85 2.69,7.86 -0.38,0.35 0.7,0.5 -1,0.3z"/>
   <path class="fil6" d="M148.74 177.12c1.83,-1.16 7.11,-2.29 9.63,-2.6 4.24,-0.53 6.52,0.36 9.54,2.4 1.58,0.86 3.99,2.89 4.91,4.08 2,2.59 1.3,4.27 1.24,7.79 -0.05,3.33 -2.02,3.94 -4.14,5.09 -1.89,1.02 -4.47,2.16 -6.75,2.44l7.44 -5.88 0.25 1c0,0.02 -0.08,0.42 -0.07,0.6 1.09,-1.08 0.24,-1.67 0.03,-3.46 -0.28,-2.34 -0.14,-2.31 -1.06,-4.05 -2.67,-0.46 -4.4,0.38 -5.61,2.1 -2.43,3.46 -0.27,4.43 -0.54,7.07 -0.63,6.22 -16.17,5.2 -19.47,-4.92 -1.64,-5.04 1.58,-10.83 4.6,-11.67zm4.63 -4.62c-0.95,0.84 -3.01,1.1 -4.42,1.72 -1.53,0.67 -2.7,1.43 -3.85,2.37 -2.05,1.69 -4.18,4.43 -4.29,8.78 -0.39,16.09 23.57,16.57 31.25,9.11 3.38,-3.28 3.65,-10.9 0.71,-15.3 -0.52,-0.77 -2.64,-3.26 -2.71,-3.41 -1.57,-0.78 -2.5,-1.72 -4.46,-2.58 -1.75,-0.77 -3.04,-1.26 -4.9,-1.85 -2.3,0.33 -5.3,0.29 -7.34,1.15z"/>
   <path class="fil9" d="M33.07 135.66c2.04,0.25 2.59,1.78 3.46,3.84 0.35,0.83 0.76,1.91 1.01,2.87 0.44,1.74 -0.01,1.39 -0.68,2.4 1.25,-0.46 1.66,-0.36 2.18,0.87 0.81,1.91 -0.17,1.22 1.56,1.29 0.42,1.34 0.87,2.05 1.01,3.28 -3.69,-0.03 0.85,-1.59 -7.67,-2.6 0.31,0.46 0.03,0.32 0.79,0.8 0.75,0.48 2.19,0.59 3.41,1.34 3.81,2.35 3.3,2.66 9.31,0.32 8.49,-3.31 7.52,-17.76 -1.56,-20.02 0.21,0.3 2.58,2.41 1.22,2.96l-1.75 0.29c-2.35,-0.04 -2.8,-0.51 -4.95,0.73l0.19 2.35c-0.75,0.66 -2.2,1.55 -3.27,1.33 -1.37,-0.29 -1.22,-1.76 -1.97,-2.91 -0.51,0.05 -0.69,0.05 -1.25,0.26l-0.84 0.46c-0.04,-0.07 -0.15,0.1 -0.21,0.15z"/>
   <path class="fil15" d="M116.72 75.45c-3.48,-2.03 -3.31,1.34 -6.21,-0.86 -2.42,-1.84 -3.81,-1.31 -5.98,0.41 -0.49,0.68 -0.33,1.67 -1.09,2.52 -0.77,0.86 -1.65,0.77 -3.01,0.56 -1.83,-2.89 -0.01,-11.35 0.35,-14.92 -12.36,4.14 -13.74,0.87 -12.27,11.32 1.08,7.7 7.83,5.33 10.04,5.3 4.01,-0.06 11.18,0.92 14.91,0.21 2.85,-0.53 3.74,-1.29 3.27,-4.55z"/>
   <path class="fil16" d="M36.33 84.81c-0.45,-0.58 -1.68,-5.95 -1.97,-7.07 -0.61,-2.44 -0.28,-6.24 -0.93,-8.23 -1.43,0.63 -1.08,1.64 -2.11,2.57 -0.76,-0.24 -1.41,-1.06 -1.8,-1.81 -0.64,-1.22 -0.36,-2.55 -1.44,-2.24 -0.77,1.68 0.57,5.13 0.98,7.05 0.69,3.21 2.51,11.76 3.39,14.38 3.07,9.18 1.54,6.82 2.95,14.82 0.48,2.75 0.9,5.17 1.26,7.96l1.32 12.23c0.16,1.41 0.4,1.8 0.95,3.07l0.21 0.48c3.17,-0.39 2.17,-6.67 1.85,-10.04l-2.96 -22.19c-0.43,-2.82 -1.74,-8.67 -1.7,-10.99z"/>
   <path class="fil17" d="M28.08 68.03c1.07,-0.3 0.8,1.03 1.44,2.24 0.39,0.75 1.05,1.57 1.8,1.81 1.03,-0.94 0.68,-1.95 2.11,-2.57 0.66,1.99 0.32,5.79 0.93,8.23 0.28,1.12 1.51,6.49 1.97,7.07 -0.08,-0.98 -0.45,-2.6 -0.15,-3.53 1.39,0.1 -0.65,-0.35 0.44,0.05 0.14,0.05 0.47,0.2 0.71,0.33 -0.51,-2.68 -2.75,-10.69 -2.55,-12.85 1.48,0.82 2.43,6 2.73,8.06 0.46,3.06 1.73,5.75 2.03,8.96 -0.54,0.76 0.17,0.24 -0.93,0.31 1.04,2.28 1.08,4.2 1.33,7.02 0.04,0.51 0.02,0.81 0.13,1.35l0.47 1.4 -0.85 -8.28c1.59,0.36 3.02,3.76 3.7,5.71 2.48,7.09 5.66,13.48 8.27,20.86 3.37,9.56 5.68,23.24 4.46,34.88l3.55 0.7 0 -0.44c-1.42,-1.17 -0.99,-3.12 -1.12,-5.71 -0.85,-16.6 -2.76,-25.3 -9.21,-40.07 -5.12,-11.73 -9.17,-23.12 -13.16,-35.62l-1.3 -5.04c-0.19,-0.48 -0.19,-0.45 -0.37,-0.72l-0.27 0.97c-2.36,0.36 -4.17,2.27 -5.73,4.29 -0.46,0.59 -0.04,0.03 -0.41,0.58z"/>
   <path class="fil9" d="M11.44 140.41c2.38,0 4.08,-1.57 5.6,1.07 -0.04,1.18 -0.67,3 -1.06,4.07 -4.14,1.35 -3.65,2.93 -6.23,1.17 -1.37,-0.93 -2.28,-0.32 -3.3,-1.19 -1.12,-0.94 -0.74,-1.91 -0.72,-2.68l-0.05 -0.76c-0.96,1.35 -1.67,1.37 -2.66,2.83 -0.77,1.14 -1.21,2.03 -1.26,3.96 -0.12,4.41 1.24,5.29 2.97,7.05 2.77,0.53 4.84,1.65 7.69,1.65 1.28,0 3.24,0.24 4.3,-0.39 1.71,-1.03 0.51,-2.22 -0.08,-3.45 -1.46,-3.15 -0.53,-4.75 0.26,-7.35l0.27 -1.66c2.75,-1.35 3.61,-1.56 6.14,-0.24 2.35,1.23 1.88,5.91 1.37,6.68 -0.18,0.27 -1.72,0.93 -1.64,4.13 1.14,0.12 1.61,-0.62 2.51,-1.19 0.51,-1.17 0.98,-0.88 1.18,-2.75 0.36,-3.49 -0.96,-7.42 -3.24,-9.24 -1.42,-1.13 -3.18,-2.14 -5.37,-2.4 -1.35,-0.16 -5.46,-0.53 -6.65,0.67z"/>
   <path class="fil1" d="M102.99 178.19c-0.03,2.11 -1.13,3.47 -0.5,6.41 0.19,0.87 0.67,1.83 1.05,2.47 0.53,0.89 0.73,1.23 1.51,1.53 1.22,0.07 0.58,-0.65 2.92,-0.72 1.28,-0.04 2.56,-0.12 3.82,-0.17 2.08,-0.09 6.05,0.61 7.62,-0.1 2.03,-1.3 1.13,-6.4 0.58,-8.78 -2.02,0.5 -1.31,1.28 -3.59,-0.28 -1.06,-0.72 -1.82,-1.33 -3.17,-1.96 -1.43,-0.66 -6.6,-1.97 -8,-1.95 -0.73,0.22 -0.96,0.55 -1.33,1.42 -0.43,1.01 -0.3,1.35 -0.9,2.12z"/>
   <path class="fil18" d="M104.78 57.84c0.14,2.41 -0.24,5.63 -0.29,8.2 -0.05,2.97 0.29,6.08 0.03,8.96 2.17,-1.73 3.56,-2.25 5.98,-0.41 2.91,2.2 2.74,-1.17 6.21,0.86 -0.15,-4.43 -1.05,-9.33 -0.13,-14.05l0.01 -1.82c-2.31,-0.39 -3.76,0.73 -4.94,-0.52 -2.38,-2.49 -1.82,-5.11 -4.87,-2.45 -0.87,0.76 -1.05,0.56 -1.99,1.22z"/>
   <path class="fil19" d="M99.76 168.05c1.7,0.2 0.62,0.06 1,-0.3 -0.89,-3.01 -1.47,-5.09 -2.69,-7.86l-6.46 -14.19c-2.12,-3.38 -0.75,-1.61 -1.49,-3.58l-15.74 -31.08 -1.5 -4.52c-2.11,-0.15 -5.33,4.01 -5.63,6.8 0.85,0.98 2.47,1.95 3.47,2.78 5.99,4.98 13.82,19.56 18.28,25.71 -0.15,1.05 -0.45,0.32 -0.61,1.19 0.81,1.19 2.25,4.36 3.02,5.97 0.93,1.93 2.09,4.19 2.98,6.17 1.02,2.28 4.4,11.92 5.36,12.9z"/>
   <path class="fil5" d="M172.02 27.08c0.81,1.68 1.75,2.84 2.81,5.06 0.87,1.83 1.47,3.36 2.18,5.23 1.3,3.4 2.86,7.67 3.39,11.6 1.67,4.42 0.76,10.61 0.77,15.76l0.19 -0.57c0.61,-2.51 -0.35,-7.05 1.51,-7.86 0.86,-0.38 0.39,0.1 1.07,-0.16 0.57,-0.22 0.12,-0.22 0.96,-0.75 2.48,2.06 4.88,6.02 6.84,9 0.99,1.5 2.03,7.48 3.83,11.1l0.51 0.87c0.06,-7.74 0.96,-6.91 4.21,-9.08 -0.21,-0.8 -1.85,-3.25 -2.51,-4.54 -1.13,-2.2 -1.59,-2.25 -3.43,-3.5 -1.64,-1.11 -6.85,-4.61 -9.11,-4.23l-1.92 0.15c-0.41,-1.06 -0.5,-2.07 -0.8,-3.38 -0.24,-1.06 -0.74,-1.98 -0.99,-2.88 -0.88,-3.14 0.81,-1.52 -0.84,-7.37 -0.7,-2.46 -1.4,-3.31 -1.88,-6.19 -0.3,-1.79 -0.57,-5.75 -1.31,-6.62 0.69,0.21 1.26,1.07 1.65,0.12l-4.78 -2.47 0.08 -0.82c-0.34,0.26 -0.2,0.16 -0.44,0.52 -0.36,0.51 0.01,0.18 -0.44,0.73 -0.63,0.75 -0.68,0.61 -1.54,0.28z"/>
   <path class="fil8" d="M70.59 36.82c1.81,-0.26 1.85,1.14 2.7,2.46 0.62,0.95 1.64,1.77 2.55,2.97 1.25,1.65 4.56,4.14 6.73,4.21 4.43,-6.67 4.97,-3.38 7.72,-4.7 0.71,-0.34 1.16,-1.22 1.13,-2 -0.06,-1.46 0.14,-0.32 -0.27,-0.89 -1.85,-1.89 -3.01,2.65 -4.59,-3.4 -0.48,-1.85 0.34,-2.44 2,-2.07l-0.37 -1.47 2.5 0.38 -1.9 -0.78c0.21,-2.66 1.97,-1.25 3.57,-2.26 -5.26,0.48 -3.3,0.83 -6.04,1.42 -1.38,0.3 -4.59,0.91 -5.75,1.47 -1.05,0.5 -1.19,1.42 -1.75,2.01 -1.02,1.09 -6.19,0.16 -8.22,2.65z"/>
   <path class="fil9" d="M195.96 151.59c-1.32,0.06 -2.91,0.4 -4.24,-0.22 0.22,-0.82 -0.43,-0.27 0.75,-0.92 0.87,-0.48 2.43,-0.76 3.53,-0.66l-0.03 1.8zm-9.43 -1.46c2.79,-0.75 1.44,1.27 4.06,-1.53 0.23,-0.25 0.48,-0.47 0.8,-0.68 0.83,0.37 0.8,0.25 1.06,1.29 -0.19,0.17 -4.44,2.48 -5.38,2.46 -0.4,-0.62 -0.54,-0.54 -0.54,-1.54zm-3.36 -2.4c1.89,2.47 2.01,1.9 1.58,3.45 -2.38,0.52 -3.19,-1.08 -4.4,-1.99 -1.84,-1.38 -1.98,-1.86 -2.05,-4.79 0.9,0.11 0.21,0.02 0.62,0.28 0.06,0.04 0.26,0.19 0.3,0.22l0.3 0.25c0.52,-1.12 0.43,-1.23 1.61,-1.23 0.58,1.7 -0.18,1.69 0.09,3.77 0.42,3.26 1.55,2.29 1.87,2.26 -0.2,-1.39 -1.62,-3.17 -0.26,-2.56 0.88,0.4 -0.08,-0.22 0.35,0.34zm11.19 -0.21c0.93,1.1 0.28,0.09 0.68,1.1 -2.7,0.27 -1.98,-0.41 -2.87,-1.53 -1.72,-2.16 -4.1,1.29 -5.9,1.49 -0,-2.74 0.94,-2.88 2.32,-4.12l3.01 -4.02c0.58,-0.78 0.89,-1.27 1.46,-2.06 0.55,-0.76 0.92,-1.07 2.1,-1.15 2.03,-0.13 3.45,0.48 4.71,1.77 0.04,1.13 0.18,0.28 -0.52,0.67 0.87,1.35 2.74,4.56 1.15,6.37 -1.26,1.43 -3.79,1.87 -6.15,1.49zm-16.89 -9.19c-0.13,0.14 -0.44,0.04 -0.77,1.72 -1.41,7.36 1.85,11.48 8.13,12.36 0.73,0.1 1.29,0.02 1.95,0.15 2.35,0.47 0.31,1.11 5.59,0.23 0.54,-0.09 1.2,-0.2 1.83,-0.34 0.21,-0.05 0.71,-0.15 0.88,-0.22 1.28,-0.53 0.54,-0.21 0.88,-0.63 1.94,-0.06 4.45,-2.48 5.49,-2.8 1.59,-4.13 0.1,-4.37 -0.09,-8.54 0.8,1 0.73,2.06 1.37,3.38 0.66,-1.19 -0.17,-4.13 -0.45,-5.34 -1.04,-4.53 -7.1,-6.43 -11.11,-6.49l0.56 0.57c1.48,1.23 2.7,0.42 3.75,1.02 1.26,0.72 -0.1,0.78 1.58,1.36 1.25,0.43 0.87,-0.25 1.7,0.86 -0.72,0.6 -1.25,0.31 -2.2,0.02 -2.95,-0.91 -1.68,-1.11 -3.7,0.79l-0.66 0.5c-1.55,1.14 -0.58,1.07 -2.08,2.53 -2.65,2.57 -0.99,2.27 -3.76,4.33 -1.41,1.05 -1.45,1.86 -1.31,4.21 -1,-0.93 -0.18,-1.44 -2.38,-1.51 -0.08,-2.23 -0.56,-3.1 -0.64,-4.38 1.04,-0.9 0.45,0.26 1.41,-0.62 -1.04,-2.87 -1.74,1.59 -5.31,1.88 -0.42,-1.86 -0.89,-2.92 -0.69,-5.02z"/>
   <path class="fil20" d="M123.29 157.27c0.91,-0.35 0.62,-0.1 1.1,-1.34 2.2,-5.67 3.54,-5.88 5.81,-10.37 2.05,-4.06 3.32,-8.36 5.56,-12.79 1.04,-2.05 1.89,-4.25 2.89,-6.25 1.28,-2.55 2.48,-3.53 3.57,-5.51 0.8,-1.45 2.03,-4.75 2.78,-6.39 2.21,-4.81 -0.34,-5.9 1.4,-7.53l-0.22 3.29c1.61,-0.22 2.3,-1.07 1.47,-2.86l-1.88 -3.02c-2.06,0.2 0.53,0.34 -3.76,0.81 -0.68,2.12 -1.62,4.06 -2.34,6.63 -0.69,2.45 -1.39,4.42 -2.19,6.76l-5.34 16.83c-0.46,2.03 0.1,1.84 -0.81,3.64 -1,1.96 -1.45,4.27 -2.19,6.46 -0.54,1.57 -5.48,10.01 -5.86,11.65z"/>
   <path class="fil2" d="M10.65 68.08l-0.15 -1.22c0.46,-0.45 1.06,-1.01 1.52,-1.6 0.65,-0.82 0.73,-1.19 2.11,-1.16 -0.22,1.26 -2.28,3.81 -3.49,3.98zm-1.04 -5.52c1.44,0.14 0.15,1.9 0.5,4.4 0.21,1.54 0.52,1.11 0.54,1.12l3.98 6.96c-0.13,-0.84 -0.54,-4.02 -0.59,-4.71 -0.19,-2.84 3.47,-8.56 5,-10.02 1.99,-1.9 3.28,-2.56 5.56,-4.14 0.84,-0.58 2.08,-1.38 2.28,-2.56 0.3,-1.81 0.18,-3.42 -0.47,-4.5 -1.63,-0.5 -4.85,-0.24 -6.62,-0.13 -2.88,0.57 -7.3,3.74 -7.77,6.67 1.88,-0.58 3.69,-2.75 4.88,-2.79 -0.43,2.86 -6.08,8.22 -7.29,9.7z"/>
   <path class="fil21" d="M134.29 34.11c-0.88,2.78 0.92,1.78 0.82,4.1 -1.14,1.43 -2.3,0.64 -1.83,4.12 1.69,0.53 2.47,-0.29 3.54,0.2 -0.88,2.04 -1.9,0.58 -2.55,3l3.89 -1.85c0.26,-1.48 -0.79,-5.61 5.19,-3.65 0.8,0.26 1.79,0.58 2.55,0.03 -0.14,-1.87 -0.04,-0.51 -0.47,-1.04l-0.23 0.65c-0.92,-1.17 -1.09,-2.63 -2.51,-2.22 -0.19,1.1 0.04,0.88 0.43,1.94 -1.29,-0.19 -0.92,-0.39 -1.61,-0.64 -1.55,-0.57 0.06,0.18 -1.68,0.25l-0.62 -1.57c-2.26,-0.26 -1.68,1.94 -3.7,2.34 -0.05,-1.3 0.99,-2.91 1.64,-3.99 2.17,-3.59 3.3,-0.11 6.9,-3.21 0.76,-0.65 2.13,-2.57 3.56,-1.48 -0.3,1.05 -1.47,1.37 -2.94,2.45 -0.67,0.49 -0.66,0.45 -1.11,1.01 0.86,0.96 -0.12,-0.58 0.55,1.41 1.11,-0.25 0.84,-0.69 2.12,-0.52 1.06,0.13 0.99,0.59 2.49,0.53 1.54,-1.48 0.87,-1.92 1.62,-3.29 2.14,1.07 1.93,2.92 4.82,4.31 2.24,1.08 2.34,2.67 2.96,4.06l1.14 1.63c-0.74,-4.81 -4.2,-6.91 -4.79,-8.12 0.76,0.13 1.04,0.46 1.51,1.24l0.48 -0.5c0.03,-0.03 0.13,-0.1 0.19,-0.16 -0.82,-1.07 -2.24,-2.06 -2.69,-3.53 2.09,0.4 3.03,2.06 4.35,3.32 3.14,2.99 3.63,9.28 7.16,12.52 0.47,0.43 1.19,0.95 1.25,1.64 0.11,1.33 0.2,0.39 -0.25,0.79l0.33 0.33c0.04,0.05 0.25,0.25 0.31,0.32l1.57 2.2c-0.98,-6.81 -6.66,-16.42 -11.83,-20.15 -5.17,-3.72 -12.15,-4.13 -18.05,-1.73 -1.58,0.64 -4.01,2.23 -4.54,3.26z"/>
   <path class="fil8" d="M177.23 49.57c0.03,7.79 -0.41,13.4 -1.17,20.79 -0.49,4.71 -2.25,16.05 -1.37,20.39 1.5,0.67 0.67,-0.95 1.13,0.76 1.8,-3.18 5.24,-21.64 5.36,-26.78 -0.01,-5.15 0.89,-11.34 -0.77,-15.76l-0.03 2.35c-1.41,-0.52 -0.73,-0.96 -1.64,-2.32l-0.19 1.22 -1.32 -0.66z"/>
   <path class="fil16" d="M153.28 168.69c-0.35,1.34 -0.01,2.54 0.1,3.81 2.04,-0.86 5.03,-0.82 7.34,-1.15 -0.25,-0.34 -0.19,-0.25 -0.33,-0.83 -3.25,-0.08 -1.65,-3.83 -1.18,-6.57 0.39,-2.31 1.16,-6.61 0.91,-8.85 -0.88,0.36 -0.7,0.37 -1.23,1.34 -0.24,-2.1 2.57,-12.14 3.16,-14.69l-1.06 0.21c-0.72,-1.66 0.62,-7.6 0.98,-9.76 0.51,-2.98 1.15,-6.4 1.73,-9.5 -1.64,1.04 -2.69,8.05 -3.4,10.63 -1.45,5.31 -4.65,17.91 -5.17,23.06 -0.39,3.92 -0.19,9.26 -1.45,12.71 -0.52,0.02 -0.17,0.19 -0.41,-0.43z"/>
   <path class="fil1" d="M71.42 84.47c-1.09,0.37 -1.27,-0.15 -2.03,-0.44 -1.01,1.87 -2.58,5.68 -2.31,8.17 1.05,0.81 1.49,0.83 2.75,0 0.21,-2.38 -1.08,-2.88 -1.08,-4.34 1.01,-0.21 4.41,2.16 5.62,2.78 1.87,0.96 4.34,1.2 6.63,2.03 2.29,0.83 11.57,4.37 13.5,4.05 -0.06,-8.01 -12.31,-4.5 -18.92,-12.73 -1.04,-1.29 -3.29,-5.53 -4.58,-6.3 -2.22,2.74 0.4,5.66 0.41,6.79z"/>
   <path class="fil4" d="M166.12 113.65l-2.42 9.06c-0.59,3.09 -1.23,6.52 -1.73,9.5 -0.37,2.16 -1.7,8.09 -0.98,9.76l1.06 -0.21c2.07,-6.19 4.44,-12.08 6.16,-18.79 0.93,-3.63 4.8,-17.63 4.79,-20.44l0.11 -2.32c-2.71,0.5 -3.52,1.88 -4.42,5.68 -0.48,2.03 -0.61,4.25 -1.52,6.29 -0.05,0.12 -0.4,0.78 -0.42,0.79 -0.38,0.56 -0.09,0.3 -0.63,0.68z"/>
   <path class="fil22" d="M177.46 138.33c-0.2,2.1 0.26,3.16 0.69,5.02 3.57,-0.29 4.27,-4.75 5.31,-1.88 -0.96,0.88 -0.37,-0.28 -1.41,0.62 0.08,1.28 0.55,2.15 0.64,4.38 2.2,0.08 1.38,0.58 2.38,1.51 -0.14,-2.35 -0.09,-3.16 1.31,-4.21 2.77,-2.06 1.12,-1.76 3.76,-4.33 1.5,-1.46 0.53,-1.4 2.08,-2.53l0.66 -0.5c2.01,-1.9 0.74,-1.71 3.7,-0.79 0.95,0.29 1.48,0.58 2.2,-0.02 -0.83,-1.11 -0.45,-0.43 -1.7,-0.86 -1.69,-0.58 -0.33,-0.64 -1.58,-1.36 -1.05,-0.6 -2.27,0.22 -3.75,-1.02l-0.56 -0.57 -3.25 -0.18c-3.7,0.86 -10.03,3.23 -10.46,6.71z"/>
   <path class="fil23" d="M16.9 146.4c1.26,-1.06 1.08,-1.4 2.83,-1.16 1.18,1.86 1.33,6.57 0.13,8.75 -1.62,0.03 -1.46,-1.29 -3.22,-0.24 0.59,1.23 1.79,2.42 0.08,3.45 -1.05,0.63 -3.02,0.39 -4.3,0.39 -2.86,-0 -4.92,-1.12 -7.69,-1.65 0.38,0.71 0.06,0.12 0.42,0.63 0.89,1.23 0.64,0.52 0.87,1.65 -1.39,0.11 -0.36,0.31 -1.43,-0.35 0.43,1.08 2.74,0.94 3.82,1.18 4.23,0.94 8.24,1.85 12.56,0.88 2.74,-0.62 4.92,-1.81 6.4,-3.5 1.61,-1.83 1.86,-4.99 2.42,-8.09 0.67,-0 0.35,-0.05 0.99,0.22 -0.49,-1.04 -1.13,-1.78 -1.89,-2.01 -2.26,2.09 0.76,6.04 -3.24,8.3 -0.3,-0.4 -0.5,0.62 -0.12,-0.73 -0.9,0.56 -1.37,1.31 -2.51,1.19 -0.08,-3.2 1.46,-3.86 1.64,-4.13 0.52,-0.77 0.99,-5.45 -1.37,-6.68 -2.53,-1.32 -3.39,-1.11 -6.14,0.24l-0.27 1.66z"/>
   <path class="fil24" d="M13.92 79.88c1.03,2.16 1.84,3.12 2.54,5.97 2.44,9.91 2.73,10.62 4.44,21.82 1.24,8.11 1.93,16.04 0.06,24.15 -0.47,2.02 -1.63,5.16 -1.84,6.96l3.12 0.64 0.23 -1.77c-1.15,-0.55 0.52,-3.76 0.97,-7.71 1.26,-11.17 0.3,-13.77 0.17,-23.7 -0.02,-1.32 0.11,-3.38 -0.54,-4.21 -0.01,1.48 0.39,1.53 0.06,3.24 -1.61,-1.07 -1.08,-5.09 -1.44,-7.11l-2.6 -10.65c-1.19,-2.87 -1.72,-8.47 -4.14,-8.23 -0.49,0.79 -0.11,0.48 -1.03,0.61z"/>
   <path class="fil2" d="M63.75 12.1c-0.54,0.84 -9.89,7.01 -10.89,7.8 -1.63,1.28 -9.33,7.37 -9.3,9.22 2.36,0.62 6.65,-2.68 8.73,-3.71 2.95,-1.47 5.95,-2.6 8.18,-4.81 -0.53,-0.43 0.19,-0.39 -0.82,-0.07l-2.66 1.27c1.46,-2.93 10.85,-7.32 15.09,-10.82 0.78,-0.65 1.49,-0.61 2.08,-1.4l-2.33 0.44c0.36,-0.69 0.33,-0.42 0.75,-1.19 0.3,-0.56 0.45,-0.85 0.86,-1.55 -1.64,0.39 -3.79,1.32 -5.14,2.15 -1.14,0.7 -3.47,2.42 -4.54,2.66z"/>
   <path class="fil1" d="M121.89 94.27c3.35,-0.5 5.39,-1.58 8.06,-3.1 2.35,-1.33 4.73,-2.56 7.15,-3.82 4,-2.09 3.72,-1.05 6.49,-4.64 1.32,-1.71 0.91,-2.01 0.52,-4.58 -0.26,-1.71 -0.58,-3.49 -1.3,-4.69 -1.48,1.27 -3.43,3.92 -4.86,5.58 -3.96,4.6 -5.61,6.52 -10.54,10.18 -1.46,1.09 -4.89,3.36 -5.51,5.07z"/>
   <path class="fil4" d="M119.05 58.31l-0.81 11.64c1.78,-0.2 2.67,-1.65 3.53,-2.65l2.18 -2.47c0.52,-0.61 0.37,-0.3 0.64,-0.92 1.07,-2.91 3.8,-3.69 4.82,-5.79 1.72,-3.54 0.77,-6.53 -1.45,-7.96 -2.37,-0.7 -3.41,4.62 -6.55,6.19 -0.37,0.18 -0.94,0.32 -1.36,0.62 -0.83,0.59 -0.28,0.27 -0.99,1.33z"/>
   <path class="fil23" d="M37.7 166.93c0.7,-0.75 0.2,0.16 0.64,-1.11 1.21,0.45 3.1,2.69 3.1,4.54 -1.15,-0.22 -1.89,-1.85 -2.31,-2.31 -0.23,-0.26 -0.01,-0.29 -0.41,-0.3 -0.71,-0.03 0.36,-0.87 -0.53,0.32 1.41,2.22 0.94,1.66 2.73,3.24 0.05,0.04 0.11,0.1 0.16,0.15l0.54 0.43c0.41,-0.38 -0.3,-0.51 1,-0.1 1.55,0.49 2.06,1.49 3.62,1.62 -0.62,-1.66 -2.2,-2.42 -1.98,-4.73 0.88,-0.58 0.93,-0.27 1.65,-1.07 -1.03,0.19 -0.83,-0.39 -1.41,-1.4 0.39,-0.51 -0.14,-0.18 0.65,-0.26l-1.37 -0.98c-0.25,-1.92 -0.21,-4.15 0.28,-5.87 0.67,-2.4 1.47,-2.18 3.32,-1.98 -0.59,-0.94 -2.8,-0.23 -4.19,-0.8 0.25,-1.33 1.15,-1.65 1.84,-2.96l-2.91 0.68c-1.85,-2.48 1.05,-0.2 -5.36,-3.01 -2.73,-1.2 -3.42,-0.28 -6.02,-2.44 0.53,1.64 0.63,0.92 2.06,2 0.69,0.52 1.24,1.42 2.08,1.64 2.01,0.53 4.09,-0.11 6.14,0.99 -0.91,1.49 -2.74,3.17 -3.46,5.3 -1.04,3.05 -0.14,5.67 0.14,8.4z"/>
   <path class="fil22" d="M148.74 177.12c-0.61,1.12 -0.17,2.84 -0.56,4.47 -0.37,1.51 -0.96,2.16 0.3,3.43 1.34,-0.53 0.56,-0.82 1.68,-1.16 5.09,-1.55 4.09,1.41 6.55,-0.79 1.45,-1.3 1.91,-1.1 3.5,-2.18 2.68,-1.83 0.86,-2.28 1.29,-4.37 2.3,-0.46 4.23,0.81 6.14,1.27 0.54,-0.55 0.18,0.13 0.27,-0.87 -3.02,-2.04 -5.3,-2.94 -9.54,-2.4 -2.53,0.32 -7.8,1.44 -9.63,2.6z"/>
   <path class="fil25" d="M104.8 49.74c-0.27,3.39 -0.19,4.73 -0.02,8.1 0.95,-0.65 1.13,-0.46 1.99,-1.22 3.05,-2.67 2.49,-0.05 4.87,2.45 1.19,1.24 2.64,0.13 4.94,0.52l-0.01 1.82c0.36,-0.72 0.58,-4.49 0.72,-5.71 0.35,-3.1 -0.3,-3.19 -0.98,-5.38 -0.78,-0.19 -1.33,-0.19 -1.95,-0.57 -0.72,-0.44 -0.75,-0.88 -1.65,-1.05l-7.92 1.05z"/>
   <path class="fil17" d="M90.69 32.31l-2.5 -0.38 0.37 1.47c1.48,1.02 1.96,2.75 3.23,3.98 1.19,-0.15 2.39,-0.72 3.84,-0.94 1.43,-0.22 2.82,-0.44 4.26,-0.67 5.27,-1.4 10.48,-2.01 15.02,-4.47 2.39,-1.3 4.22,-2.31 6.47,-3.72l4.5 -3.19c0.76,-0.61 0.78,-0.73 1.58,-0.86 0.77,-1.42 1.35,-0.91 1.84,-2.25 -6.28,1.69 -9.57,7.75 -27.12,11.52 -2.45,0.53 -5.36,0.91 -7.56,1.87 -1.32,0.58 -1.86,1.03 -1.82,-0.78 0.99,-0.81 0.94,-0.33 2.32,-0.15l-0.09 -1.95c-1.95,0.09 0.18,0.63 -4.34,0.53z"/>
   <path class="fil4" d="M31.39 23.56c0.1,1.64 0.51,2.3 1.55,2.79 1.25,-0.56 1.08,-1 1.84,-1.92 1.28,-4.57 0.86,-4.81 2.48,-5.06 0.49,0.89 0.16,0.46 0.02,1.79 3.52,-0.64 6.45,-6.32 10.11,-7.2 1.18,-0.28 3.91,-0.77 5.04,-0.78 1.56,-0.19 3.7,-0.59 4.58,-1.55 -0.05,-0.05 -0.13,-0.19 -0.16,-0.13l-1.36 -0.78c-9.45,1.23 -4.25,-1.99 -14.53,3.6 -1.98,1.08 -4.12,2.16 -5.98,3.35 -1.94,1.24 -3.63,2.53 -3.59,5.9z"/>
   <path class="fil22" d="M31.32 136.25l1.75 -0.59c0.07,-0.06 0.17,-0.23 0.21,-0.15l0.84 -0.46c0.55,-0.21 0.74,-0.21 1.25,-0.26 0.75,1.16 0.61,2.62 1.97,2.91 1.06,0.23 2.51,-0.67 3.27,-1.33l-0.19 -2.35c2.14,-1.24 2.6,-0.77 4.95,-0.73l1.75 -0.29c1.36,-0.54 -1.01,-2.66 -1.22,-2.96 -0.89,-0.95 -3.06,-1.34 -4.48,-1.43 -3.95,0.99 -11.09,4.07 -12.1,7.69l2.01 -0.05z"/>
   <path class="fil16" d="M34.78 24.43c0.4,-0.35 0.14,-0.09 0.49,-0.52 0.75,-0.93 1.28,-2.44 3.7,-2.47 -0.38,2.08 -4.12,5.73 -6.08,8.68 -1.58,2.38 -5.74,5.29 -5.43,9.41 1.52,-0.28 3.94,-3.54 4.99,-4.29l0.7 -0.6c0.51,-1.22 1.23,-2.34 1.93,-3.56 0.79,-1.37 0.75,-2.29 1.84,-3.45 1.94,-2.07 5.36,-1.48 4.88,-4.76 -0.23,-1.59 0.52,-2.52 1.22,-3.71 0.79,-1.33 0.93,-2.42 2.21,-3.04 2.34,-1.13 5.39,-1.56 7.2,-2.94 -1.13,0.02 -3.86,0.5 -5.04,0.78 -3.66,0.88 -6.59,6.57 -10.11,7.2 0.14,-1.32 0.47,-0.89 -0.02,-1.79 -1.62,0.25 -1.2,0.49 -2.48,5.06z"/>
   <path class="fil10" d="M185.24 55.01l-0.59 -1.61c-0.02,-1.46 0.41,-0.89 0,-5.3 -0.64,-6.9 0.55,-7.38 -2.8,-12.25 -1.99,-2.89 -2.97,-2.09 -3.11,-4.15 1.43,-0.16 1.54,0.51 2.52,1.07 0.06,-1.93 -0.7,-2.62 -1.46,-3.67 -0.17,-0.1 -0.54,-0.2 -0.66,-0.26 -0.4,0.94 -0.96,0.08 -1.65,-0.12 0.74,0.87 1.02,4.84 1.31,6.62 0.48,2.88 1.18,3.74 1.88,6.19 1.65,5.84 -0.04,4.23 0.84,7.37 0.25,0.9 0.75,1.81 0.99,2.88 0.3,1.31 0.39,2.32 0.8,3.38l1.92 -0.15z"/>
   <path class="fil26" d="M118.3 99.08c1.72,0.35 3.96,-0.8 6.95,-0.8 5.8,0 13.06,-7.18 12.91,-9.56 -2.45,-0.05 -7.82,4.01 -10.01,5.03 -1.58,0.74 -9.56,1.08 -9.86,5.34z"/>
   <path class="fil27" d="M187.92 131.63l3.25 0.18c4.01,0.05 10.07,1.96 11.11,6.49 0.28,1.2 1.11,4.14 0.45,5.34 -0.64,-1.32 -0.58,-2.38 -1.37,-3.38 0.19,4.17 1.68,4.41 0.09,8.54 0.39,0.77 -0.52,2.22 -0.75,3.2 2.11,-1.05 3.43,-3.03 4.16,-6.2 0.79,-3.46 0.7,-6.67 -0.84,-9.18 -2.87,-4.67 -7.15,-5.73 -13.35,-6.89l0.47 0.95c-0.88,0.52 -0.64,0.23 -1.59,0.36l-0.94 0.2c-0.08,0.03 -0.15,0.08 -0.23,0.12l-0.45 0.29z"/>
   <path class="fil28" d="M194.35 147.53c2.36,0.39 4.89,-0.06 6.15,-1.49 1.59,-1.8 -0.28,-5.01 -1.15,-6.37 -2.75,-2.06 -3.79,-1.44 -5.81,1.18 -1.79,2.31 -2.15,5.43 0.81,6.67z"/>
   <path class="fil22" d="M11.44 140.41c-1.94,-0.08 -4.72,1.85 -5.76,1.69l0.05 0.76c-0.02,0.77 -0.4,1.74 0.72,2.68 1.02,0.86 1.94,0.26 3.3,1.19 2.58,1.75 2.09,0.17 6.23,-1.17 0.39,-1.07 1.02,-2.89 1.06,-4.07 -1.52,-2.64 -3.22,-1.07 -5.6,-1.07z"/>
   <path class="fil17" d="M164.3 23.85l4.15 5.4c1.21,1.68 2.59,3.81 3.75,5.92 1.65,3.01 4.43,10.45 5.04,14.41l1.32 0.66 0.19 -1.22c-1.23,-7.48 -4.46,-14.93 -7.77,-19.46l-3.29 -3.45c-1.42,-1.5 -0.81,-2.14 -3.36,-2.92l-0.02 0.67z"/>
   <path class="fil28" d="M31.32 136.25c-0.07,0.07 -0.16,0.15 -0.23,0.21l-0.89 0.69c-0.02,1.09 0.33,1.73 0.35,3.22l2.27 4.92 2.62 -0.15 1.42 -0.38c0.67,-1.01 1.12,-0.66 0.68,-2.4 -0.25,-0.96 -0.65,-2.04 -1.01,-2.87 -0.88,-2.06 -1.42,-3.59 -3.46,-3.84l-1.75 0.59z"/>
   <path class="fil13" d="M13.92 79.88c0.92,-0.13 0.54,0.18 1.03,-0.61 1.89,-2.38 0.88,-0.56 1.74,-1.49l-0.34 -1.02c-0.88,-0.99 -1.23,-0.5 -1.72,-1.73l-3.98 -6.96c-0.02,-0.01 -0.32,0.42 -0.54,-1.12 -0.35,-2.51 0.94,-4.26 -0.5,-4.4l-2.96 3.38c0.26,1.71 2.94,5.52 3.76,7.04 0.84,1.54 2.6,5.65 3.5,6.9z"/>
   <path class="fil16" d="M94.29 22.78c3.06,-0.06 5.44,0.5 8.19,2.24l-0.49 1.42c1.85,0.18 0.91,-0.57 2.73,-0.73 0.98,-0.09 2.11,0.1 3.25,-0 1.54,-0.13 4.04,-0.4 5.02,-1.56l-1.23 0.22c-1.15,-1.15 -1.36,-1.84 -3.51,-2.25 -1.41,-0.27 -3.42,-1.03 -4.57,-1.02 -2.01,0.02 -8.17,0.65 -9.38,1.67z"/>
   <path class="fil26" d="M89.09 100.65c1.28,-0 3.19,-0.37 4.26,-0.92 -0.06,-0.94 -0.18,-0.87 -0.9,-1.51 -2.45,-0.37 -13.41,-4.8 -16.11,-5.96 0.62,2.45 3.13,4.49 5.26,5.52 2.47,1.2 4.89,1.9 7.49,2.86z"/>
   <path class="fil20" d="M122.22 69.73c-1.4,1.99 -4.4,2.64 -2.9,7.4 2.34,-0 3.83,-3.24 6.61,-5.69l6.67 -5.62c-0.23,-1.24 -0.1,-1.06 -1.48,-1.04 -2.95,1.88 -4.94,3.98 -8.9,4.95z"/>
   <path class="fil29" d="M170.96 29.55c3.32,4.53 6.54,11.98 7.77,19.46 0.9,1.36 0.23,1.8 1.64,2.32l0.03 -2.35c-0.54,-3.93 -2.09,-8.21 -3.39,-11.6 -0.72,-1.87 -1.32,-3.4 -2.18,-5.23 -1.06,-2.23 -2,-3.39 -2.81,-5.06 -0.69,-0.37 -0.46,-0.55 -1.12,-1.14l-0.56 0.52c-1.67,-0.86 -2.57,-2.35 -3.98,-2.71 2.25,1.71 3.35,3.1 4.61,5.79z"/>
   <path class="fil26" d="M45.54 153.56l-0.5 -0.19c-0.69,1.31 -1.59,1.63 -1.84,2.96 1.39,0.57 3.59,-0.15 4.19,0.8 1.96,0.19 1.77,1.61 2.78,3.01 3.31,1.35 3.62,-3.52 3,-4.68 -1.99,-3.71 -1.92,-1.29 -7.62,-1.89z"/>
   <path class="fil30" d="M153.06 98.29c1.02,-1.72 -0.87,-3.58 0.54,-5.74 0.04,0.06 0.09,0.08 0.11,0.19 0,0.02 0.35,0.48 0.55,2.51 0.11,1.18 0.1,2.29 0.26,3.47 2.31,0.79 4.4,-2.13 4.15,-4.78 -0.14,-1.47 -0.94,-2.35 -1.66,-3.04 -1.52,-1.45 -1.5,-1.12 -2.76,-0.21 -0.59,-0.97 -0.32,-0.25 -0.96,-1.07 -0.25,-0.32 -0.25,-0.42 -0.47,-0.7 -0.52,-0.67 0.08,-0.16 -0.64,-0.67 0.26,2.01 0.56,3.08 0.46,5.34 -0.04,0.98 -0.16,1.63 -0.25,2.53 -0.16,1.61 -0.39,1.72 0.68,2.19z"/>
   <path class="fil31" d="M194.35 147.53c-2.96,-1.24 -2.59,-4.36 -0.81,-6.67 2.02,-2.62 3.05,-3.24 5.81,-1.18 0.69,-0.39 0.56,0.47 0.52,-0.67 -1.27,-1.29 -2.68,-1.9 -4.71,-1.77 -1.18,0.07 -1.55,0.39 -2.1,1.15 -0.58,0.79 -0.89,1.28 -1.46,2.06l-3.01 4.02c-1.38,1.24 -2.32,1.38 -2.32,4.12 1.8,-0.21 4.18,-3.66 5.9,-1.49 0.89,1.12 0.18,1.81 2.87,1.53 -0.4,-1.02 0.26,0 -0.68,-1.1z"/>
   <path class="fil32" d="M105.05 188.61c1.37,2.63 7.14,4.62 11.43,1.87 1,-0.64 1.79,-1.21 2.49,-2.16l0.44 -0.7c-1.57,0.71 -5.53,0.01 -7.62,0.1 -1.26,0.05 -2.53,0.13 -3.82,0.17 -2.34,0.08 -1.7,0.79 -2.92,0.72z"/>
   <path class="fil20" d="M60.06 77.79c1.47,2.39 3.4,3.03 5.1,6.08 0.63,1.12 0.76,1.97 1.79,2.29 0.79,-0.94 0.93,-2.36 0.96,-4.03 0.04,-2.08 0.17,-3.23 -1.06,-4.22 -1.97,-1.57 -4.55,-1.62 -6.8,-0.12z"/>
   <path class="fil33" d="M105.22 174.65c1.4,-0.01 6.57,1.29 8,1.95 1.35,0.63 2.11,1.24 3.17,1.96 2.29,1.56 1.58,0.78 3.59,0.28 -0.54,-2.17 -0.64,-2.74 -1.56,-4.44 -1.94,-0.15 -3.74,-0.16 -5.61,-0.41 -1.29,-0.18 -1.37,-0.45 -2.42,-0.57 -0.92,-0.11 -1.91,0.03 -2.8,-0.05l-2.38 1.28z"/>
   <path class="fil34" d="M74.15 9.59c-0.59,0.79 -1.29,0.75 -2.08,1.4 -4.24,3.5 -13.63,7.89 -15.09,10.82l2.66 -1.27c1.01,-0.32 0.29,-0.36 0.82,0.07 0.98,-0.51 1.27,-1.25 2.48,-2.14 0.9,-0.66 1.75,-1.3 2.61,-1.96 1.27,-0.98 4.43,-4.72 5.19,-1.64 4.1,-2.5 5.23,-4.08 9.42,-5.74 1.17,-0.46 1.11,-0.57 1.43,-1.07 -3.3,-0.04 -5.22,1.43 -7.45,1.54z"/>
   <path class="fil6" d="M145.43 39.03c-0.37,-0.51 -0.67,-0.77 -1.06,-1.37 -0.51,-0.79 -0.41,-0.9 -1.03,-1.59 -1.64,0.23 -1.72,1.19 -2.46,-0.33 0.75,-0.49 2,-0.98 2.7,-1.19 0.44,-0.56 0.44,-0.52 1.11,-1.01 1.47,-1.08 2.64,-1.4 2.94,-2.45 -1.43,-1.09 -2.8,0.82 -3.56,1.48 -3.6,3.1 -4.74,-0.39 -6.9,3.21 -0.65,1.07 -1.69,2.68 -1.64,3.99 2.02,-0.4 1.43,-2.6 3.7,-2.34l0.62 1.57c1.73,-0.07 0.13,-0.82 1.68,-0.25 0.69,0.25 0.31,0.45 1.61,0.64 -0.39,-1.05 -0.61,-0.83 -0.43,-1.94 1.42,-0.41 1.59,1.05 2.51,2.22l0.23 -0.65z"/>
   <path class="fil6" d="M16.9 146.4c-0.8,2.6 -1.72,4.21 -0.26,7.35 1.76,-1.05 1.6,0.27 3.22,0.24 1.2,-2.19 1.05,-6.89 -0.13,-8.75 -1.75,-0.24 -1.57,0.1 -2.83,1.16z"/>
   <path class="fil35" d="M14.95 79.27c2.41,-0.24 2.95,5.36 4.14,8.23l2.6 10.65c0.36,2.02 -0.17,6.04 1.44,7.11 0.33,-1.71 -0.06,-1.76 -0.06,-3.24 0.21,-3.96 -1.28,-9.62 -2.38,-12.99 -0.77,-2.34 -2.99,-9.95 -4,-11.25 -0.86,0.93 0.15,-0.89 -1.74,1.49z"/>
   <path class="fil5" d="M141.15 68.31c0.54,1.34 1.45,2.31 2.19,3.86 1.27,-1.86 1.03,-3.09 0.72,-4.76 -0.71,-3.94 -0.49,-2.11 0.48,-5 -0.52,0.37 -0.36,0.31 -0.91,0.52 -1.23,-3.79 -0.22,-4.29 0.28,-7.75 -1.33,0.42 -1.32,1.61 -1.82,3.21 -0.75,2.43 -0.14,2.24 -0.36,4.56l-1.01 0.34c-0.05,0.02 -0.14,0.07 -0.18,0.09l-0.34 0.2c0.95,1.43 0.6,0.55 0.8,2.44 0.12,1.13 0.52,1.82 0.15,2.3z"/>
   <path class="fil13" d="M22.24 39.17l0.13 4.59c1.49,-0.02 2.81,-2.2 3.54,-3.72 0.36,-0.74 1.34,-5.59 1.31,-6.05l-1.63 -0.08c-2.52,0.27 -3.2,2.23 -3.34,5.26z"/>
   <path class="fil1" d="M63.85 100.53c0.29,-1.52 1.05,-5.88 0.86,-7.22 -2.28,-0.66 -5,1.08 -5.47,3.2 -0.62,2.81 2.5,4.23 4.61,4.02z"/>
   <path class="fil2" d="M188.64 105.67c0.54,-0.67 1.87,-3.4 2.37,-3.63l0.03 2.73 1.68 -4.46c0.57,-1.54 1.38,-2.74 1.7,-4.67 -2.3,1.86 -2.87,0.27 -5.46,1.02 -0.82,2.02 -0.34,6.6 -0.32,9z"/>
   <path class="fil36" d="M142.91 120.02c1.68,-0.54 6.91,-5.78 8.3,-7.3 -0.46,-1.51 -1.55,-3.04 -2.47,-3.64 -0.83,1.23 -1.2,1.12 -1.77,2.23l-4.06 8.71z"/>
   <path class="fil24" d="M86.6 66.44c2.45,-1.03 4.75,-2.28 7.36,-3.14 2.36,-0.78 6.24,-0.99 7.61,-3.27 -3.23,-0.21 -5.89,0.64 -9.11,1.12 -2.03,0.3 -2.56,0.11 -3.56,1.88 -0.86,1.52 -1.37,2.29 -2.3,3.41z"/>
   <path class="fil23" d="M82.39 117.19c4.78,-0.26 2.64,2.77 6.43,6.1l0.2 -0.45c0.56,-1.59 0.28,-1.97 1.15,-3.09 1.28,0.14 1.19,0.39 1.74,1.52 0.39,0.81 0.78,1.44 1.21,2.14l1.14 0.22c0.96,-1.18 1.37,-1.48 1.67,-3.62 -0.08,0.05 -0.2,0.12 -0.25,0.15 -0.05,0.03 -0.19,0.11 -0.24,0.15 -0.05,0.03 -0.35,0.22 -0.42,0.28 -1.4,-0.47 -3.11,-1.36 -4.36,-1.64 -2.33,-0.53 -2.67,0.3 -3.37,-2.31 -0.99,0.28 -0.69,-0.18 -0.9,1.07 -0.23,-0.25 -1.12,-1.08 -1.69,-1.3 -0.04,-0.02 -0.75,-0.28 -1.25,-0.12 -1.42,0.44 -0.72,0.27 -1.06,0.91z"/>
   <path class="fil8" d="M164.3 23.85l0.02 -0.67c2.55,0.78 1.94,1.42 3.36,2.92l3.29 3.45c-1.26,-2.69 -2.36,-4.08 -4.61,-5.79 1.42,0.36 2.31,1.85 3.98,2.71l0.56 -0.52c-0.47,-0.8 -1.53,-2.57 -2.34,-3.17l0.18 1.11c-3.82,-1.1 -8.15,-6.66 -10.89,-6.99 0.19,2.31 1.45,2.96 2.71,4.05 1.15,1 2.63,2.32 3.74,2.9z"/>
   <path class="fil8" d="M134.08 25.41c-0.21,0.52 -0.25,-0.65 -0.15,0.75 0.2,2.76 11.33,2.16 11.55,-1.49 -2.67,-0.22 -9.19,-0.01 -11.4,0.74z"/>
   <path class="fil16" d="M101.51 86.18c1.22,0.86 4.17,3.06 5.89,1.79 0.04,-2.27 -0.02,-0.04 -1.1,-1.52 1.4,-2.16 3.04,-2.37 3.65,-3.92 -1.58,0.25 -3.37,0.06 -4.76,0.69 -2.27,1.02 -1.18,1.05 -4.2,1.12 0.06,1.4 0.32,0.83 0.53,1.85z"/>
   <path class="fil1" d="M62.81 86.05c1.04,-4.55 -4.17,-7.49 -5.77,-5.7 -1.58,1.78 0.53,3.21 1.58,3.89 0.92,0.6 2.89,2.17 4.19,1.81z"/>
   <path class="fil16" d="M156.68 35.15c2.46,2.02 3.06,3.63 4.64,7.53 0.65,1.6 1.11,2.77 2.17,3.99l3.01 3.22c0.45,-0.4 0.35,0.53 0.25,-0.79 -0.06,-0.7 -0.78,-1.21 -1.25,-1.64 -3.53,-3.24 -4.01,-9.53 -7.16,-12.52 -1.32,-1.25 -2.27,-2.92 -4.35,-3.32 0.45,1.47 1.87,2.46 2.69,3.53z"/>
   <path class="fil9" d="M31.91 147.91l0.69 0.02 -0.36 -1.53c1.3,0.18 0.23,-0.15 1.24,0.33l-0.07 -0.92c1.27,-0.01 1.15,0.11 2.04,-0.66l-2.62 0.15 -2.27 -4.92c-1.31,-0.64 -0.53,-1.03 -1.8,-0.91 -0.39,5.27 0.08,5.55 3.16,8.45z"/>
   <path class="fil26" d="M35.44 145.15c-0.88,0.77 -0.77,0.65 -2.04,0.66l0.07 0.92 0.47 0.88c8.52,1.02 3.98,2.57 7.67,2.6 -0.14,-1.23 -0.6,-1.94 -1.01,-3.28 -1.74,-0.07 -0.75,0.61 -1.56,-1.29 -0.53,-1.23 -0.93,-1.33 -2.18,-0.87l-1.42 0.38z"/>
   <path class="fil16" d="M37.32 81.66l1.29 4.48c1.1,-0.08 0.39,0.45 0.93,-0.31 -0.3,-3.21 -1.57,-5.89 -2.03,-8.96 -0.31,-2.06 -1.25,-7.24 -2.73,-8.06 -0.21,2.16 2.03,10.17 2.55,12.85z"/>
   <path class="fil11" d="M101.51 86.18c0.48,1.25 1.44,2.29 2.36,3.13 0.38,0.35 0.96,0.8 1.3,1.27 0.59,0.8 0.37,1.17 1,2.03 -0.23,-2.48 1.39,-3.32 2.37,-5.22 2.51,-4.88 1.84,-2.75 3,-4.76l-1.6 -0.11c-0.61,1.55 -2.25,1.76 -3.65,3.92 1.09,1.48 1.15,-0.75 1.1,1.52 -1.72,1.27 -4.66,-0.93 -5.89,-1.79z"/>
   <path class="fil31" d="M179.51 145.15l-0.3 -0.25c-0.04,-0.03 -0.24,-0.19 -0.3,-0.22 -0.41,-0.25 0.29,-0.16 -0.62,-0.28 0.07,2.93 0.22,3.41 2.05,4.79 1.21,0.91 2.02,2.51 4.4,1.99 0.44,-1.55 0.32,-0.98 -1.58,-3.45 -0.43,-0.56 0.53,0.06 -0.35,-0.34 -1.36,-0.61 0.06,1.17 0.26,2.56 -0.31,0.03 -1.45,1 -1.87,-2.26 -0.26,-2.08 0.49,-2.07 -0.09,-3.77 -1.18,-0.01 -1.09,0.11 -1.61,1.23z"/>
   <path class="fil6" d="M102.84 1.87c0.4,0.4 -0.01,0.1 0.59,0.38l2.39 0.51c0.95,-0.02 5.2,-1.85 7.28,1.4 0.59,0.93 0,0.4 0.84,1.27 1.53,0.09 1.79,-0.71 3.41,0.06 1.11,0.53 1.79,1.21 2.96,1.68 -0.69,-1.31 -1.91,-1.93 -3.12,-2.62 -5.96,-3.41 -3.49,-1.51 -7.92,-3.38 -2.34,-0.99 -2.47,-0.21 -3.72,1.01l-2.71 -0.31z"/>
   <path class="fil13" d="M34.34 35.93c-0.03,1.42 -0.02,2.56 0.65,3.63 2.46,0.4 2.25,-1.41 3.4,-2.84 0.5,-0.63 0.63,-0.38 0.95,-1.29 -0.23,-0.42 -0.33,-0.58 -0.58,-0.96 -2.57,0.04 -3.11,-0.81 -4.42,1.46z"/>
   <path class="fil25" d="M115.81 168.71l-0.87 1.91c3.8,0.11 1.92,1.14 4.66,2.16 1.39,-1.41 1.17,-3.85 0.35,-5.59 -2.11,0.47 -0.51,1.33 -4.13,1.51z"/>
   <path class="fil10" d="M122.22 69.73c3.96,-0.96 5.95,-3.07 8.9,-4.95l0.57 -0.7 -1.12 -0.35c-0.41,-0.37 0.4,-0.3 -0.57,-0.23 -0.12,0.01 -1.17,0.48 -1.31,0.54 -2.23,1.04 -3,1.62 -4.43,3.62 -0.4,0.56 -0.42,0.62 -0.93,1.08l-0.94 0.83c-0.04,0.03 -0.11,0.11 -0.16,0.16z"/>
   <path class="fil6" d="M133.91 19.97c2.24,2.58 15.32,-0.99 17.67,-1.51 -0.43,-0.33 0.08,-0.27 -0.96,-0.4l-7.6 1.21c-1.97,0.38 -8.27,0.29 -9.12,0.7z"/>
   <path class="fil35" d="M73.13 53.84c-2.66,0.99 -3.03,5.6 -0.14,4.59 2.24,-0.79 3.05,-5.67 0.14,-4.59z"/>
   <path class="fil23" d="M78.88 106.85l-0.07 -1.56c2.05,-1.04 4.69,0.29 6.51,0.92 -0.42,-0.91 -0.49,-0.72 -2.23,-1.46 -2.25,-0.95 -6.51,-1.97 -8.85,-2.1 0.41,0.41 0.64,0.26 1.35,1.11 0.32,0.38 0.58,0.84 0.88,1.16l2.41 1.93z"/>
   <path class="fil13" d="M43.2 37.17c0.77,-1.33 -0.03,-2.31 -0.9,-2.69 -0.79,0.32 -1.7,1.19 -2.42,1.78 -0.85,0.7 -1.82,1.37 -1.37,2.99 1.17,0.15 3.85,-1.35 4.7,-2.07z"/>
   <path class="fil36" d="M142.49 85.83c0.83,0.76 1.34,0.11 2.21,0.07 0.7,-0.04 1.6,0.24 2.69,0.19 0,-0.77 -1.02,-4.85 -2.41,-5.5 0.33,5.02 -1.68,3.72 -2.49,5.25z"/>
   <path class="fil23" d="M89.09 100.65c0.91,0.81 1.94,0.35 3.44,1.05 1.23,0.57 2.82,0.25 4.23,0.32 -0.64,-1.36 -1.04,-0.93 -1.89,-2.1 -0.73,-1 -0.96,-1.59 -2.42,-1.7 0.72,0.64 0.84,0.57 0.9,1.51 -1.07,0.54 -2.98,0.91 -4.26,0.92z"/>
   <path class="fil23" d="M115.71 119.92l1.13 -0.15c-0.02,1.64 -0.85,3.71 0.05,4.95 0.85,-0.5 1.58,-4.35 1.63,-5.52 0.97,-0.03 1.31,0.11 2.27,-0.15 1.22,-0.34 1.53,-0.25 1.88,-1.36l-6.37 1.72c-0.46,0.24 -0.28,0.18 -0.58,0.51z"/>
   <path class="fil23" d="M104.8 49.74l7.92 -1.05c0.08,-0.94 0.62,-1.12 -4.74,-0.89 -2.07,0.09 -3.05,0.34 -3.18,1.93z"/>
   <path class="fil4" d="M26.71 30.67c3.28,0.22 4.6,-4.12 1.84,-4.19 -1.34,0.87 -1.9,1.9 -1.84,4.19z"/>
   <path class="fil37" d="M114.21 106.85c-0.21,-0.85 0.5,-0.79 -0.7,-0.55 -6.28,4.07 -4.6,-0.38 -4.49,-1.54 -0.66,0.78 -0.76,0.99 -0.86,2.4 -0.14,1.96 -0.22,1 -0.71,2.54 2.27,-1.18 4.65,-0.77 6.75,-2.85z"/>
   <path class="fil36" d="M65.06 90.22c0.54,-0.91 0.75,-2.57 0.79,-3.78 -0.61,-0.67 -1.16,-1.55 -1.97,-1.99 -0.18,1.09 -0.48,2.42 -0.19,3.48l1.37 2.29z"/>
   <path class="fil31" d="M186.53 150.13c0,1 0.14,0.92 0.54,1.54 0.94,0.01 5.19,-2.3 5.38,-2.46 -0.26,-1.04 -0.23,-0.92 -1.06,-1.29 -0.32,0.21 -0.56,0.43 -0.8,0.68 -2.63,2.8 -1.27,0.78 -4.06,1.53z"/>
   <path class="fil30" d="M135.16 113.85c0.47,-1.82 1.44,-3.52 1.41,-5.75 -1.04,0.53 -2.65,3.74 -2.84,5.16 0.93,0.61 0.17,0.31 1.42,0.59z"/>
   <path class="fil33" d="M95.94 120c-0.3,2.14 -0.72,2.44 -1.67,3.62l-1.14 -0.22c0.37,0.63 -0.05,0.12 0.44,0.6l2.04 1.1 0.97 -4.41c0.76,0.37 0.44,0.36 1.45,0.55 -0.34,-0.86 -0.04,-0.34 -0.6,-1.08 -0,-0 -0.49,-0.52 -0.5,-0.54 -0.75,0.06 -0.53,0 -0.98,0.38z"/>
   <path class="fil16" d="M34.33 99.44c0.09,-2.23 -0.5,-4.15 -1.07,-6.22 -0.45,-1.64 -0.4,-1.33 -0.93,-1.87 -0.08,1.97 0.74,7.18 2,8.09z"/>
   <path class="fil16" d="M80.31 29.7c0.84,-0.07 4.21,-0.55 5,-1.07 0.64,-0.42 0.29,-0.16 0.63,-0.62 -0.96,-0.64 -1.99,-0.15 -3.1,-0.03 -1.67,0.17 -2.07,-0.26 -2.53,1.72z"/>
   <path class="fil31" d="M195.96 151.59l0.03 -1.8c-1.09,-0.1 -2.65,0.18 -3.53,0.66 -1.18,0.65 -0.52,0.1 -0.75,0.92 1.33,0.62 2.92,0.28 4.24,0.22z"/>
   <path class="fil9" d="M37.7 166.93l0.48 1.14c0.9,-1.19 -0.17,-0.35 0.53,-0.32 0.4,0.02 0.18,0.05 0.41,0.3 0.42,0.46 1.17,2.09 2.31,2.31 -0,-1.85 -1.89,-4.09 -3.1,-4.54 -0.44,1.28 0.06,0.37 -0.64,1.11z"/>
   <path class="fil4" d="M131.68 64.08l-0.57 0.7c1.38,-0.02 1.25,-0.2 1.48,1.04 0.68,-0.47 0.31,-0.37 1.09,-0.61 0.47,-1.31 0.58,-1.34 2.13,-1.32 -0.21,-0.21 -0.14,-0.22 -0.5,-0.46 -2.06,-1.36 -2.77,-0.24 -3.64,0.64z"/>
   <path class="fil9" d="M47.14 82.43c0.1,-1.05 0.57,-1.38 0.33,-2.39 -0.11,-0.48 -0.77,-1.17 -1.09,-1.9 -1.36,-3.13 -0.13,-4.39 -1.16,-4.82 0.4,3.24 0.17,6.64 1.92,9.11z"/>
   <path class="fil34" d="M10.65 68.08c1.2,-0.16 3.27,-2.71 3.49,-3.98 -1.39,-0.02 -1.47,0.34 -2.11,1.16 -0.46,0.59 -1.06,1.15 -1.52,1.6l0.15 1.22z"/>
   <path class="fil33" d="M113.51 106.3c1.19,-0.25 0.48,-0.3 0.7,0.55l2.93 -2.63c-1.6,0.31 -1.47,-0.08 -1.59,-1.77l-0.82 -0.25c0.07,0.09 0.16,0.12 0.18,0.28 0.02,0.14 0.12,0.2 0.14,0.25 0.02,0.05 0.09,0.32 0.14,0.41 -0.54,0.98 -0.07,0.19 -0.98,0.93l0.1 1.54c-1.5,0.48 -0.26,-0.02 -0.79,0.7z"/>
   <path class="fil23" d="M111.5 116.89l-1.43 -0.15 0.43 -0.64c0.02,-0.14 0.12,-0.15 0.18,-0.22l-1.53 0.36c0.62,1.9 -0.14,3.01 0.99,4.73 0.76,-1.45 0.77,-2.06 0.23,-3.3 0.06,-0.05 0.16,-0.2 0.19,-0.14l0.94 -0.64z"/>
   <path class="fil23" d="M102.58 119.71c0.48,-1.02 0.16,-2.04 0.3,-3.27 0.19,-1.61 0.96,-2.37 -0.85,-2.52 0.58,2.7 0.08,1.2 -0.22,2.89 -0.17,0.92 0.16,2.58 0.76,2.9z"/>
   <path class="fil36" d="M69.91 106.56c1.04,-0.04 1.73,-0.42 2.39,-1.26 -0.36,-1.52 -2.68,-3.06 -2.39,1.26z"/>
   <path class="fil23" d="M56.99 173.46c1.36,-0.02 3.44,-0.8 4.22,-1.82l-0.75 0.09 0.42 -1.66c-2.12,0.55 -1.78,1.91 -2.78,2.69l-1.11 0.7z"/>
   <path class="fil36" d="M143.88 104.53c3.68,0.05 0.25,-4.49 -0.48,-1.94 -0.33,1.14 0.48,1.94 0.48,1.94z"/>
   <path class="fil9" d="M79.32 65.1l1.97 0.74 -0.23 -0.71c1.67,0.02 2.14,1.95 3.61,2.38l-2.01 -3.23 -3.34 0.82z"/>
   <path class="fil33" d="M127.69 117.99c0.92,-0.74 0.07,-0.25 0.69,-1.38 0.33,-0.61 2.02,-1.61 2.51,-2.94 -1.34,0.16 -4.05,2.76 -3.19,4.32z"/>
   <path class="fil12" d="M107.55 145.94c1.15,-0 2.52,-0.05 3.31,-0.75 -0.28,-1.37 -0.19,-1.13 -1.52,-0.65 -1.12,0.4 -1.24,0.24 -1.78,1.4z"/>
   <path class="fil33" d="M102.05 175.26l0.08 1.03c-0.53,-0.29 -0.42,0.01 -0.89,-0.43l0.14 1.5c0.06,-0.05 0.14,-0.14 0.18,-0.17l1.22 -0.5c0.46,-0.86 0.91,-1.43 0.71,-2.55 -0.64,0.24 -0.44,0.16 -0.88,0.52l-0.57 0.6z"/>
   <path class="fil38" d="M115.65 168.11c1.8,-0.64 2.12,-0.91 2.47,-1.9 -0.07,-0.05 -0.15,-0.11 -0.22,-0.14 -0.06,-0.02 -0.15,-0.09 -0.22,-0.12l-1.45 -0.12 -0.58 2.27z"/>
   <path class="fil33" d="M79.33 113.27c0.67,1.48 1.3,3.61 3.03,2.93 -0.37,-1.27 -0.44,-0.91 -1.39,-1.6 -0.76,-0.55 -0.81,-0.84 -1.64,-1.34z"/>
   <path class="fil33" d="M106.13 169.51c1.02,0.03 1.91,-0.17 2.35,-1.17l-2.78 -0.45c0.01,1.11 0.04,0.94 0.44,1.62z"/>
   <path class="fil38" d="M100.97 171.77l1.33 0.55c-0.04,-0.86 -0.25,-1.22 -0.46,-1.81 -0.45,-1.21 0.02,-1.28 -1.02,-1.32 -0.08,1.62 0.03,1.44 0.16,2.58z"/>
   <path class="fil23" d="M115.63 142.98c1.2,-0.08 0.95,-0.71 2.59,-0.94 1.46,-0.2 1.78,-0.24 2,-1.89l-2.31 1.65c-1.28,0.48 -1.82,-0.33 -2.28,1.18z"/>
   <path class="fil33" d="M136.45 105.18c1.3,-0.1 2.07,-1.13 2.41,-2.54 -1.3,0.31 -2.32,1.23 -2.41,2.54z"/>
   <path class="fil9" d="M45.91 167.62c0.3,-0.36 0.2,-0.16 0.34,-0.79 -0.49,-0.81 -0.22,-0.54 -1.1,-0.88 -0.78,0.08 -0.26,-0.24 -0.65,0.26 0.58,1.02 0.38,1.59 1.41,1.4z"/>
   <path class="fil23" d="M114.93 170.62l0.87 -1.91c-0.89,0.26 -1.37,0.33 -1.97,0.9 0.41,0.86 0.18,0.62 1.09,1.01z"/>
   <path class="fil23" d="M94.39 106.47c-0.17,-0.71 0.03,-0.18 -0.37,-0.97 -0.52,-1.02 0.09,-0.34 -0.63,-0.82 -0.49,1.28 -0.41,2.72 1,1.79z"/>
   <path class="fil12" d="M111.5 116.89c0.51,-0.59 0.26,-0.08 0.35,-1.15l-1.17 0.14c-0.06,0.07 -0.16,0.09 -0.18,0.22l-0.43 0.64 1.43 0.15z"/>
   <path class="fil37" d="M157.11 82.29c0.43,-0.77 0.52,-1.78 0.27,-2.4l-0.57 1.28c-0.25,0.62 -0.27,0.4 -0.41,1.16l0.7 -0.05z"/>
   <path class="fil37" d="M97.09 106.98c-0.36,-1.2 -0.18,-1.17 -1.48,-1.31 0.25,1.03 0.38,0.99 1.48,1.31z"/>
  </g>
 </g>
</svg>
