<?xml version="1.0" encoding="UTF-8"?>
<!DOCTYPE svg PUBLIC "-//W3C//DTD SVG 1.1//EN" "http://www.w3.org/Graphics/SVG/1.1/DTD/svg11.dtd">
<!-- Creator: CorelDRAW -->
<svg xmlns="http://www.w3.org/2000/svg" xml:space="preserve" width="63.5536mm" height="65.4599mm" version="1.1" style="shape-rendering:geometricPrecision; text-rendering:geometricPrecision; image-rendering:optimizeQuality; fill-rule:evenodd; clip-rule:evenodd"
viewBox="0 0 102.26 105.33"
 xmlns:xlink="http://www.w3.org/1999/xlink"
 xmlns:xodm="http://www.corel.com/coreldraw/odm/2003">
 <defs>
  <style type="text/css">
   <![CDATA[
    .fil0 {fill:#070909}
    .fil4 {fill:#F1FD00}
    .fil1 {fill:#F9F4E8}
    .fil3 {fill:#FD0000}
    .fil2 {fill:white}
   ]]>
  </style>
 </defs>
 <g id="Camada_x0020_1">
  <metadata id="CorelCorpID_0Corel-Layer"/>
  <g id="_2076166039424">
   <path class="fil0" d="M24.64 23.25c0.01,1.34 -2.45,5.84 -1.9,12.52 0.12,1.42 0.07,1.4 -0.7,2.39 -0.7,0.89 -2.03,2.87 -2.78,3.44 -2.22,-0.45 -2.93,-3.52 -4.56,-4.78 -6.2,-4.78 -10.57,2.3 -5.46,5.34 2.29,1.36 3.56,2.17 4.92,4.49 1.23,2.09 1.31,4.88 1.19,7.45 -0.12,2.65 0.09,5.14 -0.3,7.87 -0.36,2.53 -2.13,1.9 -3.58,5.57 -1.08,2.72 -0.8,4.75 -0.96,7.7 -2.71,0.89 -2.15,0.77 -2.96,3.28l-4.35 13.73c-0.94,3.06 -1.85,6.18 -2.81,9.28 -0.56,1.81 -0.94,3.45 1.82,3.62 1.6,0.1 5.81,0.1 7.36,-0.07 0.57,-1.23 0.93,-3 1.33,-4.4l4.56 -0.05c0.14,1.84 0.07,2.85 1.61,3.78 1.71,1.04 3.42,0.75 5.73,0.92 0.65,-0.43 2.1,-0.43 2.81,-0.83 0.76,-0.43 1.36,-1.45 1.96,-1.68 1.72,2.24 3.59,2.77 7.5,2.29 4.53,-0.56 3.89,-3.18 5.31,-4.5l4.69 -0.02c0.2,1.48 -0.01,4.67 4.61,4.65 2.13,-0.01 2.03,-0.9 4.16,-0.39 3.42,0.81 2.92,-0.86 3.14,-1.47 0.87,-0.02 1.24,0.72 2.13,1.14 1.81,0.85 4.27,0.98 6.26,0.48 1.33,-0.33 1.57,-0.65 2.55,-1.06 0.85,0.26 0.63,0.57 1.53,0.91 0.68,0.26 1.67,0.25 2.53,0.26 1.9,0.03 3.8,-0.02 5.69,-0.02l15.44 -0.02c0.3,-0.36 0.22,-0.26 0.46,-0.71 1.15,-2.19 1.16,-4.55 1.59,-6.69 0.44,-2.19 3.68,-11.29 4.65,-14.13 0.41,-1.2 0.78,-2.28 1.19,-3.44 0.36,-1.03 0.77,-2.63 1.28,-3.55 -1.02,-0.34 -1.98,-0.97 -3.37,-1.11 -1.74,-0.18 -2.9,0.32 -4.21,0.25l-0.22 -1.93 -1.73 -6.23c-1.18,-3.73 -3,-8.42 -4.77,-11.93 -0.44,-0.87 -2.84,-5.18 -2.81,-5.55 -1.18,-0.78 -1.99,-3.94 -8.18,-5.63 -0.07,-0.93 0.21,-2.1 0.93,-2.88 -0.31,-2.09 2.12,-4 3.16,-5.16 0.67,-0.74 1.31,-1.5 1.57,-2.64 0.37,-1.63 -0.37,-2.08 -0.52,-3.18 -0.95,-0.41 -2.02,-1.37 -3.76,-1.04 -2.14,0.41 -4.65,3.65 -5.65,5.19 -0.8,1.23 -0.47,0.91 -1.12,1.12 -0.53,-0.32 -2.2,-2.84 -2.62,-3.34 -3.01,-3.66 -3.74,-1.39 -4.28,-4.55l-1.27 -6.88c-0.39,-0.75 -3.29,-9.22 -3.29,-9.86 -0.71,-0.56 -1.2,-1.93 -1.73,-2.7 -0.65,-0.94 -1.02,-1.45 -1.88,-2.4 -1.48,-1.62 -2.98,-2.53 -5.01,-3.79 -5.9,-3.63 -7.6,-2.65 -13.1,0.54 -3.08,1.79 -6.94,5.1 -8.77,8.74 -0.68,1.35 -4.43,11.16 -4.98,11.64z"/>
   <path class="fil1" d="M52.34 20.78c2.02,-0.45 2.45,3.43 0.32,3.74 -2.14,0.3 -2.51,-3.25 -0.32,-3.74zm-24.33 40.15c-0.86,-0.35 -2.19,-0.29 -3.12,-0.49 -1.97,-0.42 -3.47,-0.88 -5.22,-1.78 -0.92,-0.47 -1.29,-0.97 -2.02,-1.46 -0.05,1.19 0.72,1.68 1.79,2.14 0.99,0.42 1.93,0.82 2.94,1.22 1.19,0.48 5.64,2.9 5.64,0.37zm47.25 -8.31c-0.7,0.56 -0.96,3.46 -6.95,4.86 -0.88,0.2 -3.66,0.25 -2.12,1.41 1.26,0.95 4.2,-1.06 5.65,-1.95 1.72,-1.06 3.72,-1.7 3.42,-4.31zm-46.46 -1.46c4.63,0.45 8.75,-8.77 5.26,-10.01 -0.61,0.62 -5.24,9.37 -5.26,10.01zm35.62 -3.93c-0.02,-0.56 -4.72,-9.91 -5.43,-10.94 -3.48,0.61 1.16,11.44 5.43,10.94zm-33.21 -8.38c-2.55,-0.31 -2.12,1.9 -3.7,4.99 -1.3,2.56 -3.74,4.59 -2.05,5.62 3.53,2.16 7.14,-7.62 5.75,-10.61zm35.88 6.64c1.4,-2.51 -1.56,-3.92 -3.42,-9.37 -0.33,-0.96 -0.66,-2.6 -2.04,-2.83 -1.75,1.46 0.71,12.66 5.47,12.2zm-42.77 11.85c0.94,1.2 0.45,2.08 3.25,1.83 7.3,-0.66 6.33,-8.52 12.52,-12.4 1.58,-0.99 5.67,-2.67 5.01,-4.93 -3.29,-0.98 -8.08,3.69 -9.07,5.1 -1.48,2.11 -4.43,6.98 -7.86,6.34 -1.11,-0.77 -0.47,-1.17 -2.17,-1.54 -1.51,-0.32 -1.27,-0.63 -1.89,-1.86 -0.77,-1.55 -0.92,-0.8 -2.53,-1.38 -3.74,-1.35 1.33,-7.52 2.67,-9.38 0.56,-0.78 0.92,-1.52 2.47,-1.42 -0.34,0.64 -1.16,0.93 -1.75,1.85 -0.47,0.74 -0.71,1.57 -1.24,2.41 -0.85,1.34 -2.63,3.35 -1.98,5.11 2.83,0.68 5.4,-4.75 6.05,-6.69 0.18,-0.54 0.35,-1.09 0.44,-1.57 0.16,-0.83 0.29,-1.32 -0.32,-1.74 -2.05,-1.37 -5.53,2.62 -6.77,3.96 -0.43,0.47 -1.26,1.61 -1.91,1.92 -2.95,-1.43 -4.23,-5.38 -7.82,-5.98 -2.45,-0.41 -3.89,1.77 -2.2,3.08 0.7,0.54 1.38,0.82 2.12,1.39 5.79,4.48 4.5,7.72 5.54,10.82 0.56,1.67 1.4,3.04 2.42,4.24 2.19,2.57 4.18,0.97 5.02,0.84zm45.42 -14.63c1.81,-1.41 -0.56,-4.13 -1.36,-5.4 -0.5,-0.8 -0.85,-1.71 -1.35,-2.63 -0.62,-1.16 -1.52,-1.73 -1.86,-2.55 1.53,0.19 1.68,0.67 2.32,1.7 0.5,0.8 0.92,1.47 1.41,2.28 0.81,1.35 2.26,3.34 2.48,5.01 0.56,4.3 -2.13,2.35 -2.95,4.43 -0.57,1.43 -0.07,1.38 -1.63,2.13 -1.43,0.7 -1.16,1.14 -2.11,1.85 -2.92,0.19 -5.71,-4.7 -7.17,-6.93 -1.17,-1.78 -1.97,-2.45 -3.37,-3.62 -0.62,-0.52 -3.54,-3.03 -4.91,-1.95 -1.54,1.87 3.55,4.58 4.58,5.3 5.3,3.68 4.91,8.75 8.42,11.77 1.22,1.05 3.69,2.87 5.89,1.62 0.89,-0.51 0.46,-0.97 0.9,-1.71 0.82,-0 0.91,0.42 1.73,0.77 1.85,-0.36 2.55,-1.61 3.17,-3.2 0.63,-1.62 1.21,-2.91 1.31,-4.79 0.23,-4.39 0.87,-8.05 4.24,-11.04 0.59,-0.53 1.24,-0.96 1.66,-1.6 1.02,-1.55 -0.35,-3.57 -2.77,-2.88 -1.97,0.56 -2.57,1.62 -3.27,3.22 -0.43,0.97 -2.36,2.97 -3.13,3.31 -0.83,-0.4 -3.95,-5.38 -5.78,-6.36 -1.35,-0.73 -2.81,-0.47 -2.54,1.15 0.35,2.08 0.98,4.05 2.07,5.89 0.73,1.23 2.73,4.08 4.01,4.21zm-31.75 -23c2.23,-1.11 2.99,2.79 1.32,3.54 -1.17,0.53 -2.05,-0.37 -2.25,-1.14 -0.31,-1.21 0.04,-1.95 0.93,-2.4zm16.15 -1.16c-2.52,-0.01 -2.96,-0.15 -4.01,1.67 -0.17,0.31 -0.73,1.44 -1,1.65 -0.71,0.56 -1.28,-0.05 -1.26,-0.68 0.1,-2.81 6.03,-5.05 6.26,-2.64zm-17.43 -0.69c0.59,-1.51 2.03,-1.54 4.04,-0.96 1.57,0.46 2.5,1.48 2.66,3.14 -1.12,-0.34 -1.81,-1.56 -2.69,-2.14 -1.85,-1.22 -2.35,-0.23 -4.01,-0.05zm14.78 27.58l0.12 -2.56c-0.18,-0.99 -2.06,-2.7 -2.73,-3.1 -0.53,-0.32 -1.06,-0.38 -1.61,-0.66 -1.71,-0.87 -0.93,-0.7 -3.38,-0.87 -2.38,-0.17 -2.04,0.19 -3.85,0.65 0.76,-2.45 4.93,-2.23 6.29,-1.63 0.52,0.23 0.43,0.2 0.76,0.52 0.55,0.53 0.08,0.47 0.94,0.55 0.91,-2.3 -2.65,-2.92 -5.22,-2.58 -2.05,0.28 -5.04,2.43 -6.21,1.34 -1.35,-1.26 -1.22,-4.39 -0.77,-6.23 0.23,-0.95 0.5,-2 0.63,-3.08 0.1,-0.85 -0.13,-2.83 0.22,-3.41 1.14,0.12 0.99,1.31 0.85,2.6 -0.23,2.04 -1.94,7.08 -0.4,8.7 1.06,0.07 2.05,-0.81 2.78,-1.25 2.15,-1.31 0.63,-1.25 1.64,-2.41 1.56,-0.13 1.73,1.66 3.12,1.87 1.57,0.24 3.72,-2.91 4,-0.43 0.05,0.46 -0,0.75 0.09,1.24 0.5,0.34 2.7,1.17 3.54,1.21 1.12,-1.24 0.79,-3.56 0.69,-5.21 -0.08,-1.26 -0.87,-4.57 0.9,-4.83l-0.07 8.68c-0.12,0.88 -0.67,1.86 0.11,2.43 1.15,-0.35 2.35,-3.73 2.71,-4.93 1.15,-3.86 -0.24,-6.92 -0.16,-10.12 0.1,-4.14 1.44,-0.11 -0.47,-5.87 -1.62,-4.88 -4.69,-0.44 -6.33,-0.3 -1.38,-0.97 0.15,-1.9 1.26,-2.4 1.71,-0.76 2.46,-0.75 4.66,-0.77 -0.32,-1.69 -2,-4.41 -3.11,-5.57 -4.19,-4.37 -3.98,-0.89 -5.93,-1.9 -1.03,-0.54 -1.67,-1.29 -3.35,-0.54 -1.18,0.52 -2.13,1 -2.98,1.68 -0.86,0.68 -3.67,3.98 -3.77,5.01 1.04,-0.21 1.08,-0.61 2.06,-0.67 1.11,0.81 1.27,1.23 2.52,2.02 1.08,0.69 2.5,1 1.39,2.18 -1.76,-0.21 -2.75,-2.33 -4.52,-2.57 -1.8,0.57 -3.43,4.55 -3.79,6.53 -0.28,1.56 -0.07,2.95 -0.44,4.54 -1.56,6.66 -2,4.57 0.78,12.12 0.67,1.8 1.98,7.33 2.44,7.86 1.8,-0.03 3.1,-1.16 4.1,-1.8 4.19,-2.69 6.33,-1.09 4.54,2.35 -0.66,1.26 -1.51,1.58 -1.96,2.33 0.54,0.24 6.27,1.23 7.92,-0.7z"/>
   <path class="fil2" d="M80.57 80.49c1.14,-0.95 1.11,0.46 0.88,1.16l-2.09 6.48c-0.47,0.47 -0.92,0.34 -1.13,-0.09 -0.25,-0.51 1.97,-7.24 2.34,-7.55zm9.9 16.29c0.68,0.19 1.6,0.14 2.41,0.02 0.53,-0.91 2.95,-8.26 3.5,-9.85 0.54,-1.58 3.46,-9.04 3.12,-10.05 -1.48,-0.22 -2.02,-0.14 -3.55,-0.03 -0.59,0.94 -5.64,19.11 -5.47,19.91zm-8.97 6.36c4.67,0.62 4.03,-0.49 4.43,-1.8l2.42 -7.8c0.55,-1.76 1.08,-3.5 1.61,-5.22 1.04,-3.33 2,-4.45 0.08,-4.53 -3.19,-0.13 -2.63,-0.25 -3.8,3.47 -0.85,2.72 -4.91,14.81 -4.75,15.88zm-79.06 0.13c5.35,0 5.27,0.38 5.77,-1.17 0.24,-0.73 0.63,-1.4 0.55,-2.21l-2.16 -0.13c0,-1.1 2.33,-8.43 2.87,-9.18l2.26 -0.12c0.31,-0.58 1.04,-2.58 0.98,-3.36l-1.93 -0.07c-0.09,-0.24 0.89,-6.41 2.26,-6.72l1.88 -0.28c0.54,-0.16 0.99,-2.65 0.91,-3.17l-6.24 -0.01c-0.6,1.1 -6.45,20.35 -7.47,23.61 -0.19,0.6 -0.37,1.1 -0.55,1.69 -0.26,0.85 -0.4,1.12 0.87,1.12zm32.52 -10.74c-0.83,-0.27 -1.37,-0.17 -2.52,-0.17 -1.83,0 -1.54,0.47 -1.95,1.75 -0.55,1.72 -2.38,6.93 -1.84,8.16 0.64,1.45 4.37,1.43 6.29,0.94 3.32,-0.85 4.08,-5.69 5.05,-8.94 1.17,-3.94 1.56,-4.31 -1.9,-7 -1.5,-1.17 -0.63,-2.15 0.26,-5.06 0.24,-0.79 0.41,-2.39 1.53,-1.74 0.19,0.15 0.38,-0.01 -0.01,1.21 -0.3,0.95 -1.18,3.34 -1.09,4.06 0.8,0.22 2.83,0.42 3.49,0.01 0.94,-0.51 1.69,-4.2 1.97,-5.26 0.24,-0.91 0.69,-2.08 0.06,-2.89 -0.84,-1.07 -6.49,-1.13 -7.57,-0.07 -2.19,2.14 -2.84,5.66 -3.64,8.46 -0.66,2.29 -0.2,3.18 1.26,4.44 2.77,2.4 2.54,0.6 0.23,8.27 -0.13,0.42 -0.28,1.13 -0.97,1.15 -1.05,0.02 -0.43,-1 0.1,-2.67 0.3,-0.93 1.38,-3.84 1.25,-4.64zm17.96 9.56c0.49,0.56 0.12,0.67 0.81,1.2 1.51,0.56 1.83,-2.02 2.06,-2.74 0.38,-1.21 0.75,-2.38 1.15,-3.63l2.04 -6.35c0.45,-2.13 -4.38,-0.84 -4.63,-0.57 -0.26,0.28 -0.96,5.31 -1.56,7.22 -0.24,0.76 -0.65,3.01 -1.83,2.5 -0.28,-0.26 -0.18,-0.02 -0.21,-0.47l5.28 -17.19c0.29,-0.95 0.27,-2.01 1.61,-1.71 0.34,0.54 -0.25,1.91 -0.48,2.67l-0.49 2.69 3.59 0.1c0.69,-1.17 3.09,-7.58 1.37,-8.62 -0.73,-0.44 -2.76,-0.58 -3.84,-0.55 -5.33,0.19 -5.45,4.22 -6.89,8.82 -1.2,3.83 -2.35,7.6 -3.56,11.42 -0.45,1.44 -1.74,4.57 -0.64,5.88 0.56,0.67 2.24,0.82 3.44,0.58 1.43,-0.28 1.9,-1.02 2.79,-1.26zm-25.77 -21.67c0.52,-0.48 1.13,-0.23 1.24,0.33 0.06,0.29 -5.62,18.64 -6,18.93 -1.46,1.15 -1,-1.07 -0.81,-1.65l5.58 -17.61zm-2.08 -2.99c-2.1,1.26 -3.9,9 -4.63,11.4 -0.49,1.61 -3.5,11.02 -3.61,12.21 -0.17,1.94 0.99,2.29 3.23,2.42 4.65,0.27 5.72,-1.47 6.73,-4.5 0.92,-2.76 6.07,-18.44 6,-20.34 -0.09,-2.34 -4.72,-1.64 -5.5,-1.69 -0.55,-0.03 -2.23,0.49 -2.23,0.49zm49.82 -0.64l-3.93 0.01c-2.4,7.05 -4.57,14.91 -6.89,22.15 -0.25,0.79 -0.31,0.88 -1.45,0.79 -0.13,-2.09 7.1,-21.29 6.65,-22.83 -4.78,-0.58 -3.85,0.14 -5.78,6.32 -0.79,2.51 -1.52,4.88 -2.3,7.41 -0.64,2.08 -3.19,9.36 -2.99,11.22 0.16,1.53 2.06,1.56 3.84,1.6 4.04,0.09 5.14,-1.61 6.03,-4.26 0.96,-2.9 6.73,-20.85 6.82,-22.4zm-5.29 26.33c0.1,0.06 3.44,0.77 4.02,-0.77l2.73 -8.86c0.25,-0.85 0.23,-1.21 1.47,-1.01 0.41,1.53 -3.29,9.53 -2.8,10.66 0.62,0.26 1.67,0.12 2.46,0.07 1.23,-0.09 1.45,-0.2 1.72,-1.11 0.39,-1.3 0.73,-2.53 1.12,-3.82l1.66 -5.86c0.1,-1.24 -0.42,-1.35 -0.52,-2.02 -0.11,-0.69 1.26,-0.9 2.09,-2.84 0.51,-1.19 0.92,-2.39 1.31,-3.67 0.92,-3 2.61,-6.6 -0.94,-7 -0.92,-0.1 -5.05,-0.19 -5.86,-0.06 -1,0.17 -1.12,1.8 -1.64,3.43 -0.46,1.43 -7.14,21.89 -6.93,22.62l0.11 0.22z"/>
   <path class="fil3" d="M36.54 7.16c-0.7,-0.14 -1.64,1.42 -2.43,2.35 -0.83,0.98 -1.47,1.95 -2.16,2.98 -1.35,2.01 -2.36,4.38 -3.15,6.89 -0.78,2.48 -1.99,4.84 -2.62,7.16 -0.31,1.14 -1.37,7.83 -0.57,8.57 0.75,0.69 2.16,0.24 2.76,-1.92 1.08,-3.9 2.6,-7.78 3.09,-11.64 0.42,-3.3 -0.23,-5.29 1.23,-8.31 0.92,-1.9 3.82,-5.53 3.87,-5.89l-0.02 -0.19zm4.36 41.44c0.45,0.56 0.64,0.39 1.67,0.44 0.38,0.02 0.88,0.09 1.24,0.09 0.77,0.01 0.73,-0.03 1.02,-0.21 -0.21,-0.56 -1.58,-0.57 -2.87,-0.57 -0.67,0 -0.69,0.03 -1.06,0.25zm11.68 -3.29l0.68 0.13c-0.58,2.26 -0.91,0.83 -4.47,3.27 -0.61,0.42 -0.21,0.27 -0.96,0.39 -1.98,0.29 -1.66,0.78 -3.57,1.15 -2.14,0.41 -2.78,-0.27 -4.59,-0.23 0.05,1.86 1.85,1.49 1.2,2.9 -0.49,1.06 -0.74,2.59 -1.14,3.36 -0.92,-0.23 -0.76,-0.42 -1.08,-1.95 -0.18,-0.87 -0.21,-1.75 -0.32,-2.66 -1.56,0.5 -2.56,3.25 -3.31,4.7 -0.92,1.77 -1.94,3.19 -2.98,4.92 -1.32,2.18 -3.22,6.15 -2.11,8.64l0.04 0.09c0.05,0.39 0.2,0.84 0.37,1.38 0.41,1.24 1,2.93 1.59,4.63 3.47,-0.26 6.93,-0.52 9.31,-0.44 2.38,0.07 3.67,0.48 4.39,0.68 0.72,0.2 0.87,0.2 1.36,-0.22 0.5,-0.42 1.35,-1.27 0.87,-1.81 -0.48,-0.53 -2.29,-0.76 -3.28,-1.42 -0.61,-0.4 -0.91,-0.97 -1.3,-1.55 0.15,-0.03 0.3,-0.06 0.46,-0.09 -0.61,-5.43 -1.52,-1.74 -2.88,-6.75 -0.42,-1.54 -1.47,-5.41 -1.09,-7.02l0.49 -0.8c-0.15,2.71 0.51,5.28 1.65,7.63l2.92 6.42c3.69,-0.73 3.81,-2.59 5.03,-5.36 0.54,-1.23 1.1,-2.15 1.71,-3.33 0.59,-1.13 0.85,-2.74 1.7,-3.51 1.04,-0.94 1.48,-1.49 2.28,-2.91 3.72,-6.61 0.43,-4.98 -1.65,-10.41 -0.77,-0.08 -0.93,-0.22 -1.32,0.17zm-35.46 22.74c-0.06,0.33 -0.08,0.68 -0.02,1.06 0.15,0.9 0.74,1.97 1.03,3.06 0.29,1.09 0.29,2.19 0.41,2.82 0.11,0.63 0.33,0.77 2.14,0.87 1.81,0.09 5.2,0.13 6.71,0.06 1.51,-0.07 1.14,-0.26 0.85,-0.66 -0.29,-0.41 -0.52,-1.03 -0.66,-1.79 -0.15,-0.76 -0.22,-1.64 -0.26,-2.47 -0.04,-0.83 -0.04,-1.6 -0.48,-2.27l-0.01 -0.02c0.31,-0.9 0.06,-1.85 -1.18,-2.12 -1.04,-0.23 -4.02,-0.37 -2.44,-1.65 0.62,-0.5 3,-0.58 3.97,-1.07 -0.3,-0.42 -3.78,-1.41 -4.4,-1.67 -1.1,-0.45 -3.58,-1.82 -4.33,-1.92 -0.99,1.26 -0.43,3.97 -0.85,5.35 -0.16,0.52 -0.55,1.09 -0.6,1.65 -0.03,0.27 0.02,0.52 0.12,0.77zm-4.04 3.05c3.11,-0.09 2.6,-0.33 1.87,-1.34 -0.36,-0.5 -0.52,-0.84 -0.96,-1.13 -0.64,0.46 -0.81,1.69 -0.91,2.47zm36.46 7.16c4.15,0.66 2.13,-2.02 6.45,-2.67 1.47,-0.22 3.17,-0.31 4.62,-0.01 1.99,0.42 2.06,1.1 3.26,1.49 1.29,-1.13 0.63,-1.44 3.29,-1.67 0.06,-1.27 -0.73,-3.7 -1.1,-5 -0.65,-2.31 -0.36,-3.23 -0.46,-5.58 -0.09,-2 -0.59,-0.99 -1.08,-2.11 -0.29,-0.66 -0.32,-1.85 -0.58,-2.68 -0.31,-1 -1.92,-3.28 -2.9,-3.68 -0.45,0.34 -2.75,4.56 -3.21,5.26 -3.66,5.56 -5.61,5.81 -5.04,11.5 0.28,2.78 -3.43,3.78 -3.24,5.13zm24.49 -12.98c-1.43,-0.47 -4.17,-2.01 -5.57,-2.27 -2.23,5.13 4.74,5.07 5.57,2.27zm-1.78 -4.04l2.63 0.12c-0.01,0.62 -0.47,0.77 -1.18,0.96 -1.16,0.31 -1.75,0.06 -2.15,0.59 -0.57,1.16 1.27,1.12 2.42,1.35 4.6,0.92 3.71,-4.64 2.5,-6.56 -1.1,0.13 -2.05,1.45 -3.48,2.43 -0.61,0.42 -0.64,0.36 -0.74,0.71 -0.07,0.25 -0.02,0.31 0.01,0.39zm1.55 8.73c-1.86,-0.04 -5.34,-0.83 -5.22,1.19 0.04,0.65 1.36,3.77 1.7,4.26 3.3,0.17 12.5,0 14.36,0.4 1.7,0.37 1.96,0.76 2.94,1.65 0.82,-0.48 -0,-0.42 1.54,-1.81 0.78,-0.7 0.27,-1.36 -0.31,-2.21 -0.89,-1.28 -2.57,-2.32 -3.67,-3.4 -4.68,-4.6 -2.05,-8.31 -4.96,-8.84 -1.06,4.01 0.3,2.7 -4.34,6.74l-1.84 1.79c-0.03,0.03 -0.08,0.08 -0.1,0.11 -0.02,0.03 -0.07,0.08 -0.11,0.11zm17.55 2.06c-0.07,-1.43 -1.18,-4.91 -1.73,-6.21 -0.43,-1.02 -1.03,-1.81 -1.4,-2.61 -0.68,-1.5 0.25,-1.97 -2.29,-5.64 -0.51,-0.74 -1.46,-1.73 -1.74,-2.34 -0.41,-0.89 -0.35,-1.99 -0.87,-3.03 -0.42,-0.86 -1.26,-1.82 -1.78,-2.29 -1.02,-0.39 -2.68,1.36 -3.12,1.91 -1.64,2.03 0.49,3.79 1.34,4.68 0.45,0.47 0.59,0.96 1.03,1.45 0.96,1.05 1.49,0.67 2.54,2.53 0.41,0.74 1.46,2.3 1.52,3.1 0.35,4.5 1.78,4.19 5.59,7.91 0.59,0.57 0.08,0.3 0.9,0.55zm-14.36 -22.87l1.43 0.19c-0.35,0.96 -0.95,0.45 -0.53,1.85 0.73,-0.22 0.67,-0.45 1.09,-0.87 0.43,-0.44 0.8,-0.59 1.17,-1.07 -0.53,-0.86 -0.82,-0.61 -1.57,-1.07 -0.78,-0.48 -0.44,-1.06 -1.69,-0.99 -0.34,0.59 -0.18,1.29 0.09,1.96zm-16.11 -18.8l1.54 -0.12c0.14,-0.86 -2.14,-12.16 -3.22,-13.1 -0.7,0.93 1.16,11.67 1.68,13.22z"/>
   <path class="fil4" d="M88.6 103.43c0.57,0.19 2.81,0.62 3.43,-0.46l0.76 -2.31c0.49,-1.47 1.2,-2.06 -1.15,-2.05 -2.26,0.01 -1.88,0.11 -2.4,1.8 -0.23,0.73 -0.94,2.41 -0.64,3.02z"/>
   <path class="fil4" d="M88.62 82.53c0.6,0.33 2.25,0.27 3.02,0 0.57,-0.69 0.74,-1.88 1.03,-2.76 0.49,-1.48 1.16,-2.1 -1.24,-2.03 -2.41,0.07 -1.72,0.27 -2.73,3.22 -0.17,0.49 -0.35,0.8 -0.27,1.2 0.08,0.38 -0.03,0.14 0.18,0.36z"/>
  </g>
 </g>
</svg>
