<?xml version="1.0" encoding="UTF-8"?>
<!DOCTYPE svg PUBLIC "-//W3C//DTD SVG 1.1//EN" "http://www.w3.org/Graphics/SVG/1.1/DTD/svg11.dtd">
<!-- Creator: CorelDRAW -->
<svg xmlns="http://www.w3.org/2000/svg" xml:space="preserve" width="38.2239mm" height="42.1289mm" version="1.1" style="shape-rendering:geometricPrecision; text-rendering:geometricPrecision; image-rendering:optimizeQuality; fill-rule:evenodd; clip-rule:evenodd"
viewBox="0 0 194.54 214.41"
 xmlns:xlink="http://www.w3.org/1999/xlink"
 xmlns:xodm="http://www.corel.com/coreldraw/odm/2003">
 <defs>
  <style type="text/css">
   <![CDATA[
    .fil0 {fill:black}
    .fil10 {fill:#28231F}
    .fil5 {fill:#4D4240}
    .fil15 {fill:#4E4341}
    .fil11 {fill:#515E3B}
    .fil20 {fill:#534947}
    .fil13 {fill:#53603E}
    .fil3 {fill:#731313}
    .fil16 {fill:#741515}
    .fil22 {fill:#808769}
    .fil8 {fill:#828A6B}
    .fil4 {fill:#868E6E}
    .fil6 {fill:#87A266}
    .fil9 {fill:#974140}
    .fil21 {fill:#9C9897}
    .fil19 {fill:#9E9A99}
    .fil17 {fill:#A09B9A}
    .fil1 {fill:#A29E9D}
    .fil18 {fill:#C7C3BD}
    .fil12 {fill:#C9BFBA}
    .fil7 {fill:#E9E9E9}
    .fil14 {fill:#EBEBEB}
    .fil2 {fill:#FDFDFD}
   ]]>
  </style>
 </defs>
 <g id="Camada_x0020_1">
  <metadata id="CorelCorpID_0Corel-Layer"/>
  <g id="_2028519275792">
   <path class="fil0" d="M38.13 157.08c0.81,0.46 0.48,0.06 1.02,1.14 0.4,0.8 0.39,0.54 0.32,1.43 -0.97,0.08 -1.48,-0.24 -2.16,-0.52 -0,-1.32 -0.04,-1.36 0.82,-2.05zm-1.49 -8.28c0.27,0.73 0.37,3.89 0.67,5.28 0.31,1.41 0.48,1.73 -0.84,4.04 -0.3,0.52 -0.12,0.28 -0.42,0.6 -3.09,-2.33 -2.31,-10.05 0.6,-9.92zm113.42 4.09c1.17,0.13 3.01,1.29 4.21,1.85 -1.19,6 -4.39,1.34 -4.21,-1.85zm-4.06 0.66c0.1,-1.24 0.23,-1.74 0.86,-2.45 1.62,0.61 2.01,2.89 2.43,4.95 -1.68,-0.32 -2.5,-1.56 -3.29,-2.5zm-108.05 -4.07c1.08,0.33 2.22,3.27 2.19,4.32 -2.13,0.1 -2.43,-2.22 -2.19,-4.32zm112.99 -1.19c1.76,-0.02 1.67,1.07 2.72,2.33 0.79,0.95 2.18,1.44 1.54,2.92 -1.32,0.73 -3.86,-1.66 -5.39,-2.35l1.13 -2.91zm-122.35 1.95c-1.04,-2.6 0.57,-3.95 0.1,-6.94 -0.25,-1.55 2,-4.25 2.88,-5.2 2.24,1.93 1.88,4.4 0.58,6.49 -1.13,1.81 -1.72,4.78 -3.56,5.64zm127.28 -4.3c-1.65,-0.28 -1.83,-0.58 -1.31,-2.26 0.46,-1.49 0.17,-2.11 1.49,-2.25l-0.19 4.51zm-137.07 -11.42c1.98,-0.26 1.36,0.79 2.41,1.98 0.87,0.99 1.5,0.81 2.37,2.1 1.28,1.9 3.26,5.02 -0.41,5.44 -1.38,-2.81 -0.56,-0.73 -2.23,-2.21 -0.8,-0.71 -1.42,-1.84 -1.68,-3.07 1.3,0.13 1.39,0.11 1.88,1.12 0.7,1.44 -0.18,0.52 1.13,1.65 -0.17,-3.33 -4.97,-3.22 -3.47,-7.02zm163.74 -17.35c1.45,0.17 5.82,3.23 5.25,5.8 -2.02,0.19 0.02,-0.72 -3.89,-4.07 -1.6,-1.37 -0.91,-0.99 -1.37,-1.73zm-31.35 -0.69c0.23,-1.31 0.66,-2.26 1.09,-3.42 1.25,-3.37 0.43,-2.28 1.45,-2.79 0.9,1.29 0.09,2.21 -0.46,3.47 -0.63,1.44 -0.47,2.29 -2.07,2.74zm31.43 -4.67l-0.33 -1.96c1.31,-0.12 0.78,-0.31 1.49,0.8 -0.36,0.97 -0.25,0.8 -1.15,1.16zm-3.57 -4.43c0.4,-1.05 0.19,-0.17 0.52,-1.01 0.26,-0.67 0.11,-0.74 0.36,-1.29 0.69,0.58 1.54,1.33 1.73,2.39 0.18,1 -0.34,2.43 -1.43,2.9l-1.18 -2.98zm-24.73 -2.41c1.37,0.08 0.95,0.27 2.46,2.33 0.77,1.05 1.76,1.99 1.75,3.38 -1.17,-0.28 -0.87,-0.27 -2.39,-2.46 -0.67,-0.96 -1.71,-1.97 -1.83,-3.25zm15.13 -47.17c4.37,0.03 6.42,3.77 7.76,7.34 1.07,2.84 0.35,3.23 -0.12,5.96 -0.35,2.05 -1.25,4.4 -3.49,3.89 -0.58,-2.46 -0.09,-1.47 -1.46,-3.06 0.81,-2.68 1.41,-1.3 -0.45,-6.34 -0.44,-1.18 -0.79,-2 -1.23,-3.26 -0.8,-2.3 -1.31,-1.04 -1.86,-2.66 1.4,-0.42 1.43,-0.14 2.69,1.24 0.01,0.02 0.44,0.48 0.45,0.49 0.35,0.34 0.16,0.19 0.54,0.47 -0.42,-2.41 -1.89,-2.02 -2.82,-4.07zm-89.01 -4.34c1.42,-0.72 2.15,-0.09 2.96,0.62 0.98,0.87 1.36,1.21 2.27,1.9 1.38,1.04 3.62,3.01 3.82,4.97 -2.44,0 -3.41,-1.96 -4.89,-3.3 -1.17,-1.06 -3.62,-2.89 -4.16,-4.18zm61.89 -2.98c2.24,-0.31 1.73,0.02 2.56,4.72 0.3,1.71 0.27,4.25 -1.37,5.43l-1.19 -10.16zm-75.3 1.19c1.59,-0.61 3.64,0.28 5.37,0.21 0.76,-1.2 0.54,-1.73 1.89,-1.19 0.97,1.72 -0.28,2.45 0.09,4.05 1.3,0.07 2.02,-1 4.28,-1.01 1.2,1.63 6.33,7.16 8,8.12 1.62,0.93 2.52,0.85 3.3,2.34 -2.09,1.17 -5.77,-3 -8.62,-3.68l-0.3 1.48c-0.63,-0.45 -3.99,-5.86 -6.85,-6.16 -0.43,1.21 -0.56,3.71 -3.28,6.66l-3.21 -1.55c0.7,-1.88 3.01,-2.8 4.27,-4.42 -0.79,-0.81 -1.52,-1.5 -2.38,-2.33l-2.15 -2.01c-0.37,-0.4 -0.17,-0.13 -0.4,-0.5zm12.92 -0.39c-0.11,-0.73 -0.09,-1.15 -0.33,-1.76 -0.39,-1 -0.46,-0.18 -0.59,-1.31 2.35,-0.2 5.62,2.9 5.96,4.29l-5.04 -1.22zm-39.79 -8.11c-0.04,2.81 -4.96,4.98 -6.1,5.9 -0.88,0.72 -1.18,1.23 -2.33,1.79 0.32,-1.86 2.14,-7.36 3.3,-7.84 0.04,-0.1 0.1,-0.21 0.14,-0.29l0.4 -0.77c1.9,-3.34 5.73,-8.01 9.76,-7.9 -1.12,2.16 -2.56,1.41 -3.14,4.05 -0.44,1.99 -1.81,5 -1.9,4.83 -0.02,-0.05 -0.09,0.16 -0.15,0.24zm48.59 -5.52c-0.01,-1.89 -0.54,-2.06 -2.22,-2.48 -8.15,-2.02 -6.01,-0.69 -12.69,-0.56l-1.03 -4.25c3.28,0.71 6.01,1.52 9.67,1.98 1.64,0.21 8.37,0.78 8.59,2.64 -1.05,0.58 0.1,-0.04 -1.1,0.14l-0.38 0.09c-0.03,-0.06 -0.13,0.02 -0.19,0.06 1.26,1.39 3.05,1.78 5.06,2.67 1.22,0.55 0.97,0.16 1.28,1.15 -1.61,0.05 -1.87,0.3 -3.23,0.79 -1.33,0.48 -1.89,0.42 -1.83,1.85 1.89,1.16 1.72,0.15 2.87,-0.7 0.82,0.29 2.8,2.12 3.29,2.57 1.88,1.72 2.47,1.7 2.74,2.98 -1.71,-0.38 -3.07,-1.34 -5.29,-1.9 -4,-1.02 -2.51,-1.89 -4.31,-2.79 -0.67,0.68 -0.15,0.17 -0.47,0.88l-0.42 0.92c-1.29,-0.54 -1.91,-2.07 -2.79,-2.94 -1.07,-1.04 -2.03,-1.41 -2.65,-3.11l5.11 0.01zm19.4 -12.77c4.5,1.63 5.56,3.77 4.96,-1.84 4.35,-0.27 2.41,2.65 3.7,5.38 -0.51,0.31 -1.34,0.56 -2.02,0.98 -0.67,0.4 -0.96,0.67 -1.63,1.08 -1.32,0.81 -2.3,0.55 -2.61,-1.37 1.2,0.42 0.57,0.51 1.82,0.93 0.77,-4.4 -5.14,-1.51 -7.29,-3.69 0.86,-0.58 1.13,-0.12 2.18,0.05 0.62,-0.77 0.15,-0.26 0.43,-0.75l0.46 -0.76zm-27.16 -0.27c-0.07,-0.06 -0.43,-0.31 -0.54,-0.39 -0.85,-0.65 -0.28,0.06 -0.82,-0.84 1.75,-0.73 1.86,-0.97 3.35,0.12 0.67,0.49 2.1,1 2.77,1.65 -0.82,0.93 -4.91,2.15 -6.1,1.49 0.86,-1.09 0.97,-0.39 1.83,-1.49 -0.34,-0.49 -0.04,-0.14 -0.49,-0.53zm7.49 -1.28c0.26,-1.53 2.09,-2.74 4.29,-2.5 1.66,0.18 5.11,0.93 6.43,0.73 -0.03,-1.75 -1.02,-3.92 -0.58,-5 2.34,-0.47 1.89,1.68 2.21,3.72 1.48,9.48 -0.67,3.07 -4.88,2.96 -2.28,-0.06 -5.41,0.36 -7.47,0.09zm3.14 -8.5c-0.16,-1.1 0.07,-1.22 0.91,-1.72 1.22,-0.74 5.25,-1.94 6.39,-1.94 0.4,2.31 -1.03,2.05 -3.11,2.52 -1.2,0.27 -3.54,1.13 -4.18,1.14zm36.92 -2.79c1.1,-2.72 6.72,-4.98 7.41,0.76 0.25,2.05 -0.09,-0.8 -0.77,3.31 -0.72,-0.15 -5.49,-2.3 -6.64,-4.07zm-45.12 -0.78l-1.79 1.48c-0.58,2.06 1.46,1.92 -1.53,2.51 -1.25,0.25 -2.4,0.44 -3.42,0.96 0.95,1.04 3.7,0.39 5.2,0.01 3.31,-0.84 10.51,-7.03 12.04,-6.27 -1.22,1.79 -4.39,2.85 -5.06,4.77 0.89,0.48 0.39,0.06 1.12,0.23l0.81 0.25c0.05,-0.08 0.19,0.06 0.27,0.11 -0.35,0.34 -0.05,0.13 -0.57,0.45 -0.27,0.16 -3.72,1.3 -6.34,2.63 -2.23,1.13 -4.36,1.81 -5.27,4.24 -1.94,-0.29 -2.09,-1.13 -4.1,-0.93 -0.47,0.37 -2.08,2.62 -2.21,2.92 1.23,-0.08 1.64,-0.9 2.78,-0.08 -0.31,1.15 -0.36,0.76 -1.9,1.11 -1.28,0.29 -1.37,0.46 -2.66,0.48 0.04,-1.32 0.07,-0.77 0.37,-1.82 -1.3,0.34 -3.45,2.26 -4.83,3l-1.68 -1.86c1.05,-3.29 6.92,-1.79 7.56,-3.57 -1.28,-0.48 -3.94,0.39 -5.31,0.77 -2.49,0.68 -2.64,1.46 -4,2.85 -3.43,3.51 -1.77,2.83 -5.67,4.75 -1.31,0.64 -1.02,0.79 -1.85,1.57l-0.61 1.07 -2.94 -0.91c-1.34,-0.15 -2.03,-0.58 -3.53,-0.45 -1.35,0.12 -2.03,0.32 -3.62,0.3 -3.69,0.99 -4.8,1.96 -6.77,4.44 -1.03,1.29 -1.62,1.46 -2.67,3.29 -0.66,1.14 -1.39,2.69 -2.18,3.18 -0.3,2.11 -1.27,3.87 -2.08,5.66 -1.58,3.5 -0.98,2.91 -3.28,3.87 0.09,0.28 0.22,0.83 0.32,1.06 0.27,0.47 -4.11,6.5 -4.41,9.09 -0.21,1.87 0.54,5.49 -0.01,6.59l-3.32 3.22c-0.39,1.09 -0.68,1.72 -1.38,2.31 -0.14,1.18 -0.68,1.64 -1.02,2.72 -0.46,1.44 -0.06,1.94 -0.19,3.32 -0.13,1.44 -1.48,4.34 -2.21,5.16 -0.51,2.26 -1.54,3.66 -3.74,4.38 -0.12,0.2 -0.21,0.47 -0.74,0.86 -0.73,0.53 -0.33,0.28 -0.96,0.44 -0.15,0.18 0.15,0.48 -1.25,0.33 0,0.28 0.74,2.05 -2.06,3.49 -0.24,1.04 -1.44,1.36 -1.46,1.34 -0.03,-0.06 -0.14,0.05 -0.2,0.08l0.02 0.6 -0.16 1.58 2.07 -0.05c-0.27,-1.7 -0.47,-0.48 -0.52,-2.21 2.55,-1.94 3.88,-4.73 6.93,-5.83 -0.15,4.99 -3.13,4.37 -3.51,8.9 -0.27,3.22 -3.88,4.83 -4.59,7.86l3.96 -2.49c-0.3,2.26 -0.78,1.3 -2.13,2.39 -0.88,0.71 -1.05,1.44 -2.2,2.28 -1.94,1.42 -3.89,1.39 -4.97,3.6 1.33,-0.74 4.19,-2.91 5.65,-3.2 -0.15,2.57 -0.56,4.85 2.02,5.66 -0.7,-1.36 -0.97,-1.09 -1.26,-3.06 -0.6,-4.12 4.65,-6.56 5.44,-6.74 0.44,4.05 -0.14,3.82 -1.42,6.87 -2.87,6.83 2.41,7.05 1.22,13.63 -0.16,0.86 -1.1,2.08 -1.54,2.69 -0.36,0.5 -0.6,0.85 -0.9,1.2l-0.84 0.75c-0.21,2.02 -0.59,0.83 0.71,1.03 0.02,-0.05 0.07,-0.13 0.09,-0.16l0.2 -0.31c2.05,-2.98 2.2,-3.3 3.75,-2.44 0.12,-1.57 0.47,-0.73 0.03,-2.2 -0.66,-2.21 -0.4,-0.5 0.92,-3.44 0.44,-0.98 0.18,-0.93 1.14,-1.3 0.08,2.39 0.52,4.29 0.34,6.59 -0.39,4.94 0.79,2.68 1.08,5.65 -1.39,-0.12 -1.23,-0.55 -2.52,-1.04 0.76,2.18 5.29,2.86 2.02,6.77 -0.45,0.53 -0.95,1.42 -1.37,1.43 0.22,1.03 0.73,-0.1 1.17,-0.69 0.66,-0.9 0.5,-1.06 1.63,-1.57l1.26 1.91c0.71,0.8 1.02,0.65 1.63,1.72 0.84,0.15 1.41,0.55 2.11,1.31 -0.41,1.14 -3.21,3.79 -4.11,5.06 -1.18,1.68 -2.59,3.73 -3.66,5.66 -0.01,0.85 -0.24,0.67 0.56,0.67 0.27,-1.33 6.22,-8.24 7.06,-8.94 0.56,-0.46 1.01,-0.61 1.62,-1.05 0.96,-0.69 0.73,-0.9 1.88,-1.13 1.74,2.4 0.55,2.54 0.41,2.8 -0.22,0.43 -0.46,-0.7 -0.24,0.93 0.82,-0.21 0.29,-0.53 1.32,-0.74 0.61,1.94 -1.29,4.02 -2.27,5.19l-3.83 3.99 0.04 0.51c1.34,-1.18 0.93,-0.24 3.97,-3.13 1.07,-1.02 2.88,-2.7 4.17,-2.95 -0.03,3.52 -3.86,4.96 -4.66,7.26 -0.61,1.74 -0.33,0.69 0.2,1 -0.11,-1.36 2.88,-4.03 3.8,-4.58 0.12,2.63 -0.23,2.05 -1.04,3.75 1.05,0.74 0.1,-1.03 2.6,2.29l0.8 -0.04c-2.52,-2.02 -1.86,-4.32 -0.8,-7.96 0.56,-1.93 1.25,-6.04 3.72,-6.93 1.54,3.06 0.08,2.06 -0.87,5.04 -1.86,5.83 2.12,8.23 2.37,8.62 0.39,0.59 1.19,3.92 4.47,5.03l1.67 0.61c0.52,-0.31 0.34,-0.07 0.49,-0.56 -2.31,-0.16 -4.64,-2.27 -5.01,-4.52 4.91,0.81 2.52,-0.57 4.66,1.22 0.63,0.53 1.17,0.84 1.75,1.53 0.59,0.7 0.86,1.34 1.43,1.95 1.33,0.12 -0.27,-4.93 -0.98,-5.65 -1.6,0.68 0.45,0.42 -1.19,1.13 -1.16,-0.82 -1.18,-2.52 -0.3,-3.78 1.51,0.48 0,0.5 1.96,1.06 -0.51,-2.47 -1.31,-1.57 -1.17,-4.97 0.08,-2.02 0.01,-3.95 0.07,-5.95 -2.57,0.94 -0.06,2.94 -2.05,3.71 -1.54,-2.06 0.63,-3.67 1.18,-5.51 -2.73,-1.66 -1.15,-1.55 -2.08,-7.15 0.13,0.02 0.65,0.16 0.72,0.16 0.05,0 0.16,0.01 0.21,0l0.55 -0.16c-0.36,-2.03 -4.21,-2.82 -4.9,-4.37 -0.71,-1.6 2.77,-4.2 3.24,1.57 2.2,-0.82 1.98,-4.59 1.76,-7.08 -0.27,-3.06 -0.02,-6.16 0.27,-9.16 0.39,-4.04 0.57,-14.72 0.14,-18.72 -0.31,-2.9 -0.21,-6.27 -0.05,-9.33l4.33 -14.57c0.78,-1.39 3.45,-4.63 4.49,-5.06l-0.4 -2.04c2.08,-0.74 4.32,-1.55 6.81,-1.45 0.32,3.01 0.66,2.43 2.47,4.09 1.08,0.99 2.4,2.81 4.17,2.68 -0.09,-2.26 -1.37,-1.15 -0.74,-3.13 1.78,-0.3 1.72,0.36 3.16,0.47 1.16,0.09 2.2,-0.36 3.29,-0.5 3.2,-0.41 3.55,0.69 5.63,1.85l1.09 -1.47 4.63 1.83c-0.47,-1.65 -0.67,-2.6 0.23,-4.17 1.58,0.22 2.05,1.56 3.28,2.1 1.09,-1.38 0.89,-3 1.49,-4.16 0.86,0.28 0.52,-0.04 0.79,0.68 0.18,0.49 -0.13,0.76 0.1,1.26 1.18,-0.26 6.48,-2.42 7.16,-3.41 -0.86,-1.2 -1.99,-0.82 -1.96,-2.23 1.36,0.41 1.71,2.2 4.79,1.76 1.91,-2.52 0.73,-2.38 -1.26,-3.77 -0.53,-0.37 -3.87,-2.43 -4.34,-3.2 0.58,-0.85 0.63,-0.52 1.47,-1.19 -0.16,-0.94 -1.69,-3.6 -2.2,-5.43 -0.68,-2.46 -1.2,-1.74 -3.22,-2.43 -1.32,-0.45 -0.89,-0.18 -0.97,-1.08 2.3,-0.8 2.99,0.14 4.6,0.17 0.17,-2.31 -2.03,-1.43 -1.8,-3.88 1.84,-0.24 5.73,5.33 6.1,7.33 -2.04,-0.13 -0.61,-0.88 -2.69,-0.66 0.14,1.21 0.64,1.19 1.39,2.2 1.13,1.52 2.89,5.8 4.76,6.08 -0.33,-1.09 -0.6,-0.76 -0.87,-2.08l4.67 0.81c-0.62,-2.42 -2.76,-4.01 -4.2,-5.5 0.37,-0.76 2.16,-2.31 2.89,-2.68 1.06,0.34 1.46,0.89 1.89,2.08 -0.07,0.05 -0.2,0.01 -0.24,0.11 -0.25,0.61 -0.05,0.05 -0.47,0.2 -0.64,0.24 -0.16,-0.09 -0.88,0.28 0.57,0.69 1.54,1.9 2.38,2.48 0.05,-0.07 0.1,-0.29 0.11,-0.25l0.67 -2.04 0.93 -0.1c0.76,1.49 -0.3,1.93 1.57,1.83 0.41,-0.82 0.02,-1.39 0.75,-2.09 0.66,1.41 1.7,2.97 3.18,3.22 -0.28,-2.4 -1.56,-3.87 -2.33,-5.85 -0.45,-1.15 -1.27,-4.35 -1.23,-5.67l0.14 -0.73c0.01,-0.06 0.05,-0.17 0.09,-0.24 1.72,0.58 2.32,3 3.09,4.54 0.66,1.33 1.96,3.54 3.44,3.97 0.07,-2.18 -0.52,-2.01 -0.12,-6.73l1.47 -0.11c-0.64,-2.26 -3.41,-3.05 -3.68,-4.74 1.14,0.1 0.82,0.3 1.78,0.35 1.28,0.06 0.75,-0.23 2.07,-0.31 2.88,3.19 0.93,2.97 5.58,5.03 3.68,1.63 4.12,0.94 7.46,-0.98 -0.03,-1.86 -1.2,-1.96 0.97,-2.9 2.27,1.11 0.44,2.47 2.17,3.78 1.47,1.11 3.24,1 3.28,3.13 -1.92,-0.3 -3.58,-1.88 -5.39,-1.52 0.23,4.96 8.98,-2.54 7.48,14.24l-0.15 -0.3c-0.31,3.86 0.15,7.1 0.19,11.04 0.01,1.4 -0.28,2.32 0.9,2.52 -0.28,-3.28 0.24,-4.03 1.19,-6.85 1.67,0.55 2.12,3.26 2.68,4.75 1.58,4.19 5.63,12.21 5.28,16.3l-0.95 0.13c-0.96,-2.1 -0.82,-6.43 -3.28,-6.98 -0.76,1.36 1.01,3.14 1.14,4.95 -1.32,-0.4 -2.49,-3.74 -4.76,-4.71 0.07,2.84 4.97,5.85 5.36,9.23 0.49,4.28 0.69,9.65 0.56,14.02 -0.07,2.32 -0.84,3.58 -1.46,5.6 -0.57,1.86 0.25,9.28 -0.4,13.98 -0.27,1.95 -1.61,3.96 -1.52,5.64 2.62,-0 1.3,-4.58 4.49,-5.04 0.96,1.78 2.56,5.53 5.03,5.77 -0.27,-1.1 -0.89,-1.68 -1.33,-2.98 -0.17,-0.5 -0.41,-1.11 -0.57,-1.57 -0.16,-0.49 -0.3,-1.01 0.01,-1.46 0.87,0.65 1.33,2.33 1.9,3.47 2.09,4.18 0.93,4.44 -0.09,8.81 -1.17,5.01 -7.06,4.74 -6.24,15.75 0.21,2.83 0.49,2.15 -0.48,4.76l1.63 0.89c0.8,-0.15 1.98,-0.09 2.72,0.3 -0.64,0.96 -1.2,0.68 -1.77,1.49 0.81,1.96 3.44,-1.07 6.02,-1.55 0.79,0.86 1.77,1.82 3.35,1.99 -0.38,-1.83 -1.01,-1.41 -1.95,-2.82l1.47 -2.17c1.91,0.76 1.9,1.65 4.49,1.28 -0.18,-0.83 0.19,-0.57 -0.2,-0.94 -0,0 -0.97,-0.02 -0.99,-0.02 -0.7,-0.18 -0.25,-0.03 -0.68,-0.34 -1.8,-0.1 -1.92,-1.52 -2.35,-2.91l2.04 0.63c-0.77,-1.98 -1.9,-0.76 -1.76,-2.97 0.52,-0.3 -0.13,-0.18 0.67,-0.23 0.06,-0 0.87,0.06 0.95,0.07 -0,-0.09 -0.06,-0.92 -0.04,-1.01 0.13,-0.81 -0.04,-0.2 0.26,-0.69 2.41,0.19 2.59,-0.42 3.51,-2.05 0.83,-1.47 1.66,-2.11 1.61,-4.44 -1.18,0.6 -1.92,2.79 -2.69,3.92 -1.2,1.76 -2.88,2.34 -4.09,0.42 -0.8,-1.65 1.59,-8.05 1.67,-10.23 2.32,0.45 1.6,2.42 1.58,4.74 -0.03,3.51 -1.67,1.76 -1.88,4.72 0.81,-0.64 0.86,-1.23 1.72,-2.12 2.89,-2.97 1.81,-3.18 4.3,-3.8 3.64,-0.91 3.4,-3.16 6.42,5.39 1.01,2.86 2.48,3.87 3.94,5.61 0.76,-0.28 1.39,0.28 -0.67,-2.3 -0.7,-0.88 -1.18,-1.49 -1.76,-2.12 -0.81,-0.88 -2.04,-4.09 -1.83,-5.53 1.38,-0.37 1.82,0.58 3.54,0.94l3.61 0.89c0.07,0.03 0.18,0.08 0.26,0.13 1.13,-0.31 1.02,0.2 1.78,-0.35 -1.07,-0.99 -2.71,-0.97 -3.86,-1.69 -0.72,-0.45 -2.63,-1.96 -2.86,-2.74 1.61,-0.01 2.08,0.08 3.15,0.66 1.66,0.89 1.3,0.73 3.5,0.93l-1.47 -1.16c-1.95,-0.98 -4.85,-1.26 -6.16,-1.88 0.02,-2.57 1.08,-0.75 0.38,-4.2 5,0.93 8.8,6.57 11.88,7.06 -0.09,-2.15 -1.43,-0.68 -2.09,-2.6l2.41 0.63c0.39,-1.03 0.08,-0.05 0.01,-0.81 -1.4,-0.22 -3.89,-1.06 -4.71,-1.94 -1.2,0.03 -3.16,-2.15 -3.21,-3.29 -0.05,-0.06 -0.09,-0.25 -0.11,-0.21 -0.19,0.51 0,0.05 -0.49,-1.08 -0.24,-0.55 -0.31,-0.6 -0.52,-1.28 -0.82,-2.72 0.25,-2.27 1.91,-4.85 0.9,-1.4 0.38,-1.36 0.87,-2.65 1.25,-0.01 1.93,1.46 2.68,3.2 0.74,1.73 -0.12,2.68 0.57,4.76 0.23,0.71 0.07,0.36 0.33,0.75l0.37 -1.91c0.11,-2.16 -0.46,-4.08 -0.73,-6.26 -0.86,-0.65 -0.84,-1.6 -0.98,-2.82 1.58,0.52 1.3,0.78 2.32,2.16 0.78,1.06 1.39,0.94 2.43,1.73 2.5,1.89 0.68,3.55 -0.44,5.48 0.25,0.27 0.05,0.15 0.48,0.41l2.12 -3.15c0.08,-0.09 0.4,-0.38 0.48,-0.46 0.6,-0.51 0.02,-0.04 0.6,-0.44 0.05,-1.18 1.33,-3.45 -1.96,-6.41 -1.07,-0.96 -3.87,-3.3 -4.51,-4.66 1.88,0.26 6.16,2.93 6.76,3.88 0.6,0.96 0.15,2.02 0.8,2.83 1.31,-0.87 0.5,-1.1 0.65,-2.94 2.15,-0.14 2.13,-0.5 3.82,-0.99 -0.15,-0.75 0.2,-0.28 -0.3,-0.59 -2.78,0.43 -3.07,0.6 -5.47,-0.77l-4.29 -2.49c0.06,-1.3 0.75,-1.33 0.31,-2.47 -0.37,-0.95 -1.11,-0.82 -1.29,-2.03 -0.1,-0.64 0.85,-3.99 1,-5.54 1.32,-0.08 2.55,0.44 3.27,0.46 0.2,0 0.55,0.16 1.08,-0.26 -1.83,-1.26 -3.91,-0.71 -4.12,-3.57 1.12,-0.09 1.45,-0.01 2.42,0.21 1.11,0.25 1.57,0.61 2.32,0.09 -2.8,-1.59 -4.19,-1.28 -4.92,-1.41 -1.32,-0.24 -3.52,-1.61 -3.86,-2.63 1.32,-0.16 1.91,0.15 3.08,0.47 1.49,0.41 2.33,0.2 3.85,0.34 1.54,0.15 1.88,-0.02 3.63,-0.07 1.14,-0.04 2.78,-0.63 3.1,-0.58 -0.3,-1.57 -3.72,1.25 -8.03,-0.09l-1.13 -0.59c-1.81,0.1 -2.59,-1.05 -3.38,-2.68 -0.68,-1.41 -1.8,-2.99 -2.04,-4.26 0.82,0.14 7.97,7.59 10.39,5.24 -1.31,-0.66 -0.2,0.71 -4.06,-2 -1.2,-0.84 -2.42,-1.97 -3.59,-2.64 0.68,-1.7 1.1,-0.76 1.4,-2.89l-1.86 1.35c-1.96,-1.09 -4.79,-5.12 -5.42,-6.38 2.07,0.02 2,-0.27 3.35,-0.39 1.07,-1.45 1.07,-1.24 3.36,-1.8 1.22,-0.3 4.02,-0.48 4.89,0.3l2.12 1.04c0.84,-0.38 0.75,0.18 0.3,-0.72 -1.11,-0.12 -1.55,-0.74 -1.85,-1.69 0.88,-0.33 0.7,-0.4 1.53,-0.45 0.38,-0.39 -0.06,-0.22 0.79,-0.62 -2.6,-0.37 -1.92,0.98 -5.23,0.78l-0.2 -0.08c-0.56,0.52 0.06,0.14 -0.74,0.38 -0.93,0.27 -6.67,1.11 -8.13,-2.37 0.7,-1.42 3.98,-2.75 3.62,-5.3 -0.07,-0.53 -0.85,-1.78 -1.17,-3.28 -0.28,-1.32 -0.71,-2.03 -0.94,-3.45l-1.11 -1.37c-0.36,-0.68 -0.52,-1.1 -0.88,-1.8 -1.33,-2.56 -3.05,-2.54 -6.11,-4.6 -1.95,-1.31 -2.36,0.65 -2.34,-2.7 2.53,-0.35 5.22,3.05 6.11,3.44 0.02,-1.65 -0.28,-1.19 -0.75,-2.12 -1.72,-0.53 -1.47,-0.43 -2.76,-1.56 -0.72,-0.63 -1.36,-0.9 -2.27,-1.61 -1.19,-0.92 -0.86,-1.18 -1.56,-2.27 -0.62,-0.97 -1.05,-1.38 -1.64,-2.42 -0.95,-0.14 -0.42,-0.24 -1.28,-0.31 0.69,0.6 2.8,3.42 2.59,5.03 -1.94,0.37 -4.14,-2.57 -5.37,-3.14 -0.43,0.26 -0.28,1.24 -0.53,0.59 -0.02,-0.06 -0.11,0.14 -0.17,0.22l-1.36 -0.61c1.08,2.02 2.28,0.84 3.6,5.07 0.64,2.05 1.23,4.69 2.53,6.31 1.31,-0.27 0.07,-0.29 1.62,-0.91 0.9,3.44 1.75,1.18 2.69,3.09l-1 0.42c-0.2,0.07 -0.5,0.09 -0.78,0.18 0.2,1.62 1.62,9.16 1.04,10.31 -1.48,-0.61 -0.87,-3.67 -2.58,-4.27 -0.11,1.25 0.07,2.64 -0.4,3.53 -0.68,-0.4 -0.69,-0.41 -1.09,-1.3l-4.28 -12.12c-1.08,-3.21 -4.04,-5.27 -6.41,-7.6 -0.77,-0.75 -2.01,-1.49 -1.02,-2.85 1.4,0.54 5.83,8.11 8.24,8.22 0.26,-2.84 -4.72,-6.47 -4.91,-8.3l1.95 -0.81c-1.18,-0.99 -1.14,-0.96 -2.02,-2.37l-5.44 -8.13c-0.49,-0.44 -1.06,-0.76 -1.25,-1.73 -1.05,-0.5 -0.67,-0.77 -1.74,-1.68 -0.99,-0.85 -0.56,-0.35 -1.33,-1.67 -0.55,-0.95 -1.76,-2.39 -2.8,-3 -3.39,-2.06 -3.85,-1.7 -3.59,-6.49 1.11,0.44 0.59,-0.04 1.25,1.31 0.27,0.55 0.41,0.86 0.66,1.36 0.43,0.87 0.89,1.71 1.36,2.57l-0.1 -1.29c-0.3,-1.08 -0.98,-1.6 -1.61,-2.46 -0.8,-1.11 -0.66,-1.41 -0.93,-2.02 -0.91,-2.06 -3.82,-1.28 -4.47,-4.24 2.44,-1.52 4.13,-0.99 6.97,0.84 3.11,2.01 1.82,1.15 3.48,3.71 1.64,2.53 -0.3,0.86 1.07,0.73 0.18,-0.83 0.17,-0.31 -0.1,-1.36 -0.6,-0.61 -0.66,-1.14 -1.12,-1.94 -0.43,-0.75 -1.08,-1.07 -1.33,-1.65 -1.19,-0.63 -0.56,-0.05 -1.24,-1.18 -0.89,0.04 -1.63,-0.82 -2.7,-1.1 -1.17,-0.3 -2.52,-0.18 -3.77,-0.25 -0.25,-1.81 0.29,-3.08 -0.61,-4.68 -0.49,-0.87 -1.53,-1.76 -2.93,-2.17 -1.26,-0.36 -2.7,0.08 -3.92,0.76 -1.64,0.92 -1.54,1.51 -2.72,2.48 -1.16,-0.16 -2,-0.65 -3.25,-0.62 -1.21,-0.13 -2.02,-0.16 -3.01,0.17 0.41,1.97 2.08,1.67 3.44,2.71 -0.76,0.36 -6.16,-2.08 -7.75,-2.79 -2.34,-1.04 -1.71,-0.83 -4.62,-1.04 -2.05,-0.15 -3.16,-0.84 -4.26,0.85 0.29,1.14 0.07,0.51 0.9,1.28 0.5,0.46 0.59,0.54 1.05,1.03 0.81,0.87 1.5,1.09 1.34,2.45 -0.91,0.47 -4.76,-0.1 -6.12,-0.15l-4.35 -5.91 -5.37 -0.06c0.41,-0.83 0.74,-0.41 1.52,-1.43l3.51 -5.67c-1.47,-0.32 -5,1.39 -6.32,1.98 -2.07,0.93 -3.15,2.17 -4.82,3.65 -1.71,-0.37 0.62,-0.36 -1.16,-0.96l-3.14 4.58 -1.35 -0.08z"/>
   <path class="fil1" d="M105.13 193.21l6.39 1.71c-0.06,1.25 -1.68,5.95 -2.26,6.81 -4.64,6.94 -3.94,4.99 -9.75,5.31 -4.07,0.22 -10.33,1.92 -14.78,0.02 -0.65,-0.28 -6.28,-4.33 -6.61,-4.73 -1.11,-1.31 -2.44,-6.82 -2.35,-9.03 3,-1.43 2.81,0.3 7.43,2.77 1.76,0.94 12.87,0.36 15.13,-1.39 0.45,-0.35 0.96,-1.17 1.85,-0.65 1.36,0.8 -1.75,3.19 0.56,3.55 1.27,0.2 3.29,-3.03 4.39,-4.36zm-26.09 -23.47c-0.42,1.2 -0.46,2.11 -1.58,2.55 -1.76,-1.06 -2.77,-7.34 -2.84,-9.96 1.44,-0.25 2.23,0.9 3.85,1.54 3.25,1.29 8.9,3.42 11.56,5.47 -0.29,1.41 -0.79,1.78 -2.15,2.24 -1.63,-0.55 -1.78,-1.45 -3.57,-1.65 -1.48,-0.17 -3.7,-0.13 -5.27,-0.19zm-32.27 -9.79c-1.81,-1.63 -1.25,-9.58 -0.34,-11.45 1.08,0.16 3.36,2.62 2.68,5.31 -0.29,1.12 -0.59,2.18 -0.86,3.3 -0.67,2.71 -0.39,2.41 -1.47,2.84zm29.75 -2.52c-1,0.29 -0.19,0.32 -0.85,-0 0.26,-1.86 -0.25,-3.84 0.65,-4.74 1.03,-0.57 2.14,0.42 3.25,0.88l0.03 0.89c4.14,-3.13 5.39,-16.64 6.33,-18.95 0.46,-1.14 3.88,-2.85 4.93,-2.99 1.39,1.95 5.18,6.89 5.05,9.81l1.8 -0.62c0.72,1.17 1.7,4.44 1.31,6.05 -0.48,1.99 -1.6,3.88 -1.74,6.11 1.46,1.42 4.01,2.66 5.71,3.93 -0.09,1.19 -1.72,5.08 -2.36,5.8 -3.08,0.13 -11.83,1.45 -14.36,0.52 -1.19,-0.44 -3.59,-2.12 -4.83,-2.91 -2.69,-1.7 -6.05,1.7 -6.37,-0.82 -0.16,-1.23 0.77,-1.62 1.45,-2.93zm-26.6 -12.05c-0.5,-5.34 0.05,-4.45 -2.42,-4.05l-0.72 -3.89c1.47,-0.06 3.08,1.09 4.32,1.68 2.88,1.37 1.52,0.88 3.12,2.85 1.23,-0.33 1.24,-0.86 2.6,-0.81 1.38,2.01 0.05,2.26 -1.95,2.89 -1.57,0.5 -3.38,1.1 -4.96,1.33zm0.36 -10.89c-0.7,0.72 -3.26,2.12 -4.58,2.05l-0.48 -6.54c2.14,0.06 1.98,0.49 2.9,1.96 0.8,1.29 1.78,1.56 2.16,2.53zm-2.14 -7.32c-0.47,-0.7 -1.55,-1.74 -1.72,-2.16 -0.84,-2.1 7.33,-6.67 8.86,-6.49 6.51,0.77 12.99,2.68 18.71,5.46 3.24,1.57 3.06,-0.45 6.57,-0.29l0.44 2.15c2.29,0.63 4.07,0.29 5.89,0.67l0.48 4.41c-1.66,1.44 -1.85,1.51 -2.57,4.06 -0.53,1.9 -1.23,3.44 -1.08,5.49 -4.26,0.32 -8.75,3.07 -13.68,3.62l-15.07 1.88c0.28,-1.39 4.42,-2.59 5.82,-3.37 -0.14,-0.73 -0.43,-1.22 -0.71,-1.75 -2.6,-0.41 -1.07,0.55 -5.22,-1.61 -1.01,-0.52 -3.33,-1.61 -4.11,-2.36 0.34,-1.21 0.97,-1.2 2,-1.72l-4.61 -7.98zm1.32 -14.32c0.41,0.57 0.4,1.58 0.54,2.04 1.72,0.03 1.94,-2.27 3.71,-1.67 0.27,0.63 0.07,1.84 0.08,2.41 -1.67,-0.02 -0.86,-1.08 -3.04,0.48 -0.91,0.65 -1.88,1.39 -3.08,1.66 -0.68,-0.76 -1.39,-1.95 -1.55,-3.24l3.34 -1.68zm83.47 -13.82c3.62,-0.46 3.63,0.14 3.51,3.58 -0.07,2.04 -0.07,4.92 -2.18,4.57 -0.77,-1.09 -1.29,-6.47 -1.34,-8.15zm-19.23 48.61c1.35,-0.13 3.68,0.31 4.6,1.13 0.98,0.86 1.06,2.23 2.07,3.18l3.84 -1.75c0.56,-0.91 0.45,-2.79 0.71,-4.03 0.27,-1.27 0.9,-2.27 1.41,-3.34 1.74,-3.6 1.75,-0.69 4.27,-5.45l-1.17 -1.11c0.26,-0.92 2.76,-4.48 3.56,-5.86 0.89,-1.51 3.1,-4.66 3.17,-6.34 0.13,-3.22 0.03,-5.91 0.37,-9.12 0.36,-3.43 1.24,-5.81 4.17,-3.11 -0.51,0.81 -0.87,0.81 -1.52,1.49 0.17,2.28 0.74,1.87 0.19,4.96 -0.31,1.75 -0.89,3.54 -1.1,4.87 1.05,0.92 1.53,0.75 2.33,1.79 -0.85,1.08 -1.37,0.54 -2.37,1.49 2.17,4.86 3.9,1.33 1.1,10.58 -0.41,1.36 -0.39,2.66 -0.89,4.09l-2.75 -0.72 1.28 3.86c-1.93,0.84 -3.82,1.76 -5.74,2.61 -2.24,0.99 -4.32,1.39 -4.8,3.42 1.39,1.23 2.98,1.66 3.49,3.12 -0.88,1.15 -2.74,2.94 -2.88,4.29 1.07,1.26 2.61,0.98 4.1,1.82 -0.67,1.83 -1.07,1.86 -3.34,2.1 -2.77,0.29 -1.38,0.4 -1.21,2.64 -1.94,-0.08 -1.3,-1.19 -3.1,-1.03 -0.3,1.67 1.68,2.26 2.57,4.05 -0.6,1.37 -1.95,3.05 -3.01,3.67 -1.5,-0.76 -0.77,-1.48 -2.66,-2.49 -1.54,-0.82 -1.88,-1.2 -3.47,-0.44 0.57,1.28 1.48,0.96 1.71,3.42 0.04,0.41 0.13,5.77 -0.22,4.9 -0.02,-0.04 -0.08,0.15 -0.14,0.22 -1.87,0.89 -4.52,-1.39 -6.74,-0.86 -1.33,0.32 -3.6,2.58 -5.3,2.95 -2.53,0.55 -5.29,-0.17 -7.87,0.04 -2.38,0.2 -5.74,0.71 -7.86,-0.02 0.12,-1.32 0.27,-1.11 1.07,-1.76 2.03,-1.65 7.72,-7.76 8.56,-9.81 -1.58,0.88 -6.27,3.87 -7.47,3.99 -0.91,-0.65 -1.29,-0.79 -1.36,-2.31 2.2,-1.59 7.33,-4.16 10.59,-4.35 0.22,0.46 0.52,-0.64 0.05,0.76 0.68,-0.54 1.16,-1.16 1.77,-1.74l4.59 -4.5c-0.79,-2.16 -1.57,-0.63 -2,-2.73 2.35,0.73 5.58,6.33 6.27,8.15 0.14,0.38 0.48,1.69 0.59,1.86 0.4,0.6 -0.08,0.31 0.66,0.42 1.8,0.27 0.4,-1.44 0,-2.32 -0.65,-1.43 -1.59,-6.46 -1.63,-7.94l-1.06 1.39c-1.29,-0.74 -1.69,-4.81 -1.88,-6.41 -0.33,-2.69 -0.08,-4.6 -0.84,-7.26 -4.13,-0.93 -6.4,1.62 -7.65,1.95 -0.76,-2.89 1.57,-3.49 1.45,-5.85 -3.44,-0.37 -5.66,3.65 -8.94,-10.47 -0.59,-2.56 1.26,-3.24 2.49,-4.34 3.09,-2.78 6.59,-8.24 10.02,-12.33 2.05,-2.44 3.95,-6.37 5.85,-9.32l-1.16 -1.1c0.22,-1.53 0.69,-1.22 0.8,-2.16 0.1,-0.88 -0.36,-0.76 -0.44,-2.01 1.26,-0.67 5.9,-2.3 7.44,-2.09 1.3,0.17 6.15,1.67 6.87,2.39 -0.29,1.75 0.03,0.24 -0.6,0.89 -0.7,0.71 0.09,-0.84 -0.69,0.65 1.22,0.34 3.28,1.58 4,2.31 4.78,4.88 3.12,4.6 3.21,9.26 0.03,1.77 0.21,3.87 0.35,5.66 0.26,3.47 1.67,7.33 0.63,10.42 -1.49,4.44 -1.55,5.3 -4.5,7.7 0.33,1.45 0.45,0.5 0.86,1.85 -2.71,1.56 -3.85,3.89 -7.69,4.74 -1.38,0.31 -3.87,0.63 -4.7,1.58 -0.97,1.12 -1.63,2.5 -2.3,3.84zm-65.46 -52.29c-0.02,-3.09 -1.68,-3.51 -0.61,-7.99 1.49,-6.24 1.08,-3.48 7.25,-11.21 1.81,-2.27 2.64,-4.34 4.45,-4.49 1.05,1.61 1.76,4.55 2.49,6.39 0.73,1.85 2.59,4.72 2.67,6.4 -1.35,1.15 -3.44,1.59 -4.98,2.68 0.13,1.69 1.46,4.28 1.94,5.96 -0.92,1 -1.33,0.27 -1.76,1.49 0.67,0.61 0.49,0.32 1.28,0.73 1.04,0.53 0.38,-0.05 1.04,0.76 -1.08,0.81 -3.29,0.88 -3.73,1.68 -0.45,0.82 -0.4,1.72 0.4,1.84 1.09,0.16 0.26,-0.61 1.67,-0.73 -0.33,0.91 -0.4,0.37 -0.76,1.39 1.09,0.51 1.97,0.81 1.22,2.33 -0.76,0.77 -4.13,-1.6 -6.97,-1.57 0.26,2.36 1.29,2 3.07,1.82 -0.42,3.22 0.06,4.96 -3.1,4.37 -1.09,-2.4 -0.22,-6.81 -2.03,-7.2l-2.02 -0.11c-3,-0.08 -2.61,-0.36 -2.93,-2.72 -0.14,-1.04 -0.34,-1.46 -0.18,-2.44 1.12,-0.04 0.4,0.23 1.6,0.64zm24.71 -10.08c0.06,-0.01 0.19,-0.01 0.23,-0.11 0.04,-0.1 0.14,-0.09 0.21,-0.13 -1.17,-1.46 -2.32,0.02 -3.77,-1.79l1.66 0.07c0.68,0.11 1.53,0.2 2.23,0.28 3.44,0.4 12.56,-6.07 15.6,-7.78 6.96,-3.91 3.24,-2.7 4.74,-4.48 1.29,-0.86 4.41,-0.56 6.1,-0.15 1.34,0.32 3.81,1.55 4.77,0.44 -0.62,-0.94 -0.14,-0.42 -1.37,-0.89 -0.48,-0.18 -0.81,-0.29 -1.29,-0.48 -2.97,-1.15 -1.89,-0.52 -2.43,-1.47 1.54,0.05 2.3,0.59 3.58,0.26 0.34,-1.8 -0.58,-1.82 -0.57,-3.24 1.91,-0.32 3.14,-0.83 4.51,-1.92 -0.23,-1.78 -0.8,-0.82 -1.28,-2.31 1.51,-0.36 1.79,0.29 2.57,1.11 0.95,-0.31 1.1,-0.66 2.31,-0.99 0.87,-0.24 1.86,-0.49 2.5,-0.72 0.2,-1.37 0.15,-2.58 0.04,-3.96 -0.47,-5.73 0.07,-3.09 3.26,-3.07l-0.17 -4.5c11.22,1.11 5.12,-2.67 11.96,1.38 2.6,1.54 2.4,0.96 3.82,3.64 0.65,1.22 1.95,4.05 2.8,4.58 1.41,-0.91 1.01,-2.16 2.79,-2.93 -0.24,2.5 -1.37,2.07 -1.24,4.4 0.25,4.58 1.56,23.24 2.36,25.96l2.82 7.26c0.05,1.17 0.14,0.31 -0.25,0.79 -1.67,1.07 -1.3,-0.83 -3.28,-1.22 0.28,2.07 0.56,1.09 -0.06,3.12 1.31,-0.49 1.03,-0.96 2.42,-0.57 1.01,2.17 -0.41,1.54 -1.74,2.87 0.09,2.91 2.1,4.57 1.77,7.99 -2.75,-0.16 -0.7,-3.74 -3.54,-9.51l-3.54 0.26c-1.75,-1.5 -1.7,-3.59 -3.28,-5 -2.41,0.85 -1.91,2.58 -4.97,0.51 -1.28,-0.87 -3.08,-2.22 -4.86,-2.46 -0.28,0.69 0.69,1.21 -0.3,1.4 -1.16,-0.03 -1.74,-0.32 -2.68,-0.29 -0.75,0.02 -1.56,0.3 -2.42,0.4 -5.12,0.6 -3.58,2.88 -6.71,5.32 -1.6,1.25 -3.22,0.24 -3.34,2.72l2.52 -0.03c0.15,1.4 -0.33,5.88 -0.77,7.02 -2.61,6.85 -3.6,5.94 -6.97,9.14 -1.5,1.43 -1.12,3.61 -2.86,5.08 -2.86,-0.74 -2.44,-2.6 -3.05,-5.77 -0.25,-1.33 -0.39,-2.86 -0.31,-4.29 0.11,-2.04 0.02,-2.21 -2.15,-1.92 0.07,1.22 1.6,11.97 0.93,13.2 -0.79,0.66 -3.37,2.29 -4.56,2.41 -0.28,-5.53 -1.6,-1.9 -4.57,-2.32 -0.93,-1.39 -0.64,-3.02 -1.79,-3.81 -0.58,0.66 -0.36,0.79 -1.08,1.5 -0.96,0.94 -3.45,3.13 -4.7,2.98l0.17 -1.48c0,-0.08 0,-0.12 -0.02,-0.18 -0.69,-0.25 -1.38,-0.22 -2.25,-0.38 -2.95,-0.53 -1.66,-1.48 -3.3,-5.63 -1.04,-2.62 -5.64,-2.16 -7.53,-5.59 -0.62,-1.13 -2.27,-3.23 -1.88,-4.12 1.43,-2.21 5.72,1.7 7.65,-0.7 0,-0 0.65,-1.14 0.66,-1.19 0.55,-2.6 -3.33,-0.78 -4.68,-0.83 -0.4,-0.77 -2.05,-3.86 -1.96,-4.88 0.87,-0.28 2.02,-0.22 2.4,0.57 0.3,0.61 0.05,1.59 0.42,2.56 1.04,0.05 2.55,-0.5 3.44,-1.19 -0.81,-1.22 -0.94,-0.35 -1.51,-1.93 1.87,0.18 2.29,0.94 3.73,0.92l0.46 -1.54c0.02,-0.14 0.08,-0.18 0.14,-0.25 1.6,1.04 1.3,2.67 3.12,2.1 0.16,-0.38 0.14,0.4 0.16,-0.77 0.01,-0.91 -1.23,-3.31 -1.79,-3.94 -1.44,0.35 -1.72,1.35 -3.09,1.91 0.69,-3.66 -2.78,-6.33 -3.13,-9.89 1.13,-0.45 1.14,-0.12 1.52,-1.21 -1.14,-1.2 -1.67,-0.2 -2.55,-1.49 2.1,-2.51 3.17,2.03 7.2,1.13zm-27.87 79.61c1.01,2.91 3.72,8.13 5.3,10.96 0.37,0.66 1.63,2.71 1.85,3.28 0.75,1.97 -1.14,1.67 0.97,3.75 3.58,3.53 1.91,1.53 5,5.74 0.6,0.82 1.52,2.29 1.61,3.28 0.57,0.31 0.72,0.31 1.28,0.97 0.35,0.42 0.58,0.91 0.87,1.5 0.69,0.15 1.03,0.78 1.58,1.42 0.6,0.69 0.91,0.92 1.21,1.65 1.28,0.51 1.67,1.15 2.12,2.05 1.17,0.42 1.43,1.59 1.52,1.41 0.03,-0.05 0.1,0.14 0.16,0.2 0.37,-0.77 0.1,-0.65 1.14,0.1 0.7,0.5 0.43,0.5 1.27,0.92 -0.4,-1.94 -1.92,-2.75 -1.19,-4.39 1.64,-0.24 1.81,1.01 2.53,2.39 0.93,1.77 3.28,3.02 5.26,5.46 1.99,2.45 1.84,4.56 9.38,6.68 2.08,0.58 6.05,-1.97 8.09,-2.23l0.39 1c0.21,0.69 -0.35,-0.11 0.21,0.84 2.52,-0.17 4.43,-1.12 6.69,-1.84 2.85,-0.91 3.68,-1.84 5.34,-3.34 5.64,-5.07 4.77,-5.84 6.91,-7.96 1.04,-1.03 0.23,0.2 1.06,-1.34 -0.11,-3.08 -0.36,-2.79 -1.96,-4.38 -2.94,-2.92 -3.34,-3.1 -6.98,-5.24 -1.08,-0.63 -3.43,-0.36 -4.76,0.07 0.12,2.02 2,1.48 3.59,3.55 -0.78,0.47 -9.46,1.46 -9.89,1.18 -0.81,-1.11 -0.29,-1.55 -1.83,-1.63l0.46 2.59c-3.03,0.06 -8.43,-3.45 -10.25,-1.52 -0.34,0.85 0.63,0.71 0.69,2.7 -2.36,-0.08 -1.92,-0.98 -2.87,-2.94 -0.7,-1.45 -1.28,-2.77 -2.29,-3.31 -0.58,1.14 1.48,2.53 -0.4,2.79 -1.55,0.22 1.05,0.25 -0.41,0.03 -1.07,-0.16 -2.61,-2.9 -3.47,-3.65 -0.68,-0.6 -4.69,-2.11 -5.91,-2.21 -0.02,2.29 0.98,1.1 1.15,3.24 -1.52,0.96 -3.33,1.53 -4.7,0.08 -4.43,-4.72 -4.65,-5.75 -8.18,-11.18l-5.41 -7.41c-2.01,-2.59 -3.62,-3.35 -1.61,-9.44 1.43,-0.04 1.86,0.32 2.28,1.64 0.26,0.83 0.24,1.55 0.72,2.3 0.85,1.33 6.98,0.93 7.4,0.82 1.93,-0.54 3.09,-1.42 5.38,-1.69 -0.56,1.24 -3.59,1.83 -4.5,4.5 3.71,-0.63 3.28,-2.86 9.11,-3.92 -0.08,-1.04 -0.54,-0.52 -0.47,-1.66 0.41,-0.06 1.02,-0.04 1.26,-0.1l0.72 -0.28c0.04,-0.1 0.16,-0.07 0.22,-0.13 -0.91,-1.16 -2.58,-0.47 -5.43,-0.01 -5.5,0.9 -4.58,2.38 -10.5,1.04 -2.36,-0.53 -3.02,-0.37 -3.63,-2.68 -1.45,-5.52 -1.68,-4.55 0.13,-10.01 0.64,-1.92 1.51,-1.94 3.43,-2.79 1.08,-0.48 3.3,-1.97 4.45,-0.74 -0.48,0.86 0.29,-0.02 -0.56,0.44 -1.44,0.77 -1.35,-0.48 -1.34,1.42 1.61,1.06 2.78,-0.81 3.76,-1.66 1.57,-1.38 1.77,-1.4 3.63,-0.14 3.95,2.68 3.43,1.39 5.78,5.85 2.05,3.88 1.03,5.44 1.39,10.2 0.27,3.66 1.58,6.14 1.88,9.85 -3.46,0.27 -5.16,-0.01 -8.41,-0.22 -2.53,-0.16 -4.6,-1.92 -5.96,-3.28l-0.32 2.89 6.29 1.81c1.16,-1.04 1.64,-1.49 2.97,-0.34 0.76,0.66 1.33,1.32 2.17,2 0.82,0.66 1.39,1.11 2.31,1.86 3.95,3.21 4.72,-0.52 10.57,1.05 2.04,0.54 4.74,1.49 6.91,1.24 5.66,-0.65 12.07,-0.33 15.98,-1.03 4.93,-0.87 10.4,1.18 14.38,-1.85 -0.3,-3.16 -2.58,-5.26 -3.26,-7.42 1.82,0.62 4.33,4.15 5.04,6.28 3.38,-1.47 8.33,-13.6 8.23,-17.72 -0.86,-0.44 -1.65,-0.78 -1.93,-2 0.95,0.07 2.66,0.77 3.3,1.24 0.95,0.71 0.74,1.65 1.02,3.14 0.67,3.49 1.11,3.73 -0.46,6.84 -1.1,2.15 -1.56,3.98 -3.01,5.64 -1.19,1.36 -2.44,3.11 -3.66,4.68 -3.66,4.68 -3.86,4.89 -6.45,10.51 -1.62,3.52 -4.69,7.27 -4.51,8.09 0.17,0.76 1.74,1.61 -0.88,1.84 -0.64,1.28 0.17,1.07 -1.68,3.87 -0.69,1.05 -1.77,2.39 -2.22,3.46 7.17,-3.11 7.48,-7.73 9.63,-6.66l-0.08 1.54 1.37 -0.98c0.49,-1.33 0.81,-1.51 2.43,-1.94 0.6,-1.04 1,-0.73 1.56,-2.05 0.27,-0.63 0.11,-0.8 0.97,-1.74l0.5 -0.45c0.45,-1.17 0.17,-0.73 1.07,-1.29 0.1,-1.23 1.11,-0.96 1.76,-2.13l3.32 -5.29c1.48,-2.11 0.24,-2.2 4.81,-8.3 0.96,-1.29 1.05,-1.22 1.72,-2.79 0.55,-1.28 1.03,-1.64 2.01,-2.35 0.2,-4.28 0.62,-2.56 0.93,-5.05l0.02 -1.45c-1.83,2.26 -0.34,1.72 -2.38,1.92l-0.56 0.08c-0.08,0.01 -0.22,0.14 -0.28,0.06 -0.43,-0.68 -4.3,11.89 -7.69,14.07 -1.19,0.77 -3.89,1.93 -5.54,1.84 0.07,-1.92 2.47,-5.19 3.77,-6.57 1.02,-1.08 4.23,-3.86 4.73,-5.41 0.84,-2.63 1.74,-4.83 2.44,-7.72 0.51,-2.09 1.2,-6.33 2.26,-7.79 0.78,0.4 1.74,2.4 2.2,3.12 1.65,2.6 0.87,1.41 0.51,3.69l1.08 0.81c0.03,-0.9 -0.02,-1.39 0.08,-2.32 0.19,-1.8 0.29,-1.49 0.51,-1.72l1.57 -0.05 -1.63 -0.89c0.97,-2.61 0.69,-1.93 0.48,-4.76 -0.82,-11.01 5.08,-10.74 6.24,-15.75 1.02,-4.36 2.19,-4.63 0.09,-8.81 -0.57,-1.14 -1.03,-2.81 -1.9,-3.47 -0.3,0.45 -0.17,0.97 -0.01,1.46 0.16,0.46 0.4,1.07 0.57,1.57 0.44,1.3 1.06,1.88 1.33,2.98 -2.47,-0.24 -4.07,-3.99 -5.03,-5.77 -3.2,0.46 -1.87,5.04 -4.49,5.04 -0.1,-1.68 1.24,-3.69 1.52,-5.64 0.66,-4.69 -0.17,-12.12 0.4,-13.98 0.62,-2.02 1.39,-3.28 1.46,-5.6 0.13,-4.37 -0.07,-9.74 -0.56,-14.02 -0.39,-3.38 -5.28,-6.4 -5.36,-9.23 2.27,0.98 3.44,4.31 4.76,4.71 -0.12,-1.8 -1.9,-3.58 -1.14,-4.95 2.46,0.56 2.32,4.88 3.28,6.98l0.95 -0.13c0.35,-4.1 -3.7,-12.11 -5.28,-16.3 -0.56,-1.49 -1.01,-4.2 -2.68,-4.75 -0.94,2.82 -1.47,3.57 -1.19,6.85 -1.18,-0.2 -0.89,-1.12 -0.9,-2.52 -0.04,-3.94 -0.49,-7.18 -0.19,-11.04l0.15 0.3c1.5,-16.78 -7.25,-9.28 -7.48,-14.24 1.81,-0.36 3.47,1.22 5.39,1.52 -0.05,-2.12 -1.81,-2.02 -3.28,-3.13 -1.74,-1.31 0.1,-2.67 -2.17,-3.78 -2.17,0.94 -1,1.03 -0.97,2.9 -3.34,1.92 -3.78,2.61 -7.46,0.98 -4.65,-2.06 -2.7,-1.84 -5.58,-5.03 -1.32,0.07 -0.79,0.36 -2.07,0.31 -0.96,-0.04 -0.63,-0.25 -1.78,-0.35 0.28,1.69 3.04,2.48 3.68,4.74l-1.47 0.11c-0.4,4.72 0.19,4.55 0.12,6.73 -1.48,-0.43 -2.78,-2.64 -3.44,-3.97 -0.77,-1.54 -1.37,-3.96 -3.09,-4.54 -0.04,0.08 -0.07,0.18 -0.09,0.24l-0.14 0.73c-0.04,1.32 0.78,4.51 1.23,5.67 0.78,1.98 2.05,3.45 2.33,5.85 -1.48,-0.25 -2.52,-1.81 -3.18,-3.22 -0.73,0.69 -0.34,1.26 -0.75,2.09 -1.87,0.09 -0.81,-0.35 -1.57,-1.83l-0.93 0.1 -0.67 2.04c-0.02,-0.04 -0.06,0.17 -0.11,0.25 -0.83,-0.58 -1.81,-1.79 -2.38,-2.48 0.72,-0.37 0.24,-0.05 0.88,-0.28 0.42,-0.16 0.23,0.41 0.47,-0.2 0.04,-0.11 0.17,-0.06 0.24,-0.11 -0.44,-1.19 -0.83,-1.74 -1.89,-2.08 -0.72,0.37 -2.52,1.92 -2.89,2.68 1.44,1.5 3.59,3.08 4.2,5.5l-4.67 -0.81c0.27,1.32 0.54,0.99 0.87,2.08 -1.87,-0.27 -3.63,-4.56 -4.76,-6.08 -0.75,-1.01 -1.25,-0.99 -1.39,-2.2 2.09,-0.22 0.66,0.53 2.69,0.66 -0.37,-2 -4.26,-7.57 -6.1,-7.33 -0.23,2.45 1.97,1.57 1.8,3.88 -1.61,-0.03 -2.3,-0.97 -4.6,-0.17 0.08,0.89 -0.35,0.62 0.97,1.08 2.02,0.69 2.54,-0.03 3.22,2.43 0.51,1.83 2.04,4.48 2.2,5.43 -0.84,0.67 -0.89,0.34 -1.47,1.19 0.47,0.77 3.81,2.83 4.34,3.2 1.99,1.39 3.17,1.25 1.26,3.77 -3.07,0.44 -3.42,-1.35 -4.79,-1.76 -0.03,1.41 1.09,1.03 1.96,2.23 -0.68,0.99 -5.98,3.15 -7.16,3.41 -0.23,-0.5 0.08,-0.77 -0.1,-1.26 -0.27,-0.72 0.07,-0.4 -0.79,-0.68 -0.6,1.16 -0.4,2.78 -1.49,4.16 -1.22,-0.54 -1.7,-1.89 -3.28,-2.1 -0.9,1.58 -0.7,2.53 -0.23,4.17l-4.63 -1.83 -1.09 1.47c-2.08,-1.16 -2.43,-2.26 -5.63,-1.85 -1.08,0.14 -2.13,0.59 -3.29,0.5 -1.44,-0.11 -1.38,-0.78 -3.16,-0.47 -0.63,1.98 0.64,0.87 0.74,3.13 -1.76,0.14 -3.09,-1.69 -4.17,-2.68 -1.81,-1.65 -2.15,-1.08 -2.47,-4.09 -2.49,-0.09 -4.73,0.71 -6.81,1.45l0.4 2.04c-1.04,0.44 -3.71,3.67 -4.49,5.06l-4.33 14.57c-0.16,3.06 -0.26,6.43 0.05,9.33 0.43,4 0.25,14.68 -0.14,18.72 -0.29,3.01 -0.54,6.11 -0.27,9.16 0.22,2.49 0.44,6.26 -1.76,7.08 -0.47,-5.77 -3.95,-3.17 -3.24,-1.57 0.69,1.55 4.54,2.34 4.9,4.37l-0.55 0.16c-0.05,0 -0.16,-0 -0.21,-0 -0.07,-0 -0.59,-0.14 -0.72,-0.16 0.93,5.61 -0.65,5.49 2.08,7.15 -0.55,1.84 -2.72,3.45 -1.18,5.51 1.99,-0.76 -0.52,-2.77 2.05,-3.71 -0.06,2 0.01,3.92 -0.07,5.95 -0.14,3.4 0.66,2.5 1.17,4.97 -1.95,-0.55 -0.45,-0.57 -1.96,-1.06 -0.88,1.26 -0.86,2.96 0.3,3.78 1.64,-0.7 -0.41,-0.45 1.19,-1.13 0.72,0.72 2.32,5.77 0.98,5.65z"/>
   <path class="fil2" d="M74.06 115.55c0.82,1.56 1.62,2.74 -0.48,3.61 -0.96,-0.62 -0.4,-0.17 -0.93,-1.31 -0.81,-1.74 -1.97,-2.93 -1.94,-4.07 2.18,-0.15 2.51,0.17 3.35,1.77zm-2.34 -13.13c0.44,-2.19 1.28,-1.76 3.54,-2.29 2.02,-0.47 3.29,-0.19 5.3,0.06 1.53,0.2 8.42,0.03 9.47,1.52 -1.45,2.13 -8.24,-1.24 -9.94,1.19 1.4,0.78 3.47,0.27 3.8,1.68 -3.92,0.43 -8.95,-1.11 -12.18,-2.17zm42.76 -30.5c1.26,-0.86 8.29,-2.22 9.67,-1.49 -0.85,0.77 -2.63,1.21 -3.57,1.71l-0.83 0.67c1.18,0.94 1.11,0.01 1.7,0.89 -0.36,0.16 -2.9,1.09 -3.19,1.13 -2.4,-2.9 -3.03,-0.95 -3.78,-2.91zm1.88 -22.48l0.17 4.5c-3.19,-0.02 -3.73,-2.67 -3.26,3.07 0.11,1.38 0.16,2.59 -0.04,3.96 -0.64,0.23 -1.63,0.48 -2.5,0.72 -1.21,0.33 -1.36,0.67 -2.31,0.99 -0.78,-0.82 -1.07,-1.47 -2.57,-1.11 0.48,1.5 1.05,0.53 1.28,2.31 -1.37,1.09 -2.6,1.61 -4.51,1.92 -0.01,1.43 0.91,1.44 0.57,3.24 -1.29,0.33 -2.04,-0.22 -3.58,-0.26 0.54,0.95 -0.54,0.33 2.43,1.47 0.49,0.19 0.82,0.29 1.29,0.48 1.23,0.47 0.76,-0.05 1.37,0.89 -0.96,1.1 -3.43,-0.12 -4.77,-0.44 -1.69,-0.41 -4.82,-0.71 -6.1,0.15 -1.51,1.78 2.22,0.58 -4.74,4.48 -3.04,1.71 -12.16,8.18 -15.6,7.78 -0.7,-0.08 -1.55,-0.17 -2.23,-0.28l-1.66 -0.07c1.45,1.81 2.61,0.33 3.77,1.79 -0.07,0.04 -0.17,0.04 -0.21,0.13 -0.04,0.1 -0.17,0.09 -0.23,0.11 -4.03,0.9 -5.1,-3.64 -7.2,-1.13 0.88,1.29 1.41,0.29 2.55,1.49 -0.38,1.09 -0.39,0.76 -1.52,1.21 0.35,3.55 3.82,6.23 3.13,9.89 1.37,-0.56 1.65,-1.56 3.09,-1.91 0.56,0.63 1.81,3.03 1.79,3.94 -0.02,1.17 0.01,0.39 -0.16,0.77 -1.83,0.57 -1.52,-1.05 -3.12,-2.1 -0.06,0.07 -0.12,0.11 -0.14,0.25l-0.46 1.54c-1.44,0.02 -1.86,-0.74 -3.73,-0.92 0.58,1.58 0.7,0.71 1.51,1.93 -0.89,0.69 -2.4,1.24 -3.44,1.19 -0.38,-0.97 -0.12,-1.95 -0.42,-2.56 -0.38,-0.78 -1.53,-0.85 -2.4,-0.57 -0.09,1.02 1.56,4.1 1.96,4.88 1.35,0.05 5.23,-1.77 4.68,0.83 -0.01,0.05 -0.66,1.19 -0.66,1.19 -1.93,2.4 -6.23,-1.51 -7.65,0.7 -0.39,0.89 1.26,2.99 1.88,4.12 1.89,3.43 6.49,2.97 7.53,5.59 1.65,4.15 0.36,5.1 3.3,5.63 0.87,0.16 1.56,0.13 2.25,0.38 0.02,0.06 0.02,0.1 0.02,0.18l-0.17 1.48c1.25,0.15 3.74,-2.04 4.7,-2.98 0.72,-0.7 0.49,-0.84 1.08,-1.5 1.15,0.79 0.86,2.41 1.79,3.81 2.97,0.42 4.29,-3.22 4.57,2.32 1.19,-0.13 3.77,-1.76 4.56,-2.41 0.67,-1.23 -0.87,-11.98 -0.93,-13.2 2.17,-0.29 2.26,-0.12 2.15,1.92 -0.07,1.43 0.06,2.96 0.31,4.29 0.61,3.17 0.19,5.03 3.05,5.77 1.74,-1.47 1.36,-3.65 2.86,-5.08 3.37,-3.2 4.36,-2.29 6.97,-9.14 0.44,-1.15 0.92,-5.63 0.77,-7.02l-2.52 0.03c0.12,-2.48 1.74,-1.47 3.34,-2.72 3.14,-2.44 1.59,-4.72 6.71,-5.32 0.85,-0.1 1.66,-0.37 2.42,-0.4 0.94,-0.03 1.52,0.26 2.68,0.29 0.98,-0.19 0.02,-0.71 0.3,-1.4 1.78,0.24 3.57,1.59 4.86,2.46 3.06,2.07 2.57,0.34 4.97,-0.51 1.58,1.41 1.53,3.5 3.28,5l3.54 -0.26c2.83,5.77 0.79,9.35 3.54,9.51 0.32,-3.42 -1.68,-5.08 -1.77,-7.99 1.33,-1.33 2.74,-0.7 1.74,-2.87 -1.39,-0.39 -1.1,0.08 -2.42,0.57 0.62,-2.02 0.34,-1.05 0.06,-3.12 1.98,0.39 1.61,2.29 3.28,1.22 0.39,-0.48 0.3,0.38 0.25,-0.79l-2.82 -7.26c-0.81,-2.72 -2.11,-21.39 -2.36,-25.96 -0.13,-2.34 1,-1.9 1.24,-4.4 -1.78,0.77 -1.37,2.02 -2.79,2.93 -0.85,-0.53 -2.16,-3.36 -2.8,-4.58 -1.42,-2.68 -1.22,-2.1 -3.82,-3.64 -6.84,-4.06 -0.74,-0.27 -11.96,-1.38z"/>
   <path class="fil0" d="M106.51 128.53c0.79,-0.65 4.66,-1.84 5.8,-1.81 0.81,1.11 2.64,3.81 2.59,4.99 -1.43,0.22 -7.98,-2.03 -8.39,-3.18zm5.67 27.82c-0.12,-2.09 0.71,-7.55 1.51,-8.7 0.66,-1.33 1.33,-2.72 2.3,-3.84 0.83,-0.96 3.32,-1.28 4.7,-1.58 3.84,-0.85 4.98,-3.18 7.69,-4.74 -0.41,-1.35 -0.53,-0.4 -0.86,-1.85 2.95,-2.4 3.01,-3.26 4.5,-7.7 1.04,-3.09 -0.37,-6.95 -0.63,-10.42 -0.13,-1.79 -0.32,-3.9 -0.35,-5.66 -0.08,-4.66 1.57,-4.38 -3.21,-9.26 -0.72,-0.73 -2.78,-1.97 -4,-2.31 0.78,-1.49 -0.01,0.07 0.69,-0.65 0.64,-0.65 0.32,0.86 0.6,-0.89 -0.72,-0.72 -5.57,-2.21 -6.87,-2.39 -1.53,-0.21 -6.18,1.42 -7.44,2.09 0.08,1.25 0.53,1.13 0.44,2.01 -0.1,0.94 -0.58,0.63 -0.8,2.16l1.16 1.1c-1.9,2.95 -3.8,6.88 -5.85,9.32 -3.43,4.09 -6.93,9.54 -10.02,12.33 -1.22,1.1 -3.08,1.78 -2.49,4.34 3.28,14.12 5.5,10.1 8.94,10.47 0.12,2.37 -2.21,2.96 -1.45,5.85 1.25,-0.33 3.52,-2.87 7.65,-1.95 0.77,2.66 0.51,4.57 0.84,7.26 0.2,1.6 0.59,5.67 1.88,6.41l1.06 -1.39z"/>
   <path class="fil3" d="M94.36 189.2c-1.59,-0.05 -3.36,-0.51 -5.23,-0.64 -3.03,-0.21 -1.9,-0.9 -3.56,-2 -1.89,-1.26 -5.9,-3.2 -6.82,-4.59 5.21,-0.71 10.31,2.13 13.99,1.76 4.55,-0.47 10.27,-1.57 14.77,-1.62 -0.66,1.64 -1.03,0.61 -2.05,2.61 -2.31,0.05 -3.35,-0.34 -5.54,0.83l-4.62 1.98 -2.4 -1.34c0.52,1.31 1.32,1.81 1.46,3zm-33 -19.75c-0.37,-0.45 -0.1,0.15 -0.3,-0.74l0.82 -0.43c0.91,-2.67 3.94,-3.26 4.5,-4.5 -2.29,0.27 -3.45,1.15 -5.38,1.69 -0.42,0.12 -6.55,0.52 -7.4,-0.82 -0.48,-0.75 -0.45,-1.47 -0.72,-2.3 -0.42,-1.32 -0.84,-1.68 -2.28,-1.64 -2.01,6.09 -0.4,6.85 1.61,9.44l5.41 7.41c3.53,5.42 3.75,6.46 8.18,11.18 1.37,1.46 3.18,0.88 4.7,-0.08 -0.18,-2.14 -1.18,-0.95 -1.15,-3.24 1.21,0.1 5.22,1.61 5.91,2.21 0.86,0.75 2.4,3.49 3.47,3.65 1.46,0.22 -1.13,0.18 0.41,-0.03 1.87,-0.26 -0.18,-1.65 0.4,-2.79 1,0.53 1.58,1.86 2.29,3.31 0.95,1.96 0.52,2.85 2.87,2.94 -0.06,-1.98 -1.03,-1.84 -0.69,-2.7 1.82,-1.92 7.22,1.58 10.25,1.52l-0.46 -2.59c1.55,0.08 1.03,0.52 1.83,1.63 0.43,0.28 9.11,-0.71 9.89,-1.18 -1.59,-2.07 -3.47,-1.53 -3.59,-3.55 1.34,-0.43 3.69,-0.7 4.76,-0.07 3.64,2.14 4.04,2.32 6.98,5.24 1.59,1.58 1.85,1.3 1.96,4.38 0.09,1.11 -0.27,0.39 0.42,0.82 2.62,-0.23 1.05,-1.08 0.88,-1.84 -0.18,-0.82 2.88,-4.57 4.51,-8.09 2.59,-5.62 2.79,-5.84 6.45,-10.51 1.23,-1.56 2.47,-3.31 3.66,-4.68 1.45,-1.66 1.92,-3.48 3.01,-5.64 1.58,-3.1 1.13,-3.34 0.46,-6.84 -0.28,-1.48 -0.07,-2.42 -1.02,-3.14 -0.64,-0.48 -2.35,-1.17 -3.3,-1.24 0.28,1.23 1.07,1.56 1.93,2 0.09,4.12 -4.85,16.25 -8.23,17.72 -0.71,-2.14 -3.22,-5.66 -5.04,-6.28 0.67,2.16 2.95,4.26 3.26,7.42 -3.98,3.03 -9.45,0.98 -14.38,1.85 -3.91,0.69 -10.32,0.37 -15.98,1.03 -2.17,0.25 -4.88,-0.7 -6.91,-1.24 -5.85,-1.56 -6.62,2.16 -10.57,-1.05 -0.92,-0.75 -1.49,-1.2 -2.31,-1.86 -0.85,-0.68 -1.41,-1.34 -2.17,-2 -1.33,-1.16 -1.81,-0.71 -2.97,0.34l-6.29 -1.81 0.32 -2.89z"/>
   <path class="fil2" d="M113.68 147.64c-0.79,1.15 -1.63,6.61 -1.51,8.7 0.04,1.49 0.98,6.52 1.63,7.94 0.4,0.89 1.8,2.59 -0,2.32 -0.74,-0.11 -0.26,0.18 -0.66,-0.42 -0.11,-0.16 -0.44,-1.48 -0.59,-1.86 -0.69,-1.83 -3.91,-7.43 -6.27,-8.15 0.42,2.1 1.21,0.57 2,2.73l-4.59 4.5c-0.61,0.58 -1.09,1.21 -1.77,1.74 -0.3,0.77 -1.06,1.58 -1.81,1.92 -0.85,2.05 -6.54,8.16 -8.56,9.81 -0.8,0.65 -0.95,0.44 -1.07,1.76 2.12,0.73 5.48,0.22 7.86,0.02 2.57,-0.21 5.34,0.51 7.87,-0.04 1.7,-0.37 3.97,-2.63 5.3,-2.95 2.22,-0.53 4.87,1.75 6.74,0.86 0.06,-0.07 0.12,-0.26 0.14,-0.22 0.35,0.87 0.25,-4.49 0.22,-4.9 -0.23,-2.46 -1.14,-2.14 -1.71,-3.42 1.59,-0.75 1.93,-0.38 3.47,0.44 1.89,1.01 1.16,1.73 2.66,2.49 1.06,-0.62 2.41,-2.3 3.01,-3.67 -0.89,-1.79 -2.87,-2.38 -2.57,-4.05 1.8,-0.16 1.16,0.96 3.1,1.03 -0.17,-2.24 -1.56,-2.34 1.21,-2.64 2.27,-0.24 2.67,-0.27 3.34,-2.1 -1.49,-0.84 -3.03,-0.55 -4.1,-1.82 0.14,-1.36 2,-3.14 2.88,-4.29 -0.51,-1.47 -2.1,-1.89 -3.49,-3.12 0.48,-2.03 2.56,-2.43 4.8,-3.42 1.91,-0.84 3.81,-1.77 5.74,-2.61l-1.28 -3.86 2.75 0.72c0.49,-1.43 0.47,-2.73 0.89,-4.09 2.8,-9.25 1.07,-5.72 -1.1,-10.58 1,-0.95 1.52,-0.41 2.37,-1.49 -0.8,-1.03 -1.27,-0.86 -2.33,-1.79 0.21,-1.33 0.78,-3.12 1.1,-4.87 0.55,-3.09 -0.02,-2.68 -0.19,-4.96 0.65,-0.67 1.01,-0.68 1.52,-1.49 -2.93,-2.7 -3.81,-0.32 -4.17,3.11 -0.34,3.2 -0.24,5.9 -0.37,9.12 -0.07,1.68 -2.28,4.83 -3.17,6.34 -0.81,1.37 -3.3,4.94 -3.56,5.86l1.17 1.11c-2.52,4.77 -2.53,1.86 -4.27,5.45 -0.52,1.07 -1.15,2.06 -1.41,3.34 -0.26,1.24 -0.16,3.12 -0.71,4.03l-3.84 1.75c-1,-0.95 -1.09,-2.32 -2.07,-3.18 -0.92,-0.81 -3.25,-1.26 -4.6,-1.13z"/>
   <path class="fil0" d="M62.5 128.14c0.9,-0.3 4.3,-1.1 5.32,-0.74 0.58,0.21 2.48,2.73 2.59,3.31 -1.92,0.38 -6.98,-0.51 -7.91,-2.58zm-9.76 7c-1.03,0.52 -1.66,0.51 -2,1.72 0.78,0.76 3.1,1.84 4.11,2.36 4.16,2.16 2.62,1.2 5.22,1.61 0.28,0.53 0.57,1.02 0.71,1.75 -1.4,0.78 -5.54,1.98 -5.82,3.37l15.07 -1.88c4.93,-0.55 9.43,-3.3 13.68,-3.62 -0.16,-2.06 0.54,-3.59 1.08,-5.49 0.71,-2.56 0.91,-2.63 2.57,-4.06l-0.48 -4.41c-1.82,-0.38 -3.59,-0.04 -5.89,-0.67l-0.44 -2.15c-3.52,-0.17 -3.33,1.86 -6.57,0.29 -5.73,-2.78 -12.2,-4.69 -18.71,-5.46 -1.54,-0.18 -9.7,4.4 -8.86,6.49 0.17,0.42 1.25,1.46 1.72,2.16l4.61 7.98z"/>
   <path class="fil2" d="M79.6 154.45c-0.44,1.02 -2.34,2.83 -3.09,2.98 -0.68,1.31 -1.61,1.7 -1.45,2.93 0.32,2.52 3.68,-0.88 6.37,0.82 1.24,0.79 3.64,2.47 4.83,2.91 2.53,0.93 11.28,-0.39 14.36,-0.52 0.63,-0.72 2.27,-4.61 2.36,-5.8 -1.7,-1.27 -4.25,-2.51 -5.71,-3.93 0.14,-2.23 1.26,-4.12 1.74,-6.11 0.39,-1.61 -0.59,-4.87 -1.31,-6.05l-1.8 0.62c0.13,-2.92 -3.67,-7.86 -5.05,-9.81 -1.06,0.14 -4.47,1.85 -4.93,2.99 -0.94,2.32 -2.18,15.82 -6.33,18.95z"/>
   <path class="fil2" d="M61.87 168.28l-0.82 0.43c0.2,0.89 -0.07,0.29 0.3,0.74 1.36,1.36 3.43,3.12 5.96,3.28 3.25,0.21 4.95,0.49 8.41,0.22 -0.3,-3.71 -1.6,-6.19 -1.88,-9.85 -0.35,-4.76 0.66,-6.32 -1.39,-10.2 -2.35,-4.46 -1.83,-3.17 -5.78,-5.85 -1.86,-1.26 -2.06,-1.24 -3.63,0.14 -0.98,0.86 -2.14,2.72 -3.76,1.66 -0.02,-1.89 -0.1,-0.65 1.34,-1.42 0.86,-0.46 0.08,0.43 0.56,-0.44 -1.16,-1.22 -3.37,0.26 -4.45,0.74 -1.92,0.85 -2.8,0.88 -3.43,2.79 -1.81,5.46 -1.58,4.49 -0.13,10.01 0.6,2.31 1.27,2.15 3.63,2.68 5.92,1.34 5,-0.15 10.5,-1.04 2.85,-0.46 4.52,-1.15 5.43,0.01 -0.07,0.06 -0.18,0.03 -0.22,0.13l-0.72 0.28c-0.25,0.06 -0.86,0.04 -1.26,0.1 -0.07,1.14 0.39,0.62 0.47,1.66 -5.84,1.06 -5.4,3.28 -9.11,3.92z"/>
   <path class="fil2" d="M105.13 193.21c-1.1,1.33 -3.12,4.56 -4.39,4.36 -2.31,-0.36 0.81,-2.75 -0.56,-3.55 -0.89,-0.52 -1.4,0.3 -1.85,0.65 -2.25,1.75 -13.37,2.33 -15.13,1.39 -4.63,-2.47 -4.44,-4.19 -7.43,-2.77 -0.08,2.21 1.25,7.72 2.35,9.03 0.33,0.4 5.96,4.45 6.61,4.73 4.45,1.9 10.71,0.2 14.78,-0.02 5.81,-0.31 5.1,1.63 9.75,-5.31 0.57,-0.86 2.19,-5.56 2.26,-6.81l-6.39 -1.71z"/>
   <path class="fil2" d="M48.23 95.35c-1.2,-0.41 -0.48,-0.69 -1.6,-0.64 -0.15,0.98 0.04,1.39 0.18,2.44 0.31,2.36 -0.08,2.64 2.93,2.72l2.02 0.11c1.81,0.39 0.94,4.81 2.03,7.2 3.16,0.59 2.68,-1.15 3.1,-4.37 -1.79,0.18 -2.81,0.54 -3.07,-1.82 2.83,-0.02 6.21,2.35 6.97,1.57 0.75,-1.52 -0.13,-1.82 -1.22,-2.33 0.36,-1.02 0.43,-0.48 0.76,-1.39 -1.41,0.12 -0.59,0.89 -1.67,0.73 -0.79,-0.12 -0.84,-1.02 -0.4,-1.84 0.44,-0.8 2.64,-0.87 3.73,-1.68 -0.66,-0.81 -0,-0.23 -1.04,-0.76 -0.78,-0.4 -0.61,-0.12 -1.28,-0.73 0.42,-1.22 0.84,-0.49 1.76,-1.49 -0.48,-1.67 -1.81,-4.27 -1.94,-5.96 1.54,-1.09 3.64,-1.53 4.98,-2.68 -0.08,-1.68 -1.94,-4.54 -2.67,-6.4 -0.72,-1.84 -1.44,-4.78 -2.49,-6.39 -1.81,0.15 -2.64,2.23 -4.45,4.49 -6.17,7.73 -5.76,4.97 -7.25,11.21 -1.07,4.48 0.59,4.9 0.61,7.99z"/>
   <path class="fil4" d="M110.68 4.45c1.41,0.81 6.96,3.39 7.51,4.62 -1.02,0.81 -1.27,0.05 -2.37,-0.28 -1.85,-0.54 -6.46,0.38 -8.76,-0.43 -3.19,-1.12 -2.08,1.06 -4.43,0.58 -0.53,-0.11 -3.63,-1.33 -4.55,-1.66 0.17,-0.38 -0.15,-1.29 2.74,-0.41 1.06,0.32 1.9,0.89 2.86,0.41 -0.46,-2.24 -2.01,-0.51 -3.3,-2.38 0.78,-0.55 1.69,-0.49 2.69,-0.59 3.78,-0.41 4.86,-1.45 7.62,0.15zm-13.26 -4.06c-2.45,1.29 -5.14,0.99 -7.93,3.44 -0.41,0.36 -0.53,0.51 -0.93,0.87l-0.92 0.66c-0.37,0.99 -0.95,1.49 -2.15,2.09 -0.04,0.66 -0.34,1.28 -0.72,2.07 -0.36,0.75 -0.13,0.38 -0.56,0.9 -0.06,0.07 -0.24,0.25 -0.3,0.32l-0.49 0.53 1.35 0.08 3.14 -4.58c1.79,0.6 -0.54,0.6 1.16,0.96 1.67,-1.47 2.75,-2.72 4.82,-3.65 1.32,-0.59 4.85,-2.3 6.32,-1.98l-3.51 5.67c-0.78,1.02 -1.11,0.6 -1.52,1.43l5.37 0.06 4.35 5.91c1.36,0.05 5.22,0.62 6.12,0.15 0.16,-1.36 -0.53,-1.59 -1.34,-2.45 -0.45,-0.49 -0.55,-0.57 -1.05,-1.03 -0.83,-0.77 -0.6,-0.15 -0.9,-1.28 1.1,-1.7 2.21,-1.01 4.26,-0.85 2.91,0.22 2.28,0.01 4.62,1.04 1.59,0.71 7,3.15 7.75,2.79 -1.36,-1.04 -3.03,-0.74 -3.44,-2.71 0.99,-0.33 1.8,-0.3 3.01,-0.17 -0.07,-0.07 -0.25,-0.33 -0.27,-0.36 -0.01,-0.02 -0.05,-0.11 -0.05,-0.13 -0.01,-0.01 -0.01,-0.07 -0.01,-0.1 -1.67,-0.75 -0.92,-1.18 -2.78,-1.78 -2.37,-0.76 -3.56,-1.27 -5.4,-2.95 -1.31,-1.2 -1.23,-0.96 -2.46,-1.48 -2.39,-0.12 -3.37,-1.03 -5.19,-1.86 -1.58,-0.72 -3.64,-0.93 -5.06,-1.66 -2.22,-0.19 -3.46,-0.68 -5.31,0.05z"/>
   <path class="fil5" d="M68.54 201.08c0.32,0.23 0.38,0.24 0.71,0.59 0.71,0.74 0.33,0.09 0.46,0.67 1.39,0.55 1.8,1.26 2.37,2.3 0.66,0.24 1.38,1.13 1.84,1.59 0.41,0.41 1.24,1.1 1.45,1.49 1.44,0.39 1.21,0.26 1.81,1.4 3.08,1.66 6.92,5.66 10.99,5.26l8.6 -0.58c1.2,-0.82 1.91,-0.3 3.31,-0.66 1.74,-0.44 1.32,-0.46 2.68,-1.21 0.96,-0.53 1.84,-0.45 2.88,-0.97 1.21,-0.6 1.27,-0.99 2.98,-1.12 0.85,-0.76 3.45,-1.32 4.57,-2.07 1.05,-0.7 3.11,-2.75 4.11,-2.69 0.47,-0.74 0.85,-1.16 1.41,-1.64l1.75 -1.39c0.2,-0.58 0.95,-1.05 1.22,-1.64l0.08 -1.54c-2.15,-1.07 -2.45,3.55 -9.63,6.66 0.45,-1.06 1.53,-2.41 2.22,-3.46 1.84,-2.81 1.04,-2.59 1.68,-3.87 -0.69,-0.43 -0.33,0.3 -0.42,-0.82 -0.83,1.54 -0.03,0.31 -1.06,1.34 -2.15,2.12 -1.27,2.89 -6.91,7.96 -1.66,1.5 -2.49,2.42 -5.34,3.34 -2.26,0.72 -4.17,1.68 -6.69,1.84 -0.56,-0.95 0,-0.15 -0.21,-0.84l-0.39 -1c-2.04,0.26 -6.01,2.81 -8.09,2.23 -7.54,-2.12 -7.39,-4.23 -9.38,-6.68 -1.99,-2.44 -4.34,-3.69 -5.26,-5.46 -0.72,-1.38 -0.89,-2.63 -2.53,-2.39 -0.73,1.64 0.78,2.44 1.19,4.39 -0.84,-0.43 -0.57,-0.42 -1.27,-0.92 -1.04,-0.75 -0.77,-0.87 -1.14,-0.1z"/>
   <path class="fil6" d="M160.97 47.74l-0.19 -0.34c-1.51,-0.36 -1.63,-0.69 -2.37,-1.92 -0.7,-1.18 -1.25,-1.74 -1.41,-3.25l-0.9 -2.04c-0.57,-0.4 -0.79,-0.58 -1.44,-0.8 -1.03,-0.35 -0.94,0.02 -1.73,-0.64 -1.29,-1.08 0.06,-1.1 -2.28,-2.36l5.44 8.13c0.88,1.41 0.85,1.38 2.02,2.37l-1.95 0.81c0.19,1.83 5.16,5.46 4.91,8.3 -2.42,-0.11 -6.84,-7.68 -8.24,-8.22 -0.98,1.36 0.25,2.1 1.02,2.85 2.37,2.32 5.34,4.39 6.41,7.6l4.28 12.12c0.4,0.89 0.41,0.9 1.09,1.3 0.47,-0.89 0.29,-2.28 0.4,-3.53 1.71,0.59 1.1,3.66 2.58,4.27 0.57,-1.15 -0.85,-8.69 -1.04,-10.31 0.29,-0.09 0.58,-0.11 0.78,-0.18l1 -0.42c-0.95,-1.9 -1.8,0.35 -2.69,-3.09 -1.55,0.62 -0.32,0.64 -1.62,0.91 -1.3,-1.63 -1.89,-4.26 -2.53,-6.31 -1.32,-4.23 -2.52,-3.05 -3.6,-5.07l1.36 0.61c0.07,-0.08 0.15,-0.28 0.17,-0.22 0.25,0.66 0.1,-0.33 0.53,-0.59z"/>
   <path class="fil7" d="M144.15 166.06l0.57 0c-0.1,-2.35 0.08,-1.79 0.41,-3.59 0.12,-0.64 0.24,-3.05 0.14,-3.8 -0.22,0.23 -0.32,-0.09 -0.51,1.72 -0.1,0.92 -0.05,1.42 -0.08,2.32l-1.08 -0.81c0.36,-2.28 1.14,-1.09 -0.51,-3.69 -0.45,-0.72 -1.42,-2.72 -2.2,-3.12 -1.06,1.46 -1.76,5.7 -2.26,7.79 -0.7,2.89 -1.6,5.09 -2.44,7.72 -0.5,1.55 -3.71,4.32 -4.73,5.41 -1.3,1.38 -3.69,4.65 -3.77,6.57 1.66,0.1 4.36,-1.07 5.54,-1.84 3.38,-2.18 7.26,-14.75 7.69,-14.07 0.05,0.09 0.2,-0.05 0.28,-0.06l0.56 -0.08c2.04,-0.2 0.56,0.34 2.38,-1.92l-0.02 1.45z"/>
   <path class="fil8" d="M81.62 12.74c-0.89,0.33 -1.98,1.04 -3.26,0.98 -0.96,1.26 -2.18,1.01 -3.37,4.13 2.14,0.18 5.76,-1.11 7.34,-0.55 -0,1.01 -1.08,1.16 -2.1,1.66 -9.41,4.61 -4.22,-1.13 -15.85,3.89 -3.38,1.46 -2.16,2.74 -4.51,3.26 -0.28,-0.39 -0.53,0.53 -0.16,-0.69l-1.12 1.43c-0.99,1.36 -2.8,2.32 -3.22,4.96 0.83,-0.78 0.54,-0.93 1.85,-1.57 3.9,-1.92 2.24,-1.24 5.67,-4.75 1.36,-1.39 1.51,-2.17 4,-2.85 1.37,-0.38 4.03,-1.25 5.31,-0.77 -0.63,1.79 -6.51,0.29 -7.56,3.57l1.68 1.86c1.38,-0.73 3.53,-2.66 4.83,-3 -0.31,1.05 -0.34,0.5 -0.37,1.82 1.29,-0.01 1.38,-0.19 2.66,-0.48 1.53,-0.35 1.58,0.05 1.9,-1.11 -1.14,-0.81 -1.55,0.01 -2.78,0.08 0.13,-0.3 1.74,-2.55 2.21,-2.92 2.01,-0.2 2.15,0.64 4.1,0.93 0.9,-2.44 3.04,-3.11 5.27,-4.24 2.62,-1.33 6.07,-2.47 6.34,-2.63 0.52,-0.32 0.22,-0.11 0.57,-0.45 -0.08,-0.05 -0.22,-0.19 -0.27,-0.11l-0.81 -0.25c-0.72,-0.17 -0.23,0.24 -1.12,-0.23 0.67,-1.91 3.84,-2.97 5.06,-4.77 -1.52,-0.76 -8.72,5.43 -12.04,6.27 -1.5,0.38 -4.25,1.03 -5.2,-0.01 1.02,-0.52 2.17,-0.72 3.42,-0.96 2.98,-0.59 0.95,-0.44 1.53,-2.51z"/>
   <path class="fil4" d="M73.83 34.62c6.68,-0.14 4.54,-1.47 12.69,0.56 1.68,0.42 2.21,0.59 2.22,2.48l-5.11 -0.01c0.63,1.7 1.59,2.07 2.65,3.11 0.89,0.87 1.5,2.39 2.79,2.94l0.42 -0.92c0.32,-0.7 -0.2,-0.19 0.47,-0.88 1.8,0.89 0.31,1.77 4.31,2.79 2.22,0.56 3.58,1.53 5.29,1.9 -0.27,-1.28 -0.86,-1.26 -2.74,-2.98 -0.49,-0.45 -2.46,-2.28 -3.29,-2.57 -1.15,0.85 -0.99,1.86 -2.87,0.7 -0.05,-1.43 0.5,-1.37 1.83,-1.85 1.36,-0.49 1.61,-0.74 3.23,-0.79 -0.31,-0.99 -0.05,-0.61 -1.28,-1.15 -2.01,-0.89 -3.8,-1.28 -5.06,-2.67 0.05,-0.04 0.16,-0.12 0.19,-0.06l0.38 -0.09c1.2,-0.18 0.05,0.44 1.1,-0.14 -0.21,-1.86 -6.94,-2.43 -8.59,-2.64 -3.66,-0.46 -6.39,-1.27 -9.67,-1.98l1.03 4.25z"/>
   <path class="fil9" d="M94.36 189.2c-0.14,-1.19 -0.94,-1.69 -1.46,-3l2.4 1.34 4.62 -1.98c2.2,-1.17 3.24,-0.78 5.54,-0.83 1.02,-2 1.39,-0.97 2.05,-2.61 -4.5,0.05 -10.22,1.15 -14.77,1.62 -3.68,0.38 -8.78,-2.46 -13.99,-1.76 0.92,1.39 4.92,3.33 6.82,4.59 1.66,1.1 0.54,1.79 3.56,2 1.88,0.13 3.65,0.59 5.23,0.64z"/>
   <path class="fil4" d="M70.9 62.48c2.71,-2.95 2.85,-5.45 3.28,-6.66 2.86,0.3 6.22,5.72 6.85,6.16l0.3 -1.48c2.85,0.68 6.53,4.84 8.62,3.68 -0.78,-1.49 -1.68,-1.41 -3.3,-2.34 -1.67,-0.96 -6.8,-6.49 -8,-8.12 -2.26,0.01 -2.98,1.08 -4.28,1.01 -0.37,-1.6 0.88,-2.33 -0.09,-4.05 -1.34,-0.54 -1.13,-0.01 -1.89,1.19 -1.73,0.07 -3.78,-0.82 -5.37,-0.21 0.23,0.37 0.03,0.1 0.4,0.5l2.15 2.01c0.87,0.83 1.6,1.52 2.38,2.33 -1.27,1.62 -3.58,2.54 -4.27,4.42l3.21 1.55z"/>
   <path class="fil10" d="M77.45 172.29c1.12,-0.44 1.16,-1.35 1.58,-2.55 1.57,0.06 3.79,0.03 5.27,0.19 1.79,0.2 1.94,1.1 3.57,1.65 1.36,-0.46 1.86,-0.83 2.15,-2.24 -2.67,-2.05 -8.31,-4.18 -11.56,-5.47 -1.62,-0.64 -2.41,-1.79 -3.85,-1.54 0.07,2.62 1.08,8.9 2.84,9.96z"/>
   <path class="fil11" d="M100.37 4.89c1.29,1.88 2.84,0.14 3.3,2.38 -0.96,0.47 -1.8,-0.09 -2.86,-0.41 -2.88,-0.87 -2.57,0.03 -2.74,0.41 0.92,0.33 4.02,1.55 4.55,1.66 2.35,0.48 1.24,-1.7 4.43,-0.58 2.3,0.81 6.91,-0.11 8.76,0.43 1.1,0.32 1.36,1.09 2.37,0.28 -0.55,-1.22 -6.1,-3.81 -7.51,-4.62 -2.76,-1.59 -3.83,-0.56 -7.62,-0.15 -0.99,0.11 -1.91,0.05 -2.69,0.59z"/>
   <path class="fil12" d="M71.72 102.42c3.22,1.05 8.25,2.6 12.18,2.17 -0.33,-1.41 -2.4,-0.9 -3.8,-1.68 1.7,-2.43 8.49,0.94 9.94,-1.19 -1.06,-1.49 -7.94,-1.32 -9.47,-1.52 -2.01,-0.26 -3.28,-0.54 -5.3,-0.06 -2.26,0.53 -3.1,0.1 -3.54,2.29z"/>
   <path class="fil13" d="M75 17.85l-0.82 -0.11c-2.36,1.41 -5.7,1.63 -8.39,2.59 -2.23,0.8 -6.02,2.82 -6.08,5.09 -0.36,1.22 -0.12,0.31 0.16,0.69 2.35,-0.52 1.14,-1.81 4.51,-3.26 11.62,-5.02 6.44,0.71 15.85,-3.89 1.02,-0.5 2.1,-0.65 2.1,-1.66 -1.58,-0.56 -5.2,0.73 -7.34,0.55z"/>
   <path class="fil4" d="M99.18 21.57c-1.32,0.21 -4.77,-0.55 -6.43,-0.73 -2.19,-0.23 -4.02,0.98 -4.29,2.5 2.06,0.27 5.19,-0.14 7.47,-0.09 4.21,0.1 6.36,6.51 4.88,-2.96 -0.32,-2.04 0.12,-4.19 -2.21,-3.72 -0.44,1.08 0.55,3.25 0.58,5z"/>
   <path class="fil14" d="M47.5 141.32c2.47,-0.39 1.92,-1.28 2.42,4.05 1.57,-0.23 3.38,-0.84 4.96,-1.33 2,-0.63 3.32,-0.88 1.95,-2.89 -1.37,-0.06 -1.37,0.48 -2.6,0.81 -1.6,-1.97 -0.24,-1.48 -3.12,-2.85 -1.24,-0.59 -2.85,-1.74 -4.32,-1.68l0.72 3.89z"/>
   <path class="fil4" d="M108.14 24.89l-0.46 0.76c-0.28,0.49 0.19,-0.02 -0.43,0.75 -1.06,-0.17 -1.32,-0.64 -2.18,-0.05 2.15,2.18 8.06,-0.7 7.29,3.69 -1.24,-0.41 -0.61,-0.51 -1.82,-0.93 0.31,1.92 1.29,2.18 2.61,1.37 0.66,-0.41 0.96,-0.68 1.63,-1.08 0.69,-0.41 1.52,-0.66 2.02,-0.98 -1.29,-2.72 0.65,-5.64 -3.7,-5.38 0.61,5.6 -0.46,3.47 -4.96,1.84z"/>
   <path class="fil15" d="M100.12 167.07c0.75,-0.34 1.51,-1.15 1.81,-1.92 0.47,-1.4 0.17,-0.3 -0.05,-0.76 -3.26,0.19 -8.39,2.76 -10.59,4.35 0.07,1.52 0.45,1.67 1.36,2.31 1.2,-0.12 5.89,-3.1 7.47,-3.99z"/>
   <path class="fil16" d="M46.77 159.95c1.09,-0.42 0.8,-0.13 1.47,-2.84 0.28,-1.12 0.58,-2.18 0.86,-3.3 0.68,-2.69 -1.6,-5.15 -2.68,-5.31 -0.9,1.87 -1.46,9.82 0.34,11.45z"/>
   <path class="fil14" d="M134.25 107.18c2.1,0.36 2.11,-2.53 2.18,-4.57 0.12,-3.44 0.1,-4.04 -3.51,-3.58 0.05,1.68 0.57,7.06 1.34,8.15z"/>
   <path class="fil17" d="M106.51 128.53c0.42,1.15 6.96,3.4 8.39,3.18 0.05,-1.18 -1.78,-3.88 -2.59,-4.99 -1.14,-0.03 -5.01,1.16 -5.8,1.81z"/>
   <path class="fil18" d="M114.48 71.92c0.75,1.97 1.39,0.01 3.78,2.91 0.29,-0.04 2.83,-0.97 3.19,-1.13 -0.6,-0.88 -0.52,0.05 -1.7,-0.89l0.83 -0.67c0.93,-0.51 2.71,-0.94 3.57,-1.71 -1.39,-0.73 -8.41,0.62 -9.67,1.49z"/>
   <path class="fil4" d="M80.44 53.45c0.54,1.29 2.99,3.12 4.16,4.18 1.48,1.34 2.45,3.3 4.89,3.3 -0.21,-1.96 -2.44,-3.93 -3.82,-4.97 -0.91,-0.69 -1.29,-1.03 -2.27,-1.9 -0.8,-0.71 -1.54,-1.33 -2.96,-0.62z"/>
   <path class="fil14" d="M45.69 136.54c1.32,0.06 3.89,-1.33 4.58,-2.05 -0.38,-0.97 -1.36,-1.24 -2.16,-2.53 -0.92,-1.48 -0.75,-1.9 -2.9,-1.96l0.48 6.54z"/>
   <path class="fil7" d="M46.11 114.52c0.16,1.29 0.87,2.47 1.55,3.24 1.2,-0.27 2.16,-1.01 3.08,-1.66 2.18,-1.56 1.37,-0.5 3.04,-0.48 -0.01,-0.57 0.19,-1.78 -0.08,-2.41 -1.77,-0.6 -1.99,1.7 -3.71,1.67 -0.13,-0.46 -0.13,-1.46 -0.54,-2.04l-3.34 1.68z"/>
   <path class="fil19" d="M62.5 128.14c0.92,2.06 5.99,2.96 7.91,2.58 -0.1,-0.58 -2.01,-3.11 -2.59,-3.31 -1.02,-0.36 -4.42,0.44 -5.32,0.74z"/>
   <path class="fil4" d="M143.51 60.63c1.65,-1.18 1.68,-3.72 1.37,-5.43 -0.83,-4.7 -0.33,-5.03 -2.56,-4.72l1.19 10.16z"/>
   <path class="fil4" d="M79.62 23.38c0.53,0.9 -0.03,0.19 0.82,0.84 0.11,0.09 0.47,0.33 0.54,0.39 0.45,0.4 0.14,0.05 0.49,0.53 -0.86,1.1 -0.97,0.4 -1.83,1.49 1.19,0.66 5.28,-0.56 6.1,-1.49 -0.67,-0.65 -2.09,-1.15 -2.77,-1.65 -1.49,-1.09 -1.6,-0.85 -3.35,-0.12z"/>
   <path class="fil20" d="M76.52 157.42c0.74,-0.15 2.64,-1.96 3.09,-2.98l-0.03 -0.89c-1.11,-0.46 -2.23,-1.45 -3.25,-0.88 -0.9,0.9 -0.39,2.88 -0.65,4.74 0.65,0.32 -0.16,0.29 0.85,0z"/>
   <path class="fil4" d="M91.61 14.84c0.64,-0.02 2.98,-0.87 4.18,-1.14 2.08,-0.47 3.52,-0.21 3.11,-2.52 -1.14,-0 -5.16,1.2 -6.39,1.94 -0.84,0.5 -1.07,0.62 -0.91,1.72z"/>
   <path class="fil12" d="M73.58 119.15c2.1,-0.87 1.3,-2.05 0.48,-3.61 -0.84,-1.6 -1.17,-1.92 -3.35,-1.77 -0.03,1.14 1.13,2.33 1.94,4.07 0.53,1.14 -0.03,0.69 0.93,1.31z"/>
   <path class="fil8" d="M79.94 51.28l5.04 1.22c-0.34,-1.39 -3.61,-4.49 -5.96,-4.29 0.12,1.14 0.19,0.32 0.59,1.31 0.24,0.61 0.23,1.03 0.33,1.76z"/>
   <path class="fil21" d="M151.19 116.47c1.6,-0.45 1.44,-1.3 2.07,-2.74 0.56,-1.26 1.36,-2.18 0.46,-3.47 -1.02,0.51 -0.2,-0.58 -1.45,2.79 -0.43,1.16 -0.86,2.11 -1.09,3.42z"/>
   <path class="fil22" d="M156.78 107.3c-1.51,-2.06 -1.09,-2.25 -2.46,-2.33 0.12,1.28 1.16,2.29 1.83,3.25 1.52,2.19 1.21,2.18 2.39,2.46 0.01,-1.39 -0.98,-2.33 -1.75,-3.38z"/>
  </g>
 </g>
</svg>
