<?xml version="1.0" encoding="UTF-8"?>
<!DOCTYPE svg PUBLIC "-//W3C//DTD SVG 1.1//EN" "http://www.w3.org/Graphics/SVG/1.1/DTD/svg11.dtd">
<!-- Creator: CorelDRAW -->
<svg xmlns="http://www.w3.org/2000/svg" xml:space="preserve" width="30.4631mm" height="9.9523mm" version="1.1" style="shape-rendering:geometricPrecision; text-rendering:geometricPrecision; image-rendering:optimizeQuality; fill-rule:evenodd; clip-rule:evenodd"
viewBox="0 0 2555.49 834.88"
 xmlns:xlink="http://www.w3.org/1999/xlink"
 xmlns:xodm="http://www.corel.com/coreldraw/odm/2003">
 <defs>
  <style type="text/css">
   <![CDATA[
    .fil0 {fill:black}
    .fil1 {fill:red}
   ]]>
  </style>
 </defs>
 <g id="Camada_x0020_1">
  <metadata id="CorelCorpID_0Corel-Layer"/>
  <g id="_2049575582960">
   <path class="fil0" d="M807.9 23.01c2.82,-9.97 11.38,-21.43 -3.25,-21.43l-269.99 0c-15.31,0 -19.61,37.88 -23.4,50.4l-15.64 56.78c-20.31,-3.89 -29.83,-24.41 -84.1,-40.59 -63.71,-18.98 -140.55,-20.53 -205.87,-2.67 -64.37,17.61 -90.46,42.3 -120.52,82.92 -7.31,9.87 -12.05,19.37 -16.55,31.92 -28.82,80.51 19.02,126.06 20.44,140.08 -21.91,0 -35.22,2.1 -52.09,2.65 -22.34,0.74 -35.74,-3.93 -35.74,16.11 0,48.33 -6.72,89.01 11.53,127.15 17.15,35.83 48.68,63.12 88.54,82.48 8.1,3.94 7.72,4.54 16.54,7.81 67.77,25.08 170.7,34.26 241.73,10.76 27.68,-9.16 54.82,-19.92 76.85,-35.88 52.37,-37.93 0.76,-31.55 140.55,-31.55 17.62,0 7.38,43.59 16.27,75.02l214.69 0c17.42,21.43 10.15,26.21 45.06,64.69 6.52,7.19 10.15,11.09 17.42,17.86 57.68,53.65 88.18,68.6 165.21,99.66 25.56,10.3 63.63,18.09 93.41,22.19 84.43,11.62 79.55,7.21 153.78,4.58l98.95 -14.96c20.46,-4.25 41.7,-9.58 59.59,-15.23 70.47,-22.26 47.93,-30.64 86.68,18.56l30.67 38.95c6.69,8.6 10.97,18.07 20.14,23.61 11.39,-6.28 25.21,-29.03 32.56,-40.17 9.46,-14.37 18.68,-29.36 29.29,-42.86 22.48,-28.58 54.28,-166.12 65.93,-213.64 2.57,-10.47 1.27,-19.79 2.01,-33.3 1.33,-23.75 10.86,-7.6 50.52,-0.75 62.44,10.76 92.08,-3.32 115.61,-4.28l201.79 0.09c34.29,0.11 31.58,-4.89 48.77,2.47 73.19,31.36 123.73,12.78 169.12,10.89l175.68 0.02c17.97,0 81.32,3.72 81.32,-5.36 0,-15.15 -32.53,-74.27 -32.53,-99.14 0,-28.75 35.78,-116.03 35.78,-142.01 0,-48.07 7.42,-69.39 -22.23,-104.94 -19.36,-23.2 -56.52,-45.83 -89.51,-54.89 -17.58,-4.83 -41.47,-10.17 -60.62,-11.66 -24.08,-1.87 -47.87,-3.87 -74.87,-2.69 -11.31,0.49 -21.53,1.97 -35.01,3.3 -11.2,1.09 -23.35,4.49 -32.98,5.56 -13.42,1.48 -9.5,-3.42 -6.18,-16.06 4.71,-17.95 18.89,-65.11 18.89,-78.53 -47.66,-2.11 -181.53,-6.26 -217.93,-2.82 -77.71,7.33 -86.37,49.45 -97.59,107.32 -52.27,6.87 -75.9,8.05 -120.53,29.33 -6.86,3.27 -11.7,4.97 -18.74,8.67 -21.74,11.45 -23.56,15.67 -33.13,20.95 -6.52,-4.66 -11.77,-8.91 -18.72,-14.05 -29.83,-22.05 -78.41,-38.15 -119.82,-43.28 -11.79,-1.46 -50.41,-4.64 -61.66,-3.26 -66.59,8.14 -91.58,4.72 -161.06,36.32 -8.46,3.85 -15.1,6.43 -22.6,10.86 -8.56,5.07 -9.24,6.26 -19.5,10.73l-35.28 -24.53c-11.36,-7.42 -26.47,-13.47 -39.92,-18.02 -28.18,-9.51 -64.68,-16.4 -103.7,-16.4 -11.53,0 -54.93,2.32 -60.89,4.49 -2.39,-18.71 13.03,-73.18 18.6,-92.91 -15.07,-8.32 -15.33,-7.56 -39.02,-8.05 -42.82,-0.9 -159.79,-20.64 -221.34,-8.14 -32.38,6.59 -57.06,18.61 -71.43,18.87z"/>
   <path class="fil1" d="M2001.69 175.74c-88.13,0 -131.15,-1.13 -196,52.91 -33.7,28.09 -63.38,58.6 -77.29,97.1 -11.15,30.88 -25.59,64.37 5.93,97.02 36.02,37.31 128.78,21.92 178.55,-12.05 9.81,-6.69 13.57,-12.27 30.26,-12.58 0,17.17 -3.25,22.14 -3.25,37.51 28.99,5.56 66.99,2.68 97.59,2.68 17.37,0 21.18,-11.69 27.86,-36l39.54 -152.32c2.5,-11.27 2.11,-14.35 5.41,-25.02l33.95 -124.77c1.61,-5.23 5.69,-18.83 5.26,-25.02 -0.52,-7.61 4.65,-3.72 -6.9,-7.31 -11.58,-3.59 -68.88,-2.01 -85.59,-2.01 -26.79,0 -26.94,6.53 -35.82,48.19 -4.46,20.96 -9.13,45.54 -19.48,61.66z"/>
   <path class="fil1" d="M1325.1 341.87c0,22.95 -1.4,35.28 13.04,56.24 8.48,12.31 14.58,16.05 28.14,25.05 48.83,32.45 144.59,20.65 195.56,6.55 152.16,-42.09 253.19,-256.65 13.72,-256.65 -34.23,0 -71.8,5.76 -97.18,13.73 -37.88,11.9 -73.31,32.67 -98.99,57.79 -11.17,10.94 -15.88,14.13 -25.69,27.06 -11.54,15.19 -28.6,46.87 -28.6,70.22z"/>
   <path class="fil1" d="M925 339.18c0,36.4 -0.44,55.81 37.19,81.91 33.51,23.25 70.05,22.59 112.44,22.59 88.12,0 169.03,-42.84 211.32,-99.23 27.05,-36.08 43.81,-87.61 14.5,-126.98 -43.76,-58.78 -153.39,-49.36 -219.79,-31.4 -19.38,5.24 -21.11,7.85 -37.47,14.68 -52.02,21.72 -118.2,83.05 -118.2,138.43z"/>
   <path class="fil1" d="M228.91 218.61c0,-41.23 82.55,-58.73 132.14,-25.79 6.75,4.48 14.36,14.14 17.5,20.42 12.65,25.3 -10.54,21.44 78.06,21.44 28.47,0 2.77,-60.11 -30.01,-85.14 -36.78,-28.09 -85.42,-32.75 -135.89,-32.75 -151.46,0 -195.6,143.66 -88.51,198.84l62.46 28.93c56.57,23.11 78.09,26.89 78.09,66.96 0,52.63 -157.96,61.98 -173.93,1.26 -1.83,-6.95 -4.38,-24.81 -4.97,-30.73 -21.15,0 -81.32,-5.61 -81.32,10.71 0,34.16 9.76,68.53 40.38,89.99 70.63,49.51 219.12,48.31 276.67,-13.69 29.44,-31.72 43.16,-70.78 25.46,-111.92 -23.05,-53.6 -140.82,-79.23 -180.84,-108.27 -9.3,-6.75 -15.3,-16.81 -15.3,-30.27z"/>
   <path class="fil1" d="M2206.61 365.98c0,-35.69 72.97,-43.36 107.07,-45.79 11.62,-0.82 39.31,-8.88 39.31,5.6 0,30.37 -25.84,61.52 -59.93,71.2 -37.23,10.57 -86.45,6.06 -86.45,-31.01zm-48.79 -136.65c15.84,8.73 17.19,7.89 42.34,7.99 19.16,0.08 29.39,2.72 51.99,2.72 6.57,-8.08 12.07,-16.01 22.12,-21.97 35.05,-20.8 104.74,-7.76 104.74,19.29 0,36.13 -23.44,33.45 -61.22,37.99 -31.69,3.82 -66.93,3.83 -100.1,8.64 -159.89,23.23 -126.44,173.08 -1.32,173.08 79.17,0 89.72,-30.05 120.35,-32.15 6.01,21.27 3.78,21.71 16.48,23.93 30.12,5.28 45.75,1.49 58.7,1.22 15.44,-0.34 -1.8,4.86 28.9,-1.03l-3.25 -45.55c0,-27.8 10.17,-58.43 18.17,-81.5 4.5,-12.99 7.73,-27.1 10.84,-39.3 14.66,-57.53 17.88,-74.18 -31.42,-107.64 -26.47,-17.96 -75.47,-20.75 -114.68,-20.75 -41.65,0 -94.69,14.71 -119.58,30.12l-21.63 17.01c-13.18,10.92 -13.45,15.47 -21.43,27.9z"/>
   <path class="fil1" d="M707.07 223.97c48.25,3.31 37.51,11.09 25.2,58.28 -6.7,25.71 -14.45,52.04 -21.95,78.38l-33.22 117.33c-12.68,43.43 -13.26,35.39 91.77,35.39 25.75,0 21.8,-14.21 26.64,-31.64l63.03 -226.75c8.97,-38.7 -5.23,-23.85 99,-30.99 12.1,-42.77 25.04,-45.92 -29.27,-45.56 -20.23,0.13 -29.37,0.43 -45.54,-2.68 0,-95.03 119.18,-55.05 136.68,-56.46 18.38,-1.48 19.45,-35.84 19.45,-48.03 -29.36,-5.64 -87.11,-13.32 -118.1,-8.88 -66.72,9.56 -109.23,29.69 -141.7,78.9 -44.28,67.13 -11.19,21.84 -57.56,38.33 -10.97,3.9 -14.44,30.85 -14.44,44.38z"/>
   <path class="fil1" d="M1621.1 521.39c-26.6,-5.11 -194.59,-5.11 -221.19,0 4.19,6.56 -3.87,0.37 5.87,8.56 7.87,6.61 38.1,16.38 52.68,34.32 -18.8,29.26 -86.99,51.66 -124.05,63.94 -24.74,8.2 -51.25,13.95 -78.41,18.47 -72.42,12.06 -138.6,10.81 -207.39,-10.07l-53.71 -20.07c-20.8,-9.24 -37.29,-20.64 -53.94,-33.27 -32.75,-24.84 -39.29,-40.7 -58.24,-51.15 0.56,20.75 29.36,62.49 41.78,75.43 35.68,37.17 96.69,79.72 151.65,94.79 87.13,23.9 86.79,20.02 180.64,20.02 57.98,0 173.29,-27.1 219.9,-51.97 11.22,-5.98 47.16,-25.74 59.84,-25.74 17.51,0 18.9,44.12 39.03,56.26 10.84,-18.61 45.53,-154.91 45.53,-179.52z"/>
   <path class="fil1" d="M505.39 438.32c108.59,0 104.98,7.8 111.08,-23.72 2.19,-11.32 6.12,-21.15 9.76,-32.15l17.16 -66.25c5.16,-23.58 11.48,-42.15 17.49,-63.29l16.91 -66.46c0,-6.17 -2.26,-8.04 -9.76,-8.04 -134.62,0 -98.89,-12.63 -121.6,60.6l-46.7 167.86c-2.53,10.91 -11.02,31.44 5.65,31.44z"/>
   <path class="fil1" d="M586.71 130.19c127.99,0 103.73,6.68 113.1,-27.41 13.18,-47.94 34.27,-42.25 -80.57,-42.25 -30.85,0 -28.92,11.26 -39.6,50.75 -1.92,7.11 -7.4,18.91 7.08,18.91z"/>
  </g>
 </g>
</svg>
