<?xml version="1.0" encoding="UTF-8"?>
<!DOCTYPE svg PUBLIC "-//W3C//DTD SVG 1.1//EN" "http://www.w3.org/Graphics/SVG/1.1/DTD/svg11.dtd">
<!-- Creator: CorelDRAW -->
<svg xmlns="http://www.w3.org/2000/svg" xml:space="preserve" width="30.3071mm" height="8.7283mm" version="1.1" style="shape-rendering:geometricPrecision; text-rendering:geometricPrecision; image-rendering:optimizeQuality; fill-rule:evenodd; clip-rule:evenodd"
viewBox="0 0 243.42 70.1"
 xmlns:xlink="http://www.w3.org/1999/xlink"
 xmlns:xodm="http://www.corel.com/coreldraw/odm/2003">
 <defs>
  <style type="text/css">
   <![CDATA[
    .fil0 {fill:#FEFEFE}
    .fil1 {fill:black}
    .fil2 {fill:#28C3F9}
    .fil4 {fill:#F46932}
    .fil3 {fill:red}
   ]]>
  </style>
 </defs>
 <g id="Camada_x0020_1">
  <metadata id="CorelCorpID_0Corel-Layer"/>
  <g id="Figs_Frase_019">
   <path class="fil0" d="M173.81 0.37l-6.06 2.35c-0.61,0.24 -1.25,0.16 -1.79,-0.21 -0.27,-0.19 -0.53,-0.34 -0.84,-0.42 -0.27,-0.07 -0.48,-0.18 -0.7,-0.35 -1.43,-1.14 -5.23,-0.97 -6.84,-0.19 -6.74,3.28 -9.77,11.5 -11.84,18.19 -0.21,0.67 -0.71,1.14 -1.4,1.3 -0.08,0.02 -0.15,0.04 -0.22,0.06 -0.67,0.2 -1.35,0.05 -1.87,-0.43 -0.52,-0.48 -0.72,-1.14 -0.57,-1.83 0.78,-3.46 2.79,-7.43 0.96,-10.87 -0.66,-1.25 -1.7,-2.12 -3,-2.65 -0.2,-0.08 -0.36,-0.18 -0.53,-0.33 -0.33,-0.29 -0.69,-0.5 -1.11,-0.65 -1.57,-0.56 -4.66,-0.6 -6.2,0.1 -0.65,0.3 -1.36,0.22 -1.94,-0.2 -3.71,-2.72 -7.31,-3.43 -11.31,-0.79 -0.54,0.36 -1.16,0.42 -1.76,0.19l-1.56 -0.61c-0.04,-0.02 -0.08,-0.03 -0.12,-0.05 -2.69,-1.28 -9.88,-0.19 -12.73,0.59 -4.17,1.14 -8.51,1.89 -12.54,3.47 -0.91,0.36 -1.94,-0.02 -2.4,-0.89 -1.19,-2.24 -5.19,-6.15 -7.84,-3.69 -0.47,0.44 -1.08,0.61 -1.71,0.47 -1.56,-0.33 -3.24,-0.45 -4.27,0.97 -0.92,1.25 -1.16,2.95 -2.06,4.24 -0.32,0.47 -2.25,1.9 -2.77,2.36 -1.63,1.46 -3.14,3.12 -4.37,4.93 -0.78,1.14 -1.69,2.55 -2.88,3.3 -0.55,0.34 -0.89,0.54 -1.39,0.99 -0.22,0.2 -0.43,0.4 -0.62,0.63 -0.37,0.45 -0.87,0.69 -1.45,0.69l-6.81 0.09c-0.67,0.01 -1.25,-0.3 -1.62,-0.85 -2.53,-3.78 -6.98,-3.99 -10.76,-1.94 -0.67,0.36 -1.44,0.31 -2.05,-0.14 -0.94,-0.69 -2.03,-1.18 -3.14,-1.5 -0.63,-0.18 -1.09,-0.62 -1.29,-1.24 -0.25,-0.77 -0.67,-1.43 -1.27,-1.97 -1.78,-1.6 -4.64,-1.73 -6.87,-1.32 -2.95,0.54 -5.83,2.1 -7.78,4.4 -0.5,0.59 -1.25,0.82 -1.99,0.61 -2.27,-0.64 -4.74,-0.09 -6.66,1.25 -2.12,1.48 -3.35,3.51 -4.08,5.95 -0.14,0.48 -0.43,0.84 -0.85,1.1 -0.56,0.34 -1,0.73 -1.43,1.22 -2.09,2.42 -1.6,3 -0.75,5.64 1.21,3.76 3.04,3.99 6.76,3.87 0.63,-0.02 1.18,0.24 1.57,0.73l1.31 1.66c2.02,1.88 4.02,3.7 6.37,5.16 1.87,1.17 3.46,2.31 5.18,3.71 2.93,2.39 5.78,4.91 8.77,7.23 3.15,2.44 6.35,4.43 9.9,6.23 5.16,2.6 16.33,1.9 22.11,1.42 1.01,-0.09 1.91,0.63 2.06,1.63 0.44,2.94 2.97,3.11 5.47,3.08l15.78 -1.05c2.08,-0.23 9.34,-0.25 10.61,-1.02 0.55,-0.33 1.16,-0.38 1.75,-0.13 1.89,0.8 4.46,0.95 6.25,-0.17 0.58,-0.36 1.24,-0.4 1.86,-0.1 2.46,1.19 5.44,0.07 7.75,-0.98 0.76,-0.35 1.62,-0.18 2.19,0.43 1.63,1.72 3.81,2.99 6.19,3.28 1.64,0.2 3.53,-0.09 4.75,-1.28 0.2,-0.19 0.37,-0.4 0.52,-0.63 0.22,-0.34 0.5,-0.57 0.88,-0.73l4.49 -1.85c0.57,-0.24 1.17,-0.2 1.71,0.12 3.14,1.84 5.9,2.12 9.21,0.56 0.6,-0.28 1.24,-0.25 1.8,0.09 2.27,1.35 3.64,0.66 6.01,-0.3 0.17,-0.07 0.33,-0.11 0.51,-0.13 0.47,-0.05 0.91,-0.16 1.33,-0.37 0.77,-0.4 1.68,-0.24 2.27,0.39 2.07,2.2 5.36,4.03 8.44,3.07 0.53,-0.17 1.06,-0.11 1.54,0.17 3.57,2.08 9.07,1.53 9.82,-3.2 0.15,-0.98 1.01,-1.67 1.99,-1.62l5.54 0.27c0.69,0.03 1.26,0.39 1.59,1 0.56,1.03 1.39,2.02 2.35,2.71 3.22,2.31 5.27,1.67 8.97,1.34 1.36,-0.12 1.95,-0.41 3.17,-0.98 0.05,-0.02 0.1,-0.04 0.15,-0.06 1.97,-0.73 3.2,-0.19 4.89,-2.01 0.43,-0.46 1.01,-0.67 1.64,-0.6 0.63,0.07 1.14,0.41 1.45,0.97 1.51,2.68 4.17,4.64 7.12,5.47 2.16,0.61 5.07,0.7 6.89,-0.84 0.73,-0.62 1.17,-1.41 1.38,-2.34 0.22,-0.95 1.11,-1.58 2.08,-1.47 5.37,0.58 8.56,-2.36 12.85,-4.95 2.54,-1.54 4.9,-3.88 5.39,-6.93 0.33,-2.03 -0.27,-4.16 -1.81,-5.57 -1.62,-1.48 -3.76,-1.68 -5.8,-1.01 -0.73,0.24 -1.5,0.04 -2.02,-0.53 -0.52,-0.57 -0.66,-1.35 -0.35,-2.06 0.23,-0.54 0.48,-1.08 0.73,-1.62 1.46,-3.06 4.62,-7.96 2.99,-11.4 -0.36,-0.75 -0.21,-1.6 0.38,-2.19 2.67,-2.66 1.62,-5.95 -1.52,-7.66 -0.49,-0.27 -0.81,-0.68 -0.95,-1.22 -0.14,-0.54 -0.05,-1.06 0.26,-1.53 0.75,-1.13 1.41,-2.32 1.91,-3.58 1.53,-3.89 -0.1,-8.85 -4.08,-10.51 -0.24,-0.1 -0.43,-0.23 -0.62,-0.41 -0.47,-0.47 -1.09,-0.75 -1.75,-0.79 -1.59,-0.11 -2.73,-0.36 -4.25,-0.71 -0.68,-0.16 -1.25,-0.19 -1.95,-0.16 -3.78,0.15 -9.49,-0.08 -12.25,2.97 -0.65,0.72 -1.72,0.85 -2.52,0.29 -1.54,-1.06 -2.84,-1.19 -4.51,-1.92 -3.21,-1.41 -8.77,-0.57 -11.66,1.33 -0.78,0.51 -1.78,0.4 -2.43,-0.26 -0.86,-0.88 -1.83,-1.64 -3,-2.06 -0.88,-0.32 -1.83,-0.4 -2.6,-0.98 -2.57,-1.96 -8.57,-1.73 -11.72,-1.2z"/>
   <path class="fil1" d="M132.83 45.29c0.02,4.74 1.01,4.11 -2.95,3.88 -2.69,-0.16 -4.34,0.93 -2.18,-1.87 2.41,-3.13 2.84,-3.27 5.13,-2.02zm22.23 -18.95c0,1.22 2.74,-0.23 2.93,-0.29 1.71,-0.51 1.66,-0.22 2.07,-1.19 0.02,-0.04 0.04,-0.15 0.04,-0.13l-0.72 -6.31c-0.02,-1.41 -0.01,-1.08 -0.93,-1.64 -0.32,1.39 -3.39,7.99 -3.38,9.55zm-32.08 -0.83c0,-0.34 -0.6,-2.46 -0.69,-4.14 -0.09,-2.21 0.24,-2.94 -0.7,-3.68 -0.69,0.46 -2.7,6.14 -3.16,7.51 -0.16,0.48 -1.18,2.42 -0.22,2.49 0.35,0.02 4.77,-0.91 4.77,-2.18zm98.01 -8.08c-0,-1.21 0.26,-1.63 0.53,-2.61 0.79,-2.92 0.13,-3.33 2.4,-3.79 0.89,-0.18 1.32,-0.36 2.51,-0.28 -0.15,1.87 -4.39,5.37 -4.76,6.72l-0.68 -0.05zm-2.49 4.15c0.01,3.06 3.64,-2.1 4.41,-3.01 3.67,-4.41 12.36,-12.67 0.22,-9.51 -0.9,0.23 -1.58,0.12 -2.01,0.8 -0.48,0.76 -2.62,10.85 -2.62,11.72zm-19.78 2.74c-0.01,-4.13 1.92,-6.64 3.14,-8.89 0.94,-1.73 0.49,-2.26 0.91,-3.11 2.48,1.17 -0.41,13.08 -4.05,12.91l-0 -0.91zm-1.37 -0.09c0.01,2.42 -0.21,4.67 4.14,1.46 6.01,-4.46 6.5,-19.02 0.32,-15.3 -1.33,0.8 0.48,0.71 -2.31,5.48 -1.26,2.16 -2.16,4.99 -2.15,8.37zm-30.77 -18.02c-1.69,-0.12 -0.66,-1.41 -3.42,-1.6 3.75,2.57 1.96,3 1.84,7.63 -0.06,2.49 -0.61,10.1 0.04,12.06 0.04,0.02 2.93,1.05 2.98,1.06 1.43,0.04 0.66,-1.54 0.66,-2.63 0.15,-3.58 0.89,-6.5 0.88,-9.72 -0.55,0.23 -1.03,0.32 -1.59,0.57 -5.02,-3.7 1.44,-7.35 4.59,-8.71 4.16,-1.8 5.35,-1.53 11.3,-1.12 -1.54,-1.18 -7.34,-1.29 -9.77,-0.65l-3.83 1.36c-1.41,0.67 -2.79,1.81 -3.68,1.75zm10.18 10.84c0.38,-1.82 0.73,-3.16 1.12,-4.92 0.7,-3.16 0.86,-2.75 2.86,-3.09 7.72,-1.31 0.38,10.34 -2.35,13.38 -2.4,2.67 -2.42,3.12 -2.43,-0.1l0.8 -5.27zm-2.39 7.66c0.01,3.69 -0.53,4.49 3.81,0.43 3.49,-3.26 11.63,-13.63 7.33,-17.46 -2.28,-2.03 -7.39,-0.34 -7.92,0.05l-2.19 7.87c-0.46,1.87 -1.03,7.1 -1.03,9.11zm30.69 30.07c0.01,1.58 2.96,0.47 3.62,0.29 2.52,-0.69 1.57,-1.54 1.59,-5.39 0.01,-1.52 0.46,-3.04 -0.81,-3.13 -0.75,-0.05 -0.24,0.38 -1.14,1.82l-3.27 6.41zm-91.33 -0.79c0.01,1.78 2.86,-0.04 3.18,-0.24 -0.45,-1.95 -0.57,-4.28 -1.61,-5.11 -0.26,1.1 -1.58,4.61 -1.57,5.35zm39.58 -0.71c0,1.51 2.96,-0.11 2.96,-0.48 -0,-1.05 -0.62,-4.18 -0.93,-4.84 -0.83,0.17 -0.89,0.45 -1.3,2.24 -0.25,1.08 -0.73,2.11 -0.73,3.08zm-48.94 -9.94c1.1,-0.18 1.03,-0.39 2.5,-0.28 -0.08,0.98 -1.01,1.67 -1.81,2.15 -0.34,-0.67 -0.66,-0.87 -0.69,-1.87zm-3.42 -1.14c0.35,1.32 1.82,1.33 1.83,2.17 0.01,1.94 -3.24,8.02 3.44,1.62 0.51,-0.46 5.91,-5.08 2.92,-5.28 -2.77,-0.19 -5.81,0.39 -8.18,1.49zm-24.58 -29.77c4.69,-2.03 5.23,-1.37 6.07,3.91l-0.88 0.08c-0.81,-5.04 -0.94,-4.73 -4.81,-3.15l-0.38 -0.83zm-18.59 21.67c2.59,-0.38 14.59,1.11 16.05,2.41 3.4,3.03 2.37,3.63 3.08,5.8 0.44,1.33 1.13,1.85 0.96,3.19 -0.61,4.76 -0.8,4.98 -3.74,4.89l-7.27 0.88c-16.15,1.47 -22.8,3.75 -34.21,-7.08 -0.92,-0.87 -4.51,-4.28 -3.28,-4.94 0.36,-0.19 9.36,1.55 11.99,-1.76 0.46,-0.59 0.3,-1.01 0.95,-1.11 0.97,-0.15 0.38,0.35 1.25,1.02 2.63,2.04 6.8,-1.87 7.22,-2.13 1.77,-1.07 5.47,-0.95 6.99,-1.17zm20.19 6.99c-0,-0.62 1.16,-0.39 1.81,-0.34 2.09,0.16 3.82,-0.42 5.46,-0.3 0.35,1.49 0.67,3.23 -2.26,3.03 -4.47,-0.31 -5,0.22 -5.01,-2.39zm18.21 3.06c-1.18,-0.08 -1.5,-1.59 -1.05,-2.45 1.68,-3.22 17.4,-4.74 17.42,0.39 0.01,4.58 -11,10.98 -11.25,11.82 -0.82,2.81 1.46,7.88 -1.52,6.3 -2.03,-1.08 -1.63,-3.71 -2.36,-4.67 -1.28,-1.67 -1.38,-1.49 -0.01,-3.05 0.59,-0.67 0.34,-0.24 0.39,-1.39l1.1 -7.21c-0,-1.15 -2.27,0.3 -2.73,0.27zm12.56 16.09c-2.28,-0.16 0.53,-3.79 0.57,-3.93 0.31,-0.96 0.03,-1.32 0.77,-3.26 1.75,-4.59 2.6,-7.91 5.41,-12.83 0.48,-0.83 0.74,-1.98 2.06,-1.89 3.87,0.26 1.35,2.23 2.04,8.36 0.51,4.52 -0.54,6.89 2.79,7.89 -1.3,1.86 -2.66,-0.07 0.97,6.9 1.32,2.53 -2.68,0.39 -4.04,-1.51 -2.28,-3.18 -0.45,-4.41 -4.57,-2.65 -3.43,1.47 -1.01,1.27 -3.9,2.19 -0.83,0.27 -1.11,0.8 -2.08,0.73zm12.92 -13.44c-0.01,-3.46 3.17,-7.18 6.06,-8.73 3.45,-1.85 4,-1.04 5.84,-0.11 0.86,0.43 1.26,0.42 1.26,1.56 0,0.64 -0.76,3.22 -2.49,3.24 -0.14,-0.58 -0.24,-1.37 -0.46,-1.85 -2.56,0.42 -11.83,9.85 -5.17,9.25 2.19,-0.2 2.79,-0.08 4.97,0.07 8.24,0.56 -1.31,13.3 -7.68,8.54 -1.1,-0.82 -1.66,-3.58 -1.11,-3.77 1.32,-0.45 0.53,2.66 2.81,2.48 2.01,-0.16 6.57,-3.64 5.15,-4.64 -1.05,-0.74 -4.17,1.58 -7.41,-1.98 -0.93,-1.02 -1.76,-2.59 -1.77,-4.05zm12.97 -0.02c-0.02,-4.96 5.49,-10.31 10.2,-9.99 0.41,0.03 2.96,1.11 2.96,2.02 0,1.42 -0.66,3.59 -2.49,3.47 -0.32,-0.68 -0.14,-0.94 -0.46,-1.62 -1.72,0.03 -7.49,5.44 -7.48,8.36 0.01,2.49 10.46,-2.02 10.48,4.13 0.01,2.22 -6.11,8.99 -10.72,5.45 -1.42,-1.09 -2.03,-2.97 -0.42,-3.94 0.56,2.43 1.12,3.43 4.18,1.73 2.27,-1.26 2.62,-2.37 3.55,-3.71 -1.07,-0.32 -0.58,-0.54 -1.56,-0.32 -0.7,0.15 -0.85,0.38 -1.85,0.32 -4.25,-0.29 -6.38,-3.89 -6.39,-5.89zm12.77 11.11c-0,-0.51 0.39,-1.02 0.64,-1.35 1.02,-1.34 0.93,-2.1 1.48,-4.32l3.87 -9.71c2.74,-5.89 2.42,-5.23 5.54,-4.75 0.28,1.22 0.47,0.9 0.28,2.09 -0.62,3.98 -0.22,7.3 0.34,11.25 0.39,2.77 0.99,1.21 2.62,3.03 -2.14,0.35 -2.04,1.01 -0.37,4.45 1.16,2.38 1.38,1.81 1.07,3.1 -2.24,-0.2 -4.3,-2.44 -5.08,-4.38 -0.33,-0.84 -0.24,-1.67 -1.31,-1.74 -0.59,-0.04 -3.76,1.49 -4.18,1.89 -1.07,1.01 -0.32,0.66 -1.91,1.14 -1.13,0.34 -2.99,1.7 -2.99,-0.69zm33.75 -7.59c1.59,0.08 1.24,0.17 3.17,-4.39 0.51,-1.2 5.52,-10.64 6.79,-11.51 3.84,-2.64 7.5,0.49 7.51,1.29 0.01,2.83 -6.26,16.76 -5.35,24.86 0.31,2.71 0.57,1.57 -0.47,3.05 -1.13,-0.51 -2.46,-0.72 -3.21,-2.21 -2.24,-4.46 0.21,-11.2 0.2,-15.28 -1.19,0.27 -0.72,0.2 -2.41,3.09 -0.82,1.4 -1.72,5.41 -3.14,7.34 -1.74,2.36 -4.55,2.15 -6.41,0.29 -4.06,-4.05 -1.28,-7.14 -3.95,-8.4 -1.07,2.13 -2.09,8.88 -2.23,12.02 -0.23,5.25 -3.07,2.89 -3.92,1.73 -2.4,-3.33 0.37,-13.3 1.21,-16.58l3.36 -9.54c0.4,-0.92 0.87,-1.99 1.71,-2.4 0.22,-0.11 3.11,-0.69 3.34,-0.68 0.11,0.01 2.22,0.86 2.32,0.94 1.35,1.02 0.52,7.09 0.55,9.61 0.03,2.76 0.47,4.62 0.94,6.77zm-139.17 -22.69c1.13,0.5 2.29,2.06 2.74,3.24 -3.43,1.74 -3.6,-2.94 -7.45,-0.91 -1.69,0.89 -3.02,1.85 -4.62,1.89 -2.03,0.05 -3.26,-0.45 -5.12,-0.01 -5.37,1.27 -2.2,-2.23 -7.78,0.11 -2.29,0.96 -9.48,0.53 -11.05,0.1 0.03,-1.75 1.6,-1.62 -0.33,-2.6 -1.96,1.54 0.5,3.07 -3.23,2.81 -0.86,-1.85 -1.32,-2.09 -0.46,-3.21 0.9,-1.17 1.83,-0.67 3.44,-0.91 2.99,-1.28 4.84,-0.8 7.93,-1.04 8.65,-0.65 4.06,0.88 3.4,1.81 3.8,0.26 1.85,-2.54 9.09,-2.12 1.98,0.11 3.41,0.91 5.45,0.83 1.45,-0.06 3.06,-1.09 4.68,0.11 -0.77,0.55 -1.06,0.07 -1.67,0.8 0.59,0.44 1.03,0.3 1.86,0.36 0.98,-1.58 1.56,-0.64 1.97,-2.14 -1.09,-0.59 -0.99,-0.25 -1.55,-1.53 -1.41,-3.28 3.94,-5.37 5.56,-4.29 3.29,2.21 1.25,4.75 3.5,5.42 0.32,-0.65 0.22,-0.62 0.22,-1.58 1.65,0.11 4.37,0.46 5.89,0.38l11.89 -2.07c0.78,-0.41 0.83,-0.65 2,-0.6 0.47,0.74 0.51,1.01 0.73,1.53 2.02,-3.53 4.9,-9.13 8.8,-7.21 2.81,1.39 1.82,7.19 1.4,10.3 1.19,-0.47 3.3,-1.37 4.97,-1.02 0.4,0.08 3.46,1.66 3.82,2.16l1.24 1.82c1.85,3.13 -6.45,5.02 -7.93,5.17 -6.8,0.7 -3.96,0.4 -10.08,-0.69 -4.78,-0.85 -10.71,-1.86 -15.61,-1.49 -3.74,0.28 -1.24,-2.57 -5.63,1.24 -1.38,1.19 -2.56,2.68 -5.56,2.47 -1.16,-2.27 -1.22,-1.52 -0.83,-2.9 1.09,-3.78 2.2,-1.04 4.22,-1.87 -0.62,-0.89 -2.23,-1.76 -3,-2.67 -2.02,-2.4 -0.84,-4.71 -2.71,-4.99 -0.67,1.35 0.42,1.63 -0.68,2 0.08,0.93 0.07,0.49 0.46,1.3zm27.6 -2.65c1.44,2.5 6.36,2.98 8.75,2.42 0.42,-3.42 1.82,-9.93 -1.93,-10.05 -2.68,-0.09 -5.04,4.54 -6.82,7.64zm-47.62 0.47c-0,-0.88 2.16,-4.53 4.53,-4.92 -0.17,0.62 -0.57,0.94 -0.95,1.48 -2.07,2.89 -1.42,4.27 -2.44,4.2 -0.74,-0.05 -1.14,0.01 -1.14,-0.76zm203.93 35.89c-2.59,-0.18 -6.72,-3.84 -6.87,-5.83 -0.06,-0.81 0.04,-0.33 0.38,-1.13 0.62,-1.46 0.29,-2.41 0.69,-3.59 0.25,-0.75 0.63,-1.15 0.81,-2.04 0.47,-2.34 5.68,-14.61 6.95,-16.24 1.57,-2.02 5.12,-0.34 5.12,1.24 0.01,2.09 -10.25,20.73 -7.66,23.93 0.92,1.14 2.24,0.12 2.8,-0.23l5.88 -3.5c2.39,-1.33 2.2,-2.55 4.72,-2.42 0.42,3.83 -2.84,5.21 -5.02,6.91 -1.68,1.31 -5.08,3.08 -7.8,2.9zm-45.36 -29.82c0.55,-0.78 1.21,-1.19 2.19,-1.97 1.94,-1.56 5.12,-6.17 5.98,-6.34 0.32,0.67 0.5,1.67 0.78,2.47 0.96,2.75 3.51,4.29 3.87,5.35 -3.02,0.7 -3.29,-0.34 -6.75,4.9 -1.06,1.6 -3.65,7.1 -4.2,7.5 -0.75,-1.22 -0.02,-4.85 -0.02,-6.33 -0.02,-5.41 -1.23,-3.28 -1.84,-5.58zm15.09 23.28c-0.51,-0.89 1.38,-7.56 1.73,-9.01 0.7,-2.87 1.87,-5.56 2.83,-8.31 1.28,-3.7 -1.47,-3.65 0.81,-3.89 6.96,-0.73 7.62,-5.2 9.56,-6.84 1.83,5.3 0.82,4.1 -1.77,7.87 -3.54,5.16 -9.26,12.34 -12.1,18.63 -0.45,1.01 -0.22,1.13 -1.06,1.55zm22.57 -6.76c-1.02,-1.24 1.47,-10.81 1.8,-11.9 1.52,-4.14 0.58,-3.85 2.97,-4.78 2.76,-1.07 3.01,-1.2 0.57,3.56 -1.57,3.08 -4.29,9.85 -5.35,13.12zm-113.21 -24.87c1.33,0.06 4.75,-1.46 5.39,-1.08 0.59,0.34 0.23,0.62 0.07,1.19l-1.04 3.92c-0.19,1.04 0.2,2.49 -0.19,3.42 -0,0.01 -2.36,2.66 -0.51,4.82 3.87,4.53 10.11,-3.59 14.28,-3.31 0.17,0.01 5.54,4.69 8.42,0.58 0.9,0.3 2.04,1.33 3.12,1.87 6.28,3.14 8.89,-1.13 10.53,-1.4 3.43,5.33 5.74,2.2 11.9,-0.93 4,-1.88 3.05,-0.81 5.12,0.31 3.4,1.85 5.49,0.34 5.73,0.36 5.22,0.36 -0.36,4.83 -2.15,14.95 -0.17,0.97 -1.01,5.37 -1.2,5.74 -0.77,-0.1 -2.52,-0.83 -2.84,-1.91 -1.85,-6.23 1.19,-12.62 -1.62,-14.46 -2.07,-1.36 -5.08,-1.02 -6.14,0.79 -1.47,2.71 -4.72,9.36 -5.34,12 -2.13,-0.19 0.01,-0.69 -4.78,-1.01 -4.37,-0.29 -4.7,0.03 -3.19,-1.81 3.44,-4.21 2.75,-2.77 5.68,-2.57 1.16,0.08 1.97,-0.96 2.46,-1.69 3.28,-4.8 -0.72,-5.81 -1.53,-6.26 -2.26,-1.27 -3.29,-1.22 -5.59,-0.41 -3.67,1.29 -2.54,1.35 -4.46,2.5 -4.18,-2.49 -4.22,-3.59 -8.91,-2.23 -1.37,0.4 -5.48,3.2 -5.87,4.63 -1.07,-0.85 0.13,-1.04 -1.38,-2.59 -1.37,-1.4 -4.11,-1.61 -5.7,-0.64 -1.16,0.71 -0.76,1.31 -1.8,1.94 -0.7,-0.24 -0.78,-0.49 -1.52,-0.86 -3.44,-1.75 -7.05,-0.86 -9.86,-1.05 0.17,-2.09 0.69,1.14 1.38,-5.33 0.07,-0.63 0.29,-1.2 0.39,-1.86 0.47,-3.13 0.29,-3.98 1.15,-7.62zm113.99 8.02c0.01,2.24 0.49,2.07 -0.28,3.74 -1.31,2.83 -2.93,13.07 -2.96,16.06 -0.04,4.06 0.06,2.5 3.2,4.19 -0.33,0.69 0.4,0.66 -1.68,0.8 -2.1,0.15 -1.09,2.12 -0.75,4.04 0.59,3.34 -0.07,0.8 0.91,3.22 1.09,2.71 1.1,1.77 0.86,3.02 -1.95,0.27 -4.68,-1.36 -5.58,-2.55 -1.58,-2.09 -1.43,-4.6 -2.18,-5.94 -1.67,-0.2 -7.08,1.81 -8.46,2.79 -1.18,0.84 -0.53,1.08 -2.06,1.27 -1.97,0.25 -1.21,0.25 -2.89,0.96 -3.95,1.67 -2.08,-2.74 -0.7,-3.75 1.62,-1.19 1.51,-2.53 3.32,-5.72 0.33,-0.58 0.48,-1.11 0.77,-1.67l6.27 -9.64 7.52 -9.73c0.24,-0.15 0.48,-0.23 0.71,-0.35 -0.04,-1.47 -0.13,-0.77 -0.99,-2.97 -2.17,-5.51 -1.57,-16.54 2.25,-21.3 2.36,-2.95 11.26,-1.6 14.24,-1.39l-0 -0.46c-3.73,-0.26 -4.14,-0.94 -5.91,-0.87 -5.64,0.22 -9.46,-0.32 -11.91,4.34 -0.4,0.75 -0.44,1.65 -1.05,2.06 -1.22,-0.41 -2.22,-4.24 -5.93,-4.5l0 0.23c2.83,0.2 7.42,6.55 4.29,15.9 -4.52,13.49 -16.22,7.63 -18.21,1.22 -1.49,-4.79 0.79,-7.82 1.97,-11.28 0.81,-2.38 -1.42,-2.18 2.58,-4.95 2.79,-1.94 6.37,-1.34 8.24,-1.65 -0.96,-0.67 -2.97,-0.76 -4.07,-0.71 -5.12,0.23 -6.55,2.66 -8.66,3.93 -1.45,-1.07 -2.78,-4.27 -5.7,-4.71 5.15,4.84 6.69,6.84 2.66,14.17 -2.72,4.94 -10.85,14.84 -17.56,12.53 -0.95,-0.33 -1.69,-0.68 -1.85,-1.69 0.85,-0.35 0.81,0.09 1.51,-0.43 -0.23,-0.62 -0.75,-0.84 -1.1,-1.33 -0.31,-0.42 -0.59,-1.01 -0.88,-1.46 -1.68,-0.12 -2.32,0.17 -3.41,0.68 0.01,2.74 1.11,2.25 0.92,3.93 -3.32,-0.23 -3.11,-1.29 -5.24,-2.86 -4.6,0.76 -10.76,6.1 -12.27,5.3 -1.75,-1.29 -1.42,-2.41 -0.16,-3.8 0.97,-1.07 0.6,-0.65 0.4,-2.13 -0.62,-4.7 4.35,-15.13 6.85,-19.16 1.18,-1.9 2.62,-3.03 4.53,-4.02 1.29,-0.67 1.46,0.25 2.15,-0.66 -2.08,-0.14 -2.34,-0.68 -3.94,0.11 -8.03,3.91 -10.07,17.31 -11.91,19.96 -3.32,-0.23 -0.98,-0.98 -5.71,2.53 -1.06,0.79 -1.76,1.84 -3.15,1.87 -0.55,-2.36 0.72,-9.33 1.35,-11.48 1,-3.4 2.97,-8.3 -1.65,-9.31 1.62,2.79 2.29,0.04 0.7,6.26 -0.71,2.78 -2.1,10.54 -2.01,13.05 0.27,7.12 6.69,-0.16 9,-1.76 3.21,-2.22 2.98,2.83 0.38,4.72 -4.11,2.98 -5.56,5.29 -10.79,2.03 -2.84,-1.78 -2.36,-1.61 -4.04,-4.22 -1.61,-0.11 -1.55,-0.06 -2.5,0.51 0.01,3.31 1.85,3.11 0.6,3.79 -1.4,0.77 -2.98,-0.74 -3.5,-1.31 -1.27,-1.38 -1.09,-1.64 -2.92,-0.97 -4.91,1.81 -5.89,3 -9.26,4.66 -1.37,0.67 -2.79,-0.17 -2.79,-1.47 0,-1.69 1.5,-2.01 1.72,-2.85 0.27,-1.03 -1.81,0.14 1.53,-9.7 1.16,-3.05 4.27,-10.95 6.65,-13.09 2.57,-2.32 5.14,-2.91 7.35,-0.16 1.03,1.29 0.26,2.61 0.13,3.81 -0.14,1.3 -0.08,2.66 -0.22,3.84 -0.31,2.65 -0.83,8.57 0.7,10.94 2.82,0.19 2,1.06 2.52,-4.34 0.39,-3.98 1.46,-7.72 2.43,-11.47 0.69,-2.66 0.97,-2.66 4.24,-2.44 -0.54,-0.73 -0.62,-0.44 -1.67,-0.65 -5.87,-1.16 -4.99,4.68 -6.42,8.51 -0.63,-7.3 2.69,-6.89 -3.86,-10.29 -3.27,-1.69 -5.99,1.15 -7.76,2.21 -0.86,-0.38 -1.36,-0.86 -2.35,-1.07 0.74,1.36 2,1.27 1.68,3.3 -3.05,-0.21 -10.83,0.33 -13.64,2.02 0.44,1.67 1.51,1.64 0.68,4.16 -0.12,0.36 -0.48,0.63 -0.01,1.13 0.71,0.75 3.54,0.12 4.44,-0.09 1.08,-0.25 0.44,0.33 1.05,-0.47 -1.25,0.02 -2.48,0.1 -3.64,-0.25 -0.85,-3.66 -0.01,-3.28 2.82,-3.8 1.85,-0.34 3.93,-0.74 6.04,-0.6l-2.23 5.11c-0.49,0.63 -0.58,0.19 -1.17,1.03 0.41,0.18 0.7,0.19 0.65,0.92 -0.07,1.08 -1.87,1.15 -2.78,1.34 -7.27,1.71 -5.83,1.45 -6.35,5.03 -0.4,2.73 -0.66,10.18 -2.36,10.65 -4.86,1.33 -2.16,-11.16 -2.78,-11.82 -1.55,-0.85 -2.02,0.46 -3.77,-0.34 -0.86,-0.39 -3.51,-2.49 -0.42,-3.44 4.54,-1.4 4.79,-0.54 5.31,-3.64 1.11,-6.62 -2.04,-1.97 -5.03,-1.93 -2.07,0.03 -4.84,-2.35 -2.77,-3.66 1.4,-0.89 13.98,-4.27 16.76,-4.6 2.27,-0.27 4.26,-0.52 6.77,-0.35 -4.19,-1.99 -13.36,0.57 -18.36,2.06 -2.39,0.71 -8.25,1.47 -8.3,4.31 -2.55,-0.23 -2.25,-2.98 -2.9,-4.37 -0.69,-1.49 -2.03,-3.27 -3.8,-3.37 0.17,1.51 0.86,1.28 0.99,2.8 -1.19,-0.08 -5.88,-2.61 -6.83,-1.53 -0.55,0.62 1.31,1.04 1.6,1.85 -1.07,0.44 -1.98,-0.25 -2.73,0.72 1.1,1.71 2.67,0.45 3.65,1.84 -2.71,1.12 -3.57,-0.31 -5.29,0.57 1,0.36 1.44,1.36 1.44,3.33l-0.9 -0.06c-0.01,-2.01 -0.36,-2.58 -1.57,-2.55l-2.14 1.94c-0.12,0.1 -0.24,0.2 -0.36,0.3 2.09,1.5 -0.89,5.59 -2.56,8.75l-0.79 -0.48c0.7,-1.26 3.35,-5.92 3.28,-6.97 -0.02,-0.28 -0.26,-0.47 -0.5,-0.65l0.16 -0.26c-1.75,1.78 -2.84,4.28 -4.66,5.99 -0.76,0.71 -1.54,1.04 -2.26,1.68 -1.25,1.11 -0.26,1.64 -2.14,1.85 -2.3,0.25 -5.01,0.51 -7.59,0.32 -6.33,-0.45 -3.06,-0.72 -5.65,-3 -1.85,-1.64 -4,-1.46 -6.15,-0.33 -3.11,1.63 -1.93,1.99 -2.3,5.77l-2.43 -0.16c0.4,-1.48 1.36,-1.47 1.05,-3.39 -0.38,-2.35 -2.78,-3.38 -4.83,-3.75 -1.76,-0.31 -2.17,0.25 -3.61,0.19 0.27,-1.01 0.11,-0.31 0.8,-0.96 2.25,-2.17 -0.75,-4.85 -5.85,-3.06 -3.95,1.39 -4.74,3.02 -6.92,5.93 -1.2,-0.35 -3.35,-3.06 -6.97,-0.53 -1.94,1.35 -2.83,3.36 -3.33,5.75 -0.26,1.24 -1.32,0.68 -2.51,2.07 -1.35,1.57 -0.69,1.53 -0.22,3.01 0.61,1.9 0.55,1.84 2.98,1.99 1.45,0.09 3.18,-0.1 4.33,0.06 0.49,1.49 0.62,2.12 1.72,3.19 4.94,4.81 7.03,5.15 11.29,8.62 6.66,5.43 10.12,9.07 18.17,13.14 3.92,1.98 11.84,1.58 15.95,1.43 1.79,-0.06 8.43,-0.48 10.32,-1.03 1.4,-0.41 4.07,-4.94 6.54,-4.83 -2.36,2.08 -4.93,4.04 -6.35,6.84 -0.41,0.81 -1.14,2.14 -0.67,3.14 0.82,0.88 13.17,-0.57 15,-0.58l8.83 -0.57c2.66,-0.23 4.75,0.57 4.3,-2.06 -1.24,-7.12 -6.03,-8.26 -9.74,-11 -0,-1.46 -0.46,-4.37 -0.22,-5.45 0.35,-1.57 0.66,0.41 0.67,-2.01 0.04,-10.08 2.06,-7.32 3.64,-9.72 1.21,-1.84 0.29,-2.15 -0.26,-3.98 -0.24,-0.81 -0.13,-1.6 -0.42,-2.34 -0.67,-1.67 -1.55,-0.53 -0.71,-4.24 0.52,-2.28 -0.2,-6.76 -0.08,-7.34 0.8,0.27 1.01,0.67 1.76,1.1 3.78,2.12 4.19,-0.02 6.21,0.59 -0.04,2.21 -2.07,2.39 -5.05,3.01 -2.85,0.6 -2.07,3.2 -0.45,4.86 1.98,2.04 2.24,0.86 3.94,1.8 0.76,1.62 0.01,6.12 0.48,8.22 1.12,5.01 3.83,2.29 5.02,3.98 -2.96,0.04 -9.35,2.11 -7.09,6.39 0.72,1.36 1.8,1.24 3.02,1.97l-0.6 5.03c-0.43,1.56 -1.96,1.24 -1.05,3.56 0.61,1.54 0.64,0.43 1.29,2.92 1.42,5.41 7.08,5.1 7.41,3.71 0.09,-0.37 -0.25,-1.82 -0.34,-2.34 -0.13,-0.86 -0.1,-1.76 -0.11,-2.66 -0.02,-2.2 0.56,-2.13 2.11,-3.19 1.03,-0.7 2.03,-1.86 3.34,-1.88 -0.08,4.14 -4.55,7.88 -1.4,9.98 2.02,1.34 3.13,0.24 4.94,-0.32 2.72,-0.84 0.82,-0.91 4.22,-2.31 1.64,2.54 4.53,6.43 8.19,5.33 2.04,-0.62 0.88,-1.36 1.37,-2.4 0.8,-0.33 1.84,-0.02 2.77,-0.23 2.62,-0.58 4.61,-2.62 5.86,-2.82 0.98,0.72 0.94,1.07 2.28,1.75 4.73,2.41 6.28,-0.33 8.87,-0.76 2.71,1.99 2.37,1.91 5.34,0.7 1.64,-0.67 1.17,0.21 2.5,-1.19 2.9,-3.06 2.77,0.9 6.36,3.19 3.58,2.29 4.89,0.17 5.9,-0.27 1.29,2 5.08,3.39 6.86,1.57 0.93,-0.94 0.69,-2.59 0.8,-4.38 0.07,-1.25 0.47,-3.03 0.66,-4.28 1.6,0.39 0.75,2.86 5.69,3.8 4.07,0.77 5.09,-1.54 6.45,-2.13 0.6,2.49 0.76,4.86 2.78,6.3 2.48,1.78 4.17,1.11 7.14,0.84 1.86,-0.17 1.77,-0.76 3.3,-1.08 5.1,-1.07 1.82,-1.25 5.72,-2.79 4.17,-1.65 3.23,-1.16 4.57,1.91 2.15,4.95 8.46,5.91 10.05,4.64 2.22,-1.78 -2,-5.37 -1.25,-8.14 1.47,0.45 2.95,2.59 4.96,3.2 5.58,1.7 9.04,-1.73 13.08,-4.17 4.65,-2.82 5.57,-7.5 2.09,-8.66 -3.49,-1.16 -9.22,6.22 -11.5,5.52 -0.52,-2.71 4.94,-14.05 6.2,-17.06 1.04,-2.49 2.72,-4.38 0.36,-6.64 -0.8,-0.77 -2.24,-1.2 -2.85,-1.89 0.47,-0.87 2.89,-1.06 3.86,-1.56 3.5,-1.8 0.62,-4.35 -3.23,-5.11 -2.25,-0.44 -3.17,0.5 -1.21,-1.88 1.65,-2 3.41,-4.23 4.37,-6.67 1.2,-3.05 -0.47,-6.8 -3.64,-7.28 0.45,0.88 1.89,1.18 2.42,2.99 1.27,4.31 -5.23,10.26 -7.38,12.82 -3.96,4.7 7.51,-2.49 8.66,2.42 -0.88,1.26 -4.45,1.82 -6.07,2.38l-8.11 2.94c-0.86,0.24 -1.41,0.14 -1.5,1.11z"/>
   <path class="fil2" d="M181.19 50.3c-0.46,-2.15 -0.9,-4.01 -0.94,-6.77 -0.03,-2.52 0.8,-8.59 -0.55,-9.61 -0.1,-0.08 -2.21,-0.93 -2.32,-0.94 -0.23,-0.02 -3.11,0.57 -3.34,0.68 -1.42,0.7 -3.5,6.82 -4.02,8.77 -0.63,2.37 -0.5,1 -1.05,3.17 -0.84,3.27 -3.61,13.25 -1.21,16.57 0.84,1.16 3.69,3.53 3.91,-1.73 0.14,-3.14 1.16,-9.89 2.23,-12.02 2.67,1.27 -0.11,4.35 3.95,8.4 1.86,1.86 4.67,2.07 6.41,-0.29 1.65,-2.23 2.17,-6.36 4.57,-9.85 0.64,-0.77 -0.02,-0.36 0.98,-0.58 0.01,4.58 -3.65,15.06 2.11,17.14l0.91 0.35c1.04,-1.48 0.78,-0.34 0.47,-3.05 -0.49,-4.37 2.02,-14.42 3.75,-19.15 0.7,-1.89 1.61,-3.88 1.6,-5.72 -0,-0.78 -3.64,-3.95 -7.51,-1.29 -1.26,0.87 -6.26,10.26 -6.79,11.51 -1.85,4.38 -1.52,4.47 -3.17,4.39zm23.9 4.48l3.27 -6.41c0.9,-1.44 0.39,-1.87 1.14,-1.82 1.27,0.09 0.82,1.6 0.81,3.13 -0.02,3.84 0.93,4.7 -1.59,5.39 -0.66,0.18 -3.62,1.29 -3.62,-0.29zm13.91 -23.61c-1.1,0.66 -0.44,0.34 -1.82,0.13 -1.07,-0.16 -1.32,-0.04 -2.18,-0.41l0.03 1.03 -0.98 0.53 -10.9 14.96 -4.91 8.84c-0.72,1.68 -0.38,1.74 -1.8,2.78 -1.38,1.02 -3.25,5.43 0.7,3.75 1.69,-0.71 0.93,-0.71 2.89,-0.96 1.54,-0.2 0.88,-0.43 2.06,-1.27 1.38,-0.99 6.8,-2.99 8.46,-2.79 0.75,1.34 0.6,3.85 2.18,5.94 0.9,1.19 3.63,2.82 5.58,2.55 0.23,-1.26 0.23,-0.31 -0.87,-3.02 -0.98,-2.43 -0.32,0.11 -0.91,-3.22 -0.34,-1.93 -1.35,-3.9 0.75,-4.05 2.08,-0.15 1.35,-0.11 1.68,-0.8 -3.14,-1.69 -3.24,-0.13 -3.2,-4.19 0.03,-2.99 1.65,-13.23 2.96,-16.06 0.77,-1.67 0.29,-1.51 0.28,-3.74zm6.92 30.15c2.81,0.19 6.57,-1.78 8.28,-3.32 1.15,-1.07 4.99,-2.35 4.54,-6.49 -2.52,-0.13 -2.35,1.09 -4.72,2.42l-5.88 3.5c-8.16,4.95 2,-16.91 3.77,-20.48 0.34,-0.65 1.09,-2.35 1.09,-3.22 -0.01,-1.58 -3.55,-3.26 -5.12,-1.24 -1.27,1.63 -6.48,13.9 -6.95,16.24 -0.18,0.89 -0.56,1.29 -0.81,2.04 -0.4,1.19 -0.07,2.14 -0.69,3.59 -0.34,0.8 -0.44,0.33 -0.38,1.13 0.15,1.97 4.25,5.65 6.87,5.83z"/>
   <path class="fil3" d="M8.41 29.43c-0.12,-0.16 -0.32,-0.43 -0.51,-0.64 0.15,-0.55 -0.04,-0.23 0.26,-0.66 -1.62,0.24 -2.54,-0.26 -3.44,0.91 -0.86,1.12 -0.37,1.45 0.11,2.39 0.15,0.3 0.23,0.55 0.35,0.81 2.63,0.18 1.99,-0.2 2.51,-1.86l0.31 -0.61c0.03,-0.04 0.09,-0.09 0.13,-0.12l0.29 -0.22z"/>
   <path class="fil4" d="M40.39 27.6l1.63 0.02c-0.38,-0.81 -0.38,-0.37 -0.46,-1.3 1.09,-0.37 0.01,-0.65 0.68,-2 1.87,0.28 0.69,2.6 2.71,4.99 0.77,0.91 2.38,1.79 3,2.67 -2.03,0.83 -3.14,-1.9 -4.22,1.88 -0.17,0.61 -0.27,0.42 -0.2,0.94 0.05,0.36 0.82,1.56 1.03,1.96 3,0.2 4.18,-1.28 5.56,-2.47 0.6,-0.52 0.94,-0.79 1.53,-1.32 0.45,-0.41 0.97,-0.89 1.86,-0.49 1.3,0.59 0.05,0.73 2.25,0.56 4.9,-0.37 10.83,0.64 15.61,1.49 6.11,1.08 3.28,1.39 10.08,0.69 1.41,-0.15 3.15,-0.65 4.24,-1.15 0.02,-0.01 5.08,-1.28 3.69,-4.02l-1.24 -1.82c-0.35,-0.49 -3.42,-2.07 -3.82,-2.16 -0.85,-0.18 -3.5,0.26 -4.22,0.67 -2.74,1.55 -6.55,0.81 -9.33,-0.53 -0.55,-0.27 -0.61,-0.34 -1.29,-1.53 -0.03,-0.04 -0.06,-0.1 -0.08,-0.15 -0.48,-0.93 -0.37,-1.11 -0.97,-2.06 -1.17,-0.05 -1.22,0.18 -2,0.6l-9.54 1.63c-0.75,0.07 -1.63,0.4 -2.36,0.44 -1.52,0.08 -4.24,-0.27 -5.89,-0.38 0,0.96 0.1,0.93 -0.22,1.58 -2.25,-0.68 -0.21,-3.21 -3.49,-5.42 -1.15,-0.77 -1.94,-0.3 -3.99,0.63 -1.26,0.57 -2.32,1.91 -1.57,3.66 0.55,1.28 0.46,0.93 1.55,1.53 -0.18,0.66 -0.07,0.36 -0.49,0.88z"/>
  </g>
 </g>
</svg>
