<?xml version="1.0" encoding="UTF-8"?>
<!DOCTYPE svg PUBLIC "-//W3C//DTD SVG 1.1//EN" "http://www.w3.org/Graphics/SVG/1.1/DTD/svg11.dtd">
<!-- Creator: CorelDRAW -->
<svg xmlns="http://www.w3.org/2000/svg" xml:space="preserve" width="78.3467mm" height="18.3906mm" version="1.1" style="shape-rendering:geometricPrecision; text-rendering:geometricPrecision; image-rendering:optimizeQuality; fill-rule:evenodd; clip-rule:evenodd"
viewBox="0 0 454.14 106.6"
 xmlns:xlink="http://www.w3.org/1999/xlink"
 xmlns:xodm="http://www.corel.com/coreldraw/odm/2003">
 <defs>
  <style type="text/css">
   <![CDATA[
    .fil0 {fill:#111113}
    .fil2 {fill:#43CB39}
    .fil1 {fill:#F6F8F8}
   ]]>
  </style>
 </defs>
 <g id="Camada_x0020_1">
  <metadata id="CorelCorpID_0Corel-Layer"/>
  <g id="_2064620317472">
   <path class="fil0" d="M219.48 83.51c-1.61,0.47 -11.13,0.14 -13.89,0.13 -0.23,-4.4 0.47,-7.92 0.57,-12.19l-5.07 -0.04 -2.31 12.22 -14.02 -0.31c0.46,-5.51 2.44,-12 3.78,-17.06 1.49,-5.65 2.81,-10.83 4.13,-16.74l1.61 -8.81c0.58,-2.91 1.15,-5.79 1.79,-8.63 0.65,-2.86 1.27,-5.63 2.09,-8.35 0.75,-2.49 0.3,-3.07 1.44,-5.74 0.57,-1.33 0.32,-1.49 0.95,-2.47l19.68 -0.1c0.43,11.08 0,23.06 -0.01,34.24 -0,5.72 -0.44,11.04 -0.56,16.68 -0.12,5.71 -0.11,11.46 -0.18,17.18zm-65.7 -34.98c1.9,1.71 3.31,5.22 4.64,7.61l-5.85 0.66c-0.33,-2.13 0.26,-6.55 1.22,-8.28zm-81.08 12.15l-0.18 22.44c-2.17,0.89 -11.3,0.72 -14.02,0.42l0.37 -12.12c-1.38,-0.01 -4.41,-0.26 -4.96,0.72l-2.12 11.19c-5.04,0.51 -6.66,0.28 -11.88,0.19 -1.26,-0.02 -1.43,-0.06 -1.79,-0.5 -1.31,-2.39 6.25,-29.03 7.33,-33.78 1.3,-5.74 2.34,-11.46 3.58,-17.28 0.52,-2.45 3.53,-14.83 4.45,-16.43l19.58 -0.14 -0.36 45.29zm340.55 -16.02l39.47 -5.85c-0.65,4.11 -2.34,4.04 -7.46,4.71l-21.2 2.32c-3.58,0.19 -7.44,0.35 -10.9,1.06 -4.76,0.98 -3.99,1.99 -5.9,5.64 -1.38,2.64 -2.7,5.23 -4.02,7.88 -1.37,2.76 -6.89,13.41 -6.41,16.76 3.51,0.03 12.06,-13 14.24,-15.73l5.05 -6.3c3.58,-4.5 7.59,-8.86 11.43,-7.26 1.89,0.79 0.39,5.29 0.09,6.81 -0.77,3.87 -2.54,7.37 -5.97,9.31 -2.11,1.19 -3.51,1.29 -6.33,1.39 -1.16,1.73 -1.36,4.53 -1.35,6.91 4.62,-0.83 9.34,-5.88 12.65,-9.03l5.2 -5.8c1.52,-1.84 3.83,-4.96 6,-5.19 -0.19,2.52 -3.4,5.95 -4.8,7.24 -5.46,5.04 -3.58,5.89 -12.41,12.05 -2.24,1.56 -5.42,3.31 -9.05,3.08 -1.41,-4.16 -0.32,-5.56 0.37,-9.7 -4.5,3.29 -10.72,15.49 -17.68,14.85 -0.66,-9.95 4,-13.79 5,-19.84 -3.19,1.69 -6.02,6 -8.79,8.56 -1.64,1.52 -4.63,2.35 -4.94,-0.99 -0.16,-1.7 1.03,-5.08 1.41,-6.99 -5.14,2.4 -9.9,6.82 -13.92,10.81 -1.67,1.66 -2.21,3.21 -5.21,3.67 0.54,-4.56 4.6,-7.44 5.04,-10.52l-1.71 1.4c-2.44,1.8 -13.62,13.03 -16.33,7.87 -2.02,-3.85 4.22,-20.79 11.72,-25.61 2.28,-1.47 5.39,-1.66 5.68,1.8 0.41,4.99 -2.48,10.19 -5.91,13.19 -1.85,1.62 -4.25,1.99 -7.45,2.1 -0.86,2.53 -1.29,3.86 -1.18,7.02 3.22,-0.46 6.2,-3 8.04,-4.66 6.72,-6.05 6.52,-6.42 12.52,-13.41 1.47,-1.72 4.63,-5.52 8.21,-4.79 0.28,2.97 -2.43,5.85 -3.76,7.46 -1.9,2.3 -3.39,3.64 -4.99,6.4 1.11,-1.02 2.61,-1.85 3.97,-2.96 4.4,-3.58 9.09,-8.94 13.83,-8.33 -0.91,5.69 -4.72,8.51 -5.74,13.36 1.94,-0.84 6.57,-6.17 8.25,-7.76 1.98,-1.88 6.08,-5.42 6.59,-9.42l-4.72 0.08c0.84,-3.49 3,-1.54 5.89,-2.89 2.85,-1.33 6.48,-14.77 12.8,-13.18 0.56,7.9 -5.12,8.61 -5.3,12.48zm-307.84 2.32c1.88,2.44 6.84,1.37 5.58,13.6 -0.43,4.12 -1.6,13.48 -3.09,16.53 -0.94,1.93 -2.8,4.29 -4.88,4.94 -8.02,2.53 -18.65,1.7 -27.35,1.56 -0.41,-6 3.1,-25.04 3.87,-32.77 0.37,-3.7 0.72,-4.38 0.88,-5.69 0.09,-0.71 -0.01,-1.61 0.01,-2.36 0.08,-3.29 1.47,-9.25 1.8,-11.94 0.17,-1.4 0.22,-2.96 0.36,-4.38 0.25,-2.65 0.61,-5.65 1.07,-8.17 0.3,-1.61 0.26,-2.21 1.73,-2.74 3.89,-1.4 17.2,-0.28 21.21,0.81 3.09,0.84 3.97,1.67 5.21,4.04 2.73,5.24 2.44,9.5 1.18,15.61 -0.48,2.35 -1,5.32 -2.26,6.97 -1.31,1.71 -3.89,2.07 -5.32,3.99zm117.19 36.06l3.56 -29.8c0.3,-2.05 0.84,-3.75 1.01,-5.95 0.63,-8.15 2.26,-21.48 3.74,-29.54 0.59,-3.22 1.02,-2.38 4.49,-2.38 24.95,0.03 28.53,0.45 24.92,26.42 -1.03,7.38 -2.97,28.32 -5.59,34.64 -1.39,3.34 -3.5,4.82 -7.2,6.2 -3.5,1.29 -22.15,2.28 -24.93,0.41zm70.28 -35.46c0.03,6.45 -0.41,12.93 -0.48,19.37 -0.04,3.65 0.17,6.01 -0.06,9.58 -0.23,3.49 -1.78,4.84 -3.03,7.07l-10.74 0.04 0.4 -12.12c-5.55,-0.44 -5.2,-0.64 -6.26,5.92 -0.34,2.08 -0.63,4.34 -1.15,6.19l-13.68 -0.13c-0.38,-1.86 0.84,-7.1 1.36,-8.8 1.26,-4.14 1.86,-8.71 2.89,-12.63l0.97 -4.4c0.54,-2.57 2.13,-6.97 2.95,-9.88 0.23,-0.8 0.24,-1.48 0.31,-2.3 0.13,-1.68 0.44,-3.01 0.74,-4.65 1.32,-7.1 1.84,-8.43 3.58,-14.58 0.23,-0.83 0.14,-1.45 0.28,-2.43l2.29 -8.22 19.95 0.01 -0.33 31.97zm-138.85 11.93l12.52 -0.12c-0.02,2.08 -1.88,9.71 -0.72,12.17 1.03,2.18 3.03,1.68 3.96,-0.2 0.8,-1.63 1.13,-3.82 1.21,-5.9 0.28,-7.62 -3.78,-8.12 -9.21,-14.87 -0.6,-0.75 -1.12,-1.16 -1.8,-1.79 -4.79,-4.49 -3.82,-16.13 -1.7,-22.91 1.35,-4.32 1.48,-4.13 3.55,-6.59 0.74,-0.87 0.77,-1.26 1.68,-1.89 0.59,-0.4 0.42,-0.22 0.98,-0.51 2.82,-1.45 3.53,-2.71 9.82,-2.69 4.91,0.02 10.08,1.6 12.49,6 1.46,2.67 1.23,5.64 1.22,9.79 -0,1.38 -0.07,0.72 -0.38,1.96 -0.32,1.27 -0.56,2.96 -0.77,4.19l-12.58 -0.07c-0.05,-7.25 2.5,-10.25 -2.16,-10.25 -1.59,2.11 -2.02,2.05 -2.24,5.96 -0.16,2.86 0.53,4.71 1.87,6.41 6.13,7.82 13.29,8.15 12.99,20.99 -0.05,2.23 0.05,5.94 -0.43,7.92 -0.87,3.63 -0.19,3.49 -1.66,6.99 -1.64,3.88 -4.23,7.24 -7.75,8.94 -6.71,3.23 -19.87,2.91 -22,-8.41 -0.83,-4.37 -0.04,-11.24 1.11,-15.13zm-31.97 -43.93l13.44 -0.11c0.53,4.44 -1.69,15.46 -2.63,21.06 -0.36,2.13 -0.46,5.07 -0.73,7.27 -1,8.15 -3.78,21.06 -2.54,28.88 2.18,0.05 3.19,0.04 3.65,-4.83 0.25,-2.72 0.66,-9.63 1.4,-11.99l1.32 -10.57c0.32,-3.89 3.06,-27.78 4.09,-29.57l13.79 -0.13 -1.34 10.16c-0.76,3.25 -0.49,7.32 -1.09,10.53 -0.74,3.98 -0.32,0.15 -0.65,5.06 -0.12,1.81 -0.73,2.83 -0.88,4.77 -0.22,2.91 -0.59,7.79 -1.07,10.52 -1.38,7.75 -0.78,11.26 -4.29,18.63 -0.89,1.86 -0.58,2.15 -1.92,3.76 -0.97,1.16 -2.05,1.99 -3.23,2.73 -2.48,1.56 -4.96,2.71 -8.6,3.02 -4.48,0.37 -9.71,-1.28 -12.42,-4.46 -1.26,-1.47 -1.22,-2.4 -2.12,-3.83 -1.32,-2.08 -1.17,-6.71 -0.94,-9.85 0.16,-2.09 0.56,-6.97 1.13,-9.03 0.36,-1.29 0.16,-0.13 0.25,-1.15 0.19,-2.04 0.03,-3.14 0.5,-5.19 0.38,-1.64 0.69,-3.07 0.87,-4.87 0.35,-3.59 0.5,-7.14 0.89,-10.71l2.73 -17.55c0.04,-1.2 -0,-1.33 0.4,-2.55zm-91.97 52.53c-11.91,1.99 -10.24,5.75 -12.85,16.63 -0.86,3.57 -1.82,5.39 -4.91,5.51 -2.39,-7.53 1.78,-9.93 1.37,-16.35 -2.41,-0.22 -3.83,0.78 -6.09,0.01 -0.55,-0.97 -0.98,-2.82 -0.15,-3.94 0.33,-0.45 2.33,-1.57 2.9,-1.92 6.7,-4.1 5.09,-2.1 6.86,-12.41 0.41,-2.37 1.71,-6.12 1.4,-8.2 -2.32,0.24 -8.41,1.09 -6.04,-3.63 1.46,-2.9 6.31,-2.67 7.94,-6.38 2.26,-5.15 1.93,-18.53 6.35,-22.3 2.41,-2.06 4.81,-0.52 5.85,1.85 2.32,5.28 -2.35,13.71 -1.78,15.77 0.92,0.22 5.47,-2.2 6.29,-3.09 2.16,-2.34 1.37,-10.54 4.04,-15.89 0.96,-1.93 3.37,-4.97 6.33,-3.03 3.74,2.45 1.23,11.87 0.09,16.23 -1.4,5.34 -2.67,10.54 -4.24,15.73 -0.68,2.25 -1.79,5.39 -2.17,7.65 -1.95,11.6 0.16,4.43 -3.89,16.1l-4.35 15.61c-0.44,2.12 -0.28,2.36 -1.67,3.45 -4.99,3.9 -3.33,-6.04 -2.73,-8.64 0.71,-3.07 1.23,-5.33 1.49,-8.74zm280.47 13.33l20.44 -22.3c0.66,-0.88 1.26,-1.4 2.03,-2.15l30.28 -32.89c1.96,-1.84 2.56,-3.22 3.55,-4.19 0.83,-0.81 1.14,-0.87 1.96,-1.92 0.7,-0.9 0.95,-1.44 1.77,-2.39 1.12,-1.31 5.89,-8.53 8.55,-5.37 2.48,2.94 -1.97,8.02 -3.92,10.85 -10.46,15.13 -22.01,32.04 -30.34,48.64 -0.88,1.75 -1.55,3.61 -2.39,5.34 -0.49,1 -0.96,1.32 -1.58,2.32 -0.78,1.29 -0.76,1.62 -2.2,2.16 0.55,-5.45 7.77,-18.97 10.21,-23.9 1.87,-3.76 3.83,-7.42 5.83,-11.16 2.04,-3.81 4.37,-6.96 6.17,-11.12 -2.26,0.97 -5.26,4.35 -6.64,6.44 -0.97,1.48 -2.13,1.86 -3.39,3.18 -1.19,1.25 -1.31,1.87 -3.32,3.53 -2.77,2.28 -6.87,7.41 -9.59,10.07 -1.21,1.18 -2.18,2.29 -3.37,3.5l-16.27 16.79c-2.76,3.17 -6.98,8.93 -11.01,9.29 0.56,-8.22 8.02,-30.74 6.51,-34.16 0,0.01 -23.37,41.56 -26.89,44.18 -0.11,-4.3 7.62,-16.09 9.72,-20.07l10.63 -19.16c2.21,-3.95 8.93,-16.08 10.07,-19.72 1.25,-4.01 1.51,-8.45 2.15,-12.76 0.58,-3.84 1.25,-8.96 6.05,-9.16 -0.11,3.64 -1.55,6.77 -1.48,9.75 1.78,-2.42 1.24,-1.2 3.27,-4.69 2.59,-4.47 7.84,-18.53 10.59,-13.61 1.97,3.51 -2.53,9.78 -3.91,12.21 -14.26,25.16 -12.58,14.08 -20.36,48.46 -0.94,4.16 -2.95,9.94 -3.13,14.04zm143.59 -29.88l0 -2.67c-2.49,1.09 -4.3,2.06 -7.55,2.42 -9.01,1.01 -0.4,2.81 -8.44,12.47 -1.71,2.06 -3.17,3.59 -4.86,5.55 -4.67,5.39 -10.22,11.4 -17.77,13.22 -3.83,0.92 -5.78,-0.38 -7.76,-2.17 -3.65,1.6 -5.25,5.87 -10.34,7.62 -8.33,2.85 -6.45,-7.84 -7.94,-9.42 -1.24,-0.78 -3.39,-0.72 -4.97,-1.3 -1.62,-0.6 -2.17,-2.1 -3.01,-3.46 -4.63,1.31 -6.48,6.82 -11.05,8.66 -2.51,1.01 -2.96,0.36 -4.75,-0.7 -3.48,-2.06 -11.6,4.44 -14.46,-2.22 -0.71,-1.65 -0.62,-4.02 -1.39,-5.54l-0.3 0.34c-3.07,3.84 -6.75,17.11 -13.23,12.68 -5.9,-4.04 1.29,-16.13 2.57,-20.98 -2.17,0.68 -7.71,7.25 -9.55,9.28l-9.12 9.65c-2.44,2.77 -6.21,7.08 -9.83,8.95 -2.52,1.3 -5.49,0.73 -6.63,-1.16 -1.36,-2.26 -0.98,-5.64 -1,-8.57 -3.91,2.07 -11.92,26.65 -18.64,18.97 -1,-1.14 -1.56,-3.02 -1.64,-4.93 -0.11,-2.45 0.61,-4.34 0.54,-6.19 -9.52,-2.36 -17.25,1.34 -26.01,-0.81 -5.64,-1.38 0.37,-3.07 -10.83,-0.43 -7.19,1.7 -36.29,1.84 -41.59,0.37 -2.55,-0.7 -3.66,-0.26 -6.08,0.22 -4.18,0.83 -9.21,0.71 -13.45,0.24 -3.37,-0.37 -2.84,-1.49 -4.78,-2.72 -6.92,1.66 -10,5.26 -18.92,3.46 -5.45,-1.1 -8.91,-4.38 -11.42,-8.84l-1.25 -1.74c-1.01,1 -2.28,2.72 -3.27,3.9 -1.1,1.3 -2.1,2.41 -3.75,3.42 -6.58,4.01 -15.58,4.93 -22.59,1.16 -2.64,-1.42 -4.03,-2.84 -5.48,-5.23l-1.08 -1.93c-0.04,-0.05 -0.11,-0.12 -0.15,-0.16 -0.04,-0.04 -0.13,-0.12 -0.16,-0.15 -0.03,-0.03 -0.11,-0.1 -0.17,-0.15 -2.85,3.09 -3.14,5.19 -7.53,7.15 -3.73,1.66 -8.17,1.78 -12.74,1.9 -6.28,0.16 -30.01,1.37 -35.08,-1.03 -2.91,-1.38 -2.03,-0.17 -5.15,0.69 -2.76,0.76 -10.6,0.12 -13.85,-0.21 -3.31,-0.34 -2.84,0.7 -4.87,2.06 -1.86,1.25 -3.45,1.57 -5.71,0.53 -4.74,-2.19 -2.66,-7.14 -3.89,-11.07 -0.76,1.08 -0.75,2.83 -1.05,4.34 -1.76,8.9 -9.43,15.25 -13.31,9.48 -1.62,-2.41 -1.8,-5.48 -1.48,-8.73 0.67,-6.93 0.66,-3.92 -2.75,-7.3 -1.79,-1.77 -2.55,-5.03 -2.28,-8.48 0.6,-7.48 8.16,-6.16 9.84,-11.61 1.86,-6.02 -1.76,-4.95 -3.05,-7.07 -1.38,-2.26 -1.61,-6.58 -0.79,-9.3 2.24,-7.47 7.44,-3.5 9.25,-12.19 1.53,-7.33 1.19,-20.57 10.99,-21.25 3.74,-0.26 5.29,2.03 7.45,3.35 1.52,-1.15 2.34,-3.98 3.72,-5.24 1.15,-1.05 4.11,-2.62 6.4,-2.52 1.87,0.09 4.91,1.91 5.76,3.19 1.65,2.48 2.04,1.89 7.37,1.85 3.35,-0.03 14.46,-0.94 16.55,1.34 3.08,3.37 0.86,11.27 2.01,16.18 1.42,-3.48 1.15,-9.65 2.28,-13.65 1.42,-5.05 6.92,-3.93 12.54,-3.87 7.12,0.07 14.87,-0.75 20.15,4.29 1.02,0.97 2.89,3.65 4.45,3.72 0.73,-10.6 7.03,-8.16 18.9,-7.71 4.08,0.15 16.3,-1.24 19.33,0.66 1.13,0.71 2.03,2.84 3.03,3.87 1.36,-0.55 3.07,-1.83 4.53,-2.67 5.79,-3.33 11.04,-3.86 17.8,-2.14 3.95,1 6.99,3.09 8.84,5.48 1.06,1.37 1.69,3.05 1.98,5.14 0.27,1.9 -0.13,4 0.45,5.84 0.22,0.71 -0.14,-0.31 0.17,0.42 0.02,0.05 0.08,0.15 0.1,0.19 0.02,0.04 0.06,0.13 0.1,0.19 1.46,-1.71 2.31,-10.07 3.51,-13.17 2.02,-5.23 6.6,-4.13 12.88,-4.11 4,0.01 13.16,-0.79 14.9,2.1 2.11,3.51 -0.81,12.32 1.4,15.49 1.9,-1.74 -0.05,-11.71 2.66,-15.31 2.43,-3.24 10.9,-2.42 15.62,-2.23 22.41,0.92 18.18,6.14 22.64,13.1 2.53,-1.54 2.36,-7.09 2.7,-10.45 3.32,-1.88 4.39,-2.09 8.35,-2.37 5.24,-0.37 10.83,-0.3 16.1,-0.08 1.62,0.07 2.6,0.65 3.5,1.88 1.47,2 1.1,6.51 1.06,9.5 -0.09,7.13 0.14,14.3 0.05,21.46 -0.04,3.01 -0.72,19.33 -0.21,20.53 1.38,-0.31 1.68,-2.5 2.29,-3.69 4.59,-8.92 12.28,-18.81 14.06,-28.56 1.28,-7.03 0.7,-15.55 5.31,-19.1 3.58,-2.76 6.82,-0.81 8.62,-3.61 1.62,-2.52 2.77,-5.72 5,-7.21 6.93,-4.62 11.28,4.66 9.91,11.71 -1.97,10.13 -19.3,24.57 -22.96,50.07 1.95,-1.23 4.03,-3.48 5.57,-5.2 0.88,-0.98 1.74,-1.72 2.64,-2.71 0.95,-1.05 1.7,-1.98 2.69,-2.99 5.45,-5.58 15.73,-17.12 21.16,-23.24l21.1 -23.28c0.8,-0.68 2.22,-1.61 3.63,-1.76 5.1,-0.53 7.67,4.48 7.43,9.55 -0.49,9.97 -13.81,20.79 -15.7,28.52 7.09,1.42 4.65,1.31 8.56,6.33 1.38,-0.4 3.48,-2.71 4.77,-3.57 1.75,-1.18 4.71,-1.91 5.97,0.27 -7.36,0.26 -6.44,1.77 -10.9,5.26 -0.15,0.12 -0.59,0.42 -0.72,0.46 -0.69,0.22 -0.3,0.2 -0.79,-0.02 -0.45,-2.56 -0.4,-5 -2.08,-6.37 -1.95,-1.59 -5.22,-0.39 -7.7,-0.1 1.24,-3.6 6.73,-10.82 8.97,-14.18 2.92,-4.37 7.22,-9.53 7.98,-14.95 1,-7.06 -3.96,-14.59 -9.73,-7.65 -0.89,1.06 -1.69,1.95 -2.57,3.07l-8.29 9.02c-7.06,8.13 -14.88,15.78 -21.94,23.94l-8.06 8.93c-1.21,0.98 -1.98,1.78 -3.02,2.93 -1.84,2.01 -3.66,4.41 -5.52,6.11 -2.21,2.03 -3.33,4.76 -5.84,5.93 0.71,-5.65 3.72,-18.35 5.85,-22.63 3.33,-6.72 7,-12.08 10.66,-17.93 2.88,-4.6 9.06,-13.4 7.24,-20.86 -0.97,-3.95 -4.45,-6.32 -8.16,-3.31 -1.56,1.27 -1.79,2.29 -2.8,4.35 -0.57,1.15 -1.76,3.84 -2.79,4.43 -3.34,0.89 -8.98,-3.06 -11.14,10.82 -1.11,7.17 -1.24,12.14 -4.14,17.94 -3.87,7.73 -10.6,18.26 -13.64,25.08 -0.72,1.61 -0.98,2.18 -2.58,2.92 -0.42,-3.73 0.14,-9.86 0.2,-13.92l0.05 -28.9c0,-16.6 1.36,-14.3 -14.64,-14.32 -13.17,-0.02 -11.24,0.49 -14.41,14.51 -0.46,2.02 -0.87,3.85 -1.27,5.89 -0.38,1.97 -0.32,4.13 -1.83,5.45 -0.96,-6.51 2.79,-15.6 -2.92,-21.49 -4.26,-4.38 -13.92,-4.26 -21.59,-4.28 -13.4,-0.04 -11.37,0.24 -13.05,12.79 -0.75,5.6 -1.82,11.86 -1.84,17.54 -0.01,3.39 -0.55,2.88 -1.04,5.18 -0.81,-3.61 -0.24,-27.91 -0.49,-34.14 -4.27,-2.61 -11.85,-1.45 -17.54,-1.43 -9.7,0.04 -8.05,1.06 -10,9.67l-7.66 31.85c-2.11,-6.22 -4.2,-6.81 -5.83,-10.55 7.61,-1.89 8.8,0.82 8.92,-11.31 0.07,-7.12 0.12,-12.52 -4,-16.59 -4.89,-4.84 -17.67,-5.09 -23.77,-1.01 -1.86,1.24 -4.21,3.28 -6.24,4.21 -0.92,-9.1 -6.56,-6.31 -16.08,-5.96 -3.08,0.11 -4.81,-0.02 -7.78,-0.25 -11.39,-0.89 -14.17,-0.78 -15.37,7.18 -0.14,0.94 -0.31,2.58 -0.32,3.51 -0.04,2.86 0.9,2.22 -0.39,3.21 -2.21,-3.02 -0.41,-9.84 -9.75,-12.86 -5.31,-1.72 -15.56,-1.41 -21.54,-1.07 -4.6,0.25 -4.84,1.64 -5.37,5.93l-2.25 20.44c-0.34,3.09 -0.15,7.26 -1.25,9.97 -0.7,-0.9 -0.63,-2.73 -0.71,-3.88 -0.56,-7.92 0.57,-26.78 -0.77,-31.7 -4.35,-1.5 -16.89,-0.78 -22.44,-0.78 -0.78,-0.15 -1.33,-1.19 -1.9,-1.98 -1.87,-2.61 -4.71,-3.92 -8.06,-2.62 -1.82,0.71 -3.12,2.24 -4.1,3.64 -1.58,2.25 -1.6,5.39 -2.17,6.06 -0.64,-1.12 -1.21,-1.8 -1.9,-3.07 -0.62,-1.14 -1.41,-1.65 -2.88,-2.19 -2.95,-1.1 -6.07,-0.29 -7.92,1.32 -5.84,5.08 -2.97,18.13 -6.93,23.47 -3.22,4.36 -8.71,0.51 -7.96,12.32 0.27,4.18 2.02,3.84 4.51,5.95 0.39,3.05 -0.4,6.56 -1.79,8.38 -2.87,3.75 -9.88,1.08 -8.02,12.74 0.55,3.44 2.51,4.13 4.98,5.4 0.23,3.96 -1.26,8.5 0.16,12.4 1.43,3.95 5.4,3.95 8.07,1.16 4.08,-4.26 3.32,-16.99 7.9,-18.36 0.15,0.28 0.13,0.09 0.21,0.66 0.26,1.78 -0.28,4.22 -0.44,5.96 -0.83,9.14 4.35,11.58 8.36,8.09 0.88,-0.77 0.87,-1.34 1.71,-2.07 4.19,0.62 7.15,0.81 11.62,0.78 5.21,-0.03 7.01,0.24 8.59,-3.92 0.74,0.7 0.96,2.8 1.84,3.28 9.99,1.54 22.71,0.55 33.08,0.44 14.49,-0.15 17.69,-0.34 21.93,-12.41 1.48,1.18 1.73,4.12 2.55,5.74 0.92,1.82 2.46,3.3 3.89,4.43 8.01,6.35 23.97,3.99 29.88,-8.44l1.35 -2.89c1.59,7.46 4.23,12.27 11.33,14.09 9.52,2.44 13.24,-0.89 20.26,-4.16 1.43,1.38 1.02,3.15 3.54,3.62 2.03,0.38 4.71,0.25 6.9,0.21 12.21,-0.23 7.57,-0.8 10.5,-3.72 2.82,3.86 0.16,3.84 10.66,3.77 4.97,-0.03 9.96,-0.24 14.9,-0.24 4.93,-0 9.7,0.14 14.59,-0.05 5.57,-0.22 7.73,-0.87 11.56,-3.24 3.31,2.29 -0.76,3.75 10.79,3.57 9.75,-0.15 8.04,0.02 10.42,-3.9 1.21,1.26 0.91,3.17 3.13,3.68 1.61,0.37 4.95,0.17 6.73,0.17 -0.29,3.51 -3.15,9.61 0.15,12.05 3.25,2.4 5.67,-1.21 6.86,-3.48 0.39,-0.75 0.98,-1.64 1.49,-2.43 2.02,-3.14 3.57,-6.5 5.63,-9.57 1.29,-1.92 4.76,-8.4 6.23,-9.37 -0.26,5.19 -4.55,17.13 4.01,15.42 3.49,-0.69 8.92,-7.81 11.66,-10.4 6.04,-5.71 15.03,-16.24 21.77,-22.67 0.61,1.15 -1.38,3.61 -2.24,5.55 -2.01,4.54 -7.39,15.42 -4.26,19.76 1.47,2.03 4.12,1.64 5.78,-0.05 2.69,-2.74 3.96,-8.2 5.87,-11.42 0.8,-1.36 1.95,-3.51 3.04,-4.77l0.58 -0.55c-0.12,4.62 -0.89,10.19 2.24,12.39 4.24,2.97 9.08,-2.37 11.24,-1.15 1.44,0.81 2.59,2.75 4.79,2 3.02,-1.02 5.88,-4.7 8.09,-6.84 0.96,-0.93 3.12,-2.8 4.19,-3.33 1.06,1.23 1.35,3.58 2.6,4.62 1.55,1.28 4.13,-0.23 6.18,0.36 0.14,5.48 -0.1,12.73 7.19,10.17 4.85,-1.71 8.51,-8.52 9.96,-8.16 0.95,0.23 0.99,2.89 5.35,3.05 6.68,0.26 11.79,-5.21 15.84,-9.34 2.54,-2.59 10.66,-11.22 11.36,-13.65 0.65,-2.26 -0.12,-4.95 0.63,-7.72 3.38,-0.64 7.07,-0.67 10.32,-1.9 1.25,-0.47 1.53,-0.97 2.68,-1.53l0 -10.9c-5.25,-0.7 -10.92,0.59 -16.14,1.36 -2.69,0.39 -5.35,0.8 -8.03,1.2l-6.2 0.72c-0.21,0.02 -0.85,0.09 -1.01,0.08l-0.66 -0.1c-0.05,-0.01 -0.14,-0.03 -0.21,-0.06 -0.83,-2.65 0.79,-10.68 -4.71,-11.08 -3.72,-0.27 -6.96,4.82 -8.55,7.29 -3.65,5.67 -3.1,6.65 -7.96,7.83 -1.05,0.25 -2.15,0.46 -2.87,1 -1.96,1.47 0.52,3.92 -3.56,4.18 -1.73,0.11 -2.37,0.59 -3.57,0.63l-2.09 -2.41c-0.54,-0.72 -0.28,-0.1 -0.45,-0.88 2.04,0.72 3.25,2.69 5.78,1.14 1.38,-0.84 2.83,-3.35 4.48,-4.17 2.12,-1.06 4.61,-0.98 6.12,-2.52 1.99,-2.04 5.26,-12.81 12.43,-13.17 5.68,-0.28 5.97,5.85 6.16,11.14 10.54,-0.27 20.14,-4.79 31.05,-3.41l0 -2.19c-10.36,-0.58 -18.69,3.29 -28.91,3.47l-0.44 -1.49c-0.26,-1.63 -0.09,-3.69 -0.76,-5.18 -2.22,-4.89 -10.06,-6.18 -15.21,-0.04 -1.88,2.25 -4.33,7.76 -6.12,9.37 -0.96,0.86 -3.97,1.69 -5.49,2.25 -2.57,0.94 -2.42,2.44 -3.87,4.29 -3.94,0.16 -3.59,-3.16 -8.03,-2.76 -2.62,0.24 -5.64,2.47 -8.1,2.97 -1.03,-2.27 -3,-3.49 -5.62,-4.45 1.29,-4.07 4.9,-5.8 6.46,-9.35 2.93,-6.63 8.26,-8.65 8.14,-18.41 -0.08,-6.59 -3.78,-11.54 -10.39,-10.63 -3.89,0.54 -6.36,4.41 -8.77,6.99 -0.47,0.5 -0.88,0.86 -1.26,1.46 -0.59,0.92 -0.27,0.74 -1.06,1.59 -1.8,1.95 -3.18,3.98 -4.87,5.57 -2.44,2.31 -3.25,3.76 -5.07,5.65l-7.83 7.96c-2.66,2.42 -4.83,5.86 -7.34,8.46 -1.84,1.91 -3.36,3.44 -5.28,5.43 -1.75,1.81 -9.32,10.33 -10.8,10.83 1.21,-7.78 4.57,-13.22 8.07,-18.89 0.86,-1.39 1.65,-2.64 2.54,-4.03 0.88,-1.38 2.17,-2.57 2.74,-4.11 0.62,-1.68 0.32,-0.9 1.22,-2.06 0.61,-0.79 0.59,-1.3 1.1,-2.19 1.46,-2.6 5.52,-8.42 5.79,-10.85 0.51,-4.57 -0.1,-11 -3.35,-13.49 -2.45,-1.88 -7.5,-2.14 -10.31,-0.21 -2.93,2.01 -3.54,4.94 -5.26,8.06 -3.38,-0.05 -5.46,-0.01 -7.57,1.75 -7.42,6.19 -3.03,18.63 -11.87,34.32 -0.73,1.29 -6.48,11.59 -6.78,11.86 -2.22,-4.94 1.54,-36.75 -0.97,-43.72 -1.14,-3.17 -3.1,-3.99 -6.9,-4.37 -3.32,-0.33 -18.94,-0.17 -21.49,0.99 -2.98,1.35 -3.76,4.33 -4.33,7.29 -2.84,-1.54 -4.43,-7.73 -17.62,-8.12 -5.27,-0.16 -13.22,-0.46 -18.43,0.37 -2.21,0.35 -2.7,1.34 -4.52,2.14 -4.65,-2.79 -1.86,-2.42 -8.64,-2.47 -5.23,-0.04 -20.64,-2.13 -22.49,4.3 -0.45,1.58 -0.97,2.99 -1.29,4.46 -0.06,-0.05 -0.16,-0.23 -0.19,-0.17l-2.55 -3.25c-6.63,-7.16 -19.61,-8.6 -27.69,-3.83 -5.12,3.02 -2.9,-0.66 -8.6,-1.29 -3.87,-0.43 -26.61,-0.45 -30.47,-0.22 -5.48,0.33 -5.38,2.18 -8.04,4.46 -7.41,-2.22 -3.26,-4.44 -17.58,-4.46 -5.59,-0.01 -15.96,-1.07 -19.23,2.7 -3.52,-1.32 -0.04,-2.78 -10.87,-2.77 -4.42,0 -9.02,0.29 -13.41,-0.07 -0.7,-0.78 -0.65,-1.44 -1.32,-2.13 -2.18,-2.24 -4.83,-3.43 -8.36,-2.96 -4.79,0.64 -6.45,3.8 -9.1,6.08 -2.83,-0.78 -4.43,-2.61 -8.24,-1.94 -8.55,1.52 -9.41,10.86 -10.49,13.62 -1.3,3.34 -0.94,7.61 -1.84,11.26 -0.43,1.75 -1,1.84 -2.36,3 -2.72,2.34 -9.06,4.18 -6.91,14.05 0.82,3.77 2.16,4.41 4.22,6.51 0.2,1.71 0.01,3.14 -0.64,4.35 -1.19,2.21 -5.92,2.68 -8.17,7.41 -2.4,5.04 -1.78,11.47 4,14.81 0.2,3.03 -2.65,12.27 4.34,16.21 2.72,1.54 6.16,1.02 8.45,-0.53 2.42,-1.64 3.13,-3.54 4.31,-6.71 4.58,4.26 6.95,5.2 12.94,1.92 2.89,-1.59 8.69,-1.05 12.01,-0.94 2.44,0.08 4.07,-0.35 6.25,-0.44 3.85,-0.16 8.35,0.56 12.52,0.58 8.55,0.05 17.1,0.04 25.62,-0.22 6.38,-0.19 13.79,0.2 18.5,-4.55 0.76,-0.77 0.84,-1.17 1.78,-1.66 3.35,1.47 5.08,7.73 18.79,7.3 5.38,-0.17 10.79,-1.63 14.46,-4.91 1.28,-1.14 1.69,-2.57 2.81,-3.78 0.85,0.44 0.54,0.35 1.16,1.01 2.58,2.74 6.01,5.95 9.85,6.85 5.47,1.29 0.43,0.92 8.06,0.9 5.21,-0.01 7.19,-1.15 11.42,-2.99 1.11,-0.48 1.73,0.45 2.92,1.1 3.04,1.65 20.89,0.21 27.18,0.79 7.49,0.69 29.57,0.33 37.15,-0.46 4.16,-0.44 6.03,-1.66 7.69,-0.55 3.4,2.29 17.55,-0.07 22.65,0.66 6.15,0.88 3.77,0.74 4.19,6.16 0.36,4.69 4.07,9.52 9.62,6.58 5.41,-2.87 7.73,-11.2 9.59,-13.37 0.4,-0.47 0.02,-0.13 0.5,-0.46 1.33,0.43 1.03,0.93 1.94,1.73 2.31,2.03 3.95,3.66 7.71,2.93 3.59,-0.69 4.32,-2.48 6.44,-4.58 0.95,-0.94 1.11,-0.86 1.96,-1.91 1.08,-1.33 2.27,-2.68 3.37,-3.78 1.64,-1.65 9.6,-10.72 11.19,-10.81 0.37,3.44 -2.02,9.51 1.59,12.41 1.73,1.39 3.82,1.93 6.04,1.75 1.61,-0.13 3.34,-2.16 4.34,-3.44 0.89,-1.14 1.68,-1.38 2.3,-2.75 0.33,-0.72 0.52,-1.28 0.84,-1.83 0.46,-0.77 0.63,-1.13 1.51,-1.32 1.19,2.39 -0.22,1.5 2.14,3.24 1.72,1.27 1.95,1.22 4.07,1.08 3.94,-0.26 6.93,-1 10.66,-0.13 5.1,1.2 8.43,-1.09 11.44,-4.35 0.73,-0.79 1.72,-2.98 2.91,-2.96 1.23,0.41 1.5,1.32 2.94,2.02 0.99,0.48 2.92,0.57 3.64,1.55 1.69,2.33 -0.13,9.31 8.31,9.08 3.74,-0.1 4.54,-0.37 7.04,-1.86l2.57 -1.9c0.77,-0.78 1.3,-1.67 1.85,-2.58 3.17,-0.03 5.83,3.28 14.13,-1.07 3.91,-2.04 6.92,-4.84 9.77,-7.52 4.01,-3.76 4.8,-4.71 8.26,-9.03 1.27,-1.58 2.36,-3.22 3.89,-4.77 1.02,-1.04 0.64,-1.87 0.77,-3.37 0.11,-1.26 0.44,-2.45 0.71,-3.76 2.78,-0.9 4.54,-0.66 9.72,-2.39z"/>
   <path class="fil1" d="M187.73 49.05c-0.6,-0.26 -0.07,0.1 -0.7,-0.48 -0.29,-0.28 -0.12,-0.12 -0.42,-0.49 -1.05,-1.28 -1.48,-1.78 -2.17,-3.55 1.97,-0.44 2.47,-0.57 4.74,-0.5 -0.03,1.89 -0.51,3.76 -1.45,5.03zm266.41 -0.18l0 -1.36c-1.15,0.56 -1.43,1.06 -2.68,1.53 -3.25,1.24 -6.94,1.27 -10.32,1.9 -0.75,2.77 0.02,5.46 -0.63,7.72 -0.7,2.44 -8.83,11.07 -11.36,13.65 -4.05,4.13 -9.16,9.59 -15.84,9.34 -4.36,-0.17 -4.4,-2.82 -5.35,-3.05 -1.45,-0.35 -5.1,6.46 -9.96,8.16 -7.29,2.57 -7.05,-4.68 -7.19,-10.17 -2.04,-0.59 -4.63,0.92 -6.18,-0.36 -1.25,-1.03 -1.54,-3.39 -2.6,-4.62 -1.06,0.53 -3.22,2.4 -4.19,3.33 -2.21,2.14 -5.07,5.82 -8.09,6.84 -2.2,0.74 -3.35,-1.19 -4.79,-2 -2.17,-1.21 -7.01,4.12 -11.24,1.15 -3.14,-2.2 -2.36,-7.78 -2.24,-12.39l-0.58 0.55c-1.09,1.25 -2.24,3.41 -3.04,4.77 -1.9,3.23 -3.17,8.68 -5.87,11.42 -1.66,1.69 -4.32,2.08 -5.78,0.05 -3.13,-4.33 2.25,-15.22 4.26,-19.76 0.86,-1.94 2.85,-4.4 2.24,-5.55 -6.75,6.43 -15.73,16.96 -21.77,22.67 -2.74,2.59 -8.17,9.7 -11.66,10.4 -8.56,1.71 -4.27,-10.23 -4.01,-15.42 -1.47,0.97 -4.94,7.45 -6.23,9.37 -2.06,3.06 -3.61,6.43 -5.63,9.57 -0.5,0.78 -1.09,1.68 -1.49,2.43 -1.19,2.27 -3.61,5.87 -6.86,3.48 -3.3,-2.44 -0.44,-8.54 -0.15,-12.05 -1.78,0.01 -5.12,0.2 -6.73,-0.17 -2.22,-0.51 -1.92,-2.42 -3.13,-3.68 -2.38,3.93 -0.67,3.75 -10.42,3.9 -11.56,0.18 -7.49,-1.28 -10.79,-3.57 -3.83,2.37 -6,3.03 -11.56,3.24 -4.89,0.19 -9.66,0.05 -14.59,0.05 -4.94,0 -9.93,0.21 -14.9,0.24 -10.51,0.07 -7.84,0.09 -10.66,-3.77 -2.93,2.91 1.72,3.49 -10.5,3.72 -2.18,0.04 -4.87,0.17 -6.9,-0.21 -2.51,-0.47 -2.1,-2.24 -3.54,-3.62 -7.01,3.27 -10.73,6.6 -20.26,4.16 -7.1,-1.82 -9.74,-6.63 -11.33,-14.09l-1.35 2.89c-5.9,12.43 -21.87,14.79 -29.88,8.44 -1.43,-1.13 -2.97,-2.61 -3.89,-4.43 -0.81,-1.61 -1.07,-4.56 -2.55,-5.74 -4.25,12.07 -7.45,12.26 -21.93,12.41 -10.37,0.11 -23.09,1.09 -33.08,-0.44 -0.88,-0.48 -1.1,-2.58 -1.84,-3.28 -1.58,4.16 -3.38,3.89 -8.59,3.92 -4.47,0.03 -7.43,-0.17 -11.62,-0.78 -0.84,0.73 -0.82,1.31 -1.71,2.07 -4.01,3.48 -9.2,1.04 -8.36,-8.09 0.16,-1.74 0.7,-4.18 0.44,-5.96 -0.08,-0.57 -0.06,-0.38 -0.21,-0.66 -4.57,1.37 -3.81,14.09 -7.9,18.36 -2.67,2.78 -6.63,2.79 -8.07,-1.16 -1.42,-3.9 0.07,-8.44 -0.16,-12.4 -2.47,-1.27 -4.43,-1.96 -4.98,-5.4 -1.86,-11.66 5.15,-8.98 8.02,-12.74 1.39,-1.82 2.18,-5.33 1.79,-8.38 -2.49,-2.11 -4.24,-1.77 -4.51,-5.95 -0.75,-11.82 4.73,-7.97 7.96,-12.32 3.95,-5.35 1.08,-18.39 6.93,-23.47 1.84,-1.6 4.96,-2.42 7.92,-1.32 1.46,0.54 2.26,1.05 2.88,2.19 0.69,1.26 1.26,1.94 1.9,3.07 0.57,-0.67 0.59,-3.81 2.17,-6.06 0.99,-1.4 2.28,-2.93 4.1,-3.64 3.34,-1.3 6.18,0 8.06,2.62 0.57,0.8 1.12,1.84 1.9,1.98 5.55,0 18.09,-0.71 22.44,0.78 1.34,4.91 0.21,23.78 0.77,31.7 0.08,1.15 0.01,2.98 0.71,3.88 1.09,-2.71 0.91,-6.88 1.25,-9.97l2.25 -20.44c0.53,-4.28 0.77,-5.67 5.37,-5.93 5.98,-0.33 16.23,-0.65 21.54,1.07 9.34,3.02 7.54,9.84 9.75,12.86 1.28,-0.99 0.35,-0.36 0.39,-3.21 0.01,-0.93 0.18,-2.57 0.32,-3.51 1.2,-7.96 3.98,-8.07 15.37,-7.18 2.96,0.23 4.7,0.37 7.78,0.25 9.51,-0.35 15.16,-3.14 16.08,5.96 2.03,-0.93 4.38,-2.97 6.24,-4.21 6.1,-4.08 18.87,-3.83 23.77,1.01 4.13,4.08 4.07,9.48 4,16.59 -0.12,12.12 -1.31,9.41 -8.92,11.31 1.63,3.74 3.72,4.33 5.83,10.55l7.66 -31.85c1.95,-8.61 0.3,-9.63 10,-9.67 5.69,-0.02 13.28,-1.18 17.54,1.43 0.26,6.23 -0.32,30.53 0.49,34.14 0.5,-2.3 1.03,-1.79 1.04,-5.18 0.02,-5.68 1.09,-11.94 1.84,-17.54 1.68,-12.55 -0.35,-12.83 13.05,-12.79 7.66,0.02 17.33,-0.1 21.59,4.28 5.71,5.89 1.97,14.98 2.92,21.49 1.51,-1.33 1.44,-3.48 1.83,-5.45 0.4,-2.03 0.81,-3.87 1.27,-5.89 3.17,-14.02 1.24,-14.53 14.41,-14.51 16,0.03 14.64,-2.27 14.64,14.32l-0.05 28.9c-0.06,4.06 -0.62,10.19 -0.2,13.92 1.6,-0.74 1.86,-1.31 2.58,-2.92 3.05,-6.82 9.78,-17.35 13.64,-25.08 2.9,-5.8 3.03,-10.77 4.14,-17.94 2.16,-13.88 7.79,-9.93 11.14,-10.82 1.03,-0.59 2.22,-3.28 2.79,-4.43 1.01,-2.07 1.24,-3.08 2.8,-4.35 3.71,-3.01 7.19,-0.64 8.16,3.31 1.83,7.46 -4.35,16.25 -7.24,20.86 -3.67,5.85 -7.33,11.21 -10.66,17.93 -2.12,4.28 -5.14,16.98 -5.85,22.63 2.51,-1.18 3.62,-3.9 5.84,-5.93 1.85,-1.7 3.68,-4.1 5.52,-6.11 1.04,-1.14 1.82,-1.95 3.02,-2.93l8.06 -8.93c7.06,-8.17 14.88,-15.81 21.94,-23.94l8.29 -9.02c0.88,-1.12 1.69,-2.01 2.57,-3.07 5.77,-6.93 10.72,0.59 9.73,7.65 -0.77,5.42 -5.07,10.58 -7.98,14.95 -2.24,3.36 -7.73,10.58 -8.97,14.18 2.49,-0.29 5.76,-1.49 7.7,0.1 1.68,1.37 1.63,3.81 2.08,6.37 0.49,0.22 0.11,0.23 0.79,0.02 0.13,-0.04 0.57,-0.35 0.72,-0.46 4.46,-3.49 3.54,-4.99 10.9,-5.26 -1.26,-2.17 -4.22,-1.44 -5.97,-0.27 -1.29,0.86 -3.38,3.17 -4.77,3.57 -3.91,-5.02 -1.47,-4.91 -8.56,-6.33 1.89,-7.73 15.22,-18.55 15.7,-28.52 0.25,-5.08 -2.32,-10.08 -7.43,-9.55 -1.41,0.14 -2.83,1.07 -3.63,1.76l-21.1 23.28c-5.44,6.13 -15.72,17.66 -21.16,23.24 -0.99,1.01 -1.74,1.94 -2.69,2.99 -0.9,0.99 -1.76,1.73 -2.64,2.71 -1.55,1.73 -3.62,3.97 -5.57,5.2 3.66,-25.5 20.99,-39.94 22.96,-50.07 1.37,-7.06 -2.98,-16.33 -9.91,-11.71 -2.23,1.49 -3.39,4.69 -5,7.21 -1.8,2.8 -5.03,0.86 -8.62,3.61 -4.61,3.55 -4.03,12.07 -5.31,19.1 -1.78,9.75 -9.47,19.64 -14.06,28.56 -0.61,1.19 -0.9,3.38 -2.29,3.69 -0.51,-1.2 0.17,-17.52 0.21,-20.53 0.1,-7.15 -0.13,-14.32 -0.05,-21.46 0.04,-2.99 0.41,-7.49 -1.06,-9.5 -0.9,-1.23 -1.88,-1.82 -3.5,-1.88 -5.27,-0.21 -10.85,-0.29 -16.1,0.08 -3.96,0.28 -5.03,0.49 -8.35,2.37 -0.34,3.35 -0.16,8.9 -2.7,10.45 -4.47,-6.96 -0.23,-12.18 -22.64,-13.1 -4.72,-0.19 -13.18,-1.02 -15.62,2.23 -2.71,3.61 -0.76,13.57 -2.66,15.31 -2.22,-3.17 0.71,-11.98 -1.4,-15.49 -1.74,-2.9 -10.91,-2.09 -14.9,-2.1 -6.28,-0.02 -10.87,-1.12 -12.88,4.11 -1.2,3.1 -2.04,11.45 -3.51,13.17 -0.04,-0.06 -0.09,-0.15 -0.1,-0.19 -0.02,-0.04 -0.08,-0.14 -0.1,-0.19 -0.31,-0.73 0.05,0.3 -0.17,-0.42 -0.57,-1.85 -0.17,-3.94 -0.45,-5.84 -0.3,-2.09 -0.92,-3.77 -1.98,-5.14 -1.85,-2.39 -4.89,-4.48 -8.84,-5.48 -6.76,-1.72 -12.02,-1.19 -17.8,2.14 -1.46,0.84 -3.17,2.13 -4.53,2.67 -1,-1.03 -1.9,-3.16 -3.03,-3.87 -3.03,-1.9 -15.25,-0.51 -19.33,-0.66 -11.87,-0.45 -18.17,-2.88 -18.9,7.71 -1.56,-0.07 -3.43,-2.75 -4.45,-3.72 -5.28,-5.04 -13.03,-4.22 -20.15,-4.29 -5.62,-0.06 -11.12,-1.17 -12.54,3.87 -1.12,4 -0.86,10.17 -2.28,13.65 -1.15,-4.91 1.07,-12.82 -2.01,-16.18 -2.09,-2.29 -13.2,-1.37 -16.55,-1.34 -5.34,0.05 -5.72,0.63 -7.37,-1.85 -0.85,-1.27 -3.89,-3.1 -5.76,-3.19 -2.29,-0.11 -5.25,1.46 -6.4,2.52 -1.38,1.26 -2.2,4.1 -3.72,5.24 -2.17,-1.32 -3.71,-3.61 -7.45,-3.35 -9.8,0.68 -9.47,13.92 -10.99,21.25 -1.81,8.69 -7,4.73 -9.25,12.19 -0.81,2.71 -0.59,7.03 0.79,9.3 1.29,2.12 4.91,1.05 3.05,7.07 -1.69,5.45 -9.25,4.14 -9.84,11.61 -0.28,3.45 0.49,6.7 2.28,8.48 3.41,3.38 3.42,0.38 2.75,7.3 -0.32,3.26 -0.14,6.33 1.48,8.73 3.88,5.77 11.55,-0.58 13.31,-9.48 0.3,-1.52 0.29,-3.26 1.05,-4.34 1.24,3.93 -0.85,8.88 3.89,11.07 2.26,1.04 3.85,0.72 5.71,-0.53 2.03,-1.36 1.56,-2.4 4.87,-2.06 3.25,0.34 11.09,0.97 13.85,0.21 3.11,-0.86 2.23,-2.07 5.15,-0.69 5.07,2.4 28.79,1.19 35.08,1.03 4.57,-0.12 9.01,-0.24 12.74,-1.9 4.39,-1.96 4.67,-4.06 7.53,-7.15 0.06,0.05 0.14,0.11 0.17,0.15 0.03,0.03 0.12,0.11 0.16,0.15 0.04,0.04 0.11,0.11 0.15,0.16l1.08 1.93c1.45,2.39 2.85,3.81 5.48,5.23 7.02,3.77 16.01,2.85 22.59,-1.16 1.65,-1.01 2.65,-2.11 3.75,-3.42 0.99,-1.17 2.26,-2.9 3.27,-3.9l1.25 1.74c2.5,4.46 5.97,7.74 11.42,8.84 8.91,1.79 11.99,-1.8 18.92,-3.46 1.94,1.23 1.41,2.36 4.78,2.72 4.24,0.46 9.27,0.59 13.45,-0.24 2.41,-0.48 3.53,-0.92 6.08,-0.22 5.3,1.46 34.4,1.33 41.59,-0.37 11.19,-2.64 5.18,-0.95 10.83,0.43 8.75,2.14 16.49,-1.55 26.01,0.81 0.07,1.84 -0.65,3.74 -0.54,6.19 0.08,1.91 0.64,3.79 1.64,4.93 6.72,7.68 14.73,-16.9 18.64,-18.97 0.02,2.93 -0.36,6.31 1,8.57 1.14,1.89 4.11,2.46 6.63,1.16 3.62,-1.87 7.39,-6.18 9.83,-8.95l9.12 -9.65c1.85,-2.02 7.38,-8.59 9.55,-9.28 -1.29,4.85 -8.48,16.94 -2.57,20.98 6.48,4.43 10.16,-8.84 13.23,-12.68l0.3 -0.34c0.77,1.53 0.68,3.89 1.39,5.54 2.86,6.67 10.99,0.17 14.46,2.22 1.79,1.06 2.24,1.71 4.75,0.7 4.58,-1.85 6.42,-7.36 11.05,-8.66 0.84,1.37 1.39,2.87 3.01,3.46 1.58,0.58 3.73,0.53 4.97,1.3 1.49,1.58 -0.39,12.27 7.94,9.42 5.09,-1.74 6.68,-6.02 10.34,-7.62 1.99,1.78 3.94,3.09 7.76,2.17 7.55,-1.82 13.11,-7.83 17.77,-13.22 1.69,-1.95 3.15,-3.49 4.86,-5.55 8.04,-9.66 -0.58,-11.46 8.44,-12.47 3.25,-0.37 5.06,-1.34 7.55,-2.42z"/>
   <path class="fil1" d="M241.3 43.3c0.3,-2.08 0.74,-3.09 0.89,-5.4 0.25,-3.77 0.91,-7.57 1.83,-10.95 5.96,-0.39 2.71,4.45 2.54,10.25 -0.06,2.06 0.41,1.05 -0.16,3.15 -1.22,4.53 -2.58,25.55 -4.25,28.86 -0.9,1.78 -2.73,2.64 -4.23,2.65l3.37 -28.56zm-18.7 39.72c2.78,1.88 21.43,0.89 24.93,-0.41 3.7,-1.37 5.82,-2.85 7.2,-6.2 2.62,-6.32 4.57,-27.26 5.59,-34.64 3.61,-25.97 0.03,-26.38 -24.92,-26.42 -3.48,-0 -3.9,-0.85 -4.49,2.38 -1.48,8.06 -3.12,21.39 -3.74,29.54 -0.17,2.2 -0.71,3.9 -1.01,5.95l-3.56 29.8z"/>
   <path class="fil1" d="M95 71.05l-4.29 0.85c-0.03,-2.48 0.9,-7.44 1.28,-10.09 0.25,-1.7 0.47,-3.27 0.73,-4.97 0.27,-1.77 0.12,-3.95 2,-3.94 3.75,0.02 2.61,5.65 2.21,8.45 -0.49,3.41 -1.22,6.49 -1.93,9.69zm-0.2 -28.64c-0.17,-2.57 1.26,-13.19 2.1,-15.33 4.99,-0.42 3.81,3.15 3.2,8.26 -0.59,4.83 -0.32,6.55 -5.3,7.07zm10.61 4.55c1.43,-1.92 4.02,-2.29 5.32,-3.99 1.26,-1.65 1.78,-4.62 2.26,-6.97 1.26,-6.11 1.55,-10.37 -1.18,-15.61 -1.24,-2.37 -2.12,-3.2 -5.21,-4.04 -4.01,-1.09 -17.33,-2.21 -21.21,-0.81 -1.47,0.53 -1.43,1.13 -1.73,2.74 -0.47,2.52 -0.83,5.53 -1.07,8.17 -0.13,1.42 -0.19,2.98 -0.36,4.38 -0.33,2.69 -1.72,8.65 -1.8,11.94 -0.02,0.75 0.08,1.65 -0.01,2.36 -0.16,1.31 -0.51,2 -0.88,5.69 -0.78,7.73 -4.29,26.77 -3.87,32.77 8.7,0.14 19.33,0.97 27.35,-1.56 2.08,-0.66 3.94,-3.02 4.88,-4.94 1.49,-3.05 2.67,-12.41 3.09,-16.53 1.26,-12.24 -3.69,-11.17 -5.58,-13.6z"/>
   <path class="fil1" d="M122.06 15.56c-0.4,1.22 -0.37,1.35 -0.4,2.55l-2.73 17.55c-0.39,3.57 -0.54,7.13 -0.89,10.71 -0.18,1.8 -0.49,3.23 -0.87,4.87 -0.47,2.05 -0.32,3.15 -0.5,5.19 -0.09,1.02 0.11,-0.14 -0.25,1.15 -0.58,2.07 -0.97,6.94 -1.13,9.03 -0.24,3.14 -0.38,7.77 0.94,9.85 0.9,1.43 0.86,2.36 2.12,3.83 2.71,3.18 7.94,4.84 12.42,4.46 3.64,-0.3 6.12,-1.45 8.6,-3.02 1.17,-0.74 2.26,-1.57 3.23,-2.73 1.35,-1.61 1.04,-1.89 1.92,-3.76 3.5,-7.37 2.91,-10.89 4.29,-18.63 0.49,-2.73 0.85,-7.61 1.07,-10.52 0.15,-1.94 0.76,-2.97 0.88,-4.77 0.33,-4.91 -0.09,-1.08 0.65,-5.06 0.6,-3.22 0.33,-7.29 1.09,-10.53l1.34 -10.16 -13.79 0.13c-1.03,1.8 -3.77,25.68 -4.09,29.57l-1.32 10.57c-0.73,2.36 -1.14,9.27 -1.4,11.99 -0.45,4.87 -1.47,4.88 -3.65,4.83 -1.24,-7.82 1.53,-20.73 2.54,-28.88 0.27,-2.2 0.38,-5.14 0.73,-7.27 0.94,-5.6 3.16,-16.63 2.63,-21.06l-13.44 0.11z"/>
   <path class="fil1" d="M202.48 59.27c0.06,-1.95 0.91,-4.37 1.37,-6.34 1.28,-5.51 2.16,-13.63 4.63,-18.38 0.82,2.66 0.13,4.42 -0.11,7.16 -0.11,1.28 0.24,2.22 0.09,3.33 -0.2,1.51 -0.47,1.78 -0.47,3.71 -0.01,2.7 0.02,5.19 -0.25,7.79 -0.39,3.76 -1.76,3.05 -5.26,2.74zm17 24.24c0.07,-5.71 0.06,-11.47 0.18,-17.18 0.12,-5.65 0.56,-10.96 0.56,-16.68 0.01,-11.18 0.44,-23.16 0.01,-34.24l-19.68 0.1c-0.63,0.98 -0.38,1.14 -0.95,2.47 -1.14,2.67 -0.69,3.25 -1.44,5.74 -0.82,2.72 -1.44,5.49 -2.09,8.35 -0.64,2.84 -1.21,5.72 -1.79,8.63l-1.61 8.81c-1.32,5.91 -2.64,11.09 -4.13,16.74 -1.34,5.07 -3.32,11.55 -3.78,17.06l14.02 0.31 2.31 -12.22 5.07 0.04c-0.1,4.27 -0.8,7.79 -0.57,12.19 2.76,0.01 12.28,0.34 13.89,-0.13z"/>
   <path class="fil1" d="M55.53 59.37c-0.08,-2.27 0.77,-4.2 1.15,-6.42 1.05,-6.13 0.66,-2.78 1.49,-6.24 0.97,-4.05 1.23,-8.35 2.8,-12.15 1.05,1.9 0.14,12.62 0.02,15.07 -0.41,8.49 1.07,10.74 -5.45,9.73zm17.53 -43.98l-19.58 0.14c-0.92,1.6 -3.92,13.98 -4.45,16.43 -1.24,5.82 -2.28,11.54 -3.58,17.28 -1.08,4.75 -8.63,31.39 -7.33,33.78 0.36,0.44 0.53,0.48 1.79,0.5 5.21,0.09 6.83,0.32 11.88,-0.19l2.12 -11.19c0.56,-0.99 3.58,-0.73 4.96,-0.72l-0.37 12.12c2.73,0.31 11.85,0.47 14.02,-0.42l0.18 -22.44 0.36 -45.29z"/>
   <path class="fil1" d="M275.54 59.28c0.26,-4.32 3.53,-17.31 4.82,-23.4 0.07,-0.31 0.06,-0.42 0.18,-0.72 0.41,-0.99 -0.07,-0.24 0.49,-0.7 0.94,1.82 0.1,11.65 0.01,14.6 -0.05,1.84 -0.16,7.37 -0.56,9.02 -0.29,1.19 -0.07,0.89 -0.97,1.16 -0.92,0.28 -2.98,0.1 -3.98,0.04zm17.67 -43.68l-19.95 -0.01 -2.29 8.22c-0.14,0.98 -0.04,1.6 -0.28,2.43 -1.74,6.14 -2.26,7.48 -3.58,14.58 -0.31,1.64 -0.61,2.97 -0.74,4.65 -0.07,0.82 -0.08,1.5 -0.31,2.3 -0.82,2.91 -2.42,7.31 -2.95,9.88l-0.97 4.4c-1.03,3.92 -1.63,8.49 -2.89,12.63 -0.52,1.71 -1.74,6.94 -1.36,8.8l13.68 0.13c0.52,-1.85 0.82,-4.11 1.15,-6.19 1.06,-6.56 0.71,-6.36 6.26,-5.92l-0.4 12.12 10.74 -0.04c1.24,-2.23 2.8,-3.58 3.03,-7.07 0.23,-3.58 0.02,-5.93 0.06,-9.58 0.06,-6.44 0.51,-12.92 0.48,-19.37l0.33 -31.97z"/>
   <path class="fil1" d="M154.03 59.49c-1.15,3.89 -1.94,10.76 -1.11,15.13 2.14,11.32 15.29,11.64 22,8.41 3.52,-1.7 6.12,-5.06 7.75,-8.94 1.47,-3.49 0.79,-3.36 1.66,-6.99 0.48,-1.98 0.38,-5.69 0.43,-7.92 0.3,-12.84 -6.86,-13.17 -12.99,-20.99 -1.34,-1.7 -2.03,-3.55 -1.87,-6.41 0.22,-3.91 0.65,-3.85 2.24,-5.96 4.66,-0 2.12,3 2.16,10.25l12.58 0.07c0.21,-1.23 0.45,-2.92 0.77,-4.19 0.31,-1.24 0.38,-0.58 0.38,-1.96 0.01,-4.16 0.24,-7.12 -1.22,-9.79 -2.41,-4.4 -7.58,-5.98 -12.49,-6 -6.3,-0.02 -7,1.24 -9.82,2.69 -0.55,0.29 -0.39,0.1 -0.98,0.51 -0.91,0.62 -0.95,1.01 -1.68,1.89 -2.08,2.46 -2.2,2.28 -3.55,6.59 -2.12,6.79 -3.09,18.42 1.7,22.91 0.67,0.63 1.19,1.04 1.8,1.79 5.44,6.75 9.5,7.26 9.21,14.87 -0.08,2.08 -0.41,4.27 -1.21,5.9 -0.93,1.88 -2.93,2.38 -3.96,0.2 -1.17,-2.46 0.69,-10.09 0.72,-12.17l-12.52 0.12z"/>
   <path class="fil2" d="M23.58 60.55c0.13,-2.63 1.97,-10.02 2.85,-12.52 1.67,-4.74 3.1,-5.74 8.63,-6.7l-1.22 8.24c-0.16,0.67 -0.24,1.04 -0.33,1.79 -0.62,4.9 -0.98,5.97 -9.93,9.19zm6.51 7.54c-0.26,3.41 -0.78,5.67 -1.49,8.74 -0.6,2.6 -2.26,12.54 2.73,8.64 1.39,-1.09 1.23,-1.33 1.67,-3.45l4.35 -15.61c4.05,-11.67 1.94,-4.51 3.89,-16.1 0.38,-2.26 1.49,-5.4 2.17,-7.65 1.57,-5.18 2.84,-10.39 4.24,-15.73 1.14,-4.36 3.65,-13.78 -0.09,-16.23 -2.96,-1.94 -5.37,1.1 -6.33,3.03 -2.66,5.35 -1.88,13.56 -4.04,15.89 -0.82,0.89 -5.36,3.31 -6.29,3.09 -0.57,-2.06 4.1,-10.49 1.78,-15.77 -1.04,-2.37 -3.43,-3.91 -5.85,-1.85 -4.41,3.76 -4.09,17.15 -6.35,22.3 -1.62,3.71 -6.48,3.48 -7.94,6.38 -2.37,4.72 3.72,3.87 6.04,3.63 0.31,2.08 -0.99,5.83 -1.4,8.2 -1.77,10.32 -0.15,8.31 -6.86,12.41 -0.57,0.35 -2.57,1.47 -2.9,1.92 -0.83,1.12 -0.4,2.97 0.15,3.94 2.26,0.77 3.69,-0.23 6.09,-0.01 0.41,6.42 -3.75,8.82 -1.37,16.35 3.09,-0.12 4.05,-1.93 4.91,-5.51 2.61,-10.88 0.95,-14.64 12.85,-16.63z"/>
   <path class="fil2" d="M310.56 81.42c0.18,-4.1 2.19,-9.88 3.13,-14.04 7.78,-34.37 6.1,-23.3 20.36,-48.46 1.38,-2.43 5.88,-8.69 3.91,-12.21 -2.75,-4.92 -7.99,9.15 -10.59,13.61 -2.03,3.5 -1.48,2.27 -3.27,4.69 -0.07,-2.98 1.36,-6.1 1.48,-9.75 -4.79,0.2 -5.47,5.32 -6.05,9.16 -0.65,4.31 -0.9,8.75 -2.15,12.76 -1.14,3.64 -7.87,15.77 -10.07,19.72l-10.63 19.16c-2.1,3.98 -9.83,15.77 -9.72,20.07 3.52,-2.61 26.89,-44.16 26.89,-44.18 1.51,3.42 -5.95,25.94 -6.51,34.16 4.02,-0.36 8.25,-6.12 11.01,-9.29l16.27 -16.79c1.19,-1.21 2.17,-2.32 3.37,-3.5 2.72,-2.65 6.82,-7.79 9.59,-10.07 2.01,-1.66 2.12,-2.28 3.32,-3.53 1.26,-1.32 2.42,-1.7 3.39,-3.18 1.37,-2.09 4.38,-5.47 6.64,-6.44 -1.79,4.16 -4.12,7.31 -6.17,11.12 -2.01,3.75 -3.97,7.4 -5.83,11.16 -2.44,4.93 -9.67,18.45 -10.21,23.9 1.44,-0.54 1.42,-0.87 2.2,-2.16 0.61,-1 1.09,-1.32 1.58,-2.32 0.84,-1.73 1.52,-3.59 2.39,-5.34 8.33,-16.6 19.88,-33.51 30.34,-48.64 1.96,-2.83 6.41,-7.91 3.92,-10.85 -2.67,-3.15 -7.43,4.07 -8.55,5.37 -0.81,0.95 -1.07,1.49 -1.77,2.39 -0.81,1.06 -1.13,1.11 -1.96,1.92 -0.99,0.98 -1.6,2.36 -3.55,4.19l-30.28 32.89c-0.77,0.75 -1.37,1.27 -2.03,2.15l-20.44 22.3z"/>
   <path class="fil2" d="M417 62.95c2.19,-4.6 3.07,-6.61 6.94,-9.29 0.05,5.01 -2.65,8.65 -6.94,9.29zm-55.9 -0.05c-0.15,-3.6 4.41,-7.81 6.53,-9.11 -0.13,2.44 -0.84,4.42 -1.95,6.03 -0.69,1.01 -2.55,3.36 -4.58,3.08zm52.15 -18.25c0.18,-3.87 5.87,-4.57 5.3,-12.48 -6.32,-1.6 -9.95,11.85 -12.8,13.18 -2.88,1.35 -5.05,-0.6 -5.89,2.89l4.72 -0.08c-0.51,4.01 -4.61,7.55 -6.59,9.42 -1.68,1.59 -6.32,6.92 -8.25,7.76 1.02,-4.85 4.83,-7.66 5.74,-13.36 -4.73,-0.61 -9.42,4.75 -13.83,8.33 -1.36,1.11 -2.86,1.94 -3.97,2.96 1.61,-2.75 3.1,-4.1 4.99,-6.4 1.33,-1.61 4.04,-4.49 3.76,-7.46 -3.58,-0.73 -6.74,3.08 -8.21,4.79 -6,6.99 -5.8,7.36 -12.52,13.41 -1.84,1.66 -4.82,4.2 -8.04,4.66 -0.11,-3.16 0.32,-4.49 1.18,-7.02 3.2,-0.11 5.6,-0.48 7.45,-2.1 3.43,-3 6.32,-8.2 5.91,-13.19 -0.29,-3.46 -3.39,-3.27 -5.68,-1.8 -7.5,4.83 -13.74,21.76 -11.72,25.61 2.71,5.16 13.89,-6.07 16.33,-7.87l1.71 -1.4c-0.44,3.08 -4.51,5.96 -5.04,10.52 3,-0.46 3.54,-2.01 5.21,-3.67 4.02,-3.99 8.78,-8.41 13.92,-10.81 -0.39,1.91 -1.57,5.3 -1.41,6.99 0.31,3.35 3.29,2.51 4.94,0.99 2.77,-2.56 5.6,-6.87 8.79,-8.56 -1,6.05 -5.66,9.89 -5,19.84 6.96,0.64 13.18,-11.56 17.68,-14.85 -0.68,4.14 -1.78,5.54 -0.37,9.7 3.64,0.23 6.82,-1.52 9.05,-3.08 8.83,-6.16 6.96,-7.01 12.41,-12.05 1.4,-1.29 4.62,-4.72 4.8,-7.24 -2.17,0.23 -4.48,3.35 -6,5.19l-5.2 5.8c-3.31,3.15 -8.03,8.19 -12.65,9.03 -0.01,-2.38 0.19,-5.18 1.35,-6.91 2.81,-0.1 4.22,-0.2 6.33,-1.39 3.43,-1.93 5.2,-5.44 5.97,-9.31 0.31,-1.53 1.8,-6.03 -0.09,-6.81 -3.84,-1.6 -7.85,2.76 -11.43,7.26l-5.05 6.3c-2.18,2.73 -10.73,15.77 -14.24,15.73 -0.48,-3.35 5.04,-14.01 6.41,-16.76 1.33,-2.66 2.64,-5.24 4.02,-7.88 1.91,-3.65 1.14,-4.66 5.9,-5.64 3.45,-0.71 7.32,-0.87 10.9,-1.06l21.2 -2.32c5.12,-0.67 6.81,-0.6 7.46,-4.71l-39.47 5.85z"/>
   <path class="fil0" d="M237.93 71.86c1.5,-0.02 3.33,-0.87 4.23,-2.65 1.67,-3.31 3.03,-24.33 4.25,-28.86 0.57,-2.1 0.09,-1.09 0.16,-3.15 0.17,-5.81 3.42,-10.64 -2.54,-10.25 -0.92,3.38 -1.58,7.18 -1.83,10.95 -0.15,2.31 -0.59,3.32 -0.89,5.4l-3.37 28.56z"/>
   <path class="fil0" d="M23.58 60.55c8.95,-3.22 9.31,-4.29 9.93,-9.19 0.09,-0.75 0.17,-1.12 0.33,-1.79l1.22 -8.24c-5.53,0.96 -6.96,1.96 -8.63,6.7 -0.88,2.5 -2.72,9.89 -2.85,12.52z"/>
   <path class="fil1" d="M454.14 36.61l0 -1.22c-10.91,-1.37 -20.51,3.14 -31.05,3.41 -0.19,-5.29 -0.48,-11.42 -6.16,-11.14 -7.17,0.36 -10.44,11.13 -12.43,13.17 -1.51,1.54 -4,1.46 -6.12,2.52 -1.64,0.82 -3.1,3.33 -4.48,4.17 -2.53,1.55 -3.74,-0.43 -5.78,-1.14 0.17,0.78 -0.08,0.16 0.45,0.88l2.09 2.41c1.2,-0.04 1.84,-0.52 3.57,-0.63 4.08,-0.26 1.6,-2.71 3.56,-4.18 0.72,-0.54 1.82,-0.75 2.87,-1 4.87,-1.18 4.32,-2.16 7.96,-7.83 1.59,-2.47 4.83,-7.56 8.55,-7.29 5.5,0.4 3.88,8.43 4.71,11.08 0.07,0.03 0.17,0.05 0.21,0.06l0.66 0.1c0.16,0 0.81,-0.06 1.01,-0.08l6.2 -0.72c2.68,-0.41 5.34,-0.81 8.03,-1.2 5.23,-0.77 10.89,-2.06 16.14,-1.36z"/>
   <path class="fil0" d="M95 71.05c0.71,-3.2 1.44,-6.28 1.93,-9.69 0.4,-2.8 1.54,-8.43 -2.21,-8.45 -1.87,-0.01 -1.73,2.17 -2,3.94 -0.26,1.7 -0.48,3.27 -0.73,4.97 -0.38,2.65 -1.32,7.61 -1.28,10.09l4.29 -0.85z"/>
   <path class="fil0" d="M275.54 59.28c1,0.06 3.07,0.24 3.98,-0.04 0.9,-0.27 0.69,0.03 0.97,-1.16 0.4,-1.65 0.51,-7.18 0.56,-9.02 0.08,-2.95 0.92,-12.77 -0.01,-14.6 -0.57,0.46 -0.09,-0.29 -0.49,0.7 -0.12,0.3 -0.11,0.41 -0.18,0.72 -1.3,6.09 -4.56,19.08 -4.82,23.4z"/>
   <path class="fil0" d="M55.53 59.37c6.52,1.01 5.04,-1.24 5.45,-9.73 0.12,-2.45 1.03,-13.17 -0.02,-15.07 -1.57,3.8 -1.82,8.11 -2.8,12.15 -0.83,3.46 -0.44,0.11 -1.49,6.24 -0.38,2.22 -1.23,4.15 -1.15,6.42z"/>
   <path class="fil0" d="M202.48 59.27c3.5,0.31 4.87,1.02 5.26,-2.74 0.27,-2.6 0.25,-5.09 0.25,-7.79 0,-1.93 0.27,-2.2 0.47,-3.71 0.15,-1.11 -0.2,-2.04 -0.09,-3.33 0.24,-2.74 0.93,-4.5 0.11,-7.16 -2.47,4.75 -3.35,12.87 -4.63,18.38 -0.46,1.97 -1.31,4.38 -1.37,6.34z"/>
   <path class="fil0" d="M94.8 42.41c4.97,-0.52 4.71,-2.24 5.3,-7.07 0.62,-5.11 1.8,-8.68 -3.2,-8.26 -0.84,2.15 -2.27,12.77 -2.1,15.33z"/>
   <path class="fil1" d="M154.66 55.05c-1.11,-0.13 -0.39,-0.12 -0.8,-0.3l0.08 -1.34c1.46,-0.17 1.74,0.14 1.85,1.55 -0.58,0.1 -0.53,0.17 -1.13,0.1zm-0.88 -6.52c-0.95,1.73 -1.54,6.15 -1.22,8.28l5.85 -0.66c-1.33,-2.4 -2.74,-5.9 -4.64,-7.61z"/>
   <path class="fil0" d="M361.1 62.89c2.03,0.28 3.88,-2.07 4.58,-3.08 1.11,-1.61 1.82,-3.59 1.95,-6.03 -2.12,1.29 -6.67,5.51 -6.53,9.11z"/>
   <path class="fil0" d="M417 62.95c4.28,-0.64 6.99,-4.28 6.94,-9.29 -3.86,2.69 -4.75,4.69 -6.94,9.29z"/>
   <path class="fil0" d="M184.44 44.52c0.69,1.77 1.12,2.27 2.17,3.55 0.3,0.37 0.12,0.21 0.42,0.49 0.63,0.59 0.1,0.23 0.7,0.48 0.95,-1.27 1.43,-3.14 1.45,-5.03 -2.28,-0.07 -2.77,0.06 -4.74,0.5z"/>
   <path class="fil0" d="M153.86 54.75c0.41,0.18 -0.31,0.18 0.8,0.3 0.6,0.07 0.55,-0 1.13,-0.1 -0.11,-1.41 -0.38,-1.72 -1.85,-1.55l-0.08 1.34z"/>
  </g>
 </g>
</svg>
