<?xml version="1.0" encoding="UTF-8"?>
<!DOCTYPE svg PUBLIC "-//W3C//DTD SVG 1.1//EN" "http://www.w3.org/Graphics/SVG/1.1/DTD/svg11.dtd">
<!-- Creator: CorelDRAW -->
<svg xmlns="http://www.w3.org/2000/svg" xml:space="preserve" width="66.1069mm" height="13.2444mm" version="1.1" style="shape-rendering:geometricPrecision; text-rendering:geometricPrecision; image-rendering:optimizeQuality; fill-rule:evenodd; clip-rule:evenodd"
viewBox="0 0 176.34 35.33"
 xmlns:xlink="http://www.w3.org/1999/xlink"
 xmlns:xodm="http://www.corel.com/coreldraw/odm/2003">
 <defs>
  <style type="text/css">
   <![CDATA[
    .fil0 {fill:black}
    .fil2 {fill:#86E412}
    .fil3 {fill:#9C03C7}
    .fil1 {fill:white}
   ]]>
  </style>
 </defs>
 <g id="Camada_x0020_1">
  <metadata id="CorelCorpID_0Corel-Layer"/>
  <g id="_2086799591088">
   <path class="fil0" d="M123.32 7.14c-1.07,0.35 -2.24,0.88 -3.14,1.47 -0.43,0.28 -0.58,0.47 -0.96,0.69 -0.72,-0.42 -1.14,-0.79 -2.12,-1.09 -2.19,-0.67 -2.72,-0.7 -4.77,-0.7l-8.04 1.04c-1.34,0.2 -3.46,0.55 -4.56,1 0.01,-0.41 1.26,-2.58 -2.17,-3.84 -0.63,-0.23 -1.07,-0.55 -1.79,-0.74l-2.34 -0.51c-0.4,0 -1.75,0.48 -2.02,0.66 -1.54,1.03 -2.27,4.19 -2.27,5.84 0,0.97 0.47,0.93 0.49,1.79 -0.89,0.12 -0.68,0.31 -1.32,0.68 0,-1.64 2.21,-3.68 -2.44,-5.95 -2.46,-1.2 -3.45,-0.73 -5.89,0.19 -3.66,1.38 -4.97,4.47 -6.03,5.08 -0.34,-1.27 -2.32,-2.05 -3.57,-2.63 -0.71,-0.33 -0.83,-0.3 -1.63,-0.5 -2.57,-0.66 -4.81,-0.95 -7.69,-1.03 -0.69,-0.02 -1.43,0 -2.05,0.09 -0.4,0.06 -1.45,0.24 -1.81,0.33 -1.12,0.3 -1.73,1.01 -2.77,1.41 -1.57,0.61 -2.09,2.06 -2.71,3.38 -0.25,0.53 -0.22,1.16 -0.63,1.5 0,-2.06 -1.09,-4.37 -2.71,-5.69 -3.78,-3.07 -9.66,-3.2 -14.1,-1.17 -0.79,0.36 -1.37,0.64 -2.05,1.15 -2.24,1.68 0.17,-0.32 -4.97,0.9 -1.78,0.42 -3.82,2.12 -4.59,2.3 -0.01,-0.58 -0.23,-1.17 -0.44,-1.57 -0.72,-1.41 -2.58,-2.55 -4.4,-2.55 -1,0 -1.91,0.39 -2.56,0.83 -2.08,1.39 -1.41,1.73 -3.48,0.6 -0.57,-0.31 -1.05,-0.45 -1.75,-0.53 -1.36,-0.16 -2.67,0.17 -3.56,0.69 -4.31,2.48 -1.71,4.47 -1.53,5.04 -2.79,0 -8.03,3.72 -2.62,6.37 0.38,0.19 1.06,0.42 1.35,0.73 0.3,0.61 -2.33,3.69 0.71,6.14 0.43,0.34 0.83,0.49 1.42,0.68l0.82 0.31c1.02,0.4 2.54,0.28 3.28,-0.46 0.77,-0.77 1.25,-3.3 2.36,-3.56 0.28,0.69 -0.01,0.94 0.42,1.67 1.34,2.28 5.8,2.53 7.81,1.42 1.34,-0.74 0.99,-0.34 3.36,-0.05l2.76 0.28c0.6,1.56 1.74,2.92 3.29,3.89 2.07,1.29 4.62,1.84 7.25,1.84 0.51,0 1.36,-0.26 1.78,-0.37 3.21,-0.85 5.55,-3.08 7.49,-5.34 0.22,-0.26 0.28,-0.33 0.47,-0.62 0.33,-0.5 0.09,-0.37 0.52,-0.57 0,2.42 -0.1,3.6 1.01,5.24l1.2 1.25c1.98,1.58 6.29,1.79 6.57,-1.02l0 -3.19c-0,-0.58 -0.09,-0.64 0.2,-0.97 0.31,0.22 0.34,0.36 0.6,0.67 1.17,1.37 3.92,2.36 5.91,2.14 1.54,-0.17 0.78,-0.53 1.45,0.89 1.06,2.23 4.19,2.08 6.54,0.88 1.18,-0.6 6.81,-2.97 7.87,-2.97 0.33,0 2.37,1.96 4.1,2.04 1.42,0.07 1.86,0.03 3.23,-0.39 1.21,1.99 5.62,2.83 7.26,1.35 0.67,-0.6 0.51,-1.33 0.5,-2.37 2.01,0 1.23,0.61 4.24,-0.01 0.76,-0.16 0.71,-0.3 1.33,-0.5 0.31,0.72 1.19,1.7 1.8,2.13 2.28,1.62 4.78,0.89 5.97,0.96 1.28,0.07 1.68,1.84 6.13,-0.42 0.4,-0.2 0.19,-0.11 0.7,-0.28 1.11,-0.37 2.23,-0.97 3.34,-1.43 0.71,-0.29 3.06,-1.03 3.74,-1.08 0.42,1.38 4.76,2.86 6.8,1.72 1.49,-0.83 1.26,-2.37 0.23,-3.37 1.55,0 1.72,-0.49 2.93,-0.51 0.59,2.19 5.7,4.97 8.49,4.97 2.75,0 3.18,-0.17 5.48,-1.22l1.66 -0.97c0.83,-0.55 1.53,-1.33 2.27,-1.98 0.23,-0.2 0.23,-0.2 0.4,-0.41 0.4,-0.52 -0.13,-0.18 0.49,-0.51 0.47,1.15 -0.25,3.87 3.15,6.02 1.71,1.09 5.89,1.28 5.89,-1.3 0,-0.85 -0.44,-1 -0.44,-1.66 0,-0.59 0.28,-1.89 0.29,-2.55 0.59,0.14 0.43,0.34 0.82,0.81l1.76 1.52c0.44,0.3 0.61,0.45 1.07,0.73 0.33,0.2 0.68,0.37 1.09,0.57l1.04 0.49c1.26,0.5 3,0.82 4.44,0.32l0.21 -0.08c0.03,-0.01 0.07,-0.02 0.11,-0.03 2.26,-0.75 3.85,-4.66 4.33,-6.69l1.78 -7.12c0.46,-3.06 0.92,-5.24 0.92,-8.26 0,-0.71 -0.63,-1.45 -1.1,-1.73 -1.69,-1.03 -4.78,-0.49 -6.05,0.61 -1.25,1.08 -1.23,1.31 -1.36,3.28 -0.04,0.63 -0.22,1.2 -0.32,1.89 -0.2,1.27 -0.26,2.64 -0.64,3.9l-0.49 1.85c-1.11,-0.61 -0.21,-5.72 -0.14,-6.6 0.1,-1.15 0.53,-1.85 -0.41,-2.85 -0.67,-0.73 -1.44,-1.29 -2.4,-1.6 -0.37,-0.12 -1.17,-0.37 -1.52,-0.46 -2.21,-0.5 -2.23,-0.12 -3.44,-0.08 -1.45,0.06 -2.1,0.09 -3.24,0.89 -0.61,0.42 -0.64,0.43 -0.89,1.14 -0.28,0.81 -0.94,1.83 -1,2.91 -0.63,-0.27 -0.46,-0.31 -0.75,-0.83 -0.18,-0.32 -0.43,-0.62 -0.69,-0.93 -0.99,-1.17 -2.18,-2.04 -3.77,-2.58 -1.94,-0.66 -4.45,-0.87 -6.43,-0.39 -1.94,0.47 -3.39,0.56 -5.25,1.68 -0.46,0.28 -1.27,0.93 -1.72,1.07 -0.33,-0.22 -0.45,-0.41 -0.79,-0.61 -0.78,-0.46 -2.93,-1.04 -3.08,-1.27 -0.62,-0.88 -0.26,-1.21 -1.83,-2.23 -0.29,-0.19 -0.67,-0.39 -0.88,-0.64 1.02,-0.47 1.93,-1.13 2.94,-1.65 1.3,-0.67 2.33,-1.23 2.33,-2.69 0,-0.96 -0.63,-1.63 -1.21,-2.14 -1.63,-1.45 -3.63,-1.26 -5.53,-0.28 -1.23,0.64 -3.22,2.41 -3.76,3.62 -0.39,0.87 0.09,2.02 0.39,2.75z"/>
   <path class="fil1" d="M42.74 20.65c-1.51,2.84 -5.63,8.56 -9.65,8.56 -0.71,-7.54 7.47,-14.45 7.47,-15.43 0,-0.79 -0.59,-1.11 0.54,-1.43 3.92,-1.11 3.62,0.65 3.41,3.6 -0.11,1.61 -1.01,3.28 -1.77,4.71zm82.04 -15.55c0,0.59 0.45,1.29 0.73,1.66 1.61,-0.67 5.23,-2.44 6.01,-3.44 -0.45,-1.69 -1.47,-1.53 -2.64,-1.53 -1.49,0 -4.1,3.17 -4.1,3.32zm-28.71 8.55c0,2.9 5.82,1.84 7.32,1.15 0.15,2.49 -7.61,17.47 2.49,17.47 1.45,0 0.15,-1.02 0.15,-2.55 0,-4.97 2.52,-9.84 3.26,-13.36 0.88,-4.15 0.56,-3.06 2.38,-3.42 1.16,-0.23 6,-0.96 6.37,-1.72 0.26,-1.01 -2.88,-1.91 -3.66,-1.91 -4.56,0 -13.38,1.04 -17.17,3.03 -0.43,0.23 -1.14,0.73 -1.14,1.31zm20.99 11.26l2.64 -4.33c0.86,-1.4 0.89,-1.78 1.56,-1.83 -0.25,0.93 -0.29,3.53 -0.29,4.72 0,2.59 1.76,2.21 -5.08,3.66l1.17 -2.21zm-7.08 2.38c0,1.41 0.96,1.23 -0.33,2.01 -2.52,1.52 -1.51,4.58 1.54,3.13 1.97,-0.89 6.74,-2.89 8.73,-3.37l1.92 -0.6c1.17,1.52 1.96,2.94 4.98,2.53 0,-1.76 -0.5,0.4 -0.73,-3.44 1.24,-0.25 2.93,-0.07 3.66,-0.77 -0.26,-0.82 -2.96,-1.35 -3.66,-1.4 0,-6.11 2.78,-13.86 2.78,-14.41 0,-1.37 -4.4,-4.88 -9.44,0.84 -4.03,4.59 -5.73,7.42 -8.18,12.72 -0.43,0.92 -0.85,1.85 -1.28,2.77zm-79.01 -10.75c-2.06,4.32 -4.85,8.51 -1.76,12.97 3.03,4.36 11.1,5.15 16.06,-2.32 10.57,-15.92 -2.2,-21.38 -10.76,-16.9 -0.71,0.37 -1.22,0.66 -1.66,1.06 -1.63,1.5 -0.49,2.25 -1.89,5.18z"/>
   <path class="fil2" d="M23.43 14.82l-1.39 1.25c-0.52,0 -2.74,-0.45 -2.93,-0.89 -0.12,-0.58 1.23,-1.48 1.5,-2.19 0.3,-0.78 -1.62,-3.82 -4.53,-1.78l-2.25 1.87c-1.9,-0.27 -4.94,-4.04 -7.84,0.32 0.55,0.77 3.84,2.41 4.69,2.42 -0.15,0.55 -0.58,1.15 -0.99,1.56 -0.63,0.62 -0.67,1.45 -2.52,0.2 -2.32,-1.57 -5.85,0.83 -4.85,1.92 0.51,0.56 3.2,1.7 4.1,2.12 -0.19,0.79 -2.72,4.21 -0.43,5.79 0.85,0.59 1.46,0.65 2.34,0.65 2.96,-5.86 2.35,-4.69 5.96,-3.79 1.44,0.36 -1.07,2.66 1.54,3 5.58,0.73 3.31,-1.5 5.31,-0.96 1.17,0.32 1.04,0.16 1.86,0.3 0.87,0.14 3.17,0.76 5.01,0.25 -0.2,-0.86 -0.21,-1.71 -0.11,-2.56 -1.29,-0.19 -3.2,-0.7 -4.84,-0.89 0.02,-0.77 0.37,-0.91 0.76,-1.38 1.09,-1.31 0.2,-1.47 2.6,-1.18 0.22,0.03 1.34,0.26 2.31,0.47 0.39,-1 0.88,-1.99 1.38,-2.99 -0.95,-0.25 -2.31,-0.52 -2.65,-0.53 0.16,-1.04 3.02,-3.58 4.36,-4.16 0.06,-0.47 0.1,-0.87 0.28,-1.26l-0.03 -0c-1.36,-0.03 -3.32,-2 -8.64,2.44zm-9.37 5.91c0.01,-0.63 1.1,-1.93 1.8,-2.46 0.79,-0.6 2.37,0.44 3.18,0.68 -0.3,0.63 -1.5,2.02 -1.98,2.61 -0.93,-0.09 -2.34,-0.73 -3,-0.83z"/>
   <path class="fil3" d="M156.27 32.78c0,-1.08 -0.12,-9.03 2.2,-9.57 0.3,0.86 1.62,4.74 2.78,4.85 0.33,2.02 6.22,4.17 7.43,3.21 1.69,-1.47 2.39,-3.88 2.8,-5.87 0.46,-2.17 1.27,-4.09 1.6,-6.31 0.1,-0.65 0.23,-1.25 0.38,-1.89 0.36,-1.47 0.44,-2.79 0.43,-4.3 -0.04,-2.35 0.04,-1.8 -2.68,-1.8 -1.11,0.1 -1.38,2.96 -1.47,3.68 -0.27,2.02 -0.32,3.79 -1.06,5.75 -0.61,1.58 -0.86,4.39 -1.81,5.59 -0.22,0.28 -0.41,0.43 -0.78,0.55 -2.45,-1.79 -2.39,-7.94 -2.35,-10.58 0.01,-0.79 0.15,-1.04 0.29,-1.76 0.24,-1.26 -0.46,-2.7 -1.99,-3.06 -1.02,-0.24 -3.79,-0.29 -4.74,0.1 -1.13,0.47 -1.41,1.71 -1.72,2.67 -0.39,1.23 -0.68,2.31 -1.18,3.53 -0.42,1.01 -0.78,2.21 -1.15,3.25 -0.74,2.13 -1.23,7.08 -0.86,9.24 0.12,0.72 0.33,1.46 0.88,2.03 0.94,0.84 1.65,0.97 3.01,0.69zm-10.46 -10.73c0.68,-1.16 1.47,-3.71 1.48,-5.05 0.02,-1.82 -0.03,-3.49 -2.77,-2.96 -0.56,0.11 -0.95,0.27 -1.38,0.6 -1.03,0.87 -0.96,1.72 -1.56,2.65 -0.68,1.06 -1.5,2.08 -2.24,3.12 -1,1.44 -1.42,1.95 -1.72,3.61 -0.22,1.21 -0.48,1.82 -0.46,3.13 0.01,0.37 0,0.55 -0.08,0.92 4.57,-0.22 6.69,-2.79 8.72,-6.01zm-71.41 4.48l0 0.38c2.65,0 3.27,-0.77 4.69,-0.77 0,-2.24 0.29,-5.39 -0.15,-7.02 -1.73,1.01 -2.07,2.84 -3.14,4.28 -0.7,0.94 -1.41,1.63 -1.41,3.11zm-5.27 -12.25c-0.12,-1.43 -3.01,-1.42 -4.19,-1.43 -0.8,-0.01 -3.19,-0.03 -3.87,0.15 -1.83,0.49 -1.48,2.21 -2.24,3.29 -0.22,0.37 -3.01,5.86 -2.24,6.22 0.89,0.41 5.9,-2.81 7.02,-3.34 1.32,-0.63 5.52,-3.84 5.52,-4.89zm-1.03 15.18c-1.41,0.1 -1.46,1.47 -1.46,2.55 0.87,0.2 0.01,0.29 0.98,0.11 1.61,-0.3 2.75,-0.1 4.98,-1.42 1.08,-0.64 2.32,-0.51 2.39,-1.24 2.77,0 2.66,-0.89 4.69,-0.89 1.36,0 -0.31,0.04 1.5,1.37 0.68,0.5 1.78,0.57 2.6,0.41 0.26,-0.96 0.04,-2.11 0.29,-3.06 2.68,0 2.56,-0.28 3.07,2.05 0.52,2.38 2.01,3.52 4.4,2.42 0,-1.64 -0.09,-3.38 0.44,-4.97 0.45,-1.34 0.62,-2.69 1.04,-4.06 0.28,-0.92 0.59,-1.83 0.83,-2.76 0.43,-1.68 1.26,-5.03 -1.37,-5.66 -1.35,-0.33 -1.92,-0.14 -2.74,0.87 -1.56,1.94 -2,7.37 -2.82,9.89 -0.03,0.1 -0.07,0.2 -0.11,0.29 -0.45,1.12 -1.58,0.26 -2.76,0.02 -0.11,-4.12 0.29,-6.72 1.61,-10.71 0.67,-2.01 1.52,-4.06 -0.12,-5.13 -2.39,-1.45 -4.64,-0.46 -6.55,1.09 -0.88,0.71 -1.46,1.36 -2.19,2.17 -0.27,0.3 -0.3,0.25 -0.57,0.64 -0.54,0.77 -1.36,1.53 -1.96,2.35 -1.58,2.15 -3.28,5.15 -4.46,7.48 -0.6,1.19 -1.53,3.04 -1.58,4.35 -0.02,0.63 -0.07,1.22 -0.13,1.85zm-18.45 -4.34c0,2.35 -0.62,6.31 1.72,7.81 0.55,0.35 1.62,0.23 2.52,0.23 0.52,-1.93 -0.26,-4.77 0.47,-5.97 0.47,-0.77 1.73,-0.58 3.38,-1.27 2.04,-0.9 5.4,-2.19 6.97,-3.51 2.03,-0.75 3.69,-2.23 5.21,-3.59 1,-0.89 1.69,-1.7 2.14,-2.89l0.07 -0.18c0.9,-2.77 -1.88,-3.88 -4.46,-4.47 -2.51,-0.57 -7.33,-1.15 -9.75,-0.32 -0.38,0.13 -0.67,0.27 -1.02,0.46 -3.25,1.84 -2.1,1.45 -3.5,4.22 -1.04,2.05 -2.14,5.03 -2.63,7.27 -0.34,1.52 -1.13,1.79 -1.13,2.21zm41.89 -15.69c-0.01,0.53 -0.2,1.82 0.27,2.18 0.53,0.41 2.65,0.26 3.29,0.19 0.72,-0.08 0.55,-0.37 0.94,-0.93 0.75,-1.1 1.34,-1.3 0.89,-2.71 -0.44,-1.34 -1.87,-1.15 -3.18,-1.26 -1.49,-0.16 -1.19,-0.06 -1.63,1.32l-0.17 0.53c-0.16,0.48 -0.39,0.26 -0.39,0.68zm57.71 15.87c0.86,-1.58 1.27,-2.48 1.79,-4.19 1.09,-3.82 0.6,-9 -4.89,-9.69 -1.74,-0.22 -5,-0.19 -6.54,0.55 -0.61,0.29 -0.68,0.36 -1.35,0.59 -1.15,0.39 -2.44,1.29 -2.52,2.44 -0.09,1.12 0.09,1.29 -0.85,2.22 -0.88,0.87 -2.35,3.87 -2.7,5.03 -0.51,2.11 -0.07,5.39 1.97,6.82 1.36,0.95 3.43,2.21 5.2,2.32 2.83,0.18 4.66,-0.7 6.68,-2.36 1.29,-1.06 2.42,-2.33 3.21,-3.72z"/>
  </g>
 </g>
</svg>
