<?xml version="1.0" encoding="UTF-8"?>
<!DOCTYPE svg PUBLIC "-//W3C//DTD SVG 1.1//EN" "http://www.w3.org/Graphics/SVG/1.1/DTD/svg11.dtd">
<!-- Creator: CorelDRAW -->
<svg xmlns="http://www.w3.org/2000/svg" xml:space="preserve" width="66.107mm" height="14.2191mm" version="1.1" style="shape-rendering:geometricPrecision; text-rendering:geometricPrecision; image-rendering:optimizeQuality; fill-rule:evenodd; clip-rule:evenodd"
viewBox="0 0 176.34 37.93"
 xmlns:xlink="http://www.w3.org/1999/xlink"
 xmlns:xodm="http://www.corel.com/coreldraw/odm/2003">
 <defs>
  <style type="text/css">
   <![CDATA[
    .fil0 {fill:black}
    .fil2 {fill:#00FE00}
    .fil3 {fill:lime}
    .fil1 {fill:#FEFFFF}
   ]]>
  </style>
 </defs>
 <g id="Camada_x0020_1">
  <metadata id="CorelCorpID_0Corel-Layer"/>
  <g id="_2086654745984">
   <path class="fil0" d="M173.76 12.67c0.88,0 1.68,-0.04 2.28,0.89 0.7,1.11 0.04,2 -0.52,2.83 -0.5,0.74 -0.83,1.23 -2.2,1.34l-3.18 0.42c-0.05,0.01 -0.09,0.02 -0.14,0.02 0.53,0.48 0.74,1.14 0.57,1.83 -0.38,1.55 -1.19,1.91 -2.19,3.22l-0.72 0.71c-0.33,0.51 -0.76,1.01 -1.18,1.42l-2.91 2.53c-1.34,1.15 -5.36,3.17 -6.67,1.1 -1.17,1.36 -1.15,0.85 -1.87,1.57 -0.84,1.01 -1.9,1.25 -3.24,1.25 -1.07,0 -1.93,-0.84 -1.93,-1.89 0,-0.67 0.01,-1.34 0.09,-2.01 -0.84,0.15 -2.6,-0.1 -3.1,-1.3 -0.05,-0.12 -0.09,-0.23 -0.13,-0.35 -2.22,1.81 -1.76,1.8 -2.68,2.68 -0.95,0.91 -3.05,1.76 -4.1,0.24 -1.62,0.73 -4.41,1.2 -5.15,-0.64 -0.23,-0.58 -0.3,-1.27 -0.25,-2.01 -0.87,1.86 -1.97,5.25 -4.29,5.13 -0.76,-0.04 -1.4,-0.48 -1.68,-1.18 -0.65,-1.57 1.16,-4.95 1.87,-6.42 0.23,-0.48 0.47,-0.96 0.71,-1.44 -0.16,0.15 -0.32,0.3 -0.47,0.46 -1.12,1.1 -2.09,2.3 -3.32,3.29l-5.26 5.59c-1.11,1.08 -2.2,2.17 -3.88,2.26 -1.11,0.06 -2.03,-0.8 -2.03,-1.89 0,-1.26 0.18,-1.53 0.51,-2.64l-4.04 6.77c-1.27,2.17 -4.48,1.83 -4.4,-0.48 0.02,-0.63 0.46,-1.68 0.99,-2.76 -1.47,0.02 -2.81,0.27 -3.62,-0.58 -0.31,0.31 -0.73,0.51 -1.21,0.55 -1.81,0.15 -3.69,-0.07 -5.5,-0.11 -0.73,-0.01 -1.36,-0.43 -1.68,-1.03 -3.25,1.81 -8.24,1.19 -11.82,1.19 -0.86,0 -0.16,-0.17 -1.09,-0.07 -1.32,0.14 -4.56,0.18 -5.84,-0.03 -0.37,-0.06 -0.7,-0.22 -0.96,-0.45 -0.4,0.38 -0.88,0.57 -1.44,0.55l-5.45 -0.23c-0.71,-0.03 -1.3,-0.41 -1.63,-1.02 -3.97,2.93 -10.24,2.07 -12.12,-2.65 -0.57,1.06 -1.33,2 -2.35,2.75 -1.93,1.4 -3.52,1.48 -5.81,1.48 -2.93,0 -4.98,-1.54 -6.02,-3.76 -0.8,1.66 -2.2,2.64 -4.07,2.99 -3.15,0.6 -6.94,0.53 -10.15,0.32 -0.13,-0.01 -0.26,-0.03 -0.39,-0.06 -0.24,0.1 -0.51,0.16 -0.79,0.16l-5.19 -0.04c-0.58,-0.07 -1.09,-0.31 -1.46,-0.68 -0.88,0.87 -2.13,0.77 -3.31,0.71l-4.21 -0.25c-1.41,1.86 -4.01,1.38 -4.62,-0.09 -0.27,-0.64 -0.34,-1.35 -0.31,-2.09 -0.36,1.85 -1,4.38 -3.13,4.89 -0.56,0.13 -1.46,0 -1.94,-0.3 -1.91,-1.22 -1.27,-3.79 -0.75,-5.75 -2.24,-0.42 -4.32,-3.86 0.7,-6.11 0.94,-0.42 0.64,-0.79 0.88,-2.58 0.07,-0.5 0.16,-0.99 0.28,-1.48 -3.11,-0.62 -2.99,-4.37 0.5,-5.88 1.42,-0.62 0.66,-0.22 1.28,-3.21 0.45,-2.19 0.74,-5.19 2.8,-6.53 1.65,-1.08 3.45,-0.58 4.47,0.82 1.46,-3.66 5.19,-3.42 6.58,-0.91 1.28,-0.4 6.02,-0.11 7.77,-0.12 1.06,-0.01 1.93,0.84 1.94,1.87l-0.08 2.87 -0.09 1.32c0.45,-3.7 -0.22,-6.11 4.01,-6.07 4.22,0.04 8.94,-0.64 11.05,3.2 0.17,-1.25 0.15,-3.19 2.12,-3.19l5.16 -0c0.36,-0 0.71,0.1 1,0.27 1.11,-0.43 4.62,-0.11 6.1,-0.11 1.04,0 1.87,0.79 1.92,1.77 1.87,-1.92 4.47,-2.8 7.62,-2.22 3.12,0.57 5.3,2.26 5.57,5.47 0.52,-2.14 0.74,-5.12 2.88,-5.13l7.7 -0.02c1.21,-0 2.17,1.04 1.87,2.37l-0.11 2.91c0.42,-2.92 0.14,-5.31 3.34,-5.31 4.53,0 11.05,-0.86 12.63,4.67 0.4,-1.77 0.71,-4.69 3.22,-4.67l7.19 0.06c1.05,0.01 1.9,0.84 1.91,1.87 0.05,6.17 -0.11,12.34 -0.15,18.51l1.12 -2.04c1.27,-2.06 2.28,-4.26 3.46,-6.36 0.2,-0.35 0.42,-0.63 0.63,-0.96 1.38,-2.21 0.88,-6.61 2.17,-9.05 0.72,-1.37 1.99,-2.12 3.58,-1.97 0.12,0.01 0.24,0.03 0.35,0.06 0.3,-0.55 0.56,-1.12 0.86,-1.66 2.15,-3.79 6.73,-1.99 5.2,2.24l-0.47 1.39c-1.41,2.95 -4.07,6.43 -5.74,9.29 -1.21,2.06 -2.06,6.49 -2.72,9.12l8.07 -8.58 6.43 -6.83 4.62 -5.23c3.42,-4.26 6.62,-1.15 6.08,1.84 -0.15,0.81 -0.75,1.81 -1.42,2.43l-2.97 4.36 -2.78 3.95c1.55,-0.53 4.18,-0.18 4.23,2.05 0.62,-0.62 1.38,-1.23 2.05,-1.48 1.4,-0.51 2.76,-0.06 3.29,1.07l1.67 -0.3c0.39,-1.5 1.51,-1.93 2.89,-2.12 0.1,-0.01 0.2,-0.02 0.3,-0.02 0.84,-1.17 1.25,-3.25 3.27,-4.45 1.1,-0.65 2.77,-1.43 3.91,-0.37 0.99,0.91 0.6,2.88 0.27,3.76l5.34 -0.74 5.64 -0.8zm-114.89 7.62l1.79 0.03c-0.75,-0.74 -1.25,-1.27 -1.61,-1.83 -0.07,0.58 -0.13,1.18 -0.18,1.8zm13.11 -2.12l0.51 -3.17c-0.5,0.21 -2.2,0.26 -2.79,0.28 1.06,0.98 1.77,1.78 2.28,2.89z"/>
   <path class="fil1" d="M20.73 22.13c0.17,-1.61 1.7,-7.59 2.12,-9.34 0.49,0.62 -0.09,8.45 -0.14,9.37l-1.98 -0.03zm85.17 0.02c0.01,-1.13 1.34,-6.75 1.76,-8.49 0.25,-1.04 0.25,-0.73 0.48,-0.89 0.14,0.74 -0.27,7.71 -0.26,9.35l-1.98 0.03zm-6.93 9.05c1.52,0.03 3.81,0.23 5.31,0.11 0.59,-1.32 0.52,-3.26 0.99,-4.64l1.94 0.02 0.01 3.03c-0.07,0.77 -0.24,0.59 -0.17,1.64l4.15 -0.05c0.85,-1.72 1.3,-1.56 1.3,-4.66 0,-6.89 0.22,-14.01 0.16,-21.11l-7.19 -0.06c-0.73,0 -0.92,1.4 -1.22,2.72 -0.83,3.67 -1.53,6.15 -2.18,10 -0.13,0.79 -0.64,2.09 -0.87,3.01 -0.36,1.43 -2.23,9.08 -2.24,9.98zm-7.59 -4.2c0,-0.94 0.14,-1.38 0.28,-2.23 0.11,-0.65 0.15,-1.7 0.21,-2.33l1.52 -11.29c0.19,-1.15 -0.12,-1.48 1.28,-1.22 0.9,0.58 -0.2,5.44 -0.31,6.71l-0.87 7.06c-0.33,1.97 -0.04,2.69 -2.12,3.3zm-5.94 4.37c2.77,0 6.22,0.32 8.63,-0.19 3.28,-0.7 3.75,-1.84 4.37,-4.74l1.68 -11.75 0.34 -3.06c0.04,-0.7 0.41,-1.85 -0.24,-3.41 -1.43,-3.42 -6.47,-2.73 -10.57,-2.73 -0.93,0 -0.97,-0.16 -1.26,2.52 -1.13,7.77 -2,15.56 -2.95,23.35zm-5.88 -9.28c-2.55,0.35 -1.94,-0.34 -1.79,-0.95l1.36 -5.48c0.32,-1.36 0.27,-2.22 0.86,-2.66l-0.43 9.09zm-8.81 9.04l5.45 0.23c0.02,-0.72 0.68,-4.07 0.92,-4.65 3.07,-0.23 1.72,-0.28 1.72,4.58 0.97,0.16 4.12,0.14 5.31,0.02l0.41 -25.78 -7.7 0.02c-0.44,0.79 -0.59,2.02 -0.85,3.02 -1.82,7.5 -3.38,15.03 -5.25,22.57zm-6.1 -3.81c-2.18,-0.03 -1.23,-2.77 -0.86,-5.17 -0.82,0.23 -3.4,0 -4.66,0 -0.71,0.17 -0.81,5.09 -0.68,5.7 1.21,5.52 9.89,5.18 11.66,-0.48 0.3,-0.95 0.93,-4.62 0.75,-5.85 -0.33,-2.3 -0.75,-3.23 -2.16,-4.56 -0.97,-0.91 -2.83,-2.47 -3.35,-3.33 -0.74,-1.21 -0.31,-4.82 1.36,-4.12 0.67,0.38 -0.14,3.36 0,3.72 2.91,0.21 2.19,0.19 5.01,0.03 0,-2.55 1.97,-7.04 -3.69,-8.09 -3.82,-0.7 -6.31,1.2 -7.63,4.46 -0.43,1.07 -0.73,4.09 -0.47,5.45 0.45,2.4 0.76,2.59 2.17,3.98 0.73,0.72 2.62,2.36 3.02,3.2 0.55,1.17 0.6,3.67 -0.48,5.06zm-20.81 -1.31c0,3.03 1.59,5.68 4.91,5.68 1.84,0 3.11,0.02 4.66,-1.11 3.57,-2.59 3.23,-9.24 3.87,-13.37l0.58 -3.8c0.16,-2.32 0.45,-3.69 0.68,-5.79 0.07,-0.64 0.27,-1.34 0.31,-1.96 -1.4,0 -4.73,-0.24 -5.38,-0.03 -0.44,1.39 -1.56,10.3 -1.55,11.33 0.02,1.91 -0.7,3.63 -0.82,5.67 -0.06,1.04 -0.19,2 -0.3,2.95 -0.13,1.17 -0.13,1.87 -1.52,1.7 0,-3.69 1.12,-11.36 1.7,-15.58 0.29,-2.09 0.79,-4.2 0.77,-6.2l-5.16 0.01 -2.76 20.51zm-8.41 -6.26c1.03,-0.08 1.43,-0.07 1.49,0.91 0.13,2.08 -0.25,2.44 -0.48,4.1 -0.22,1.6 -0.19,2.02 -2.01,2.21l1 -7.21zm0.48 -3.95c0,-1.42 0.39,-2.65 0.5,-4.17 0.05,-0.68 0.01,-1.66 0.64,-1.78 1.99,-0.37 1.03,3.97 0.74,4.92 -0.25,0.81 -0.93,1.04 -1.88,1.03zm-7.29 15.44c2.98,0.19 6.81,0.25 9.65,-0.29 3.07,-0.59 3.13,-3.1 3.52,-5.64 0.27,-1.77 1.02,-4.95 0.04,-6.44 -0.53,-0.81 -1.11,-0.76 -1.8,-1.27 0.52,-1.58 3.3,0.48 3.3,-7.92 0,-1.42 -1.01,-3.06 -2.06,-3.5 -2.23,-0.94 -5.13,-0.67 -7.88,-0.7 -2.45,-0.02 -1.36,0.09 -2.31,6.11 -0.25,1.57 -0.44,3.16 -0.66,4.85 -0.1,0.78 -0.15,1.7 -0.27,2.48l-1.53 12.32zm-14.83 -0.06c6.66,0.16 5.35,0.81 5.94,-1.94 0.18,-0.84 0.25,-1.59 0.39,-2.51l2.07 -0.07 -0.18 4.43c0.02,0.29 0.65,0.23 0.87,0.22l4.45 0.02c0.07,-8.65 0.07,-17.21 0.33,-25.85 -7.78,0.04 -7.49,-0.8 -8.22,1.81l-3.73 15.73c-0.7,2.74 -1.18,5.52 -1.91,8.15z"/>
   <path class="fil2" d="M8.35 22.63c0.02,-0.75 0.15,-0.66 0.34,-1.28 0.39,-1.35 0.85,-4.64 1.98,-5.33 0.5,-0.3 1.49,-0.65 2.3,-0.65 0.02,1.33 -0.18,1.52 -0.5,3.05 -0.43,2.08 0.13,2.46 -2.07,3.48 -0.51,0.24 -1.5,0.71 -2.04,0.74zm7.22 -18.16c-1.37,1.82 -0.94,5.98 -1.94,6.7 -0.35,0.25 -2.05,1.09 -2.47,1.11 0.03,-1.06 1.58,-4.36 0.81,-6.13 -0.32,-0.73 -1.05,-1.41 -2.06,-0.75 -1.93,1.26 -1.95,7.11 -2.56,8.48 -0.7,1.56 -1.94,0.96 -3.06,2.35 -0.71,0.88 -0.24,1.4 0.76,1.41 1.3,0.01 2.12,-0.76 1.42,1.19 -1.29,3.61 0.11,5.19 -2.56,6.39 -3.18,1.43 -1.85,2.7 -0.54,2.55 1.04,-0.12 1.69,-0.83 1.14,1.42 -0.3,1.21 -1.54,4.74 0.13,4.64 0.51,-0.12 0.91,-0.73 1.08,-1.2 1.53,-4.18 -0.01,-5.72 3.5,-6.75 2.16,-0.63 1.99,-1.1 1.61,1.07 -0.2,1.15 -1.02,3.95 -0.5,5.2 1.35,0.64 1.75,-1.21 2.01,-2.26l2.25 -7.17c0.41,-1.41 0.33,-2.6 0.65,-4.05 0.15,-0.7 0.4,-1.02 0.59,-1.68 0.51,-1.84 2.61,-9.5 2.65,-11.24 0.04,-1.74 -1.77,-2.78 -2.89,-1.29z"/>
   <path class="fil3" d="M136.78 14.07l0.17 -0.18c0.83,-0.59 1,-1.23 1.93,-1.74 -0.03,1.02 -1.06,2.04 -1.66,3.13l-1.69 3.19c-0.29,0.43 -0.39,0.52 -0.63,1.01 -0.79,1.59 -4.94,9.36 -4.55,10.3 0.82,0.04 2.23,-3.69 2.79,-4.75 0.28,-0.54 0.41,-0.64 0.69,-1.26 0.26,-0.6 0.4,-0.68 0.76,-1.21 1.51,-2.37 2.77,-4.96 4.56,-7.34l6.05 -8.74c0.4,-0.28 0.9,-1.07 0.98,-1.5 0.16,-0.87 -0.41,-3.15 -2.67,-0.34 -1.81,2.25 -3.66,4.02 -4.66,5.29l-6.49 6.89 -9.73 10.34c-0.7,0.75 -2.37,3.13 -3.36,3.41l1.96 -7.83c0.66,-2.4 1.21,-6.09 2.69,-8.69 1.48,-2.43 4.58,-6.87 5.67,-9.14 0.22,-0.49 0.24,-0.79 0.4,-1.22 0.76,-2.11 -0.72,-2.43 -1.7,-0.7 -0.43,0.75 -0.67,1.39 -1.13,2.12 -0.73,1.17 -1.68,3.76 -2.61,4.11 0.07,-1.23 0.95,-2.6 0.66,-3.67 -3.27,-0.31 -1.72,6.63 -3.92,10.13 -0.22,0.35 -0.37,0.51 -0.59,0.88 -1.12,1.99 -2.2,4.32 -3.5,6.42 -0.46,0.75 -0.63,1.13 -1.04,1.9 -1.21,2.28 -5.93,9.96 -5.98,11.18 1.02,-0.32 0.6,-0.48 1.56,-1.79l8.26 -13.87c0.29,-0.5 0.36,-0.79 0.8,-0.97 0.28,0.61 -1.97,9.94 -2.36,11.09 -0.24,0.71 -0.34,0.87 -0.34,1.82 1.07,-0.06 2.05,-1.14 2.63,-1.71l5.3 -5.63c1.21,-0.96 1.99,-1.99 3.28,-3.25 2.04,-2 1.47,-1.35 3.15,-3.38 1.13,-1.22 3.34,-2.99 4.32,-4.3zm37.14 1.25c0.33,-0.38 0.29,-0.38 0.48,-0.76 -1.81,0.01 -12.55,1.75 -15.34,2.1 0.07,-1.38 1.85,-1.73 2.05,-3.76 0.16,-1.6 -1.35,-0.69 -1.96,-0.13 -1.41,1.31 -1.88,4.08 -3.22,4.34 -1.36,0.27 -1.71,0.01 -1.91,0.77 2.18,-0.14 1.32,-0.17 1.9,0.21 -1.66,3.66 -2.18,2.5 -3.85,4.61 -0.47,0.6 -1.03,0.93 -1.4,1.53 -0.56,0.31 -0.14,0.26 -0.83,0.36l1.98 -3.92c2.01,-3.94 -4.44,1.53 -4.83,1.89 -0.57,0.53 -0.81,1.11 -1.77,1.19 0.58,-1.1 3.54,-4.13 3.57,-4.88 0.02,-0.61 -0.35,-0.69 -0.93,-0.48 -1.78,0.64 -6.91,8.62 -10.25,8.77 -0.31,-1.19 0.27,-1.59 0.35,-2.75 1.35,0 1.56,0.15 2.52,-0.47 0.7,-0.45 1.01,-0.83 1.49,-1.45 0.98,-1.28 1.31,-2.36 1.25,-4.52 -3.44,-1.97 -7.55,7.52 -6.61,9.87 1.52,0.51 3.75,-0.98 4.4,-1.62 0.84,-0.83 1.68,-2.11 2.7,-2.11 -0.23,1.02 -1.67,2.04 -2.13,4.01 1.19,-0.29 1.25,-0.7 1.88,-1.44 0.82,-0.96 4.47,-4.08 5.7,-4.03 -0.06,1.04 -1.07,1.85 -0.5,3.23 1,0.2 0.99,0.29 1.34,-0.18 0.58,-0.18 0.48,-0.23 0.89,-0.79 0.82,-1.11 1.19,-1.03 1.61,-1.47 0.39,-0.55 0.71,-0.7 0.99,-1.13 1.24,0.35 -1.67,2.27 -1.67,7.6 1.77,-0 1.51,-0.57 2.61,-1.32 0.44,-0.24 0.59,-0.26 0.87,-0.66 0.54,-0.56 0.93,-1.2 1.47,-1.77 0.83,-0.86 0.92,-1.68 1.96,-1.89 -0.07,1.29 -0.85,2.19 -0.17,3.7 2.31,-0.01 3.82,-1.66 4.67,-2.28 0.41,-0.3 0.46,-0.31 0.72,-0.65 0.44,-0.22 0.25,-0.08 0.63,-0.44 0.23,-0.22 0.34,-0.35 0.57,-0.57 0.37,-0.36 0.79,-0.87 1.03,-1.3l0.65 -0.59 0.68 -0.85c0.47,-0.5 1,-0.85 1.21,-1.72 -1.28,0.29 -1.45,1.05 -2.17,1.96 -0.33,0.42 -0.42,0.3 -0.65,0.78 -0.44,0.29 -0.92,0.74 -1.26,1.22 -0.49,0.68 -0.94,0.74 -1.24,1.43 -0.46,0.13 -0.53,0.13 -0.88,0.55 -0.54,0.64 -0.01,0.21 -0.81,0.65 -0.64,0.35 -1.08,0.8 -1.96,1 -0.4,0.15 -0.18,0.27 -0.34,-0.18 0,-0.6 0.03,-1.27 0.12,-1.67 0.46,-1.9 1.37,0.08 3.57,-2 0.66,-0.62 1.18,-1.24 1.49,-2.25 0.31,-1.02 1.16,-3.69 -0.9,-3.29 -1.39,0.27 -2.14,1.47 -2.96,2.48l-3.8 4.6c-0.28,0.76 -0.94,1.14 -1.32,1.83 -0.58,0.35 -0.43,0.4 -0.85,0.9 -0.32,0.38 -0.93,0.71 -1.46,1.36l-0.66 -0.01c0.21,-1.96 4.8,-10.87 5.27,-11.19 1.05,-0.6 3.52,-0.54 4.85,-0.72 2.54,-0.35 5.09,-0.49 7.65,-0.84l2.83 -0.34c0.64,-0.16 0.42,-0.04 0.71,-0.53zm-13.38 8.29c0.11,-1.03 0.95,-1.98 1.6,-2.66 0.47,-0.5 0.51,-0.76 1.06,-0.89 0.44,0.73 -0.6,3.48 -2.65,3.55zm-21.77 -0.01c0.58,-1.37 -0.32,-0.21 1.1,-2.16 0.42,-0.57 0.82,-1.35 1.67,-1.35 0.03,1.07 -0.79,3.54 -2.78,3.51z"/>
  </g>
 </g>
</svg>
