<?xml version="1.0" encoding="UTF-8"?>
<!DOCTYPE svg PUBLIC "-//W3C//DTD SVG 1.1//EN" "http://www.w3.org/Graphics/SVG/1.1/DTD/svg11.dtd">
<!-- Creator: CorelDRAW -->
<svg xmlns="http://www.w3.org/2000/svg" xml:space="preserve" width="66.107mm" height="15.5177mm" version="1.1" style="shape-rendering:geometricPrecision; text-rendering:geometricPrecision; image-rendering:optimizeQuality; fill-rule:evenodd; clip-rule:evenodd"
viewBox="0 0 176.34 41.39"
 xmlns:xlink="http://www.w3.org/1999/xlink"
 xmlns:xodm="http://www.corel.com/coreldraw/odm/2003">
 <defs>
  <style type="text/css">
   <![CDATA[
    .fil0 {fill:black}
    .fil3 {fill:#FA0001}
    .fil2 {fill:yellow}
    .fil1 {fill:white}
   ]]>
  </style>
 </defs>
 <g id="Camada_x0020_1">
  <metadata id="CorelCorpID_0Corel-Layer"/>
  <g id="_2086861683984">
   <path class="fil0" d="M74.31 7.54c-4.79,0.23 -3.73,0.97 -5.69,1.38l-3.32 -5.63c-0.59,-0.78 -1.63,-1.48 -2.99,-1.7 -1.7,-0.27 -2.96,0.43 -4.05,0.94 -2.18,1.03 -4.48,2.05 -6.52,3.04 -0.99,0.48 -5.92,2.98 -6.44,3 -0.05,-2.69 -2.58,-4.14 -5.3,-4.93 -2.89,-0.84 -6.97,-0.52 -10.2,-0.51 -6.86,0.02 -21.35,0.87 -26.4,2.96 -1.5,0.62 -3.4,1.62 -3.39,3.38 0.01,1.81 2.68,6.37 8.39,5.24 1.22,-0.24 4.95,-1.43 5.76,-1.42 -0.3,0.27 -0.52,1.15 -0.74,1.69 -2.42,6.13 -7.68,20.05 2.09,22.69 3.22,0.87 8.34,1.26 8.56,-2.8 0.93,0.29 1.73,1.01 4.51,1.65 1.99,0.46 4.01,0.56 6.01,0.07 2.22,-0.55 5.82,-2.48 7.03,-3.86 0.65,-0.74 0.46,-0.6 0.96,-0.75 0.89,1.58 3.32,6.25 4.41,7.11 1.04,0.83 2.95,1.4 4.73,0.79 1.38,-0.48 3.08,-1.59 4.38,-1.92 0.67,1.58 4.17,2.44 6.04,1.47 1.03,-0.53 0.64,-0.67 1.18,-1.47 0.52,0.16 0.75,0.42 1.31,0.66 3.12,1.37 4.1,0.62 5.39,0.46 0.87,-0.1 2.33,1.09 5.51,0.69 1.62,-0.2 4.23,1.81 9.28,0.02 3.3,-1.17 4.25,-2.83 5.22,-3.16 0.68,0.28 1.26,0.7 2.09,1.05 4.36,1.82 9.16,1.99 13.75,0.56 1.19,-0.37 1.57,0.28 4.26,-0.02 0.92,-0.1 0.68,-0.17 1.34,-0.29 1.23,1 1.33,1.8 3.75,2.1 3.09,0.38 6.91,-1.72 7.5,-4.38 0.37,-1.7 -0.79,-3.36 -0.8,-4.77 1.77,0.86 3.58,3.1 4.71,4.69 2.83,3.97 1.66,4.35 5.06,4.54 3.35,0.18 5.81,-0.53 7.51,-2.15 2.55,-2.43 1.09,-4.07 0.55,-7.03 1.51,0.59 2.46,1.8 3.33,2.75 -0.85,1.68 -1.4,3.47 1.46,4.85 0.65,0.31 1.63,0.38 2.27,0.62 0.54,0.75 0.35,0.71 1.62,0.84 2.58,0.26 4.23,0.09 5.95,-1.77 9.74,0.09 11.08,2.47 13.85,3.04 1.62,0.33 3.68,-0.14 4.89,-0.68 3.35,-1.5 4.34,-4.29 1.76,-5.98 -1.25,-0.82 -4.14,-1.87 -5.78,-2.41 -0.82,-0.27 -1.53,-0.36 -2.26,-0.62l0.22 -0.23c0.48,-0.41 0.66,-0.41 1.18,-1.12 1.46,-2 0.27,-4.05 -2.52,-4.91 1.43,-0.58 3.87,-2.95 2.73,-5.54 -1.04,-2.35 -1.65,-4.39 -1.97,-7.08 -0.17,-1.42 0,-2.43 -0.8,-3.53 -1.74,-2.39 -6.61,-2.21 -9.64,1.84 -2.4,0.34 -5.49,-1.5 -11.45,2.77 -1.6,-0.84 -6,-2.98 -7.22,-3.82 -1.96,-1.36 -1.04,-0.51 -3.24,-2.33 -1.75,-1.45 -1.78,-1.29 -2.41,-3.03 -0.7,-1.94 -4.22,-3.1 -7.31,-0.02 -0.77,0.76 -2,1.92 -2.49,2.96 -0.34,0.73 -0.38,1.24 -0.25,2.04 0.14,0.85 0.58,1.3 0.74,1.99 -1.58,-0.5 -7.97,-4.59 -8.45,-6.38 -0.4,-1.5 -1.31,-2.65 -3.87,-2.48 -2.07,0.14 -3.97,2.12 -5.08,3.42 -0.87,1.01 -1.12,1.36 -1.29,2.84 -1.45,-0.22 -4.11,-1.5 -7.91,-1.43 -1.38,0.02 -2.98,0.21 -4.16,0.49 -1.95,0.45 -3.09,1.03 -3.63,1.16 -2.19,-2.8 -0.4,-9.36 -5.81,-9.23 -3.02,0.08 -6.19,3.98 -7.43,6.14 -0.36,0.63 -0.27,0.84 -0.48,1.4z"/>
   <path class="fil1" d="M102.91 31.88c-0.63,0.83 -2.51,1.45 -4.2,1.08 -4.47,-0.97 -4.68,-6.87 -4.59,-10.28 0.73,0.14 0.95,0.63 1.33,1.06l5.4 5.84c0.36,0.4 0.7,0.75 1.08,1.2 0.3,0.36 0.69,0.72 0.97,1.11zm-60.17 -2.89l-1.63 -3.08c-0.34,-0.53 -0.59,-0.9 -0.88,-1.47 -0.86,-1.69 -0.51,-1.19 -0.98,-1.27 -2.44,3.65 -5.97,7.99 -11.36,8.9 -0.34,-6.02 5.01,-11.86 8.27,-14.68 -0.25,-0.84 -0.76,-0.41 -0.35,-1.8 0.35,-1.17 0.87,-1.13 1,-1.19 0.61,-0.3 0.8,-0.6 1.5,-0.92 0.46,-0.22 1.22,-0.55 1.43,-0.76 0.5,-0.12 0.7,-0.25 1.08,-0.42 -3.95,-0.94 -8.45,-0.51 -11.97,1.32 -1.36,0.71 -1.69,1.01 -2.22,2.49 0.23,0.32 0,0.27 0.56,0.34 -1.66,1.28 -5.42,11.76 -5.02,13.41 0.4,1.66 1.65,2.96 2.67,3.69 2.51,1.78 7.19,2.63 10.69,1.25 2.48,-0.98 4.07,-2.38 5.72,-4.01 0.63,-0.62 0.94,-1.24 1.48,-1.78zm-15.89 -19.31c2.66,-0.3 5.49,-0.19 8.18,-0.42 1.29,-0.11 2.76,-0.04 4.12,-0.16 1.79,-0.15 2.14,0.05 3.04,-0.9 -0.26,-1.12 -1.81,-1.79 -3.08,-2.25 -3.84,-1.42 -22.2,0.05 -26.26,0.6 -2.06,0.28 -3.89,0.5 -5.84,0.95 -1.9,0.44 -4.34,1.05 -3.6,2.68 0.66,1.45 1.73,2.75 4.05,2.34 1.86,-0.33 3.42,-0.99 5.32,-1.38 2.02,-0.41 3.78,-0.61 6.02,-0.84l-2.89 6.74c-1.53,3.87 -3.86,11.12 -2.63,15.18 1.31,4.32 7.92,4.39 7.57,2.83 -0.11,-0.48 -0.4,-0.33 -0.58,-1.62 -0.74,-5.31 4.49,-15.2 6,-20.28 0.8,-2.7 0.37,-1.66 0.55,-3.48zm46.76 25.38c1.6,-0.18 3.83,-3.27 4.47,-4.74 0.42,-0.98 0.59,-1.34 -0.51,-1.89 -1.45,1.08 -3.2,3.24 -3.96,4.86 -0.39,0.82 -0.77,1.15 0.01,1.76zm5.06 2.53c0.07,0.02 0.33,0.07 0.4,0.09 0.23,0.04 0.62,0.1 0.83,0.12 3.65,0.37 7.25,-2.26 8.7,-4.36 -0.28,-0.46 -0.53,-0.69 -0.81,-1.08 -0.33,-0.47 -0.38,-0.72 -0.59,-1.17 -1.06,0.45 0.21,0.85 -2.18,0.81 -1.21,-0.02 -1.66,-0.33 -2.69,-0.42 -0.26,1.22 -0.99,2.39 -1.64,3.26 -1.2,1.6 -2.09,2.04 -2.55,2.55l0.52 0.21zm-10.05 -24.78c-0.47,0.92 -1.59,2.03 -2.26,3.24 -0.65,1.18 -1.22,2.23 -1.26,3.87 -0.04,1.77 1.56,6.64 2.69,7.6 0.6,-0.45 0.32,-0.83 1.25,-1.25 0.14,-0.3 -0,-0.23 0.56,-0.32 0.2,-0.03 0.78,-0.01 0.99,0.02 2.06,0.3 -0.32,0.91 2.69,-0.25 0.44,-0.17 1.03,-0.31 1.43,-0.46 -0.89,-1.46 -4.79,-7.01 -4.38,-8.94 0.54,0.34 1.4,0.6 2.13,1.04l9.42 6.79c1.63,1.11 2.94,2.76 3.44,2.5 0.66,-0.34 0.41,-0.82 0.41,-1.67 -0.01,-1.55 0.32,-3.53 0.74,-4.98 0.16,-0.56 1,-2.66 0.97,-2.86 -0.08,-0.44 -0.82,-0.88 -1.24,-2.72 -0.25,-1.09 -0.71,-1.91 -1.07,-2.89l-2.75 -8.89c-1.23,0.53 -3.07,2.56 -3.97,3.77 -1.4,1.88 -0.19,3.57 0.18,5.73 -0.67,-0.17 -0.68,-0.32 -1.23,-0.64 -2.22,-1.28 -4.58,-1.71 -6.88,-0.14 -0.37,0.25 -0.66,0.47 -0.96,0.74l-0.91 0.7zm76.97 22.32c-0.24,0.34 -0.18,0.79 0.03,1.09 0.31,0.45 0.85,0.62 1.62,0.63 -0.09,-0.3 -0.88,-1.73 -1.32,-1.99 -0.24,0.16 -0.07,-0.1 -0.33,0.27zm-30.88 -18.72c0.83,0.18 2.58,1.28 3.46,1.72 0.86,0.42 3.22,1.36 3.48,1.79l-5.59 2.11 -1.35 -5.61zm-4.53 -3.26c-1.35,1.83 -0.86,0.57 1.92,4.77 2.38,3.6 3.05,7.79 1.63,11.83 -0.36,1.03 -0.75,1 -0.42,2.21 1.18,4.24 0.86,6.13 3.4,5.56 0.8,-0.18 1.59,-0.71 2.05,-1.25 1.65,-1.95 -1.37,-6.38 -1.43,-9.64 2.77,0.39 6.87,2.24 8.36,3.42 0.96,0.76 1.93,1.79 2.78,2.85 0.33,0.41 2.18,2.98 2.3,3.32l-2.32 -8.83c-0.25,-1.16 -0.36,-0.98 -1.34,-1.51 -3.4,-1.85 -3.93,-1.47 -6.59,-2.55 0.47,-0.57 0.82,-0.5 1.71,-0.87 1.52,-0.63 3.61,-2.33 4.01,-3.35 0.2,-0.53 -0.15,-1.27 -0.27,-1.82 -0.24,-1.03 -0.06,-0.94 -1.02,-1.4 -2.7,-1.28 -7.49,-3.7 -9.88,-5.42 -0.81,-0.59 -3.29,-2.79 -3.82,-3.52 -0.37,-0.52 -0.51,-1.23 -0.83,-1.71 -0.72,0.29 -3.43,2.81 -3.36,3.79 0.13,1.81 2.3,3.27 3.12,4.12zm49.36 -1.96c-1.41,1.27 -0.84,1.75 -0.78,3.28 -0.66,0 -1.39,-0.63 -3.22,-1.04 -4.02,-0.91 -7.25,0.28 -9.55,2.96 0.25,0.88 0.62,1.08 0.1,2.24 -0.35,0.78 -0.99,1.38 -1.26,1.92 -0.41,0.83 -0.01,3.7 1.42,4.57 4.46,2.71 3.68,3.78 5.38,4.31 0.66,0.21 2.31,0.47 2.68,0.69l-2.22 1.05c0.08,0.55 0.61,1.52 0.84,2.22 0.33,1.01 0.21,1.65 0.38,2.63 1.6,0.08 2.45,-0.16 5.59,0.14 8.54,0.82 9.98,4.77 13.56,1.92 1.77,-1.41 0.1,-1.96 -1.43,-2.6 -4.93,-2.07 -9.22,-2.71 -15.1,-2.66 2.95,-2.45 10.12,-1.44 9.67,-4.89 -1.86,-1.4 -6.64,-0.16 -9.55,-0.62 -7.39,-1.17 -6.86,-9.5 -3.91,-11.12 1.95,-1.07 6.23,3.3 7.28,4.63 0.35,0.44 0.84,0.83 1.1,1.32 0.61,1.16 0.49,2.57 2.66,1.76 1.01,-0.37 2.24,-1.43 2.43,-2.47 0.13,-0.72 -0.25,-1.14 -0.51,-1.78 -0.73,-1.83 -1.23,-3.4 -1.62,-5.34 -0.15,-0.76 -0.34,-3.68 -0.59,-4.03 -0.8,-1.16 -3.04,0.6 -3.39,0.91zm-19.95 8.72c-0.38,0.26 -4.99,1.94 -5.67,2.04 -0.07,-0.84 -0.45,-2.01 -0.66,-2.87 -0.17,-0.71 -0.58,-2.09 -0.62,-2.68 0.38,0.07 6.73,3.22 6.95,3.5zm-10.71 2.95c-0.01,0.65 -0.28,0.78 0.04,1.48 0.22,0.48 0.31,0.32 0.55,0.96 0.28,0.75 0.45,1.61 0.65,2.39 0.41,1.62 0.79,3.13 1.22,4.73 0.77,2.8 0.82,6.56 4.09,4.76 0.82,-0.45 1.16,-0.65 1.62,-1.45 0.64,-1.12 -0.03,-2.01 -0.36,-3.2l-1.51 -5.87c1.28,0.01 3.95,1.07 5.13,1.54 4.45,1.77 7.03,5.68 9.25,9.45 2.94,0.1 2.3,-2.94 1.64,-4.6 -1.87,-4.7 -4.76,-7.08 -9.98,-8.86 -1.33,-0.46 -2.48,-0.57 -2.77,-1.1 2.07,-0.94 4.3,-1.46 5.87,-4.27 0.91,-1.62 0.17,-2.1 -1.28,-2.81 -5.16,-2.52 -8.62,-4.2 -12.71,-7.81 -1.62,-1.43 -1.41,-1.61 -1.88,-2.75l-0.12 -0.21c-0.67,0.27 -1.51,1.17 -2.02,1.68 -0.5,0.52 -1.34,1.28 -1.31,2.13 0.04,1.25 1.55,2.84 2.6,3.72l0.46 0.37c-0.71,1.58 -1.52,0.21 -0.37,4.74 0.24,0.96 1.18,4.25 1.18,4.97zm-34.2 -8.81c0.49,-0.39 2.56,-0.08 3.02,0.02 5.3,1.23 8.81,7.38 8.45,12.8 -0.87,-0.27 -1.22,-1.01 -1.76,-1.57l-5.87 -6.42c-0.47,-0.57 -0.93,-1.05 -1.45,-1.59 -0.75,-0.8 -2.96,-2.79 -2.4,-3.24zm16.1 18.11c0.16,-0.45 0.73,-1.04 1.26,-2.17 1.25,-2.71 1.12,-5.66 0.22,-8.38 -1.17,-3.54 -3.41,-5.97 -5.74,-7.97 -7.06,-6.05 -21.92,-3.63 -18.26,2.12 1.8,2.83 0.91,-0.1 -0.34,4.64 -1.42,5.36 -0.7,11.31 4.5,14.51 3.25,2 7.83,2.47 12.12,1.12 1.47,-0.46 1.13,-0.74 2.68,-0.32 1.06,0.29 2.24,0.19 3.21,-0.03 0.92,-0.21 1.9,-0.75 1.76,-1.62 -0.11,-0.67 -1.07,-1.37 -1.4,-1.89z"/>
   <path class="fil2" d="M48.51 16.73c-0.72,0 -1.3,-0.34 -1.99,-0.35l0.12 -0.71c1.29,-0 1.77,-0.7 2.32,0.05 0.18,0.25 0.22,0.28 0.38,0.48 -0.13,0.17 -0.59,0.53 -0.84,0.53zm-6.48 7.27l0 -0.09 -0.12 0.07 0.12 0.01c0.16,0.59 1.37,2.61 1.81,3.43 0.15,0.27 0.26,0.44 0.42,0.71l2.4 4.07c0.87,1.53 2.13,4.92 3.99,4.7 1.61,-0.19 3.13,-1.4 3.98,-1.68 0.59,-0.19 2.01,-0.77 2.29,-1.16 0.19,-0.26 0.87,-2.87 0.87,-3.33 -2.89,0 -2.47,-0.44 -3.97,-0.44 -0.3,-1.1 -0.99,-2.45 -0.46,-4.02 0.25,-0.74 0.46,-0.2 0.46,-1.2 -0.54,0.01 -0.62,0.13 -0.77,0.49 -0.16,0.38 -0.22,0.55 -0.46,0.85 -0.79,0.99 -2.91,0.77 -0.12,3.7 0.41,0.43 0.47,0.24 0.31,0.8l-1.78 -1.15c-0.34,0.25 -0.31,0.35 -0.94,0.35 0,-1.39 0.13,-0.91 0.21,-1.68 -0.72,0.14 -2.03,0.75 -2.72,0.89 0.36,-0.45 0.44,-0.77 0.73,-1.24 0.52,-0.86 1.02,-1.21 1.57,-2.39 0.1,-0.22 0.21,-0.45 0.27,-0.75 0.21,-0.97 -0.01,-0.82 -0.58,-1.12 -0.28,-0.14 -0.35,-0.28 -0.63,-0.44 -1.55,0.88 -2.14,1.89 -4.91,3.01 -0.28,-0.44 -1.6,-2.17 -1.99,-2.39zm16.3 -5.76c0.04,0.3 -0.04,0.35 0.84,0.35 -0.02,-0.75 -0.82,-0.37 -0.84,-0.35zm0.52 5.67l0 0.35c0.53,0.04 0.71,0.3 0.73,-0.35 -0.26,-0.06 -0.27,-0.15 -0.73,0zm-1.67 -6.73c0.07,0.69 1.27,0.85 0.92,0.3 -0.25,-0.39 -0.55,-0.42 -0.92,-0.3zm-2.51 7.27c0.67,-0.05 1.42,-0.54 1.78,-0.62l0 -0.18c-0.53,0 -0.66,0.11 -1.09,0.23 -0.46,0.13 -0.65,0.13 -0.69,0.57zm8.67 -13.02c0.29,0.02 0.23,0.01 0.42,0.09 0.08,-0.81 0.1,-0.14 -0.1,-0.89l-0.84 0c0.08,0.28 0.13,0.26 0.21,0.53 -0.51,-0.29 -0.95,-0.7 -2.01,0.52 -0.28,0.33 -0.18,0.37 0.03,0.64l-0.52 0 0.07 0.98c0.61,0.11 0.79,0.11 1.29,-0.09 0,-0.82 -0.25,-0.28 -0.73,-0.89 0.67,0.13 1.76,-0.04 2.11,-0.34 0.23,-0.2 0.11,-0.23 0.08,-0.54zm-2.72 2.66c0.03,0.32 0.13,0.42 0.21,0.71 0.64,-0.01 1.03,-0.46 1.08,-0.77 0.08,-0.49 -1.14,-0.01 -1.29,0.06zm5.33 14.44l0 1.24c0.47,-0.01 0.55,-0.1 0.94,-0.18 -0.08,-0.3 -0.16,-0.53 -0.27,-0.83 -0.19,-0.51 -0.07,-0.45 -0.56,-0.67 -0.05,0.2 -0.1,0.2 -0.1,0.44zm-16.51 -10.1c1.3,-0.09 1.27,-1.87 1.46,-2.22 -0.88,0.06 -1.45,1.83 -1.46,2.22zm14.52 -7.27c0,0.39 0.1,1.59 0.73,1.59 1.39,0 2.12,0.28 0.92,-1.22 -0.32,-0.4 -0.69,-0.8 -1.44,-0.81 -0.12,0.38 -0.21,0.15 -0.21,0.44zm-7.31 14.26c-0.51,-0.04 -1.26,-0.24 -1.81,0.68 -0.33,0.55 -0.51,1.3 -0.18,1.89 0.44,-0.27 0.52,-0.66 0.52,-1.33 1.23,0 0.56,0.29 1.6,-0.5 0.02,-0.01 0.04,-0.03 0.06,-0.04l0.64 -0.7c-0.17,-0.21 -0.13,-0.09 -0.21,-0.35 -0.48,0 -0.58,-0.01 -0.63,0.35zm1.15 2.66c0,0.28 0.23,0.68 0.31,0.97 -1.17,-0.52 -0.46,-0.23 -1.15,-0.62 -1.36,0.77 -0.74,1.42 -0.31,1.42 1.55,0 1.31,0.11 1.89,-1.14 0.1,-0.21 1.05,-1.54 1.14,-2.4 -0.81,0.06 -0.49,0.52 -0.86,0.95 -0.16,0.18 -1.02,0.74 -1.02,0.82zm6.48 -13.91c0,0.45 0.17,0.47 0.21,0.89 -0.57,-0.32 -1.82,-1.45 -3.03,0.09l0.5 0.46c0.36,-0.23 0.11,-0.17 0.44,-0.37 0.01,0.27 0.05,0.32 0.1,0.53 0.61,0 1.18,0.06 1.63,-0.13 1.14,-0.48 2.11,-1.74 2.14,-2.8 -0.69,0 -0.93,-0 -1.4,0.4 -0.24,0.21 -0.58,0.56 -0.58,0.93zm-13.79 5.49c1.34,1.7 1.29,1.05 2.19,1.42 -0.45,-1.64 -1.65,-2.41 0,-4.52 0.37,-0.47 1.32,-0.66 1.67,-1.06 -0.74,-0.33 -0.77,-0.35 -1.88,-0.35 -0.13,0.48 -0.81,1.04 -1.09,2.18 -0.12,0.48 -0.11,0.83 -0.19,1.35 -0.13,0.86 -0.33,0.52 -0.71,1zm7.31 -4.61c0,0.51 0.19,0.81 0.5,1.08 0.58,0.53 0.34,0.39 0.55,1.13 1.84,0 1.5,0.02 2.07,0.81 0.33,0.46 0.75,1.32 0.75,2.02 0,1.52 -1.33,3.74 -1.45,4.45 -0.2,1.18 0.07,1.22 1.03,1.22 0.98,0 0.76,-0.91 3.55,-0.35 -0.64,-2.34 -1.25,-2.75 -1.25,-5.4 0,-1.12 0.31,-2.53 0.73,-3.28l-2.09 0.09c-1.02,0.01 -1.29,-0.38 -1.58,-0.52 -0.45,-0.22 -0.85,-0.43 -1.19,-0.85 -0.16,-0.2 -0.61,-1.06 -0.67,-1.29 -0.43,0 -0.5,-0.04 -0.7,0.2 -0.1,0.11 -0.24,0.5 -0.24,0.68zm-22.15 1.24c0,0.52 0.48,1.02 0.91,1.89 0.63,1.25 2.53,3.9 2.64,5.02l0.42 0c0.06,0.61 1.34,2.44 1.66,3.11l5.27 9.09c0.6,1.19 1.46,3.39 3.1,3.39 0.93,0 1.5,-0.19 2.23,-0.5 1.72,-0.73 3.5,-1.67 5.19,-2.42 -0.11,-0.41 -0.1,-0.55 -0.1,-1.06 -0.58,0.24 -0.68,0.14 -1.59,0.6 -2.71,1.39 -5.48,3.6 -7.5,0.11l-1.57 -2.66c-0.52,-0.89 -1,-1.78 -1.53,-2.69 -2.04,-3.46 -4.07,-7.26 -6.13,-10.75 -0.59,-1 -1.32,-2.12 -1.32,-3.13 0,-0.33 0.17,-0.47 0.33,-0.69 0.16,-0.22 0.24,-0.42 0.43,-0.61 0.51,-0.53 3.63,-1.9 4.43,-2.27 0.51,-0.23 0.96,-0.47 1.47,-0.71 0.55,-0.26 1,-0.46 1.54,-0.73l3.09 -1.46c0.51,-0.22 0.99,-0.47 1.47,-0.7l4.56 -2.16c0.53,-0.25 0.99,-0.44 1.49,-0.68 0.48,-0.24 1.01,-0.51 1.54,-0.73 1.45,-0.62 4.02,-2.41 5.71,0.09l3.24 5.49c0.24,0.4 0.37,0.8 0.9,0.92 0.29,-0.17 0.41,-0.35 0.42,-0.55l0 -0.04c-0.01,-0.32 -0.29,-0.7 -0.56,-1.15 -0.8,-1.35 -2.71,-4.94 -3.35,-5.84 -0.76,-1.07 -1.48,-1.5 -2.27,-1.54l-0.27 0c-0.98,0.05 -2.08,0.63 -3.51,1.3l-11.7 5.58c-1.26,0.59 -4.04,1.99 -5.07,2.35 -0.44,0.15 -1.34,0.5 -1.75,0.73l-3.14 1.76c-0.32,0.27 -0.66,1.12 -0.66,1.66zm5.33 5.94c0.27,-0.06 2.53,-1.52 2.88,-1.72 1.01,-0.58 2.24,-0.97 2.24,-2.36 -0.39,-0.08 -1.04,-0.3 -1.26,-0.53 -0.15,-0.15 -0.62,-0.9 -0.62,-1.16 0,-0.85 3.07,-2.64 4.18,-1.24 -0.52,0 -1.08,0.16 -1.5,0.23 -0.54,0.1 -0.39,-0.11 -0.69,1.01 3.53,0.7 1.76,0.67 2.72,0.89 0.18,-0.58 0.55,-0.14 0.1,-0.71 0.57,-0.13 0.64,-0.49 1.18,-1.04 0.48,-0.48 0.81,-0.53 1.01,-1.27 0.84,0 0.55,0.11 1.06,0.35 0.34,0.16 0.8,0.01 1.34,0.01 -0.16,-0.52 -0.27,-0.28 -0.84,-0.27 0.1,-0.18 0.15,-0.4 0.11,-0.71 -0.04,-0.32 -0.18,-0.4 -0.32,-0.62 1.37,-0.78 1.8,-0.89 3.55,-0.89 1.45,0 0.65,1.42 0.63,1.68l1.46 -0.11c0.62,-0.98 0.8,-1.74 1.63,-2.68 0.75,-0.85 1.66,-1.38 3.29,-1.38 0.53,0 1.66,0.13 1.99,0.27 -0.28,-1.02 -0.97,-2 -1.5,-2.89 -1.67,-2.84 -2.39,-2.77 -5.63,-1.11 -0.33,0.17 -0.61,0.27 -0.94,0.44 -4.52,2.32 -10.39,4.86 -14.94,7.18l-3.26 1.57c-1.02,0.5 -0.62,0.17 -0.86,1.14 -0.22,0.88 0.31,1.32 0.98,2.65l1.46 2.48c0.2,0.31 0.37,0.47 0.56,0.77z"/>
   <path class="fil3" d="M57.93 32.27c0.12,0.88 -0.56,1.8 -0.22,4.11 0.15,1.05 1.51,2 2.99,1.61 0.09,-0.77 -0.28,-0.54 -0.19,-1.6 0.08,-0.9 0.75,-3.9 1.13,-4.46 0.53,0.44 0.98,2.77 2.49,4.04 0.62,0.52 3.78,2.76 4.92,1.36 0.28,-0.34 0.89,-4.46 1.08,-5.28 0.2,-0.85 0.46,-1.69 0.78,-2.43 0.26,-0.6 0.72,-1.79 0.76,-2.52l-0.8 -0.49c-0.31,-0.13 -0.53,-0.18 -0.94,-0.27 -0.23,0.22 0.01,0.01 -0.28,0.22 -1.04,0.77 -1.74,1.8 -2.12,2.97 -0.22,0.67 -0.41,1.37 -0.59,2.05 -0.2,0.75 -0.12,1.73 -0.31,2.28 -0.45,-0.1 -0.2,0.06 -0.46,-0.32 -0.52,-0.75 -0.74,-3.39 -0.83,-4.24 -0.11,-1.07 1.06,-3.81 -1.99,-3.57 -0.39,0.03 -2.01,0.53 -2.46,0.7 -1.42,0.55 -2.31,5.23 -2.95,5.84zm15.49 3.64l-0.91 0.13c-0.38,-0.77 -0.05,-1.31 0.06,-2.19 0.22,-0.15 0.37,-1.11 1.13,-2.16l3.12 -3.81c0.65,-0.87 2.02,-0.69 2.29,0.33 0.36,1.39 -1.08,3.76 -1.81,4.7 -1.93,2.47 -3.49,2.62 -3.88,3zm-2.94 -2.21c-0.27,0.29 -0.31,0.62 -0.38,1 -0.31,1.64 -0.47,1.9 0.68,2.53 0.62,0.34 1.26,0.6 2.07,0.77 1,0.21 1.68,0.29 2.29,-0.1 3.02,0.45 9.69,-7.86 5.68,-11.17 -2.02,-1.67 -6.07,-1.37 -8.14,-0.12 -0.57,0.34 -2.45,6.05 -2.2,7.1z"/>
  </g>
 </g>
</svg>
