<?xml version="1.0" encoding="UTF-8"?>
<!DOCTYPE svg PUBLIC "-//W3C//DTD SVG 1.1//EN" "http://www.w3.org/Graphics/SVG/1.1/DTD/svg11.dtd">
<!-- Creator: CorelDRAW -->
<svg xmlns="http://www.w3.org/2000/svg" xml:space="preserve" width="66.1069mm" height="12.6445mm" version="1.1" style="shape-rendering:geometricPrecision; text-rendering:geometricPrecision; image-rendering:optimizeQuality; fill-rule:evenodd; clip-rule:evenodd"
viewBox="0 0 176.34 33.73"
 xmlns:xlink="http://www.w3.org/1999/xlink"
 xmlns:xodm="http://www.corel.com/coreldraw/odm/2003">
 <defs>
  <style type="text/css">
   <![CDATA[
    .fil0 {fill:black}
    .fil2 {fill:#FA0001}
    .fil1 {fill:#FEFEFE}
    .fil3 {fill:#FFC201}
   ]]>
  </style>
 </defs>
 <g id="Camada_x0020_1">
  <metadata id="CorelCorpID_0Corel-Layer"/>
  <g id="_2086856937408">
   <path class="fil0" d="M84.16 4.47c-1.15,-1.45 0.08,-1.63 -0.81,-3.02 -1.28,-2.01 -4.95,-0.71 -4.54,2.11 0.11,0.78 0.59,0.86 0.48,1.44 -0.11,0.56 -0.43,1.02 -0.76,1.37 -0.52,-0.04 -1.36,-0.32 -1.57,-0.72 -0.37,-0.71 0.02,-0.94 -0.8,-1.53 -2.23,-1.6 -5.37,1.7 -3.54,3.61 0.47,0.49 0.98,0.46 1.33,0.98 0.24,0.36 0.51,1.27 0.69,1.68 -0.16,-0.04 -1.62,-0.51 -1.78,-0.59 -0.57,-1.68 -1.23,-2.41 -3.05,-2.78 -3.19,-0.64 -10.5,-0.71 -13.75,0.07 -1.18,0.29 -1.32,0.79 -2.33,0.33 -2.86,-1.29 -12.42,-1.41 -15.87,-0.18 -1.42,0.51 -0.85,0.15 -2.13,-0.29 -3.17,-1.08 -10.78,-0.87 -13.74,-0.25 -1.5,0.32 -1.05,-0.11 -2.48,-0.16 -1.61,-0.06 -7.75,-0.25 -8.57,0.27 -0.78,0.5 -1.59,2.79 -2.02,3.86 -1.73,4.29 -3.75,8.23 -5.45,12.47 -0.55,1.38 -1.21,2.64 -1.8,4.05 -0.82,1.96 -2.89,4.97 -0.64,6.1 0.79,0.4 7.7,0.24 8.73,0.19 1.56,-0.07 0.51,-0.55 2.37,-0.15 0.81,0.18 1.8,0.25 2.66,0.28 3.48,0.11 7.46,0.34 10.88,-0.43 0.62,-0.14 1.76,-0.69 2.15,-0.6 0.15,0.03 0.73,0.33 1.1,0.43 0.36,0.1 0.87,0.18 1.28,0.25 3.23,0.51 10.2,0.68 13.44,-0.42 1.09,-0.37 0.92,-0.7 2.08,-0.18 2.68,1.22 13.89,1.27 16.93,-0.67 0.43,-0.27 0.62,-0.53 0.86,-0.69l2.08 -0.84c1.27,-0.44 1.04,0.02 1.98,-0.94 0.55,-0.57 1.09,-0.88 1.98,-1.1 0.99,2.04 1.39,3.88 3.99,4.68 1.21,0.37 2.59,0.06 2.76,-1.24 0.17,-1.26 -0.93,-2.17 -0.99,-3.57 1.54,0.86 3.95,4.67 11.17,4.09 2.27,-0.18 4.1,-0.85 5.78,-1.78 0.81,-0.45 1.66,-1.02 2.29,-1.56 0.61,-0.53 1.38,-1.58 2,-1.88 -0.39,3.97 3.82,5.94 5,3.88 0.46,-0.79 -0.1,-1.97 0.04,-3.28 0.55,0.28 0.81,1.67 3.18,3 0.54,0.31 1.35,0.46 1.59,0.55 0.34,2.71 2.91,1.95 5.43,1.96l10.52 -0.01c0.61,0 1.23,0.01 1.84,0.01 0.81,-0.01 1.09,-0.24 1.51,-0.24 2.81,-0.01 2.61,1.09 8.3,-0.2 0.93,-0.21 1.65,0.62 4.82,0.62 1.18,-0 2.44,0.02 3.54,-0.15 1.05,-0.16 2.15,-0.84 2.97,-0.49 1.78,0.76 9.15,1.03 10.18,0.19 0.81,-0.66 0.73,-1.57 1.91,-1.93 1.35,1.2 1.63,2.82 5.64,2.35 1.52,-0.18 6.64,0.52 7.7,-0.42 0.95,-0.84 1.75,-4.73 2.15,-6.19 0.71,-2.57 3.34,-11.48 3.45,-13.47 0.16,-2.93 -1.55,-4.12 -4.06,-4.45 -2.54,-0.34 -7.46,0.33 -7.48,0.32 -1.59,-0.4 -1.82,-0.53 -3.65,-0.28 -1.17,0.16 -2.8,-0.03 -3.98,0.03 0.66,-3.24 1.74,-4.68 -2.68,-4.68 -1.05,0 -3.29,-0.15 -4.11,0.2 -2.23,0.95 -0.41,5.02 -3.66,5 -1.5,-0.01 -2.69,-0.09 -4.14,0.1 -0.7,0.09 -1.22,0.31 -1.75,0.4 -0.61,0.1 -1.95,-1.08 -5.25,-1.14 -1.16,-0.02 -2.87,0.1 -3.94,0.32 -0.47,0.09 -1.4,0.49 -1.6,0.51 -0.73,0.07 -2.4,-1.49 -5.31,-0.39 -1.6,0.61 -1.44,-0.3 -3.34,-0.31 -0.84,-0 -1.33,0.12 -2,0.16 -1.82,0.12 -6.15,-0.9 -7.11,0.81 -0.15,0.27 -0.2,0.48 -0.28,0.78 -0.13,0.47 -0.09,0.36 -0.25,0.84 -0.2,0.61 -0.64,3.07 -1.07,3.45 -0.16,-0.24 -0.32,-0.64 -0.57,-0.93l-0.97 -0.76c1.66,-2.24 1.01,-5.76 -1.11,-5.06 -0.42,0.14 -0.45,0.35 -0.71,0.66 -0.29,0.33 -0.42,0.38 -0.74,0.61 -1.03,-0.46 -2.59,-2.82 -4.72,-1.66 -3.01,1.64 -1.09,4.64 -1.03,4.97 -0.53,0.39 -0.95,0.38 -1.43,0.74 -0.58,0.44 -0.42,0.68 -0.86,1.22 -0.27,-0.4 -0.46,-0.95 -0.71,-1.42 -1.55,-2.98 -4.52,-5.2 -7.73,-6.08 -0.81,-0.22 -1.28,-0.02 -1.37,-0.97 -0.33,-3.24 0.17,-1.62 1,-3.36 1.26,-2.63 -3.16,-4.26 -4.53,-1.83 -0.62,1.1 0.34,2.64 -1.03,3.28z"/>
   <path class="fil1" d="M63.44 28.48l0.84 -1.62c0.72,-2.38 3.88,-8.28 4.2,-9.97l-7.5 -0.01c-0.57,0.67 -2.39,5.27 -2.94,6.54 -0.51,1.17 -0.99,2.18 -1.46,3.33 -0.21,0.53 -0.4,1.19 -0.77,1.55 -0.32,0.31 -2.34,0.83 -2.22,-0.4l2.15 -5.08c0.61,-1.38 2.28,-4.66 2.53,-5.93l-7.55 0c-0.58,1.43 -1.27,2.41 -1.13,3.37 0.24,1.6 -0.41,2.52 -0.94,3.72 -0.47,1.08 -0.89,2.13 -1.41,3.22l-1.61 3.11c1.5,2.14 11.99,1.47 14.7,0.74 2.1,-0.57 2.34,-1.82 3.09,-2.56zm101.18 -10.72c2.67,0 2.36,0.66 3.12,-2.38l-2.46 -0.02 -0.66 2.41zm-5.6 1.49l4.27 -0.01 1.1 -3.88 -4.32 -0.04 -1.05 3.92zm-3.04 -4.96c4.27,0.26 2.84,-0.5 3.69,-0.56 0.81,0.24 0.33,0.42 1.07,0.55l2.59 0c1.2,-0 1.42,0.19 1.47,-1.1 0.13,-3.58 -3.76,-2.33 -4.83,-1.7l-0.3 -0.61 -2.58 0c-0.46,1.1 -0.3,1.74 -1.11,3.4zm9.48 -2.8c-0.01,1.04 0.05,1.66 -0.03,2.8 0.5,0.01 2.09,0.08 2.31,0.04 0.67,-0.14 0.3,-0.78 1.54,-0.74l0.24 0.69c4.55,0.1 4.96,0.43 4.63,-1.85 -0.11,-0.76 -0.3,-0.95 -0.96,-1.22 -1.58,-0.63 -6.48,-0.66 -7.74,0.28zm-35.58 2.8c0.99,-0 1.93,-0 2.92,0.04 1.14,0.05 0.48,-0.8 1.83,-0.75 0.71,0.92 -0.25,0.71 2.93,0.7 0.64,-0 1.71,0.21 1.99,-0.27 0.21,-0.35 0.07,-1.65 -0.06,-2.02 -0.66,-1.77 -6.5,-1.24 -7.88,-0.85 -1.59,0.45 -1.72,1.39 -1.73,3.14zm-16.89 -0.02c0.99,0.02 1.95,0 2.91,0.02 1.94,0.03 1.17,-0.2 2.44,-0.57 1,0.82 0.71,0.57 3.05,0.56 2.26,-0 1.1,0.24 2.74,-0.55 0.73,-0.06 -0.44,0.57 2.29,0.55 0.88,-0.01 1.99,0.08 2.83,-0.06 0.2,-1.91 0.34,-3.08 -1.47,-3.37 -2.26,-0.35 -3.2,0.69 -4.1,1 -0.87,-0.65 -1.06,-1.07 -2.59,-1.05 -1.18,0.02 -1.89,0.36 -2.74,0.89l-0.15 -0.82 -4.32 0.05 -0.88 3.35zm-104 1.55l7.58 -0.02 3.15 -7.33 -7.52 -0.03c-0.48,0.7 -3.14,6.54 -3.21,7.38zm145.19 -0.49l-3.47 12.47c0.51,0.34 0.79,0.11 1.45,0.63 -0.09,1.15 -0.69,2.03 -0.67,3.03l2.62 0.02c0.42,-0.75 3.95,-14.44 4.55,-16.22l-4.48 0.07zm-4.14 -4.51c-1.37,0.17 -1.39,0.33 -2.11,0.18 -2.01,-0.41 -6.37,-0.4 -7.7,0.86l0.06 2.44c0.3,-0.01 2.83,-0.09 2.85,-0.1 0.63,-0.2 0.99,-1.52 1.72,0.08l8.21 -0.08c0.49,-0.01 0.17,0.05 0.58,-0.26 0.43,-0.33 0.02,-0.23 0.81,-0.26 0.39,-0.01 0.67,0.02 1.08,-0.01l0.72 -2.7 -1.63 -0.03c0.01,-1.44 1.01,-3.2 1.04,-4.7l-4.37 0.02 -1.27 4.57zm-29.81 20.64l4.27 0.01c0.34,-0.6 3.85,-14.03 4.45,-16.05l-4.39 -0.07 -4.34 16.11zm-6.03 -0.01l4.36 0.02 4.44 -16.05c-0.2,-0.06 -0.18,-0.08 -0.4,-0.08l-4 0.02 -4.4 16.09zm-5.87 0.02l4.28 -0c0.75,-1.7 3.75,-14.3 4.45,-16.05l-4.39 -0.05c-0.54,1.98 -4.41,15.31 -4.34,16.11zm35.49 -13.76l4.23 0.04c-0.01,0.96 -0.79,2.51 -0.63,3.12 0.33,1.28 0.69,0.59 -0.07,3.4 -0.43,1.61 -0.79,3.29 -1.42,4.76 -0.3,0.7 -0.6,0.86 -0.66,1.64 1.51,0.79 3.13,0.95 5.3,0.77 0.4,-0.63 0.73,-2.02 0.76,-2.8 -0.69,0.04 -0.99,-0.04 -1.48,-0.18 -0.07,-1.39 3.1,-10.94 3.39,-13.1l-8.68 -0.01 -0.74 2.36zm-53.03 2.48c0.77,-2.82 -1.95,-5.17 -4.37,-5.41 -6.85,-0.67 -8.11,9.31 -1.29,9.67 1.54,0.08 2.87,-0.43 3.76,-1.15 1.1,-0.88 1.46,-1.5 1.9,-3.11zm47.66 0.78c0.66,0.49 1.48,0.83 2.32,1.24 2.1,1.02 1.46,1.22 0.56,4.62 -0.14,0.54 -0.32,1.7 -0.95,1.87 -1.82,0.5 0.1,-3.52 0.24,-4.75l-3.05 0c-0.42,0.85 -0.72,2.49 -1.04,3.6 -0.76,2.65 -0.73,1.74 -1.42,3.22 1.09,1 5.82,0.95 7.36,0.51 2.42,-0.69 2.67,-2.02 3.53,-4.96 0.95,-3.25 1.82,-4.89 -0.46,-6.06 -3.85,-1.97 -3.37,-1.76 -2.56,-4.8 -0.78,-0.25 -2.17,-0.18 -3.01,-0.06 -0.39,0.59 -1.54,4.84 -1.53,5.57zm-103.39 -5.18l6.36 0c1.02,-1.74 1.53,-5.26 3.58,-4.39 1.33,0.57 -0.69,2.75 -1.06,4.37l7.55 0.03c3.95,-7.52 2.07,-7.54 -6.23,-7.43 -2.38,0.03 -5.96,-0.01 -7.66,1.06 -1.1,0.69 -0.32,0.61 -1.23,3.24l-1.31 3.12zm-17.74 0.01l6.69 -0.01c0.49,-1 0.92,-2.08 1.39,-3.09 0.6,-1.3 1.22,-1.78 2.75,-1.08 -0.01,0.86 -1.28,3.46 -1.66,4.17l7.64 0.01c0.47,-0.96 0.9,-2.01 1.36,-3.09 0.4,-0.94 1.13,-2.67 0.23,-3.46 -1.1,-0.98 -6.1,-0.88 -8,-0.87 -2.02,0.01 -6.53,0.04 -7.63,1.25 -0.28,0.31 -2.6,5.56 -2.77,6.18zm52.12 -0.95l0.22 -0.72c0.36,-0.28 1.04,-2.18 1.19,-2.87 0.37,-1.7 -0.14,-2.22 -1.53,-2.53 -2.17,-0.49 -5.5,-0.38 -7.89,-0.35 -2.11,0.03 -5.7,0.18 -6.88,1.37 -0.55,0.56 -0.33,1.41 -1.05,3.13 -0.34,0.8 -1.1,2.19 -1.24,2.92l6.54 -0.01c0.27,-0.48 0.41,-0.99 0.65,-1.5 0.26,-0.56 0.48,-1.07 0.72,-1.61 0.27,-0.61 0.5,-0.99 0.98,-1.2 0.55,-0.24 1.31,-0.23 1.72,0.27 0.19,0.79 -1.34,3.29 -1.51,4.01l7.69 0.04 0.4 -0.95zm-67.36 16.72c2.09,-0.17 5.39,-0.04 7.59,-0.03 0.17,-0.31 6.19,-13.93 6.34,-14.66l-7.65 0.02c-0.56,1.44 -6.12,13.77 -6.28,14.67zm165.26 -9.54c-0.11,1.04 -0.7,2.9 -1.01,3.88 -0.2,0.64 -0.73,3.84 -1.92,2.66 -0.46,-0.46 0.52,-3.01 0.71,-3.7 0.53,-1.91 0.32,-2.32 2.22,-2.84zm-2.69 8.74c0.41,0.37 0.01,-0.13 0.23,0.32 0.03,0.06 0.08,0.28 0.11,0.38 1.53,0.09 3.05,0.11 4.33,-0.02l4.42 -16.06 -4.51 -0.03c-0.82,3.8 -0.77,3.19 -3.57,4.29 -4.53,1.78 -4.13,2 -5.37,6.37 -0.7,2.48 -1.67,5.25 1.19,5.49 1.14,0.1 2.47,-0.19 3.16,-0.73zm-35.1 -15.42l-4.17 15.42c1.13,0.91 4.89,0.89 6.56,0.64 2.46,-0.37 3.25,-1.54 3.9,-3.75l3.32 -12.32 -4.55 0.01c-0.35,2.13 -1.27,4.8 -1.88,6.96 -0.33,1.17 -0.61,2.23 -0.91,3.41 -0.22,0.85 -0.55,3.04 -1.46,3.04 -1.34,0.01 -0.29,-2.15 -0.09,-2.87l1.94 -7.08c0.21,-0.73 0.85,-2.86 0.89,-3.55l-3.55 0.09zm-36.59 -2.85c2.03,-0.46 1.96,0.34 2.38,2.07 0.29,1.2 0.54,2.48 0.72,3.81 0.41,3.1 0.96,4.95 -0.77,5.39 -5.36,1.38 -11.32,2.28 -16.84,3 -1.98,0.26 -1.99,-0.42 -2.36,-2.03 -0.43,-1.9 -1.21,-6.09 -1.1,-7.97 0.08,-1.43 1.61,-1.4 2.81,-1.69 2.36,-0.57 4.94,-1.14 7.34,-1.5l7.84 -1.08zm-5.34 -3.5l0.12 0.39c-1.99,0.15 -3.36,0.63 -4.98,0.99 -1.07,0.24 -4.03,1.42 -4.51,1.37 -0.22,0.27 0.01,0.07 -0.36,0.35 -0.03,0.02 -0.38,0.21 -0.38,0.21 -0.4,0.12 -0.48,0.01 -0.86,-0.03 -1.47,1.64 -2.33,3.17 -2.95,5.66 -0.32,1.28 -0.32,2.58 -0.05,3.95 0.21,1.05 0.57,2.66 1.14,3.22l0.03 0.25c1.37,1.82 1.78,2.65 3.69,3.86 5.63,3.55 12.68,1.75 16.47,-2.5 3.89,-4.35 4.19,-11.58 -1.11,-15.96 -1.13,-0.94 -3.39,-2.2 -5.32,-2.38l-0.73 -0.07c-0.25,0.27 -0.3,-0.44 -0.2,0.7zm-46.59 12.87c-0.06,1.11 -1.2,3.24 -1.58,4.21 -0.63,1.58 -1.07,3.18 -3.21,2.36 -0.07,-1.25 1.99,-4.92 2.43,-6.39l-6.36 -0.04 -2.88 6.45c-0.4,0.75 -1,1.36 -1.2,1.99 1.55,1.6 8.92,1.35 11.74,1.09 5.12,-0.47 5.37,-1.81 7.27,-5.93 3.06,-6.62 2.5,-5.61 -4.63,-8.14 -1.42,-0.5 -0.97,-0.64 -2.84,-0.63 -2.08,0.01 -4.53,-0.13 -6.56,0.03 -0.17,2.12 0.54,2.38 3.13,3.21 1.68,0.54 3.13,1.07 4.68,1.76zm-24.85 -3.07c1.33,1.25 5.65,2 7.42,3.09 -0,1.24 -1.08,3.11 -1.55,4.18 -0.23,0.52 -0.6,1.52 -0.86,1.92 -0.41,0.62 -1.19,0.81 -1.82,0.61 -1.14,-0.36 -0.24,-1.36 0.56,-3.28l1.4 -3.28 -6.7 0.02c-0.64,1.14 -1.38,3.04 -1.91,4.31 -0.26,0.63 -1.72,4.03 -1.82,4.17 1.3,1.32 5.75,1.12 8.13,1.12 7.95,-0 8.4,-0.47 11.05,-6.53 0.38,-0.87 1.09,-2.27 1.38,-3.14 0.91,-2.65 -1.72,-2.95 -4.65,-3.94 -0.71,-0.24 -2.88,-1.17 -3.51,-1.17l-6.47 0.02c-0.21,0.68 -0.64,1.23 -0.66,1.92z"/>
   <path class="fil2" d="M64.79 26.9l-0.62 1.64 -0.31 0.52c0.3,0.27 0.3,0.13 0.36,0.04 -0.65,0.49 -0.16,0.4 -0.94,0.48l0.18 0.37c1.23,0.01 0.74,-0.68 2.25,-0.77l2.08 -1.41c0.5,-0.26 2.16,-0.99 2.72,-0.97 0.49,1.55 0.51,2.31 1.35,3.46 0.38,0.51 1.88,2.25 2.95,1.56 0.38,-0.38 -0.79,-2.8 -1.01,-3.69 -0.11,-0.43 -0.15,-0.87 -0.29,-1.24 0.01,-0.54 0.23,-0.6 0.63,-0.89 0.66,-0.47 0.34,-0.29 0.68,-0.64l-0.03 -0.25c-0.68,-0.14 -0.01,-0.38 -1.26,-0.59 -0.47,-0.4 -0.52,-3.52 -0.5,-4.32l0.53 -4.27c0.2,-1.04 0.8,-3.16 0.75,-4.06 -3.18,-2.45 -3.23,1.56 -4.04,2.61 -0.1,0.56 -0.19,0.97 -0.68,1.24 -0.27,0.83 -0.98,2.23 -1.07,3.1l-3.73 8.08zm43.7 -15.27c0.19,-0.22 0.08,0.07 0.24,-0.43 0.15,-0.48 0.06,-1.11 -0.14,-1.5l-1.41 1.09c-0.91,0.06 -0.89,0.23 -1.8,-0.41 -0.56,-0.39 -0.96,-1.04 -1.57,-1.13 -1.06,-1.26 -2.77,0.66 -2.18,2.32 0.46,0.12 1.02,-0.19 1.35,-0.58 1.25,0.4 1.26,0.36 2.24,1.12 0.62,0.48 1.65,0.81 2.62,0.81 0.38,-0.5 0.63,-0.58 0.65,-1.28zm0.45 6.33c0.24,-0.28 0.04,0.12 0.2,-0.42 0.05,-0.15 0.11,-0.48 0.15,-0.65 0.29,-1.21 0.21,-2.27 -1.32,-2.57 -0.29,0.29 -0.46,0.49 -0.66,0.98 -1.49,1.62 -1.99,9.13 -2.25,9.63 -0.39,-0.69 -0.94,-5.2 -0.87,-6.27 0.04,-0.72 0.21,-2.77 0.12,-3.44 -0.11,-0.82 -0.8,-1.87 -1.95,-1.64 -0.02,0 -2.21,1.27 -2.21,1.28 -0.36,0.36 -0.77,2.29 -0.91,2.86 -0.3,1.25 -1.35,4.98 -1.15,6.18 -0.13,0.19 -0.03,-0.05 -0.16,0.36 -0.03,0.1 -0.1,0.42 -0.12,0.52 -0.31,2 -0.26,5.98 2.52,5.64 -0.13,-1.53 -0.06,-2.64 0.05,-4.17 0.11,-0.87 0.47,-3.79 0.86,-4.28 0.38,0.66 0.31,4.65 3.34,7.1 3.04,2.45 2.93,-0.25 3.06,-2.03 0.07,-1.08 0.3,-1.99 0.41,-2.99l0.89 -6.08zm-38.81 2.15l0.19 4.32c-0.69,0.22 -1.3,0.58 -2.14,0.54 0.17,-1.31 1.15,-2.74 1.4,-3.9 0.05,-0.06 0.28,-0.63 0.55,-0.95z"/>
   <path class="fil3" d="M78.26 11.75c0.48,0.06 3.44,-1.12 4.51,-1.37 1.61,-0.37 2.99,-0.84 4.98,-0.99l-0.12 -0.39c-0.1,-1.14 -0.05,-0.43 0.2,-0.7l0.73 0.07c-0.95,-0.5 -1.04,0.31 -1.16,-1.4 -0.06,-0.85 -0.14,-1.66 -0.14,-2.5l0.01 -1.23c0.69,-0.4 1.77,-0.23 1.04,-1.64 -0.41,-0.35 -0.29,-0.26 -0.82,-0.41 -0.54,0.06 -1.02,0.27 -1.16,0.72 -0.29,0.93 0.38,0.37 0.21,1.42 -0.45,0.38 -1.06,1.7 -1.29,2.34 -0.84,0.41 -0.68,1.16 -1.93,-0.17 -0.37,-0.39 -1.31,-1.48 -1.25,-1.96 1,-2.13 -1.59,-2.64 -1.97,-0.3 0.29,0.47 0.25,0.48 0.74,0.73l-0.05 0.56c-0.58,1.34 -0.57,2.6 -1.77,3.13 -0.96,0.43 -2.7,-0.81 -3.6,-1.1l0 -0.08 0.04 0.02 -0.01 -1.39c-0.83,-0.34 -1.52,-0.01 -1.81,0.64 -0.47,1.05 0.04,1.33 1.05,1.28l0.34 0.5c0.07,0.53 0.61,1.69 0.84,2.28 0.3,0.76 0.63,1.57 0.76,2.45 0.37,0.05 0.46,0.15 0.86,0.03 0.01,-0 0.35,-0.18 0.38,-0.21 0.37,-0.28 0.14,-0.09 0.36,-0.35z"/>
  </g>
 </g>
</svg>
