<?xml version="1.0" encoding="UTF-8"?>
<!DOCTYPE svg PUBLIC "-//W3C//DTD SVG 1.1//EN" "http://www.w3.org/Graphics/SVG/1.1/DTD/svg11.dtd">
<!-- Creator: CorelDRAW -->
<svg xmlns="http://www.w3.org/2000/svg" xml:space="preserve" width="67.5177mm" height="15.4107mm" version="1.1" style="shape-rendering:geometricPrecision; text-rendering:geometricPrecision; image-rendering:optimizeQuality; fill-rule:evenodd; clip-rule:evenodd"
viewBox="0 0 183.84 41.96"
 xmlns:xlink="http://www.w3.org/1999/xlink"
 xmlns:xodm="http://www.corel.com/coreldraw/odm/2003">
 <defs>
  <style type="text/css">
   <![CDATA[
    .fil0 {fill:#040303}
    .fil3 {fill:#0E8D0B}
    .fil2 {fill:#D6D2B1}
    .fil1 {fill:#FEFEFE}
   ]]>
  </style>
 </defs>
 <g id="Camada_x0020_1">
  <metadata id="CorelCorpID_0Corel-Layer"/>
  <g id="_2086856945376">
   <path class="fil0" d="M182.74 22.69c0.4,-1.06 0.77,-0.9 0.87,-2.62 0.11,-1.99 -0.02,-4.68 0.04,-6.79 0.11,-3.56 1.06,-5.14 -2.9,-6.97 -0.75,-0.35 -2.09,-0.41 -2.88,-0.03 -1.17,0.56 -0.86,0.72 -1.56,1.68 -1.42,0.11 -2.79,-0.38 -4.24,0.24 -1.88,0.81 -3.83,2.21 -5.46,3.95 -0.4,0.43 -1.83,1.99 -2.06,2.49 0.27,-1.56 -0.07,-1.89 -0.7,-3.02 -0.96,-1.73 -2.03,-3.14 -4.23,-3.62 -1.33,-0.29 -6.14,-0.11 -7.51,0.14 -1.24,0.23 -1.94,0.55 -3.17,0.7 -1.15,0.14 -4.29,1.45 -5.43,2.22 -1.3,-1.41 -1.65,-2.31 -3.74,-3 -1.38,-0.46 -7.05,-0.32 -9.4,0.41 -2.32,0.72 -1.47,-0.01 -3.97,1.14 -0.5,0.23 -0.83,0.2 -1.31,0.38 -0.77,0.28 -1.31,0.97 -2.26,1.13 -0.63,-0.61 -0.67,-0.91 -1.47,-1.61 -3.29,-2.86 -9.78,-2.86 -12.61,0.81 -0.16,0.21 -1.15,1.48 -1.4,1.64 -0.04,-1.22 0.27,-2.81 -0.2,-3.83 -0.96,-2.06 -3.72,-2.83 -5.38,-2.16 -1.27,0.52 -0.97,1.14 -1.57,2.29 -0.94,0.22 -1.36,-0.15 -2.45,0.33 -2.62,1.15 -2.31,1.78 -3.94,3.93 -0.56,-0.12 -0.58,-0.23 -1.1,-0.45 -0.56,-0.24 -2.2,-0.16 -2.44,-2.04 0.66,-0.29 0.7,-0.33 1.28,-0.7 0.66,-0.42 2.23,-0.75 2.68,-2.86 0.59,-2.78 -1.17,-3.76 -2.67,-4.67 -1.13,-0.69 -1.06,-0.98 -2.85,-1.06 -1.59,-0.07 -1.88,0.26 -3.45,-0.22 -1.04,-0.32 -2.32,-0.25 -3.43,-0.12 -1.4,0.16 -1.43,-0.54 -3.31,-0.4 -1.16,0.39 -2.64,0.44 -3.67,0.97 -2.23,1.15 -3.8,3.6 -2.22,6.01 0.62,0.95 1.8,1.35 2.57,2.13l-0.22 0.94c-0.64,-0.27 -1.55,-1.22 -3.06,-1.91 -0.66,-0.3 -1.22,-0.28 -1.95,-0.51 -1.58,-0.49 -4.59,-0.16 -5.94,0.71 -0.89,0.57 -2.09,1.17 -2.56,2.21 -0.41,-0.2 -0.45,-0.33 -0.79,-0.74 -1.5,-1.81 -5.33,-1.89 -6.99,-0.23 -1.72,1.71 -1.04,6.82 -1.31,9.65 -0.51,-0.29 -0.73,-1.44 -0.94,-2.01 -0.26,-0.76 -0.7,-1.28 -0.92,-2.01l-1.82 -4.23c-0.68,-1.16 -0.62,-0.83 -1.71,-1.37 -0.74,-0.37 -1.46,-0.64 -2.51,-0.29 -3.17,1.06 -1.88,1.35 -3.03,2.8l-0.79 -1.16c0.43,-1.32 1.33,-1.12 0.89,-3.52 -0.24,-1.29 -4.79,-5.17 -7.64,-5.38 -2.81,-0.2 -4.79,1.3 -6.24,2.51 -0.75,0.62 -1.72,1.39 -2.26,2.23 -0.91,1.44 -0.42,2.03 -0.02,3.33 -0.66,-0.46 -2.35,-1.12 -3.31,-0.94 -1.14,0.22 -0.57,0.62 -3.45,0.87 -0.54,-0.76 -1.36,-3.17 -4.57,-1.66 -1.06,0.5 -1.69,0.36 -2.67,0.73 -0.81,0.3 -1.87,1.38 -2.01,1.44 -2.2,-0.01 -6.29,-1.51 -8.16,-0.51 -0.84,0.45 -1.5,1.99 -1.23,3.05 0.29,1.15 0.57,2.64 0.92,3.71 0.83,2.58 0.4,7.76 2.63,8.92 0.5,0.26 1.19,0.31 1.79,0.52 1.09,0.37 2.73,0.02 4.18,0.1l-0.02 7c-1.35,1.09 -2.82,1.87 -1.88,4.51 0.25,0.69 0.89,1.55 1.46,1.94 0.37,0.25 2.05,0.87 2.61,0.81 0.03,-0 2.59,-0.8 2.73,-0.86 3.15,-1.35 5.57,0.03 6.79,-3.38 3.1,0.62 4.02,0.12 6.57,-0.91 0.3,0.63 1.63,1.95 2.28,2.35 2.57,1.6 5.65,1.89 8.07,-0.27 2.02,-1.8 2.43,-4.98 3.39,-5.95 0,2.47 -1.73,4.94 1.29,6.45 0.59,0.29 1.05,0.72 1.76,0.97 1.55,0.55 3.29,0.17 3.84,-1.55l0.95 -4.8c0.46,0.16 0.14,-0.13 0.56,0.41 0.68,0.88 1.41,3.7 3.5,5.14l2.56 1.61c1.37,0.74 4.26,0.49 4.53,-1.71 0.34,-2.7 -0.03,-4.92 0.03,-6.46 0.93,1.71 1.89,4.04 3.37,5.31 3.18,2.74 4.14,1.38 6.01,2.62 0.52,0.35 3.61,1.22 4.45,1.27 1.56,0.1 4.41,-0.18 5.62,0.22 6.04,2.01 7.09,0.01 11.83,-0.78 0.88,-0.14 1.59,-0.24 2.41,-0.37l3.21 -1.27c2.32,-1.42 2.3,-1.23 5.12,-1.97 0.78,-0.21 1.56,-0.37 2.39,-0.51 1.64,-0.29 4.2,-1.66 5.58,0.12 1.28,1.46 2.51,2.41 4.56,2.68 4.66,0.62 6.24,-2.87 7.91,-6.37 0.32,-0.68 0.46,-1.36 0.75,-2.02 0.26,0.04 1.55,0.9 1.88,1.19 0.12,3.73 0.32,5.28 2.92,6.88 0.77,0.48 2.87,0.93 3.9,0.47 1.99,-0.87 0.84,-2.19 1.59,-3.21 0.7,0.12 0.91,1.53 3.12,2.77 1.54,0.86 2.53,1.52 4.09,0.45 1.66,-1.14 1.48,-8 1.53,-10.06 0.31,0.1 1.11,1.28 1.47,1.59 0.83,0.72 1.42,0.51 1.47,1.71 0.07,1.89 0.4,3.82 1.43,4.94 1.16,1.26 3.64,2.76 5.68,1.68 1.22,-0.65 1.25,-1.88 1.3,-3.35 0.5,0.37 0.51,0.62 0.96,1.13 1.43,1.63 1.93,1.55 3.63,2.53 2.52,1.45 3.81,-0.99 3.9,-3.39 0.4,0.07 2.09,1.41 3.35,1.84 2.44,0.85 6.64,0.65 9.16,-0.1 3.31,-0.98 7.15,-0.59 8.13,-2.35 0.67,-1.2 0.19,-3.15 -0.36,-4.28 -1.9,-3.98 -2.71,-2.2 -7.4,-2.19 0.74,-1.03 1.98,-0.4 3.37,-2.07 1.27,-1.53 0.62,-2.34 0.14,-3.89 1.32,-0.13 1.7,0.78 3.64,-0.21z"/>
   <path class="fil1" d="M102.49 11.85c-0.96,0.02 -1.04,-1.55 -3.69,-1.19 -0.99,0.13 -1.1,0.34 -1.61,0.87 -0.29,0.29 -0.83,1 -1.16,1.47 -0.57,0.83 -1.08,2.72 -1.39,3.7 -1.61,5.07 -1.64,7.28 -2.69,12.41 -0.26,1.26 -0.66,3.46 -0.06,4.64 0.38,0.74 1.59,2.55 2.12,2.94 0.51,0.21 4.76,-1.27 5.54,-1.52 1.65,-0.52 5.41,-1.17 5.82,-1.42 0.17,-1.05 -0.04,-2.27 -0.56,-2.89 -0.66,-0.79 -1.68,-0.25 -2.7,-0.08 -1.02,0.17 -2.17,0.22 -3.23,0.37 -1.06,0.14 -1.96,0.35 -3.19,0.4 -0.06,-1.92 0.31,-3.02 0.79,-4.69 0.26,-0.92 0.2,-1.38 0.35,-2.27 0.13,-0.74 0.45,-1.43 0.66,-2.12 0.24,-0.8 0.2,-1.36 0.5,-2.12 0.78,-1.96 0.63,-2.38 1.38,-4.01 0.57,-1.24 0.29,-1.52 1.14,-1.7 0.25,0.66 0.44,2.19 0.74,3.13 0.44,1.37 0.31,3.66 1.3,6.41 0.4,1.11 1.53,1.34 2.8,1.41 -0.08,-3.39 -0.49,-6.85 -0.21,-10.28 0.13,-1.64 0.21,-3.26 0.28,-4.94 0.09,-2.07 -0.95,-2.42 -2.97,-2.35l0.04 3.84zm-75.43 -3.34c0.76,1.24 2.62,1.16 3.51,0.14 0.43,-0.5 2.19,-2.45 2.8,-2.5 1.07,0.23 2.16,1.77 2.84,2.45 0.4,0.4 0.98,0.96 1.6,0.94 0.67,-0.03 1.53,-0.57 1.83,-0.87 -0.05,-1.23 -3.56,-4.33 -6.12,-4.34 -2.94,-0.01 -6.16,3.21 -6.47,4.19zm2.54 9.25c-0.01,-1.1 0.96,-2.69 1.63,-3.53 0.41,-0.51 2.08,-2.32 2.76,-2.32 2.63,0 3.64,6.29 3.64,8.47 0,4.74 0.13,3.78 -0.84,8.2 -0.25,1.15 -0.15,1.92 -0.83,3.32 0,0 -1.09,4.49 -2.81,1.65 -0.78,-1.28 -1.22,-5.21 -1.3,-7.01 -0.05,-1.29 -0.03,-2.72 0.2,-3.92 0.75,-3.86 1.29,-3.68 -2.09,-4.72 -0.33,-0.1 -0.16,-0.04 -0.37,-0.15zm-2.88 4.31c0.21,0.91 0.01,1.86 0.05,2.78 0.04,0.78 0.12,1.62 0.22,2.35 0.29,2.33 1.64,6.31 3.16,7.65 0.72,0.63 0.55,0.71 1.42,1.2 2.25,1.27 4.2,1.21 5.66,-0.73 2.42,-3.19 3.51,-8.22 3.65,-12.34 0.13,-3.81 0.29,-5.97 -1.1,-9.49 -0.68,-1.73 -2.9,-3.36 -4.41,-3.56 -2.27,-0.31 -4.92,-0.34 -6.57,1.4 -2.18,2.3 -4.44,6.82 -3.46,9.52 0.37,1.02 0.55,0.82 1.38,1.21zm-16.34 -9.24c-1.7,0 -2.02,-0.06 -3.68,-0.31 -2.25,-0.33 -1.25,-0.73 -4.43,-0.58 -0.34,1.06 0.87,4.61 1.13,5.85 0.29,1.37 0.51,5.32 1.26,5.98l1.95 0.43c0.23,-3.9 -0.76,-5.99 -0.71,-8l4.77 0.16c0.39,0.08 0.19,0.03 0.37,0.13 0.6,0.74 0.71,16.41 0.52,18.6 -0.82,0.35 -1.33,0.3 -1.94,1.01 -0.29,2.57 2.52,2.3 4.03,1.56 1.83,-0.9 2.92,-0.61 4.13,-0.95 1.79,-0.5 1.81,-0.48 0.63,-2.75l-2.31 -0.02c-0.24,-3.76 -0.35,-5.15 -0.35,-8.79 -0,-1.49 -0.28,-8.12 0.18,-8.92 0.23,-0.17 -0.02,-0.08 0.43,-0.22 0.45,-0.14 2.63,-0.09 4.42,-0.79 0.18,2.41 -1.35,7.27 -0.87,9.52 0.84,0.41 1.72,0.68 2.68,0.41 0.32,-1.06 0.88,-4.05 1.01,-5.25 0.35,-3.23 2.41,-6.66 0.92,-7.77 -0.16,-0.12 -0.84,-0.4 -1.08,-0.47 -0.77,-0.23 -0.86,-0.15 -1.5,0.06 -0.75,0.25 -1.73,0.35 -2.62,0.62 -0.73,0.22 -2.1,0.36 -2.92,0.36 -0.02,-0.63 0.49,-2.1 -0.06,-2.45 -0.58,-0.37 -1.52,0.47 -2.25,0.57 -0.79,0.11 -1.59,0.16 -2.23,0.55 -1.15,0.7 0.16,1.47 -1.47,1.47zm101.08 5.06c0.03,-1.11 1.38,-3.27 1.95,-3.86 2.43,-2.49 2.85,-3.19 4.69,-0.31 1.03,1.6 1.54,5.13 1.54,7.12 0,4.09 -0.59,7.69 -1.85,11.47 -1.77,5.31 -3.73,-0.2 -3.92,-4.84 -0.33,-8.12 2.26,-7.95 -0.75,-9.25 -0.6,-0.26 -0.85,-0.28 -1.66,-0.33zm-2.72 4.23c0.22,4.05 -0.14,5.85 1.38,9.27 0.46,1.04 1.34,2.84 1.97,3.44 0.81,0.77 1.92,1.75 3.22,2 3.81,0.73 5.03,-3.38 6.1,-5.84 1.55,-3.57 3.45,-17.43 -2.19,-20.25 -1.68,-0.84 -1.43,-0.99 -4.4,-0.9 -1.74,0.05 -2.78,0.21 -3.98,1.48 -0.44,0.47 -0.31,0.33 -0.71,0.67 -1.33,1.12 -3.69,6.37 -2.79,8.93 0.33,0.93 0.63,0.78 1.39,1.2zm69.04 -10.23c-0.21,-0.18 -1.3,-1.5 -2.5,-1.81 -1.68,-0.43 -2.5,0.35 -3.54,0.73 -0.98,0.35 -0.62,0.36 -1.28,0.88 -0.41,0.32 -1.03,0.61 -1.8,1.43 -0.24,0.25 -0.26,0.31 -0.52,0.56 -1.02,0.96 -2.11,2.52 -2.72,3.76 -1.22,2.47 -1.21,3.92 1.02,6.11 0.9,0.88 2.59,0.91 3.12,1.3 -2.06,1.57 -7.69,4.81 -6.33,7.47 0.29,0.58 0.43,1.18 0.79,1.53 0.69,0.68 0.68,0.8 1.32,1.15 4.71,2.58 9.92,0.02 16.16,-0.73 0.11,-1.23 -0.72,-3.22 -0.93,-3.38 -0.88,-0.67 -12.01,1.74 -13.89,1.54 0.12,-0.74 0.8,-1.27 1.34,-1.61l1.78 -1.31c0.53,-0.46 1.21,-0.82 1.83,-1.25 0.48,-0.33 0.56,-0.23 1.05,-0.49 1.23,-0.65 -0.28,-0.13 2.04,-1.04 0.31,-0.12 0.73,-0.4 1,-0.54 0.77,-0.39 1.73,-0.3 1.81,-1.2 0.04,-0.44 -0.75,-1.66 -1.06,-1.91 -0.71,-0.6 -1.62,-0.22 -2.55,-0.22 -1.73,0 -4.87,0.18 -6.06,-0.77 0.12,-0.63 0.44,-0.92 0.7,-1.35 0.4,-0.65 0.53,-0.75 0.9,-1.26 1.51,-2.11 5.19,-5.41 7.24,-5.56 0.22,0.62 0.48,1.24 0.71,1.91 0.26,0.74 0.25,1.37 0.5,2.11 0.82,2.36 0.92,3.03 3.51,2.88 0.42,-2.96 0.12,-6.75 0.28,-9.84 0.05,-0.99 0.14,-1.53 -0.54,-1.99 -0.42,-0.29 -1.15,-0.68 -1.85,-0.69 -1.98,-0.04 -0.57,2.02 -1.54,3.6zm-46.85 2.48c0.88,-0.47 6.99,-1.37 8.08,-0.92 0.23,1.44 -3.44,4.67 -4.31,5.66 -0.49,0.56 -1.64,1.6 -1.99,2.03 -0.33,0.41 -0.37,0.72 -0.95,0.68 -0.25,-2.05 0.64,-5.72 0.52,-6.06 -0.22,-0.67 -1.09,-0.79 -1.36,-1.39zm-3.9 2.01c0.34,1.15 0.7,8.34 0.52,9.79 -1.1,0.3 -1.98,0.33 -3,0.68 -0.18,1.43 1.41,2.54 1.74,2.62 0.53,0.14 0.32,0 0.74,0.04l0.61 0.17c0.44,1.02 -0.1,3.92 0.41,5.26 0.45,1.18 1.92,2.34 3.72,2.06 0.67,-2.93 -0.43,-6.26 0.05,-8.9 1.57,-0.43 5.3,-1.92 5.63,-1.97 -0.17,2.31 -1.2,4.74 -1.45,7.07 -0.14,1.25 0.5,2.32 1.32,2.82 0.47,0.29 2.18,1.73 2.83,1.15 0.52,-0.65 0.52,-4.69 0.54,-5.85 0.03,-2.03 0.5,-3.92 0.62,-5.85 0.08,-1.32 -0.8,-3.89 -2.81,-3.5 -1.22,0.23 -3.03,1.85 -4.58,2.05 0.71,-1.61 9.26,-7.3 8.28,-10.59 -0.1,-0.34 -0.3,-0.76 -0.44,-1.08 -0.21,-0.48 -0.35,-0.58 -0.72,-1 -1.6,-1.83 -5.71,-1.51 -7.87,-1.15 -0.93,0.15 -1.56,0.47 -2.47,0.6 -1.13,0.16 -1.67,0.11 -2.69,0.55 -2.78,1.19 -5.57,1.37 -3.13,4.59 0.98,1.29 0.96,0.68 2.17,0.47zm25.14 5.25c-0.4,-0.6 0.01,-3.43 0.1,-4.13 0.07,-0.54 0.33,-1.27 0.15,-1.82 -0.25,-0.76 -0.85,-0.58 -1.14,-1.16 0.56,-0.88 6.48,-1.21 7.95,-1.18 0.13,1.2 -3.13,4.64 -4.02,5.45 -0.43,0.4 -0.57,0.68 -0.98,1.03l-1.41 1.36c-0.51,0.55 0.14,0.36 -0.65,0.45zm-4.81 -5.23c0.34,1.4 0.53,8.12 0.34,9.68 -0.54,0.37 -1.33,0.18 -3.01,0.83 -0.07,1 0.14,1.26 0.78,1.85 0.84,0.77 0.9,0.79 2.23,0.69 0.36,2.34 -0.44,8.34 4.29,7.55 0.59,-1.83 -0.44,-7.98 0.19,-8.91 0.33,-0.21 0.9,-0.19 1.44,-0.41 0.48,-0.19 0.83,-0.43 1.24,-0.62 0.46,-0.22 0.91,-0.21 1.41,-0.45 0.59,-0.27 0.57,-0.48 1.29,-0.57 0.17,1.87 -1.2,5.08 -1.4,7.11 -0.29,2.95 3.58,4.4 4.14,3.98 0.64,-0.47 0.39,-2 0.39,-2.9 -0,-4 0.91,-8.54 0.9,-9.1 -0.01,-0.64 -0.91,-3.85 -3.24,-3.07 -0.56,0.19 -0.61,0.29 -1.13,0.56 -0.42,0.22 -0.79,0.31 -1.18,0.52 -0.86,0.45 -0.91,0.76 -2.26,1.02 0.94,-0.97 0.48,-0.65 1.56,-1.57l4.13 -3.89c1.04,-1.03 3.3,-3.61 3.06,-5.13 -0.14,-0.88 -1.63,-3.01 -3.27,-3.43 -3.38,-0.85 -6.49,0.29 -8.55,0.6 -1.1,0.16 -1.71,0.15 -2.64,0.58 -3.24,1.51 -4.84,1.26 -3.56,3.56 0.21,0.41 0.25,0.63 0.55,0.99 1.31,1.6 1.06,0.51 2.29,0.49z"/>
   <path class="fil2" d="M85.65 19.91l-0.49 -0.04c-0.2,-0.36 -0.57,-0.26 -1.05,-0.38 -0.8,-3.14 -0.29,-4.2 -0.54,-5.81 -0.74,-0.14 -1.56,-0.09 -1.9,0.53 -0.6,1.07 -0.97,2.08 -1.62,2.85 -1.4,1.65 0.09,0.83 -2.49,2.34 -0.03,-0.81 0.44,-0.6 1.02,-1.17 0.95,-0.94 2.31,-3.1 2.58,-4.3 -2.81,-0.21 -1.32,0.11 -2.34,1.05 -0.06,1.47 -1.14,1.38 -1.59,2.05 -0.22,0.33 0.03,2.51 0.04,3.2 0.03,2.42 -0.1,4.62 -0.44,6.85 -0.27,1.78 -0.86,4.29 -1.57,5.71l-1.89 3.51c-0.24,0.33 -0.61,0.55 -0.74,0.89 1.01,0.81 4.59,0.87 6.04,0.72 -0.29,-0.81 -2.99,-1.47 -3.5,-2.72l3.64 1.94c0.76,0.42 0.91,0.65 1.9,0.88 1.88,0.44 1.25,0.38 2.1,0.66 1.54,0.5 6.07,-0.69 7.01,-1.19 0.55,-0.29 1.43,-0.53 1.82,-0.76 -0.02,-0.59 -0.68,-1.41 -1.01,-2.01 -1.26,-2.26 -0.08,-5.92 0.13,-8.15 0.08,-0.91 1.21,-6.62 1.58,-7.68 0.15,-0.42 0.3,-0.8 0.39,-1.16 0.33,-1.33 0.07,-1.05 -0.02,-1.14 -0.4,-0.29 -2.29,-0.66 -2.99,-0.66 -0.25,0.8 -0.11,1.14 -0.49,1.91l-1.5 -0.39 -0.28 -2.97c0.03,-0.3 0.06,-0.66 0.09,-0.95 -2.88,0.23 -1.35,2.23 -0.88,5.52 -0.49,0.22 -0.83,0.26 -0.99,0.88zm-0.88 -15.42c-0.04,1.17 -0.08,1.79 0.48,2.59 0.53,-0.06 0.84,-0.31 1.31,-0.47 0.89,-0.3 0.77,0.07 1.73,0.11 1.28,0.05 2.35,-0.36 3.11,-0.98 -0.21,-0.56 -1.84,-1.82 -2.8,-1.82 -2.58,0 -0.96,0.61 -3.83,0.58zm-2.5 3.91c-1.9,0 -1.27,-0.4 -2.39,-0.3 0.88,0.91 1.2,2.63 1.68,3.41 0.21,0.33 0.11,0.39 0.71,0.39 2.81,0 1.48,-0.72 3.25,-3.39 0.46,-0.69 0.79,-0.68 0.85,-1.36 -0.99,0.76 -2.61,1.24 -4.1,1.24zm-7.2 -3.6c1.18,0.72 1.34,0.5 2.73,0.47 1,-0.02 2.08,0.11 2.88,-0.32 -0.05,-0.42 -0.41,-1.23 -0.66,-1.46 -0.71,-0.66 -4.48,0.09 -4.95,1.31zm6.07 7.07c-0.52,-2.17 -0.86,-1.24 -1.82,-4.6 -0.27,-0.94 0.04,-0.82 0.29,-1.57l-3.62 0.07c0.95,0.45 2.52,1.72 2.83,2.8 0.47,1.61 0.31,3.44 2.33,3.31zm-0.35 -7.81c-0,1.28 1.03,0.95 1.98,1.33 1.01,0.41 0.68,1.31 0.95,2.44 0.3,-0.19 0.83,-0.5 1.06,-0.72 -0.63,-1.02 -0.38,-2.25 -0.35,-3.56 -1.27,-0.05 -2.83,0 -3.64,0.51zm-2.06 10.39l0.25 -1.05c-0.67,-0.44 -0.83,-0.63 -1.94,-0.6l-0.73 0.59c0.19,0.74 0.67,2.89 1.05,3.27 0.47,-0.87 1.26,-1.79 1.38,-2.22zm9.57 -6.94c-1.1,-1.14 -1.6,0.4 -2.18,1.12 -0.43,0.54 -1.29,2.15 -1.35,2.78 0.18,-0.07 1.34,-0.61 1.44,-0.68 0.45,-0.32 0.83,-1.72 1.73,-2.59 0.57,-0.55 0.56,-0.19 0.94,-1.17 -0.42,0.18 -0.33,0.19 -0.59,0.54zm-10.07 3.14l-0.15 1.41c0.99,0.68 1.39,1.12 3.12,1.03 1.36,-0.08 2.59,-0.31 3.7,-0.71 0.4,-0.32 0.25,-0.03 0.4,-0.46 -1.89,-0.14 -2.75,1.46 -5.93,-0.06 -0.77,-0.37 -0.56,-0.77 -0.71,-1.77 -0.22,0.22 -0.24,0.25 -0.43,0.57zm4.53 -2.78l-0.07 -1.91c-3.99,-0.95 -3.19,2.03 -1.05,1.97 0.35,-0.01 0.74,-0.05 1.11,-0.06zm1.88 11.08l0.99 -0.12c0.05,-0.76 -0.34,-4.88 -0.73,-5.2 -0.29,0.6 -0.22,4.31 -0.26,5.32zm4.12 -2.16c0.53,-0.97 0.04,-3.53 -0.77,-3.98 -0.09,0.14 -0.3,-0.21 -0.02,0.91 0.54,2.13 -0.43,3.03 0.79,3.07zm0.96 -1.43c0.88,0.17 2.72,0.59 3.44,0.47 -0.26,-0.24 -1.02,-0.73 -1.56,-0.93 -0.43,-0.16 -0.65,-0.1 -1.12,-0.27 -0.44,-0.17 -0.51,-0.3 -1.03,-0.23l0.27 0.95zm-3.95 -3.12c-0.01,0.47 -0.07,0.19 0.12,0.48l0.92 0.05 -0.26 -0.61c0.33,0.16 0.48,0.31 0.93,0.33 0.13,-0.63 0.04,-0.89 -0.08,-1.43 -0.78,0.16 -0.45,0.18 -0.9,0.57 -0.49,0.43 -0.36,0.03 -0.74,0.61zm-1.49 3.61l0.14 -0.74 -0.02 -0.31c0,-0.87 0.29,-1.12 0.29,-1.83 -1.2,0.31 -0.94,2.15 -0.41,2.88zm-15.12 16.02c0.23,-0.36 1.35,-5.49 1.42,-6.27 0.18,-2.34 0.37,-4.93 -0.01,-7.27 -2.19,1.11 -2.07,4.18 -2.23,6.19 -0.13,1.68 -0.14,6.49 0.82,7.35zm28.56 -2.13c3,-1 2.18,-6.3 1.37,-7.26 -0.45,0.56 -0.29,1.01 -0.43,1.77 -0.28,1.56 -1.3,3.77 -0.94,5.49z"/>
   <path class="fil3" d="M64.37 17.9c-0.06,-2.19 3.27,-5.6 4.07,-5.82 1.67,-0.45 2.18,1.21 2.69,2.19 1.62,3.08 1.58,9.53 0.66,12.88 -0.35,1.28 -0.31,2.91 -0.81,4.13 -0.6,1.45 -0.45,2.23 -1.66,3.16 -1.45,-0.24 -1.6,-1.46 -2.03,-2.76 -0.44,-1.3 -0.48,-2.62 -0.53,-4.05 -0.05,-1.55 -0.16,-3.01 0.04,-4.56 0.57,-4.24 1.47,-4.55 -2.43,-5.16zm21.29 12.03c0,-1.24 1.01,-0.82 2.09,-0.21 2.73,1.54 0.72,4.6 -2.03,5.26l-0.06 -5.05zm-3.47 5.2c-0.28,-1.22 -0.09,-4.47 -0.05,-5.86l2.86 0.06c-0.03,1.09 -0.31,1.71 -0.19,3.06 0.07,0.81 0.36,2.2 0.31,2.91l-2.93 -0.17zm-0.59 -6.64c-0.3,-0.03 -2.02,-0.5 -2.32,-0.63 -0.83,-0.36 -1.27,-1.79 -0.65,-3.28 0.28,-0.66 0.21,-0.48 0.71,-0.84 0.68,-0.48 1.04,-0.79 2.12,-0.72 0.16,1.68 0.33,3.81 0.14,5.47zm0.54 -5.64c0.84,0 2.47,-0.1 3.02,0.37 0.37,0.51 0.21,4.31 0.1,5.27l-2.95 0.02 -0.17 -5.66zm3.31 -2.93l-0.27 -0.04c-0.63,0.38 -0.11,1.17 -0.15,2.03l-3.28 0.01c-0.3,-1.62 0.04,-0.76 -0.77,-1.78l0.36 1.84c-3.29,0.55 -5.24,3.98 -2.68,6.21 1.36,1.18 1.79,0.23 2.73,1.13l0.04 5.49c-1.26,-0.28 -2.55,-1.63 -3.07,-1.84l-1.34 -0.47c0.08,0.65 0.26,1.07 0.67,1.45 0.76,0.7 1.52,1.14 2.43,1.58 0.52,0.24 1.16,0.41 1.53,0.58l0.09 1.64c0.07,-0 0.11,-0.05 0.12,-0.03 0.22,0.63 0.13,-0.04 0.16,-0.04 0.26,-0.06 -0.08,-0.12 0.31,-0.04l-0.12 -1.49 3.15 -0.03c0.01,0.74 -0.07,0.6 0.2,1.18 0.63,-0.93 0.25,-0.28 0.49,-1.45 5.22,-1.9 5.09,-7.05 -0.17,-7.44l-0.07 -4.95c2.53,0.67 2.27,1.39 3.63,1.43 0.04,-0.74 -0.34,-0.99 -0.74,-1.47 -1.09,-1.27 -3.75,-0.61 -3.23,-3.48zm-34.67 1.2c-0.33,-1.13 -0.98,-3.31 -1.64,-4.29 -0.74,-1.11 -1.11,-5.14 -3.28,-5.39 -3.24,-0.38 -2.09,3.25 -2.06,6.33 0.03,3.92 0.16,7.58 -0.04,11.41 -0.09,1.69 -0.51,3.79 -0.49,5.4 0.01,1.33 0.32,1.29 1.06,1.85 0.57,0.43 1.07,0.75 1.99,0.71 0.84,-1.54 1.21,-4.84 1.36,-6.72 0.05,-0.6 0.32,-1.52 0.41,-2.19l0.56 -1.61c0.63,0.44 1.64,2.33 1.98,3.24 0.27,0.72 0.64,1.05 0.9,1.7 0.55,1.39 2.11,4.21 3.14,5.03 0.58,0.46 1.09,0.21 1.76,0.86 0.41,0.39 0.87,0.78 1.77,0.5 0.4,-0.13 0.08,0.05 0.33,-0.18 0.36,-0.64 0.22,-10.89 0.24,-12.6 0.04,-4.09 0.06,-8.3 0.83,-12.01 0.2,-0.98 0.04,-1.85 -0.65,-2.23 -0.55,-0.3 -2.3,-0.34 -2.93,-0.17 -1.11,0.29 -1.03,0.8 -1.29,1.99 -0.31,1.47 -0.08,13.47 -0.15,16.05 -0.61,-0.42 -1.81,-3.13 -2,-3.8 -0.26,-0.91 -0.6,-1.14 -0.89,-1.95 -0.27,-0.74 -0.5,-1.35 -0.91,-1.91zm10.76 1.04c0.35,2.01 -0.26,5.18 0.74,7.59 0.45,1.08 0.31,1.17 1.14,3.01 0.55,1.21 0.47,1.27 1.78,2.4 1.6,1.39 2.96,1.93 5.21,1.53 1.05,-0.18 1.66,-1.03 2.19,-1.95 0.68,-1.17 1.4,-2.01 1.89,-3.66l1.02 -4.54c0.34,-1.8 0.23,-5.85 0.23,-8.16 0,-2.31 -0.08,-2.24 -0.8,-4.04 -0.81,-2.05 -0.03,-0.68 -1.21,-2.34 -0.1,-0.14 -0.4,-0.7 -0.46,-0.77l-0.62 -0.48c-1.02,-0.99 0.01,-0.65 -2.67,-1.02 -4.01,-0.56 -4.49,0.39 -5.9,1.09 -0.77,0.38 -1.92,1.89 -2.3,2.62 -0.92,1.79 -2.5,5.82 -1.64,7.69 0.38,0.82 0.84,0.71 1.41,1.04z"/>
  </g>
 </g>
</svg>
