<?xml version="1.0" encoding="UTF-8"?>
<!DOCTYPE svg PUBLIC "-//W3C//DTD SVG 1.1//EN" "http://www.w3.org/Graphics/SVG/1.1/DTD/svg11.dtd">
<!-- Creator: CorelDRAW -->
<svg xmlns="http://www.w3.org/2000/svg" xml:space="preserve" width="66.1069mm" height="12.6446mm" version="1.1" style="shape-rendering:geometricPrecision; text-rendering:geometricPrecision; image-rendering:optimizeQuality; fill-rule:evenodd; clip-rule:evenodd"
viewBox="0 0 176.34 33.73"
 xmlns:xlink="http://www.w3.org/1999/xlink"
 xmlns:xodm="http://www.corel.com/coreldraw/odm/2003">
 <defs>
  <style type="text/css">
   <![CDATA[
    .fil0 {fill:#07090A}
    .fil2 {fill:#F80400}
    .fil1 {fill:white}
   ]]>
  </style>
 </defs>
 <g id="Camada_x0020_1">
  <metadata id="CorelCorpID_0Corel-Layer"/>
  <g id="_2086856997552">
   <path class="fil0" d="M176.34 16.87l0 -8.77c-1.72,-0.7 -2.79,-1.66 -6.53,-1.52 -1.37,0.05 -2.62,0.33 -3.6,0.61 -1.11,0.32 -1.51,0.74 -2.67,1.06 -0.58,-1.68 -2.06,-1.22 -4.59,-1.22 -13.14,0.01 -14.15,-0.91 -14.7,2.68 -0.83,-0.85 -1.38,-1.64 -2.52,-2.18 -2.57,-1.22 -6.45,-1.08 -9.25,-0.14 -1.86,0.63 -2.4,1.51 -3.23,1.69 -0.03,-2.49 0.46,-3.75 -1.7,-5.51 -1.03,-0.84 -1.64,-1.23 -3.35,-1.36 -3.47,-0.26 -6.92,-0.36 -10.42,-0.28 -2.95,0.07 -2.57,0.92 -3.5,4.34 -0.2,0.74 0.03,2.18 -0.83,2.75 -1.14,-0.63 -1.23,-1.29 -2.94,-1.81 -1.4,-0.42 -2.7,-0.7 -4.55,-0.61 -5.19,0.25 -5.93,2.2 -7.15,2.41 -0.2,-1.02 1.37,-3.67 0.97,-6.79 -2.15,-0.29 -6.61,-0.69 -8.85,-0.16 -2.14,0.5 -1.37,2.93 -2.23,4.2 -0.88,1.3 -5.55,0.78 -7.85,0.78 -5.01,-0.02 -3.94,0.3 -4.71,2.71 -0.77,-0.13 -1.25,-1.09 -1.62,-1.51 -0.84,-0.96 -1.34,-0.6 -2.35,-1.19 0.32,-0.91 1.68,-1.36 2.49,-2.12 0.73,-0.69 2.19,-1.23 2.66,-1.88 0.74,-1.05 0.7,-2.19 -1.32,-2.37 -1,-0.09 -4.68,-0.07 -5.71,0.01 -1.35,0.1 -1.32,0.3 -1.75,0.86 -0.36,0.47 -0.69,0.69 -1.06,1.1l-3.71 4.74c-0.68,0.48 -2.04,1.53 -2.9,1.67 0.07,-1.11 0.72,-2.57 1.06,-3.76 0.37,-1.3 1.35,-2.85 -1,-3.26 -0.88,-0.15 -6.37,-0.2 -7.33,-0.08 -2.41,0.31 -1.43,1.75 -2.18,2.81 -0.2,0.29 -0.07,0.13 -0.34,0.32 -0.68,-0.99 -1.14,-1.57 -2.13,-2.38 -0.58,-0.47 -2.45,-1.1 -3.65,-1.29 -2.59,-0.41 -4.85,0.15 -6.93,0.83 -0.72,0.23 -0.88,0.48 -1.46,0.81 -1.35,-0.18 -4.01,-2.15 -7.43,-2.6 -2.77,-0.37 -7.84,-0.68 -10.82,-0.19 -2.88,0.48 -4.19,2.28 -5.87,3.6 -2.54,1.99 -5.7,0.77 -7.23,2.77 -1.96,2.56 -0.44,3.06 -1.03,4.17 -1.53,2.91 0.46,3.03 2.09,3.56 0.76,0.25 1.78,0.96 3.15,1.59 1.72,0.79 2.09,4.17 2.91,5.38 2.14,3.16 5.31,2.79 5.94,3.57 0.27,0.56 0.36,3.48 0.19,4.23 -0.3,1.33 -0.76,2.89 0.68,3.94 1.3,0.95 4.25,0.75 5.96,0.07 1.72,-0.68 1.55,-2.11 2.75,-2.8 1.33,0.54 1.28,1.95 3.83,2.74 3.01,0.94 4.34,-0.28 6.77,-0.23 18.9,0.43 15.02,0.08 16.27,-1.76 0.26,-0.38 0.21,-0.27 0.4,-0.43 2.13,1.93 3.2,2.73 7.49,2.58 6.22,-0.21 4.88,-1.89 7.54,-2.56 -0.41,2.93 2.98,2.41 7.44,2.31 2.21,-0.05 2.44,-0.58 2.82,-1.67 1.33,-3.83 1.67,-7.73 3.03,-11.62 0.25,-0.73 0.59,-1.96 1.88,-2.06 0.43,2.04 -2.5,8.14 -2.76,10.77 -0.14,1.42 -2.05,4.39 1.52,4.58 1.47,0.08 3.56,0.01 5.1,0.01 3.15,0 1.82,-0.49 3.37,-1.16 1.5,0.74 0.67,1 3.44,1.33 1.55,0.18 2.97,-0.18 4.76,-0.19 3.74,-0.01 18.35,0.29 20.87,-0.29 1.15,-0.27 2.48,-0.79 3.22,-1.26 0.75,-0.48 1.43,-1.59 2.24,-1.88 0.86,0.63 0.39,1.32 2.67,2.64 1.22,0.71 2.6,1.06 5.06,1.07 5.88,0.03 6.44,-2.41 8.21,-3.25 0.46,0.38 0.53,0.95 0.99,1.45 1.77,1.92 3.08,1.81 6.8,1.56 7.65,-0.51 9.45,1.16 10.43,-1.93 0.9,0.18 2.22,1.35 3.41,1.75 3.64,1.22 9.56,0.07 11.41,-2.26 2.14,-2.69 2.96,-4.48 3.24,-7.82 0.14,-1.71 -0.5,-3.28 -2.05,-4.62 -0.5,-0.44 -1.07,-0.58 -1.2,-0.95 1.21,-0.23 2.07,0.1 3.92,-0.31z"/>
   <path class="fil1" d="M28.06 26.24c-0.4,0.4 -1.33,1.34 -1.9,1.54 -0.08,-0.1 -0.61,0.11 0.09,-0.75 0.31,-0.38 0.49,-0.54 0.88,-0.82l-4.76 -0.4c-1.29,-0.19 -0.88,-0.03 -1.36,-0.31l0.45 -0.39c0.46,-0.26 0.19,-0.08 0.24,-0.33 0.24,-0.17 0.33,0.14 0.29,-0.6l-2.35 0.12c-0.25,-0.23 -0.4,0.33 -0.14,-0.37 1.24,-0.13 2.95,-0.21 4.24,-0.22 1.05,-0.02 3.42,-0.17 4.13,0.21 -1.16,0.44 -3.89,0.07 -5.26,0.33 -0.12,1.04 1.04,0.79 2.49,0.61 2.31,-0.27 0.94,0.09 2.56,0.53 0.49,-0.6 0.96,-1.37 2.29,-1.31 -0.07,0.86 -0.79,0.43 -0.87,1.15 -0.03,0.28 0.01,0.2 0.14,0.34 1.78,0.46 -0.03,-0.36 2.04,-0.36 0.41,0.64 -0.07,1.05 -1,1.27 -1.56,-0.05 -0.11,-0.42 -2.21,-0.24zm-8.66 -19.65c0.08,-0.09 0.35,0.2 0.15,-0.27 -0.13,-0.31 0.18,-0.06 -0.39,-0.25 -0.59,0.48 -0.4,0.34 0.24,0.52zm3.84 3.02c0.05,0.24 0.1,0.95 0.82,0.41 0.67,-0.5 -0.39,-0.42 -0.82,-0.41zm-2.64 -5.42c0.5,-0.17 0.12,0.09 0.47,-0.21 0.32,-0.26 0.45,-0.57 0.25,-0.82 -0.76,0.27 -0.2,-0.13 -0.62,0.48l-0.1 0.55zm0.05 2.52c0.92,-0.07 0.99,-0.17 1.15,-0.71 -0.97,0.06 -1.12,0.12 -1.15,0.71zm8.88 -0.47c-0.28,-0.69 -0.58,-0.61 -1.16,-1.12 -0.61,-0.54 -0.23,-0.72 -1.43,-0.82 0.33,0.66 1.25,1.65 2.59,1.94zm-5.96 -2.54c-0.11,0.66 -0.31,1.3 0.74,1.52 0.1,-0.5 0,-0.75 -0.09,-1.23 -0.15,-0.77 0.01,-0.83 -1.24,-0.9 0.22,0.37 0.14,0.34 0.59,0.61zm-2.36 4.8c0.7,0.28 0.78,0.05 1.66,0.23 0.55,0.11 0.51,0.27 1.2,0.27 0.1,-0.57 -0.22,-0.61 -1.12,-0.78 -1.15,-0.21 -1.5,-0.42 -1.73,0.28zm1.55 12.64c0.61,-0.36 1.12,-1.35 1.47,-1.94l-1.4 0.24c-0.33,0.55 -0.58,1.18 -0.07,1.7zm6.28 -12.38c0.75,-0.86 -0.69,-0.46 -0.99,-1.56 -0.16,-0.59 -0.22,-1.59 -1.12,-1.85 -0.16,0.52 0.04,1.52 0.35,2.04 0.38,0.64 0.21,0.15 0.87,0.63 0.37,0.27 0.36,0.44 0.89,0.74zm0.83 4.42l0.97 -0.1c0.24,-0.37 0.45,-0.65 0.62,-1.08 0.25,-0.63 0.1,-0.66 0.72,-1.09l1.13 0.05c0.28,0.75 -0.24,0.9 -0.92,1.33 0.41,0.25 -0.56,0.05 0.49,0.23 0.42,0.45 0.23,0.49 0.23,0.49 0.07,0.62 0.08,1.01 -0.33,1.1 0.08,0.91 -0.7,1.5 -0.98,2.3 -1.2,3.38 -1.94,2.67 -2.09,4.29 -0.08,0.82 -0.21,1.62 -0.73,2.35l-3.41 0.06c0.46,-1.33 2.3,-1.59 2.62,-3.3l-0.8 0.64c-0.72,0.84 -2.12,2.41 -3.67,2.53 -1.96,0.15 -1.32,-0.09 -2.63,-0.3 -0.54,0.26 -0.54,0.53 -1.21,0.66 -0.37,-0.56 1.64,-2.33 0.97,-3.34 -1.45,0.29 -1.39,2.03 -4.22,2.55 -2.45,0.45 -4.37,-1.01 -4.95,-1.84 -0.49,-0.7 -0.48,-1.37 -0.82,-2.13 -0.56,-1.26 -1.6,-2.89 -0.94,-4.16 0.36,-0.69 1.15,-0.96 1.29,-1.74 -1.97,0.18 -1.63,2.06 -4.12,1.37 -1.15,-0.41 -0.45,-0.64 -1.16,-1.22 -0.88,-0.72 -1.2,0.06 -1.79,-0.7 1.46,-1.34 2.14,1.95 5.46,-0.08 -1.64,-0.07 -1.52,0.81 -2.97,-0.22 -0.73,-0.52 -1.23,-1.1 -1.43,-1.93 0.46,-0.17 0.86,-0.18 1.62,-0.32l-0.39 -0.8c2.32,-0.02 4.29,-0.14 4.9,-1.34 -1.4,0.32 -4.93,1.2 -6.36,0.65 0.14,-0.5 0.74,-0.56 1.5,-0.72 3.21,-0.68 2.66,0.56 4.66,-1.98 1.24,-1.58 2.62,-1.57 4.05,-2.36 0.84,-0.46 0.34,-0.57 1.34,-0.83 0.72,0.29 0.61,0.3 0.75,1.01 1.36,-0.78 1.84,-1.03 4.32,-1.02 3.36,0.01 3.49,0.7 4.51,0.97 1.49,0.39 0.77,-0.18 2.28,0.5 2.29,1.04 2.2,0.59 3.21,3.37l1.42 -0.3c-0.29,1.1 -1.01,0.41 -1.19,1.31 0.61,0.17 0.58,0.03 1.28,0.31l-0.41 0.55c-2.49,0.39 -1.8,1.99 -1.91,3.81l-0.89 0.03 -0.09 -0.47c-1.1,0.34 -0.82,0.41 -1.6,0.79 -0.54,-1 0.13,-1.02 0.36,-1.8 -1.25,0.41 -0.44,0.74 -2.61,0.95 -0.36,-0.27 -0.29,-0.36 -0.74,-0.65 -0.86,0.01 -2.09,-0.06 -2.67,0.12 0.22,0.45 -0.55,0.27 1.03,0.44 1.08,0.12 0.94,-0.17 1.39,0.29 -0.52,0.13 -1.23,0.17 -1.85,0.07 -1.56,-0.26 -0.4,-1.51 -0.77,-2.1 -0.54,-0.36 -1.23,-0.63 -1.78,-0.97 -0.98,-0.61 -0.45,-0.78 -0.64,-1.65 -1.08,-0.41 -2.58,-0.6 -3.14,-1.17 -1.27,-1.31 0.73,-1.78 0.23,-2.48 -1.37,-0.49 -2.05,-0.04 -2.77,0.32 0.25,0.45 -0.57,0.44 0.74,0.29 0.81,0.05 0.57,-0 1.12,0.29l-0.05 0.44c-0.79,0.44 -0.6,0.1 -1.36,0.41 0.37,0.52 0.49,0.26 1.27,0.62 -0.29,1.31 -1.54,0.96 -2.74,0.44 -0.19,0.66 0.4,0.71 0.91,1.27 0.62,0.69 0.28,1.07 0.7,1.75 0.7,1.13 3.44,1.08 3.23,2.26 -3.9,-1.24 -1.16,-0.59 -4.38,0.4 -3.04,0.93 -1.07,1.98 -0.71,3.52 0.23,1 -0.07,1.57 -0.2,2.51 1.89,-0.35 0.86,-0.58 3.67,-0.56l0.89 0.06c0.48,-0.44 0.57,-0.51 1.58,-0.49l0.07 0.73c0.07,0.34 -0.07,0.23 0.27,0.54 0.5,0.48 0.26,0.27 0.89,0.4 1.44,-0.79 0.72,-3.38 4.47,-4.22 1,-0.22 2.38,-0.05 3.34,-0.3 0.59,-1.79 -0.21,-0.91 1.95,-1.63zm2.34 -2.7c-0.34,-0.39 -0.2,-0.86 0.19,-1.26l1.01 0.07c0.4,0.6 -0.08,1.14 -1.2,1.19zm-0.29 3.75c-0.18,-0.53 0.07,-0.52 -0.73,-0.45 -0.56,0.76 -0.42,1.51 -1.07,2.36 -0.49,0.64 -0.97,1.83 -0.34,2.46 0.75,-0.33 0.58,-0.33 0.78,-1.06 0.37,-1.32 1.24,-2.64 1.37,-3.31zm-10.09 4.46c0.82,-0.09 1.31,-0.53 2.57,-1.06l2.43 -1.73c0.37,-0.36 0.29,0.29 0.25,-0.54 -1.7,-0.1 -1.93,0.06 -3.12,0.39 0.49,0.54 0.56,0.21 1.1,0.61 -0.76,0.26 -1.29,-0.01 -2.31,-0 -0.33,0.45 -0.99,1.68 -0.91,2.33zm-5.76 1.19c0.76,-0.05 1.17,-0.01 1.94,0.28l-0.69 1.49c1.06,-0.16 0.79,-0.18 1.37,-0.76 0.44,-0.44 0.61,-0.51 0.73,-1.04 -0.78,-0.31 -1.89,-0.44 -2.74,-0.71 -1.18,-0.38 -1.89,-0.24 -2.78,0.16 -0.37,1.19 0.15,2.37 2.04,2.22l0.12 -1.64zm7.88 7.74l-2.08 0.24c-1.06,0.04 -1.06,-0.2 -1.21,-0.75 0.33,-0.56 0.07,-0.27 0.66,-0.47 0.7,0.29 0.4,0.21 0.9,0.59 0.32,-0.05 0.59,-0.14 1.02,-0.11 1.34,0.1 0.67,0.16 0.71,0.5zm-4.76 -2.1c-0.21,0.39 0.63,3.15 0.91,3.64 0.72,1.25 0.79,2.35 -2.03,2.25l0.42 -6.5 0.91 -0.02 -0.21 0.63zm43.3 -18.7c1.24,0.1 2.53,0.04 3.26,-0.35 0.55,-0.3 1.47,-0.9 2.01,-1.4 0.7,-0.65 1.17,-0.78 2.09,-1.37l1.31 -1.11c0.29,-0.31 0.33,-0.12 0.05,-0.32 -0.76,-0.27 -2.73,-0.16 -3.79,-0.15 -2.15,0.02 -1.88,0.93 -3.7,2.99 -0.43,0.49 -1.38,1.1 -1.22,1.71zm24.4 0.15l6.2 -0.04c1.17,-4.21 2.89,-3.68 -4.19,-3.68 -1.32,0 -1.43,-0.06 -1.53,0.74 -0.13,0.99 -0.51,2.1 -0.47,2.99zm-61.48 7.18c0.24,-0.34 0.02,-0.21 0.67,-0.35 0.29,-0.06 0.96,-0.1 1.31,-0.12 -0.56,0.63 -0.58,0.47 -1.98,0.47zm-2.95 -0.35c0.32,-0.44 0.6,-0.51 1.34,-0.76 0.98,-0.33 1.27,-0.23 1.3,0.41l-2.65 0.35zm-1.32 0.73c0.06,0.44 -0.8,0.22 -1.45,0.27 -0.58,0.05 -2.6,0.63 -3.78,-0.83 0.89,0.11 2.3,0.51 3.09,0.23 -0.61,-0.18 -0.86,-0.36 -1.61,-0.58 -1.01,-0.3 -1.45,-0.16 -1.62,-0.75 1.17,-0.36 2.21,0.27 2.89,0.58l2.48 1.08zm5.33 -2.03c0.87,0.15 0.73,-0.11 0.76,0.44 -0.9,0.03 -0.52,0.17 -0.76,-0.44zm-6.6 -0.64c0.69,0.17 0.15,-0.13 0.71,0.43 0.34,0.34 0.37,0.26 0.39,0.66 -0.74,-0.01 -1.83,-0.44 -1.1,-1.09zm-4.23 -2.97c2.95,0.09 1.04,1.75 3.92,1.88 0.16,-1.2 -1.12,-0.65 -1.26,-1.48 1.12,0.07 2.15,0.44 2.67,0.85l-0.3 1.05c-0.64,-0.04 -0.44,-0.16 -0.93,-0.11 -0.56,0.05 -0.19,0.17 -1.31,0.17 -0.69,-0.57 -0.84,-0.62 -1.42,-1.02 -0.67,-0.46 -0.85,-0.87 -1.37,-1.34zm0.27 -0.68c0.08,-1.56 2.32,-0.73 3.23,-0.31 0.17,1.73 -2.27,0.99 -3.23,0.31zm64.57 23.25c1.43,0.08 5.14,0.16 6.27,-0.11 0.69,-0.77 0.51,-1.86 0.7,-2.74l3.88 -14.48c0.32,-1.08 1.73,-4.96 1.36,-5.72 -1.89,-0.16 -3.25,-0.08 -5.23,-0.08 -1.71,0 -1.24,0.29 -1.84,2.29l-1.47 5.94c-0.7,2.39 -2.18,6.97 -2.36,8.95 -0.13,1.45 -1.82,4.75 -1.33,5.94zm-0.32 -20.75c0.02,-1.25 0.97,-1.91 0.37,-2.25 -0.89,-0.24 -4.78,-0.21 -5.85,-0.01 -1.18,0.83 -1.31,4.34 -1.71,5.67l-3.88 14.44c-0.13,0.46 -0.25,0.87 -0.39,1.33l-0.2 1.25c0.22,0.83 5.25,0.35 6.26,0.22 0.94,-1.55 1.12,-4.52 1.63,-6.3 0.66,-2.3 1.47,-7.39 3.81,-8.59 1.81,-0.93 2.38,0.32 2.89,-1.86 0.39,-1.64 1.78,-4.96 1.4,-6.52 -2.23,0.03 -3.39,2.13 -4.33,2.6zm-37.5 20.71c1.24,0.15 5.22,0.21 6.14,-0.09 0.9,-0.4 1.87,-6.05 1.98,-6.69 0.35,-2.08 1.3,-4.69 1.93,-6.82 0.67,-2.26 1.06,-4.68 1.74,-6.94 0.71,-2.37 1.98,-5.31 1.77,-7.55l-6.08 -0.05c-0.68,0.63 -1.97,5.67 -2.21,6.83 -0.75,3.66 -1.74,6.97 -2.78,10.56 -0.33,1.14 -0.42,2.38 -0.78,3.59 -0.36,1.21 -2.16,6.37 -1.7,7.15zm54.96 -3.42c-1.2,-0.3 -1.36,-0.72 -1.32,-1.75 0.04,-0.98 0.88,-3.25 1.51,-4.1 0.13,-0.18 0.63,-0.74 0.77,-0.85 0.61,-0.46 0.32,-0.33 1.56,-0.37 -0.16,0.8 -2.16,6.79 -2.52,7.07zm-4.51 -10.67c1.22,0.16 4.19,0.14 5.44,-0 1,-1.66 0.44,-5.25 2.94,-5.18 0.41,0.65 0.21,3.05 -0.14,3.7 -0.72,1.31 -1.45,1.68 -3.1,2.34 -3.24,1.29 -5.52,1.82 -6.74,4.39 -0.88,1.86 -1.86,5.33 -1.4,7.43 0.26,1.19 1.52,2.11 3.86,1.87 2.4,-0.24 2.52,-1.67 3.49,-1.9 0.21,0.66 -0.18,0.54 -0.01,1.05 0.27,0.81 3.5,0.47 4.77,0.43 1.98,-0.05 1.57,-0.71 1.89,-1.93l1.31 -5.3c0.51,-1.74 0.96,-3.54 1.44,-5.23 0.27,-0.93 0.22,-1.86 0.47,-2.76 0.56,-2.03 1.95,-6.06 -0.91,-7.51 -1.97,-1 -5.45,-1.06 -7.67,-0.11 -1.18,0.51 -1.86,0.71 -2.64,1.48 -1.75,1.73 -3.76,5.42 -3.02,7.24zm-32.6 10.42c-2,0.15 -1.55,-0.3 -1.4,-1.24 0.37,-2.33 0.94,-3.89 1.57,-6.21 0.38,-1.4 0.75,-2.7 1.16,-4.1 0.25,-0.85 0.29,-3.55 1.23,-3.94 2.62,-1.09 1.01,2.77 0.85,3.34 -0.63,2.17 -2.84,11.53 -3.42,12.16zm9.73 -11.68c1.95,-6 -2.37,-10.11 -9.52,-7.25 -1.8,0.72 -3.58,2.57 -4.27,3.98 -0.89,1.81 -2.93,9.47 -3.09,11.11 -0.11,1.19 -1.73,5.88 1.11,7.23 3.64,1.74 8.47,0.46 10.04,-1.13 2.46,-2.49 2.75,-3.25 3.62,-6.54 0.61,-2.31 1.31,-4.95 2.11,-7.41zm-66.2 -6.89c0.1,-0.15 0.19,-0.26 0.5,-0.33 0.97,-0.24 0.78,0.08 0.81,0.09 -0.38,0.38 -0.32,0.42 -1.32,0.24zm29.12 18.23c-1.45,-0.7 -0.55,-2.1 -0.21,-3.3 0.34,-1.22 0.49,-2.26 0.74,-3.5 0.56,-2.77 2.61,-8.07 2.81,-10.21 0.09,-0.96 0.37,-2.74 1.64,-2.98 2.67,-0.51 -0.51,5.03 -0.03,6.25l0.85 0.02c5.61,0.05 5.73,0.24 5.93,-0.84 0.26,-1.43 0.76,-3.36 0.77,-4.62 0,-1.19 -0.25,-2.47 -0.86,-3.53 -0.42,-0.72 -2.32,-1.65 -3.43,-1.86 -2.8,-0.54 -5.19,0.22 -7.15,1.22 -0.74,0.38 -0.55,0.59 -1.29,1.05 -1.18,-0.18 -1.22,-1.35 -4.34,-2.55l-6.35 -1.4c-1.86,-0.12 -3.12,0.43 -5.12,0.15 -3.05,-0.41 -1.91,0.32 -3.55,0.92 -0.98,0.35 -1.05,0.13 -1.74,0.71 -0.53,0.45 -1.85,2.65 -3.6,3.06l-4.56 0.71c-1.12,0.43 -0.73,1.17 -1.04,2.04 -0.35,1.01 -0.05,1.21 0.67,1.94 -0.7,0.7 -1.84,0.83 -1.48,2.06 1.64,0.85 1.5,0.19 2.52,0.57 0.99,0.38 0.7,0.83 1.53,1.3 0.58,0.33 1.59,0.49 2.35,0.74 0.3,1.8 1.27,4.06 2.33,5.61 0.9,1.32 0.46,1.31 2.42,2.03 1.93,0.71 2.38,0.62 4.98,0.5 -0.15,0.97 -1.22,0.8 -1.22,2.18 0,1.89 -0.5,6.04 0.41,7.03 1.6,0.28 3.34,-0.31 4.04,-0.87 1.15,-0.93 0.76,-1.41 1.16,-2.71l3.35 -0.35c1.23,1.21 1.51,2.99 4.14,3.32 3.26,0.41 4.49,-1.84 5.79,-2.21l0.3 1.55c1.1,0.08 2.74,0.17 3.59,-0.03 1.18,-0.42 2.86,-9.49 3.34,-11.22 0.22,-0.79 1.2,-3.02 0.71,-3.68 -1.05,-0.28 -6,-0.27 -7.05,-0.05 -0.54,0.25 -0.22,-0.02 -0.51,0.45l-0.58 1.84c-0.63,2.01 -0.53,1.55 0.66,2.1 0.07,0.81 -0.93,6.15 -2.9,6.58z"/>
   <path class="fil2" d="M113.46 26.74c0.31,-1.64 0.9,-3.22 1.34,-4.85l1.09 -4.67c0.94,-2.95 1.98,-6.29 2.6,-9.26 4.31,0.01 0.34,6.03 0,9.58 -0.16,1.72 -0.86,3.62 -1.37,5.32 -0.52,1.74 -0.35,3.92 -3.66,3.89zm-7.26 4.5c1.58,0.26 6.24,0.13 8.09,0.09 3.3,-0.07 4.54,-0.15 6.13,-1.4 1.86,-1.46 2.83,-5.84 3.42,-8.13l1.02 -4.47c0.98,-3.41 4.01,-11.17 0.73,-13.03 -1.9,-1.08 -7.91,-1 -10.84,-0.87 -1.79,0.07 -1.77,0.41 -1.84,1.43l-3.44 13.24c-0.6,2.12 -3.54,12.35 -3.28,13.14z"/>
   <path class="fil2" d="M149.05 30.33c0.72,0.91 -0.08,0.99 2.16,1.01 1.31,0.01 2.79,0.15 4.03,-0.07 0.78,-0.97 3.66,-13.69 4.58,-16.88 0.5,-1.73 1.37,-4.2 1.28,-5.9l-5.86 0.03c-0.82,1.98 -3.2,12.45 -3.94,15.26 -0.78,2.95 -0.48,4.17 -3.06,3.95 -0.39,-0.94 3.71,-14.73 4.3,-18.36 0.18,-1.09 0.92,-0.91 -4.45,-0.91 -1.79,0 -1.17,-0.09 -2.01,2.91 -0.78,2.82 -4.64,16.76 -4.43,18.04 0.16,1 1.08,2.14 2.85,2.34 1.19,0.13 1.96,-0.25 2.6,-0.46 1.38,-0.46 1.07,-0.6 1.94,-0.98z"/>
   <path class="fil2" d="M134.08 16.61c-0.17,-0.28 0.4,-5.29 2.42,-4.48 0.84,0.34 0.08,1.94 -0.06,2.62 -0.23,1.1 -0.1,2.22 -2.37,1.87zm1.28 5.46c-0.87,0.87 -0.89,2.28 -1.27,3.3 -0.22,0.59 -0.96,3.26 -2.53,2.26 -0.76,-0.48 1,-6.22 1.22,-7.26 1.92,-0.3 5.87,-0.12 8.19,-0.18 0.95,-1.57 1.75,-5.79 1.66,-7.63 -0.14,-2.57 -1.99,-5.22 -7.01,-4.46 -6.89,1.04 -7.84,7.36 -8.78,11.99 -0.53,2.62 -1.76,5.05 -1.43,7.75 0.15,1.19 0.8,2.58 1.91,3.2 1.18,0.65 3.78,0.97 5.74,0.54 5.34,-1.16 6.75,-5.33 7.52,-8.42 0.29,-1.16 0.26,-1.17 -1.64,-1.16 -1.18,0.01 -2.4,-0.04 -3.57,0.07z"/>
   <path class="fil2" d="M166.35 27.78c-4.18,-0.01 -0.01,-3.5 -1.6,-4.18 -1.08,-0.2 -3.29,-0.19 -4.49,-0.05 -0.68,0.25 -4.5,8.94 5.44,8.21 0.69,-0.05 2.87,-0.52 3.23,-0.68 1.05,-0.47 2.91,-2.14 3.28,-3.26 1.01,-2.99 2.62,-6.29 -0.28,-8.81 -1.1,-0.96 -3.29,-1.77 -3.96,-2.84 -0.85,-1.35 -0.24,-3.22 1.13,-4.12 2.75,0.46 0.14,1.94 1.15,3.47l4.56 0.05c1.41,-2.12 2.31,-6.46 -2.53,-7.39 -2.4,-0.46 -4.88,0.16 -6.53,0.91 -1.66,0.76 -2.19,1.79 -2.98,3.3 -0.71,1.37 -1.1,2.9 -1.15,4.4 -0.07,1.84 0.7,2.66 1.99,3.89 1.07,1.03 2.64,1.65 3.58,2.94 0.87,1.2 0.17,3.13 -0.83,4.16z"/>
  </g>
 </g>
</svg>
