<?xml version="1.0" encoding="UTF-8"?>
<!DOCTYPE svg PUBLIC "-//W3C//DTD SVG 1.1//EN" "http://www.w3.org/Graphics/SVG/1.1/DTD/svg11.dtd">
<!-- Creator: CorelDRAW -->
<svg xmlns="http://www.w3.org/2000/svg" xml:space="preserve" width="33.8667mm" height="10.16mm" version="1.1" style="shape-rendering:geometricPrecision; text-rendering:geometricPrecision; image-rendering:optimizeQuality; fill-rule:evenodd; clip-rule:evenodd"
viewBox="0 0 118.39 35.52"
 xmlns:xlink="http://www.w3.org/1999/xlink"
 xmlns:xodm="http://www.corel.com/coreldraw/odm/2003">
 <defs>
  <style type="text/css">
   <![CDATA[
    .fil0 {fill:black}
    .fil1 {fill:#FF7979}
    .fil2 {fill:white}
   ]]>
  </style>
 </defs>
 <g id="Camada_x0020_1">
  <metadata id="CorelCorpID_0Corel-Layer"/>
  <g id="_2486279087360">
   <path class="fil0" d="M59.17 2.54l-0.13 0.16c-0.14,0.35 -0.04,0.06 -0.13,0.48 -0.36,-0.11 -2.51,-2.59 -5.29,-1.06 -1.46,0.8 -0.66,-0.12 -2.44,-0.22l-10.14 -0c-0.85,0.04 -0.68,0.24 -1.46,0.01 -0.58,-0.17 -0.73,-0.17 -1.47,-0.17 -0.76,0 -1,-0.02 -1.6,0.17 -0.82,0.25 -4.51,-0.29 -5.68,0.06 -0.27,0.08 -0.48,0.26 -0.56,0.29 -0.53,0.22 -0.51,-0.12 -1.14,-0.29 -0.76,-0.21 -14.29,-0.05 -16.75,-0.06 -1.65,-0 -1.65,-0.02 -2.67,0.8 -0.57,0.5 -0.96,3.99 -1.25,5.35l-1.01 5.64 0 0.32c-0.66,0 -1.12,-0.21 -1.57,-0.13 -2.13,0.35 -2.32,0.89 -3.37,1.73 -0.5,0.86 -0.24,1.79 0.49,2.28 0.48,0.32 0.42,0.06 0.58,0.59l0.14 0.31c-0.39,0.25 -0.48,0.27 -0.85,0.6 -0.32,0.29 -0.49,0.46 -0.83,0.76 -0.66,0.6 -0.83,1.15 -1.4,1.73 -0.92,0.95 -1.05,4.61 1.2,6.64 1.63,1.47 3.33,2.49 6.01,2.7 4.01,0.31 1.02,1.25 6,2.71 2.92,0.85 -1.43,1.28 7.2,1.28 11.02,0 22.05,0 33.07,0l24.54 0.16c1.3,-0 2.7,0.35 3.95,0.1 2.49,-0.5 0.35,0.06 3.65,0.06l24.81 0c1.39,0 2.85,0.18 3.56,-0.68 0.44,-0.53 0.97,-2.73 0.97,-3.78 -0.02,-1.04 -0.2,-1 -0.53,-1.59l0.13 -0.32c0.89,-1.59 0.55,-0.34 1.11,-2.65 0.35,-1.43 0.5,-1.84 -0.05,-3.08 0.91,-0.58 0.81,-0.6 1.1,-1.88 0.24,-1.06 0.37,-1.43 0.37,-2.9 -0.4,-0.35 -0.3,-0.6 -0.8,-0.96 -0.37,-0.27 -0.73,-0.34 -1.22,-0.48l0.15 -0.31c0.6,-1.07 1.44,-2.01 1.96,-3.23 0.67,-1.61 0.58,-2.59 0.58,-4.88 -0.29,-0.4 -0.16,-0.22 -0.28,-0.78 -0.09,-0.41 -0.11,-0.51 -0.22,-0.86 -1.77,-5.62 -7.86,-8.08 -13.07,-6.77 -2.24,0.57 -3.08,1.38 -4.7,2.67 -0.45,-0.13 -0.59,-0.33 -0.98,-0.59 -0.36,-0.23 -0.68,-0.38 -1.04,-0.51 -0.45,-0.17 -1.96,-0.52 -2.51,-0.49 -2.64,0.16 -2.37,1.12 -3.43,0.76 -0.66,-0.22 -3.43,-0.15 -4.19,-0.13 -1.46,0.04 -0.57,0.75 -2.28,0.2 -0.82,-0.26 -4.02,-0.2 -5.45,-0.34 -1.93,-0.19 -4.05,0.23 -5.61,0.02 -0.98,-0.14 -1.95,-0 -2.75,0.19 -0.84,0.2 -0.78,-0.22 -2.43,-0.21 -4.53,0.03 -2.62,0.24 -4.03,0.44 -0.4,0.06 -0.64,-0.2 -1.18,-0.27 -0.99,-0.12 -1.68,-0.16 -2.8,-0.17 -1.53,-0.01 -1.28,0.37 -2.26,0.64z"/>
   <path class="fil1" d="M5.29 24.34c0,-0.96 0.73,-1.62 1.22,-2.05 0.37,-0.33 1.33,-1.08 1.85,-1.13 0.6,1.49 0.72,3.29 1.25,5.04 0.18,0.61 0.56,1.17 -0.05,1.17 -1.86,0 -4.27,-0.75 -4.27,-3.02zm10.15 -1.28c0.59,2.15 -2.56,3.82 -2.95,3.82 -0.34,0 -0.76,-2.52 -0.88,-3.09l-0.72 -3.12c1.54,0 4.04,0.53 4.55,2.38zm1.32 8.76c-0.42,-0.68 -2.8,-0.99 -2.93,-2.87 0.59,-0.16 1.35,-0.58 1.91,-0.9 6.04,-3.43 3.66,-8.68 -2.04,-9.62 -3.01,-0.5 -2.99,0.53 -4.11,-0.82 -1.08,-1.3 -2.1,-1.87 -3.63,-1.87 -0.72,0 -1.67,0.22 -1.73,1.11 0.6,0.17 1.26,0.32 1.73,0.64 0.44,0.3 0.92,0.62 1.07,1.27 -0.23,0.38 -0.54,0.41 -0.93,0.64 -1.28,0.74 -1.57,0.91 -2.73,2 -1.22,1.15 -1.94,3 -1.17,4.72 1.42,3.17 5.82,3.63 8.7,3.63 0.37,0.66 0.77,1.32 1.34,1.75 1.28,0.96 3.21,1.08 4.53,0.32z"/>
   <path class="fil2" d="M60.24 33.58c0.47,0 0.56,-0.74 0.64,-1.15l2.11 -10.7c0.37,-2.32 1.04,-2.42 0.19,-2.63 -0.51,-0.12 -2.4,-0.42 -2.73,0.24 -0.05,0.11 -0.13,0.59 -0.17,0.75l-0.63 2.11c-0.17,0.62 -0.26,0.83 -0.41,1.42 -0.14,0.56 -0.29,0.87 -0.32,1.37 -0.47,-0.41 -0.25,-0.43 -0.17,-1.14l0.3 -4.33c-0.45,-0.11 -0.33,-0.27 -0.67,-0.27 -2.65,0 -2.1,-0.37 -2.51,1.62 -0.13,0.64 -0.23,1.15 -0.37,1.79 -0.15,0.7 -0.23,1.15 -0.35,1.81 -0.11,0.55 -0.26,1.24 -0.36,1.8 -0.29,1.55 -1.34,6.32 -1.34,7.31 1.11,0 1.07,0.1 2,-0.16 0,-0.96 0.95,-5.02 1.22,-6.19 0.15,-0.67 0.17,-1.17 0.52,-1.77 0,1.73 -0.8,6.44 -0.8,8.12 1.67,0 1.24,0.08 1.85,-1.93l1.25 -4.23c0.2,-0.62 0.44,-1.51 0.76,-1.95 -0.1,1.39 -1.47,6.56 -1.47,8.12l1.47 0z"/>
   <path class="fil2" d="M90.11 25.14c0.5,-7.15 1.48,-5.89 -2.4,-5.89 -0.65,1.46 -0.54,2.61 -0.76,3.55 -0.3,1.22 -0.47,2.33 -0.73,3.59 -0.11,0.53 -0.26,1.2 -0.38,1.78 -0.08,0.38 -0.07,0.51 -0.15,0.94l-0.92 4.48 2 0c0.14,-0.74 1.3,-7.2 1.73,-7.8 0,2.25 -0.67,5.66 -0.67,7.8l1.33 0c0.28,-1.42 0.76,-2.66 1.15,-4.04 0.19,-0.65 0.82,-3.39 1.25,-3.76 0,0.9 -0.19,1.15 -0.34,1.98l-1.12 5.82 2 0 0.68 -3.65c0.33,-1.76 2.02,-9.49 1.99,-10.68l-2.93 0.16 -0.84 2.98c-0.24,0.81 -0.42,2.09 -0.9,2.75z"/>
   <path class="fil2" d="M9.16 16.07c0,0.48 0.03,0.18 0.63,0.84 0.43,0.47 0.3,0.41 0.84,0.75l1.33 -6.37c0.48,0.42 0.05,2.04 -0.12,3.83 -0.2,2.05 -0.5,2.39 0.12,2.53 0.17,0.04 0.85,0 1.07,0 0.03,-0.49 0.28,-1.14 0.43,-1.71 0.13,-0.5 0.33,-1.26 0.5,-1.79 0.18,-0.57 0.28,-1.03 0.47,-1.67 0.39,-1.34 0.21,-1.33 0.6,-1.67 0,0.88 -1.01,6.05 -1.2,7 0.75,0.07 0.89,0.36 1.87,0.32 0.01,-0.51 0.16,-1.38 0.25,-1.77l1.67 -8.83c0.18,-1.11 0.61,-2.54 0.61,-3.57l-2.4 0c-0.84,0 -0.76,3.04 -1.73,3.82 -0.21,-1.11 0.23,-2.33 0.08,-3.42 -0.05,-0.4 0.06,-0.03 -0.08,-0.4l-2.67 0c-0.19,0.99 -0.37,1.88 -0.59,2.95 -0.1,0.47 -0.24,0.97 -0.33,1.36 -0.13,0.54 -0.15,1.13 -0.25,1.62 -0.28,1.44 -0.27,0.68 -0.58,2.96 -0.07,0.49 -0.14,1.13 -0.25,1.62 -0.1,0.51 -0.27,0.99 -0.27,1.59z"/>
   <path class="fil2" d="M27.44 27.54c0.19,-0.63 0.09,-0.49 0.79,-0.49 0,1.39 -0.11,1.53 -0.37,2.74 -0.18,0.85 -0.25,1.21 -1.1,1.24l0.68 -3.49zm0.79 -2.72c-0.44,0 -0.1,-0.85 0.08,-1.82 0.45,-2.42 1.34,-1.78 0.8,0.48 -0.16,0.66 -0.23,1.34 -0.88,1.34zm1.6 0.96c0.46,-0.74 0.72,-0.28 1.16,-1.48 0.23,-0.64 0.4,-1.52 0.44,-2.35 0.08,-1.51 0.18,-2.86 -2.14,-2.86 -2.88,0 -2.4,-0.74 -3.19,3.51l-1.49 7.62c-0.31,1.71 -0.98,3.35 -0.26,3.35 2.71,0 4.41,0.47 5.29,-1.8 0.32,-0.82 0.84,-3.28 0.84,-4.41 0,-1.1 -0.39,-1.14 -0.67,-1.59z"/>
   <path class="fil2" d="M74.91 24.34c0.12,-1.66 0.81,-3.38 0.93,-5.09l-2.13 0c-0.29,0.66 -0.27,0.87 -0.43,1.71 -0.1,0.52 -0.24,1.18 -0.35,1.81l-2.15 10.81 2.27 0c0.01,-0.71 0.18,-0.99 0.32,-1.69 0.12,-0.6 0.24,-1.13 0.35,-1.65 0.34,-1.6 0.21,-2.62 1.07,-2.71 0.17,0.42 0.13,-0.13 0.13,0.48 0,1.27 -0.93,3.84 -0.93,5.57l2.27 0c0.13,-1.87 2.65,-13.34 2.67,-14.33 -2.37,0 -2.19,-0.25 -2.43,1.08l-0.77 4.02 -0.8 0z"/>
   <path class="fil2" d="M102.78 33.58c0.11,-0.55 0.26,-1.22 0.37,-1.78l1.08 -5.4c0.14,-0.6 0.22,-1.16 0.37,-1.79 0.24,-0.97 0.98,-4.4 0.98,-5.36 -2.11,0 -1.77,-0.2 -2.04,1.23l-0.9 4.5 -0.27 -5.57c-2.37,-0.66 -2.06,0.4 -2.28,1.41l-0.71 3.61c-0.16,0.64 -0.22,1.19 -0.36,1.8 -0.27,1.19 -0.46,2.46 -0.73,3.74 -0.27,1.26 -0.48,2.39 -0.72,3.6 2.16,0 1.81,0.57 2.32,-2.17 0.16,-0.83 0.25,-1.14 0.43,-1.88 0.19,-0.82 0.11,-1.27 0.59,-1.69 0,2.13 -0.13,3.66 -0.13,5.73 0.77,0.2 0.85,0 2,0z"/>
   <path class="fil2" d="M69.57 33.58c0.42,0 0.37,-0.28 0.47,-0.72l0.51 -2.74c0.08,-0.36 0.13,-0.42 0.22,-0.86l1.88 -10.02c-2.34,0 -1.73,-0.24 -2.17,2.02l-0.76 3.71c-0.02,-0.03 -0.03,-0.09 -0.04,-0.11 -0.01,-0.03 -0.03,-0.08 -0.04,-0.11 -0.29,-0.96 -0.21,-3.93 -0.32,-5.51l-1.73 0c-0.42,1.05 -0.6,2.72 -0.89,4.03l-1.61 8.1c-0.53,2.65 -0.68,2.19 1.43,2.19 0.18,-0.93 0.39,-1.84 0.59,-2.8 0.12,-0.56 0.21,-0.93 0.33,-1.36 0.14,-0.5 0.16,-0.74 0.42,-1.09 0.07,0.36 0.13,0.37 0.13,0.8 0,4.83 -0.96,4.46 1.6,4.46z"/>
   <path class="fil2" d="M39.24 22.68c0.14,-0.78 0.11,-1.03 0.86,-1.05 0.13,0.65 -0,1.21 -0.21,2.13 -0.08,0.36 -0.17,0.66 -0.38,0.85 -0.22,0.2 -0.61,0.28 -0.61,-0.12l0.34 -1.82zm1.26 3.25c0.76,-0.21 1.12,-0.86 1.35,-1.73 1.25,-4.56 0.39,-5.12 -2.82,-5.12 -1.56,0 -1.33,-0.14 -1.66,1.52l-0.57 2.82c-0.37,2.17 -1.91,8.97 -1.91,10.14l2.27 -0.16 0.49 -2.76c0.09,-0.43 0.09,-0.35 0.17,-0.75 0.12,-0.64 0.18,-1.02 0.33,-1.67 0.34,-1.52 0.37,-1.14 0.75,-1.18 0.17,0.42 0.13,-0.13 0.13,0.48 0,0.97 -0.65,3.71 -0.88,4.85 -0.13,0.65 -0.34,1.2 0.22,1.2 1.84,0 1.7,0.13 1.97,-1.47l0.79 -4.17c0.08,-0.72 -0.02,-1.49 -0.62,-1.68l0 -0.32z"/>
   <path class="fil2" d="M62.09 8.25c0.09,-0.54 0.31,-2.29 0.8,-1.74 0.42,0.47 -0.2,3.08 -0.39,3.98 -0.08,0.38 -0.18,0.82 -0.24,1.15 -0.17,0.95 -0.32,1.66 -0.51,2.58 -0.21,1.02 -0.13,1.65 -1.13,1.68l1.46 -7.65zm-3.99 9.72c0,0.94 0.86,0.4 2.13,0.47 3.79,0.22 3.26,-2.47 4.36,-7.69 0.12,-0.56 0.21,-1.01 0.3,-1.55 0.78,-4.68 1.15,-5.24 -3.86,-5.24 -0.44,0 -0.77,2.46 -0.9,3.23l-1.69 8.96c-0.12,0.74 -0.34,1.09 -0.34,1.82z"/>
   <path class="fil2" d="M82.44 10.73c0.28,-1.31 0.65,-5 1.41,-4.08 0.25,0.29 -0.19,2.02 -0.3,2.54l-0.92 4.96c-0.3,1.65 -0.38,1.74 -1.06,1.76l0.86 -5.18zm-3.53 7.73c4.82,0 5.12,0.61 6.15,-5.55 0.06,-0.38 0.11,-0.9 0.21,-1.35 0.1,-0.48 0.17,-0.73 0.26,-1.28 1.06,-6.52 1.3,-6.14 -3.95,-6.14 -0.43,2.2 -2.67,13.39 -2.67,14.33z"/>
   <path class="fil2" d="M21.29 16.39c0,2.54 3.28,3.45 4.8,-0 0.4,-0.91 1.79,-8.72 2.13,-10.51 0.4,-2.1 0.64,-1.9 -1.46,-1.9 -0.54,0 -0.74,1.87 -0.93,2.87 -0.1,0.55 -0.15,1.12 -0.26,1.6 -0.13,0.57 -0.2,1.05 -0.34,1.67l-0.93 4.93c-0.13,0.8 -0.09,1.11 -0.75,1.18 -0.39,-0.97 2,-10.27 2,-12.26 -3.2,0 -1.6,-0.73 -3.48,7.46 -0.21,0.93 -0.79,4.09 -0.79,4.95z"/>
   <path class="fil2" d="M79.97 28.48c0.15,-0.76 0.4,-1.5 0.62,-2.29 0.21,-0.77 0.33,-1.48 0.72,-2.01 0,2.4 -0.38,3.05 -0.4,4.3l-0.93 0zm2.4 5.09c0.01,-0.57 0.18,-1.33 0.23,-1.79 0.08,-0.73 0.11,-1.22 0.17,-1.87 0.06,-0.64 0.13,-1.14 0.21,-1.81 0.07,-0.6 0.09,-1.3 0.15,-1.74 0.21,-1.7 0.71,-5.74 0.71,-7.11 -3.95,0 -3.2,-0.33 -3.75,1.57 -0.16,0.54 -0.36,1.18 -0.51,1.78 -0.49,1.95 -3.03,10.38 -3.07,10.98l2.27 0c0.73,-1.81 0.14,-2.55 1.6,-2.55 0,0.89 -0.25,1.71 -0.27,2.55l2.27 0z"/>
   <path class="fil2" d="M48.63 28.48c0,-0.94 0.7,-2.94 0.98,-3.92 0.18,-0.62 0.11,-0.68 0.48,-1.01l-0.53 4.15c-0.1,0.86 -0.24,0.79 -0.94,0.79zm2.4 4.93c0,-1.25 0.17,-2.35 0.31,-3.61 0.21,-2.03 1.03,-9.16 1.03,-10.71l-1.59 0.12c-0.58,-0.02 -1.41,-0.34 -1.77,0.31l-2.85 9.99c-1.35,4.84 -1.72,4.06 0.87,4.06 0.83,0 0.47,-2.55 1.33,-2.55l0.56 0 -0.16 2.54c1.15,0 1.31,0.11 2.27,-0.16z"/>
   <path class="fil2" d="M52.9 15.75c0,-1.33 0.68,-2.92 0.78,-4 0.18,-1.93 0.32,-2.21 0.67,-4.13 0.3,-1.61 1.48,-3.1 0.55,1.45l-0.53 2.39c-0.28,2.44 -0.42,2.21 -0.67,3.66 -0.11,0.66 -0.16,0.57 -0.27,1.11l-0.53 0 0 -0.48zm4.53 -9.55c0,-3.15 -2.85,-2.64 -3.82,-1.69 -1.56,1.53 -2.33,7.88 -2.8,10.68 -0.63,3.73 2.1,4.15 3.58,2.82 1.5,-1.35 1.46,-3.59 1.98,-5.28l1.07 -6.53z"/>
   <path class="fil2" d="M71.44 18.45c3.59,0 2.73,0.68 3.79,-3.12 0.36,-1.3 0.66,-2.53 1,-3.74 0.36,-1.27 0.67,-2.4 1.03,-3.7 0.25,-0.91 0.93,-2.94 0.98,-3.76l-2.27 0 -1.57 6.4c-0.17,0.71 -0.27,1.66 -0.7,2.03l0.51 -4.17c0.16,-1.34 0.42,-2.89 0.42,-4.27l-2.13 0c-0.27,1.37 -0.9,8.93 -1.15,11.05 -0.08,0.66 -0.1,1.35 -0.17,1.88 -0.09,0.79 -0.3,1.4 0.24,1.4z"/>
   <path class="fil2" d="M87.84 13.36c-0.53,0 0.16,-1.85 0.34,-2.46 0.29,-1 0.41,-2.09 0.86,-2.31l-0.53 4.62c-0.3,0.08 -0.31,0.16 -0.67,0.16zm-3.2 5.09c2.02,0 1.71,0.24 2.18,-1.54 0.23,-0.87 0.29,-1.36 1.15,-1.01 -0.05,0.77 -0.26,1.64 -0.27,2.55 2.2,0 2.18,0.3 2.27,-1.43 0.03,-0.71 0.1,-1.11 0.18,-1.86 0.16,-1.36 0.22,-2.42 0.37,-3.69l0.73 -7.3 -2.89 -0.05c-0.55,0 -0.68,1.43 -0.96,2.51l-2.77 10.22c-0.14,0.56 -0.67,1.59 0,1.59z"/>
   <path class="fil2" d="M34.63 9.38c0,2.68 2.36,2.59 1.86,5.4 -0.16,0.91 -0.14,1.42 -1.06,1.44 0,-3.61 1.53,-2.87 -1.6,-2.87 -0.54,2.75 -1.1,5.25 1.87,5.25 0.99,0 1.93,-0.89 2.32,-1.85 0.59,-1.47 0.75,-3.14 0.75,-4.84 0,-0.91 -1.13,-2.31 -1.57,-2.9 -0.79,-1.05 -0.25,-2.9 0.64,-2.99 0,0.34 0.02,0.77 -0.02,1.1 -0.17,1.39 -0.62,1.13 1.75,1.13 0.24,-1.21 0.88,-3.02 -0.11,-4.01 -0.88,-0.88 -2.53,-0.63 -3.26,0.15 -1.07,1.13 -1.56,3.18 -1.56,4.98z"/>
   <path class="fil2" d="M34.9 21.96c1.8,0 1.4,0.38 2,-2.71 -0.3,-0.08 -0.31,-0.16 -0.67,-0.16 -3.45,0 -3.12,-0.39 -3.52,1.53l-1.07 5.41c-0.14,0.63 -0.24,1.23 -0.35,1.81l-1.07 5.41c0,0.65 3.42,0.32 4,0.16 0.14,-0.36 0.52,-2.17 0.53,-2.71 -2.04,0 -1.82,0.17 -1.47,-1.43 0.13,-0.6 0.29,-1.18 0.4,-1.75 0.74,0 0.89,-0.14 1.47,-0.16 0.17,-0.89 0.4,-1.39 0.4,-2.55l-0.93 0c-0.85,0 0.07,-2.42 0.27,-2.87z"/>
   <path class="fil2" d="M115.05 21.96c0.14,-0.71 0.4,-1.76 0.4,-2.55 -0.3,-0.08 -0.31,-0.16 -0.67,-0.16 -2.43,0 -2.92,-0.34 -3.21,0.62l-1.62 8.1c-1.35,6.88 -1.92,5.76 1.76,5.76 0.67,0 0.6,-0.14 1.2,-0.16 0.07,-1.02 0.4,-1.46 0.4,-2.71l-1.6 0c0.02,-1.05 0.48,-2.61 0.8,-3.34l1.33 0c0.06,-0.85 0.38,-1.6 0.4,-2.55 -1.25,0 -1.47,0.16 -1.24,-0.98 0.4,-1.96 0.16,-1.86 2.04,-2.04z"/>
   <path class="fil2" d="M99.18 21.96c0.07,-1.03 0.4,-1.57 0.4,-2.71 -3.63,0 -3.66,-0.39 -3.94,0.71l-0.54 2.7c-0.3,1.63 -2.06,9.75 -2.06,10.92l4 0c0.18,-0.91 0.36,-1.82 0.53,-2.71l-1.73 0c0,-1.02 0.36,-2.56 0.8,-3.34l1.2 0c0.21,-0.51 0.48,-1.85 0.53,-2.55 -0.98,0 -1.43,0.32 -1.28,-0.85 0.13,-1.04 0.33,-1.28 0.48,-2.01 0.77,0 1.02,-0.14 1.6,-0.16z"/>
   <path class="fil2" d="M16.49 18.3c4.47,0 3.68,0.31 3.99,-1.13 0.11,-0.5 0.24,-1.02 0.28,-1.58 -2.36,0 -1.61,0.13 -0.93,-3.34 0.68,0 1.67,0.65 1.73,-2.55l-1.33 -0.16 0.45 -2.17c0.21,-0.65 0.66,-0.69 1.69,-0.69 0.06,-2.99 1.97,-2.71 -3.2,-2.71l-0.68 3.49c-0.29,1.54 -1.99,9.89 -1.99,10.84z"/>
   <path class="fil2" d="M66.64 4.13c-0.46,2.36 -0.97,4.69 -1.35,7.14 -0.27,1.72 -1.29,5.9 -1.32,7.18l3.87 -0.16c0,-1.03 0.33,-1.73 0.4,-2.71l-1.6 0 0.4 -2.38c0.16,-0.68 -0.06,-0.79 1.6,-0.96 0.15,-0.76 0.4,-1.64 0.4,-2.55l-1.2 0c0,-1.14 0.23,-2.1 0.53,-2.87l1.47 -0.11c0.06,-0.95 0.38,-1.72 0.4,-2.6 -0.6,0 -2.71,-0.41 -3.6,0z"/>
   <path class="fil2" d="M28.63 18.3l3.73 0c0.21,-0.52 0.54,-2.06 0.67,-2.71 -1.78,0 -1.81,0.16 -1.59,-0.91 0.23,-1.09 0.24,-1.49 0.65,-2.43 0.94,0 1.18,0.3 1.36,-0.6 0.12,-0.58 0.16,-1.41 0.37,-1.94 -0.41,0 -1.33,0.15 -1.33,-0.32 0,-0.38 0.3,-1.91 0.37,-2.11 0.24,-0.65 0.07,-0.36 0.68,-0.47 0.41,-0.07 0.53,-0.12 0.96,-0.13 0.15,-0.77 0.4,-1.77 0.4,-2.71 -4.77,0 -3.2,-0.97 -4.55,5.07l-0.35 1.81c-0.14,0.68 -0.17,1.22 -0.31,1.85l-1.05 5.59z"/>
   <path class="fil2" d="M110.78 21.96c0.3,-1.53 0.75,-2.71 0,-2.71 -5.15,0 -4.56,-0.63 -5.07,1.93 -0.25,1.25 0.1,0.93 1.21,0.93l-1.08 5.71c-0.21,0.9 -0.35,1.84 -0.55,2.84 -0.32,1.59 -0.86,3.07 -0.1,3.07 2.32,0 1.69,0.23 2.8,-5.25l1.34 -6.33 1.46 -0.2z"/>
   <path class="fil2" d="M46.63 21.96c0.94,0 1.22,0.26 1.45,-0.65 0.12,-0.48 0.28,-1.48 0.28,-2.05 -0.3,-0.08 -0.31,-0.16 -0.67,-0.16 -4.65,0 -4.3,-0.47 -4.66,1.45 -0.29,1.54 -0.54,1.42 1.06,1.42 0,1.44 -2.13,10.39 -2.13,11.62 2.12,0 2.18,0.23 2.41,-0.94 0.1,-0.53 0.18,-0.98 0.3,-1.55 0.51,-2.3 1.27,-7.59 1.96,-9.13z"/>
   <path class="fil2" d="M40.77 6.83l0.8 0c0,0.74 -0.27,2.03 -0.43,2.83 -0.17,0.84 -0.36,1.85 -0.55,2.84 -0.21,1.11 -1.01,4.76 -1.01,5.79l2.13 0 0.75 -4.35c0.36,-1.74 1.01,-5.97 1.51,-7.11l1.2 0c0.7,-3.59 1.47,-2.87 -3.87,-2.87 -0.63,0 -1.32,2.87 -0.53,2.87z"/>
   <path class="fil2" d="M46.5 17.98c0,0.65 0.3,0.37 1.37,0.4l2.1 -0.08c0.02,-0.92 0.44,-1.43 0.53,-2.71l-1.33 0c0,-0.98 0.75,-4.66 1.05,-5.6l0.95 -5.86c-0.7,-0.2 -1.14,-0.16 -2,-0.16l-0.37 1.63c-0.51,3.17 -1.44,7.23 -2,10.51l-0.3 1.87z"/>
   <path class="fil2" d="M22.36 33.58c1.05,0 0.93,-1.22 1.15,-2.28l1.66 -8.37c0.2,-1.09 0.66,-2.58 0.66,-3.83l-2.13 0 -1.45 7.18c-0.27,1.49 -1.35,6.13 -1.35,7.31l1.47 0z"/>
   <path class="fil2" d="M63.3 33.58c0.58,0 0.68,-0.94 0.77,-1.47l2.17 -10.95c0.15,-0.71 0.27,-1 0.27,-1.91l-2.13 0c-0.47,2.42 -2.8,13.31 -2.8,14.33l1.73 0z"/>
   <path class="fil2" d="M76.24 18.45c1.09,0 0.96,0.09 1.87,-0.16l1.26 -7.1c0.23,-1.26 1.28,-6.22 1.28,-7.07 -2.38,0 -2.09,-0.44 -2.53,2.39l-2.17 11.29c-0.06,0.3 -0.19,0.64 0.3,0.64z"/>
   <path class="fil2" d="M43.43 18.3l2.13 0 2.67 -14.17c-2.63,-0.73 -2.14,0.29 -2.74,3.1l-2.06 11.07z"/>
   <path class="fil2" d="M20.89 30.71c-0.61,0 -1.32,0.19 -1.41,-0.31l1.97 -10.02c0.11,-0.59 0.48,-1.29 -0.16,-1.29 -1.36,0 -2.13,-0.37 -2.13,1.59 0,0.42 0.77,1.19 0.74,2.68 -0.06,2.58 -1.8,3.22 -2.2,4.5 -0.1,0.31 -0.54,2.47 -0.54,2.85 0,0.89 0.27,0.16 0.27,1.43 -0.75,0.24 -1.17,1.43 -0.4,1.43l2.13 0c0.67,0 0.6,-0.14 1.2,-0.16 0.15,-0.77 0.48,-1.88 0.53,-2.71z"/>
   <path class="fil0" d="M12.49 26.89c0.39,0 3.54,-1.68 2.95,-3.82 -0.51,-1.86 -3.01,-2.38 -4.55,-2.38l0.72 3.12c0.12,0.57 0.54,3.09 0.88,3.09z"/>
   <path class="fil0" d="M5.29 24.34c0,2.27 2.41,3.02 4.27,3.02 0.61,0 0.24,-0.56 0.05,-1.17 -0.53,-1.75 -0.65,-3.55 -1.25,-5.04 -0.52,0.05 -1.49,0.81 -1.85,1.13 -0.49,0.43 -1.22,1.09 -1.22,2.05z"/>
   <path class="fil0" d="M60.64 15.91c1,-0.03 0.92,-0.66 1.13,-1.68 0.19,-0.92 0.34,-1.63 0.51,-2.58 0.06,-0.33 0.16,-0.77 0.24,-1.15 0.18,-0.91 0.8,-3.51 0.39,-3.98 -0.49,-0.55 -0.71,1.2 -0.8,1.74l-1.46 7.65z"/>
   <path class="fil1" d="M94.78 6.99c-0.85,0.49 -1.1,0.2 -1.47,0.8 0.44,0 0.63,0.04 0.95,0.14 0.62,0.18 0.28,0.18 0.78,0.34l0 1.43c0.73,-0.23 0.71,-1.12 1.2,-1.27 0.51,0.05 0.96,0.27 1.47,0.32 -0.13,-0.59 -0.56,-0.97 -0.93,-1.27 0.28,-0.63 0.5,-0.9 0.8,-1.43 -0.73,0.02 -1.23,0.54 -1.65,0.37 -0.61,-0.24 -0.46,-0.93 -1.28,-1.01 0.21,0.51 0.13,0.87 0.13,1.59zm1.33 2.71c0.92,0 1.49,0.24 2.27,0.32 -0.15,-0.67 -0.07,-0.39 -0.72,-0.58 -0.81,-0.23 -1.21,-0.5 -1.55,0.26zm-4.4 -1.11c0,0.88 0.65,1.69 1.06,1.91 0.25,0.13 1.61,-0.15 1.61,-0.8 0,-1.24 0.02,-1.06 -1.28,-1.34 -0.6,-0.13 -1.39,-0.52 -1.39,0.23zm0.13 -1.27c0.65,0 1.8,-0.53 2.27,-0.8l-0.16 -2.54c0.73,-0.2 0.59,-0.07 1.13,0.59 1.96,2.41 0.95,0.36 3.83,0.36 -0.15,0.76 -0.98,1.76 -1.33,2.39 0.25,0.44 0.48,0.9 1.07,0.96 0.16,-0.4 0.25,-0.86 0.4,-1.27 0.33,-0.88 1.26,-1.44 -0.77,-2.9 -2.4,-1.73 -6.02,-0.27 -6.29,1.65l-0.14 1.57zm10.67 3.18c0.1,0.08 0.07,0.08 0.26,0.17 0.78,0.39 2.17,0.44 2.76,0.69 0.91,0.38 0.68,1.72 0.74,2.46 0.04,0.49 0.11,0.46 0.11,1.14 0.69,-0.22 1.26,-2.11 2,-2.55 0.76,-0.46 2.78,0.4 3.6,0.49 -0.21,-0.93 -1.65,-2 -2.13,-2.87l1.32 -2.25c0.29,-0.44 0.29,-0.19 0.42,-0.78 -2.49,0.25 -2.68,2.38 -4.41,0.18 -0.5,-0.63 -0.99,-1.39 -1.59,-1.45 0.03,0.48 0.14,1.4 0.21,1.98 0.24,1.8 -0.04,1.54 -1.76,2.22 -0.54,0.22 -0.99,0.43 -1.52,0.58zm-11.47 5.41c0.58,-0.02 2.65,-0.85 3.07,-1.11 0,-2.26 -0.81,-3.82 0.27,-3.82 0.39,0 1.79,2.01 2.67,2.71 1.82,-0.51 5.23,-2.89 3.14,0.41 -0.4,0.63 -0.85,1.17 -1.01,1.98 0.35,0.63 0.97,1.22 1.45,1.77 2.09,2.39 2.45,-2.13 1.45,-4.12 -0.4,-0.78 -0.76,-1.32 -1.37,-1.87 -3.63,-3.27 -9.03,-1.06 -9.46,1.27 -0.07,0.36 -0.2,2.45 -0.2,2.79zm4 -0.48c-0.4,0.11 -0.74,0.33 -1.18,0.5 -0.44,0.17 -0.83,0.2 -1.08,0.62l1.93 0.41c1.24,0.43 -0.11,1.5 1.27,1.5 0.66,0 0.27,-0.8 1.33,-0.8 0.94,0 1.28,0.32 2.13,0.32 -0.53,-0.95 -0.98,-0.81 -1.47,-1.91 0.19,-0.99 0.89,-1.29 1.07,-2.07 -0.94,0.03 -1.36,0.64 -2.27,0.64 -0.76,0 -1.99,-2.9 -1.78,-0.78 0.05,0.57 0.05,1 0.05,1.57zm-4.27 2.55c0,0.86 1.5,0.32 2.27,0.32 0.68,0 0.72,0.35 1.33,0 -0.17,-0.78 -0.4,-0.48 -1.9,-0.92 -0.92,-0.27 -1.7,-0.73 -1.7,0.6zm13.74 -9.71c0,-2.54 -1.03,-5.41 0.27,-5.41 0.68,0 3.43,3.82 3.73,3.82 0.72,0 6.82,-3.31 5.33,-0.67 -0.25,0.45 -0.54,0.84 -0.81,1.28l-1.58 2.57c0.45,1.01 0.73,0.95 1.7,2.11 1.12,1.34 1.5,1.39 1.5,2.51 -1.53,0.49 -3.89,-0.79 -5.6,-0.96 -0.23,0.4 -0.46,0.68 -0.75,1.18l-1.52 2.32c-0.42,0.67 -0.3,0.74 -1.07,0.95 -1.1,-1.14 -0.45,-2.99 -0.8,-4.78 -0.2,-1.06 -0.57,-0.76 -1.55,-1.02 -0.64,-0.17 -1.36,-0.41 -2.06,-0.41 0.22,0.4 0.44,0.59 0.73,1.04 0.46,0.7 0.3,0.36 0.51,1.3 0.12,0.51 0.34,0.79 0.45,1.38l0.03 1.32c-0.03,1.92 5.2,1.64 6.29,1.64 2.2,0 4.75,-2.03 6.08,-4.2 1.22,-1.98 1.37,-5.08 0.41,-7.21 -0.51,-1.14 -0.32,-0.82 -0.99,-1.68 -1.43,-1.83 -2.3,-2.41 -4.54,-3.18 -3.65,-1.25 -7.93,0.21 -10.26,4.06 -0.51,0.84 -2.18,5.14 -0.03,3.95 0.31,-0.17 0.5,-0.24 0.88,-0.39 1.09,-0.43 2.78,-0.98 3.65,-1.53z"/>
   <path class="fil0" d="M52.9 15.75l0 0.48 0.53 0c0.11,-0.54 0.15,-0.45 0.27,-1.11 0.25,-1.45 0.39,-1.21 0.67,-3.66l0.53 -2.39c0.93,-4.55 -0.25,-3.06 -0.55,-1.45 -0.35,1.93 -0.5,2.2 -0.67,4.13 -0.1,1.09 -0.78,2.67 -0.78,4z"/>
   <path class="fil0" d="M81.58 15.91c0.67,-0.02 0.76,-0.11 1.06,-1.76l0.92 -4.96c0.1,-0.53 0.54,-2.25 0.3,-2.54 -0.77,-0.91 -1.13,2.77 -1.41,4.08l-0.86 5.18z"/>
   <path class="fil0" d="M26.76 31.03c0.85,-0.02 0.92,-0.38 1.1,-1.24 0.26,-1.22 0.37,-1.36 0.37,-2.74 -0.69,0 -0.59,-0.13 -0.79,0.49l-0.68 3.49z"/>
   <path class="fil0" d="M87.84 13.36c0.36,0 0.37,-0.08 0.67,-0.16l0.53 -4.62c-0.46,0.22 -0.58,1.32 -0.86,2.31 -0.18,0.61 -0.87,2.46 -0.34,2.46z"/>
   <path class="fil0" d="M48.63 28.48c0.7,0 0.84,0.07 0.94,-0.79l0.53 -4.15c-0.38,0.33 -0.31,0.39 -0.48,1.01 -0.28,0.98 -0.98,2.98 -0.98,3.92z"/>
   <path class="fil0" d="M28.23 24.82c0.65,0 0.73,-0.68 0.88,-1.34 0.53,-2.26 -0.35,-2.9 -0.8,-0.48 -0.18,0.97 -0.52,1.82 -0.08,1.82z"/>
   <path class="fil0" d="M79.97 28.48l0.93 0c0.02,-1.24 0.4,-1.9 0.4,-4.3 -0.39,0.53 -0.5,1.24 -0.72,2.01 -0.22,0.79 -0.47,1.53 -0.62,2.29z"/>
   <path class="fil0" d="M38.9 24.5c0,0.4 0.39,0.32 0.61,0.12 0.21,-0.19 0.3,-0.49 0.38,-0.85 0.21,-0.92 0.34,-1.48 0.21,-2.13 -0.74,0.02 -0.72,0.26 -0.86,1.05l-0.34 1.82z"/>
  </g>
 </g>
</svg>
