<?xml version="1.0" encoding="UTF-8"?>
<!DOCTYPE svg PUBLIC "-//W3C//DTD SVG 1.1//EN" "http://www.w3.org/Graphics/SVG/1.1/DTD/svg11.dtd">
<!-- Creator: CorelDRAW -->
<svg xmlns="http://www.w3.org/2000/svg" xml:space="preserve" width="30.4867mm" height="6.2889mm" version="1.1" style="shape-rendering:geometricPrecision; text-rendering:geometricPrecision; image-rendering:optimizeQuality; fill-rule:evenodd; clip-rule:evenodd"
viewBox="0 0 246.19 50.79"
 xmlns:xlink="http://www.w3.org/1999/xlink"
 xmlns:xodm="http://www.corel.com/coreldraw/odm/2003">
 <defs>
  <style type="text/css">
   <![CDATA[
    .fil0 {fill:#FEFEFE}
    .fil1 {fill:black}
    .fil3 {fill:white}
    .fil2 {fill:url(#id0)}
   ]]>
  </style>
  <linearGradient id="id0" gradientUnits="userSpaceOnUse" x1="6.58" y1="28.9" x2="238.07" y2="20.67">
   <stop offset="0" style="stop-opacity:1; stop-color:#00A41E"/>
   <stop offset="0.501961" style="stop-opacity:1; stop-color:yellow"/>
   <stop offset="1" style="stop-opacity:1; stop-color:red"/>
  </linearGradient>
 </defs>
 <g id="Camada_x0020_1">
  <metadata id="CorelCorpID_0Corel-Layer"/>
  <g id="Figs_Frase_015">
   <path class="fil0" d="M40.48 43.81c-5.39,-0.87 -9.09,5 -10.36,-8.42 -3.28,1.36 -6.29,1.21 -9.81,1.48 0.21,2.93 -0.7,10.03 -4.74,10.05l-10.51 0.06c-5.89,0.03 -2.64,-11.61 -4.61,-16.55l-0.46 -7.79c-0.04,-1.1 0.45,-2.08 1.3,-2.69 -0.26,-6.19 -0.81,-10.98 7.37,-12.13 1.35,-0.19 5.51,0.35 6.58,-0.35 1.44,-1.18 2.74,-1.09 4.51,-1.08 4.1,0.03 7.12,0.57 10.59,2.26 2.24,-4.31 3.21,-3.76 7.76,-3.92 0.49,-0.02 0.91,0.06 1.35,0.25 3.22,1.29 22.9,-1.32 28.03,0.18 3.05,0.89 5.87,2.72 7.9,5.14 2.03,-2.81 3.13,-6.34 6.03,-6.15 3.54,0.23 2.66,1.33 5.1,1.25 5.13,-0.18 8.52,-1.62 11.17,5.57 0.54,-9.84 11.39,-6.01 23.63,-7.6 6.04,-0.79 5.8,1.97 10.26,0.2 2.65,-1.05 9.64,-0.58 11.23,3.88 0.01,-1.93 -0.2,-4.27 2.36,-4.99 3.48,-0.98 8.94,-0.53 12.99,-0.21 1.06,-0.86 2.07,-1.42 3.67,-1.45 0.91,-0.14 3.57,-1.85 6.14,1.1 6.14,0.2 9.78,-1.1 14.86,-0.81 10.47,0.58 24.78,-3.06 30.54,5.72 0.66,-1.63 3.68,-6.93 6.52,-6.78l10.94 0.56c1.5,0.08 2.72,1.15 2.98,2.63l3.35 11.16c1.31,1.92 3.7,0.33 3.3,7.36l5.47 16.65 0.26 7.35c0.06,1.76 -1.32,3.25 -3.08,3.31l-49.65 1.77c-3.81,0.13 -3.35,-4.2 -3.46,-6.68 -2.12,4.53 -9.2,5.15 -11.53,-0.36 -1.17,1.14 -4.19,1.28 -5.35,0.97 -1.5,-0.41 -0.87,-0.71 -1.81,-0.45 -1.72,0.48 -3.3,0.77 -4.58,-0.54 -1.21,-0.22 -3.93,0.45 -4.92,0.67 -3.76,0.81 -6.51,-0.94 -8.63,-3.54 -1.15,0.3 -2.2,0.69 -3.43,1.09 -4.79,1.55 -9.91,0.6 -14.73,-0.59 -2.69,2.81 -6.07,2.19 -10.06,2.2 -1.77,0 -3.52,0.06 -5.29,-0.16l-20.64 0.38c-0,0 -4.63,4.45 -7.86,-0.47 -1.29,0.91 -6.46,2.7 -8.19,-0.06 -1.91,0.75 -6.77,0.92 -8.89,1.06 -3.13,0.2 -8.9,0.56 -11.46,-1.07 -0.14,-0.09 -2.52,0.83 -4.65,-0.07 -1.33,1.11 -3.64,1.31 -5.05,1.28 -0.9,2.67 -2.07,6.15 -4.8,6.11 -4.41,-0.07 -8.02,-2.65 -7.66,-6.75z"/>
   <path class="fil1" d="M3.2 22.53l0.24 6.72c1.82,4.59 0.19,10.79 1.62,14.54l10.51 -0.06c2.07,-3.65 1.72,-4.31 1.32,-9.71 2.96,-0.42 5.92,-0.46 8.94,-0.76 3.25,-0.33 5.21,-2.24 7.3,-2.44 -0,3.7 0.36,7.05 1.32,10.31 4.42,-0.35 6.18,-1.38 9.45,0.7 0.26,1.69 -0.82,2.19 0.23,3.92 0.65,1.08 2.29,1.59 4.06,1.61 0.81,-1.67 1.95,-3.83 2.26,-6.2 2.07,0.03 3.73,0.41 5.46,-0.43 1.25,-3.11 -1.24,-6.09 0.74,-9.81 4.77,-0.4 5.63,-0.08 5.59,4.54l-4.09 1.09c-0.55,5.1 2.33,3.84 5.29,3.24 0.1,0.07 0.23,0.09 0.28,0.25 0.07,0.22 0.43,0.38 0.56,0.46 1.74,1.11 7.6,0.75 9.62,0.62 13.18,-0.83 5.63,-1.01 9.37,-2.62 2.14,0.84 1.72,0.74 2.42,3.04 7.68,-0.6 2.15,-3.05 1.36,-6.02l5.05 -0.17c1.33,3.03 0.91,4.43 1.44,5.64 0.05,0.11 0.11,0.23 0.17,0.33 1.45,2.61 3.14,-0.17 4.01,-0.49 1.08,-0.4 4.18,-0.33 5.5,-0.37l16.66 -0.24c1.66,0.23 3.39,0.17 5.1,0.16 6.5,-0.02 6.57,0.36 8.68,-2.3 0.05,-0.06 0.15,-0.2 0.23,-0.29 14.72,3.76 13.37,0.65 20.7,-0.47 1.36,2.13 3.34,4.66 6.57,3.97 1.82,-0.39 4.97,-1.22 6.97,-0.47 1.48,0.56 0.07,1.02 2.34,0.39 2.6,-0.73 0.74,-0.79 2.06,-0.22 1.87,0.8 0.98,0.87 3.74,0.47 1.84,-2.17 0.62,-1.94 4.55,-1.93 0.16,3.5 1.43,6.02 5.34,4.41 1.89,-1.49 0.83,-3.23 2.91,-4.62 0.79,-0.74 3.51,0.61 5.13,-2.13 1.57,-3.9 -4.98,-9.1 2.29,-8.88 1.81,0.06 2.89,0.32 3.43,1.02 2.69,3.44 -7.82,2.89 -3.86,6.63 1.03,0.97 2.34,0.55 3.93,0.63 -2.75,2.04 -3.02,0.8 -3.16,5.34l-3.69 0.24 0.23 5.44 49.65 -1.77 -0.26 -7.35 -4.93 -14.49c-1.1,-2.58 -0.09,-2.54 -0.59,-5.51 -3.57,-2.98 -2.43,-1.17 -4.05,-6.49 -0.77,-2.53 -2.05,-5.74 -2.49,-8.22l-10.94 -0.56c-6.1,7.1 -1.74,4.25 -6.55,14.8 -1.7,3.74 -0.91,3.9 -2.9,4.81 -1.14,-3.44 5.26,-5.23 1.03,-13.25 -2.25,-4.28 -5.64,-5.3 -11.89,-5.48l-16.78 0.19c-3.29,-0.5 -8.43,1.28 -16.29,0.73 -0.45,-0.62 -0.8,-1.11 -1.36,-1.59l-1.27 0.05c-2.76,1.3 -1.45,-0.6 -4.49,2.07 -3.74,-0.29 -10.06,-0.9 -13.19,-0.01 -0.14,4.92 0.15,10.02 1.25,14.24 -2.29,0.96 -3.18,-0.09 -3.54,2.68l-3.51 1.05c-1.34,-14.18 2.6,-16.4 -5.28,-17.16 -2.36,-0.23 -2.1,0.46 -4.19,0.86 -4.02,0.78 -4.59,-1.25 -9.04,-0.67 -17.71,2.3 -23.44,-3.71 -19.85,11.48 4.31,1.27 2.86,-0.29 6.8,-0.01l-1.17 0.88c-0.25,0.17 -3.16,1.24 -1.43,4.02 1.09,1.75 0.96,0.02 1.94,1.7 -3.33,2.02 -3.76,3.56 -5.68,4.66 -2.34,-3.24 -1.34,-3.87 -1.7,-7.85 -4.1,-1.43 -2.82,-1.19 -6.42,-10.6 -1.73,-4.53 -6.11,-1.4 -9.91,-2.46 -1.22,-0.34 -1.1,-0.89 -3.1,-1.02 -1.36,1.54 -1.93,3.04 -3.09,4.64 -1.47,2.01 -1.7,2.32 -0.82,5.39 0.8,2.78 -2.5,7.3 -3.62,10.04l-1.3 -2.23c6.04,-5.05 2.52,-14.52 -5.78,-16.94 -4.34,-1.27 -24.45,1.37 -28.38,-0.3l-3.74 0.13c-1.19,2.3 -1.74,1.57 -1.84,5.43 -3.64,-1.77 -5.57,-3.84 -12.91,-3.9 -3.03,-0.02 -1.73,0.16 -3.27,0.84 -0.88,0.39 -2.51,0.59 -3.73,0.64 -2.32,0.09 -1.85,-0.33 -3.61,-0.08 -5.73,0.81 -4.67,2.54 -4.56,10.94l-1.36 0.6z"/>
   <path class="fil2" d="M102.48 33.45c-2.48,-1.82 -8.6,-18.63 -10.8,-22.76l-10 -0.81c-0.77,6.75 -0.36,2.94 -2.57,3.72 -0.89,3.76 0.67,3.24 0,5.72 -0.38,1.41 -1.61,3.55 -2.16,5.12 -1.28,3.63 -2.16,7.22 -3.51,10.72 0.97,1.96 0.52,-0.36 1.26,1.76 -2.16,1.3 -1.44,-0.07 -1.91,2.04 1.51,0.24 7,-0.53 8.16,-1.28 2.25,-2.46 -4.06,-4.56 12.51,-4.52l2.16 5.36 6.8 -0.48c0.32,-1.86 -0.2,-2.38 0.83,-3.57 -0.06,0.85 -0.25,1.13 0.08,2.2 0.74,2.41 10.08,1.56 11.92,1.26 1.72,-0.29 12.64,1.17 14.43,-0.11 1.83,-1.31 -0.73,-4.52 -1.83,-7.21l-13.73 0.52c1,-2.34 10.81,-10.32 11.76,-13.78l-5.24 0.68c0.79,-2 2.13,-1.64 4.13,-2.64 -1,-1.64 -1.02,-0.74 -1.89,-2.32 1.48,-2.08 1.63,0.29 1.91,-2.49l-3.64 0c-0.09,-0.09 -0.18,-0.24 -0.23,-0.31 -1.43,-1.72 -2.79,-1.7 -6.91,-0.88 -8.51,0.95 -11.25,-1.87 -10.93,3.47 0.07,1.16 0.22,2.32 0.46,3.45l7.49 -0.17 -0.05 1.31c1.45,-0.44 1.35,-0.31 2.19,-1.54 1.4,0.73 0.74,0.59 2.08,0.78l1.86 0.19 -14.6 16.57zm-58.8 3.44c0.03,-0.11 0.07,-0.23 0.09,-0.35 0.12,-0.61 0.06,-1.04 0.04,-1.66 -0.29,-7.29 -0.15,-19.65 -0.73,-25 -1.98,-0.14 -6.02,-0.45 -7.88,0.18 -1.21,3.32 0.48,10.28 0.34,14.24 -0.15,4.3 -0.3,9.66 0.61,13.84 1.47,0.23 6.07,0.14 7.09,-0.34l0.45 -0.91zm-4.74 -13.17c-0.09,0.06 -0.27,0.01 -0.3,0.13 -0.03,0.11 -0.24,0.1 -0.29,0.11l-1.29 0.27c0.26,2.28 1.37,1.05 2.46,1.27l0.48 11.08c1.89,-2.75 0.09,-9.47 0.65,-12.4 0.35,-1.85 1.22,-2.12 -0.01,-4.06 -2.86,0.81 0.03,-1.14 -1.71,3.6zm99.41 4.52c0.17,-2.54 -0.38,-8.78 -0.85,-11.29 -1.04,-5.53 2.21,-5.25 -3.17,-7.89 -2.34,0.66 -0.23,0.59 -2.07,1.2 -1.42,0.48 -1.21,-0.03 -2.91,0.01 -0.18,1.7 -0.04,11.52 0.48,13.31 0.56,1.91 1.21,1.03 3.4,1.47 -0.67,3.53 -0.76,0.45 -1.76,2.45 -0.47,0.94 -0.46,6.14 3.39,8.11 3.64,1.86 9.19,1.6 13.92,1.04 2.98,-0.51 5.64,-1.37 6.09,-4.12 0.44,-2.72 -0.64,-1.37 -0.31,-4.2 0.26,-2.16 0.83,-1.7 0.21,-4.12 -0.97,-3.85 -0.33,-4.68 -0.31,-8.67 0.02,-2.76 -0.49,-2.49 -0.73,-4.28 -0.19,-1.42 2.45,-3.39 -2.65,-3.71 -4.21,-0.27 -1.96,1.25 -2.13,3.86 -0.74,11.1 2.61,18.43 -3.96,19.33 -4.2,0.58 -4.77,-0.22 -6.65,-2.49zm52.38 -14.66c0.78,-0.73 0.87,-0.76 3.33,-0.96 3.57,-0.29 4.87,-0.17 8.06,2.11 0.05,4.66 -3.61,5.21 -10.73,5.5l-0.44 -0.48 -0.22 -6.16zm4.82 11.68c1.46,0.79 3.47,0.42 5.46,0.56 1.59,2.2 2.26,6.32 2.94,9.63 3.39,0.07 3.57,0.63 5.49,-5.5 1.06,-3.39 -1.13,-5.8 -2.34,-8.14 0.85,-1.72 1.7,-1.64 2.63,-4.3 1.61,-4.62 -0.19,-10.48 -7.93,-10.88 -3.63,-0.17 -14.31,-0.86 -16.1,1.68 -1.61,-1.36 -0.36,-1.01 -1.88,-1.32 -0.85,-0.18 -1.52,0.15 -2.34,0.26 -1.8,0.25 -2.59,-0.01 -4.35,0.09 -1.45,2.3 -1.45,3.58 -0.84,5.47 2.75,0.14 2.37,-1.11 4.22,0.8 4.15,4.31 1.65,8.97 2.49,13.91l2.26 0.98 -1.3 3.65c-1.47,-0.83 -0.82,-0.36 -1.53,-2.12 -3.45,0.04 -10.56,-0.35 -13.23,0.35l-0.76 1.09c-0.97,1.55 -0.66,1.48 -3.06,1.87 0.1,-2.02 0.63,-1.97 0.32,-4.04 -0.28,-1.85 -0.6,-2.03 -0.5,-4.29 2.65,-1.12 4.53,-0.96 8.04,-1.09 6.04,-0.24 9.73,2.53 7.68,-5.56 -14.41,-1.14 -16.01,3.17 -15.7,-4.13l8.13 -0.9 0.29 -5.3c-2.56,-0.76 -6.42,0.14 -9.26,-0.41 -3.29,-0.64 -0.44,-0.39 -3.23,0.16 -1.49,0.3 -2.73,0.19 -4.43,0.56 -0.19,3.78 0.67,3.79 -0.14,7.29 -0.6,2.63 -0.5,4.74 -0.28,7.52 0.21,2.78 0.14,5.08 0.63,7.72 0.45,2.47 -0.35,6.01 1.43,6.95 2.68,1.41 21.16,-1.73 25.19,-1.61 1.36,0.7 0.71,-1.15 1.15,1.25 0.31,1.68 0.06,0.41 -0.43,1.41l1.24 0.02 1.29 -4.27c2.07,0.91 0.28,0.68 2.05,1.61 2.33,-0.15 2.51,0.5 3.26,-1.24 -0.71,-0.7 0.2,-0.24 -0.98,-0.31 -1.94,-0.82 -3,-3.32 -3.67,-5.26 -0.27,-0.8 -0.53,-1.12 -0.29,-2.29 0.14,-0.04 0.32,-0.05 0.43,-0.06l1.98 -0.01c1.44,-0.07 0.27,0.3 1.62,-0.7 2.21,-1.62 1.2,-0.86 4.39,-1.1zm-139.16 -0.62c-0.63,0.91 0.14,0.21 -0.45,0.24l-0.6 -0.1c-0.96,-0.17 -1.56,-0.3 -2.85,0.21l1.83 0.2c0.13,-0 1.25,0.2 1.56,0.22 -0.53,0.38 -1.29,0.4 -0.5,2.38l3.49 0.57c-5.03,0.03 -2.34,0.51 -4.67,2.07 -1,0.67 -4.52,0.49 -6.2,0.73 1.49,2.45 0.4,-0.52 2.92,3.47 1.77,2.81 0.16,1.79 1.52,2.65 2.08,1.33 1.87,-1.06 2.09,2.14 -2.47,1.6 -3.26,-0.38 -5.22,-1.17 -1.38,2.85 -0.93,6.01 -3.67,7.05 -0.8,-2.48 1,-3.93 0.78,-6.95l-1.21 0.04 -0.65 -27.43 5.58 -0.36c3.98,-0.94 15.58,-1.47 18.87,0.81 2.65,1.84 4.01,2.41 3.8,7.03 -0.14,3.13 -1.7,5.82 -3.42,6.66 2.74,1.74 4.93,4.53 3.04,8.39 -0.84,1.71 -3.14,7.68 -5.86,5.76 -2.69,-1.9 0.22,-10.86 -7.7,-10.9l-2.46 -3.74 0.97 -0.62c2.21,-0.11 5.6,-0.56 6.7,-1.86 1.71,-2.01 0.28,-4.73 -1.05,-5.87 -3.52,-0.97 -4.41,0.64 -7.74,-1.33 -1.7,0.48 -1.68,0.87 -2.79,1.99 1.44,2.54 1.07,1.28 0.94,4.1 -0.13,2.84 0.9,2.56 2.97,3.59zm162.05 9.39c-0,-0 0.41,-4.99 3.67,-5.13 1.64,0.53 0.29,-0.22 1.46,1.22 2.34,-0.16 5.85,-1.05 7.01,1l1.48 4.02 7.01 -0.26c0.51,-2.84 -3.49,-8.95 -5.33,-14.12 -0.95,-2.68 -1.68,-5.03 -2.67,-7.53l-2.87 -6.87c-2.53,0.02 -3.28,-0.13 -4.07,2.03 -1.35,-1.22 -1.53,-1.47 -4.17,-1.38 -1.85,4.4 -10.3,22.55 -8.14,26.38 1.12,1.99 4.8,1.26 6.63,0.64zm8.6 -10.36c-0.03,-2.22 -1.64,-6.03 -2.69,-7.68 -0.55,1.27 -1.26,3.93 -1.59,5.28 -0.87,3.56 0.55,2.6 4.28,2.4zm-212.49 17.41c0.79,-3.21 -0.42,-5.48 -0.03,-7.44 0.93,-4.58 11.02,1.16 16.05,-5.42 2.91,-3.81 2.33,-12.25 -1.08,-14.61 -2,-1.38 -5.77,-2.56 -8.67,-1.48l-1.01 0.43c-0.86,0.24 -1.25,0.19 -2.2,0.23 -7.96,0.34 -6.08,1.01 -8.33,1.75 -2.67,0.88 -0.62,-1.06 -2.99,-0.03l-0.49 14.01c1.35,9.93 -0.32,13.3 3.7,13.2 0.24,-0.01 1.48,-0.21 1.66,-0.24 1.15,-0.16 2.21,-0.21 3.39,-0.41zm-0.01 -22.7l-0.15 6.37c1.63,0.17 4.88,0.21 6.34,-0.03 2.26,-0.38 3.15,-1.27 2.93,-3.58 -0.41,-4.4 -4.96,-3.65 -9.13,-2.75zm72.82 2.56c-1.2,1.36 -1.91,5.37 -2.24,7.64l5.17 -0.13c-1.1,-2.45 -1.43,-5.56 -2.93,-7.51l0 0z"/>
   <path class="fil3" d="M213.61 38.35l9.32 -0.33c1.51,-0.05 2.78,1.08 2.83,2.52l0.08 2.29c0.05,1.44 -1.14,2.66 -2.64,2.71l-9.32 0.33c-1.51,0.05 -2.78,-1.08 -2.83,-2.52l-0.08 -2.29c-0.05,-1.44 1.14,-2.66 2.64,-2.71zm-19.13 5.34l2.6 -0.09 0.06 1.79 -2.6 0.09 -0.06 -1.79zm36.1 -5.95l6.23 -0.22c2.24,-0.08 4.14,1.6 4.21,3.75l0.12 3.4c0.01,0.18 0,0.35 -0.02,0.52l-3.08 0.11 -0.19 -5.28c-0.02,-0.56 -0.52,-1 -1.11,-0.98l-0.94 0.03c-0.59,0.02 -1.05,0.5 -1.03,1.06l0.19 5.28 -2.51 0.09 -0.19 -5.28c-0.02,-0.56 -0.52,-1 -1.11,-0.98l-0.94 0.03c-0.59,0.02 -1.05,0.5 -1.03,1.06l0.19 5.28 -2.57 0.09c-0.03,-0.17 -0.05,-0.34 -0.05,-0.52l-0.12 -3.4c-0.08,-2.14 1.7,-3.96 3.94,-4.04zm-29.25 1.04l9.04 -0.32 0.06 1.74c-0.14,-0.04 -0.3,-0.06 -0.46,-0.05l-6.51 0.23c-0.83,0.03 -1.49,0.7 -1.46,1.5l0.05 1.27c0.03,0.8 0.73,1.42 1.57,1.39l6.51 -0.23c0.16,-0.01 0.31,-0.03 0.45,-0.08l0.06 1.74 -9.04 0.32c-1.51,0.05 -2.78,-1.08 -2.83,-2.52l-0.08 -2.29c-0.05,-1.44 1.14,-2.66 2.64,-2.71zm13.75 1.19l6.51 -0.23c0.83,-0.03 1.54,0.6 1.57,1.39l0.05 1.27c0.03,0.8 -0.63,1.47 -1.46,1.5l-6.51 0.23c-0.83,0.03 -1.54,-0.6 -1.57,-1.39l-0.04 -1.27c-0.03,-0.8 0.63,-1.47 1.46,-1.5z"/>
  </g>
 </g>
</svg>
