<?xml version="1.0" encoding="UTF-8"?>
<!DOCTYPE svg PUBLIC "-//W3C//DTD SVG 1.1//EN" "http://www.w3.org/Graphics/SVG/1.1/DTD/svg11.dtd">
<!-- Creator: CorelDRAW -->
<svg xmlns="http://www.w3.org/2000/svg" xml:space="preserve" width="30.7485mm" height="11.4991mm" version="1.1" style="shape-rendering:geometricPrecision; text-rendering:geometricPrecision; image-rendering:optimizeQuality; fill-rule:evenodd; clip-rule:evenodd"
viewBox="0 0 250.27 93.59"
 xmlns:xlink="http://www.w3.org/1999/xlink"
 xmlns:xodm="http://www.corel.com/coreldraw/odm/2003">
 <defs>
  <style type="text/css">
   <![CDATA[
    .fil0 {fill:#FEFEFE}
    .fil1 {fill:black}
   ]]>
  </style>
 </defs>
 <g id="Camada_x0020_1">
  <metadata id="CorelCorpID_0Corel-Layer"/>
  <g id="Figs_Frase_024">
   <path class="fil0" d="M203.87 25.22c-0.28,-1.89 4.29,-8.1 6.25,-9.22 3.29,-1.88 7.12,-4.42 11.07,-4.42 2.27,0 8.89,1.94 11.03,2.93 9.5,4.4 10.22,12.37 10.22,12.37 0.19,0.28 3.42,1.17 4.33,2.78 1.53,2.71 3.49,2.41 3.49,5.8 0,3.58 -6.11,4.18 -6.3,7.49 -0.19,3.26 0.47,5.03 -3.12,8.72 -2.95,3.04 -5.01,2.34 -5.44,2.6 -0.32,0.37 -0.75,1.83 -0.86,2.24 -0.74,2.69 -3.28,6.14 -3.51,8.75 2.85,1.44 3.36,3.11 2.04,5.84 5.24,3.94 -0.23,10.12 -7.27,10.08 -2.87,-0.02 -4.84,-0.63 -6,2.53 -1.28,3.49 -2.86,4.85 -6.7,6.2 -6.95,2.44 -12.29,-0.65 -10.2,-6.55 0.12,-0.33 0.44,-1.04 0.67,-1.64 -1.66,0.12 -5.2,2.46 -9.17,0.76 -1.21,-0.52 -3.22,1.61 -6.08,1.61 -1.85,0 -3.04,-0.84 -4.5,-1.61 -0.69,-0.1 -1.34,0.97 -6.59,0.22 -2.74,-0.39 -2.64,3.74 -10.62,1.98 -3.74,-0.83 -3.29,-1.23 -6.13,0.08 -4.62,2.14 -6.54,0.36 -7.38,0.36 -1.3,0 -5.06,2.39 -7.55,-1.66 -0.75,-1.21 -0.78,-2.43 -0.59,-3.74 -1.76,0.07 -1.25,-0.13 -2.61,2.83 -2.92,6.36 -8.49,3.21 -9.26,3.15 -2.24,-0.16 -5.05,1.34 -8.41,-0.42 -1.35,-0.7 -2.56,0.83 -6.28,0.88 -1.26,0.02 -2.52,-0.06 -3.73,-0.03 -3.59,0.14 -6.86,0.77 -10.04,-0.16 -3.28,-0.95 -1.58,0.84 -6.48,0.84 -2.41,0 -4.1,-1.36 -5.64,-1.36 -0.78,0 -2.43,0.72 -3.23,0.95 -2.99,0.87 -7.21,0.41 -10.37,0.4l-10.35 0.35c-2.25,0 -2.92,-0.86 -3.46,-0.66 -5.29,1.99 -4.06,0 -6.7,1.65l-5.81 1.72c-1.83,0 -2.84,-0.03 -3.88,-0.3 0.05,2.03 -0.69,4.03 -3.16,4.03 -8.01,0 -11.9,-6.79 -9.77,-10.86 -5.97,-0.1 -10.17,-0.5 -12.61,-5.36 -2.09,-4.16 0.03,-2.8 -3.71,-6.38 -3.36,-3.21 -6.57,-6.41 -7.16,-11.25 -0.45,-3.65 -0.07,-3.72 -2.4,-6.5 -4.29,-5.09 -1.97,-5.99 -3.89,-9.75 -1.2,-2.34 -2.5,-3.68 -2.69,-6.54 -0.07,-1.13 0.21,-3.09 -0.14,-4.04 -0.37,-0.99 -3.96,-3.24 -1.24,-7.1 -1.58,-3.22 -3.16,-2.91 -0.52,-5.78 -2.05,-2.36 -0.08,-4.26 -0.08,-4.27 -0.74,-1.17 -0.41,-3.74 1.26,-4.63 1.14,-0.6 2.62,-0.26 2.8,-0.36 0.54,-0.28 1.89,-4.52 7.15,-7.02 7.79,-3.71 6.12,-1.29 10.41,-2.6 10.12,-3.07 13.72,0.93 18.85,0.93 1.13,0 6.99,-2.07 7.85,0.59 0.15,0.48 0.63,2.06 0.97,2.71 2.1,0.16 4.35,0.4 5.75,2.25 3.81,-1.61 13.69,-0.59 17.64,0.25 9.05,1.94 5.08,0.59 9.11,-0.03 5.98,-0.92 11.97,-0.03 17.56,0.29 3.1,0.17 6.04,-0.52 9.26,-0.2 4.44,0.44 13.13,-0.3 15.33,1.01 3.3,1.96 1,1.26 4.86,-0.4 6.39,-2.74 15.09,-0.9 17.56,6 0.85,2.39 0.1,1.89 2.83,2.78 4.62,1.5 2.68,-0.67 6.33,-0.67 3.64,0 3.18,2.71 4.23,2.71 2.62,0 2.75,-2.63 5.38,-3.53 1.75,-0.6 0.91,-3 3.15,-2.91 2.16,0.09 3.25,0.83 5.23,1.17 1.68,0.29 3.68,0.84 4.21,2.7 0.77,2.68 -2.08,3.4 4.48,5.51 6.64,2.13 5.59,0.12 10.42,0.12 0.79,0 1.47,0.48 1.71,1.18 0.08,0.19 2.49,3.38 4.16,2.37 1.07,-0.64 3.04,-1.05 4.04,-0.76z"/>
   <path class="fil1" d="M53.06 83.62c1.08,1.06 1.88,0.52 1.88,1.7 0,2.1 -4.2,1.05 -4.7,1.02 -1.28,-3.96 -1.57,-1.66 -2.99,-3.95 -1.54,-2.49 0.29,-8.76 0.83,-11.51 1.81,-9.21 10.14,-7.59 10.14,-2.51 0,1.77 -1.55,10.84 -2.45,12.47 -0.54,0.98 -1.87,1.87 -2.72,2.79zm-20.66 -76.98c1,0.99 0.3,0.41 1.88,1.02 0.75,-0.81 0.57,-0.35 0.94,-1.36 -1.12,0 -2.29,-0.09 -2.82,0.34zm0.94 2.03l0 0.68c2.23,0.38 1.41,0.58 2.63,0.77 2.1,0.32 0.11,-1.98 -2.63,-1.44zm-15.03 18.65c1.15,-0.22 1.25,-0.2 2.02,-0.94 0.85,-0.82 0.61,-0.82 0.33,-1.77 -1.46,0.7 -2.16,1.09 -2.35,2.71zm11.74 -21.7c-5.18,0 -4.31,2.27 -1.55,1.29 1.21,-0.43 1.19,-0.33 1.55,-1.29zm7.2 10.06c0.94,1.17 1.06,1.13 3.6,1.13 -0.12,-1.05 -0.03,-1.14 -1.32,-1.46 -0.85,-0.21 -1.49,-0.29 -2.29,0.33zm-10.02 10.62c0.43,0.18 0.05,0.18 0.97,0.29 0.63,0.07 1.21,0.04 1.85,0.05 -0.21,-1.8 -0.57,-0.6 0,-2.37 -1.95,0.33 -2.56,0.32 -2.94,1.3 -0.29,0.72 -0.16,0.3 0.13,0.74zm-0.94 -14.24c2.16,-1.05 1.88,-1.61 1.88,-4.07 -1.48,0.28 -1.38,0.3 -1.73,1.47 -0.25,0.83 -0.15,1.73 -0.15,2.6zm179.79 38.99c-0.13,0.89 1.28,1.72 1.96,2.04 1.24,-1.07 -0.47,-2.36 -0.47,-4.75l-1.49 2.7zm-174.16 -36.28c0.48,1.31 2.84,2.35 4.7,2.71 -0.34,-2.85 -3.93,-3.35 -4.7,-2.71zm-4.7 8.48c1.82,0.17 1.2,0.25 3.76,-1.36 2.33,0.45 0.52,0.68 4.23,0.68 -0.88,-2.72 -1.8,-1.95 -6.37,-1.83 -1.3,0.03 -0.58,-0.59 -1.25,0.7 -0.26,0.51 -0.33,0.94 -0.36,1.8zm23.48 56.63c0,1.77 -0.16,0.43 0.47,1.36 1.43,-0.76 1.33,-3.63 1.84,-6.13 0.52,-2.55 0.98,-4.14 0.98,-7.09l-0.94 0c-0.13,1.13 -2.35,7.92 -2.35,11.87zm158.74 -15.26c-0.32,1 -0.47,1.03 -0.47,2.37 2.34,-0.81 3.61,0.61 5.17,1.36l2.91 -2.31c-3.78,-0.27 -4.49,0.52 -5.47,-1.27 -1,-1.85 -0.45,-2.47 -4.02,-2.52 0.05,1.7 0.42,1.67 1.88,2.37zm-78.43 15.26c2.39,-1.27 2.82,-6.53 3.56,-9.3 0.38,-1.44 0.67,-1.97 0.67,-3.58 -2.16,0.42 -2.06,2.51 -2.93,5.68 -0.65,2.33 -1.29,4.19 -1.29,7.21zm-10.8 -0.34c2.71,-1.43 3.76,-10.23 3.76,-12.21l-0.94 0c-0.36,1.11 -0.77,1.64 -1.15,2.9 -0.33,1.12 -0.42,2.27 -0.69,3.23 -0.5,1.78 -1.84,4.66 -0.98,6.07zm-105.67 -59.35c0,0.91 0.68,1 1.41,1.36 1.12,-3.46 1.15,-3.05 3.76,-3.05 0,-7.2 1.41,-3.46 1.41,-7.12 -3.99,0.77 -3.11,3.13 -3.39,4.34 -0.42,1.82 -3.18,3.22 -3.18,4.48zm19.72 44.43c1.11,1.67 0.27,1.09 2.23,2.46 3.03,2.12 2.39,3.32 3.6,5.88l2.15 2.86c0,-4.54 -3.04,-9.75 -5.64,-12.55l-2.35 1.36zm-25.83 -27.81c0,2.75 2.07,5.53 3.29,7.46 2.21,3.47 0.29,6.56 3.75,7.46 -1.15,-1.74 0.05,-5.87 -0.66,-7.32 -0.7,-1.41 -0.4,-0.29 -1.74,-1.47 -1.8,-1.57 -0.35,-2.8 -0.98,-4.71 -0.69,-2.06 -1.78,-0.09 -1.78,-4.14l-0.94 0c-0.17,0.51 -0.94,2.38 -0.94,2.71zm199.13 0.34c0.3,0.92 0.53,1.08 0.97,2.01 0.56,1.17 0,1.19 1.38,1.72 1.19,-0.31 1.08,-0.64 2.35,-1.02 -0.21,1.79 -1,0.86 0.16,1.92 1.57,-0.59 1.15,0.31 1.72,-1.24 1.46,0.24 1.36,0.43 2.82,0.68 3.4,-3.67 0.51,-3.96 -3.37,-5.06 -1.95,-0.56 -0.78,-0.5 -2.88,0.17 -1.32,0.42 -2.09,0.46 -3.14,0.82zm-173.3 14.92c0.6,-2.04 -1.5,-5.32 -2.82,-7.12 -3.51,0.21 -0.82,1.15 -5.64,0.34l0 -0.68c2.74,0 2.1,0.12 3.76,-0.68 -0.96,-1.91 -6.35,-2.37 -8.92,-2.37 0.52,1.6 4.19,4.89 5.74,6.03 2.03,1.48 4.9,3.99 7.88,4.49zm28.18 2.03c3.85,-0.23 3.32,-4.19 4.02,-7.61l3.27 -18.67c0.99,-5.26 2.22,-7.61 -1.33,-7.96 -0.82,1.67 -1.38,5.93 -1.81,8.08 -0.83,4.2 -4.14,22.81 -4.14,26.17zm73.73 27.13c0,0.62 -0.03,0.04 0.47,0.68 2.3,-0.44 2.39,-1.83 3.05,-3.57 0.63,-1.64 1.59,-2.93 1.64,-4.57 2.26,0.41 2.82,1.7 4.23,1.7 1.68,0 5.93,-3.64 7.51,-4.41 0,3.76 -2.82,5.42 -2.82,9.83 2.92,-0.56 3.4,-3.79 4.76,-6.74 0.87,-1.9 3.23,-5.63 3.23,-7.84 0,-1.3 0.14,-0.12 -0.47,-1.02 -4.15,0.8 -6.25,6.62 -11.27,7.46 -4.64,-2.24 0.51,-8.48 -2.82,-8.48 -2.87,0 -4.37,5.42 -4.97,7.6l-2.55 9.35zm46.02 -6.44c3.64,-0.7 3.81,-4.28 7.98,-5.09 3.81,1.04 3.11,1.56 4.7,3.73 3.51,-1.7 3.75,-3.74 5.51,-5.18 2.74,-2.24 4.14,-2.12 5.29,-5.67l-15.19 0.1c-2.74,-0.32 -2.96,-0.78 -2.95,0.74 0.03,4.78 -5.23,7.6 -5.34,11.38zm15.5 -21.03c0,-2.29 1.41,-3.28 1.41,-5.09l0.47 0c0,2.2 0.11,3.3 -0.47,5.09l-1.41 0zm-0.93 -12.48c-0.57,1.67 -1.37,3.09 -1.86,4.71 -0.9,2.97 -4.73,12.74 -4.73,14.9 9.56,1.61 3.74,-2.57 7.98,-3.39 1.32,3.6 -2.72,3.39 5.64,3.39l0.95 -10.85c-0.01,-1.92 -0.06,-3.87 -0.02,-5.79 0.07,-3.37 0.73,-2.54 -0.49,-3.01 -1.74,-0.67 -5.57,-0.09 -7.48,0.04zm-32.42 0.61c-1.2,3.73 -2.82,13.11 -2.82,16.96 0,3.99 10.62,5.67 13.26,-2.3 1.06,-3.19 1.32,-8.31 2.18,-11.66 0.9,-3.54 1.29,-3.34 -3.69,-3.34 -2.75,0 -2.38,4.83 -3.07,7.95l-1.31 6.86c-0.35,1.18 -0.24,1.18 -1.73,1.47l2.82 -15.94c-1.83,-0.31 -3.41,-0.62 -5.64,0zm18.32 15.6c0,-2.51 0.57,-4.2 0.96,-6.43 0.16,-0.94 0.34,-1.87 0.64,-2.93 0.32,-1.13 0.71,-1.61 0.75,-2.85l0.94 0c0.73,2.25 -1.48,9.51 -2.35,12.21l-0.94 0zm-2.82 -15.94c-0.18,1.53 -0.71,2.95 -0.98,4.72 -0.66,4.28 -2.78,11.49 -2.78,14.95 6.8,0.41 12.54,1.49 14.23,-4.99 0.72,-2.78 1.74,-8.81 1.74,-11.97 0,-1.37 -0.76,-2.04 -2.26,-2.44 -4.28,-1.14 -7.05,-0.27 -9.95,-0.27zm-26.3 22.04l-7.04 0c-0.13,4.06 -2.02,1.55 0,7.8 2.45,-0.41 3.45,-1.69 5.64,-3.73 1.81,-1.69 2.83,-2.66 5.63,-3.73l1.02 0.62c0.44,0.32 0.86,0.29 0.86,0.73 0,4.03 -2.37,6.22 -3.76,10.51 3.68,-0.71 11.61,-9.63 13.62,-3.39 -1.33,1.44 -1.41,0.38 -1.41,2.71 2.9,-0.17 5.76,-2.91 8.86,-4.79 2.67,-1.62 1.29,-1.39 3.07,-3.55 0.88,-1.07 2.48,-2.58 2.62,-3.87 -5.06,0 -6.37,0.32 -9.86,-1.02 -2.97,3.2 -8.89,1.27 -12.21,-0.34 -2.62,0.44 -4.15,2.03 -7.04,2.03zm-9.39 -9.16c0,-2.2 0.94,-2.96 0.94,-4.41l0.47 0c0,1.58 0.5,1.1 0.4,2.34 -0.05,0.62 -0.38,1.08 -0.4,2.07l-1.41 0zm-7.98 7.46c1.84,0 4.93,0.36 5.94,-0.46 1.5,-1.22 -0.48,-2.33 2.51,-2.93 0.99,1.54 -1.4,3.39 1.41,3.39 15.52,0 12.29,0.14 15.2,-13.77 0.44,-2.09 0.76,-3.75 0.76,-6.24 -3.28,-0.13 -0.91,-0.72 -5.17,0 -1.23,1.85 -2.42,10.2 -2.84,13.21 -0.33,2.39 -0.35,2.48 -2.79,3.41 -1.07,-3.33 0,-11.45 0,-16.28 -2.2,-0.76 -5.34,-0.89 -7.53,-0.35 -2.4,0.59 -2.03,3.85 -3.68,8.19l-3.81 11.83zm73.26 22.72c0.31,-1.42 1.12,-2.37 2.23,-3.48 0.99,-0.99 0.13,-0.57 1.53,-0.93 1.18,1.51 -0.11,4.19 -3.76,4.41zm-36.63 -7.12c1.06,-1.44 2.3,-3.27 4.7,-3.73 -0.37,1.14 -1.03,1.63 -1.87,2.38 -0.76,0.68 -1.49,1.09 -2.83,1.35zm-5.64 0c-0.68,-0.87 -0.47,-0.91 -0.47,-2.37 -4.32,0.07 -3.1,1.79 -6.11,2.37 2.36,-2.54 4.18,-2.17 7.51,-5.76 -3.55,0 -6.16,1.77 -8.32,3.14 -2.93,1.85 -3.89,2.55 -3.89,6.36 4.72,0 1.6,-0.19 7.51,-3.05 0.51,0.7 0.65,0.8 0.94,1.7 2.78,-0.04 2.41,-0.63 4.7,-1.02 0,1.38 -0.16,1.09 0.47,2.03 4.48,-0.27 4.28,-2.62 7.98,-4.41 0.49,1.52 0.93,1.09 1.41,2.37 2.67,0 3.69,-0.48 5.76,-1.94 1.5,-1.05 2.55,-2.66 5.04,-2.81 0,3.92 -3.65,5.6 -0.24,5.32 1.66,-0.14 2.75,-0.86 3.65,-1.5 1.32,-0.94 1.7,-1.08 3.16,-1.78 0.49,1.5 0.36,1.58 1.41,2.71 2.12,-0.13 4.69,-1.43 5.17,-2.71 1.37,0.26 1.83,0.8 3.29,1.36 1.4,-0.53 1.57,-0.91 3.29,-1.02 4.33,5.9 -1.88,1.91 -1.88,9.5 1.26,0.22 0.89,0.34 1.88,0.34 2.87,0 7.04,-2.31 7.04,-6.44 0,-0.98 -2.16,-1.58 -0.34,-2.14 2.37,-0.72 -0.66,2.27 5.83,-1.35 1.06,-0.59 1.6,-0.99 2.96,-1.26 0.35,3.01 5.32,1.71 5.64,-1.02 -1.07,0.18 -1.08,0.26 -2.35,0.34 0,-1.98 0.17,-1.52 -0.94,-2.71 -2.37,0.46 -0.92,0.9 -3.29,1.36 0.91,-0.98 8.61,-5.52 3.27,-4.51 -2.81,0.53 -6.12,3.35 -8.08,4.76 -2.42,1.75 -3.39,3.01 -5.52,3.14 -3.48,-3.75 4.67,-4.5 5.17,-8.82 -4.33,0 -5.23,2.41 -8.37,5.49 -1.18,1.15 -1.33,1.21 -2.9,1.97 -0.65,-0.98 -0.29,-1.39 -0.94,-2.37 -3.7,0.22 -2.49,2.17 -6.57,3.73 0,-3.27 4.18,-8.42 -0.59,-4.86 -3.22,2.41 -4.31,4.01 -7.55,5.19 0.38,-1.95 2.07,-3.44 0.4,-4.92 -1.04,-0.92 -3.04,-1.52 -4.65,0.39 -1.62,1.92 -2.85,3.36 -5.93,4.54l-1.31 -1.09c-0.03,-2.37 1.55,-4.35 2.72,-6.03 1.58,-2.28 2.37,-3.25 3.29,-6.1 -1.93,-0.29 -1.63,-0.41 -2.68,0.75 -0.75,0.83 -1.39,1.57 -2,2.31 -3.87,4.7 -1.83,3.38 -8.82,7.87 -0.95,0.61 -1.61,0.84 -2.69,1.44 -1.36,0.75 -1.46,1.22 -3.06,1.53zm-50.72 5.43c-1.89,0 -1.28,-0.84 -0.98,-2.01l1.79 -7.93c2.52,-10.1 1.51,-9.89 10.46,-8.38 0.16,1.39 0.47,0.76 0.47,2.03 0,2.75 -1.54,7.17 -2.19,9.62 -1.8,6.9 -2.45,6.66 -9.56,6.66zm-20.19 -3.05c0,-1.97 0.55,-3.03 0.94,-4.74 0.37,-1.58 0.6,-3.07 0.99,-4.71 2.06,-8.65 10.28,-7.82 10.28,-3.09 0,5.57 -1.7,5.09 -4.7,5.09 0,-1.67 0.5,-3.71 0.94,-5.09l-1.41 0c-1.01,3.12 -3.7,10.48 -2.82,13.23 1.76,-0.85 2.09,-2.5 2.35,-4.75l3.76 0c-0.95,2.94 -1.77,7.8 -6.58,7.8 -3.01,0 -3.76,-1.89 -3.76,-3.73zm-9.39 -9.16c0.12,-1.43 0.77,-2.51 1.21,-3.87 0.79,-2.45 0.55,-2.57 3.95,-2.57 3.42,0 1.01,6.12 0.27,9.35 -0.79,3.42 -1.61,6.53 -2.62,9.64l-2.82 0c0,-3.16 0.26,-2.83 0.88,-5.47 0.34,-1.47 0.58,-2.71 1,-4.03 -1.55,0.82 -2.03,3.83 -2.46,5.34 -0.88,3.08 -1,4.11 -3.33,4.49 -0.89,-1.75 -0.03,-5.13 0.16,-7.12l-0.94 0c-0.38,1.17 -0.71,2.49 -0.9,3.76 -0.27,1.92 -0.5,1.86 -0.98,3.36 -4.35,0 -3.1,-0.29 -2.49,-3.15l3.43 -15.84 5.17 0c0,2.77 -0.6,4.99 0.47,6.1zm-24.89 13.56c-5.78,0 -3.91,-5.52 -3.26,-8.8 0.37,-1.85 0.61,-3.77 0.99,-5.73l1.33 -5.14c4.55,0 4.17,-0.76 2.69,7.03 -0.51,2.67 -1.75,6.26 -1.75,9.25l0.94 0c0.95,-2.96 1.43,-5.27 1.96,-8.76 0.27,-1.76 0.76,-7.52 3.2,-7.52 1.99,0 2.43,0.16 2.34,1.6 -0.03,0.44 -0.43,2.17 -0.59,3.05 -0.34,1.84 -0.95,3.68 -1.35,5.8 -0.68,3.58 -1.45,9.21 -6.5,9.21zm7.04 -0.68c0,-3.83 0.84,-6.9 1.61,-10.36 0.56,-2.49 1.07,-8.63 3.55,-8.63 5.55,0 4.92,-0.26 5.13,0.96 0.46,2.74 -2.3,3 -3.57,3.22 -0.24,1.29 -0.34,1.7 -0.63,2.71 1.41,0.56 0.71,0.59 2.35,0.91 0,1.7 -0.42,1.52 -0.47,3.05 -4.96,0.83 -2.04,1.82 -3.76,4.41 1.44,0.09 2.26,0.32 3.29,0.68 -0.4,0.6 -0.84,2.21 -0.95,2.99 -6.93,0.73 -3.15,0.26 -6.56,0.06zm42.27 -19.33c2.16,-0.04 1.58,-0.34 3.29,-0.34 1.71,0 1.12,0.3 3.29,0.34 -0.27,2.34 -0.57,3.37 -3.67,3.74l-0.56 3.38c1.65,0.1 1.21,0.11 2.35,0.57 -1.1,1.96 0.13,3.03 -3.29,3.16 -0.36,1.12 -0.87,2.87 -1.41,3.84 0.83,0.21 1.9,0.41 2.9,0.57l-0.56 3.38 -6.04 -0.07c-1.33,-0.34 -0.9,-0.58 -0.38,-2.15l4.07 -16.43zm-71.38 -23.74c6.08,0 4.07,-1.12 7.04,-1.7 -0.41,1.1 -0.68,1.11 -1.86,1.71 -2.19,1.1 -3.51,1.66 -5.18,-0.01zm139.48 -2.03c-1.95,0 -1.67,-0.13 -2.82,0.34 -1.05,-1.58 0.25,-0.87 -1.41,-1.36l0 -0.68c1.4,-0.24 1.04,-0.03 1.41,-1.02 2.68,0.16 0.61,0.52 3.31,0.68l-0.49 2.03zm-35.22 -4.75c1.83,0.44 2.12,0.57 3.76,0l1.41 2.37c-3.24,0.26 -0.22,1.02 -2.82,1.02l-3.29 -1.02c0.92,-1 0.94,-0.67 0.94,-2.37zm-108.49 6.1c3.85,-0.74 8.13,-5.91 12.68,-4.07 -0.95,0.75 -2.16,0.97 -3.36,1.3 -5.02,1.41 -4.56,3.44 -9.32,3.44l0 -0.68zm-8.45 -5.09c1.67,0 1.84,0.8 1.88,2.03 -2.28,0 -2.29,-0.12 -3.76,-0.68 0.52,-0.75 0.44,-1.36 1.88,-1.36zm170.95 -2.03c2.9,-0.81 4.03,0.43 1.41,1.7 -1.22,-0.59 -1.25,-0.35 -1.41,-1.7zm-175.64 0.34c-0.1,0.92 -0.22,0.92 -0.47,1.7 -1.17,-0.63 -2.08,-1.7 0.47,-1.7zm13.62 0.34c0,-0.52 0.93,-1.1 1.41,-1.36 1.02,0.37 0.17,0.1 1.41,0.34 -0.13,1.13 -2.19,3.06 -2.82,3.39 -1.12,-1.75 -0.1,-0.55 0.13,-1.19 0.52,-1.43 -0.13,0.64 -0.13,-1.19zm15.5 -1.02c0,1.3 0.17,1.21 -0.47,2.03 -1.51,-0.73 -2.62,-1.36 -2.82,-3.05 1.37,0.23 2.17,0.59 3.29,1.02zm-23.48 0.34c1.07,0 3.06,-1.08 4.7,-1.36 -0.19,1.64 -1.07,1.8 -3.29,2.02 -2.89,0.29 -2.6,0.69 -4.69,-0.32 0.84,-1.14 0.04,-0.63 1.41,-1.36 0.52,0.25 1.58,1.02 1.88,1.02zm-13.94 0.73c-1.2,0.87 -3.44,-1.59 -3.44,-3.44 0.86,0.42 4.38,2.76 3.44,3.44zm143.56 -4.46c3.2,0.62 0.04,1.36 5.64,1.36l-1.41 1.7c0.63,0.67 0.86,0.94 1.41,1.7 -1.93,-0.12 -1.05,-0.34 -2.82,-0.34 -0.38,0 -1.37,0.96 -2.82,1.36 0,-1.38 0.78,-2.37 -3.29,-3.05 1,-0.98 0.38,-0.68 2.75,-0.69l0.54 -2.02zm-108.96 1.36c-2.07,0 -3.48,3.51 -6.73,2.03 0.89,-3.04 3.31,-0.52 4.13,-1.82 0.55,-0.88 -0.96,-1.57 1.19,-1.57 1.66,0 3.5,1.25 4.23,2.03 -2.77,-0.17 -0.98,-0.68 -2.82,-0.68zm-44.62 -1.7c0.67,-0.51 0.73,-0.74 2.3,-0.69 4.61,0.15 0.17,3.54 5.38,6.35 3.17,1.7 1.65,-0.45 4.67,1.34 0.85,0.51 1.4,0.76 2.2,1.15 0,3.79 -0.36,3.65 4.67,4.09 7.99,0.7 8.56,2.7 11.23,7.49 0.56,1.01 1.01,1.76 1.38,2.74l1.51 2.98c4.84,-0.08 2.62,-3.06 5.17,-4.41l-0.58 2.36c2.64,-0.14 6.68,-2.24 6.68,0.01 0,1.96 -7.52,3.16 -9.39,4.07 0.63,1.72 4.21,5.19 6.11,6.1 -0.27,-2.35 -0.73,-4.01 -2.82,-4.41l0 -0.68c2.28,-0.38 2.12,-0.68 5.17,-0.68 0,2.22 -0.94,4.79 -0.94,7.12 -4.79,-0.55 -6.32,-4.14 -8.25,-6.26 -4.84,-5.33 -1.69,4.47 1,9.12 0.98,1.7 1.7,2.8 2.73,4.47 1.56,2.53 0.76,6.09 0.76,9.96 0,1.94 1.41,3.72 1.41,9.16 -1.58,-0.84 -0.97,-1.26 -1.88,-4.07l-0.94 0c0.21,1.79 1.25,1.05 -0.47,3.39 -5.25,-2.54 -1.41,-5.78 -1.41,-7.8 0,-8.52 -3.25,-8.3 -6.4,-14.37 -3.46,-6.67 3.29,-12.66 -5.34,-14.11 0.19,1.62 2.3,2.77 2.75,5.48 0.39,2.31 0.6,4.99 0.92,7.13 0.59,3.96 0.26,2.91 2.98,5.31 6.1,5.37 1.62,9.41 -0.08,8.19 -1.23,-0.88 0.81,-2.79 -2.19,-7.24 -2.68,-3.97 -2.01,-5.18 -3.33,-6.75 -1.57,-1.87 -3.62,-3.17 -5.29,-5 -1.71,-1.86 -2.64,-4.22 -5.16,-5.43 0,2.42 2.04,4.31 3.53,5.92 1.64,1.77 3.1,3.23 4.73,5.07 3.56,4.01 1.92,4.21 3.61,5.87 3.86,3.8 1.75,1.52 1.75,6.88 -2.77,-0.17 -2.78,-1 -3.27,-2.73 -1.03,-3.66 -1.19,-9.92 -6.75,-10.84 0.38,2.35 0.53,1.67 2.24,3.24 4.44,4.09 1.52,5.64 3.94,9.02 0.55,0.77 0.67,0.58 1.01,1.64 -1.83,-0.31 -2.18,-0.55 -2.82,-1.71 -2.66,-4.77 1.08,-3.08 -5.03,-8.23 -3.26,-2.74 -6.11,-6.47 -6.24,-11.43 -0.08,-3.02 -0.97,-3.98 -2.72,-5.83 -2.91,-3.07 -1.82,-2.05 -2.56,-6.29 -0.48,-2.75 -1.81,-3.63 -2.78,-5.8l-0.86 -6.83c0,-1.47 0.75,-1.05 0.94,-2.71 -3.62,-0.22 -2.91,-0.84 -3.29,-1.36zm31.47 2.03c0.2,-1.73 0.89,-2.23 3.29,-2.37 -0.56,0.76 -0.45,0.74 -1.25,1.47 -1.46,1.33 0.29,0.72 -2.03,0.9zm158.74 -1.7c-1.69,0.33 -1.26,0.03 -1.41,1.36 -1.66,-0.8 -1.02,-0.68 -3.76,-0.68 0.62,-1.93 0.76,-0.31 0,-2.37 2.66,0 1.8,0.3 2.35,-0.68l0.94 0c0.46,1.25 0.57,0.59 1.88,2.37zm-176.58 5.43c-2.22,-0.97 -0.65,-0.76 -3.91,-3.62 -1.09,-0.96 -3.6,-2.09 -3.6,-3.5 0,-0.09 0.32,-0.62 0.47,-1.02 1.74,0.84 0.83,0.83 1.91,2.03 0.37,0.36 1.93,1.07 2.41,1.3 1.65,0.78 6.66,2.73 2.73,4.81zm147.94 -8.82l2.35 0 0 1.7c-2.32,-0.04 -2.3,-0.02 -2.35,-1.7zm12.92 -0.51c0.53,0.22 1.34,0.25 2.11,0.51 -1.73,1.86 -1.2,0.14 -0.94,2.37l-4.7 0c0.58,-2.63 -0.17,-0.65 -0.94,-2.71 2.52,-0.04 1.95,-0.17 2.82,-1.36 1.59,0.84 0.3,0.61 1.65,1.18zm-143.95 2.89c2.79,-3.8 5.42,-1.81 9.68,-3.18 2.17,-0.7 0.74,-0.84 3.47,-0.89l-1.85 2.05c-1.4,1.83 -3.4,4.51 -7.07,4.73 0.49,-1.33 1.34,-1.68 2.75,-2.42 2.01,-1.05 1.56,-0.89 2.89,-2.32 -3.23,0 -3.14,-0.04 -5.26,0.95 -1.72,0.81 -1.92,1.09 -4.6,1.09zm21.18 8.17c0.87,-6.64 2.43,-13.46 3.29,-20.01 0.28,-2.11 0.22,-5.8 2.31,-5.8 4.81,0 11.9,-0.44 15.49,1.71 3.9,2.33 3.29,5.44 3.29,8.8 0,2.91 -6.08,33.89 -7.09,36.25 -3.23,7.53 -9.54,6.52 -21.55,5.8l4.27 -26.76zm100.46 -14.95c1.65,2.25 1.75,0.86 3.29,2.37 -2.11,0.36 -1.88,0.23 -1.88,2.03 -3.29,-0.38 -0.95,-1.16 -5.17,-0.68 0.95,-2.93 0.29,-0.99 -0.47,-3.05 2.69,0 2.46,-0 4.23,-0.68zm-106.61 3.39c0,-1.68 1.56,-2.92 3.76,-3.05 -1.82,2.58 -0.47,2.4 -0.47,4.07 0,1.88 -0.47,2.01 -0.47,3.73 -3.45,-0.15 -2.82,-1.39 -2.82,-4.75zm-10.33 -3.39c1.32,-0.65 2.68,-1.7 4.7,-1.7 3.57,0 5,4.27 -3.76,4.41 -0.3,-0.93 -0.64,-1.78 -0.94,-2.71zm10.8 0c-1.03,-1.51 -0.31,-1.28 1.41,-1.02 -1.07,1.46 0.13,0.62 -1.41,1.02zm74.2 10.17c0,-5.76 0.92,-14.2 6.2,-18.24 6.19,-4.74 18.41,-3.78 13.79,12.33 -0.22,0.78 -0.5,1.1 -0.74,1.84l-7.51 0c0,-4.02 1.94,-5.7 0,-7.8 -1.74,0.84 -2.82,2.95 -2.82,5.09 0,4.78 1.2,4.65 4.5,8.96 1.65,2.15 2.24,4.43 3.33,6.64 10.84,0 11.9,-1.84 11.9,6.1 1.44,-1.66 0.99,-4.25 2.35,-6.1 3.91,0 7.83,0 11.74,0l11.27 -0.34c19.88,0 9.94,1.21 15.97,2.37 0,-1.7 0.42,-1.52 0.47,-3.05 1.24,0.44 -0.39,0.34 1.41,0.34l9.86 0c0,-4.67 0.52,-2.58 1.46,-5.05 0.48,-1.26 -0.51,-1.12 -0.99,-2.41 2.18,-0.03 1.75,-0.1 2.83,-1.02 1.78,-1.52 3.29,-2.99 5.62,-4.07 3.73,-1.73 12.78,0.26 15.17,2.65 1.26,1.26 0.33,0.98 0.33,2.44 0,1.3 0.78,1.73 0.13,2.79 -0.89,1.44 -4.6,1.65 -6.1,2.74 -1.72,1.24 -3.6,4.4 -2.49,6.68 3.31,-0.64 1.25,-2.82 5.17,-3.05 0.37,1.15 0.23,0.98 1.25,1.58 1.1,-0.74 1.16,-0.66 1.57,-1.92 1.93,1.02 0.1,1.85 -0.47,3.39 1.17,0.49 1.99,1.01 2.82,1.7 -0.4,1.23 -1.13,1.99 -1.97,2.98 -0.77,0.91 -1.14,2.19 -2.25,2.78 -1.68,-0.81 -1.61,-1.64 -2.35,-3.05 -0.92,-1.75 -0.29,-2.56 -2.82,-2.71 -0.98,1.47 -0.05,1.1 0.47,2.71 -2.37,0.14 -3.29,1.02 -4.23,1.02 -2.22,0 -3.49,-0.97 -4.23,1.02 1.03,0.36 1.85,0.59 3.29,0.68 -0.42,1.14 -0.79,0.9 -1.6,1.9 -2.52,3.15 -5.33,0.65 -7.35,2.83 -1.21,1.31 -2.42,4.77 1.32,3.04 4.07,-1.89 3.89,-0.31 7.63,-0.31 1.58,0 1.5,-0.34 3.76,-0.34 -0.82,2.21 -4.36,1.15 -6.7,1.02l0.14 2.45 6.09 -0.42c2.89,0 1.48,3.35 -2.82,4.07 0.44,1.37 1.41,1.58 1.41,2.37 0,3.06 -4.4,4.46 -6.11,6.78 3.05,-0.59 9,-6.86 14.56,-7.8 3.27,1.58 1.23,2.04 0.47,4.41 1.25,1.35 2.04,1.35 3.29,3.05 -0.5,1.55 -2.58,3.39 -5.17,3.39 -1.87,0 -2.36,-0.68 -4.23,-0.68 -0.24,0 -1.89,1.14 -2.63,1.49 -4.57,2.19 -1.19,3.36 -4.51,5.9 -4.12,3.14 -9.77,4.17 -9.77,1.09 0,-3.65 2.82,-5.15 2.82,-6.78 0,-1.78 -1.48,-0.34 -2.82,-0.34 -0.61,0 -2.39,-0.53 -3.29,-0.68 -2.83,3.05 -4.92,2.03 -8.45,0.68 -0.36,0.23 -0.52,0.34 -1.04,0.61l-3.29 1.38c-4.95,1.23 -3.34,-1.75 -2.71,-3.68 -2.87,0.55 -3.13,3.05 -6.57,3.05 -2.24,0 -2.35,-0.66 -4.23,-1.02 -1.57,0.76 -4.67,3.25 -6.51,3.19 -1.55,-0.05 -1.71,-0.77 -3.88,-1.12 -1.37,-0.22 -1.23,-0.16 -2.28,-0.39 -1.15,-0.24 -0.33,-0.3 -2.36,-0.33 -0.92,2.49 -6.42,3.3 -7.51,0.34l-0.94 0c-0.74,2 -4.23,2.81 -4.23,0.68 0,-2.39 0.94,-3.72 0.94,-6.1l-2.23 0.76c-2.48,0.94 -2.5,0.38 -5.28,-0.09l-2.51 5.65c-1.69,2.98 -3.72,1.53 -5.94,0.46 -1.88,0.36 -1.54,1.02 -3.76,1.02 -5.77,0 -1.63,-10.4 -0.98,-12.58 0.6,-2.05 1.74,-4.77 3.42,-6.01 3.08,-2.29 4.61,-0.18 6.96,0.96 1.01,-1.08 0.77,-0.24 0.94,-1.7 -2.57,-0.15 -5.2,-1.14 -7.04,-2.03 -1.53,0.74 -3.67,2.03 -6.11,2.03 -3.74,0 -7.51,-2.67 -7.51,-5.43 0,-3.27 0,-6.53 0.66,-9.7 0.81,-3.91 1.61,-4.73 8.73,-3.53 -0.07,3.29 -2.77,6.97 -0.78,10.06 1.79,-0.18 2.19,-1.25 2.71,-2.56 0.81,-2.07 0.89,-4.28 0.89,-6.48 0,-3.47 -7.51,-7.68 -7.51,-14.58zm46.49 -13.9c2.31,0.45 0.38,0.68 3.76,0.68 -0.66,2.06 -0.72,0.54 0,2.71 -2.36,-0.4 -1.93,-0.21 -3.76,0.68 -0.14,-1.76 -0.23,-1.41 -1.88,-2.03l1.88 -2.03zm-118.82 2.03c-1.56,-0.59 -2.08,0.23 -0.47,-4.75l0.71 1.2c0.63,1.79 -0.24,1.42 -0.24,3.54zm44.15 34.25c0,-3.66 1.23,-7.8 1.93,-11.17 0.71,-3.44 1.42,-7.11 2.11,-10.68 0.72,-3.75 1.45,-7.29 2.04,-10.74 0.35,-2.03 0.69,-3.41 1.02,-5.36 1.01,-5.83 1.03,-4.64 9.81,-4.11 0,2.2 -1.62,8.58 -2.15,11.33 -0.76,3.93 -1.36,7.11 -2.19,10.97l-3.35 16.58c-0.52,2.42 -1.27,3.47 0.65,4.58 2.21,-2.25 4.82,-17.73 5.55,-21.48l4.31 -21.98 8.45 0c0,4.78 -4.39,23.86 -5.44,28.97 -0.89,4.35 -3.12,22.58 -12.41,22.58 -6.91,0 -10.33,0.1 -10.33,-9.5zm-10.33 -42.73l9.86 0c2.61,0 2.79,0.34 5.17,0.34 0,3.76 -1.5,6.91 -1.88,10.17 -4.19,0.71 -2.25,0.2 -5.64,0 -0.99,1.5 -1.82,6.66 -2.02,8.8 -0.05,0.51 -2.01,1.6 5.31,1.71 0,1.99 -1.5,8.21 -2.35,9.5l-4.7 0c-0.9,1.36 -1.3,3.66 -1.69,5.57 -1.16,5.69 -1.47,5.87 2.36,5.88 1.2,0 1.68,-0.06 3.08,0.43 -0.06,1.96 -1.42,7.92 -2.19,9.5 -2.22,0 -4.3,-0.03 -6.39,0.13l-8.8 -0.13 9.86 -51.89zm-38.19 7.57c-1.11,-1.13 0.62,-1.74 0.62,-2.82 0,-0.24 -1.41,-1.62 -1.41,-2.71 0,-0.18 0.68,-0.74 0.94,-1.02 4.09,1.98 1.61,3 1.41,4.75 -0.16,1.48 0.31,1.18 -0.48,2.37 -1.08,-0.28 -0.45,0.08 -1.09,-0.57zm-33.66 -4.52c1.97,-0.95 1.99,-1.96 3.44,-2.94 2.26,-1.54 1.69,0.05 3.21,-2.77 1.39,-2.58 2.82,-4.8 7.91,-4.8 12.85,0 12.68,3.33 14.22,4.31 1.82,1.15 2.17,0.47 2.69,2.81 -1.75,-0.85 -0.6,-0.97 -3.29,-1.02 0.2,1.77 6.61,5.31 2.45,7.88 -0.93,0.58 -1.83,0.52 -2.9,0.96 -1.29,0.52 -1.1,0.85 -2.44,1.29 -1.1,0.36 -1.27,0.16 -2.75,0.39 0.49,2.24 1.23,2.79 -0.25,4.55 -1.26,1.49 -1.73,2.23 -4.92,2.23 0.59,1.83 1.22,0.95 1.41,2.83 -6.57,2.61 -4.05,0.49 -8.45,0.23 -0.34,1.05 -0.6,0.98 -0.94,2.03 -2.09,-0.13 -3.23,-0.72 -4.29,-1.65 -3.36,-2.93 -3.24,0.31 -6.92,-4.51 -0.96,-1.26 -1.03,-0.87 -3.34,-1.99l0 -2.71c-2.65,1.28 -0.94,2.42 -0.94,6.1 -2.15,-1.04 -1.14,-0.39 -2.49,-1.93 -1.07,-1.22 -0.99,-1.36 -1.73,-2.48 0.97,-0.37 1.11,-0.47 2.35,-0.68 -0.06,-1.96 -0.92,-2.22 -1.41,-3.73l3.29 0 0 -1.02c-1.7,-0.33 -2.66,-1.36 -2.82,-2.71 2.47,0.04 1.79,0.35 3.76,0.68 0,-3.69 0.21,-4.85 2.7,-6.87 2.3,-1.87 5,-3.3 8.57,-3.3l0 1.36c0,3.48 -8.86,3.91 -6.11,7.46zm39.45 4.07c0,-7.21 -3.02,-3.29 -4.7,-8.48 -2.68,0 -2.25,0.01 -3.56,-1.17 -0.97,-0.87 -1.68,-1.15 -2.08,-2.22 1.12,-0.93 1.13,-1.07 2.82,-1.36 0.49,0.73 0.2,3.74 5.64,4.07 0.09,2.98 2.92,1.55 3.51,3.82 0.13,0.5 -0.7,3.7 -0.7,5.34l-0.94 0zm143.24 13.57c1.18,-1.34 4.03,-3.27 6.57,-3.73l0 -1.02c-3.26,0.05 -1.85,1.02 -4.7,1.02 -1.53,0 -4.33,-2.69 -4.7,-3.73 -2.84,0 -1.56,0.16 -3.09,0.48 -3.65,0.77 -4.83,0.29 -7.89,-0.69 -1.66,-0.53 -3.13,-0.92 -4.32,-1.97 -3.63,-3.23 1.42,-5.21 -4.13,-6.17 -2.64,-0.46 -2.68,-1.05 -4.99,-1.14 -0.26,0.79 -0.57,1.69 -1.49,2.32 -1.13,0.78 -0.94,0.16 -2.29,1.4 -1.29,1.18 -1.87,2.73 -4.68,2.73 -2.96,0 -1.4,-2.71 -4.23,-2.71 -2.59,0 -1.6,2.3 -6.9,0.58 -3.52,-1.14 -2.99,-1.11 -3.99,-3.91 -1.77,-4.95 -8.6,-7.72 -15.11,-4.93 -2.07,0.89 -1.49,1.38 -4.06,1.82 -3.4,-1.65 -1.3,-2.08 -7.51,-2.04 -3.47,0.02 -6.76,0.03 -9.53,-0.24 -3.39,-0.34 -6.15,0.38 -9.18,0.21 -2.86,-0.16 -5.56,-0.64 -9.01,-0.64 -14.23,0 -6.85,1.36 -12.21,1.36 -3.34,0 -6.81,-2.03 -15.5,-2.03 -8.21,0 -5.63,0.85 -8.45,1.02 -0.25,-0.68 -0.8,-1.52 -1.67,-1.85 -4.47,-1.67 -3.95,1.29 -5.84,-4.6 -1.39,0 -2.25,-0.08 -3.54,0.16 -1.8,0.33 -0.48,0.52 -2.57,0.52 -5.52,0 -8.72,-3.92 -18.32,-1.01 -5.01,1.52 -2.54,-1.13 -10.15,2.5 -5.24,2.5 -5.69,6.41 -7.14,7.04 -1.41,0.61 -3.37,-0.84 -3.37,1.99 0,0.82 0.77,0.21 0.27,1.87 -0.3,1.03 -0.74,0.57 -0.74,1.52 0,0.99 0.99,1.24 1.41,2.37 -0.64,0.69 -1.24,1.35 -1.88,2.03 0.44,0.6 0.58,0.94 1.04,1.63 2.2,3.35 -0.1,2.08 -0.1,4.82 0,1.69 1.42,1.81 2.08,3.58 0.53,1.41 0.15,3.02 0.25,4.56 0.2,3.16 2.51,4.87 3.15,7.55 1.09,4.61 0.07,4.21 3,7.68 2.51,2.98 2.29,3.11 2.82,7.46 0.52,4.23 3.43,7.11 6.61,10.15 4.27,4.08 2.13,2.99 4.09,6.88 0.66,1.31 1.16,2.09 2.53,2.92 2.31,1.39 7.1,1.44 11.16,1.44 -0.07,2.2 -1.41,2.02 -1.41,4.07 0,3.52 3.18,6.78 8.45,6.78 2.31,0 0.94,-4.02 0.94,-5.09 2.72,1.33 2.91,1.36 6.11,1.36l4.39 -1.24c0.56,-0.21 0.06,-0.02 0.56,-0.28 0.89,-0.46 -0.7,0 1.04,-0.61 1.36,-0.47 2.03,-0.13 3.68,-0.39 1.96,-0.31 1.81,-0.88 3.01,-0.88 1.39,0 1.26,0.68 3.29,0.68l10.32 -0.35c2.94,0.01 7.34,0.42 9.89,-0.32 0.82,-0.24 2.62,-1.03 3.74,-1.03 1.94,0 3.51,1.36 5.64,1.36 2.86,0 3.75,-1.18 5.15,-1.2 1.03,-0.01 2.27,0.86 4.71,0.86l6.56 -0.35c1.24,-0.03 2.56,0.04 3.8,0.03 3.61,-0.05 3.16,-1.04 5.61,-1.04 1.89,0 1.54,1.02 4.23,1.02l4.97 -0.46c1.69,0.26 5.32,2.69 7.5,-2.07 1.78,-3.87 1.22,-3.92 6.31,-3.92 0,1.63 -0.76,3.21 0.12,4.64 1.74,2.83 4.07,0.79 5.98,0.79 1.4,0 1.26,0.68 3.29,0.68 2.79,0 4.48,-1.94 6.43,-1.88 2.39,0.07 4.18,1.2 7.66,1.2 3.29,0 3.89,-2.84 7.02,-2.39 3.91,0.56 2.91,0.3 6.6,-0.32 1.02,0.49 2.66,1.7 4.23,1.7 2.09,0 3.9,-1.7 5.64,-1.7 1.39,0 1.26,0.68 3.29,0.68 3.58,0 4.34,-1.36 6.57,-1.36 4.51,0 -0.87,4.24 0.77,7.22 1.32,2.39 4.99,2.1 7.91,1.07 6.55,-2.3 4.52,-5.1 7.01,-7.48 3.01,-2.86 6.39,-0.12 10.5,-2.25 3.82,-1.98 4.76,-4.68 0.58,-6.71 3.62,-5.45 -1.41,-3.95 -1.41,-6.1 0,-3.32 2.73,-6.48 3.6,-9.62 1.71,-6.18 2.74,-1.49 6.76,-5.63 5.84,-6.02 -1.21,-7.96 6.83,-12.7 0.75,-0.44 2.08,-1.49 2.08,-2.23 0,-1.33 -0.32,-1.63 -1.47,-2.67 -3.1,-2.79 -0.08,-1.87 -4.82,-3.98 -1.99,-0.89 -1.27,-1.78 -1.98,-3.66 -1.4,-3.7 -4.34,-6.95 -8.71,-8.97 -1.33,-0.62 -8.11,-2.76 -10.26,-2.76 -1.79,0 -4.75,1.05 -5.98,1.79l-4.19 2.39c-1.61,0.92 -4.76,5.59 -5.33,7.35 2.86,-0.17 2.85,-3.3 6.02,-6.17 1.05,-0.95 7.24,-4.01 9.01,-4.01 6.83,0 13.31,3.91 16.29,7.91 3.29,4.42 0.72,6.46 3.53,7.29 1.04,0.31 1.27,0.02 2.36,0.67l4.12 4.14c-2.1,-0.41 -5.78,-4.37 -12.21,-6.45 -1.4,-0.45 -2.34,-0.5 -3.93,-0.9 -6.33,-1.61 -8.09,-4.16 -15.84,-2.52 -4.59,0.97 -3.93,0.2 -7.87,2.46 -3.37,1.93 -7.37,2.44 -9.63,5.25 -1.32,1.65 -2.18,3.76 -2.18,6.23l-0.47 0c0,-3.27 0.11,-5.09 1.88,-7.12z"/>
  </g>
 </g>
</svg>
