<?xml version="1.0" encoding="UTF-8"?>
<!DOCTYPE svg PUBLIC "-//W3C//DTD SVG 1.1//EN" "http://www.w3.org/Graphics/SVG/1.1/DTD/svg11.dtd">
<!-- Creator: CorelDRAW -->
<svg xmlns="http://www.w3.org/2000/svg" xml:space="preserve" width="40.155mm" height="8.6029mm" version="1.1" style="shape-rendering:geometricPrecision; text-rendering:geometricPrecision; image-rendering:optimizeQuality; fill-rule:evenodd; clip-rule:evenodd"
viewBox="0 0 483.04 103.49"
 xmlns:xlink="http://www.w3.org/1999/xlink"
 xmlns:xodm="http://www.corel.com/coreldraw/odm/2003">
 <defs>
  <style type="text/css">
   <![CDATA[
    .fil0 {fill:#020202}
    .fil4 {fill:#030303}
    .fil6 {fill:#33717D}
    .fil2 {fill:#5AC9DE}
    .fil5 {fill:#706E6E}
    .fil8 {fill:#7B7C7C}
    .fil7 {fill:#8A8A8A}
    .fil3 {fill:#FE0000}
    .fil1 {fill:#FEFEFE}
   ]]>
  </style>
 </defs>
 <g id="Camada_x0020_1">
  <metadata id="CorelCorpID_0Corel-Layer"/>
  <g id="_1880166209376">
   <path class="fil0" d="M449.02 16.75c-0.66,0.98 0.74,0.48 -0.84,0.88 -0.05,-0.16 -0.13,-14.21 -12.87,-11.91 -6.46,1.17 -4.31,7.7 -7.08,18.07 -1.19,4.44 -9.36,36.56 -12.66,38.02 -1.37,-13.77 7.68,-35.5 4.41,-43.24 -5.18,-12.25 -14.97,-5.44 -18.89,-5.43 -13.62,0.03 -27.6,12.02 -30.78,11.03 -1.78,-0.9 -4.49,-10.09 -14.07,-13.82 -11.28,-4.39 -24.74,0.88 -32.83,11.42 -6.08,7.93 3,1.52 -11.81,9.08 -11.16,5.7 -6.47,7.28 -12.34,-0.15 -4.88,-6.18 -11.35,-6.25 -18.06,-5.91 -1.24,-5.47 -3.71,-9.44 -7.08,-11.91 -6.64,-4.87 -27.28,-0.31 -35.11,2.59 -2.26,0.84 -4.59,2.57 -6.22,2.99 -3.14,-4.06 -4.45,-7.12 -11.03,-6.87 -7.28,0.27 -6.61,5.29 -10.24,8.56 -3.9,-1.16 -15.84,-16.18 -48.6,-2.25 -5.08,2.16 -4.36,-1.16 -9.13,-1.73 -9.85,-1.18 -8.9,8.17 -13.59,13.26 -1.85,-4.26 -1.77,-6.66 -5.3,-8.64 -5.25,-2.95 -6.52,-0.14 -9.62,1.89 -2.06,-1.57 -4.93,-8.73 -12.76,-5.12 -8.51,3.93 -6.77,6.91 -9.66,11.1 0.73,-10.05 7.81,-23.57 -5.48,-25.86 -5.08,-0.87 -5.31,1.39 -8.57,1.91 -4.04,-1.3 1,-6.27 -23.93,-4.25 -8.87,0.72 -16.64,1.94 -24.99,4.27 -5.02,1.4 -7.44,-9.1 -15.62,-2.1 -3.55,3.04 -1.99,0.95 -6.13,1.24 -10.96,0.78 -4.63,18.2 -5.41,26.74 -8.03,5.98 -15.53,6.12 -11.75,20.63 1.35,5.2 2.17,4.29 5.32,6.03 0.01,4.48 -4.89,4.13 -0.19,16.7 2.92,7.82 8.59,4.03 13.2,3.97 1.83,3.58 1.63,22.1 12.92,11.01 1.44,0.57 2.27,2.24 4.27,2.77 7.72,2.06 6.67,-8.29 8.33,-15.49 6.46,9.23 6.49,10.01 19.41,7.39 14.51,-2.94 15.91,-9.87 20.02,-9.97 1.73,3.81 2.35,6.53 4.69,9.97 4.63,6.81 13.64,11.14 17.37,5.85 3.59,-5.09 -0.58,-8.94 -0.59,-11.5 7.99,-0.02 9.22,-0.05 8.99,-8.86 1.96,1.66 2.97,3.33 5.85,5.15 13.29,8.41 21.68,-3.56 22.95,-3.07 0.11,0.04 4.07,7.25 6.05,9.05 2.76,2.51 7.82,2.81 9.15,5.05 2.17,3.63 5.89,14.03 17.91,8.8 0.66,-5.96 -1.69,-21.75 2.88,-25.26l13.98 -10.51c-3.17,17.26 -14.28,24.23 -8.41,33.4 3.65,5.71 8.53,2.58 13.47,0.78 6.51,-2.37 8,-7.41 12.57,-7.62 1.92,3.11 5.6,17.91 16.32,18.51 8.98,0.5 4.24,-5.71 10.65,-6.15 8.14,-0.56 32.92,-12.12 37.26,-9.4 11.9,7.46 17.27,-6.75 20.1,-9.84 2.68,2.09 7.1,16.99 21.71,5.87 2.36,-1.79 4.75,-5.35 6.4,-6.2 3.17,3.15 7.62,17.69 20.78,13.17 10.73,-3.69 14.25,-16.22 18.12,-18.49 1.55,7.94 7.8,15.78 15.41,16.29 11.37,0.77 14.73,-7.77 20.52,-9.68 3.13,3.74 5.62,12.6 15.57,11.97 8.81,-0.57 12.55,-10.51 15.58,-12.54 1.66,0.95 2.27,2.3 4.5,3.48 1.76,0.93 3.69,1.38 5.5,2.3 3.35,1.7 4.78,4.94 9.32,6.34 11.89,3.69 34.28,-17.7 28.6,-34.4 -4.03,-11.85 -15.27,-6.63 -21.57,-9.26l9.75 -13.17c3.02,-1.54 5.7,8.12 13.05,-4.39 5.26,-8.96 6.8,-15.83 -1.6,-22.28 -10.34,-7.93 -20.42,1.26 -28.09,9.66z"/>
   <path class="fil1" d="M380.44 74.83c-0.98,1.4 -2.45,1.56 -3.98,1.23 -0.42,-1.54 -0.6,-6.63 0.53,-7.34 -0.15,-7.18 3.59,-8.05 7.52,-10.17 2.63,-1.41 8.44,-4.47 9.9,-6.9 -1.21,-5.45 -7.89,-2.38 -10.28,-3.47 -0.63,0.73 -0.04,0.37 -0.9,0.8 -0.69,0.33 -0.48,0.06 -1.03,0.01 -0.31,-1.27 -0.29,-0.14 -0.21,-1.44 0.15,-2.59 -0.09,-0.18 0.5,-1.25 3.28,-8.92 1.43,-9.29 8.74,-13.04 3.3,-1.69 10.09,-5.86 13.42,-6.7 0.14,2.18 -2.78,20.99 -3.28,28.31 -0.67,9.76 -0.27,20.73 3.18,27.41 3.48,6.74 10.8,8.33 16.36,2.15 5.89,-6.54 7.15,-12.31 10.21,-18.47l0.46 1.54 0.43 4.41c0.98,6.22 5,10.44 8.44,9.18 0.39,-6.51 -0.78,-12.37 -0.22,-19.74l3.34 -38.02c0.31,-3.55 0.5,-7.05 -1.32,-8.64 -1.93,-1.69 -3.71,-2.43 -5.92,-2.44 -1.57,4.95 -2.96,13.29 -4.38,19.02 -3.07,12.4 -8.75,31.67 -14.77,41.48 -1.83,2.98 -3.37,5.53 -5.17,5.57 -1.96,-9 -0.77,-23.68 0.81,-32.89 0.87,-5.08 1.98,-9.57 2.87,-14.59 0.42,-2.38 1.11,-5.54 0.29,-7.85 -0.52,-1.46 -2.23,-3.57 -3.28,-4.29 -2.13,-1.46 -3.65,-0.57 -4.94,1.01 -4.24,5.22 -1.8,-3.87 -16.36,3 -4.18,1.97 -17.17,7.56 -19.42,10.07 0.18,3.51 2.08,3.74 1.94,7.1l-4.14 14.07c-1.07,2.08 -2.4,1.69 -3.9,3.84 -0.24,2.72 0.36,2.69 0.89,4.89 1.13,4.67 -1.53,8.45 2.07,15.54 2.09,4.12 6.08,8.63 12.14,7.8 6.42,-0.88 23.14,-12.38 17.86,-22.6 -3.33,-0.46 -13.72,10.77 -18.36,11.41z"/>
   <path class="fil1" d="M29.49 43.55c1.08,0.74 1.39,6.7 1.49,8.61l-3.66 1.77c-0.55,-1.36 -0.84,-3.16 -0.73,-6.87l-0.46 -2.04c1.08,-1.17 1.98,-1.23 3.37,-1.47zm15.45 15.72c3.42,-1.62 4.73,-1.87 7.44,-4.55 1.83,-1.81 4.74,-4.37 5.34,-7.2 -2.92,-1.3 -5.59,-0.82 -8.67,-0.65 -1.71,0.67 -9.88,2.51 -11.48,2.26 -1,-2.5 -0.97,-6.34 -0.8,-9.34 3.31,-1.03 10.32,-2.86 12.59,-5.13 1.99,-1.06 3.39,-2.69 5.17,-4.14 1.6,-1.31 4.12,-3.05 3.84,-6.04l-3.75 -0.47c-4.63,0.17 -15.97,3.78 -19.08,3.11l-0.26 -8.17 -0.92 -6.58c-0.73,-1.38 -1.47,-3.42 -2.49,-4.15 -0.7,-0.5 -1.69,-0.73 -2.61,-0.57 -5,0.84 -0.64,14.32 -0.87,23.13l-3.1 1.12c-1.04,-3.92 -0.24,-10.41 -1.41,-14.99 -1.12,-4.4 -3.45,-7.3 -7.22,-4.76 -0.89,5.76 1.91,19.89 0.91,23.83 -1.69,2.82 -10.11,4.92 -12.75,9.04 -0.38,4.69 1.5,11.85 5.57,10.53 3.2,-1.04 6.3,-4.54 9.26,-5.36 0.8,3.76 1.5,7.37 -0.83,8.94 -5.5,3.72 -10.66,4.8 -9.65,10.74 0.5,2.91 1.85,5.69 3.32,7.2 2.69,-0.17 7.36,-5.64 10.26,-6.03 1.7,3.48 1.57,15.2 4.18,18.99 1.26,-0.55 1.79,-1.73 2.09,-4.37 0.69,-5.9 -0.31,-17.17 -0.03,-19.52 0.91,-0.75 2.19,-1.41 3.53,-1.52 2.2,4.71 2.62,22.85 6.18,25.74 3.09,-6.95 0.23,-26.19 0.44,-29.45l5.79 -1.65z"/>
   <path class="fil1" d="M140.24 58.18c-0.02,-1.92 1.46,-4.31 2.23,-6.41 1.15,-3.16 1.24,-5.01 2.59,-5.68 0.48,1.83 0.53,9.09 -0.04,10.53 -0.85,1.88 -2.79,2.16 -4.79,1.57zm-11.51 6.37c-0.68,-1.64 0.3,-7.58 0.53,-9.65 0.68,-6.19 4.54,-27.27 3.94,-28.81 -4.59,-5.88 -7.19,2.59 -8.44,8.5 -2.08,9.84 -1.9,18.89 -2.48,20.81 -3.38,-2.68 -2.66,-21.33 -2.76,-27.26 -0.23,-13.56 -10.79,-5.08 -12.33,-0.33 -1.77,5.45 -4.03,17.92 -4.74,24.36 -0.49,4.44 -1.12,9.13 -0.14,13.57 0.74,3.36 2.98,7.77 5.86,7.27 1.08,-3.51 1.1,-23.14 2.72,-26.4 1.01,1.72 2.47,10.87 3.87,14.15 1.59,3.71 4.55,8.23 7.82,9.53 5.02,1.98 7.69,2.14 12.34,-0.61 2.46,-1.46 7.82,-5.96 10.54,-5.88 1.5,2.24 3.34,16.53 11.29,14.35 0.22,-4.28 -3.62,-10.77 -3.01,-16.25 1.41,-0.68 0.54,0.21 3,-0.84 0.09,-0.04 0.23,-0.1 0.34,-0.18 -1.26,-6.37 -5.8,3.33 -4.12,-17.86 0.41,-5.17 2.66,-16.9 2.19,-21.31 -6.28,-6.28 -10.93,6.76 -15.55,16.49 -2.79,5.87 -5.83,13.44 -7.93,20.01 -0.72,2.24 -1.35,5.39 -2.93,6.37z"/>
   <path class="fil2" d="M241.81 76.25c1.17,-5.7 24.21,-37.87 29.86,-44.36 4.41,-5.06 7.45,-9.18 0.99,-15.96 -4.85,-5.1 -11.44,-2.83 -17.49,-1.72 -4.12,0.76 -19.17,2.33 -20.44,7.94 -2.01,8.83 4.26,8.58 9.17,7.59 5.75,-1.15 12.32,-3.51 18.29,-3.3 -0.71,1.83 -0.47,1.11 -2.21,3 -10.27,11.18 -22.69,26.29 -28.56,42.28 -1.73,4.71 -3.59,12.39 -0.36,16.54 3.1,3.98 9.45,1.05 13.21,-0.17l25.89 -8.12c0.14,-3.59 -0.79,-6.17 -4.16,-7.56 -4.31,-1.79 -18.48,3.01 -24.18,3.85z"/>
   <path class="fil1" d="M345.68 28.15c3.84,-3.02 12.43,-4.89 13.91,2.21 3.07,14.81 -13.13,51.09 -21.94,48.33 -1.14,-4.74 2.2,-21.35 3.34,-26.2l4.66 -17.15c1.36,-4.84 -0.51,-4.25 0.04,-7.18zm-21.35 5.97l0.79 5.67c1.33,1.55 1.57,2.85 3.6,3.3 1.15,-1.78 2.74,-5.21 4.36,-5.66 0.8,1.96 -1.76,9.79 -2.28,12.22 -3.09,14.48 -6.28,27.77 3.37,36.81 11.66,10.93 24.08,-14.17 28.13,-23.12 2.31,-5.11 6.61,-16.87 6.13,-24.47 -0.6,-9.47 -4.97,-16.34 -9.99,-19.77 -13.19,-9 -32.89,4.26 -34.11,15z"/>
   <path class="fil2" d="M206.41 68.75c0.07,-4.05 1.65,-6.9 2.75,-10.04 1.06,-3.04 2.33,-8.37 3.54,-9.16 1.11,4.51 1.14,11.63 0.79,17 -2.85,1.44 -3.43,2.11 -7.07,2.2zm18.89 7.06c-0.17,-0.36 -0.32,0.43 -0.51,-1.66 -0.12,-1.27 -0,-1.26 0.2,-2.33l3.74 -0.59c1.09,-0.19 0.65,-0.06 1.14,-1.18 -1.22,-2.79 -4.61,-2.3 -5.54,-4.93 -0.71,-1.99 -0.29,-9.24 -0.23,-11.93 0.15,-8.18 0.68,-14.63 1.81,-21.95 1.15,-7.46 4.41,-14.88 -1.95,-16.78 -5.88,-1.75 -7.7,4.02 -10.72,9.84 -4.84,9.34 -9.78,19.74 -14.17,30 -4.64,10.83 -3.05,12.19 -9.39,24.15 -1.36,2.57 -2.87,7.35 -0.93,9.15 2.13,1.11 4.65,-1.14 6.64,-1.84 4.57,-1.61 2.94,-0.62 6.07,-3.74 2.13,-2.13 9.79,-6.07 13.02,-6.12 1.92,3.22 3.06,22.17 15.59,20.05 0.42,-4.34 -4.16,-9.05 -4.76,-20.15z"/>
   <path class="fil2" d="M177.33 27.5c3.02,-2.7 18.92,-6.65 22.75,-2.92 -0.16,4.06 -8.13,11.26 -10.61,13.74 -1.96,1.96 -10.56,10.6 -12.81,10.77 0.7,-3.47 2.34,-7.77 3.32,-11.23 2.41,-8.56 -2.09,-5.71 -2.64,-10.36zm-10.56 5.01c1.55,-2.16 1.74,-1.59 2.85,-1.17 0.17,1.02 0.6,0.95 -0.37,2.46l-3.87 15.59c-3.19,15.07 -1.9,8.83 -5.45,13.6 -2.36,3.17 1.44,3.81 2.51,15.31 0.56,6.02 3.24,10.52 8.07,10.38 1.39,-4.12 0.91,-17.75 2.4,-22.48 1,-3.17 52.67,-35.66 29.1,-48.74 -9.56,-5.31 -36.61,-1.32 -41.21,5.31 -1.89,2.72 -1.79,7.1 -0.48,10.35 3.33,0.81 3.83,-0.4 6.44,-0.61z"/>
   <path class="fil3" d="M78.74 58.64c-0.49,-2.93 2.98,-10.8 4.38,-14.67 1.44,-3.99 1.17,-3.27 2.28,-3.56 0.93,4.59 2.57,22.2 -6.65,18.23zm21.89 2.22c-0.2,-3.04 -1.28,-2.81 -3.12,-4 -1.83,-1.19 -1.53,-2.4 -1.63,-5.69 -0.68,-22.72 3.92,-36.16 3.47,-42.87 -2.32,-1.95 -6.98,-2.98 -9.43,-0.14 -1.42,1.64 -3.66,6.38 -4.91,8.74 -5.72,10.84 -12.93,26.02 -16.84,38.67 -1.25,4.02 -2.26,6.91 -3.88,10.09 -1.19,2.32 -4.24,6.6 -2.82,10.54 4.14,4.35 17.97,-10.53 25.1,-10.31 1.06,2.15 1.51,4.95 2.18,7.35 1.85,6.66 5.9,12.83 12.73,12.35 -0.12,-8.14 -5.89,-15.42 -4.22,-23.6 1.53,-0.36 2.24,-0.23 3.37,-1.12z"/>
   <path class="fil1" d="M471.36 33.84c2.39,-1.49 5.38,-7.14 6.74,-11.44 1.28,-4.05 0.45,-4.99 -1.59,-6.81 -1.28,-1.15 -3.27,-3.22 -4.69,-3.9 -8.29,-3.96 -33.11,19.39 -27.68,40.83 1.31,5.19 3.97,9.14 6.73,11.35 4.23,3.39 8.74,1.13 13.29,0.92 -0.46,4.08 -4.54,7.13 -6.63,9.15 -12.34,11.96 -9.94,-1.25 -11.51,-5.48 -1.38,0.44 -1.14,0.25 -1.82,2.37 -2.47,7.72 -1.14,14.74 5.78,17.33 6.72,2.52 14,-5.19 17.48,-9.04 3.03,-3.34 10.2,-14.23 4.3,-21.37 -4.67,-5.66 -15.79,-1.26 -21.6,-4.06 -0.4,-6.3 5.75,-13.78 7.87,-16.37 2.09,-2.56 8.88,-10.1 11.04,-11.65 0.86,1.41 0.77,5.73 2.28,8.17z"/>
   <path class="fil3" d="M34.34 12.36l0.92 6.58c1.19,1.07 0.42,0.86 1.54,2.23 5.91,-0.89 14.91,-6.59 16.84,-5.37 0.25,1.42 0.09,2.98 0.29,4.67 0.23,1.94 0.5,1.71 0.68,3.53l3.75 0.47c0.27,2.99 -2.24,4.73 -3.84,6.04 -1.78,1.45 -3.17,3.08 -5.17,4.14 1.1,0.38 0.19,-0.67 0.77,0.65 -0.81,4.45 -1.09,6.64 -1.07,11.56 3.08,-0.16 5.75,-0.65 8.67,0.65 -0.61,2.83 -3.51,5.39 -5.34,7.2 -2.71,2.68 -4.02,2.93 -7.44,4.55l2.03 -0.53c0.01,5.11 -0.45,11.23 1.44,15.11 1.35,2.76 4.96,5.93 8.48,5.92 0.5,-6.31 -0.32,-11.53 0.58,-18.12 0.76,-5.54 1.59,-10.61 2.65,-15.91 1.02,-5.13 2.06,-10.09 3.05,-15.31 0.75,-3.95 1.71,-13 2.62,-15.91 3.94,-1.04 17.32,0.14 18.96,-3.13 6.5,-12.95 -32.8,-6 -33.91,-5.81 -3.13,0.53 -6.11,1.28 -9.05,2.16 -2.57,0.77 -6.61,1.17 -7.44,4.62z"/>
   <path class="fil3" d="M279.85 79.91c-0.46,-9.63 1.81,-17.79 3.35,-26.34 0.41,-2.29 1.63,-11.1 2.11,-12.53 1.02,-3 6.87,-3.1 8.46,-0.87 3.15,4.4 -1.42,19.81 -2.95,24.08 -1.79,4.97 -6.93,15.4 -10.97,15.67zm-3.42 -29.71c-0.23,7.99 -8.58,29.47 2.45,36.06 10.82,6.46 23.8,-30.74 21.14,-41.66 -1.26,-5.18 -4.98,-10.76 -8.88,-12.2 -8.76,-3.22 -23.3,6.46 -19.65,18.53l4.93 -0.74z"/>
   <path class="fil3" d="M325.13 39.79l-0.79 -5.67c-1.56,1.2 -3.51,1.08 -5.68,1.66 -2.95,0.78 -12.88,6.1 -15.08,7.82 -0.64,6.97 1.82,8.35 -3.28,18.62 -2.43,4.89 -1.23,31.49 13.76,20.56 3.01,-2.2 7.98,-7.38 7.45,-14.03 -5.04,-0.99 -10.52,9.14 -15,8.57 -2.32,-4.45 0.28,-10.25 3.13,-12.21 1.51,-1.04 3.11,-1.89 4.72,-2.84 2.03,-1.19 3.21,-1.9 2.78,-5.5l-7.03 -0.21c-0.65,-5.17 2.53,-9.84 4.81,-11.51 1.38,-1.01 8.23,-4.84 10.22,-5.27z"/>
   <path class="fil0" d="M342.89 66.48c0.33,-7.87 4.79,-23.89 6.9,-32.19 0.86,-3.38 1.39,-7.68 4.89,-6.52 3.5,8.2 -8.09,36.53 -11.79,38.72zm2.8 -38.33c-0.55,2.93 1.32,2.34 -0.04,7.18l-4.66 17.15c-1.14,4.85 -4.47,21.46 -3.34,26.2 8.81,2.76 25.01,-33.51 21.94,-48.33 -1.47,-7.1 -10.06,-5.23 -13.91,-2.21z"/>
   <path class="fil0" d="M287.74 55.88l-0.99 1.82c-0.03,-0.08 -0.54,0.23 -0.21,-1.55 0.43,-2.28 0.32,-0.91 0.66,-1.45 0.27,-2.91 1.25,-8.72 2.62,-10.17 -0.19,4.29 -1.48,8.04 -2.09,11.35zm-7.89 24.03c4.04,-0.27 9.18,-10.7 10.97,-15.67 1.53,-4.27 6.1,-19.67 2.95,-24.08 -1.59,-2.23 -7.45,-2.13 -8.46,0.87 -0.49,1.43 -1.7,10.24 -2.11,12.53 -1.54,8.55 -3.81,16.72 -3.35,26.34z"/>
   <path class="fil0" d="M185.82 35.6c-0.31,-1.84 -0.32,-3.43 1.19,-4.19l3.26 -0.38c1.34,0.32 0.6,0.12 1.25,0.69 -0.26,1.45 0.41,0.98 -2.21,2.77 -1.79,1.22 -2.11,1.78 -3.49,1.1zm-8.5 -8.11c0.56,4.65 5.05,1.8 2.64,10.36 -0.97,3.46 -2.61,7.76 -3.32,11.23 2.25,-0.18 10.85,-8.81 12.81,-10.77 2.48,-2.48 10.45,-9.68 10.61,-13.74 -3.83,-3.73 -19.73,0.22 -22.75,2.92z"/>
   <path class="fil0" d="M35.27 18.95l0.26 8.17c3.1,0.67 14.45,-2.94 19.08,-3.11 -0.18,-1.82 -0.45,-1.6 -0.68,-3.53 -0.2,-1.69 -0.04,-3.25 -0.29,-4.67 -1.92,-1.22 -10.93,4.48 -16.84,5.37 -1.12,-1.37 -0.35,-1.16 -1.54,-2.23z"/>
   <path class="fil0" d="M49.05 46.87c-0.01,-4.92 0.26,-7.11 1.07,-11.56 -0.58,-1.32 0.33,-0.27 -0.77,-0.65 -2.26,2.27 -9.28,4.1 -12.59,5.13 -0.17,3 -0.19,6.84 0.8,9.34 1.6,0.25 9.78,-1.59 11.48,-2.26z"/>
   <path class="fil0" d="M78.74 58.64c9.23,3.97 7.58,-13.64 6.65,-18.23 -1.1,0.29 -0.84,-0.43 -2.28,3.56 -1.4,3.87 -4.86,11.74 -4.38,14.67z"/>
   <path class="fil4" d="M206.41 68.75c3.63,-0.09 4.22,-0.76 7.07,-2.2 0.35,-5.37 0.32,-12.49 -0.79,-17 -1.2,0.8 -2.47,6.12 -3.54,9.16 -1.09,3.14 -2.67,5.99 -2.75,10.04z"/>
   <path class="fil4" d="M140.24 58.18c2,0.6 3.94,0.31 4.79,-1.57 0.57,-1.44 0.51,-8.69 0.04,-10.53 -1.36,0.66 -1.44,2.52 -2.59,5.68 -0.77,2.11 -2.25,4.49 -2.23,6.41z"/>
   <path class="fil4" d="M26.57 47.06c-0.1,3.71 0.18,5.51 0.73,6.87l3.66 -1.77c-0.1,-1.92 -0.41,-7.87 -1.49,-8.61 -1.68,1.02 -1.26,0.91 -3.05,1.32l0.14 2.19z"/>
   <path class="fil5" d="M380.44 74.83l-3.83 1.05 0.38 -7.17c-1.14,0.71 -0.95,5.8 -0.53,7.34 1.53,0.34 3.01,0.17 3.98,-1.23z"/>
   <path class="fil6" d="M225.3 75.81l-0.14 -3.77c0.49,0.05 1.59,0.26 1.97,0.21 1.63,-0.24 1,-0.23 1.59,-1.01l-3.74 0.59c-0.2,1.07 -0.32,1.06 -0.2,2.33 0.19,2.08 0.34,1.29 0.51,1.66z"/>
   <path class="fil7" d="M26.57 47.06l-0.14 -2.19c1.8,-0.41 1.37,-0.3 3.05,-1.32 -1.39,0.24 -2.29,0.3 -3.37,1.47l0.46 2.04z"/>
   <path class="fil8" d="M65.87 52.29c-0.7,0 -0.47,0.21 -0.57,-0.83 -0.32,0.59 -0.57,-1.01 -0.34,1.62l0.91 -0.79z"/>
  </g>
 </g>
</svg>
