<?xml version="1.0" encoding="UTF-8"?>
<!DOCTYPE svg PUBLIC "-//W3C//DTD SVG 1.1//EN" "http://www.w3.org/Graphics/SVG/1.1/DTD/svg11.dtd">
<!-- Creator: CorelDRAW -->
<svg xmlns="http://www.w3.org/2000/svg" xml:space="preserve" width="77.2017mm" height="11.3301mm" version="1.1" style="shape-rendering:geometricPrecision; text-rendering:geometricPrecision; image-rendering:optimizeQuality; fill-rule:evenodd; clip-rule:evenodd"
viewBox="0 0 550.52 80.79"
 xmlns:xlink="http://www.w3.org/1999/xlink"
 xmlns:xodm="http://www.corel.com/coreldraw/odm/2003">
 <defs>
  <style type="text/css">
   <![CDATA[
    .fil0 {fill:black}
    .fil3 {fill:#141414}
    .fil4 {fill:#1A1A1A}
    .fil5 {fill:#1D1D1D}
    .fil7 {fill:#2B2323}
    .fil6 {fill:#371E22}
    .fil9 {fill:#7B7F80}
    .fil10 {fill:#939595}
    .fil1 {fill:#ED1E22}
    .fil8 {fill:#FCFCFC}
    .fil2 {fill:#FEFEFE}
   ]]>
  </style>
 </defs>
 <g id="Camada_x0020_1">
  <metadata id="CorelCorpID_0Corel-Layer"/>
  <g id="_2028518586768">
   <path class="fil0" d="M286.15 45.4l-0.28 2.62c-1.2,-0.62 -0.68,0.89 -1.2,-1.63 -0.1,-0.51 -0.16,-1.53 -0.21,-2.05 -0.55,-2.69 -2.59,-4.03 -2.84,-5.98l5.77 0.11 -1.24 6.93zm70.84 6.26c0.43,2.1 -0.36,5.11 -0.74,7.23 -0.35,1.95 -1.31,6.9 2.19,4.76 2.48,-1.52 3.13,-9.82 1.15,-12.54 -4.95,-6.8 -11.97,-7.89 -9.43,-21.89 1.64,-9.04 4.91,-16.3 15.61,-16.6 15.28,-0.43 11.92,10.68 10.55,19.14l-10.96 -0.14c-0.42,-3 1.31,-5.78 0.26,-8.43 -4.23,-1.1 -4.59,7.34 -3.07,9.68 4.9,7.55 11.12,6.2 10.39,19.47 -0.25,4.62 -1.25,8.63 -2.56,12.4 -4.13,11.95 -25.31,13.35 -25.75,-0.02 -0.12,-3.66 0.78,-9.98 1.74,-12.95l10.6 -0.12zm123.38 21.32c-0.1,-2.16 4.56,-25.5 5.37,-29.79 1.85,-9.73 3.52,-19.9 5.68,-29.33 4.66,-0.17 10.65,-0.14 15.29,0.21 5.82,0.43 7.9,0.65 9.01,6.29 0.97,4.87 -1.03,15.48 -3.47,18.81 -1.3,1.77 -2.43,1.88 -4.09,2.55l0.54 1.35c6.6,5.71 -1.07,16.14 -0.13,24.55 1.08,-1.84 3.29,-11.01 4.17,-13.98 1.31,-4.44 2.69,-9.17 4,-13.71l6.05 -20.75c1.55,-5.44 0.79,-5.29 3.46,-5.29l15.29 0.04c0.32,4.44 -0.51,10.75 -0.82,15.29l-3.3 43.82 -11.83 -0.22c-0.05,-0.12 -0.08,-0.27 -0.1,-0.37l-0.17 -1.16c-0.01,-0.25 0.06,-0.94 0.08,-1.21 0.09,-0.85 0.24,-1.67 0.36,-2.54 0.22,-1.62 0.71,-3.44 0.24,-5.17l-3.6 0.13c-1.47,2.67 -1.95,9.32 -3.09,10.16 -2.13,0.83 -19.48,0.42 -23.27,0.35 0.11,-3.22 2.9,-16.43 3.8,-21.48 0.51,-2.85 1.61,-5.21 -2.37,-4.92 -2.24,7.44 -3.38,18.29 -5.02,26.38l-12.07 -0.02zm-101.29 -0.14c0.03,-2.4 15.62,-55.53 17.23,-58.8 3.14,-0.64 13.27,-0.22 17.02,-0.11 0.45,9.53 -4.37,48.8 -3.76,55.68 1.48,-2.62 9.23,-52.55 11.07,-55.85l11.87 0.14 -8.63 47.2 6.55 0.06c0.22,1.56 -1.28,10.5 -2.27,11.51 -1.78,0.87 -27.38,0.5 -31.36,0.23 0.05,-3.49 1.18,-6.32 0.8,-10.39l-3.7 -0.09 -2.66 10.54 -12.14 -0.11zm-70.63 -35.24c0.81,-0.77 0.85,-1.52 1.06,-2.75 0.93,-5.33 2.81,-17.28 4.12,-21.13l9.53 0.03c1.1,3.6 -9.29,46.13 -9.81,54.74 0.32,-0.43 0.08,0.02 0.49,-0.84l7.8 -26.47c1.14,-3.91 6.97,-25.38 8.26,-27.36l17 0.07c0.18,3.12 -3.48,58.42 -4.48,58.76l-11.79 0.32c-0.18,-3.46 1.35,-7.45 0.84,-10.6 -6.97,-0.71 -2.94,2.11 -6.53,10.55 -0.63,0.07 -22.26,0.63 -23.1,-0.44 -1.03,-2.49 -0.59,-18.5 -1.2,-23.11 -0.26,0.33 -0.25,0.26 -0.52,0.84 -0.05,0.12 -0.2,0.49 -0.24,0.62 -0.11,0.33 -0.22,0.97 -0.29,1.34 -0.22,1.11 -0.37,1.92 -0.58,3.04l-3.4 17.83 -9.72 -0.2c-0.42,-3.23 9.32,-50.5 10.59,-58.87l8.29 -0.11c0.77,0.06 1.73,0.13 2.08,0.63 1.35,4.09 0.19,20.17 1.61,23.13zm130.52 -11.87c-1.3,0.04 -4.35,0.27 -5.49,0.02 -1.63,-0.37 -1.12,-1.24 -0.79,-3.02 0.51,-2.75 0.91,-6.28 1.55,-8.76 9.43,-0.41 28.67,-0.14 38.97,-0.06 -0.11,8.22 -10.24,46.38 -8.4,49.9 2.01,0.24 2.11,-0.04 3.2,-4.5 0.53,-2.15 0.88,-4.34 1.3,-6.55 0.81,-4.29 1.61,-8.62 2.42,-12.88 0.92,-4.85 3.82,-22.81 5.23,-25.69 2.71,-0.93 8.59,-0.29 11.94,-0.29 -0.18,4.38 -2.39,12.97 -3.27,17.66 -1.22,6.51 -5.01,29.13 -7.45,33.76 -6.56,12.43 -22.43,10.72 -25.12,2.05 -2.7,-8.68 8.8,-49.26 7.6,-51.6 -1.09,2.37 -1.13,8.01 -2.48,10.11l-6.79 0.08 -9.05 46.98 -11.93 0.08c-0.04,-3.52 7.89,-39.34 8.56,-47.28zm-158.43 5.81c-2.59,0.3 -8.85,0.54 -10.93,-0.12 -1.06,-2.18 1.31,-4.99 0.28,-8.57 -3.23,-0.39 -3.59,1.68 -4.07,4.52 -1.47,8.72 5.61,7.68 10.03,16.32 2.65,5.17 0.31,20.54 -3.72,25.1l-2.07 2.27 0.32 0.48c-1.83,0.96 -3.74,2.81 -6.15,3.33 -2.25,0.49 -6.97,0.5 -9.17,-0.17 -2.86,-0.87 -3.81,-2.28 -5.33,-4.03 -2.32,-2.66 -1.96,-0.67 -2.62,-4.76l-0.51 -1.72c-1.29,1.15 -1.09,1.89 -1.88,3.63 -1.16,2.54 -1.29,1.01 -2.66,2.58l-0.18 -0.68c-0.69,0.36 -0.29,-0.01 -1.13,0.7 -0.83,0.7 -0.37,0.28 -0.87,1.03l0.9 0.14c-3.86,2.22 -7.14,4.81 -13.52,3.43 -5.48,-1.18 -6.78,-3.04 -9.12,-7.52 -0.5,0.66 -0.29,2.1 -0.73,3.44 -0.32,0.97 -0.92,2.37 -1.38,3.11 -4.64,0.86 -16.81,0.41 -22.12,0.03 -1.32,-3.63 0.65,-7.91 0.12,-10.83 -1.8,1.95 -2.05,8.39 -10.26,9.41 -2.95,0.37 -17.4,0.69 -19.37,-0.14l0.18 -2.06c-0.74,0.73 -0.4,0.21 -0.96,1.3 -0.15,0.3 -0.26,0.95 -0.33,1.25 -0.51,-4.68 2.88,-17.7 4.1,-23.13 0.57,-2.54 0.59,-5.58 1.14,-8.17 0.27,-1.31 0.81,-1.73 1.18,-3.16 1.24,-4.78 3.16,-24.25 5.64,-25.65 1.43,-0.8 10.57,-0.26 13.09,-0.09 1.79,0.11 2.97,-0.22 4.57,-0.12 7.72,0.47 8.99,7.87 9.47,8.55 2.87,-3.23 -1.43,-9.02 7.82,-8.95l16.52 0.14c2.69,0.11 5.22,-0.47 8.27,-0.29 2.38,0.14 5.15,1.28 7.21,0.83 6.34,-1.37 3.6,0.45 6.68,0.07 1.24,-0.15 1.91,-1.39 6.71,-0.04 0.04,0.09 0.03,0.23 0.03,0.29 0.01,0.05 0.02,0.21 0.03,0.28 0.01,0.06 0.02,0.2 0.03,0.27 0.01,0.07 0.02,0.19 0.03,0.27l0.18 0.85c0.55,2.76 -0.02,2 -0.13,4.17 1.34,-0.78 2.86,-3.21 4.34,-4.35 1.65,-1.28 3.71,-2.28 6,-3.03 2.17,-0.71 5.7,-0.61 8.02,-0.21 2.2,0.38 3.95,1.92 5.65,2.98 3.74,2.32 3.52,9.22 2.25,13.97 -0.96,3.61 -0.39,4.37 -4.56,4.56 -2.95,0.14 -5.6,-0.55 -7.94,-0.52 1.95,0 3.9,-0.01 5.85,0 6.98,0.06 4.57,0.26 5.08,-0.99zm-245.54 -23.14c-1.01,1.37 0.31,0.45 -1.17,0.51 -0.41,0.02 -1.43,-0.67 -3.79,-0.85 -7.23,-0.56 -13.08,0.79 -17.54,6.52 -1.53,1.97 -5.86,10.66 -4.32,13.39l2.32 -5.04c1.34,-3.61 3.62,-6.29 6.59,-8.3 5.98,-4.07 10.52,-4.27 17.41,-1.46 2.67,1.09 4.53,5.26 5.41,7.84l0.45 1.17c3.76,-5.7 -3.38,-10.43 10.31,-9.51 2.13,0.14 4.12,-0.07 5.48,0.81 1.68,1.92 -7.09,38.55 -7.41,45.7 1.06,-0.64 0.63,-1.02 1.88,-1.57 1.85,-0.81 -0.08,0.05 1.75,-0.2 0.07,-0.01 0.22,-0.05 0.28,-0.06 0.05,-0.01 0.23,0.01 0.27,-0.09 0.04,-0.1 0.19,-0.05 0.26,-0.11 0.57,-2.4 0.64,-7.51 1.26,-9.31 0.92,-2.65 1.63,-4.89 2.22,-8.09 1.09,-5.93 2.26,-16.29 5.93,-20.46 4.5,-5.11 1.13,-2.76 8.68,-7.01 2.85,-1.6 1.52,-7.01 9.11,-7.08 3.29,-0.03 3.04,0.61 3.89,0.97 -0.2,1.05 -1.23,1.59 -2.28,2.41 -0.59,0.46 -0.89,0.62 -1.39,1.09 -0.79,0.74 -0.58,0.56 -1.02,1.23 2.66,0.5 -1.14,-0.23 1.27,1.04 0.65,0.34 1.4,0.41 2.09,0.68 5.67,2.26 6.07,9.76 6.51,11.3 0.25,-0.36 -0.01,0.4 0.39,-0.87l2.39 -9.94c2.47,-0.6 16.31,-0.76 18.91,-0.21 1.01,0.22 2.46,1 3.51,1.48 4.82,2.19 3.04,7.62 4.5,10.2 1.34,-2.2 1.15,-9.91 3.09,-11.21 2.09,-1.39 11.16,-0.82 13.06,0.13 1,2.21 -3.69,20.66 -3.91,25.41 0.94,-0.8 1.08,-1.23 1.51,-2.5 0.29,-0.85 0.53,-1.64 0.79,-2.51l4.48 -15.29c1.55,-5.48 0.13,-6.63 7.36,-6.49 2.68,0.05 10.9,-0.05 12.39,1.02 -2.57,0.01 -5.86,0 -8.68,0 -2.31,0 -5.89,-0.41 -7.86,0.35l-0.8 0.49 17.64 -0.06 -4.48 58.46c-0.28,0.55 -2.31,0.59 -2.82,0.59l-9.24 -0.15 -0.1 -1.5c-0.84,0.99 -0.75,-1.45 -0.79,1.62 -1.1,-2.82 1.57,-5.74 -0.62,-8.9 -1.81,0.95 -1.86,5.27 -2.71,7.39 -1.39,3.47 -3.16,3.27 -7.19,3.36 -5.61,0.12 -17.59,-1.08 -18.95,-1.03l22.27 0.07c3.28,-0.11 2.41,-0.63 2.59,-1.06l-24.78 0.05 0.24 -2.36 -1.18 2.86c-2.12,0.18 -0.65,0.43 -1.53,-0.56l-11.44 0.06c0.38,0.54 -0.02,0.93 2.63,1.01l8.5 -0.07c-4.71,0.69 -9.5,-0.26 -13.81,-0 -2.53,0.15 -3.25,0.73 -6.63,0.54 -2.31,-0.13 -4.61,0.08 -6.72,-0.47 -0.65,-1.37 -0.86,-1.83 0.02,-3.36 -0.53,2.83 0.22,2.32 0.62,2.65l0.24 -3.89c-1.76,1.62 -0.59,1.76 -0.5,-4.84 -2.47,1.46 -1.65,3.08 -3.33,4.67 -3.88,3.66 -10.21,7.38 -15.99,5.63 1.71,0.31 4.29,0.86 5.1,-0.76 -2.77,0.2 -4.04,0.26 -6.61,-0.47 -0.32,0.33 -0.49,0.47 -1.07,0.91 -1.95,1.47 -4.78,0.88 -7.81,0.43 -3.04,-0.46 -6.22,0.1 -9.32,0.14 -1.72,0.03 -3.3,0.15 -4.97,0.21 -2.5,0.09 -2.5,-0.48 -4.54,-0.63 -5.5,-0.41 -13.23,-0.06 -18.57,0.43 -14.27,1.3 -10.73,-14 -12.34,-17.17 -2.73,2.58 -1.19,11.13 2.03,16 1.53,2.32 2.81,3.03 6.06,4.26 7.49,2.83 8.73,1.02 12.98,0.31 2.38,-0.39 12.78,-0.14 15.21,0.01l15.68 -0.28c5.66,-0.16 3.71,-0.4 4.28,0.63l-28.62 0c-4.82,0 -7.4,-0.69 -9.07,1.18 10,-1.72 26.8,-0.05 36.33,-0.5 2.85,-0.14 1.31,-0.76 2.79,-0.77 0.08,0 4.88,1.59 6.14,1.82 6.17,1.13 8.51,-1.15 13.31,-2.53 0.62,0.83 0.52,1.19 1.65,1.46 3.22,0.37 62.56,-0.17 77.15,0.01 3.92,0.05 1.94,0.15 4.11,-1.2 1.36,1.78 2.06,1.11 6.6,1.11l19.36 -0.12c1.02,-0.1 2.32,-0.57 3.3,-0.51l0.76 -0.92c0.68,0.66 0.29,-0.46 0.82,1.37l28.56 0.18c1.68,-0.28 0.09,-0.74 2.15,-1.38 5.06,3.01 13.25,3.79 19.5,0.56 2.22,-1.15 3.21,-2.54 4.75,-3.44 2.67,1.31 0.85,1.36 7.56,3.98 8.48,3.3 18.8,0.96 23.47,-5.55 0.32,-0.45 0.34,-0.6 0.69,-0.99 1.01,-1.16 0.01,-0.27 1.01,-0.91l-1.09 6.4c2.52,0.27 2.32,-0.4 3.99,0.6 0.63,0.37 0.21,0.37 1.11,0.62 0.89,0.25 4.94,0.1 6.15,0.1l61.65 0c8.92,2.61 12.22,1.35 19.61,-2.92 0.25,0.52 0.13,0.43 0.29,0.77 0.04,0.08 0.11,0.23 0.15,0.31 0.05,0.09 0.14,0.25 0.19,0.33 0.04,0.09 0.12,0.24 0.2,0.35 2.98,-0.42 2.24,-0.61 3.71,1.21l72.81 -0.02 1.03 -5.71c2.46,1 2.26,3.39 11.9,6.34 6.31,1.94 9.92,0 14.82,-1.59l0.85 -0.77 0.58 1.65 66.29 0.02 5.3 -70.07 -3.24 -0.07c-0.08,-0.07 -0.18,-0.34 -0.22,-0.26 -0.42,0.81 -0.41,-0.46 -0.44,-0.5 -0.77,-0.68 0.83,-0.03 -0.99,-0.64l-24.34 0.01 -1.05 4.15c-13.68,-5.6 -12.59,-4.15 -28.65,-4.21l-65.58 0.01c-10.58,0.02 -22.58,-0.51 -32.98,0.1l-8.04 27.62c-0.19,0.86 -0.43,1.7 -0.65,2.45 -0.04,0.15 -0.36,1.16 -0.4,1.24 -0.37,0.75 -0.17,0.32 -0.61,0.76 0.02,2.31 -1.16,4.77 -1.71,6.83 -1.26,-1.38 -0.98,-2.33 -1.81,-4.26 -0.65,-1.52 -1.41,-2.29 -1.79,-3.41 -0.66,-0.49 -0.59,0.63 -0.55,-0.71l5.64 -0.13c0.27,-0.58 0.43,-1.22 0.62,-2.11 0.08,-0.35 0.11,-0.71 0.24,-1.05 0.28,-0.8 0.19,-0.43 0.55,-0.87 -0.52,-5.05 5.39,-17.54 -4.87,-23.76 -2.72,-1.65 -8.14,-3.52 -11.85,-3.76 -6.98,-0.45 -9.5,2.56 -13.16,2.54 -4.55,-0.02 0.21,-1.51 -6.58,-1.44 -15.81,0.17 -41.88,-0.75 -54.83,0.08l-2.17 11.91c-0.11,1.93 -0.28,3.49 -1.14,4.95l-0.63 -6.15c-0.41,-9.51 -16.55,-13.75 -24.96,-11.16 -3.39,1.04 -0.84,1.21 -4.19,0.48 -2.07,-0.45 -52.89,-0.21 -57.8,-0.12l-0.55 2.63c-4.23,-0.58 -3.91,-2.53 -13.77,-2.65 -4.32,-0.05 -12.03,-0.41 -16,0.15l-7.62 40.24c-0.9,-7.29 3.07,-33.1 2.19,-38.69 -1.39,-0.59 -1.32,-0.06 -2.46,-0.4 -1.71,-0.49 -0.71,-1.08 -2.11,-1.31l-43.01 -0 -0.52 2.58c-3.8,-0.93 -5.38,-2.11 -9.75,-2.48 -4.06,-0.34 -8.29,0.2 -12.16,-0.2 0.65,-2.48 5.55,-3.82 6.34,-6.29l-4 -0.01 -0.41 -1.32 -23.78 0.08c-1.23,1.35 -2.79,3.99 -3.89,5.62 -2.23,3.28 -2.3,2.34 -5.14,4.29 -2.02,-0.47 2.1,-0.5 -3.89,-0.85 -1.08,-1.26 -0.26,-0.91 -1.65,-1.4l-19.39 -0c-0.87,0.23 -0.81,1.53 -1.24,2.27l-4.51 -1.6z"/>
   <path class="fil1" d="M329.95 51.51c-0.35,-1.84 3.89,-16.03 4.9,-18.62 0.6,0.6 0.36,-0.05 0.59,1.32 0.04,0.22 -0.03,1.3 -0.06,1.57l-1.06 8.64c-0.81,6.68 -0.13,8.48 -4.37,7.1zm-21.5 -13.91c-1.42,-2.96 -0.26,-19.04 -1.61,-23.13 -0.34,-0.5 -1.3,-0.58 -2.08,-0.63l-8.29 0.11c-1.28,8.38 -11.02,55.64 -10.59,58.87l9.72 0.2 3.4 -17.83c0.21,-1.12 0.36,-1.93 0.58,-3.04 0.07,-0.36 0.19,-1.01 0.29,-1.34 0.04,-0.13 0.19,-0.5 0.24,-0.62 0.27,-0.58 0.26,-0.51 0.52,-0.84 0.61,4.61 0.17,20.63 1.2,23.11 0.84,1.07 22.47,0.51 23.1,0.44 3.6,-8.44 -0.43,-11.26 6.53,-10.55 0.51,3.15 -1.03,7.14 -0.84,10.6l11.79 -0.32c1,-0.34 4.66,-55.63 4.48,-58.76l-17 -0.07c-1.28,1.98 -7.12,23.45 -8.26,27.36l-7.8 26.47c-0.41,0.86 -0.17,0.41 -0.49,0.84 0.53,-8.61 10.91,-51.15 9.81,-54.74l-9.53 -0.03c-1.31,3.85 -3.19,15.8 -4.12,21.13 -0.22,1.23 -0.25,1.98 -1.06,2.75z"/>
   <path class="fil1" d="M524.79 51.68c-0.73,-2.01 1.81,-8.96 2.4,-11.1 0.76,-2.74 1.99,-8.53 3.12,-10.42 0.12,3.01 -1.7,19.29 -2.6,21.67l-2.91 -0.15zm-25.54 -14.81c0.2,-2.16 1.93,-11.47 2.8,-12.82 1.26,-0.04 1.48,0.28 2.24,0.72 0.39,2.34 -0.3,5.58 -0.87,7.63 -0.89,3.2 -0.52,4.28 -4.17,4.48zm-18.88 36.11l12.07 0.02c1.64,-8.09 2.78,-18.94 5.02,-26.38 3.98,-0.3 2.88,2.07 2.37,4.92 -0.9,5.05 -3.69,18.26 -3.8,21.48 3.8,0.07 21.14,0.48 23.27,-0.35 1.14,-0.83 1.62,-7.49 3.09,-10.16l3.6 -0.13c0.48,1.73 -0.01,3.55 -0.24,5.17 -0.12,0.86 -0.27,1.69 -0.36,2.54 -0.03,0.27 -0.09,0.96 -0.08,1.21l0.17 1.16c0.02,0.1 0.05,0.25 0.1,0.37l11.83 0.22 3.3 -43.82c0.32,-4.54 1.14,-10.86 0.82,-15.29l-15.29 -0.04c-2.67,0 -1.91,-0.15 -3.46,5.29l-6.05 20.75c-1.31,4.54 -2.69,9.27 -4,13.71 -0.88,2.97 -3.09,12.14 -4.17,13.98 -0.93,-8.41 6.74,-18.84 0.13,-24.55l-0.54 -1.35c1.66,-0.67 2.78,-0.77 4.09,-2.55 2.45,-3.33 4.44,-13.94 3.47,-18.81 -1.12,-5.64 -3.2,-5.86 -9.01,-6.29 -4.64,-0.35 -10.63,-0.38 -15.29,-0.21 -2.16,9.43 -3.83,19.59 -5.68,29.33 -0.82,4.29 -5.48,27.63 -5.37,29.79z"/>
   <path class="fil1" d="M438.97 25.73c-0.66,7.94 -8.6,43.77 -8.56,47.28l11.93 -0.08 9.05 -46.98 6.79 -0.08c1.34,-2.1 1.38,-7.74 2.48,-10.11 1.19,2.34 -10.3,42.92 -7.6,51.6 2.7,8.67 18.56,10.37 25.12,-2.05 2.44,-4.63 6.23,-27.25 7.45,-33.76 0.88,-4.69 3.09,-13.28 3.27,-17.66 -3.35,0 -9.24,-0.64 -11.94,0.29 -1.41,2.88 -4.31,20.84 -5.23,25.69 -0.81,4.26 -1.61,8.58 -2.42,12.88 -0.42,2.21 -0.77,4.39 -1.3,6.55 -1.09,4.46 -1.19,4.74 -3.2,4.5 -1.83,-3.51 8.29,-41.67 8.4,-49.9 -10.3,-0.08 -29.54,-0.35 -38.97,0.06 -0.64,2.48 -1.05,6.01 -1.55,8.76 -0.33,1.79 -0.84,2.66 0.79,3.02 1.14,0.26 4.19,0.02 5.49,-0.02z"/>
   <path class="fil2" d="M68.38 63.83c-3.02,0.44 -3.07,-0.71 -2.57,-3.33 0.37,-1.97 0.7,-3.5 1.09,-5.6 0.82,-4.41 5.24,-30.36 6.86,-32.28l2.21 0.31c0.8,2.46 -6.52,38.84 -7.59,40.91zm-15.47 1.21c0.05,-0.44 0.02,-0.93 0.25,-1.51 0.6,-1.51 0.07,-0.38 0.9,-0.85l0.34 2.61c0.16,3.99 3.32,7.44 6.62,8.19 2.57,0.72 3.83,0.66 6.61,0.47 12.22,-2.72 13.32,-11.19 15.95,-24.6 1.11,-5.67 2.14,-11.42 3.24,-17.03 1.16,-5.93 2.24,-12.81 -1.86,-16.76 -5.42,-5.22 -20,-4.67 -24.38,10.76 -3.04,10.71 -4.56,23.56 -6.63,34.71l-7.08 0.11 8.82 -47.14c-2.68,-0.18 -10.12,-0.45 -12.22,0.21l-11.04 58.69 19.04 0.09c0.85,-1.56 1.53,-6.15 1.44,-7.94z"/>
   <path class="fil1" d="M396.35 51.79c-0.55,-2.08 1.8,-8.76 2.42,-11.01 0.46,-1.67 2.29,-9.06 3.39,-10.4 0.14,1.9 -2.05,19.78 -2.56,21.33l-3.24 0.08zm-17.27 21.05l12.14 0.11 2.66 -10.54 3.7 0.09c0.39,4.07 -0.75,6.9 -0.8,10.39 3.98,0.27 29.59,0.64 31.36,-0.23 0.99,-1 2.49,-9.94 2.27,-11.51l-6.55 -0.06 8.63 -47.2 -11.87 -0.14c-1.84,3.3 -9.59,53.23 -11.07,55.85 -0.61,-6.88 4.21,-46.16 3.76,-55.68 -3.75,-0.11 -13.88,-0.53 -17.02,0.11 -1.61,3.28 -17.2,56.41 -17.23,58.8z"/>
   <path class="fil2" d="M140.63 51.86c0.13,-2.66 2.17,-8.93 2.94,-11.8 1,-3.72 2.33,-7.68 3.15,-11.42 0.07,0.1 0.13,0.25 0.16,0.34 0.18,0.54 0.59,-0.24 0.2,2.58l-2.54 20.26 -3.9 0.04zm-29 18.62l-0.24 2.36 24.78 -0.05 2.37 -10.46 4.22 0.03 -1.2 8.97 0.1 1.5 9.24 0.15c0.52,0 2.55,-0.03 2.82,-0.59l4.48 -58.46 -17.64 0.06c-0.33,2.89 -15.25,50.32 -15.93,55.29l-0.99 2.34c-0.51,-0.86 -0.62,-1.52 0.47,-3.01l10.51 -54.65 -12.22 -0.09 -10.79 56.61z"/>
   <path class="fil3" d="M21.74 69.29c-1.73,1.18 -2.07,2.71 -4.93,4.06 -2.1,0.98 -4.93,1.06 -7.03,0.02 -4.22,-2.1 -6.03,-6.3 -5.5,-12.38 0.81,-9.26 3.63,-20.95 5.51,-30.07 1.94,-9.41 5.76,-18.55 17.35,-18.3 12.78,0.28 12.41,11.89 9.62,23.05l-11.82 -0.11c-0.44,-3.48 2.54,-9.43 1.18,-12.7 -2.61,-0.3 -2.58,0.58 -3.18,3.01 -1.68,6.79 -7.25,34.97 -6.54,37.99 3.64,0.42 3.69,-2.41 4.38,-5.47 0.48,-2.14 1.44,-6.07 1.28,-8.11 -0.48,-0.19 -0.75,-0.19 -1.09,-0.34 -0.78,-0.32 -0.35,-0.05 -0.89,-0.49 0.33,-2.5 0.97,-6.31 1.73,-8.26l13.97 -0.06 -6.2 31.83 -7.42 -0.01 -0.42 -3.64zm13.25 -60.89c-9.95,-4.64 -18.76,0.07 -23.37,5.75 -5.27,6.49 -6.22,15.74 -8.07,25.33 -2.3,11.9 -8.4,31.81 3.89,38.29 2.7,1.42 10.1,4.16 13.5,2.15 1.67,-1.87 4.25,-1.18 9.07,-1.18l28.62 -0c-0.57,-1.03 1.38,-0.79 -4.28,-0.63l-15.68 0.28c-2.43,-0.15 -12.83,-0.4 -15.21,-0.01 -4.25,0.7 -5.49,2.52 -12.98,-0.31 -3.25,-1.23 -4.53,-1.94 -6.06,-4.26 -3.23,-4.87 -4.77,-13.42 -2.03,-16 1.61,3.17 -1.93,18.47 12.34,17.17 5.34,-0.49 13.08,-0.84 18.57,-0.43 2.04,0.15 2.04,0.72 4.54,0.63 1.67,-0.06 3.24,-0.18 4.97,-0.21 3.1,-0.05 6.28,-0.6 9.32,-0.14 3.03,0.45 5.86,1.04 7.81,-0.43 0.59,-0.44 0.75,-0.58 1.07,-0.91 -3.3,-0.75 -6.45,-4.21 -6.62,-8.19l-0.62 -1.94c-0,0.01 -0.24,0.77 -0.3,0.9 -0.38,0.81 -0.11,0.29 -0.56,0.78 0.09,1.79 -0.59,6.38 -1.44,7.94l-19.04 -0.09 11.04 -58.69c2.09,-0.66 9.54,-0.39 12.22,-0.21l-8.82 47.14 7.08 -0.11c2.07,-11.15 3.6,-24 6.63,-34.71 4.38,-15.44 18.96,-15.98 24.38,-10.76 4.1,3.95 3.02,10.83 1.86,16.76 -1.1,5.61 -2.13,11.36 -3.24,17.03 -2.63,13.41 -3.73,21.89 -15.95,24.6 -0.8,1.62 -3.38,1.06 -5.1,0.76 5.78,1.74 12.11,-1.98 15.99,-5.63 1.68,-1.58 0.86,-3.2 3.33,-4.67 -0.09,6.6 -1.26,6.46 0.5,4.84 1.42,-3.59 9.18,-52.29 10.79,-55.23 4.5,-0.5 11.02,-0.06 15.69,0.09 11.43,0.36 9.36,11.5 6.94,20.06 -2.17,7.68 -3.95,6.15 -7.28,7.86 1.81,1.74 3.87,1.79 4.26,5.43 0.28,2.6 -0.58,6.04 -1.04,8.62 -0.7,3.98 -3.01,13.65 -2.78,16.7 0.88,0.99 -0.59,0.74 1.53,0.56l1.18 -2.86 10.79 -56.61 12.22 0.09 -10.51 54.65 0.51 0.67c0.68,-4.97 15.6,-52.4 15.93,-55.29l0.8 -0.49c1.97,-0.76 5.55,-0.35 7.86,-0.35 2.82,0 6.11,0.01 8.68,-0 -1.49,-1.07 -9.72,-0.97 -12.39,-1.02 -7.23,-0.14 -5.81,1.01 -7.36,6.49l-4.48 15.29c-0.26,0.87 -0.5,1.66 -0.79,2.51 -0.44,1.26 -0.58,1.7 -1.51,2.5 0.22,-4.75 4.91,-23.2 3.91,-25.41 -1.91,-0.96 -10.98,-1.52 -13.06,-0.13 -1.94,1.29 -1.75,9.01 -3.09,11.21 -1.46,-2.57 0.32,-8 -4.5,-10.2 -1.05,-0.48 -2.5,-1.26 -3.51,-1.48 -2.6,-0.55 -16.44,-0.4 -18.91,0.21l-2.39 9.94c-0.4,1.27 -0.14,0.51 -0.39,0.87 -0.44,-1.53 -0.84,-9.04 -6.51,-11.3 -0.69,-0.28 -1.44,-0.34 -2.09,-0.68 -2.42,-1.27 1.39,-0.54 -1.27,-1.04 -2.13,0.44 -2.29,1.04 -6.07,0.83 -0.05,-1.15 2.25,-4.6 3.14,-5.17 1.35,-0.86 5.76,-0.49 7.62,-0.39 -0.85,-0.35 -0.6,-0.99 -3.89,-0.97 -7.58,0.06 -6.26,5.47 -9.11,7.08 -7.55,4.25 -4.18,1.9 -8.68,7.01 -3.67,4.17 -4.84,14.53 -5.93,20.46 -0.59,3.2 -1.3,5.45 -2.22,8.09 -0.62,1.8 -0.7,6.91 -1.26,9.31 -0.07,0.06 -0.22,0.01 -0.26,0.11 -0.04,0.1 -0.21,0.08 -0.27,0.09 -0.05,0.01 -0.21,0.05 -0.28,0.06 -1.83,0.25 0.1,-0.61 -1.75,0.2 -1.25,0.54 -0.82,0.93 -1.88,1.57 0.32,-7.16 9.09,-43.79 7.41,-45.7 -1.35,-0.88 -3.35,-0.67 -5.48,-0.81 -13.7,-0.92 -6.55,3.81 -10.31,9.51l-0.45 -1.17c-0.87,-2.59 -2.74,-6.75 -5.41,-7.84 -6.89,-2.81 -11.43,-2.61 -17.41,1.46 -2.97,2.02 -5.25,4.69 -6.59,8.3l-2.32 5.04c-1.53,-2.73 2.79,-11.42 4.32,-13.39 4.46,-5.73 10.32,-7.08 17.54,-6.52 2.36,0.18 3.39,0.87 3.79,0.85 1.48,-0.06 0.17,0.86 1.17,-0.51z"/>
   <path class="fil2" d="M178.35 62.44l7.31 -38.44c1.65,-0.14 2.22,0.46 3.04,1.18 0.17,2.82 -4.26,25.18 -5.4,30.33 -0.74,3.33 -0.99,7.62 -4.95,6.93zm-13.8 8.04l-0.18 2.06c1.97,0.82 16.42,0.51 19.37,0.14 8.21,-1.02 8.46,-7.46 10.26,-9.41 -0.01,-2.48 5.51,-29.23 6.38,-34.47 1.07,-6.42 1.2,-12.4 -4.84,-14.14 -3.38,-0.97 -15.86,-0.93 -19.97,-0.67 -0.97,2.56 -7.15,36.67 -8.27,42.47 -0.55,2.87 -1.91,12.03 -2.76,14.04z"/>
   <path class="fil2" d="M239.86 71.44c0.5,-0.75 0.04,-0.33 0.87,-1.03 0.85,-0.71 0.44,-0.34 1.13,-0.7 0.39,-1.16 0.8,-1.31 1.71,-2.65 1.84,-2.69 2.86,-6.01 3.52,-9.32 1.13,-5.71 8.12,-41.04 8.17,-43.85l-11.86 0.2c-3.3,13.65 -5.79,33.58 -8.87,45.96 -0.61,2.48 -0.54,4.46 -3.51,3.74 -0.59,-6.52 8.85,-42.73 8.64,-49.82l-11.58 0.08c-1.35,3.87 -6.21,32.12 -7.49,38.69 -1.32,6.8 -3.19,14.76 1.89,18.73 7.64,5.98 15.96,0.25 17.39,-0.04z"/>
   <path class="fil2" d="M103.07 23.9c4.19,0.03 2.96,3.9 2.29,7.21 -0.69,3.4 -0.69,6.43 -4.78,5.72l2.49 -12.92zm-20.72 45.35l-0.24 3.89 11.47 -0.19c2.62,-6.33 2.76,-20.33 5.46,-26.65l2.48 0.44c0.97,4.45 -3.57,20.26 -4.03,26.11l11.44 -0.06c-0.22,-3.05 2.08,-12.73 2.78,-16.7 0.46,-2.58 1.31,-6.02 1.04,-8.62 -0.39,-3.64 -2.46,-3.7 -4.26,-5.43 3.33,-1.71 5.11,-0.18 7.28,-7.86 2.43,-8.56 4.5,-19.7 -6.94,-20.06 -4.67,-0.15 -11.19,-0.59 -15.69,-0.09 -1.61,2.94 -9.36,51.64 -10.79,55.23z"/>
   <path class="fil2" d="M21.74 69.29l0.42 3.64 7.42 0.01 6.2 -31.83 -13.97 0.06c-0.76,1.96 -1.41,5.77 -1.73,8.26 0.54,0.44 0.12,0.16 0.89,0.49 0.34,0.14 0.61,0.15 1.09,0.34 0.16,2.04 -0.79,5.97 -1.28,8.11 -0.69,3.06 -0.74,5.9 -4.38,5.47 -0.72,-3.02 4.85,-31.2 6.54,-37.99 0.6,-2.43 0.57,-3.31 3.18,-3.01 1.36,3.27 -1.62,9.22 -1.18,12.7l11.82 0.11c2.79,-11.15 3.17,-22.77 -9.62,-23.05 -11.59,-0.25 -15.41,8.88 -17.35,18.3 -1.88,9.12 -4.7,20.82 -5.51,30.07 -0.53,6.08 1.28,10.27 5.5,12.38 2.1,1.05 4.93,0.97 7.03,-0.02 2.86,-1.34 3.19,-2.88 4.93,-4.06z"/>
   <path class="fil1" d="M356.99 51.66l-10.6 0.12c-0.96,2.96 -1.86,9.28 -1.74,12.95 0.44,13.37 21.62,11.97 25.75,0.02 1.31,-3.78 2.31,-7.78 2.56,-12.4 0.73,-13.27 -5.49,-11.92 -10.39,-19.47 -1.52,-2.35 -1.17,-10.78 3.07,-9.68 1.04,2.65 -0.69,5.43 -0.26,8.43l10.96 0.14c1.37,-8.46 4.73,-19.58 -10.55,-19.14 -10.7,0.3 -13.97,7.56 -15.61,16.6 -2.54,14 4.48,15.09 9.43,21.89 1.98,2.72 1.34,11.02 -1.15,12.54 -3.5,2.14 -2.54,-2.81 -2.19,-4.76 0.38,-2.12 1.17,-5.13 0.74,-7.23z"/>
   <path class="fil2" d="M270.05 71.06l2.07 -2.27c4.03,-4.57 6.37,-19.93 3.72,-25.1 -4.42,-8.63 -11.5,-7.59 -10.03,-16.32 0.48,-2.84 0.84,-4.92 4.07,-4.52 1.04,3.57 -1.34,6.39 -0.28,8.57 2.09,0.67 8.35,0.42 10.93,0.12 -0.23,-5.56 5.55,-16.86 -7.61,-18.8 -9.95,-1.47 -15.28,4.14 -17.52,11.33 -7.02,22.55 9.02,21.78 9.45,30.31 0.17,3.37 -0.47,10.86 -4.85,9.3 -0.98,-3.49 1.59,-8.51 1.28,-12l-10.96 0.04c-0.81,1.86 -1.6,8.23 -1.62,10.5 -0.09,8.29 3.31,12.3 12.33,11.92 5.28,-0.23 7.03,-2.8 9.02,-3.08z"/>
   <path class="fil4" d="M194.94 72.94c-0.21,-1.78 9.66,-55.3 10.85,-59.03l19.73 0.13c0.09,2.27 -1.41,9.48 -1.96,11.59l-7.75 0.09c-0.64,1.16 -2.29,9.48 -2.08,11.21l7.19 -0.01 -2.19 11.14 -7.44 0.03 -2.26 12.99 8.65 0.13 -2.45 11.7 -20.28 0.03zm-30.39 -2.46c0.85,-2.01 2.21,-11.16 2.76,-14.04 1.11,-5.79 7.3,-39.9 8.27,-42.47 4.12,-0.26 16.59,-0.3 19.97,0.67 6.03,1.74 5.91,7.72 4.84,14.14 -0.88,5.24 -6.39,31.99 -6.38,34.47 0.53,2.92 -1.44,7.19 -0.12,10.83 5.32,0.38 17.48,0.83 22.12,-0.03 0.45,-0.75 1.06,-2.14 1.38,-3.11 0.44,-1.34 0.23,-2.78 0.73,-3.44 2.34,4.47 3.63,6.33 9.12,7.52 6.38,1.38 9.66,-1.21 13.52,-3.43l-0.9 -0.14c-1.42,0.3 -9.75,6.02 -17.39,0.04 -5.08,-3.97 -3.2,-11.93 -1.89,-18.73 1.27,-6.57 6.14,-34.83 7.49,-38.69l11.58 -0.08c0.21,7.1 -9.23,43.3 -8.64,49.82 2.97,0.71 2.9,-1.27 3.51,-3.74 3.07,-12.38 5.57,-32.31 8.87,-45.96l11.86 -0.2c-0.05,2.81 -7.05,38.14 -8.17,43.85 -0.65,3.31 -1.68,6.62 -3.52,9.32 -0.91,1.34 -1.32,1.49 -1.71,2.65l0.18 0.68c1.37,-1.57 1.5,-0.04 2.66,-2.58 0.79,-1.73 0.59,-2.47 1.88,-3.63l0.51 1.72c0.66,4.09 0.3,2.1 2.62,4.76 1.53,1.75 2.47,3.16 5.33,4.03 2.2,0.67 6.92,0.66 9.17,0.17 2.41,-0.52 4.31,-2.36 6.15,-3.33l-0.32 -0.48c-1.99,0.28 -3.75,2.85 -9.02,3.08 -9.02,0.39 -12.42,-3.63 -12.33,-11.92 0.02,-2.28 0.81,-8.65 1.62,-10.5l10.96 -0.04c0.31,3.49 -2.26,8.51 -1.28,12 4.38,1.56 5.02,-5.94 4.85,-9.3 -0.42,-8.54 -16.47,-7.77 -9.45,-30.31 2.24,-7.18 7.57,-12.79 17.52,-11.33 13.17,1.94 7.38,13.24 7.61,18.8 -0.52,1.25 1.89,1.05 -5.08,0.99 -1.95,-0.02 -3.9,-0 -5.85,-0 2.33,-0.03 4.98,0.65 7.94,0.52 4.17,-0.19 3.59,-0.96 4.56,-4.56 1.27,-4.75 1.49,-11.64 -2.25,-13.97 -1.7,-1.06 -3.45,-2.6 -5.65,-2.98 -2.32,-0.4 -5.85,-0.5 -8.02,0.21 -2.3,0.75 -4.35,1.75 -6,3.03 -1.48,1.15 -3.01,3.58 -4.34,4.35 0.1,-2.17 0.68,-1.41 0.13,-4.17l-0.18 -0.85c-0.01,-0.07 -0.02,-0.2 -0.03,-0.27 -0.01,-0.07 -0.02,-0.21 -0.03,-0.27 -0.01,-0.07 -0.02,-0.23 -0.03,-0.28 -0.01,-0.05 0.01,-0.2 -0.03,-0.29 -4.8,-1.35 -5.48,-0.11 -6.71,0.04 -3.09,0.38 -0.35,-1.45 -6.68,-0.07 -2.06,0.45 -4.83,-0.69 -7.21,-0.83 -3.05,-0.18 -5.57,0.4 -8.27,0.29l-16.52 -0.14c-9.25,-0.07 -4.95,5.72 -7.82,8.95 -0.48,-0.68 -1.75,-8.08 -9.47,-8.55 -1.6,-0.1 -2.78,0.24 -4.57,0.12 -2.52,-0.16 -11.66,-0.71 -13.09,0.09 -2.48,1.39 -4.4,20.86 -5.64,25.65 -0.37,1.43 -0.9,1.86 -1.18,3.16 -0.54,2.59 -0.56,5.64 -1.14,8.17 -1.22,5.43 -4.61,18.45 -4.1,23.13 0.06,-0.3 0.18,-0.95 0.33,-1.25 0.56,-1.09 0.22,-0.56 0.96,-1.3z"/>
   <path class="fil2" d="M194.94 72.94l20.28 -0.03 2.45 -11.7 -8.65 -0.13 2.26 -12.99 7.44 -0.03 2.19 -11.14 -7.19 0.01c-0.22,-1.73 1.44,-10.05 2.08,-11.21l7.75 -0.09c0.55,-2.11 2.05,-9.31 1.96,-11.59l-19.73 -0.13c-1.18,3.73 -11.06,57.25 -10.85,59.03z"/>
   <path class="fil4" d="M68.38 63.83c1.07,-2.07 8.39,-38.45 7.59,-40.91l-2.21 -0.31c-1.62,1.92 -6.04,27.87 -6.86,32.28 -0.39,2.1 -0.72,3.63 -1.09,5.6 -0.49,2.62 -0.45,3.77 2.57,3.33z"/>
   <path class="fil4" d="M178.35 62.44c3.97,0.68 4.22,-3.6 4.95,-6.93 1.14,-5.15 5.57,-27.51 5.4,-30.33 -0.82,-0.72 -1.39,-1.32 -3.04,-1.18l-7.31 38.44z"/>
   <path class="fil3" d="M82.11 73.13c-0.4,-0.33 -1.15,0.18 -0.62,-2.65 -0.88,1.54 -0.67,1.99 -0.02,3.36 2.11,0.56 4.4,0.34 6.72,0.47 3.38,0.19 4.1,-0.39 6.63,-0.54 4.31,-0.26 9.09,0.69 13.81,0l-8.5 0.07c-2.65,-0.08 -2.25,-0.47 -2.63,-1.01 0.46,-5.85 5.01,-21.66 4.03,-26.11l-2.48 -0.44c-2.7,6.32 -2.84,20.32 -5.46,26.65l-11.47 0.19z"/>
   <path class="fil5" d="M140.63 51.86l3.9 -0.04 2.54 -20.26c0.39,-2.82 -0.02,-2.04 -0.2,-2.58 -0.03,-0.09 -0.09,-0.24 -0.16,-0.34 -0.82,3.74 -2.15,7.7 -3.15,11.42 -0.77,2.87 -2.81,9.13 -2.94,11.8z"/>
   <path class="fil6" d="M396.35 51.79l3.24 -0.08c0.52,-1.55 2.7,-19.42 2.56,-21.33 -1.1,1.34 -2.93,8.73 -3.39,10.4 -0.62,2.25 -2.97,8.93 -2.42,11.01z"/>
   <path class="fil7" d="M524.79 51.68l2.91 0.15c0.91,-2.38 2.73,-18.66 2.6,-21.67 -1.13,1.89 -2.36,7.68 -3.12,10.42 -0.59,2.13 -3.14,9.08 -2.4,11.1z"/>
   <path class="fil6" d="M329.95 51.51c4.24,1.38 3.56,-0.41 4.37,-7.1l1.06 -8.64c0.03,-0.27 0.1,-1.34 0.06,-1.57 -0.23,-1.37 0.01,-0.72 -0.59,-1.32 -1.01,2.59 -5.25,16.78 -4.9,18.62z"/>
   <path class="fil4" d="M100.58 36.82c4.09,0.71 4.08,-2.31 4.78,-5.72 0.67,-3.3 1.9,-7.17 -2.29,-7.21l-2.49 12.92z"/>
   <path class="fil3" d="M136.18 72.79c-0.18,0.43 0.68,0.95 -2.59,1.06l-22.27 -0.07c1.36,-0.05 13.34,1.16 18.95,1.03 4.03,-0.09 5.8,0.11 7.19,-3.36 0.85,-2.13 0.9,-6.44 2.71,-7.39 2.19,3.16 -0.48,6.08 0.62,8.9 0.04,-3.07 -0.04,-0.63 0.79,-1.62l1.2 -8.97 -4.22 -0.03 -2.37 10.46z"/>
   <path class="fil7" d="M499.25 36.87c3.65,-0.2 3.28,-1.28 4.17,-4.48 0.57,-2.05 1.26,-5.28 0.87,-7.63 -0.76,-0.43 -0.98,-0.75 -2.24,-0.72 -0.87,1.35 -2.6,10.66 -2.8,12.82z"/>
   <path class="fil8" d="M79.55 10.89c0.45,-0.66 0.23,-0.49 1.02,-1.23 0.5,-0.47 0.8,-0.63 1.39,-1.09 1.05,-0.82 2.08,-1.36 2.28,-2.41 -1.86,-0.1 -6.27,-0.47 -7.62,0.39 -0.89,0.57 -3.19,4.02 -3.14,5.17 3.78,0.21 3.94,-0.39 6.07,-0.83z"/>
   <path class="fil9" d="M124.64 69.29l-0.51 -0.67c-1.09,1.49 -0.98,2.15 -0.47,3.01l0.99 -2.34z"/>
   <path class="fil10" d="M52.91 65.04c0.45,-0.49 0.18,0.03 0.56,-0.78 0.06,-0.14 0.3,-0.9 0.3,-0.9l0.62 1.94 -0.34 -2.61c-0.83,0.46 -0.3,-0.67 -0.9,0.85 -0.23,0.58 -0.2,1.07 -0.25,1.51z"/>
  </g>
 </g>
</svg>
