<?xml version="1.0" encoding="UTF-8"?>
<!DOCTYPE svg PUBLIC "-//W3C//DTD SVG 1.1//EN" "http://www.w3.org/Graphics/SVG/1.1/DTD/svg11.dtd">
<!-- Creator: CorelDRAW -->
<svg xmlns="http://www.w3.org/2000/svg" xml:space="preserve" width="70.3035mm" height="17.0113mm" version="1.1" style="shape-rendering:geometricPrecision; text-rendering:geometricPrecision; image-rendering:optimizeQuality; fill-rule:evenodd; clip-rule:evenodd"
viewBox="0 0 453.64 109.77"
 xmlns:xlink="http://www.w3.org/1999/xlink"
 xmlns:xodm="http://www.corel.com/coreldraw/odm/2003">
 <defs>
  <style type="text/css">
   <![CDATA[
    .fil0 {fill:#00AFEF}
    .fil3 {fill:black}
    .fil5 {fill:#0E1112}
    .fil6 {fill:#111112}
    .fil11 {fill:#1A1A1A}
    .fil4 {fill:#1A2123}
    .fil17 {fill:#3A494C}
    .fil13 {fill:#434445}
    .fil18 {fill:#6A6C6D}
    .fil14 {fill:#7A7B7D}
    .fil16 {fill:#828485}
    .fil19 {fill:#8A8C8D}
    .fil21 {fill:#9EA1A2}
    .fil20 {fill:#ADAFB0}
    .fil15 {fill:#B3B4B5}
    .fil12 {fill:#E9EAEA}
    .fil9 {fill:#F0F1F1}
    .fil10 {fill:#F7F7F7}
    .fil7 {fill:#FBFBFB}
    .fil8 {fill:#FCFCFC}
    .fil1 {fill:#FDFDFD}
    .fil2 {fill:#FEFEFE}
   ]]>
  </style>
 </defs>
 <g id="Camada_x0020_1">
  <metadata id="CorelCorpID_0Corel-Layer"/>
  <g id="_2064089644496">
   <path class="fil0" d="M35.16 94.45c2.71,-0.15 9.27,-2.52 12.13,-3.37 5.76,-1.72 4.69,-0.7 5.67,-9.15 1.94,-16.75 5.15,-35.29 8.59,-51.6l5.54 -23.93c-2.25,-0.17 -12.98,2.46 -16.02,3.04 -3.87,0.74 -3.01,2.09 -3.65,6.06 -1.14,7.08 -5.63,39.32 -6.65,41.09 -1.55,-3.57 -2.17,-18.83 -2.5,-23.94 -0.56,-8.91 0.32,-17.83 -0.06,-26.51 -2.98,0.42 -6.45,1.53 -9.49,2.17 -1.25,0.26 -8.76,1.36 -9.31,2.47l-14.23 89.59c2.96,-0.46 7.45,-2.26 10.42,-3.24 6.89,-2.27 6.95,-1.45 7.22,-5.82 0.11,-1.75 2.1,-19.58 2.82,-21.77 0.35,-1.08 0.16,-0.57 0.55,-1.06 1.73,2.5 6.64,22.75 8.96,25.96zm338.7 -49.57c0.01,-3.08 1.87,-9.88 2.47,-13.23 0.62,-3.46 0.94,-2.93 4.29,-3.92 17.24,-5.08 -1.52,17.25 -6.76,17.15zm-47.43 20.53c-0.07,-1.7 9.39,-43.68 10.38,-46.05 0.23,0.49 -4.49,43.89 -5.29,44.71 -1.25,0.7 -3.48,1.37 -5.09,1.34zm80.17 -48.64c-0.26,3.74 -8.15,54.74 -8.27,54.97 -1.28,-0.48 -2.45,-4.3 -3.07,-5.72 -1.51,-3.45 -7.42,-16.04 -7.67,-18.01 1.22,-1.48 2.17,-2.06 3.4,-3.23 1.19,-1.14 2.1,-2.24 3.26,-3.46 2.13,-2.24 3.86,-4.59 5.68,-7.37 3.87,-5.91 6.25,-12.14 5.9,-21.02 -1.14,-8.18 -9.68,-9.33 -18.57,-8.37 -4.02,0.44 -7.91,1.04 -11.88,1.89 -2.69,0.57 -8.85,2.58 -10.75,2.57 -2.26,2.76 -1.57,3.21 -2.47,8.41 -1.5,8.59 -9.52,63.11 -10.57,65.18 -1.45,-4.2 1.7,-50.46 2.7,-60.34 0.61,-6.04 2.15,-12.99 2.39,-18.88l-2.02 0.25 -31.16 5.76c-0.87,5.1 -4.52,20.01 -5.62,22.06l-0.33 0.48c0.16,2.77 -8.4,29.16 -9.83,33.62 1.09,1.3 2.28,1.54 2.83,3.11 0.59,1.71 0.17,3.37 -0.87,4.54 -1.43,1.62 -5.09,2.92 -6.03,5.13 -0.59,1.38 -2.96,7.58 -2.59,8.67 0.18,0.54 4.69,4.86 5.82,5.43 1.47,-0.59 4.28,-3.38 6.38,-4.85 3.08,-2.15 4.02,-1.94 8.5,-2.33 0.98,-2.33 -0.17,-3.1 2.83,-3.87 1.42,-0.36 3.78,-1 5.25,-0.77 0.35,5.07 -1.83,5.47 0.73,7.87 0.99,0.93 0.58,0.84 1.68,1.47 1.72,-0.77 1.91,-1.66 3.79,-2.71 1.15,-0.64 3.27,-1.31 4.78,-1.45 7.57,-0.69 7.07,2.55 8.33,4.22 9.09,0.27 6.6,1.45 10.08,2.07 1.28,-2.42 2.2,-5.13 3.4,-7.72 1.02,-2.17 2.7,-4.4 4.35,-6.5 2.7,-3.44 1.93,-3.5 2.78,-8.5 0.23,-1.34 1.07,-8.62 1.47,-9.25l3.59 9.41c2.71,-0.48 4.95,-4.58 10.51,-2.59 5.05,1.81 5.31,3.41 3.28,8.29 -4.95,11.91 -9.62,8.36 -5.63,17.94 3.22,-0.67 10.94,-11.73 14.02,-12.43l-0.73 4.81c1.89,-0.03 5.82,-3.06 10.85,-1.15 1.38,0.52 3.19,1.82 2.2,4.05 -0.79,1.77 -2.33,1.4 -3.21,3.31 1.17,-0.19 2.59,-0.66 3.95,-1.03 2.9,-0.79 2.83,-3.86 8.59,-5.26 7.12,-1.74 4.89,3.25 15.66,1.07 0.73,-1.51 2.02,-19.96 1.42,-22.3l-19.78 3.11c-0.1,-1.61 1.03,-7.92 1.64,-9.41l14.68 -3.21c0.91,-0.19 1.61,-0.31 2.53,-0.51 0.65,-0.14 1.96,-0.45 2.2,-0.96l0.92 -15.72c-4.67,0.02 -13.39,3.89 -17.41,3.63 0.04,-1.63 1.86,-12.08 2.59,-13.14 2.2,-1.52 15.64,-1.79 19.72,-2.82l1.17 -21.6c-0.54,-0.49 0.87,-0.47 -1.25,-0.35l-34.71 5.57c-1.29,2.08 -0.76,5.75 -1.43,7.95zm-114.5 12.34c2.67,-0.96 7.74,-2.42 10.78,-1.35 2.07,5.15 -10.34,14.04 -13.34,14.28l2.56 -12.93zm-13.14 -19.66c-0.8,2.45 -1.36,7.81 -1.8,10.63l-8.41 52.05c-0.56,3.2 -1.41,7.3 -1.66,10.31 -0.26,3.12 1.54,6.44 1.88,9.45 -2.11,0.06 -2.9,-1.09 -3.64,1.79 4.19,0 15.49,-2.88 17.26,-4.97 -0.2,-1.76 -1.23,-2.34 -1.82,-4.51 -1.57,-5.78 2.57,-6.09 3.83,-13.71 0.67,-4.02 0.15,-7.22 2.98,-9.28 7.34,-5.33 13.75,-10.53 19.77,-17.18 1.88,-2.08 3.49,-4.11 5.44,-6.89 1.12,-1.59 4.12,-6.72 4.45,-7.03 0.63,-2.4 1.65,-3.79 2.21,-6.15 0.49,-2.06 0.82,-4.7 0.95,-6.91 0.15,-2.47 0.15,-5 -0.85,-7.06 -1,-2.05 -2.42,-2.36 -3.64,-3.98 -1.36,-0.2 -2.53,-0.93 -4.22,-1.19 -14.4,-2.26 -28.52,4.88 -32.74,4.63zm-59.35 55.7l9.86 -45.45c0.93,1.51 -3.03,31.82 -3.73,37.48 -0.58,4.66 1.11,8.27 -6.12,7.97zm-21.32 9l-0.35 1.86c-0.89,-0.3 -0.5,0.35 -0.94,-0.55 -0.29,-0.59 -0.21,-1.05 -0.28,-1.65l-1.64 -6.3c-1.37,0.62 -8.13,12.36 -15.86,7.8 -11.31,-6.67 -2.25,-28.69 4.09,-37.78 1.98,-2.83 3.51,-5.12 6.36,-6.71 4.97,-2.78 7.38,0.3 9.72,1.22 1.52,-0.86 7.77,-8.96 9.88,-11.46 1.06,-1.26 2.57,-2.26 1.62,-4.6 -1.19,-2.94 -3.9,-6.44 -5.9,-8.27 -2.49,-2.28 -6.61,-3.63 -11.22,-3.46 -14.14,0.52 -24.31,16.28 -29.78,27.81 -6.01,12.66 -9.93,33 -4.72,47.85 4.47,12.74 15.03,17.89 26.34,12.21 3.48,-1.75 6.28,-5.01 8.45,-5.92 -0.05,2.94 -3.03,7.05 -3.12,9.84 1.72,0.16 21.56,-3.13 22.63,-3.71 1.19,-3.25 0.69,-7.56 2.33,-10.35l7.15 -1.57 -1.11 12.8c2.29,-1.01 4.61,-3.43 6.83,-5 8.56,-6.04 4.51,-2.95 10.7,-13.18 0.67,-1.11 1.5,-2.62 2.29,-3.67 1.06,-1.4 2.08,-1.7 3.11,-2.83 0.37,-5.52 0.14,-11.57 0.3,-17.18 0.31,-10.92 2.24,-28.56 3.53,-39.92 0.31,-2.75 1.04,-4.89 1.04,-7.77l-32.74 5.8c-0.63,0.37 -0.88,2.68 -1.25,4.14l-7.68 28.96c-1.66,5.65 -8.08,27.6 -9.78,31.57zm-64.78 20.3c2.88,-0.09 9.61,-2.5 12.24,-3.34 6.45,-2.06 5.28,-1.18 6.06,-8.77 1.62,-15.71 5.06,-36.33 8.51,-51.74 0.93,-4.17 1.94,-8.19 2.75,-12.18 0.65,-3.23 2.53,-9.44 2.65,-12.23l-18.15 3.76c-1.6,1.05 -6.32,42.86 -7.9,46.19 -3.24,-1.92 -2.31,-43.1 -2.82,-49.7 -1.67,-0.09 -16.23,3.28 -18.41,3.94 -0.73,2.38 -2.98,18.12 -3.76,22.33l-10.74 67.52c0.89,-0.03 16.72,-4.73 17.24,-5.82 0.84,-1.77 2.02,-23.55 3.56,-26.2 1.42,1.2 7.44,22.67 8.77,26.25zm-55.7 -32.02c-0.23,-2.92 3.93,-24.18 4.78,-28.45l5.94 -27.68c-1.45,0.08 -17.13,3.03 -18.14,4.21 -1.08,1.31 -6.21,36.94 -7,41.91 -1.33,8.41 -6.2,35.96 -6.63,42.01 3.86,-0.64 23.12,-11.81 27.65,-12.62l-2.01 12.68c3.47,-0.46 8.3,-2.24 11.92,-3.27 6.78,-1.94 5.18,-1.21 6.09,-8.88 1.82,-15.29 5.29,-36.38 8.48,-51.28l5.26 -24.66 -14.07 2.8c-2.14,0.47 -3.06,0.33 -3.96,1.32 -1.31,1.45 -4.57,26.08 -5.24,30.17 -2.9,17.8 -0.54,16 -7.37,19.11 -1.5,0.69 -4.33,2.37 -5.71,2.65z"/>
   <path class="fil1" d="M314.56 101.56c0.12,-3.73 0.92,-4.33 3.22,-6.07 1.26,-0.96 3.94,-3.83 5.49,-1.18 1.45,2.49 -1.29,4.99 -2.35,5.82 -2.07,1.63 -3.2,2.32 -6.36,1.43zm55.91 -12.72c0.37,-3.54 2.71,-6.29 4.67,-8.76 1.43,-1.79 4.44,-6.13 6.41,-6.3 0.24,2.8 -8.38,13.94 -11.09,15.06zm-74.37 11.06c-0.67,1.53 -1.72,2.66 -3.67,3.19 0.32,-2.17 -0.05,-1.15 2.17,-2.08l-0.13 -1.27c-3.18,1.25 -10.6,3.22 -11.46,5.76 3.34,4.29 9.21,0.55 13.25,-1.67 3.41,-1.88 1.77,-2.03 6.65,-2.69 3.22,-0.43 4.04,-2.33 6.75,-2.93 -0.26,2.12 -0.88,3.67 0.4,5.21 0.93,1.13 2.42,2 3.93,2.1 3.65,0.24 6.2,-2.1 8.56,-3.38 2.05,0.62 1.72,1.41 4.52,0.01 1.86,-0.93 5.13,-3.78 6.8,-5.12 8.15,-6.54 -1.17,6.69 0.63,8.84 3.95,2.65 9.87,-7.54 15.3,-8.39 1.8,1.22 3.26,4.54 5.41,5.2 3,0.92 4.28,-2.29 7.19,-2.66 0.06,1.73 -0.48,3.64 0.4,5.59 2.46,5.47 9.34,-5.46 11.25,-5.97 1.61,1.4 2.21,2.79 5.22,2.81 2.88,0.02 3.67,-1.5 6.02,-1.88 -0.54,2.07 -2.92,3.58 -0.18,5.12 4.5,1.96 10.4,-5.97 13.58,-6.26 1.37,2.63 1.24,4.52 5.23,4.38 2.93,-0.11 4.78,-1.94 6.33,-3.18 1.67,-1.34 3.64,-2.73 5.22,-4.11 1.54,-1.35 3.21,-3.83 5.41,-3.2 4.01,2.09 -1.16,9.38 -1.31,11.44 3,2.75 9.49,-2.57 12.85,-3.9 -0.32,-1.33 -0.48,-1.37 -1.25,-2.29 -2.25,0.16 -3.15,2.73 -5.79,2.68 0.29,-3.52 5.64,-8.54 -2.29,-13.03 -1.96,-1.11 -2.82,-0.87 -4.62,0.1 -4.79,2.58 0.93,1.42 -5.74,6.96 -1.49,1.24 -5.21,5.35 -7.54,4.5 -1.98,-1.86 0.12,-4.21 -1.45,-5.65 -2.56,-2.69 -9.84,6.7 -13.54,6.47 0.72,-2.07 8.97,-8.15 11.68,-10.21 2.7,-2.05 3.41,-1.92 3.07,-3.85 -4.1,-2.04 -13.67,6.59 -17.82,9.25 -2.79,1.78 -2.42,3.19 -6.72,2.58 -2.3,-1.97 -1.31,-3.57 -3.36,-5.54 -5.66,-0.42 -6.17,9.48 -10.32,9.57 -0.38,-4.57 1.17,-7 3.36,-9.09 4.58,-4.37 15.72,-16.16 15.22,-22.96 -1.77,-1.02 -2.89,-1.92 -5.01,-0.45 -7.79,5.39 -12.51,11.95 -15.89,21.04 -1.27,3.43 -2.48,7.98 -6.65,7.67 -2.19,-2.44 -2.21,-8.09 -8.36,-5.4 -3.81,1.67 -6.13,6.24 -8.01,6.18 -0.19,-1.83 0.45,-0.73 1.92,-4.87 0.53,-1.48 1.72,-4.04 0.82,-5.35 -3.75,-5.35 -13.49,9.48 -17.37,9.51 0.2,-2.49 3.06,-3.98 1.36,-7.32 -1.38,-2.69 -3.76,-2.43 -7.06,-1.77l-0.75 -1.83c-4.35,-0.19 -13.99,11.17 -16.94,10.44 -0.49,-2.2 0.3,-2.8 -0.93,-4.68 -2.4,-3.65 -13.28,-10.39 -10.88,-14.86 0.97,-1.8 3.76,-4.17 5.64,-4.67 0.53,-0.57 -0.87,-0.45 1.16,-0.63 -0.07,2.07 0.03,0.67 -0.65,1.21 -1.04,1.1 -2.49,1.05 -2.52,2.72 2.05,0.48 5.77,-1.92 7.17,-2.78 2.59,-1.59 4.71,-2.3 3.51,-6.08 -3.76,-1.42 -17.49,4.37 -20.52,11.02 -3.61,7.91 10.94,12.62 12.58,18.29l-1.83 2.17z"/>
   <path class="fil1" d="M227.21 101.48c0.52,-3.07 7.7,-10.67 10.16,-10.85 -0.26,1.9 -2.93,4.85 -4.18,6.12 -1.51,1.53 -3.68,4.12 -5.98,4.74zm28.27 -8.01c0.11,-1.76 1.98,-3.87 3.5,-3.91 0.28,1.81 -0.18,1.89 -1.15,2.71 -0.9,0.76 -1.06,1.17 -2.35,1.2zm0.49 4.19c0.96,-2.53 9.13,-6.95 7.46,-11.37 -0.97,-2.59 -4.64,-1.72 -6.38,-0.38 -2.04,1.57 -3.2,2.64 -4.44,4.89 -2.88,5.2 0.01,3.62 -3.37,6.33 -1.92,1.55 -3.37,3.72 -5.63,1.09 -3.58,-4.17 -0.26,-9.92 1.64,-13.65 0.86,-1.68 6.05,-12.46 3.84,-13.84 -2.51,-1.57 -7.33,7.6 -8.33,9.74 -4.21,8.96 -0.7,3.29 -9.14,9.5 -2.11,1.55 -3.47,3.03 -5.05,4.28 -2.37,1.87 -3.19,1.23 -5.47,3.79 0.36,1.69 1.39,1.91 1.28,3.29 -0.09,1.05 -0.93,1.64 -1.12,3.43 4.09,6.97 13,-6.77 15.44,-7.83 2.01,1.53 1.05,5.19 6.11,6.29 4.47,0.97 5.37,-3.29 8.45,-3.5 1.95,2.39 2.13,4.66 7.01,4.12 2,-0.22 4.61,-1.14 6.23,-2.23 1.08,-0.73 0.79,-0.39 1.4,-1.32 -1.47,-2.81 -1.92,-1.21 -5.02,-0.74 -2.39,0.37 -4.16,0.19 -4.91,-1.87z"/>
   <path class="fil2" d="M289.12 70.97c4.29,-1.72 4.8,-2.8 11.28,-4.77 1.93,-0.59 2.69,-0.26 3.44,-1.83 0.86,-1.79 4.66,-14.44 4.98,-16.48 -1.52,0.7 -4.39,3.94 -5.83,5.2 -2.01,1.76 -3.77,3.21 -5.92,4.9 -5.45,4.26 -8.47,4.55 -7.95,12.98z"/>
   <path class="fil1" d="M439.66 99.23c1.18,-0.29 2.53,-1.11 3.39,-2 1.04,-1.08 6.42,-26.74 5.97,-28.98 -1.59,-0.05 -6.29,2.68 -7.02,3.66 -0.64,0.86 -1.31,6.27 -1.31,6.37 0.07,1.82 0.11,0.11 0.71,1.66 0.77,2 -1.98,12.4 -1.73,19.28z"/>
   <path class="fil3" d="M295.06 34.79c0.15,-2.52 0.89,-4.31 3.44,-4.85 -0.61,2.46 -2.06,3.68 -3.44,4.85zm22.48 -2.85l0.33 -0.48c1.1,-2.05 4.75,-16.96 5.62,-22.06l31.16 -5.76 2.02 -0.25c-0.24,5.9 -1.78,12.85 -2.39,18.88 -1,9.88 -4.15,56.14 -2.7,60.34 1.05,-2.07 9.07,-56.59 10.57,-65.18 0.91,-5.2 0.21,-5.65 2.47,-8.41 1.9,0.01 8.06,-2 10.75,-2.57 3.97,-0.84 7.86,-1.45 11.88,-1.89 8.89,-0.96 17.43,0.19 18.57,8.37 0.35,8.88 -2.03,15.11 -5.9,21.02 -1.82,2.79 -3.55,5.14 -5.68,7.37 -1.16,1.22 -2.07,2.32 -3.26,3.46 -1.24,1.18 -2.19,1.75 -3.4,3.23 0.25,1.97 6.17,14.56 7.67,18.01 0.62,1.42 1.78,5.24 3.07,5.72 0.12,-0.23 8.01,-51.23 8.27,-54.97 0.67,-2.2 0.14,-5.87 1.43,-7.95l34.71 -5.57c2.12,-0.12 0.71,-0.15 1.25,0.35l-1.17 21.6c-4.08,1.03 -17.52,1.3 -19.72,2.82 -0.72,1.06 -2.55,11.51 -2.59,13.14 4.02,0.27 12.73,-3.61 17.41,-3.63l-0.92 15.72c-0.24,0.51 -1.55,0.82 -2.2,0.96 -0.93,0.2 -1.63,0.32 -2.53,0.51l-14.68 3.21c-0.6,1.49 -1.74,7.8 -1.64,9.41l19.78 -3.11c0.6,2.34 -0.69,20.79 -1.42,22.3 -10.78,2.18 -8.54,-2.8 -15.66,-1.07 -5.76,1.4 -5.7,4.47 -8.59,5.26 -1.36,0.37 -2.79,0.84 -3.95,1.03 0.88,-1.91 2.43,-1.55 3.21,-3.31 0.99,-2.23 -0.82,-3.52 -2.2,-4.05 -5.04,-1.91 -8.96,1.12 -10.85,1.15l0.73 -4.81c-3.08,0.71 -10.79,11.76 -14.02,12.43 -3.99,-9.58 0.68,-6.02 5.63,-17.94 2.02,-4.88 1.77,-6.48 -3.28,-8.29 -5.56,-1.99 -7.79,2.11 -10.51,2.59l-3.59 -9.41c-0.4,0.63 -1.24,7.91 -1.47,9.25 -0.84,5 -0.08,5.07 -2.78,8.5 -1.65,2.1 -3.33,4.33 -4.35,6.5 -1.21,2.58 -2.12,5.3 -3.4,7.72 -3.48,-0.62 -0.99,-1.81 -10.08,-2.07 -1.26,-1.67 -0.75,-4.91 -8.33,-4.22 -1.5,0.14 -3.63,0.81 -4.78,1.45 -1.88,1.05 -2.07,1.94 -3.79,2.71 -1.1,-0.63 -0.69,-0.54 -1.68,-1.47 -2.56,-2.4 -0.38,-2.8 -0.73,-7.87 -1.48,-0.23 -3.84,0.41 -5.25,0.77 -3.01,0.77 -1.85,1.54 -2.83,3.87 -4.48,0.4 -5.42,0.18 -8.5,2.33 -2.11,1.47 -4.91,4.26 -6.38,4.85 -1.13,-0.57 -5.64,-4.89 -5.82,-5.43 -0.37,-1.09 2,-7.29 2.59,-8.67 0.94,-2.21 4.6,-3.52 6.03,-5.13 1.04,-1.18 1.47,-2.83 0.87,-4.54 -0.55,-1.58 -1.74,-1.81 -2.83,-3.11 1.42,-4.45 9.98,-30.85 9.83,-33.62zm-1.63 -25.94c1.21,1.62 2.63,1.92 3.64,3.98 1.01,2.06 1.01,4.59 0.85,7.06 -0.13,2.21 -0.46,4.85 -0.95,6.91 -0.56,2.36 -1.58,3.75 -2.21,6.15 -0.32,0.31 -3.33,5.44 -4.45,7.03 -1.95,2.78 -3.56,4.81 -5.44,6.89 -6.02,6.66 -12.42,11.85 -19.77,17.18 -2.83,2.05 -2.31,5.25 -2.98,9.28 -1.26,7.62 -5.4,7.93 -3.83,13.71 0.59,2.17 1.62,2.75 1.82,4.51 -1.77,2.09 -13.07,4.97 -17.26,4.97 0.74,-2.88 1.53,-1.73 3.64,-1.79 -0.34,-3.01 -2.14,-6.33 -1.88,-9.45 0.25,-3.02 1.1,-7.11 1.66,-10.31l8.41 -52.05c0.44,-2.81 1,-8.17 1.8,-10.63 4.22,0.25 18.34,-6.89 32.74,-4.63 1.69,0.27 2.86,0.99 4.22,1.19zm-96.3 59.14c7.24,0.29 5.54,-3.31 6.12,-7.97 0.7,-5.66 4.67,-35.97 3.73,-37.48l-9.86 45.45zm106.82 0.26c1.61,0.03 3.83,-0.63 5.09,-1.34 0.8,-0.82 5.53,-44.22 5.29,-44.71 -0.99,2.37 -10.45,44.35 -10.38,46.05zm34.27 -60.31l0.87 -4.76c-3.33,0.13 -7.98,1.29 -11.25,1.9l-22.63 4.19c-7.84,1.45 -4.03,0.4 -9.55,-2.13 -6.9,-3.15 -15.57,-2.63 -23.3,-1.14 -4.27,0.83 -18.25,3.97 -21.12,5.66l0.24 0.91c0.41,4.25 -4.06,31.35 -5.14,36.87 -1.3,6.65 -5.09,32.25 -6.28,35.77 -11.58,0.1 -9.64,4.16 -13.4,6.18 -0.43,-3.65 2.6,-7.65 3.71,-10.97 3.53,-10.58 -2.39,-7.94 -3.46,-9.79 -0.71,-1.23 1.07,-31.24 1.41,-34.89l3.84 -32.62 -41.67 7.59c-0.24,0.47 -0.13,0.42 -0.38,1.03 -0.03,0.08 -0.08,0.19 -0.11,0.28l-0.39 0.86c-2.47,-1.64 -8.45,-11.93 -25.49,-6.91 -5.72,1.68 -11.77,6.13 -15.34,10.39 -1.35,1.62 -2.87,4.23 -3.82,4.52l3.37 -15.12c-2.9,0.13 -16.28,3.07 -20.75,4 -5.23,1.1 -8.27,-0.03 -7.59,7.12 0.03,1.44 -0.46,4.21 -1.3,5.12 -0.27,-0.49 -0.93,-7.69 0.32,-8.47l0.07 -7.76c-2.52,-0.02 -8.66,1.7 -11.4,2.31 -2.47,0.55 -9.71,2.49 -11.63,2.33l0.88 -4.59c-2.18,-0.16 -10.34,1.85 -13.07,2.41 -3.82,0.78 -9.61,2.36 -13.27,2.61l0.55 -5.21 -20.99 4.13c-0.38,0.26 0.23,0.1 -0.9,0.44 -0.77,0.24 0.04,0.04 -0.77,-0.01 0.01,-1.5 0.28,-0.98 0.32,-1.36 0.02,-0.16 0.14,-0.16 0.21,-0.25l0.46 -2.95 -27.49 5.49c-1.64,3.02 -0.61,8.07 -2.09,10.9l0.42 -16.35c-2.87,0.29 -25.97,5.32 -27.59,6.14l-15.2 95.65c1.98,-0.04 10.63,-3.33 13.07,-4.09 2.26,-0.7 11.79,-3.34 13.13,-4.3 1.42,-2.76 0.13,-6.69 1.49,-9.6 1.05,0.89 1.54,4.1 2.01,5.61 0.65,2.1 1.66,4.07 2.26,5.94l18.85 -5.48c0.63,-0.77 -0.22,-0.55 1.52,-0.96 0.27,0.49 0.43,0.14 0.39,1.03 -0.08,1.42 -0.42,0.96 -0.52,1.09l-0.8 6.08c2.47,-0.39 10.99,-4.96 13.8,-6.28 2.95,-1.38 11.17,-5.76 13.87,-6.37l-1.81 11.34c2.03,-0.03 8.37,-2.24 10.82,-2.99 2.32,-0.71 8.82,-3 10.81,-3.14 0.34,-0.29 0.13,-0.3 0.75,-0.57 0.52,-0.22 0.62,-0.16 1.14,-0.24 0.09,0.64 0.26,0.24 0.09,1.09 -0.36,1.9 -0.05,0.47 -0.55,1.08l-1.15 8.87 -0.23 1.74 1.6 -0.37c1.88,-0.13 23.71,-7.44 24.44,-8.09 1.76,-2.06 0.1,-7.2 1.62,-9.47 0.24,0.32 3.61,10.35 4.01,11.54 1.67,-0.02 18.87,-5.28 22.86,-6.76 3.63,-1.35 0.94,-5.67 2.61,-8.4 0.35,0.34 0.2,0.13 0.54,0.68 0.21,0.34 0.36,0.68 0.52,1.01 1.91,4 5.62,8.14 9.76,10.03 6.43,2.95 13.52,1.72 19.84,-0.05l-1.59 4.78 30.65 -4.89c1.4,-0.91 1.4,-0.44 1.49,-0.44 0.63,1.26 0.88,1.61 -0.62,2.87 -0.49,2.22 0.33,1.99 0.96,3.36 0.87,1.89 -4.03,6.56 3.9,8.48 7.09,1.72 10.75,-3.51 14.05,-5.68 5.03,1.47 2.03,2.21 9.73,2.42 2.32,0.06 1.27,0.61 3.04,1.11l1.52 -1.74c2.93,0.2 3.87,2.03 11.57,0.78 4.9,-0.8 5.68,-2.74 9,-4.47 -0.27,-2.87 -1.55,-2.56 -1.98,-4.68 1.29,-0.9 10.9,-3.42 13.31,-4.16 3.01,-0.93 4.22,-1.95 6.54,-0.04 1.35,1.11 3.65,3.05 4.4,4.57 -2.03,3.01 -12.57,2.92 -14.32,8.59 2.03,4.29 7.73,5.04 13.44,3.6 4.68,-1.18 9.36,-5.76 13.23,-5.84 6.99,8.94 15.33,2.35 24.59,1.14 1.07,2.4 0.2,3.03 3.35,4.03 2.12,0.67 4.61,0.44 6.65,-0.37 3.89,-1.53 5.87,-4.58 8.66,-6.57 2.78,1.9 1.84,3.92 9.95,3.78 1.08,3.76 4.28,4.56 8.29,3.97 3.94,-0.59 5.78,-3.05 7.89,-4.84l4.84 0.56c2.18,2.52 4.08,3.96 8.99,3.29 3.62,-0.49 5.98,-2.46 8.56,-3.83 2.97,0.92 2.84,2.27 8.73,1.54 4.39,-0.55 2.29,1.78 7.32,-3.07 1.16,-1.12 2.68,-2.79 4.28,-3.43 -0.38,2.27 -2.28,3.47 -1.94,5.59 0.32,1.95 2.76,2.73 4.87,3 5.32,0.66 7.47,-1.77 11.33,-3.51 0.42,-0.46 -0.02,-0.49 1.24,-0.81 0.89,0.92 0.65,0.89 0.88,2.2 1.04,3.3 6.93,2.74 10.6,2 2.28,-0.46 2.96,-1.34 3.51,-3.5 0.83,-3.25 0.64,-3.56 -1.59,-4.79 0.72,-1.92 1.87,-0.47 3.6,-10.64 0.69,-4.06 1.86,-7.77 2.53,-11.62 0.69,-3.94 3.12,-9.52 -0.52,-11.02 -4.94,-2.03 -8.47,1.7 -11.27,2.61l0.3 -7.68c-5.59,0.63 -15.08,3.01 -19.9,2.81l0.77 -4.69 19.47 -3.97 0.95 -17.93 0.1 -3.44 -2 0.53c-2.04,-0.5 -9.93,2.38 -12.93,2.51 -0.95,0.72 -0.66,0.58 -2.06,0.66 0.18,-2.03 0.16,-1.43 0.69,-1.91 -0.02,-1.62 0.8,-4.59 1.25,-6.14 2.62,-0.95 6.41,-1.03 9.38,-1.39 2,-0.24 8.72,-0.76 10.09,-1.2 0.9,-1.67 0.96,-8.44 1.05,-10.82l1.15 -16.3c-2.39,0.01 -28.64,4.47 -33.15,5.23 -6.48,1.1 -7.3,2.12 -10.32,0.04 -5.92,-4.09 -14.19,-3.53 -21.98,-2.57 -3.68,0.45 -19,3.66 -20.87,5.03l-1.95 0.14 0.25 -2.76zm35.02 51.78c-0.83,-1.56 -3.67,-7.07 -3.31,-8.36l6.02 -6.18c-0.15,2.43 -0.76,5.13 -1.16,7.55 -0.28,1.7 -0.71,6.12 -1.55,7zm44.34 44.76c2.72,-3.07 5.18,1.2 3.25,3.09 -0.29,1.42 -4.07,1.7 -5.35,1.14 -1.42,-2.07 0.26,-4.06 2.1,-4.23zm-30.54 -8.2c-0.47,1.42 0.24,0.68 -1.31,1.14 0.55,-1.37 -0.58,-1.03 1.31,-1.14zm-163.45 1.57c-0.1,-1.62 0.03,-2.66 1.09,-3.73 0.74,1.19 0.19,3.12 -1.09,3.73zm186.28 -5.71c0.61,-0.99 2.78,-0.88 3.81,-0.22 0.15,0.7 0.41,0.47 0.11,1.51 -0.55,1.93 -0.27,0.62 -0.85,1.22l-0.03 4.96c-2.96,-1.57 0.15,-3.05 -3.79,-3.24 -0.44,-2.6 -0.9,-2.35 -1.51,-4.05l2.25 -0.17zm-134.07 -7.74c-0.13,0.35 -0.15,0.5 -0.31,0.84l-0.23 0.48c-0.3,0.48 -0.3,0.39 -0.55,0.65 -0.78,-0.9 -1.59,-1.99 -2.04,-3.6l1.67 -0.17c0.12,-0.08 0.26,-0.35 0.34,-0.23l1.52 -0.28c0.14,0.31 0.54,-0.12 0.29,1.14 -0.45,2.26 0.01,0.22 -0.69,1.17zm-42.3 16.11c0.75,2.06 2.52,2.24 4.91,1.87 3.1,-0.47 3.55,-2.07 5.02,0.74 -0.6,0.93 -0.32,0.59 -1.4,1.32 -1.62,1.09 -4.22,2 -6.22,2.23 -4.87,0.54 -5.06,-1.72 -7.01,-4.12 -3.08,0.22 -3.98,4.48 -8.45,3.5 -5.05,-1.1 -4.1,-4.77 -6.11,-6.29 -2.44,1.06 -11.35,14.8 -15.44,7.84 0.19,-1.79 1.03,-2.38 1.12,-3.43 0.12,-1.38 -0.92,-1.6 -1.28,-3.29 2.28,-2.56 3.09,-1.92 5.46,-3.79 1.58,-1.25 2.94,-2.73 5.05,-4.28 8.43,-6.21 4.93,-0.54 9.14,-9.5 1,-2.13 5.82,-11.31 8.33,-9.74 2.21,1.38 -2.98,12.16 -3.84,13.84 -1.9,3.72 -5.22,9.48 -1.64,13.65 2.26,2.64 3.71,0.46 5.63,-1.09 3.38,-2.72 0.48,-1.13 3.37,-6.33 1.24,-2.24 2.4,-3.32 4.44,-4.89 1.74,-1.34 5.4,-2.21 6.38,0.38 1.66,4.43 -6.5,8.85 -7.46,11.37zm183.69 1.57c-0.25,-6.88 2.5,-17.29 1.73,-19.28 -0.6,-1.56 -0.64,0.15 -0.71,-1.66 -0,-0.1 0.67,-5.51 1.31,-6.37 0.73,-0.98 5.44,-3.72 7.02,-3.66 0.45,2.25 -4.93,27.91 -5.97,28.98 -0.85,0.89 -2.2,1.71 -3.39,2zm-141.94 -24.67l0.15 -0.72 -0.66 0.14c-1.87,0.51 -4.67,2.87 -5.64,4.67 -2.41,4.48 8.47,11.21 10.88,14.86 1.23,1.88 0.45,2.48 0.93,4.68 2.95,0.73 12.59,-10.63 16.94,-10.44l0.75 1.83c3.3,-0.66 5.68,-0.92 7.06,1.77 1.71,3.34 -1.16,4.83 -1.36,7.32 3.87,-0.04 13.62,-14.86 17.37,-9.51 0.9,1.31 -0.29,3.87 -0.82,5.35 -1.47,4.13 -2.11,3.04 -1.92,4.87 1.88,0.06 4.2,-4.52 8.01,-6.18 6.14,-2.69 6.16,2.97 8.36,5.4 4.16,0.31 5.37,-4.24 6.65,-7.67 3.38,-9.09 8.09,-15.65 15.89,-21.04 2.12,-1.47 3.24,-0.57 5.01,0.45 0.5,6.8 -10.64,18.59 -15.22,22.96 -2.19,2.09 -3.73,4.52 -3.36,9.09 4.15,-0.09 4.66,-9.99 10.33,-9.57 2.04,1.96 1.05,3.56 3.36,5.54 4.3,0.61 3.93,-0.8 6.72,-2.58 4.15,-2.65 13.72,-11.29 17.82,-9.25 0.34,1.93 -0.37,1.8 -3.07,3.85 -2.7,2.06 -10.95,8.14 -11.68,10.21 3.7,0.23 10.98,-9.16 13.54,-6.47 1.57,1.44 -0.53,3.79 1.45,5.65 2.33,0.85 6.05,-3.26 7.54,-4.5 6.67,-5.55 0.94,-4.38 5.74,-6.96 1.8,-0.97 2.67,-1.21 4.62,-0.1 7.93,4.49 2.58,9.52 2.29,13.03 2.64,0.05 3.54,-2.52 5.79,-2.68 0.77,0.92 0.93,0.97 1.25,2.3 -3.36,1.33 -9.85,6.65 -12.85,3.9 0.15,-2.05 5.32,-9.35 1.31,-11.44 -2.2,-0.63 -3.86,1.86 -5.41,3.2 -1.58,1.38 -3.55,2.77 -5.22,4.11 -1.55,1.24 -3.39,3.07 -6.33,3.18 -3.99,0.14 -3.86,-1.74 -5.23,-4.38 -3.18,0.29 -9.08,8.23 -13.58,6.26 -2.73,-1.54 -0.36,-3.05 0.18,-5.12 -2.35,0.38 -3.14,1.9 -6.02,1.88 -3.01,-0.02 -3.61,-1.41 -5.22,-2.81 -1.91,0.51 -8.79,11.44 -11.25,5.97 -0.88,-1.96 -0.34,-3.86 -0.4,-5.59 -2.91,0.37 -4.19,3.58 -7.19,2.66 -2.15,-0.66 -3.61,-3.98 -5.41,-5.2 -5.43,0.84 -11.36,11.04 -15.3,8.39 -1.8,-2.16 7.53,-15.38 -0.63,-8.85 -1.67,1.34 -4.93,4.19 -6.8,5.12 -2.8,1.4 -2.47,0.6 -4.52,-0.02 -2.36,1.28 -4.91,3.62 -8.56,3.38 -1.51,-0.1 -2.99,-0.97 -3.93,-2.1 -1.28,-1.54 -0.66,-3.1 -0.4,-5.21 -2.71,0.6 -3.53,2.49 -6.75,2.93 -4.88,0.66 -3.24,0.81 -6.65,2.69 -4.03,2.22 -9.91,5.96 -13.25,1.67 0.86,-2.54 8.28,-4.51 11.46,-5.76 1,0.48 0.83,-1.11 0.83,0.62l0.8 -0.46 1.83 -2.17c-1.64,-5.67 -16.19,-10.38 -12.58,-18.29 3.03,-6.65 16.76,-12.44 20.52,-11.02 1.2,3.78 -0.93,4.49 -3.51,6.08 -1.4,0.86 -5.12,3.26 -7.17,2.78 0.03,-1.67 1.49,-1.61 2.52,-2.72zm-8.6 -3.59c-0.53,-8.44 2.5,-8.72 7.95,-12.98 2.16,-1.69 3.91,-3.14 5.92,-4.9 1.44,-1.26 4.31,-4.5 5.83,-5.2 -0.31,2.04 -4.12,14.69 -4.98,16.48 -0.75,1.57 -1.51,1.24 -3.44,1.83 -6.48,1.98 -6.99,3.05 -11.28,4.77zm-90.85 -10.61c-0.59,1.08 0.84,0.64 -0.75,0.92l-0.31 -0.61c-0.35,-1.11 0.02,0.4 -0.17,-0.69 -0.06,-0.32 -0.05,-1.22 -0.06,-1.58 -0.45,0.17 -0.69,0.21 -1.15,0.45 -1.03,2.55 -9.8,14.67 -12.49,14.99 -3.68,-0.9 -5.31,-5.84 -5.32,-10.13 -0.02,-11.37 11.39,-31.52 15.39,-31.53 2.92,1.01 3.73,4.48 5.97,5.42 2.57,-1.39 5.83,-8.13 8.3,-9.08l-4.62 16.09c-1.64,5.21 -3.51,10.68 -4.8,15.75zm-114.96 -3.05c-1.04,-0.53 -0.82,-0.2 -0.53,-1.94l1.27 -6.93c0.81,-5.15 4.39,-25.38 5.6,-27.89 0.5,1.45 -2.18,15.53 -2.69,18.52 -0.25,1.46 -2.44,17.5 -3.66,18.24zm-5.5 5.13c1.38,-0.27 4.21,-1.96 5.71,-2.65 6.82,-3.11 4.47,-1.31 7.37,-19.11 0.67,-4.09 3.93,-28.73 5.24,-30.17 0.9,-0.99 1.82,-0.84 3.96,-1.32l14.07 -2.8 -5.26 24.66c-3.19,14.9 -6.66,35.99 -8.48,51.28 -0.91,7.68 0.69,6.94 -6.09,8.88 -3.62,1.04 -8.45,2.82 -11.92,3.27l2.01 -12.68c-4.53,0.81 -23.79,11.99 -27.65,12.62 0.43,-6.05 5.3,-33.6 6.63,-42.01 0.79,-4.97 5.91,-40.6 7,-41.91 1.01,-1.18 16.7,-4.13 18.14,-4.21l-5.94 27.68c-0.86,4.27 -5.01,25.53 -4.78,28.45zm-42.65 32.02c-2.31,-3.21 -7.22,-23.45 -8.96,-25.96 -0.4,0.49 -0.2,-0.02 -0.55,1.06 -0.72,2.2 -2.71,20.02 -2.82,21.77 -0.27,4.37 -0.33,3.55 -7.22,5.82 -2.98,0.98 -7.47,2.78 -10.42,3.24l14.23 -89.59c0.55,-1.11 8.06,-2.21 9.31,-2.47 3.04,-0.64 6.52,-1.75 9.49,-2.17 0.38,8.68 -0.5,17.6 0.06,26.51 0.32,5.11 0.95,20.36 2.5,23.94 1.02,-1.77 5.51,-34 6.65,-41.09 0.64,-3.97 -0.23,-5.32 3.65,-6.06 3.04,-0.59 13.77,-3.21 16.02,-3.04l-5.54 23.93c-3.45,16.31 -6.65,34.85 -8.59,51.6 -0.98,8.45 0.09,7.43 -5.67,9.15 -2.87,0.85 -9.42,3.23 -12.13,3.37zm98.35 -0c-1.33,-3.59 -7.35,-25.06 -8.77,-26.25 -1.54,2.65 -2.72,24.43 -3.56,26.2 -0.52,1.09 -16.35,5.79 -17.24,5.82l10.74 -67.52c0.78,-4.21 3.03,-19.95 3.76,-22.33 2.18,-0.66 16.74,-4.02 18.41,-3.94 0.51,6.6 -0.42,47.78 2.82,49.7 1.57,-3.33 6.29,-45.13 7.9,-46.19l18.15 -3.76c-0.12,2.8 -2,9 -2.65,12.23 -0.8,3.99 -1.81,8.01 -2.75,12.18 -3.45,15.4 -6.89,36.03 -8.51,51.74 -0.78,7.58 0.38,6.7 -6.06,8.77 -2.62,0.84 -9.35,3.25 -12.24,3.34zm63.2 -20.64l0.81 0.95 0.77 -0.61c1.7,-3.97 8.12,-25.92 9.78,-31.57l7.68 -28.96c0.36,-1.46 0.62,-3.76 1.25,-4.14l32.74 -5.8c0,2.87 -0.73,5.01 -1.04,7.77 -1.28,11.36 -3.22,28.99 -3.53,39.92 -0.16,5.61 0.08,11.66 -0.3,17.18 -1.03,1.13 -2.05,1.43 -3.11,2.83 -0.79,1.04 -1.62,2.55 -2.29,3.67 -6.19,10.22 -2.14,7.14 -10.7,13.18 -2.22,1.57 -4.54,3.99 -6.83,5l1.11 -12.8 -7.15 1.57c-1.64,2.79 -1.13,7.1 -2.33,10.35 -1.07,0.58 -20.91,3.87 -22.63,3.71 0.09,-2.79 3.07,-6.9 3.12,-9.84 -2.16,0.91 -4.97,4.17 -8.45,5.92 -11.31,5.68 -21.87,0.53 -26.34,-12.21 -5.21,-14.85 -1.28,-35.19 4.72,-47.85 5.47,-11.53 15.64,-27.29 29.78,-27.81 4.61,-0.17 8.73,1.18 11.22,3.46 2,1.83 4.7,5.34 5.9,8.27 0.95,2.34 -0.56,3.35 -1.62,4.6 -2.11,2.5 -8.37,10.6 -9.88,11.46 -2.35,-0.92 -4.75,-4 -9.72,-1.22 -2.85,1.59 -4.38,3.89 -6.36,6.71 -6.35,9.09 -15.4,31.11 -4.09,37.78 7.74,4.56 14.49,-7.18 15.86,-7.8l1.64 6.3zm183.01 -38.14c0.15,-1.17 0.64,-2.6 1.01,-3.79 0.51,-1.61 0.84,-2.04 2.67,-2.16 -0.31,1.82 -1.46,5.52 -3.68,5.95zm-5.86 9.22c5.24,0.09 24,-22.23 6.76,-17.15 -3.35,0.99 -3.67,0.46 -4.29,3.92 -0.6,3.35 -2.47,10.16 -2.47,13.23zm-81.76 -15.77l-2.56 12.93c3,-0.24 15.41,-9.13 13.34,-14.28 -3.04,-1.07 -8.11,0.39 -10.78,1.35z"/>
   <path class="fil4" d="M314.56 101.56c3.16,0.89 4.29,0.2 6.36,-1.43 1.06,-0.83 3.81,-3.33 2.35,-5.82 -1.55,-2.65 -4.23,0.22 -5.49,1.18 -2.3,1.74 -3.1,2.34 -3.22,6.07z"/>
   <path class="fil5" d="M370.48 88.84c2.71,-1.12 11.33,-12.25 11.09,-15.06 -1.97,0.17 -4.99,4.51 -6.41,6.3 -1.96,2.46 -4.3,5.22 -4.67,8.76z"/>
   <path class="fil6" d="M227.21 101.48c2.3,-0.62 4.47,-3.21 5.98,-4.74 1.25,-1.27 3.92,-4.22 4.18,-6.12 -2.46,0.18 -9.64,7.78 -10.16,10.85z"/>
   <path class="fil7" d="M435.42 91.8l0.3 -2.81 -3.38 0.3 -2.25 0.17c0.61,1.7 1.07,1.45 1.51,4.05 3.94,0.19 0.83,1.68 3.79,3.24l0.03 -4.96z"/>
   <path class="fil8" d="M443.31 104.73l-0.09 -3.52 -3.16 0.43c-1.84,0.17 -3.52,2.16 -2.1,4.23 1.28,0.56 5.06,0.28 5.35,-1.14z"/>
   <path class="fil9" d="M379.73 35.67c2.22,-0.42 3.37,-4.13 3.68,-5.95 -1.83,0.12 -2.16,0.55 -2.67,2.16 -0.37,1.19 -0.87,2.62 -1.01,3.79z"/>
   <path class="fil10" d="M298.27 81.55l0.3 -1.8 -1.77 0.01 -1.67 0.17c0.45,1.61 1.25,2.7 2.04,3.6 0.26,-0.26 0.25,-0.17 0.55,-0.65l0.23 -0.48c0.16,-0.34 0.18,-0.49 0.31,-0.84z"/>
   <path class="fil11" d="M255.48 93.47c1.29,-0.03 1.46,-0.43 2.35,-1.2 0.97,-0.83 1.43,-0.9 1.15,-2.71 -1.52,0.04 -3.39,2.15 -3.5,3.91z"/>
   <path class="fil12" d="M295.06 34.79c1.37,-1.17 2.83,-2.39 3.44,-4.85 -2.55,0.54 -3.29,2.33 -3.44,4.85z"/>
   <path class="fil13" d="M296.11 99.9l-0.8 0.46c-0,-1.73 0.17,-0.14 -0.83,-0.62l0.13 1.27c-2.22,0.93 -1.85,-0.09 -2.17,2.08 1.94,-0.53 3,-1.66 3.67,-3.19z"/>
   <path class="fil14" d="M443.31 104.73c1.94,-1.89 -0.53,-6.16 -3.25,-3.09l3.16 -0.43 0.09 3.52z"/>
   <path class="fil15" d="M246.07 95.01c1.28,-0.61 1.84,-2.53 1.09,-3.73 -1.07,1.07 -1.19,2.11 -1.09,3.73z"/>
   <path class="fil16" d="M435.42 91.8c0.57,-0.59 0.3,0.71 0.85,-1.22 0.3,-1.04 0.03,-0.81 -0.11,-1.51 -1.03,-0.67 -3.2,-0.78 -3.81,0.22l3.38 -0.3 -0.3 2.81z"/>
   <path class="fil17" d="M198.29 74.15l-0.77 0.62 -0.81 -0.95c0.08,0.59 -0,1.06 0.29,1.65 0.44,0.9 0.05,0.25 0.94,0.55l0.35 -1.86z"/>
   <path class="fil18" d="M298.27 81.55c0.7,-0.95 0.24,1.1 0.69,-1.17 0.25,-1.26 -0.15,-0.83 -0.29,-1.14l-1.52 0.28c-0.08,-0.11 -0.23,0.16 -0.34,0.23l1.77 -0.01 -0.3 1.8z"/>
   <path class="fil19" d="M431.42 104.53l1.19 -0.45c0.08,0.22 0.22,0.72 0.28,0.83 0.76,1.57 0.1,0.34 0.66,1.01 -0.23,-1.31 0,-1.28 -0.89,-2.2 -1.26,0.32 -0.82,0.35 -1.24,0.81z"/>
   <path class="fil20" d="M409.51 93.43c-1.89,0.11 -0.76,-0.23 -1.31,1.14 1.54,-0.46 0.84,0.28 1.31,-1.14z"/>
   <path class="fil21" d="M297.72 74.56c0.68,-0.54 0.58,0.86 0.65,-1.21 -2.03,0.18 -0.63,0.06 -1.16,0.63l0.66 -0.14 -0.15 0.72z"/>
  </g>
 </g>
</svg>
