<?xml version="1.0" encoding="UTF-8"?>
<!DOCTYPE svg PUBLIC "-//W3C//DTD SVG 1.1//EN" "http://www.w3.org/Graphics/SVG/1.1/DTD/svg11.dtd">
<!-- Creator: CorelDRAW -->
<svg xmlns="http://www.w3.org/2000/svg" xml:space="preserve" width="72.145mm" height="15.5994mm" version="1.1" style="shape-rendering:geometricPrecision; text-rendering:geometricPrecision; image-rendering:optimizeQuality; fill-rule:evenodd; clip-rule:evenodd"
viewBox="0 0 340.95 73.72"
 xmlns:xlink="http://www.w3.org/1999/xlink"
 xmlns:xodm="http://www.corel.com/coreldraw/odm/2003">
 <defs>
  <style type="text/css">
   <![CDATA[
    .fil0 {fill:black}
    .fil2 {fill:red}
    .fil1 {fill:white}
   ]]>
  </style>
 </defs>
 <g id="Camada_x0020_1">
  <metadata id="CorelCorpID_0Corel-Layer"/>
  <g id="_2028519390512">
   <path class="fil0" d="M312.77 66.56c-2.88,0 0.6,-3.02 3.34,-1.48 -0.47,1.75 -0.79,1.48 -3.34,1.48zm-2.97 -2.97c1.26,-1.09 1.3,-1.46 2.97,-1.11l0 0.74 -2.97 0.37zm-166.09 -2.59c1.42,-0.03 2.7,-0.5 3.79,-0.66l12.15 -0.08c-1.53,1.33 -8.02,1.48 -10.38,1.48 -4.63,0 -4.72,0.47 -5.56,-0.74zm-91.57 0.74c0.4,-1.51 1.01,-1.41 3.34,-2.97 -0.08,0.99 -0.4,2.26 -0.74,2.97l-2.59 0zm-48.57 1.48c0,-0.83 1.37,-2.37 1.95,-2.87 9.49,-8.05 19.85,-2.98 8.01,1.34 -1.12,0.41 -2.21,0.64 -3.57,0.88 -3.47,0.6 -2.38,0.11 -3.06,1.39 3.4,1.91 10.45,-3.41 14.09,-3.71 -1.55,2.32 -9.85,5.56 -12.98,5.56 -2.07,0 -4.45,-0.49 -4.45,-2.59zm118.64 -0.37c0,-1.37 3.41,-3.67 4.52,-4.38 4.87,-3.17 7.18,-2.36 10.68,-1.55 -0.22,2.67 -2.73,3.8 -4.96,4.67 -5.46,2.15 -6.3,0 -6.53,2.74 3.28,0 5.19,-0.95 7.47,-1.8 2.49,-0.92 3.85,-1.64 6.62,-2.28 -1.75,2.38 -17.8,9.64 -17.8,2.59zm161.27 1.48c5.31,0 11.48,-4.33 15.2,-6.3 -0.48,-0.98 -0.37,0.3 -0.37,-1.11l0 -1.48c3.96,0 2.54,0.15 3.6,2.7 0.45,1.07 1.14,1.57 1.96,2.12 -0.26,0.96 -0.65,1.34 -1.09,2.28l5.91 -1.91c-0.68,0.93 -12.8,8.36 -11.06,3.86 0.81,-2.09 2.2,-3.92 2.53,-5.34l-7.91 3.96c-11.8,5.43 -17.98,1.54 -9.16,-4.34 1.49,-0.99 3.58,-1.89 5.79,-2.37 3.22,-0.71 3.5,-0.58 5.71,0.9 -0.58,2.48 -2.97,3.21 -5.18,4.09 -3.61,1.44 -6.19,1.04 -7.05,2.22 0.43,0.58 0.07,0.74 1.11,0.74zm-196.86 -0.74c0,-3.5 7.46,-7.41 11.49,-7.41 6.19,0 4.19,3.23 -1.58,5.46 -1.48,0.57 -2.07,0.67 -3.89,0.93 -1.93,0.28 -2.53,-0.17 -2.69,1.76 3.69,0 8.43,-1.78 11.06,-3.03 2.44,-1.16 6.65,-4.13 9.33,-4.76 -1.24,1.85 -2.47,3.71 -3.69,5.62l5.91 -1.91c-1.01,1.38 -3.35,2.12 -5.03,3.12 -1.3,0.78 -5.08,3.49 -6.69,1.93 -0.87,-0.84 0.11,-0.75 0.6,-2.83 -1.42,0.33 -3.89,1.61 -5.23,2.18 -2.24,0.95 -9.6,2.49 -9.6,-1.07zm235.79 -1.85c1.37,-2.05 8.46,-9.71 10.01,-10.75 0,3.86 -0.37,6.62 -0.37,10.38 -2.85,1.36 -5.69,0.6 -9.64,0.37zm-158.3 2.97c0,-1.81 2.56,-4.36 3.91,-5.35 1.84,-1.36 3.35,-2.99 5.73,-3.54 -1.25,1.86 -2.85,3.73 -4.08,5.56 1.69,-0.39 3.78,-1.77 5.17,-2.62 3.88,-2.35 4.52,-2.51 7.44,-1.83 -0.63,2.35 -1.93,2.3 -2.97,3.71 3.12,-0.73 7.89,-4.45 10.01,-4.45 1.28,0 1.44,0.27 2.59,0.37 -0.79,1.49 -1.76,2.5 -3.08,3.6 -1.24,1.03 -2.69,1.48 -2.86,3.45 1.29,-0.62 3.12,-0.87 4.7,-1.6 4.06,-1.89 12.59,-9.18 16.8,-4.33 -1.35,2.01 -3.01,2.77 -5.42,3.84 -4.83,2.15 -6.21,0.03 -6.44,2.83 5.73,0 8.98,-2.98 13.72,-4.08 -1.81,2.71 -17.26,9.78 -17.43,2.22l-3.45 1.74c-1.24,0.63 -2.27,1.23 -3.96,1.23 -4.66,0 -0.52,-4.6 0.37,-5.93 -3.93,0.91 -7.08,4.37 -10.75,4.45 0.44,-1.9 1.3,-3.06 2.22,-4.45 -3.87,0.32 -12.23,9.64 -12.23,5.19zm-47.08 -5.19c0.83,0 5.95,-3.13 10.01,-4.08 -1.39,2.07 -7.62,6.29 -9.27,6.67l0 3.71c-1.48,-0.39 -1.42,-1.03 -2.22,-2.22 -2.98,0.25 -4.34,2.22 -7.41,2.22l0 -0.74c1.39,-0.32 5.93,-2.96 5.93,-4.45 0,-0.92 -0.86,-3.35 -1.11,-4.45 1.1,0.58 1.27,0.54 2.12,1.59 0.65,0.8 0.81,1.75 1.96,1.75zm153.48 2.6c2.99,-0.8 7.94,-5.96 12.6,-7.04 -1.37,2.05 -1.27,1.65 -3.06,3.24l-7.02 5.22c-7.6,5.21 -5.97,-0.87 -5.86,-2.16 -1.76,0.41 -3.1,1.28 -4.52,2.16 -2.91,1.8 -3.86,1.92 -6.61,1.92l0 -1.11c0,-1.89 6.17,-7.06 9.27,-7.79 -0.49,1.85 -2.44,3.87 -3.34,5.56 1.29,-0.11 1.8,-0.39 2.84,-0.86 7.29,-3.33 3.13,-3.82 6.42,-4.7 0,4.93 -0.55,3.26 -0.74,5.56zm-9.27 -6.67c0.61,-1.24 0.09,-0.73 1.11,-1.48l0.74 1.11c-0.98,0.47 -0.4,0.34 -1.85,0.37zm8.53 -3.71c-0.03,1.19 0.12,1.85 -1.11,1.85 -2.54,0 -2.87,0.27 -3.34,-1.48l4.45 -0.37zm-154.97 0.37c-0.22,0.84 -0.36,1.48 -1.48,1.48 -2.73,0 -2.45,0.21 -3.34,-1.11 4.39,-1.05 0.49,-0.73 4.82,-0.37zm-49.68 4.45c0,-3.16 0.31,-6.58 1.47,-8.54 0.92,-1.55 1.32,-1.52 3.71,-1.48 1.84,0.03 27.64,-2.38 13.07,6.76 -1.03,0.65 -1.74,1.02 -2.75,1.7 -3.44,2.33 -11.08,6.75 -15.5,6.75l0 -5.19zm-21.68 -6.85c0.55,-1.58 0.41,-1.21 2.21,-1.5l9.83 -0.55 -14.46 13.72 2.42 -11.67zm0.18 14.27c0.8,-2.98 15.21,-17.4 20.02,-17.8 -0.18,2.21 -2.58,4.26 -4.13,5.51 -7.25,5.8 -6.52,6.02 -15.89,12.29zm-6.67 -16.31l0 -0.74c2.47,0 5.2,-1.11 7.8,-1.47 6.9,-0.93 14.2,-1.87 21.11,-2.24 5.96,-0.32 31.6,-0.84 27.08,8.53 -2.49,5.17 -11.14,8.89 -16.43,11.01 -13.37,5.37 -28.37,7.89 -46.98,7.89l18.6 -2.53c3.26,-0.45 5.61,-1.02 8.61,-1.77 11.58,-2.9 23.37,-6.53 32.22,-14.49 1.18,-1.06 2.11,-1.55 2.11,-3.82 0,-5.1 -34.05,-2.54 -40.3,-1.75l-13.83 1.37zm297.33 -5.19c-0.79,3.39 -6.79,8.86 -8.37,10.91 -1.56,2.02 -3.17,3.15 -4.6,5.03 -0.61,0.79 -3.9,4.71 -5.22,3.39 -1.06,-1.06 2.84,-4.44 3.58,-5.4 2.54,-3.29 11.74,-13.26 14.61,-13.93zm-97.5 29.66c-1.47,-6.29 -0.38,-14.06 -3.58,-19.77 -1.7,-3.02 -2.49,-3.25 -3.46,-4.69 3.59,0.84 5.93,4.4 7.42,7.41 1.98,3.99 1.48,7.95 1.48,13.72l7.5 -8.07c4.59,-4.54 7.06,-7.43 12.2,-11.53 0.76,-0.6 1.18,-1.13 1.88,-1.82l6.31 -5.55c1.66,-1.69 2.62,-2.32 4.72,-3.43 -1.17,5 -23.27,25.97 -31.46,32.31 -1.24,0.96 -1.21,1.39 -3.02,1.43zm-131.98 -48.57l0 0.37c-0.12,1.4 -1.44,5.09 -2,6.52l-2.45 6.08c-0.22,-0.38 -0.78,0.63 0.1,-1.71l2.91 -8.25c0.2,-0.55 0.42,-1.05 0.63,-1.59l0.8 -1.42zm11.86 -20.02c2.35,0 3.1,-0.37 5.56,-0.37l11.86 0.37 -0.75 28.53c-0.01,1.52 0.12,3.32 -0.03,4.81l-1.07 17.82c-2.04,-0.05 -5.4,-0.89 -7.19,-0.52 -2.18,0.45 -3.96,1.82 -6.15,2.01 0,-3.63 0.6,-6.56 0.37,-10.01l-5.56 0c-0.84,1.59 -1.37,2.01 -1.85,4.08 -1.23,0.03 -3.82,0.77 -4.52,1.45 -1.56,1.48 -0.29,1.93 -0,2.3l0.82 1.08c-2.96,0.69 -1.77,1.67 -5.07,0.26 -2.08,-0.89 -3.33,-0.63 -6.05,-0.63l19.65 -51.16zm147.92 35.96c0.66,-1.38 5.35,-27.11 6.67,-32.26 0.19,-0.74 0.45,-1.8 0.63,-2.34 0.32,-0.94 0.11,-1.36 1.23,-1.36l16.31 0c16.23,0 12.11,11.27 10.41,19.68 -0.77,3.83 -1.53,7.2 -2.35,11l-3.47 16.55c-0.43,1.39 -1.34,3.93 -2.74,3.93 -7.62,0 -2.95,-1.48 -7.41,-1.48 -2.29,0 -6.54,2.21 -8.9,3.34 -0.9,-1.34 -0.81,-1.48 -2.97,-1.48 0.29,-1.08 0.87,-1.44 1.48,-2.6 -1.86,-2.14 -2.46,-2.22 -7.41,-2.22 0.51,-1.92 4.96,-6.18 7.1,-8.84 0.88,-1.1 1.49,-1.78 1.42,-3.77 -4.93,-2.61 -6.94,1.14 -10.01,1.85zm37.13 1.54c1.64,-4.07 3.21,-8.28 4.88,-12.55l7.35 -19.35c0.75,-2.07 1.63,-5.6 2.92,-5.6l15.94 0c1.06,0 1.11,0.77 1.11,1.85l-0.74 26.7c0.01,2.38 -0.3,4.1 -0.35,6.32 -0.09,3.58 -1.18,1.7 -6.6,7.12 -0.7,0.7 -1.13,1.18 -1.85,1.86 -0.76,0.73 -1.2,0.89 -1.83,1.51 -0.65,0.65 -0.74,1.07 -1.5,1.84 -0.92,0.94 -0.88,0.8 -1.96,1.37l0 -5.93 -5.19 0c-2.32,0 -3.15,9.56 -5.76,12.41 -0.55,0.6 -0.05,-0.11 -0.54,0.57 -1.03,-0.5 -1.91,-0.4 -2.4,-1.68 -0.93,-2.41 1.33,-3.51 -8.35,-3.51l4.87 -12.92zm-139.98 -10.22c0.95,-2.51 1.86,-4.69 2.7,-6.94l5.37 -13.54c0.8,-1.57 0.86,-1.85 1.28,-3.54 0.32,-1.27 0.7,-2.28 1.19,-3.26l17.42 0c0.81,3.48 -0.38,19.8 -0.36,25.22 0.01,2.59 -0.4,3.6 -0.38,6.29l-0.37 19.28c-3.22,1.71 -3.79,0.92 -7.41,0.74 -1.49,-0.07 -2.93,0.22 -4.21,-0.24 -3.79,-1.38 -1.28,-3.23 -1.73,-8.65 -1.67,-0.04 -2.07,-0.37 -5.93,-0.37l-2.38 6.89c-0.45,1.18 -0.76,2.06 -1.22,3.23 -0.43,1.1 -0.78,2.31 -1.22,3.23 -1.85,-0.04 -4.4,-0.64 -6.3,-0.74 -2.21,-0.12 -4.79,0 -7.05,0l10.59 -27.59zm-94.38 10.91c-1.98,0 -0.83,-2.56 -0.74,-4.08 0.1,-1.66 -0.05,-3.52 -0.01,-5.21l1.44 -20.06c0.18,-1.64 0.24,-3.52 0.37,-4.82 0.5,-4.98 -3.08,-4.02 13.4,-4.02 0,6.18 -0.82,15.76 -1.7,22.03 -2.69,19.23 2.66,16.15 -12.76,16.15zm185.46 -24.75c0.47,-2.18 2.5,-11.88 3.25,-13.44l13.35 0c-0.3,3.6 -5.91,28.63 -6.83,33.21 -1.3,6.53 -0.12,4.68 -5.31,9.9l-13.07 11.77 8.62 -41.43zm-35.68 -13.07c2.35,-0.55 5.17,-0.27 8.33,-0.55l5.39 0.18c0,3.26 -0.43,6.77 -0.86,9.9 -0.37,2.73 -0.54,6.72 -0.89,9.49 -0.68,5.22 -0.6,8.76 -1.44,14.5 -0.24,1.62 -0.15,3.35 -0.15,5.04l12.98 -38.93 13.35 0c-0.61,3.87 -2.74,7.99 -3.94,11.63l-10.09 28.83c-0.69,1.85 -1.46,3.59 -1.91,5.51 -3.37,-0.79 -6.93,-5.53 -11.86,-2.22 0.64,2.73 1.88,1.76 3.96,5.68 1.49,2.79 1.97,5.22 1.97,8.78l-18.17 0c0,-5.9 0.47,-9.07 0.74,-14.83 0.08,-1.61 0.29,-1.35 0.37,-2.97l1.49 -23.35c0.14,-5.75 0.73,-9.75 0.73,-16.69zm-163.87 -0.37l13.72 0c-0.38,1.63 -0.49,3.25 -0.89,5.04 -0.39,1.73 -0.88,2.67 -1.2,4.72l-6.06 28.8 -14.09 1.85 8.53 -40.41zm-41.89 51.53c0.04,-2.37 0.73,-4.62 0.76,-7.03 0.02,-1.33 -0.09,-2.79 -0.02,-4.09 0.09,-1.64 0.34,-1.55 0.38,-3.32l2.39 -36.17c1.02,-2.09 11.37,-0.92 13.54,-0.92l-1.88 19.63c-0.22,3.21 -0.93,6.63 -1.09,9.66 -0.19,3.6 -0.03,6.58 -0.74,9.64 0.94,-0.38 0.42,-0.02 0.9,-0.96l12.45 -37.97 13.35 0 -12.47 35.36c-0.47,1.43 -1.37,5.01 -2.31,5.84 -1.59,1.4 -3.92,1.68 -4.5,3.29 1.02,0.68 1.34,0.98 2.97,1.11 -0.2,2.36 -1.28,4.37 -1.99,6.53 -0.69,2.09 -1.62,4.1 -2.08,6.07l-6.67 0c0.37,-1.41 0.73,-0.93 1.11,-2.6 -3.67,-0.86 -2.62,-4.45 -8.53,-4.45l-5.56 0.37zm68.22 -13.35c0.2,-2.4 2.04,-7.41 2.83,-9.78 1.09,-3.26 2.03,-6.47 3.06,-9.55l6.35 -18.86 13.35 0c-0.66,1.37 -1.31,3.76 -1.81,5.24l-12.28 34.8c-3.73,0 -7.65,-1.53 -11.49,-1.85zm230.23 21.87l-1.17 1.05c-0.5,0.86 -0.31,1.06 -0.31,2.29 2.34,1.24 7.72,2.83 10.68,-0.1 1.3,-1.29 0.42,-1.73 0.07,-3.23 2.13,0 13.72,0.41 15.53,-0.05 1.04,-0.26 1.02,-0.17 1.16,-1.44 5.46,0 3.2,-2.09 3.73,-8.51l0.35 -12.25c-0,-3.23 0.39,-5.32 0.38,-8.15 -0.05,-11.42 0.73,-21.38 0.73,-33l-24.1 0c-0.59,0.88 -0.45,0.39 -0.74,1.48l-2.97 0 -4.34 11.23c-0.44,0.68 -0.15,0.27 -0.48,0.64 0.1,-4.37 1.44,-6.63 -3.33,-10.02 -3.28,-2.34 -6.91,-2.53 -10.97,-3.11 -2.42,-0.35 -50.65,-0.62 -52.34,-0.12 -1.5,0.44 -0.81,1.27 -2.36,1.37 -2.4,0.16 0.33,-1.52 -5.51,-1.47 -3.83,0.03 -11.91,-0.65 -15.22,0.36 -2.21,0.67 -0.38,1.13 -4.44,1.13 -1.37,5.88 -1.52,16.93 -1.85,23.36 -0.08,1.64 -0.34,1.54 -0.38,3.32 -0.24,9.29 -1.47,17.98 -1.47,27.45 -2.76,-0.23 -3.26,-1.72 -7.41,-1.49 -3.01,0.16 -4.91,1.28 -7.42,1.86 -0.55,-6.65 0.27,-13.94 0.36,-20.78l1.03 -28.27c0.26,-1.87 -0.28,-4.48 -0.28,-6.93l-23.73 0c-0.59,0.88 -0.45,0.39 -0.74,1.48l-2.97 0c-0.23,0.99 -0.77,2.21 -1.17,3.28 -0.36,0.98 -0.8,2.02 -1.27,3.18 -4.09,10.2 -16.78,45.49 -19.54,49.79 -0.85,1.32 0.49,0.5 -1.21,1.02 -0.85,0.26 -1.18,0.07 -1.75,-0.04 -6.58,-1.18 -4.32,-8.78 -4.34,-13.49l0.36 -18.18c-0.01,-2.95 0.38,-5.47 0.38,-8.89 -0,-6.14 0.37,-11.68 0.37,-18.17 -2.64,0 -21.37,-0.41 -23.33,0.03 -1.43,0.32 -0.85,1.11 -2.28,1.43 -0.35,0.08 -1.4,0.03 -1.83,0.03l-4.22 10.61c-0.68,1.91 -1.24,3.56 -1.98,5.44 -0.65,1.64 -1.14,4.08 -2.33,5.45 0.26,-3.13 2.71,-8.57 3.75,-11.45 0.89,-2.47 3.6,-8.75 3.66,-11.54 -7.32,0 -17.57,-0.94 -22.62,1.48 -2.13,-1.56 0.45,-1.52 -5.19,-1.48l-41.15 0c-1.96,-0 -5.31,-0.85 -5.56,1.48l-3.25 -1.2c-1.32,-0.57 -15.72,-0.5 -18.28,-0.31 -1.47,0.11 -1.67,0.1 -1.83,1.51l-3.34 0 -3.28 48.62c-0.36,3.24 0.77,4.66 -1.51,6.27 -1.65,1.16 -2.82,1.45 -4.4,3.02 -1.16,1.16 -2.72,2.92 -1.99,4.76 0.67,1.68 2.64,2.56 4.54,2.92 2.18,0.41 4.6,0.18 6.74,-0.23 10.32,-1.99 3.25,-3.61 18.8,-3.44 1.35,0.01 2.46,0.18 3.38,-0.33 1.58,-0.88 0.03,-1.16 2.92,-1.16 1.16,0.38 0.52,0.97 1.91,1.42 2.07,0.67 0.64,-0.34 2.08,1.26 2.91,3.23 7.11,-0.98 10.1,-1.2 2.09,-0.16 4.88,-0 7.04,-0 1.88,-1.38 -0.29,-1.48 3.34,-1.48 -0.7,2.6 -5.54,2.8 -7.68,3.07l-19.16 3.08c-3.4,0.49 -7.96,-0.56 -8.74,2.38 2.1,3.14 11.72,1.63 14.83,1.48 2.4,-0.11 5.22,-0.58 7.78,-0.75 8.96,-0.59 19.57,-3.1 27.96,-6.15 2.25,-0.82 4.01,-1.62 6.91,-1.62 0.94,3.5 4.15,3.72 7.41,3.72 2.46,-0 3.03,-0.04 5.09,-0.48 3.61,-0.77 8.57,1.8 15.46,0.26 2.56,-0.57 1.89,-0.83 4.42,0.08 2.81,1.01 2.42,0.43 4.85,-0.09 1.64,-0.35 2.81,0.37 5.01,0.24l5.53 -0.42c1.93,-0.22 6.6,-2.28 8.31,-3.18 2.41,-1.27 1.71,-0.77 4.36,-0.52 2.14,0.2 3.35,0.43 5.53,0.42 3.83,-0.02 7.67,-0.01 11.5,-0.01 0,2.54 0.34,2.99 2.24,3.69 5.53,2.02 7.01,-1.87 9.98,-1.88 1,-0 2.18,0.22 2.62,0.22 0.53,-0 2.22,-0.45 2.7,-0.49 2.6,-0.24 2.34,3.25 8.94,1.95 8.31,-1.64 7.74,3.2 20.6,-2.76 3.05,-1.41 1.06,-0.8 4.8,-0.72 6.12,0.13 12.53,-0.32 18.6,-0.06 3.32,0.14 1.01,3.45 2.55,10.06 8.3,0 5.27,1.53 14.72,-6.42 1.29,-1.08 2.59,-2.79 4.19,-3.22 0.06,2.81 1.68,3.28 4.44,3.36 4.38,0.12 4.61,-1.18 6.4,-1.42 1.95,-0.26 5.26,2.61 9.57,0.67 1.4,-0.63 1.24,-1.13 2.58,-1.49 1.9,0 4.63,4.31 13.58,1.34 1.4,-0.46 3.54,-0.84 4.59,-1.34 0.73,1.39 1.28,1.98 3.16,2.4 5.8,1.31 8.47,-3.5 13.15,-3.89z"/>
   <path class="fil1" d="M217.12 3.9c0,6.94 -0.59,10.94 -0.73,16.69l-1.49 23.35c-0.08,1.61 -0.29,1.35 -0.37,2.97 -0.28,5.76 -0.74,8.93 -0.74,14.83l18.17 0c0,-3.56 -0.48,-5.99 -1.97,-8.78 -2.09,-3.91 -3.33,-2.94 -3.96,-5.68 4.93,-3.3 8.49,1.44 11.86,2.22 0.45,-1.91 1.22,-3.66 1.91,-5.51l10.09 -28.83c1.2,-3.64 3.33,-7.77 3.94,-11.63l-13.35 0 -12.98 38.93c0,-1.7 -0.09,-3.42 0.15,-5.04 0.84,-5.75 0.76,-9.28 1.44,-14.5 0.36,-2.76 0.52,-6.75 0.89,-9.49 0.43,-3.12 0.86,-6.64 0.86,-9.9l-5.39 -0.18c-3.16,0.28 -5.98,0 -8.33,0.55z"/>
   <path class="fil1" d="M11.37 55.07l5.56 -0.37c5.9,0 4.85,3.59 8.53,4.45 -0.39,1.66 -0.74,1.19 -1.11,2.6l6.67 0c0.46,-1.97 1.4,-3.99 2.08,-6.07 0.71,-2.17 1.8,-4.18 1.99,-6.53 -1.62,-0.13 -1.95,-0.43 -2.97,-1.11 0.58,-1.61 2.91,-1.89 4.5,-3.29 0.94,-0.83 1.84,-4.41 2.31,-5.84l12.47 -35.36 -13.35 0 -12.45 37.97c-0.48,0.94 0.04,0.57 -0.9,0.96 0.71,-3.06 0.55,-6.04 0.74,-9.64 0.16,-3.02 0.87,-6.45 1.09,-9.66l1.88 -19.63c-2.17,0 -12.52,-1.18 -13.54,0.92l-2.39 36.17c-0.05,1.78 -0.3,1.69 -0.38,3.32 -0.07,1.31 0.03,2.77 0.02,4.09 -0.03,2.41 -0.72,4.66 -0.76,7.03z"/>
   <path class="fil1" d="M172.26 36.9c0,-0.28 3.78,-12.41 4.74,-14.17 0.27,-0.5 0.2,-0.37 0.45,-0.66 0,3.61 -0.44,5.35 -0.76,8.51 -0.14,1.33 -0.3,2.37 -0.24,3.88 0.05,1.37 -0.44,1.85 -0.47,3.55l-3.71 0 0 -1.11zm-21.13 21.5c2.25,0 4.84,-0.12 7.05,-0 1.9,0.1 4.45,0.7 6.3,0.74 0.44,-0.92 0.79,-2.13 1.22,-3.23 0.46,-1.17 0.76,-2.05 1.22,-3.23l2.38 -6.89c3.86,0 4.26,0.33 5.93,0.37 0.45,5.42 -2.07,7.27 1.73,8.65 1.27,0.46 2.71,0.17 4.21,0.24 3.63,0.18 4.19,0.96 7.41,-0.74l0.37 -19.28c-0.02,-2.69 0.4,-3.7 0.38,-6.29 -0.02,-5.42 1.17,-21.74 0.36,-25.22l-17.42 0c-0.49,0.98 -0.87,1.99 -1.19,3.26 -0.43,1.69 -0.48,1.97 -1.28,3.54l-5.37 13.54c-0.83,2.26 -1.74,4.44 -2.7,6.94l-10.59 27.59z"/>
   <path class="fil1" d="M275.33 54.32c0.15,-1.81 0.78,-3.73 1.15,-5.53l8.12 -38.22c1.58,0.09 3.34,0.79 3.34,2.22l-4.34 22.72c-0.42,2.2 -1.17,3.34 -1.49,5.55 -0.35,2.42 -0.77,3.7 -1.12,5.56 -0.8,4.34 -0.5,7.69 -5.66,7.69zm-10.75 -14.83c3.07,-0.72 5.08,-4.46 10.01,-1.85 0.07,1.98 -0.54,2.67 -1.42,3.77 -2.14,2.66 -6.59,6.92 -7.1,8.84 4.95,0 5.55,0.08 7.41,2.22 -0.61,1.15 -1.2,1.52 -1.48,2.6 2.16,0 2.07,0.14 2.97,1.48 2.36,-1.13 6.61,-3.34 8.9,-3.34 4.47,0 -0.21,1.48 7.41,1.48 1.4,0 2.31,-2.54 2.74,-3.93l3.47 -16.55c0.81,-3.8 1.58,-7.17 2.35,-11 1.69,-8.41 5.82,-19.68 -10.41,-19.68l-16.31 0c-1.12,0 -0.91,0.42 -1.23,1.36 -0.18,0.54 -0.44,1.6 -0.63,2.34 -1.31,5.15 -6,30.88 -6.67,32.26z"/>
   <path class="fil1" d="M118.83 29.44c0.64,-1.89 1.53,-6.65 3.01,-7.74 0,5.35 -1.48,10.88 -1.48,16.31l-4.08 0 2.55 -8.57zm-2.18 -25.91l-19.65 51.16c2.72,0 3.97,-0.26 6.05,0.63 3.3,1.41 2.11,0.43 5.07,-0.26l-0.82 -1.08c-0.29,-0.37 -1.56,-0.81 0,-2.3 0.71,-0.67 3.29,-1.42 4.52,-1.45 0.48,-2.07 1.01,-2.49 1.85,-4.08l5.56 0c0.22,3.45 -0.37,6.38 -0.37,10.01 2.19,-0.18 3.97,-1.55 6.15,-2.01 1.79,-0.37 5.15,0.48 7.19,0.52l1.07 -17.82c0.14,-1.48 0.01,-3.29 0.03,-4.81l0.75 -28.53 -11.86 -0.37c-2.47,0 -3.21,0.37 -5.56,0.37z"/>
   <path class="fil1" d="M320.3 24.03c0.11,-0.23 0.37,-0.72 0.53,-0.96 0.48,-0.75 0.14,-0.25 0.48,-0.64 0,5.39 -1.08,10.68 -1.48,15.57 -1.47,0.12 -0.89,0.37 -1.85,0.37 -0.96,0 -0.38,-0.25 -1.85,-0.37l4.19 -13.98zm-23.47 29.92c9.68,0 7.42,1.1 8.35,3.51 0.49,1.27 1.37,1.18 2.4,1.68 0.5,-0.68 -0.01,0.03 0.54,-0.57 2.61,-2.84 3.44,-12.41 5.76,-12.41l5.19 0 0 5.93c1.08,-0.57 1.05,-0.43 1.96,-1.37 0.76,-0.77 0.85,-1.19 1.5,-1.84 0.62,-0.62 1.07,-0.78 1.83,-1.51 0.71,-0.68 1.15,-1.16 1.85,-1.86 5.42,-5.42 6.5,-3.54 6.6,-7.12 0.06,-2.21 0.37,-3.94 0.35,-6.32l0.74 -26.7c0,-1.08 -0.05,-1.85 -1.11,-1.85l-15.94 0c-1.29,0 -2.17,3.54 -2.92,5.6l-7.35 19.35c-1.66,4.26 -3.24,8.48 -4.88,12.55l-4.87 12.92z"/>
   <path class="fil1" d="M244.19 58.4l13.07 -11.77c5.19,-5.22 4.01,-3.37 5.31,-9.9 0.91,-4.58 6.53,-29.6 6.83,-33.21l-13.35 0c-0.75,1.56 -2.78,11.26 -3.25,13.44l-8.62 41.43z"/>
   <path class="fil1" d="M44.73 43.94l14.09 -1.85 6.06 -28.8c0.32,-2.04 0.82,-2.99 1.2,-4.72 0.4,-1.79 0.51,-3.41 0.89,-5.04l-13.72 0 -8.53 40.41z"/>
   <path class="fil1" d="M79.58 41.72c3.84,0.32 7.76,1.85 11.49,1.85l12.28 -34.8c0.49,-1.48 1.15,-3.87 1.81,-5.24l-13.35 0 -6.35 18.86c-1.03,3.08 -1.97,6.29 -3.06,9.55 -0.79,2.37 -2.63,7.38 -2.83,9.78z"/>
   <path class="fil1" d="M67.35 41.72c15.42,0 10.08,3.08 12.76,-16.15 0.88,-6.28 1.7,-15.85 1.7,-22.03 -16.48,0 -12.9,-0.96 -13.4,4.02 -0.13,1.3 -0.19,3.18 -0.37,4.82l-1.44 20.06c-0.04,1.69 0.11,3.55 0.01,5.21 -0.09,1.51 -1.24,4.08 0.74,4.08z"/>
   <path class="fil2" d="M50.77 46.28c6.25,-0.79 40.3,-3.36 40.3,1.75 0,2.27 -0.92,2.76 -2.11,3.82 -8.85,7.96 -20.65,11.59 -32.22,14.49 -3,0.75 -5.35,1.32 -8.61,1.77l-18.6 2.53c18.61,0 33.61,-2.52 46.98,-7.89 5.29,-2.12 13.94,-5.84 16.43,-11.01 4.52,-9.38 -21.12,-8.86 -27.08,-8.53 -6.91,0.37 -14.22,1.31 -21.11,2.24 -2.61,0.35 -5.33,1.47 -7.8,1.47l0 0.74 13.83 -1.37z"/>
   <path class="fil1" d="M65.12 56.55l0 5.19c4.42,0 12.06,-4.42 15.5,-6.75 1,-0.68 1.72,-1.06 2.75,-1.7 14.57,-9.14 -11.23,-6.73 -13.07,-6.76 -2.39,-0.03 -2.79,-0.07 -3.71,1.48 -1.16,1.96 -1.47,5.38 -1.47,8.54z"/>
   <path class="fil2" d="M197.1 61.74c1.85,-2.76 6.38,-3.77 7.79,-4.45 -0.45,1.7 -1.55,2.47 -3.08,3.22 -2.05,1.01 -2.69,1.23 -4.71,1.23zm-33 2.97c0,4.45 8.36,-4.87 12.23,-5.19 -0.93,1.39 -1.78,2.55 -2.22,4.45 3.67,-0.08 6.83,-3.53 10.75,-4.45 -0.89,1.33 -5.03,5.93 -0.37,5.93 1.7,0 2.73,-0.6 3.96,-1.23l3.45 -1.74c0.17,7.56 15.61,0.48 17.43,-2.22 -4.73,1.1 -7.99,4.08 -13.72,4.08 0.23,-2.79 1.61,-0.68 6.44,-2.83 2.42,-1.08 4.08,-1.84 5.42,-3.84 -4.21,-4.85 -12.74,2.44 -16.8,4.33 -1.58,0.73 -3.41,0.98 -4.7,1.6 0.16,-1.97 1.62,-2.41 2.86,-3.45 1.31,-1.09 2.29,-2.11 3.08,-3.6 -1.16,-0.1 -1.32,-0.37 -2.59,-0.37 -2.12,0 -6.89,3.72 -10.01,4.45 1.03,-1.41 2.34,-1.36 2.97,-3.71 -2.92,-0.68 -3.56,-0.52 -7.44,1.83 -1.39,0.84 -3.48,2.22 -5.17,2.62 1.23,-1.83 2.83,-3.7 4.08,-5.56 -2.37,0.55 -3.88,2.18 -5.73,3.54 -1.35,1 -3.91,3.55 -3.91,5.35z"/>
   <path class="fil2" d="M236.77 72.12c1.81,-0.04 1.78,-0.46 3.02,-1.43 8.18,-6.34 30.29,-27.31 31.46,-32.31 -2.1,1.11 -3.06,1.74 -4.72,3.43l-6.31 5.55c-0.7,0.7 -1.13,1.22 -1.88,1.82 -5.14,4.1 -7.61,6.99 -12.2,11.53l-7.5 8.07c0,-5.78 0.51,-9.74 -1.48,-13.72 -1.5,-3.01 -3.83,-6.57 -7.42,-7.41 0.97,1.44 1.77,1.67 3.46,4.69 3.2,5.71 2.12,13.48 3.58,19.77z"/>
   <path class="fil0" d="M275.33 54.32c5.16,0 4.86,-3.35 5.66,-7.69 0.34,-1.86 0.77,-3.13 1.12,-5.56 0.32,-2.21 1.07,-3.36 1.49,-5.55l4.34 -22.72c0,-1.43 -1.75,-2.14 -3.34,-2.22l-8.12 38.22c-0.36,1.8 -1,3.71 -1.15,5.53z"/>
   <path class="fil2" d="M284.23 61.74c1.24,-1.85 5.23,-3.85 7.79,-4.45 -0.16,1.93 -1.57,2.51 -3.08,3.22 -1.4,0.65 -2.82,1.23 -4.7,1.23zm14.09 -4.82c0,1.42 -0.11,0.14 0.37,1.11 -3.72,1.97 -9.89,6.3 -15.2,6.3 -1.04,0 -0.69,-0.16 -1.11,-0.74 0.87,-1.18 3.44,-0.78 7.05,-2.22 2.21,-0.88 4.6,-1.6 5.18,-4.09 -2.21,-1.48 -2.49,-1.61 -5.71,-0.9 -2.2,0.48 -4.29,1.38 -5.79,2.37 -8.83,5.88 -2.64,9.76 9.16,4.34l7.91 -3.96c-0.33,1.42 -1.72,3.25 -2.53,5.34 -1.74,4.5 10.38,-2.93 11.06,-3.86l-5.91 1.91c0.45,-0.94 0.84,-1.32 1.09,-2.28 -0.82,-0.55 -1.51,-1.05 -1.96,-2.12 -1.06,-2.55 0.36,-2.7 -3.6,-2.7l0 1.48z"/>
   <path class="fil2" d="M91.81 61.74c1.04,-1.55 3.77,-2.96 5.56,-3.71 0.84,-0.35 1.43,-0.35 2.23,-0.74 -0.68,2.9 -5.62,4.45 -7.79,4.45zm-5.19 1.85c0,3.56 7.35,2.01 9.6,1.07 1.34,-0.57 3.81,-1.85 5.23,-2.18 -0.48,2.08 -1.47,1.98 -0.6,2.83 1.61,1.57 5.39,-1.15 6.69,-1.93 1.68,-1.01 4.02,-1.74 5.03,-3.12l-5.91 1.91c1.22,-1.91 2.45,-3.76 3.69,-5.62 -2.69,0.63 -6.89,3.59 -9.33,4.76 -2.63,1.25 -7.37,3.03 -11.06,3.03 0.16,-1.93 0.76,-1.48 2.69,-1.76 1.82,-0.26 2.41,-0.36 3.89,-0.93 5.77,-2.23 7.77,-5.46 1.58,-5.46 -4.03,0 -11.49,3.92 -11.49,7.41z"/>
   <path class="fil2" d="M270.51 62.11c0.19,-2.3 0.74,-0.63 0.74,-5.56 -3.29,0.88 0.87,1.37 -6.42,4.7 -1.04,0.48 -1.56,0.76 -2.84,0.86 0.9,-1.7 2.84,-3.72 3.34,-5.56 -3.1,0.72 -9.27,5.9 -9.27,7.79l0 1.11c2.75,0 3.7,-0.12 6.61,-1.92 1.41,-0.87 2.76,-1.75 4.52,-2.16 -0.11,1.29 -1.74,7.36 5.86,2.16l7.02 -5.22c1.79,-1.59 1.69,-1.19 3.06,-3.24 -4.67,1.09 -9.61,6.25 -12.6,7.04z"/>
   <path class="fil2" d="M127.41 61.74c1.48,-2.2 5.06,-4.08 7.79,-4.08 -1.39,2.62 -4.55,4.08 -7.79,4.08zm-5.19 1.11c0,7.04 16.05,-0.21 17.8,-2.59 -2.76,0.64 -4.13,1.36 -6.62,2.28 -2.28,0.84 -4.19,1.8 -7.47,1.8 0.23,-2.74 1.07,-0.59 6.53,-2.74 2.23,-0.88 4.74,-2.01 4.96,-4.67 -3.5,-0.82 -5.81,-1.62 -10.68,1.55 -1.1,0.72 -4.52,3.01 -4.52,4.38z"/>
   <path class="fil1" d="M41.02 61.37l14.46 -13.72 -9.83 0.55c-1.8,0.29 -1.66,-0.08 -2.21,1.5l-2.42 11.67z"/>
   <path class="fil2" d="M8.77 62.11c1.29,-2.43 5.04,-4.18 7.79,-4.82 -0.23,2.74 -5.37,4.26 -7.79,4.82zm-5.19 1.11c0,2.1 2.38,2.59 4.45,2.59 3.13,0 11.42,-3.24 12.98,-5.56 -3.64,0.3 -10.69,5.62 -14.09,3.71 0.67,-1.28 -0.41,-0.79 3.06,-1.39 1.36,-0.24 2.45,-0.47 3.57,-0.88 11.83,-4.32 1.47,-9.39 -8.01,-1.34 -0.59,0.5 -1.95,2.04 -1.95,2.87z"/>
   <path class="fil2" d="M334.28 42.46c-2.88,0.67 -12.07,10.64 -14.61,13.93 -0.74,0.96 -4.64,4.34 -3.58,5.4 1.32,1.32 4.61,-2.59 5.22,-3.39 1.44,-1.88 3.04,-3.01 4.6,-5.03 1.58,-2.05 7.58,-7.52 8.37,-10.91z"/>
   <path class="fil2" d="M43.62 63.96c9.36,-6.27 8.64,-6.49 15.89,-12.29 1.55,-1.24 3.95,-3.3 4.13,-5.51 -4.81,0.4 -19.22,14.82 -20.02,17.8z"/>
   <path class="fil1" d="M322.41 61.74c3.95,0.23 6.78,0.98 9.64,-0.37 0,-3.76 0.37,-6.52 0.37,-10.38 -1.55,1.04 -8.64,8.7 -10.01,10.75z"/>
   <path class="fil2" d="M117.03 59.51c-1.16,0 -1.31,-0.95 -1.96,-1.75 -0.85,-1.05 -1.02,-1.01 -2.12,-1.59 0.26,1.1 1.11,3.53 1.11,4.45 0,1.48 -4.55,4.13 -5.93,4.45l0 0.74c3.08,0 4.43,-1.98 7.41,-2.22 0.8,1.2 0.75,1.83 2.22,2.22l0 -3.71c1.65,-0.38 7.88,-4.6 9.27,-6.67 -4.06,0.94 -9.18,4.08 -10.01,4.08z"/>
   <path class="fil0" d="M116.28 38.01l4.08 0c0,-5.43 1.48,-10.96 1.48,-16.31 -1.48,1.09 -2.38,5.85 -3.01,7.74l-2.55 8.57z"/>
   <path class="fil0" d="M172.26 36.9l0 1.11 3.71 0c0.04,-1.7 0.53,-2.18 0.47,-3.55 -0.06,-1.51 0.11,-2.55 0.24,-3.88 0.32,-3.16 0.76,-4.9 0.76,-8.51 -0.25,0.29 -0.19,0.16 -0.45,0.66 -0.95,1.77 -4.74,13.89 -4.74,14.17z"/>
   <path class="fil0" d="M316.11 38.01c1.47,0.12 0.89,0.37 1.85,0.37 0.96,0 0.38,-0.25 1.85,-0.37 0.41,-4.89 1.48,-10.19 1.48,-15.57 -0.34,0.39 -0,-0.11 -0.48,0.64 -0.15,0.24 -0.42,0.72 -0.53,0.96l-4.19 13.98z"/>
   <path class="fil2" d="M143.72 61c0.84,1.21 0.94,0.74 5.56,0.74 2.36,0 8.85,-0.15 10.38,-1.48l-12.15 0.08c-1.09,0.16 -2.37,0.63 -3.79,0.66z"/>
   <path class="fil0" d="M127.41 61.74c3.23,0 6.4,-1.46 7.79,-4.08 -2.72,0 -6.31,1.87 -7.79,4.08z"/>
   <path class="fil0" d="M284.23 61.74c1.89,0 3.3,-0.58 4.7,-1.23 1.51,-0.71 2.92,-1.29 3.08,-3.22 -2.55,0.59 -6.55,2.6 -7.79,4.45z"/>
   <path class="fil0" d="M8.77 62.11c2.42,-0.56 7.56,-2.08 7.79,-4.82 -2.75,0.64 -6.5,2.39 -7.79,4.82z"/>
   <path class="fil0" d="M197.1 61.74c2.01,0 2.66,-0.21 4.71,-1.23 1.53,-0.75 2.63,-1.53 3.08,-3.22 -1.41,0.68 -5.94,1.69 -7.79,4.45z"/>
   <path class="fil0" d="M91.81 61.74c2.16,0 7.11,-1.55 7.79,-4.45 -0.8,0.38 -1.39,0.38 -2.23,0.74 -1.79,0.75 -4.52,2.16 -5.56,3.71z"/>
   <path class="fil1" d="M104.79 23.92l0 -0.37 -0.8 1.42c-0.22,0.54 -0.43,1.04 -0.63,1.59l-2.91 8.25c-0.88,2.34 -0.32,1.33 -0.1,1.71l2.45 -6.08c0.56,-1.44 1.88,-5.12 2,-6.52z"/>
   <path class="fil2" d="M265.32 52.1c0.47,1.75 0.79,1.48 3.34,1.48 1.23,0 1.09,-0.67 1.11,-1.85l-4.45 0.37z"/>
   <path class="fil2" d="M312.77 66.56c2.54,0 2.87,0.27 3.34,-1.48 -2.74,-1.54 -6.22,1.48 -3.34,1.48z"/>
   <path class="fil2" d="M109.98 52.47c0.89,1.33 0.6,1.11 3.34,1.11 1.13,0 1.26,-0.64 1.48,-1.48 -4.33,-0.36 -0.43,-0.68 -4.82,0.37z"/>
   <path class="fil1" d="M52.15 61.74l2.59 0c0.34,-0.71 0.66,-1.98 0.74,-2.97 -2.33,1.56 -2.93,1.45 -3.34,2.97z"/>
   <path class="fil1" d="M261.24 55.44c1.46,-0.03 0.87,0.1 1.85,-0.37l-0.74 -1.11c-1.03,0.75 -0.5,0.25 -1.11,1.48z"/>
  </g>
 </g>
</svg>
