<?xml version="1.0" encoding="UTF-8"?>
<!DOCTYPE svg PUBLIC "-//W3C//DTD SVG 1.1//EN" "http://www.w3.org/Graphics/SVG/1.1/DTD/svg11.dtd">
<!-- Creator: CorelDRAW -->
<svg xmlns="http://www.w3.org/2000/svg" xml:space="preserve" width="77.6611mm" height="21.0404mm" version="1.1" style="shape-rendering:geometricPrecision; text-rendering:geometricPrecision; image-rendering:optimizeQuality; fill-rule:evenodd; clip-rule:evenodd"
viewBox="0 0 557.32 150.99"
 xmlns:xlink="http://www.w3.org/1999/xlink"
 xmlns:xodm="http://www.corel.com/coreldraw/odm/2003">
 <defs>
  <style type="text/css">
   <![CDATA[
    .fil0 {fill:#111113}
    .fil1 {fill:#F6F8F8}
    .fil2 {fill:#FEC003}
   ]]>
  </style>
 </defs>
 <g id="Camada_x0020_1">
  <metadata id="CorelCorpID_0Corel-Layer"/>
  <g id="_2028801031760">
   <path class="fil0" d="M450.97 122.08c0.34,-1.87 3.55,-3.76 4.86,-4.04 4.97,4.09 4.59,1.61 6.99,3.31 -0.97,2.18 -4.85,1.48 -8.8,1.31l-2.19 -0.24c-0.98,-0.26 -0.36,-0.01 -0.87,-0.34l0.01 -0.01zm18.92 -1.24c0.27,-2.01 1.65,-3.82 3.35,-4.77 -0.27,2.53 -1.61,3.74 -3.35,4.77zm-29.2 -0.25c0,-2.23 -0.05,-1.4 1.1,-2.59 1,-1.04 0.51,-1.13 1.9,-1.8 -0.48,4.45 -1.33,4.36 -2.99,4.39l-0.01 -0zm-136.9 -27.6c1.18,3 0.58,7.3 2.84,10.09 2.63,3.26 4.76,2.85 4.14,8.96 -3.99,0.45 -16.04,0.98 -19.65,-0.12 -0.2,-2.17 2.65,-9.4 3.31,-12.52 0.46,-2.16 0.21,-5.08 1.8,-6.34 1.49,-1.18 5.75,-0.69 7.56,-0.09l0 0.01zm-51.67 16.93c1.04,-0.63 1.18,-0.61 2.52,-0.59l-0.15 2.46c-1.7,-0.06 -2.34,0.1 -2.36,-1.86l-0.01 0zm-14.71 15.12c3.77,-0.79 5.77,-3.5 7.34,-6.32 0.86,-1.52 1.45,-3.01 2.36,-4.65 1.03,-1.87 1.85,-2.84 4.55,-1.4 0.73,2.89 -0.66,5.18 -0.99,7.77 4.07,-1.35 5.22,-7.37 11.71,-11.47 0.87,1.98 0.97,0.43 -1.92,4.41 -2.39,3.31 -7.48,10.24 -11.95,10.58 -0.68,-0.63 -1.6,-2.22 -2.15,-2.95 -1.95,1.09 -6.15,7.08 -9.42,5.7 -4.51,-1.9 0.69,-12.59 4.28,-15.97 3.16,-2.98 5.01,-5.11 9.46,-6.4 3.1,-0.89 4.7,-0.4 4.94,2.77 -6.32,1.39 -7.99,2.39 -11.73,6.3 -2.69,2.81 -6.34,6.03 -6.46,11.62l-0 0.01zm174.54 -16.49c1.05,-4.46 2.55,-7.06 3.5,-10.22 0.59,-1.97 0.12,-2.44 1.65,-3.17 0.88,1.23 1.49,8.32 1.57,9.8 -2.01,1.12 -3.77,3.06 -6.72,3.6l0 -0zm-79.28 3.91c0.92,-1.81 10.59,-9.05 12.92,-10.95 2.29,-1.85 4.1,-3.48 6.44,-5.37 1.56,-1.26 5.56,-4.98 7.25,-5.07 1.18,6.32 1.12,7.84 3.43,14.32 -1.05,1.04 -1.28,1.3 -3.17,1.7 -0.94,-0.66 -1.51,-1.6 -2.69,-2.58l-0.79 -0.66c-3.97,-3.4 -6.84,-0.14 -9.4,2.42 -6.41,6.44 -3.68,7.35 -14,6.18l0.01 0.01zm72.13 13.04c6.09,-2.53 9.21,-16.73 19.83,-17.56 -0.5,2.98 -2.39,6.01 -3.71,8.38 -0.95,1.72 -4.01,7.86 -2.24,9.14 3.08,1.3 6.51,-5.22 7.81,-7.61 1.44,-2.65 2.58,-8.87 8.16,-8.36 -0.34,4.84 -2.02,7.18 -2.77,11.94 4.79,-0.93 9.46,-8.78 12.55,-11.88 5.2,-5.22 7.12,-10.19 14.35,-9.96 -1.08,4.87 -0.99,3.67 -4.09,8.44 -1.48,2.27 -3.93,5.64 -4.77,8.12 6.25,-3.17 9.77,-9.96 17.48,-8.95 -1.57,2.78 -4.82,6.15 -6.08,9.55 6.27,-1.13 5.96,-5.89 16.93,-11.37 2.34,-1.18 6.19,-2.63 6.39,1.2 -3.41,2.47 -18.35,6.83 -17.9,18.26 5.75,-0.41 7.17,-6.19 9.96,-10.33 1.14,-1.69 1.71,-2.6 4.3,-2.02 1.62,3.67 -0.95,5.05 -1.08,8.36 2.75,-1.17 4.19,-3.7 6,-5.98 0.79,-1 1.81,-2.24 2.7,-3.2 1.96,-2.11 2.05,-2.68 3.63,-2.38 -0.21,1.98 -4.75,7.13 -5.96,8.54 -2.37,2.77 -3.78,5.67 -8.64,6.04l-1.65 -2.75c-1.33,0.93 -10.48,10.43 -11.22,3.12 -0.19,-1.83 0.66,-4.03 0.61,-6.15 -2.07,0.31 -3.74,0.88 -5.93,0.67 -0.42,-0.58 -0.87,-1.05 -1.24,-1.6l-1.08 -1.54c-0.04,-0.05 -0.11,-0.14 -0.17,-0.21 -6.7,1.48 -9.13,9.54 -14.77,10.49 0.22,-4.18 5.73,-12.37 6.26,-15.56 -3.01,0.78 -3.72,2.06 -5.29,3.86 -0.73,0.84 -1.59,1.38 -2.24,2.16 -0.69,0.83 -1.13,2.02 -1.93,2.88 -0.81,0.86 -3.98,3.55 -5.12,4.12 -3.47,1.75 -4.25,-0.94 -6.15,-2.31l-3.4 3.45c-1.26,1.26 -2.43,2.67 -4.33,3.11 -6.34,1.46 -4.45,-4.96 -4.84,-9.11 -3.78,0.82 -6.75,10.85 -12.05,10.95 -2.37,-4.43 1.17,-12.09 0.74,-16.62 -3.98,2.89 -9.13,14.1 -14.43,12.29 -2.8,-0.95 -2.24,-3.77 -2.12,-7.15 -1.46,0.26 -4.46,1.49 -5.51,1.35 -2.16,-0.27 -1.9,-2.53 -3.03,-3.84 -7.48,2.29 -8.13,8.88 -14.86,10.5 0.46,-3.09 1.69,-5.27 2.79,-7.84 0.98,-2.28 2.75,-5.1 3.24,-7.45 -5.79,1.43 -14.93,17.95 -24.38,18.1 -7.48,0.11 -4.55,-10.27 -2.57,-14.42 2.32,-4.86 5.02,-9.8 11.68,-9.99 0.69,1.49 4.95,3.99 0.77,10.63 -0.72,1.14 -2.69,3.39 -3.66,4.07 -1.82,1.29 -4.12,1.08 -6.6,1.31 -1.64,1.98 -1.79,4.48 -0.43,6.42 5.85,0.11 14.99,-10.37 17.67,-13.3 2.5,-2.75 5.15,-5.2 7.63,-7.86 2.69,-2.89 4.1,-5.63 10.18,-5.9 -0.62,6.63 -8.3,12.72 -8.34,16.64l7.46 -5.89c2.72,-2.13 5.52,-4.25 9.93,-3.19 -0.72,4.46 -5.91,3.39 -6.06,9.61 3.73,-0.32 6.6,-4.9 8.74,-6.73 4.9,-4.19 5.79,-2.44 11.9,-1.64 0.83,-3.16 6.15,-14.62 8.13,-18.51 1.03,-2.01 2.49,-3.71 5.27,-2.42 1.02,3.71 -1.87,6.51 -3.06,9.04 -3.36,7.15 -8.65,21.24 -9.37,28.82l-0.02 0.03zm-67.3 -28.47c-0.14,1.65 -2.36,2.52 -5.11,4.92 -1.8,1.56 -3.34,2.91 -5.38,4.59 -1.86,1.51 -2.98,4.2 -5.78,4.13 -4.51,-0.11 -7.29,-2.59 -9.93,-4.84 -1.34,-1.14 -1.69,-0.87 -2.73,-2.47 -3.68,-5.63 -3.76,-20.01 -1.54,-25.93l26.21 -0.06c-0.1,4.25 -0.61,8 -1.12,12.11 -1.12,9 2.44,5.48 5.38,7.53l-0.01 0.01zm-138.71 -17.42c12.72,0.36 32.85,-1.83 42.33,3.77 7.03,4.15 5.08,9.62 0.72,14.74 -3.62,4.25 -7.02,8.51 -11.53,11.69 -4.61,3.26 -7.2,5.77 -13.23,9.65 -14.67,9.42 -21.32,13.29 -36.94,20.62 -6.6,3.1 -2.17,4.81 -5.77,6.21 -1.86,-1.03 -0.64,-0.81 -1.85,-2.31 -4.48,1.03 -6.53,3.04 -12.03,2.33 1.98,-3.6 12.05,-1.57 14.9,-8.02l10.35 -36.13c1.5,-5.16 4.07,-13.53 4.65,-18.87 -3.47,0.03 -26.75,2 -30.13,3.01 -0.69,0.21 -1.33,0.53 -1.93,0.66 -1.71,0.36 -5.99,0.67 -7.11,-0.22 1.92,-2.41 37.21,-6.14 40.1,-6.3 1.3,-2.94 2.81,-9.31 4.3,-10.11 2,-1.07 3.79,0.55 3.81,2.74 0.01,2.02 -0.72,4.34 -0.64,6.57l-0.01 -0.04zm87.35 63.93c-4.81,-5.56 -0.36,-33.35 0.86,-40.86 0.97,-6 2.65,-13.01 4.6,-18.28 2.01,-5.44 5.07,-10.91 11.93,-11 -0.51,2.02 -5.51,10.99 -6.93,14.13 -1.88,4.17 -4.44,10.96 -5.57,15.46 -0.76,3 -0.97,5.64 -1.93,8.39 -2.18,6.22 -2.38,23.29 -1.83,29.63 4.61,-1.55 22.26,-17.46 28.06,-22.22l8.18 -6.94c4.05,-2.79 4.82,-3.55 8.59,-6.91 4.86,-4.34 3.6,-2.65 7.46,-7.29l2.64 -2.5c1.05,-0.87 1,-0.4 2.85,-1.96l8.22 -7.29c2.73,-2.39 13.29,-12.81 14.84,-15.4l4.15 -6.42c7.99,0.86 3.32,8.52 -0.66,12.51 -1.77,1.77 -9.62,8.57 -11.23,10.5 -0.95,1.14 -1.62,1.34 -2.8,2.37l-27.42 21.66c-2.24,1.66 -4.13,3.1 -6.24,4.82l-24.33 19.21c-2.81,2.19 -8.94,8.25 -13.43,8.36l-0.03 0.01zm135.92 -77.47c-0.62,3.09 0.14,3.08 -1.46,9.73 -0.57,2.38 -1.28,7.84 -2.08,9.36 -2.99,0.51 -4.94,0.3 -6.78,2.08l-8.63 18.29c-2.37,0.01 -4.75,-0.17 -6.96,0.43 -3.17,0.87 -2.07,2.15 -5.65,0 -4.3,-2.58 -8.15,0.57 -11.27,2 0.66,-3.39 3.39,-3.36 3.21,-8.69 -7.3,-3.22 -7.75,-0.22 -12.1,3.74 -1.13,1.03 -2.22,1.9 -3.4,2.81 -4.81,-1.81 -5.87,-10.54 -6.04,-17.07 1.79,-1.23 8.7,-7.56 9.93,-9.21 1.71,-2.29 3,-2.43 7.15,-2.47 3.27,-0.03 6.52,0.12 9.8,0.24 1.15,4.2 -3.77,15.83 1.19,19.07 4.97,3.25 10.06,-3.78 9.3,-12.26 -0.78,-8.74 -13.68,-12.59 -19.8,-18.16 -7.11,-6.46 -8.2,-1.77 -12,-10.89 -0.93,-2.23 -0.68,-2.88 -1.1,-4.36 -0.03,-0.1 -0.06,-0.19 -0.09,-0.28l-0.52 -1.36c-1.24,-4.14 0.56,-18.26 5.65,-23.83 1.65,-1.8 0.77,-1.56 3.91,-3.82 9.56,-6.88 25.17,-8.26 37.36,-4.9 5.69,1.57 3.5,0.58 8.07,3 1.26,0.67 1.43,0.36 2.75,1.31 2.69,1.93 4.69,4.96 5.39,9.75 0.63,4.27 0.43,10.06 -0.99,13.91 -6.92,1.09 -18.87,1.26 -25.89,0.42 -0.21,-3.43 0.86,-6.75 0.57,-10.2 -0.32,-3.76 -3.31,-5.15 -6.37,-3.1 -5,3.36 -4.86,12.51 -0.14,15.91 6,4.32 7.69,4.76 14,8.51 0.81,0.48 0.83,0.47 1.59,1.08l3.2 2.62c1.03,0.74 2.93,1.25 4.96,3.53 1.5,1.67 0.86,1.74 3.27,2.83l-0.03 0zm12.5 51.18c0.99,-2.73 3.25,-6.44 0.99,-9.3 -0.71,-0.45 -5.69,-0.69 -7.46,2.64 -0.98,1.85 0.09,0.95 -1.55,1.93 -1.17,-1.13 -0.07,-2.57 0.09,-5.84 -5.77,-0.82 -7.2,-1.43 -7.39,-9.27 -0.14,-6.16 2.78,-23.37 4.66,-29.03 1.66,-4.97 1.82,-8.94 2.89,-14.02 1.07,-5.1 5.41,-24.45 7.81,-27.64 0,0 0.48,-0.59 0.51,-0.62 1.1,-1.56 0.63,-1.95 1.82,-3.3l3.51 -3.92c0.97,-0.97 1.14,-1.79 2.5,-2.63 3.78,-2.34 2.85,-2.24 8.28,-4.63 8.26,-3.61 19.67,-3.55 29.26,-1.96 6.98,1.15 17.97,6.15 22.21,11.37 9.05,11.1 5.42,20.05 -0.53,31.21l-2.91 5.56c-1.7,4.41 -3.58,4.49 -5.52,11.57l8.17 -1.48c-0.06,3.79 -4.28,11.64 -5.78,15.18 -1.92,4.55 -5.34,9.67 -6.68,14.49l5.46 -0.57c-0.35,2.13 -0.52,3.52 -1.23,5.39 -3.17,8.44 -3.17,3 -7.65,9.34 -0.68,0.97 -0.97,1.35 -1.77,1.87 -1.33,-1.41 -1.9,-1.35 -2.64,-3.66 8.7,-1.3 5.43,-6.92 1.88,-7.3 -2.08,-0.22 -5.83,-0.04 -7.35,1.08 -1.18,0.87 -1.1,0.76 -2.55,1.5 -1.49,0.77 -1.23,1.04 -2.62,1.85 -2.65,-0.4 -2.72,-2.63 -6.96,-2 -3.08,0.46 -3.99,1.95 -6.55,2.81 0.47,-3.31 3.37,-5.69 4.14,-10.19 0.37,-2.19 0.87,-3.68 1.3,-5.74l4.23 -17.54c0.48,-1.92 1.19,-4.38 1.46,-5.51 0.52,-2.1 0.51,-4.09 1.08,-6.32l2.52 -11.48c0.64,-5.49 1.33,-5.83 2.27,-12.14 0.51,-3.46 2.41,-10.02 -1.17,-11.33 -9.55,-3.51 -10.79,20.98 -13.14,29.05 -0.61,2.06 -0.69,3.84 -1.24,5.79 -0.69,2.48 -0.84,3.37 -1.2,6.15l-5.22 23.58c-1.87,6.21 -0.56,7.55 -3.83,10.55 -1.09,0.99 -0.45,0.93 -3.35,3.66l-3.65 3.72c-1.59,1.93 -4.66,6.26 -7.09,7.11l-0.01 0.01zm-238.09 -49.24c-0.36,-3.42 0.61,-4.77 0.77,-7.5 0.36,-6.15 0.43,-8.59 1.41,-14.82 0.26,-1.69 0.36,-2.05 0.42,-3.62 0.22,-5.93 1.67,-12.06 1.96,-17.68 0.59,-12 1.23,-10.16 5.42,-10.38 10.07,-0.53 21.25,-0.14 31.36,0.28 2.7,0.11 5.49,-0.03 8.13,0.14 1.93,0.11 2.19,0.51 3.36,0.64 1.14,0.15 2.36,-0.01 3.58,0.12 2.75,0.32 9.31,3.36 11.11,4.71 0.71,7.19 -1.52,17.14 -2.16,24.39 -0.35,3.87 -0.43,8.21 -0.98,11.85 -0.19,1.28 -1.57,3.14 -2.68,3.7 -0.86,0.43 -1.85,0.42 -2.73,0.59 -1.34,0.27 -1.31,0.11 -1.75,1.15 1.14,0.97 3.88,1.48 5.46,2.58 0.55,8.59 -4.08,32.71 -3.08,38.43 -5.28,0.12 -7.84,0.12 -11.54,2.6 -2.07,1.38 -5.56,4.6 -6.6,7.01l-5.55 -0.11c1.7,-4.79 6.32,-5.77 10.61,-11.74l3.88 -7.63c2.47,-6.8 -2.31,-8.74 -3.72,-9.91 -3.03,-2.5 -6.42,-2.15 -6.96,-4.25 -0.01,-8.12 0.11,-10.95 -8.69,-9.93 0.03,2.85 0.19,5.91 -0.71,8.46 -2.37,1.41 -21.61,0.9 -25.85,0.64l0.83 -6.82c-2.69,-1.51 -0.09,-0.73 -5.29,-2.93l-0.02 0.01zm-65.25 44.12c0.46,-6.67 1.41,-12.72 2.12,-19.18 0.72,-6.46 1.28,-12.91 2.01,-19.39 0.73,-6.51 1.26,-12.98 2,-19.41 0.72,-6.31 1.76,-12.44 2.22,-18.8l0.76 -6.68c0.03,-0.11 0.04,-0.2 0.06,-0.32 0.01,-0.12 0.03,-0.21 0.05,-0.34 0.09,-0.81 0.04,-1.7 0.07,-2.52 0.12,-2.19 0.81,-7.13 1.24,-9.37 0.42,-2.23 0.99,-1.98 3.45,-2.12 8.47,-0.46 29.44,-0.27 36.44,0.47 10.22,1.08 9.1,1.5 17.52,3.51 -0.01,13.29 -2.58,25.77 -3.68,39.22 -0.63,7.74 1.17,12.37 -5.79,14.22 -6.34,1.69 -15.67,1.59 -22.67,1.61 -0.14,1.36 -0.51,2.57 -0.69,3.78 -0.21,1.41 -0.03,3.21 -0.19,4.24 -2,1.28 -7.24,2.08 -9.49,2.33 -1.6,0.17 -8.59,1.15 -8.13,3.68 2.78,4.54 11.56,0.99 16.73,0.62 -0.1,2.21 -0.77,3.79 -1.05,6.11 -0.59,5 -0.51,15.21 -2,18.5 -8.68,-0.04 -21.79,0.19 -30.96,-0.16l-0.01 -0.01zm210.74 -19.28c0.38,-3.24 2.24,-5.01 1.03,-9.55 -2.33,-8.72 -16.42,-14.46 -25.17,-20.14 -1.3,-0.84 -4.36,-4.53 -5.41,-6.05 -3.22,-4.76 -3.43,-12.44 -2.44,-18.87 2.16,-14.02 9.13,-20.08 23.05,-22.33 6.57,-1.07 14.49,-1.3 21.15,-0.19 3.3,0.56 6.16,1.31 8.94,2.48 4.18,1.75 4.61,3.24 6.37,4.51 -0.82,2.46 -1.8,2.65 -2.85,4.65 -1.26,2.39 -3.08,8.39 -3.35,11.1 -0.22,2.21 -0.11,4.23 -0.47,6.47l-16.79 -0.3c-0.22,-1.14 -0.14,-0.37 -0.06,-1.4 0.2,-2.75 1,-6.77 0.32,-9.27 -1.74,-6.35 -10.28,-3.09 -9.87,6.22 0.46,10.4 16.12,13.27 24.66,21.01l6.26 5.16c-0.16,4.13 -5.49,8.98 -8.31,11.72l-9.97 9.21c-3.56,3.14 -4.74,6.06 -7.09,5.57l-0.01 -0zm195.89 -51.49l-8.43 12.15c-1.19,2.54 -3.42,4.45 -4.13,7.48l7.56 -0.03c-1.17,5.13 -18.75,26.41 -19,29.72l1.92 0.07 4.87 0.16c-0.21,1.3 -9.76,10.69 -11.12,11.85 -1.19,1.02 -3.04,2.42 -4.5,3.32 -3.94,3.84 -8.95,10.58 -13.42,13.19 1.09,-3.83 7.81,-16.12 10.38,-20.7 1.2,-2.16 3.03,-4.46 3.96,-6.67l-11.41 1.31c0.61,-2.55 2.27,-5.38 3.35,-7.63l8.74 -17.85c0.82,-1.52 1.72,-2.08 1.61,-3.97 -3.08,-0.3 -6.61,1.02 -8.69,0.57 -0.25,-1.54 2.69,-6.31 3.51,-7.91l8.13 -15.49c1.43,-2.65 2.47,-5.32 3.84,-7.97 1.83,-3.55 3.09,-3.43 7.37,-4.43l19.32 -4.29c3.27,-0.77 6.32,-1.91 9.31,-2.59 -0.43,2.58 -10.96,16.74 -13.19,19.67l0.01 0.01zm-270.53 -27.07c16.86,-1.21 35.15,-0.31 52.08,0.1 -0.07,2.98 -0.19,3.62 -1.86,5.57 -1.24,1.43 -2.36,2.34 -3.58,3.82 -3.98,4.77 -3.27,7.43 -4.94,9.45l-12.37 0.52c-0.92,2.74 -2.29,15.02 -2.37,18.24l14.37 0.09c0.27,2.48 2.81,6.4 3.87,8.28 0.92,1.64 -0.04,8.48 -0.73,10.28 -6.3,0.94 -14.55,-0.45 -19.91,0.73 -0.5,7.02 -2.23,14.56 -4.24,20.48 -0.69,2.05 -0.9,2.43 -1.35,4.9 -0.32,1.74 -0.76,3.16 -1.17,4.75 -0.92,3.57 -0.25,7.24 -1.98,10.19 -5.51,0.34 -13.66,1.29 -18.9,0.56 0.09,-2.6 1.75,-3.42 -0.47,-4.65 -3.39,-1.09 -4.02,2.08 -7.19,3.1 0.12,-3.87 1.17,-8.02 1.62,-12.11 1.26,-11.12 2.94,-25.51 3.61,-36.23 0.41,-6.56 3.48,-25.8 3.37,-30.19 -0.15,-5.8 1.35,-12.4 2.16,-17.87l-0.01 -0zm-204.01 97.81c-0.01,-1.8 5.83,-19.96 6.86,-23.36 1.76,-5.83 3.08,-7.84 4.15,-10.96 0.51,-1.46 0.34,-1.91 0.71,-3.35l2.81 -8.25c5.27,-14.15 0.42,-22.53 -2.24,-38.23 -0.82,-4.79 -0.99,-8.79 -1.74,-13.54 5.15,-0.05 25.93,-0.77 29.51,-0.21 1.81,2.7 2.94,14.84 3.39,19.11 0.12,1.24 0.14,2.38 0.19,3.62 0.06,1.56 -0.17,1.98 1.03,2.53 1.08,-0.58 0.2,0.53 0.93,-1.2l1.45 -5.25c0.64,-2.07 1.52,-4.01 2.34,-6.14 0.79,-2.11 1.52,-4.07 2.33,-6.15 0.37,-0.97 1.9,-5.25 2.63,-5.87 2.11,-1.59 18.29,-0.86 22.17,-0.84 -0.16,4.65 -0.42,9.1 -1.59,13.3l-7.84 21.66c-0.22,0.9 -0.34,2.22 -0.59,3.09 -0.32,1.1 0.01,0.16 -0.57,1.29 -1.35,2.64 -1.44,4.35 -1.02,7.54l2.29 12.49c0.79,2.89 2.01,9.15 1.72,12.94 -0.48,6.32 -1.75,20.62 -3.51,25.87 -4.01,1.02 -14.66,0.38 -19.17,-0.15 -1.23,-3.63 -2.63,-11.68 -2.95,-16.37 -0.25,-3.55 -0.71,-4.5 -1.31,-8.16 -0.3,-1.76 -0.63,-6.93 -1.77,-7.81 -1.17,0.55 -1.04,1.55 -1.74,3.81l-2.13 8.94c-0.5,1.79 -0.95,2 -1.3,4.2 -0.71,4.45 -3.72,13.27 -5.95,15.81 -5.62,0 -25.08,0.35 -29.1,-0.34l0.01 -0.04zm-61.44 12.1c-0.21,-15.88 1.82,-31.51 2.84,-47.11 1.02,-15.55 2.52,-30.97 3.66,-46.46 0.53,-7.25 0.9,-16.11 1.88,-23.2 0.46,-3.35 2.64,-2.75 9.52,-2.98 12.34,-0.4 53.02,-2.72 60.1,-2.18 0.12,3.7 0.16,6.29 -0.71,9.61 -2.7,1.19 -5.12,0.37 -6.89,1.88 -0.27,2.26 0.86,9.73 1.5,11.98 -4.17,0.12 -7.81,1.02 -11.8,0.66 -1.23,-0.11 -10.51,0.53 -11.35,0.78 -0.61,2.33 -2.1,19.18 -1.65,22.52 8.93,0.06 16.85,-0.93 25.51,-1.1 -0.28,5.78 -1.39,11.4 -1.59,16.33l0.06 4.5c0,0.12 -0.01,0.24 -0.03,0.34 -0.01,0.1 -0.05,0.24 -0.05,0.31 -0.01,0.07 -0.07,0.34 -0.07,0.3 0,0 0.41,1.13 -2.81,1.2l-9.99 0.36c-2.73,-0.04 -4.23,0.37 -6.62,0.38 -1.61,0 -4.45,-0.31 -5.9,1.13 -1.98,1.96 -3.05,21.23 -2.72,25.36l19.24 -0.26c3.62,0.67 -3.2,9.04 -2.44,13.89 4.91,2.43 6.83,0.64 12.03,1.62 0.88,2.28 0.68,5.52 -0.43,7.18 -1,0.72 -21.77,0.69 -27.02,1.4 -1.98,0.26 -2.33,0.55 -4.2,0.53 -1.41,0 -2.9,-0.09 -4.32,-0.15 -7.43,-0.27 -33.11,1.76 -35.75,1.18l0 0zm555.44 -98.66l0 -7.87c-7.2,0.45 -16.88,3.06 -23.65,4.81l-17.27 4.12c-1.35,0.81 -1.62,3 -3.43,3.67 -4.55,-6.98 -7.25,-11.56 -14.97,-15.95 -13.54,-7.7 -35.84,-10.17 -50.07,-3.09 -8.69,4.33 -9.68,8.69 -15.51,14.95 -3.19,-1.18 -11.11,-15.08 -38.53,-12.97 -8.54,0.66 -13.56,2.81 -19.67,6.2 -3.71,2.06 -6.63,-0.19 -9.45,-1.75 -2.63,-1.46 -6.06,-2.8 -9.41,-3.48 -6.97,-1.43 -16.94,-1.38 -23.82,0.19 -3.67,0.83 -7.03,2.7 -10.16,0.2 -1.48,-1.19 -1.82,-2.16 -4.23,-2.42 -3.94,-0.42 -39.12,-0.17 -44.69,0.22 -8.08,0.58 -4.9,-0.42 -8.07,5.03 -2.34,-0.32 -4.34,-1.88 -6.63,-2.65 -9.89,-3.27 -32.81,-2.95 -43.55,-2.63 -14.62,0.45 -11.26,-0.32 -14.51,3.98 -8.38,-2.26 -13.33,-2.79 -22.73,-3.34 -17.14,-1 -34.52,-0.76 -51.67,-0.62 -11.35,0.09 -9.7,1.79 -12.67,10.56l-0.88 1.88c-0.03,-0.06 -0.12,0.17 -0.19,0.26 -1.02,-2.8 -1.1,-4.7 -1.4,-8.32 -9.01,-6.68 -10.23,-3.17 -24.35,-4.15l-0.03 -8.34c-0.98,-0.64 -1.46,-0.71 -2.41,-1.24 -2.48,-1.41 -3.88,-2.52 -7.14,-2.77 -2.85,-0.21 -32.77,1.74 -38.36,1.88 -8.43,0.24 -17.56,-0.14 -25.68,1.15 -2.54,0.41 -3.01,0.77 -3.51,3.14 -0.41,1.95 -0.36,4.07 -0.55,6.11 -0.82,9.21 -9.61,109.26 -7.92,112.71 1.14,1.05 5.03,3.3 7.12,3.6 2.55,0.36 7.49,-0.21 10.27,-0.38 6.76,-0.41 13.63,-0.46 20.39,-0.83 5.08,-0.28 38.67,-1.02 40.3,-2.07 1.44,-0.93 1.18,-2.02 1.34,-4.01 0.57,-6.94 4.95,-4.69 10.63,-4.46 13.02,0.51 8.87,-4.05 14.04,-17.63 3.21,2.79 1.39,9.65 3.89,13.45 0.04,0.06 0.1,0.16 0.15,0.22l6.67 3.66c3.12,0.45 10.44,0.03 14,0.01 4.55,-0.01 9.1,0.01 13.65,-0.04 4.56,-0.05 9.16,-0.16 13.64,-0.22 13.6,-0.22 12.95,1.64 13.91,-13.88l0.89 -9.45c0.07,-0.43 0.15,-1.08 0.28,-1.55 0.03,-0.1 0.07,-0.2 0.1,-0.28 0.03,-0.09 0.1,-0.21 0.12,-0.27 0.95,-2.36 12.92,-2.43 15.71,-2.39 -0.9,5.68 -2.86,12.03 -4.44,17.36 -2.02,6.87 -7.02,28.47 -10.51,33.02 -2.98,3.87 -12.64,2.83 -14.27,7.56 0.83,1.83 2.48,1.91 4.4,3.4 4.03,3.11 8.69,-0.98 12.34,-1.05 1.8,-0.04 2.73,2.63 4.82,1.86 1.65,-0.61 2.22,-3.09 3.26,-4.53 1.46,-2.02 12.04,-6.71 14.61,-7.9 12.78,-5.93 27.91,-18.36 37.22,-22.99 0.82,6.53 -4.69,8.95 2.48,13.37 7.53,4.63 7.63,1.46 12.78,-1.52 3.67,1.13 5.08,2.33 8.51,-0.89 5.57,-5.25 5.16,-9.68 13.63,-9.75 3.84,-0.04 7.38,-0.15 11.09,-0.24 -0.38,7.46 -3,21.66 0.82,27.56 1.41,2.18 5.62,5.9 9.66,3.58 2.6,-1.49 28.27,-21.95 34.14,-26.37 4.1,-3.09 4.69,-3.89 11.56,-3.7 0.06,3.52 -1.04,7.44 0.32,9.93 1.15,2.11 3.67,3.94 6.05,5 6.62,2.91 12.08,-1.67 15.29,-4.97 1.23,-0.07 2.67,-0.06 3.92,0.19 1.71,0.34 1.21,0.34 2.08,1.6 3.3,4.86 9.04,-4.8 12.95,-7.2 2.02,-1.24 3.22,0.16 4.69,1.36 1.36,1.13 2.73,2.29 4.28,3.46 6.78,5.08 6.52,2.12 11.2,1.35 1.38,1.52 1.51,2.23 3.12,3.52 5.95,4.75 7.51,2.18 11.51,-2.43 3.98,0.73 5.05,4.07 9.62,2.9 3.35,-0.86 5.41,-2.94 6.67,-5.56 2.99,0.5 2.52,1.8 6.63,1.13 3.15,-0.51 4.04,0.05 7.08,0.01 0.46,1.69 1.02,3.25 3.12,2.84 4.49,-0.87 2.11,-5.49 14.04,-3.34 3.84,0.69 5.75,3.32 8.65,3.6 5.06,0.5 5.54,-1.82 8.87,-3.5 1.13,0.55 1.5,0.9 2.26,1.5 -0.07,1.61 -1.17,3.65 -1.76,5.13 2.16,-1 3.36,-2.5 5.1,-3.52l-1 4.17c0.38,-0.45 2.29,-1.93 3.04,-2.52 6.49,-5.08 15.16,-13.89 21.38,-19.57 4.23,-3.88 8.01,-7.71 12.02,-11.59 1.95,-1.88 4.2,-3.72 5.98,-5.84 2.01,-2.41 3.62,-2.94 5.52,-6.09 -2.88,-0.58 -4.74,-1.03 -8,-1.34 0.81,-5.99 15.35,-20.99 18.53,-28.54l-6.89 -1.49c1.05,-4.38 7.96,-12.95 10.4,-16.39 1.8,-2.54 9.5,-14.55 11.3,-15.55l-0.02 0z"/>
   <path class="fil1" d="M1.85 124.16c2.64,0.58 28.32,-1.45 35.75,-1.18 1.41,0.05 2.9,0.14 4.32,0.15 1.87,0 2.22,-0.27 4.2,-0.53 5.25,-0.71 26.01,-0.68 27.02,-1.4 1.12,-1.66 1.31,-4.89 0.43,-7.18 -5.2,-0.98 -7.12,0.81 -12.03,-1.62 -0.76,-4.85 6.08,-13.22 2.44,-13.89l-19.24 0.26c-0.34,-4.13 0.73,-23.4 2.72,-25.36 1.45,-1.44 4.28,-1.13 5.9,-1.13 2.41,0 3.89,-0.42 6.62,-0.38l9.99 -0.36c3.22,-0.07 2.81,-1.2 2.81,-1.2 0.01,0.05 0.07,-0.22 0.07,-0.3 0.01,-0.07 0.05,-0.21 0.05,-0.31 0.01,-0.11 0.03,-0.21 0.03,-0.34l-0.06 -4.5c0.2,-4.94 1.3,-10.55 1.59,-16.33 -8.65,0.17 -16.58,1.17 -25.51,1.1 -0.45,-3.35 1.04,-20.19 1.65,-22.52 0.83,-0.25 10.12,-0.88 11.35,-0.78 3.99,0.36 7.64,-0.53 11.8,-0.66 -0.64,-2.26 -1.77,-9.72 -1.5,-11.98 1.77,-1.51 4.19,-0.71 6.89,-1.88 0.86,-3.32 0.82,-5.91 0.71,-9.61 -7.08,-0.53 -47.76,1.8 -60.1,2.18 -6.89,0.22 -9.06,-0.37 -9.52,2.98 -0.98,7.09 -1.35,15.96 -1.88,23.2 -1.14,15.5 -2.64,30.91 -3.66,46.46 -1.02,15.6 -3.05,31.22 -2.84,47.11l-0 0z"/>
   <path class="fil1" d="M434.56 117.2c2.44,-0.84 5.52,-5.17 7.09,-7.11l3.65 -3.72c2.9,-2.73 2.26,-2.67 3.35,-3.66 3.27,-3 1.96,-4.34 3.83,-10.55l5.22 -23.58c0.36,-2.78 0.51,-3.67 1.2,-6.15 0.55,-1.95 0.63,-3.73 1.24,-5.79 2.36,-8.07 3.6,-32.56 13.14,-29.05 3.58,1.31 1.69,7.87 1.17,11.33 -0.94,6.31 -1.62,6.63 -2.27,12.14l-2.52 11.48c-0.57,2.23 -0.56,4.22 -1.08,6.32 -0.27,1.13 -0.98,3.58 -1.46,5.51l-4.23 17.54c-0.42,2.06 -0.92,3.55 -1.3,5.74 -0.77,4.5 -3.67,6.88 -4.14,10.19 2.54,-0.87 3.47,-2.36 6.55,-2.81 4.24,-0.63 4.3,1.61 6.96,2 1.39,-0.79 1.13,-1.08 2.62,-1.85 1.45,-0.74 1.36,-0.63 2.55,-1.5 1.52,-1.12 5.27,-1.29 7.35,-1.08 3.56,0.37 6.82,5.99 -1.88,7.3 0.74,2.31 1.31,2.24 2.64,3.66 0.81,-0.51 1.09,-0.9 1.77,-1.87 4.48,-6.34 4.49,-0.89 7.65,-9.34 0.69,-1.86 0.87,-3.26 1.23,-5.39l-5.46 0.57c1.33,-4.84 4.75,-9.96 6.68,-14.49 1.5,-3.53 5.72,-11.38 5.78,-15.18l-8.17 1.48c1.93,-7.08 3.82,-7.17 5.52,-11.57l2.91 -5.56c5.96,-11.15 9.58,-20.11 0.53,-31.21 -4.25,-5.22 -15.24,-10.22 -22.21,-11.37 -9.61,-1.59 -21.02,-1.65 -29.26,1.96 -5.44,2.38 -4.5,2.28 -8.28,4.63 -1.36,0.84 -1.54,1.66 -2.5,2.63l-3.51 3.92c-1.19,1.35 -0.72,1.74 -1.82,3.3 -0.03,0.03 -0.5,0.62 -0.51,0.62 -2.41,3.19 -6.75,22.54 -7.81,27.64 -1.07,5.1 -1.23,9.05 -2.89,14.02 -1.88,5.65 -4.81,22.86 -4.66,29.03 0.17,7.85 1.62,8.46 7.39,9.27 -0.16,3.27 -1.25,4.7 -0.09,5.84 1.64,-0.98 0.57,-0.09 1.55,-1.93 1.77,-3.35 6.76,-3.09 7.46,-2.64 2.26,2.86 0,6.57 -0.99,9.3l0.01 -0.01z"/>
   <path class="fil1" d="M73.84 14.36c0.74,4.76 0.92,8.75 1.74,13.54 2.67,15.7 7.53,24.09 2.24,38.23l-2.81 8.25c-0.37,1.43 -0.21,1.87 -0.71,3.35 -1.08,3.12 -2.38,5.13 -4.15,10.96 -1.03,3.4 -6.87,21.56 -6.86,23.36 4.02,0.68 23.5,0.34 29.1,0.34 2.23,-2.54 5.23,-11.36 5.95,-15.81 0.35,-2.21 0.81,-2.42 1.3,-4.2l2.13 -8.94c0.68,-2.24 0.56,-3.26 1.74,-3.81 1.14,0.89 1.48,6.05 1.77,7.81 0.61,3.66 1.08,4.61 1.31,8.16 0.32,4.69 1.71,12.73 2.95,16.37 4.51,0.53 15.16,1.18 19.17,0.15 1.75,-5.25 3.03,-19.54 3.51,-25.87 0.28,-3.78 -0.93,-10.04 -1.72,-12.94l-2.29 -12.49c-0.42,-3.17 -0.34,-4.89 1.02,-7.54 0.57,-1.13 0.25,-0.19 0.57,-1.29 0.26,-0.87 0.37,-2.18 0.59,-3.09l7.84 -21.66c1.17,-4.2 1.43,-8.65 1.59,-13.3 -3.88,-0.03 -20.06,-0.76 -22.17,0.84 -0.73,0.63 -2.26,4.91 -2.63,5.87 -0.81,2.08 -1.54,4.05 -2.33,6.15 -0.81,2.13 -1.7,4.07 -2.34,6.14l-1.45 5.25c-0.73,1.74 0.16,0.62 -0.93,1.2 -1.2,-0.53 -0.97,-0.95 -1.03,-2.53 -0.05,-1.24 -0.06,-2.38 -0.19,-3.62 -0.43,-4.27 -1.57,-16.4 -3.39,-19.11 -3.58,-0.56 -24.37,0.16 -29.51,0.21l-0.01 0.04z"/>
   <path class="fil1" d="M168.87 56.11c0.09,-2.1 1.8,-23.51 3.03,-24.69 1.54,-1.48 6.16,0.26 7.2,1.05 2.98,2.31 1.02,11.01 0.38,15.8 -0.9,6.86 -3.22,8.05 -10.61,7.82l-0 0.01zm-37.66 55.98c9.18,0.36 22.28,0.14 30.96,0.16 1.49,-3.29 1.4,-13.5 2,-18.5 0.27,-2.32 0.94,-3.91 1.05,-6.11 -5.17,0.37 -13.95,3.92 -16.73,-0.62 -0.46,-2.53 6.53,-3.51 8.13,-3.68 2.24,-0.25 7.49,-1.05 9.49,-2.33 0.16,-1.02 -0.04,-2.83 0.19,-4.24 0.19,-1.21 0.56,-2.42 0.69,-3.78 7.01,-0.03 16.33,0.07 22.67,-1.61 6.96,-1.85 5.16,-6.49 5.79,-14.22 1.1,-13.45 3.67,-25.93 3.68,-39.22 -8.42,-2.02 -7.3,-2.43 -17.52,-3.51 -7.01,-0.74 -27.97,-0.93 -36.44,-0.47 -2.46,0.14 -3.03,-0.12 -3.45,2.12 -0.43,2.24 -1.12,7.18 -1.24,9.37 -0.05,0.82 0.01,1.71 -0.07,2.52 -0.01,0.12 -0.03,0.21 -0.05,0.34 -0.01,0.12 -0.04,0.2 -0.06,0.32l-0.76 6.68c-0.45,6.36 -1.5,12.5 -2.22,18.8 -0.73,6.42 -1.26,12.9 -2,19.41 -0.73,6.48 -1.29,12.93 -2.01,19.39 -0.72,6.46 -1.66,12.52 -2.12,19.18l0.01 0.01z"/>
   <path class="fil1" d="M231.97 31.03c4.38,0.05 5.9,-0.24 7.97,2.58 1.56,2.12 0.92,6.45 0.47,9.21 -1.3,8.02 -2.08,9.87 -11.07,9.85l2.63 -21.64zm-35.51 36.94c5.22,2.19 2.6,1.41 5.29,2.93l-0.83 6.82c4.24,0.27 23.48,0.78 25.85,-0.64 0.89,-2.54 0.73,-5.6 0.71,-8.46 8.8,-1.02 8.68,1.81 8.69,9.93 0.53,2.1 3.93,1.75 6.96,4.25 1.41,1.17 6.19,3.11 3.72,9.91l-3.88 7.63c-4.29,5.98 -8.9,6.94 -10.61,11.74l5.55 0.11c1.03,-2.41 4.53,-5.62 6.6,-7.01 3.71,-2.48 6.26,-2.47 11.54,-2.6 -1,-5.72 3.62,-29.83 3.08,-38.43 -1.57,-1.1 -4.3,-1.61 -5.46,-2.58 0.43,-1.04 0.41,-0.88 1.75,-1.15 0.88,-0.19 1.87,-0.17 2.73,-0.59 1.09,-0.55 2.48,-2.42 2.68,-3.7 0.55,-3.63 0.63,-7.99 0.98,-11.85 0.64,-7.24 2.86,-17.2 2.16,-24.39 -1.81,-1.35 -8.37,-4.4 -11.11,-4.71 -1.24,-0.15 -2.46,0.01 -3.58,-0.12 -1.17,-0.15 -1.41,-0.53 -3.36,-0.64 -2.64,-0.16 -5.43,-0.03 -8.13,-0.14 -10.11,-0.42 -21.3,-0.83 -31.36,-0.28 -4.19,0.22 -4.81,-1.62 -5.42,10.38 -0.28,5.62 -1.74,11.75 -1.96,17.68 -0.06,1.57 -0.16,1.93 -0.42,3.62 -0.97,6.24 -1.04,8.68 -1.41,14.82 -0.16,2.73 -1.13,4.08 -0.77,7.5l0.02 -0.01z"/>
   <path class="fil1" d="M422.06 66.03c-2.42,-1.09 -1.77,-1.15 -3.27,-2.83 -2.03,-2.28 -3.93,-2.78 -4.96,-3.53l-3.2 -2.62c-0.74,-0.61 -0.78,-0.61 -1.59,-1.08 -6.3,-3.73 -7.99,-4.19 -14,-8.51 -4.72,-3.4 -4.86,-12.55 0.14,-15.91 3.06,-2.06 6.05,-0.67 6.37,3.1 0.3,3.46 -0.78,6.76 -0.57,10.2 7.02,0.84 18.97,0.67 25.89,-0.42 1.41,-3.87 1.61,-9.65 0.99,-13.91 -0.71,-4.79 -2.69,-7.81 -5.39,-9.75 -1.31,-0.95 -1.48,-0.63 -2.75,-1.31 -4.56,-2.42 -2.37,-1.43 -8.07,-3 -12.19,-3.36 -27.8,-1.98 -37.36,4.9 -3.14,2.26 -2.26,2.02 -3.91,3.82 -5.11,5.57 -6.91,19.69 -5.65,23.83l0.52 1.36c0.03,0.09 0.06,0.19 0.09,0.28 0.43,1.49 0.17,2.13 1.1,4.36 3.81,9.11 4.9,4.43 12,10.89 6.13,5.58 19.02,9.42 19.8,18.16 0.76,8.48 -4.33,15.51 -9.3,12.26 -4.95,-3.24 -0.04,-14.87 -1.19,-19.07 -3.27,-0.1 -6.51,-0.26 -9.8,-0.24 -4.15,0.04 -5.44,0.17 -7.15,2.47 -1.23,1.65 -8.16,7.99 -9.93,9.21 0.17,6.53 1.21,15.26 6.04,17.07 1.18,-0.92 2.27,-1.79 3.4,-2.81 4.34,-3.97 4.8,-6.97 12.1,-3.74 0.17,5.33 -2.55,5.31 -3.21,8.69 3.12,-1.43 6.97,-4.58 11.27,-2 3.57,2.15 2.48,0.87 5.65,0 2.22,-0.61 4.6,-0.42 6.96,-0.43l8.63 -18.29c1.85,-1.79 3.79,-1.56 6.78,-2.08 0.81,-1.52 1.5,-6.98 2.08,-9.36 1.6,-6.66 0.84,-6.65 1.46,-9.73l0.03 0z"/>
   <path class="fil1" d="M267.3 14.25c-0.82,5.47 -2.31,12.06 -2.16,17.87 0.11,4.39 -2.98,23.63 -3.37,30.19 -0.66,10.73 -2.34,25.11 -3.61,36.23 -0.46,4.1 -1.5,8.26 -1.62,12.11 3.17,-1.02 3.81,-4.19 7.19,-3.1 2.22,1.24 0.56,2.05 0.47,4.65 5.25,0.73 13.4,-0.22 18.9,-0.56 1.74,-2.95 1.07,-6.62 1.98,-10.19 0.41,-1.59 0.84,-3.01 1.17,-4.75 0.46,-2.47 0.67,-2.85 1.35,-4.9 2.01,-5.93 3.74,-13.47 4.24,-20.48 5.37,-1.18 13.61,0.21 19.91,-0.73 0.71,-1.8 1.65,-8.64 0.73,-10.28 -1.05,-1.88 -3.6,-5.82 -3.87,-8.28l-14.37 -0.09c0.06,-3.22 1.45,-15.5 2.37,-18.24l12.37 -0.52c1.66,-2.03 0.95,-4.69 4.94,-9.45 1.23,-1.48 2.34,-2.39 3.58,-3.82 1.69,-1.93 1.79,-2.59 1.86,-5.57 -16.93,-0.41 -35.22,-1.31 -52.08,-0.1l0.01 0z"/>
   <path class="fil1" d="M341.96 92.81c2.36,0.5 3.53,-2.43 7.09,-5.57l9.97 -9.21c2.81,-2.74 8.15,-7.59 8.31,-11.72l-6.26 -5.16c-8.54,-7.74 -24.2,-10.6 -24.66,-21.01 -0.41,-9.31 8.13,-12.57 9.87,-6.22 0.68,2.5 -0.11,6.52 -0.32,9.27 -0.07,1.03 -0.16,0.27 0.06,1.4l16.79 0.3c0.37,-2.24 0.25,-4.27 0.47,-6.47 0.28,-2.7 2.08,-8.7 3.35,-11.1 1.05,-2 2.05,-2.19 2.85,-4.65 -1.76,-1.28 -2.21,-2.77 -6.37,-4.51 -2.78,-1.17 -5.64,-1.92 -8.94,-2.48 -6.67,-1.13 -14.58,-0.88 -21.15,0.19 -13.92,2.26 -20.89,8.32 -23.05,22.33 -0.99,6.44 -0.78,14.12 2.44,18.87 1.04,1.54 4.1,5.21 5.41,6.05 8.77,5.68 22.84,11.42 25.17,20.14 1.21,4.54 -0.66,6.31 -1.03,9.55l0.01 0z"/>
   <path class="fil2" d="M505.04 106.06c2.65,-5.96 9.55,-8.28 12.57,-14.59l-1.15 -0.59c-0.04,-0.02 -0.17,-0.04 -0.3,-0.07 0.14,0.03 0.27,0.05 0.31,0.07l1.15 0.59c-3.03,6.31 -9.92,8.64 -12.57,14.59l-0.01 0zm11.07 -15.27c-0.14,-0.03 -0.27,-0.05 -0.33,-0.07l-1.92 -0.07c0.29,-3.35 17.84,-24.57 18.99,-29.71l-6.62 0.02 -0.95 -0.01c0.71,-3.02 2.94,-4.94 4.13,-7.47l0.01 -0.01 0 0 8.43 -12.15c-3.57,0.73 -14,16.89 -15.5,19.83l-0.01 0.01c1.49,-2.94 11.93,-19.11 15.5,-19.84 2.23,-2.93 12.76,-17.09 13.19,-19.67 -2.99,0.68 -6.04,1.82 -9.31,2.59l-19.32 4.29c-4.28,0.99 -5.53,0.88 -7.37,4.43 -1.38,2.65 -2.42,5.32 -3.84,7.97l-8.13 15.49c-0.82,1.6 -3.74,6.37 -3.51,7.91 2.1,0.43 5.62,-0.88 8.69,-0.57 0.11,1.88 -0.78,2.44 -1.61,3.97l-8.74 17.85c-1.08,2.24 -2.74,5.07 -3.35,7.63l11.41 -1.31c-0.93,2.21 -2.75,4.53 -3.96,6.67 -2.57,4.58 -9.29,16.85 -10.38,20.7 4.45,-2.62 9.46,-9.36 13.42,-13.19l0.01 -0.01c1.46,-0.89 3.32,-2.31 4.5,-3.32 1.36,-1.17 10.91,-10.54 11.12,-11.85l-4.87 -0.16c0.05,0.02 0.18,0.04 0.32,0.07zm-2.96 -0.8c-0.29,-0.73 0.22,-1.87 0.98,-3.34l7.07 -10.63c1.98,-3 8.04,-11.63 8.9,-15.01l0.02 0c-0.84,3.37 -6.92,12.03 -8.9,15.03l-7.07 10.63c-0.76,1.46 -1.27,2.6 -0.99,3.33z"/>
   <path class="fil2" d="M346.32 118.02c0.11,-2.17 1.15,-3.84 2.1,-5.23 0.98,-1.43 1.85,-2.84 4.07,-2.94 0.56,4.85 -1.5,8.41 -6.18,8.17l0.01 0zm43.5 5.52c-0.16,-6.66 6.52,-13.03 11.72,-13.19 -0.52,2.6 -3.41,6.03 -4.77,7.65 -1.71,2.03 -4.23,4.75 -6.94,5.54zm14.98 1.93c0.72,-7.58 6.01,-21.66 9.37,-28.82 1.19,-2.53 4.08,-5.33 3.06,-9.04 -2.78,-1.3 -4.25,0.4 -5.27,2.42 -1.98,3.89 -7.32,15.34 -8.13,18.51 -6.11,-0.81 -7.01,-2.57 -11.9,1.64 -2.14,1.83 -5.01,6.41 -8.74,6.73 0.15,-6.22 5.36,-5.15 6.06,-9.61 -4.41,-1.07 -7.22,1.05 -9.93,3.19l-7.46 5.89c0.04,-3.92 7.72,-10.01 8.34,-16.64 -6.06,0.27 -7.48,3.01 -10.18,5.9 -2.48,2.65 -5.12,5.11 -7.63,7.86 -2.68,2.95 -11.82,13.43 -17.67,13.3 -1.35,-1.93 -1.19,-4.43 0.43,-6.42 2.47,-0.24 4.76,-0.03 6.6,-1.31 0.98,-0.68 2.94,-2.93 3.66,-4.07 4.18,-6.62 -0.07,-9.14 -0.77,-10.63 -6.66,0.2 -9.36,5.13 -11.68,9.99 -1.98,4.15 -4.91,14.53 2.57,14.42 9.45,-0.15 18.59,-16.68 24.38,-18.1 -0.48,2.36 -2.26,5.17 -3.24,7.45 -1.1,2.57 -2.33,4.75 -2.79,7.84 6.72,-1.62 7.38,-8.21 14.86,-10.5 1.13,1.31 0.87,3.57 3.03,3.84 1.04,0.12 4.04,-1.09 5.51,-1.35 -0.12,3.39 -0.69,6.19 2.12,7.15 5.31,1.82 10.45,-9.4 14.43,-12.29 0.42,4.53 -3.11,12.18 -0.74,16.62 5.31,-0.11 8.28,-10.13 12.05,-10.95 0.4,4.15 -1.5,10.58 4.84,9.11 1.9,-0.43 3.05,-1.85 4.33,-3.11l3.4 -3.45c1.9,1.36 2.68,4.05 6.15,2.31 1.14,-0.57 4.32,-3.26 5.12,-4.12 0.79,-0.86 1.24,-2.05 1.93,-2.88 0.66,-0.79 1.5,-1.33 2.24,-2.16 1.57,-1.8 2.28,-3.09 5.29,-3.86 -0.55,3.19 -6.04,11.38 -6.26,15.56 5.64,-0.95 8.07,-9.01 14.77,-10.49 0.06,0.06 0.14,0.16 0.17,0.21l1.08 1.54c0.37,0.53 0.82,1 1.24,1.6 2.18,0.21 3.86,-0.36 5.93,-0.67 0.04,2.11 -0.79,4.32 -0.61,6.15 0.74,7.3 9.89,-2.19 11.22,-3.12l1.65 2.75c4.86,-0.37 6.27,-3.26 8.64,-6.04 1.21,-1.41 5.75,-6.56 5.96,-8.54 -1.57,-0.28 -1.66,0.27 -3.63,2.38 -0.88,0.95 -1.91,2.19 -2.7,3.2 -1.81,2.28 -3.25,4.81 -6,5.98 0.12,-3.31 2.72,-4.7 1.08,-8.36 -2.58,-0.58 -3.16,0.34 -4.3,2.02 -2.8,4.14 -4.2,9.92 -9.96,10.33 -0.43,-11.43 14.51,-15.8 17.9,-18.26 -0.19,-3.83 -4.03,-2.38 -6.39,-1.2 -10.97,5.47 -10.65,10.24 -16.93,11.37 1.25,-3.4 4.5,-6.77 6.08,-9.55 -7.71,-1 -11.23,5.78 -17.48,8.95 0.84,-2.48 3.31,-5.85 4.77,-8.12 3.1,-4.77 3.01,-3.57 4.09,-8.44 -7.23,-0.22 -9.16,4.75 -14.35,9.96 -3.09,3.1 -7.76,10.95 -12.55,11.88 0.74,-4.76 2.43,-7.11 2.77,-11.94 -5.58,-0.52 -6.72,5.69 -8.16,8.36 -1.29,2.39 -4.74,8.92 -7.81,7.61 -1.75,-1.28 1.3,-7.41 2.24,-9.14 1.31,-2.38 3.21,-5.41 3.71,-8.38 -10.61,0.83 -13.74,15.03 -19.83,17.56l0.02 -0.03z"/>
   <path class="fil2" d="M197.8 82.61c13.27,-0.73 14.74,-1.17 27.33,0.86 4.38,0.71 2.8,0.21 7.17,2.43 18.62,9.47 -21.92,34.81 -28.9,39.42 -4.85,3.2 -21.04,12.65 -25.31,13.33 1.25,-6.39 17.46,-50.39 19.7,-56.02l0.01 -0.01zm0.98 -3.04c-0.06,-2.23 0.67,-4.55 0.64,-6.57 -0.03,-2.19 -1.81,-3.81 -3.81,-2.74 -1.49,0.79 -3,7.18 -4.3,10.11 -2.89,0.17 -38.18,3.89 -40.1,6.3 1.12,0.89 5.39,0.58 7.11,0.22 0.59,-0.12 1.24,-0.45 1.93,-0.66 3.39,-1.02 26.66,-2.99 30.13,-3.01 -0.58,5.34 -3.15,13.71 -4.65,18.87l-10.35 36.13c-2.84,6.45 -12.92,4.43 -14.9,8.02 5.49,0.71 7.55,-1.3 12.03,-2.33 1.2,1.51 -0.03,1.29 1.85,2.31 3.6,-1.4 -0.83,-3.11 5.77,-6.21 15.62,-7.33 22.27,-11.2 36.94,-20.62 6.03,-3.88 8.62,-6.39 13.23,-9.65 4.51,-3.19 7.91,-7.44 11.53,-11.69 4.36,-5.11 6.31,-10.59 -0.72,-14.74 -9.48,-5.6 -29.61,-3.41 -42.33,-3.77l0.01 0.04z"/>
   <path class="fil0" d="M225.32 85.54c0.32,6.51 -0.1,16.08 -2.15,21.9 -1.65,4.69 -2.53,3.74 -7.38,4.82 -3.15,0.69 -8.54,0.34 -11.93,0.27 -1.96,-0.04 -10.89,0.17 -11.8,-0.38 -1.96,-1.21 0.36,-7.94 0.83,-9.87 0.74,-3.09 3.92,-14.27 5.52,-17.38l0.66 -1.04c4.82,0.42 9.3,-0.03 14,0.25 4.29,0.25 8.25,1.04 12.24,1.44l0.01 0zm-27.51 -2.93c-2.24,5.63 -18.45,49.64 -19.7,56.02 4.27,-0.68 20.46,-10.13 25.31,-13.33 6.97,-4.6 47.53,-29.94 28.9,-39.42 -4.38,-2.22 -2.79,-1.72 -7.17,-2.43 -12.59,-2.02 -14.06,-1.57 -27.33,-0.86l-0.01 0.01z"/>
   <path class="fil1" d="M225.32 85.54c-4.01,-0.4 -7.95,-1.19 -12.24,-1.44 -4.71,-0.27 -9.19,0.17 -14,-0.25l-0.66 1.04c-1.6,3.11 -4.77,14.3 -5.52,17.38 -0.46,1.93 -2.79,8.65 -0.83,9.87 0.92,0.57 9.85,0.36 11.8,0.38 3.39,0.06 8.78,0.42 11.93,-0.27 4.85,-1.07 5.74,-0.14 7.38,-4.82 2.05,-5.82 2.47,-15.39 2.15,-21.9l-0.01 0z"/>
   <path class="fil1" d="M337.49 96.99c-2.94,-2.05 -6.5,1.48 -5.38,-7.53 0.51,-4.12 1.02,-7.86 1.12,-12.11l-26.21 0.06c-2.22,5.91 -2.15,20.29 1.54,25.93 1.04,1.6 1.39,1.33 2.73,2.47 2.64,2.24 5.42,4.72 9.93,4.84 2.8,0.07 3.92,-2.62 5.78,-4.13 2.06,-1.67 3.58,-3.03 5.38,-4.59 2.75,-2.41 4.97,-3.27 5.11,-4.92l0.01 -0.01z"/>
   <path class="fil2" d="M286.14 143.5c4.49,-0.11 10.61,-6.16 13.43,-8.36l24.33 -19.21c2.11,-1.72 3.99,-3.16 6.24,-4.82l27.42 -21.66c1.18,-1.03 1.83,-1.21 2.8,-2.37 1.61,-1.92 9.47,-8.73 11.23,-10.5 3.99,-3.99 8.64,-11.66 0.66,-12.51l-4.15 6.42c-1.55,2.59 -12.11,13.01 -14.84,15.4l-8.22 7.29c-1.85,1.56 -1.8,1.09 -2.85,1.96l-2.64 2.5c-3.86,4.64 -2.59,2.95 -7.46,7.29 -3.77,3.36 -4.54,4.12 -8.59,6.91l-8.18 6.94c-5.8,4.76 -23.45,20.67 -28.06,22.22 -0.53,-6.35 -0.34,-23.4 1.83,-29.63 0.97,-2.75 1.18,-5.39 1.93,-8.39 1.13,-4.5 3.7,-11.3 5.57,-15.46 1.43,-3.15 6.42,-12.13 6.93,-14.13 -6.86,0.09 -9.92,5.54 -11.93,11 -1.93,5.27 -3.62,12.28 -4.6,18.28 -1.21,7.5 -5.67,35.3 -0.86,40.86l0.03 -0.01z"/>
   <path class="fil1" d="M303.79 92.99c-1.8,-0.59 -6.06,-1.08 -7.56,0.09 -1.59,1.25 -1.34,4.18 -1.8,6.34 -0.66,3.12 -3.51,10.35 -3.31,12.52 3.61,1.09 15.67,0.57 19.65,0.12 0.62,-6.11 -1.51,-5.7 -4.14,-8.96 -2.26,-2.79 -1.66,-7.09 -2.84,-10.09l0 -0.01z"/>
   <path class="fil0" d="M168.87 56.11c7.39,0.22 9.71,-0.97 10.61,-7.82 0.63,-4.79 2.59,-13.49 -0.38,-15.8 -1.04,-0.81 -5.68,-2.54 -7.2,-1.05 -1.23,1.18 -2.94,22.59 -3.03,24.69l0 -0.01z"/>
   <path class="fil2" d="M237.42 125.02c0.12,-5.58 3.77,-8.8 6.46,-11.62 3.74,-3.92 5.39,-4.91 11.73,-6.3 -0.24,-3.16 -1.83,-3.67 -4.94,-2.77 -4.46,1.29 -6.3,3.41 -9.46,6.4 -3.58,3.39 -8.8,14.06 -4.28,15.97 3.29,1.39 7.48,-4.61 9.42,-5.7 0.56,0.73 1.48,2.32 2.15,2.95 4.48,-0.35 9.55,-7.27 11.95,-10.58 2.89,-3.98 2.79,-2.43 1.92,-4.41 -6.49,4.1 -7.64,10.12 -11.71,11.47 0.35,-2.59 1.72,-4.89 0.99,-7.77 -2.7,-1.44 -3.52,-0.46 -4.55,1.4 -0.9,1.64 -1.5,3.12 -2.36,4.65 -1.57,2.83 -3.58,5.53 -7.34,6.32l0 -0.01z"/>
   <path class="fil1" d="M332.67 112.43c10.32,1.18 7.59,0.26 14,-6.18 2.55,-2.55 5.42,-5.83 9.4,-2.42l0.79 0.66c1.18,0.98 1.75,1.92 2.69,2.58 1.9,-0.4 2.12,-0.66 3.17,-1.7 -2.33,-6.49 -2.26,-8 -3.43,-14.32 -1.7,0.09 -5.69,3.81 -7.25,5.07 -2.33,1.9 -4.14,3.52 -6.44,5.37 -2.33,1.88 -12,9.14 -12.92,10.95l-0.01 -0.01z"/>
   <path class="fil0" d="M229.35 52.67c8.99,0.03 9.77,-1.83 11.07,-9.85 0.45,-2.77 1.09,-7.08 -0.47,-9.21 -2.07,-2.8 -3.58,-2.52 -7.97,-2.58l-2.63 21.64z"/>
   <path class="fil0" d="M389.82 123.53c2.73,-0.79 5.24,-3.51 6.94,-5.54 1.36,-1.62 4.25,-5.05 4.77,-7.65 -5.2,0.16 -11.88,6.53 -11.72,13.19z"/>
   <path class="fil1" d="M411.95 108.52c2.95,-0.55 4.72,-2.49 6.72,-3.6 -0.09,-1.48 -0.69,-8.57 -1.57,-9.8 -1.52,0.74 -1.05,1.2 -1.65,3.17 -0.94,3.16 -2.44,5.75 -3.5,10.22l0 0z"/>
   <path class="fil1" d="M450.97 122.08c0.51,0.32 -0.11,0.07 0.87,0.34l2.19 0.24c3.96,0.17 7.84,0.87 8.8,-1.31 -2.41,-1.7 -2.02,0.79 -6.99,-3.31 -1.31,0.28 -4.53,2.17 -4.86,4.04l-0.01 0.01z"/>
   <path class="fil0" d="M346.32 118.02c4.67,0.25 6.73,-3.32 6.18,-8.17 -2.22,0.1 -3.1,1.51 -4.07,2.94 -0.95,1.39 -2,3.05 -2.1,5.23l-0.01 0z"/>
   <path class="fil1" d="M440.7 120.59c1.67,-0.03 2.52,0.06 2.99,-4.39 -1.38,0.67 -0.88,0.76 -1.9,1.8 -1.14,1.19 -1.1,0.36 -1.1,2.59l0.01 0z"/>
   <path class="fil1" d="M469.9 120.84c1.74,-1.04 3.08,-2.24 3.35,-4.77 -1.7,0.97 -3.08,2.77 -3.35,4.77z"/>
   <path class="fil1" d="M252.12 109.9c0.01,1.97 0.66,1.8 2.36,1.86l0.15 -2.46c-1.33,-0.03 -1.46,-0.04 -2.52,0.59l0.01 0z"/>
  </g>
 </g>
</svg>
