<?xml version="1.0" encoding="UTF-8"?>
<!DOCTYPE svg PUBLIC "-//W3C//DTD SVG 1.1//EN" "http://www.w3.org/Graphics/SVG/1.1/DTD/svg11.dtd">
<!-- Creator: CorelDRAW -->
<svg xmlns="http://www.w3.org/2000/svg" xml:space="preserve" width="83.8451mm" height="19.0002mm" version="1.1" style="shape-rendering:geometricPrecision; text-rendering:geometricPrecision; image-rendering:optimizeQuality; fill-rule:evenodd; clip-rule:evenodd"
viewBox="0 0 915.33 207.42"
 xmlns:xlink="http://www.w3.org/1999/xlink"
 xmlns:xodm="http://www.corel.com/coreldraw/odm/2003">
 <defs>
  <style type="text/css">
   <![CDATA[
    .fil0 {fill:black}
    .fil6 {fill:#2C2931}
    .fil5 {fill:#EAEAEA}
    .fil4 {fill:whitesmoke}
    .fil3 {fill:#F7F6FD}
    .fil1 {fill:#FE0000}
    .fil2 {fill:#FEFEFE}
   ]]>
  </style>
 </defs>
 <g id="Camada_x0020_1">
  <metadata id="CorelCorpID_0Corel-Layer"/>
  <g id="_2066206355568">
   <path class="fil0" d="M513.88 159.98c0.75,-1.79 1.47,-2.6 3.52,-2.99 -0.24,2.41 -1.01,3.17 -3.52,2.99zm249.37 4.85c-3.5,-9.3 -3.15,-13.37 0.36,-22.74 1.51,-4.04 6.84,-16.82 9.57,-19.16 0.08,0.11 0.14,0.28 0.18,0.37l0.43 1.14c0.02,0.08 0.21,1.18 0.22,1.21 2.06,13.53 12.3,14.85 15.14,18.75 5.17,7.11 4.53,16.04 -0.44,23.24 -3.94,5.72 -7.79,6.77 -15.49,5.83 0.34,-1.53 4.2,-5.8 5.51,-7.54 3.61,-4.77 5.99,-6.14 4.52,-7.47 -1.78,-1.02 -2.13,0.96 -4.84,1.69 0,-8.44 -3.22,-4.56 -8.19,-0.3 -2.09,1.79 -3.73,4.76 -6.97,4.97zm-376.19 -2.99c0,-1.83 -1.15,-2.09 -0.65,-5.17 0.2,-1.26 0.86,-3.06 1.34,-4.55 3.76,-11.64 1.18,-8.67 13.57,-8.71 4.37,-0.01 10.44,-0.98 14.06,-0 -0.14,7.93 -10.5,24.63 -3.13,27.85 3.94,1.72 7.22,0.07 3.44,2.96l-6.63 5.55c-4.63,4.86 -4.2,8.68 -5.8,10.72 -2.41,0.14 -7.62,-2.14 -9.45,-3.18 -15.19,-8.6 -6.75,-20.5 -6.75,-25.46zm-16.12 -27.01c3.69,-0.98 18.22,0.37 19.84,-0.57 1.47,-0.86 3.48,-12.2 4.72,-14.99 2.38,0.31 3.8,2.69 5.36,4.24l13.69 13.93c0.01,-0.06 0,0.19 -0.02,0.28 -1.74,1.6 -14.44,0.66 -17.57,0.66 -17.79,0 -5.08,0.97 -17.02,1.63 -2.93,4.91 -4,13.96 -5.66,20.48 -2.53,0.37 -8.18,0.53 -10.48,-0.39 -0.48,-1.71 2.57,-9.98 3.26,-12.63 1.05,-4.02 2.08,-9.78 3.89,-12.64zm99.53 -32.81c-2.18,3.48 -8.48,15.71 -9.46,16.57 -2.24,-0.98 -4.24,-4.77 -6.11,-6.94 -7.29,-8.44 -18.65,-14.09 -19.22,-19.05 4.55,-0.47 2.35,3.23 7.3,3.52l30.39 -0.03c0.11,1.76 -1.95,4.42 -2.89,5.93zm-85.15 1.05c-0.16,0 -3.6,-0.35 -3.9,-0.4 -1.52,-0.26 -1.89,-0.43 -1.61,-2.06l6.01 -19.2 8.12 0.04c0.19,2.51 -1.66,7.39 -2.17,10.2 -0.61,3.36 -0.75,7.79 -1.61,11.04l-4.85 0.39zm-171.21 -52c8.29,-1.02 18.12,1.45 23.17,5.7 5.65,4.75 6.96,12.47 5.85,22.08 -0.73,6.34 -6.17,27.59 -8.57,34.98 -1.3,3.99 -1.96,7.46 -3.01,11.6 -1.87,7.35 -4.39,15.26 -6.56,22.47 -3.34,11.13 -4.91,16.97 -10.9,25.48 -1.1,1.56 -2.13,2.66 -3.38,3.91 -14.91,14.9 -41.13,18.85 -53.52,7.6 -6.47,-5.87 -6.77,-13.65 -5.93,-22.03 0.78,-7.74 9.48,-39.14 11.65,-46.48 6.03,-20.42 10.19,-47.61 28.8,-58.45 10.36,-6.03 11.6,-5.52 22.39,-6.85zm-184.97 66.97c-3.97,-0.78 -14.55,1.71 -16.39,0.77 -2.45,-1.25 5.65,-10.37 6.15,-10.67 10.58,-6.39 16.38,6.54 22.55,-23.47 1.71,-8.29 0.91,-8.81 14.05,-13.6 7.63,-2.78 9.26,-3.3 6.61,5.59 -2.68,8.99 -4.4,12.07 -7.32,19.86 -2.91,7.77 -4.32,8.03 -0.2,8.15 2.86,0.09 11.36,0.25 13.09,-0.59 2.75,-1.33 5.16,-9.45 6.1,-12.34 4.02,-12.26 0.78,-14.67 9.7,-17.92 7.79,-2.83 17.22,-10.85 13.08,1.91 -1.57,4.83 -2.61,9.15 -4.47,13.99 -0.98,2.56 -4.82,10.79 -4.15,13.13 4.98,0.98 13.32,-1.39 17.14,0.15 -1.78,3.9 -14.41,8.18 -18.76,9.09 -6.15,1.28 -5.19,0.47 -7.3,6.22 -0.95,2.58 -3.57,7.76 -3.77,9.59 1.93,1.16 6.65,0.24 9.4,-0.07 3.09,-0.35 7.37,-0.48 11.05,-0.24 -2.11,5.67 -17.87,8.95 -23.66,10.38 -2.23,0.55 -2.16,0.65 -3.07,2.8 -0.53,1.26 -0.89,2.43 -1.43,3.85 -2.09,5.53 -4.41,10.59 -6.43,16.42 -1.26,3.64 -3.43,16.14 -4.71,18.06 -1.83,0.31 -4.69,-0.59 -6.07,-1.79 -2.4,-2.08 -1.08,-10.01 -0.2,-12.74l4.95 -18.26c1.82,-7.44 1.52,-6.79 -7.7,-5.9 -13.61,1.31 -13.73,1.42 -17.94,13.67 -1.78,5.17 -4.53,12.29 -5.49,17.83 -0.28,1.59 -0.54,4.8 -1.3,6.38 -3.27,2.02 -6.55,-0.23 -7.18,-3.44 -1.03,-5.27 5.24,-27.06 4.98,-31.67 -4.4,-0.63 -12.45,1.76 -17.26,0.39 -0.05,-0.1 -0.07,-0.26 -0.08,-0.33 -0,-0.06 -0.05,-0.25 -0.05,-0.33l0.43 -1.63c7.47,-16.34 17.39,-6.78 22.8,-13.63 1.85,-2.35 3.81,-6.15 2.83,-9.61zm373.05 -18.76c0,-2.31 1.5,-9.24 1.97,-11.19 0.87,-3.56 2.27,-5.83 3.68,-9.43 2.95,-7.49 1.45,-8.33 9.28,-16.43 3.65,-3.77 9.61,-7.69 16.59,-9.61 4.07,-1.12 18.62,-3.12 23.06,-1.03 0.88,7.79 -1.06,10 3.86,15.05 5.03,5.16 12.79,3.63 13.81,4.52 1.67,1.46 -2.41,18.94 -4.27,19.49l-24.53 -0.23c0.19,-5.15 3.1,-5.56 3.1,-15.38 0,-8.76 -9.27,-6.12 -12.93,-2.36 -3.26,3.35 -7.3,15.77 -5.01,22.36 2.13,6.12 17.61,15.4 25.43,26.41 2.04,2.87 0.18,5.92 -1.24,8.7l-15.23 31.32c-1.19,2.59 -2.01,5.81 -4.83,6.82 -1.76,0.63 -8.68,2.24 -10.62,1.65 0.72,-1.66 1.59,-2.76 2.5,-4.92 0.81,-1.92 1.41,-3.81 2,-5.78 5.79,-19.4 1.38,-18.34 -13.73,-33.45 -9.16,-9.15 -12.87,-10.21 -12.87,-26.5zm73.31 -7.47c0.94,-3.39 2.18,-6.49 3.11,-10.32 2.23,-9.26 0.64,-11.79 5.08,-13.77 4.7,-2.09 9.76,-6.62 12.09,-6.81 -1.61,3.7 -12.53,19.08 -14.69,23.58 -1.2,2.51 -3.23,6.47 -5.59,7.32zm-121.01 -37.24c-0.58,2.02 -0.52,1.46 -2.62,2.14 -1.86,-1.35 -1.06,0.12 -1.65,-2.14l4.27 0zm-254.06 13c0.15,-2.06 1.29,-5.69 1.84,-7.99 0.62,-2.62 0.84,-6.17 3.79,-6.17 22.22,0 20.59,-1.53 20.81,3.67 0.45,10.49 0.12,24.79 0.96,33.53l0.54 39.21 1.16 0c0.72,-5.21 13,-49.28 15.35,-57.19l5.29 -19.19 21.53 0.09c0.75,2.11 -3.15,13.96 -4.06,17.17l-25.74 93.98c-1.44,5.48 -3.45,10.71 -4.7,16.6 -1.36,6.39 -0.53,6.73 -3.98,6.73 -24.68,0 -21.94,1.72 -21.92,-7.27l0 -70.92c-1.81,1.63 -2.51,6.62 -3.26,9.4 -2.57,9.58 -17.03,65.23 -19.15,68.63l-19.19 0.17c-3.05,0 -2.27,-1.38 -1.63,-3.55l4.01 -14.91c1.54,-6.37 3.68,-13.39 5.37,-19.89 0.42,-1.61 2.35,-8.83 3.08,-9.98 1.03,-1.64 4.01,-1.65 8.78,-3.81 4.57,-2.07 13.62,-5.16 14.23,-10.97l-18.93 -0.18c-0.57,-1.8 3.45,-8.71 3.83,-9.12 0.97,-1.04 13.34,-6.14 17.93,-8.71 5.39,-3.02 6.82,-3.71 6.38,-6.53 -2.78,-0.74 -13.71,0.43 -16.68,-0.27 -0.01,-1.05 10.75,-28.42 10.37,-32.31 -3.37,-1.83 -2.97,0.01 -6,-0.19zm182.11 -11.44c-2.52,0 -1.39,-2.9 0.09,-3.05 2.53,-0.26 1.95,3.05 -0.09,3.05zm-24.87 -0.97c0.08,-0.05 0.32,-1.54 2.96,0.33 -1.34,1.71 -1.78,1.3 -2.96,-0.33zm103.98 1.1c1.18,-1.35 -0.47,-0.35 1.36,-1.3 3.12,0 2.16,-0.33 3.39,1.88 1.28,-1.78 -1.25,-1.61 0.02,-4.03 2.94,0.26 1.75,1.19 2.15,4.03 1.51,-2.07 -0.43,-3.28 1.81,-3.95 0.22,-0.06 3.87,0.53 5.22,0.53 7.28,0.03 29.59,-0.55 33.86,0.37 -0.14,2.38 -2.38,8.05 -3.27,11.12 -0.59,2.03 -0.96,3.72 -1.51,5.75 -0.31,1.14 -0.37,1.62 -0.67,2.71 -0.01,0.03 -0.41,1.24 -0.52,1.44 -0.43,0.84 -0.06,0.34 -0.65,0.96 -1.16,0.54 -19.24,0.51 -22.37,0.52 -0.86,5.77 -2.3,10.55 -3.87,16.2 -0.87,3.15 -3.93,13.1 -3.73,15.4 4.56,0.79 14.5,-0.18 17.83,0.17 2.48,0.27 1.91,0.85 1.27,3.1 -0.74,2.61 -3.96,17.52 -5.88,17.98 -2.58,0.62 -16.54,0.29 -19.19,0.29 -1.32,2.58 -6.54,22.56 -7.77,27.03 -2.14,7.82 -3.47,8.38 -0.53,8.68l19.8 0.59c1.47,0.35 1.24,1.88 1.24,1.92l-3.9 16.56c-0.93,2.89 -0.38,3.78 -3.45,3.78 -8.18,0 -43.49,0.51 -48.76,-0.28 -0.8,-2.31 1.1,-6.38 1.78,-8.83 8.3,-29.95 17.95,-63.63 25.46,-92.88 2.08,-8.09 3.07,-1.81 4.48,-6.64l4.34 -16.95c0.81,-3.3 -0.53,-3.19 2.07,-6.17zm-28.69 -0.13c-0.9,-2.87 -0.22,-3.77 3.28,-2.65l-0.29 2.76 -2.99 -0.11zm0 0c2.33,3.42 4.06,-2.34 4.85,-2.99l1.28 3.16c0.03,-0.07 0.1,0.26 0.19,0.36l0.23 -3.64c3.32,-0.43 2.45,0.07 2.64,3.64 0.98,-1.18 0.55,-2.15 0.99,-3.3 2.67,-0.7 1.61,-0.08 3.48,0.09l2.67 -0.12c0.22,1.73 0.12,1.79 0.66,3.18 1.59,0.43 2.58,0.03 3.74,1.07 -0.3,1.87 -1.25,2.47 -1.84,4.39 -1.05,3.47 -2.41,11.23 -3.72,13.84l-17.14 0.64 -29.57 108.16c-1.39,5.2 -3.5,3.39 -14.99,3.39 -2.22,0 -12.03,0.62 -13.15,-1.05 -0.71,-1.05 19.66,-72.1 22.38,-82.76 0.91,-3.57 7.57,-25.94 7.48,-27.35l-2.15 -0.56c-2.95,-0.28 -12.05,0.58 -14.47,-0.27 -0.53,-2.64 2.15,-9.22 2.89,-12.03 0.81,-3.08 0.16,-5.72 3.32,-11.15l2.89 -0.01c0.78,1.65 0.41,2.97 1.52,3.73 0.98,0.68 2.11,0.04 3.83,0.35 0,-1.79 -0.28,-2.27 0.49,-3.72l0.9 1.11c0.34,0.68 0.29,2.98 2.86,2.62 2.42,-0.35 1.72,-2.22 3.03,-4.06 6.53,-0.47 5,5.03 5.59,3.63 0.03,-0.08 0.14,0.23 0.22,0.34 1.58,-1.26 0.44,-0.55 1.42,-2.2l1.84 -0.76c0.05,0.11 0.1,0.26 0.15,0.38 0.58,1.5 -0.29,0.77 0.89,1.98 0.86,0.89 1.16,0.73 2.66,0.56 -2.03,-0.34 -2.33,-0.48 -2.6,-2.21 4.56,0 3.09,-0.45 5.05,-1.16 0.03,2.83 0.35,3.72 3.37,3.38 -2.02,-0.17 -2.81,-0.8 -3.14,-2.6 1.19,-1.07 1.64,-1.38 3.87,-1.04 0.18,0.03 1.18,0.27 1.2,0.28 0.12,0.01 0.25,0.04 0.36,0.04l1.9 -0.44c1.72,1.2 0.2,0.15 1.15,2.02 1.77,3.49 -1.33,-0 0.79,1.08zm-29.36 -0.17c-2.05,-3.93 3.87,-4.42 2.96,0.08l-2.96 -0.08zm-4.15 0.21c-2.35,2.16 -4.86,-4.63 0.31,-2.76 0.01,0.02 1.31,1.27 -0.31,2.76zm15.45 -2.14c-0.21,1.28 -0.79,1.07 -1.01,1.27 -0.58,-1.28 -0.89,-0.96 0.16,-2.46 0.59,0.3 1.09,-0.34 0.85,1.19zm50.44 0.01c-2.36,0.87 -0.73,1.08 -2.68,-0.02l1.37 -1.17 1.3 1.2zm-89.41 0.66l2.16 -0.03c-0.27,1.56 0,0.91 -0.88,1.91l1.64 0.32c0,-1.91 -0.16,-2.23 0.58,-3.8 2.1,1.45 0.03,0.8 1.71,2.95 0.98,1.26 0.91,0.51 2.5,1.54 -0.08,2 -1.48,3.65 -2.14,6.23 -0.49,1.94 -1.18,4.2 -1.76,6.49 -0.53,2.09 -1.14,4.42 -1.76,6.52 -1.52,5.12 -0.28,3.8 0.87,5.49l-7.28 26.83c-2.45,8.84 -4.78,17.35 -7.26,26.24l-10.83 39.55c-1.16,3.95 -2.14,8.9 -3.64,12.84 -2.95,0.6 -21.34,0.53 -25.07,0.27 -2.79,-0.19 -2.34,-0.78 -1.68,-3.21l33.18 -121.51c0.41,-1.51 0.44,-4.95 0.78,-5.52 1.13,-1.84 1.77,-0.09 4.11,-1.68 -0.05,-2.5 -0.59,-1.08 -1.95,-2.95 1.52,-0.17 1.04,-0.12 2.44,0.04 4.53,0.53 1.94,-1.88 4.85,0.65 -0.37,3.65 -1.57,3.01 -3.45,1.21 0.24,2.95 1.37,1.6 3.64,1.7 0.31,-2.77 -0.55,-2.54 1.28,-3.69 1.65,1.04 1.16,0.79 1.16,3.49 0.25,-0.97 0.24,-5.45 2.62,-2.87 1.63,1.77 -1.47,2.89 1.84,3.18 -1.12,-1.96 -1.18,-0.41 -0.81,-3.84l4.79 0.17c-0.84,0.82 -0.27,0.15 -1.02,0.82 -0.65,0.58 -0.33,0.21 -0.64,0.66zm182.89 -2.94c0,-6.41 4.96,-10.26 9.58,-11.99 13.52,-5.05 28.12,-2.1 44.93,-8.39 3.65,-1.36 4.7,-0.86 8.23,-0.86l3.88 -0.39c4.68,-0.38 10.02,0.78 15.52,0.78 2.75,0 5.5,-0 8.25,-0.01 4.22,-0.01 18.01,-0.72 20.16,1.05 -0.93,1.8 -0.07,0.79 -2.07,1.5 -6.82,2.39 -14.03,3.61 -20.79,6.38 -22.97,9.41 -12.39,11.44 -26.21,19.87 -4.78,2.92 -5.61,3.06 -8.52,7 -5.21,7.05 -19.89,31.12 -23.67,37.9l-11.18 19.35c-3.57,6.38 -19.89,35.27 -19.59,41 3.06,1.15 9.66,-0.56 13.26,-1.31 16.29,-3.37 10.66,-0.09 17.78,-14.19 3.99,-7.9 13.38,-24.97 15.48,-32.54 1.2,-4.31 1.13,-8.29 4.03,-11.91 9.21,-11.53 22.94,-5.34 17.89,3.8 -3.6,6.52 -15.34,16.96 -21.62,27.87 -0.7,1.22 -0.48,0.09 -0.75,1.64 -0.38,2.18 -0.16,0.62 0.17,1.35 1.87,0.2 5.39,-2.86 6.38,-4.01l5.06 -6.11c3.48,-3.92 7.24,-7.12 10.36,-11.46 3.16,-4.41 5.88,-8.94 9.35,-12.45 2.98,-3.02 8.39,-7.24 14.48,-7.24 6.82,0 7.14,2.44 12.61,5.04 2.67,-1.52 6.6,-6.67 10.08,-9.11 6.75,-4.75 8.41,-6.4 17.07,-6.4 8.72,0 13.72,10.49 10.45,18.9 -3.13,8.02 -16.1,15.2 -16.07,6.02l0.54 -9.48c-1.61,-0.07 -8.84,4.59 -10.3,5.77 -2.79,2.25 -5.86,5.35 -7.85,8.08 1.5,2.03 5.05,3.26 7.15,4.93 11.75,9.32 9.94,14.92 12.64,22.73 2.57,-0.4 2.12,-1.73 3.34,-3.98l6.04 -8.55c0.88,-1.08 1.77,-2.53 2.86,-3.92 7.19,-9.23 15.77,-17.59 24.16,-25.76 21.88,-21.32 30,-9.84 35.12,-9.05 2.01,0.31 7.54,-2.97 9.98,-2.97 5.16,0 5.27,3.72 6.15,7.76 3.4,0 6.12,-0.25 8.73,1.01 9.06,4.39 0.78,13.75 -3.26,17.78 -4.06,4.04 -17.17,17.77 -15.01,22.86 3.07,-0.45 8.94,-7.93 11.06,-10.82 2.87,-3.91 6.69,-7.35 10.05,-11.28 1.47,-1.71 3.26,-4.42 4.56,-6.09 1.43,-1.84 2.87,-3.52 4.7,-5.93 4.7,-6.2 20.37,-12 25.64,-3.04 2.54,4.32 1.2,8.92 3.08,9.63 0.91,0.34 14.32,-13.35 16.8,-15.39 6.28,-5.16 15.52,-10.11 23.77,-6.34 6.01,2.75 4.28,3.89 11.2,1.09 4.97,-2.01 11.53,-2.03 10.08,6.25 -0.52,2.96 -3.32,5.21 -4.94,7.09 -1.88,2.18 -3.39,3.9 -5.5,6.63 -5.69,7.39 -10.01,13.32 -14.07,22.27 -4.17,9.22 -8.38,20.71 -3.53,30.29 1.25,2.47 1.61,4.58 4.54,4.58 4.92,0 10.64,-9.83 14.72,-9.78 0.4,3.22 -6.48,9.87 -9.13,12.06 -1.42,1.18 -0.68,0.17 -1.34,1.69 3.01,3.04 14.61,4.96 20.9,1.37 4.31,-2.46 9.27,-12.76 9.27,-17.85 0,-7.06 -0.49,-9.88 -5.49,-14.87 -3.56,-3.55 -21.7,-12.18 -9.99,-27.27l22.84 -22.3c7.02,-5.22 19.62,-6.01 23,0.65 7.12,14.04 -3.04,25.08 -13.52,24.64 -0.86,-3.01 -1.34,-2.31 -1.34,-5.92 0,-2.65 0.36,-3.97 -0.6,-6.18 -2.62,-0.28 -0.33,-0.43 -2.44,0.66 -0.89,0.46 -1.4,0.71 -2.25,1.15 -1.78,0.91 -2.54,1.64 -3.96,2.82 -2.41,2.02 -4.65,4.21 -6.24,6.87 1.37,2.46 9.69,7.18 12.14,10.18 5.74,7.02 6.48,13.71 6.48,22.31 0,6.95 -7.36,22.56 -10.79,27.22 -4.95,6.74 -13.49,15.06 -22.86,15.06 -11.08,0 -14.54,-1.95 -21.74,-9.39 -2.07,-2.14 -2.07,-2.86 -5.65,-1.65 -4.16,1.41 -6.02,1.83 -9.42,-1.21 -2.22,-1.98 -5.26,-3.56 -6.84,-6.25 -4.17,-7.09 0.96,-14.82 -1.13,-18.28 -2.96,2.62 -5.04,5.39 -8.38,8.25 -5.76,4.93 -12.86,15.44 -16.33,17.58 -6.88,4.26 -15.35,5.83 -21.19,-0.29 -1.62,-1.7 -2.6,-3.94 -3.98,-5.76 -1.23,-1.63 0.07,-0.9 -1.63,-0.97 0.08,2.53 -1.77,16.92 -2.6,18.86 -1.25,2.93 -6.93,6.78 -10.23,3.89 -1.7,-1.49 -1.91,-3.26 -1.91,-5.38 0,-2.77 8.6,-32.61 10.08,-36.93 1.56,-4.54 7.87,-17.83 -1.77,-7.15 -3.29,3.64 -7.46,8.53 -10.94,12.35 -6.49,7.13 -12.18,15.79 -21.53,19.66 -4.8,1.99 -8.48,4.42 -13.11,0.83 -1.35,-1.05 -5.44,-4.08 -6.33,-5.26 -5.2,-6.9 -1.24,-16.18 -1.51,-19.77 -2.01,0.69 -2.47,2.33 -4.34,4.27 -4.09,4.23 -9.19,7.41 -12.33,12.42 -3.96,6.31 -11.59,13.18 -19.68,13.18 -4.98,0 -8.76,-4.87 -12.61,-7.25 -4.67,2.53 -9.87,14.37 -26.2,14.26 -5.67,-0.04 -10.54,-2.42 -14.72,-5.26 -4.95,-3.36 -6.89,-8.35 -9.5,-10.27 -3.26,3.92 0.68,22.38 -10.64,21.32 -9.52,-0.89 1.41,-27.12 2.47,-30.99 1.2,-4.36 6.76,-20.7 6.73,-23.45 -3.15,0.51 -14.25,13.77 -15.82,17.37 1.46,1.06 1.99,0.28 2.87,1.59 -0.96,1.7 -8.79,6.08 -10.65,7.46 -3.35,2.49 -6.45,5.68 -10.09,7.86 -7.77,4.66 -8.4,-0.53 -11.74,-2 -2.01,-0.88 -11.1,2.58 -13.59,3.32 -7.2,2.12 -11.42,5.81 -16.4,10.74 -5.3,5.23 -3.03,4.7 -10.66,7.26 -6.41,2.15 -10.35,8.6 -17.69,8.6 -4.15,0 -8.15,1.1 -10.25,-2.94 -3.46,-6.64 -5.1,-10.65 -1.39,-17.52 3.14,-5.81 11.41,-11.17 19.11,-12.8 2.56,-0.54 4.87,-0.55 7.28,-1.08 2.77,-0.61 2.84,-1.02 4.32,-3.41 2.12,-3.41 3.59,-6.82 5.29,-10.74 4.83,-11.09 10.71,-21.07 15.96,-32.02 1.01,-2.12 1.95,-3.21 3.05,-5.17 1.01,-1.78 1.49,-3.21 2.63,-5.15 6.02,-10.24 12.39,-19.75 17.85,-30.14 4.1,-7.79 16.49,-23.57 17.12,-31.08 -2.53,0.83 -8.23,5.66 -10.54,7.09 -7.57,4.68 -14.9,11.05 -24.11,7.4 -7.59,-3.01 -7.24,-8.33 -7.24,-15.76zm-1.08 -5.8c-11.79,-0.02 -21.58,-0.31 -32.93,3.08 -2.56,0.76 -7.41,3.15 -9.33,3.1 0.52,-5.77 2.07,-4.16 -14.16,-4.16 -6.95,0 -13.9,0 -20.85,0 -7.24,0 -13.23,0.64 -20.36,0.65l-103.76 -0.65c-1.43,1.48 -0.85,2.29 -3.39,2.46 -2.6,0.17 -2.58,-1.24 -4.81,-0.96 -2.19,0.28 -1.48,1.81 -1.51,4.23 -0.02,1.34 -0.15,4.14 -0.35,4.82 -2.13,-0.49 -1.9,-0.87 -3.01,-2.91 -1.9,-3.52 -5.92,-5.82 -9.98,-7.47 -6.3,-2.55 -13.01,-3.1 -20.6,-2.55 -9.96,0.72 -19.15,2.89 -27.71,7.03 -2.23,1.08 -5.82,4.08 -7.61,4.43 0.77,-8.63 6.19,-9.08 -6.36,-9.08 -6.62,0 -13.26,0.05 -19.88,-0 -6.32,-0.05 -4.38,1.48 -7.77,1.9 -6.6,0.81 -4.62,-0.52 -7.67,12.1 -0.57,2.35 -0.84,6.31 -2.72,7.97l-0.71 -19.21c-0.05,-4.04 -0.86,-2.76 -9.25,-2.76l-19.92 -0.03c-3.98,-0.01 -2.55,1.62 -5.77,1.97 -6.64,0.7 -3.78,-0.77 -6.57,7.86 -2.85,8.78 0.16,10.16 -7.74,13.14 -10.03,3.79 -8.96,10.21 -11.37,20.09 -0.66,2.69 -2.02,9.61 -5.13,10.36 -0.9,0.22 -4.21,0.49 -5.27,0.54 1.15,-9.45 13,-25.4 10.32,-35.53 -3.63,-0.39 -4,1.67 -6.97,0.73 -3.66,-1.15 -2.26,-1.96 -6.37,-0.18 -11.44,4.94 -16.39,4.35 -18.65,16.36 -0.8,4.27 -2.88,9.25 -4.15,13.26 -2.11,6.66 -2.88,5.56 -10.14,6.73 -8.38,1.36 -10.38,5.89 -14.3,11.97 -6.1,9.46 11.2,5.53 16.15,5.14 -0.31,1.88 -1.09,3.14 -1.88,4.75 -2.08,4.27 -7.03,2.3 -14.71,4.69 -5.31,1.66 -11.1,13.1 -10.48,14.9 3.78,4.35 12.22,0.29 17.61,1.69 -0.13,2.74 -1.66,8.37 -2.5,11.74 -1.1,4.43 -1.94,7.62 -2.55,12.59 -0.76,6.24 0.36,7.87 4.55,10.16 7.11,3.89 7.09,-0.88 8.89,-3.35 1.94,0.14 2.94,0.93 5.23,0.63 0.71,-2.16 0.88,-7.98 2.05,-11.99 1.08,-3.69 2.37,-7.12 3.62,-10.95 0.97,-2.96 2.76,-7.1 4.24,-9.81 1.55,-2.85 5.02,-2.63 8.17,-2.65 6.9,-0.04 2.19,3.93 -1.97,22.46 -0.66,2.95 -1.73,9.1 -0.23,12.31 1.27,2.71 7.11,4.24 9.45,4.95 -0.3,1.72 -0.54,1.88 -1.07,3.49 -0.22,0.68 -0.43,1.34 -0.45,2.04l0.41 2.13c1.23,0.22 2.99,0.01 4.1,0.6 2.41,1.28 -0.01,1.73 2.34,3.05 10.48,-0.77 21.46,0.11 32.05,-0.47l4.63 -19.42c1.53,1.83 0.66,8.94 0.65,11.16 -0.06,8.42 -0.14,4.51 5.77,5.44 2.27,4.36 -0.81,2.9 18.47,2.9 2.99,0 14.13,0.49 15.78,0.16 1.51,-2.94 1.99,-8.43 3.68,-10.24 5.75,3.7 3.72,4.91 14.12,8.86 6.59,2.5 10.65,4.36 18.76,4.33 24.08,-0.1 29.96,-9.82 35.11,-11.64 -0.5,2.63 -1.52,3.2 -1.47,5.35 7.29,0.68 5.1,-0.32 6.44,3.57 6.39,-0.86 35.48,0.44 37.55,-0.34 1.57,-1.23 3.66,-11.75 4.39,-14.16 4.27,-14.1 7.57,-29.23 11.79,-43.46 2.84,-9.56 5.35,-19.19 8,-28.84l6.08 -21.55c1.07,-3.94 1.03,-3.75 5.58,-3.75 -0.26,4.63 -14.02,52.05 -15.61,58.17l-11.9 43.34c-2.86,10.39 -0.82,5.68 3.11,7.32 1.75,0.73 0.84,1.49 1.45,3.26l37.77 -0.23c1.38,-2.25 3.26,-10.93 4.17,-14.27l11.76 -43.51c4.52,-17.08 9.53,-33.27 13.95,-50.5 0.8,-3.13 1.37,-4.32 4.99,-3.59 -0.09,4.67 -1.93,10.17 -3.01,14.29l-11.08 40.35c-2.23,8.74 -4.96,17.93 -7.32,26.55 -1.43,5.24 -7.14,23.57 -6.85,27.41 8.08,0 3.69,0.69 5.79,2.98 0.91,0.99 6.1,0.12 8.17,0.13 8,0.01 52.4,0.93 54.2,-0.54 1.27,-1.03 1.3,-3.42 1.86,-4.89 2.22,0.39 2.38,1.11 4.02,1.95 4.05,2.08 9.29,3.24 13.32,4.63 9.11,3.14 7.24,4.46 11.37,12.81 18.55,0 14.59,0.53 29.93,-7.96 2.14,-1.18 3.78,-2.39 6.98,-2.86 2.78,-0.41 3.92,-2.16 5.53,-4.03 2.75,-3.2 6.11,-7.51 10.18,-9.71 2.25,-1.22 11.77,-5.03 14.33,-4.77 1.91,0.19 3.08,2.7 6.35,3.27 3.29,0.57 5.79,-0.82 8.24,-1.53 10.09,-2.94 12.82,-10.23 23.78,-15.44 -0.19,8.32 -14.83,31.75 -0.13,35.83 0.48,0.13 10.22,-2 12.87,-6.21 1.76,-2.8 1.5,-4.58 2.28,-7.9 4.3,2.02 5.77,4.53 10.15,6.27 10.32,4.1 23.52,0.13 32.21,-6.09 2.05,-1.47 2.5,-2.34 5.13,-3.7 5,1.89 5.19,5.53 12.44,4.19 9.37,-1.73 17.27,-4.46 22.45,-12.36 1.55,-2.36 6.33,-8.35 8.46,-9.29 2.33,9.53 -0.09,9.19 9.34,16.26 7.18,5.38 10.86,2.41 18.56,-0.67 13.14,-5.27 14.58,-10.16 22.81,-18.89 1.56,-1.65 2.81,-4.25 4.83,-5.16 0.03,2.86 -10.27,30.96 -8.86,36.83 1.04,4.34 6,8.61 10.01,5.8 2.65,-1.86 0.43,-1.29 3.78,-1.28 2.57,0 5.28,-3.19 6.41,-4.99 1.83,-2.93 1.19,-6.1 1.9,-9.66 7.9,3.44 6.47,6.82 25.66,-1.09 7.36,-3.03 13.12,-16.05 17.45,-17.48 0.85,6.49 1.42,10.36 6.74,14.45 1.28,0.98 4.78,3.83 6.35,4.36 6.04,2.03 7.86,-3.55 12.63,1.87 0.83,0.94 1.7,1.68 2.82,2.52 2.04,1.52 4.2,2.92 6.73,3.93 5.57,2.22 12.05,2.48 18.43,0.94 18.2,-4.38 25.57,-16.89 31.81,-32.21 5.56,-13.65 2.57,-29.8 -9.28,-38.78 -4.32,-3.28 -9.61,-3.51 -4.36,-8.81 1.12,-1.14 2.24,-2.42 4.06,-2.47 0.01,2.35 -0.47,3.6 0.89,5.86 0.64,1.05 3.06,3.61 4.29,3.94 2.54,0.69 10.03,-2.76 12.25,-3.78 4.28,-1.98 6.08,-3.84 8.14,-8.34 2.62,-5.72 2.17,-8 0.01,-13.13 -2.19,-5.22 -2.66,-6.29 -7.89,-8.09 -4.52,-1.56 -7.89,-3.14 -13.57,-2.53 -10.19,1.1 -14.61,10.03 -20.01,12.7 -2.04,-2.03 -0.76,-5.1 -4.38,-7.14 -1.96,-1.1 -7.41,-2.29 -10.19,-2.16 -3.94,0.18 -6.33,2.41 -9.48,1.5 -3.14,-0.91 -6.09,-2.26 -9.47,-2.59 -17.02,-1.63 -25.9,15.96 -31.46,16.66 -1.19,-1.01 -1.65,-2.06 -2.93,-3.23 -2.48,-2.26 -10.61,-5.08 -13.59,-5.14 -4.67,-0.1 -10.51,1.93 -14.14,4.54 -1.49,1.08 -1.95,2.01 -3.77,3.02 -2.21,-1.47 -2.29,-3.76 -5.57,-4.53 -9.58,-2.25 -8.81,-7.76 -12.82,-8.66 -2.29,-0.52 -6.85,-2.1 -8.68,-1.86 -2.64,0.34 -5.67,2.34 -8.22,2.18 -6.85,-0.45 -10.51,-6.98 -25.55,1.01 -6.82,3.62 -18.01,14.64 -22.81,19.85 -3.64,3.95 -14.43,15.32 -17.18,20.15 -0.74,1.29 -0.85,2.33 -2.44,2.79 -4,-5.02 -0.18,-4.56 -11.09,-12.58 -1.87,-1.38 -3.36,-2.13 -4.82,-3.34 0.28,-2.09 3.99,-6.86 6.11,-7.65 0.76,3.75 -0.53,5.57 2.2,8.48 2.1,2.24 5.27,2.09 8.47,1.06 12.42,-3.99 19.67,-11.32 15.08,-24.66 -2.38,-6.91 -5.91,-7.34 -12.55,-9.27 -13.32,-3.85 -19.8,4.22 -28.74,11.58 -3.14,2.58 -3.34,1.08 -7.11,-0.41 -6.19,-2.45 -11.12,-1.39 -17.29,1.21 -3.19,1.34 -4.32,3.78 -6.51,4.6 -5,-4.76 -1,-2.96 -11.1,-6.27 -5.6,-1.84 -10.16,0.71 -13.56,3 -7.2,4.86 -7.44,17.01 -10.62,24.29 -4.35,9.96 -9.85,19.16 -14.41,29.23 -0.97,2.15 -1.46,4.38 -3.31,5.41 -1.83,1.01 -12.32,3.06 -14.68,2.86 -0.1,-3.2 17.22,-34.8 19.92,-39.79 5.5,-10.15 28.23,-49.06 34.28,-55.92 2.48,-2.8 5.1,-4.03 8.9,-6.14 6.4,-3.56 3.62,-2.4 7.09,-7.92 3.41,-5.42 11.41,-8.49 19.01,-11.05 3.85,-1.29 7.6,-2.39 11.46,-3.58 2.09,-0.64 3.56,-1.21 5.41,-1.88 1.99,-0.71 3.75,-1.21 3.58,-3.71l-6.59 -1.67c-5.45,-2.12 -34.62,-1.1 -42.17,-1.28 -7.75,-0.18 -8.99,-0.81 -15.75,1.5 -15.14,5.19 -34.86,3.19 -44.3,8.07 -5.18,2.67 -5.47,3.31 -9.1,8.2z"/>
   <path class="fil1" d="M548.22 176.39c-4.42,0 -12.15,-4.17 -15.29,-6.53 -2.52,-1.9 -5.15,-2.35 -4.57,-6.43 0.98,-6.82 6.67,-16.35 10.83,-21.76 2.37,-3.09 6.37,-10.08 9.51,-11.83 1.86,1.93 1.61,3.8 4.48,6.2 3.31,2.76 7.89,4.47 11.07,9.28 4.98,7.53 2.97,18.02 -2.38,24.38 -4.58,5.44 -4.41,6.69 -13.66,6.69zm138.72 -15.98c1.35,-4.91 9.58,-16.24 13.07,-21.32 1.91,-2.77 1.76,-1.89 2.69,-1.79 -0.92,1.42 -1.35,1.48 -2.17,2.81 -3.05,4.91 -10.53,18.29 -13.59,20.31zm-45.44 -2.52c0,-9.38 6.97,-23.62 11.44,-31.93l3.19 -5.54c0.83,-1.35 4.76,-9.46 6.86,-9.75 1.14,8.58 -4.57,15.96 -9.89,26.61l-7.83 16.89c-1.65,3.02 -2.12,3.7 -3.77,3.71zm64.39 1.53c0,-17.75 18.28,-36.59 31.99,-45.49 4.05,-2.63 29.52,-16.06 18.07,1.1 -7.17,10.75 -7.24,13.47 -18.19,24.49l-22.03 21.12c-3.64,2.44 -9.84,2.41 -9.84,-1.21zm-59.58 -52.53c1.61,3.79 -1.31,6.7 -2.93,9.5l-7.8 12.59c-0.99,1.31 -1.58,2.33 -2.81,3.97l-20.3 20.43c-4.02,3.64 -11.02,11.75 -17.57,8.38 -1.76,-0.91 -0.95,-3.26 -0.58,-5.63 1.69,-10.74 10.11,-23.53 17.1,-30.49 3.54,-3.53 11.08,-9.67 15.27,-11.86 3.53,-1.84 15.32,-8.13 19.63,-6.9zm-187.5 -55.1c0,7.43 -0.35,12.75 7.24,15.76 9.21,3.65 16.55,-2.72 24.11,-7.4 2.31,-1.43 8.01,-6.26 10.54,-7.09 -0.63,7.51 -13.02,23.29 -17.12,31.08 -5.46,10.38 -11.83,19.89 -17.85,30.14 -1.14,1.94 -1.63,3.37 -2.63,5.15 -1.1,1.96 -2.04,3.05 -3.05,5.17 -5.25,10.96 -11.13,20.93 -15.96,32.02 -1.71,3.92 -3.17,7.33 -5.29,10.74 -1.48,2.39 -1.55,2.8 -4.32,3.41 -2.41,0.53 -4.72,0.53 -7.28,1.08 -7.7,1.64 -15.97,6.99 -19.11,12.8 -3.71,6.86 -2.07,10.87 1.39,17.52 2.11,4.04 6.1,2.94 10.25,2.94 7.34,0 11.28,-6.45 17.69,-8.6 7.63,-2.56 5.36,-2.03 10.66,-7.26 4.99,-4.93 9.21,-8.62 16.4,-10.74 2.49,-0.73 11.58,-4.2 13.59,-3.32 3.34,1.46 3.97,6.66 11.74,2 3.64,-2.18 6.73,-5.38 10.09,-7.86 1.86,-1.38 9.69,-5.76 10.65,-7.46 -0.88,-1.31 -1.41,-0.53 -2.87,-1.59 1.57,-3.61 12.67,-16.86 15.82,-17.37 0.03,2.75 -5.53,19.09 -6.73,23.45 -1.06,3.87 -11.99,30.09 -2.47,30.99 11.32,1.06 7.38,-17.4 10.64,-21.32 2.61,1.92 4.55,6.91 9.5,10.27 4.18,2.84 9.06,5.22 14.72,5.26 16.33,0.11 21.53,-11.73 26.2,-14.26 3.85,2.38 7.62,7.25 12.61,7.25 8.09,0 15.72,-6.87 19.68,-13.18 3.14,-5.01 8.24,-8.18 12.33,-12.42 1.87,-1.94 2.32,-3.58 4.34,-4.27 0.27,3.59 -3.69,12.88 1.51,19.77 0.89,1.18 4.98,4.21 6.33,5.26 4.63,3.6 8.31,1.16 13.11,-0.83 9.35,-3.87 15.04,-12.53 21.53,-19.66 3.48,-3.82 7.65,-8.71 10.94,-12.35 9.65,-10.68 3.34,2.61 1.77,7.15 -1.49,4.31 -10.08,34.15 -10.08,36.93 0,2.12 0.22,3.89 1.91,5.38 3.3,2.89 8.98,-0.96 10.23,-3.89 0.83,-1.95 2.68,-16.33 2.6,-18.86 1.7,0.07 0.4,-0.66 1.63,0.97 1.37,1.82 2.35,4.06 3.98,5.76 5.85,6.12 14.31,4.55 21.19,0.29 3.47,-2.14 10.57,-12.65 16.33,-17.58 3.34,-2.86 5.42,-5.63 8.38,-8.25 2.09,3.46 -3.04,11.19 1.13,18.28 1.58,2.69 4.62,4.26 6.84,6.25 3.4,3.04 5.26,2.62 9.42,1.21 3.58,-1.21 3.58,-0.49 5.65,1.65 7.2,7.43 10.67,9.39 21.74,9.39 9.37,0 17.91,-8.32 22.86,-15.06 3.43,-4.67 10.79,-20.27 10.79,-27.22 0,-8.59 -0.74,-15.29 -6.48,-22.31 -2.45,-3 -10.77,-7.72 -12.14,-10.18 1.6,-2.65 3.83,-4.84 6.24,-6.87 1.41,-1.18 2.18,-1.91 3.96,-2.82 0.85,-0.44 1.37,-0.68 2.25,-1.15 2.11,-1.1 -0.18,-0.94 2.44,-0.66 0.96,2.21 0.6,3.54 0.6,6.18 -0,3.61 0.48,2.9 1.34,5.92 10.48,0.44 20.64,-10.59 13.52,-24.64 -3.38,-6.66 -15.98,-5.87 -23,-0.65l-22.84 22.3c-11.71,15.09 6.43,23.73 9.99,27.27 5,4.99 5.49,7.81 5.49,14.87 0,5.09 -4.95,15.39 -9.27,17.85 -6.3,3.59 -17.89,1.67 -20.9,-1.37 0.66,-1.52 -0.08,-0.51 1.34,-1.69 2.66,-2.2 9.53,-8.85 9.13,-12.06 -4.08,-0.06 -9.8,9.78 -14.72,9.78 -2.93,0 -3.29,-2.11 -4.54,-4.58 -4.85,-9.59 -0.65,-21.08 3.53,-30.29 4.05,-8.95 8.37,-14.88 14.07,-22.27 2.1,-2.73 3.62,-4.45 5.5,-6.63 1.62,-1.88 4.42,-4.14 4.94,-7.09 1.45,-8.28 -5.11,-8.26 -10.08,-6.25 -6.92,2.8 -5.18,1.66 -11.2,-1.09 -8.25,-3.77 -17.49,1.18 -23.77,6.34 -2.48,2.04 -15.89,15.74 -16.8,15.39 -1.89,-0.71 -0.54,-5.3 -3.08,-9.63 -5.27,-8.96 -20.94,-3.16 -25.64,3.04 -1.83,2.42 -3.27,4.1 -4.7,5.93 -1.3,1.67 -3.09,4.38 -4.56,6.09 -3.37,3.93 -7.19,7.38 -10.05,11.28 -2.12,2.89 -7.99,10.36 -11.06,10.82 -2.16,-5.09 10.95,-18.83 15.01,-22.86 4.05,-4.03 12.32,-13.4 3.26,-17.78 -2.61,-1.26 -5.32,-1.01 -8.73,-1.01 -0.88,-4.03 -0.99,-7.76 -6.15,-7.76 -2.44,0 -7.97,3.28 -9.98,2.97 -5.12,-0.79 -13.24,-12.27 -35.12,9.05 -8.39,8.17 -16.97,16.53 -24.16,25.76 -1.09,1.4 -1.97,2.84 -2.86,3.92l-6.04 8.55c-1.22,2.25 -0.77,3.58 -3.34,3.98 -2.7,-7.81 -0.88,-13.41 -12.64,-22.73 -2.1,-1.66 -5.65,-2.9 -7.15,-4.93 1.99,-2.73 5.07,-5.83 7.85,-8.08 1.45,-1.17 8.68,-5.84 10.3,-5.77l-0.54 9.48c-0.02,9.18 12.95,2 16.07,-6.02 3.28,-8.41 -1.73,-18.9 -10.45,-18.9 -8.66,0 -10.33,1.65 -17.07,6.4 -3.48,2.45 -7.4,7.59 -10.08,9.11 -5.47,-2.6 -5.78,-5.04 -12.61,-5.04 -6.09,0 -11.5,4.23 -14.48,7.24 -3.47,3.51 -6.19,8.04 -9.35,12.45 -3.11,4.34 -6.87,7.54 -10.36,11.46l-5.06 6.11c-0.99,1.14 -4.52,4.21 -6.38,4.01 -0.33,-0.73 -0.55,0.83 -0.17,-1.35 0.27,-1.55 0.05,-0.43 0.75,-1.64 6.28,-10.92 18.02,-21.35 21.62,-27.87 5.05,-9.14 -8.68,-15.33 -17.89,-3.8 -2.9,3.62 -2.83,7.6 -4.03,11.91 -2.11,7.57 -11.5,24.65 -15.48,32.54 -7.12,14.1 -1.48,10.82 -17.78,14.19 -3.6,0.74 -10.2,2.45 -13.26,1.31 -0.3,-5.74 16.02,-34.62 19.59,-41l11.18 -19.35c3.78,-6.78 18.46,-30.86 23.67,-37.9 2.91,-3.94 3.75,-4.09 8.52,-7 13.81,-8.43 3.24,-10.45 26.21,-19.87 6.76,-2.77 13.97,-3.98 20.79,-6.38 2.01,-0.71 1.14,0.3 2.07,-1.5 -2.16,-1.78 -15.94,-1.06 -20.16,-1.05 -2.75,0 -5.5,0.01 -8.25,0.01 -5.5,0 -10.83,-1.16 -15.52,-0.78l-3.88 0.39c-3.53,0 -4.58,-0.5 -8.23,0.86 -16.81,6.28 -31.42,3.34 -44.93,8.39 -4.62,1.73 -9.58,5.58 -9.58,11.99z"/>
   <path class="fil0" d="M843.96 160.49c0.9,-1.53 7.59,-3.1 13.5,-6.49 2.58,-1.48 3.4,-2.09 5.86,-3.82 4.7,-3.3 7.47,-3.31 14.39,-2.74 -1.41,2.37 -10.86,6.9 -14.36,8.59 -5.27,2.53 -12.61,4.46 -19.39,4.46zm0.97 -6.03c0.6,-1.71 6.67,-6.67 8.27,-8.61 4.8,-5.83 2.78,-3.99 12.1,-3.99 -1.57,3.17 -15.95,11.69 -20.37,12.6zm26.07 -21.71c-4.14,4.67 -23.51,1.24 -16.22,-6.15 5.97,-6.05 8.66,-2.62 13.02,1.71 1.3,1.3 2.97,2.26 3.2,4.44zm2.15 9.12c0.44,-1.65 1.06,-1.67 2.47,-2.69 1.26,-0.92 2.03,-1.65 3.3,-2.51 3.64,-2.45 16.32,-13.92 19.36,-14.25 -0.62,2.18 -7.12,11.66 -8.74,13.71 -5,6.34 -6.41,4.47 -11.2,5.29 -1.7,0.29 -3.14,0.66 -5.18,0.44zm-0.09 -12.42c-1.67,-0.88 -1.41,-1.3 -2.38,-3.04 -0.69,-1.24 -1.37,-2.22 -2.15,-3.22 -2.54,-3.29 -4.4,-3.58 -4.65,-5.95 2.63,-2.12 11.74,-2.91 15.11,-1.08 0.59,1.9 -1.33,4.77 -2.25,6.71 -0.91,1.91 -1.84,5.5 -3.69,6.58zm-9.7 -26.75l-0.78 0.18c-0.09,1.88 -0.13,2.13 -2.15,2.21 -1.79,0.07 -2.21,-0.69 -2.89,-1.92 0.9,-2.7 4.9,-5.3 8.92,-5.53 0.53,3.07 0.63,4.85 -3.1,5.05zm16.68 24.59c0.47,-2.18 11.89,-19.5 13.85,-22.69 2.33,-3.8 12.82,-21.18 14.86,-22.19 0.62,8.44 -3.5,22.88 -6.54,30.04 -1.04,2.44 -15.78,10.97 -19.13,13.35 -1.31,0.93 -1.77,1.41 -3.03,1.48zm0.54 -42.77c1.74,-0.7 7.52,0.67 8.46,2.35 0.43,0.89 -2.15,16.38 -2.79,18.54 -2.48,-1.65 -1.68,-6.29 -2.7,-10.81 -0.85,-3.81 -2.95,-8.62 -2.97,-10.08zm9 -5.58c-1.68,0.88 -6.55,1.31 -8.73,0.82 -4.04,-0.91 1.93,-3.59 5.21,-11.09 0.78,-1.79 1.59,-4.86 3.45,-5.61 1.09,3.09 0.96,12.8 0.08,15.88zm5.78 9.17c0.06,-6.03 1.84,-17.39 2.13,-26.16 0.28,-8.62 1.09,-17.27 2.06,-25.85 2.2,0.63 5.11,9.62 6.2,12.6 3.65,10 2.02,6.35 3.58,15.9 1.16,7.08 1,7.79 -4.48,13.65 -1.71,1.83 -2.87,3.2 -4.57,5.13 -3.94,4.46 -2.5,4.54 -4.92,4.74zm-43.64 -24.69c0,-2.8 1.06,-2.67 3.24,-3.11 1.68,-0.34 2.34,-1.02 4.53,-1.02l-0.72 2.63 -3.07 -0.34c-1.06,1.47 -1.74,3.09 -3.49,3.72 -0.56,-1.02 -0.49,-0.42 -0.49,-1.88zm28.61 5.39c-1.17,-1.78 -1.48,-3.74 -2.12,-5.69 -0.97,-2.95 -0.89,-3.5 0.47,-5.72 4.43,-7.24 2.5,-9.13 3.69,-11.72 1.49,0.62 2.86,3.25 3.78,5.13 1.18,2.41 1.47,3.6 0.6,6.39 -0.79,2.5 -3.87,10.58 -6.41,11.6zm-5.72 -2.48c0,3.46 0.2,5.87 -2.42,8.34 -2.6,2.45 -2.98,1.31 -5.87,2.32 0.13,1.56 0.62,1.83 1.7,3.12 1.02,1.23 1.37,1.68 2.33,2.99 1.55,2.11 2.84,3.89 4.15,6.51 5.01,10.06 5.15,10.48 5.15,21.32 0,2.37 -3.14,0.64 -5.6,0.33 -14.15,-1.8 -13.69,6.6 -18.81,1.65 1.43,-1.62 4.74,-2.44 8.14,-4.38 6.01,-3.42 6.18,-4.02 6.18,-9.23 0,-5.28 -4.83,-10.19 -9.67,-10.46 -4.95,-0.27 -11.65,3.74 -11.65,9.01 0,5.58 8.25,6.9 5.82,11.94 -3.82,-0.88 -4.62,-4.85 -6.28,-8.47 -1.51,-3.28 -3.31,-7.67 -3.41,-11.8 2.17,0.52 0.65,0.04 1.71,0.91l1.3 1.21c1.81,-1.69 3.26,-3.53 5,-5.26 2.57,-2.55 1.69,-0.65 4.87,-3.88 0.6,-0.61 0.06,-0.23 0.79,-0.74 2.93,1.24 5.47,3.88 7.53,5.65 1.37,1.17 2.36,2.13 3.38,3.43 0.75,0.95 1.99,3.01 2.95,3.49 -0.51,-2.52 -1.48,-3.6 -2.88,-5.52 -1.08,-1.48 -2.72,-3.47 -3.95,-4.77 -1.86,-1.95 -8.02,-7.31 -10.88,-6.18 -0.32,0.77 0.28,1.41 0.65,2.35 -2.47,-0.3 -2.58,-1.33 -4.29,-0.07 -0.85,0.62 -1.97,2.19 -2.93,2.93 -4.11,3.21 -5.97,0.76 -5.97,7.99 0,2.69 2.14,4.29 1.71,7.14 -3.45,0.42 -5.59,-3.78 -5.59,-7.14 0,-1.78 2.41,-7.86 3.03,-9.94 1.22,-4.11 2.01,-7.63 2.01,-11.88 0,-3.35 -2.15,-6.91 -4.17,-8.36 -2.88,0.29 -3.09,1.91 -7.47,2.31 0,-7.16 4.79,-18.71 9.4,-23.53 5.86,-6.11 18.95,3.66 19.63,8.97 -1.66,1.57 -2.87,1.49 -4.86,1.91 -9.69,2.04 -8.9,6 -15.48,6.01 1.69,5.01 12.33,20.91 21.59,10.79 3.16,-3.46 1.82,-5.28 2.52,-7.15 0.75,-2 3.02,-1.33 5.49,-4.23 3.61,-4.26 1.92,-11.58 3.05,-16.79 7.57,0.8 4.66,12.92 2.3,16.81 -3.24,5.33 -0.21,3.82 -0.21,10.36zm-60.51 -18.98c0.54,-2.24 1.64,-2.52 3.2,-4.28 1.36,-1.54 2.18,-3.21 3.45,-4.32 1.46,-1.28 11.4,-2.08 11.13,2.29 -0.53,8.77 -12.4,12.66 -17.77,6.31zm-21.72 2.21c3.29,-6 12.65,-10.48 22.19,-10.48 -1.99,3.78 -5.57,5.52 -9.71,6.59l-12.48 3.88zm70.59 -0.68c0,-9.7 -7.37,-12.21 -7.91,-16.47 1.81,-1.55 8.89,0.28 10.37,1.79 3.61,3.67 3.2,16.46 0.8,20.87 -3.31,0.72 -2.46,-0.98 -6.65,0.19 -2.14,0.6 -3.52,1.44 -5.87,1.95 0.92,-5.13 9.26,-3.34 9.26,-8.33zm-84.17 8.83c0.73,-4.2 2.03,-6.99 3.61,-10.29 1.65,-3.44 2.44,-5.56 4.57,-9 3.96,-6.39 7.72,-13.17 14.32,-11.41 -0.34,2.11 0.02,0.87 -1.39,2.06 -6.69,5.62 -11.61,12.71 -15.9,20.46 -1.51,2.73 -3.16,7.04 -5.21,8.18zm16.58 -17.53c1.8,-2.79 2.64,-2.69 4.87,-4.45 9.32,-7.35 23.1,-10.13 34.97,-10.6 2.37,-0.1 15.92,0.28 17.07,0.98 -1.13,2.27 -8.76,6.98 -11.29,7.18 -6.97,0.57 -11.24,-3.83 -32.57,1.42 -9.1,2.24 -9.38,4.19 -13.06,5.48zm60.45 -18.44c0.72,-2.14 4.25,-5.05 5.84,-7.04 3.05,-3.79 3.77,-1.46 5.37,2.38 1.49,3.58 7.39,13.61 7.33,16.59 -1.01,-0.44 -17.57,-10.54 -18.54,-11.93zm-54.2 0.68c1.32,-2.65 10.03,-7.69 13.01,-9.16 4.96,-2.45 7.78,-4.56 10.3,-3.08 1.43,0.84 2.84,1.97 4.33,2.96 3.57,2.35 7.68,4.32 7.8,6.65 -0.9,0.32 -14.7,0.67 -17.43,0.95l-18.02 1.67zm75.91 1.61c-1.15,-1.84 -7.53,-10.85 -7.05,-12.67 1.83,-0.34 13.71,5.55 14.51,6.19l10.77 10.49c-0.16,2.39 -1.3,6.54 -1.88,9.14 -0.68,3.06 -1,7.21 -2.41,8.43 -1.24,-0.71 -0.96,-0.67 -1.9,-2.11l-12.03 -19.47zm-46.61 -15.87c4.06,-2.28 25.3,-2.31 30.09,0.48 -0.62,2.07 -0.28,0.89 -3.38,3.01 -5.84,4.01 -7.78,6.85 -11.24,5.27 -2.86,-1.31 -14.71,-6.59 -15.47,-8.76zm-58.24 67.39c2.01,-1.12 7.99,-8.34 10.06,-10.8 4.58,-5.45 11.97,-10.43 19.14,-11.94 4.03,-0.85 5.25,-0.73 8.75,0.8 13.61,5.93 9.13,1.54 16.25,1.52 -0.29,2.96 -1.73,6.41 -0.87,9.28 0.58,1.94 1.36,2.24 2.04,3.77 0.69,1.54 0.73,3.23 1.15,4.65l1.48 -1.33c0.59,-0.69 2.56,-4.2 3.56,-3.21 0.56,1.23 -2.14,3.72 -2.79,5.99 -0.84,2.92 1.2,4.95 1.96,7.94 3.3,12.93 -0.69,17.04 9.99,19.58 2.73,0.65 2.48,1.6 4.85,5.32 2.19,3.44 4.33,7.47 7.37,10.04 1.67,1.41 0.4,-0.55 1.43,1.53 -3.16,3.3 -9.11,4.16 -8.67,11.07 0.36,5.7 5.69,4.79 -2.06,13.62 -3.78,4.31 -19.83,18.36 -20.57,19.43 3.77,2.76 21.2,1.77 26.4,0.96 23.48,-3.64 40.53,-17.74 51.21,-38.99 1.44,-2.87 3.47,-6.95 4.54,-10.02 3.72,-10.63 7.44,-26.55 7.4,-37.77 -0.08,-20.78 0.74,-21.75 -6.21,-38.97 -3.64,-9.02 -11.8,-19.59 -19.69,-24.92 -21.13,-14.29 -48.72,-17.02 -71.4,-7.58 -5.46,2.27 -14.95,7.86 -18.66,11.37 -6.25,5.92 -8.77,7.47 -14.31,15.74 -6.09,9.09 -10.76,20.93 -13.25,31.81 -1.08,4.72 -2.86,8.88 0.87,11.09z"/>
   <path class="fil2" d="M177.61 166.69c0,-6.97 11.93,-47.02 14.01,-54.1 2.11,-7.16 9.04,-35.34 11.72,-39.15 2.26,-3.21 7.63,-5.66 11.35,-2.8 3.34,2.58 0.93,9.52 0.17,13.28 -0.96,4.75 -2.09,9.09 -3.39,13.62 -5.7,19.82 -12.59,48.33 -18.73,66.16 -0.69,2.02 -1.26,4.27 -2.77,5.93 -3.82,4.2 -12.35,4.65 -12.35,-2.94zm36.49 -115.61c-10.79,1.33 -12.03,0.82 -22.39,6.85 -18.61,10.84 -22.77,38.03 -28.8,58.45 -2.17,7.34 -10.88,38.73 -11.65,46.48 -0.84,8.37 -0.54,16.15 5.93,22.03 12.39,11.26 38.61,7.31 53.52,-7.6 1.25,-1.25 2.28,-2.35 3.38,-3.91 5.99,-8.51 7.55,-14.35 10.9,-25.48 2.17,-7.21 4.69,-15.12 6.56,-22.47 1.05,-4.14 1.72,-7.6 3.01,-11.6 2.4,-7.39 7.84,-28.64 8.57,-34.98 1.11,-9.61 -0.2,-17.33 -5.85,-22.08 -5.05,-4.24 -14.88,-6.72 -23.17,-5.7z"/>
   <path class="fil2" d="M100.42 67.59c3.03,0.2 2.63,-1.64 6,0.19 0.38,3.89 -10.38,31.26 -10.37,32.31 2.97,0.7 13.9,-0.47 16.68,0.27 0.44,2.82 -0.99,3.51 -6.38,6.53 -4.59,2.57 -16.96,7.66 -17.93,8.71 -0.38,0.4 -4.39,7.31 -3.83,9.12l18.93 0.18c-0.61,5.81 -9.66,8.9 -14.23,10.97 -4.77,2.16 -7.75,2.17 -8.78,3.81 -0.73,1.15 -2.66,8.37 -3.08,9.98 -1.69,6.51 -3.83,13.52 -5.37,19.89l-4.01 14.91c-0.64,2.17 -1.42,3.55 1.63,3.55l19.19 -0.17c2.12,-3.39 16.58,-59.05 19.15,-68.63 0.74,-2.77 1.44,-7.76 3.26,-9.4l-0 70.92c-0.03,8.99 -2.76,7.27 21.92,7.27 3.45,0 2.62,-0.34 3.98,-6.73 1.25,-5.9 3.26,-11.13 4.7,-16.6l25.74 -93.98c0.91,-3.2 4.81,-15.05 4.06,-17.17l-21.53 -0.09 -5.29 19.19c-2.35,7.92 -14.62,51.99 -15.35,57.19l-1.16 0 -0.54 -39.21c-0.84,-8.74 -0.51,-23.04 -0.96,-33.53 -0.22,-5.2 1.41,-3.67 -20.81,-3.67 -2.95,0 -3.17,3.55 -3.79,6.17 -0.54,2.3 -1.69,5.93 -1.84,7.99z"/>
   <path class="fil2" d="M366.4 56.87c-1.24,-2.21 -0.27,-1.88 -3.39,-1.88 -1.84,0.95 -0.19,-0.05 -1.36,1.3 -2.59,2.98 -1.26,2.87 -2.07,6.17l-4.34 16.95c-1.41,4.83 -2.4,-1.45 -4.48,6.64 -7.51,29.25 -17.16,62.93 -25.46,92.88 -0.68,2.44 -2.58,6.51 -1.78,8.83 5.27,0.79 40.58,0.29 48.76,0.28 3.07,0 2.52,-0.9 3.45,-3.78l3.9 -16.56c-0,-0.03 0.23,-1.56 -1.24,-1.92l-19.8 -0.59c-2.94,-0.3 -1.61,-0.86 0.53,-8.68 1.23,-4.47 6.45,-24.45 7.77,-27.03 2.66,0 16.62,0.34 19.19,-0.29 1.92,-0.47 5.14,-15.37 5.88,-17.98 0.64,-2.25 1.21,-2.83 -1.27,-3.1 -3.33,-0.36 -13.27,0.62 -17.83,-0.17 -0.2,-2.3 2.86,-12.25 3.73,-15.4 1.57,-5.65 3.01,-10.42 3.87,-16.2 3.13,-0.01 21.21,0.02 22.37,-0.52 0.6,-0.62 0.22,-0.12 0.65,-0.96 0.1,-0.2 0.51,-1.41 0.52,-1.44 0.3,-1.09 0.36,-1.57 0.67,-2.71 0.55,-2.03 0.92,-3.72 1.51,-5.75 0.89,-3.06 3.14,-8.74 3.27,-11.12 -4.26,-0.92 -26.58,-0.34 -33.86,-0.37 -1.35,-0.01 -5,-0.6 -5.22,-0.53 -2.24,0.66 -0.3,1.88 -1.81,3.95 -0.41,-2.83 0.79,-3.77 -2.15,-4.03 -1.26,2.42 1.26,2.25 -0.02,4.03z"/>
   <path class="fil2" d="M332.95 56.15c-2.12,-1.08 0.98,2.41 -0.79,-1.08 -0.95,-1.87 0.57,-0.82 -1.15,-2.02l-1.9 0.44c-0.11,-0 -0.24,-0.03 -0.36,-0.04 -0.02,-0 -1.02,-0.25 -1.2,-0.28 -2.23,-0.34 -2.69,-0.03 -3.87,1.04 0.33,1.8 1.12,2.43 3.14,2.6 -3.02,0.34 -3.34,-0.55 -3.37,-3.38 -1.96,0.71 -0.49,1.16 -5.05,1.16 0.27,1.73 0.57,1.87 2.6,2.21 -1.5,0.17 -1.8,0.33 -2.66,-0.56 -1.18,-1.21 -0.31,-0.48 -0.89,-1.98 -0.05,-0.12 -0.11,-0.27 -0.15,-0.38l-1.84 0.76c-0.98,1.65 0.16,0.94 -1.42,2.2 -0.09,-0.1 -0.19,-0.41 -0.22,-0.34 -0.59,1.4 0.93,-4.1 -5.59,-3.63 -1.31,1.84 -0.6,3.71 -3.03,4.06 -2.57,0.37 -2.53,-1.93 -2.86,-2.62l-0.9 -1.11c-0.77,1.45 -0.49,1.93 -0.49,3.72 -1.72,-0.31 -2.85,0.33 -3.83,-0.35 -1.11,-0.76 -0.75,-2.09 -1.52,-3.73l-2.89 0.01c-3.15,5.43 -2.51,8.07 -3.32,11.15 -0.74,2.82 -3.42,9.39 -2.89,12.03 2.42,0.85 11.52,-0 14.47,0.27l2.15 0.56c0.08,1.41 -6.58,23.78 -7.48,27.35 -2.71,10.66 -23.09,81.71 -22.38,82.76 1.12,1.66 10.93,1.05 13.15,1.05 11.5,0 13.61,1.81 14.99,-3.39l29.57 -108.16 17.14 -0.64c1.31,-2.61 2.67,-10.37 3.72,-13.84 0.58,-1.93 1.53,-2.52 1.84,-4.39 -1.15,-1.04 -2.14,-0.64 -3.74,-1.07 -0.54,-1.39 -0.44,-1.45 -0.66,-3.18l-2.67 0.12c-1.87,-0.16 -0.8,-0.78 -3.48,-0.09 -0.44,1.16 -0.01,2.12 -0.99,3.3 -0.2,-3.57 0.67,-4.07 -2.64,-3.64l-0.23 3.64c-0.09,-0.1 -0.16,-0.44 -0.19,-0.36l-1.28 -3.16c-0.79,0.64 -2.52,6.4 -4.85,2.99z"/>
   <path class="fil1" d="M64.74 115.24c-0.1,3.34 -2.96,12.5 -4.9,13.56 -1.87,1.01 -6,0.66 -8.57,0.66 -3.19,-0 -5.82,0.4 -8.3,0.44 -4.54,0.06 -2.21,-3.53 1.45,-11.27 1.46,-3.1 2.73,-2.54 6.35,-2.79 5.75,-0.39 7.81,-1.06 13.98,-0.59zm-35.61 2.81c0.98,3.46 -0.97,7.26 -2.83,9.61 -5.41,6.86 -15.33,-2.71 -22.8,13.63l-0.43 1.63c0,0.08 0.05,0.26 0.05,0.33 0,0.06 0.03,0.23 0.08,0.33 4.81,1.37 12.86,-1.02 17.26,-0.39 0.25,4.61 -6.01,26.4 -4.98,31.67 0.63,3.21 3.91,5.46 7.18,3.44 0.76,-1.58 1.03,-4.79 1.3,-6.38 0.96,-5.54 3.71,-12.66 5.49,-17.83 4.21,-12.25 4.32,-12.36 17.94,-13.67 9.21,-0.89 9.52,-1.54 7.7,5.9l-4.95 18.26c-0.87,2.73 -2.19,10.65 0.2,12.74 1.37,1.19 4.24,2.1 6.07,1.79 1.27,-1.92 3.45,-14.42 4.71,-18.06 2.02,-5.83 4.34,-10.89 6.43,-16.42 0.54,-1.42 0.89,-2.59 1.43,-3.85 0.9,-2.15 0.84,-2.25 3.07,-2.8 5.79,-1.43 21.55,-4.71 23.66,-10.38 -3.68,-0.24 -7.96,-0.11 -11.05,0.24 -2.75,0.31 -7.47,1.23 -9.4,0.07 0.2,-1.84 2.82,-7.01 3.77,-9.59 2.11,-5.75 1.16,-4.94 7.3,-6.22 4.35,-0.91 16.98,-5.19 18.76,-9.09 -3.82,-1.54 -12.16,0.82 -17.14,-0.15 -0.66,-2.33 3.17,-10.57 4.15,-13.13 1.86,-4.84 2.9,-9.16 4.47,-13.99 4.14,-12.76 -5.29,-4.74 -13.08,-1.91 -8.93,3.25 -5.68,5.66 -9.7,17.92 -0.95,2.88 -3.35,11.01 -6.1,12.34 -1.73,0.84 -10.22,0.68 -13.09,0.59 -4.12,-0.12 -2.72,-0.38 0.2,-8.15 2.92,-7.8 4.64,-10.87 7.32,-19.86 2.65,-8.88 1.02,-8.37 -6.61,-5.59 -13.15,4.79 -12.35,5.31 -14.05,13.6 -6.17,30.01 -11.98,17.08 -22.55,23.47 -0.5,0.3 -8.6,9.42 -6.15,10.67 1.84,0.94 12.42,-1.55 16.39,-0.77z"/>
   <path class="fil2" d="M402.18 99.3c0,16.29 3.71,17.34 12.87,26.5 15.11,15.1 19.52,14.04 13.73,33.45 -0.59,1.97 -1.19,3.87 -2,5.78 -0.91,2.16 -1.78,3.27 -2.5,4.92 1.94,0.59 8.87,-1.02 10.62,-1.65 2.82,-1.01 3.64,-4.23 4.83,-6.82l15.23 -31.32c1.43,-2.78 3.29,-5.83 1.24,-8.7 -7.82,-11.01 -23.3,-20.29 -25.43,-26.41 -2.29,-6.59 1.75,-19.01 5.01,-22.36 3.66,-3.76 12.93,-6.39 12.93,2.36 0,9.82 -2.91,10.24 -3.1,15.38l24.53 0.23c1.86,-0.55 5.94,-18.04 4.27,-19.49 -1.02,-0.89 -8.78,0.64 -13.81,-4.52 -4.92,-5.05 -2.98,-7.26 -3.86,-15.05 -4.43,-2.08 -18.98,-0.08 -23.06,1.03 -6.98,1.91 -12.94,5.84 -16.59,9.61 -7.83,8.1 -6.33,8.94 -9.28,16.43 -1.42,3.6 -2.81,5.87 -3.68,9.43 -0.48,1.94 -1.97,8.88 -1.97,11.19z"/>
   <path class="fil2" d="M277.2 56.61c-1.69,0.81 -2.05,0.43 -2.3,-1.42 0.34,-0.64 -0.52,-0.44 1.01,-0.45 0.31,-0.45 -0.01,-0.08 0.64,-0.66 0.75,-0.67 0.18,-0 1.02,-0.82l-4.79 -0.17c-0.37,3.43 -0.31,1.88 0.81,3.84 -3.31,-0.29 -0.21,-1.41 -1.84,-3.18 -2.38,-2.58 -2.37,1.9 -2.62,2.87 -0,-2.71 0.49,-2.45 -1.16,-3.49 -1.83,1.15 -0.97,0.92 -1.28,3.69 -2.27,-0.1 -3.41,1.24 -3.64,-1.7 1.88,1.81 3.09,2.44 3.45,-1.21 -2.91,-2.54 -0.32,-0.13 -4.85,-0.65 -1.4,-0.16 -0.92,-0.21 -2.44,-0.04 1.35,1.87 1.9,0.45 1.95,2.95 -2.34,1.58 -2.99,-0.16 -4.11,1.68 -0.35,0.57 -0.38,4 -0.78,5.52l-33.18 121.51c-0.66,2.44 -1.11,3.02 1.68,3.21 3.73,0.26 22.12,0.33 25.07,-0.27 1.5,-3.95 2.48,-8.89 3.64,-12.84l10.83 -39.55c2.47,-8.89 4.81,-17.4 7.26,-26.24l7.28 -26.83c-1.15,-1.69 -2.39,-0.37 -0.87,-5.49 0.62,-2.1 1.23,-4.43 1.76,-6.52 0.58,-2.29 1.27,-4.55 1.76,-6.49 0.65,-2.58 2.05,-4.22 2.14,-6.23 -1.58,-1.03 -1.51,-0.28 -2.5,-1.54 -1.68,-2.15 0.39,-1.49 -1.71,-2.95 -0.74,1.57 -0.58,1.89 -0.58,3.8l-1.64 -0.32z"/>
   <path class="fil0" d="M177.61 166.69c0,7.6 8.53,7.14 12.35,2.94 1.51,-1.66 2.08,-3.91 2.77,-5.93 6.14,-17.83 13.03,-46.34 18.73,-66.16 1.3,-4.53 2.43,-8.87 3.39,-13.62 0.76,-3.76 3.18,-10.7 -0.17,-13.28 -3.72,-2.87 -9.09,-0.41 -11.35,2.8 -2.68,3.81 -9.62,31.99 -11.72,39.15 -2.08,7.07 -14.01,47.13 -14.01,54.1z"/>
   <path class="fil2" d="M874.61 66.33c0,-6.55 -3.03,-5.03 0.21,-10.36 2.36,-3.89 5.27,-16.01 -2.3,-16.81 -1.13,5.21 0.56,12.53 -3.05,16.79 -2.47,2.9 -4.74,2.24 -5.49,4.23 -0.71,1.87 0.64,3.69 -2.52,7.15 -9.26,10.13 -19.9,-5.78 -21.59,-10.79 6.58,-0.01 5.79,-3.97 15.48,-6.01 1.98,-0.42 3.2,-0.34 4.86,-1.91 -0.68,-5.31 -13.77,-15.08 -19.63,-8.97 -4.62,4.82 -9.4,16.37 -9.4,23.53 4.38,-0.4 4.59,-2.01 7.47,-2.31 2.02,1.45 4.17,5.01 4.17,8.36 0,4.25 -0.8,7.77 -2.01,11.88 -0.62,2.08 -3.03,8.16 -3.03,9.94 0,3.36 2.14,7.55 5.59,7.14 0.44,-2.85 -1.71,-4.44 -1.71,-7.14 0,-7.24 1.85,-4.79 5.97,-7.99 0.95,-0.74 2.08,-2.31 2.93,-2.93 1.71,-1.26 1.82,-0.23 4.29,0.07 -0.37,-0.94 -0.96,-1.58 -0.65,-2.35 2.86,-1.13 9.02,4.23 10.88,6.18 1.24,1.3 2.88,3.29 3.95,4.77 1.4,1.92 2.37,3 2.88,5.52 -0.96,-0.49 -2.21,-2.55 -2.95,-3.49 -1.02,-1.29 -2.01,-2.25 -3.38,-3.43 -2.07,-1.77 -4.61,-4.41 -7.53,-5.65 -0.73,0.51 -0.2,0.14 -0.79,0.74 -3.18,3.23 -2.3,1.33 -4.87,3.88 -1.74,1.73 -3.2,3.57 -5,5.26l-1.3 -1.21c-1.06,-0.87 0.46,-0.39 -1.71,-0.91 0.11,4.13 1.91,8.52 3.41,11.8 1.66,3.62 2.47,7.59 6.28,8.47 2.44,-5.03 -5.82,-6.36 -5.82,-11.94 0,-5.27 6.7,-9.28 11.65,-9.01 4.84,0.27 9.67,5.19 9.67,10.46 0,5.21 -0.17,5.8 -6.18,9.23 -3.4,1.94 -6.71,2.76 -8.14,4.38 5.12,4.95 4.67,-3.44 18.81,-1.65 2.46,0.31 5.6,2.04 5.6,-0.33 0,-10.83 -0.15,-11.26 -5.15,-21.32 -1.31,-2.62 -2.61,-4.4 -4.15,-6.51 -0.96,-1.31 -1.31,-1.76 -2.33,-2.99 -1.07,-1.29 -1.57,-1.56 -1.7,-3.12 2.9,-1.01 3.28,0.13 5.87,-2.32 2.62,-2.47 2.42,-4.89 2.42,-8.34z"/>
   <path class="fil2" d="M387.06 161.85c0,4.97 -8.45,16.86 6.75,25.46 1.83,1.03 7.04,3.31 9.45,3.18 1.6,-2.03 1.18,-5.86 5.8,-10.72l6.63 -5.55c3.78,-2.89 0.49,-1.23 -3.44,-2.96 -7.37,-3.22 3,-19.92 3.13,-27.85 -3.62,-0.98 -9.7,-0.01 -14.06,0 -12.38,0.04 -9.81,-2.93 -13.57,8.71 -0.48,1.49 -1.13,3.28 -1.34,4.55 -0.5,3.08 0.65,3.34 0.65,5.17z"/>
   <path class="fil2" d="M763.25 164.83c3.24,-0.21 4.88,-3.17 6.97,-4.97 4.97,-4.27 8.19,-8.14 8.19,0.3 2.71,-0.73 3.06,-2.71 4.84,-1.69 1.47,1.33 -0.91,2.7 -4.52,7.47 -1.31,1.74 -5.17,6.01 -5.51,7.54 7.7,0.95 11.55,-0.11 15.49,-5.83 4.97,-7.2 5.62,-16.14 0.44,-23.24 -2.84,-3.9 -13.08,-5.22 -15.14,-18.75 -0,-0.03 -0.2,-1.13 -0.22,-1.21l-0.43 -1.14c-0.04,-0.09 -0.1,-0.26 -0.18,-0.37 -2.73,2.34 -8.06,15.12 -9.57,19.16 -3.51,9.36 -3.86,13.44 -0.36,22.74z"/>
   <path class="fil2" d="M548.7 173.68c6.99,0 8.23,-0.66 11.75,-6.37 2.59,-4.21 3.98,-5.98 3.94,-12.25 -0.07,-10.81 -6.33,-12.38 -11.67,-16.13 -1.49,-1.04 -0.99,-1.11 -2.56,-1.95 -1.8,0.97 -2.72,2.96 -3.87,4.51 -5.71,7.7 -5.09,6.15 -8.96,15.78 -3.59,8.9 -3.62,8.41 2.67,12.33 2.44,1.52 5.49,4.08 8.71,4.08z"/>
   <path class="fil2" d="M713 159.09c3.19,0.34 21.01,-18.64 24.09,-21.71 4.72,-4.7 16.78,-19.89 18.96,-27.83 -6.91,-0.5 -22.6,12.1 -28.04,18.27 -4.02,4.55 -6.25,7.98 -9.73,13.52 -3.23,5.14 -4.01,6.59 -5.13,12.3 -0.9,4.57 -0.75,3.51 -0.3,5.06 0.03,0.1 0.09,0.27 0.16,0.39z"/>
   <path class="fil2" d="M600.69 159.75c4.39,-0.88 20.21,-18.08 24.2,-22.07 8.7,-8.7 9.06,-9.78 15.14,-19.76 1.49,-2.46 3.49,-5.28 3.87,-8.63 -5.59,1.52 -11.4,5.32 -15.5,8.14 -11.69,8.02 -29.87,29.71 -27.71,42.33z"/>
   <path class="fil2" d="M370.93 134.84c-1.81,2.86 -2.84,8.61 -3.89,12.64 -0.69,2.66 -3.74,10.92 -3.26,12.63 2.29,0.92 7.95,0.75 10.48,0.39 1.66,-6.52 2.73,-15.56 5.66,-20.48 11.95,-0.65 -0.77,-1.63 17.02,-1.63 3.13,0 15.83,0.94 17.57,-0.66 0.02,-0.09 0.03,-0.34 0.02,-0.28l-13.69 -13.93c-1.56,-1.56 -2.98,-3.94 -5.36,-4.24 -1.24,2.8 -3.25,14.14 -4.72,14.99 -1.62,0.94 -16.15,-0.42 -19.84,0.57z"/>
   <path class="fil0" d="M600.69 159.75c-2.16,-12.62 16.03,-34.31 27.71,-42.33 4.1,-2.82 9.9,-6.61 15.5,-8.14 -0.38,3.35 -2.38,6.17 -3.87,8.63 -6.07,9.99 -6.44,11.06 -15.14,19.76 -4,3.99 -19.81,21.2 -24.2,22.07zm45.61 -52.87c-4.31,-1.23 -16.1,5.06 -19.63,6.9 -4.18,2.19 -11.73,8.34 -15.27,11.86 -6.99,6.97 -15.41,19.75 -17.1,30.49 -0.37,2.36 -1.18,4.72 0.58,5.63 6.56,3.37 13.56,-4.75 17.57,-8.38l20.3 -20.43c1.23,-1.64 1.82,-2.66 2.81,-3.97l7.8 -12.59c1.63,-2.79 4.54,-5.71 2.93,-9.5z"/>
   <path class="fil0" d="M713 159.09c-0.07,-0.12 -0.13,-0.29 -0.16,-0.39 -0.44,-1.55 -0.6,-0.48 0.3,-5.06 1.12,-5.7 1.9,-7.16 5.13,-12.3 3.49,-5.54 5.71,-8.97 9.73,-13.52 5.45,-6.17 21.14,-18.77 28.04,-18.27 -2.18,7.94 -14.25,23.13 -18.96,27.83 -3.08,3.07 -20.9,22.05 -24.09,21.71zm-7.11 0.33c0,3.62 6.2,3.66 9.84,1.21l22.03 -21.12c10.95,-11.02 11.02,-13.74 18.19,-24.49 11.45,-17.16 -14.02,-3.72 -18.07,-1.1 -13.71,8.9 -31.99,27.74 -31.99,45.49z"/>
   <path class="fil0" d="M548.7 173.68c-3.22,0 -6.28,-2.56 -8.71,-4.08 -6.28,-3.92 -6.25,-3.43 -2.67,-12.33 3.88,-9.63 3.25,-8.08 8.96,-15.78 1.15,-1.55 2.07,-3.54 3.87,-4.51 1.57,0.84 1.07,0.9 2.56,1.95 5.34,3.74 11.61,5.31 11.67,16.13 0.04,6.26 -1.35,8.04 -3.94,12.25 -3.52,5.71 -4.76,6.37 -11.75,6.37zm-0.48 2.71c9.24,0 9.08,-1.25 13.66,-6.69 5.35,-6.35 7.35,-16.85 2.38,-24.38 -3.18,-4.81 -7.76,-6.52 -11.07,-9.28 -2.87,-2.4 -2.63,-4.27 -4.48,-6.2 -3.14,1.75 -7.14,8.74 -9.51,11.83 -4.16,5.41 -9.85,14.94 -10.83,21.76 -0.59,4.08 2.05,4.53 4.57,6.43 3.14,2.36 10.87,6.53 15.29,6.53z"/>
   <path class="fil2" d="M895.36 88.11c2.42,-0.2 0.98,-0.27 4.92,-4.74 1.7,-1.93 2.85,-3.3 4.57,-5.13 5.48,-5.86 5.63,-6.57 4.48,-13.65 -1.56,-9.55 0.07,-5.9 -3.58,-15.9 -1.09,-2.98 -4,-11.97 -6.2,-12.6 -0.97,8.59 -1.78,17.24 -2.06,25.85 -0.29,8.77 -2.07,20.13 -2.13,26.16z"/>
   <path class="fil2" d="M461.01 118.6c0.98,-0.86 7.28,-13.09 9.46,-16.57 0.95,-1.51 3,-4.17 2.89,-5.93l-30.39 0.03c-4.95,-0.28 -2.75,-3.98 -7.3,-3.52 0.57,4.96 11.93,10.61 19.22,19.05 1.88,2.17 3.87,5.96 6.11,6.94z"/>
   <path class="fil2" d="M880.03 127.29c1.27,-0.07 1.72,-0.55 3.03,-1.48 3.35,-2.38 18.09,-10.92 19.13,-13.35 3.05,-7.16 7.17,-21.6 6.54,-30.04 -2.04,1.01 -12.53,18.4 -14.86,22.19 -1.96,3.19 -13.38,20.51 -13.85,22.69z"/>
   <path class="fil2" d="M870.49 11.35c-0.48,1.82 5.9,10.84 7.05,12.67l12.03 19.47c0.94,1.44 0.66,1.4 1.9,2.11 1.42,-1.23 1.73,-5.38 2.41,-8.43 0.58,-2.6 1.72,-6.75 1.88,-9.14l-10.77 -10.49c-0.8,-0.64 -12.68,-6.53 -14.51,-6.19z"/>
   <path class="fil2" d="M795.38 40.17c3.67,-1.29 3.96,-3.24 13.06,-5.48 21.33,-5.25 25.6,-0.85 32.57,-1.42 2.53,-0.21 10.16,-4.91 11.29,-7.18 -1.15,-0.69 -14.7,-1.07 -17.07,-0.98 -11.87,0.48 -25.65,3.25 -34.97,10.6 -2.23,1.76 -3.07,1.67 -4.87,4.45z"/>
   <path class="fil2" d="M801.63 22.41l18.02 -1.67c2.73,-0.28 16.53,-0.64 17.43,-0.95 -0.12,-2.34 -4.23,-4.3 -7.8,-6.65 -1.5,-0.99 -2.9,-2.12 -4.33,-2.96 -2.53,-1.48 -5.34,0.63 -10.3,3.08 -2.98,1.47 -11.69,6.51 -13.01,9.16z"/>
   <path class="fil0" d="M641.5 157.89c1.65,-0.01 2.12,-0.69 3.77,-3.71l7.83 -16.89c5.33,-10.66 11.03,-18.03 9.89,-26.61 -2.1,0.29 -6.03,8.4 -6.86,9.75l-3.19 5.54c-4.47,8.31 -11.44,22.55 -11.44,31.93z"/>
   <path class="fil2" d="M385.31 103.08l4.85 -0.39c0.85,-3.25 1,-7.68 1.61,-11.04 0.51,-2.8 2.35,-7.68 2.17,-10.2l-8.12 -0.04 -6.01 19.2c-0.28,1.62 0.09,1.8 1.61,2.06 0.3,0.05 3.74,0.4 3.9,0.4z"/>
   <path class="fil2" d="M830.93 8.15c0.76,2.18 12.61,7.46 15.47,8.76 3.46,1.58 5.4,-1.25 11.24,-5.27 3.09,-2.13 2.76,-0.94 3.38,-3.01 -4.79,-2.8 -26.03,-2.77 -30.09,-0.48z"/>
   <path class="fil0" d="M49.12 126.67c-0.29,-1.58 1.6,-4.65 2.35,-6.31 1.41,-3.14 1.91,-2.74 5.59,-2.97 3.82,-0.23 5.72,-1.4 4.27,3.1 -0.61,1.9 -1.03,4.98 -2.5,6.25 -1.96,0.75 -7.76,0.84 -9.71,-0.08zm15.62 -11.42c-6.16,-0.47 -8.23,0.2 -13.98,0.59 -3.61,0.24 -4.88,-0.31 -6.35,2.79 -3.66,7.75 -5.99,11.34 -1.45,11.27 2.48,-0.03 5.11,-0.44 8.3,-0.44 2.57,0 6.71,0.36 8.57,-0.66 1.94,-1.05 4.8,-10.22 4.9,-13.56z"/>
   <path class="fil2" d="M855.06 32.41c0.54,4.26 7.91,6.77 7.91,16.47 0,5 -8.33,3.21 -9.26,8.33 2.34,-0.51 3.73,-1.35 5.87,-1.95 4.2,-1.18 3.35,0.53 6.65,-0.19 2.39,-4.41 2.8,-17.19 -0.8,-20.87 -1.48,-1.51 -8.56,-3.34 -10.37,-1.79z"/>
   <path class="fil2" d="M855.83 21.73c0.97,1.39 17.53,11.49 18.54,11.93 0.05,-2.98 -5.84,-13.01 -7.33,-16.59 -1.6,-3.84 -2.32,-6.16 -5.37,-2.38 -1.6,1.98 -5.12,4.89 -5.84,7.04z"/>
   <path class="fil2" d="M814.1 47.35c5.37,6.34 17.24,2.46 17.77,-6.31 0.27,-4.37 -9.67,-3.57 -11.13,-2.29 -1.27,1.11 -2.08,2.79 -3.45,4.32 -1.56,1.76 -2.65,2.04 -3.2,4.28z"/>
   <path class="fil2" d="M475.49 91.84c2.37,-0.85 4.39,-4.81 5.59,-7.32 2.16,-4.51 13.08,-19.88 14.69,-23.58 -2.33,0.19 -7.39,4.72 -12.09,6.81 -4.45,1.98 -2.85,4.52 -5.08,13.77 -0.92,3.83 -2.17,6.93 -3.11,10.32z"/>
   <path class="fil2" d="M871 132.75c-0.23,-2.18 -1.9,-3.14 -3.2,-4.44 -4.35,-4.33 -7.04,-7.76 -13.02,-1.71 -7.28,7.38 12.08,10.81 16.22,6.15z"/>
   <path class="fil2" d="M873.15 141.87c2.04,0.21 3.48,-0.15 5.18,-0.44 4.79,-0.83 6.2,1.04 11.2,-5.29 1.62,-2.05 8.11,-11.53 8.74,-13.71 -3.03,0.33 -15.72,11.8 -19.36,14.25 -1.26,0.85 -2.03,1.59 -3.3,2.51 -1.4,1.02 -2.02,1.04 -2.47,2.69z"/>
   <path class="fil2" d="M843.96 160.49c6.78,0 14.13,-1.93 19.39,-4.46 3.51,-1.68 12.96,-6.22 14.36,-8.59 -6.92,-0.57 -9.7,-0.56 -14.39,2.74 -2.46,1.73 -3.28,2.34 -5.86,3.82 -5.91,3.39 -12.61,4.96 -13.5,6.49z"/>
   <path class="fil2" d="M873.06 129.45c1.85,-1.08 2.78,-4.67 3.69,-6.58 0.92,-1.94 2.84,-4.81 2.25,-6.71 -3.37,-1.83 -12.48,-1.04 -15.11,1.08 0.25,2.38 2.1,2.66 4.65,5.95 0.77,1 1.45,1.98 2.15,3.22 0.97,1.73 0.71,2.15 2.38,3.04z"/>
   <path class="fil2" d="M880.33 68.82c2.54,-1.02 5.62,-9.1 6.41,-11.6 0.88,-2.79 0.59,-3.97 -0.6,-6.39 -0.92,-1.88 -2.29,-4.51 -3.78,-5.13 -1.19,2.59 0.74,4.47 -3.69,11.72 -1.36,2.22 -1.44,2.77 -0.47,5.72 0.64,1.94 0.95,3.91 2.12,5.69z"/>
   <path class="fil2" d="M778.8 57.7c2.05,-1.13 3.69,-5.45 5.21,-8.18 4.29,-7.75 9.21,-14.84 15.9,-20.46 1.42,-1.19 1.05,0.05 1.39,-2.06 -6.6,-1.76 -10.36,5.02 -14.32,11.41 -2.13,3.44 -2.92,5.56 -4.57,9 -1.58,3.3 -2.88,6.09 -3.61,10.29z"/>
   <path class="fil2" d="M49.12 126.67c1.94,0.92 7.75,0.83 9.71,0.08 1.48,-1.27 1.89,-4.35 2.5,-6.25 1.45,-4.5 -0.45,-3.34 -4.27,-3.1 -3.68,0.22 -4.18,-0.17 -5.59,2.97 -0.75,1.66 -2.64,4.73 -2.35,6.31z"/>
   <path class="fil2" d="M889.58 78.94c0.89,-3.09 1.01,-12.79 -0.08,-15.88 -1.86,0.75 -2.66,3.83 -3.45,5.61 -3.28,7.5 -9.25,10.18 -5.21,11.09 2.18,0.49 7.05,0.07 8.73,-0.82z"/>
   <path class="fil2" d="M889.04 86.87c-0.94,-1.67 -6.72,-3.04 -8.46,-2.35 0.02,1.46 2.12,6.27 2.97,10.08 1.01,4.52 0.21,9.17 2.7,10.81 0.65,-2.16 3.22,-17.66 2.79,-18.54z"/>
   <path class="fil2" d="M792.38 49.56l12.48 -3.88c4.14,-1.08 7.72,-2.82 9.71,-6.59 -9.54,0 -18.9,4.48 -22.19,10.48z"/>
   <path class="fil2" d="M844.93 154.46c4.42,-0.91 18.8,-9.43 20.37,-12.6 -9.32,0 -7.3,-1.84 -12.1,3.99 -1.59,1.94 -7.66,6.9 -8.27,8.61z"/>
   <path class="fil1" d="M863.36 102.7c3.73,-0.2 3.64,-1.97 3.1,-5.05 -4.02,0.23 -8.02,2.83 -8.92,5.53 0.68,1.22 1.1,1.99 2.89,1.92 2.02,-0.08 2.07,-0.34 2.15,-2.21l0.78 -0.18z"/>
   <path class="fil0" d="M686.94 160.41c3.06,-2.01 10.54,-15.39 13.59,-20.31 0.82,-1.33 1.26,-1.38 2.17,-2.81 -0.93,-0.09 -0.78,-0.97 -2.69,1.79 -3.5,5.08 -11.72,16.41 -13.07,21.32z"/>
   <path class="fil1" d="M851.72 63.42c0,1.47 -0.07,0.86 0.49,1.88 1.75,-0.64 2.44,-2.25 3.49,-3.72l3.07 0.34 0.72 -2.63c-2.19,-0 -2.85,0.68 -4.53,1.02 -2.18,0.44 -3.24,0.31 -3.24,3.11z"/>
   <path class="fil2" d="M332.95 56.15l2.99 0.11 0.29 -2.76c-3.5,-1.12 -4.17,-0.22 -3.28,2.65z"/>
   <path class="fil2" d="M299.75 53.43c-5.18,-1.87 -2.66,4.92 -0.31,2.76 1.62,-1.49 0.32,-2.74 0.31,-2.76z"/>
   <path class="fil2" d="M303.59 55.98l2.96 0.08c0.91,-4.5 -5.01,-4.01 -2.96,-0.08z"/>
   <path class="fil2" d="M282.53 56.15c2.04,0 2.62,-3.31 0.09,-3.05 -1.49,0.15 -2.61,3.05 -0.09,3.05z"/>
   <path class="fil2" d="M351.86 56.73c2.1,-0.68 2.04,-0.12 2.62,-2.14l-4.27 0c0.59,2.26 -0.21,0.79 1.65,2.14z"/>
   <path class="fil3" d="M513.88 159.98c2.51,0.18 3.27,-0.59 3.52,-2.99 -2.05,0.4 -2.77,1.2 -3.52,2.99z"/>
   <path class="fil3" d="M257.66 55.18c1.18,1.64 1.62,2.05 2.96,0.33 -2.64,-1.87 -2.88,-0.38 -2.96,-0.33z"/>
   <path class="fil4" d="M277.2 56.61c0.88,-1 0.61,-0.35 0.88,-1.91l-2.16 0.03 -0.08 1.31 1.37 0.57z"/>
   <path class="fil4" d="M313.88 55.32c0.22,-0.2 0.8,0.01 1.01,-1.27 0.25,-1.53 -0.26,-0.89 -0.85,-1.19 -1.05,1.5 -0.74,1.18 -0.16,2.46z"/>
   <path class="fil5" d="M362.65 54.04c1.95,1.1 0.32,0.89 2.68,0.02l-1.3 -1.2 -1.37 1.17z"/>
   <path class="fil6" d="M277.2 56.61l-1.37 -0.57 0.08 -1.31c-1.54,0.01 -0.67,-0.18 -1.01,0.45 0.25,1.85 0.61,2.24 2.3,1.42z"/>
  </g>
 </g>
</svg>
