<?xml version="1.0" encoding="UTF-8"?>
<!DOCTYPE svg PUBLIC "-//W3C//DTD SVG 1.1//EN" "http://www.w3.org/Graphics/SVG/1.1/DTD/svg11.dtd">
<!-- Creator: CorelDRAW -->
<svg xmlns="http://www.w3.org/2000/svg" xml:space="preserve" width="74.9704mm" height="27.4511mm" version="1.1" style="shape-rendering:geometricPrecision; text-rendering:geometricPrecision; image-rendering:optimizeQuality; fill-rule:evenodd; clip-rule:evenodd"
viewBox="0 0 254.81 93.3"
 xmlns:xlink="http://www.w3.org/1999/xlink"
 xmlns:xodm="http://www.corel.com/coreldraw/odm/2003">
 <defs>
  <style type="text/css">
   <![CDATA[
    .fil0 {fill:#0E0C0D}
    .fil2 {fill:#19A7D9}
    .fil4 {fill:#1B2528}
    .fil7 {fill:#DEDEDE}
    .fil3 {fill:#F6863A}
    .fil6 {fill:#FA9956}
    .fil1 {fill:#FCB381}
    .fil5 {fill:#FDFDFD}
   ]]>
  </style>
 </defs>
 <g id="Camada_x0020_1">
  <metadata id="CorelCorpID_0Corel-Layer"/>
  <g id="_2063843950592">
   <path class="fil0" d="M116.59 78.7c0.28,-0.68 0.98,-1.34 1.75,-1.6 0.68,-0.23 2.1,-0.42 2.83,-0.33 -0.38,1.57 -2.37,2.12 -4.58,1.93zm45.58 2.2c0.15,-0.66 2.85,-4.83 3.41,-5.29 0.73,0.15 1.63,0.55 2.08,1.1 -0.53,0.7 -1.83,1.65 -2.52,2.25 -0.74,0.64 -1.83,1.87 -2.97,1.93zm-34.37 -4.8c0.26,-0.99 1.15,-1.86 2.31,-1.37 0,0.91 0.12,0.75 -0.79,1.08 -0.46,0.17 -0.92,0.3 -1.52,0.29zm112.12 4.86c0.42,-1.61 1.79,-3.08 2.91,-3.61 0.86,-0.4 0.26,0.2 0.77,-0.78 0.34,-0.65 0.02,-0.48 0.99,-0.74 1,-0.27 1.63,-0.71 2.39,-0.81 -0.34,0.8 -6.09,5.67 -7.06,5.94zm-112.68 -21.21c0.1,1.89 -0.13,3.51 0.34,5.24 0.38,1.41 2.02,3.08 -0.26,3.48 -0.27,-0.53 -0.44,-1.14 -0.92,-1.55 -0.74,0.75 -0.74,5.2 -6.11,6.78 -4.16,1.22 -9.23,-1.46 -8.67,-3.66 0.44,-1.72 3.06,-0.38 5.2,-1 2.39,-0.7 4.25,-2.94 4.34,-5.39 0.06,-1.55 0.17,-1.47 1.34,-1.98 1.14,-0.49 3.65,-1.78 4.74,-1.92zm17.7 4.65c-0.13,4.79 0.64,3.52 -3.12,5.66 -1.03,0.58 -2.2,1.14 -3.28,1.69 -2.52,1.27 -4.82,2.77 -7.03,0.36 0.42,-2.7 4.39,-2.88 6.14,-4.12 2.79,-1.98 1.6,-5.87 4.5,-5.7 0.78,0.55 1.2,1.48 1.92,1.97 0.23,-0.44 0.21,0.07 0.11,-0.69 -0.25,-1.65 -0.51,-3.1 -1.55,-4.04 -1.63,-1.47 -2.98,-0.92 -2.69,-2.72 0.69,-0.28 3.25,-0.16 4.14,0.07 0.05,0.01 0.1,0.03 0.15,0.05l0.43 0.2c0.51,0.87 0.26,5.82 0.28,7.27zm-23.76 -6.84l-0.07 -5.87 6.21 0.07c0.05,0.93 0.03,1.98 0.01,2.89 -0.03,1.38 -0.26,1.13 -1.5,1.52 -1.15,0.36 -3.43,1.29 -4.65,1.39zm-0.09 -12.15c-0.33,-1.26 0.03,-7.15 0.4,-8.36 0.78,-2.54 3.16,-4.32 4.85,-1.35 1.29,2.27 0.99,4.83 1.01,7.79 0.01,2.47 0.42,2.45 -2.09,2.4 -0.92,-0.02 -3.96,0.35 -4.17,-0.48zm115.2 -21.89c0.3,-0.89 0.97,-1.54 1.56,-3.58 0.53,-1.83 0.7,-1.61 7.59,-1.38 0.06,1.98 -1.73,4.64 -2.64,5.56 -0.87,0.87 -1.95,0.38 -3.09,0.14 -0.91,-0.19 -2.68,-0.41 -3.42,-0.74zm-0.44 -6.18c-0.47,2.1 -1.37,3.85 -1.68,6.17l-7.29 -0.04c-0.34,-2.06 2.28,-9.66 3.16,-11.35 1.81,-3.45 4.66,-4.92 9.66,-5.04 5.08,-0.12 8.72,1.21 7.33,6.64 -1.09,4.27 -0.93,3.63 -3.68,3.6 -2.22,-0.02 -5.39,-0.22 -7.5,0.01zm-116.25 6.47c-1.19,0.26 -2.29,0.34 -3.43,0.62 -1.13,0.28 -2.31,0.89 -3.39,0.81 -1.69,-1.48 -0.72,-3.63 -0.11,-5.68 2.02,-6.83 2.86,-11.43 10.31,-12.32 4.63,-0.56 10.49,0.11 9.44,5.39 -0.74,3.69 -2.39,8.23 -4.08,11.06l-7.21 -0.14c0.26,-0.86 0.87,-1.95 1.24,-3.11 0.64,-2.01 3.01,-8.57 2.66,-9.9 -2.42,-0.67 -2.39,1.49 -3.72,5.75 -0.38,1.22 -0.74,2.41 -1.15,3.67 -0.64,1.98 -0.7,1.73 -0.54,3.87zm-59.19 -9.13l-7.09 -0.03c-0.05,-1.4 1.44,-4.32 3.18,-5.58 3.12,-2.26 11.2,-2.66 13.66,-0.93 1.72,1.21 1.25,3.01 0.77,5.22l-3.09 10.11 -7.63 -0c0.05,-1.39 1.4,-4.08 1.75,-5.79 -3.8,0.57 -3.71,5.07 -4.12,5.56 -0.37,0.45 -2.72,0.26 -3.42,0.25 -1.21,-0.01 -2.58,0.05 -3.77,-0.06 -0.07,-1.88 1.51,-5.09 2.57,-5.74 1.42,-0.87 4.68,-1.59 6.54,-2.09 0.85,-0.23 2.52,-0.62 3.04,-1.18 0,-0 2.56,-4.22 -0.12,-4.04 -0.75,0.05 -0.84,0.4 -1.13,1.05 -0.46,1 -0.73,2.5 -1.13,3.25zm148.94 -0.03l-7.03 0c0.06,-1.77 1.34,-3.95 2.23,-4.8 3.69,-3.53 15.07,-4.03 15.8,0.03 0.36,2.03 -2.65,11.19 -3.61,14.08 -0.65,1.98 -5.45,3.2 -8.18,2.49 -0.2,-0.5 0.17,-0.65 0.2,-1.38l-1.48 0.97c-1.68,-0.4 -2.04,-1.24 -7.71,-2.36 -0.04,-1.43 0.94,-3.98 1.61,-4.91 1.45,-2.03 6.02,-2.76 9.34,-3.74 1.79,-0.53 2.41,-2.62 2.32,-4.42 -3.04,-1.13 -2.48,1.96 -3.48,4.03zm-69.3 10.99c-1.77,-1.68 -0.99,-3.93 -0.39,-5.99 2.13,-7.21 2.7,-11.27 10.24,-12.41 4.32,-0.65 10.47,0.06 9.64,5.05 -0.34,2.07 -2.96,10.29 -4.09,11.11 -0.96,0.3 -5.63,0.16 -6.96,0.08 0.02,-1.41 3.87,-11.03 3.65,-13.02 -2.3,-0.59 -2.44,1.63 -3.03,3.49 -0.56,1.78 -1.1,3.46 -1.67,5.24 -0.26,0.82 -0.67,1.86 -0.82,2.64 -0.37,1.85 0.32,1.56 -1.72,1.8 -2.36,0.28 -3.85,1.89 -4.85,2zm-57.07 -16.69c1.05,-0.31 1.43,-1.04 2.52,-1.41 0.97,-0.33 2.35,-0.49 3.48,-0.41 5.53,0.37 3.11,4.56 1.3,10.37 -0.38,1.21 -1.3,5.31 -2.03,5.89 -1.12,0.37 -5.82,0.15 -7.37,0.11 -0.03,-1.21 1.52,-5.08 1.95,-6.51l1.46 -4.86c0.95,-3.08 -1.72,-1.61 -2.19,-0.68 -0.35,0.69 -0.66,2 -0.95,2.92l-2.65 8.47c-0.47,1.14 -1.48,0.84 -2.64,1.19 -3.04,0.92 -2.07,1.8 -5.28,-0.16 0.12,-1.24 3.51,-11.56 4.37,-14.38 0.13,-0.41 0.18,-0.61 0.31,-1 0.25,-0.78 0.12,-0.64 0.6,-1.01 1.09,-0.37 5.87,-0.14 7.38,-0.08 0.11,1.05 -0.19,0.53 -0.25,1.55zm88.13 -0.03c1.55,-0.6 1.9,-1.82 5.61,-1.82 6.15,0 3.41,5.02 2.23,8.85 -0.44,1.42 -2.86,10.08 -3.72,10.52 -2.14,0.72 -5.53,-0.74 -6.65,-1.81 0.03,-0.73 2.63,-8.56 3.24,-10.64 0.19,-0.65 0.33,-1.14 0.53,-1.81 0.46,-1.49 0.44,-1.39 0.06,-1.72 -2.61,-2.26 -4.87,11.37 -6.26,13.56l-7.24 -0.7c-0.03,-0.84 4.48,-15.19 4.97,-15.93l7.63 -0.06c-0.06,0.93 -0.29,0.58 -0.41,1.55zm-119.01 4.76c-5.39,0.59 -4.96,0.98 -6.7,6.57 -1.41,4.54 -0.53,2.95 -3.49,3.63 -3.34,0.77 -4.88,3.38 -5.8,2.58l1.11 -4.75c0.84,-2.64 4.03,-13.31 4.73,-14.29 1.22,-0.2 6.22,-0.24 7.13,0.07 0.02,0.04 0.03,0.07 0.03,0.14 0,0.07 0.02,0.11 0.02,0.14l-0.24 0.8c-0.24,0.46 -0.31,0.46 -0.4,1.05 1.52,-0.71 3,-2.73 5.48,-2.43l-1.87 6.48zm-18.82 11.57c-0.87,-0.05 -2.44,-0.74 -3.46,-1 -1.21,-0.3 -2.53,-0.5 -3.83,-0.72 0.1,-1.43 1.91,-6.48 2.44,-8.12 0.82,-2.52 1.62,-5.7 2.57,-8l7.74 0.1c0.07,0.82 -4.78,15.44 -5.46,17.74zm163.61 -1.76l-7.85 0.02c0.04,-0.38 4.6,-12.27 3.8,-13.04 -1.58,-0.7 -2.25,0.55 -2.62,1.75l-2.27 7.34c-0.39,1.29 -0.68,2.83 -1.04,3.94l-7.7 0.24c0.04,-1.64 3.02,-10.34 3.74,-12.43 0.77,-2.23 1.75,-3.35 4.12,-3.95 1.16,-0.29 2.52,-0.32 3.79,-0.14 1.72,0.24 2.22,1.1 3.13,1.09 0.8,-1.34 0.79,-3.81 1.73,-4.98 0.92,-0.32 6,-0.24 7.35,-0.2 0.07,1.2 -5.41,18.42 -6.18,20.37zm-105.67 -0.11l-0.06 -0.27c-0.01,-0.72 0.51,-1.95 0.77,-2.78l2.94 -9.16c1.32,-3.58 4.51,-4.51 8.09,-3.95 1.53,0.24 1.76,0.88 2.96,1.15 0.39,-1.41 0.99,-4.06 1.67,-5.19l7.34 -0.04c0.08,1.35 -5.52,18.18 -6.59,21.67 -0.34,1.1 -0.22,1.67 -1.31,1.79 -3.62,0.42 -4.53,-1.99 -10.02,-2.69 -1.22,-0.15 -5.07,-0.32 -5.79,-0.54zm-51.95 -16.94l-7.71 0.04c-0.1,-1.07 0.49,-2.33 0.79,-3.29l7.73 -0.03c0.1,0.85 -0.56,2.6 -0.81,3.28zm-14.85 1.33c-0.57,1.73 -4.55,15.39 -5.16,15.74 -1.13,0.34 -2.74,0.11 -4.03,0.21 -1.3,0.1 -2.57,0.35 -3.93,0.46 0.25,-2.59 4.9,-14.55 4.88,-16.38l-4.45 -0.06c0,-0.83 1.04,-3.94 1.36,-4.59l17.46 -0.05c-0.03,0.46 -1.01,3.93 -1.16,4.21 -0.38,0.67 -1.29,0.44 -2.25,0.43 -0.9,-0.01 -1.81,-0.01 -2.71,0.02zm90.53 84.93c0.21,-0.71 -0.3,-0.32 0.39,-0.61 -1.27,-5.06 2.98,-8.33 3.37,-10.58 -1.74,-0.57 -7.97,-0.53 -2.33,-4.85 0.69,-0.53 2.3,-1.53 3.2,-1.57 -1.22,0.88 -4.14,2.6 -4.29,4.1 1.35,0.55 4.26,0.48 5.3,-0.43 0.65,-0.57 1.95,-2.65 2.62,-3.52 2.86,-3.71 11.3,-13.66 15.24,-15.68 0.76,-0.39 1.72,-0.65 2.61,-0.2 0.66,0.33 1.48,0.93 1.69,1.6 -1.56,1 -1.66,-0.24 -5.18,3.28 -2.39,2.4 -11.01,10.93 -12.15,13.45 4.61,-0.71 15.4,-5.81 19.23,-8.3 6.55,-4.25 12.91,-10.76 0.83,-13.25 -10.1,-2.08 -23.56,3.88 -30.97,9.61 -6.62,5.11 -3.34,6.5 -2.54,7.84 -8.73,-0.38 -3.06,-13.56 19.88,-17.99 6.19,-1.2 15.11,-1.34 19.56,1.88 2.28,1.65 3.69,4.28 1.92,7.89 -0.5,1.02 -1.85,2.66 -2.48,3.3 -0.6,0.61 -2.79,1.98 -3.1,2.48l0.07 1.07c1.29,-1.44 4.25,-3.11 5.87,-4.55 2.44,-2.17 1.92,-4.85 1.92,-8.82 0,-1.24 -0.32,-19.82 0.15,-21.03l0.14 -0.26c-0.02,-1.41 1.73,-3.69 3.34,-3.34 1.36,0.29 2.36,2.72 2.52,4.49 0.37,4.19 0.04,9.58 0.1,13.92l0.03 11.78c0.47,2.53 2.44,3.42 2.74,4.34l0.5 -1.49c0.41,-0.91 0.32,-0.61 0.86,-1.28 0.85,-1.06 -0.27,-0.65 1.48,-2.75 0.71,-0.86 3.93,-3.36 5.2,-3.35 0.64,-0.33 0.99,-1.1 2.16,-1.29 1.15,-0.18 2.32,0.19 2.74,1.03 -0.53,0.72 -2,1.56 -2.71,2.34 -3.23,3.53 -14.21,17.91 -14.15,21 1.57,-0.23 8.63,-6.64 9.78,-7.71 1.73,-1.6 5.81,-4.32 8.6,-4.62 1.65,-0.17 2.25,0.61 3.07,1.2 0.06,2.43 -2.93,3.94 -3.3,4.51l0.25 0.49 1.09 -0.43c0.24,0.31 0.25,0 0.19,0.58 0.05,0.04 0.12,0.03 0.14,0.1 0.02,0.07 0.11,0.08 0.13,0.09 0.23,0.15 -0.08,-0.03 0.33,0.21 1.36,-0.39 3.53,-3.25 4.31,-4.22 3.54,-4.39 3.36,-1.62 5.12,-1.45l0.7 0.12c-0.47,-0.66 -1.04,-1.15 -1.8,-1.54 -1.36,-0.7 -1.8,-0.33 -2.64,0.42 -0.69,0.62 -1.13,1.02 -1.73,1.73 -0.7,0.83 -0.87,1.46 -2.19,1.67 0.08,-0.69 1.26,-2.72 -1.65,-4.06 -2.41,-1.11 -7.29,1.65 -9.13,3.06 -0.51,0.39 -1.02,0.97 -2.03,0.82 -0.89,-0.14 -1.88,-0.42 -2.49,-0.86 0.61,-2.92 4.88,-5.05 5.77,-6.2 1.13,-1.44 1.19,-3.99 3.52,-5.51 0.78,-0.51 1.34,-0.36 2.05,-0.97l-0.18 -0.96c-1.74,-1.76 -2.78,-1.04 -4,-1.92 -0.85,-1.67 0.56,-17.29 -0.75,-21.36 -1.8,-5.57 -7.44,-7.78 -14.42,-7.82 -3.65,-0.02 -7.3,-0.04 -10.95,-0.06 -4.99,-0.02 -5.51,0.67 -5.51,5.62 0,3.4 1.71,2.35 1.75,9.4 0.02,3.07 0.49,8.06 0.09,10.94l-4.75 -0.18c-0.42,-1.87 -0.12,-8.98 -0.12,-11.34 0,-3.76 -0.15,-6.81 -2.03,-9.42 -3.19,-4.43 -10.7,-5.74 -17.9,-4.81 -4.48,0.57 -8.85,2.55 -10.52,6.57 -0.47,1.14 0.44,3.4 0.68,4.73 0.63,3.45 0.09,7.31 -1.14,10.17 -1.54,3.57 1.68,5.43 1.36,9.12 0.34,0.52 0.3,3.55 0.3,4.22 -0.02,2.02 -2.55,2.69 -3.45,5.38 -0.67,2 0.21,2.47 0.11,3.99 -3.03,1.81 -6.47,1.93 -9.41,0.05l-4.91 -4.32c-0.58,-0.67 -0.67,-1.05 -1.21,-1.78 -0.57,0.67 -0.29,5.62 -6.09,7.09 -1.87,0.47 -4.27,0.21 -5.91,-0.55 -2.19,-1.01 -2.17,-1.78 -3.56,-3.06 -1.31,0.86 -0.77,3.85 -5.95,3.94 -4.67,0.08 -20.56,0.16 -24.87,-0.08 -0.86,-0.05 -1.41,-0.09 -2.19,-0.3 -0.82,-0.22 -1.26,-0.59 -1.92,-0.74 -0.74,1.81 -0.81,4 -4.23,5.55 -2.53,1.15 -5.74,1.08 -8.08,-0.22 -1.15,-0.64 -1.78,-1.33 -2.62,-2.19 -0.75,-0.77 -1.46,-1.87 -2.95,-2.01 -6.33,-0.61 -9.96,0.34 -15,-4.82 -1.6,-1.64 -3.24,-2.73 -4.28,-5.52 -1.18,-3.16 -0.91,-5.4 -0.91,-8.9 -0,-3.26 -0.16,-6.2 -0.01,-9.44 0.08,-4.68 -0.45,-9.52 1.66,-13.14 1.78,-3.06 4.88,-5.01 9.51,-5.39 4.36,-0.36 9.65,-0.64 14.01,0.11 6.22,1.07 7.39,4.88 9.05,5.66 0.7,-0.96 0.56,-2.4 1.7,-3.75 0.85,-1.01 1.75,-1.84 3.5,-2.12 2.94,-0.46 17.93,-0.23 22.07,-0.23 1.69,0 3.83,-0.25 5.24,0.37 1.83,0.81 1.71,1.87 2.83,2.88 1.65,-0.81 0.62,-3.22 8.06,-3.21 3.76,0 7.58,-0.1 11.34,0.03 12.23,0.45 11.32,4.31 15.55,7.08 1.72,-1.93 2.22,-3.77 6.23,-5.5 5.14,-2.22 15.27,-2.27 20.38,0.01 4.54,2.03 5.27,4.66 6.72,5.03 0.26,-2.22 -0.54,-6.67 5.27,-6.72 4.03,-0.03 8.07,0 12.1,0 14.36,-0.01 15,6.62 17.15,6.68 0.45,-2.16 0.27,-3 1.54,-4.41 0.95,-1.06 2.27,-1.91 4.07,-2.14 3.26,-0.41 8.68,-0.14 12.18,-0.06 5.59,0.13 10.61,-0.07 14.42,4.02 0.58,0.62 2.56,2.56 3.24,2.89 1.76,-2.15 2.53,-5.49 9,-6.57 4.53,-0.75 10.54,-0.46 15.19,-0.25 5.84,0.27 8.21,1.64 10.99,4.68 1.42,1.55 2.62,2.04 3.73,4.15 0.82,1.55 1.8,4.3 1.35,6.49 0.57,0.85 0.25,11.49 0.25,12.44 -0.01,2.16 0.07,10.59 -0.91,11.72 -0.5,2.49 -3.43,5.95 -5.6,6.31 -0.91,-1.23 -1.31,-2.06 -3.18,-2.49 -0.12,0.46 -0.03,0.35 -0.29,0.63 1.13,0.41 2.08,0.8 2.33,1.87l-0.62 -0.07 -0.98 0.22 0.57 0.5c-0.79,0.08 -0.83,-0.17 -1.49,-0.14 -0.75,0.04 -0.52,0.25 -1.22,0.49 0.05,0.04 0.13,0.03 0.16,0.11 0.02,0.08 0.12,0.08 0.15,0.1 0.01,0.01 0.32,0.23 0.34,0.25 0.99,0.02 0.66,-0.2 1.37,0.43 1.42,1.24 0.57,1.72 -0.48,2.66 -1.17,1.04 -3.42,4 -3.67,5.7 1.98,-0.24 8.98,-6.37 9.12,-6.78l0.31 -0.22c0.45,-0.35 0.14,-0.06 0.36,-0.28 0.39,-0.4 0.16,-0.3 0.48,-0.79 -0.02,-0.74 0.38,-0.83 0.82,-1.16 2.76,-2.09 4.64,-5.18 5.24,-8.75 0.68,-4.04 0.33,-11.47 0.32,-15.87 -0,-5.02 0.36,-10.51 -1.77,-14.4 -2.29,-4.18 -7.08,-7.24 -7.73,-8.27 0.52,-0.98 1.35,-1.54 1.99,-2.86 0.95,-1.93 3.06,-8.74 3.27,-10.58 0.67,-6.06 -4.04,-8.66 -9.61,-8.76 -12.46,-0.23 -14.27,6.65 -16.65,15.53 -1.03,3.84 0.92,4.53 -4.12,4.27l2.46 -8.03c0.8,-2.66 1.76,-6.12 0.11,-8.44 -4.02,-5.67 -15.34,-2.32 -16.6,-2.33l1.45 -4.8c-1.19,-0.28 -12.7,-0.22 -14.22,-0.02 -0.6,0.88 -0.63,2.85 -1.39,3.76 -0.63,0.35 -1.81,0.01 -2.71,0.02 -3.85,0.03 -5.98,2.22 -6.72,2.1 -1.38,-0.75 -1.81,-1.49 -3.9,-1.85 -1.83,-0.32 -3.75,-0.02 -5.52,0.07 -3.75,0.19 -7.72,-0.15 -11.48,0.09 -0.51,0.76 -0.39,1.41 -0.79,2.01 -1.02,-0.25 -1.58,-1.24 -4.36,-1.93 -5.16,-1.27 -11.06,-0.14 -14.67,3.1 -2.53,2.27 -2.98,4.28 -4.23,8.05 -0.5,1.51 -1.02,3.23 -1.42,4.71 -0.92,3.44 -0.06,3.67 -0.08,5.3 -0.92,-0.16 -3.35,-0.97 -4.05,-1.52 0.19,-1 0.99,-2.72 1.44,-3.92 1.49,-4.05 3.63,-9.16 1.29,-12.45 -2.5,-3.52 -8.07,-4.17 -12.46,-3.51 -1.6,0.24 -2.86,0.79 -4.44,0.98l1.56 -4.99c-0.87,-0.27 -12.95,-0.25 -14.33,-0.08l-1.22 4.03c-2.09,0.05 -3.26,-0.28 -5.41,0.21 -1.82,0.41 -2.52,1.28 -3.87,1.73 -1.42,-0.53 -1.77,-1.5 -4.09,-1.89l-17.01 0.16c-0.23,0.4 -0.44,1.01 -0.58,1.52 -1.11,0.04 -2.1,-0.8 -3.1,-1.18 -3.45,-1.28 -7.89,-0.41 -11.13,-0.01 -0.03,-0.04 -0.04,-0.11 -0.06,-0.14 -0.26,-0.52 -0.05,-0.38 -0.41,-0.59 -0.28,-0.16 -0.49,-0.12 -0.85,-0.11 -3.92,0.11 -10.24,0.89 -13.97,0.38 -0.01,-1.26 1.1,-2.77 1.18,-4.16l-33.82 0.09c-0.44,1.05 -3.25,9.98 -3.22,10.58l4.57 0.02c-0.26,1.6 -3.17,10.38 -3.9,12.78 -0.42,1.39 -0.43,2.14 -1.43,2.8 -7.77,5.07 -6.66,12.72 -6.65,22.15 0.01,4.47 -0.46,11.87 0.85,15.65 1.3,3.75 3.02,5.01 5.28,7.2 3.95,3.83 8.18,5.83 14.98,5.59 2.14,-0.08 2,0.01 3.02,1.18 5.35,6.16 14.89,5.33 19.03,-1.2 2.6,-0.14 6.08,0.15 8.86,0.15 3.73,0 19.14,0.4 21.69,-0.55 4.46,-1.66 0.98,-2.28 4.84,-0.58 2.47,1.09 4.73,1.28 7.41,0.74 3.98,-0.8 5.38,-3.15 6.96,-4.32 0.83,0.56 1.19,1.57 3.22,2.89 3,1.95 6.66,2.21 10.06,1.12 5.69,-1.81 1.82,-3.11 6.19,-0.67 0.72,0.4 1.65,0.58 2.27,1.04 -0.43,1.09 -2.35,2.14 -1.01,3.86 1.02,1.31 2.31,0.93 3.69,1.71 -0.2,0.68 -1.74,2.8 -2.55,4.76 -0.74,1.81 -1.19,4.2 0.09,5.66z"/>
   <path class="fil1" d="M33.89 50.79c0.44,-0.35 3.27,-1.17 3.86,-1.04l0.05 4.21c-0.54,-0.23 -1.35,-1.25 -1.8,-1.67 -0.8,-0.75 -1.45,-0.93 -2.11,-1.5zm-11.12 3.39c-0.3,-1.04 -0.18,-9.19 -0.06,-10.68 0.64,0.56 1.04,1.23 1.65,1.8 0.64,0.6 1.16,1.06 1.8,1.66 0.68,0.63 1.04,1.12 1.76,1.7 0.5,0.4 1.54,0.84 1.82,1.37 -0.59,0.23 -1.63,0.18 -2.37,0.42 -2.94,0.95 -3.78,3.01 -4.6,3.73zm34.39 -15.23c0.37,-0.06 13.21,-0.34 14.68,-0.03l0.47 7.34c-1.07,-0.34 -1.39,-1.34 -2.76,-1.79 -2.44,-0.82 -8.93,0.07 -12.47,-0.42l0.08 -5.09zm-53.88 6.44c0.34,0.86 0.09,6.71 0.24,8.24 0.11,1.15 0.15,1.75 1.19,2.01 0.77,-2.25 -0.02,-12.05 0.36,-15.42 0,-11.41 7.94,-11.97 16.31,-11.94 6.12,0.02 12.26,0.78 14.31,6.83 2.74,8.11 -2.98,12.46 -8.22,10.15 -4.83,-2.13 -2.91,-7.04 -4.46,-9.55 -0.32,-0.51 -1.23,-1.39 -1.92,-1.56 -0.83,-0.21 -1.72,0.69 -2.15,1.14 -1.46,1.56 -1.21,3.39 -1.26,5.89 -0.1,4.73 0.01,9.43 0.01,14.15 1.2,0.01 2.22,-0.29 3.37,-0.02 1.31,0.31 1.92,1.17 3.03,0.73 1.1,-1.71 1.35,-3.52 5.04,-4.22 3.82,-0.72 5.36,1.66 6.58,2.82 0.95,0.25 0.08,0.16 0.92,0.5 0.3,0.12 0.75,0.17 1.07,0.25 0.79,0.2 1.31,0.46 2.11,0.56 -0.42,-1.16 -0.23,-4.59 -0.23,-6.12 -0,-2.93 0.83,-2.72 1.54,-4.63 1.49,-3.96 -1.12,-9.03 -1.37,-10.27 -0.76,-3.8 1.28,-6.45 5.61,-6.63 4.03,-0.17 8.41,-0.02 12.49,-0.03 2.45,-0.01 10.52,-0.54 11.95,0.58 1.28,1.01 1.69,2.7 0.41,4.16 -1.14,1.3 -3.04,1.11 -5.07,1.1l-12.48 -0c-0.64,0.13 -0.53,0.14 -0.55,0.91l0.08 10.68c1.98,0.76 15.31,-0.46 17.1,0.39 1.08,0.51 2.22,2.17 1.39,3.92 -1.23,2.6 -6.61,1.76 -9.77,1.77 -1.92,0.01 -3.84,0.02 -5.76,0.02 -3.4,0.01 -2.9,-0.61 -2.94,2.85 1.37,0.83 4.3,-0.77 4.94,1.82l11.45 -0.01c4.79,0 3.73,-1.09 3.76,6.1l1.34 -0.36 0.36 -4.21c0.03,-0.48 0.12,-1.93 0.21,-2.34 0.19,-0.93 3.03,-2.79 0.96,-6.3 -1.24,-2.11 -1.24,-0.1 -1.19,-4.51 0.02,-1.92 0.01,-3.86 0.04,-5.78 0.04,-2.05 1.25,-1.8 1.72,-3.72 0.9,-3.65 -3.15,-4.43 1.12,-6.56l0.52 -0.24c1.31,-0.52 4.69,-0.25 6.33,-0.25 11.57,-0.04 21.75,-1.24 21.63,12.52 -0.05,5.7 -3.26,7.48 -3.23,8.25 0.04,1.06 2.53,0.95 3.42,7.69 0.64,1.2 0.06,3.01 0.33,4.36 0.95,-0.07 0.73,-0.59 1.83,-0.52 1.01,0.06 1.15,0.59 2.31,0.38 0.37,-0.57 0.24,-1.17 0.32,-1.9 0.32,-3.69 -2.9,-5.55 -1.36,-9.12 1.23,-2.85 1.78,-6.72 1.14,-10.17 -0.24,-1.32 -1.16,-3.59 -0.68,-4.73 1.67,-4.02 6.04,-5.99 10.52,-6.57 7.2,-0.92 14.72,0.39 17.9,4.81 1.88,2.61 2.03,5.65 2.03,9.42 -0,2.36 -0.3,9.46 0.12,11.34l4.75 0.18c0.39,-2.89 -0.07,-7.87 -0.09,-10.94 -0.04,-7.05 -1.75,-6 -1.75,-9.4 -0,-4.95 0.51,-5.65 5.51,-5.62 3.65,0.02 7.3,0.04 10.95,0.06 6.98,0.04 12.62,2.25 14.42,7.82 1.31,4.07 -0.11,19.69 0.75,21.36 1.22,0.88 2.26,0.15 4,1.92 0.55,0.27 0.26,0.1 0.48,0.01 0.4,-1.53 0.26,-6.22 0.26,-8.07 0.01,-2.41 -0.39,-6.12 -0.14,-8.29 0.81,-4.37 -3.19,-7.57 -1.06,-11.99 1.76,-3.65 6.85,-2.83 11.62,-2.82 9.94,0.04 17.92,-0.19 18.98,9.81 0.99,1.88 0.16,11.81 0.35,14.82 1.39,-1.04 3.15,2.92 4.73,4.08 -0.09,-3.86 0.31,-15.22 -0.3,-18.02 -0.8,-3.66 -1.79,-3.24 0.54,-6.3 1.22,-1.61 2.8,-2.94 5.54,-3.67 3.74,-1 13.3,-0.96 17.36,-0.42 5.15,0.69 8.64,3.79 9.41,8.84 0.74,1.16 0.28,13.6 0.37,16.1 1.12,-0.1 1.77,0.86 2.31,1.37 1.9,1.78 1.15,1.76 2.15,1.65 0.72,-1.71 -0.09,-13.61 0.13,-14.52 0.45,-2.19 -0.53,-4.94 -1.35,-6.49 -1.11,-2.11 -2.31,-2.6 -3.73,-4.15 -2.78,-3.03 -5.14,-4.4 -10.99,-4.68 -4.65,-0.22 -10.67,-0.5 -15.19,0.25 -6.47,1.08 -7.24,4.42 -9,6.57 -0.68,-0.33 -2.67,-2.27 -3.24,-2.89 -3.81,-4.1 -8.83,-3.9 -14.42,-4.02 -3.5,-0.08 -8.92,-0.35 -12.18,0.06 -1.81,0.23 -3.12,1.07 -4.07,2.14 -1.27,1.41 -1.09,2.25 -1.54,4.41 -2.15,-0.06 -2.8,-6.69 -17.15,-6.68 -4.03,0 -8.07,-0.04 -12.1,-0 -5.81,0.05 -5,4.5 -5.27,6.72 -1.45,-0.37 -2.18,-3 -6.72,-5.03 -5.11,-2.28 -15.23,-2.23 -20.38,-0.01 -4.01,1.73 -4.51,3.57 -6.23,5.5 -4.23,-2.77 -3.32,-6.63 -15.55,-7.08 -3.75,-0.14 -7.57,-0.03 -11.34,-0.03 -7.45,-0.01 -6.42,2.4 -8.06,3.21 -1.12,-1.01 -1,-2.07 -2.83,-2.88 -1.41,-0.62 -3.54,-0.37 -5.24,-0.37 -4.14,0 -19.13,-0.24 -22.07,0.23 -1.74,0.28 -2.64,1.11 -3.5,2.12 -1.14,1.35 -1,2.8 -1.7,3.75 -1.66,-0.78 -2.82,-4.59 -9.05,-5.66 -4.36,-0.75 -9.65,-0.48 -14.01,-0.11 -4.63,0.39 -7.72,2.33 -9.51,5.39 -2.11,3.61 -1.58,8.46 -1.66,13.14z"/>
   <path class="fil0" d="M200.64 81.06c0.32,-1.04 1.57,-2.56 2.17,-3.41 0.83,-1.17 1.87,-1.48 3.84,-1.52 -0.25,0.77 -0.66,0.9 -1.26,1.4 -1.22,1.02 -3.18,3.27 -4.75,3.52zm8.36 -0.15c0.15,-0.84 3.48,-5.5 4.69,-6.19 0.62,-0.36 2.25,-1.25 2.78,-0.69 0.62,0.66 -2.32,2.87 -3.24,3.68 -0.71,0.62 -3.44,2.96 -4.22,3.2zm6.7 -14.97c1.06,0.07 2.1,0.73 2.52,1.37 -0.39,0.67 -1.54,1.09 -2.12,1.56 -0.47,0.38 -1.32,1.67 -2.03,1.42 -2.22,-0.77 1.07,-3.98 1.62,-4.36zm9.1 -27.61c-0.13,-1.31 0.5,-2.6 1.24,-3.31 0.94,-0.89 2.15,-0.88 3.68,-0.84 2.04,0.05 2.36,0.13 3.23,1.48 0.63,0.99 0.9,2 1.03,3.41 0.25,2.8 0.02,14.14 0.02,17.87 0,1.69 -0.09,3.1 -0.76,4.47 -0.76,1.55 -1.1,1.94 -3.12,2.08 -1.59,0.11 -3.35,0.14 -4.24,-0.97 -0.6,-0.76 -1.21,-2.59 -1.3,-3.86 -0.23,-3.44 0,-11.23 -0.02,-15.55 -0,-0.83 -0.01,-1.66 -0.02,-2.5 -0,-0.69 -0.15,-1.74 0.27,-2.29zm-10.95 18.65c0.01,1.58 0.02,3.19 -0.04,4.77 -0.18,5.41 0.33,2.08 0.59,4.31l-1.96 1.55c-0.58,1.7 -3.35,4.9 -5.76,4.93 -0.7,-0.94 -0.92,-1.64 -1.91,-2.17 -1.22,-0.65 -1.8,0.05 -2.73,0.46l0.81 0.14c0.68,0.01 0.96,-0.37 1.76,0.13 2.58,1.64 -0.06,2.88 -2.56,6.37 -1.09,1.52 -2.73,3.43 -3.11,5.64 1.82,-0.38 7.09,-4.99 8.09,-6.23 0.88,-1.11 3.73,-5.58 5.21,-5.54 0.77,0.02 1.88,0.95 2.16,1.54 -0.35,0.78 -1.57,1.51 -2.14,2.12 -1.6,1.72 -4.61,5.65 -5.1,7.82 1.98,-0.1 9.68,-7.55 11.62,-8.99 1.55,-1.15 4,-2.23 4.23,-2.44 -0.01,-0.06 -0.05,-0.43 -0.04,-0.48 0.21,-1.01 -0.24,0.09 0.17,-0.32 -0.93,0.29 -3.02,1.52 -3.59,1.54 -1.15,0.04 -2.87,-1.52 -3.21,-2.14 0.79,-1.67 3.11,-1.35 5.15,-0.99 1.9,0.34 4.51,0.35 6.52,0.38 3.29,0.05 6.6,0.12 9.85,-0.49 1.07,-0.2 2.04,-0.7 2.87,-0.72 0.33,-0.35 0.2,-0.22 0.7,-0.5 0.33,-0.18 0.43,-0.21 0.75,-0.41 0.56,-0.35 0.91,-0.7 1.3,-1.01 3.49,-4.33 3,-6.23 3.01,-12.97 0.01,-4.83 0.36,-11.24 -0.08,-15.88 -0.77,-5.05 -4.26,-8.15 -9.41,-8.84 -4.06,-0.55 -13.63,-0.59 -17.36,0.42 -2.74,0.73 -4.31,2.06 -5.54,3.67 -2.32,3.06 -1.33,2.64 -0.54,6.3 0.61,2.8 0.21,14.16 0.3,18.02z"/>
   <path class="fil0" d="M86.67 35.04c0,-0.87 0.07,-0.96 0.95,-0.96 3.47,0 5.35,1.03 5.25,5.95 -0.06,3.18 -0.75,5.87 -4.1,5.87 -1.03,0 -1.27,0.1 -2.05,-0.17l-0.05 -10.7zm-12.6 22.94c-0.1,1.63 -0.16,3.23 0.02,4.77 0.14,1.15 0.8,3.19 0.78,3.76l0.2 0.23c0.17,0.19 0.13,0.16 0.29,0.33 2.91,3.1 7.8,2.84 10.1,-0.2 1.43,-1.89 1.22,-3.92 1.22,-6.68 -0,-2.62 0,-5.25 0,-7.87 0.07,-0.93 -0.04,-0.23 0.35,-0.56 1,-0.22 3.2,-0.12 4.01,0.38 0.58,0.37 1.67,1.87 1.64,2.96 0.41,0.4 0.31,0.93 0.33,2.01 0.02,0.83 0.01,1.67 0.02,2.5 0.01,1.35 -0.12,3.69 0.13,4.84 1.44,6.41 9.69,5.97 11.8,1.59 0.99,-2.05 0.82,-6.66 0.63,-9.3 -0.89,-6.74 -3.38,-6.63 -3.42,-7.69 -0.03,-0.77 3.18,-2.55 3.23,-8.25 0.11,-13.76 -10.07,-12.56 -21.63,-12.52 -1.64,0.01 -5.02,-0.27 -6.33,0.25l-0.52 0.24c-4.27,2.13 -0.22,2.9 -1.12,6.56 -0.47,1.92 -1.68,1.67 -1.72,3.72 -0.04,1.92 -0.02,3.86 -0.04,5.78 -0.05,4.41 -0.05,2.4 1.19,4.51 2.07,3.51 -0.77,5.37 -0.96,6.3 -0.08,0.41 -0.18,1.86 -0.21,2.34z"/>
   <path class="fil0" d="M174.21 68.89c0.4,-0.41 2.67,-1.37 4.01,-2.19 1.19,-0.73 2.67,-2.43 4.11,-2.3 0.46,0.99 0.3,1.58 0.61,2.64 0.37,1.25 0.9,1.44 1.19,2.48 -1.86,-0.43 -2.67,-1.57 -3.56,-2.56 -1.64,0.08 -4,1.76 -6.37,1.94zm19.03 -34.58c0.85,-0.05 1.25,0.3 1.73,0.92 0.31,0.4 0.95,1.2 0.95,1.74 0.59,0.3 0.32,2.42 0.33,3.83 0.01,1.34 0.01,2.69 0.02,4.03 0.02,3.15 0.45,13.8 -0.38,16.09 -0.87,2.39 -2.34,2.74 -4.59,2.62l-1.02 -0.22c-0.29,-0.76 -0.4,-27.78 -0.03,-29.15 0.69,-0.06 1.91,-0.2 2.56,-0.04 0.6,0.14 0.19,0.02 0.42,0.17zm-14.02 8.76c0.57,1.09 0.23,13.93 0.23,16.17 0,1.35 0.01,2.69 -0.01,4.04 -0.03,2.26 -1.26,2.7 -4.27,4.03 -0.91,0.4 -2.27,0.72 -2.97,1.2 0.28,2.3 4.58,0.48 5.87,0.39 2.71,-0.2 4.61,1.45 6.52,1.56 0.92,-0.4 0.56,-0.75 1.5,-0.8 0.85,-0.58 4.16,-0.24 5.22,-0.22 2.84,0.06 7.35,0 10.02,-0.74 1.89,-0.52 2.45,-1.27 3.85,-1.86l0.88 -0.91c2.93,-2.85 2.87,-7.64 2.8,-11.49 -0.1,-5.35 0.24,-11.1 -0.1,-16.37 -1.06,-10 -9.04,-9.77 -18.98,-9.81 -4.77,-0.02 -9.86,-0.84 -11.62,2.82 -2.14,4.43 1.87,7.63 1.06,11.99z"/>
   <path class="fil0" d="M5.07 40.22c-0.01,5.2 -0.59,18.65 0.97,22.66 2.55,6.56 9.45,6.44 17.45,6.44 0.85,0.23 0.51,1.73 2.32,3.54 2.52,2.51 7.59,2.44 9.81,-1.28 0.47,-0.78 0.54,-1.48 0.86,-2.11 0.08,-4.35 0.58,-11.23 -0.78,-14.82 -1.22,-1.16 -2.77,-3.55 -6.58,-2.82 -3.69,0.7 -3.93,2.52 -5.04,4.22 -0.09,1.73 -0.16,7.75 -3.46,7.45 -1.13,-0.1 -2.24,-1.62 -2.62,-2.82 -0.49,-1.56 -0.3,-3.59 -0.31,-5.33 -0,-4.72 -0.11,-9.43 -0.01,-14.15 0.05,-2.51 -0.2,-4.33 1.26,-5.89 0.43,-0.45 1.32,-1.35 2.15,-1.14 0.69,0.17 1.6,1.05 1.92,1.56 1.55,2.5 -0.37,7.41 4.46,9.55 5.24,2.31 10.96,-2.04 8.22,-10.15 -2.04,-6.05 -8.19,-6.81 -14.31,-6.83 -8.37,-0.03 -16.31,0.53 -16.31,11.94z"/>
   <path class="fil0" d="M39.81 55.95c0.68,0.79 1.67,2.39 1.48,3.65l0.23 0.97c0.11,1.9 -0.26,7.33 0.09,8.57 1.27,0.44 19.11,0.19 22.96,0.19 4.38,-0.01 4.2,0.49 5.9,-1.31 0.33,-0.35 -0.01,-0.05 0.33,-0.31 0.01,-0.2 0.9,-2.62 -1.27,-3.81 -1.56,-0.86 -13.9,-0.23 -17.28,-0.39l-0.04 -8.86c0.05,-3.45 -0.46,-2.83 2.94,-2.85 1.92,-0.01 3.84,-0.02 5.76,-0.02 3.16,-0.01 8.54,0.83 9.77,-1.77 0.83,-1.75 -0.31,-3.41 -1.39,-3.92 -1.8,-0.85 -15.13,0.37 -17.1,-0.39l-0.08 -10.68c0.02,-0.77 -0.09,-0.78 0.55,-0.91l12.48 0c2.03,0 3.92,0.2 5.07,-1.1 1.28,-1.46 0.87,-3.15 -0.41,-4.16 -1.43,-1.12 -9.5,-0.59 -11.95,-0.58 -4.07,0.01 -8.45,-0.14 -12.49,0.03 -4.34,0.18 -6.37,2.83 -5.61,6.63 0.25,1.24 2.86,6.32 1.37,10.27 -0.72,1.91 -1.55,1.7 -1.54,4.63 0,1.53 -0.19,4.97 0.23,6.12z"/>
   <path class="fil2" d="M172.64 59.88l-6.25 7.85c-1.03,1.37 -1.98,2.73 -2.93,4.17 -0.92,1.39 -1.67,3.63 -4.08,2.38 -0.98,-0.51 -2.9,-3.17 -4.12,-0.79 -0.74,1.45 1.72,1.36 -3.59,6.6 -1.35,1.33 -2.46,2.13 -3.9,3.21 -1.01,0.76 -1.44,1.01 -2.8,0.56 -0.73,-2.43 5.82,-11.65 11.67,-12.56l1.01 -0.16c0.47,-0.14 0.19,-0.01 0.42,-0.19 -3.64,-2 -16.16,4.63 -15.49,11.32 0.2,2 2.25,2.86 4.28,2.44 3.03,-0.63 6.86,-2.95 8.7,-5.14 3.18,-3.8 1.83,-4.72 5.25,-4.06 -0.08,1.17 -1.73,3.41 -2.33,4.48 -0.97,1.74 -1.47,3.84 0.48,4.52 2.2,0.77 6.7,-4.91 8.1,-5.26 -0.41,1.95 -1.82,3.64 0.37,5.02 3.82,2.4 13.2,-6.19 14.72,-7.05 -0.34,1.49 -5.19,6.99 -1.14,7.76 0.61,-1.25 1.6,-2.37 2.43,-3.29 0.48,-0.54 0.85,-0.82 1.43,-1.45 1.34,-1.43 7.02,-6.42 8.36,-6.66 -0.29,0.67 -2.39,2.91 -3.48,4.81 -0.77,1.34 -2.66,5.39 0.6,5.07 0.39,-0.13 4.34,-4.44 5.16,-5.25 0.85,-0.84 1.71,-1.6 2.71,-2.47 0.53,-0.47 2.31,-2.08 3,-2.06 -0.13,0.56 -5.65,6.53 -5.24,9.31 0.12,0.81 1.01,1.68 2.03,1.58 0.88,-0.08 3.87,-2.27 4.62,-2.9 0.64,-0.54 1.42,-1.37 2.15,-1.77 -0.09,1.59 -1.5,2.42 -0.48,3.97 1.95,2.95 7.57,-3.8 9.32,-4.71 -0.12,1.7 -1.51,3.09 -0.1,4.51 2.22,2.25 6.27,-0.21 8.67,-1.64 1.32,-0.78 2.48,-1.88 3.68,-2.47 -0.24,1.76 -1.23,2.85 0.21,4.42 1.29,1.41 2.74,-0.05 3.81,-0.78l6.79 -5.01c-0.37,1.57 -2.51,3.73 -1.49,5.51 1.21,2.1 3.38,0.23 4.66,-0.71 0.38,-0.28 7.24,-5.95 7.5,-6.55 0.38,-0.87 0.24,-0.25 -0.15,-0.51 -0.13,0.41 -7.14,6.54 -9.12,6.78 0.25,-1.69 2.5,-4.66 3.67,-5.7 1.05,-0.93 1.9,-1.41 0.48,-2.66 -0.71,-0.62 -0.37,-0.41 -1.37,-0.43l-2.88 2.38c-1.98,1.7 -7.39,5.98 -9.58,6.52 0.28,-3.52 6.37,-8.4 9.92,-10.2 1.25,-0.64 2.55,-1.39 3.97,-0.99 0.66,0.18 0.82,0.44 1.04,0.75l0.62 0.07c-0.25,-1.07 -1.2,-1.46 -2.33,-1.87 -2.73,-0.2 -5.72,0.98 -7.71,2.06 -5.23,2.83 -6.41,5.6 -10.98,8.21 -1.57,0.9 -5,3.07 -6.88,2.22 -0.77,-3.29 8.67,-11.84 11.59,-10.84 -0,0.8 -1.12,2.47 -1.63,3.01 0.83,-0.17 3.23,-2.11 2.35,-3.51 -1.03,-1.64 -3.52,-0.81 -5.36,-0.37 -0.23,0.2 -2.68,1.29 -4.23,2.44 -1.93,1.44 -9.64,8.89 -11.62,8.99 0.49,-2.17 3.51,-6.1 5.1,-7.82 0.57,-0.62 1.79,-1.34 2.14,-2.12 -0.28,-0.59 -1.38,-1.53 -2.16,-1.54 -1.48,-0.03 -4.33,4.44 -5.21,5.54 -0.99,1.24 -6.26,5.85 -8.09,6.23 0.39,-2.22 2.02,-4.12 3.11,-5.64 2.5,-3.5 5.14,-4.73 2.56,-6.37 -0.8,-0.51 -1.08,-0.12 -1.76,-0.13 -0.45,0.77 -6.3,5.1 -8.49,7.66 -0.31,0.36 -2.29,2.5 -2.59,2.65 0.21,-2.33 5.21,-7.87 5.19,-8.39 -0.8,-2.24 -1.95,-1.78 -3.56,-0.6 -3.09,2.27 -4.19,3.11 -6.95,5.72 -0.6,0.57 -2.76,2.88 -3.37,3.11 0.15,-0.87 1.07,-1.67 1.61,-2.37 2.33,-3.02 2.77,-4.02 5.87,-6.43 -0.12,-0.57 0.06,-0.04 -0.17,-0.58 -1.76,-0.18 -1.58,-2.95 -5.12,1.45 -0.78,0.97 -2.95,3.83 -4.31,4.22l-0.18 0.26c-0.6,0.74 -1.46,1.32 -2.26,1.82 -1.03,0.64 -1.81,1.14 -2.86,1.75 -0.87,0.5 -5.27,3.26 -6.31,1.69 -0.57,-1.43 1.25,-2.85 1.87,-3.64 2.15,-2.76 5.95,-6.93 9.82,-7.69 -0.37,1.92 -4.88,5.02 -6.58,6.14 -1.3,0.86 -2.11,0.87 -2.64,1.78 2.93,-0.32 4.8,-2.22 7.01,-3.14 0.37,-0.58 3.36,-2.08 3.3,-4.51 -0.82,-0.59 -1.42,-1.38 -3.07,-1.2 -2.79,0.29 -6.87,3.01 -8.6,4.62 -1.15,1.07 -8.2,7.48 -9.78,7.71 -0.06,-3.09 10.93,-17.47 14.15,-21 0.71,-0.78 2.18,-1.62 2.71,-2.34 -0.42,-0.84 -1.59,-1.21 -2.74,-1.03 -1.16,0.18 -1.51,0.96 -2.16,1.29z"/>
   <path class="fil3" d="M3.28 45.38c-0.14,3.23 0.01,6.17 0.01,9.44 0,3.5 -0.27,5.74 0.91,8.9 1.04,2.79 2.68,3.89 4.28,5.52 5.04,5.16 8.67,4.21 15,4.82 1.49,0.14 2.2,1.24 2.95,2.01 0.84,0.85 1.47,1.55 2.62,2.19 2.34,1.3 5.55,1.36 8.08,0.22 3.42,-1.55 3.49,-3.75 4.23,-5.55 0.66,0.14 1.1,0.52 1.92,0.74 0.79,0.21 1.33,0.25 2.19,0.3 4.3,0.24 20.2,0.17 24.87,0.08 5.18,-0.09 4.64,-3.09 5.95,-3.94 1.39,1.28 1.37,2.05 3.56,3.06 1.64,0.76 4.04,1.02 5.91,0.55 5.8,-1.47 5.52,-6.42 6.09,-7.09 0.54,0.73 0.63,1.12 1.21,1.78l4.91 4.32c2.94,1.87 6.38,1.76 9.41,-0.05 0.1,-1.52 -0.78,-1.99 -0.11,-3.99 0.9,-2.69 3.43,-3.37 3.45,-5.38 0.01,-0.67 0.04,-3.7 -0.3,-4.22 -0.09,0.73 0.04,1.33 -0.32,1.9 -1.17,0.21 -1.3,-0.32 -2.31,-0.38 -1.11,-0.07 -0.88,0.45 -1.83,0.52 -0.26,-1.36 0.31,-3.17 -0.33,-4.36 0.19,2.64 0.36,7.25 -0.63,9.3 -2.11,4.38 -10.36,4.82 -11.8,-1.59 -0.26,-1.14 -0.13,-3.49 -0.13,-4.84 -0.01,-0.83 -0,-1.67 -0.02,-2.5 -0.02,-1.08 0.07,-1.61 -0.33,-2.01 -0.12,0.75 0.45,7.44 0.13,9.49 -0.78,-0.3 -0.53,-0.46 -1.55,-0.75 -3.72,-1.07 -2.79,0.45 -4.38,1.1l0.14 -13.18c-0.39,0.33 -0.28,-0.38 -0.35,0.56 0,2.62 -0,5.25 0,7.87 0,2.76 0.2,4.79 -1.22,6.68 -2.3,3.04 -7.19,3.3 -10.1,0.2 -0.16,-0.17 -0.12,-0.14 -0.29,-0.33l-0.2 -0.23c0.13,1.14 0.08,0.3 -0.12,0.7 -1.63,-0.38 -1.92,-0.3 -3.22,0.35 -0.72,0.36 -0.36,0.38 -0.72,0.13 -0.33,0.26 0,-0.04 -0.33,0.31 -1.71,1.8 -1.53,1.3 -5.9,1.31 -3.85,0.01 -21.69,0.25 -22.96,-0.19 -0.35,-1.24 0.02,-6.66 -0.09,-8.57l-0.23 -0.97c-0.25,1.53 -0.12,7.44 -0.14,9.46 -1.56,0.15 -1.27,-0.58 -2.46,-0.43 -0.54,0.07 -1.52,0.63 -2.21,0.83 -0.32,0.63 -0.39,1.33 -0.86,2.11 -2.22,3.72 -7.29,3.79 -9.81,1.28 -1.81,-1.8 -1.47,-3.31 -2.32,-3.54 -8,0 -14.9,0.12 -17.45,-6.44 -1.56,-4 -0.98,-17.46 -0.97,-22.66 -0.38,3.37 0.41,13.17 -0.36,15.42 -1.04,-0.27 -1.07,-0.86 -1.19,-2.01 -0.15,-1.53 0.1,-7.38 -0.24,-8.24z"/>
   <path class="fil2" d="M115.34 92.1c0.57,0.18 0.55,0.31 1.22,0.31 0.1,-2.97 0.2,-2.81 1.52,-5l4.01 -5.79c0.64,-0.81 1.08,-0.77 2.2,-1.03 6.18,-1.47 13.63,-4.03 19.19,-6.94 1.43,-0.75 3.08,-2.07 4.24,-2.49 0.31,-0.5 2.5,-1.87 3.1,-2.48 0.63,-0.64 1.98,-2.28 2.48,-3.3 1.77,-3.6 0.36,-6.23 -1.92,-7.89 -4.45,-3.23 -13.37,-3.08 -19.56,-1.88 -22.93,4.43 -28.6,17.61 -19.88,17.99 -0.8,-1.34 -4.07,-2.72 2.54,-7.84 7.41,-5.73 20.88,-11.69 30.97,-9.61 12.08,2.49 5.72,9 -0.83,13.25 -3.83,2.49 -14.62,7.59 -19.23,8.3 1.14,-2.52 9.75,-11.05 12.15,-13.45 3.52,-3.53 3.62,-2.28 5.18,-3.28 -0.21,-0.67 -1.03,-1.27 -1.69,-1.6 -0.89,-0.45 -1.85,-0.19 -2.61,0.2 -3.94,2.02 -12.37,11.96 -15.24,15.68 -0.67,0.87 -1.97,2.95 -2.62,3.52 -1.04,0.91 -3.95,0.98 -5.3,0.43 0.15,-1.51 3.07,-3.22 4.29,-4.1 -0.9,0.04 -2.52,1.04 -3.2,1.57 -5.64,4.32 0.6,4.28 2.33,4.85 -0.39,2.26 -4.64,5.53 -3.37,10.58z"/>
   <path class="fil4" d="M145.92 83.14c0,-1.17 3.03,-6.21 4.14,-6.36 0.14,-0.02 2.82,0.27 3.01,0.32 -0.25,0.94 -5.56,6.27 -7.15,6.04zm14.84 -9.5c0.21,-0.66 0.42,-0.74 1.21,-0.96 -0.16,0.76 -0.34,0.81 -1.21,0.96zm3.86 -4.89c-0.35,0.64 -0.16,0.41 -0.68,0.83 -1.06,0.15 -1.24,0.17 -2.27,0.03 -2.15,-0.3 -0.44,0.52 -2.09,0.48 -1.08,0.37 -1.53,-0.26 -2.83,-0.25 -1.1,0.01 -2.03,0.19 -3.07,0.33 -1.11,0.29 -2.12,0.6 -3.15,1.1 -0.83,0.4 -2.12,1.27 -2.8,1.45 -0.18,-0.36 -0.22,-0.03 0.07,-0.5l-0.07 -1.07c-1.16,0.42 -2.81,1.74 -4.24,2.49 -5.56,2.92 -13.02,5.48 -19.19,6.94 -1.12,0.27 -1.55,0.23 -2.2,1.03l-4.01 5.79c-1.32,2.19 -1.42,2.02 -1.52,5 -0.67,-0 -0.65,-0.13 -1.22,-0.31 -0.69,0.28 -0.18,-0.1 -0.39,0.61 1.02,0.74 1.24,0.7 2.62,0.36 0.78,-0.19 1.78,-0.35 2.32,-0.8 -0.75,-0.46 -1.69,-0.21 -2.51,-0.57 -0.16,-1.87 3,-6.16 3.97,-7.55 0.88,-1.25 1.29,-2.33 3.02,-2.76 5.13,-1.25 7.89,-2.08 12.94,-3.94 1.37,-0.5 3.02,-0.94 4.31,-1.45 2.26,-0.9 2.86,-2.27 3.54,-1.54 0.39,0.54 -0.35,0.92 -0.79,1.4 -0.36,0.4 -0.82,0.98 -1.19,1.51 -3.25,4.71 -1.26,9.53 4.45,8.08 2.72,-0.69 4.93,-2.29 6.84,-3.71 3.23,-2.41 3.65,-5.29 4.9,-5.52 0.35,1.54 -4.64,5.55 -1.98,8.27 2.79,2.85 5.99,-1.23 7.6,-2.39l0.2 0.41c0.22,0.55 0.19,0.97 0.67,1.58 2.33,3 7.31,0.63 9.8,-0.94 1.14,-0.72 2.1,-1.61 3.11,-2.14 0.02,2.14 -1.03,2.48 0.63,4.14 1.31,1.32 3.59,0.87 4.45,0.39 -0.46,-0.61 -0.86,-0.42 -1.52,-0.96 0.23,-0.91 5.55,-6.43 6.65,-6.86 -0.09,1.34 -1.64,2.64 -1.48,4.34 0.12,1.23 1.69,2.97 3.25,2.18 0.95,-0.48 2.31,-2.09 2.97,-2.81 0.79,-0.85 1.87,-2.39 2.96,-2.82 -0.9,2.43 -3.25,4.18 -0.18,6.55 2.07,1.6 4.94,-1.61 6.28,-2.23 2.77,6.16 7.21,-0.33 8.95,-0.9 1.51,4.99 5.63,3.96 9.48,1.74 1.09,-0.63 2.06,-1.52 2.94,-1.92 0.43,0.74 1.26,5.16 4.49,3.2l5.35 -3.39c-0.26,1.37 -0.22,1.94 0.63,2.83 0.53,0.56 1.39,1.32 2.54,1.06 2.79,-0.62 11.96,-8.88 12.12,-10.39 -0.33,-0.2 -0.43,-0.35 -0.94,-0.52 -0.32,0.49 -0.09,0.39 -0.48,0.79 -0.22,0.23 0.09,-0.07 -0.36,0.28l-0.31 0.22c0.4,0.26 0.53,-0.36 0.15,0.51 -0.26,0.6 -7.11,6.27 -7.5,6.55 -1.28,0.94 -3.45,2.82 -4.66,0.71 -1.02,-1.78 1.12,-3.94 1.49,-5.51l-6.79 5.01c-1.07,0.73 -2.52,2.19 -3.81,0.78 -1.43,-1.57 -0.44,-2.66 -0.21,-4.42 -1.2,0.59 -2.36,1.69 -3.68,2.47 -2.41,1.42 -6.46,3.89 -8.67,1.64 -1.41,-1.43 -0.02,-2.81 0.1,-4.51 -1.75,0.91 -7.37,7.66 -9.32,4.71 -1.03,-1.55 0.39,-2.37 0.48,-3.97 -0.73,0.4 -1.5,1.23 -2.15,1.77 -0.75,0.63 -3.74,2.82 -4.62,2.9 -1.02,0.1 -1.91,-0.77 -2.03,-1.58 -0.41,-2.78 5.11,-8.74 5.24,-9.31 -0.69,-0.02 -2.47,1.59 -3,2.06 -1,0.87 -1.86,1.63 -2.71,2.47 -0.82,0.81 -4.77,5.12 -5.16,5.25 -3.26,0.32 -1.37,-3.73 -0.6,-5.07 1.09,-1.91 3.19,-4.14 3.48,-4.81 -1.34,0.24 -7.02,5.23 -8.36,6.66 -0.58,0.63 -0.95,0.91 -1.43,1.45 -0.82,0.91 -1.81,2.04 -2.43,3.29 -4.04,-0.77 0.8,-6.28 1.14,-7.76 -1.52,0.86 -10.9,9.45 -14.72,7.05 -2.19,-1.38 -0.78,-3.07 -0.37,-5.02 -1.4,0.35 -5.9,6.03 -8.1,5.26 -1.94,-0.68 -1.45,-2.78 -0.48,-4.52 0.6,-1.07 2.25,-3.31 2.33,-4.48 -3.42,-0.66 -2.07,0.26 -5.25,4.06 -1.83,2.19 -5.67,4.51 -8.7,5.14 -2.04,0.42 -4.09,-0.44 -4.28,-2.44 -0.67,-6.69 11.85,-13.32 15.49,-11.32 -0.23,0.17 0.05,0.05 -0.42,0.19l-1.01 0.16c-5.85,0.91 -12.4,10.14 -11.67,12.56 1.36,0.44 1.79,0.2 2.8,-0.56 1.44,-1.08 2.55,-1.88 3.9,-3.21 5.31,-5.23 2.84,-5.15 3.59,-6.6 1.22,-2.38 3.14,0.28 4.12,0.79 2.41,1.25 3.16,-0.99 4.08,-2.38 0.95,-1.44 1.91,-2.8 2.93,-4.17l6.25 -7.85c-1.27,-0.01 -4.48,2.49 -5.2,3.35 -1.75,2.1 -0.62,1.69 -1.48,2.75 -0.54,0.67 -0.45,0.37 -0.86,1.28l-0.5 1.49z"/>
   <path class="fil5" d="M104.75 11.61l-3.41 10.85c-0.56,1.26 -2.81,1.83 -2.33,-0.17 0.56,-2.34 1.57,-4.95 2.27,-7.21 0.38,-1.23 0.73,-2.48 1.14,-3.66 0.25,-0.72 0.4,-1.03 1.34,-1.06 1.19,-0.04 1.25,0.3 0.99,1.25zm-13.52 11.78c0.72,0.22 4.57,0.39 5.79,0.54 5.48,0.69 6.4,3.11 10.02,2.69 1.09,-0.13 0.97,-0.69 1.31,-1.79 1.07,-3.48 6.67,-20.32 6.59,-21.67l-7.34 0.04c-0.68,1.13 -1.28,3.79 -1.67,5.19 -1.2,-0.27 -1.43,-0.91 -2.96,-1.15 -3.58,-0.56 -6.77,0.37 -8.09,3.95l-2.94 9.16c-0.26,0.83 -0.79,2.06 -0.77,2.78l0.06 0.27z"/>
   <path class="fil5" d="M196.9 23.5c0.77,-1.94 6.25,-19.17 6.18,-20.37 -1.35,-0.04 -6.42,-0.12 -7.35,0.2 -0.94,1.17 -0.92,3.64 -1.73,4.98 -0.92,0.01 -1.42,-0.85 -3.13,-1.09 -1.27,-0.18 -2.64,-0.15 -3.79,0.14 -2.37,0.6 -3.35,1.72 -4.12,3.95 -0.71,2.08 -3.69,10.78 -3.74,12.43l7.7 -0.24c0.36,-1.1 0.65,-2.64 1.04,-3.94l2.27 -7.34c0.37,-1.2 1.04,-2.45 2.62,-1.75 0.79,0.77 -3.77,12.66 -3.8,13.04l7.85 -0.02z"/>
   <path class="fil5" d="M171.11 8.93c0.12,-0.97 0.36,-0.62 0.41,-1.55l-7.63 0.06c-0.5,0.74 -5.01,15.09 -4.97,15.93l7.24 0.7c1.39,-2.19 3.64,-15.83 6.26,-13.56 0.38,0.33 0.39,0.22 -0.06,1.72 -0.2,0.67 -0.34,1.16 -0.53,1.81 -0.61,2.07 -3.2,9.91 -3.24,10.64 1.12,1.06 4.51,2.53 6.65,1.81 0.86,-0.43 3.28,-9.09 3.72,-10.52 1.18,-3.83 3.92,-8.85 -2.23,-8.85 -3.71,0 -4.06,1.22 -5.61,1.82z"/>
   <path class="fil5" d="M207.05 23.36c-0.2,-2.75 1.59,-5.3 3.77,-5.73 -0.1,1.28 -0.67,2.83 -1.09,3.95 -0.53,1.4 -1.04,2.54 -2.68,1.77zm2.3 -8.71c1,-2.07 0.45,-5.16 3.48,-4.03 0.09,1.81 -0.53,3.9 -2.32,4.42 -3.32,0.98 -7.89,1.71 -9.34,3.74 -0.67,0.93 -1.65,3.49 -1.61,4.91 5.67,1.12 6.04,1.97 7.71,2.36l1.48 -0.97c-0.03,0.74 -0.4,0.88 -0.2,1.38 2.74,0.7 7.53,-0.51 8.18,-2.49 0.95,-2.89 3.97,-12.05 3.61,-14.08 -0.73,-4.06 -12.11,-3.56 -15.8,-0.03 -0.88,0.85 -2.17,3.02 -2.23,4.8l7.03 -0z"/>
   <path class="fil5" d="M70.58 23.87c3.21,1.96 2.24,1.08 5.28,0.16 1.16,-0.35 2.17,-0.05 2.64,-1.19l2.65 -8.47c0.29,-0.92 0.6,-2.23 0.95,-2.92 0.47,-0.93 3.14,-2.39 2.19,0.68l-1.46 4.86c-0.43,1.44 -1.98,5.31 -1.95,6.51 1.55,0.04 6.25,0.26 7.37,-0.11 0.73,-0.59 1.65,-4.69 2.03,-5.89 1.81,-5.82 4.23,-10 -1.3,-10.37 -1.13,-0.08 -2.51,0.08 -3.48,0.41 -1.09,0.37 -1.47,1.1 -2.52,1.41 0.06,-1.03 0.36,-0.5 0.25,-1.55 -1.51,-0.06 -6.29,-0.3 -7.38,0.08 -0.48,0.37 -0.34,0.22 -0.6,1.01 -0.13,0.4 -0.18,0.59 -0.31,1 -0.86,2.82 -4.25,13.15 -4.37,14.38z"/>
   <path class="fil5" d="M119.6 23.81c-0.16,-2.14 -0.09,-1.89 0.54,-3.87 0.41,-1.26 0.77,-2.45 1.15,-3.67 1.33,-4.27 1.3,-6.42 3.72,-5.75 0.36,1.34 -2.02,7.9 -2.66,9.9 -0.37,1.16 -0.98,2.25 -1.24,3.11l7.21 0.14c1.7,-2.82 3.35,-7.37 4.08,-11.06 1.06,-5.28 -4.81,-5.94 -9.44,-5.39 -7.45,0.89 -8.28,5.5 -10.31,12.32 -0.61,2.06 -1.57,4.2 0.11,5.68 1.08,0.08 2.26,-0.54 3.39,-0.81 1.14,-0.28 2.24,-0.35 3.43,-0.62z"/>
   <path class="fil5" d="M140.04 25.64c1,-0.11 2.49,-1.72 4.85,-2 2.04,-0.24 1.35,0.06 1.72,-1.8 0.16,-0.78 0.56,-1.81 0.82,-2.64 0.57,-1.78 1.11,-3.46 1.67,-5.24 0.58,-1.86 0.72,-4.08 3.03,-3.49 0.22,1.99 -3.63,11.61 -3.65,13.02 1.33,0.08 6.01,0.21 6.96,-0.08 1.13,-0.82 3.75,-9.04 4.09,-11.11 0.83,-5 -5.32,-5.71 -9.64,-5.05 -7.55,1.14 -8.12,5.21 -10.24,12.41 -0.61,2.06 -1.38,4.31 0.39,5.99z"/>
   <path class="fil5" d="M60.4 14.68c0.39,-0.75 0.67,-2.25 1.13,-3.25 0.3,-0.65 0.38,-1 1.13,-1.05 2.68,-0.18 0.12,4.03 0.12,4.04 -0.52,0.56 -2.19,0.95 -3.04,1.18 -1.86,0.5 -5.13,1.22 -6.54,2.09 -1.06,0.65 -2.64,3.86 -2.57,5.74 1.19,0.11 2.56,0.06 3.77,0.06 0.71,0 3.06,0.2 3.42,-0.25 0.4,-0.49 0.32,-4.99 4.12,-5.56 -0.35,1.71 -1.71,4.4 -1.75,5.79l7.63 0 3.09 -10.11c0.49,-2.21 0.95,-4.01 -0.77,-5.22 -2.46,-1.73 -10.54,-1.33 -13.66,0.93 -1.74,1.26 -3.23,4.17 -3.18,5.58l7.09 0.03z"/>
   <path class="fil5" d="M24.42 7.78c0.9,-0.03 1.81,-0.03 2.71,-0.02 0.97,0.01 1.87,0.24 2.25,-0.43 0.15,-0.27 1.13,-3.75 1.16,-4.21l-17.46 0.05c-0.32,0.65 -1.36,3.75 -1.36,4.59l4.45 0.06c0.02,1.83 -4.63,13.79 -4.88,16.38 1.36,-0.11 2.62,-0.36 3.93,-0.46 1.29,-0.1 2.9,0.13 4.03,-0.21 0.61,-0.35 4.59,-14.02 5.16,-15.74z"/>
   <path class="fil5" d="M238.17 14.28c-1.76,0.09 -1.17,-0.9 -0.74,-1.88 0.33,-0.77 0.58,-1.81 1.22,-2.02 2.54,-0.82 0.91,3.16 0.47,3.86l-0.95 0.04zm-2.32 3.06c2.12,-0.23 5.28,-0.03 7.5,-0.01 2.76,0.03 2.59,0.67 3.68,-3.6 1.39,-5.43 -2.25,-6.75 -7.33,-6.64 -5,0.11 -7.85,1.59 -9.66,5.04 -0.88,1.68 -3.51,9.29 -3.16,11.35l7.29 0.04c0.31,-2.32 1.21,-4.07 1.68,-6.17z"/>
   <path class="fil1" d="M224.8 38.32c0.01,2.82 -0.17,18.09 0.11,18.8 0.15,0.4 2.33,0.86 3.79,3.14l0.93 -0.05 -0.03 -18.08c0.02,-0.87 0.12,-1.77 0.54,-2.47 0.36,-0.6 1.11,-1.38 1.77,-0.65 0.37,0.37 0.37,15.6 0.23,17.35l0.85 1.15c1.06,-0.2 0.06,-0.17 1.01,-0.59 0.01,-3.73 0.23,-15.07 -0.02,-17.87 -0.12,-1.41 -0.39,-2.42 -1.03,-3.41 -0.87,-1.36 -1.19,-1.44 -3.23,-1.48 -1.53,-0.04 -2.74,-0.05 -3.68,0.84 -0.75,0.71 -1.38,2 -1.24,3.31z"/>
   <path class="fil5" d="M53.97 7.21c-2.48,-0.3 -3.96,1.71 -5.48,2.43 0.09,-0.59 0.17,-0.59 0.4,-1.05l0.24 -0.8c0,-0.03 -0.02,-0.07 -0.02,-0.14 -0,-0.07 -0.01,-0.1 -0.03,-0.14 -0.91,-0.32 -5.91,-0.27 -7.13,-0.07 -0.7,0.98 -3.89,11.65 -4.73,14.29l-1.11 4.75c0.92,0.8 2.46,-1.81 5.8,-2.58 2.96,-0.68 2.08,0.91 3.49,-3.63 1.74,-5.59 1.31,-5.98 6.7,-6.57l1.87 -6.48z"/>
   <path class="fil5" d="M33.28 25.26c0.68,-2.3 5.53,-16.93 5.46,-17.74l-7.74 -0.1c-0.96,2.31 -1.75,5.48 -2.57,8 -0.53,1.64 -2.34,6.69 -2.44,8.12 1.31,0.23 2.63,0.42 3.83,0.72 1.02,0.25 2.59,0.95 3.46,1z"/>
   <path class="fil1" d="M195.92 36.97c-0,-0.54 -0.64,-1.34 -0.95,-1.74 -0.48,-0.62 -0.88,-0.97 -1.73,-0.92l-2.93 0.12 -0.05 20.48c2.4,-1 3.8,0.08 5.8,-0.54l-0.13 -17.39z"/>
   <path class="fil3" d="M127.24 59.75c-1.08,0.14 -3.6,1.42 -4.74,1.92 -1.17,0.51 -1.28,0.44 -1.34,1.98 -0.09,2.45 -1.95,4.69 -4.34,5.39 -2.14,0.63 -4.76,-0.72 -5.2,1 -0.56,2.2 4.51,4.88 8.67,3.66 5.37,-1.58 5.38,-6.03 6.11,-6.78 0.48,0.4 0.65,1.02 0.92,1.55 2.27,-0.4 0.64,-2.07 0.26,-3.48 -0.47,-1.73 -0.24,-3.35 -0.34,-5.24z"/>
   <path class="fil1" d="M155.88 37.57l-0.17 6.88c0,2.41 0.05,4.82 0.07,7.23 0.95,-0.03 2.58,-0.38 3.45,-0.28 0.85,0.1 1.1,0.91 2.62,1.23 -0.06,-4.34 0.27,-9.73 -0.1,-13.92 -0.16,-1.78 -1.16,-4.2 -2.52,-4.49 -1.61,-0.35 -3.36,1.94 -3.34,3.34z"/>
   <path class="fil6" d="M178.61 59.42l0.18 0.96c-0.71,0.61 -1.27,0.46 -2.05,0.97 -2.33,1.53 -2.4,4.07 -3.52,5.51 -0.89,1.14 -5.15,3.28 -5.77,6.2 0.6,0.44 1.59,0.72 2.49,0.86 1,0.16 1.52,-0.42 2.03,-0.82 1.84,-1.4 6.72,-4.16 9.13,-3.06 2.91,1.34 1.73,3.36 1.65,4.06 1.32,-0.21 1.49,-0.84 2.19,-1.67 0.6,-0.71 1.04,-1.11 1.73,-1.73 0.84,-0.75 1.28,-1.12 2.64,-0.42 0.76,0.39 1.33,0.88 1.8,1.54 1.41,1.49 3.04,-3.39 6.1,-0.43 0.83,0.8 0.86,1.01 0.68,2.43 0.68,-0.26 2.02,-1.4 2.4,-1.95 -0.39,-0.27 0.08,-0.23 -0.73,-0.03 -2.09,0.52 -1.12,-0.38 -2.47,-2.28l-10.98 0.06c-0.95,0.05 -0.58,0.4 -1.5,0.8 -1.92,-0.11 -3.81,-1.75 -6.52,-1.56 -1.29,0.09 -5.59,1.91 -5.87,-0.39 0.7,-0.48 2.06,-0.8 2.97,-1.2 3.01,-1.33 4.24,-1.77 4.27,-4.03 0.02,-1.35 0.01,-2.69 0.01,-4.04 -0.01,-2.24 0.34,-15.08 -0.23,-16.17 -0.25,2.18 0.14,5.89 0.14,8.29 -0,1.84 0.13,6.54 -0.26,8.07 -0.22,0.1 0.06,0.26 -0.48,-0.01z"/>
   <path class="fil6" d="M147.8 72.23c-0.29,0.47 -0.26,0.13 -0.07,0.5 0.67,-0.18 1.97,-1.06 2.8,-1.45 1.04,-0.5 2.05,-0.81 3.15,-1.1 0.45,-1.96 -0.5,-0.89 1.65,-3.52 1.15,-1.41 0.98,-1.62 1.45,-3.55 1.43,-0.65 2.63,-0.39 3.94,0.45l1.17 0.87 -0.03 -11.78c-1.52,-0.32 -1.76,-1.13 -2.62,-1.23 -0.87,-0.1 -2.5,0.25 -3.45,0.28 -0.02,-2.41 -0.07,-4.82 -0.07,-7.23l0.17 -6.88 -0.14 0.26c-0.47,1.22 -0.15,19.79 -0.15,21.03 -0,3.97 0.51,6.66 -1.92,8.82 -1.62,1.44 -4.58,3.11 -5.87,4.55z"/>
   <path class="fil0" d="M72.38 62.55c-0.03,-7.18 1.02,-6.1 -3.76,-6.1l-11.45 0.01 -0.02 5.22c1.93,0.57 10.97,-0.29 12.73,0.51 0.71,0.32 1.84,1.45 2.48,1.58l0.01 -1.23z"/>
   <path class="fil0" d="M57.08 44.03c3.54,0.49 10.03,-0.39 12.47,0.42 1.37,0.46 1.69,1.45 2.76,1.79l-0.47 -7.34c-1.47,-0.3 -14.31,-0.03 -14.68,0.03l-0.08 5.09z"/>
   <path class="fil6" d="M70.81 67.71c0.36,0.25 0.01,0.23 0.72,-0.13 1.3,-0.66 1.59,-0.73 3.22,-0.35 0.2,-0.4 0.25,0.44 0.12,-0.7 0.01,-0.58 -0.65,-2.62 -0.78,-3.76 -0.18,-1.54 -0.13,-3.14 -0.02,-4.77l-0.36 4.21 -1.34 0.36 -0.01 1.23c-0.64,-0.13 -1.77,-1.26 -2.48,-1.58 -1.76,-0.8 -10.81,0.06 -12.73,-0.51l0.02 -5.22c-0.64,-2.59 -3.57,-0.99 -4.94,-1.82l0.04 8.86c3.38,0.16 15.72,-0.47 17.28,0.39 2.16,1.19 1.27,3.61 1.27,3.81z"/>
   <path class="fil6" d="M92.7 55.11c0.03,-1.09 -1.05,-2.59 -1.64,-2.96 -0.81,-0.51 -3.02,-0.6 -4.01,-0.38l-0.14 13.18c1.59,-0.65 0.66,-2.17 4.38,-1.1 1.02,0.29 0.77,0.45 1.55,0.75 0.32,-2.05 -0.26,-8.74 -0.13,-9.49z"/>
   <path class="fil6" d="M243.46 66.25c0.01,0.01 0.09,0.99 1.67,-0.05 1.03,-0.68 0.79,-1.98 3.23,-0.45 0.67,0.42 0.98,1.02 1.31,1.75 0.44,-0.43 0.33,-0.78 1.01,-1.35 0.98,-1.12 0.9,-9.56 0.91,-11.72 0.01,-0.96 0.32,-11.6 -0.25,-12.44 -0.22,0.9 0.59,12.81 -0.13,14.52 -1.01,0.11 -0.25,0.13 -2.15,-1.65 -0.54,-0.51 -1.19,-1.47 -2.31,-1.37 -0.1,-2.49 0.37,-14.94 -0.37,-16.1 0.44,4.64 0.09,11.06 0.08,15.88 -0.01,6.74 0.49,8.63 -3.01,12.97z"/>
   <path class="fil3" d="M205.19 66.84c-1.4,0.59 -1.96,1.34 -3.85,1.86 -2.67,0.74 -7.19,0.8 -10.02,0.74 -1.06,-0.02 -4.37,-0.36 -5.22,0.22l10.98 -0.06c1.35,1.9 0.38,2.8 2.47,2.28 0.8,-0.2 0.34,-0.24 0.73,0.03l1.77 -1.08c0.93,-0.41 1.51,-1.11 2.73,-0.46 0.99,0.53 1.21,1.23 1.91,2.17 2.41,-0.03 5.17,-3.24 5.76,-4.93 -0.31,-0.49 0.48,-0.99 0.72,-1.63 -0.15,-0.41 -1.25,-2.33 -1.45,-2.68 -2.81,-0.34 -4.54,5.04 -6.51,3.56z"/>
   <path class="fil1" d="M121.09 45.41c0.21,0.83 3.25,0.46 4.17,0.48 2.51,0.05 2.1,0.07 2.09,-2.4 -0.02,-2.95 0.28,-5.52 -1.01,-7.79 -1.69,-2.97 -4.07,-1.19 -4.85,1.35 -0.37,1.21 -0.73,7.09 -0.4,8.36z"/>
   <path class="fil3" d="M144.94 64.4c-0.97,-0.45 -0.11,-0.14 -0.76,-0.83 0.1,0.76 0.13,0.25 -0.11,0.69 -0.72,-0.49 -1.14,-1.42 -1.92,-1.97 -2.91,-0.17 -1.71,3.72 -4.5,5.7 -1.75,1.24 -5.72,1.41 -6.14,4.12 2.21,2.41 4.51,0.91 7.03,-0.36 1.08,-0.54 2.26,-1.1 3.28,-1.69 3.76,-2.13 2.99,-0.87 3.12,-5.66z"/>
   <path class="fil1" d="M86.67 35.04l0.05 10.7c0.78,0.27 1.03,0.17 2.05,0.17 3.35,0 4.03,-2.68 4.1,-5.87 0.1,-4.92 -1.78,-5.95 -5.25,-5.95 -0.88,0 -0.95,0.09 -0.95,0.96z"/>
   <path class="fil4" d="M216.87 82.46c-0.07,-1.4 3.78,-5.46 4.78,-6.18 0.87,0.05 1.54,0.25 2.4,0.39 0.8,0.13 1.77,0.14 2.66,0.18 -0.11,0.85 -7.58,5.73 -9.85,5.61zm6.26 -11.86c-0.4,0.41 0.04,-0.69 -0.17,0.32 -0.01,0.04 0.03,0.41 0.04,0.48 1.84,-0.45 4.33,-1.27 5.36,0.37 0.88,1.41 -1.52,3.34 -2.35,3.51 0.51,-0.54 1.62,-2.21 1.63,-3.01 -2.91,-1 -12.36,7.55 -11.59,10.84 1.88,0.85 5.3,-1.33 6.88,-2.22 4.58,-2.61 5.75,-5.38 10.98,-8.21 1.99,-1.08 4.98,-2.26 7.71,-2.06 0.26,-0.27 0.17,-0.17 0.29,-0.63 -0.9,-0.45 -1.05,-0.29 -2.04,-0.15 -6.33,0.71 -8.68,4.21 -10.49,4.23 0.18,-2.31 0.67,-2.76 -1.5,-3.75 -1.56,-0.71 -3.34,-0.32 -4.75,0.29z"/>
   <path class="fil6" d="M195.92 36.97l0.13 17.39c-2,0.63 -3.4,-0.45 -5.8,0.54l0.05 -20.48 2.93 -0.12c-0.23,-0.15 0.17,-0.03 -0.42,-0.17 -0.65,-0.16 -1.86,-0.02 -2.56,0.04 -0.37,1.37 -0.27,28.39 0.03,29.15l1.02 0.22c2.25,0.11 3.73,-0.24 4.59,-2.62 0.83,-2.28 0.39,-12.94 0.38,-16.09 -0.01,-1.34 -0.01,-2.69 -0.02,-4.03 -0.01,-1.41 0.26,-3.53 -0.33,-3.83z"/>
   <path class="fil6" d="M205.19 66.84c1.98,1.48 3.7,-3.9 6.51,-3.56 0.2,0.35 1.31,2.28 1.45,2.68 -0.24,0.65 -1.03,1.15 -0.72,1.63l1.96 -1.55c-0.25,-2.23 -0.76,1.1 -0.59,-4.31 0.05,-1.57 0.04,-3.19 0.04,-4.77 -1.59,-1.16 -3.34,-5.12 -4.73,-4.08 -0.19,-3.01 0.63,-12.94 -0.35,-14.82 0.34,5.27 0.01,11.02 0.1,16.37 0.07,3.85 0.13,8.64 -2.8,11.49l-0.88 0.91z"/>
   <path class="fil6" d="M36.48 69.46c0.69,-0.19 1.67,-0.76 2.21,-0.83 1.19,-0.15 0.9,0.58 2.46,0.43 0.01,-2.03 -0.11,-7.94 0.14,-9.46 0.19,-1.27 -0.8,-2.86 -1.48,-3.65 -0.8,-0.09 -1.32,-0.36 -2.11,-0.56 -0.32,-0.08 -0.77,-0.13 -1.07,-0.25 -0.84,-0.33 0.03,-0.25 -0.92,-0.5 1.36,3.59 0.86,10.47 0.78,14.82z"/>
   <path class="fil0" d="M229.63 60.22l0.19 1.62c2.54,0.18 2.27,-3.24 2.32,-5.46 0.14,-1.75 0.15,-16.98 -0.23,-17.35 -0.66,-0.74 -1.41,0.05 -1.77,0.65 -0.42,0.69 -0.52,1.6 -0.54,2.47l0.03 18.08z"/>
   <path class="fil6" d="M223.13 70.59c1.41,-0.61 3.2,-1.01 4.75,-0.29 2.17,1 1.68,1.45 1.5,3.75 1.82,-0.02 4.17,-3.52 10.49,-4.23 0.49,-0.36 0.59,-0.38 1.33,-0.41 -0.16,-0.75 -0.4,-0.73 -0.01,-1.3l-0.48 0.05c-0.83,0.02 -1.8,0.52 -2.87,0.72 -3.25,0.62 -6.56,0.54 -9.85,0.49 -2.01,-0.03 -4.62,-0.04 -6.52,-0.38 -2.03,-0.36 -4.36,-0.69 -5.15,0.99 0.34,0.62 2.06,2.18 3.21,2.14 0.57,-0.02 2.66,-1.24 3.59,-1.54z"/>
   <path class="fil3" d="M153.68 70.17c1.04,-0.14 1.98,-0.33 3.07,-0.33 1.31,-0.01 1.75,0.62 2.83,0.25 0.52,-1.23 0.68,-2.22 1.08,-3.28 0.81,0.38 1.67,2.95 3.28,2.78 0.51,-0.42 0.32,-0.19 0.68,-0.83 -0.29,-0.92 -2.26,-1.81 -2.74,-4.34l-1.17 -0.87c-1.31,-0.84 -2.51,-1.1 -3.94,-0.45 -0.47,1.93 -0.3,2.14 -1.45,3.55 -2.15,2.64 -1.2,1.56 -1.65,3.52z"/>
   <path class="fil6" d="M17.69 55.34c0.02,1.74 -0.18,3.77 0.31,5.33 0.38,1.19 1.48,2.71 2.62,2.82 3.3,0.3 3.37,-5.72 3.46,-7.45 -1.11,0.45 -1.72,-0.41 -3.03,-0.73 -1.15,-0.27 -2.16,0.03 -3.37,0.02z"/>
   <path class="fil5" d="M236.29 23.52c0.74,0.33 2.51,0.55 3.42,0.74 1.13,0.24 2.21,0.73 3.09,-0.14 0.91,-0.91 2.71,-3.57 2.64,-5.56 -6.89,-0.23 -7.06,-0.46 -7.59,1.38 -0.59,2.04 -1.26,2.69 -1.56,3.58z"/>
   <path class="fil3" d="M243.46 66.25c-0.4,0.31 -0.74,0.66 -1.3,1.01 -0.32,0.2 -0.42,0.22 -0.75,0.41 -0.49,0.27 -0.37,0.14 -0.7,0.5l0.48 -0.05c-0.39,0.57 -0.14,0.56 0.01,1.3 -0.74,0.03 -0.84,0.05 -1.33,0.41 0.99,-0.14 1.14,-0.3 2.04,0.15 1.87,0.42 2.28,1.26 3.18,2.49 2.17,-0.36 5.09,-3.82 5.6,-6.31 -0.69,0.57 -0.57,0.92 -1.01,1.35 -0.34,-0.73 -0.64,-1.33 -1.31,-1.75 -2.44,-1.53 -2.2,-0.23 -3.23,0.45 -1.58,1.04 -1.66,0.06 -1.67,0.05z"/>
   <path class="fil4" d="M191.1 71.84l-0.7 -0.12c0.23,0.53 0.05,0 0.17,0.58 -3.1,2.41 -3.54,3.41 -5.87,6.43 -0.54,0.7 -1.46,1.5 -1.61,2.37 0.61,-0.23 2.76,-2.54 3.37,-3.11 2.76,-2.61 3.86,-3.45 6.95,-5.72 1.61,-1.18 2.76,-1.64 3.56,0.6 0.02,0.51 -4.98,6.06 -5.19,8.39 0.3,-0.15 2.28,-2.29 2.59,-2.65 2.19,-2.56 8.04,-6.88 8.49,-7.66l-0.81 -0.14 -1.77 1.08c-0.38,0.55 -1.72,1.68 -2.4,1.95 0.18,-1.41 0.15,-1.63 -0.68,-2.43 -3.05,-2.97 -4.68,1.91 -6.1,0.43z"/>
   <path class="fil6" d="M234 56.94c-0.96,0.42 0.05,0.39 -1.01,0.59l-0.85 -1.15c-0.05,2.22 0.22,5.64 -2.32,5.46l-0.19 -1.62 -0.93 0.05c-1.46,-2.29 -3.64,-2.75 -3.79,-3.14 -0.28,-0.72 -0.09,-15.98 -0.11,-18.8 -0.42,0.55 -0.27,1.6 -0.27,2.29 0.01,0.83 0.01,1.66 0.02,2.5 0.03,4.32 -0.2,12.1 0.02,15.55 0.08,1.27 0.69,3.1 1.3,3.86 0.89,1.12 2.65,1.08 4.24,0.97 2.02,-0.14 2.36,-0.53 3.12,-2.08 0.67,-1.36 0.77,-2.78 0.76,-4.47z"/>
   <path class="fil4" d="M180.96 77.39c-0.4,-0.24 -0.1,-0.06 -0.33,-0.21 -0.03,-0.02 -0.11,-0.02 -0.13,-0.09 -0.02,-0.07 -0.1,-0.07 -0.14,-0.1 -1.62,1.24 -7.72,5.58 -10.2,5.53 0.32,-2.64 2.87,-1.88 6.89,-4.13l2.03 -1.55 -0.25 -0.49c-2.21,0.92 -4.08,2.82 -7.01,3.14 0.53,-0.9 1.33,-0.91 2.64,-1.78 1.7,-1.12 6.21,-4.22 6.58,-6.14 -3.87,0.77 -7.67,4.93 -9.82,7.69 -0.62,0.79 -2.44,2.21 -1.87,3.64 1.04,1.56 5.43,-1.19 6.31,-1.69 1.05,-0.6 1.84,-1.11 2.86,-1.75 0.81,-0.5 1.67,-1.08 2.26,-1.82l0.18 -0.26z"/>
   <path class="fil4" d="M230.57 80.88c-0.07,-1.71 2.91,-4.33 5.12,-4.02 -0.33,0.7 -1.87,1.73 -2.48,2.2 -0.8,0.62 -2.03,1.79 -2.65,1.82zm10.29 -6.93c-0.03,-0.02 -0.33,-0.24 -0.34,-0.25 -0.03,-0.02 -0.12,-0.03 -0.15,-0.1 -0.03,-0.08 -0.11,-0.07 -0.16,-0.11l-1.96 0.46c0.79,-0.65 0.8,-0.58 1.9,-0.97 0.77,-0.28 1.29,-0.75 2.2,-0.34l0.98 -0.22c-0.22,-0.31 -0.38,-0.57 -1.04,-0.75 -1.42,-0.39 -2.71,0.36 -3.97,0.99 -3.56,1.81 -9.64,6.68 -9.92,10.2 2.18,-0.54 7.6,-4.82 9.58,-6.52l2.88 -2.38z"/>
   <path class="fil0" d="M22.77 54.17c0.82,-0.73 1.67,-2.78 4.6,-3.73 0.74,-0.24 1.78,-0.2 2.37,-0.42 -0.28,-0.53 -1.32,-0.97 -1.82,-1.37 -0.72,-0.57 -1.08,-1.06 -1.76,-1.7 -0.64,-0.6 -1.16,-1.05 -1.8,-1.66 -0.61,-0.57 -1.01,-1.24 -1.65,-1.8 -0.12,1.49 -0.24,9.63 0.06,10.68z"/>
   <path class="fil0" d="M104.75 11.61c0.26,-0.95 0.2,-1.29 -0.99,-1.25 -0.94,0.03 -1.09,0.34 -1.34,1.06 -0.41,1.17 -0.76,2.42 -1.14,3.66 -0.7,2.26 -1.71,4.87 -2.27,7.21 -0.48,2 1.77,1.43 2.33,0.17l3.41 -10.85z"/>
   <path class="fil1" d="M121.18 57.56c1.22,-0.1 3.51,-1.03 4.65,-1.39 1.24,-0.39 1.47,-0.15 1.5,-1.52 0.02,-0.91 0.03,-1.96 -0.01,-2.89l-6.21 -0.07 0.07 5.87z"/>
   <path class="fil5" d="M39.28 6.45c0.25,-0.68 0.91,-2.43 0.81,-3.28l-7.73 0.03c-0.3,0.96 -0.89,2.23 -0.79,3.29l7.71 -0.04z"/>
   <path class="fil5" d="M216.87 82.46c2.27,0.11 9.74,-4.76 9.85,-5.61 -0.89,-0.04 -1.86,-0.05 -2.66,-0.18 -0.86,-0.14 -1.53,-0.34 -2.4,-0.39 -1,0.72 -4.85,4.77 -4.78,6.18z"/>
   <path class="fil5" d="M145.92 83.14c1.59,0.23 6.91,-5.1 7.15,-6.04 -0.19,-0.05 -2.87,-0.34 -3.01,-0.32 -1.11,0.15 -4.14,5.19 -4.14,6.36z"/>
   <path class="fil1" d="M144.18 63.57c0.65,0.7 -0.21,0.38 0.76,0.83 -0.02,-1.45 0.23,-6.4 -0.28,-7.27l-0.43 -0.2c-0.05,-0.02 -0.1,-0.03 -0.15,-0.05 -0.89,-0.23 -3.45,-0.35 -4.14,-0.07 -0.29,1.8 1.06,1.24 2.69,2.72 1.04,0.94 1.3,2.38 1.55,4.04z"/>
   <path class="fil2" d="M174.21 68.89c2.37,-0.18 4.72,-1.86 6.37,-1.94 0.89,0.99 1.7,2.14 3.56,2.56 -0.29,-1.03 -0.82,-1.22 -1.19,-2.48 -0.31,-1.06 -0.16,-1.65 -0.61,-2.64 -1.45,-0.13 -2.92,1.57 -4.11,2.3 -1.34,0.82 -3.61,1.78 -4.01,2.19z"/>
   <path class="fil5" d="M209 80.9c0.78,-0.24 3.52,-2.57 4.22,-3.2 0.92,-0.82 3.86,-3.03 3.24,-3.68 -0.53,-0.56 -2.16,0.33 -2.78,0.69 -1.21,0.69 -4.54,5.35 -4.69,6.19z"/>
   <path class="fil0" d="M207.05 23.36c1.64,0.77 2.15,-0.37 2.68,-1.77 0.42,-1.12 0.99,-2.67 1.09,-3.95 -2.18,0.42 -3.97,2.97 -3.77,5.73z"/>
   <path class="fil5" d="M179.08 76.84l-2.03 1.55c-4.02,2.25 -6.56,1.49 -6.89,4.13 2.48,0.05 8.58,-4.3 10.2,-5.53 0.07,-0.57 0.05,-0.27 -0.19,-0.58l-1.09 0.43z"/>
   <path class="fil2" d="M215.7 65.93c-0.55,0.37 -3.84,3.58 -1.62,4.36 0.7,0.24 1.56,-1.04 2.03,-1.42 0.58,-0.47 1.73,-0.89 2.12,-1.56 -0.42,-0.65 -1.46,-1.3 -2.52,-1.37z"/>
   <path class="fil5" d="M162.17 80.9c1.13,-0.07 2.22,-1.29 2.97,-1.93 0.69,-0.6 1.99,-1.55 2.52,-2.25 -0.45,-0.55 -1.34,-0.96 -2.08,-1.1 -0.56,0.45 -3.26,4.63 -3.41,5.29z"/>
   <path class="fil5" d="M200.64 81.06c1.57,-0.25 3.53,-2.5 4.75,-3.52 0.6,-0.5 1.02,-0.63 1.26,-1.4 -1.97,0.03 -3.01,0.35 -3.84,1.52 -0.6,0.84 -1.85,2.36 -2.17,3.41z"/>
   <path class="fil5" d="M239.92 80.96c0.97,-0.27 6.72,-5.14 7.06,-5.94 -0.75,0.1 -1.39,0.54 -2.39,0.81 -0.97,0.26 -0.64,0.09 -0.99,0.74 -0.52,0.98 0.08,0.37 -0.77,0.78 -1.12,0.53 -2.49,2 -2.91,3.61z"/>
   <path class="fil0" d="M238.17 14.28l0.95 -0.04c0.44,-0.7 2.07,-4.68 -0.47,-3.86 -0.65,0.21 -0.89,1.25 -1.22,2.02 -0.43,0.98 -1.02,1.97 0.74,1.88z"/>
   <path class="fil0" d="M33.89 50.79c0.66,0.57 1.31,0.75 2.11,1.5 0.44,0.42 1.26,1.43 1.8,1.67l-0.05 -4.21c-0.59,-0.13 -3.42,0.69 -3.86,1.04z"/>
   <path class="fil5" d="M230.57 80.88c0.61,-0.03 1.84,-1.19 2.65,-1.82 0.6,-0.47 2.15,-1.5 2.48,-2.2 -2.21,-0.31 -5.19,2.31 -5.12,4.02z"/>
   <path class="fil5" d="M116.59 78.7c2.21,0.18 4.21,-0.36 4.58,-1.93 -0.73,-0.09 -2.15,0.1 -2.83,0.33 -0.77,0.26 -1.48,0.92 -1.75,1.6z"/>
   <path class="fil0" d="M159.59 70.08c1.65,0.05 -0.06,-0.77 2.09,-0.48 1.02,0.14 1.21,0.12 2.27,-0.03 -1.6,0.17 -2.47,-2.4 -3.28,-2.78 -0.4,1.07 -0.56,2.06 -1.08,3.28z"/>
   <path class="fil5" d="M127.8 76.1c0.6,0 1.06,-0.12 1.52,-0.29 0.9,-0.33 0.79,-0.17 0.79,-1.08 -1.16,-0.49 -2.05,0.38 -2.31,1.37z"/>
   <path class="fil7" d="M240.22 73.48c0.7,-0.24 0.47,-0.45 1.22,-0.49 0.66,-0.04 0.7,0.22 1.49,0.14l-0.57 -0.5c-0.91,-0.41 -1.44,0.07 -2.2,0.34 -1.1,0.4 -1.11,0.32 -1.9,0.97l1.96 -0.46z"/>
   <path class="fil2" d="M160.76 73.64c0.88,-0.15 1.06,-0.2 1.21,-0.96 -0.79,0.22 -1.01,0.3 -1.21,0.96z"/>
  </g>
 </g>
</svg>
