<?xml version="1.0" encoding="UTF-8"?>
<!DOCTYPE svg PUBLIC "-//W3C//DTD SVG 1.1//EN" "http://www.w3.org/Graphics/SVG/1.1/DTD/svg11.dtd">
<!-- Creator: CorelDRAW -->
<svg xmlns="http://www.w3.org/2000/svg" xml:space="preserve" width="63.3035mm" height="22.2533mm" version="1.1" style="shape-rendering:geometricPrecision; text-rendering:geometricPrecision; image-rendering:optimizeQuality; fill-rule:evenodd; clip-rule:evenodd"
viewBox="0 0 62.44 21.95"
 xmlns:xlink="http://www.w3.org/1999/xlink"
 xmlns:xodm="http://www.corel.com/coreldraw/odm/2003">
 <defs>
  <style type="text/css">
   <![CDATA[
    .fil0 {fill:#060808}
    .fil10 {fill:#070909}
    .fil1 {fill:#2D403B}
    .fil19 {fill:#323D42}
    .fil12 {fill:#4A5C66}
    .fil7 {fill:#4B5D66}
    .fil9 {fill:#89A5AB}
    .fil11 {fill:#89A6AC}
    .fil5 {fill:#8AA7AD}
    .fil4 {fill:#96AFB4}
    .fil18 {fill:#96B8CA}
    .fil8 {fill:#AFAF1E}
    .fil2 {fill:#B9FA06}
    .fil15 {fill:#CBE0DE}
    .fil13 {fill:#CEE2E1}
    .fil16 {fill:#EFFACF}
    .fil6 {fill:#FBFCFC}
    .fil14 {fill:#FDFDFD}
    .fil17 {fill:#FEFEFE}
    .fil3 {fill:white}
   ]]>
  </style>
 </defs>
 <g id="Camada_x0020_1">
  <metadata id="CorelCorpID_0Corel-Layer"/>
  <g id="_2596358754656">
   <path class="fil0" d="M32.4 2.37c-0.68,0.1 -1.12,0.2 -1.7,0.54 -0.64,0.37 -0.31,0.41 -0.88,0.09 -0.96,-0.53 -2.66,-0.44 -3.77,-0.45 -1.55,-0.02 -3.31,-0.07 -4.84,0.01 -1.29,0.07 -0.9,0.11 -2.28,0.03 -0.39,-0.02 -0.8,-0.02 -1.19,-0.02 -0.38,0 -0.79,0.05 -1.16,0.02 -0.79,-0.07 -1.29,-0.29 -2.14,-0.23 -1.3,0.1 -1.33,0.49 -1.98,0.3 -1.15,-0.33 -3.48,0.02 -4.62,-0.08 -0.71,-0.06 -1.61,-0.1 -2.31,-0.04 -0.88,0.08 -1.37,0.08 -1.67,0.8 -0.49,1.16 -0.92,8 -1.19,8.54 -0.48,0.16 -1.47,-0.12 -1.81,1.14 -0.2,0.7 -0.28,1.83 -0.38,2.61 -0.16,1.31 -0.67,4.15 -0.4,5.34 0.1,0.42 0.34,0.63 0.74,0.74 0.75,0.2 1.86,0.22 2.58,-0.07 0.59,-0.24 0.32,-0.05 1.1,0.18 1.12,0.32 1.69,-0.08 2.71,-0.04 0.98,0.04 1.92,0.04 2.91,0.01 0.51,-0.02 0.95,-0.06 1.45,0.02 0.49,0.08 0.86,0.12 1.39,0.08 1,-0.07 1.9,-0.06 2.91,-0.06 0.95,0 1.95,-0.04 2.89,0.05 0.4,0.04 0.97,0.07 1.36,-0.01 0.74,-0.16 0.18,-0.23 1.3,-0.12 0.89,0.08 1.96,0.07 2.87,0.07 0.99,0.01 1.96,0.03 2.95,0.03 1.99,0.01 3.98,0.01 5.97,-0.01 0.31,-0 1.22,0.03 1.46,-0.02 0.22,-0.04 -0.12,-0.08 0.62,-0.08 0.25,0 0.5,-0 0.76,-0 0.44,-0 1.01,-0.09 1.41,-0.01 0.54,0.1 0.83,0.08 1.39,0.07 3.87,-0.09 7.88,-0.06 11.75,0.02 0.5,0.01 0.97,0.02 1.46,-0.02 0.51,-0.05 0.95,0.03 1.44,0.02 0.54,-0 2.35,-0.08 2.74,-0.25 0.55,-0.25 0.44,-0.66 0.85,-0.47 1.16,0.57 2.52,-0.54 2.92,-1.17 0.33,-0.53 0.55,-1.6 0.64,-2.34 0.1,-0.81 0.01,-3.29 0.02,-4.42 0,-0.5 -0.02,-0.9 0.28,-1.21 0.49,-0.5 1.03,-0.82 1.32,-1.66 0.23,-0.65 0.1,-1.95 -0.03,-2.66 -0.12,-0.67 -0.27,-0.42 -0.09,-1.17 0.05,-0.21 0.24,-1.06 0.31,-1.18l0 -1.9c-0.23,-0.24 -0.32,-0.56 -1.02,-0.72 -0.87,-0.2 -1.33,0.2 -1.47,0.16 -0.12,-0.09 -0.31,-0.45 -0.43,-0.59 -0.15,-0.18 -0.34,-0.34 -0.53,-0.49 -1.62,-1.23 -2.16,-1.78 -4.32,-1.76 -1.72,0.02 -2.15,0.13 -3.05,1.03 -0.21,0.21 -1.34,1.45 -1.57,1.49l-2.98 -0.02c-0.43,-0 -0.53,0.06 -0.89,0.12 -0.33,0.06 -2.07,-0.92 -4.16,0.15 -0.31,0.16 -0.36,0.3 -0.7,0.1 -0.21,-0.12 -0.46,-0.22 -0.74,-0.28 -0.83,-0.17 -2.96,-0.14 -3.87,-0.1 -0.34,0.02 -0.57,0.09 -0.74,0.28 -0.11,0.12 -0.31,0.49 -0.43,0.55l-0.58 -0.47c-0.62,-0.45 -1.79,-0.55 -2.55,-0.48z"/>
   <path class="fil1" d="M56.06 12l0.26 0.01c0.11,-0.19 0.1,-0.21 0.01,-0.39 -0.33,-0.09 -0.43,0.13 -0.27,0.37z"/>
   <path class="fil2" d="M16.65 15.3c0.14,0.21 0.02,1.07 0.01,1.39 -0.02,0.47 0.05,1.29 -0.45,1.05 -0.18,-0.08 -0.04,-0.44 0,-0.62 0.04,-0.19 0.09,-0.41 0.14,-0.61 0.05,-0.24 0.2,-1.09 0.3,-1.2zm-12.72 -0.15c-0.33,0.19 -0.19,0.7 0.14,0.49 0.24,-0.15 0.14,-0.65 -0.14,-0.49zm32.5 -2.03c0.45,0.08 0.67,-0.08 0.97,-0.36 0.26,-0.24 0.68,-0.5 0.69,-0.73l-1.08 0.01c-0.12,0.16 -0.63,0.9 -0.58,1.08zm-1 6.86c0.17,0.08 1.19,0.06 1.33,-0.03 0.11,-0.09 0.13,-0.54 0.16,-0.76l0.53 -4.12c0.05,-0.37 0.25,-1.4 0.15,-1.68 -0.21,-0.07 -0.87,-0.04 -1.14,-0.04 -0.21,0 -0.24,0 -0.28,0.19 -0.02,0.12 -0.04,0.3 -0.05,0.44 -0.04,0.29 -0.07,0.57 -0.11,0.87l-0.56 4.31c-0.03,0.23 -0.16,0.65 -0.02,0.82zm16.9 -5.61c0.07,0.2 0,0.42 -0.01,0.66 -0.02,0.37 0.14,0.32 0.45,0.32 0.75,-0.01 0.85,0.15 0.91,-0.62 0.04,-0.55 0.03,-0.87 -0.31,-1.17 -0.29,-0.26 -0.74,-0.34 -1.21,-0.32 -0.97,0.04 -1.42,0.53 -1.66,1.34 -0.13,0.44 -0.17,0.88 -0.08,1.35 0.25,1.26 2.08,1.25 1.46,2.86 -0.21,0.55 0.29,0.36 0.88,0.24 0.51,-0.1 0.57,-0.35 0.63,-0.88 0.28,-2.38 -2.13,-2.07 -1.52,-3.52 0.1,-0.23 0.16,-0.36 0.45,-0.25zm-11.66 5.62c0.26,0.07 0.87,0.03 1.19,0.02 0.29,-0 0.92,0.06 1.11,-0.09 0.11,-0.44 -0.37,-0.4 -0.47,-0.64 -0.06,-0.15 -0.01,-0.35 -0.07,-0.5 -0.07,-0.17 -0.17,-0.11 -0.16,-0.4 0,-0.14 0.09,-0.9 0.13,-1.01 0.12,-0.32 0.62,-0.13 0.94,-0.23 0.06,-0.21 0.16,-0.88 0.13,-1.11 -0.25,-0.12 -0.62,-0.03 -0.85,-0.16 -0.07,-0.23 0.03,-0.58 0.07,-0.81 0.06,-0.41 0.09,-0.43 0.52,-0.41 0.43,0.01 0.51,0.03 0.57,-0.38 0.04,-0.25 0.13,-0.62 0.07,-0.87 -0.27,-0.12 -1.63,-0.06 -2.07,-0.05 -0.26,0 -0.31,0 -0.35,0.26 -0.11,0.7 -0.18,1.41 -0.27,2.11 -0.08,0.61 -0.59,3.94 -0.49,4.26zm-1.35 -0.34c0.04,0.03 0.3,0.6 0.95,0.34 0.22,-0.09 0.22,-0.66 0.28,-1.08 0.04,-0.29 0.37,-2.29 0.25,-2.41 -0.16,-0.08 -1.36,-0.08 -1.57,-0.02 -0.18,0.24 -0.2,0.65 -0.06,0.94 0.22,0.48 0,1.87 -0.44,1.58 -0.2,-0.14 -0.06,-0.72 -0.02,-0.97 0.08,-0.67 0.17,-1.34 0.25,-2.01 0.05,-0.39 0.1,-1.97 0.61,-1.64 0.17,0.32 -0.17,1.05 0.03,1.37 0.15,0.07 0.81,0.05 1.02,0.05 0.43,-0 0.39,-0.28 0.42,-0.69 0.06,-0.73 -0.12,-1.36 -0.57,-1.63 -0.73,-0.45 -2.33,-0.41 -2.75,1.16 -0.26,0.96 -0.47,2.77 -0.53,3.8 -0.07,1.31 0.74,1.86 1.5,1.66 0.36,-0.1 0.44,-0.31 0.64,-0.45zm-29.63 -5.08c0.7,-0.08 0.34,1.27 0.1,1.43 -0.46,0.3 -0.28,-0.34 -0.25,-0.55 0.04,-0.27 0.08,-0.63 0.15,-0.87zm-0.81 5.5c0.27,-0.29 0.31,-2.79 0.5,-2.93 0.05,-0.04 0.45,-0.18 0.36,0.53l-0.2 1.75c-0.09,0.74 -0.21,0.69 0.83,0.69 0.5,0 0.44,-0.24 0.5,-0.69 0.05,-0.39 0.28,-1.77 0.23,-2.06 -0.07,-0.46 -0.39,-0.5 -0.48,-0.73 0.16,-0.25 0.54,-0.06 0.7,-0.86 0.14,-0.72 0.34,-2.07 -0.67,-2.24 -0.5,-0.08 -1.36,-0.08 -1.94,-0.08 -0.46,-0 -0.4,0.28 -0.45,0.7l-0.65 5.1c-0.04,0.33 -0.21,0.82 0.12,0.87 0.15,0.03 1,0 1.15,-0.03zm-2.72 -5.62c0.53,-0.21 0.31,0.65 0.28,0.93l-0.33 2.53c-0.03,0.27 -0.06,1.09 -0.26,1.19 -0.53,0.26 -0.31,-0.71 -0.28,-0.93l0.42 -3.17c0.03,-0.22 0.01,-0.44 0.18,-0.55zm-2.74 1.57c-0.05,-0.16 0.05,-0.89 0.09,-1.1 0.05,-0.26 0.21,-0.19 0.47,-0.19 0.18,0.01 0.41,-0.02 0.57,0.04 0.1,0.2 -0.14,1.16 -0.17,1.42 -0.18,-0.04 -0.25,-0.12 -0.45,-0.15 -0.19,-0.03 -0.33,0.02 -0.52,-0.03zm1.23 -1.68c-0.01,-0.26 0.14,-0.67 0.05,-0.8 -0.17,-0.2 -0.87,-0.1 -1.17,-0.1 -0.28,0 -1.01,-0.04 -1.23,0.03 -0.1,0.26 -0.19,1.27 -0.24,1.62l-0.43 3.26c-0.27,2.04 -0.45,1.78 0.92,1.74 0.38,-0.01 0.33,-0.13 0.41,-0.75 0.04,-0.34 0.09,-0.67 0.13,-1 0.04,-0.26 0.05,-0.83 0.17,-1.01 0.15,-0.08 0.74,-0.07 0.95,-0.03 0.03,0.73 -0.26,1.29 -0.03,2.04 0.36,1.19 2.16,1.14 2.9,0.15 0.48,-0.64 0.67,-2.85 0.76,-3.73 0.07,-0.69 0.19,-1.42 -0.19,-1.92 -0.62,-0.82 -2.04,-0.64 -2.7,0.2 -0.09,0.11 -0.17,0.23 -0.29,0.3zm43.66 3.26c-0.03,-0.19 0.12,-0.93 0.17,-1.21 0.04,-0.2 0.07,-0.41 0.12,-0.6 0.07,-0.28 0.08,-0.42 0.24,-0.49 0.11,0.3 0.03,0.92 0,1.28 -0.08,0.91 0.02,1.29 -0.52,1.09l-0.02 -0.07zm-4.8 0.92c0.18,0.12 0.37,-0.08 0.63,0.05 0.26,0.14 0.1,0.36 0.4,0.36 0.16,-0.35 0.13,-1.2 0.3,-1.49 0.22,0.19 0.16,1.39 0.34,1.72 0.13,0.05 0.33,0 0.45,-0.04 0.2,-0.07 0.22,-0.14 0.35,-0.22 0.38,-0.22 0.24,0.37 0.74,0.29 0.21,-0.2 0.21,-0.64 0.5,-0.66 0.38,-0.03 0.29,0.54 0.6,0.56 0.32,0.02 0.37,-0.77 1.04,0.08 0.12,0.16 0.1,0.25 0.36,0.24 0.2,-0.21 0.32,-0.76 0.48,-0.98 0.73,-0.11 0.57,0.73 0.88,0.95 0.16,-0.03 0.16,-0.06 0.25,-0.4 0.22,-0.84 0.39,-0.35 0.56,-0.72 0.07,-0.15 0.11,-0.43 -0.01,-0.56 -0.12,-0.1 -0.55,-0.05 -0.73,-0.04 -0.11,0 -0.29,0.01 -0.38,0.01 -0.25,-0.02 -0.18,-0.12 -0.18,-0.67 -0,-0.77 0.03,-2.92 -0.04,-3.58 -0.21,-0.09 -1.6,-0.09 -1.89,-0.06 -0.29,0.03 -0.29,0.33 -0.35,0.61 -0.27,1.18 -0.61,2.79 -0.96,3.85 -0.01,-0.73 0.29,-2.6 0.4,-3.5 0.03,-0.19 0.05,-0.37 0.08,-0.57 0.06,-0.46 -0.02,-0.39 -0.91,-0.39 -0.42,0 -0.33,0.34 -0.43,1.24 -0.03,0.3 -0.08,1.26 -0.21,1.44 -0.16,-0.21 -0.35,-1.74 -0.4,-2.14 -0.08,-0.59 -0.05,-0.55 -0.74,-0.54 -0.69,0 -0.58,-0.01 -0.66,0.63 -0.1,0.77 -0.19,1.52 -0.28,2.29l-0.25 1.98c-0.02,0.18 -0.03,0.16 0.06,0.25zm-9 -2.35c-0.24,-0.12 -0.3,-2.55 -0.53,-2.7 -0.21,-0.04 -0.99,-0.07 -1.12,0.03 -0.12,0.11 -0.11,0.39 -0.13,0.58 -0.03,0.23 -0.06,0.45 -0.08,0.66l-0.46 3.71c-0.05,0.4 -0.04,0.34 -0.66,0.33 -0.66,-0.01 -0.62,0.08 -0.43,-1.16 0.09,-0.59 0.49,-0.22 0.89,-0.38 0.19,-0.1 0.26,-1.07 0.19,-1.16 -0.18,-0.15 -0.6,0.04 -0.83,-0.14 -0.07,-0.12 0.05,-0.74 0.09,-0.91 0.03,-0.18 0.01,-0.19 0.13,-0.26 0.26,-0.17 0.83,0.16 0.93,-0.24 0.05,-0.22 0.11,-0.88 0.04,-1.05 -0.29,-0.12 -2.23,-0.07 -2.31,-0.01 -0.12,0.08 -0.42,2.92 -0.46,3.26 -0.05,0.45 -0.48,3.08 -0.33,3.29 0.11,0.14 0.58,0.08 0.88,0.08 0.42,-0 2.7,0.01 2.79,-0.04 0.13,-0.08 0.39,-2.46 0.43,-2.77 0.02,0.03 0.02,0.02 0.05,0.07l0.08 0.38c0.03,0.16 0.06,0.32 0.09,0.48 0.05,0.32 0.1,0.68 0.13,1 0.03,0.34 -0.01,0.76 0.27,0.85 0.26,0.08 0.91,-0.06 0.97,-0.13 0.1,-0.1 0.18,-1.08 0.2,-1.23 0.09,-0.64 0.69,-5.07 0.67,-5.2 -0.04,-0.21 -0.37,-0.15 -0.58,-0.16 -0.26,-0.01 -0.54,-0.07 -0.62,0.14 -0.09,0.22 -0.06,1.99 -0.29,2.65zm-10.82 1.57c-0.07,-0.41 0.33,-2.15 0.5,-2.48l0.02 0.06c0.05,0.2 -0.01,1.2 -0.02,1.42 -0.01,0.47 0.12,1.23 -0.51,1zm-1.88 2.3c0.22,0.09 0.55,0.06 0.84,0.07 0.86,0.01 0.54,-0.23 0.79,-1.03 0.08,-0.26 0.4,-0.29 0.55,-0.09 0.18,0.34 -0.3,1.11 0.25,1.11l3.85 -0c0.22,0 0.46,0.01 0.68,0 0.27,-0.01 0.35,-0.08 0.38,-0.33 0.06,-0.42 0.11,-0.85 0.16,-1.27l0.48 -3.77c0.16,-1.39 0.36,-1.3 -0.54,-1.29 -0.88,0.01 -0.72,-0.19 -0.91,1.3l-0.43 3.35c-0.08,0.67 -0.01,0.7 -0.55,0.68 -0.65,-0.01 -0.51,0.22 -0.14,-2.65l0.3 -2.29c0.02,-0.16 0.04,-0.24 -0.02,-0.37 -0.21,-0.06 -1.16,-0.05 -1.37,0.04 -0.15,0.37 -0.44,4.01 -0.65,4.48 -0.1,-0.23 -0.05,-3.18 -0.04,-3.74 0.02,-1.01 0.27,-0.79 -1.59,-0.8 -0.66,-0.01 -0.49,-0.14 -0.88,1.51 -0.16,0.67 -1.22,4.77 -1.16,5.09zm-7.5 -0.62c0.02,0.32 -0.12,0.41 -0.04,0.64 0.2,0.1 1.16,0.07 1.4,0.02 0.11,-0.21 0.14,-0.54 0.2,-0.82 0.07,-0.35 0.25,-0.48 0.57,-0.28 0.08,0.31 -0.06,0.87 0.09,1.09 0.19,0.08 0.7,0.04 0.95,0.03 0.54,-0.02 0.43,-0.12 0.52,-0.49 0.16,0.03 0.09,0.03 0.2,0.18 0.44,0.6 1.59,0.47 2.17,0.19 0.72,-0.34 0.91,-1.35 0.88,-2.34 -0.04,-1.15 -0.94,-1.48 -1.33,-1.88 -0.75,-0.76 0.19,-1.78 0.3,-1.1 0.04,0.27 -0.09,0.47 -0.03,0.71 0.18,0.08 1.06,0.1 1.22,0.01 0.21,-0.18 0.17,-1.14 0.06,-1.44 -0.33,-0.83 -1.86,-0.74 -2.43,-0.37 -0.72,0.46 -0.92,1.9 -0.72,2.54 0.31,0.98 1.93,1.44 1.48,2.59 -0.07,0.18 -0.26,0.43 -0.45,0.38 -0.29,-0.28 0.11,-1.06 -0.11,-1.29 -0.2,-0.18 -0.98,0.01 -1.29,-0.11 -0.14,-0.68 0.11,-3.91 -0.06,-4.21 -0.17,-0.1 -1.48,-0.05 -1.78,-0.05 -0.38,0.01 -0.34,0.16 -0.42,0.49l-0.89 3.64c-0.28,-0.16 -0.46,-0.14 -0.88,-0.14 -0.41,0 -0.61,-0.05 -0.68,0.34 -0.07,0.45 -0.05,1.52 -0.65,1.31 -0.1,-0.26 0.42,-4.28 0.52,-4.48 0.09,-0.17 0.45,-0.31 0.51,-0.01 0.03,0.16 -0.17,1.36 -0.16,1.54 0.02,0.26 0.43,0.17 0.68,0.17 0.83,0.01 0.78,0.03 0.84,-0.85 0.06,-0.87 0.12,-1.99 -1.18,-2.14 -1.11,-0.13 -1.82,0.46 -2.12,1.23 -0.25,0.65 -0.33,2.13 -0.44,2.97 -0.12,0.98 -0.32,2.24 0.58,2.57 1.55,0.57 2.32,-0.58 2.49,-0.66z"/>
   <path class="fil3" d="M18.66 17.38c0.05,-0.14 0.04,-0.19 -0.06,-0.29 -0.08,-0.08 -0.15,-0.16 -0.32,-0.13 -0.07,0.31 0.06,0.52 0.38,0.42z"/>
   <path class="fil3" d="M37.82 13.16c0.32,0.04 0.29,-0.34 0.16,-0.39 -0.21,-0.08 -0.3,0.21 -0.16,0.39z"/>
   <path class="fil4" d="M55.13 7.87c-0.02,-0.13 -0.01,-0.12 0.08,-0.24l-0.15 -0.01c-0.14,-0.24 0.04,-0.57 -0.17,-0.73 -0.22,0.14 -0.05,0.57 0.06,0.76l0.18 0.22z"/>
   <path class="fil4" d="M52.58 3.74c0.05,-0.09 0.03,-0.19 -0,-0.3 -0.04,-0.12 -0.06,-0.16 -0.17,-0.17 -0.06,0.14 -0.05,0.19 0.01,0.34 0.1,0.26 0.17,0.13 0.17,0.13z"/>
   <path class="fil4" d="M55.91 4.91c0.1,-0.1 0.12,-0.2 0.12,-0.39 -0.27,0 -0.36,0.28 -0.12,0.39z"/>
   <path class="fil5" d="M52.03 5.55l-0 0.61c0.01,0.08 -0.01,0 0.01,0.07 0.02,0.08 0,0.03 0.04,0.08l0.01 -0.49c0.27,0.02 0.59,0.2 0.78,-0.07 -0.14,-0.39 -0.65,-0.14 -0.83,-0.19z"/>
   <path class="fil5" d="M57.63 5.21c0.08,0.12 0.6,0.55 0.7,0.59 0.1,-0.05 0.08,-0.04 0.14,-0.13 -0.05,-0.1 -0.58,-0.58 -0.74,-0.6l-0.09 0.14z"/>
   <path class="fil5" d="M56.94 12.18c-0.13,0.19 0.04,0.59 0.24,0.51 0.11,-0.2 -0.03,-0.57 -0.24,-0.51z"/>
   <path class="fil5" d="M55.18 6.4c0.14,-0.03 0.19,-0.07 0.28,-0.12 0.14,-0.09 0.17,-0.07 0.22,-0.2 -0.27,-0.13 -0.5,0.01 -0.5,0.32z"/>
   <path class="fil5" d="M54.39 14.1c0.04,0.02 -0.07,0.05 0.08,0.02 0.13,-0.03 0.15,-0.17 0.1,-0.31 -0.2,-0.01 -0.26,0.14 -0.18,0.29z"/>
   <path class="fil6" d="M16.44 13.05c0.38,0.08 0.33,-0.1 0.29,-0.86 -0.11,0.06 -0.07,0.01 -0.13,0.16 -0.06,0.16 -0.2,0.58 -0.17,0.7z"/>
   <path class="fil6" d="M59.46 7.33c0.21,0 0.42,-0.26 0.32,-0.52 -0.21,-0.01 -0.43,0.29 -0.32,0.52z"/>
   <path class="fil7" d="M53.3 7.87c-0.19,-0.01 -0.53,-0.23 -0.7,-0.35l-0.06 -0.04 0.02 0.27c-0.17,0.07 -0.38,0.05 -0.59,0.03 0.13,0.54 1.1,0.24 1.25,0.15 0.06,-0.04 0.03,-0.01 0.07,-0.06z"/>
   <path class="fil7" d="M59.61 9.44c0.22,-0 0.28,-0.08 0.36,-0.25 0.09,-0.17 0.13,-0.36 -0.01,-0.5 -0.11,0.05 -0.05,-0.02 -0.12,0.14 -0.08,0.16 -0.22,0.47 -0.22,0.61z"/>
   <path class="fil7" d="M55.38 9.11c-0.07,0.45 0.3,0.39 0.34,0.06 0.03,-0.23 -0.02,-0.22 -0.03,-0.25 -0,-0.01 -0.01,-0.02 -0.02,-0.03l-0.19 0.01 -0.11 0.2z"/>
   <path class="fil8" d="M21.85 17.14c0.14,0.05 0.13,0.1 0.17,0.29l0.6 -2.19 -0.15 0.03 -0.05 -0.13c-0.18,0.25 -0.36,1.65 -0.57,2.01z"/>
   <path class="fil9" d="M35.95 8.2l-0.66 4.36c-0.08,0.26 -0.27,0.3 -0.31,0.42 0.2,0.03 0.31,0.05 0.45,-0.05 0.08,-0.14 0.58,-4.28 0.63,-4.8l-0.06 0.14 -0.05 -0.07z"/>
   <path class="fil9" d="M58.44 8.42c0.18,-0.03 0.24,-0.14 0.34,-0.25 0.11,-0.13 0.2,-0.22 0.22,-0.42 -0.23,0.04 -0.54,0.39 -0.55,0.67z"/>
   <path class="fil9" d="M58.29 10.93c-0,0.01 -0.01,0.02 -0.01,0.04 -0,0.02 -0.01,0.03 -0.01,0.04 -0,0.01 -0.03,0.05 -0.03,0.06 0.14,0.02 0.1,0.04 0.24,0.06l-0.03 0.37c0.01,-0.01 0.02,-0.04 0.02,-0.03l0.05 -0.26c0.01,-0.11 0.03,-0.2 0.05,-0.31l-0.27 0.02z"/>
   <path class="fil10" d="M55.2 7.63c-0.09,0.12 -0.1,0.11 -0.08,0.24l0.14 0.03c0.18,0.02 0.14,-0.01 0.23,-0.19 0.05,-0.09 0.11,-0.17 0.18,-0.23 0.14,-0.14 0.34,-0.2 0.57,-0.11 0.49,0.13 0.18,0.51 1.19,-0.13 0.59,-0.38 0.98,-0.38 0.89,-0.78l-0.11 -0.02c-0.28,0.34 -0.6,0.08 -0.96,-0.05 -0.18,-0.07 -0.9,-0.33 -1.07,-0.19 0.05,0.21 0.39,0.07 0.96,0.34 0.17,0.08 0.21,0.09 0.23,0.24 -0.44,0.19 -0.91,0.02 -1.31,0.19 -0.4,0.17 -0.53,0.45 -0.87,0.67z"/>
   <path class="fil10" d="M21.85 17.14c0.21,-0.36 0.39,-1.76 0.57,-2.01 0.08,-0.15 0.1,-0.21 0.05,-0.37 -0.1,-0.04 -0.21,-0.05 -0.35,-0.03 -0.1,0.22 -0.1,0.66 -0.14,0.95 -0.07,0.57 -0.37,0.3 -0.64,0.38 -0.02,0.23 0.23,0.38 0.34,0.86 0.04,0.16 0.02,0.2 0.17,0.23z"/>
   <path class="fil11" d="M59.13 10.91c0.09,-0 0.02,-0.08 0.1,0.05 0.05,0.08 0.08,0.27 -0.03,0.41 -0.16,0 -0.11,0.03 -0.17,-0.1 -0.07,0.07 -0.06,0.13 -0.03,0.26 0.02,0.08 0.06,0.19 0.11,0.26 0.1,0.15 0.25,0.17 0.27,0.44 0.01,0.22 -0,0.49 -0,0.72l0.03 0.64c0,0.01 0.01,0.02 0.01,0.03 0,0.01 0.01,0.02 0.01,0.03 0.03,-0.63 -0.06,-2.51 0.03,-2.95 0.23,-0.08 0.52,-0.02 0.87,-0.4 0.19,-0.21 0.39,-0.56 0.53,-0.8 -0.07,-0.09 -0.03,-0.05 -0.05,-0.2 -0.04,-0.4 -0.2,-0.32 -0.16,-0.55 0.04,-0.19 0.09,-0.13 0.1,-0.4 0,-0.19 0.05,-0.27 0.12,-0.39 -0.18,0 -0.27,-0.01 -0.4,-0.09 0.02,0.19 0.01,1.1 -0.03,1.24 -0.03,0.1 -0.19,0.3 -0.26,0.38 -0.22,0.29 -0.07,0.22 -0.18,0.5 -0.2,0.25 -0.52,0.01 -0.75,0.16 -0.25,0.16 -0.09,0.46 -0.12,0.77z"/>
   <path class="fil11" d="M56.25 7.37c0.12,0.25 -0,0.38 0.21,0.54 0.17,0.13 0.42,0.12 0.67,0.09 0.14,-0.05 0.23,-0.11 0.32,-0.19 0.08,-0.07 0.16,-0.23 0.31,-0.18 0.13,0.19 -0.15,0.5 -0.23,0.61 0.46,-0.24 1.05,-0.76 1.02,-1.33 -0.1,-0.08 -0.09,-0.02 -0.16,-0.11 0.08,-0.06 0.05,-0.02 0.09,-0.04l0.05 -0.03c0.05,-0.03 0.03,-0.01 0.07,-0.06 -0.19,0.01 -0.14,0.04 -0.19,-0.17l-0.03 -0.1c-0,-0.01 -0.01,-0.02 -0.01,-0.03 -0.2,0.01 -0.1,0.02 -0.14,0.07l0.11 0.02c0.1,0.4 -0.29,0.4 -0.89,0.78 -1.01,0.64 -0.7,0.26 -1.19,0.13z"/>
   <path class="fil12" d="M57.28 16.96c0.06,0.19 0.06,0.36 0.1,0.56 0.03,0.18 0.09,0.35 0.13,0.52 0.12,0.44 0.06,0.75 0.03,1.21 0.13,-0.08 0.26,-0.23 0.46,-0.39 0.48,-0.36 0.61,-0.07 0.88,-1.2 0.03,-0.13 0.07,-0.24 0.01,-0.35 -0.04,0.03 -0.61,1.26 -1.06,0.77 -0.4,-0.43 0.28,-2.63 0.33,-3.44 0.04,-0.66 0.07,-1.28 0.09,-1.94l-0.15 0.16 -0.03 -0.18c-0.06,0.07 -0.03,0.02 -0.08,0.12 -0.21,0.38 -0.25,0.54 -0.18,0.88 0.08,0.39 0.12,0.78 0.1,1.22 -0.01,0.43 -0.3,1.85 -0.64,2.04z"/>
   <path class="fil12" d="M58.92 6.32c0.19,-0.09 0.15,0.2 0.11,0.37 0.1,-0.1 0.5,-1.03 0.5,-1.18 -0.51,0.07 -0.57,0.49 -0.61,0.81z"/>
   <path class="fil13" d="M55.49 8.92l0.19 -0.01c0.01,0.01 0.01,0.02 0.02,0.03 0.01,0.03 0.06,0.02 0.03,0.25 -0.04,0.33 -0.42,0.39 -0.34,-0.06l-0.05 0.05c-0.21,0.22 -0.28,0.19 -0.68,0.2 -0.25,0 -0.69,0.04 -0.91,0.02 -0.26,-0.03 -0.94,-0.7 -1.09,-0.8 0.13,1.12 0.4,1.09 0.97,1.66 0.16,0.17 0.33,0.42 0.42,0.47 -0.27,-0.58 1.3,-0.64 1.24,0.01 0.51,-0.14 0.7,-0.47 1.14,-0.66 0.31,-0.13 0.8,-0.61 0.78,-1.05l-0.28 -0c-0.11,0.16 -0.08,0.28 -0.27,0.36 -0.03,-0.84 0.3,-0.51 0.46,-0.87 -0.17,-0.01 -0.31,0.02 -0.49,-0 -0.28,-0.03 -0.73,-0.13 -0.96,0.01 -0.16,0.09 -0.1,0.2 -0.16,0.4z"/>
   <path class="fil13" d="M53.72 11.37c0.27,0.35 0.59,0.27 0.78,0.35 0.22,0.09 0.09,0.22 0.09,0.22 -0.3,0.18 0.01,-0.19 -0.8,0.22 -0.24,0.12 -0.44,0.23 -0.69,0.33 -0.26,0.11 -1.45,0.47 -1.6,0.14 -0.06,-0.13 0.14,-1.59 0.17,-1.85 0.14,-1.19 -0.11,-1.49 -0.06,-1.83 0.33,-0.02 1.24,1.36 1.43,1.58 0.12,0.14 0.24,0.26 0.36,0.4 0.11,0.13 0.22,0.3 0.32,0.43zm-2.25 -1.25c-0,0.5 -0.06,1 -0.13,1.49 -0.04,0.35 -0.21,1.13 -0.16,1.42 0.24,0.02 0.44,-0.1 0.72,-0.12 0.28,-0.03 0.54,0.01 0.82,-0.04 0.4,-0.08 0.88,-0.33 1.25,-0.49 0.65,-0.26 1.11,-0.29 0.97,-0.69 -0.16,-0.45 -0.83,-0.15 -1.14,-0.6 -0.29,-0.41 -0.48,-0.64 -0.75,-0.95 -0.26,-0.3 -0.49,-0.73 -0.75,-0.98 -0.17,-0.16 -0.66,-0.86 -1.04,-0.44 -0.17,0.19 0.02,0.43 0.09,0.63 0.08,0.23 0.12,0.48 0.12,0.77z"/>
   <path class="fil13" d="M55.26 7.9c0.01,0.01 0.03,0 0.03,0.02l0.16 0.05c0.29,0.07 0.33,0.1 0.68,0.11 0.17,0 0.33,-0.03 0.49,-0.02 0.25,0.02 0.35,0.06 0.5,-0.06 -0.25,0.03 -0.5,0.04 -0.67,-0.09 -0.21,-0.16 -0.09,-0.29 -0.21,-0.54 -0.23,-0.09 -0.43,-0.03 -0.57,0.11 -0.07,0.07 -0.13,0.15 -0.18,0.23 -0.09,0.17 -0.06,0.21 -0.23,0.19z"/>
   <path class="fil13" d="M60.86 9.5c0.38,-0.15 0.22,-1.02 0.12,-1.39 -0.05,-0.19 -0,-0.12 -0.11,-0.15 -0.07,0.12 -0.11,0.2 -0.12,0.39 -0.01,0.27 -0.06,0.21 -0.1,0.4 -0.05,0.23 0.11,0.15 0.16,0.55 0.02,0.16 -0.03,0.12 0.05,0.2z"/>
   <path class="fil13" d="M53.9 13.26c0.3,-0.29 0.37,-0.21 0.33,-0.74 -0.25,0.1 -0.87,0.32 -0.98,0.51 0.12,0.18 0.3,0.12 0.46,0.14 0.28,0.03 0.12,-0.03 0.19,0.09z"/>
   <path class="fil14" d="M60.01 4.43c-0.01,0.1 -0.03,0.15 0.1,0.15 0.18,-0.28 0.36,-0.81 0.93,-0.79 0.87,0.03 0.67,0.39 0.47,0.94 -0.16,0.45 -0.21,1 -0.38,1.4 -0.16,0.39 -0.15,0.71 -0.15,1.2 0,0.21 -0.01,0.21 0.14,0.33 0.21,0.19 0.17,0.33 0.2,0.68 0.07,0.8 0.39,1.17 -0.42,1.98 -0.81,0.8 -1.14,0.66 -1.25,2.29 -0.12,1.8 0.4,5.12 -0.5,6.46 -0.18,0.27 -0.64,0.62 -1,0.78 -0.48,0.21 -0.89,-0.07 -0.96,-0.71 -0.07,-0.57 -0.19,-0.98 -0.28,-1.5 -0.06,-0.37 -0.08,-1.31 -0.24,-1.52 -0.05,0.04 -0.11,-0.07 -0.01,0.12 -0.08,0.23 0.06,1.38 0.12,1.65 0.06,0.27 0.12,0.5 0.17,0.75 0.05,0.26 0.04,0.56 0.11,0.83 0.12,0.5 0.49,0.8 1.11,0.69 0.28,-0.05 0.96,-0.58 1.11,-0.74 1.05,-1.15 0.51,-4.86 0.62,-6.65 0.11,-1.7 0.57,-1.51 1.34,-2.34 0.33,-0.35 0.5,-0.7 0.41,-1.32 -0.11,-0.76 -0.03,-1.11 -0.29,-1.56 -0.39,-0.67 0.33,-2.22 0.47,-2.95 0.15,-0.84 0.06,-0.96 -0.78,-0.98 -0.3,-0.01 -0.56,0.07 -0.7,0.22 -0.09,0.09 -0.32,0.42 -0.34,0.59z"/>
   <path class="fil14" d="M58.23 11.07c0.01,-0.01 0.03,-0.06 0.03,-0.06 0,-0.01 0.01,-0.02 0.01,-0.04 0,-0.02 0.01,-0.03 0.01,-0.04 -0.26,-1.05 0.11,-1.07 0.28,-1.56 -0.08,-0.16 -0.13,-0.11 -0.22,-0.25 -0.07,-0.12 -0.06,-0.24 -0.1,-0.35 -0.58,0.12 -1.3,1.76 -1.37,2.16 -0.09,0.57 0.56,0.51 0.75,0.52 0.17,0.01 0.24,0.04 0.39,0.07 0.33,0.07 0.42,-0.29 -0.08,-0.27 -1.02,0.04 -0.86,-0.16 -0.37,-1.19 0.08,-0.16 0.15,-0.33 0.23,-0.49 0.07,-0.14 0.27,-0.39 0.4,-0.23 0.09,0.1 -0.11,0.4 -0.14,0.83 -0.02,0.22 -0.06,0.85 0.16,0.91z"/>
   <path class="fil15" d="M2.74 12.92c0.01,0.01 0.03,0 0.04,0.02 0.01,0.02 0.03,0.01 0.04,0.02 0.27,0.09 -0.13,-0.02 0.08,0.03l0.48 0.02c-0.22,0.04 -0.81,-0.01 -0.93,0.02 -0.02,0 -0.02,0.01 -0.04,0.01l-0.11 0.05 1.31 -0c0.17,-0.23 0.23,-1.31 0.28,-1.7 0.07,-0.59 0.15,-1.15 0.22,-1.74 0.14,-1.16 0.3,-2.31 0.45,-3.47 0.37,-2.81 0.22,-2.54 1.37,-2.51 0.64,0.01 1.34,-0.02 1.97,0.02 0.55,0.03 0.58,0.46 0.55,0.95 -0.03,0.39 -0.06,0.26 0,0.43 0,0.01 0.01,0.02 0.01,0.03 0.25,-0.33 0.2,-0.94 0.37,-1.19 0.2,-0.3 0.94,-0.21 1.37,-0.22 2.93,-0.09 1.95,0.22 2.17,0.93 0.18,-0.01 0.36,-0.35 0.84,-0.64 0.3,-0.19 0.68,-0.35 1.09,-0.43 0.44,-0.08 0.96,-0.09 1.38,0.03 0.61,0.18 0.82,0.44 1.02,0.48 0.36,-0.28 0.06,-0.35 0.98,-0.37 0.46,-0.01 0.9,-0 1.36,0 1.44,0.02 0.43,1.05 0.79,1.78 0.36,-0.47 0.1,-1.67 0.73,-1.76l4.22 0c1.24,0 3.69,-0.19 4.66,0.39 0.64,0.39 0.61,0.74 0.82,0.89 0.22,-0.13 0.47,-0.71 1.19,-1.09 1.63,-0.88 3.97,-0.46 4.04,2.02 0.03,0.9 -0.31,3.1 -0.44,4.11 -0.08,0.63 -0.25,1.41 -0.29,2.01 -0.03,0.49 0,0.5 -0.2,0.93 -0.11,0.23 -0.29,0.67 -0.06,0.88 0.08,-0.12 0.05,-0.27 0.12,-0.44l0.26 -0.57c0.02,-0.07 0.03,-0.18 0.05,-0.26 0.03,-0.16 0.05,-0.32 0.08,-0.49 0.22,-1.32 0.74,-4.94 0.73,-6.13 -0.02,-1.56 -0.61,-2.37 -2.02,-2.58 -2.41,-0.35 -3.2,1.12 -3.37,1.13 -0.1,0.01 -0.32,-0.35 -0.65,-0.58 -0.7,-0.48 -2.54,-0.39 -3.39,-0.39 -1.67,0 -3.35,-0.01 -5.03,-0 -1.23,0 -0.85,0.24 -1.59,0.05 -0.23,-0.06 -2.16,-0.07 -2.48,-0.04 -0.19,0.02 -0.37,0.09 -0.53,0.11 -0.3,0.03 -0.64,-0.26 -0.98,-0.28 -0.34,-0.02 -0.89,-0.04 -1.21,-0.03 -1.05,0.03 -1.6,0.66 -1.84,0.67 -0.38,-0.58 0.11,-0.45 -1.9,-0.49 -0.4,-0.01 -0.81,-0.02 -1.21,-0 -0.32,0.02 -0.86,0.15 -1.07,0.11 -0.65,-0.15 -1.63,-0.11 -2.33,-0.1 -1.49,0.02 -1.33,-0.12 -1.47,0.96l-0.99 7.47c-0.06,0.47 -0.08,0.6 -0.22,0.99l-0.69 -0.01z"/>
   <path class="fil15" d="M35.95 8.2l0.05 0.07 0.06 -0.14c0.09,-0.8 0.23,-1.63 0.34,-2.43 0.06,-0.41 0.11,-0.82 0.17,-1.23 0.06,-0.46 0.01,-0.87 0.52,-0.89 1.04,-0.04 3,-0.16 3.85,0.36 0.46,0.28 0.6,0.59 0.76,0.68 0.23,-0.09 0.29,-0.39 0.98,-0.8 0.95,-0.57 2.56,-0.59 3.39,0.2 0.13,0.13 0.28,0.41 0.47,0.44 0.09,-0.19 0.05,-0.76 0.47,-0.84 0.64,-0.12 3.65,0.12 3.8,0.05 0.1,-0.04 0.48,-0.61 0.59,-0.73 0.24,-0.27 0.46,-0.4 0.7,-0.62 0.31,-0.29 0.91,-1.07 1.5,-1.15 0.62,-0.08 1.88,-0.04 2.47,0.1 0.91,0.21 1.43,0.8 2.07,1.22 0.63,0.41 0.49,0.17 0.94,1.06 0.15,0.3 0.3,0.58 0.44,0.88 0.09,0.17 0.4,0.74 0.43,0.88 0.07,-0.11 0.1,-0.56 0.14,-0.72 -0.13,-0 -0.11,-0.05 -0.1,-0.15 -0.13,0.05 -0.12,-0.03 -0.27,-0.28 -0.56,-0.92 -0.46,-1.26 -1.31,-1.82 -0.83,-0.55 -1.44,-1.2 -2.45,-1.33 -0.59,-0.08 -1.88,-0.12 -2.45,-0.02 -0.36,0.06 -0.62,0.22 -0.83,0.42 -0.21,0.21 -0.41,0.4 -0.63,0.62 -0.62,0.63 -0.47,0.23 -1.23,1.3 -0.2,0.28 -0.7,0.16 -1.09,0.15 -0.44,-0.02 -2.76,-0.1 -3.05,0.06 -0.18,0.1 -0.14,0.24 -0.23,0.4 -0.33,-0.05 -0.76,-0.83 -2.46,-0.7 -0.71,0.06 -1.21,0.23 -1.77,0.6 -0.15,0.1 -0.33,0.3 -0.5,0.33 -0.18,-0.06 -0.18,-0.18 -0.38,-0.3 -0.56,-0.33 -1.03,-0.41 -1.7,-0.42 -0.42,-0.01 -2.57,-0.03 -2.82,0.01 -0.4,0.07 -0.36,0.57 -0.41,0.99l-0.48 3.76z"/>
   <path class="fil16" d="M56.66 16.25c-0.1,-0.19 -0.04,-0.08 0.01,-0.12 0.01,-0.22 0.09,-0.34 0.01,-0.59 -0.3,0.02 -0.9,1.16 -1.03,1.58 -0.15,0.48 -0.01,0.85 -0.12,1.21 -0.16,0.56 -0.62,0.4 -0.49,0.81 0.45,0.06 0.67,-0.38 0.94,0.27 0.17,0.4 0.12,0.94 -0.35,0.96 -0.25,0.01 -0.39,-0.09 -0.68,-0.05 -0.33,0.04 -0.29,0.12 -0.62,-0.02 -0.32,-0.14 -0.24,0.06 -0.47,0.15 -0.22,0.09 -0.38,-0.02 -0.6,-0.06 -0.4,-0.07 -0.93,0.03 -1.33,0.07 -0.44,0.04 -0.92,0 -1.37,-0.01 -1.85,-0.08 -3.64,-0.01 -5.59,-0.1 -0.39,-0.02 -2.06,0.07 -2.76,0.07 -0.95,-0 -1.89,-0.02 -2.83,-0.05 -0.47,-0.02 -0.84,0.19 -1.32,0.11 -0.52,-0.08 -0.68,-0.41 -0.87,-0.52 -0.28,0.26 -0.01,0.43 -0.72,0.44 -0.38,0.01 -0.76,0.01 -1.14,0.01 -0.7,-0 -0.55,0.06 -0.83,0.06 -1.15,0.01 -0.66,-0.13 -0.91,-0.5 -0.13,0.1 -0.12,0.37 -0.25,0.45 -0.15,0.1 -0.43,0.06 -0.61,0.06l-8.2 0c-1.04,0 -0.67,-0.02 -0.95,-0.41 -0.19,0.48 -0.41,0.41 -1.17,0.41 -1.33,0 -1.11,-0.07 -0.7,-1.79 0.08,-0.32 0.26,-0.93 0.29,-1.24 -0.04,-0.19 -0.03,-0.23 -0.17,-0.29 -0.15,-0.03 -0.13,-0.07 -0.17,-0.23 -0.11,-0.48 -0.36,-0.62 -0.34,-0.86 0.27,-0.08 0.57,0.19 0.64,-0.38 0.04,-0.29 0.04,-0.72 0.14,-0.95 0.13,-0.02 0.25,-0 0.35,0.03 0.05,0.16 0.03,0.22 -0.05,0.37l0.05 0.13 0.15 -0.03c0.04,-0.17 0.14,-0.63 0.08,-0.78 -0.18,-0.09 -0.54,-0.07 -0.75,-0.02 -0.16,0.25 -0.09,0.86 -0.22,1.14 -0.19,0.4 -0.76,0.13 -1.1,0.26 0.06,0.28 0.96,0.47 0.94,1.95 -0.02,2.1 -0.87,3.08 -2.99,2.67 -0.59,-0.11 -2.08,0.13 -2.36,-0.09 -0.08,-0.06 -0.09,-0.14 -0.14,-0.21 -0.14,0.19 -0.17,0.25 -0.49,0.29 -0.95,0.09 -1.6,-0.14 -2.12,-0 -0.44,0.11 -0.84,0.19 -1.31,0.09 -0.24,-0.05 -0.35,-0.09 -0.56,-0.2 -0.31,-0.17 -0.28,-0.25 -0.44,-0.27 -0.09,0.17 -0.11,0.27 -0.29,0.35 -0.28,0.12 -2.48,0.04 -2.96,0.05 -0.76,0.01 -0.57,-0.06 -0.75,-0.44 -0.17,0.03 -0.35,0.21 -0.56,0.31 -0.66,0.3 -1.5,0.37 -2.09,-0.02 -1.19,-0.78 -0.59,-2.2 -0.74,-2.67l-0.25 0.03c-0.12,0.23 -0.18,1.14 -0.23,1.5 -0.09,0.72 -0.04,1.24 -0.45,1.29 -0.29,0.04 -1.47,0.07 -1.64,-0.08 -0.2,-0.18 -0,-1.17 0.03,-1.48 0.12,-1.03 0.24,-2.07 0.37,-3.11 0.07,-0.52 0.12,-1.02 0.2,-1.54 0.09,-0.6 0.08,-1.08 0.48,-1.18l0.11 -0.05c0.02,-0 0.02,-0.01 0.04,-0.01 0.12,-0.02 0.71,0.02 0.93,-0.02l-0.48 -0.02c-0.2,-0.05 0.2,0.07 -0.08,-0.03 -0.01,-0 -0.03,-0 -0.04,-0.02 -0.01,-0.02 -0.02,-0.01 -0.04,-0.02 -0.79,-0.04 -0.89,-0.13 -1.02,0.64 -0.22,1.27 -0.43,3.2 -0.57,4.49 -0.06,0.51 -0.11,1.02 -0.17,1.53 -0.07,0.61 -0.26,1.11 0.47,1.12 0.28,0 1.51,0.04 1.69,-0.02 0.44,-0.14 0.15,-0.92 0.39,-1.29 0.25,0.15 0.17,1.03 1.26,1.36 1.01,0.31 1.94,-0.2 2.21,-0.18 0.18,0.01 0.33,0.1 0.57,0.11 0.21,0.01 0.43,0 0.64,0 0.55,0 2.12,0.04 2.56,-0.01 0.84,-0.09 0.3,-0.15 1.09,0.05 0.79,0.2 1.61,-0.05 2.43,-0.05 0.86,-0.01 1.71,0.02 2.57,0.01 0.43,-0 0.86,-0.01 1.29,0 0.77,0.03 1.34,0.32 2.26,-0.02 0.39,-0.14 0.53,-0.32 0.79,-0.47 0.11,0.19 0.02,0.28 0.23,0.41 0.23,0.13 1.44,0.08 1.75,0.08l11.45 -0c0.22,-0.03 0.01,0 0.12,-0.04 0.25,-0.09 1.5,-0.04 1.81,-0.04 0.51,-0 0.59,-0.18 1.06,-0.01 0.69,0.24 1.45,0.02 2.19,0.02 1.63,-0.01 3.25,-0 4.87,0.01 0.78,0 1.66,-0.03 2.42,0.02 0.83,0.06 1.5,-0.05 2.31,-0.03 0.76,0.02 1.58,0.15 2.34,0.09 0.36,-0.03 0.74,-0.08 1.1,-0.09 0.38,-0.01 0.69,0.14 1.09,0.1 0.4,-0.04 0.68,-0.13 1.14,-0.13 0.95,0 1.37,0.19 1.17,-1.15 -0.1,-0.64 -0.21,-0.36 -0.54,-0.67 -0,-0.18 0.15,-0.34 0.14,-0.74 -0.03,-0.77 0.39,-1.89 0.82,-1.81z"/>
   <path class="fil16" d="M40.24 12.7l-1.46 0.06c-0.07,-0.21 0.13,-1.8 0.17,-2.11 0.34,-0.04 1.09,-0.15 1.39,-0.12 0.01,0.33 -0.02,1.98 -0.1,2.17zm-1.47 -2.26c-0.08,0.17 -0.34,2.41 -0.32,2.63 0.24,0.01 0.63,-0.16 0.98,-0.17 0.3,-0.01 0.95,0.14 1.04,0.12 0.04,-0.33 -0.13,-1 -0.11,-1.45 0.01,-0.27 0.18,-1.27 0.13,-1.43 -0.21,-0.03 -0.57,0.14 -0.82,0.19 -0.25,0.05 -0.72,0.05 -0.9,0.12z"/>
   <path class="fil16" d="M27.84 14.37c-0.09,0.11 -0.42,3.1 -0.5,3.7 -0.03,0.2 0.04,0.49 0.21,0.27 0.08,-0.1 0.42,-3.11 0.51,-3.7 0.01,-0.07 0.04,-0.19 -0,-0.27 -0.04,-0.07 0.02,-0.06 -0.1,-0.05 -0.18,0.01 -0.07,0.01 -0.11,0.06z"/>
   <path class="fil16" d="M14.59 17.05c0.27,-0.38 -0.1,-0.37 -0.44,-0.37 -0.16,-0 -0.88,-0.03 -0.97,0.02 -0.13,0.06 -0.12,0.27 -0.01,0.34 0.1,0.06 1.31,0.04 1.42,0.02z"/>
   <path class="fil3" d="M42.64 18.29c0.68,0.36 0.55,-0.62 0.52,-0.67 -0.22,-0.32 -0.69,0.04 -0.52,0.67z"/>
   <path class="fil3" d="M31.77 18.41c0.16,-0.11 0.17,-0.53 0.13,-0.69 -0.65,-0.4 -0.6,0.55 -0.53,0.64 0.08,0.1 0.3,0.09 0.39,0.05z"/>
   <path class="fil3" d="M43.18 15.03c-0.43,0.16 -0.26,0.76 0.15,0.58 0.31,-0.14 0.26,-0.73 -0.15,-0.58z"/>
   <path class="fil3" d="M31.88 15.15c-0.42,0.22 -0.14,0.72 0.22,0.53 0.35,-0.19 0.18,-0.74 -0.22,-0.53z"/>
   <path class="fil17" d="M14.49 5.61c0.35,-0.15 0.53,0.12 0.48,0.48l-0.62 4.67c-0.04,0.3 -0.08,0.64 -0.12,0.93 -0.04,0.27 -0.02,0.7 -0.26,0.81 -0.75,0.36 -0.41,-1.07 -0.37,-1.44l0.61 -4.68c0.04,-0.3 0.03,-0.67 0.27,-0.78zm0.8 8.08c0.17,-0.15 0.14,-0.36 0.45,-0.6 0.3,-0.23 0.3,-0.27 0.45,-0.65 0.3,-0.77 0.5,-2.76 0.62,-3.69 0.05,-0.41 0.15,-1.59 0.26,-1.89l0.06 3.06c0,0.38 -0.05,2.94 0.04,3.07 0.15,0.13 0.6,0.03 0.82,0.09 0.34,0.1 0.22,0.32 0.28,0.66 0.19,0.01 0.35,-0.39 0.93,-0.64 0.64,-0.28 1.38,-0.11 1.5,-0.18 0.22,-0.12 1.34,-5.97 1.55,-6.1 0.09,0.17 -0.42,3.62 -0.48,4.12 -0.09,0.7 -0.19,1.38 -0.27,2.08 -0.03,0.24 -0.03,0.29 0.09,0.47 0.06,0.1 0.17,0.29 0.23,0.37 0.12,0.15 0.23,0.11 0.43,0.12 0.2,0 0.4,0.04 0.59,-0 0.25,-0.33 0,-0.85 0.55,-0.92 0.31,-0.04 0.32,-0.05 0.36,-0.37 0.16,-1.25 1.13,-8.45 1.05,-8.56 -0.01,-0.01 -0.02,-0.02 -0.02,-0.02 -0,0.01 -0.02,-0.01 -0.02,-0.01l-0.23 -0.03c-0.13,-0 -0.25,0 -0.38,0l-3.02 -0c-0.71,-0 -0.53,-0.04 -0.85,1.41 -0.18,0.84 -0.36,1.62 -0.52,2.47 -0.06,0.33 -0.41,2.37 -0.52,2.48 -0.15,-0.25 0.37,-6.06 0.15,-6.28 -0.12,-0.12 -0.96,-0.06 -1.13,-0.06 -1.45,0.01 -1.07,-0.16 -1.11,1.29 -0.24,-0.1 -0.28,-1.02 -1.39,-1.35 -0.8,-0.24 -1.66,-0.14 -2.3,0.23 -1.33,0.76 -1.39,2.09 -1.65,3.88 -0.11,0.79 -0.21,1.63 -0.3,2.45 -0.08,0.82 -0.25,1.71 0.05,2.45 0.43,1.07 0.38,0.06 1.71,-0.09 0.44,-0.05 0.87,0.04 1.2,0.2 0.61,0.3 0.5,0.57 0.84,0.54z"/>
   <path class="fil17" d="M39.02 5.71c0.64,-0.08 0.61,0.58 0.54,1.1 -0.07,0.5 -0.08,1.15 -0.4,1.37 -0.09,0.06 -0.56,0.26 -0.51,-0.21 0.03,-0.24 0.08,-0.51 0.11,-0.76 0.05,-0.36 0.13,-1.29 0.27,-1.5zm4.87 -0.17c0.73,-0.33 0.4,1.02 0.35,1.41l-0.5 3.75c-0.04,0.31 -0.08,0.62 -0.12,0.92 -0.04,0.28 -0.03,0.72 -0.24,0.82 -0.25,0.12 -0.58,0.05 -0.51,-0.51l0.74 -5.6c0.05,-0.35 0.01,-0.67 0.28,-0.79zm-2.34 0.28l-0.03 -0.05c-0.03,-0.07 -0.01,0.01 -0.03,-0.09 -0.07,-0.3 -0.01,-0.74 -0.28,-1.08 -0.2,-0.24 -0.63,-0.44 -1.08,-0.51 -0.4,-0.06 -2.87,-0.15 -3.08,-0.02 -0.13,0.1 -0.18,0.85 -0.2,1.05l-0.43 3.35c-0.07,0.56 -0.58,4.23 -0.54,4.47 0.22,-0.01 0.32,-0.29 0.43,-0.46 0.13,-0.19 0.23,-0.37 0.36,-0.55 0.36,-0.51 0.89,-0.18 1.49,-0.32 0.19,-0.37 0.1,-1.31 0.28,-1.64 0.21,-0.18 1.51,0.23 2.37,-0.77 0.11,-0.13 0.08,-0.17 0.24,-0.23 -0.07,1.28 -0.47,2.52 -0.2,3.78 0.05,0.21 0.08,0.54 0.36,0.36 0.31,-0.19 0.24,-0.14 0.7,-0.14l2.46 0.01c0.92,0 0.91,0.13 1.16,-0.5 0.39,-0.95 0.75,-4.51 0.89,-5.72 0.14,-1.22 0.02,-1.89 -0.69,-2.5 -0.93,-0.8 -3.54,-0.64 -4.19,1.56z"/>
   <path class="fil17" d="M4.1 13.04c0.33,0.09 0.51,-0.07 0.84,0.14 0.3,0.19 0.43,0.03 0.72,-0.09 0.37,-0.16 0.33,-0.15 0.39,-0.6l0.56 -4.4c0.19,0.38 0.02,3.98 0.04,4.61 0.02,0.38 0.32,0.15 0.98,0.63 0.14,0.1 0.16,0.2 0.33,0.24 0.38,-0.43 0.68,-2.07 0.83,-2.66l0.77 -2.76c-0.02,0.69 -0.66,4.65 -0.55,4.85 0.06,0.07 0.33,0.05 0.42,0.06 0.15,0.01 0.3,0.02 0.46,0.02 0.27,0.01 0.69,0.06 0.94,0.02 0.13,-0.27 0.76,-5.66 0.89,-6.71 0.05,-0.41 0.3,-1.97 0.25,-2.27 -0.34,-0.03 -2.61,-0.06 -2.77,0.03 -0.14,0.08 -0.12,0.2 -0.18,0.47 -0.04,0.19 -0.08,0.37 -0.13,0.56 -0.08,0.37 -0.17,0.72 -0.26,1.09 -0.08,0.34 -0.45,1.95 -0.56,2.14 -0.08,-0.4 -0.02,-3.29 -0.02,-4.02 -0,-0.36 -0.07,-0.27 -0.81,-0.27l-1.74 0c-0.28,0.01 -0.29,0.09 -0.33,0.36l-0.47 3.65c-0.09,0.68 -0.64,4.58 -0.6,4.92z"/>
   <path class="fil17" d="M55.18 6.4c-0,-0.31 0.23,-0.46 0.5,-0.32 -0.05,0.13 -0.09,0.11 -0.22,0.2 -0.09,0.06 -0.14,0.1 -0.28,0.12zm3.28 -0.73c-0.06,0.09 -0.04,0.09 -0.14,0.13 -0.1,-0.04 -0.62,-0.47 -0.7,-0.59l0.09 -0.14c0.16,0.02 0.69,0.5 0.74,0.6zm-2.56 -0.75c-0.24,-0.11 -0.15,-0.38 0.12,-0.39 -0,0.18 -0.02,0.29 -0.12,0.39zm-3.49 -1.31c-0.06,-0.15 -0.06,-0.2 -0.01,-0.34 0.11,0.01 0.13,0.05 0.17,0.17 0.04,0.11 0.05,0.2 0,0.3 -0,0 -0.07,0.13 -0.17,-0.13zm-0.39 1.95c0.19,0.05 0.69,-0.2 0.83,0.19 -0.19,0.27 -0.51,0.09 -0.78,0.07l-0.01 0.49 0 0.14 0.55 0.32 0.37 0.34c0.12,0.11 0.07,0.16 0.1,0.1 0,-0.01 0.02,0.01 0.02,0.02 0.05,0.09 0.12,0.17 0.19,0.28 0.03,0.05 0.08,0.13 0.08,0.21 0.01,0.21 -0,0.15 -0.1,0.16 -0.04,0.04 -0.01,0.02 -0.07,0.06 -0.16,0.1 -1.13,0.39 -1.25,-0.15 0.21,0.01 0.41,0.04 0.59,-0.03l-0.02 -0.27c-0.21,-0.06 -0.24,-0.33 -0.57,-0.26 -0.03,0.07 -0.29,0.92 -0.28,1.01 0.12,0.12 0.74,0.35 0.97,0.37 0.15,0.09 0.83,0.77 1.09,0.8 0.22,0.02 0.66,-0.02 0.91,-0.02 0.4,-0.01 0.47,0.02 0.68,-0.2l0.05 -0.05 0.11 -0.2c0.07,-0.2 0.01,-0.31 0.16,-0.4 0.23,-0.13 0.68,-0.03 0.96,-0.01 0.18,0.02 0.32,-0.01 0.49,0l0.42 -0.27c0.08,-0.12 0.36,-0.42 0.23,-0.61 -0.14,-0.05 -0.22,0.11 -0.31,0.18 -0.09,0.08 -0.18,0.14 -0.32,0.19 -0.15,0.12 -0.26,0.08 -0.5,0.06 -0.16,-0.01 -0.32,0.02 -0.49,0.02 -0.35,-0.01 -0.39,-0.04 -0.68,-0.11l-0.16 -0.05c-0.01,-0.01 -0.02,-0.01 -0.03,-0.02l-0.14 -0.03 -0.18 -0.22c-0.11,-0.19 -0.28,-0.62 -0.06,-0.76 0.21,0.15 0.02,0.49 0.17,0.73l0.15 0.01c0.34,-0.21 0.46,-0.5 0.87,-0.67 0.41,-0.17 0.87,-0 1.31,-0.19 -0.02,-0.15 -0.06,-0.16 -0.23,-0.24 -0.57,-0.27 -0.91,-0.13 -0.96,-0.34 0.17,-0.14 0.89,0.13 1.07,0.19 0.36,0.13 0.68,0.39 0.96,0.05 0.05,-0.06 -0.06,-0.06 0.14,-0.07 0.01,0.01 0.01,0.02 0.01,0.03l0.03 0.1c0.05,0.21 -0.01,0.19 0.19,0.17 0.16,-0.06 0.25,-0.18 0.33,-0.35 0.04,-0.32 0.11,-0.74 0.61,-0.81 -0,0.16 -0.4,1.08 -0.5,1.18 -0.08,0.17 -0.23,0.3 -0.25,0.56 0.27,-0.07 0.86,-0.88 0.88,-1.36 0.01,-0.61 -0.64,-1.84 -0.93,-2.41 -0.34,-0.68 -0.38,-0.53 -1.15,-1.08 -0.23,-0.16 -0.42,-0.33 -0.63,-0.5 -0.47,-0.36 -0.98,-0.48 -1.7,-0.53 -0.75,-0.05 -1.23,-0.17 -1.9,0.16 -0.58,0.28 -0.75,0.71 -1.18,1.05 -0.29,0.22 -0.95,0.78 -0.97,1.28 0.02,0.09 0.34,0.33 0.55,0.72 0.19,0.36 0.2,0.56 0.27,0.98z"/>
   <path class="fil17" d="M27.29 5.83c0.74,-0.23 0.42,0.92 0.36,1.33l-0.58 4.41c-0.04,0.28 -0.02,0.65 -0.25,0.73 -0.75,0.28 -0.46,-0.86 -0.39,-1.33l0.58 -4.41c0.04,-0.27 0.01,-0.64 0.28,-0.72zm-1.5 7.47c0.17,-0.16 0.19,-0.23 0.53,-0.23 0.27,-0.01 1.31,-0.06 1.48,0.11 0.16,0.15 0.06,0.46 0.1,0.7 0.23,0.06 0.27,-0.38 0.35,-0.57 0.15,-0.36 0.42,-0.14 0.67,-0.31 0.33,-0.22 0.93,-5.94 1.02,-6.88 0.07,-0.71 -0.08,-1.14 -0.45,-1.5 -0.68,-0.64 -2.78,-0.52 -4,-0.52 -0.44,-0 -0.37,0.32 -0.47,1.07l-0.89 6.89c-0.15,1.2 -0.35,1.03 1.1,1.02 0.57,-0 0.28,0.07 0.57,0.23z"/>
   <path class="fil17" d="M49.17 5.76c0.22,-0.08 0.45,0.05 0.46,0.29 0.01,0.15 -0.06,0.5 -0.08,0.67 -0.05,0.36 -0.04,1.08 -0.33,1.19 -0.22,0.08 -0.46,-0.05 -0.48,-0.27 -0.02,-0.16 0.06,-0.51 0.08,-0.68 0.05,-0.37 0.05,-1.08 0.34,-1.19zm-3.27 7.27c0.3,0.03 0.77,-0.1 1.52,0 0.76,0.11 0.66,-0.09 0.75,-0.76 0.06,-0.47 0.12,-0.94 0.18,-1.4 0.03,-0.25 0.06,-0.46 0.09,-0.71 0.02,-0.2 0.04,-0.61 0.15,-0.68 0.22,-0.11 0.56,0.14 0.57,0.46 0,0.26 -0.08,0.73 -0.12,1 -0.05,0.34 -0.27,1.79 -0.21,2.02 0.21,0.07 0.88,0.03 1.17,0.04 0.5,0.02 0.33,0.36 0.45,0.74 0.36,-0.09 0.36,-0.78 0.42,-1.16 0.09,-0.55 0.32,-2.46 0.23,-2.91 -0.13,-0.69 -0.62,-0.62 -0.78,-0.88 0.29,-0.14 0.44,-0.12 0.69,-0.36 0.56,-0.52 0.65,-1.82 0.65,-2.57 -0,-1.58 -0.82,-1.78 -2.32,-1.82 -0.65,-0.02 -1.44,-0.05 -2.08,-0.01 -0.31,0.02 -0.23,0.13 -0.31,0.72l-0.59 4.58c-0.07,0.5 -0.48,3.46 -0.45,3.7z"/>
   <path class="fil17" d="M33.1 6.12l-0.73 5.55c-0.03,0.28 -0.03,0.7 -0.23,0.83 -0.35,0.23 -0.57,-0.11 -0.52,-0.47 0.16,-1.26 0.32,-2.49 0.49,-3.74 0.08,-0.62 0.16,-1.25 0.25,-1.87 0.04,-0.31 0.03,-0.7 0.26,-0.8 0.39,-0.17 0.53,0.15 0.48,0.51zm-0.34 -2.2c-2.6,0.35 -2.56,2.37 -2.88,4.57 -0.14,0.96 -0.52,3.24 -0.33,4.16 0.07,0.36 0.1,0.43 0.51,0.43 1.15,-0.01 2.61,0.03 3.71,0 0.49,-0.01 0.63,-0.71 0.72,-1.14 0.23,-1.05 0.24,-2.21 0.38,-3.32 0.19,-1.6 0.71,-3.62 -0.62,-4.42 -0.42,-0.25 -0.92,-0.35 -1.49,-0.27z"/>
   <path class="fil17" d="M54.39 14.1c-0.09,-0.15 -0.03,-0.3 0.18,-0.29 0.05,0.14 0.03,0.28 -0.1,0.31 -0.14,0.03 -0.04,-0 -0.08,-0.02zm2.56 -1.92c0.22,-0.06 0.35,0.31 0.24,0.51 -0.2,0.08 -0.37,-0.32 -0.24,-0.51zm-0.88 -0.17c-0.17,-0.25 -0.06,-0.46 0.27,-0.37 0.09,0.18 0.1,0.2 -0.01,0.39l-0.26 -0.01zm-1.83 0.51c0.04,0.53 -0.03,0.45 -0.33,0.74 -0.23,0.17 0.16,0.53 0.2,1.1 0.02,0.23 -0.15,1.11 -0.22,1.29 -0.4,0.15 -0.68,0.02 -1.05,0.09 -0.03,0.21 0.25,0.26 0.52,0.65 0.17,0.24 0.29,0.52 0.36,0.88 0.2,0.97 -0.3,1.89 -0.18,2.15 0.18,0.06 0.21,-0.06 0.34,-0.19 0.3,-0.32 0.65,0.01 1.29,-0.64 0.4,-0.41 0.19,-0.42 0.16,-0.95 -0.03,-0.47 0.05,-0.69 0.19,-1.08 0.28,-0.79 0.33,-1.2 0.82,-1.71 0.16,-0.17 0.45,-0.48 0.37,-0.86 -0.14,-0.62 -0.49,-0.29 -0.86,-0.43 0.05,-0.13 0.13,-0.09 0.29,-0.15 0.13,-0.05 0.22,-0.12 0.29,-0.2 0.08,-0.09 0.14,-0.22 0.23,-0.25 0.15,-0.06 0.27,0.01 0.33,0.11 0.17,0.33 -0.14,2.17 0.06,3.07 0.06,0.27 0.22,0.63 0.24,0.84 0.34,-0.2 0.62,-1.61 0.64,-2.04 0.01,-0.44 -0.02,-0.83 -0.1,-1.22 -0.07,-0.34 -0.02,-0.5 0.18,-0.88 0.05,-0.1 0.02,-0.05 0.08,-0.12 -0,-0.29 0.16,-0.43 -0.05,-0.77 -0.3,-0.5 -0.78,0.22 -1.34,-0.55 -0.2,-0.27 -0.17,-0.4 -0.25,-0.73 -0.4,0.06 -0.54,0.93 -0.93,1.12 -0.19,0.1 -0.16,0.03 -0.25,0.25 -0.15,0.38 -0.48,0.29 -1.03,0.5z"/>
   <path class="fil17" d="M59.61 9.44c0,-0.14 0.15,-0.45 0.22,-0.61 0.07,-0.15 0.01,-0.09 0.12,-0.14 0.14,0.14 0.1,0.33 0.01,0.5 -0.08,0.16 -0.13,0.25 -0.36,0.25zm-1.04 1.47c-0.02,0.11 -0.03,0.2 -0.05,0.31l-0.05 0.26c-0,-0.01 -0.01,0.02 -0.02,0.03l-0.19 1.2c-0.03,0.66 -0.05,1.28 -0.09,1.94 -0.05,0.81 -0.73,3.01 -0.33,3.44 0.45,0.49 1.02,-0.75 1.06,-0.77 0.06,0.1 0.02,0.21 -0.01,0.35 -0.26,1.13 -0.4,0.84 -0.88,1.2 -0.2,0.15 -0.33,0.31 -0.46,0.39 0.37,0.6 0.71,0.01 0.84,-0.13 0.09,-0.1 0.16,-0.18 0.26,-0.27 0.37,-0.37 0.57,-0.64 0.71,-1.33 0.27,-1.3 -0.03,-2.79 0.07,-3.86 -0,-0.01 -0.01,-0.02 -0.01,-0.03 -0,-0.01 -0.01,-0.02 -0.01,-0.03l-0.03 -0.64c-0,-0.23 0.01,-0.5 0,-0.72 -0.01,-0.27 -0.16,-0.29 -0.27,-0.44 -0.05,-0.08 -0.09,-0.18 -0.11,-0.26 -0.03,-0.13 -0.04,-0.19 0.03,-0.26 -0,-0.15 0.06,-0.23 0.1,-0.36 0.03,-0.3 -0.13,-0.6 0.12,-0.77 0.23,-0.15 0.55,0.08 0.75,-0.16 0.1,-0.28 -0.04,-0.2 0.18,-0.5 0.06,-0.08 0.22,-0.29 0.26,-0.38 0.05,-0.14 0.05,-1.05 0.03,-1.24 0.04,-0.26 -0.03,-0.35 -0.02,-0.54 0.01,-0.19 0.14,-0.18 0.23,-0.37 0.1,-0.23 0.04,-0.76 0.13,-1.08 0.08,-0.29 0.22,-0.55 0.31,-0.85 0.05,-0.16 0.06,-0.34 0.11,-0.5 0.08,-0.25 0.22,-0.13 0.2,-0.42 -0.97,-0.37 -1.09,0.79 -1.27,1.57 -0.13,0.54 -0.05,0.89 -0.12,1.4 -0.03,0.2 -0.14,0.37 -0.1,0.61 0.05,0.27 0.06,0.39 -0.01,0.64 -0.06,-0.06 -0.02,0.03 -0.07,-0.1 -0.01,-0.03 -0.02,-0.1 -0.02,-0.14 -0.01,-0.11 -0,-0.22 -0.03,-0.31 -0.06,-0.29 -0.46,-0.41 -0.49,0.01 -0.01,0.12 0,0.22 -0,0.34 -0.27,0.11 -0.01,-0.21 -0.53,0.46 -0.08,0.1 -0.16,0.18 -0.11,0.33 0.05,0.15 0.13,0.26 0.26,0.32 0.33,0.02 -0.02,-0.5 0.38,-0.94 0.21,0.36 -0.21,1.04 -0.43,1.33 -0.06,0.08 -0.37,0.45 -0.39,0.52 -0.05,0.22 0.24,0.38 0.08,0.77z"/>
   <path class="fil17" d="M54.04 10.72c0.06,0.17 0.32,0.37 0.62,0.37 0.29,-0.01 0.52,-0.21 0.62,-0.36 0.06,-0.65 -1.51,-0.59 -1.24,-0.01z"/>
   <path class="fil18" d="M53.12 7.22c-0.01,-0.01 -0.02,-0.03 -0.02,-0.02 -0.03,0.06 0.01,0.01 -0.1,-0.1l-0.37 -0.34c-0.04,0.18 -0.14,0.24 -0.08,0.41 0.2,0.12 0.34,0.04 0.58,0.05z"/>
   <path class="fil19" d="M59.03 11.27c0.06,0.13 0.01,0.1 0.17,0.1 0.11,-0.14 0.08,-0.34 0.03,-0.41 -0.08,-0.12 -0.01,-0.05 -0.1,-0.05 -0.05,0.13 -0.11,0.21 -0.1,0.36z"/>
  </g>
 </g>
</svg>
