<?xml version="1.0" encoding="UTF-8"?>
<!DOCTYPE svg PUBLIC "-//W3C//DTD SVG 1.1//EN" "http://www.w3.org/Graphics/SVG/1.1/DTD/svg11.dtd">
<!-- Creator: CorelDRAW -->
<svg xmlns="http://www.w3.org/2000/svg" xml:space="preserve" width="67.6349mm" height="19.9316mm" version="1.1" style="shape-rendering:geometricPrecision; text-rendering:geometricPrecision; image-rendering:optimizeQuality; fill-rule:evenodd; clip-rule:evenodd"
viewBox="0 0 224.19 66.07"
 xmlns:xlink="http://www.w3.org/1999/xlink"
 xmlns:xodm="http://www.corel.com/coreldraw/odm/2003">
 <defs>
  <style type="text/css">
   <![CDATA[
    .fil0 {fill:black}
    .fil1 {fill:red}
    .fil2 {fill:white}
   ]]>
  </style>
 </defs>
 <g id="Camada_x0020_1">
  <metadata id="CorelCorpID_0Corel-Layer"/>
  <g id="_2028801250000">
   <path class="fil0" d="M58.61 64.89c-0.83,0 -0.34,-0.87 -0.05,-1.15 0.48,-0.47 6.48,-2.65 7.17,-2.75 3.08,-0.43 10.98,-0.24 14.15,-0.06 0.63,0.04 0.53,-0.1 1.23,-0.14 0.88,-0.05 1.93,0 2.83,0l17.16 0c2.08,0 3.58,0.16 5.67,0.16l107.19 -0.16c-0.19,0.71 -0.61,0.71 -1.28,0.93 -3.18,1.02 -8.01,3.17 -11.16,3.17l-142.92 0zm-37.93 -0.31c0.02,-0.78 0.32,-1.32 0.56,-1.96 0.63,-1.63 0.65,-3.06 1.81,-3.23 6.1,-0.9 3.26,2.61 3.25,2.62 -0.52,0.44 -1.37,0.08 -1.37,0.83 0,0.52 0.41,0.38 0.79,0.94 -0.56,0.83 -2.25,1.1 -2.68,-0.47l-0.31 0c-0.23,0.85 -0.99,1.24 -2.05,1.26zm-10.86 0.16c0.05,-0.59 0.3,-1.12 0.44,-1.61 1.33,-4.79 1.02,-3.97 4.3,-3.76 0.88,0.06 1.56,-0.11 1.56,0.8 0,0.57 -1.18,3.8 -1.48,4.03 -0.67,0.52 -3.52,0.53 -4.82,0.53zm5.82 -0.31c-0.77,0 -0.18,-0.95 0.02,-1.55 0.5,-1.47 0.65,-2.73 1.66,-3.22 1.25,-0.6 3.07,-0.62 4.3,0.21 -0.07,0.85 -0.69,2.2 -0.96,2.97 -0.64,1.81 -0.25,1.3 -2.18,1.75 0.02,-1.01 1.02,-2.05 0,-2.05 -2.17,0 -0.34,1.89 -2.83,1.89zm-14.64 0c0.04,-0.51 0.47,-1.48 0.65,-2.03 0.83,-2.49 0.07,-3.17 4.54,-3.17 4.88,0 5.1,-0.34 3.51,3.67 -0.5,1.26 -0.35,1.69 -2.09,1.69 0,-1.88 2.12,-4.25 0.63,-4.25 -1.21,0 -1.11,1.09 -1.68,2.56 -0.38,0.96 -0.17,1.64 -2.25,1.69 0,-1.47 1.1,-2.43 1.1,-4.09 -1.53,-0.36 -1.43,-0.3 -2.18,2.38 -0.41,1.47 -0.39,1.55 -2.22,1.55zm52.77 -4.36c0.45,-0.75 1.62,-0.83 2.63,-0.83 2.11,0 2.76,0.25 2.05,1.73 -1.64,0.35 -3.31,-1.94 -3.31,0.47l1.89 0.16c1.2,0.26 1.16,0.5 0.75,1.36 -0.75,1.57 -0.64,1.79 -2.16,1.79 -4.22,0 -3.23,-1.57 -2.52,-1.57 1.93,0 2.95,1.34 2.99,-0.47 -0.87,-0.07 -2.99,-0.24 -2.99,-1.1l0.67 -1.53zm-22.08 4.52c0,-1.36 0.63,-2.62 1,-3.72 0.69,-2.01 2.48,-1.63 5.3,-1.63 0,1.23 -0.16,1.29 -1.41,1.27 -0.72,-0.01 -2.21,-0.3 -2.21,0.46 0,1.04 1.74,0 2.14,0.71 0.18,0.32 -0.17,0.76 -0.39,0.88 -0.25,0.13 -1.1,-0.01 -1.9,-0.01 -1.1,0 0.3,1.81 -2.52,2.05zm11.8 -0.94c0.72,0 0.89,-2.14 1.43,-3.45 0.17,-0.42 0.3,-0.6 0.84,-0.74 1.22,-0.31 5.53,-0.06 7.34,-0.06 0,1.25 -0.39,2.48 -0.69,3.56 -0.19,0.69 -0.35,1.02 -0.88,1.33 -2.64,1.51 -0.19,-2.53 -0.16,-3.78 -0.35,-0.08 -0.36,-0.16 -0.79,-0.16 -1.67,0 -0.72,4.09 -2.83,4.09l-0.79 0c0,-0.87 0.28,-1.22 0.53,-1.99 0.21,-0.65 0.55,-1.28 0.57,-1.95 -2.11,-0.49 -1.37,0.1 -2.45,3.06 -0.57,1.58 -4.5,1.38 -6.21,0.56 1.68,-3.5 0.56,-4.72 3.31,-4.72 -0.08,0.99 -1.24,3 -1.26,4.09 0.73,0 0.9,0.16 2.05,0.16zm-6.45 0.79c0.02,-0.7 0.27,-1.22 0.47,-1.73 0.89,-2.22 0.58,-3.29 2.68,-3.46 -0.01,0.61 -1,3.51 -1.32,4.35 -0.37,0.97 -0.57,0.84 -1.83,0.84zm-9.29 -4.09c0.03,-1.5 1.61,-1.1 4.09,-1.1 0.76,0 0.35,0.81 0.18,0.95 -0.35,0.29 -0.41,0.11 -1.28,0.31 -0.36,0.74 -0.58,1.84 -0.88,2.74 -0.34,1.03 -0.81,1.35 -2.11,1.35 0.02,-0.73 0.31,-1.33 0.53,-1.99 0.74,-2.23 0.99,-2.26 -0.53,-2.26zm183.37 -2.99c0,-2.14 4.56,-2.9 4.56,-0.47 0,2 -4.56,3.15 -4.56,0.47zm-5.51 1.42c-0.09,0 -2.05,-0.76 -0.7,-2.43 0.27,-0.33 0.43,-0.42 0.82,-0.59 3.1,-1.37 4.47,1.25 2.65,2.49 -0.91,0.62 -1.73,0.53 -2.78,0.53zm-28.96 -8.19c0,-0.87 0.45,-1.82 0.66,-2.64 0.2,-0.8 0.44,-1.58 0.69,-2.46 0.58,-2.03 0.33,-3.08 3.22,-3.08 0.17,0.72 0.33,1.67 0.45,2.39 0.21,1.28 0.26,1.05 0.81,1.86 -0.28,0.58 -1.04,2.89 -1.1,3.62 0.69,-0.47 1.22,-1.89 1.89,-1.89l3.31 0c1.49,0 3.62,1.18 3.62,2.52 0,0.67 -1.56,6.26 -1.79,6.55 -0.35,0.44 -2.4,0.74 -3.18,0.91 -1.69,0.38 -7.57,0.92 -9,-0.27 -1.53,-1.26 -1.2,-2.02 -0.81,-3.41 0.42,-1.49 0.03,-1.12 4.87,-1.12 0,0.93 -0.08,0.53 -0.22,1.08 -0.09,0.37 -0.15,0.65 0.38,0.65 4.89,0 3.82,0.56 4.68,-2.59 0.21,-0.79 0.29,-0.93 -0.72,-0.88 -0.72,0.03 -0.85,0.17 -1.75,0.17 -0.77,0 -5.98,-0.9 -5.98,-1.42zm10.23 -3.94c0.08,-0.93 0.49,-0.76 1.3,-0.91 3.37,-0.62 4.4,-1.23 3.27,0.91 -1.51,0 -3.87,0.39 -4.56,0zm-84.84 3.94c0,-0.79 0.71,-2.89 0.93,-3.64 1.06,-3.63 0.73,-3.98 2.38,-4.39 2.5,-0.62 8.6,-1.74 10.86,-0.31 2.16,1.37 0.93,2.73 0.79,4.41 -0.35,0.08 -0.36,0.16 -0.79,0.16 -5.09,0 -3.78,0.3 -3.78,-1.73l-4.25 0c-0.21,0.91 -0.45,1.64 -0.73,2.58 -0.22,0.74 -0.67,1.84 -0.69,2.62 0.39,-0.26 0.67,-0.72 0.94,-1.11 0.29,-0.43 0.38,-0.78 1.11,-0.78 2.66,0 3.94,-0.36 5.49,0.81 1.89,1.42 1.38,1.66 0.49,4.86 -1.2,4.33 -0.48,3.52 -3.95,4.24 -1.97,0.41 -7.22,0.99 -9.06,-0.05 -2.47,-1.4 -0.77,-4.67 -0.21,-4.67 5.64,0 3.82,-0.24 3.78,1.73l4.09 0c0.7,0 1.1,-2.76 1.1,-3.46l-3.46 0c-0.97,0 -5.04,-0.74 -5.04,-1.26zm61.71 -7.39c0.56,-1.18 10.01,-2.22 12.17,-1.01 0.5,0.28 1.36,1.15 1.36,1.79 0,0.23 -0.35,2.83 -1.1,2.83 -5.36,0 -3.94,0.28 -3.94,-1.73 -4.57,0 -4.24,-0.37 -4.62,1.04 -0.31,1.15 -1.04,3.3 -1.04,4.15 0.81,-0.59 0.73,-1.89 1.89,-1.89 2.26,0 4.84,-0.34 6.26,1.3 0.16,0.18 0.51,0.65 0.51,0.91 0,1.28 -1.31,6.44 -1.77,6.89 -0.8,0.8 -9.73,2.17 -12.06,0.64 -2.54,-1.66 -0.58,-4.54 -0.18,-4.54l3.78 0c1.21,0 -0.66,1.73 0.63,1.73 4.13,0 3.83,0.33 4.29,-1.38 0.17,-0.64 0.44,-1.2 0.44,-2.08l-3.62 0c-0.93,0 -4.44,-0.82 -5.04,-1.1l2.06 -7.54zm-161.34 15.57c0.01,-0.63 3.74,-13.44 4.15,-14.74 0.51,-1.64 0.48,-1.24 2.15,-1.63 3.01,-0.71 4.56,-0.79 7.87,-0.79 1.43,0 3.62,1.03 3.62,2.2 0,1.03 -1.01,5.29 -2.08,6.42 -2.31,2.44 -6.83,1.61 -9.1,1.61 -0.39,0.81 -1.41,5.51 -1.73,5.82 -0.31,0.15 -4.36,1.06 -4.88,1.1zm29.59 -0.31c0,-1.26 2.61,-9.53 3.02,-11.14 0.24,-0.93 0.51,-1.84 0.79,-2.83 0.35,-1.29 0.2,-1.54 1.6,-1.86 1.95,-0.46 3.57,-1 5.92,-1 2.73,0 4.49,-0.33 5.97,1.59 0.62,0.8 0.47,0.8 0.17,1.87 -0.61,2.24 -1.04,4.62 -2.45,5.58 -1.69,1.15 -3.18,1.03 -3.85,1.35 0.06,0.75 0.98,1.91 1.37,2.57 0.51,0.86 1.02,1.63 1.47,2.47 -0.53,0.35 -4.25,1.55 -5.04,1.73 -0.57,-0.85 -2.77,-4.61 -3.15,-4.88 -0.32,0.67 -0.89,3.5 -1.24,3.79 -0.34,0.29 -3.55,0.77 -4.58,0.77zm-8.66 -6.45c-0.31,1.31 -0.77,2.67 -1.16,4.04 -0.59,2.08 -0.29,1.56 -3.03,2.17 -2.98,0.66 -2.52,0.6 -2.24,-0.16 0.84,-2.3 1.82,-6.67 2.63,-9.06 1,-2.97 0.87,-5.48 3.67,-6.72 1.6,-0.71 4.02,-0.66 5.95,-0.66 0.65,0 5.82,0.81 5.82,1.73l-1.82 6.36c-0.33,1.15 -0.58,2.05 -0.91,3.18 -1.38,4.78 -0.62,4.66 -3.05,5.13 -1.02,0.2 -3,0.84 -3.12,0.29 -0.09,-0.41 1.57,-5.23 1.66,-6.31l-4.41 0zm166.21 5.35c0,-0.6 2.67,-9.89 2.92,-10.77 0.3,-1.06 0.34,-1.78 1.39,-2.08 1.33,-0.38 3.87,-1.3 4.97,-1.95 0.67,-0.39 1.31,-0.94 2.37,-0.94 3.31,0 4.56,1.07 5.98,1.1 0,1.48 -2.13,8.36 -2.57,9.86 -0.26,0.86 -0.49,1.69 -0.7,2.45 -0.28,1.01 -0.35,1.33 -1.01,1.98 -0.93,0.92 -2.56,1.76 -4.38,1.76 -5.84,0 -3.21,0.27 -8,-0.81 -0.48,-0.11 -0.97,-0.05 -0.97,-0.6zm-142.76 1.1c0,-0.78 1.15,-4.35 1.47,-5.45 0.52,-1.8 1.02,-3.56 1.49,-5.28 0.53,-1.95 0.75,-3.5 2.12,-4.65 1.27,-1.06 3.04,-1.46 5.31,-1.46 4.44,0 4.2,0.44 7.71,1.26 -0.02,0.87 -2.95,10.54 -3.37,12.05l-0.66 2.33c-0.39,0.9 -3.88,1.2 -4.93,1.2l1.45 -5.16c0.14,-0.5 0.54,-1.29 -0.19,-1.29 -4.82,0 -3.73,-0.43 -4.62,2.3 -1.27,3.9 -0.39,3.3 -2.81,3.8 -0.8,0.16 -2.09,0.35 -2.95,0.35zm83.11 -0.94c0.07,-0.9 0.48,-1.73 0.72,-2.58l2.06 -7.39c0.94,-3.25 1.54,-5.93 6.67,-5.93 5.61,0 3.5,0.09 8.5,1.26 -0.05,0.61 -0.44,1.69 -0.6,2.24 -0.69,2.5 -0.4,1.54 -5.07,1.54 0.06,-0.71 0.66,-1.57 -0.16,-1.57 -4.57,0 -3.76,-0.51 -4.62,2.46 -0.28,0.98 -0.5,1.73 -0.77,2.7 -0.23,0.83 -0.49,1.81 -0.77,2.69 -0.39,1.22 -0.98,2.38 -0.14,2.38 1.33,0 2.82,0.14 4.09,-0.16 0.05,-0.64 0.11,-1.57 0.79,-1.57 3.92,0 4.22,-0.33 3.96,0.77 -0.09,0.37 -0.22,0.84 -0.3,1.15 -0.53,2.03 -3.01,3.27 -5.23,3.27 -2.95,0 -6.48,0.14 -9.13,-1.26zm-52.87 -12.26c0.81,-2.31 2.89,-3.64 5.65,-3.64 2.99,0 6.11,-0.04 8.81,1.26 -0.45,1.91 -3.5,13.02 -4.29,13.97 -0.6,0.73 -2.78,1.93 -4.05,1.93 -3.01,0 -6.97,0.13 -9.6,-1.26l3.48 -12.26zm131.56 -2.54c1.06,-0.02 3.53,-0.82 4.72,-1.1 -0.02,1.02 -1.69,6.88 -1.99,7.93 -0.71,2.43 -0.42,2.9 -1.68,3.2 -1.15,0.27 -2.94,0.75 -4.04,0.84 0,-1.03 0.41,-1.89 0.66,-2.8l2.33 -8.06zm-63.43 13.54c0,-0.6 2.34,-8.79 2.7,-9.9 1.17,-3.64 0.41,-3.44 2.43,-3.87 6.05,-1.28 6.21,-0.88 12.66,-0.88 -0.03,1.16 -0.7,2.4 -0.94,3.46l-8.97 0c-0.4,0.76 -1.35,4.09 -1.57,5.04 0.55,-0.15 0.6,-0.39 0.88,-0.85 0.23,-0.37 0.42,-0.88 0.85,-0.88 6.27,0 5.73,-0.45 5.13,1.66 -0.18,0.61 -0.33,1.32 -0.56,1.8 -7.56,0 -6.54,-0.56 -7.18,1.63 -0.52,1.78 -1.15,1.87 0.88,1.84l7.56 -0.01c-0.05,0.65 -0.61,3.46 -1.26,3.46l-9.29 0c-1.54,0 -3.31,-1.08 -3.31,-2.52zm69.08 -10.57c0.9,-3.08 0.56,-2.87 1.92,-3.12 4.86,-0.91 4.21,-2.15 2.79,2.95 -0.35,1.26 -0.73,2.59 -1.12,3.91 -0.84,2.83 -0.38,2.99 -1.73,3.31 -1.16,0.27 -2.93,0.75 -4.04,0.84l2.18 -7.89zm-97.23 3.97c2.58,-8.79 0.9,-6.3 5.9,-7.81 1.38,-0.41 1.05,-0.31 0.09,3.1 -0.42,1.48 -0.77,2.8 -1.2,4.31l-1.57 5.4c-0.28,1.37 1.41,0.14 3.52,0.65l0 1.73c0.59,-0.16 0.47,-0.25 0.64,-0.94 0.37,-1.53 3.42,-12.83 3.81,-13.19l4.84 -1.3 -4.26 15.26c-0.18,0.59 -0.15,0.71 -0.83,0.9 -1.32,0.39 -4.53,1 -5.93,1 -2.05,0 -6.77,0.51 -6.77,-2.52l1.75 -6.59zm-78.4 -13.56c0,-0.43 0.93,-3.46 1.12,-4.07 0.09,-0.29 0.18,-0.67 0.28,-0.98 0.16,-0.47 0.11,-0.52 0.65,-0.61 0.59,-0.1 1.81,-0.03 2.4,-0.12 2.07,-0.28 1.71,-0.11 1.61,0.47l-1.16 3.92c-0.3,1.06 -0.26,1.7 -0.82,1.7 -1.22,0 -4.09,0.26 -4.09,-0.31zm111.91 -8.19c0,-1.24 1,-3.23 1.1,-4.41l0.31 0c0.3,1.29 0.86,2.54 1.77,3.43 0.38,0.37 0.61,0.45 0.75,0.98l-3.93 0zm-41.4 0c0.21,-0.9 0.85,-3.83 1.42,-4.25 0.3,0.63 0.37,1.31 0.75,1.93 1.63,2.67 3.68,2.32 -2.17,2.32zm-30.38 -2.2c0.04,-0.49 0.11,-0.94 0.63,-0.94 10.88,0 8.84,-0.52 8.66,1.73 -1.04,0 -1.18,-0.27 -2.1,-0.41 -1.79,-0.29 -5.7,0.34 -7.18,-0.37zm-13.06 4.25c0,-0.76 0.05,-1.57 -0.07,-2.3 -0.16,-0.98 -0.21,-1.24 0.28,-1.9 0.55,-0.74 1.61,-2.48 1.99,-2.73 0,0.94 -0.68,2.82 -0.91,3.65 -0.19,0.67 -0.33,1.2 -0.53,1.84 -0.48,1.54 -0.13,1.27 -0.77,1.44zm62.96 -1.42c-1.16,-2.42 0.52,-1.44 -2.5,-4.29 -1.46,-1.38 1.51,-0.41 3.1,-0.94 0.45,-0.15 0.61,-0.32 1.13,-0.44 -0.07,0.88 -0.56,2.14 -0.79,2.99 -0.31,1.17 -0.35,2.24 -0.94,2.68zm85.15 -10.55c0.66,-0.99 0.63,-1.55 0.63,-3.15 0.94,0.63 0.79,1.94 1.89,2.68 0.66,-0.44 1.36,-1.35 2.2,-1.57 -0.03,1.42 -0.77,1.56 -0.96,2.44 -0.15,0.69 0.56,0.83 1.25,1.04 0.68,0.2 1.06,0.14 1.12,0.93 -0.48,0.11 -0.97,0.2 -1.44,0.29 -1.98,0.39 -0.29,1.83 0.02,3.17 -1.31,-0.11 -1.27,-0.91 -2.52,-1.57 -0.93,0.81 -0.92,1.92 -1.73,2.52 0,-1.18 0.07,-2.19 -0.16,-3.15 -0.77,-0.16 -1.13,0.16 -2.2,0.16 -1.35,0 0.04,-0.79 0.8,-1.41 1.48,-1.2 -0.89,-1.38 -1.27,-3 1.04,0.09 1.51,0.43 2.36,0.63zm-170.78 2.99c0.02,-0.78 0.51,-2.05 0.72,-2.9 0.73,-2.91 0.15,-2.3 5.1,-2.3 0,0.98 -1.17,5.07 -1.89,6.14 -1.56,-1.05 -0.21,-0.94 -3.93,-0.94zm-26.6 19.05c-2.41,0 -4.06,-0.07 -6.1,0.35 -1.6,0.34 -1.76,0.42 -1.4,-0.75 1.23,-4.02 2.35,-8.49 3.55,-12.21 0.52,-1.62 0.92,-3.32 1.42,-4.88 0.52,-1.62 0.92,-3.32 1.42,-4.88l1.4 -4.89c0.25,-0.89 0.45,-1.57 0.7,-2.45 0.14,-0.5 0.45,-2.08 1.07,-2.08 1.88,0 9.35,0.04 10.62,0.24 4.65,0.75 4.88,3.16 3.86,7 -1.28,4.82 -1.71,8.12 -5.4,11.13l-1.64 1.04c-1.24,0.61 -2.97,0.76 -4.77,0.74 -1.44,-0.02 -1.43,-0.07 -1.73,1.1l-2.42 8.45c-0.18,0.56 -0.52,1.55 -0.57,2.11zm111.12 1.26c0,-2.3 0.59,-3.67 1.07,-5.39l4.19 -14.7c0.51,-1.78 2.32,-8.56 3.08,-9.67 1.71,-2.52 5.91,-3.77 8.82,-3.77 2.65,0 8.18,0.31 8.18,3.78 0,1.47 -1.35,5.84 -1.83,7.46 -0.52,1.73 -5.8,20.45 -6.2,21.19 -1.61,0 -2.62,-0.16 -4.25,-0.16 -4.73,0 -4.85,0.94 -5.82,0.94 -0.68,0 -0.47,-0.81 -1.43,-0.89 -0.34,-0.03 -1.57,0.31 -1.92,0.38 -0.75,0.16 -1.17,0.25 -1.94,0.42 -0.65,0.14 -1.32,0.35 -1.96,0.41zm-83.42 -1.26c0,-1.52 4.94,-17.85 5.58,-20.08l3.39 -11.72c3.2,0 6.4,0 9.6,0 2.73,0 6.14,-0.56 6.14,3.46 0,2.5 -2.23,9.25 -3.38,11.57 -0.73,1.47 -1.48,1.45 -2.76,2.12 0.17,0.65 0.58,0.88 0.84,1.52 0.17,0.43 0.35,1.57 0.37,1.97 0.07,1.37 -2.29,9.79 -2.94,11.14 -1.31,0 -2.63,0.01 -3.94,-0 -1.38,-0.01 -2.43,0.32 -3.62,0.32l1.56 -5.53c0.26,-0.91 0.54,-1.85 0.77,-2.69 0.48,-1.71 1.61,-3.74 -0.91,-3.74 -0.14,0.61 -0.32,1.04 -0.51,1.7l-2.43 8.59c-0.34,1.14 -0.74,2.29 -1,3.41 -1.77,-0.47 -0.25,-2.05 -6.77,-2.05zm144.33 -32.9c2.97,0 5.4,0.54 7.66,1.33 1.21,0.43 1.14,-0.2 2.76,-1.3 0.91,-0.62 1.72,-1.14 2.75,-1.66 2.61,-1.29 3.77,-1.69 6.7,-2.27 1.58,-0.31 6.11,-1.3 7.52,-1.3 0.07,0.88 0.39,1.71 0.56,2.59 0.19,0.97 0.28,1.72 0.45,2.7l0.88 5.26c-1.04,0.09 -2.56,0.5 -3.69,0.72 -0.87,0.17 -2.73,0.68 -3.4,0.54 0,-0.64 -0.18,-1.44 -0.27,-1.93 -0.32,-1.72 0.24,-2.11 -4.07,-0.69 -0.98,0.32 -2.42,0.8 -2.89,1.51 0.11,0.43 1.22,1.48 1.96,2.45 1.23,1.63 2.34,3.98 2.8,6.01 0.73,3.24 0.49,6.24 -0.64,9.34 -0.21,0.57 -0.43,0.87 -0.49,1.55 1.6,0.37 6.43,0.04 6.77,-0.31 0.37,-0.9 -0.63,-3.33 -0.63,-4.56 0,-0.47 6.75,-1.42 7.08,-1.42l1.69 8.7c0.76,3.93 1.91,2.89 -5.33,4.35 -3.77,0.76 -7.04,1.17 -10.91,0.4 -0.72,-0.14 -1.13,-0.23 -1.79,-0.41 -2.11,-0.58 -1.29,-0.88 -3.56,0.91 -3.42,2.7 -7.45,3.45 -11.64,4.41 -0.91,0.21 -1.84,0.33 -2.66,0.49 -0.99,0.19 -1.65,0.36 -2.79,0.36 -0.03,-1.13 -2.05,-10.32 -2.05,-11.81 1.12,-0.26 2.19,-0.45 3.4,-0.7 4.07,-0.82 3.55,-1.2 4.09,1.86 0.51,2.84 0.16,2.44 2.65,1.89 1.2,-0.27 3.96,-1.14 4.5,-1.95l-1.87 -2.22c-3.43,-4.29 -4.32,-10.67 -2.25,-15.74 0.22,-0.53 0.44,-0.91 0.49,-1.55 -0.72,0 -1.29,0.01 -1.98,-0.07 -0.69,-0.08 -0.82,0.07 -1.63,0.08 -1.7,0.02 -1.93,0.15 -3.31,0.47 0,0.96 1.31,7.7 1.57,9.29 0.6,3.62 1.04,3.12 -1.19,3.53 -0.66,0.12 -1.09,0.19 -1.73,0.31 -1.12,0.21 -2.55,0.56 -3.69,0.56 -0.36,-1.54 -0.58,-3.29 -0.85,-4.97 -0.29,-1.73 -0.58,-3.23 -0.92,-4.91 -0.62,-3.12 -1.13,-6.56 -1.85,-9.64 1.05,-0.55 10.33,-2.2 11.8,-2.2zm-123.4 33.84c0,-1.16 0.35,-2.44 0.61,-3.32l2.57 -8.92c0.76,-2.71 4.35,-16.07 5.45,-17.54 3.29,-4.39 13.35,-4.09 17.66,-2.02 -0.06,0.78 -2.65,9.49 -2.99,10.7 -0.18,0.65 -0.77,3.18 -1.26,3.18l-7.24 -0.19c0.1,-1.18 0.93,-3.67 1.32,-4.82 0.28,-0.82 0.4,-1.49 0.64,-2.36 0.37,-1.38 0.37,-1.23 -0.7,-1.79 -1.54,0.82 -1.81,3.33 -2.5,5.69l-4.53 15.94c-0.32,1.12 -0.68,1.9 -0.68,3.25 0.65,0.05 1.09,0.29 1.65,-0.24 0.5,-0.48 2.18,-6.83 2.48,-7.91 0.14,-0.51 0.33,-0.96 0.5,-1.55 0.53,-1.87 -0.34,-1.32 7.5,-1.32 0.7,0 0.4,0.59 0.22,1.15 -0.17,0.53 -0.25,0.87 -0.38,1.37l-2.38 8.48c-0.43,1.56 -0.47,1.19 -2.06,1.56 -2.13,0.49 -3.95,1.23 -4.92,3.26 -0.27,0.56 -0.24,1.02 -1.5,1.02 -2.4,0 -6.12,0.18 -8.03,-1.1 0,-0.88 0.1,-1.16 -0.39,-1.65 -0.21,-0.21 -1.02,-0.7 -1.02,-0.87zm88.61 -19.83c0,-1.34 1.99,-7.79 2.54,-9.27 1.74,-4.67 9.09,-4.15 13.39,-3.67l4.22 0.66c-0.13,0.55 -0.32,1.14 -0.49,1.71 -0.14,0.48 -0.29,1.14 -0.43,1.61l-1.91 6.59c-0.34,1.23 -0.55,2.83 -1.26,2.83 -7.5,0 -6.92,0.55 -6.19,-1.95 0.29,-0.98 1.58,-4.65 1.12,-5.4 -0.99,-1.61 -3.11,0.36 -3.11,4.04 0,3.29 0.13,2.93 3.34,6.1 0.41,0.41 0.63,0.49 1.03,0.86 1.12,1.04 1.88,1.78 2.16,3.51 0.36,2.2 -1.43,8.61 -2.34,10.87 -0.22,0.55 -0.43,0.75 -0.57,1.32 -1.29,-0.03 -0.91,-0.94 -2.2,-0.94l-7.56 0c-3.02,0 -5.31,1.26 -7.71,1.26 0.02,-0.89 2.02,-7.48 2.43,-8.9 0.35,-1.22 0.49,-2.59 1.19,-2.59l6.3 0c0.59,0 0.41,0.26 0.28,0.72l-0.94 3.18c-0.48,1.73 -2.18,5.39 0.03,5.39 2.03,0 2.83,-5.17 2.83,-6.61 0,-3.44 -0.02,-2.11 -3.5,-5.63 -1.89,-1.91 -2.64,-1.89 -2.64,-5.7zm-41.4 -0.16c0,-0.93 0.31,-1.66 0.57,-2.42 0.75,-2.21 1.65,-7.28 3.2,-8.6 4.56,-3.87 16.22,-1.1 16.22,-1.1 0.22,0.23 -0.59,2.78 -0.72,3.22 -0.34,1.17 -0.58,2.16 -0.95,3.3 -0.36,1.11 -0.69,2.25 -0.97,3.28 -0.34,1.27 -0.54,2.96 -1.29,2.96 -7.85,0 -6.97,0.72 -6.04,-2.42 0.22,-0.73 0.37,-1.18 0.56,-1.96 0.25,-1.02 1.3,-3.5 -0.5,-3.5 -1.14,0 -1.44,1.38 -1.67,2.1 -0.75,2.31 -1.18,4.37 0.53,6.28l4.49 4.33c2.45,2.4 0.09,9.01 -0.81,11.71 -0.34,1.04 -0.32,1.73 -1.43,2.03 -0.66,0.18 -5.27,1.26 -5.6,1.17 -1.36,-0.38 0.19,-1.33 -7.31,-1.33 -2.24,0 -3.81,0.83 -4.02,0.4 -0.13,-0.26 2.18,-7.99 2.5,-9.16 0.57,-2.05 -0.09,-1.47 7.5,-1.47 0,0.89 -0.29,1.38 -0.51,2.17 -0.16,0.58 -0.4,1.38 -0.56,1.96 -0.56,2.01 -1.22,3.15 -0.82,4.85 2.37,1.14 3.1,-1.75 3.51,-3.89 0.28,-1.49 0.82,-3.97 -0.24,-5.2 -1,-1.15 -2.15,-2 -3.22,-3.07 -2.47,-2.48 -2.4,-2.77 -2.4,-5.63zm-26.29 18.89c0.09,-1.13 7.21,-25.06 8.03,-28.02 0.32,-1.15 0.77,-3.62 1.42,-3.62 8.21,0 7.52,-0.52 6.87,1.68l-7.66 26.66c-0.16,0.59 -0.42,1.23 -0.47,1.89 2.08,1.39 1.97,-0.38 2.81,-3.01 1.9,-5.95 4.01,-13.67 5.72,-19.78l1.7 -5.86c0.15,-0.57 0.28,-1.57 0.94,-1.57 1.78,0 5.9,-0.19 7.4,0.16 -0.42,1.82 -1.04,3.77 -1.56,5.53l-4.74 16.35c-0.51,1.84 -1.06,3.67 -1.57,5.51 -0.25,0.9 -0.54,1.76 -0.79,2.68 -1.68,6.12 -6.46,5.98 -11.49,5.98 0.25,-1.07 0.79,-1.43 0.16,-2.52 -0.45,-0.78 -1.77,-0.95 -2.64,-1.14l-4.13 -0.91zm-58.24 0.16c0.02,-0.93 0.84,-3.15 1.1,-4.09 0.38,-1.36 0.75,-2.66 1.16,-4.04l5.75 -20.07c0.33,-1.02 0.78,-3.6 1.44,-3.6 2.38,0 11.78,-0.22 13.38,0.16l-1.57 5.51 -5.98 0 -1.87 6.32c-1.01,3.43 -1.37,2.66 4.07,2.66l-1.13 4.38c-0.22,0.85 -0.2,1.15 -1.08,1.28l-1.88 0.01c-0.79,0 -1.57,0 -2.36,0 -0.43,1.86 -2.65,8.57 -2.68,9.76l5.82 0c-0.04,1.89 -0.62,1.8 -2.53,2.19 -0.7,0.14 -1.23,0.26 -1.94,0.42 -2.83,0.62 -1.5,0.46 -4.97,-0.41 -2.08,-0.52 -2.61,-0.47 -4.72,-0.47zm161.81 -34.63c-2.61,0 -5.27,0.46 -7.52,0.98 -0.98,0.23 -2.23,0.44 -3.31,0.62 -0.44,0.07 -1.25,0.17 -1.65,0.24 -0.87,0.17 -0.84,0.36 -1.53,0.52 -0.97,-0.65 -0.83,-0.72 -2.14,-1.01 -4.55,-1.02 -10.22,-1.72 -14.64,-0.03 -0.86,0.33 -1.69,0.76 -2.31,1.31 -0.61,0.55 -1.18,1.55 -1.69,1.93 -0.95,-0.7 -0.49,-1.9 -3.08,-3.06 -4.07,-1.82 -8.98,-1.41 -13,0.05 -2.85,1.04 -3.76,2.78 -4.39,3.01 0,-2.45 0.33,-2.7 -3.21,-3.4 -4.48,-0.89 -10.1,-1.52 -14.37,0.46 -0.79,0.37 -1.14,0.79 -1.78,1.21 -0.27,-0.52 -0.39,-1.11 -0.85,-1.51 -0.43,-0.38 -1.07,-0.53 -1.83,-0.53l-7.08 0c-0.75,0 -1.01,0.31 -1.42,0.31 -0.66,0 -0.75,-0.31 -1.57,-0.31 -1.52,0 -7.16,-0.34 -8.26,0.4 -0.56,0.37 -0.6,0.77 -0.87,1.34 -1.58,-1.06 -3.56,-1.7 -5.55,-2 -4.2,-0.64 -9.39,-0.38 -12.9,1.81 -2.87,1.79 -2.95,3.38 -3.74,3.97 0,-1.79 -0.66,-2.92 -1.41,-3.94 -0.65,-0.89 -2.36,-1.57 -3.94,-1.57l-12.43 0c-0.68,0 -0.63,0.31 -1.1,0.31 -0.84,0 -1.08,-0.31 -2.05,-0.31l-13.22 0c-1.39,0 -1.93,1.51 -2.2,2.68 -0.97,-0.26 -1.02,-1.46 -3.58,-2.08 -3.88,-0.94 -8.72,-0.59 -12.78,-0.59 -1.42,0 -1.91,0.79 -2.24,2.01l-8.78 30.57c-0.15,0.56 -0.28,1.27 -0.44,1.76 -0.34,1.03 -0.53,0.53 -1.07,1.14 -0.41,0.47 -3.69,12.06 -4.07,13.57 -0.17,0.67 -0.28,1.1 -0.46,1.74 -0.23,0.78 -0.95,2.58 0.21,2.89 0,1.34 -2.47,5.67 -0.63,5.67 1.34,0 1.82,-0.35 2.26,-0.39 0.89,-0.08 0.91,0.94 2.92,0.2 1.01,-0.37 0.89,0.19 1.27,0.19 0.74,0 0.98,-0.11 1.44,-0.14 0.74,-0.05 0.94,0.3 1.39,0.3 1.83,0 6.3,-0.03 7.56,-0.63 0.73,0.54 0.11,0.8 1.42,0.49 1.38,-0.32 1.55,0.17 3.48,-0.33 0.85,-0.22 0.47,0.07 1.22,0.34 0.79,0.29 1.8,-0.5 2.85,-0.5 0.87,0 0.09,0.85 1.74,0.5 0.56,-0.12 1.63,-0.5 2.04,-0.5 0.73,0 0.19,0.78 1.98,0.41 4.87,-1.01 2.76,-0.23 4.38,0.15 0.3,0.07 1.71,-0.24 2.46,-0.24 0.98,0 2.19,0.31 3.93,0.31 1.12,0 1.68,-0.47 2.68,-0.47 0.76,0 0.06,0.61 1.46,0.38 0.66,-0.11 1.26,-0.38 1.69,-0.38 0.94,0 0.8,0.46 2.56,0.2 1.05,-0.15 1.85,0.14 2.74,0.32 0.83,0.17 1.98,0.03 2.97,0.18 2.07,0.31 131.7,0.09 145.66,0.09 2.44,0 7.25,-2.21 9.78,-3.13l3.13 -1.28c0,-1.45 -0.83,-1.04 0.26,-1.94 1.55,-1.28 1.81,-3.01 0.88,-4.73 -0.26,-0.48 -0.45,-0.59 -0.1,-0.79 0.33,-0.18 0.9,-0.1 1.32,-0.1 0.69,-1.03 3.62,-10.9 3.62,-12.59 0,-1.06 -0.71,-0.86 -0.94,-1.73 0.85,-0.41 3.46,-0.12 3.46,-1.73 0,-1.19 -1.86,-11.48 -2.26,-12.85 -0.61,-2.09 -1.92,-0.32 -2.15,-3.05 1.31,-0.63 2.2,-0.45 2.2,-2.2 0,-1.02 -1.2,-1.69 -2.05,-1.89 0,-1.04 0.31,-1.27 0.31,-2.2 0,-1.72 -0.66,-1.14 -1.57,-1.57 0.21,-0.79 0.73,-0.64 0.86,-1.3 0.14,-0.7 -0.8,-4.99 -0.95,-6.01 -0.23,-1.5 -0.39,-2.64 -0.73,-4 -0.92,-3.72 -1.69,-3.14 -5.89,-2.17 -1.2,0.28 -2.34,0.45 -3.59,0.66 -7.88,1.3 -10.52,4.77 -11.68,5.15 -0.37,0.12 -2.57,-0.58 -3.32,-0.72 -1.09,-0.21 -2.45,-0.43 -3.82,-0.43z"/>
   <path class="fil1" d="M197.9 21.76c0,-0.67 0.16,-2.4 0.32,-2.84 0.09,-0.25 -0.3,-0.25 0.35,-0.4 0.5,-0.12 0.76,0.63 1.03,1.07 0.47,0.75 0.68,1.01 1.05,1.95 0.66,1.69 0.9,5.15 0.09,6.84 -0.6,-0.05 -0.52,-0.07 -0.8,-0.46l-1.18 -2.12c-0.52,-1.24 -0.85,-2.49 -0.85,-4.03zm-9.44 -14.64c-1.47,0 -10.76,1.65 -11.8,2.2 0.72,3.09 1.22,6.52 1.85,9.64 0.34,1.68 0.63,3.18 0.92,4.91 0.28,1.68 0.5,3.43 0.85,4.97 1.13,0 2.56,-0.35 3.69,-0.56 0.64,-0.12 1.07,-0.19 1.73,-0.31 2.23,-0.41 1.79,0.09 1.19,-3.53 -0.26,-1.59 -1.57,-8.32 -1.57,-9.29 1.38,-0.32 1.61,-0.45 3.31,-0.47 0.81,-0.01 0.94,-0.16 1.63,-0.08 0.69,0.08 1.26,0.07 1.98,0.07 -0.05,0.64 -0.28,1.02 -0.49,1.55 -2.08,5.07 -1.19,11.45 2.25,15.74l1.87 2.22c-0.54,0.81 -3.3,1.68 -4.5,1.95 -2.48,0.56 -2.14,0.95 -2.65,-1.89 -0.54,-3.06 -0.02,-2.68 -4.09,-1.86 -1.21,0.24 -2.28,0.43 -3.4,0.7 0,1.49 2.02,10.67 2.05,11.81 1.15,0 1.8,-0.16 2.79,-0.36 0.82,-0.16 1.75,-0.28 2.66,-0.49 4.19,-0.97 8.22,-1.72 11.64,-4.41 2.27,-1.78 1.45,-1.49 3.56,-0.91 0.66,0.18 1.07,0.27 1.79,0.41 3.87,0.78 7.14,0.37 10.91,-0.4 7.23,-1.46 6.08,-0.42 5.33,-4.35l-1.69 -8.7c-0.33,0 -7.08,0.95 -7.08,1.42 0,1.24 1,3.67 0.63,4.56 -0.33,0.35 -5.17,0.69 -6.77,0.31 0.06,-0.69 0.28,-0.98 0.49,-1.55 1.13,-3.1 1.38,-6.11 0.64,-9.34 -0.46,-2.04 -1.57,-4.38 -2.8,-6.01 -0.74,-0.98 -1.84,-2.02 -1.96,-2.45 0.48,-0.71 1.91,-1.19 2.89,-1.51 4.32,-1.43 3.75,-1.03 4.07,0.69 0.09,0.49 0.27,1.29 0.27,1.93 0.67,0.14 2.53,-0.36 3.4,-0.54 1.13,-0.23 2.65,-0.64 3.69,-0.72l-0.88 -5.26c-0.16,-0.98 -0.25,-1.73 -0.45,-2.7 -0.18,-0.88 -0.49,-1.7 -0.56,-2.59 -1.4,0 -5.94,0.99 -7.52,1.3 -2.93,0.58 -4.1,0.98 -6.7,2.27 -1.04,0.51 -1.84,1.04 -2.75,1.66 -1.62,1.1 -1.55,1.73 -2.76,1.3 -2.26,-0.79 -4.69,-1.33 -7.66,-1.33z"/>
   <g>
    <path class="fil1" d="M58.61 64.89l142.92 0c3.15,0 7.98,-2.14 11.16,-3.17 0.66,-0.21 1.09,-0.21 1.28,-0.93l-107.19 0.16c-2.08,0 -3.58,-0.16 -5.67,-0.16l-17.16 0c-0.9,0 -1.95,-0.05 -2.83,-0 -0.7,0.04 -0.6,0.17 -1.23,0.14 -3.17,-0.19 -11.07,-0.37 -14.15,0.06 -0.69,0.1 -6.69,2.28 -7.17,2.75 -0.29,0.28 -0.78,1.15 0.05,1.15z"/>
    <path class="fil2" d="M85.99 39.86l4.13 0.91c0.87,0.18 2.19,0.36 2.64,1.14 0.62,1.09 0.09,1.45 -0.16,2.52 5.03,0 9.81,0.14 11.49,-5.98 0.25,-0.91 0.54,-1.78 0.79,-2.68 0.51,-1.84 1.06,-3.67 1.57,-5.51l4.74 -16.35c0.51,-1.76 1.13,-3.71 1.56,-5.53 -1.49,-0.35 -5.61,-0.16 -7.4,-0.16 -0.66,0 -0.79,1 -0.94,1.57l-1.7 5.86c-1.71,6.11 -3.82,13.83 -5.72,19.78 -0.84,2.63 -0.73,4.41 -2.81,3.01 0.05,-0.66 0.31,-1.3 0.47,-1.89l7.66 -26.66c0.65,-2.19 1.34,-1.68 -6.87,-1.68 -0.65,0 -1.1,2.47 -1.42,3.62 -0.82,2.96 -7.93,26.89 -8.03,28.02z"/>
    <path class="fil2" d="M65.06 40.96c0,0.17 0.81,0.66 1.02,0.87 0.49,0.49 0.39,0.77 0.39,1.65 1.91,1.28 5.63,1.1 8.03,1.1 1.26,0 1.23,-0.46 1.5,-1.02 0.97,-2.04 2.79,-2.77 4.92,-3.26 1.6,-0.37 1.63,0 2.06,-1.56l2.38 -8.48c0.13,-0.5 0.21,-0.84 0.38,-1.37 0.18,-0.56 0.48,-1.15 -0.22,-1.15 -7.84,0 -6.97,-0.55 -7.5,1.32 -0.17,0.59 -0.35,1.04 -0.5,1.55 -0.3,1.08 -1.98,7.43 -2.48,7.91 -0.55,0.53 -0.99,0.3 -1.65,0.24 0,-1.35 0.36,-2.13 0.68,-3.25l4.53 -15.94c0.69,-2.36 0.96,-4.87 2.5,-5.69 1.07,0.57 1.06,0.42 0.7,1.79 -0.23,0.87 -0.36,1.54 -0.64,2.36 -0.39,1.15 -1.22,3.64 -1.32,4.82l7.24 0.19c0.49,-0.01 1.08,-2.53 1.26,-3.18 0.34,-1.22 2.93,-9.93 2.99,-10.7 -4.31,-2.07 -14.37,-2.37 -17.66,2.02 -1.1,1.47 -4.69,14.82 -5.45,17.54l-2.57 8.92c-0.26,0.88 -0.61,2.17 -0.61,3.32z"/>
    <path class="fil2" d="M141.4 18.29c0.28,-1 0.59,-2.25 0.92,-3.18 0.56,-1.57 2.07,-1.39 2.07,-0.45 0,0.89 -3.25,12.04 -3.57,13.12 -0.64,2.22 -1.21,4.25 -1.85,6.49 -0.18,0.63 -0.3,0.9 -0.47,1.58 -0.98,3.97 -2.61,2.41 -2.61,1.64l5.51 -19.2zm-13.85 22.98c0.64,-0.05 1.31,-0.26 1.96,-0.41 0.77,-0.17 1.18,-0.26 1.94,-0.42 0.35,-0.07 1.58,-0.41 1.92,-0.38 0.96,0.09 0.75,0.89 1.43,0.89 0.98,0 1.09,-0.94 5.82,-0.94 1.63,0 2.64,0.16 4.25,0.16 0.39,-0.74 5.68,-19.46 6.2,-21.19 0.48,-1.62 1.83,-5.99 1.83,-7.46 0,-3.46 -5.54,-3.78 -8.18,-3.78 -2.9,0 -7.11,1.25 -8.82,3.77 -0.76,1.12 -2.57,7.89 -3.08,9.67l-4.19 14.7c-0.48,1.71 -1.07,3.09 -1.07,5.39z"/>
    <path class="fil2" d="M56.56 22.86c0,-1.08 0.97,-3.99 1.32,-5.14 0.36,-1.22 0.91,-3.87 1.52,-4.78 0.6,0.14 0.88,0.35 1.17,0.88 0.48,0.87 -0.52,3.55 -0.8,4.52 -0.53,1.81 -0.84,4.31 -3.2,4.51zm-12.43 17.16c6.52,0 5,1.57 6.77,2.05 0.26,-1.12 0.66,-2.27 1,-3.41l2.43 -8.59c0.18,-0.66 0.37,-1.09 0.51,-1.7 2.52,0 1.39,2.03 0.91,3.74 -0.23,0.84 -0.51,1.78 -0.77,2.69l-1.56 5.53c1.19,0 2.24,-0.32 3.62,-0.32 1.31,0.01 2.62,0 3.94,0 0.65,-1.35 3.01,-9.78 2.94,-11.14 -0.02,-0.4 -0.2,-1.54 -0.37,-1.97 -0.25,-0.64 -0.66,-0.88 -0.84,-1.52 1.27,-0.67 2.03,-0.66 2.76,-2.12 1.15,-2.32 3.38,-9.08 3.38,-11.57 0,-4.02 -3.41,-3.46 -6.14,-3.46 -3.2,0 -6.4,0 -9.6,0l-3.39 11.72c-0.64,2.24 -5.58,18.56 -5.58,20.08z"/>
    <path class="fil2" d="M112.28 20.97c0,2.85 -0.07,3.15 2.4,5.63 1.07,1.08 2.23,1.92 3.22,3.07 1.06,1.22 0.53,3.7 0.24,5.2 -0.41,2.15 -1.13,5.03 -3.51,3.89 -0.4,-1.7 0.26,-2.84 0.82,-4.85 0.16,-0.58 0.4,-1.38 0.56,-1.96 0.22,-0.79 0.51,-1.28 0.51,-2.17 -7.59,0 -6.93,-0.58 -7.5,1.47 -0.33,1.16 -2.63,8.9 -2.5,9.16 0.21,0.43 1.79,-0.4 4.02,-0.4 7.51,0 5.95,0.96 7.31,1.33 0.34,0.09 4.95,-0.98 5.6,-1.17 1.11,-0.31 1.08,-1 1.43,-2.03 0.9,-2.7 3.26,-9.32 0.81,-11.71l-4.49 -4.33c-1.71,-1.91 -1.28,-3.97 -0.53,-6.28 0.23,-0.72 0.53,-2.1 1.67,-2.1 1.8,0 0.76,2.47 0.5,3.5 -0.19,0.78 -0.34,1.23 -0.56,1.96 -0.93,3.14 -1.82,2.42 6.04,2.42 0.75,0 0.95,-1.69 1.29,-2.96 0.28,-1.03 0.61,-2.17 0.97,-3.28 0.37,-1.14 0.62,-2.12 0.95,-3.3 0.13,-0.44 0.94,-2.98 0.72,-3.22 -0,-0 -11.65,-2.77 -16.22,1.1 -1.55,1.32 -2.46,6.39 -3.2,8.6 -0.26,0.76 -0.57,1.49 -0.57,2.42z"/>
    <path class="fil2" d="M153.67 21.13c0,3.81 0.75,3.79 2.64,5.7 3.48,3.52 3.5,2.19 3.5,5.63 0,1.44 -0.8,6.61 -2.83,6.61 -2.22,0 -0.52,-3.65 -0.03,-5.39l0.94 -3.18c0.13,-0.45 0.3,-0.72 -0.28,-0.72l-6.3 0c-0.7,0 -0.84,1.36 -1.19,2.59 -0.41,1.42 -2.41,8.01 -2.43,8.9 2.41,0 4.69,-1.26 7.71,-1.26l7.56 0c1.29,0 0.92,0.92 2.2,0.94 0.13,-0.57 0.34,-0.77 0.57,-1.32 0.91,-2.26 2.7,-8.67 2.34,-10.87 -0.28,-1.73 -1.04,-2.47 -2.16,-3.51 -0.4,-0.37 -0.62,-0.46 -1.03,-0.86 -3.21,-3.18 -3.34,-2.81 -3.34,-6.1 0,-3.68 2.12,-5.65 3.11,-4.04 0.46,0.75 -0.83,4.42 -1.12,5.4 -0.73,2.5 -1.31,1.95 6.19,1.95 0.71,0 0.92,-1.6 1.26,-2.83l1.91 -6.59c0.15,-0.47 0.29,-1.14 0.43,-1.61 0.17,-0.57 0.36,-1.16 0.49,-1.71l-4.22 -0.66c-4.3,-0.49 -11.64,-1 -13.39,3.67 -0.55,1.48 -2.54,7.93 -2.54,9.27z"/>
    <path class="fil2" d="M21.46 22.7c0,-0.73 0.45,-1.98 0.65,-2.66l1.42 -4.88c0.22,-0.7 0.37,-1.82 0.93,-2.22 0.44,0.12 0.55,0.24 0.82,0.59 0.15,0.19 0.44,0.58 0.44,0.82 0,0.53 -1.51,6.47 -2.33,7.59 -0.5,0.69 -1.92,1.36 -1.92,0.76zm-5.04 17.32c0.05,-0.55 0.39,-1.54 0.57,-2.11l2.42 -8.45c0.3,-1.17 0.29,-1.12 1.73,-1.1 1.8,0.03 3.53,-0.13 4.77,-0.74l1.64 -1.04c3.68,-3.01 4.12,-6.31 5.4,-11.13 1.02,-3.84 0.78,-6.25 -3.86,-7 -1.27,-0.21 -8.74,-0.24 -10.62,-0.24 -0.62,0 -0.93,1.58 -1.07,2.08 -0.25,0.89 -0.45,1.57 -0.7,2.45l-1.4 4.89c-0.5,1.56 -0.9,3.26 -1.42,4.88 -0.5,1.56 -0.9,3.26 -1.42,4.88 -1.19,3.72 -2.32,8.2 -3.55,12.21 -0.36,1.18 -0.2,1.09 1.4,0.75 2.04,-0.43 3.69,-0.35 6.1,-0.35z"/>
    <path class="fil2" d="M27.76 40.02c2.12,0 2.64,-0.05 4.72,0.47 3.46,0.87 2.14,1.03 4.97,0.41 0.71,-0.16 1.25,-0.27 1.94,-0.42 1.91,-0.39 2.49,-0.3 2.53,-2.19l-5.82 0c0.03,-1.18 2.24,-7.9 2.68,-9.76 0.79,0 1.57,0 2.36,0l1.88 -0.01c0.88,-0.13 0.86,-0.43 1.08,-1.28l1.13 -4.38c-5.45,0 -5.08,0.77 -4.07,-2.66l1.87 -6.32 5.98 0 1.57 -5.51c-1.6,-0.37 -11,-0.16 -13.38,-0.16 -0.66,0 -1.11,2.58 -1.44,3.6l-5.75 20.07c-0.41,1.38 -0.78,2.67 -1.16,4.04 -0.26,0.94 -1.08,3.16 -1.1,4.09z"/>
    <path class="fil2" d="M38.77 50.41c0.21,-0.92 0.52,-1.87 0.75,-2.71 0.24,-0.85 0.49,-1.95 0.82,-2.64l4.41 0c-0.09,1.13 -0.69,2.33 -0.79,3.46l-3.78 0c-0.78,1.16 -0.76,1.71 -1.42,1.89zm-6.77 8.03c1.03,0 4.24,-0.48 4.58,-0.77 0.35,-0.29 0.92,-3.12 1.24,-3.79 0.37,0.27 2.58,4.03 3.15,4.88 0.79,-0.18 4.51,-1.38 5.04,-1.73 -0.45,-0.84 -0.96,-1.61 -1.47,-2.47 -0.39,-0.66 -1.3,-1.82 -1.37,-2.57 0.67,-0.32 2.16,-0.2 3.85,-1.35 1.41,-0.96 1.84,-3.34 2.45,-5.58 0.3,-1.07 0.44,-1.07 -0.17,-1.87 -1.47,-1.92 -3.24,-1.59 -5.97,-1.59 -2.35,0 -3.97,0.55 -5.92,1 -1.4,0.33 -1.25,0.58 -1.6,1.86 -0.27,0.99 -0.55,1.9 -0.79,2.83 -0.41,1.61 -3.02,9.88 -3.02,11.14z"/>
    <path class="fil2" d="M25.4 44.9c0.83,0.4 3.23,0.16 4.41,0.16 -0.03,0.35 -0.82,3.2 -0.94,3.46l-3.62 0c-0.34,0.64 -0.85,1.7 -1.57,1.89l1.73 -5.51zm-2.05 7.08l4.41 0c-0.09,1.08 -1.75,5.9 -1.66,6.31 0.12,0.55 2.1,-0.09 3.12,-0.29 2.43,-0.48 1.67,-0.36 3.05,-5.13 0.33,-1.14 0.58,-2.03 0.91,-3.18l1.82 -6.36c0,-0.92 -5.18,-1.73 -5.82,-1.73 -1.94,0 -4.36,-0.06 -5.95,0.66 -2.8,1.24 -2.66,3.76 -3.67,6.72 -0.81,2.38 -1.78,6.76 -2.63,9.06 -0.28,0.76 -0.74,0.82 2.24,0.16 2.73,-0.61 2.44,-0.09 3.03,-2.17 0.39,-1.36 0.85,-2.73 1.16,-4.04z"/>
    <path class="fil2" d="M55.14 48.52c-0.22,0.32 -0.31,0.49 -0.54,0.88 -0.68,1.16 -1.3,2.03 -0.65,-0.18l1.19 -4.16c5.97,0 4.59,-0.72 3.62,3.46l-3.62 0zm-8.34 9.92c0.86,0 2.15,-0.19 2.95,-0.35 2.43,-0.5 1.54,0.1 2.81,-3.8 0.89,-2.73 -0.19,-2.3 4.62,-2.3 0.74,0 0.33,0.79 0.19,1.29l-1.45 5.16c1.06,0 4.54,-0.3 4.93,-1.2l0.66 -2.33c0.43,-1.51 3.35,-11.18 3.37,-12.05 -3.51,-0.82 -3.27,-1.26 -7.71,-1.26 -2.27,0 -4.04,0.4 -5.31,1.46 -1.37,1.15 -1.59,2.7 -2.12,4.65 -0.47,1.72 -0.96,3.48 -1.49,5.28 -0.32,1.1 -1.47,4.68 -1.47,5.45z"/>
    <path class="fil2" d="M78.91 55.29c0.02,-0.75 0.46,-2.06 0.69,-2.77l1.46 -5.15c0.41,-1.38 0.43,-2.3 1,-2.3 4.6,0 4.29,-0.32 3.85,1.32l-3.06 10.96c-0.59,-0.43 -0.47,-1.18 -0.47,-2.05l-3.46 0zm-5.35 2.2c2.63,1.39 6.59,1.26 9.6,1.26 1.27,0 3.45,-1.2 4.05,-1.93 0.79,-0.96 3.84,-12.06 4.29,-13.97 -2.7,-1.3 -5.82,-1.26 -8.81,-1.26 -2.76,0 -4.84,1.33 -5.65,3.64l-3.48 12.26z"/>
    <path class="fil2" d="M102.05 50.56c0,0.52 4.07,1.26 5.04,1.26l3.46 0c0,0.71 -0.4,3.46 -1.1,3.46l-4.09 0c0.04,-1.97 1.86,-1.73 -3.78,-1.73 -0.55,0 -2.26,3.26 0.21,4.67 1.84,1.04 7.09,0.45 9.06,0.05 3.46,-0.72 2.75,0.09 3.95,-4.24 0.89,-3.2 1.4,-3.44 -0.49,-4.86 -1.55,-1.16 -2.83,-0.81 -5.49,-0.81 -0.73,0 -0.81,0.35 -1.11,0.78 -0.26,0.39 -0.55,0.85 -0.94,1.11 0.02,-0.78 0.47,-1.88 0.69,-2.62 0.28,-0.93 0.52,-1.67 0.73,-2.58l4.25 0c0,2.04 -1.31,1.73 3.78,1.73 0.42,0 0.43,-0.08 0.79,-0.16 0.14,-1.68 1.37,-3.04 -0.79,-4.41 -2.26,-1.43 -8.36,-0.31 -10.86,0.31 -1.64,0.41 -1.32,0.76 -2.38,4.39 -0.22,0.75 -0.93,2.85 -0.93,3.64z"/>
    <path class="fil2" d="M161.7 50.72c0.6,0.29 4.1,1.1 5.04,1.1l3.62 0c0,0.88 -0.26,1.44 -0.44,2.08 -0.46,1.71 -0.15,1.38 -4.29,1.38 -1.29,0 0.58,-1.73 -0.63,-1.73l-3.78 0c-0.4,0 -2.36,2.88 0.18,4.54 2.33,1.53 11.26,0.16 12.06,-0.64 0.45,-0.45 1.77,-5.61 1.77,-6.89 0,-0.25 -0.35,-0.72 -0.51,-0.91 -1.41,-1.64 -4,-1.3 -6.26,-1.3 -1.16,0 -1.08,1.3 -1.89,1.89 0,-0.85 0.73,-3 1.04,-4.15 0.39,-1.41 0.05,-1.04 4.62,-1.04 0,2.01 -1.42,1.73 3.94,1.73 0.76,0 1.1,-2.6 1.1,-2.83 0,-0.64 -0.86,-1.51 -1.36,-1.79 -2.16,-1.21 -11.61,-0.16 -12.17,1.01l-2.06 7.54z"/>
    <path class="fil2" d="M194.75 55.29c0.02,-0.69 2.13,-7.79 2.53,-9.28 0.13,-0.49 0.06,-0.96 0.62,-0.96 5.53,0 4.37,-0.6 3.37,2.9 -0.33,1.17 -0.6,2.02 -0.92,3.17 -0.3,1.08 -1.34,5.74 -1.98,6.21 0,-0.96 -0.16,-1.15 -0.16,-2.05l-3.46 0zm-5.19 2.05c0,0.56 0.49,0.5 0.97,0.6 4.79,1.08 2.16,0.81 8,0.81 1.81,0 3.45,-0.85 4.38,-1.76 0.66,-0.65 0.73,-0.97 1.01,-1.98 0.21,-0.76 0.44,-1.59 0.7,-2.45 0.45,-1.5 2.57,-8.38 2.57,-9.86 -1.42,-0.03 -2.67,-1.1 -5.98,-1.1 -1.06,0 -1.7,0.54 -2.37,0.94 -1.11,0.65 -3.64,1.57 -4.97,1.95 -1.05,0.3 -1.09,1.01 -1.39,2.08 -0.25,0.88 -2.92,10.17 -2.92,10.77z"/>
    <path class="fil2" d="M115.27 56.23c0,3.03 4.71,2.52 6.77,2.52 1.41,0 4.61,-0.61 5.93,-1 0.67,-0.2 0.65,-0.31 0.83,-0.9l4.26 -15.26 -4.84 1.3c-0.39,0.36 -3.44,11.66 -3.81,13.19 -0.16,0.68 -0.05,0.78 -0.64,0.94l0 -1.73c-2.11,-0.51 -3.8,0.72 -3.52,-0.65l1.57 -5.4c0.43,-1.51 0.78,-2.82 1.2,-4.31 0.96,-3.41 1.28,-3.52 -0.09,-3.1 -5,1.51 -3.33,-0.98 -5.9,7.81l-1.75 6.59z"/>
    <path class="fil2" d="M145.17 56.23c0,1.44 1.76,2.52 3.31,2.52l9.29 0c0.65,0 1.21,-2.81 1.26,-3.46l-7.56 0.01c-2.03,0.03 -1.4,-0.06 -0.88,-1.84 0.64,-2.19 -0.38,-1.63 7.18,-1.63 0.23,-0.48 0.39,-1.18 0.56,-1.8 0.61,-2.11 1.14,-1.66 -5.13,-1.66 -0.43,0 -0.62,0.52 -0.85,0.88 -0.28,0.46 -0.33,0.7 -0.88,0.85 0.22,-0.95 1.17,-4.28 1.57,-5.04l8.97 0c0.25,-1.06 0.92,-2.3 0.94,-3.46 -6.45,0 -6.61,-0.4 -12.66,0.88 -2.02,0.43 -1.26,0.22 -2.43,3.87 -0.36,1.11 -2.7,9.29 -2.7,9.9z"/>
    <path class="fil2" d="M129.91 57.49c2.65,1.4 6.18,1.26 9.13,1.26 2.23,0 4.7,-1.24 5.23,-3.27 0.08,-0.31 0.21,-0.78 0.3,-1.15 0.26,-1.1 -0.03,-0.77 -3.96,-0.77 -0.67,0 -0.73,0.93 -0.79,1.57 -1.27,0.3 -2.77,0.16 -4.09,0.16 -0.84,0 -0.25,-1.16 0.14,-2.38 0.28,-0.88 0.54,-1.86 0.77,-2.69 0.27,-0.96 0.48,-1.72 0.77,-2.7 0.86,-2.98 0.05,-2.46 4.62,-2.46 0.82,0 0.22,0.86 0.16,1.57 4.67,0 4.38,0.96 5.07,-1.54 0.15,-0.55 0.54,-1.63 0.6,-2.24 -5,-1.16 -2.89,-1.26 -8.5,-1.26 -5.12,0 -5.73,2.68 -6.67,5.93l-2.06 7.39c-0.24,0.86 -0.65,1.68 -0.72,2.58z"/>
    <path class="fil2" d="M9.5 50.41c0,-0.88 0.46,-2.08 0.7,-2.92 0.88,-3.1 -0.26,-2.43 5.13,-2.43 -0.02,0.86 -0.63,2.86 -0.94,3.46 -0.69,0 -2.9,-0.12 -3.39,0.07 -0.6,0.24 -0.75,1.32 -1.49,1.82zm-7.08 8.34c0.52,-0.04 4.56,-0.95 4.88,-1.1 0.32,-0.32 1.34,-5.01 1.73,-5.82 2.26,0 6.79,0.84 9.1,-1.61 1.07,-1.13 2.08,-5.39 2.08,-6.42 0,-1.17 -2.19,-2.2 -3.62,-2.2 -3.31,0 -4.86,0.08 -7.87,0.79 -1.67,0.39 -1.63,-0.01 -2.15,1.63 -0.41,1.3 -4.13,14.11 -4.15,14.74z"/>
    <path class="fil2" d="M176.65 50.56c0,0.52 5.21,1.42 5.98,1.42 0.9,0 1.04,-0.14 1.75,-0.17 1.01,-0.04 0.93,0.09 0.72,0.88 -0.85,3.15 0.22,2.59 -4.68,2.59 -0.53,0 -0.47,-0.29 -0.38,-0.65 0.14,-0.55 0.22,-0.15 0.22,-1.08 -4.84,0 -4.45,-0.38 -4.87,1.12 -0.39,1.39 -0.71,2.15 0.81,3.41 1.43,1.19 7.3,0.65 9,0.27 0.78,-0.18 2.83,-0.48 3.18,-0.91 0.23,-0.29 1.79,-5.88 1.79,-6.55 0,-1.34 -2.13,-2.52 -3.62,-2.52l-3.31 0c-0.67,0 -1.19,1.42 -1.89,1.89 0.06,-0.74 0.83,-3.04 1.1,-3.62 -0.55,-0.82 -0.6,-0.58 -0.81,-1.86 -0.11,-0.71 -0.28,-1.66 -0.45,-2.39 -2.88,0 -2.64,1.05 -3.22,3.08 -0.25,0.88 -0.48,1.66 -0.69,2.46 -0.21,0.83 -0.66,1.77 -0.66,2.64z"/>
    <path class="fil0" d="M135.89 37.5c0,0.77 1.63,2.33 2.61,-1.64 0.17,-0.68 0.29,-0.95 0.47,-1.58 0.64,-2.24 1.21,-4.27 1.85,-6.49 0.31,-1.08 3.57,-12.23 3.57,-13.12 0,-0.95 -1.52,-1.13 -2.07,0.45 -0.33,0.92 -0.64,2.17 -0.92,3.18l-5.51 19.2z"/>
    <path class="fil2" d="M208.61 42.69l-2.33 8.06c-0.25,0.91 -0.66,1.77 -0.66,2.8 1.1,-0.09 2.89,-0.57 4.04,-0.84 1.26,-0.3 0.97,-0.77 1.68,-3.2 0.3,-1.04 1.97,-6.91 1.99,-7.93 -1.2,0.28 -3.66,1.08 -4.72,1.1z"/>
    <path class="fil2" d="M212.07 53.55c1.1,-0.09 2.88,-0.57 4.04,-0.84 1.35,-0.32 0.89,-0.48 1.73,-3.31 0.4,-1.33 0.77,-2.65 1.12,-3.91 1.42,-5.1 2.07,-3.85 -2.79,-2.95 -1.35,0.25 -1.01,0.04 -1.92,3.12l-2.18 7.89z"/>
    <path class="fil0" d="M78.91 55.29l3.46 0c0,0.87 -0.12,1.62 0.47,2.05l3.06 -10.96c0.45,-1.64 0.75,-1.32 -3.85,-1.32 -0.57,0 -0.59,0.93 -1,2.3l-1.46 5.15c-0.23,0.71 -0.67,2.02 -0.69,2.77z"/>
    <path class="fil0" d="M194.75 55.29l3.46 0c0,0.9 0.16,1.09 0.16,2.05 0.64,-0.47 1.67,-5.13 1.98,-6.21 0.33,-1.15 0.59,-2.01 0.92,-3.17 1,-3.5 2.16,-2.9 -3.37,-2.9 -0.55,0 -0.48,0.46 -0.62,0.96 -0.4,1.49 -2.52,8.59 -2.53,9.28z"/>
    <path class="fil1" d="M43.5 63.63c-1.14,0 -1.31,-0.16 -2.05,-0.16 0.02,-1.09 1.18,-3.1 1.26,-4.09 -2.74,0 -1.62,1.22 -3.31,4.72 1.71,0.82 5.64,1.02 6.21,-0.56 1.07,-2.96 0.33,-3.55 2.45,-3.06 -0.01,0.67 -0.36,1.3 -0.57,1.95 -0.25,0.76 -0.53,1.12 -0.53,1.99l0.79 0c2.12,0 1.17,-4.09 2.83,-4.09 0.42,0 0.43,0.07 0.79,0.16 -0.03,1.26 -2.48,5.3 0.16,3.78 0.53,-0.3 0.69,-0.63 0.88,-1.33 0.3,-1.08 0.69,-2.31 0.69,-3.56 -1.81,0 -6.12,-0.25 -7.34,0.06 -0.54,0.14 -0.66,0.32 -0.84,0.74 -0.54,1.31 -0.71,3.45 -1.43,3.45z"/>
    <path class="fil1" d="M213.8 17.98c-0.85,-0.2 -1.32,-0.54 -2.36,-0.63 0.38,1.62 2.75,1.81 1.27,3 -0.76,0.62 -2.15,1.41 -0.8,1.41 1.08,0 1.43,-0.32 2.2,-0.16 0.22,0.96 0.16,1.97 0.16,3.15 0.81,-0.6 0.8,-1.71 1.73,-2.52 1.25,0.66 1.21,1.47 2.52,1.57 -0.31,-1.34 -2,-2.78 -0.02,-3.17 0.47,-0.09 0.96,-0.18 1.44,-0.29 -0.07,-0.78 -0.44,-0.72 -1.12,-0.93 -0.69,-0.21 -1.4,-0.34 -1.25,-1.04 0.19,-0.88 0.93,-1.03 0.96,-2.44 -0.84,0.22 -1.54,1.13 -2.2,1.57 -1.1,-0.73 -0.95,-2.05 -1.89,-2.68 0,1.6 0.03,2.16 -0.63,3.15z"/>
    <path class="fil1" d="M1 64.42c1.84,0 1.81,-0.08 2.22,-1.55 0.76,-2.68 0.66,-2.74 2.18,-2.38 0,1.67 -1.1,2.63 -1.1,4.09 2.08,-0.05 1.87,-0.72 2.25,-1.69 0.57,-1.48 0.47,-2.56 1.68,-2.56 1.49,0 -0.63,2.37 -0.63,4.25 1.74,0 1.59,-0.42 2.09,-1.69 1.59,-4 1.38,-3.67 -3.51,-3.67 -4.47,0 -3.71,0.67 -4.54,3.17 -0.18,0.55 -0.61,1.52 -0.65,2.03z"/>
    <path class="fil1" d="M38.62 36.08c0,0.58 2.87,0.31 4.09,0.31 0.57,0 0.52,-0.63 0.82,-1.7l1.16 -3.92c0.1,-0.59 0.46,-0.76 -1.61,-0.47 -0.59,0.08 -1.82,0.01 -2.4,0.12 -0.53,0.09 -0.49,0.14 -0.65,0.61 -0.1,0.31 -0.19,0.69 -0.28,0.98 -0.19,0.61 -1.12,3.64 -1.12,4.07z"/>
    <path class="fil1" d="M43.02 20.97c3.72,0 2.37,-0.1 3.93,0.94 0.72,-1.07 1.89,-5.16 1.89,-6.14 -4.95,0 -4.37,-0.61 -5.1,2.3 -0.21,0.85 -0.71,2.11 -0.72,2.9z"/>
    <path class="fil0" d="M197.9 21.76c0,1.54 0.33,2.79 0.85,4.03l1.18 2.12c0.29,0.39 0.2,0.41 0.8,0.46 0.81,-1.69 0.58,-5.15 -0.09,-6.84 -0.37,-0.93 -0.58,-1.19 -1.05,-1.95 -0.27,-0.44 -0.53,-1.19 -1.03,-1.07 -0.65,0.15 -0.26,0.15 -0.35,0.4 -0.17,0.44 -0.32,2.17 -0.32,2.84z"/>
    <path class="fil1" d="M11.86 63.63c0,-0.94 0.28,-1.25 0.53,-1.99 0.26,-0.77 0.22,-1.32 1.2,-1.32 1.22,0 0.75,0.61 0.27,1.84 -0.54,1.39 -0.11,1.46 -2,1.46zm-2.05 1.1c1.29,0 4.15,-0.01 4.82,-0.53 0.3,-0.23 1.48,-3.46 1.48,-4.03 0,-0.91 -0.68,-0.74 -1.56,-0.8 -3.28,-0.21 -2.96,-1.03 -4.3,3.76 -0.14,0.49 -0.39,1.02 -0.44,1.61z"/>
    <path class="fil1" d="M23.35 61.58c-0.09,-0.44 -0.18,-0.55 0.18,-0.91 0.6,-0.6 1.19,-0.38 1.7,-0.04 -0.14,0.59 -0.12,0.58 -0.64,0.78 -0.38,0.15 -0.71,0.16 -1.25,0.16zm-2.68 2.99c1.06,-0.02 1.82,-0.41 2.05,-1.26l0.31 0c0.42,1.58 2.12,1.31 2.68,0.47 -0.38,-0.57 -0.79,-0.42 -0.79,-0.94 0,-0.74 0.86,-0.39 1.37,-0.83 0.01,-0.01 2.85,-3.52 -3.25,-2.62 -1.16,0.17 -1.18,1.6 -1.81,3.23 -0.25,0.63 -0.55,1.18 -0.56,1.96z"/>
    <path class="fil1" d="M53.1 61.58c0,0.86 2.12,1.03 2.99,1.1 -0.04,1.81 -1.06,0.47 -2.99,0.47 -0.71,0 -1.7,1.57 2.52,1.57 1.52,0 1.41,-0.22 2.16,-1.79 0.41,-0.85 0.45,-1.1 -0.75,-1.36l-1.89 -0.16c0,-2.41 1.66,-0.12 3.31,-0.47 0.71,-1.48 0.06,-1.73 -2.05,-1.73 -1.01,0 -2.18,0.09 -2.63,0.83l-0.67 1.53z"/>
    <path class="fil1" d="M17.84 61.58c0.04,-1.61 1.11,-1.28 1.89,-1.1 -0.01,0.64 -0.09,0.68 -0.31,1.1l-1.57 0zm-2.2 2.83c2.5,0 0.66,-1.89 2.83,-1.89 1.02,0 0.02,1.04 0,2.05 1.94,-0.45 1.55,0.06 2.18,-1.75 0.27,-0.77 0.89,-2.13 0.96,-2.97 -1.23,-0.83 -3.06,-0.81 -4.3,-0.21 -1.01,0.49 -1.16,1.75 -1.66,3.22 -0.2,0.61 -0.79,1.55 -0.02,1.55z"/>
    <path class="fil0" d="M21.46 22.7c0,0.61 1.41,-0.07 1.92,-0.76 0.82,-1.11 2.33,-7.05 2.33,-7.59 0,-0.24 -0.29,-0.64 -0.44,-0.82 -0.28,-0.35 -0.38,-0.48 -0.82,-0.59 -0.56,0.41 -0.7,1.53 -0.93,2.22l-1.42 4.88c-0.2,0.68 -0.65,1.93 -0.65,2.66z"/>
    <path class="fil0" d="M56.56 22.86c2.37,-0.2 2.68,-2.7 3.2,-4.51 0.28,-0.98 1.28,-3.65 0.8,-4.52 -0.29,-0.53 -0.57,-0.74 -1.17,-0.88 -0.61,0.91 -1.15,3.56 -1.52,4.78 -0.34,1.14 -1.32,4.06 -1.32,5.14z"/>
    <path class="fil0" d="M55.14 48.52l3.62 0c0.97,-4.18 2.35,-3.46 -3.62,-3.46l-1.19 4.16c-0.65,2.21 -0.03,1.33 0.65,0.18 0.23,-0.39 0.32,-0.55 0.54,-0.88z"/>
    <path class="fil0" d="M9.5 50.41c0.74,-0.49 0.89,-1.58 1.49,-1.82 0.49,-0.19 2.7,-0.07 3.39,-0.07 0.32,-0.6 0.93,-2.6 0.94,-3.46 -5.39,0 -4.24,-0.68 -5.13,2.43 -0.24,0.84 -0.7,2.05 -0.7,2.92z"/>
    <path class="fil0" d="M23.66 50.41c0.73,-0.19 1.24,-1.25 1.57,-1.89l3.62 0c0.13,-0.27 0.91,-3.11 0.94,-3.46 -1.18,0 -3.57,0.24 -4.41,-0.16l-1.73 5.51z"/>
    <path class="fil0" d="M38.77 50.41c0.66,-0.18 0.64,-0.72 1.42,-1.89l3.78 0c0.09,-1.13 0.69,-2.33 0.79,-3.46l-4.41 0c-0.33,0.69 -0.58,1.79 -0.82,2.64 -0.24,0.84 -0.54,1.79 -0.75,2.71z"/>
    <path class="fil1" d="M31.69 64.57c2.82,-0.24 1.42,-2.05 2.52,-2.05 0.81,0 1.65,0.14 1.9,0.01 0.22,-0.12 0.57,-0.55 0.39,-0.88 -0.39,-0.7 -2.14,0.33 -2.14,-0.71 0,-0.76 1.49,-0.47 2.21,-0.46 1.25,0.02 1.41,-0.03 1.41,-1.27 -2.81,0 -4.61,-0.38 -5.3,1.63 -0.38,1.1 -1,2.36 -1,3.72z"/>
    <path class="fil2" d="M205.62 58.75c1.05,0 1.87,0.09 2.78,-0.53 1.82,-1.24 0.45,-3.86 -2.65,-2.49 -0.4,0.18 -0.56,0.26 -0.82,0.59 -1.36,1.67 0.61,2.43 0.7,2.43z"/>
    <path class="fil2" d="M211.12 57.33c0,2.68 4.56,1.52 4.56,-0.47 0,-2.43 -4.56,-1.67 -4.56,0.47z"/>
    <path class="fil1" d="M78.75 25.69c1.48,0.71 5.4,0.09 7.18,0.37 0.92,0.15 1.07,0.41 2.1,0.41 0.19,-2.25 2.22,-1.73 -8.66,-1.73 -0.52,0 -0.59,0.45 -0.63,0.94z"/>
    <path class="fil1" d="M27.76 60.32c1.52,0 1.27,0.03 0.53,2.26 -0.22,0.65 -0.52,1.26 -0.53,1.99 1.3,0 1.77,-0.32 2.11,-1.35 0.3,-0.9 0.52,-2 0.88,-2.74 0.87,-0.2 0.92,-0.02 1.28,-0.31 0.17,-0.14 0.59,-0.95 -0.18,-0.95 -2.48,0 -4.06,-0.4 -4.09,1.1z"/>
    <path class="fil1" d="M128.65 28.53c0.59,-0.43 0.63,-1.51 0.94,-2.68 0.22,-0.85 0.71,-2.11 0.79,-2.99 -0.52,0.12 -0.68,0.3 -1.13,0.44 -1.59,0.52 -4.56,-0.44 -3.1,0.94 3.01,2.85 1.34,1.87 2.5,4.29z"/>
    <path class="fil1" d="M150.53 27.9l3.93 0c-0.14,-0.53 -0.37,-0.61 -0.75,-0.98 -0.91,-0.89 -1.47,-2.14 -1.77,-3.43l-0.31 0c-0.1,1.17 -1.1,3.16 -1.1,4.41z"/>
    <path class="fil1" d="M109.13 27.9c5.85,0 3.79,0.35 2.17,-2.32 -0.38,-0.62 -0.45,-1.3 -0.75,-1.93 -0.57,0.42 -1.21,3.35 -1.42,4.25z"/>
    <path class="fil1" d="M37.04 64.42c1.27,0 1.46,0.12 1.83,-0.84 0.32,-0.84 1.3,-3.74 1.32,-4.35 -2.1,0.18 -1.78,1.24 -2.68,3.46 -0.21,0.51 -0.46,1.03 -0.47,1.73z"/>
    <path class="fil1" d="M65.69 29.94c0.64,-0.17 0.28,0.11 0.77,-1.44 0.2,-0.64 0.34,-1.17 0.53,-1.84 0.23,-0.83 0.91,-2.71 0.91,-3.65 -0.38,0.25 -1.43,2 -1.99,2.73 -0.49,0.66 -0.44,0.91 -0.28,1.9 0.12,0.72 0.07,1.54 0.07,2.3z"/>
    <path class="fil2" d="M186.88 46.63c0.69,0.39 3.06,0 4.56,0 1.13,-2.14 0.1,-1.53 -3.27,-0.91 -0.81,0.15 -1.22,-0.02 -1.3,0.91z"/>
    <path class="fil0" d="M11.86 63.63c1.89,0 1.46,-0.07 2,-1.46 0.48,-1.23 0.95,-1.84 -0.27,-1.84 -0.98,0 -0.94,0.55 -1.2,1.32 -0.25,0.74 -0.53,1.05 -0.53,1.99z"/>
    <path class="fil0" d="M17.84 61.58l1.57 0c0.22,-0.42 0.3,-0.46 0.31,-1.1 -0.78,-0.18 -1.85,-0.51 -1.89,1.1z"/>
    <path class="fil0" d="M23.35 61.58c0.55,0 0.87,-0.02 1.25,-0.16 0.52,-0.2 0.5,-0.2 0.64,-0.78 -0.52,-0.35 -1.1,-0.56 -1.7,0.04 -0.36,0.36 -0.28,0.47 -0.18,0.91z"/>
   </g>
  </g>
 </g>
</svg>
