<?xml version="1.0" encoding="UTF-8"?>
<!DOCTYPE svg PUBLIC "-//W3C//DTD SVG 1.1//EN" "http://www.w3.org/Graphics/SVG/1.1/DTD/svg11.dtd">
<!-- Creator: CorelDRAW -->
<svg xmlns="http://www.w3.org/2000/svg" xml:space="preserve" width="112.685mm" height="32.5547mm" version="1.1" style="shape-rendering:geometricPrecision; text-rendering:geometricPrecision; image-rendering:optimizeQuality; fill-rule:evenodd; clip-rule:evenodd"
viewBox="0 0 1283.41 370.78"
 xmlns:xlink="http://www.w3.org/1999/xlink"
 xmlns:xodm="http://www.corel.com/coreldraw/odm/2003">
 <defs>
  <style type="text/css">
   <![CDATA[
    .fil0 {fill:#060301}
    .fil1 {fill:#A2A2A1}
    .fil4 {fill:#E20203}
    .fil2 {fill:#E7E7E7}
    .fil3 {fill:#FBE705}
   ]]>
  </style>
 </defs>
 <g id="Camada_x0020_1">
  <metadata id="CorelCorpID_0Corel-Layer"/>
  <g id="_2028344028576">
   <path class="fil0" d="M612.33 334.29c2,-3.43 10.3,-9.02 13.85,-11.02 4.98,-2.8 11.4,-5.68 17.1,-6.48 -4.84,3.15 -25.83,16.58 -30.95,17.5zm614.4 -28.26c8.6,3.9 -0.04,13.78 -3.39,14.12 -4.06,0.41 -5.18,-4.48 -2.92,-7.85 1.26,-1.88 3.58,-5.02 6.31,-6.27zm-19.2 1.25c3.42,-2.11 6.84,0.65 6.13,4.31 -0.32,1.64 -3.89,7.05 -4.96,7.75 -3.36,2.18 -7.18,-0.69 -6.45,-4.51 0.53,-2.75 3.31,-6.33 5.28,-7.55zm-11.56 2.64c-0.3,3.24 -3.23,6.35 -5.22,8.08 -2.78,2.42 -7.17,2.36 -7.26,-2.03 -0.06,-2.48 3.59,-7.14 4.89,-8.44 2.76,-2.77 5.85,0.68 7.59,2.39zm-215.42 -13.76c-1.72,8.33 -13.03,11.96 -16.7,14.87 -2.58,2.05 -14.82,15.52 -18.38,1.73 -2.46,-9.51 5.16,-17.64 9.37,-21.42 11.16,-9.99 12.93,7.95 14.6,10.64 5.64,0.03 6.67,-5.8 11.1,-5.83zm6.4 4.42c1.27,-12.69 -0.53,-5.22 -0.79,-11.14l7.76 0.15c0.12,2.31 -6.37,10.55 -6.97,10.98zm-372.11 0.19c0.67,-1.84 5.73,-7.87 7.09,-9.1 2.58,-2.34 9.26,-1.94 13.9,-1.88 -1.33,1.68 -20.68,10.92 -20.98,10.98zm433.52 -50.65c1.19,1.3 1.44,1.62 1.53,4.51 0.05,1.5 0.02,3.1 0.05,4.63 0.66,29 0.94,20.37 -4.92,23.64 -1.96,1.09 -1.88,2.02 -4.22,3.26l7.56 -36.03zm-208.21 34.34c-11.73,-1.07 -2.2,-13.7 2.67,-14.68 4.88,5.99 2.47,10.03 -2.67,14.68zm-72.24 -2.91c0.33,-1.26 7.54,-10.64 9.68,-11.28l-2.43 11.55 -7.25 -0.27zm-132.08 0.09c1.04,-2.31 22.77,-14.29 27.03,-15.04 -0.19,3.54 -1.78,12.09 -3.34,14.68 -2.56,1.1 -20.2,0.85 -23.69,0.37zm598.08 15.84c-0.98,-6.01 21.34,-40.62 26.15,-42.63 6.07,2.59 5.53,8.47 2.13,13.21l-17.72 21.62c-2.28,2.83 -6,8.96 -10.56,7.8zm7.3 -41.9c2.63,-1.7 9.74,2.78 5.69,9.18 -3.44,5.44 -20.57,26.64 -25.12,30.9 -1.61,1.51 -6,3.43 -6.03,-0.19 -0.01,-0.83 2.5,-5.38 2.96,-6.24 3.95,-7.3 17.79,-30.61 22.5,-33.66zm-43.53 41.46c-0.77,-5.94 16.36,-29.98 20.46,-35.71 2.61,-3.65 4.85,-9.13 9.63,-4.47 4.84,4.72 0.14,9.19 -2.43,12.36l-16.65 20.69c-2.76,3.25 -4.76,7.84 -11.02,7.13zm-414.86 -12.52c-0.42,-0.71 -0.87,0.04 -0.22,-3.39l2.28 -11.16c0.48,-2.4 0.95,-4.74 1.44,-7.2 1.6,-8.13 0.67,-5.41 2.63,-6.21 -0.04,1.93 -4.12,26.78 -6.12,27.97zm-119.44 -2.86c-0.46,-0.78 -0.36,-0.34 -0.56,-1.75 -0.26,-1.85 -0.1,0.41 -0.05,-1.17 0,-0.03 0.51,-2.64 0.56,-2.85 1.78,-8.27 0.6,-10.37 6.25,-12.69 4.73,-1.94 13.77,-6.12 19.63,-6.2 -0.73,2.82 -0.05,1.71 -2.6,3.4 -1.51,1 -1.1,0.5 -2.67,1.95 -10.46,9.63 0.43,14.28 -0.62,19.66l-19.92 -0.34zm-55.02 32.96c-1.25,-2.22 -0.04,-0.53 -2,-2.17 -2.35,-1.96 -3.92,-2.82 -4.8,-7.26 -6.38,-32.25 75.74,-77.03 103,-61.64 16.19,9.14 -9.39,41.1 -17.9,27.72 1.05,-3.51 8.47,-7.53 11.15,-9.71 3.24,-2.65 9.82,-6.19 6.59,-12.41 -5.51,-6.62 -38.01,7.24 -43.78,9.92 -17.47,8.13 -39.75,20.15 -50.52,35.46 -4.69,6.67 -6.85,18.35 7.12,13.09 8.17,-3.08 32.73,-19.5 40.25,-11.01 -1.36,9.75 -24.86,14.78 -34.3,19.67 -8.34,4.32 -26.64,18.93 -23.77,29.17 10.63,3.14 45.87,-21.72 55.72,-27.89 4.35,-2.73 13.37,-9.62 17.42,-11.07 -0.57,3.36 -3.01,5.35 -4.71,7.11 -2.34,2.41 -3.38,3.58 -5.67,5.67 -12.51,11.49 -39.31,33.28 -55.98,32.89 -6.6,-0.16 -11.71,-3.78 -12.83,-9.32 -1.11,-5.49 2.34,-12.69 4.56,-16.49 6.03,-10.31 5.82,-7.05 10.45,-11.73zm517.75 -23.36c2.33,-5.05 7.34,-12.93 10.59,-18.07 6.67,-10.56 15.25,-24.93 23.71,-33.62 5.21,-5.36 15.66,-7.13 15,4.34 -0.65,11.24 -49.72,55.81 -50.15,64.14 6.33,-1.41 15.13,-12.15 19.14,-16.47 11.94,-12.86 13.16,7.41 15.29,10.72 3.89,-0.3 8.71,-5.97 11.63,-7.61 0.83,9.74 -15.06,13.41 -18.11,17.03 -12.93,15.36 -16.41,1.15 -19.11,-1.93 -4.58,1.75 -4.57,5.5 -9.33,6.43 -3.23,-1.2 -2.89,-2.97 -4.67,-5.73 -0.99,0.62 -0.28,0.1 -1.14,0.96 -1.41,1.41 -4.3,5.47 -6.6,6.17 -5.37,1.62 -5.49,-3.64 -7.59,-6.27 -4.26,1.45 -7.94,8.82 -13.27,8.56 -2.92,-0.15 -6.15,-2.49 -6.99,-4.4 -1.68,-3.83 1.23,-4.3 0.82,-8.74 -2.15,1.6 -6.19,8.57 -11.22,10.11 -4.1,-2.58 -2.6,-4.48 -4,-6.15 -10.98,11.77 -13.39,9 -17.33,-1.44 -3.45,0.88 -5.95,5.4 -9.13,7.57 -4.69,3.21 -7.14,-1.77 -9.53,-4.61 -2.98,1.66 -4.17,6.79 -9.49,7.49 -6.35,0.83 -7.6,-5.09 -7.13,-9.9 -2.21,1.51 -7.5,8.38 -11.38,6.82 -2.96,-3.41 0.64,-6.68 1.57,-10.89 -1.19,0.68 -8.14,8.21 -14.24,12 -3.28,-2.01 -4.51,-4.78 -2.4,-8.86 1.99,-3.86 8.17,-14.77 11.62,-16.41 4.81,-2.29 7.77,0.32 6.43,5.26 3.49,-1.58 5.74,-7.05 9.71,-7.04 7.54,0.02 2.46,10.05 2.34,10.35 3.47,-2.44 6.82,-9.89 11.63,-11.15 13.04,3.53 -6.66,18.76 -8.09,23.38 1.44,-0.69 11.72,-10 13.58,-11.85 3.65,-3.63 7.67,-11.34 12.5,-13.03 4.45,2.06 5.8,5.9 2.71,10.23 -3.19,4.47 -6.52,7.51 -7.37,9.49 5.5,-1.24 16.1,-18.02 20.66,-16.59 7.83,5.57 -2.21,13.63 -4.7,17.77 3.75,-1.06 8.88,-5.88 11.13,-8.28 1.63,-1.74 3.13,-3.36 4.68,-5.33 1.64,-2.08 2.19,-3.35 5.37,-3.44 5.72,4.64 -0.11,8.17 -0.08,12.66 2.65,-0.81 9.44,-13.95 16.25,-13.87 5.39,3.08 3.15,6.15 0.59,10.79 -1.97,3.58 -4.4,6.8 -5.73,10.09 4.87,-1.27 17.59,-16.16 22.46,-20 6.06,-4.78 7.16,-1.5 9.36,-0.68zm-273.83 -45.51c-0.03,-3.27 6.04,-32.3 7.53,-34.3l4.15 34.78 -11.69 -0.48zm-355.6 0.29c0.34,-3.09 15.65,-36.71 17.27,-38.66l1.47 38.62 -18.74 0.04zm251.75 26.82c5.99,-9.32 16.94,-25.63 24.05,-33.31 11.42,-12.35 14.53,2.12 14.41,4.33 -0.29,5.23 -21.46,28.24 -25.01,32.42 -4.58,5.39 -23.71,26.35 -25.74,31.08 8.78,-0.39 14.49,-10.29 18.67,-14.82 12.51,-13.55 14.57,9.03 14.7,9.41 4.88,0.18 7.08,-4.38 9.63,-7.08 3.1,-3.3 6.89,-6.05 9.31,0.38 -0.97,3.77 -5.68,8.1 -8.01,10.46 4.4,-2.22 13.23,-15.95 19.63,-15.56 2.75,3.85 1.62,4.57 0.65,9.31 4.33,-2.11 5.99,-8.24 12.87,-8.88 7.27,10.56 -4.66,10.78 -8.31,21.1 3.14,-1.36 8.09,-7 13.72,-10.89 4.11,-2.85 6.44,-11.46 11.16,-12.57 7.57,7.09 -2.54,12.22 -4.3,20.77 2.17,-0.62 8.6,-6.33 10.46,-8.23 3.09,-3.14 4.68,-8.28 9.17,-9 5.84,6.26 -0.68,9.16 1.28,12.84 1.35,-3.69 4.65,-5.96 6.87,-8.51 1.77,-2.04 4.66,-6.84 9.23,-4.9 4.69,2 2.24,6.9 0.13,10.29 -1.72,2.77 -4.51,6.85 -5.62,10.11 4.03,-1.2 7.4,-5.76 10.22,-8.2 8.28,-7.17 13.96,-16.96 19.16,-14.78 2.06,0.87 9.58,5.62 10.52,6.7 0.44,5.72 -4.39,8.24 -6.05,13.37 3.63,-1.39 10.26,-7.3 11.07,-10.42 1.18,-4.55 -0.23,-4.26 2.89,-7.96 1.62,-1.92 3.79,-3.79 6.95,-2.2 1.21,2.84 -0.89,4.96 -1.51,8.07 3.75,-0.65 3.13,-1.93 6.85,-2.52 8.34,4.74 -2.42,10.84 -3.5,16.42 6.24,-1.14 12.66,-13.26 17.54,-14.08 0.12,3.75 -4.24,8.24 -6.03,10.61 -2,2.65 -5.27,7.18 -7.47,9.19 -3.6,3.3 -9.91,1.31 -11.38,-2.33 -2.19,-5.41 3.82,-8.36 2.18,-12.1 -3.11,-3.2 -7.93,6.38 -11.09,10.15 -7.96,9.48 -9.99,5.18 -14.9,3.44 -11.56,8.23 -9.69,-0.03 -16,-4.29 -3.24,2.02 -7.55,9.93 -13.3,9.48 -2.8,-0.22 -5.94,-2.59 -6.47,-5.08 -0.99,-4.64 2.37,-5.96 0.09,-8.69 -2.17,5.44 -2.75,4.96 -6.94,8.29 -5.4,4.29 -6.01,1.21 -6.11,-4.59 -3.28,1.1 -5.01,5.96 -9.29,6.01 -4.67,0.06 -5.29,-5.03 -7.31,-8.13 -1.78,0.9 -1.22,0.73 -2.69,2.62 -7.8,10.05 -18.42,13.45 -18.56,-0.11 -4.6,1.94 -5.51,8.4 -12.21,5.57 -1.45,-4.31 3.96,-10.82 5.73,-14.47 -2.66,0.84 -11.65,14.52 -17.6,15.41 -3.54,-2.13 -2.87,-3.2 -3.04,-8.15 -3.43,-0.4 -4.73,1.99 -6.3,3.78 -1.89,2.15 -3.51,3.52 -5.8,4.86 -9.29,5.43 -9.06,-3.66 -11.53,-7.69 -3.75,1.64 -5.85,7.31 -11.86,6.67 -1.12,-2.49 -0.55,-2.84 -2.13,-4.64 -3.01,1.56 -6.59,7.84 -12.03,4.88 -7.92,-4.31 -0.03,-17.15 6.64,-22.81 4.07,-3.45 5.12,-5.31 8.37,-4.38 1.71,0.49 -0.01,0.69 3.02,1.28l10.92 -17.92zm388.05 -27.28c0.15,-2.1 15.97,-36.79 17.39,-38.2 0.4,3.71 1.05,25.92 0.32,28.43 -0.39,1.35 -4.96,6.89 -6.05,8.16 -2.57,3 -7.16,2.14 -11.66,1.61zm-491.54 -0.4c-0.23,-2.74 3.58,-28.09 4.59,-30.76l19.51 -0.02c-0.13,2.36 -4.11,21.78 -4.85,22.96 -1.04,1.66 -16.65,7.82 -19.24,7.82zm147.89 -8.4c-0.42,-0.75 -0.83,-0.43 -0.31,-3.19 0.13,-0.71 0.46,-1.87 0.64,-2.71 0.41,-1.88 0.73,-3.44 1.17,-5.39 0.69,-3.08 1.45,-7.93 2.5,-10.62 1.96,0.67 0.92,2.26 0.38,4.59 -0.52,2.23 -0.92,4.05 -1.4,6.22 -0.4,1.8 -0.85,3.95 -1.25,5.81l-1.41 4.84c-0.04,-0.1 -0.21,0.3 -0.31,0.45zm-179.61 -29.86c0.3,3.51 -2.02,14.41 -2.76,18.49 -0.77,4.27 -0.93,17.4 -2.35,19.74 -1.63,1.99 -9.1,0.99 -10.83,0.36l15.93 -38.6zm472.52 14.87c-0.33,-3.36 -0.48,-6.5 -0.03,-9.86 0.52,-3.85 1.16,-5.13 3.45,-6.39l-3.42 16.25zm-437.47 -15.3c-0.58,-2.95 3.97,-25.35 5.62,-28.41l26.64 0.18c1.47,3.91 -3.78,23.46 -4.8,28.74l-27.46 -0.5zm456.8 75.11c-0.44,-4.18 15.31,-36.52 18.13,-42.61 9.13,-19.73 19.37,-44.04 28.65,-63.37l19.15 -42.2c6.96,-14.77 5.29,-17.32 14.17,-16 1.4,6.15 5.15,160.87 4.29,163.94 -3.9,1.12 -21.67,1.06 -25.69,0.27 -1.86,-9.65 2.39,-11.88 6.44,-16.89 6.74,-8.34 18.06,-20.99 8.45,-32.05 -6.47,-7.45 -12.81,-3.72 -17.79,-3.95 0.09,-10.88 0.18,-47.26 -1.45,-50.61 -2.03,1.61 -0.3,0.85 -2.44,4.57 -3.15,5.48 -12.02,26.3 -14.82,32.56 -3.05,6.83 -15.75,33.59 -17.01,38.23l15.66 -0.17c-0.75,2.82 -13.81,21.86 -17.41,28.73l-18.33 -0.43zm-639.6 -0.33c-0.71,-4.15 6.3,-17.44 8.33,-21.73l27.78 -60.93c6.38,-13.53 12.15,-27.22 18.46,-40.88 3.13,-6.78 6.27,-13.78 9.37,-20.63 2.51,-5.54 6.6,-15.75 9.45,-20.02l6.21 0.46c1.85,4.06 2.56,70.25 2.85,81 0.37,13.81 0.86,27.54 1.21,41.38l0.89 36.72c-0.02,1.26 0.02,1.35 -0.27,2.56 -0.41,1.73 -0.29,0.99 -0.7,1.62 -2.1,1.69 -21.83,2.02 -24.77,0.5l-1.15 -12.69c-0.99,-25.48 -1.39,-70.48 -3.36,-91.08 -1.85,0.88 -3.48,6.03 -4.63,8.61 -5.2,11.62 -29.12,63.75 -29.61,67.12l28.34 0.28c0.3,3.07 -4.48,24.46 -5.51,28.48 -7.9,0.02 -38.58,0.74 -42.9,-0.76zm249.25 -112.59c0.39,-3.95 1.54,-11.87 3.47,-14.82 1.62,3.05 -0.11,12.72 -3.47,14.82zm-55.11 1.7c-0.3,-2.82 3.44,-14.51 4.89,-16.94l17.23 -0.04 -3.03 17.14 -19.1 -0.17zm231.38 112.85c0.35,-2.09 5.58,-8.88 7.31,-11.82 2.63,-4.46 3.91,-8.79 5.22,-14.13 11.5,-46.93 -4.39,-87.49 -2.99,-103.73 5.94,-1.12 22.21,-0.49 28.81,-0.14 0.41,4.38 -20.12,98.86 -24.25,118.8 -2.32,11.2 -3.06,17.76 -14.11,11.02zm141.79 -165.74c11.33,19.93 -2.4,81.6 -8.69,104.29 -4.31,15.57 -8.83,32.02 -15.19,45.53 -2.82,5.99 -7.67,14.45 -15.42,14.65 -4.71,0.12 -25.08,0.96 -28.14,-0.54 -14.2,-6.95 3.34,-88.54 7.5,-103.46 3.62,-12.98 14.63,-58.91 29.98,-60.58 9.61,-1.04 20.25,0.51 29.96,0.11zm-337.76 8.51c5.92,0.1 27.66,7.51 35.12,9.9l19.23 7.46c0.47,12.38 -8.41,44.51 -16.57,55.82 -9.1,12.6 -5.99,2.17 -5.4,24.74 0.17,6.27 0.54,12.92 0.87,19.33 0.33,6.5 2.34,34.16 0.28,38.72l-20.9 -0.38c-3.74,-5.04 1.02,-8.84 3.39,-12.11 9.53,-13.12 6.83,-27.44 -6.18,-34.84 -0.8,-8.91 -0.88,-21.01 -0.98,-30.08 -0.05,-5.05 2.73,-22.6 4.92,-26.01 3.47,-1.32 7.84,-0.05 10.29,-2.4 6.83,-6.57 6.9,-27.82 7.14,-28.55 -4.07,-1.77 -9.16,-2.4 -13.84,-1.49 -1.3,2.99 -4.08,17.88 -4.6,21.86 -0.86,6.53 -3.06,14.84 -4.51,21.45 -11.16,51.21 -3.94,41.81 -20.86,44.32 -3.23,0.48 -7.14,1.63 -10.63,1.98l23.21 -109.71zm318.83 155.27c-0.39,-6.01 14.81,-72.54 17.25,-84.45 2.73,-13.32 5.73,-28.09 8.7,-42.08 1.4,-6.59 2.84,-13.85 4.32,-20.78 2.84,-13.26 1.94,-16.74 8.01,-16.74l41.3 0c5.26,0 6.04,1.83 7.06,6.38 2.03,9.04 -0.14,25.18 -1.89,33.96 -3.01,15.12 -8.45,35.56 -18.31,45.87 -3.31,3.47 -2.66,3.28 -2.34,9.64l2.07 48.75c0.69,15.01 2.98,20.22 -4.58,20.22 -18.16,0 -17.7,1.41 -17.84,-4.04 -0.56,-22.14 -5.2,-87.93 2.27,-99.65 5.19,-0.51 7.73,0.51 10.63,-2.76 4.17,-4.7 9.28,-22.81 4.71,-29.68l-11.67 0.15c-2.08,5.45 -18.54,88.44 -21.52,102.24 -2.31,10.66 -4.19,23.59 -7.42,33.43 -4.41,0.76 -17.22,1.09 -20.74,-0.47zm-248.07 -149.02c0.63,1.87 0.3,2.84 -0.31,4.17 -3.01,0.29 -3.77,-0.63 -3.69,-3.81l4.01 -0.36zm-151.03 132.52c-1.17,-32.09 8.01,-69.17 15.65,-97.26 0.57,-2.11 1.04,-4.07 1.46,-5.88 0.66,-2.79 0.76,-2.63 1.63,-5.1 3.73,-10.54 7.16,-19.39 12.49,-29.52 2.32,-4.41 2.06,-5.55 8.18,-5.81 9.13,-0.38 28.33,2.67 38.23,3.89 -0.07,3.33 -3.01,18.09 -4.15,20.71 -19.84,1.85 -26.68,-5.05 -31.51,7.27 -3.52,8.99 -5.62,20.88 -7.81,30.79 -4.93,22.39 -9.2,42.72 -11.37,66.15 -3.53,2.09 -8.47,4.71 -11.58,7.03 -2.74,2.04 -8.27,6.85 -11.22,7.72zm202.07 17.05c-0.71,-4.03 14.51,-72.67 16.54,-82.57 2.44,-11.89 15.18,-77.69 17.67,-81.86 5.74,-0.34 14.64,-0.56 20.15,0.13 0.84,3.31 -18.66,92.88 -22,108.89 -2.4,11.51 -4.55,24.43 -7.54,35.7 -6.42,3.37 -6.34,2.1 -10.39,7.56 -3.37,4.54 -2.82,8.35 -5.09,12.31l-9.34 -0.18zm264.85 -0.1c-1.08,-3.65 7.23,-39.55 8.7,-46.29l18.87 -90.46c6.42,-31.45 3.7,-27.58 13.52,-27.63 3.88,-0.02 9.33,-0.56 12.96,0.26 1.45,3 -6.4,35.73 -7.64,41.55 -2.89,13.58 -5.72,27.14 -8.6,40.78l-17.32 80.78c-0.05,0.1 -0.24,0.53 -0.28,0.43 -0.04,-0.1 -0.18,0.29 -0.29,0.42 -2.75,1.07 -16.51,1.12 -19.91,0.17zm-318.89 -43.11c1,-9.55 4.39,-22.07 6.48,-31.78l13.06 -62.1c1.11,-5.32 2.15,-10.28 3.22,-15.39 2.17,-10.35 1.23,-12.12 6.62,-12.14 5.64,-0.02 11.36,-0.49 16.93,0.38 1.44,5.56 -11.7,50.45 -11.76,60.41l15.65 -0.05c3.54,-13.05 9.96,-52.6 12.98,-60.25 4.47,-1.14 15.51,-0.92 20.69,-0.31 0.9,3.54 -10.19,52.02 -12.44,61.89 -0.8,3.53 -1.08,7.65 -1.76,10.79 -0.5,2.33 -1.72,6.38 -2.42,9.72l-17.37 82.03c-5.85,0.37 -15.33,0.56 -20.97,-0.11 -0.69,-6.58 15.43,-67.96 14.94,-74.93l-15.39 0.2c-2.54,6.22 -2.17,16.22 -5.06,21.71 -6.16,-0.14 -8.34,-2.52 -14.2,1.67 -3.18,2.28 -6.04,6.82 -9.19,8.22zm-182.97 -93.09c-0.16,-2.83 4.02,-26.31 5.76,-27.62 2.04,-1.53 27.2,-0.81 31.99,-0.75 21.65,0.27 19.51,-2.83 16.27,12.87 -3.6,17.45 -0.98,10.16 -7.81,26.38 -2.62,6.23 -38.86,92.39 -39.49,97.05l20.66 0.19c0.54,3.19 -2.36,14.13 -3.18,17.93 -2.27,10.37 -0.31,10.4 -11.13,10.4l-42.24 0.3c1.96,-13.31 4.79,-26.87 9.31,-37.88 11.22,-27.38 27.2,-63.85 37.01,-90.43 0.57,-1.54 3.06,-5.04 3.06,-7.86l-20.21 -0.58zm291.96 107.87c0.69,-15.45 -11.88,-61.3 -6.97,-87.3 2.53,-13.4 2.88,-25.23 12.68,-39.59 1.69,-2.47 4.7,-6.32 7.42,-7.98 4.02,-2.45 22.81,-1.37 28.58,-1.39 10.46,-0.03 10.03,-0.56 8.77,4.65 -1.3,5.38 -3.56,19.83 -5.44,23.89 -6.08,0.9 -19.67,-0.83 -24.12,0.69 -2.18,9.51 21.03,90.93 -2.74,125.3 -8.89,12.85 -19.28,10.66 -38.21,10.5 0.33,-4.26 4.07,-12.28 -5.74,-18.04 -0.33,-3.67 0,-7.47 1.86,-10.62l23.9 -0.12zm51.47 -107.54c0,-4.35 2.24,-15.85 3.28,-19.58 3.28,-11.76 -0.42,-7.96 12.28,-9.29 6.56,-0.68 29.32,0.62 43.7,-0.27 -0.64,4.83 -4.52,25.31 -6.08,28.75l-16.05 0.64c-2.09,5.06 -19.38,89.79 -21.92,102.37 -1.09,5.42 -2.34,11.08 -3.54,16.75l-2.65 12.81c-0.26,1.12 -0.2,1.08 -0.63,2 -2.28,4.86 -19.27,0.99 -20.45,-0.51 -1.35,-1.72 11.82,-60.56 13.2,-67.16l13.95 -66.25 -15.1 -0.26zm-188.71 79.36c-0.41,-16.16 -2.1,-11.69 4,-21.65 7.4,-12.09 11.13,-24.07 14.38,-38.34 4.33,-18.97 1.15,-18.14 12.27,-27.03 3.95,-3.15 1.98,-5.03 4.44,-8.88 1.26,-1.98 10.05,-13.38 11.64,-13.95 -0.39,5.64 -3.13,15.14 -4.38,21.14l-13.19 64.16c-3.01,14.43 -5.9,28.04 -9.09,42.37 -2.32,10.44 -2.34,10.82 -7.34,18.63 -1.78,2.78 -7.9,13.86 -10.39,15l-2.33 -51.45zm50.39 -117.43c0.41,1.56 1.77,6.51 -2.38,5.09 -1.47,-0.51 -1.29,-0.91 -1.98,-1.7 0.65,-2.87 1.15,-3.63 4.36,-3.38zm-141.41 -1.88l4.88 0.5c0.01,4.23 -1.01,4.42 -4.35,3.47l-0.53 -3.97zm109.92 10.06c-0.08,-5.36 1.09,-12.28 5.82,-12.59 -0.61,2.91 -2.51,4.89 -3.82,9.72 -0.78,2.89 0.11,1.87 -1.99,2.87zm259.75 -0.69c0.14,-3.99 3.58,-11.3 4.99,-15.38 4.5,-13.06 3.17,-11.42 9.46,-10.9 -0.47,3.52 -4.06,11.18 -5.59,14.7 -4.58,10.58 -3.1,11.79 -8.86,11.58zm-358.29 -17.45c-1.56,-2.86 -2.35,-15.24 -1.92,-19.18 3.13,4.38 4.39,15.37 5.89,17.39 1.76,-1.15 3.59,-2.97 4.4,-5.82 0.99,-3.47 -0.42,-6.28 0.93,-8.38 4.95,5.74 -1.73,18.66 -9.3,15.99zm115.33 7.28c-1.56,3.43 -6.08,10.95 -6.98,14.82 8.83,-0.09 5.63,-4.79 11.08,-6.37 -1.56,4.46 -8.11,11.59 -15.47,8.28 -2.39,-1.07 -3.52,-1.83 -3.32,-4.67 3.02,-1.25 0.5,2.22 4.29,-1.62l9.54 -11.04c12.08,-15.57 2.02,-12.55 1.95,-18.92 2.23,-0.25 3.7,3.03 4.98,4.76 1.48,2 3.4,3.57 3.82,6.14 -7.18,2.14 -6.07,3.72 -9.89,8.62zm11.83 -13.82c2.13,3.8 0.12,4.09 0.11,4.11 -1.07,-0.66 -9.38,-10.27 -8,-13.25 2.29,0.64 6.6,6.86 7.88,9.15zm-128.83 6.17c-4.56,-0.42 -7.64,-9.53 -8.99,-14.31 1.46,0.48 1.01,0.05 1.82,1.48 0.05,0.08 0.65,1.74 0.73,1.95 0.6,1.52 1.06,2.83 1.67,4.32 1.52,3.7 3.76,3.88 4.77,6.56zm-16.53 -18.73c-0.17,-0.28 -1.2,1.01 -0.72,-2.22 0.42,-2.86 3.5,-1.61 4.63,-1.14 0.18,3.21 -0.91,4.52 -3.91,3.36zm94.11 15.71c5.62,-10.4 11.17,-15.23 6.74,-22.67 -1.08,-1.82 -2.02,-2.74 -4.47,-3.55 -2.24,-0.75 -4.7,-0.62 -6.77,-1.78l1.87 -5.76c8.04,-0.1 24.53,9.94 30.9,13.15l-1.58 4.68c-3.97,-0.96 -5.76,-5.27 -11.09,-1.11 -2.2,1.72 -5.12,4.88 -6.63,8.08 -1.33,2.82 -5.87,21.06 -5.39,23.5 10.6,-0.11 8.8,-10.42 14.36,-11.67 0.77,13.26 -24.44,20.7 -30.22,2.82 -0.76,-2.36 -2.9,-12.75 2.3,-13.09 2.73,5.05 -4.15,15.35 4.67,17.85 1.15,-0.95 4.26,-8.53 5.29,-10.43zm-82.07 -28.62c1.24,-1.71 7.94,-6.47 10.39,-6.34 -0.27,2.33 -3.23,3.04 -4.85,4.41 -2.24,1.9 -2.44,2.46 -3.05,6.2 -1.1,-1.32 -2,-2.15 -2.49,-4.28zm42.89 32.23c11.63,-0.88 8.26,-13.72 14.06,-15.06 -0.47,10.43 -5.93,15.2 -14,18.21 -7.75,-1.09 -10.49,-1.25 -14.05,-6.14 -2.32,-3.19 -6.37,-11.01 -2.77,-14.72 4.37,2.57 -2.36,11.94 9.51,16.88 0.74,-11 6.25,-26.89 0.2,-34.46 -2.63,-3.29 -4.9,-2.89 -10.11,-3.3 -0.93,-5.39 0.09,-5.2 4.83,-5.37 9.88,-0.36 18.91,-1.08 28.9,1.02l-0.42 7.71c-1.03,-0.17 -14.36,-8.79 -16.77,7.18 -0.15,1 0.46,27.14 0.63,28.05zm-29.82 -35.33c-0.12,-1.62 -4.73,-13.79 2.39,-21.84 2.83,0.75 6.28,5.62 7.39,8.17 2.12,4.85 0.54,8.43 1.44,13.14 3.73,-0.73 6.19,-2.68 9.17,0.95 1.83,2.22 3.16,5.85 3.33,9.33 0.15,3.18 -2.26,19.27 -3.33,21.46 -6.32,-3.43 -0.64,-12.51 -6.67,-16.28 -8.94,2.53 -2.51,23.33 12.18,25.08 15.73,1.87 24.83,-18.02 17.15,-22.4 -7.13,2.11 -5.16,13.16 -10.63,15.32 -0.64,-2.04 -2.56,-23.21 -1.97,-25.65 0.8,-3.33 3.52,-7.3 6.63,-7.69 4.48,-0.56 6.84,2.91 11.07,4.05 -0.48,-6.36 0.04,-10.75 2.79,-15.29 1.67,-2.76 6.2,-8.3 8.77,-9.24 2.33,3.44 4.03,8.23 4.27,13.32 0.36,7.47 -2.18,9.33 -3.27,14.97 10.73,-3.76 18.71,3.95 13.53,12.92l-11.98 19.41c-3.49,-5.92 1.91,-12.56 -2,-17.76 -10.84,-2.43 -9.1,21.4 4.32,26.97 16.41,6.81 29.88,-14.53 22.46,-16.55 -3.49,-0.95 -5.91,10.24 -12.85,12.24 0.25,-2.92 4.59,-19.12 5.8,-21.86 1.16,-2.64 4.41,-6.56 6.74,-7.41 5.36,-1.97 6.02,2.58 9.65,3.28 2.51,-5.23 2.22,-7.24 6.31,-11.22 2.66,-2.59 6.84,-5.66 11.22,-6.45 0.06,4.59 -0.02,9.38 -1.47,13.6 -1.49,4.34 -3.75,5.72 -5.75,9.22 1.34,2.96 4.7,4.13 4.18,8.56 -0.28,2.43 -3.04,6.3 -4.19,7.74 -2.5,3.14 -8.93,11 -11.68,12.29 -0.86,-7.65 5.54,-8.3 3.38,-13.76 -7.42,-1.15 -12.94,15.34 -2.98,21.49 9.45,5.84 20.14,-6.58 17.35,-11.32 -4.17,0.57 -3.76,5.7 -9.47,7.31 0.87,-4.19 4.57,-9.73 6.67,-13.4 5.31,-9.25 6.87,-7.44 10.43,-5.18 3.72,-3.65 5.23,-9.05 12.8,-9.35 -1.14,3 -3.84,6.94 -5.48,9.57 -5.54,8.92 -2.81,3.02 -8.04,6.61 -2.69,2.52 -0.87,5.7 -4.9,10.48 -2.27,2.69 -4.17,5.2 -6.6,8.06 -2.59,3.05 -7.59,5.02 -8.8,6.53 -2.56,3.19 1.29,6.7 -4.31,10.72 -2.93,-0.72 -22.71,-12.6 -48.07,-18.9 -9.33,-2.32 -18.32,-4.27 -28.59,-5.08 -10.6,-0.83 -28.15,-0.36 -32.29,-0.81 -0.31,-2.51 -1.09,-4.56 -0.34,-6.27 1.07,-2.45 1.69,-1.32 2.17,-5.31 -1.54,-2.97 -3.12,-2.89 -4.75,-6.82l-4.9 -16.61c-0.37,-4.02 2.2,-2.92 1.84,-8.41 -1.24,-0.81 -2.98,-1.55 -4.6,-2.01l-1.81 -18.95c2.23,0.62 1.93,0.79 3.4,2.73 0.86,1.14 1.32,1.84 2.07,3.25 1.62,3.08 2.09,5.22 2.29,9.27l4.27 -1.29c2.71,3.09 4.27,6.19 3.97,11.47 -0.27,4.8 0.92,10.95 0.53,14.37 -5.29,-2.55 -3.05,-10.47 -7.23,-12.23 -3.9,4.36 4.29,21.36 13.51,18.59 9.85,-2.95 12.38,-20.59 3.49,-20.86l-0.78 12.97c-3.11,-0.69 -2.92,-4.56 -4.03,-7.65 -2.97,-8.29 -9.03,-19.9 4.82,-21.61zm92.69 3.44c3.24,2 5.94,2.28 5.58,6.13 -2.06,-0.41 -10.1,-6.24 -16.19,-8.91 -11.67,-5.12 -16.56,-3.47 -15.78,-8.94 5.2,-0.22 21.17,8.5 26.38,11.71zm-110.15 -0.59c0.01,-3.02 0.11,-2.62 2.32,-3.96 2.9,-1.77 9.94,-6.08 12.19,-6.43 -0.55,3.9 -13.56,10.24 -14.51,10.39zm30.1 -13.76c1.59,-4.8 33.23,-2.74 36.26,-1.86 -0.55,4.74 -2.88,3.29 -7.23,2.62 -6.29,-0.97 -14.55,-0.88 -20.94,-0.28 -3.27,0.31 -6.26,1.47 -8.09,-0.48zm38.06 -5.01c-2.26,-8.88 3.12,-14.43 11.63,-12.34 3.41,0.83 5.55,2.97 6.47,6.31 1.24,4.5 -0.8,7.07 -2.08,9.92 -2.3,-1.54 -2.36,-3.3 -3.56,-6.35 -0.87,-2.2 -1.77,-4.57 -2.62,-6.47 -4.19,1.44 -6.41,8.79 -9.84,8.93zm3.31 -21.94c-0.47,-6.01 0.28,-4.85 4.59,-3.96 6.19,1.27 3.93,-2.93 3.6,-7.33 2.81,0.12 5.08,0.56 6.83,2.22 -0.99,2.22 -2.53,3.89 -2.1,7.3l7.19 -0.19 -1.84 6.17 -6.39 -2.34c-1.45,2.52 -0.82,2.62 -1.73,6.36l-4.68 -1.35 1.24 -5.62c-3.66,-1.74 -3.27,-0.65 -6.72,-1.26zm-72.31 81.05l-0.7 3.16c0.33,3.52 3.85,4.5 1.46,8.02 -7.95,-4.16 7.53,-7.28 -28.07,-7.02 -40.49,0.3 -34.7,-6.26 -42.47,27.27 -3.72,16.06 1.93,14.77 15.58,16.06l-32.86 80.9c-1.94,-5.28 -2.91,-98.9 -3.88,-113.69 -0.63,-9.64 -8.68,-13.31 -16.91,-9.37 -4.14,1.97 -8.39,13.91 -10.56,18.86 -17.77,40.51 -36.62,80.27 -54.82,120.55 -4.98,11.02 -20.74,37.25 -4.07,38.5 5.58,0.42 37.91,1.1 43.15,-0.63 4.85,-1.61 3.9,-4.47 6.86,-6.99 1.45,3.11 1.6,5.07 4.61,6.56 4.66,2.3 25.4,0.8 31.38,0.91 12.8,0.24 32.1,-1.02 43.85,0.53 0.7,3.28 -1.47,8.93 -1.43,13.09 0.05,5.79 1.71,6.92 3.05,11.34 -1.3,2.73 -4.16,5.73 -6.08,8.75 -16.37,25.72 6.01,51.15 43.19,26.54 9.81,-6.5 44.48,-29.11 44.53,-41.96 0.05,-11.92 -10.12,-7.36 -16.22,-4.29 0.09,-2.97 1.84,-3.6 1.15,-7.67 -0.53,-3.11 -2.04,-3.22 -2.82,-5.97 5.53,0.18 18.05,0.68 22.73,-0.7 7.23,-2.14 4.04,-7.9 15.42,-7.44 2.86,11.05 8.87,7.5 19.65,8.41 -0.88,2.59 -5.82,6.72 -8.17,11.85 -4.68,10.23 0.2,26.93 14.87,22.97 6.45,-1.74 2.34,-1.23 9.06,-0.64 4.11,0.36 4.77,-1.3 7.85,-1.95 7.11,3.8 9.95,6.81 18.58,1.35 4.69,-2.97 3.82,-0.96 8.42,0.5 5.52,1.75 6.35,-1.21 9.73,-1.36 3.53,-0.16 3.13,2.87 10.39,1.45 5.2,-1.02 4.53,0.88 8.87,2.23 7.77,2.41 13.73,-2.62 17.34,-5.72 2.99,1.22 4.26,4.22 9.7,3.29 1.9,-0.33 3.83,-1.31 6.25,-1.08 2.73,0.27 2.69,1.19 6.02,0.94 7.77,-0.59 3.69,-0.92 10.34,2.22 10.84,5.12 14.75,-5.04 19.76,-2.52 3.75,1.89 6.35,3.09 11.34,1.58 6.8,-2.06 6.74,0.7 12.48,-0.14 4.58,-0.67 5.6,-3.24 8.09,-5.66 4.5,1.45 6.39,7.27 15.21,5.65 8.33,-1.53 17.52,-14.18 21.49,-21.25 5.79,-10.32 -2,-12.06 -2.59,-14.33 -0.06,-0.24 -0.26,-0.25 -0.37,-0.38 2.82,-3.41 3.33,-0.97 4.6,-6.47 5.68,-24.49 23.52,-121.95 27.85,-128.81l5.49 0.19c0.24,2.31 -6.43,25.04 -7.55,29.87 -4.95,21.32 -9.02,43.04 -10.78,65.19 -1.84,23.23 1.72,20.66 2.63,33.35 -13.65,5.26 -25.51,31.55 -11.58,41.62 9.69,7 17.48,-1.86 22.67,-5.82 3.1,-2.37 7.06,-3.73 10.45,-6.22 3.6,-2.65 4.72,-4.73 7.73,-7.98 -0.9,3.63 -2.91,5.3 -2.58,10.44 0.24,3.84 2.64,6.55 5.04,8.29 3.72,2.7 6.34,1.89 10.67,0.65 5.29,-1.51 5.36,1.91 10.89,1.25 7.68,-0.92 3.64,-0.33 9.99,1.91 4.46,1.58 7.38,0.67 10.91,-1.19 7.02,-3.69 3.92,0.25 10.46,-0.02 4.68,-0.19 6.05,-2.78 9.34,-3.71 4.12,2.45 6.7,5.17 13.18,3.38 3.11,-0.86 3.89,-2.47 7.22,-1.71 3.6,0.82 2.35,1.98 7.02,0.5 4.17,-1.33 2.79,-0.37 6.27,1.65 7.43,4.33 13.53,0.89 19.65,-2.43 5.25,2.29 6.35,3.49 12.87,0.99 5.95,-2.27 5.84,2.01 12.01,-0.66 6.31,-2.74 4.12,0.55 10.43,2.46 9.14,2.77 14.4,-5.44 20.97,-9.03 4.18,-2.29 6.59,-2.72 9.72,-5.64 11.47,-10.65 8.22,-10.88 7.55,-21.3l15.16 -0.25c-0.51,2.48 -0.91,1.85 -1.31,4.28 -0.26,1.57 0.45,4.18 -1.01,4.91l-5.42 2.65c-4.59,3.8 -8.76,10.21 -7.62,16.96 1.21,7.18 8.54,13.92 19.41,4.99 7.03,3.08 8.08,8.08 17.88,0.79 7.06,2.5 9.48,7.47 17.33,-0.39 5.47,-5.47 6.8,-7.86 5.39,-17.33 5.3,-2.13 11.91,-9.98 15.18,-14.11 7.79,-9.83 24.45,-24.09 18.42,-36.92 -5.83,-12.4 -15.01,-5.58 -19,-3.39 -3.55,-1.13 -4.85,-3.94 -9.33,-3.8 -4.51,0.14 -6.15,3.31 -8.28,3.74 -3.87,0.77 -8.3,-9.24 -17.08,-0.26 -3.39,3.47 -7.28,10.24 -10.12,14.54 -1.52,2.3 -7.75,13.33 -9.44,13.95 -0.32,-14.59 -0.62,-29.26 -1.24,-43.82 -0.59,-13.86 -0.06,-29.86 -1.26,-43.35 -1.27,-14.32 -1.1,-28.88 -1.33,-43.34 -0.12,-7.26 -0.41,-14.47 -0.78,-21.77 -0.34,-6.8 0.24,-14.03 -5.36,-16.73 -2.47,-1.19 -6.97,-1.28 -10,-0.43 -6.44,1.81 -10.26,15.06 -12.77,20.55 -11.8,25.8 -23.75,51.04 -35,77.02l-6.85 14.31c-0.53,-4.57 5.82,-30.1 7.25,-36.61l11.64 -55.79c4.5,-20.8 -1.51,-20.03 -20.68,-19.62 -10.52,0.22 -9.72,1.78 -13.18,9.06 -4.78,-2.82 -2.66,-8.03 -11.9,-8.9 -8.03,-0.75 -32.12,-0.73 -40.91,-0.48 -13.68,0.4 -8.66,3.74 -14.66,5.91 -6.17,-5.2 -3.69,-4.29 -12.37,-6.16 0.41,-7.3 16.67,-29.25 -2.91,-28.34 -7.7,0.36 -9.15,5.85 -11.35,11.92 -1.94,5.35 -3.96,12.08 -6.14,16.5 -10.77,1.92 -8.78,-0.83 -17.2,6.79 -3.82,-2.49 -3.15,-6.22 -9.31,-6.67l-46.02 0.27c-5.51,-0.15 -8.96,0.54 -14.89,0.16 -4.82,-0.32 -10.22,-0.15 -15.1,-0.18 -5.02,-0.04 -10.36,-0.22 -15.34,-0.03 -6.82,0.26 -6.91,2.86 -11.32,3.83 -6.05,-0.83 4.46,-4.6 -30,-3.49 -8.98,0.29 -24.43,-3.44 -28.24,4.56 -2.21,4.65 -5.1,21.55 -6.41,27.67 -0.59,2.76 -4.33,25.68 -6.68,27.59 -1.65,-2.78 2.61,-17.8 3.32,-21.12 1.44,-6.73 2.71,-13.5 4.07,-20.37 1.41,-7.08 4.22,-15.75 -3.65,-17.94 -6.83,-1.9 -17.45,0.57 -23.32,-1.54 0.33,-3.1 5.07,-9.53 6.68,-12.21 1.44,-2.4 6.23,-9.59 6.6,-10.89 -5.26,0.22 -11.25,5.26 -15.7,5.73 -1.84,-2.1 -8.37,-10.53 -8.59,-12.72 -0.35,-3.6 1.35,-14.3 1.44,-19.32 -2.69,0.75 -5.63,2.58 -8.31,3.91 -12.04,5.95 -3.86,6.19 -23.03,-4.06 -4.89,-2.61 -10.97,-5.41 -16.34,-6.87 0.88,-4.09 3.95,-6.43 2.56,-12.02 -1.18,-4.74 -4.49,-5.89 -4.3,-10.25 4.03,-0.4 2.56,1.25 6.52,1.12 1.03,-1.88 2.69,-4.45 2.39,-7.86 -0.47,-5.45 -1.95,-3.18 -5.67,-3.41 0.32,-2.58 1.14,-2.66 2.23,-4.55 -3.26,-3.72 -7.05,-4.58 -13.13,-3.54 0.49,3.65 1.4,2.08 1.83,6.54 -3.68,-1.4 -1.2,-1.27 -4.27,-3.22 -3.67,2.21 -6.59,8.17 -3.44,12.95 2.5,0.76 2.14,-2.04 5.16,-0.05 -0.49,3.18 -5.68,4.86 -7.67,7.41 -2.93,3.74 -2.03,6.57 -1.57,11.79 -3.41,0.58 -11.59,-0.66 -15.82,-0.74 -20.33,-0.41 -18.15,5.16 -25.05,-4.07 -1,-1.34 -2.56,-3 -3.55,-4.47 -1.47,-2.19 -1.1,-3.8 -2.73,-4.93 -1.58,5.51 -2.69,12.16 -5.56,17.46 -1.32,2.43 -11.3,8.38 -13.77,9.4 -4.17,-3.08 -6.43,-10.78 -12.75,-14.41 0.18,4.32 1.87,10.76 2.48,15.59 0.52,4.08 0.63,13.73 1.34,16.74 0.58,2.44 5.74,8.3 8.24,27.68z"/>
   <path class="fil0" d="M47.65 108.69c3.24,-2.1 3.31,-3.72 7.52,-5.29 11.96,-4.46 11.16,6.11 18.68,2.67 3.25,-1.49 7.26,-1.76 10.96,-1.76 29.61,0 31.22,-2.13 32.37,25.47 0.26,6.36 0.73,13.02 0.85,19.41 0.07,3.63 -0.46,17.33 0.94,19.62 1.36,-1.34 0.7,-0.47 1.73,-2.51 0.4,-0.79 0.62,-1.44 1.02,-2.3l15.02 -34.32c6.04,-14.16 10.24,-30.57 29.41,-23.71 6.54,2.34 4.97,0.66 10.92,-0.66 3.81,-0.84 8.52,-1.13 12.15,0.23 6.89,2.6 8.35,10.53 8.43,19.65 0.06,7.08 0.5,51.26 1.3,54.57 1.69,-0.35 0.74,0.39 1.54,-1.62l11.67 -57.06c1.54,-7.51 2.7,-11.96 8.65,-14.73 5.35,-2.49 14.89,-2.69 20.09,0.17 5.15,2.83 6.63,8.57 6.6,16.67 -0.03,5.93 0.34,43.52 1.44,46.13 2,-1.04 2.34,-2.67 3.8,-5.68 6.54,-13.47 11.9,-27.93 19.47,-43.12 5.15,-10.32 5.29,-15.9 20.04,-16.05 7.26,-0.07 11.24,4.33 13.73,3.81 0.97,-0.2 4.39,-2.24 6.49,-2.86 5.44,-1.61 21.46,-0.94 27.77,-0.94 14.94,0 14.96,4.88 20,9.37 3.49,-1.66 4.42,-4.95 9.58,-7.13 8.04,-3.4 29.7,-2.23 39.74,-2.23 6.86,0 11.73,3.95 13.58,9.1 2.06,5.74 -0.65,14.3 -1.91,19.94 -4.73,21.21 -3.95,25.38 -25.94,24.83 -0.05,5.15 4.56,33.98 5.54,41.55 4.2,32.38 0.82,94.78 -40.62,94.78l-24.64 0c-8.04,0 -8.32,-1.54 -13.33,-4.26 -5.77,2.36 -5.19,3.67 -13.32,3.85 -7.88,0.17 -27.69,2.14 -34.41,-1.95 -4.56,-2.77 -3.67,-1.83 -8.13,0.46 -5.66,2.91 -14.57,2.13 -21.48,1.86 -16.3,-0.64 -7.54,-6.39 -17.21,-1.89 -8.7,4.05 -12.36,0.21 -18.1,-2.68 -6.28,2.43 -3.99,4.94 -18,4.37 -10.29,-0.42 -24.63,1.57 -32.44,-1.29 -6.27,-2.3 -3.31,-0.99 -8.33,0.77 -3.65,1.29 -35.3,0.77 -41.88,0.77 -6.29,0 -7.15,-1.78 -10.91,-2.35 -1.83,-0.28 -19.47,6.64 -25.11,-3.69l-1.97 -4c-3.36,3.55 -2.93,6.46 -8.61,8.13 -6.93,2.03 -8.84,-1.14 -13.45,-2.07 -3.38,3.53 -7.72,7.83 -15.58,5.65 -17.93,-4.98 -13.59,-34.06 -15.66,-49.12 -8.7,-2.5 -11.49,-7.25 -11,-17.29 0.97,-19.76 3.05,-14.92 5.3,-22.68 -4.08,-4.45 -5.34,-6.88 -4.93,-14.02 1.74,-30.15 8.08,-22.68 10.63,-27.91 0.95,-1.96 0.21,-15.04 -0.04,-18.07 -1.22,-14.92 -1.35,-20.73 6.3,-31.09 2.75,-3.73 5.28,-7.63 9.69,-9.72 5.81,-2.75 9.66,0.18 14.03,2.27zm440.28 58.11c5.78,2.45 6.99,6.43 8.16,13.33 2.58,-1.72 4.14,-7.58 5.35,-10.35l14.06 -31.94c2.87,-6.78 9.9,-26.5 15.61,-30.45 7.45,-5.14 25.56,-6.01 26.7,13.2 0.86,14.59 0.73,86.09 2.4,89.88 2.22,-2.01 21.45,-48.98 21.25,-51.94 -4.77,-2.25 -17.3,-1.34 -13.37,-20.1 1.5,-7.15 3.56,-23.03 6.92,-27.78 7.97,-11.26 47.07,-3.69 63.07,-6.13 -0.52,-7.03 -3.03,-16.37 -6.22,-21.06 -2.42,-3.56 -2.58,-17.87 -3.31,-24.13 -0.64,-5.52 -6.08,-20.96 2.8,-19.44 6.17,1.06 9.67,10.04 14.83,12.73 13.71,-5.82 9.01,-18.75 14.39,-25.12 2.32,-2.75 5.91,-1.29 7.44,1.76 3.17,6.35 4.23,13.61 12.57,13.01l23.86 -0.24c0.96,-2.25 0.75,-3.84 1.73,-6.17 0.9,-2.15 2.4,-3.35 2.89,-4.56 1.05,-2.55 -0.77,-8.85 0.73,-13.17 6.25,-17.95 31.48,-13.58 32.6,5.61 0.4,6.83 -2.34,7.62 -4.21,11.4 -0.86,1.73 -0.71,11.76 -0.71,14.77 3.27,1.36 7.33,2.75 10.7,4.51 14,7.32 10.03,8.68 20.65,3.31 1.99,-1 8.24,-4.3 10,-4.64 9.4,1.14 -2.36,24.73 7.08,31.01 4.83,3.21 12.92,-7.39 18,-4.09 7.8,5.06 -6.95,19.04 -7.92,24.51 6.89,0.25 12.8,-0.94 18.71,2.07 4.47,2.28 3.87,0.95 7.67,-0.57 8.08,-3.24 41.24,-2.19 48.63,-1.11 3.19,0.46 5.99,2.33 8.43,2.2 2.29,-0.13 4.46,-1.9 7.58,-2.32 5.38,-0.73 14.06,-0.32 19.8,-0.4l20 0.77c12.09,-0.41 51.56,-2.37 59.31,0.72 8.75,3.49 2.24,2.24 14.39,-0.97 7.15,-1.89 8.19,-20.82 14.79,-25.93 3.82,-2.96 11.67,-3.75 16.79,-1.81 4.79,1.82 8.25,6.6 7.67,13.33 -0.49,5.77 -5.05,11.42 -4.64,15.03 4.22,3.27 5.05,1.86 9.63,0.24 4.16,-1.47 7.39,-1.06 12.02,-0.98 10.44,0.19 30.24,-1.28 39.6,0.11 3.81,0.57 8.48,3.26 9.85,3.35 1.4,0.1 6.15,-4.11 22.54,-3.74 24.12,0.54 21.11,11.96 17.06,30.5 -2.26,10.34 -8.67,35.34 -9.21,44.36 3.01,-2.76 10.24,-22.43 11.76,-25.93 3.83,-8.84 7.64,-16.96 11.61,-25.73 3.4,-7.51 6.82,-19.6 15.23,-22.12 10.85,-3.25 20.77,0.29 22.38,12.69 1.28,9.84 0.81,25.68 1.18,36.27 0.42,11.96 1.35,24.76 0.93,36.65 -0.45,12.54 1.14,22.83 1.33,35.37 0.18,12.18 0.41,24.36 0.68,36.53 1.65,-0.86 6.98,-9.67 8.43,-11.82 6.71,-9.95 11.79,-9.68 20.61,-7.32 4.36,1.17 3.79,-0.23 7.6,-1.21 7.07,-1.81 7.35,2.35 17.37,0.25 12.38,-2.6 21.33,6.7 21.45,18.23 0.12,10.94 -8.24,18.69 -14.45,26 -3.18,3.74 -6.2,7.54 -9.32,11.35l-9.81 10.11c-0.77,1.38 -0.77,6.21 -1.85,8.88 -2.73,6.76 -7.9,12.65 -15.39,14.59 -4.42,1.14 -5.12,0.32 -8.81,-0.99 -4.61,-1.64 -4.34,-0.41 -8.13,0.78 -8.14,2.56 -9.3,-3.58 -15.74,-1.1 -6.39,2.46 -11.36,1.57 -15.95,-1.87 -6.66,-5 -3.88,-7.75 -6.97,-12.99 -2.47,0.9 -8.18,4.28 -9.94,6.01 -17.79,17.6 -24.5,3.63 -32.55,6.08 -3.58,1.09 -9.97,0.85 -14.37,1.64 -6.92,1.23 -8.13,-2.44 -12.73,-0.04 -12.84,6.69 -14.44,-1.24 -24.39,-1.25 -10.14,-0.01 -3.83,-0.77 -13.56,1.34 -7.43,1.61 -7.9,-1.28 -12.77,-2.08 -3.18,-0.52 -6.34,2.86 -12.63,1.92 -6.93,-1.03 -6.94,1.47 -13.02,1.89 -6.15,0.42 -9.22,-2.76 -13.23,-2.74 -2.84,0.01 -3.28,0.59 -6.9,-0.12 -2.72,-0.53 -3.3,-0.8 -6.31,-0.38 -16.07,2.23 -13.93,-4.08 -20.24,-10.42 -5.82,0.87 -7.48,4.26 -11.14,6.96 -7.76,5.72 -17.66,9.23 -26.16,2.46 -4.29,-3.42 -4.12,-6.19 -7.35,-10.19 -2.52,1.48 -3.46,3.7 -5.36,5.51 -5.72,5.45 -13.15,9.83 -21.5,6.25 -2.29,-0.98 -4.57,-3.1 -6.79,-2.55 -1.71,0.42 -3.72,2.38 -6.87,3.09 -3.91,0.88 -5.87,-0.04 -9.5,0.2 -3.34,0.22 -5.71,1.39 -9.24,1.06 -2.86,-0.26 -5.81,-2.14 -7.99,-1.97 -1.63,0.13 -4.5,2.12 -7.26,2.78 -7.85,1.9 -10.47,-1.46 -16.39,-2.51 -10.32,-1.82 -14.98,0.11 -18.38,-0.18 -2.62,-0.23 -5.44,-2.17 -7.87,-1.84 -1.39,0.19 -5,2.51 -6.63,3.24 -10.56,4.73 -13.71,-3.73 -35.25,-1.28 -4.99,0.57 -4.24,-0.4 -7.97,-1.18 -2.87,-0.6 -4.56,1.09 -7.19,2.05 -8.87,3.27 -10.34,-0.37 -16.65,-1.61 -8.87,-1.74 -22.23,6.59 -32.54,-3.44 -12.58,-12.24 -2.31,-25.62 -1.46,-29.43 -2.19,-1.38 -4.76,-0.91 -7.68,-2.77 -2.9,-1.85 -2.63,-2.96 -5.44,-4.87 -3.29,1.03 -4.07,3.91 -7.48,5.53 -3.22,1.53 -6.72,1.12 -10.47,1.51 2.2,5.46 12.5,7.98 3.26,22.61 -8.19,12.96 -40.97,36.64 -55.34,42.68 -18.49,7.77 -38.13,5.76 -43.38,-12.59 -5.68,-19.83 10.91,-27.12 8.6,-37.83 -1.28,-5.94 -0.39,-9.66 -1.07,-14.83 -20.33,-0.63 -41.1,0.52 -61.44,-0.23 -4.94,-0.18 -10.34,-2.8 -12,-2.81 -2.23,-0.02 -4.67,3.04 -11.96,2.99 -7.05,-0.04 -38.44,1.19 -43.64,-1.69 -3.19,-1.77 -5.92,-4.6 -6.94,-8.51 -3.53,-13.59 24.89,-56.15 24.37,-64.94 -4.06,-0.37 -18.19,-0.97 -21.02,0.35l-1.67 3.16c-0.28,1.05 -0.46,2.39 -0.62,3.29l-4.32 20.44c-2.25,9.13 -4.08,18.1 -5.91,27.47 -2.04,10.47 -2.95,18.61 -13.26,19.97 -8.08,1.07 -24.44,1.68 -30.11,-2.47 -8.21,-6 -5.26,-15.19 -2.82,-24.97 11.6,-46.63 13.8,-85.84 33.32,-132.82 9.83,-23.65 14.25,-28.82 36.6,-29.16 24.67,-0.38 44.84,-5.7 38.65,23.78 -6.46,30.75 -3.6,29.6 -36.39,29.71 -1.28,1.75 -2.07,4.65 -2.53,7.34 6.6,0 14.42,-1.16 19.97,1.2zm301.28 -90.72c-1.33,-7.37 2.53,-20.06 -2.44,-25.53 -6.74,-7.43 -13.22,-2.41 -20.25,0.95 -4.96,2.37 -5.07,2.92 -9.63,0.26 -3.31,-1.93 -12.06,-4.72 -12.62,-8.63 -0.88,-6.14 4.06,-9.75 4.75,-15.96 1.71,-15.42 -13.06,-29.54 -28.35,-26.83 -7.36,1.31 -12.8,6.74 -15.57,12.42 -1.69,3.46 -2.57,7.31 -2.59,11.73 -0.03,6.03 -1.19,6.08 -3.15,10.41 -7.2,-0.22 -18.52,1.77 -21.6,-1.34 -4.55,-4.6 -2.5,-10.26 -9.59,-13.06 -7.07,-2.79 -12.86,1.52 -14.64,6.67 -1.6,4.62 -2.11,10.51 -5.2,14.77 -1.07,1.48 -0.39,0.6 -1.46,1.29 -2.16,-0.89 -5.31,-4.37 -7.76,-6.31 -2.28,-1.81 -5.72,-4.22 -9.92,-3.43 -17.13,3.24 -5.15,21.73 -5.8,42.35 -0.31,9.96 8.17,15.42 5.36,21.34 -3.46,1.87 -34.61,0.85 -41.24,1.11 -17.66,0.68 -16.51,9.77 -22.01,18.74 -2.41,-1.78 -4.37,-10.08 -8.14,-13.66 -7.4,-7.03 -25.07,-6.8 -32.31,0.65 -4.37,4.5 -4.64,10.21 -7.5,13.63 -2.84,-0.88 -2.66,-1.63 -3.45,-4.42 -5.28,-18.58 -22.52,-15.17 -39.2,-15.01 -9.3,0.09 -20,-0.98 -27.68,3.28 -6.77,3.75 -13.25,14.7 -15.64,15.58 -5.04,-8.78 -3.6,-14.15 -14.42,-17.4 -7.61,-2.28 -21.06,-1.62 -29.57,-1.51 -20.89,0.25 -20.38,4.68 -26.17,5.37 -1.4,0.17 -8.06,-3.45 -11.16,-4.35 -8.73,-2.51 -20.88,-1.37 -30,-1.05 -5.86,0.21 -9.35,1.97 -13.4,2.37 -6.79,0.68 -12.77,-5.47 -26.29,-0.38 -10.79,4.06 -15.69,23.33 -23.41,35.97l-1.17 1.39c-0.04,-0.1 -0.24,0.18 -0.37,0.26 -2.44,-4.93 -1.2,-17.96 -3.03,-24.99 -4.1,-15.75 -24.9,-18.15 -37.06,-11.01 -7.4,4.34 -6.37,10.92 -9.79,16.31 -0.07,0.1 -0.32,0.51 -0.37,0.4 -0.05,-0.11 -0.27,0.27 -0.4,0.4 -0.83,-0.78 -0.34,0.3 -1.35,-1.7l-1.65 -5c-0.81,-2.18 -1.67,-4.15 -2.76,-5.92 -2.3,-3.75 -5.21,-5.75 -10.86,-7.19 -7.92,-2.02 -9.34,-0.19 -16.24,0.49 -5.6,0.56 -8.68,-2.52 -15.49,-1.47 -13.03,1.99 -14.86,6.04 -19.84,16.26 -2.07,4.26 -8.43,21.36 -12.07,24.45 -2.56,-8.46 -0.03,-15.28 -2.21,-24.49 -4.48,-18.97 -19.89,-16.56 -35.52,-16.43 -5.61,0.05 -7.06,0.38 -12.15,1.21 -3.7,0.6 -6.24,-1.44 -10,-2.45 -11.09,-2.98 -13.02,3.55 -21.14,2.91 -9.1,-0.71 -14.8,0.17 -19.41,5.58 -3.17,3.71 -8.8,10.89 -10.4,15.61 -2.23,6.58 -3.91,14.8 -3.09,22.31 3.51,32.17 -5.02,9.56 -9.28,41.46 -1.73,12.92 -2.03,10.17 1.76,21.86 1.64,5.06 -9.64,28.99 2.27,41.71 2.35,2.51 5.39,2.53 6.3,6.98 2.95,14.42 -2.5,38.39 17.8,47 3.67,1.56 7.35,1.95 11.71,0.97 4.38,-0.99 7.11,-3.5 9.32,-4.04 3.56,-0.88 3.06,2.75 10.12,0.79 1.84,-0.51 8.73,-2.99 9.56,-2.99 5.49,-0.03 9.39,6.09 21.58,3.34 6.38,-1.44 3.81,-1.55 9.95,0.27 3.72,1.1 7.87,0.72 11.76,0.71 8.67,-0 17.33,-0.01 26,0 17.18,0.02 7.3,-3.36 22.54,-0.46 6.17,1.17 30.71,1.08 38.39,0.06 3.19,-0.42 7.32,-2.29 10.26,-1.87 3.59,0.52 5.8,2.64 10.78,2.35 3.81,-0.22 7.15,-2.32 10.67,-2.14 3.76,0.2 6.31,1.9 11.32,2.03 8.11,0.23 16.31,0.18 23.95,-1.82 5.18,-1.36 5.8,-0.03 10.44,1.06 6.28,1.48 17.94,0.78 24.96,0.79 13.15,0.01 17.21,-3.41 22.49,-1.61 7.21,2.46 16.23,1.56 24.17,1.5 8.01,-0.06 16.56,0.64 24.07,-1.7 10.15,-3.15 10.63,-7.64 15.92,-10.24l2.78 2.81c0.93,1.15 1.49,1.81 2.49,2.82 6.49,6.55 13.9,6.42 23.38,6.42 26.29,-0 18.77,-3.1 29.99,-10.79 0.15,0.11 0.33,0.27 0.42,0.35 3.32,3.21 5,6.74 9.81,8.44 9.05,3.19 44.47,2.98 52.19,1.26 9.41,-2.11 7.37,0.47 15.53,0.74 9.42,0.31 52.09,-1.51 55.35,0.48 0.31,0.19 5.15,8.26 1.88,12.92 -22.55,32.05 1.33,68.94 42.71,52.05 19.1,-7.8 48.15,-29.15 59.63,-44.99 2.25,-3.11 4.39,-7.29 4.7,-12.3 0.39,-6.32 -1.97,-12.4 5.83,-11.81 4.55,1.81 0.18,12.45 2.81,20.93 4.32,13.99 16.21,20.02 30.02,17.14 3.97,-0.83 4.47,0.57 7.96,0.05 7.82,-1.17 10.69,2.37 17.05,2.09 5.84,-0.25 9.83,-3.65 15.33,-2.35 4.53,1.07 4.36,0.16 8.2,-0.35l17.56 1.94c14.45,3.85 16.12,-2.73 23.63,-2.52 3.65,0.1 3.57,2.21 7.98,0.94 7.73,-2.23 17.96,2.51 24.69,3.39 7.35,0.97 10.79,-2.48 17.34,-2.44 3.51,0.02 4.99,1.37 9.24,0.89 3.67,-0.42 4.11,-1.25 8.66,-0.94 7.22,0.5 11.56,-2.31 16.68,-1.57 6.64,0.97 9.24,3.94 17.05,0.98 5.17,-1.96 9.1,-6.69 11.66,-7.5 3.83,2.61 3.59,4.61 8.91,6.88 19.3,8.23 28.16,-5.3 33.75,-8.46 2.32,1.37 10.07,10.33 20.57,9.32 2.29,-0.22 3.37,-1.27 6.04,-1.18 4.58,0.16 14.38,2.29 18.58,3.34 5.93,1.48 7.77,-0.57 12.81,-1.27 5.11,-0.71 9.08,0.45 13.69,-1.06 5.58,-1.84 5.99,0.51 11.6,1.08 5.65,0.57 8.06,-2.02 13.34,-1.8 10.78,0.44 15.44,5.82 26.2,3.16 1.95,-0.49 3.93,-1.22 5.82,-1.67 3.98,-0.94 6.69,0.69 13.58,-0.92 4.45,-1.04 3.23,0.01 6.49,0.45 3.86,0.52 3.21,-1.48 6.51,-1.33 7.13,0.32 14.14,7.51 28.19,-1.89 2.78,-1.86 6.23,-5.8 7.86,-6.55 5.11,3.09 8.48,16.09 26.85,11.92 8.49,-1.93 9.29,2.56 17.01,0.4 8.54,-2.38 9.12,1.78 16.74,0.03 6.08,-1.4 10.46,-3.99 13.36,-7.31 9.38,-10.76 5.72,-13.93 15.75,-25.6l9.51 -11.14c4.46,-5.6 14.26,-16.5 16.91,-24.45 3.52,-10.59 -0.99,-23.56 -9.21,-29.74 -3.27,-2.46 -10.24,-5.37 -15.26,-4.47 -2.87,0.51 -5.16,1.84 -8.72,1.33 -3.69,-0.53 -5.14,-2.02 -8.93,-1.27 -3.87,0.77 -4.35,1.92 -9.22,1.28 -3.71,-0.49 -4.86,-1.92 -8.67,-1.41 -4.87,0.65 -12.66,5.55 -14.51,5.33 -1.33,-6.64 -0.83,-18.65 -0.99,-25.88 -0.38,-16.92 -1.59,-92.61 -4.05,-101.92 -2.12,-8.04 -5.35,-11.69 -12.71,-13.99 -6.89,-2.14 -17,-0.78 -22.36,2.65 -4.73,3.02 -7.54,10.38 -9.98,16 -2.64,-1.19 -2.8,-2.13 -3.71,-5.24 -0.83,-2.83 -1.13,-3.86 -2.58,-6.11 -2.31,-3.57 -4.83,-5.58 -10.12,-7.14 -7.06,-2.08 -23.67,-2.06 -30.7,0.11 -7.1,2.19 -7.32,-0.62 -14.36,-1.28 -15.72,-1.49 -35.64,1.95 -50.74,-0.43 -0.53,-4.4 1.1,-5.85 0.74,-9.31 -0.79,-7.64 -4.46,-15.08 -11.91,-17.5 -5.79,-1.89 -11.77,-2.06 -17.52,0.01 -10.28,3.71 -12.61,13.57 -16.01,23.31 -1.9,5.45 -7.31,6.83 -12.53,5.4 -10.2,-2.79 -25.49,-1.76 -36.7,-1.76 -6.26,-0 -13.93,-0.4 -20.01,0.04 -3.8,0.28 -3.75,1.36 -8.32,0.66 -7.81,-1.18 -29.98,-1.43 -37.53,0.03 -12.48,2.41 -4.78,0.61 -15.23,-0.44 -6.54,-0.66 -42.93,-0.58 -47.13,0.6 -3.08,0.86 -4.58,1.68 -7.72,0.9 -2.29,-0.57 -5.46,-1.25 -6.94,-2.65 0.59,-5.53 8.31,-12.59 0.98,-20.73 -7.25,-8.05 -13.9,0.12 -20.33,-0.37z"/>
   <path class="fil0" d="M136.44 245.71c-0.67,-3.6 6.46,-15.26 8.29,-19.38 1.39,-3.15 6.41,-16.95 8.75,-18.52l1.02 38.25 -18.06 -0.35zm216.63 0.18c-16.3,0.34 -13.9,1.99 -9.93,-11.07 1.35,-4.42 3.68,-17.89 5.11,-20.69 1.24,1.42 5.24,28.06 4.81,31.77zm-285.4 -59.55c1.5,-1.04 2.35,-1.99 4.83,-2.67l-0.16 9.02 -4.68 0.02 0.01 -6.38zm248.02 -68.77c2.15,-0.46 27.46,-0.63 29.81,-0.21 6.4,1.15 6.2,12.09 6.26,16.54 0.04,3.38 0.73,4.02 0.85,6.1l-6.86 53.46c-2.92,16.35 -18.76,82.4 -32.83,87.85 -2.63,1.02 -25.69,0.88 -30,0.61 -8.46,-0.54 -7.41,-14.79 -7.52,-22.66 -0.28,-19.52 2.93,-36.01 6.28,-54.54 2.25,-12.4 18.24,-83.8 34.01,-87.15zm-256.69 102.16c-0.67,9.95 -0.68,21.49 -0.57,31.53 0.05,4.87 1.4,26.95 0.7,29.49 -7.63,0.27 -7.28,-18.18 -7.48,-25.48 -0.23,-8.15 0.05,-24.6 -1.54,-31.83 -1.64,0.3 -10.6,3.83 -11.66,7.29 -1.25,4.08 -0.94,30.79 -0.78,36.55 0.15,5.52 1.22,11.81 0.97,17.09 -7.49,1.08 -6.99,-15.6 -7.4,-22.46 -0.59,-9.97 -0.89,-19.81 -1.26,-29.81 -3.85,-0.8 -7.1,3.37 -11.38,2.32 -0.85,-28.65 11.42,-16.81 11.55,-27.19l-0.58 -13.47c-4.22,0.23 -6.38,3.78 -10.13,3 -1.28,-2.94 0.4,-8.26 0.77,-11.58 0.54,-4.86 0.32,-6.42 3.97,-8.78 5.83,-3.76 6.49,-0.13 6.24,-19.2 -0.09,-6.85 -1.76,-18.66 -0.67,-24.53 0.71,-3.82 6.03,-14.68 10.42,-14.71 1.49,5.07 0.85,45.64 0.8,53.76l9.6 -2.85c0.78,-10.73 0.56,-21.05 -0.29,-31.66 -0.53,-6.66 -0.38,-8.94 2.66,-14.08 1.8,-3.05 5.01,-6.88 7.38,-8.42 3.65,4.78 -0.19,43.23 1.79,51.46l10.06 -3.46c1.5,6.67 -3.79,15.37 -11.77,19.19l-0.6 21.97c4.25,-0.26 7.24,-3.07 12.18,-3.7 -0.35,12.53 -5.68,14.65 -12.99,19.56zm46.17 61.99c-1.11,-4.11 4.95,-15.05 6.73,-18.81 2.81,-5.95 5.43,-11.74 8.15,-17.85 7.57,-16.95 15.34,-32.85 22.32,-49.67 0.73,-1.76 1.24,-2.01 2.16,-3.86 2.93,-5.93 5.25,-11.9 8.07,-17.98 6.27,-13.54 17.82,-41.29 24.27,-53.78 0.96,-1.86 1.29,-2.46 4.16,-2.69 5.74,-0.45 4.7,2.71 4.4,13.39 -0.46,16.11 0.93,34.67 1.37,50.85 0.44,16.36 0.57,34.56 1.83,50.1 0.18,2.27 2.22,48.22 -0.21,50.1 -1.73,1.34 -15.68,0.39 -19.47,0.44 -1.17,0.02 -4.37,0.21 -5.36,-0.65 -2.05,-2.44 -1.41,-21.11 -1.55,-26.04 -0.25,-8.71 -0.54,-17.29 -0.79,-26.01 -0.5,-17.49 -0.54,-34.63 -1.7,-52.16 -2.13,1.95 -15.2,31.98 -17.7,37.69 -2.32,5.31 -17.03,35.36 -16.47,38.46l28.13 0.13c0.27,2.96 -4.83,25.72 -6.07,28.38 -3.65,0.99 -37.3,0.58 -42.27,-0.04zm255.76 -28.57c0.63,-2.56 -4.74,-37.98 -5.6,-44.23 -2.16,-15.66 -3.67,-32.16 -0.98,-47.35 2.21,-12.49 6.41,-27.46 13.99,-37.63 5.15,-6.91 7.85,-6.62 18.59,-6.61 5.23,0 21.14,-0.96 24.66,0.73 0.81,2.8 -3.84,23.5 -5.07,27.45 -6.73,1.76 -19.3,-1.03 -24.45,1.03 -0.45,4.18 1.71,18.65 2.59,22.84 1.22,5.76 1.92,15.88 2.83,22.9 3.08,23.87 6.26,65.88 -11.85,83.7 -4.9,4.82 -9.66,6.04 -19.37,6.08l-19.36 0.15c-0.86,0.01 -2.47,0.03 -3.27,-0.12 -4.17,-0.82 -2.64,-2.92 -2.33,-4.32 1.13,-5.03 4.53,-22.26 5.79,-24.38l23.82 -0.25zm-169.29 28.78c-0.92,-5.94 24.74,-122.64 29.93,-147.46 0.74,-3.55 1.45,-6.9 2.2,-10.47 1.1,-5.28 0.22,-6.72 5.86,-6.72 7.6,0 5.2,2.91 5.51,9.94 0.2,4.63 0.21,8.56 0.31,13.32 0.25,12.15 1.85,79.71 2.84,82.08 0.11,-0.11 0.24,-0.29 0.3,-0.37l36.9 -79.08c4.02,-7.92 8.3,-19.79 12.83,-25.86 6.56,-0.67 7.89,-0.25 7.68,2.89l-16.85 79.91c-2.03,9.61 -15.81,78.3 -17.6,81.7l-20.46 -0.02c-1,-4.23 4.67,-26.6 5.88,-32.41l6.15 -27.83c0.41,-2.09 0.43,-2.6 -0.17,-3.48l-23 50.22c-3.66,8.65 -4.76,13.24 -10.28,13.61 -3.09,-10.04 -3.78,-60.44 -5.38,-65.03 -1.86,2.74 -6.31,28.48 -7.5,34.19 -1.21,5.83 -2.36,11.45 -3.54,17.13 -3.2,15.48 -0.55,14.35 -11.62,13.75zm-101.18 -1.84c-1.12,1.74 -2.04,2.27 -4.83,2.09 -4.99,-0.32 -3.35,-4.36 -3.66,-16.26 -0.44,-16.88 -0.91,-33.78 -1.35,-50.68l-0.98 -18.7c-0.12,-2.1 0.3,-3.56 0.24,-5.96l-1.69 -64.05c-0.15,-4.87 -1.78,-9.44 3.55,-9.44 6.69,-0.01 15.95,-0.41 22.3,0.27 0.61,7.75 3.32,101.78 4.28,104.49 1.66,-1.53 2.5,-4.3 3.44,-6.46 10.9,-25.05 23.84,-51.57 34.18,-75.85 2.06,-4.84 4.03,-8.94 6.24,-13.77 2.31,-5.05 2.85,-10.63 10.18,-8.15l-71.9 162.46zm-42.66 -162.54c-0.88,-1.15 -6.66,-11.84 -13.82,-5.39 -1.8,1.62 -7.76,10.03 -9.3,13.4 -3.85,8.42 -1.34,30.88 -1.88,42.33 -2.91,3.56 -5.29,2.46 -7.54,6.94 -1.58,3.13 -4.98,20.48 -2.04,25.53 2.5,4.3 5.68,2.85 9.46,5.55 -3.29,3.7 -9.34,3.19 -10.83,18.27 -1.77,17.97 3.06,16.28 9.64,18.59 5.2,1.83 -0.4,33.01 6.91,43.79 3.13,4.61 11.22,8.16 15.56,1.68 4.04,-6.03 -2.27,-15.84 1.06,-21.8 1.51,8.75 1.77,15.7 7.5,20.01 2.86,2.15 6.29,3.24 9.99,1.03 3.67,-2.19 4.05,-5.36 3.96,-10.19 -0.3,-17.5 -1.63,-36.18 -0.16,-53.57 2.44,-1.34 4.57,-3.44 7.18,-5.09 1.53,14.42 1.02,33.09 1.44,47.97 0.18,6.61 -1,18.19 3.96,20.79 2.76,1.45 8.17,1.88 11.32,1.17 1.66,-0.37 2.82,-1.09 3.82,-2.24 1.51,-1.74 1.27,-2.44 2.97,-3.84 6.61,4.07 -4.95,7.28 29.99,6.86 21,-0.25 23.19,1.52 28.71,-8 2.61,4 0.23,7.88 12.6,7.87 46.71,-0.06 35.21,2.19 41.77,-20.79l0.55 1.02c2.03,5.28 -1.2,16.49 6.73,19.43 10.89,4.04 14.76,-8.92 15.98,-10.78 1.47,11.9 4.9,11.12 16.96,11.11 11.66,-0.01 16.73,0.86 19.06,-9.61 3.96,2.31 3.28,6.75 9.21,8.79 3.72,1.28 30.93,1.11 34.61,0.37 5.71,-1.14 7.45,-5.28 10.44,-7.31 4.95,6.22 -2.08,7.6 20,7.58 8.71,-0.01 18.3,1.25 26.39,-1.33 12.36,-3.95 20.44,-17.75 23.63,-32.4 4.03,-18.47 3.79,-32.19 2.14,-51.5 -0.69,-8 -6.73,-46.29 -5.44,-50.38 14.97,-1.77 20.23,4.83 24.15,-11.97 8.67,-37.23 5.6,-31.19 -33.54,-31.27 -15.37,-0.03 -15.84,8.44 -21.99,15.13l-1.44 -3.5c-0.44,-1.47 -0.64,-2.13 -1.19,-3.32 -4.22,-9.02 -9.15,-8.5 -20.69,-8.38 -6.06,0.07 -13.46,-0.24 -19.36,0.24 -7.96,0.65 -8.76,5.27 -12.63,6.87 -3.32,-4.76 -2.97,-6.98 -10.67,-7.23 -7.02,-0.22 -9.94,0.77 -12.45,6.13 -3.98,8.47 -7.7,17.14 -11.77,25.54l-23.75 50.08c-1.94,-3.19 -2.39,-50.58 -2.62,-58.54 -0.27,-9.23 1.35,-20.91 -7.76,-22.87 -12.78,-2.75 -15.68,4 -17.67,12.85 -1.87,8.34 -19.53,97.16 -21.72,101.82 -2.55,-8.24 -1.05,-85.48 -3.61,-106.48 -0.71,-5.85 -3.68,-8.65 -9.93,-8.66 -9.52,-0.01 -8.41,5.17 -12.01,6.61 -1.31,-2.46 -2.29,-7.47 -10.63,-7.25 -5.92,0.15 -8.33,3.41 -10.41,7.63l-33.61 74.19c-1.84,-2.91 -2.87,-50.95 -3.3,-61.16 -0.27,-6.22 0.59,-15.16 -3.71,-18.37 -4.15,-3.09 -13.98,-1.99 -19.65,-1.98 -23.39,0 -17.04,9.43 -16.38,36.36 0.19,7.85 1.01,8.65 -2.28,9.48 -1.95,-3.33 -0.88,-31.86 -1.49,-38.78 -0.48,-5.46 -4.12,-10.67 -10.1,-9.04 -5.52,1.51 -6.74,7.38 -10.28,10.02z"/>
   <path class="fil1" d="M943 285.27l4.62 -21.38c0.24,0.55 0.1,-0.08 0.54,1.44 0.19,0.67 0.22,0.94 0.32,1.62l0.86 12.97 -6.34 5.36zm-476.72 -131.38c-1.15,3.51 -4.98,13 -4.58,16.45 6.1,0.28 12.38,-0.08 18.42,0.27 6.38,0.36 10.04,1.95 10.16,8.6 0.07,3.9 -5.17,27.79 -6.8,30.64 -5.17,9.05 -28.79,0.95 -31.69,5.6 -1.88,3.02 -10.88,52.63 -13.2,61.51 -3.08,11.82 -3.84,13.3 -25.01,12.26 -15.95,-0.79 -13.09,-7.28 -9.84,-23.2 2.08,-10.18 4.21,-20.54 6.55,-30.74 7.76,-33.85 16.86,-91.1 34.3,-115.06 7.94,-10.9 9.25,-10.72 26.36,-10.11 16.39,0.58 29.55,-2.91 31.71,5.93 1.14,4.67 -3.66,26.87 -5.36,31.53 -3.65,10.08 -20.65,4.1 -31.03,6.31zm177.22 -47.98c-2.49,-19.38 -7.66,-25.24 -8.24,-27.68 -0.71,-3.01 -0.82,-12.66 -1.34,-16.74 -0.62,-4.83 -2.3,-11.27 -2.48,-15.59 6.32,3.63 8.58,11.33 12.75,14.41 2.46,-1.01 12.45,-6.96 13.77,-9.4 2.87,-5.29 3.99,-11.95 5.56,-17.46 1.63,1.13 1.26,2.74 2.73,4.93 0.99,1.47 2.55,3.13 3.55,4.47 6.9,9.23 4.72,3.66 25.05,4.07 4.22,0.09 12.41,1.32 15.82,0.74 -0.46,-5.22 -1.36,-8.05 1.57,-11.79 1.99,-2.54 7.18,-4.22 7.67,-7.41 -3.03,-2 -2.66,0.81 -5.16,0.05 -3.16,-4.78 -0.23,-10.74 3.44,-12.95 3.07,1.95 0.58,1.82 4.27,3.22 -0.43,-4.46 -1.34,-2.89 -1.83,-6.54 6.08,-1.04 9.87,-0.18 13.13,3.54 -1.09,1.89 -1.91,1.97 -2.23,4.55 3.71,0.23 5.19,-2.04 5.67,3.41 0.29,3.41 -1.36,5.98 -2.39,7.86 -3.96,0.13 -2.49,-1.52 -6.52,-1.12 -0.19,4.36 3.12,5.51 4.3,10.25 1.39,5.59 -1.68,7.93 -2.56,12.02 5.37,1.46 11.45,4.25 16.34,6.87 19.17,10.25 10.99,10.01 23.03,4.06 2.68,-1.33 5.63,-3.16 8.31,-3.91 -0.09,5.01 -1.79,15.72 -1.44,19.32 0.21,2.19 6.74,10.61 8.59,12.72 4.45,-0.48 10.45,-5.52 15.7,-5.73 -0.37,1.3 -5.16,8.49 -6.6,10.89 -1.61,2.68 -6.34,9.11 -6.68,12.21 5.86,2.11 16.48,-0.36 23.32,1.54 7.87,2.19 5.05,10.86 3.65,17.94 -1.36,6.86 -2.63,13.63 -4.07,20.37 -0.71,3.33 -4.97,18.35 -3.32,21.12 2.34,-1.92 6.09,-24.83 6.68,-27.59 1.3,-6.12 4.19,-23.02 6.41,-27.67 3.81,-8 19.26,-4.27 28.24,-4.56 34.45,-1.11 23.94,2.66 30,3.49 4.41,-0.97 4.49,-3.57 11.32,-3.83 4.98,-0.19 10.33,-0.01 15.34,0.03 4.88,0.04 10.28,-0.13 15.1,0.18 5.92,0.39 9.37,-0.3 14.89,-0.16l46.02 -0.27c6.17,0.44 5.49,4.18 9.31,6.67 8.42,-7.62 6.44,-4.87 17.2,-6.79 2.19,-4.42 4.2,-11.15 6.14,-16.5 2.2,-6.07 3.65,-11.56 11.35,-11.92 19.59,-0.91 3.32,21.04 2.91,28.34 8.68,1.87 6.2,0.96 12.37,6.16 6,-2.16 0.98,-5.51 14.66,-5.91 8.8,-0.26 32.89,-0.27 40.91,0.48 9.24,0.86 7.12,6.07 11.9,8.9 3.45,-7.28 2.66,-8.83 13.18,-9.06 19.18,-0.41 25.18,-1.18 20.68,19.62l-11.64 55.79c-1.42,6.51 -7.78,32.05 -7.25,36.61l6.85 -14.31c11.25,-25.97 23.2,-51.22 35,-77.02 2.51,-5.48 6.32,-18.73 12.77,-20.55 3.04,-0.85 7.54,-0.76 10,0.43 5.6,2.69 5.02,9.93 5.36,16.73 0.37,7.3 0.66,14.51 0.78,21.77 0.23,14.47 0.06,29.03 1.33,43.34 1.2,13.49 0.67,29.5 1.26,43.35 0.62,14.55 0.92,29.23 1.24,43.82 1.69,-0.61 7.92,-11.65 9.44,-13.95 2.84,-4.3 6.73,-11.07 10.12,-14.54 8.78,-8.98 13.21,1.03 17.08,0.26 2.12,-0.42 3.77,-3.6 8.28,-3.74 4.48,-0.14 5.78,2.66 9.33,3.8 3.99,-2.19 13.17,-9.01 19,3.39 6.04,12.83 -10.62,27.09 -18.42,36.92 -3.28,4.13 -9.88,11.98 -15.18,14.11 1.41,9.48 0.08,11.86 -5.39,17.33 -7.85,7.86 -10.28,2.89 -17.33,0.39 -9.8,7.29 -10.85,2.29 -17.88,-0.79 -10.87,8.93 -18.19,2.19 -19.41,-4.99 -1.14,-6.75 3.03,-13.16 7.62,-16.96l5.42 -2.65c1.46,-0.73 0.75,-3.34 1.01,-4.91 0.41,-2.43 0.8,-1.8 1.31,-4.28l-15.16 0.25c0.67,10.42 3.92,10.65 -7.55,21.3 -3.14,2.91 -5.54,3.35 -9.72,5.64 -6.57,3.6 -11.83,11.81 -20.97,9.03 -6.32,-1.92 -4.12,-5.2 -10.43,-2.46 -6.17,2.68 -6.06,-1.61 -12.01,0.66 -6.52,2.49 -7.62,1.29 -12.87,-0.99 -6.12,3.32 -12.22,6.75 -19.65,2.43 -3.47,-2.02 -2.1,-2.97 -6.27,-1.65 -4.67,1.48 -3.41,0.32 -7.02,-0.5 -3.33,-0.76 -4.11,0.85 -7.22,1.71 -6.48,1.79 -9.06,-0.93 -13.18,-3.38 -3.29,0.93 -4.66,3.51 -9.34,3.71 -6.54,0.27 -3.44,-3.68 -10.46,0.02 -3.53,1.86 -6.44,2.77 -10.91,1.19 -6.35,-2.24 -2.31,-2.83 -9.99,-1.91 -5.53,0.67 -5.61,-2.76 -10.89,-1.25 -4.33,1.24 -6.95,2.04 -10.67,-0.65 -2.4,-1.74 -4.8,-4.45 -5.04,-8.29 -0.32,-5.14 1.68,-6.81 2.58,-10.44 -3.01,3.25 -4.13,5.33 -7.73,7.98 -3.38,2.49 -7.35,3.86 -10.45,6.22 -5.19,3.96 -12.98,12.83 -22.67,5.82 -13.93,-10.06 -2.07,-36.35 11.58,-41.62 -0.92,-12.69 -4.48,-10.12 -2.63,-33.35 1.76,-22.15 5.83,-43.87 10.78,-65.19 1.12,-4.83 7.79,-27.57 7.55,-29.87l-5.49 -0.19c-4.33,6.85 -22.17,104.32 -27.85,128.81 -1.28,5.5 -1.78,3.06 -4.6,6.47 0.12,0.13 0.31,0.15 0.37,0.38 0.59,2.27 8.39,4 2.59,14.33 -3.97,7.08 -13.16,19.73 -21.49,21.25 -8.82,1.62 -10.72,-4.21 -15.21,-5.65 -2.49,2.42 -3.51,4.99 -8.09,5.66 -5.74,0.84 -5.68,-1.92 -12.48,0.14 -4.99,1.51 -7.59,0.31 -11.34,-1.58 -5.01,-2.52 -8.92,7.63 -19.76,2.52 -6.65,-3.14 -2.57,-2.81 -10.34,-2.22 -3.33,0.25 -3.29,-0.67 -6.02,-0.94 -2.42,-0.24 -4.35,0.75 -6.25,1.08 -5.44,0.93 -6.71,-2.06 -9.7,-3.29 -3.61,3.09 -9.57,8.13 -17.34,5.72 -4.34,-1.35 -3.67,-3.25 -8.87,-2.23 -7.26,1.42 -6.86,-1.61 -10.39,-1.45 -3.38,0.15 -4.21,3.12 -9.73,1.36 -4.6,-1.46 -3.72,-3.47 -8.42,-0.5 -8.63,5.46 -11.47,2.45 -18.58,-1.35 -3.08,0.65 -3.74,2.31 -7.85,1.95 -6.72,-0.58 -2.61,-1.1 -9.06,0.64 -14.67,3.96 -19.55,-12.74 -14.87,-22.97 2.35,-5.13 7.29,-9.26 8.17,-11.85 -10.79,-0.91 -16.79,2.63 -19.65,-8.41 -11.38,-0.46 -8.19,5.3 -15.42,7.44 -4.67,1.38 -17.19,0.88 -22.73,0.7 0.77,2.75 2.29,2.86 2.82,5.97 0.69,4.08 -1.06,4.7 -1.15,7.67 6.1,-3.08 16.27,-7.63 16.22,4.29 -0.05,12.85 -34.73,35.46 -44.53,41.96 -37.17,24.62 -59.55,-0.82 -43.19,-26.54 1.92,-3.02 4.78,-6.02 6.08,-8.75 -1.34,-4.41 -3,-5.55 -3.05,-11.34 -0.04,-4.16 2.13,-9.81 1.43,-13.09 -11.74,-1.55 -31.05,-0.29 -43.85,-0.53 -5.98,-0.11 -26.72,1.39 -31.38,-0.91 -3.01,-1.49 -3.17,-3.45 -4.61,-6.56 -2.96,2.52 -2.01,5.38 -6.86,6.99 -5.24,1.74 -37.57,1.05 -43.15,0.63 -16.67,-1.25 -0.91,-27.48 4.07,-38.5 18.21,-40.29 37.06,-80.04 54.82,-120.55 2.17,-4.96 6.42,-16.89 10.56,-18.86 8.23,-3.93 16.28,-0.26 16.91,9.37 0.97,14.79 1.94,108.41 3.88,113.69l32.86 -80.9c-13.66,-1.28 -19.3,0 -15.58,-16.06 7.77,-33.53 1.98,-26.97 42.47,-27.27 35.6,-0.26 20.12,2.86 28.07,7.02 2.38,-3.53 -1.13,-4.51 -1.46,-8.02l0.7 -3.16zm60.95 -63.86l-23.86 0.24c-8.34,0.61 -9.4,-6.66 -12.57,-13.01 -1.53,-3.05 -5.12,-4.51 -7.44,-1.76 -5.38,6.37 -0.68,19.3 -14.39,25.12 -5.16,-2.69 -8.67,-11.67 -14.83,-12.73 -8.87,-1.53 -3.44,13.92 -2.8,19.44 0.73,6.26 0.88,20.57 3.31,24.13 3.19,4.68 5.7,14.03 6.22,21.06 -16.01,2.43 -55.11,-5.14 -63.07,6.13 -3.36,4.76 -5.42,20.63 -6.92,27.78 -3.94,18.76 8.59,17.85 13.37,20.1 0.21,2.95 -19.03,49.93 -21.25,51.94 -1.67,-3.79 -1.53,-75.29 -2.4,-89.88 -1.14,-19.22 -19.25,-18.35 -26.7,-13.2 -5.72,3.95 -12.75,23.67 -15.61,30.45l-14.06 31.94c-1.2,2.77 -2.76,8.62 -5.35,10.35 -1.17,-6.9 -2.38,-10.88 -8.16,-13.33 -5.56,-2.36 -13.38,-1.2 -19.97,-1.2 0.46,-2.69 1.25,-5.59 2.53,-7.34 32.79,-0.11 29.93,1.04 36.39,-29.71 6.19,-29.48 -13.99,-24.16 -38.65,-23.78 -22.34,0.35 -26.77,5.52 -36.6,29.16 -19.52,46.98 -21.71,86.19 -33.32,132.82 -2.44,9.78 -5.38,18.97 2.82,24.97 5.67,4.15 22.03,3.53 30.11,2.47 10.3,-1.36 11.22,-9.5 13.26,-19.97 1.83,-9.38 3.66,-18.34 5.91,-27.47l4.32 -20.44c0.16,-0.9 0.34,-2.23 0.62,-3.29l1.67 -3.16c2.83,-1.32 16.96,-0.72 21.02,-0.35 0.52,8.79 -27.9,51.35 -24.37,64.94 1.02,3.91 3.75,6.74 6.94,8.51 5.2,2.88 36.58,1.65 43.64,1.69 7.29,0.04 9.73,-3.01 11.96,-2.99 1.66,0.01 7.05,2.63 12,2.81 20.33,0.75 41.11,-0.4 61.44,0.23 0.68,5.17 -0.21,8.89 1.07,14.83 2.31,10.71 -14.28,17.99 -8.6,37.83 5.26,18.35 24.89,20.36 43.38,12.59 14.37,-6.04 47.16,-29.72 55.34,-42.68 9.24,-14.63 -1.05,-17.15 -3.26,-22.61 3.75,-0.38 7.25,0.02 10.47,-1.51 3.41,-1.62 4.18,-4.49 7.48,-5.53 2.81,1.91 2.55,3.02 5.44,4.87 2.92,1.87 5.49,1.39 7.68,2.77 -0.85,3.82 -11.12,17.2 1.46,29.43 10.31,10.03 23.67,1.7 32.54,3.44 6.32,1.24 7.78,4.88 16.65,1.61 2.63,-0.97 4.33,-2.65 7.19,-2.05 3.74,0.78 2.98,1.75 7.97,1.18 21.54,-2.46 24.69,6 35.25,1.28 1.63,-0.73 5.24,-3.04 6.63,-3.24 2.43,-0.34 5.25,1.61 7.87,1.84 3.4,0.29 8.05,-1.64 18.38,0.18 5.92,1.05 8.54,4.41 16.39,2.51 2.75,-0.67 5.63,-2.65 7.26,-2.78 2.19,-0.17 5.13,1.71 7.99,1.97 3.52,0.32 5.89,-0.84 9.24,-1.06 3.63,-0.24 5.59,0.68 9.5,-0.2 3.15,-0.71 5.16,-2.67 6.87,-3.09 2.22,-0.54 4.5,1.57 6.79,2.55 8.35,3.58 15.77,-0.8 21.5,-6.25 1.9,-1.81 2.83,-4.03 5.36,-5.51 3.24,4 3.07,6.77 7.35,10.19 8.5,6.77 18.4,3.27 26.16,-2.46 3.66,-2.7 5.32,-6.09 11.14,-6.96 6.31,6.35 4.17,12.65 20.24,10.42 3.01,-0.42 3.59,-0.15 6.31,0.38 3.62,0.71 4.06,0.13 6.9,0.12 4.01,-0.02 7.08,3.16 13.23,2.74 6.08,-0.42 6.09,-2.92 13.02,-1.89 6.29,0.94 9.45,-2.44 12.63,-1.92 4.86,0.79 5.34,3.69 12.77,2.08 9.74,-2.11 3.43,-1.35 13.56,-1.34 9.94,0.01 11.54,7.94 24.39,1.25 4.6,-2.4 5.81,1.27 12.73,0.04 4.4,-0.78 10.79,-0.55 14.37,-1.64 8.04,-2.45 14.76,11.52 32.55,-6.08 1.75,-1.73 7.46,-5.1 9.94,-6.01 3.09,5.24 0.31,8 6.97,12.99 4.59,3.44 9.56,4.34 15.95,1.87 6.43,-2.48 7.6,3.66 15.74,1.1 3.79,-1.19 3.52,-2.42 8.13,-0.78 3.69,1.31 4.39,2.13 8.81,0.99 7.5,-1.94 12.66,-7.83 15.39,-14.59 1.08,-2.67 1.08,-7.5 1.85,-8.88l9.81 -10.11c3.13,-3.81 6.15,-7.62 9.32,-11.35 6.21,-7.3 14.57,-15.06 14.45,-26 -0.13,-11.53 -9.07,-20.84 -21.45,-18.23 -10.01,2.1 -10.3,-2.06 -17.37,-0.25 -3.81,0.98 -3.24,2.37 -7.6,1.21 -8.83,-2.36 -13.91,-2.63 -20.61,7.32 -1.45,2.15 -6.78,10.95 -8.43,11.82 -0.28,-12.18 -0.5,-24.36 -0.68,-36.53 -0.19,-12.54 -1.78,-22.83 -1.33,-35.37 0.42,-11.89 -0.51,-24.69 -0.93,-36.65 -0.37,-10.59 0.1,-26.43 -1.18,-36.27 -1.61,-12.41 -11.53,-15.94 -22.38,-12.69 -8.4,2.52 -11.82,14.61 -15.23,22.12 -3.97,8.76 -7.79,16.88 -11.61,25.73 -1.51,3.5 -8.75,23.17 -11.76,25.93 0.54,-9.02 6.95,-34.02 9.21,-44.36 4.05,-18.54 7.07,-29.95 -17.06,-30.5 -16.38,-0.37 -21.14,3.84 -22.54,3.74 -1.37,-0.09 -6.04,-2.79 -9.85,-3.35 -9.35,-1.39 -29.16,0.08 -39.6,-0.11 -4.63,-0.08 -7.86,-0.49 -12.02,0.98 -4.58,1.62 -5.42,3.03 -9.63,-0.24 -0.41,-3.61 4.14,-9.25 4.64,-15.03 0.57,-6.73 -2.89,-11.51 -7.67,-13.33 -5.12,-1.94 -12.97,-1.14 -16.79,1.81 -6.61,5.12 -7.65,24.04 -14.79,25.93 -12.15,3.21 -5.64,4.46 -14.39,0.97 -7.75,-3.09 -47.22,-1.13 -59.31,-0.72l-20 -0.77c-5.73,0.07 -14.42,-0.34 -19.8,0.4 -3.12,0.42 -5.29,2.19 -7.58,2.32 -2.44,0.14 -5.24,-1.73 -8.43,-2.2 -7.39,-1.08 -40.56,-2.13 -48.63,1.11 -3.8,1.53 -3.19,2.85 -7.67,0.57 -5.91,-3.01 -11.82,-1.83 -18.71,-2.07 0.97,-5.47 15.72,-19.45 7.92,-24.51 -5.08,-3.3 -13.17,7.31 -18,4.09 -9.44,-6.28 2.32,-29.87 -7.08,-31.01 -1.76,0.34 -8.01,3.64 -10,4.64 -10.63,5.37 -6.66,4.02 -20.65,-3.31 -3.37,-1.76 -7.43,-3.15 -10.7,-4.51 0,-3.01 -0.14,-13.05 0.71,-14.77 1.87,-3.78 4.61,-4.56 4.21,-11.4 -1.13,-19.19 -26.35,-23.56 -32.6,-5.61 -1.5,4.31 0.32,10.61 -0.73,13.17 -0.49,1.2 -1.99,2.41 -2.89,4.56 -0.98,2.33 -0.77,3.91 -1.73,6.17z"/>
   <path class="fil1" d="M47.78 117.54c3.54,-2.64 4.75,-8.52 10.28,-10.02 5.97,-1.63 9.62,3.59 10.1,9.04 0.6,6.92 -0.46,35.45 1.49,38.78 3.29,-0.82 2.48,-1.63 2.28,-9.48 -0.66,-26.93 -7.01,-36.36 16.38,-36.36 5.67,-0 15.5,-1.11 19.65,1.98 4.3,3.21 3.44,12.15 3.71,18.37 0.44,10.2 1.47,58.25 3.3,61.16l33.61 -74.19c2.08,-4.22 4.49,-7.47 10.41,-7.63 8.34,-0.22 9.32,4.79 10.63,7.25 3.6,-1.44 2.48,-6.61 12.01,-6.61 6.26,0 9.22,2.81 9.93,8.66 2.56,21 1.06,98.24 3.61,106.48 2.18,-4.66 19.85,-93.48 21.72,-101.82 1.99,-8.85 4.89,-15.6 17.67,-12.85 9.1,1.96 7.49,13.64 7.76,22.87 0.23,7.96 0.67,55.35 2.62,58.54l23.75 -50.08c4.07,-8.4 7.8,-17.07 11.77,-25.54 2.51,-5.36 5.43,-6.35 12.45,-6.13 7.71,0.24 7.35,2.47 10.67,7.23 3.87,-1.61 4.67,-6.22 12.63,-6.87 5.9,-0.48 13.3,-0.17 19.36,-0.24 11.54,-0.13 16.47,-0.65 20.69,8.38 0.56,1.19 0.75,1.85 1.19,3.32l1.44 3.5c6.15,-6.68 6.63,-15.16 21.99,-15.13 39.14,0.08 42.22,-5.96 33.54,31.27 -3.92,16.8 -9.17,10.21 -24.15,11.97 -1.29,4.09 4.76,42.38 5.44,50.38 1.65,19.31 1.89,33.03 -2.14,51.5 -3.19,14.65 -11.27,28.45 -23.63,32.4 -8.09,2.58 -17.68,1.33 -26.39,1.33 -22.07,0.02 -15.04,-1.36 -20,-7.58 -2.99,2.04 -4.73,6.17 -10.44,7.31 -3.68,0.74 -30.89,0.91 -34.61,-0.37 -5.92,-2.05 -5.24,-6.48 -9.21,-8.79 -2.33,10.46 -7.4,9.6 -19.06,9.61 -12.06,0.01 -15.49,0.78 -16.96,-11.11 -1.22,1.86 -5.09,14.82 -15.98,10.78 -7.93,-2.94 -4.7,-14.16 -6.73,-19.43l-0.55 -1.02c-6.56,22.98 4.94,20.73 -41.77,20.79 -12.37,0.01 -9.99,-3.87 -12.6,-7.87 -5.52,9.52 -7.71,7.75 -28.71,8 -34.94,0.42 -23.38,-2.79 -29.99,-6.86 -1.71,1.4 -1.46,2.1 -2.97,3.84 -1,1.15 -2.15,1.86 -3.82,2.24 -3.14,0.71 -8.56,0.28 -11.32,-1.17 -4.96,-2.6 -3.78,-14.18 -3.96,-20.79 -0.41,-14.88 0.1,-33.56 -1.44,-47.97 -2.61,1.65 -4.75,3.75 -7.18,5.09 -1.47,17.39 -0.14,36.07 0.16,53.57 0.08,4.82 -0.29,7.99 -3.96,10.19 -3.7,2.21 -7.12,1.12 -9.99,-1.03 -5.73,-4.31 -5.99,-11.26 -7.5,-20.01 -3.33,5.96 2.98,15.77 -1.06,21.8 -4.34,6.48 -12.43,2.94 -15.56,-1.68 -7.32,-10.78 -1.71,-41.95 -6.91,-43.79 -6.57,-2.32 -11.41,-0.63 -9.64,-18.59 1.49,-15.09 7.54,-14.57 10.83,-18.27 -3.78,-2.7 -6.95,-1.25 -9.46,-5.55 -2.94,-5.05 0.46,-22.4 2.04,-25.53 2.26,-4.48 4.63,-3.38 7.54,-6.94 0.54,-11.45 -1.97,-33.91 1.88,-42.33 1.54,-3.37 7.5,-11.77 9.3,-13.4 7.16,-6.45 12.93,4.24 13.82,5.39zm-0.13 -8.86c-4.38,-2.1 -8.22,-5.02 -14.03,-2.27 -4.41,2.09 -6.93,5.99 -9.69,9.72 -7.66,10.37 -7.52,16.18 -6.3,31.09 0.25,3.04 0.99,16.12 0.04,18.07 -2.54,5.23 -8.88,-2.24 -10.63,27.91 -0.41,7.14 0.85,9.57 4.93,14.02 -2.24,7.76 -4.33,2.92 -5.3,22.68 -0.49,10.04 2.3,14.79 11,17.29 2.08,15.06 -2.27,44.14 15.66,49.12 7.86,2.18 12.19,-2.13 15.58,-5.65 4.6,0.93 6.51,4.1 13.45,2.07 5.69,-1.67 5.26,-4.58 8.61,-8.13l1.97 4c5.64,10.33 23.28,3.41 25.11,3.69 3.76,0.58 4.62,2.35 10.91,2.35 6.57,0 38.22,0.52 41.88,-0.77 5.02,-1.76 2.06,-3.06 8.33,-0.77 7.81,2.86 22.16,0.87 32.44,1.29 14.01,0.57 11.71,-1.93 18,-4.37 5.74,2.89 9.4,6.73 18.1,2.68 9.67,-4.5 0.91,1.25 17.21,1.89 6.91,0.27 15.82,1.05 21.48,-1.86 4.46,-2.29 3.56,-3.23 8.13,-0.46 6.72,4.08 26.53,2.12 34.41,1.95 8.13,-0.18 7.55,-1.49 13.32,-3.85 5.01,2.72 5.29,4.26 13.33,4.26l24.64 0c41.44,0 44.82,-62.39 40.62,-94.78 -0.98,-7.57 -5.59,-36.4 -5.54,-41.55 21.99,0.55 21.21,-3.62 25.94,-24.83 1.26,-5.64 3.97,-14.2 1.91,-19.94 -1.85,-5.15 -6.72,-9.1 -13.58,-9.1 -10.05,0 -31.7,-1.17 -39.74,2.23 -5.16,2.18 -6.09,5.47 -9.58,7.13 -5.03,-4.48 -5.06,-9.37 -20,-9.37 -6.31,0 -22.33,-0.67 -27.77,0.94 -2.1,0.62 -5.52,2.66 -6.49,2.86 -2.49,0.52 -6.47,-3.88 -13.73,-3.81 -14.74,0.15 -14.89,5.73 -20.04,16.05 -7.58,15.19 -12.93,29.65 -19.47,43.12 -1.46,3.01 -1.8,4.64 -3.8,5.68 -1.1,-2.61 -1.46,-40.2 -1.44,-46.13 0.03,-8.1 -1.45,-13.84 -6.6,-16.67 -5.2,-2.86 -14.74,-2.66 -20.09,-0.17 -5.95,2.77 -7.1,7.22 -8.65,14.73l-11.67 57.06c-0.8,2.01 0.15,1.27 -1.54,1.62 -0.8,-3.31 -1.24,-47.49 -1.3,-54.57 -0.09,-9.12 -1.54,-17.05 -8.43,-19.65 -3.63,-1.37 -8.34,-1.08 -12.15,-0.23 -5.95,1.31 -4.37,3 -10.92,0.66 -19.17,-6.86 -23.37,9.55 -29.41,23.71l-15.02 34.32c-0.4,0.86 -0.62,1.51 -1.02,2.3 -1.03,2.04 -0.37,1.17 -1.73,2.51 -1.4,-2.29 -0.87,-15.99 -0.94,-19.62 -0.12,-6.39 -0.59,-13.05 -0.85,-19.41 -1.15,-27.6 -2.76,-25.47 -32.37,-25.47 -3.7,0 -7.71,0.27 -10.96,1.76 -7.52,3.45 -6.72,-7.13 -18.68,-2.67 -4.22,1.57 -4.28,3.19 -7.52,5.29z"/>
   <path class="fil2" d="M1013.84 281.27c3.52,1.56 16.33,1.23 20.74,0.47 3.23,-9.84 5.12,-22.77 7.42,-33.43 2.99,-13.8 19.45,-96.79 21.52,-102.24l11.67 -0.15c4.56,6.87 -0.54,24.98 -4.71,29.68 -2.9,3.27 -5.44,2.25 -10.63,2.76 -7.47,11.72 -2.83,77.51 -2.27,99.65 0.14,5.45 -0.32,4.04 17.84,4.04 7.56,0 5.27,-5.21 4.58,-20.22l-2.07 -48.75c-0.32,-6.36 -0.97,-6.17 2.34,-9.64 9.86,-10.31 15.3,-30.75 18.31,-45.87 1.75,-8.78 3.92,-24.92 1.89,-33.96 -1.02,-4.55 -1.8,-6.38 -7.06,-6.38l-41.3 0c-6.07,0 -5.17,3.49 -8.01,16.74 -1.48,6.93 -2.92,14.19 -4.32,20.78 -2.97,13.99 -5.97,28.76 -8.7,42.08 -2.44,11.91 -17.65,78.45 -17.25,84.45z"/>
   <path class="fil2" d="M191.63 281.92c11.07,0.6 8.42,1.73 11.62,-13.75 1.17,-5.68 2.32,-11.29 3.54,-17.13 1.19,-5.71 5.64,-31.45 7.5,-34.19 1.59,4.59 2.29,54.99 5.38,65.03 5.52,-0.37 6.62,-4.96 10.28,-13.61l23 -50.22c0.59,0.88 0.57,1.39 0.17,3.48l-6.15 27.83c-1.21,5.81 -6.88,28.18 -5.88,32.41l20.46 0.02c1.8,-3.41 15.58,-72.09 17.6,-81.7l16.85 -79.91c0.21,-3.14 -1.12,-3.56 -7.68,-2.89 -4.53,6.07 -8.81,17.94 -12.83,25.86l-36.9 79.08c-0.06,0.08 -0.19,0.25 -0.3,0.37 -1,-2.37 -2.59,-69.93 -2.84,-82.08 -0.1,-4.76 -0.11,-8.69 -0.31,-13.32 -0.31,-7.04 2.09,-9.94 -5.51,-9.94 -5.64,0 -4.76,1.44 -5.86,6.72 -0.74,3.57 -1.45,6.93 -2.2,10.47 -5.19,24.82 -30.85,141.52 -29.93,147.46z"/>
   <path class="fil2" d="M990.87 253.24l-8.09 0.07c-2.41,-14.12 10.38,-69.19 15,-87.89 2.77,-11.22 4.26,-21.74 14.9,-19.41 3.1,5.34 2.22,6.76 1.33,13.66 -0.64,4.9 -1.48,9.67 -2.38,14.36 -1.78,9.3 -3.73,18.27 -5.67,27.65 -2.08,10.03 -6.37,30.76 -9.73,40.33 -1.74,4.97 -3.48,7.38 -5.35,11.23zm41.9 -135.75c-9.7,0.4 -20.34,-1.15 -29.96,-0.11 -15.36,1.67 -26.37,47.61 -29.98,60.58 -4.16,14.91 -21.69,96.51 -7.5,103.46 3.06,1.5 23.43,0.66 28.14,0.54 7.75,-0.2 12.6,-8.65 15.42,-14.65 6.35,-13.51 10.87,-29.96 15.19,-45.53 6.28,-22.69 20.01,-84.36 8.69,-104.29z"/>
   <path class="fil2" d="M305.74 253.22c-2.99,0.38 -5.33,1.11 -7.3,-0.83 -4.76,-5.06 10.76,-72.54 14.01,-85.61 2.01,-8.09 3.45,-22.41 13.15,-21.09 7.71,1.04 2.7,21.38 1.5,26.82 -4.26,19.34 -13.04,69.71 -21.37,80.71zm9.95 -135.66c-15.77,3.36 -31.76,74.75 -34.01,87.15 -3.36,18.53 -6.56,35.02 -6.28,54.54 0.11,7.87 -0.94,22.13 7.52,22.66 4.31,0.27 27.37,0.41 30,-0.61 14.07,-5.46 29.91,-71.5 32.83,-87.85l6.86 -53.46c-0.12,-2.08 -0.81,-2.72 -0.85,-6.1 -0.05,-4.45 0.14,-15.39 -6.26,-16.54 -2.35,-0.42 -27.66,-0.25 -29.81,0.21z"/>
   <path class="fil2" d="M762.77 238.61c3.15,-1.41 6.01,-5.95 9.19,-8.22 5.86,-4.19 8.04,-1.82 14.2,-1.67 2.9,-5.49 2.52,-15.49 5.06,-21.71l15.39 -0.2c0.49,6.97 -15.62,68.35 -14.94,74.93 5.64,0.67 15.12,0.47 20.97,0.11l17.37 -82.03c0.71,-3.34 1.92,-7.39 2.42,-9.72 0.67,-3.14 0.96,-7.26 1.76,-10.79 2.24,-9.88 13.33,-58.36 12.44,-61.89 -5.18,-0.61 -16.21,-0.83 -20.69,0.31 -3.02,7.64 -9.43,47.19 -12.98,60.25l-15.65 0.05c0.06,-9.96 13.2,-54.85 11.76,-60.41 -5.58,-0.87 -11.3,-0.39 -16.93,-0.38 -5.39,0.01 -4.46,1.78 -6.62,12.14 -1.07,5.1 -2.11,10.06 -3.22,15.39l-13.06 62.1c-2.09,9.7 -5.48,22.22 -6.48,31.78z"/>
   <path class="fil2" d="M579.8 145.53l20.21 0.58c0,2.82 -2.49,6.32 -3.06,7.86 -9.81,26.58 -25.79,63.05 -37.01,90.43 -4.51,11.01 -7.35,24.57 -9.31,37.88l42.24 -0.3c10.82,0 8.86,-0.02 11.13,-10.4 0.83,-3.8 3.73,-14.74 3.18,-17.93l-20.66 -0.19c0.63,-4.66 36.87,-90.82 39.49,-97.05 6.83,-16.22 4.21,-8.93 7.81,-26.38 3.24,-15.7 5.38,-12.6 -16.27,-12.87 -4.79,-0.06 -29.96,-0.78 -31.99,0.75 -1.74,1.31 -5.91,24.79 -5.76,27.62z"/>
   <path class="fil2" d="M360.92 253.14l-23.82 0.25c-1.26,2.12 -4.67,19.34 -5.79,24.38 -0.31,1.4 -1.84,3.5 2.33,4.32 0.8,0.16 2.41,0.13 3.27,0.12l19.36 -0.15c9.71,-0.04 14.47,-1.26 19.37,-6.08 18.11,-17.82 14.93,-59.82 11.85,-83.7 -0.91,-7.02 -1.61,-17.14 -2.83,-22.9 -0.89,-4.19 -3.04,-18.66 -2.59,-22.84 5.14,-2.06 17.72,0.74 24.45,-1.03 1.23,-3.96 5.89,-24.65 5.07,-27.45 -3.52,-1.7 -19.43,-0.73 -24.66,-0.73 -10.74,-0.01 -13.44,-0.3 -18.59,6.61 -7.58,10.17 -11.78,25.14 -13.99,37.63 -2.69,15.19 -1.18,31.69 0.98,47.35 0.86,6.25 6.23,41.67 5.6,44.23z"/>
   <path class="fil2" d="M465.45 281.27c4.32,1.5 35,0.78 42.9,0.76 1.04,-4.02 5.81,-25.41 5.51,-28.48l-28.34 -0.28c0.49,-3.37 24.42,-55.5 29.61,-67.12 1.16,-2.59 2.78,-7.73 4.63,-8.61 1.97,20.61 2.37,65.6 3.36,91.08l1.15 12.69c2.94,1.52 22.66,1.2 24.77,-0.5 0.41,-0.64 0.29,0.11 0.7,-1.62 0.29,-1.21 0.25,-1.3 0.27,-2.56l-0.89 -36.72c-0.35,-13.84 -0.84,-27.57 -1.21,-41.38 -0.29,-10.75 -1,-76.94 -2.85,-81l-6.21 -0.46c-2.84,4.27 -6.93,14.47 -9.45,20.02 -3.1,6.85 -6.24,13.86 -9.37,20.63 -6.32,13.66 -12.08,27.36 -18.46,40.88l-27.78 60.93c-2.04,4.29 -9.04,17.58 -8.33,21.73z"/>
   <path class="fil2" d="M105.16 281.71c4.96,0.62 38.61,1.03 42.27,0.04 1.24,-2.66 6.34,-25.42 6.07,-28.38l-28.13 -0.13c-0.56,-3.09 14.14,-33.14 16.47,-38.46 2.5,-5.72 15.57,-35.74 17.7,-37.69 1.15,17.53 1.19,34.67 1.7,52.16 0.25,8.71 0.55,17.29 0.79,26.01 0.14,4.93 -0.5,23.6 1.55,26.04 0.99,0.85 4.19,0.66 5.36,0.65 3.79,-0.06 17.74,0.89 19.47,-0.44 2.43,-1.88 0.39,-47.83 0.21,-50.1 -1.25,-15.55 -1.38,-33.74 -1.83,-50.1 -0.44,-16.18 -1.82,-34.74 -1.37,-50.85 0.3,-10.68 1.34,-13.84 -4.4,-13.39 -2.87,0.23 -3.2,0.83 -4.16,2.69 -6.44,12.49 -17.99,40.23 -24.27,53.78 -2.82,6.08 -5.14,12.05 -8.07,17.98 -0.91,1.85 -1.43,2.1 -2.16,3.86 -6.98,16.82 -14.75,32.72 -22.32,49.67 -2.73,6.11 -5.34,11.9 -8.15,17.85 -1.78,3.76 -7.84,14.7 -6.73,18.81z"/>
   <path class="fil3" d="M743.5 118.21c1.38,1.22 3.34,2.43 3.1,5.55 -0.2,2.51 -2.1,4.86 -4.82,4.33 -4.48,-0.87 -6.06,-10.35 1.73,-9.88zm-38.67 -12.21c8.75,-0.98 8.88,7.71 4.32,9.45 -5.38,2.06 -10.45,-4.23 -4.32,-9.45zm-30.2 -1.5c0.96,8.48 -7.38,7.87 -8.79,3.65 -1.6,-4.78 3.81,-9.22 8.79,-3.65zm82.33 -17.42c6.02,-2.73 9.07,6.48 3.99,8.84 -5.87,2.73 -10.62,-5.83 -3.99,-8.84zm-44.53 -15.94c7.17,-2.87 11.38,7.84 4.58,10.2 -6.92,2.41 -12.38,-7.08 -4.58,-10.2zm-48.2 -2.68c6.2,-5.25 13.04,1.57 6.67,7.24 -5.38,0.43 -7.43,-1.73 -6.67,-7.24zm-2.43 -5.73c-13.85,1.72 -7.8,13.33 -4.82,21.61 1.11,3.09 0.92,6.96 4.03,7.65l0.78 -12.97c8.89,0.27 6.36,17.9 -3.49,20.86 -9.21,2.76 -17.41,-14.24 -13.51,-18.59 4.18,1.75 1.95,9.68 7.23,12.23 0.39,-3.42 -0.8,-9.57 -0.53,-14.37 0.3,-5.29 -1.26,-8.38 -3.97,-11.47l-4.27 1.29c-0.19,-4.05 -0.67,-6.18 -2.29,-9.27 -0.74,-1.41 -1.2,-2.1 -2.07,-3.25 -1.47,-1.95 -1.17,-2.11 -3.4,-2.73l1.81 18.95c1.61,0.46 3.36,1.2 4.6,2.01 0.36,5.49 -2.21,4.38 -1.84,8.41l4.9 16.61c1.62,3.93 3.21,3.85 4.75,6.82 -0.47,3.99 -1.1,2.86 -2.17,5.31 -0.75,1.72 0.04,3.76 0.34,6.27 4.14,0.44 21.69,-0.03 32.29,0.81 10.27,0.81 19.26,2.76 28.59,5.08 25.36,6.3 45.13,18.18 48.07,18.9 5.6,-4.02 1.75,-7.53 4.31,-10.72 1.21,-1.51 6.21,-3.48 8.8,-6.53 2.44,-2.86 4.33,-5.37 6.6,-8.06 4.03,-4.78 2.21,-7.96 4.9,-10.48 5.23,-3.59 2.5,2.31 8.04,-6.61 1.63,-2.63 4.34,-6.57 5.48,-9.57 -7.57,0.3 -9.08,5.7 -12.8,9.35 -3.55,-2.27 -5.12,-4.08 -10.43,5.18 -2.1,3.67 -5.8,9.21 -6.67,13.4 5.71,-1.61 5.3,-6.74 9.47,-7.31 2.8,4.74 -7.9,17.16 -17.35,11.32 -9.96,-6.15 -4.44,-22.65 2.98,-21.49 2.16,5.45 -4.24,6.11 -3.38,13.76 2.75,-1.29 9.19,-9.15 11.68,-12.29 1.15,-1.44 3.9,-5.31 4.19,-7.74 0.52,-4.43 -2.84,-5.6 -4.18,-8.56 2,-3.5 4.26,-4.88 5.75,-9.22 1.45,-4.21 1.53,-9 1.47,-13.6 -4.38,0.79 -8.56,3.86 -11.22,6.45 -4.09,3.99 -3.8,6 -6.31,11.22 -3.63,-0.7 -4.29,-5.25 -9.65,-3.28 -2.32,0.85 -5.58,4.77 -6.74,7.41 -1.2,2.74 -5.55,18.93 -5.8,21.86 6.94,-2.01 9.36,-13.2 12.85,-12.24 7.42,2.02 -6.05,23.36 -22.46,16.55 -13.43,-5.57 -15.16,-29.4 -4.32,-26.97 3.91,5.19 -1.49,11.84 2,17.76l11.98 -19.41c5.18,-8.97 -2.79,-16.68 -13.53,-12.92 1.09,-5.64 3.63,-7.5 3.27,-14.97 -0.25,-5.09 -1.94,-9.88 -4.27,-13.32 -2.58,0.94 -7.1,6.48 -8.77,9.24 -2.75,4.54 -3.27,8.93 -2.79,15.29 -4.23,-1.13 -6.59,-4.61 -11.07,-4.05 -3.11,0.39 -5.83,4.36 -6.63,7.69 -0.59,2.44 1.33,23.6 1.97,25.65 5.47,-2.16 3.49,-13.2 10.63,-15.32 7.68,4.38 -1.41,24.27 -17.15,22.4 -14.69,-1.75 -21.12,-22.55 -12.18,-25.08 6.02,3.77 0.35,12.86 6.67,16.28 1.07,-2.19 3.48,-18.28 3.33,-21.46 -0.16,-3.49 -1.5,-7.11 -3.33,-9.33 -2.98,-3.63 -5.44,-1.68 -9.17,-0.95 -0.91,-4.71 0.67,-8.28 -1.44,-13.14 -1.11,-2.55 -4.56,-7.42 -7.39,-8.17 -7.11,8.04 -2.51,20.22 -2.39,21.84z"/>
   <path class="fil2" d="M871.75 253.4l-23.9 0.12c-1.86,3.14 -2.19,6.95 -1.86,10.62 9.8,5.77 6.06,13.78 5.74,18.04 18.93,0.16 29.32,2.35 38.21,-10.5 23.77,-34.37 0.55,-115.79 2.74,-125.3 4.45,-1.53 18.05,0.2 24.12,-0.69 1.88,-4.06 4.14,-18.5 5.44,-23.89 1.26,-5.21 1.69,-4.68 -8.77,-4.65 -5.77,0.02 -24.56,-1.06 -28.58,1.39 -2.72,1.66 -5.73,5.51 -7.42,7.98 -9.8,14.36 -10.14,26.19 -12.68,39.59 -4.91,26 7.65,71.84 6.97,87.3z"/>
   <path class="fil2" d="M671.8 235.71c3.5,-0.35 7.4,-1.5 10.63,-1.98 16.92,-2.51 9.7,6.89 20.86,-44.32 1.44,-6.61 3.65,-14.91 4.51,-21.45 0.52,-3.98 3.29,-18.87 4.6,-21.86 4.68,-0.91 9.77,-0.29 13.84,1.49 -0.24,0.73 -0.3,21.98 -7.14,28.55 -2.45,2.36 -6.82,1.09 -10.29,2.4 -2.19,3.41 -4.97,20.97 -4.92,26.01 0.1,9.07 0.17,21.18 0.98,30.08 13.01,7.4 15.7,21.72 6.18,34.84 -2.37,3.27 -7.13,7.07 -3.39,12.11l20.9 0.38c2.06,-4.55 0.05,-32.22 -0.28,-38.72 -0.33,-6.41 -0.71,-13.07 -0.87,-19.33 -0.6,-22.58 -3.7,-12.14 5.4,-24.74 8.16,-11.31 17.04,-43.44 16.57,-55.82l-19.23 -7.46c-7.46,-2.39 -29.21,-9.79 -35.12,-9.9l-23.21 109.71z"/>
   <path class="fil2" d="M162.35 117.61c-7.33,-2.48 -7.87,3.1 -10.18,8.15 -2.21,4.83 -4.18,8.93 -6.24,13.77 -10.33,24.28 -23.28,50.8 -34.18,75.85 -0.94,2.16 -1.78,4.93 -3.44,6.46 -0.95,-2.72 -3.67,-96.74 -4.28,-104.49 -6.35,-0.67 -15.61,-0.28 -22.3,-0.27 -5.32,0 -3.69,4.57 -3.55,9.44l1.69 64.05c0.06,2.39 -0.36,3.86 -0.24,5.96l0.98 18.7c0.44,16.9 0.91,33.79 1.35,50.68 0.31,11.9 -1.33,15.94 3.66,16.26 2.78,0.18 3.71,-0.35 4.83,-2.09l71.9 -162.46z"/>
   <path class="fil2" d="M1105.05 281.6l18.33 0.43c3.61,-6.87 16.67,-25.91 17.41,-28.73l-15.66 0.17c1.27,-4.63 13.96,-31.39 17.01,-38.23 2.79,-6.26 11.67,-27.08 14.82,-32.56 2.14,-3.72 0.41,-2.96 2.44,-4.57 1.63,3.35 1.53,39.72 1.45,50.61 4.98,0.23 11.31,-3.5 17.79,3.95 9.61,11.06 -1.71,23.71 -8.45,32.05 -4.05,5.01 -8.3,7.24 -6.44,16.89 4.02,0.8 21.79,0.86 25.69,-0.27 0.86,-3.08 -2.89,-157.79 -4.29,-163.94 -8.88,-1.31 -7.21,1.24 -14.17,16l-19.15 42.2c-9.29,19.33 -19.52,43.65 -28.65,63.37 -2.82,6.09 -18.57,38.44 -18.13,42.61z"/>
   <path class="fil4" d="M755.68 305.4c1.56,-2.39 0.05,-0.82 1.82,-1.57 2.16,4.86 -0.96,8.67 -4.88,9.72l3.06 -8.15zm-31.82 6.92c0.79,-4.45 6.61,-13.59 10.05,-14.13 -0.29,3.2 -1.83,5.39 -3.61,7.9 -1.99,2.81 -3.22,4.98 -6.44,6.23zm151.3 0.42c0.43,-3.59 7.35,-14.23 11.43,-14.67 -0.57,3.1 -3.06,6.55 -4.54,8.46 -1.04,1.35 -2.14,2.38 -3.2,3.47l-3.7 2.74zm-120.57 -34.71c0.93,-3.18 10.24,-14.81 12.73,-18.28 2.76,-3.84 10.12,-14.94 14.76,-15.25 -1.83,4.23 -23.94,31.93 -27.5,33.52zm-17.08 12.76c-3.03,-0.6 -1.31,-0.8 -3.02,-1.28 -3.25,-0.93 -4.3,0.93 -8.37,4.38 -6.67,5.67 -14.56,18.5 -6.64,22.81 5.44,2.96 9.02,-3.32 12.03,-4.88 1.59,1.8 1.01,2.15 2.13,4.64 6.01,0.64 8.11,-5.03 11.86,-6.67 2.47,4.03 2.24,13.12 11.53,7.69 2.29,-1.34 3.91,-2.71 5.8,-4.86 1.57,-1.78 2.86,-4.17 6.3,-3.78 0.17,4.95 -0.51,6.02 3.04,8.15 5.95,-0.88 14.94,-14.57 17.6,-15.41 -1.77,3.65 -7.18,10.16 -5.73,14.47 6.69,2.83 7.6,-3.64 12.21,-5.57 0.14,13.56 10.75,10.16 18.56,0.11 1.47,-1.89 0.91,-1.73 2.69,-2.62 2.02,3.1 2.65,8.19 7.31,8.13 4.28,-0.06 6.01,-4.91 9.29,-6.01 0.1,5.8 0.7,8.88 6.11,4.59 4.19,-3.33 4.77,-2.85 6.94,-8.29 2.28,2.74 -1.08,4.05 -0.09,8.69 0.53,2.49 3.67,4.86 6.47,5.08 5.75,0.46 10.06,-7.46 13.3,-9.48 6.31,4.26 4.44,12.52 16,4.29 4.91,1.74 6.95,6.04 14.9,-3.44 3.16,-3.76 7.98,-13.35 11.09,-10.15 1.64,3.74 -4.37,6.69 -2.18,12.1 1.48,3.64 7.78,5.63 11.38,2.33 2.2,-2.01 5.47,-6.54 7.47,-9.19 1.79,-2.38 6.15,-6.87 6.03,-10.61 -4.88,0.82 -11.3,12.94 -17.54,14.08 1.07,-5.58 11.83,-11.69 3.5,-16.42 -3.71,0.59 -3.1,1.87 -6.85,2.52 0.62,-3.11 2.72,-5.23 1.51,-8.07 -3.16,-1.59 -5.33,0.28 -6.95,2.2 -3.12,3.7 -1.71,3.42 -2.89,7.96 -0.81,3.12 -7.45,9.03 -11.07,10.42 1.66,-5.13 6.49,-7.65 6.05,-13.37 -0.94,-1.08 -8.46,-5.84 -10.52,-6.7 -5.19,-2.18 -10.88,7.6 -19.16,14.78 -2.82,2.44 -6.18,7 -10.22,8.2 1.11,-3.26 3.91,-7.34 5.62,-10.11 2.1,-3.39 4.56,-8.29 -0.13,-10.29 -4.57,-1.94 -7.46,2.86 -9.23,4.9 -2.22,2.55 -5.53,4.82 -6.87,8.51 -1.96,-3.68 4.55,-6.59 -1.28,-12.84 -4.49,0.73 -6.08,5.86 -9.17,9 -1.86,1.89 -8.29,7.61 -10.46,8.23 1.76,-8.55 11.87,-13.68 4.3,-20.77 -4.72,1.1 -7.05,9.72 -11.16,12.57 -5.62,3.9 -10.57,9.53 -13.72,10.89 3.65,-10.32 15.58,-10.54 8.31,-21.1 -6.89,0.64 -8.54,6.77 -12.87,8.88 0.97,-4.73 2.1,-5.45 -0.65,-9.31 -6.4,-0.39 -15.23,13.35 -19.63,15.56 2.33,-2.35 7.03,-6.68 8.01,-10.46 -2.42,-6.43 -6.21,-3.67 -9.31,-0.38 -2.54,2.7 -4.74,7.26 -9.63,7.08 -0.13,-0.38 -2.19,-22.96 -14.7,-9.41 -4.18,4.53 -9.89,14.43 -18.67,14.82 2.03,-4.74 21.17,-25.69 25.74,-31.08 3.55,-4.18 24.72,-27.2 25.01,-32.42 0.12,-2.21 -2.99,-16.67 -14.41,-4.33 -7.11,7.68 -18.06,23.99 -24.05,33.31l-10.92 17.92z"/>
   <path class="fil2" d="M923.23 145.86l15.1 0.26 -13.95 66.25c-1.38,6.6 -14.55,65.44 -13.2,67.16 1.18,1.5 18.16,5.37 20.45,0.51 0.43,-0.92 0.38,-0.88 0.63,-2l2.65 -12.81c1.19,-5.67 2.45,-11.32 3.54,-16.75 2.54,-12.58 19.83,-97.31 21.92,-102.37l16.05 -0.64c1.56,-3.44 5.44,-23.92 6.08,-28.75 -14.38,0.88 -37.14,-0.42 -43.7,0.27 -12.7,1.32 -9.01,-2.48 -12.28,9.29 -1.04,3.73 -3.28,15.23 -3.28,19.58z"/>
   <path class="fil2" d="M430.24 281.85c3.18,-5.64 20.55,-102.66 27.54,-124.45 4.24,-13.22 3.77,-11.6 18.45,-11.4 3.15,0.04 12.67,1.07 14.41,-1.09 0.51,-0.63 2.36,-10.35 2.69,-11.95 3.79,-18.33 6.25,-15.23 -8.43,-15.89 -4.86,-0.22 -27.05,-0.41 -29.59,1.19 -11.55,7.28 -22.87,50.05 -26.28,63.8 -2.46,9.94 -21.73,95.25 -20.4,99.45 3.34,0.85 18.07,0.96 21.62,0.34z"/>
   <path class="fil4" d="M1142.4 313.06c0.19,-3.97 1.79,-7.87 4.82,-8.9 0.7,4.55 -0.36,9.19 -4.82,8.9zm-29.97 -0.69c0.32,-4.17 7.23,-12.7 10.24,-13.76 -0.99,4.46 -7.26,12.41 -10.24,13.76zm28.5 -30.37c0.89,-4.93 15.95,-23.46 20.42,-28.79 1.92,-2.3 5.37,-7.18 7.82,-7.75 -0.84,5.15 -17.02,22.97 -21.04,27.86 -2.16,2.63 -4,7.3 -7.19,8.68zm-14.83 9.28c-2.2,-0.83 -3.3,-4.1 -9.36,0.68 -4.87,3.84 -17.59,18.73 -22.46,20 1.33,-3.29 3.77,-6.52 5.73,-10.09 2.55,-4.64 4.79,-7.71 -0.59,-10.79 -6.81,-0.08 -13.6,13.06 -16.25,13.87 -0.04,-4.49 5.79,-8.02 0.08,-12.66 -3.19,0.09 -3.74,1.36 -5.37,3.44 -1.55,1.97 -3.05,3.59 -4.68,5.33 -2.25,2.4 -7.38,7.22 -11.13,8.28 2.49,-4.15 12.54,-12.2 4.7,-17.77 -4.55,-1.43 -15.16,15.35 -20.66,16.59 0.85,-1.98 4.18,-5.02 7.37,-9.49 3.09,-4.33 1.74,-8.18 -2.71,-10.23 -4.83,1.69 -8.85,9.4 -12.5,13.03 -1.86,1.84 -12.14,11.15 -13.58,11.85 1.43,-4.62 21.13,-19.85 8.09,-23.38 -4.81,1.25 -8.15,8.71 -11.63,11.15 0.11,-0.29 5.19,-10.33 -2.34,-10.35 -3.97,-0.01 -6.23,5.46 -9.71,7.04 1.35,-4.93 -1.62,-7.55 -6.43,-5.26 -3.45,1.64 -9.63,12.56 -11.62,16.41 -2.1,4.08 -0.88,6.85 2.4,8.86 6.09,-3.78 13.05,-11.32 14.24,-12 -0.93,4.21 -4.53,7.49 -1.57,10.89 3.89,1.55 9.17,-5.31 11.38,-6.82 -0.47,4.81 0.78,10.73 7.13,9.9 5.31,-0.7 6.51,-5.83 9.49,-7.49 2.39,2.83 4.84,7.82 9.53,4.61 3.18,-2.18 5.68,-6.69 9.13,-7.57 3.94,10.43 6.35,13.21 17.33,1.44 1.4,1.67 -0.1,3.57 4,6.15 5.03,-1.54 9.07,-8.51 11.22,-10.11 0.41,4.44 -2.51,4.91 -0.82,8.74 0.84,1.91 4.07,4.25 6.99,4.4 5.33,0.27 9.01,-7.1 13.27,-8.56 2.1,2.63 2.22,7.89 7.59,6.27 2.3,-0.69 5.19,-4.76 6.6,-6.17 0.86,-0.86 0.15,-0.34 1.14,-0.96 1.78,2.76 1.44,4.54 4.67,5.73 4.77,-0.93 4.75,-4.68 9.33,-6.43 2.7,3.08 6.18,17.29 19.11,1.93 3.05,-3.63 18.95,-7.3 18.11,-17.03 -2.92,1.63 -7.74,7.31 -11.63,7.61 -2.14,-3.31 -3.35,-23.58 -15.29,-10.72 -4.01,4.32 -12.8,15.05 -19.14,16.47 0.43,-8.33 49.5,-52.9 50.15,-64.14 0.66,-11.46 -9.79,-9.69 -15,-4.34 -8.46,8.69 -17.04,23.07 -23.71,33.62 -3.25,5.14 -8.26,13.02 -10.59,18.07z"/>
   <path class="fil3" d="M38.63 209.64c0.11,-4.21 0.03,-14.76 0.71,-18.32 0.55,-2.87 8.66,-5.06 11.58,-5.47l-0.16 20.7 -12.13 3.09zm11.93 -40.77l-9.6 2.85c0.05,-8.12 0.69,-48.69 -0.8,-53.76 -4.38,0.03 -9.71,10.89 -10.42,14.71 -1.09,5.87 0.58,17.68 0.67,24.53 0.25,19.07 -0.4,15.44 -6.24,19.2 -3.66,2.36 -3.44,3.92 -3.97,8.78 -0.37,3.32 -2.05,8.64 -0.77,11.58 3.74,0.78 5.91,-2.77 10.13,-3l0.58 13.47c-0.13,10.38 -12.39,-1.46 -11.55,27.19 4.28,1.05 7.53,-3.12 11.38,-2.32 0.37,10 0.67,19.84 1.26,29.81 0.41,6.86 -0.09,23.54 7.4,22.46 0.25,-5.28 -0.82,-11.57 -0.97,-17.09 -0.16,-5.76 -0.46,-32.47 0.78,-36.55 1.06,-3.46 10.01,-6.99 11.66,-7.29 1.58,7.23 1.3,23.69 1.54,31.83 0.21,7.3 -0.15,25.75 7.48,25.48 0.7,-2.54 -0.64,-24.62 -0.7,-29.49 -0.11,-10.05 -0.11,-21.58 0.57,-31.53 7.31,-4.91 12.64,-7.03 12.99,-19.56 -4.94,0.63 -7.93,3.44 -12.18,3.7l0.6 -21.97c7.97,-3.82 13.27,-12.52 11.77,-19.19l-10.06 3.46c-1.98,-8.22 1.86,-46.68 -1.79,-51.46 -2.37,1.54 -5.58,5.38 -7.38,8.42 -3.04,5.14 -3.19,7.42 -2.66,14.08 0.85,10.61 1.07,20.93 0.29,31.66z"/>
   <path class="fil2" d="M614.74 264.77c2.95,-0.87 8.49,-5.69 11.22,-7.72 3.11,-2.31 8.05,-4.94 11.58,-7.03 2.17,-23.43 6.43,-43.76 11.37,-66.15 2.18,-9.91 4.28,-21.8 7.81,-30.79 4.83,-12.32 11.68,-5.42 31.51,-7.27 1.14,-2.62 4.08,-17.38 4.15,-20.71 -9.9,-1.22 -29.1,-4.27 -38.23,-3.89 -6.12,0.26 -5.85,1.39 -8.18,5.81 -5.33,10.12 -8.76,18.97 -12.49,29.52 -0.87,2.47 -0.97,2.31 -1.63,5.1 -0.43,1.8 -0.89,3.77 -1.46,5.88 -7.64,28.09 -16.82,65.17 -15.65,97.26z"/>
   <path class="fil0" d="M450.15 206.73c-0.06,-4.21 1.97,-11.6 2.89,-15.9 2.36,-11.08 1.31,-12.76 5.85,-12.77l24.29 0.17c0.9,3.74 -4.17,24.02 -5.43,28.48l-27.61 0.02zm-19.91 75.12c-3.55,0.62 -18.27,0.51 -21.62,-0.34 -1.33,-4.21 17.93,-89.51 20.4,-99.45 3.41,-13.74 14.73,-56.52 26.28,-63.8 2.54,-1.6 24.73,-1.41 29.59,-1.19 14.68,0.66 12.23,-2.45 8.43,15.89 -0.33,1.59 -2.18,11.31 -2.69,11.95 -1.74,2.16 -11.26,1.13 -14.41,1.09 -14.68,-0.2 -14.21,-1.82 -18.45,11.4 -6.98,21.79 -24.35,118.81 -27.54,124.45zm36.04 -127.95c10.38,-2.22 27.38,3.76 31.03,-6.31 1.69,-4.67 6.49,-26.86 5.36,-31.53 -2.16,-8.85 -15.31,-5.35 -31.71,-5.93 -17.12,-0.61 -18.43,-0.79 -26.36,10.11 -17.44,23.97 -26.54,81.21 -34.3,115.06 -2.34,10.19 -4.47,20.55 -6.55,30.74 -3.25,15.92 -6.11,22.41 9.84,23.2 21.17,1.05 21.92,-0.44 25.01,-12.26 2.32,-8.87 11.32,-58.49 13.2,-61.51 2.9,-4.65 26.51,3.45 31.69,-5.6 1.63,-2.85 6.87,-26.74 6.8,-30.64 -0.12,-6.65 -3.78,-8.24 -10.16,-8.6 -6.04,-0.34 -12.33,0.01 -18.42,-0.27 -0.4,-3.45 3.43,-12.94 4.58,-16.45z"/>
   <path class="fil2" d="M1081.66 281.72c3.41,0.95 17.17,0.9 19.91,-0.17 0.11,-0.13 0.26,-0.51 0.29,-0.42 0.04,0.1 0.23,-0.33 0.28,-0.43l17.32 -80.78c2.88,-13.65 5.71,-27.2 8.6,-40.78 1.24,-5.82 9.09,-38.55 7.64,-41.55 -3.63,-0.82 -9.08,-0.28 -12.96,-0.26 -9.82,0.04 -7.11,-3.83 -13.52,27.63l-18.87 90.46c-1.47,6.74 -9.77,42.64 -8.7,46.29z"/>
   <path class="fil2" d="M816.81 281.82l9.34 0.18c2.27,-3.96 1.73,-7.77 5.09,-12.31 4.05,-5.46 3.98,-4.19 10.39,-7.56 2.98,-11.28 5.14,-24.2 7.54,-35.7 3.34,-16.01 22.84,-105.58 22,-108.89 -5.51,-0.69 -14.41,-0.47 -20.15,-0.13 -2.5,4.17 -15.23,69.97 -17.67,81.86 -2.03,9.9 -17.25,78.54 -16.54,82.57z"/>
   <path class="fil4" d="M608.36 314.62c-4.63,4.68 -4.42,1.42 -10.45,11.73 -2.22,3.8 -5.68,11 -4.56,16.49 1.12,5.54 6.23,9.17 12.83,9.32 16.67,0.39 43.47,-21.4 55.98,-32.89 2.28,-2.1 3.32,-3.26 5.67,-5.67 1.71,-1.76 4.15,-3.75 4.71,-7.11 -4.05,1.45 -13.07,8.34 -17.42,11.07 -9.84,6.17 -45.09,31.03 -55.72,27.89 -2.88,-10.24 15.42,-24.86 23.77,-29.17 9.44,-4.88 32.94,-9.92 34.3,-19.67 -7.51,-8.49 -32.07,7.93 -40.25,11.01 -13.97,5.26 -11.81,-6.43 -7.12,-13.09 10.77,-15.31 33.04,-27.33 50.52,-35.46 5.76,-2.68 38.27,-16.55 43.78,-9.92 3.23,6.22 -3.35,9.77 -6.59,12.41 -2.67,2.18 -10.09,6.2 -11.15,9.71 8.51,13.38 34.09,-18.58 17.9,-27.72 -27.26,-15.39 -109.37,29.4 -103,61.64 0.88,4.44 2.45,5.3 4.8,7.26 1.96,1.64 0.75,-0.05 2,2.17z"/>
   <path class="fil0" d="M305.74 253.22c8.33,-11 17.11,-61.37 21.37,-80.71 1.2,-5.44 6.21,-25.78 -1.5,-26.82 -9.71,-1.31 -11.14,13 -13.15,21.09 -3.25,13.07 -18.78,80.56 -14.01,85.61 1.97,1.94 4.31,1.21 7.3,0.83z"/>
   <path class="fil0" d="M990.87 253.24c1.87,-3.85 3.6,-6.26 5.35,-11.23 3.36,-9.57 7.65,-30.3 9.73,-40.33 1.95,-9.38 3.89,-18.36 5.67,-27.65 0.9,-4.68 1.75,-9.45 2.38,-14.36 0.9,-6.91 1.77,-8.32 -1.33,-13.66 -10.64,-2.33 -12.12,8.19 -14.9,19.41 -4.62,18.7 -17.41,73.77 -15,87.89l8.09 -0.07z"/>
   <path class="fil1" d="M741.28 260.02c-1.18,-3.29 -1.41,-29.29 -1.68,-35.44 -0.96,-21.23 -0.44,-9.29 9.02,-28.93 7.86,-16.32 8.93,-27.89 12.25,-43.72 0.95,-4.52 5,-9.46 9.12,-9.91 0.11,3.6 -16.18,80.77 -18.36,91.42 -1.35,6.59 -3.5,23.77 -10.34,26.58zm-4.43 16.66c2.5,-1.15 8.61,-12.22 10.39,-15 5,-7.81 5.01,-8.19 7.34,-18.63 3.19,-14.34 6.07,-27.95 9.09,-42.37l13.19 -64.16c1.25,-6 4,-15.5 4.38,-21.14 -1.59,0.57 -10.38,11.97 -11.64,13.95 -2.46,3.85 -0.49,5.73 -4.44,8.88 -11.12,8.9 -7.94,8.06 -12.27,27.03 -3.25,14.26 -6.98,26.25 -14.38,38.34 -6.1,9.97 -4.42,5.49 -4,21.65l2.33 51.45z"/>
   <path class="fil1" d="M912.8 207.79c-1.23,-2.21 -7.13,-45.88 -6.45,-49.62l16.69 -0.23c0.13,2.85 -9.08,47.33 -10.25,49.85zm-21.82 75.44c11.05,6.73 11.78,0.18 14.11,-11.02 4.13,-19.93 24.66,-114.41 24.25,-118.8 -6.6,-0.35 -22.87,-0.98 -28.81,0.14 -1.4,16.24 14.49,56.8 2.99,103.73 -1.31,5.34 -2.6,9.67 -5.22,14.13 -1.73,2.94 -6.97,9.74 -7.31,11.82z"/>
   <path class="fil0" d="M741.28 260.02c6.85,-2.81 8.99,-19.99 10.34,-26.58 2.19,-10.65 18.47,-87.82 18.36,-91.42 -4.12,0.45 -8.17,5.39 -9.12,9.91 -3.32,15.83 -4.39,27.4 -12.25,43.72 -9.46,19.63 -9.98,7.69 -9.02,28.93 0.28,6.16 0.5,32.15 1.68,35.44z"/>
   <path class="fil2" d="M450.15 206.73l27.61 -0.02c1.26,-4.46 6.33,-24.75 5.43,-28.48l-24.29 -0.17c-4.54,0 -3.49,1.69 -5.85,12.77 -0.92,4.3 -2.96,11.7 -2.89,15.9z"/>
   <path class="fil2" d="M648.26 206.48l27.46 0.5c1.02,-5.27 6.26,-24.82 4.8,-28.74l-26.64 -0.18c-1.65,3.06 -6.2,25.46 -5.62,28.41z"/>
   <path class="fil1" d="M726.3 66.44c2.07,1.16 4.53,1.03 6.77,1.78 2.44,0.82 3.38,1.74 4.47,3.55 4.43,7.43 -1.12,12.27 -6.74,22.67 -1.03,1.91 -4.14,9.49 -5.29,10.43 -8.82,-2.5 -1.94,-12.8 -4.67,-17.85 -5.21,0.34 -3.07,10.73 -2.3,13.09 5.78,17.88 30.99,10.44 30.22,-2.82 -5.56,1.25 -3.77,11.56 -14.36,11.67 -0.48,-2.43 4.06,-20.68 5.39,-23.5 1.51,-3.19 4.42,-6.35 6.63,-8.08 5.33,-4.16 7.11,0.15 11.09,1.11l1.58 -4.68c-6.37,-3.21 -22.87,-13.25 -30.9,-13.15l-1.87 5.76z"/>
   <path class="fil4" d="M951.72 313.09c-0.5,-3.95 1.25,-7.92 5.06,-7.79 1.36,3.27 -1.16,8.48 -5.06,7.79zm28.83 -16.94c-4.43,0.03 -5.46,5.86 -11.1,5.83 -1.67,-2.7 -3.44,-20.63 -14.6,-10.64 -4.21,3.77 -11.83,11.9 -9.37,21.42 3.56,13.79 15.8,0.32 18.38,-1.73 3.66,-2.92 14.98,-6.54 16.7,-14.87z"/>
   <path class="fil1" d="M691.67 101.2c-0.77,-1.76 -0.67,-1.26 -0.05,-3.15 -0.17,-0.9 -0.78,-27.05 -0.63,-28.05 2.41,-15.97 15.74,-7.35 16.77,-7.18l0.42 -7.71c-9.99,-2.1 -19.02,-1.38 -28.9,-1.02 -4.74,0.17 -5.76,-0.02 -4.83,5.37 5.21,0.41 7.48,0.01 10.11,3.3 6.04,7.57 0.54,23.45 -0.2,34.46 -11.88,-4.94 -5.14,-14.31 -9.51,-16.88 -3.6,3.7 0.45,11.52 2.77,14.72 3.56,4.89 6.29,5.05 14.05,6.14z"/>
   <path class="fil0" d="M912.8 207.79c1.17,-2.52 10.37,-47.01 10.25,-49.85l-16.69 0.23c-0.69,3.74 5.22,47.4 6.45,49.62z"/>
   <path class="fil4" d="M1241.21 255.58c-4.7,3.05 -18.54,26.36 -22.5,33.66 -0.46,0.86 -2.97,5.4 -2.96,6.24 0.03,3.62 4.41,1.7 6.03,0.19 4.54,-4.26 21.68,-25.46 25.12,-30.9 4.05,-6.4 -3.06,-10.89 -5.69,-9.18z"/>
   <path class="fil4" d="M1197.69 297.04c6.25,0.71 8.26,-3.88 11.02,-7.13l16.65 -20.69c2.56,-3.17 7.27,-7.64 2.43,-12.36 -4.78,-4.66 -7.02,0.82 -9.63,4.47 -4.1,5.73 -21.23,29.77 -20.46,35.71z"/>
   <path class="fil4" d="M1233.91 297.48c4.56,1.15 8.28,-4.97 10.56,-7.8l17.72 -21.62c3.4,-4.73 3.93,-10.62 -2.13,-13.21 -4.81,2.01 -27.13,36.62 -26.15,42.63z"/>
   <path class="fil1" d="M650.54 237.63c0.11,-1.12 2.72,-20.24 3.99,-18.03 0.12,0.2 0.78,-0.22 1.08,-0.26l6.51 0.1c0.3,2.68 -1.16,9.82 -1.86,12.59 -0.97,3.85 -6.02,4.87 -9.71,5.6zm-5.61 7.55c2.6,0 18.2,-6.16 19.24,-7.82 0.74,-1.18 4.72,-20.6 4.85,-22.96l-19.51 0.02c-1.01,2.67 -4.82,28.02 -4.59,30.76z"/>
   <path class="fil2" d="M663.38 281.66l19.92 0.34c1.05,-5.38 -9.84,-10.02 0.62,-19.66 1.57,-1.45 1.16,-0.95 2.67,-1.95 2.55,-1.69 1.88,-0.58 2.6,-3.4 -5.85,0.08 -14.89,4.26 -19.63,6.2 -5.64,2.32 -4.47,4.42 -6.25,12.69 -0.05,0.21 -0.56,2.82 -0.56,2.85 -0.05,1.58 -0.21,-0.67 0.05,1.17 0.2,1.41 0.1,0.97 0.56,1.75z"/>
   <path class="fil1" d="M509.55 230.55c1.06,2.24 0.7,6.88 0.34,9.8l-5.25 0.41c0.36,-2.89 1.63,-4.84 3.2,-7.88l1.7 -2.33zm-12.88 15.49l18.74 -0.04 -1.47 -38.62c-1.61,1.95 -16.92,35.56 -17.27,38.66z"/>
   <path class="fil1" d="M149.17 229.67l0.02 10.83 -5.37 0.47c0.46,-3.03 1.2,-4.07 2.28,-6.57 0.43,-0.99 0.73,-1.88 1.21,-2.84 0.86,-1.73 0.47,-1.65 1.86,-1.89zm-12.73 16.04l18.06 0.35 -1.02 -38.25c-2.35,1.57 -7.36,15.37 -8.75,18.52 -1.82,4.13 -8.96,15.78 -8.29,19.38z"/>
   <path class="fil1" d="M1148.36 230.29c1.54,1.58 0.91,-1.89 1.25,2.27 0.19,2.41 -1.68,3.68 -3.83,4.19l2.59 -6.46zm-11.88 15.29c4.5,0.53 9.09,1.39 11.66,-1.61 1.08,-1.26 5.65,-6.81 6.05,-8.16 0.73,-2.51 0.09,-24.72 -0.32,-28.43 -1.42,1.41 -17.24,36.1 -17.39,38.2z"/>
   <path class="fil1" d="M667.43 158.43l8.24 -0.19 -2.15 6.78c-2.9,0.54 -5.03,0.84 -8.19,0.15l2.1 -6.74zm-7.83 11.95l19.1 0.17 3.03 -17.14 -17.23 0.04c-1.45,2.43 -5.19,14.12 -4.89,16.94z"/>
   <path class="fil0" d="M38.63 209.64l12.13 -3.09 0.16 -20.7c-2.92,0.41 -11.03,2.6 -11.58,5.47 -0.68,3.55 -0.6,14.11 -0.71,18.32z"/>
   <path class="fil1" d="M353.06 245.89c0.43,-3.7 -3.57,-30.35 -4.81,-31.77 -1.43,2.8 -3.77,16.27 -5.11,20.69 -3.97,13.06 -6.37,11.41 9.93,11.07z"/>
   <path class="fil1" d="M852.27 245.75l11.69 0.48 -4.15 -34.78c-1.5,1.99 -7.56,31.03 -7.53,34.3z"/>
   <path class="fil1" d="M597.28 245.51c1.73,0.63 9.2,1.63 10.83,-0.36 1.42,-2.34 1.57,-15.48 2.35,-19.74 0.74,-4.08 3.05,-14.98 2.76,-18.49l-15.93 38.6z"/>
   <path class="fil2" d="M635.83 281.64c3.49,0.49 21.13,0.73 23.69,-0.37 1.56,-2.59 3.16,-11.14 3.34,-14.68 -4.26,0.75 -25.99,12.74 -27.03,15.04z"/>
   <path class="fil1" d="M1040.8 286.15c2.33,-1.24 2.26,-2.17 4.22,-3.26 5.86,-3.27 5.58,5.36 4.92,-23.64 -0.03,-1.53 -0,-3.13 -0.05,-4.63 -0.09,-2.88 -0.34,-3.2 -1.53,-4.51l-7.56 36.03z"/>
   <path class="fil3" d="M715.81 24.86c3.45,0.62 3.06,-0.48 6.72,1.26l-1.24 5.62 4.68 1.35c0.91,-3.74 0.28,-3.84 1.73,-6.36l6.39 2.34 1.84 -6.17 -7.19 0.19c-0.44,-3.4 1.11,-5.07 2.1,-7.3 -1.75,-1.66 -4.02,-2.1 -6.83,-2.22 0.32,4.4 2.59,8.6 -3.6,7.33 -4.32,-0.89 -5.07,-2.05 -4.59,3.96z"/>
   <path class="fil3" d="M712.5 46.81c3.43,-0.14 5.65,-7.5 9.84,-8.93 0.85,1.9 1.75,4.27 2.62,6.47 1.21,3.05 1.26,4.8 3.56,6.35 1.28,-2.84 3.31,-5.41 2.08,-9.92 -0.92,-3.34 -3.06,-5.48 -6.47,-6.31 -8.52,-2.08 -13.89,3.46 -11.63,12.34z"/>
   <path class="fil0" d="M650.54 237.63c3.69,-0.73 8.74,-1.75 9.71,-5.6 0.7,-2.77 2.16,-9.91 1.86,-12.59l-6.51 -0.1c-0.3,0.04 -0.96,0.46 -1.08,0.26 -1.27,-2.21 -3.88,16.91 -3.99,18.03z"/>
   <path class="fil2" d="M1013.17 115.29c5.76,0.21 4.28,-1 8.86,-11.58 1.52,-3.52 5.12,-11.18 5.59,-14.7 -6.29,-0.52 -4.96,-2.16 -9.46,10.9 -1.41,4.08 -4.85,11.39 -4.99,15.38z"/>
   <path class="fil3" d="M674.44 51.81c1.83,1.94 4.82,0.78 8.09,0.48 6.39,-0.6 14.66,-0.69 20.94,0.28 4.35,0.67 6.67,2.12 7.23,-2.62 -3.03,-0.88 -34.67,-2.94 -36.26,1.86z"/>
   <path class="fil4" d="M1207.53 307.28c-1.97,1.22 -4.75,4.8 -5.28,7.55 -0.73,3.81 3.09,6.69 6.45,4.51 1.07,-0.7 4.64,-6.1 4.96,-7.75 0.72,-3.66 -2.71,-6.42 -6.13,-4.31z"/>
   <path class="fil4" d="M840.15 284.46c5.14,-4.65 7.54,-8.69 2.67,-14.68 -4.87,0.98 -14.4,13.61 -2.67,14.68z"/>
   <path class="fil3" d="M760.07 72.3c0.36,-3.85 -2.34,-4.13 -5.58,-6.13 -5.21,-3.21 -21.18,-11.92 -26.38,-11.71 -0.78,5.47 4.1,3.82 15.78,8.94 6.09,2.67 14.13,8.5 16.19,8.91z"/>
   <path class="fil4" d="M1195.97 309.92c-1.74,-1.71 -4.83,-5.15 -7.59,-2.39 -1.3,1.31 -4.95,5.96 -4.89,8.44 0.1,4.38 4.48,4.45 7.26,2.03 1.99,-1.73 4.92,-4.84 5.22,-8.08z"/>
   <path class="fil4" d="M1226.73 306.03c-2.73,1.25 -5.05,4.39 -6.31,6.27 -2.26,3.37 -1.14,8.26 2.92,7.85 3.35,-0.34 11.99,-10.22 3.39,-14.12z"/>
   <path class="fil1" d="M770.22 105.12l-0.86 -0.6 -9.54 11.04c-3.79,3.85 -1.28,0.37 -4.29,1.62 -0.2,2.84 0.93,3.59 3.32,4.67 7.37,3.31 13.91,-3.81 15.47,-8.28 -5.45,1.58 -2.26,6.28 -11.08,6.37 0.9,-3.87 5.42,-11.39 6.98,-14.82z"/>
   <path class="fil0" d="M754.58 278.03c3.56,-1.59 25.67,-29.29 27.5,-33.52 -4.64,0.31 -12,11.4 -14.76,15.25 -2.49,3.47 -11.81,15.1 -12.73,18.28z"/>
   <path class="fil0" d="M1140.93 281.99c3.19,-1.38 5.03,-6.06 7.19,-8.68 4.02,-4.89 20.2,-22.71 21.04,-27.86 -2.45,0.57 -5.89,5.45 -7.82,7.75 -4.47,5.33 -19.53,23.86 -20.42,28.79z"/>
   <path class="fil2" d="M654.88 97.84c7.57,2.67 14.25,-10.25 9.3,-15.99 -1.35,2.1 0.06,4.91 -0.93,8.38 -0.81,2.85 -2.65,4.66 -4.4,5.82 -1.5,-2.02 -2.76,-13 -5.89,-17.39 -0.42,3.94 0.37,16.32 1.92,19.18z"/>
   <path class="fil1" d="M612.33 334.29c5.12,-0.92 26.11,-14.35 30.95,-17.5 -5.7,0.8 -12.12,3.68 -17.1,6.48 -3.56,2 -11.85,7.59 -13.85,11.02z"/>
   <path class="fil1" d="M614.84 300.77c0.3,-0.06 19.66,-9.3 20.98,-10.98 -4.64,-0.06 -11.32,-0.46 -13.9,1.88 -1.36,1.23 -6.41,7.26 -7.09,9.1z"/>
   <path class="fil0" d="M949.34 279.91l-0.86 -12.97c-0.1,-0.67 -0.13,-0.95 -0.32,-1.62 -0.43,-1.52 -0.29,-0.88 -0.54,-1.44l-4.62 21.38 6.34 -5.36z"/>
   <path class="fil0" d="M665.32 165.17c3.16,0.7 5.29,0.4 8.19,-0.15l2.15 -6.78 -8.24 0.19 -2.1 6.74z"/>
   <path class="fil3" d="M691.62 98.05c-0.62,1.89 -0.72,1.39 0.05,3.15 8.08,-3 13.53,-7.77 14,-18.21 -5.8,1.34 -2.43,14.18 -14.06,15.06z"/>
   <path class="fil3" d="M712.17 79.7c6.94,1.65 8.46,-3.76 4.11,-7.79 -4.74,-0.36 -6.51,1.79 -5.32,6.55l1.21 1.24z"/>
   <path class="fil2" d="M767.91 281.55l7.25 0.27 2.43 -11.55c-2.13,0.64 -9.35,10.02 -9.68,11.28z"/>
   <path class="fil0" d="M712.17 79.7l-1.21 -1.24c-1.19,-4.76 0.58,-6.91 5.32,-6.55 4.35,4.03 2.83,9.44 -4.11,7.79zm0.26 -8.56c-7.8,3.12 -2.34,12.61 4.58,10.2 6.8,-2.36 2.59,-13.08 -4.58,-10.2z"/>
   <path class="fil1" d="M782.83 284.52c2.01,-1.19 6.09,-26.04 6.12,-27.97 -1.96,0.8 -1.03,-1.91 -2.63,6.21 -0.49,2.46 -0.96,4.81 -1.44,7.2l-2.28 11.16c-0.65,3.43 -0.2,2.68 0.22,3.39z"/>
   <path class="fil3" d="M769.36 104.52l0.86 0.6c3.82,-4.9 2.71,-6.48 9.89,-8.62 -0.42,-2.57 -2.34,-4.14 -3.82,-6.14 -1.28,-1.73 -2.75,-5.01 -4.98,-4.76 0.07,6.37 10.13,3.35 -1.95,18.92z"/>
   <path class="fil0" d="M875.16 312.74l3.7 -2.74c1.06,-1.09 2.16,-2.12 3.2,-3.47 1.48,-1.92 3.96,-5.36 4.54,-8.46 -4.08,0.44 -11,11.08 -11.43,14.67z"/>
   <path class="fil0" d="M755.61 89.87c2.44,-1.65 3.34,-1.56 5.94,-0.16l0.05 4.03c-3.7,1.73 -6.59,0.86 -5.99,-3.87zm1.35 -2.79c-6.63,3.01 -1.88,11.57 3.99,8.84 5.08,-2.36 2.03,-11.57 -3.99,-8.84z"/>
   <path class="fil1" d="M986.95 300.58c0.6,-0.43 7.09,-8.67 6.97,-10.98l-7.76 -0.15c0.26,5.91 2.06,-1.56 0.79,11.14z"/>
   <path class="fil3" d="M708.6 107.48c-4.52,-0.69 -5.5,0.84 -5.18,5.28 1.78,1.43 3.68,3.04 5.99,0.97 2.69,-2.41 0.56,-4.89 -0.81,-6.26z"/>
   <path class="fil0" d="M723.86 312.32c3.22,-1.25 4.45,-3.42 6.44,-6.23 1.78,-2.51 3.32,-4.7 3.61,-7.9 -3.44,0.54 -9.26,9.68 -10.05,14.13z"/>
   <path class="fil3" d="M644.34 65.57c0.94,-0.15 13.96,-6.49 14.51,-10.39 -2.24,0.35 -9.29,4.67 -12.19,6.43 -2.21,1.35 -2.31,0.94 -2.32,3.96z"/>
   <path class="fil3" d="M782.16 95.41c0.01,-0.02 2.01,-0.31 -0.11,-4.11 -1.28,-2.29 -5.6,-8.51 -7.88,-9.15 -1.38,2.99 6.93,12.6 8,13.25z"/>
   <path class="fil0" d="M671.52 109.24c-5.79,0.56 -5.14,-4.92 -1.96,-5.62 4.42,-0.96 4.89,3.2 1.96,5.62zm3.11 -4.74c-4.98,-5.56 -10.39,-1.13 -8.79,3.65 1.41,4.22 9.75,4.83 8.79,-3.65z"/>
   <path class="fil0" d="M743.96 126.28c-5.59,0.86 -5.33,-4.69 -3.27,-5.96 2.94,-1.81 5.5,1.91 3.27,5.96zm-0.46 -8.07c-7.79,-0.47 -6.21,9.01 -1.73,9.88 2.72,0.53 4.63,-1.82 4.82,-4.33 0.24,-3.12 -1.71,-4.33 -3.1,-5.55z"/>
   <path class="fil1" d="M67.67 186.34l-0.01 6.38 4.68 -0.02 0.16 -9.02c-2.48,0.68 -3.33,1.63 -4.83,2.67z"/>
   <path class="fil0" d="M149.17 229.67c-1.39,0.24 -1,0.16 -1.86,1.89 -0.48,0.96 -0.78,1.85 -1.21,2.84 -1.08,2.51 -1.82,3.54 -2.28,6.57l5.37 -0.47 -0.02 -10.83z"/>
   <path class="fil3" d="M665.88 73.44c4.67,1.6 6.91,0.47 5.78,-4.51 -4.3,-2.57 -7.99,-1.3 -5.78,4.51z"/>
   <path class="fil0" d="M708.6 107.48c1.36,1.37 3.5,3.85 0.81,6.26 -2.3,2.06 -4.2,0.46 -5.99,-0.97 -0.32,-4.45 0.66,-5.97 5.18,-5.28zm-3.77 -1.48c-6.13,5.22 -1.06,11.51 4.32,9.45 4.55,-1.74 4.43,-10.43 -4.32,-9.45z"/>
   <path class="fil0" d="M1112.43 312.36c2.99,-1.35 9.25,-9.3 10.24,-13.76 -3.01,1.05 -9.92,9.59 -10.24,13.76z"/>
   <path class="fil0" d="M507.85 232.88c-1.57,3.04 -2.85,4.99 -3.2,7.88l5.25 -0.41c0.36,-2.92 0.72,-7.56 -0.34,-9.8l-1.7 2.33z"/>
   <path class="fil0" d="M665.88 73.44c-2.21,-5.82 1.48,-7.09 5.78,-4.51 1.13,4.99 -1.11,6.12 -5.78,4.51zm-1.65 -4.99c-0.76,5.5 1.29,7.67 6.67,7.24 6.37,-5.67 -0.47,-12.48 -6.67,-7.24z"/>
   <path class="fil2" d="M792.82 236.78c0.1,-0.15 0.27,-0.56 0.31,-0.45l1.41 -4.84c0.4,-1.85 0.85,-4 1.25,-5.81 0.48,-2.17 0.88,-3.99 1.4,-6.22 0.54,-2.33 1.58,-3.92 -0.38,-4.59 -1.05,2.69 -1.82,7.54 -2.5,10.62 -0.43,1.94 -0.76,3.5 -1.17,5.39 -0.18,0.83 -0.51,2 -0.64,2.71 -0.52,2.76 -0.1,2.44 0.31,3.19z"/>
   <path class="fil0" d="M951.72 313.09c3.9,0.69 6.43,-4.52 5.06,-7.79 -3.81,-0.13 -5.56,3.84 -5.06,7.79z"/>
   <path class="fil3" d="M755.61 89.87c-0.6,4.73 2.29,5.6 5.99,3.87l-0.05 -4.03c-2.6,-1.4 -3.5,-1.49 -5.94,0.16z"/>
   <path class="fil3" d="M648.73 65.82c0.48,2.13 1.39,2.96 2.49,4.28 0.62,-3.74 0.82,-4.3 3.05,-6.2 1.62,-1.37 4.58,-2.08 4.85,-4.41 -2.45,-0.13 -9.15,4.62 -10.39,6.34z"/>
   <path class="fil3" d="M743.96 126.28c2.23,-4.05 -0.33,-7.76 -3.27,-5.96 -2.06,1.27 -2.32,6.82 3.27,5.96z"/>
   <path class="fil3" d="M671.52 109.24c2.94,-2.42 2.47,-6.58 -1.96,-5.62 -3.18,0.69 -3.83,6.17 1.96,5.62z"/>
   <path class="fil3" d="M753.42 115.97c2.1,-1 1.21,0.01 1.99,-2.87 1.31,-4.83 3.22,-6.81 3.82,-9.72 -4.73,0.32 -5.9,7.23 -5.82,12.59z"/>
   <path class="fil1" d="M714.71 168.68c3.36,-2.1 5.09,-11.77 3.47,-14.82 -1.93,2.95 -3.07,10.87 -3.47,14.82z"/>
   <path class="fil0" d="M1142.4 313.06c4.46,0.29 5.52,-4.34 4.82,-8.9 -3.04,1.03 -4.63,4.93 -4.82,8.9z"/>
   <path class="fil0" d="M752.62 313.55c3.92,-1.05 7.04,-4.86 4.88,-9.72 -1.77,0.75 -0.26,-0.82 -1.82,1.57l-3.06 8.15z"/>
   <path class="fil2" d="M1085.73 221.79l3.42 -16.25c-2.3,1.26 -2.94,2.54 -3.45,6.39 -0.45,3.36 -0.3,6.5 0.03,9.86z"/>
   <path class="fil3" d="M653.22 97.47c-1.01,-2.67 -3.25,-2.86 -4.77,-6.56 -0.61,-1.48 -1.07,-2.79 -1.67,-4.32 -0.08,-0.21 -0.69,-1.87 -0.73,-1.95 -0.8,-1.43 -0.36,-1 -1.82,-1.48 1.36,4.78 4.43,13.89 8.99,14.31z"/>
   <path class="fil3" d="M780.55 111.18c0.69,0.79 0.51,1.2 1.98,1.7 4.14,1.43 2.79,-3.52 2.38,-5.09 -3.21,-0.24 -3.71,0.51 -4.36,3.38z"/>
   <path class="fil3" d="M636.69 78.74c3,1.16 4.09,-0.15 3.91,-3.36 -1.13,-0.47 -4.21,-1.72 -4.63,1.14 -0.48,3.23 0.55,1.94 0.72,2.22z"/>
   <path class="fil3" d="M643.5 105.92l0.53 3.97c3.35,0.94 4.36,0.76 4.35,-3.47l-4.88 -0.5z"/>
   <path class="fil3" d="M761.76 132.61c-0.08,3.18 0.68,4.1 3.69,3.81 0.61,-1.33 0.95,-2.3 0.31,-4.17l-4.01 0.36z"/>
   <path class="fil0" d="M1145.77 236.75c2.15,-0.51 4.02,-1.78 3.83,-4.19 -0.33,-4.16 0.29,-0.69 -1.25,-2.27l-2.59 6.46z"/>
  </g>
 </g>
</svg>
