<?xml version="1.0" encoding="UTF-8"?>
<!DOCTYPE svg PUBLIC "-//W3C//DTD SVG 1.1//EN" "http://www.w3.org/Graphics/SVG/1.1/DTD/svg11.dtd">
<!-- Creator: CorelDRAW -->
<svg xmlns="http://www.w3.org/2000/svg" xml:space="preserve" width="69.3541mm" height="22.3413mm" version="1.1" style="shape-rendering:geometricPrecision; text-rendering:geometricPrecision; image-rendering:optimizeQuality; fill-rule:evenodd; clip-rule:evenodd"
viewBox="0 0 353.52 113.88"
 xmlns:xlink="http://www.w3.org/1999/xlink"
 xmlns:xodm="http://www.corel.com/coreldraw/odm/2003">
 <defs>
  <style type="text/css">
   <![CDATA[
    .fil0 {fill:#111113}
    .fil1 {fill:#EF1D20}
    .fil2 {fill:#F6F8F8}
   ]]>
  </style>
 </defs>
 <g id="Camada_x0020_1">
  <metadata id="CorelCorpID_0Corel-Layer"/>
  <g id="_2065429630768">
   <path class="fil0" d="M86.11 69.16c-0.24,3.1 -2.53,9.64 -3.6,12.4 -3.9,10.12 -11.13,23.49 -25.15,22.25 -10,-0.88 -11.83,-10.37 -9.61,-20.32 1.84,-8.28 4.58,-16.85 7.01,-24.71 4.79,-15.51 9.7,-35.61 26.13,-37.51 11.28,-1.3 14.69,6.87 13.57,17.46 -0.92,8.69 -4.34,17.36 -6.51,25.15l-19.67 0.04c-0.54,2.03 -1.36,4.16 -1.98,6.41 -0.62,2.24 -1.1,4.37 -1.81,6.57 -0.78,2.42 -4.32,11.02 -1.85,12.79 2.11,0.63 3.05,-1.86 3.85,-3.47 1.56,-3.18 4.76,-13.79 5.63,-17.08l13.99 0.02zm65.8 -15.71c1.95,-10.12 6.73,-22.26 14.69,-28.26 9.24,-6.96 26.13,-6.18 23.5,10.65 -1.8,11.51 -6.12,23.12 -9.19,33.79 -1.57,5.46 -3.3,11.01 -5.02,16.47 -0.75,2.39 -4.31,15.43 -4.91,16.4l-14.49 -0.09 1.53 -6.16c-9.53,13.2 -18.33,7.28 -17.8,-0.65 0.5,-7.44 4.67,-20.78 7.48,-26.42 3.66,-7.35 12.24,-9.91 19.33,-14.46 4.28,-2.74 4.74,-4.84 6.42,-10.61 0.39,-1.32 1.56,-5.63 1.41,-6.91 -0.28,-2.43 -4.43,-2.65 -5.8,-1.55l1.56 1.08c-0.11,3.19 -3.95,12.78 -4.85,16.8l-13.89 -0.07zm-19.27 -15.01c0.22,-2.27 3.76,-14.17 4.68,-15.84l23.99 -0.04c0.34,2.98 -2.01,6.65 -3.18,8.57 -4.61,7.52 -5.68,16.46 -10.2,24.91 -2.69,5.02 -5.6,10.01 -8.18,15.13l-6.19 11.37c-0.69,1.25 -1.14,2.69 -1.75,3.88l7.78 0.24c0.36,1.19 -0.79,5.88 -0.95,7.48 -0.18,1.83 0.43,7.28 -1.11,8.04 -1.27,0.63 -22.18,0.25 -25.25,0.24 0.41,-3.43 4.21,-15.05 5.58,-18.01l8.26 -15.31c2.85,-5.07 5.5,-10.24 8.23,-15.37 1.75,-3.28 7.06,-12.4 8.03,-15.22l-9.73 -0.05zm-17.47 -9.89c1.67,-0.81 3.91,-5.56 9.37,-7.16 5.13,-1.51 8.9,2.27 8.59,7.06 -0.18,2.86 -3.42,11.65 -3.12,12.8 0.19,0.73 0.55,-0.16 0.35,1.62l-3.22 10.99c-2.47,8.25 -4.7,17.42 -8.28,24.48 -1.94,3.82 -3.42,6.87 -4.78,11.46 -1.17,3.95 -2.82,8.62 -3.64,12.66 -1.85,0.12 -11.36,0.18 -12.68,-0.17 0.85,-2.35 1.53,-5.64 2.29,-8.19l7.45 -24.78c1.7,-5.57 3.27,-11.01 4.94,-16.55 1.17,-3.88 4.65,-13.19 3.82,-17.23 -3.46,-0.62 -4.17,3.11 -5.1,6 -0.9,2.79 -1.77,5.8 -2.6,8.66l-10.44 34.91c-1.6,5.35 -4.07,11.92 -5.11,17.39l-14.95 -0.17c0.54,-3.04 10.68,-36.69 11.7,-40 3.06,-9.93 8.96,-31.59 12.1,-39.79l15.05 0.16 -1.73 5.85zm-111.12 73.87c0.36,-3.11 11.28,-38.54 12.4,-42.12 4.33,-13.81 8.26,-27.83 12.52,-41.73 1.06,-3.46 2.1,-7.07 3.09,-10.54 1.13,-3.97 0.79,-3.17 10.52,-3.1 8.33,0.06 18.33,-1.05 20.19,7.06 1.72,7.53 -3.21,31.17 -11.17,35.5 -1.11,0.6 -3.45,1.5 -4.19,2.25 1,1.22 2.56,1.89 3.58,3.13 1.02,1.25 1.35,3.16 1.37,5.25 0.08,7.14 -5.89,25.08 -8.45,31.19 -2.79,6.67 -5.64,11.42 -13.74,12.7 -7.19,1.13 -18.49,0.44 -26.11,0.4zm27.5 -102.2c-2.95,8.56 -5.36,17.72 -8.04,26.54 -3.36,11.08 -23.96,78.64 -23.51,80.47l3.48 0.2 -0.55 4.71c8.84,0.24 17.78,0.3 26.69,0.1 12.45,-0.28 13.06,-5.98 17.15,-9.71 3.35,3.05 3.49,9.72 12.64,11.08 8.36,1.25 12.64,-2.92 17.91,-5.84l-0.76 4.49 65.33 -0.02c0.98,-0.42 0.1,0.14 0.78,-0.66 0.2,-0.23 0.14,-0.33 0.53,-0.71 2.12,0.75 3.42,2.78 6.29,2.86 2.66,0.07 5.48,-1.19 7.86,-1.42 5.14,-0.51 13.17,0.89 17.86,-0.34 1.39,-1.33 1.9,-4.42 2.42,-6.84 0.52,-2.44 1.58,-4.7 2.31,-7.12 3.77,-12.65 15.34,-49.09 15.92,-59.27 0.15,-2.61 -0.14,-6.24 -0.99,-8.41 -0.71,-1.82 -3,-5.44 -4.26,-7.52 -0.32,-0.54 -0.67,-1.03 -0.94,-1.43 -2.31,-3.44 -3.74,-4.36 -9.13,-5.02 -7.83,-0.96 -11.28,2.9 -14.87,3.85l0.17 -2.41 -30.05 0.05c-0.41,0.65 -0.97,2.06 -1.4,2.8 -1.18,-0.92 -1.12,-1.69 -2.46,-2.58 -5.22,-3.53 -7.97,-0.73 -11.81,-0.28 -4.1,0.48 -17.52,-0.7 -19.89,0.24 -1.52,2.17 -1.2,6.52 -3.16,8.32 -2.86,-2.41 -2.97,-8.26 -11.52,-9.88 -7.51,-1.43 -11.4,2.46 -16.46,4.66 -1.27,-5.53 -0.38,-6.72 -3.25,-11.41 -1.99,-3.25 -3.4,-6.54 -6.71,-7.97 -5.69,-2.47 -20.71,-1.6 -27.59,-1.51z"/>
   <path class="fil0" d="M269.03 69.1c-0.3,3.07 -2.41,9.74 -3.47,12.6 -3.81,10.23 -11.68,23.43 -25.41,22.31 -9.95,-0.81 -11.6,-11.07 -9.42,-20.73 2.06,-9.1 7.54,-27.42 10.68,-37.01 1.44,-4.39 2.68,-7.3 4.65,-11.06 3.67,-7 9.5,-12.78 17.78,-13.9 11.11,-1.5 15.01,6.92 13.49,17.38 -1.15,7.88 -3.78,18.62 -6.57,25.14l-19.07 0.04c-0.95,0.6 -1.86,4.54 -2.26,5.89 -1.3,4.38 -5.19,15.7 -4.76,19.24 1.01,0.56 1.55,1.1 2.76,0.27 2.45,-1.69 4.8,-11.03 5.65,-14.03 0.62,-2.19 1.37,-3.87 2,-5.9 4.55,-0.58 9.31,-0.29 13.95,-0.24zm48.98 5.47c-0.31,3.38 -1.43,5.77 -2.29,8.81 -0.29,1.03 -0.97,3.47 -0.82,4.58 0.33,2.44 3.67,4.02 6.56,-5.91 0.97,-3.34 1.54,-5.68 -0.34,-8.45 -2.73,-4.01 -6.96,-8.17 -8.76,-12.98 -2.12,-5.64 0.03,-12.8 1.69,-17.95 3.46,-10.75 8.25,-20.89 21.76,-21.52 5.91,-0.28 8.52,1.63 11.03,5.53 0.49,0.76 0.8,1.01 0.94,1.66 0.13,0.58 0.1,1.78 0.16,2.44 0.33,3.8 -0.31,5.86 -1.16,9.25 -0.44,1.74 -1.81,6.84 -2.58,8.14l-12.99 -0.11c-0.29,-2.75 2.61,-7.5 2.56,-11.99 -2.17,-0.62 -3.14,-0.92 -5.8,-0.8 0.48,0.72 0.75,0.91 1.58,1.31 -0.71,6.09 -4.65,9.25 -0.52,14.97 2.55,3.53 6.75,6.99 8.19,10.66 3.19,8.13 -2.75,24.19 -6.08,30.02 -2.43,4.25 -4.73,7.41 -9.38,9.74 -8.13,4.07 -22.79,3.11 -20.76,-12.38 0.31,-2.39 1.23,-5.28 1.78,-7.64 0.65,-2.74 0.62,-5.22 2.11,-7.34 2.29,-0.49 10.22,-0.07 13.12,-0.05zm-37.11 14.89c2.12,0.51 2.72,-0.31 3.43,-1.83 2,-4.26 18.55,-61.07 19.47,-64.49 3.07,-1.16 11.27,-0.77 14.9,-0.5 0.48,2.36 -12.26,41.74 -14.58,49.93 -0.51,1.8 -0.8,3.4 -1.39,5.17 -0.57,1.69 -1.16,3.23 -1.61,4.93 -0.83,3.13 -4.75,18.67 -6.18,19.87l-14.86 -0.01 1.48 -5.4c-0.74,0.54 -1.32,1.53 -1.99,2.25 -6.13,6.61 -17.42,7.72 -15.71,-6.06 0.6,-4.85 2.21,-9.66 3.53,-13.99 0.68,-2.23 1.11,-5.01 1.85,-7.05 3.4,-9.39 7.59,-24.11 10.41,-33.87 1.31,-4.55 2.72,-8.96 4.07,-13.49 0.79,-2.64 1.54,-2.67 6.5,-2.48 2.22,0.09 7.19,-0.12 8.94,0.2 -0.5,4.93 -3.33,11.97 -4.73,16.66 -1.65,5.54 -3.26,11.1 -4.93,16.56 -1.69,5.53 -3.28,11.08 -4.97,16.52 -1.03,3.29 -4.87,13.86 -3.63,17.09zm-93.88 12.92c0.76,-4.45 2.26,-8.28 3.47,-12.42 2.69,-9.15 23.87,-81.44 25.61,-84.95 7.14,-0.08 16.32,-0.59 23.03,0.71 7.4,1.43 9.05,6.58 7.88,14.74 -0.87,6.09 -3.21,13.36 -4.97,18.88 -1.91,6 -3.56,12.2 -5.32,18.26 -2.72,9.36 -7.85,27.47 -11.98,35.44 -2.73,5.26 -6.69,8.48 -14.26,9.24 -2.67,0.27 -20.5,0.29 -23.47,0.11zm27.16 -101.9c-1.11,4.35 -2.58,9.04 -3.91,13.35 -1.36,4.39 -2.6,8.88 -3.96,13.34 -1.34,4.37 -2.42,9.12 -3.84,13.46 -2.13,6.52 -2.14,6.15 -4.03,13.27 -2.28,8.58 -5.46,17.67 -8,26.59 -0.66,2.33 -1.38,4.36 -2.04,6.61 -0.67,2.28 -1.09,4.65 -1.77,6.88 -0.76,2.47 -4.08,10.98 -3.75,13.32l3.3 0.2c0.03,0.12 0.06,0.15 0.07,0.27 0.16,2.27 0.06,1.74 -0.21,4.46 8.74,0.14 17.8,0.29 26.55,0.01 4.54,-0.15 7.25,-0.93 10.28,-2.99 2.68,-1.82 4.37,-4.71 6.61,-6.72 1.44,1.41 1.56,1.67 2.7,3.69 2.67,4.73 6.7,7.64 12.96,7.63 3.92,-0 7.88,-1.44 10.43,-3.1 4.49,-2.93 5.23,-5.3 7.45,-6.21 0.66,1.11 1.48,2.13 2.24,3.46 2.48,4.34 5.83,7.25 11.67,5.24 3.94,-1.36 6.19,-0.99 10.67,-1 4.06,-0.01 8.12,-0.03 12.19,-0.03 0.43,-1.96 1.56,-5.2 2.49,-6.57 1.48,1.25 2.39,4.76 6.77,6.79 3.37,1.56 7.66,1.83 11.67,0.82 7.32,-1.83 12.13,-7.03 15.16,-12.62 4.12,-7.59 9.54,-23.28 7.46,-32.97 -0.73,-3.42 -3.93,-6.87 -4.25,-9.41 3.02,-0.88 8.48,0.74 9.81,-0.94 0.75,-0.95 2.24,-7.09 2.72,-8.81 1.7,-6.08 3.08,-13.56 0.47,-19.46l-4.24 -7.29c-3.54,-5.59 -10.64,-6.01 -16.79,-4.82 -2.49,0.48 -5.55,2.53 -8.03,3.42l0.18 -2.46c-4.32,-0.45 -37.83,-0.49 -40.18,0.29 -0.64,1.75 -2.25,7.06 -3.06,8.17 -3.72,-4.52 -3.68,-7.74 -10.56,-9.51 -8.36,-2.15 -13.54,2.92 -16.43,3.41 -0.51,-5.48 -1.31,-7.35 -3.6,-11.15 -2.08,-3.45 -2.95,-6.08 -7.17,-7.51 -6.26,-2.11 -20.74,-1.3 -28.01,-1.12z"/>
   <path class="fil1" d="M207.85 85.72c0.61,-4.16 7.51,-26.4 9.27,-32.3 3.16,-10.62 6.13,-21.48 9.69,-31.69 4.88,0.15 3.7,2.83 2.68,6.6 -3.65,13.45 -11.1,39.68 -15.72,51.89 -1.26,3.33 -1.83,5.03 -5.91,5.51zm-20.83 16.66c2.97,0.18 20.8,0.16 23.47,-0.11 7.58,-0.76 11.53,-3.98 14.26,-9.24 4.14,-7.97 9.26,-26.09 11.98,-35.44 1.76,-6.07 3.41,-12.26 5.32,-18.26 1.76,-5.52 4.09,-12.78 4.97,-18.88 1.17,-8.15 -0.48,-13.3 -7.88,-14.74 -6.71,-1.3 -15.89,-0.78 -23.03,-0.71 -1.74,3.52 -22.93,75.8 -25.61,84.95 -1.22,4.14 -2.72,7.98 -3.47,12.42z"/>
   <path class="fil2" d="M31.83 60.75c-1.17,-0.62 -2.11,-1.49 -2.83,-2.31 2.89,-0.14 5.17,-0.12 7.46,1.34 0.35,3.81 -2.38,11.72 -3.45,15.25 -2.31,7.63 -2.65,10.1 -8.39,10.69l7.21 -24.98zm5.66 -17.41c0.94,-6.61 4.33,-12.38 5.18,-18.87 -1.33,-0.5 -2.73,-1.53 -3.54,-2.52 3.3,-0.29 4.85,-0.27 7.99,0.21 0.6,4.98 -0.91,8.64 -2.23,12.86 -2.17,6.92 -2.65,8 -7.4,8.32zm-33.44 59.08c7.62,0.04 18.93,0.73 26.11,-0.4 8.1,-1.27 10.95,-6.02 13.74,-12.7 2.56,-6.11 8.52,-24.05 8.45,-31.19 -0.02,-2.09 -0.35,-4 -1.37,-5.25 -1.01,-1.24 -2.58,-1.91 -3.58,-3.13 0.74,-0.75 3.08,-1.65 4.19,-2.25 7.97,-4.33 12.9,-27.96 11.17,-35.5 -1.86,-8.11 -11.85,-7 -20.19,-7.06 -9.73,-0.07 -9.39,-0.88 -10.52,3.1 -0.98,3.47 -2.03,7.08 -3.09,10.54 -4.26,13.9 -8.19,27.92 -12.52,41.73 -1.12,3.58 -12.05,39.01 -12.4,42.12z"/>
   <path class="fil1" d="M280.9 89.46c-1.24,-3.24 2.6,-13.81 3.63,-17.09 1.7,-5.44 3.28,-10.99 4.97,-16.52 1.67,-5.47 3.27,-11.03 4.93,-16.56 1.4,-4.68 4.23,-11.73 4.73,-16.66 -1.76,-0.32 -6.72,-0.11 -8.94,-0.2 -4.96,-0.19 -5.71,-0.16 -6.5,2.48 -1.35,4.53 -2.76,8.94 -4.07,13.49 -2.82,9.76 -7.01,24.48 -10.41,33.87 -0.74,2.05 -1.17,4.82 -1.85,7.05 -1.32,4.33 -2.93,9.14 -3.53,13.99 -1.71,13.79 9.58,12.67 15.71,6.06 0.67,-0.72 1.25,-1.71 1.99,-2.25l-1.48 5.4 14.86 0.01c1.43,-1.2 5.35,-16.74 6.18,-19.87 0.45,-1.7 1.04,-3.24 1.61,-4.93 0.6,-1.77 0.88,-3.37 1.39,-5.17 2.32,-8.19 15.06,-47.56 14.58,-49.93 -3.63,-0.27 -11.83,-0.66 -14.9,0.5 -0.92,3.42 -17.48,60.23 -19.47,64.49 -0.71,1.52 -1.31,2.34 -3.43,1.83z"/>
   <path class="fil2" d="M115.17 28.55l1.73 -5.85 -15.05 -0.16c-3.14,8.2 -9.05,29.86 -12.1,39.79 -1.02,3.31 -11.16,36.96 -11.7,40l14.95 0.17c1.04,-5.47 3.5,-12.03 5.11,-17.39l10.44 -34.91c0.83,-2.87 1.7,-5.87 2.6,-8.66 0.94,-2.9 1.65,-6.62 5.1,-6 0.83,4.04 -2.65,13.35 -3.82,17.23 -1.67,5.54 -3.24,10.98 -4.94,16.55l-7.45 24.78c-0.76,2.55 -1.44,5.84 -2.29,8.19 1.32,0.35 10.83,0.29 12.68,0.17 0.82,-4.03 2.47,-8.7 3.64,-12.66 1.36,-4.59 2.84,-7.64 4.78,-11.46 3.58,-7.06 5.82,-16.23 8.28,-24.48l3.22 -10.99c0.2,-1.78 -0.16,-0.89 -0.35,-1.62 -0.29,-1.15 2.94,-9.94 3.12,-12.8 0.3,-4.79 -3.47,-8.57 -8.59,-7.06 -5.46,1.61 -7.7,6.36 -9.37,7.16z"/>
   <path class="fil2" d="M166.94 65.06c0.02,1.91 -5.79,21.59 -7.3,23.65 -0.49,0.67 -2.1,1.61 -3.22,0.49 -1.33,-1.33 2.76,-19.55 10.52,-24.15zm-15.03 -11.61l13.89 0.07c0.89,-4.02 4.73,-13.6 4.85,-16.8l-1.56 -1.08c1.37,-1.1 5.51,-0.87 5.8,1.55 0.15,1.28 -1.02,5.59 -1.41,6.91 -1.68,5.77 -2.15,7.87 -6.42,10.61 -7.1,4.55 -15.67,7.11 -19.33,14.46 -2.81,5.64 -6.98,18.97 -7.48,26.42 -0.54,7.93 8.26,13.85 17.8,0.65l-1.53 6.16 14.49 0.09c0.6,-0.98 4.16,-14.01 4.91,-16.4 1.71,-5.46 3.44,-11.01 5.02,-16.47 3.07,-10.67 7.39,-22.29 9.19,-33.79 2.63,-16.83 -14.26,-17.61 -23.5,-10.65 -7.96,6 -12.74,18.14 -14.69,28.26z"/>
   <path class="fil1" d="M259.23 36.91c-0.74,-0.79 -1.05,-0.56 -1.43,-1.75 2.49,-0 3.41,0.14 5.4,0.98 -0.04,5.28 -2.36,10.19 -3.65,14.69l-4.19 0.02c0.26,-4.93 3.21,-8.8 3.87,-13.95zm9.8 32.19c-4.63,-0.05 -9.39,-0.34 -13.95,0.24 -0.63,2.03 -1.38,3.71 -2,5.9 -0.85,3 -3.19,12.35 -5.65,14.03 -1.21,0.83 -1.75,0.28 -2.76,-0.27 -0.43,-3.53 3.46,-14.86 4.76,-19.24 0.4,-1.35 1.3,-5.28 2.26,-5.89l19.07 -0.04c2.79,-6.53 5.42,-17.26 6.57,-25.14 1.52,-10.46 -2.37,-18.88 -13.49,-17.38 -8.29,1.12 -14.11,6.9 -17.78,13.9 -1.97,3.76 -3.21,6.68 -4.65,11.06 -3.14,9.59 -8.62,27.9 -10.68,37.01 -2.18,9.66 -0.53,19.92 9.42,20.73 13.73,1.11 21.6,-12.09 25.41,-22.31 1.06,-2.86 3.17,-9.53 3.47,-12.6z"/>
   <path class="fil2" d="M72.5 50.95c-0.13,-1.8 1.73,-6.54 2.3,-8.28 2.64,-8.1 0.89,-5.17 0.18,-7.57 2.36,-0.01 3.81,-0.16 5.33,0.97 0.67,1.1 -2.82,13.73 -3.76,14.82l-4.04 0.06zm13.61 18.21l-13.99 -0.02c-0.87,3.29 -4.07,13.9 -5.63,17.08 -0.79,1.62 -1.74,4.1 -3.85,3.47 -2.47,-1.78 1.07,-10.38 1.85,-12.79 0.71,-2.2 1.19,-4.33 1.81,-6.57 0.62,-2.25 1.44,-4.38 1.98,-6.41l19.67 -0.04c2.18,-7.79 5.6,-16.46 6.51,-25.15 1.12,-10.59 -2.3,-18.76 -13.57,-17.46 -16.43,1.9 -21.35,21.99 -26.13,37.51 -2.43,7.87 -5.17,16.44 -7.01,24.71 -2.21,9.95 -0.39,19.44 9.61,20.32 14.02,1.24 21.25,-12.13 25.15,-22.25 1.06,-2.76 3.36,-9.3 3.6,-12.4z"/>
   <path class="fil1" d="M318.01 74.57c-2.9,-0.02 -10.83,-0.44 -13.12,0.05 -1.49,2.11 -1.46,4.59 -2.11,7.34 -0.56,2.37 -1.47,5.26 -1.78,7.64 -2.03,15.49 12.63,16.45 20.76,12.38 4.65,-2.33 6.96,-5.5 9.38,-9.74 3.33,-5.83 9.27,-21.89 6.08,-30.02 -1.44,-3.67 -5.64,-7.13 -8.19,-10.66 -4.13,-5.72 -0.2,-8.89 0.52,-14.97 -0.83,-0.4 -1.1,-0.59 -1.58,-1.31 2.66,-0.12 3.64,0.18 5.8,0.8 0.05,4.49 -2.84,9.24 -2.56,11.99l12.99 0.11c0.77,-1.31 2.14,-6.4 2.58,-8.14 0.85,-3.39 1.5,-5.45 1.16,-9.25 -0.06,-0.66 -0.04,-1.86 -0.16,-2.44 -0.14,-0.65 -0.45,-0.9 -0.94,-1.66 -2.51,-3.89 -5.12,-5.8 -11.03,-5.53 -13.5,0.63 -18.3,10.77 -21.76,21.52 -1.66,5.15 -3.81,12.31 -1.69,17.95 1.81,4.81 6.04,8.98 8.76,12.98 1.88,2.76 1.31,5.11 0.34,8.45 -2.89,9.94 -6.23,8.36 -6.56,5.91 -0.15,-1.1 0.53,-3.54 0.82,-4.58 0.86,-3.04 1.98,-5.43 2.29,-8.81z"/>
   <path class="fil2" d="M132.64 38.44l9.73 0.05c-0.97,2.83 -6.28,11.94 -8.03,15.22 -2.73,5.14 -5.37,10.3 -8.23,15.37l-8.26 15.31c-1.36,2.97 -5.17,14.59 -5.58,18.01 3.07,0.01 23.98,0.39 25.25,-0.24 1.54,-0.76 0.93,-6.21 1.11,-8.04 0.16,-1.6 1.31,-6.29 0.95,-7.48l-7.78 -0.24c0.61,-1.19 1.06,-2.63 1.75,-3.88l6.19 -11.37c2.58,-5.11 5.5,-10.11 8.18,-15.13 4.52,-8.45 5.59,-17.4 10.2,-24.91 1.18,-1.92 3.52,-5.59 3.18,-8.57l-23.99 0.04c-0.92,1.68 -4.46,13.57 -4.68,15.84z"/>
   <path class="fil0" d="M207.85 85.72c4.08,-0.48 4.65,-2.17 5.91,-5.51 4.62,-12.21 12.07,-38.43 15.72,-51.89 1.03,-3.77 2.21,-6.45 -2.68,-6.6 -3.56,10.21 -6.53,21.07 -9.69,31.69 -1.76,5.9 -8.66,28.15 -9.27,32.3z"/>
   <path class="fil0" d="M31.83 60.75l-7.21 24.98c5.74,-0.6 6.07,-3.07 8.39,-10.69 1.07,-3.53 3.8,-11.44 3.45,-15.25 -2.28,-1.47 -4.57,-1.48 -7.46,-1.34 0.72,0.82 1.66,1.69 2.83,2.31z"/>
   <path class="fil0" d="M39.13 21.95c0.81,0.99 2.21,2.02 3.54,2.52 -0.85,6.49 -4.24,12.27 -5.18,18.87 4.74,-0.32 5.23,-1.4 7.4,-8.32 1.32,-4.22 2.82,-7.88 2.23,-12.86 -3.13,-0.47 -4.68,-0.49 -7.99,-0.21z"/>
   <path class="fil0" d="M166.94 65.06c-7.76,4.6 -11.85,22.82 -10.52,24.15 1.12,1.11 2.72,0.18 3.22,-0.49 1.51,-2.06 7.32,-21.74 7.3,-23.65z"/>
   <path class="fil0" d="M72.5 50.95l4.04 -0.06c0.94,-1.09 4.43,-13.72 3.76,-14.82 -1.52,-1.13 -2.97,-0.98 -5.33,-0.97 0.71,2.4 2.46,-0.53 -0.18,7.57 -0.57,1.74 -2.42,6.49 -2.3,8.28z"/>
   <path class="fil0" d="M259.23 36.91c-0.66,5.15 -3.6,9.02 -3.87,13.95l4.19 -0.02c1.28,-4.5 3.6,-9.41 3.65,-14.69 -1.99,-0.85 -2.91,-0.98 -5.4,-0.98 0.37,1.19 0.69,0.95 1.43,1.75z"/>
  </g>
 </g>
</svg>
