<?xml version="1.0" encoding="UTF-8"?>
<!DOCTYPE svg PUBLIC "-//W3C//DTD SVG 1.1//EN" "http://www.w3.org/Graphics/SVG/1.1/DTD/svg11.dtd">
<!-- Creator: CorelDRAW -->
<svg xmlns="http://www.w3.org/2000/svg" xml:space="preserve" width="31.3483mm" height="7.9202mm" version="1.1" style="shape-rendering:geometricPrecision; text-rendering:geometricPrecision; image-rendering:optimizeQuality; fill-rule:evenodd; clip-rule:evenodd"
viewBox="0 0 210.36 53.15"
 xmlns:xlink="http://www.w3.org/1999/xlink"
 xmlns:xodm="http://www.corel.com/coreldraw/odm/2003">
 <defs>
  <style type="text/css">
   <![CDATA[
    .fil0 {fill:black}
    .fil2 {fill:red}
    .fil3 {fill:yellow}
    .fil1 {fill:white}
   ]]>
  </style>
 </defs>
 <g id="Camada_x0020_1">
  <metadata id="CorelCorpID_0Corel-Layer"/>
  <g id="Figs_Frase_036">
   <path class="fil0" d="M34.72 28.63c-0.12,-0.72 -0.11,-0.73 0.02,-1.53 0.09,-0.54 0.09,-1.04 0.18,-1.71 0.05,-0.42 0.07,-1.15 0.15,-1.73l1.22 -8.16c0.32,-2.45 1.96,-7.07 -0.55,-8.84 -1.96,-1.38 -4.88,-0.81 -6.45,0.74 -1.01,0.99 -1.3,2.18 -1.91,3.4 -1.88,3.77 -6.08,14.15 -7.83,18.42 -0.25,0.62 -0.44,1.19 -0.74,1.91 -0.27,0.65 -0.55,1.16 -0.75,1.76 -0.51,-0.23 -0.35,-0.15 -0.63,-0.73 -0.45,-0.93 -1.07,-1.34 -1.71,-2.04l0.78 -1.3c1.72,-2.07 3.07,-4.18 3.83,-6.81 0.53,-1.85 0.65,-3.68 0.65,-5.6 0,-3.42 -2.37,-8.03 -5.15,-9.54 -3.78,-2.06 -6.82,-1 -9.67,1.75 -2.32,2.24 -4.08,6.59 -4.08,10.13 0,2.88 -0.1,4.39 0.51,7.31 0.16,0.77 0.45,1.93 0.94,2.49 0.88,1.02 1.06,0.82 0.24,2.2 -1.37,2.31 -2.07,4.63 -2.82,7.34l-0.58 2.86c-0.14,1.03 -0.32,1.81 -0.32,2.96 0,1.9 -0.34,4.09 1.13,5.58 1.02,1.03 2.23,1.14 3.55,1.14 1.79,0 3.11,-1.57 5.25,0.06 0.64,0.49 1.06,1.12 1.66,1.62 1.74,1.44 4.94,0.76 6.41,-0.54 3.14,-2.81 0.59,-5.34 0.64,-6.24 0.46,-0.37 0.01,-0.11 0.7,-0.23 1.66,-0.3 3.54,-0.76 5.18,-0.76 0.39,1.73 -0.2,2.48 0.8,4.04 1.6,2.5 5.5,1.96 7.31,0.17 1.11,-1.11 1.26,-1.95 1.26,-4.05 0,-1.07 1.16,0.01 1.52,0.2 1.41,0.72 3.59,0.33 5.02,-0.06 0.39,-0.1 1.02,-0.21 1.45,-0.29 2.23,-0.43 0.53,2.17 1.98,4.09 1.84,2.45 6.08,2.07 7.74,-0.44 1.3,-1.96 0.5,-3.24 0.88,-4.9 0.44,-0.1 1.02,-0.2 1.55,-0.32 2.17,-0.49 1.04,-1.59 3.59,4.4 0.22,0.53 0.58,0.98 0.93,1.42 0.58,0.73 1.89,1.47 3.13,1.45 1.5,-0.03 2.31,-0.73 3.27,-1.35l9.91 -6.49c0.3,-0.19 0.54,-0.37 0.76,-0.49 0.5,-0.28 0.23,-0.23 0.97,-0.22 0.38,1.14 1.14,2.33 1.94,3.22 0.32,0.36 0.38,0.51 0.7,0.86 0.27,0.29 0.57,0.6 0.86,0.86 2.16,1.91 4.88,1.93 7.29,0.34 2.94,-1.94 4.54,-4.43 6.52,-7.23 0.25,-0.35 0.13,-0.36 0.61,-0.49 0.44,0.32 0.32,0.66 0.58,1.3 0.51,1.25 1.27,2.49 2.12,3.5 3.21,3.79 6.73,3.07 10.51,0.76 3.25,-1.99 3.82,-3.9 4.89,-2.25 4.24,6.53 8.05,3.1 9.09,3.1 0.37,0 0.62,2.13 1.34,3.2 1.62,2.39 3.9,1.69 6.02,0.41 0.43,-0.26 0.88,-0.61 1.46,-0.73 0.9,-0.18 1.16,-0.01 1.85,-0.34l0.97 -0.75c0.53,-0.55 0.79,-0.79 1.54,-1.12 0.56,-0.25 0.98,-0.43 1.51,-0.68 0.58,-0.27 0.7,-0.47 1.26,-0.77 1.2,0.64 2.12,2.81 4.84,2.81 3.56,0 6.33,-4.85 7.88,-7.59 0.34,-0.6 -0.16,-0.13 0.4,-0.54 0.69,0.19 0.49,0.44 0.74,1.14 0.66,1.85 2.52,4.05 4.08,5.14 3.26,2.27 7.26,-0.15 9.93,-1.99 0.69,-0.48 1.06,-1.08 1.97,-1.16 0.53,1.1 0.63,2.4 1.45,3.4 1.44,1.76 4.8,2.75 6.21,0.51 0.57,-0.91 0.35,-1.25 0.71,-2.26 0.19,-0.52 -0.03,-0.19 0.31,-0.48 0,-0 0.49,-0.27 0.51,-0.28 2.01,-1.06 10.52,-4.77 11.92,-4.8 -0.21,2.56 -2.02,5.12 -1.34,7.75 0.6,2.34 2.66,4.32 5.26,3.83 2.22,-0.42 3.41,-3.49 3.85,-5.68 0.53,-2.6 1.21,-4.99 1.99,-7.38 0.42,-1.29 0.77,-2.36 1.24,-3.6 0.45,-1.18 0.81,-2.26 1.3,-3.39l2.88 -6.5c0.24,-0.58 0.54,-0.95 0.85,-1.65 1.16,-2.61 2.75,-5.06 4.22,-7.5 0.45,-0.75 1.47,-2.23 1.47,-3.21 0,-1.5 -1.92,-3.65 -2.93,-4.26 -0.75,-0.45 -1.74,-0.7 -3.01,-0.59 -2.72,0.25 -5.45,5.26 -6.56,7.5 -0.38,0.77 -0.52,1.85 -1.56,1.87 -0.21,-0.92 -0.74,-1.52 -1.22,-2.22 -0.55,-0.81 -0.87,-1.2 -1.55,-1.88 -0.77,-0.77 -0.87,-1 -1.95,-1.48 -0.62,-0.28 -0.51,-0.27 -1.3,-0.42 -1.45,-0.26 -1.32,-0.88 -2.51,-1.86 -0.21,-0.17 -0.19,-0.19 -0.42,-0.36 -0.54,-0.4 -1.62,-0.86 -2.36,-1.08 -3.46,-1.04 -8.28,-0.2 -11.45,1.06 -0.77,0.31 -1.74,0.68 -2.38,1.05 -0.37,0.21 -0.64,0.42 -1.01,0.71 -1.65,1.26 -1.77,0.85 -3.61,1.54l-4.81 2.07c-2.47,1.25 -2.37,1.58 -2.67,-0.19 -0.69,-4.08 -4.76,-6.89 -7.4,-4.26 -0.49,0.49 -0.97,1.25 -0.97,2 0,3.03 0.17,1.48 -0.51,4.33 -0.32,1.33 -1.59,4.73 -2.93,5.04 -0.71,-0.48 -0.78,-1.01 -0.79,-2.18 -0.02,-2.27 0.3,-4.98 -1.53,-6.59l-0.35 -0.27c-0.95,-0.65 -1.21,-0.13 -1.67,-1.3 -0.59,-1.51 -1.29,-2.51 -2.9,-3.04 -3.24,-1.06 -10.18,0.62 -12.7,2.51 -1.23,0.93 -1.12,2.1 -2.25,2.13 -0.15,-0.63 -0.29,-0.91 -0.67,-1.36 -0.17,-0.2 -0.27,-0.31 -0.44,-0.5 -0.84,-0.99 -1.49,-1.51 -3.09,-1.6 -1.31,-0.07 -1.62,0.13 -2.62,0.87 -0.73,0.54 -1.14,1.4 -1.62,2.13 -2.19,-0.51 -3.14,-0.76 -5.42,-0.1 -1.81,0.52 -3.37,1.24 -5.13,2.06 -1.18,0.55 -2.12,1.02 -3.26,1.59 -3.67,1.83 -2.97,2.15 -4.11,-0 -1.3,-2.45 -3.28,-4.3 -5.92,-5.33 -6.56,-2.58 -11.09,2.47 -12.89,2.57 -1,-2.85 -2.29,-5.33 -3.31,-8.09 -0.49,-1.32 -1.38,-2.52 -2.67,-3.11 -1.77,-0.82 -3.18,-0.19 -4.33,0.58l-12.12 7.88c-0.63,0.4 -0.97,0.98 -1.79,0.71 -0.47,-0.98 -0.15,-2.49 -2.37,-3.42 -1.49,-0.62 -3.35,-0.12 -4.48,0.47 -2.05,1.07 -3.36,5 -4.21,7.04l-3.02 6.98c-0.8,1.94 -3.04,8.03 -3.78,8.88 -0.43,0.02 -1.79,-0.78 -3.07,-0.89z"/>
   <path class="fil1" d="M176.92 15.03c0.29,-0.39 0.32,-0.33 0.84,-0.56l2.77 -1.14c0.78,-0.26 1.19,-0.38 2.13,-0.54 1.46,-0.25 1.39,0.18 2.08,0.37 0,1.5 0.05,1.41 -0.52,2.45l-2.85 4.49c-1.01,1.49 -4.96,7.21 -5.53,7.59 0,-0.78 0.08,-0.68 0.24,-1.32 0.13,-0.51 0.14,-0.77 0.3,-1.26 0.24,-0.72 0.52,-1.68 0.67,-2.3 0.2,-0.84 0.43,-1.51 0.69,-2.28 1.58,-4.69 -0.37,-3.88 -0.8,-5.49zm-50 -0.47c0,0.88 0.73,0.78 1.41,0.78 0.71,0 1.13,0.01 1.79,-0.09 2.32,-0.37 1.76,-0.03 0.65,4.4l-0.69 2.75c-0.12,0.69 -0.2,0.83 -0.32,1.4 -0.22,1 -0.37,1.79 -0.57,2.87 -0.19,1.02 -0.37,1.83 -0.58,2.86 -0.63,3.24 -1.05,6.8 -1.05,10.2 0,0.87 0.16,0.93 0.16,1.72 -2.44,1.63 -3.44,0.9 -3.44,2.97 0,1.47 0.35,3.28 2.03,3.28 0.7,0 2,-0.96 2.61,-1.3 1.45,-0.81 2.45,-0.37 2.96,-0.95 0.43,-0.49 0.23,-0.65 0.89,-0.99 2.5,-1.3 3.55,-0.83 3.55,-3.01 0,-1.59 -1.72,-2.03 -2.97,-2.03 -0.67,0 -1.05,0.65 -1.21,-0.17 -0.03,-0.14 0.15,-1.46 0.2,-1.78 0.19,-1.28 0.35,-2.38 0.6,-3.62l1.79 -8.52c0.63,-2.26 1.58,-6.17 1.89,-8.42 0.24,-1.72 -0.26,-2.49 1.72,-2.49 -0.38,1.64 -0.99,2.46 -1.26,4.99 -0.45,4.15 -0.92,6.05 -0.92,10.64 0,3.33 0.62,6.68 1.56,9.07 0.93,2.35 3.6,7.79 6.68,5.11 2.2,-1.92 3.74,-4.55 5.04,-7.15 2.22,-4.43 4.11,-9.14 5.44,-13.94 0.29,-1.06 0.97,-2.75 0.97,-3.87l0.31 0c0.19,0.8 1.26,2.46 1.13,2.99l-2.33 6.6c-0.6,1.44 -2.09,0.72 -2.09,2.91 0,1.43 0.95,0.79 0.58,3.55 -0.19,1.41 -0.41,2.54 0.15,4 0.65,1.69 2.68,4.64 4.74,4.64 3.28,0 4.77,-1.4 7.14,-3.17 0.88,-0.66 1.64,-1.35 2.18,-2.35 0.58,-1.07 1.14,-2.58 1.14,-4.01 0,-2.52 -3.49,0.86 -4.29,1.34 -5.52,3.34 -8.12,6.62 -6.12,-1.58 0.51,-2.11 2.22,-2.39 3.83,-3.36 0.69,-0.42 4.28,-2.24 4.38,-3.12 0.12,-1.09 -2.48,-1.56 -3.28,-1.56 -2.06,0 -3.09,1.71 -1.97,-1.35 1.74,-4.79 0.23,-3.58 4.74,-6.04 0.63,-0.34 1.19,-0.59 1.79,-0.87 0.59,-0.27 1.27,-0.74 2.01,-0.8 0.44,0.84 0.99,2.37 1.98,1.35l0.14 -0.17c0.02,-0.02 0.05,-0.06 0.07,-0.09 0.42,-0.46 0.78,-0.8 1.4,-0.94l-2.36 9.67c-0.66,2.39 -0.97,5.19 -1.32,7.74 -0.41,3.02 -0.94,11.45 3.53,10.41 0.45,-0.94 0.16,-1.54 0.16,-2.5 0,-0.72 1.01,-0.75 1.62,-1.04l5.56 -2.56c0.6,-0.27 1.26,-0.51 1.87,-0.78 1.1,-0.48 5.32,-1.59 5.32,-2.81 0,-3.06 -4.12,-2.48 -6.12,-1.9l-3.93 1.38c-0.72,0.28 -1.18,0.65 -1.99,0.67 0.21,-0.8 3.36,-4.43 4.04,-5.33 0.29,-0.38 0.49,-0.73 0.78,-1.1l3.15 -4.35c0.49,-0.74 0.98,-1.49 1.46,-2.29l1.98 -3.65c0.3,-0.69 0.12,-1.02 0.94,-1.09 0.24,0.88 1.16,1.9 1.65,2.72 0.33,0.56 0.45,0.93 0.69,1.49l2.96 8.29c0,0.63 -2.31,8.04 -2.62,9.25 -0.41,1.59 -0.74,3.16 -1.18,4.76 -0.32,1.14 -0.38,1.41 0.23,2.23 1.27,1.72 2.89,1.79 3.72,-0.31l3.19 -11.35c0.17,-0.44 0.32,-0.82 0.47,-1.25l3.74 -9.23c0.14,-0.3 0.31,-0.68 0.51,-1.06 0.22,-0.43 0.36,-0.77 0.56,-1.16 0.37,-0.75 0.73,-1.39 1.13,-2.15l3.53 -6.32c0.88,-1.48 1.81,-2.07 0.07,-3.61 -3.05,-2.71 -5.66,2.92 -6.76,5.05 -0.89,1.73 -1.89,3.5 -2.64,5.33 -0.29,0.7 -0.25,1.47 -1.11,1.54 -0.23,-0.98 -0.7,-2.01 -1.08,-2.83 -0.94,-2.07 -2.99,-6.39 -5.64,-6.39 -0.74,0 -0.62,0.3 -1.25,0.47 -1.06,-1.58 -1.33,-4.22 -7.03,-4.22 -3.77,0 -7.12,0.93 -9.82,2.68 -1.43,0.92 -0.37,1.1 -2.32,1.43 -3.08,0.52 -6.99,2.73 -9.68,4.07l-2.49 1.28c-1.61,1 -0.22,-1.16 -0.22,-4.45 0,-1.72 -1.49,-3.75 -3.1,-3.53 -0.92,0.13 -0.5,0.76 -0.5,1.5 0,1.44 -0.59,2.86 -0.89,3.95 -0.21,0.75 -0.32,1.22 -0.55,1.95l-1.93 5.41c-1.19,3.09 -5.64,15.97 -8.19,16.65 -0.87,-0.58 -0.56,-1.43 -0.67,-2.77 -0.17,-2.11 0.67,-8.84 1.07,-11.05 0.11,-0.6 0.17,-0.82 0.27,-1.45 0.16,-0.97 0.38,-2.12 0.53,-3.06l0.93 -4.39c0.25,-0.92 0.37,-1.45 0.37,-2.44 0,-1.8 -2.22,-1.85 -3.44,-1.56 -0.17,-0.81 0.16,-0.98 0.16,-1.88 0,-3.99 -7.38,-1.8 -9.88,-0.98 -1.44,0.47 -2.56,0.84 -3.29,2.17 -0.31,0.57 -0.73,1.3 -0.73,2.08z"/>
   <path class="fil2" d="M43.47 35.03c-0.25,-1.06 0.29,-1.25 0.75,-2.85 0.57,-1.98 1.44,-1.87 1.44,-1.06 0,4.02 -0.16,3.91 -2.19,3.91zm-18.59 -0.31c0,-0.52 0.66,-1.79 0.88,-2.4 0.36,-1.03 0.45,-1.36 1.31,-1.82 0.05,0.66 0.24,0.65 0.12,1.51 -0.07,0.49 -0.12,0.73 -0.11,1.46 0.01,2.22 -2.19,2.01 -2.19,1.24zm31.41 2.81c-0.12,-0.52 -0.49,-1.38 -0.71,-1.94 -0.3,-0.74 -0.51,-1.11 -0.81,-1.85l-1.12 -2.79c-0.17,-0.42 -0.23,-0.46 -0.49,-0.76l0 1.09c-1.76,0 -1.37,0.53 -2.34,-0.31 0,-0.9 0.02,-1.56 0.11,-2.23 0.08,-0.63 0.2,-1.45 0.2,-1.98l1.25 1.6c-0.08,-0.99 -1.24,-3.05 -1.62,-4.2 -0.74,-2.25 -2.49,-4.41 -1.14,-6.56 0.39,-0.63 0.9,-0.92 1.48,-1.33l0.85 -0.55c0.48,-0.28 2.22,-1.44 2.45,-1.81l-1.41 0.66c-0,-2.36 0.68,-4.74 -0.11,-5.52 -0.59,-0.59 -2.99,-1.03 -4.34,1.23 -0.58,0.98 -2.36,5.51 -2.86,6.52l-6.65 15.69c-0.33,0.77 -0.58,1.55 -0.87,2.26 -0.44,1.11 -1.03,1.83 -1.12,2.16 -1.42,-1.04 0.96,-5.05 -2.09,-5.57 -0.93,-0.16 -1.48,0.2 -2.28,0.26 -0.95,-1.41 -0.23,-1.62 -0.16,-4.69 0.02,-0.76 0.22,-1.69 0.29,-2.37l2.14 -14.16c-0.12,-2.31 -3.31,-2.52 -4.87,-0.13l-3.44 7.65c-0.32,0.67 -0.4,1.29 -0.73,1.93 -0.26,0.51 -0.25,0.35 -0.48,0.93l-6.35 15.52c-0.17,0.33 -0.32,0.44 -0.51,0.9 -0.39,0.9 -1.31,3.39 -1.2,4.25 0.34,2.51 4.83,0.33 8.9,0.33 0.37,0.56 0.46,0.37 0.58,1.31 0.13,1.01 -0.85,3.36 1.24,4.38 0.93,0.45 2.29,0.09 2.92,-0.49 0.93,-0.84 0.74,-1.7 0.73,-3.33 -0,-2.81 0,-2.98 2.82,-2.98 2.25,-0 0.45,1.28 2.08,1.82 2.18,0.73 7.42,-1.53 8.3,-0.49 0.54,0.64 0.37,2.78 0.38,3.53 0.06,3.19 3.88,2.26 4.55,0.94 0.47,-0.92 0.29,-2.26 0.3,-3.61 0.03,-3.86 3.46,-1.19 4.43,-3.38 0.24,-0.54 0.26,-1.06 0.26,-1.77 0.01,-1.01 0.14,-0.96 0.31,-1.72 1.06,1.22 0.42,1.07 1.09,1.56z"/>
   <path class="fil2" d="M7.54 43.47c-0.42,-0.87 -0.19,-1.99 -0.02,-2.83 0.4,-1.97 0.81,-3.33 1.71,-5.01 0.4,-0.74 0.77,-1.41 1.43,-1.85 0,0.78 -0.21,1.32 -0.31,2.04 -0.29,2.06 -0.04,3.22 -0.21,4.49 -0.13,0.95 0.05,0.86 0.05,1.91 0,0.54 -0.12,0.6 -0.16,1.09 -1.38,0.32 -1.24,0.45 -2.5,0.16zm1.41 -24.22c0,-4.07 2.91,-6.97 4.56,-3.46 0.73,1.56 0.49,3.88 -0,5.52 -0.4,1.34 -1.18,2.1 -2.07,3.25 -0.02,0.03 -0.05,0.06 -0.07,0.09 -0.8,1.01 -0.6,0.67 -1.32,1.02 -0.67,-1.27 -1.09,-4.41 -1.09,-6.41zm-0.63 8.28c-0.34,1.47 -1,1.5 -1.93,3.23 -0.25,0.46 -0.41,0.63 -0.67,1.05 -0.81,1.34 -2.02,4.59 -2.49,6.26 -0.37,1.29 -0.82,3.18 -0.85,4.46 -0.03,1.17 -0.65,3.12 0.07,4.46 1.34,2.5 5.49,-1.46 9.03,1.75 0.98,0.89 1.72,1.76 2.93,1.76 3.18,0 3.06,-2.05 1.98,-4.17 -1.18,-2.31 -1.35,-4.92 -1.35,-7.55 0,-2.12 0.97,-4.3 0.1,-5.57 -0.99,-1.44 -3.33,-0.23 -4.16,-0.21 0.16,-0.67 0.53,-1.42 0.91,-1.9l2.4 -3.22c0.85,-0.9 1.85,-2.11 2.46,-3.17 1.98,-3.45 2.76,-7.89 1.15,-11.61 -1.14,-2.63 -3.63,-5.11 -7.07,-4.47 -3.26,0.61 -5.22,4.24 -6.13,7.15 -0.38,1.2 -0.34,2.82 -0.49,4.05 -0.16,1.27 0.03,6.24 1.51,7.17 0.66,0.41 1.77,0.33 2.6,0.52z"/>
   <path class="fil1" d="M87.38 17.06c4.29,-2.87 8.22,-2.14 6.65,5.09 -0.72,3.32 -2.61,8.62 -4.24,11.54 -2.14,3.86 -3.72,5.35 -4.06,5.63 -3.58,3 -3.22,0.27 -2.45,-3.7 0.69,-3.56 1.94,-2.85 1.61,-5.27 -0.36,-2.62 1.94,-8.03 2.65,-10.79 0.47,-1.84 0.03,-1.67 -0.16,-2.51zm-8.5 -1.41c-0.98,-0.52 -0.59,-1.74 -1.65,-2.97 0,2.06 2.15,3.73 0.78,5 -0.67,-0.24 -0.2,-0.41 -0.78,-0.62 0,0.94 0.19,1.29 0.16,2.35 -0.04,1.13 -0.22,1.62 0.37,2.9 0.21,0.47 0.18,0.44 0.56,0.69 0.13,0.09 0.63,0.32 0.86,0.39 0.48,0.15 0.44,0.02 0.86,0.23 -0.02,-0.97 -0.38,-0.99 0.47,-1.56 1.34,2 0.2,2.11 0.02,3.14 -0.09,0.49 -0.04,0.54 -0.15,0.94 -0.67,2.49 -1.18,4.59 -1.59,7.16 -0.1,0.6 -0.16,0.46 -0.22,0.85 -0.11,0.66 0.29,0.66 -0.04,1.37 -0.14,0.3 -0.04,0.09 -0.23,0.28l-0.12 0.12c-0.3,0.52 -0.9,0.98 -1.56,1.13 0.34,0.46 0.31,0.45 1.24,-0l0.32 -0.16c0.12,0.16 0.16,-0.12 0.16,0.56 0.42,1.36 -0.5,1.74 1.03,4.18 0.98,1.56 1.71,2.58 3.14,3.42 0.51,0.3 0.39,0.27 1.13,0.29 4.29,0.09 7.84,-5.88 9.64,-9.13 0.65,-1.18 1.27,-2.24 1.79,-3.52l1.25 -2.82c0.13,-0.33 0.21,-0.64 0.35,-1.05 1.48,-4.33 2.53,-8.37 0.05,-12.98 -0.43,-0.8 -1.33,-1.99 -2.05,-2.64 -1.08,-0.97 -2.62,-1.77 -4.12,-1.98 -1.97,-0.28 -3.16,-0.16 -4.82,0.4 -1.28,0.44 -2.49,1.1 -3.54,1.78 -1.28,0.82 -1.84,1.55 -3.03,2.44l-0.27 -0.21z"/>
   <path class="fil3" d="M69.88 18.78c-0.42,-0.04 -0.43,-0.07 -0.78,-0.16 0,-1.05 -0.46,-1.31 0.47,-1.41 0.12,0.26 0.28,1.2 0.31,1.56zm-15.47 -4.88c-0.23,0.37 -1.97,1.52 -2.45,1.81l-0.85 0.55c-0.59,0.41 -1.09,0.7 -1.48,1.33 -1.35,2.16 0.39,4.31 1.14,6.56 0.38,1.15 1.54,3.21 1.62,4.2 0.3,0.62 0.55,0.94 0.78,1.84 0.26,0.3 0.32,0.34 0.49,0.76l1.12 2.79c0.29,0.74 0.51,1.11 0.81,1.85 0.23,0.57 0.59,1.42 0.71,1.94l3.02 7.41c1.87,4.56 3.87,2.01 7.69,-0.43 0.57,-0.36 1.07,-0.68 1.63,-1.05 0.66,-0.44 1.03,-0.63 1.59,-1.05 1.51,-1.13 5.38,-3.36 7.13,-4.6 0.39,-0.28 0.41,-0.35 0.97,-0.34 0,-0.68 -0.03,-0.4 -0.16,-0.56l-0.32 0.16c-0.93,0.45 -0.91,0.46 -1.24,0 0.66,-0.16 1.26,-0.61 1.56,-1.13l-3.94 2.51c-1.79,1.12 -10.89,7.35 -11.85,7.38 -1.71,0.07 -2.51,-2.05 -3.02,-3.39l-3.78 -9.03c-0.32,-0.78 -0.66,-1.42 -0.93,-2.19 -0.29,-0.82 -0.81,-1.87 -0.85,-2.47l-0.59 -1.52 -1.81 -3.85c-0.43,-0.95 -1.37,-3.08 -1.14,-4.06 0.07,-0.31 0.19,-0.48 0.27,-0.67l0.28 -0.66c0.18,-0.34 0.49,-0.72 0.8,-0.92l6.69 -4.25c0.74,-0.51 1.37,-0.96 2.13,-1.46 0.43,-0.29 0.74,-0.44 1.15,-0.72l7.64 -5.02c3.01,-1.85 3.7,-1.58 5.15,1.67l1.18 2.88c0.23,0.53 0.26,0.39 0.28,1.01 0.63,0.78 2.26,4.87 2.27,5.98 -0.62,-0.25 -0.46,-0.31 -0.78,-0.47 -1,3.6 -4.92,4.27 -6.69,2.31 -1.33,-1.48 -0.22,-1.98 -1.52,-2 -0.24,0.41 -0.35,1.09 -0.17,1.67 0.24,0.75 0.23,0.04 0.72,1.32 0.55,1.46 1.1,-0.4 2.11,2.09 0.95,2.32 -0.05,5.24 -0.75,7.35 -0.18,0.54 -0.3,0.59 -0.15,1.07 0.16,0.51 0.42,0.89 0.57,1.49 0.13,0.53 0.18,1.47 0.05,2.12 -0.09,0.47 -0.64,1.76 -1,2.17 -1.89,2.23 -5.15,0.56 -5.37,0.26 -0.15,-0.52 -0.2,-1.08 -0.33,-1.58 -0.38,-1.4 -0.11,-2.45 0.28,-3.62l0.09 -0.26c0.1,-0.38 0.18,-0 0.04,-0.63 -0.86,0.18 -0.37,-0.37 -0.72,0.77 -0.29,0.96 -0.94,1.27 -1.49,2.08 -0.38,0.56 -0.24,1.2 0.04,1.76 0.36,0.71 0.54,0.92 0.69,1.79 -1.64,-0.67 -0.32,-0.5 -1.88,-0.47l0 -1.56c-0.97,-0.05 -0.56,0.29 -1.72,0.31 0,-1.48 0.6,-1.81 1.05,-2.82 0.51,-1.15 0.64,-1.23 0.75,-2.88 -0.29,-0.47 -0.62,-0.75 -1.25,-0.86 -0.3,0.02 -0.68,0.55 -0.98,0.82 -0.41,0.39 -0.61,0.45 -1.02,0.85 -0.64,0.63 -1.43,1.46 -2.3,1.6 -0.31,-0.47 -0.37,-0.27 -0.55,-0.86l-0.31 0c0.02,0.76 0.87,2.25 1.16,3.06l0.82 2.15c0.18,0.41 0.29,0.69 0.47,1.09 0.48,1.07 2.66,6.66 3.07,7.09 1.3,1.36 2.44,0.27 4.73,-1.27l3.59 -2.34c0.34,-0.22 0.57,-0.33 0.87,-0.54l6.29 -4.18c0.59,-0.43 1.22,-0.77 1.81,-1.16 0.16,0.75 0.19,0.19 -0.04,0.94 0.2,-0.19 0.09,0.02 0.23,-0.28 0.33,-0.71 -0.06,-0.72 0.04,-1.37 0.06,-0.39 0.13,-0.25 0.22,-0.85 0.41,-2.57 0.92,-4.68 1.59,-7.16 0.11,-0.4 0.07,-0.45 0.15,-0.94 0.18,-1.03 1.32,-1.15 -0.02,-3.14 -0.85,0.57 -0.49,0.59 -0.47,1.56 -0.43,-0.21 -0.38,-0.08 -0.86,-0.23 -0.23,-0.07 -0.73,-0.3 -0.86,-0.39 -0.39,-0.25 -0.35,-0.22 -0.56,-0.69 -0.58,-1.29 -0.41,-1.78 -0.37,-2.9 0.04,-1.06 -0.16,-1.41 -0.16,-2.35 0.58,0.21 0.11,0.38 0.78,0.62 1.37,-1.27 -0.78,-2.94 -0.78,-5 1.06,1.23 0.67,2.45 1.65,2.97 -0.52,-1.6 -1.08,-2.86 -1.72,-4.31 -0.53,-1.19 -2.82,-7.58 -3.83,-8.2 -1.56,-0.96 -2.78,0.3 -3.29,0.61l-15.62 10.15z"/>
   <path class="fil0" d="M68.01 34.72c0.94,0 0.53,0.42 0.87,-0.42 0.21,-0.51 -0.06,-0.3 0.41,-0.79 0.84,-0.86 0.29,-1.18 1.22,-1.29 -0.14,1.39 0.66,1.89 -1.28,3.56 -1.37,1.18 -1.71,0.27 -1.92,0.27 -0.09,-0.57 0.15,-0.88 0.39,-1.33l0.31 0zm-2.11 -1.48c-0.15,-0.79 -0.1,-0.41 0.11,-1.08 0.15,-0.49 0.09,-0.55 0.39,-0.91 0.35,-0.44 1.13,-0.73 1.84,-0.66 -0.04,1.37 -1.15,1.6 -1.88,2.32l-0.33 0.26c-0.02,-0.04 -0.09,0.05 -0.14,0.08zm5.72 -15.86l-0.22 -0.68 0.73 -0.31c0.29,0.36 0.09,0.1 0.16,0.44l0.49 0.47 0.84 -0.17c0.45,0.02 0.55,0.06 0.88,0.17 0.16,-0.38 0.23,-0.72 0.44,-1.12 0.38,-0.72 0.35,-0.26 0.5,-1.07 -0.95,-0.62 -0.58,-0.32 -1.25,-1.09 -0.59,0.1 -1.35,0.4 -1.91,0.63l0.04 0.97 -0.79 0.12c-0.58,-0.99 0.39,-2.93 1.59,-3.09 3.82,-0.54 3.35,3.45 3.03,4.14 -0.04,0.09 -0.46,0.78 -0.53,0.87 -1.97,2.48 -3.57,-0.09 -4,-0.28zm1.08 -5.9c-1.32,0.56 -1.51,0.68 -2.24,1.77 -0.58,0.86 -0.82,1.74 -1.12,2.96 -2.61,1.23 -0.22,-1.27 -2.05,-1.82 -0.77,-0.23 -2.29,0.3 -3.1,1.12 0.13,0.47 0.12,0.92 0.27,1.41 0.13,0.4 0.14,0.13 0.07,0.46 -0.04,0.17 -0.13,-0.02 -0.18,0.71l0.62 0.21 0.39 0.18c-0.42,0.75 -1.06,0.3 -1.77,2.45 -0.16,-0.15 -0.74,0.33 -0.19,-1.67 0.42,-1.62 0.85,-0.38 0.95,-1.8 -0.82,-0.06 -0.49,-0.25 -1.41,-0.31 -0.14,0.64 -0.19,0.54 -0.55,0.98 -0.23,0.4 -0.42,0.53 -0.47,1.13 0.74,0.08 0.27,-0.25 0.62,0.47 -0.01,0.71 -0.11,0.94 -0.3,1.42 -0.41,1 -0.08,0.64 -0.79,0.93 -0.25,-0.68 0.09,-1.77 0.16,-2.5l-0.47 0 0 1.09c-0.92,-0.02 -1.02,-0.36 -1.09,-1.25 0.7,-0.08 0.39,0.23 0.47,-0.47 -1.31,0.88 -0.49,-0.67 -0.47,-0.94 -0.43,-0.1 -0.8,-0.32 -1.22,-0.28 -0.47,0.04 -0.68,0.31 -1.12,0.48 -1.68,1.41 -1.26,2.45 0.55,3.63 -0.1,1.52 -0.47,1.69 -1.19,2.25 -0.27,0.21 -0.32,0.29 -0.58,0.51l-2.33 2c-0.75,0.41 0.77,-0.3 -0.39,0.11 -0.01,0 -0.23,0.08 -0.24,0.08 -0.36,0.2 -0.24,-0.08 -0.31,0.43l0.59 1.52c0.32,0.44 0.3,0.56 0.55,1.05 0.33,0.65 0.38,0.39 0.38,1.33l0.31 0c-0.17,-0.72 -0.17,-0.38 0,-1.09l0.31 0c0.11,0.48 0.24,0.6 0.47,0.94 0.18,0.59 0.23,0.39 0.55,0.86 0.88,-0.15 1.66,-0.97 2.3,-1.6 0.41,-0.41 0.61,-0.46 1.02,-0.85 0.29,-0.28 0.67,-0.8 0.98,-0.82 0.63,0.11 0.96,0.39 1.25,0.86 -0.11,1.65 -0.23,1.73 -0.75,2.88 -0.45,1.02 -1.05,1.34 -1.05,2.82 1.16,-0.02 0.75,-0.36 1.72,-0.31l-0 1.56c1.56,-0.03 0.24,-0.2 1.88,0.47 -0.15,-0.87 -0.33,-1.08 -0.69,-1.79 -0.29,-0.56 -0.42,-1.2 -0.04,-1.76 0.55,-0.81 1.2,-1.12 1.49,-2.08 0.34,-1.14 -0.14,-0.59 0.72,-0.77 0.14,0.63 0.06,0.25 -0.04,0.63l-0.09 0.26c-0.39,1.17 -0.67,2.22 -0.28,3.62 0.14,0.5 0.18,1.06 0.33,1.58 0.22,0.3 3.48,1.97 5.37,-0.26 0.35,-0.42 0.91,-1.7 1,-2.17 0.12,-0.64 0.08,-1.58 -0.05,-2.12 -0.15,-0.6 -0.4,-0.97 -0.57,-1.49 -0.16,-0.48 -0.03,-0.53 0.15,-1.07 0.7,-2.11 1.7,-5.03 0.75,-7.35 -1.01,-2.49 -1.56,-0.63 -2.11,-2.09 -0.49,-1.28 -0.47,-0.57 -0.72,-1.32 -0.19,-0.58 -0.07,-1.27 0.17,-1.67 1.3,0.01 0.19,0.52 1.52,2 1.76,1.96 5.69,1.29 6.69,-2.31 0.32,0.15 0.16,0.22 0.78,0.47 -0.01,-1.11 -1.64,-5.2 -2.27,-5.98 -0.05,-0.06 -0.29,-0.33 -0.31,-0.35 -0.2,0.74 -0.37,0.66 -1.15,0.54 -0.92,-0.14 -0.86,0.03 -1.66,0.12z"/>
   <path class="fil1" d="M99.88 18.94c0.07,3.28 1.84,1.22 0.42,4.8l-1.71 5.01c-0.51,1.34 -2.15,1.11 -2.15,2.38 0,1.54 0.63,1.65 0.75,2.54 0.24,1.68 -1.8,4.93 2.33,9.07 3.07,3.08 7.61,-0.18 10.24,-2.5 2.25,-1.99 3.32,-5.98 2.25,-6.72 -0.6,-0.42 -1.4,0.48 -1.98,0.9l-1.96 1.32c-6.24,4.15 -7.88,5.79 -6.13,-1.29 0.55,-2.24 1.06,-2.09 3.77,-3.57l2.34 -1.41c0.33,-0.2 0.47,-0.28 0.77,-0.48 0.25,-0.17 1.37,-0.91 1.37,-1.13 0,-1.18 -1.74,-1.72 -2.97,-1.72 -2.89,0 -3.42,1.89 -1.99,-2.15 1.26,-3.57 0.87,-3.4 2.62,-4.26l6.9 -3.42c0.75,-0.38 1.7,-0.65 1.7,-1.74 0,-1.13 -1.76,-1.56 -2.97,-1.56 -0.97,0 -2.9,0.64 -3.81,1.04 -3.29,1.44 -6.77,2.88 -9.79,4.9z"/>
   <path class="fil1" d="M118.17 43.78c3.25,0 3.92,-2.26 6.61,-4.49 1.77,-1.46 2.22,-2.73 2.49,-5.02 0.05,-0.39 0.16,-0.56 0.08,-1.06 -0.21,-1.19 -1.1,-1.11 -1.87,-0.42 -0.45,0.4 -0.54,0.68 -0.93,1.1l-3.11 2.98c-0.83,0.66 -0.67,0.84 -2.19,1.87 -0.15,0.1 -0.5,0.34 -0.7,0.4 -0.94,0.28 -0.12,-0.06 -0.83,-0.06 -0.42,-1.82 0.06,-3.66 0.38,-5.56 0.11,-0.65 0.27,-1.3 0.36,-1.83 0.39,-2.3 1.6,-6.64 2.23,-8.86l2.05 -6.7c0.26,-1.08 0.87,-2.3 0.39,-3.54 -0.37,-0.96 -1.33,-2.1 -2.59,-2.1 -1.64,0 -2.14,2.59 -2.62,4.41 -1.03,3.86 -2.61,8.2 -3.48,12.46 -0.66,3.22 -2.58,9.87 -0.19,13.03 0.77,1.01 2.26,3.39 3.95,3.39z"/>
   <path class="fil3" d="M54.14 26.59l2.33 -2c0.26,-0.22 0.31,-0.3 0.58,-0.51 0.73,-0.56 1.1,-0.73 1.19,-2.25 -1.81,-1.19 -2.23,-2.23 -0.55,-3.63 0.37,-0.65 1.17,-1.03 2.06,-0.7 0.88,0.33 0.9,1.14 1.53,1.6 0.66,-0.44 0.46,-0.73 1.09,-0.98 0.35,-0.43 0.41,-0.34 0.55,-0.98 0.91,0.06 0.59,0.25 1.41,0.31 -0.1,1.42 -0.53,0.18 -0.95,1.8 1.05,-0.55 0.04,-0.91 1.57,-0.96l-0.62 -0.21c0.05,-0.73 0.14,-0.54 0.18,-0.71 0.07,-0.32 0.06,-0.05 -0.07,-0.46 -0.16,-0.49 -0.14,-0.94 -0.27,-1.41 0.81,-0.82 2.33,-1.35 3.1,-1.12 1.83,0.55 -0.56,3.05 2.05,1.82 0.3,-1.22 0.54,-2.1 1.12,-2.96 0.73,-1.08 0.92,-1.21 2.24,-1.77 0.77,-0.66 1.46,-0.27 2.34,-0.2 0,-0.71 -1.3,-4 -1.82,-4.9 -1.52,-2.64 -3.54,0.15 -6.1,1.52 -0.75,0.4 -1.42,0.91 -2.09,1.35l-5.09 3.35c-0.42,0.28 -0.64,0.38 -1.05,0.67 -0.71,0.5 -1.4,0.85 -2.12,1.32 -0.41,0.27 -0.48,0.38 -0.91,0.65l-3.15 2.01c-0.67,0.46 -1.33,0.84 -1.62,1.66 -0.39,1.09 0.14,2.27 0.58,3.38 0.08,0.19 0.18,0.4 0.29,0.65l1.5 3.66 0.66 0z"/>
   <path class="fil2" d="M53.2 27.22c0.07,-0.5 -0.04,-0.23 0.31,-0.43 0.01,-0 0.22,-0.08 0.24,-0.08 1.16,-0.42 -0.36,0.3 0.39,-0.11l-0.66 0 -1.5 -3.66c-0.11,-0.24 -0.22,-0.46 -0.29,-0.65 -0.44,-1.11 -0.97,-2.29 -0.58,-3.38 0.29,-0.82 0.95,-1.21 1.62,-1.66l3.15 -2.01c0.43,-0.26 0.5,-0.38 0.91,-0.65 0.72,-0.47 1.41,-0.82 2.12,-1.32 0.41,-0.29 0.63,-0.39 1.05,-0.67l5.09 -3.35c0.66,-0.44 1.34,-0.95 2.09,-1.35 2.55,-1.37 4.58,-4.16 6.1,-1.52 0.52,0.9 1.82,4.19 1.82,4.9 -0.89,-0.07 -1.58,-0.46 -2.34,0.2 0.8,-0.1 0.74,-0.27 1.66,-0.12 0.78,0.12 0.95,0.2 1.15,-0.54 0.02,0.02 0.26,0.29 0.31,0.35 -0.01,-0.62 -0.05,-0.49 -0.28,-1.01l-1.18 -2.88c-1.46,-3.25 -2.15,-3.52 -5.15,-1.67l-7.64 5.02c-0.41,0.28 -0.72,0.44 -1.15,0.72 -0.76,0.51 -1.39,0.96 -2.13,1.46l-6.69 4.25c-0.31,0.2 -0.61,0.58 -0.8,0.92l-0.28 0.66c-0.08,0.19 -0.2,0.36 -0.27,0.67 -0.23,0.97 0.71,3.11 1.14,4.06l1.81 3.85z"/>
   <path class="fil2" d="M78.16 35.93l0.12 -0.12c0.22,-0.74 0.19,-0.19 0.04,-0.94 -0.59,0.39 -1.22,0.72 -1.81,1.16l-6.29 4.18c-0.3,0.21 -0.53,0.32 -0.87,0.54l-3.59 2.34c-2.29,1.54 -3.44,2.63 -4.73,1.27 -0.41,-0.43 -2.59,-6.02 -3.07,-7.09 -0.18,-0.41 -0.29,-0.68 -0.47,-1.09l-0.82 -2.15c-0.29,-0.82 -1.14,-2.3 -1.16,-3.06l0.31 0c-0.23,-0.34 -0.36,-0.46 -0.47,-0.94l-0.31 0c-0.17,0.72 -0.17,0.38 0,1.09l-0.31 0c0,-0.94 -0.05,-0.68 -0.38,-1.33 -0.25,-0.49 -0.23,-0.61 -0.55,-1.05 0.04,0.59 0.57,1.64 0.85,2.47 0.27,0.77 0.61,1.42 0.93,2.19l3.78 9.03c0.51,1.34 1.31,3.45 3.02,3.39 0.97,-0.04 10.06,-6.26 11.85,-7.38l3.94 -2.51z"/>
   <path class="fil3" d="M72.07 14.09c0.05,-0.63 -0.12,-0.28 0.28,-0.66 0.3,-0.28 0.44,-0.26 0.66,-0.28 0.2,0.41 0.16,-0.13 0.16,0.47 0,0.47 -0.74,0.47 -1.09,0.47zm0.21 2.73c-0.22,0.24 -0.1,-0.13 -0.22,0.37l-0.45 0.18c0.43,0.19 2.03,2.75 4,0.28 0.07,-0.09 0.49,-0.78 0.53,-0.87 0.32,-0.69 0.79,-4.68 -3.03,-4.14 -1.2,0.17 -2.17,2.11 -1.59,3.09l0.79 -0.12 -0.04 -0.97c0.55,-0.22 1.32,-0.53 1.91,-0.63 0.67,0.77 0.3,0.47 1.25,1.09 -0.15,0.81 -0.13,0.35 -0.5,1.07 -0.21,0.4 -0.27,0.74 -0.44,1.12 -0.33,-0.11 -0.43,-0.16 -0.88,-0.17l-0.84 0.17 -0.49 -0.47z"/>
   <path class="fil2" d="M57.69 18.19c0.44,-0.17 0.66,-0.43 1.12,-0.48 0.42,-0.04 0.79,0.18 1.22,0.28 -0.02,0.27 -0.84,1.82 0.47,0.94 -0.08,0.7 0.23,0.39 -0.47,0.47 0.07,0.89 0.17,1.23 1.09,1.25l0 -1.09 0.47 0c-0.06,0.73 -0.4,1.82 -0.16,2.5 0.71,-0.29 0.39,0.08 0.79,-0.93 0.19,-0.48 0.29,-0.7 0.3,-1.42 -0.36,-0.71 0.11,-0.39 -0.62,-0.47 0.05,-0.6 0.24,-0.74 0.47,-1.13 -0.63,0.25 -0.43,0.53 -1.09,0.98 -0.63,-0.46 -0.65,-1.26 -1.53,-1.6 -0.89,-0.34 -1.69,0.05 -2.06,0.7z"/>
   <path class="fil3" d="M68.01 34.72l-0.31 0c-0.24,0.44 -0.48,0.76 -0.39,1.33 0.22,0 0.55,0.91 1.92,-0.27 1.94,-1.66 1.14,-2.17 1.28,-3.56 -0.93,0.12 -0.38,0.43 -1.22,1.29 -0.47,0.49 -0.2,0.28 -0.41,0.79 -0.35,0.83 0.07,0.42 -0.87,0.42z"/>
   <path class="fil3" d="M65.9 33.23c0.05,-0.02 0.12,-0.11 0.14,-0.08l0.33 -0.26c0.73,-0.73 1.84,-0.95 1.88,-2.32 -0.71,-0.07 -1.5,0.23 -1.84,0.66 -0.29,0.36 -0.23,0.42 -0.39,0.91 -0.21,0.67 -0.26,0.29 -0.11,1.08z"/>
   <path class="fil1" d="M63.38 19.25c-0.54,2 0.03,1.52 0.19,1.67 0.71,-2.15 1.35,-1.7 1.77,-2.45l-0.39 -0.18c-1.54,0.06 -0.53,0.41 -1.57,0.96z"/>
   <path class="fil1" d="M69.1 18.62c0.36,0.08 0.36,0.12 0.78,0.16 -0.03,-0.37 -0.19,-1.3 -0.31,-1.56 -0.92,0.1 -0.47,0.35 -0.47,1.41z"/>
   <path class="fil1" d="M72.07 14.09c0.35,0 1.09,0 1.09,-0.47 0,-0.6 0.05,-0.06 -0.16,-0.47 -0.22,0.02 -0.35,-0 -0.66,0.28 -0.4,0.37 -0.23,0.02 -0.28,0.66z"/>
   <path class="fil1" d="M71.61 17.37l0.45 -0.18c0.12,-0.5 -0,-0.13 0.22,-0.37 -0.07,-0.34 0.13,-0.08 -0.16,-0.44l-0.73 0.31 0.22 0.68z"/>
  </g>
 </g>
</svg>
