<?xml version="1.0" encoding="UTF-8"?>
<!DOCTYPE svg PUBLIC "-//W3C//DTD SVG 1.1//EN" "http://www.w3.org/Graphics/SVG/1.1/DTD/svg11.dtd">
<!-- Creator: CorelDRAW -->
<svg xmlns="http://www.w3.org/2000/svg" xml:space="preserve" width="30.8566mm" height="7.5543mm" version="1.1" style="shape-rendering:geometricPrecision; text-rendering:geometricPrecision; image-rendering:optimizeQuality; fill-rule:evenodd; clip-rule:evenodd"
viewBox="0 0 204.03 49.95"
 xmlns:xlink="http://www.w3.org/1999/xlink"
 xmlns:xodm="http://www.corel.com/coreldraw/odm/2003">
 <defs>
  <style type="text/css">
   <![CDATA[
    .fil0 {fill:black}
    .fil1 {fill:#FEFEFE}
    .fil2 {fill:red}
   ]]>
  </style>
 </defs>
 <g id="Camada_x0020_1">
  <metadata id="CorelCorpID_0Corel-Layer"/>
  <g id="Figs_Frase_043">
   <path class="fil0" d="M50.55 0l1.2 0c0.76,0.2 1.49,0.8 2.13,2.02 1.45,2.77 0.98,4.78 0.73,8.17 1.48,0 3.73,-0.34 4.8,0.23 0.79,0.42 1.44,1.4 1.66,2.49 0.88,-0.28 1.33,-0.79 2.32,-1.24 0.85,-0.39 1.45,-0.58 2.34,-0.87 3.79,-1.23 8.33,-1.45 12,0.36 2.54,1.25 2.68,2.29 3.93,3.45 0.4,-0.48 0.79,-0.94 1.24,-1.37 5.07,-4.9 14.44,-3.02 20.36,-3.05 3.76,-0.02 4.23,-0.64 5.71,2.38 1.87,-0.6 3.16,-2.04 5.46,-2.04l24.08 0c4.04,0 3.29,6.39 3.64,4.87 0.01,-0.05 0.05,0.16 0.08,0.23 1.06,-6.21 4.38,-5.11 9.68,-5.1 2.48,0 3.97,-0.34 6.45,-0.34 2.23,0 4.47,0 6.7,0 3.25,0 9.25,-0.81 11.45,2.68 0.61,0.96 0.12,1 1.21,1.4 0.34,-1.73 1.9,-4.08 3.48,-4.08l20.35 0c1.25,0 2.48,1.69 2.48,3.4 0,3.82 -1.63,6.34 -3.51,9.81 -2,3.69 -2.44,3.78 -6.92,3.78 -0.26,1.52 -0.88,2.6 -0.99,4.42 9.14,0 5.93,6.24 2.8,11.99 -1.13,2.07 -2.28,5 -4.78,5l-20.85 0c-1.1,0 -1.12,-0.29 -1.93,-0.23 -1.74,0.13 -3.81,0.61 -5.73,0.19 -2.86,-0.61 -2.83,-3.3 -4.75,-5.06 -0.21,3.39 -2.23,4.71 -4.45,5.12 -1.21,0.23 -5.96,0.34 -7.32,-0.23 -1.46,-0.61 -0.93,-1.47 -2.71,-0.63 -3.79,1.77 -6.25,1.51 -10.83,1.51 -4.3,0 -5.95,-1.23 -8.69,-3.74 -0.2,1.02 -0.72,2.01 -1.33,2.6 -0.71,0.68 -1.23,0.82 -2.38,0.82 -4.59,0.01 -8.26,1.14 -13.33,-1.15 -3,-1.35 -2.86,-2.86 -4.8,-4.64 -0.95,0.87 -3.95,5.78 -7.45,5.78l-18.86 0c-2.15,0 -0.59,-2.28 -3.79,-0.44 -1.29,0.74 -3.03,1.23 -4.92,1.46l-5.06 0c-2.29,-0.27 -4.43,-0.91 -5.93,-1.91 -2.12,-1.42 -2.51,-2.28 -3.38,-4.54 -1.81,1.66 -1.79,5.1 -4.96,5.1l-19.11 0c-1.04,0 -1.56,-0.97 -2.73,-2.04 -2.03,1.47 -2.57,1 -5.47,1.01 -1.29,0 -1.77,0.37 -2.71,0.34 -0.88,-0.04 -1.44,-0.32 -2.74,-0.32 -6.5,0 -10.05,1.96 -11.56,-3.21 -1.01,-3.47 -2.84,-2.09 -2.84,-5.29l0 -0.09c0.01,-1.93 0.18,-2.64 1.2,-4.38 0.66,-1.12 1.11,-1.65 2.03,-2.32 -0.78,-4.59 -2.54,-3.52 4.9,-13.34 2.04,-2.7 1.71,-0.59 2.97,-4.76 0.55,-1.82 1.58,-3.98 3.3,-3.98l18.12 0c1.35,0 1.77,1.19 2.23,2.38 1.61,-1.47 1.67,-2.24 2.97,-2.38 1.34,-0.15 3.31,0.01 4.72,0.01 0.5,-2.93 1.57,-4.62 3.12,-6.26 1.12,-1.19 3.07,-3.49 4.99,-3.93z"/>
   <path class="fil1" d="M16.88 30.92c0.32,-0.83 0.46,-1.55 0.74,-2.38l2.48 0c-0.21,1.26 -0.41,0.95 -0.5,2.38l-2.73 0zm2.98 -9.51c0.37,-2.15 1.34,-4.14 1.74,-6.46l-7.2 0c-0.39,2.32 -1.37,4.31 -1.74,6.46 -1.56,0 -1.36,-0.09 -2.18,1.09 -1.15,1.64 -3.63,4.74 -4.27,6.05l4.22 0c-0.48,2.81 -1.12,2.25 -1.59,2.58 -0.7,0.48 -4.69,6.07 -5.11,6.94l3.72 0c-0.08,1.36 -0.85,3.74 -1.49,4.76l7.45 0c0.84,-2.41 0.95,-4.36 1.86,-4.66l0.33 -0.05c0.05,-0.01 0.13,-0.01 0.19,-0.02 2.31,-0.13 1.09,1.05 0.23,4.73l7.07 0c0.41,-1.17 1.01,-3.08 1.24,-4.42 1.44,0 1.73,0.12 2.55,-0.92l4.58 -6.56 -4.65 0c0.09,-1.42 0.28,-1.12 0.5,-2.38 1.56,0 1.36,0.09 2.18,-1.09 1.57,-2.25 3.4,-3.73 4.5,-6.05l-4.2 0c0.04,-2.42 1.35,-4.2 1.52,-6.46l-6.98 0c-0.8,2.07 -1.25,4.36 -1.99,6.46l-2.48 0z"/>
   <path class="fil2" d="M158.11 29.9c0.06,-1.05 0.69,-2.81 1,-3.73 0.42,-1.27 0.72,-1.81 0.99,-3.4 2.02,0 7.45,-0.99 7.45,1.7 0,2.76 -3.27,1.9 -5.23,2.02 -2.04,0.12 -1.87,1.73 -4.21,3.42zm6.45 3.74c9.01,0 13.75,-12.62 8.59,-17.54 -1.28,-1.22 -3.33,-0.81 -5.37,-0.81 -3.97,0 -7.94,0 -11.91,0l-6.74 21.36c-0.51,1.69 -2.11,5.71 -2.2,7.18l6.45 0 2.56 -7.71c0.35,-1.09 0.33,-1.49 1.17,-1.8 0.21,1.1 0.26,0.96 0.85,1.89 0.03,0.05 0.08,0.13 0.12,0.18 4.26,6.76 3.21,7.49 6.97,7.45 1.65,-0.02 3.31,-0 4.97,-0 -0.27,-1.4 -2.08,-3.91 -2.73,-5.09l-2.73 -5.1z"/>
   <path class="fil1" d="M61.56 33.3c0,-2.46 1.4,-5.94 2.28,-7.41 1.94,-3.24 3.11,-3.47 6.16,-3.47 4.86,0 1.18,14.95 -4.47,14.95 -2.41,0 -3.97,0.06 -3.97,-4.08zm2.73 12.23c9.64,0 15.39,-9.67 15.39,-23.11 0,-9.24 -11.89,-8.56 -16.38,-5.44 -0.89,0.62 -1.74,1.13 -2.52,1.98 -0.37,0.41 -0.66,0.79 -1.05,1.29l-0.38 0.5c-2.43,3.46 -4.99,10.26 -4.99,16.62 0,6.77 5.25,8.16 9.93,8.16z"/>
   <path class="fil2" d="M139.24 44.17c2.77,0 6.54,-3.78 7.93,-7.49l3.82 -12.44c0.59,-1.8 2.29,-6.8 2.4,-8.61l-7.69 0 -3.2 11.93c-1.31,4.94 -1.97,9.48 -4.99,9.48 -2.03,0 -4.22,0.62 -4.22,-3.06l3.69 -13.64c0.39,-1.43 1,-3.07 1.03,-4.71l-7.45 0 -2.97 9.86c-0.28,0.84 -0.54,1.7 -0.82,2.61 -1.42,4.62 -1.91,5.31 -1.91,9.61 0,3.78 2.54,6.46 4.72,6.46l9.68 0z"/>
   <path class="fil1" d="M101.77 22.77c0.65,-1.33 1.27,-2.46 1.94,-3.81 0.51,-1.03 1.58,-2.6 1.79,-3.67 -5.46,0 -10.94,-0.07 -16.39,-0.01 -8.3,0.09 -10.33,16.53 -3.9,18.28 2.32,0.63 5.18,0.42 7.88,0.42l0.25 2.04c0,3.2 -11.47,-0.03 -13.24,1.93 -0.6,0.66 -0.98,1.39 -1.41,2.15 -0.6,1.06 -2.26,3.3 -2.48,4.42 0.57,-0.37 13.92,0 15.39,0 9.99,0 11.11,-16.06 4.87,-17.88 -2.23,-0.65 -5.51,0.28 -7.85,-0.47 -0.75,-4.38 1.5,-3.4 5.71,-3.4 2.48,0 4.96,0 7.45,0z"/>
   <path class="fil2" d="M114.17 37.38c-1.34,0 -2.64,-0.82 -3.16,-2.13 -0.89,-2.25 -1.04,-11.19 4.13,-12.18 1.5,-0.29 8.08,0.1 9.01,-0.58 0.89,-0.65 3.75,-5.76 4.17,-6.86 -1.06,0 -1.69,-0.18 -2.3,-0.25 -0.94,-0.11 -1,0.21 -2.16,0.26l-9.45 -0.05c-3.67,0.42 -7.21,3.82 -9.07,8 -1.2,2.7 -2.33,5.94 -2.33,10.05 0,12.72 10.35,10.53 17.13,10.53 0.14,-2.26 4.79,-14.84 4.96,-17.67 -0.65,0.44 0.2,0.34 -0.74,0.34l-5.88 -0.27c-2.4,-0.08 -1.48,-0.54 -3.77,3.38 -0.36,0.62 -0.5,0.77 -0.9,1.49 -0.45,0.8 -0.55,0.66 -0.62,1.86l2.53 -0.12c0.57,-0.07 0.3,-0.01 0.95,-0.22 0,2.78 -1.27,4.42 -2.48,4.42z"/>
   <path class="fil1" d="M54.11 22.43c1.16,-2.38 2.32,-4.76 3.47,-7.14 -3.43,0 -6.86,-0.34 -9.69,-0.02 -2.96,0.34 -7.08,0.02 -10.16,0.02 -0.83,2.15 -1.5,4.82 -2.24,7.13 -0.37,1.14 -0.74,2.28 -1.13,3.55 -1.72,5.65 -4.63,12.34 -5.57,17.87 4.55,0 9.1,0 13.65,0 3.92,0 4.73,0.73 5.82,-1.55 0.91,-1.9 1.89,-3.69 2.68,-5.59l-13.71 0c0.37,-1.04 0.59,-2.01 0.96,-3.06l8.47 0 3.29 -5.35c0.6,-0.87 0.69,-0.6 0.93,-1.79 -2.3,0 -4.69,-0.1 -6.97,-0.03 -1.4,0.04 -1.63,0.55 -2.41,1.46 -0.69,0.8 -1.26,1.39 -2.04,1.96 0.13,-2.08 1.88,-5.37 2.23,-7.47l12.41 0z"/>
   <path class="fil2" d="M196.83 22.43c1.16,-2.38 2.31,-4.76 3.47,-7.14 -4.63,0 -9.27,0 -13.9,0 -3.66,0 -4.95,-0.72 -5.97,1.34l-2.72 5.79 7.2 0c-0.14,2.38 -3.64,10.86 -4.22,14.27l-5.21 0c-0.57,1.17 -1.09,2.24 -1.69,3.47 -0.34,0.7 -0.53,1.09 -0.91,1.81 -0.58,1.09 -0.54,0.43 -0.63,1.86l18.86 0c0.49,-1.01 3.29,-6.17 3.48,-7.14 -1.91,0 -3.82,-0.01 -5.73,0.02 -1.36,0.02 -2.06,0.35 -1.75,-1.01l2.6 -8.06c0.64,-1.83 1,-3.51 1.65,-5.21l5.46 0z"/>
   <path class="fil1" d="M45.92 12.57c1.76,0.56 1.91,-0.25 3.12,-1.51 1.73,-1.79 2.09,-1.55 2.09,-4.61 0,-3.87 -4.15,1.95 -4.66,2.79 -0.65,1.07 -0.55,1.53 -0.55,3.32z"/>
   <path class="fil0" d="M16.88 30.92l2.73 0c0.09,-1.43 0.28,-1.12 0.5,-2.38l-2.48 0c-0.29,0.82 -0.42,1.54 -0.74,2.38z"/>
  </g>
 </g>
</svg>
