<?xml version="1.0" encoding="UTF-8"?>
<!DOCTYPE svg PUBLIC "-//W3C//DTD SVG 1.1//EN" "http://www.w3.org/Graphics/SVG/1.1/DTD/svg11.dtd">
<!-- Creator: CorelDRAW -->
<svg xmlns="http://www.w3.org/2000/svg" xml:space="preserve" width="29.8557mm" height="10.4723mm" version="1.1" style="shape-rendering:geometricPrecision; text-rendering:geometricPrecision; image-rendering:optimizeQuality; fill-rule:evenodd; clip-rule:evenodd"
viewBox="0 0 191.41 67.14"
 xmlns:xlink="http://www.w3.org/1999/xlink"
 xmlns:xodm="http://www.corel.com/coreldraw/odm/2003">
 <defs>
  <style type="text/css">
   <![CDATA[
    .fil0 {fill:black}
    .fil1 {fill:#FEFEFE}
    .fil2 {fill:red}
   ]]>
  </style>
 </defs>
 <g id="Camada_x0020_1">
  <metadata id="CorelCorpID_0Corel-Layer"/>
  <g id="Figs_Frase_047">
   <path class="fil0" d="M51.6 8.58c-0.95,-0.06 -1.43,-0.64 -1.91,-1.13 -1.81,-1.83 0.9,-3.79 -2.01,-5.49 -2.91,-1.7 -6.08,-0.26 -7.77,-0.91 -1.53,-0.58 -3.39,-0.73 -5.03,-0.33 -0.81,0.2 -0.79,0.24 -1.32,0.6 -1.31,-0.63 -2.18,-1.32 -4.15,-1.32 -2,0 -3.24,0.16 -4.72,1.2 -1.06,0.75 -1.91,-0.01 -3.35,-0.08 -2.03,-0.09 -5.27,0.82 -5.83,2.5 -1.83,0 -2.04,-0.06 -3.37,0.29 -2.92,0.77 -5.14,2.77 -5.13,5.32 -1.96,0 -3.46,0.6 -4.57,1.81 -1.18,1.29 -1.65,2.57 -1.65,4.29 0,0.82 0.42,1.29 0.62,1.98 -0.23,0.39 -0.26,0.31 -0.55,0.71 -1.83,2.58 -0.62,6 2.63,7.37 -0.28,0.97 -0.28,2.09 0.14,3.03 0.62,1.36 0.15,0.96 -0.38,2.22 -0.4,0.95 -0.38,2.01 -0.38,2.99 0,0.67 0.57,0.56 -0.05,1.29 -0.4,0.47 -0.45,0.25 -0.74,0.74 -0.38,0.62 -0.86,1.52 -0.86,2.43 0,2.5 0.2,2.61 1.87,4.62 -0.45,1.55 -0.62,1.59 -0.62,3.3 0,2.04 3.11,4.45 5.6,4.62 0.03,1.29 1.08,2.32 1.88,2.96 0.99,0.79 2.37,1.06 3.52,1.49 -2.58,2.26 -0.72,4.11 1.16,6.34 2.8,3.32 4.43,2.09 6.58,1.75 4.42,7.63 12.79,2.52 12.79,-1.15 0,-2.01 -0.17,-1.41 -0.62,-2.97 1.72,-0.11 3.68,-2.12 4.36,-3.13 1.08,0.57 2.46,1.2 3.7,1.69 3.84,1.51 3.95,1.08 6.38,0.7 0.86,-0.13 1.35,0.24 1.96,0.41 1.51,0.44 3,0.31 4.49,-0.04 1.38,-0.33 3.25,-0.47 4.46,-0.75 1.29,-0.29 2.9,-0.75 3.9,-1.15l0.36 0.67c1.98,3.87 8.41,1.54 9.38,-1.36 1.49,0.3 4.13,1.83 6.39,2.35 0.56,0.13 1.48,0.29 2.08,0.26 0.55,-0.03 1.29,-0.3 1.74,-0.15 1.23,0.43 3.37,2.69 7.16,-0.36 1.23,-0.99 1.47,-1.14 2.33,-2.43 0.71,0.15 1.8,0.95 2.72,1.31 1.99,0.77 3.35,0.73 5.35,0.31 1.69,-0.36 3.04,1.84 10.62,0.71 7.05,-1.05 7.55,-2.98 8.94,-1.89 2.92,2.28 4.61,2.86 8.87,2.86 2.1,0 4.93,-1.69 6.01,-2.97l0.73 1.57c2.06,4.59 8.29,2.85 10.47,-1.3 0.56,0.18 0.8,0.41 1.28,0.69 2.52,1.46 6.16,1.99 8.58,0.11 0.18,-0.14 0.24,-0.19 0.4,-0.32 0.27,-0.21 0.1,-0.09 0.31,-0.23 1.23,0.65 1.57,1.3 3.25,2.01 1.24,0.53 2.88,0.83 4.66,0.86 5.17,0.09 5.97,-2.74 7.44,-3.06 0.29,0.85 2.22,2.32 3.21,2.89 5.98,3.42 12.52,-0.13 14.91,-4.97 2.79,-5.66 1.43,-12.19 0.12,-18.19 -0.43,-1.96 -0.9,-3.79 -1.4,-5.66 -1.05,-3.95 -1.79,-7.88 -6.27,-8.71 1.79,-2.13 -1.21,-4 -2.85,-5.32 -0.55,-0.44 -0.87,-0.59 -1.45,-0.99 -2.76,-1.92 -4.88,-4.31 -6.9,-6.72 -1.65,-1.97 -2.18,-5.28 -6.01,-5.28 -1.57,0 -2.19,0.05 -3.53,0.66 -0.8,-0.43 -1.29,-1.08 -2.05,-1.5 -2.33,-1.28 -6.82,-0.58 -7.6,1.58 -0.95,2.63 -0.32,0.23 -3.14,3 -1.92,-1.41 -3.04,-3.14 -8.14,-2.58 -1.54,0.17 -1.57,0.65 -2.51,1.15 -1.06,-1.25 -2.27,-1.82 -4.98,-1.82 -0.93,-2.78 -7.73,-2.89 -9.54,-0.16 -2.92,-0.13 -5.16,-0.81 -7.67,2.14 -1.96,-1.04 -4.98,-1.84 -7.6,-0.93 -0.97,0.34 -0.6,0.57 -1.53,0.77 -0.66,-0.35 -1.74,-1.48 -2.9,-1.48 -2.1,0 -3.08,0.26 -4.82,1.28 -0.94,0.55 -1.78,1.27 -2.03,2.24 -0.97,-0.65 -1.48,-1.31 -2.34,-2.15 -1.95,-1.91 -4.4,-5.33 -8.03,-5.33 -2.33,0 -4.55,0.74 -5.6,2.31 -0.99,-0.21 -1.54,-0.99 -3.11,-0.99 -2.48,0 -4.19,0.14 -5.6,1.81 -3.73,-0.99 -4.84,0.28 -6.64,0.66 -1.18,-0.62 -3.08,-1.82 -4.98,-1.82 -2.98,0 -4.99,0.01 -7.11,2.09 -1.6,1.57 -1.23,2.2 -2.01,4.18z"/>
   <path class="fil1" d="M52.22 50.48c0,-1.97 -1.45,-3.98 -1.45,-8.08 3.04,0.2 12.22,3.51 9.74,6.1 -1.1,1.14 -6.44,1.9 -8.29,1.98zm21.2 -5.31c0.9,1.05 3.17,3.22 1.37,2.4l-2.08 -1.02c-0.75,-0.36 -2.01,-1.03 -2.87,-1.19 -0.52,0.39 -0.26,0.23 -0.63,0.67 -0.26,0.31 -0.07,0.29 -0.55,0.43 0.23,-0.88 -1.41,-9.95 -0.69,-10.78l1.46 3.4c0.92,1.69 2.74,4.64 3.98,6.08zm-40.28 -9.54c0,-0.45 0.04,-0.53 0.41,-0.33 0.4,0.22 -0.04,0.29 0.53,1.73 0.34,0.87 0.76,1.59 1.16,2.38 1.5,2.93 3.04,4.94 5.18,7.45 0.17,0.2 0.29,0.28 0.28,0.51 -0.03,0.59 -0.26,0.18 -0.33,0.16 -0.01,-0 -4.12,-2.49 -5.17,-2.49 -0.72,0 -0.07,0.91 -1.24,1.16 0.46,-1.56 -0.36,-3.27 -0.42,-4.95l-0.41 -5.61zm16.79 -1.48c0,-2.02 -0.2,-3.59 -0.2,-5.61 0.86,0.27 0.13,-0.11 0.6,0.69l1.56 1.88c0.86,0.92 1.69,1.47 2.52,2.29 1.98,1.95 6.61,4.26 4.27,6.22 -2.13,1.79 -4.8,0.04 -8.33,-0.19l-0.42 -5.27zm-3.73 -9.9c0,0.81 0.55,1.3 0.8,1.98 -1.38,0.66 -1.83,-1.17 -1.83,4.78 0,0.42 0.22,1.22 0.21,1.98 -0.02,2.11 0.44,6.02 0.63,8.24 0.15,1.82 0.82,4.73 0.82,6.11 -0.9,-0.27 -0.05,-0.02 -1.07,-1.29 -3.6,-4.5 -4.49,-4.37 -7.81,-10.94l-4.04 -9.65c-0.36,-0.98 -0.45,-1.05 -1.8,-1.05 -1.78,0 -2.08,4.67 -2.07,6.43 0,1.45 -0.22,2.62 -0.21,3.96 0.01,1.37 0.01,2.75 0,4.13 -0,1.49 0.22,2.48 0.21,3.96 -0.02,2.99 0.69,8.63 1.45,11.22 2,-0.04 3.11,-2.06 3.11,-2.64 0,-1.63 0.09,-1.25 -0.26,-2.8 0.49,0.12 1.02,0.71 2.34,1.47 0.81,0.46 1.78,0.89 2.68,1.34 8.24,4.09 6.6,1.24 8.93,-0 0,1.87 1.41,2.47 3.53,2.47 0.79,0 0.77,-0.39 1.68,-0.49 0.81,-0.09 1.4,-0.01 2.11,-0.12 2.78,-0.43 6.07,-1.43 8.16,-2.91 0.76,-0.54 0.34,-0.73 1.32,-0.93 -0.26,1.7 0.53,3.44 0.83,4.95 2.25,0 3.32,-2.06 3.32,-2.97 0,-1.1 -0.21,-1.43 -0.21,-2.47l2.45 1.35c1.9,0.95 6.76,3.27 8.75,3.27 1.03,0 1.7,-0.7 2.17,-1.25 0.3,-0.35 0.45,-0.55 0.67,-0.95 0.31,-0.55 0.12,-0.67 0.69,-0.99 0.04,0.72 0.4,1.82 0.58,2.4 0.22,0.71 0.35,1.95 1.29,1.95 1.68,0 3.5,-1.72 3.24,-3.91 -0.09,-0.77 -0.31,-1.26 -0.52,-1.88l-2.65 -7.01c0.87,0.1 0.35,0.01 0.65,0.52 0.25,0.43 0.29,0.53 0.54,0.9 1.36,1.93 3.43,4.79 5.25,6.38 0.04,0.04 0.16,0.13 0.2,0.17 1.85,1.59 2.88,2.7 5.73,2.7 1.63,0 3.73,-2.89 3.73,-4.13 0,-3.76 -2.57,-9.25 -4.07,-12.77 -0.77,-1.81 -2.43,-6.66 -4.56,-7.59 -0.44,-0.19 -3.4,-1.01 -3.4,0.4 0,0.45 1.87,3.8 2.22,4.5 1.3,2.62 5.58,12.02 5.66,14.8 -1.25,-0.27 -4.32,-3.36 -5.14,-4.32 -1.42,-1.66 -2.76,-3.47 -3.91,-5.3 -2.61,-4.17 -3.65,-6.91 -5.74,-10.29 -0.78,-1.27 -0.8,-1.94 -3.31,0.07 -2.41,1.92 -1.17,2.56 -0.37,4.18 0.34,0.68 0.49,1.59 0.7,2.42l3.43 13.78c0.2,0.73 0.39,0.79 -0.05,1.23 -0.82,-1.46 -3.47,-4.15 -4.76,-5.51 -3.84,-4.06 -7.72,-11.06 -9.45,-16.08 -0.48,-1.41 -0.71,-3.11 -2.11,-3.11 -3.75,0 -1.88,10.66 -2.7,11.96 -0.48,-0.5 0.05,-0.94 -2.89,-3.89 -1.09,-1.1 -7.46,-5.23 -9.62,-8.34 -1.01,-1.46 -0.67,-1.87 -2.42,-1.87 -1.16,0 -3.11,0.62 -3.11,1.49z"/>
   <path class="fil1" d="M105.72 43.88c0.77,0.22 6.99,5.49 7.91,6.41 1.12,1.11 3.49,4.36 1.29,5.2 -0.87,0.33 -4.21,0.77 -5.48,0.79 -1.42,0.02 -1.33,-0.3 -1.51,-1.29l-1.23 -6.77c-0.28,-1.33 -0.7,-2.87 -0.98,-4.34zm14.93 -3.79c0,-1 0.41,-3.92 2.34,-3.36 1.63,0.46 4.57,4.62 5.53,6.01 1.5,2.18 3.33,7.15 3.33,9.56 0,2.03 -0.52,2.47 -2.9,2.47 -5.06,0 -7.47,-8.51 -8.03,-12.09l-0.26 -2.59zm37.12 -2.47c0,-1.39 0.54,-1.88 1.04,-2.47 4.58,0.06 9.04,9.23 9.78,13 0.65,3.3 0.98,4.98 -3.56,4.98 -3.51,0 -5.92,-6.81 -6.57,-9.46 -0.62,-2.54 -0.69,-3.57 -0.69,-6.04zm21.57 -11.55c0,0.78 0.44,1.73 0.77,2.36 2.16,4.1 6.4,18.14 4.02,22.73 -1.05,2.03 -4.07,1.38 -5.33,-0.08l-1.86 -2.32c-0.71,-0.95 -0.86,-1.66 -1.36,-2.71 -1.07,-2.28 -1.2,-4 -1.41,-6.47 -0.38,-4.54 -1.32,-5.02 -1.8,-8.13 -0.12,-0.75 0.19,-1.26 -0.91,-1.26 -1.24,0 -1.81,0.37 -2.28,0.99 -1.51,1.98 -0.24,5.28 -0.21,7.43l-0.41 0c-0.58,-1.99 -4.1,-5.49 -6.3,-6.54 -0.72,-0.34 -1.07,-0.33 -1.75,-0.59 -0.67,-0.26 -0.7,-0.63 -1.7,-0.63 -5.2,0 -4.56,9.57 -4.56,12.21 0,1.72 0.62,3.24 0.62,4.84l-0.41 -0.06c-0.07,-0.94 -1.63,-3.62 -2.15,-4.56 -1.6,-2.86 -2.99,-5.84 -5.06,-8.51 -1.26,-1.63 -5.23,-2.25 -5.23,-0.79 0,0.66 0.99,1.73 1.38,2.36 3.39,5.44 7.21,11.06 8.99,17.1 -0.84,-0.06 -1.17,-0.4 -1.73,-0.76 -0.73,-0.46 -0.93,-0.61 -1.53,-1.09 -2.85,-2.27 -5.06,-4.94 -7.23,-7.62 -2.21,-2.73 -4,-5.75 -6.07,-8.53 -0.45,-0.6 -1.64,-2.62 -2.52,-2.62 -0.78,0 -3.11,2.17 -3.11,2.97 0,0.7 0.71,1.71 1.13,2.24 0.44,0.56 1.36,1.56 0.53,2.05 -0.18,-1.72 -4.43,-6.07 -7.72,-6.89 -0.82,-0.21 -0.26,-0.01 -0.83,-0.33 -0.71,-0.4 -0.66,-0.37 -1.61,-0.37 -2.74,0 -4.36,5.51 -4.36,8.08 0,2.23 -0.08,4.53 0.26,6.72 0.12,0.75 0.48,1.87 0.56,2.68 -0.96,-0.2 -1.34,-1.13 -1.95,-1.75l-2.98 -2.75c-0.49,-0.39 -0.52,-0.5 -0.94,-0.9 -1.91,-1.82 -4.48,-3.3 -5.89,-5.55 -1.02,-1.63 -2.14,-3.94 -2.14,-6.05 0,-1.72 1.33,-2.31 -2.7,-2.31 -0.36,0 -0.24,-0.03 -0.53,0.07 -1.82,0.65 -0.75,4.75 -0.24,5.82 0.28,0.57 0.71,1.4 0.77,2.03 -1.43,-0.18 -1.66,-0.01 -1.66,1.16 0,0.68 2.05,6.73 2.4,8.32l1.46 6.44c0.34,1.53 0,0.9 -0.33,1.9 1.23,1.47 4.17,0.99 6.22,0.99 2.63,0 6.21,-1.31 8.03,-2.69 0.24,-0.19 0.65,-0.62 0.83,-0.82 0.45,-0.49 0.33,-0.62 0.89,-0.95 2.64,0.79 1.99,4.12 8.92,4.12 4.17,0 6.11,-6.1 6.41,-8.92 0.09,-0.83 -0.15,-1.34 0.23,-1.97 1.04,0.22 1.5,1.69 1.93,2.42 1.12,1.85 2,3.82 2.68,5.79 1.01,2.89 4.37,3.03 3.39,-1.05 -0.42,-1.75 -1.27,-3.24 -1.86,-4.96 -0.2,-0.58 -0.23,-1.19 -0.39,-1.83 -0.1,-0.37 -0.72,-1.3 -0.67,-1.55 0.17,-0.89 1.03,0.3 1.28,0.58 0.82,0.95 1.45,1.62 2.23,2.51 0.43,0.49 0.66,0.8 1.1,1.27 1.6,1.7 4.42,5.23 7.32,5.23 1.86,0 2.12,-0.19 3.11,-1.65 0.48,-0.71 0.58,-1.76 1.11,-2.26 0.95,0.4 0.96,0.67 1.59,1.43 1.97,2.37 3.04,3.13 7.26,3.14 2.45,0 3.07,-0.42 4.29,-2.37 0.61,-0.97 1.63,-3.26 1.72,-4.57 0.48,0.13 0.33,0.07 0.59,0.36 0.85,0.96 1.85,3.68 2.62,4.67 0.5,0.64 1.47,1.64 2.12,2.1 4.51,3.18 10.39,0.44 12.11,-4.64 1.74,-5.15 -0.54,-11.12 -1.9,-15.85 -0.52,-1.79 -1.13,-3.72 -1.79,-5.51 -0.35,-0.95 -0.6,-1.76 -1.05,-2.63 -0.63,-1.25 -0.99,-1.76 -2.76,-1.76 -0.87,0 -1.66,0.31 -1.66,0.99z"/>
   <path class="fil1" d="M46.62 17.82c-1.36,0 -1.07,-0.43 -1.04,-1.48 0.06,-2.11 -0.69,-4.2 -1.03,-6.16 0.68,0.35 1.36,1.05 2.1,1.52 3.27,2.05 10.82,6.12 -0.03,6.12zm15.35 -8.25c-0.95,0 -1.51,-0.06 -2.14,-0.11 -1.19,-0.11 -1.52,0.21 -1.6,-0.53 -0.01,-0.04 0.2,-1.49 0.23,-1.66 0.08,-0.49 0.31,-0.91 0.93,-1.06 1.19,-0.28 2.89,1.76 3.48,2.5 0.73,0.94 -0,0.85 -0.9,0.85zm21.98 -6.43c0,1.24 3.85,2.66 4.15,4.12 -1.18,-0.22 -1.85,-0.66 -3.52,-0.66 -2.22,0 -3.07,1.06 -4.36,1.73 -0.14,-0.19 -0.13,-0.69 -0.29,-1.16 -0.18,-0.53 -0.34,-0.97 -0.58,-1.53 -1.25,-2.99 -2.45,-2.24 -4.32,-1.68 0,2.5 3.11,5.64 3.11,11.88 0,4.88 -7.67,5.42 -7.67,-10.89 -3.31,0 -3.88,1.91 -3.48,4.42 0.31,1.95 0.34,2.84 0.83,4.78 0.12,0.47 0.34,0.9 0.36,1.53 -2.71,0 -2.01,1.08 -3.52,1.82 -1.18,0.58 -2.66,0.64 -3.73,-0.18 -1.61,-1.24 -2.65,-4.26 -2.56,-5.71 0.04,-0.57 -0.3,-0.44 2.05,-0.16 0.91,0.11 1.75,0.05 2.78,0.12 1.94,0.13 3.53,0.2 3.53,-1.51 0,-1.41 -3.38,-5.94 -6.84,-5.94 -2.12,0 -3.52,0.19 -4.48,2.21 -0.89,1.86 -0.04,2.42 -0.96,3.03 -0.41,0.27 -0.78,0.04 -0.78,0.87 0,0.51 0.51,0.71 1.04,0.83 0,2.97 0.5,2.41 0.62,3.96 -0.75,-0.21 -0.17,0.14 -0.74,-0.73 -0.82,-1.23 -2.45,-2.07 -3.35,-2.78 -0.6,-0.48 -0.96,-0.62 -1.56,-1.07 -2.37,-1.79 -5.98,-3.32 -4.3,-7.14 -0.99,-0.53 -1.14,-0.49 -2.49,-0.49 -1.32,0 -1.57,0.85 -1.61,1.84 -0.05,1.08 0.68,1.65 0.78,2.61 -2.78,-0.78 -0.97,1.85 -0.43,4.63 0.45,2.33 0.85,3.62 0.85,5.92 -2.27,0.04 -0.76,1.65 1.87,1.65 2.8,0 7.12,-0.44 9.6,-1.27 0.91,-0.3 1.14,-0.4 1.73,-0.93l0.48 -0.41 0.85 1.28c1.12,1.35 2.99,1.94 5.33,1.62 3.31,-0.45 5.18,-2.24 6.47,-2.93 0.6,2.05 2.99,3.96 6.22,3.96 2.76,0 5.37,-1.64 6.19,-3.99 0.79,-2.27 0.26,-3.36 0.31,-3.88 1.81,1.05 2.87,1.84 5.21,2.51 1.15,0.33 2.04,0.55 3.21,0.75 0.87,0.15 2.8,0.35 3.34,0.81 -0.43,1.26 -3.84,1.53 -5.23,1.36 -3.34,-0.39 -3.34,-1.86 -4.93,-1.86 -0.29,0 -3.1,1.44 -0.4,2.79 5.94,2.97 14.09,-0.4 14.09,-3.29 0,-0.94 -2.6,-1.29 -3.69,-1.52 -1.48,-0.31 -3.02,-0.68 -4.4,-1.12 -1.32,-0.42 -2.55,-0.91 -3.57,-1.61 -0.7,-0.48 -2.65,-1.7 -2.65,-2.51 0,-1.17 5.39,-1.96 8.85,1.37 0.66,0.63 1.36,2.04 3.68,0.19l0.53 -0.62c-1.4,-1.13 -0.68,-0.38 -2.24,-1.96 -0.74,-0.75 -1.37,-1.38 -2.08,-2.14 -0.99,-1.05 -3.35,-3.77 -4.8,-3.77 -0.76,0 -2.49,-0.11 -2.49,0.83z"/>
   <path class="fil1" d="M126.04 4.62c0,0.76 0.73,1.63 1.15,2.56 0.42,0.92 0.79,1.74 1.09,2.59 0.32,0.92 0.6,1.65 0.83,2.63 0.34,1.41 0.81,4.39 -0.05,5.68 -0.49,0.73 -1.22,0.9 -2.19,0.9 -3.63,0 -5.6,-9.39 -5.39,-11.71 0.07,-0.81 0.21,-0.64 0.21,-1.82 -3.26,0 -3.53,1.25 -3.53,4.13 0,2.26 1.4,8.09 4.05,10.14 3.64,2.83 9.31,1.06 10.52,-3.01 1.11,-3.75 -1.33,-7.52 -0.95,-8.24 0.55,0.54 3.57,7.99 4.18,9.55 0.58,1.49 0.91,2.94 2.11,2.94 0.86,0 1.86,-0.58 2.21,-1.06 0.89,-1.23 -2.22,-4.66 -2.63,-6.03 0.91,0.13 0.41,0.16 1,0.85 1.31,1.54 6.08,5.25 8.75,5.25 1.29,0 1.36,0.11 2.65,-0.86 1.7,-1.28 0.97,-1.57 0.88,-2.77l0.41 0c0.08,0.8 0.59,1.2 1.12,1.75 1.88,1.91 5.83,3.24 9.12,2.43l2 -0.72c-0.95,0 -1.13,0.16 -1.87,0.16 -2.89,0 -5,0.23 -7.36,-2.39 -3.26,-3.6 -2.18,-8.29 1.51,-7.93 2.1,0.21 1.5,2.73 4.4,2.73 0.6,0 1.66,-0.7 1.66,-1.16 0,-0.33 -3.54,-3.77 -4.08,-4.34 -1.29,-1.34 -1.45,-1.24 -3.8,-0.94 0.21,0.26 0.32,0.39 0.65,0.63 0.5,0.36 0.61,0.29 0.8,0.69 -1.92,0 -3.27,0.14 -4.31,0.86 -1.69,1.18 -1.67,3.96 -1.27,5.76 0.14,0.62 0.08,0.49 -0.43,0.64 0,-1.37 -1.91,-3.88 -2.85,-5.15 -2.1,-2.85 -1.69,-2.93 -5.86,-2.93 0.15,0.51 3.3,4.52 3.89,5.33 0.85,1.16 2.93,4.58 3.09,5.84 -0.85,-0.04 -3.41,-1.8 -4.03,-2.3 -2.22,-1.79 -3.15,-2.48 -5.06,-4.55 -0.51,-0.56 -0.91,-1.04 -1.46,-1.65 -1.14,-1.27 -1.44,-1.96 -3.07,-3.33 -1.77,0.33 -2.4,1.29 -3.32,1.48 0.23,-0.4 -0.46,-3.63 -2.9,-3.63 -0.71,0 -1.87,0.43 -1.87,0.99z"/>
   <path class="fil1" d="M99.91 7.75c0,0.45 0.67,0.97 0.94,1.4l3.44 8.81c0.29,0.68 0.89,3.16 1.84,3.16 1.14,0 2.7,-0.81 2.7,-1.65 0,-1.21 -2.93,-4.61 -2.49,-5.44 0.38,0.29 0.5,0.61 0.85,0.98 1.52,1.65 5.62,4.79 8.69,4.79 2.13,0 3.53,-1.46 3.53,-2.48 0,-1.24 -2.59,-5.2 -3.31,-6.27 -2.33,-3.43 -2.45,-4.62 -6.23,-4.62 -1.34,0 0.11,1.2 0.97,2.36 1.41,1.89 4.99,6.63 5.04,8.69 -3.82,-1.86 -5.71,-3.4 -8.44,-6.31 -2.28,-2.44 -3.63,-5.68 -5.38,-5.04 -0.71,0.26 -2.14,0.95 -2.14,1.62z"/>
   <path class="fil1" d="M168.71 15.72c0.67,0.54 1.19,0.95 1.87,1.49 1.14,0.91 1.45,0.64 1.71,1.44 -1.37,0 -2.1,-0.28 -3.27,-0.55 -2.89,-0.67 -1.83,0.93 -2.56,-0.08 -0.32,-0.45 -1.22,-4.42 -1.23,-5.31 0.87,0.19 2.05,1.86 3.47,3.01zm-6.17 -7.47c0,2.07 0.51,9.26 1.43,10.9 0.36,0.64 0.04,0.02 0.4,0.51 0.3,0.4 0.35,0.71 0.62,1.13l-0.83 0.8c0.46,0.73 0.17,1.16 1.07,1.35 0.6,0.18 2.28,-0.49 2.28,-1.32 0,-0.49 -0.3,-0.9 -0.41,-1.48 1.83,0.23 5.73,2.15 9.33,2.15 1,0 2.44,-0.85 2.39,-1.61 -0.04,-0.53 -0.49,-0.81 -0.9,-1.06 -0.58,-0.36 -0.7,-0.4 -1.23,-0.84 -1.58,-1.28 -3.43,-2.15 -4.85,-3.56 -2.57,-2.57 -3.97,-3.22 -5.91,-6.35 -0.67,-1.08 -0.9,-1.93 -2.56,-1.93 -0.73,0 -0.83,0.73 -0.83,1.32z"/>
   <path class="fil2" d="M19.87 57.74c-1.02,-0.19 -0.83,-0.2 -1.24,-0.83l1.45 0.33c-0.17,0.24 -0.1,0.17 -0.21,0.49zm0 0l1.66 -0.33c-0.43,0.83 -0.02,0.34 0.49,1.09 0.49,0.72 -0.06,0.93 1.17,0.73 -0.47,0.56 -0.58,0.21 -0.11,0.73 0.58,0.64 0.93,0.19 1.34,1.03 0.01,0.02 0.03,0.07 0.04,0.09 0.16,0.32 0.26,0.33 0.39,0.79l0.41 0c0.19,-0.57 0.11,-0.51 0.83,-0.66 -0.08,0.72 -0.25,0.68 0,1.16 0.5,-0.11 0.52,-0.06 0.86,-0.44l0.09 -0.15c0.47,-0.56 0.3,0.42 1.6,-0.98 0.58,-0.63 0.03,-1.71 -0.35,-2.16l-1.92 -2.11c-0.38,-0.32 -0.58,-0.32 -0.73,-0.64 -0.2,-0.39 0.27,-0.72 -0.8,-0.94 0.63,-0.74 0.46,-0.16 1.35,-1.41 0.64,-0.89 0.51,-0.11 0.82,-0.84 0.46,-1.08 -0.6,-1.53 -1.01,-1.98 -0.3,-0.33 -0.05,-0.41 -0.59,-0.59 -0.39,-0.13 -0.18,0.18 -0.99,-0.13 -0.39,0.75 0.79,-0.02 -1.62,1.39 -1.63,0.96 -1.94,-0.87 -1.94,-0.88 -0.32,-0.38 -0,0.1 -0.85,-0.49l-0.19 -0.15c-0.34,-0.23 -0.06,-0.08 -0.37,-0.21 -0.93,0.7 -2.37,1.57 -2.74,2.18l-0.37 0.62c0.61,0.33 0.69,0.35 1.03,0.97 0.01,0.02 0.04,0.07 0.05,0.09 0.3,0.56 1.22,1.1 0.51,1.69 -0.2,0.17 -0.18,0.08 -0.28,0.13l-1.51 0.75c0.22,0.44 -0.43,0.31 0.83,0.33l0 0.66c-1.12,-0.21 -1.83,-0.7 -0.61,0.47 0.79,0.75 1.07,0.65 0.82,1.51 0.92,-0.34 0.71,0.37 1.68,-0.31l1.02 -1.01z"/>
   <path class="fil2" d="M31.89 5.94c0,3.45 7.32,2.11 5.53,-1.59 -0.46,-0.96 -1.53,-1.26 -2.76,-1.14 -1.56,0.15 -1.46,0.47 -2.39,1.72 -0.22,0.3 -0.39,0.55 -0.39,1.01z"/>
   <path class="fil2" d="M32.93 20.13c0,1.77 1.75,2.32 3.05,2.12 0.68,-0.11 0.52,-0.2 1.16,-0.58l0.59 -0.35c0.74,-0.61 0.95,-1.76 0.65,-2.56 -0.26,-0.69 -0.04,-0.26 -0.57,-0.65 -0.02,-0.01 -0.07,-0.04 -0.08,-0.06 -1.87,-1.33 -4.8,-0.33 -4.8,2.08z"/>
   <path class="fil2" d="M21.32 24.25c-1.65,0 -3.09,2.36 -2.49,3.62l0.35 0.56c0.03,0.03 0.07,0.07 0.1,0.09 0.23,0.2 0.79,0.4 0.94,0.43 0.12,0.03 1.04,0.13 1.51,0.1 1.09,-0.07 1.57,-0.61 1.99,-1.25 0.37,-0.57 0.53,-1.28 0.33,-1.83l-0.07 -0.16c-0.01,-0.02 -0.03,-0.06 -0.03,-0.08 -0.1,-0.27 0.02,-0.32 -0.42,-0.75l-0.67 -0.39c-0.02,-0.01 -0.08,-0.03 -0.1,-0.04 -0.52,-0.2 -0.62,-0.29 -1.44,-0.29z"/>
   <path class="fil2" d="M30.86 22.77c0,-0.73 0.03,0.08 -0.25,-0.54 -0.86,-1.92 -3.4,-1.4 -4.14,-0.63l-0.3 0.33c-0.29,0.24 -0.27,-0.01 -0.45,0.56l-0.05 0.19c-0.57,1.78 -0.09,1.55 0.55,2.44 0.29,0.41 0.44,0.53 1.27,0.59 0.72,0.05 1.22,0.02 1.78,-0.25 1.05,-0.5 1.6,-1.42 1.6,-2.69z"/>
   <path class="fil2" d="M28.58 2.64c-0.87,0.18 -1.64,-0.18 -2.54,0.27 -0.35,0.18 -0.22,0.2 -0.49,0.62 -0.49,0.75 -0.78,0.75 -0.88,1.42l0.17 0.81c0.01,0.01 0.06,0.04 0.07,0.05l0.13 0.09c0.01,0.01 0.04,0.04 0.05,0.05 0.01,0.01 0.03,0.05 0.03,0.06l0.37 0.53c0.78,0.48 -0.56,0.04 0.68,0.49 0.74,0.27 1.78,0.1 2.43,-0.24 1.35,-0.69 1.94,-2.02 1.56,-2.9 -0.19,-0.46 -0.26,-0.33 -0.54,-0.59l-0.48 -0.64c-0.77,-0.46 -0.54,-0.02 -0.57,-0.01z"/>
   <path class="fil2" d="M11.57 28.21c0.34,0.74 0.41,-0.04 -0.01,0.92 -0.11,0.26 -0.05,1.34 0.36,1.17 0.46,-0.18 0.26,-0.61 0.51,-0.07 0.15,0.33 -0.24,0.18 -0.04,0.95 0.75,0.13 0.43,0.01 1.02,0.09 0.7,0.09 -0.15,0.03 0.47,0.08l0.19 0c0.04,-0 0.14,-0.03 0.18,-0.03l1.46 -0.47c0.15,-1.06 -0.08,-0 0.52,-0.75l0.41 -0.95c0.41,-1.36 -0.03,-1.85 -1.23,-2.13l-1.85 -0.17 -0.61 0.47c-0.03,0.02 -0.07,0.06 -0.1,0.09 -0.04,0.04 -0.15,0.15 -0.19,0.19l-0.19 0.18c-0.03,0.02 -0.07,0.06 -0.11,0.08 -0.25,0.17 -0.53,0.23 -0.8,0.35z"/>
   <path class="fil2" d="M16.76 6.76c1.62,0.34 -0.61,0.25 0.65,0.85 0.18,0.09 0.93,0.06 1.31,0.43 0.01,0.01 0.04,0.06 0.05,0.07 0.01,0.01 0.03,0.06 0.04,0.07 0.01,0.01 0.01,0.05 0.03,0.07 1.51,-0.03 0.92,-0.23 1.04,-0.49 1.24,-0.02 1.3,-0.46 1.73,-1.27 0.68,-1.27 -0.2,-0.26 0.34,-1.87 -0.27,-0.11 -0.4,-0.19 -0.64,-0.31 -1.28,-0.67 -1.06,-0.07 -1.64,-0.61 -0.05,-0.05 -0.14,-0.19 -0.2,-0.23 -0.48,0.25 -0.4,0.39 -0.99,0.63 -1.25,0.51 -1.32,0.44 -1.45,1.32 -0.08,0.57 -0.25,0.75 -0.26,1.35z"/>
   <path class="fil2" d="M8.25 30.52l-0.41 0c0.21,-0.8 0.39,-0.34 -0.21,-0.49l-2.09 1.9c-0.21,0.43 -0.26,0.6 -0.09,1.11l1.49 1.18c0.72,0.36 0.58,0.72 1.53,0.18 1.5,-0.85 1.28,-0.3 1.35,-1.2 0.03,-0.36 -0.18,-0.13 0.15,-0.35 0.36,-0.24 0.8,-0.03 0.6,-0.59 -0.01,-0.03 -0.39,-0.49 -0.45,-0.58 0.33,-0.13 -0.38,-0.17 0.62,0l-0.23 -0.62c-0.54,-0.54 -0.76,-0.53 -1.43,-0.54 0.39,-0.29 0.76,-0.32 -0.41,-0.66 -0.31,0.24 -0.36,0.17 -0.41,0.66z"/>
   <path class="fil2" d="M9.91 8.25c0,1 -0.16,1.37 0.42,1.81 0.02,0.01 0.85,0.39 0.93,0.41 0.68,0.16 0.71,-0.13 1.29,-0.14 0.01,-0 0.6,0.06 0.67,0.07 0.64,-1.23 0.14,-0.48 0.65,-0.61 0.34,-0.09 0.32,0.34 0.76,-0.68 0.24,-0.57 0.48,-0.58 0.16,-1.52 -0.59,-1.74 -2.98,-1.38 -3.71,-0.87l-1.17 1.54z"/>
   <path class="fil2" d="M6.59 15.18c0.02,-0.01 0.06,-0 0.07,0.02 0.01,0.02 0.06,0.02 0.07,0.02l0.9 0.29c-0.03,-0.97 -0.7,-1.08 0.41,-1.32 -0.12,-1.19 -0.26,0.39 -0.21,-1.48 -1.71,-0.36 -0.62,-1.04 -2.99,-0.32 -0.55,0.17 -0.49,-0.08 -0.84,0.25l-0.18 0.2c-0.66,0.65 -1.87,2.62 0.3,3.29l0.22 0.07c0.47,0.12 2.57,0.15 2.5,-0.49 -0.05,-0.49 -0.52,-0.05 -0.25,-0.54z"/>
   <path class="fil2" d="M6.18 28.05c0.76,-0.29 0.28,-0.08 0.9,-0.08 0.73,0 0.33,0.01 1.13,-0.11 0.99,-0.14 0.92,0.15 1.54,-0.59 0.45,-0.54 1.01,-1.42 0.71,-2.13 -0.21,-0.48 -0.19,-0.32 -0.75,-0.22 0.36,-0.79 0.05,0.13 0.41,-0.66 -0.41,-0.08 -1.32,-0.44 -2,-0.23 -0.92,0.29 0,0.24 -1.39,0.88 -0.5,0.23 -0.31,0.1 -0.59,0.65 -0.68,1.31 0.05,0.51 0.05,2.5z"/>
   <path class="fil2" d="M3.9 37.78c1.05,0.79 -0.54,-0.27 0.31,0.25 0.32,0.19 0.09,0.12 0.52,0.25 -0.18,0.31 -0.15,0.48 -0.39,0.64 -0.31,0.2 -0.05,0.07 -0.46,0.04l-0.18 -0.02c0.19,0.29 0.79,1.12 1.02,1.29 0.59,0.43 1.62,0 2.18,-0.22 0.75,-0.3 0.49,-0.26 0.54,-0.38 0.05,-0.13 -0.08,-0.19 0.18,-0.46 0.48,-0.51 0.51,-0.22 1.06,-0.06 0.02,-0.06 0.07,-0.35 0.07,-0.38l0.02 -0.64c0.43,-1.11 -0.57,0.52 -0.09,-1.13 -1.82,-0.31 -0.89,0.04 -1.05,-0.38l-0.61 -0.61c-0.42,0.83 -0.86,-0.1 -1.87,0.66 -0.75,0.56 -0.35,0.9 -1.24,1.15z"/>
   <path class="fil2" d="M5.56 45.86c0.66,-0.11 0.54,-0.17 0.84,0.22 0.35,0.45 -0.16,0.25 0.41,0.44 0.03,0.01 0.08,-0.02 0.08,-0 0,0.01 1.81,0.32 2.65,-0.63 0.13,-0.15 0.05,-0.05 0.2,-0.26l0.19 -0.27c0.01,-0.01 0.05,-0.04 0.06,-0.05l0.34 -0.12c-0.42,-0.7 0.09,-0.49 -0.51,-1.42 -0.03,-0.04 -0.31,-0.02 -0.06,-0.51l0.16 -0.21c-0.96,-0.37 -1.66,-0.93 -3.2,-0.07 -0.97,0.54 -0.19,-0.01 -0.69,0.94l-0.46 1.94z"/>
   <path class="fil2" d="M3.69 18.31c-0.08,0.81 -0.29,0.4 0.21,0.99 -0.57,-0.1 -0.5,-0.23 -0.89,0.11 -0.27,0.24 -0.32,0.5 -0.36,0.88 0.85,-0.06 0.6,-0.38 0.83,0.16 -0.5,0.14 -0.45,0.21 -0.83,0.66 0.34,0.52 0.28,0.84 1.08,0.96 1.09,0.16 0.5,-0.3 1.82,0.2 0.51,-1.52 1.11,0.28 1.41,-2.32l0.08 -0.31c0,-0 0.12,0.01 0.17,-0.51 -0.68,-0.39 -0.12,-0.27 -0.88,-0.62l-0.59 -0.17c-0.13,-0.05 -0.24,-0.27 -1.04,-0.01 -0.77,0.24 -0.5,0.42 -1.03,-0.02z"/>
   <path class="fil2" d="M13.23 50.98c0.12,-0.88 -0.21,-0.18 0.96,-0.84 0.63,-0.36 -0.67,-0.01 0.49,-0.31 -0.05,-0.47 -0.13,-0.29 -0.2,-0.35 -0.31,-0.29 -0.22,0.11 -0.42,-0.31 0.57,-0.19 0.23,-0.03 0.77,-0.11 0.6,-0.09 0.25,-0.19 0.68,-0.06 0,-1.86 0.2,-0.76 -0.47,-1.53 -0.09,-0.11 -0.12,-0.66 -1.54,-0.71 -0.56,-0.02 -0.9,0.01 -1.39,0.36 -0.52,0.36 -0.59,0.45 -0.78,1.05 -0.13,0.4 -0.15,2.21 0.88,2.63 0.56,0.23 0.14,0.16 1.02,0.18z"/>
   <path class="fil0" d="M19.87 57.74c0.11,-0.32 0.04,-0.26 0.21,-0.49l-1.45 -0.33c0.42,0.63 0.23,0.64 1.24,0.83z"/>
  </g>
 </g>
</svg>
