<?xml version="1.0" encoding="UTF-8"?>
<!DOCTYPE svg PUBLIC "-//W3C//DTD SVG 1.1//EN" "http://www.w3.org/Graphics/SVG/1.1/DTD/svg11.dtd">
<!-- Creator: CorelDRAW -->
<svg xmlns="http://www.w3.org/2000/svg" xml:space="preserve" width="29.9024mm" height="9.9967mm" version="1.1" style="shape-rendering:geometricPrecision; text-rendering:geometricPrecision; image-rendering:optimizeQuality; fill-rule:evenodd; clip-rule:evenodd"
viewBox="0 0 191.99 64.19"
 xmlns:xlink="http://www.w3.org/1999/xlink"
 xmlns:xodm="http://www.corel.com/coreldraw/odm/2003">
 <defs>
  <style type="text/css">
   <![CDATA[
    .fil1 {fill:#FEFEFE}
    .fil2 {fill:#ED3237}
    .fil0 {fill:black}
   ]]>
  </style>
 </defs>
 <g id="Camada_x0020_1">
  <metadata id="CorelCorpID_0Corel-Layer"/>
  <g id="Figs_Frase_050">
   <path class="fil0" d="M142.93 24.69l-1.56 -5.35c-0.12,0.53 -0.38,1.03 -0.82,1.46 -0.68,0.65 -1.89,1.21 -3.21,1.67 1.16,0.27 2.21,0.62 3.08,1.08 0.19,0.1 0.37,0.2 0.55,0.31 0.58,0.17 1.12,0.37 1.59,0.62 0.13,0.07 0.26,0.14 0.38,0.21zm-3.44 -11.79l-2.27 -7.79 19.26 -2.28 1.75 1.78 0.99 -0.12 2.29 2.33 -1.29 -4.43 20.09 -2.38 0.56 1.92 1.44 -0.17 9.68 33.21 -1.44 0.17 0.09 0.32 -3.44 0.41 1.68 0 -6.26 20.25 0.78 0 -1.71 7.57 -79.25 0 0.37 -0.85c-0.21,0.08 -0.43,0.15 -0.66,0.22 -2.57,0.8 -5.62,1.14 -8.89,1.14 -3.54,0 -6.95,-0.38 -9.41,-1.41 -0.84,-0.35 -1.55,-0.74 -2.11,-1.14l-0.46 2.04 -16.24 0 0.42 -1.86 9.06 0 3.86 -17.1 -10.47 0 -0.01 0.15c-0.01,0.21 -0.04,0.42 -0.07,0.63l3.67 0c0.68,0 1.4,0 2.08,0.04l0.27 0.02 -0.02 0.35c-0.05,0.79 -0.22,1.59 -0.4,2.37l-0.04 0.19 -0.34 -0.07c-2.03,-0.39 -3.88,-0.97 -5.37,-1.81l-0.03 -0.02c-0.1,0.5 -0.21,1 -0.32,1.5l-0.23 1.01c-2.6,-0.5 -4.76,-1.23 -6.43,-2.18 -1.81,-1.03 -3.06,-2.17 -3.78,-3.39 -0.04,-0.07 -0.08,-0.13 -0.11,-0.2l-9.16 1.08 -0.78 7.77 -1.63 0.19 -0.03 0.33 -13.99 1.66 0.8 -8.1 -5.65 0.67 -0.82 7.78 -1.64 0.19 -0.03 0.33 -14.04 1.66 0.84 -8.1 -5.89 0.7 -1.86 -6.37 8.45 -1 0.39 -3.74 -9.88 1.17 -1.87 -6.41 12.47 -1.48 0.85 -8.15 14.05 -1.66 -0.21 2.01 1.64 -0.19 -0.65 6.14 5.57 -0.66 0.82 -8.15 13.99 -1.66 -0.2 2.01 1.63 -0.19 -0.62 6.13 2.28 -0.27c-0.22,-0.87 -0.41,-1.74 -0.53,-2.61 -0.15,-0.99 -0.23,-2.02 -0.08,-3.01 0.3,-1.91 2.28,-3.66 5.03,-5.21 3.23,-1.83 7.73,-3.04 13.19,-3.69 4.91,-0.58 10.1,-0.69 14.81,0.2 2.86,0.54 5.23,1.28 6.98,2.24 1.49,0.52 2.78,1.18 3.69,2.03 0.08,0.08 0.16,0.15 0.23,0.23l-1.99 -6.82 18.98 -2.25c3.97,-0.47 9.05,-0.97 13.22,-0.81 4.04,0.15 7.19,1.04 9.53,2.29l0.01 0.01c0.74,0.25 1.44,0.56 2.1,0.91 1.16,0.62 2.03,1.48 2.68,2.4zm-42.48 11.84l0.09 0.32 -20.29 2.4 0.17 0.58 20.29 -2.4 0.56 1.92 0.13 -0.02 -0.82 -2.81 -0.13 0.02z"/>
   <path class="fil1" d="M7.24 34.29l12.09 -1.43 0.84 -8.15 7.48 -0.89 -0.86 8.15 13.77 -1.63 0.82 -8.14 7.43 -0.88 -0.82 8.14 6.53 -0.77 1.13 3.87 -8.07 0.96 -0.64 6.4 10.49 -1.24 1.12 3.83 -12 1.42 -0.82 8.1 -7.43 0.88 0.8 -8.1 -13.84 1.64 -0.86 8.11 -7.47 0.88 0.84 -8.1 -6.53 0.77 -1.12 -3.83 8.07 -0.96 0.68 -6.41 -10.53 1.25 -1.13 -3.87zm19.14 1.74l-0.67 6.41 13.83 -1.64 0.64 -6.4 -13.79 1.63zm70.92 -11.58l-16.51 1.96 -0.87 -2.99c-0.55,-1.89 -1.04,-3.05 -1.49,-3.48 -0.45,-0.44 -1.25,-0.59 -2.4,-0.45 -0.99,0.12 -1.61,0.4 -1.85,0.85 -0.24,0.44 -0.11,1.51 0.38,3.19l3.99 13.71c-2.2,1.39 -5.14,2.48 -9.21,3.03l-1.99 0.27 -1.15 5.12 4.5 0c0.44,0 1.39,0 2.04,0.04l-0.01 0.2c-0.05,0.77 -0.22,1.57 -0.4,2.36 -2.16,-0.41 -3.91,-1 -5.25,-1.77 -1.56,-0.88 -2.65,-1.87 -3.3,-2.96 -0.64,-1.09 -1.29,-2.77 -1.95,-5.03l-2.85 -9.78c-0.92,-3.14 -1.26,-5.46 -1.02,-6.96 0.24,-1.51 1.73,-3.03 4.47,-4.58 2.74,-1.55 6.56,-2.61 11.47,-3.19 4.82,-0.57 8.97,-0.53 12.45,0.13 3.48,0.66 5.92,1.63 7.3,2.93 1.38,1.31 2.46,3.3 3.24,6.01l0.41 1.42zm-13.18 11.7l-0.49 -1.69 -3.21 0.38 -1.46 -4.99 19.24 -2.28 2.37 8.12c-3.6,0.1 -6.94,0.59 -9.39,1.69 -0.06,0.03 -0.13,0.06 -0.19,0.09l0.3 -1.32 -7.17 0zm9.26 10.24l-0.42 0.05 -0.37 -0.36 0.86 0 -0.07 0.31zm6.81 -34.85l16.41 -1.94c5.18,-0.61 9.17,-0.87 11.97,-0.76 2.79,0.1 5.19,0.7 7.21,1.78 2.02,1.09 3.43,3.05 4.26,5.89 0.56,1.92 0.38,3.33 -0.57,4.22 -0.94,0.9 -3.07,1.75 -6.37,2.56 3.95,-0 6.76,0.43 8.42,1.3 1.67,0.88 2.81,2.39 3.44,4.53l0.89 3.05c0.46,1.59 0.59,2.91 0.38,3.97l-6.07 0 -1.02 4.54c-0.1,0.02 -0.2,0.04 -0.31,0.06l-0.02 -4.6 -10.67 0c0.32,-0.12 0.56,-0.24 0.72,-0.36 0.53,-0.41 0.59,-1.29 0.2,-2.62l-0.9 -3.08c-0.41,-1.42 -0.94,-2.23 -1.59,-2.47 -0.65,-0.23 -2.18,-0.22 -4.6,0.02l2.48 8.51 -6.32 0 -2.27 5.28c-0.14,-1.13 -0.64,-2.27 -1.81,-3.26 -1.41,-1.19 -3.85,-1.88 -6.74,-2.22l-7.12 -24.41zm18.15 3.66l2.13 7.32c0.69,-0.1 1.22,-0.17 1.61,-0.21 1.58,-0.19 2.53,-0.52 2.84,-0.97 0.32,-0.47 0.19,-1.68 -0.38,-3.63 -0.3,-1.03 -0.69,-1.73 -1.17,-2.11 -0.48,-0.37 -1.02,-0.57 -1.63,-0.62 -0.6,-0.04 -1.75,0.04 -3.41,0.22zm62.91 -13.26l9.59 32.91 -11.02 1.3 -3.79 0 -12.57 -13.54 3.95 13.54 -14.26 0 -8.7 -29.85 13.79 -1.63 13.54 13.72 -4.32 -14.82 13.79 -1.63z"/>
   <path class="fil2" d="M79.99 36.35l-1.67 7.41 -10.78 0c-0.1,-0.05 -0.21,-0.09 -0.33,-0.13 -0.6,-0.2 -2.03,-0.3 -4.28,-0.3l-0.96 0 0.66 -2.94c4.86,-0.65 8.73,-2 11.63,-4.04l5.73 0zm-1.92 8.51l-3.79 16.8 -9.73 0 3.06 -13.58c0.35,-1.57 0.55,-2.64 0.59,-3.21l9.87 0zm21.54 2.48c1.4,0.33 2.38,0.85 2.94,1.58 0.55,0.73 0.52,2.46 -0.09,5.17 -0.45,2.01 -1.16,3.57 -2.12,4.68 -0.96,1.11 -2.37,1.95 -4.23,2.53 -1.87,0.58 -4.16,0.87 -6.87,0.87 -3.08,0 -5.43,-0.34 -7.03,-1.01 -1.61,-0.67 -2.58,-1.5 -2.92,-2.47 -0.33,-0.97 -0.23,-2.67 0.31,-5.08l0.45 -2 9.73 0 -0.93 4.12c-0.25,1.1 -0.31,1.8 -0.17,2.09 0.13,0.3 0.55,0.45 1.24,0.45 0.76,0 1.3,-0.19 1.63,-0.57 0.32,-0.37 0.67,-1.35 1.02,-2.94l0.4 -1.75c0.22,-0.97 0.21,-1.68 -0.02,-2.13 -0.24,-0.45 -0.67,-0.74 -1.3,-0.88 -0.63,-0.14 -1.88,-0.22 -3.77,-0.25l0.83 -3.68c2.31,0 3.75,-0.06 4.33,-0.17 0.57,-0.12 1.02,-0.36 1.35,-0.75 0.07,-0.09 0.14,-0.18 0.21,-0.29l9.2 0c-0.2,0.29 -0.42,0.55 -0.66,0.75 -0.74,0.63 -1.92,1.2 -3.53,1.73zm-4.56 -3.58c0.04,-0.13 0.07,-0.27 0.1,-0.41l0.32 -1.4c0.2,-0.89 0.19,-1.47 -0.03,-1.75 -0.22,-0.28 -0.63,-0.42 -1.22,-0.42 -0.68,0 -1.18,0.15 -1.49,0.44 -0.32,0.3 -0.59,0.93 -0.81,1.9l-0.37 1.65 -9.73 0 0.39 -1.73c0.55,-2.42 1.77,-4.04 3.66,-4.89 1.9,-0.85 4.7,-1.27 8.41,-1.27 4.64,0 7.66,0.59 9.05,1.77 1.39,1.18 1.85,2.82 1.38,4.91 -0.1,0.44 -0.22,0.85 -0.36,1.22l-9.31 0zm32.76 -7.41l0.03 7.41 -8.4 0 0.17 -1.78c-0.27,0.62 -0.52,1.21 -0.77,1.78l-8.91 0 3.18 -7.41 14.7 0zm0.04 8.51l0.07 16.8 -10.38 0 0.47 -4.54 -3.66 0 -1.58 4.54 -10.51 0 7.21 -16.8 8.91 0c-1.44,3.41 -2.47,6 -3.08,7.77l3.45 0c0.12,-2.19 0.32,-4.78 0.59,-7.77l8.51 0zm38.84 -8.51l-1.72 7.61 0 -0.2 -14.63 0 3.12 -7.41 13.22 0zm-1.92 8.51l-3.79 16.8 -8.89 0 3.76 -16.8 8.92 0zm-8.97 0l-7.26 16.8 -6.22 0 0.04 -16.7 -3.79 16.7 -8.89 0 3.79 -16.8 15.04 0 -0 3.31 1.39 -3.31 5.91 0zm-22.1 -1.1l1.67 -7.41 13.13 0c0.03,1.53 0.02,3.33 -0.01,5.39l-0 2.02 -14.79 0zm47.5 -7.41l-5.89 19.07 -7.53 0 2.7 -19.07 10.72 0zm-5.36 20.25l-1.14 5.05 -9.14 0 1.14 -5.05 9.14 0z"/>
  </g>
 </g>
</svg>
