<?xml version="1.0" encoding="UTF-8"?>
<!DOCTYPE svg PUBLIC "-//W3C//DTD SVG 1.1//EN" "http://www.w3.org/Graphics/SVG/1.1/DTD/svg11.dtd">
<!-- Creator: CorelDRAW -->
<svg xmlns="http://www.w3.org/2000/svg" xml:space="preserve" width="30.3295mm" height="5.3111mm" version="1.1" style="shape-rendering:geometricPrecision; text-rendering:geometricPrecision; image-rendering:optimizeQuality; fill-rule:evenodd; clip-rule:evenodd"
viewBox="0 0 197.34 34.56"
 xmlns:xlink="http://www.w3.org/1999/xlink"
 xmlns:xodm="http://www.corel.com/coreldraw/odm/2003">
 <defs>
  <style type="text/css">
   <![CDATA[
    .fil0 {fill:black}
    .fil1 {fill:#FFCC00}
    .fil2 {fill:white}
   ]]>
  </style>
 </defs>
 <g id="Camada_x0020_1">
  <metadata id="CorelCorpID_0Corel-Layer"/>
  <g id="Figs_Frase_058">
   <path class="fil0" d="M186.04 19.57c2.74,0 5.6,-2.36 7.33,-3.99 3.21,-3.02 6.29,-9.54 1.44,-12.7 -4.03,-2.62 -6.63,-0.48 -8.39,-1.85 -2.22,-1.74 -6.83,-1.36 -7.57,1.82 -2.21,0 -1.89,0.09 -3.21,-0.91 -0.56,-0.42 -2.04,-1.06 -3.07,-1.06 -1.91,0 -2.88,0.98 -4.07,2.16 -1.16,-0.51 -2.77,-1.44 -4.37,-1.44 -2.63,0 -4.11,0.32 -6.29,1.61 -0.64,0.38 -1.32,0.88 -1.84,1.39 -0.55,0.54 -0.96,1.08 -1.57,1.49 -1.02,-1.53 -1.09,-2.09 -2.81,-3.13 -4.03,-2.42 -8.61,-1.34 -11.97,1.64 -0.31,0.28 -0.51,0.51 -0.8,0.81 -0.45,0.47 -0.36,0.52 -1.01,0.67 -1.39,-3.44 -4.79,-4.31 -8.38,-4.31 -1.08,0 -4.22,1.55 -4.49,1.5 -0.52,-0.1 -3.17,-4.46 -8.94,-1.64 -0.59,0.29 -0.91,0.53 -1.44,0.91 -1.02,0.73 -0.61,0.31 -1.66,0.31 -3.42,0 -3.86,0.66 -4.99,-0.4 -1.65,-1.54 -4.89,-1.96 -6.72,-0.36 -1.23,1.07 -1.15,0.7 -2.48,1.3 -2.48,1.11 -3.08,2.71 -4.37,3.42 -0.52,-1.46 -0.26,-1.96 -1.55,-2.88 -1.69,-1.21 -3.7,-1.08 -5.81,-0.77 -3.3,0.49 -2.31,0.65 -4.11,-0.08 -1.47,-0.59 -3.22,-0.54 -4.63,0.14 -0.97,0.47 -1.83,0.17 -3.6,0.17 -0.65,0 -0.8,0.35 -1.5,0.24 -1.57,-0.26 -2.18,-1.26 -3.76,-1.8 -1.19,-0.4 -2.43,-0.04 -3.36,-0.41 -3.92,-1.59 -4.31,-0.19 -6.01,0.45 -1.78,0.66 -5.01,-1.99 -7.53,1.09 -0.58,0.71 -0.45,0.93 -1.29,1.4 -0.57,0.32 -1.19,0.89 -1.68,1.02 -0.59,-0.4 -0.98,-1.04 -1.62,-1.44 -2.06,-1.26 -5.4,-0.7 -7.55,-0.17 -1.49,0.37 -1.81,-0.73 -3.22,-0.73l-1.8 0c-1.86,0 -2.07,1.35 -4.54,0.41 -0.32,-0.12 -0.83,-0.5 -1.26,-0.72 -1.04,-0.53 -2.59,-0.95 -3.9,-0.95 -5.59,0 -11.94,5.44 -11.69,9.89 0.08,1.42 0.74,1.37 0.74,2.33 0,0.37 -0.16,0.93 -0.17,1.64 -0.02,1.7 -0.42,0.97 -1.62,0.16 -2.72,-1.83 -8.4,-3.44 -11.28,-0.86 -2.56,2.29 -1.7,6.04 -0.01,8.56 0.89,1.33 2.33,1.37 3.28,2.47 3.23,3.78 9.67,4.23 14.01,1.76 2.06,-1.17 3.45,-0.22 4.98,0.26 1.34,0.43 2.5,1.94 3.87,2.6 1.16,0.56 3.52,1.38 5.08,1.38 5.14,0 5.28,-1.79 9.16,-2.7 1.48,2.22 4.98,3.05 7.55,3.22 3.06,0.21 1.19,0.02 2.97,1.34 2.34,1.75 5.16,-0.11 6.99,-1.25 1.03,-0.64 0.87,-0.38 2.06,-0.08 2.32,0.58 5.37,0.24 7.43,-0.48 1.22,-0.43 0.83,-0.54 1.97,0.06 1.63,0.87 2.74,0.46 4.62,0.25l6.85 -0.88c1.79,-0.21 2.99,-0.23 3.98,-1.23 1.33,-1.34 1.09,-2.66 2.1,-2.93 0.79,2.36 -0.33,3.98 1.97,5.04 0.81,0.37 1.77,0.57 2.72,0.38 6.12,-1.27 3.04,0.19 5.91,0.15 0.8,-0.01 2.02,-0.53 2.7,-0.53 2.27,0 1.26,1.64 6.36,0.43 1.96,-0.47 6.49,-0.78 8.61,-1.09 6.17,-0.91 5.89,0.21 8.51,-4.55 0.68,0.24 0.64,0.43 0.94,1.1 0.21,0.45 0.38,0.77 0.58,1.22 0.36,0.84 0.67,1.81 1.36,2.42 1.08,0.94 6.34,2.08 8.25,0.95 0.52,-0.3 0.82,-0.49 0.97,-1.01 0.95,0 1.08,0.36 3.59,0.36 1.15,0 3.49,-0.83 4.51,-0.56 2.6,0.7 4.04,0.92 6.81,0.92 1.02,0 1.23,-0.24 2.16,-0.2 1.52,0.05 3.32,1.64 4.85,1.64 3.01,0 3.78,-1.98 4.13,-1.98 1.71,0 4.22,2.53 6.87,0.22 0.56,-0.49 0.81,-1.2 1.39,-1.63 2.27,1.08 -0.47,2.67 9.34,2.67 1.26,0 2.69,-1.23 2.69,-2.52 0,-1.13 -1.97,-3.78 -2.67,-5.06 -0.99,-1.82 -1.84,-2.63 -0.59,-2.87 1.92,-0.36 3.98,-0.69 3.98,-3.22l1.62 0z"/>
   <path class="fil1" d="M126.59 8.92l-1.08 1.12c0.05,-0.55 -0,-0.42 0.27,-0.81 0.29,-0.42 0.11,-0.21 0.49,-0.45 0.58,-0.49 0.45,-0.87 2.39,-2.24 0.85,-0.6 2.71,-1.55 3.94,-0.54 0.15,1.81 0.02,2.38 -0.51,3.79 -0.52,1.38 -1.46,2.76 -2.38,3.74 -0.62,0.66 -3.04,3.61 -3.94,2.72 -0.87,-0.76 0.34,-3.26 0.66,-4.03 0.44,-1.07 2.18,-1.44 1.68,-3.25 -0.5,-0.19 -0.92,-0.32 -1.53,-0.04zm-59.09 1.84c0.72,-0.03 0.36,0.28 1.39,-0.94 1.68,-1.99 -2.53,-1.88 -1.39,0.94zm-7.1 2.7c0,1.19 0.57,1.74 1.62,1.35 0.01,-4.61 2.34,-6.29 -0.09,-6.29 -1.2,0 -1.53,4.67 -1.53,4.94zm13.65 0.63l0.07 0.9c1.15,0.53 4.03,-0.18 6.48,-0.18 2.68,0 1.68,-0.24 4.92,-1.45 1.27,-0.48 3.95,-1.3 5.41,-1.33 -0.26,-1.56 -2.16,-0.93 -4,-0.53 -1.46,0.32 -2.81,0.61 -4.13,1.12 -1.98,0.77 -1.37,1.34 -3.95,1.1 -1.7,-0.16 -3.26,-0.15 -4.81,0.38zm-40.32 -0.18c-1.43,0 -2.82,-0.08 -4.13,0.45l0.06 0.99c1.3,0.31 3.15,-0.13 4.62,-0.24 1.97,-0.15 2.64,0.36 4.41,-0.47 4.34,-2.04 5.92,-1.7 7.8,-2.44 -0.14,-0.51 -0.42,-0.9 -1.08,-0.9 -1.79,0 -6.68,1.1 -8.61,2.36 -1.21,0.79 -1.08,0.24 -3.06,0.24zm52.36 -6.11c-0.31,0.17 -0.69,0.46 -1.11,0.68l-2.46 1.52c-0.77,0.37 -0.77,0.27 -1.1,0.94 0.8,1.64 3.21,-0 4.6,-0.51l4.83 -1.65c-0.59,-1.8 -2.55,0.1 -5.3,0.09 0.97,-0.27 2.25,-1.5 5.12,-2.34 -0.26,-0.98 -0.43,-0.9 -1.8,-0.9 -1.16,0 -4.56,0.62 -5.56,0.98 -1.4,0.51 -0.92,1.52 0.17,1.6 0.97,0.07 1.67,-0.43 2.61,-0.43zm-45.53 0.49c0.34,-0.27 -0.3,-0.09 0.53,-0.23 0,-0 0.5,0.01 0.55,0.01 -0.27,0.36 -0.57,0.58 -1.08,0.72l-2.97 1.7c-1.21,0.71 -0.74,2.18 1.67,1.15 1.84,-0.79 6.66,-2.32 6.68,-2.33l0.46 -0.34c-0.45,-0.88 -1.01,-0.68 -2.53,-0.32 -0.92,0.22 -1.95,0.31 -2.68,0.59 1.15,-0.61 1.46,-0.99 3.43,-1.92 0.56,-0.27 1.06,-0.29 1.51,-0.5 -0.11,-0.91 -0.55,-0.94 -1.61,-0.91 -1.59,0.05 -5.06,0.7 -6.47,1.36 -0.14,1.8 1.39,1.16 2.51,1.03zm-10.42 -1.17c0,0.38 0.02,0.72 -0.04,1.09 -0.04,0.28 -0.13,0.33 -0.15,0.76 -0.02,0.65 0.19,0.91 0.19,1.84 0.54,1.16 0.45,1.95 1.71,2.38 1.28,0.45 2.76,0.13 3.43,-0.69 0.97,-1.19 2.39,-4.62 1.78,-6.68l-1.34 -0.17c-1.05,2.5 -0.88,5.16 -2.79,6.64 -1.19,-0.79 -0.79,-2.46 -0.68,-4.04 0.07,-1.02 0.34,-1.65 -0.58,-1.91 -0.98,-0.28 -1.19,0.1 -1.52,0.78zm47.06 4.81c-1.46,-1.83 0.17,-3.9 -0.63,-5.75 -2.13,-0.64 -2.15,1.07 -2.15,2.79 0,6.12 7.27,5.78 7.27,-2.88 0,-0.66 -1.21,-1.17 -1.66,-0.23 -0.58,1.21 -1.03,5.9 -2.83,6.07zm25.51 2.11l0.36 -0.76c-0.09,-0.35 -0.03,-0.28 -0.18,-0.54 -1.38,0.05 -1.49,1.3 -2.56,1.76 -1.37,0.59 -2.29,-0.32 -2.21,-1.73 0.08,-1.66 2.5,-4.88 3.43,-5.33 -0.11,1.86 -0.53,2.03 1.44,2.52 -0.41,-2.99 2,-3.51 2.16,-5.93 -1.32,-0.45 -1.53,-0.18 -2.21,0.85 -0.97,1.47 -0.94,0.25 -2.54,0.87 -1.51,0.59 -2.85,2.36 -3.58,3.8 -0.95,1.87 -1.44,4.31 0.45,5.43 0.91,0.54 1.89,0.57 3.13,0.46 1.06,-0.09 1.96,-0.62 2.33,-1.39zm-40.5 -8.94c-1.11,-0.16 -0.69,-0.45 -2.07,-0.45 -2.31,0 -1.41,0.92 -3.19,-0.23 -0.43,-0.28 -0.53,-0.28 -1.12,-0.27 -1.24,1.53 -0.34,1.17 -1.26,1.75 -0.92,0.58 -1.41,0.42 -1.98,1.26 0.47,0.74 0.63,0.77 1.53,0.99 -0.27,4.87 -1.35,2.38 -2.6,4.4 0.39,0.65 0.84,0.8 1.71,0.81 0.04,2.13 -0.34,4.99 1.98,4.49 -0.2,-1.6 -0.02,-4.94 0.69,-5.95 0.31,-0.44 1.16,-0.65 1.78,-0.91 0.7,-0.3 2.04,-0.49 2.24,-0.6 -0.22,-1.39 -2.29,-0.76 -3.45,-0.57 0.04,-0.84 0.27,-1.71 0.62,-2.47 0.26,-0.57 0.09,-0.41 0.78,-0.69 2.49,-0.99 2.54,-0.47 3.64,-0.35 0.97,0.1 0.63,0.2 0.85,0.41 0.74,0.71 0.1,0.17 0.93,0.53l1.08 -3.15c0,-0.53 -0.9,-0.83 -1.35,-0.56 -0.45,0.27 -0.6,1.05 -0.81,1.55zm3.5 5.66c0,-1.29 0.97,-3.19 1.73,-3.83 0.93,-0.79 3.87,-0.36 4.38,0.58 1.16,2.12 -2.98,5.68 -5.22,5.68 -0.93,0 -0.9,-1.54 -0.9,-2.43zm-1.89 -1.08c0,1.58 -0.22,2.26 0.51,3.16 0.53,0.66 0.57,0.3 0.75,1.24 -1.84,0.25 -1.37,2.25 0.43,1.66 1.91,-0.63 1.32,0.94 4.33,0.94 1.01,0 2.2,-0.68 2.07,-1.71 -1.2,-0.8 -0.93,1.03 -2.98,0.31 -0.81,-0.29 -0.5,-0.14 -0.79,-0.58 0.35,-0.87 1.5,-0.55 3.54,-2.13 0.78,-0.61 2.21,-2.4 2.21,-3.98 0,-0.99 -1.13,-1.88 -1.77,-2.26 -0.93,-0.55 -2.08,-0.89 -3.43,-0.89 -0.11,-0.72 0.12,-0.45 -0.09,-0.99 -1.36,-0.32 -2.07,0.19 -3.14,1.72 -0.41,0.59 -1.62,2.61 -1.62,3.49zm95.83 -1.08c-0.18,0.24 -0.98,0.9 -1.26,1.08 0.25,-1.09 0.51,-0.92 0.9,-1.08l-0.13 -0c0.24,-0.75 0.67,-0.99 1.16,-1.49 1.41,-1.41 4.15,-2.44 4.99,-1.48 0.88,2.11 -1.08,5.67 -1.97,6.85 -0.17,0.23 -4.31,5.01 -4.85,3.61l-0.16 -0.48c-0.14,-0.87 0.53,-2.72 0.83,-3.52 0.63,-1.69 1.78,-0.87 1.83,-3.13 -0.52,-0.42 -0.71,-0.5 -1.35,-0.36zm-2.35 8.45l1.09 -0.21 0.01 0.48c0.63,-0.56 3.41,-0.16 6.45,-4.07 5.26,-6.75 1.03,-9.27 -1.87,-9.03 -1.46,0.12 -2.83,0.94 -3.71,1.64 -0.88,0.7 -5.39,5.11 -2.21,6.24 -0.1,1.6 -1.06,3.63 0.45,4.49l-0.19 0.45zm-14.13 -8.27l-0.56 0.56c-0.36,0.33 -0.02,0.19 -0.56,0.34 0.14,-0.6 0.48,-1.11 0.9,-1.48 1.95,-2.39 6.38,-4.33 6.2,-1.22 -0.19,3.29 -2.61,6.56 -4.92,8.49 -0.19,0.16 -0.72,0.55 -0.94,0.67 -0.71,0.41 -1.16,0.48 -1.32,-0.37l0.21 -1.77c0.75,-3.26 1.41,-2.78 1.85,-3.24 0.75,-0.79 0.88,-2.6 -0.86,-1.98zm-2.65 3.78c0,1.38 -1.43,4.58 2.25,4.58 2.92,0 8.17,-5.69 8.17,-8.72l0 -1.08c0,-2.81 -5.56,-4.95 -9.47,-0.03 -3.8,4.78 -0.95,4 -0.95,5.24zm45.76 -4.13l-1.48 1.08c0.15,-0.55 0.67,-1.29 1.08,-1.66 1.39,-1.7 6.15,-4.54 6.12,-1.22 -0.01,1.01 -0.22,1.79 -0.58,2.68 -0.69,1.74 -1.48,3.09 -2.62,4.2 -0.96,0.94 -2.37,2.86 -3.91,2.56 -0.17,-1.57 0.19,-2.7 0.73,-4.1 0.51,-1.33 0.74,-0.96 1.19,-1.34 0.39,-0.33 0.65,-1.23 0.64,-1.83 -0.39,-0.33 -0.64,-0.56 -1.17,-0.36zm-3.91 1.98c0,0.87 0.27,1.24 1.08,1.53 -0.23,1.73 -1.21,4.94 1.89,4.94 3.32,0 8.53,-5.44 8.53,-9.53 0,-2.27 -3.9,-5.6 -8.85,-1.04 -0.56,0.51 -2.65,3.01 -2.65,4.09zm-178.27 10.43c0.19,0.12 0.21,0.15 0.41,0.23 0.4,0.16 -0.11,-0.16 0.27,0.07 0.29,0.17 0.31,0.41 0.45,0.78l0.28 0.47c0.48,-0.27 0.46,-0.44 0.94,-0.88 0.48,0.12 0.19,-0.12 0.36,0.4 0.02,-0.04 0.05,-0.15 0.06,-0.12 0.12,0.37 0.01,-0.16 0.3,-0.78 2.18,0 3.27,0.59 5.06,1.23 0.79,0.28 1.01,0.12 1.23,0.93 0.02,-0.04 0.04,-0.14 0.05,-0.12 0.13,0.38 -0.03,-0.11 0.31,-0.69 0.9,0.28 1.07,0.48 1.08,1.53 0.94,-0.45 1.43,0.45 2.51,0.54l0 0.54c1.14,-0.66 2.55,0.24 4.27,-0.9 -0.07,-0.52 -0.29,-0.66 -0.79,-1.15 -1.79,-1.74 -1.21,1.77 -9.3,-4.36 -1.29,-0.98 -3.48,-2.23 -5.52,-2.33 -1.3,-0.06 -2.07,0.49 -2.39,1.47 -0.28,0.85 -0.12,1.5 0.13,2.35l0.31 0.78zm23.2 5.39l-0.04 -0.54c1.07,-0 1.55,-0.16 2.34,-0.18l0.18 0.36 0.07 -0.99c0.56,-0.22 0.46,-0.18 1.19,-0.18l0 0.63c0.56,-0.59 0.37,-0.31 1.42,-0.38 1.73,-0.12 3.21,-0.68 5.05,0.2 0.12,0.53 0.18,0.55 0.18,1.26l0.18 -0.72c0.96,0.26 0.56,0.65 1.26,1.08l0.31 -0.54c0.27,-0.4 0.28,-0.39 0.4,-0.9 0.27,0.31 0.18,0.4 0.72,0.54 0.08,-0.76 1.52,-3.58 -1.13,-5 -3.41,-1.83 -7.69,1.44 -10.94,2.28 -3.33,0.86 -3.48,-0.58 -4.57,0.07 -0.27,0.16 -0.89,0.72 -1.06,0.94 0.68,0.73 2.01,1.32 3.11,1.56 0.87,0.19 0.77,0.18 1.32,0.51zm-4.52 -11.86c0.32,-0.45 1.05,-0.77 1.62,-0.9 -0.2,0.73 -0.84,1.27 -1.62,0.9zm-2.96 2.79c-0.45,-0.96 -0.24,-1.22 0.03,-2.24 0.5,-1.89 0.45,-1.51 1.4,-1.53 -0.15,0.52 -0.04,0.29 -0.29,0.61 -0.24,0.31 -0.04,0.11 -0.43,0.29 0,2.21 1.7,0.76 1.46,1.8 -0.03,0.13 -0.95,1.32 -2.18,1.08zm0.67 -7.28c-0.22,0.55 -0.61,0.85 -1.12,1.44 0.08,-0.91 0.28,-1.07 0.72,-1.66 0.83,-1.02 1.5,-1.95 2.62,-2.72 4.04,-2.76 6.44,-1.31 4.9,2.36 -0.78,1.85 -1.26,2.02 -2.04,3.19 -0.94,-0.27 0.02,-0.04 -0.62,-0.27 -1.06,-0.39 -1.09,0.27 -4.05,0.27 0.29,-1.76 0.57,-0.59 1.28,-1.42 0.26,-0.3 0.57,-1.24 0.56,-1.73 -1.05,-0.69 -1.6,0.01 -2.25,0.54zm8.89 0.18l0.04 -2.7c-1.01,-3.83 -6.47,-4.24 -10.89,1.51 -1.44,1.87 -1.42,2.83 0.02,3.79 -0.11,1.71 -1.23,3.7 0.25,4.79 1.5,1.1 3.51,0.23 4.65,-0.59 0.86,-0.62 0.88,-0.89 2.17,-0.51 0.99,0.29 1.55,0.51 2.38,0.86 4.45,1.93 2.49,1.89 3.03,2.87 0.88,-0.11 1.07,-0.86 0.61,-1.62 -0.82,-1.34 -4.27,-3.1 -5.55,-3.28 0.09,-1.35 0.63,-0.98 1.82,-2.5 0.52,-0.66 1.27,-1.5 1.46,-2.62zm150.11 0.81c-0.67,0.32 -1.51,0.48 -2.51,0.54 0.03,-1.66 2.48,-5.93 -0.09,-5.93 -0.73,0 -1.53,3.07 -1.77,3.89 -0.78,2.61 -0.32,4.28 -0.65,5.28 -0.72,0.3 -1.11,-0.2 -3.47,0.49l-1.67 0.43c-0.03,0 -0.1,-0.01 -0.13,-0.01 -0.03,0 -0.09,-0 -0.13,-0.01 -0.01,-0.04 -0.02,-0.16 -0.02,-0.14 -0,0.02 -0.02,-0.11 -0.02,-0.14 0.01,-3.06 4.63,-9.78 4.53,-11.05 -0.26,-0.17 -0.66,-0.39 -0.99,-0.54 -2.1,1.02 -4.41,7.74 -4.84,10.69 -0.08,0.58 -0.04,1.48 -0.1,1.9 -0.57,0.64 -1.29,0.58 -1.53,1.53 0.66,0.88 0.99,0.11 2.22,-0.31 1.53,-0.52 5.7,-1.89 7.19,-1.56 0.74,0.16 0.6,0.33 1.1,-0.21 -0.01,-0.32 -0.18,-0.14 -0.18,-2.07 0,-0.71 0.32,-0.46 1.17,-0.75 0.54,-0.19 0.85,-0.41 1.35,-0.15 -0.03,1.58 -0.72,8.59 1.8,7.1 -1.05,-4.36 1.95,-13.08 3.59,-16.36 -1.47,-2.22 -2.59,0.82 -3.13,2.09 -0.72,1.66 -1.23,3.27 -1.72,5.28zm-76.07 2.74c-0.14,0.29 -0.12,0.23 -0.18,0.63 1,1.17 2.46,-0.01 4.55,-0.87 0.5,-0.21 4.6,-1.53 4.88,-1.33 0.93,0.43 0.76,1.9 2.49,2.47 1.88,0.62 3.07,-0.31 4.33,-0.4 0.37,1.66 -0.58,3.2 1.26,3.33 0,-1.76 1.18,-6.29 1.77,-7.17 0.98,-1.43 0.44,0.7 0.72,1.32 0.23,0.5 0.76,0.6 0.87,1.05 0.23,0.89 -1.62,4.55 1.93,4.62 3.13,0.06 6.76,-3.94 7.9,-6.66 0.91,-2.17 1.01,-4.28 -0.85,-5.43 -4,-2.47 -7.91,1.64 -9.38,3.94 -1.53,0.03 -3.35,-0.38 -5.61,0.37 -0.87,0.29 -0.95,0.37 -0.77,1.21 0.67,0.14 2.26,-0.13 2.66,0.08 1.52,0.8 -4.17,4.88 -4.7,1.98 -0.55,-3.04 2.97,-7.19 4.56,-7.81 -0.03,0.89 -0.54,0.89 -0.45,1.89 0.71,-0.02 0.98,-0.48 1.36,-0.97 1.87,-2.38 -0.58,-2.54 -1.9,-2.31 -2.3,0.41 -4.11,3.28 -5.29,4.99 -0.68,-1.28 -3.8,0.18 -5.03,0.18 0.17,-0.37 1.5,-0.99 2.13,-1.31 0.38,-0.19 0.79,-0.42 1.2,-0.58 0.25,-0.1 0.45,-0.12 0.66,-0.21 0.91,-0.36 0.35,0.12 0.64,-0.51 -0.75,-1.39 -7.41,0.03 -8.13,1.08 0.52,1.73 2.21,0.54 3.68,0.45l-2.53 1.61c-1.79,1.23 -2.33,0.73 -1.96,2.16 2.1,0.63 5.92,-2.3 9.16,-2.52 -0.04,2.62 -0.77,1.78 -4.54,2.64 -2.04,0.46 -4.17,1 -5.43,2.08z"/>
   <g>
    <path class="fil2" d="M48.46 24.6c0,-0.71 0.7,-1.59 1.12,-1.93 1.25,-1.02 3.26,-0.99 4.48,0.1 1.37,1.22 0.74,2.98 0.68,3.99 -1.79,-0.15 -0.17,-1.8 -3.23,-0.18 0.08,0.91 0.5,0.79 0.72,1.62 -3,0 -3.77,-0.63 -3.77,-3.59zm17.78 -5.03c0.2,0.73 1.98,2 1.98,3.59 0,2.07 0.26,4.67 -3.05,4.67 -2.91,0 -3.54,-4.26 -1.8,-7.55 -0.47,0.01 -3.95,0.98 -4.31,2.52 -0.75,-0.06 -0.76,-0.37 -1.29,-0.86 -2.63,-2.41 -8.53,-1.98 -11.41,-0.34 -3.92,2.23 -3.71,8.39 5.33,8.39 1.31,0 1.33,-0.78 2.39,0.66 0.31,0.42 0.52,0.61 0.66,1.14 0.79,-0.02 2.24,-0.94 2.69,-1.44 -0.28,-1.04 -0.8,-0.47 -0.9,-1.62 1.24,-0.31 1.51,-1.53 2.51,-1.8 0.08,0.94 0.9,1.8 1.54,2.24 3.64,2.49 10.65,0.1 11.57,-3.85 0.59,0.31 0.23,-0.01 0.44,0.83 0.08,0.34 0.19,0.82 0.22,1.03 0.47,2.97 -0.06,2.87 1.04,2.76l8.1 -1.11c1.07,-0.16 1.39,0.11 1.92,-0.59 0.2,-0.27 0.79,-1.41 0.85,-1.84 -2.21,0 -7.04,0.9 -8.44,0.72l0 -1.26 6.11 -0.54c0.62,-2.68 0.35,-1.63 -4.5,-1.62 -1.9,0 -2.15,0.59 -2.15,-1.26l6.83 0c-0.07,-0.84 -0.32,-1.71 -1.15,-1.9 -0.75,-0.17 -3.82,-0.06 -4.78,-0.07 -0.83,-0 -1.04,-0.19 -2.51,-0.19 -0.84,0 -1.14,0.59 -1.98,0.72 -0.21,-0.9 -1.33,-2.57 -2.17,-2.64 -0.68,-0.06 -2.83,1.13 -3.75,1.21z"/>
    <path class="fil2" d="M158.38 17.32l-0.01 -0.48 -1.09 0.21c-0.91,0.38 -2.03,0.32 -2.86,0.72 -0.3,0.62 -0.37,1.59 -0.54,2.34 -0.56,-0.21 -0.73,-0.45 -1.25,-0.72 -3.66,-1.94 -9.7,0.12 -9.7,3.96l-0.36 0c-0.27,-1.15 -0.68,-2.74 -1.26,-3.6 -0.81,0.02 -1.51,0.31 -2.34,0.36 0.03,-1.27 1.16,-1.98 1.5,-3.29 -5.25,-0.14 -4.58,0.54 -7.01,5.51 -0.36,0.73 -0.87,2.27 -1.32,2.79 -0.4,-0.25 -3.29,-5.81 -4.49,-6.08 -0.7,0.06 -0.92,0.29 -1.46,0.51 -0.59,0.24 -1.09,0.31 -1.41,0.74 0.1,0.38 3.23,4.31 4.06,5.81 1.99,3.57 1.2,3.83 3.19,4.18 0.93,0.17 1.24,0.25 2.26,0.25 0.44,-1.87 2.52,-7.55 3.43,-8.79 0.26,-0.35 -0.03,-0.24 0.52,-0.38l1.33 5.32c0.28,1.32 -0.06,2.47 0.68,2.74 0.55,0.2 2.57,-0.23 3.02,-0.33 0,-1.26 -0.18,-1.72 -0.18,-2.88 0.58,0.39 1.13,1.54 2.26,2.23 2.17,1.33 4.92,1.69 7.44,1.38 0.78,-0.1 1.2,-0.21 1.84,-0.49l1.56 -0.78c0,1.54 0.08,1.39 1.23,1.83 0.74,0.28 1.34,0.69 2.36,0.69 0,-2.33 0.18,-4.25 0.18,-6.65 -1.33,-0.89 -1.17,-0.75 -3.02,-0.32 -1.12,0.26 -2.38,0.45 -3.57,0.73 -0.55,0.13 -3.7,0.32 -2.63,1.41 0.53,0.53 3.25,0.16 4.19,0.16 -0.06,0.69 -0.14,0.68 -0.62,1 -2.08,1.4 -6.35,0.86 -7.32,-3.49 -0.43,-1.93 0.79,-3.9 2.97,-3.33 1.53,0.4 2.87,2.52 3.18,3.67 0.84,-0.05 1.53,-0.37 2.3,-0.58 1.15,-0.31 1.33,-0.18 1.66,-1.39l1.25 -4.95z"/>
    <path class="fil2" d="M99.83 25.14c-0.81,-0.54 -5,-5.1 -6.77,-5.64 -0.59,-0.18 -2.54,0.69 -3.11,0.97l1.5 4.43c0.84,2.56 0.68,3.7 1.01,5.1 1.42,0 2.28,-0.45 3.41,-0.54 0,-1.33 -0.2,-3.4 -0.72,-4.49 0.71,0.06 0.91,0.39 1.29,0.87 0.39,0.5 0.72,0.83 1.05,1.28 1.13,1.58 0.91,1.4 1.61,2.88 0.99,0.03 1.9,-0.18 2.69,-0.36 0.22,-0.93 0.37,-1.94 0.64,-2.95 0.29,-1.09 0.78,-1.97 0.98,-2.8 1.2,0.88 1.57,5.67 1.92,6.65 0.73,-0.01 1.42,-0.22 2.05,-0.34 0.76,-0.15 1.6,-0.11 1.6,-0.92 0,-2.65 -1.79,-8.72 -3.18,-11.21 -0.51,-0.93 -0.64,-0.61 -2.44,-0.16 -1.42,0.36 -1.45,1.47 -2.11,3.28l-1.44 3.96z"/>
    <path class="fil2" d="M171.14 26.04c-1.29,0 0.32,-0.86 0.72,-2.34l0.54 0c0.19,0.8 0.72,1.49 0.9,2.16 -0.9,0.06 -0.29,0.18 -2.16,0.18zm-6.11 1.59l-0.75 -4.26c-0.12,-0.64 -0.33,-1.37 -0.53,-1.99 -0.46,-1.47 -0.26,-0.9 -0.88,-1.82 -0.39,0.19 -2.65,0.58 -3.23,0.72l1.21 4.18c0.18,0.78 0.3,1.49 0.48,2.22 0.11,0.44 0.29,2.13 0.29,2.58 0.99,0.33 2.07,-0.33 3.03,0.01 0.59,0.21 2.08,1.07 2.72,1.07 0.84,0 1.87,-2.7 2.87,-2.7 4.17,0 3.3,-0.36 4.41,1.15 1.25,1.7 0.77,1.72 5.29,1.72l-3.15 -5.84c-0.5,-0.99 -0.92,-2.1 -1.34,-3.15 -1.34,-3.32 0.16,-3.52 -3.22,-2.86 -1.91,0.37 -1.45,-0.14 -2.52,2.16l-2.49 4.34c-0.36,0.53 -0.57,0.77 -1,1.33 -0.18,0.23 -0.34,0.47 -0.46,0.63 -0.37,0.46 -0.07,0.37 -0.73,0.49z"/>
    <path class="fil2" d="M121.74 26.22c-2.17,0 -7,1.06 -8.44,0.72l0 -1.26 6.17 -0.54c0.98,-2.77 -0.62,-1.59 -3.83,-1.62l-2 0.09c-0.86,-0.06 -0.77,-0.31 -0.84,-0.7 -0.08,-0.47 0.03,-0.65 0.5,-0.65l4.49 0c0.56,0 0.5,0.18 1.26,0.18 1.08,0 0.53,-2.16 -0.9,-2.16l-7.18 0c-0.53,0 -2.07,0.79 -2.26,1.18 -0.25,0.49 0.5,2.16 0.64,2.79 0.42,1.95 0.63,2.72 0.71,4.68 0.05,1.29 0.67,0.94 4.05,0.42l6.33 -0.86c0.66,-0.24 1.26,-1.55 1.32,-2.27z"/>
    <path class="fil2" d="M6.79 21.91c0.19,2.3 2.1,3.63 4.12,4.14 2.81,0.71 4.63,0.15 6.47,-1.09l0 -0.54c-1.09,-0.09 -1.57,-0.99 -2.51,-0.54 -0.13,1.61 -2.87,2.07 -2.87,-0.54 0.7,0.06 0.47,0.16 1.24,0.17l0.2 -0.35c-0.22,-0.81 -0.43,-0.65 -1.23,-0.93 -1.79,-0.63 -2.88,-1.23 -5.06,-1.23 -0.29,0.61 -0.18,1.15 -0.3,0.78 -0.01,-0.03 -0.03,0.08 -0.06,0.12z"/>
    <path class="fil2" d="M31.04 25.32c0.3,0.8 0.64,0.72 1.62,0.72 -0,1.11 -0.47,1.81 -1.49,1.51 -0.76,-0.23 -1.31,-0.82 -1.38,-1.69l-0.18 -0.36c-0.79,0.02 -1.27,0.18 -2.34,0.18l0.04 0.54c0.43,0.47 0.46,0.54 1.01,0.94 1.51,1.12 2.19,1.36 4.14,1.79 2.46,0.54 5.06,-0.35 5.24,-2.55 0,-0.71 -0.06,-0.73 -0.18,-1.26 -1.84,-0.88 -3.32,-0.32 -5.05,-0.2 -1.04,0.07 -0.85,-0.21 -1.42,0.38z"/>
   </g>
  </g>
 </g>
</svg>
