<?xml version="1.0" encoding="UTF-8"?>
<!DOCTYPE svg PUBLIC "-//W3C//DTD SVG 1.1//EN" "http://www.w3.org/Graphics/SVG/1.1/DTD/svg11.dtd">
<!-- Creator: CorelDRAW -->
<svg xmlns="http://www.w3.org/2000/svg" xml:space="preserve" width="13.6186mm" height="14.6829mm" version="1.1" style="shape-rendering:geometricPrecision; text-rendering:geometricPrecision; image-rendering:optimizeQuality; fill-rule:evenodd; clip-rule:evenodd"
viewBox="0 0 40.43 43.59"
 xmlns:xlink="http://www.w3.org/1999/xlink"
 xmlns:xodm="http://www.corel.com/coreldraw/odm/2003">
 <defs>
  <style type="text/css">
   <![CDATA[
    .fil0 {fill:black}
    .fil2 {fill:red}
    .fil1 {fill:white}
   ]]>
  </style>
 </defs>
 <g id="Camada_x0020_1">
  <metadata id="CorelCorpID_0Corel-Layer"/>
  <g id="Figs_Desenho_SemVar_008">
   <path class="fil0" d="M40.43 26.23l0 2.42c-0.37,4.51 -2.79,8.9 -6.25,11.6 -1.25,0.97 -4.36,2.79 -5.84,2.83 -1.21,0 -4.31,1.17 -8.53,-0.02 -6.19,-1.75 -11.22,-7.82 -11.68,-13.89 -0.14,-1.84 -0.06,-3.96 0.49,-5.7 0.58,-1.84 -0.36,-1.78 0.07,-3.17 -0.17,-0.14 -0.36,-0.3 -0.53,-0.48 -0.52,0.21 -1.1,0.55 -1.5,0.72l-2.13 0.86c-1.01,0.53 -4.43,1.12 -4.53,-0.95l0.04 -2.15c0.26,-1.83 0.53,-1.51 0.71,-2.18 -0.08,-0.17 -0.1,0.04 0.04,-0.19 0.66,-1.14 5.48,-1.64 7.09,-1.99 1.72,-0.38 1.83,-0.69 2.29,-0.81 1.13,-0.3 1.26,-2.94 2.34,-5.36 0.52,-1.15 1.66,-2.75 1.72,-2.98 0.28,-0.19 0.54,-0.38 0.64,-0.75 0.53,-0.79 1.46,-1.48 2.25,-2.03 2.99,-2.11 6.65,-2.52 10.07,-1.4l0.98 0.22c1.48,0 1.78,-1.24 2.93,-0.08 0.22,0.22 0.38,0.36 0.53,0.64 1.07,1.89 0.84,-0.82 4.23,3.37 0.68,0.84 1.26,1.66 1.89,2.5 0.31,0.41 0.68,0.76 1.03,1.22 1.1,1.44 1.22,3.49 1.02,5.32 -0.15,1.4 -0.1,2.73 -0.24,4.14 -0.12,1.23 -0.81,2.3 -0.37,3.6 0.63,1.83 1.04,2.45 1.24,4.7z"/>
   <path class="fil1" d="M27.38 32.06c0.04,-0.21 0.44,-0.86 -0.56,-0.68 -5.01,0.91 -4.72,-0.14 -4.69,1.43l-0.14 4.37c-0.06,0.69 0.09,0.66 0.69,0.65 0.32,-0.01 0.87,0.04 1.34,-0.03 3.32,-0.5 2.59,0.31 3.02,-3.07 0.09,-0.7 0.19,-0.58 0.23,-1.27 0.01,-0.26 0.06,-1.17 0.1,-1.39zm3.89 5.63c0.56,0.03 1.01,-0.74 0.89,-1.43 -0.66,0.09 -1.01,0.54 -0.89,1.43zm-19.29 -7.34c-0.33,0.33 0.55,2.89 0.98,2.47 0.13,-0.13 0.38,-1.97 -0.34,-2.36 -0.16,-0.08 -0.52,-0.23 -0.64,-0.1zm3.84 6.43c-0.52,-0.41 -1.43,-1.3 -2.02,-1.41 0,0.98 0.55,1.44 1.24,1.97 0.21,0.16 1.65,1.86 1.65,0.92 0,-1.03 -0.39,-1.11 -0.87,-1.48zm14.77 0.31c-0.38,0.03 -2.22,0.87 -2.61,1.13 -0.33,0.22 -0.2,0.03 -0.31,0.44 -0.02,0.06 -0.11,0.87 -0.02,1.04 0.15,0.27 0.08,0.2 0.98,-0.19 1.36,-0.59 2.11,-0.96 1.96,-2.43zm1.39 -2.99c0.95,-0.08 1.01,-1.22 1.22,-2.1 0.22,-0.96 0.39,-1.8 0.39,-2.93 -0.36,0.03 -0.79,0.29 -1.11,0.49 -0.41,0.26 -0.23,0.06 -0.42,1.29 -0.13,0.87 -0.07,2.19 -0.07,3.24zm-12.01 6.23c0.34,0.1 0.58,0.19 1.1,0.19 0.2,-2.53 0.39,-1.04 -2.41,-2.29 -1.43,-0.64 -1.22,-0.08 -1.22,0.58 0,0.93 1.15,1.05 2.54,1.52zm2.17 -0.78c0,0.54 0.17,0.57 0.21,1.07 1.07,0.25 2.74,0.26 3.77,-0.22l-0.13 -1.49c-1,0 -1.68,0.32 -3.85,0.32l0 0.32zm-8.45 -8.13c0,2.6 -0.33,2.53 1.71,3.96 1.55,1.09 1.18,-0.11 1.18,-3.85 -1.17,-0.03 -2.89,-0.9 -2.89,-0.11zm14.01 5.45c0.54,0 0.6,-0.06 0.95,-0.22 2.7,-1.27 2.1,-1.16 2.39,-3.38 0.05,-0.36 0.07,-0.59 0.08,-1.1 0.03,-1.92 0.81,-2.17 -1.98,-1.23 -0.33,0.11 -0.46,0.19 -0.8,0.27 0,0.89 -0.42,4.7 -0.64,5.67zm-6.63 0.64c0,-0.62 0.09,-0.73 0.11,-1.28l0.11 -3.1c0,-0.59 -0.11,-0.63 -0.11,-1.18 -1.45,-0.12 -2.02,-0.21 -3.64,-0.21 -0.01,0.48 -0.11,0.43 -0.11,0.96l0 3.32c0,0.46 0.13,0.54 0.47,0.7 0.91,0.44 2.12,0.79 3.16,0.79z"/>
   <path class="fil2" d="M11.55 19.22c0.41,0.61 3.68,2.88 4.64,3.59 0.67,0.49 2.59,1.7 3.27,1.76 0.19,-0.4 -0.04,-0.75 0.43,-0.75 0.21,0 0.42,0.28 0.96,0.32l0.43 -0.53c1.01,0.53 0.12,1.6 1.05,1.54 0.49,-0.03 0.99,-0.69 1.45,-1.19 0.28,-0.31 0.36,-0.22 0.39,-0.68 -3.49,0 -3.35,-0.18 -5.92,-1.35l-4.54 -2.84c-1.64,-1.05 -1.66,-0.91 -2.16,0.13zm22.89 6.74c0.86,-0.48 2.21,0.6 2.25,2.03 -0.49,-0.13 -0.25,-0.29 -0.86,-0.43 -0.1,0.22 -0.73,5.73 -1.44,7.33 -0.92,2.1 -1.35,3.76 -3.61,5.27 -2.26,1.51 -3.9,2.05 -6.93,2.05 -1.36,0 -3.7,-0.8 -4.97,-1.23l-2.1 -1 -3.33 -2.87c-1.34,-1.31 -2.32,-5.11 -2.32,-6.98 -0.22,-0.12 -0.25,-0.15 -0.53,-0.21 0.02,-0.76 0.77,-1.01 1.09,-1.01 0.69,0.01 -0.01,0.37 0.75,0.66 1.13,0.44 3.29,0.89 4.5,1.07l7.53 -0.02c1.96,-0.33 4.56,-0.64 6.43,-1.27 1.09,-0.36 3.64,-1.61 4.2,-2.43 -0.16,-0.59 -0.18,-0.08 -0.64,-0.96zm4.18 -4.18c-0.39,-0.88 -0.1,-0.43 -0.97,-0.64 -0,-0.05 -0.26,-1.53 -0.27,-1.55 -0.16,-0.39 -0.8,-0.48 -1.34,-0.48l-0.05 0.97c0,0.36 0.05,-0.16 0.05,0.32 0,2.25 -1.79,4.65 -3.8,5.5 -5.02,2.12 -8.66,0.24 -9.67,0.81l1.82 1.07 0 0.32c-0.93,0 -2.65,-0.62 -3.43,-1.06 -1.45,-0.82 -1.73,0.08 -2.56,0.1 0.12,-0.44 0.15,-0.25 0.4,-0.57 1.46,-1.84 -4.94,0.9 -7.97,-3.2 -0.65,-0.91 -0.28,-0.8 -0.77,-0.94 -0.53,0.39 -0.58,1.49 -0.74,2.26 -0.41,1.96 -0.26,4.42 0.18,6.32 0.82,3.59 3.88,7.8 7.14,9.44 0.7,0.35 0.76,0.48 1.47,0.77 1.72,0.71 3.79,1.31 6.17,1.31 2.43,0 5.74,-0.79 7.6,-1.92 2.04,-1.24 3.64,-2.51 4.99,-4.42 0.47,-0.75 0.66,-0.89 1.12,-1.77l1.31 -3.29c0.76,-2.78 0.48,-6.72 -0.68,-9.35z"/>
   <path class="fil1" d="M18.07 25.53c-0.09,-0.81 -0.67,-0.24 -1.76,-0.48 -1.28,-0.28 -0.44,-1.17 -1.59,-1.94 -0.54,-0.36 -1.8,-1.29 -2.21,-1.32 0,2.66 3.06,3.74 5.56,3.74zm10.91 -3.85c0,1 1.28,0.43 1.28,0.43 0,-0.94 -0.09,-0.86 -0.96,-0.86 -0.08,0.12 -0.32,0.36 -0.32,0.43zm-0.11 1.82c-2.6,0 -1.58,-0.68 -4.46,1.64 -0.32,0.26 -0.56,0.4 -0.75,0.75 1.08,0.46 3.96,0.46 5.39,0.26 5.67,-0.78 5.96,-5.83 4.95,-7.35 -2.89,1.78 -1.61,0.86 -2.34,2.58 -0.53,1.27 -1.26,2.12 -2.8,2.12zm-4.38 -11.23c1.38,0.03 6.83,1.72 7.62,2.33 0.88,0.67 -0.11,2.16 -0.45,2.16 -1.15,0 -2.85,-0.54 -3.9,-0.91l-3.64 -1.38c-0.77,-0.49 -0.25,-1.6 0.38,-2.2zm3.53 -11.12l-0.96 -0.21c-2.36,0 -4.98,-2.28 -10.7,2.14 -2.24,1.73 -4.81,6.19 -4.81,9.09 2.94,0 7.29,1.27 9.95,2.25 2.22,0.82 10.54,3.71 12.08,3.74 0.57,-1.18 0.24,-6.43 -0.03,-8.52l-1.25 -7.14c-0.39,-0.01 -3.97,-1.12 -4.28,-1.34zm-1.6 13.58c0.83,0.22 1.28,0.86 2.89,0.86 0.3,0 0.19,-0.05 0.33,-0.21 1.11,-1.28 -1.85,-1.93 -2.68,-1.93 -0.58,0 -0.53,0.7 -0.53,1.28zm-25.67 1.39c-0.11,0.41 -0.69,0.99 -0.75,2.6l0.12 2.31c0.61,1.33 3.71,0.86 4.48,0.33 -0.25,0.01 -3.98,1.11 -4.36,-0.88 -0.38,-2 0.48,-3.53 1.67,-4.06 1.94,-0.87 5.46,-0.35 7.12,0.51 0.91,0.47 2.09,0.75 1.85,1.26 0.08,-0.01 0.15,-0.03 0.23,-0.03 0.17,-0.22 0.3,-0.35 0.33,-0.75 -2.34,-0.97 -5.58,-2.67 -8.21,-2.22 -0.87,0.15 -1.74,0.54 -2.49,0.94z"/>
  </g>
 </g>
</svg>
