<?xml version="1.0" encoding="UTF-8"?>
<!DOCTYPE svg PUBLIC "-//W3C//DTD SVG 1.1//EN" "http://www.w3.org/Graphics/SVG/1.1/DTD/svg11.dtd">
<!-- Creator: CorelDRAW -->
<svg xmlns="http://www.w3.org/2000/svg" xml:space="preserve" width="10.6847mm" height="14.683mm" version="1.1" style="shape-rendering:geometricPrecision; text-rendering:geometricPrecision; image-rendering:optimizeQuality; fill-rule:evenodd; clip-rule:evenodd"
viewBox="0 0 18.41 25.29"
 xmlns:xlink="http://www.w3.org/1999/xlink"
 xmlns:xodm="http://www.corel.com/coreldraw/odm/2003">
 <defs>
  <style type="text/css">
   <![CDATA[
    .fil0 {fill:black}
    .fil2 {fill:#FF0063}
    .fil3 {fill:#FFCC00}
    .fil1 {fill:white}
   ]]>
  </style>
 </defs>
 <g id="Camada_x0020_1">
  <metadata id="CorelCorpID_0Corel-Layer"/>
  <g id="Figs_Desenho_VarCor_013">
   <path class="fil0" d="M15.28 0.58c0.03,-0.3 -0.06,-0.54 -0.4,-0.55 -1.07,-0.04 -2.13,-0.02 -3.19,-0.03 -0.21,-0 -0.3,0.03 -0.48,0.03 -0.16,0 -0.35,-0.01 -0.51,-0 -0.16,0.01 -0.27,0.03 -0.48,0.03 -0.91,-0.01 -2.64,0.29 -3.54,0.52l-0.81 0.21c-0.37,0.11 -0.39,0.14 -0.88,0.14 -0.01,0.09 -0.04,0.24 -0.06,0.33 -0.16,0 -0.18,0.06 -0.3,0.06 -0.22,0 -0.59,-0.1 -0.65,0.07 -0.04,0.12 -0,0.23 -0.06,0.33 -0.05,0.08 -0.15,0.11 -0.27,0.11 -0.24,0 -0.29,-0.21 -0.54,-0.21 -0.17,0 -0.06,0.48 -0.06,0.54 -0.24,-0.06 -0.14,-0.21 -0.45,-0.21 -0.04,0.17 0.01,0.2 -0.03,0.39 -0.48,0 -0.35,-0.07 -0.89,0.25 -0.88,0.52 -2.24,1.36 -1.48,2.56 0.06,0.1 0.12,0.17 0.18,0.27l0.37 0.56c0.04,0.06 0.06,0.08 0.1,0.14l0.67 0.91c0.32,0.41 0.71,0.8 1.13,1.11 0.09,0.07 0.17,0.12 0.26,0.19 0.1,0.07 0.17,0.1 0.19,0.26 -0.12,0.03 -0.26,0.18 -0.27,0.33 0.17,0.09 0.15,0.03 0.34,0.08 0.12,0.03 0.41,0.28 0.82,0.37 -0.04,0.06 -0.07,0.09 -0.13,0.14 -0.06,0.06 -0.08,0.06 -0.13,0.1 -0.11,0.1 -0.11,0.22 -0.19,0.32 -0.11,0.13 -0.04,0.02 -0.19,0.08 -0.15,0.07 -0.04,0.2 -0.17,0.3 -0.42,0.34 -0.42,0.38 -0.75,0.77 -0.11,0.13 -0.24,0.27 -0.2,0.46 0.42,0 0.68,-0.18 1.07,-0.18 0,0.23 -0.07,0.43 -0.13,0.62 -0.06,0.2 -0.11,0.33 -0.15,0.59 -0.05,0.3 -0.02,0.69 -0.08,1.02 -0.03,0.16 -0.07,0.06 -0.24,0.06 -0.57,0 -0.24,0.24 -0.21,0.36 -0.07,0.1 -0.36,0.21 -0.36,0.33 0,0.3 0.33,0.19 0.51,0.18 -0.01,0.15 -0.55,0.63 -0.65,0.81 -0.14,0.25 -0.3,0.77 -0.3,1.16 0,0.63 0.39,1.15 0.75,1.61l0.75 0.77c0.25,0.21 0.63,0.42 0.83,0.66 -0.13,0.24 -0.48,0.51 -0.68,0.72 -0.35,0.37 -0.55,1.1 -0.27,1.57 0.22,0.37 0.7,0.56 1.16,0.57 0.01,0.24 0.24,0.5 0.39,0.6 0.49,0.32 1.12,0.29 1.66,0.11 0.19,-0.06 0.43,-0.12 0.62,-0.16 0.83,-0.18 1.56,-0.26 2.4,-0.38l3.09 -0.11c0.97,0 1.56,0.11 2.19,0.79 0,0 0.01,0.01 0.01,0.02 0.22,0.24 0.36,0.5 0.47,0.82 0.1,0.3 0.09,0.65 0.1,0.97 0,0.14 0.01,0.3 0.18,0.24 0.2,-0.08 0.64,-0.92 0.73,-1.09 0.58,-1.11 0.35,-1.36 0.38,-2.4 0.01,-0.49 0.2,-0.47 0.51,-0.75 0.15,-0.13 0.26,-0.31 0.34,-0.49 0.13,-0.29 0.05,-0.63 -0.09,-0.89 -0.28,-0.55 -0.44,-0.25 0.15,-1.16l0.44 -0.7c0.46,-0.73 0.59,-1.15 0.59,-2.07 0,-0.54 -0.58,-1.47 -0.95,-1.83 -0.16,-0.16 -0.34,-0.29 -0.46,-0.47 0.36,0 0.27,-0.25 0.09,-0.3 0,-0.18 0.05,-0.18 0.06,-0.33l-0.24 -0.12 0 -0.42c-0.13,-0.08 -0.03,-0.09 -0.24,-0.09 -0.04,-0.18 -0.11,-0.4 -0.18,-0.57 -0.06,-0.15 -0.16,-0.39 -0.18,-0.57l0.57 0.12c0.66,0.11 0.46,0.05 0.3,-0.66 0.07,-0.04 0.15,-0.07 0.15,-0.18 0,-0.1 -0.22,-0.49 -0.29,-0.61 -0.16,-0.29 0.06,-0.22 -0,-0.42 -0.11,-0.33 -0.23,0.15 0.29,-1.15l0.34 -0.97c0.1,-0.31 0.22,-0.72 0.26,-1.05 0.1,-0.93 0.19,-1.59 -0.24,-2.45 -0.33,-0.66 -0.82,-1.21 -1.43,-1.62 -0.82,-0.55 -1.05,-0.24 -1.05,-0.53l0.07 -0.94z"/>
   <path class="fil1" d="M5.69 17.49c0.2,0 0.3,0.08 0.51,0.09 0.2,0.01 0.43,-0 0.63,-0 -0.2,0.29 -0.91,0.24 -1.13,-0.09zm9.88 -11.67c0.04,-0.17 0.27,-0.3 0.4,-0.41 0.13,-0.12 0.39,-0.39 0.53,-0.28 -0.17,0.25 -0.55,0.41 -0.6,0.6 0.05,0.01 0.23,0.07 0.27,0.09 -0.13,0.19 -0.32,0.23 -0.51,0.51 0.07,0.02 0.07,0.02 0.15,0.03 -0.01,0.13 -0.02,0.1 -0.1,0.16 -0.11,0.09 -0.3,0.25 -0.43,0.28 0.08,-0.12 0.25,-0.18 0.27,-0.36 -0.11,-0.03 -0.1,-0.02 -0.15,-0.09 0.02,-0.08 0.04,-0.08 0.11,-0.13l0.25 -0.2c0.02,-0.02 0.04,-0.04 0.06,-0.06 0.02,-0.03 0.01,-0 0.03,-0.06 -0.08,-0.04 -0.15,-0.08 -0.27,-0.09zm-0.66 -0.45c0.17,0 0.2,0.06 0.33,0.09 -0.02,-0.25 -0.11,-0.59 -0.12,-0.84 0.25,0.06 0.2,0.25 0.23,0.49 0.03,0.2 0.07,0.43 0.07,0.62 -0.24,-0.02 -0.35,-0.24 -0.31,0.04 0.02,0.18 0.08,0.36 0.08,0.53 -0.26,-0.06 -0.24,-0.14 -0.24,0.36l-0.03 0c0,-0.17 -0.08,-0.5 -0.12,-0.66 0.13,0.01 0.1,0.03 0.21,0.06 0,-0.23 -0.04,-0.49 -0.09,-0.69zm0.9 3.34c0.07,0 0.35,-1 0.38,-1.11 0.06,-0.18 0.12,-0.39 0.18,-0.57l0.36 -1.13c0.22,-0.68 0.48,-1.31 0.48,-2 0,-0.45 -0.49,-0.96 -0.8,-1.23l-0.6 -0.41c-0.22,-0.11 -0.44,-0.21 -0.78,-0.21 -0.09,0 -0.09,0.11 -0.12,0.18l-0.2 0.66c-0.09,0.32 -0.17,0.6 -0.25,0.91 -0.22,0.84 -0.53,1.91 -0.24,2.84 0.08,0.24 0.22,0.5 0.24,0.59 0.27,0 0.28,-0.1 0.45,-0.15 -0.02,0.2 -0.11,0.15 -0.18,0.45 0.23,0.15 -0.01,0.15 0.54,0.15 -0.03,0.34 -0.39,0.39 -0.45,0.6 0.2,0.02 0.38,0.11 0.53,0.19 0.12,0.06 0.31,0.23 0.46,0.23zm0.42 1.79c-0.15,0 -0.18,-0.03 -0.36,-0.03 0.05,0.19 0.24,0.17 0.43,0.2 0.63,0.1 0.68,0.29 0.47,-0.23 -0.11,-0.28 -0.32,-0.78 -0.63,-0.87 -0.22,-0.06 -0.19,0 -0.19,0.03 -0.03,0.13 0.26,0.7 0.28,0.9zm-9.91 -3.31c-0.66,0 -0.97,-0.3 -1.22,-0.36 0,0.28 0.18,0.74 0.41,0.74 0.1,-0 0.28,-0.14 0.4,-0.19 0.15,-0.06 0.32,-0.08 0.41,-0.19zm-1.73 1.34c-0.16,0 -0.27,0.03 -0.4,0.05 -0.25,0.04 -0.1,0.04 -0.05,0.22 -0.07,0.05 -0.13,0.07 -0.18,0.15 0.08,0.04 0.18,0.06 0.3,0.06 0.31,0 0.53,-0.04 0.54,-0.48l-0.21 0zm-0.39 1.16c0.2,-0.05 0.33,-0.14 0.33,-0.39 -0.1,0.04 -0.01,-0.04 -0.1,0.08 -0.13,0.19 -0.15,0.15 -0.23,0.31zm-1.19 1.31c0.17,-0.08 0.57,0.03 0.7,-0.1 0.03,-0.03 0.24,-0.47 0.25,-0.53 -0.06,-0.03 -0.09,-0.06 -0.18,-0.06 -0.04,0 -0.76,0.44 -0.78,0.69zm3.37 6.24c-0.32,0 -0.93,-0.05 -1.01,-0.42 0.23,0.12 0.66,0.27 1.01,0.27 0.4,0 0.56,-0.26 0.87,-0.33 -0.17,0.32 -0.46,0.48 -0.87,0.48zm6.81 -0.54c0.2,0 0.3,0.08 0.51,0.09 0.19,0.01 0.4,-0 0.6,-0 -0.22,0.21 -0.22,0.18 -0.6,0.18 -0.21,0 -0.4,-0.12 -0.51,-0.27zm0.75 -0.24c-0.32,0 -0.47,0.01 -0.76,-0.11 -0.17,-0.07 -0.3,-0.13 -0.34,-0.31 0.29,0.08 0.21,0.24 1.07,0.24 0.16,0 0.31,-0.05 0.43,-0.11 0.14,-0.07 0.22,-0.15 0.38,-0.19 -0.16,0.3 -0.49,0.48 -0.78,0.48zm2.21 -2.36c0.13,-0.19 0.09,0.04 0.21,-0.21 0.22,0 0.36,-0.01 0.45,0.12 -0.15,0 -0.24,0.06 -0.39,0.06 0.05,0.2 0.12,0.07 0.18,0.33l-0.24 0c-0.03,0.13 -0.02,0.12 -0.18,0.12 0.08,-0.12 0.02,-0.06 0.08,-0.19l0.03 -0.06c0.01,-0.02 0.02,0 0.04,-0.05 -0.09,-0.05 -0.12,-0.04 -0.18,-0.12zm-12.57 -0.96c0,0.11 0.01,0.11 -0.12,0.12 -0.12,-0.15 0.01,-0.18 0.12,-0.12zm-0.06 -0.39c0.15,0 0.15,0 0.15,0.15 -0.07,0.02 -0.07,0.02 -0.15,0.03l0 -0.18zm0.27 -0.12c0,-0.05 0.08,-0.07 0.12,-0.09 0.15,0.23 -0.05,0.19 -0.12,0.15l0 -0.06zm-0.06 -0.18c0,0.07 -0.08,0.06 -0.15,0.06 -0.03,-0.12 -0.03,-0.06 0,-0.18 0.08,0.02 0.15,0.02 0.15,0.12zm11.22 -0.09c0,-0.19 0.06,-0.31 0.12,-0.45 0.05,-0.11 0.09,-0.29 0.18,-0.36 0,0.19 0,0.23 -0.04,0.38 -0.22,0.91 0.48,0.58 0.48,0.42 0,-0.36 -0.2,-0.34 -0.12,-0.51 0.09,0.06 0.31,0.33 0.31,0.5 -0.01,0.59 -0.94,0.55 -0.94,0zm-7.01 -0.21c0.11,-0.07 0.07,-0.11 0.21,-0.12 -0.05,0.09 -0.07,0.18 -0.12,0.27 0.12,-0.01 0.1,-0.02 0.18,-0.09l0.05 -0.04c0,-0 0.01,-0.01 0.02,-0.01 0.17,-0.14 0.18,-0.19 0.39,-0.3 0,0.27 -0.1,0.41 -0.15,0.63 0.13,-0.03 0.19,-0.09 0.3,-0.15 -0.03,0.11 -0.27,0.34 -0.37,0.44l-0.24 0.27c-0.66,0.78 -0.77,0.65 -0.3,1.15 0.1,0.11 0.21,0.28 0.28,0.41l0.45 0.96c-0.11,-0.07 -0.13,-0.18 -0.27,-0.27l0.03 0.18c-0.08,-0.05 -0.14,-0.1 -0.21,-0.15 0.05,0.21 0.2,0.39 0.21,0.6 -0.11,-0.03 -0.23,-0.14 -0.34,-0.2 -0.24,-0.15 -0.05,0.04 -0.11,0.17l-0.9 -1.46c-0.22,0.06 -1.03,1.18 -1.28,1.44 -0.1,0.11 -0.3,0.39 -0.48,0.44l0.18 -0.45c0.02,-0.05 0.03,-0.13 0.05,-0.17 -0.15,0.02 -0.29,0.21 -0.41,0.29 0.02,-0.22 0.14,-0.29 0.18,-0.54 -0.15,0.04 -0.12,0.08 -0.27,0.12l1.26 -1.75c0.26,-0.29 0.27,-0.22 0.02,-0.6 -0.17,-0.26 -0.6,-0.84 -0.62,-1.08 0.23,0.15 0.29,0.29 0.45,0.33 -0.01,-0.12 -0.1,-0.3 -0.15,-0.39 0.13,0.03 0.15,0.14 0.39,0.27 -0,-0.16 -0.05,-0.16 -0.06,-0.3 0.12,0.09 0.42,0.66 0.65,0.83 0.09,-0.04 0.34,-0.35 0.45,-0.45l0.48 -0.45c0.09,-0.09 0.21,-0.26 0.34,-0.29 -0.12,0.18 -0.26,0.32 -0.27,0.48zm3.4 -0.66c0.13,0.03 0.49,0.47 0.76,0.7l0.13 0.11c0.09,0.09 0.21,0.22 0.28,0.32 0.3,-0.2 0.49,-0.72 0.66,-0.78 -0.02,0.1 -0.05,0.13 -0.06,0.24 0.35,-0.18 0.2,-0.22 0.39,-0.24 -0.06,0.11 -0.09,0.24 -0.15,0.36 0.24,-0.06 0.29,-0.28 0.48,-0.33 -0.06,0.25 -0.25,0.52 -0.38,0.72 -0.11,0.16 -0.25,0.32 -0.34,0.49 -0.04,0.08 -0.04,0.11 -0.11,0.18 0.07,0.13 0.24,0.31 0.35,0.44l0.18 0.23c0.27,0.37 0.43,0.68 0.77,1.11 0.07,0.09 0.13,0.17 0.19,0.26 -0.09,-0.02 -0.18,-0.1 -0.27,-0.15 0,0.24 0.1,0.3 0.15,0.51 -0.19,-0.05 -0.2,-0.19 -0.39,-0.24 0.01,0.1 0.19,0.53 0.24,0.63 -0.4,-0.09 -1.41,-1.77 -1.76,-1.88l-0.23 0.34c-0.11,0.18 -0.63,0.98 -0.64,1.12l-0.06 0c0,-0.14 0.02,-0.12 0.03,-0.24 -0.16,0.04 -0.26,0.22 -0.45,0.24 0.02,-0.22 0.17,-0.36 0.18,-0.57 -0.11,0.07 -0.07,0.11 -0.21,0.12 0.03,-0.06 0.04,-0.07 0.06,-0.15 -0.2,0.11 -0.18,0.26 -0.33,0.3l0.49 -0.98c0.14,-0.29 0.53,-0.61 0.59,-0.88l-0.46 -0.54c-0.2,-0.24 -0.61,-0.59 -0.73,-0.82 0.16,0.04 0.11,0.09 0.28,0.12 -0.04,-0.24 -0.15,-0.38 -0.16,-0.63 0.39,0.21 0.33,0.28 0.63,0.48 -0.01,-0.12 -0.07,-0.21 -0.12,-0.3 0.14,0.03 0.11,0.05 0.21,0.12 -0.01,-0.13 -0.08,-0.2 -0.13,-0.32l-0.03 -0.06c-0,-0.01 -0.01,-0.03 -0.02,-0.04zm4.45 -0.15c0.13,0 0.15,0.07 0.09,0.18 -0.06,0 -0.12,0.01 -0.12,-0.09 0,-0.06 0.01,-0.05 0.03,-0.09zm-0.18 -0.12l0 0.15c-0.1,0.01 -0.15,0.06 -0.15,-0.06 0,-0.1 0.05,-0.09 0.15,-0.09zm0.21 -0.09c0,0.06 -0.01,0.05 -0.03,0.09l-0.12 -0.03 0 -0.12 0.12 -0.03c0.04,0.08 0.03,-0.02 0.03,0.09zm-0.45 -0.36c0.17,-0.02 0.14,-0.05 0.3,0.03 0,0.14 -0.02,0.38 -0.23,0.26 -0.13,-0.07 -0.08,-0.16 -0.07,-0.29zm-0.06 -0.39l0.15 0 0 0.15 -0.15 0 0 -0.15zm-6.93 -3.19c0.31,0 0.17,0.09 0.42,0.15 -0,-0.17 -0.06,-0.16 -0.06,-0.33 0.17,0 0.1,0.02 0.21,0.09 0.09,0.06 0.11,0.04 0.18,0.12 -0.08,0.01 -0.08,0.01 -0.15,0.03 0.17,0.25 0.25,0.15 0.3,0.33 -0.14,0 -0.26,-0.01 -0.36,-0.02 -0.25,-0.05 -0.24,-0.11 -0.27,-0.03 -0.04,0.09 0.25,0.32 0.31,0.41 -0.18,-0.04 -0.29,-0.13 -0.39,-0.26 -0.1,-0.13 -0.17,-0.25 -0.17,-0.48zm-0.86 -0.87c-0.21,-0.13 -0.38,-0.27 -0.58,-0.41 0.01,0.32 0.21,0.73 0.38,0.9 0.3,0.3 0.46,0.27 0.81,0.44 -0.03,0.09 0.04,0.02 -0.08,0.1 -0.26,0.16 -0.68,0.05 -0.96,0.02 0.09,0.4 1.03,0.51 1.4,0.51 -0.02,0.09 -0.02,0.09 -0.11,0.13 -0.29,0.16 -0.79,-0.02 -1.06,-0.16 0,0.14 0.08,0.25 0.13,0.38l0.16 0.32c0.11,0.25 0.18,0.42 0.25,0.7 0.08,0.3 0.36,1.37 0.23,1.65 -0.12,-0.09 -0.15,-0.32 -0.17,-0.49 -0.1,-0.67 -0.37,-1.6 -0.72,-2.18 -0.18,-0.3 -0.4,-0.77 -0.81,-0.77 -0.31,0 -0.99,0.42 -1.14,0.68 -0.26,0.42 -0.35,0.78 -0.47,1.32l-0.2 1.17c-0.04,0.37 -0.13,0.76 -0.24,1.1 -0.08,0.23 -0.16,0.41 -0.35,0.54 0.01,-0.5 0.36,-1.23 0.36,-2.03 -0.23,0.15 -0.53,0.97 -0.65,1.29 -0.09,0.25 -0.15,0.47 -0.21,0.74 -0.09,0.39 -0.22,1.39 -0.03,1.79 0.12,-0.01 0.1,-0.03 0.24,-0.03 -0.09,0.14 -0.18,0.18 -0.33,0.27 -0.12,0.07 -0.21,0.18 -0.24,0.33 0.29,-0.07 0.19,-0.03 0.45,0.03l0 0.06c-0.12,0.03 -0.21,0.1 -0.32,0.16l-0.2 0.16c-0.03,0.03 -0.03,0.05 -0.05,0.07l0.36 0c-0.07,0.06 -0.16,0.06 -0.26,0.07 -0.08,0.01 -0.15,0.02 -0.28,0.02 0.02,-0.11 0.06,-0.16 0.13,-0.23 0.07,-0.07 0.14,-0.11 0.17,-0.19 -0.32,0 -0.26,0.1 -0.43,0.26 -0.12,0.12 -0.22,0.23 -0.26,0.43 0.55,0 0.77,-0.07 1.25,0.18 0.12,0.06 0.18,0.12 0.33,0.15 0,-0.16 -0.05,-0.31 -0.07,-0.46 -0.07,-0.37 -0.07,-0.96 0.25,-1.18 0,0.18 -0,0.36 -0,0.54 0,0.21 0.05,0.28 0.06,0.45 0.08,-0.06 0.06,-0.02 0.06,-0.18 0.01,-0.5 0.04,-0.98 0.15,-1.44 0.17,-0.7 0.43,-1.29 0.82,-1.87 0.23,-0.35 0.52,-0.68 0.87,-0.92 0.16,-0.11 0.38,-0.27 0.58,-0.32 -0.03,0.13 -0.15,0.17 -0.25,0.26l-0.1 0.08c-0.01,0.01 -0.03,0.02 -0.03,0.03 -0.3,0.26 -0.55,0.6 -0.76,0.94 -0.19,0.3 -0.34,0.62 -0.48,0.95l-0.25 0.74c-0.06,0.24 -0.16,0.55 -0.19,0.77 -0.05,0.36 -0.21,1.45 -0.21,1.73 0.68,0.16 0.4,1.31 1.06,1.89 0.59,0.51 1.27,0.31 1.76,-0.23 0.23,-0.25 0.4,-0.58 0.61,-0.85l0.22 -0.26c0.9,-1.07 1.83,-1.03 3.12,-0.46 0.84,0.37 1.54,1.25 2.51,1.25 1.02,0 1.76,-0.66 1.76,-1.7 0,-0.97 -0.54,-2.24 -1.12,-3.03 -0.21,-0.29 -0.44,-0.6 -0.7,-0.86l-0.32 -0.37c-0,-0 -0.01,-0.01 -0.01,-0.02l-0.26 -0.28c-0,-0 -0.01,-0.01 -0.01,-0.02l-0.17 -0.19c-0,-0 -0.01,-0.01 -0.01,-0.02 -0.13,-0.14 -0.37,-0.26 -0.42,-0.45 0.2,0.06 0.43,0.25 0.58,0.37 0.06,0.05 0.07,0.07 0.13,0.11l0.88 0.79c0.77,0.76 1.29,1.72 1.5,2.8 0.03,0.14 0.02,0.25 0.1,0.35l0 -0.6c0.41,0.27 0.24,1.02 0.24,1.43 0.33,-0.24 0.43,-1.22 1.34,-1.22 -0.01,-0.26 -0.23,-0.43 -0.42,-0.56 -0.12,-0.08 -0.16,-0.11 -0.27,-0.21 -0.09,-0.08 -0.15,-0.16 -0.26,-0.22 0.07,-0.09 -0.02,-0.05 0.12,-0.06 0,-1.16 -0.73,-2.74 -1.36,-3.68 -0.06,-0.08 -0.08,-0.14 -0.14,-0.22 -0.06,-0.09 -0.1,-0.12 -0.11,-0.24 0.22,0.02 0.31,0.22 0.48,0.27 -0.01,-0.08 -0.06,-0.3 -0.09,-0.36l0.48 0c-0.07,-0.28 -0.9,-0.55 -1.15,-0.64 -0.14,-0.05 -0.36,-0.06 -0.4,-0.2 0.09,-0.02 0.25,-0.09 0.35,-0.12 0.13,-0.05 0.2,-0.06 0.27,-0.18 -0.34,0 -0.61,0.06 -0.96,0.06 -0.32,0 -0.58,-0.06 -0.87,-0.06 0.08,0.28 0.69,0.93 0.92,1.23l0.88 0.97c0.12,0.12 0.4,0.32 0.44,0.45 -0.45,-0.11 -1.35,-1.16 -1.7,-1.61l-0.84 -1.01c-0,-0 -0.01,-0.01 -0.01,-0.02 -0.05,-0.05 -0.05,-0.06 -0.1,-0.11 -0.34,-0.35 -0.64,-0.74 -1.08,-0.98 -0.51,-0.27 -0.77,-0.12 -1.2,0.17 -0.68,0.45 -0.92,1.63 -0.91,2.4 0,0.42 0.03,0.38 -0.06,0.75 -0.35,-0.23 -0.03,-1.76 0.02,-2.01 0.23,-0.98 0.69,-1.01 -0.02,-1.13 -0.26,-0.04 -0.54,-0.13 -0.79,-0.23 -0.11,-0.04 -0.22,-0.09 -0.33,-0.15l-0.64 -0.35z"/>
   <path class="fil2" d="M13.54 22.09c0.04,0.13 0.07,0.08 0.34,0.2 0.29,0.12 0.43,0.21 0.67,0.4 0.14,0.12 0.11,0.06 0.23,0.22 0.19,0.23 0.34,0.4 0.48,0.68 0.07,0.13 0.1,0.24 0.15,0.39 0.03,0.09 0.03,0.12 0.06,0.21 0.03,0.12 0.02,0.08 0.07,0.17 0.13,-0.09 0.17,-0.16 0.23,-0.3 0.42,-0.95 0.36,-1.05 0.36,-2.08 0,-0.17 -0.41,-0.08 -0.68,-0.05 -0.16,0.02 -0.39,0.04 -0.52,0.11 0.03,0.07 0.01,0.1 0.08,0.16 0.08,0.08 0.21,0.1 0.34,0.34 -0.11,-0.01 -0.28,-0.09 -0.37,-0.13 -0.4,-0.19 -0.99,-0.42 -1.45,-0.31z"/>
   <path class="fil2" d="M5.24 1.97c-0.39,-0.01 -0.53,-0.3 -0.93,-0.3 -0,0.11 -0.04,0.41 -0.05,0.52 -0.01,0.1 -0,0.15 -0.03,0.24 -0.02,0.09 -0.05,0.14 -0.07,0.23 -0.14,-0.01 -0.69,-0.54 -0.69,-0.36 0,0.37 0.15,0.67 0.06,1.04 -0.14,-0.03 -0.46,-0.24 -0.6,-0.33 -0.71,-0.43 -0.7,-0.33 -1.28,-0 -0.32,0.18 -0.67,0.41 -0.93,0.68 -0.05,0.05 -0.06,0.08 -0.11,0.13 -0.2,0.25 -0.38,0.67 -0.17,1 0.04,0.06 0.04,0.05 0.09,0.12l1.72 2.34c0,0 0.01,0.01 0.01,0.02l0.1 0.11c0.31,0.28 1.06,0.92 1.44,0.92 0.26,0 0.51,-0.15 0.99,-0.15 -0.04,-0.14 -0.11,-0.12 -0.12,-0.27 0.12,-0.01 0.48,-0.11 0.57,-0.15l-0.1 -0.17c-0.28,-0.32 -0.29,-0.7 -0.29,-1.15 0.12,0.01 0.51,0.25 0.64,0.31 0.22,0.1 0.45,0.2 0.73,0.22 0,-0.3 -0.04,-0.21 0.18,-0.21 -0.01,-0.27 -0.3,-0.5 -0.3,-1.13 -0.2,-0.1 -0.51,-0.09 -0.71,-0.22 -0.19,-0.13 -0.23,-0.41 -0.25,-0.7 -0.02,-0.3 -0.05,-0.56 0.11,-0.78 0.16,-0.21 0.41,-0.22 0.63,-0.32 -0.04,-0.16 -0.13,-0.23 -0.24,-0.33 -0.14,0.07 -0.24,0.16 -0.35,0.28 -0.79,0.79 -0.28,0.65 -1.2,0.65 -0.43,0 -0.05,0.45 0,0.45 0.14,0 0.21,-0.01 0.31,-0.02 0.17,-0.02 0.19,0.01 0.32,0.02 0,0.23 -0.08,0.18 -0.18,0.33 0.03,0.15 0.11,0.17 0.12,0.33 -0.28,-0.08 -0.04,-0.42 -0.59,-0.26 -0.13,0.04 -0.13,0.05 -0.19,0.14 0.09,0.13 0.15,0.15 0.27,0.24l0.29 0.22c0.09,0.07 0.58,0.35 0.58,0.47 0,0.36 -0.62,0.08 -0.74,-0 -0.08,-0.05 -0.12,-0.1 -0.2,-0.16l-0.64 -0.46c-0.22,-0.14 -0.63,-0.06 -0.92,-0.06 0,-0.25 0.03,-0.13 0.15,-0.3 -0.04,-0.16 -0.52,-0.43 -0.69,-0.48 -0.19,-0.05 -0.19,0.04 -0.33,-0.03 -0.13,-0.08 0.06,-0.09 -0.28,-0.23 -0.09,-0.03 -0.03,-0.03 -0.14,-0.04l0 -0.24c0.37,-0.18 0.69,0.06 1.07,0.06 0.35,0 0.67,-0.1 1,-0.16 0.13,-0.03 0.24,-0.07 0.34,-0.08 -0.04,-0.17 -0.23,-0.09 -0.36,-0.33 0.11,-0.2 0.18,-0.15 0.39,-0.15 0.29,0 0.49,0.17 0.78,0.24 0.06,-0.04 0.09,-0.07 0.14,-0.13 0.23,-0.24 0.49,-0.49 0.64,-0.79 0.13,-0.25 0.15,-0.31 0.41,-0.31 0.4,0 0.35,0.28 0.55,0.53 0.18,0.24 1.25,1.79 1.25,1.98 0,0.18 -0.14,0.18 -0.33,0.18 -0.04,0.16 -0.22,0.26 -0.24,0.45 0.13,0.03 0.29,0.13 0.44,0.19 0.36,0.15 1.02,0.49 1.39,0.49 0,-0.27 -0.16,-0.36 -0.18,-0.57 0.13,0.01 0.22,0.08 0.3,0.14 0.28,0.22 0.51,0.46 0.59,0.81l0.56 -0.31c0.21,-0.1 0.42,-0.17 0.73,-0.17 -0.06,0.22 -0.22,0.13 -0.24,0.39 0.23,-0.01 0.65,-0.13 0.82,-0.11 0.36,0.05 0.68,0.33 0.97,0.5 0.15,0.09 0.18,0.04 0.29,-0.07 0.08,-0.08 0.18,-0.15 0.28,-0.2 0.12,-0.07 0.19,-0.15 0.36,-0.15l-0.03 0.63c0.24,-0.02 0.18,-0.12 0.6,-0.12 0,0.11 0.02,0.14 0.03,0.24 0.01,0.13 -0.03,0.2 0.06,0.22 0.12,0.03 0.31,-0.14 0.42,-0.17 -0.01,-0.12 -0.18,-0.43 -0.24,-0.6 -0.12,-0.34 -0.12,-0.8 -0.12,-1.19 0,-0.47 0.12,-0.9 0.21,-1.29 0.28,-1.31 0.84,-2.32 0.84,-3.79 0,-0.2 -0.41,-0.1 -0.59,-0.12 -0.56,-0.06 -1.2,-0.02 -1.77,-0.02 -0.16,-0 -0.21,-0.03 -0.33,-0.03l-0.69 0.03c-0.21,0 -0.52,-0.02 -0.71,0.01l-1.35 0.11c-0.58,0.01 -1.31,0.13 -1.88,0.27l-0.6 0.12c-0.29,0.06 -1.15,0.26 -1.42,0.37 -0.18,0.07 -0.19,0.31 -0.24,0.47 -0.03,0.09 -0.08,0.18 -0.12,0.27zm12.03 5.1c0.27,-0.8 0.26,-0.87 0.3,-1.64 0.01,-0.24 0.08,-0.32 -0.03,-0.54 -0.06,0.03 -0.03,0.02 -0.12,0.03 0,0.21 0.06,0.14 0.06,0.33 -0.24,0.06 0.08,0.17 -0.21,0.24 0.02,0.1 0.07,0.18 0.12,0.27 -0.11,-0.02 -0.1,-0.03 -0.24,-0.03 0.08,0.12 0.17,0.12 0.18,0.27l-0.18 0c0.04,0.09 0.09,0.13 0.12,0.24 -0.16,-0 -0.12,-0.05 -0.26,0.01l-0.04 0.02c0,0.22 0.05,0.15 0.09,0.3 -0.08,0.03 -0.04,0 -0.18,0 0.02,0.23 0.06,0.06 -0.06,0.24 0.05,0.06 0.07,0.06 0.09,0.15 -0.12,-0.01 -0.08,-0.03 -0.21,-0.03 0.06,0.26 0.02,0.22 -0.02,0.5 -0.03,0.22 0.03,0.07 0.08,0.25l-0.18 0c-0,0.18 -0.05,0.12 -0.06,0.16 -0.02,0.08 0.02,0.03 0.03,0.14 -0.27,0 -0.11,0.03 -0.28,0.31 -0.07,0.11 -0.04,0.13 -0.04,0.31 -0.01,0.01 -0.08,0.05 -0.09,0.06 -0,0.01 -0.07,-0.04 -0.01,0.07 0.04,0.08 0.08,0.05 0.19,0.05 0,0.13 -0.01,0.11 0.03,0.18l0.21 0 0.71 -1.88zm-13.73 -2.65c0,0.06 0.07,0.21 -0.09,0.07 -0.11,-0.09 -0.09,-0.13 -0.26,-0.13 -0.16,0 -0.26,0.05 -0.33,0.15 0.05,0.23 0.4,0.47 0.86,0.29 0.09,-0.03 0.19,-0.04 0.19,-0.14 0,-0.11 -0.14,-0.36 -0.24,-0.36l-0.12 0 0 0.12zm2.57 -0.03c-0.19,-0.05 -0.08,-0.18 -0.24,-0.3 -0.11,0.23 0.21,0.48 0.21,0.81l-0.06 0c-0.02,-0.1 -0.06,-0.14 -0.1,-0.23l-0.11 -0.25c-0.19,0.14 -0.02,0.63 0.02,0.69 0.12,0.17 0.56,0.27 0.7,0.05 0.17,-0.27 0.05,-0.59 -0.1,-0.83 -0.08,-0.13 -0.24,-0.32 -0.41,-0.33 0.01,0.06 0.03,0.12 0.05,0.19 0.04,0.11 0.04,0.05 0.04,0.2zm0.69 -2.78c0,0.55 -0.01,1.06 0.1,1.57 0.04,0.18 0.09,0.34 0.15,0.51 0.17,0.51 0.43,0.72 0.78,1.19 0.1,0.14 0.17,0.24 0.3,0.35 0.07,0.06 0.46,0.22 0.46,-0.04 0,-0.12 -0.58,-0.78 -0.33,-0.78 0.15,0 0.47,0.25 0.76,0.37 0.21,0.09 1.03,0.51 1.03,0.14 0,-0.12 -0.23,-0.18 -0.37,-0.23 -0.18,-0.06 -0.29,-0.11 -0.44,-0.19l-0.6 -0.33c-0.25,-0.14 -0.21,-0.05 -0.06,-0.61 0.1,-0.39 0.15,-0.54 0.21,-0.96l0.03 -0.42c0,-0.17 -0.06,-0.18 -0.12,-0.2 -0.09,-0.04 -0.22,-0.03 -0.33,-0.03 -0.12,0 -0.15,0.27 -0.18,0.47 -0.03,0.18 -0.04,0.37 -0.07,0.58 -0.05,0.35 -0.07,0.87 -0.28,1.03 -0.13,-0.09 -0.18,-0.15 -0.25,-0.38 -0.01,-0.05 -0.03,-0.14 -0.05,-0.19l-0.07 -0.77c0.03,0.12 0.07,0.16 0.1,0.32 0.02,0.1 0.04,0.25 0.08,0.34 0.06,-0.02 0.1,0.01 0.05,-0.22l-0.22 -0.85c-0.19,-0.78 0.2,-1.01 -0.54,-1.01 -0.11,0 -0.15,0.22 -0.15,0.33zm4.93 1.04c0,0.54 0.16,0.88 0.25,1.34 0.03,0.17 -0.03,0.26 -0.07,0.43l-0.24 0c-0.08,-0.11 -0.15,-0.3 -0.19,-0.47 -0.1,-0.44 0.02,-1.07 -0.11,-1.21 -0.04,-0.04 -0.3,-0.16 -0.51,-0.06 -0.09,0.37 -0.04,1.27 0.16,1.66 0.08,0.15 0.13,0.18 0.26,0.27 0.2,0.13 0.06,0.24 0.29,0.19 0,0.3 0.03,0.51 0.03,0.78 0.11,-0.03 0.12,-0.06 0.12,-0.3 0,-0.15 -0,-0.3 -0,-0.45 0.12,-0.06 0.13,-0.05 0.3,-0.06 0.21,-0.02 0.07,-0.06 0.3,-0.06 0.13,0.47 0.63,0.58 0.63,0.3 0,-0.14 -0.08,-0.2 -0.13,-0.32l-0.31 -1.03c-0.04,-0.28 -0,-0.89 -0.2,-1.15 -0.09,-0.11 -0.59,-0.21 -0.59,0.14zm-2.81 -1.79c0,0.22 -0.01,0.14 0.09,0.26 0.1,0.13 0.48,1.07 0.59,1.29 0.27,0.58 0.41,0.37 0.69,0.29 -0.01,-0.27 -0.24,-0.87 -0.34,-1.1 -0.1,-0.23 -0.37,-0.78 -0.65,-0.78 -0.13,0 -0.28,-0.01 -0.39,0.03zm0.45 2.66c0,0.28 0.58,0.06 0.66,0.06 0.02,0.08 0.06,0.16 0.09,0.24 0.08,0.25 0.11,0.53 0.27,0.78 0.18,0.29 0.16,0.53 0.15,0.86 -0,0.19 -0.03,0.19 0.09,0.27 0.09,-0.37 -0.04,-0.54 -0.03,-0.81 0.01,-0.14 0.03,-0.15 0.09,-0.18 0.05,0.1 0.01,0.14 0.06,0.24 0.25,-0.09 -0.04,-0.95 -0.08,-1.14 -0.06,-0.27 -0.19,-0.4 -0.19,-0.71 -0.21,-0.11 -0.29,-0.23 -0.76,0.05 -0.14,0.09 -0.35,0.14 -0.35,0.34z"/>
   <path class="fil3" d="M6.27 20.28c0.12,-0.16 0.56,-0.29 0.77,-0.36 1.26,-0.41 2.78,-0.39 4.11,-0.4 0.22,-0 0.31,0.03 0.54,0.03 0.18,-0 0.35,0.03 0.51,0.05 0.47,0.05 1.65,0.16 1.85,0.42 -0.22,-0 -0.59,-0.1 -0.82,-0.13 -1.6,-0.26 -3.81,-0.35 -5.39,-0.02 -0.55,0.11 -1.09,0.32 -1.56,0.41zm0.76 2.2c0.6,-0.12 2.1,-0.41 2.65,-0.45 0.22,-0.02 0.51,-0.06 0.72,-0.06 0.2,-0 0.55,0.03 0.73,-0.01 -0.06,-0.09 -0.11,-0.08 -0.23,-0.1l-0.9 -0.18c-0.99,-0.24 -0.57,-0.28 -1.69,-0.28 -0.46,0 -2.59,0.55 -3.13,0.69 -0.06,0.02 -0.15,0.03 -0.21,0.06 -0.09,0.04 -0.09,0.06 -0.18,0.09 0,0.21 0.07,0.24 0.31,0.35 0.16,0.08 0.39,0.1 0.59,0.1l1.35 -0.21zm9.58 -6.51c-0.14,-0.08 -0.07,-0.29 0.02,-0.37 0.34,-0.28 0.88,0.3 0.91,0.61 -0.2,0 -0.14,-0.05 -0.3,-0.06 -0.01,0.52 -0.49,1.27 -0.71,1.71 -0.14,0.28 -0.42,0.79 -0.01,1.01 0.17,-0.12 0.74,-1.12 0.88,-1.36 0.4,-0.74 0.62,-1 0.62,-1.86 0,-0.4 -0.59,-1.41 -1.34,-0.59 -0.38,0.41 -0.92,2.11 -2.17,2.61 -1.08,0.43 -2,-0.24 -2.69,-0.75 -0.69,-0.51 -1.66,-1.25 -2.68,-0.74 -0.85,0.43 -1.03,1.51 -1.73,2.03 -0.63,0.47 -1.64,0.46 -2.19,-0.15 -0.74,-0.81 -0.46,-1.56 -1.62,-2.14 -0.27,-0.14 -0.98,-0.32 -1.24,-0.05 -0.3,0.32 0.07,1.21 0.21,1.47 0.35,0.65 0.75,1.06 1.28,1.53 0.27,0.24 0.44,0.37 0.71,0.31 0,-0.47 -0.34,-0.28 -0.84,-1.01 -0.24,-0.36 -0.32,-0.49 -0.48,-0.89 -0.04,-0.11 -0.06,-0.22 -0.12,-0.33 -0.1,0.01 -0.36,0.2 -0.36,0.03 0,-0.1 0.1,-0.27 0.16,-0.32 0.32,-0.27 1,-0.1 1.03,0.29 -0.2,0 -0.38,-0.06 -0.51,-0.09 0,0.28 0.14,0.51 0.27,0.68l0.42 0.5c0.33,0.34 0.8,0.68 0.8,1.05 0,0.42 -0.81,1.11 -1.2,1.55 -0.69,0.77 0.07,1.23 0.42,1.23 0.47,0 0.47,-0.02 0.91,-0.13 0.24,-0.06 0.44,-0.11 0.67,-0.17 0.9,-0.23 1.85,-0.47 2.78,-0.62 0.32,-0.05 1.23,-0.15 1.55,-0.15l0.78 0c0.1,0 0.15,0.03 0.27,0.03l1.78 0.13c1.02,0.12 3.02,0.54 3.84,-0.3 0.57,-0.59 -0.41,-1.17 -0.62,-1.6 -0.2,-0.39 -0.07,-0.76 0.1,-1.16 0.31,-0.72 0.67,-1.02 0.67,-1.93 -0.15,0 -0.13,0.03 -0.27,0.03z"/>
  </g>
 </g>
</svg>
