<?xml version="1.0" encoding="UTF-8"?>
<!DOCTYPE svg PUBLIC "-//W3C//DTD SVG 1.1//EN" "http://www.w3.org/Graphics/SVG/1.1/DTD/svg11.dtd">
<!-- Creator: CorelDRAW -->
<svg xmlns="http://www.w3.org/2000/svg" xml:space="preserve" width="20.6442mm" height="26.8922mm" version="1.1" style="shape-rendering:geometricPrecision; text-rendering:geometricPrecision; image-rendering:optimizeQuality; fill-rule:evenodd; clip-rule:evenodd"
viewBox="0 0 93.37 121.63"
 xmlns:xlink="http://www.w3.org/1999/xlink"
 xmlns:xodm="http://www.corel.com/coreldraw/odm/2003">
 <defs>
  <style type="text/css">
   <![CDATA[
    .fil1 {fill:#010101}
    .fil11 {fill:#0B0501}
    .fil10 {fill:#D2D2D2}
    .fil2 {fill:#E17C01}
    .fil4 {fill:#F11315}
    .fil7 {fill:#FAFAFA}
    .fil8 {fill:#FCFBFC}
    .fil6 {fill:#FCFCFC}
    .fil5 {fill:#FDFDFD}
    .fil9 {fill:#FEEAB3}
    .fil0 {fill:#FEFEFE}
    .fil3 {fill:#FFE129}
   ]]>
  </style>
 </defs>
 <g id="Camada_x0020_1">
  <metadata id="CorelCorpID_0Corel-Layer"/>
  <g id="_2377408832144">
   <path class="fil0" d="M85.81 55.09c0.43,-0.62 0.89,-1.02 1.4,-1.64 2.48,-4.33 -0.62,-5.17 -4.86,-4.17 -3.36,0.79 -5.32,2.62 -7.38,4.4 -3.07,2.66 -6.16,5.55 -9.41,8.06 -1.21,0.94 -2.11,2.06 -4.06,1.94 0.28,-0.68 1.68,-1.54 3.07,-2.92 2.7,-2.69 5.7,-6.85 7.84,-10.1 1.57,-2.38 9.65,-13.83 6.1,-16.09 -2.24,-1.42 -6.91,2.49 -7.92,3.41 -4.1,3.75 -5.38,10.27 -8.21,15.88 -0.87,1.74 -3.16,7.37 -5.28,6.21 0.3,-0.94 1.65,-1.23 2.51,-2.62 0.69,-1.13 0.96,-2.3 1.59,-3.61 1.17,-2.42 2.18,-4.77 3.24,-7.36 2.1,-5.13 2.74,-6.32 3.8,-11.76 0.28,-1.44 1.08,-3.36 1.16,-4.39 0.3,-3.61 -3.05,-4.94 -5.89,-2.96 -4.22,2.93 -4.48,6.18 -4.69,11.2 -0.09,2.09 -1.22,12.86 -1.79,14.03 -3.02,-0.28 1.22,-6.66 0.04,-9.08 -0.85,-1.75 -4.15,-5.93 -5.94,-6.21 -1.17,1.01 -1.85,2.95 -2.59,4.56l-1.71 3.73c-0.45,0.92 -0.22,0.75 -1.02,1.11 0.41,-2.22 2.59,-7.15 3.47,-9.29l5.36 -13.52c2.12,-5.26 5.06,-0.61 15.43,-1.77 -0.49,-1.65 -6.41,-5.19 -8.56,-5.24 -1.16,-0.02 -11.48,1.16 -12.43,1.47 -1.87,4.18 -2.55,21.83 -4.09,23.71l-2.37 -1.59c-0.44,-0.47 -1.03,-1.99 -1.33,-2.67 -1.92,-4.35 -4.78,-15.33 -6.65,-17.87 -1.72,-0.1 -11.88,0.04 -12.75,0.5 -0.66,0.36 -6.23,5.25 -6.43,6.73 3.61,0.05 7.52,-1.53 10.76,-2.41 3.51,-0.95 4.47,2.21 7.09,6.13l5.31 7.91c0.91,1.16 5.22,6.73 5.41,8.04 -1.76,-0.11 -5.05,-6.74 -7.3,-8.2 -1.87,1.16 -4.14,3.52 -5.06,6.66 -1.08,3.71 2.36,6.76 2.34,9.68 -1.37,-0.38 -1.41,-1.23 -2.27,-3.39 -0.56,-1.39 -1.07,-2.63 -1.54,-4.15 -0.91,-2.93 -1.67,-5.83 -2.42,-8.91 -2.06,-8.42 -12.9,-9.56 -11.28,-3.36 0.81,3.09 5.86,12.29 7.73,14.95 1.58,2.24 3.11,4.41 4.73,6.61l3.78 4.72c0.67,0.5 1.28,0.47 1.62,1.19 -1.72,1.11 -4.79,-3.71 -6.1,-5.45 -3.3,-4.4 -7.35,-11.69 -10.93,-13.63 -7.1,-3.84 -11.47,-2.62 -8.08,2.67 3.51,5.47 14.18,16.39 20.39,19.48 0.99,0.49 1.49,0.45 2,1.18 -1.43,0.89 -6.11,-2.06 -7.3,-2.71 -2.4,-1.3 -4.36,-2.07 -6.99,-3.64 -2.61,-1.56 -4.02,-2.45 -7.08,-3.33 -2.82,-0.81 -7.11,-0.39 -8.15,2.12 0.5,2.24 5.85,5.38 8.06,6.72 5.61,3.39 10.31,4.83 16.88,5.18 7.22,0.38 8.38,3.94 10.67,-5.93 0.31,-1.36 0.14,-2.28 1.36,-2.44 0.58,1.15 -1.55,5.84 -1.27,7.92 0.79,0.61 1.91,1.37 2.83,1.23l0.25 -1.87c1.15,0.03 1.1,1.24 2.44,1.66 1.02,-1.09 1.69,-3.42 2.6,-4.81 0.76,0.18 1.16,0.77 1.5,1.68 2.29,-0.14 3.19,-0.03 3.79,-1.88 0.74,0.32 0.47,-0.18 1.53,1.8 1.38,2.57 1.07,2.06 3.75,0.64 -0.08,-2.8 -3.51,-5.88 -3.82,-8.27 1.43,0.19 2.11,2.07 3.2,4.26 3.57,7.16 2.08,3.99 10.77,2.18 6.25,-1.3 8.34,-3 13.71,-7.15 2.14,-1.65 3.66,-3.39 5.44,-5.19z"/>
   <path class="fil1" d="M43.19 107.68c-0.56,-2.46 2.57,-3.41 4.12,-4.45 3.59,-2.41 3.05,-3.44 4.54,-4.07 0.44,0.37 0.14,0.08 0.51,0.53 0.14,0.18 0.27,0.38 0.4,0.56 2.45,3.52 11.14,3.02 6.25,7.28 0.21,0.48 1.65,1.96 -0.63,3.22 0.19,1.75 0.16,2.04 -0.74,3.04 -1.21,1.34 -4.57,5.57 -5.15,5.68 -1.26,0.22 -3.32,-2.47 -3.96,-3.19 -1.63,-1.87 -2.48,-1.32 -2.21,-4.49l-1.5 -0.95c-0.06,-1.35 0.53,-1.54 0.58,-2.69l-2.2 -0.47zm17.55 -0.06c0.36,-0.87 0.4,-0.8 0.94,-1.35 1.26,-1.28 0.19,-2.44 2.97,-2.81 -0.32,1.31 -2.7,3.97 -3.91,4.17zm-14.3 -5.27c-1.73,0.53 -3.05,-0.52 -2.05,-2.26 0.84,0.01 2.06,1.26 2.05,2.26zm12.73 -0.96c-1.73,-0.52 -1.74,-1.27 -1.27,-2.89 0.97,0.16 1.19,0.49 1.72,0.99 0.01,0.88 -0.04,1.3 -0.46,1.91zm-22.69 -5.85c-0.01,-2.13 3.04,-3.96 4.92,-4.59 1.96,-0.65 2.49,-1.74 6.78,0.65 4.91,2.74 1.38,9.44 0.12,10.52 -1.24,-0.67 -1.7,-2.75 -3.55,-2.77 -1.82,-0.02 -2.66,1.41 -2.91,3.22l0.57 0.18c0.82,0.3 1.1,0.42 1.41,1.29 -2.1,1.73 -5.77,-2.03 -6.83,-3.85 -2.42,-4.18 2.51,-4.29 4.06,-6.39 -2.06,0.25 -2.99,1.62 -4.58,1.74zm19.6 6.28c-2.63,-0.94 -7.7,-7.63 -2.03,-11.2 4.74,-2.98 12.24,-0.49 12.39,2.96 -0.99,0.14 -4.85,-1.33 -6.69,-1.51 1.18,1.05 7,2.39 6.02,4.81 -0.63,1.55 -3.61,6.75 -5.57,5.42 -0.4,-0.37 1.26,-1.69 0.81,-2.79 -0.02,-0.04 -1.46,-2.13 -3.37,-1.3 -2,0.87 -1.21,1.55 -1.56,3.62zm4.96 -14.35c0.36,-1.32 2.47,-2.27 3.95,-2.02 0.35,1.16 -0.04,0.66 -0.03,1.68 2.63,1.01 4.61,2.27 3.39,4.8 -0.79,-1.14 -1.96,-2.19 -2.96,-2.88 -1.81,-1.24 -3.28,-0.63 -4.35,-1.57zm5.74 -1.63c0.1,-1.03 0.73,-1.61 1.36,-2.11 2.9,0.08 1.14,3.61 -1.36,2.11zm-18.81 -1.12c0.24,1.43 -0.05,2.38 0.65,3.38 0.52,0.74 1.12,1.5 2.05,2.04 0.44,-0.47 0.67,-0.93 1.07,-1.37 0.42,-0.45 0.95,-0.8 1.13,-1.24 0.47,-1.11 -1.17,-2.6 -0.17,-3.24 1.45,-0.94 4.94,2.57 5.3,3.42 -0.47,0.57 -1.03,0.62 -1.77,0.86 -2.22,0.72 -3.78,2.08 -5.1,2.71 -1.2,0.57 -2.25,-0.63 -3.59,-1.16 -1.16,-0.46 -2.78,-0.61 -3.75,-1.23 0.02,-1.72 3.93,-4.13 4.17,-4.17zm-6.98 4.95c-0.84,-0.37 -1.41,-1.79 -1.82,-2.73 -2,-4.54 -0.45,-8 2.98,-7.86 1.7,2.26 0.53,9.92 -1.15,10.59zm24.02 -5.55c-1.6,-0.33 -0.87,-1.3 -1.74,-2.18 -0.51,-0.51 -1.64,-0.79 -1.84,-1.64 1.63,-0.39 2.77,1.12 3.71,1.98l-0.14 1.84zm-4.2 -1.76l2.38 1.54c0.61,0.66 0.26,0.25 0.55,0.81 -1.42,-0.03 -2.19,0.32 -3.08,-0.59 -0.37,-0.38 -0.28,-0.32 -0.92,-0.56 0.27,1.77 0.8,1.73 0.46,3.52 -3.23,-0.82 -4.35,-7.75 -3.39,-9.72 1.98,-0.44 3.72,1.49 4.25,2.55 -0.63,0.6 -0.13,0.12 -1.07,0.55 -0.03,0.02 -0.13,0.13 -0.16,0.08 -0.02,-0.05 -0.11,0.04 -0.16,0.08 0.34,0.64 0.78,1.24 1.14,1.74zm4.92 -0.58c-1,-0.51 -0.93,-0.73 -1.44,-1.33 -0.48,-0.58 -0.98,-0.62 -1.34,-1.52 1.46,0.24 2.34,1.53 2.78,2.85zm-19.67 -1.04c0.66,0.93 1.91,1.59 0.83,2.76 -0.11,-0.15 -0.13,-0.15 -0.29,-0.5 -1.3,-2.77 -2.21,-1.13 -2.58,-4.77 1.03,0.41 1.45,1.68 2.05,2.51zm4.84 7.97c-4.36,-1.52 -0.69,-18.01 2.62,-16.56 2.56,2.64 -1.15,4.81 -1.09,7.19 0.64,-1.24 0.73,-2.16 2.84,-1.9 0.62,1.73 -0.29,2.15 -1.11,2.9 -0.63,0.58 -1.23,1.36 -1.8,2.21 -1.72,2.58 1.18,3.6 -1.47,6.16zm-24.99 -15.89c1.33,-0.47 5.25,-0.3 6.36,0.24 -0.9,2.98 -6.75,2.79 -6.36,-0.24zm21 3.95c-0.77,-3.96 -2.29,-8.17 4.14,-6.96 -0.4,2.69 -2.14,9.17 -3.11,11.6 -0.79,-0.35 -0.15,0.15 -0.81,-0.58 -0.13,-0.14 -0.27,-0.4 -0.38,-0.57 -1.58,-2.42 -2.5,-2.43 -3.01,-3.35 -1.4,-2.5 -0.3,-4.81 1.77,-5.38 0.01,2.09 0,2.6 0.62,4.37 0.29,0.85 0.75,3.37 0.98,3.72l-0.21 -2.87zm15.37 -6.55c0.54,-1.41 4.51,-1.93 6.24,-1.79 -0.12,1.21 -1.36,2.61 -2.37,2.87 -1.35,0.35 -3.16,-0.3 -3.88,-1.07zm-40.26 10.65c1.18,0.33 1.81,0.52 2.6,1.2 0,0.97 -0.16,1.04 -0.64,1.6 -3.32,4.13 -6.5,5.08 -6.91,7.58 0.64,-0.27 3.53,-2.84 5.7,-4.07 1.98,-1.12 5.56,-1.18 7.18,1.03 1.1,0.36 2,0.97 2.09,2.36l-1.18 0.69c-1.22,1.14 -0.19,-0.13 -1.44,1.59 -2.97,0.18 -10.17,-1.95 -11.32,0.95 3.99,0.1 10.2,-0.48 11.91,3.16 0.43,0.43 1.71,1.71 1.71,2.74 -0.67,0.41 -1.18,0.43 -2.18,0.54l0.19 -2.96c-1.22,0.28 -0.72,2.08 -0.63,3.29 -2.76,-0.12 -4.24,-1.46 -6.18,-2.57 -0.86,-0.49 -1.85,-1.06 -2.73,-1.52 -2.08,-1.08 -1.14,-0.14 -2.56,-1.64 -2.8,3.66 1.7,9.13 -0.71,11.48 -1.09,0.44 -3.55,-3.47 -3.74,-4.26 -0.6,-2.47 0.05,-4.31 0.82,-6.42 1.3,-3.55 -1.55,-6.21 -3.97,-10.74 -2.9,-5.41 -5.75,-10.09 -7.76,-15.86 -0.67,-1.94 0.16,-3.78 1.42,-5.42 1.34,0.01 5,2.19 5.37,3.78 -0.81,0.63 -1.77,0.58 -2.72,0.99 -0.04,1.41 3.31,9.61 4.02,11.25l3.53 7.78c0.41,0.98 0.6,2.05 1.13,2.68 0.42,-0.83 0.4,-2.58 0.69,-3.6 0.9,-3.11 3.78,-7.45 6.31,-5.62zm34.6 -5.48c-0.31,-1.62 0.97,-3.56 1.83,-3.99 2.39,-1.19 5.3,3.65 9.19,1.16 1.51,-0.97 1.53,-1.86 2.45,-3.47 0.68,-1.2 2.43,-1.52 3.72,-2.19 3.2,-1.65 9.34,-6.86 10.79,-6.76 0.62,1.68 -0.05,6.42 -0.33,8.51l-0.63 6.51c-0.04,1.26 -0.2,1.4 -0.39,1.7 -0.93,-1.84 -4.36,-5.87 -7.91,-5.08 -1.58,0.35 -3.01,1.91 -3.79,2.8 -1.87,2.12 -0.02,2.53 0.33,4.37 -0.8,0.28 -2.15,0.31 -2.91,0.84 -0.87,0.6 -0.71,1.27 -2,1.6 -0.72,-1.17 -0.72,-2.11 -1.66,-2.9 -1.6,-1.33 -1.73,-0.29 -3.06,-0.03 -1.05,-0.57 -1.5,-1.41 -2.35,-2.12 -1.24,-1.04 -1.86,-0.49 -3.27,-0.96zm-4.4 -39.63c0.12,-1.1 3.03,-7.67 3.65,-9.21 1,-2.48 0.51,-3.08 3.35,-2.73 1.53,0.19 4.85,0.03 5.98,0.37 -0.34,0.54 -0.11,0.28 -0.85,0.68 -6.59,3.55 -6.9,5.85 -7.31,14.69 -0.91,-0.54 -1.37,-1.36 -2.18,-2.09 -0.8,-0.72 -1.85,-1.02 -2.63,-1.71zm35 17.69l0.37 0.14c0.06,0.02 0.13,0.04 0.19,0.06l1 0.18c1.21,0.38 2.35,2.66 2.46,3.24 0.07,0.4 -0.67,5.97 -0.83,6.58 -1.02,3.88 -2.08,8.06 -3.23,11.88 -0.55,1.81 -1.02,4.23 -1.66,5.9 -0.94,2.45 -1.92,2.56 -0.1,5.52 0.88,1.42 2.11,3.09 2.47,5.1 0.31,1.76 -0.05,1.87 -0.64,2.94 -0.42,0.76 -0.47,1.56 -1.18,2.4l-0.7 0.43 -0.66 -0.25c-1.53,-1.49 1.1,-6.52 -1.94,-9.8 -2.97,-0.25 -7.41,7.24 -10.51,7.2l-0.01 -1.17c-0.01,-0.08 -0.04,-0.11 -0.14,-0.17l-0.39 0.95c-0.97,0.59 -1.48,0.44 -2.59,0.06l0.42 -1.18c1.45,-3.18 0.98,-3.47 4.19,-5.11 1.65,-0.84 3.36,-1.73 5.26,-1.8 4.29,-0.15 0.98,-2.09 -3.56,-0.76l-5.54 1.75c0.05,-1.14 0.62,-2.47 0.55,-3.14 -0.12,-1.08 -0.88,-0.73 -1.16,-2.14 1.3,-1.59 3.58,-2.05 6.24,-1.48 2.14,0.46 3.92,1.72 5.77,2.17 -0.87,-1.61 -2.02,-1.86 -3.95,-2.81 -2.83,-1.39 -2.16,-0.5 -4.03,-2.87 -0.62,-0.56 -0.75,-0.63 -0.68,-1.62 0.6,-0.61 0.77,-0.71 1.88,-0.84 0.96,-0.81 1.68,-1.6 3.17,-0.91 2.22,1.02 3.42,2.87 4.49,4.95 0.46,0.9 0.91,2.52 1.72,2.88 0.27,-1.79 -0.37,-3.61 0.05,-4.92 0.29,-0.91 0.66,-0.96 0.93,-1.71l1.62 -6.42c0.73,-2.39 -1.17,-2.27 1.1,-4.14 -0.85,-2.88 0.32,-3.73 0.05,-5.57 -1.24,-0.3 -1.89,-0.39 -3,-0.76 0.05,-1.23 1.04,-2.2 1.65,-2.87 -0.2,-0.4 0.53,-0.41 -0.48,-0.27 -1.78,1.8 -3.3,3.54 -5.44,5.19 -5.37,4.15 -7.46,5.84 -13.71,7.15 -8.68,1.81 -7.2,4.97 -10.77,-2.18 -1.09,-2.19 -1.77,-4.08 -3.2,-4.26 0.31,2.39 3.74,5.47 3.82,8.27 -2.68,1.42 -2.37,1.94 -3.75,-0.64 -1.06,-1.98 -0.79,-1.48 -1.53,-1.8 -0.6,1.86 -1.5,1.74 -3.79,1.88 -0.34,-0.91 -0.74,-1.5 -1.5,-1.68 -0.9,1.39 -1.58,3.72 -2.6,4.81 -1.34,-0.42 -1.29,-1.63 -2.44,-1.66l-0.25 1.87c-0.93,0.14 -2.04,-0.62 -2.83,-1.23 -0.28,-2.08 1.85,-6.77 1.27,-7.92 -1.22,0.16 -1.05,1.08 -1.36,2.44 -2.29,9.87 -3.45,6.31 -10.67,5.93 -6.57,-0.35 -11.27,-1.79 -16.88,-5.18 -2.2,-1.33 -7.55,-4.47 -8.06,-6.72 1.03,-2.52 5.33,-2.93 8.15,-2.12 3.05,0.88 4.47,1.77 7.08,3.33 2.63,1.57 4.59,2.34 6.99,3.64 1.19,0.65 5.86,3.59 7.3,2.71 -0.51,-0.73 -1.01,-0.69 -2,-1.18 -6.21,-3.09 -16.88,-14.01 -20.39,-19.48 -3.39,-5.29 0.98,-6.51 8.08,-2.67 3.59,1.94 7.64,9.23 10.93,13.63 1.31,1.74 4.38,6.56 6.1,5.45 -0.35,-0.72 -0.96,-0.7 -1.62,-1.19l-3.78 -4.72c-1.61,-2.19 -3.14,-4.36 -4.73,-6.61 -1.87,-2.65 -6.92,-11.86 -7.73,-14.95 -1.63,-6.2 9.22,-5.06 11.28,3.36 0.75,3.08 1.51,5.98 2.42,8.91 0.47,1.52 0.99,2.77 1.54,4.15 0.86,2.16 0.9,3.01 2.27,3.39 0.02,-2.92 -3.42,-5.97 -2.34,-9.68 0.91,-3.15 3.18,-5.5 5.06,-6.66 2.26,1.46 5.54,8.09 7.3,8.2 -0.19,-1.31 -4.5,-6.88 -5.41,-8.04l-5.31 -7.91c-2.61,-3.92 -3.57,-7.08 -7.09,-6.13 -3.24,0.87 -7.16,2.46 -10.76,2.41 0.2,-1.49 5.77,-6.38 6.43,-6.73 0.86,-0.47 11.03,-0.61 12.75,-0.5 1.87,2.54 4.73,13.53 6.65,17.87 0.3,0.68 0.89,2.2 1.33,2.67l2.37 1.59c1.54,-1.88 2.22,-19.53 4.09,-23.71 0.95,-0.31 11.26,-1.49 12.43,-1.47 2.15,0.05 8.07,3.59 8.56,5.24 -10.37,1.16 -13.3,-3.49 -15.43,1.77l-5.36 13.52c-0.88,2.14 -3.06,7.08 -3.47,9.29 0.8,-0.36 0.56,-0.19 1.02,-1.11l1.71 -3.73c0.75,-1.61 1.42,-3.56 2.59,-4.56 1.8,0.27 5.09,4.46 5.94,6.21 1.18,2.42 -3.06,8.8 -0.04,9.08 0.58,-1.17 1.7,-11.94 1.79,-14.03 0.22,-5.02 0.47,-8.27 4.69,-11.2 2.84,-1.97 6.2,-0.65 5.89,2.96 -0.09,1.03 -0.88,2.95 -1.16,4.39 -1.06,5.44 -1.7,6.63 -3.8,11.76 -1.06,2.59 -2.08,4.95 -3.24,7.36 -0.63,1.31 -0.9,2.48 -1.59,3.61 -0.85,1.4 -2.21,1.68 -2.51,2.62 2.12,1.16 4.4,-4.48 5.28,-6.21 2.82,-5.61 4.11,-12.14 8.21,-15.88 1,-0.92 5.68,-4.83 7.92,-3.41 3.55,2.26 -4.53,13.71 -6.1,16.09 -2.14,3.26 -5.14,7.42 -7.84,10.1 -1.39,1.39 -2.79,2.24 -3.07,2.92 1.95,0.12 2.84,-1.01 4.06,-1.94 3.25,-2.51 6.33,-5.4 9.41,-8.06 2.07,-1.79 4.03,-3.61 7.38,-4.4 4.24,-1 7.35,-0.16 4.86,4.17zm-43.16 -12.51c-0.89,-0.39 -0.15,0.41 -1.06,-2.23 -0.3,-0.87 -0.58,-1.57 -0.89,-2.42l-5.14 -14.68c-1.05,-3.19 -2.71,-7.14 -1.67,-10.64 0.63,-2.14 3.22,-7.12 4.52,-8.39 1.54,0.56 4.88,4.74 5.92,6.49 2.54,4.28 1.95,4.59 1.32,10.09 -0.35,3.04 -2.49,21.2 -2.99,21.78zm-7.62 -36.97c-0.04,0.97 -2.35,4.53 -2.94,6.36 -2.01,6.19 -0.34,3.68 -0.07,7.25 -1.67,1.01 -6.14,0.59 -8.26,0.52 -3.47,-0.11 -4.29,0.49 -6.25,2.2 -1.55,1.35 -3,2.48 -4.32,4.18 -0.98,1.25 -3.07,4.6 0.17,4.9 2.56,0.23 5.03,-0.88 7.26,-1.51 3.52,-0.98 5.26,-1.99 6.26,-0.43l6.96 9.96c-0.95,0.9 -1.74,1.21 -2.52,2.13 -0.53,0.63 -1.33,2 -2.13,2.27 -1.38,-3.3 -0.6,-4.81 -2.94,-7.84 -4.68,-6.05 -11.91,-5.92 -13.14,-1.1 -0.79,3.08 2.06,5.65 2.33,7.78 -1.28,0 -5.95,-2.24 -8.92,-0.92 -2.93,1.3 -1.94,4.94 -0.6,7.25 2.34,4.02 8.79,9.35 9.63,11.18 -2.18,-0.81 -3.83,-2.55 -6.21,-2.84 -2.67,-0.33 -5.83,-0.18 -7.85,0.89 -3.11,1.64 -3.57,2.94 -2.07,5.05 2.23,3.14 0.81,1.29 -0.09,6.01 -0.26,1.93 -0.17,1.68 0.47,3.28 0.38,0.97 0.35,2.02 0.76,3.03 0.78,1.92 7.05,12.22 8.3,14.39 0.53,0.91 2.41,3.92 2.66,4.97 0.48,1.98 -3.48,8.21 -0.01,12.21 0.88,1.01 2.84,2.94 4.77,2.86 3.98,-4.43 -0.14,-5.83 0.53,-10.53 1.49,-0.2 5.66,3.22 7.03,4.07 1.38,0.86 2.54,1.42 4.52,0.88 1.37,-0.37 2.85,-1.15 3.54,-2.22 -0.08,-2.1 -1.92,-4.28 -1.97,-6.14 0.62,-0.77 2.93,-2.63 3.24,-3.3 -0.61,-1.19 -3.38,-4.74 -5.34,-5.73 -1.43,-0.72 -1.8,-0.02 -3.26,-0.27 -0.45,-2.12 1.69,-2.45 -1.1,-4.56 -3.05,-2.32 -6.03,-2.44 -8.53,0.8 -1.94,2.5 -1.39,3.37 -2.34,4.18 -1.01,-2.43 -1.85,-5.64 -2.86,-8.29 -1.76,-4.65 -2.78,-5.73 -1.16,-8.12 1.36,-0.07 7.27,2.57 9,3.14 1.48,0.48 4.12,0.26 4.9,1.25 1.22,1.54 -0.24,1.84 2.49,3.43 3.28,1.92 6.71,-1.28 8.39,-2.67 1.46,-1.2 1.88,-1.55 4,-0.72 1.41,0.56 2.8,1.14 3.27,2.69 -1.18,2.29 -4.37,2.09 -5.23,5.78 -0.86,3.68 2.16,6.99 2.28,8.15 -1.44,1.38 -2.67,1.3 -3.87,3.19 -0.94,1.47 -1.22,3.87 -0.57,5.76 1.28,3.71 4.16,5.34 6.98,6.92 -0.2,0.97 -0.58,1.25 -0.59,2.3 0.78,0.6 1.33,0.54 2.07,1.14 0.07,1.6 -0.49,1.3 -0.75,2.63 0.8,0.54 1,0.32 1.85,1.02 0.49,2.37 -0.59,1.4 1.34,2.93 0.82,0.65 1.39,1.33 2.22,2.03 0.9,0.77 3.68,3.51 4.56,3.87 2.19,-1.87 7.98,-8.33 8.77,-8.81 -0.62,-3.34 -0.74,-1.13 2.59,-5.26 0.67,-0.83 3.06,-4.24 2.98,-5.64 -1.54,-0.23 -0.51,0.28 -1.03,0.36 -0.07,0.01 -0.3,0.23 -0.36,-0.63 -0.06,-0.94 0.47,-1.31 0.92,-1.97 0.75,-1.11 1.16,-2.74 1.94,-3.79 3.74,1.14 3.79,2.47 8.08,-1.05 2.43,-1.99 4.14,-4.92 5.61,-5.25 1,1.46 0.38,4.62 0.27,6.42 -0.12,1.88 1.69,3.48 3.04,4.01 0.85,-0.47 2.75,-2.49 3.32,-3.34 0.91,-1.37 1.37,-3.21 0.95,-5.27 -1.05,-5.26 -4.71,-5.26 -2.86,-9.39 0.89,-1.99 4.01,-12.95 4.92,-14.91 1.33,-2.83 -0.61,-1.21 1.76,-4.92 -0.9,-2.04 -1.59,-1.14 0.13,-3.78 -0.41,-0.95 -0.94,-2.65 -1.44,-3.49 -0.59,-0.98 -1.79,-1.92 -1.75,-2.84 0.09,-2.01 0.65,-2.15 -1.01,-3.62 -0.95,-0.84 -1.9,-1.31 -3.56,-1.31 -3.31,-0 -5.65,0.52 -7.91,1.92 -1.32,0.82 -4.83,3.49 -4.9,4.42 0.04,-0.16 6.7,-10.64 8.14,-14.17 0.74,-1.8 0.99,-2.48 0.13,-4.47 -0.67,-1.56 -1.39,-2.24 -3.49,-2.26 -4.84,-0.03 -4.85,2.63 -7.76,3.61 0.33,-2.24 1.32,-4.05 1.29,-6.85 -0.03,-3.11 -1.72,-3.46 -3.14,-4.9 2.08,-0.41 3.23,-0.23 4.2,-1.7 0.47,-1.4 -2.58,-3.77 -3.54,-4.52 -1.26,-0.98 -3.31,-2.49 -4.9,-3.14 -3.27,-1.34 -10.34,1.27 -14.03,1.31 -0.23,-2.3 0.38,-4.22 -0.71,-6.14 -1.81,-3.19 -6.29,-9.08 -9.67,-10.29 -0.94,0.67 -1.39,1.9 -2.06,2.99l-0.83 0.99z"/>
   <path class="fil2" d="M29.71 97.28l0.29 -0.32c-1.7,-3.63 -7.92,-3.05 -11.91,-3.16 1.16,-2.9 8.35,-0.77 11.32,-0.95 1.25,-1.72 0.22,-0.45 1.44,-1.59 -1,-0.04 -1.09,-0.07 -1.13,-1.19 -0.02,-0.67 -0.03,-1.35 0.22,-1.86 -1.62,-2.2 -5.2,-2.15 -7.18,-1.03 -2.17,1.23 -5.06,3.8 -5.7,4.07 0.41,-2.5 3.6,-3.45 6.91,-7.58 -1.63,0.21 -1.83,-1.19 -2.35,-2.59 0.24,-0.29 -0.4,-0.32 0.4,-0.21 -2.54,-1.83 -5.42,2.52 -6.31,5.62 -0.29,1.02 -0.27,2.77 -0.69,3.6 -0.53,-0.63 -0.72,-1.71 -1.13,-2.68l-3.53 -7.78c-0.71,-1.64 -4.06,-9.84 -4.02,-11.25 0.95,-0.41 1.91,-0.37 2.72,-0.99 -0.37,-1.59 -4.03,-3.77 -5.37,-3.78 -1.26,1.64 -2.09,3.47 -1.42,5.42 2,5.78 4.86,10.45 7.76,15.86 2.43,4.53 5.27,7.2 3.97,10.74 -0.77,2.11 -1.42,3.95 -0.82,6.42 0.19,0.79 2.65,4.69 3.74,4.26 2.41,-2.35 -2.09,-7.82 0.71,-11.48 1.42,1.5 0.48,0.56 2.56,1.64 0.88,0.46 1.86,1.03 2.73,1.52 1.95,1.11 3.43,2.45 6.18,2.57 -0.09,-1.21 -0.59,-3.01 0.63,-3.29z"/>
   <path class="fil2" d="M85.81 55.09c1.01,-0.13 0.28,-0.13 0.48,0.27 -0.61,0.68 -1.6,1.65 -1.65,2.87 1.11,0.38 1.76,0.47 3,0.76 0.27,1.84 -0.9,2.69 -0.05,5.57 -2.27,1.87 -0.37,1.75 -1.1,4.14l-1.62 6.42c-0.27,0.75 -0.64,0.8 -0.93,1.71 -0.41,1.3 0.23,3.13 -0.05,4.92 -0.81,-0.36 -1.26,-1.98 -1.72,-2.88 -1.07,-2.08 -2.27,-3.93 -4.49,-4.95 -1.5,-0.69 -2.21,0.1 -3.17,0.91l0.59 0.37c-0.08,1.35 -0.89,1.72 -1.78,2.09 1.87,2.37 1.2,1.48 4.03,2.87 1.93,0.95 3.08,1.2 3.95,2.81 -1.85,-0.45 -3.63,-1.71 -5.77,-2.17 -2.65,-0.57 -4.94,-0.1 -6.24,1.48 0.27,1.41 1.04,1.06 1.16,2.14 0.07,0.66 -0.49,2 -0.55,3.14l5.54 -1.75c4.54,-1.33 7.84,0.61 3.56,0.76 -1.9,0.07 -3.61,0.96 -5.26,1.8 -3.21,1.63 -2.75,1.93 -4.19,5.11 0.88,-0.28 1.14,-0.47 1.94,-0.1l0.22 1.23 0.39 -0.95c0.09,0.06 0.13,0.09 0.14,0.17l0.01 1.17c3.1,0.04 7.55,-7.45 10.51,-7.2 3.05,3.28 0.41,8.31 1.94,9.8l-0.09 -1.38c1.21,-0 1.22,0.31 1.45,1.21 0.71,-0.84 0.76,-1.64 1.18,-2.4 0.59,-1.07 0.95,-1.18 0.64,-2.94 -0.36,-2.01 -1.6,-3.68 -2.47,-5.1 -1.82,-2.96 -0.84,-3.07 0.1,-5.52 0.64,-1.66 1.11,-4.09 1.66,-5.9 1.16,-3.83 2.22,-8 3.23,-11.88 0.16,-0.61 0.91,-6.18 0.83,-6.58 -0.11,-0.59 -1.25,-2.86 -2.46,-3.24l-1 -0.18c-0.07,-0.02 -0.14,-0.04 -0.19,-0.06l-0.37 -0.14c-0.51,0.62 -0.97,1.01 -1.4,1.64z"/>
   <path class="fil0" d="M44.06 40.94c0.5,-0.59 2.64,-18.74 2.99,-21.78 0.63,-5.5 1.22,-5.81 -1.32,-10.09 -1.04,-1.75 -4.39,-5.93 -5.92,-6.49 -1.3,1.27 -3.88,6.25 -4.52,8.39 -1.03,3.5 0.63,7.44 1.67,10.64l5.14 14.68c0.31,0.85 0.59,1.55 0.89,2.42 0.91,2.65 0.17,1.84 1.06,2.23z"/>
   <path class="fil3" d="M49.4 104.55l1.48 -0.06 -0.11 1.01c-0.97,0.19 -1.55,0.13 -1.37,-0.95zm3.58 1.08c0.04,-1.18 0.19,-1.66 1.43,-1.17 -0.11,0.98 -0.5,1.01 -1.43,1.17zm-9.79 2.05l2.2 0.47c-0.05,1.15 -0.64,1.34 -0.58,2.69l1.5 0.95c-0.27,3.17 0.59,2.62 2.21,4.49 0.63,0.72 2.7,3.42 3.96,3.19 0.58,-0.1 3.94,-4.33 5.15,-5.68 0.9,-1 0.94,-1.29 0.74,-3.04 2.28,-1.27 0.83,-2.74 0.63,-3.22 4.89,-4.26 -3.8,-3.76 -6.25,-7.28 -0.13,-0.18 -0.25,-0.38 -0.4,-0.56 -0.37,-0.45 -0.07,-0.17 -0.51,-0.53 -1.49,0.63 -0.95,1.66 -4.54,4.07 -1.54,1.04 -4.67,1.99 -4.12,4.45z"/>
   <path class="fil0" d="M36.48 95.54c1.58,-0.12 2.52,-1.49 4.58,-1.74 -1.55,2.1 -6.48,2.21 -4.06,6.39 1.06,1.82 4.72,5.58 6.83,3.85 -0.31,-0.87 -0.6,-0.99 -1.41,-1.29l-0.57 -0.18c0.25,-1.81 1.08,-3.25 2.91,-3.22 1.86,0.02 2.31,2.1 3.55,2.77 1.26,-1.08 4.79,-7.78 -0.12,-10.52 -4.29,-2.4 -4.82,-1.31 -6.78,-0.65 -1.89,0.63 -4.93,2.46 -4.92,4.59z"/>
   <path class="fil0" d="M56.08 101.82c0.35,-2.07 -0.44,-2.75 1.56,-3.62 1.91,-0.83 3.35,1.26 3.37,1.3 0.45,1.1 -1.21,2.42 -0.81,2.79 1.97,1.33 4.94,-3.87 5.57,-5.42 0.98,-2.42 -4.84,-3.76 -6.02,-4.81 1.84,0.18 5.7,1.65 6.69,1.51 -0.16,-3.45 -7.66,-5.94 -12.39,-2.96 -5.68,3.57 -0.6,10.26 2.03,11.2z"/>
   <path class="fil0" d="M52.22 35.76c0.78,0.69 1.84,1 2.63,1.71 0.82,0.74 1.27,1.56 2.18,2.09 0.41,-8.84 0.72,-11.14 7.31,-14.69 0.74,-0.4 0.51,-0.15 0.85,-0.68 -1.13,-0.34 -4.45,-0.18 -5.98,-0.37 -2.84,-0.35 -2.35,0.25 -3.35,2.73 -0.62,1.53 -3.53,8.11 -3.65,9.21z"/>
   <path class="fil4" d="M50.9 88.71c2.65,-2.56 -0.25,-3.58 1.47,-6.16 0.56,-0.85 1.17,-1.63 1.8,-2.21 0.81,-0.75 1.73,-1.17 1.11,-2.9 -2.11,-0.26 -2.2,0.66 -2.84,1.9 -0.06,-2.38 3.65,-4.55 1.09,-7.19 -3.31,-1.44 -6.98,15.04 -2.62,16.56z"/>
   <path class="fil4" d="M47.13 79.65c-0.24,-0.36 -0.69,-2.88 -0.98,-3.72 -0.61,-1.78 -0.6,-2.29 -0.62,-4.37 -2.08,0.57 -3.17,2.87 -1.77,5.38 0.51,0.92 1.43,0.93 3.01,3.35 0.11,0.17 0.25,0.43 0.38,0.57 0.66,0.73 0.01,0.23 0.81,0.58 0.98,-2.42 2.71,-8.91 3.11,-11.6 -6.43,-1.21 -4.91,3 -4.14,6.96l0.21 2.87z"/>
   <path class="fil5" d="M50.67 90.14c-0.93,-0.54 -1.53,-1.3 -2.05,-2.04 -0.7,-1 -0.41,-1.95 -0.65,-3.38 -0.25,0.04 -4.16,2.45 -4.17,4.17 0.97,0.61 2.59,0.76 3.75,1.23 1.35,0.54 2.39,1.73 3.59,1.16 1.32,-0.62 2.88,-1.99 5.1,-2.71 0.74,-0.24 1.29,-0.29 1.77,-0.86 -0.35,-0.85 -3.85,-4.36 -5.3,-3.42 -1,0.65 0.64,2.13 0.17,3.24 -0.19,0.45 -0.72,0.79 -1.13,1.24 -0.4,0.44 -0.63,0.89 -1.07,1.37z"/>
   <path class="fil4" d="M40.99 89.66c1.68,-0.67 2.85,-8.33 1.15,-10.59 -3.43,-0.14 -4.98,3.32 -2.98,7.86 0.41,0.94 0.98,2.36 1.82,2.73z"/>
   <path class="fil4" d="M60.65 84.12l0.16 -1.76c-0.36,-0.5 -0.8,-1.1 -1.14,-1.74 0.04,-0.04 0.13,-0.13 0.16,-0.08 0.02,0.05 0.12,-0.06 0.16,-0.08 0.94,-0.43 0.44,0.05 1.07,-0.55 -0.53,-1.06 -2.27,-2.99 -4.25,-2.55 -0.96,1.97 0.16,8.9 3.39,9.72 0.34,-1.8 -0.19,-1.75 -0.46,-3.52 0.64,0.24 0.55,0.19 0.92,0.56z"/>
   <path class="fil5" d="M61.04 87.47c1.06,0.94 2.53,0.33 4.35,1.57 1,0.69 2.17,1.73 2.96,2.88 1.21,-2.53 -0.76,-3.79 -3.39,-4.8 -0.01,-1.02 0.39,-0.52 0.03,-1.68 -1.47,-0.25 -3.58,0.71 -3.95,2.02z"/>
   <path class="fil5" d="M25.91 72.83c-0.39,3.03 5.46,3.22 6.36,0.24 -1.11,-0.54 -5.04,-0.7 -6.36,-0.24z"/>
   <path class="fil5" d="M62.28 70.23c0.71,0.78 2.53,1.42 3.88,1.07 1,-0.26 2.25,-1.66 2.37,-2.87 -1.74,-0.14 -5.71,0.38 -6.24,1.79z"/>
   <path class="fil6" d="M23.98 83.68c0.48,-0.57 0.65,-0.63 0.64,-1.6 -0.79,-0.67 -1.41,-0.87 -2.6,-1.2 -0.8,-0.11 -0.16,-0.08 -0.4,0.21 0.52,1.4 0.72,2.8 2.35,2.59z"/>
   <path class="fil7" d="M65.01 84.12l0.14 -1.84c-0.94,-0.85 -2.08,-2.37 -3.71,-1.98 0.19,0.85 1.33,1.13 1.84,1.64 0.87,0.87 0.14,1.84 1.74,2.18z"/>
   <path class="fil6" d="M66.78 85.84c2.5,1.49 4.26,-2.03 1.36,-2.11 -0.63,0.51 -1.26,1.08 -1.36,2.11z"/>
   <path class="fil6" d="M30.86 91.27l1.18 -0.69c-0.1,-1.39 -0.99,-1.99 -2.09,-2.36 -0.25,0.5 -0.24,1.19 -0.22,1.86 0.04,1.12 0.13,1.15 1.13,1.19z"/>
   <path class="fil4" d="M46.89 83.5c1.09,-1.17 -0.16,-1.84 -0.83,-2.76 -0.59,-0.83 -1.02,-2.1 -2.05,-2.51 0.37,3.64 1.28,2 2.58,4.77 0.16,0.35 0.18,0.35 0.29,0.5z"/>
   <path class="fil8" d="M30 96.96l-0.29 0.32 -0.19 2.96c1.01,-0.11 1.51,-0.13 2.18,-0.54 0,-1.03 -1.28,-2.31 -1.71,-2.74z"/>
   <path class="fil7" d="M60.74 107.62c1.21,-0.2 3.59,-2.86 3.91,-4.17 -2.78,0.37 -1.71,1.54 -2.97,2.81 -0.54,0.55 -0.57,0.48 -0.94,1.35z"/>
   <path class="fil5" d="M73.31 77.28c0.89,-0.37 1.7,-0.74 1.78,-2.09l-0.59 -0.37c-1.11,0.14 -1.28,0.23 -1.88,0.84 -0.07,0.99 0.06,1.06 0.68,1.62z"/>
   <path class="fil8" d="M59.17 101.39c0.42,-0.61 0.46,-1.03 0.46,-1.91 -0.53,-0.5 -0.75,-0.83 -1.72,-0.99 -0.47,1.63 -0.46,2.38 1.27,2.89z"/>
   <path class="fil7" d="M60.65 84.12c0.9,0.91 1.66,0.56 3.08,0.59 -0.29,-0.56 0.06,-0.14 -0.55,-0.81l-2.38 -1.54 -0.16 1.76z"/>
   <path class="fil6" d="M46.44 102.35c0,-1 -1.21,-2.26 -2.05,-2.26 -1,1.74 0.33,2.8 2.05,2.26z"/>
   <path class="fil9" d="M69.54 93.46l-0.42 1.18c1.11,0.39 1.62,0.53 2.59,-0.06l-0.22 -1.23c-0.8,-0.37 -1.06,-0.18 -1.94,0.1z"/>
   <path class="fil10" d="M65.73 81.78c-0.44,-1.32 -1.32,-2.61 -2.78,-2.85 0.36,0.9 0.86,0.94 1.34,1.52 0.5,0.6 0.44,0.83 1.44,1.33z"/>
   <path class="fil11" d="M50.77 105.51l0.11 -1.01 -1.48 0.06c-0.18,1.09 0.39,1.14 1.37,0.95z"/>
   <path class="fil11" d="M52.98 105.63c0.93,-0.16 1.33,-0.19 1.43,-1.17 -1.24,-0.49 -1.39,-0.01 -1.43,1.17z"/>
  </g>
 </g>
</svg>
