<?xml version="1.0" encoding="UTF-8"?>
<!DOCTYPE svg PUBLIC "-//W3C//DTD SVG 1.1//EN" "http://www.w3.org/Graphics/SVG/1.1/DTD/svg11.dtd">
<!-- Creator: CorelDRAW -->
<svg xmlns="http://www.w3.org/2000/svg" xml:space="preserve" width="19.8329mm" height="28.021mm" version="1.1" style="shape-rendering:geometricPrecision; text-rendering:geometricPrecision; image-rendering:optimizeQuality; fill-rule:evenodd; clip-rule:evenodd"
viewBox="0 0 35.4 50.02"
 xmlns:xlink="http://www.w3.org/1999/xlink"
 xmlns:xodm="http://www.corel.com/coreldraw/odm/2003">
 <defs>
  <style type="text/css">
   <![CDATA[
    .fil2 {fill:#040405}
    .fil0 {fill:#050405}
    .fil5 {fill:#270802}
    .fil11 {fill:#2B0803}
    .fil7 {fill:#552410}
    .fil14 {fill:#6B1E11}
    .fil9 {fill:#A47779}
    .fil10 {fill:#B50712}
    .fil1 {fill:#B90712}
    .fil13 {fill:#F08F64}
    .fil8 {fill:#F4D4D2}
    .fil4 {fill:#F78430}
    .fil12 {fill:#FAFAEE}
    .fil6 {fill:#FCFCF0}
    .fil3 {fill:#FEFEFE}
   ]]>
  </style>
 </defs>
 <g id="Camada_x0020_1">
  <metadata id="CorelCorpID_0Corel-Layer"/>
  <g id="_2413771968704">
   <path class="fil0" d="M5.3 11.82c-0.22,0.31 -0.42,0.63 -0.64,0.94 -0.12,0.18 -0.47,0.77 -0.58,0.88 -0.08,0.56 -1.32,3.26 -1.53,5.8 -0.04,0.56 0.03,1.72 -0.34,2.06 -1.09,-1.94 -2.16,-3.84 -1.25,-6.04 0.32,-0.77 0.74,-1.88 1.46,-2.29 0.74,-0.42 1.4,-1.28 2.9,-1.61 0.1,0.2 0.09,-0.02 -0.01,0.25zm10.9 37.38c-0.45,0.1 -1.86,0.06 -2.36,0.05 -0.43,-0.01 -2.12,0.06 -2.3,0 -0.06,-0.27 0.02,-0.39 0.21,-0.58 0.13,-0.34 0.71,-1.1 1.02,-1.44 0.43,-0.46 1.06,-0.88 1.75,-1.16 0.31,-0.29 1.15,-0.58 1.63,-0.61 0.26,-0.02 0.45,0.05 0.67,0.07 0.28,0.02 0.45,-0.01 0.67,0.08 0.2,0.06 0.12,0.01 0.27,0.18 0.28,0.14 1.23,0.6 1.37,1.19 0.08,0.32 -0.43,1.37 -0.51,1.74 -0.14,0.43 -0.58,0.35 -1.07,0.38 -0.41,0.02 -1.01,0 -1.34,0.11zm-1.68 -12.74c-0.21,-0.12 -0.27,-0.31 -0.35,-0.56 -0.77,-2.25 1.52,-2.43 1.94,-2.32 0.19,0.05 0.11,-0.01 0.21,0.14 -0.45,0.49 -0.81,0.74 -1.12,1.25 -0.56,0.91 -0.47,1.18 -0.67,1.48zm2.34 5.07c0.33,0.01 0.7,0.27 0.98,0.4 1.37,0.62 2.72,0.39 3.06,0.5 -0.11,0.45 -0.71,0.87 -0.43,1.48 0.28,0.61 1.05,0.67 1.22,0.96 -0.06,0.1 -1.81,1.3 -1.97,1.37 -0.57,-0.59 -0.64,-0.82 -1.31,-1.13 -0.53,-0.25 -1.2,-0.16 -1.65,-0.36 -0.73,-1.31 -0.08,-2.31 0.1,-3.22zm-2.04 -11.3c0,-1.04 1.4,-1.45 1.83,-1.42 0.02,0 0.03,0.02 0.06,0.01 0.03,-0.01 0.04,0.01 0.06,0.01 -0.21,0.47 -1.3,1.21 -1.95,1.39zm1.63 0.3c0.18,0.39 0.31,0.92 0.48,1.34 0.17,0.42 0.4,0.76 0.57,1.2 -0.4,0.15 -1.66,-0.17 -2.36,-0.05 -0.77,0.13 -1.39,0.83 -2.26,-0.27 0.06,-0.1 -0.02,-0 0.11,-0.13 0.18,-0.17 0.82,-0.48 1.04,-0.56 0.56,-0.21 0.9,-0.05 1.32,-0.21 0.01,-0.68 0.22,-1.12 1.1,-1.33zm-0.53 -2.23c0.04,-0.28 0.44,-0.91 0.61,-1.05l0.21 0.56c-0.32,0.25 -0.41,0.33 -0.81,0.49zm9.29 20.5c-1.35,0.4 -4.7,0.47 -6.07,0.31 -0.07,-0.37 0.49,-1.22 0.68,-1.58 0.22,-0.41 0.62,-1.03 1.08,-1.38 1.04,-0.79 1.33,-0.4 1.9,-0.4 0.71,0.01 1.21,-0.04 1.57,0.65l0.83 0.78c0.02,0.01 0.03,0.03 0.04,0.04 0.01,0.01 0.03,0.03 0.04,0.04 0.01,0.01 0.03,0.03 0.04,0.04 0.22,0.27 0.65,1.01 0.64,1.29 -0.29,0.15 -0.45,0.13 -0.74,0.19zm-8.28 -22.89c0.31,-0.06 1.56,0.2 1.76,0.31 -0.03,0.26 -0.15,0.3 -0.35,0.5 -0.46,0.45 -0.57,0.74 -1.71,0.4 -0.06,-0.25 0.18,-0.96 0.3,-1.21zm0.15 -1.76c0.42,-0.13 2.19,-0.35 2.51,-0.25 -0.03,0.3 -0.36,1.38 -0.51,1.65 -0.48,0.15 -1.69,-0.03 -2.03,-0.21 -0.12,-0.3 -0.03,-0.85 0.03,-1.2zm6.72 12.43c0.47,1.28 -0.41,2.09 0.09,2.98 0.42,0.76 2.11,0.85 2.41,1.04 -0.18,0.58 -3.94,1.44 -4.22,1.27 -0.37,-0.38 -0.22,-1.95 -0.55,-2.55 -0.27,-0.13 -0.63,-0.08 -0.93,0.11 -0.3,0.19 -0.47,0.4 -0.25,0.72 0.62,0.04 0.2,-0.35 0.82,-0.58 0.18,0.29 -0.16,1.88 -0.19,2.24 -0.63,0.15 -1.94,-0.22 -2.42,-0.36 -1.98,-0.57 -2.72,-1.57 -3.36,-3.63 -0.5,-1.6 1.19,-3.49 2.32,-4.06 0.84,-0.42 1.88,-0.96 2.66,-0.68 1.44,0.52 2.85,1.4 3.62,3.5zm-4.2 -14.76c0.15,0.36 0.04,1.2 -0.06,1.52 -0.27,0.15 -2.02,0.33 -2.34,0.27 -0.18,-0.34 -0.13,-0.93 -0.08,-1.25l2.48 -0.54zm-0.45 7.43c-0.12,0.19 -0.41,0.95 -0.42,1.14 0.18,0.05 0.05,-0 0.33,0l0.11 0.02c0.33,0.03 0.56,0.23 1.03,0 0.35,-0.17 0.42,-0.49 0.47,-0.77 0.1,-0.59 -0.17,-0.56 0.82,-1.55 0.36,0 1.02,0.33 1.37,0.52 0.64,0.35 0.57,0.5 0.55,1.28 -0.02,1.01 -0.95,2.36 -1.37,2.56 -0.15,-0.38 0.01,-0.51 0.16,-0.75 0.14,-0.22 0.22,-0.37 0.35,-0.59 0.13,-0.21 0.68,-0.98 0.65,-1.23 -0.42,-0.08 -1.6,1.99 -1.63,2.01 -0.18,0.14 -0.48,-0.05 -0.87,0.08 0.1,0.23 0.33,0.3 0.79,0.61 0.27,0.18 0.53,0.26 0.69,0.68 -0.24,0.06 -0.03,0.06 -0.29,-0.04 -0.06,-0.02 -0.19,-0.09 -0.27,-0.13 -2.84,-1.31 -2.91,0.16 -3.62,-0.57 -0.14,-0.15 -0.23,-0.3 -0.33,-0.53 -0.38,-0.38 -0.35,-1 -0.5,-1.44 -0.21,-0.5 -0.1,-0.69 0.06,-1.01 0.13,-0.26 0.26,-0.62 0.32,-0.85 0.08,-0.46 0.67,-0.98 1,-1.34 0.38,-0.42 0.73,-1 1.31,-1.12l0.42 0.37c0.56,-0.25 0.95,-0.81 1.49,-0.45 0.42,0.28 0.73,0.73 0.89,1.33 -0.56,0.19 -0.78,-0.34 -1.15,-0.52 -0.47,0.24 -0.22,0.85 -0.65,1.35 -0.27,0.31 -1.25,0.66 -1.73,0.92zm2.89 -4.99l-0.37 0.22c-0.97,0.25 -0.41,0.08 -1.37,0.47 0.07,-0.52 1.09,-1.3 1.59,-1.54l0.16 0.85zm-0.73 1c0.78,-0.3 1.02,-0.03 1.34,0.71 -0.15,-0.05 0.01,0.04 -0.2,-0.09l-0.45 -0.3c-0.35,-0.17 -0.46,-0.08 -0.68,-0.32zm-9.05 -17.62c-0.06,-0.3 0.57,-5.2 0.68,-5.5 0.37,-1.05 0.93,-1.45 2.32,-1.4 0.72,0.03 2.21,0.43 2.5,0.94 -0.88,0.52 -0.99,0.88 -1.33,1.54 -0.8,1.55 -1.09,1.9 -2.25,3.27 -0.55,0.65 -0.92,0.97 -1.92,1.15zm10.53 5.27l0.07 1 0.15 0.77c0.34,0.71 0.72,2.23 0.79,2.98 0.07,0.81 -0.1,1.78 -0.41,2.34 -0.5,0.91 -1.88,2.99 -3.18,3.59 -0.03,-0.26 0.16,-0.72 0.22,-0.97 0.16,-0.65 -0.21,-0.63 -0.21,-1.07 0.58,-0.35 1.69,-0.55 1.66,-1.22 -0.53,-0.26 -0.93,0.06 -1.42,0.33 -0.67,0.38 -2.53,0.89 -3.32,1.07 -0.55,0.13 -1.12,-0 -1.45,0.13 0.17,0.33 0.27,0.17 0.53,0.34 0.23,0.16 0.21,0.37 0.22,0.64 0.1,3.08 -0.37,3.72 -1.77,6.03 -0.82,1.35 -0.52,1.58 -0.78,2.37 -0.71,0.2 -4,-1.17 -4.92,-1.68 -3.16,-1.74 -5.85,-6.43 -5.73,-10.17 0.05,-1.68 0.75,-3.85 1.27,-5.13 0.21,-0.53 1.63,-2.87 2.19,-3.29 0.61,-0.46 1.88,-1.46 2.47,-1.72 1.61,-0.71 2.73,-1.14 4.65,-1.25 2.95,-0.16 5.59,-0.06 7.53,2.26 0.35,0.43 1.59,1.98 1.46,2.61zm0.37 13.73c0.45,0.2 0.53,0.38 1.11,0.54 0.33,0.09 0.9,0.08 1.23,0.31 -0,0.25 0,0.18 -0.16,0.38 -0.37,0.45 -0.54,0.39 -1.1,0.19 -0.75,-0.27 -0.71,-0.41 -1.08,-1.42zm3.7 1.03c0.26,-0.04 1.07,0.19 1.43,0.25 0.48,0.08 0.96,0.11 1.44,0.15 1.93,0.16 2.31,-0.38 3.29,-0.57 0.16,0.56 -0.28,1.52 -0.52,1.91 -0.88,1.42 -2.23,1.99 -3.75,2.67 -1.1,0.49 -1,0.82 -1.41,1.56 -0.81,-0.23 -3.18,-2.26 -3.32,-3.09 -0.05,-0.29 -0.01,-0.52 0.03,-0.8 0.07,-0.48 0.04,-0.5 0.22,-0.67 0.38,0.29 -0.14,0.7 0.63,1.11 1.23,0.65 1.17,-1.22 1.94,-2.52zm-8.46 -25.44c0.94,0.8 2.95,2.69 3.5,4.11 0.43,1.11 0.61,1.98 1.17,3.05 0.86,1.65 1.49,1.83 0.31,2.31 -0.62,-0.68 -1.05,-1.44 -1.75,-2.13 -0.67,-0.65 -1.33,-1.04 -2.05,-1.4 -0.66,-0.33 -1.48,-0.58 -2.41,-0.72 -0.65,-0.1 -1.34,-0.14 -2.01,-0.09 -0.26,0.02 -0.44,0.08 -0.63,-0.02 0.15,-0.31 0.71,-0.96 0.96,-1.27 0.36,-0.44 0.65,-0.86 0.93,-1.29 0.31,-0.49 0.5,-0.91 0.74,-1.38 0.23,-0.43 0.54,-1 1.26,-1.16zm7.76 24.34c-0.53,0.31 -1.69,0.03 -2.03,-0.13 -1.17,-0.57 -2.64,-3.9 -0.32,-5.42 1.73,-1.14 5.19,-2.3 5.94,-0.01 0.65,1.98 -2.18,2.25 -3.47,1.32 -0.4,0.18 -0.7,0.5 -1.12,0.71 -0.64,0.32 -1.09,0.28 -0.79,0.82 0.73,0.19 1.59,-0.69 2.13,-0.66 0.48,0.17 -0.13,1.22 1.13,1.75 0.91,0.38 1.13,-0.02 2.13,-0.28 1.28,1.26 1.17,0.65 1.68,1.03 -0.33,0.85 -1.78,1.91 -2.89,1.67 -2.62,-0.55 -1.17,-2.42 -2.34,-2.04 -0.07,0.37 0.01,0.88 -0.06,1.26zm3.72 -6.79c0.73,-0.97 2.48,-0.4 2.18,0.75 -0.07,0.28 -0.17,0.63 -0.27,0.85 -0.51,1.04 -1.15,2.13 -2.59,2.8 -1.23,0.57 -1.81,-0.12 -1.83,-0.44 -0.02,-0.36 0.53,-0.2 0.87,-0.22 1.09,-0.06 2.01,-0.58 2.21,-1.69 0.19,-1.06 -0.27,-1.2 -0.58,-2.05zm1.01 7.8c0.04,-0.15 0.5,-0.64 0.62,-0.83 0.22,-0.33 0.29,-0.61 0.47,-0.91 0.29,-0.49 1.28,-1.04 1.88,-1.37 0.26,0.61 -0.23,1.7 -0.54,2.05 -0.48,0.53 -1.66,0.96 -2.43,1.07zm-0.43 -3.08c0.07,-0.34 0.72,-0.94 0.93,-1.21 0.91,-1.16 1.07,-2.22 1.6,-2.45 0.58,-0.25 1.09,-0.04 1.4,0.37 0.88,1.18 -1.29,3.3 -2.46,3.56 -0.44,0.1 -1.21,0.06 -1.47,-0.28zm-0.1 -5.84c-1.18,0.84 -1.56,0.4 -2.67,0.37 -1.18,-0.04 -1.77,0.37 -2.92,0.59 -0.13,-0.41 0.43,-0.28 -0.02,-1.86 -0.2,-0.71 -0.48,-1.44 -0.69,-2.15 -0.35,-1.25 -1.03,-3.03 0.17,-3.62 0.78,-0.39 1.31,-0.13 1.77,0.23 0.54,0.42 0.73,1.05 0.78,1.76 0.04,0.64 -0.02,1.26 -0.01,1.88 0.01,0.88 0.3,1.8 -0.05,1.97l-0.28 0.08c-0.17,0.05 -0.26,0.09 -0.38,0.18l0.11 0.5c0.34,0.04 1.16,-0.04 1.63,-0.05 0.63,-0 1.03,0.17 1.71,-0.05 -0.26,-0.41 -0.44,-0.34 -0.75,-0.58 -0.01,-0.4 0.32,-0.7 0.5,-1.14 0.47,-1.1 0.88,-2.84 1.3,-3.44 1.07,-1.52 3.62,-1.55 3.11,1.5 -0.12,0.72 -1,1.44 -1.57,1.97 -0.67,0.62 -1.1,1.4 -1.77,1.87zm1.05 -6.49c-0.92,0.19 -1.23,0.35 -1.56,1.08 -0.51,1.13 -1.16,4.31 -2.17,4.42 -0.44,-0.54 -0.08,-3.56 -0.38,-4.6 -0.3,-1.07 -0.8,-1.39 -1.49,-1.71 -0.85,-0.4 -0.89,-0.29 -1.57,-1.39 -1.45,-2.36 -1.36,-3.6 -2.11,-4.84 -0.54,-0.89 -2.77,-2.96 -2.89,-3.29 0.63,-0.41 5.37,0.2 6.44,0.39l2.01 0.47c-0.06,-0.37 -0.06,-0.51 -0.25,-0.87l-2.07 -0.42c-1.82,-0.31 -5.13,-0.56 -6.89,-0.16 -0.83,-0.79 -2.16,-1.31 -3.57,-1.25 -3.28,0.14 -2.78,3.19 -3.27,6.45 -0.21,1.39 -0.07,1.29 -1,1.6 -2.57,0.88 -2.16,0.87 -4.03,2.25 -0.91,0.67 -3.74,0.36 -5.63,3.43 -0.6,0.97 -1.04,2.2 -0.97,3.7 0.13,2.7 1.73,4.11 1.69,4.46 -0.17,0.36 -0.83,0.95 -0.35,1.23 0.57,0.13 1.17,-1.15 1.46,-1.4 0.39,0.74 0.2,1.64 1.59,4.01 1.21,2.08 3.02,3.83 5.07,4.85 0.55,0.27 0.92,0.43 1.54,0.63 0.29,0.09 0.49,0.15 0.81,0.23 0.27,0.07 0.65,0.07 0.76,0.37 -0.36,0.31 -0.69,0.1 -1.08,0.22 -0.79,0.23 -0.88,1.25 -0.09,1.58 0.18,0.07 0.29,0.05 0.51,0.08 0.18,0.02 0.33,0.07 0.48,0.12 0.2,0.06 0.78,0.29 0.88,0.45 0.13,0.2 0.08,0.83 0.12,1.11 0.15,1.35 0.78,1.34 1.07,2.12 0.12,0.32 0.13,0.77 0.25,1.16 0.73,2.32 1.54,1.53 1.11,3.2 -0.23,0.89 -1.28,0.66 -1.37,1.52 -0.13,1.34 1.04,0.72 1.35,1.38 -0.44,0.41 -1.39,0.59 -1.99,0.92 -1.45,0.8 -3.33,2.52 -2.7,4.33 0.97,-0.08 2.08,-0.09 3.09,-0.13 1.04,-0.05 2.04,-0.08 3.08,-0.12 0.59,-0.03 0.94,-0.06 1.49,0.05 0.89,0.18 3.55,0 4.6,-0.03 0.51,-0.02 2.78,0.04 3.11,-0.26 0.24,-0.23 0.23,-0.98 0.08,-1.47 -0.18,-0.58 -0.54,-1.12 -0.86,-1.5 -1.83,-2.2 -3.12,-0.75 -3.4,-2.38 -0.05,-0.27 -0.06,-0.54 -0.12,-0.81 -0.07,-0.33 -0.23,-0.63 -0.29,-0.95 0.07,-0.02 2.03,-0.38 2.91,-0.64 0.84,-0.25 2.48,-0.74 2.31,-1.59 -0.35,-0.19 -1.27,0.04 -2.15,-0.39 -0.84,-0.4 -0.51,-1.24 -0.45,-1.99 0.07,-0.84 -0.13,-1.68 -0.56,-2.52 -0.54,-1.06 -1.22,-1.41 -1.53,-1.86 0.12,-0.26 0.4,-0.52 0.56,-0.77 0.2,-0.31 0.24,-0.6 0.52,-0.84 1.17,1.98 2.22,3.66 3.95,4.38 1.96,0.81 4.79,-0.42 3.93,-2.88 -1.18,0.5 -1.75,0.88 -2.85,0.56 -0.19,-0.06 -0.39,-0.1 -0.42,-0.35 -0.07,-0.68 1.14,-0.98 1.71,-1.24 1.87,-0.85 3.39,-2.22 3.7,-3.69 0.11,-0.53 0.01,-0.87 0.08,-1.31 0.05,-0.37 0.44,-0.74 0.62,-1.06 0.46,-0.79 -0.02,-1.87 0.3,-2.56 0.34,-0.73 1,-1.21 0.61,-2.4 -0.45,-1.39 -1.57,-1.06 -2.24,-1.08 -0.25,-0.37 -0.25,-0.67 -0.56,-1 -0.26,-0.28 -0.59,-0.37 -0.79,-0.68 0.34,-0.53 1.84,-2.22 2.42,-2.48 0.67,0.76 1.35,0.87 1.46,0.52 -0.01,-0.45 -0.9,-0.83 -1.06,-1.32 -0.09,-0.28 0.06,-1.32 -0.02,-1.83 -0.38,-2.26 -2.03,-1.06 -2.92,-1.21z"/>
   <path class="fil1" d="M16.74 11.57c-0.07,0.32 -0.47,0.61 -0.72,0.91 0.03,0.07 3.26,3.17 1.56,6.72 -0.25,0.53 -0.7,1.4 -1.18,1.82 -1.27,1.11 -3.48,1.24 -4.83,1 -0.89,-0.15 -1.36,-0.41 -2.05,-0.7 -0.85,-0.36 -0.78,0.98 -1.85,1.2 -0.27,-0.58 0.5,-0.83 0.2,-1.46 -0.09,-0.2 -0.34,-0.49 -0.48,-0.73 -0.8,-1.39 -1.21,-2.81 -0.98,-4.25 0.11,-1.87 1.28,-4.12 3.38,-5.19 1.18,-0.6 2.39,-0.57 3.56,-0.59 0.59,-0.01 1.09,-0.03 1.62,0.11 0.4,0.1 1.17,0.47 1.58,0.33 0.29,-0.31 0.26,-0.78 0.97,-0.74 0.13,0.34 -0.1,0.56 -0.24,0.79 -0.17,0.28 -0.27,0.51 -0.55,0.76zm6.28 3.13c-0,0.02 -0.01,0.04 -0.01,0.05 -0,0.01 -0.01,0.04 -0.01,0.05l0.02 0.35c0.02,0.2 0.05,0.25 0,0.41 -0.24,-0.19 -0.98,-2.03 -1.32,-2.57 -0.79,-1.24 -2.29,-2.74 -3.52,-3.33 -0.38,-0.18 -1.67,-0.76 -2.15,-0.74 -0.41,-0.12 -0.88,-0.07 -1.1,-0.38 0.49,-0.1 2,-0.06 2.47,-0 0.63,0.08 1.66,0.52 2.13,0.76 0.86,0.44 2.88,2.36 3.25,3.62 0.13,-0.64 -1.1,-2.19 -1.46,-2.61 -1.94,-2.33 -4.57,-2.42 -7.53,-2.26 -1.92,0.1 -3.04,0.54 -4.65,1.25 -0.59,0.26 -1.86,1.26 -2.47,1.72 -0.56,0.42 -1.98,2.77 -2.19,3.29 -0.52,1.28 -1.22,3.44 -1.27,5.13 -0.12,3.73 2.58,8.42 5.73,10.17 0.92,0.51 4.21,1.89 4.92,1.68 0.27,-0.8 -0.04,-1.02 0.78,-2.37 1.4,-2.31 1.87,-2.95 1.77,-6.03 -0.01,-0.27 0.01,-0.48 -0.22,-0.64 -0.26,-0.18 -0.36,-0.02 -0.53,-0.34 0.33,-0.13 0.9,-0.01 1.45,-0.13 0.79,-0.18 2.65,-0.7 3.32,-1.07 0.49,-0.28 0.89,-0.59 1.42,-0.33 0.04,0.67 -1.08,0.87 -1.66,1.22 -0,0.44 0.37,0.42 0.21,1.07 -0.06,0.25 -0.25,0.71 -0.22,0.97 1.3,-0.6 2.68,-2.68 3.18,-3.59 0.31,-0.56 0.48,-1.53 0.41,-2.34 -0.06,-0.76 -0.44,-2.27 -0.79,-2.98z"/>
   <path class="fil1" d="M18.76 33.58c-0.07,0.7 -2.13,1.09 -2.16,4.43 -0,0.43 0.17,1.56 0.04,1.84 -0.8,-0.53 -0.75,-3.14 -0.57,-3.76 0.23,-0.77 1.42,-2.19 2.69,-2.51zm5.03 3.01c-0.77,-2.1 -2.18,-2.98 -3.62,-3.5 -0.79,-0.28 -1.83,0.26 -2.66,0.68 -1.14,0.57 -2.82,2.45 -2.32,4.06 0.65,2.06 1.39,3.06 3.36,3.63 0.48,0.14 1.79,0.5 2.42,0.36 0.03,-0.36 0.37,-1.95 0.19,-2.24 -0.63,0.23 -0.2,0.62 -0.82,0.58 -0.22,-0.31 -0.06,-0.52 0.25,-0.72 0.31,-0.19 0.67,-0.24 0.93,-0.11 0.33,0.6 0.18,2.17 0.55,2.55 0.28,0.18 4.04,-0.69 4.22,-1.27 -0.3,-0.19 -1.99,-0.28 -2.41,-1.04 -0.5,-0.89 0.38,-1.71 -0.09,-2.98z"/>
   <path class="fil2" d="M10.66 19.47c0.62,0.52 0.89,0.85 1.88,1.18 0.35,0.12 0.69,0.2 1.11,0.27 0.22,0.04 0.35,0.04 0.58,0.05l0.52 0.07c0.03,-0 0.03,0.01 0.05,0.02 -2.12,0.96 -4.9,-0.1 -4.92,-0.73 0.07,-0.23 0.39,-0.73 0.77,-0.85zm4.68 -5.98c0.37,0.31 0.82,1.21 0.8,1.71 -0.05,1.17 -0.93,1.59 -1.27,2.1 -0.35,0.54 -0.27,1.27 -1.03,1.01 -1.05,-0.35 -0.56,-0.71 -0.65,-1.13 -0.04,-0.2 -0.26,-0.4 -0.37,-0.68 0.52,-0.46 2.15,-2.79 2.53,-3.02zm0.51 -1.6c-0.26,0.06 -3.27,3.86 -3.69,4.37 -0.49,0.6 -3.18,4.22 -3.69,4.45 -0.48,-0.31 -0.97,-1.23 -1.25,-1.86 -0.59,-1.32 -0.27,-1.74 -0.41,-2.19 -0.03,-0.26 -0.11,-0.62 -0.41,-0.56 -0.23,1.44 0.18,2.85 0.98,4.25 0.13,0.24 0.38,0.53 0.48,0.73 0.3,0.64 -0.47,0.88 -0.2,1.46 1.08,-0.22 1.01,-1.56 1.85,-1.2 0.69,0.29 1.16,0.55 2.05,0.7 1.36,0.24 3.56,0.11 4.83,-1 0.49,-0.43 0.93,-1.29 1.18,-1.82 1.7,-3.55 -1.53,-6.65 -1.56,-6.72 0.25,-0.31 0.64,-0.59 0.72,-0.91 -0.04,-0.23 -0.02,-0.14 -0.12,-0.23 -0.33,0.17 -0.51,0.26 -0.77,0.54z"/>
   <path class="fil3" d="M28.78 17.91c0.31,0.25 0.48,0.18 0.75,0.58 -0.68,0.21 -1.08,0.05 -1.71,0.05 -0.47,0 -1.29,0.09 -1.63,0.05l-0.11 -0.5c0.12,-0.09 0.2,-0.13 0.38,-0.18l0.28 -0.08c0.35,-0.17 0.05,-1.08 0.05,-1.97 -0.01,-0.62 0.05,-1.24 0.01,-1.88 -0.05,-0.72 -0.24,-1.34 -0.78,-1.76 -0.46,-0.36 -0.99,-0.62 -1.77,-0.23 -1.2,0.59 -0.53,2.37 -0.17,3.62 0.2,0.72 0.48,1.44 0.69,2.15 0.45,1.58 -0.11,1.46 0.02,1.86 1.15,-0.22 1.74,-0.62 2.92,-0.59 1.11,0.03 1.49,0.47 2.67,-0.37 0.66,-0.47 1.09,-1.25 1.77,-1.87 0.58,-0.53 1.46,-1.25 1.57,-1.97 0.5,-3.05 -2.04,-3.02 -3.11,-1.5 -0.42,0.6 -0.83,2.34 -1.3,3.44 -0.19,0.44 -0.51,0.74 -0.5,1.14z"/>
   <path class="fil3" d="M26.15 26.59c0.06,-0.38 -0.01,-0.88 0.06,-1.26 1.17,-0.38 -0.27,1.49 2.34,2.04 1.11,0.23 2.56,-0.83 2.89,-1.67 -0.51,-0.37 -0.41,0.24 -1.68,-1.03 -1,0.26 -1.22,0.66 -2.13,0.28 -1.26,-0.53 -0.65,-1.58 -1.13,-1.75 -0.55,-0.03 -1.41,0.85 -2.13,0.66 -0.3,-0.53 0.15,-0.5 0.79,-0.82 0.42,-0.21 0.72,-0.53 1.12,-0.71 1.29,0.93 4.13,0.67 3.47,-1.32 -0.75,-2.29 -4.22,-1.13 -5.94,0.01 -2.31,1.53 -0.85,4.86 0.32,5.42 0.34,0.16 1.5,0.43 2.03,0.13z"/>
   <path class="fil1" d="M7.59 16.43c-0.14,-0.57 0.36,-1.94 0.53,-2.33 0.28,-0.63 0.9,-1.27 1.66,-1.75 0.82,-0.52 1.8,-0.94 2.77,-1.04 0.65,-0.07 1.97,0.18 2.26,0.57 -0.75,0.27 -1.82,0.06 -2.72,0.38 -3.12,1.14 -3.91,3.77 -4.51,4.17zm-0.77 0.22c0.14,0.45 -0.18,0.87 0.41,2.19 0.28,0.62 0.77,1.55 1.25,1.86 0.51,-0.23 3.19,-3.85 3.69,-4.45 0.42,-0.51 3.43,-4.31 3.69,-4.37 0.03,-0.15 0.03,-0.18 0.05,-0.31 -0.83,-0.83 -4.59,-0.87 -6.18,0.2 -2.86,1.92 -2.56,4.31 -2.9,4.89z"/>
   <path class="fil4" d="M26.86 27.69c-0.78,1.3 -0.72,3.17 -1.94,2.52 -0.78,-0.41 -0.26,-0.81 -0.63,-1.11 -0.18,0.16 -0.15,0.19 -0.22,0.67 -0.04,0.29 -0.08,0.51 -0.03,0.8 0.14,0.83 2.51,2.86 3.32,3.09 0.4,-0.73 0.31,-1.06 1.41,-1.56 1.51,-0.68 2.87,-1.25 3.75,-2.67 0.24,-0.39 0.68,-1.35 0.52,-1.91 -0.99,0.19 -1.36,0.73 -3.29,0.57 -0.48,-0.04 -0.96,-0.07 -1.44,-0.15 -0.37,-0.06 -1.17,-0.3 -1.43,-0.25z"/>
   <path class="fil1" d="M19.17 30.42c-0.73,0.15 -0.99,0.77 -1.83,0.54l0.33 1.05c0.09,0.22 0.19,0.38 0.33,0.53 0.71,0.73 0.78,-0.74 3.62,0.57 0.08,0.04 0.21,0.1 0.27,0.13 0.26,0.1 0.05,0.09 0.29,0.04 -0.16,-0.42 -0.42,-0.5 -0.69,-0.68 -0.46,-0.31 -0.69,-0.38 -0.79,-0.61 0.4,-0.13 0.69,0.06 0.87,-0.08 0.03,-0.02 1.21,-2.1 1.63,-2.01 0.03,0.25 -0.53,1.02 -0.65,1.23 -0.13,0.22 -0.21,0.37 -0.35,0.59 -0.15,0.24 -0.32,0.36 -0.16,0.75 0.42,-0.2 1.34,-1.55 1.37,-2.56 0.02,-0.78 0.09,-0.93 -0.55,-1.28 -0.35,-0.19 -1.01,-0.52 -1.37,-0.52 -0.99,0.99 -0.72,0.96 -0.82,1.55 -0.05,0.28 -0.12,0.6 -0.47,0.77 -0.47,0.23 -0.7,0.02 -1.03,-0z"/>
   <path class="fil1" d="M4.08 13.65c-0.61,0.38 -1.2,1.14 -1.54,1.64 -0.35,0.51 -0.79,1.32 -1.15,1.73 -0.06,-0.55 0.32,-1.91 0.63,-2.41 0.39,-0.65 0.17,-0.37 0.33,-0.71 0.3,-0.62 2.1,-1.78 2.87,-2.2l0.08 0.13c0.11,-0.27 0.12,-0.05 0.01,-0.25 -1.5,0.33 -2.15,1.19 -2.9,1.61 -0.72,0.41 -1.14,1.51 -1.46,2.29 -0.91,2.19 0.16,4.09 1.25,6.04 0.38,-0.34 0.3,-1.49 0.34,-2.06 0.2,-2.54 1.44,-5.24 1.53,-5.8z"/>
   <path class="fil1" d="M21.77 46.17c0.01,0.17 0.01,0.09 -0.04,0.21 -0.01,0.02 -0.04,0.07 -0.04,0.09 -0.01,0.01 -0.02,0.03 -0.02,0.04 -0.01,0.01 -0.02,0.03 -0.02,0.04 -0.26,0.52 -0.46,0.71 -0.66,1.15 -0.26,0.55 -0.32,1.06 -1.26,1.34 -0.08,-0.54 1.23,-2.56 1.78,-2.82 0.26,-0.13 0.07,-0.09 0.27,-0.05zm3.44 2.64c-0.23,-0.02 -0.34,-0.01 -0.6,-0.11l-0.66 -2.32c0.26,-0.02 0.16,0.02 0.42,0.04 -0.36,-0.68 -0.85,-0.64 -1.57,-0.65 -0.57,-0.01 -0.86,-0.4 -1.9,0.4 -0.46,0.35 -0.86,0.97 -1.08,1.38 -0.19,0.36 -0.75,1.21 -0.68,1.58 1.37,0.16 4.71,0.09 6.07,-0.31z"/>
   <path class="fil1" d="M17.76 45.8c-0.15,-0.17 -0.07,-0.12 -0.27,-0.18 -0.81,0.04 -2.51,1.24 -2.92,1.75 -0.22,0.28 -0.23,0.28 -0.15,0.69 0.32,1.5 0.85,0.59 1.77,1.14 0.32,-0.1 0.92,-0.08 1.34,-0.11 0.5,-0.03 0.93,0.05 1.07,-0.38 -0.19,0.04 -0.02,0.06 -0.17,-0.01 -0.12,-0.5 -0.06,-0.99 -0.16,-1.5 -0.13,-0.67 -0.43,-0.92 -0.51,-1.08 -0.13,-0.27 -0.19,-0.16 -0.01,-0.33z"/>
   <path class="fil5" d="M6.41 16.1c0.3,-0.07 0.38,0.3 0.41,0.56 0.34,-0.58 0.04,-2.97 2.9,-4.89 1.6,-1.07 5.35,-1.03 6.18,-0.2 -0.02,0.13 -0.02,0.16 -0.05,0.31 0.26,-0.28 0.44,-0.36 0.77,-0.54 0.1,0.08 0.08,-0 0.12,0.23 0.28,-0.25 0.38,-0.48 0.55,-0.76 0.14,-0.24 0.37,-0.46 0.24,-0.79 -0.71,-0.05 -0.69,0.42 -0.97,0.74 -0.42,0.13 -1.18,-0.23 -1.58,-0.33 -0.54,-0.14 -1.03,-0.12 -1.62,-0.11 -1.17,0.02 -2.38,-0.01 -3.56,0.59 -2.11,1.07 -3.27,3.32 -3.38,5.19z"/>
   <path class="fil3" d="M30.45 24.52c0.26,0.34 1.03,0.38 1.47,0.28 1.17,-0.26 3.34,-2.38 2.46,-3.56 -0.31,-0.41 -0.82,-0.62 -1.4,-0.37 -0.53,0.23 -0.69,1.28 -1.6,2.45 -0.21,0.26 -0.86,0.87 -0.93,1.21z"/>
   <path class="fil3" d="M15.34 13.48c-0.37,0.23 -2,2.56 -2.53,3.02 0.12,0.28 0.33,0.48 0.37,0.68 0.09,0.42 -0.4,0.78 0.65,1.13 0.76,0.26 0.68,-0.47 1.03,-1.01 0.33,-0.51 1.22,-0.93 1.27,-2.1 0.02,-0.5 -0.43,-1.4 -0.8,-1.71z"/>
   <path class="fil1" d="M17.55 28.71c0.27,-0.03 0.66,-0.01 0.92,0.03 0.38,0.05 0.55,0.1 0.67,0.52 0.47,-0.26 1.46,-0.6 1.73,-0.92 0.43,-0.5 0.18,-1.11 0.65,-1.35 0.37,0.17 0.58,0.71 1.15,0.52 -0.17,-0.6 -0.47,-1.05 -0.89,-1.33 -0.55,-0.36 -0.93,0.19 -1.49,0.45l-0.42 -0.37c-0.59,0.11 -0.94,0.7 -1.31,1.12 -0.33,0.36 -0.91,0.88 -1,1.34z"/>
   <path class="fil3" d="M29.87 19.79c0.31,0.85 0.77,0.99 0.58,2.05 -0.2,1.11 -1.12,1.62 -2.21,1.69 -0.34,0.02 -0.89,-0.14 -0.87,0.22 0.01,0.32 0.6,1.01 1.83,0.44 1.44,-0.67 2.08,-1.76 2.59,-2.8 0.11,-0.22 0.2,-0.56 0.27,-0.85 0.3,-1.15 -1.46,-1.72 -2.18,-0.75z"/>
   <path class="fil6" d="M7.59 16.43c0.59,-0.4 1.39,-3.03 4.51,-4.17 0.9,-0.33 1.97,-0.12 2.72,-0.38 -0.29,-0.39 -1.61,-0.64 -2.26,-0.57 -0.97,0.11 -1.95,0.52 -2.77,1.04 -0.76,0.49 -1.38,1.12 -1.66,1.75 -0.17,0.39 -0.67,1.76 -0.53,2.33z"/>
   <path class="fil7" d="M14.53 46.08c0.35,-0.15 1.08,-0.54 1.42,-0.43 -0.04,0.39 -2.39,1.32 -3.31,2.33 -0.37,0.41 -0.17,0.66 -0.83,0.88l-0.04 -0.18c-0.19,0.19 -0.28,0.31 -0.21,0.58 0.19,0.06 1.87,-0.01 2.3,-0 0.5,0.01 1.91,0.05 2.36,-0.05 -0.92,-0.55 -1.45,0.35 -1.77,-1.14 -0.09,-0.41 -0.08,-0.41 0.15,-0.69 0.41,-0.51 2.11,-1.71 2.92,-1.75 -0.23,-0.09 -0.39,-0.06 -0.67,-0.08 -0.22,-0.02 -0.41,-0.09 -0.67,-0.07 -0.47,0.03 -1.31,0.32 -1.63,0.61z"/>
   <path class="fil6" d="M16.03 8.92c0.48,-0.01 1.77,0.56 2.15,0.74 1.23,0.59 2.73,2.08 3.52,3.33 0.34,0.54 1.08,2.38 1.32,2.57 0.05,-0.16 0.02,-0.21 -0,-0.41l-0.02 -0.35c0,-0.02 0.01,-0.04 0.01,-0.05 0,-0.01 0,-0.04 0.01,-0.05l-0.15 -0.77c-0.64,-1.61 -1.73,-3.06 -2.89,-3.94 -0.67,-0.51 -1.19,-0.61 -1.87,-0.96 -0.37,-0.19 -1.64,-0.56 -2.25,-0.33l0.18 0.23z"/>
   <path class="fil8" d="M4.08 13.65c0.11,-0.11 0.46,-0.7 0.58,-0.88 0.21,-0.31 0.41,-0.63 0.64,-0.94l-0.08 -0.13c-0.77,0.43 -2.58,1.58 -2.87,2.2 -0.16,0.34 0.06,0.06 -0.33,0.71 -0.3,0.5 -0.68,1.86 -0.63,2.41 0.36,-0.41 0.81,-1.22 1.15,-1.73 0.34,-0.5 0.93,-1.26 1.54,-1.64z"/>
   <path class="fil6" d="M16.08 36.09c-0.18,0.62 -0.23,3.23 0.57,3.76 0.14,-0.28 -0.04,-1.4 -0.04,-1.84 0.02,-3.34 2.09,-3.73 2.16,-4.43 -1.27,0.31 -2.46,1.73 -2.69,2.51z"/>
   <path class="fil4" d="M30.88 27.59c0.77,-0.11 1.95,-0.54 2.43,-1.07 0.31,-0.35 0.8,-1.44 0.54,-2.05 -0.6,0.34 -1.59,0.89 -1.88,1.37 -0.18,0.3 -0.26,0.58 -0.47,0.91 -0.12,0.19 -0.59,0.68 -0.62,0.83z"/>
   <path class="fil3" d="M10.66 19.47c-0.38,0.12 -0.71,0.62 -0.77,0.85 0.01,0.63 2.8,1.69 4.92,0.73 -0.02,-0.01 -0.03,-0.02 -0.05,-0.02l-0.52 -0.07c-0.22,-0.01 -0.36,-0.01 -0.58,-0.05 -0.43,-0.07 -0.76,-0.15 -1.11,-0.27 -0.99,-0.33 -1.26,-0.66 -1.88,-1.18z"/>
   <path class="fil6" d="M17.08 24.16c-0.06,0.35 -0.15,0.9 -0.03,1.2 0.34,0.18 1.55,0.35 2.03,0.21 0.14,-0.27 0.48,-1.35 0.51,-1.65 -0.33,-0.1 -2.09,0.12 -2.51,0.25z"/>
   <path class="fil6" d="M17.12 22.36c-0.05,0.32 -0.1,0.91 0.08,1.25 0.32,0.06 2.06,-0.12 2.34,-0.27 0.1,-0.32 0.21,-1.15 0.06,-1.52l-2.48 0.54z"/>
   <path class="fil8" d="M17.55 28.71c-0.06,0.23 -0.19,0.59 -0.32,0.85 -0.16,0.32 -0.27,0.51 -0.06,1.01 0.25,0.08 0.38,0.22 0.69,0.2 0.3,-0.01 0.64,-0.21 0.86,-0.38 0.01,-0.19 0.29,-0.95 0.42,-1.14 -0.12,-0.43 -0.29,-0.48 -0.67,-0.52 -0.27,-0.03 -0.65,-0.06 -0.92,-0.03z"/>
   <path class="fil9" d="M16.03 8.92l-0.18 -0.23c0.62,-0.22 1.88,0.14 2.25,0.33 0.68,0.35 1.21,0.46 1.87,0.96 1.16,0.88 2.25,2.33 2.89,3.94l-0.07 -1c-0.38,-1.27 -2.39,-3.19 -3.25,-3.62 -0.47,-0.24 -1.5,-0.68 -2.13,-0.76 -0.47,-0.06 -1.98,-0.1 -2.47,0 0.21,0.31 0.68,0.26 1.1,0.38z"/>
   <path class="fil3" d="M14.52 36.46c0.2,-0.3 0.11,-0.57 0.67,-1.48 0.32,-0.52 0.68,-0.76 1.12,-1.25 -0.1,-0.15 -0.02,-0.09 -0.21,-0.14 -0.41,-0.11 -2.7,0.07 -1.94,2.32 0.08,0.24 0.14,0.43 0.35,0.56z"/>
   <path class="fil10" d="M14.53 46.08c-0.69,0.27 -1.32,0.69 -1.75,1.16 -0.32,0.34 -0.89,1.1 -1.02,1.44l0.04 0.18c0.66,-0.22 0.46,-0.47 0.83,-0.88 0.92,-1.01 3.27,-1.94 3.31,-2.33 -0.33,-0.11 -1.07,0.29 -1.42,0.43z"/>
   <path class="fil6" d="M16.93 25.92c-0.11,0.25 -0.35,0.96 -0.3,1.21 1.14,0.34 1.25,0.06 1.71,-0.4 0.21,-0.2 0.32,-0.25 0.35,-0.5 -0.21,-0.11 -1.46,-0.37 -1.76,-0.31z"/>
   <path class="fil11" d="M21.73 46.38c0.05,-0.13 0.05,-0.05 0.04,-0.21 -0.21,-0.04 -0.01,-0.08 -0.27,0.05 -0.55,0.27 -1.86,2.28 -1.78,2.82 0.94,-0.28 1,-0.78 1.26,-1.34 0.21,-0.44 0.4,-0.63 0.66,-1.15 0.01,-0.01 0.02,-0.03 0.02,-0.04 0.01,-0.01 0.02,-0.03 0.02,-0.04 0.01,-0.02 0.04,-0.07 0.04,-0.09z"/>
   <path class="fil6" d="M17.76 45.8c-0.18,0.17 -0.13,0.06 0.01,0.33 0.08,0.17 0.39,0.41 0.51,1.08 0.1,0.51 0.04,1.01 0.16,1.5 0.15,0.07 -0.02,0.05 0.17,0.01 0.08,-0.36 0.59,-1.42 0.51,-1.74 -0.14,-0.58 -1.08,-1.04 -1.37,-1.19z"/>
   <path class="fil4" d="M23.16 26.66c0.36,1.01 0.33,1.15 1.08,1.42 0.56,0.2 0.73,0.26 1.1,-0.19 0.17,-0.21 0.16,-0.13 0.16,-0.38 -0.32,-0.23 -0.9,-0.22 -1.23,-0.31 -0.58,-0.16 -0.66,-0.34 -1.11,-0.54z"/>
   <path class="fil8" d="M24.37 46.42c-0.26,-0.02 -0.15,-0.06 -0.42,-0.04l0.66 2.32c0.29,-0.17 0.45,-0.42 0.58,-0.65 0.21,-0.37 0.1,-0.41 0,-0.85l-0.83 -0.78z"/>
   <path class="fil12" d="M14.83 30.24c0.66,-0.19 1.74,-0.92 1.95,-1.39 -0.02,-0.01 -0.03,-0.02 -0.06,-0.01 -0.03,0.01 -0.05,-0.01 -0.06,-0.01 -0.43,-0.03 -1.83,0.38 -1.83,1.42z"/>
   <path class="fil13" d="M25.2 47.2c0.1,0.44 0.21,0.47 0,0.85 -0.13,0.24 -0.29,0.48 -0.58,0.65 0.26,0.1 0.37,0.09 0.6,0.11 0.3,-0.07 0.46,-0.04 0.74,-0.19 0.01,-0.28 -0.42,-1.03 -0.64,-1.29 -0.01,-0.01 -0.03,-0.03 -0.04,-0.04 -0.01,-0.01 -0.03,-0.03 -0.04,-0.04 -0.01,-0.01 -0.02,-0.03 -0.04,-0.04z"/>
   <path class="fil14" d="M18.73 30.4c-0.22,0.16 -0.56,0.36 -0.86,0.38 -0.31,0.01 -0.45,-0.13 -0.69,-0.2 0.16,0.44 0.13,1.06 0.5,1.44l-0.33 -1.05c0.84,0.23 1.09,-0.39 1.83,-0.54l-0.11 -0.02c-0.28,-0.01 -0.15,0.05 -0.33,-0z"/>
   <path class="fil12" d="M15.92 28.31c0.41,-0.17 0.5,-0.24 0.81,-0.49l-0.21 -0.56c-0.17,0.14 -0.56,0.77 -0.61,1.05z"/>
  </g>
 </g>
</svg>
