<?xml version="1.0" encoding="UTF-8"?>
<!DOCTYPE svg PUBLIC "-//W3C//DTD SVG 1.1//EN" "http://www.w3.org/Graphics/SVG/1.1/DTD/svg11.dtd">
<!-- Creator: CorelDRAW -->
<svg xmlns="http://www.w3.org/2000/svg" xml:space="preserve" width="46.5166mm" height="48.6093mm" version="1.1" style="shape-rendering:geometricPrecision; text-rendering:geometricPrecision; image-rendering:optimizeQuality; fill-rule:evenodd; clip-rule:evenodd"
viewBox="0 0 93.02 97.2"
 xmlns:xlink="http://www.w3.org/1999/xlink"
 xmlns:xodm="http://www.corel.com/coreldraw/odm/2003">
 <defs>
  <style type="text/css">
   <![CDATA[
    .fil0 {fill:black}
    .fil3 {fill:#2D3741}
    .fil8 {fill:#2E3843}
    .fil32 {fill:#303233}
    .fil29 {fill:#3E4142}
    .fil1 {fill:#424D58}
    .fil9 {fill:#424D59}
    .fil31 {fill:#4A535D}
    .fil33 {fill:#5A5B5D}
    .fil11 {fill:#75797D}
    .fil10 {fill:#767A7D}
    .fil13 {fill:#777B7E}
    .fil14 {fill:#797C81}
    .fil16 {fill:#7E8285}
    .fil27 {fill:#818385}
    .fil26 {fill:#86888A}
    .fil19 {fill:#868A8D}
    .fil7 {fill:#8A8C8E}
    .fil22 {fill:#8B8E90}
    .fil4 {fill:#8C8F91}
    .fil35 {fill:#8D939A}
    .fil21 {fill:#8E9192}
    .fil30 {fill:#A9ABAD}
    .fil25 {fill:#ADAFB1}
    .fil2 {fill:#AEB0B1}
    .fil15 {fill:#AFB1B3}
    .fil28 {fill:#B0B2B4}
    .fil23 {fill:#B5B7B9}
    .fil17 {fill:#CED1D7}
    .fil20 {fill:#D2D5DA}
    .fil5 {fill:#D5D8DA}
    .fil12 {fill:#D6D9DE}
    .fil18 {fill:#D7D9DE}
    .fil34 {fill:#E5E6E6}
    .fil24 {fill:#F9F9FA}
    .fil6 {fill:#FBFBFC}
   ]]>
  </style>
 </defs>
 <g id="Camada_x0020_1">
  <metadata id="CorelCorpID_0Corel-Layer"/>
  <g id="_2076084566304">
   <path class="fil0" d="M22.64 70.68c0.27,-0.25 0.21,-0.24 0.55,-0.33 0.03,0.94 0,0.25 -0.26,0.5 -1.5,2.29 -4.7,5.52 -4.55,9.44 0.1,2.52 1.36,2.88 3.03,3.88 1.71,1.03 -0.37,2.98 -0.31,5.22 0.16,6.18 14.52,7.03 20.61,7.66 6.22,0.64 17.91,-0.86 23.77,-2.99 1.7,-0.62 3.45,-0.87 5.19,-1.56 1.69,-0.67 3.15,-1.55 4.33,-2.5 2.92,-2.34 0.57,-7.99 0.75,-11.44 2.85,0.16 2.98,0.53 5.79,-0.39 7.05,-2.3 9.55,-0.42 11.08,-9.06 0.68,-3.8 0.54,-8.86 -1,-11.79 -1.42,-2.69 -3.17,-2.04 -4.13,-2.68 -0.93,-0.62 -0.89,-0.89 -2.23,-1.25 -1.09,-0.29 -1.6,-0.47 -2.34,-1.02 -2.95,-2.14 -2.99,-1.97 -2.79,-3.58 0.44,-3.47 -1.43,-3.95 -4.29,-5.84 -0.81,-0.53 -0.96,-0.83 -1.5,-1.77 -3.73,-6.51 1.74,-10.29 -1.29,-16.84 -1.56,-3.36 -5.19,-4.19 -6.24,-7.21 -0.87,-2.48 -0.25,-6.64 -2.31,-10.8 -1.23,-2.49 -3.98,-5.17 -7.45,-6.1 -1.69,-0.45 -4.41,-0.18 -6.09,0.1 -2.5,0.41 -3.89,0.02 -6.39,0.02 -3.91,-0 -7.25,2.48 -8.84,4.51 -2.18,2.8 -2.96,6.16 -3.18,10.57 -0.12,2.37 0.07,4.11 -1.04,5.95 -0.83,1.38 -1.88,2.61 -2.58,4.22 -2.94,6.71 3.77,10.89 -2.23,15.46 -0.63,0.48 -3.46,2.19 -4.24,2.41 -0.58,-0.73 -0.06,-0.45 -0.9,-0.98 -0.59,-0.38 -0.6,-0.35 -0.94,-0.96 -0.81,-1.46 -1.54,-0.96 -2.02,-1.83 -0.42,-1.18 1.15,-3.34 1.35,-5.3 0.31,-3.05 0.35,-9.09 -3.76,-9.12 -2.37,-0.02 -2.52,1.58 -3.28,3.26 -3.34,-0.68 -7.1,-4.66 -10.66,-4.03 -2.08,0.37 -2.94,2.55 -1.61,4.37 0.81,1.11 3.43,1.88 4.15,2.96 -0.93,0.54 -4.72,0.82 -2.98,4.91 0.69,1.62 -2.68,2.88 2.63,7.85 0.45,0.42 1.04,0.79 1.51,1.28 -0.17,1.5 -0.93,3.24 -1.19,5.13 -0.68,4.99 -0.7,11.01 1.3,15.45 3.5,7.75 10.25,5.5 16.58,4.22z"/>
   <path class="fil1" d="M51.54 65.58c-0.19,1.01 -0.81,2.6 -1.16,3.71 -0.29,0.9 -1.09,2.83 -1.2,3.65 0.03,-0.04 0.05,-0.11 0.06,-0.14l0.48 -0.77c0.38,0.75 -2.52,9.95 -2.96,11.39 -0.9,2.92 -3.3,8.49 -3.33,11.54 2.34,-0.16 10.8,0.11 12.24,-0.83l-1.16 -0.06c-0.96,-1.44 0.39,-5.3 0.7,-7.19 1.28,-7.72 2.02,-10.36 3.91,-17.61 0.19,-0.72 0.66,-2.77 1.23,-2.98 0.13,0.4 -0.51,2.24 -0.65,2.85 -0.28,1.19 -0.29,2.19 -0.45,3.42 -0.39,2.99 -0.84,11.07 -0.98,14.32 -0.05,1.2 -0.32,2.48 -0.42,3.6 -0.08,1.01 0.12,2.98 0.03,3.45 0.08,-0.01 0.92,-0.14 0.93,-0.14l0.79 0.33 2.09 -0.51c-1.21,-1.82 -0.81,-1.47 -0.55,-3.84 0.17,-1.53 0.36,-2.95 0.54,-4.31 0.49,-3.8 -1.96,-3.78 -1.5,-7.65 0.34,-2.9 0.7,-5.75 1.15,-8.75 0.27,-1.81 1.43,-7.09 1.2,-8.6 -1.52,-0.33 -4.37,1.66 -4.57,3.08 -0.17,1.22 -0.78,5.79 -1.72,6.04 -0.31,-0.72 0.04,-2.9 0.17,-3.7 0.23,-1.41 0.97,-2.73 -0.73,-2.71 -0.26,0.33 -1.23,2.62 -1.39,3.14l-2.31 11.55c-0.16,0.9 -2.57,14.43 -3.48,14.71 -0.67,-1.26 0.62,-5.92 0.84,-7.53l2.85 -14.19c0.31,-1.13 1.43,-6.23 0.35,-7.23 -0.54,0.81 -0.39,1.34 -0.97,1.97z"/>
   <path class="fil2" d="M31.01 90.17c0.43,-0.59 1.03,-0.74 1.69,-1.17 2.38,-1.56 6.01,-4.6 8.1,-6.52l3.03 -2.62c-0.15,0.58 -0.74,1.55 -1.04,2.09 -0.74,1.31 -0.91,0.32 -1.61,1.5 -0.84,1.42 -4.83,4.69 -6.28,5.79 -1.5,1.13 -1.8,1.97 -3.01,1.42l-0.88 -0.48zm12.54 -11.8c-0.21,-0.32 0.42,-0.41 -0.58,-0.23l-1.48 0.77c-0.53,0.26 -1.47,0.68 -2.06,0.68l2.4 -1.77 2.15 -0.76c0.77,-0.09 0.87,0.18 0.95,0.24 -0.18,0.91 -0.14,0.46 -0.42,0.65 -1.18,2.32 -10.03,7.67 -13.23,9.32 -1.13,0.58 -4.06,2.4 -5.15,2.03 0.31,-0.7 0.47,-0.52 1.21,-0.73 0.8,-0.23 2.45,-1.31 3.45,-1.83 2.16,-1.12 6.66,-4.07 8.72,-5.49 1.35,-0.93 2.85,-2.15 4.04,-2.9zm-22.72 2.37c0.72,-0.26 1.28,0.12 1.94,0.36 0.72,0.26 1.53,0.23 2.34,0.29 4.89,0.38 13.33,-5.01 17.36,-7.56 1.02,-0.65 5.46,-3.7 6.2,-3.87 -0.74,1.41 -5.94,4.24 -7.7,5.84 -0.64,0.58 -0.82,0.52 -1.62,0.95 -2.02,1.08 -1.86,1.67 -6.69,3.9 -0.68,0.31 -1.17,0.59 -1.9,0.8 -0.7,0.2 -1.37,0.23 -2.05,0.48 -1.25,0.47 -2.94,0.94 -4.39,0.56 -1.04,-0.27 -3.2,-0.94 -3.49,-1.77zm5.14 -0.18c-0.57,0.38 -1.29,0.02 -2.09,0.06 -1.14,-0.35 -2.27,-0.83 -2.89,-1.5 -0.23,-3.48 2.81,-5.02 2.77,-7.14 -0.09,-0.24 0.11,-0.15 -0.18,-0.15 -0.53,1.63 -2.24,2.73 -3.53,6.63 -1.2,3.63 1.17,3.96 2.21,4.61 0.67,0.41 0.64,0.66 1.13,1.19 2.84,0.62 5.64,-0.83 7.21,-0.94 1.41,-0.1 1.01,1.08 0.68,1.64 -0.4,0.67 -0.5,0.31 -1.07,0.82 -0.35,0.31 -0.47,0.58 -0.95,0.95 -0.31,0.24 -0.58,0.43 -1.01,0.7 -0.82,0.52 -1.6,0.82 -2.51,1.23 -1.36,0.62 -1.93,0.14 -3.24,0.41 -0.35,3.11 5.05,4.47 7.45,5 2.27,0.5 8.86,1.7 11.03,1.45 0.91,-1.05 3.72,-11.26 4.47,-13.56l4.34 -13.77c-1.27,0.46 -18.98,12.96 -23.82,12.38z"/>
   <path class="fil3" d="M51.54 65.58c0.58,-0.64 0.44,-1.16 0.97,-1.97 1.08,1.01 -0.03,6.1 -0.35,7.23l-2.85 14.19c-0.22,1.61 -1.5,6.27 -0.84,7.53 0.91,-0.29 3.32,-13.82 3.48,-14.71l2.31 -11.55c0.16,-0.52 1.13,-2.81 1.39,-3.14 1.71,-0.01 0.96,1.3 0.73,2.71 -0.13,0.8 -0.48,2.98 -0.17,3.7 0.94,-0.25 1.55,-4.82 1.72,-6.04 0.2,-1.42 3.05,-3.42 4.57,-3.08 0.23,1.51 -0.93,6.79 -1.2,8.6 -0.45,3 -0.81,5.85 -1.15,8.75 -0.46,3.87 2,3.85 1.5,7.65 -0.18,1.36 -0.37,2.78 -0.54,4.31 -0.26,2.37 -0.67,2.02 0.55,3.84 0.72,-0.01 1.37,-0.14 1.97,-0.29 -0.2,-1.44 -1.54,-0.18 -0.92,-5.9 0.13,-1.19 1.01,-5.89 0.94,-6.35 -0.47,-0.51 -1.82,-1.28 -2.03,-1.76 -0.26,-0.62 0.13,-2.56 0.21,-3.32 0.55,-5.42 0.73,-3.7 1.17,-6.3 0.24,-1.44 0.13,-2.36 0.29,-3.67 0.14,-1.08 0.39,-2.14 0.59,-3.2 0.18,-0.99 0.4,-2.12 0.57,-3.15 0.11,-0.66 0.18,-1.21 0.01,-1.82 -0.27,-1.02 -0.54,-0.69 -0.21,-1.05l-0.68 -1.16c-0.17,-0.25 -0.08,-0.14 -0.25,-0.31 0.05,0.72 0.09,0.38 0.26,1.09 -1.78,0.4 -1.92,1.55 -4.3,3.09 -3.39,2.19 -3.64,0.32 -5.76,0.38 -0.57,0.81 -0.63,1.92 -0.97,2.98 -0.25,0.8 -0.76,1.65 -1.04,2.73z"/>
   <path class="fil4" d="M29.57 64.41c0.02,0.21 -0.03,0.62 -0.02,0.66 0.35,1.24 -0.61,-0.92 0.22,0.28 0.26,0.38 0.31,0.74 0.23,1.21l0.12 11.95c0.54,-0.03 1.15,-0.33 1.69,-0.59 0.57,-0.27 0.98,-0.55 1.32,-1.03 -0.89,0 -0.7,-0.73 -0.85,-1.66l-1.88 -11.22c-0.26,-1.55 1.49,-2.86 2.92,-2.57 -0.08,-0.73 -0.19,-0.43 0.19,-0.98 1.22,0.58 0.59,3.36 0.6,4.81 0.01,0.88 -0.07,2.01 0.01,2.84l0.29 1.67c-0,0.05 -0.01,0.1 -0.02,0.15l-0.1 0.29c-0,-0.02 -0.04,0.1 -0.06,0.14l-0.5 -0.43c0.23,1.19 0.24,3.29 1.03,3.97 0.08,-1.99 0.21,-4.38 0.08,-6.35 -0.12,-1.82 -0.39,-4.07 -0.33,-5.89 0.37,-0.4 0.57,-0.37 0.99,-0.83 0.38,-0.42 0.37,-0.75 0.93,-1.04 0.05,0.61 -0.04,1.38 0.2,1.7 0.34,-1.61 -0.41,-1.83 -0.09,-3.31 0.82,0.29 0.83,1.76 0.84,2.74 0.02,1.64 0.55,4.64 0.82,6.39l0.76 2.87c-0.26,-3.36 0.32,-1.26 -0.53,-6.22 -0.2,-1.18 -0.8,-4.94 -0.76,-6.04 1,0.14 2.13,1.46 3.2,2.49 1.31,1.25 3.46,3.51 5.27,2.81 0.64,-0.25 1.32,-0.48 1.97,-0.73 0.64,-0.25 1.32,-0.69 2.11,-0.38 0.72,0.28 1.11,0.89 0.73,1.86 0.4,-0.32 0.11,0.27 0.45,-0.63l1.3 -4.68 -0.97 -1.08c-1.2,0.67 -1.85,2.86 -3.93,2.86 -2.2,-0 -8.31,-5.04 -10.15,-6.69 -0.36,-0.33 -1.31,-1.27 -1.73,-1.51 0.16,1.95 1.1,4.89 -2.36,6.65 -3.06,1.55 -4.3,0.96 -4,5.53z"/>
   <path class="fil5" d="M73.75 75.06c0.53,0.35 0.18,0.15 0.6,0.55 2.18,2.06 6.85,0.7 8.23,-1.74l1.33 -3.37 0.92 -5.3c0.19,-1.03 0.47,-4.03 1,-4.48 0.64,0.7 0.57,5.55 0.34,6.74 -0.24,1.25 -1.3,5.87 -1,6.66 0.04,0.01 0.09,0.04 0.11,0.05l0.45 -0.08c0.63,-0.63 2.3,-5.03 2.21,-6.14l0.37 -0.61c0.64,2.31 -0.03,3.98 -0.12,6.18 1.26,-0.03 1.57,-1.13 2.44,-1.71l0.61 -3.71c-0.2,0.26 -0,-0.22 -0.28,0.5 -0.39,1 0.06,-0.42 -0.13,1.05 -0.66,-0.12 -0.58,-0.21 -0.93,-0.86l-1.55 -3.36c-2,-0.39 -1.74,-0.83 -1.88,-2.88 -0.08,-1.2 0.22,-3.17 -0.9,-3.63 -0.83,0.84 -0.58,2.41 -0.78,3.7 -0.59,0.48 -0.91,0.7 -1.81,0.43 -0.53,-1.37 1.07,-2.54 0.16,-6.92 -0.17,-0.79 -0.43,-1.31 -0.4,-2.14l-3.28 -2.37c0.39,0.95 0.91,1.09 1.39,1.82 1.15,1.76 1.31,5.12 1.33,7.17 0.02,2.71 -0.27,14.17 -3.76,14.68 -1.82,0.27 -2.84,-1.34 -3.31,-2.52 -1.68,-4.25 -0.47,-7.79 -0.82,-10.51 -1.77,-0.17 -1.6,0.88 -1.63,2.43 -0.05,3.15 -0,7.76 1.11,10.35z"/>
   <path class="fil6" d="M18.86 44.22c-0.12,0.72 0.54,9.14 -0.2,14.25 -0.38,2.62 -0.33,4.06 -1.35,6.33 -0.77,1.72 -1.77,3.84 -3.57,4.08 -4.69,0.62 -6.29,-4.44 -6.71,-8.12 -0.67,-5.87 0.72,-11.46 0.39,-14.42 -0.96,0.09 -0.98,1.88 -1.13,2.83 -0.95,5.72 -1.38,12.2 1.34,17.5 0.47,0.91 1.09,1.8 1.76,2.37 0.62,0.53 2.08,1.23 2.95,1.23 1.55,0 2.44,0.64 3.68,-0.75 1.15,-1.29 1.72,-0.69 2.29,-2.39 0.6,-1.8 0.69,0.09 1.59,-3.12 0.22,-0.78 0.1,-1.35 0.17,-2.14 0.11,-1.25 0.85,-4.31 0.56,-6.59 -0.18,-1.44 -0,-2.9 -0.13,-4.31 -0.13,-1.38 -0.23,-2.73 -0.49,-4.06 -0.22,-1.16 0.15,-2.94 -0.99,-3.66l-0.15 0.98zm-2.28 -3.44c-0.37,1.35 1.54,5.34 1.4,7.1l0.18 -1.06c0.18,-1.13 -0.39,-6.41 -0.9,-7.05 -0.43,0.27 -0.54,0.56 -0.68,1.02zm-4.04 14.99l0.18 -0.14c-1.92,-0.54 -3.08,-3.98 -3.36,-5.96 -0.14,-1 0.06,-2.11 -0.18,-2.88l-0.84 0c-0.76,3.29 1.06,9.14 4.21,8.97zm-4.79 -10.62l1.2 0.28c-0.01,-1.42 -0.3,-0.91 -2.04,-1.78 -0.89,-0.45 -1.27,-0.94 -1.96,-1.58 -0.03,-0.02 -0.08,-0.07 -0.11,-0.1 -0.48,-0.24 -0.5,-0.28 -0.7,-0.88 0.29,-0.39 1.37,-0.25 1.84,-0.23 0.6,0.03 1.2,0.05 1.8,0.07l0.37 -2.65c-1.45,-0.24 -3.39,-0.71 -4.89,-0.63 -0.27,0.7 -1.12,1 -0.79,2.42 0.2,0.85 0.93,1.57 1.38,2.06 0.75,0.83 2.36,2.9 3.9,3zm-4.86 -16.09c0.18,-0.07 1.23,-0.86 1.42,-1.04 0.49,-0.48 1,-1.11 0.76,-1.91 -0.94,-0.73 -2.93,-0.86 -3.7,-0.02 -1.18,1.3 0.62,2.75 1.52,2.97zm0.21 7.72c0.69,0.03 3.22,0.13 3.73,0.09 0.86,-0.15 0.89,0.1 1.74,0.14 0.45,-0.85 1.22,-1.68 0.81,-3.04 -1.08,-0.58 -3.63,-1.2 -4.98,-0.78 -0.81,0.25 -1.37,0.53 -1.68,1.24 -0.55,1.28 0.15,1.71 0.37,2.35zm12.63 -10.44c-1.78,0.35 -1.77,1.24 -1.98,3.11 -0.07,0.6 -0.41,1.48 -0.12,2.1 0.44,0.93 2.28,1.57 3.68,-2.54 0.57,-1.68 0.78,-3.13 -1.58,-2.67zm39.27 -7.09l-0.39 -0.07c-0.23,0.54 -0.39,0.56 -0.5,1.13l1.37 0.4 -0.04 0.05 0.99 -0.34c0.23,-0.04 0.54,-0.06 0.85,-0.1l-0.26 -1.05c-0.69,-0.03 -1.44,0.01 -2.01,-0.02zm-14.21 4.14c0.47,0.1 1.1,0.55 1.71,0.75 0.9,0.29 1.17,-0.05 2.05,0.02 0.18,-0.33 0.24,-0.48 0.29,-1.01 -0.61,-0.12 -1.42,-0.16 -2.13,-0.22 -2.2,-0.2 -1.96,-0.27 -1.93,0.47zm3.71 -1.11l1.1 0.18 0.66 0.24 -0.12 -0.8c-0.13,-1.37 -1,-1.35 -2.27,-1.35 -1.48,0.27 -2.4,0.46 -3.12,1.42 1.75,-0.19 2.05,0.1 3.75,0.31zm4.46 16.13c-0.79,0.13 -1.36,0.41 -2.26,0.4 -1.32,-0.01 -1.45,-0.13 -2.81,0.07 0.35,1.18 2.21,2.59 3.06,3.41 2.26,0.47 4.31,1.67 6.79,0.27 0.97,-0.55 3.64,-2.83 3.65,-4.39l-8.43 0.23zm-3.93 8.05c0.33,0.22 1.18,1.18 1.61,1.54 0.45,0.38 1.46,1.18 2.01,1.33 0.83,-0.61 0.86,-1.84 1.5,-2.38 0.17,-0.4 0.1,-0.27 0.21,-0.65 -1.46,-0.02 -1.48,0.54 -2.81,0.58 -0.66,0.02 -0.99,-0.05 -1.54,-0.31 -1.08,-0.5 -0.87,-0.39 -0.98,-0.11zm10.84 -1.69c-0.29,0.98 -0.05,1.04 -0.12,1.74 -0.09,0.91 0.16,-0.65 -0.06,0.32l-0.11 0.29c-1.11,0.23 -1.46,-0.6 -2.48,-0.85 -0.27,0.28 -0.11,0.02 -0.2,0.57 0.24,0.86 0.49,1.91 1.28,2.38 1.27,-0.13 3.35,-2.37 3.72,-2.92l0.01 -1.09c-0.49,-0.43 -0.07,-0.04 -0.43,-0.21 -0.21,-0.09 -0.38,0.48 -0.34,-1.2l-0.5 0.06c-0.38,0.22 -0.59,0.41 -0.77,0.91zm8.62 -2.89c1.09,0.26 1.18,0.06 2.63,-0.79 0.5,-0.29 0.53,-0.31 0.78,-0.95 0.23,-0.6 0.11,-0.68 0.53,-1.4 0.02,-0.04 0.06,-0.1 0.09,-0.14 0.21,-1.03 0.43,-1.46 -0.28,-2.26 -1.38,-0.3 -2.57,0.83 -3.14,1.64 -0.5,0.71 -1.19,2.85 -0.6,3.89zm1.39 4.73c-0.76,1.53 -0.06,3.12 0.69,4.05l1.37 -0.16c0.94,0.21 6.16,-1.54 5.22,0.25l-0.72 0.16c-0.06,0 -0.76,-0 -0.87,-0 -0.69,-0.01 -1.06,-0.07 -1.69,0.06 -0.67,0.14 -2.47,0.34 -2.84,0.7 -0.26,0.42 0.12,0.14 -0.34,0.5 0.43,0.88 0.33,1.35 0.9,2.29 0.33,0.56 0.7,1.55 1.38,1.91 0.75,0.18 1.67,-0.17 2.42,-0.3l2.17 -0.15c0.59,0.16 0.16,-0 0.43,0.2 -0.44,1.09 -3.93,0.86 -4.85,1.13 -0.31,1.14 0.68,1.86 1.55,2.32 1.17,0.62 1.86,0.62 3.22,0.41 0.62,-0.05 1.2,-0.52 1.54,-0.94 0.53,-0.65 0.27,-1.3 0.43,-2.04l-0.63 -2.3c0.23,-2.56 -0.63,-3.17 -0.91,-4.08 -0.45,-1.42 1.05,-2.96 -0.26,-4.08 -1.78,-1.51 -6.47,-0.86 -8.21,0.07zm25.36 21.5c0.3,-3.86 0.61,-6.61 -0.86,-9.82 -1.13,-2.47 -2.34,-1.35 -3.68,-2.27 -0.66,-0.45 -0.76,-0.85 -1.75,-1.19 -0.98,-0.33 -1.41,-0.51 -2.22,-0.82 -0.03,0.83 0.24,1.35 0.4,2.14 0.92,4.38 -0.69,5.55 -0.16,6.92 0.9,0.28 1.23,0.06 1.81,-0.43 0.2,-1.29 -0.05,-2.87 0.78,-3.7 1.12,0.47 0.82,2.43 0.9,3.63 0.14,2.04 -0.12,2.49 1.88,2.88l1.55 3.36c0.34,0.65 0.26,0.74 0.93,0.86 0.18,-1.47 -0.26,-0.06 0.13,-1.05 0.28,-0.72 0.08,-0.25 0.28,-0.5zm-27.62 22.61c-0.05,1.09 1.19,1.63 2.49,1.52 0.56,-0.05 2.46,-0.65 3.18,-0.89 1.73,-0.57 4.04,-1.87 5.08,-2.86 -0.29,-0.24 0.13,-0.14 -0.58,-0.18 -2.36,-0.11 -5.19,0.97 -7.29,1.97 -1.45,0.69 -1.16,0.53 -2.87,0.44zm-0.56 -12.56c-2.36,2.17 6.63,2.71 8.05,2.8 1.65,0.11 2.2,0.6 3.29,0.76 -0.05,-5.66 -1.34,-4.96 -2.17,-7.38 -0.68,0.22 -0.56,0.25 -1.14,0.71 -0.34,0.27 -0.63,0.45 -1.01,0.7 -1.39,0.91 -1.94,1.92 -4.21,2.27 -1.6,0.25 -1.15,0.27 -2.8,0.13zm-24.09 -8l-0.04 1.08c-0.53,-0.31 -0.43,-0.32 -0.68,-1.01 -0.15,-0.41 -0.26,-0.67 -0.4,-1.12 -0.49,-1.55 -1.33,-6.21 -1.21,-7.63 -0.24,-0.33 -0.15,-1.09 -0.2,-1.7 -0.56,0.29 -0.55,0.62 -0.93,1.04 -0.42,0.46 -0.62,0.43 -0.99,0.83 -0.06,1.82 0.21,4.07 0.33,5.89 0.13,1.97 0,4.36 -0.08,6.35 -0.78,-0.68 -0.8,-2.78 -1.03,-3.97 -0.34,-2.52 -0.56,-5.82 -0.42,-8.49 -1.43,-0.28 -3.18,1.03 -2.92,2.57l1.88 11.22c0.14,0.93 -0.04,1.66 0.85,1.66 2.57,-0.94 7.67,-3.94 9.98,-5.43l6.89 -4.77c0.38,-0.37 1.07,-2.06 0.96,-2.74 0.38,-0.97 -0.01,-1.58 -0.73,-1.86 -0.79,-0.3 -1.47,0.13 -2.11,0.38 -0.65,0.26 -1.33,0.49 -1.97,0.73 -1.81,0.7 -3.96,-1.56 -5.27,-2.81 -1.07,-1.02 -2.2,-2.34 -3.2,-2.49 -0.04,1.1 0.56,4.85 0.76,6.04 0.84,4.96 0.27,2.85 0.53,6.22zm9.3 -47.41l-0.12 0.74 -0.48 -0.05c-0.02,0.06 -0.05,0.13 -0.07,0.2 0.02,-0.07 0.04,-0.14 0.07,-0.2l0.1 -0.22c-0.48,0.11 -0.05,0 -0.35,0.14 -0.06,0.03 -0.18,0.27 -0.24,0.13 -0.02,-0.04 -0.08,0.05 -0.13,0.07 -0.38,0.37 -0.11,0.13 -0.37,0.5l-0.33 0.43 -0.3 0.07c-0.04,0.01 -0.09,0.01 -0.13,0.02 -0.25,0.03 -0.38,0.03 -0.61,0.07 -1.16,0.21 -1.89,0.58 -3.44,0.21 -1.24,-0.07 -3.37,1.54 -4,2.21 -0.56,0.6 -0.8,1.22 -0.85,2.39 -0.06,1.31 0.36,1.4 0.57,2.24 0.82,0.33 1.06,0.73 2.36,0.51 0.72,-0.12 2.2,-0.18 2.74,-0.43 0.62,-0.04 2.63,-1.29 4.21,-1.41l-0.28 1.37 0.52 -0.24c0.36,-0.33 -0.31,-0.06 0.48,-0.3 0.67,-0.2 1.17,0.13 1.65,0.29l0.07 -0.3 0.14 -0.42c0.81,0.14 0.53,0.74 1.83,1 0.84,0.3 0.33,0.33 1.03,0.61 0.81,-0.35 0.37,-0.48 1.37,-0.66 0.52,-0.64 0.66,-0.36 1.3,-0.61l-0.69 -1.49 0.99 0.25 4.37 1.19c1.2,-0.05 2.56,0.59 3.64,-0.78l0.27 -0.35 -0.13 -0.3c-0.24,-1.91 0.09,-2.7 -1.34,-3.74 -1.03,-0.74 -2.79,-1.49 -4.11,-0.69 -0.42,0 -0.8,0.3 -1.55,0.35 -0.53,0.03 -1.37,-0.08 -1.9,-0.19 -1.4,-0.28 -0.91,-1.08 -2.04,-1.67 0.16,1.59 1.28,2 1.02,4.07 -0.55,0.23 0.07,0.01 -0.39,-0.03l-0.19 -0c-0.01,-0.03 -0.07,-0 -0.14,0.02l0.15 0.96c-0.02,0.75 0.09,0.58 -0.16,0.97 -0.45,-0.36 -0.2,0.04 -0.42,-0.68l-0.41 -2.17c-0.32,-0.45 -0.3,-0.88 -0.25,-1.38 0.09,-0.82 0.19,-0.67 0.07,-1.58 -0.45,-1.82 -0.87,-1.83 -0.52,-4.14l0.6 -1.13 0 0c0.04,-0.03 0.09,-0.13 0.11,-0.09 0,0 0.75,-0.81 2.31,-1.34 1.14,-0.39 2.48,-0.25 3.73,0 0.06,-0.13 0.17,-0.07 -0.08,-0.45 -2.23,-0.67 -4.47,0.37 -5.52,0.06 -0.15,-0.8 -0.16,-0.66 0.11,-1.24 1.18,-0.1 4.86,-1.11 6.91,1.09l0.62 0.63c0.02,-0.01 0.04,-0.01 0.06,-0.02 -0.02,0.01 -0.04,0.02 -0.06,0.02 0.14,0.37 -0.09,0.18 0.3,0.54 0.57,-0.07 0.78,-2.19 0.92,-2.76 0.39,-1.58 0.26,-2.06 -0.06,-3.55 0.19,-0.72 -0.51,-2.09 -0.77,-2.72 -0.58,-1.36 -0.48,-1.63 -1.46,-2.49 -1.44,-1.26 -2.79,-2.38 -5.45,-2.41l3.31 1.88 -3.31 -1.88c-1.6,0.04 -3.39,0.38 -4.78,0.36 -0.89,-0.01 -1.54,-0.27 -2.38,-0.23 -0.54,0.02 -1.31,0.24 -1.83,0.29l-0 -0.01 -0 -0.01 -0 -0.01 -0 -0.01 -0 -0.01c-0.01,-0.02 -0.02,-0.03 -0.02,-0.03 -0,0 -0,0 -0,0.01l-0 0.01 0 0.01c0,0.02 0.01,0.05 0.02,0.09l0 0 -0.01 -0.04c-0.06,0 -0.11,0.01 -0.16,0l-0 -0 -0.36 0.07c-1.46,1.8 -2.98,0.32 -5.27,5.54 -0.85,1.93 -1.15,4.79 -0.41,7.03 0.29,0.89 0.11,1.47 0.98,1.65 0.49,-0.08 0.7,-0.2 1.06,-0.63l-0.27 -0.1 0.27 0.1c0.4,-0.03 0.83,-0.21 1.25,-0.4 1.28,-0.09 2.36,-0.24 3.7,-0.05 1.59,0.23 2.01,0.56 2.9,1.22l0 0c0.09,0.98 1.96,1.67 1.58,3.84 0.25,0.17 0.22,-0.22 0.2,0.26l-0.17 0.63c-0.76,-0.39 -0.49,-1.08 -1.51,-0.69z"/>
   <path class="fil1" d="M7.65 59.6l-0.07 -3.36c0.72,0.72 0.16,1.21 0.53,2.74 0.03,0.13 0.55,2.24 0.61,2.36l1.42 1.71c0.45,0.51 1.04,0.93 2.02,1.14 2.44,0.52 3.04,-0.28 4.12,-1.77 1.25,-1.72 1.15,-2.92 1.52,-5.04l0.43 -0.09c0.27,-1.85 -0.06,-2.75 0.23,-4.07 0.05,-0.23 0.12,-0.28 0.12,-0.58 0,-1.02 0.13,0.69 -0.03,-0.27 -0.01,-0.04 -0.04,-0.1 -0.04,-0.13 -0.01,-0.03 -0.03,-0.09 -0.05,-0.13 -0.5,0.35 -0.6,0.94 -0.93,1.52 -1.62,2.88 -4.94,4.73 -8.02,1.57 -0.49,-0.5 -0.81,-0.84 -1.07,-1.52 -0.14,-0.36 -0.18,-0.55 -0.25,-0.9 -0.18,-0.94 0.12,-0.73 -0.44,-0.87 -0.21,0.58 -0.23,2.98 -0.34,3.89 -0.13,1.1 -0.05,1.91 0.05,2.94 0.02,0.21 0.01,0.27 0.05,0.48 0.1,0.44 -0.05,0.11 0.15,0.39z"/>
   <path class="fil2" d="M11.77 29.5c0,0.29 -0.77,4.04 -0.98,4.07 0.22,0.26 -0.38,0.29 0.44,0.22 0.12,-0.71 -0.02,-2.37 0.7,-2.58 0.69,1.8 -0.99,2.67 1.32,3.83 1.78,0.89 1.04,2.13 0.87,4.06 -1.68,-0.3 -0.97,0.01 -1.33,1.47 -0.2,0.81 -0.8,1.43 -1.63,1.6 -0.62,0.12 -5.6,-0.06 -6.34,-0.18 0.03,0.04 0.08,0.08 0.11,0.1 0.69,0.64 1.06,1.13 1.96,1.58 1.74,0.87 2.03,0.36 2.04,1.78l-1.2 -0.28c0.61,0.67 2.5,0.56 3.37,0.46 1.08,-0.12 2.08,-0.57 2.65,-1.13 0.97,-0.96 1.36,-2.88 2.78,-4.91 1.13,-1.61 1.97,-3.09 2.28,-5.27 0.18,-1.24 0.01,-4.66 -0.43,-5.8 -0.28,-0.7 0.04,-0.28 -0.47,-0.63 -0.22,1.96 -0.51,3.77 -1.92,4.78 -0.61,0.43 -1.61,0.58 -2.37,0.05 -0.94,-0.65 -0.7,-1.48 -0.67,-2.76l-1.19 -0.45zm-2.6 17.31c0.25,0.77 0.04,1.89 0.18,2.88 0.28,1.98 1.44,5.42 3.36,5.96l-0.18 0.14c0.66,0.61 1.93,-0.26 2.49,-0.69 1.64,-1.28 2.4,-2.78 2.84,-4.85l0.45 -2.45c0.07,-0.8 -0.12,-0.89 -0.16,-0.97l-0.18 1.06c0.14,-1.76 -1.77,-5.75 -1.4,-7.1 -0.6,0.51 -0.31,1.15 -0.93,2.5 -1.13,2.46 -3.48,4.03 -6.47,3.52z"/>
   <path class="fil7" d="M40.82 36.52c-0.17,0.15 -0.11,0.07 -0.29,0.3l-0.72 1.33 -0.11 -0.93 -0.23 -0.01c-0.05,0.91 -0.16,3.13 -0.97,3.52 -0.13,-1.37 0.48,-1.76 0.24,-3.99 -0.2,-1.83 -0.01,-1.12 0.33,-1.3 -0.45,-1.05 -1.33,-2.56 -1.47,-3.73 -0.21,-0.84 -0.63,-0.93 -0.57,-2.24 0.05,-1.17 0.29,-1.79 0.85,-2.39 0.63,-0.67 2.76,-2.28 4,-2.21l-0.48 -0.33c-0.39,-0.3 -0.77,-0.67 -0.96,-1.15l0.36 0.01c-0.03,-0.73 -0.27,-0.67 1.93,-0.47 0.7,0.06 1.51,0.1 2.13,0.22 -0.04,0.53 -0.11,0.68 -0.29,1.01 0.92,0.19 0.9,0.03 1.74,-0.01l0.05 0.33 0.33 -0.43c0.26,-0.36 -0.02,-0.13 0.37,-0.5 -0.7,-0.01 -0.39,-0 -1.06,-0.19 -0.48,0.56 -0.06,0.22 -0.47,0.37 0.03,-0.58 0.23,-0.61 0.72,-0.82 -0.75,-0.27 -0.32,-0.13 -0.64,-0.45l-1.1 -0.18 0.55 0.45c-1.45,0.43 -2.86,-0.4 -4.33,-0.01 -0.48,0.13 -2.7,1.06 -3.06,1.28 -0.16,-0.23 -0.08,-0.18 -0.25,-0.46 -0.34,-0.57 -0.18,-0.07 -0.4,-0.72 1.04,-0 1.4,0.51 2.27,-0.01 -0.8,-0.44 -0.77,0.08 -1.25,-0.82l1.79 0.2c1.1,-1.13 0.72,-1.19 2.45,-1.9 1.35,-0.55 2.06,-0.47 3.66,-0.51 0.18,-0.2 0.27,0.2 0.04,-0.52 -0.67,-0.44 -0.3,-0.67 -1.66,-0.83 -3.17,-0.36 -4.05,0.97 -5.53,1.67 -0.09,-0.79 0.21,-0.94 0.49,-1.53 -0.87,-0.18 -0.69,-0.76 -0.98,-1.65 -0.74,-2.24 -0.44,-5.09 0.41,-7.03 2.29,-5.21 3.81,-3.74 5.27,-5.54 -8.8,2.06 -6.25,11 -7.25,18 -0.79,5.48 -1.43,5.63 0.5,10.61 2.01,5.18 -0.65,5.8 0.6,7.73 0.54,0.83 0.55,1.71 1.45,1.77l1.55 -5.95z"/>
   <path class="fil7" d="M20.94 63.8c-0.45,0.52 -0.39,1.09 -0.54,1.76 -0,0.01 -0.19,0.57 -0.27,0.66l-0.6 0.47 0.8 -0.14c-0.37,1.55 -0.92,1.53 -1.57,2.51l-0.28 -0.17 -0.18 0.21c-1.37,1.77 -1.15,0.09 -2.25,1.52 2.79,-0.27 3.3,-0.34 4.79,-2.51 0.75,-1.11 1.66,-4.17 1.86,-5.79l0.3 0.03 0.86 2.75c0.48,0.13 0.48,-0 0.74,0.08 -0.56,0.91 -1.12,1.44 -1.07,2.83 1.32,0.14 2.85,-2.19 2.63,0.68 -0.13,1.76 -0.04,1.32 0.21,1.62 0.26,-0.59 0.47,-1.33 0.85,-1.77 0.7,-0.8 0.92,-1.29 1.22,-1.43 -0.49,1.24 -1.4,10.01 -1.04,11.21l0.28 0.08c0.24,-0 0.27,0.06 0.69,-0.28 1.37,1.1 0.3,0.67 0.84,-1.28l0.24 -10.24c0.14,-0.03 0.16,-0.21 0.55,-0.05 0.08,-0.47 0.03,-0.83 -0.23,-1.21 -0.83,-1.2 0.13,0.96 -0.22,-0.28 -0.01,-0.04 0.04,-0.44 0.02,-0.66 -0.3,0.29 -0.24,0.3 -0.52,0.73l-1.31 1.49c-0.61,0.43 -0.63,0.31 -1,0.07l0.13 -1.87c-8.69,-4.21 3.42,-8.95 -2.32,-11.31 -1.33,-0.55 -0.95,-0.67 -1.87,-1.1 -0.21,4.19 0.16,7.55 -1.22,11.51l-0.42 0.99c-0.18,0.27 -0.11,0.17 -0.29,0.35l0.19 -1.46z"/>
   <path class="fil8" d="M55.68 94.12c0.76,0.12 1.43,-0.06 2.2,-0.19 0.09,-0.48 -0.11,-2.45 -0.03,-3.45 0.09,-1.11 0.37,-2.4 0.42,-3.6 0.14,-3.26 0.59,-11.33 0.98,-14.32 0.16,-1.22 0.17,-2.23 0.45,-3.42 0.14,-0.61 0.78,-2.45 0.65,-2.85 -0.57,0.22 -1.04,2.27 -1.23,2.98 -1.89,7.25 -2.62,9.89 -3.91,17.61 -0.31,1.89 -1.66,5.74 -0.7,7.19l1.16 0.06z"/>
   <path class="fil9" d="M63.99 68.12l0.56 -0.95 -0.49 4.27c0.71,-0.26 0.93,-0.72 1.62,-1.02 1.75,-0.77 0.9,-0.57 1.72,-1.02 0.45,-0.25 3.62,-1.1 4.28,-1.16l0.01 -5.73c-0.21,-0.11 0.02,-0.07 -0.45,-0.13 -0.26,-0.03 -0.23,-0.02 -0.49,0 -0.31,0.02 -0.62,0.1 -0.91,0.12 -2.85,0.22 -3.16,-1.33 -4.22,-1.7 -0.79,0.87 -1.48,5.83 -1.62,7.31z"/>
   <path class="fil1" d="M74.86 67.45l-0.04 -1.67 0.89 2.64c0.72,2.16 2.79,2.78 4.04,1.27 0.44,-0.53 0.8,-2.04 1.29,-2.34l-0.09 0.83c0.76,-0.77 0.49,-2.79 0.55,-3.77 0.09,-1.53 0.45,-2.55 -0.06,-3.85 -0.97,0.4 -0.52,0.93 -2.74,1.26 -1.08,0.16 -2.62,-0.04 -3.68,0.18 -0.19,0.75 -0.19,1.77 -0.33,2.63 -0.13,0.84 -0.25,2.02 0.17,2.83z"/>
   <path class="fil4" d="M60.35 17.8c0.16,0.43 0.31,0.85 0.39,1.27 0.04,0.22 0.08,0.48 0.06,0.71l-0.06 0.27c-0.01,0.03 -0.04,0.15 -0.05,0.12 -0,-0.02 -0.03,0.08 -0.05,0.12 -1.13,-1.54 0,-2.64 -2.71,-3.59 0.25,0.37 0.14,0.32 0.08,0.45 -1.25,-0.26 -2.58,-0.4 -3.73,-0 -1.55,0.54 -2.31,1.34 -2.31,1.34 -0.02,-0.03 -0.07,0.06 -0.11,0.09l-0.6 1.13c0.32,-0.16 0.16,-0.1 0.66,-0.17l0.02 1.49c0.04,-0.04 0.1,-0.08 0.13,-0.1l0.42 -0.3c-0.01,-0.51 1.03,-1.39 1.64,-1.67 0.62,-0.27 2.15,-0.54 2.96,-0.48 1.64,0.12 2.87,1.51 3.16,2.15 0.14,0.31 0.14,0.28 0.12,0.68 -0.04,0.69 -0.04,0.42 -0.18,0.61 0.13,0.48 0.01,0.3 0.34,0.79 0.44,-0.43 0.13,0.02 0.11,-1.16 0.93,0.51 1.85,2.62 2.17,3.55 0.24,0.71 1.37,2.09 0.9,3.94 -0.26,1.03 0.22,-0.62 -0.11,0.29l-0.14 0.26 0.13 0.3c-0.03,1.77 -0.62,1.82 -1.33,2.94 -0.94,-0.5 -0.21,-0.72 -1.41,-0.98 0.1,0.19 0.23,0.35 0.24,0.57 0.03,0.68 0.27,0.26 -0.24,0.46 0.03,0.04 0.09,0.04 0.1,0.1 0.04,0.16 0.68,0.43 0.9,1.1 0.51,1.53 -1.16,1.51 0.55,5.02 0.54,-0.18 0.12,0.03 0.47,-0.67 0.18,1.58 0.32,1.45 -0.16,2.98 0.57,-0.46 0.6,-1.05 0.54,-1.85 -0.13,-1.99 -0.84,-2.74 0.15,-5.8 0.44,-1.35 1,-1.86 1.18,-3.46 0.15,-1.31 -0.24,-2.7 -0.57,-3.84 -0.62,-2.17 -1.63,-4.39 -1.85,-6.86 -0.07,-0.76 -0.43,-7.06 -0.65,-7.61 -0.18,-0.45 -0.02,-0.21 -0.33,-0.53 0.32,1.48 0.46,1.97 0.06,3.55 -0.14,0.57 -0.35,2.68 -0.92,2.76z"/>
   <path class="fil2" d="M75.26 54.72l0.63 2.3c0.13,-1.12 0.02,-0.35 0.32,-0.65 1.63,2.72 -0.05,2.74 -0,4.81 1.52,0.22 3.83,-0.05 4.53,-1.06 0.94,-1.35 0.45,-3.37 -0.04,-4.71 -0.51,-1.4 -4.55,-6.26 -5.48,-6.21 -0.23,1.13 1.25,2.9 0.51,4.89 -0.35,0.95 0.02,0.24 -0.46,0.64z"/>
   <path class="fil10" d="M29.2 76.85c-0.53,1.95 0.53,2.38 -0.84,1.28 -0.43,0.35 -0.46,0.28 -0.69,0.28l-0.28 -0.08c-0.36,-1.21 0.55,-9.98 1.04,-11.21 -0.3,0.14 -0.52,0.64 -1.22,1.43 -0.39,0.44 -0.6,1.17 -0.85,1.77 -0.25,-0.3 -0.34,0.14 -0.21,-1.62 0.21,-2.87 -1.31,-0.54 -2.63,-0.68 -0.04,-1.39 0.51,-1.92 1.07,-2.83 -0.25,-0.09 -0.25,0.04 -0.74,-0.08l-0.86 -2.75c0.16,5.1 -1.67,5.67 -2.24,7.52 1.48,-0.07 2.95,-1.37 4.39,-0.86 0.07,2.01 -0.83,9.46 -0.18,10.57 0.9,0.58 2.37,0.01 3.34,-0.26 1.78,-0.5 1,-2.34 0.9,-2.47z"/>
   <path class="fil11" d="M7.65 59.6c-0.44,3.75 2.16,9.29 6.22,8.48 3.07,-0.61 4.08,-8.53 4.36,-10.8l-0.43 0.09c-0.37,2.11 -0.27,3.32 -1.52,5.04 -1.08,1.49 -1.67,2.29 -4.12,1.77 -0.98,-0.21 -1.57,-0.63 -2.02,-1.14l-1.42 -1.71c-0.06,-0.12 -0.57,-2.23 -0.61,-2.36 -0.36,-1.53 0.19,-2.01 -0.53,-2.74l0.07 3.36z"/>
   <path class="fil12" d="M18.86 44.22l0.15 -0.98c1.14,0.73 0.77,2.5 0.99,3.66 0.26,1.33 0.36,2.67 0.49,4.06 0.13,1.41 -0.05,2.87 0.13,4.31 0.28,2.28 -0.46,5.34 -0.56,6.59 -0.07,0.79 0.05,1.37 -0.17,2.14 -0.9,3.21 -0.99,1.32 -1.59,3.12 -0.56,1.7 -1.14,1.1 -2.29,2.39 -1.24,1.4 -2.13,0.76 -3.68,0.75 0.73,0.72 2.7,0.38 3.73,0.35 1.1,-1.43 0.88,0.25 2.25,-1.52l0.18 -0.21c0.25,-1.04 1.11,-1.37 1.05,-2.2l0.6 -0.47c0.08,-0.1 0.27,-0.65 0.27,-0.66 0.14,-0.67 0.09,-1.24 0.54,-1.76 0.33,-4.23 1.5,-6.35 0.92,-12.42 -0.25,-2.6 -1.64,-9.06 -3.31,-10.15 -0.02,0.52 -0.01,1.06 0.01,1.58 0.01,0.28 -0,0.47 0.05,0.75l0.25 0.66z"/>
   <path class="fil12" d="M2.89 29.06c0.38,0.49 1.24,0.75 2.02,1.21 0.65,0.38 1.23,0.81 1.82,1.26 1.7,-0.37 3.03,-1.7 3.75,-2.04 -0.22,0.97 -0.74,1.45 -1.34,1.82 -0.57,0.35 -1.81,0.49 -2.02,1.15 0.44,0.3 3.2,1.02 3.67,1.11 0.21,-0.03 0.98,-3.78 0.98,-4.07 -2.41,-0.88 -4.1,-2.52 -6.7,-3.38 0.24,0.8 -0.26,1.44 -0.76,1.91 -0.19,0.18 -1.24,0.96 -1.42,1.04z"/>
   <path class="fil13" d="M23.4 84.24c0.15,2.68 -0.74,2.89 -0.9,4.81 1.32,-0.28 1.88,0.21 3.24,-0.41 0.91,-0.41 1.69,-0.71 2.51,-1.23 0.43,-0.27 0.7,-0.46 1.01,-0.7 0.48,-0.37 0.6,-0.64 0.95,-0.95 0.57,-0.5 0.67,-0.15 1.07,-0.82 0.33,-0.56 0.73,-1.74 -0.68,-1.64 -1.57,0.11 -4.37,1.56 -7.21,0.94z"/>
   <path class="fil12" d="M39.27 18.57c0.49,-0.08 0.7,-0.2 1.06,-0.63l-0.27 -0.1c1.77,-2.56 1.49,-1.42 0.87,-4.68 -0.31,-1.64 -0.28,-4.69 0.97,-5.68 -0.18,-0.2 -0.5,-0.29 -0.66,-0.63 0.74,-0.85 0.31,-0.72 1.58,-1.13 0.92,-0.29 1.11,-0.71 1.79,-1.1 -0.33,-0.8 0.17,-0.1 -0.28,-0.32l-0.36 0.07c-1.46,1.8 -2.98,0.33 -5.27,5.54 -0.85,1.93 -1.15,4.79 -0.41,7.03 0.29,0.89 0.11,1.47 0.98,1.65z"/>
   <path class="fil14" d="M20.84 80.74c0.29,0.83 2.45,1.5 3.49,1.77 1.45,0.37 3.15,-0.09 4.39,-0.56 0.68,-0.26 1.35,-0.28 2.05,-0.48 0.73,-0.21 1.22,-0.49 1.9,-0.8 4.82,-2.23 4.67,-2.82 6.69,-3.9 0.79,-0.43 0.97,-0.37 1.62,-0.95 1.76,-1.6 6.97,-4.42 7.7,-5.84 -0.74,0.16 -5.18,3.22 -6.2,3.87 -4.03,2.55 -12.47,7.93 -17.36,7.56 -0.81,-0.06 -1.62,-0.03 -2.34,-0.29 -0.66,-0.24 -1.22,-0.62 -1.94,-0.36z"/>
   <path class="fil9" d="M64.43 81.97l0.49 -0.4c0.2,2.14 -0.42,3.7 -0.32,5.61 0.65,-0.03 1.66,-0.75 2.48,-1 0.34,0.21 0.18,0.04 0.26,0.41 0.84,-0.22 4.26,-1.2 4.63,-1.88 -0.72,-0.33 -0.7,0.11 -1.32,-0.58 0.54,-1.44 1.62,-0.06 1.8,-1.65 -3.45,-0.8 -2.84,0.9 -4.3,0.49 -0.86,-0.24 -1.08,-0.91 -1.53,-1.13 -0.53,-0.26 -0.69,-0.09 -1.19,-0.24 -0.91,-0.26 0.17,-0.2 -0.88,-0.4l-0.12 0.75z"/>
   <path class="fil15" d="M63.62 90.72c1.71,0.1 1.42,0.25 2.87,-0.44 2.1,-1 4.93,-2.08 7.29,-1.97 0.71,0.03 0.29,-0.06 0.58,0.18 0.6,-0.24 0.3,0.02 0.48,-0.7 0.17,-0.67 0.09,-2.22 0.01,-2.9 -0.69,-0.04 -2.01,0.97 -2.82,1.34 -1,0.46 -2.05,0.82 -3.08,1.17 -2.05,0.69 -4.93,1.49 -5.35,3.33z"/>
   <path class="fil16" d="M49.18 72.93c-0.86,4.28 -6.74,21.27 -6.76,22.61 3.63,0.86 16.44,-1.46 17.18,-1.42l-0.79 -0.33c-0.02,-0 -0.85,0.13 -0.93,0.14 -0.77,0.14 -1.44,0.32 -2.2,0.19 -1.44,0.93 -9.91,0.67 -12.24,0.83 0.03,-3.05 2.43,-8.63 3.33,-11.54 0.44,-1.43 3.35,-10.63 2.96,-11.39l-0.48 0.77c-0.02,0.03 -0.04,0.1 -0.06,0.14z"/>
   <path class="fil11" d="M74.86 67.45c-0.16,1.92 0.23,2.84 0.7,4.56 0.38,1.38 1.32,2.73 3.09,2.61 1.32,-0.98 2.06,-4.56 2.29,-6.45l0.09 -0.83c-0.49,0.3 -0.85,1.81 -1.29,2.34 -1.25,1.51 -3.32,0.9 -4.04,-1.27l-0.89 -2.64 0.04 1.67z"/>
   <path class="fil1" d="M64.76 75.28c2.07,-0.94 4.47,-2.32 6.74,-3.01 0.35,-0.11 0.22,-0.03 0.43,-0.17 -0.07,-0.66 -0.13,-1.33 -0.16,-1.97 -0.06,-1.41 0.23,-1.29 -0.27,-1.8l0.08 1.15c-1.89,0.43 -3.46,1.01 -4.75,1.84 -1.47,0.95 -2.94,1.51 -3.13,3.78l0.94 -0.21 0.12 0.4z"/>
   <path class="fil12" d="M41.58 17.53c1.28,-0.09 2.36,-0.24 3.7,-0.05 1.59,0.23 2.01,0.56 2.9,1.22l0.12 -0.44 3.44 -0.03c0.25,0.19 0.08,-0.12 0.13,0.35 0.04,-0.03 0.09,-0.13 0.11,-0.09 0,0 0.75,-0.81 2.31,-1.34 1.14,-0.39 2.48,-0.25 3.73,0 0.06,-0.13 0.17,-0.07 -0.08,-0.45 -2.23,-0.67 -4.47,0.37 -5.52,0.06 -0.15,-0.8 -0.16,-0.66 0.11,-1.24l-5.92 0.45c-2.94,0.45 -2.06,0.48 -3.91,0.98 -0.06,0.02 -0.59,0.17 -0.63,0.19 -0.35,0.18 -0.25,0.14 -0.48,0.38z"/>
   <path class="fil4" d="M73.92 60c-0.12,0.12 0.08,0.19 -0.85,0.43 -3.2,0.8 -4.45,0.09 -5.68,-2.34l0.3 -0.35c0.02,-0.08 0.09,-0.08 0.13,-0.11 -2.21,0.36 -1.42,-0.33 -2.47,0.54 -0.19,2.24 1.68,3.33 3.91,3.75 1.89,0.36 5.25,-0.06 6.54,-0.83l0.09 -4.07c-0.16,0.75 0.1,1.4 -0.43,2.04 -0.35,0.42 -0.93,0.89 -1.54,0.94z"/>
   <path class="fil17" d="M58.39 38.6c-0.82,0.73 -2.25,3.38 -4.3,4.53 -1.64,0.92 -5.5,1.23 -7.01,-0.03 -0.28,-0.23 -0.11,-0.08 -0.3,-0.32 -1.15,-0.09 -3.6,-3.12 -4.24,-4.27 -0.34,-0.62 -0.06,-0.47 -0.8,-0.66 0.13,2.11 3.71,6.13 5.04,6.19 1.8,0.65 3.93,0.85 5.89,0.6 1.11,-0.14 2.61,-1.14 3.55,-1.88l0.21 -0.16c0.29,-0.21 -0.02,-0.04 0.37,-0.24l0.63 -0.91 0.98 -1.4c0.35,-0.56 0.56,-1.1 0.66,-1.78l-0.68 0.33z"/>
   <path class="fil14" d="M31.01 90.17l0.88 0.48c1.2,0.55 1.51,-0.29 3.01,-1.42 1.45,-1.1 5.44,-4.37 6.28,-5.79 0.7,-1.18 0.87,-0.2 1.61,-1.5 0.3,-0.54 0.9,-1.51 1.04,-2.09l-3.03 2.62c-2.09,1.93 -5.72,4.97 -8.1,6.52 -0.66,0.43 -1.25,0.58 -1.69,1.17z"/>
   <path class="fil18" d="M55.01 19.25c0.58,0.03 1.32,-0.01 2.01,0.02l0.26 1.05c-0.31,0.04 -0.62,0.06 -0.85,0.1l-0.99 0.34c1.17,-0.06 2.29,-0.33 3.26,0.31 0.71,0.47 1.3,1.12 1.49,2.14 -0.6,0.69 -3.02,1.11 -4.32,1.06 -0.44,-0.01 -0.59,0.03 -0.99,0.05 -0.76,0.04 -0.89,-0.41 -0.92,0.29 0.65,0.13 1.33,0.4 2.15,0.36 0.28,-0.01 0.96,-0.16 1.08,-0.16 0.91,-0.02 0.62,-0.25 0.81,0.38 1.32,-0.8 3.08,-0.05 4.11,0.69 1.44,1.03 1.1,1.83 1.34,3.74l0.14 -0.26c0.33,-0.91 -0.16,0.74 0.11,-0.29 0.47,-1.85 -0.66,-3.23 -0.9,-3.94 -0.31,-0.93 -1.24,-3.04 -2.17,-3.55 0.02,1.17 0.33,0.72 -0.11,1.16 -0.33,-0.5 -0.21,-0.32 -0.34,-0.79 -1.15,-1.16 -1.25,-2.72 -3.48,-2.98 -0.24,-0.03 -0.74,-0.03 -0.99,0 -0.37,0.05 -0.13,0.01 -0.4,0.1 -0.28,0.1 -0.16,0.07 -0.33,0.19z"/>
   <path class="fil12" d="M60.05 17.25c0.14,0.37 -0.09,0.18 0.3,0.54 0.57,-0.07 0.78,-2.19 0.92,-2.76 0.39,-1.58 0.26,-2.06 -0.06,-3.55 0.2,-0.72 -0.51,-2.09 -0.77,-2.72 -0.58,-1.36 -0.48,-1.63 -1.46,-2.49 -1.44,-1.26 -2.79,-2.38 -5.45,-2.41l3.31 1.88c1.29,0.52 1.37,1.28 2.13,3.17 0.25,0.62 0.53,1.15 0.7,1.91 0.36,1.59 0.78,2.51 0.68,4.28 -0.08,1.58 0.1,2.05 -0.3,2.15z"/>
   <path class="fil15" d="M63.07 78.16c1.66,0.14 1.2,0.12 2.8,-0.13 2.27,-0.35 2.81,-1.36 4.21,-2.27 0.39,-0.25 0.68,-0.43 1.01,-0.7 0.58,-0.46 0.46,-0.5 1.14,-0.71l-0.26 -1.08c-1.24,0.19 -3.79,1.4 -4.89,1.94 -1.46,0.72 -3.44,1.71 -4.02,2.95z"/>
   <path class="fil15" d="M58.39 38.6l0.68 -0.33c-0.09,0.68 -0.31,1.22 -0.66,1.78l-0.98 1.4c1.03,-0.15 0.36,-0.04 0.62,0.15 -0.09,0.62 -0.26,0.8 -0.61,1.22 -0.41,0.49 -0.53,0.54 -0.8,1.04l0.5 -0.06c-0.05,1.68 0.13,1.11 0.34,1.2 0.36,0.17 -0.06,-0.22 0.43,0.21l-0.01 1.09 0.22 -0.18c0.92,-0.87 2.14,-2.24 2.14,-3.56 -0,-1.82 -0.05,-3.83 -0.62,-5.29l-0.85 -0.19c-0.15,0.83 -0.07,0.79 -0.39,1.51z"/>
   <path class="fil19" d="M63.99 68.12c0.12,1.78 -0.97,6.07 -1.18,8.28 0.76,-0.18 1.33,-0.77 1.95,-1.12l-0.12 -0.4 -0.94 0.21c0.19,-2.27 1.66,-2.84 3.13,-3.78 1.3,-0.83 2.86,-1.41 4.75,-1.84l-0.08 -1.15 0.17 -0.08c-0.66,0.06 -3.83,0.91 -4.28,1.16 -0.81,0.45 0.03,0.25 -1.72,1.02 -0.69,0.3 -0.91,0.77 -1.62,1.02l0.49 -4.27 -0.56 0.95z"/>
   <path class="fil18" d="M48.28 22.75l-0.12 0.74 -0.48 -0.05c-0.53,1.32 -0.25,4.75 -0.39,6.42 1.27,-0.8 1.4,-0.4 2.49,-0.83 0.52,-3.05 -0.12,-2.97 0.21,-4.6l0.13 -1.14c-0.08,-0.6 -0.02,-0.27 -0.14,-0.49l-0.17 0.63c-0.76,-0.39 -0.49,-1.08 -1.51,-0.69z"/>
   <path class="fil4" d="M84.84 65.2c0.24,-0.11 0.31,-0.15 0.53,-0.18 0.63,3.05 -1.53,8.91 -2.53,11.27 1.65,0.15 2.5,-0.9 2.89,-2.2l-0.45 0.08c-0.02,-0 -0.07,-0.03 -0.11,-0.05 -0.3,-0.79 0.76,-5.41 1,-6.66 0.23,-1.19 0.31,-6.04 -0.34,-6.74 -0.53,0.45 -0.81,3.44 -1,4.48z"/>
   <path class="fil12" d="M64.5 41.89l1.25 3.66c0.81,0.17 2.47,-0.41 3.3,-0.7 0.15,-0.88 -0.49,-1.84 -0.69,-2.78 -0.23,-1.08 0.08,-2.29 0.16,-3.46 -0.04,0.04 -0.07,0.1 -0.09,0.14 -0.41,0.72 -0.29,0.8 -0.53,1.4 -0.25,0.64 -0.27,0.65 -0.78,0.95 -1.45,0.85 -1.54,1.05 -2.63,0.79z"/>
   <path class="fil12" d="M6.84 36.87l0.84 0.28c0.26,0.05 0.5,0.08 0.75,0.14 1.32,0.29 3.27,1.05 4.42,1.05 0.65,-0.39 0.97,-0.92 0.67,-1.87 -0.43,-0.84 -3.03,-2.1 -4.13,-2.5 0.41,1.36 -0.36,2.19 -0.81,3.04 -0.85,-0.04 -0.88,-0.29 -1.74,-0.14z"/>
   <path class="fil20" d="M58.35 33.58c0.67,0.95 2.21,0.85 2.95,3.33 0.41,1.36 0.59,3.69 1.16,4.84 0.46,-0.13 0.16,0.06 0.25,-0.31 0.48,-1.53 0.34,-1.4 0.16,-2.98 -0.36,0.69 0.07,0.49 -0.47,0.67 -1.71,-3.5 -0.04,-3.49 -0.55,-5.02 -0.22,-0.66 -0.86,-0.93 -0.9,-1.1 -0.02,-0.07 -0.07,-0.07 -0.1,-0.1 -0.65,-0.61 -1.15,-0.75 -2.25,-1.02 -1.11,-0.27 -1.47,-0.68 -2.45,-0.83 0.54,1.27 3.1,1.07 3.11,2.56 -0.62,0.14 -0.23,0.13 -0.92,-0.04z"/>
   <path class="fil4" d="M63.35 55.32c0.17,0.17 0.08,0.07 0.25,0.31l0.68 1.16c0.42,0.21 0.41,1.15 3.05,0.24l0.48 -0.25c-1.36,-0.31 -2.16,-3.02 -2.25,-4.56l0.52 -0.19c0.02,-0.06 0.08,-0.07 0.12,-0.1 -0.7,0.18 -1.53,0.68 -2.09,1.06 -1.1,0.74 -0.73,0.97 -0.76,2.33z"/>
   <path class="fil12" d="M4.14 41.11c1.67,0.08 3.26,0.2 4.93,0.31 1.91,0.13 2.83,-0.05 2.91,-1.97 -1.08,-0.44 -2.6,-0.85 -3.82,-1.15l-0.37 2.65c-0.6,-0.03 -1.2,-0.05 -1.8,-0.07 -0.47,-0.02 -1.55,-0.16 -1.84,0.23z"/>
   <path class="fil2" d="M39.06 35.42c0.03,0.57 0.4,0.72 0.4,1.78l0.23 0.01c0.12,-0.98 0.21,-0.65 0.51,-1.37l-0.22 0.04c0.26,-0.88 0.53,-1.71 1,-2.35 0.55,-0.76 1.21,-0.99 1.7,-1.76 -0.54,0.24 -2.02,0.3 -2.74,0.43 -1.3,0.22 -1.54,-0.18 -2.36,-0.51 0.15,1.18 1.03,2.68 1.47,3.73z"/>
   <path class="fil10" d="M42.47 43.9l2.08 2.22c0.34,0.31 0.01,0.1 0.49,0.35 0.11,-0.28 -0.1,-0.38 0.98,0.11 0.55,0.25 0.87,0.33 1.54,0.31 1.34,-0.04 1.35,-0.6 2.81,-0.58 -0.11,0.38 -0.04,0.25 -0.21,0.65 1.09,-0.63 1.14,-0.64 2.6,-0.43 -0.3,-0.26 0.56,-0.42 -0.75,-0.28l1.59 -0.37c-1.34,0.02 -1.91,0.18 -3.23,0.19 -3.26,0.04 -3.13,-0.94 -5.38,-1.51 -1.46,-0.37 -0.92,-0.49 -2.12,-1.27l0.08 0.6c-0.26,0.2 0.4,0.5 -0.46,0.02z"/>
   <path class="fil21" d="M73.75 75.06c0.44,1.36 1.28,1.91 2.75,2.22 1.58,0.33 2.7,0.44 4.02,-0.23 1.62,-0.83 3.28,-3.91 3.4,-6.54l-1.33 3.37c-1.38,2.44 -6.05,3.8 -8.23,1.74 -0.42,-0.4 -0.08,-0.19 -0.6,-0.55z"/>
   <path class="fil14" d="M23.88 80.61c-0.5,-0.71 -1.02,-0.72 -1.27,-1.65 -0.22,-0.82 -0.02,-1.67 0.21,-2.39 0.56,-1.76 1.27,-2.1 1.13,-4.55l-0.18 -0.04c0.03,2.12 -3.01,3.66 -2.77,7.14 0.62,0.67 1.75,1.14 2.89,1.5z"/>
   <path class="fil7" d="M65.91 51.26l-0.78 0.01c-0.4,-0.63 -0.72,-0.55 -0.86,-1.51 -0.11,-0.78 -0.01,-1.6 0.2,-2.34 -3.36,1.04 -1.97,4.27 -1.09,5.26 0.57,-0.18 1.12,-0.64 1.83,-1.01 0.15,-0.08 0.22,-0.1 0.35,-0.18 0.33,-0.19 0.14,-0.05 0.35,-0.23z"/>
   <path class="fil22" d="M87.94 67.96c0.36,0.28 0.19,0.03 0.33,0.56 0.04,0.15 0.03,0.34 0.03,0.5l-0.77 3.03c-0.17,0.54 -0.38,1.21 -0.63,1.82 -0.23,0.54 -0.62,1.1 -0.72,1.53 0.96,0.2 2.21,-0.67 2.79,-1.07 1.08,-0.75 1.28,-0.86 1.67,-2.5 -0.87,0.58 -1.18,1.68 -2.44,1.71 0.1,-2.21 0.76,-3.87 0.12,-6.18l-0.37 0.61z"/>
   <path class="fil1" d="M45.93 19.77l0.62 0.34c0.84,0.42 1.27,0.56 1.5,1.19 -0.76,0.33 -2.49,-1.86 -4.18,-0.74 1.27,0.01 2.14,-0.02 2.27,1.35l0.57 0.76 0.21 -0.5c0.02,-0.03 0.06,-0.09 0.08,-0.12 0.02,-0.03 0.06,-0.08 0.09,-0.12 0.55,0.3 0.45,0.06 0.65,0.66 0.04,0.04 0.22,0.14 0.26,0.15 0.6,0.13 -0.69,0.08 0.27,0.02 1.03,-0.4 0.75,0.29 1.51,0.69l0.17 -0.63c0.03,-0.48 0.05,-0.09 -0.2,-0.26l-0.02 0.46c-0.48,-0.88 -0.47,-2.04 -1.12,-2.62 -1.45,-1.32 -1.15,-0.43 -2.65,-1.13 0.24,0.73 0.14,0.32 -0.04,0.52z"/>
   <path class="fil23" d="M51.21 42.34c0.73,-0.33 -0,-0.24 1.04,-0.52 1.2,-0.32 2.65,-0.56 3.02,-1.39 -0.86,-0.02 -2.7,0.23 -3.62,0.37 -2.06,0.31 -4.46,-0.41 -5.27,0.12 0.5,0.45 1.44,0.77 2.26,0.88 1.34,0.18 1.71,-0.25 2.57,0.54z"/>
   <path class="fil24" d="M41.45 34.36l-1.24 1.48c-0.3,0.72 -0.39,0.39 -0.51,1.37l0.11 0.93 0.72 -1.33c0.17,-0.23 0.12,-0.15 0.29,-0.3 0.39,-0.62 1.85,-1.64 2.6,-2.13 0.7,-0.45 2.39,-1.23 2.68,-2.01l0.01 -0.82c-0.9,0.52 -2.9,2.1 -4.67,2.8z"/>
   <path class="fil25" d="M47.14 31.49c0.9,-0.05 1.71,0.67 2.2,1.15 0.84,0.83 1.13,0.77 2.08,1.42 -0.07,0.16 -0.2,0.54 -0.25,0.67l0.59 0.3c0.06,-2.32 1.29,-1.21 1.95,-3.31 -0.99,0.18 -0.56,0.31 -1.37,0.66 -0.7,-0.28 -0.19,-0.31 -1.03,-0.61 0.28,0.38 -0.34,0.04 0.29,0.33 -1.08,0.22 -1.27,0.02 -1.92,-0.61l-0.35 -0.3 -0.07 0.3c-0.48,-0.16 -0.97,-0.49 -1.65,-0.29 -0.79,0.23 -0.12,-0.04 -0.48,0.3z"/>
   <path class="fil5" d="M67.82 57.62c-0.05,0.03 -0.11,0.03 -0.13,0.11l-0.3 0.35c1.24,2.43 2.48,3.14 5.68,2.34 0.93,-0.23 0.73,-0.3 0.85,-0.43 -1.35,0.2 -2.04,0.21 -3.22,-0.41 -0.87,-0.46 -1.86,-1.18 -1.55,-2.32l-1.33 0.36z"/>
   <path class="fil5" d="M66.2 51.93c-0.04,0.03 -0.09,0.04 -0.12,0.1l-0.52 0.19c0.09,1.54 0.88,4.24 2.25,4.56 0.39,-0.01 0.05,0.09 0.54,-0.06 0.8,-0.24 -0.19,0.11 0.26,-0.1 0.26,-0.12 0.22,-0.12 0.37,-0.24 -0.68,-0.36 -1.05,-1.35 -1.38,-1.91 -0.56,-0.95 -0.47,-1.41 -0.9,-2.29 0.46,-0.36 0.08,-0.09 0.34,-0.5l-0.85 0.26z"/>
   <path class="fil8" d="M23.88 80.61c0.8,-0.03 1.52,0.33 2.09,-0.06l-1.54 -0.19c-0.73,-1.55 -0.65,-1.89 -0.53,-3.98 0.06,-1.05 0.43,-3.63 0.04,-4.37 0.15,2.46 -0.56,2.8 -1.13,4.55 -0.23,0.72 -0.43,1.56 -0.21,2.39 0.25,0.94 0.78,0.94 1.27,1.65z"/>
   <path class="fil5" d="M64.47 47.42c-0.21,0.75 -0.3,1.57 -0.2,2.34 0.14,0.97 0.46,0.89 0.86,1.51l0.78 -0.01c0.49,-0.1 1.58,-0.32 2.04,-0.75l-1.37 0.16c-0.76,-0.93 -1.45,-2.52 -0.69,-4.05 -0.51,0.15 -1.2,0.45 -1.42,0.8z"/>
   <path class="fil26" d="M64.43 81.97l-0.98 6.77c0.68,-0.35 1.17,-0.77 1.99,-1.22 0.65,-0.35 1.31,-0.64 1.9,-0.92 -0.08,-0.37 0.08,-0.2 -0.26,-0.41 -0.83,0.25 -1.84,0.97 -2.48,1 -0.1,-1.92 0.52,-3.48 0.32,-5.61l-0.49 0.4z"/>
   <path class="fil4" d="M46.79 44.05c0.27,0.5 -0.03,0.18 0.47,0.59 1.88,1.58 8.06,0.79 9.55,-2.28 -0.39,0.2 -0.09,0.03 -0.37,0.24l-0.21 0.16c-0.95,0.74 -2.44,1.74 -3.55,1.88 -1.96,0.25 -4.09,0.05 -5.89,-0.6z"/>
   <path class="fil27" d="M51.82 36.96c-0.8,0.13 -0.79,0.19 -1.6,-0.06l-0.05 -0.48c-0.41,0.41 -0.02,0.57 -1.57,0.7 -0.74,0.06 -1.43,0.11 -2.18,0.15l-3.13 0.19c-0.76,0.22 -0.48,0.11 -0.74,0.55 0.64,0.11 4.07,-0.16 4.87,-0.23 1.23,-0.1 2.7,-0.14 3.84,-0.55l0.55 -0.29z"/>
   <path class="fil25" d="M55.48 20.72l-1.37 -0.4c0.11,-0.57 0.28,-0.59 0.5,-1.13 -1.17,0.41 -2.63,1.94 -1.79,3.62 0.59,-0.03 0.82,-0.64 1.24,-1.02l1.09 -0.81c0.29,-0.21 0.14,-0.09 0.33,-0.26z"/>
   <path class="fil28" d="M51.8 23.86c0.12,0.91 0.02,0.76 -0.07,1.58 -0.06,0.49 -0.08,0.92 0.25,1.38 -0.01,-0.31 -0.06,-0.6 -0.06,-0.86 -0.01,-0.67 0.04,-0.6 0.23,-0.87 0.44,0.94 0.13,2.87 0.82,3.62l-0.15 -0.96c0.07,-0.02 0.13,-0.05 0.14,-0.02l0.19 0c0.47,0.04 -0.16,0.27 0.39,0.03 0.27,-2.07 -0.85,-2.48 -1.02,-4.07l0.05 -0.27c-0.36,0.3 -0.17,-0.48 -0.36,0.65 -0.14,-0.14 -0.23,-0.08 -0.4,-0.21z"/>
   <path class="fil24" d="M55.43 31.7l0.03 0.6c0.59,0.18 1.06,0.32 1.54,0.59 0.53,0.29 0.69,0.58 1.36,0.69 0.69,0.17 0.3,0.18 0.92,0.04 -0.01,-1.49 -2.57,-1.29 -3.11,-2.56l-0.3 -0.13c-0.33,0.51 -0.22,0.95 -0.35,0.63 -0.01,-0.03 -0.05,0.09 -0.08,0.13z"/>
   <path class="fil29" d="M51.27 19.72c-0.34,2.31 0.07,2.33 0.52,4.14 0.17,0.13 0.26,0.07 0.4,0.21 0.2,-1.13 0,-0.35 0.36,-0.65 -0.01,-0.34 0,-0.22 -0.05,-0.53 -0.29,-1.69 -0.18,-0.3 0,-2.25l-0.42 0.3c-0.03,0.02 -0.09,0.06 -0.13,0.1l-0.02 -1.49c-0.5,0.06 -0.34,0 -0.66,0.17z"/>
   <path class="fil30" d="M41.18 42.7l1.29 1.2c0.85,0.47 0.2,0.18 0.46,-0.02l-0.08 -0.6c-0.09,-0.73 -0.34,-1.26 -0.6,-1.83 -0.33,-0.74 -0.28,-1.45 -0.85,-1.87l-0.21 3.12z"/>
   <path class="fil5" d="M59.68 31.05c0.19,0.22 0.03,0.07 0.32,0.27 0,0 0.32,0.18 0.35,0.2 0.32,0.19 0.2,0.07 0.5,0.36 1.21,0.25 0.48,0.48 1.41,0.98 0.71,-1.12 1.3,-1.17 1.33,-2.94l-0.27 0.35c-1.08,1.37 -2.44,0.73 -3.64,0.78z"/>
   <path class="fil21" d="M53.59 45.87l-1.59 0.37c1.31,-0.13 0.44,0.03 0.75,0.28 -0.17,0.59 -0.05,0.15 0.16,0.33 0.09,-0.55 -0.06,-0.29 0.2,-0.57 1.02,0.25 1.38,1.08 2.48,0.85l0.11 -0.29c0.22,-0.97 -0.04,0.59 0.06,-0.32 0.07,-0.7 -0.17,-0.76 0.12,-1.74 -0.69,0.49 -0.14,0.37 -1.14,0.68 -0.45,0.14 -0.74,0.3 -1.15,0.41z"/>
   <path class="fil31" d="M43.56 78.36c0.21,-0.21 0.09,-0.01 0.28,-0.36 0.4,-0.72 0.05,-0.56 0.91,-0.83l-0.24 0.78c0.28,-0.19 0.24,0.26 0.42,-0.65 -0.08,-0.06 -0.18,-0.33 -0.95,-0.24l-2.15 0.76 -2.4 1.77c0.59,-0 1.54,-0.42 2.06,-0.68l1.48 -0.77c1,-0.18 0.37,-0.09 0.58,0.23z"/>
   <path class="fil6" d="M50.17 36.43l0.05 0.48c0.81,0.25 0.8,0.18 1.6,0.06 0.76,-0.36 0.12,-1.08 -0.07,-1.93l-0.59 -0.3c-0.14,0.14 -0.23,0.52 -0.4,0.79 -0.25,0.41 -0.39,0.49 -0.6,0.9z"/>
   <path class="fil4" d="M41.45 34.36c1.77,-0.7 3.77,-2.29 4.67,-2.8l-0.01 0.82c0.29,-0.41 0.26,-0.38 0.23,-0.99 -0.6,-0.05 -3.75,1.47 -4.43,2.24 -0.38,0.43 -0.25,0.27 -0.46,0.73z"/>
   <path class="fil24" d="M57.1 21.52c0.57,0.7 0.32,0.49 0.41,1.97 0.75,0.15 1.1,-0.12 1.74,-0.49 -0.36,-0.73 -1.04,-1.58 -2.34,-1.69l0.19 0.21z"/>
   <path class="fil17" d="M45.6 22.46c0.32,0.32 -0.11,0.18 0.64,0.45l0.62 0.13c0.39,0.35 0.16,-0.14 0.18,0.52 0.04,-0.02 0.11,-0.11 0.13,-0.07 0.07,0.14 0.18,-0.1 0.24,-0.13 0.3,-0.14 -0.12,-0.03 0.35,-0.14l-0.03 -0.64c-0.2,-0.6 -0.11,-0.36 -0.65,-0.66 -0.03,0.04 -0.07,0.09 -0.09,0.12 -0.02,0.03 -0.06,0.09 -0.08,0.12l-0.21 0.5 -0.57 -0.76 0.12 0.8 -0.66 -0.24z"/>
   <path class="fil32" d="M18.49 68.9l0.28 0.17c0.65,-0.98 1.21,-0.96 1.57,-2.51l-0.8 0.14c0.07,0.84 -0.8,1.16 -1.05,2.2z"/>
   <path class="fil33" d="M54.15 23.09c0.45,0.43 0.18,-0.15 0.32,0.55 0.01,0.05 -0.05,0.43 -0.06,0.49 -0.79,-0.18 -0.39,-0.01 -0.63,-0.36 -0.19,0.08 -0.28,0.08 -0.46,0.16l0.06 0.5 0.59 0.18c0.03,-0.7 0.17,-0.24 0.92,-0.29 0.4,-0.02 0.54,-0.05 0.99,-0.05 -0.2,-0.15 -0.04,-0.12 -0.41,-0.2 -0.02,-0 -0.54,0.03 -0.54,0.03 0.06,-0.53 0.12,-0.39 -0.01,-0.87l-0.19 -0.48c-0.01,-0.07 -0.02,-0.09 -0.02,-0.14 -0.16,0.16 -0.27,0.26 -0.56,0.48z"/>
   <path class="fil21" d="M53.32 23.93c0.18,-0.09 0.27,-0.09 0.46,-0.16 0.2,-0.36 0.25,-0.27 0.37,-0.68 0.28,-0.22 0.4,-0.32 0.56,-0.48l0.24 -0.39 0.63 0.01 0.16 -0.48 -0.87 0.05c-0.32,0.37 -0.48,0.63 -0.89,0.98 -0.54,0.47 -0.47,0.34 -0.66,1.15z"/>
   <path class="fil34" d="M55.58 22.23c0.73,0.38 0.34,0.45 1.08,0.89l-0.27 -1.26 -0.66 -0.11 -0.16 0.48z"/>
   <path class="fil35" d="M47.77 23.22l-0.1 0.22 0.48 0.05 0.12 -0.74c-0.96,0.06 0.33,0.11 -0.27,-0.02 -0.04,-0.01 -0.22,-0.11 -0.26,-0.15l0.03 0.64z"/>
  </g>
 </g>
</svg>
