<?xml version="1.0" encoding="UTF-8"?>
<!DOCTYPE svg PUBLIC "-//W3C//DTD SVG 1.1//EN" "http://www.w3.org/Graphics/SVG/1.1/DTD/svg11.dtd">
<!-- Creator: CorelDRAW -->
<svg xmlns="http://www.w3.org/2000/svg" xml:space="preserve" width="23.9191mm" height="24.8643mm" version="1.1" style="shape-rendering:geometricPrecision; text-rendering:geometricPrecision; image-rendering:optimizeQuality; fill-rule:evenodd; clip-rule:evenodd"
viewBox="0 0 39516.74 41078.3"
 xmlns:xlink="http://www.w3.org/1999/xlink"
 xmlns:xodm="http://www.corel.com/coreldraw/odm/2003">
 <defs>
  <style type="text/css">
   <![CDATA[
    .fil0 {fill:#201E1E}
    .fil3 {fill:#009933}
    .fil1 {fill:red}
    .fil2 {fill:yellow}
   ]]>
  </style>
 </defs>
 <g id="Camada_x0020_1">
  <metadata id="CorelCorpID_0Corel-Layer"/>
  <g id="_2900146430800">
   <path class="fil0" d="M21828.53 32790.21c-579.06,0 -412.53,-50.06 -738.82,-267.64 0,-338.35 147.2,-1562.72 485.06,-1657.88 89.87,-25.28 204.2,-14.21 309.11,-27.42 611.11,-77.48 277.39,-291.6 1333.74,301.34 373.37,209.49 669.1,245.5 894.45,581.04 -390.23,580.55 -1312.26,1070.56 -2283.53,1070.56zm5776.07 -11240.56c195.44,367.59 88.55,401.3 671.74,401.3 235.42,-270.61 201.56,-168.68 201.56,-602.03 -494.31,-426.74 -673.73,-174.63 -873.3,200.73zm-6985.08 10906.01c-383.45,-89.05 -910.64,-442.1 -1007.45,-802.92l69.72 -7.27c6.94,-0.66 30.56,-1.98 39.65,-2.81 564.03,-47.58 564.19,-242.03 897.26,-726.76 51.71,-75.34 76.82,-122.75 143.24,-191.81 96.98,-100.61 39.65,-86.4 193.46,-141.92 0,404.27 -193.79,1578.58 -335.87,1873.48zm-1410.4 -2274.94c115.48,239.88 67.08,723.78 67.08,1070.56l-134.32 0c-150.67,-644.65 -335.71,-502.73 -335.71,-1405.11 144.89,-96.65 197.59,-153.15 402.95,-200.73 7.6,340.99 58.98,395.35 268.63,535.28l-268.63 0zm5171.73 -1940.23c397.5,591.45 402.95,899.9 402.95,1672.59 -129.52,0 -279.87,-10.9 -402.95,66.91 162.73,37.83 269.46,70.05 402.95,133.82 -241.87,502.4 -129.36,1003.65 -738.82,1003.65 -360.32,0 -902.71,-507.69 -1209.01,-669.1 854.63,-1271.46 -243.68,-1121.45 602.52,-1741.48 272.76,-199.9 501.58,-430.04 942.36,-466.39zm-5306.05 1070.56c-707.1,0 96.98,-1249.81 201.39,-1405.11 498.11,54.19 -96.15,198.25 470.19,66.74 132.83,495.13 295.56,-16.36 -102.26,968.79 -128.2,317.7 -146.54,369.57 -569.31,369.57zm3828.25 -803.09c-86.4,-322.82 -408.07,-458.46 -738.65,-535.28 7.93,-359.5 107.22,-442.1 244.68,-693.06 93.67,-170.83 224.36,-511.16 426.9,-511.16 432.68,0 1117.15,593.76 1209.01,936.74 -141.42,210.31 -899.57,746.58 -1141.93,802.76zm-4902.94 -1472.02c-11.4,511.66 -1206.2,1923.87 -404.1,4082.67 853.14,2295.92 2581.74,2640.55 2754.88,2875.81 -1554.46,0 -2937.43,62.61 -4435.23,64.6 -425.91,0.66 -557.91,74.18 -1003.82,70.71 -808.37,-6.28 -2419,204.86 -3158.15,266.32 203.37,-758.64 1211.48,-800.28 1895.29,-1256.75 257.89,-172.15 435.33,-284.82 561.71,-510.99l1210.16 -1939.23c197.26,-294.57 211.96,-424.92 362.8,-709.08 319.85,26.6 472.34,232.45 525.86,-12.72 94.33,-431.86 -259.88,-78.81 -53.36,-577.08 336.86,-812.5 534.95,-13.88 534.95,-1952.62l335.87 0c-8.59,-382.3 -33.87,-218.9 -201.56,-468.37 94.17,-107.88 187.35,-213.45 268.8,-334.55 259.05,68.89 4.13,-1.49 221.05,84.26l207.83 126.22c77.65,100.12 32.05,76.33 115.81,52.21l126.88 -62.12c-85.74,366.77 29.24,211.47 40.31,211.63 350.25,7.93 -157.61,-121.59 94,-10.9zm470.19 -468.21l-604.5 -334.55 0 -200.73c186.36,-49.56 850.5,-423.76 1074.53,-535.28l1074.69 -602.19c-14.87,667.61 -282.67,653.24 -681.99,926.5 -355.86,243.52 -564.36,547.18 -862.73,746.25zm12089.74 -4683.54c383.29,-255.91 671.58,-233.77 671.58,200.73 0,269.46 -671.58,560.72 -671.58,-200.73zm-3224.07 -334.55c0,-589.63 707.59,-960.37 1182.41,-575.76 259.71,210.64 228.15,411.87 228.15,642.5 0,873.96 -1410.56,856.28 -1410.56,-66.74zm3761.17 -133.99c0,-145.72 364.62,-543.54 646.3,-175.29 394.85,516.28 -646.3,851.66 -646.3,175.29zm-1007.45 -66.74c0,-21.97 336.7,-757.16 738.98,0 -106.73,200.73 -111.68,396.17 -388.74,367.26 -173.47,-18.17 -350.25,-171.32 -350.25,-367.26zm604.5 -602.19c0,-384.94 362.14,-325.46 604.5,-267.81 62.28,266.65 152.16,189.5 -67.08,602.36 -311.92,0 -537.43,47.91 -537.43,-334.55zm-20149.5 334.55c0,-450.03 219.07,-1697.53 335.87,-1940.39 216.76,158.11 268.63,766.9 268.63,1070.56 0,711.39 67.57,869.83 -604.5,869.83zm13567.37 468.37c0,-636.06 134.32,-1013.73 134.32,-1605.84 318.03,231.95 206.02,551.14 95,1031.24 -33.04,143.57 -52.37,234.76 -77.15,324.64 -84.26,304.32 76.99,82.77 -152.16,249.96zm-4701.55 -1472.02c0,-205.36 92.68,-287.63 268.8,-334.55 159.59,595.91 519.92,58.15 738.65,0 -45.6,170.99 15.2,92.35 -117.3,217.58 -9.09,8.59 -200.07,128.37 -204.7,130.52 -251.95,120.77 -685.46,370.57 -685.46,-13.55zm-13029.95 -468.37c0,-166.53 671.58,-466.06 671.58,200.73 -363.79,191.81 -671.58,147.2 -671.58,-200.73zm1947.83 -267.64c94.83,-178.59 126.39,-401.46 402.95,-401.46 817.29,0 192.47,1522.58 -402.95,401.46zm11955.42 -1471.86c42.13,-504.06 217.42,-364.78 244.51,-369.91 420.29,-82.6 -11.23,-33.04 345.45,-151.17l215.93 186.52c-62.94,268.63 -174.3,342.65 -201.39,668.94 -429.05,-99.46 -266.15,-244.51 -604.5,-334.38zm2673.43 79.8c-545.19,-819.11 -1632.6,-1109.88 -1733.22,-1484.91 204.7,-232.29 1076.84,452.51 1315.4,629.95 134.15,99.95 247.15,194.78 373.21,297.21 154.14,125.06 238.4,203.87 403.77,333.72 134.98,105.9 239.06,205.03 325.79,344.63 170.5,274.25 266.65,695.86 201.23,1003.82 -252.44,-67.08 -147.7,-98.13 -256.57,-131.01 -123.91,-37.5 -167.03,18.83 -234.27,10.41 -87.89,-10.9 -6.77,130.85 -74.84,-40.48 -87.56,-219.73 -16.36,-19.66 16.69,-104.91 55.51,-142.74 72.86,3.97 146.05,-269.29 -151.66,-225.51 -301.18,-315.72 -483.24,-589.14zm-4083.99 -749.06c0,-597.73 103.92,-372.05 201.56,-735.85 304.32,25.28 788.55,153.15 873.13,468.37l-268.63 0c15.03,180.74 31.39,181.9 67.08,334.55 -267.64,-71.21 -252.28,-151.83 -470.19,-401.63 21.81,260.04 60.63,174.46 67.24,468.54 -282.34,-23.46 -221.22,-76.16 -470.19,-133.99zm268.3 -545.19l0.33 9.91c45.1,44.94 -98.3,227.66 9.91,0.33 0,0 0.17,-2.97 0.17,-2.97 0,0 -2.97,-4.13 -2.97,-4.3 -164.38,-187.84 139.44,22.96 -7.43,-2.97zm87.56 163.72l-19.99 -19.83c-6.77,6.61 18.67,18.67 19.99,19.83zm450.2 -1224.37c261.2,5.78 362.97,65.75 544.86,126.39 179.42,59.31 346.11,98.63 529.66,141.42l0 133.82c-288.62,23.96 -120.93,-9.58 -335.87,133.65l-738.65 -535.28zm-7052.48 6356.29c117.96,-503.56 -0.99,-1315.24 -157.61,-1783.28 -93.01,-278.21 -185.53,-468.7 -316.05,-688.76 -689.59,-1162.91 119.45,-1494.82 136.96,-2613.95 15.36,-978.21 303.49,-230.14 367.26,-1229.33 19.99,-311.59 -16.52,-53.36 170.99,-308.45 -130.68,-194.45 -135.8,-89.87 -201.56,-334.55l697.85 -46.59c172.15,-36.02 151,-74.51 295.4,-57 227.66,27.59 25.77,62.12 288.29,89.54 185.37,19.33 827.37,-303.66 1002.16,348.59 -205.85,306.13 -357.02,309.6 -682.81,457.14 -364.45,165.21 -314.56,304.48 -503.73,635.56 -119.45,209.32 -409.72,488.2 -466.55,674.39 -84.42,276.23 41.14,696.53 41.14,1042.97 0,318.52 -72.03,220.72 -64.76,532.31 12.56,552.46 360.16,1534.8 656.71,2089.58l549.82 857.27c-181.9,95.99 -379.49,125.56 -522.39,282.67 -189.33,207.83 -418.64,992.58 -820.76,1590.81 -249.14,-20.65 -344.63,-103.75 -553.62,-184.7 -495.3,-191.81 -635.73,106.23 -965.16,-443.42 -349.75,-583.52 -356.03,-620.03 357.51,-729.24 239.22,-36.51 477.29,-79.3 690.91,-181.57zm5171.9 -8898.7c356.03,-237.57 1249.32,-495.8 1611.79,-669.1 97.14,182.89 161.41,303.99 265.82,471.34 103.92,166.53 186.03,245.01 204.36,465.4 -282.84,135.14 -1229.49,200.9 -1679.03,200.9 -143.9,-214.11 -110.36,-47.08 -134.32,-334.72 -312.08,-25.94 -117.63,71.7 -268.63,-133.82zm5574.68 -133.82c0,-541.89 58.98,-606.65 296.22,-717.34 264.67,-123.25 231.79,26.93 435.49,22.3 249.8,-5.62 266.65,-210.97 524.71,-327.94 707.76,-321 687.6,-116.97 873.8,-28.58l824.89 382.46c-70.21,840.26 -2191.18,1438.98 -2766.77,1083.61 -202.05,-124.57 -188.34,-223.53 -188.34,-414.51zm-1182.74 -159.92c-148.19,-112.01 -754.84,-660.67 -633.08,-842.08 215.93,-322.82 928.31,4.3 1479.95,132.33 0,942.69 -106.73,1268.81 -846.87,709.74zm-1100.96 -2181.76c0,-275.41 803.75,-334.55 1141.77,-334.55 343.64,0 224.19,61.95 201.56,334.55 -501.91,11.07 -758.48,291.6 -1276.25,334.38 -34.86,-150.01 -67.08,-153.65 -67.08,-334.38zm4903.1 -1204.38c88.22,-58.98 139.93,-84.92 230.14,-172.15 58.48,-56.5 126.39,-146.54 188.34,-213.95 163.39,-178.1 196.1,-223.03 454.66,-283 394.52,586.99 402.95,1073.37 402.95,1806.41l-402.95 0c180.24,245.34 110.2,60.8 402.95,200.73 -57.99,247.48 -138.12,460.11 -237.74,699.83 -403.44,969.95 -892.96,81.12 -1374.22,-30.73 36.18,-433.84 402.95,-683.64 402.95,-1204.38 0,-335.21 -67.08,-411.7 -67.08,-802.76zm-4903.1 200.56c0,-839.76 1372.56,-2481.45 1929.32,-2193.66 170.17,87.89 246.66,230.3 328.27,413.36 331.41,743.78 100.12,581.87 -338.52,1015.88 -688.43,681 -67.74,805.73 -971.43,972.76 -883.38,163.23 -947.64,256.74 -947.64,-208.33zm4634.3 -602.03c-581.54,-387.91 -403.28,-596.74 -1432.87,-694.05 -166.53,-15.69 -164.55,37.17 -287.96,-129.69 -213.45,-288.46 -439.95,-779.46 -361.31,-1116.65 714.86,-276.4 1851.18,223.69 2339.37,546.85 1018.68,674.22 -3.63,1326.14 -257.23,1393.55zm-5037.25 -1739.66l-134.32 -334.55c-263.18,70.05 -276.89,177.6 -416.99,387.58 -917.91,1377.36 -1195.13,2785.11 -1195.13,4563.76l335.87 66.91c-567,131.51 -1013.89,446.73 -1556.28,595.58 -179.42,49.4 -233.44,21.31 -332.57,-119.28 -7.1,-10.24 -72.53,-141.25 -85.58,-183.88 -82.77,-270.78 15.2,-433.18 -41.8,-699.66l-185.53 -544.2c-547.34,-811.35 -1917.1,-446.56 -2289.48,-174.13l-102.93 99.29c-182.89,167.36 -314.56,134.32 -525.37,340.33 -186.03,182.06 -125.06,136.79 -386.59,218.9 -417.32,130.85 -1227.34,631.27 -1344.64,1069.07 219.07,326.12 725.77,423.6 738.82,1003.82 -355.53,29.41 -676.53,113 -970.94,236.91 -388.24,163.72 -466.88,224.19 -506.7,699.66l-1476.81 -67.74c-379.98,-40.97 -454.16,-347.77 -1248.49,98.47 -199.08,111.85 -411.7,437.64 -28.58,437.64l1343.49 -66.91 0 -334.55c1668.62,0 1410.4,-90.54 1410.4,468.37 0,185.2 209.16,344.46 -166.04,312.91 -227.99,-19.16 -281.19,-112.18 -572.78,-112.18 -301.18,0 -682.65,267.64 -738.82,267.64 -273.92,0 -295.23,-45.27 -460.27,5.12l-99.79 34.53c-284.66,78.81 -338.35,44.61 -581.7,161.08 -110.53,472 -99.95,869.67 604.5,869.67 1026.12,0 571.3,-595.42 537.26,-1003.49 323.48,-75.17 603.35,-290.77 899.57,-230.96 595.58,120.11 463.41,193.96 376.51,565.51l348.92 388.9c-260.87,380.97 -214.61,118.29 -214.61,748.57 -202.38,134.98 -617.89,268.63 -728.41,478.45 -108.38,205.69 -11.9,247.32 -203.04,399.97 -389.4,310.59 -7.6,-103.42 -629.45,577.41 -445.41,488.03 -87.07,1086.42 -454,1354.23l134.32 -1538.77c0,-1248.99 -2605.2,-1673.74 -3829.9,-737.66 -369.08,281.68 -871.65,874.79 -871.65,1473.51 0,201.89 957.89,1282.36 1141.77,1405.11 -39.65,-474.65 -249.63,-1002.33 -426.41,-1381.98 -107.88,-231.29 -242.53,-425.09 -92.35,-667.45 466.22,-753.36 1296.4,-73.52 1794.84,42.13 309.77,-206.35 562.04,-602.19 1074.69,-602.19 563.04,0 738.82,431.86 738.82,1003.82 -145.72,-33.87 -1141.77,-481.26 -1141.77,535.12 0,113.83 145.88,383.95 219.07,451.02 140.43,128.37 334.88,151.17 586.83,151.17 -169.01,229.97 -461.93,82.27 -763.27,247.65 -477.62,262.19 -912.62,86.9 -1520.26,86.9 110.03,-410.05 147.86,60.3 443.42,-291.6 422.94,-503.39 -298.86,-1164.23 -789.7,-794.16 -333.56,251.61 -116.64,857.11 79.63,1083.78 313.57,361.98 1236.93,163.06 1697.04,175.45 289.12,7.76 -42.29,2.97 166.2,31.89l74.18 10.41c15.69,-1.16 60.63,-10.9 76.49,-16.85 333.06,-119.61 448.05,-431.36 872.14,-466.55 0,769.22 -816.14,1404.95 -1141.77,1404.95 -753.69,0 -740.14,-132.83 -1343.32,-535.12 36.84,440.62 444.91,659.52 873.13,669.1 -68.56,256.24 -238.07,245.34 -346.61,457.47 -402.95,788.55 -279.7,654.73 145.88,1615.75 172.48,389.23 277.88,598.06 648.78,825.88 858.43,527.19 2483.27,2389.27 3146.26,2753.72 151.66,83.27 378.99,170.83 512.32,225.51 1590.81,651.75 923.52,-57.33 1468.06,-57.33 265.16,0 0.83,41.8 282.34,102.43 341.49,73.52 -81.94,-107.39 255.08,31.39 -99.13,423.27 -1074.69,3937.78 -1074.69,4215.17 0,180.57 32.05,184.54 67.24,334.55 -410.55,109.2 -458.95,344.79 -650.43,690.41 -99.29,179.42 -613.42,1188.02 -747.41,1255.6 -234.6,118.62 -339.01,-113.17 -389.07,133.99 -68.07,335.05 307.62,221.38 -35.52,381.47 -252.94,117.96 -280.2,-31.39 -461.27,214.77 132.33,180.08 167.36,136.79 416.33,187.51 243.35,49.56 324.14,60.47 589.14,82.27 330.25,27.26 864.54,72.86 1162.25,113.33 1137.8,154.47 5456.89,85.25 6563.79,85.25 428.22,0 6749.98,-50.88 7253.87,-736.01l-1544.88 -267.47c-554.78,-33.87 -1170.35,-133.82 -1746.27,-133.82 137.45,-187.02 318.86,-156.29 584.02,-287.96 1696.54,-842.41 2572.65,-2505.57 2572.65,-4395.74 0,-1260.39 -753.19,-2482.11 -1595.43,-3227.87 -300.85,-266.48 -629.45,-434.34 -956.73,-652.74 0,-930.96 -387.58,-1915.11 152.16,-2725.3 397.99,-597.4 1077.5,-2021.01 720.98,-2761.15 721.31,-344.79 620.86,-101.77 1209.34,-936.24 722.3,-1023.48 169.51,-669.6 1410.07,-669.6 861.24,0 997.7,-1605.68 1746.27,-1605.68 402.95,0 507.86,579.56 1334.73,744.44 406.09,80.95 1417.34,50.06 1258.24,769.05 -108.05,488.2 -931.45,586 -1402.3,676.04 -723.95,138.28 -859.26,404.76 -922.04,1155.81 -289.28,0 -477.95,-60.8 -681.16,-124.4 -554.44,-173.97 -885.86,-421.78 -1618.56,309.11 -939.05,936.91 -2083.3,4833.38 -454,4833.38 1179.1,0 1490.52,-1538.93 2955.28,-1538.93 1288.97,0 2826.58,2243.72 3536.32,1180.92 710.73,-1064.12 -698.18,-4994.63 -2058.68,-4994.63 -327.94,0 -741.13,334.55 -1410.56,334.55 0,-888.5 363.13,-829.19 1193.15,-1019.51 195.11,-44.77 523.22,-150.51 688.76,-250.46 446.73,-269.95 547.18,-1073.7 58.48,-1331.92 -481.75,-254.59 -1293.26,-105.9 -1701.5,-446.4 -496.46,-414.02 -135.97,-497.78 -977.71,-497.78 -211.96,0 -413.19,264.83 -510.5,428.06 -844.06,1414.36 -806.56,1110.71 -1773.03,1110.71 -480.76,0 -669.27,542.55 -890.98,852.15 -583.85,815.64 -1325.48,968.63 -1325.48,419.14 0,-390.72 41.3,-554.94 -51.05,-952.77 -254.26,-1094.19 -2298.9,-2685.32 -3093.89,-2652.61 -364.78,15.2 -967.47,-132.99 -1318.05,-318.03 -470.02,-247.48 338.18,-438.8 -559.24,-641.35 -231.95,-52.37 -353.22,-81.78 -557.42,-180.74 -387.91,-188.01 -286.47,-345.78 -432.68,-706.44 -109.04,-268.96 -67.57,82.11 -99.62,-302.17 332.4,0 680.33,10.57 1010.59,2.97 415.5,-9.25 532.97,-125.56 870,-203.7 344.79,512.98 950.95,841.58 1499.12,1115.99 624.66,312.58 1279.88,489.85 2194.98,489.85 -45.43,-213.62 -67.9,-104.25 0,-267.64 1767.91,0 2899.44,-502.73 3943.07,-1826.07l440.78 -765.25c1355.22,-2845.08 -344.63,-6708.85 -3846.58,-6708.85 -1223.38,0 -2119.15,384.61 -3023.84,1069.07 -215.27,162.73 -525.37,380.81 -603.02,670.42z"/>
   <path class="fil0" d="M-0.17 19810c0,1032.89 81.78,2016.22 236.42,2976.26 70.38,438.3 81.78,432.68 770.7,771.03 349.75,171.82 661.34,352.06 1007.95,534.78 -78.81,-942.52 -470.19,-1825.41 -470.19,-3746.8 0,-2781.31 442.93,-5654.64 1656.23,-8051.84l2057.69 -3436.7 1800.46 -2020.19c9.42,-9.91 23.29,-24.12 33.04,-33.87 9.75,-9.75 24.12,-23.46 34.03,-33.04l882.22 -793.83c1006.62,-1004.31 3803.96,-2633.12 5223.77,-3092.9 814.65,-263.84 888.83,-421.45 2143.6,-674.55 2630.97,-530.82 2513.67,-530.49 5243.76,-530.49 2020.35,0 5112.09,798.29 6940.97,1716.86 506.2,254.26 921.38,466.39 1408.75,737.5 612.76,340.83 1716.37,1110.87 2247.52,1574.95l1464.92 1283.85c1217.1,1239.9 2658.06,3164.76 3377.22,4731.61 82.27,179.09 126.88,228.49 211.47,391.55 241.04,464.57 416.82,1001.34 613.42,1529.84 190.32,511.66 405.26,1081.63 533.3,1676.88 556.76,2586.86 530.98,2767.1 530.98,5358.92 0,1488.05 -262.85,2003.83 -335.71,2876.97 218.9,-58.15 556.92,-298.2 776.65,-430.54l769.05 -438.3c498.93,-352.23 368.58,-4130.58 248.81,-5066.82l-355.7 -2054.55c-375.36,-1682.17 -1082.46,-3826.59 -1963.19,-5270.36 -162.07,-265.66 -272.93,-494.97 -436.98,-769.22 -300.35,-502.07 -620.36,-987.29 -966.97,-1445.42l-1077.66 -1335.06c-805.56,-806.89 -758.15,-872.31 -1812.68,-1807.4 -141.75,-125.72 -194.95,-154.14 -333.23,-270.12 -127.71,-107.06 -180.9,-187.68 -308.28,-295.07 -1384.79,-1166.88 -3264.71,-2212.82 -4930.2,-2916.95l-1337.54 -474.15c-3218.95,-1066.27 -7456.26,-1353.23 -10682.15,-419.3 -1005.14,290.93 -1761.8,446.4 -2758.68,864.87l-892.46 382.3c-1718.84,848.85 -1675.89,906.67 -3092.73,1803.27 -862.89,545.85 -1404.45,1135.82 -2030.43,1657.22l-1813.01 1873.98c-183.71,248.31 -339.18,437.48 -533.63,672.74 -1042.81,1262.04 -2562.9,4045.17 -3021.69,5620.94 -621.19,2134.35 -1059.82,3859.8 -1059.82,6371.16z"/>
   <path class="fil0" d="M13874.66 39595.21c-231.95,160.75 -510.83,254.92 -801.1,264.34 -677.53,22.3 -1230.32,-392.54 -1592.95,-931.78l-317.7 -472.83 454 -302.83 101.27 -377.5 490.18 0c-12.06,-76 -18.34,-153.81 -18.34,-233.94 0,-469.53 407.57,-988.12 807.22,-1200.58 768.06,-408.07 1506.71,37.01 2014.9,621.02 132.5,-56.67 268.47,-98.13 404.93,-121.43 293.91,-50.39 427.56,-47.58 720.32,-5.78l38.16 5.45 444.25 125.39 35.19 15.2c228.65,99.13 431.86,233.77 597.4,401.63l448.05 -1708.44 1792.36 108.05 -48.41 580.05c-20.49,245.34 -124.24,588.64 -201.72,848.35 192.63,10.24 377.34,64.43 561.55,158.44 1134.83,578.9 969.12,1946.83 306.13,2829.22 -610.62,812.67 -1730.74,1061.31 -2491.2,463.08 -136.63,72.2 -276.07,137.12 -412.03,173.31l-919.56 244.68 158.11 -675.71c-248.48,116.47 -518.59,182.56 -796.31,182.56 -541.72,0 -1061.64,-180.24 -1451.04,-562.37 -127.71,-125.56 -237.57,-270.28 -323.65,-427.56zm4635.96 -47.58c109.2,-184.04 212.46,-494.47 242.03,-729.73 -116.14,212.96 -215.93,553.29 -242.03,729.73zm-3051.43 -408.56c13.38,-14.54 27.76,-30.4 43.78,-47.42 173.31,-183.22 427.56,-572.12 470.35,-850.5 -92.19,64.27 -184.37,155.96 -227.99,208.33 -162.73,195.11 -265.99,437.15 -286.14,689.59zm15854.71 -6225.94c201.23,-294.07 404.6,-507.19 740.31,-590.3 49.73,-131.84 128.2,-273.92 247.65,-451.52l317.7 -472.67 219.73 146.54c86.4,-449.54 355.7,-847.03 713.54,-1138.96 277.55,-226.34 592.77,-353.05 912.62,-388.9l-1308.79 -1334.73 70.88 -303.66c71.87,-307.13 244.02,-536.27 387.25,-806.06l346.78 -652.74 1207.52 1108.39c49.56,-428.39 304.81,-916.42 596.9,-1196.78 666.95,-639.69 1522.74,-473.49 2231.33,-0.83l427.73 285.48 -112.84 212.63 356.69 237.9c208.66,139.11 357.84,338.68 418.31,582.7 72.36,291.43 3.14,590.96 -125.39,855.95 -104.91,216.26 -302,504.39 -482.58,669.1 -335.87,306.3 -717.18,473.49 -1098.65,523.05 49.07,41.8 98.47,80.29 146.54,112.34l474.48 316.54 -317.7 472.83c-137.95,205.19 -256.74,400.14 -372.71,618.71l-296.39 557.75 -452.01 -301.51c9.58,283.5 -36.51,571.3 -138.45,847.53 -232.95,632.26 -782.27,1206.2 -1498.62,1206.2l-470.19 0c-346.78,0 -679.18,-150.18 -953.26,-383.62 62.28,91.53 127.87,183.55 181.07,283 146.54,273.75 324.64,528.67 471.01,804.41l159.59 300.52 -189.83 282.18c-217.42,323.48 -472.5,597.23 -864.54,701.48l-43.62 11.73c-70.88,197.76 -159.59,294.24 -351.9,458.13 -344.46,293.58 -524.71,352.39 -960.86,352.39 -150.67,0 -284.49,-27.42 -404.43,-76.33 41.47,190.16 45.6,380.48 -41.8,573.28 -154.47,340.33 -522.06,478.28 -831.34,641.35l-525.04 276.73 -85.08 -176.44c-2.64,9.09 -5.45,18.17 -8.43,27.26 -143.9,445.57 -576.09,628.95 -996.71,726.59l-556.26 129.03 -44.94 -191.97c-214.77,350.58 -530.98,633.58 -925.01,810.85 -602.52,270.94 -1227.34,217.75 -1731.73,-118.46 -30.23,458.29 -194.95,672.74 -669.27,879.58 -1911.98,834.15 -3899.62,-413.02 -3484.28,-2574.47 235.59,-1225.86 1390.08,-2198.78 2647.49,-2198.78l17.84 0 1674.4 104.25 -37.17 445.74c317.7,-217.58 693.55,-349.25 1098.81,-349.25 174.3,0 343.8,24.12 504.72,72.36l-40.31 -481.26 480.6 -111.52c54.52,-12.72 58.15,-12.89 98.63,-41.8 163.89,-117.3 308.28,-180.08 505.87,-225.84l92.02 -21.31c264.83,-367.92 613.92,-644.48 1127.89,-661.83 17.02,-46.92 39.49,-91.53 66.25,-133.99 -97.47,-196.6 -186.69,-367.1 -141.58,-639.69 30.73,-185.2 117.96,-314.56 214.77,-467.54 36.51,-57.66 78.97,-126.06 94.5,-193.13l133.82 -572.12 569.81 151.5c284.66,75.67 473.66,251.61 606.65,472zm-6239.15 5757.07c-208.16,-459.45 -198.75,-969.62 -33.54,-1432.37l-121.59 -64.1c-348.43,-183.71 -585.34,-389.57 -960.86,-149.52 -240.88,153.98 -484.4,628.62 -484.4,917.91 0,111.68 1.49,223.36 7.27,334.88 11.23,219.23 45.27,574.77 189.99,752.2 105.07,128.7 284.16,150.51 440.45,150.51 269.13,0 543.38,-229.81 756.83,-372.22l205.85 -137.29zm1819.79 -363.79c3.47,-38.82 4.63,-74.51 4.63,-96.65 0,-170.17 13.38,-758.48 -79.8,-1010.59 -29.74,50.22 -52.87,107.88 -54.02,140.76l0 401.46c0,179.09 28.75,380.97 115.15,540.9 3.8,6.94 8.43,15.03 14.04,24.12zm8122.55 -5788.13c-68.23,-221.22 -261.69,-536.93 -334.88,-645.97 -55.35,-82.27 -191.48,-224.52 -319.85,-292.42 33.04,280.03 176.44,458.62 366.27,698.67 52.7,66.74 173.47,179.75 288.46,239.72zm-25003.7 1821.44c304.32,97.64 606.98,249.14 794,413.36 422.77,371.56 665.3,883.05 613.26,1449.72 -95.66,1040 -1075.19,1731.07 -2072.56,1762.13 -1216.94,37.83 -1932.79,-837.78 -1990.78,-1751.06 -62.78,42.62 -125.72,84.75 -188.84,126.88l-317.7 211.96 -317.7 -211.96c-176.94,-117.96 -334.22,-201.72 -488.36,-357.18 -39.82,-40.31 -80.79,-79.63 -120.44,-120.11 -64.93,-66.08 -116.14,-141.58 -149.35,-222.7 -371.39,-139.6 -681.82,-399.31 -839.1,-803.75 -86.74,-222.87 -110.53,-455.48 -83.93,-682.81l-326.45 162.73 -276.07 -184.21c-314.06,-209.49 -586.66,-456.14 -694.87,-828.53 -510.83,-246.99 -901.88,-719.49 -901.88,-1316.89 0,-92.85 13.55,-184.87 39.82,-273.92 25.77,-87.07 60.8,-166.37 103.42,-238.89 -83.1,22.96 -166.04,44.11 -248.48,63.28l-428.55 99.46 -205.85 -387.42c-110.2,-207.67 -257.56,-374.37 -359.66,-598.39 -40.31,-88.39 -72.53,-180.08 -94.67,-274.58l-117.46 -501.74 2093.05 -709.91c337.19,-114.33 675.21,-242.03 1016.87,-354.21 -78.47,-125.89 -155.46,-244.51 -187.35,-304.48l-274.25 -516.28 525.37 -259.54c114.99,-56.83 233.44,-84.92 342.48,-137.12l469.03 -224.19 1268.48 2105.44c24.62,36.68 49.56,73.19 74.51,109.7 91.36,133.82 185.2,270.45 258.88,414.68 129.36,253.1 184.21,534.45 33.04,795.82 -102.6,177.44 -275.41,290.27 -474.81,330.75 -18.34,3.8 -36.84,7.27 -55.35,10.57l74.01 110.03 130.68 -68.89 286.47 426.41c190.16,282.84 384.61,415.01 480.27,771.86l6.28 23.46c477.46,83.27 876.6,365.94 1116.82,777.31 60.8,-42.95 114.82,-82.44 152.82,-110.03 246.49,-178.43 491.17,-380.64 742.62,-548.33l389.73 -260.04 1133.84 1129.38 -261.03 388.24c-114.33,170.33 -481.09,426.74 -670.26,564.03zm-3234.15 35.85c127.54,-61.62 253.6,-150.34 327.12,-209.65 12.06,-9.91 27.59,-23.13 45.1,-38.66 -130.68,63.28 -256.74,151.5 -372.22,248.31zm2160.78 2066.45c114.66,-38.33 191.97,-89.87 327.94,-170.66 141.09,-83.6 270.12,-153.15 374.53,-281.52 36.84,-45.43 101.27,-134.48 149.18,-220.22 -218.24,31.72 -705.12,418.97 -851.66,672.4z"/>
   <path class="fil1" d="M5910.55 34663.53c69.22,-297.05 53.86,-288.95 248.48,-488.36 1329.44,-1361.66 2435.69,-480.1 1307.14,432.52 -460.11,372.05 -1146.89,664.31 -1555.62,55.84zm2417.68 1873.48c0,-542.71 963.34,-1338.2 1477.8,-1338.2 880.07,0 674.39,664.14 280.2,1149.2 -154.14,189.66 -302.66,279.87 -526.03,412.36 -232.29,137.62 -350.41,218.9 -668.11,279.87 -565.68,108.71 -563.86,-257.23 -563.86,-503.23zm1074.86 -1739.66c-111.35,0 -538.09,96.48 -614.42,124.07 -1395.69,502.24 -1022.48,2523.42 541.56,2474.68 1287.81,-40.15 2052.4,-1378.68 1099.31,-2216.29 -188.67,-165.71 -708.59,-382.46 -1026.45,-382.46zm-4634.47 -6556.85c136.46,256.9 445.08,636.22 470.19,936.74 -503.39,116.8 -1135.49,365.61 -1620.54,526.69l-1603.36 543.87c64.43,274.91 268.63,483.07 402.95,735.85 639.03,-148.36 1757.01,-596.41 2510.7,-844.39 325.13,-106.89 539.08,-221.38 847.53,-293.08l378.83 637.88c79.3,75.5 -76.49,144.06 217.42,84.26 275.07,-56.01 -31.22,-446.23 -260.37,-789.21l-1007.45 -1672.59c-120.44,57.66 -217.09,75.17 -335.87,133.99zm-1544.71 3746.8c0,519.92 555.6,936.74 1141.77,936.74l-265.99 208.83c63.61,238.56 279.2,401.63 467.38,527.19l2283.7 -1137.47c-61.46,-229.15 -166.37,-250.46 -402.95,-602.19 -447.22,235.75 -1564.87,869.83 -2015.07,869.83 -362.47,0 -575.92,-261.03 -604.34,-602.19 247.98,-260.54 1592.95,-816.8 1947.66,-1003.65 -234.1,-348.26 -342.81,-377.67 -402.95,-602.19 -198.25,52.7 -903.2,450.03 -1164.23,579.89 -326.95,162.73 -984.98,406.58 -984.98,825.22zm3626.85 3880.62c510.66,-340.66 3251.33,-2249.83 3358.22,-2408.6l-470.19 -468.54c-284.66,189.99 -1233.95,977.88 -1544.71,1003.65 -62.95,-751.37 -655.88,-1143.09 -1303.01,-1032.73 -1788.73,304.98 -2002.01,2237.11 -376.18,2237.11 -105.9,394.85 -379.98,65.75 -63.61,385.1 113.33,114.33 271.11,198.42 399.48,284z"/>
   <path class="fil2" d="M17933.05 39614.71c0,-298.2 293.08,-1538.77 940.21,-1538.77 916.58,0 260.87,2140.96 -335.87,2140.96 -298.37,0 -604.34,-54.52 -604.34,-602.19zm-4029.97 -1137.31c0,-501.08 -693.72,-942.19 -541.23,-1276.41 112.18,-246.66 373.87,-308.45 619.87,-145.88 232.78,154.31 257.07,321 257.07,686.12 219.73,-58.32 291.1,-167.69 403.11,-334.38 -10.41,-12.06 -24.12,-29.41 -30.4,-36.84 -1120.62,-1332.42 -1850.19,-132.17 -1850.19,170.5 0,597.07 537.26,777.15 537.26,1338.2 0,267.97 -928.48,410.55 -1007.45,-535.12l-134.32 0c-62.78,233.77 -25.61,150.18 -201.56,267.64 792.02,1178.28 1947.83,621.19 1947.83,-133.82zm1343.32 1338.04c-287.47,0 -362.47,-398.82 -361.98,-590.13 3.63,-1398.34 1709.1,-2274.45 1665.65,-1025.46 -15.36,441.11 -354.54,989.28 -631.27,1281.86 -190.49,201.72 -342.32,333.72 -672.4,333.72zm402.95 200.73c1254.93,0 2187.71,-1903.22 777.64,-2514.33l-370.4 -104.74c-263.01,-37.5 -280.86,-41.63 -542.71,3.3 -595.91,102.1 -1275.09,766.57 -1275.09,1411.55 0,542.38 491,1204.22 1410.56,1204.22zm2753.89 -2074.21c86.24,-179.25 451.35,-1381.65 471.84,-1627.81l-740.64 -44.77 -528.67 2015.73c-204.7,652.91 -386.1,1314.74 -546.02,1998.88 167.19,-44.61 503.23,-245.83 671.74,-334.72 488.86,727.09 1427.58,564.52 1921.56,-92.85 511.99,-681.49 621.35,-1609.15 -109.2,-1982.02 -468.04,-238.73 -687.6,30.07 -1140.61,67.57z"/>
   <path class="fil3" d="M28948.09 35867.91c0,-257.73 700.99,-920.38 981.68,92.68 132.17,477.62 246.82,1135.82 428.72,1513.16 825.88,-435.33 696.86,-218.74 209.98,-1681.18 -136.3,-410.05 -219.07,-928.31 -747.41,-928.31 -558.08,0 -833.48,575.76 -1007.45,936.74 -206.35,-150.67 -108.21,43.12 -134.15,-267.47 -341.16,78.97 -263.51,188.34 -604.67,267.47 25.77,308.28 296.72,987.29 394.03,1280.38 136.79,411.37 311.75,765.91 411.87,1195.29 1306.15,-303.16 67.41,-936.08 67.41,-2408.76zm3828.41 -2542.42c0,-357.18 243.85,-432.52 402.78,-669.27 -104.91,-156.12 -250.13,-366.27 -402.78,-468.21 -296.06,440.45 -238.89,557.25 -201.56,1003.49 -171.32,-114.16 -209.82,-114.66 -268.8,-334.55 -294.07,24.45 -411.54,214.77 -537.1,401.46l1343.16 2208.03c247.81,-65.92 411.37,-281.02 537.43,-468.37 -160.91,-302.66 -316.87,-516.12 -470.35,-802.76 -169.67,-317.37 -402.78,-495.13 -402.78,-869.83zm-67.24 2408.76c-559.4,46.09 -303.16,606.49 -1028.27,-715.52 -129.86,-236.42 -393.03,-716.35 -449.37,-957.23 118.13,-175.62 372.05,-313.4 270.94,-414.02 -114.66,-113.99 -196.6,82.27 -472.5,146.21 -65.92,-281.85 -165.71,-721.8 -470.02,-802.92 -69.06,294.57 -277.88,477.46 -302.17,624.16 -28.42,171.16 176.11,395.84 234.76,647.13 -100.12,149.35 -266.48,217.75 -152.32,331.25 146.87,146.05 -31.56,-31.56 353.88,-63.61 46.75,97.14 69.88,175.29 124.4,277.55 385.93,722.96 562.04,1462.11 1084.6,1462.11 249.63,0 320.18,13.88 589.47,-215.6 149.35,-127.54 166.37,-132.17 216.59,-319.52zm3358.39 -7828.47c0,-687.11 743.78,-516.61 1074.53,-66.74 -76.16,325.3 -259.71,477.29 -335.87,802.92 -269.62,-22.47 -738.65,-415.01 -738.65,-736.18zm-336.04 267.64c0,1310.12 1438.98,1923.37 2361.84,1081.63 88.72,-80.79 782.27,-865.37 257.56,-1215.28 0,372.88 16.52,479.6 -179.58,690.91 -362.8,391.22 -829.35,379.82 -1230.81,112.01 25.77,-308.94 153.48,-368.09 358.34,-780.45 136.13,-273.59 247.48,-508.35 380.64,-758.48 -1449.06,-966.64 -1947.99,510.99 -1947.99,869.67zm-1947.83 334.55l1261.21 1286.32c62.94,57.49 46.09,36.84 107.39,93.67l864.71 811.35c259.54,258.88 497.45,558.08 789.21,752.7 143.4,-269.95 239.88,-426.41 402.95,-669.1 -492.99,-328.93 -1480.94,-1513.98 -2075.7,-2013.58l-1013.89 -930.3c-106.23,200.07 -286.64,458.95 -335.87,668.94zm-7589.58 8831.79c0,-344.79 335.54,-856.28 712.55,-777.31 624.16,130.85 563.7,1221.73 563.7,1647.31 0,1260.72 -1276.25,927.49 -1276.25,-468.54l0 -401.46zm806.06 -1003.49c-1112.69,0 -1975.91,1464.09 -1236.6,2369.28 347.27,425.25 884.86,624.66 1485.57,354.54 1354.23,-609.13 1121.94,-2723.82 -248.97,-2723.82zm6783.52 -4884.27c0,-719.99 912.79,-581.7 1373.23,104.08 1161.76,1730.57 -193.63,1938.74 -877.1,1074.53 -326.79,-413.19 -496.13,-694.54 -496.13,-1178.61zm-402.95 401.46l0 401.46c0,548.5 555.11,1204.38 1074.69,1204.38l470.19 0c820.43,0 1505.39,-1425.1 721.64,-2391.74 -428.06,-528.01 -1173.98,-676.87 -1732.56,-221.22 -274.25,223.69 -533.96,578.23 -533.96,1007.12zm-10477.78 6088.48c0,-546.85 395.84,-1172 747.24,-1396.69 650.93,-416 1110.87,-98.8 1536.45,125.56 70.71,-146.87 117.13,-263.18 134.32,-468.37l-1074.69 -66.91c-1057.67,0 -1917.1,855.29 -2086.6,1736.85 -329.92,1717.03 1210,2593.8 2694.24,1946.17 280.03,-122.09 332.73,-141.09 332.73,-538.25 -280.53,187.02 -617.39,468.21 -1074.53,468.21 -1127.23,0 -1209.17,-979.03 -1209.17,-1806.57z"/>
  </g>
 </g>
</svg>
