<?xml version="1.0" encoding="UTF-8"?>
<!DOCTYPE svg PUBLIC "-//W3C//DTD SVG 1.1//EN" "http://www.w3.org/Graphics/SVG/1.1/DTD/svg11.dtd">
<!-- Creator: CorelDRAW -->
<svg xmlns="http://www.w3.org/2000/svg" xml:space="preserve" width="26.6439mm" height="11.2387mm" version="1.1" style="shape-rendering:geometricPrecision; text-rendering:geometricPrecision; image-rendering:optimizeQuality; fill-rule:evenodd; clip-rule:evenodd"
viewBox="0 0 554.8 234.02"
 xmlns:xlink="http://www.w3.org/1999/xlink"
 xmlns:xodm="http://www.corel.com/coreldraw/odm/2003">
 <defs>
  <style type="text/css">
   <![CDATA[
    .fil0 {fill:black}
    .fil3 {fill:#009933}
    .fil1 {fill:red}
    .fil2 {fill:yellow}
   ]]>
  </style>
 </defs>
 <g id="Camada_x0020_1">
  <metadata id="CorelCorpID_0Corel-Layer"/>
  <g id="_2899923164656">
   <path class="fil0" d="M216.28 126.04c2.14,-4.1 3.93,-5.07 5.68,-10.03 1.32,-3.76 2.02,-3.74 3.11,-5.72l11 -28.49c0.89,-3.67 2.21,-7.22 3.24,-10.85 1.88,-6.65 3.67,-13.72 4.54,-20.54l1.27 -4.61 4.53 -40.06c15.43,-0.83 13.13,-1.33 29.37,2.17l48.42 11.06 26.51 5.43 -1.89 11.01c-2.11,12.3 -10.25,33.17 -13.9,47.07l-1.36 5.2 48.25 -4.9c2.48,-7.85 4.56,-15.78 6.5,-23.75 1.7,-6.99 2.5,-14.17 3.82,-21.22 1.37,-7.34 1.26,-14.98 2.36,-22.41l1.45 -9.8c15.35,-0.74 12.37,-1.18 28.5,2.23l76.76 17.61 -18.93 62.29 69.29 -6.71 -18.4 21.82c-5.73,6.8 -11.73,3.31 -25.04,28.72 11.93,2.94 14.46,5.11 22.3,10.5 -1.25,10.11 -0.85,8.55 -5.33,19.11 -6.27,14.78 -13.8,30.32 -19.64,44.75l-5.65 13.96 -12.92 0.47 -6.98 -13.9c-3.53,8.06 -8.08,17.47 -16.81,20.87 -4.49,1.75 -8.73,1.63 -13.58,2.12l-51.37 4.57 -2.01 -16.95c-20.05,-9.22 -13.31,-5.25 -32,-22.53l-2.11 -1.9c-2.26,5.25 -4.36,11.37 -7.81,15.85l-25.28 1.58c-5.74,11.37 -9.34,18.44 -24.74,19.23 -13.07,0.67 -34.62,3.99 -44.93,3.76l-15.38 -0.34 -14.15 -12.25 16.16 -8.3c-6.6,-2.56 -23,-10.38 -28.14,-14.98 -0.95,-0.84 -1.91,-1.69 -2.88,-2.55l-4.4 2.39 -14.39 15.79c-4.02,4.56 -5.63,8.06 -12.41,10.82l-14.07 5.74c-3.1,-8.4 -3.7,-12.74 -9.82,-20.23 -8.88,-10.88 -11.65,-11.24 -26.5,-13.57 -5.38,-0.85 -16.36,-1.13 -20.76,1.87 -4.08,2.77 -3.99,11.99 -4.23,15.95l-0.83 13.91c-19.59,-3.64 -15.38,-1.85 -33.41,-10.84l-56.47 -28.84c-3.9,-2.04 -13.92,-6.84 -16.74,-9.76l-4.07 -4.22 1.08 -5.43c1.34,-6.72 10.36,-21.17 14.74,-27.34 13.23,-18.67 28.1,-34.1 52.1,-43.92l-42.13 -39.07c4.18,-7.73 6.77,-13.03 15.85,-18.99l6.27 -4.12c3.86,1.41 8.21,2.79 11.59,4.64 2.76,1.51 3.78,2.06 9.19,1.38 17.34,-2.19 37.1,-21.48 54.07,-30.25 29.42,-15.2 56.36,-14.89 81.39,6.76 13.04,11.28 15.77,20.66 20.18,34.05l-1.5 0.62c1.72,12.31 -1.47,15.51 -2.39,24.24 -0.72,6.8 -3.23,13.26 -7.04,19.15 -0.11,1.1 4.09,6.14 4.79,12.59l0.68 6.22 -4.93 3.58c0.53,2.78 1.04,5.86 2.35,8.25zm153.1 -6.22c-2.72,3.7 -5.34,7.79 -7.43,11.66 0.27,0.07 0.54,0.14 0.8,0.21l6.63 -11.87z"/>
   <path class="fil1" d="M28.91 156.99l191.79 0c-2.35,3.05 -5.91,6.86 -6.91,9.03 0.86,1.39 3.74,3.79 5.05,4.91 9.21,7.89 1.61,7.08 -1.72,12.59l-0 -0.72 -21.15 23.22c-2.19,2.48 -4,5.97 -7.44,7.37 -1,-2.7 -5.08,-8.34 -6.94,-10.61 -11.29,-13.83 -17.09,-15.54 -35.22,-18.38 -11.19,-1.76 -24.37,-0.72 -31.61,4.2 -7.87,5.35 -8.77,13.23 -9.45,24.68 -2.41,-0.45 -81.96,-41.11 -83.33,-42.53 0.5,-2.52 3.72,-8.42 6.93,-13.77zm196.72 0l143.68 0c-2.77,3.51 -5.62,6.92 -6.98,9.03 1.28,1.52 2.96,3.8 5.93,4.48 0.92,-3.46 3.42,-8.89 5.58,-13.51l149.36 0c-5.97,14.13 -17.65,39.8 -19.95,45.5 -3.01,-5.99 6.6,-21.04 -14.44,-23.5l-8.87 18.89c-10.09,22.41 -9.31,18.94 -21.3,20.27l-39.22 3.49c9.76,-3.13 16.22,-8.97 21.27,-16.93 3.05,-4.81 10.55,-20.54 11.55,-26.71 -14.78,1.51 -42.03,17.54 -50.78,23.72 -2.77,-1.23 -12.58,-10.93 -16.69,-14.82l-16.8 -15.17c-2.93,3.09 -10.6,25.69 -14.42,30.63 0.17,-5.44 1.23,-12.53 -1.17,-17.05 -1.94,-3.66 -7.52,-6.43 -13.38,-6.12 -2.06,6.53 -14.24,32.66 -18.05,36.81 -2.18,2.38 -8.5,1.79 -12.1,2.17 -8.32,0.88 -33.12,3.62 -38.56,3.5 10.71,-4.46 15,-7.37 21.3,-17.02 2.75,-4.22 10.96,-21.54 11.43,-26.67 -12.05,1.35 -44.07,17.55 -50.45,23.83 -3.03,-1.17 -11.71,-10.05 -14.36,-12.42 -20.25,-18.08 -12.74,-11.63 -6.68,-22.18 -1.22,-2.82 -4.3,-6.46 -5.89,-10.24z"/>
   <path class="fil2" d="M77.14 81.71l51.83 0 -16.6 17.04c6.89,-0.96 22.88,-8.31 36.45,-17.04l64.13 0c-4.46,13.7 -18.46,25.04 -33.05,30.57 -1.55,0.9 -2.94,1.82 -4.77,2.87 -3.89,2.23 -15.69,8.63 -19.64,9.83 -9.88,3.01 -40.36,19.72 -41.8,31.91 2.84,-0.92 6.97,-3.38 10.08,-4.82 9.96,-4.6 26.86,-8.2 37.53,-5.61 0.85,0.3 1.19,0.45 1.42,0.72l1.05 0c-0.86,-4.56 -7.91,-14.11 -6,-15.54l18.71 -11.51c7.88,-3.74 5.54,-2.92 12.38,-7.4 2.17,-1.42 4.15,-1.9 6.7,-3.42 3.27,-1.94 10.11,-7.03 13.25,-7.41 1.26,3.07 2.8,3.86 3.21,7.68 -6.59,4.78 -4.5,7.19 -3.23,14.88 1.17,7.09 4.39,9.08 7.3,14.5 1.62,3.01 7.52,11.83 6.68,14.65 -0.3,1 -1.37,2.49 -2.68,4.13l-191.64 0c6.79,-11.46 14.25,-21.5 23.03,-30.01 12.72,-12.33 25.21,-19.37 47.71,-25.5l-22.05 -20.54zm180.56 0l61.92 0c-0.62,2.13 -1.18,3.96 -1.69,5.28l-13.85 31.37 -5.84 11.63 -3.28 5.63c-1.11,2.11 -1.67,4.11 -2.79,6.49 5.37,-1.06 16.12,-3.39 23.84,-4.06l3.04 -6.29c4.47,-8.87 9.11,-21.3 14.83,-30.58l49.42 -5.01c-1.31,2.38 -1.53,1.12 -5.9,4.54 -11.17,8.73 -24.08,29.9 -25.87,40.38 7.25,0.29 19.99,3.28 24.31,6 -0.99,2.72 -4.09,6.81 -7.15,10.67l-142.72 0c-1.28,-2.7 -1.9,-5.51 -0.62,-8.16 1.44,-2.98 9.36,-13.3 9.58,-14.84 1.59,-6.09 4.07,-5.02 7.51,-14.79 0.82,-2.33 1.34,-2.17 2.59,-4.42 2.22,-4.61 10.47,-25.24 11.83,-30.83 0.24,-1.01 0.53,-2.01 0.83,-3.02zm149.41 0l61.69 0c-5.09,15.96 -19.47,43.99 -27.68,60.46 3.15,-0.44 7.62,-1.82 11.93,-2.55 4.35,-0.74 8.24,-1.06 12.46,-1.8l13.08 -27.97c1.5,-2.9 3.32,-5.88 4.45,-8.71l49.8 -4.82c-1.82,2.16 -9.95,4.34 -19.76,19.28 -3.31,5.03 -11.04,18.95 -12.39,25.37 7.11,0.76 20.87,3.27 26.05,6.84 -0.11,0.93 -1.63,4.73 -3.84,9.95l-149.39 0c0.96,-2.05 1.87,-3.98 2.58,-5.54 3.28,-7.25 -1.33,-3.38 2.16,-8.25 1.88,-2.63 3.39,-5.08 5.11,-8.06 11.62,-20.21 18.13,-35.1 23.78,-54.19z"/>
   <path class="fil3" d="M468.49 82.64l-61.66 0c1.89,-6.32 3.68,-13.08 5.53,-20.65 1.77,-7.26 2.55,-14.36 3.94,-21.78 1.39,-7.44 1.31,-15.3 2.42,-22.79 3.5,-0.17 67.84,14.69 76.51,16.8l-13.47 44.33c-0.45,-7.25 3.87,-17.14 0.45,-23.49 -5.11,-0.59 -6.42,4.48 -7.82,8.53 -3.18,9.17 -3.99,13.26 -5.89,19.05zm-149.14 0l-61.92 0c0.79,-2.73 1.77,-5.5 2.58,-8.37 1.86,-6.55 3.94,-14.94 4.85,-22.06l1.18 -3.77 3.5 -30.99c4.8,-0.26 65.44,14.64 76.44,16.7 -1.4,8.14 -10.84,35.25 -13.71,46.18 -1.6,-5.87 6.37,-22.01 -0.43,-25.55 -5.09,-0.74 -9.48,17.69 -12.49,27.85zm-106.71 0l-65.27 0c15.56,-9.78 28.52,-21.57 22.1,-28.1 -8.72,-8.87 -26.62,12.7 -31.5,17.92l-9.91 10.17 -49.93 0 -28.59 -26.49c0.82,-1.52 6.14,-6.2 7.78,-7.27 3.37,1.23 5.18,3.49 10.51,4.18 26.72,3.44 49.5,-21.54 69.35,-31.8 23.92,-12.36 44.04,-12.96 64.77,4.97 5.04,4.36 10.99,11.61 13.49,19.2l-0.66 0.27 0.16 0.31c4.68,16.35 0.32,20.19 -0.67,29.63 -0.25,2.39 -0.81,4.73 -1.62,7z"/>
  </g>
 </g>
</svg>
