<?xml version="1.0" encoding="UTF-8"?>
<!DOCTYPE svg PUBLIC "-//W3C//DTD SVG 1.1//EN" "http://www.w3.org/Graphics/SVG/1.1/DTD/svg11.dtd">
<!-- Creator: CorelDRAW -->
<svg xmlns="http://www.w3.org/2000/svg" xml:space="preserve" width="28.3119mm" height="16.7627mm" version="1.1" style="shape-rendering:geometricPrecision; text-rendering:geometricPrecision; image-rendering:optimizeQuality; fill-rule:evenodd; clip-rule:evenodd"
viewBox="0 0 11111.84 6579.02"
 xmlns:xlink="http://www.w3.org/1999/xlink"
 xmlns:xodm="http://www.corel.com/coreldraw/odm/2003">
 <defs>
  <style type="text/css">
   <![CDATA[
    .fil0 {fill:black}
    .fil2 {fill:#009933}
    .fil3 {fill:red}
    .fil1 {fill:yellow}
   ]]>
  </style>
 </defs>
 <g id="Camada_x0020_1">
  <metadata id="CorelCorpID_0Corel-Layer"/>
  <g id="_2900139562816">
   <path class="fil0" d="M3140.82 3623.68c-166.69,280.03 -346.13,547 -528.16,809.49 209.94,-2.12 423.25,4.2 632.25,33.6 468.5,65.86 1053.18,338.51 1401.07,767.14 118.69,146.24 362.69,390.05 224.11,665.92 -111.74,222.42 -320.38,121.86 -503.9,63.62 -86.11,-27.32 -173.48,-55.81 -258.64,-87.95 -482.36,-181.95 -1321.05,-192.67 -1816.75,-93.68 -185.88,37.13 -455.24,122.41 -633.11,221.83 -197.22,110.25 -380.51,295.22 -539.03,153.11 -103.97,-93.25 -473.17,-625.34 -540.8,-771.85 -38.62,-83.72 -45.65,-177.09 -20.29,-269.28 48.08,-174.65 650.61,-1008.91 767.53,-1176.34l709.64 -1018.64c168.81,-256.76 286.12,-399.39 393.3,-718.16 47.49,-141.21 100.08,-344.4 -29.79,-404.88 -386.36,-179.83 -1022.53,598.06 -1233.09,1027.98 -84.23,171.95 -141.21,400.64 -232.5,510.89 -69.39,83.83 -163.47,104.71 -249.62,55.42 -95.65,-54.75 -593.86,-644.8 -648.42,-764.51 -39.64,-86.97 -45.37,-184.66 -16.37,-278.74 76.73,-248.99 434.63,-741.79 589.86,-944.82 476.63,-623.34 1015.5,-971.47 1687.19,-1028.65 389.3,-33.13 718.55,63.11 1048.63,336.59 457.08,378.7 545.86,975.9 375.25,1626.08 264.85,-332.16 451.59,-810.39 409.04,-1299.07 -17.94,-206.05 -98.47,-495.98 61.58,-653.64 51.93,-51.14 110.4,-70.45 174.34,-57.5 197.81,40.07 575.26,263.12 805.92,349.86 230.27,86.58 417.21,302.88 494.33,576.12 -8.36,-277.21 -59.03,-732.52 -46.67,-964.79 9.42,-177.4 126.73,-306.92 259.66,-286.75 117.74,17.9 974.72,458.18 1130.62,553.87 138.66,85.13 296.64,87.21 405.63,373.29 177.32,465.44 -94.27,861.41 -227.76,1191.65 -45.92,113.54 -120.96,282.82 -187.88,451.7 11.11,-1.92 22.33,-3.92 33.56,-5.97 368.38,-363.99 682.4,-922.41 620,-1522.9 -23.23,-223.24 -95.45,-500.22 54.91,-655.6 51.38,-53.02 109.93,-74.1 174.38,-62.68 226.34,40.15 559.44,265.67 804.35,348.05 210.76,70.84 426.47,304.52 505.91,576.28l-53.42 -873.54c0.51,-174.34 36.74,-313.2 184.98,-364.69 140.98,-48.94 383.33,114.37 512.42,189.61 114.53,66.72 237.37,110.33 353.23,175.79 110.13,62.25 526.12,259.31 598.92,323.44 76.49,67.43 129.36,159.46 165.39,270.93 142.86,441.81 -100.44,783.23 -241.69,1149.26 -49.22,127.56 -124.26,288.16 -190.78,449.78 119.43,-24.45 247.65,-49.81 368.03,-43.17 265,14.68 419.56,577.73 -276.23,1063.15 -96.47,67.31 -199.73,123.79 -298.05,186.51 -35.99,430.59 55.93,1394.6 120.92,1800.5 30.1,188.08 124.18,587.19 94.86,759.53 -26.34,154.72 -134.54,257.39 -253.19,240.28 -129.87,-18.72 -269.91,-96.98 -389.73,-165.94 -313.36,-180.34 -600.53,-510.89 -772.05,-903.41 -195.97,-448.53 -267.44,-971.82 -269.59,-1486.48l-802.42 51.41c-181.25,23.9 -362.69,1.69 -541.5,23.9 -161.03,19.98 -444.64,56.24 -597,20.17 -49.81,-11.77 -93.17,-42.47 -126.1,-86.97 -1.37,582.2 121.08,1481.41 210.06,2048.66 12.83,81.6 32.58,171.12 19.27,254.29 -24.84,154.83 -131.6,259.19 -250.21,244.59 -417.52,-51.53 -988.38,-601.28 -1177.56,-1095.06 -147.89,-385.96 -272.73,-908.2 -251.42,-1344.36 1.49,-30.93 2.39,-68.96 2.55,-109.78l-1344.2 82.22c-111.23,6.04 -485.89,30.26 -583.34,11.54 -166.84,-32.07 -206.33,-237.61 -262.41,-498.25zm2506.37 -1753.01c-101.3,311.2 -386.44,686.53 -588.95,889.28l338.04 -12.48c134.93,-219.67 224.66,-623.77 250.91,-876.8zm2922.09 897.17l346.44 -18.25c142,-252.09 230.97,-610.66 260.45,-901.92 -105.15,339.61 -395.97,709.41 -606.89,920.17z"/>
   <path class="fil1" d="M6909.99 837.98c-105.77,-64.96 -988.3,-516.46 -1059.11,-527.26 -8.79,164.96 46.39,759.29 48.59,1009.81 3.38,391.77 -4.67,684.84 -116.37,1109.15 -37.44,142.27 -197.53,603.48 -317.24,626.04l-1118.02 41.21c44.9,-104.09 70.45,-92.27 157.46,-172.57l439.42 -439.69c170.38,-196.4 410.65,-476.71 494.72,-759.09 108.48,-364.34 -102.52,-662.51 -333.02,-749.16 -190.86,-71.78 -641.74,-314.18 -777.46,-341.65 -11.66,106.56 23,271.56 31.44,368.34 56.48,649.08 -210.53,1302.76 -617.25,1714.74l-447.58 407.04c3.65,100.47 108.99,627.3 141.06,689.59 97.33,18.64 1857.8,-95.18 2113.07,-109.82 12.36,101.1 17.11,343.73 11.77,453.39 -18.8,384.12 103.26,861.65 226.46,1183.29 157.5,410.97 664.51,886.41 990.85,926.68 1.96,-12.17 -345.85,-2015.07 -195.34,-2698.02 217.63,-166.06 719.38,-367.16 772.28,-731.93 -164.65,-9.77 -576.51,110.72 -721.85,94.71 41.64,-257.27 242.98,-703.83 346.09,-958.95 112.52,-278.39 338.28,-607.28 225.13,-904.23 -62.91,-165.04 -168.61,-153.93 -295.11,-231.6z"/>
   <path class="fil2" d="M9371.39 377.33c39.76,675.77 137.09,1381.72 -75.28,2086.19 -48.39,160.56 -179.52,489.7 -261.27,568.9 -35.13,31.71 -54.24,25.51 -134.03,28.02 -274.5,8.36 -845.99,66.68 -1029,34.03 40.27,-99.93 76.93,-103.1 154.48,-172.46l439.97 -439.89c268.69,-303.27 701.91,-817.57 455.04,-1240 -64.48,-110.25 -167.75,-225.17 -293.42,-267.47 -224.62,-75.47 -613.64,-312.1 -777.93,-341.26 -8.63,98.04 22.37,264.14 33.13,367.83 92,884.65 -461.32,1709.76 -1065.5,2102.12 -8.4,65.5 102.01,546.25 127.56,707.6 103.85,24.57 423.45,-9.93 534.32,-23.63 167,-20.8 368.5,0 545.82,-24.49l808.7 -51.81c327.48,-17.43 226.74,-94 248.16,467.21 16.44,431.18 82.46,825.07 234.7,1173.55 142.67,326.46 388.48,616.47 662.78,774.32 90.7,52.24 224.77,128.14 322.07,142.2 11.74,-69 -77.95,-516.9 -95.49,-626.28 -70.1,-437.85 -189.84,-1656.26 -100.36,-2072.61 204.84,-150.01 722.67,-373.68 772.64,-731.78 -207.86,-11.5 -548.57,114.37 -722.44,94.23 48.43,-307.31 240.35,-676.95 346.95,-953.1 150.04,-388.91 323.25,-611.52 234.9,-884.81 -57.62,-178.22 -148.95,-164.61 -294.52,-250.4 -109.82,-64.72 -240.16,-120.57 -346.52,-180.7 -112.29,-63.42 -244.08,-112.25 -355.63,-177.2 -97.77,-56.95 -239.73,-141.53 -352.09,-175.16 -17.7,20.72 -17.47,-31.52 -17.74,66.84z"/>
   <path class="fil3" d="M775.46 3106.51c36.89,-44.55 136.9,-334.2 193.81,-450.45 262.45,-535.77 982.61,-1395.46 1506.26,-1151.65 251.81,117.27 293.3,446.17 165.9,824.87 -125.63,373.56 -239.41,504.85 -430.75,795.79 -172.49,262.25 -1403.07,1986.42 -1433.61,2097.37 47.14,102.16 398.21,610.27 472.31,676.75 124.57,-39.25 397.46,-302.95 1006.67,-424.58 495.7,-98.98 1390.63,-95.96 1915.3,102.01 77.63,29.24 428.59,149.38 504.34,150.67 -29.83,-92.08 -132.34,-196.2 -188.63,-265.55 -297.34,-366.38 -827.5,-624.28 -1266.73,-686.05 -470.86,-66.13 -977.98,-6.24 -1119.35,-28.53 105.46,-325.88 2296.12,-2796.65 1119.31,-3771.77 -263.31,-218.14 -537.11,-321.91 -910.08,-290.2 -622.55,53.02 -1107.03,376.23 -1538.17,940.07 -114.68,149.97 -481.61,659.8 -537.54,841.16 27.67,60.64 501.75,617.68 540.95,640.09z"/>
  </g>
 </g>
</svg>
