<?xml version="1.0" encoding="UTF-8"?>
<!DOCTYPE svg PUBLIC "-//W3C//DTD SVG 1.1//EN" "http://www.w3.org/Graphics/SVG/1.1/DTD/svg11.dtd">
<!-- Creator: CorelDRAW -->
<svg xmlns="http://www.w3.org/2000/svg" xml:space="preserve" width="30.4599mm" height="10.7357mm" version="1.1" style="shape-rendering:geometricPrecision; text-rendering:geometricPrecision; image-rendering:optimizeQuality; fill-rule:evenodd; clip-rule:evenodd"
viewBox="0 0 245.78 86.63"
 xmlns:xlink="http://www.w3.org/1999/xlink"
 xmlns:xodm="http://www.corel.com/coreldraw/odm/2003">
 <defs>
  <style type="text/css">
   <![CDATA[
    .fil0 {fill:#FEFEFE}
    .fil1 {fill:black}
    .fil3 {fill:red}
    .fil2 {fill:white}
   ]]>
  </style>
 </defs>
 <g id="Camada_x0020_1">
  <metadata id="CorelCorpID_0Corel-Layer"/>
  <g id="Figs_Frase_003">
   <path class="fil0" d="M172.89 23.07c-5.01,-0.58 -7.07,-2.28 -6.99,-7.79 0.01,-0.75 0.19,-1.47 0.53,-2.13 1.69,-3.26 7.86,-4.43 11.14,-3.61 1.67,0.42 3.47,0.68 5.01,1.4 -0.57,-4.83 5.26,-10.74 12.89,-8.93 3.01,0.71 5.57,2.71 6.28,5.68 0.02,0.01 0.04,0.03 0.06,0.04 0.28,-4.52 4.57,-8.24 9.39,-7.68 3.93,0.46 10.64,2.15 10.5,7.27 -0.04,1.53 -0.77,2.86 -1.83,3.89 0.02,0.28 0.03,0.57 0.02,0.85 -0.2,4.71 -5.56,9.06 -5.51,11.64 0.02,0.64 0.09,1.17 0.13,1.69 1.45,-0.51 2.86,-0.89 4.1,-1.16 15.19,-3.34 25.94,6.8 27.08,21.64 0.41,5.33 -0.79,10.47 -4.62,14.37 -5.18,5.27 -13.42,6.53 -20.48,6.15 -2.53,-0.13 -4.42,-0.27 -6.7,-1.25 -0.96,0.09 -3.08,0.74 -3.91,0.96 -2.88,0.76 -6.05,-0.32 -8.77,-1.22 -2.83,-0.93 -5.52,-1.81 -8.46,-2.12 -3.16,3.06 -9.87,3.63 -13.77,3.36 -1.29,-0.09 -2.62,-0.46 -3.74,-1.14 -0.6,0.28 -1.22,0.53 -1.85,0.75 1.68,0.51 3.39,0.97 5.06,1.45 3.5,1 7.91,2.29 10.01,5.51 2.06,3.16 1.23,6.97 -0.12,10.22 -0.44,1.05 -1.13,1.94 -2.07,2.58 -2.99,2.04 -7.37,0.86 -10.49,-0.27 -1.56,-0.57 -3.08,-1.23 -4.59,-1.92 -0.87,-0.4 -1.9,-0.92 -2.8,-1.22 -5.06,-1.68 -11,-1.8 -16.29,-1.6 -2.97,0.11 -6.04,0.13 -9,0.43 -2.74,0.27 -5.46,0.86 -8.14,1.46 -2.56,0.57 -4.92,0.74 -7.37,-0.41 -1.54,-0.72 -2.73,-1.84 -3.37,-3.43 -0.78,-1.92 -0.54,-3.82 -0.56,-5.82l-1.79 -0.27c-2.31,7.01 -13.54,7.22 -14.84,0.57 -1.45,0.42 -3.06,0.45 -4.56,0.08 -0.47,1.31 -1.43,2.22 -2.65,2.88 -3.94,2.14 -12.99,0.65 -13.05,-5.04 -0,-0.1 -0,-0.2 0,-0.31 -3.23,-0.16 -6.59,-0.12 -9.74,-0.04 -2.44,0.06 -4.88,0.16 -7.31,0.37 -1.55,0.14 -3.47,0.31 -4.96,0.75 -4.43,1.3 -10.46,0.19 -12,-4.77 -0.44,-1.43 -0.35,-2.85 0.13,-4.17 -1.65,-0.89 -3.24,-1.92 -4.7,-3.09 -3.72,0.53 -9.77,0.89 -12.52,-0.85 -1.32,-0.83 -2.05,-1.77 -2.42,-2.88 -6.74,2.29 -12.94,2.6 -20.36,1.73 -7.42,-0.87 -12.8,-4.56 -12.9,-12.58 -0.1,-8.51 11.4,-17.03 19.02,-18.46 4.04,-0.76 8.79,-0.82 12.86,-0.35 3.17,0.37 5.61,0.9 7.98,2.94l0.82 0.11c0.07,-1.82 0.48,-3.64 1.83,-4.86 2.11,-1.9 6.56,-1.64 9.29,-1.85 3.05,-0.23 6.54,-0.04 8.59,2.57 2.09,2.66 1.79,6.73 4.02,9.93 1.67,2.4 4.02,4.52 6.29,6.49l8.11 -8.09c0.1,-0.1 0.19,-0.17 0.3,-0.25 1.37,-0.97 2.91,-1.6 4.53,-1.9 0.33,-2.08 0.52,-3.64 2.8,-5.39 3.79,-2.91 10.02,-2.04 14.46,-1.52 3.29,0.39 6.62,2.87 6.07,6.41 5.66,-0.33 12.16,1.02 17.62,0.81l13.36 -0.5c0.02,-0 0.03,-0 0.05,-0 1.56,-0.02 3.25,0.37 4.6,1.22 -0.48,-2.02 -0.69,-4.1 -0.69,-6.15 -0,-3.41 3.18,-5.38 6.28,-5.58 3.62,-0.24 10.07,-1.32 13.26,0.38 1.05,0.56 1.89,1.32 2.47,2.36 1.02,1.86 0.98,4.82 1.72,7.02 1.55,4.56 5.57,8.8 9.05,11.96 0.68,0.61 1.5,1.33 2.34,1.99l3.68 -7.41c-2.09,-0.84 -3.78,-2.49 -3.92,-4.91 -0.09,-1.5 0.54,-2.88 1.6,-3.91 0.06,-0.06 0.18,-0.18 0.25,-0.28 -0.37,-0.74 -2.66,-2.37 -3.23,-2.8 -0.86,-0.64 -1.75,-1.31 -2.53,-2.07z"/>
   <path class="fil1" d="M173.97 20.85c-5.2,-0.45 -5.82,-1.68 -5.76,-5.54 0.05,-3.55 7.05,-3.97 8.8,-3.53 2.43,0.61 5.16,0.83 6.24,2.71l4.07 1.08c-0.13,-0.76 -0.27,-1.52 -0.34,-2.29 -5.31,-2.64 0.19,-10.87 7.96,-9.02 2.43,0.58 4.57,2.23 4.69,4.86 1.44,0.72 2.52,1.83 3.32,3.19 0.5,-0.76 0.92,-1.55 1.48,-2.28 -1.45,-4.13 2.28,-8.18 6.51,-7.68 9.35,1.1 10.07,5.54 6.41,7.95 1.62,4.74 -5.35,9.18 -5.27,13.45 0.03,1.44 1.7,6.32 -6.07,6.1 0.08,1.44 0.19,2.9 0.34,4.35 1.39,-4.31 8.86,-6.85 12.76,-7.71 13.85,-3.04 23.25,6.09 24.28,19.56 1.07,14 -10.36,18.7 -22.68,18.04 -9.48,-0.51 -2.91,-2.44 -11.32,-0.21 -4.16,1.1 -9.85,-3.09 -17.65,-3.51 -1.99,3.28 -9.69,3.65 -12.6,3.45 -1.29,-0.09 -2.75,-0.57 -3.63,-1.57 -3.02,1.73 -6.59,2.42 -10.09,2.73 11.01,6.18 26.39,3.63 20.79,17.05 -2.41,5.78 -14.16,-1.15 -17.09,-2.13 -5.32,-1.77 -11.53,-1.92 -17.1,-1.71 -8.57,0.33 -9.49,0.14 -17.55,1.94 -2.03,0.45 -3.94,0.67 -5.88,-0.25 -3.19,-1.5 -2.57,-4.43 -2.6,-7.3 -0.01,-0.69 0.24,-1.28 0.63,-1.75l-6.62 -0.99c-0.08,7.11 -11.27,7.7 -10.74,1.39 -0.67,-0.15 -1.34,-0.4 -1.92,-0.79 -2.05,1.06 -5.29,0.76 -6.83,-1.03 -0.06,1.93 0.4,3.37 -1.77,4.55 -2.48,1.35 -9.6,0.61 -9.64,-3.04 -0.01,-0.83 0.09,-1.63 0.28,-2.43 -5.49,-0.46 -20.47,-0.39 -25.26,1.01 -6.78,1.99 -11.84,-3.11 -7.98,-7.71 -2.6,-1.15 -5.13,-2.69 -7.26,-4.54 -2.63,0.45 -9.56,1.16 -11.97,-0.36 -1.76,-1.11 -1.75,-2.37 -1.56,-4.18 -7.43,3.09 -13.85,3.67 -22.17,2.7 -6.34,-0.74 -10.78,-3.58 -10.86,-10.31 -0.08,-6.65 9.7,-14.76 17.13,-16.16 3.74,-0.71 8.38,-0.77 12.17,-0.32 2.99,0.35 5.11,0.78 7.23,2.85l4.23 0.55c-0.52,-7.53 1.54,-6.48 8.91,-7.05 9.97,-0.76 6.19,5.28 10.54,11.52 2.19,3.13 5.39,5.79 8.3,8.33l9.64 -9.61c1.53,-1.08 3.29,-1.62 5.15,-1.68 0.48,-2.15 0.14,-4.05 2.25,-5.67 3.08,-2.37 9.12,-1.49 12.78,-1.06 2.22,0.26 4.6,1.83 3.98,4.11l-0.75 2.76c5.52,-1.32 14.03,0.62 20.82,0.36l13.36 -0.5c1.63,-0.02 3.67,0.59 4.53,2.05 1.38,0.06 2.73,0.24 3.91,1.18 0.04,-0.07 0.08,-0.14 0.12,-0.21 -1.69,-3.09 -2.38,-6.77 -2.38,-10.26 -0,-2.12 2.29,-3.16 4.11,-3.27 3.56,-0.23 9.61,-1.18 12.02,0.11 4.76,2.55 -2.03,7.57 12.79,21.02 1.11,1.01 3.2,2.79 4.78,3.67l6.2 -12.49c-4.1,0.1 -6.43,-3.24 -4.13,-5.48 3.51,-3.4 -3.29,-5.88 -6.04,-9.02zm33.17 18.71c0.05,0.28 0.11,0.57 0.17,0.85l0.35 -0.07c-0.18,-0.25 -0.35,-0.52 -0.52,-0.79z"/>
   <path class="fil2" d="M188.11 54.99c0.05,-1.92 1.73,-4.45 2.46,-5.9 1.05,-2.07 1.7,-4.33 3.44,-4.86 1.11,1.43 1.89,4.28 2.82,6.01 1.08,2.03 3.37,4.04 4.02,5.47 -4.05,-0.47 -8.7,-0.26 -12.74,-0.73zm31.37 -11.2c5.79,0.68 6.31,0.56 10.73,0.5 0.08,6.73 0.3,10.4 -4.52,13.97 -7.69,-1.92 -7.77,-10.72 -6.21,-14.46zm-0.81 -11.54c6.39,-0.56 10.95,7.17 11.53,10.89 -4.47,-0.58 -6.25,-2.46 -8.62,-4.15 -3.21,-2.29 -2.87,-3.26 -2.91,-6.74zm-68.74 25.14c0.12,-0.05 0.29,-0.22 0.35,-0.14 0.06,0.08 0.29,-0.11 0.37,-0.13 0.76,-0.19 0.54,-0.13 1.29,-0.26 2.58,-0.04 3.75,-0.4 6.03,-0.44 -0.25,-1.6 -0.87,-4.87 -1.25,-6.37 -0.52,-2.06 0.45,-4.18 0.42,-6.71 2.32,0.62 7.04,5.74 9.01,7.43 3.22,2.75 -0.62,7.14 -3.05,8.01 -2.41,0.86 -5.33,1.63 -9.12,1.36 -3.21,-0.38 -2.79,-0.59 -5.37,-1.01 -1.33,0.21 -2.39,0.27 -4.02,0.29 1.45,1.28 0.43,0.52 2.7,1.46 5.16,1.29 3.89,0.46 8.73,1.02 7.13,-0.11 13.34,0.01 17.4,-2.92 1.56,-1.13 1.63,-1.92 5.34,-1.66 0.02,1.8 0.14,1.72 0.71,3.14 2.29,0.16 6.86,-0.73 7.1,-0.85 2.92,-1.45 -2.13,-2.78 4.47,-2.64 6.77,0.15 11.66,2.51 16.59,3.74 11.49,-3.05 4.98,-0.43 13.3,0.02 25.15,1.34 18.05,-22.2 12.41,-27.85 -8.25,-8.26 -21.26,0.31 -21.75,0.98 -1.03,1.41 -1.1,2.83 -0.17,4.37 1.29,2.13 2.32,2.3 4.03,3.94 -2.06,0.54 -4.45,1.09 -6.69,1.51 0.04,2.99 1.22,10.09 2.83,12.16 -2.3,-0.62 -2.24,-1.18 -3.54,-2.62 -6.01,-6.68 -6.8,-21.09 -6.89,-27.99 -2.69,0.42 -5.26,0.45 -8.03,0.97l0.11 9.55c-6.86,1.07 -3.79,-0.25 -8.88,9.48 -1,1.91 -1.95,3.81 -2.92,5.59 -2.2,4.04 -0.52,4.68 -4.72,4.74 0.21,-1.54 0.65,-2 0.62,-4.12 -4.52,-1.21 -11.43,-8.49 -13.55,-11.12 -4.27,-5.32 -5.16,-7.75 -6.2,-14.47l-8.67 0.56c0,2.85 0.46,5.5 1.58,8.05 1.27,2.92 1.57,1.37 0.14,4.05 -1.33,2.51 -2.19,7.71 -2.14,10.69 0.05,2.91 -0.79,6.47 1.44,8.18z"/>
   <path class="fil2" d="M92.91 53.74c-4.43,-0.52 -6.09,-1.21 -10.11,-1.53 -3.8,-0.3 -4.07,-0 -1.82,-2.41l5.27 -5.15c1.2,-0.95 0,-0.85 2.51,-0.94 0.06,4.61 1.31,6.69 4.14,10.03zm-42.28 -4.2c-0.02,-1.63 1.06,-4.92 1.94,-5.88 1.91,0.95 2.09,1.53 3.38,2.69 1.41,1.27 2.06,1.17 2.72,2.61 -2.66,0.04 -4.98,0.54 -8.04,0.58zm13.54 11.13c6.28,0.74 7.07,-0.51 11.39,-0.57 1.91,-1.41 3.77,-1.17 4.65,-3.27 -3.19,0.59 -6.5,1.93 -11.98,0.87 -3.67,-0.71 -7.84,-3.29 -8.18,-5.44l9.38 0.64c-1.86,4.46 2.88,2.14 8.74,2.55 0.03,-1.16 0.29,-1.36 0.64,-2.21 13.76,1.61 17.25,4.64 19.96,4.83 1.98,0.14 3.43,-0.43 6.24,-0.23 -0.94,-2.06 -3.53,-2.89 -5.02,-5.78 -2.01,-3.89 -2.54,-11.32 -1.83,-15.19l1.83 -6.71c-12.08,-1.42 -8.21,0.35 -10.21,5.54 -1.16,3.01 -3.09,-0.06 -5.99,1.98l-12.8 12.88c-1.49,1.33 -0.34,0.77 -3.5,0.65 -2.94,-0.12 -6.41,-0.04 -9.49,-0.41l-0.01 -1.15c6.09,0.71 7.28,-0.45 12.06,-0.11 -4.07,-3.89 -8.6,-7.06 -11.74,-11.56 -1.56,-2.24 -2.5,-4.76 -3.01,-7.09 -0.81,-3.68 0.53,-2.41 -7.62,-2.29 0.02,1.95 -0.11,3.69 0.42,5.57 0.59,2.06 1.63,3.3 1.71,4.98 -4.73,0.74 -3.52,-1.34 -5.28,2.08 -1.92,3.74 -4.64,8.9 -4.59,13.17 10.24,-0.16 7.65,-0.76 10.71,-1.03 2.3,2.71 7.46,6.31 13.49,7.31z"/>
   <path class="fil3" d="M75.56 60.1c-4.31,0.07 -5.11,1.31 -11.39,0.57 -0.57,0.42 -6.17,3.28 -4.34,5.41 0.96,1.12 2.37,0.17 4.17,-0.2 3.53,-0.73 19.51,-1.22 23.73,-0.89 3.45,0.27 3.8,0.42 6.67,0.38 0.72,1.96 -0.63,3.07 -0.6,5.65l2.01 0.24c-0.08,-6.81 1.15,-5.7 3.13,-5.82l2.07 -0.11c0.6,-0.05 -0.58,-0.09 1.43,-0.16l2.04 2.53c0.04,-1.56 0.38,-1.61 1.31,-2.52l4.03 0.47c0.91,1.17 0.68,0.82 0.7,2.37l0.64 -0.7c0.07,-0.06 0.15,-0.16 0.23,-0.22 0.08,-0.06 0.17,-0.15 0.26,-0.2 1.39,-0.76 -1.22,-0.58 2.2,-0.39 1.27,1.64 0.04,3.36 0.07,5.73 3.94,-2.79 -3.25,-7.22 9.97,-5.34l18.83 3.37c-1.41,0.94 -3.81,0.84 -6.03,1.19 -2.28,0.36 -3.85,0.81 -6,1.21 0.01,0.84 -0.1,1.93 -0.02,2.74 0.26,2.61 -0.24,1.87 6.97,0.49 3.8,-0.73 9.75,-0.92 13.98,-1.08 20.76,-0.79 23.44,5.03 30.11,6.13 2.81,-6.74 0.21,-6.82 -10.56,-9.79 -7.02,-1.94 -13.68,-6.04 -15.14,-9.25 -4.84,-0.57 -3.56,0.26 -8.73,-1.02 0.65,0.95 0.13,1.49 1.16,2.9 0.82,1.13 1.8,1.58 2.93,2.92l-20.12 -3.14c-14.04,-1.74 -25.59,-3.05 -39.12,-3.15 -1.42,-0.01 -15.41,0.13 -16.59,-0.32zm74.37 -2.72c-0.4,0.96 -0.6,1.05 -1.32,1.75 2.59,0.43 2.17,0.64 5.37,1.01 -0.84,-1.08 -1.21,-2.22 -2.05,-3.29 -0.75,0.12 -0.53,0.07 -1.29,0.26 -0.08,0.02 -0.31,0.2 -0.37,0.13 -0.06,-0.07 -0.23,0.09 -0.35,0.14z"/>
   <path class="fil2" d="M7.01 45.19c0.03,2.87 0.63,6.18 6.79,6.9 10.81,1.27 16.47,-0.88 22.59,-3.92 1.65,-0.82 3.4,-2.52 4.8,-3.55 -15.44,-1.81 -15.48,-4.07 -22.11,0.84 4.26,0.5 5.61,1.04 10.07,1.56 -1.6,1.18 -6.15,3.05 -9.35,3.1 -7.52,-7.2 2.35,-15.78 7.18,-15.95 0.89,5.76 -1.16,3.69 -1.26,7.1 3.81,0.45 6.5,0.04 10.06,0.42 0.1,-3.53 4.65,-5.31 5.28,-6.63 -2.65,-0.31 -2.72,-0.2 -4.69,-0.17 -1.87,-2.2 -2.05,-2.53 -5.4,-2.92 -3.56,-0.42 -7.72,-0.21 -10.18,0.26 -6.1,1.15 -13.84,8.4 -13.79,12.96z"/>
   <path class="fil2" d="M114.87 39.91l0.03 2.67c0.01,0.74 -0.2,0.66 -0.66,1.07 -2.02,-1.08 -2.04,-2.1 -2.06,-4.06l2.68 0.31zm-13.43 -2.34c0.07,1.46 2,6.71 3.45,8.42 3.66,-0.06 5.71,-1.13 9.37,-1.19 -0.06,2.23 -1.27,4.65 -1.28,7.09 -0.01,4.17 -0.51,3.26 0.11,7.28 1.98,0.14 7.69,-0.54 9.38,-0.81 -0.03,-2.13 -0.85,-2.99 -0.71,-4.63 0.42,-5.18 1.94,-10.15 2.5,-14.24 4.01,-0.06 8.29,-0.25 11.62,-1.17l2.43 -1.37c-18.29,0.28 -8.03,1.17 -28.82,-0.33 -3.05,-0.22 -3.3,0.25 -5.7,0.66 -0.89,0.15 -1.55,0.18 -2.34,0.3z"/>
   <path class="fil3" d="M200.43 20.18c-0.02,-1.97 -1.26,-8.16 -4.12,-8.5 -2.46,-0.29 -3.24,0.21 -4.69,0.6 0.05,3.77 1.73,6.08 0.12,9.93 -3.49,-1.73 -8.25,-6.42 -14.12,-3.56 0.99,2.18 12.68,7.01 6.19,13.32 7.8,-0.27 5.97,-5.14 5.95,-6.93 0.41,-0.06 1.76,0.27 3.31,0.01 1.66,-0.28 2.2,-1.06 3.21,-1.25 2.7,-0.52 1.95,0.69 4.32,-0.46 1.48,-0.72 0.22,-1 2.52,-1.69l0.05 4.59c9.04,0.95 0.4,-0.43 6.79,-9.01 6.53,-8.76 0.19,-6.88 -0.93,-5.97 -0.6,0.49 -1.7,2.48 -2.35,3.35 -1.21,1.61 -4.24,4.98 -6.26,5.59zm-27.52 -4.73l-0.01 0.74 0.01 1.15c3.84,0.45 5.74,0.42 6.01,-1.58 -1.81,-0.3 -1.83,-0.39 -3.36,-0.78l-2.66 0.47zm16.68 -4.93c2.48,0.26 5.36,0.1 5.35,-1.28 -0.04,-3.03 -5.26,-2.07 -5.35,1.28zm19.43 -1.16c4.57,-0.84 9.33,-2.72 1.3,-3.66 -1.4,1.36 -1.92,1.97 -1.3,3.66z"/>
   <path class="fil2" d="M133.2 59.61c2.82,-0.52 5.88,-0.75 8.7,-1.27 -0.09,-7.14 1.19,-12.24 1.11,-19.33 -1.59,-0.11 -3.85,-0.02 -4.92,0.06 -3.87,0.27 -2.45,1.05 -3.95,7.53 -0.92,4.01 -1,8.28 -0.94,13.01z"/>
  </g>
 </g>
</svg>
