<?xml version="1.0" encoding="UTF-8"?>
<!DOCTYPE svg PUBLIC "-//W3C//DTD SVG 1.1//EN" "http://www.w3.org/Graphics/SVG/1.1/DTD/svg11.dtd">
<!-- Creator: CorelDRAW -->
<svg xmlns="http://www.w3.org/2000/svg" xml:space="preserve" width="30.4001mm" height="7.4614mm" version="1.1" style="shape-rendering:geometricPrecision; text-rendering:geometricPrecision; image-rendering:optimizeQuality; fill-rule:evenodd; clip-rule:evenodd"
viewBox="0 0 244.85 60.1"
 xmlns:xlink="http://www.w3.org/1999/xlink"
 xmlns:xodm="http://www.corel.com/coreldraw/odm/2003">
 <defs>
  <style type="text/css">
   <![CDATA[
    .fil0 {fill:#FEFEFE}
    .fil1 {fill:black}
    .fil3 {fill:red}
    .fil2 {fill:white}
   ]]>
  </style>
 </defs>
 <g id="Camada_x0020_1">
  <metadata id="CorelCorpID_0Corel-Layer"/>
  <g id="Figs_Frase_004">
   <path class="fil0" d="M3.79 47.54c-3.74,-2.38 -2.93,-2.42 -3.63,-7.58 -0.45,-3.3 0.04,-5.85 1.66,-8.49 -0.05,-0.13 -0.1,-0.26 -0.15,-0.39 -0.5,-1.31 -0.6,-2.45 -0.52,-3.85 0.1,-1.79 0.71,-3.21 0.86,-4.93 0.22,-2.67 1.36,-4.85 3.84,-5.97 0.75,-0.34 1.53,-0.54 2.33,-0.71 0.22,-0.05 0.63,-0.12 0.91,-0.2 0.21,-0.77 0.28,-4.03 0.39,-4.77 0.97,-6.66 6.81,-7.77 12.55,-7.44 2.1,0.12 2.21,0.48 4.29,0.09 2.24,-0.43 4.31,-0.56 6.59,-0.49 3.61,0.11 6.44,0.21 10.09,-0.29 2.56,-0.35 6.58,-0.09 9.08,0.54 0.91,0.23 1.82,0.54 2.72,0.79 0.93,-0.46 1.77,-0.77 2.84,-1.09 0.76,-0.23 1.99,-0.26 2.79,-0.31 1.61,-0.09 3.22,-0.14 4.82,-0.19 4.56,-0.14 9.13,-0.22 13.7,-0.29 6.4,-0.1 12.82,-0.19 19.22,-0.17 3.95,0.01 7.77,-0.81 11.71,0.05 2.43,0.53 7.87,-0.32 10.48,-0.58 3.41,-0.33 7.94,-0.71 11.2,0.42 0.57,0.2 1.06,0.26 1.65,0.14 0.8,-0.15 1.69,-0.55 2.47,-0.82 1.44,-0.51 2.83,-0.83 4.35,-0.94 2.72,-0.2 4.85,0.06 7.35,1.18 0.72,0.32 1.42,0.67 2.14,0.98 2.87,-1.69 3.63,-1.4 7.58,-1.39 3.18,0 6.57,-0.3 9.72,0.03 1.44,0.15 2.57,0.73 3.92,0.96 0.13,0.02 0.36,0.06 0.51,0.06 0.71,-0.33 1.07,-0.61 1.93,-0.84 1.29,-0.35 4.15,-0.3 5.53,-0.32 3.12,-0.05 6.24,-0.05 9.37,-0.05 4.68,0 9.39,0.09 14.07,0.05 3.51,-0.03 8.92,-0.73 12.11,0.74 1.55,0.72 2.72,1.85 3.68,3.2 1.91,-0.1 4.91,-0.28 5.68,-0.64 0.07,-0.05 0.14,-0.1 0.2,-0.15 0.32,-0.38 0.67,-0.61 1.11,-0.86 1.88,-1.11 4.62,-1.69 6.8,-1.58 2.95,0.15 5.22,1.11 7.69,2.67 6.39,4.05 6.95,11.44 2.76,17.42 -0.75,1.07 -0.53,1.22 -0.87,2.56 -0.45,1.71 -1.1,3.25 -2.38,4.49 -1.05,1.01 -2.35,1.65 -3.65,2.28 -0.93,0.45 -1.84,0.91 -2.73,1.39l2.33 2.96c0.96,0.88 1.94,1.74 2.9,2.62 2.54,2.34 5.35,5.22 5.93,8.8 0.6,3.65 -1.32,6.75 -3.84,9.15 -5.65,5.39 -9.12,4.82 -16.3,3.23 -1.19,-0.26 -2.37,-0.61 -3.48,-1.11 -0.34,-0.15 -0.72,-0.38 -1.07,-0.54 -0.34,0.14 -0.82,0.43 -1.06,0.57 -2.67,1.52 -5.61,2.46 -8.68,1.84 -1.9,-0.38 -2.88,-1.16 -4.52,-1.77 -0.12,-0.05 -0.31,-0.12 -0.47,-0.16 -0.47,0.23 -0.86,0.47 -1.42,0.67 -2.72,0.98 -17.9,0.86 -20.54,-0.22 -0.3,-0.12 -0.58,-0.19 -0.9,-0.17 -0.96,0.04 -2.48,0.58 -3.49,0.78 -2.58,0.52 -5.13,0.45 -7.72,0.07 -1.01,-0.15 -2.88,-0.99 -3.63,-0.97 -0.08,0 -0.15,0.01 -0.23,0.02 -0.78,0.14 -1.63,0.48 -2.45,0.66 -1.98,0.41 -4.1,0.46 -6.12,0.39 -3.05,-0.1 -5.91,-0.76 -9.01,-0.74 -1.76,0.01 -6.09,0.28 -7.68,-0.65 -0.29,-0.17 -0.49,-0.28 -0.7,-0.36 -4.26,2.42 -9.18,3.32 -13.99,2.14 -2.17,-0.54 -4.93,-1.75 -6.72,-3.58 -2.54,3.26 -7.58,2.96 -11.69,2.97l-14.86 -0.23c-2.4,0.31 -4.8,0.1 -7.14,0.43 -1.49,0.21 -2.98,0.3 -4.48,0.3 -2.77,-0 -5.53,-0.29 -8.29,-0.43 -3.26,-0.17 -6.41,-0.1 -9.65,0.32 -2,0.26 -4.07,0.25 -6.09,0.19 -2.6,-0.08 -6.11,-0.49 -8.64,-0.16 -0.1,0.01 -0.18,0.02 -0.28,0.02l-36.96 0.03c-0.14,0 -0.25,-0.01 -0.38,-0.03 -3.1,-0.55 -3.66,-0.96 -6.19,-2.51 -0.02,-0.01 -0.03,-0.02 -0.04,-0.03 -1.45,-0.93 -1.39,-0.87 -1.83,-2.53 -0.05,-0.19 -0.07,-0.36 -0.07,-0.57 -0.01,-2.05 -0.02,-3.96 0.68,-5.9 0.02,-0.06 0.04,-0.13 0.06,-0.19z"/>
   <path class="fil1" d="M5.27 53.62c0.3,1.15 -0.06,0.61 0.87,1.21 2.09,1.28 2.24,1.65 5.42,2.22l36.96 -0.03c3.38,-0.44 9.97,0.6 14.72,-0.02 9.76,-1.28 15.56,0.8 22.4,-0.18 2.44,-0.35 4.69,-0.09 7.33,-0.46l15.02 0.23c5.57,-0.01 9.77,0.19 10.81,-4.07l1.3 -0c1.03,3.51 10.44,8.36 19.95,2.37 3.85,0.95 -0.28,1.25 8.68,1.19 3.91,-0.03 5.78,0.63 9.1,0.74 6.25,0.21 7,-1.04 8.69,-1.07 1.21,-0.02 2.78,0.82 3.98,1 8.09,1.18 9.42,-1.85 12.63,-0.54 2.38,0.98 17.17,0.84 18.97,0.19 1.66,-0.6 1.41,-1.24 3.39,-0.51 2.23,0.82 5.17,3.61 11.35,0.08 3.42,-1.96 1.75,-0.36 7.17,0.84 7.12,1.57 9.56,1.86 14.31,-2.67 7.69,-7.34 -0,-12.67 -5.09,-17.39l-4.05 -5.14c6.4,-4.03 8.67,-3.15 9.96,-8.09 0.45,-1.74 0.16,-1.79 1.21,-3.29 3.64,-5.2 2.93,-11.01 -2.13,-14.21 -1.82,-1.15 -3.8,-2.19 -6.62,-2.33 -1.93,-0.1 -4.22,0.48 -5.57,1.28 -0.89,0.52 -0.21,0.24 -1.17,0.92 -1.14,0.79 -5.9,0.99 -8.09,1.09 -3.17,-5.3 -6.27,-4.08 -14.61,-4 -3.12,0.03 -26.62,-0.23 -28.42,0.25 -1.68,0.46 -1.4,1.17 -3.39,0.83 -1.36,-0.24 -2.45,-0.8 -3.78,-0.94 -2.57,-0.27 -6.74,-0.02 -9.49,-0.02 -4.76,-0.01 -4.4,-0.22 -7.36,1.64 -3.31,-1.15 -4.5,-2.78 -9.55,-2.41 -4.6,0.34 -5.98,2.67 -9.35,1.5 -5.53,-1.92 -16.87,1.23 -21.43,0.23 -3.62,-0.79 -7.28,0.01 -11.25,0 -7.47,-0.02 -38.03,0.31 -39.9,0.86 -5.14,1.53 -1.05,1.76 -6.72,0.32 -2.02,-0.51 -5.9,-0.82 -8.24,-0.49 -8.25,1.14 -10.36,-0.41 -16.57,0.77 -2.82,0.54 -2.08,0.11 -4.82,-0.05 -14.4,-0.82 -8.62,9.15 -11.3,11.67 -1.28,1.2 -5.94,-0.01 -6.38,5.36 -0.19,2.3 -0.74,2.85 -0.85,4.86 -0.13,2.48 0.48,2.84 0.92,4.44 -1.63,2.3 -2.39,4.45 -1.92,7.87 0.72,5.31 -0.42,4.11 3.74,6.69 0.02,3.28 -0.86,1.1 -0.82,7.28z"/>
   <path class="fil2" d="M94.87 35.19c-0.01,-0.82 1.94,-6.23 2.3,-7.52 0.8,-2.88 1.23,-5.65 2.81,-6.64l-2.65 15.27c-1.45,0.1 -2.46,0.46 -2.47,-1.11zm96.67 -19.26c1.15,-2.69 1.99,-5.02 1.98,-8.09 -4.07,-1.26 -14.55,-0.35 -18.2,0.45l-0.99 4.75c-0.54,2.37 -1.66,2.54 1.01,2.93 0.28,0.04 3.19,-0.32 2.66,2.09 -0.29,1.33 -0.47,0.38 -0.93,3.13 -0.25,1.53 -0.57,2.77 -1,4.31l-4.11 17.09c-0.28,1.01 -0.45,1.26 -0.67,2.18 -0.24,0.96 -0.26,1.31 -0.46,2.01 -0.4,1.42 -0.83,2.63 -1.33,3.99 1.92,0.94 3.98,0.39 8.24,0.38l8.9 -34.81 4.91 -0.41zm-79.67 35.39c1.85,-0 2.27,-4.38 2.77,-6.28 2.96,-11.3 0.5,-11.63 5.8,-11.94 1.97,-0.12 2.17,-0.39 2.67,-1.94 1.49,-4.63 1.42,-5.41 -0.41,-5.85 -1.83,-0.45 -2.89,0.27 -3.02,-1.35 -0.1,-1.28 1.3,-6.26 1.9,-6.68 2.43,-1.69 5.15,1.25 6.03,-2.88 0.39,-1.85 2.2,-6.4 -0.39,-6.39 -1.85,0 -11.79,0.11 -12.56,0.84l-4.9 21.61c-0.82,3.66 -1.71,7.4 -2.53,10.93 -0.46,1.98 -0.64,3.57 -1.05,5.46 -1.08,5.07 -2.09,4.48 5.69,4.46zm96.43 -35.44c0.27,-1.1 0.55,-2.4 0.86,-3.62 0.41,-1.61 2.01,-4.88 -0.47,-4.87 -13.24,0.04 -12.29,-1.02 -13.4,4.49 -1.88,9.29 -8.38,30.44 -9.74,38.84 2.82,1.33 10.72,1.06 13.87,0.37 0.77,-1.52 2.13,-6.14 2.12,-8.14 -3.33,0.06 -2.82,0.26 -5.64,-0.34 0.07,-3.82 2.08,-6.42 2.11,-9.31 1.55,-0.02 4.55,-0.33 5.63,-0.82 0.3,-0.59 1.62,-5.52 1.63,-6.21 0.06,-3.46 -4.7,0.37 -4.72,-2.68 -0.01,-1.76 0.02,0.21 0.54,-1.51 2.45,-8.07 0.23,-4.66 7.21,-6.2zm-165.92 10.14c-0.01,-1.9 0.05,-1.38 0.47,-2.78 0.34,-1.13 0.24,-0.92 0.41,-2.45 0.21,-1.85 0.29,-2.99 1.52,-3.95 1.16,0.62 1.28,0.49 1.23,2.1 -0.02,0.46 -0.23,2.63 -0.35,3.27 -0.69,3.75 -1.34,3.76 -3.28,3.8zm5.66 4.03c1.16,-1.5 2.28,-0.46 3.79,-3.31 2.04,-3.86 3.89,-13.64 0.11,-16.22 -2.13,-1.45 -9.49,-1.48 -13.09,-1.04 -2.97,0.36 -2.4,1.53 -2.85,4.2 -0.42,2.52 -0.6,3.19 -0.58,6.03 1.02,0.38 1.67,0.62 2.61,1.07 -0.02,1.39 -0.66,3.59 -1.01,5.1 -0.67,2.84 -0.83,2.04 -3.27,2.86 -0.57,1.29 -0.85,2.57 -0.84,4.58 0.91,0.41 1.53,0.42 2.46,0.94 0.24,1.65 -0.73,5.9 -1.41,6.88 -2.04,2.17 -2.25,-1.66 -3.34,4.55 -0.34,1.9 -1.1,4.81 -0.64,5.84 0.29,0.28 5.93,1.32 7.4,-0.79 0,0 0.42,-0.94 0.49,-1.16l1.82 -9.58c0.21,-0.98 0.14,-1.56 0.29,-2.55 0.1,-0.64 0.85,-3.96 1.16,-4.56 1.59,0.39 0.91,0.42 2.17,1.21l-1.65 9.33c-0.32,2.84 -1.71,6.61 -1.28,8.47l7.37 -0.02c0.9,-3.69 1.64,-7.69 2.38,-11.86 1.72,-9.75 0.72,-6.46 -2.07,-9.98zm83.29 13.53c-0.01,-1.52 1.38,-5.67 1.72,-7.65l4.45 -19.23c0.58,-1.71 0.72,-1.81 2.76,-1.86 0.02,3.51 -0.82,5.07 -1.47,8.28l-4.56 19.51c-0.49,1.54 -0.56,2 -2.46,2.15 -0.57,-1.06 -0.43,0.33 -0.44,-1.21zm16.82 -25.12c1.4,-6.02 -0.38,-10.5 -5.87,-11.23 -13.57,-1.81 -14.96,18.63 -16.98,27.15 -1.01,4.24 -3.08,10.09 -1.17,14.33 2.26,5.01 8.32,4.4 12.54,1.81 5.54,-3.41 6.85,-11.46 8.31,-18.03 0.54,-2.46 1.01,-4.43 1.64,-6.93 0.64,-2.54 0.96,-4.62 1.54,-7.1zm12.48 -3.27c3.57,0.06 2.98,1.73 1.41,6.94 -0.62,2.06 -0.89,2.71 -3.52,2.77l2.11 -9.71zm4.41 12.93c5.1,-1.29 6.48,-12.8 6.28,-14.85 -0.64,-6.45 -4.14,-5.78 -16.37,-5.75 -1.32,1.85 -1.03,1.59 -1.68,4.06l-7.36 30.61c-2.51,10.3 -3.11,9.31 4.15,9.07 2.64,-0.09 2.4,-0.72 2.89,-2.54l2.14 -8.88c1.03,-3.67 0.85,-6.85 2.6,-8.05 1.87,1.16 1.19,1.98 0.82,4.38 -0.27,1.76 -0.55,3.11 -1.05,5.05 -0.74,2.84 -2.02,6.75 -2.26,9.58 1.89,0.89 4.67,0.77 6.75,0.24 0.08,-0.02 0.26,-0 0.32,-0.13 0.05,-0.12 0.21,-0.08 0.3,-0.14 1.14,-0.86 3.07,-11.79 3.77,-14.21 0.39,-1.34 0.53,-1.35 0.51,-3.2 -0.04,-3.68 -1.57,-2.75 -1.81,-5.24zm58.91 -4.6c-0.35,-1.52 -0.45,-0.68 0.26,-2.14 0.7,-1.42 0.59,-0.77 0.58,-2.72l3.47 -0.01c-0.03,1.81 0.05,0.89 -0.46,1.98l-0.57 1.08c-0.77,1.11 -1.91,1.11 -3.27,1.8zm6.54 -5.27c2.67,-1.52 6,0.46 5.97,-4.87 -0.01,-1.11 -0.69,-2.92 -1.41,-3.55 -3.58,-3.15 -7.25,0.38 -7.79,0.67 -5.18,2.85 -8.03,-0.43 -11.94,3.02 -4.3,3.79 -5.86,9.12 -5.45,14.67 0.13,1.76 -0.61,1.34 -0.6,3.05 0,0.7 0.6,0.08 0.69,1.57 0.05,0.73 -0.25,0.27 -0.24,1.67 0.03,4.44 1.13,3.77 1.19,4.99 0.1,1.9 -1.46,0.67 -3.33,0.68 -1.95,0 -0.86,5.45 -0.83,6.88 0.13,6.89 5.64,5.88 7.82,3.62 -0.41,-1.4 -0.96,-1.15 -0.98,-1.79 -0.01,-0.45 -1.28,-0.26 0.54,-0.51 1.76,-0.24 0.12,-0.12 0.9,0.13 1.58,0.5 0.27,0.59 2.18,0.89 0.97,0.16 1.83,-0.03 2.87,0.15 3.38,0.57 4.32,3.12 9.66,3.11 3.27,-0.01 5.71,-4.72 5.8,-5.09 0.51,-2.1 -5.32,-7.06 -7.29,-8.55 -1.21,-0.91 -2.66,-1.07 -3.47,-2.05 -1.31,-1.58 0.65,-1.27 -1.06,-3.43 -1,-1.26 -1.82,-1.35 -2.33,-3.1 1.56,-1.69 3.67,-2.57 5.65,-4.03 1.17,-0.86 1.68,-1.4 3.06,-1.98 5.96,-2.53 0.85,-3.87 0.39,-6.14zm-135.09 33.11c3.53,-0.01 7.24,0.62 8.03,-1.01l2.64 -22.09c1.75,-23.66 6.92,-19.81 -9.62,-19.76 -1.08,1.52 -2.33,5.48 -2.87,7.4l-3.01 10.08c-1.13,3.33 -6.04,20.91 -7.46,22.46 -0.44,-1 0.44,-3.9 0.55,-5.12 -2.75,-0.59 -2.71,0.24 -5.64,-0.39 0.08,-1.29 7.7,-17.89 9.25,-21.22 1.39,-3 3.64,-8.72 3.61,-11.64 -0.03,-2.3 -0.77,-1.55 -6.56,-1.53 -8.63,0.03 -7.99,-1.14 -9.31,6.35 -0.62,3.5 0.9,2.57 4.59,2.56 0.55,2.35 -4.89,12.67 -6.21,15.56 -1.32,2.88 -2.23,5.25 -3.43,8.1 -1.43,3.38 -1.42,2.48 -2.42,6.2l-0.35 -3.95c-3.37,0.01 -6.44,1.05 -5.53,-2.62 0.13,-0.5 0.36,-0.84 0.55,-1.55 0.19,-0.71 0.17,-1.03 0.3,-1.76 0.18,-1.03 0.56,-2.01 0.87,-3.22 3.29,-0.43 4.56,0.31 5.38,-2.27 1.2,-3.73 1.48,-5.66 -0.12,-6.21 -0.82,-0.28 -0.4,-0.09 -1.15,-0.15 -3.6,-0.32 -2.37,0.12 -1.78,-4.09 0.85,-6.02 1.41,-2.8 5.8,-4.29 1.14,-0.64 1.98,-6.94 1.98,-7.82 -2.12,-0.66 -10.47,0.03 -13.87,0.04l-6.75 34.38c-1.3,8.94 -4.05,8.1 6.13,8.08 4.44,-0.01 6.26,0.65 6.92,-1.64l0.87 -0c0.5,1.7 0.96,1.27 3.45,1.23 1.62,-0.03 3.18,-0.04 4.79,0.01 1.64,0.05 3.06,-0.01 4.68,0.05 2.31,0.09 10.47,0.87 11.6,-1.12 0.21,-0.37 0.84,-3.19 0.93,-3.56 0.47,-1.83 0.47,-1.87 1.38,-3.15 4.78,-0.01 1.74,0.94 1.78,7.68z"/>
   <path class="fil3" d="M18.59 34.17c-0.01,-2.39 -0.05,-6.47 2.13,-6.48 3.98,-0.01 5.11,-0.66 4.32,4.38 -0.8,5.08 -6.44,3.14 -6.45,2.1zm-1.42 -18.6c-0.59,12.05 -6.91,3.42 -6.87,9.73 0.03,5.04 4.77,0.97 4.79,4.44 0.01,1.89 -0.27,4.19 -1.84,5.13 -1.61,0.96 -3.36,0.02 -4.46,1.54 -0.55,0.77 -0.37,1.41 -0.25,1.92 1.18,4.94 6.52,-0.57 3.68,9.29 -0.63,2.2 -0.79,1.93 0.39,3.55 2.05,-0.17 2.64,-1.21 2.98,-2.87 0.79,-3.85 0.86,-6.75 3.34,-7.41 5.52,-1.47 3.26,4.29 2.78,6.24 -1.7,6.95 2.83,5 3.58,2.51 0.51,-1.72 0.78,-3.96 1.3,-6.04 1.61,-6.43 4.53,-0.94 6.42,-4.92 1.53,-3.21 0.91,-3.48 -4.03,-4.54 -0.01,-1.88 -0.08,-3.36 0.48,-4.79 1.57,-4.03 4.9,0.05 6.11,-4.01 0.44,-1.48 0.66,-2.28 0.28,-3.75 -1.84,-0.4 -4.33,-0.09 -4.35,-2.01 -0.02,-3.2 2.32,-8.9 -0.49,-8.9 -4.4,0.01 -2.19,2.29 -3.47,6.04 -1.6,4.68 -0.03,4.89 -4.7,4.9 -2.61,0.01 -1.47,-2.85 -1.33,-4.85 0.21,-3.11 0.25,-2.72 -0.03,-5.66l-3.03 0.01c-0.92,1.64 -1.16,2.05 -1.28,4.45z"/>
  </g>
 </g>
</svg>
