<?xml version="1.0" encoding="UTF-8"?>
<!DOCTYPE svg PUBLIC "-//W3C//DTD SVG 1.1//EN" "http://www.w3.org/Graphics/SVG/1.1/DTD/svg11.dtd">
<!-- Creator: CorelDRAW -->
<svg xmlns="http://www.w3.org/2000/svg" xml:space="preserve" width="98.9543mm" height="30.4475mm" version="1.1" style="shape-rendering:geometricPrecision; text-rendering:geometricPrecision; image-rendering:optimizeQuality; fill-rule:evenodd; clip-rule:evenodd"
viewBox="0 0 50077.5 15408.47"
 xmlns:xlink="http://www.w3.org/1999/xlink"
 xmlns:xodm="http://www.corel.com/coreldraw/odm/2003">
 <defs>
  <style type="text/css">
   <![CDATA[
    .fil0 {fill:black}
    .fil1 {fill:#FEFEFE}
    .fil3 {fill:red}
    .fil2 {fill:yellow}
   ]]>
  </style>
 </defs>
 <g id="Camada_x0020_1">
  <metadata id="CorelCorpID_0Corel-Layer"/>
  <g id="Adesivo.cdr">
   <path class="fil0" d="M9103.64 2169.86c-838.1,0 -774.48,350.35 -687.44,-401.87 20.55,-177.93 65.79,-374.54 74.39,-554.35 15.74,-327.53 169.79,-773.68 -71.76,-1045.48 -151.42,-170.44 -649.44,-192.81 -903.38,-148.23 -265.23,46.51 -329.1,471.15 -506.47,471.15 -54.15,0 -598.07,-361.23 -1200.59,-361.23 -721.4,0 -958.9,177.43 -1260.51,693.77 -170.54,291.95 -235.37,1106.57 -272.06,1473.72 -317,61.44 -762.04,-10.22 -1109.25,33.55 -309.41,39.02 -1797.9,-132.18 -2001.8,55.87 -179.75,165.84 -300.6,1943.5 -370.8,2369 -29.55,179 -51.16,402.07 -71,599.69 -20.24,201.06 -55.36,402.68 -76.67,616.24 -39.32,395.04 -118.01,817.1 -150.15,1213.85 -8.75,108.3 -18.47,197.26 -37.55,308.75 -88.46,517.71 -93.57,994.98 -178.29,1509.19 -33.86,205.51 -55.31,419.83 -84.31,609.86 -60.78,398.88 -186.08,1462.84 -186.08,1842.69 0,322.21 -87.14,446.6 255.46,637.44 0,175.35 -34.67,315.48 -49.75,468.67 -15.79,159.66 17,324.19 -7.74,482.33 -49.34,315.33 -395.24,1080.2 126.06,1244.37 346.45,109.16 915.27,159.61 1197.4,-58.35 263.76,-203.74 321.55,-829.85 515.99,-1121.19 57.29,-85.88 77.78,-120.9 210.47,-123.33 54.55,135.22 0,190.53 0,318.82 0,588.61 -21.76,883.19 818.61,870.08 277.07,-4.3 216.95,40.84 203.74,213 -45.34,590.73 26.11,1020.59 843.87,1020.59 412.04,0 548.58,1.87 773.22,-311.64 216.65,-302.32 407.49,-966.18 556.62,-1343.15 32.69,-82.54 43.67,-215.23 175.71,-215.23 320.39,0 317.96,322.57 1328.22,318.87 646.4,-2.38 340.23,-55.01 655.2,155.97 182.23,122.06 828.63,98.89 1081.87,98.89 281.83,0 577.88,-373.63 766.24,-509.96 165.08,72.37 425.75,108.75 519.02,184.61 44.58,36.28 67.41,62.3 112.95,97.47 151.01,116.75 458.34,206.68 722.01,206.68 356.37,0 564.87,-10.42 857.73,-157.74 363.66,-182.89 258.2,-76.01 598.27,-76.01l664.16 0c136.28,0 204.05,-62.09 272.21,71 44.94,87.75 49.14,158.85 132.59,208.55 99.24,59.16 458.14,124.19 642.5,124.19 412.7,0 815.68,-227.63 1083.74,-394.68 357.23,-222.62 678.74,-357.03 678.74,-646.5 0,-163.46 -39.17,-356.37 -117.1,-498.27 -74.54,-135.73 -214.98,-155.51 -214.98,-287.95 0,-344.99 118.32,-255.11 817.55,-255.11 173.07,0 39.88,234.66 159.82,355.87 65.74,66.4 85.68,67.41 115.59,158.91 67.1,205.67 32.44,464.92 32.08,676.05 -0.46,259.46 -112.85,670.29 110.17,883.54 142.15,135.93 1067.65,277.32 1299.93,140.79 247.87,-145.65 257.59,-766.34 274.39,-1131.97 4.45,-96.56 34.06,-213.16 45.8,-300.86 36.28,-270.8 -49.09,-355.87 302.98,-428.79 547.46,-113.36 379.5,36.08 367.76,412.19 -3.34,106.98 -25.61,117.46 -27.33,232.23l1.06 404.6c0,487.8 682.28,531.17 1123.82,531.17 443.42,0 696.04,-270.19 912.69,-265.79 188.46,3.9 366.59,32.44 594.43,32.08 204.4,-0.3 408.8,-0.05 613.2,-0.05 50.25,79.1 44.53,141.19 107.99,207.69 253.79,265.89 1010.06,233.4 1327.97,73.28 187.9,-94.58 845.94,-497.87 1018.31,-640.33 132.08,-109.16 99.95,-318.21 99.95,-469.28 0,-335.83 -306.52,-444.38 -306.52,-531.27 0,-83.2 19.94,-99.7 76.62,-170.09l740.88 -21.25c282.13,0 153.54,69.69 224.74,259.41 25.76,68.52 158.5,193.06 158.5,208.2 0,327.43 -51.06,603.99 -51.06,935.01 0,347.01 526.31,415.84 856.11,432.89 165.23,8.55 427.17,19.18 556.57,-86.39 125.4,-102.23 130.87,-264.67 221.96,-389.11 83.25,27.07 232.03,128.69 306.68,170.09 401.82,222.62 1287.33,574.39 1780.65,526.71 146.56,-14.12 279.86,-16.75 329.55,-131.17 48.43,-111.33 40.99,-216.09 103.49,-310.62 54.66,-18.27 505.81,-63.76 596.15,-63.76 107.24,0 154.96,84.82 213.1,141.7 207.18,202.58 581.98,185.47 896.24,210.73 624.33,50.2 704.65,-281.47 985.26,-437.39 97.32,42.76 140.53,80.62 248.98,133.1 370.54,179.45 875.95,175.1 1308.23,142.31 348.73,-26.47 616.39,-315.38 994.57,-230.67l441.85 78.69c458.14,89.88 738.91,83.2 1185.77,14.07 265.48,-41.09 253.54,287.5 980.56,287.5 602.57,0 680.86,-137.14 1164.31,-76.01 262.7,33.2 578.89,-18.02 798.22,-140.08 242.2,-134.77 136.64,-137.65 473.68,-88.81 341.29,49.44 235.02,20.85 471.55,159.77 261.54,153.64 704.39,180.21 1103.38,145.7 407.94,-35.27 606.17,-404.3 842.35,-404.3 187.65,0 373.68,43.67 559.91,65.99 148.28,17.81 442.81,1.72 574.89,31.22 163.46,36.54 226.82,105.11 438.41,145.29 259.66,49.34 551.92,54.96 827.93,54.96 474.64,0 610.42,-254.96 996.24,-254.96 207.74,0 211.18,137.25 288.56,270.04 150.66,258.65 1022.15,234.56 1329.44,98.48 114.93,-50.91 235.42,-138.31 341.54,-204.6 566.54,-353.74 1004.09,-454.7 711.73,-1174.88 -66.75,-164.47 -244.63,-173.23 -244.63,-263.96 0,-214.88 40.18,-261.54 212.35,-375.91 559.25,-371.5 781.16,-907.58 908.44,-1518 83.65,-401.16 169.23,-793.72 209.41,-1228.28l67.71 -644.93c38.66,-235.17 32.54,-444.43 32.54,-674.13 0,-682.84 -20.95,-1183.34 -510.82,-1700.03 -60.32,-63.66 -93.27,-58.75 -102.23,-148.83 168.42,-67.16 454.7,93.88 710.57,-131.37 183.9,-161.89 302.93,-1197.15 312.04,-1461.57l-0.71 -935.82c-29.86,-462.24 -112.45,-928.63 -579.65,-1217.75 -193.72,-119.84 -598.53,-201.36 -878.23,-246.2 -345.8,-55.46 -797.26,-30.31 -1068.36,42.61 -150.86,40.59 -269.89,85.47 -393.62,161.23 -72.72,44.53 -253.64,219.08 -324.29,219.08 -90.03,0 -433.09,-446.3 -1481.61,-446.3 -581.88,0 -965.78,-17.61 -1385.81,334.61 -44.28,37.15 -71.36,57.19 -113.46,97.22 -112.2,106.68 -130.36,93.82 -244.68,-1.06 -605.15,-502.07 -1803.37,-594.22 -2513.68,-296.4 -388.86,163 -298.43,55.57 -676.56,17.86 -293.67,-29.35 -506.83,-24.7 -787.74,-24.7l-2658.22 -1.37c-249.9,3.59 -171.15,82.44 -293.47,112.9 -70.19,17.46 -214.37,-53.04 -312.09,-73.99 -388.86,-83.4 -1221.29,-37.55 -1717.34,-37.55 -610.32,0 -1133.44,-21.25 -1737.02,-21.25l-2433.47 6.02c-159.11,-19.43 -209.97,12.2 -350.1,15.94 -164.37,4.4 -260.57,-12.25 -385.32,-20.85 -373.27,-25.71 -1439.41,-1.11 -1863.39,-1.11 -239.22,0 -276.06,317.35 -307.03,466.95 -42,202.93 -50.45,416.95 -50.45,659.3l-76.87 0c0,-138.16 -91.04,-377.22 -139.32,-500.4 -50,-127.58 -175.76,-304.15 -275.25,-387.24 -297.11,-248.18 -574.69,-345.39 -1018.92,-384.76 -433.14,-38.36 -993.71,-16.75 -1314.81,90.99 -195.44,65.54 -300.96,185.37 -498.12,122.62 -123.43,-39.27 -147.62,-54.25 -303.79,-67.76 -638.91,-55.36 -3513.52,-20.95 -4368.42,-20.95l-484.66 22.12c-201.16,5.82 -304.2,-23.13 -511.38,-22.27l-2145.93 -21.1c-357.64,0 -715.22,0 -1072.86,0 -239.67,0 -400.4,23.53 -613.61,22.27 -146.91,-0.86 -175.3,-19.74 -305.16,-22.92 -947.86,-23.63 -1912.17,0.66 -2861.81,0.66 -352.32,0 -360.07,342.76 -381.17,575.3 -9.36,103.39 -27.43,190.38 -27.43,274.69l-76.82 0c-45.85,-163.81 -146.1,-332.94 -229.55,-467.81 -286.94,-463.96 -1121.95,-552.17 -1711.72,-552.17z"/>
   <path class="fil1" d="M24685.69 9777.21c-324.39,0 -243.57,-336.43 -229.65,-552.32 8.7,-135.78 13.51,-250.86 23.73,-362.75l78.44 -720.99c1.92,-120.39 20.45,-230.01 40.18,-349.08 67.56,-407.74 110.27,-979.14 168.62,-1410.97 13.26,-98.03 34.87,-239.32 45.8,-344.43l151.16 -1021.7c160.73,-668.16 567.45,-518.26 590.28,-210.32 9.31,125.61 34.82,219.03 10.73,349.03 -20.45,110.32 -20.04,253.74 -34.26,354.15 -15.99,112.95 -22.06,228.54 -42.16,347.41 -78.85,465.78 -88.46,928.13 -172.37,1386.62l-175.05 1384.35c-36.54,296 -70.44,1151 -455.46,1151zm-17651.16 -8691.29c-453.59,0 -938.4,-720.29 -1550.79,-439.97 -64.73,29.6 -173.33,95.9 -216.44,138.71 -308.35,306.42 -330.26,649.28 -389.72,993.36 -20.8,120.39 -55.46,533.09 -14.42,604.35 142.26,-9.82 44.99,4.71 189.78,-161.03 43.47,-49.75 42.36,-45.7 83.35,-100.71 134.06,-180.01 326.06,-309.71 630.91,-235.57 450.65,109.56 1016.33,921.8 1690.97,148.38 339.82,-389.57 342.81,-954.95 342.81,-1457.42 0,-81.38 7.84,-7.74 -25.56,-63.82 -132.59,73.48 -111.99,272.16 -473.27,498.93 -80.11,50.3 -136.94,74.8 -267.61,74.8zm4419.08 3527.59c0,114.12 60.17,84.11 203.79,85.68 130.87,1.42 141.9,20.7 280.72,21.46 364.77,1.92 323.17,-42.46 285.98,236.18l-175.3 1363.09c-24.85,156.68 -51.01,305.92 -58.96,460.98l-536.23 4696.4c0,206.98 613.71,-14.57 680.81,-28.34 255.56,-52.33 395.54,82.59 419.07,-161.99l124.8 -937.29c78.69,-892.04 280.56,-2007.06 334.46,-2824.26l86.99 -692.6c72.06,-421.65 150.2,-1884.8 295.44,-2112.93l766.34 -21.25c106.12,-379.25 204.35,-1329.49 204.35,-1763.85 0,-89.68 -115.28,-66.14 -229.15,-64.57 -427.53,5.87 -2043.45,17.36 -2238.64,-8.81 -289.82,-38.82 -281.22,49.85 -291.44,264.42 -20.75,435.93 -153.03,1056.21 -153.03,1487.68zm2222.34 6800.02c0,278.84 385.22,85.07 740.88,85.07 97.16,0 680.91,63.76 1021.8,63.76 612.49,0 518.41,47.62 602.12,-455.51 19.58,-117.66 25,-186.94 41.19,-305.72 11.08,-81.27 18.72,-213.26 35.37,-310.57 35.07,-205.26 37.4,-398.02 66.9,-603.28 50.15,-348.88 46.51,-242.61 -936.12,-264.12 -73.43,-1.62 -175.05,18.37 -221.91,-33.6 -53.19,-58.96 122.37,-1461.62 150.96,-1517.34 35.02,-68.22 66.8,-79.86 312.55,-79.86 269.48,0 390.89,16.14 614.21,1.92 322.01,-20.45 295.95,108.4 379.8,-620.19l77.12 -552.12c18.32,-207.49 52.93,-360.62 52.93,-572.26 -168.17,0 -247.16,-22.22 -434.21,-21.41 -720.18,3.09 -768.41,60.42 -740.98,-167.41l127.93 -1086.07c3.9,-392.96 213.81,-254.96 612.9,-254.96 830.71,0 603.69,172.11 789.82,-1149.38l61.89 -502.32c12.7,-69.43 50.05,-197.21 -85.37,-197.21l-2145.72 0c-122.47,0 -136.59,299.29 -151.16,448.12l-234.31 1887.63c-58.55,414.47 -95.55,938.3 -166.19,1349.22l-60.78 544.43c-23.03,353.69 -91.7,720.13 -126.26,1063.75 -71.25,709.1 -194.68,1452.82 -259.16,2164.4 -22.82,252.07 -126.21,850.8 -126.21,1085.01zm3831.69 -8521.36c-32.29,115.33 -38.56,281.68 -62.75,415.43l-57.59 440.83c-119.99,797.71 -221.25,1834.04 -316.29,2648.1 -59.56,510.22 -130.82,1270.08 -213.31,1756.31 -24.9,147.11 -30.26,276.06 -54.35,422.26l-115.48 881.47c-15.59,135.93 -34.77,289.07 -59.77,439.01l-172.06 1541.07c4.91,130.57 38.36,99.8 181.02,107.54 408.24,22.12 204.7,-3.9 381.02,-602.57 226.01,-767.7 545.89,-765.93 601.51,-943.26l113.87 -883.39c19.48,-155.36 31.88,-307.99 50.76,-446.5l208.96 -1781.1c106.38,23.68 65.33,10.73 89.07,116.95l87.65 543.31c22.17,245.85 64.27,503.54 97.11,726.71 32.44,220.7 153.69,1339.26 211.33,1439.25 185.83,0 403.18,6.83 579.6,27.68 91.09,10.73 157.34,29.45 230.46,63.56 66.09,30.87 42.97,24.59 92.41,53.69 29.76,17.46 7.95,11.34 42.76,23.03 150.25,50.3 115.28,-259.97 138.06,-393.26 118.42,-693.97 139.32,-1499.22 259.97,-2227.45 80.26,-484.41 116.04,-1101.35 194.18,-1538.49l301.92 -2447.59c17.41,-459.81 221.45,-382.59 -892.55,-382.59 -111.08,0 -78.59,119.33 -115.23,330.61 -21.31,122.92 -30.92,272.16 -40.59,391.24 -38.76,476.87 -158.4,1105.71 -201.57,1574.83 -13.26,144.58 -27.18,266.8 -46.1,386.64 -24.54,155.46 36.64,303.24 -83.35,376.72 -56.12,-97.22 -98.89,-970.59 -138.36,-1202.36l-193.67 -1730.09c-8.5,-99.19 -22.47,-124.64 -150.76,-129.76l-805.61 -3.69c-58.45,-2.13 -53.04,4.1 -142.26,5.87zm-12107.95 4866.29c-164.47,0 -60.32,-228.59 -51.82,-340.58l475.45 -2643.24c27.43,-55.11 -0.1,-34.01 61.64,-54.76 65.74,113.92 -63.06,1329.89 -76.77,1551.04l-76.01 1169.27c3.8,388.76 -45.85,318.27 -332.49,318.27zm-204.45 -4866.29l-704.34 3685.43c-37.8,187.14 -60.58,347.16 -98.48,534.31 -143.93,710.52 -254.45,1412.13 -397.77,2112.83l-336.53 1866.27c-93.37,544.12 -148.38,428.84 617.65,428.84 91.85,0 132.13,-112.2 170.34,-177.07 46.61,-79.1 83.91,-139.17 142.26,-220.59 195.7,-272.97 175.81,-39.73 249.49,-473.63l153.03 -892.65c52.73,-272.52 9.82,-233.55 434.36,-233.55 96.61,0 76.52,49.75 76.52,169.94 0,278.03 -14.32,543.31 -47.37,789.31 -14.83,110.63 -19.94,276.26 -27.88,380.41l-26.92 572.77c0,49.85 42.36,85.07 102.28,85.07l849.33 0c227.63,0 187.45,-609.56 205.06,-716.74 14.42,-87.55 19.43,-163.46 18.27,-282.33 -1.77,-183.15 33.3,-384.91 50.05,-553.33l26.06 -594.63c1.01,-120.44 27.02,-146.86 27.23,-274.79 0.71,-417.71 39.57,-527.02 51.06,-850.04 7.44,-208.65 6.58,-370.74 26.11,-573.27l75.3 -1148.62c-1.01,-214.72 17.76,-365.48 24.65,-574.49 3.69,-110.88 28.14,-144.53 26.92,-275.15l50.71 -871.55c-2.43,-392.81 35.93,-753.58 50.1,-1148.32 3.95,-110.73 27.63,-144.84 26.97,-275.05 -3.14,-621.8 266.55,-531.83 -1169.37,-531.83 -209.82,0 -481.67,10.83 -645.08,42.46zm-3678.4 -21.2c-52.33,186.99 -427.58,3487.16 -464.42,3757.45l-170.19 1345.94c-13.61,112.65 -13.31,171 -31.02,271.71 -16.75,95.34 -14.57,164.02 -27.78,274.34 -8.6,71.81 -39.32,183.2 -45.95,259.31l-187.3 1629.18c-23.68,156.58 -60.83,363.25 -69.74,536.99 -9.82,190.38 -50.91,337.45 -50.91,552.73 871.14,60.27 524.94,144.38 1059.6,-946.29 65.18,-133.04 26.16,-153.34 39.93,-306.78l426.36 -3109.02c22.98,-150.96 -37.04,-217.86 83.4,-291.65l356.27 2508.52c16.09,263.91 50,172.72 333.3,190.53 552.63,34.67 148.08,497.62 325.55,620.08 39.52,27.23 109.16,60.27 155.21,85.42 18.98,10.37 60.32,34.06 79.81,42.97 182.54,83.15 134.61,-128.24 175.91,-412.8l118.17 -921.6c67.66,-393.72 120.09,-990.83 171.51,-1408.59 16.55,-134.61 36.18,-306.68 61.74,-458.65l61.03 -480.46c63.92,-794.42 255.82,-1996.13 354.7,-2807.46 30.26,-248.23 104.35,-776.41 54.91,-953.13 -194.94,0 -284.92,-21.25 -485.47,-21.25 -596.3,0 -466.29,86.23 -529.19,494.88 -61.59,400 -256.73,2340.1 -313.86,2543.85 -42.97,-41.4 -31.48,-25.25 -50.3,-85.37l-230.46 -1827.05c-11.44,-154.25 -39.68,-334.46 -51.11,-488.76 -36.69,-494.98 5.26,-615.93 -227.38,-618.46l-668.51 2.07c-152.98,-4.2 -136.74,-26.87 -253.79,21.36zm18340.98 8691.4l689.67 0c0.2,-205.46 -181.93,-314.27 159.31,-611.13 117,-101.77 243.06,-141.8 249.85,-323.33 11.64,-313.51 78.29,-638.71 101.87,-956.87 11.74,-158.75 40.79,-299.79 51.82,-466.9l118.57 -963.86c15.13,-91.95 8.4,-142.61 75.96,-191.75 105.51,-76.72 371.4,-54.96 496.76,-36.99 136.03,19.48 126.52,48.28 81.07,326.51 -11.79,72.32 -1.77,134.61 -8.4,205.56l-149.64 1150.49c-14.22,143.12 -38.87,257.74 -51.11,382.49 -21.51,219.58 -137.25,607.33 117.05,685.37 138,14.27 238.41,-162.45 428.49,-190.03 303.89,-44.13 371.86,163.36 371.86,352.83 0,207.44 -385.88,356.52 -576.97,455.11 -102.93,53.09 -160.42,56.88 -163.81,182.49 169.53,0 735.57,77.07 791.79,-64.02l510.47 -4122.88c19.28,-184.31 52.18,-383.3 73.33,-555.31 13.77,-112.2 13.36,-171.2 31.02,-271.66l239.12 -1968.6c31.38,-184.56 51.87,-375.81 66.85,-560.62 15.08,-185.78 158.45,-1006.67 101.31,-1105.86 -154.5,-61.59 -835.82,-21.25 -1073.11,-21.25l-75.91 383.19c-64.47,621.55 -207.79,1481.51 -255.26,2082.62l-103.09 827.98c-173.68,96.76 -225.3,63.76 -561.84,63.76 -140.38,0 -86.64,-229.3 -66.04,-352.42 24.49,-146.25 38.16,-309.76 58.55,-440.03l262.14 -2183.22c37.75,-465.78 220.24,-381.88 -995.48,-381.88 -134.92,0 -103.49,244.33 -142.31,476.77l-166.5 1370.23c-7.59,74.64 -18.83,200 -34.01,290.43 -30.26,179.96 -52.43,360.32 -66.85,539.42 -14.07,174.34 -53.19,381.02 -73.38,555.21l-99.8 809.5c-147.87,969.98 -232.94,2054.02 -368.32,3030.58 -23.33,168.32 -56.48,383.09 -70.19,556.98l-102.48 829.44c-14.93,140.84 -35.32,211.64 127.63,211.64zm-11750.32 -2507.56c0,-427.07 323.73,-3170.15 478.33,-3915.84 212.6,-1025.49 619.88,-583.39 619.88,-397.92l-269.89 2750.47c-35.68,210.63 -52.58,444.88 -80.62,634.2 -60.47,408.8 -113.21,1608.99 -517.91,1608.99 -312.4,0 -229.8,-299.84 -229.8,-679.9zm-1175.24 998.72c0,360.88 -29.45,630 75.51,978.48 48.03,159.41 120.39,201.97 270.19,285.62 285.83,159.56 152.83,301.67 506.02,344.13 533.9,64.17 1011.68,4.81 1349.07,-372.52 434.41,-485.82 610.22,-1739.96 716.03,-2336.92 102.17,-576.51 195.8,-1522.5 272.37,-2132.16l106.17 -1080.4c28.09,-744.02 473.32,-2611 -502.47,-2960.8 -402.48,-144.33 -1020.69,-56.78 -1377.31,143.32 -570.39,319.99 -686.13,1399.93 -800.14,1863.19 -49.85,202.73 -77.93,408.85 -116.04,626l-217.66 1625.18c-33.55,508.8 -149.85,1148.82 -180.01,1656.46l-94.74 1004.95c-18.93,114.78 -6.98,238.51 -6.98,355.46zm16348.39 -63.76c0,456.32 -53.64,1003.83 249.85,1407.22 380.06,505.05 1587.68,402.88 1932.52,-16.8 94.94,-115.59 161.89,-203.49 226.77,-342.66 487.49,-1046.45 788.35,-4176.98 909.5,-5214.72 88.87,-761.23 79,-1037.79 79,-1783.03 0,-615.83 -169.28,-1296.34 -1047.46,-1296.34 -165.94,0 -464.27,40.18 -595.08,78.74 -201.87,59.51 -296.61,99.14 -433.4,213.26 -495.14,413.05 -728.28,1646.49 -785.97,2215 -17.11,168.47 -53.09,341.44 -75.91,510.57l-357.49 3145.1c-4.45,71.56 -22.52,162.45 -37.04,245.44l-65.28 838.2z"/>
   <path class="fil2" d="M44329.34 13134.81c0,-150.96 112.14,-311.79 210.27,-399.24 269.94,-240.63 335.12,-264.82 581.57,-217.05l25.56 191.24c0,312.55 -817.4,833.49 -817.4,425.05zm-23679.63 -1870.02c0,205.31 169.58,119.18 263.96,49.19 74.44,-55.21 178.54,-155.82 272.42,-176.72 176.16,-4.76 149.14,233.75 357.64,233.75 63.92,0 322.52,-138.46 384.56,-168.67 664.21,-323.48 389.37,-625.14 -71.61,-272.11 -59.92,45.9 -91.95,80.11 -185.22,100.81 -239.17,-133.25 -88.66,-493.62 -741.19,-85.53 -95.8,59.92 -280.56,188.26 -280.56,319.28zm-3831.69 871.24c0,231.48 213.1,-26.82 204.35,297.52 -10.83,401.41 -49.7,768.61 -51.06,1189.97 -1.77,543.26 407.23,483.19 433.14,190.38l132.64 -1422.55c14.83,-152.83 21.2,-196.35 175.61,-233.75 351.11,-85.12 794.78,-85.32 1174.43,-85.32 141.8,0 151.47,21.25 280.97,21.25 153.39,-241.09 134.21,-552.47 -255.41,-552.47 -403.18,0 -609,20.09 -1007.12,98.58 -61.89,12.25 -193.47,57.74 -193.47,-13.61 0,-166.45 231.27,-877.57 336.03,-995.43 255.01,-286.89 893.46,-88.31 1068.91,-88.31 118.93,0 183.2,-311.59 171.66,-420.14 -26.32,-248.02 -250.45,-238.61 -503.74,-238.61 -95.85,0 -428.49,29.6 -530.11,48.63 -246.51,46.2 -388.46,137.9 -558.55,258.25 -56.58,40.03 -84.97,82.24 -144.18,134.46 -319.13,281.73 -373.53,727.12 -424.74,1111.58 -14.63,109.82 -15.89,343.32 -48.43,405.87 -53.64,103.14 -260.93,178.08 -260.93,293.72zm12593.37 191.24c16.35,-152.68 142.56,-191.39 166.09,-223.18 19.74,82.94 -28.74,143.42 -101.26,190.94 -30.47,19.99 -37.5,19.84 -64.83,32.24zm-791.89 552.52c0,65.94 38.71,140.38 93.42,177.12 74.19,49.8 141.24,32.64 238.66,56.63 75.86,133.6 70.39,371.81 561.99,371.81 428.18,0 658.8,-182.74 887.64,-397.77 74.19,-69.74 180.06,-112.09 210.78,-207.79l102.17 0c0,271.5 -7.44,392.51 91.04,668.92 25.15,70.65 51.47,125 97.82,173.18 368.52,383.19 934.91,-544.73 1055.1,-762.79 157.64,-285.98 484.05,-826.71 493.06,-1163.09 -52.63,-29.3 -66.29,-63.71 -127.73,-63.71 -206.73,0 -202.83,210.22 -266.24,352.22 -68.17,152.73 -107.03,249.34 -192.15,412.39 -87.25,167.05 -137.45,250.45 -232.44,381.93 -214.42,296.61 -386.43,473.78 -382.38,22.47 1.72,-189.83 -10.22,-919.32 -50.71,-1009.6 -449.89,-72.57 -415.38,447.41 -989.72,929.75 -357.74,300.4 -772.87,187.35 -772.87,15.84 0,-199.49 715.22,-568.46 715.22,-977.52 0,-130.06 6.12,-403.74 -306.52,-403.74 -336.48,0 -647.72,355.97 -774.89,566.19 -221.91,366.85 -157.44,534.96 -295.29,667.91 -47.01,45.34 -155.97,114.78 -155.97,189.67zm-9221.5 -63.76c0,94.23 89.07,210.78 63.21,306.07 -31.83,117.41 -114.27,154.1 -114.27,331.42 0,151.16 134.01,212.5 306.52,212.5 399.74,0 847.41,-503.99 1136.78,-626.92 62.8,47.42 48.38,47.11 80.21,124.54 348.12,846.55 1255.1,-232.23 1625.94,-490.13 47.57,-33.05 52.88,-29.5 100.81,-64.88 106.73,-78.9 198.23,-185.78 351.46,-196.35 41.7,148.83 64.73,130.46 24.49,296.15l-58.91 206.53c-131.17,190.84 -386.99,-172.11 -386.99,453.54 0,167.05 70.55,446.25 242.61,446.25 116.6,0 968.56,-520.34 1093.66,-620.49 140.48,-112.45 49.39,-314.47 -71.91,-314.47 -178.64,0 -228.03,215.28 -396,223.18 -16.75,-72.77 99.24,-435.57 131.32,-528.03 62.25,-179.1 162.5,-430.92 162.5,-608.9 0,-230.77 -151.52,-276.26 -332.08,-276.26 -211.13,0 -765.17,519.83 -912.79,643.06 -175.15,146.15 -448.88,306.47 -651.56,499.29 -72.92,69.38 -101.06,153.89 -249.29,153.89 -244.33,0 -28.69,-594.98 -306.52,-594.98 -319.48,0 -332.18,112.45 -587.59,277.17 -91.6,59.06 -140.43,97.37 -221.91,154.35 -73.18,51.16 -135.47,119.48 -237.8,142.2 43.27,-134.87 501.06,-511.68 619.38,-610.97 115.94,-97.27 236.69,-175.66 357.49,-276.31 121.41,-101.16 300.35,-192.96 300.35,-345.19 0,-194.68 -379.7,-116.65 -594.93,14.78l-1373.06 962.89c-47.42,30.21 -101.11,52.99 -101.11,106.07zm-17702.27 -786.28c-108.6,0 35.53,-207.84 50.71,-234.11l376.36 -707.08c85.78,-168.06 164.72,-412.8 398.27,-213.05 100.66,86.08 222.01,322.92 222.01,495.49 0,634.05 83.86,553.18 -458.5,618.21 -190.53,22.82 -384.21,40.54 -588.86,40.54zm102.17 -1721.23c0,162.5 107.64,30.57 -59.26,248.18 -34.72,45.29 -55.62,69.23 -82.64,121.76 -49.75,96.91 -83.5,191.6 -131.22,295.39 -96.81,210.52 -153.79,372.21 -240.23,585.47 -76.06,187.75 -102.88,416.49 -300.25,538.61 -202.43,125.25 -335.88,56.33 -335.88,548.12 0,54.05 86.84,97.92 127.73,148.73 -44.79,159.97 -112.95,291.34 -167.31,455.26 -43.88,132.29 -112.8,367.1 -109.97,500.1 4.71,221.05 228.54,232.54 359.26,90.33 78.69,-85.63 156.83,-306.17 207.13,-442.91l256.88 -680c85.88,-172.21 549.34,-248.02 745.59,-294.13 266.04,-62.5 675.35,-197.47 675.35,-53.64l0 828.74c0,74.75 -129.4,553.74 122.72,539.92 65.59,-3.59 111.39,-36.79 154.15,-75.86 124.14,-113.26 138.61,-562.65 167.76,-731.01 29.55,-170.49 55.72,-323.63 84.31,-503.28 12.6,-79.15 -9.87,-195.85 14.12,-265.58 21.36,-62.15 121.05,-104.2 121.05,-196.66 0,-85.12 -105.51,-58.35 -126.47,-192.2 -11.44,-73.13 -1.21,-216.09 -1.21,-296.56 0,-261.13 46.25,-897.66 -133.6,-1079.09 -59.67,-60.17 -402.83,-186.18 -402.83,-259.66 0,-129.05 332.18,-614.67 -222.77,-376.06 -319.33,137.3 -317.71,257.13 -509.66,340.28 -107.94,46.76 -212.75,78.9 -212.75,205.77zm24855.88 190.64c121.76,-22.62 419.63,3.09 553.64,27.28 307.44,55.46 635.16,177.17 833.59,348.68 64.78,56.02 93.93,87.6 65.54,173.83 -44.79,136.13 -338.96,312.34 -477.83,390.33 -80.01,44.89 -727.93,356.73 -822.86,356.73 -282.94,0 247.62,-648.52 0,-1041.23 -127.53,-16.19 -185.68,24.04 -280.97,42.51 -100.86,-51.87 -107.74,-254.1 128.9,-298.12zm-537.59 -63.16l25.51 1508.79c-0.1,127.68 -306.52,155.46 -306.52,361.23 0,89.52 204.35,195.04 204.35,340.03 0,523.37 -102.17,489.52 -102.17,807.48 0,146.61 120.7,250.15 255.46,276.26 61.74,-34.41 115.84,-66.55 145.9,-153.09l198.88 -728.84c121.35,-0.91 1004.8,541.8 1159.2,629.29 211.13,119.58 416.59,199.04 625.2,287.8 345.34,146.91 578.54,315.79 578.54,-56.43 0,-170.44 -590.02,-474.49 -744.53,-570.74 -346.86,-216.09 -1099.33,-689.92 -1299.02,-938.05 76.37,-143.98 247.16,-156.98 485.22,-255.06 340.33,-140.23 1298.92,-529.5 1399.38,-855.3 262.35,-851.1 -1834.29,-1469.72 -2418.29,-1032.98 -94.94,71 -207.08,236.28 -207.08,379.6zm-19541.47 1848.76c-35.78,-64.37 -9.41,-95.75 43.07,-155.21 49.19,-55.72 58.15,-82.79 161.28,-99.8 -8.7,86.99 -132.44,233.35 -204.35,255.01zm-2963.12 531.27c0,346.61 229.8,130.01 332.08,85.02 76.06,271.56 -79.05,551.71 -131.37,825.85 -25.35,132.74 -246.1,1235.36 80.26,1235.36 357.18,0 561.08,-828.79 635.47,-1022.66 43.52,-113.46 377.58,-1081.06 565.12,-1081.06 204.86,0 305.11,447.06 932.43,180.56 239.22,132.03 105.01,382.49 625.75,382.49 465.78,0 754.95,-223.78 998.98,-474.74 42.21,-43.37 546.3,-517.3 486.84,-261.28 -39.68,170.9 -290.13,756.06 -249.74,886.48 135.22,436.58 1035.87,-466.85 1158.89,-570.49 304.85,-256.78 390.73,-230.51 617.91,70.44 390.84,517.81 475.96,153.54 703.94,179.6 -73.53,652.12 443.37,418.11 892.35,126.16 63.87,-41.5 82.79,-59.82 138.56,-97.22 69.08,-46.41 349.14,-304.5 412.24,-273.28 81.27,49.49 38.56,30.16 67.1,136.44 117.41,437.55 634.76,339.06 935.97,103.19 72.97,-57.13 101.97,-100.4 165.48,-159.46 231.93,-215.43 498.32,-434.26 787.84,-599.84 144.23,-82.49 214.88,-115.33 214.88,52.18 0,143.22 -21.86,308.8 -76.62,403.74 -431.68,83.7 -357.64,41.24 -357.64,446.25 0,721.15 520.49,285.93 843.06,85.07 94.13,-58.6 190.03,-124.29 288.15,-185.27 49.8,-30.97 273.73,-159.51 273.73,-197.26 0,-86.39 -47.57,-233.75 -153.24,-233.75 -52.53,0 -183.75,101.72 -226.46,130.46 -336.08,226.26 -145.34,-57.69 -26.26,-404.3 67.76,-197.32 338.56,-937.44 -155.97,-937.44 -183.6,0 -350.7,189.83 -471.55,268.06 -105.31,68.12 -116.75,88.41 -207.23,165.74l-835.21 665.63c-84.21,70.24 -301.46,347.97 -431.73,180.41 -52.58,-67.61 -22.32,-199.14 -33.91,-267.46 -88.26,-519.02 -300.55,-336.18 -867.55,61.59 -127.53,89.47 -258.55,232.18 -422.52,243.52 82.99,-130.46 234.97,-231.17 358.8,-337.75l694.83 -570.69c98.18,-82.39 300.2,-188.71 300.2,-345.29 0,-169.73 -378.94,-129.86 -579.55,6.88 -81.63,55.67 -161.59,96.36 -244.23,157.59l-694.32 486.18c-92.1,60.58 -155.51,99.75 -237.55,162.09l-332.28 256.07c-75.35,60.47 -36.34,31.83 -121.71,68.12 -228.69,-172.82 -138.61,-605.71 -651.31,-605.71 -389.47,0 -693.62,485.52 -894.07,573.78 0,-124.54 51.62,-171.25 90.54,-285.17 90.89,-265.94 323.22,-756.06 -192.71,-756.06 -181.22,0 -518.72,310.47 -634,427.73l-382.79 340.63c-172.62,163.92 -395.44,400.35 -694.68,400.35 -194.03,0 -368.62,-77.33 -312.9,-215.18 113.92,-281.83 696.04,-400.45 696.04,-1102.31 0,-322.52 -638.45,-336.94 -1071.65,339.27 -234.82,366.54 -154.4,721.5 -486.53,744.48 -147.27,-231.53 -211.99,-531.22 -587.54,-531.22 -138.66,0 -225.35,110.98 -278.84,192.05l-166.39 308.45c-101.62,209.66 -208.65,400.6 -282.84,615.17 -37.55,-182.89 213.56,-814.82 297.01,-1006.52 66.65,-153.19 128.9,-293.06 187.9,-438.25 97.67,-240.08 244.58,-509.51 115.48,-754.7 -282.03,-14.22 -281.07,173.02 -422.36,370.39 -99.85,139.52 -214.42,328.08 -305.16,469.43 -145.85,227.12 -325.15,448.27 -520.74,650.65 -46.31,47.92 -156.68,137.8 -156.68,230.82zm29656.99 233.75c0,-219.23 491.19,-616.24 638.61,-616.24 161.49,0 206.78,119.99 188.51,218.27 -82.03,441.39 -827.12,845.54 -827.12,397.97zm8110.28 74.44c-21.41,-132.74 574.18,-791.74 779.19,-881.97 0,172.27 -214.02,374.64 -331.68,510.01 -73.73,84.82 -330.01,370.09 -447.51,371.96zm-5887.89 -1221.95c4.1,-154.55 168.98,-393.77 233.9,-527.93 62.5,-129.25 141.14,-411.58 302.53,-470.84 33.4,56.02 25.56,-17.46 25.56,63.76 0,148.58 -271.1,600.4 -378.08,747.97 -110.12,151.87 -77.78,162.25 -183.9,187.04zm-970.69 956.26c-36.28,-142.05 277.48,-713.45 -134.87,-886.73 -176.62,-74.19 -330.92,-27.02 -554.85,-27.02 -22.92,-81.83 -22.98,-127.53 -127.73,-127.53 -213.81,0 -842.75,586.99 -1092.24,770.18 -134.31,98.63 -312.65,183.55 -312.65,356.07 0,90.74 55.41,165.74 150.86,129.1 90.18,-34.67 100.4,-98.68 232.28,-107.84 37.2,132.89 -17.76,333.7 67.71,496.91 156.93,299.59 750.95,193.57 1000.8,52.02 80.92,-45.85 133.2,-107.54 196,-137.5 106.17,-50.61 206.53,13.56 344.78,13.56 243.97,0 425.96,-304.45 638.61,-382.49 90.54,97.82 97.92,240.63 188.86,352.88 229.91,283.85 819.88,203.19 1105.96,22.57 243.32,-153.64 462.34,-360.62 678.48,-540.13 63.76,-52.99 102.38,-82.13 161.74,-142.05 58.6,-59.21 89.27,-109.16 189.47,-118.27 -27.88,279.1 -498.88,1211.22 153.29,1211.22 303.24,0 561.78,-458.85 791.89,-509.96 0,116.65 -41.75,180.06 1.01,274.34 111.59,246.15 355.01,172.57 578.43,79.4 113.36,-47.27 207.49,-110.83 304.05,-171.4 56.58,-35.48 94.94,-63.61 140.28,-95.9 123.48,-87.9 273.48,-266.7 432.23,-277.68 105.87,183.5 87.85,424.99 459.81,424.99 360.12,0 424.59,-220.7 613.05,-233.75 -12.55,127.17 -51.06,145.65 -51.06,297.47 0,288.71 478.74,305.36 860.06,-70.24l584.05 -579.09c6.38,-6.28 40.18,-38.06 46.1,-41.65 60.47,-36.69 79.6,-14.02 117.66,54.71l137.5 290.63c196.2,299.54 657.33,279.2 956.62,21.96 118.42,-101.82 197.32,-267.76 388.86,-271.3l-25.56 318.77c0,146.81 228.64,382.49 434.26,382.49 587.44,0 615.02,-180.11 839.46,-280.51 206.73,-92.51 297.01,153.95 712.39,-192.31l648.98 -522.72c124.34,-90.79 214.37,-212.19 404.7,-215.74 28.29,184.11 26.26,393.97 -76.62,552.52 -110.42,0 -191.45,-18.42 -263.91,35.42 -164.78,122.47 -91.04,462.24 -39.02,621.25 42.1,128.64 29.5,107.54 98.58,193.32 170.14,-3.14 279.91,-46.61 394.88,-118.62l611.83 -383.65c240.99,-139.98 302.83,-221.45 181.02,-432.74 -253.79,-17.46 -280.21,205.31 -472.51,228.49 -86.99,-122.67 280.97,-802.57 280.97,-993.46 0,-165.43 36.39,-446.25 -255.41,-446.25 -177.53,0 -360.83,175 -460.32,254.6 -226.21,180.97 -1056.36,849.64 -1251.15,935.36 4.5,-169.79 339.12,-521.2 19.33,-844.83 -180.87,-183.04 -329.65,-111.39 -555.81,-111.39 -125.66,0 -121.86,-185.73 -385.37,-86.59 -98.78,37.15 -210.57,146.71 -285.12,208.75l-548.63 435.62c-142.15,117.05 -401.41,329.1 -569.22,421.91 -342.76,189.47 -495.34,-331.63 -386.84,-769.47 23.03,-92.91 48.43,-174.09 85.58,-268.77 54.96,-140.13 142.2,-317 220.04,-475.85 19.38,-39.57 684.4,-1317.29 209.21,-1335.61 -302.93,-11.69 -770.23,1067.24 -874.18,1290.27 -141.04,302.58 -35.22,212.14 -352.32,388.2 -252.73,140.33 -528.28,350.86 -745.79,548.58l-537.65 402.42c-246.81,206.32 -557.64,590.28 -602.47,27.13 -12.75,-160.27 5.82,-319.08 -233.9,-319.08 -269.28,0 -789.92,600.2 -1021.8,616.24 80.11,-125.91 179.7,-224.09 299.95,-324.29 194.53,-162.25 1053.93,-774.79 1053.93,-908.24 0,-71.36 -44.84,-109.21 -76.62,-148.73 -537.8,-8.55 -999.79,442.61 -1382.98,698.93 -157.79,105.57 -645.44,529.5 -711.53,555.51 -79.25,31.27 -106.43,33.4 -183.2,80.62 -170.9,105.06 -276.77,220.49 -276.77,-38.82 0,-135.07 320.39,-1224.28 421.81,-1327.11 107.24,-108.75 234.36,-45.24 248.33,-243.27l-6.93 -490.73c7.29,-173.73 55.46,-187.75 -50.1,-318.87 -363.2,-12.55 -333.85,287.55 -541.44,441.85 -116.4,86.54 -846.9,46.91 -1042.35,46.91 -90.59,112.55 -144.18,275 -102.17,424.99 624.18,249.14 1254.29,-308.25 456.22,675.6 -228.94,282.23 -696.25,802.67 -1106.31,889.77 -445.59,94.69 -767.1,-237.09 -428.13,-677.07 39.93,-51.87 57.49,-65.94 106.63,-123.13 182.74,-212.5 328.49,-439.11 469.23,-673.12 211.33,-351.36 476.82,-937.84 476.82,-1388.34 0,-253.34 -98.38,-318.72 -332.03,-318.72 -433.4,0 -1077.97,1476.96 -1191.23,1771.74 -73.18,190.53 -152.43,859.81 -208.15,931.16 -41.14,52.78 -293.82,247.67 -337.65,272.11z"/>
   <path class="fil3" d="M27086.88 10882.31c0,133.6 -18.22,192.76 -24.75,298.17 -3.59,58.45 3.29,81.38 -11.49,139.17 -0.05,0.25 -102.07,221.4 36.23,221.4 157.18,0 817.4,-305.82 817.4,-573.78 0,-74.19 -232.79,-182.59 -305.46,-213.41 -107.64,-45.6 -309.61,-94.89 -460.88,-105.31 -140.18,174.14 -51.06,110.32 -51.06,233.75zm102.17 -1338.8c0,335.22 52.73,230.21 511.08,382.38 801.36,266.04 630.31,329.4 761.78,-704.7l114.02 -925.19c19.18,-125.71 56.12,-324.19 67.66,-453.69l103.14 -934.2c3.9,-135.63 37.35,-323.48 63.26,-457.43 58.96,-305.11 38.92,-633.49 104.81,-932.78 64.12,-291.44 55.01,-643.41 68.47,-708.04l53.14 -210.78c23.84,-136.39 22.01,-313.41 49.24,-469.07 40.64,-232.64 159.56,-968.61 139.17,-1152.47 -18.17,-163.21 -325.81,-87.5 -400.91,-87.5 -72.67,0 -627.02,-53.49 -750.19,36.89 -88.97,65.28 -128.95,675.5 -158.65,845.54l-57.44 440.99c-38.71,299.59 -67.1,598.73 -106.58,888.81 -66.5,487.9 -140.53,1330.6 -218.42,1773.31 -122.87,698.17 -183.2,1510.15 -270.39,2218.85 -18.27,148.83 -73.18,272.97 -73.18,449.08zm11035.19 595.03c0,457.38 54.35,187.55 249.74,387.19 81.68,83.4 83.91,168.01 82.64,313.76 -2.18,254.91 -0.35,510.32 -0.35,765.27 97.67,54.4 104.6,72.72 265.23,52.43 114.52,-14.42 240.43,4.76 314.57,-37.6 170.7,-97.52 250.65,-1313.85 286.54,-1567.9l293.97 -2454.17c16.4,-92.56 5.11,-189.67 24.7,-277.02 89.17,-398.43 41.09,-329.96 77.48,-530.51 33,-182.08 18.47,-367.71 54.1,-549.99 51.32,-262.4 54,-495.54 109.66,-822.51 17.71,-103.69 19.74,-157.39 34.11,-269.13 11.08,-86.03 12.96,-170.65 22.32,-278.94 7.89,-91.6 39.42,-153.54 49.44,-256.32l91.09 -816.74c20.04,-109.97 35.17,-171.05 37.04,-287.95 6.07,-377.22 213.46,-568.11 -256.58,-593.82 -200.66,-10.93 -820.18,-79.76 -888.25,108.96 -50.81,141.04 -75.66,374.49 -80.67,549.13l-70.65 536.23c-40.69,201.52 -53.95,755.96 -71.51,833.04l-419.68 3263.37c-6.63,121.51 -45.75,115.99 -51.87,254.35 -8.45,190.28 -44.69,350.1 -50.45,553.03 -8.4,296.91 -102.63,550.8 -102.63,1125.85zm-5313.25 -7225.02l-98.48 513.1c-13.11,102.28 -6.33,197.01 -21.2,279.86 -80.67,447.51 -87.95,760.42 -151.47,1085.21l-388.41 3310.69c-109.51,622.66 -152.88,1278.58 -253.79,1913.84 -13.41,84.61 -23.53,204.7 -29.86,272.67 -10.83,115.74 -26.06,191.24 -27.63,295.8 -2.99,199.69 -156.78,745.39 -78.09,936.38 31.48,76.47 29.45,44.38 78.24,104.96l664.16 -21.25c169.89,0 221.1,21.25 383.14,21.25 135.73,-213.36 120.9,-727.72 170.85,-1005.35 35.42,-196.81 46.1,-309 59.01,-524.69 5.11,-85.68 17.46,-168.01 26.67,-275.3 8.86,-103.44 46.25,-131.73 50.15,-255.77l509.31 -4208.86c15.23,-88.71 19.03,-148.68 34.56,-247.47l53.44 -529.3c18.72,-103.74 30.62,-148.99 43.52,-261.28 19.13,-165.99 29.1,-354.1 52.18,-530.36 59.06,-451.21 73.18,-247.42 73.18,-810.36 0,-65.33 -74.85,-85.02 -153.29,-85.02 -177.78,0 -870.94,-19.18 -996.19,21.25zm14841.27 5928.73c0,222.97 -64.62,1123.42 -421.91,1070.33 -525.9,-78.14 106.38,-1219.06 -369.99,-1219.06 -828.99,0 -754.19,-68.57 -869.37,615.53 -61.39,364.42 -101.31,432.23 -101.31,872 0,531.93 -162.5,1487.84 734.15,1580.55 250.65,25.91 176.06,-114.32 466.44,-114.32 263.96,0 710.01,324.29 1131.77,-503.49 68.98,-135.32 103.95,-272.26 161.44,-418.21 173.48,-440.58 243.01,-967.14 348.78,-1409.85l95.04 -1047.2c0,-307.59 21.25,-578.64 -48.18,-873.67 -34.26,-145.44 -64.27,-193.72 -139.02,-309.36 -185.47,-286.99 -357.38,-384.36 -559.81,-575.55 -51.57,-48.78 -57.03,-67.41 -114.62,-117.15 -105.97,-91.55 -220.65,-180.21 -293.22,-287.34l-102.28 -233.65c-114.22,-408.5 -67.05,-713.96 121.46,-1119.27 159.61,-343.11 477.52,-104 409.81,255.67 -32.84,174.49 -40.49,415.99 -40.49,604.09 0,102.68 177.98,86.49 306.22,85.27 168.67,-1.57 261.28,14.57 386.33,21.1 289.77,15.18 342.66,-199.39 373.43,-388.36 69.23,-425.55 239.12,-1607.12 24.85,-2006.71 -84.11,-156.83 -171.96,-287.24 -334.81,-380.26 -358.45,-204.7 -1285.87,-269.08 -1741.83,233.85 -270.44,298.33 -250.1,416.95 -347.36,709.76 -116.24,349.79 -353.74,1651.95 -352.48,2044.31 0.76,229.45 -48.43,209.56 2.88,613.4 5.57,43.98 21,84.01 33.96,141.8 37.8,169.13 -21.15,149.29 93.42,432.28 75.4,186.28 160.58,272.26 282.99,423.27 220.04,271.35 740.93,505.21 827.47,990.42 20.75,116.29 36.23,184.31 36.23,309.81zm-3397.43 977.52c-155.41,0 -194.28,-112.35 -210.02,-207.74 -28.54,-172.52 39.12,-893.82 63.92,-1061.32 29.71,-200.55 82.03,-467.76 95.09,-685.87 3.69,-61.59 -5.47,-127.63 2.83,-188.91 23.23,-172.06 50.91,-136.74 74.49,-490.53l180.21 -1358.84c29.86,-123.23 37.9,-191.34 50.71,-340.28 9.72,-113.26 55.82,-225.3 71,-323.48 33.6,-217.56 -3.44,-506.78 284.87,-506.78 124.49,0 204.35,27.63 204.35,148.78 0,459.71 -102.12,1662.13 -171.51,2109.79l-160.52 1247.71c-12.45,331.37 -98.28,524.13 -128.34,934.5 -8.15,111.64 -43.37,172.42 -65.49,285.52 -18.02,92 -36.34,437.44 -291.6,437.44zm-1353.83 191.24c203.19,0 333.9,-74.14 493.97,-7.69 467.56,193.98 -3.74,1047.91 -132.99,1328.02 -82.89,179.6 -135.88,267.86 89.52,366.19 515.68,224.85 1253.38,127.73 1651.14,-214.42 197.52,-169.94 330.41,-524.44 430.66,-768.01 33.6,-81.68 27.83,-138.66 56.22,-229.45 17.97,-57.54 16.85,-23.13 45.6,-89.57l223.18 -1089.36c31.07,-172.21 43.83,-351.11 76.62,-510.01l146.71 -1004.19c30.36,-179.25 19.33,-331.07 50.4,-510.57 62.8,-363.61 58.15,-755.05 108.55,-1035.97 32.74,-182.59 34.87,-330.41 59.51,-524.18 60.88,-477.88 149.64,-1467.29 74.59,-1917.29 -105.11,-629.7 -215.43,-1018.46 -1176.86,-1018.46 -336.74,0 -669.73,55.77 -904.39,246.35 -277.12,225.1 -457.18,528.54 -541.29,845.99 -24.39,92.1 -65.59,150.71 -79.86,209.82 -22.37,92.51 -17.76,167.1 -44.03,260.88 -137.14,489.92 -273.58,1522.3 -322.92,2026.39l-144.38 1027.37c-30.01,199.85 -28.49,527.32 -75.35,787.34l-84.61 800.85c-9.77,131.58 -146.25,1019.98 0,1019.98zm-3269.7 -233.75c0,406.07 -32.59,868.66 74.34,1255.7 33.5,121.3 120.75,353.49 201.16,427.63 117.26,108.1 287.65,44.28 442.81,205.41 258.09,267.91 1392.75,206.78 1711.16,-441.44l88.51 -160.17c99.34,-182.29 200.25,-467 240.53,-671.1l84.72 -375.75c6.78,-43.02 13.06,-127.12 24.24,-192.36 43.93,-256.12 54.35,-98.18 97.37,-577.78 11.03,-122.97 41.95,-265.99 64.47,-392.61 42.61,-240.13 12.09,-258.09 80.11,-592.1 58.8,-288.61 52.63,-728.84 101.31,-1020.69 26.26,-157.18 18.62,-252.93 34.77,-417.35 42.05,-428.69 236.43,-341.14 -1253.02,-341.14 -359.66,0 -240.58,156.12 -346.55,752.98 -25.3,142.36 -56.88,318.52 -62.15,458.29 -10.53,280.87 -89.47,345.49 -25.56,573.73 136.94,26.52 297.57,37.25 434.26,63.76 4.25,159.61 38.82,133.85 -17.81,410.17 -32.94,160.83 -141.8,1077.32 -442,1077.32 -318.47,0 -306.52,-168.82 -306.52,-488.76 0,-134.61 8.45,-218.32 21.66,-321.96 43.27,-339.82 41.24,-570.84 99.09,-937.59l257.84 -2165.46c62.85,-352.73 76.11,-995.84 240.58,-1159.91 236.28,-235.73 504.8,-119.33 504.8,143.67 0,219.48 -64.73,582.69 -25.56,722.51l741.29 43.93c406.78,-3.74 360.32,-146.35 406.78,-640.12l52.53 -976.3c0,-391.75 -59.36,-631.32 -220.75,-900.14 -47.22,-78.64 -54.5,-93.22 -132.44,-144.84 -454.4,-300.91 -904.19,-258.7 -1409.75,-145.29 -215.79,48.38 -263.15,103.19 -402.02,218.01 -159.87,132.18 -111.94,96.81 -212.4,227.07 -111.89,145.04 -203.74,330.71 -270.75,497.26 -33.86,84.11 -32.49,148.83 -59.06,227.12l-330.46 1680.09 -204.15 1763.95c-13.11,115.59 -33.55,174.34 -47.37,258.09 -28.19,170.85 -13.61,348.78 -35.22,523.17 -42.46,342.2 -200.81,1252.52 -200.81,1532.98zm-8582.89 -4313.71c-109.92,-24.44 -117.36,-120.65 -147.16,-302.58l-210.22 -1950.13c-15.49,-325.91 -75.2,-339.82 -766.59,-339.82 -99.44,0 -197.47,5.31 -279.75,22.27 -110.02,22.67 -113.81,58.3 -136.79,162.45 -28.95,131.53 -67.41,322.82 -87.35,458.6l-130.97 953.53c-10.78,81.73 5.11,166.04 -9.67,246.96 -83.35,455.31 -84.92,783.49 -155.16,1209.7 -24.8,150.3 -24.95,318.11 -46.46,492.55l-77.78 466.59c-19.18,149.34 -35.73,323.33 -61.74,479.85 -13.36,80.16 -22.17,167.66 -31.38,228.94 -41.4,276.31 -23.48,555.81 -84.61,737.09l-201.06 2021.48c0,83.1 92.86,162.75 135.88,248.18 294.94,585.82 -189.93,737.09 -212.55,963.05 150.71,83.96 209.92,63.76 434.26,63.76 159.77,0 396.25,-177.28 478.59,-260.62 55.87,-56.53 106.58,-147.21 125.15,-235.88l235.32 -2141.73c15.33,-120.34 16.04,-202.48 31.63,-313.71 12.6,-89.98 31.33,-217.25 44.18,-303.24 30.52,-203.54 29.55,-399.79 62.09,-607.13 32.89,-209.66 95.9,-296.96 95.9,-600.2 103.64,23.03 60.12,2.83 78.69,83.3 36.39,157.79 21.46,327.17 41.45,454.25l88.31 585.32c61.49,488.46 222.21,1564.51 251.52,2043.25 6.22,101.47 9.16,57.59 34.67,141.19 18.83,61.64 107.24,754.44 174.14,1002.62 15.84,58.6 12.7,75.71 70.55,111.33 90.23,55.46 235.22,41.24 359.11,41.24 277.48,0 260.02,-151.26 279.65,-362.34l242.05 -2221.13c67,-258.2 71.56,-560.77 92.1,-837.19 7.64,-103.09 37.85,-161.08 48.33,-257.28 39.63,-364.62 31.43,-477.42 104.81,-826.56 22.47,-107.13 20.55,-149.34 24.29,-277.27 5.26,-180.06 59.06,-380.06 76.62,-552.52l109.97 -801.05c22.98,-92.51 7.19,-187.55 22.17,-300.3l123.99 -1108.03c14.27,-249.19 127.68,-794.68 127.68,-1126.3 -187.3,-104.35 -716.34,-131.73 -933.09,-32.49 -203.74,93.27 -169.99,423.12 -227.43,767.05 -49.49,296.3 -50.86,576.56 -102.07,871.35 -46.91,269.83 35.02,450.75 -91.24,901.61zm4930.05 871.24c-64.47,-230.31 0,-741.44 0,-1041.28 0,-209.87 19.64,-426.92 -1.32,-636.38 -33.4,-333.14 1.32,-214.12 1.32,-511.08 0,-374.59 49.85,-850.9 -51.06,-1211.27 -282.79,-54.81 -1115.02,-21.25 -1456.06,-21.25 -210.73,0 -160.22,580.1 -188.71,735.52l-85.42 523.93c-15.08,97.22 -2.78,182.44 -20.75,280.26 -18.47,100.96 -26.87,159.41 -45.19,259.92 -47.72,262.09 -37.75,571.4 -101.26,829.49l-131.48 1080.6c-33.81,193.17 -20.04,393.11 -63.36,563.56 -40.74,160.27 -54.1,366.39 -75.15,532.48 -56.02,442 -97.06,906.16 -172.27,1344.16 -32.84,191.39 -10.63,391.59 -42.1,581.27 -56.07,337.95 -223.78,1657.22 -223.78,1938.79 130.57,72.77 243.87,63.76 408.7,63.76 164.98,0 450.15,23.33 588.56,-41.65 94.84,-44.53 68.57,-134.72 86.69,-246.66l84.11 -567.5c15.38,-95.65 4.71,-182.84 21.66,-279.45 17,-96.76 22.47,-206.78 34.21,-290.33l71.81 -577.73c15.99,-99.44 8.1,-196.05 24.7,-277.02 95.49,-466.19 102.38,-951.36 179.7,-1422.96 16.75,-102.33 -5.06,-205.36 16.75,-304.8 7.59,-34.56 28.49,-97.72 35.22,-119.48l38.41 -95.55c2.18,-3.69 7.44,-10.63 9.26,-13.56 1.82,-2.88 5.97,-9.06 9.51,-13.31 85.93,306.88 76.87,491.29 76.62,807.48 -0.2,294.48 26.01,555.61 25.56,871.3 -0.25,171.96 26.16,277.83 26.42,424.24 0.61,356.98 -36.54,732.08 24.29,1084.86 16.95,98.63 20.7,102.78 102.58,148.38 80.01,-48.78 206.63,-277.43 267.81,-372.21 427.88,-663.05 641.59,-405.26 808.39,-857.48l350.25 -1259.9c43.17,-261.38 147.97,-472.62 218.98,-731.57 33.3,-121.61 10.88,-162.14 117.1,-221.3 0,217.81 43.88,124.85 -6.68,440.63 -22.06,137.7 -63.36,253.74 -69.99,430.56 -11.34,303.84 -84.92,590.68 -123.89,895.69 -9.97,78.29 0.71,142.76 -13.71,222.37 -14.63,80.82 -28.59,138.66 -45.09,217.46l-33.3 691.49c18.98,186.59 -90.54,469.93 -78.14,609.86 10.93,124.09 107.59,116.5 266.04,127.83 421.91,30.11 760.52,97.06 819.63,-257.49l57.49 -525.96c61.94,-343.62 68.83,-710.67 125.4,-1021.9l148.28 -1002.87c16.35,-179.5 7.34,-346.25 37.3,-521.5 57.74,-337.85 75.71,-674.59 121.81,-1024.94 19.94,-151.67 55.52,-353.84 70.65,-514.92 14.22,-150.96 5.87,-384.36 41.65,-517.91 50.66,-189.47 144.18,-1197.76 200.2,-1533.43 59.21,-354.55 91.65,-672.06 91.65,-1071.24 -343.92,-66.65 -990.37,-62.45 -1378.37,-20.39 -412.8,44.69 -256.98,194.68 -378.64,577.47 -115.74,363.96 -183.5,580.86 -246.35,963.8l-182.23 719.68c-30.67,88.56 -42.46,146.25 -74.7,235.37 -19.79,54.6 -27.99,47.72 -48.28,108.6 -54.35,163.41 -126.21,643.97 -180.51,742.3 -38.26,69.28 14.02,49.85 -90.89,73.18z"/>
  </g>
 </g>
</svg>
