<?xml version="1.0" encoding="UTF-8"?>
<!DOCTYPE svg PUBLIC "-//W3C//DTD SVG 1.1//EN" "http://www.w3.org/Graphics/SVG/1.1/DTD/svg11.dtd">
<!-- Creator: CorelDRAW -->
<svg xmlns="http://www.w3.org/2000/svg" xml:space="preserve" width="58.9422mm" height="14.2144mm" version="1.1" style="shape-rendering:geometricPrecision; text-rendering:geometricPrecision; image-rendering:optimizeQuality; fill-rule:evenodd; clip-rule:evenodd"
viewBox="0 0 707 170.5"
 xmlns:xlink="http://www.w3.org/1999/xlink"
 xmlns:xodm="http://www.corel.com/coreldraw/odm/2003">
 <defs>
  <style type="text/css">
   <![CDATA[
    .fil0 {fill:black}
    .fil7 {fill:#00ABE9}
    .fil4 {fill:#00CDF9}
    .fil11 {fill:#8A0305}
    .fil2 {fill:#B80006}
    .fil6 {fill:#BA6E04}
    .fil10 {fill:#C2010B}
    .fil8 {fill:#DB8705}
    .fil5 {fill:#E90000}
    .fil3 {fill:#F00000}
    .fil9 {fill:#FED000}
    .fil1 {fill:#FEFEFE}
   ]]>
  </style>
 </defs>
 <g id="Camada_x0020_1">
  <metadata id="CorelCorpID_0Corel-Layer"/>
  <g id="_2413228553920">
   <path class="fil0" d="M637.89 152.6c-0.58,-5.38 14.13,-14.66 28.74,-9.02 16.32,6.29 3.17,16.41 -9.54,17.36 -4.22,0.32 -9.01,0.09 -12.48,-1.55 -2.17,-1.02 -6.45,-4.23 -6.72,-6.79zm-45.07 -9.4l0.78 -0.56c6.46,-3.67 9.72,-0.94 26.77,-13.54 3.18,-2.35 4.74,-4.93 7.77,-6.8 3.65,2.67 3.52,8.11 12.01,11.32 0.88,0.33 1.7,0.55 2.88,0.84l2.97 0.93c0.11,0.05 0.32,0.13 0.46,0.23 -0.72,3.89 -4.02,1.69 -9.84,5.96 -4.72,3.46 -4.78,4.59 -12.53,3.32 -10.4,-1.7 -20.71,-0.67 -31.27,-1.69zm-74.1 -20.15c3.47,1.31 2.85,7.59 3.84,10.04 1.12,2.76 4.26,5.1 4.79,8.61 -6.29,0.12 -11.28,1.29 -8.99,-5.45 2.45,-1.19 -0.12,0.76 2.19,0 -1.34,-4.62 -4.88,-7.79 -1.83,-13.2zm72.75 -2.68c2.41,-11.18 -24.18,-50.16 -21.9,-72.17 0.72,-6.93 17.04,-13.73 25.03,-12.39 6.77,1.14 4,8.03 5.06,13.94 1.65,9.24 6.74,19.34 10.33,27.32 3.28,7.3 9.1,18.94 10.53,27.2 4.25,24.62 -20.73,31.61 -39.6,34.87 -9.64,1.66 -25.47,3.09 -35.81,2.36 -12.94,-0.91 -13.37,-9.96 -16.4,-21.55l-11.99 -44.59c-2.35,-8.35 -2.93,-7.79 2.3,-13.04 3.05,-3.06 6.91,-5.36 12.45,-6.52 2.53,-0.53 6.02,-0.93 8.62,-0.63 3.52,0.41 3.63,1.57 4.77,4.63 3.26,8.79 12.32,46.43 16.02,59.45 1.72,6.06 3.96,4.86 13.82,4.12 4.96,-0.38 12.8,-0.94 16.79,-3.02zm-391.57 -80.43c2.78,0.58 1.35,0 2.82,2.35 2.34,3.73 5.24,6.6 6.3,10.04 1.78,5.76 2.7,12.4 2.27,19.1 -3.91,-1.94 -16.47,-25.7 -11.39,-31.48zm145.26 13.19c0.74,-3.91 0.82,-3.78 0.39,-7.88 -2.08,-0.44 -19.25,0.2 -28.26,-0.72 -8.7,-0.88 -18.94,-1.09 -21.83,-7.64 0.85,-3.31 6.04,-7.11 9.6,-7.24 1.23,-1.4 -0.54,-0.19 2,-1.38 0.15,-0.07 1.41,-0.5 1.84,-0.65 5.92,-2.09 28.53,-7.29 31.96,-5.42l3.5 6.52c-2.39,1.75 -11.42,2.32 -15.11,2.99 -3.84,0.7 -11.73,1.02 -13.18,5.24 1.8,0.05 3.46,0 5.24,-0 1.41,-0 3.23,-0.02 4.27,0.93l19.58 -0.18c0.05,-0.41 0.34,-1.38 0.42,-1.54 0.97,-2.07 0.16,-0.51 0.84,-1.51 -0.42,-11.43 -3.82,-12.76 8.18,-16.02 6.66,-1.81 15.68,-3.89 22,-1.29 3.27,1.18 24.95,1.1 30.83,1.26 17.56,0.48 29.37,8.47 8.96,16.56 -10.25,4.06 -33.95,5.77 -39.29,8.21 0.25,0.78 0.37,0.57 -0.47,0.57 -1.09,17.98 -17.57,47.81 -30.52,57.42 -2.04,1.51 -2.4,1.22 -2.87,3.35 8.6,0.54 18.68,-0.59 27.7,-0.41 8.64,0.17 18.48,1.8 26.25,1.65 -1.73,-4.21 -7.25,-9.08 -7.78,-12.46 4.35,-6.55 14.51,-7.14 24.7,-7.86 1.34,-2.84 1.9,-6.87 3.52,-10.27 1.57,-3.28 4.2,-6.25 5.19,-8.91 0.26,-3.87 -11.17,-10.56 0.02,-18.53 15,-10.68 50.92,-5.84 67.94,5.58 15.98,10.72 31.02,32.96 24.94,55.85 -1.9,7.15 -9.45,14.97 -9.7,18.73 1.41,2.16 2.15,2.04 3.86,3.65 0.46,5.19 -3,7.3 -7.68,8.06 -5.36,0.87 -10.32,-0.34 -15.03,-1.14 -3.89,-0.66 -9.66,1.35 -14.25,1.98 -4.46,0.61 -10.71,0.86 -15.49,0.6 3.19,1.98 109.11,7.91 121.62,7.92 7.34,0 14.69,0.21 22.03,0.32 6.23,0.09 14.95,-1.81 19.5,1.11 -7.08,0.63 -11.4,2.7 -20.14,2.91 -7.38,0.18 -14.43,0.73 -22,0.66 -15.16,-0.13 -30.14,-0.62 -45.28,-1.01 -29.34,-0.75 -58.44,-3.69 -88.03,-3.83 -39.38,-0.18 -90.81,2.95 -130.8,6.45 -6.8,0.6 -37.52,5.31 -41,3.95 0.34,-2.87 -0.85,-1.39 1.71,-2.35l10.92 -1.64c18.04,-2.74 26.57,-3.88 45.69,-5.16 8.63,-0.58 58.87,-3.1 62.12,-5.5l-59.31 -1.14c-10.18,-0.26 -20.04,0.3 -30.18,0.21 -10.46,-0.09 -20,-0.65 -30.58,-0.14 -22.17,1.07 -61.72,2.27 -82.36,8.88 -5.95,1.91 -22.27,4.19 -27.06,0.81 -3.12,-4.48 5.75,-9.99 8.48,-11.87 4.99,-3.44 7.05,-4.03 12.06,-5.65 2.68,-0.87 2.37,1.34 1.97,-7.29l-0.9 -4.07c-27.88,4.56 -133.84,23.82 -162.72,21.76 -6.04,-0.43 -7,-0.22 -6.42,-6.8 8.06,-5.82 14.27,-6.48 25.34,-9.84 15.61,-4.74 38.68,-11.81 54.51,-15.82 4.98,-1.26 9.54,-2.26 14.07,-3.59 2.26,-0.67 4.63,-1.41 7.02,-1.77 4.16,-0.62 3.63,0.11 6.02,-2.69l1.8 -1.78c-1.11,-1.92 -1.49,-2.27 -3.69,-2.92 -5.61,-0.13 -11.25,-0.26 -16.88,-0.32 -6.14,-0.06 -10.65,1.01 -16.53,0.74 -2.09,4.52 -3.97,6.39 -8.15,8.48 -2.09,1.05 -4.12,1.74 -6.5,2.36 -9.96,2.6 -7,-5.98 -6.61,-8.08 -3.35,-1.48 -26.64,2.79 -30.74,0.89 1.22,-2.48 11.44,-3.64 14.44,-3.95 5.54,-0.58 11.67,-0.98 17.19,-1.92 2,-5.7 1.92,-23.9 1.2,-30.9 -2.66,-25.9 -9.11,-14.54 -19.28,-31.51 -6.62,-11.04 8.99,-27.45 23.33,-20.17 7.97,4.04 11.48,9.29 13.95,19.29 1.71,6.92 2.71,6.57 6.98,10.09l27.54 23.39c3.11,2.45 6.52,5.29 9.29,7.68 1.82,1.57 2.92,2.32 4.45,3.74 1.53,1.42 2.51,3.2 4.64,4.09 4.79,-5.32 11.68,-22.25 14.41,-30.21 2.04,-5.96 1.1,-6.25 -0.2,-12.23 -4.13,-18.98 30.8,-21.8 36.98,-12.21 0.69,11.32 -5.78,12.73 0.56,24.95 9.57,18.46 22.89,41.24 25.41,63.88l0.93 0c0.98,-12.19 3.56,-24.87 3.16,-39.16 -0.25,-8.9 -3.44,-29.64 -7.41,-35.49 -2.77,-4.08 -5.65,-7.33 -8.61,-12.14 -3.1,-5.03 -7.02,-9.2 -2.04,-14.94 1.85,-2.13 8.66,-8.9 13.16,-6.28 13.45,7.8 13.33,17.97 17.85,24.33 3,4.21 6.77,7.77 10.16,11.23 7.13,7.29 14.84,14.16 21.74,21.02l22.07 20.7c3.66,3.44 6.47,7.09 11.6,9.75 5.03,2.6 4.18,9.48 10.64,11.07 4.51,-2.14 17.84,-18.36 21.46,-24.12 5.57,-8.87 11.17,-20.03 13.12,-32.27zm325.04 -32.77c-1.12,3.46 -10.53,7.98 -15.8,11.98 -3.49,2.65 -12.81,11.5 -6.5,17.49 3.84,3.64 16.03,4.47 22.67,5.67 5.99,1.08 16.21,5.71 18.34,9.94 4.56,9 -11.27,33.12 -14.88,39.37 -7.33,12.68 -8.98,23.03 -17.75,24.46 -4.02,0.66 -9.39,-0.02 -12.82,-1.5 -8.36,-3.61 -4.42,-12.74 -0.78,-19.1 3.53,-6.17 7.65,-10.77 11.46,-16.83 1.61,-2.56 9.21,-16.83 8.39,-19.46 -2.76,-8.92 -31.04,-5.68 -37.09,-18.94 -2.01,-4.4 -0.95,-7.39 1.18,-10.5 2.15,-3.15 4.37,-5.49 6.8,-7.69 5.41,-4.89 18.46,-13.59 25.84,-16.32 5.2,-1.92 7.46,-1.63 10.95,1.45zm-53.6 20.28c-1.4,5.97 -3.48,7.01 -0.44,14.54 1.51,3.74 5.77,7.07 9.38,8.82 8.46,4.1 18.77,5.22 26.97,8.8 -0.65,6.3 -14.26,27.36 -19.33,34.55 -1.44,2.04 0.08,0.86 -1.89,1.77 -1.05,-2.64 -1.7,-8.1 -4.68,-15.95 -4.29,-11.29 -17.61,-36.65 -17.05,-45.66l-0.47 -0.86c-0.04,-0.11 -0.15,-0.33 -0.2,-0.46l-1.61 -7.25c-2.74,-9.94 -16.77,-10.42 -23.7,-8.25 -8.77,2.75 -21.72,10.48 -22.52,21.38 -1.34,18.09 21.73,54.25 23,64.75 -16.84,3.79 -14.01,3.19 -17.63,-10.03 -1.11,-4.06 -2.18,-8.23 -3.26,-12.45 -2.08,-8.16 -4.26,-16.58 -6.06,-24.7 -1.9,-8.57 -4.07,-17.52 -11.93,-19.12 -21.2,-4.3 -30.29,9.9 -37.7,6.45 -1.52,-0.71 -3.22,-2.25 -4.45,-3.09 -1.62,-1.09 -3.24,-2.08 -5.02,-3.17 -5.92,-3.62 -13.37,-7.97 -20.78,-10.59 -4.82,-1.71 -20.74,-4.72 -26.17,-4.18 -20.55,2.05 -5.38,-1.23 -27.33,4.38 -5.19,2.83 -13.4,4.84 -14.26,11.75 -1.46,11.66 5.84,9.39 -0.65,21.42 -2.42,4.48 -0.1,6.29 -5.46,7.71 -3.72,0.98 -7.94,1.35 -11.46,2.38 -3.47,1.01 -6.5,2.64 -8.68,4.57 -4.75,4.17 -0.8,5.49 -1.65,10.85l-20.05 -0.61c0.44,-3.47 15.7,-19.28 21.18,-38.37 0.97,-3.36 2.09,-8.17 3.62,-10.95 2.2,-4 15.84,-4.84 23.5,-6.6 3.49,-0.8 9.14,-2.93 11.73,-3.12 1.31,-0.9 12.58,-6.17 13.65,-8.72 1.82,-19.2 -29.73,-17.55 -45.4,-18.21 -18.54,-0.78 -17.89,-5.36 -42.25,1.73 -13.02,3.79 -57.75,6.82 -59.74,20.98 -1.04,7.35 11.34,12.39 18.32,13.68 5.88,1.09 26.86,0.67 29.56,2.63 1.02,1.47 0.95,0.89 0.31,3.32l-3.57 9.66c-1.75,4.27 -3.43,8.48 -5.49,12.7 -3.29,6.76 -10.33,17.97 -15.1,21.24 -6.83,-1.17 -25.47,-20.89 -31.37,-25.65 -3.61,-2.91 -4.75,-3.64 -7.76,-6.7l-14.05 -14.88c-2.53,-2.61 -4.49,-4.88 -7.07,-7.39 -6.44,-6.27 -7.41,-7.13 -12.12,-16.16 -4.28,-8.2 -5.79,-11.42 -11.9,-17.04 -5.04,-4.63 -14.05,-7.21 -22.06,-3.16 -11.01,5.57 -8.8,4.42 -14.77,13.97 -6.52,-0.16 -11.96,-4.14 -24.57,-0.6 -8.46,2.37 -13.67,4.1 -17.25,10.53 -5.86,10.54 5.09,21.8 -11.89,41.86 -3.68,-1.17 -33.75,-27.33 -36.35,-30.65 -4.93,-6.27 -8.63,-17.71 -11.68,-21.65 -2.99,-3.86 -5.13,-4.44 -9.61,-7.38 -4.84,-3.17 -5.57,-3.82 -12.78,-4.17 -8.64,-0.42 -18.49,6.73 -22.35,11 -8.14,8.98 -4.42,14.63 1.67,22.84 7.13,9.61 13.09,11.25 14.33,19.5 0.8,5.37 2.06,27.35 0.41,31.96 -2.98,1.21 -23.51,1.89 -30.15,5.63 -3.61,2.03 -4.84,2.67 -4.27,8 5.03,4.8 12.86,2.81 20.58,2.14 10.75,-0.94 9.11,-0.01 13.19,4.23 1.29,1.34 2.07,1.57 3.28,2.85 -7.2,3.67 -37.32,8.7 -51.19,17.11 -10.27,6.23 0.02,16.43 8.62,17.42 15.82,1.81 61.98,-2.72 78.64,-6.89l22.58 -3.25c3.07,-0.29 3.79,-1.22 6.96,-1.54 8.71,-0.88 35.1,-7.13 45.45,-7.36l-3.06 2.39c-7.31,3.78 -20.24,12.27 -12.14,21.6 6.56,7.56 27.39,2.55 36.92,0.49 11.69,-2.53 25.05,-4.76 37.81,-4.88 7.29,-0.07 37.31,-3.56 41.49,-0.5 -0.66,0.52 -0.08,0.31 -1.39,0.68 -1.06,0.3 -1.28,0.26 -2.35,0.36 -3.65,0.35 -9.49,1.96 -10.09,4.63 0.41,3.28 4.91,7.55 7.41,8.16 3.94,0.95 11.28,0.42 15.43,0.11 9.28,-0.68 5.81,-0.99 14.04,-1.78 14.64,-1.4 28.56,-4.19 43.61,-4.89 9.89,-0.46 20.45,-0.74 30.1,-1.88 7.57,-0.89 55.22,-1.54 62.35,-1.54 19.7,0 44.93,-0.91 63.74,1.2 15.32,1.72 75.5,4.15 92.85,3.18 10.92,-0.61 19,-1.88 28.85,-3.35 3.74,-0.56 6.82,-5.91 10.47,-0.84 3.17,4.4 4.01,4.77 9.13,7.24 4.69,2.27 5.77,3.51 12.53,3.58 11.72,0.12 16.16,-1.1 25.2,-7.27 9.71,-6.61 4.62,-13.68 -3.63,-19.09 -6.64,-4.36 -8.83,-2.82 -10.96,-5.47 3.22,-4.13 5.52,-0.19 10.66,-10.25 7.57,-14.81 13.73,-26.44 22.43,-41.05 12.06,-20.25 -9.53,-32.16 -22.24,-34.23 -5.58,-0.91 -13.73,-1.04 -18.14,-3.26 -0.36,-9.46 21.53,-19.06 22.72,-22.78 1.94,-6.02 -6.93,-12.88 -15.97,-11.76 -8,0.99 -19.17,8.52 -25.08,12.13 -9.78,5.97 -16.85,14.51 -20.44,16.86z"/>
   <path class="fil1" d="M472.33 124.3c-3.06,2.16 -11.93,4.38 -15.63,2.26 -2.31,-1.33 -8.25,-6.51 -10.27,-8.58 -3.9,-3.98 -5.55,-5.88 -6.2,-13.24 -0.37,-4.29 -0.39,-14.02 1.14,-17.38 1.55,0.96 30.23,33.95 30.96,36.93zm-232.34 -50.98c1.66,0.65 21.82,18.93 21.92,20.43 -5.17,0.36 -17,-0.26 -22.17,-1.3l0.26 -19.12zm206.69 -17.23c24.34,-3.73 47.36,24.84 41.87,49.95 -3.09,-1.43 -18.78,-20.71 -22.07,-24.47 -3.9,-4.44 -7.04,-8.26 -10.7,-12.56 -2.16,-2.53 -9.6,-9.43 -9.1,-12.92zm-228.43 63.34c1.21,3.33 5.84,3.14 9.76,2.14 3.08,-0.78 4.52,-3.69 6.38,-5.56l2.04 -6.19c8.94,-1.04 35.72,1.89 44.62,3.53 5.69,1.04 20.06,20.26 23.24,25.69 1.68,2.74 1.77,3.55 6.29,3.17 3.06,-0.25 5.76,-1.83 7.81,-2.67l4.08 -5.94c0.87,-1.84 1.38,-1.73 0.59,-3.99 -1.04,-2.96 -1.16,0.15 -1.91,-3.42 2.73,-2.48 6.26,-3.51 10.62,-4.78 13.35,-7.65 38.8,-4.09 54.62,-1.37 8.66,1.49 17.07,4.02 24.55,6.96 6.08,2.39 15.79,7.59 19.75,11.19 5.58,2.39 4.48,2.78 11.3,2.81 4.96,0.02 10.57,-0.12 15.45,0.23 4.79,0.26 11.03,0.01 15.49,-0.6 4.59,-0.63 10.36,-2.64 14.25,-1.98 4.71,0.8 9.67,2.01 15.03,1.14 4.68,-0.76 8.14,-2.87 7.68,-8.06 -1.71,-1.61 -2.45,-1.5 -3.86,-3.65 0.25,-3.76 7.8,-11.59 9.7,-18.73 6.08,-22.89 -8.96,-45.13 -24.94,-55.85 -17.02,-11.42 -52.94,-16.26 -67.94,-5.58 -11.19,7.97 0.24,14.66 -0.02,18.53 -0.99,2.66 -3.63,5.63 -5.19,8.91 -1.62,3.4 -2.18,7.43 -3.52,10.27 -10.18,0.72 -20.35,1.31 -24.7,7.86 0.53,3.37 6.05,8.24 7.78,12.46 -7.77,0.15 -17.61,-1.48 -26.25,-1.65 -9.02,-0.17 -19.11,0.95 -27.7,0.41 0.48,-2.13 0.83,-1.84 2.87,-3.35 12.95,-9.61 29.43,-39.44 30.52,-57.42 -2.85,-1.69 -11.04,0.2 -15.1,0.27 -4.25,0.08 -12.15,-0.48 -15.02,1.48l-1.35 7.44c-1.95,12.24 -7.55,23.4 -13.12,32.27 -3.62,5.76 -16.95,21.98 -21.46,24.12 -6.46,-1.59 -5.61,-8.47 -10.64,-11.07 -5.14,-2.65 -7.94,-6.31 -11.6,-9.75l-22.07 -20.7c-6.9,-6.86 -14.6,-13.73 -21.74,-21.02 -3.39,-3.46 -7.16,-7.01 -10.16,-11.23 -4.53,-6.36 -4.41,-16.53 -17.85,-24.33 -4.5,-2.61 -11.31,4.16 -13.16,6.28 -4.99,5.74 -1.06,9.91 2.04,14.94 2.97,4.81 5.84,8.06 8.61,12.14 3.97,5.84 7.16,26.59 7.41,35.49 0.4,14.29 -2.19,26.97 -3.16,39.16z"/>
   <path class="fil2" d="M421.53 39.33c3.39,-0.07 1.35,-0.3 2.18,0.98 21.95,-5.6 6.78,-2.32 27.33,-4.38 5.43,-0.54 21.35,2.47 26.17,4.18 7.41,2.62 14.86,6.97 20.78,10.59 1.78,1.09 3.4,2.08 5.02,3.17 1.24,0.83 2.93,2.38 4.45,3.09 7.41,3.45 16.5,-10.76 37.7,-6.45 7.86,1.6 10.03,10.55 11.93,19.12 1.8,8.12 3.98,16.55 6.06,24.7 1.08,4.22 2.15,8.39 3.26,12.45 3.62,13.21 0.79,13.82 17.63,10.03 -1.27,-10.5 -24.34,-46.67 -23,-64.75 0.81,-10.89 13.76,-18.63 22.52,-21.38 6.92,-2.17 20.96,-1.68 23.7,8.25l1.61 7.25c0.05,0.14 0.16,0.35 0.2,0.46l0.47 0.86c0.23,-3.39 -1.15,-8.13 1.22,-10.36 1.99,-1.86 7.49,-2.7 5.83,3.5 3.58,-2.34 10.66,-10.89 20.44,-16.86 5.91,-3.61 17.07,-11.14 25.08,-12.13 9.04,-1.12 17.9,5.74 15.97,11.76 -1.19,3.71 -23.08,13.32 -22.72,22.78 4.41,2.22 12.56,2.36 18.14,3.26 12.71,2.07 34.29,13.98 22.24,34.23 -8.7,14.61 -14.86,26.25 -22.43,41.05 -5.15,10.07 -7.44,6.13 -10.66,10.25 2.12,2.65 4.32,1.11 10.96,5.47 8.25,5.41 13.33,12.48 3.63,19.09 -9.05,6.17 -13.49,7.38 -25.2,7.27 -6.76,-0.07 -7.83,-1.3 -12.53,-3.58 -5.12,-2.48 -5.96,-2.84 -9.13,-7.24 -3.65,-5.07 -6.73,0.29 -10.47,0.84 -9.85,1.46 -17.93,2.74 -28.85,3.35 -17.35,0.97 -77.54,-1.46 -92.85,-3.18 -18.81,-2.11 -44.04,-1.2 -63.74,-1.2 -7.13,-0 -54.78,0.65 -62.35,1.54 -9.65,1.14 -20.21,1.42 -30.1,1.88 -15.05,0.7 -28.96,3.49 -43.61,4.89 -8.23,0.79 -4.76,1.1 -14.04,1.78 -4.15,0.31 -11.5,0.85 -15.43,-0.11 -2.5,-0.6 -7,-4.88 -7.41,-8.16 0.6,-2.66 6.44,-4.28 10.09,-4.63 1.08,-0.1 1.3,-0.06 2.35,-0.36 1.31,-0.37 0.73,-0.16 1.39,-0.68 -4.18,-3.07 -34.2,0.43 -41.49,0.5 -12.75,0.12 -26.11,2.35 -37.81,4.88 -9.53,2.06 -30.36,7.07 -36.92,-0.49 -8.1,-9.33 4.83,-17.82 12.14,-21.6l3.06 -2.39c-10.35,0.23 -36.74,6.48 -45.45,7.36 -3.17,0.32 -3.89,1.25 -6.96,1.54l-22.58 3.25c-16.67,4.17 -62.83,8.7 -78.64,6.89 -8.6,-0.98 -18.89,-11.19 -8.62,-17.42 13.87,-8.41 43.99,-13.44 51.19,-17.11 -1.21,-1.29 -1.99,-1.51 -3.28,-2.85 -4.08,-4.24 -2.43,-5.17 -13.19,-4.23 -7.73,0.67 -15.55,2.66 -20.58,-2.14 -0.57,-5.33 0.67,-5.97 4.27,-8 6.64,-3.73 27.18,-4.41 30.15,-5.63 1.65,-4.6 0.39,-26.59 -0.41,-31.96 -1.24,-8.25 -7.2,-9.89 -14.33,-19.5 -6.09,-8.21 -9.8,-13.86 -1.67,-22.84 3.86,-4.26 13.71,-11.41 22.35,-11 7.2,0.35 7.94,1 12.78,4.17 4.49,2.94 6.63,3.52 9.61,7.38 3.05,3.94 6.75,15.38 11.68,21.65 2.61,3.31 32.68,29.48 36.35,30.65 16.98,-20.06 6.04,-31.31 11.89,-41.86 3.57,-6.43 8.78,-8.15 17.25,-10.53 12.61,-3.54 18.05,0.43 24.57,0.6 5.97,-9.55 3.75,-8.4 14.77,-13.97 8.01,-4.05 17.03,-1.47 22.06,3.16 6.11,5.62 7.62,8.84 11.9,17.04 4.71,9.03 5.68,9.89 12.12,16.16 2.58,2.51 4.55,4.78 7.07,7.39l14.05 14.88c3.01,3.06 4.15,3.79 7.76,6.7 5.9,4.76 24.54,24.48 31.37,25.65 4.76,-3.27 11.8,-14.48 15.1,-21.24 2.06,-4.22 3.74,-8.43 5.49,-12.7l3.57 -9.66c0.63,-2.43 0.71,-1.84 -0.31,-3.32 -2.7,-1.96 -23.68,-1.54 -29.56,-2.63 -6.97,-1.29 -19.35,-6.33 -18.32,-13.68 1.99,-14.15 46.73,-17.18 59.74,-20.98 24.37,-7.09 23.71,-2.51 42.25,-1.73 15.67,0.66 47.21,-0.98 45.4,18.21 -1.07,2.55 -12.34,7.82 -13.65,8.72zm78.92 7.64c-5.52,-2.73 -9.81,-4.95 -15.77,-7.49 -16.66,-7.1 -36.22,-5.45 -40.57,-6.61 -0.96,-4.56 0.98,-6.75 -1.8,-11.33 -4.62,-7.62 -20.82,-8.97 -29.33,-10.34 -20.56,-3.32 -31.61,-1.6 -49.55,-3.08l-1.07 0.09c-2.29,-1.73 -2.51,-4.82 -3.98,-8.2 -1.61,0.34 -0.76,-0.14 -1.65,1.25l-2.23 6.56c0.71,-0.41 3.6,-5.46 5.5,-0.48 -1.05,1.5 0.3,0.2 -1.22,1.02l-3.16 0.77c-9.25,1.53 -19.07,4.51 -31.6,6.64 -11.59,1.97 -25.23,4.55 -34.75,9.22 -3.4,1.67 -10.43,7.45 -10.09,11.82 1.12,14.61 37.16,16.98 48.43,17.78 0.95,9.38 -12.25,32.57 -17.65,35.13 -5.46,-2.45 -17.31,-14.53 -22.02,-18.86 -6.93,-6.38 -13.55,-13.02 -20.82,-19.43 -6.95,-6.13 -13.43,-12.52 -18.74,-22.16 -5.99,-10.88 -9.31,-15.94 -17.73,-22.47 -3.96,-3.07 -9.84,-4.69 -16.28,-4.69 -16.12,0 -22.32,10.06 -27.38,13.06 -5.39,3.19 -21.45,0.15 -34.6,6.25 -23.95,11.11 -8.89,24.6 -18.01,41.15 -4.33,-0.74 -25.36,-19.6 -27.65,-22.43 -2.38,-2.94 -11.34,-40.75 -47.3,-33.01 -18.46,3.97 -35.91,16.73 -23.39,35.17 4.33,6.38 12.91,10.98 15.4,17.9 2.65,7.36 2.47,21.57 0.95,29.79 -4.53,3.62 -12.6,3.93 -19,5.42 -24.56,5.71 -14.72,19.14 -2.64,19.88 5.43,0.33 18.57,-1.63 22.38,0.21 -8.21,5.23 -34.13,9.02 -47.24,17.91 -9.34,6.33 -6.82,12.9 2.31,18.46 15.33,9.34 70.65,0.71 87.62,-2.31 9.15,-1.63 49.35,-8.6 56.32,-8.44 -1.66,4.58 -5.52,8 -2.36,14.45 1.89,3.86 4.71,6.48 9.56,8.06 15.6,5.08 44.09,-4.48 62.18,-6.48 8.28,-0.91 25.73,-2.85 33.53,-1.78 0.48,3.2 -1.84,6.75 5.49,11.4 10.97,6.95 32.27,1.39 41.67,0.25 56.75,-6.91 135.63,-10.02 191.33,-6.15l63.52 2.62c37.84,0.42 26.76,0.86 63.6,-2.88 6.65,-0.68 9.14,5.18 24.47,8.85 8.27,1.98 20.14,1.04 28.59,-2.14 5.87,-2.21 18.01,-9.69 17.7,-15.25 -0.26,-4.49 -4.01,-8.75 -6.25,-10.61 -3.32,-2.73 -7.08,-3.79 -9.85,-6.47 0.63,-2.66 2.69,-3.6 4.29,-6.37l10.92 -19.9c12.45,-21.98 27.85,-41.98 3.85,-54.48 -7.14,-3.72 -22.54,-7.87 -31.3,-9.5 2.76,-9.64 24.9,-13.87 24.02,-24.11 -0.84,-9.75 -20.2,-13.87 -34.1,-9.85 -10.91,3.16 -23.13,11.87 -30.35,17.48 -17.61,13.71 -2.13,-2.26 -34.17,-0.82 -15.45,0.69 -25.54,6.68 -32.59,15.18 -2.1,2.53 -2.42,5.16 -6.35,5.44 -11.15,0.78 -16.65,-2.49 -31.73,2.4 -9.52,3.09 -10.19,0.06 -17.38,-3.5z"/>
   <path class="fil1" d="M68.05 99.56l-0.88 4.99c-0.4,2.1 -3.35,10.68 6.61,8.08 2.37,-0.62 4.41,-1.31 6.5,-2.36 4.18,-2.09 6.06,-3.96 8.15,-8.48l1.22 -4.07 3.12 -21.38c2.75,1 8.25,6.51 10.98,8.91 3.38,2.96 6.98,5.61 10.1,8.66 1.6,0.93 2.65,2.28 4.16,3.5 1.78,1.44 2.67,2.05 3.83,3.95 2.2,0.64 2.58,1 3.69,2.92l-1.8 1.78c-0.13,2.97 0.9,3.07 2.47,4.32 11.2,6.31 21.74,4.52 29.6,-3.15 3.27,-3.19 15.56,-21.51 17.69,-22.48 3.71,9.24 11.31,27.49 12.18,38.11l0.23 1.95 0.9 4.07c1.19,4.56 -1.01,8.64 2.44,11.75 2.69,2.42 6.37,3.71 11.31,3.92 7.95,-0.38 14.91,-1.64 18.93,-6.41l-0.97 -9.63 -1.19 -9.07c-2.52,-22.64 -15.83,-45.42 -25.41,-63.88 -6.34,-12.22 0.13,-13.63 -0.56,-24.95 -6.18,-9.59 -41.11,-6.77 -36.98,12.21 1.3,5.98 2.24,6.28 0.2,12.23 -2.73,7.96 -9.62,24.88 -14.41,30.21 -2.13,-0.89 -3.11,-2.67 -4.64,-4.09 -1.53,-1.42 -2.63,-2.17 -4.45,-3.74 -2.77,-2.39 -6.18,-5.23 -9.29,-7.68l-27.54 -23.39c-4.28,-3.52 -5.27,-3.18 -6.98,-10.09 -2.47,-10 -5.98,-15.24 -13.95,-19.29 -14.34,-7.28 -29.94,9.14 -23.33,20.17 10.17,16.97 16.62,5.61 19.28,31.51 0.72,7 0.79,25.2 -1.2,30.9z"/>
   <path class="fil1" d="M591.47 120.37c-3.99,2.08 -11.82,2.64 -16.79,3.02 -9.86,0.74 -12.1,1.94 -13.82,-4.12 -3.7,-13.02 -12.76,-50.66 -16.02,-59.45 -1.14,-3.06 -1.25,-4.22 -4.77,-4.63 -2.6,-0.3 -6.09,0.1 -8.62,0.63 -5.55,1.16 -9.41,3.46 -12.45,6.52 -5.23,5.25 -4.65,4.7 -2.3,13.04l11.99 44.59c3.03,11.59 3.46,20.64 16.4,21.55 10.34,0.73 26.17,-0.7 35.81,-2.36 18.87,-3.26 43.85,-10.25 39.6,-34.87 -1.43,-8.26 -7.24,-19.9 -10.53,-27.2 -3.59,-7.98 -8.68,-18.09 -10.33,-27.32 -1.06,-5.91 1.71,-12.8 -5.06,-13.94 -7.99,-1.34 -24.31,5.45 -25.03,12.39 -2.28,22.02 24.31,61 21.9,72.17z"/>
   <path class="fil3" d="M322.46 133.6c4.66,0.18 21.47,3.16 24.68,5.17l-3.82 0.67c-1.23,0.03 -2.57,-0.01 -3.81,-0 -2.52,0.01 -5.03,0.02 -7.55,0.04 -2.89,0.02 -11.64,0.81 -13.58,0.07 -2.05,0.84 -4.75,2.42 -7.81,2.67 -4.52,0.38 -4.61,-0.43 -6.29,-3.17 -0.2,1.69 0.57,0.26 -0.62,1.32 -7.36,-0.88 -19.26,-0.03 -27.04,0.27 -8.65,0.34 -17.19,0.73 -25.79,1.31 -9.78,0.66 -43.24,4.25 -50.3,3.98 -0.49,-0.93 -1.57,0.32 0.03,-1.37 -4.95,-0.21 -8.63,-1.5 -11.31,-3.92 -3.45,-3.11 -1.25,-7.18 -2.44,-11.75 0.39,8.63 0.71,6.42 -1.97,7.29 -5.01,1.62 -7.07,2.21 -12.06,5.65 -2.73,1.88 -11.6,7.39 -8.48,11.87 4.78,3.38 21.11,1.09 27.06,-0.81 20.63,-6.62 60.19,-7.81 82.36,-8.88 10.58,-0.51 20.12,0.05 30.58,0.14 10.15,0.09 20,-0.48 30.18,-0.21l59.31 1.14c-3.25,2.4 -53.5,4.92 -62.12,5.5 -19.12,1.29 -27.65,2.43 -45.69,5.16l-10.92 1.64c-2.57,0.97 -1.37,-0.51 -1.71,2.35 3.49,1.37 34.2,-3.35 41,-3.95 40,-3.5 91.43,-6.63 130.8,-6.45 29.6,0.14 58.69,3.08 88.03,3.83 15.13,0.39 30.11,0.88 45.28,1.01 7.57,0.06 14.62,-0.48 22,-0.66 8.74,-0.21 13.07,-2.28 20.14,-2.91 -4.55,-2.93 -13.27,-1.02 -19.5,-1.11 -7.34,-0.11 -14.69,-0.32 -22.03,-0.32 -12.51,-0.01 -118.44,-5.94 -121.62,-7.92 -4.88,-0.36 -10.49,-0.22 -15.45,-0.23 -6.82,-0.02 -5.72,-0.42 -11.3,-2.81 -1.67,1.15 -4.9,0.57 -6.92,0.42 -12.11,-0.94 -88.23,-10.39 -92.01,-17.2 -4.36,1.26 -7.9,2.3 -10.62,4.78 0.75,3.57 0.87,0.46 1.91,3.42 0.79,2.25 0.28,2.14 -0.59,3.99z"/>
   <path class="fil4" d="M670.2 20.36c-3.48,-3.08 -5.75,-3.37 -10.95,-1.45 -7.38,2.73 -20.43,11.43 -25.84,16.32 -2.43,2.2 -4.65,4.54 -6.8,7.69 -2.13,3.11 -3.18,6.1 -1.18,10.5 6.05,13.26 34.33,10.02 37.09,18.94 0.81,2.63 -6.78,16.9 -8.39,19.46 -3.8,6.06 -7.93,10.67 -11.46,16.83 -3.64,6.36 -7.58,15.49 0.78,19.1 3.42,1.48 8.8,2.16 12.82,1.5 8.77,-1.44 10.42,-11.78 17.75,-24.46 3.61,-6.25 19.44,-30.37 14.88,-39.37 -2.14,-4.22 -12.36,-8.86 -18.34,-9.94 -6.64,-1.2 -18.83,-2.02 -22.67,-5.67 -6.31,-5.99 3.01,-14.84 6.5,-17.49 5.27,-4 14.68,-8.52 15.8,-11.98z"/>
   <path class="fil0" d="M126.2 110.39c-8.32,-0.75 -26.37,6.08 -33.16,7.46 -3.63,0.74 -7.66,1.69 -11.37,2.7 -6.56,1.79 -37.82,10.58 -40.71,13.82 2.27,5.65 8.89,6.79 14.31,6.48 30.1,-1.72 27.4,-2.28 57.21,-6.6 24.27,-3.52 48.32,-9.2 73.19,-11.38 -0.87,-10.62 -8.47,-28.87 -12.18,-38.11 -2.13,0.98 -14.43,19.3 -17.69,22.48 -7.86,7.67 -18.4,9.46 -29.6,3.15z"/>
   <path class="fil0" d="M234.38 116.02c6.68,-0.11 13.88,-1.69 21.21,-0.93 -5.76,1.88 -13.35,3.79 -18.8,5.77l-18.28 7.65 0.97 9.63c-4.02,4.78 -10.98,6.04 -18.93,6.41 -1.6,1.69 -0.52,0.44 -0.03,1.37 7.06,0.27 40.52,-3.32 50.3,-3.98 8.6,-0.58 17.14,-0.98 25.79,-1.31 7.78,-0.3 19.69,-1.15 27.04,-0.27 1.19,-1.06 0.42,0.38 0.62,-1.32 -3.18,-5.43 -17.55,-24.64 -23.24,-25.69 -8.91,-1.63 -35.69,-4.56 -44.62,-3.53l-2.04 6.19z"/>
   <path class="fil3" d="M423.71 40.31c-0.83,-1.28 1.21,-1.05 -2.18,-0.98 -2.6,0.19 -8.24,2.32 -11.73,3.12 -7.66,1.76 -21.3,2.6 -23.5,6.6 -1.53,2.78 -2.65,7.59 -3.62,10.95 -5.48,19.09 -20.75,34.9 -21.18,38.37l20.05 0.61c0.85,-5.36 -3.1,-6.68 1.65,-10.85 2.19,-1.92 5.22,-3.56 8.68,-4.57 3.53,-1.02 7.74,-1.39 11.46,-2.38 5.36,-1.42 3.04,-3.23 5.46,-7.71 6.49,-12.03 -0.81,-9.76 0.65,-21.42 0.86,-6.91 9.07,-8.92 14.26,-11.75z"/>
   <path class="fil0" d="M331.76 121.41c3.78,6.81 79.9,16.26 92.01,17.2 2.02,0.16 5.25,0.73 6.92,-0.42 -3.96,-3.6 -13.68,-8.8 -19.75,-11.19 -7.48,-2.95 -15.9,-5.47 -24.55,-6.96 -15.82,-2.72 -41.28,-6.28 -54.62,1.37z"/>
   <path class="fil3" d="M609.54 47.5c-0.56,9.01 12.76,34.37 17.05,45.66 2.99,7.85 3.63,13.32 4.68,15.95 1.97,-0.91 0.45,0.28 1.89,-1.77 5.07,-7.19 18.69,-28.25 19.33,-34.55 -8.2,-3.58 -18.5,-4.7 -26.97,-8.8 -3.61,-1.75 -7.88,-5.07 -9.38,-8.82 -3.03,-7.53 -0.96,-8.57 0.44,-14.54 1.66,-6.2 -3.84,-5.37 -5.83,-3.5 -2.38,2.23 -0.99,6.97 -1.22,10.36z"/>
   <path class="fil5" d="M185.9 124.81l-0.23 -1.95c-24.87,2.18 -48.92,7.86 -73.19,11.38 -29.81,4.32 -27.11,4.88 -57.21,6.6 -5.43,0.31 -12.05,-0.83 -14.31,-6.48 2.88,-3.23 34.14,-12.03 40.71,-13.82 3.71,-1.01 7.75,-1.96 11.37,-2.7 6.79,-1.38 24.84,-8.21 33.16,-7.46 -1.58,-1.25 -2.61,-1.35 -2.47,-4.32 -2.39,2.79 -1.86,2.06 -6.02,2.69 -2.39,0.36 -4.76,1.11 -7.02,1.77 -4.53,1.34 -9.09,2.33 -14.07,3.59 -15.83,4.01 -38.9,11.09 -54.51,15.82 -11.07,3.36 -17.28,4.02 -25.34,9.84 -0.57,6.58 0.39,6.37 6.42,6.8 28.88,2.06 134.84,-17.2 162.72,-21.76z"/>
   <path class="fil0" d="M488.55 106.05c5.48,-25.11 -17.53,-53.68 -41.87,-49.95 -0.49,3.49 6.95,10.39 9.1,12.92 3.66,4.3 6.8,8.12 10.7,12.56 3.29,3.75 18.98,23.04 22.07,24.47z"/>
   <path class="fil6" d="M377.26 21.2c2.48,0.94 2.93,2.02 3.13,5.44 5.22,0.26 24.05,-0.87 27.09,0.82 -0.74,2.6 -2.21,2.23 -8.58,3.42 -3.24,0.6 -18.76,4.47 -20.63,1.83 -0.89,-1.26 -1.19,-9.69 -1.01,-11.51zm-0.22 12.85l0.07 9.32c5.34,-2.45 29.03,-4.15 39.29,-8.21 20.4,-8.09 8.59,-16.08 -8.96,-16.56 -5.88,-0.16 -27.56,-0.08 -30.83,-1.26l0.44 16.71z"/>
   <path class="fil0" d="M472.33 124.3c-0.73,-2.98 -29.41,-35.97 -30.96,-36.93 -1.53,3.36 -1.51,13.09 -1.14,17.38 0.64,7.36 2.3,9.26 6.2,13.24 2.02,2.06 7.96,7.25 10.27,8.58 3.69,2.12 12.57,-0.1 15.63,-2.26z"/>
   <path class="fil1" d="M346.42 34.65l0.05 1.52c2.82,1.59 26.2,-0.6 30.57,-2.12l-0.44 -16.71c-6.32,-2.61 -15.34,-0.53 -22,1.29 -12,3.26 -8.6,4.59 -8.18,16.02z"/>
   <path class="fil7" d="M637.89 152.6c0.27,2.56 4.56,5.77 6.72,6.79 3.47,1.64 8.26,1.87 12.48,1.55 12.71,-0.95 25.86,-11.07 9.54,-17.36 -14.62,-5.64 -29.32,3.64 -28.74,9.02z"/>
   <path class="fil3" d="M592.82 143.2c10.55,1.02 20.86,-0.01 31.27,1.69 7.76,1.27 7.81,0.15 12.53,-3.32 5.82,-4.26 9.12,-2.06 9.84,-5.96 -0.14,-0.1 -0.35,-0.18 -0.46,-0.23l-2.97 -0.93c-1.18,-0.29 -2,-0.5 -2.88,-0.84 -8.49,-3.21 -8.36,-8.66 -12.01,-11.32 -3.03,1.88 -4.59,4.45 -7.77,6.8 -17.06,12.59 -20.32,9.87 -26.77,13.54l-0.78 0.56z"/>
   <path class="fil8" d="M345.16 53.13l1.35 -7.44 -0.04 -9.52 -0.05 -1.52c-0.68,1 0.13,-0.56 -0.84,1.51 -0.07,0.16 -0.36,1.13 -0.42,1.54l-19.58 0.18 -9.98 0.28c-2.03,-3.29 1.68,-3.01 -1.39,-4.24 -1.16,-0.47 -4.98,-0.26 -6.38,-0.21 -0.2,1.71 0.64,2.05 -0.13,3.93 -0.69,1.69 0.3,0.81 -1.5,1.34 -3.54,1.05 -0.86,0.12 -1.91,-0.19 -1.93,-4.74 1.83,-3.6 2.31,-4.85 0.08,-0.21 0.33,-0.09 0.52,-0.17l0.53 -4.6 -2.59 0.5c-3.56,0.13 -8.75,3.93 -9.6,7.24 2.9,6.55 13.13,6.76 21.83,7.64 9.02,0.91 26.18,0.28 28.26,0.72 0.44,4.1 0.35,3.97 -0.39,7.88z"/>
   <path class="fil6" d="M305.06 29.65l2.59 -0.5 -0.53 4.6c-0.19,0.08 -0.44,-0.03 -0.52,0.17 -0.48,1.25 -4.23,0.11 -2.31,4.85 1.05,0.31 -1.63,1.25 1.91,0.19 1.8,-0.53 0.81,0.35 1.5,-1.34 0.77,-1.89 -0.07,-2.22 0.13,-3.93 1.4,-0.05 5.22,-0.25 6.38,0.21 3.08,1.23 -0.64,0.95 1.39,4.24l9.98 -0.28c-1.04,-0.95 -2.86,-0.93 -4.27,-0.93 -1.78,0 -3.44,0.06 -5.24,0 1.45,-4.22 9.34,-4.54 13.18,-5.24 3.69,-0.67 12.72,-1.24 15.11,-2.99l-3.5 -6.52c-3.43,-1.87 -26.04,3.34 -31.96,5.42 -0.43,0.15 -1.7,0.58 -1.84,0.65 -2.53,1.19 -0.77,-0.02 -2,1.38z"/>
   <path class="fil0" d="M89.64 97.72c4.25,-0.86 8.65,-0.6 12.94,-1.02 2.1,-0.21 4.12,-0.47 6.18,-0.62 3.69,-0.27 4.71,0.71 5.08,-2.16 -3.11,-3.05 -6.71,-5.7 -10.1,-8.66 -2.74,-2.4 -8.24,-7.91 -10.98,-8.91l-3.12 21.38z"/>
   <path class="fil9" d="M346.47 36.17l0.04 9.52c2.87,-1.96 10.78,-1.4 15.02,-1.48 4.06,-0.07 12.25,-1.96 15.1,-0.27 0.84,0 0.72,0.21 0.47,-0.57l-0.07 -9.32c-4.37,1.51 -27.75,3.71 -30.57,2.12z"/>
   <path class="fil0" d="M239.73 92.45c5.18,1.04 17,1.66 22.17,1.3 -0.1,-1.49 -20.26,-19.77 -21.92,-20.43l-0.26 19.12z"/>
   <path class="fil10" d="M199.9 39.94c-5.08,5.78 7.48,29.55 11.39,31.48 0.43,-6.7 -0.48,-13.34 -2.27,-19.1 -1.07,-3.44 -3.96,-6.3 -6.3,-10.04 -1.47,-2.34 -0.04,-1.77 -2.82,-2.35z"/>
   <path class="fil0" d="M398.9 30.88c6.37,-1.19 7.84,-0.82 8.58,-3.42 -3.04,-1.69 -21.87,-0.57 -27.09,-0.82 -0.21,-3.41 -0.65,-4.5 -3.13,-5.44 -0.18,1.82 0.12,10.26 1.01,11.51 1.87,2.64 17.39,-1.23 20.63,-1.83z"/>
   <path class="fil10" d="M89.64 97.72l-1.22 4.07c5.88,0.27 10.39,-0.8 16.53,-0.74 5.63,0.06 11.27,0.19 16.88,0.32 -1.16,-1.9 -2.05,-2.51 -3.83,-3.95 -1.51,-1.22 -2.56,-2.57 -4.16,-3.5 -0.37,2.87 -1.39,1.88 -5.08,2.16 -2.05,0.15 -4.08,0.42 -6.18,0.62 -4.3,0.42 -8.69,0.17 -12.94,1.02z"/>
   <path class="fil5" d="M234.38 116.02c-1.86,1.87 -3.29,4.78 -6.38,5.56 -3.92,0.99 -8.55,1.19 -9.76,-2.14l-0.93 0 1.19 9.07 18.28 -7.65c5.45,-1.98 13.04,-3.89 18.8,-5.77 -7.33,-0.76 -14.54,0.82 -21.21,0.93z"/>
   <path class="fil10" d="M67.17 104.55l0.88 -4.99c-5.52,0.94 -11.64,1.34 -17.19,1.92 -3,0.31 -13.22,1.47 -14.44,3.95 4.1,1.91 27.39,-2.36 30.74,-0.89z"/>
   <path class="fil0" d="M318.38 139.54c1.94,0.74 10.69,-0.05 13.58,-0.07 2.52,-0.02 5.03,-0.03 7.55,-0.04 1.24,-0 2.59,0.03 3.81,0l3.82 -0.67c-3.21,-2.01 -20.01,-4.99 -24.68,-5.17l-4.08 5.94z"/>
   <path class="fil11" d="M518.36 136.25c-2.29,6.74 2.7,5.58 8.99,5.45 -0.53,-3.51 -3.68,-5.86 -4.79,-8.61 -0.99,-2.45 -0.37,-8.73 -3.84,-10.04 -3.04,5.41 0.49,8.58 1.83,13.2 -2.31,0.76 0.26,-1.19 -2.19,0z"/>
  </g>
 </g>
</svg>
