<?xml version="1.0" encoding="UTF-8"?>
<!DOCTYPE svg PUBLIC "-//W3C//DTD SVG 1.1//EN" "http://www.w3.org/Graphics/SVG/1.1/DTD/svg11.dtd">
<!-- Creator: CorelDRAW -->
<svg xmlns="http://www.w3.org/2000/svg" xml:space="preserve" width="33.8667mm" height="16.9334mm" version="1.1" style="shape-rendering:geometricPrecision; text-rendering:geometricPrecision; image-rendering:optimizeQuality; fill-rule:evenodd; clip-rule:evenodd"
viewBox="0 0 100.64 50.32"
 xmlns:xlink="http://www.w3.org/1999/xlink"
 xmlns:xodm="http://www.corel.com/coreldraw/odm/2003">
 <defs>
  <style type="text/css">
   <![CDATA[
    .fil0 {fill:black}
    .fil2 {fill:lime}
    .fil1 {fill:white}
   ]]>
  </style>
 </defs>
 <g id="Camada_x0020_1">
  <metadata id="CorelCorpID_0Corel-Layer"/>
  <g id="_2482594559456">
   <path class="fil0" d="M80.62 19.14c1.39,-0.05 2.69,0.56 3.2,1.7 0.02,0.04 0.03,0.07 0.04,0.1 0.33,-0.21 0.7,-0.39 1.1,-0.53 1.18,-0.41 2.44,-0.38 3.63,-0.01 1.25,0.39 2.21,1.06 2.96,1.9 0.02,-0.12 0.04,-0.23 0.07,-0.35 0.24,-1.25 0.53,-2.41 1,-3.62 0.28,-0.73 0.59,-1.38 1.33,-1.87 1.2,-0.79 2.67,-0.6 4.03,-0.28 0.32,0.07 0.62,0.16 0.92,0.28 0.32,0.13 0.55,0.24 0.81,0.43 0,0 0.01,0.01 0.01,0.01 0.61,0.34 0.94,0.88 0.92,1.49 -0.05,1.73 -0.92,2.84 -1.61,4.37 -0.87,1.92 -1.32,3.77 -1.79,5.78 -0.16,0.71 -0.26,1.47 -0.34,2.19 -0.08,0.66 -0.16,1.38 -0.16,2.05 0,0.63 -0.08,1.17 -0.22,1.78 -0.05,0.23 -0.11,0.46 -0.13,0.7 -0.04,0.4 -0.24,0.77 -0.54,1.04 1.67,1 3.07,2.51 3.07,3.85l0 0.58c0,1.61 -1.94,3.01 -3.8,3.01 -0.83,0 -1.74,-0.24 -2.51,-0.5 -0.71,-0.24 -1.25,-0.54 -1.85,-0.93 -1.34,-0.86 -2.42,-2.26 -2.42,-3.72 0,-0.87 0.33,-1.62 0.89,-2.19 -0.29,0.11 -0.6,0.19 -0.93,0.23 -0.81,0.1 -1.62,0.02 -2.36,-0.27 -1.48,-0.57 -2.32,-1.68 -2.9,-2.92 -0.12,0.12 -0.25,0.23 -0.38,0.35 -0.3,0.26 -0.62,0.5 -0.94,0.75 -0.06,0.05 -0.15,0.12 -0.23,0.18 0.2,0.64 0.22,0.97 0.22,1.64 0,0.53 -0.24,0.98 -0.72,1.32l-0.37 0.27c-0.39,0.28 -0.83,0.42 -1.34,0.43 -1.69,0.01 -3.42,-0.86 -3.88,-2.27 -0.06,-0.01 -0.11,-0.03 -0.17,-0.04 -0.73,-0.19 -1.29,-0.5 -1.89,-0.89 -0.41,-0.27 -0.75,-0.59 -1.04,-0.94l-0.36 0.35c-0.06,0.06 -0.13,0.12 -0.19,0.19 0.03,0.1 0.06,0.2 0.08,0.28 0.24,0.89 0.24,1.54 -0.45,2.28l-0.28 0.32c-0.36,0.41 -0.86,0.66 -1.44,0.71 1.34,0.34 2.68,0.7 4,1.08 1.76,0.5 3.53,1.02 5.25,1.62 0.36,0.13 0.94,0.41 1.31,0.48 0.95,0.19 1.6,0.88 1.6,1.71 0,0.98 -0.51,2.09 -1.41,2.72 -1.71,1.21 -5,0 -6.8,-0.6 -1.24,-0.41 -2.53,-0.93 -3.78,-1.28 -0.51,-0.14 -1.01,-0.28 -1.51,-0.42 0.31,0.76 0.24,1.59 -0.42,2.24 -0.49,0.48 -1.19,0.72 -1.92,0.72 -2.03,0 -2.79,-0.38 -4.53,-1.12 -0.22,-0.09 -0.67,-0.25 -1.14,-0.38 0.03,0.07 0.06,0.14 0.08,0.21 0.34,0.95 0.43,1.95 0.43,2.93 0,1.28 -1.06,2.04 -2.52,2.03 -0.3,-0 -0.99,-0.13 -1.31,-0.21 -1.83,-0.44 -3.35,-1.28 -5.12,-1.76 -1.31,-0.36 -2.68,-0.8 -4.02,-1.05 -1.89,-0.35 -3.71,-0.57 -5.63,-0.76 -1.22,-0.12 -2.43,-0.25 -3.64,-0.42 -1.29,-0.18 -2.7,-0.19 -3.83,-0.82 -0.75,-0.42 -1.08,-1.17 -0.85,-1.91 0.1,-0.32 0.26,-0.62 0.49,-0.9 0.09,-0.11 0.19,-0.22 0.3,-0.32 -2.48,-0.05 -4.94,0.14 -7.13,0.74 -1.06,0.29 -2,0.67 -2.96,1.16 -0.84,0.43 -1.67,0.94 -2.69,0.94 -2.07,0 -2.98,-1.27 -3.14,-2.84 -0.15,-1.46 0.73,-2.08 2.04,-2.79 0.97,-0.53 2.31,-1.04 3.5,-1.38 -1.37,-0.14 -2.2,-0.77 -3.08,-1.72 -0.28,-0.3 -1.05,-0.74 -1.43,-0.98 -0.36,-0.23 -1.21,-0.74 -1.97,-1.11 -0.04,0.1 -0.07,0.19 -0.11,0.26 -0.71,1.5 -2.55,2.75 -4.54,2.11 -1.91,-0.61 -2.27,-2.4 -1.8,-3.89 0.21,-0.68 0.52,-0.94 0.89,-1.47 -0.01,-0.07 -0.04,-0.15 -0.05,-0.21 -0.06,-0.22 -0.11,-0.43 -0.13,-0.63 -0.49,0.19 -1,0.35 -1.55,0.49 -0.13,0.03 -0.26,0.06 -0.4,0.08 0.04,0.36 0.12,0.74 0.15,1.03 0.18,1.45 0.14,3.02 -1.28,4.05 -1.46,1.06 -3.97,0.79 -5.2,-0.42 -0.17,-0.17 -0.32,-0.35 -0.44,-0.55 -0.71,-1.1 -0.52,-2.34 -0.23,-3.52 0.04,-0.18 0.11,-0.4 0.17,-0.63 -0.15,-0.11 -0.29,-0.24 -0.42,-0.39 -0.76,-0.84 -0.78,-1.84 -0.37,-2.8 0.3,-0.7 0.63,-1.09 1.25,-1.5 0.1,-0.4 0.13,-1.12 0.14,-1.67 -0.69,0.04 -1.41,-0.11 -2.05,-0.41 -0.58,-0.28 -1.06,-0.68 -1.39,-1.18 -1,-1.53 -0.22,-3.31 1.02,-4.55 1.45,-1.45 3.6,-2.38 5.76,-2.81 2.71,-0.54 6.21,-0.7 8.65,0.58 1.3,0.68 2.26,1.9 2.65,3.14 0.18,0.56 0.23,1.13 0.23,1.69 0.8,-0.11 1.6,-0.19 2.41,-0.19 0.72,-0 1.43,0.05 2.12,0.19 -0.17,-0.39 -0.26,-0.83 -0.27,-1.3 -0,-0.15 0.01,-0.3 0.03,-0.46 -0.45,0.08 -0.93,0.08 -1.42,-0.05 -0.52,-0.13 -0.81,-0.33 -1.23,-0.57 -0.59,-0.33 -0.92,-0.85 -0.92,-1.45 0,-1.31 0.26,-1.89 1.36,-2.83 0.63,-0.54 1.2,-0.8 1.99,-1.11 0.07,-0.03 0.14,-0.06 0.21,-0.09 0.12,-0.46 -0.06,-1.51 -0.13,-1.88 -0.21,-1.02 -0.54,-1.97 -0.8,-2.97 -0.21,-0.82 -0.48,-1.57 -0.56,-2.41 -0.16,-1.74 0.31,-3.77 2.59,-4.31 1.26,-0.3 2.89,0.06 3.77,0.9 0.68,0.65 0.99,1.45 1.19,2.28 0.01,0.05 0.02,0.11 0.04,0.17 0.74,-0.55 1.61,-1.34 1.95,-1.63 1.55,-1.37 3.99,-3.79 6.51,-3.2 0.28,0.07 0.55,0.17 0.8,0.3 0.29,0.16 0.55,0.36 0.75,0.61 0.12,0.14 0.21,0.29 0.29,0.45 0.54,-0.04 1.09,-0.02 1.64,0.06 3.23,0.48 4.87,2.43 5.88,4.7 0.44,-0.49 0.91,-0.96 1.4,-1.41 1.31,-1.19 3.18,-2.48 5.25,-2.14 1.19,0.19 2.03,0.86 2.58,1.7 0.51,-0.54 1.2,-1.11 1.78,-1.5 3.9,-2.57 9.15,-1.8 11.22,2.12 0.83,1.57 1.11,2.66 1.21,4 0.57,0.25 1.01,0.67 1.37,1.14 0.09,-0.16 0.21,-0.32 0.36,-0.49 0.43,-0.46 1.01,-0.77 1.68,-0.92 0.24,-0.05 0.46,-0.07 0.71,-0.05 0.16,0.01 0.31,0.03 0.45,0.05 0.78,-0.41 1.73,-0.62 2.61,-0.57 2.71,0.16 4.06,2.31 4.62,4.3 0.56,1.97 0.02,4.99 -1.58,6.69z"/>
   <path class="fil1" d="M55.97 39.01c5.59,1.17 9.11,1.9 14.52,3.43 1.92,0.54 7.61,2.89 8.59,2.2 0.41,-0.29 0.66,-0.92 0.66,-1.38 -0.56,-0.11 -1.13,-0.4 -1.62,-0.57 -2.71,-0.94 -7.45,-2.27 -10.29,-2.94 -0.27,-0.06 -0.54,-0.16 -0.88,-0.23 -2.82,-0.59 -4.95,-1.16 -8.03,-1.75 -4.41,-0.85 -6.33,-1.01 -10.74,-1.01 -1.89,0 -1.88,0.2 -1.64,1.67 0.05,0.34 0.03,0.69 0.03,1.04 -3.41,0 -3.09,-0.2 -6.41,-0.69l-3.8 -0.28c-3.67,-0.09 -7.74,0.26 -10.86,1.01 -1.14,0.27 -2.7,0.86 -3.58,1.33 -0.88,0.48 -1.16,0.59 -1.1,1.17 0.07,0.72 0.24,1.23 1.08,1.23 1.41,0 5.02,-4.69 20.76,-2.03 2.94,0.5 3.1,0.73 5.5,1.46 0.8,0.24 1.34,0.25 1.51,0.76 -1.2,0.54 -3.03,-0.01 -4.77,-0.23 -1.44,-0.19 -8.32,-1.51 -9,0.62 0.64,0.36 2.21,0.44 3.02,0.55 3.33,0.47 5.34,0.45 9.37,1.2 1.29,0.24 2.87,0.73 4.21,1.09 2.06,0.56 3.2,1.3 5.05,1.74 0.08,0.02 0.76,0.14 0.77,0.14 0.31,0 0.42,-0 0.42,-0.28 0,-2.98 -1.03,-3.17 -1.03,-4.36 0,-1.73 4.18,-0.17 4.67,0.03 1.58,0.67 2,0.94 3.6,0.94 0.82,0 0.57,-1.14 -1.13,-1.86l-3.58 -1.34c-1.81,-0.61 -2.63,-0.97 -4.7,-0.97 -2.86,0 -1.03,3.52 -1.03,4.46 -0.93,0 -2.75,-0.14 -2.75,-0.97 0,-0.75 0.21,-1.1 -0.05,-1.8 -0.36,-0.96 -1.84,-1.68 -2.31,-2.9 -0.16,-0.42 -0.08,-0.34 -0.04,-0.73 0.43,-0.08 0.86,-0.19 1.38,-0.19 1.13,0 3.12,0.18 4.22,0.41zm34.44 -0.41c0,0.98 0.92,1.89 1.6,2.33 0.43,0.27 0.79,0.5 1.36,0.69 0.39,0.13 1.18,0.37 1.74,0.37 0.74,0 1.72,-0.66 1.72,-1.26l0 -0.58c0,-1.13 -2.83,-3.2 -4.36,-3.2 -1.27,0 -2.07,0.64 -2.07,1.65zm3.9 -3.49c0.08,-0.85 0.35,-1.26 0.34,-2.32 -0.01,-1.11 0.32,-3.62 0.54,-4.58 0.51,-2.2 0.93,-3.95 1.88,-6.06 0.49,-1.09 1.44,-2.42 1.48,-3.79 -0.3,-0.17 -0.18,-0.16 -0.55,-0.31 -0.19,-0.07 -0.35,-0.12 -0.59,-0.18 -2.15,-0.5 -2.41,-0.1 -2.83,1.01 -0.82,2.14 -0.89,3.5 -1.34,5.36 -0.08,0.34 -0.05,0.65 -0.11,1.07 -0.28,1.78 -0.47,2.88 -0.54,4.67 -0.03,0.76 -0.12,1.21 -0.12,2.04 0,1.26 -0.12,3.1 1.84,3.1zm-8.72 -9.59c0,-1.52 2.07,-2.49 3.25,-0.13 1.08,2.16 0.46,6.75 -1.18,7.68 -0.58,-0.42 -0.85,-1.02 -1.13,-1.66 -1.55,-3.51 0.56,-2.2 0.56,-3.57 0,-0.81 -0.52,-1.16 -1.49,-1.16l0 -1.16zm-2.41 1.36c-0.09,0.76 -0.01,1.76 0.34,2.33 0.39,0.24 0.12,-0.03 0.29,0.44 0.62,1.7 1.37,5.63 4.18,5.27 2.37,-0.3 4.8,-6.54 2.61,-10.52 -0.58,-1.06 -1.41,-1.94 -2.73,-2.35 -2.98,-0.92 -4.87,1.89 -4.69,4.83zm-6.88 -13.95c0,-1.87 1.44,-2.24 2.28,-0.57 0.56,1.12 0.34,2.57 0.05,3.7 -0.1,0.38 -0.13,0.49 -0.31,0.8 -0.17,0.29 -0.26,0.45 -0.64,0.53 -0.49,-0.3 -1.03,-1.57 -1.03,-2.33 0,-0.8 0.69,-0.39 0.69,-0.97 0,-1.27 -1.03,-0.69 -1.03,-1.16zm-18.59 0.48c0,-1.01 0.29,-2.98 1.06,-3.66 0.35,-0.31 0.64,-0.36 1.02,-0.59 0.75,-0.45 0.68,-1.37 0.92,-2.23 0.3,-1.08 1.95,-1.69 3.28,-0.84 1.62,1.04 1.42,2.91 1.42,4.52 0,4.45 -4.29,8.27 -6.45,6.8 -1.12,-0.76 -1.24,-2.66 -1.24,-3.99zm-19.62 -4.65c0,-2.7 2.05,-3.47 3.65,-2.01 2.5,2.28 1.83,8.07 0.33,10.6 -0.17,0.28 -0.73,1.1 -1.11,1.1 -0.78,0 -1.76,-2.77 -1.98,-3.56 -0.09,-0.31 -0.22,-0.72 -0.31,-1.1 -0.38,-1.53 1.49,-0.9 1.49,-2.41 0,-0.63 -0.12,-1.02 -0.66,-1.38 -1.07,-0.72 -1.41,0.47 -1.41,-1.23zm7.57 8.53c0,-1.93 2.16,-5.12 3.33,-6.78 0.67,-0.95 1.87,-2.74 3.21,-3.01 0.14,0.22 0.34,0.64 0.34,0.97 0,0.69 -0.99,3.32 1.08,3.55 0.89,0.1 0.69,-0.67 1.33,-1.03 0,0.84 -0.12,1.29 -0.12,2.13 0,0.74 0,1.49 0,2.23 -1.66,0.12 -6.03,3.34 -8.26,3.78 -0.94,-0.53 -0.92,-0.98 -0.92,-1.84zm31.54 1.45l0.84 0c0.28,-0.2 0.37,-0.2 0.64,-0.41 1.48,-1.14 1.91,-4.01 1.5,-5.48 -1.23,-4.35 -4.51,-2.88 -4.8,-1.96 -0.67,-0.15 -0.3,-0.43 -1.03,-0.48 -1.13,0.26 -0.81,1.37 -0.92,2.51 -0.1,0.98 -0.22,2.04 -0.22,3.11 -0.53,-0.12 -0.61,-0.54 -1.03,-1.26 -0.29,-0.49 -0.53,-0.98 -0.87,-1.49 -0.42,-0.63 -1.24,-2.69 -2,-2.77 -0.6,0.12 -0.49,0.24 -0.92,0.48 0,-2.56 -0.08,-3.4 -1.08,-5.29 -1.5,-2.83 -5.17,-3.35 -8.05,-1.45 -0.52,0.34 -1.28,0.98 -1.63,1.43 -0.32,0.4 -1.02,1.42 -1.4,1.63 -0.41,-0.25 -0.11,-0.28 -0.66,-0.51 -0.97,-0.41 -0.46,-0.15 -1.01,-1.28 -1.61,-3.3 -5.64,1.3 -6.75,2.72 -0.31,0.39 -1.27,1.79 -1.68,1.88 -0.74,-2.67 -1.63,-6.33 -5.39,-6.88 -1.98,-0.29 -2.82,0.63 -3.56,0.68 0.04,-0.42 0.81,-1.68 0.13,-2.05 -2.01,-1.09 -6.56,5.46 -8.96,5.35 -1.43,-0.07 -0.84,-2.52 -1.96,-3.59 -0.45,-0.43 -3.05,-1.27 -2.74,2.12 0.07,0.74 0.34,1.47 0.52,2.18 0.32,1.25 1.89,5.47 0.35,6.51 -0.71,0.48 -1.36,0.46 -2.19,1.16 -0.72,0.61 -0.76,0.76 -0.76,1.59 0.58,0.33 0.85,0.65 1.86,0.02 0.59,-0.38 1.02,-0.84 1.82,-0.7 0.36,1.32 -0.14,2.13 -0.12,3.2 0.01,1.23 0.86,1.78 2.01,1.11 1.93,-1.13 -0.15,-4.12 0.82,-5.8 0.25,-0.42 1.79,-1.34 2.38,-1.48 0.6,-0.13 1.39,0.08 1.94,-0.1 1.05,-0.34 1.42,-3.14 -1.65,-1.97 -0.48,0.18 -0.88,0.38 -1.34,0.61 -0.35,0.18 -1.06,0.57 -1.41,0.65 -0.37,-0.47 -0.5,-1.87 -0.46,-2.41 0.15,-2.1 1.44,-0.34 4.1,-2.17 0.35,-0.24 0.62,-0.41 0.97,-0.64 0.39,-0.25 0.56,-0.4 1.25,-0.4 0,1.08 -0.11,1.76 0.54,2.35 0.51,0.46 0.5,0.19 0.49,1.04 -0.02,2.43 0.77,2.49 1.06,3.47 0.66,2.23 1.08,4.27 2.97,6.21 2.09,2.15 3.85,0.1 4.35,-0.18 0.4,0.09 0.32,0.13 0.6,0.36 0.21,0.17 0.42,0.3 0.66,0.41 1.52,0.74 2.92,0.14 4.26,-0.37 1.39,-0.54 3.74,-1.81 5.19,-2.21 0.37,-0.1 0.61,-0.09 0.94,-0.18 0.59,-0.16 0.12,-0.23 0.86,-0.24 0.12,0.44 0.77,1.45 1.08,1.8 2.05,2.29 4.79,1.19 6.74,-0.14 2.1,-1.43 3.75,-3.67 4.47,-5.91 0.1,-0.3 0.19,-0.93 0.33,-1.17 0.42,0.1 0.33,0.14 0.48,0.56 0.98,2.82 -1.67,5.73 1.24,5.73 0.27,-0.44 0.4,-0.63 0.46,-1.26 0.05,-0.58 0.12,-0.87 0.12,-1.55 0.66,0.15 2.08,2.29 2.46,2.77 0.42,0.53 0.74,0.92 1.18,1.43 0.48,0.55 1.01,0.84 1.99,0.65 0.17,-0.61 0.01,-0.93 -0.24,-1.44l-0.74 -1.21c-0.52,-0.97 -0.51,-1.89 -0.51,-3.25 0.87,0.2 0.36,1.53 1.62,3.18 0.34,0.45 0.6,0.47 0.88,0.79zm-50.58 6.98c0,-0.75 0.68,-1.74 1.61,-1.74 1.43,0 2.16,1.93 2.28,2.92 0.2,1.62 -0.1,5.28 -1.7,6.19 -0.39,-0.31 -0.69,-0.73 -0.91,-1.17 -1.94,-4.05 0.33,-2.55 0.33,-4.06 0,-1.43 -1.14,-0.79 -1.48,-1.47 -0.06,-0.12 -0.13,-0.49 -0.13,-0.66zm25.82 -0.48c0,1.13 -1.84,2.4 -2.67,2.97 -0.44,0.3 -2.63,1.47 -3.13,1.24 -0.4,-0.19 0.43,-2.41 0.58,-3.1 0.23,-1.01 -0.62,-1.35 0.71,-1.82 1.16,-0.41 4.52,-0.65 4.52,0.71zm-34.42 0.48c0,-0.41 -0.21,-0.52 0.03,-0.84 0.54,-0.7 3.94,-0.92 4.86,-0.29 1.02,0.71 -0.36,2.09 -1.01,2.65l-1.3 0.94c-0.65,0.41 -2.22,1.3 -3.26,1.31 0,-0.86 0.11,-1.04 0.34,-1.84 0.26,-0.91 0.34,-1.01 0.34,-1.94zm-10.33 -5.72c0.36,-0.07 0.39,-0.13 0.74,-0.25 5.48,-1.89 7.63,2.56 3.71,5.85 -0.73,0.61 -2.09,1.87 -3.41,1.87 -0.82,0 -0.08,-4.38 -0.16,-4.9 -0.05,-0.29 -0.07,-0.68 -0.14,-0.96 -0.08,-0.33 -0.19,-0.61 -0.36,-0.86 -0.19,-0.29 -0.34,-0.35 -0.38,-0.74zm56.04 12.79c0.02,-0.7 -0.09,-0.75 -0.51,-1.07 -0.58,-0.11 -0.53,-0.31 -1.1,-0.44 -0.9,-0.19 -0.33,0.47 -3.59,0.74 -1.01,0.08 -2.08,0.33 -1.46,-0.94 1.2,-2.48 2.77,-0.52 4.28,-1.43 0.36,-0.22 1.2,-1.08 0.54,-1.64 -0.66,-0.56 -1.58,0.03 -2.56,-0.07 -1.08,-0.11 -0.54,-1.13 -0.12,-1.65 1.2,0 3.2,0.62 5.11,0.19 0.2,-0.34 0.13,-0.13 -0.25,-0.79 -0.35,-0.61 -0.04,-0.59 -0.35,-0.96 -2.92,0 -4.82,-0.41 -6.62,-1.41 -0.77,-0.43 -2.39,-1.01 -2.49,0.35 -0.09,1.18 1.2,1.29 1.92,1.78 0.91,0.61 0.36,1.98 -0.65,2.09 -0.76,0.08 -1.29,-0.1 -1.75,0.27 -0.48,0.38 -0.39,0.84 0.1,1.14 1.55,0.95 1.9,0.01 0.42,3.18 -0.2,0.42 -0.22,0.9 -0.84,0.94 -0.12,-0.38 -0.49,-0.78 -0.94,-0.85 -1.44,-0.25 -1.19,0.28 -3.1,-0.68 -0.44,-0.22 -0.87,-0.35 -1.01,-0.79 0.99,-1.14 5.68,-2.26 5.75,-5.62 0.07,-3.62 -6.5,-2.48 -8.71,-2.01 -4.98,1.05 -2.94,2.21 -4.49,2.79 -0.32,0.12 -0.7,0.24 -1.08,0.35 -1.33,0.38 -3.4,0.68 -4.46,1.46 -0.27,0.2 -0.62,0.46 -0.66,0.81 -0.05,0.47 0.26,0.66 0.61,0.74 0.99,0.24 1.61,-0.14 2.27,-0.46 3.45,-1.7 2.92,1.54 0.89,3.27 -0.54,0.45 -1.13,0.79 -1.92,0.99 -3.2,0.83 -4.89,-0.87 -3.15,-3.53 0.73,-1.11 1.66,-1.98 2.61,-2.93 0.27,-0.27 0.55,-0.39 0.86,-0.63 1.63,-1.27 2.33,-0.69 3.31,-1.08 1.43,-0.58 1.6,-2.76 -1.56,-1.7 -1.16,0.39 -1.93,0.94 -2.87,1.55 -0.31,0.2 -0.49,0.36 -0.78,0.6 -0.3,0.25 -0.46,0.46 -0.74,0.73 -0.24,0.23 -0.43,0.47 -0.65,0.71 -0.58,0.65 -0.88,1.31 -1.39,1.34 0,-2.85 -1.67,-6.98 -5.4,-6.11 -1.54,0.36 -1.54,1.19 -2.29,1.65 -0.28,-0.16 -0.4,-0.3 -0.71,-0.47 -2.41,-1.34 -6.31,-0.14 -7.55,-0.11 0,-0.96 0.21,-2.39 -0.09,-3.32 -0.28,-0.88 -0.96,-1.69 -1.75,-2.11 -1.8,-0.95 -4.69,-0.84 -7.08,-0.37 -4.95,0.98 -6.86,4.34 -4.85,5.31 0.48,0.23 1.12,0.3 1.52,-0.08 0.2,-0.2 0.7,-0.84 0.78,-1.09l0.34 0c0.11,0.4 0.24,0.76 0.31,1.19 0.09,0.5 0.15,0.78 0.15,1.33 -0.02,4.65 -0.86,2.8 -1.52,4.34 -0.49,1.15 0.36,1.37 1.05,1.76 0,1.31 -1.18,3.36 -0.14,4.38 0.42,0.41 1.62,0.7 2.27,0.23 1.23,-0.89 0.28,-3.25 0.39,-4.52 0.08,-0.95 1.05,-0.79 1.92,-1 2.02,-0.49 3.41,-1.44 4.54,-2.75 1.58,-1.82 1.29,-0.02 1.08,1.11 -0.12,0.63 -0.16,1.54 -0.85,1.9 -1.07,0.55 -0.35,1 -0.38,1.91 -0.02,0.75 -0.74,1.08 -0.97,1.8 -0.69,2.17 1.57,2.48 2.41,0.68 0.31,-0.66 0.39,-1.22 0.85,-1.8 1.26,0 3.37,1.23 4.41,1.9 0.59,0.38 1.37,0.83 1.8,1.29 0.56,0.6 1,1.08 2.05,1.08 0.3,-0.38 0.43,-0.4 0.47,-1.07 0.02,-0.43 -0.08,-0.84 -0.19,-1.2 -0.73,-2.26 -1.78,-1.68 -2.51,-1.76 -1.11,-0.12 -2.51,-0.77 -3.16,-1.4 0.48,-0.6 1.75,-1.17 2.48,-1.59 0.61,-0.36 1.33,-0.72 1.78,-1.21 0.26,-0.29 0.09,-0.3 0.56,-0.4 0,0.84 0.12,0.89 0.41,1.49 0.66,1.36 0.86,2.83 1.65,4.13 2.23,3.64 4.34,0.37 4.82,0.1 1.03,1.64 1.91,1.59 3.9,1.55 0.66,-0.01 2.78,-0.42 2.93,-0.35 0.37,0.18 -0.72,2.36 0.19,3.23 0.63,0.6 2.36,0.53 2.56,-1.2 0.21,-1.79 -1.46,-0.55 -0.33,-2.9 0.26,-0.54 0.5,-0.96 0.72,-1.42 0.23,-0.48 0.4,-0.92 0.6,-1.43 1.18,-2.95 0.3,-1.93 2.43,-4.83 0.25,-0.34 0.12,-0.31 0.66,-0.41 0.21,0.76 -0.07,1.91 -0.24,2.7 -0.37,1.72 -1.24,0.76 -1.26,1.94 -0.01,0.58 0.23,0.91 0.09,1.42 -0.25,0.92 -0.93,0.77 -0.89,2.27 0.02,0.72 0.15,0.66 0.47,1.06 1.08,0 1.53,-0.31 1.91,-1.1 0.17,-0.36 0.27,-0.67 0.4,-1.02 0.32,-0.83 0.19,-0.63 0.56,-0.79 0.22,-0.09 0.41,-0.03 0.64,0.04 2.22,0.67 4.12,1.9 5.76,3.28 0.37,0.31 1.51,1.4 2.08,0.55 0.37,-0.55 -0.26,-0.83 0.58,-1.06 1.65,-0.45 1.6,-1.06 3.66,-1.27 0.5,-0.05 0.96,-0.1 1.63,-0.08 0.72,0.02 0.86,0.16 1.42,0.26 1.11,0.2 1.61,-0.55 2.06,-1.03z"/>
   <path class="fil2" d="M69.31 31.63c-0.29,-0.46 -0.24,-0.48 -0.23,-1.16 0.01,-0.62 -0.51,-3.2 0.57,-3.2 1.37,0 1.61,0.87 1.61,1.74 0,0.9 -0.83,2.54 -1.95,2.62zm-1.06 4.65c0.4,0.19 0.63,0.33 1.19,0.35l0.3 -0.35c0.16,-0.17 0.25,-0.19 0.08,-0.81 -0.39,-1.4 -0.3,-1.13 0.55,-1.99l1.78 -1.74c0.57,-0.46 0.24,-0.55 0.83,-0.68 0.33,0.59 0.49,2 1.65,2.77 1.04,0.69 1.24,0.54 2.21,0.85 0.57,0.18 0.42,0.38 0.53,0.91 0.14,0.64 1.06,1.07 1.9,1.07l0.37 -0.27c0,-0.67 0.01,-0.68 -0.16,-1.22 -0.61,-1.95 1.97,-1.64 3.54,-5.03 0.41,-0.9 0.08,-0.76 0.52,-0.91 -0.36,-0.57 -0.44,-1.56 -0.34,-2.33 -0.25,0.1 -0.04,0.03 -0.34,0.1 -0.29,-1.1 -1.98,-1.57 -3.32,-1.75 -0.88,-0.12 -0.95,-0.53 -0.74,-1.48 0.2,-0.87 0.59,-0.75 1.63,-0.85 2.15,-0.2 1.87,-2.17 0.17,-2 -1.66,0.17 -1.64,0.17 -1.81,-0.56 -0.36,-1.53 -0.61,-1.05 -0.73,-1.6l-0.84 0c-0.33,0.44 -0.82,0.11 -0.73,1.16 0.03,0.27 0.29,0.49 0.29,1.45 -1.27,0.57 -2.03,0.88 -2.75,1.94 -0.69,1.01 -0.7,2.42 0.31,3.23 1.37,1.08 2.41,-0.05 2.56,2.1l0.12 1.84c0.01,0.79 -0.12,1.26 -0.12,1.94 -0.67,-0.01 -0.83,-0.34 -1.1,-0.72 -0.18,-0.25 -0.57,-0.89 -0.58,-1.14 -0.02,-0.48 0.49,-0.75 -0.22,-1.1 -0.69,-0.34 -0.8,0 -1.43,0.04 -0.08,-0.31 0.01,-0.63 0.01,-1.17 -0.01,-0.97 -0.72,-1.96 -1.58,-2.47 -0.65,-0.38 -1.5,-0.52 -2.34,-0.61 -0.59,-0.07 -0.63,-0.1 -0.68,-0.69 -0.18,-2.24 1.5,-1.41 2.45,-1.8 0.65,-0.27 1.05,-1.08 0.43,-1.6 -0.76,-0.64 -1.69,0.07 -2.49,-0.22 -0.59,-0.22 -0.26,-1.3 -0.88,-1.8 -0.59,-0.41 -0.72,-0.39 -1.43,-0.1 -0.81,0.43 -0.05,1.54 -0.03,2.33 -0.99,0.44 -1.49,0.5 -2.16,1.27 -0.62,0.71 -0.99,1.05 -1.13,2.12 0.31,0.36 -0,0.35 0.35,0.96 0.38,0.66 0.46,0.45 0.25,0.79 0.41,0.04 0.3,0.09 0.65,0.3 1.18,0.71 1.69,0.06 1.93,0.77 0.21,0.61 0.23,2.27 0.23,3.1 0,1.02 0.19,2.93 -1,1.23 -1.49,-2.13 0.04,-1.93 -0.87,-2.3 -0.12,-0.09 -0.16,-0.13 -0.32,-0.24l-0.46 0c-0.44,0.19 -0.45,0.31 -0.77,0.53l-0.28 0.37c-0.19,0.45 -0.08,1.08 0.03,1.47l-0.23 0c0.42,0.32 0.53,0.37 0.51,1.07 0.49,-0.09 -0.01,-0.14 0.81,0.73 0.38,0.41 0.57,0.56 1.1,0.63 -0.02,-0.05 -0.27,0.04 0.53,0.33 0.52,0.19 0.95,0.19 1.07,0.26 0.54,0.26 -0.11,1.26 1.01,1.55zm10.59 -7.94c0,-1.89 1.8,-0.86 2.07,-0.3 0.58,1.19 -0.44,3.32 -1.73,3.59 -0.46,-0.73 -0.34,-2.33 -0.34,-3.29zm-3.21 -3.68c0,-0.35 0.34,-1.02 1.03,-1.07l-0.02 1.53 -0.46 0.33 -0.55 -0.41 0 -0.39zm-9.75 0c0,-0.27 0.17,-0.53 0.32,-0.7 0.19,-0.21 0.29,-0.3 0.6,-0.37 0.18,0.3 0.11,0.07 0.11,0.87 0,1.5 -1.03,0.58 -1.03,0.58l0 -0.39z"/>
  </g>
 </g>
</svg>
