<?xml version="1.0" encoding="UTF-8"?>
<!DOCTYPE svg PUBLIC "-//W3C//DTD SVG 1.1//EN" "http://www.w3.org/Graphics/SVG/1.1/DTD/svg11.dtd">
<!-- Creator: CorelDRAW -->
<svg xmlns="http://www.w3.org/2000/svg" xml:space="preserve" width="52.1711mm" height="24.0632mm" version="1.1" style="shape-rendering:geometricPrecision; text-rendering:geometricPrecision; image-rendering:optimizeQuality; fill-rule:evenodd; clip-rule:evenodd"
viewBox="0 0 366.78 169.17"
 xmlns:xlink="http://www.w3.org/1999/xlink"
 xmlns:xodm="http://www.corel.com/coreldraw/odm/2003">
 <defs>
  <style type="text/css">
   <![CDATA[
    .fil0 {fill:black}
    .fil1 {fill:red}
    .fil2 {fill:#FFFEFD}
   ]]>
  </style>
 </defs>
 <g id="Camada_x0020_1">
  <metadata id="CorelCorpID_0Corel-Layer"/>
  <g id="_2416218431968">
   <path class="fil0" d="M331.08 77.69c5.43,0.89 10.23,3.33 14.94,6.61 16.47,11.46 29.17,41.95 13.89,58.94 -10.07,11.19 -27.01,11.66 -40.93,10.32 -29.73,-2.86 -58.58,-12.55 -88.23,-15.11 -9.17,-0.79 -19.55,-0.98 -28.19,2.61 -0.73,0.3 -1.91,0.91 -2.93,1.57 0.34,1.06 0.74,2.14 1,2.89 1.12,3.21 2.32,6.51 2.85,9.87 0.63,4.01 -0.64,7.74 -3.59,10.52 -2.95,2.78 -6.75,3.84 -10.71,2.97 -4.91,-1.07 -15.45,-8.04 -19.76,-10.9 -0.34,-0.22 -0.68,-0.45 -1.01,-0.68 -1.98,0.83 -4.1,1.58 -5.68,2.16 -2.2,0.81 -4.33,1.26 -6.64,1.56 -0.84,0.11 -1.74,0.19 -2.56,0.4 -4.68,1.25 -8.67,0.8 -12.56,-0.99 -0.51,0.13 -1.03,0.24 -1.6,0.34 -2.51,0.42 -4.96,0.33 -7.44,-0.18 -0.81,-0.17 -1.63,-0.42 -2.42,-0.59 -0.55,-0 -1.24,0.1 -1.75,0.15 -1.79,0.18 -3.52,0.34 -5.32,0.27 -4.66,-0.18 -8.71,-2.05 -12.07,-5.13 -1.55,0.51 -3.25,0.77 -5.4,0.76 -2.86,-0.02 -5.55,-0.65 -8.06,-1.81 -1.83,7.93 -7.51,13.08 -15.94,13.55 -5.85,0.32 -16.42,-2.97 -21.09,-6.45 -5.07,-3.77 -8.14,-8.49 -10.59,-14.21 -0.53,-1.25 -1.94,-5.18 -2.74,-6.15 -3.53,-3.62 -6.31,-7.33 -7.81,-12.21 -0.24,-0.78 -0.43,-2.08 -0.89,-2.75 -0.37,-0.54 -0.71,-1.08 -1.04,-1.63 -18.66,0.67 -32.28,-17.59 -35.87,-34.24 -3.08,-14.29 1.62,-26.06 11.11,-36.57 7.79,-8.64 18.22,-12.52 29.62,-12.04 4.99,-4.33 9.12,-4.82 15.78,-4.06 0.58,0.07 1.39,0.01 2.23,-0.1 0.09,-7.56 4.49,-14.02 10.9,-18.17 5.15,-3.33 12.43,-5.72 18.54,-4.13 5.55,1.44 8.18,4.73 11.3,9.07 1.56,-2.03 3.22,-3.35 5.09,-5.12 8.95,-8.43 16.48,-13.87 29.71,-12.95 5,0.35 9.39,1.85 14.01,3.64 5.29,2.04 10.01,5.32 13.88,9.42 2.31,-3.27 4.51,-6.61 6.72,-9.96 6.22,-9.4 16.2,-12.21 25.76,-5.38 5.58,3.99 10.58,8.66 15.86,13.02 4.7,3.87 9.34,7.6 10.82,13.87 1.74,7.35 -2.02,13.56 -6.36,19.09l-3.83 4.89c0.45,0.18 0.9,0.37 1.35,0.58 2.25,1.06 4.13,2.43 5.7,4.05 2.71,-0.42 5.5,-0.25 8.31,0.45 0.57,0.14 1.14,0.28 1.7,0.4 -0.36,-3.97 0.33,-7.89 2.37,-11.66 4.64,-8.56 14.85,-12 24.28,-11.63 -0.35,-8.03 4.14,-14.71 12.11,-17.55 6.66,-2.37 13.52,-4.3 20.33,-6.18 7.46,-2.06 14.62,-0.78 19.58,5.48 2.73,3.45 4.13,7.78 5.93,11.75 3.2,7.09 8.11,17.85 8.84,25.65 0.38,4.01 -0.25,7.35 -1.95,10.2 1.9,2.25 4.04,3.99 6.27,6.56 0.97,1.11 1.74,2.31 2.66,3.4 0.45,0.53 0.99,1.04 1.51,1.55z"/>
   <path class="fil1" d="M260.85 71.3c0.22,0.55 7.73,7.73 8.74,8.56 3.39,2.79 6.56,5.15 9.88,7.33 1.8,1.18 3.32,2.19 5.14,3.35 4.23,2.7 12.72,7.2 14.7,12.1 -3.99,0.74 -15.64,-1.16 -22.48,-1.4 -2.45,-0.09 -5.51,0.17 -7.74,-0.04 1.23,-1.05 6.9,-2.07 8.42,-2.38 3.57,-0.74 5.19,-0.43 8.03,-0.77 -1.21,-1.59 -5.11,-3.94 -8.4,-3.71 -5.34,0.38 -7.2,1.49 -11.85,3.06 -0.35,-4.51 3.59,-15.42 -4.44,-26.11zm-99.24 24.72c-0.13,-1.8 -1.67,-2.75 -3.02,-2.66 0.24,1.68 1.68,2.92 3.02,2.66zm8.12 -34.23c1.38,-0.68 2.66,-2.66 3.28,-3.65 0.79,-1.24 2.18,-2.83 2.16,-4.61 -1.78,1.22 -5.14,6.32 -5.45,8.26zm-71.54 8.57c2.49,-0.31 7.24,-2.58 9.19,-3.99 2.78,-2.02 4.2,-4.8 0.95,-7.64 -2.04,-1.78 -8.3,-2.83 -11.94,-4.46 -1.33,-0.6 -2.47,-1.71 -3.76,-1.73 1.62,2.38 4.64,14.15 5.56,17.82zm75.58 19.43c0.62,0.35 -0.56,0.1 0.99,0.34 1.8,0.27 7,-1.35 10.35,-1.56 -1.49,1.31 -4.9,1.58 -6.81,2.35 1.65,1.99 5.23,1.22 7.03,7.42 4.18,14.38 -3.09,12.74 -3.82,6.85 -0.58,-4.69 5.38,-7.13 0.47,-10.39 -2.43,-1.61 -3.19,-0.68 -4.62,1.43 -6.26,9.29 -0.7,19 6.13,18.84 8.43,-0.2 13.1,-10.96 10.82,-18.82 -1.96,-6.74 -10.53,-9.6 -13.77,-9.05 -2.17,0.37 -5.32,1.28 -6.77,2.59zm23.13 33.49c1.98,1.13 6.65,-0.46 9.24,-0.7 3.14,-0.29 16.39,-0.89 18.23,-1.72 5.28,-2.37 4.13,-9.42 4.62,-10.26 0.62,-1.08 3.01,-1.03 3.85,-0.73 1.04,0.38 4.82,3.4 5.95,4.2 10.41,7.3 12.97,6.04 22.37,5.84 4.26,-0.09 4.82,-0.22 7.16,-3.18 2.36,-2.99 3.2,-2.5 7.65,-2.44 3.06,0.04 5.11,0.3 8.08,0.76 3.13,0.48 1.01,0.47 2.52,1.03 0.07,0.02 0.16,0.05 0.23,0.07l4.76 0.95c1.32,0.22 2.55,0.23 4,0.47 2.35,0.4 10.12,1.7 11.3,2.49 2.19,1.47 0.15,3.11 7.2,2.54 -0.36,-0.75 -3.27,-5.57 -3.67,-6.02 -1.2,-1.33 -3.97,-1.43 -5.84,-1.8 -4.19,-0.84 -8.2,-1.64 -12.36,-2.55 -10.61,-2.32 -15.48,-3.78 -27.05,-1.76 0.19,1.92 0.12,3.14 -0.58,4.43 -2.83,1.17 -11.29,0.86 -13.81,0.15 -4.14,-1.16 -7.37,-3.36 -10.43,-5.6 -6.18,-4.54 -3.72,-5.32 -11.72,-3.7 -4.61,0.93 -3.2,4.97 -4.95,10.88 -2.43,0.89 -4.4,0.48 -6.86,0.81 -2.35,0.32 -4.11,1.42 -6.4,2.2 -5.61,1.92 -6.36,4.91 -10.22,0.1 -1.16,0.53 -3.23,2.33 -3.31,3.55zm-150.79 -63.93l-0.07 0.05c-3.31,1.68 -3.74,2.22 -7.46,1.59 -2.08,-0.35 -5.15,-0.47 -6.45,-1.57 1.39,-1.88 5.41,-1.75 7.67,-1.63 1.07,0.06 2.32,0.25 3.46,0.44 2.33,0.37 2.5,0.22 2.85,1.12zm-19.7 21.65c-1.63,5.29 1.57,14.92 5.87,16.61 1.71,0.68 6.02,-0.02 7.9,-3.61 1.98,-3.78 1.87,-12.81 6.75,-4.37 1.93,3.33 1.34,2.63 1.72,6.16 -1.77,3.43 -0.13,4.49 -5.14,8.87 -9.99,8.72 -21.3,-1.8 -25.65,-14.16 -6.06,-17.19 7.55,-29.23 11.54,-29.43 1.9,-0.1 9.58,1.59 10.74,2.44 -1.13,1.7 -11.78,6.38 -13.73,17.49zm22.55 14.96c0.38,-0.74 0.96,-4.05 1.11,-5.16 0.44,-3.17 -0.36,-3.83 -0.83,-6.71 1.6,-1.85 2.36,-2.59 2.06,-5.4 1.5,-5.89 0.38,-19.38 0.32,-25.24 2.06,-0.13 3.9,0.71 6.24,0.71 2.84,-0 4.89,-0.84 7.62,-1.31 0.92,0.74 4.42,7.06 5.6,8.82 4.36,6.49 13.32,19.25 21.45,20.55 -2.64,-13.14 -7.42,-25.84 -13.36,-37.31 -0.95,-1.83 -2.79,-4.68 -3.31,-6.16 -1.66,-4.68 7.76,-8.86 9.7,-7.4 0.96,0.72 2.58,4.91 8.24,9.93 3.46,3.07 6.53,4.79 10.35,7.01 5.68,3.31 14.13,5.35 16.7,8.01 2.59,2.69 0.26,4.8 -0.25,6.5 0.98,0.31 3.3,0.42 4.63,0.76 -0.22,-1.87 -1.81,-4.46 -2.27,-7.24 -0.43,-2.57 -0.65,-5.14 -0.45,-7.57 0.31,-3.68 2.06,-9.99 3.88,-11.98 2.21,-0.27 6.69,1.14 7.99,2.17 4.3,3.38 -2.17,12.25 2.84,18.59 1.65,2.08 4.65,4.12 7.31,3.64 2.05,-2.13 1.84,-6.62 0.25,-10.27 -1.58,-3.62 -3.4,-6.1 -5.64,-8.84 -6.59,-8.04 -10.01,-6.76 -17.63,-7.79 0.41,-1.77 4.33,-5.12 5.89,-6.53 5.64,-5.08 6.3,-7.02 16.58,-2.42 2.78,1.24 4.94,2.64 7.28,5.1 8.05,8.47 9.22,22.66 3.03,32.65 -0.79,1.28 -2.07,2.49 -2.71,3.75 -0.81,0.42 -2.75,2.18 -3.78,2.9 -1.36,0.95 -2.91,1.69 -4.71,2.33 0.22,3.04 -2.19,1.65 -4.26,1.33 -1.92,-0.3 -4.3,-0.6 -6.33,0.21l-6.71 16.39c-0.73,1.84 -1.18,3.47 -1.78,5.6 -4.09,14.42 -2.37,21.36 -3.04,25.09 -1.07,-0.3 -3.08,-3.54 -3.37,-4.73 -0.33,-1.33 0.06,-4.64 0.19,-6.04 0.19,-2.13 0.38,-3.93 0.71,-5.97 0.31,-1.99 1.04,-3.81 1.03,-5.68 -1.22,1.07 -1.61,2.6 -3.12,3.67 -1.97,1.8 -3.17,4.2 -4.62,6 -0.95,-0.44 -3.98,-3.89 -4.88,-4.93 -1.77,-2.02 0.49,-8.03 -0.63,-15.12 -0.7,-4.44 -1.98,-3.98 -4.33,-5.6 1.2,-1.81 6.91,-5.99 9.92,-0.94 2.27,3.8 1.35,9.19 1.31,12.93 1.38,-1.21 2.47,-3.1 3.45,-4.67 1.56,-2.51 8.35,-10.49 5.4,-15.8 -5.17,-9.31 -21.54,0.42 -22.77,1.92 1.03,6.86 3.81,14.88 4.23,21.75 -1.53,0.43 -2.48,-0.2 -3.53,-0.89 -6.38,-4.18 -5.19,-3.76 -5.78,-7.91 -3.13,0.6 -4.72,2.13 -6.81,-0.22 -1.75,0.68 -1.15,0.95 -2.85,0.26l-6.07 -3.16c-9.64,-6.03 -15.46,-20.29 -18.1,-21.61l0.46 13.49c2.08,-0.46 5.53,-1.88 6.97,-0.96 0.73,0.46 3.18,3.21 3.65,4.16 -3.3,2.03 -8.77,3.02 -10.52,6.27 -1.21,2.26 -0.99,8.68 -1.83,11.69 -1.99,0.13 -3.25,-1 -5.38,-0.67l-0.32 4.34 0.64 2.2c2.56,0.89 2.08,-1.19 3.74,3.07 0.6,1.54 1.67,3.83 1.94,5.45l-2.52 2.6c2.25,3.01 3.85,2.94 5.28,8.1 1.07,3.83 1.74,9.03 3.06,12.54l7.67 1.95c0.67,-0.94 1.02,-2 1.59,-2.92 1.63,-2.65 3.96,-5.11 6.45,-7.21 2.54,-2.13 9.77,-6.29 13.89,-6.53 1.07,0.26 5.89,6.19 7.51,6.84 0.8,-1.58 1.44,-12.19 1.17,-13.55 -0.46,-2.36 -1.65,-1.63 -2.38,-3.57 3.56,2 10.46,10.25 13.39,14.71 0.98,1.49 1.91,3.01 2.83,4.46 3.29,5.2 2.3,2.78 9.12,3.44 1.58,0.15 4.07,1.17 5.1,0.72 -2.23,-12.2 -1.51,-27.06 0.98,-38.83 0.42,-1.97 2.03,-10.29 3.39,-10.91 2.6,8.18 4.6,18.48 5.92,26.9 0.68,4.35 2.53,23.83 4.59,26.15 0.63,0.44 2.11,-0.1 3.4,-0.26 1.45,-0.18 2.36,0.14 3.54,0.22 -0.61,-3.22 -1.2,-6.41 -1.68,-9.66 -0.29,-1.99 -2.19,-8.2 -0.04,-9.03 2.29,-0.89 2.57,2.05 4.65,6.45 1.13,2.38 2.75,5.6 4.12,7.45l7.12 -3.43c-0.27,-1.76 -6.41,-11.31 -5.46,-12.68 0.59,-0.85 11.25,-3.62 11.14,-8.32 -0.09,-3.73 -7.81,-7.4 -9.51,-8.9 2.36,0.45 4.38,2.82 6.43,3.23 0.2,-1.23 0.48,-2.3 0.9,-3.43 0.47,-1.29 1.37,-2.16 1.32,-3.46 -2.75,-0.17 -2.44,0.68 -4.25,-1.3 -0.74,0.18 -1.2,0.5 -1.74,0.49 -0.85,-0.02 -0.72,-0.41 -1.65,-0.45 -0.66,1.75 -2.47,3.5 -5.35,3.56 -1.21,-0.78 -1.33,-1.91 -2.72,-2.87 -2.9,-2.03 -6.26,-3.07 -8.81,-8.16 -2.87,-5.74 -2.71,-13.83 1.22,-17.11 5.04,-4.2 9.55,-1.56 20.01,-15.33 0.71,-0.93 4.48,-5.52 4.57,-6.25 2.1,-1.45 2.09,-2.7 5.04,0.07 1.94,1.81 0.7,3.85 -0.01,5.49 -1.51,3.46 -3,6.6 -4.46,10.07 -4.71,11.24 -3.43,7.48 -3.15,17.35 0.08,2.65 -0.78,4.04 -0.7,6.49 7.54,-1.89 11.19,-4.92 18.63,-0.2 5.21,3.3 8.21,7.95 7.48,16 -0.5,5.53 -3.54,11.79 -7.93,14.39 -9.2,5.44 -13.98,-1.77 -16.07,-3.04 -1.2,0.52 -1.87,2.03 -3.4,3.19 -1.39,1.06 -3,2.08 -4.25,2.92 0.86,2.51 3.16,5.99 5.02,6.84l3 -1.35c0.17,-0.7 -0.06,-1.46 -0.63,-2.23 -0.73,-0.98 -0.97,-1.01 -1.48,-2.24 2.84,-0.5 4.19,1.02 6.47,1.49 2.54,0.53 5.17,-1.21 7.5,-2.17 3.23,-1.33 11.89,-4.33 14.2,-5.77l-3.61 -32.3c-0.28,-1.89 -0.48,-3.9 -1.09,-5.75 -0.56,-1.69 -1.6,-3.52 -1.13,-5.28 0.78,-2.97 5.74,-3.1 8.97,-3.01 4.37,0.12 5.83,0.39 7.13,4.83 2.64,9.02 2.11,15.36 3.57,22.19 1.12,-1.85 3.75,-12.18 4.11,-15.02 0.4,-3.18 0.4,-5.44 4.5,-5.92 1.93,-0.23 5.35,1.22 7.81,1.59 2.38,0.36 6.55,0.41 7.75,1.77 0.89,1.01 3.12,6.14 3.98,7.78 1.32,2.52 2.73,4.87 4.29,7.28l4.39 5.82c0.34,0.28 0.32,0.24 0.56,0.38 3.06,-5.01 3.03,-16.97 1.15,-24.33 -1.14,-4.46 -3.06,-8.51 -4.84,-12.61 -1.48,-3.41 -3.56,-8.48 3.54,-9.57 13.31,-2.05 11.52,3.51 17.56,11.86 3.33,4.6 6.94,8.7 10.91,12.52 1.23,1.18 2.84,2.51 3.95,3.74 -6.25,-4.94 -14.32,-11.75 -18.94,-19.56 -1.08,-1.83 -1.82,-3.97 -2.87,-5.71 -1.97,-3.29 -8.43,-2.55 -11.49,-0.92 -0.27,5.25 11.63,18.66 6.9,37.8 -0.58,2.36 -3.71,9.34 -3.61,10.51 2.14,0.52 4.61,0.79 6.93,1.32 6.76,1.55 9.62,-2.45 23.84,-0.41 7.32,1.05 14.24,2.65 21.61,3.16 1.8,0.13 6.4,0.11 7.68,0.59 1,1.47 1.43,4.03 3.05,6.21 4.63,6.2 10.43,6.75 16.59,1.06 3.36,-3.1 -0.96,-9.17 -3.28,-12.05 -1.52,-1.88 -2.7,-3.12 -4.58,-3.81 -1.39,-0.51 -4.88,-1.68 -6.46,-1.72 1.39,2.97 3.93,2.95 5.78,7.87 1.38,3.68 2.86,8.85 -0.95,10.09 -0.88,-1.33 -3.48,-4.22 -2.91,-6.28 0.61,-2.22 4.26,-2.67 2.74,-5.31 -0.92,-1.59 -3.63,-3.91 -5.21,-3.65 -1.61,0.26 -3.4,1.68 -4.05,2.99l-0.84 1.72c-2.45,-4.46 -6.44,-5.91 -10.9,-7.39 -2.86,-0.95 -9.77,-4.36 -10.62,-8.13 -0.62,-2.72 3.14,-8.73 3.27,-13.7 0.13,-4.72 -4.11,-15.37 -3.72,-17.61 1.37,-1.32 4.64,-2.1 6.06,-0.52 1.95,2.16 7.82,13.66 9.82,16.84 2.58,4.08 5.51,5.36 8.17,8.8 0.97,1.25 2.69,4.11 3.59,4.97 0.83,0.8 1.92,0.92 2.32,1.79 0.48,1.01 -0.37,1.63 -0.11,3.2 7.33,4.16 9.03,3.47 14.32,13.13l0.97 1.34c-1.03,-7.08 -5.81,-10.22 -9.43,-13.96 -2.81,-2.9 0.1,-4.38 -3.16,-7.79 -0.99,-1.04 -1.76,-1.66 -2.77,-2.86 -0.9,-1.07 -1.62,-2.2 -2.53,-3.24 -4.11,-4.72 -6.58,-5.62 -10.25,-12.3 -0.85,-1.54 -1.39,-2.48 -0.92,-4.14 1.51,-5.34 10.15,2.18 -3.87,-28.9 -3.81,-8.45 -4.12,-12.69 -11.49,-10.65 -6.24,1.72 -13.41,3.75 -19.5,5.92 -7.62,2.72 -3.02,10.45 -0.94,15.53 2.06,5.03 5.28,16.23 6.35,18.55 1.88,4.06 5.48,0.25 8.41,0.25 2.68,0.01 3.51,4.84 4.14,7.83 0.73,3.48 -1.66,6.37 -4.23,5.12 -4.76,-2.3 -13.55,-13.28 -16.16,-17.84 -3.3,-5.76 -3.64,-9.55 -11.17,-10.9 -5.92,-1.06 -13.75,0.34 -16.32,5.09 -2.99,5.51 1.26,11.15 3.54,17.06 1.63,4.23 4.58,15.36 3.07,19.09 -1.74,-2.06 -4.25,-7.02 -5.62,-9.79 -2.56,-5.18 -2.16,-6.38 -7.64,-7.13 -4.21,-0.58 -6.79,-1.11 -10.73,-2.07 -5.4,-1.33 -7.01,1.57 -10.62,3.73 -2.27,-10.26 -7.23,-10.49 -16.58,-9.95 -4.35,0.25 -7.19,3.43 -8,6.28 -1.31,4.67 1.26,7.02 1.92,11.66 -0.69,0.04 -5.88,-1.98 -9.87,-2.3 -4.21,-0.33 -7.33,0.72 -6.19,-6.69 0.42,-2.72 2.59,-7.07 3.64,-9.24 2.54,-5.23 2.81,-4.89 7.55,-1.96 3.65,2.25 6.44,-3 7.96,-4.94l12.12 -15.46c6.74,-8.59 5.19,-9.95 -2.66,-16.42 -4.86,-4 -10.16,-8.9 -15.22,-12.52 -4.04,-2.88 -6.41,-1.51 -8.91,2.26 -3.67,5.55 -6.93,10.57 -11.21,16.03 -3.16,4.03 -8.87,9.28 -3.31,13.14 2.11,1.47 2.76,1.19 2.66,4.7 -0.8,0.55 -1.02,2.56 -2.61,3.11 -2.27,0.78 -2.44,-1.31 -3.03,-3.01 0.96,-1.86 -1.45,-11.97 -2.18,-13.73 -2.87,-6.94 -8.49,-12.59 -15.14,-15.16 -3.07,-1.18 -6.74,-2.6 -10.55,-2.87 -9.92,-0.69 -15.09,4.43 -20.72,9.74 -2.88,2.71 -6.17,4.64 -4.74,9.45 1.62,5.47 7.2,1.94 11.64,0.76 -0.02,3 -2.07,9.18 -3.67,10.51 -3.27,0.29 -15.06,-6.58 -17.11,-8.11 -9.72,-7.26 -9.81,-12.7 -13.67,-13.71 -3.75,-0.98 -15.62,3.86 -14.45,12.18 0.75,5.38 12.78,17.9 2.47,18.85 -1.45,-1.12 -2.85,-3.69 -4.07,-5.81 -1.99,-3.44 -1.6,-3.65 -5.84,-3.09 -2.87,0.38 -5.4,0.88 -8.12,0.57 -3.58,-0.41 -4.56,-0.77 -7.3,1.84 -2.87,2.73 -1.68,2.75 -6.32,2.37 -8.5,-0.68 -15.96,1.79 -21.59,8.04 -5.56,6.16 -10.86,14.27 -8.31,26.1 2.86,13.29 12.98,25.24 23.81,24.85 3.21,-0.12 6.19,-2.44 7.69,0.06 1.39,2.32 2,4.41 3.59,6.73 3.46,5.05 0.59,6.39 7.43,13.4 4.7,4.82 4.53,13.61 11.9,19.1 2.91,2.16 10.97,4.25 13.33,4.12 3.49,-0.19 4.55,-2.04 5.07,-4.68 0.92,-4.68 2.65,-8.64 7.03,-11.41 4.66,-2.95 6.5,4.3 12.62,4.33 3.71,0.02 4.47,-2.79 7.77,-3.13 3.23,1.2 4.86,7.3 10.1,7.51 2.37,0.09 5.04,-0.55 7.51,-0.4 2.39,0.15 4.23,1.37 6.99,0.91 3.26,-0.55 3.08,-2.92 6.46,-0.62 1.73,1.17 3.42,2.37 6.59,1.52 3.11,-0.83 5.1,-0.51 8.18,-1.64 1.15,-0.42 6.63,-2.52 7.31,-2.96 -0.35,-0.8 -6.5,-6.57 -8.5,-8.73 -0.26,-0.28 -0.31,-0.38 -0.67,-0.66l-0.89 -0.55c0.82,3.57 2.5,5.37 0.91,8.76 -1.7,0.63 -4.39,0.84 -6.41,1.23 -2.86,0.54 -3.61,0.27 -4.89,-1.66 -4.96,-7.5 -7.54,-31.19 -10.76,-39.2 -0.65,0.59 -0.42,0.32 -0.52,1.71 -0.44,5.8 -0.4,11.07 0.03,16.96 0.24,3.34 1.12,7.08 1.96,10.54 0.8,3.29 2.59,7.83 1.22,10.41 -2.17,0.87 -5.82,-1.02 -9.24,-0.59 -7.73,0.97 -6.09,0.41 -14.47,-9.01l-5.6 -6.15c-0.71,-0.49 0.25,-0.04 -0.75,-0.39 0.15,2.26 0.03,4.37 -0.02,6.67 -0.04,2.2 0.41,5.15 -2.24,5.09 -2.65,-0.06 -7.45,-6.21 -9.59,-6.15 -3.92,0.11 -11.93,7.43 -13.27,11.65 -0.56,1.76 -0.78,4.63 -1.35,6.12 -2.22,0.21 -9.13,-1.83 -10.6,-2.76 -7.03,-4.47 -6.79,-14.03 -12.61,-19.67 -6.25,-6.05 -3.04,-8.56 -3.17,-10.73 -2.92,-1.48 -3.78,-0.77 -5.27,-5.04 -1.19,-3.4 -0.95,-6.31 -1.29,-9.71l-0.74 -0.48 1.75 -7.03zm162.16 13.94c-0.37,-3.06 0,-7.67 -0.16,-11.11 -0.18,-3.84 -0.29,-7.61 -0.63,-11.43 -0.36,-3.98 -1.27,-8.41 -2.18,-12.42 -0.67,-2.92 -0.88,-3.31 -3.59,-3.39 -1.89,-0.05 -3.76,-0.2 -5.72,0.06 2.58,7.63 2.47,16.3 2.77,23.97 0.16,4.02 0.82,20.09 1.39,23.02 1.42,-0.35 2.96,-1.39 4.3,-1.96 0.95,-0.4 1.69,-0.47 2.53,-0.84 0.85,-0.38 1.16,-0.87 1.9,-1.2 2.68,-1.2 7.13,-0.26 9.68,-1.24 -0.44,-1.66 -0.99,-0.89 -0.41,-2.66 0.2,-0.6 0.74,-1.64 1.03,-2.32 3.62,-8.36 3.21,-5.34 13.7,-7.51 -0.35,-1.4 -2.46,-3.95 -3.4,-4.34 -1.76,-0.72 -4.22,0.4 -5.92,-0.07 -0,-1.43 0.72,-3.63 1.08,-5.04 0.39,-1.53 0.51,-3.44 1.46,-4.41 3.48,4.41 5.22,12.83 12.17,18.61 2.33,1.94 5.52,3.96 8.64,5.04 3.01,1.04 7.82,0.94 11.79,0.23l-1.48 -0.87c-7.97,-3.57 -12.76,-8.55 -17.5,-16.55 -9.3,-15.71 -2.92,-13.03 -13.3,-14.32 -1.88,-0.23 -5.22,-1.26 -6.76,-1.03 -0.44,7.09 -5.24,17.3 -5.94,20.96 -1.92,0.52 -2.18,0.34 -2.41,2.22 -0.32,2.59 -0.83,6.63 -3.04,8.59zm-98.7 -74.44c-0.04,-1.54 5.8,-6.01 7.3,-7.45 3.56,-3.45 4.86,-4.4 10.93,-5.34 -1.12,1.72 -5.71,5.77 -7.46,7.51 -2.8,2.79 -5.7,4.59 -10.77,5.28zm37.9 78.75c-0.78,-2.46 -1.17,-6.36 -1.48,-8.83l-1.26 -8.45c0.01,-0.08 0.04,-0.2 0.05,-0.26 0.01,-0.06 0.03,-0.18 0.07,-0.26 2.03,1.1 3.99,3.38 6.18,4.73 2.19,1.35 4.74,2.59 6.51,4.16 6.43,5.71 -5.48,10.88 -10.06,8.91zm-86.76 -9.56c4.77,-0.74 8,-0.73 13.13,-2.32 5.67,-1.75 8.41,-4.02 11.2,-5.04 1.95,1.89 6.26,14.18 6.59,17.34 -2.94,1.43 -9.84,2.32 -13.74,3.94 -2.53,1.05 -9.96,5.55 -10.99,5.71 -0.58,-1.91 -2.21,-6.47 -2.07,-8.2l19.13 -5.51c0.09,-1.14 -1.7,-4.19 -2.57,-4.79 -2.23,-1.54 -13.89,4.32 -18.39,5.3l-2.3 -6.43zm212.41 -58.61l24.17 -6.38 6.85 17.56c-4.19,-0.3 -6.81,-2.05 -13.29,-0.91 -5.34,0.93 -8.74,3.9 -13.17,5.3l-4.57 -15.58zm-0.6 -1.11l-0.82 -2.22c1.75,-0.79 22.23,-5.96 23.91,-6.03 2.34,3.04 0.05,2.45 -9.43,4.86 -4.08,1.04 -9.65,2.79 -13.65,3.39zm22.02 -11.66l0.37 2.43c-3.72,1.18 -20.9,6.21 -23.76,6.31l-0.42 -2.42 23.81 -6.31zm-25.81 2.17c5.69,-2.47 16.93,-5.62 23.27,-7.05 0.47,0.56 0.78,1.2 1.15,2.04 0.04,0.1 0.34,0.88 0.35,0.94 0.14,0.76 0.16,0.31 -0.04,0.94l-23.45 6.31c-0.75,-0.81 -1.23,-2.06 -1.28,-3.19zm-103.99 5.01c0.85,-1.73 9.66,-13.55 11.08,-14.4l10.53 8.81c2.12,1.74 9.23,7.07 10.49,9.07 -0.22,0.67 -9.71,13.13 -11.27,14.53 -0.8,-0.77 -1.31,-2.13 -1.97,-3.36 -5.49,-10.29 -17.07,-12.75 -18.86,-14.66zm34.5 1.05l-1.76 1.41c-1.63,-0.72 -8.77,-7.09 -10.9,-8.85 -1.57,-1.3 -9.98,-7.64 -10.55,-9.51l1.42 -1.35 1.61 1.06c3.25,2.72 19.36,15.55 20.18,17.24zm1.85 -2.82c-0.55,1 -0.44,1.16 -1.55,1.72 -1.42,-0.72 -9.17,-7.42 -11.04,-8.97 -1.85,-1.53 -9.87,-7.85 -10.64,-9.17 0.41,-0.85 0.59,-1.28 1.6,-1.83 1.14,0.52 21.11,17.12 21.64,18.24zm-21.1 -19.54c0.33,-0.88 1.01,-2.4 1.78,-2.96 2.08,1.12 21.01,16.61 22.19,18.54 -0.4,1.16 -1.33,2.16 -2.13,2.74 -1.8,-1 -20.9,-16.82 -21.84,-18.33z"/>
   <path class="fil2" d="M300.39 86.59c-6.69,3.62 4.3,8.94 9.53,6.92 5.89,-2.27 -3.26,-10.31 -9.53,-6.92zm-254.33 -27.19l0.07 -0.05c-0.35,-0.9 -0.52,-0.75 -2.85,-1.12 -1.14,-0.18 -2.39,-0.38 -3.46,-0.44 -2.25,-0.12 -6.28,-0.25 -7.67,1.63 1.3,1.1 4.36,1.21 6.45,1.57 3.72,0.63 4.15,0.09 7.46,-1.59zm2.61 36.4c-0.38,-3.53 0.21,-2.83 -1.72,-6.16 -4.89,-8.44 -4.77,0.59 -6.75,4.37 -1.88,3.59 -6.19,4.29 -7.9,3.61 -4.29,-1.7 -7.49,-11.32 -5.87,-16.61 1.95,-11.11 12.6,-15.79 13.73,-17.49 -1.16,-0.85 -8.84,-2.54 -10.74,-2.44 -3.98,0.2 -17.59,12.24 -11.54,29.43 4.35,12.36 15.66,22.88 25.65,14.16 5.01,-4.37 3.37,-5.44 5.14,-8.87zm63.77 -60.33c5.07,-0.69 7.96,-2.5 10.77,-5.28 1.75,-1.74 6.34,-5.78 7.46,-7.51 -6.07,0.94 -7.37,1.89 -10.93,5.34 -1.5,1.45 -7.34,5.91 -7.3,7.45zm-14.24 34.9c-0.92,-3.67 -3.93,-15.44 -5.56,-17.82 1.29,0.02 2.43,1.14 3.76,1.73 3.64,1.64 9.9,2.69 11.94,4.46 3.26,2.84 1.84,5.61 -0.95,7.64 -1.95,1.41 -6.7,3.68 -9.19,3.99zm-46.88 8.33c0.3,2.81 -0.46,3.55 -2.06,5.4 0.47,2.88 1.27,3.53 0.83,6.71 -0.15,1.1 -0.73,4.41 -1.11,5.16l-1.75 7.03 0.74 0.48 5.42 -1.23 0.32 -4.34c2.13,-0.33 3.39,0.8 5.38,0.67 0.84,-3.01 0.61,-9.43 1.83,-11.69 1.75,-3.26 7.22,-4.24 10.52,-6.27 -0.47,-0.96 -2.92,-3.7 -3.65,-4.16 -1.45,-0.92 -4.9,0.5 -6.97,0.96l-0.46 -13.49c2.64,1.32 8.46,15.58 18.1,21.61l6.07 3.16c1.69,0.7 1.09,0.43 2.85,-0.26 2.1,2.35 3.68,0.82 6.81,0.22 0.59,4.15 -0.6,3.73 5.78,7.91 1.05,0.69 2,1.33 3.53,0.89 -0.41,-6.87 -3.2,-14.89 -4.23,-21.75 1.23,-1.51 17.59,-11.24 22.77,-1.92 2.95,5.31 -3.84,13.29 -5.4,15.8 -0.98,1.57 -2.08,3.46 -3.45,4.67 0.04,-3.75 0.97,-9.14 -1.31,-12.93 -3.02,-5.04 -8.72,-0.87 -9.92,0.94 2.35,1.61 3.64,1.16 4.33,5.6 1.12,7.09 -1.15,13.09 0.63,15.12 0.91,1.03 3.93,4.49 4.88,4.93 1.45,-1.8 2.65,-4.2 4.62,-6 3.02,-4.83 7.28,-9.95 9.82,-14.35 0.81,-1.41 4.65,-10.3 5.12,-12.34 0.33,-1.45 0.53,-3.02 0.9,-4.45 0.78,0.18 4.49,3.27 10.86,1.28 1.81,-0.64 3.35,-1.37 4.71,-2.33 1.03,-0.72 2.97,-2.48 3.78,-2.9 0.64,-1.26 1.91,-2.47 2.71,-3.75 6.19,-9.99 5.02,-24.18 -3.03,-32.65 -2.34,-2.46 -4.5,-3.86 -7.28,-5.1 -10.29,-4.6 -10.94,-2.66 -16.58,2.42 -1.57,1.41 -5.48,4.76 -5.89,6.53 7.62,1.03 11.04,-0.25 17.63,7.79 2.24,2.74 4.06,5.22 5.64,8.84 1.59,3.65 1.8,8.15 -0.25,10.27 -2.65,0.48 -5.66,-1.55 -7.31,-3.64 -5.02,-6.33 1.46,-15.21 -2.84,-18.59 -1.3,-1.02 -5.78,-2.43 -7.99,-2.17 -1.82,1.99 -3.57,8.3 -3.88,11.98 -0.2,2.43 0.02,5 0.45,7.57 0.46,2.78 2.05,5.36 2.27,7.24 -1.33,-0.34 -3.66,-0.45 -4.63,-0.76 0.51,-1.7 2.85,-3.81 0.25,-6.5 -2.57,-2.66 -11.02,-4.7 -16.7,-8.01 -3.82,-2.22 -6.89,-3.95 -10.35,-7.01 -5.66,-5.02 -7.28,-9.2 -8.24,-9.93 -1.95,-1.46 -11.36,2.72 -9.7,7.4 0.53,1.48 2.37,4.34 3.31,6.16 5.94,11.46 10.72,24.17 13.36,37.31 -8.13,-1.31 -17.09,-14.06 -21.45,-20.55 -1.18,-1.76 -4.68,-8.07 -5.6,-8.82 -2.73,0.47 -4.78,1.31 -7.62,1.31 -2.33,0 -4.17,-0.84 -6.24,-0.71 0.07,5.86 1.18,19.35 -0.32,25.24zm135.92 -35.51c1.17,-5.23 -6.53,-6.05 -7.38,-0.85 -0.81,5.03 6.12,6.47 7.38,0.85zm-33.52 33.11c-4.7,3.94 3.08,14.89 8.01,11.54 4.69,-3.18 -3.02,-15.72 -8.01,-11.54zm36.83 79.09c-3.75,-0.86 -4.12,-4.79 -5.26,-8.89 -1.18,-4.24 -2.74,-8.03 -0.19,-11.1 1.55,-1.86 5.44,-4.63 8.24,-5.87 4.62,-2.05 6.92,-1.87 11.34,-2.82 -7.53,2.45 -12.78,4.03 -16.8,9.35 -4.78,6.34 1.37,12.17 2.66,19.33zm-5.49 -26.98c0.76,-3.11 2.04,-3.81 5.61,-5.01 -0.35,1.14 -1.43,2.17 -2.05,3.2 -1.33,2.19 -0.83,2.08 -1.54,3.33 -1.11,-0.19 -1.45,-0.69 -2.02,-1.52zm153.51 10.87c19.19,-4.42 13.63,-28.65 3.59,-39.59 -5.88,-6.41 -9.75,-7.91 -10.74,-8.94 1.47,0.23 6.7,3.85 8.12,4.97 2.32,1.82 4.52,4.7 6.68,7.32 1.92,2.34 4.16,6.42 5.23,9.55 0.42,1.24 0.58,2.07 1.09,3.16 0.82,1.75 0.37,0.98 0.66,3.01 1.41,9.83 0.31,17.3 -11.42,20.8 -4.47,1.33 -7.45,1.59 -12.12,1.64 -1.96,0.02 -3.65,-0.08 -5.59,-0.12 -0.5,-0.01 -4.51,0.04 -4.87,-0.57 -0.06,-0.11 -0.17,-0.08 -0.25,-0.12 5.86,-0.63 9.08,1.34 19.61,-1.09zm-12.56 -50.04c1.13,1.45 2.64,1.7 4.19,2.99 10.3,8.53 11.45,24.52 -3.21,30.09 -11.93,4.53 -35.24,4.28 -47.16,3.78 -18.97,-0.79 -48.17,-2.74 -66.81,-1.25 -3.95,0.32 -8.06,0.69 -11.99,1.38 -3.26,0.57 -10.11,3.28 -12.29,3.2 -0.59,-2.65 4.95,-6.38 5.99,-8.73l-17.1 7.15c-4.04,1.82 -13.54,5.52 -15.08,8.39 -0.57,4.08 26.74,20.5 29.18,21.03 -0.8,-5.03 -5.12,-13.38 -4.53,-17.61 0.52,-3.71 6.19,-7.66 10.79,-9.57 10.93,-4.54 23.17,-4.39 33.78,-3.47 28.9,2.49 60.14,12.4 88.35,15.12 9.86,0.95 24.05,1.23 30.94,-6.44 9.68,-10.76 -0.66,-33.43 -11.84,-41.2 -3.26,-2.27 -7.67,-4.99 -13.21,-4.84zm-36.88 -41.02c-3.4,2.53 1.09,8.03 4.67,5.97 3.57,-2.06 -0.84,-8.82 -4.67,-5.97z"/>
  </g>
 </g>
</svg>
