<?xml version="1.0" encoding="UTF-8"?>
<!DOCTYPE svg PUBLIC "-//W3C//DTD SVG 1.1//EN" "http://www.w3.org/Graphics/SVG/1.1/DTD/svg11.dtd">
<!-- Creator: CorelDRAW -->
<svg xmlns="http://www.w3.org/2000/svg" xml:space="preserve" width="40.1464mm" height="17.6911mm" version="1.1" style="shape-rendering:geometricPrecision; text-rendering:geometricPrecision; image-rendering:optimizeQuality; fill-rule:evenodd; clip-rule:evenodd"
viewBox="0 0 455.38 200.67"
 xmlns:xlink="http://www.w3.org/1999/xlink"
 xmlns:xodm="http://www.corel.com/coreldraw/odm/2003">
 <defs>
  <style type="text/css">
   <![CDATA[
    .fil0 {fill:black}
    .fil1 {fill:#FEFEFE}
    .fil2 {fill:red}
   ]]>
  </style>
 </defs>
 <g id="Camada_x0020_1">
  <metadata id="CorelCorpID_0Corel-Layer"/>
  <g id="_1916553560208">
   <path class="fil0" d="M129.53 47.91c-6.62,-7.73 16.61,-27.89 20.35,-36.48 1.85,-4.25 -4.72,-1.25 -6.61,0.04 -5.46,3.72 -9.18,6.85 -13.69,10.69 -16.56,14.12 -17.42,7.2 -28.31,9.62 -2.73,0.61 -6.66,2.28 -9.24,3.34 -6.12,2.49 -14.12,4.94 -8.55,11.63 2.39,2.87 4.94,2.36 2.14,6.7 -4.31,6.69 -11.03,-1.45 -9.45,13.46 0.42,3.97 2.3,4.55 3.26,7.06 -1.03,1.85 -6.97,5.15 -8.93,6.65 -8.68,6.67 -15.88,15.63 -24.58,21.6 0.09,-5.51 1.01,-5.96 -2.4,-10.66 -14.68,-20.25 -50.22,-3.44 -42.41,11.47 3.57,6.82 17.03,8.42 18.38,11.02 0.97,6.22 -3.01,14.76 -0.59,19.87l12.05 33.24c2.24,5.47 1.31,13.91 3.85,18.05 5.02,-0.04 4.16,-2.14 5.49,-5.35 1.16,-2.82 4.82,-2.53 6.82,-4.11 -1.47,-3.28 -7.12,-4.09 -9.86,-14.57 -1.26,-4.81 -4.22,-14.86 -4.35,-19.39l22.16 6.74c19.72,6.06 16.12,0.53 24.04,1.25 -0.6,4.13 -9.15,11.28 -7.86,17.15 4.18,-0.06 9.08,-12.89 16.54,-14.73 -1.15,3.9 -7.54,10.56 -11.4,13.05 -8.99,5.8 -18.07,11.22 -17.26,21.93 4.18,0.06 9.2,-0.59 12.71,-1.7 12.41,-3.9 4.02,-11.06 15.84,-10.46 12.14,0.61 9.79,6.3 26.33,-10.5 1.6,-1.63 11.71,-12.11 12.92,-12.65 -0.43,2.74 -2.68,5.25 -3.9,7.94 -3.77,8.29 -0.32,19.64 5.29,25.97 12.39,13.99 38.04,18.21 59.63,12.34 13.7,-3.72 18.41,-11.89 23.7,-13.39 3.21,-0.91 9.38,0.83 11.81,-0.49 2.45,-1.33 5.78,-15.04 4.19,-18.03 -2.03,-1.46 -9.56,-0.89 -12.59,-1.8 -1.97,-13.49 7.21,-5.87 10.76,-8.51 2.79,-2.76 1.97,-9.79 3.59,-13.2l17.17 0.07c-0,2.54 -5.6,7.32 -7.25,9.4 -3.04,3.82 -2.84,7.59 -3.01,12.99 -0.16,5.15 -3.4,25.66 0.07,28.46 4.2,1.28 13.52,0.29 18.67,0.27 6.58,-0.02 12.96,0.4 19.49,0.38 9.06,-0.02 32.32,-0.44 39.86,0.11 1.55,2.26 0.36,4.27 2.8,5.54 4.44,1.13 19.19,0.79 24.4,0.23 6.19,-0.66 4.63,-11.95 5.92,-15.98 2.98,-0.51 5.6,4.2 7.05,6 2.94,3.65 2.47,4.57 9.36,4.52 9.74,-0.08 19.26,-0.38 29,-0.05 10.07,0.35 19.51,-0.41 29.51,0.02 8.03,0.34 20.06,0.63 27.66,-0.35 0.89,-4.07 2.83,-19.32 2.55,-23.28l-16.56 -0.32c-0.61,-1.57 1.37,-9.36 2.29,-10.95l15.31 -0.2c0.67,-3.54 0.45,-8.28 0.75,-11.99 0.13,-1.69 1.69,-9.85 0.6,-11.2l-10.49 -0.54c-0.21,-1.4 2.06,-12.74 2.36,-15.83 0.7,-7.12 3.08,-47.19 1.91,-51.74 -8.12,-1.1 -57.6,-1.82 -65.26,-0.85 -1.59,3.15 -1.83,8.66 -3.36,12.53 -2.61,-0.3 -8.01,-7.2 -10.03,-9.56 -2.77,-3.22 -1.63,-3.01 -7.57,-3.35l-32.42 -0.63c-7.79,-0.01 -9.93,0.86 -12.23,8.04 -5.56,-1.48 -9.23,-6.81 -15.92,-7.86l-24.21 -0.33c-15.93,-0.77 -32.6,-0.59 -48.58,-0.85 10.8,-6.5 24.14,-13.2 26.64,-26.78 5.51,-30 -37.43,-45.21 -67.47,-35.87 -21.28,6.62 -22.56,14.81 -28.81,18.64 -1.67,1.03 -3.06,0.92 -4.68,1.99 -0.18,3.67 0.21,19.21 -2.02,21.17 -2.04,1.79 -19.64,4.14 -23.31,3.37zm42.08 -10.72c3.14,1.58 6.66,-0.46 10.3,-0.24 0.68,2.35 1.77,3.93 5.44,3.12 1.87,-5.22 -1.9,-14.13 12.74,-16.64 24.62,-4.21 31.88,16.82 9.29,24.24 -12.71,4.17 -17.07,-0.24 -26.78,0.98 -6.83,0.87 2.3,8.63 15.34,9.38 13.03,0.75 34.27,-3.05 40.63,-14.12 16.95,-29.51 -38.34,-43.31 -59.66,-24.57 -3.44,3.03 -9.74,11.22 -7.31,17.86zm7.91 145.78l-0.39 -4.64c-1.28,-0.24 -4.18,-0.43 -4.83,0.35 -6.85,-0.66 -11.6,1.14 -18.47,-5.07 -1.42,-1.29 -1.41,-3.09 -3.67,-3.65l-2.25 2.94c-4.92,-1.27 -1.22,-14.59 -1.14,-15.37 0.4,-3.52 -8.96,-5.28 -10.46,9.94 -2.29,23.29 44.43,23.17 46.61,17.22l-5.41 -1.72zm2.42 -47.55l4.59 0.65c8.37,0.08 2.48,-2.87 4.75,-7.05 1.69,-1.91 7.13,-1.11 9.2,-3.97l-8.25 -9.99c-0.94,-0.1 -9.68,8.83 -10.52,13.91 -0.23,1.42 -1.72,6.14 0.22,6.45zm-90.65 -70.26c-1.86,0.82 -7.1,7.5 -1.79,7.23 5.01,-0.25 5.27,-8.77 1.79,-7.23zm45.11 78.13c2.61,-0.33 11.11,-4.66 10.98,-9.5 -2.88,0.06 -10.65,6.57 -10.98,9.5zm9.26 -83.5c1.08,2.57 9.55,3.65 12.82,5.92 4.59,3.18 -3.47,7.74 7.63,8.42 6.12,0.38 23.4,-0.27 24.51,4.67 0.88,3.92 -5.48,3.86 -0.81,7.77 1.12,0.94 1.47,1.23 2.68,0.91l2.75 -19.81 -11.7 -2.63c-3.81,-1.18 -7.21,-2.3 -11.03,-3.46 -5.61,-1.71 -20.94,-3.71 -26.86,-1.79zm-101.44 56.61c2.29,3.02 11.04,7.25 15.97,9.28 11.45,4.71 9.69,3.64 17.24,-1.98 4.68,-3.49 10.98,-10.04 12.88,-11.36 4.02,-2.79 2.26,-3.49 4.28,-7.44 1.93,-3.77 4.94,-4.36 6.34,-5.79 -1.27,-1.73 -2.46,-2.32 -3.8,-4.75 -3.08,-5.59 -5.72,-4.29 -7.94,-16.23 -2.55,0.19 -2.04,0.76 -4.3,1.37 -3.61,0.97 -6.61,-0.33 -10.21,5.77 -7.29,12.34 -9.45,13.1 -19.81,21.35 -2.12,1.68 -9.82,7.57 -10.65,9.79z"/>
   <path class="fil1" d="M295.19 90.24c-1.08,1.14 -3.95,1.56 -5.98,1.48 -2.94,-0.12 -2.73,-2 -2.53,-4.42 0.44,-5.23 4.04,-4.5 9.94,-4.46 0.06,2.1 0.18,6.01 -1.43,7.4zm95.56 -17.72l-0.25 35.24c0.04,6.41 1.49,6.76 7.93,11.14 4.71,3.2 7.47,6.28 13.94,6.4 4.66,0.08 25.93,0.33 28.6,-0.58 1,-10.91 3.05,-45.04 3.22,-53.19 -6.99,-0.1 -14.32,0.21 -21.33,0.46 0.3,7.79 -1,22.85 -1.4,31.85 -0.43,9.85 -1.89,8.38 -10.17,8.82l0.72 -41.09c-3.36,0.04 -20.17,-0.64 -21.26,0.96zm-37.46 20.82c-3.68,-0.42 -3.66,-0.89 -3.69,-4.44 -0.02,-2.25 0.44,-4.56 1.09,-6.3l1.82 0c3.64,4.81 9.64,9.54 0.78,10.73zm-3.88 8.64l9.43 -0.23 -1.69 22.71 22.18 -0.09c0.11,-3.46 -0.57,-7.38 -0.95,-10.92l-1.09 -21.8c-0.2,-8.58 -0.33,-7.4 -9.57,-14.96 -11.92,-9.76 -7.61,-6.13 -32.01,-6.43l-6.96 -0.4c-0.06,4.69 -0.05,9.35 -0.26,13.91 -0.21,4.39 -0.88,9.03 -0.9,13.39 -0.03,9.14 -1.91,17.78 -2,26.45l21.36 0.52c0.41,-3.41 1.62,-20.65 2.46,-22.13zm-95.62 28.91l0.86 -21.36c0.22,-2.94 1.42,-20.59 0.7,-21.81 -5,0 -15.32,-1.06 -19.37,-0.32 -3.75,5.96 -0.59,17.13 -4.78,20.76 0.01,3.06 -6.66,2.12 -6.98,1.91 -1.72,-1.11 -0.3,-12.27 -0.1,-15.27 0.3,-4.44 0.02,-7.11 0.55,-11.8 0.21,-1.89 -0.19,-2.36 2.03,-2.27 7.28,-1.76 20.94,-0.42 28.98,-0.97 -0.09,-4 2.26,-8.6 0.86,-9.85 -0.52,-0.37 -50.17,-2 -51.65,-0.78 -1.62,1.98 -1.62,34.89 -0.22,37.39 1.25,2.23 7.42,8.45 9.36,11.52 4.12,6.5 5.52,3.9 17.32,5.39 2.07,5.12 -0.53,6.48 7.46,6.88 4.27,0.22 10.87,1.11 14.96,0.59zm12.49 -60.89c0.73,9.47 -3.01,53.43 -2.96,53.68 3.4,1.22 18.42,1.17 22.58,0.61 -0.11,-3.32 -0.46,-18.99 0.98,-21.88 6.33,0.71 5.96,3.15 7.28,3.23l-0.76 26.32c5.66,0.03 16.64,0.59 22.21,-0.61 0.9,-1.91 1.94,-23.13 1.21,-25.54 -1.69,-2.18 -10.28,-4.35 -10.43,-7.47 2.48,-0.77 10.45,-0.09 11.24,-1.73l1.1 -15.95c-2.03,-2 -15.06,-10.42 -19.98,-10.74 -10.36,-0.67 -21.8,0.3 -32.48,0.08z"/>
   <path class="fil2" d="M324.32 149.12c0.74,1.81 0.9,5.97 -0.42,7.28 -1.4,1.24 -4.94,0.67 -6.8,0.23 -0.36,-1.04 -0.5,-5.7 0.13,-6.96 0.79,-1.58 5.35,-1.02 7.09,-0.54zm-125.86 -18.65c-0.87,5.84 0.6,5.31 6.96,4.26 3.49,-0.58 7.62,-1.25 10.75,-2.08 0.22,-2.39 -0.28,-4.18 -1.69,-5.47 -5.18,-0.96 -13.17,1.09 -16.03,3.28zm25.97 18c1.19,-1.98 1.39,-6.11 0.93,-8.4 -3.48,-1.32 -13.39,-1.11 -17.9,-1.05 -3.22,0.04 -6.21,-0.01 -9.43,-0.09 -1.96,-0.05 -6.84,-0.7 -8.09,0.34 -1.51,1.52 -1.52,14.87 -1.78,18.01 -0.45,5.39 -1.46,13.76 -1.13,18.84 1.29,0.28 27.2,1.64 31.86,1.48 0.54,-0.02 1.65,-0.05 2.14,-0.12 3.67,-0.56 4.23,-5.76 3.56,-8.81 -6.14,-1.88 -16.58,0.42 -22.73,-1.26 -0.31,-1.78 -0.12,-3.57 0.39,-5.02 3.88,-1.03 9.88,0.68 9,-6.7 -1.99,-0.97 -6.06,-0.69 -8,-1.6 -1.31,-0.61 -1.61,-1.93 -1.11,-3.49 0.41,-1.3 1.17,-1.44 2.88,-1.66 6.05,-0.78 13.46,0.2 19.42,-0.48zm198.54 8.35c-1.09,-8.95 4.78,-6.78 15.57,-6.99 12.31,-0.23 12.14,2.55 11.27,-10.59 -3.34,-1.29 -31.51,-0.65 -41.23,-0.63 -3.69,0.01 -3.07,0.4 -3.08,3.33l-1.16 41.67c0.25,1.74 -0.01,0.53 0.59,1.15 1.62,0.73 38.63,0.98 42.46,0.42 1.46,-1.9 3.01,-8.23 1.74,-10.7 -7.43,-0.56 -21.1,0.3 -27.26,-1.05 -0.24,-2.06 -0.2,-4.82 1.04,-6.27 2.27,-1.31 7.14,-0.39 9.48,-1.63 0.59,-1.35 1.1,-5.43 0.81,-6.98 -2.86,-0.8 -7.5,-0.68 -10.23,-1.73zm-26.83 -4.73c0.29,-1.48 0.63,-4.76 0.63,-6.26 -0.01,-2.29 0.07,-1.74 -5.77,-1.81 -5.09,-0.06 -10.7,0.03 -15.72,-0.22 -6.78,-0.34 -3.18,-5.32 -8.52,-5.61 -3.66,-0.2 -12.36,-0.8 -15.22,0.36 -0.84,3.35 -0.41,15.98 -0.61,20.37 -0.5,10.89 -1.13,9.8 4.61,16.67 7.13,8.54 6.29,8.5 14.33,8.94 6.55,0.36 18.06,1.09 24.25,0.46l2.59 -24.22c-2.31,-0.35 -17.23,-0.04 -18.27,0.63 -0.62,0.58 -0.31,-0.28 -0.59,1.35 -1.22,7.02 1.27,11.04 -3.95,10.97 -2.97,-0.04 -2.76,-0.51 -2.82,-2.66 -0.09,-3.27 -0.82,-17.47 0.45,-18.5 2.8,-1.34 19.62,0.1 24.64,-0.46zm-130.76 4.81c-0.22,-1.83 0.28,-3.92 1.2,-5.37 1.9,-3 7.56,-3.3 4.24,3.4 -1.01,2.03 -2.31,2.05 -5.44,1.97zm23.87 27.71c0.54,-2.34 0.36,-8.8 0.48,-11.63 0.28,-6.74 1.47,-31.92 0.77,-35.26 -3.09,-0.86 -21.23,0.07 -25.98,0.11 -5.88,0.05 -5.85,0.64 -8.63,3.27 -2.05,1.94 -4.05,3.55 -5.97,5.67 -4.72,5.23 -4.75,9.9 -5.06,17.19 -0.22,5.15 -2.08,15.49 -1.16,19.93 2.68,0.69 15.26,0.81 18.56,0.55 0.95,-5.32 0.19,-15.27 1.48,-19.57 1.55,-0.34 4.85,-0.61 5.97,0.32 2.41,2.7 -0.51,14.77 0.67,19.06 2.47,0.7 16.33,1.02 18.87,0.36zm45.85 -22.07c4.44,-1.49 7.42,1.28 7.93,-2.1 0.39,-2.54 0.51,-5.62 0.64,-8.24 0.46,-8.95 -0.74,-6.37 -7.46,-10.56 -6.68,-4.16 -6.18,-3.58 -16.53,-3.43 -4.85,0.07 -16.89,-0.58 -20.38,0.27 -1,2.76 -1.94,27.87 -2.41,34.49 -0.15,2.09 -0.19,4.18 -0.32,6.27l-0.26 4.34c0.13,0.91 0.25,0.73 0.37,0.95 1.2,0.36 15.17,1.06 17.67,0.55l0.71 -0.31c1.6,-3.79 -0.31,-13.8 1.45,-17.55 2.4,-0.36 5.6,1.11 6.4,2.3 1.76,2.62 -0.8,17.6 0.04,21.51 3.35,0.14 6.7,0.09 10.05,0.12 1.91,0.02 6.78,0.3 8.47,-0.11 0.11,-0.02 0.3,-0.03 0.37,-0.16 0.07,-0.14 0.25,-0.12 0.36,-0.19 0.62,-1.77 1.31,-19.99 0.79,-22.03 -2.32,-2.46 -8.37,-2.59 -7.89,-6.12z"/>
  </g>
 </g>
</svg>
