<?xml version="1.0" encoding="UTF-8"?>
<!DOCTYPE svg PUBLIC "-//W3C//DTD SVG 1.1//EN" "http://www.w3.org/Graphics/SVG/1.1/DTD/svg11.dtd">
<!-- Creator: CorelDRAW -->
<svg xmlns="http://www.w3.org/2000/svg" xml:space="preserve" width="34.3847mm" height="5.2938mm" version="1.1" style="shape-rendering:geometricPrecision; text-rendering:geometricPrecision; image-rendering:optimizeQuality; fill-rule:evenodd; clip-rule:evenodd"
viewBox="0 0 100.36 15.45"
 xmlns:xlink="http://www.w3.org/1999/xlink"
 xmlns:xodm="http://www.corel.com/coreldraw/odm/2003">
 <defs>
  <style type="text/css">
   <![CDATA[
    .fil0 {fill:black}
    .fil5 {fill:#101010}
    .fil3 {fill:#121212}
    .fil4 {fill:#2C1E1C}
    .fil1 {fill:#FDFDFD}
    .fil2 {fill:#FEC82D}
   ]]>
  </style>
 </defs>
 <g id="Camada_x0020_1">
  <metadata id="CorelCorpID_0Corel-Layer"/>
  <g id="_2415921764288">
   <path class="fil0" d="M3.03 4.06c-0.13,0.62 -0.37,0.66 -0.6,1.42 -0.3,0.99 -0.38,0.63 -0.81,1.25 -2.17,3.16 -1.54,3.4 -1.54,4.73 0,2.63 1.89,2.52 3.08,2.54 1.18,0.02 4.99,0.19 5.81,-0.35 1.03,-0.68 0.07,-0.65 2.39,-0.1 1.02,0.24 7.87,0.14 9.01,0.09 1.9,-0.09 0.89,-1.06 2.48,-0.56 5.72,1.82 5.71,-1.27 7.89,-0.31 1.74,0.76 3.59,1.08 5.47,1.02 2.19,-0.08 3.21,-0.43 5.03,-1.63 0.54,-0.36 1.8,0.54 2.43,0.76 1.73,0.61 3.76,0.88 5.53,0.67 0.99,-0.12 1.66,-0.44 2.56,-0.69 0.19,-0.05 2.08,0.57 2.49,0.69l4.44 0.04c0.73,-0.12 0.94,-0.59 1.13,-0.72 0.27,-0.18 0.73,0.29 1.08,0.38 2,0.54 2.28,0.39 4.33,0.36l4.26 -0.45c0.75,-0.17 0.62,-0.23 1.22,0.32 1.69,1.56 2.92,1.95 4.88,1.92 2.52,-0.04 1.79,-0.53 2.6,-0.79 0.88,-2.26 0.17,-1.64 0.09,-2.84 0.49,-0.24 1.06,0.29 1.54,0.44 0.54,0.17 1.42,0.02 1.73,0.15 0.17,0.07 0.45,0.38 0.65,0.5 0.24,0.14 0.5,0.24 0.77,0.31l5.02 0.72c1.05,-0.09 2.42,-0.53 3.43,-0.39 3.03,0.42 3.38,-1.8 6.08,-2.26 0.55,-0.09 1.11,-0.19 1.65,-0.35 0.71,-0.21 0.9,-0.1 1.06,-1.29 0.52,-3.78 -0.99,-3.5 -1.17,-3.75 -0.27,-0.66 -0.11,-0.91 -0.5,-1.66 -0.27,-0.52 -0.42,-0.73 -0.7,-1.31 -1.08,-2.26 -2.95,-1.72 -4.54,-1.18 -1.45,0.5 -1.15,0.1 -2.4,-0.18 -1.06,-0.24 -0.89,-1.09 -2.13,-1.37 -1.45,-0.33 -3.67,-0.4 -4.73,1.37 -0.3,0.5 -1.05,2.07 -1.26,2.68 -0.51,-0.13 -3.28,-2.09 -4.9,-1.85 -1.2,0.18 -2.9,1.77 -5.07,1.6 -0.35,-2.19 -1.95,-2.55 -3.47,-3.03 -2.6,-0.82 -3.35,1.36 -3.96,1.93 -0.82,-1.02 -0.84,-2.5 -2,-2.7 -0.99,-0.18 -2.45,-0.06 -3.48,-0.06 -1.23,-0 -2.19,-0 -2.91,1.16 -0.47,0.76 -1.35,2.65 -1.8,2.92 -0.31,-0.44 -0.39,-0.8 -0.64,-1.24 -0.72,-1.31 -1.58,-1.8 -2.67,-2.19 -2.14,-0.77 -5.06,-0.92 -7.27,-0.17 -0.35,0.12 -0.82,0.38 -1.11,0.44 -0.42,0.09 -0.43,-0.31 -0.85,-0.59 -0.91,-0.6 -3.92,-0.36 -5.1,-0.36 -1.38,0 -6.47,-0.41 -7.48,0.55 -0.42,0.4 -0.39,0.7 -1.01,0.37 -1.86,-0.99 -3.92,-1.14 -5.86,-0.55 -0.75,0.23 -1.43,0.6 -2.09,0.99 -0.79,0.46 -1.16,1.28 -1.72,1.62 -0.97,-1.92 -0.94,-2.68 -2.16,-2.89 -0.42,-0.07 -0.84,-0.06 -1.26,-0.06 -1.67,-0.02 -3.31,-0.02 -4.97,0.14 -1.37,0.14 -3.74,-0.46 -4.83,0.52 -0.32,0.29 -0.48,0.68 -0.77,0.91 -0.28,0.23 -0.67,0.27 -0.99,0.49 -0.83,0.57 -0.9,1.39 -1.43,1.89z"/>
   <path class="fil1" d="M24.77 4.51c0.83,-0.59 2.25,-0.17 2.19,1.48 -0.04,1.04 -0.87,2.8 -1.32,3.17 -0.78,0.64 -2.25,0.41 -2.19,-1.38 0.05,-1.46 0.58,-2.75 1.33,-3.27zm-3.91 0.22l-0.22 0.54c-0.1,0.22 -0.11,0.25 -0.2,0.54 -0.31,1 -0.36,2.08 -0.02,3.05 0.09,0.26 0.13,0.29 0.24,0.49l0.2 0.44c0.89,0.68 0.84,1.07 2.38,1.44 2.08,0.5 4.76,0.13 6.25,-2.52 0.18,-0.32 0.52,-1.36 0.73,-1.52 0.17,1.2 -1.08,3.4 2.25,4.1 1.73,0.36 4.81,0.49 6.46,-0.78 1.08,-0.83 1.34,-2.54 1.93,-5.07 0.2,-0.88 0.58,-2.27 0.68,-3.13l-2.93 -0.02c-0.25,0.71 -0.91,4.31 -1.31,5.74 -0.31,1.08 -0.55,1.37 -1.44,1.49 -0.92,0.12 -1.41,0.02 -1.95,-0.7 -0.01,-0.99 1.15,-5.07 1.32,-6.54l-3.81 -0.01c-0.24,1.37 -0.56,2.51 -0.83,3.59 -1.15,-0.25 -0.16,-1.25 -1.78,-2.58 -0.83,-0.68 -1.68,-0.9 -2.69,-1.01 -0.96,-0.1 -2.12,0.08 -3,0.49 -1.14,0.54 -1.47,1.23 -2.26,1.97z"/>
   <path class="fil2" d="M74.38 7.33c0.37,-0.38 1.16,-0.29 1.61,-0.41 1.4,-0.38 2.43,-1.28 2.84,-0.56 0.21,0.37 0.59,1.13 0.64,1.85 -0.53,0.33 -1.83,0.42 -2.5,0.68 -1.62,0.63 -1.93,1.18 -2.13,-0.09 0.79,-0.81 2.54,-0.4 3.43,-1.03 -0.15,-1.11 -1.4,-0.55 -2,-0.34 -1.32,0.46 -1.69,0.99 -1.88,-0.11zm9.88 1.92c-0.39,-0.2 -1.16,-1.67 -2.43,-2.61 -0.47,-0.35 -0.92,-0.68 -1.4,-0.98 -0.64,-0.4 -1.37,-0.06 -1.73,-0.42 -0.31,-0.32 -0.06,-0.51 -0.6,-0.29 -0.26,0.11 -0.55,0.26 -0.82,0.38 -1.42,0.65 -2.78,0.93 -4.24,1.12 -0.49,0.06 -0.59,-0.07 -0.56,0.73 0.47,0.65 0.3,-0.54 0.9,1.03 -0.06,0.36 -0,0.08 -0.14,0.34 -0.02,0.05 -0.08,0.06 -0.16,0.25 0.6,0.75 0.78,0.63 0.56,2.37 -0.7,-0.1 -2.19,-3.35 -2.58,-4.55 -0.51,-1.6 -0.53,-2.5 -1.02,-2.82 -0.68,-0.44 -1.56,-0.9 -2.04,-0.17 -0.14,1.56 0.7,3.07 0.08,4.85 -0.6,-0.11 -1.5,-2.07 -1.77,-2.79 -2.27,-0.17 -1.32,0.74 -1.65,2.98 -0.1,0.69 -0.37,1.53 -0.39,2.13 1.98,0.86 1.52,-0.01 1.92,-1.97 0.39,0.27 0.82,1.28 1.12,1.76 0.41,0.67 1.34,0.58 1.98,0.41 0.41,-0.76 0.43,-2.22 0.42,-3.43 0.26,0.17 0.14,0.01 0.35,0.5 1.45,3.49 3.04,5.25 5.89,5.24 -0.16,-0.46 -0.86,-0.57 -1.56,-1.21 -0.27,-0.24 -0.38,-0.35 -0.52,-0.72 2.1,0 1.1,-0.35 3.42,-1.49 0.51,-0.25 1.21,-0.56 1.77,-0.65 1.01,-0.15 0.87,0.87 1.7,0.85 0.26,-0.56 0.36,-1.42 0.6,-1.84 0.66,0.43 1.4,1.41 1.82,2.14 0.41,0.7 0.34,0.66 1.1,0.71 0.46,0.03 1.11,0.26 1.51,0.17 0.14,-1.63 0.47,-4.24 0.88,-5.44l1.08 -0.04c-0.15,1.54 -0.97,3.6 -0.43,5.29 0.32,1.01 0.76,0.57 1.41,0.5 0.35,-0.04 1.07,-0.04 1.27,-1.01l-1.37 -0.37c-0.08,-1.27 0.37,-2.71 0.66,-3.39 0.58,-1.34 0.84,-1.02 2,-1.19 0.76,-0.11 1.53,-0.23 2.29,-0.44 0.36,-0.1 0.71,-0.21 1.06,-0.38 0.18,-0.09 0.35,-0.18 0.5,-0.31 0.27,-0.23 0.26,-0.2 0.39,-0.57l-0.21 -0.13c-0.02,-0.01 -0.05,-0.01 -0.08,-0.02l-4.88 0.88c-0.1,-0.25 -0.02,-0.03 -0.06,-0.4 -0.05,-0.49 0.12,0.21 -0.03,-0.39 -2.48,-0.14 -1.08,0.73 -2.28,0.98 -0.3,0.06 -0.62,0.09 -0.94,0.03 0.07,-0.97 0.72,-1.67 0.89,-2.4 -1.42,-0.22 -1.65,-0.06 -2.51,2.1 -1.13,2.85 -0.78,3.31 -1.16,4.65z"/>
   <path class="fil1" d="M45.64 11.46c1.48,0.12 2.99,0.02 4.39,-0.57 1.07,-0.45 2.62,-1.69 2.91,-2.97 -5.62,-0.51 -3.06,0.99 -5.27,1.39 -0.54,0.1 -1.43,0.16 -1.8,-0.3 -0.38,-0.47 -0.38,-1.7 -0.09,-2.62 0.18,-0.57 0.7,-1.47 1.05,-1.76 0.49,-0.41 1.23,-0.43 1.8,-0.34 0.91,0.15 0.8,0.5 1.18,1.48l0.27 0.01 3.2 0.04c0.27,-4.79 -7.34,-3.69 -9.24,-2.62 -1.14,0.64 -3.48,2.68 -2.52,5.35 0.78,2.17 2.32,2.43 4.14,2.9z"/>
   <path class="fil1" d="M58.72 9.14c0.12,-0.51 1.65,-3.38 1.91,-3.6 0.23,0.6 0.47,2.7 0.53,3.61l-2.44 -0zm-5.1 2.27l3.34 0.07c1.1,-0.01 0.47,-1.2 1.61,-1.18l2.33 0.04c0.62,0.01 0.41,0.14 0.55,1.04l1.96 0.03c-0.08,-1.45 -0.06,-0.86 0.2,-2.19 0.65,-3.35 -0.23,-4.37 -0.73,-6.91 -1.05,-0.13 -2.55,-0.07 -3.63,-0.02 -0.58,0.03 -0.48,0.18 -1.1,1.23l-2.74 4.72c-0.36,0.6 -1.7,2.52 -1.79,3.19z"/>
   <path class="fil2" d="M6.47 8.26c0.07,-0.23 0.74,-1.5 0.87,-1.7 0.37,-0.57 1.21,-0.38 1.73,-0.27 -0.24,0.59 -0.58,1.05 -0.89,1.56 -0.39,0.64 -1.04,0.41 -1.71,0.41zm-1.7 -2.09l0.74 0.07c0.02,0.4 -0.76,1.99 -1.4,2.03 -0.71,0.04 -0.62,-0.18 -1,0.6 -0.2,0.41 -0.5,0.77 -0.65,1.28 0.18,0.17 0.49,0.13 0.69,0.18 -0.22,0.89 -0.51,0.51 -0.6,1.45 1.2,0.02 1.65,0.34 2.1,-0.56 0.51,-1.03 0.69,-0.96 1.96,-0.92 -0.15,0.87 -0.42,0.73 -0.61,1.47 0.36,0.03 1.31,0.12 1.63,0.03 0.46,-0.13 0.57,-0.9 0.91,-1.26 0.8,-0.84 1.14,0.74 2.11,-2.01l-0.28 -0.21c-0.12,-0.06 -0.12,0.03 -0.31,-0.09 0.1,-0.75 0.78,-1.97 1.42,-2.02 0.64,-0.05 0.58,0.01 0.93,-0.65 0.23,-0.44 0.48,-0.71 0.6,-1.32l-0.4 -0.04c-0.02,-0.01 -0.05,-0.02 -0.06,-0.03l-0.11 -0.07c0.18,-0.58 0.38,-0.77 0.54,-1.28 -3.18,-0.68 -1.24,1.81 -4.04,1.35 0.02,-0.79 0.39,-0.68 0.56,-1.38 -2.5,-0.43 -1.89,0.61 -2.59,1.27 -0.51,0.47 -0.88,-0.16 -1.33,0.53 -0.25,0.38 -0.7,1.03 -0.82,1.6z"/>
   <path class="fil1" d="M17.69 11.44l1.94 -0 0.42 -1.74c0.03,-0.64 0.03,-0.43 -0.43,-0.47l-4.39 0.05c0.16,-1.88 1.53,-5.41 1.57,-7.01 -0.59,-0.15 -1.53,-0.04 -2.17,-0.05 -0.46,-0.01 -0.75,-0.21 -0.85,0.4 -0.35,2.05 0.92,0.52 -0.82,3.6 -0.12,0.21 -0.36,0.67 -0.48,0.8 -0.31,0.33 -0.61,0.14 -0.77,0.47 -0.15,0.41 -0.08,0.5 -0.18,1 -0.08,0.4 -0.64,1.61 -0.69,2.96l6.83 0z"/>
   <path class="fil2" d="M90.1 6.62l-0.02 0.59c0,0 1.32,0.35 0.76,1.44 -0.01,0.02 -0.04,0.06 -0.05,0.08 -0.01,0.02 -0.04,0.05 -0.05,0.08 0.84,1.25 0.42,-0.36 0.62,2.5 1.79,0.52 2.41,-1.31 5.34,-2.02l1.52 -0.35c0.45,-0.17 0.26,-0.03 0.36,-0.5 -0.81,-1.06 -5,1.15 -5.9,1.19 -0.09,-0.26 -0.16,-0.52 -0.16,-0.91l3.46 -0.95c-0.64,-1.74 -2.72,0.5 -3.83,0.15l-0.21 -0.56 0.27 -0.2c0.43,-0.18 3.58,-0.4 4.25,-1.58l-0.37 -0.72c-0.64,0.06 -2.05,0.88 -2.86,1.13 -0.9,0.28 -2.45,0.31 -3.14,0.64z"/>
   <path class="fil3" d="M45.64 11.46c-1.82,-0.47 -3.36,-0.72 -4.14,-2.9 -0.96,-2.67 1.38,-4.71 2.52,-5.35 1.9,-1.07 9.52,-2.17 9.24,2.62l-3.2 -0.04c0.31,0.38 3.23,0.62 3.42,0.28 0.95,-2.93 -2.96,-4.15 -4.16,-4.28 -2.73,-0.3 -3.54,0.33 -5.9,1.42 -0.6,0.28 -1.37,1.15 -1.74,2.03 -0.58,1.37 -1,3 -0.03,4.54 1.13,1.79 4.44,2.77 5.19,1.99 -0,0 -0.5,0.02 -0.52,0.02 -0.41,0 -0.51,-0.03 -0.69,-0.32z"/>
   <path class="fil4" d="M74.38 7.33c0.2,1.1 0.56,0.57 1.88,0.11 0.6,-0.21 1.84,-0.77 2,0.34 -0.89,0.63 -2.63,0.22 -3.43,1.03 0.2,1.27 0.52,0.73 2.13,0.09 0.67,-0.26 1.98,-0.35 2.5,-0.68 -0.05,-0.72 -0.43,-1.48 -0.64,-1.85 -0.41,-0.72 -1.44,0.18 -2.84,0.56 -0.44,0.12 -1.24,0.03 -1.61,0.41z"/>
   <path class="fil4" d="M6.47 8.26c0.67,0 1.32,0.23 1.71,-0.41 0.31,-0.51 0.66,-0.97 0.89,-1.56 -0.52,-0.1 -1.36,-0.3 -1.73,0.27 -0.13,0.2 -0.8,1.47 -0.87,1.7z"/>
   <path class="fil5" d="M20.05 9.69l-0.42 1.74 -1.94 0c0.19,0.58 1.35,1.36 1.76,0.8 0.3,-0.41 0.63,-2.02 0.96,-2.77 0.45,0.35 0.29,0.58 0.45,0.34l-0.2 -0.44c-0.11,-0.19 -0.14,-0.23 -0.24,-0.49 -0.35,-0.98 -0.29,-2.06 0.02,-3.05 0.09,-0.29 0.1,-0.32 0.2,-0.54l0.22 -0.54c-0.13,-0.17 0.03,-0.1 -0.55,0.26 -0.15,2.25 -0.49,0.35 -0.16,3.8l0.06 0.16c0.01,1.32 0.01,0.34 -0.15,0.73z"/>
  </g>
 </g>
</svg>
