<?xml version="1.0" encoding="UTF-8"?>
<!DOCTYPE svg PUBLIC "-//W3C//DTD SVG 1.1//EN" "http://www.w3.org/Graphics/SVG/1.1/DTD/svg11.dtd">
<!-- Creator: CorelDRAW -->
<svg xmlns="http://www.w3.org/2000/svg" xml:space="preserve" width="24.3436mm" height="16.7884mm" version="1.1" style="shape-rendering:geometricPrecision; text-rendering:geometricPrecision; image-rendering:optimizeQuality; fill-rule:evenodd; clip-rule:evenodd"
viewBox="0 0 51.47 35.49"
 xmlns:xlink="http://www.w3.org/1999/xlink"
 xmlns:xodm="http://www.corel.com/coreldraw/odm/2003">
 <defs>
  <style type="text/css">
   <![CDATA[
    .fil1 {fill:black}
    .fil3 {fill:#020202}
    .fil4 {fill:#E1E1E1}
    .fil2 {fill:#FDFDFD}
    .fil0 {fill:#FEFEFE}
   ]]>
  </style>
 </defs>
 <g id="Camada_x0020_1">
  <metadata id="CorelCorpID_0Corel-Layer"/>
  <g id="_2418044189888">
   <path class="fil0" d="M11.05 13.64c0.31,2.26 -1.41,4.08 -3.09,4.35 -2.18,0.35 -3.83,-1.4 -4.04,-3.22 -0.57,-5.04 6.41,-6.35 7.13,-1.13zm5.59 4.97c0.28,1.41 -0.8,2.68 -1.89,2.89 -1.54,0.29 -2.57,-0.91 -2.76,-2.06 -0.5,-3.1 3.94,-4.42 4.65,-0.83zm-1.06 -7.65c1,-0.13 1.71,-0.47 1.47,0.85 -0.14,0.04 -1.01,0.18 -1.19,0.14 -0.43,-0.08 -0.35,-0.53 -0.28,-1zm4.26 3.46c-0.35,0.19 -0.9,0.26 -1.46,0.12 -0.14,-0.42 -0.18,-0.47 -0.06,-0.92 1.9,-0.48 1.59,0.21 1.52,0.8zm2.39 -2.85c-1.74,0.51 -1.63,-0.54 -1.37,-0.84 0,-0 1.84,-0.75 1.37,0.84zm3.98 6.63c0.45,3.18 -4.25,4.09 -4.68,0.75 -0.43,-3.27 4.18,-4.24 4.68,-0.75zm4.19 -1.23c-1.87,-0.11 -2.9,-1.04 -3.44,-2.38 -1.21,-2.97 1.69,-6.53 4.94,-5.06 1.85,0.84 1.9,2.82 2.14,3.41 0.28,-0.44 0.41,-1.86 0.53,-2.43 0.28,-1.39 0.43,-1.25 -0.38,-2.07 -1.41,-1.43 -1.77,-1.46 -4.21,-1.71 0.07,-2.79 -0.23,-2.38 -3,-2.26 -0.44,0.02 -1.97,0.09 -2.29,0.3 -0.6,0.37 -0.33,1.5 -0.39,2.17 -0.57,0.17 -3.97,0.34 -4.43,0.17 -0.06,-0.86 0.3,-1.2 -0.62,-1.22 -2.42,-0.03 -1.42,0.36 -1.82,1.45l-4.06 0.2c-0.01,-1.92 0.11,-2.44 -1.94,-2.29 -1.19,0.09 -2.89,-0.08 -3.68,0.55 -0.15,0.63 0.07,1.57 -0.24,2.03 -0.33,0.12 -0.81,0.09 -1.14,0.18 -0.37,0.1 -0.69,0.22 -1.01,0.39 -2.14,1.07 -2.76,2.91 -3.1,5.35 -0.45,3.25 -1.15,6.99 -1.4,10.2 -0.26,3.34 2.81,5.54 5.87,3.76 0.99,-0.57 1.64,-2.01 2.3,-3.29 0.32,-0.63 1.64,-3.33 1.96,-3.65 0.19,0.18 1.15,2.6 3.92,2.07 1.9,-0.36 2.41,-1.77 2.99,-2.83l2.54 -0.1c0.59,1.17 1.19,2.64 3.47,2.54 0.83,-0.04 1.66,-0.38 2.11,-0.79 0.8,-0.74 0.86,-1.15 1.27,-1.62 0.46,0.28 1.8,3.23 2.21,3.42 0.28,-0.7 0.28,-2.52 0.34,-3.38 0.18,-2.56 -0.05,-1.14 0.56,-3.11z"/>
   <path class="fil1" d="M28.13 12.05c1.66,-0.41 1.84,2.06 0.47,2.28 -1.52,0.25 -1.72,-1.97 -0.47,-2.28zm2.02 -2.19c1.54,-0.21 1.65,2.17 0.28,2.33 -1.67,0.2 -1.5,-2.17 -0.28,-2.33zm0.07 4.1c1.5,-0.22 1.7,2.07 0.38,2.33 -1.56,0.31 -1.73,-2.14 -0.38,-2.33zm2.97 -1.48c0.68,1.54 -1.39,2.28 -1.95,1.06 -0.62,-1.33 1.28,-2.57 1.95,-1.06zm0.68 1.53c0,0 0.27,0.06 0.08,0.7 -0.12,0.41 -0.16,0.3 -0.37,0.39 -0.15,-0.28 0.1,-0.78 0.29,-1.09zm-3.47 2.97c-0.61,1.97 -0.38,0.55 -0.56,3.11 -0.06,0.85 -0.07,2.68 -0.34,3.38 -0.41,-0.19 -1.75,-3.14 -2.21,-3.42 -0.41,0.47 -0.47,0.88 -1.27,1.62 -0.45,0.41 -1.28,0.75 -2.11,0.79 -2.29,0.1 -2.88,-1.37 -3.47,-2.54l-2.54 0.1c-0.58,1.05 -1.09,2.46 -2.99,2.83 -2.77,0.53 -3.74,-1.89 -3.92,-2.07 -0.32,0.33 -1.64,3.02 -1.96,3.65 -0.65,1.29 -1.31,2.72 -2.3,3.29 -3.06,1.78 -6.13,-0.42 -5.87,-3.76 0.25,-3.21 0.95,-6.94 1.4,-10.2 0.34,-2.44 0.95,-4.28 3.1,-5.35 0.32,-0.16 0.64,-0.29 1.01,-0.39 0.33,-0.09 0.81,-0.07 1.14,-0.18 0.32,-0.46 0.09,-1.4 0.24,-2.03 0.79,-0.63 2.5,-0.47 3.68,-0.55 2.05,-0.15 1.93,0.37 1.94,2.29l4.06 -0.2c0.4,-1.09 -0.6,-1.47 1.82,-1.45 0.92,0.01 0.56,0.36 0.62,1.22 0.47,0.17 3.86,0.01 4.43,-0.17 0.06,-0.67 -0.21,-1.8 0.39,-2.17 0.33,-0.2 1.85,-0.28 2.29,-0.3 2.77,-0.13 3.07,-0.53 3,2.26 2.44,0.24 2.8,0.28 4.21,1.71 0.81,0.82 0.66,0.68 0.38,2.07 -0.12,0.58 -0.25,2 -0.53,2.43 -0.24,-0.6 -0.29,-2.57 -2.14,-3.41 -3.26,-1.47 -6.16,2.09 -4.94,5.06 0.55,1.33 1.57,2.27 3.44,2.38zm3.28 4.95c0.2,0.53 0.02,1.65 -0,2.28 -0.03,0.93 0.49,0.86 1.28,1.11 -0.16,0.51 0.05,0.2 -0.4,0.52 -0.41,0.29 -0.65,0.47 -0.91,1.19 -1.09,-0.09 -2.17,-0.46 -2.65,-1.12 0.79,-0.47 1.39,-0.06 1.92,-1.35 0.34,-0.81 0.32,-1.96 0.76,-2.63zm3.17 12.53c-0.62,-0.35 -0.68,-0.91 -0.97,-1.52 -0.35,-0.73 -0.6,-0.07 -1.03,-1.5 -0.3,-0.98 -0.75,-3.14 -0.35,-4.27 0.41,-1.14 2.86,-0.91 4.2,-0.65 1.69,0.32 2.41,0.73 3.67,1.44 0.05,0.72 -0.47,1.75 -0.74,2.37 -1.02,2.36 -2.28,2.29 -3.08,2.88 -0.59,0.43 -0.94,0.97 -1.69,1.25zm-2.29 -14.07c0.65,0.11 2.39,1.14 4.5,1.64 2.12,0.5 3.41,0.42 5.52,0.62 -0.37,1.16 -1.14,2.44 -1.67,3.46 -1.81,-0.23 -7.08,-1.14 -8.37,-1.89l0.02 -3.83zm0.13 -4.8c0.21,-1.17 0.21,-2.48 0.44,-3.68 0.2,-1.07 0.43,-2.14 0.75,-3.14 1.21,-3.8 3.68,-6.63 7.63,-7.65 0.79,-0.21 1.01,0.1 1.4,0.52 3.45,3.76 4.14,7.84 2.72,13.05 -0.25,0.93 -0.75,2.09 -0.94,2.97 -0.3,1.39 3.08,2.31 2.15,4.91 -0.65,1.79 -1.37,3.93 -2.14,5.59 -0.61,-0.13 -1.1,-0.5 -1.33,-0.87 -0.01,-0.99 0.37,-1.99 0.37,-3.08 -0,-0.97 -0.28,-1.7 -0.4,-2.59 -0.54,0.19 -0.5,0.39 -1.32,0.46 -1.49,0.13 -3.17,-0.07 -4.58,-0.44 -0.97,-0.25 -1.87,-0.5 -2.71,-0.84 -2.17,-0.87 -1.43,-0.77 -2.33,-1.23 -1.74,0.9 -1.89,4.08 -2.26,4.78 -0.21,0.39 -1.37,1 -1.68,0.18 -0.2,-0.53 0.3,-5.94 0.36,-6.18 0.42,-1.85 3.03,-2.08 3.89,-2.75zm15.2 -10.08c-0.23,-0.25 -0.7,-1.82 -2.6,-3.98 -1.39,-1.58 -2.43,-1.93 -4.77,-1.05 -2.42,0.91 -4.42,2.33 -5.72,4.37 -0.48,0.75 -0.78,1.47 -1.26,2.23 -0.46,-0.06 -0.93,-0.47 -1.39,-0.64 -0.51,-0.19 -1.17,-0.27 -1.64,-0.43 -0.18,-1.07 -0.26,-2 -1.51,-2.25 -1.42,-0.28 -5.78,-0.53 -6.83,0.31 -1.51,1.2 0.24,2.3 -1.83,2.01l-0.09 -0.68c-1.24,-0.25 -3.84,-0.79 -5,-0.12 -0.63,0.37 -0.36,0.62 -0.78,1.13 -1.13,0.06 -0.46,-1.28 -1.87,-1.77 -1.28,-0.45 -5.6,-0.43 -6.58,-0.04 -0.78,0.31 -1.08,0.8 -1.21,1.59 -0.29,1.71 -0.18,0.32 -2.2,1.6 -2.29,1.46 -2.77,3.17 -3.19,5.72 -0.29,1.76 -1.4,9.63 -1.39,10.96 0.01,1.72 0.88,3.22 1.82,3.92 1.91,1.42 6.31,2.17 8.31,-1.03 0.38,-0.6 0.68,-1.24 1.03,-1.9 0.33,-0.63 0.76,-1.38 1.05,-2.01 2.21,0.59 4.58,1.35 6.6,-0.52 0.64,-0.59 0.67,-0.84 1.21,-1.68 0.53,0.49 0.49,0.87 1.31,1.42 1.01,0.68 3.42,1.2 4.65,0.98 0.97,-0.17 1.37,-0.59 2.01,-0.74 0.34,0.39 1.33,2.36 1.95,3.21 0.88,1.21 1.7,1.55 3.53,1.89 0.13,0.72 0.09,1.44 0.22,2.19 0.55,3.12 1.06,2.52 1.57,3.5 0.16,0.31 0.26,0.58 0.44,0.86 0.25,0.37 0.39,0.41 0.57,0.77l2.71 0.18c0.32,-0.27 0.65,-0.43 0.95,-0.71 0.33,-0.31 0.44,-0.53 0.91,-0.73 3.44,-1.48 3.17,-4.32 4.15,-5.76 0.46,0.17 0.96,0.73 1.62,0.79 0.63,0.06 0.21,-0.25 1.02,0.06 0.24,0.09 0.49,0.24 0.81,0.29 1.07,-1.33 1.74,-3.74 2.46,-5.59 1.08,-2.79 0.59,-2.96 -1.41,-5.26 -0.68,-0.77 -0.3,-0.82 0.33,-2.95 0.64,-2.16 1.08,-4.82 0.8,-7.08 -0.24,-1.89 -0.53,-2.01 -0.72,-3.06z"/>
   <path class="fil0" d="M32.14 20.55c0.18,0.25 0.16,0.58 -0,0.87 -0.78,0.15 -0.82,-0.32 -0.54,-0.87l0.55 0.01zm-0.33 -1.48c-0.3,-1.67 1.16,-1.44 1.45,-0.76 0.24,0.55 -0.33,1.66 -1.45,0.76zm12.63 -9.7c0.43,1.4 -0.66,2.9 -1.62,3.18 -3.57,1.04 -3.95,-4.16 -1.45,-4.95 0.76,-0.24 1.47,-0.04 2.05,0.33 0.61,0.4 0.79,0.73 1.02,1.44zm2.74 14.29c0.16,0.21 0.01,0.65 -0.07,0.89l-0.6 -0.1c-0.18,-0.74 -0.04,-0.96 0.68,-0.79zm-0.51 -1.53c-0.01,-0.62 0.47,-1.39 1.19,-1.08 0.72,0.31 0.23,1.24 -0.11,1.59 -0.47,-0.01 -0.81,-0.25 -1.08,-0.51zm-11.97 -6.53c-0.86,0.67 -3.48,0.9 -3.89,2.75 -0.06,0.25 -0.56,5.65 -0.36,6.18 0.31,0.82 1.48,0.21 1.68,-0.18 0.37,-0.7 0.52,-3.88 2.26,-4.78 0.9,0.47 0.16,0.36 2.33,1.23 0.84,0.34 1.74,0.59 2.71,0.84 1.4,0.37 3.08,0.57 4.58,0.44 0.83,-0.07 0.78,-0.27 1.32,-0.46 0.12,0.9 0.4,1.62 0.4,2.59 0,1.09 -0.38,2.08 -0.37,3.08 0.23,0.37 0.71,0.74 1.33,0.87 0.77,-1.66 1.5,-3.79 2.14,-5.59 0.93,-2.59 -2.45,-3.51 -2.15,-4.91 0.19,-0.89 0.69,-2.04 0.94,-2.97 1.42,-5.21 0.73,-9.29 -2.72,-13.05 -0.39,-0.42 -0.61,-0.73 -1.4,-0.52 -3.95,1.02 -6.42,3.85 -7.63,7.65 -0.32,1 -0.54,2.07 -0.75,3.14 -0.23,1.19 -0.22,2.5 -0.44,3.68z"/>
   <path class="fil0" d="M36.85 34.46c0.75,-0.28 1.1,-0.83 1.69,-1.25 0.8,-0.58 2.06,-0.52 3.08,-2.88 0.27,-0.62 0.79,-1.65 0.74,-2.37 -1.26,-0.71 -1.97,-1.12 -3.67,-1.44 -1.33,-0.26 -3.79,-0.48 -4.2,0.65 -0.4,1.13 0.05,3.29 0.35,4.27 0.43,1.43 0.68,0.77 1.03,1.5 0.29,0.61 0.35,1.17 0.97,1.52z"/>
   <path class="fil0" d="M34.57 20.39l-0.02 3.83c1.29,0.76 6.56,1.67 8.37,1.89 0.53,-1.03 1.3,-2.31 1.67,-3.46 -2.11,-0.19 -3.4,-0.12 -5.52,-0.62 -2.11,-0.5 -3.85,-1.54 -4.5,-1.64z"/>
   <path class="fil1" d="M10.15 13.06c0.22,0.53 0.14,1.35 0.07,1.98l-1.69 0.13 -0.03 1.76c-0.46,0.22 -1.46,0.24 -1.99,0.06l0.02 -1.7 -1.76 0.05 -0.07 -2.05 1.71 -0.05 0.04 -1.74c0.48,-0.28 1.24,-0.3 1.94,-0.24l0.03 1.76c0.54,0.21 1.15,0 1.72,0.06zm0.9 0.58c-0.72,-5.22 -7.7,-3.91 -7.13,1.13 0.21,1.81 1.86,3.56 4.04,3.22 1.69,-0.27 3.41,-2.09 3.09,-4.35z"/>
   <path class="fil1" d="M44.44 9.36c-0.22,-0.72 -0.41,-1.05 -1.02,-1.44 -0.58,-0.38 -1.29,-0.58 -2.05,-0.33 -2.5,0.8 -2.12,5.99 1.45,4.95 0.96,-0.28 2.05,-1.77 1.62,-3.18z"/>
   <path class="fil1" d="M26.22 18.2c-0.5,-3.48 -5.11,-2.52 -4.68,0.75 0.43,3.33 5.14,2.43 4.68,-0.75z"/>
   <path class="fil1" d="M16.65 18.61c-0.71,-3.59 -5.15,-2.27 -4.65,0.83 0.18,1.14 1.21,2.35 2.76,2.06 1.09,-0.21 2.17,-1.48 1.89,-2.89z"/>
   <path class="fil0" d="M4.71 13.29l0.07 2.05 1.76 -0.05 -0.02 1.7c0.53,0.18 1.53,0.16 1.99,-0.06l0.03 -1.76 1.69 -0.13c0.07,-0.63 0.15,-1.45 -0.07,-1.98 -0.57,-0.06 -1.18,0.15 -1.72,-0.06l-0.03 -1.76c-0.7,-0.06 -1.46,-0.04 -1.94,0.24l-0.04 1.74 -1.71 0.05z"/>
   <path class="fil2" d="M33.69 21.93c-0.44,0.67 -0.42,1.82 -0.76,2.63 -0.53,1.29 -1.13,0.88 -1.92,1.35 0.48,0.66 1.55,1.03 2.65,1.12 0.26,-0.72 0.49,-0.9 0.91,-1.19 0.45,-0.32 0.24,-0.01 0.4,-0.52 -0.79,-0.25 -1.31,-0.18 -1.28,-1.11 0.02,-0.64 0.21,-1.75 0,-2.28z"/>
   <path class="fil0" d="M28.13 12.05c-1.25,0.31 -1.05,2.52 0.47,2.28 1.37,-0.22 1.19,-2.68 -0.47,-2.28z"/>
   <path class="fil0" d="M30.22 13.95c-1.35,0.19 -1.18,2.64 0.38,2.33 1.31,-0.26 1.12,-2.55 -0.38,-2.33z"/>
   <path class="fil0" d="M30.16 9.86c-1.21,0.17 -1.38,2.54 0.28,2.33 1.36,-0.17 1.26,-2.55 -0.28,-2.33z"/>
   <path class="fil0" d="M33.19 12.48c-0.67,-1.51 -2.57,-0.27 -1.95,1.06 0.57,1.22 2.63,0.48 1.95,-1.06z"/>
   <path class="fil1" d="M31.82 19.07c1.12,0.9 1.68,-0.21 1.45,-0.76 -0.29,-0.68 -1.75,-0.92 -1.45,0.76z"/>
   <path class="fil1" d="M46.67 22.12c0.27,0.26 0.61,0.5 1.08,0.51 0.34,-0.35 0.83,-1.28 0.11,-1.59 -0.71,-0.31 -1.2,0.46 -1.19,1.08z"/>
   <path class="fil3" d="M18.33 13.62c-0.12,0.45 -0.07,0.5 0.06,0.92 0.56,0.13 1.11,0.07 1.46,-0.12 0.06,-0.59 0.38,-1.28 -1.52,-0.8z"/>
   <path class="fil3" d="M15.59 10.96c-0.07,0.47 -0.14,0.91 0.28,1 0.18,0.03 1.05,-0.11 1.19,-0.14 0.24,-1.32 -0.47,-0.98 -1.47,-0.85z"/>
   <path class="fil3" d="M22.24 11.57c0.46,-1.59 -1.37,-0.84 -1.37,-0.84 -0.25,0.3 -0.37,1.35 1.37,0.84z"/>
   <path class="fil3" d="M47.18 23.65c-0.72,-0.18 -0.85,0.05 -0.68,0.79l0.6 0.1c0.09,-0.24 0.24,-0.68 0.07,-0.89z"/>
   <path class="fil3" d="M32.14 20.55l-0.55 -0.01c-0.28,0.55 -0.24,1.02 0.54,0.87 0.16,-0.28 0.18,-0.62 0,-0.87z"/>
   <path class="fil4" d="M33.87 14c-0.19,0.31 -0.44,0.8 -0.29,1.09 0.22,-0.09 0.25,0.02 0.37,-0.39 0.19,-0.64 -0.08,-0.7 -0.08,-0.7z"/>
  </g>
 </g>
</svg>
