<?xml version="1.0" encoding="UTF-8"?>
<!DOCTYPE svg PUBLIC "-//W3C//DTD SVG 1.1//EN" "http://www.w3.org/Graphics/SVG/1.1/DTD/svg11.dtd">
<!-- Creator: CorelDRAW -->
<svg xmlns="http://www.w3.org/2000/svg" xml:space="preserve" width="58.9421mm" height="11.6792mm" version="1.1" style="shape-rendering:geometricPrecision; text-rendering:geometricPrecision; image-rendering:optimizeQuality; fill-rule:evenodd; clip-rule:evenodd"
viewBox="0 0 706.88 140.07"
 xmlns:xlink="http://www.w3.org/1999/xlink"
 xmlns:xodm="http://www.corel.com/coreldraw/odm/2003">
 <defs>
  <style type="text/css">
   <![CDATA[
    .fil0 {fill:black}
    .fil4 {fill:#030303}
    .fil5 {fill:#060000}
    .fil6 {fill:#060606}
    .fil2 {fill:#FC080D}
    .fil3 {fill:#FDFDFD}
    .fil1 {fill:#FEFEFE}
   ]]>
  </style>
 </defs>
 <g id="Camada_x0020_1">
  <metadata id="CorelCorpID_0Corel-Layer"/>
  <g id="_2377500122736">
   <path class="fil0" d="M675.3 132.85l-10.19 -0.95c-0.53,-13.79 0.79,-11.65 12.54,-11.85l-2.35 12.81zm-192.94 -14.41c-7.26,21.85 -44.82,16.94 -34.74,-6.9 8.19,-19.39 43.63,-19.84 34.74,6.9zm-91.44 -4.06c0.14,7.81 -9.5,14.39 -17.15,16.76 -8.72,2.7 -22.11,0.74 -25.71,-6.57 -5.65,-11.45 11.85,-34.38 38.77,-24.83 1.87,19.19 -25.59,12.63 -25.86,22.66 -0.28,9.86 11.77,5.74 15.91,2.95 4.29,-2.88 9.58,-9.97 14.04,-10.96zm110.28 0.76c7.96,-2.39 10.43,-22.85 27.26,-16.26 1.14,6.15 -3.01,11.17 -5.04,16.42 -3.21,8.31 -1.92,13.62 -4.7,17.55 -5.18,-0.75 -6.68,-1.35 -9.56,-3.69l0.07 -14.05c-3.91,1.79 -4.65,5.19 -6.86,8.64 -2.09,3.28 -4.22,5.55 -6,8.51 -7,0.6 -9.36,-0.31 -9.84,-6.91 -0.84,-11.57 2.66,-33.69 20.92,-26.27 -0.79,7.55 -5.16,9.92 -6.25,16.05zm-77.54 -1.37c5.59,1.15 12.32,3.38 16.17,5.71 -0.26,15.67 -30.76,18.56 -31.91,3.34 5.98,1.08 15.99,7.11 18.21,-0.44 -5.47,-2.79 -12.78,-1.51 -15.97,-6.9 -5.91,-11.06 18.81,-23.14 35.8,-16l0.28 8.23c-3.04,0.94 -6.18,1.63 -9.87,1.35l2.61 -7.01c-7.41,-0.14 -13.39,5.99 -15.32,11.71zm208.85 4.23c6.52,-3.34 10.51,-18.79 22.34,-19.98 12.89,-1.3 16.48,21.08 -6.03,17.48l5.47 -11.28c-10.71,-0.23 -17.18,21.94 -25.26,28.06 -7.5,-0.16 -7.34,-5.35 -12.74,-3 -5.39,2.34 -5.45,5.46 -13,2.13 -7.93,-3.49 -5.86,-1 -13.91,0.68 -19.27,4.03 -21.63,-17.92 -6.47,-29.21 6.33,-4.72 22.88,-8.58 29.66,-2.38 1.54,3.74 0.68,6.95 -3.25,8.1l-3.25 -6.45c-9.1,1.82 -23.9,14.06 -19.14,25.8 8.72,1.54 11.31,-10.61 14.45,-17.12 15.39,0.7 8.54,9.79 8.33,17.09 18.18,-4.89 2.95,-34.28 30.8,-29.72 -0.89,5.55 -5.82,13.53 -8.03,19.8zm-83.79 -19.65c8.79,-0.03 13.92,-2 20.84,2.66 1.16,8.52 -1.73,26.31 -6.52,31.37 -16.7,-0.41 -5.38,-15.41 -5.91,-28.77 -15.35,-0.89 -13.1,18.54 -19.47,28.6 -16.7,1.17 -9.57,-17.31 -5.6,-30.92 2.72,-9.3 11.76,-25.88 24.08,-17.32 -1.95,4.96 -6.38,7.92 -7.43,14.38zm-210.25 33.84c-8.19,0.53 -7.3,-4.59 -13.85,-2.11 -30.79,11.67 -28.38,-23.12 -5.3,-30.73 4.68,-1.54 12.19,-0.51 15.2,-3.6 2.1,-2.16 6.49,-19.06 22.52,-12.6 -0.7,4.22 -8.25,13.75 -10.81,22.5 -2.56,8.75 -2.6,19.79 -7.77,26.54zm339.99 -15.62l-11.87 -1.03c0.52,-11.27 1.46,-16.43 6.68,-23.79 5.91,-8.33 9.19,-9.88 22.79,-8.66 -3.03,6.91 -11.73,7.86 -17.6,33.49zm-287.94 -8.87c1.78,-13.05 -0.95,-11.35 -17.47,-13.15 -6.74,-0.73 -4.17,-0.23 -7.01,-4.52l-8.07 2.06c1.57,-5.19 3.4,-4.33 4.08,-9.1 -6.1,-5.63 -21.93,-7.31 -27.63,5.87 -6.54,15.13 -17.68,-0.1 -15.54,-14.75 2.65,-18.18 7.06,-56.8 20.55,-64.02 4.53,-2.43 12.3,-3.35 17.68,-2.67 15.51,1.96 21.7,22.65 26.95,35.84 12.05,30.3 9.55,21.94 12.72,50.22 0.92,8.19 2.35,13.24 -6.26,14.23zm12.95 1.15c-4.87,-8.09 -6.3,-64.94 -5.79,-78.09 0.37,-9.62 -1.01,-10.55 7.23,-13.37 17.15,-5.87 36.17,-9.56 51.59,-0.24 20.3,12.27 17.22,52.05 -15.17,65.25 -7.96,3.25 -12.33,3.69 -13.87,7.69 -3.41,8.87 -2.09,2.6 -11.78,9.03 -4.76,3.15 -7.5,6.72 -12.2,9.72zm138.12 -30.08c-4.46,-12.22 -4.78,-38.35 -2.65,-52.59 2.01,-13.37 1.21,-12.68 14.19,-15.07 53.59,-9.88 67.54,26.04 57.08,48.13 -5.27,11.14 -10.79,8.78 -13.92,14.88 4.44,6.85 11.53,5.87 20.03,9.2l-2.06 11.46c-6.23,1.19 -13.03,-0.58 -19.52,0.41 -5.29,0.81 -9.05,3.16 -13.97,4.56 -4.24,-0.45 -7.54,-9.9 -7.98,-10.7 -0.02,-0.03 -1.17,-1.72 -1.32,-1.88 -1.94,-2.17 1.21,0.28 -2.32,-1.62l1.03 10.69c-4.85,-0.42 -11.99,-1.08 -14.98,-3.4 2.18,-3.98 4.64,-4.26 5.48,-8.87 -5.83,-7.38 -9.31,-3.65 -19.09,-5.19zm133.74 -34.15c-8.71,0.66 -24.36,-6.98 -34.27,-2.01 -1.98,12.26 11.44,1.41 19.07,8.3 4.92,4.44 2.88,15.55 0.43,21.9 -4.11,4.75 -18.91,-2.47 -18.61,6.23 7.77,3.54 23.76,-4.99 31.68,-5.98l4.64 6.9c-1.39,3.38 -9.82,12.29 -12.51,16.83 -4.83,-0.6 -7.99,-2.28 -13.57,-1.56 -7.76,1 -8.06,0.18 -15.24,-0.45 -14.49,-1.28 -14.32,4.13 -19.49,12.76 -3.54,-4.27 3.97,-10.94 3.51,-26.53 -7.21,-4.11 -9.16,-0.15 -7.24,-14.31 0.9,-6.62 3.52,-12.43 3.66,-19.17 0.31,-13.88 -8.51,-29.21 9.56,-32.6 11.83,-2.22 30.75,-3.72 42.91,-1.28 6.75,1.36 9.26,5.22 9.96,12.41 0.66,6.78 -0.97,13.69 -4.51,18.55zm-163.65 52.04c-1.64,-2.08 -2.49,-3.32 -3.42,-6.19 -4.69,0.2 -10,1.37 -13.93,2.68 -4.33,1.44 -6.39,1.8 -7.76,4.01 -1.02,1.64 0.23,-0.51 -0.58,1.33 -3.11,7.02 2.56,-2.36 -0.77,2.03 -14.59,-7.21 -7.04,-5.45 -26.86,-5.68 0.75,-34.65 17.73,-25.74 14.31,-55.8 -1.28,-11.27 -4.37,-21.04 5.45,-27.17 6.9,-4.3 21.87,-7.09 28.76,-1.78 11.08,8.54 33.21,64.71 29.46,74.75 -1.26,3.38 -4.13,8.65 -7.96,9.66 -3.03,0.79 -13.78,2.28 -16.69,2.16zm-213.61 -51.74c-4.16,-3.59 -8.13,-10.95 -15.26,-5.79 -9.74,7.05 -12.07,29.22 -1.97,37.45 8.58,6.99 11.23,-1.36 17.23,-4.59 9.19,2.42 19.74,12.92 21.5,22.81 -3.75,2.94 -7.6,4.23 -11.26,7.28 -3.49,2.91 -5.5,6.1 -11.44,7.3 -12.46,2.52 -22.58,0.77 -31.34,-4.68 -10.48,-6.52 -12.02,-10.53 -11.75,-26.64 0.21,-12.69 0.26,-25.74 -0.03,-38.42 -0.34,-14.76 3.16,-20.34 12.24,-26.15 22.47,-14.38 50.14,0.69 51.29,12.58 0.76,7.77 -11.86,17.43 -19.21,18.86zm-82.66 -35.67c35.66,-5 33.89,0.67 34.26,32.36 0.16,13.31 0.94,57.36 -3.44,66.26 -7.09,5.47 -25.68,4.56 -35.15,2.81 -3.73,-9.07 -10.08,-31.46 -16.42,-36.48 -0.32,10.4 2.93,21.8 1.72,32.42 -4.68,3.89 -17.84,6.29 -24.99,4.49 -6.43,-15.16 4.22,-29.25 4.27,-44.87 0.04,-14.9 -7.77,-32.89 -5.65,-46.3 3.63,-4.11 10.33,-6.47 17.74,-6.25 9.46,0.28 10.57,3.72 13.98,9.97 2.41,4.42 14.46,26.74 17.38,29.49 0.93,-11.97 -4.97,-31.53 -3.71,-43.9zm-84.58 7.97c3.82,-1.55 11.58,-3.56 16.33,-4.32 8.36,-1.33 10.24,-0.89 13.15,5.85 4.42,10.24 6.5,20.13 9.09,31.52 4.51,19.82 0.62,46.79 -20.81,56.59 -9.76,4.46 -23.51,5.23 -33.99,0.99 -15.67,-6.34 -17.5,-12.57 -17.05,-23.89 0.74,-18.56 -4.68,-62.46 5.51,-73.92 8.3,-0.27 17.29,3.84 24.43,6.2 -2.61,12.08 -22.41,61.45 1.22,62.97 25.15,1.62 1.64,-52.29 2.13,-62zm-72.51 -7.13l5.76 -1.64c28.03,-3.25 27.72,4.02 28.61,21.75 0.51,10.06 3.59,74.69 -6.29,79.42 -6.55,3.13 -18.55,2.97 -25.87,2.18 -7.74,-0.84 -7.18,-2.6 -12.59,-17.02 -2.24,-5.96 -4.87,-16.6 -10.06,-19.89 0.61,10.17 3.17,20.76 1.73,31.51 -5.22,3.69 -16.66,7.32 -24.29,4.53 -6.9,-6.28 -6.9,-80.19 -2.51,-89.59 2.53,-5.4 9.16,-7.48 16.35,-7.65 8.78,-0.21 12.75,3.61 15.78,9.18 5.6,10.31 9.71,23.99 16.57,31.48 1.62,-2.5 0.4,-5.9 -0.03,-9.57 -0.45,-3.81 -0.65,-7.97 -1.01,-11.93 -0.64,-7.09 -2.09,-15.97 -2.15,-22.76zm614.26 44.45c12.42,-4.7 13.49,-2.39 16.46,-18.02 2,-10.55 1.21,-20.77 -5.47,-25.78 -12.45,-9.34 -41.94,-5.62 -58.64,-2.82 -6.12,1.03 -8.28,1.93 -12.92,3.97 -5.7,2.51 -6.53,-0.27 -11.33,-2.93 -16.23,-9.01 -40.72,-8.38 -57.26,-3.68 -12.12,3.44 -13.11,6.24 -13.82,19.71 -9.97,-5.21 -7.65,-33.5 -48.89,-22.42 -9.57,2.57 -10.24,3.5 -15.18,9.4 -11.98,-2.54 -20.08,-12.27 -44.77,-7.12 -37.26,7.77 -28.22,13.02 -35.02,19.86 -0.16,-0.16 -0.35,-0.43 -0.42,-0.55l-1.91 -3.93c-0.55,-1.44 -0.88,-2.45 -1.74,-4.13 -8.92,-17.45 -28.03,-18.18 -45.09,-12.65 -11.17,3.62 -8.36,4.22 -14.87,10.38 -5.02,-1.7 -11.83,-11.44 -25.71,-13.13 -11.35,-1.38 -22.52,2.55 -31.84,6.05 -12.32,4.64 -10.97,-4.46 -30.14,-6.08 -14.15,-1.19 -22.42,-0.37 -28.55,9.15 -6.6,0.03 -11.88,-3.66 -21.71,-2.89 -7.59,0.59 -13.28,4.55 -19.07,1.7 -19.26,-9.5 -24.54,3.25 -40.78,-1.55 -28.86,-8.53 -18.05,-2.43 -29.6,-3.05 -3.74,-0.2 -36.74,-11.21 -46.48,5.95 -12.02,-1.89 -17.52,-4.25 -31.01,-1.43 -12.63,2.64 -14.42,7.32 -15.41,20.27 -1.66,21.8 -2.2,47.19 0.19,69.01 1.22,11.13 2.09,20.75 13.74,21.75 9.79,0.84 24.93,-5.96 29.09,-5.33 6.65,1.01 11.89,6.29 29.94,4.93 4.47,-0.34 10.79,-1.45 14.9,-2.59 5.45,-1.51 7.54,-4.08 11.78,-6.15 2.31,-0.2 17.13,12.14 44.61,4.43 4.57,-1.28 9.1,-3.74 13.5,-4.05 4.82,4.16 4.11,8.37 12.76,8.85 19.08,1.06 23.41,-9.8 34.67,-3.34 4.55,2.61 11.66,3.22 17.55,3.16 26.8,-0.28 27.17,-7.94 33.01,-9.28 3.42,-0.78 11.2,4.12 15.43,5.12 5.76,1.36 11.98,1.09 17.58,3.06 1.56,1.22 1.98,15.93 15.85,19.72 12.14,3.32 42.89,-0.68 50.76,0.56 28.15,4.43 29.45,-8.95 39.77,-12.26 5.62,4.06 5.21,14.14 26.64,12.94 7.81,-0.44 10,-2.67 16.04,-3.82 6.53,-1.25 9.66,1.6 15.04,3.07 5.84,1.6 12.43,1.2 18.32,-0.26 10.34,-2.57 4.57,-3.12 14.2,0.13 6.76,2.28 11.9,0.13 18.21,-0.22 10.37,-0.58 26.05,3.01 36.65,0.16 10.87,-2.92 6.41,-0.87 15.64,0.62 7.83,1.27 11.65,-1.16 17.82,-1.37 4.86,-0.17 9.65,1.96 16.49,1.59 12.33,-0.66 26.73,1.16 38.49,0.26 15.04,-1.15 8.92,-17.75 22.64,-15.98 4.19,8.85 2.14,14.88 15.02,16.3 22.92,2.53 16.34,-14.87 25.31,-37.19 5.08,-12.63 8.99,-9.67 13.81,-16.7 -1.64,-13.66 -15.47,-7.48 -21.45,-12.03 -3.63,-2.76 -1.6,-4.73 -8.74,-7.98 -6.12,-2.79 -5.39,-4.24 -4.11,-11.39z"/>
   <path class="fil1" d="M47.95 94.77c5.41,14.41 4.85,16.18 12.59,17.02 7.32,0.79 19.32,0.96 25.87,-2.18 9.89,-4.73 6.8,-69.35 6.29,-79.42 -0.9,-17.72 -0.58,-24.99 -28.61,-21.75l-5.76 1.64c0.06,6.78 1.51,15.67 2.15,22.76 0.36,3.96 0.57,8.12 1.01,11.93 0.43,3.67 1.65,7.07 0.03,9.57 -6.86,-7.5 -10.97,-21.17 -16.57,-31.48 -3.03,-5.57 -7,-9.38 -15.78,-9.18 -7.19,0.17 -13.83,2.25 -16.35,7.65 -4.39,9.39 -4.39,83.3 2.51,89.59 7.63,2.79 19.08,-0.84 24.29,-4.53 1.44,-10.75 -1.12,-21.34 -1.73,-31.51 5.19,3.29 7.82,13.93 10.06,19.89z"/>
   <path class="fil1" d="M171.4 111.11c7.14,1.8 20.31,-0.6 24.99,-4.49 1.21,-10.63 -2.04,-22.03 -1.72,-32.42 6.34,5.02 12.68,27.41 16.42,36.48 9.47,1.76 28.05,2.67 35.15,-2.81 4.38,-8.89 3.6,-52.95 3.44,-66.26 -0.37,-31.69 1.4,-37.36 -34.26,-32.36 -1.25,12.37 4.64,31.93 3.71,43.9 -2.93,-2.76 -14.97,-25.08 -17.38,-29.49 -3.41,-6.26 -4.53,-9.69 -13.98,-9.97 -7.42,-0.22 -14.11,2.15 -17.74,6.25 -2.13,13.4 5.69,31.4 5.65,46.3 -0.04,15.62 -10.69,29.71 -4.27,44.87z"/>
   <path class="fil1" d="M130.83 17.22c-0.49,9.71 23.01,63.62 -2.13,62 -23.63,-1.53 -3.82,-50.9 -1.22,-62.97 -7.14,-2.36 -16.13,-6.47 -24.43,-6.2 -10.18,11.47 -4.77,55.36 -5.51,73.92 -0.45,11.31 1.38,17.55 17.05,23.89 10.48,4.24 24.23,3.47 33.99,-0.99 21.44,-9.8 25.33,-36.77 20.81,-56.59 -2.59,-11.39 -4.67,-21.28 -9.09,-31.52 -2.91,-6.74 -4.79,-7.18 -13.15,-5.85 -4.75,0.75 -12.51,2.76 -16.33,4.32z"/>
   <path class="fil2" d="M581.85 49.49c-3.04,7.74 -18.16,14.9 -12.9,-5.05 3.66,-13.86 17.67,-7.11 12.9,5.05zm-40.25 29.28c9.78,1.54 13.26,-2.19 19.09,5.19 -0.84,4.6 -3.3,4.88 -5.48,8.87 2.99,2.32 10.13,2.98 14.98,3.4l-1.03 -10.69c3.53,1.9 0.38,-0.55 2.32,1.62 0.15,0.16 1.3,1.84 1.32,1.88 0.45,0.8 3.75,10.26 7.98,10.7 4.92,-1.4 8.68,-3.75 13.97,-4.56 6.49,-0.99 13.29,0.78 19.52,-0.41l2.06 -11.46c-8.5,-3.33 -15.59,-2.35 -20.03,-9.2 3.13,-6.1 8.65,-3.73 13.92,-14.88 10.46,-22.09 -3.49,-58.01 -57.08,-48.13 -12.98,2.39 -12.18,1.7 -14.19,15.07 -2.14,14.24 -1.82,40.37 2.65,52.59z"/>
   <path class="fil2" d="M490.52 65.89c-0.07,-5.75 0.1,-14.34 3.57,-17.47 2.33,1.52 2.1,1.1 3.54,6.39 0.87,3.19 1.3,4.62 1,8.16 -2.27,1.46 -4.51,2.87 -8.12,2.92zm21.16 30.77c2.91,0.13 13.66,-1.36 16.69,-2.16 3.84,-1.01 6.7,-6.28 7.96,-9.66 3.75,-10.04 -18.38,-66.21 -29.46,-74.75 -6.89,-5.31 -21.86,-2.52 -28.76,1.78 -9.83,6.13 -6.73,15.9 -5.45,27.17 3.42,30.06 -13.55,21.14 -14.31,55.8 19.83,0.23 12.28,-1.53 26.86,5.68 3.33,-4.39 -2.34,4.99 0.77,-2.03 0.81,-1.84 -0.44,0.32 0.58,-1.33 1.37,-2.21 3.43,-2.57 7.76,-4.01 3.93,-1.31 9.23,-2.48 13.93,-2.68 0.94,2.87 1.78,4.11 3.42,6.19z"/>
   <path class="fil1" d="M351.27 48.02c4.92,0.66 6.44,9.86 7.34,14.85 -3.26,1.09 -6.03,2.58 -10.22,2.58l2.89 -17.44zm39.25 59.68c8.61,-0.99 7.18,-6.05 6.26,-14.23 -3.17,-28.27 -0.67,-19.91 -12.72,-50.22 -5.25,-13.2 -11.44,-33.88 -26.95,-35.84 -5.38,-0.68 -13.15,0.24 -17.68,2.67 -13.49,7.23 -17.9,45.84 -20.55,64.02 -2.13,14.65 9,29.87 15.54,14.75 5.7,-13.17 21.53,-11.5 27.63,-5.87 -0.67,4.77 -2.51,3.91 -4.08,9.1l8.07 -2.06c2.84,4.29 0.27,3.79 7.01,4.52 16.51,1.8 19.25,0.1 17.47,13.15z"/>
   <path class="fil2" d="M426.52 58.12c-0.27,-4.32 -1.27,-13.88 0.98,-17.16 2.36,-3.43 10.39,-2.88 13.39,-0.29 7.08,6.11 -4.78,19.36 -14.36,17.44zm-23.04 50.72c4.7,-3.01 7.44,-6.57 12.2,-9.72 9.69,-6.43 8.38,-0.16 11.78,-9.03 1.54,-4 5.91,-4.45 13.87,-7.69 32.39,-13.21 35.47,-52.98 15.17,-65.25 -15.42,-9.32 -34.43,-5.63 -51.59,0.24 -8.24,2.82 -6.86,3.75 -7.23,13.37 -0.51,13.15 0.93,70 5.79,78.09z"/>
   <path class="fil1" d="M298.08 44.92c7.35,-1.42 19.97,-11.08 19.21,-18.86 -1.16,-11.89 -28.82,-26.96 -51.29,-12.58 -9.08,5.81 -12.58,11.39 -12.24,26.15 0.29,12.68 0.25,25.73 0.03,38.42 -0.27,16.11 1.28,20.12 11.75,26.64 8.76,5.45 18.88,7.2 31.34,4.68 5.94,-1.2 7.95,-4.39 11.44,-7.3 3.66,-3.05 7.51,-4.34 11.26,-7.28 -1.77,-9.89 -12.31,-20.39 -21.5,-22.81 -6,3.23 -8.65,11.58 -17.23,4.59 -10.1,-8.23 -7.77,-30.4 1.97,-37.45 7.12,-5.16 11.09,2.2 15.26,5.79z"/>
   <path class="fil2" d="M675.34 44.62c3.54,-4.86 5.17,-11.77 4.51,-18.55 -0.7,-7.19 -3.21,-11.05 -9.96,-12.41 -12.16,-2.45 -31.08,-0.94 -42.91,1.28 -18.06,3.39 -9.25,18.72 -9.56,32.6 -0.15,6.74 -2.77,12.54 -3.66,19.17 -1.92,14.16 0.03,10.2 7.24,14.31 0.46,15.59 -7.05,22.26 -3.51,26.53 5.17,-8.63 4.99,-14.04 19.49,-12.76 7.18,0.63 7.47,1.45 15.24,0.45 5.58,-0.72 8.74,0.96 13.57,1.56 2.69,-4.54 11.12,-13.45 12.51,-16.83l-4.64 -6.9c-7.92,0.99 -23.92,9.52 -31.68,5.98 -0.29,-8.7 14.5,-1.47 18.61,-6.23 2.45,-6.35 4.5,-17.46 -0.43,-21.9 -7.63,-6.89 -21.05,3.96 -19.07,-8.3 9.91,-4.97 25.56,2.68 34.27,2.01z"/>
   <path class="fil1" d="M632.51 117.99c2.2,-6.27 7.14,-14.25 8.03,-19.8 -27.84,-4.56 -12.61,24.83 -30.8,29.72 0.21,-7.3 7.06,-16.38 -8.33,-17.09 -3.15,6.51 -5.73,18.66 -14.45,17.12 -4.76,-11.74 10.04,-23.98 19.14,-25.8l3.25 6.45c3.93,-1.15 4.79,-4.35 3.25,-8.1 -6.78,-6.2 -23.33,-2.34 -29.66,2.38 -15.16,11.3 -12.8,33.24 6.47,29.21 8.05,-1.69 5.98,-4.17 13.91,-0.68 7.55,3.32 7.61,0.21 13,-2.13 5.4,-2.35 5.24,2.84 12.74,3 8.08,-6.12 14.54,-28.29 25.26,-28.06l-5.47 11.28c22.5,3.6 18.91,-18.78 6.03,-17.48 -11.83,1.2 -15.83,16.64 -22.34,19.98z"/>
   <path class="fil1" d="M329.81 104.24c-1.53,6.19 -0.25,11.23 -2.91,16.45 -1.22,2.4 -6.52,9.68 -10.11,6.57 -5.65,-4.89 5.51,-22.06 13.02,-23.02zm8.66 27.94c5.17,-6.75 5.21,-17.79 7.77,-26.54 2.56,-8.75 10.1,-18.28 10.81,-22.5 -16.04,-6.46 -20.42,10.44 -22.52,12.6 -3.01,3.08 -10.52,2.05 -15.2,3.6 -23.09,7.62 -25.5,42.4 5.3,30.73 6.55,-2.48 5.66,2.64 13.85,2.11z"/>
   <path class="fil1" d="M548.72 98.34c1.06,-6.46 5.48,-9.42 7.43,-14.38 -12.32,-8.56 -21.36,8.02 -24.08,17.32 -3.98,13.61 -11.1,32.08 5.6,30.92 6.38,-10.06 4.12,-29.49 19.47,-28.6 0.52,13.35 -10.79,28.36 5.91,28.77 4.78,-5.06 7.68,-22.84 6.52,-31.37 -6.92,-4.66 -12.05,-2.69 -20.84,-2.66z"/>
   <path class="fil1" d="M501.2 115.14c1.09,-6.13 5.46,-8.5 6.25,-16.05 -18.27,-7.42 -21.76,14.7 -20.92,26.27 0.48,6.6 2.85,7.51 9.84,6.91 1.79,-2.97 3.91,-5.23 6,-8.51 2.21,-3.46 2.94,-6.85 6.86,-8.64l-0.07 14.05c2.88,2.34 4.38,2.94 9.56,3.69 2.78,-3.94 1.49,-9.25 4.7,-17.55 2.03,-5.25 6.18,-10.26 5.04,-16.42 -16.83,-6.59 -19.3,13.86 -27.26,16.26z"/>
   <path class="fil3" d="M365.58 112.71c2.04,-4.89 7.64,-9.75 14.09,-10.64 -1.44,6.98 -6.9,9.56 -14.09,10.64zm25.34 1.67c-4.46,0.99 -9.75,8.08 -14.04,10.96 -4.15,2.79 -16.19,6.91 -15.91,-2.95 0.28,-10.03 27.73,-3.47 25.86,-22.66 -26.93,-9.54 -44.43,13.38 -38.77,24.83 3.61,7.3 16.99,9.26 25.71,6.57 7.65,-2.37 17.29,-8.94 17.15,-16.76z"/>
   <path class="fil3" d="M423.66 113.76c1.93,-5.72 7.91,-11.85 15.32,-11.71l-2.61 7.01c3.69,0.27 6.83,-0.42 9.87,-1.35l-0.28 -8.23c-16.99,-7.15 -41.71,4.94 -35.8,16 3.19,5.4 10.5,4.12 15.97,6.9 -2.22,7.55 -12.23,1.52 -18.21,0.44 1.15,15.21 31.65,12.33 31.91,-3.34 -3.85,-2.33 -10.58,-4.56 -16.17,-5.71z"/>
   <path class="fil3" d="M462.29 127.49c-3.31,-6.92 1.09,-32.85 11.26,-24.98 6.93,5.36 3.07,28.37 -11.26,24.98zm20.07 -9.05c8.89,-26.74 -26.55,-26.29 -34.74,-6.9 -10.07,23.84 27.48,28.74 34.74,6.9z"/>
   <path class="fil1" d="M678.46 116.56c5.86,-25.63 14.57,-26.57 17.6,-33.49 -13.59,-1.22 -16.88,0.33 -22.79,8.66 -5.22,7.36 -6.16,12.52 -6.68,23.79l11.87 1.03z"/>
   <path class="fil0" d="M462.29 127.49c14.33,3.39 18.18,-19.63 11.26,-24.98 -10.17,-7.87 -14.57,18.06 -11.26,24.98z"/>
   <path class="fil0" d="M426.52 58.12c9.58,1.92 21.44,-11.34 14.36,-17.44 -3,-2.59 -11.03,-3.15 -13.39,0.29 -2.25,3.28 -1.25,12.84 -0.98,17.16z"/>
   <path class="fil0" d="M581.85 49.49c4.78,-12.16 -9.24,-18.91 -12.9,-5.05 -5.26,19.95 9.86,12.79 12.9,5.05z"/>
   <path class="fil0" d="M329.81 104.24c-7.51,0.96 -18.67,18.13 -13.02,23.02 3.59,3.11 8.89,-4.17 10.11,-6.57 2.66,-5.22 1.38,-10.26 2.91,-16.45z"/>
   <path class="fil3" d="M677.65 120.04c-11.75,0.2 -13.08,-1.93 -12.54,11.85l10.19 0.95 2.35 -12.81z"/>
   <path class="fil4" d="M348.38 65.45c4.19,-0 6.96,-1.49 10.22,-2.58 -0.89,-4.99 -2.41,-14.19 -7.34,-14.85l-2.89 17.44z"/>
   <path class="fil5" d="M490.52 65.89c3.61,-0.05 5.85,-1.47 8.12,-2.92 0.29,-3.54 -0.14,-4.97 -1,-8.16 -1.44,-5.3 -1.21,-4.87 -3.54,-6.39 -3.47,3.13 -3.64,11.72 -3.57,17.47z"/>
   <path class="fil6" d="M365.58 112.71c7.18,-1.08 12.65,-3.66 14.09,-10.64 -6.45,0.89 -12.04,5.75 -14.09,10.64z"/>
  </g>
 </g>
</svg>
