<?xml version="1.0" encoding="UTF-8"?>
<!DOCTYPE svg PUBLIC "-//W3C//DTD SVG 1.1//EN" "http://www.w3.org/Graphics/SVG/1.1/DTD/svg11.dtd">
<!-- Creator: CorelDRAW -->
<svg xmlns="http://www.w3.org/2000/svg" xml:space="preserve" width="25.4mm" height="19.05mm" version="1.1" style="shape-rendering:geometricPrecision; text-rendering:geometricPrecision; image-rendering:optimizeQuality; fill-rule:evenodd; clip-rule:evenodd"
viewBox="0 0 47.71 35.78"
 xmlns:xlink="http://www.w3.org/1999/xlink"
 xmlns:xodm="http://www.corel.com/coreldraw/odm/2003">
 <defs>
  <style type="text/css">
   <![CDATA[
    .fil0 {fill:black}
    .fil7 {fill:#020000}
    .fil4 {fill:#050101}
    .fil9 {fill:#0A0201}
    .fil10 {fill:#0D0202}
    .fil11 {fill:#110101}
    .fil6 {fill:#DA0001}
    .fil14 {fill:#EB8806}
    .fil13 {fill:#F00000}
    .fil12 {fill:#FA8500}
    .fil8 {fill:#FA8800}
    .fil3 {fill:#FC0000}
    .fil5 {fill:#FCFCFC}
    .fil2 {fill:#FD8500}
    .fil1 {fill:#FDFDFD}
   ]]>
  </style>
 </defs>
 <g id="Camada_x0020_1">
  <metadata id="CorelCorpID_0Corel-Layer"/>
  <g id="_2480903717936">
   <path class="fil0" d="M23.95 33.11c-1.91,1.35 -4.86,2.33 -6.77,2.56 -6.23,0.75 -12.11,-2.18 -15.2,-7.68 -2.91,-5.17 -2.61,-11.34 0.75,-16.22 1.09,-1.58 2.42,-2.9 3.91,-3.92 -0.12,-0.16 -0.22,-0.35 -0.3,-0.55 -0.45,-1.15 0.23,-2.64 0.63,-3.74 0.22,-0.59 0.5,-1.25 0.68,-1.85 0.29,-0.99 1.17,-1.65 2.2,-1.63l1.13 0.02c0.55,0.01 1.04,0.2 1.43,0.53 1,-0.61 2.25,-0.79 3.46,-0.4 0.76,-0.21 1.59,-0.06 2.42,-0.09 0.46,-0.02 0.82,-0.04 1.2,0.05 0.5,-0.09 1.05,-0.07 1.6,-0.03 0.03,0 0.07,0.01 0.1,0.01 0.06,-0 0.11,-0.01 0.17,-0.01l2.88 -0c0.23,-0 0.45,0.03 0.66,0.1 0.29,-0.12 0.61,-0.18 0.95,-0.17l1.02 0.03c0.34,0.01 0.65,0.09 0.93,0.22 0.61,-0.29 1.24,-0.23 1.98,-0.22 0.36,0 0.7,0.09 1,0.24 0.3,-0.15 0.65,-0.24 1.02,-0.24l1.13 -0.01c0.35,-0 0.68,0.07 0.98,0.21 0.2,-0.08 0.41,-0.14 0.64,-0.19 1.01,-0.23 2.03,-0.1 2.92,0.39 0.55,-0.3 1.18,-0.48 1.84,-0.51 0.99,-0.05 1.86,0.52 2.21,1.45l0.36 0.93c0.2,0.53 0.19,1.09 0.02,1.58 0.08,0.21 0.14,0.44 0.18,0.72 0.17,1.2 -0.33,2.32 -1.16,3.1 4.23,2.83 6.77,7.57 6.79,12.76 0.05,11.17 -11.91,18.61 -21.88,13.65 -0.55,-0.27 -1.23,-0.66 -1.88,-1.09z"/>
   <path class="fil1" d="M28.66 4.5c-0,1.39 -0.33,1.96 0.28,2.02 0.22,0.02 0.56,-0 0.73,-0.04 0.18,-0.12 0.11,-1.41 0.11,-1.61 0.5,0.51 0.52,1.72 1.01,1.68 0.54,-0.25 0.52,-1.33 0.93,-1.69 -0,0.54 -0.1,1.32 0.1,1.61l1 0.03 0.12 -4.14 -1.13 0.01 -0.99 2.07c-0.05,-0.03 -0.07,-0.08 -0.08,-0.06l-0.98 -2c-1.52,-0.02 -1.1,-0.3 -1.1,2.13zm-8.43 2.02c0.92,0 0.74,0.18 0.72,-1.65 -0.01,-0.6 0.12,-1.99 -0.02,-2.46 -1.71,-0.14 -1.18,0.05 -1.18,1.63 0.01,2.33 -0.45,2.49 0.48,2.49zm17.45 -0.82c0.12,0.35 0.26,0.67 0.54,0.92 0.81,-0.02 1.76,-0.73 1.63,-1.63 -0.07,-0.48 -0.42,-0.74 -0.62,-1.06 -0.45,-0.71 0.12,-0.56 0.56,-0.75l-0.36 -0.93c-0.87,0.04 -1.9,0.65 -1.53,1.72 0.14,0.41 0.62,0.72 0.66,1.01 0.09,0.57 -0.52,0.51 -0.87,0.71zm-16.39 -2.27l0.88 -0.05 -0 2.87c0.05,0.21 0.02,0.11 0.1,0.23l1.02 0.03 0.1 -3.13 0.92 0.01 -0.04 -0.97 -2.88 0c-0.08,0.31 -0.17,0.68 -0.1,1.02zm-5.14 2.46c-0.08,-0.35 -0.29,-0.66 -0.55,-0.85 -0.33,0.18 -0.61,0.5 -1.17,0.36 -0.81,-0.21 -0.84,-1.78 0.07,-1.94 0.69,-0.13 0.69,0.29 1.22,0.4 0.14,-0.31 0.37,-0.56 0.42,-0.93 -1.61,-1.45 -3.54,-0.31 -3.52,1.57 0.03,2.08 2.27,2.76 3.53,1.4zm-5.74 -1.84c0.09,0.07 0.06,0 0.13,0.13l0.15 0.68 -0.57 -0.02 0.3 -0.79zm-1.95 2.4l1.07 0.06c0.19,-0.26 0.16,-0.37 0.29,-0.62l1.2 0.01c0.29,0.59 -0.17,0.67 1.38,0.59 0.16,-0.49 -1.19,-3.47 -1.43,-4.15l-1.13 -0.02c-0.17,0.6 -1.49,3.83 -1.38,4.12zm17.76 -2.28c0.1,-0.17 0.05,-0.07 0.17,-0.18l0.14 0.86c-0.37,0 -0.3,0.01 -0.47,-0.1l0.16 -0.58zm-0.52 1.73l1.2 -0.01c0.16,0.33 0.07,0.51 0.4,0.61 0.31,0.09 1.03,0.13 1.03,-0.22 0,-0.24 -0.58,-1.64 -0.67,-1.89 -0.21,-0.56 -0.54,-1.54 -0.85,-2.02l-1.02 -0.03c-0.3,0.46 -1.01,2.66 -1.31,3.46 -0.02,0.06 -0.12,0.29 -0.13,0.35 -0.09,0.42 -0.1,0.24 0.09,0.34 0.1,0.05 0.74,0.06 0.86,0.02 0.35,-0.09 0.25,-0.27 0.39,-0.6zm-9.23 0.53c0.29,0.17 2.22,0.1 2.74,0.1 0.11,-0.3 0.19,-0.71 0.16,-1.08 -0.53,-0.07 -1.32,0.16 -1.72,-0.12l-0.02 -0.28c0.02,-0.02 0.06,-0.06 0.07,-0.04l0.14 -0.06c0.29,-0.08 0.94,-0 1.27,-0.01l0.11 -1.07 -1.51 0.03 -0.08 -0.51 1.6 0.04c0.13,-0.31 0.03,-0.78 -0.02,-0.87 -0.15,-0.27 -0.41,-0.18 -0.82,-0.17 -2.95,0.1 -1.7,-0.8 -1.99,3.12 -0.03,0.38 -0.1,0.71 0.08,0.92zm18.04 -1.66c-0.32,-1.43 1.5,-1.81 1.75,-0.64 0.31,1.45 -1.5,1.74 -1.75,0.64zm0.55 -2.45c-2.94,0.68 -1.85,4.72 0.69,4.25 2.8,-0.51 1.89,-4.85 -0.69,-4.25z"/>
   <path class="fil2" d="M24.05 10.69c-0.22,0.4 -1.16,1.11 -1.43,1.6l2.75 0.03c0.26,0.27 0.83,1.04 0.95,1.48l-4.77 0.01 -0.69 1.05 0.11 0.16 5.84 0c0.43,0.13 0.14,-0.11 0.39,0.31l0.35 1.2 -7.31 0.03 -0.3 1.21 7.93 0.06c0.25,-0.42 0.33,3.39 0.42,3.58l0.9 -2.56c0.18,-0.42 0.35,-0.32 0.49,-0.6l1.34 0.03c0.35,0.61 0.69,1.63 0.97,2.36 0.3,0.77 0.72,1.72 0.91,2.49 0.43,-0.5 0.17,-3.75 0.17,-4.35l0.23 -0.18c0.01,-0.01 0.03,-0.03 0.04,-0.04 0.17,-0.15 -0.01,-0.08 0.11,-0.09 1,-0.17 2.99,-0.22 3.71,0.33 0.7,0.53 0.71,1.62 0.29,2.2 -0.57,0.78 -0.77,0.21 -0.14,1.41 0.3,0.25 0.25,0.45 0.44,0.73 0.19,0.29 0.05,0.1 0.22,0.25 0.04,-0.68 -0.03,-4.44 0.08,-4.64l0.33 -0.34c0.3,-0.17 2.44,-0.1 2.83,-0.02l0.61 0.21c0.16,0.09 0.07,0.04 0.14,0.11l0.1 0.1c0.44,0.44 0.77,0.54 1,1.5 0.27,1.17 -0.13,1.46 -0.35,2.27 -0.17,0.55 -1.04,1.28 -1.92,1.41 -0.5,0.07 -1.15,0.04 -1.66,0.04 -0.18,-0 -0.69,0.01 -0.84,-0.02 -0.46,-0.08 -0.12,-0.01 -0.32,-0.16 -0.17,-0.12 0.04,-0.09 -0.23,-0.17l-0.09 0.1c-0.01,0.01 -0.03,0.04 -0.05,0.05 -0.34,0.31 -1.02,0.21 -1.63,0.15 -0.13,-0.29 -0.26,-0.65 -0.4,-0.98 -0.2,-0.49 -0.16,-0.73 -0.63,-0.77 0.22,1.47 0.06,1.32 -0.17,1.56 -0.01,0.01 -0.04,0.04 -0.05,0.05l-0.14 0.17c-0.36,0.02 -1.12,0.11 -1.42,-0.06 -0.08,-0.05 -0.09,-0.08 -0.15,-0.14l-0.09 -0.12c-0.49,0.25 0.36,-0.29 -0.15,0.15 -0.44,0.38 0.34,-0.19 -0.11,0.09 -0.2,0.13 0,0.06 -0.29,0.11 -1.57,0.25 -1.41,-0.42 -1.5,-0.78l-1.38 0c-0.02,0.02 -0.03,0.05 -0.04,0.06l-0.25 0.3c-0.21,0.23 -0.14,0.23 -0.39,0.38l-1.07 0.12 -0.23 0.64 -7.14 -0 0.5 1.23 6.05 0.01c0.02,0.35 -0.49,1.24 -0.76,1.51l-4.39 0c0.12,0.31 0.63,0.98 0.83,1.21l2.63 0.02c-0.09,0.46 0.02,0.11 -0.3,0.45 -0.12,0.13 -0.18,0.21 -0.3,0.35 -0.64,0.73 -0.59,0.32 -0.55,0.77 0.5,0.57 1.92,1.45 2.74,1.85 8.55,4.24 18.67,-2.21 18.62,-11.61 -0.03,-5.74 -3.45,-9.79 -7.12,-11.67 -4.94,-2.53 -11.03,-1.34 -14.29,1.8z"/>
   <path class="fil3" d="M8.61 20.03c-0.19,0.11 -0.72,0.84 -0.71,0.99 0.29,0.64 1.6,1.71 1.03,2.59l-0.2 0.37 -1.1 0.03c-0.15,-0.24 -0.32,-0.45 -0.49,-0.72 -0.43,-0.67 -0.37,-0.45 -0.6,-0.48l-0.6 0.8c-0.41,0.69 -1.28,0.37 -1.36,0.28 -0.64,-1.1 1.21,-1.95 0.98,-2.73 -0.08,-0.28 -0.69,-0.89 -0.88,-1.18 -0.16,-0.24 -0.2,-0.46 -0.19,-0.83 0.01,-0.56 0.02,-0.42 0.36,-0.67l0.07 0.83 0 -0.91 1.04 0.02 0.8 1.17c0.13,0.21 0.1,0.15 0.23,0.23 0.36,-0.28 0.9,-1.34 1.11,-1.42l0.93 -0c0.02,1.29 -0.01,0.77 -0.41,1.62zm19.37 1.94l0.31 -0.56c-0.09,-0.19 -0.17,-4 -0.42,-3.58l-7.93 -0.06 0.3 -1.21 7.31 -0.03 -0.35 -1.2c-0.25,-0.42 0.04,-0.18 -0.39,-0.31l-5.84 -0 -0.11 -0.16 0.69 -1.05 4.77 -0.01c-0.12,-0.44 -0.69,-1.21 -0.95,-1.48l-2.75 -0.03c0.27,-0.49 1.21,-1.2 1.43,-1.6l-0.3 0.02c-0.22,-0.43 -2.05,-1.56 -2.68,-1.88 -5.97,-2.94 -12.86,-1.01 -16.47,4.23 -6.37,9.24 1.06,21.72 12.31,20.36 2.01,-0.24 5.49,-1.57 6.54,-2.87 0.31,-1.03 0.58,-0.68 0.68,-1.05 0.11,-0.46 0.02,-0.15 -0.01,-0.27 0.04,0.09 -0.02,0.12 0.14,0.11 0.29,-0.02 0.24,-0.1 0.3,-0.21 -0.02,-0.01 -0.06,-0.06 -0.07,-0.03 -0.01,0.02 -0.05,-0.03 -0.07,-0.03 -0.02,-0 -0.05,-0.02 -0.07,-0.02 -0.59,-0.11 -1.45,0.16 -2.01,-0.16l-0.56 -0.94c-0.03,0.02 -0.51,0.04 -0.17,0.35 -0.3,-0.38 -0.08,-0.29 -0.19,-0.71 -0.01,-0.02 -0.06,-0.11 -0.09,-0.13 0.86,-0.28 3.03,-0.06 4.19,-0.11 0.33,-0.01 0.59,0.11 0.52,-0.25 -0.14,-0.66 0.53,0.29 -0.07,-0.07 -0.01,-0.01 -0.04,-0.01 -0.05,-0.02l-0.15 0.08c0.29,-0.19 0.19,-0.01 0.19,-0.48 0.69,0.03 0.42,0.03 0.55,-0.27l-0.63 -0.12c-1.42,0.01 -3.88,0.08 -5.1,-0.02 -0.26,-0.3 -0.79,-1.16 -0.51,-1.62l7.09 -0.07c0.09,-0.49 0.08,0.04 0.09,-0.49l0.1 -0.8c-0.55,0.17 -0.96,1.16 -2.6,0.9 -0.52,-0.08 -0.9,-0.29 -1.22,-0.56 -0.3,-0.25 -0.47,-0.64 -0.72,-0.89 -0.06,0.36 -0.18,0.63 -0.19,1.06 -0.3,0.14 0.01,0.04 -0.37,0.13 -0.02,0.01 -0.04,0.03 -0.05,0.03l-0.17 0.09c-0.27,0.09 -1.52,0.04 -1.91,0.04 -2.34,0 -1.38,-0.06 -1.95,-0.32 -0.02,0.02 -0.04,0.04 -0.05,0.06 -0.23,0.25 -0.23,0.27 -0.69,0.28 -0.33,0.01 -0.7,-0.01 -1.02,-0.04 -0.28,-0.5 -0.46,-1.25 -0.78,-1.74l-0.34 0.12 0.08 1.2 -0.2 0.07 -0.07 0.38c-0.48,0.04 -1.23,0.13 -1.59,-0.09l-0.24 -0.82c-0.24,0.39 0.08,0.41 -0.34,0.55 0.25,0.63 -1.68,0.37 -2.73,0.38 -1.6,0.01 -1.01,0.05 -1.01,-2.72 0,-0.62 -0.19,-2.28 0.08,-2.71l0.27 0.01c0.1,-0.33 -0.13,-0.11 0.29,-0.19l3.23 0.04 0.11 1.13 -0.36 -0.02 0.33 0.12c-0.34,0.15 -0.09,0.02 -0.34,0.31l-1.48 -0.08c-0.38,0.15 -0.08,-0.04 -0.27,0.35 0.42,0.33 1.44,0.07 2.01,0.12 -0.04,0.36 -0,0.94 -0.19,1.19l-0.23 0.4c-0.55,-0.01 -1.2,-0.14 -1.55,0.08 0.06,0.22 -0.14,0.33 0.79,0.31 0.31,-0 0.77,-0.04 0.99,0.05l0.41 0 -0 0.41c0.01,-0.02 0.03,-0.08 0.03,-0.07 0,0 0.2,-0.29 0.24,-0.7 0.07,-0.77 -0.06,-2.47 -0.06,-3.27 0.18,-0.14 0.13,-0.14 0.41,-0.2l0.01 -0.15c1.54,-0.08 4.58,-0.54 4.25,1.92 -0.1,0.76 -0.5,0.85 -0.83,1.21l0.92 1.9c0.25,-0.66 0.23,-1.88 0.2,-2.72 -0.01,-0.3 -0.2,-2.98 0.34,-2.03 0.01,-0.53 -0.01,-0.16 0.12,-0.3 0.73,0 2.89,-0.14 3.36,0.08l0.15 1.05 -0.44 0.02 0.35 0.17c-0.14,0.33 -0.33,0.35 0.03,0.55 0.4,0.22 0.17,0.11 0.46,-0.27 0.17,-0.11 0.31,-0.45 0.47,-0.63 0.15,-0.17 0.44,-0.47 0.62,-0.57 0.69,-0.32 0.77,-0.58 1.86,-0.51 0.74,0.05 1.28,0.35 1.6,0.77 -0.04,0.3 -0.11,0.39 -0.24,0.62 -0.03,0.04 -0.11,0.18 -0.15,0.23 -0.18,0.21 0.01,0.06 -0.23,0.2 0.08,0.1 -0.03,0.09 0.09,0.12l-0.34 0.3 -0.51 -0.26 0.07 0.15c0.14,0.4 0.12,0.18 0.02,0.36l0.6 0.02c0.35,-0.11 -0.24,-0.22 0.47,-0.44 0.53,-0.03 0.63,0.57 0.61,1.02l-0.34 -0.28 -0 0.65 -0.22 -0.05c-0.84,-0.2 -0.35,0 -0.89,0.14 -0.48,0.12 -1.57,0.28 -1.67,-0.48 -0.06,-0.47 0.09,-0.83 0.06,-1.19l-0.04 -0.08c-0.56,0.5 -0.28,1.64 0.18,2.04 0.84,0.73 1.48,-0.05 2.04,-0.2l0.56 0.84c0.2,-0.21 0.34,-0.45 0.33,-0.81zm-11.27 -1.21c-0.1,-0.19 -0.05,-0.29 -0.21,-0.5l-0.02 0.45c-0.66,0.33 -1.08,-0.03 -0.79,-0.84l0.45 0.02c-0.06,-0.04 0.06,-0.11 -0.35,-0.13 -0.21,-0.01 -0.09,-0 -0.31,0.08 -0.01,0.16 -0.03,0.36 -0.02,0.52 0.04,1.05 1.22,0.41 1.25,0.39z"/>
   <path class="fil1" d="M39.81 19.56c2.76,-0.77 2.53,3.47 0.25,2.95 -0.28,-0.06 -0.25,-0.06 -0.29,-0.36 -0.05,-0.41 -0.02,-2.17 0.04,-2.59zm2.9 3.02c0.23,-0.8 0.63,-1.1 0.35,-2.27 -0.23,-0.97 -0.56,-1.06 -1,-1.5l-0.1 -0.1c-1.16,-0.4 -2.22,-0.37 -3.57,-0.3l-0 5.2c2.19,0.05 3.21,0.33 4.31,-1.03z"/>
   <path class="fil1" d="M16.71 20.76c-0.03,0.02 -1.22,0.67 -1.25,-0.39 -0.01,-0.16 0.01,-0.36 0.02,-0.52l0.05 -0.37c1.33,-0.28 1.89,0.7 1.18,1.28zm-2.61 -2.18l0.01 5.03 1.27 0.01 0.2 -0.07 -0.08 -1.2 0 -0.52c1.06,-0.25 0.8,0.37 1.49,1.77 0.48,0.02 1.47,0.15 1.46,-0.15l-0.92 -1.9c0.33,-0.37 0.73,-0.46 0.83,-1.21 0.33,-2.46 -2.7,-2 -4.25,-1.92l-0.01 0.15z"/>
   <path class="fil1" d="M34.93 19.5c1.16,-0.42 1.86,0.67 1.23,1.24 -0,0 -1.21,0.61 -1.3,-0.16l0.08 -1.07zm-1.47 -1.01c0.14,1.95 -0.05,4.3 0.03,5.14l1.42 -0.04c0.09,-0.34 0.02,-0.51 -0.02,-0.89 -0.02,-0.18 -0.06,-0.73 0.08,-0.84 0.71,-0.59 1.22,1.36 1.39,1.77l1.45 -0.01c-0.06,-0.43 -0.28,-0.77 -0.5,-1.2 -0.63,-1.2 -0.44,-0.63 0.14,-1.41 0.43,-0.58 0.41,-1.66 -0.29,-2.2 -0.72,-0.55 -2.71,-0.5 -3.71,-0.33z"/>
   <path class="fil4" d="M29.21 23.62l-1.37 0.01c0.03,-0.6 1.55,-4.35 1.84,-5.31l1.31 0c0.32,0.7 1.96,4.7 1.96,5.3l-1.44 0c-0.31,-0.68 0.02,-0.92 -1.65,-0.8 -0.61,0.04 -0.44,0.27 -0.66,0.79zm-0.92 -2.21l-0.31 0.56c0.01,0.36 -0.13,0.6 -0.33,0.81 -0.71,1.31 -2.82,1.22 -3.81,0.11 -0.47,-0.53 -0.7,-1.25 -0.64,-2.14 0.07,-1 0.49,-1.42 0.92,-1.94 -0.18,0.1 -0.47,0.4 -0.62,0.57 -0.16,0.18 -0.3,0.52 -0.47,0.63 -0.3,1.37 -0.3,1.28 -0.02,2.66 0.25,0.26 0.42,0.64 0.72,0.89 0.33,0.27 0.71,0.48 1.22,0.56 1.64,0.26 2.05,-0.73 2.6,-0.9l-0.1 0.8 1.36 -0.02c0.25,-0.15 0.19,-0.15 0.39,-0.38l0.25 -0.3c0.01,-0.01 0.02,-0.04 0.04,-0.06l1.38 -0c0.1,0.36 -0.06,1.03 1.5,0.78 0.29,-0.05 0.09,0.02 0.29,-0.11 0.44,-0.28 -0.34,0.29 0.11,-0.09 0.52,-0.44 -0.33,0.1 0.15,-0.15l0.09 0.12c0.06,0.06 0.07,0.1 0.15,0.14 0.3,0.18 1.07,0.09 1.42,0.06l0.14 -0.17c0.01,-0.01 0.03,-0.03 0.05,-0.05 0.24,-0.24 0.4,-0.09 0.17,-1.56 0.46,0.04 0.43,0.29 0.63,0.77 0.13,0.33 0.26,0.69 0.4,0.98 0.62,0.07 1.29,0.16 1.63,-0.15 0.02,-0.01 0.03,-0.04 0.05,-0.05l0.09 -0.1c0.27,0.08 0.06,0.05 0.23,0.17 0.21,0.15 -0.14,0.07 0.32,0.16 0.15,0.03 0.65,0.01 0.84,0.02 0.51,0 1.17,0.03 1.66,-0.04 0.87,-0.13 1.75,-0.86 1.92,-1.41 -1.1,1.36 -2.12,1.08 -4.31,1.03l0 -5.2c1.35,-0.08 2.41,-0.1 3.57,0.3 -0.07,-0.08 0.01,-0.02 -0.14,-0.11l-0.61 -0.21c-0.39,-0.08 -2.54,-0.15 -2.83,0.02l-0.33 0.34c-0.11,0.2 -0.04,3.96 -0.08,4.64 -0.17,-0.15 -0.03,0.04 -0.22,-0.25 -0.19,-0.29 -0.14,-0.49 -0.44,-0.73 0.22,0.43 0.44,0.77 0.5,1.2l-1.45 0.01c-0.17,-0.41 -0.68,-2.35 -1.39,-1.77 -0.14,0.11 -0.1,0.66 -0.08,0.84 0.04,0.38 0.11,0.56 0.02,0.89l-1.42 0.04c-0.08,-0.85 0.11,-3.2 -0.03,-5.14 -0.12,0 0.07,-0.06 -0.11,0.09 -0.01,0.01 -0.03,0.03 -0.04,0.04l-0.23 0.18c-0.01,0.6 0.26,3.85 -0.17,4.35 -0.2,-0.77 -0.61,-1.72 -0.91,-2.49 -0.29,-0.74 -0.62,-1.76 -0.97,-2.36l-1.34 -0.03c-0.14,0.28 -0.31,0.19 -0.49,0.6l-0.9 2.56z"/>
   <path class="fil5" d="M30.72 21.62c-1.19,0.27 -0.83,-0.33 -0.57,-1.05 0.11,-0.3 0.08,-0.29 0.27,-0.48 0.19,0.52 0.49,1.17 0.3,1.53zm-1.51 2c0.21,-0.52 0.05,-0.75 0.66,-0.79 1.67,-0.12 1.34,0.12 1.65,0.8l1.44 -0c0,-0.6 -1.64,-4.6 -1.96,-5.3l-1.31 -0c-0.29,0.96 -1.81,4.71 -1.84,5.31l1.37 -0.01z"/>
   <path class="fil1" d="M18.99 18.71c0.21,5.72 -0.76,4.9 1.33,4.91 0.68,0 1.36,0 2.05,0.02 0.35,-0.13 0.35,-0.57 0.36,-1.23 -0.95,-0 -2.19,0.31 -2.3,-0.29 -0.01,-0.65 -0.03,-0.62 0.63,-0.61 0.43,0.01 0.82,0.04 1.23,0.07 0.26,-0.22 0.18,-0.88 0.2,-1.23 -0.39,0.02 -0.76,0.03 -1.15,0.04 -0.48,0.01 -0.76,0.12 -0.9,-0.25 -0.05,-0.59 -0.08,-0.63 0.53,-0.62 0.4,0 0.83,0.02 1.23,0.04l0.44 -0.02 -0.15 -1.05c-0.47,-0.22 -2.63,-0.08 -3.36,-0.08 -0.13,0.14 -0.11,-0.23 -0.12,0.3z"/>
   <path class="fil1" d="M9.74 18.6c0.02,0.82 0.09,1.71 0.08,2.52 -0.01,0.82 -0.14,1.66 -0.06,2.5l3.38 0.02c0.42,-0.14 0.1,-0.16 0.34,-0.55l-0 -0.27 0 -0.41 -0.41 -0c-0.39,0.01 -0.78,0.05 -1.18,0.04 -0.47,-0.01 -0.71,-0.02 -0.73,-0.5 -0.03,-0.69 0.74,-0.41 1.91,-0.38 0.18,-0.26 0.14,-0.83 0.19,-1.19 -0.57,-0.05 -1.59,0.21 -2.01,-0.12 -0.18,-0.46 -0.18,-0.72 0.35,-0.74 0.41,-0.02 0.99,0.03 1.41,0.05l0.36 0.02 -0.11 -1.13 -3.23 -0.04c-0.42,0.08 -0.18,-0.14 -0.29,0.19z"/>
   <path class="fil5" d="M4.91 19.32c0.3,0.63 0.94,1.11 1.14,1.71 -0.02,0.27 -2.25,2.5 -0.65,2.61 0.14,0.01 0.39,-0.01 0.54,-0.02l0.6 -0.8c0.11,-0.27 0.21,-0.44 0.45,-0.61 0.33,0.31 0.76,1.02 1.03,1.42l0.92 -0c0.58,-0.88 -0.74,-1.95 -1.03,-2.59 -0.01,-0.16 0.52,-0.89 0.71,-0.99 0.39,-0.86 0.43,-0.33 0.41,-1.62l-0.93 0c-0.21,0.08 -0.75,1.14 -1.11,1.42 -0.13,-0.08 -0.1,-0.02 -0.23,-0.23l-0.8 -1.17 -1.04 -0.02 -0 0.91z"/>
   <path class="fil5" d="M24.12 18.81c-0.43,0.52 -0.85,0.94 -0.92,1.94 -0.06,0.89 0.17,1.61 0.64,2.14 0.99,1.11 3.09,1.21 3.81,-0.11l-0.56 -0.84c-0.56,0.15 -1.2,0.93 -2.04,0.2 -0.46,-0.4 -0.74,-1.54 -0.18,-2.04 0.17,-0.34 0.51,-0.56 1.11,-0.5 0.48,0.05 0.69,0.33 0.98,0.52 0.24,-0.14 0.05,0.01 0.23,-0.2 0.04,-0.05 0.12,-0.19 0.15,-0.23 0.14,-0.23 0.2,-0.33 0.24,-0.62 -0.32,-0.42 -0.87,-0.72 -1.6,-0.77 -1.08,-0.07 -1.17,0.19 -1.86,0.51z"/>
   <path class="fil6" d="M23.46 30.54c0.41,-0.17 0.21,-0.29 0.63,-0.23 -0.04,-0.45 -0.09,-0.04 0.55,-0.77 0.12,-0.14 0.18,-0.22 0.3,-0.35 0.32,-0.34 0.21,0.01 0.3,-0.45l-2.63 -0.02c-0.2,-0.23 -0.72,-0.9 -0.83,-1.21l4.39 -0c0.28,-0.27 0.79,-1.16 0.76,-1.51l-6.05 -0.01 -0.5 -1.23 7.14 0 0.23 -0.64 1.07 -0.12 -1.36 0.02c-0.01,0.53 0,-0 -0.09,0.49l-7.09 0.07c-0.28,0.46 0.25,1.32 0.51,1.62 1.22,0.1 3.68,0.02 5.1,0.02l0.63 0.12c-0.13,0.3 0.14,0.3 -0.55,0.27 0,0.47 0.1,0.29 -0.19,0.48l0.15 -0.08c0.01,0 0.04,0.01 0.05,0.02 0.6,0.36 -0.07,-0.59 0.07,0.07 0.07,0.36 -0.19,0.24 -0.52,0.25 -1.16,0.05 -3.33,-0.17 -4.19,0.11 0.02,0.02 0.08,0.11 0.09,0.13 0.11,0.42 -0.11,0.34 0.19,0.71 -0.34,-0.31 0.14,-0.33 0.17,-0.35l0.56 0.94c0.56,0.32 1.42,0.05 2.01,0.16 0.02,0 0.06,0.02 0.07,0.02 0.02,0 0.06,0.05 0.07,0.03 0.01,-0.02 0.05,0.02 0.07,0.03 -0.06,0.11 -0.01,0.19 -0.3,0.21 -0.16,0.01 -0.1,-0.02 -0.14,-0.11 0.04,0.13 0.13,-0.18 0.01,0.27 -0.09,0.38 -0.37,0.03 -0.68,1.05z"/>
   <path class="fil7" d="M18.45 23.47c0.01,0.3 -0.98,0.17 -1.46,0.15 -0.69,-1.4 -0.42,-2.02 -1.49,-1.77l-0 0.52 0.34 -0.12c0.32,0.5 0.5,1.24 0.78,1.74 0.32,0.03 0.7,0.05 1.02,0.04 0.45,-0.01 0.45,-0.03 0.69,-0.28 0.01,-0.01 0.03,-0.04 0.05,-0.06 0.57,0.26 -0.4,0.32 1.95,0.32 0.39,-0 1.64,0.06 1.91,-0.04l0.17 -0.09c0.01,-0.01 0.03,-0.02 0.05,-0.03l-0.08 -0.22c-0.68,-0.02 -1.36,-0.02 -2.05,-0.02 -2.08,-0 -1.11,0.81 -1.33,-4.91 -0.54,-0.95 -0.35,1.74 -0.34,2.03 0.02,0.85 0.05,2.06 -0.2,2.72z"/>
   <path class="fil3" d="M24.92 20.18c0.03,0.36 -0.12,0.72 -0.06,1.19 0.1,0.76 1.19,0.6 1.67,0.48 0.54,-0.13 0.05,-0.34 0.89,-0.14l0.22 0.05 0 -0.65 0.34 0.28c0.02,-0.45 -0.08,-1.05 -0.61,-1.02 -0.72,0.22 -0.13,0.33 -0.47,0.44l-0.6 -0.02c0.1,-0.19 0.12,0.03 -0.02,-0.36l-0.07 -0.15c-0.12,-0.19 -0.37,-0.26 -0.6,-0.27 -0.33,-0.02 -0.51,0.03 -0.68,0.17z"/>
   <path class="fil4" d="M13.14 23.64l-3.38 -0.02c-0.08,-0.83 0.05,-1.67 0.06,-2.5 0.01,-0.81 -0.06,-1.7 -0.08,-2.52l-0.27 -0.01c-0.27,0.43 -0.08,2.09 -0.08,2.71 -0,2.77 -0.59,2.73 1.01,2.72 1.05,-0.01 2.98,0.25 2.73,-0.38z"/>
   <path class="fil8" d="M39.86 19.9c-0.06,2.34 -0.24,2.59 0.57,2.56 1.36,-0.05 1.01,-1.53 0.83,-1.89 -0.26,-0.51 -0.7,-0.69 -1.4,-0.67z"/>
   <path class="fil6" d="M20.44 20.14c0.15,0.36 0.42,0.26 0.9,0.25 0.39,-0.01 0.76,-0.02 1.15,-0.04 -0.03,0.35 0.05,1.01 -0.2,1.23l-0.2 0.37 -1.5 -0.01 -0.16 0.18c0.12,0.6 1.36,0.29 2.3,0.29 -0.02,0.66 -0.01,1.1 -0.36,1.23l0.08 0.22c0.38,-0.1 0.07,0.01 0.37,-0.13 0.01,-0.43 0.13,-0.71 0.19,-1.06 -0.28,-1.38 -0.28,-1.29 0.02,-2.66 -0.29,0.39 -0.06,0.49 -0.46,0.27 -0.36,-0.19 -0.17,-0.22 -0.03,-0.55 -0.69,0.47 -0.17,0.17 -1.98,0.19l-0.13 0.23z"/>
   <path class="fil9" d="M13.69 18.78c0,0.81 0.13,2.5 0.06,3.27 -0.04,0.41 -0.24,0.7 -0.24,0.7 -0.01,-0.01 -0.02,0.05 -0.03,0.07l0 0.27 0.24 0.82c0.36,0.22 1.11,0.13 1.59,0.09l0.07 -0.38 -1.27 -0.01 -0.01 -5.03c-0.28,0.06 -0.23,0.06 -0.41,0.2z"/>
   <path class="fil4" d="M5.93 23.61c-0.15,0.01 -0.39,0.03 -0.54,0.02 -1.6,-0.11 0.64,-2.34 0.65,-2.61 -0.2,-0.6 -0.84,-1.08 -1.14,-1.71l-0.07 -0.83c-0.34,0.25 -0.35,0.11 -0.36,0.67 -0.01,0.37 0.03,0.59 0.19,0.83 0.19,0.28 0.8,0.9 0.88,1.18 0.23,0.78 -1.62,1.62 -0.98,2.73 0.08,0.09 0.95,0.41 1.36,-0.28z"/>
   <path class="fil10" d="M39.86 19.9c0.7,-0.02 1.15,0.16 1.4,0.67 0.18,0.36 0.53,1.84 -0.83,1.89 -0.81,0.03 -0.63,-0.22 -0.57,-2.56zm-0.04 -0.34c-0.06,0.41 -0.09,2.17 -0.04,2.59 0.04,0.3 0.01,0.3 0.29,0.36 2.28,0.52 2.5,-3.72 -0.25,-2.95z"/>
   <path class="fil7" d="M6.53 22.81c0.23,0.03 0.18,-0.19 0.6,0.48 0.18,0.28 0.34,0.49 0.49,0.72l1.1 -0.03 0.2 -0.37 -0.92 0c-0.27,-0.4 -0.69,-1.11 -1.03,-1.42 -0.24,0.17 -0.34,0.35 -0.45,0.61z"/>
   <path class="fil9" d="M34.96 19.82c0.63,0.02 1.17,0.2 0.93,0.93 -0.26,0.15 -0.59,0.14 -0.85,0.04 -0.16,-0.14 -0.1,-0.78 -0.08,-0.97zm-0.03 -0.33l-0.08 1.07c0.09,0.77 1.3,0.16 1.3,0.16 0.64,-0.57 -0.07,-1.65 -1.23,-1.24z"/>
   <path class="fil4" d="M24.87 20.1l0.04 0.08c0.17,-0.14 0.36,-0.2 0.68,-0.17 0.24,0.02 0.48,0.08 0.6,0.27l0.51 0.26 0.34 -0.3c-0.12,-0.02 -0.02,-0.02 -0.09,-0.12 -0.29,-0.19 -0.49,-0.47 -0.98,-0.52 -0.59,-0.06 -0.93,0.17 -1.11,0.5z"/>
   <path class="fil11" d="M13.06 22.41c-0.21,-0.09 -0.68,-0.05 -0.99,-0.05 -0.92,0.01 -0.72,-0.09 -0.79,-0.31 0.35,-0.22 1,-0.09 1.55,-0.08l0.23 -0.4c-1.17,-0.03 -1.94,-0.32 -1.91,0.38 0.02,0.48 0.26,0.49 0.73,0.5 0.39,0.01 0.78,-0.03 1.18,-0.04z"/>
   <path class="fil12" d="M34.96 19.82c-0.02,0.19 -0.08,0.83 0.08,0.97 0.26,0.09 0.59,0.11 0.85,-0.04 0.24,-0.72 -0.3,-0.91 -0.93,-0.93z"/>
   <path class="fil9" d="M11.25 20.26c0.19,-0.38 -0.11,-0.2 0.27,-0.35l1.48 0.08c0.25,-0.29 0,-0.16 0.34,-0.31l-0.33 -0.12c-0.42,-0.02 -1,-0.07 -1.41,-0.05 -0.53,0.03 -0.54,0.29 -0.35,0.74z"/>
   <path class="fil7" d="M15.48 19.85c0.22,-0.09 0.1,-0.09 0.31,-0.08 0.41,0.02 0.29,0.09 0.35,0.13 0.28,0.09 0.27,0.11 0.36,0.37 0.15,0.21 0.1,0.31 0.21,0.5 0.71,-0.59 0.15,-1.57 -1.18,-1.28l-0.05 0.37z"/>
   <path class="fil4" d="M20.44 20.14l0.13 -0.23c1.81,-0.02 1.28,0.28 1.98,-0.19l-0.35 -0.17c-0.4,-0.02 -0.83,-0.04 -1.23,-0.04 -0.6,-0 -0.57,0.04 -0.53,0.62z"/>
   <path class="fil4" d="M30.09 20.97c0.07,0.07 0.17,-0.09 0.24,0.35 0.07,0.42 -0.07,0.24 -0.09,0.28 -0.45,-0.11 -0.3,-0.15 -0.15,-0.63zm0.64 0.65c0.19,-0.36 -0.11,-1.01 -0.3,-1.53 -0.19,0.18 -0.16,0.18 -0.27,0.48 -0.26,0.72 -0.62,1.33 0.57,1.05z"/>
   <path class="fil13" d="M16.5 20.26c-0.09,-0.26 -0.09,-0.28 -0.36,-0.37l-0.45 -0.02c-0.29,0.81 0.14,1.17 0.79,0.84l0.02 -0.45z"/>
   <path class="fil4" d="M20.43 22.12l0.16 -0.18 1.5 0.01 0.2 -0.37c-0.41,-0.03 -0.79,-0.06 -1.23,-0.07 -0.66,-0.01 -0.64,-0.05 -0.63,0.61z"/>
   <path class="fil14" d="M30.24 21.6c0.02,-0.04 0.15,0.14 0.09,-0.28 -0.07,-0.45 -0.17,-0.29 -0.24,-0.35 -0.15,0.48 -0.3,0.52 0.15,0.63z"/>
  </g>
 </g>
</svg>
