<?xml version="1.0" encoding="UTF-8"?>
<!DOCTYPE svg PUBLIC "-//W3C//DTD SVG 1.1//EN" "http://www.w3.org/Graphics/SVG/1.1/DTD/svg11.dtd">
<!-- Creator: CorelDRAW -->
<svg xmlns="http://www.w3.org/2000/svg" xml:space="preserve" width="25.4386mm" height="23.2593mm" version="1.1" style="shape-rendering:geometricPrecision; text-rendering:geometricPrecision; image-rendering:optimizeQuality; fill-rule:evenodd; clip-rule:evenodd"
viewBox="0 0 277.67 253.88"
 xmlns:xlink="http://www.w3.org/1999/xlink"
 xmlns:xodm="http://www.corel.com/coreldraw/odm/2003">
 <defs>
  <style type="text/css">
   <![CDATA[
    .fil1 {fill:#08080A}
    .fil2 {fill:#40A756}
    .fil3 {fill:#CB2229}
    .fil0 {fill:white}
   ]]>
  </style>
 </defs>
 <g id="Camada_x0020_1">
  <metadata id="CorelCorpID_0Corel-Layer"/>
  <g id="_2445057221328">
   <path class="fil0" d="M277.32 116.92c2.7,24.66 -10.93,75.57 -16.69,101.28 -8.77,39.55 -33.01,34.94 -65.03,35.39 -47.12,0.67 -94.26,0.05 -141.37,-0.49 -18.89,-0.21 -31.71,-10.2 -36.37,-28.97 -6.94,-28.33 -19.15,-75.91 -17.74,-103.91 8.3,-132.8 194.7,-160.8 258.78,-57.75 9.81,15.78 15.85,33.23 18.09,51.65l0.34 2.79z"/>
   <path class="fil1" d="M51.53 226.51c-7.16,-0.8 -7.2,-10.45 -8.58,-16.39 -4.5,-19.27 -9.69,-42 -13.53,-60.91 -9.1,-51.59 13.86,-94.21 62.6,-114.34 56.35,-23.28 126.98,-1.74 151.38,56.93 6.38,16.05 7.69,31.43 5.57,48.47 -0.98,6.95 -2.44,13.75 -3.97,20.59 -1.73,7.67 -3.36,15.39 -5.12,23.19 -1.74,7.72 -3.41,15.5 -5.14,23.22 -0.85,3.79 -1.72,7.61 -2.55,11.42 -0.95,4.34 -2.06,7.39 -6.8,7.9l-51.28 0.22 0.1 11.2c3.06,0.48 9.83,0.15 13.29,0.15 5.51,0 39.04,0.48 39.67,-0.56 6.02,0.43 12.78,-5.9 14.71,-9.17 2.45,-4.15 3.73,-12.86 4.9,-18.09 5.58,-24.77 17.51,-67.7 15.59,-91.85 -7.6,-70.27 -71.22,-109.34 -137.95,-103.03 -66.03,6.25 -118.98,59.46 -108.49,127.93 1.33,8.72 3.31,17.44 5.24,26.05 2.95,13.15 5.74,26.25 8.7,39.33 1.16,5.11 2.84,15.48 5.03,19.31 1.69,2.95 3.6,4.67 6.01,6.33 1.97,1.36 6.19,3.46 9.53,3.34 0.19,0.08 0.13,0.16 0.89,0.3l2.98 0.11c9.1,-0.01 56.21,0.33 59.14,-0.16l-0.12 -11.31 -61.8 -0.16zm92.96 0.14l-20.25 0.13 0.11 11.22c3.01,0.41 21.87,0.13 27.82,0.14 0.42,0 2.96,0.05 3.14,-0.35 0.05,-0.1 0.16,-0.09 0.24,-0.14 3.7,-0.07 7.09,-3.77 7.38,-7.32 0.33,-4.15 0.02,-9.43 0.02,-13.71 0,-9.28 0,-18.55 0,-27.83 0,-5.03 0.84,-23.8 -0.89,-27.01 -1.74,-3.24 -4.92,-4.72 -9.88,-4.73 -5.09,-0.01 -10.18,0.01 -15.27,0.01 -9.68,0 -21.44,-2.01 -23.44,6.54 -0.54,2.31 -0.19,36.27 -0.19,41.63 0,5.36 -0.64,7.72 2.99,10.9 3.26,2.85 7.64,2.21 12.84,2.21 5.08,0 10.18,-0.03 15.35,0.01l0.04 8.32zm48.43 -20.1c-0.62,-0.43 -0.7,0.98 -0.65,-3.01l0.02 -46.35 -17.91 -0.02 0.06 60.97 37.05 -0.05c6.49,0.13 7.84,-8.65 8.62,-11.98 3.56,-15.19 7.59,-35.11 11.43,-49.04l-17.86 0.03 -11.41 49.39 -9.35 0.05zm-121.89 -16.7l13.06 0.03 -0.08 16.63 -13.1 -0 0.12 -16.66zm13.07 -20.72l-0.07 8.88c-5.13,0.15 -21.34,-0.57 -24.88,0.42 -7.7,2.17 -6.51,9.2 -6.51,16.73 0,6.28 -1.49,16.83 2.58,20.65 4.1,3.84 15.22,2.52 22.17,2.52 4.22,0 8.43,-0.01 12.65,0 14.92,0.03 12.22,-8.34 12.22,-22.83 0,-7.6 0,-15.2 0,-22.8 0,-4.64 1.56,-14.7 -7.67,-15.41l-32.65 -0.05 -0.01 11.43 19.93 0.02c2.02,-0.01 1.87,-0.03 2.24,0.44zm47.45 -0.26l13.19 0.07 0 1.42 0.02 34.87 -0.11 1.29 -13.1 0.01 -0 -37.65z"/>
   <path class="fil2" d="M38.73 147.53l63.46 0.06 0.02 -106.96c-2.85,0.18 -13.21,5.23 -15.68,6.53 -14.57,7.68 -26.26,18.11 -35.42,31.45 -5.91,8.62 -10.5,18.77 -12.94,30.22 -3,14.05 -1.88,24.9 0.57,38.69z"/>
   <path class="fil3" d="M204.08 56.03c-1.45,-0.52 -5.22,-3.49 -6.99,-4.61 -2.27,-1.44 -4.55,-2.79 -7,-4.09 -2.68,-1.42 -12.98,-6.59 -16.07,-6.61 0.78,2.19 0.18,100.88 0.28,106.69 2.11,0.46 27.14,0.18 31.44,0.18 9.83,0 22.1,0.59 31.62,-0.06 2.26,-3.64 2.79,-23.73 2.27,-28.9 -1.74,-17.26 -8.13,-32.6 -18.82,-46.01 -2.67,-3.35 -5.19,-5.8 -7.88,-8.66 -1.45,-1.54 -2.72,-2.74 -4.39,-4.09l-4.47 -3.84z"/>
  </g>
 </g>
</svg>
