<?xml version="1.0" encoding="UTF-8"?>
<!DOCTYPE svg PUBLIC "-//W3C//DTD SVG 1.1//EN" "http://www.w3.org/Graphics/SVG/1.1/DTD/svg11.dtd">
<!-- Creator: CorelDRAW -->
<svg xmlns="http://www.w3.org/2000/svg" xml:space="preserve" width="20.8334mm" height="23.9073mm" version="1.1" style="shape-rendering:geometricPrecision; text-rendering:geometricPrecision; image-rendering:optimizeQuality; fill-rule:evenodd; clip-rule:evenodd"
viewBox="0 0 2849.69 3270.15"
 xmlns:xlink="http://www.w3.org/1999/xlink"
 xmlns:xodm="http://www.corel.com/coreldraw/odm/2003">
 <defs>
  <style type="text/css">
   <![CDATA[
    .fil0 {fill:#282829}
    .fil7 {fill:#07DA16}
    .fil19 {fill:#13D026}
    .fil3 {fill:#16D626}
    .fil22 {fill:#1A2756}
    .fil18 {fill:#1C2A67}
    .fil14 {fill:#264BB9}
    .fil30 {fill:#314993}
    .fil5 {fill:#36C92B}
    .fil35 {fill:#4B4B4B}
    .fil37 {fill:#6C6C6C}
    .fil10 {fill:#6FD431}
    .fil28 {fill:#8DD315}
    .fil12 {fill:#989897}
    .fil6 {fill:#9BC3AC}
    .fil2 {fill:#9C9C9C}
    .fil17 {fill:#A3A3A3}
    .fil1 {fill:#A4C4B3}
    .fil8 {fill:#A8A8A8}
    .fil11 {fill:#B3B0A9}
    .fil20 {fill:#C31A1B}
    .fil23 {fill:#C6C6C5}
    .fil29 {fill:#C8FB27}
    .fil34 {fill:#CBCBCB}
    .fil36 {fill:#D8DF99}
    .fil32 {fill:#DBDBDB}
    .fil31 {fill:#E4E3E3}
    .fil33 {fill:#F2F52F}
    .fil16 {fill:#F3F3F3}
    .fil24 {fill:#F6F719}
    .fil15 {fill:#F7F8F8}
    .fil27 {fill:#F9FAD3}
    .fil21 {fill:#FAFAEA}
    .fil9 {fill:#FAFAFA}
    .fil25 {fill:#FBFCB1}
    .fil13 {fill:#FCFCF4}
    .fil26 {fill:#FCFDFB}
    .fil4 {fill:yellow}
   ]]>
  </style>
 </defs>
 <g id="Camada_x0020_1">
  <metadata id="CorelCorpID_0Corel-Layer"/>
  <g id="_2444738447744">
   <path class="fil0" d="M1606.15 3165.95c-19.55,62.96 -77.98,105.76 -145.51,104.15l-18.34 -0.44c-56.48,-1.35 -104.95,-32.69 -129.21,-81.29 -6.44,-0.63 -12.56,-1.37 -18.15,-2.22 -23.98,-3.64 -45.81,-12.57 -64.32,-25.65 -35.45,25.03 -78.64,35.02 -123,33.33 -35.48,-1.34 -80.98,-9.64 -111.32,-28.33 -2.86,-1.75 -5.62,-3.57 -8.3,-5.44 -2.35,1.67 -4.81,3.32 -7.4,4.99 -49.68,31.94 -89.61,26.48 -143.01,26.74 -42.21,0.22 -76.5,-1.96 -115.02,-23.43 -58.82,-32.79 -79.39,-88.35 -112.29,-142.16 -16.07,-26.26 -29.11,-54.74 -45.36,-80.44 -10.4,-16.44 -20.46,-32.88 -29.57,-50.12 -23.75,-44.99 -39.6,-92.58 -29.76,-144.31 12.43,-65.4 64.11,-113.04 130.3,-120.14 65.88,-7.06 138.97,-10.96 196.33,28.56 6.55,4.53 12.31,8.99 17.41,13.45 29.85,-27.77 65,-41.25 110.11,-44.02 4.92,-0.3 10,-0.53 15.2,-0.7 -24.68,-16.61 -49.3,-34.14 -74.29,-52.58 -57.83,-42.66 -110.63,-90.7 -162.19,-140.67 -26.88,-26.07 -52.35,-54.95 -76.08,-83.92 -2.43,-2.97 -4.4,-5.57 -6.62,-8.71l-1.18 -1.67c-10.87,2.67 -21.45,5.33 -31.23,7.7 -92.6,22.36 -158.1,15.31 -239.54,-35.11 -217.68,-134.77 -236.3,-435.8 -155.99,-655.46 16.28,-44.52 38.31,-88.16 61.36,-129.52 3.58,-6.44 7.22,-12.69 10.89,-18.81 -11.02,-15.42 -21.74,-31.65 -32.83,-50.04 -7.09,-11.74 -13.9,-26.34 -20.85,-40.71 -35.66,-1.45 -69.73,-10.83 -101.19,-31.42 -73.02,-47.75 -84.98,-123.05 -78.46,-200.54 -9.4,-18.3 -15.05,-38.89 -16.25,-60.84 -0.3,-5.51 -0.48,-11 -0.57,-16.43 -9.85,-9.51 -18.55,-20.56 -25.89,-33.06 -21.52,-36.59 -24.48,-66.3 -23.99,-107.12 0.03,-2.37 0.1,-4.39 0.23,-6.76 0.78,-13.5 2.16,-26.89 3.21,-40.37 1.07,-13.6 3.24,-25.61 5.96,-38.53 2.48,-24.65 10.4,-46.41 24.35,-66.87 9.89,-27.52 22.05,-49.6 45.21,-71.36 11.65,-10.94 23.99,-19.94 36.82,-26.99 14.16,-19.83 32.12,-36.99 53.21,-49.99 15.63,-9.64 31.76,-16.52 48.05,-20.72 -33.31,-32.68 -50.45,-80.13 -43.35,-128.76 1.93,-20.05 8.28,-41.12 16.58,-59.35 26.08,-57.23 64.62,-114.87 107.14,-161.13 20.98,-22.82 42.12,-45.28 64.4,-66.83 110.49,-106.87 164.76,-130.12 318.26,-152.42 56.23,-8.17 112.38,-6.11 167.9,5.8 2.64,0.57 5.23,1.16 7.8,1.78 41.91,-18.48 93.15,-18.45 141.45,4.35 3.97,1.87 8.85,4.25 13.49,6.11 26.04,-2.2 51.03,-6.44 78.47,-7.39 50.01,-1.75 100.04,-2.34 149.33,-0.18 1.26,-2.63 2.6,-5.21 4.01,-7.77 25.26,-48.68 71.63,-78.01 126.69,-79.94 56.64,-2 87.24,-4.95 130.01,7.41 15.33,-5.74 31.91,-9.01 49.28,-9.51 108.29,-3.08 161.35,30.94 237.66,101.47 1.59,1.46 3.16,2.93 4.69,4.36 125.14,-82.36 287.29,-89.76 431.56,-57.68 72.71,16.17 107.32,32.72 163.81,79.6 29.31,24.32 57.93,47.83 85.6,74.16 65.88,62.67 151.93,162.99 166.97,253.43 5.39,32.34 0.4,63.88 -13.21,91.13 -5.23,11.26 -11.87,21.91 -19.89,31.69 20.86,21.23 34.92,48.7 39.97,79.73 0.83,2.86 1.7,5.66 2.59,8.45 7.26,1 14.57,2.54 21.89,4.62 57.85,16.46 83.21,49.09 116.77,93.25 21.65,28.48 38.74,46.27 52.37,81.82 18.11,47.23 12.17,96.6 -16.11,137.35 0.98,19.49 -0.41,39.57 -3.32,60.27 -1.07,13.65 -3.86,26.7 -8.32,39.01 8.97,52.4 7.7,101.67 -23.46,150.86 -22.91,36.17 -57.63,61.95 -98.36,74.71 -13.8,4.32 -26.24,7.09 -38.22,8.71 -12.67,29.81 -25.14,58.83 -42.84,87.99 -3.68,6.06 -7.59,12.13 -11.6,18.23 1.52,3.27 2.94,6.63 4.24,10.07 11.26,19.77 26.07,39.08 37.44,59.05 13.2,23.19 23.32,48.41 35.91,71.74 9.53,13.92 16.13,28.86 20.57,46.26 5.77,22.6 17.18,46.84 24.07,70.03 32.88,110.66 36.78,233.48 -0.68,343.47 -34.29,100.7 -101.11,180.36 -199.82,222.26 -31.75,13.47 -59.02,20.38 -87.58,24.89 -9,9.12 -18.34,16.78 -28.75,23.68 -8.71,13.34 -16.66,25.81 -29.55,39.19 -34.4,35.76 -74,61.42 -122.75,72.73 -19.83,4.61 -37.57,5.85 -55.03,6.13l-21.11 25.37c-1.11,1.33 -2.07,2.45 -3.21,3.73 -21.35,23.99 -44.82,51.17 -70.59,73.73 -2.95,3.56 -6.09,7 -9.4,10.33 -3.17,3.42 -6.44,6.66 -9.85,9.85 -11.12,14.95 -24.98,27.33 -41.92,37.51 -13.71,10.55 -26.54,23.98 -40.78,34.88 -15.78,12.09 -33.05,23.14 -50.3,33.74 40.28,-13.51 77.41,-13.45 129.1,-13.49 43.11,-0.03 86.24,-0.19 129.36,-0.08 66.83,0.16 128.93,18.85 170.19,75.56 36.81,50.57 37.88,103.01 30.52,161.6 -3.95,31.47 -16.85,59.39 -36.59,81.29 -4.83,41.58 -23.06,80.89 -51.24,121.11 -31.56,45.03 -65.53,82.69 -117.05,105.34 -60.96,26.82 -121.67,20.24 -185.93,20.31 -1.11,0 -2.05,-0.01 -3.16,-0.03l-112.7 -2.28c-24.01,-0.48 -46.33,-6.11 -66.12,-16.4 -12.84,5.98 -26.8,10.15 -41.75,12.43 -55.1,8.41 -120.77,9.94 -171.9,-13.73 -5.06,-2.34 -9.93,-4.91 -14.61,-7.69z"/>
   <path class="fil1" d="M1192.09 838.18c10.04,4.4 22.46,23.12 34.09,35.26 13.68,14.28 25.43,22.34 35.28,36.93 -3.99,14.88 -110.3,136.87 -125.65,156.58 -5.31,6.81 -10.07,11.68 -15.84,18.15 -5.96,6.68 -9.12,10.66 -15.66,18.29 -91.25,106.66 -234.67,291.38 -284.16,420.89 -5.99,15.68 -12.21,38.03 -18.45,52.18 -49.98,1.71 -104.3,-64.18 -138.7,-98.99 -6.55,-6.63 -12.93,-13.43 -20.11,-20.48 -13.47,-13.2 -14.58,-11.44 -17.59,-21.83 -14.13,-5.87 -5.38,-7.43 -18.89,-12.64 -23.09,18.52 -103.81,142.09 -123.19,174.58 -23.34,39.11 -58.79,104.83 -75.64,148.38 -6.02,15.55 -12.38,38.35 -19.12,52.81 14.13,7.43 0.1,-3.13 6.84,16.95 11.67,-3.24 13.68,-2.43 21.31,3.38 -0.83,21.08 -11.5,73.77 -8.14,91.62 1.82,9.67 3.15,8.52 3.61,16.36l4.81 36.12c4.5,28.03 13.45,55.1 25.85,80.47l24.4 42.87c4.36,7.97 -3.98,-3.54 3.58,6.44 4.8,6.35 1.96,2.13 5.09,5.02 19.41,17.81 9.08,15.18 29.98,29.49 -3.97,1.97 -8.14,-0.4 -13.71,2.95 -11.93,7.18 -9.11,-4.73 -4.32,11.16 15.72,19.77 86.69,31.08 134.45,18.56 25,-6.57 46.94,-11.31 69.62,-17.99 16.95,-4.99 56.2,-20.98 67.07,-21.71 47.68,89.24 39.38,85.94 110.22,167.92 96.82,112.01 278.14,220.02 407.37,287.74 45.37,23.77 48.63,29.48 109.33,32.81 95.38,5.21 173.72,-1.63 260.93,-16.52 37.59,-6.43 217.79,-128.51 258.45,-158.98 13.32,-9.99 26.15,-22.2 36.41,-31.43 6.77,-6.1 9.99,-10.42 17.04,-16.95 38.49,-35.55 78.35,-76.15 110.65,-116.02l39.63 -51.86c10.04,2.71 14.69,8.59 28.96,13.02 38.38,11.93 70.18,-7.56 92.73,-34.06 15.17,-17.85 23.16,-37.25 36.33,-51.77 20.72,-22.84 21.61,-25.74 29.37,-61.72 14.4,-6.91 43.95,8.59 88.8,3.19 85.05,-10.25 136.39,-55.86 155.05,-147.32 17.3,-84.93 0.79,-183.37 -30.12,-260.48l-22.71 -52.22 -9.4 -13.47 -10.97 -10.14c1.5,28.49 7.67,18.34 14.5,34.42l20.56 54.85c2.35,6.31 3.13,10.51 4.47,15.06 3.3,11.24 3.42,9.29 6.54,17.55 1.96,5.2 8.23,23.81 10.35,31.04 15.06,51.38 18.67,159.64 -0.57,204.94l-9.26 27.63 -10.34 17.17 -35.33 38.82c-8.9,7.17 -23.7,18.06 -42.02,11.01l-16.52 -5.17c-2.01,9.67 0.22,4.3 -3.36,9.14 -6.59,8.95 2.43,4.66 -10.2,7.81 1.42,-1.9 -3.97,-5.98 7.61,-2.74 13.16,3.71 3.88,-1.34 12.72,8.1l-89.84 0.27c-8.37,-0.45 -4.75,-2.69 -8.49,1.14 8.26,0 6.05,0.89 13.39,-2.07l13.77 -9.34c-19.16,6.73 -16.74,3.16 -33.85,-2.53l-49.23 -6.05c-1.59,22.13 2.28,51.76 -22.08,73.81l-7.73 5.35c-15.83,26.93 -25.46,52.13 -52.54,70.54 -28.49,19.37 -67.22,8.02 -83.59,-16.37l-11.9 -0.26c2.22,10.05 -26.7,40.02 -35.84,51.03 -47.85,57.65 -99.32,113.31 -156.21,162.39 -30.65,26.45 -40.04,36.23 -76.87,62.13 -22.06,15.51 -92.92,69.31 -112.51,73.25 -7.06,10.26 -38.52,27.47 -51.01,33.99 -14.54,7.61 -52.55,13.21 -71.26,16.24 -100.97,16.29 -209.98,21.46 -299.04,-31.16 -74.92,-44.26 -143.61,-85.6 -214.26,-135.25 -126.59,-88.94 -178.91,-134.28 -255.49,-272.15 -4.34,-18.63 -14.31,-35.1 -19.15,-59.21 -10.45,-0.16 -137.39,41.76 -168.23,49.63 -59.62,15.21 -93.82,18.74 -145.89,-54.34 -52.02,-73.02 -69.65,-171.02 -46.79,-262.07 3.82,-15.21 22.13,-71.58 28.78,-79.66 14.83,-46.44 50.28,-106.75 75.08,-148.89 11.82,-20.07 73.48,-120.08 88.02,-131.83 5.7,3.46 24.24,23.55 30.64,30l97.62 89.85c7.4,1.9 -0.08,-0.9 6.96,2.68l25.31 14.69c17.28,7.84 29.12,9.74 49.73,4.45 9.59,-13.36 29.55,-95.71 39.9,-101.56 14.05,-49.99 61.53,-117.54 89.88,-158.26 46.32,-66.5 212.62,-295 260.53,-342.73 20.59,-20.5 40.49,-49.34 57.57,-59.39l51.9 -85.29c10.9,-14.38 46.53,-60.43 48.24,-81.84 -86.64,-14.13 -85.61,84.46 -96.49,121.33 -14.17,-8 -60.86,-58.58 -75.38,-75.12 -64.1,-73.02 -140.9,-177.57 -169.59,-270.97 -22.61,-36.8 -54.99,-212 -57.15,-263.34 76.91,12.06 149.23,-6.18 229.99,-4.84 74.77,1.24 139.6,17.29 197.76,43.48 102.67,46.23 150.89,103.05 140.12,217.02 -4.1,43.37 -18.64,70.65 -23.38,96.6 15.31,-4.84 10.89,-5.77 22.84,-15.87 8.36,-7.06 14.66,-10.11 25.24,-11.5 15.65,18.62 18.41,241.68 23.08,302.23 1.23,15.83 0.96,36.04 3.2,50.15 2.72,17.15 5.7,13.9 15.5,25.35 3.82,4.46 1.7,1.27 3.65,5.28 21.53,10.72 125.38,116.39 155.55,147.51 3.05,3.15 6.81,6.46 10.09,9.99 6.51,6.99 5.83,6.52 9.68,12.9l4.53 5.17c13.72,7.97 46,42.05 52.62,55.82l3.67 2.33c14.57,11.63 72.66,83.01 89.02,103.49 55.96,70.07 80.03,138.33 114.09,221.45 36.55,7.81 59.31,-7.78 81.54,-26.82 25.69,-22.01 39.87,-36.82 57.37,-56.77 -21.02,6.78 -5.27,-0.07 -26.15,16.61 -18.82,15.03 -41.08,39.37 -72.1,38.67 -10.46,-15.89 -40.32,-93.01 -57.46,-123.69 -30.15,-53.95 -119.77,-152.1 -167.66,-199.14 -20.76,-20.38 -42.75,-48 -65.66,-69.83 -10.59,-10.08 -13.8,-12.71 -22.3,-21.74 -44.65,-47.38 -91.45,-90.15 -140.68,-134.24 -25.05,-22.43 -32.08,-201.32 -32.4,-236.49 -0.94,-100.73 18.32,-141.63 -36.3,-145.8 3.27,-25.65 8.81,-38.71 8.82,-67.71 0,-23.35 -9.97,-48.45 -7.48,-66.74 -4.02,-4.25 -0.19,2.27 -6.62,-8.93 -9.73,-16.96 -5.7,-23.98 -33.61,-57.46 -46.49,-55.73 -124.98,-92.07 -200.14,-108.39 -63.63,-13.82 -126.36,-16.78 -194.21,-15.02 -33.91,0.89 -63.85,3.73 -95.52,6.02 -38.82,2.8 -68.28,-7.06 -95.59,-5.54 5.87,68.91 4.83,120.93 19.49,186.67 25.03,112.16 68.41,180.38 130.89,269.4l87.56 114.15z"/>
   <path class="fil2" d="M2650.71 1090.65l-1.9 6.62c5.33,6.78 1.6,-2.6 5.06,11.37 2.54,10.25 8.13,35.65 2.41,42.31 -50.5,27.27 -86.3,-18.33 -121.53,37.42 -15.46,24.46 -36.3,99.47 -50.21,110.07 -11.52,34.05 -75.14,113.79 -79.99,136.76 11.15,8.69 23.06,24.84 30.37,35.93 74.1,112.56 129.12,187.91 149.08,342.14 14.06,108.58 -22.97,244.3 -129.26,287.71 -43.95,17.95 -73.22,18.04 -125.2,17.71 6.5,62.06 -29.64,32.28 -45.13,63.39 -15.5,31.12 -31.62,63.96 -82.86,72.25 -33.17,5.36 -56.57,-3.45 -83.73,-2.16 -10.42,13.43 -16.24,22.98 -28.3,39.45 -32.03,43.74 -131.24,143.19 -173.57,179.02 -63.18,53.5 -192.61,119.89 -276.85,146.96 -235.38,75.64 -452.36,-26.4 -635.06,-162.72 -74.79,-55.81 -235.17,-194.82 -274.7,-290.67 -23.81,-0.67 -103.16,21.34 -132.35,27.3 -64.32,13.15 -71.62,19.82 -127.65,-12.46 -144.96,-83.53 -149.26,-323.67 -89.92,-472.52 22.64,-56.77 63.8,-129.38 97.27,-180.24 12.11,-18.38 11.53,-10.11 16.8,-26.25l-78.39 -103.27 -39.97 -72.15c-16.84,-31.28 -30.39,-74.44 -75.63,-68.36 -16.74,2.24 -55.14,7.22 -69.01,-0.6 -11.71,-6.59 -9.42,-40.67 -2.37,-55.89l4.86 -75.92 8 -101.06c-12.3,13.66 -26.97,63.1 -21.95,80.74l2.57 33.99c-1.78,42.09 -20.12,109.07 5.06,125.55 25.57,16.72 64.78,-0.56 87.97,3.11 30.54,4.83 62.33,87.34 80.03,116.66 102.1,169.24 111.64,61.77 24.51,218.12 -17.32,31.08 -38.05,71.2 -51.58,108.18 -56.89,155.63 -55.6,384.91 94.57,477.9 44.44,27.51 68.9,30.86 126.29,16.99 24.92,-6.02 115.05,-27.43 133.2,-26.41l55.84 79.43c19,23.19 43.24,50.71 64.56,71.37 48.44,46.97 95.11,89.53 146.95,127.78 98.51,72.69 187.16,129.1 306.03,168.63 15.63,5.2 45.25,11.27 53.65,18.42 10.23,-1.38 56.22,4.75 64.34,8.73 187.61,11.53 299.93,-40.9 437.31,-124.62 18.7,-11.41 44.02,-26.84 57.57,-37.22 17.28,-13.23 36.7,-34.16 54.1,-43.99 2.95,-7.1 7.5,-9.77 12.89,-14.8 2.07,-1.94 5.33,-4.58 7.07,-6.66 4.94,-5.96 4.47,-2.26 3.8,-8.58 19.96,-10.79 59.61,-56.89 73.99,-73.03l64.95 -78.06c70.13,-4.2 96.46,12.23 141.09,-34.16 11.2,-11.64 26.34,-43.42 37.34,-50.35 12.56,-7.92 16.39,-6.29 26.3,-18.44 10.38,-12.72 7.56,-19.78 13.97,-29.48 13.27,-9.29 175.47,16.63 234.46,-156.59 26.89,-78.95 23.47,-170.42 -1.09,-253.11 -7.39,-24.83 -19.45,-51.46 -25.62,-75.6 -5.77,-6.46 -32.53,-65.25 -41.62,-81.24 -10.25,-17.99 -43.83,-65.27 -46.84,-78.38 -7.76,-5.65 -39.04,-46.89 -43.58,-58.82 3.87,-13.5 51.5,-82.89 62.47,-100.96 21.31,-35.11 33.32,-71.2 51.5,-111.42 35.85,-79.34 57.6,-32.92 112.26,-50.04 45.86,-14.36 6.81,-82.62 9.6,-123.93 -12.02,-19.22 -1.7,-42.95 -5.4,-62l-15.98 -43.52c-9.22,-16.22 -1.63,-4.42 -9.18,-11.09 -2.13,37.56 21.78,120.25 26.34,164.74z"/>
   <path class="fil3" d="M1889 2357.2l9.14 -12.65c31.52,-32.09 94.12,-108.83 115.9,-145.43 19.33,-32.5 23.68,-29.49 1.96,-62.48 -0.19,18.18 -3.17,12.86 -12.65,24.77 -8.32,10.42 -5.38,10.31 -16.67,20.78 -30.45,28.22 -45.85,62.24 -109.77,107.21 -34.65,24.38 -87.69,71.22 -122.93,97.25l-39.93 35.19c18.67,-5.14 19.44,-5.51 31,-17.29 1.24,-1.08 50.73,-38.33 59.09,-42.69 5.43,-2.83 13.09,-5.51 19.52,-10.66l34.22 -26.85c18.08,-18.23 3.28,-14.98 33.42,-28.12 10.4,-4.53 7.62,-3.45 15.21,-14.01 11.89,-16.25 4.17,-3.21 18.33,-12.57 6.44,-4.27 2.57,0 6.8,-7.3l22.72 -29.53c3.58,-2.74 5.18,-2.8 7.47,-4.1l10.19 -6.28c8.15,-5.21 1.35,-5.95 8.86,-3.93 -0.21,9.89 -5.27,14.25 -8.26,17.39 -15.43,16.11 -22.77,33.55 -38.53,49.64 -6.55,6.69 -8.1,8.15 -13.1,14.14l-138.43 131.93c-3.06,2.23 -4.54,3.17 -7.87,5.36 -15.33,10.07 -25.7,22.82 -40.42,34.76l-73.44 51.08 -57.7 25.98 -102.62 16.39c-25.15,3.65 -27.99,0.6 -36.69,-5.06 -4.87,-3.17 7.55,-2.13 -10.05,-3.01 -21.43,-1.04 -40.71,3.75 -54.33,-7.43 -9.25,1.76 -0.4,-1.97 -3.71,3.16 -0.21,0.33 -0.77,1.4 -0.97,1.74l-24.44 5.38c-2.9,-3.6 -5.66,-8.03 -9.23,-10.74 -15.21,-11.53 -22.91,-1.38 -53.66,-28.92 -6,-5.38 3.64,-5.38 -11.44,-3.61 -3.2,0.23 -5.2,0.6 -6.5,-0.64 -7.82,-7.52 -0.86,-6.14 0.96,-16.77 -13.77,4.16 -8.03,7.22 -25.33,1.82 -2.64,-8 -7.04,-19.71 0.81,-26.36 6.74,-5.72 6.96,-3.98 14.91,-5.39l0.47 10.3c-2.05,6.68 2.04,0.72 -3.87,3.24 18.58,0.6 10.16,5.98 20.65,-5.73 27.12,1.44 8.64,1.07 17.55,4.13 1.24,0.44 9.66,3.84 12.63,4.99l-18.12 10.15c17.13,5.79 17.34,4.38 33.7,1.61 -0.47,3.41 -3.6,10.86 -3.75,11.61 -0.86,4.12 -3.98,-0.15 1.74,5.29 3.09,-12.11 0.12,-10.11 9.99,-18.47 0.15,0.81 0.83,1.15 1.03,2.23 1.93,10.45 -4.97,1.31 5.7,6.44 0.37,0.18 1.38,0.51 1.76,0.6 11.11,2.67 1.56,-2.41 18.3,-4.68 14.85,-2.02 30.08,3.24 47.94,3.01l0 6.17c38.08,-0.62 50.6,3.75 90,-6.25l60.83 -10.12c26.14,-4.08 28.19,2.61 46.45,2.56 -2.79,1.49 5.31,9.23 -5.2,-0.93 -15.33,-14.84 8.96,-19.98 18.85,-22.16l33.01 -14.95c13.28,-5.31 5.85,-6.93 20.11,-16.26 12.87,-8.43 26.69,-6.63 22.68,-21.99 -27.62,11.91 -49,35.33 -80.66,43.59 -15.22,9.51 -41.95,17.26 -62.32,23.14 -23.13,6.68 -55.69,6.74 -82.74,7.26 -70.12,1.33 -96.67,0.3 -152.24,-21.35 -50.92,-6.96 -178.26,-90.8 -221.82,-124.17 -10.71,-8.21 -22.84,-16.48 -32.9,-24.68l-62.09 -49.79c-19.4,-17.97 -48.41,-38.6 -61.9,-53.35 -20.76,-22.69 -59.64,-72.76 -71.57,-100.97l-32.23 -79.6c17.43,135.17 87.46,216.53 163.79,286.59 89.03,81.72 152.56,125.43 254.71,192.7 55.78,36.73 80.63,56.92 165.41,57.31 80.24,0.38 131.85,0.38 196.31,-26.41 102.31,-42.55 230.21,-182.42 255.97,-193.22z"/>
   <path class="fil4" d="M1059.89 1341.21c5.61,-18.17 75.3,-90.67 93.08,-107.91 20.29,-19.66 33.99,-32.69 52.55,-49.05 13.73,-12.11 38.41,-38.98 55.66,-44.52 -8.32,25.21 -18.06,47.05 -29.08,74.47 -4.86,12.08 -24.36,64.84 -28.27,70.35l-143.94 56.67zm876.74 836.51c2.31,-0.27 4.6,-0.47 6.93,-1.22 -2.41,0.82 -4.66,0.98 -6.93,1.22zm13.97 -5.65c0.98,-0.98 2,-2.16 3.02,-3.58 2.09,-2.87 3.62,-6.26 4.64,-9.83 -1.26,4.64 -3.34,8.92 -6.29,12.05 -0.47,0.49 -0.93,0.94 -1.37,1.37zm-361.75 -473.29l-0.19 0.12 -19.86 9.88 20.05 -10zm-66.7 146.98c1.93,2.46 2.93,5.29 3.68,8.44 -0.89,-3.41 -1.96,-6.16 -3.68,-8.44zm7.71 25.02l18.6 61.38c-3.67,-11.87 -13.53,-43.06 -18.6,-61.38zm47.92 75.52c-2.08,-7.13 -6.89,-5.55 -17.7,-31.04 -5.47,-12.87 -9.06,-26.4 -15.18,-39.16 -14.35,-29.87 -23.5,-41.46 -21.93,-84.7 1.5,-41.21 13.04,-49.84 41.02,-65.93 23.25,-13.35 43.05,-23.9 70.14,-35.28 17.34,-7.3 18.79,-8.32 27.06,-23.49 3.58,-6.57 16.63,-30.75 19.96,-34.1 10.96,-11.01 125.77,-48.42 148.04,-55.27 38.93,-12 47.4,-23.76 71.46,1.29l5.54 6.06c-0.11,0.23 -0.23,0.48 -0.37,0.71 25.17,24.79 69.35,67.69 80.28,97.65 12.27,4.38 37.93,71.37 41.91,87.46 18.59,75.2 10.01,146.8 -27.29,215.75 -42.55,78.66 -74.15,55 -44.17,95.63 11.95,16.21 5.65,12.63 5.36,17.22l-1.71 5.58c-8.45,7.89 -67.57,-28.23 -92.79,-38.98 -86.48,-36.86 -156.5,-63.09 -245.84,-90.13 -27.21,-8.23 -19.57,-11.83 -34.42,-26.63l-9.37 -2.64zm340.16 -368.28l8.08 9.3c9.86,10.89 16.74,17.71 21.89,22.51 -5.72,-5.14 -13.42,-12.64 -25.24,-26.28l-4.73 -5.54zm42.8 43.44c4.92,4.95 8.95,10.85 18.68,28.55 -9.01,-16.35 -13.88,-23.43 -18.68,-28.55zm66.68 345.94c4.17,0.85 7.44,0.31 10.52,-0.86 -2.93,1.2 -6.02,1.78 -10.52,0.86zm18.08 -4.66c1.22,-0.66 2.49,-1.33 3.87,-1.97 2.09,-0.9 4.1,-1.67 6.1,-2.33 -3.04,1.05 -6.16,2.41 -9.97,4.3zm36.71 -1.76c1.63,-68.99 -11.95,-129.88 -19.78,-192.63 -28.96,-142.97 -54.06,-203.48 -118.21,-321.72l-54.99 -92.26c-20.37,0.92 -9.48,2.57 -28.49,37.81 -46.1,85.41 -76.46,62.74 -173.55,36.95 -35.02,-9.3 -133.88,-24.65 -168.48,-22.28 -5.25,6.21 -1.18,-2.09 -5.02,8.71 -5.57,35.39 -18.52,67.54 -42.21,83.01 -4.27,8.06 -8.48,9.4 -10.19,19.11 -1.81,10.3 -0.07,5.95 0.63,8.17 13.62,6.05 31.3,-1.07 31.79,15.16 0.33,10.97 -2.93,15.69 -7.35,26.03 -7.97,18.71 -24.03,63.91 -46.89,65.73 -3.15,-22.99 12.38,-51.66 2.89,-63.58 -9.66,-9.23 -20.56,0.04 -37.51,-6.4 -7.28,-21.43 21.2,-46.92 26.34,-50.12 2.59,-26.37 -21.38,-61.06 -37.9,-91.39 -6.06,-11.11 -34.05,-73.29 -46,-77.87 -23.87,95.09 -35.91,76.98 -104.13,89.03 -32.94,5.83 -76.33,21.83 -107.75,33.69 -43.07,16.25 -23.79,9.41 -30.71,6.78l28.34 -82.32c-28.11,3.65 -87.95,41.34 -119.93,52.57 -14.66,14.55 -52.61,14.49 -66.26,38.45 -4.6,8.06 -3.8,12.39 -12.82,22.53 0.01,12.15 -17.26,53.36 -23.47,73.1 -7.92,25.2 -14.42,48.56 -20.7,74.81 -12.53,52.46 -18.44,105.99 -29.05,159.82 -4.55,80.1 -9.25,144.42 -8,228.38l32.23 79.6c11.93,28.22 50.8,78.28 71.57,100.97 13.49,14.75 42.5,35.37 61.9,53.35l62.09 49.79c10.05,8.19 22.19,16.47 32.9,24.68 43.57,33.38 170.9,117.21 221.82,124.17 -7.47,-9.16 -10.71,-12.34 -17.22,-13.5 8.17,-4.46 4.69,-19.37 19.94,-26.03 52.43,-22.87 271.96,-25.7 291.47,5.64 4.94,7.95 2.91,13.45 3.11,24.84 31.67,-8.26 53.05,-31.68 80.66,-43.59l0.77 1.71 39.93 -35.19c35.24,-26.03 88.28,-72.88 122.93,-97.25 63.92,-44.97 79.32,-78.99 109.77,-107.21 11.3,-10.46 8.36,-10.35 16.67,-20.78 9.48,-11.91 12.46,-6.59 12.65,-24.77 -29.67,-64.63 -2.75,-147.29 38.29,-164.73 15.13,-6.43 16.85,1.05 27.93,-10.93zm-45.7 -260.1l-35.8 -105.02 35.8 105.02zm-38.29 -112.31l-10.04 -29.45 1.5 3.47 8.88 26.22 -0.34 -0.25zm-95.5 -177.7l0.1 0.03c-0.03,0 -0.07,-0.01 -0.1,-0.03zm1.61 -0.01c0.1,0.01 0.19,0.04 0.29,0.08 -0.1,-0.04 -0.19,-0.07 -0.29,-0.08zm0.29 0.08c0.05,0.01 0.11,0.04 0.16,0.07l-0.16 -0.07zm-352.8 -149.46c-4.92,8.54 -12.32,38.6 -9.52,50.77l-17.13 50.57 0.44 19.71c17.8,-3.75 159.23,18.79 179.19,24.99 17.17,5.32 66.44,18.44 86.89,13.61 18.44,-4.35 36.4,-39.3 45.69,-55.59 21.72,-38.15 27.03,-32.64 5.76,-68.72 -20.05,-34.05 -13.8,-31.12 -54.62,-46.66 -22.58,-8.6 -52.1,-17.74 -78.42,-23.17 -21.2,-4.38 -70.29,-11.33 -84.59,-18.38 -0.23,-20.45 14.24,-47.29 26.06,-59.64 23.17,-24.2 31.57,-12.45 61.87,-9.36 -4.5,-8.36 -24.46,-35.63 -32.43,-39.31 -5.61,-2.57 -52.77,-12.11 -60.49,-12.49 -2.3,20.3 9.01,56.34 -6.31,71.68 -1.46,40.13 -56.74,78.87 -62.39,101.99zm9.92 77.02c-1.05,-32.86 31.38,-70.79 47.2,-92.86 40.39,-3.58 74.88,5.25 100.18,22.13 0.72,32.71 -30.91,81.07 -43.09,84.9 -27.95,8.78 -86.28,-4.84 -104.3,-14.17zm71.51 -187.35c-2.2,-20.68 2.83,-29 -3.38,-47.6 13.86,-0.1 9.7,-0.26 23.68,4.75 13.28,4.69 23.38,2.8 27.19,12.2 -9.85,2.97 -22.08,3.42 -30.33,11.45l-17.17 19.2zm367.51 444.18l35.74 105.56 -35.74 -105.56zm-82.84 -17.3c-23.87,0 -7.81,-1.63 -11.75,6.66l11.75 -6.66zm-17.14 -185.41c-2.01,-3.28 -3.68,-5.62 -5.46,-7.43 2.35,2.19 3.91,4.62 5.46,7.43zm-47.22 35.43l-0.22 0.34 -30.08 34.84 30.3 -35.18zm-717.64 -145.21c8.67,0.03 40.82,-6.88 47.6,-22.47l7.67 -32.91c-16.78,18.7 -41.39,37.9 -55.27,55.38zm-588.98 349.03c-8.41,56.66 -40.82,111.53 -48.53,170.19 -4.4,33.44 -2.74,74.33 4.92,102.96 6.63,24.79 21.74,58.37 36.59,73.29 -4.86,-16.03 20.93,-24.73 42.13,-35.59 44.59,-22.82 86.95,-25.48 139.58,-25.26 66.27,0.3 53.8,6.11 63.73,-20.55l2.17 39.31 1.48 0c-2.22,-64.79 13.13,-145.95 25.06,-208.72 4.09,-21.5 12.42,-47.61 13.2,-69.14 -20.05,-4.57 -51.9,-9 -70.58,-25.98 -0.27,-0.23 -0.97,-0.94 -1.4,-1.48 -39.9,-14.29 -103.27,-135.57 -130.12,-145.17 -36.93,55.23 -51.6,82.28 -78.23,146.14zm1534.94 -16.59c7.56,10.72 29.55,95.33 35.06,115.98 4.71,17.59 26.48,128.04 28.3,131.08l4.54 -11.68c3.42,5.94 0.57,3.97 8.85,5.77 11.18,2.42 43.74,-2.5 54.36,-3.3 18.3,-1.34 56.16,-1.5 74.12,0.44 13.31,1.44 52.06,10.9 59.99,14.38l36.54 17.21c9.66,7.07 5.73,-4.5 7.7,10.26 15.14,-15.51 23.73,-43.63 32.38,-62.91 15.96,-107.77 -24.81,-166.73 -72.99,-270.53 -7.15,-15.42 -13.65,-24.12 -20.34,-36.34l-20.24 -42.14c-7.59,-14.24 -39.31,-62.29 -53.3,-68.24 -37.86,39.08 -90.69,177.03 -175.22,184.7l0.26 15.33zm-1014.46 -1284.39l-1.09 27.1c7.25,7.26 7.24,19.48 9.38,30.9 2.71,14.29 9.25,24.21 15.07,41.66 4.39,13.98 5.7,23.05 12.61,35.69 7.43,13.58 16.14,65.51 35.93,100.36 4.01,7.06 7.37,18.93 9.93,26.97 13.09,40.98 27.67,56.62 34.57,74.94l26.56 44.51c9.6,13.88 10,6.32 18.49,18.52 8.43,12.08 4.39,13.3 24.21,15.4 7.82,-20.65 12.56,-21.43 19.86,-42.14 7.54,-21.38 18.84,-18.06 21.34,-33.85 9.55,-3.95 13.32,-8.21 23.17,-15.73 4.14,-3.17 7.09,-5.14 10.93,-9.14 4.23,-4.39 4.43,-3.24 5.13,-7.59l18.66 0.78 -6.96 -9.07c-21.78,-26.69 -74.9,-11.61 -54.59,-69.23 36.21,-2.01 88.2,30.26 105.71,50.77 32.39,37.97 21.79,76.09 26.4,132.91 9.38,-5.03 28.08,-23.43 37.53,-34.2 11.59,-13.21 12.06,-40.12 22.31,-49.27l0.62 -18.42 -15.94 -23.84c-21.34,-30.54 4.97,-108.87 -65.94,-174.74l-36.7 -33.73 -94.53 -45.25c-7.09,-5.59 -8.64,-11.5 -13.23,-20.34 -9.44,-18.19 -1.93,-6.14 -16.84,-17.18l38.64 3.6c-14.02,-9.34 -81.91,-10.01 -106.3,-9.79 -20.38,0.18 -100.35,10.44 -104.94,9.4zm448.28 347.82c-3.04,9.3 -0.81,7.06 -7.85,8.03 -15.77,28.7 -95.57,105.84 -153.05,209.58l-41.1 82.08c3.46,17.6 -3.52,34.55 -3.69,53.92 -0.19,20.33 5.62,44.8 3.6,58.12 7.7,10.46 15.05,38.82 15.68,53.89 8.86,8.47 4.65,5.25 9.77,16.47l32.09 49.12c25.2,26.48 44.84,8.41 67.09,-10.14 117.16,-97.72 85.12,-194.17 88.4,-336.85 0.7,-30.49 3.61,-75.18 8.66,-101.97l14.05 -96.36c-21.91,1.56 -16.99,6.39 -33.64,14.1zm-317.31 1610.22c4.83,-30.57 12.93,-34.26 41.05,-47.34 55.37,-25.72 167.6,-36.25 230.93,-41.34 55.37,-4.43 110.14,-10 169.67,-10.16 29.26,-0.08 59.01,1.29 88.28,2.22 17.34,0.55 22.73,3 37.53,4.51 21.11,2.16 25.02,3.79 37.31,10.72 0.31,14.43 2.41,27.11 -4.98,37.88 -12.32,16.65 -35.44,25.46 -58.72,31.05 -33.68,8.07 -47.2,-11.24 -72.4,-18.29 -73.48,-20.53 -261.37,7.36 -343.97,19.22 -22.27,3.19 -62.93,8 -77.79,17.43 -8.15,5.18 -47.51,52.14 -46.92,-5.9zm204.25 -263.84c3.2,-10.93 -4.99,-2.78 9.14,-10.87 24.25,-13.92 98.1,-32.83 125.35,-17.96 -3.8,36.22 -96.72,28.57 -134.49,28.83zm-54.93 -76.96c-15.36,39.07 -37.4,37.31 -81.15,56.25 -34.24,14.8 -65.47,27.33 -98.32,43.63 -48.83,24.22 -114,55.89 -158.27,85.97 -8.26,5.61 -9.63,8.38 -17.62,9.08 -3.34,0.3 -8.55,2.63 -9.48,-6.7 -2.42,-24.01 -2.45,17.8 -0.56,-5.58 0.85,-10.53 16.59,-25.24 14.85,-34.24 -7.37,-12.52 -30.3,-29.72 -42.33,-43.22 -97.81,-109.62 -87.95,-265.06 2.59,-385.42 11.91,-15.85 30.98,-35.37 39.2,-47.66 18.78,-39.07 32.71,-25.69 71.13,-16.93 29.46,6.7 54.26,13.8 84.04,21.64 108.95,28.71 59.71,11.71 98.33,58.23 14.99,18.04 68.13,34.57 104.31,50.84 60.99,27.44 47.01,93.83 28.19,144.66 -15.16,40.88 -11.59,63.15 -34.91,69.45zm-341.41 -556.49c8.56,-5.01 3.52,-12.13 26.91,-41.05 6.89,-8.52 6.37,-14.94 16.44,-32.09 16.4,-27.99 45.47,-55.52 55.26,-70.13 14.68,-21.93 -2.64,-1.75 20.5,-21.87l61.87 -61.98c13.75,-8.23 5.4,-5.79 15.88,-20.31l46.99 -33.47c5.02,-3.21 3.11,-6.46 3.58,-0.41 10.14,1.3 6.77,-4.24 6.77,10.19 -1.01,9.97 4.02,-1.42 -10.68,9.29l-17.3 13.61c-9.3,8.15 -1.15,4.31 -13.06,14.4 -14.9,12.6 -31.79,22.45 -55.26,46.03 -21.02,21.13 -45.77,42.4 -63.1,65.88 -6.84,9.27 -15.31,14.62 -25.66,25.17l-10.64 17.08c-16.04,26.54 15.25,-14.73 -5.55,6.95l1.3 32.49c26.34,1.05 32.97,-9.96 68.45,-25.61l59.71 -16.55c2.41,-0.53 1.24,-1.59 3.84,-0.62 -4.6,11.79 -10.37,8.82 -26.93,5.87 -0.3,0.75 -0.53,1.86 -0.74,2.3 -10.3,19.27 -7.62,5.03 -26.4,20.63 48.87,0 15.69,-8.67 47.45,-3.39 8.51,18.84 7.93,16.44 2.23,35.21 -0.31,1.03 -2.01,3.35 -2.23,8.81 -3.39,-7.1 -2.59,-24.59 -12.69,-31.32 -18.88,-12.56 -105.01,30.97 -125.64,41.64 -3.24,1.68 -22.79,9.36 -23.29,9.51 -17.45,4.92 -17.67,4.83 -17.99,-6.24zm-17.28 38.29c0.55,-0.68 1.53,-2.52 1.85,-1.9 0.31,0.62 1.45,-1.46 1.9,-1.82l15.47 -8.54c34.89,-15.44 138.97,-63.14 164.09,-63.81 -3.56,27.63 -19.31,46.84 -21.02,75.83 26.18,-4.43 44.56,-12.49 68.26,-17.77 95.71,-21.3 70.42,8.03 99.78,-67.5 2.43,-7.04 5.38,-15.8 8.32,-21.06 13.47,-24.09 16.11,6.5 -7.45,-55.67 -14.36,-37.88 -38.03,-100.51 -43.55,-138.63l-11.59 -36.21c-44.7,7 -140.56,110.08 -171.35,145.59 -25.8,29.74 -42.88,54 -65.03,90.98 -11.83,19.75 -49.6,82.41 -53.98,103.56 12.67,-5.4 2.08,-3.19 14.31,-3.05z"/>
   <path class="fil5" d="M1329.29 1144.31c25.22,103.5 52.72,170.46 83.68,264.77 9.04,27.55 16.91,62.98 47.46,63.55 31.87,-9.48 43.13,-165.88 40.31,-182.05 -6.51,5.35 -32.24,31.39 -34.43,38.48 -7.13,23.02 9.44,47.98 -22.83,49.02 -45.71,-36.95 36.14,-117.92 56.93,-139.6 19.67,-20.49 34.63,-35.45 46.27,-65.93 8.73,-22.83 17.4,-61.66 15.01,-88.88 -6.43,-72.84 -11.97,-132.2 -12.31,-210.59 -0.15,-36.07 0.36,-74.3 2.11,-108.76 0.85,-16.58 7.24,-90.98 -2.15,-99.74l-14.05 96.36c-5.05,26.8 -7.96,71.48 -8.66,101.97 -3.28,142.68 28.75,239.13 -88.4,336.85 -22.25,18.55 -41.9,36.62 -67.09,10.14l-32.09 -49.12c-5.12,-11.22 -0.9,-8 -9.77,-16.47z"/>
   <path class="fil6" d="M2192.55 1469.53l6.66 -2.15 63.17 -75.53c8,4.84 1.45,0.16 8.18,6.4 7.07,6.55 16.41,18.29 23.7,26.97 31.19,37.25 62.1,76.07 88.12,115.42 75.59,114.34 158.33,263.91 74.52,390.33 -28.14,42.44 -55.74,73.41 -94.68,108.06 -17.62,15.68 -18.96,22.56 -51.13,19.79 17.11,5.69 14.69,9.26 33.85,2.53l-13.77 9.34c-7.35,2.95 -5.13,2.07 -13.39,2.07 3.75,-3.83 0.12,-1.59 8.49,-1.14l89.84 -0.27c-8.84,-9.44 0.44,-4.39 -12.72,-8.1 -11.57,-3.24 -6.18,0.83 -7.61,2.74 12.64,-3.15 3.61,1.14 10.2,-7.81 3.58,-4.84 1.35,0.53 3.36,-9.14l16.52 5.17c18.32,7.04 33.12,-3.84 42.02,-11.01l35.33 -38.82 10.34 -17.17 9.26 -27.63c19.25,-45.3 15.63,-153.57 0.57,-204.94 -2.12,-7.22 -8.4,-25.84 -10.35,-31.04 -3.12,-8.26 -3.24,-6.31 -6.54,-17.55 -1.34,-4.55 -2.12,-8.75 -4.47,-15.06l-21.31 -56.34c-8.9,-15.94 -12.39,-7.13 -13.75,-32.92l10.97 10.14c-4.86,-16.72 -23.38,-46.14 -33.27,-62.28l-91.99 -126.12c-4.47,-2.19 -1.08,-0.04 -5.62,-3.61 -10.86,-8.55 -46.92,-54.39 -63.11,-61.48l-91.41 111.15z"/>
   <path class="fil7" d="M1714.04 2421.84l-0.77 -1.71c4.01,15.36 -9.81,13.57 -22.68,21.99 -14.25,9.33 -6.83,10.96 -20.11,16.26l-33.01 14.95c-9.89,2.17 -34.18,7.32 -18.85,22.16 10.51,10.16 2.41,2.42 5.2,0.93 -18.26,0.05 -20.31,-6.63 -46.45,-2.56 -9.59,1.49 -51.38,7.59 -65.79,11.5 -29.71,7.84 -55.63,4.39 -85.04,4.87l0 -6.17c-17.86,0.23 -33.09,-5.03 -47.94,-3.01 -16.74,2.27 -7.19,7.35 -18.3,4.68 -0.38,-0.1 -1.4,-0.42 -1.76,-0.6 -10.67,-5.13 -3.78,4.01 -5.7,-6.44 -0.19,-1.08 -0.88,-1.42 -1.03,-2.23 -9.86,8.36 -6.89,6.36 -9.99,18.47 -5.72,-5.44 -2.6,-1.18 -1.74,-5.29 0.15,-0.75 3.28,-8.21 3.75,-11.61 -16.36,2.76 -16.58,4.17 -33.7,-1.61l18.12 -10.15c-2.97,-1.15 -11.38,-4.55 -12.63,-4.99 -8.9,-3.06 9.57,-2.69 -17.55,-4.13 -10.49,11.71 -2.08,6.33 -20.65,5.73 5.91,-2.52 1.82,3.43 3.87,-3.24l-0.47 -10.3c-7.95,1.41 -8.17,-0.33 -14.91,5.39 -7.85,6.65 -3.45,18.36 -0.81,26.36 17.3,5.4 11.56,2.34 25.33,-1.82 -1.82,10.63 -8.78,9.25 -0.96,16.77 1.3,1.24 3.3,0.88 6.5,0.64 15.07,-1.76 5.43,-1.76 11.44,3.61 30.75,27.53 38.45,17.39 53.66,28.92 3.57,2.71 6.33,7.14 9.23,10.74l24.44 -5.38c0.21,-0.34 0.77,-1.41 0.97,-1.74 3.31,-5.13 -5.54,-1.4 3.71,-3.16 13.62,11.18 32.9,6.39 54.33,7.43 17.6,0.88 5.18,-0.16 10.05,3.01 8.7,5.66 11.53,8.71 36.69,5.06l102.62 -16.39 57.7 -25.98 73.44 -51.08c14.72,-11.94 25.09,-24.69 40.42,-34.76 3.32,-2.19 4.8,-3.13 7.87,-5.36l138.43 -131.93c5.01,-5.99 6.55,-7.45 13.1,-14.14 15.76,-16.09 23.1,-33.53 38.53,-49.64 3,-3.13 8.06,-7.5 8.26,-17.39 -7.51,-2.02 -0.71,-1.29 -8.86,3.93l-12.41 7.29c-2.01,1.08 -4.61,2.16 -6.25,4.19l-21.72 28.44c-4.23,7.3 -0.36,3.04 -6.8,7.3 -14.16,9.36 -6.44,-3.68 -18.33,12.57 -7.59,10.56 -4.81,9.48 -15.21,14.01 -30.13,13.15 -15.33,9.89 -33.42,28.12l-34.22 26.85c-7.78,6.17 -15.84,8.25 -21.72,11.83l-56.89 41.51c-11.56,11.78 -12.32,12.15 -31,17.29z"/>
   <path class="fil8" d="M1372.84 162.45c45.11,-10.76 74.19,-6.35 110.74,10.16 75.11,33.91 136.68,74.12 174.15,147.62 6.78,13.31 11.37,30.67 17.32,42.92 15.47,1.86 30.3,-7.45 46.33,-11.38 13.02,21.19 30.41,79.6 27.79,111.25 -9.66,2.78 -40.73,17 -50.28,21.52l-1.67 25.5c-4.54,-13.12 -8.7,-49.76 -12.8,-66.86 -13.19,-55 -42.59,-119.47 -80.59,-157.43 -62.93,-62.87 -133.05,-80.63 -201.02,-111.1l-23.43 -3.38c9.45,14.44 16.39,13.87 35.71,25.17 13.47,7.87 19.98,13.36 33.2,20.85 43.25,24.51 168.27,113.12 174.47,154.65 -11.05,5.58 -21.2,8.74 -37.63,9.86 -120.69,-146.03 -313.43,-149.12 -490.72,-142.95 -87.73,3.05 -85.85,22.42 -160.63,-12.87 -20.86,-9.83 -17.43,0.47 -18.81,3.2 8.48,0.53 48.93,23.46 75.08,26.96 15.22,2.04 76.3,-5.7 97.16,-7.54 104.6,-9.16 278.44,-0.36 369.65,45.74 38.53,19.48 98.76,51.51 118.44,94.11 26.6,10.97 24.92,-4.51 65.34,-8.17 10.08,28.86 37.19,75 41.19,110.58 -7.19,2.05 -53.48,18.49 -57.7,21.28 2.27,19.75 -8.66,7.76 11.3,11.87 6.17,-13.24 26.52,-18.78 41.9,-18.73 14.81,16.81 4.02,15.99 16.93,26.76 15.81,-11.67 2.17,-33.16 23.31,-45.52 4.55,-2.67 19,-8.15 23.72,-7.44 10.46,1.57 6.26,12.05 13.98,22.31 1.35,-2.79 4.5,-8.28 4.73,-11.3l-0.62 -50.77c-5.96,-122.27 -66.9,-192.55 -161.12,-249.76 -8.21,-4.99 -32.55,-20.05 -36.19,-23.95 -24.76,-1.59 -6.51,-3.23 -13.51,9.34l7.18 5.31c7.96,3.61 14.83,9.18 22.34,15.7 17.18,14.9 132.79,123.58 130.01,145.06 -5.1,9.38 0.81,2.68 -10.42,6.74l-13.34 4.43c-9.26,-11.71 -16.8,-29.31 -18.78,-41.94 -4.34,-3.02 -2.63,-1.15 -6.42,-5.4l-13.84 -23.12c-7.51,-12.71 -36.34,-41.53 -47.85,-50.84 -9.66,-7.82 -20.61,-13.84 -28.53,-23.98l-80.88 -42.77c-48.04,-21.35 -55.62,-15.22 -113.53,-13.19 -3.54,7.11 -1.52,0.3 -1.67,11.49z"/>
   <path class="fil5" d="M789.4 2058.31l-0.38 -122.11 -1.48 0 -3.2 43.66c-17.23,11.22 -45.93,8.71 -59.52,21.74l-14.72 -2.01c-7.18,6.13 -7.06,4.94 -19.08,6.43 -47.19,5.8 -131.93,18.06 -151.09,-27.73 -14.85,-14.92 -29.96,-48.5 -36.59,-73.29 -7.66,-28.63 -9.33,-69.51 -4.92,-102.96 7.71,-58.65 40.12,-113.53 48.53,-170.19 -5.09,4.9 -9.45,12.52 -12.91,19.1 -22.53,47.98 -45.89,96.05 -52.79,147.96 -17.91,134.99 -8.86,155.06 62.98,264.69 6.74,10.29 17.51,24.4 24.94,32.88 35.1,40.01 157.38,-19.2 220.24,-38.18z"/>
   <path class="fil5" d="M1358.7 638.74c-5.33,17.47 -28.41,3.67 -65.59,53.54 -14.17,19.01 -21.24,39.6 -28.97,62.18l-10.44 18.06c-19.22,-8.75 -48.76,-54.18 -62.39,-74.25 -34.09,-50.21 -64.81,-128.85 -83.51,-187.72l-34.37 -99.33c-0.27,-1.44 -1.19,-1.61 -1.83,-2.39 0.81,36.26 15.89,105.93 26,139.29 23.09,76.2 56.27,158.86 101.23,223.81 12.17,17.58 58.74,84.86 72.76,85.82 7.07,-56.3 14.77,-93.46 70.87,-126.21 17.56,-10.25 39.31,-9.64 50.87,-17.71 -2.86,-31.76 -11.24,-59.6 -34.63,-75.07z"/>
   <path class="fil2" d="M538.74 804.05c16.82,12.35 25.2,39.12 45.96,50.13 33.77,17.89 215.26,34.17 258.14,38.42 62.41,6.18 101.43,31.88 160.07,34.14 32.36,1.24 66.11,1.97 98.46,0.92 23.13,-0.77 71.44,-6.36 93.42,-2.24l-67.9 78.38c-19.37,19.18 -107.57,14.77 -138.08,8.1 -49.26,-10.79 -71.26,-24.46 -124.95,-28.55 -99.88,-7.61 -324.59,-29.22 -408.69,-43.59 -31.39,-5.38 -99.61,-16.96 -111.25,-40.79 -18.7,-38.29 11.61,-97.04 7.81,-133.91 -15.61,21.01 -21.52,60.45 -22.8,94.56 -1.86,49.54 7.06,57.48 47.22,71.17 69.6,23.75 185.63,30.15 199.68,38.46 32.87,-5.16 321.55,26.58 360.66,38.16 28.11,8.32 48.37,17.04 80.03,18.51 133.04,6.11 99.31,1.98 173.42,-77.76 11.34,-12.2 20.33,-15.98 19.98,-31.32 -18.82,-10.09 -66.29,-0.79 -91.77,-0.21 -221.21,5.13 -137.54,-17.73 -278.26,-35.3 -64.03,-8 -126.28,-12.24 -189.39,-22.9 -35.67,-6.03 -56.89,-2.93 -76.48,-27.48 -11.61,-14.57 -36.18,-53.22 -52.33,-59.24l-13.56 13.57c-9.49,11.86 -27.1,30.67 -31.58,42.23l-68.53 -72.51c-1.16,-6.47 2.56,-10.97 -1.56,-3.91 6.13,10.25 1.35,5.32 16.21,6.77 13.83,-0.27 33.91,16.93 57.45,18.62l41.57 -57.01c10.46,5.16 5.14,1.41 13.38,11.61l57.07 61.54c6.98,7.22 13.64,15.54 22.21,24.85 15.77,17.13 43.8,9.78 82.13,12.94 60.25,4.99 116.87,2.8 181.14,12.65 26.34,4.04 52.24,13.75 78.86,19.15 41.88,8.49 144.14,-0.18 188.22,-3.8 0.38,-17.1 -5.38,-6.65 -10.49,-23.99 -24.89,-13.57 -103,-143.13 -105.86,-145.96 -6.59,-6.52 -21.48,-11.45 -31.05,-17 -34.5,-20.01 -31.45,-24.57 -51.28,-44.48l-2.82 -7.52c-11.02,0 -7.69,-2.46 -7.65,9.63 13.57,19.92 35.22,38.82 54.66,50.23 34.58,20.27 24.43,6.31 51.64,49.54 11.02,17.55 28.03,42.33 40.88,60.62 15.59,22.17 40.98,46.81 41.86,58.94 -39.64,5.92 -107.47,7.25 -148.92,4.95 -41.54,-2.31 -80.57,-20.56 -128.52,-24.33l-214.96 -12.91c-9.08,-3.3 -32.1,-27.71 -36.26,-37.25 -2.33,-9.97 -3.71,-8.89 -11.75,-18.12 -13.54,-15.55 6.1,4.79 -4.58,-4.57l-9.59 -8.47c9.34,-7.93 -10.29,-3.54 12.71,-6.76l0 3.35c-16.65,-2.9 -16.21,-3.49 -16.15,-10.46 -0.4,8.9 1,0.38 -5.06,4.28 -2.61,-8.7 -1.04,-10.27 -3.34,-15.85l-5.96 3.41 -2.5 -5.24c-7.51,-13.38 -27.75,-17.51 -39.56,-11.93l-20.9 19.14c-0.08,0.25 -0.42,1.18 -0.53,1.41 -0.22,0.51 -1.71,2.22 -2.23,3.21 5.07,14.96 -6.47,0.4 -8.85,22.21 -21.48,-1.55 -19.16,-2.15 -28.74,-7.76 -9.27,-5.43 -38.71,-15.53 -54.8,-7.88 -3.17,10.85 -4.45,8.8 0.07,20.39 4.61,11.87 24.92,27.1 29.27,42.68l9.48 4.79c23.51,15.42 22.71,36.88 47.81,30.41 15.13,-3.88 4.69,-0.37 11.38,-7.18 3.32,-3.38 3.26,-4.27 4.49,-5.76l25.11 -25.61 17.06 5.5z"/>
   <path class="fil2" d="M2400.83 717.68c4.32,-9.34 4.76,-7.61 8.84,-17.04l-10.2 6.1c-16.43,9.78 -37.63,45.08 -56.15,55.71 -7.13,-14.29 -37.05,-51.49 -49.19,-56.85 -10.67,8.22 -35.07,49.23 -42.49,61.06 -24.13,38.53 -11.78,30.9 -61.84,39.19 -47.48,7.85 -210.73,34.1 -253.45,54.45 -26.92,12.82 -36.48,21.06 -73.63,27.74 -70.54,12.68 -126.46,8.49 -197.01,10.76 -0.55,12.34 1.03,26.41 3.11,36.8 3.15,15.74 4.99,15.03 14.55,22.99 54.82,45.67 14.4,51.01 183.73,31.8 0.51,-0.59 60.76,-23.4 69.88,-26.74 28.74,-10.53 53.18,-15.55 84.75,-20.91 27.27,-4.64 160.52,-31.6 176.94,-28.19 9.56,-6.68 14.58,-6.22 26.45,-8.21 71.05,-11.89 195.07,-37.31 259.37,-66.22 41.49,-18.64 44.74,-40 31.1,-99.89 -4.04,-17.69 -15.4,-44.11 -16.62,-57.57 -11.2,-3.2 -4.32,-2.15 -8.84,0.64 1.3,28.44 36,99.98 15.33,130.16 -29.81,43.54 -313.89,88.43 -369.46,98.35 -43.43,7.74 -86.01,14.81 -132.3,23.6 -116.72,22.13 -100.41,55.22 -255.43,53.47 -26.4,-0.3 -33.88,-16.88 -46.89,-27.99 -10.52,-8.97 -32.21,-25 -21.01,-50.98 68.83,-7.26 82.44,6.7 189.75,-13.34 52.54,-9.82 51.86,-28.16 149.74,-49.08 55.63,-11.89 112.18,-21.45 170.53,-30.75 44.15,-7.03 44.8,-5.79 65.08,-36.7 12.02,-18.34 26.06,-41.5 38.63,-57.23 18.49,4.83 32.09,49.19 56.46,44.09 10.82,-2.27 40.24,-37.44 50.24,-49.23z"/>
   <path class="fil9" d="M2112 1220.49c-1.15,12.69 6.93,34.76 10.89,47.79 5.03,16.63 6.65,33.83 25.32,34.88 11.45,-28.37 39.11,-256.33 32.81,-288.33 -5.92,-1.79 -49.41,16.48 -55.07,19.14 -54,25.32 -42.85,23.98 -26.56,111.85l8.84 51.14c1.22,7.69 2.86,14.81 3.78,23.53z"/>
   <path class="fil10" d="M1577.77 1946.3l9.37 2.64c-13.27,-40.34 -43.01,-108.2 -34.17,-152.31 13.06,-65.25 93.74,-59.62 129.84,-101.52 25.05,-29.08 1.49,-28.42 81.87,-60.25 22.6,-8.95 118.4,-49.22 141.87,-49.78l-5.91 -6.46c-24.06,-25.05 -32.53,-13.28 -71.46,-1.29 -22.27,6.85 -137.09,44.26 -148.04,55.27 -3.32,3.35 -16.37,27.53 -19.96,34.1 -8.26,15.17 -9.71,16.18 -27.06,23.49 -27.1,11.38 -46.89,21.93 -70.14,35.28 -27.99,16.09 -39.52,24.72 -41.02,65.93 -1.57,43.24 7.58,54.82 21.93,84.7 6.13,12.76 9.71,26.29 15.18,39.16 10.81,25.48 15.62,23.91 17.7,31.04z"/>
   <path class="fil9" d="M678.82 1076.74c-4.02,22.46 32.84,210.21 47.18,256.17 5.02,16.09 6.83,13.35 9.19,15.35 23.14,-7.59 30.89,-90.59 29.53,-97.39 -1.27,-10.7 3.26,-56.93 5.33,-71.1 1.98,-13.54 6.78,-57.64 4.58,-69.54 -6.33,-34.16 -79.73,-33.58 -93.31,-45.58l-2.5 12.09z"/>
   <path class="fil11" d="M1919.53 1759.09c8.36,0.38 4.42,-4.68 10.6,19.86 17.74,70.43 1.74,106.5 -17.62,174.91 24.95,-16.99 44.41,-60.19 54.59,-93.04 6.18,-19.97 12.64,-40.24 14.25,-62.37 1.82,-25.11 -6.18,-50.56 -4.54,-67.9l-7.93 -13.06c-26.43,-60.16 -23.06,-39.18 -49.72,-83.29 -30.33,-2.23 -117.7,21.3 -152.94,26.4 5.68,7.29 34.48,26.36 45.78,25.07 19.53,-2.22 23.81,-13.76 54.48,-5.12 31.69,8.95 55.21,39.52 53.05,78.54z"/>
   <path class="fil11" d="M1025.37 1991.68c-7.35,-17.4 -20.87,-24.48 -35.91,-91.15 -4.87,-21.58 -12.21,-97.31 6.92,-106.71 -2.67,-14.29 -1.52,-31.53 4.75,-44.76 6.88,-14.53 12.09,-20.34 24.8,-29.23 39.59,-27.69 50.42,-5.43 83.99,-9.7 8.22,-10.93 22.05,-10.94 29.76,-23.69l-149.3 -18.85c-33.77,43.09 -64.43,104.27 -51.94,174.47 8.41,47.3 52.01,135.53 86.93,149.62z"/>
   <path class="fil12" d="M1836.5 560.39c63.88,-11.45 -12.05,90.1 -67.49,95.19 -78.3,7.18 -155.43,-50.06 -56.98,-69.38 43.42,-8.52 81.92,-18.19 124.47,-25.81zm-47.57 -4.13c-12.46,9.18 -49.8,14.27 -68.09,17.92 -58.35,11.65 -32.23,10.4 -60.45,22.42l-5.79 -5.64c-28.74,-29.82 -22.58,-12.71 -19.16,-66.96 -19.96,-4.12 -9.03,7.88 -11.3,-11.87 -1.2,14.75 -1.53,47.86 -2,66.11 19.96,14.14 30.41,9.68 29.57,42.75 -0.6,23.6 -1.4,48.2 -1.49,72.48 -0.1,28.29 0.22,122.45 8,144.36 44.24,9.42 147.71,3.42 195.34,-0.04 75.27,-5.5 56.1,-28.97 162.2,-45.36l183.25 -24.12c11.85,-3.57 7.4,-2.31 13.88,-10.52 18.82,-23.88 78.46,-87.88 82.66,-106.1 -27.38,7.03 -71.24,87.24 -98.33,103.44 -18.23,10.92 -194.18,19.93 -254.78,43.72 -28.15,11.05 -41.42,22.64 -75.34,26.45 -31.68,3.58 -176.53,11.5 -197.24,1.16 -10.76,-20.44 -13.13,-163.28 -5.84,-189.78 20.83,10.86 23.65,20.64 57.53,26.78 96.17,17.45 149.71,-57.87 148.36,-102.25 -37.79,-28.49 -40.86,-2.05 -80.99,-4.97z"/>
   <path class="fil13" d="M1490.71 618.94c23.21,-45.97 26.8,-126.27 4.98,-174.4 -11.07,-24.36 -29.05,-43.43 -47.93,-56.98 -12.84,-9.22 -55.3,-29.81 -72.97,-31.23 -17.8,2.63 -7.96,-2.64 -27.99,-3.79 -1.03,15.59 -0.36,22.68 2.12,35.84 8.21,-5.92 12.43,-7.82 14.62,-14.8 2.5,-7.93 3.79,-8.18 -5.18,-15.32 0.83,1.15 3.95,5.95 5.31,7.84l25.81 25.76c-6.2,14.87 -5.9,-4.21 -6.54,22.98 12.57,5.99 15.44,8.6 23.27,18.23l10.76 12.11c72.74,79.49 37.26,163.84 73.74,173.77z"/>
   <path class="fil9" d="M1801.18 1699.6c-7.82,8.62 -5.28,1.83 -5.25,9.81 -12.89,9.97 -17.14,18.99 -17.88,37.94 -1.79,46.11 35.76,78.58 78.79,72 107.1,-22.67 47.04,-188.12 -55.66,-119.75z"/>
   <path class="fil5" d="M1198.4 2288.9c25.06,-13.23 17.69,-14.47 55.69,-29.45 60.19,-23.72 162.76,-29.07 222.88,-35.28 52.14,-5.38 106.21,-9.82 163.09,-10.09 38.08,-0.19 131.42,3.28 158.7,14.25l-0.55 17.06c7.39,-10.76 5.29,-23.44 4.98,-37.88 -12.3,-6.93 -16.21,-8.56 -37.31,-10.72 -14.8,-1.52 -20.19,-3.97 -37.53,-4.51 -29.27,-0.93 -59.02,-2.3 -88.28,-2.22 -59.53,0.16 -114.3,5.73 -169.67,10.16 -63.33,5.09 -175.56,15.62 -230.93,41.34 -28.12,13.08 -36.22,16.77 -41.05,47.34z"/>
   <path class="fil14" d="M1071.16 1868.4c2.12,48.08 51.86,106.28 88.62,125.88 18.27,9.74 24.51,2.91 42.94,-3.15 35.33,-11.61 102.56,-25.65 110.34,-48.78 -21.34,0.38 -39.37,6.35 -66.2,5.79 -63.81,-1.35 -116.13,-45.22 -110.25,-102l-11.68 -8.9c-22.46,7.8 -20.35,17.18 -52.58,19.61l-1.19 11.54z"/>
   <path class="fil6" d="M388.45 1798.29c-15.89,67.63 -23.76,142.58 -5.8,213.45 7.73,30.49 17.7,61.57 35.32,79.94 18.01,18.78 40.38,40.46 69.8,49.45 -4.79,-15.89 -7.61,-3.98 4.32,-11.16 5.57,-3.35 9.74,-0.98 13.71,-2.95 -20.9,-14.31 -10.57,-11.68 -29.98,-29.49 -3.13,-2.89 -0.29,1.33 -5.09,-5.02 -7.56,-9.99 0.78,1.53 -3.58,-6.44l-24.4 -42.87c-12.41,-25.37 -21.35,-52.44 -25.85,-80.47l-4.91 -38.59c-0.19,-2.42 -2.41,-7.97 -3.52,-13.9 -3.36,-17.85 7.3,-70.54 8.14,-91.62 -7.63,-5.81 -9.64,-6.62 -21.31,-3.38 -6.74,-20.08 7.29,-9.52 -6.84,-16.95z"/>
   <path class="fil14" d="M1768.84 1883.29c0.25,21.95 -36.41,36.32 -57.45,44.35 -58.67,22.36 -94.33,-12.12 -91.69,16.35 32.61,10.12 59.69,15.17 94.41,24.02 39.19,10 45.07,17.89 72.1,-6.62 30.33,-27.51 66.56,-72.5 64.69,-132.43 -29.75,-1.68 -46.94,-10.27 -64.26,-27.49 0.51,12.17 1.35,29.79 -0.57,44.84 -0.96,7.51 -1.48,16.22 -4.34,22.45l-12.89 14.55z"/>
   <path class="fil11" d="M2068.69 2166.75c31.78,5.53 42.79,8.82 71.94,-6.72 21.94,-11.7 37.44,-32.79 16.26,-54.59 -15.5,-7.35 -19.08,-0.37 -35.18,4.98 -14.99,4.99 -27.04,6.66 -36.04,-4.45 -20.85,-1.68 -26.1,-46.62 -12.67,-64.74 8.71,-11.76 16.33,-12.68 21.79,-28.92 5.32,-15.81 -2.34,-26.22 -10.78,-34.7 -42.1,-3.71 -64.36,50.68 -65.78,88.29 -2.2,58.53 23.95,76.24 50.46,100.84z"/>
   <path class="fil13" d="M710.1 1999.59l14.72 2.01c-11.68,-1.93 -4.43,1.56 -10.74,-6.72 57.52,-12.84 19.44,-8.71 67.45,-26.59 0.14,-0.63 1.14,-0.27 2.15,-0.56l-0.67 -38.7c-87.71,7 -102.56,-9.77 -187.41,17.96 -20.56,6.73 -40.53,25.51 -40.61,25.37 -0.4,-0.67 -1.46,1.41 -2.17,2.15 0.56,20.59 2.65,22.17 22.76,26.7 43.85,9.88 114.39,-5.17 134.53,-1.63z"/>
   <path class="fil9" d="M2058.81 1336.63c21.09,0.05 2,-92.4 -0.75,-106.51 -7.06,-36.18 -12.72,-70.99 -19.33,-107.66 0.52,-12.61 -7.87,-34.36 -19.12,-40.8 -8.95,2.86 -8.48,0.41 -13.79,11.28 -2.82,5.77 -3.84,13.05 -5.31,18.55 -37.74,141.83 -45.37,89.02 16.43,167.64 7.61,9.67 38.29,54.92 41.87,57.5z"/>
   <path class="fil9" d="M826.67 1164.01c-1.12,35 -4.46,73.48 -9.78,105.78 -6.21,37.64 -7.63,69.84 0.78,105.6 9.4,-11.18 -0.04,-0.1 9.6,-6.07 0.1,-0.08 73.56,-111.66 73.95,-114.04 1.91,-11.7 -18.07,-56.12 -23.25,-70.33 -2.72,-7.47 -28.66,-108.1 -47.42,-47.78 -2.07,6.65 -5.83,18.92 -3.87,26.85z"/>
   <path class="fil15" d="M1807.19 1970.03l-18.42 15.44 10.72 7.33c31.91,-3.95 30.95,15.96 68.67,-3.99 13.34,-7.06 37.16,-24.33 44.36,-34.95 19.36,-68.41 35.36,-104.48 17.62,-174.91 -6.18,-24.54 -2.24,-19.48 -10.6,-19.86 -3.54,13.68 -3.16,19.27 -10.38,30.53 -3.94,6.14 -15.51,17.44 -17.49,23.12 -2.94,8.38 -1.52,26.15 -3.71,37.86 -8.34,44.59 -46.33,101.04 -80.76,119.43z"/>
   <path class="fil15" d="M1025.37 1991.68c7.67,12.52 31.49,24.31 51.09,31.78 32.75,12.49 40.09,-11.18 67.23,-8.34l0.48 -9.03c-24.18,-7.85 -49.82,-30.6 -66.68,-48.68 -10.01,-10.74 -44.02,-56.07 -37.3,-73.38 -7.85,-7.82 -1.23,1 -5.49,-8.32 -4.04,-8.85 -2.04,-10.4 -3.78,-20.59 -4.42,-25.98 -32.1,-25.33 -34.54,-61.29 -19.14,9.4 -11.79,85.12 -6.92,106.71 15.03,66.67 28.56,73.75 35.91,91.15z"/>
   <path class="fil16" d="M572.7 310.62c-5.46,9.68 -19.64,17.74 -28.68,25.66 -15.5,13.53 -16.95,21.05 -28.19,30.94 -9.08,23.96 -18.53,39.09 -6.88,70.28 10.35,-3.75 3.2,-14.87 27.48,-19.98 16.93,-3.57 31.34,-3.75 47.37,-7.91 -2.54,-19.77 -9.1,-10.2 -20.65,-24.54 6.43,-17.92 45.97,-39.56 63.88,-47.11 61.13,-25.74 80.84,-0.21 98.7,-9.21l0.22 -22.95c-13.68,-4.69 -30.54,-13.47 -48.53,-16.33 -20.11,-3.19 -42.84,2.39 -60.9,0.72 -8.75,7.91 -11.19,6.09 -22.53,11.18 -8.51,3.83 -11.56,7.44 -21.28,9.25z"/>
   <path class="fil17" d="M1570.73 159.61c45.22,-5.01 84.83,35.93 113.07,63.15 25.41,24.5 59.35,60.1 70.09,109.52 18.73,-0.45 55.96,-25.77 65.29,-35.89 20.24,-21.95 10.12,-23.83 49.89,-51.7 94.56,-66.29 217.82,-65.4 326.61,-39.74 50.94,12.01 91.96,38.4 125.58,76.72 35.63,27.75 63.78,58.94 92.37,89.01 15.61,16.43 66.23,84.87 68.78,108.99 14.03,8.37 5.12,2.72 9.73,0.29 -8.37,-50.32 -86.53,-135.59 -122.78,-170.09 -28.62,-27.23 -48.34,-42.81 -78.05,-67.46 -34.98,-29.01 -45.77,-36.55 -101.1,-48.85 -115.45,-25.67 -255.84,-22.02 -346.89,59.34 -11.91,10.64 -44.92,60.35 -79.87,65.51 -16.89,-23.61 -11.94,-46.27 -78.19,-107.5 -51.77,-47.85 -70.23,-63.78 -132.48,-62 22.82,22.54 -13.91,-7.14 8.97,6.52 4.57,2.72 3.73,0.88 8.97,4.19z"/>
   <path class="fil16" d="M2078.28 255.29c-3.41,14.75 -4.91,22.69 3.21,32.86 7.37,-1.6 5.4,-4.02 16.74,-7.99 48.3,-16.95 130.67,25.54 143.51,50.69 -9.77,11.53 -18.58,10.7 -24.5,22.97 25.66,14.2 63.7,-2.71 75.72,25.78 5.87,-3.5 1.9,0.04 8.02,-4.2 2.8,-60.64 -31.06,-88.47 -74.63,-115.67l-16.52 -11.97c-11.6,0.22 -18.06,-4.31 -29.03,-6.59 -12.64,-2.65 -26.5,-2.91 -39.33,-2.11 -27.17,1.7 -50.91,16.15 -63.21,16.22z"/>
   <path class="fil18" d="M1675.28 1853.01c-28.29,-13.01 -31.01,-43.78 -15.03,-67.72 7.11,-10.66 2.05,5.06 6.28,-10.35 4.54,-7.92 15.2,-6.57 20.8,-13.92 -5.03,-9.79 7,-9.49 -16.14,-8.25 -3.39,0.19 -40.06,15.96 -44.65,17.74 -4.84,1.75 -6.44,3.08 -7.3,3.69 -4.77,3.35 -3,11.91 -35.92,13.62l1.22 51.65c4.14,15.48 6.8,11.01 9.99,29.04 1.55,8.7 2.9,23.24 8.85,26.29 41.71,21.37 13.56,22.67 39.18,20 1.96,-0.19 11.15,-3.78 18.1,-4.72 -10.74,-7.07 -10.75,-0.85 -12.57,-19.23l23.61 0.88 0 20.97 37.47 -11.28c0.51,-13.94 1.2,-23.19 9.96,-32.34 -18.06,4.32 -42.73,6.65 -43.83,-16.06z"/>
   <path class="fil9" d="M1568.88 2459.09c11.37,-0.14 16.47,4.39 24.25,3.53 11.42,-1.26 3.21,3.69 10.18,-6.36 3.42,-4.94 2.46,-3.16 5.06,-12.56l-28.6 2.46c-1.63,-1.64 -3.64,-7.06 -4.97,-9.83 -29.04,0.07 -47.64,-3.13 -71.31,-0.66 -53.66,5.62 -36.36,-5.66 -66.52,-5.9 -19.77,-0.15 -85.59,5.16 -90.03,26.45 -3.98,19.15 11.44,14.9 25.37,15.48 3.11,7.92 -4.5,6.2 11.65,12.34 15.94,6.07 110.96,7.24 125.64,0.55 0.7,-0.31 1.45,-0.96 2.09,-1.29l16.41 -4.54c45.69,-2.79 40.68,-6.35 40.76,-19.68z"/>
   <path class="fil19" d="M2250.08 1954.3c97.2,3.83 87.1,-10.87 105.28,-10.63 12.02,0.15 5.65,-1.57 13.3,3.72 -5.55,14.53 3.94,5.65 -11.49,13.54 -10.44,5.32 -29.07,1.5 -29.35,23.75 23.27,0.66 11.95,2.83 16.93,6.77l-20.12 20.67c-17.33,0.92 -31.88,6.32 -41.42,-2.74 -5.17,-4.9 -2.52,-1.34 -6.02,-11.16l-17.13 3c-6.18,0.34 -3.88,0.62 -9.79,-0.89 -12.73,-3.24 -7.21,-1.55 -11.23,-9.71 -7.95,-16.09 7.15,1.42 -2.3,-3.78 -6.95,-3.82 3.58,3.71 -17.18,-0.23 -4.28,-13.19 -13.16,-16.29 -13.54,-28.07 10.72,-5.24 24.8,-4.4 37.27,-4.02 2.22,4.01 1.22,11.79 1.37,15.95 0.04,0.49 2.69,7.69 4.99,10.94l13.97 -0.11c3.08,-14.79 -0.72,1.71 3.41,-10.18 -7.8,-3.34 -12.69,-6.1 -16.95,-16.82zm173.65 -121.81c-8.64,19.27 -17.23,47.4 -32.38,62.91 -4.62,16.41 -22.69,27.25 -39.56,34.44 -18.71,7.99 -44.5,8.11 -67.83,7.97 -51.01,-0.33 -87.58,-11.35 -132.27,-14.43l0.57 20.41c63.82,13.8 33.9,39.68 63.74,54.75 12,6.07 12.82,4.42 20.52,14.91 10.66,-10.04 -13.8,-8.43 13.53,-8.43 8.73,13.4 69.58,16.43 94.14,5.13 31.34,-14.42 51.05,-63.77 66.52,-101.06 6.55,-15.8 9.77,-32.25 14.9,-43.37 16.67,-36.15 20.48,-35.39 14.27,-84.41 1.57,9.14 0.12,42.83 -16.14,51.17z"/>
   <path class="fil20" d="M2081.49 288.15c3.79,15.42 18.44,32.97 29.63,43.52 27.01,3.35 30.12,-14.72 61.4,6.05 12.06,8 34.58,22.68 35.02,40.57 -13.86,9.29 -17.58,4.08 -28.3,10.18 17.48,21.63 115.64,20.85 121.75,-13.06 -6.11,4.24 -2.15,0.7 -8.02,4.2 -12.02,-28.49 -50.06,-11.59 -75.72,-25.78 5.92,-12.27 14.73,-11.44 24.5,-22.97 -12.84,-25.15 -95.22,-67.64 -143.51,-50.69 -11.34,3.97 -9.37,6.39 -16.74,7.99z"/>
   <path class="fil20" d="M508.95 437.51c5.83,10.12 9.15,10.38 23.14,12.58 73.66,11.6 62.63,-2.61 95.82,-5.1 -5.05,-18.64 4.31,-3.95 -16.22,-11.39 -8.6,-3.12 -10.12,-4.38 -15.46,-8.07 5.81,-18.03 22.94,-28.22 37.99,-39.79 28.2,-21.69 32.27,-4.73 54.14,0 5.32,-8.32 13.71,-18.44 20.3,-27.15 6.21,-8.19 12.6,-22.32 16.4,-31.1l0.67 1.29c-17.86,9 -37.57,-16.54 -98.7,9.21 -17.91,7.55 -57.45,29.19 -63.88,47.11 11.56,14.34 18.11,4.77 20.65,24.54 -16.03,4.16 -30.43,4.34 -47.37,7.91 -24.28,5.12 -17.13,16.24 -27.48,19.98z"/>
   <path class="fil21" d="M2145.25 1862.32l-1.45 21.6 5.44 0 2.87 -17.85c-0.15,0.68 -15.8,0.72 9.25,3.41 32.35,3.45 37.45,-11.78 55.66,-0.71 7.62,4.62 -1.72,3.39 9.89,5.79 3.04,0.62 15.91,0.38 19.85,0.44 37.07,0.6 14.59,4.51 30.42,10.41 23.23,-5.91 36.34,-5.58 55.22,3.28 -4.46,6.48 -0.68,5.53 -11.18,9.94l-10.18 1.31c27.56,0.98 2.69,-3.65 13.57,10.16 -21.94,0 -24.88,3.62 -40.57,4.02l-66.9 -0.94c-20.5,3 8.9,2.87 -17.99,5.16 -3.27,0.27 -19.14,-1.55 -22.23,-2.46 -6.99,-2.09 -9.23,-7.09 -11.59,-8.73 -13.97,6.14 -0.11,2.85 -14.9,2.22l1.24 14.02c44.69,3.08 81.26,14.1 132.27,14.43 23.34,0.14 49.12,0.01 67.83,-7.97 16.87,-7.19 34.93,-18.03 39.56,-34.44 -1.97,-14.76 1.96,-3.19 -7.7,-10.26l-36.54 -17.21c-7.93,-3.47 -46.68,-12.94 -59.99,-14.38 -17.96,-1.94 -55.82,-1.78 -74.12,-0.44 -10.61,0.79 -43.18,5.72 -54.36,3.3 -8.28,-1.81 -5.43,0.16 -8.85,-5.77l-4.54 11.68z"/>
   <path class="fil5" d="M1010.84 1619.16c19.41,12.65 161.8,40.76 192.52,63.62 13.95,10.4 14.73,26.15 45.26,42.88 32.91,18.03 52.81,11.44 89.35,39.3 61.05,46.52 22.68,93.68 13.4,161.95 13.34,-20.41 27.63,-79.98 34.54,-104.39 9.75,-34.43 -11.85,-74.88 -49.04,-83.1l-67.42 -27.85c-3.36,-1.26 -9.48,-4.17 -14.03,-6.02 -23.25,-9.42 -11.82,-1.93 -33.31,-34.98 -9.94,-15.29 -3.19,-13.24 -22.68,-20.89l-74.21 -17.23c-1.6,-0.23 -102.44,-33.35 -114.39,-13.3z"/>
   <path class="fil8" d="M1852.38 1111.4l-5.64 -15.76c18.1,-7.55 19.61,-8.11 44.09,-8.97 23.54,-0.82 28.31,-5.27 47.44,-7.09l25.32 -2.17 -4.98 38.63c11.74,-16.51 20.89,-70.09 8.08,-88.34 -18.42,-8.21 -64.45,4.21 -88.38,7.67 -29.55,4.28 -63.51,-0.7 -89.14,10.55 -0.18,12.69 1.7,10.16 12.53,21.34 10.29,10.63 39.02,38.66 50.68,44.14z"/>
   <path class="fil22" d="M1263.53 1805.08l3.12 30.61c-0.12,-0.48 -0.72,2.2 -1.2,3.24 0.47,-11.91 0.33,-12.53 -6.13,-20.3 0.53,22.54 -6.03,29.35 -12.3,42.43 17.77,3.11 -0.27,-1.37 -4.98,17.32 -20.42,-6.37 -35.32,0.62 -51.06,-10.3 -16.73,-11.6 -8.23,-20.01 -21.3,-36.11l0.88 27.29c7.66,14.38 4.88,23.16 18.97,40.27 40.64,49.34 121.89,39 134.88,20.22 10.53,-15.22 26.62,-70.35 26.63,-94.48 0.04,-40.99 -33.57,-46.71 -66.82,-56.27 8.13,16.32 6.11,13.2 23.13,20.6l14.2 4.58c12.37,2.3 3.11,-10.57 10.94,4.09 8.15,6.76 5.98,25.36 7.81,35.66 3.27,18.44 7.37,5.66 -7.29,16.8 -2.42,42.83 -0.92,25.5 -11.28,29.82 -11.97,4.98 -4.19,-8.85 -12.39,7.1 -4.64,8.97 5.53,12.16 -17.52,21.75 -10.25,4.25 13.32,-1.12 -7.41,2.08l-23.61 1.91c-13.21,-0.21 -14.46,-2.2 -19.38,-6.66l16.22 -14.68c7.47,-4.58 8.26,-5.85 13.46,-2.71 -7.36,-1.67 -0.83,-0.22 -8.67,1.29 -3.95,0.75 -2.07,1.41 -12.04,2.53l24.39 -29.59c4.91,-5.32 2.41,-3.12 4.49,-5.9 11.24,-14.99 20.64,-36.14 -2.48,-46.66l-13.25 -5.94z"/>
   <path class="fil23" d="M898.78 1118.38l2.01 -11.65c21.11,13.08 84,10.3 112.81,12.47 0.63,12.24 1.38,3.79 -1.79,16 6.77,-4.08 55.7,-55.32 60.51,-70.27 -45.89,-6.68 -92.19,3.11 -142.41,-6.58 -7.65,-1.48 -13.56,-2.82 -21.68,-2.15 -28.03,2.3 -24.5,28.75 -16.33,49.49l6.88 12.68z"/>
   <path class="fil5" d="M2423.73 1832.49c16.26,-8.34 17.71,-42.03 16.14,-51.17 6.21,49.02 2.41,48.26 -14.27,84.41 -5.13,11.12 -8.34,27.58 -14.9,43.37 -15.47,37.29 -35.18,86.64 -66.52,101.06 -24.55,11.3 -85.41,8.28 -94.14,-5.13 -27.33,0 -2.87,-1.61 -13.53,8.43 25.24,10.29 72.55,18.25 103.78,10.23 27.27,-7 45.43,-35.63 56.25,-58.71 70.84,-151.13 79.14,-172.02 0.56,-340.63 -14.87,-31.9 -66.3,-124.9 -86.95,-140.87l20.24 42.14c6.69,12.23 13.19,20.93 20.34,36.34 48.18,103.81 88.95,162.76 72.99,270.53z"/>
   <path class="fil24" d="M1006.3 1391.61c0.31,11.07 0.53,11.16 17.99,6.24 0.51,-0.15 20.05,-7.82 23.29,-9.51 20.63,-10.67 106.76,-54.19 125.64,-41.64 10.11,6.73 9.3,24.22 12.69,31.32 0.22,-5.46 1.91,-7.78 2.23,-8.81 5.7,-18.77 6.28,-16.37 -2.23,-35.21 -31.76,-5.28 1.42,3.39 -47.45,3.39 18.78,-15.59 16.1,-1.35 26.4,-20.63 0.21,-0.44 0.44,-1.55 0.74,-2.3 16.56,2.95 22.34,5.92 26.93,-5.87 -2.6,-0.97 -1.44,0.08 -3.84,0.62l-59.71 16.55c-35.48,15.65 -42.1,26.66 -68.45,25.61l-1.3 -32.49c20.42,-21.28 -10.92,20.49 6.65,-9.06l9.55 -14.98c10.35,-10.55 18.82,-15.89 25.66,-25.17 17.33,-23.47 42.07,-44.74 63.1,-65.88 23.47,-23.58 40.37,-33.43 55.26,-46.03 11.91,-10.09 3.76,-6.25 13.06,-14.4l17.3 -13.61c14.7,-10.71 9.67,0.68 10.68,-9.29 0,-14.43 3.36,-8.89 -6.77,-10.19 -0.48,-6.05 1.44,-2.8 -3.58,0.41l-46.99 33.47c-10.48,14.53 -2.13,12.08 -15.88,20.31l-61.87 61.98c-23.14,20.12 -5.83,-0.05 -20.5,21.87 -10.52,15.7 -38.38,41.13 -56.55,72.26 -9.44,16.17 -7.76,20.8 -15.16,29.96 -23.39,28.92 -18.34,36.04 -26.91,41.05z"/>
   <path class="fil23" d="M529.23 1091.94c2.6,-16.96 -2.2,-28.42 -1.3,-47.12 47.56,10.81 53.51,22.5 49.46,56.52 -4.01,33.65 -12.09,65.57 -10.83,103.23l10.38 -22.34c62.81,-200.73 64.99,-166.51 -11.22,-193.17 -48.75,-3.47 -40.39,12.17 -42.39,53.47l5.9 49.41z"/>
   <path class="fil25" d="M1568.88 2459.09c-0.08,13.34 4.92,16.89 -40.76,19.68l-16.41 4.54c-0.64,0.33 -1.4,0.97 -2.09,1.29 -14.68,6.69 -109.7,5.53 -125.64,-0.55 -16.15,-6.14 -8.55,-4.42 -11.65,-12.34 -13.94,-0.59 -29.35,3.67 -25.37,-15.48 4.45,-21.3 70.27,-26.6 90.03,-26.45 30.16,0.23 12.86,11.52 66.52,5.9 23.66,-2.48 42.27,0.72 71.31,0.66 1.33,2.78 3.34,8.19 4.97,9.83l28.6 -2.46c-2.6,9.4 -1.64,7.62 -5.06,12.56 -6.96,10.05 1.24,5.1 -10.18,6.36 -7.78,0.86 -12.89,-3.67 -24.25,-3.53zm-233.57 13.69c55.58,21.65 82.13,22.68 152.24,21.35 27.06,-0.52 59.61,-0.59 82.74,-7.26 20.37,-5.88 47.09,-13.64 62.32,-23.14 -0.19,-11.39 1.83,-16.89 -3.11,-24.84 -19.52,-31.34 -239.04,-28.51 -291.47,-5.64 -15.25,6.66 -11.78,21.57 -19.94,26.03 6.51,1.16 9.75,4.34 17.22,13.5z"/>
   <path class="fil18" d="M1204.43 1778.86l-1.97 3.57c22.35,-1.3 33.16,-4.17 50.64,13.25l4.72 4.95c2.93,2.75 0.16,2.45 5.72,4.45l13.25 5.94c23.12,10.52 13.72,31.67 2.48,46.66 -2.08,2.78 0.42,0.57 -4.49,5.9l-24.39 29.59c9.97,-1.12 8.08,-1.78 12.04,-2.53 7.84,-1.5 1.31,-2.95 8.67,-1.29 -5.2,-3.15 -5.99,-1.87 -13.46,2.71l-16.22 14.68c4.92,4.46 6.17,6.46 19.38,6.66l23.61 -1.91c20.74,-3.2 -2.83,2.17 7.41,-2.08 23.05,-9.59 12.89,-12.78 17.52,-21.75 8.21,-15.95 0.42,-2.12 12.39,-7.1 10.37,-4.32 8.86,13.01 11.28,-29.82 14.66,-11.13 10.56,1.64 7.29,-16.8 -1.83,-10.3 0.34,-28.9 -7.81,-35.66 -7.84,-14.66 1.42,-1.79 -10.94,-4.09l-14.2 -4.58c-17.02,-7.4 -15.01,-4.28 -23.13,-20.6 -12.35,-3.04 -26.21,-8.85 -39.41,-6.43 -15.81,2.91 -25.37,12.53 -40.39,16.29z"/>
   <path class="fil26" d="M1029.65 1832.19l15.88 -2.09c1.59,-7.41 -2.15,-2.94 1.45,-9.1 6.54,0.57 24.05,1.76 32.62,1.96 13.08,0.29 13.32,-7.47 17.99,-20.03 29.98,-5.35 10.44,2.56 10.41,2.6 2.67,-11.13 -0.55,4.25 -1.57,-11.5 -0.33,-5.06 0.22,-8.81 0.11,-15.58 -0.16,-10.89 -2.11,-18.52 -2.19,-30.75 -15.06,0.05 -14.68,-2.22 -24.35,4.76 -0.83,-28.41 -11.54,-21.6 -26.24,-19.3l-6.68 -8.51c-4.32,-4.83 5.58,-1.52 -4.38,-3.27 -19.18,0.68 -37.7,26.99 -40.52,49.75 -3.21,25.96 11.26,57.45 27.45,61.06z"/>
   <path class="fil23" d="M678.82 1076.74l2.5 -12.09c13.58,12 86.98,11.42 93.31,45.58 4.09,22.13 -12.84,116.05 -9.92,140.64 11.6,-14.84 37,-147.33 39.95,-163.24 8.59,-46.15 -49.27,-53.4 -90.33,-58.56 -7.87,-0.98 -14.85,-1.74 -22.69,-0.12 -26.25,5.44 -22.34,36.55 -12.83,47.79z"/>
   <path class="fil23" d="M2232.65 979.62c6.74,12.73 22.54,50.62 22.76,63.54 12.72,11.97 33.05,78.84 37.18,85.2l8.49 11.02c-0.47,-49.26 -27.78,-90.96 -17.65,-137.96 7.88,-3.98 37.21,-18.01 42.24,-21.91 1.83,11.42 0.25,10.34 6.77,18.62l-4.19 -47.08c-3.87,-14.43 -1.78,-30.72 -45.28,-20.35 -23.32,5.57 -39.15,14.76 -51.69,24.95l1.35 23.98z"/>
   <path class="fil27" d="M1483.2 642.75l7.51 -23.81c-36.48,-9.93 -1,-94.29 -73.74,-173.77l-10.76 -12.11c-7.82,-9.63 -10.7,-12.24 -23.27,-18.23 0.64,-27.19 0.34,-8.11 6.54,-22.98l-25.81 -25.76c-1.35,-1.89 -4.47,-6.69 -5.31,-7.84 8.97,7.14 7.69,7.39 5.18,15.32 -2.19,6.98 -6.42,8.88 -14.62,14.8 -2.48,-13.16 -3.15,-20.24 -2.12,-35.84 20.03,1.15 10.19,6.42 27.99,3.79 -16.7,-13.27 -68.93,-23.06 -96.12,-25.06l-38.64 -3.6c14.91,11.04 7.4,-1.01 16.84,17.18 4.58,8.84 6.14,14.75 13.23,20.34l94.53 45.25 36.7 33.73c70.91,65.88 44.61,144.2 65.94,174.74l15.94 23.84z"/>
   <path class="fil28" d="M996.61 1620.21l14.23 -1.05c11.95,-20.05 112.79,13.06 114.39,13.3l74.21 17.23c19.49,7.65 12.73,5.59 22.68,20.89 21.49,33.05 10.05,25.55 33.31,34.98 4.55,1.85 10.67,4.76 14.03,6.02l67.42 27.85c37.19,8.22 58.79,48.67 49.04,83.1 -6.91,24.42 -21.2,83.99 -34.54,104.39l-3.67 21.19c23.32,-6.29 19.75,-28.56 34.91,-69.45 18.82,-50.83 32.8,-117.22 -28.19,-144.66 -36.18,-16.28 -89.32,-32.8 -104.31,-50.84 -38.63,-46.52 10.61,-29.52 -98.33,-58.23 -29.78,-7.84 -54.58,-14.94 -84.04,-21.64 -38.42,-8.75 -52.35,-22.13 -71.13,16.93z"/>
   <path class="fil23" d="M2081.3 997.23l-12.99 9.25c-3.93,2.75 -6.62,3.84 -10.64,9.75 -7.54,11.09 -6.61,16.17 -2.27,31.43l56.6 172.83c-0.92,-8.71 -2.56,-15.84 -3.78,-23.53l-8.84 -51.14c-16.29,-87.87 -27.44,-86.53 26.56,-111.85 5.66,-2.65 49.15,-20.93 55.07,-19.14l5.54 0c-5.36,-28.75 -3.68,-41.08 -44.15,-33.22 -17.11,3.32 -51.23,15.83 -61.1,15.62z"/>
   <path class="fil11" d="M2109.15 2072.27c-1.79,6.65 -2.75,8.84 -7.74,14.09 -2.72,19.96 -2.12,6.4 2.93,12.28 36.58,-1 74.58,-24.18 73.59,31.8 -0.77,43.87 -36.82,41.53 -64.17,54.18 8.04,13.68 25.74,17.36 41.68,15.5 19.52,-2.28 26.11,-13.76 35.35,-23.99 25.76,-28.56 28.7,-47.71 19.49,-93.16 -9.06,-16.41 -18.74,-29.59 -44.87,-30.23 -24.46,-0.59 -40.98,12.79 -56.26,19.53z"/>
   <path class="fil2" d="M328.5 544.96c1.07,-19.53 48.05,-96.05 59.1,-103.23 8.52,-23.35 71.1,-80.68 92.21,-101.9 18,-18.11 44.25,-42.66 65.57,-55.6 3.82,-8.1 10.41,-10.44 20.24,-14.31 47.75,-18.77 171.92,-46.07 223.05,-32.03l5.57 2.09c18.99,-3.23 42.24,5.83 61.2,11.18 16.13,4.55 39.82,16.89 53.84,18.74l0.62 -35.18c-19.37,-3.78 -8.51,-0.37 -12.04,18.82 -26.97,-3.39 -94.35,-41.61 -196.35,-26.8 -132.26,19.2 -154.83,33.42 -236.2,112.12 -20.12,19.46 -37.38,37.83 -58.32,60.6 -31.1,33.83 -61.68,79.12 -81.28,122.14 -0.47,1.03 -3.79,10.08 -3.8,10.51 -0.3,14.65 -4.61,6.46 6.59,12.87z"/>
   <path class="fil9" d="M656.22 1317.06c6.88,-6.62 21.04,-35.09 20.93,-47.3 -0.07,-9.18 -10.38,-47.14 -13.6,-60.32 -5.46,-22.46 -21.97,-104.67 -30.05,-115.51 -0.71,7.91 -1.71,11.72 -1.66,18.67 0.33,48.63 -10.56,69.3 -15.28,110.1 -7.03,60.84 -2.3,53.73 26.08,78.38 18.45,16.03 1.83,16.1 13.57,15.99z"/>
   <path class="fil23" d="M2379.97 1345.4c30.01,-5.49 27.03,-25.74 43.36,-31.76 10.03,-20.3 21.89,-30.48 31.32,-56.07 3.69,-10.03 4.55,-22.38 4.65,-35.43l-2.12 -28.18c-4.36,-13.83 -1.15,-4.47 -4.8,-9.4 -2.61,14.44 1.87,19.6 1.11,36.77 -0.52,11.44 -2.95,20.89 -3.46,34 0.88,-9.49 -0.67,-9.11 -3.41,-13.01 -9.97,10.3 -6.13,11.09 -20.33,16.41 -3.5,-4.65 -2.39,-2.04 -4.71,-9.44 -5.24,-16.73 4.4,-103.71 -0.68,-132.78 -7.11,11.63 -6.51,9.12 -9.88,22.61 -12.65,50.53 -37.57,163.98 -31.06,206.26z"/>
   <path class="fil9" d="M898.78 1118.38l28.68 104.57c3.35,5.84 1.07,2.65 5.17,6.92 11.57,-20.15 74.99,-81.43 79.17,-94.67 3.17,-12.21 2.42,-3.76 1.79,-16 -28.81,-2.17 -91.7,0.6 -112.81,-12.47l-2.01 11.65z"/>
   <path class="fil9" d="M2220.4 1054.13c-0.34,34.81 -11.02,78.16 -15.81,111.52 -4.91,34.11 -12.26,73.97 14.92,93.79 11.16,5.27 5.57,-3.06 10.2,9.27 -22.5,-26.24 41.47,-14.73 28.37,-82.74l-20.39 -83.81c-6.93,-22.86 -10.09,-7.85 -5.7,-18.96 -0.77,-14.25 -1.63,-28.34 -3.72,-40.98 -3.34,-1.27 1.14,-5.02 -4.55,4.77 -1.11,1.9 -2.74,6.16 -3.31,7.13z"/>
   <path class="fil12" d="M792.26 409.88c0.94,14.64 -11.07,32.94 -18.45,44.4 -13.08,20.3 -23.19,25.06 -25.15,39.53 10.08,6.31 67.67,13.95 77.68,43.77 -9.42,11.89 -36.99,20.46 -56.25,13.21 -115.08,-43.31 -203.34,-60.29 -328,-41.77 -68.97,10.25 -91.29,33.35 -110.85,38.75 6.14,16.5 3.82,5.64 52.48,-12.65 93.98,-35.3 228.35,-26.5 325.45,5.23 35.74,11.68 83.79,38.07 118.07,9.19 12.08,-16.92 1.01,-30.27 -12.95,-40.24 -18.15,-12.98 -34.57,-13.65 -48.27,-22.54 2.45,-9.71 12.89,-19.61 18.36,-29.83 6.8,-11.12 15.21,-28.48 16.96,-36.33l1.96 -21.78 -11.04 11.07z"/>
   <path class="fil15" d="M735.01 1494.91c9.14,2.65 3.5,-3.41 10.34,4.14 11.94,-31.41 -5.96,-40.61 -13.04,-67.53 -7,-26.67 -5.17,-1.07 -5.65,-22.88 -1.19,-6.61 -29.5,-63.28 -45.7,-67.64 -11.16,13.83 -20.67,82.7 -11.33,102.68 3.64,7.78 54.71,48 65.37,51.23z"/>
   <path class="fil15" d="M2163.33 1353.53c-1.49,13.68 0.89,1.11 -2.93,14.69 -3,10.68 -2.94,4.57 -4.42,16.61 -0.47,0.19 -1.42,-0.42 -1.5,0.1l-2.57 4.77c0.67,30.01 -22.24,51.75 3.5,61.13 8.97,-3.28 61.65,-51.5 63.86,-59.79 6.68,-25.05 -9.12,-89.66 -20.04,-100.99 -16.07,5.36 -35.52,56.83 -35.91,63.48z"/>
   <path class="fil23" d="M417.04 1296.73c4.01,60.17 69.21,116.95 85.93,113.41 6.09,-12.52 -4.08,-47.97 -6.73,-60.77 -11.11,-53.4 -20.34,-87.75 -38.16,-138.67 -5.8,-16.61 -3.02,-10.23 -12.58,-25.72 -5.38,34.42 27.14,124.19 5.02,146.66l-21.71 -18.59c-8.95,-7.52 -3.11,-6.09 -11.76,-16.32z"/>
   <path class="fil9" d="M2301.09 1139.39c-0.66,17.81 11.15,21.02 9.14,40.56l10.75 2.31c2.13,-28.62 8.88,-54.41 10.37,-85.42 1.57,-33.02 -0.08,-66 1.11,-98.7 -6.52,-8.28 -4.94,-7.19 -6.77,-18.62 -5.03,3.9 -34.36,17.93 -42.24,21.91 -10.14,47 17.18,88.7 17.65,137.96z"/>
   <path class="fil9" d="M529.23 1091.94c-3.26,10.34 -1.59,12.61 -0.86,25.14 1.04,18.86 6.21,45.86 9.23,64.9 3.19,20.12 4.3,52.69 18.25,60.5 4.42,-8.74 10.34,-24.62 10.71,-37.92 -1.26,-37.66 6.83,-69.58 10.83,-103.23 4.05,-34.02 -1.9,-45.71 -49.46,-56.52 -0.9,18.7 3.9,30.16 1.3,47.12z"/>
   <path class="fil26" d="M2149.24 1883.92c-2.9,12.9 -0.26,12.01 1.2,25.44 14.79,0.63 0.93,3.93 14.9,-2.22 2.35,1.64 4.6,6.63 11.59,8.73 3.09,0.92 18.96,2.74 22.23,2.46 26.89,-2.28 -2.52,-2.16 17.99,-5.16l66.9 0.94c15.69,-0.4 18.63,-4.02 40.57,-4.02 -10.87,-13.82 13.99,-9.18 -13.57,-10.16l10.18 -1.31c10.49,-4.42 6.72,-3.46 11.18,-9.94 -18.88,-8.86 -31.99,-9.19 -55.22,-3.28 -15.83,-5.9 6.65,-9.81 -30.42,-10.41 -3.94,-0.05 -16.81,0.18 -19.85,-0.44 -11.61,-2.39 -2.27,-1.16 -9.89,-5.79 -18.21,-11.07 -23.31,4.16 -55.66,0.71 -25.05,-2.68 -9.4,-2.72 -9.25,-3.41l-2.87 17.85z"/>
   <path class="fil17" d="M787.33 404.84l4.36 -14.44c-5.59,4.64 -8.89,9.3 -12.86,14.21l-15.7 16.48c-4.79,11.68 -42.32,59.19 -64.69,48.15 2.59,-12.82 28.72,-37.93 39.83,-54.17 15.29,-22.38 14.81,-43.66 27.41,-64.45 40.83,-7.29 143.25,34.48 154.69,62.17 6.36,15.4 14.09,67.15 19.96,89.03 4.61,17.15 23.84,71.17 23.58,84.37l-16.72 1.05c6.09,7.3 8.74,4.43 18.33,11.48l16.06 0.21c-3.42,-17.03 -13.77,-37.37 -19.03,-55.33 -11.3,-38.63 -22.83,-78.4 -29.48,-119.63 -6.43,-39.86 -16.13,-25.33 -31.72,-44.43 -20.83,-7.56 -34.09,-16.88 -58.05,-25.06 -14.32,-4.9 -56.86,-13.12 -64.08,-16.91 -50.67,0.96 -2.86,22.69 -71.8,101.14 -12.65,14.39 -22.91,14.36 -19.56,39.57 31.71,11.42 37.37,0.59 58.61,-20.97 14.65,-14.85 31.69,-34.07 40.84,-52.47z"/>
   <path class="fil15" d="M426.78 1029.1c-2.15,19.97 30.5,121.33 40.58,149.29 11.72,32.54 12.02,38.97 27.53,40.73l0.04 -30.84 1.34 -0.82c-4.45,-5.23 -0.93,2.13 -3.56,-6.66 -1.42,-4.72 -1.11,-5.42 -1.33,-10.04l-6.4 -13.91c-0.22,-0.86 -1.68,-10.3 -1.89,-11.68 -1.3,-8.92 -1.23,-13.17 -0.45,-22.09 1.42,-16.51 3.67,-42.13 -2.28,-54.4l0.47 55.15c-5.99,-9.37 -12.99,-84.78 -15.48,-103.11 -25.82,-9.15 -18.97,-6.36 -42.32,-20.12l3.75 28.51z"/>
   <path class="fil23" d="M827.27 1369.31c-9.64,5.98 -0.21,-5.1 -9.6,6.07 -8.41,-35.76 -6.99,-67.95 -0.78,-105.6 5.32,-32.29 8.66,-70.77 9.78,-105.78 -5.31,5.62 -1.78,0.53 -5.77,7.22 -10.97,18.34 -47.83,161.19 -46.18,189.78 0.96,16.39 8.02,32.76 18.84,43.13 12.27,11.75 0.25,4.42 14.85,8.82 2.78,-5.92 5.47,-13.53 9.12,-20.61 7.18,-13.91 6.92,-7.88 9.74,-23.03z"/>
   <path class="fil23" d="M2058.81 1336.63l20.18 33.18c0.23,-0.55 1.05,1.27 1.63,1.87 18.88,-8.56 29.38,-37.88 26.96,-61.1 -3.34,-32.12 -38.86,-124.12 -53.48,-160.28 -7.81,-19.31 -1.59,-8.99 -15.36,-27.85 6.61,36.67 12.27,71.48 19.33,107.66 2.75,14.12 21.84,106.57 0.75,106.51z"/>
   <path class="fil23" d="M2368 1072.01c2.48,3.76 1.78,1.33 3.36,8.21 4.36,18.92 -1.41,45.45 2.23,59.88 2.02,8 -0.33,2.63 3.36,7.3 2.94,-13.45 3.31,-34.13 -0.14,-45.11 7.65,-11.26 2.91,8.17 6.36,-8.23l2.43 -58.3c3.47,-68.91 -12,-73.62 19.85,-88.64l23.49 -9.18c-2.98,18.88 -9.4,39.44 -7.67,56.51 4.73,-4.55 1.42,1.01 4.45,-5.79l6.09 -35.24c2.46,-16.07 4.54,-39.11 -0.86,-51.21 -20.56,-9.06 -57.55,5.96 -72.04,18.32 -7.19,30.97 22.61,111.62 9.1,151.48z"/>
   <path class="fil22" d="M1579.51 1780.39c-10.2,15.1 -9.26,29.55 -11.34,50.32 13.08,12.73 19.16,53.47 28.01,69.16 6.16,10.93 11.56,17.06 28.59,20.11 13.97,2.5 32.76,4.61 48.52,0.62 79.88,-20.22 74.27,-69.94 80.35,-110.52 -11.04,5.87 -4.36,2.46 -11.87,21.52 -3.53,8.93 -8.38,13.87 -15.63,18.93 -23.6,16.51 -28.07,11.3 -50.84,2.49 1.09,22.71 25.77,20.38 43.83,16.06 -8.75,9.15 -9.45,18.4 -9.96,32.34l-37.47 11.28 0 -20.97 -23.61 -0.88c1.82,18.38 1.83,12.16 12.57,19.23 -6.95,0.94 -16.14,4.53 -18.1,4.72 -25.62,2.67 2.53,1.37 -39.18,-20 -5.95,-3.05 -7.3,-17.59 -8.85,-26.29 -3.19,-18.03 -5.84,-13.56 -9.99,-29.04l-1.22 -51.65c32.92,-1.71 31.15,-10.27 35.92,-13.62 5.21,-3.67 30.42,-13.09 38.22,-16.58 0.81,-0.38 13.42,-4.83 13.73,-4.86 23.14,-1.24 11.11,-1.55 16.14,8.25 -5.61,7.36 -16.26,6 -20.8,13.92 18.78,-1.53 17.91,-13.25 44.69,-7.95l0.9 -3.35c-11.98,-15.91 -49.02,-19.9 -67.28,-11.54 -13.34,6.1 -16.11,7.59 -31.31,12.16 -17.17,5.16 -20.24,10.52 -34.02,16.14z"/>
   <path class="fil23" d="M2219.51 1259.44c4.72,14.39 7.29,19.61 20.39,25.57 17.85,-8.07 26.04,-26.62 40.71,-42.72 35.32,-38.72 -14.43,-99.05 -39.08,-179.97l-13.27 -20.09c2.09,12.64 2.95,26.73 3.72,40.98 -4.39,11.11 -1.23,-3.9 5.7,18.96l20.39 83.81c13.1,68.01 -50.87,56.51 -28.37,82.74 -4.64,-12.34 0.96,-4.01 -10.2,-9.27z"/>
   <path class="fil23" d="M656.22 1317.06c-11.74,0.11 4.88,0.04 -13.57,-15.99 -28.38,-24.65 -33.12,-17.54 -26.08,-78.38 4.72,-40.8 15.61,-61.47 15.28,-110.1 -0.05,-6.95 0.94,-10.76 1.66,-18.67 -14.55,12.15 -19.63,48.68 -25.17,66.3 -17.19,54.75 -40.26,106.68 -13.73,138.22 10.16,12.08 33.59,37.89 49.09,39.39 9.48,-8.93 8.7,-7.97 12.53,-20.78z"/>
   <path class="fil7" d="M2250.08 1954.3c4.25,10.72 9.15,13.49 16.95,16.82 -4.13,11.89 -0.33,-4.61 -3.41,10.18l-13.97 0.11c-2.3,-3.26 -4.95,-10.45 -4.99,-10.94 -0.15,-4.16 0.85,-11.94 -1.37,-15.95 -12.47,-0.38 -26.55,-1.22 -37.27,4.02 0.38,11.78 9.26,14.88 13.54,28.07 20.76,3.94 10.23,-3.58 17.18,0.23 9.45,5.2 -5.65,-12.31 2.3,3.78 4.02,8.17 -1.5,6.47 11.23,9.71 5.91,1.5 3.61,1.23 9.79,0.89l17.13 -3c3.5,9.82 0.85,6.26 6.02,11.16 9.53,9.06 24.09,3.65 41.42,2.74l20.12 -20.67c-4.98,-3.94 6.33,-6.11 -16.93,-6.77 0.29,-22.24 18.92,-18.42 29.35,-23.75 15.43,-7.89 5.94,0.98 11.49,-13.54 -7.65,-5.29 -1.27,-3.57 -13.3,-3.72 -18.18,-0.25 -8.08,14.46 -105.28,10.63z"/>
   <path class="fil29" d="M1071.6 408.82c0.64,0.78 1.56,0.96 1.83,2.39l34.37 99.33c18.7,58.87 49.42,137.51 83.51,187.72 13.62,20.07 43.17,65.49 62.39,74.25l10.44 -18.06c7.73,-22.58 14.8,-43.17 28.97,-62.18 37.18,-49.87 60.25,-36.07 65.59,-53.54l-13.47 -8.56 6.96 9.07 -18.66 -0.78c-0.7,4.35 -0.9,3.2 -5.13,7.59 -3.84,3.99 -6.78,5.96 -10.93,9.14 -9.85,7.52 -13.62,11.78 -23.17,15.73 -2.5,15.8 -13.8,12.47 -21.34,33.85 -7.3,20.71 -12.04,21.49 -19.86,42.14 -19.82,-2.11 -15.78,-3.32 -24.21,-15.4 -8.49,-12.2 -8.89,-4.64 -18.49,-18.52l-26.56 -44.51c-6.89,-18.33 -21.48,-33.96 -34.57,-74.94 -2.56,-8.04 -5.92,-19.92 -9.93,-26.97 -19.79,-34.85 -28.51,-86.78 -35.93,-100.36 -6.91,-12.64 -8.22,-21.71 -12.61,-35.69 -5.83,-17.45 -12.37,-27.37 -15.07,-41.66 -2.15,-11.42 -2.13,-23.64 -9.38,-30.9l5.27 50.86z"/>
   <path class="fil30" d="M2360.15 386.68c-8.29,-13.2 -14.51,-15.62 -19.66,-30.65 -2.9,-8.47 -6.8,-30.52 4.86,-33.85l6.32 1.76c4.75,3.43 3.28,6.35 6.06,10.78 12.13,16.36 31.64,15.85 32.49,52.87l-30.07 -0.9zm-147.34 -140.49c18.58,7.13 39.5,23.81 56.6,35.09 15.28,10.07 34.99,24.77 46.07,38.26 33.87,41.23 4.83,88.43 92.03,81.52 -28.74,-80.43 -33.62,-59.42 -84.71,-114.17 -30.24,-14.35 -30.09,-43.59 -106.62,-51.77 -3.31,6.35 -2.65,-0.59 -3.36,11.08z"/>
   <path class="fil15" d="M1042.71 1721.38c9.96,1.75 0.05,-1.56 4.38,3.27l6.68 8.51c14.69,-2.3 25.4,-9.11 26.24,19.3 9.67,-6.98 9.29,-4.71 24.35,-4.76 0.08,12.23 2.02,19.86 2.19,30.75 0.11,6.77 -0.44,10.52 -0.11,15.58 1.03,15.76 4.24,0.37 1.57,11.5 0.03,-0.04 19.57,-7.95 -10.41,-2.6 -4.66,12.56 -4.91,20.31 -17.99,20.03 -8.58,-0.19 -26.08,-1.38 -32.62,-1.96 -3.6,6.16 0.14,1.68 -1.45,9.1l-15.88 2.09c24.81,32.08 74.12,11.44 90.77,-7.78 30.57,-35.28 12.71,-63.19 -3.13,-94.94 -4.71,-2.34 -7.5,-4.99 -13.43,-8.81 -13.79,-4.28 -29.35,-9.93 -46.36,-6.74 -2.78,0.53 -5.72,1.44 -8.14,2.61 -6.18,3 -2.2,0.45 -6.65,4.86z"/>
   <path class="fil9" d="M2376.96 1147.4c1.2,1.53 -3.65,14.64 10.09,-0.68 12.97,-14.44 24.7,-110.75 34.07,-123.86l0.15 -28.41c-1.72,-17.07 4.69,-37.63 7.67,-56.51l-23.49 9.18c-31.84,15.02 -16.37,19.72 -19.85,88.64l-2.43 58.3c-3.45,16.4 1.29,-3.02 -6.36,8.23 3.45,10.98 3.08,31.67 0.14,45.11z"/>
   <path class="fil11" d="M1909.49 334.94c-2.59,4.14 -29.14,24.47 -35.06,30.37 -26.06,25.93 -69.16,80.99 -105.87,85.72l-3.13 17.66 13.56 -7.14c6.06,-7.45 30.35,-19.56 43.05,-29.93 34.07,-27.81 84.74,-98.81 128.07,-102.04 7.41,-10.26 26.17,-14.12 39.39,-17.97 84.94,-24.77 27.45,3.35 101.8,82.99 11.28,12.09 23.66,19.37 15.81,27 -19.29,18.78 -75.94,-58.97 -84.1,-67.59 -7.5,4.86 -2.01,-2.24 -4.54,9.78 9.48,5.36 24.36,27.3 35.28,38.07 20.31,20.04 24.42,21.24 43.77,35.45 69.06,-19.96 -19.19,-33.84 -42.51,-121.97 -3.99,-15.07 -0.47,-13.36 -11.65,-20.67 -41.35,-10.31 -99.36,29.2 -133.86,40.27z"/>
   <path class="fil15" d="M577.67 1368.61c-10.27,-7.87 -4.3,-0.07 -11.89,-14.36 -2.72,-5.13 -6.32,-12.5 -9.25,-18.6 -6.78,-14.2 -10.71,-21.93 -14.5,-40.05 1.18,-7.28 -2.42,-7.19 -4.76,-16.96 -13.16,-9.75 -10.98,-23.06 -29.15,-27.08 -8.69,14.46 5.09,65.89 8.97,87.36 2.63,14.51 12.31,72.33 21.6,83.33 6.92,-13.82 34.39,-43.13 38.97,-53.63z"/>
   <path class="fil8" d="M426.78 1029.1l-3.75 -28.51c23.35,13.76 16.5,10.97 42.32,20.12 2.49,18.33 9.49,93.74 15.48,103.11l-0.47 -55.15c5.95,12.27 3.71,37.89 2.28,54.4 -0.78,8.92 -0.85,13.17 0.45,22.09 2.22,15.14 1.66,11.18 8.29,25.59 0.83,-31.58 -2.63,-62.98 -1.44,-94.33 0.83,-21.93 9.7,-73.8 2.64,-89.17 -9.12,-11.8 -54.95,-25.57 -72.36,-16.26 -7.95,9.36 -4.08,0.01 -5.18,14.06 -0.52,6.72 3.16,35.04 11.72,44.04z"/>
   <path class="fil15" d="M2344.07 1203.24c-0.48,8.21 1.49,0.56 -4.45,13.51 -3.04,6.59 -4.24,6.54 -5.13,12.93 -0.42,18.81 -6.02,28.37 -11.72,45.03l-17.3 42.32c12.64,-0.23 28.33,36.96 47.09,40.46l0.77 -16.73c3.13,-29.29 19.61,-131.97 13.56,-154.13 -9.67,-0.57 -6.36,-0.89 -12.17,4.27l-10.64 12.34z"/>
   <path class="fil25" d="M539.93 1978.29c19.16,45.78 103.9,33.53 151.09,27.73 12.02,-1.49 11.9,-0.3 19.08,-6.43 -20.13,-3.54 -90.67,11.5 -134.53,1.63 -20.11,-4.53 -22.2,-6.11 -22.76,-26.7 0.71,-0.74 1.78,-2.82 2.17,-2.15 0.08,0.14 20.05,-18.64 40.61,-25.37 84.85,-27.73 99.7,-10.96 187.41,-17.96l0.67 38.7c-1.01,0.29 -2.01,-0.07 -2.15,0.56 -48.01,17.88 -9.93,13.75 -67.45,26.59 6.31,8.28 -0.94,4.79 10.74,6.72 13.58,-13.02 42.28,-10.52 59.52,-21.74l3.2 -43.66 -2.17 -39.31c-9.93,26.66 2.54,20.85 -63.73,20.55 -52.62,-0.22 -94.98,2.45 -139.58,25.26 -21.2,10.86 -46.99,19.56 -42.13,35.59z"/>
   <path class="fil2" d="M2085.94 479.43l-19.15 10.52c-41.24,14.51 -36.82,17.21 -80.27,11.31 3.16,4.3 2.54,12.78 26.28,13.1 27.6,0.37 56.59,-16.32 86.42,-25.22 105.69,-31.56 213.92,-47.82 322.43,-17.33 21.79,6.13 35.99,15.14 55.48,19.96 2.34,-5.32 2.6,-3.93 0.88,-10.52 -38.24,-7.85 -62.52,-38.83 -197.53,-34.73 -36.55,1.11 -70.68,4.64 -102.48,11.65 -20.44,4.5 -79.28,23.44 -92.06,21.26z"/>
   <path class="fil23" d="M347.39 1144.5l-4.2 1.53c-1.89,8.37 -5.07,16.02 -5.2,22.19 -0.25,12.42 4.32,10 4.09,23.73 19.01,19.85 35.47,72.48 57.6,76.46 12.75,-24.89 -1.03,-77.21 -4.12,-107.18 -4.55,-44.13 -4.66,-72.15 -4.72,-117.37 -18.52,25.5 5.8,93.6 -17.82,141 -9.79,-1 -10.76,-2.94 -17.26,-10.22l-11.48 -13.5 3.11 -16.63z"/>
   <path class="fil15" d="M1852.38 1111.4c5.51,9.88 35.15,35.44 44.17,44.07 15.47,14.77 28.26,32.21 45.13,43.01 5.36,-8.84 18.51,-71.03 16.93,-82.44 -12.06,6.26 -3.08,-0.79 -12.84,17.54l-4.34 7.22c-5.44,6.1 -27.96,3.69 -37.01,3.39 3.16,-36.22 4.6,-19.66 -3.41,-42.38 -14.4,4.47 -9,4.62 -23.7,-1.68l34.91 -6.43c22.98,-2.52 22.01,-2.71 26.06,-14.12 -19.12,1.82 -23.9,6.26 -47.44,7.09 -24.47,0.86 -25.99,1.42 -44.09,8.97l5.64 15.76z"/>
   <path class="fil15" d="M417.04 1296.73c8.66,10.23 2.82,8.8 11.76,16.32l21.71 18.59c22.12,-22.47 -10.4,-112.25 -5.02,-146.66 -0.77,-12.19 -2.5,-16.78 -11.93,-24.66 -14.29,19.87 -17.21,104.69 -16.52,136.42z"/>
   <path class="fil11" d="M2146.73 2028.84c-9.62,8.38 -2.28,-1.76 -8.48,13.43 31.53,-1.87 54.29,-5.79 71.06,13.6 17.39,20.08 14.32,49.48 23.81,61.33 16.13,-19.79 19.63,-48.08 9.42,-76.78 -11.68,-32.86 -27.97,-35.26 -63.63,-32.64 -14.32,8.44 -18.32,7.24 -32.19,21.05z"/>
   <path class="fil15" d="M1247.02 1861.06c6.26,-13.08 12.83,-19.89 12.3,-42.43 -0.81,-1.03 -4.73,-10.52 -9.88,-15.89 -19.57,-20.42 -53.36,-12.06 -63.34,12.45 -8,19.63 1.75,36.92 12.32,45.07 16.89,13.02 33.91,4.92 48.6,0.81z"/>
   <path class="fil23" d="M2483.89 1194.23l39.82 -84.98c4.64,-12.2 5.76,-16.03 2.49,-23.88 -6.91,-16.56 -0.38,-2.39 -6.59,-9.29 -0.72,12.41 -3.15,13.19 -8.86,20.57 -4.57,5.9 -7.22,9.38 -13.27,13.79 -21.2,-16.13 -16.48,-81.13 -27.44,-98.38 1.42,45.03 -8.82,147.28 2.53,180.79l11.33 1.38z"/>
   <path class="fil15" d="M1688.2 1777.89c-17.47,6.83 -33.53,16.69 -26.19,46.32 4.23,17.08 25.21,32.94 46.9,25.88 48.56,-15.78 25.76,-90.37 -20.71,-72.19z"/>
   <path class="fil30" d="M444.88 384.67l32.03 -12c-2.43,24.13 2.2,2.05 -5.92,18.59 -23.94,48.74 3.24,34.99 -30.89,55.59 -12.21,7.37 -17.54,6.8 -22.99,-0.77 -2.57,-3.56 -2.3,-26.48 16.48,-30.5l-5.64 -13.31c-14.12,10.09 -22.99,34.85 -25.09,57.93 23.46,1.01 57.04,-10.12 60.62,-21.61 7.88,-25.24 9.38,-56.98 37.34,-81.03 12.09,-10.41 59.69,-45.9 71.87,-46.93 3.88,-12.73 7.61,-5.92 16.74,-23.81 -81.74,25.03 -50.86,10.55 -116.09,66.87 -9.47,8.17 -23.5,16.51 -28.48,30.98z"/>
   <path class="fil14" d="M1770.42 1775.21c1.35,-15.84 -3.01,-19.83 1.34,-38.74 4.53,-19.7 11.13,-20.94 10.79,-39.85 -22.19,0.52 -44.07,-36.12 -74.32,7.21 -6.22,8.92 -12.79,14.66 -17.78,23.28l22.06 8.49c18.18,6.09 49.41,24.87 57.9,39.6z"/>
   <path class="fil14" d="M1132.88 1720.07c-2.93,7.74 0.05,5.9 -6.2,8.88 11.65,13.87 21.31,36.38 20.13,62.36 12.82,-8.3 9.19,-14.55 25.03,-16.54 5.31,-9.42 12.97,-12.98 23.39,-17.74 11.85,-5.4 16.26,-6.89 25.8,-17.51 -14.01,-9.41 -20.91,-28.68 -37,-34.29 -23.13,-8.06 -37.05,8.81 -51.16,14.84z"/>
   <path class="fil15" d="M2420.91 1116.53c5.09,29.07 -4.55,116.05 0.68,132.78 2.31,7.4 1.2,4.79 4.71,9.44 14.2,-5.32 10.35,-6.11 20.33,-16.41 2.74,3.9 4.28,3.52 3.41,13.01 0.51,-13.12 2.94,-22.57 3.46,-34 0.77,-17.17 -3.72,-22.32 -1.11,-36.77 3.88,-19.16 -12.72,-89.16 -22.71,-96.36 -7.03,10.57 -9.56,15.16 -8.77,28.33z"/>
   <path class="fil15" d="M2470.03 1012.06c10.96,17.25 6.24,82.25 27.44,98.38 6.05,-4.4 8.7,-7.89 13.27,-13.79 5.72,-7.39 8.14,-8.17 8.86,-20.57 -1.66,-27.47 -37.38,-81.58 -37.26,-105.69 -19.57,-8.84 4.65,2.8 -6.07,-4.5 -5.96,-4.06 -2.22,-3.52 -11.27,-7.1l5.03 53.28z"/>
   <path class="fil15" d="M347.39 1144.5l-3.11 16.63 11.48 13.5c6.5,7.28 7.47,9.22 17.26,10.22 23.62,-47.4 -0.7,-115.5 17.82,-141 -1.46,-12.06 0.05,-5.98 -4.72,-12.21 -12.54,6.66 -18.85,39.71 -22.58,51.94 -4.47,14.72 -16.32,46.93 -16.15,60.92z"/>
   <path class="fil31" d="M2586.45 944.4c3.53,-31 -24.4,-130.44 -41.54,-137.3 -10.67,56.4 -4.76,125.68 41.54,137.3z"/>
   <path class="fil32" d="M267.14 1028.7c19.34,-5.8 37.15,-31.68 38.31,-53.73 1.52,-28.62 -2.9,-58.52 -6.59,-86.06 -18.3,4.36 -37.01,106.53 -31.72,139.79z"/>
   <path class="fil33" d="M1754.36 1200.98c-11.56,0.72 -18.18,-2.72 -29.57,-7.19l8.7 -26.14 -45.66 -11.7c-9.49,10.19 -19.83,25.18 -21.27,42.77 48.03,3.01 77,21.26 117.99,28.53 -5.7,-25.5 -11.08,-10.2 -30.19,-26.28z"/>
   <path class="fil26" d="M1958.61 1116.04l4.98 -38.63 -25.32 2.17c-4.05,11.41 -3.08,11.6 -26.06,14.12l-34.91 6.43c14.7,6.31 9.3,6.16 23.7,1.68 8,22.72 6.57,6.16 3.41,42.38 9.06,0.3 31.57,2.71 37.01,-3.39l4.34 -7.22c9.77,-18.33 0.78,-11.27 12.84,-17.54z"/>
   <path class="fil12" d="M162.19 1005.97c29.35,-15.22 22.54,-38.01 45.4,-46.38 1.44,53.65 -11.49,104.07 -8.52,158.51 13.24,-17.86 23.2,-160.13 24.28,-200.8 -11.22,5.9 -6.17,2.19 -13.77,10.38l-21.11 32.53c-8.63,12.45 -21.76,30.24 -26.28,45.77z"/>
   <path class="fil23" d="M333.49 1071.67l1.81 -83.93c41.09,21.9 19.66,19.29 21.16,64.12 4.09,-4.53 41.28,-83.37 29.7,-94.46 -22.5,-8.89 -50.17,5.64 -55.27,29.35 -3.98,18.45 -5.5,72.44 2.61,84.92z"/>
   <path class="fil8" d="M228.94 826.59c-1.24,12.79 -8.92,19.25 -13.76,32.2 -22.01,-7.17 -21.52,-16.66 -34.29,-4.65 -8.36,7.85 -8.02,22.1 -15.61,35.59l-7.87 10.22c-0.45,10.49 -4.35,18.12 -5.59,34.13 -1.08,13.79 -2.24,23.91 -3.01,37.31 -0.15,12.34 -1.64,21.22 3.47,29.93 12.46,-18.55 4.69,-55.41 9.88,-80.47 0.64,-3.13 19.29,-53.98 32.94,-63.65 -1.18,16.78 -1.35,37.48 6.02,47.96l42.88 -84.75c5.14,4.08 5.73,-2.71 3.67,25.48 -1.78,24.24 -10.66,67.45 -7.11,80.51 15.36,-1.23 13.09,-1.86 15.24,-18.45 2.9,-20.94 21.89,-54.95 33.14,-74.11 19.55,-33.28 39.79,-45.69 47.81,-67.89 -14.94,5.12 -15.22,9.67 -24.18,20.03 -4.73,5.46 -11.45,16.76 -17.41,19.34 -9.32,4.55 -12.34,11.02 -17.47,19.12 -5.33,-5.76 -3.93,-1.7 -6.54,-12.13 -0.42,-1.7 -0.14,-8.84 -0.14,-11 -11.42,-6.95 -11.7,-13.46 -23.84,-5.96 -9.86,6.07 -17.08,18.51 -18.22,31.24z"/>
   <path class="fil2" d="M2666.22 1007.61c2.76,-3.73 2.54,3.13 1.55,-15.78 -0.44,-8.56 -0.93,-16.63 -1.46,-25.14 -3.04,-24.57 -20.31,-102.6 -17.32,-120.77 -0.08,1.33 35.37,51.01 51.46,53.59 -5.84,-15.25 -21.2,-31 -31.9,-45.07 -13.95,-18.36 -24.09,-35.93 -39.05,-40.19 7.92,60.51 24.53,136.85 36.73,193.36zm-286.54 -313.88c-30.48,15.85 -26.85,14.57 -50.28,-15.2 -10.96,-13.92 -8.52,-19.83 -26.22,-24.24 3.95,15.63 1.49,8.32 10.51,19.55l36.92 45.21c13.06,-5.28 25.89,-13.79 38.85,-16.82 11.09,1.03 5.13,-6.69 10.01,4.51l10.2 -6.1c-4.08,9.44 -4.51,7.7 -8.84,17.04 4.84,-1.96 7.44,-2.75 13.17,-4.86l-1.29 0.96c5.92,-21.89 9.27,-8.11 3.61,-30.74 -8.49,-1.53 -16.37,-3.56 -27.19,2.27 -11.01,5.94 -5.05,3.23 -9.45,8.41zm217.68 26.84c5.96,6.22 7.65,11.93 12.46,19.31 13.66,20.98 32.53,56.48 47.51,60.46l-1.71 -44.59 10.16 13.25c8.81,16.88 21.9,35.06 24.66,46.3 6.54,26.6 4.53,60.28 17.14,78.46l3.28 -23.68c-7.41,-66.97 -7.17,-54.66 -32.8,-103.33 -8.28,-15.72 -11.72,-20.7 -28.68,-23.53l-9.57 18.18c-3.86,-3.91 -30.57,-44.59 -31.86,-50.2 -1.67,-6.96 3.47,-13.91 -27.17,-19.94 -13.27,34.09 -0.3,22.82 -4.19,44.33 -10.76,-5.24 -4.16,-2.72 -8.11,-9.32 -6.52,-10.83 -16.78,-20.75 -27.77,-26.02 -4.71,-1.29 -4.61,-0.88 -5.99,-6.57 -13.8,-6.47 -20.89,-18.96 -25.41,-19.37 -11.33,-1.01 -2.35,-4.91 -7.89,5.57 8.95,1.26 53.06,54.04 57.71,60.47 18.74,25.89 36.7,64.93 46.78,79.25 7.19,-11.52 -1.27,-30.3 -5.87,-52.27 -3.31,-15.77 -9.45,-39 -10.79,-51.6l2.31 -9.7c-1.83,4.35 -5.03,-6.28 -0.79,5.43 5.47,15.13 0.3,2.27 6.59,9.07z"/>
   <path class="fil23" d="M293.75 1033.63l7.67 -3.82c2.57,20.12 12.72,43.22 -0.01,59.71 -7.81,-2.26 -9.94,-4.05 -15.18,-7.87 -9.37,-6.84 -6.28,-3.82 -12.06,-13.65 -4.23,3.69 -1.57,-0.21 -5.69,5.87 -7.37,10.85 -6.26,22.87 -6.09,35.51 32.06,10.75 38.18,23.58 54.26,19.59l1.82 -5.76c0.19,-1.12 0.3,-26.85 -4.34,-52.69 -3.12,-17.4 -3.95,-40.72 -12.3,-50.99 -4.43,5.58 -4.75,5.06 -8.08,14.1z"/>
   <path class="fil16" d="M2488.4 948.97c-0.16,11.22 8.9,25.35 14.24,37.37 5.84,13.21 8.96,26.3 21.43,31.67 1.24,-22.73 3.54,-90.63 -4.75,-107.29 -29.94,5.14 -20.44,17.1 -30.93,38.26z"/>
   <path class="fil23" d="M2584.08 988c-4.38,11.48 0.85,1.31 -6.03,6.22l-6.26 3.54c-11.7,8.11 -2.34,5.06 -13.32,10.61 -17.96,-18.63 -9.57,-52.39 -2.75,-62.17 -4.12,-7.43 6.17,-7.22 -7.13,-5.54 -5.17,27.58 -9.03,78.6 -5.81,107.55 13.91,4.46 35.86,-11.3 54.39,-24.09 1.6,-16.63 -1.08,-26.76 -13.08,-36.14z"/>
   <path class="fil14" d="M444.88 384.67c-8.66,3.42 -11.38,10.86 -16.92,17.6l5.64 13.31c-18.78,4.02 -19.05,26.95 -16.48,30.5 5.46,7.56 10.78,8.14 22.99,0.77 34.13,-20.6 6.95,-6.85 30.89,-55.59 8.13,-16.54 3.49,5.54 5.92,-18.59l-32.03 12z"/>
   <path class="fil33" d="M1643.44 1323.84c-17.74,0 -25.32,1.45 -27.12,-10.18 -14.5,-2.13 13.34,-14.32 16.96,-31.15 10.7,0.52 17.02,3.71 23.73,7.41 -0.37,11.9 -7.59,23.06 -13.57,33.91zm-45.08 -0.01c11.34,9.63 32.47,13.42 48.68,13.04 10.49,-15.72 23.95,-37.82 29.04,-57.09 -10.12,-6.42 -33.72,-11.45 -48.33,-11.59 -11.31,16.4 -23.84,21.05 -29.4,55.64z"/>
   <path class="fil23" d="M2488.4 948.97c10.49,-21.16 0.98,-33.12 30.93,-38.26 -4.72,-25.09 -30.12,-37.19 -56.56,-28.63 -5.68,16.32 6.84,43.36 17.8,58.76l7.84 8.13z"/>
   <path class="fil34" d="M2155.41 1450.82c-25.74,-9.38 -2.83,-31.12 -3.5,-61.13l2.57 -4.77c0.08,-0.52 1.04,0.1 1.5,-0.1 1.48,-12.04 1.42,-5.92 4.42,-16.61 3.82,-13.58 1.44,-1.01 2.93,-14.69 -12.72,8.04 -27.14,44.52 -35.02,59.21 -14.87,27.75 -20.35,34.87 3.13,60.45 11.49,-8.49 16.56,-10.89 23.96,-22.36z"/>
   <path class="fil23" d="M735.01 1494.91c5.76,11.68 21.06,21.12 30.68,22.54 18.1,-31.84 14.83,-29.85 -3.19,-58.28 -9.22,-14.58 -23.57,-41.47 -35.84,-50.53 0.48,21.82 -1.35,-3.79 5.65,22.88 7.07,26.92 24.98,36.12 13.04,67.53 -6.84,-7.55 -1.2,-1.49 -10.34,-4.14z"/>
   <path class="fil15" d="M333.49 1071.67l-0.56 24.22c10.93,-0.86 10.82,-4.97 15.27,-16.24 2.85,-7.22 7,-19.16 8.26,-27.79 -1.5,-44.84 19.93,-42.23 -21.16,-64.12l-1.81 83.93z"/>
   <path class="fil14" d="M2360.15 386.68l30.07 0.9c-0.85,-37.01 -20.35,-36.51 -32.49,-52.87 -2.78,-4.43 -1.31,-7.35 -6.06,-10.78l-6.32 -1.76c-11.65,3.34 -7.76,25.39 -4.86,33.85 5.14,15.03 11.37,17.45 19.66,30.65z"/>
   <path class="fil12" d="M1977.65 480.61c1.48,9.12 3.68,3.69 -3.28,9.07 0.66,0.74 1.72,0.77 2.01,2.16l5.96 9.67c3.88,-5.91 3.58,-31.23 55.56,-45.95 12.87,-3.65 16.91,-2.43 24.5,-12.87 -4.71,-10.94 -51.99,-50.47 -54.89,-91.4 -1.4,1.11 -11.72,-3.11 -1.5,27 8.92,26.32 30.04,47.08 39.45,61.44 -9.51,6.62 -24.62,10.12 -35.88,16.36 -20.27,11.22 -20.08,18.73 -31.93,24.51z"/>
   <path class="fil33" d="M1195.5 1097.31c16.87,-4.05 6.68,-4.09 29.71,-15.83 14.96,-7.63 19.42,-6.31 34.43,-11.83l1.55 -47.79c-12.71,4.54 -10.34,7.04 -18.08,16.87 -12.64,16.04 -40.67,43.94 -47.6,58.58z"/>
   <path class="fil16" d="M2584.08 988c-0.85,-7.1 1.91,-1.34 -3.65,-11.23 -0.88,-1.56 -7.24,-9.94 -8.63,-11.87 -7.13,-9.85 -8.4,-13.94 -16.09,-18.68 -6.83,9.78 -15.21,43.54 2.75,62.17 10.98,-5.55 1.63,-2.5 13.32,-10.61l6.26 -3.54c6.88,-4.91 1.66,5.25 6.03,-6.22z"/>
   <path class="fil15" d="M293.75 1033.63c-5.05,5.18 -17.89,23.9 -19.59,34.37 5.79,9.83 2.69,6.81 12.06,13.65 5.24,3.82 7.37,5.61 15.18,7.87 12.73,-16.48 2.59,-39.59 0.01,-59.71l-7.67 3.82z"/>
   <path class="fil24" d="M1643.44 1323.84c5.98,-10.85 13.2,-22.01 13.57,-33.91 -6.72,-3.71 -13.04,-6.89 -23.73,-7.41 -3.62,16.82 -31.46,29.01 -16.96,31.15 1.81,11.63 9.38,10.18 27.12,10.18z"/>
   <path class="fil34" d="M2305.46 1317.03l17.3 -42.32c5.7,-16.66 11.3,-26.22 11.72,-45.03l-13.19 16.44c-8.55,15.35 -24.83,40.24 -28.82,53.98l12.98 16.93z"/>
   <path class="fil34" d="M577.67 1368.61l11.78 -4.32c-1.78,-16.84 -31.24,-59.42 -47.41,-68.69 4.4,21.08 14.18,40.67 23.75,58.65 7.59,14.29 1.61,6.5 11.89,14.36z"/>
   <path class="fil11" d="M2191.03 1995.39c1.52,-17.22 -7.92,-24.32 -22.28,-31.13 -7.36,-9.68 -1.19,-4.35 -14.83,-4.87l1.89 44.65c15.25,-1.46 11.39,-8.3 35.22,-8.64z"/>
   <path class="fil24" d="M1629.87 1103.54c6.21,18.6 1.18,26.92 3.38,47.6l17.17 -19.2c8.25,-8.03 20.48,-8.48 30.33,-11.45 -3.82,-9.4 -13.91,-7.51 -27.19,-12.2 -13.98,-5.01 -9.82,-4.84 -23.68,-4.75z"/>
   <path class="fil35" d="M2666.22 1007.61l-1.44 7.32 -15.27 -34.4c3.71,19.05 -6.62,42.79 5.4,62l0.36 -16.61 16.36 5.14c-0.03,-8.11 10.78,-43.85 -5.33,-64.38l2.07 35.7c-0.6,7.5 1.3,0.57 -2.15,5.23z"/>
   <path class="fil36" d="M1617.38 1055.87l13.76 9.23c13.49,7.21 1.29,3.35 17.06,5.98l-13.86 -36.6c-7.96,-14.62 -2.19,-4.64 -9.56,-10.42l-7.4 31.82z"/>
   <path class="fil4" d="M1688.36 2893.9l11.24 -2.65 25.11 -15.7c13.2,-6.14 15.84,-9.06 31.52,-10.26 0.41,14.77 -9.36,34.73 -16.41,46.06 -7.48,12.01 -0.16,5.02 -11.33,10.03 -13.61,5.17 -76.64,5.77 -88.36,-1.33 4.34,-11.65 8.17,-8.9 18.52,-14.13 9.62,-4.86 16.09,-8.64 29.71,-12.01zm61.96 -103.74c-0.57,0.88 -1.66,0.94 -2.08,2.35l-6.76 5.76 -145.46 67.37c-19.7,8.37 -59.28,21.49 -72.18,43.07l-31.3 66.66c-1.31,16.46 0.42,8.37 2.98,11.75 20.82,14.03 157.9,-1.61 196.56,5.94 2.78,20.82 -11.24,18.33 -8.81,45.59 19.18,8.89 64.36,5.12 86.91,1.67l7.7 -13.06c10.71,-45.59 21.27,-29.31 50.35,-38.15 15.21,-4.61 30.61,-41.54 30.37,-58.9l-21.87 -8.02c-11.76,-6.58 -6.62,-11.12 1.91,-15.57 3.36,-29.04 53.4,-93.9 51.38,-124.69 -25.76,-6.4 -48.34,-4.62 -77.2,-4.58 -51.24,0.1 -39.95,14.01 -62.51,12.82z"/>
   <path class="fil4" d="M1983.61 2909.89l36.23 0.38c33.65,4.9 49.08,2.93 84.59,2.75 30.84,-0.16 25.11,3.28 31.65,9.37 13.13,12.26 14.01,13.2 15.7,21.38l16.96 0c1.89,-6.72 4.38,-14.08 6.78,-20.33 16.97,0.25 24.79,-1.27 26.48,12.39l-47.68 74.07c-47.2,28.55 -112.38,18.59 -182.16,18.59 -11.48,0 -47.63,1.53 -56.31,-0.31 -8.17,-1.75 -1.34,0.15 -8.14,-3.82l-8.44 -5.13c-16.89,-9.88 5.7,8.84 -7.91,-4.97 -6.31,-6.4 -2.76,2.3 -4.46,-9.51 -12.19,-36.59 9.83,-58.04 17.37,-75.15l25.36 -48.26c4.3,-7.39 0.71,-0.03 3.75,-6.68 5.03,-10.96 2.69,-16.54 9.66,-24.62 10.61,-12.34 0.72,-0.25 10.19,-7.24 8.36,-6.17 6.46,-8.19 12.16,-21.05l25.09 10.3 -8.93 54.07c5.65,9.52 13.53,10.53 21.08,16.95 -5.84,4.9 -8.7,10.23 -19.03,6.8zm-71.03 -42.62c-12.57,51.88 -84.74,120.17 -20.33,165.65 0.92,0.64 3.36,-2.8 11.28,9.68l112.7 2.28c114.24,-0.12 129.74,11.31 181.31,-62.26 25.35,-36.17 32.1,-53.99 18.62,-87.32 -6.62,-3.76 -2.39,-1.27 -7.3,-4.84 -48.38,-35.17 -101.8,-10.92 -200.07,-17.52 3.91,-35.63 44.06,-28.71 78.62,-28.71 16.8,0 34.32,-0.47 50.99,-0.15 53.28,1 -7.04,29.49 111.21,14.13 10.56,-8.8 -3.84,-7.09 9.99,-11.15 6.36,-50.61 5.91,-69.69 -53.47,-69.84 -42.94,-0.11 -85.94,0.05 -128.89,0.08 -50.64,0.03 -71.81,-3.58 -109.48,19.37 -30.16,18.37 -43.47,50.84 -55.17,70.61z"/>
   <path class="fil4" d="M1145.27 2838.72c35.39,-7.03 84.45,-3.15 125.36,-3.43 27.48,-0.21 43.13,-1.45 52.39,16.4 7.78,15.02 12.32,44.65 -12.2,55.64 -16.22,7.26 -33.48,6.02 -50.35,5.94 -34.62,-0.19 -113.93,7.22 -120.79,-13.25 -6.58,-19.67 0.4,-49.52 5.59,-61.29zm-54.22 169.41l23.53 -0.42c18.25,-4.1 7.74,7.99 17.11,-9.73 -8.89,-6.48 -8.81,-3.91 -18.85,-6.77l22.49 -0.45 -1.18 -29.86c53.62,-16.06 48.05,-9.68 109.39,-7.17 84.96,3.49 67.89,-6.61 84.89,28.93 0.49,1.03 1.45,7.32 10.01,11.91l13.53 -71.16c12.31,-2.42 12.83,-6.99 16.88,-16.93l-23.65 -10.18c-0.23,-11.39 -1.19,-25.8 -0.45,-36.89 0.93,-14.17 7.92,-1.82 12.38,-17.82 2.33,-8.34 -2.91,-20.45 -7.25,-30.22 -1.75,-3.95 4.1,-10.11 -25.06,-13.51 -25.36,-2.95 -83.51,2.57 -98.87,0.27l-112.08 0.42c-27.25,2.89 -25.13,-0.22 -24.39,57.08l0.75 149.2c0.16,0.94 0.41,2.23 0.82,3.28z"/>
   <path class="fil4" d="M775.84 2981.06c-5.64,-0.03 -3.39,1.12 -3.39,-6.78 -11.86,-7.11 -1.66,1.18 -9.71,-12.95 -8.25,-14.49 -45.32,-76.79 -49.46,-85.79 -8.67,-18.88 -17.17,-33.29 -27.27,-50.99 -6.54,-11.76 -14.85,-18.08 -15.22,-33.29l57.64 0c3.69,4.21 7.1,8.86 11.52,12.35l7.13 5.95 24.03 43.26c3.19,5.85 2.65,5.4 5.92,11.05 1.5,2.63 6.1,10.14 6.16,10.25 6.16,12.65 1.83,16.06 10.48,28.01l14.7 18.84 19.11 34.16 7.17 9.66c0.41,-0.63 1.42,1.85 2.23,2.69l23.7 0 47.71 -85.42c4.51,-7.47 5.58,-9.14 9.56,-17.91 1.5,-3.31 8.67,-17.06 8.89,-17.4 7.45,-12.12 6.18,-5.46 7.45,-14.94 0.23,-1.72 0.74,-2.15 0.94,-3.27 10.6,0.96 -3.39,25.73 -3.39,47.45 14.65,1.93 7.28,-4.65 13.6,10.18l-4.25 -7.48c-9.42,-26.63 3.93,-37.42 24.55,-29.79l2.8 13.56c0.19,15.8 0.08,5.9 -2.8,10.15l3.42 6.8c1.68,-15.95 4.5,-10.26 5.74,-15.87 2.86,-13.01 -1,-10.67 -1.08,-15.55 -0.33,-19.04 -5.61,-8.74 6.74,-15.84 14.87,-8.54 19.08,-0.16 18.48,0.37l-2.78 -3.95c6.76,-5.5 9.62,-18.32 13.56,-27.14l-13.57 0c-0.53,0.96 -2.6,5.47 -2.93,6.03l-7.25 10.92c-10.08,-3.61 -6.46,-4.4 -11.91,-8.9 -6.98,-5.76 6.78,-4.65 -11.8,-4.65 -4.32,8.17 -6.66,9.11 -14.92,13.27 12.97,-31.65 33.01,-25 75.94,-23.44 -2.54,13.77 -9.16,14.03 -14.06,27.59 -11.68,32.34 -32.2,56.23 -48.91,86.64l-47.3 84.78c-8.3,12.67 -14.91,17.28 -15.13,31.49 -16.3,6.05 -73.75,3.38 -98.28,3.38 -4.17,-20.03 -19.64,-27.25 -23.75,-47.44zm213.79 -85.26c7.41,-31.82 59.9,-90.87 51.58,-115.5 -19.36,-3.27 -52.54,-3.83 -72.39,-2.61 -15.18,0.93 -16.62,1.52 -24.76,12.43 -3.05,4.08 -4.13,6.72 -6.52,10.22l-10.76 11.63c-1.9,15.8 -28.88,59.71 -38.42,74.94 -11.94,19.07 -28.98,57.52 -41.34,68.41 -9.3,-9.32 -58.07,-96.75 -61.77,-111.45l-5.23 -6.07c-12.68,-17.23 -20.11,-47.18 -32.23,-55.52 -16.26,-11.22 -73.13,-5.59 -96.06,-3.15 -3.86,20.33 28.44,70.54 38.93,87.13 16.47,26.04 29.68,54.8 46.53,82.34 58.02,94.89 40.87,94.74 99.66,94.45 75.63,-0.38 57.82,7.91 86.24,-37.15l66.53 -110.1z"/>
   <path class="fil4" d="M1359.75 2947.14c8.54,5.9 16.43,9.53 22.34,19.55 7.51,12.71 3.8,46.01 3.8,61.81 -24.22,0 -37.9,0.7 -57.64,-3.41 0,-10.19 0.59,-20.57 -0.68,-30.64 -2.53,-19.94 -3.24,-18 -8.44,-24.24 -17.06,-20.45 -72.71,-12.83 -112.86,-12.89 -9.88,-0.01 -21.15,-0.52 -30.84,-0.1l-21.12 3.83c-19.52,7.76 -8.36,31.56 -15.81,67.43 -75.96,0 -61.02,23.14 -61.02,-115.24 0,-38.41 0,-76.83 0,-115.24 22.56,-14.39 80.85,-6.77 115.24,-6.77 41.83,0 83.78,0.3 125.6,-0.11 23.46,-0.23 33.7,3.45 52.85,21.65l13.16 15.73c2.07,5.25 1.66,6.05 1.83,13.34 0.52,21.27 1.18,51.32 -9.71,65.79l-8.41 8c-10.61,10.93 -9.29,12.38 -8.28,31.49zm-294.37 -94.87l0.07 125.39c0,18.81 -5.95,52.06 8.88,61.2 0.03,0.01 70.05,19.97 78.21,-10.89 1.26,-4.79 1.19,-14.55 1.15,-19.75 -0.37,-45.92 -5.01,-36.62 103.41,-36.59 70.84,0.01 51.17,7.52 60.16,67.45 13.61,2.07 54.11,4.06 68.54,1.09l9.07 -2.85c5.54,-15.18 4.62,-41.19 2.85,-59.9 -2.22,-23.06 -10.03,-26.84 -21.12,-40.45 6.57,-28.72 22.01,-5.21 21.93,-71.16 -0.15,-105.58 -64.21,-87.9 -161.75,-87.93 -40.67,-0.01 -81.35,0.08 -122.01,-0.07 -65.77,-0.25 -49.31,8.96 -49.38,74.44z"/>
   <path class="fil4" d="M772.45 2974.27c-1.61,-14.76 -19.98,-48.57 -27.49,-57.26 -10.33,-11.94 -9.73,-16.66 -17.99,-31.95 -18.48,-34.17 -31.02,-43.91 -37.04,-64.49 -5.84,-20.03 -4.09,-7.99 -12.84,-23.76 6.47,0.4 47.78,1.27 48.48,1.56l12.09 13.83c24.61,29.29 7.93,11.54 26.97,37.48 9.96,13.56 2.31,12.58 12.09,28.3l17.99 33.5c24.88,33.77 8.6,16.59 19.79,34.24 10.66,16.82 19.83,44.25 45.54,29.14 6.5,-3.83 11.33,-19.81 20.37,-19.14l0.53 1.61c0.78,-23.87 -2.61,-10.97 13.53,-16.93 4.65,12.39 3.86,17.63 2.71,33.87 -7.48,4.61 -15.2,2.8 -20.09,2.9 -13.58,48.3 -16.97,28.88 -55.71,34.73l-20.9 5.54c-0.96,-1.2 -2.82,0.68 -4.25,0.88 -0.48,-10.64 -2.82,-13.47 -7.55,-22.34 -10.66,-20 4.95,-9.18 -12.82,-14.91 4.1,20.19 19.57,27.41 23.75,47.44 24.53,0 81.98,2.67 98.28,-3.38 0.22,-14.21 6.83,-18.82 15.13,-31.49l47.3 -84.78c16.72,-30.41 37.23,-54.3 48.91,-86.64 4.9,-13.56 11.52,-13.82 14.06,-27.59 -42.94,-1.56 -62.98,-8.21 -75.94,23.44 8.26,-4.16 10.6,-5.1 14.92,-13.27 18.59,0 4.83,-1.11 11.8,4.65 5.46,4.5 1.83,5.29 11.91,8.9l7.25 -10.92c0.33,-0.56 2.39,-5.07 2.93,-6.03l13.57 0c-3.94,8.82 -6.8,21.64 -13.56,27.14l2.78 3.95c0.6,-0.53 -3.61,-8.9 -18.48,-0.37 -12.35,7.1 -7.07,-3.2 -6.74,15.84 0.08,4.88 3.94,2.54 1.08,15.55 -1.24,5.61 -4.06,-0.08 -5.74,15.87l-3.42 -6.8c2.89,-4.25 3,5.65 2.8,-10.15l-2.8 -13.56c-20.63,-7.63 -33.98,3.16 -24.55,29.79l4.25 7.48c-6.32,-14.83 1.05,-8.25 -13.6,-10.18 0,-21.72 13.99,-46.49 3.39,-47.45 -0.21,1.12 -0.71,1.55 -0.94,3.27 -1.27,9.48 0,2.82 -7.45,14.94 -0.22,0.34 -7.39,14.09 -8.89,17.4 -3.98,8.77 -5.05,10.44 -9.56,17.91l-47.71 85.42 -23.7 0c-0.81,-0.85 -1.82,-3.32 -2.23,-2.69l-7.17 -9.66c-4.95,-8.26 -16.22,-30.3 -20.61,-36.11l-13.2 -16.88c-8.64,-11.95 -4.32,-15.36 -10.48,-28.01 -0.05,-0.11 -4.65,-7.62 -6.16,-10.25 -5.94,-10.25 -28.08,-52.92 -31.43,-55.92l-7.67 -5.9 -9.49 -10.81 -57.64 0c0.37,15.21 8.69,21.53 15.22,33.29 10.11,17.7 18.6,32.12 27.27,50.99 4.14,9 41.21,71.31 49.46,85.79 8.06,14.13 -2.15,5.84 9.71,12.95z"/>
   <path class="fil4" d="M1091.05 3008.13c-0.41,-1.05 -0.66,-2.34 -0.82,-3.28l-0.75 -149.2c-0.74,-57.3 -2.86,-54.19 24.39,-57.08l112.08 -0.42c15.36,2.3 73.51,-3.23 98.87,-0.27 29.16,3.41 23.31,9.56 25.06,13.51 4.34,9.77 9.57,21.87 7.25,30.22 -4.46,16 -11.45,3.65 -12.38,17.82 -0.74,11.09 0.22,25.5 0.45,36.89l23.65 10.18c-4.05,9.94 -4.57,14.51 -16.88,16.93l-13.53 71.16c-8.56,-4.6 -9.52,-10.89 -10.01,-11.91 -17,-35.54 0.07,-25.44 -84.89,-28.93 -61.33,-2.52 -55.77,-8.89 -109.39,7.17l1.18 29.86 -22.49 0.45c10.04,2.86 9.96,0.29 18.85,6.77 -9.37,17.71 1.14,5.62 -17.11,9.73l-23.53 0.42zm268.7 -60.99c-1.01,-19.11 -2.34,-20.56 8.28,-31.49l8.41 -8c10.89,-14.47 10.23,-44.52 9.71,-65.79 -0.18,-7.29 0.23,-8.08 -1.83,-13.34l-13.16 -15.73c-19.15,-18.21 -29.4,-21.89 -52.85,-21.65 -41.82,0.41 -83.77,0.11 -125.6,0.11 -34.39,0 -92.69,-7.62 -115.24,6.77 0,38.41 0,76.83 0,115.24 0,138.39 -14.94,115.24 61.02,115.24 7.45,-35.88 -3.71,-59.68 15.81,-67.43l21.12 -3.83c9.7,-0.42 20.97,0.08 30.84,0.1 40.15,0.05 95.8,-7.56 112.86,12.89 5.2,6.24 5.91,4.3 8.44,24.24 1.27,10.07 0.68,20.45 0.68,30.64 19.74,4.1 33.42,3.41 57.64,3.41 0,-17.71 4.17,-49.87 -4.88,-63.66 -5.42,-8.26 -14.17,-12.8 -21.26,-17.7z"/>
   <path class="fil4" d="M772.45 2974.27c0,7.91 -2.24,6.76 3.39,6.78 17.77,5.73 2.16,-5.09 12.82,14.91 4.73,8.86 7.07,11.7 7.55,22.34 1.44,-0.19 3.3,-2.08 4.25,-0.88l20.9 -5.54c38.74,-5.85 42.13,13.57 55.71,-34.73 4.9,-0.1 12.61,1.71 20.09,-2.9 1.15,-16.24 1.94,-21.48 -2.71,-33.87 -16.14,5.96 -12.75,-6.93 -13.53,16.93l-0.53 -1.61c-9.04,-0.67 -13.87,15.31 -20.37,19.14 -25.7,15.11 -34.88,-12.31 -45.54,-29.14 -11.19,-17.65 5.09,-0.47 -19.79,-34.24l-17.99 -33.5c-9.78,-15.72 -2.13,-14.75 -12.09,-28.3 -18.53,-25.24 -2.53,-8.17 -28.63,-39.54l-10.44 -11.76c-0.7,-0.29 -42.01,-1.16 -48.48,-1.56 8.75,15.77 7,3.73 12.84,23.76 6.02,20.59 18.56,30.33 37.04,64.49 8.26,15.29 7.66,20.01 17.99,31.95 7.51,8.69 25.88,42.5 27.49,57.26z"/>
   <path class="fil4" d="M1886.92 3004.76c11.02,-0.15 8.36,12.11 41.13,12.71 20.29,0.37 30.76,-2.19 51.96,1.05l77.3 -1.16c17.29,-1.24 12.78,2.56 19.82,-9.53l-1.66 -5.53c-11.3,-14.95 -16.2,-3.21 -55.81,-3.99 -28.1,-0.56 -42.24,3.13 -71.22,-0.31 5.55,-6.63 -7.09,-27.45 -6.76,-33.9 3.97,-13.32 4.53,-8.03 6.48,-16.96 1.67,-7.59 -3.62,-4.75 5.54,-15.17 9.81,-11.16 19.66,-9.74 29.9,-22.08 10.33,3.43 13.19,-1.9 19.03,-6.8 -7.55,-6.42 -15.43,-7.43 -21.08,-16.95l8.93 -54.07 -25.09 -10.3c-5.7,12.86 -3.8,14.88 -12.16,21.05 -9.47,6.99 0.42,-5.1 -10.19,7.24 -6.96,8.08 -4.62,13.66 -9.66,24.62 -3.04,6.65 0.55,-0.71 -3.75,6.68l-25.36 48.26c-7.54,17.11 -29.56,38.56 -17.37,75.15z"/>
   <path class="fil4" d="M2141.62 2997.99c-18.89,-0.45 -2.87,-2.34 -15.65,-4.23l-4.71 0.81c19.04,-12.75 12.71,-33.85 25.47,-30.27 14.57,4.1 -2.9,29.41 -5.12,33.69zm-189.02 -27.52c-7.4,-37.51 9.88,-40.82 39.61,-46.15 8.88,-1.59 18.36,-1 27.43,-0.93l91.86 0.03 22.83 6.95 1.09 14.62c-0.31,13.65 -2.54,25.07 -12.9,33.59 -16.41,13.53 -85.65,9.16 -113.08,9.22 -11.3,0.03 -34.28,2.23 -44.04,-1.86 -8.66,-3.64 -5.06,-2.15 -10.16,-8.29l-2.64 -7.18zm-65.68 34.29c1.7,11.8 -1.85,3.11 4.46,9.51 13.61,13.8 -8.99,-4.91 7.91,4.97l8.44 5.13c6.8,3.97 -0.03,2.07 8.14,3.82 8.69,1.85 44.84,0.31 56.31,0.31 69.77,0 134.95,9.96 182.16,-18.59l47.68 -74.07c-1.7,-13.66 -9.51,-12.15 -26.48,-12.39 -2.41,6.25 -4.9,13.61 -6.78,20.33l-16.96 0c-1.7,-8.18 -2.57,-9.12 -15.7,-21.38 -6.54,-6.09 -0.81,-9.53 -31.65,-9.37 -35.51,0.18 -50.94,2.15 -84.59,-2.75l-36.23 -0.38c-10.25,12.34 -20.09,10.92 -29.9,22.08 -9.16,10.42 -3.87,7.58 -5.54,15.17 -1.96,8.93 -2.52,3.64 -6.48,16.96 -0.33,6.44 12.31,27.26 6.76,33.9 28.98,3.45 43.13,-0.25 71.22,0.31 39.61,0.78 44.51,-10.96 55.81,3.99l1.66 5.53c-7.04,12.09 -2.53,8.29 -19.82,9.53l-77.3 1.16c-21.2,-3.24 -31.68,-0.68 -51.96,-1.05 -32.77,-0.6 -30.11,-12.86 -41.13,-12.71z"/>
   <path class="fil4" d="M1445.84 3120.93l18.34 0.44c5.88,-31.97 6.5,-394.91 0.31,-422.5 -15.84,-0.71 -21.61,-8.13 -21.64,34.62 0,18.12 0.01,36.25 0,54.37 -0.04,62.7 -4.54,305.25 2.98,333.07z"/>
   <path class="fil4" d="M1216.43 2900.66c-20.45,0 -45.26,1.9 -61.4,-3.99 -5.27,-16.35 -10.04,-47.26 14.28,-49.79 14.73,-1.55 122.67,-0.48 130.86,3.15 10.85,4.81 21.04,20.08 11.98,36.86 -11.86,21.97 -66.52,13.65 -95.72,13.77zm-71.16 -61.94c-5.2,11.78 -12.17,41.62 -5.59,61.29 6.87,20.48 86.17,13.06 120.79,13.25 16.87,0.08 34.13,1.33 50.35,-5.94 24.53,-11 19.98,-40.63 12.2,-55.64 -9.26,-17.85 -24.91,-16.61 -52.39,-16.4 -40.91,0.29 -89.98,-3.6 -125.36,3.43z"/>
   <path class="fil4" d="M1967.62 2971.87c-7.99,-26.56 15.61,-36.67 38.44,-36.67 27.44,-0.01 98.21,-6.13 116.23,7.07 0.62,32.17 -30.2,31.58 -61.99,31.5 -26.39,-0.08 -68.24,2.49 -92.67,-1.9zm-12.38 5.79c5.1,6.14 1.5,4.65 10.16,8.29 9.77,4.09 32.75,1.89 44.04,1.86 27.43,-0.05 96.67,4.31 113.08,-9.22 13.76,-11.34 13.49,-28.7 12.2,-45.3 -0.08,-0.72 -0.21,-1.96 -0.4,-2.91 -32.27,-9.82 -18.47,-7.02 -53.72,-6.93 -20.31,0.05 -40.68,0.12 -60.98,-0.04 -9.07,-0.07 -18.55,-0.66 -27.43,0.93 -29.74,5.33 -47.01,8.64 -39.61,46.15l2.64 7.18z"/>
   <path class="fil4" d="M2141.62 2997.99c2.22,-4.28 19.68,-29.59 5.12,-33.69 -12.76,-3.58 -6.43,17.52 -25.47,30.27l4.71 -0.81c12.78,1.89 -3.24,3.78 15.65,4.23z"/>
   <path class="fil37" d="M935.54 629.06c-0.04,-12.09 -3.38,-9.63 7.65,-9.63l2.82 7.52c-4.43,-11.33 -7.03,-12.8 -6.07,-27.27l25.61 -0.96c-9.59,-7.04 -12.24,-4.17 -18.33,-11.48 -8.64,2.45 -15.53,2.07 -18.53,15.35 -2.91,12.93 1.46,18.53 6.87,26.47z"/>
  </g>
 </g>
</svg>
