<?xml version="1.0" encoding="UTF-8"?>
<!DOCTYPE svg PUBLIC "-//W3C//DTD SVG 1.1//EN" "http://www.w3.org/Graphics/SVG/1.1/DTD/svg11.dtd">
<!-- Creator: CorelDRAW -->
<svg xmlns="http://www.w3.org/2000/svg" xml:space="preserve" width="34.0381mm" height="21.4166mm" version="1.1" style="shape-rendering:geometricPrecision; text-rendering:geometricPrecision; image-rendering:optimizeQuality; fill-rule:evenodd; clip-rule:evenodd"
viewBox="0 0 6407.72 4031.7"
 xmlns:xlink="http://www.w3.org/1999/xlink"
 xmlns:xodm="http://www.corel.com/coreldraw/odm/2003">
 <defs>
  <style type="text/css">
   <![CDATA[
    .fil1 {fill:black}
    .fil2 {fill:red}
    .fil0 {fill:white}
   ]]>
  </style>
 </defs>
 <g id="Camada_x0020_1">
  <metadata id="CorelCorpID_0Corel-Layer"/>
  <path class="fil0" d="M5874.76 766.88c-215.53,-279.35 -171.33,-156.4 -296.93,-248.7 -82.02,-60.28 -46.05,-257.25 -283.34,-441.62 -62.22,-48.34 -158.09,-76.56 -243.3,-76.56 -186.07,0 -316.79,28.97 -438.76,179.1 -47.25,58.15 -144.41,215.17 -159.75,301.03 -23.64,0 -100.47,-74.38 -189.29,-101.56 -348.34,-106.64 -505.61,176.82 -543.73,178.01 -13.23,0.41 -87.05,-62.18 -241.39,-72.8 -7.53,-0.53 -140.57,-100.21 -313.29,-48.89 -209.82,62.35 -24.49,115.55 -255.78,-36.41 -118.77,-78.03 -215.98,-55.55 -284.65,-63.38 -87.44,-9.98 -112.67,-44.5 -270.05,26.43 -53.67,24.19 -113.16,-77.13 -301.67,-104.2 -91.15,-13.08 -436.12,-12.05 -517.31,17.92 -43.94,16.23 -239.83,47.08 -364.42,110.5 -296.61,150.98 -361.59,168.33 -595.33,440.08 -175.92,204.52 -286.54,466.19 -377.56,716.24 -90.04,247.4 -149.36,623.11 -168.16,886.38l-29.86 335.54 2.43 469.84c10.47,214.79 56.7,421.95 182.75,595.29 139.44,191.77 373.6,242.3 572.17,62.74 156.14,-141.19 233.41,-437.74 230.97,-630.49 -0.68,-52.8 0.43,-41.68 39.5,-44.67 196.46,-15.06 322.02,-190.06 337.85,-198.25 9.3,-4.76 54.31,5.76 66.04,7.62 130.4,21.01 67.98,-78.29 97.66,289.94 22.42,278.1 98.06,574.56 370.4,695.53 86.26,38.31 199.43,17.58 286.86,-25.56 100.53,-49.6 0.38,-63.99 188.72,18.49 80.29,35.17 236.27,2.94 305.55,-59.39 39.23,-35.3 174.17,113.44 369.07,7.19 44.8,-24.42 37.16,-30.76 68.49,-14.61 173.17,89.33 266.24,-21.1 329.67,9.94 111.54,54.61 351.79,38.35 455.7,-16.13 40.53,-21.25 145.37,-10 186.75,6.08 91.72,35.64 172.95,61.26 278.12,40.27 45.14,-8.96 88.06,-6.08 132.1,-20.91 32.53,-10.96 57.19,-26.11 92.04,-10.84 100.34,44.18 179.72,-24.11 226.24,1.66 143.94,79.78 245.25,37.93 365.17,-23.12 33.3,-17.04 157.64,1.43 206.1,-10.84 130.74,-33.6 47.8,20.86 228.33,66.15 119.8,30.04 187.69,-7.25 277.37,-55.89 22.08,-11.97 242.81,1.92 389.53,-273.15 73.47,-137.76 98.62,-290.11 109.96,-444.39 16.42,-223.55 17.96,-430.61 -8.06,-658.13 -15.29,-133.66 -71.48,-328.05 -139.06,-435.54 -83.98,-133.56 -40.74,-77.13 -90.08,-308.11 -48.25,-225.9 -158.39,-820.49 -270.52,-1007.3 -6.08,-10.18 -13.61,-13.5 -14.5,-30.2l1.24 -0.34z"/>
  <path class="fil1" d="M4441 576.82c94.2,0 95.56,-331.19 365.62,-450.35 112.91,-49.81 289.25,-54.31 402.58,-5.97 45.54,19.43 130.65,69.11 138.84,121.35 61.39,1.98 160.05,358.51 163.85,367.39 16.19,37.89 188.27,-24.08 330.46,243.62 129.18,243.16 180.55,643.25 247.32,913.6l55.97 300.24c6.81,50.7 104.5,113.74 171.25,415.3 48.74,220.12 52.99,826.63 -44.69,1046.85 -153.97,347.12 -356.34,279.18 -406.02,321.38 -80.29,68.18 -260.07,70.16 -379.59,-28.56 -50.77,-41.92 -103.35,36.84 -215.17,5.85 -65.96,-18.28 -154.31,44.35 -209.32,62.29 -149.81,48.83 -232.21,-51.2 -272.25,-35.86l-135.64 19.03c-36.5,0 -84.04,-40.96 -157.43,-3.01 -49.6,25.64 -247.44,32.79 -342.73,4.99l-66.15 -32.87 -203.01 8.19c-84.9,49.04 -336.39,58.77 -413.64,15.38 -59.92,-33.66 -93.17,0.43 -125.22,8.08 -147.08,35.11 -191.87,-16.58 -231.76,-32.53 -58.02,-23.19 -128.26,129.03 -366.19,20.37 -83.75,-38.25 -21.46,-14.8 -177.54,49.25 -94.28,38.69 -187.87,20.8 -272.49,-32.08 -97.51,-60.94 -43.96,0.88 -180.1,49 -240.83,85.13 -435.33,-145.82 -488,-373.58 -56.7,-245.22 -34.05,-303.71 -51.22,-497.36 -17.92,-202.01 16.6,-88.12 -159.07,-122.36 -141.3,-27.54 -19.82,19.65 -277.24,161.73 -142.34,78.56 -223.21,-30.46 -216.06,96.16 14.78,261.86 -49.08,507.98 -262.33,674.28 -96.14,74.96 -287.06,53.73 -354.67,-17.79 -95.1,-100.62 -163.52,-155.4 -205.98,-339.4 -62.39,-270.29 -49.92,-484.03 -42.58,-762.19l66.49 -650.75c97.7,-497.68 228.82,-951.06 594.1,-1323.56 181.64,-185.24 427.65,-303.63 672.06,-374.02 252.31,-72.67 705.4,-124.23 911.02,54.31 57.53,49.96 30.27,-48.46 255.12,-48.46 7.53,0 8.96,3.88 16.26,6.97 64.29,27.43 247.29,-40.59 436.42,172.27 52,58.51 121.12,-164.27 419.39,-33.85l17.26 12.27c61.16,17.13 172.98,33.45 229.44,65.94 19.26,11.07 32.3,25.23 57.3,25.23 166.9,-172.36 284.39,-264.57 551.14,-178.35l153.88 102.35 0.32 -0.77zm-2591.37 611.55c46.97,0 53.26,-69.3 32.98,-93.92 -60.6,-73.63 -94.14,94.03 -32.96,94.03l-0.02 -0.11zm-693.65 183.09c0,31.06 8.43,69.03 37.16,69.03 43.37,0 59.41,-98.02 5.2,-111.73 -16.81,-4.2 -42.38,13.27 -42.38,42.7l0.02 0zm3672.44 -380c92.85,0 113.03,-34.51 182.42,-129.1 148.66,-202.67 85.86,-168.05 -15.25,-168.05 -37.5,0 -55.42,-11.62 -79.54,23.23 -11.28,16.34 -149.6,273.81 -87.52,273.81l-0.11 0.11zm-937.25 2183.49c0,92.9 97.14,62.05 160.09,62.16 70.86,0.21 111.28,-2.92 110.41,-54.74 -1.43,-84.96 -94.56,-66.04 -170.82,-66.04 -40.36,0 85.64,-570.97 -8.87,-562.65 -48.61,4.27 -41.38,78.97 -44.35,148.25l-46.46 473.02zm663.55 -483.67c0,122.5 94.58,22.06 108.98,86.73 6.55,29.37 -39.33,439.34 -13.05,475.11 17.04,23.23 58.64,25.66 65.83,-44.56l27.9 -469.72c21.72,-57.15 142.17,26.62 142.17,-85.64 0,-97.68 -158.49,-43.84 -212.95,-26.88 -20.24,6.31 -118.71,-0.47 -118.71,65.06l-0.17 -0.09zm-972.09 -62.16c0,90.51 35.01,41.21 30.87,107.98 -6.85,110.56 10.82,231.47 -7.19,400.49 -3.88,36.39 -5.2,37.61 -26.54,43.37 -35.07,9.41 -28.88,79.97 -11.84,95.56 39.14,35.71 217.03,14.51 232.66,-32.74 43.82,-132.57 -104.07,-72.01 -104.1,-72.01l5.53 -479.16c26.19,-22.04 173,-15 122.34,-122.48 -18.99,-40.32 -121.93,8.94 -155.55,-17.15 -19.48,-15.12 -10.32,-30.4 -58.98,22.8 -9.62,10.3 -26.88,31.53 -26.88,53.22l-0.32 0.11zm665.88 10.39c0,62.07 27.88,35.3 27.88,79.42 0,56.36 9.09,423.96 -12.27,451.6 -14.93,19.35 -41.04,-5.31 -41.04,63.16 0,111.26 203.9,43.66 224.36,30.21 26.81,-17.6 29.93,-55.74 21.25,-85.05 -11.5,-38.5 -87.73,-10.73 -108.75,-10.73 -6.85,-44.14 -0.66,-330.46 -0.11,-411.33 0.83,-115.79 62.22,-55.85 125.34,-106.87 15.91,-12.86 33.73,-103.86 -40.04,-94.26 -168.6,21.93 -103.58,-58.58 -168.05,19.26l-28.56 64.59zm-1698.16 272.93c-19.69,0 -20.69,2.22 -37.18,-3.43 -12.35,-79.12 22.97,-309.18 -15.15,-354.01 -52.24,-61.41 -59.07,40.25 -62.07,73.12 -10.3,112.29 -6.19,479.25 -6.19,605.68 0,113.46 67.66,108.56 74.45,52.11 25.96,-215.81 -57.15,-245.42 87.95,-255.97 133.64,-9.71 102.8,-56.83 109.07,114.06 5.08,138.36 62.93,105.12 72.78,53.11 14.89,-78.65 -6.12,-167.96 19.47,-209.52 29.08,-47.27 4.37,-60.37 -5.76,-100.24 -14.98,-58.98 21.23,-282.49 -4.65,-328.25 -23.23,-41.15 -47.57,-30.65 -60.96,4.42l-22.23 312.31c-4.59,33.73 -149.4,36.69 -149.53,36.61zm408.34 -34.53c0,-21.27 42.54,-214.29 92.83,-214.29 7.91,50.13 32.32,174.47 9.3,214.19l-102.11 13.84 -0.02 -13.74zm-13.93 -252.24c-11.99,0 -36.9,-47.06 -63.06,-14.61 -29.12,36.13 -20.14,534.29 -20.35,598.49 -0.38,115.87 54.89,93.22 71.25,64.7 20.56,-35.81 -15.3,-237.78 36.39,-256.76 122.4,-44.95 96.57,-35.3 96.57,102.33 0,51.77 -8.3,94.37 20.46,107.74 66,30.63 58.83,-122.44 60.86,-197.57 1.09,-40.32 42.83,-633.96 -152.24,-468.52l-49.89 64.19zm2811.74 248.7c0,-39.38 52.2,-201.58 88.29,-214.17l18.47 214.17c-16.04,5.53 -42.38,5.97 -58.75,9.3 -36.39,7.3 -48,22.8 -48,-9.3zm-13.93 -248.7c-19.77,0 -76.75,-96.48 -76.56,86.28l0 552.91c12.16,46.46 50.56,32.19 61.18,14.82 41.34,-67.75 -22.87,-241.75 40.72,-260.75 112.57,-33.64 101.6,-62.44 92.92,124.89 -4.86,104.67 73.29,139.85 80.97,-10.84 6.76,-132.59 23.53,-440.34 -32.12,-555.91 -61.75,-128.24 -158.96,46.8 -167.11,48.61zm-357.34 431.91c-22.85,0 45.99,-703.95 131.87,-296.83 24.91,118.07 19.3,219.43 -79.33,275.04 -18.03,10.18 -17.81,21.69 -52.65,21.69l0.11 0.11zm-104.44 -255.66c0,61.5 -2.54,312.85 4.31,363.19 17.81,130.51 81.81,18.32 128.56,7.42l89.49 -46.35c109.86,-100.11 97.91,-184.09 97.91,-348.38 0,-86.43 -37.67,-266.06 -146.14,-266.06 -72.8,0 -70.8,101.22 -98.02,63.18 -38.46,-53.71 -73.89,-7.21 -73.57,74.89 0.23,52.33 -2.32,97.14 -2.32,152.11l-0.23 0zm-241.28 82.96c0,-32.49 93.52,-371.16 108.77,-141.15 10.84,163.52 21.18,128.56 -108.73,151.56l-0.04 -10.41zm-11.62 -255.66c-100.58,-78.48 -71.8,40.29 -81.53,168.82 -4.65,61.29 -2,355.68 -2,432.32 0,77.99 72.02,98.34 78.54,2.99 16.62,-242.67 -26.64,-191.83 79.74,-230.21 75.9,-27.39 35.81,9.92 45.8,185.97 6.85,59.83 52.88,39.36 60.84,31.65 24.55,-23.95 93.49,-982.41 -175.45,-599.84 -2.43,3.43 -4.09,5.85 -5.97,8.41l0.02 -0.11zm-1730.69 359.33c0,-24.25 122.91,-43.79 122.91,93.26 0,29.2 -55.1,45.26 -73.57,49.34 -55.04,12.03 -49.34,35.24 -49.34,-142.6zm2.32 -155.44c0,-32.36 18.32,-144.54 46.46,-155.46 37.14,36.88 -35.47,146.85 -37.05,155.55l-9.41 -0.09zm-11.62 -245.25c-108.04,0 -86.88,-49.27 -83.62,293.82l9.28 252.13c7.1,208.79 82.08,127.24 157.74,110.5 183.7,-40.62 143.75,-255.97 71.25,-347.91 -68.32,-86.63 -10.96,6.19 -10.96,-222.14 0,-83.88 -30.82,-117.37 -92.83,-117.37 -14.16,0 -47.46,31.08 -51,31.08l0.13 -0.11zm403.69 -549.39c0,109.64 34.51,212.14 135.52,271.82 62.09,36.67 364.1,8.02 413.85,-58.19 42.47,-56.51 47.27,-206.23 -100.23,-159.52 -15.27,4.88 -24.23,11.5 -37.5,16.6 -67.9,16.74 -156.47,20.58 -228.67,-1 -136.76,-40.89 103.29,-627.18 143.17,-713.34 171.03,-369.61 179.12,63.5 272.36,63.5 47.72,0 89.08,-72.04 52.11,-184.64 -25.43,-77.45 -74.98,-178.91 -149.79,-215.72 -53.76,-26.54 -18.69,-21.12 -87.84,-21.12 -187.14,0 -412.87,805.6 -412.87,1002.12l-0.11 -0.51zm-614.73 200.36c0,147.76 158.92,105.59 299.23,103.44 241.11,-3.71 143.47,-202.56 118.71,-211.07l-236.31 15.15c-73.46,14.48 -24.06,-23.21 -19.13,-215.06 2.24,-87.16 90.34,-16.21 173.36,-31.87 8.83,-1.68 215.92,33.26 145.8,-146.25 -27.54,-70.26 -54.65,-39.04 -111.41,-51.77 -23.68,-5.31 -68.03,-1.34 -94.26,-1.34 -41.81,-0.11 -68.26,-17.38 -85.73,-17.38 -9.26,-59.32 -11.03,-284.84 9.19,-349.04 41.89,-14.51 258.3,103.71 302.9,-22.33 53.41,-150.92 -170.54,-151.98 -183.07,-155.87 -142.43,-44.35 -115.1,-88.57 -184.28,-4.42 -69.26,84.22 -67.88,23.46 -76.9,237.86 -11.39,270.69 -12.78,414.27 -47.89,685.35l-10.2 164.59zm1380.3 -24.13c0,158.75 81.74,131.32 227.33,131.32 132.08,0 283.58,-13.72 214.38,-181.21 -18.83,-45.58 -34.66,-41.68 -114.97,-26.54 -21.03,3.99 -109.86,2.54 -140.94,7.74 -64.38,10.73 -40.49,-3.65 -26.77,-143.6 17.51,-178.05 -30.97,-95.84 251.45,-102.33 115.85,-2.65 92.71,-155.85 46.82,-187.29 -29.59,-20.27 -269.5,5.74 -269.5,-47.8 0,-69.26 -2.32,-215.06 2.99,-278.89 3.88,-47.23 7.96,-71.8 49.34,-47.8 0.13,0.08 267.83,92.37 267.83,-49.91 0,-159.75 -157.38,-101.17 -252.37,-156.32 -100.21,-58.17 -81.17,-15 -133.19,31.31 -51.2,45.59 -58.94,73.63 -64.16,187.63l-58.17 863.34 -0.08 0.36zm-1839.63 -625.39c-12.52,0 20.22,-381 70.48,-364.53 50.77,16.64 72.63,185.03 -31.87,325.03l-38.61 39.5zm-143.82 58.75l2.32 325.26c0,94.37 -12.95,189.74 44.37,220.16 123.06,65.19 73.38,-304.82 90.15,-327.78 14.97,-20.48 83.73,30.27 97.59,41.26 110.26,87.57 135.67,290.28 201.79,290.28 87.41,0 69.05,-147.46 41.72,-203.9l-156.64 -257.23c-53.03,-51.83 -25.24,-45.59 12.84,-133.43 67.02,-154.59 60.62,-148.7 60.5,-324.7 -0.08,-105.08 -118.82,-329.99 -242.26,-250.04 -91.41,59.21 -80.06,-114.1 -163.61,42.92 -18.64,35.01 16.94,443.05 14.06,521.49 -0.66,18.58 -2.43,31.53 -2.43,55.42l-0.4 0.26zm2885.97 252.24c-25.38,-25.06 -93.2,-516.41 -118.67,-610.93 -28.8,-106.91 -94.95,-102.39 -114.95,-34.07l-49.45 838.49c-1.77,49 -6.53,150.34 5.53,192.28 8.28,28.93 67.62,70.05 100.79,-6.31 33.77,-77.77 23.17,-262.52 46.8,-265.42l62.07 190.83c111.24,186.67 174.41,-41.02 188.53,-132.1l37.07 -311.09c49.59,54.22 68.64,597.94 207.43,450.58 48.19,-51.17 9.32,-135.26 -4.2,-228.12l-154.44 -682.15c-74.57,-225.47 -146.4,-50.26 -152.22,8.28l-43.37 491.86 -10.92 97.85zm-4832.39 1354.3c0,-216.71 -18.62,-434.22 7.85,-661.76 31.02,-266.66 56.17,-520.8 163.2,-772.73 86.88,-204.54 177.09,-386.78 343.39,-538.89 109.56,-100.21 258.36,-167.43 399.6,-209.75 137.61,-41.25 313.17,-97.06 459.11,-72.91 253.69,41.98 305.72,85.03 86.73,260.52 -39.74,31.83 -380.14,234.11 -478.25,262.2l-419.71 114.14c-26.51,17.64 -57.92,104.29 83.51,62.16 46.78,-13.93 266.96,-53.14 345.7,-93.05l252.56 -100.56 168.82 -83.73c39.82,88.2 32.27,530.21 32.42,615 0.11,56.98 -11.62,106.42 -11.62,162.4 -71.08,24.57 -138.61,-63.06 -148.46,-152.13 -10.54,-95.46 -13.63,-209.54 -90.49,-183 -10.2,62.01 24.42,80.27 18.49,121.05 -2.05,-0.81 -112.69,-211.43 -243.71,-31.31 -37.01,50.88 -74.1,-129.4 -191.92,-71.57l-46.46 51.67c-59.41,70.26 -33.3,22.8 -45.03,-13.5 -11.28,-34.96 -58.41,-39.04 -67.6,15.49 -27.13,160.82 81.12,134.51 -9.73,327.14 -143.65,304.65 -159.64,180.46 -226.67,75.45l-131.66 -294.48c-11.07,-31.31 -24.23,-109.75 -55.1,-103.11 -66.7,14.53 80.57,330.08 94.69,358.54l85.84 152.01c86.63,139.38 154.89,77.97 224.58,-41.92 148.44,-255.38 52.5,-289.93 239.96,-128.31 115.76,99.79 131.46,82.59 255.42,-38.95 54.88,-53.88 56.87,-53.33 126.67,-53.33 46.93,0 211.8,89.21 211.2,169.16l31.31 927.38c2.77,22.46 6.31,60.73 26.54,60.73 42.54,0 11.8,-391.04 7.85,-436.65l-12.5 -565.21c0.02,-40.74 172.06,73.78 218.05,-58.87 34.85,-100.47 -63.67,-214.93 -130.31,-282.53 -78.54,-79.69 -119.18,5.2 0.34,120.46 31.68,30.55 65.04,79.03 65.04,127.67 0,21.63 -153.12,44.78 -153.12,-76 0,-194.63 20.67,-473.23 -6.19,-647.28 -31.63,-204.87 -9.26,-120.74 67.47,-215.06 66.19,-81.34 158.45,-209.39 65.72,-308 -94.18,-100.13 -396.08,-83.06 -539.21,-48.12l-165.72 40.04 -153.78 57.64c-235.26,113.46 -320.35,175.6 -469.29,378.78 -178.33,243.28 -269.54,604.31 -310.61,901.61 -22.12,160.01 -79.82,837.3 -19.24,966.58 18.69,39.93 44.14,-8.08 44.14,-45.03l0.19 -0.11zm5347.37 -2487.48c-215.64,-279.5 -171.25,-156.34 -296.93,-248.7 -82.02,-60.28 -46.05,-257.25 -283.34,-441.62 -62.25,-48.36 -158.15,-76.56 -243.39,-76.56 -186.07,0 -316.79,28.97 -438.76,179.1 -47.25,58.15 -144.41,215.17 -159.75,301.03 -23.68,0 -100.73,-74.42 -189.4,-101.56 -348.34,-106.64 -505.72,176.71 -543.73,177.9 -13.23,0.41 -87.05,-62.18 -241.39,-72.8 -7.51,-0.51 -140.34,-100.39 -313.29,-49 -209.82,62.35 -24.49,115.55 -255.78,-36.41 -118.77,-78.03 -215.98,-55.55 -284.65,-63.38 -87.44,-9.98 -112.67,-44.5 -270.05,26.43 -53.67,24.19 -113.16,-77.13 -301.67,-104.2 -91.15,-13.08 -436.12,-12.05 -517.31,17.92 -43.94,16.23 -239.83,47.08 -364.42,110.5 -296.59,150.96 -361.42,168.28 -595.21,440.08 -175.92,204.52 -286.54,466.19 -377.56,716.24 -90.06,247.44 -149.36,623.07 -168.16,886.38l-29.86 335.54 2.43 469.84c10.47,214.79 56.7,421.95 182.75,595.29 139.44,191.77 373.6,242.3 572.17,62.74 156.14,-141.19 233.41,-437.74 230.97,-630.49 -0.68,-52.8 0.43,-41.68 39.5,-44.67 196.46,-15.06 322.02,-190.06 337.85,-198.25 9.3,-4.76 54.31,5.76 66.04,7.62 130.4,21.01 67.98,-78.29 97.66,289.94 22.42,278.12 98.04,574.56 370.4,695.53 86.26,38.31 199.43,17.58 286.86,-25.56 100.53,-49.6 0.38,-63.99 188.72,18.49 80.25,35.15 236.35,2.97 305.66,-59.39 39.23,-35.3 174.17,113.44 369.07,7.19 44.8,-24.42 37.16,-30.76 68.49,-14.61 173.17,89.33 266.24,-21.1 329.67,9.94 111.54,54.61 351.79,38.35 455.7,-16.13 40.53,-21.25 145.37,-10 186.75,6.08 91.53,35.56 173.23,61.33 278.12,40.27 45.14,-9.07 88.06,-6.08 132.1,-20.91 32.53,-10.96 57.19,-26.22 92.04,-10.84 99.96,44.16 179.78,-24.1 226.24,1.66 143.92,79.76 245.25,37.93 365.17,-23.12 33.3,-17.04 157.64,1.43 206.1,-10.84 130.74,-33.6 47.8,20.86 228.33,66.15 119.8,30.06 187.69,-7.25 277.37,-55.89 22.16,-12.01 242.83,1.88 389.53,-273.15 73.47,-137.76 98.62,-290.11 109.96,-444.39 16.42,-223.55 17.96,-430.61 -8.06,-658.13 -15.29,-133.68 -71.48,-328.05 -139.06,-435.54 -83.98,-133.56 -40.74,-77.13 -90.08,-308.11 -48.32,-226.22 -158.13,-820.25 -270.4,-1007.3 -6.08,-10.18 -13.61,-13.5 -14.5,-30.2l1.11 -0.11z"/>
  <path class="fil2" d="M1466.52 2017.32c17.7,-17.49 35.41,-34.96 50.77,-48.46 15.38,-13.5 28.31,-23.12 39.27,-28.65 10.96,-5.53 19.92,-6.97 32.53,-8.73 12.5,-1.88 28.65,-4.09 45.14,11.07 16.49,15.04 33.41,47.46 40.15,75.23 6.74,27.65 3.31,50.77 -22.12,90.83 -25.45,40.04 -73.02,97.14 -107.42,132.53 -34.41,35.41 -55.87,49.11 -81.53,41.81 -25.77,-7.3 -55.99,-35.73 -83.53,-62.39 -27.54,-26.54 -52.45,-51.34 -69.8,-72.34 -17.38,-21.03 -27,-38.38 -34.07,-56.08 -7.08,-17.58 -11.62,-35.5 -13.27,-52.99 -1.66,-17.49 -0.55,-34.53 1.11,-47.57 1.77,-12.95 4.09,-21.91 8.62,-31.42 4.54,-9.51 11.28,-19.8 19.92,-26.77 8.62,-6.97 19.15,-10.84 32.64,-11.62 13.5,-0.77 30.08,1.34 43.49,7.42 13.38,5.97 23.68,15.93 39.5,31.31 15.81,15.38 37.27,36.29 58.75,57.19l-0.15 -0.36z"/>
 </g>
</svg>
