<?xml version="1.0" encoding="UTF-8"?>
<!DOCTYPE svg PUBLIC "-//W3C//DTD SVG 1.1//EN" "http://www.w3.org/Graphics/SVG/1.1/DTD/svg11.dtd">
<!-- Creator: CorelDRAW -->
<svg xmlns="http://www.w3.org/2000/svg" xml:space="preserve" width="14.683mm" height="14.683mm" version="1.1" style="shape-rendering:geometricPrecision; text-rendering:geometricPrecision; image-rendering:optimizeQuality; fill-rule:evenodd; clip-rule:evenodd"
viewBox="0 0 42.63 42.63"
 xmlns:xlink="http://www.w3.org/1999/xlink"
 xmlns:xodm="http://www.corel.com/coreldraw/odm/2003">
 <defs>
  <style type="text/css">
   <![CDATA[
    .fil3 {fill:#009933}
    .fil0 {fill:#020205}
    .fil1 {fill:#FCFCFC}
    .fil4 {fill:red}
    .fil2 {fill:#FFFF01}
   ]]>
  </style>
 </defs>
 <g id="Camada_x0020_1">
  <metadata id="CorelCorpID_0Corel-Layer"/>
  <g id="Figs_Desenho_VarCor_017">
   <path class="fil0" d="M24.85 0.17c10.21,1.23 11.8,7.1 13.55,7.73 2.25,0.81 1.66,1.06 1.86,3.4 0.08,0.94 1.02,2.71 1.4,3.87 0.97,2.96 1.23,6.33 0.68,9.58 -2.92,17.46 -23.95,23.23 -35.04,12.4l-2.66 -2.82c-2.95,-3.74 -5.52,-10.12 -4.38,-16.66 0.3,-1.74 0.8,-2.5 1.33,-3.94 0.71,-1.94 -0.84,-4.31 1.66,-6.27 1.7,-1.33 1.38,0.52 3.52,-1.72 3.9,-4.09 11.12,-6.42 18.07,-5.58z"/>
   <path class="fil1" d="M37.53 10.2c-1.14,1.91 -7.97,7.36 -10.21,8.17l0.23 -1.76c-0.45,0.42 -0.95,1.02 -1.34,1.31 -0.61,-0.6 -0.38,-0.71 -1.09,-1.27 -0.04,0.86 0,1.78 -0.26,2.37 -1.77,0.26 -3.5,-2.89 -5.72,-4.66 -2.5,-2 -7.34,-6.42 -10.01,-7.59 0.91,-1.82 4.55,-3.62 6.35,-4.24 5.52,-1.9 11.98,-1.09 16.85,2.06 1.75,1.14 4.46,3.48 5.19,5.62zm-13.37 10.76c-0.42,0.23 -0.56,0.7 -1.43,1.17 -0.73,0.39 -1.34,0.48 -1.94,0.92 3.16,0.01 4.45,-1.43 6.07,-2.4 1.1,0.48 1.06,1.07 2.74,1.19 -0.99,-0.62 -1.52,-0.7 -1.86,-1.91 3.93,0.12 7.63,-0.34 9.91,-3.53 0.84,-1.17 0.89,-2.01 1.51,-3.03 1.37,2.14 1.69,8.25 1.25,11.21 -0.54,3.68 -2.08,7.02 -3.96,9.21 -4.56,5.31 -10.79,8.47 -18.29,7.05 -11.46,-2.17 -17.71,-13.38 -15.96,-23.18 0.59,-3.3 2.5,-7.34 4.42,-8.78 -0.25,2.89 -0.73,4.57 0.48,7.2 4.17,9.1 15.02,4.75 17.06,4.88zm-15.52 1.29c0.75,0.29 1.83,1.14 2.73,1.64 6.78,3.79 20.23,3.05 26.65,0.4l-0.64 -0.75c0.98,0.1 1.56,0.23 2.1,0.75l-0.13 0.16c-0.02,0.03 -0.13,0.15 -0.16,0.19 -0.11,0.17 -0.15,-0.2 -0.33,0.78 -0.35,1.83 0.06,2.03 -1.11,5.03 -0.68,1.74 -2.23,3.96 -3.24,4.87 -2.88,2.58 -6.29,4.26 -11.38,4.72 -10.82,0.98 -13.85,-7.55 -14.9,-17.4l-1.01 0.95c0.31,-1.56 1.01,-2.43 2.67,-2.41 -0.52,0.12 -1.02,0.65 -1.24,1.05z"/>
   <path class="fil2" d="M30.85 27.45l-5.49 0.07 0.7 7.83c1.78,-0.32 3.52,-0.95 5.21,-1.92l-0.42 -5.98zm-6.32 0.26l-7.38 -0.17 1.42 7.48c2.21,0.56 4.41,0.73 6.56,0.47l-0.61 -7.78zm-5.74 8.44l0.47 2.47c2.07,0.43 4.13,0.52 6.14,0.22l-0.2 -2.53c-2.08,0.32 -4.25,0.29 -6.41,-0.16zm7.34 -0l0.23 2.52c0.72,-0.15 1.43,-0.36 2.13,-0.61l3 -1.5 -0.16 -2.33c-1.59,0.88 -3.35,1.54 -5.19,1.92z"/>
   <path class="fil3" d="M31.65 34.04l0.18 2.35c0.04,-0.02 0.07,-0.04 0.11,-0.07l3.94 -3.76 -0.12 -1.9c-1.14,1.31 -2.54,2.46 -4.11,3.37zm4.42 -7.72c0.43,-0.22 0.86,-0.44 1.29,-0.66 0.09,0.83 0.14,1.55 0.14,2.19 -0.38,0.49 -0.77,0.95 -1.17,1.39 -0.15,-0.97 -0.35,-1.94 -0.27,-2.92zm1.43 1.84c-0.03,1.41 -0.33,2.39 -1.04,3.14 0.04,-0.49 0.01,-0.97 -0.05,-1.45 0.4,-0.54 0.77,-1.1 1.08,-1.69zm-2.02 -1.73l-4.35 0.81 0.46 5.99c1.42,-0.86 2.8,-1.96 4.12,-3.32l-0.23 -3.48z"/>
   <path class="fil4" d="M31.65 16.44c-0.35,0 -0.64,0.26 -0.64,0.58 0,0.32 0.28,0.58 0.64,0.58 0.35,0 0.64,-0.26 0.64,-0.58 0,-0.32 -0.28,-0.58 -0.64,-0.58zm-19.9 9.24c-0.81,-0.41 -1.62,-0.82 -2.44,-1.23 0.26,2.8 0.72,5.11 1.37,6.99 0.54,0.35 1.08,0.67 1.61,0.98l-0.55 -6.74zm-0.71 6.71c0.43,1.06 0.93,1.98 1.48,2.75l-0.14 -1.74c-0.45,-0.31 -0.9,-0.65 -1.34,-1.01zm5.35 -5.51l-4.14 -1.2 1.39 7.45c1.45,0.72 2.9,1.3 4.34,1.71l-1.59 -7.97zm-2.53 7.43l0.43 2.3 3.39 1.61c0.35,0.1 0.69,0.19 1.04,0.27l-0.5 -2.48c-1.48,-0.36 -2.94,-0.92 -4.36,-1.71zm0.71 -19.38c-0.35,0 -0.64,0.26 -0.64,0.58 0,0.32 0.28,0.58 0.64,0.58 0.35,0 0.64,-0.26 0.64,-0.58 0,-0.32 -0.28,-0.58 -0.64,-0.58z"/>
   <path class="fil2" d="M18.23 16.83c0.78,0.43 4.83,3.14 5.11,3.57 -2.44,1.37 -17.5,3.75 -15.07,-8.95 4.34,1.5 3.18,3.09 4.04,4.4 1.45,2.2 3.52,2.05 5.92,0.99zm10.62 2.17l0.78 -1.01c4.15,0.88 2.54,-1.35 3.56,-2.6 0.15,-0.19 1.5,-1.24 1.81,-1.48 0.43,-0.35 0.43,-0.34 0.81,-0.73 0.49,-0.51 0.29,-0.59 0.86,-0.61 0.77,4.16 -4.57,7.09 -7.82,6.45z"/>
  </g>
 </g>
</svg>
