<?xml version="1.0" encoding="UTF-8"?>
<!DOCTYPE svg PUBLIC "-//W3C//DTD SVG 1.1//EN" "http://www.w3.org/Graphics/SVG/1.1/DTD/svg11.dtd">
<!-- Creator: CorelDRAW -->
<svg xmlns="http://www.w3.org/2000/svg" xml:space="preserve" width="9.5887mm" height="14.6831mm" version="1.1" style="shape-rendering:geometricPrecision; text-rendering:geometricPrecision; image-rendering:optimizeQuality; fill-rule:evenodd; clip-rule:evenodd"
viewBox="0 0 13.57 20.78"
 xmlns:xlink="http://www.w3.org/1999/xlink"
 xmlns:xodm="http://www.corel.com/coreldraw/odm/2003">
 <defs>
  <style type="text/css">
   <![CDATA[
    .fil0 {fill:black}
    .fil1 {fill:url(#id0)}
   ]]>
  </style>
  <linearGradient id="id0" gradientUnits="userSpaceOnUse" x1="8.73" y1="16.51" x2="8.73" y2="3.16">
   <stop offset="0" style="stop-opacity:1; stop-color:fuchsia"/>
   <stop offset="1" style="stop-opacity:1; stop-color:#FFCC29"/>
  </linearGradient>
 </defs>
 <g id="Camada_x0020_1">
  <metadata id="CorelCorpID_0Corel-Layer"/>
  <g id="Figs_Desenho_VarCorRct_001_x0020_a">
   <path class="fil0" d="M0 5.83c-0.03,0.8 0.17,1.99 0.36,2.64 0.25,0.9 0.48,1.27 0.99,2.01 1.46,2.14 0.81,1.35 1.1,3.39 0.09,0.58 0.5,1.06 1.08,0.61 0.13,-0.1 0.18,-0.13 0.24,-0.29 0.04,-0.12 0.11,-0.21 0.25,-0.13 0.15,0.09 0.15,0.31 0.17,0.47 0.05,0.49 0.05,1.02 0.06,1.51 0.01,0.57 0.01,1.15 -0,1.73 -0.01,0.61 0.09,1.22 0.83,0.85 0.31,-0.17 0.33,-0.93 0.34,-1.23 0.01,-0.39 0,-0.8 0.04,-1.18 0.01,-0.1 0.03,-0.32 0.09,-0.39 0.07,-0.08 0.16,-0.05 0.18,0.06 0.02,0.08 0.02,0.13 0.05,0.22 0.07,0.19 0.23,0.55 0.46,0.57 0.35,0.01 0.44,-0.35 0.51,-0.63 0.09,-0.39 0.16,-0.91 0.46,-1.2 0.14,-0.13 0.24,-0.04 0.34,0.09 0.16,0.23 0.13,0.54 0.13,0.81 0,0.09 0.01,0.17 0.02,0.26 0.06,0.52 -0.08,1.08 -0.03,1.6 0.03,0.32 0.01,0.72 0,1.04 -0.01,0.3 -0.03,0.95 0.09,1.22 0.21,0.44 0.92,0.43 1.21,0.04 0.18,-0.25 0.17,-0.62 0.18,-0.92 0.05,-0.99 0.05,-1.98 0.11,-2.96 0.01,-0.14 0.02,-0.58 0.11,-0.67 0.09,-0.1 0.26,-0.02 0.36,0.04 0.17,0.1 0.34,0.12 0.53,0.06 0.22,-0.06 0.26,-0.25 0.29,-0.45 0.02,-0.15 0.03,-0.3 0.15,-0.41 0.16,-0.13 0.26,-0.03 0.47,-0.27 0.3,-0.33 0.37,-1.28 0.49,-1.81 0.15,-0.72 0.36,-0.53 0.54,-0.92 0.13,-0.28 0.07,-1.03 0.22,-1.32 0.12,-0.25 0.39,-0.4 0.59,-0.92 0.14,-0.37 0.22,-0.81 0.31,-1.22 0.1,-0.41 0.2,-0.8 0.22,-1.27 0.09,-2.08 0.21,-2.77 -1.09,-4.12 -0.44,-0.46 -0.72,-0.84 -1.04,-1.39 -0.12,-0.2 -0.19,-0.27 -0.38,-0.41 -0.74,-0.56 -1.99,-0.85 -2.91,-0.89 -1.47,-0.06 -2.21,-0.1 -3.62,0.42 -2.14,0.79 -4.38,3.01 -4.48,5.37zm9.98 12.74c-0.17,0.43 -0.28,1.37 -0.12,1.8 0.08,0.23 0.31,0.48 0.58,0.38 0.41,-0.15 0.35,-0.72 0.35,-1.07 0.01,-0.39 0.04,-1.2 -0.3,-1.45 -0.24,-0.19 -0.44,0.15 -0.51,0.34z"/>
   <path class="fil1" d="M10.87 8.63l-0.08 0.19 -0.7 1.31c-0.26,0.4 -0.61,0.68 -0.93,1.07 -0.51,0.63 -0.39,0.9 -1.05,0.93 -1.14,0.06 -1.23,0.31 -1.6,-0.05 -1.82,-1.78 -1.44,-0.66 -2.23,-1.77 -0.43,-0.6 -1.16,-1.25 -1.34,-1.64 -0.11,-0.27 -0.05,-0.32 0.1,-0.52 0.09,-0.12 0.12,-0.27 -0.01,-0.38 -0.06,-0.05 -0.15,-0.07 -0.22,-0.08 -1.39,-0.34 -1.69,0.31 -1.13,0.61 0.49,0.26 0.55,-0.17 0.78,0.62 0.15,0.49 0.54,0.85 0.87,1.21 0.61,0.67 0.54,1.21 1.23,1.54 1.12,0.54 0.66,0.2 1.59,1.22 0.71,0.77 0.87,-0.28 1.95,0.08 1.01,0.33 1.08,-0.8 1.78,-1.56 0.17,-0.19 0.61,-0.36 0.96,-1.14 0.16,-0.35 0.28,-0.68 0.42,-0.99 0.24,-0.53 0.31,-0.95 0.37,-1.06 0.13,-0.23 0.47,-0.46 0.49,-0.7 0.03,-0.34 -0.4,-0.12 -0.54,-0.05 -0.34,0.18 -0.65,0.41 -0.97,0.63 -0.13,0.08 -0.34,0.17 -0.33,0.36 0.01,0.16 0.22,0.15 0.34,0.15 0.08,0 0.17,0.01 0.25,0.01zm-0.49 10.39c0.24,0.06 0.19,0.53 0.09,0.69 -0.06,0.1 -0.18,0.17 -0.26,0.04 -0.1,-0.16 -0.15,-0.74 0.15,-0.73l0.02 0zm-6.04 -13.26l0.15 0.01c0.06,0.08 -0.01,0.04 0.04,0 0.22,0.15 0.48,0.43 0.69,0.62 0.11,0.1 0.48,0.44 0.63,0.39 0.09,-0.03 0.19,-0.17 0.15,-0.28 -0.04,-0.1 -0.52,-0.65 -0.62,-0.77 -0.19,-0.21 -0.43,-0.48 -0.65,-0.66 -0.02,-0.02 -0.04,-0.03 -0.06,-0.05 0.17,-0.58 0.55,-1.13 0.7,-1.72 0.05,-0.19 -0.01,-0.3 -0.22,-0.29 -0.24,0.01 -0.33,0.24 -0.42,0.43 -0.1,0.2 -0.19,0.4 -0.29,0.6l-0.13 0.23c-0.02,0.01 -0.09,0.04 -0.12,0.06 -0.09,0.04 -0.03,-0.07 -0.09,0.08 -0.36,-0.27 -0.68,-0.66 -1.02,-0.96 -0.29,-0.26 -0.62,-0.05 -0.47,0.19 0.12,0.2 0.4,0.5 0.56,0.68 0.22,0.24 0.48,0.52 0.71,0.74 0.01,0.01 0.03,0.03 0.04,0.04 -0.07,0.19 -0.18,0.43 -0.27,0.62 -0.09,0.2 -0.48,1.06 -0.45,1.24 0.02,0.11 0.15,0.23 0.27,0.18 0.27,-0.11 0.57,-0.9 0.72,-1.17l0.14 -0.21zm4.9 -0.04c0.05,0.06 -0.11,0.05 0.14,0.06l0.38 0.9c0.1,0.21 0.34,0.81 0.62,0.39 0.13,-0.21 -0.47,-1.63 -0.52,-1.92 0.12,-0.16 0.42,-0.41 0.57,-0.55 0.18,-0.16 0.77,-0.68 0.82,-0.89 0.03,-0.12 -0.03,-0.28 -0.18,-0.26 -0.27,0.03 -0.8,0.49 -1.01,0.69 -0.14,0.13 -0.26,0.26 -0.47,0.27 -0.02,-0.12 -0.23,-0.67 -0.29,-0.83 -0.06,-0.14 -0.18,-0.49 -0.29,-0.6 -0.16,-0.14 -0.42,-0.04 -0.41,0.2 0.01,0.15 0.13,0.48 0.17,0.64 0.06,0.22 0.3,0.98 0.28,1.11 -0.02,0.13 -0.5,0.6 -0.65,0.74 -0.17,0.16 -0.65,0.53 -0.67,0.77 -0.01,0.13 0.1,0.26 0.24,0.23 0.29,-0.08 0.87,-0.64 1.15,-0.84 0.04,-0.03 0.08,-0.05 0.12,-0.08zm-0.51 10.8c-0.01,0.46 -0,0.92 -0.01,1.38 -0,0.25 -0.02,1.17 -0.08,1.36 -0.08,0.27 -0.32,0.34 -0.48,0.07 -0.2,-0.35 -0.12,-0.86 -0.11,-1.25 0,-0.29 -0.02,-0.58 -0.01,-0.87 0.01,-0.55 0.06,-1.11 0.09,-1.66 0.01,-0.21 0.06,-0.5 -0.04,-0.68 -0.13,-0.22 -0.53,-0.47 -0.78,-0.5 -0.28,-0.04 -0.48,0.1 -0.65,0.3 -0.18,0.23 -0.28,0.52 -0.31,0.81 -0.01,0.12 -0.03,0.31 -0.2,0.2 -0.08,-0.05 -0.09,-0.15 -0.11,-0.24 -0.06,-0.22 -0.12,-0.58 -0.41,-0.6 -0.35,0 -0.45,0.66 -0.49,0.91 -0.08,0.54 -0.09,1.09 -0.15,1.63 -0.01,0.06 -0.04,0.28 -0.15,0.2 -0.14,-0.1 -0.12,-0.45 -0.13,-0.61l-0 -0.04c-0.02,-0.55 -0.04,-1.1 -0.07,-1.64 -0.01,-0.14 -0.01,-0.27 -0.02,-0.41 -0.01,-0.13 -0.01,-0.26 -0.02,-0.39 -0.09,-0.69 -0.33,-1.51 -1.06,-0.66 -0.1,0.12 -0.18,0.2 -0.35,0.15 -0.21,-0.06 -0.2,-0.24 -0.22,-0.42 -0.07,-0.62 -0.06,-1.39 -0.23,-1.98 -0.03,-0.11 -0.14,-0.28 -0.2,-0.38 -0.06,-0.11 -0.13,-0.23 -0.19,-0.34 -0.13,-0.24 -0.27,-0.48 -0.4,-0.72 -0.06,-0.11 -0.13,-0.23 -0.19,-0.34l-0.02 -0.04c-0.32,-0.57 -0.69,-1.11 -0.87,-1.88 -0.29,-1.28 -0.31,-2.13 0.24,-3.33 0.17,-0.37 0.37,-0.74 0.57,-1.1 0.8,-1.46 1.51,-1.72 3.22,-2.32 1.53,-0.54 3.36,-0.55 4.84,-0.07 0.64,0.21 1.12,0.48 1.34,1.14 0.17,0.52 0.17,0.87 0.61,1.29 0.43,0.4 0.77,0.42 1.03,1.04 0.18,0.44 0.24,1.04 0.28,1.51l0 0.05c0.07,1.06 -0.13,2.5 -0.82,3.34 -0.22,0.27 -0.2,0.44 -0.25,0.77 -0.02,0.16 -0.04,0.32 -0.07,0.47 -0.09,0.6 -0.25,0.56 -0.49,0.93 -0.57,0.88 -0.12,1.6 -0.67,2.19 -0.12,0.14 -0.21,0.21 -0.35,0.35 -0.11,0.12 -0.1,0.13 -0.17,0.25 -0.11,0.18 -0.28,0.23 -0.39,0.02 -0.08,-0.16 -0.1,-0.32 -0.31,-0.38 -0.24,-0.08 -0.35,0.21 -0.43,0.39 -0.27,0.6 -0.3,1.07 -0.32,1.71 -0,0.13 -0.01,0.26 -0.01,0.4z"/>
  </g>
 </g>
</svg>
