<?xml version="1.0" encoding="UTF-8"?>
<!DOCTYPE svg PUBLIC "-//W3C//DTD SVG 1.1//EN" "http://www.w3.org/Graphics/SVG/1.1/DTD/svg11.dtd">
<!-- Creator: CorelDRAW -->
<svg xmlns="http://www.w3.org/2000/svg" xml:space="preserve" width="87.5208mm" height="77.808mm" version="1.1" style="shape-rendering:geometricPrecision; text-rendering:geometricPrecision; image-rendering:optimizeQuality; fill-rule:evenodd; clip-rule:evenodd"
viewBox="0 0 1573.71 1399.06"
 xmlns:xlink="http://www.w3.org/1999/xlink"
 xmlns:xodm="http://www.corel.com/coreldraw/odm/2003">
 <defs>
  <style type="text/css">
   <![CDATA[
    .fil0 {fill:black}
    .fil3 {fill:#404040}
    .fil1 {fill:#6D6D6D}
    .fil2 {fill:#CA1F24}
    .fil5 {fill:#E9222A}
    .fil4 {fill:#FDFDFD}
   ]]>
  </style>
 </defs>
 <g id="Camada_x0020_1">
  <metadata id="CorelCorpID_0Corel-Layer"/>
  <g id="Epicuro.cdr">
   <path class="fil0" d="M40.21 305.18c8.73,-2.43 139.48,-88.16 230.08,-114.46 65.93,-19.15 65.82,-11.19 96.52,14.08 23.8,19.6 46.35,38.3 72.03,56.71 19.49,13.98 34.08,20.49 57.99,27.49 -0.3,9.81 -42.09,78.08 -51.65,94.22 -5.71,9.64 -11.75,21.85 -17.79,30.46 -12.22,17.4 -101.21,50.88 -131.3,61.78 -47.97,17.37 -97.58,31.75 -146.85,46.36 -17.28,5.12 -145.55,39.99 -149.23,43.42 3.64,3.93 33.46,18.74 40.65,22.15 90.51,42.95 163.54,50.33 264.76,49.5 19.14,-0.15 111.74,-5.03 121.46,-2.98 -0.11,14.61 6.06,19.45 18.18,26.34 9.55,5.43 21.35,8.17 33.16,11.04 17.35,4.21 17.18,6.33 31.85,12.45 6.58,2.75 27.37,8.95 31.18,11.56 -6.69,9.4 -32.23,13.06 -46.46,16.44 -17.21,4.08 -33.3,7.46 -49.2,13.73 -65.36,25.78 -96.21,77.74 -106.75,145.67 -3.61,23.28 -4.72,95.29 4.11,114.91 5.49,-3.09 19.73,-20.43 24.16,-25.2 8.46,-9.13 14.67,-16.08 24.19,-25.43 10.03,-9.84 40.71,-44.5 49.52,-49.44 4.93,4.49 9.41,11.03 13.92,16.65 5.78,7.19 10.52,8.42 5.43,17.15 -7.49,12.85 -14.23,25.07 -22.71,36.35 -23.91,31.8 -31.43,37.34 -62.15,56.99 1.12,1.78 0.01,0.59 1.84,2.16l14.3 5.99c8.53,2.39 12.08,1.13 20.35,1.86 -15.29,28.42 -20.9,48.12 -21.08,87.88 -0.1,21.9 6.25,80.31 16.46,94.08 1.02,-12.67 -3.2,-79.14 12.18,-88.4 1.9,10.27 1.49,29.28 2.8,41.24 3.77,34.34 13.5,70.03 29.99,98.67 5.24,9.1 -0.85,21.89 -2.79,34.51 -5.34,34.64 -3.91,79.01 14.08,107.94 4.13,-2.98 8.93,-10.55 12.81,-15.23 4.55,-5.49 8.32,-9.61 13.31,-14.87 81.74,-86.16 162.19,-70.15 241.52,-92.27 19.98,-5.57 24.95,-11.3 38.37,-16.56 0.79,16.66 -3.13,39.33 -3.77,57.38 -0.76,21.56 0.34,38.56 2.3,59.26 3.96,-1.36 3.31,-1.61 6.41,-5.89 54.78,-75.69 82.12,-111.07 167.03,-152.04 9.21,-4.44 23.85,-14.33 30.85,-17.14l-1.34 14.7c6.01,-1.5 26.24,-16.91 31.43,-21.14 30.89,-25.23 51.62,-48.81 71.79,-86.42 24.28,-45.29 36.89,-43.43 51.26,-107.16 6.33,-28.08 68.33,-99.44 10.62,-206.45 -13.67,-25.35 -28.83,-43.43 -46.21,-59.78 -31,-29.18 -55.65,-36.87 -61.95,-42.82 4.52,-8.79 3.4,-9.75 14.83,-11.1 47.35,-5.61 64.42,-35.9 66.65,-80.19l0.84 -18.57c0.63,-3.09 0.22,-2.15 1.62,-3.77 11.12,-6.87 114.65,-0.31 133.33,2.56 46.79,7.19 74.65,19.12 126.88,13.84 41.09,-4.15 79.64,-13.85 114.6,-27.38 20.41,-7.9 79.12,-34.79 87.08,-53.54 -120.07,-22.63 -282.4,-96.25 -395.15,-148.03 -17.06,-7.84 -79.52,-34.09 -88.71,-48.05 -18.32,-27.83 -60.68,-82.03 -82.99,-106.07 -14.94,-16.1 -67.99,-45.06 -74.28,-62.29 -2.49,-6.82 -4.24,-13.87 -6.3,-20.47 -4.3,-13.76 -9.34,-26.69 -14.61,-39.12 -10.3,-24.34 -23.88,-53.99 -42.33,-66.45 -33.32,-22.49 -147.62,-30.56 -185.96,-18.19 -14.12,4.55 -25.1,11.39 -37.25,17.82 -46.03,24.36 -141.41,75.33 -191.97,77.66 -19.94,-47.9 -70.4,-45.98 -127.46,-34.97 -47.56,9.17 -91.37,26.51 -127.41,48.11 -40.24,24.13 -68.36,50.19 -94.93,80.78 -18.91,21.77 -54.62,74.07 -64.15,109.99z"/>
   <path class="fil1" d="M705.44 447.46c3.96,-1.53 4.17,-0.62 -9.46,-3.35 -30.53,-6.12 -77.48,-5.11 -107.65,-3.22 -87.14,5.46 -118.19,50.91 -183.06,79.51 -23.97,10.57 -76.12,26.37 -106.65,24.64l35.37 -11.46c56.19,-20.87 132.89,-68.48 173.89,-110.46 3.22,-3.3 24.42,-19.37 24.14,-21.06 -33.59,13.98 -55.59,34.25 -82.88,52.16 -78.18,51.31 -146.71,79.97 -239.73,101.03 -10.12,2.29 -49.47,8.28 -55.48,12.68 15.8,7.17 132.42,-4.2 157.85,-8.23 107.77,-17.06 166.66,-74.55 240.91,-98.36 23.02,-7.38 45.76,-10.75 70.64,-13.66 27.58,-3.23 55.48,0.57 82.11,-0.21zm-127.23 613.68l-40.49 43.95c3.3,-14.68 35.18,-50.26 44.86,-61.49 9.59,-11.12 45.67,-42.26 56.83,-51.77 18.56,-15.81 35.3,-32.48 48.12,-59.24 7.58,-15.84 17.77,-44.85 16.81,-64.32l-6.11 -23.99 -3.06 0.54c-5.28,26.81 -11.79,38.28 -24.62,54.79 -4.84,6.22 -34.33,34.22 -43.09,34.5 -5.61,3.25 -3.1,3.41 -10.76,6.96 -10.19,4.71 -19.14,9.13 -30.66,10.78l-6.64 -0.38c8.4,-4.66 15.07,-6.45 24,-11.72 13.55,-7.99 30.53,-21.31 39.22,-34.57 3.68,-5.61 11.39,-19.44 11.6,-24.5 1.46,-15.04 -4.29,-15.91 -18.04,-18.57 -21.24,-4.11 -15.97,-0.84 -29.4,5.77 -5.17,5.86 -38.24,24.2 -47.55,17.88 6.39,-3.62 14.57,-5.17 22.25,-9.54 4.39,-2.5 15.28,-9.73 16.91,-14.06l0.59 -5.05c-20.1,-3.33 -27.33,13.48 -53.35,23.38 -6.45,2.46 -13.6,4.81 -16.43,11.04 28.75,15.97 47.93,13.37 57.62,18.36 -1.32,4.34 -3.65,4.98 -7.11,7.49 -39.67,28.7 -74.3,103.32 -78.98,146.73 2.41,2.08 -1.09,1.18 3.03,0.28 9.84,-9.95 39.05,-57.6 68.76,-66.24 -2.01,4.23 -12.14,14.35 -15.51,18.57 -7.44,9.33 -38.15,53.94 -37.75,63.4 -5.99,29.71 -12.32,49.39 -10.59,83.58 8.66,-5.34 12.05,-19.35 44.54,-39.45 37.04,-22.92 88.23,-25.04 126.8,-39.37 14.72,-5.47 47.28,-21.18 51.31,-33.31 -13.31,2.23 -77.5,11.71 -84.73,1.81 21.12,-9.56 60.63,-7.31 105.01,-49.9 10.71,-10.28 24.24,-29.16 29.66,-48.25 8.95,-31.47 -1.04,-55.03 -0.38,-72.42 12.09,4.78 25.45,20.56 31.21,33.9 8.33,19.27 7.23,35.55 7.79,58.09 7.02,-4.61 14.5,-31.47 14.97,-40.7 1.58,-30.49 -17.54,-55.94 -37.36,-73.85 -2.85,-2.57 -4.55,-3.7 -7.26,-6.19 -3.95,-3.64 -3.28,-4.1 -10.08,-3.87 -7.13,0.25 -21.57,2.02 -26.07,-2.9 -12.07,-0.01 -15.13,-3.1 -24.08,-7.49 -9.32,4.73 5.83,37.26 -15.75,82.21 -5.53,11.52 -10.78,20.44 -17.05,29.74 -18.93,28.08 -42.61,46.16 -69.7,68.4l-37.37 31c-3.46,2.85 -9.17,6.99 -11.91,10zm-14.06 -541.48c-5.89,5.47 -15.37,10.75 -15.97,19.87l17.93 -3.62 18.87 1.36c-4.51,1.42 -11.03,2.24 -14.42,3.54 -5.38,2.06 -5.4,4.52 -10.56,6.4 -7.45,2.92 -20.85,24.07 -24.25,31.17 -4.97,10.42 -12.33,28.93 -13.5,41.86 -1.29,14.28 10.81,18.68 28.18,27.14 7.26,3.53 33.76,13.97 41.29,13.91 -9.07,-12.19 -15.85,-12.79 -21.96,-20.99 31.22,1.02 35.42,23.26 39.98,27.87 5.94,-7.33 8.07,-3.08 17.89,-4.71 6.88,-1.14 11.28,-4.35 15.08,-7.57 4.68,-3.97 20.4,-20.03 15.03,-28.63 -8.13,-7.77 -14.8,7.72 -22.81,10.73 4.5,-12.43 15.76,-23.86 28.57,-28.28 4.85,-1.68 11.43,-2.61 14.96,-5.64 18.14,-1.08 53.15,-6.96 53.22,16.37 -10.3,-1.36 -15.71,-11.32 -28.88,0.34 -11.09,9.82 -6.78,19.36 -11.27,29.03l1.03 19.79c29.59,6.66 29.44,9.71 38.64,28.98 13.9,29.13 53.14,43.52 77.47,-1.43 8.85,-16.35 2.52,-17.53 31.73,-25.84l6.41 -3.45c6.15,-8.85 -0.19,-47.64 -18.92,-54.22 2.45,10.68 16.47,11.97 14.12,47.16 -28.92,8.83 -24.47,0.17 -34.81,21.59 -6.19,12.82 -14.51,23.4 -27.69,29.11 1.64,-16.36 16.33,-26.21 8.11,-76.37 -3.78,-23.09 -6.83,-31.27 -3.86,-58.28 1,-9.11 0.7,-14.79 4.87,-19.17 0.89,5.09 2.11,10.84 4.76,13.97 0.16,-25.19 -5.3,-33.84 -6.1,-43.22 7.18,0.74 14.09,11.69 27.58,11.78 7.73,0.05 40.33,-15.83 59.64,-21.06 8.69,-2.35 25.48,-4.7 31.28,-8.72 -38.26,-3.98 -83.31,29.28 -100.45,13.38 -10.14,-9.41 1.36,-22.98 4.56,-30.48 -10.94,1.11 -15.72,4.83 -23.96,7 -7.63,2.01 -5.96,-0.79 -10.93,-2.5 -5,-1.72 -7.02,1.1 -12.42,2.1 -11.81,-17.6 7.4,-21.47 -45.6,-27.23 -51.28,-5.57 -81.01,-7.59 -131.28,6.71 -17.38,4.95 -40.08,10.23 -38.81,34.65l22.38 -4.91c5.6,-0.09 11.04,-2.4 14.6,-0.24l-19.74 10.75zm146.23 40.07c-7.82,6.86 -39.11,20.98 -52.95,23.11l11.07 -7.11c4.27,-2.62 6.48,-4.35 10.39,-7.04 4.89,-3.36 16.66,-10.3 19.71,-16.14 -37.54,0.61 -31.82,-0.59 -59.37,-14.98 4.24,14.29 25.41,17.35 30.84,20.8 -15.53,1.72 -26.79,-1.37 -35.75,-9.63 -10.17,-9.37 -11.26,-14.62 -15.93,-31.02l-12.9 -0.48c1.36,-1.92 -0.66,-1.43 3.91,-3.27 3.9,-1.57 18.85,-1.08 23.11,-0.77 9.54,0.7 19.14,3.49 28.34,3.83 -5.29,-4.92 -25.12,-12.05 -33.74,-14.54 -19.16,-5.54 -25.55,7.92 -36.52,10.83 3.67,-9.27 9.46,-14.32 13.53,-21.06l2.93 -3.49c16.64,-18.91 37.99,-13.03 59.93,-3.12 11.41,1.42 28.53,15.58 35.24,21.96 3.84,3.65 10.69,11.44 18.71,11.02 8.27,-0.44 15.38,-4.94 18.55,-10.66 4.92,-6.37 1.3,-3.12 4.35,-4.68 9.28,8.29 2.15,30.2 -25.51,32.61l-6.76 1.4c20.29,9.17 33.12,-7.49 41.53,-9.6 -1.93,9.9 -9.75,14.36 -19.37,18.05 -13.65,5.23 -22.33,13.25 -22.33,13.24 -0.17,-0.28 -0.68,0.47 -1.01,0.72zm-55.9 126.2c-11.78,1.6 -39.45,23.76 -49,30.58 -13.41,9.58 -36.48,22.57 -59.17,20.22l-6.6 1.34c8.29,8.34 31.14,6.03 41.61,10.88 -5.84,10.99 -55.76,15.73 -70.55,12.9 -5.66,-1.08 -7.34,-3.4 -11.5,0.58 -26.99,4.56 -56.06,25.37 -69.31,38.67 -7.27,7.3 -17.14,20.32 -23.4,31.64 -2.75,4.97 -18.42,32.1 -14.15,36.89 3.78,-9.74 19,-28.25 25.34,-33.52 31.66,-24.85 42.45,-58.13 101.52,-70.42 11.28,-2.35 44.84,-1.12 64.97,-4.83 9.07,-1.67 20.14,-6.52 28.35,-6.33l2.53 5.57c24.25,-4.71 62.22,-20.86 76.71,-40.35 8.43,-11.33 5.18,-16.91 2.06,-31.18 -6.71,-0.94 -11.72,-2.95 -18.53,-3.5l-20.88 0.86zm-20.25 -454.41c-1.4,-4.05 -0.48,-1.91 -6.81,-5.76 -18.16,-11.03 -1.48,-40.51 6.34,-53.54 4.8,-8 35.22,-49.47 34.94,-50.24 -8.48,9.49 -16.63,16.57 -25.47,26.17 -8.02,8.71 -16.2,19.24 -23.84,29.81 -7.87,10.87 -34,53.39 -36.49,70.8l51.34 -17.24zm-454.55 -52.6c2.14,1.03 24.27,-15.16 27,-16.84 30.5,-18.79 63.21,-34.55 99.96,-43.38 22.49,-5.4 64.36,-9.52 85.64,-1.1 29.33,11.6 8.5,39.45 59.27,37.98 69.9,-2.02 151.65,-44.77 208.96,-77.33 13.97,-7.93 46.83,-33.66 66.23,-30.17 6.39,-4.47 66.67,1.12 79.77,3.62 6.3,1.2 16.89,7.37 21.04,3.79 -21.81,-7.66 -68.81,-12.86 -95.79,-13.57 -39.12,-1.03 -54.13,15.65 -80.26,30.02 -45.73,25.16 -95.53,53.6 -151.67,68.25 -16.78,4.38 -32.78,5.72 -51.02,4.31 -54.62,-4.2 -4.09,-55.99 -121.33,-37.27 -28.31,4.52 -60.77,15.95 -82.56,27.31 -29.73,15.49 -43.21,26.68 -65.23,44.37zm374.98 180.4l6.29 -4.19c0.15,-0.47 0.62,-0.4 0.89,-0.64 -12.2,-3.63 -16.72,-12.21 -14.53,-27.23 10.33,1.32 15.34,2.35 20.26,-6.66 12.5,-22.91 -17.07,-17.25 23.05,-40.03 24.34,-13.82 47.03,-24.21 74.12,-32.6l-4.04 -0.37c-37.31,5.06 -71.56,19.23 -102.1,37.16 -17.84,10.47 -17.71,17.33 -29.76,41.43l-23.97 47.71c13.62,-2.34 39.35,-14.5 49.79,-14.58zm466.7 194.47c4.31,-3.19 4.71,-8.95 7.18,-13.58 2.5,-4.68 4.96,-8.24 7.95,-12.16 30.66,-40.26 31.1,1.46 23.98,18.49 -11.24,1.6 -19.94,-6.98 -22.44,-5.7 -3.15,1.61 -3.32,7.33 0.07,10.25 1.64,1.41 6.63,2.24 9.71,4.76 -1.19,6.96 -4.73,14.16 -5.43,20.14 -1.02,8.74 3.64,13.46 6.02,19.82 6.85,18.26 -1,27.73 -5.87,40.83 6.97,-1.57 20.53,-9.56 21.79,-15.31 0.94,-4.3 -4.28,-23.32 -4.02,-31.96 0.34,-11.5 27.31,-79.14 8.28,-88.75 -9.4,-4.75 -21.99,3.92 -26.37,7.7 -6.81,5.89 -36.22,35.83 -20.85,45.46zm-25.83 101.62c4.15,-2.7 6.99,-8.3 8.94,-13.25 2.25,-5.68 3.71,-11.16 3.86,-17.88 0.68,-30.75 -25.62,-72.31 -54.38,-75.18 1.03,1.11 0.74,0.88 2.29,2.06 14.92,11.35 24.27,17.38 35.84,39.3 15.32,29.03 6.94,43.46 3.45,64.95zm-139.56 29.93c-6.17,13.4 -0.61,19.49 17.69,31.69 10.01,6.68 26.32,13.91 41.3,13.89l-5.43 -6.88c8.04,-1.14 46.27,8.55 57.74,10.68 41.85,7.78 96.66,34.71 122.78,68.88 7.65,10 4.89,9.74 7.56,6.49 -11.04,-26.48 -36.08,-48.56 -58.51,-61.48 -14.23,-8.2 -24.82,-12.84 -41.46,-18.82 -7.76,-2.79 -43.98,-12.39 -46.62,-14.35l55.86 -1.58c-1.99,-1.8 1.45,0.58 -3.2,-2.22 -8.29,-4.99 -58.01,-21.1 -65.54,-23.01 -13.62,-3.47 -24.28,-6.65 -39.01,-7.8 -33.71,-2.62 -26.4,1.78 -43.18,4.52zm-355.97 -168.12c-1.17,6.89 6.55,13.28 9.93,19.09 3.39,5.84 5.13,14.59 10,19.33 7.6,-13.47 -3.25,-25.18 -9.54,-34.53 -3.06,-4.55 -3.45,-7.12 -10.39,-3.89zm-1.42 120.41c-4.12,-14.12 -14.44,-18.48 -7.48,-39.58 2.19,-6.63 6.59,-12.04 6.33,-19.3 -0.28,-7.68 -4.69,-14.04 -4.61,-23.27 5.82,-1.98 15.13,-5.41 9.88,-13.21 -5.44,-2.09 -11.53,4.71 -22.06,4.31 -2.09,-3.92 -3.14,-7.28 -4.38,-12.53 -13.4,2.1 -7.1,13.96 -3.79,25.04 2.89,9.66 7.42,19.2 7.84,30.27 0.36,9.67 -6.08,26.18 -3.65,32.59 2.16,5.71 13.23,13.93 21.93,15.68zm272.27 181.55c-13.92,0.31 -29.85,-8.52 -42.12,-9.05l-8.5 -0.63c1.57,13.54 36.7,20.92 49.1,22.05 10.61,0.97 18.44,3.91 18,-8.05 -4.29,-1.04 -13.5,-2.03 -16.49,-4.32z"/>
   <path class="fil2" d="M179.69 178.92l-5.76 4.89c21.04,-1.48 22.46,-7.41 47.55,-19.11 28.93,-13.49 73.85,-27.39 106.73,-26.96 42.66,0.57 49.7,22.58 84.24,50.91 6.23,5.11 11.15,10.15 17.85,15.66 16.08,13.22 40.75,37.04 61.45,39.48 14,1.65 43.88,-11.39 51.1,-18.01 -27.12,2.04 -42.17,19.46 -68.19,2.55 -11.31,-7.35 -36.46,-31.45 -42.73,-40.9 12.73,0.83 33.97,17.97 82.17,7.06 33.22,-7.51 78.87,-20.46 101.49,-44.49 7.65,-8.13 16.41,-16.19 25.66,-23.96 9.86,-8.29 45.65,-34.42 62.7,-36.13 -2.56,6.23 -22.24,21.67 -29.8,27.35l-4.64 3.89c-0.19,0.19 -0.57,0.53 -0.8,0.84 0.29,0.77 -30.14,42.24 -34.94,50.24 -7.82,13.03 -24.5,42.51 -6.34,53.54 6.33,3.85 5.41,1.71 6.81,5.76 5.85,-0.83 22.69,-6.31 31.53,-8.27 10.2,-2.27 25.06,-4.66 35.47,-5.76 28.49,-3.02 52.66,-1.06 80.63,-1.43 -3.34,-2.84 -13.03,-2.49 -18.21,-1.99 -0.17,-12.74 -0.71,-24.35 -2.28,-36.94 -4.64,-37.22 -7.15,-32.98 5.52,-64.73 5.65,-14.16 -1.29,-22.18 2.09,-31.75 -2.93,-4.66 -4.51,-4.21 -7.87,-10.22 1.96,-2.88 -0.77,-0.78 4.16,-1.55l-4.29 -2.08c-5.9,-2.19 -20.01,-9.4 -14.43,-18.04 -7.6,-0.97 -13.4,-0.29 -19.81,-0.66 -19.4,-3.49 -52.26,22.23 -66.23,30.17 -57.31,32.55 -139.06,75.3 -208.96,77.33 -50.76,1.47 -29.94,-26.38 -59.27,-37.98 -21.28,-8.42 -63.15,-4.3 -85.64,1.1 -36.75,8.83 -69.47,24.59 -99.96,43.38 -2.73,1.68 -24.86,17.87 -27,16.84zm352.34 223.14c0.28,1.68 -20.92,17.76 -24.14,21.06 -41,41.98 -117.7,89.59 -173.89,110.46l-35.37 11.46c30.53,1.74 82.68,-14.07 106.65,-24.64 64.87,-28.59 95.91,-74.05 183.06,-79.51 30.17,-1.89 77.12,-2.9 107.65,3.22 13.63,2.73 13.42,1.82 9.46,3.35 3.04,1.73 5,2.49 10.4,2.52 14.17,0.06 56.62,7.81 78.66,9.97 31.37,3.07 64.07,4.84 95.46,5.85 -4.98,-3.82 -11.43,-2.47 -18.28,-2.47 3.84,0.93 10.42,-1.75 15.63,-2.16 7.16,-0.56 14.44,0.68 21.43,-0.12 7.22,-8.4 11.17,-25.55 4.39,-35.62 -5.73,-8.51 -16.58,-15.94 -24.72,-22.22 -18.26,-14.09 -40.34,-22.85 -68.48,-26.11 -52.75,-6.12 -79.84,-9.73 -130.89,-0.33 -8.63,1.59 -33.94,8.77 -40.23,7.43 -1.47,-8.4 1.93,-7.22 3.9,-15.01l-8.24 -4.93c0.2,-0.17 0.54,-0.8 0.65,-0.6l3.51 -3.19c-11.59,1 -47.28,14.04 -60.07,18.47 -4.17,1.45 -52.19,19.49 -56.54,23.11z"/>
   <path class="fil3" d="M660.72 247.59l4.04 0.37c-27.09,8.4 -49.77,18.78 -74.12,32.6 -40.12,22.78 -10.55,17.12 -23.05,40.03 -4.92,9.01 -9.93,7.98 -20.26,6.66 -2.19,15.02 2.32,23.6 14.53,27.23 -0.27,0.25 -0.74,0.17 -0.89,0.64 -0.15,0.46 -0.68,0.49 -0.88,0.63l-5.41 3.55 38.95 -12.86c59.14,-17.65 152.93,-40.28 213.22,-41.31 38.04,-0.65 48.2,0.56 82.97,5.43 7,0.98 7.66,1.67 10.43,-0.13 -5.49,-6.68 -45.42,-26.19 -39.01,-44.83 5.57,-16.2 55.36,-10.78 74.32,-9.65 7.34,0.44 34.2,1.54 39.62,3.18 3.64,1.1 18.04,17.81 22.16,21.7l42.35 43.77c-0.12,-6.39 -48.58,-62.2 -52.74,-66.9 -4.81,-5.43 -7.71,-10.57 -17.88,-11.97l-84.39 -5.53c-62.15,-1.59 -138.59,-8.65 -200.92,3.34 -13,2.5 -14.76,-2.53 -23.04,4.03zm-53.94 620.26c13.43,-6.61 8.16,-9.88 29.4,-5.77 13.75,2.66 19.5,3.53 18.04,18.57 0.31,-0.29 0.65,-1.24 0.78,-1.01l4.59 -9.75c4.51,-13.13 -9.86,-24.48 -17.12,-26.21 -14.15,-3.38 -15.76,2.7 -31.41,19.1 -0.03,0.04 -1.96,2.13 -2.08,2.27 -1.64,1.93 -0.55,0.37 -2.21,2.81zm-103.02 196.51c-4.12,0.91 -0.62,1.81 -3.03,-0.28 4.68,-43.41 39.3,-118.03 78.98,-146.73 3.46,-2.5 5.79,-3.15 7.11,-7.49 -9.7,-4.99 -28.87,-2.39 -57.62,-18.36 2.82,-6.22 9.98,-8.58 16.43,-11.04 26.02,-9.9 33.25,-26.72 53.35,-23.38l-0.59 5.05c5.92,-3.71 9.45,-11.8 9.97,-19.34 -18.32,-7.05 -21.68,-3.37 -30.66,8.19 -6.3,8.11 -13.37,14.42 -24.48,19.67 -27.59,13.03 -49.68,-2.14 -73.35,-6.17 1.63,8.93 35.88,38.85 54.26,47.28 9.29,4.26 18.17,4.72 27.69,7.13 -3.38,3.52 -17.34,9.8 -35.09,31.3 -19.51,23.64 -34.01,57.76 -42.2,89.17 -2.64,10.12 -5.88,47.66 -3.68,56.89 0.02,0.07 -3.09,-1.89 2.04,4.55 6.78,-15.03 19.14,-31.98 20.87,-36.45zm-86 -228.25c-6.35,5.27 -21.56,23.78 -25.34,33.52 18.72,-15.21 35.98,-30.73 58.25,-41.23 36.08,-17 84.51,-24.99 124.83,-14.62 14.96,3.84 25.54,8.02 42.37,7.25 19.31,-0.88 65.03,-14.22 73.8,-25.17 -6.59,1.47 -17.65,8.04 -39.75,12.65 -13.21,2.75 -33.54,6.57 -47.52,4.61 -12.56,-1.76 -26.88,-8.33 -40.87,-11.18 -10.79,-2.19 -41.78,-1.89 -46.99,-4.72 10.24,-4.1 42.17,-5.42 54.38,-4.62 20.33,1.32 32.33,6.5 54.76,4.16 26.75,-2.79 72.57,-21.62 73.59,-45.05 -6.23,2.72 -24.69,19.03 -34.07,13.33 1.79,-2.34 13.87,-10.77 17.66,-14.07 6.8,-5.93 10.01,-8.18 15.86,-16.34 10.19,-14.24 10.37,-38.2 -4.8,-46.07 3.12,14.27 6.36,19.84 -2.06,31.18 -14.49,19.49 -52.46,35.64 -76.71,40.35 -0.22,-0.32 -0.45,-0.77 -0.57,-1l-1.96 -4.57c-8.21,-0.19 -19.27,4.66 -28.35,6.33 -20.13,3.71 -53.68,2.48 -64.97,4.83 -59.07,12.28 -69.86,45.57 -101.52,70.42zm353.09 -16.95c2.99,2.29 12.2,3.28 16.49,4.32 0.43,11.96 -7.39,9.02 -18,8.05 -12.4,-1.13 -47.53,-8.51 -49.1,-22.05l8.5 0.63c-1.84,-1.88 -0.7,-1.91 -8.59,-3.94l-8.92 0.03c-0.21,-0.38 -17.79,15.77 32.33,29.08 32.42,8.61 45.85,4.76 56.24,7.71 -7.67,9.48 -32.97,4.46 -45.71,4.28 4.5,4.92 18.94,3.15 26.07,2.9 6.8,-0.24 6.13,0.23 10.08,3.87 2.71,2.49 4.42,3.62 7.26,6.19 19.81,17.91 38.93,43.36 37.36,73.85 -0.48,9.23 -7.95,36.09 -14.97,40.7 -0.56,-22.54 0.54,-38.82 -7.79,-58.09 -5.76,-13.34 -19.12,-29.12 -31.21,-33.9 -0.65,17.4 9.33,40.96 0.38,72.42 -5.42,19.08 -18.95,37.97 -29.66,48.25 -44.38,42.59 -83.89,40.34 -105.01,49.9 7.23,9.89 71.42,0.42 84.73,-1.81 -4.03,12.12 -36.59,27.84 -51.31,33.31 -38.57,14.34 -89.76,16.46 -126.8,39.37 -32.48,20.1 -35.88,34.11 -44.54,39.45 -1.73,-34.19 4.59,-53.87 10.59,-83.58l-11.99 26.46c-9.39,26.5 -13.79,51.03 -10.66,79.13 0.5,4.48 0.61,10.69 3.22,14.32 7.23,-4.56 12.26,-10.16 18.63,-15.37 6.57,-5.38 11.84,-9.88 18.61,-14.88 34.94,-25.81 97.1,-53.74 142.41,-55.84 -5.42,3.5 -26,10.36 -34.22,13.93 -35.38,15.35 -57.64,31.25 -84.99,55.72 -29.64,26.53 -63.99,80.15 -66.05,121.74 4.94,-2.99 8.7,-8.6 14.2,-14.01 12.48,-12.26 32.32,-27.25 48.78,-35.66 71.83,-36.7 87.78,-2.74 189.89,-35.39 43.08,-13.77 46.06,-20.89 77.81,-35.78 -1.27,6.72 -4.22,12.87 -6,19.06 -1.67,5.82 -3.28,12.73 -4.73,18.48 -2.78,11.04 -7.31,25.46 -9.15,37.26 4.8,-2.85 11.82,-12.14 15.65,-16.39 43.36,-48.09 82.58,-56.01 132.54,-83.29 78.02,-42.6 78.13,-129.93 90.95,-155.87 5.73,4.73 8.16,17.81 8.7,25.46 0.77,10.78 -1.4,22.06 -1.33,33.13 4.35,-2.67 0.17,0.54 2.91,-2.41 0.03,-0.03 1.82,-2.54 1.87,-2.63 26.24,-43.96 26.75,-102.1 3.47,-148.39 -5.68,-11.3 -18.08,-32.52 -28.77,-35 1.06,2.77 6.71,10.9 8.48,13.82 3.28,5.4 5.48,8.24 8.65,14.26 15.64,29.73 24.28,87.66 12.1,110.36 -2.53,-3.29 -17.22,-47.89 -35.11,-53.58 -2.38,81.27 -15.52,124.89 -59.12,169.33 -32.24,32.86 -88.13,50.37 -122.36,77.43 -5.46,4.31 -10.89,10.47 -15.77,12.86 1.54,-25.16 15.12,-57.34 21.11,-81.12 -3.19,1.66 -2.59,0.94 -5.93,6.04 -7.47,11.41 -25.62,25.38 -36.66,33.01 -51.12,35.33 -124.11,53.78 -189.35,47.99 -1.79,-7.31 9.54,-20.63 12.05,-29.42 -13.24,2.4 -33.19,9.11 -44.85,14 -17.79,7.47 -28.11,15.74 -37.35,20.01 13.7,-27.85 76.68,-70.12 106.4,-84.96 38.41,-19.19 91.16,-41.91 137.18,-52.51 -8.37,9.03 -33.89,27.71 -37.27,39.73 14.47,-1.42 51.04,-16.21 65.52,-21.51 65.95,-24.13 104.66,-47.36 119.34,-117.91 1.15,-5.51 1.83,-12.87 5.55,-16.12 15.19,17.64 11.81,48.66 10.62,74.05 6.48,-4.61 17.84,-34.82 19.72,-44.78 9.19,-48.56 -19.7,-108.44 -65.58,-126.63 6.56,-6.24 30.57,-2.86 40.33,-16.45 -28.41,-0.85 -39.36,-0.19 -66.38,-7.31 -11.8,-3.11 -47,-14.19 -52.32,-21.01 4.6,-9.66 22.77,-18.36 22.27,-34.57 -2.22,0.71 -17.42,10.16 -35.32,16.54 -18.46,6.57 -26.55,3.45 -46.1,3.77zm326.78 -9.07c-2.68,3.25 0.08,3.51 -7.56,-6.49 -26.12,-34.17 -80.93,-61.1 -122.78,-68.88 -11.48,-2.13 -49.7,-11.82 -57.74,-10.68l5.43 6.88c-14.98,0.02 -31.29,-7.21 -41.3,-13.89 -18.29,-12.2 -23.86,-18.29 -17.69,-31.69 -16.75,6.78 -6.53,22.65 1.57,30.35 5.25,4.99 26.44,17.22 28.58,21.41 -13.28,0.01 -21.23,-9.03 -31.9,-11.72 0.71,15.25 22.16,23.86 34.51,28.83 47.31,19.06 74.93,-2.75 132.13,24.64 14.09,6.75 13.04,9.91 19.56,13.09 -1.5,-11.09 -10.43,-9.65 -10.26,-16.8 22.5,1.51 62.79,49.82 66.25,74.29 -4.74,-2.13 -15.6,-15.05 -25.73,-22.43 -55.07,-40.11 -124.44,-29.08 -194.24,-50.97 -13.49,-4.23 -24.13,-8.25 -36.66,-13.15 -11.02,-4.31 -26.03,-12 -36.35,-14.2 4.38,6.55 30.18,18.9 37.83,22.18 14.95,6.39 26.79,10.05 44.16,15 55.38,15.77 129.24,16.15 182.53,53.26 42.58,29.65 45.81,59.1 51.27,66.1 4.72,-6.79 -9.24,-64.51 -16.54,-83.34l-5.08 -11.78z"/>
   <path class="fil4" d="M705.44 447.46c3.96,-1.53 4.17,-0.62 -9.46,-3.35 -30.53,-6.12 -77.48,-5.11 -107.65,-3.22 -87.14,5.46 -118.19,50.91 -183.06,79.51 -23.97,10.57 -76.12,26.37 -106.65,24.64l35.37 -11.46c56.19,-20.87 132.89,-68.48 173.89,-110.46 3.22,-3.3 24.42,-19.37 24.14,-21.06 -33.59,13.98 -55.59,34.25 -82.88,52.16 -78.18,51.31 -146.71,79.97 -239.73,101.03 -10.12,2.29 -49.47,8.28 -55.48,12.68 15.8,7.17 132.42,-4.2 157.85,-8.23 107.77,-17.06 166.66,-74.55 240.91,-98.36 23.02,-7.38 45.76,-10.75 70.64,-13.66 27.58,-3.23 55.48,0.57 82.11,-0.21zm-141.29 72.2c-5.89,5.47 -15.37,10.75 -15.97,19.87l17.93 -3.62 18.87 1.36c-4.51,1.42 -11.03,2.24 -14.42,3.54 -5.38,2.06 -5.4,4.52 -10.56,6.4 -6.53,11.64 -27.21,50.5 -14.61,67.72 5.58,-3.26 1.09,-4.34 6.71,-7.45 3.98,5.25 3.04,6.62 9.16,10.33 14.17,8.58 39.38,8.65 54.54,5.88 13.59,-2.49 18.48,-6.75 28.03,-12.25 13.6,-7.82 17.76,-6.69 34.64,-7.38 18.14,-1.08 53.15,-6.96 53.22,16.37 -10.3,-1.36 -15.71,-11.32 -28.88,0.34 -11.09,9.82 -6.78,19.36 -11.27,29.03 3.89,2.51 2.01,1.08 4.84,4.55 1.84,2.25 1.93,2.87 4.21,5.08 3.98,3.87 6.41,4.61 12.24,6.62 12.61,4.35 20.2,0.77 25.84,11.54 12.21,23.33 34.59,10.82 37.67,-11.8 5.45,-40.06 -14.31,-63.93 -3.93,-101.69 3.52,-12.8 7.73,-20.13 -3.11,-26.57 -9.15,4.02 -8.5,10.8 -24.8,15.12 -10.68,2.83 -23.34,4.96 -34.13,7.08 -7.82,6.86 -39.11,20.98 -52.95,23.11l11.07 -7.11c4.27,-2.62 6.48,-4.35 10.39,-7.04 4.89,-3.36 16.66,-10.3 19.71,-16.14 -37.54,0.61 -31.82,-0.59 -59.37,-14.98 4.24,14.29 25.41,17.35 30.84,20.8 -15.53,1.72 -26.79,-1.37 -35.75,-9.63 -10.17,-9.37 -11.26,-14.62 -15.93,-31.02l-12.9 -0.48c1.36,-1.92 -0.66,-1.43 3.91,-3.27 2.04,-0.82 4.48,-0.81 6.99,-0.93 5.3,-0.25 10.82,-0.22 16.12,0.17 9.54,0.7 19.14,3.49 28.34,3.83 -5.29,-4.92 -25.12,-12.05 -33.74,-14.54 -19.16,-5.54 -25.55,7.92 -36.52,10.83 3.67,-9.27 9.46,-14.32 13.53,-21.06 -2.76,-2.79 -4.9,-3.31 -13.18,-2.55 -4.52,0.42 -8.32,1.19 -12.48,2.8 -7.32,2.83 -11.65,7.38 -14.83,15.07 2.65,2.08 -0.64,1.43 5.65,1.58 5.6,-0.09 11.04,-2.4 14.6,-0.24l-19.74 10.75zm-17.83 217.06c15.2,12.55 52.23,-8.76 62.54,-15.5 14.8,-9.69 27.85,-23.34 42.38,-31.57 7.15,-4.05 5.74,-2.06 3.26,-3.72 -11.78,1.6 -39.45,23.76 -49,30.58 -13.41,9.58 -36.48,22.57 -59.17,20.22zm81.13 197.36c2.55,3.3 -1.2,1.29 2.89,1.27 8.06,-0.04 35.97,-20.2 45.03,-30.94 9.78,-11.6 24.98,-38.22 22.84,-60.15l-3.06 0.54c-5.28,26.81 -11.79,38.28 -24.62,54.79 -4.84,6.22 -34.33,34.22 -43.09,34.5zm-235.04 -64.45c3.78,-9.74 19,-28.25 25.34,-33.52l1.2 -5c-5.04,-0.18 -3.5,-0.56 -7.54,0.77 1.68,-12.82 28.37,-37.76 38.35,-43.13l40.65 -20.86c5.12,-1.84 11.54,-1.75 15.89,-4.19 -2.91,-2.27 -3.35,-1.55 -7.03,-1.27 -26.99,4.56 -56.06,25.37 -69.31,38.67 -7.27,7.3 -17.14,20.32 -23.4,31.64 -2.75,4.97 -18.42,32.1 -14.15,36.89zm185.8 191.51l2.16 1.47c4.88,-5.62 19.43,-14.85 26.53,-20.14 65.17,-48.6 136.57,-101.44 123.1,-202.69 -9.32,4.73 5.83,37.26 -15.75,82.21 -5.53,11.52 -10.78,20.44 -17.05,29.74 -18.93,28.08 -42.61,46.16 -69.7,68.4l-37.37 31c-3.46,2.85 -9.17,6.99 -11.91,10zm88.78 -575.49c11.41,1.42 28.53,15.58 35.24,21.96 3.84,3.65 10.69,11.44 18.71,11.02 8.27,-0.44 15.38,-4.94 18.55,-10.66 3.31,-27.69 -41.52,-26.17 -61.41,-25.78 -12.95,0.26 -9.75,0.45 -11.09,3.45zm-32.75 -254.13c-1.4,-4.05 -0.48,-1.91 -6.81,-5.76 -18.16,-11.03 -1.48,-40.51 6.34,-53.54 4.8,-8 35.22,-49.47 34.94,-50.24 -8.48,9.49 -16.63,16.57 -25.47,26.17 -8.02,8.71 -16.2,19.24 -23.84,29.81 -7.87,10.87 -34,53.39 -36.49,70.8l51.34 -17.24zm-454.55 -52.6c2.14,1.03 24.27,-15.16 27,-16.84 30.5,-18.79 63.21,-34.55 99.96,-43.38 22.49,-5.4 64.36,-9.52 85.64,-1.1 29.33,11.6 8.5,39.45 59.27,37.98 69.9,-2.02 151.65,-44.77 208.96,-77.33 13.97,-7.93 46.83,-33.66 66.23,-30.17 5.33,-3.73 44.51,-0.38 53.59,0.53 8.42,0.84 18.1,1.55 26.18,3.09 6.3,1.2 16.89,7.37 21.04,3.79 -21.81,-7.66 -68.81,-12.86 -95.79,-13.57 -39.12,-1.03 -54.13,15.65 -80.26,30.02 -45.73,25.16 -95.53,53.6 -151.67,68.25 -16.78,4.38 -32.78,5.72 -51.02,4.31 -54.62,-4.2 -4.09,-55.99 -121.33,-37.27 -28.31,4.52 -60.77,15.95 -82.56,27.31 -29.73,15.49 -43.21,26.68 -65.23,44.37zm374.98 180.4l5.41 -3.55c0.21,-0.14 0.74,-0.17 0.88,-0.63 0.15,-0.47 0.62,-0.4 0.89,-0.64 -12.2,-3.63 -16.72,-12.21 -14.53,-27.23 10.33,1.32 15.34,2.35 20.26,-6.66 12.5,-22.91 -17.07,-17.25 23.05,-40.03 24.34,-13.82 47.03,-24.21 74.12,-32.6l-4.04 -0.37c-37.31,5.06 -71.56,19.23 -102.1,37.16 -17.84,10.47 -17.71,17.33 -29.76,41.43l-23.97 47.71c13.62,-2.34 39.35,-14.5 49.79,-14.58z"/>
   <path class="fil5" d="M781.87 216.05c14.34,-0.77 26.75,-15.89 19.09,-31.08 -5.04,-9.98 -17.74,-22.24 -19.33,-34.31 -2.75,-20.91 16.74,-26.84 11.16,-40.57 -3.37,-8.31 -18.01,-26.64 -23.81,-29.46 -3.39,9.57 3.56,17.59 -2.09,31.75 -12.67,31.75 -10.16,27.51 -5.52,64.73 1.57,12.6 2.11,24.2 2.28,36.94 5.19,-0.5 14.88,-0.85 18.21,1.99zm-16.59 -147.19c18.97,7.62 39.58,8.75 54.17,21.13 26.45,22.43 10.95,42.14 63.78,89.08 6.9,6.13 36.05,29.38 44.25,32.25 -1.25,-3.27 -35.42,-36.96 -45.07,-48.88 -8.93,-11.04 -32.74,-40.06 -38.2,-56.08 11.49,2.87 29.42,30.19 39.48,34.34 -0.75,-10.04 -12.35,-44.64 -16.61,-54.26 -8.28,-18.71 -17.93,-27.01 -39.55,-30.95 -4.14,3.58 -14.73,-2.58 -21.04,-3.79 -8.08,-1.54 -17.76,-2.25 -26.18,-3.09 -9.07,-0.91 -48.25,-4.26 -53.59,-0.53 6.42,0.38 12.21,-0.31 19.81,0.66 -5.59,8.64 8.53,15.85 14.43,18.04l4.29 2.08zm-116.64 291.61l-3.51 3.19c-0.12,-0.2 -0.45,0.43 -0.65,0.6l8.24 4.93c-1.97,7.78 -5.37,6.61 -3.9,15.01 6.29,1.34 31.6,-5.84 40.23,-7.43 51.05,-9.4 78.14,-5.79 130.89,0.33 28.14,3.26 50.22,12.02 68.48,26.11 8.14,6.28 18.99,13.71 24.72,22.22 6.78,10.07 2.83,27.22 -4.39,35.62 -6.99,0.8 -14.28,-0.45 -21.43,0.12 -5.21,0.41 -11.79,3.09 -15.63,2.16 6.86,0 13.3,-1.34 18.28,2.47 51,2.53 102.39,1.76 152.11,-5.72 59.7,-8.98 87.66,-13.62 149,-2.75 41.92,7.43 86.17,24.6 123.84,38.33 32.94,12 97.65,29.6 137.99,25.17 -7.41,-3.49 -26.9,-7.29 -35.54,-9.6 -48.59,-13.01 -187.59,-69.94 -233.37,-92.57 -5.33,-2.63 -10.13,-4.62 -15.53,-7.15 -6.67,-3.13 -9.22,-5.87 -14.8,-7.92 -11.48,-4.23 -21.29,-9.77 -31.97,-15.17 -20.68,-10.44 -40.54,-22.27 -61.6,-32.1 -25.57,-11.93 -129.26,-24.4 -163.11,-22.37 14.12,2.93 32.98,3.84 48.18,6.06 32.8,4.79 62.29,9.11 94.29,18.06 15.44,4.32 24.11,13.12 35.97,20.35 36.9,22.5 71.22,39.18 111.56,56.08 12.98,5.44 27.43,10.66 38.07,17.86 -13.28,-1.76 -28.32,-10.04 -61.26,-13.71 -55.89,-6.23 -79.27,5.39 -133.01,12.47 -14.14,1.86 -58.32,2.57 -70.44,-2.56 4.27,-2.45 53.81,-7.46 64.19,-8.96l44.82 -9.97c5.92,-1.7 10.35,-2.18 14.18,-5.79 -47.71,1.88 -55.61,7.26 -109.21,-2.02 -38.04,-6.58 -54.55,-19.26 -84.51,-33.47 -50.9,-24.13 -90.31,-30.38 -147.33,-28.96 -18.76,0.47 -36.46,4.72 -54.32,5.27 5.16,-9.83 17.81,-11.58 24.24,-14.66 3.48,-1.67 1.33,-0.34 3.41,-2.16 -12.71,-0.25 -55.68,8.62 -67.2,12.62z"/>
  </g>
 </g>
</svg>
