<?xml version="1.0" encoding="UTF-8"?>
<!DOCTYPE svg PUBLIC "-//W3C//DTD SVG 1.1//EN" "http://www.w3.org/Graphics/SVG/1.1/DTD/svg11.dtd">
<!-- Creator: CorelDRAW -->
<svg xmlns="http://www.w3.org/2000/svg" xml:space="preserve" width="12.8011mm" height="14.6829mm" version="1.1" style="shape-rendering:geometricPrecision; text-rendering:geometricPrecision; image-rendering:optimizeQuality; fill-rule:evenodd; clip-rule:evenodd"
viewBox="0 0 25.66 29.44"
 xmlns:xlink="http://www.w3.org/1999/xlink"
 xmlns:xodm="http://www.corel.com/coreldraw/odm/2003">
 <defs>
  <style type="text/css">
   <![CDATA[
    .fil0 {fill:#0F0F0F}
    .fil4 {fill:#363636}
    .fil2 {fill:#B41914}
    .fil1 {fill:#B7B7B7}
    .fil3 {fill:#F15927}
   ]]>
  </style>
 </defs>
 <g id="Camada_x0020_1">
  <metadata id="CorelCorpID_0Corel-Layer"/>
  <g id="Figs_Desenho_SemVar_002">
   <path class="fil0" d="M7.6 8.84c-0.13,0.08 -0.09,0.08 -0.09,0.52 -0,0.21 -0.02,0.41 -0.01,0.62 -10.2,3.11 -9.75,16.42 -0.14,19.05 0.93,0.26 2.69,0.54 3.78,0.34 0.14,0.07 0.16,0.08 0.45,0.05 2.43,-0.26 4.53,-1.2 6.28,-2.84 1.46,-1.35 2.61,-3.36 2.97,-5.35 0.64,-3.6 -0.6,-7.05 -3.53,-9.38 -0.56,-0.44 -2.03,-1.42 -2.75,-1.51l-0.98 -0.31c-0.02,-0.34 0.1,-0.99 -0.08,-1.21 -0.17,-0.38 -0.81,-0.35 -1.26,-0.39l-1.29 -0.09c-0.01,-0 -0.04,-0.01 -0.05,-0.01 -0.01,-0 -0.04,-0.01 -0.05,-0.02l-0.08 -0.4c-0.42,-2.08 -0.76,-6.47 2.03,-6.37 2.26,0.08 2.77,4.42 5.44,3.95l-0.26 0.31 1.94 -0.41c0.01,0.39 -0.41,1.42 -0.48,1.87l1.49 -1.29 0.51 1.78c0.14,-0.13 0.04,-0 0.13,-0.18 0.03,-0.06 0.06,-0.15 0.08,-0.22l0.41 -1.32c0.41,0.12 1.04,1.03 1.46,1.27l-0.4 -1.85c0.43,0.01 1.44,0.36 1.94,0.44 -0.31,-0.49 -1.01,-0.93 -1.3,-1.44l1.91 -0.51c-0.48,-0.23 -1.3,-0.39 -1.88,-0.6l1.39 -1.39 -1.96 0.41c0.08,-0.6 0.43,-1.28 0.47,-1.85l-1.48 1.27 -0.5 -1.79c-0.25,0.24 -0.46,1.35 -0.66,1.72 -0.36,-0.1 -1.01,-1.04 -1.44,-1.24l0.41 1.82c-0.33,0.02 -1.49,-0.36 -1.92,-0.44l1.31 1.42 -1.9 0.52c0.26,0.19 0.6,0.2 0.87,0.3 0.33,0.12 0.2,0.02 0.13,0.16 -0.98,0.31 -1.29,0.01 -1.79,-0.63 -1.15,-1.47 -2.2,-3.73 -4.82,-3.11 -1.6,0.38 -2.2,1.79 -2.41,2.99 -0.17,0.96 -0.24,3.46 0.17,4.47l-0.07 0.35c-0.57,0.05 -1.77,-0.1 -1.99,0.49z"/>
   <path class="fil1" d="M8.76 27.55c0.02,-0.84 -1.95,-0.85 -3.54,-3.51 -1.04,-1.74 -1.46,-3.88 -1.08,-5.71 0.82,-3.97 4.48,-5.23 4.89,-5.64 0.87,-0.88 -1.91,-0.4 -2.36,-0.26 -5.43,1.7 -6.65,9.86 -2.62,13.56 0.63,0.58 1.3,1.05 2.05,1.31 0.56,0.19 2.01,0.63 2.66,0.24z"/>
   <path class="fil2" d="M18.51 4.27c0.31,-0.07 0.6,0.03 0.79,0.14 -0.07,0.24 -0.82,0.9 -1.07,1.08l-0.26 0.31 1.94 -0.41c0.01,0.39 -0.41,1.42 -0.48,1.87l1.49 -1.29 0.51 1.78c0.14,-0.13 0.04,-0 0.13,-0.18 0.03,-0.06 0.06,-0.15 0.08,-0.22l0.41 -1.32c0.41,0.12 1.04,1.03 1.46,1.27l-0.4 -1.85c0.43,0.01 1.44,0.36 1.94,0.44 -0.31,-0.49 -1.01,-0.93 -1.3,-1.44l1.91 -0.51c-0.48,-0.23 -1.3,-0.39 -1.88,-0.6l1.39 -1.39 -1.96 0.41c0.08,-0.6 0.43,-1.28 0.47,-1.85l-1.48 1.27 -0.5 -1.79c-0.25,0.24 -0.46,1.35 -0.66,1.72 -0.36,-0.1 -1.01,-1.04 -1.44,-1.24l0.41 1.82c-0.33,0.02 -1.49,-0.36 -1.92,-0.44l1.31 1.42 -1.9 0.52c0.26,0.19 0.6,0.2 0.87,0.3 0.33,0.12 0.2,0.02 0.13,0.16z"/>
   <path class="fil3" d="M20.62 2.9c-0.3,0 -0.86,-0.19 -1.16,-0.24l0.78 0.86 -1.14 0.3c0.24,0.23 0.79,0.17 1.07,0.42 -0.12,0.17 -0.22,0.25 -0.36,0.38 -0.21,0.19 -0.28,0.21 -0.39,0.42l1.14 -0.24c-0.04,0.35 -0.21,0.73 -0.28,1.14l0.91 -0.78 0.31 1.11c0.3,-0.33 0.13,-0.78 0.48,-1.08 0.1,0.13 0.22,0.24 0.36,0.38l0.31 0.29c0.08,0.06 0.05,0.04 0.13,0.08l-0.24 -1.09c0.41,0.03 0.77,0.26 1.16,0.24l-0.79 -0.85 1.17 -0.32 -1.13 -0.37c0.09,-0.15 0.22,-0.25 0.37,-0.39 0.25,-0.24 0.31,-0.23 0.42,-0.47l-1.1 0.24c-0.06,-0.37 0.2,-0.75 0.22,-1.12l-0.87 0.77 -0.33 -1.1c-0.2,0.27 -0.22,0.83 -0.44,1.1 -0.12,-0.14 -0.7,-0.75 -0.85,-0.78l0.26 1.1z"/>
   <path class="fil4" d="M13.5 8.82c-0.17,-0.38 -0.81,-0.35 -1.26,-0.39l-1.29 -0.09c-0.02,-0 -0.04,-0.01 -0.05,-0.01 -0.01,-0 -0.04,-0.01 -0.05,-0.01l-0.08 -0.4c-0.04,0.08 -0.04,0.05 -0.05,0.18 -0.01,0.29 -0.04,-0.13 0.01,0.12l0.27 0.79c0.29,0.11 1.52,-0.01 1.93,-0.09 0.26,-0.05 0.38,-0.14 0.58,-0.08zm-5.9 0.02l0.22 -0.16c0.24,0.24 1.61,0.39 2,0.28 -0.16,-0.68 0.05,-0.63 -0.16,-0.96l-0.07 0.35c-0.57,0.05 -1.77,-0.1 -1.99,0.49z"/>
  </g>
 </g>
</svg>
