<?xml version="1.0" encoding="UTF-8"?>
<!DOCTYPE svg PUBLIC "-//W3C//DTD SVG 1.1//EN" "http://www.w3.org/Graphics/SVG/1.1/DTD/svg11.dtd">
<!-- Creator: CorelDRAW -->
<svg xmlns="http://www.w3.org/2000/svg" xml:space="preserve" width="25.4mm" height="25.4mm" version="1.1" style="shape-rendering:geometricPrecision; text-rendering:geometricPrecision; image-rendering:optimizeQuality; fill-rule:evenodd; clip-rule:evenodd"
viewBox="0 0 166.58 166.58"
 xmlns:xlink="http://www.w3.org/1999/xlink"
 xmlns:xodm="http://www.corel.com/coreldraw/odm/2003">
 <defs>
  <style type="text/css">
   <![CDATA[
    .fil0 {fill:#FEFEFE}
    .fil3 {fill:black}
    .fil2 {fill:#FAFAFA}
    .fil1 {fill:red}
   ]]>
  </style>
 </defs>
 <g id="Camada_x0020_1">
  <metadata id="CorelCorpID_0Corel-Layer"/>
  <g id="_2444724334336">
   <path class="fil0" d="M0.82 78.46c0.38,-1.29 0.62,-3.45 0.94,-4.74 0.13,-0.53 0.27,-1.06 0.43,-1.57 0.84,-2.69 1.94,-5.16 3.23,-7.64 0.04,-0.08 0.08,-0.14 0.12,-0.22l5.52 -9.22c1.59,-2.66 2.71,-5.08 3.54,-8.11 0.85,-3.1 1.49,-6.15 2.47,-9.23 5.84,-18.43 21.85,-21.84 37.53,-25.72 4.43,-1.1 7.83,-3.68 11.69,-6.07 3.55,-2.2 7.24,-3.93 11.28,-4.8 0.6,-0.13 1.36,-0.14 1.99,-0.24 0.67,-0.57 1.51,-0.89 2.42,-0.89l6.15 0c0.97,0 1.8,0.33 2.49,0.97 0.44,0.26 3,0.63 3.63,0.77 3.35,0.76 6.26,2.18 9.11,4.2 2.84,2.01 5.86,4.21 8.97,5.72 2.74,1.33 5.79,2.33 8.64,3.37 2.32,0.85 5.01,0.84 7.49,1.68 4.92,1.66 9.13,4.16 13.11,7.65 8.2,7.2 10.25,18.14 13.07,28.48 0.99,3.63 3.27,7.26 5.14,10.45 1.55,2.65 3.08,5.32 4.23,8.2 0.85,2.12 1.51,3.95 1.75,6.25 0.01,0.11 0.02,0.21 0.04,0.31 0.51,0.7 0.78,1.56 0.78,2.52l0 4.56c0,0.89 -0.25,1.72 -0.7,2.4 -0.04,0.8 -0.08,1.57 -0.22,2.46 -1.14,6.98 -4.85,12.73 -8.62,18.37 -7.68,11.47 -5.54,24.28 -16.18,34.37 -9.77,9.27 -17.18,8.2 -28.71,12.02 -2.54,0.84 -4.88,2.1 -7.21,3.45 -5.51,3.22 -9.93,5.96 -16.24,7.29 -0.05,0.01 -0.1,0.02 -0.15,0.03l-2.17 0.36c-0.63,0.46 -1.37,0.71 -2.19,0.71l-5.7 0c-0.85,0 -1.61,-0.26 -2.25,-0.75 -0.14,-0.03 -0.29,-0.04 -0.46,-0.06 -2.04,-0.18 -3.86,-0.89 -5.77,-1.66 -2.36,-0.95 -4.58,-2.24 -6.74,-3.63 -6.28,-4.05 -12.4,-6.7 -19.44,-8.77 -5.09,-1.5 -10.65,-2.66 -15.3,-5.39 -1.61,-0.94 -3.1,-2.07 -4.46,-3.38 -9.97,-9.66 -8.69,-16.11 -12.19,-28.85 -1.15,-4.19 -3.63,-8.19 -5.78,-11.86 -1.96,-3.34 -3.81,-7.13 -4.81,-10.94 -0.19,-0.71 -0.3,-1.33 -0.39,-1.97 -0.58,-0.73 -0.9,-1.65 -0.9,-2.68l0 -5.61c0,-0.97 0.29,-1.85 0.82,-2.57z"/>
   <path class="fil1" d="M3.88 81.03l0 5.61c1.1,0.69 0.44,0.83 1.15,3.53 0.89,3.41 2.67,6.97 4.36,9.86 2.2,3.75 4.93,8.19 6.22,12.89 3.83,13.92 2.16,18.31 11.08,26.95 8.35,8.09 20.02,5.07 38.6,17.07 1.92,1.24 3.95,2.44 6.1,3.3 4.78,1.92 4.11,1.09 6.2,1.67 0.97,0.27 0.4,-0.18 0.9,0.53l5.7 0c0.44,-0.67 -0.07,-0.21 0.68,-0.51l3.08 -0.52c9.7,-2.04 14.86,-7.92 23.05,-10.64 11.77,-3.9 18.29,-2.63 27.28,-11.16 9.83,-9.32 7.14,-21.05 15.6,-33.68 3.29,-4.91 6.93,-10.39 7.96,-16.67 0.47,-2.85 -0.11,-3.77 0.87,-4.14l0 -4.56c-0.75,-0.54 -0.25,0.18 -0.55,-0.98 -0.51,-1.93 0.14,-1.83 -1.71,-6.47 -2.63,-6.57 -7.72,-12.51 -9.53,-19.12 -3.12,-11.43 -4.83,-20.32 -11.81,-26.44 -3.31,-2.9 -6.98,-5.28 -11.81,-6.9 -2.48,-0.83 -5.03,-0.78 -7.58,-1.71 -8.93,-3.27 -9.81,-3.39 -18.5,-9.56 -7.05,-5 -10.82,-3.17 -13.09,-5.26l-6.15 0c-0.26,0.88 -2.82,0.87 -3.64,1.05 -3.69,0.79 -6.97,2.38 -10.1,4.32 -3.93,2.44 -7.59,5.25 -12.76,6.53 -14.54,3.6 -29.5,6.5 -34.74,23.02 -2.45,7.73 -1.98,10.88 -6.42,18.25l-5.52 9.22c-1.17,2.25 -2.14,4.39 -2.94,6.94 -0.98,3.12 -1.12,6.94 -1.99,7.57z"/>
   <path class="fil2" d="M102.7 63.74c0.46,-1.34 3.79,-1.66 5.11,-0.64 1.63,1.25 -4.17,0.78 -5.11,0.64zm-64.67 64.43c5.83,-0.79 15.87,-0.04 22.12,0.05 7.38,0.1 14.78,0.12 22.19,0.26 14.62,0.27 29.34,0.25 44.05,0.58 -0.28,2.49 -6.94,5.94 -9.14,6.54 -4.45,1.21 -8.39,1.2 -12.47,3.17 -8.4,4.06 -11.61,8.24 -23.01,8.25 -5.37,0 -8.53,-0.63 -12.41,-2.95 -3.36,-2 -6.23,-4.43 -9.98,-5.92 -10.71,-4.26 -11.74,-1.21 -19.62,-7.76 -1.14,-0.94 -1.12,-0.78 -1.72,-2.19zm-3.8 -3.9l0.35 -0.32c0.58,-0.34 -0.18,-0.08 0.64,-0.31l10.79 -0c4.15,-0.05 8.2,-0.22 12.33,0.15 7.93,0.72 16.52,0.05 24.54,0.04l37.14 0.12c2.02,0 4.08,0.04 6.1,-0.01 1.31,-0.03 5.86,-0.54 4.46,1.49 -1.12,1.63 -20.16,0.62 -23.59,0.61 -8.17,-0.02 -16.24,-0.14 -24.39,-0.19 -11.48,-0.08 -25.73,-0.66 -36.87,-0.45 -1.49,0.03 -9.25,0.41 -10.58,-0.14 -1.63,-0.68 -0.39,-0.17 -0.92,-0.99zm6.23 -29.76c-6.27,-0.11 -8.1,-0.43 -14.69,-0.33 -1.77,0.03 -4.03,0.38 -4,-1.36 0.45,-0.45 0.31,-0.35 0.98,-0.51 1.63,-0.41 32.63,0.33 36.56,0.34l78.44 0.18c2.24,0.01 5.36,-0.36 6.51,0.5 -0.08,1.87 -1.36,1.82 -3.18,1.87 -20.87,0.49 -42.87,-0.42 -63.76,-0.45l-36.87 -0.24zm-21.3 -13.73c0,-10.83 6.51,-14.73 9.35,-23.11 3.53,-10.4 4.06,-15.45 10.99,-21.41 3.81,-3.28 10.83,-6.76 15.98,-7.76 5.52,-1.08 6.55,-1.53 11.74,-4.05 6.09,-2.96 7.91,-5.78 17.59,-5.78 12.69,0 14.65,6.17 24.06,9.49 11.63,4.11 14.67,2.84 22.01,11.12 6.42,7.24 5.89,14.65 10.27,23.96 3.04,6.46 7.25,11.84 6.47,19.02 -0.89,8.18 -0.86,7.56 -2.92,7.57l-39.94 -0.1c-9.74,-0.12 -22.26,0.18 -31.04,-0.2l-43.24 -0.26c-10.58,-0.02 -11.32,2.74 -11.32,-8.49zm-4.6 4.44c0.83,9.06 5.45,12.94 7.83,18.43 3.02,6.97 3.74,16.14 5.69,20.55 4.25,9.6 11.33,12.3 20.05,14.39 20.9,5.02 24.06,18.52 44.71,11.11 3.69,-1.32 9.42,-6.65 17.11,-8.41 9.76,-2.23 17.95,-4.66 23.22,-10.66 4.9,-5.57 6.52,-16.86 10.26,-24.83 1.88,-4 4.52,-6.92 6.45,-10.9 8.76,-18.02 -4.67,-27.97 -7.74,-39.26 -3.25,-11.96 -3.68,-16.74 -11.64,-23.04 -3.29,-2.61 -6.99,-4.35 -11.92,-5.31 -17.56,-3.44 -20.05,-15.27 -37.18,-13.1 -6.1,0.77 -7.88,2.29 -12.17,4.97 -9.62,6 -11.22,4.53 -18.43,7.01 -7.49,2.57 -9.42,1.9 -16.6,8.86 -7.02,6.82 -5.07,14.59 -10.63,24.44 -3.92,6.94 -10.08,14.13 -9.01,25.75zm100.22 -45.75c0.98,0.86 5.55,1.62 0.79,9.38 -2.17,3.54 -3.94,5.82 -3.94,11.22 0,2.82 1.51,3.9 -1.23,3.73 -2.26,-3.98 0.21,-7.24 -2.31,-8.09 -2.14,2.14 1.21,5.54 -4.15,5.54 -9.01,0 -8.95,-9.87 -18.39,-11.06 -9.71,-1.23 -14.75,7.96 -18.59,10.34 -3.57,2.22 -4.17,-1.88 -6.45,-2.38l-1.13 5.46c-2.51,0.05 -2.52,-1.74 -6.45,-5.6 -2.03,-1.99 -4.45,-3.68 -5.24,-7.13 -1.19,-5.19 1.67,-8.16 1.18,-10.92 -0.53,-3 -4.46,-3.86 -7.71,-0.9 1.52,1.92 3.65,1.43 2.72,5.71 -0.54,2.45 -2.04,3.97 -3.09,5.88 -4.02,7.31 -3.8,14.22 2.15,19.81 3.12,2.93 7.57,4.79 7.76,10.04 0.16,4.68 -3.01,2.42 -4,4.84 12.99,1.08 2.69,-1.15 6.18,-8.16 0.58,-1.17 1.35,-2.25 2.85,-2.33 2.63,-0.13 1.45,1.43 3.89,1.48 1,-2.52 1.56,-3.96 0.91,-6.56 -0.89,-3.54 -0.39,-2.85 11.55,-2.87 12.93,-0.01 7.06,0.98 15.75,5.96 5.07,2.9 12.88,3.24 14.03,-0.96 -0.64,-0.68 -3.4,-2.94 -2.13,-4.24 0.63,-0.66 9.13,-0.46 10.6,-0.48 5.26,-0.06 3.93,1.9 7.32,4.3 2.41,1.71 4.6,2.99 5.81,5.94 0.49,1.19 1.13,3.64 0.65,5.03 -0.25,0.71 -0.78,1.01 -1.6,1.26 -2.5,0.76 -1.61,0.29 -2.04,1.34 1.96,0.95 4.36,0.74 6.71,0.1 -0.14,-1.83 -3.27,-3.37 -0.78,-7.95 0.52,-0.96 1.32,-2.2 2.82,-2.33 2.3,-0.19 1.57,1.22 3.57,1.5 1.39,-1.24 1.73,-4.34 1.36,-6.8 -0.3,-1.95 -1.81,-4.51 -2.64,-5.73 -6.77,-9.96 -13.43,-8.87 -9.43,-21.08 0.86,-2.63 -0.19,-4.59 -1.8,-5.4 -0.95,-0.48 -2.23,-0.26 -3.1,0.18 -1.08,0.55 -1.99,0.84 -2.37,1.95z"/>
   <path class="fil3" d="M124.57 110.66c-1.47,-7.85 6.14,-8.43 7.1,-1.78 1.35,9.39 -6.14,6.9 -7.1,1.78zm1.47 -9.45c-5.05,1.19 -9.02,10.35 -2.24,15.77 5.56,4.45 13.87,-0.78 12,-9.78 -0.87,-4.19 -4.76,-7.17 -9.77,-5.99z"/>
   <path class="fil3" d="M73.65 104.36c3.43,-0.82 5.36,6.14 2.7,9.09 -3.14,3.47 -2.91,-0.4 -2.9,-1.9 0.02,-1.87 -0.23,-5.58 0.2,-7.19zm3.29 13.29c6.47,-2.38 5.62,-11.6 2.05,-14.67 -2.63,-2.26 -8.4,-2.03 -9.08,-1.72 -0.68,0.31 -0.04,-0.4 -0.43,0.4 -0.24,0.49 -0.04,1.9 0.01,2.49l0.12 11.23c-0.16,1.36 -0.86,2.35 0.53,2.69 1.04,0.25 5.78,-0.05 6.81,-0.42z"/>
   <path class="fil3" d="M96.51 104.41c0.01,-0 0.92,-0.56 2.13,0.97 3.26,4.13 0.13,9.94 -2.15,9.32 -0.93,-0.25 -0.65,-1.59 -0.64,-2.85 0.02,-2.24 -0.29,-5.27 0.15,-7.26l0.51 -0.18zm-4.7 13.65c7.28,-0.16 12.31,-0.1 12.3,-8.59 -0,-3.79 -1.68,-5.6 -3.59,-6.98 -2.19,-1.58 -3.58,-1.32 -6.28,-1.34 -0.4,-0 -1,-0.02 -1.38,0.03 -1.96,0.26 1.34,-0.29 -0.49,0.1l-0.56 16.77z"/>
   <path class="fil3" d="M60.07 108.3c-2.3,-6.08 4.13,-3.82 1.9,-0.43 -0.98,1.5 -1.89,0.43 -1.9,0.43zm3.41 2.36c1.32,-1.02 2.04,-1.27 2.49,-3.28 1.46,-6.56 -6.52,-7.01 -9.93,-6.15 -0.12,0.48 -0.5,15.39 0.08,16.83l3.63 -0.15c0.53,-1.33 0.22,-3.54 0.37,-5.28 1.46,0.76 0.48,1.16 2.97,4.07 1.21,1.41 2.54,1.96 4.59,1.13 -0.41,-1.23 -1.55,-2.68 -2.18,-3.71 -0.54,-0.88 -1.72,-2.56 -2.02,-3.46z"/>
   <path class="fil3" d="M111 110.8c-0.32,-1.65 0.19,-3.12 1.26,-3.54 0.15,0.28 0.9,2.31 0.94,2.66 0.16,1.36 -1.09,1.01 -2.2,0.88zm-3.73 7.28c3.89,0 -1.11,-5.96 7.07,-3.98 0.66,1.34 0.56,2.69 1.35,3.93l3.72 -0.07c0.09,-1.73 -2.41,-7.54 -3.14,-9.52 -0.61,-1.63 -1.13,-2.95 -1.64,-4.74 -0.66,-2.34 -0.85,-2.95 -3.57,-2.56 -0.6,1.27 -1.39,2.47 -2.03,4.29l-3.25 9.28c-1.09,2.58 -1.91,3.36 1.48,3.36z"/>
   <path class="fil3" d="M36.22 104.64c2.8,-1.29 3.37,4.52 -0.22,3.6 -0,-0.67 -0.03,-1.38 -0.02,-2.03 0,-0.28 0,-0.59 0.04,-0.86 0.08,-0.66 0.13,-0.54 0.2,-0.71zm-4.22 12.76c0.29,1.09 3.34,0.84 4.02,0.34 0.59,-1.15 -0.07,-3.68 0.05,-5.3 1.5,-1.24 7.92,-1.84 5.89,-8.1 -1.06,-3.27 -6.32,-3.76 -9.98,-3.01l0.26 10.82c-0,0.73 -0.27,5.15 -0.24,5.26z"/>
   <path class="fil3" d="M44.53 117.93l7.56 0.15c0.62,-1.1 1.43,-2.28 1.04,-3.73 -2.44,-0.48 -5.2,3.53 -4.75,-2.97l2.79 0.01c0.41,-0.78 1.12,-1.98 1.09,-3.26 -1.76,-0.55 -2.6,0.45 -3.69,-0.81 -0.37,-0.65 -0.44,-2.13 0.11,-2.71 0.64,-0.62 1.76,-0.05 2.95,-0.14 0.57,-1.05 1.02,-1.5 0.82,-3.24l-8.16 -0.05c-0.15,3.21 0.66,10.66 0.11,14.69 -0.04,0.32 -0.13,0.58 -0.11,1.02l0.25 1.05z"/>
   <path class="fil3" d="M84.38 101.33c-0.21,0.73 -0.21,14.69 -0.14,16.74l4.06 -0.09 -0.04 -16.61c-1.15,-0.36 -2.68,-0.31 -3.87,-0.04z"/>
   <path class="fil3" d="M116.56 97.76c-1.72,-0.53 -1.37,0.03 -2.5,0.34 -1.12,0.3 -1.36,-0.15 -2.38,-0.39 -0.95,-0.22 -2.02,-0.24 -2.75,0.22 -0.35,0.22 -1.39,1.43 -1.01,1.84 0.66,0.72 1.61,-0.05 2.25,-0.21 1.56,-0.37 5.93,2.03 6.4,-1.79z"/>
  </g>
 </g>
</svg>
