<?xml version="1.0" encoding="UTF-8"?>
<!DOCTYPE svg PUBLIC "-//W3C//DTD SVG 1.1//EN" "http://www.w3.org/Graphics/SVG/1.1/DTD/svg11.dtd">
<!-- Creator: CorelDRAW -->
<svg xmlns="http://www.w3.org/2000/svg" xml:space="preserve" width="52.3382mm" height="44.081mm" version="1.1" style="shape-rendering:geometricPrecision; text-rendering:geometricPrecision; image-rendering:optimizeQuality; fill-rule:evenodd; clip-rule:evenodd"
viewBox="0 0 1552.59 1307.65"
 xmlns:xlink="http://www.w3.org/1999/xlink"
 xmlns:xodm="http://www.corel.com/coreldraw/odm/2003">
 <defs>
  <style type="text/css">
   <![CDATA[
    .fil7 {fill:#FEFEFE}
    .fil5 {fill:#FEFEFE}
    .fil1 {fill:#FFF212}
    .fil3 {fill:#FCD3C2}
    .fil17 {fill:#FDD1A1}
    .fil10 {fill:#FBC5B0}
    .fil4 {fill:#F8AB8E}
    .fil8 {fill:#EC268F}
    .fil6 {fill:#EC268F}
    .fil12 {fill:#BD336F}
    .fil14 {fill:#9D325E}
    .fil15 {fill:#342D37}
    .fil2 {fill:#432C4A}
    .fil13 {fill:#0F69B2}
    .fil16 {fill:#29588E}
    .fil11 {fill:#201E1E}
    .fil9 {fill:#201E1E}
    .fil19 {fill:black}
    .fil21 {fill:#020202}
    .fil23 {fill:#040504}
    .fil24 {fill:#F1F1F1}
    .fil22 {fill:#FAFAFA}
    .fil20 {fill:#FDFEFF}
    .fil0 {fill:white}
    .fil18 {fill:#201E1E;fill-rule:nonzero}
   ]]>
  </style>
 </defs>
 <g id="Camada_x0020_1">
  <metadata id="CorelCorpID_0Corel-Layer"/>
  <g id="IKO.cdr">
   <path class="fil0" d="M981.31 834.78c-4.8,-8.48 -23.08,-6.28 -35.31,7l-20.84 20.7c-8.81,9.87 -19.67,3.16 -28.69,22.22 -2.15,4.55 0.34,1.58 -3.12,2.92 -5.1,1.96 -11.57,5.97 -14.75,10.8 -1.26,1.92 -1.24,2.71 -2.02,4.88 -1.84,5.13 -5.73,9.89 -8.43,14.99 -0.84,1.58 -1.9,2.97 -2.93,4.35 -2.67,3.57 -0.35,1.41 -4.55,4.26 -7.25,4.93 -10.38,10.41 -16.92,16.06 -12.67,10.94 2.76,1.16 -21.82,14.06 -24.27,-26.53 -29.5,-19.89 -34.67,-26.58 -1.65,-2.12 -2.46,-4.09 -4.12,-6.27 -23.71,-31.09 -68.01,-34.78 -98.94,-12.51 -28.66,20.64 -36.99,70.59 -46.86,103.37 -3.86,12.82 -5.53,26.32 -7.75,39.66 -4.62,27.69 -5.95,55.98 -5.71,84.21 0.28,32.24 4.64,61.71 35.14,79.18 3.14,1.79 5.62,2.32 7.77,5.97 1.89,3.21 2.54,6.58 4.51,10.02 1.53,2.66 3.74,6.21 5.9,9.14 14.78,20.09 43.92,33.81 69.93,27.05 18.62,-4.84 34,-12.02 44.42,-27.65 6.01,-9.02 15.15,-25.08 13.18,-36.46 4.39,1.53 16.84,9.19 21.47,12.15l40.01 29.29c6.84,5.45 12.74,10.2 19.2,16.01 6.45,5.79 12.28,10.56 18.92,16.49l19.87 14.88c18.51,10.98 46.11,14 68.35,2.32 6,-3.15 6.94,-0.54 13.01,0.85 21.74,4.98 44.46,0.11 62.31,-13.7 6.37,-4.93 10.2,-10.74 15.11,-16.27 3.42,1.2 5.92,3.1 9.2,5 3.84,2.23 6.14,2.65 10.07,5 17.18,10.28 46.5,19.87 67.88,14.32 16.13,-4.19 28.9,-10.81 41.18,-20.89 17.42,-14.29 14.2,-23.14 23.3,-20.99 -1.19,5.03 -3.36,8.5 -4.75,13.68 -9.32,34.65 33.46,60.72 64.36,25.67 4.37,-4.96 12.17,-14.61 14.15,-20.29 9.53,3.33 10.8,7.02 23.88,3.63 19.85,-5.16 16.8,-19.55 24.96,-24.38 2.85,-1.69 11.92,-1.59 17.09,-2.93 11.29,-2.93 11.1,-14.65 20.55,-6.95 1.17,0.95 1.29,1.17 2.33,1.93l1.87 1.24c14.62,8.77 32.36,-3.19 36.55,-20.9 17.58,-0.44 18.86,-11.74 26.26,-10.98 10.97,1.13 22.3,-2.8 25.04,-14.36 7.85,2.74 14.97,7.03 26.19,4.11 22.89,-5.95 31.88,-28.64 26.2,-50.5 -1.34,-5.16 -3.09,-5.79 -4.01,-9.1 -0.82,-2.93 9.29,-35.29 -11.79,-46.63 -5.81,-3.12 -9.88,-3.12 -18.56,-0.87 2.69,-6.78 18.31,-23.6 24.3,-30.8 8.85,-10.65 16.08,-20.79 19.13,-34.71 2.47,-11.27 2.25,-22.44 -0.18,-32.85l-0.9 -3.46c-8.69,-30.41 -36.59,-53.42 -71.92,-51.48 -1.88,0.1 -4.74,0.66 -6.4,0.56 -5.02,-0.28 -8.8,-8.43 -25.81,-16.57 -17.15,-8.21 -50.93,-7.94 -67.93,6.42 -6.11,-5.43 -16.91,-10.34 -24.92,-13.65 -6.45,-2.66 -21.44,-7.57 -28.6,-7.39 -1.3,-7.54 -0.52,-14.6 -3.04,-24.33 -6.76,-26.02 -28.73,-44.52 -53.92,-49.88 -30.17,-6.43 -57.54,11.79 -85.85,20.65 -20.4,6.39 -40.94,13.94 -62.61,19.57 -0.29,-11.59 -1.03,-23.22 -6.37,-34.89 -9.05,-19.78 -24.88,-32.79 -44.87,-38.72 -22.11,-6.56 -49.34,-0.54 -66.73,14.7 -4.89,4.29 -14.56,17.24 -17,18.62z"/>
   <path class="fil1" d="M467.09 -0c257.96,0 467.09,209.12 467.09,467.09 0,257.97 -209.12,467.09 -467.09,467.09 -257.97,0 -467.09,-209.12 -467.09,-467.09 0,-257.97 209.12,-467.09 467.09,-467.09z"/>
   <path class="fil2" d="M422.75 867.95l-89.24 408.21 -146.87 0 8.34 -431.31c-10.62,-366.33 87.4,-540.05 334.28,-554.35l-106.51 577.44z"/>
   <path class="fil3" d="M263.91 491.02c38.32,-60.43 80.27,-110.99 132.81,-140.52 81.05,18.02 142.66,71.38 186.07,157.84 66.05,215.36 -21.22,467.77 -10.35,767.82l-246.53 0 78 -409.35 -130.46 0.91 -9.71 -26.61 10.76 -30.57 -8.66 -36.57 21.49 -12.19 -12.19 -9.95 12.1 -25.26 -10.59 -5.45 37.3 -236.19 -50.04 6.1z"/>
   <path class="fil4" d="M274.5 810.54c18.69,-3.44 37.39,-6.88 56.08,-10.32 -20.98,15.21 -51.04,27.58 -59.09,54.23 -3.12,-10 1.96,-32.95 3.01,-43.91z"/>
   <path class="fil5" d="M277.7 808.12c-6.86,-9.7 -9.78,-19.71 -8.42,-30.04 6.44,1.99 12.89,3.98 19.33,5.98l76.97 -4.62 -35 20.78 -16.62 6.46 -19.09 3.37 -17.16 -1.93z"/>
   <path class="fil2" d="M464.55 497.59c2.02,-3.06 9.25,-6.11 12.87,-7.86 3.11,-1.5 2.3,1.46 -0.09,3.69 -1.39,1.29 -3.35,5.23 2.19,2.63 1.33,-0.62 8.45,-4.03 8.45,-0.88 0,2.99 1.04,1.5 4.77,0.71 2.4,-0.51 4.6,-3.2 4.69,2.66 0.05,2.99 7.21,-3.19 10.4,-1.43 4.5,2.48 1.98,-0.75 3.9,3.37 0.77,1.63 9.13,-3.86 13.47,-3.69 3.6,0.14 6.98,-1.71 7.18,0.96 0.18,2.49 15.59,0.83 19.54,2.06 1.54,0.47 18.39,2.59 18.48,0.83 -2.82,-1.1 -13.28,-3.27 -15.82,-3.57 -3.09,-0.36 1.03,-3.43 -4.03,-3.66 -12.87,-0.6 -4.58,-3.1 -4.52,-4.02 0.22,-3.29 -5.64,-3.18 -7.61,-3.18 -9.09,0 -2.43,-2.42 -2.38,-2.42 1.87,-0.1 -0.05,-4.03 -1.17,-4 -11.3,0.37 -5.63,-0.27 -5.68,-1.94 -0.12,-4.11 -11.77,0.64 -13.27,0.67 -6.93,0.15 1.23,-3.28 1.32,-3.4 4.06,-4.88 -4.64,-1.11 -5.89,-1.1 -22.23,0.31 3.2,-3.38 -12.12,-3.38 -6.34,0 2.22,-2.19 -1.27,-2.09 -10.98,0.31 -3.72,-1.31 -2.57,-4.03 1.01,-2.39 0.68,-3.35 -1.33,-3.35 -3.04,0 -13.02,3.06 -15.08,4.17 -1.35,-3.58 -4.37,1.25 -4.87,-0.36 -2.07,-6.64 -0.39,-0.44 -6.68,-0.44 0,-7.7 -5.96,0.42 -6.02,0.47 -5.9,4.7 -4.14,1.04 -4.4,-3.35 -0.02,-0.31 -6.03,0.93 -6.12,0.99 -8.91,6.08 -2.72,-1.89 -6.08,-0.79 -6.94,2.27 -4.94,1.14 -6.42,-0.88 -2.82,-3.85 -6.9,8.51 -6.9,1.33 -1.86,0 -0.07,-1.79 -0.95,-2.36 -4.89,-3.22 -3.01,2.35 -8.78,5.17 -5.53,2.71 -3.14,3.36 -5.76,5.24 -7.09,5.09 0.42,-4.97 -2.14,-7.27 -0.58,0.09 -9.57,8.99 -9.81,7.1 -0.27,-2.09 2.67,0.19 3.06,-7.43 0.02,-0.42 -9.12,3.87 -9.15,3.89 -9.91,7.27 -3.76,1.02 -4.45,0.51 -2.6,-1.9 -3.19,0.33 -5.48,2.9 -1.71,1.92 -4.05,1.58 -4.17,1.72 -3.88,4.57 -0.92,-0.34 -2.9,0.15 -3.97,0.97 -6.48,5.54 -9.93,5.96 -2.48,0.31 -5.94,4.65 -5.94,1.91 0,-0.65 -1.07,-4.18 -1.44,-2.41 -2.62,0.25 -2.81,6.65 -5.12,7.19 -3.91,0.91 -0.73,-1.77 -6.59,-1.26 -4.43,7.67 -4.81,6.41 -7.42,15.08 -1,3.34 -1.27,1.93 -1.39,5.8 -0.06,1.86 -1.52,5.07 -1.3,9.44 0.04,0.68 -1.55,9.72 -1.44,13.27 0.12,4.06 -1.69,8.69 5.92,3.13 3.68,-2.69 6.35,-11.24 8.3,-5.43 6.15,2.36 9.39,-7.22 9.2,-2.47 -0.01,0.39 4.91,-2.19 4.69,-3.13 -0.04,-0.19 -0.28,4.37 5.59,-1.16 0.72,-0.68 6.64,-4.95 7.16,-3.84 1.39,3 4.4,-3.91 4.85,-0.88 0.15,1.04 3.2,-0.69 5.75,-1.12 3.66,-0.62 4.08,-3.47 6.02,-0.92 1.7,2.25 5.26,-4.51 3.68,1.55 -0.73,2.79 5.39,-2.13 7.06,-4.93 3.23,-5.42 3.03,-0.23 4.1,-0.59 2.84,-0.97 3.75,-3.14 4.67,-1.51 3.35,0.53 1.25,-3.05 6.73,-2.87 1.96,0.06 1.21,-3.91 4.01,-0.95 2.01,2.13 4.09,-4.7 8.7,-2.19 3.58,1.95 3.39,-4.55 7.23,-2.47 1.18,0.64 2.57,-0.42 3.01,1.44 4.51,0 1.28,-3.65 7.22,-2.22 3.58,0.86 2.48,-2.08 4.81,0.98 0.72,0.95 3.49,0.28 5.45,0.28z"/>
   <path class="fil6" d="M246.82 520.29c-21.14,79.7 -25.8,162.4 -9.31,248.94l35.93 98.49c-4.54,-21.74 -2.09,-38.67 7.06,-51.01 1.75,-4.74 30.97,-3.71 50.36,-16.68 -9.67,3.94 -19.53,6.86 -29.83,7.38 -7.54,0.75 -14.44,-0.19 -21.17,-1.6 -4.9,-7.2 -8.35,-16.32 -10.26,-26.95l18.61 5.78c25.77,0.85 52.19,-3.42 78.28,-5.13 -6.36,-0.4 -12.57,-1.36 -17.64,-3.85l-39.3 -28.23 -20.21 9.79 -8.02 -6.42 5.94 -24.22 -10.59 -5.45 37.3 -236.19 -50.04 6.1 -17.09 29.27z"/>
   <path class="fil4" d="M468.34 682.73c-34.61,34.62 -83.78,26.07 -103.21,-9.08 34.61,25.91 68.65,21.6 97.2,-2.89l33.96 -0.68 -27.95 12.65z"/>
   <polygon class="fil2" points="457.71,308.37 456.42,207 473.26,207.32 495.24,179.41 553.62,178.29 572.23,200.59 588.51,200.1 588.29,295.95 "/>
   <polygon class="fil7" points="534.47,294.64 462.26,304.69 460.01,211.02 470.92,218.39 496.75,184.95 518.84,217.82 534.12,207.49 "/>
   <path class="fil2" d="M467.19 220.72c1.09,0 1.96,1.27 1.96,2.84 0,1.57 -0.88,2.85 -1.96,2.85 -1.09,0 -1.97,-1.28 -1.97,-2.85 0,-1.57 0.88,-2.84 1.97,-2.84z"/>
   <path class="fil2" d="M480.79 303.72l27.79 -0.18 -2.06 -66.85c-2.19,-15.4 -26.86,-12.77 -27.36,2.06l1.64 64.97z"/>
   <polygon class="fil8" points="539.5,204.4 585.37,202.99 585.37,293.3 539.5,296.79 "/>
   <path class="fil2" d="M526.9 219.07c1.09,0 1.97,1.28 1.97,2.85 0,1.57 -0.88,2.84 -1.97,2.84 -1.09,0 -1.96,-1.27 -1.96,-2.84 0,-1.57 0.88,-2.85 1.96,-2.85z"/>
   <path class="fil9" d="M466.73 679.85c-34.61,34.62 -83.79,26.07 -103.22,-9.08 34.61,25.91 68.65,21.6 97.2,-2.89l33.97 -0.68 -27.95 12.65z"/>
   <path class="fil10" d="M598.97 660.38c6.97,0 13.87,0.33 20.66,0.96l-14.37 193.94 -202.48 7.9c-1.25,-8.09 -1.91,-16.34 -1.91,-24.73 0,-98.34 88.69,-178.07 198.11,-178.07z"/>
   <path class="fil8" d="M578.36 1027.2c-24.49,-83.76 -81.98,-135.87 -174.91,-158.04l192.03 -14.74 -17.13 172.78z"/>
   <path class="fil11" d="M373.5 696.93c2.39,0 4.33,1.94 4.33,4.33 0,2.39 -1.94,4.33 -4.33,4.33 -2.39,0 -4.33,-1.94 -4.33,-4.33 0,-2.39 1.94,-4.33 4.33,-4.33z"/>
   <path class="fil11" d="M397.47 707.6c2.39,0 4.33,1.94 4.33,4.33 0,2.39 -1.94,4.33 -4.33,4.33 -2.39,0 -4.33,-1.94 -4.33,-4.33 0,-2.39 1.94,-4.33 4.33,-4.33z"/>
   <path class="fil11" d="M428.83 708.88c2.39,0 4.33,1.94 4.33,4.33 0,2.39 -1.94,4.33 -4.33,4.33 -2.39,0 -4.33,-1.94 -4.33,-4.33 0,-2.39 1.94,-4.33 4.33,-4.33z"/>
   <path class="fil11" d="M455.62 699.98c2.39,0 4.33,1.94 4.33,4.33 0,2.39 -1.94,4.33 -4.33,4.33 -2.39,0 -4.33,-1.94 -4.33,-4.33 0,-2.39 1.94,-4.33 4.33,-4.33z"/>
   <polygon class="fil2" points="403.46,869.16 273.44,867.72 602.5,852.5 602.4,853.88 "/>
   <path class="fil4" d="M586.37 506.64c-41.88,-78.79 -116.26,-135.65 -192.78,-154.34 83.8,38.4 143.95,91.25 181.55,157.87 18.88,111.02 22.06,225.34 8.43,343.2l18.93 -0.88 -0.11 1.39c11.64,-117.1 7.93,-233.72 -16.03,-347.24zm-2.99 348.7l-40.32 420.82 21.17 0c12.72,-140.76 25.44,-281.52 38.16,-422.28l-19.02 1.46z"/>
   <path class="fil4" d="M283.98 724.85l-3.46 -5.62c17.07,7.16 24.84,-4.84 37.62,-5.93 5.17,-0.2 9.7,0.98 13.8,3.13 5.91,1.87 11.22,-0.22 8.99,-10.28 -2.43,-2.18 -6.19,-3.58 -9.8,-5.02 4.12,0.9 7.64,2.51 11.33,3.89 2.54,5.19 2.03,10.05 -0.46,14.7l-9.5 1.33 -19.24 -2.83 -15 6.62 -14.27 0.01z"/>
   <path class="fil4" d="M281.23 751.03l9.62 -20.24 10.95 -2.98c21.98,-9.46 29.26,-0.99 41.3,-7.48l-26.93 -1.67 -15.25 5.76 -16 2.68 -3.69 23.93z"/>
   <path class="fil12" d="M578.36 1027.2c-2.62,-8.94 -5.61,-17.52 -8.98,-25.75l14 -146.11 12.11 -0.93 -17.13 172.78z"/>
   <path class="fil13" d="M582.78 508.34c-37.49,-75.26 -132.08,-145.26 -227.13,-167.37 50.2,-31.49 115.76,-48.37 173.61,-50.47 201.27,-7.75 344.56,150.62 357.16,309.9l39.66 675.76c-117.59,0 -254.42,0 -372.01,0 9.85,-275.98 78.24,-528.56 28.72,-767.82z"/>
   <path class="fil4" d="M362.7 795.41c9.72,-7.79 11.61,-26.22 -5.61,-26.63 8.02,3.6 11.07,11.47 5.61,26.63z"/>
   <path class="fil14" d="M228.9 703.18c14.76,3.39 30.53,-4.96 38.98,-18.99 -13.73,9.64 -27.29,11.23 -39.69,6.69 0.18,3.67 0.47,8.61 0.72,12.29z"/>
   <path class="fil11" d="M211.8 688.59c17.47,19.59 45.28,13.84 57.52,-6.48 -19.18,13.47 -38.04,11.23 -53.86,-1.5l-18.82 -0.35 15.17 8.34z"/>
   <polygon class="fil14" points="309.03,516.13 280.43,697.53 300.97,514.86 "/>
   <path class="fil2" d="M280.43 697.53c7.86,-57.37 16.04,-118.35 23.89,-175.72 -0.04,-0 -1.46,0.73 -1.72,0.15 -2.79,-6.21 -0.74,-1.82 -6.1,-1.12 -3.13,-5.04 -6.45,4.03 -8.06,0.73 -1.93,-3.93 -0.77,-1.4 -3.46,-1.22 -3.7,-5.93 -5.35,4.22 -7.24,0.56 -1.3,-2.5 -2.21,0.02 -2.3,-1.01 -0.6,-6.81 -8.72,5.04 -9.14,2.44 -0.96,-5.89 -3,0.63 -3.85,-2.3 -1.77,-6.09 -6.08,1.08 -7.98,0.64 -0.69,-4.04 -4.16,2.41 -5.13,0.67 -0.91,-1.63 0.17,0.56 -3.21,0.32 -0.71,-0.05 1.87,-10.46 1.91,-11.22 0.27,-5.04 4.46,-10.75 4.49,-11.37 0.15,-3.31 2.66,-6.68 4.51,-9.5 1.3,-1.99 2.55,-5.27 4.3,-4.62 6.47,2.41 4.56,-1.92 6.4,-1.14 5.01,2.14 3.52,-2.06 4.66,-0.83 4.07,4.4 5.11,-4.79 6.63,-2.78 4.83,6.38 2.91,-0.1 5.2,1.38 3.61,2.33 2.95,-1.92 3.56,-2.26 5.76,-3.22 1.34,-1.47 4.52,2.29 0.97,-1.01 5.85,-5.95 7.05,-4.37 2.96,3.92 2.16,0.45 4.65,0.45 0,0.79 0.99,4.63 1.74,2.89 3.09,-7.18 2.55,-0.84 3.88,-0.19 0.21,0.1 4.77,-1.25 4.97,-3.5 0.8,0.27 1.6,0.53 2.41,0.8 -11.92,80.57 -23.84,161.15 -35.77,241.73 0.31,1.06 1.18,2.59 2.25,2.81 4.97,1.18 10.19,1.47 15.88,1.36 6.79,-1.23 10.45,-5.43 17.16,-7.62 5.55,-0.75 12.33,0.38 17.16,3.77 2.17,0.95 5.94,0.21 7.7,-0.64 2.69,-2.89 3.41,-10.01 0.72,-13.36 -5.44,-2.93 -12.33,-5.25 -18.69,-7.18 7.19,1.42 13.88,3.36 19.95,6.38 3.53,3.55 3.27,11.97 -0.26,15.37 -3.7,1.66 -5.8,2.06 -9.58,1.99 -7.27,-2.17 -14.7,-2.56 -21.82,-0.96 -4.06,1.66 -8.13,3.31 -12.19,4.97 -3.9,0.86 -7.8,1.71 -11.71,2.57 -2.19,7.38 -4.38,14.76 -6.58,22.14 0.48,-8.77 0.74,-15.94 1.23,-24.71 -4.68,-1.58 -7.37,-6.35 -12.61,-7.77 -2.4,-4.58 0.08,-9.24 4.85,-18.44 2.51,-1.44 3.3,-2.09 5.74,-2.58z"/>
   <polygon class="fil15" points="276.16,876.14 403.46,869.16 369.71,1046.26 "/>
   <polygon class="fil16" points="797.38,702.6 800,702.6 799.32,1276.16 796.7,1276.16 "/>
   <path class="fil16" d="M798.79 703.13c-20.21,-4.89 -30.2,-17.61 -29.4,-38.59 18.23,3.02 27.96,15.97 29.4,38.59z"/>
   <path class="fil16" d="M798.7 703.09c14.25,-3.44 21.29,-12.41 20.73,-27.21 -12.86,2.13 -19.72,11.26 -20.73,27.21z"/>
   <polygon class="fil16" points="761.88,912.46 764.51,912.46 764.21,1276.16 761.58,1276.16 "/>
   <path class="fil16" d="M763.3 912.98c-20.21,-4.89 -30.2,-17.61 -29.4,-38.59 18.23,3.02 27.96,15.97 29.4,38.59z"/>
   <path class="fil16" d="M763.21 912.95c14.25,-3.44 21.29,-12.41 20.73,-27.21 -12.86,2.13 -19.71,11.26 -20.73,27.21z"/>
   <path class="fil16" d="M763.2 861.9c4.64,0 8.4,3.76 8.4,8.4 0,4.64 -3.76,8.4 -8.4,8.4 -4.64,0 -8.4,-3.76 -8.4,-8.4 0,-4.64 3.76,-8.4 8.4,-8.4z"/>
   <path class="fil16" d="M798.69 652.05c4.64,0 8.4,3.76 8.4,8.4 0,4.64 -3.76,8.4 -8.4,8.4 -4.64,0 -8.4,-3.76 -8.4,-8.4 0,-4.64 3.76,-8.4 8.4,-8.4z"/>
   <polygon class="fil16" points="847.36,1027.25 844.74,1027.25 845.01,1276.16 847.63,1276.16 "/>
   <path class="fil16" d="M845.95 1027.77c20.21,-4.89 30.2,-17.61 29.4,-38.59 -18.23,3.02 -27.96,15.97 -29.4,38.59z"/>
   <path class="fil16" d="M846.04 1027.74c-14.24,-3.44 -21.29,-12.41 -20.73,-27.21 12.86,2.13 19.72,11.26 20.73,27.21z"/>
   <path class="fil16" d="M846.05 976.69c-4.64,0 -8.4,3.76 -8.4,8.4 0,4.64 3.76,8.4 8.4,8.4 4.64,0 8.4,-3.76 8.4,-8.4 0,-4.64 -3.76,-8.4 -8.4,-8.4z"/>
   <polygon class="fil4" points="803.3,698.18 805.92,698.18 805.24,1276.16 802.62,1276.16 "/>
   <path class="fil17" d="M804.71 698.7c-20.21,-4.89 -30.2,-17.61 -29.4,-38.59 18.24,3.02 27.96,15.97 29.4,38.59z"/>
   <path class="fil4" d="M804.63 698.67c14.24,-3.44 21.28,-12.41 20.73,-27.21 -12.86,2.13 -19.72,11.26 -20.73,27.21z"/>
   <polygon class="fil7" points="767.81,908.03 770.43,908.03 770.13,1276.16 767.5,1276.16 "/>
   <path class="fil7" d="M769.22 908.56c-20.21,-4.89 -30.2,-17.61 -29.4,-38.59 18.23,3.02 27.96,15.97 29.4,38.59z"/>
   <path class="fil7" d="M769.13 908.52c14.24,-3.44 21.28,-12.41 20.73,-27.21 -12.86,2.13 -19.72,11.26 -20.73,27.21z"/>
   <path class="fil14" d="M769.12 857.47c4.64,0 8.4,3.76 8.4,8.4 0,4.64 -3.76,8.4 -8.4,8.4 -4.64,0 -8.4,-3.76 -8.4,-8.4 0,-4.64 3.76,-8.4 8.4,-8.4z"/>
   <path class="fil14" d="M804.61 647.62c4.64,0 8.4,3.76 8.4,8.4 0,4.64 -3.76,8.4 -8.4,8.4 -4.64,0 -8.4,-3.76 -8.4,-8.4 0,-4.64 3.76,-8.4 8.4,-8.4z"/>
   <polygon class="fil7" points="853.29,1022.82 850.66,1022.82 850.93,1276.16 853.56,1276.16 "/>
   <path class="fil7" d="M851.88 1023.35c20.21,-4.89 30.19,-17.61 29.4,-38.59 -18.24,3.02 -27.96,15.97 -29.4,38.59z"/>
   <path class="fil7" d="M851.96 1023.31c-14.24,-3.44 -21.28,-12.41 -20.73,-27.21 12.86,2.13 19.72,11.26 20.73,27.21z"/>
   <path class="fil14" d="M851.97 972.26c-4.64,0 -8.4,3.76 -8.4,8.4 0,4.64 3.76,8.4 8.4,8.4 4.64,0 8.4,-3.76 8.4,-8.4 0,-4.64 -3.76,-8.4 -8.4,-8.4z"/>
   <polygon class="fil7" points="255.4,979.88 258.03,979.88 257.78,1276.16 255.16,1276.16 "/>
   <path class="fil7" d="M256.82 980.41c-20.21,-4.89 -30.2,-17.61 -29.4,-38.59 18.23,3.02 27.96,15.97 29.4,38.59z"/>
   <path class="fil7" d="M256.73 980.37c14.24,-3.44 21.28,-12.41 20.73,-27.21 -12.86,2.13 -19.72,11.26 -20.73,27.21z"/>
   <path class="fil14" d="M256.72 929.33c4.64,0 8.4,3.76 8.4,8.4 0,4.64 -3.76,8.4 -8.4,8.4 -4.64,0 -8.4,-3.76 -8.4,-8.4 0,-4.64 3.76,-8.4 8.4,-8.4z"/>
   <path class="fil8" d="M495 204.5c-3.38,-2.79 -4.79,-3.15 -6.24,-1.37 -1.49,1.83 4.25,9.48 5.16,10.71 1.77,-1.04 9.76,-9.26 6.99,-12.18 -1.14,-1.2 -5.1,0.9 -5.91,2.84z"/>
   <path class="fil18" d="M111.29 702.21l-4.04 0.52 -1.5 -2.33 16.09 -5.53c0.83,-0.3 1.42,-0.52 1.76,-0.66 0.34,-0.14 0.6,-0.27 0.79,-0.39 0.71,-0.46 1.11,-1.05 1.22,-1.78 0.09,-0.73 -0.12,-1.51 -0.65,-2.32 -0.55,-0.86 -1.29,-1.63 -2.21,-2.3 -0.92,-0.67 -1.98,-1.2 -3.17,-1.6 -2.29,-0.78 -4.78,-0.94 -7.45,-0.47 -2.67,0.47 -5.28,1.52 -7.83,3.17 -4.17,2.7 -6.55,6.53 -7.13,11.52 -0.59,4.98 0.77,10.03 4.07,15.14 1.86,2.88 3.96,5.24 6.31,7.1 2.36,1.86 4.97,3.22 7.86,4.08 3.63,1.08 7.2,1.36 10.7,0.85 3.5,-0.51 6.88,-1.82 10.14,-3.92 2.85,-1.84 5.04,-3.96 6.56,-6.34 1.52,-2.38 2.45,-5.11 2.8,-8.22 0.26,-2.55 0.02,-5.24 -0.73,-8.06 -0.75,-2.82 -1.97,-5.54 -3.65,-8.15 -1.82,-2.81 -4,-5.3 -6.55,-7.46 -2.54,-2.17 -5.31,-3.87 -8.31,-5.13l0.73 -1.83c3.39,1.24 6.4,2.92 9.06,5.02 2.65,2.12 4.92,4.63 6.83,7.58 2.03,3.14 3.49,6.24 4.38,9.3 0.88,3.05 1.21,6.05 0.96,8.99 -0.29,3.8 -1.32,7.14 -3.1,10 -1.77,2.87 -4.35,5.4 -7.74,7.58 -3.35,2.16 -6.95,3.48 -10.77,3.95 -3.84,0.47 -7.76,0.07 -11.78,-1.21 -3.19,-1.01 -6.13,-2.59 -8.82,-4.73 -2.69,-2.15 -5.06,-4.82 -7.12,-8.01 -1.72,-2.66 -2.99,-5.43 -3.81,-8.3 -0.83,-2.88 -1.13,-5.58 -0.91,-8.12 0.26,-3.18 1.1,-5.98 2.53,-8.43 1.43,-2.44 3.38,-4.47 5.87,-6.08 2.81,-1.81 5.69,-2.94 8.63,-3.39 2.93,-0.45 5.81,-0.19 8.61,0.76 1.63,0.58 3.1,1.36 4.41,2.36 1.3,1 2.39,2.17 3.26,3.52 1.03,1.6 1.49,2.99 1.38,4.17 -0.11,1.18 -0.8,2.17 -2.05,2.98 -0.06,0.04 -0.18,0.11 -0.36,0.2 -0.17,0.09 -0.3,0.16 -0.38,0.21 1.97,-0.07 3.74,0.26 5.32,1.02 1.57,0.75 2.84,1.89 3.82,3.4 1.63,2.52 2.17,4.89 1.65,7.08 -0.52,2.21 -2.11,4.16 -4.76,5.87 -3.78,2.44 -7.69,3.39 -11.73,2.84 -4.04,-0.54 -7.08,-2.41 -9.14,-5.6 -1,-1.55 -1.5,-3.06 -1.51,-4.55 -0,-1.49 0.49,-2.92 1.48,-4.32zm10.46 -3.67l-7.12 2.42c-1.33,1.28 -2.13,2.67 -2.39,4.17 -0.25,1.51 0.06,2.93 0.93,4.28 1.63,2.52 4.08,3.92 7.34,4.15 3.26,0.23 6.57,-0.74 9.93,-2.9 1.83,-1.18 2.96,-2.55 3.39,-4.11 0.44,-1.56 0.14,-3.14 -0.88,-4.73 -1.14,-1.76 -2.73,-2.94 -4.78,-3.53 -2.04,-0.6 -4.19,-0.51 -6.42,0.26zm-24.35 -36.99c2.25,3.24 4.5,5.47 6.74,6.66 2.25,1.2 4.29,1.27 6.13,0.21 1.34,-0.77 2.16,-1.87 2.46,-3.28 0.3,-1.42 0.01,-2.9 -0.89,-4.44 -0.6,-1.03 -1.36,-1.89 -2.3,-2.57 -0.93,-0.68 -2.09,-1.21 -3.46,-1.59l-8.68 5.01zm11.41 -6.66l0.22 0.49c1.58,0.42 2.89,1.01 3.96,1.76 1.07,0.75 1.94,1.73 2.63,2.91 1.24,2.15 1.59,4.38 1.05,6.69 -0.54,2.3 -1.82,4.04 -3.84,5.2 -2.65,1.53 -5.48,1.55 -8.47,0.02 -2.98,-1.52 -6.04,-4.52 -9.15,-9.01 -0.2,0.09 -0.42,0.2 -0.65,0.32 -0.23,0.12 -0.56,0.31 -0.98,0.56 -2.02,1.17 -3.27,2.41 -3.74,3.71 -0.47,1.31 -0.2,2.84 0.8,4.56 0.8,1.39 1.72,2.34 2.76,2.83 1.04,0.5 2.36,0.63 3.96,0.38l1.51 2.62 -3.98 2.3c-1.63,-0.84 -3.03,-1.8 -4.18,-2.89 -1.16,-1.08 -2.15,-2.33 -2.97,-3.76 -0.92,-1.59 -1.46,-3.17 -1.62,-4.75 -0.17,-1.58 0.05,-3.04 0.65,-4.38 0.37,-0.82 0.95,-1.6 1.75,-2.31 0.81,-0.73 2.29,-1.71 4.44,-2.96l0.74 -0.42 1.4 -0.81 13.75 -7.94 2.11 3.65 -2.14 1.24zm-23.74 -18.88c1.89,3.46 3.89,5.92 5.99,7.34 2.1,1.44 4.13,1.72 6.07,0.86 1.41,-0.63 2.35,-1.63 2.79,-3 0.45,-1.38 0.31,-2.88 -0.41,-4.51 -0.48,-1.09 -1.15,-2.02 -2.01,-2.8 -0.85,-0.77 -1.95,-1.43 -3.27,-1.95l-9.16 4.06zm12.06 -5.41l0.17 0.51c1.52,0.59 2.76,1.32 3.75,2.17 0.98,0.86 1.75,1.92 2.31,3.18 1.01,2.27 1.12,4.53 0.33,6.76 -0.79,2.23 -2.24,3.82 -4.37,4.76 -2.8,1.24 -5.62,0.96 -8.42,-0.88 -2.8,-1.83 -5.52,-5.14 -8.13,-9.93 -0.21,0.07 -0.44,0.15 -0.68,0.25 -0.24,0.1 -0.59,0.25 -1.04,0.45 -2.14,0.95 -3.51,2.05 -4.11,3.29 -0.61,1.25 -0.5,2.8 0.31,4.62 0.65,1.47 1.46,2.51 2.44,3.11 0.98,0.61 2.28,0.88 3.89,0.8l1.23 2.77 -4.2 1.86c-1.53,-1.01 -2.82,-2.12 -3.85,-3.32 -1.04,-1.2 -1.89,-2.55 -2.55,-4.05 -0.74,-1.68 -1.12,-3.31 -1.11,-4.89 -0,-1.59 0.38,-3.01 1.12,-4.29 0.46,-0.77 1.12,-1.48 1.99,-2.11 0.88,-0.64 2.46,-1.46 4.73,-2.47l0.78 -0.34 1.48 -0.66 14.51 -6.43 1.71 3.85 -2.26 1zm-29.38 -1.2l-1.53 -3.86 2.11 -0.83c0.7,-0.28 1.28,-0.46 1.72,-0.55 0.44,-0.1 0.91,-0.15 1.4,-0.14l0.11 -0.83c-2.01,-0.13 -3.82,-0.78 -5.42,-1.96 -1.6,-1.18 -2.77,-2.73 -3.53,-4.64l-0.12 -0.3 4.37 -1.7c0.79,1.88 1.76,3.42 2.93,4.63 1.18,1.22 2.71,2.25 4.61,3.09l18.99 -7.52 1.53 3.86 -27.17 10.76zm16.09 -40.18l1.53 4.3c0.79,2.21 0.86,3.91 0.2,5.09 -0.64,1.18 -2.46,2.3 -5.42,3.36l-17.12 6.09 1.19 3.34 -3.11 1.11 -1.19 -3.34 -8.67 3.08 -1.39 -3.91 8.67 -3.08 -2.22 -6.23 3.11 -1.11 2.22 6.23 17.12 -6.09c1.93,-0.69 3.02,-1.28 3.26,-1.77 0.24,-0.49 0.07,-1.57 -0.52,-3.23l-0.95 -2.66 3.28 -1.17zm-9.22 -23.58c1.62,1.07 2.91,2.28 3.87,3.63 0.97,1.35 1.72,3 2.26,4.96 1.01,3.64 0.53,6.77 -1.45,9.37 -1.97,2.6 -5.39,4.57 -10.23,5.92 -4.69,1.31 -8.61,1.41 -11.77,0.3 -3.17,-1.1 -5.2,-3.3 -6.11,-6.58 -0.92,-3.31 -0.32,-6.24 1.79,-8.79 2.12,-2.54 5.61,-4.48 10.46,-5.83l1.08 -0.3 4.61 16.57 0.7 -0.2c2.98,-0.82 5.13,-2.11 6.48,-3.85 1.34,-1.74 1.71,-3.71 1.09,-5.92 -0.39,-1.38 -1.04,-2.57 -1.95,-3.57 -0.91,-0.99 -1.97,-1.68 -3.17,-2.03l-0.78 -2.82 3.13 -0.87zm-12.12 7.8c-3.11,1.01 -5.38,2.28 -6.79,3.84 -1.41,1.55 -1.86,3.24 -1.35,5.08 0.54,1.93 1.78,3.19 3.74,3.77 1.96,0.59 4.57,0.47 7.82,-0.35l-3.43 -12.34zm-26.7 -7.05l-0.82 -4.06 40.13 -8.15 0.83 4.07 -40.13 8.15zm-2.43 -11.94l-0.92 -4.48 4.53 -0.93 0.93 4.47 -4.54 0.94zm11.45 -2.55l-0.84 -4.06 28.62 -5.91 0.84 4.06 -28.62 5.91zm2.33 -18.65l17.25 -2.2c0.98,-1.09 1.67,-2.1 2.07,-3.03 0.4,-0.93 0.53,-1.87 0.41,-2.79 -0.26,-2.05 -1.45,-3.45 -3.57,-4.23 -2.12,-0.77 -5.13,-0.91 -9.03,-0.42 -3.85,0.49 -6.69,1.38 -8.53,2.65 -1.84,1.28 -2.63,2.94 -2.37,4.99 0.12,0.94 0.49,1.83 1.09,2.63 0.61,0.8 1.5,1.6 2.68,2.4zm-16.99 6.35l-0.52 -4.12 14.21 -1.81 0.09 -0.64c-1.31,-0.71 -2.32,-1.55 -3.02,-2.49 -0.7,-0.95 -1.13,-2.07 -1.3,-3.37 -0.34,-2.69 0.76,-5.04 3.31,-7.02 2.55,-1.98 6.13,-3.27 10.75,-3.85 4.73,-0.6 8.58,-0.27 11.56,0.99 2.97,1.27 4.63,3.27 4.97,5.98 0.17,1.32 0.04,2.52 -0.4,3.62 -0.43,1.09 -1.18,2.14 -2.26,3.14l0.2 0.6 2.51 -0.32 0.52 4.11 -40.62 5.17zm32.95 -51.98c1.35,1.39 2.36,2.85 3.01,4.38 0.66,1.52 1.04,3.3 1.15,5.32 0.21,3.77 -0.93,6.73 -3.42,8.85 -2.48,2.12 -6.24,3.32 -11.26,3.6 -4.86,0.27 -8.72,-0.46 -11.57,-2.22 -2.86,-1.74 -4.38,-4.33 -4.57,-7.73 -0.19,-3.43 1.02,-6.17 3.62,-8.21 2.62,-2.03 6.44,-3.18 11.46,-3.46l1.12 -0.07 0.96 17.17 0.73 -0.04c3.08,-0.18 5.46,-0.97 7.15,-2.38 1.68,-1.41 2.46,-3.26 2.33,-5.55 -0.08,-1.43 -0.46,-2.74 -1.14,-3.9 -0.68,-1.17 -1.57,-2.06 -2.66,-2.66l-0.17 -2.92 3.24 -0.18zm-13.51 5.03c-3.25,0.33 -5.74,1.09 -7.45,2.31 -1.71,1.22 -2.5,2.77 -2.4,4.67 0.11,2 1.06,3.49 2.85,4.49 1.79,0.99 4.37,1.43 7.72,1.32l-0.72 -12.79zm-13.41 -12.39l0.06 -4.15 2.27 0.03c0.75,0.01 1.35,0.06 1.8,0.15 0.45,0.08 0.9,0.21 1.35,0.4l0.42 -0.72c-1.81,-0.89 -3.24,-2.18 -4.27,-3.88 -1.03,-1.7 -1.52,-3.58 -1.49,-5.63l0 -0.32 4.69 0.1c0.01,2.03 0.32,3.83 0.94,5.4 0.63,1.57 1.65,3.11 3.08,4.62l20.42 0.3 -0.06 4.15 -29.22 -0.42zm29.65 -31.02l-0.06 4.56c-0.03,2.35 -0.55,3.96 -1.58,4.84 -1.01,0.88 -3.1,1.31 -6.25,1.26l-18.17 -0.23 -0.04 3.54 -3.31 -0.04 0.05 -3.55 -9.2 -0.12 0.05 -4.15 9.2 0.12 0.08 -6.62 3.31 0.04 -0.09 6.61 18.17 0.23c2.05,0.03 3.28,-0.15 3.67,-0.52 0.4,-0.38 0.61,-1.44 0.63,-3.21l0.04 -2.82 3.49 0.04zm1.07 -16.67l-0.34 4.55c-0.18,2.34 -0.8,3.92 -1.87,4.73 -1.07,0.82 -3.18,1.11 -6.32,0.87l-18.12 -1.37 -0.27 3.54 -3.3 -0.25 0.27 -3.54 -9.18 -0.7 0.31 -4.14 9.18 0.7 0.5 -6.59 3.3 0.25 -0.5 6.59 18.12 1.37c2.05,0.15 3.28,0.06 3.7,-0.29 0.42,-0.35 0.7,-1.41 0.83,-3.17l0.21 -2.82 3.48 0.26zm-13.2 -22.09c-0.21,3.94 0.19,7.08 1.22,9.4 1.03,2.33 2.6,3.64 4.7,3.93 1.53,0.21 2.85,-0.15 3.95,-1.08 1.11,-0.94 1.78,-2.28 2.03,-4.05 0.17,-1.18 0.09,-2.33 -0.23,-3.44 -0.32,-1.11 -0.9,-2.24 -1.75,-3.38l-9.93 -1.38zm13.1 1.77l-0.12 0.52c0.98,1.3 1.66,2.58 2.04,3.82 0.38,1.25 0.47,2.55 0.28,3.92 -0.34,2.46 -1.44,4.43 -3.28,5.92 -1.85,1.48 -3.92,2.06 -6.22,1.74 -3.04,-0.42 -5.28,-2.15 -6.7,-5.19 -1.42,-3.03 -1.98,-7.28 -1.68,-12.73 -0.22,-0.05 -0.45,-0.1 -0.71,-0.15 -0.26,-0.04 -0.63,-0.1 -1.12,-0.17 -2.31,-0.32 -4.06,-0.11 -5.23,0.63 -1.18,0.74 -1.9,2.11 -2.18,4.09 -0.22,1.59 -0.08,2.9 0.44,3.92 0.51,1.04 1.47,1.95 2.89,2.73l-0.42 3 -4.54 -0.63c-0.77,-1.66 -1.28,-3.28 -1.52,-4.84 -0.25,-1.56 -0.26,-3.16 -0.03,-4.79 0.25,-1.82 0.8,-3.4 1.64,-4.74 0.83,-1.35 1.91,-2.36 3.21,-3.05 0.8,-0.42 1.73,-0.67 2.81,-0.74 1.08,-0.08 2.85,0.06 5.32,0.4l0.85 0.12 1.6 0.22 15.72 2.19 -0.58 4.17 -2.45 -0.34z"/>
   <g>
    <path class="fil19" d="M986.37 1062.33c0.79,8.42 -1.72,26.62 -2.35,35.97 -0.41,6.03 -0.4,12.38 -0.59,18.66 -0.16,5.35 0.91,13.8 -2.47,16.56 -4.79,3.92 -20.22,11.19 -28.48,9.19 -2.73,-0.66 -11.67,-3.95 -13.73,-4.96 -33.43,-16.36 -17.48,-69.7 17.05,-80.04 9.99,-2.99 23.81,-0.7 30.57,4.62zm-227.5 -79.47c10.75,-2.51 20.76,5.58 20.71,15.86 -0.03,6.27 -5.66,23.87 -7.42,30.4 -5.25,19.5 -10,40.95 -13.59,61.35 -6.19,35.17 -10.41,67.14 -9.57,103.13 0.15,6.7 1.01,10.96 -2.22,16.39 -6.74,11.3 -29.23,12.18 -31.51,-9.21 -1.28,-11.95 -0.25,-24.66 0.25,-36.52 2.18,-51.81 14.71,-109.9 27.97,-159.78 2.89,-10.86 5,-19.21 15.39,-21.63zm-36.73 -31c11.14,-2.45 19.45,5.48 19.85,15.88 0.21,5.41 -6.73,21.66 -8.67,27.39 -18.33,54.16 -24.31,98.68 -22.78,156.15 0.23,8.74 -0.02,20.24 -12.86,22.82 -12.5,2.52 -19.14,-5.65 -20.54,-16.06 -3.42,-25.44 1.58,-76.92 5.23,-101.33 2.77,-18.56 8.55,-41.72 13.96,-58.51 3.13,-9.71 5.69,-17.69 9.17,-26.77 3.83,-9.99 6.13,-17.26 16.64,-19.57zm305.55 211.39c-0.29,10.14 2,26.22 4.08,35.69 1.22,5.54 2.25,10.72 3.72,15.62 1.25,4.15 3.54,10.55 3.74,14.96 0.48,10.69 -9.46,19.86 -21.3,16.52 -10.79,-3.04 -11.85,-12.66 -13.84,-24.31 -3.75,-21.96 -7,-46.95 -8.33,-69.63 -2.94,-50.26 5.23,-126.59 16.39,-176.49 2.19,-9.8 3.54,-22.92 9.95,-28.44 6.7,-5.77 23.11,-4.79 33.58,-5.63 53.67,-4.28 130.78,-30.4 181.45,-50.08 11.41,-4.43 21.48,-7.01 27.99,3.05 8.38,12.96 -1.42,21.19 -7.62,26.34 -7.12,5.91 -13.97,11.25 -21.28,17.04l-42.8 34.65c-24.72,19.72 -16.56,15.77 -45.07,32.4 -15.77,9.2 -32.45,20.74 -45.74,31.71 -17.28,14.27 -34.39,31.14 -45.72,51.33 -3.38,6.03 -3.77,7.13 -7.7,11.03 -2.83,2.8 -17.76,16.98 -18.76,19.58 7.2,3.55 7.11,4.19 13.81,12.29 2.87,3.47 5.05,13.07 7.96,18.07 17.27,29.66 51.21,28.43 64.85,37.94 6.44,4.49 25.45,16.11 34.88,16.67 3.72,-4.09 6.68,-9.16 10.15,-13.67 13.83,-17.99 8.44,-12.44 26.59,-20.67 4.48,-2.03 11.04,-5.47 14.74,-8.11 17.67,-12.55 32.63,-27.08 40.45,-53.27 7.68,-25.72 0.37,-25 10.25,-37.09l21.58 -24.89c9.72,-11.95 44.2,-43.81 45.84,-47.34 -57.56,-5.87 -108.39,22.09 -115.86,22.49 -6.32,0.34 -7.94,-1.75 -15.73,0.99 -11.7,4.11 -9.51,11.65 -18.45,16.67 -3.82,2.14 -7.33,4.11 -10.98,6.16 -15.38,8.62 -29.06,17.97 -41.82,27.48 -8.52,6.35 -33.78,24.9 -35.27,34.89 -2.81,18.91 18.61,31.34 34.73,34.67 31.82,6.58 74.9,-19.2 85.46,-53.15 11.16,-35.89 -21.83,-21.99 -20.28,-45.99 0.98,-15.2 21.91,-23.35 42.76,-1.6 37.18,38.79 -6.14,108.02 -56.74,126.73 -38.21,14.13 -76.1,11.74 -104.16,-18.02 -6.75,-7.15 -11.18,-14.03 -10.75,-24.76 2.21,-54.85 75.89,-101.91 119.39,-125.58 4.6,-2.51 20.48,-10.11 22.84,-12.27 2.71,-2.49 0.44,-2.09 5.07,-3.89 18.61,-7.26 56.48,-19.88 73.29,-22 18.68,-2.36 45.57,-0.29 60.54,6.94 7.94,3.84 14.26,9.39 17.84,17.3 10.52,23.25 -2.47,34.54 -16.78,47.04 -30.16,26.35 -59.98,57.62 -85.11,89.37 -17.82,22.52 -49.22,65.79 -64.35,92.98 -1.91,3.44 -3.53,8.5 -5.71,11.44 -2.59,3.48 -15.28,12.75 -21.48,13.64 -14.99,2.15 -40.18,-13.14 -49.96,-19.24 -15.16,-9.47 -28.09,-18.23 -41.89,-28.23 -6.07,-4.4 -36.82,-27.75 -40.47,-29.33zm-106.51 -88.69c-0.89,2.82 -2.94,5.57 -4.34,8.72 -1.33,2.99 -2.37,6.06 -3.37,9.74 -6.08,22.38 1.78,41.33 21.78,52.31 4.78,2.63 5.67,8.96 8.78,17.3 5.66,15.17 16.97,39.8 24.66,52.76 7.11,11.99 14.56,26.88 -1.88,34.45 -13.48,6.21 -23.77,-7.12 -33.54,-15.32 -38.45,-32.26 -73.73,-63.65 -122.62,-85.25l-37.37 -14.84c-10.6,-5.33 -15.08,-22.33 2.65,-31.48 33.88,-17.48 65.72,-39.09 94.01,-62.52l27.82 -23.55c4.74,-3.79 9.28,-8.18 13.8,-12.28 36.76,-33.31 80.67,-84.47 107.53,-126.47 3.66,-5.72 6.67,-10.5 10.13,-15.97 10.15,-16.05 27.72,-10.85 31.59,1.97 2.58,8.54 -1.64,13.77 -5.14,19.61 -6.37,10.61 -13.44,21.21 -20.3,31.04 -19.2,27.48 -17.99,18.24 -25.05,27.14 -4.27,5.38 -4.65,11.42 -9.08,17l-36.77 41.51c-4.29,4.38 -8.82,8.48 -13.17,12.91 -11.49,11.68 -42.04,41.96 -55.6,47.92 -6.99,3.07 -7.51,8.68 -12.61,12.71 -9.71,7.67 -19.5,14.9 -30.15,22.03 -2.14,1.44 -29.27,18.74 -30.43,20.95 3.57,2.88 8.16,3.98 11.96,5.92 17.4,8.89 38.72,21.58 54.59,32.72 6.19,4.35 13.92,10.71 19.71,14.05 -0.5,-3.95 -3.46,-10.84 -4.87,-15.03 -5.42,-16.1 -20.04,-74.36 -9.21,-85.33 9.25,-9.37 21.81,-3.11 26.48,5.27zm157.25 -167.78c2.1,-7.78 11.27,-17.71 13.22,-26.21 7.8,-33.99 -21.79,-65.61 -56.61,-58.28 -23.43,4.92 -30.01,20.87 -40.9,37.41 -10.66,16.19 -21.32,31.5 -32.65,45.6 -17.08,21.25 -44.75,53 -65.47,71.51l-31.01 27.7c-9.86,8.56 -58.01,46.42 -66.98,49.82 2.92,-20.9 16.23,-45.35 11.07,-66.63 -3.85,-15.89 -14.28,-26.3 -27.25,-32.29 -5.35,-2.47 -10.67,-1.93 -13.03,-6.56 -9.42,-18.52 -27.7,-32.01 -50.09,-28.04 -24.11,4.27 -33.03,17.36 -41.33,37.99 -14.63,36.33 -26.43,84.27 -30.11,128 -1.92,22.77 -3.73,54.08 -0.75,76.56 1.53,11.54 6.71,20.88 12.71,27.18 3.02,3.17 6.6,6.06 11.08,8.53 18.37,10.14 10.84,-1.64 16.54,16.8 12.55,40.63 71.17,44.88 89.3,4.77 6.29,-13.92 3.4,-33.53 3.81,-50.27 11.17,1.5 47.72,22.68 56.85,28.53 17.8,11.41 33.68,23.18 48.91,35.87 7.83,6.52 15.09,12.99 22.93,19.47 15.05,12.42 30.29,30.86 56.29,27.98 14.3,-1.59 20.54,-7.8 28.8,-13.54 2.86,0.83 7,3.92 10.77,5.48 27.51,11.36 61.84,-5.08 65.84,-41.39 2.82,0.62 23.22,14.65 28.69,17.8 37.05,21.37 66.67,31.44 100.16,1.73 19.03,-16.89 17.01,-37.05 22.89,-47.21 9.39,-16.22 18.28,-25.47 31.77,-37.56 8.7,-7.8 15.02,-12.95 30.1,-15.55 -1.55,-14.67 3.3,-17.22 10.02,-26.69 16.05,-22.59 102.02,-143.73 114.16,-150.82 10.93,-6.38 22.26,0.92 24.63,9.99 2.9,11.09 -6.51,19.69 -11.2,25.46 -14.69,18.06 -94.9,123.84 -95.77,130.49 10.26,1.93 14.56,-11.43 35.43,0.74 5.45,-27.96 7.65,-11 20,-28.07l33.04 -45.23c9.25,-12.39 18.22,-23.66 27.74,-35.86 4.32,-5.54 24.77,-31.17 28.55,-34.27 14.1,-11.53 37.11,5.38 22.94,24.6 -8.67,11.75 -18.72,22.86 -28.04,34.74l-40.9 53.68c-2.28,3.08 -12.05,15.28 -12.03,17.91 6.13,1.41 4.81,0.48 9.18,-2 10.27,-5.82 29.98,-3.36 30.26,-3.44 5.45,-3.75 5.27,-6.7 9.01,-11.13l25.81 -32.08c8.41,-10.47 28.07,-33.9 34.34,-43.12 18.52,-27.25 2.65,-65.06 -28.93,-72.66 -18.86,-4.54 -25.44,3.07 -32.88,2.63 -5.24,-6.56 -6.08,-10.13 -15.46,-17.11 -5.95,-4.43 -14.33,-7.78 -23.65,-8.37 -13.98,-0.88 -27.02,3.87 -36.39,12.84 -2.52,2.41 -5.07,6.3 -7.68,8.01 -2.71,-2.23 -4.74,-5.26 -7.2,-7.67 -7.67,-7.53 -15.67,-12.77 -26.4,-16.91 -16.72,-6.44 -30.76,-6.65 -49.79,-8.03 -0.35,-2.78 19.46,-37.67 -11.87,-63.13 -22.69,-18.44 -43.51,-8.37 -67.08,0.89 -30.04,11.8 -67.38,23.79 -99.55,31.75 -11.33,2.8 -24.88,6.57 -35.84,7.65z"/>
    <path class="fil0" d="M1336.03 1184.58c11.86,-0.96 7.58,8.44 8.5,26.96 0.88,17.54 6.66,25.24 -1.22,28.4 -11.77,4.73 -10.51,-14.22 -10.67,-22.68 -0.19,-9.71 0.23,-24.69 3.38,-32.68zm27.9 -15.41c1.49,-2.44 1.84,-3.86 4.98,-4.25 8.61,-1.07 5.68,14.37 4.51,19.44 -5.84,1.31 -9.08,-0.97 -10.01,-5.71 -3.69,5.22 -4.84,31.33 -0.51,41.83 2.27,-1.57 3.06,-3.58 3.8,-7.69 0.75,-4.17 -0.27,-7.13 0.14,-10.28 1.21,-9.29 18.31,-2.8 7.58,22.78 -2.38,5.67 -6.93,7.43 -14.95,5.31 -10.47,-2.77 -10.45,-23.67 -10.35,-32.91 0.08,-7.13 0.91,-13.15 2.25,-19.93 1.72,-8.74 4.4,-7.45 12.57,-8.58zm-23.53 5.7c-7.89,0.81 -5.88,-0.34 -8.27,-5.43 -4.19,0.29 -6.61,0.7 -7.06,4.6 -1.57,13.53 -0.75,60.07 4.62,70.93 1.93,3.91 4.26,3.84 7.56,5.73 -2.63,4.81 -12.51,12.46 -18.11,4.03 -3.51,-5.28 -3.91,-16.73 -4.35,-24.14 -1.06,-18.07 -0.58,-37.2 -2.14,-55.02 -17.71,4.38 -14.92,13.37 -18.02,29.45 -11.68,0 -9.78,-15 -10.01,-18.59 -10.12,-0.08 -13.09,2.76 -21.17,12.7 -4.12,5.07 -11.78,14.27 -14.39,20.69 1.68,-0.31 45.67,-23.36 55.89,-4.66 10.08,18.44 -17.06,67.79 -35.56,73.87 -12.34,4.05 -22.05,-2.63 -22.08,-14.7 -0.02,-10.59 14.96,-34.62 19.54,-37.58 5.15,-3.33 12.29,0.82 13.97,4.16 -1.32,3.65 -4.7,5.14 -7.32,8.22 -6.77,8 -13.79,22.47 -14.77,33.38 14.65,-3.3 41.01,-48.04 38.76,-64.8 -15.72,-3.16 -36.18,8.16 -50.77,14.44 -6.92,2.98 -11.97,3.18 -13.14,-5.03l5.59 -2.3c-1.44,-4.8 -4.73,-6.4 -2.17,-11.32 1.59,-3.04 4.05,-6.43 6.13,-9.41 7.88,-11.25 28.96,-35.35 44.06,-34.67 2.35,0.11 5.14,1.12 6.76,1.05 3.06,-0.15 2.18,-1.34 4.73,-2.96 8.5,0.6 7.1,2.23 14.45,-2.57l1.12 -7c6.73,-2.34 7.47,0.05 11.33,3.14 6.53,-1.85 27.46,-15.13 29.01,-0.09 -2.95,2.28 -7.1,1.79 -9.36,4.18 -1.14,1.2 -3.85,7.91 -4.85,9.69zm114.05 3.25c0.12,6.54 -3.99,15.56 -6.67,20.23 -5.7,9.89 -25.41,10.14 -27.37,-14.53 -0.77,-9.67 0.9,-38.54 10.31,-42.53 2.39,-1.01 8.34,-1.66 11.5,-1.47 13.61,0.84 4.21,21.84 1.25,28.12 -7.34,15.56 -6.57,10.81 -11.58,14.27 0.33,4.93 1.3,9.88 3.79,13.25 5.36,-4.21 4.39,-16.4 7.34,-21.43 4.69,-0.63 8.76,1.58 11.44,4.11zm13.03 -33.87c3.87,-6.7 2.3,-31.48 17.51,-20.15l-0.45 12.44c-0.26,14.23 4.29,18.61 3.91,23.46 -14.49,3.26 -11.06,-8.62 -14.45,-15.46 -3.11,5.43 -5.76,19.6 -5.76,27.06 0,9.18 3.86,15.81 3.45,21.99 -8.1,0.61 -13.27,0.03 -14.56,-7.53 -1.04,-6.09 -0.99,-14.63 -1.24,-20.99 -0.49,-12.71 -4.02,-27.78 5.82,-26.45 3.05,0.41 3.42,1.96 4.68,4.02 0.73,1.2 0.55,1.02 1.08,1.62zm-61.33 46.26c-5.35,0.12 -9.31,2.83 -13.03,4.58 -0.95,8.79 2.97,16.67 3.38,22.96 -14.76,5.65 -14.56,-1.93 -15.18,-16.31l-0.05 -39.93c0,-6.4 -0.24,-12.29 -1.32,-18.41 -0.63,-3.56 -1.69,-6.37 1.31,-7.53 2.13,-0.82 6,0.05 7.67,0.94 4.86,2.58 3.1,11.03 3.09,16.03 -0,6.16 -0.11,12.41 0.05,18.56 3.83,-1.88 10.49,-23.05 14.59,-24.86 2.44,-1.08 6.68,-0.48 8.18,1.06 1.78,1.84 1.19,5.59 1.05,8.48 -0.34,7.16 0.67,11.68 1.86,18.13 -9.83,5.04 -11.19,0.66 -12.97,-9.39 -3.12,3.13 -7.08,15.03 -7.88,19.59 3.94,-0.67 7.99,-3.69 12.42,-1.13 8.41,4.88 5.9,18.47 6.82,25.9 0.26,2.08 0.62,5.05 1.24,6.9 1.1,3.29 1.82,2.2 2.39,6.07 -2.42,3.71 -5.24,6.31 -11.26,5.94 -6.05,-15.44 -2.75,-21.04 -2.35,-37.59zm105.65 -77.36c0.81,-3.19 0.56,-4.84 5.24,-3.74 6.39,1.5 4.39,12.35 4.7,21.14 -6.09,-0.2 -8.07,-2.18 -9.23,-7.32 -1.19,0.68 -8.04,5.85 -8.76,6.79l10.95 9.05c12.33,11.85 16.96,31.46 3.1,41.27 -17.22,12.18 -35.29,-8.94 -26.56,-24.14 4.08,-7.09 10.72,-2.46 13.87,-0.33 -0.46,7.18 -8.9,12.88 -2.14,21.02 12.59,0.43 15.34,-24.52 -3.56,-41.3 -4.11,-3.65 -11.76,-4.78 -10.22,-10.63 1.72,-2.81 8.16,-4.17 11.19,-6.07 4.27,-2.67 5.38,-4.99 11.42,-5.74zm-655.22 -124.85c0.23,8.31 -16.55,18.05 -26.05,5.66 -8.26,-10.76 2.39,-24.92 13.92,-24.38 8,0.38 17.78,11.34 8.14,16.11 -5.1,2.52 -1.48,1.94 -4.84,5.7 -4.49,5.03 -12.02,0.81 -13.11,-4.2 -1.2,-5.5 2.56,-8.15 8.26,-13.06 4.83,2.18 4.25,6.13 10.15,7.06 -3.09,-13.8 -23.18,-8.84 -21.45,5.23 0.64,5.24 5.62,10.2 12.09,9.83 9.19,-0.52 6.54,-8.86 12.89,-7.96zm13.51 -24.14c1.77,7.84 -8.74,14.36 -15.03,8.57 -6.21,-5.73 -2.29,-16.64 8.31,-15.83 -0.43,6.2 -1.42,2.71 -4.65,5.59 -2.61,2.32 -0.62,5.12 0.42,6.91 10.42,2.43 2.73,-7.44 10.94,-5.24zm15.92 -10.41c-3.23,1.28 -6.71,-0.28 -5.1,-3.43 1.26,-2.46 6.7,-3.54 5.1,3.43zm-22.74 -2.47c4.02,-3.68 2.52,0.55 6.34,-6.42 2.53,1.09 1.6,0.71 3.32,2.51 -0.77,3.74 -2.84,4.54 0.27,8.01 1.86,2.07 3.7,2.98 4.87,5.93l-3.36 2.6 -9.5 -8.66c-1.98,-2.07 -1.53,-0.85 -1.93,-3.98zm29.58 -11.68c-4.2,0.87 -11.6,7.48 -12.9,-0.66 -0.78,-4.87 4.49,-10.35 9.17,-9.38 1.19,6.78 -3.48,1.46 -4.59,8.12 5.22,-0.28 5.72,-4.66 10.66,-2.79 7.72,4.21 -4.92,17.52 -7.76,12.69 -1.48,-4.63 3.29,-1.4 5.43,-7.97zm-2.41 -20.5c4.64,0.19 -0.39,1.06 3.81,1.05 2.9,-0.01 1.64,-2.85 5.38,0.59 -0.54,3.16 -0.68,1.04 -1.91,3.82l4.7 4.77c3.88,-0.33 1.63,-1.34 4.3,-1.29 1.72,0.04 2.1,0.21 2.09,2.05 -0,0.26 -3.35,9.73 -12.1,0.96 -5.34,-5.35 -6.12,1.8 -8.21,-9.87l1.93 -2.09zm12.8 -6.67c2.99,1.28 10.7,9.82 11.89,11.97l-2.92 2.78c-3.03,-1.04 -10.98,-9.58 -12.23,-11.77l3.26 -2.98zm-3.14 -0.01c-5.12,1.53 -5.64,-1.56 -3.4,-4.9 4.34,0.01 4.62,1.37 3.4,4.9zm27.03 -5.3c1.27,9.62 -9.43,14.8 -15.38,8.92 -6.2,-6.13 -0.66,-17.42 8.84,-15.41 0.46,7.65 -10.04,2.04 -5.32,11.99l5.85 0.32c2.26,-3.03 0.88,-6.12 6.01,-5.82zm0.53 -11.33c0.85,-6.43 -0.06,-10.06 4.92,-11.96 0.22,4.23 -0.52,6.43 0.84,9.19l11.23 2.16c-3.24,4.99 -5.07,3.61 -12.11,3.34 -0.15,5.45 1.14,2.62 2.29,6.48l-3.05 2.58c-2.27,-1.39 -15.17,-13.81 -16.37,-16.63l3.48 -3.03 8.77 7.87zm150.77 10.99c10.96,-1.08 24.51,-4.85 35.84,-7.65 32.17,-7.96 69.52,-19.95 99.55,-31.75 23.57,-9.26 44.39,-19.33 67.08,-0.89 31.33,25.46 11.52,60.35 11.87,63.13 19.04,1.38 33.08,1.59 49.79,8.03 10.74,4.14 18.73,9.38 26.4,16.91 2.45,2.41 4.49,5.44 7.2,7.67 2.61,-1.71 5.16,-5.6 7.68,-8.01 9.37,-8.97 22.41,-13.72 36.39,-12.84 9.31,0.58 17.69,3.93 23.65,8.37 9.38,6.99 10.22,10.55 15.46,17.11 7.44,0.44 14.01,-7.16 32.88,-2.63 31.58,7.59 47.45,45.41 28.93,72.66 -6.27,9.23 -25.93,32.66 -34.34,43.12l-25.81 32.08c-3.73,4.43 -3.55,7.38 -9.01,11.13 -0.28,0.08 -19.99,-2.39 -30.26,3.44 -4.37,2.48 -3.04,3.41 -9.18,2 -0.01,-2.64 9.75,-14.84 12.03,-17.91l40.9 -53.68c9.31,-11.88 19.37,-22.99 28.04,-34.74 14.18,-19.22 -8.83,-36.13 -22.94,-24.6 -3.78,3.09 -24.23,28.73 -28.55,34.27 -9.52,12.2 -18.49,23.46 -27.74,35.86l-33.04 45.23c-12.36,17.07 -14.55,0.11 -20,28.07 -20.87,-12.17 -25.17,1.2 -35.43,-0.74 0.87,-6.65 81.08,-112.43 95.77,-130.49 4.69,-5.77 14.1,-14.37 11.2,-25.46 -2.37,-9.07 -13.7,-16.37 -24.63,-9.99 -12.14,7.09 -98.12,128.23 -114.16,150.82 -6.72,9.47 -11.58,12.02 -10.02,26.69 -15.08,2.61 -21.4,7.75 -30.1,15.55 -13.49,12.09 -22.38,21.33 -31.77,37.56 -5.88,10.16 -3.86,30.32 -22.89,47.21 -33.49,29.72 -63.11,19.64 -100.16,-1.73 -5.46,-3.15 -25.87,-17.18 -28.69,-17.8 -4,36.3 -38.34,52.75 -65.84,41.39 -3.78,-1.56 -7.92,-4.65 -10.77,-5.48 -8.27,5.74 -14.5,11.95 -28.8,13.54 -26,2.88 -41.24,-15.56 -56.29,-27.98 -7.84,-6.47 -15.11,-12.94 -22.93,-19.47 -15.22,-12.69 -31.11,-24.46 -48.91,-35.87 -9.13,-5.86 -45.67,-27.04 -56.85,-28.53 -0.42,16.75 2.47,36.36 -3.81,50.27 -18.12,40.11 -76.75,35.86 -89.3,-4.77 -5.7,-18.44 1.83,-6.66 -16.54,-16.8 -4.48,-2.47 -8.06,-5.35 -11.08,-8.53 -6,-6.3 -11.18,-15.64 -12.71,-27.18 -2.99,-22.48 -1.17,-53.79 0.75,-76.56 3.68,-43.73 15.48,-91.67 30.11,-128 8.3,-20.63 17.22,-33.71 41.33,-37.99 22.39,-3.97 40.67,9.53 50.09,28.04 2.36,4.64 7.68,4.09 13.03,6.56 12.96,5.99 23.4,16.4 27.25,32.29 5.16,21.28 -8.15,45.73 -11.07,66.63 8.97,-3.39 57.12,-41.26 66.98,-49.82l31.01 -27.7c20.73,-18.51 48.39,-50.25 65.47,-71.51 11.33,-14.1 21.99,-29.42 32.65,-45.6 10.9,-16.54 17.48,-32.49 40.9,-37.41 34.82,-7.32 64.41,24.29 56.61,58.28 -1.95,8.5 -11.12,18.43 -13.22,26.21zm-123.12 -25.33c-0.55,9.37 -13.84,14.13 -18.01,4.89 -3.74,-8.29 6.64,-18.16 14.92,-9.92 -1.01,4.58 -5.7,5.74 -7.32,9.82 9.13,-0.44 2.16,-6.41 10.4,-4.8zm-6.58 -14c2.55,-3.27 1.13,0.05 5.84,-5.83l4.07 0.92c-1.09,3.57 -3.58,4.27 -0.07,8.29 2.06,2.36 3.52,2.73 5.05,5.75l-3.29 2.96c-2.5,-1.1 -10.36,-9.13 -11.6,-12.08zm23.71 -7.14c-3.45,0.86 -5.6,4.36 -9.39,3.57 -9.56,-1.99 2.79,-18.22 5.78,-12.35 1.88,3.7 -3.54,1.55 -4.58,7.76 4.06,-1.35 6.73,-5 10.94,-2.63 5.96,4.76 -2.62,13.74 -7.99,13 -1.66,-6.54 5,-2.76 5.24,-9.34zm534.78 232.39c7.3,-14.95 42.76,-39.4 45.2,-76.82 2.42,-37.11 -21.97,-63.81 -48.04,-72.81 -25.73,-8.89 -30.55,1.69 -38.24,-5.78 -20.73,-20.13 -52.5,-25.23 -79.7,-13.07 -13.52,6.04 -6.01,7.28 -19.18,-0.6 -21.17,-12.66 -32.69,-10.76 -44.51,-15.69 -1.75,-29.58 -8.33,-42.28 -23.96,-56.89 -13.38,-12.5 -36.54,-22.17 -61.87,-16.77 -10.02,2.14 -20.66,6.9 -30.14,10.53 -14.91,5.71 -82.2,29.8 -90.36,29.02 -0.76,-21.48 -4.02,-33.44 -14.56,-47.62 -24.58,-33.08 -74.28,-38.92 -106.17,-8.99 -9.52,8.94 -8.63,11.23 -13.36,16.62 -4.74,-1.42 -6.17,-4.68 -13.88,-4.73 -13.8,-0.08 -23.27,11.94 -33.06,22.39 -3.58,3.82 -6.13,5.54 -9.78,8.97 -5.56,5.22 -1.24,5.17 -10.82,7.19 -5.56,1.17 -9.18,3.72 -12.01,6.67 -7.36,7.69 -4.04,5.2 -7.26,10.63 -2.23,3.77 -13.54,3.22 -19.69,17.1 -2.52,5.7 -4.14,6.38 -6.85,11.81 -6.01,12.01 -5.7,9.81 -12.57,15.19 -1.88,1.47 -2.89,2.67 -4.55,4.43 -3.2,3.39 -5.72,5.69 -9.04,8.91 -3.67,3.55 -4.99,6.12 -10.31,8.38 -4.77,2.03 -8.89,5.06 -12.79,5.89 -2.32,-4.52 -9.23,-11.06 -13.49,-14.26 -9.62,-7.21 -10.81,-6.02 -17.81,-9.92 -2.21,-1.23 -9.78,-11.84 -12.82,-14.88 -28.52,-28.61 -70,-26.01 -98.2,-2.77 -30.15,24.84 -49.21,126.01 -53.23,167.07 -2.67,27.23 -5.91,78.28 3.41,101.93 6.56,16.68 18.6,29.08 32.64,36.73 4.6,2.5 3.92,2.33 6.1,7.69 12.63,30.9 50.26,53.72 88.64,40.51 45.26,-15.57 47.63,-59.23 49.01,-60.92 0.89,-0.9 -0.28,-0.75 1.76,0.05 0.09,0.04 1.7,0.93 2.08,1.15l12.36 7.29c27.67,17.55 37.37,26.54 61.29,45.51 4.99,3.96 9.56,8 14.44,12.45 21.02,19.17 42.18,35.64 74.05,30.85 21.71,-3.26 21.59,-10.51 30,-7.72 3.44,1.14 6.53,1.97 10.31,2.66 15.98,2.91 31.56,-0.12 44.28,-6.54 15.05,-7.59 18.88,-13.55 27.93,-24.76 4,1.16 13.87,7.25 18.24,9.45 38.04,19.12 66.27,25.19 103.26,0.03 19.22,-13.07 17.17,-15.4 27.09,-28l4.94 1.16c-0.88,5.14 -4.52,10.2 -5.51,17.3 -2.45,17.67 7.96,36.62 27.72,38.66 30.43,3.15 43.46,-27.12 51.88,-36.62 3.38,0.95 5.27,3.19 9.08,4.27 11.87,3.38 27.21,-4.7 33.33,-16.24 1.82,-3.44 2.41,-5.58 4.6,-7.63 6.23,-5.83 18.18,0.38 27.75,-10.58 9.47,-10.85 11.23,5.51 26.3,5.03 7.35,-0.24 14.08,-4.2 17.64,-7.55 8.69,-8.19 5.88,-10.17 9.04,-16.22 25.35,-4.28 14.59,-11.58 27.15,-10.87 13.45,0.76 21.51,-4.14 24.2,-14.49 9.68,2.26 21.05,11.63 40.48,-3.49 8.45,-6.58 16.43,-21.28 13.08,-38.03 -2.63,-13.11 -6.99,-11.28 -4.54,-18.65 1.11,-3.36 0.85,-20.19 0.22,-24.22 -1.08,-6.87 -4.65,-12.91 -9.83,-16.38 -8.42,-5.64 -10.64,-4.13 -21.39,-3.03z"/>
    <path class="fil20" d="M1045.06 976.67c23.33,-3.56 35.2,-3.52 60.89,-9.05l56.72 -14.04c-1.34,2.37 -1.7,2.23 -4.17,4.43l-95.91 84.27c-5.18,4.57 -29.24,27.2 -32.96,29.01 -0.47,-29.91 7.55,-68.28 15.44,-94.62zm-17.37 186.58c3.65,1.58 34.41,24.94 40.47,29.33 13.81,10 26.73,18.76 41.89,28.23 9.78,6.11 34.97,21.4 49.96,19.24 6.2,-0.89 18.89,-10.17 21.48,-13.64 2.18,-2.93 3.8,-8 5.71,-11.44 15.13,-27.19 46.52,-70.46 64.35,-92.98 25.13,-31.75 54.95,-63.02 85.11,-89.37 14.3,-12.49 27.3,-23.79 16.78,-47.04 -3.58,-7.91 -9.9,-13.46 -17.84,-17.3 -14.97,-7.23 -41.86,-9.3 -60.54,-6.94 -16.81,2.12 -54.69,14.74 -73.29,22 -4.63,1.81 -2.36,1.4 -5.07,3.89 -2.35,2.16 -18.23,9.76 -22.84,12.27 -43.5,23.68 -117.18,70.73 -119.39,125.58 -0.43,10.74 4,17.61 10.75,24.76 28.06,29.75 65.94,32.14 104.16,18.02 50.59,-18.7 93.91,-87.94 56.74,-126.73 -20.85,-21.75 -41.78,-13.6 -42.76,1.6 -1.55,24 31.44,10.1 20.28,45.99 -10.56,33.95 -53.65,59.73 -85.46,53.15 -16.12,-3.33 -37.54,-15.77 -34.73,-34.67 1.48,-10 26.74,-28.54 35.27,-34.89 12.76,-9.5 26.44,-18.85 41.82,-27.48 3.65,-2.05 7.16,-4.01 10.98,-6.16 8.94,-5.03 6.75,-12.56 18.45,-16.67 7.79,-2.74 9.41,-0.65 15.73,-0.99 7.47,-0.4 58.3,-28.37 115.86,-22.49 -1.64,3.54 -36.12,35.4 -45.84,47.34l-21.58 24.89c-9.88,12.09 -2.57,11.38 -10.25,37.09 -7.82,26.2 -22.79,40.72 -40.45,53.27 -3.71,2.64 -10.27,6.08 -14.74,8.11 -18.15,8.23 -12.76,2.68 -26.59,20.67 -3.47,4.51 -6.43,9.58 -10.15,13.67 -9.43,-0.56 -28.44,-12.19 -34.88,-16.67 -13.65,-9.51 -47.58,-8.29 -64.85,-37.94 -2.91,-5 -5.09,-14.6 -7.96,-18.07 -6.7,-8.1 -6.62,-8.74 -13.81,-12.29 1,-2.6 15.93,-16.78 18.76,-19.58 3.93,-3.89 4.32,-5 7.7,-11.03 11.33,-20.18 28.44,-37.05 45.72,-51.33 13.29,-10.97 29.97,-22.52 45.74,-31.71 28.51,-16.63 20.35,-12.68 45.07,-32.4l42.8 -34.65c7.32,-5.79 14.16,-11.13 21.28,-17.04 6.21,-5.15 16,-13.38 7.62,-26.34 -6.51,-10.06 -16.58,-7.48 -27.99,-3.05 -50.67,19.68 -127.78,45.8 -181.45,50.08 -10.47,0.84 -26.89,-0.14 -33.58,5.63 -6.41,5.52 -7.76,18.64 -9.95,28.44 -11.16,49.9 -19.34,126.22 -16.39,176.49 1.33,22.68 4.59,47.67 8.33,69.63 1.99,11.65 3.04,21.27 13.84,24.31 11.83,3.34 21.78,-5.83 21.3,-16.52 -0.2,-4.41 -2.49,-10.81 -3.74,-14.96 -1.47,-4.9 -2.5,-10.09 -3.72,-15.62 -2.08,-9.47 -4.38,-25.55 -4.08,-35.69z"/>
    <path class="fil20" d="M921.18 1074.56c-4.67,-8.39 -17.23,-14.64 -26.48,-5.27 -10.83,10.98 3.79,69.24 9.21,85.33 1.41,4.19 4.37,11.08 4.87,15.03 -5.79,-3.35 -13.52,-9.7 -19.71,-14.05 -15.87,-11.14 -37.19,-23.84 -54.59,-32.72 -3.8,-1.94 -8.39,-3.04 -11.96,-5.92 1.16,-2.22 28.28,-19.51 30.43,-20.95 10.65,-7.13 20.44,-14.36 30.15,-22.03 5.1,-4.03 5.62,-9.64 12.61,-12.71 13.56,-5.96 44.12,-36.24 55.6,-47.92 4.36,-4.43 8.89,-8.53 13.17,-12.91l36.77 -41.51c4.43,-5.59 4.81,-11.62 9.08,-17 7.06,-8.9 5.86,0.34 25.05,-27.14 6.86,-9.82 13.93,-20.42 20.3,-31.04 3.51,-5.84 7.72,-11.07 5.14,-19.61 -3.88,-12.82 -21.44,-18.02 -31.59,-1.97 -3.46,5.47 -6.47,10.25 -10.13,15.97 -26.86,42 -70.77,93.16 -107.53,126.47 -4.53,4.1 -9.06,8.49 -13.8,12.28l-27.82 23.55c-28.29,23.44 -60.13,45.04 -94.01,62.52 -17.72,9.14 -13.25,26.15 -2.65,31.48l37.37 14.84c48.89,21.6 84.17,52.99 122.62,85.25 9.77,8.2 20.07,21.52 33.54,15.32 16.43,-7.57 8.99,-22.46 1.88,-34.45 -7.69,-12.96 -19,-37.59 -24.66,-52.76 -3.11,-8.35 -4,-14.68 -8.78,-17.3 -19.99,-10.98 -27.85,-29.94 -21.78,-52.31 1,-3.68 2.04,-6.75 3.37,-9.74 1.4,-3.14 3.45,-5.89 4.34,-8.72z"/>
    <path class="fil20" d="M758.87 982.86c-10.39,2.42 -12.5,10.77 -15.39,21.63 -13.26,49.88 -25.79,107.97 -27.97,159.78 -0.5,11.86 -1.52,24.57 -0.25,36.52 2.28,21.39 24.77,20.5 31.51,9.21 3.24,-5.43 2.38,-9.7 2.22,-16.39 -0.83,-36 3.38,-67.97 9.57,-103.13 3.59,-20.4 8.34,-41.85 13.59,-61.35 1.76,-6.53 7.38,-24.13 7.42,-30.4 0.05,-10.28 -9.95,-18.37 -20.71,-15.86z"/>
    <path class="fil20" d="M722.14 951.86c-10.51,2.31 -12.81,9.58 -16.64,19.57 -3.48,9.08 -6.03,17.06 -9.17,26.77 -5.41,16.79 -11.19,39.96 -13.96,58.51 -3.65,24.41 -8.65,75.9 -5.23,101.33 1.4,10.41 8.03,18.58 20.54,16.06 12.84,-2.59 13.09,-14.08 12.86,-22.82 -1.52,-57.48 4.45,-102 22.78,-156.15 1.94,-5.73 8.88,-21.98 8.67,-27.39 -0.4,-10.4 -8.7,-18.33 -19.85,-15.88z"/>
    <path class="fil19" d="M1045.06 976.67c-7.89,26.33 -15.91,64.71 -15.44,94.62 3.72,-1.81 27.78,-24.44 32.96,-29.01l95.91 -84.27c2.48,-2.21 2.84,-2.06 4.17,-4.43l-56.72 14.04c-25.69,5.53 -37.56,5.48 -60.89,9.05z"/>
    <path class="fil19" d="M1340.4 1174.86c1,-1.78 3.71,-8.48 4.85,-9.69 2.26,-2.4 6.42,-1.9 9.36,-4.18 -1.55,-15.04 -22.48,-1.76 -29.01,0.09 -3.86,-3.09 -4.6,-5.48 -11.33,-3.14l-1.12 7c-7.35,4.8 -5.95,3.17 -14.45,2.57 -2.55,1.62 -1.67,2.82 -4.73,2.96 -1.63,0.08 -4.41,-0.94 -6.76,-1.05 -15.1,-0.68 -36.18,23.43 -44.06,34.67 -2.09,2.98 -4.55,6.37 -6.13,9.41 -2.57,4.92 0.72,6.52 2.17,11.32l-5.59 2.3c1.17,8.21 6.21,8 13.14,5.03 14.59,-6.28 35.05,-17.6 50.77,-14.44 2.25,16.76 -24.11,61.5 -38.76,64.8 0.98,-10.92 8,-25.39 14.77,-33.38 2.61,-3.08 5.99,-4.57 7.32,-8.22 -1.68,-3.33 -8.82,-7.48 -13.97,-4.16 -4.58,2.96 -19.56,26.99 -19.54,37.58 0.02,12.08 9.74,18.76 22.08,14.7 18.5,-6.08 45.64,-55.43 35.56,-73.87 -10.23,-18.7 -54.21,4.35 -55.89,4.66 2.61,-6.43 10.27,-15.62 14.39,-20.69 8.08,-9.93 11.05,-12.78 21.17,-12.7 0.23,3.59 -1.66,18.59 10.01,18.59 3.1,-16.08 0.31,-25.07 18.02,-29.45 1.56,17.81 1.09,36.95 2.14,55.02 0.44,7.41 0.84,18.86 4.35,24.14 5.6,8.42 15.48,0.77 18.11,-4.03 -3.3,-1.89 -5.63,-1.82 -7.56,-5.73 -5.37,-10.85 -6.19,-57.4 -4.62,-70.93 0.45,-3.9 2.87,-4.31 7.06,-4.6 2.39,5.1 0.38,6.24 8.27,5.43z"/>
    <path class="fil20" d="M960.4 1079.45c5.06,-1.57 12.01,-0.08 15.26,2.6 7.67,6.35 5.61,28.15 -13.71,36.59 -12.17,5.31 -21.9,-4.28 -19.04,-17.44 2.17,-9.99 9.07,-19.14 17.5,-21.75zm25.97 -17.12c-6.76,-5.32 -20.57,-7.61 -30.57,-4.62 -34.53,10.34 -50.49,63.68 -17.05,80.04 2.06,1.01 11,4.3 13.73,4.96 8.26,2 23.69,-5.28 28.48,-9.19 3.38,-2.76 2.3,-11.2 2.47,-16.56 0.19,-6.29 0.18,-12.63 0.59,-18.66 0.63,-9.35 3.14,-27.54 2.35,-35.97z"/>
    <path class="fil19" d="M1381.26 1161.81l0.05 39.93c0.61,14.38 0.42,21.96 15.18,16.31 -0.41,-6.29 -4.32,-14.17 -3.38,-22.96 3.72,-1.75 7.69,-4.47 13.03,-4.58 -0.4,16.54 -3.71,22.14 2.35,37.59 6.02,0.37 8.84,-2.23 11.26,-5.94 -0.56,-3.87 -1.28,-2.78 -2.39,-6.07 -0.62,-1.85 -0.98,-4.82 -1.24,-6.9 -0.92,-7.43 1.59,-21.02 -6.82,-25.9 -4.43,-2.56 -8.48,0.46 -12.42,1.13 0.8,-4.56 4.76,-16.46 7.88,-19.59 1.78,10.05 3.14,14.43 12.97,9.39 -1.19,-6.45 -2.21,-10.97 -1.86,-18.13 0.14,-2.88 0.73,-6.64 -1.05,-8.48 -1.5,-1.55 -5.74,-2.14 -8.18,-1.06 -4.11,1.81 -10.76,22.97 -14.59,24.86 -0.16,-6.15 -0.06,-12.4 -0.05,-18.56 0,-5 1.77,-13.45 -3.09,-16.03 -1.67,-0.88 -5.54,-1.75 -7.67,-0.94 -2.99,1.15 -1.93,3.96 -1.31,7.53 1.09,6.12 1.32,12.01 1.32,18.41z"/>
    <path class="fil19" d="M1431.61 1167.59c-1.69,-3.34 0.01,-8.33 1.34,-11.83 1.48,-3.9 2.73,-6.71 6.36,-8.33 -0.57,2.86 -5.41,17.5 -7.7,20.16zm22.85 10.52c-2.68,-2.52 -6.74,-4.73 -11.44,-4.11 -2.95,5.03 -1.98,17.22 -7.34,21.43 -2.49,-3.37 -3.46,-8.32 -3.79,-13.25 5.01,-3.46 4.25,1.3 11.58,-14.27 2.96,-6.28 12.36,-27.28 -1.25,-28.12 -3.17,-0.2 -9.11,0.45 -11.5,1.47 -9.41,3.99 -11.08,32.86 -10.31,42.53 1.96,24.67 21.67,24.42 27.37,14.53 2.69,-4.67 6.79,-13.7 6.67,-20.23z"/>
    <path class="fil19" d="M1511.8 1113.13c-6.04,0.75 -7.15,3.07 -11.42,5.74 -3.03,1.9 -9.47,3.26 -11.19,6.07 -1.54,5.85 6.1,6.99 10.22,10.63 18.9,16.77 16.15,41.72 3.56,41.3 -6.76,-8.14 1.68,-13.84 2.14,-21.02 -3.15,-2.13 -9.8,-6.76 -13.87,0.33 -8.73,15.2 9.33,36.32 26.56,24.14 13.86,-9.8 9.23,-29.42 -3.1,-41.27l-10.95 -9.05c0.71,-0.94 7.56,-6.11 8.76,-6.79 1.16,5.14 3.14,7.12 9.23,7.32 -0.31,-8.79 1.69,-19.64 -4.7,-21.14 -4.68,-1.1 -4.43,0.55 -5.24,3.74z"/>
    <path class="fil19" d="M1467.48 1144.24c-0.53,-0.61 -0.35,-0.43 -1.08,-1.62 -1.26,-2.06 -1.63,-3.61 -4.68,-4.02 -9.85,-1.33 -6.31,13.74 -5.82,26.45 0.25,6.36 0.2,14.9 1.24,20.99 1.28,7.56 6.46,8.14 14.56,7.53 0.41,-6.18 -3.45,-12.82 -3.45,-21.99 0,-7.46 2.64,-21.63 5.76,-27.06 3.39,6.84 -0.04,18.72 14.45,15.46 0.37,-4.86 -4.17,-9.23 -3.91,-23.46l0.45 -12.44c-15.21,-11.33 -13.64,13.45 -17.51,20.15z"/>
    <path class="fil19" d="M1363.93 1169.16c-8.17,1.12 -10.85,-0.16 -12.57,8.58 -1.33,6.78 -2.17,12.81 -2.25,19.93 -0.1,9.23 -0.12,30.14 10.35,32.91 8.02,2.12 12.57,0.36 14.95,-5.31 10.73,-25.58 -6.37,-32.06 -7.58,-22.78 -0.41,3.15 0.61,6.12 -0.14,10.28 -0.74,4.11 -1.53,6.12 -3.8,7.69 -4.33,-10.5 -3.18,-36.61 0.51,-41.83 0.93,4.74 4.17,7.02 10.01,5.71 1.17,-5.07 4.09,-20.51 -4.51,-19.44 -3.14,0.39 -3.49,1.82 -4.98,4.25z"/>
    <path class="fil19" d="M960.4 1079.45c-8.42,2.6 -15.32,11.75 -17.5,21.75 -2.86,13.16 6.87,22.76 19.04,17.44 19.32,-8.44 21.39,-30.24 13.71,-36.59 -3.24,-2.68 -10.2,-4.16 -15.26,-2.6z"/>
    <path class="fil19" d="M1336.03 1184.58c-3.16,7.98 -3.57,22.97 -3.38,32.68 0.16,8.47 -1.1,27.41 10.67,22.68 7.88,-3.17 2.1,-10.86 1.22,-28.4 -0.93,-18.52 3.36,-27.92 -8.5,-26.96z"/>
    <path class="fil21" d="M845.03 988.5c-6.65,0.7 -7.66,-5.87 -3.67,-7.09 4.3,-1.32 6.75,3.14 3.67,7.09zm11.55 -0.21c-6.35,-0.9 -3.69,7.44 -12.89,7.96 -6.46,0.37 -11.44,-4.6 -12.09,-9.83 -1.74,-14.07 18.36,-19.04 21.45,-5.23 -5.89,-0.93 -5.32,-4.88 -10.15,-7.06 -5.7,4.91 -9.46,7.56 -8.26,13.06 1.09,5.01 8.62,9.23 13.11,4.2 3.36,-3.76 -0.27,-3.17 4.84,-5.7 9.64,-4.77 -0.14,-15.73 -8.14,-16.11 -11.54,-0.55 -22.18,13.62 -13.92,24.38 9.5,12.38 26.28,2.65 26.05,-5.66z"/>
    <path class="fil21" d="M927.66 895.79l-8.77 -7.87 -3.48 3.03c1.2,2.81 14.11,15.24 16.37,16.63l3.05 -2.58c-1.15,-3.86 -2.44,-1.03 -2.29,-6.48 7.04,0.27 8.86,1.64 12.11,-3.34l-11.23 -2.16c-1.36,-2.75 -0.62,-4.96 -0.84,-9.19 -4.98,1.9 -4.07,5.52 -4.92,11.96z"/>
    <path class="fil21" d="M941.57 883.43c-1.83,-3.78 1.27,-6.32 5.32,-5.12 -1.58,1.97 -3.06,4.12 -5.32,5.12zm13.74 -1.97c-8.24,-1.61 -1.27,4.35 -10.4,4.8 1.62,-4.08 6.31,-5.24 7.32,-9.82 -8.29,-8.24 -18.67,1.63 -14.92,9.92 4.17,9.23 17.46,4.47 18.01,-4.89z"/>
    <path class="fil21" d="M892.85 939.59c-2.14,6.57 -6.91,3.34 -5.43,7.97 2.84,4.83 15.48,-8.48 7.76,-12.69 -4.94,-1.87 -5.43,2.51 -10.66,2.79 1.1,-6.66 5.77,-1.34 4.59,-8.12 -4.68,-0.97 -9.94,4.51 -9.17,9.38 1.3,8.15 8.71,1.53 12.9,0.66z"/>
    <path class="fil21" d="M972.44 860.31c-0.25,6.57 -6.9,2.79 -5.24,9.34 5.37,0.75 13.95,-8.24 7.99,-13 -4.21,-2.36 -6.88,1.28 -10.94,2.63 1.04,-6.21 6.46,-4.06 4.58,-7.76 -2.98,-5.87 -15.34,10.36 -5.78,12.35 3.79,0.79 5.94,-2.71 9.39,-3.57z"/>
    <path class="fil21" d="M927.13 907.12c-5.13,-0.29 -3.75,2.79 -6.01,5.82l-5.85 -0.32c-4.73,-9.95 5.77,-4.34 5.32,-11.99 -9.5,-2.01 -15.04,9.28 -8.84,15.41 5.95,5.88 16.65,0.7 15.38,-8.92z"/>
    <path class="fil21" d="M870.09 964.15c-8.21,-2.2 -0.52,7.67 -10.94,5.24 -1.04,-1.79 -3.03,-4.59 -0.42,-6.91 3.23,-2.87 4.21,0.61 4.65,-5.59 -10.61,-0.81 -14.53,10.1 -8.31,15.83 6.28,5.79 16.8,-0.73 15.03,-8.57z"/>
    <path class="fil21" d="M888.52 921.17c2.09,11.67 2.87,4.51 8.21,9.87 8.75,8.77 12.1,-0.71 12.1,-0.96 0.01,-1.84 -0.38,-2.01 -2.09,-2.05 -2.67,-0.05 -0.42,0.96 -4.3,1.29l-4.7 -4.77c1.23,-2.79 1.37,-0.66 1.91,-3.82 -3.74,-3.44 -2.49,-0.6 -5.38,-0.59 -4.21,0.01 0.82,-0.86 -3.81,-1.05l-1.93 2.09z"/>
    <path class="fil21" d="M863.28 951.27c0.4,3.14 -0.05,1.91 1.93,3.98l9.5 8.66 3.36 -2.6c-1.18,-2.95 -3.02,-3.85 -4.87,-5.93 -3.1,-3.47 -1.04,-4.27 -0.27,-8.01 -1.72,-1.8 -0.79,-1.42 -3.32,-2.51 -3.81,6.97 -2.31,2.74 -6.34,6.42z"/>
    <path class="fil21" d="M948.72 867.46c1.24,2.95 9.1,10.98 11.6,12.08l3.29 -2.96c-1.53,-3.02 -2.99,-3.39 -5.05,-5.75 -3.51,-4.02 -1.03,-4.71 0.07,-8.29l-4.07 -0.92c-4.7,5.89 -3.29,2.56 -5.84,5.83z"/>
    <path class="fil21" d="M899.99 915.4c1.24,2.2 9.2,10.73 12.23,11.77l2.92 -2.78c-1.19,-2.15 -8.9,-10.68 -11.89,-11.97l-3.26 2.98z"/>
    <path class="fil22" d="M1431.61 1167.59c2.29,-2.66 7.13,-17.3 7.7,-20.16 -3.63,1.61 -4.88,4.43 -6.36,8.33 -1.33,3.51 -3.03,8.5 -1.34,11.83z"/>
    <path class="fil22" d="M845.03 988.5c3.08,-3.95 0.63,-8.41 -3.67,-7.09 -3.99,1.22 -2.98,7.79 3.67,7.09z"/>
    <path class="fil23" d="M886.02 953.74c1.59,-6.97 -3.84,-5.89 -5.1,-3.43 -1.61,3.15 1.87,4.71 5.1,3.43z"/>
    <path class="fil23" d="M900.1 912.41c1.22,-3.53 0.94,-4.89 -3.4,-4.9 -2.24,3.34 -1.72,6.43 3.4,4.9z"/>
    <path class="fil24" d="M941.57 883.43c2.26,-1 3.74,-3.15 5.32,-5.12 -4.05,-1.2 -7.15,1.34 -5.32,5.12z"/>
   </g>
  </g>
 </g>
</svg>
