<?xml version="1.0" encoding="UTF-8"?>
<!DOCTYPE svg PUBLIC "-//W3C//DTD SVG 1.1//EN" "http://www.w3.org/Graphics/SVG/1.1/DTD/svg11.dtd">
<!-- Creator: CorelDRAW -->
<svg xmlns="http://www.w3.org/2000/svg" xml:space="preserve" width="22.8673mm" height="22.9788mm" version="1.1" style="shape-rendering:geometricPrecision; text-rendering:geometricPrecision; image-rendering:optimizeQuality; fill-rule:evenodd; clip-rule:evenodd"
viewBox="0 0 189.74 190.66"
 xmlns:xlink="http://www.w3.org/1999/xlink"
 xmlns:xodm="http://www.corel.com/coreldraw/odm/2003">
 <defs>
  <style type="text/css">
   <![CDATA[
    .fil8 {fill:#010101}
    .fil0 {fill:#040402}
    .fil9 {fill:#1E9C70}
    .fil4 {fill:#2E7C2E}
    .fil13 {fill:#2EB172}
    .fil30 {fill:#35C983}
    .fil15 {fill:#44453B}
    .fil7 {fill:#4B2F0F}
    .fil27 {fill:#6A6963}
    .fil19 {fill:#8B8B8B}
    .fil23 {fill:#9FA29D}
    .fil33 {fill:#A1E3EF}
    .fil16 {fill:#AFB1B0}
    .fil11 {fill:#B7B9B7}
    .fil21 {fill:#BCA154}
    .fil12 {fill:#C9C9C9}
    .fil32 {fill:#D9D9D9}
    .fil29 {fill:#E5E5E5}
    .fil18 {fill:#E8CA67}
    .fil14 {fill:#E9E9E9}
    .fil5 {fill:#EAEBEA}
    .fil6 {fill:#EEEEEE}
    .fil10 {fill:#F1EA98}
    .fil22 {fill:#F3D58F}
    .fil31 {fill:#F3F5D4}
    .fil24 {fill:#F5EEAD}
    .fil28 {fill:#F6F6F6}
    .fil20 {fill:#F8F8F8}
    .fil26 {fill:#FBEA8E}
    .fil25 {fill:#FBFAB4}
    .fil17 {fill:#FCE184}
    .fil3 {fill:#FCFCFC}
    .fil2 {fill:#FDFDFD}
    .fil1 {fill:#FEFEFE}
   ]]>
  </style>
 </defs>
 <g id="Camada_x0020_1">
  <metadata id="CorelCorpID_0Corel-Layer"/>
  <g id="_2416218414304">
   <path class="fil0" d="M89.19 155.45c0.57,0.92 1.22,1.93 1.04,3.07 -0.73,0.34 0.92,0.39 -1.03,0.31 -0.59,-0.02 -0.48,-0.03 -1.02,-0.24 -0.43,-0.17 -4.94,-3.04 1.02,-3.15zm3.84 -1.37c0.94,1.99 2.04,2.84 1.98,5.7 -2.84,0.15 -2.4,-0.76 -3.63,-3.13 -1.25,-2.39 -1.31,-3.12 0.19,-4.97 0.49,-0.6 2.94,-3.4 3.79,-1.7 0.36,0.72 -0.38,1.46 -0.83,2.03l-1.5 2.05zm-19.2 -8.46l2.36 0.99c0.52,6.05 1.66,4.41 2.55,7.48 -3.98,-0.6 -5.21,-4.23 -4.91,-8.47zm9.79 3.21c-0.36,1.2 -2.68,3.55 -3.95,4.28 -1.17,-1.25 -1.3,-2.55 -1.53,-4.58l2.21 1.15c-0.69,-1 -0.74,-0.64 -0.24,-1.56 2.45,0.32 0.15,0.6 2.76,1.65l0.75 -0.93zm19.36 -5.25c1.92,0.11 2.88,0.56 2.71,2.7 -0.19,2.42 -1.92,1.48 -3.1,0.93 -0.19,-1.43 0.05,-2.54 0.39,-3.63zm-19.36 5.25c-1.69,-3.97 -0.12,-2.83 -1.95,-4.55 -1.52,-1.44 -2.01,-1.71 -2.29,-3.93 4.67,0.26 7.15,5.16 6.93,8.27l-2.69 0.21zm-4.46 -12.23c4.52,-1.83 2.94,5.1 0.23,2.64 -1.62,-1.47 -0.23,-2.64 -0.23,-2.64zm-4.58 -0.16c1.43,2.13 0.97,-0.21 2.92,4.19 1.84,4.16 2.76,1.95 3.15,4.95 -4.6,0.32 -5.8,-5.62 -6.07,-9.14zm33.15 0.32c0.91,-1.57 0.97,-2.3 3.38,-2.76l0.58 3.92c-2.12,-1.03 -1.15,0.5 -3.18,-0.49 -1.39,-0.68 0.01,-0 -0.78,-0.67zm-26.29 -6.13c5.5,0.23 6.43,8.42 3.44,10.98 -2.83,-1.87 -0.35,-3.1 -1.05,-5.49 -0.59,-1.99 -2.29,-2.52 -2.38,-5.49zm-4.24 -6.91c-0.1,4.01 -0.27,3.82 1.55,6.16 1.06,1.35 2.6,3.04 2.61,5.05 -1.62,-0.04 -2.05,-0.34 -2.97,-1.2 -0.48,-0.45 -2.05,-2.17 -2.27,-2.54 -0.98,-1.59 -0.75,-5.98 1.08,-7.47zm39.64 8.94l-0.2 -3.26 2.39 -0.95c0.39,-0.29 0.76,-1.04 1.32,-1.62 -0.05,2.3 -1.69,4.67 -3.51,5.83zm-33.46 -6.2c0.98,4.85 -4.4,3.9 -4.04,-0.1l4.04 0.1zm30.85 2.5c0.79,1.38 0.68,0.59 0.83,2.17 0.09,0.94 0.04,1.96 0.16,3.03 0.61,0.26 -0.03,0.04 0.61,0.03l0.75 -0.03c-0.11,1.74 -0.69,3.02 -1.37,4.33 -1.9,3.66 -2.46,2.99 -3.2,3.13 -0.49,-0.7 -0.72,-0.99 -0.9,-2.26 0.63,-0.84 1.22,-0.82 1.84,-1.35 0.47,-7.15 -2.01,-7.05 -0.25,-10.19 0.47,-0.85 0.88,-1.87 1.63,-2.55 1.44,0.13 1.22,0.29 2.21,0.96 -0.2,1.39 -0.01,1.68 -1.35,2.4l-0.96 0.35zm18.45 -5.2c0.43,-1.32 0.79,-1.22 2.17,-1.83l1.01 2.63 -3.18 -0.8zm-23.97 24.59c-0.35,1.42 -3.91,6.14 -4.76,7.03 -1.57,1.64 -4.22,5.19 -7.15,4.96 -0.04,-3.71 3.49,-2.9 3.39,-7.68 -0.78,0.72 -0.16,-0.01 -0.7,0.86 -1.02,1.66 -0.42,2.19 -2.97,2.31 -0.59,-1.65 -0.29,-2 0.09,-3.95l2.59 -0.84c-0.6,-1.19 -0.62,-0.83 -1.5,-1.73 0.16,-2.61 0.45,-1.87 -0.27,-4.01 1.28,-0.85 1.36,-0.62 1.99,-1.8 0.73,-1.35 0.17,-1.87 2.32,-2.01 0.42,1.75 -0.58,3.26 -0.89,5.22l1.3 1.43c4.94,2.05 2.46,0.33 4.68,-1.34l1.27 -1.82 -5.15 -5.55c0,-3.64 2.29,-7.5 4.21,-9.42 2.92,-2.91 1.74,-2.39 4.85,-8.27 1.55,2.81 -1.7,2.13 -0.8,7.79l-0.35 3.04c-2.15,-1.33 -0.61,-1.83 -2.6,-2.97 -3.43,3.14 0.82,1.45 -3.39,7.26 -0.1,0.14 -0.66,1.08 -0.66,1.08l-0.1 0.6c-0.02,0.82 -0.02,0.48 0.23,0.94 0.38,-0.08 0.7,-1.73 2.16,-0.2 1.18,1.23 0.77,2.36 1.33,3.71 1.95,-0.56 -1.46,-1.18 0.43,-4.07 4.11,2.26 1.89,5.25 1.77,6.07 0.93,-1.1 0.23,-0.88 1.6,-1.2 0.04,1.6 -0.29,1.78 -1.12,2.41 -0.08,0.06 -0.33,0.17 -0.4,0.23l-0.34 0.3c-1.29,1.42 0.57,0.17 -1.07,1.64zm19.38 -25.82c0.5,-1.38 0.88,-1.63 2.27,-2.23 0.9,1.07 0.71,0.73 0.88,2.33l-3.16 -0.1zm-81.78 4.42c-2.88,1.92 -4.08,6.86 -10.32,4.23 0.39,-2.16 1.4,-2.86 2.78,-4.17 0.93,-0.88 3.14,-2.51 3.68,-3.36 1.01,-0.67 1.34,-0.61 2.15,-1.21 1.18,-0.86 1.66,-2.74 5.32,-0.42 -0.61,0.93 -0.72,1.32 -1.62,2.39 -0.49,0.59 -0.45,0.53 -0.93,1.19l-1.07 1.35zm77.14 -5.36c0.16,-1.35 0.19,-1.79 3.39,-2.74 2.4,-0.71 0.65,-1.44 3.55,-2.38 -0.81,1.87 -2.02,1.98 -3,3.42 -0.97,1.42 0.25,1.06 -1.66,1.87 -1.56,0.66 -1.18,0.56 -2.28,-0.17zm-32.16 27.46c-1.44,2.05 -0.77,2.61 -1.83,3.54 -1.35,1.19 -2.47,0.42 -3.9,0.43 -0.42,1.75 0.12,1.82 -0.67,3.31 -1.65,-0.19 -1.77,-0.45 -3.09,-1.38 -0.06,-1.92 0.24,-2 0.96,-3.44 1.28,1.65 -0.26,0.7 1.48,1.88 -0.31,-4.32 0.64,-3.1 4.98,-2.99 0.5,-0.83 0.73,0.49 0.05,-1.36 -1.89,-0.76 -2.38,-4.43 -1.78,-7.11 0.74,-3.29 -0.17,-6.07 0.6,-8.89 1.09,-4.02 0.9,-4.43 0.84,-8.86 -0.04,-3.49 1.41,-4.27 1.92,-7.38l2.26 -6.83c2.07,-0.3 4.34,0.21 6.5,0.23 2.7,0.02 3.79,-0.91 4.69,1.05 0.08,-0.08 0.15,-0.22 0.2,-0.27 1.88,-2.02 5.81,-0.61 6.13,-0.39 1.39,0.95 1.89,4.53 0.92,5.84 0.1,1.72 -2.6,7.33 -3.54,9.71 -1.22,3.09 -3.73,4.17 -5.14,8.27 -0.67,1.94 -1.13,3.29 -2.16,4.76 -0.96,1.38 -2.06,2.14 -2.88,3.62 -1.64,2.96 -2.86,5.86 -6.56,6.27zm57.32 -35.25c0.65,-1.53 1.5,-2.03 2.55,-2.74 0.35,0.37 0.27,0.12 0.66,0.84l0.86 2.97c0.44,1.57 0.8,2.47 0.87,4.11l-4.94 -5.16zm-112.55 8.44c-2.68,-0.24 -5.79,0.58 -8.03,-1.08 2.16,-3.58 7.1,-5.42 8.35,-7.34l0.69 -0.45c0.12,-0.07 0.52,-0.32 0.64,-0.4 3.98,-2.32 4.25,0.61 8.23,-0.48 -1.1,2.65 -1.76,-1.33 -0.58,6.38 -2.01,1.21 -6.66,3.89 -9.31,3.37zm84.78 -6.93c-0.65,-1.09 -2.12,-6.08 0.27,-5.35 1.63,0.5 1.41,4.07 -0.27,5.35zm-37.5 9.08c-5.5,-0.21 -6.63,-4.26 -5.54,-9.03l1.49 -2.36c-0,0.12 -0.01,0.24 -0.02,0.37 -0.04,0.69 -0.02,0.57 -0.08,1.2 -0.01,0.13 -0.04,0.24 -0.05,0.37 -0.25,2.48 0.28,1.63 -0.38,3.06l-0.3 0.47c1.88,0.69 2.18,2.31 4.26,4.91 0.77,0.96 -0.19,-0.85 0.62,1.01zm29.83 -5.1c-0.42,-2.32 0.76,-2.36 0.51,-4.64 -0.27,-2.46 -1.65,-1.67 -0.63,-3.62 1.42,0.72 0.62,0.32 1.07,2.18 0.26,1.04 0.39,0.76 0.71,1.9 0.43,1.5 0.57,2.94 0.48,4.74l0.51 0.25c0.01,0.01 0.99,0.31 1.55,4.21 -2.29,-0.72 -3.09,-3.38 -3.2,-5.79 -0.46,0.67 -0.2,0.52 -1.02,0.77zm-54.79 -5.35c-1.71,1.53 -7.01,4.67 -10.52,3.57 -0,-2.79 6.11,-7.45 8.02,-8.73l0.48 -0.49c3.19,-2.97 3.62,-1.31 5.63,-0.22l1.66 0.54c-0.7,1 -1.52,1.91 -2.37,2.8l-2.9 2.54zm16.77 6.56c-0,2.13 -1.09,4.81 -1.17,8.02 -0.18,6.98 -1.03,6.81 -1.1,8.31 -0.13,2.39 1.62,3.59 0.2,8.06 -1.69,5.32 2.19,7.58 -1.42,7.32 -0.28,-0.02 -1.67,-0.45 -2.05,-0.56 -1.36,-0.4 -2.52,-0.67 -3.81,-0.98 -0.27,-2.66 1.29,-7.94 1.96,-10.69 0.83,-3.4 3.19,-7.18 3.53,-9.2 -3.45,1.52 -6.53,9.21 -7.56,14.32 -1.91,9.51 -11.14,4.53 -14.06,8.55 0.84,0.52 1.59,0.47 2.76,0.38 9.38,-0.72 11.07,-0.99 21.59,1.92 7.69,2.12 12.39,5.59 14.83,5.97 17.43,2.71 15.79,4.81 21,6.2 2.17,0.58 3.43,0.54 5.6,1.37 7.63,2.91 8.23,5.01 12.28,8.48 1.38,1.18 2.75,1.92 3.26,3.93 -3.38,-0.27 -5.98,-4.1 -8.97,-6.02 -1.85,-1.19 -9.09,-4.63 -11.36,-3.18l0.68 0.35c0.08,0.04 0.23,0.12 0.33,0.16 0.1,0.04 0.23,0.1 0.33,0.14 8.29,3.37 6.95,2.26 14.83,8.54 1.93,1.54 3.8,1.97 3.39,4.97 -3.5,0.58 -3.9,-2.27 -10.87,-5.72 -1.57,-0.78 -0.93,-0.76 -2.18,-1.72l-5.73 -2.93c-1.23,-0.35 -2.02,-0.79 -3.57,-0.81 0.96,1.61 2.47,1.75 4.29,2.69 1.76,0.91 2.85,1.97 4.38,2.97 2.51,1.65 7.57,3.62 7.74,6.48 -3.63,0.56 -7.66,-1.35 -11.43,-2.88 -1.46,-0.59 -0.82,-0.81 -2.14,-1.25 -2.12,-0.7 -4.62,0.19 -7.02,-2.96l-0.61 -0.83c-2.08,1.24 -3.94,1.66 -6.9,1.39 -3.3,-0.3 -3.52,-1.5 -5.23,-2.94 -0.08,0.07 -0.16,0.11 -0.19,0.26 -0.03,0.14 -0.15,0.2 -0.19,0.25l-1.35 1.22c-0.49,-0.29 -4.37,-3.22 -5.15,-5.32 -2.7,0.18 -6.18,1.26 -8.76,1.49 -2.45,0.22 -2.03,-0.72 -4.6,-0.44 -2.17,0.23 -2.2,0.38 -3.57,-0.83 -1.52,0.68 -0.25,1.55 -5.05,0.66 -2.26,-0.42 -2.86,0.3 -5.16,-0.11l-5.39 -0.54c-1.91,-0.16 -3.43,-0.46 -5.09,-1.02 -5.74,-1.95 -2.43,-1.33 -6.63,-1.94 -2.8,-0.41 1.34,-0.22 -4.05,-1.72 -0.97,-0.27 -1.34,-0.59 -2.01,-1 -1.78,-1.09 -2.37,-1.04 -3.77,-2.64 -0.04,-3.17 0.28,0.19 0.44,-2.06 0.14,-2.04 -0.55,-3.81 0.32,-8.35 0.75,-3.93 1.77,-5.71 3.47,-8.65 1.67,-2.9 8.39,-12.56 10.97,-13.58 1.63,-3.04 4.7,-6.59 6.57,-8.72 7.16,-8.18 13.97,-16.66 26.29,-19.25 -0.18,2.08 -0.42,2.07 -0.89,3.47 -1.23,3.64 -0.58,9.44 -2.02,11.02zm65.05 -7.9c0.44,-1.09 1.51,-2.87 2.42,-3.87 1.62,-1.77 1.94,-0.69 3.72,-2.22 -1.08,2.56 -3.5,5.85 -6.14,6.09zm-13.22 -3.74c-0.54,-3.18 1.22,-3.41 1.23,-3.41 1.83,2.63 0.34,1.2 -0.1,3.14l0.96 0.73c0.55,-0.63 0.63,-0.76 1.06,-1.82 0.63,-1.55 0.18,-1.17 1.41,-1.59 -0.36,1.89 -1.57,3.79 -1.98,4.98 -0.47,1.34 -0.6,3.21 -2.96,2.47 1.7,-0.82 0.65,0.07 2.01,-1.27l-1.62 -3.23zm-100.11 4.5c-1.51,-0.33 -5.43,0.31 -11.15,-3.02 0.84,-2.21 6.22,-4.65 9.39,-4.43 1.02,-1 4.53,-1.47 8.25,-3.47l1.07 3.21c0.03,0.65 -0.51,2.82 0.27,3.45 1.54,0.77 2.82,0.28 4.42,-0.16 -1.45,3.59 -7.63,3.94 -12.24,4.43zm110.86 -0.44c-0.2,-1.23 -0.26,-4.38 -0.16,-5.65 0.25,-3.13 1.46,-3.26 2.32,-3.57 1.34,1.52 0.83,1.76 0.32,3.8 -0.84,3.31 -0.38,0.72 -1.96,2.65 4.18,-2.23 2.51,-3.72 5.48,-4.54 -0.57,1.18 -0.86,1.14 -1.45,1.91 -1.43,1.88 -1.55,4.81 -4.55,5.41zm-15.16 -5.09l-1.06 -2.07c-0.67,-1.18 -0.47,-0.69 -0.76,-2.05l3.31 0.35c0.42,2.04 -0.44,2.8 -1.49,3.78zm-37.05 4.37c-1.64,0.68 -1.94,1.62 -3.68,-0.55 -0.99,-1.24 -2.35,-4.24 -1.76,-5.72 0.12,-0.29 2.18,-4.17 4.23,-4.18 -0.23,1.71 -0.02,0.36 -0.47,1.06l-0.86 1.01c0.04,0.12 0.13,0.26 0.17,0.34 1.91,4.2 -1.56,0.68 0.64,7.18 0.09,-0.1 0.14,-0.27 0.18,-0.37l0.77 -2.11c0.29,-0.53 0.78,-0.9 1.45,-1.31 0.06,0.1 0.09,0.26 0.09,0.33 0.01,0.07 0.06,0.24 0.07,0.32 0,0.08 0.02,0.22 0.02,0.31 -0.11,3.32 -1.14,0.82 0.86,2.48 0.85,0.71 0.79,0.56 1.17,1.8 0.21,0.71 0.1,0.47 0.18,0.82l0.63 -1.11c0.34,-2.24 0.28,-4.2 1.74,-4.84 0.58,1.61 -2.19,11.51 -3.46,12.99 -2.36,-1.68 -1.27,-0.55 -2.6,-3.26 -1.23,1.12 -2.3,0.7 -3.3,1.16l0.94 0.62c0.08,0.05 0.67,0.39 0.86,0.51 0.5,0.31 0.88,0.55 1.25,0.85 1.45,1.21 2.7,2.53 2.97,4.47 0.26,1.82 0.2,4.76 -0.46,6.15 -4.4,-0.48 0.47,-3.23 -3.71,-8.12 -5.02,-5.86 -2.53,-10.27 2.1,-7.27 2.32,1.5 0.08,0.89 1.08,2.69 0.89,-1.17 1.58,-1.98 0.38,-3.29 -1.5,-1.64 -1.75,-0.33 -1.48,-2.97zm-14.88 -7.01c1.25,-1.63 2.03,-2.82 4.75,-3.51 -0.29,2.25 -2.23,3.18 -4.75,3.51zm-13.56 -0.42c-2.04,2.63 -11.61,7.06 -13.81,4.71 -2.35,-3.37 6.77,-7.82 7.84,-10.05 0.85,-0.71 -0.02,-0.31 1.28,-0.58 0.05,-0.01 1.24,-0 1.3,0 3.08,0.4 5.32,1.43 4.54,4.27 -0.54,1.98 -0.3,1.11 -1.15,1.64zm80.92 19.1c-1.24,-3.67 -3.49,-9.3 -4.07,-13.19 -1.03,-6.85 -1.53,-4.74 0.16,-6.61 2,-2.22 1.21,-3.28 2.62,-5.6 0.66,0.15 0.9,0.48 1.67,1.03 -0.03,2.49 -0.16,2.41 -1.85,3.39 -0.25,3.32 0.09,7.37 -0.89,10.04l0.97 0.69c2.83,2.12 1.15,2.32 3.29,3.65 1.19,-0.36 0.14,0 0.79,-0.55l1.36 -1.21c1.89,-1.49 0.31,-0.16 1.74,-2.11 1.05,-1.43 2.77,-3.05 4.08,-3.57 -0.62,2.09 -3.35,5.29 -4.63,7.29 -1.47,2.3 -2.85,5.7 -5.24,6.76zm-77.91 -19.48c-0.61,-3.16 6.4,-9.75 7.92,-10.55 1.53,0.75 4.83,3.91 5.32,5.21 -3,3.09 -8.56,6.47 -13.24,5.34zm-52.03 -7.21c4.07,0.33 8.57,0.81 12.37,-0.24 2.73,-0.75 8.61,-1.54 11.47,-0.83 -0.86,2.85 -3.47,2.69 -4.8,5.27 1.67,-0.64 2.47,-1.41 4.59,-1.93 -1.15,2.56 -11.68,4.04 -14.79,4.05 -0.96,0 -2.14,0.07 -3.06,0.05 -0.73,-0.02 -0.96,-0 -1.63,-0.2 -1.12,-0.33 -0.28,0.1 -1,-0.57 -3.44,-0.15 -7.82,-4.4 -8.61,-7.28 2.37,0.14 3.33,1.11 5.46,1.68zm119.67 5.34c0.71,-2.53 3.56,-7.36 6.01,-8.05 -0.58,2.29 -1.81,3.59 -2.94,5 -1.28,1.61 -2.72,2.69 -0.86,4.32 2.09,-0.94 1.98,-3.36 2.04,-4.12l1.36 0.24c0.83,-1.73 0.41,-2.31 2.09,-2.51 -0.98,2.85 -2.63,6.66 -5.92,6.97l-1.78 -1.86zm-3.78 -5.18c2.37,-0.42 1.57,-2.49 2.53,-4.16 1.63,0.78 -0.88,-0.19 2.45,2.42 -0.51,1.37 -1.15,3.53 -1.84,4.92 -0.31,0.64 -0.96,1.5 -1.01,1.7l0.01 1.55c-0,-0.06 -0.01,0.22 -0.05,0.32 -1.14,-0.74 -0.18,0.08 -1.09,-1.01 -0.31,-0.37 -0.37,-0.61 -0.62,-0.99 0.48,-2.4 0.33,-0.78 0.78,-2.06 0.25,-0.71 0.23,-1.06 0.56,-1.69l1.19 -1.47c0.09,-0.12 0.42,-0.84 0.55,-1.15 -0.94,0.66 -0.74,1.19 -1.53,1.84 -1.56,1.3 -1.37,0.23 -2.89,1.04 -0.64,0.34 -0.54,0.78 -2.62,1.42 -1.16,0.36 -1.13,0.68 -2.56,-0.11 0.07,-1.63 -0.11,-1.09 1.28,-2.19 2.58,-2.04 3.28,-3.21 5.69,-3.94 0.23,3.49 -0.58,0.77 -0.84,3.54zm-70.72 -1.31c0.62,-1.65 4.47,-5.62 5.82,-5.98 1.32,-0.35 7.09,2.17 7.94,2.95 -2.56,1.64 -6.82,3.9 -10.25,4.01 -0.72,0.02 -1.31,0.02 -1.99,-0.16 -1.73,-0.46 -1.04,-0.41 -1.52,-0.82zm-9.9 4.28c-2.23,0.45 -5.18,1.11 -7.7,0.05 0.17,-1.67 0.82,-1.82 2.06,-3.04 2.56,-2.49 5.75,-4.71 9.38,-5.57 1.53,-1.14 4.97,-2.03 6.79,-1.94 -0.08,1.03 -3.04,5.07 -4.04,6.23 -1.2,1.39 -4.4,3.18 -6.49,4.27zm-16.69 -6.71c0.68,-0.83 -0.1,-0.1 0.84,-0.77 0.29,-0.21 0.59,-0.35 0.91,-0.5 6.71,-3.12 22.57,-8.65 28.77,-9.05 8.46,-0.54 18.47,1.4 21.3,9.23 2.31,6.41 3.87,5.31 2.12,6.21 -1.37,-1.14 0.24,-0.67 -1.89,-3.84l-0.83 -1.12c0.3,2.62 0.69,2.4 0.48,5.42 -1.4,-0.62 -1.25,-1.17 -2.3,-2.5 -5.18,-6.51 -11.21,-10.52 -20.59,-9.97 -5.55,0.32 -9.29,2.61 -14.04,3.89 -4.88,1.31 -0.72,-0.24 -6.67,1.99 -1.93,0.73 -5.63,1.1 -8.07,1zm139.15 -3.56c-0.88,-1.88 -4.49,-8.75 -3.95,-11.1 0.51,-2.2 5.83,-6.51 9.44,-5.24 0.68,5.14 0.81,14.7 -5.49,16.34zm-25.98 37.72c1.39,-3.59 4.62,-8.84 7.03,-10.63 3.4,1.2 1.19,1.54 5.24,4.84 1.15,0.94 1.25,1.96 1.95,3.97 0.35,2.01 2.06,5.3 2.88,7.21 1.33,3.1 0.85,4.55 2.56,7.83 2.28,4.36 5.32,10.17 9.34,11.33 -3.15,-4.29 -4.93,-8.13 -6.96,-14.58 -1.62,-5.16 -6.05,-20.05 -7.09,-25.41 -0.32,-1.67 -0.42,-2.96 -1.03,-4.07 -0.92,-1.68 -1.62,-1.24 -3.27,-2.41 -2.1,-1.49 -8.29,-9.44 -8.37,-13.44 -4.85,0.07 -2.43,-3.17 -6.77,-2.85 -2.17,0.16 -7.42,1.33 -8.63,0.2 -2.79,-2.83 9.25,-4.45 9.32,-4.44 2.2,0.1 3.5,1.42 5.23,2.01 2.11,0.72 3.72,-0.47 4.75,-2.12 -2.41,-2.5 -3.56,-0.52 -5.56,-5.24 -2.69,0.56 -6.29,2.66 -9.97,0.9l-0.33 -2.14 10.25 -1.54c4.8,0.13 6.18,1.96 9.6,2.44 -0.71,-1.56 -5.96,-5.58 -7.9,-5.77 -3.43,-0.33 -9.86,3.21 -9.38,-1.95 0.82,-0.32 9.45,-1.91 10.67,-1.87 3.37,0.11 6.9,2.47 9.09,3.93 4.48,2.99 7.25,9.88 9.96,15.99 2.7,6.09 5.5,11.7 8.56,17.44 2.99,5.6 6.39,11.53 8.9,17.11 5.53,12.28 10.86,28.22 1.73,40.5 -0.96,1.29 -5.24,5.2 -6.96,6.06 -4.81,2.38 -14.37,-5.01 -17.82,-7.48 -1.29,-0.92 -2.57,-1.78 -3.73,-2.76 -2.17,-1.84 -1.36,-1.53 -1.27,-4.44 -1.23,0.45 -0.68,0.36 -1.51,1.43 -3.33,-1.33 -8.39,-7.54 -10.11,-10.99 -1.63,-3.27 -1.92,-1.06 -3.2,-3.85 1.74,9.17 6.74,9.55 4.38,17.75 -0.38,1.3 0.64,4.44 -0.58,10.71 -0.43,2.21 -0.15,3.15 -0.32,5.37 -0.11,-0.08 -0.25,-0.34 -0.3,-0.25l-1.49 -1.17c0.62,2.32 1.38,1.26 1.2,4.25 -1.44,0.07 -2.26,-0.23 -3.49,-0.18 -3.04,0.13 -2.5,3.68 -9.96,-4.99 -2.55,-2.97 -3.22,-3.4 -7.39,-5.58 -0.83,-0.43 -3.6,-2.2 -3.99,-2.29 -1.37,-0.31 -2.3,0.12 -4.93,-0.91 -1.66,-0.65 -8.14,-2.99 -9.3,-4.24 1.03,-1.64 1.98,-2.59 2.98,-4.04 3.45,-5 4.69,-5.49 6.58,-8.14 1.01,-1.41 1.74,-3.15 2.74,-4.63 1.32,-1.96 1.63,-1.08 2.91,-4.02l5.04 -9.68c1.22,-2.27 2.14,-2.76 3.12,-4.26 1.07,1.11 0.11,-0.34 0.59,0.99 0.02,0.05 0.15,1.08 0.15,1.1 1.17,-1.82 1.36,-0.65 2.03,-3.08 -1.98,-0.03 -1.76,-0.55 -3.31,0.02l0.07 -1.31c2.72,0.97 1.85,0.7 5.15,0.92 0.57,0.65 0.96,1.37 1.48,2.02l0.85 -0.46c0.78,-0.26 -0.66,-0.36 1.09,-0.14 2.18,0.27 5.4,2.84 6.84,3.18l0.65 -2.13zm19.61 -51.11c1.78,-3.9 13.26,-10.22 15.79,-10.32 1.05,3.39 -0.31,12.39 -0.41,16.7 -0.07,3.03 0.76,6.3 -1.13,7.76 -1.31,1.02 -4.34,2.6 -6.46,2.62 -0.16,-3.25 3.89,-4.93 4.61,-8.72 0.49,-2.6 1.07,-9.79 0.5,-12.42 -6.29,-1.91 -8.32,2.93 -12.91,4.37zm-3.05 -3.31c-6.88,-5.87 -12.79,-4.52 -5.57,-14.87 5.47,-0.4 18.43,3.01 22.86,5.08 -0.34,1.21 -0.3,0.94 -1.72,1.72 -2.95,1.62 -3.07,1.37 -6.63,3.76 -6.13,4.11 -4.58,2.28 -7.14,3.19 -1.72,0.61 -0.56,0.92 -1.81,1.13zm-15 -8.49c-3.44,1.75 -8.51,-6.98 -4.05,-9.57 1.64,0.78 0.65,0.82 1.69,1.81 1.58,1.5 0.62,0.08 2.33,1.1 1.73,1.03 1.22,2.76 3.88,3.39 -0.56,-1.7 -2.5,-4.32 -3.79,-5.2 2.1,-0.26 3.84,0.22 5.62,0.89 0.31,3.02 -1.29,7.82 -4.9,5.82 -2.58,-1.43 -2.37,-5.02 -5.31,-6.47 -0.41,3.69 3.02,5.66 4.54,8.24zm-60.2 3.69c0.14,-0.77 4.22,-8.19 4.9,-9.03 1.77,-2.18 5.67,-5.1 8.82,-5.13 -0.24,1.85 -0.5,1.42 -2.79,3.8 -5.52,5.74 -4.45,7.19 -5.6,8.3 -1.42,1.38 0.81,-0.15 -2.9,-0.24 -1.19,1.14 -0.9,1.35 -2.44,2.29zm73.95 -12.92c1.02,-1.37 1.09,-0.26 2.05,-2.51 1.58,-3.67 0.32,-2.05 1.93,-2.81 0.61,2.72 -0.01,3.24 -1.09,5.39l-2.9 -0.07zm-8.7 -5.37l-2.77 0.48 -0.38 -2.42c0.67,0.27 1.34,0.49 2,0.81 1.56,0.77 0.49,-0.23 1.15,1.13zm3.52 5.78c0.51,-1.78 2.59,-3.17 3.77,-5.1 1.27,-2.06 1.95,-4.46 4.81,-4.38 2.23,0.06 5.19,2.22 5.7,3.49 0.98,2.44 0.31,5.2 -0.61,7.48l-3.79 -0.45c1.41,-5 3.09,-2.94 -1.28,-8.18 -1.23,1.58 -0.9,0.9 -2.14,2.11 -1.53,1.49 -2.28,4.44 -6.46,5.03zm-8.2 -5.12c6.28,1.84 6.12,-4.58 11.44,-4.37 -0.39,3.12 -3.82,6.8 -7.63,6.59 -2.72,-0.15 -0.18,-0.43 -3.47,0.06 -1.69,-2.32 -2.67,-4.91 1.09,-5.34l-1.04 1.47c-0.56,0.99 -0.47,-0.7 -0.39,1.6zm-64.23 -4.55l-1.26 3.14c-1.18,-0.76 -1.13,-1.04 -1.56,-2.61l2.82 -0.53zm80.49 -13.73c0.41,0.42 0.34,0.07 0.72,0.82l0.34 2.36c0.07,6.4 0.32,7.9 -3.91,8.55 0.8,-2.36 0.37,-1.05 2.08,-2.03l0.77 -9.7zm-83.41 8.74c-1.17,-2.17 -1.22,-2.78 0.03,-4.54 1.65,1.34 4.15,5.66 2.93,8.52 -1.22,-0.82 -2.01,-2.24 -2.96,-3.98zm58.31 22.61c-1.14,0.2 -0.03,1.34 -0.08,3.03 -0.1,3.72 -4,3.06 -4.82,9.28 1.21,-0.45 0.25,-0.73 2.12,-1.57 -0.62,2.02 -1.43,2.06 -1.85,3.13 -0.46,1.17 0.11,1.87 -0.24,3.69l1.12 2.01c-0.98,0.47 -3.1,1.93 -4.14,2.78 -2.14,1.75 -0.93,2.71 -0.71,5.42 -1.69,1.12 -2.99,2.55 -5.08,3.95 -1.7,1.14 -4.18,2.12 -5.63,3.39 0.4,2.3 1.61,1.8 2.05,4.49l-4.47 2.54 -1.58 -1.69c-4.26,1.05 -5.19,5.01 -12.5,2.37 -5.25,-1.9 -6.13,-4.56 -9.83,-7.06 -3.43,-2.32 -5.13,-5.38 -6.7,-10.23 -1.92,-5.93 -1.27,-8.57 -0.34,-14.32l0.84 -1.19c4.56,0.21 7.93,1.32 11.37,-3.79 1.27,-1.88 2.53,-2.52 3.83,-4.4 1.58,-2.29 1.51,-3.65 3.04,-4.83 -0.08,2.85 -1.53,4.3 -2.78,5.95 -1.31,1.73 -3.18,2.36 -3.97,4.85 0.76,2.79 2.55,3.45 4.24,6.03 1.08,2.68 0.27,3.66 -1.32,4.95 -6.85,5.55 -4.51,2.35 -8.33,1.59 -0.16,2.78 1.46,1.97 3.41,3.46 1.34,1.03 1.92,2.62 3.09,3.85 2.36,2.49 7.72,3.05 9.63,-0.58 -1.97,0.02 -8.96,0.62 -9.58,-2.55 -0.48,-2.46 -0.25,-0.5 0.32,-1.43 2.92,-1.19 7.87,0.17 10.41,1.15 3.72,1.44 5.47,2.52 7.75,-1.32 -3.48,0.44 -3.55,2.52 -6.22,-0.23 -7.55,-7.81 -4.86,-1.73 -9.25,-3.67 0.47,-4.14 7.35,-4.06 8.83,-7.34 -0.39,-0.85 -0.47,-0.4 -1.95,-0.01 -1.57,-0.08 -0.8,0.52 -2.33,0.05 -9.42,-2.9 -5.55,-5.27 -1.75,-9.71 1.93,-2.26 3.16,-2.41 1.15,-5.89 -1.11,-1.12 -0.17,0.28 -0.92,-1.53 -0.42,-1.01 0.09,-0.46 -0.52,-1.37 -6.67,6.48 -7.5,9.19 -9.25,10.98 -0.53,0.54 -0.22,0.25 -0.82,0.69 0.14,-2.72 0.86,-3.75 2.09,-5.53 0.84,-1.21 2.4,-3.23 3.28,-4.09 3.32,-3.24 6.26,-3.47 11.32,-2.53l0.52 1.66c-0.02,-0.03 0.05,0.34 -0.05,-0.7 0.96,-0.57 0.75,-0.65 2.25,-0.54 -0.59,3.15 -4.32,3.27 -4.05,7.22 0.23,3.45 2.68,4.86 4.34,5.95 0.53,0.35 0.45,0.22 0.87,0.69 2.95,1.31 6.4,-4.55 8.11,-6.19 2.09,-2 5.33,-5.18 9.17,-5.86 3.18,0.29 2.11,2.32 3,0.92 -2.96,-5.19 -8.23,-4.4 -16.07,-4.66 -0.99,-0.03 -28.18,-3.42 -30.02,-4.68 0,-2.33 1.4,-10.87 2.75,-12.2 1.03,0.85 0.64,0.69 0.91,2.35 0.07,-0.09 0.15,-0.23 0.19,-0.29l1.06 -1.38c10.59,4.51 5.61,-4.5 5.61,-7.16 0.8,0.69 0.34,0.2 1.03,1.22 0.34,0.49 0.28,0.59 0.65,1.07 1.43,1.85 5.31,2.05 7.95,2.46 5.96,0.92 2.07,0.12 5.95,0.22 2.29,0.06 4.08,0.78 3.29,3.02 -0.44,0.91 0.52,0.96 -3.99,1.3 5.13,1.71 5.59,6.95 10.91,5.68 3.61,-0.86 7.33,-6.01 9.82,-7.54 -0.39,2.62 -1.28,3.22 -1.92,5.44 2.65,-0.82 0.73,-0.8 4.02,-3.82 1.38,1.92 1.32,13.79 1.25,15.68 -0.44,11.59 3.07,8.45 4.8,11.58 -6.79,-0.19 -2.3,-1.75 -5.27,-4.22zm-44.42 -27.78c-0.13,-2.42 0.4,-1.89 0.83,-3.66 0.63,-2.56 -0.52,-2.67 1.66,-3.42 0.09,0.21 0.25,0.33 0.3,0.97 0.16,2.04 -0.95,3.97 -2.1,5.36l1.09 2.27c-0.27,-0.3 -1.24,-0.98 -1.79,-1.53zm-0.97 -1.07c-0.98,-2.57 -1.87,-3.58 -0.38,-7.03 0.82,-1.89 2.86,-3.4 4.71,-3.98 -0.4,2.94 -1.67,2.15 -2.56,5.22 -0.44,1.51 -0.36,1.47 -1.06,2.93 -0.3,0.63 -0.04,-0.53 -0.4,1.02 -0.58,2.54 0.31,-1.92 -0.06,0.78 -0.17,1.25 0.29,0.35 -0.24,1.07zm32.65 -2.06c3.01,3.74 1.18,3.87 0.45,7.77 3.62,-1.68 2.86,-7.13 0.66,-9.76 -5.83,-6.99 -15.42,-1.73 -21.22,-2.09 -4.12,-0.26 -6.26,-2.65 -6.56,-6.6 2.12,1.3 1.57,2.99 5.32,3.32 2.03,0.18 5.6,-0.38 7.59,-0.9 5.27,-1.38 9.15,-2.21 14.24,0.4 3.77,1.93 6.74,5.66 5.95,11.49 -0.53,3.88 -4.85,8.19 -8.34,8.51 -0.63,-0.5 -1.7,-1.55 -1.67,-2.88 0.05,-2.31 1.04,-0.79 1.37,-3.09 0.87,-6.05 -9.56,-4.86 -12.22,-4.85 -4.2,0.01 -4.25,-1.98 -6.4,-1.91 -0.05,1.46 0.1,1.47 0.94,2.3 -1.48,-0.96 -2.11,-2.48 -2.91,-4.25 2.52,1.42 4.37,0.63 7.95,0.6 4.7,-0.04 -1.09,-0.37 6.9,-1.84 0.07,0.09 0.14,0.23 0.18,0.3 0.04,0.07 0.13,0.22 0.17,0.3 0.05,0.1 0.25,0.48 0.3,0.58 0.02,0.03 0.14,0.47 0.34,0.8 0.69,-1.07 0.19,-1.03 0.74,-2.05 3.28,0.5 4.76,2.01 6.23,3.85zm16.28 -14.56c0.82,3.35 3.42,6.41 3.87,10.66l-3.99 -1.81 -0.78 -8.86c0.3,-0.1 0.12,-0.3 0.9,0zm-49.78 6.85c0.01,-3.61 3.4,-6.23 5.76,-7.46 -0.63,2.66 -1.34,2.01 -2.89,3.92 -1.16,1.44 -1.46,2.35 -2.87,3.53zm-9.25 11.49c-2.15,-7.52 1.87,-16.77 6.97,-19.03 0.4,4.91 -4.92,6.49 -5.26,14.06 -0.08,1.78 -0.53,3.88 -1.71,4.97zm73.82 -1.54l-1.76 1.4c-0.45,-6.67 0.86,-4.7 -1.91,-10.7 -1.37,-2.96 -2.04,-6.17 -1.99,-9.97 15.14,7.51 13.8,27.07 6.6,27.83 -0.04,-2.5 1.6,-2.23 1.38,-6.3 -0.58,-10.31 0.71,-7.43 -5.34,-18.14 0.64,2.83 1.63,4.14 2.85,6.57 1.65,3.3 0.58,4.76 1.1,7.9 0.97,5.91 -2.25,10.79 -6.44,11.59 1.34,-3.58 3.65,-2.64 5.52,-10.21zm-56.36 -17.66c0.5,-1.72 2.24,-2.8 3.45,-3.79 -0.46,1.69 -0.51,0.52 -1.3,2.09 -0.35,0.71 -0.56,1.41 -0.23,2.34 0.57,1.64 2.49,1.81 4.49,1.9 -1.53,-2.3 -2.42,-2.37 -2.45,-3.86 -0.06,-2.35 -0.07,-0.57 0.45,-1.28 1.22,2.4 3.8,4.05 6.4,4.05 2.47,0 5.75,-1.87 8.69,-1.9 5.67,-0.05 10.81,4.27 11.55,9.05 -3.43,-0.89 -5.74,-3.55 -10.04,-4.38 -2.65,-0.51 -9.5,1.1 -13.22,1.1 -3.81,0 -3.61,0.18 -5.29,-2.2 -0.93,-1.32 -1.75,-1.72 -2.5,-3.13zm-8.91 2.37c0.12,-5.2 5.25,-8.67 10.65,-9.29 -0.78,1.74 -4.18,3.4 -5.8,4.57 -2.27,1.64 -2.64,3.51 -4.84,4.72zm33.84 -3.55c-2.7,-0.63 -3.33,-1.6 -6.6,-0.86 -1.94,0.44 -3.78,1.29 -5.79,1.57 -6.02,0.84 -8.43,-3.81 -8,-5.8 0.71,-3.26 5.7,-5.25 10.19,-4.67 1.56,0.2 4.52,0.99 5.88,1.58 1.8,0.78 3.24,1.76 3.77,3.41 -8.54,-0.04 -16.23,-3.18 -16.47,0.39 -0.2,2.98 5.06,0.98 7.26,0.72 3.4,-0.39 5.36,-0.24 8.65,-0.2l1.11 3.85zm16.64 2.05c-0.41,-1.92 -1.58,-5.13 -2.32,-7.18 -1.17,-3.21 -2.42,-3.69 -3.67,-5.81 2.4,-0.02 3.28,0.7 4.93,1.93 1.43,1.06 2.73,1.51 3.81,2.69 1.63,1.78 4.38,4.98 4.51,8.19 -0.98,-0.84 -6.5,-7.87 -7.03,-9.09 -0.45,5.11 3.43,8.31 5.57,10.84 1.18,1.4 5.46,9.31 5.41,11.32 -0.01,0.49 -0.26,0.75 -0.21,1.8 0.12,2.35 0.47,0.26 0.71,2.67 0.26,2.69 -1.78,4.41 -4.63,6.6 -6.88,5.3 -4.63,8.08 -7.44,8.94 -1.51,-10.56 7.37,-10.46 9.11,-15.09l-7.75 5.87c2.03,-5.74 6.35,-3.91 5.02,-11.96 -0.45,-2.75 -0.58,-5.11 -1.94,-7.13l-4.08 -4.59zm-15.59 -15.26c20.07,4.07 9.12,25.46 16.46,32.54 0.8,-0.95 0.36,-0.69 -0.02,-2.78l2.12 0.71c0.4,3.89 -4.63,4.72 -6.03,2.58 -0.99,-1.52 -1.21,-6.58 -1.8,-8.25 -0.29,-0.83 -0.12,-0.47 -0.48,-0.98 0.01,1.02 0.38,3.29 0.35,3.59 -0.11,1.18 -0.48,0.73 -1.26,2.12 0.12,1.52 0.47,1.93 0.58,2.75 0.21,1.65 -0.1,1.64 -0.39,2.04 -3.06,-5.36 0.07,-17.56 -6.83,-26.1 -4.88,-6.04 -2.27,-2.94 -6.44,-4.26l-6.3 -1.71c2.87,-2.57 6.43,-4.32 10.04,-2.26zm-6.93 -3.01c-1.69,0.67 -3.07,0.96 -4.74,1.83 -2.61,1.35 -4.43,2.89 -8.86,4.99 -2.5,1.18 -3.37,0.57 -6.05,0.93 -5.61,0.75 -5.31,2.59 -8.08,5.75 -3.23,3.68 -10.39,4.2 -11.71,16.47 -0.3,2.81 -0.06,3.3 -1.74,5.17 -6.85,7.61 -8.79,19.55 2.16,21.75 -0.78,-1.65 -1.53,-1.9 -2.63,-3.46 -0.82,-1.16 -2.04,-2.86 -2.5,-4.04 -1.26,-3.24 0.37,-7.95 2.56,-9.26l0.72 1.22c1.13,2.23 0.47,2.49 -1.48,3.83l-0.52 0.38c0.87,2.94 2.68,5.69 5.94,5.87 0.96,-1.02 3.39,-4.13 3.3,-5.72 -0.14,-2.34 -1.84,-6.04 -1.93,-7.98l1.85 -8.05c0.63,-2.13 2.45,-4.97 4.44,-6.01 -0.45,3.5 -3.66,6.09 -3.41,8.67 0.41,-1.55 0.9,-2.38 2.37,-2.97 -0.38,10.01 -2.34,12.59 -1.99,17.15 0.16,2.13 -0.45,3.41 -0.61,5.41 0.09,6.54 2.16,6.24 2.79,9.07 -2.58,0.18 -1.83,-1.32 -3.24,-2.35 -2.04,1.37 -1.39,1.89 -3.21,4.07 -0.17,0.2 -0.44,0.49 -0.64,0.7l-0.48 0.44c-0.89,-1.22 -0.9,-1.81 -2.52,-2.31 0.9,1.91 1.61,3.43 2.87,5.33 1.22,1.83 2.96,3.12 3.46,4.68 -0.94,2.17 -0.19,-0.42 -1.7,1.59 -1.03,1.37 -0.45,2.98 -1.02,1.92 -0.04,-0.07 -0.14,0.26 -0.22,0.38l-0.92 9.31c-3.39,-1.38 -4.57,-5.73 -18.15,-5.47 -6.21,0.12 -13.73,3.07 -18.87,5.02 -7.49,2.85 -24.77,10.96 -32.09,8.9 -2.46,-0.69 -2.5,-1.44 -5.33,-0.85 -3.84,3.36 -0.33,7.46 1.92,9.76 2.99,3.06 5.06,3.85 10.75,4.41 -0.21,1.8 -5.03,4.69 2.81,8.05 5.58,2.38 7.65,0.97 12.53,0.24 -1.11,3.09 -4.46,2.98 -4.69,7.98 1.26,0.61 2.93,2.14 4.87,2.34 2.18,0.22 3.61,-0.77 6.24,-0.53 -0.32,2.1 -5.93,5.61 -1.62,9.42 0.47,0.42 0.86,0.65 1.66,0.96 0.42,0.16 0.56,0.17 1,0.32l0.99 0.35c-1.61,2.94 -5.12,6.44 -8.55,12.76 -2.37,4.38 -4.58,11.37 -3.14,17.02 1.65,6.46 3.97,6.82 11.64,9.63 5.86,2.15 10.79,3.16 17.47,4.19 7.29,1.13 12.94,0.51 20.18,0.01 5.99,-0.41 4.03,-1.26 8.55,1.57 8.78,5.5 12.22,2.61 17.38,3.05 1.58,0.14 6.18,2.03 8.01,2.75 2.84,1.12 5.77,1.37 8.33,2.49 4.05,1.76 5.41,2.04 7.54,-1.03 1.45,0.24 2.06,1.22 3.65,0.67 0.55,-0.19 2.13,-1.46 2.98,-1.87l-0.2 -3.56c3.89,-0.77 9.95,0.46 13.65,1.07 5.07,0.83 9.15,0.56 14.14,1 4.71,0.42 8.71,1.81 13.4,1.65 5.11,-0.18 9.81,1.09 14.2,0.84 -0.43,-1.18 -2.11,-1.71 -3.77,-2.4 -2.56,-1.07 -2.88,-0.62 -5.66,-0.65 -2.34,-0.03 -3.63,-0.79 -5.64,-1 -2.08,-0.22 -4.09,-0.14 -6.08,-0.44 -3.82,-0.58 -7.42,-1.53 -11.68,-1.48 -2.82,0.04 -8.74,-0.73 -10.95,-2.09 0.06,-6.64 1.07,-15.48 1.41,-22.7l10.55 9.59c3.85,3.14 7.59,5.32 13.23,7.12 6.27,2.01 6.15,1.57 13.04,-5.29 3.29,-3.28 6.17,-6.81 7.27,-13.16 2.94,-17.02 -5.53,-31.4 -13.55,-45.92 -1.31,-2.37 -7.02,-11.1 -7.06,-13.22l8.22 -2.93c0.55,-5.76 -0.77,-9.66 0.34,-15.61 0.45,-2.43 0.22,-4.77 0.77,-7.1 0.55,-2.35 1.85,-4.24 2,-6.41 -2.26,-2.78 -7.86,-3.42 -9.67,-5.1l-3.99 -1.4c0.68,-3.12 1.62,-5.36 0.04,-8.62 -1.34,-2.75 -2.85,-2.67 -5.15,-4.81 -0.08,-3.68 0.95,-6.41 0.24,-11.01 -1.47,-9.54 -8.97,-14.73 -15.22,-19.47 -4.6,-3.49 -5.52,-8.4 -12.27,-11.13 -5.26,-2.13 -13.82,-3.47 -19.94,-2.64z"/>
   <path class="fil1" d="M121.01 153.64c0.34,-0.64 0.16,-1.54 2.88,-1.58l-0.43 2.87c-1.73,-0.05 -1.63,0.07 -2.45,-1.3zm32.98 -27.69l-4.25 -0.37 -1.64 -2.74c-0.59,0.53 -0.16,-0.07 -0.77,1.04l-1.32 2.92c-2.99,-0.11 -4.16,-0.36 -6.24,0.96l-0.65 2.13c-1.44,-0.34 -4.66,-2.91 -6.84,-3.18 -1.75,-0.22 -0.31,-0.12 -1.09,0.14l-0.85 0.46c-0.53,-0.64 -0.92,-1.37 -1.48,-2.02 -3.3,-0.22 -2.43,0.05 -5.15,-0.92l-0.07 1.31c1.54,-0.57 1.33,-0.05 3.31,-0.02 -0.68,2.43 -0.86,1.26 -2.03,3.08 -0,-0.02 -0.13,-1.05 -0.15,-1.1 -0.48,-1.33 0.47,0.12 -0.59,-0.99 -0.98,1.5 -1.9,1.99 -3.12,4.26l-5.04 9.68c-1.27,2.93 -1.58,2.06 -2.91,4.02 -1,1.48 -1.73,3.21 -2.74,4.63 -1.9,2.65 -3.14,3.14 -6.58,8.14 -1,1.45 -1.95,2.4 -2.98,4.04 1.16,1.25 7.64,3.59 9.3,4.24 2.62,1.03 3.55,0.6 4.93,0.91 0.39,0.09 3.16,1.86 3.99,2.29 4.17,2.18 4.84,2.62 7.39,5.58 7.47,8.68 6.93,5.13 9.96,4.99 1.23,-0.05 2.05,0.25 3.49,0.18 0.18,-3 -0.58,-1.94 -1.2,-4.25l1.49 1.17c0.05,-0.09 0.19,0.17 0.3,0.25 0.17,-2.22 -0.11,-3.16 0.32,-5.37 1.22,-6.27 0.2,-9.41 0.58,-10.71 2.36,-8.21 -2.64,-8.58 -4.38,-17.75 1.29,2.8 1.58,0.58 3.2,3.85 1.72,3.45 6.78,9.66 10.11,10.99 0.84,-1.06 0.29,-0.97 1.51,-1.43 -0.09,2.91 -0.9,2.6 1.27,4.44 1.16,0.98 2.44,1.84 3.73,2.76 3.45,2.47 13.01,9.86 17.82,7.48 1.72,-0.85 6,-4.76 6.96,-6.06 9.13,-12.29 3.8,-28.22 -1.73,-40.5 -2.51,-5.57 -5.91,-11.5 -8.9,-17.11 -3.06,-5.74 -5.85,-11.34 -8.56,-17.44 -2.71,-6.11 -5.48,-13 -9.96,-15.99 -2.19,-1.46 -5.71,-3.83 -9.09,-3.93 -1.22,-0.04 -9.86,1.55 -10.67,1.87 -0.48,5.17 5.95,1.63 9.38,1.95 1.94,0.18 7.18,4.2 7.9,5.77 -3.42,-0.48 -4.8,-2.31 -9.6,-2.44l-10.25 1.54 0.33 2.14c3.68,1.77 7.28,-0.34 9.97,-0.9 2,4.73 3.15,2.74 5.56,5.24 -1.03,1.65 -2.64,2.84 -4.75,2.12 -1.73,-0.59 -3.03,-1.91 -5.23,-2.01 -0.07,-0 -12.11,1.61 -9.32,4.44 1.21,1.13 6.47,-0.04 8.63,-0.2 4.34,-0.32 1.92,2.92 6.77,2.85 0.08,4 6.27,11.95 8.37,13.44 1.65,1.17 2.35,0.73 3.27,2.41 0.61,1.11 0.71,2.39 1.03,4.07 1.03,5.36 5.47,20.25 7.09,25.41 2.03,6.45 3.81,10.3 6.96,14.58 -4.02,-1.15 -7.06,-6.97 -9.34,-11.33 -1.71,-3.28 -1.23,-4.73 -2.56,-7.83 -0.82,-1.91 -2.53,-5.2 -2.88,-7.21z"/>
   <path class="fil2" d="M45.17 134c-2.59,1.02 -9.3,10.68 -10.97,13.58 -1.7,2.94 -2.72,4.73 -3.47,8.65 -0.87,4.54 -0.18,6.31 -0.32,8.35 -0.16,2.25 -0.48,-1.11 -0.44,2.06 1.4,1.61 1.98,1.55 3.77,2.64 0.67,0.41 1.03,0.72 2.01,1 5.4,1.51 1.25,1.32 4.05,1.72 4.2,0.61 0.89,-0.01 6.63,1.94 1.66,0.56 3.18,0.86 5.09,1.02l5.39 0.54c2.3,0.41 2.9,-0.31 5.16,0.11 4.8,0.89 3.54,0.02 5.05,-0.66 1.37,1.22 1.4,1.07 3.57,0.83 2.57,-0.28 2.16,0.66 4.6,0.44 2.58,-0.23 6.06,-1.31 8.76,-1.49 0.79,2.1 4.66,5.03 5.15,5.32l1.35 -1.22c0.04,-0.05 0.16,-0.11 0.19,-0.25 0.03,-0.14 0.11,-0.18 0.19,-0.26 1.71,1.45 1.93,2.64 5.23,2.94 2.96,0.27 4.82,-0.15 6.9,-1.39l0.61 0.83c2.4,3.15 4.9,2.26 7.02,2.96 1.32,0.44 0.68,0.66 2.14,1.25 3.77,1.53 7.81,3.44 11.43,2.88 -0.17,-2.86 -5.23,-4.83 -7.74,-6.48 -1.53,-1 -2.62,-2.06 -4.38,-2.97 -1.82,-0.95 -3.33,-1.08 -4.29,-2.69 1.55,0.01 2.33,0.46 3.57,0.81l5.73 2.93c1.24,0.97 0.61,0.95 2.18,1.72 6.97,3.45 7.37,6.3 10.87,5.72 0.41,-3 -1.46,-3.43 -3.39,-4.97 -7.88,-6.28 -6.54,-5.17 -14.83,-8.54 -0.11,-0.04 -0.24,-0.1 -0.33,-0.14 -0.1,-0.04 -0.25,-0.12 -0.33,-0.16l-0.68 -0.35c2.28,-1.46 9.51,1.99 11.36,3.18 2.99,1.92 5.59,5.75 8.97,6.02 -0.51,-2.01 -1.88,-2.75 -3.26,-3.93 -4.06,-3.46 -4.66,-5.57 -12.28,-8.48 -2.17,-0.83 -3.43,-0.79 -5.6,-1.37 -5.21,-1.39 -3.57,-3.5 -21,-6.2 -2.44,-0.38 -7.14,-3.85 -14.83,-5.97 -10.51,-2.9 -12.21,-2.64 -21.59,-1.92 -1.17,0.09 -1.91,0.14 -2.76,-0.38 2.93,-4.02 12.15,0.97 14.06,-8.55 1.03,-5.11 4.11,-12.8 7.56,-14.32 -0.34,2.02 -2.71,5.8 -3.53,9.2 -0.67,2.76 -2.23,8.03 -1.96,10.69 1.29,0.31 2.45,0.58 3.81,0.98 0.38,0.11 1.77,0.54 2.05,0.56 3.61,0.26 -0.27,-2 1.42,-7.32 1.42,-4.47 -0.32,-5.67 -0.2,-8.06 0.08,-1.5 0.92,-1.32 1.1,-8.31 0.08,-3.21 1.17,-5.88 1.17,-8.02 -0.42,-1.78 -0.02,-2.52 0.21,-4.38l-5.03 1.41c-0.94,-2.01 -0.56,-1.7 -0.35,-3.6 -1.64,-0.79 -2.9,-2.02 -4.28,-0.64 -0.8,2.43 1.05,0.99 1.82,3.6 -4.97,1.99 -2.75,1.89 -5.75,5.39 -1,1.17 -1.56,1.7 -2.44,3.2 -1.24,2.14 -1.4,1.41 -2.76,3.03 0.41,2.02 1.76,2.56 0.17,3.63 -0.54,-1.1 -0.65,-3.55 -0.74,-4.89 -0.01,-0.2 -0.07,-0.26 -0.13,-0.38 -0.1,0.08 -0.21,0.2 -0.29,0.26 -1.75,1.39 -1.21,0.75 -2.71,1.38 -0.86,3.94 0.36,2.74 -2.88,3.61 -1.04,0.28 -0.07,-0.05 -1.27,0.53 -1.49,0.72 -1.95,1.17 -3.53,1.33z"/>
   <path class="fil1" d="M80.18 75.2c-0.93,5.75 -1.58,8.39 0.34,14.32 1.57,4.85 3.27,7.91 6.7,10.23 3.7,2.5 4.58,5.16 9.83,7.06 7.31,2.65 8.25,-1.32 12.5,-2.37l1.58 1.69 4.47 -2.54c-0.44,-2.7 -1.66,-2.2 -2.05,-4.49 1.45,-1.27 3.93,-2.25 5.63,-3.39 2.09,-1.4 3.39,-2.83 5.08,-3.95 -0.22,-2.71 -1.43,-3.67 0.71,-5.42 1.03,-0.85 3.16,-2.31 4.14,-2.78l-1.12 -2.01c-0.87,-0.98 -0.33,-2.3 -1.54,-2.59 -4.39,0.02 -7.35,0.35 -11.63,-0.43 -6.06,-1.1 -5.33,-3.13 -8.03,-4.21 -0.04,0.06 -0.45,0.63 -0.5,0.69 -0.5,0.55 -0.22,0.24 -0.8,0.68 -1.48,3.27 -8.37,3.2 -8.83,7.34 4.39,1.94 1.71,-4.14 9.25,3.67 2.66,2.76 2.73,0.67 6.22,0.23 -2.28,3.84 -4.03,2.76 -7.75,1.32 -2.54,-0.98 -7.49,-2.34 -10.41,-1.15 -0.57,0.93 -0.8,-1.03 -0.32,1.43 0.62,3.17 7.61,2.57 9.58,2.55 -1.91,3.63 -7.27,3.07 -9.63,0.58 -1.17,-1.23 -1.75,-2.82 -3.09,-3.85 -1.94,-1.49 -3.56,-0.68 -3.41,-3.46 3.82,0.76 1.48,3.96 8.33,-1.59 1.59,-1.29 2.4,-2.27 1.32,-4.95 -1.9,-0.91 -1.86,0.11 -3.44,-1.05 -0.54,-0.39 -1.33,-1.51 -1.94,-2.14 -2.42,-0.39 -2.96,0.77 -5.19,1.09 -2.4,0.33 -3.86,-0.42 -5.99,-0.52z"/>
   <path class="fil1" d="M129.94 59.91c0.39,0.35 0.3,0.25 0.71,0.73 0.23,0.27 0.5,0.63 0.76,1 0.64,0.91 0.92,1.35 1.46,2.35 2.97,2.47 -1.52,4.04 5.27,4.22 -1.73,-3.13 -5.24,0.01 -4.8,-11.58 0.07,-1.89 0.13,-13.76 -1.25,-15.68 -3.29,3.02 -1.37,2.99 -4.02,3.82 0.64,-2.22 1.53,-2.82 1.92,-5.44 -2.49,1.53 -6.2,6.68 -9.82,7.54 -5.32,1.27 -5.78,-3.97 -10.91,-5.68 4.51,-0.33 3.55,-0.39 3.99,-1.3 0.79,-2.25 -1,-2.96 -3.29,-3.02 -3.88,-0.1 0.01,0.7 -5.95,-0.22 -2.64,-0.41 -6.52,-0.61 -7.95,-2.46 -0.38,-0.49 -0.32,-0.58 -0.65,-1.07 -0.69,-1.01 -0.22,-0.53 -1.03,-1.22 -0,2.67 4.98,11.68 -5.61,7.16l-1.06 1.38c-0.04,0.06 -0.12,0.2 -0.19,0.29 -0.27,-1.66 0.11,-1.5 -0.91,-2.35 -1.35,1.33 -2.75,9.87 -2.75,12.2 1.83,1.26 29.03,4.64 30.02,4.68 7.84,0.26 13.11,-0.52 16.07,4.66z"/>
   <path class="fil1" d="M90.84 116.79c-0.51,3.11 -1.97,3.89 -1.92,7.38 0.06,4.43 0.24,4.84 -0.84,8.86 -0.77,2.83 0.15,5.6 -0.6,8.89 -0.6,2.68 -0.11,6.34 1.78,7.11l2.02 0.02c3.69,-0.41 4.92,-3.31 6.56,-6.27 0.82,-1.48 1.92,-2.24 2.88,-3.62 1.02,-1.47 1.49,-2.82 2.16,-4.76 1.41,-4.1 3.93,-5.18 5.14,-8.27 0.94,-2.38 3.64,-7.99 3.54,-9.71l-3.29 -3.11c-2.79,0.94 2.37,-1.32 -0.81,0.53l-1.79 0.6c0.47,-0.22 0.07,-1.27 0,-1.39 -3.41,0.18 -3.45,1.15 -4.76,3.53l-10.06 0.2z"/>
   <path class="fil3" d="M120.57 40.85c0.73,-3.91 2.56,-4.03 -0.45,-7.77 -1.47,-1.83 -2.95,-3.35 -6.23,-3.85 -0.56,1.01 -0.05,0.98 -0.74,2.05 -0.2,-0.33 -0.33,-0.77 -0.34,-0.8 -0.05,-0.1 -0.24,-0.48 -0.3,-0.58 -0.04,-0.08 -0.14,-0.23 -0.17,-0.3 -0.04,-0.07 -0.11,-0.21 -0.18,-0.3 -7.99,1.47 -2.2,1.8 -6.9,1.84 -3.58,0.03 -5.43,0.82 -7.95,-0.6 0.8,1.77 1.43,3.29 2.91,4.25 -0.83,-0.83 -0.98,-0.84 -0.94,-2.3 2.15,-0.06 2.2,1.92 6.4,1.91 2.66,-0.01 13.09,-1.2 12.22,4.85 -0.33,2.3 -1.32,0.78 -1.37,3.09 -0.03,1.34 1.04,2.38 1.67,2.88 3.49,-0.32 7.81,-4.63 8.34,-8.51 0.8,-5.83 -2.18,-9.56 -5.95,-11.49 -5.09,-2.61 -8.97,-1.78 -14.24,-0.4 -1.99,0.52 -5.56,1.08 -7.59,0.9 -3.75,-0.33 -3.2,-2.02 -5.32,-3.32 0.3,3.95 2.44,6.34 6.56,6.6 5.8,0.36 15.38,-4.9 21.22,2.09 2.19,2.63 2.96,8.08 -0.66,9.76z"/>
   <path class="fil4" d="M156.33 73.35c1.25,-0.21 0.08,-0.52 1.81,-1.13 2.57,-0.91 1.01,0.92 7.14,-3.19 3.56,-2.39 3.68,-2.13 6.63,-3.76 1.41,-0.78 1.38,-0.51 1.72,-1.72 -4.44,-2.07 -17.4,-5.48 -22.86,-5.08 -7.22,10.35 -1.31,9.01 5.57,14.87z"/>
   <path class="fil5" d="M45.17 134c1.58,-0.16 2.04,-0.61 3.53,-1.33 1.2,-0.58 0.23,-0.25 1.27,-0.53 3.25,-0.87 2.02,0.33 2.88,-3.61 1.5,-0.63 0.96,0.01 2.71,-1.38 0.07,-0.06 0.19,-0.18 0.29,-0.26 0.06,0.12 0.12,0.18 0.13,0.38 0.09,1.34 0.19,3.79 0.74,4.89 1.59,-1.07 0.24,-1.61 -0.17,-3.63 1.36,-1.62 1.52,-0.89 2.76,-3.03 0.88,-1.51 1.44,-2.03 2.44,-3.2 2.99,-3.51 0.78,-3.4 5.75,-5.39 -0.77,-2.61 -2.62,-1.17 -1.82,-3.6 1.38,-1.38 2.64,-0.15 4.28,0.64 -0.21,1.9 -0.59,1.59 0.35,3.6l5.03 -1.41c-0.23,1.86 -0.63,2.6 -0.21,4.38 1.44,-1.57 0.79,-7.38 2.02,-11.02 0.47,-1.4 0.71,-1.39 0.89,-3.47 -12.32,2.6 -19.13,11.07 -26.29,19.25 -1.87,2.13 -4.94,5.68 -6.57,8.72z"/>
   <path class="fil3" d="M26.61 93.61c2.44,0.1 6.14,-0.28 8.07,-1 5.95,-2.23 1.79,-0.68 6.67,-1.99 4.76,-1.28 8.5,-3.57 14.04,-3.89 9.38,-0.55 15.4,3.46 20.59,9.97 1.05,1.32 0.9,1.87 2.3,2.5 0.22,-3.02 -0.18,-2.8 -0.48,-5.42l0.83 1.12c2.14,3.17 0.52,2.71 1.89,3.84 1.76,-0.9 0.19,0.2 -2.12,-6.21 -2.82,-7.83 -12.83,-9.77 -21.3,-9.23 -6.2,0.4 -22.05,5.93 -28.77,9.05 -0.32,0.15 -0.62,0.3 -0.91,0.5 -0.94,0.67 -0.15,-0.06 -0.84,0.77z"/>
   <path class="fil3" d="M136.4 18.52l4.08 4.59c1.36,2.02 1.49,4.39 1.94,7.13 1.33,8.05 -2.99,6.22 -5.02,11.96l7.75 -5.87c-1.74,4.64 -10.62,4.53 -9.11,15.09 2.82,-0.86 0.57,-3.64 7.44,-8.94 2.85,-2.19 4.9,-3.91 4.63,-6.6 -0.24,-2.41 -0.59,-0.31 -0.71,-2.67 -0.05,-1.05 0.19,-1.31 0.21,-1.8 0.05,-2.01 -4.23,-9.92 -5.41,-11.32 -2.13,-2.53 -6.02,-5.73 -5.57,-10.84 0.53,1.22 6.05,8.25 7.03,9.09 -0.13,-3.21 -2.88,-6.41 -4.51,-8.19 -1.08,-1.18 -2.38,-1.63 -3.81,-2.69 -1.65,-1.23 -2.53,-1.95 -4.93,-1.93 1.25,2.12 2.5,2.59 3.67,5.81 0.74,2.04 1.91,5.25 2.32,7.18z"/>
   <path class="fil6" d="M117.08 7.23c4.16,1.32 1.55,-1.78 6.44,4.26 6.9,8.53 3.77,20.74 6.83,26.1 0.3,-0.4 0.61,-0.39 0.39,-2.04 -0.11,-0.82 -0.46,-1.22 -0.58,-2.75 0.78,-1.39 1.16,-0.95 1.26,-2.12 0.03,-0.31 -0.34,-2.57 -0.35,-3.59 0.36,0.51 0.19,0.15 0.48,0.98 0.59,1.68 0.81,6.74 1.8,8.25 1.39,2.14 6.43,1.31 6.03,-2.58l-2.12 -0.71c0.38,2.09 0.82,1.82 0.02,2.78 -7.34,-7.08 3.61,-28.47 -16.46,-32.54l-6.28 -0.01c1.19,1.85 4.02,1.93 5.95,2.59 2.52,0.86 3.27,1.51 4.76,3.04 3.18,3.26 4.66,5.39 4.96,11.69 -2.76,-1.69 -0.2,-1.29 -2.99,-4.58 -1.35,-1.59 -1.18,-2.4 -2.36,-4.15 -4.77,-7.02 -3,-2.81 -8.08,-5.23l0.29 0.61z"/>
   <path class="fil3" d="M149.43 36.71l1.76 -1.4c-1.87,7.57 -4.19,6.63 -5.52,10.21 4.19,-0.8 7.41,-5.68 6.44,-11.59 -0.52,-3.14 0.55,-4.61 -1.1,-7.9 -1.22,-2.43 -2.21,-3.74 -2.85,-6.57 6.04,10.71 4.76,7.83 5.34,18.14 0.23,4.07 -1.42,3.79 -1.38,6.3 7.21,-0.76 8.54,-20.32 -6.6,-27.83 -0.04,3.8 0.63,7.01 1.99,9.97 2.77,6 1.46,4.03 1.91,10.7z"/>
   <path class="fil7" d="M106.3 58.42l-0.84 1.02c-1.49,1.87 -1.54,3.11 -1.71,2.77 -0.03,-0.07 -0.12,0.25 -0.19,0.37 -0.07,2.23 -0.37,4.64 0.42,6.57 0.8,1.96 1.96,2.85 2.59,5.02 -1.69,0.69 -1.65,0.04 -3.02,1.52 1.48,-0.39 1.55,-0.84 1.95,0.01 0.57,-0.43 0.3,-0.13 0.8,-0.68 0.05,-0.06 0.46,-0.64 0.5,-0.69 2.7,1.08 1.96,3.12 8.03,4.21 4.29,0.77 7.24,0.45 11.63,0.43 1.21,0.29 0.67,1.61 1.54,2.59 0.36,-1.83 -0.22,-2.52 0.24,-3.69 0.42,-1.07 1.23,-1.11 1.85,-3.13 -1.87,0.84 -0.91,1.12 -2.12,1.57 0.83,-6.22 4.72,-5.56 4.82,-9.28 0.05,-1.7 -1.06,-2.84 0.08,-3.03 -0.54,-1 -0.82,-1.44 -1.46,-2.35 -0.26,-0.37 -0.53,-0.74 -0.76,-1 -0.41,-0.48 -0.32,-0.38 -0.71,-0.73 -0.88,1.4 0.19,-0.62 -3,-0.92l0.27 2.13 2.02 0.15c0.89,2.52 -1.91,2.38 -5.99,6.88 -1.35,1.49 -4.97,5.92 -5.37,7.79 3.2,-2.05 3.78,-2.99 6.02,-5.42 1.19,-1.29 4.56,-4.92 6.03,-5.56 1.57,5.56 -4.87,10.15 -7.35,12.02 -2.94,2.21 -5.01,0.48 -8.02,-0.21 -2.89,-0.66 -5.47,-2.2 -6.32,-4.11l1.05 -0.56c0.13,-0.02 0.36,0.01 0.54,-0 -1.28,-1.76 -0.56,-0.62 -0.16,-1.05 -0.42,-0.47 -0.35,-0.35 -0.87,-0.69 -1.65,-1.09 -4.1,-2.5 -4.34,-5.95 -0.27,-3.95 3.46,-4.08 4.05,-7.22 -1.5,-0.11 -1.29,-0.02 -2.25,0.54 0.09,1.04 0.03,0.67 0.05,0.7z"/>
   <path class="fil8" d="M109.82 72.09c-0.18,0.01 -0.41,-0.02 -0.54,0l-1.05 0.56c0.85,1.92 3.43,3.45 6.32,4.11 3.01,0.69 5.08,2.43 8.02,0.21 2.48,-1.87 8.92,-6.47 7.35,-12.02 -1.47,0.65 -4.85,4.28 -6.03,5.56 -2.24,2.42 -2.82,3.36 -6.02,5.42 0.41,-1.87 4.02,-6.3 5.37,-7.79 4.08,-4.5 6.88,-4.36 5.99,-6.88l-2.02 -0.15c-2.5,0.96 -6.46,5.21 -8.31,7.46 -2.32,2.81 -4.31,6.96 -9.08,3.52z"/>
   <path class="fil2" d="M119.76 16.47l-1.11 -3.85c-3.29,-0.04 -5.26,-0.19 -8.65,0.2 -2.2,0.25 -7.47,2.26 -7.26,-0.72 0.24,-3.57 7.93,-0.44 16.47,-0.39 -0.53,-1.65 -1.97,-2.63 -3.77,-3.41 -1.35,-0.58 -4.31,-1.37 -5.88,-1.58 -4.49,-0.58 -9.49,1.41 -10.19,4.67 -0.43,1.99 1.98,6.64 8,5.8 2.01,-0.28 3.85,-1.14 5.79,-1.57 3.27,-0.74 3.9,0.23 6.6,0.86z"/>
   <path class="fil3" d="M94.83 17.65c0.75,1.41 1.57,1.81 2.5,3.13 1.68,2.38 1.49,2.2 5.29,2.2 3.71,0 10.57,-1.61 13.22,-1.1 4.3,0.83 6.61,3.49 10.04,4.38 -0.74,-4.78 -5.88,-9.09 -11.55,-9.05 -2.94,0.02 -6.23,1.9 -8.69,1.9 -2.6,-0 -5.18,-1.65 -6.4,-4.05 -0.52,0.71 -0.51,-1.07 -0.45,1.28 0.04,1.49 0.93,1.56 2.45,3.86 -2,-0.09 -3.92,-0.26 -4.49,-1.9 -0.32,-0.93 -0.12,-1.63 0.23,-2.34 0.78,-1.56 0.83,-0.4 1.3,-2.09 -1.21,0.99 -2.95,2.07 -3.45,3.79z"/>
   <path class="fil9" d="M159.38 76.66c4.59,-1.44 6.62,-6.28 12.91,-4.37 0.57,2.63 -0.01,9.83 -0.5,12.42 -0.72,3.79 -4.77,5.47 -4.61,8.72 2.12,-0.01 5.15,-1.6 6.46,-2.62 1.89,-1.47 1.06,-4.74 1.13,-7.76 0.1,-4.31 1.46,-13.31 0.41,-16.7 -2.53,0.1 -14.01,6.42 -15.79,10.32z"/>
   <path class="fil9" d="M165.76 90.05c6.3,-1.64 6.17,-11.21 5.49,-16.34 -3.61,-1.27 -8.93,3.05 -9.44,5.24 -0.55,2.35 3.07,9.22 3.95,11.1z"/>
   <path class="fil10" d="M85.5 112.21c-0.27,2.64 -0.02,1.33 1.48,2.97 1.2,1.31 0.52,2.13 -0.38,3.29 -1,-1.79 1.23,-1.18 -1.08,-2.69 -4.63,-3.01 -7.12,1.41 -2.1,7.27 4.18,4.89 -0.68,7.63 3.71,8.12 0.67,-1.39 0.72,-4.33 0.46,-6.15 -0.27,-1.94 -1.52,-3.26 -2.97,-4.47 -0.37,-0.3 -0.75,-0.54 -1.25,-0.85 -0.19,-0.12 -0.79,-0.46 -0.86,-0.51l-0.94 -0.62c0.99,-0.46 2.07,-0.04 3.3,-1.16 1.33,2.71 0.24,1.58 2.6,3.26 1.28,-1.47 4.04,-11.38 3.46,-12.99 -1.47,0.65 -1.4,2.61 -1.74,4.84l-0.63 1.11c-0.08,-0.35 0.03,-0.11 -0.18,-0.82 -0.38,-1.24 -0.32,-1.09 -1.17,-1.8 -2,-1.66 -0.97,0.84 -0.86,-2.48 0,-0.08 -0.01,-0.23 -0.02,-0.31 -0,-0.08 -0.06,-0.25 -0.07,-0.32 -0.01,-0.07 -0.04,-0.23 -0.09,-0.33 -0.67,0.41 -1.16,0.78 -1.45,1.31l-0.77 2.11c-0.04,0.1 -0.09,0.26 -0.18,0.37 -2.2,-6.5 1.27,-2.98 -0.64,-7.18 -0.04,-0.08 -0.13,-0.22 -0.17,-0.34l0.86 -1.01c0.45,-0.7 0.23,0.65 0.47,-1.06 -2.05,0 -4.11,3.88 -4.23,4.18 -0.59,1.48 0.76,4.48 1.76,5.72 1.74,2.17 2.04,1.23 3.68,0.55z"/>
   <path class="fil11" d="M90.84 116.79l10.06 -0.2c1.31,-2.38 1.35,-3.35 4.76,-3.53 0.07,0.12 0.47,1.17 0,1.39l1.79 -0.6c3.18,-1.85 -1.98,0.41 0.81,-0.53l3.29 3.11c0.97,-1.32 0.47,-4.89 -0.92,-5.84 -0.32,-0.22 -4.25,-1.63 -6.13,0.39 -0.05,0.05 -0.12,0.19 -0.2,0.27 -0.9,-1.96 -1.99,-1.03 -4.69,-1.05 -2.16,-0.01 -4.43,-0.53 -6.5,-0.23l-2.26 6.83z"/>
   <path class="fil12" d="M8.03 97.2l4.09 1.02c1.29,0.01 2.61,-0.02 3.91,-0.02 -0.09,0.11 -0.66,0.86 -0.74,1.01 -1.81,2.92 -0.71,3.61 -4.1,3.58 0.71,0.67 -0.12,0.23 1,0.57 0.68,0.2 0.91,0.19 1.63,0.2 0.92,0.02 2.1,-0.04 3.06,-0.05 3.11,-0.01 13.63,-1.49 14.79,-4.05 -2.12,0.52 -2.92,1.29 -4.59,1.93 1.33,-2.58 3.94,-2.42 4.8,-5.27 -2.85,-0.71 -8.74,0.08 -11.47,0.83 -3.81,1.05 -8.3,0.57 -12.37,0.24z"/>
   <path class="fil1" d="M100.61 60.13c2.01,3.48 0.78,3.63 -1.15,5.89 -3.8,4.44 -7.67,6.81 1.75,9.71 1.53,0.47 0.76,-0.13 2.33,-0.05 1.37,-1.48 1.34,-0.82 3.02,-1.52 -0.63,-2.18 -1.79,-3.06 -2.59,-5.02 -0.79,-1.93 -0.49,-4.34 -0.42,-6.57 0.15,-3.47 0.26,-5.05 -3.55,-5.06l0.61 2.62z"/>
   <path class="fil13" d="M137.97 123.89c2.39,-1.06 3.77,-4.45 5.24,-6.76 1.28,-2.01 4.01,-5.2 4.63,-7.29 -1.31,0.52 -3.03,2.14 -4.08,3.57 -1.42,1.95 0.15,0.62 -1.74,2.11l-1.36 1.21c-0.65,0.55 0.4,0.19 -0.79,0.55 -2.15,-1.32 -0.46,-1.53 -3.29,-3.65l-0.97 -0.69c0.98,-2.67 0.64,-6.71 0.89,-10.04 1.69,-0.98 1.82,-0.9 1.85,-3.39 -0.77,-0.55 -1.01,-0.88 -1.67,-1.03 -1.42,2.32 -0.63,3.38 -2.62,5.6 -1.69,1.88 -1.19,-0.24 -0.16,6.61 0.59,3.89 2.84,9.53 4.07,13.19z"/>
   <path class="fil2" d="M26.84 113.36c0.93,-0.9 2.63,-1.16 4.37,-1.98 -0.44,-2.24 -1.18,-2.46 -2.38,-3.93 -1.29,-1.58 -0.9,-1.8 -3.76,-1.54 -3.17,-0.21 -8.55,2.23 -9.39,4.43 5.72,3.33 9.64,2.69 11.15,3.02z"/>
   <path class="fil3" d="M57.05 104.78l0.34 -2.01c-4.65,-0.04 -0.56,1.34 -6.02,2.04 0.83,-1.97 4.05,-5.3 -0.28,-5.36 -1.07,2.22 -10.19,6.68 -7.84,10.05 2.2,2.35 11.77,-2.08 13.81,-4.71z"/>
   <path class="fil14" d="M60.06 104.41c4.69,1.13 10.24,-2.25 13.24,-5.34 -0.49,-1.3 -3.79,-4.46 -5.32,-5.21 -1.52,0.8 -8.53,7.39 -7.92,10.55z"/>
   <path class="fil15" d="M77.07 75.68c0.08,-0.12 0.18,-0.46 0.22,-0.38 0.57,1.06 -0.01,-0.55 1.02,-1.92 1.51,-2.02 0.76,0.58 1.7,-1.59 -0.5,-1.56 -2.25,-2.85 -3.46,-4.68 -1.26,-1.9 -1.97,-3.42 -2.87,-5.33 1.63,0.5 1.63,1.09 2.52,2.31l0.48 -0.44c0.2,-0.21 0.47,-0.5 0.64,-0.7 1.82,-2.18 1.17,-2.7 3.21,-4.07 1.41,1.03 0.66,2.53 3.24,2.35 -0.63,-2.83 -2.69,-2.53 -2.79,-9.07l-2.2 1.86c0.35,1.03 0.6,2.01 0.36,3.49 -1.6,0.96 -8.11,1.18 -6.46,7.39 1.16,4.35 4.38,6.77 4.38,10.77z"/>
   <path class="fil16" d="M139.78 127.78c2.07,-1.32 3.25,-1.08 6.24,-0.96l1.32 -2.92c0.6,-1.11 0.17,-0.51 0.77,-1.04l1.64 2.74 4.25 0.37c-0.7,-2.01 -0.8,-3.03 -1.95,-3.97 -4.05,-3.3 -1.84,-3.63 -5.24,-4.84 -2.4,1.79 -5.64,7.04 -7.03,10.63z"/>
   <path class="fil3" d="M149.9 56.04c4.17,-0.59 4.92,-3.54 6.46,-5.03 1.24,-1.21 0.91,-0.53 2.14,-2.11 4.37,5.24 2.69,3.18 1.28,8.18l3.79 0.45c0.92,-2.28 1.58,-5.05 0.61,-7.48 -0.51,-1.28 -3.46,-3.43 -5.7,-3.49 -2.86,-0.08 -3.54,2.32 -4.81,4.38 -1.18,1.92 -3.26,3.32 -3.77,5.1z"/>
   <path class="fil17" d="M106.83 146.81c0.1,-0.03 0.96,-0.32 1.09,-0.32 0.86,0 0.31,-0.03 0.8,0.24l-0.03 1.63c1.63,-1.47 -0.22,-0.22 1.07,-1.64l0.34 -0.3c0.08,-0.06 0.32,-0.17 0.4,-0.23 0.84,-0.62 1.17,-0.81 1.12,-2.41 -1.37,0.32 -0.68,0.11 -1.6,1.2 0.12,-0.83 2.34,-3.82 -1.77,-6.07 -1.89,2.88 1.52,3.5 -0.43,4.07 -0.55,-1.35 -0.15,-2.48 -1.33,-3.71 -1.47,-1.53 -1.78,0.12 -2.16,0.2 -0.25,-0.46 -0.25,-0.12 -0.23,-0.94l0.1 -0.6c0,-0.01 0.56,-0.95 0.66,-1.08 4.21,-5.8 -0.04,-4.11 3.39,-7.26 1.99,1.14 0.45,1.65 2.6,2.97l0.35 -3.04c-0.9,-5.65 2.34,-4.98 0.8,-7.79 -3.1,5.88 -1.92,5.36 -4.85,8.27 -1.92,1.92 -4.21,5.78 -4.21,9.42l5.15 5.55 -1.27 1.82z"/>
   <path class="fil2" d="M106.83 146.81c-2.22,1.66 0.26,3.39 -4.68,1.34 -1.4,-0.03 -0.14,-0.55 -1,0.31 -0.19,2.6 -1.55,2.05 -0.98,4.22 0.1,4.78 -3.42,3.97 -3.39,7.68 2.92,0.22 5.57,-3.32 7.15,-4.96 0.85,-0.88 4.41,-5.61 4.76,-7.03l0.03 -1.63c-0.49,-0.27 0.06,-0.23 -0.8,-0.24 -0.14,-0 -1,0.29 -1.09,0.32z"/>
   <path class="fil18" d="M109.66 71.04c-0.4,0.44 -1.13,-0.7 0.16,1.05 4.77,3.44 6.76,-0.71 9.08,-3.52 1.85,-2.24 5.82,-6.5 8.31,-7.46l-0.27 -2.13c-3.83,0.68 -7.08,3.86 -9.17,5.86 -1.71,1.64 -5.16,7.49 -8.11,6.19z"/>
   <path class="fil2" d="M43.3 100.32c1.24,-2.28 7.3,-7.1 3.74,-8.55 -3.64,0.86 -6.82,3.08 -9.38,5.57 -1.25,1.21 -1.9,1.37 -2.06,3.04 2.52,1.06 5.47,0.4 7.7,-0.05z"/>
   <path class="fil1" d="M36.04 122.24c1.84,-1.36 3.92,0.37 3.12,-3.92 -0.32,-1.69 -1.23,-3.69 -2.79,-4.5 -1.26,1.92 -6.19,3.76 -8.35,7.34 2.24,1.66 5.35,0.84 8.03,1.08z"/>
   <path class="fil19" d="M25.08 105.91c2.87,-0.26 2.47,-0.04 3.76,1.54 1.2,1.47 1.93,1.68 2.38,3.93 -1.74,0.82 -3.45,1.09 -4.37,1.98 4.61,-0.49 10.79,-0.84 12.24,-4.43 -1.59,0.44 -2.87,0.93 -4.42,0.16 -0.78,-0.63 -0.24,-2.8 -0.27,-3.45l-1.07 -3.21c-3.72,2 -7.23,2.47 -8.25,3.47z"/>
   <path class="fil15" d="M117.08 7.23l-0.29 -0.61c5.08,2.41 3.31,-1.79 8.08,5.23 1.18,1.74 1.02,2.55 2.36,4.15 2.78,3.29 0.23,2.89 2.99,4.58 -0.29,-6.3 -1.78,-8.44 -4.96,-11.69 -1.49,-1.53 -2.24,-2.17 -4.76,-3.04 -1.94,-0.66 -4.77,-0.75 -5.95,-2.59l6.28 0.01c-3.61,-2.06 -7.17,-0.31 -10.04,2.26l6.3 1.71z"/>
   <path class="fil15" d="M36.36 113.82c1.56,0.81 2.48,2.81 2.79,4.5 0.8,4.29 -1.28,2.56 -3.12,3.92 2.64,0.52 7.3,-2.16 9.31,-3.37 -1.18,-7.71 -0.51,-3.73 0.58,-6.38 -3.98,1.09 -4.25,-1.84 -8.23,0.48 -0.13,0.07 -0.53,0.33 -0.64,0.4l-0.69 0.45z"/>
   <path class="fil6" d="M53.2 96.04c0.48,0.4 -0.2,0.36 1.52,0.82 0.68,0.18 1.27,0.18 1.99,0.16 3.43,-0.1 7.69,-2.36 10.25,-4.01 -0.84,-0.78 -6.62,-3.29 -7.94,-2.95 -1.35,0.36 -5.21,4.33 -5.82,5.98z"/>
   <path class="fil20" d="M141.33 64.86c-1.52,-2.59 -4.95,-4.55 -4.54,-8.24 2.94,1.45 2.73,5.04 5.31,6.47 3.61,2 5.21,-2.81 4.9,-5.82 -1.78,-0.67 -3.52,-1.15 -5.62,-0.89 1.3,0.88 3.23,3.5 3.79,5.2 -2.65,-0.63 -2.15,-2.36 -3.88,-3.39 -1.71,-1.02 -0.74,0.4 -2.33,-1.1 -1.05,-0.99 -0.06,-1.02 -1.69,-1.81 -4.46,2.59 0.62,11.33 4.05,9.57z"/>
   <path class="fil21" d="M81.13 68.55c1.54,-0.94 1.25,-1.15 2.44,-2.29 3.71,0.1 1.48,1.62 2.9,0.24 1.15,-1.11 0.08,-2.56 5.6,-8.3 2.29,-2.38 2.54,-1.95 2.79,-3.8 -3.16,0.03 -7.05,2.95 -8.82,5.13 -0.68,0.84 -4.76,8.26 -4.9,9.03z"/>
   <path class="fil2" d="M58.35 113.94c-0.25,-1.08 -1.8,-4.48 -2.5,-5.16 -1.9,1.29 -8.02,5.94 -8.02,8.73 3.51,1.1 8.81,-2.05 10.52,-3.57z"/>
   <path class="fil1" d="M46.29 126.96l0.04 -1.39c-1.91,-0.85 -1.53,-1.34 -3.9,-1.92 -0.54,0.85 -2.75,2.48 -3.68,3.36 -1.38,1.31 -2.38,2.01 -2.78,4.17 6.24,2.63 7.44,-2.31 10.32,-4.23z"/>
   <path class="fil2" d="M11.18 102.8c3.39,0.03 2.29,-0.67 4.1,-3.58 0.09,-0.14 0.65,-0.9 0.74,-1.01 -1.3,0 -2.62,0.03 -3.91,0.02l-4.09 -1.02c-2.12,-0.57 -3.09,-1.53 -5.46,-1.68 0.79,2.87 5.17,7.13 8.61,7.28z"/>
   <path class="fil22" d="M115.19 128.61c1.34,-0.72 1.14,-1.01 1.35,-2.4 -0.99,-0.67 -0.78,-0.83 -2.21,-0.96 -0.75,0.68 -1.16,1.7 -1.63,2.55 -1.76,3.15 0.71,3.04 0.25,10.19 -0.62,0.54 -1.21,0.52 -1.84,1.35 0.19,1.26 0.41,1.56 0.9,2.26 0.74,-0.14 1.3,0.53 3.2,-3.13 0.68,-1.31 1.27,-2.59 1.37,-4.33l-0.75 0.03c-0.64,0.01 0,0.23 -0.61,-0.03 -0.12,-1.07 -0.08,-2.09 -0.16,-3.03 -0.14,-1.58 -0.04,-0.79 -0.83,-2.17l0.96 -0.35z"/>
   <path class="fil4" d="M123.92 97.35c0.26,-2.77 1.07,-0.05 0.84,-3.54 -2.42,0.73 -3.12,1.9 -5.69,3.94 -1.39,1.1 -1.21,0.56 -1.28,2.19 1.43,0.78 1.4,0.46 2.56,0.11 2.07,-0.64 1.98,-1.08 2.62,-1.42 1.51,-0.81 1.32,0.26 2.89,-1.04 0.79,-0.66 0.6,-1.18 1.53,-1.84 -0.13,0.31 -0.46,1.03 -0.55,1.15l-1.19 1.47c-0.32,0.62 -0.31,0.97 -0.56,1.69 -0.45,1.28 -0.29,-0.34 -0.78,2.06 0.25,0.37 0.31,0.61 0.62,0.99 0.91,1.09 -0.05,0.27 1.09,1.01 0.03,-0.1 0.05,-0.38 0.05,-0.32l-0.01 -1.55c0.05,-0.2 0.7,-1.07 1.01,-1.7 0.69,-1.4 1.33,-3.55 1.84,-4.92 -3.33,-2.61 -0.82,-1.64 -2.45,-2.42 -0.96,1.67 -0.17,3.75 -2.53,4.16z"/>
   <path class="fil3" d="M77.37 36.85c1.18,-1.08 1.63,-3.19 1.71,-4.97 0.34,-7.57 5.66,-9.15 5.26,-14.06 -5.1,2.25 -9.13,11.5 -6.97,19.03z"/>
   <path class="fil21" d="M100.61 60.13l-0.61 -2.62c3.81,0.01 3.7,1.6 3.55,5.06 0.07,-0.12 0.16,-0.44 0.19,-0.37 0.17,0.34 0.21,-0.9 1.71,-2.77l0.84 -1.02 -0.52 -1.66c-5.06,-0.93 -7.99,-0.7 -11.32,2.53 -0.88,0.86 -2.44,2.88 -3.28,4.09 -1.23,1.77 -1.95,2.81 -2.09,5.53 0.61,-0.44 0.3,-0.15 0.82,-0.69 1.75,-1.8 2.58,-4.5 9.25,-10.98 0.62,0.91 0.1,0.36 0.52,1.37 0.75,1.81 -0.19,0.41 0.92,1.53z"/>
   <path class="fil19" d="M80.18 75.2c2.14,0.09 3.6,0.85 5.99,0.52 2.23,-0.31 2.77,-1.48 5.19,-1.09 0.61,0.62 1.4,1.74 1.94,2.14 1.58,1.16 1.53,0.14 3.44,1.05 -1.69,-2.57 -3.48,-3.23 -4.24,-6.03 0.78,-2.49 2.66,-3.12 3.97,-4.85 1.25,-1.65 2.7,-3.09 2.78,-5.95 -1.53,1.18 -1.46,2.54 -3.04,4.83 -1.3,1.88 -2.56,2.52 -3.83,4.4 -3.44,5.11 -6.81,4 -11.37,3.79l-0.84 1.19z"/>
   <path class="fil22" d="M100.17 152.67c-0.57,-2.17 0.79,-1.62 0.98,-4.22 0.86,-0.85 -0.4,-0.33 1,-0.31l-1.3 -1.43c0.31,-1.96 1.31,-3.47 0.89,-5.22 -2.16,0.14 -1.6,0.66 -2.32,2.01 -0.64,1.18 -0.71,0.95 -1.99,1.8 0.71,2.14 0.43,1.41 0.27,4.01 0.88,0.9 0.9,0.54 1.5,1.73l-2.59 0.84c-0.38,1.95 -0.69,2.3 -0.09,3.95 2.55,-0.12 1.95,-0.65 2.97,-2.31 0.53,-0.87 -0.08,-0.14 0.7,-0.86z"/>
   <path class="fil3" d="M141.7 50.92c-0.08,-2.3 -0.17,-0.61 0.39,-1.6l1.04 -1.47c-3.76,0.43 -2.78,3.03 -1.09,5.34 3.3,-0.49 0.76,-0.21 3.47,-0.06 3.8,0.21 7.23,-3.47 7.63,-6.59 -5.32,-0.2 -5.16,6.21 -11.44,4.37z"/>
   <path class="fil19" d="M47.04 91.77c3.56,1.45 -2.5,6.27 -3.74,8.55 2.09,-1.09 5.3,-2.88 6.49,-4.27 1,-1.15 3.95,-5.2 4.04,-6.23 -1.82,-0.09 -5.26,0.8 -6.79,1.94z"/>
   <path class="fil23" d="M55.85 108.78c0.7,0.68 2.25,4.08 2.5,5.16l2.9 -2.54c0.85,-0.89 1.67,-1.8 2.37,-2.8l-1.66 -0.54c-2.01,-1.09 -2.43,-2.75 -5.63,0.22l-0.48 0.49z"/>
   <path class="fil24" d="M91.27 149.05l-2.02 -0.02c0.68,1.85 0.45,0.52 -0.05,1.36 -4.34,-0.11 -5.29,-1.33 -4.98,2.99 -1.73,-1.18 -0.19,-0.23 -1.48,-1.88 -0.72,1.43 -1.02,1.51 -0.96,3.44 1.32,0.93 1.43,1.19 3.09,1.38 0.79,-1.49 0.25,-1.56 0.67,-3.31 1.42,-0.01 2.55,0.76 3.9,-0.43 1.06,-0.93 0.4,-1.49 1.83,-3.54z"/>
   <path class="fil25" d="M94.54 152.02c0.45,-0.57 1.19,-1.31 0.83,-2.03 -0.86,-1.7 -3.3,1.1 -3.79,1.7 -1.51,1.85 -1.44,2.57 -0.19,4.97 1.23,2.36 0.79,3.28 3.63,3.13 0.06,-2.86 -1.04,-3.72 -1.98,-5.7l1.5 -2.05z"/>
   <path class="fil26" d="M84.87 141.6c3,-2.56 2.06,-10.75 -3.44,-10.98 0.09,2.97 1.79,3.5 2.38,5.49 0.7,2.39 -1.77,3.62 1.05,5.49z"/>
   <path class="fil26" d="M83.62 148.83l2.69 -0.21c0.22,-3.11 -2.25,-8.01 -6.93,-8.27 0.28,2.22 0.76,2.49 2.29,3.93 1.83,1.73 0.26,0.58 1.95,4.55z"/>
   <path class="fil13" d="M137.71 112.92c3.01,-0.59 3.12,-3.53 4.55,-5.41 0.59,-0.77 0.88,-0.73 1.45,-1.91 -2.97,0.82 -1.3,2.31 -5.48,4.54 1.58,-1.93 1.12,0.66 1.96,-2.65 0.52,-2.04 1.02,-2.28 -0.32,-3.8 -0.87,0.31 -2.08,0.44 -2.32,3.57 -0.1,1.27 -0.04,4.42 0.16,5.65z"/>
   <path class="fil26" d="M77.19 123.72c-1.83,1.49 -2.06,5.87 -1.08,7.47 0.22,0.37 1.79,2.08 2.27,2.54 0.92,0.86 1.34,1.16 2.97,1.2 -0.01,-2.01 -1.55,-3.7 -2.61,-5.05 -1.83,-2.33 -1.65,-2.15 -1.55,-6.16z"/>
   <path class="fil3" d="M85.92 20.02c2.2,-1.21 2.58,-3.07 4.84,-4.72 1.62,-1.17 5.02,-2.83 5.8,-4.57 -5.4,0.61 -10.52,4.08 -10.65,9.29z"/>
   <path class="fil27" d="M57.05 104.78c0.86,-0.53 0.61,0.34 1.15,-1.64 0.78,-2.84 -1.45,-3.87 -4.54,-4.27 -0.06,-0.01 -1.25,-0.01 -1.3,-0 -1.3,0.26 -0.43,-0.14 -1.28,0.58 4.33,0.06 1.12,3.39 0.28,5.36 5.46,-0.69 1.37,-2.07 6.02,-2.04l-0.34 2.01z"/>
   <path class="fil13" d="M127.7 102.54l1.78 1.86c3.29,-0.31 4.93,-4.12 5.92,-6.97 -1.67,0.19 -1.26,0.78 -2.09,2.51l-1.36 -0.24c-0.06,0.76 0.06,3.18 -2.04,4.12 -1.86,-1.63 -0.42,-2.72 0.86,-4.32 1.13,-1.42 2.36,-2.72 2.94,-5 -2.46,0.69 -5.31,5.51 -6.01,8.05z"/>
   <path class="fil3" d="M136.4 18.52c-0.78,-0.3 -0.6,-0.1 -0.9,0l0.78 8.86 3.99 1.81c-0.45,-4.25 -3.05,-7.32 -3.87,-10.66z"/>
   <path class="fil17" d="M83.31 124.39c-0.8,-1.86 0.15,-0.05 -0.62,-1.01 -2.08,-2.61 -2.38,-4.22 -4.26,-4.91l0.3 -0.47c0.66,-1.44 0.14,-0.58 0.38,-3.06 0.01,-0.13 0.04,-0.24 0.05,-0.37 0.06,-0.62 0.04,-0.51 0.08,-1.2 0.01,-0.13 0.01,-0.25 0.02,-0.37l-1.49 2.36c-1.09,4.77 0.04,8.82 5.54,9.03z"/>
   <path class="fil20" d="M87.47 35.14c0.53,-0.72 0.07,0.18 0.24,-1.07 0.37,-2.7 -0.52,1.77 0.06,-0.78 0.35,-1.55 0.09,-0.38 0.4,-1.02 0.7,-1.45 0.62,-1.42 1.06,-2.93 0.89,-3.07 2.17,-2.28 2.56,-5.22 -1.85,0.58 -3.89,2.09 -4.71,3.98 -1.49,3.45 -0.6,4.46 0.38,7.03z"/>
   <path class="fil15" d="M42.43 123.65c2.37,0.58 1.99,1.07 3.9,1.92l-0.04 1.39 1.07 -1.35c0.48,-0.66 0.44,-0.59 0.93,-1.19 0.89,-1.08 1.01,-1.46 1.62,-2.39 -3.67,-2.32 -4.14,-0.44 -5.32,0.42 -0.81,0.59 -1.14,0.54 -2.15,1.21z"/>
   <path class="fil22" d="M113.14 119.29c0.82,-0.25 0.56,-0.1 1.02,-0.77 0.1,2.41 0.91,5.07 3.2,5.79 -0.56,-3.9 -1.54,-4.21 -1.55,-4.21l-0.51 -0.25c0.08,-1.8 -0.06,-3.25 -0.48,-4.74 -0.33,-1.15 -0.46,-0.87 -0.71,-1.9 -0.46,-1.87 0.34,-1.46 -1.07,-2.18 -1.02,1.95 0.36,1.17 0.63,3.62 0.25,2.27 -0.93,2.32 -0.51,4.64z"/>
   <path class="fil26" d="M73.83 145.62c-0.3,4.24 0.93,7.88 4.91,8.47 -0.89,-3.06 -2.04,-1.43 -2.55,-7.48l-2.36 -0.99z"/>
   <path class="fil25" d="M77.5 140.62c-1.95,-4.4 -1.49,-2.06 -2.92,-4.19 0.28,3.51 1.47,9.46 6.07,9.14 -0.39,-3 -1.31,-0.78 -3.15,-4.95z"/>
   <path class="fil3" d="M77.51 45.36c1.23,-2.85 -1.28,-7.18 -2.93,-8.52 -1.25,1.75 -1.2,2.37 -0.03,4.54 0.94,1.74 1.74,3.16 2.96,3.98z"/>
   <path class="fil28" d="M157.19 42.35c-1.71,0.98 -1.28,-0.34 -2.08,2.03 4.23,-0.65 3.98,-2.15 3.91,-8.55l-0.34 -2.36c-0.38,-0.75 -0.31,-0.4 -0.72,-0.82l-0.77 9.7z"/>
   <path class="fil29" d="M148.59 113.8l4.94 5.16c-0.07,-1.64 -0.43,-2.54 -0.87,-4.11l-0.86 -2.97c-0.4,-0.72 -0.31,-0.47 -0.66,-0.84 -1.05,0.71 -1.9,1.22 -2.55,2.74z"/>
   <path class="fil9" d="M128.58 112.1c-1.36,1.34 -0.31,0.45 -2.01,1.27 2.37,0.74 2.5,-1.12 2.96,-2.47 0.41,-1.19 1.63,-3.09 1.98,-4.98 -1.24,0.42 -0.79,0.04 -1.41,1.59 -0.43,1.06 -0.51,1.18 -1.06,1.82l-0.96 -0.73c0.44,-1.95 1.93,-0.52 0.1,-3.14 -0,0 -1.77,0.23 -1.23,3.41l1.62 3.23z"/>
   <path class="fil24" d="M83.62 148.83l-0.75 0.93c-2.61,-1.05 -0.31,-1.34 -2.76,-1.65 -0.5,0.92 -0.44,0.56 0.24,1.56l-2.21 -1.15c0.23,2.03 0.36,3.33 1.53,4.58 1.26,-0.72 3.59,-3.07 3.95,-4.28z"/>
   <path class="fil26" d="M83.37 126.45l-4.04 -0.1c-0.36,3.99 5.03,4.94 4.04,0.1z"/>
   <path class="fil13" d="M140.18 112.6c2.64,-0.24 5.06,-3.53 6.14,-6.09 -1.78,1.53 -2.1,0.45 -3.72,2.22 -0.91,1 -1.98,2.78 -2.42,3.87z"/>
   <path class="fil30" d="M123.43 121.59c1.1,0.72 0.72,0.83 2.28,0.17 1.91,-0.81 0.69,-0.45 1.66,-1.87 0.98,-1.44 2.19,-1.54 3,-3.42 -2.9,0.95 -1.15,1.67 -3.55,2.38 -3.2,0.95 -3.23,1.38 -3.39,2.74z"/>
   <path class="fil31" d="M102.98 143.59c-0.35,1.09 -0.59,2.2 -0.39,3.63 1.18,0.56 2.91,1.49 3.1,-0.93 0.17,-2.14 -0.79,-2.59 -2.71,-2.7z"/>
   <path class="fil6" d="M88.44 36.21c0.55,0.55 1.52,1.23 1.79,1.53l-1.09 -2.27c1.15,-1.39 2.26,-3.32 2.1,-5.36 -0.05,-0.63 -0.22,-0.76 -0.3,-0.97 -2.18,0.75 -1.03,0.86 -1.66,3.42 -0.43,1.77 -0.96,1.24 -0.83,3.66z"/>
   <path class="fil6" d="M86.62 25.37c1.4,-1.18 1.7,-2.09 2.87,-3.53 1.55,-1.92 2.27,-1.26 2.89,-3.92 -2.36,1.23 -5.74,3.85 -5.76,7.46z"/>
   <path class="fil28" d="M155.08 55.63l2.9 0.07c1.07,-2.14 1.7,-2.66 1.09,-5.39 -1.6,0.76 -0.34,-0.86 -1.93,2.81 -0.97,2.25 -1.03,1.14 -2.05,2.51z"/>
   <path class="fil25" d="M90.23 158.52c0.18,-1.15 -0.48,-2.15 -1.04,-3.07 -5.96,0.11 -1.45,2.98 -1.02,3.15 0.54,0.21 0.43,0.22 1.02,0.24 1.95,0.07 0.3,0.02 1.03,-0.31z"/>
   <path class="fil22" d="M107.73 136.75c0.79,0.66 -0.61,-0.01 0.78,0.67 2.03,0.99 1.06,-0.54 3.18,0.49l-0.58 -3.92c-2.41,0.46 -2.47,1.19 -3.38,2.76z"/>
   <path class="fil30" d="M120.82 115.31c1.69,-1.28 1.9,-4.85 0.27,-5.35 -2.4,-0.74 -0.92,4.26 -0.27,5.35z"/>
   <path class="fil25" d="M79.16 136.6c-0,0 -1.39,1.17 0.23,2.64 2.7,2.46 4.28,-4.47 -0.23,-2.64z"/>
   <path class="fil13" d="M122.55 107.83c1.05,-0.97 1.92,-1.74 1.49,-3.78l-3.31 -0.35c0.29,1.36 0.09,0.87 0.76,2.05l1.06 2.07z"/>
   <path class="fil22" d="M116.83 132.66c1.82,-1.17 3.46,-3.53 3.51,-5.83 -0.57,0.58 -0.93,1.33 -1.32,1.62l-2.39 0.95 0.2 3.26z"/>
   <path class="fil32" d="M70.62 105.2c2.51,-0.34 4.45,-1.26 4.75,-3.51 -2.72,0.69 -3.5,1.88 -4.75,3.51z"/>
   <path class="fil0" d="M121.01 153.64c0.82,1.37 0.72,1.24 2.45,1.3l0.43 -2.87c-2.72,0.03 -2.54,0.94 -2.88,1.58z"/>
   <path class="fil30" d="M128.07 122.54l3.16 0.1c-0.17,-1.6 0.01,-1.25 -0.88,-2.33 -1.39,0.6 -1.77,0.84 -2.27,2.23z"/>
   <path class="fil28" d="M74.65 46.9c0.42,1.57 0.38,1.85 1.56,2.61l1.26 -3.14 -2.82 0.53z"/>
   <path class="fil33" d="M132.67 123.76l3.18 0.8 -1.01 -2.63c-1.39,0.61 -1.74,0.51 -2.17,1.83z"/>
   <path class="fil6" d="M143.61 50.74l2.77 -0.48c-0.66,-1.37 0.41,-0.37 -1.15,-1.13 -0.65,-0.32 -1.32,-0.54 -2,-0.81l0.38 2.42z"/>
  </g>
 </g>
</svg>
