<?xml version="1.0" encoding="UTF-8"?>
<!DOCTYPE svg PUBLIC "-//W3C//DTD SVG 1.1//EN" "http://www.w3.org/Graphics/SVG/1.1/DTD/svg11.dtd">
<!-- Creator: CorelDRAW -->
<svg xmlns="http://www.w3.org/2000/svg" xml:space="preserve" width="33.814mm" height="10.2596mm" version="1.1" style="shape-rendering:geometricPrecision; text-rendering:geometricPrecision; image-rendering:optimizeQuality; fill-rule:evenodd; clip-rule:evenodd"
viewBox="0 0 124.1 37.65"
 xmlns:xlink="http://www.w3.org/1999/xlink"
 xmlns:xodm="http://www.corel.com/coreldraw/odm/2003">
 <defs>
  <style type="text/css">
   <![CDATA[
    .fil0 {fill:black}
    .fil2 {fill:#893131}
    .fil1 {fill:#F58735}
    .fil3 {fill:#FEFEFE}
   ]]>
  </style>
 </defs>
 <g id="Camada_x0020_1">
  <metadata id="CorelCorpID_0Corel-Layer"/>
  <g id="_2416641977616">
   <path class="fil0" d="M117.78 7.53c-1.5,-0.39 -3.17,0.31 -4.69,0.06 -3.45,-0.57 -2.77,-4.99 -11.05,-5.39 -6.27,-0.3 -12.61,-0.01 -18.89,-0.01 -6.35,0 -12.52,0.1 -18.89,0.08 -3.2,-0.01 -5.98,0.06 -9.1,-0.63 -1.38,-0.31 -2.74,-0.75 -4.12,-0.97 -0.33,-0.05 -4.18,-0.5 -4.37,-0.67 -0.53,0.27 -3,0.03 -3.77,0.05 -3.65,0.08 -7.47,0.6 -11.22,0.71 -2.55,0.08 -5.02,0.03 -7.58,-0.08 -3.01,-0.13 -4.25,-0.53 -6.71,1.57 -2.08,1.78 -3.15,2.64 -5.86,3.25 -2.33,0.53 -4.75,0.68 -7.08,1.16 -1.48,0.31 -3.76,0.5 -4.26,2.64 -1.24,5.33 3.86,6.68 4.2,8.93 -0.47,1.03 -1.68,0.94 -2.35,1.78 -0.66,0.82 -1.2,2.34 -0.35,3.73 0.6,0.99 1.5,1.19 2.42,1.66 0.94,0.48 2.09,0.66 1.85,2.79 -0.44,0.65 -0.92,1.05 -1.08,2.11 -0.2,1.29 0.27,2.24 0.7,2.69 1.17,1.21 2.66,0.65 4.1,0.46 3.76,-0.48 9.42,0.06 13.26,1.19 1.33,0.39 2.51,1.04 3.76,1.58 3.19,1.37 5.58,0.66 8.88,0.49 7.51,-0.39 10.66,-0.62 18.23,0.6 2.96,0.48 6.21,0.32 9.23,0.32 3.16,0 6.32,0.03 9.48,0.02l28.12 -0.15c4.83,-0.02 4.61,0.92 6.91,-4.51 0.89,-2.09 3.18,-7.68 4.21,-8.95 2.03,-2.48 4.93,-0.87 8.19,-2.24 1.41,-0.59 2.38,-1.34 3.11,-2.73 2.14,-4.08 0.66,-8.47 -1.41,-10.05 -0.91,-0.69 -2.72,-1.59 -3.87,-1.49z"/>
   <path class="fil1" d="M65.25 19.9c0.47,-1.89 1.7,-3.95 2.36,-5.7 0.12,-0.33 2.8,-5.44 3.47,-7.1 0.3,-0.75 0.63,-1.2 0.86,-1.77 -1.59,-0.13 -12.69,0.18 -13.08,-0.24 -2.71,0.15 -6.15,-1.3 -8.95,-1.68 -3.2,-0.43 -6.22,-0.72 -9.49,-0.37 -5.48,0.58 -9.03,0.75 -14.43,0.66 -1.55,-0.03 -3.42,-0.31 -4.93,-0.07 4.41,1.61 13.71,0.81 18.78,0.67 1.48,-0.04 5.94,0.33 7.42,0.7 0.83,0.21 2.74,0.34 2.79,2.01 -1.1,1.66 -6.26,1.46 -8.15,1.23 -2.57,-0.32 -5.57,-0.91 -8.03,-1.75 -5.35,-1.82 -11.64,-0.58 -17.04,0.27 0.54,0.32 9.2,0.42 11.04,0.49 1.01,0.03 2.75,-0.32 3.35,0.9 -0.23,2.15 -5.21,1.99 -6.65,1.87 -2.34,-0.2 -4.71,-0.89 -7.09,-1.18 -2.42,-0.29 -4.98,-0.62 -7.41,-0.19 -1.47,0.26 -5.82,0.56 -7,1.29 0.83,0.23 5.63,-0 6.99,0.04 7.59,0.26 12.1,2.93 19.96,1.74 4.42,-0.67 8.7,-1.31 13.19,-1.52 14.8,-0.68 15.61,5.13 6.6,4.83 -7.37,-0.24 -6.2,-4.74 -18.97,-2.74 -11.68,1.83 -13.97,2.91 -26.27,2.27 1.92,1.58 6.93,1.93 9.37,1.84 6.47,-0.24 13.06,-2.14 19.49,-2.49 1.68,-0.09 3.45,-0.12 5.12,0.18 0.64,0.12 4.07,0.82 3.81,2.45 -1.16,2.9 -11.67,0.47 -14.22,0.16 -2.52,-0.31 -5.16,-0.22 -7.67,0.11 -1.23,0.16 -6.57,0.7 -7.33,1.13 4.07,0.1 9.05,-0.53 13.1,0.17 1.98,0.34 4.06,0.79 6.02,1.09 2.12,0.32 4.17,0.55 6.33,0.77 2.11,0.22 4.48,0.05 6.62,0.04 2.25,-0.01 4.51,-0.02 6.76,-0.02 1.2,0 12.46,-0.25 13.28,-0.08z"/>
   <path class="fil2" d="M68.67 34.95c0.15,-0.91 2.56,-5.82 3.06,-6.85 0.54,-1.13 1.07,-2.2 1.6,-3.35 0.49,-1.06 1.2,-2.23 1.6,-3.37l-0 -0.74c-5.89,-0.56 -12.05,-0.13 -17.98,-0.13 -1.5,0 -3.01,-0 -4.51,-0 -1.48,-0 -2.86,0.25 -4.35,0.25 -2.95,-0.01 -5.82,0.53 -8.77,0.42 -2.98,-0.11 -5.95,-0.07 -8.94,-0.18 -2.95,-0.11 -5.84,-0.41 -8.86,-0.2 -2.83,0.2 -5.59,0.75 -8.37,1.04 -2.96,0.31 -5.76,0.39 -8.73,0.49 0.23,0.35 0.36,0.35 0.67,0.41l2.18 0.36c2.52,0.44 6.6,-0.07 9.04,-0.48 1.96,-0.33 3.84,-0.76 5.8,-1 7.5,-0.91 16.29,2.18 23.61,2.68 1.21,0.08 4.75,0.29 5.81,0.76 0.19,0.42 0.28,1.08 0.29,1.71 -0.8,0.82 -4.16,0.84 -5.28,0.75 -1.81,-0.14 -3.38,-0.53 -5.08,-1.07 -3.35,-1.08 -6.59,-1.69 -10.1,-2.08 -3.77,-0.42 -6.97,0.29 -10.63,0.87 -0.88,0.14 -1.73,0.39 -2.57,0.45l-5.41 0.43c-0.54,0.02 -2.32,-0.19 -2.57,0.23 0.54,0.23 5.63,0.33 6.5,0.32 2.12,-0.03 4.3,-0.22 6.4,-0.43 2.43,-0.24 7.23,-0.58 9.66,0.16 0.93,0.28 1.94,0.46 2.06,2.08 -1.77,2.36 -10.48,1.1 -13.14,0.8 -2.82,-0.31 -11.27,-0.04 -13.49,1.4 0.41,0.11 2.48,-0.4 3.11,-0.49 2.62,-0.35 7.59,-0.23 10.09,0.08 2.18,0.27 4.12,0.82 6.27,1.15 2.17,0.33 4.26,0.58 6.51,0.39 2.21,-0.18 4.28,-0.64 6.4,-1.01 2.03,-0.35 4.05,-1.2 6.07,-1.4 3.2,-0.32 8.24,-0.62 11.47,0.66 0.56,0.22 0.87,0.39 0.82,1.54 -0.97,1.73 -3.73,1.32 -5.32,1.18 -4.47,-0.38 -6.89,-0.76 -11.49,-0.09 -0.96,0.14 -1.87,0.22 -2.83,0.37 -0.42,0.06 -2.45,0.13 -2.79,0.59 2.75,0.03 5.41,-0.25 8.18,-0.11 1.37,0.07 2.74,0.06 4.1,0.15 1.31,0.09 2.54,0.34 3.84,0.52 2.75,0.38 5.17,0.54 7.97,0.54 1.22,0 7.49,-0.23 8.12,0.19z"/>
   <path class="fil3" d="M75.55 21.38c-0.4,1.14 -1.1,2.31 -1.6,3.37 -0.53,1.15 -1.05,2.22 -1.6,3.35 -0.5,1.03 -2.91,5.94 -3.06,6.85 0.69,-0.26 6.98,-0.05 8.61,-0.05 1.5,0 1.78,0.34 2.33,-0.82 0.37,-0.78 4.58,-10.52 5.08,-10.9 0.23,0.73 0.79,1.79 1.12,2.45 0.37,0.75 0.75,1.58 1.12,2.33 0.76,1.58 1.48,3.07 2.23,4.67 1.23,2.62 0.82,2.01 3.79,2.04l9.92 0.05c0.52,-0.01 0.61,-0.04 0.85,-0.63l3.71 -8.64c0.4,-0.9 1.87,-4.11 2.03,-4.88l-8.46 0.03c-0.59,0.17 -3.15,6.68 -3.88,7.85 -0.38,-0.24 -2.84,-5.14 -3.32,-6.02 -1,-1.86 -0.48,-1.8 -2.42,-1.79l-15.25 0.02c-0.93,0 -0.71,-0.19 -1.21,0.71z"/>
   <path class="fil3" d="M82.84 5.36c-0.04,-0.15 0.11,-0.27 -0.49,-0.3 -2.55,-0.13 -7.25,0.34 -9.22,0.1 -0.43,0.08 -0.67,-0.08 -0.77,0.59l-5.46 11.3c-0.23,0.43 -0.55,1.04 -0.7,1.71 -0.15,0.22 -0.31,0.74 -0.45,1.08 1.74,0.08 3.51,0.02 5.25,0.02 1.03,0 4.45,0.23 5.21,-0.1 0.34,-0.67 3.06,-7.01 3.43,-7.16l3.01 6.22c0.54,1.15 0.39,1.12 1.56,1.1 1.27,-0.03 8.23,0.09 8.75,-0.07 -0.18,-0.81 -3.48,-7.02 -3.67,-7.87l6.56 -5.16c0.54,-0.41 1.82,-1.31 2.19,-1.79l-5.52 -0.04c-1.67,-0.01 -3.78,-0.39 -5.16,0.68 -0.7,0.54 -7.13,6.17 -7.55,6.32l3.02 -6.63z"/>
   <path class="fil3" d="M98.3 11.12c-0.35,0.51 -4.51,0.54 -5.71,3.19 -0.66,1.44 0.66,3.21 1.26,3.69 2.51,2 7.74,1.97 10.34,1.22 1.01,-0.29 3.53,-1.24 4.07,-2.79 0.39,-1.14 -0.12,-1.8 -0.29,-2.51 3.19,0.65 5.25,7.29 10.81,5.3 2.57,-0.92 3.59,-3.9 2.33,-6.54 -0.93,-1.95 -3.87,-3.03 -5.73,-2.03 0.18,0.31 -0.04,0.12 0.31,0.31 0.04,0.02 0.26,0.07 0.33,0.09 0.55,0.16 1.44,0.64 1.75,1.42 0.63,1.56 -0.91,2.53 -1.77,2.58 -0.84,0.05 -2.05,-0.7 -2.81,-1.07 -2.82,-1.38 -6.01,-2.56 -8.92,-1.59 -4.08,1.36 -2.25,4.92 -0.36,4.06 0.18,-0.8 -0.09,-1.11 0.46,-1.2 1.08,-0.18 0.76,2.24 -0.73,2.72 -3.41,1.12 -6.8,-2.68 -3.22,-5.11 0.81,-0.55 2.32,-1.03 3.27,-1.32 0.31,-0.09 0.25,-0.08 0.53,-0.29 -0.76,-0.37 -1.6,-0.56 -2.21,-1.33 -0.78,-1.01 -0.49,-2.33 0.3,-3.05 1.17,-1.06 4.42,-0.86 4.33,1.66 -0.44,0.72 -0.96,0.63 -1.3,-0.22 -0.6,-1.5 -2.78,-1.22 -2.61,0.66 0.13,1.45 3.84,1.95 4.9,0.53 2.45,-3.28 -4.23,-5.39 -8.29,-3.94 -1.14,0.41 -2.13,1.03 -2.73,2.29 -0.92,1.9 0.82,2.66 1.7,3.28z"/>
  </g>
 </g>
</svg>
