<?xml version="1.0" encoding="UTF-8"?>
<!DOCTYPE svg PUBLIC "-//W3C//DTD SVG 1.1//EN" "http://www.w3.org/Graphics/SVG/1.1/DTD/svg11.dtd">
<!-- Creator: CorelDRAW -->
<svg xmlns="http://www.w3.org/2000/svg" xml:space="preserve" width="25.1269mm" height="22.5868mm" version="1.1" style="shape-rendering:geometricPrecision; text-rendering:geometricPrecision; image-rendering:optimizeQuality; fill-rule:evenodd; clip-rule:evenodd"
viewBox="0 0 158.09 142.11"
 xmlns:xlink="http://www.w3.org/1999/xlink"
 xmlns:xodm="http://www.corel.com/coreldraw/odm/2003">
 <defs>
  <style type="text/css">
   <![CDATA[
    .fil2 {fill:#D8FD1F}
    .fil1 {fill:#EFEE31}
    .fil0 {fill:#F71372}
   ]]>
  </style>
 </defs>
 <g id="Camada_x0020_1">
  <metadata id="CorelCorpID_0Corel-Layer"/>
  <g id="_2416218446944">
   <path class="fil0" d="M47.85 99.24c1.52,-3.91 4.81,-9.19 7,-12.92 2.82,-4.8 4.42,-5.39 8.81,-5.64 3.95,-0.22 20.39,-1.34 22.35,-0.75 1.01,1.93 2.62,13.08 3.16,15.95 1.91,10.09 1.89,9.24 -6.82,11.47 -5.88,1.51 -8.66,3.09 -16.67,0.66 -6.05,-1.83 -13.96,-4.36 -17.84,-8.78zm55.02 -21.19c2.82,-0.79 6.17,-0.98 9.8,-0.03 -0.92,3.93 -3.59,12.41 -7.18,14.71 -1.48,-1.68 -3.3,-12.37 -2.63,-14.69zm-39.13 -7.9c2.83,-6.11 14.2,-29.28 18.57,-31.76 1.21,2.11 0.79,11.86 1.06,15.12 0.27,3.3 1.63,12.15 0.84,15.28 -2.91,1.39 -16.23,2.17 -20.47,1.36zm-25.16 -0.22c-2.86,-9.26 9.51,-29.98 19.98,-33.19 2.22,-0.68 9.77,-2.78 11.66,-2.21 -1.85,4.19 -17.01,32.27 -20.8,35.05 -1.73,1.27 -7.99,1.68 -10.84,0.35zm76.35 -1.79c-2.13,1.24 -8.36,1.2 -12.24,1.13 -5.96,-0.11 -5.19,-4.27 -6.22,-8.69 -0.91,-3.91 -3.47,-20.18 -2.87,-24.27 3.77,2.29 6.15,4.62 9.96,6.99 3.06,1.9 4.02,4.73 5.83,7.46 1.92,2.9 4.17,5.11 4.73,8 0.38,1.99 1.09,7.7 0.82,9.38zm-27.53 -58.04l-2.97 -2.77c-7.49,5.19 -2.05,8.45 -5.9,14.85 -3.18,0.73 -7.37,0.92 -11.22,1.48 -3.9,0.57 -7.51,1.61 -10.83,2.8 -6.61,2.36 -12.87,7.24 -18.33,14.72 -6.8,9.3 -7.75,16.05 -11.27,26.34 -2.16,6.33 -8.27,3.06 -18.3,5.15 -2.65,0.55 -1.41,-0.5 -2.07,1.39 3.44,1.61 7.44,4.78 7.88,7.66 -1.95,1.9 -4.66,0.86 -6.6,3.74 7.04,2.72 10.18,0.38 16.29,0.45 3.87,0.05 4.26,2.31 5.4,4.78 4.09,8.87 5,5.89 -4.73,21.21 -3.51,5.53 -5.22,7.25 -6.39,13.44 3.14,0.57 6.92,-1.27 9.59,-1.65 2.21,1.92 0.13,0.47 1.99,2.64 1.94,-2.48 3.86,-4.21 5.88,-7.22 1.97,-2.93 2.95,-6.55 4.98,-9.51 3.39,0.88 6.14,3.4 9.45,4.75 2.93,1.2 6.58,2.35 9.63,3.35 6.29,2.07 11.82,1.59 17.52,1.52 3.26,-0.04 5.6,-0.59 7.9,-1.58 1.75,-0.75 5.3,-2.8 7.6,-1.05 3.02,2.3 6.82,11.79 8.74,13.44 0.28,-2.58 -0.67,-5.77 0.92,-7.88 5.23,3.09 5.79,9.89 8.48,12.85 1.9,-19.15 -4.99,-25.97 -0.35,-32.33 14.98,-20.53 7.61,-25.6 22.41,-25.67 5.08,-0.02 14.48,0.03 17.65,-2.88l-26.12 -3.8c-0,-11.75 -3.28,-25.51 -12.55,-33.72 -2.03,-1.8 -6.03,-4.56 -8.32,-6.25 -2.93,-2.16 -8.52,-2.22 -9.71,-5.32 -1.37,-3.55 -3.31,-18.22 -3.31,-18.24 -1.93,0.85 -1.61,1.57 -3.34,3.3z"/>
   <path class="fil1" d="M29.48 90.68c-1.14,-2.47 -1.53,-4.73 -5.4,-4.78 -6.11,-0.07 -9.24,2.27 -16.29,-0.45 1.94,-2.87 4.65,-1.83 6.6,-3.74 -0.44,-2.88 -4.45,-6.05 -7.88,-7.66 0.66,-1.89 -0.58,-0.83 2.07,-1.39 10.03,-2.09 16.14,1.18 18.3,-5.15 3.51,-10.29 4.47,-17.04 11.27,-26.34 5.46,-7.47 11.73,-12.36 18.33,-14.72 3.33,-1.19 6.94,-2.23 10.83,-2.8 3.85,-0.56 8.04,-0.75 11.22,-1.48 3.86,-6.4 -1.59,-9.66 5.9,-14.85l2.97 2.77c1.73,-1.73 1.42,-2.45 3.34,-3.3 0.01,0.02 1.95,14.69 3.31,18.24 1.19,3.1 6.79,3.16 9.71,5.32 2.29,1.69 6.28,4.45 8.32,6.25 9.27,8.21 12.54,21.97 12.55,33.72l26.12 3.8c-3.17,2.9 -12.57,2.86 -17.65,2.88 -14.8,0.06 -7.43,5.14 -22.41,25.67 -4.64,6.36 2.24,13.18 0.35,32.33 -2.7,-2.96 -3.25,-9.76 -8.48,-12.85 -1.6,2.11 -0.65,5.29 -0.92,7.88 -1.92,-1.65 -5.72,-11.15 -8.74,-13.44 -2.3,-1.75 -5.85,0.29 -7.6,1.05 -2.29,0.98 -4.64,1.54 -7.9,1.58 -5.7,0.06 -11.23,0.54 -17.52,-1.52 -3.05,-1 -6.7,-2.15 -9.63,-3.35 -3.31,-1.35 -6.06,-3.87 -9.45,-4.75 -2.03,2.95 -3.01,6.57 -4.98,9.51 -2.02,3 -3.93,4.74 -5.88,7.22 -1.86,-2.16 0.22,-0.72 -1.99,-2.64 -2.67,0.38 -6.44,2.22 -9.59,1.65 1.18,-6.19 2.88,-7.9 6.39,-13.44 9.73,-15.33 8.82,-12.34 4.73,-21.21zm125.81 -11.1c1.7,-3.94 4.06,-6.31 1.98,-10.32 -6.72,-3.55 -10,-2.09 -16.7,-3.79 -8.92,-2.27 -8.75,-3.09 -10.65,-9.54 -6.53,-22.2 -16.15,-24.76 -27.77,-34.77 -4.42,-3.81 -3.63,-7.75 -4.35,-13.18 -0.82,-6.2 -3.15,-8.88 -10.27,-7.7 -5.77,0.95 -8.66,0.9 -12.39,7.55 -7.48,13.31 -3,6 -24.44,14.47 -18.44,7.28 -23.78,29.49 -30.72,38.73 -4.66,6.2 -6.83,4.52 -13.28,5.29 -7.06,0.85 -7.41,4.97 -6.11,11.24 0.79,3.83 1.46,10.92 4.51,13.6 4.86,4.28 26.44,-2.35 14.11,17.2 -3.18,5.04 -6.78,10.31 -6.69,16.08 0.11,7.26 2.82,8.16 9.93,7.87 6.34,-0.26 9.11,1.43 13.48,-3.53 4.39,-4.98 5.88,-8.2 12.73,-6.95 12.31,2.25 9.84,5.46 31.33,3.32 5.6,-0.56 9.96,-0.34 14.05,5.39 3.67,5.14 6.5,6.46 12.52,10.29 2.87,1.83 4.81,1.46 6.88,0.4 5.49,-2.8 4.03,-18.18 3.59,-22.53 -0.5,-4.86 -1.45,-9.76 1.36,-15.49 9.65,-19.68 10.4,-19.63 22.66,-20.68 2.39,-0.21 5.01,-0.26 7.37,-0.67 3.24,-0.56 4.31,-1.61 6.88,-2.27z"/>
   <path class="fil2" d="M47.85 99.24c3.88,4.42 11.79,6.94 17.84,8.78 8.01,2.42 10.79,0.85 16.67,-0.66 8.71,-2.24 8.73,-1.38 6.82,-11.47 -0.54,-2.87 -2.15,-14.02 -3.16,-15.95 -1.97,-0.59 -18.4,0.53 -22.35,0.75 -4.38,0.25 -5.99,0.84 -8.81,5.64 -2.19,3.73 -5.49,9.01 -7,12.92z"/>
   <path class="fil1" d="M38.57 69.94c2.86,1.33 9.11,0.92 10.84,-0.35 3.79,-2.78 18.95,-30.86 20.8,-35.05 -1.89,-0.57 -9.44,1.53 -11.66,2.21 -10.47,3.21 -22.84,23.92 -19.98,33.19z"/>
   <path class="fil1" d="M114.92 68.14c0.27,-1.68 -0.43,-7.39 -0.82,-9.38 -0.56,-2.9 -2.81,-5.1 -4.73,-8 -1.81,-2.74 -2.77,-5.56 -5.83,-7.46 -3.81,-2.37 -6.18,-4.7 -9.96,-6.99 -0.59,4.09 1.96,20.37 2.87,24.27 1.03,4.42 0.25,8.58 6.22,8.69 3.89,0.07 10.11,0.11 12.24,-1.13z"/>
   <path class="fil1" d="M63.73 70.16c4.24,0.81 17.56,0.03 20.47,-1.36 0.79,-3.13 -0.57,-11.98 -0.84,-15.28 -0.27,-3.26 0.15,-13.01 -1.06,-15.12 -4.37,2.48 -15.74,25.64 -18.57,31.76z"/>
   <path class="fil1" d="M102.86 78.06c-0.67,2.32 1.15,13.01 2.63,14.69 3.59,-2.3 6.26,-10.78 7.18,-14.71 -3.64,-0.95 -6.99,-0.77 -9.8,0.03z"/>
  </g>
 </g>
</svg>
