<?xml version="1.0" encoding="UTF-8"?>
<!DOCTYPE svg PUBLIC "-//W3C//DTD SVG 1.1//EN" "http://www.w3.org/Graphics/SVG/1.1/DTD/svg11.dtd">
<!-- Creator: CorelDRAW -->
<svg xmlns="http://www.w3.org/2000/svg" xml:space="preserve" width="33.6627mm" height="15.5906mm" version="1.1" style="shape-rendering:geometricPrecision; text-rendering:geometricPrecision; image-rendering:optimizeQuality; fill-rule:evenodd; clip-rule:evenodd"
viewBox="0 0 702.37 325.3"
 xmlns:xlink="http://www.w3.org/1999/xlink"
 xmlns:xodm="http://www.corel.com/coreldraw/odm/2003">
 <defs>
  <style type="text/css">
   <![CDATA[
    .fil2 {fill:black}
    .fil1 {fill:#00ACF3}
    .fil0 {fill:#FEFEFE}
   ]]>
  </style>
 </defs>
 <g id="Camada_x0020_1">
  <metadata id="CorelCorpID_0Corel-Layer"/>
  <g id="_2413915836976">
   <path class="fil0" d="M515.09 157.59l18.9 -40.65c3.38,-1.46 21.33,-1.6 25.75,-1l8.44 -38.55c8.71,-0.43 54.99,-7.52 59.61,-4.97l-7.98 33.67c6.05,2.28 34.7,-3.08 43.59,-2.55 1.13,3.78 -5.61,34.63 -8.07,39.91 -13.2,2.35 -29.36,1.31 -42.65,4.09 -2.94,7.1 -17.69,82.63 -16.79,87.04l50.16 -15.03c1.46,5.03 -3.95,28.77 -5.35,35.94 -1.88,9.55 -1.08,10.85 -9.04,13.11l-44.31 14.25c-6.3,2.13 -24.41,9.12 -29.67,9.3 -4.44,-3.2 -17.95,-19.93 -22.47,-25.32 -7.46,-8.89 -2.23,-18.44 1.89,-37.36 2.36,-10.86 5.01,-31.31 9.26,-40.13 4.8,-9.97 16.31,-25.82 19.49,-35.78 -8.57,-1.13 -44.21,5.93 -50.74,4.02zm-69.46 85.21c6.66,-13.62 19,-31.76 23.35,-45.53 -6.8,-2.65 -30.75,1.28 -41.18,-1.15 10.74,-24.75 22.86,-49.4 34.41,-73.52 6.03,-12.58 1.51,-11.53 27.58,-11.19 8.31,0.11 25.53,-0.88 33.97,0.72l-24.7 55.04c14.61,1.59 33.16,-3.43 45.21,-2.04l-56.36 113.92c-2.76,5.24 -3.26,5.06 -8.61,4.93 -11.04,-0.27 -49.72,0.09 -53.8,-1.41l22.88 -12.44c5.53,-3.28 16.82,-10.46 19.56,-19.02l-22.32 -8.31zm-34.85 -37.39c9.72,2.07 21.45,-1.2 28.97,0.53 2.23,7.07 -4.64,22.69 -7.21,30.2 -37.28,-14.82 -71.49,-37.66 -102.42,-60.55 3.73,-7.62 20.6,-17.54 25.6,-20.27 8.26,-4.51 19.77,-5.43 30.94,-7.73l-4.18 -2.08c-11.19,-3 -24.93,-3.21 -36.15,-1.42 -15.32,2.44 -21.58,8.2 -34.17,14.42 -4.19,-2.09 -11.49,-10.34 -13.4,-14.39 10.59,-13.95 43.78,-23.09 64.68,-21.71 25.04,1.65 57.39,19.79 66.98,39.07l-19.62 43.94zm-100.54 11.44c10.43,6.18 20.16,14.22 31.76,21.2 55.48,33.35 65.81,27.66 45.82,34.97 -70.54,25.8 -127.36,-33.04 -114.96,-88.09 3.08,2 14.1,11.62 15.84,13.94 2.82,3.75 3.05,12.82 4.37,18.33 1.6,6.67 10.87,28.87 17.56,32.07 -1.53,-8.75 -4.57,-20.51 -0.38,-32.41zm106.95 50.04c-6.74,-4.42 -20.11,-8.49 -28.44,-12.73 -44.34,-22.57 -73.84,-41.4 -108.43,-76.85 -9.17,-9.39 -23.49,-27.65 -26.61,-38.23 7.52,-8.07 47.58,-16.16 57.04,-14.73 -5.04,5.7 -32.42,8.94 -21.25,23.27 12.94,16.61 27.45,29.66 45.27,42.64 44.34,32.29 73.15,46.03 120.44,64.36 -0.98,14.6 -51.53,30.33 -64.45,28.51 6.95,-7.16 21.53,-5.81 26.43,-16.24zm-226.94 -70.2c-2.81,-9.55 -23.68,-82.46 -23.54,-86.29 4.52,-3.05 54.23,-20.86 63.78,-24.58l63.69 -23.15c0.86,3.81 -7.88,49.28 -10.04,55.14 -7.16,2.46 -37.74,7.4 -46.28,16.57 0.56,8.86 10.47,25.97 17.34,34.18 8.82,10.55 6.32,5.49 4.47,18.96 -2.74,19.89 1.08,42.07 12.06,57.32 5.48,7.61 4.78,8.71 4.45,19.05 -0.11,3.45 -0.17,6.72 -0.22,10.35l-0.49 7.73c-0.49,1.87 -0.45,1.53 -1.06,2.45 -4.47,0.8 -54.69,0.56 -59.77,-0.69l-24.39 -87.04zm-55.42 38.94c3.55,-1.4 34.53,-4.51 38.75,-3.82 2.22,5.72 12.72,50.28 12.22,53.89l-43.17 0.57 -7.81 -50.64zm-53.51 51.03c-1.03,-6.43 -1.96,-43.57 -0.74,-49.75 9.48,0.32 30.34,-1.98 39.14,-0.11 0.88,13.57 7.63,37.08 6.76,49.44 -4.59,0.86 -40.78,2.2 -45.16,0.43zm-56.25 1.4c-1.25,-4.18 -1.35,-41.73 -0.11,-47.76 4.25,-1.1 37.19,-1.32 41.83,0.2l-0.2 47.63 -41.51 -0.06zm-6.21 7.38c6.5,2.09 57.56,0.18 67.29,-0.08 27.49,-0.72 71.91,-1.55 99.7,-0.82 22.96,0.6 -0.33,5.82 33.68,6.86 21.84,0.67 45.4,-1.25 66.83,-0.23 2.62,-8.36 -0.25,-19.1 2.03,-26.96 15.83,2.57 38.17,31.09 96.52,18.31 6.53,-1.43 23.03,-6.42 28.73,-6.22l-5.95 12.6c5.57,2.43 48.17,0.7 56.78,0.58 38.39,-0.55 24.66,4.6 44.05,-29.82 4.61,1.63 37.75,31.49 43.23,36.22 7.03,6.08 8.89,2.17 25.16,-3.37l61.57 -22.79c3.79,-1.3 9.44,-2.32 11.32,-6.95 0.46,-1.14 10.22,-61.62 10.11,-62.37 -7.13,-0.65 -43.96,13.64 -54.62,15.82 -0.49,-1.51 -0.47,-1.01 -0.59,-3.13 -0.05,-0.9 0.13,-3.25 0.27,-4.32 0.42,-3.25 1.14,-6.08 1.91,-9.46 1.97,-8.63 11.53,-55.6 12.91,-56.83 2.26,-2.02 44.92,-3.07 48.57,-6.33 5.75,-11.45 8.75,-34.07 14.76,-49.2 -14.58,-3.87 -43.07,4.19 -50.46,0.48 1.11,-10.82 10.05,-27.84 10.19,-38.76 -6.53,-2.53 -56.38,5.82 -69.55,7.66 -21.29,2.97 -17.42,0.58 -28.56,31.7 -6.98,1.38 -29.87,-0.04 -39.07,-0.14 -8.13,-0.09 -34.87,-1.91 -39.87,0 -5.94,4.01 -21,39.54 -25.21,48.68 -10.52,-3.04 -24.24,-28.65 -68.04,-35.88 -32.88,-5.43 -58.84,9.93 -67.08,9.46 -2.32,-11.82 16.25,-79.12 21.6,-95.99 -6.13,-1.44 -19,4.57 -24.41,6.57 -16.07,5.94 -159.49,57.65 -163.18,60.31 0.07,5.4 14.27,51.88 16.86,61.11 3,10.69 5.64,20.29 8.59,30.8 1.78,6.37 8.29,25.55 8.27,30.88 -21.87,10.79 -88.64,16.33 -115.21,18.58 -11.06,0.94 -31.24,-0.16 -40.42,1.87 -1.6,4.96 -0.63,36.77 -0.54,45.58 0.05,5 -0.08,11.37 1.86,15.6z"/>
   <path class="fil1" d="M544.71 98.03c11.14,-31.12 7.27,-28.73 28.56,-31.7 13.17,-1.84 63.02,-10.19 69.55,-7.66 -0.14,10.92 -9.07,27.94 -10.19,38.76 7.39,3.71 35.88,-4.35 50.46,-0.48 -6.01,15.13 -9.02,37.75 -14.76,49.2 -3.65,3.27 -46.31,4.32 -48.57,6.33 -1.38,1.23 -10.94,48.2 -12.91,56.83 -0.77,3.38 -1.49,6.21 -1.91,9.46 -0.14,1.07 -0.32,3.42 -0.27,4.32 0.12,2.12 0.09,1.61 0.59,3.13 10.66,-2.18 47.49,-16.48 54.62,-15.82 0.11,0.75 -9.64,61.23 -10.11,62.37 -1.88,4.63 -7.53,5.65 -11.32,6.95l-61.57 22.79c-16.27,5.54 -18.13,9.45 -25.16,3.37 -5.47,-4.73 -38.62,-34.6 -43.23,-36.22 -19.39,34.43 -5.66,29.27 -44.05,29.82 -8.6,0.12 -51.21,1.85 -56.78,-0.58l5.95 -12.6c-5.69,-0.2 -22.19,4.79 -28.73,6.22 -58.35,12.78 -80.68,-15.74 -96.52,-18.31 -2.28,7.85 0.59,18.6 -2.03,26.96 -21.42,-1.02 -44.99,0.91 -66.83,0.23 -34.01,-1.05 -10.72,-6.26 -33.68,-6.86 -27.79,-0.72 -72.21,0.11 -99.7,0.82 -9.72,0.25 -60.79,2.17 -67.29,0.08 -1.94,-4.23 -1.81,-10.6 -1.86,-15.6 -0.09,-8.82 -1.07,-40.63 0.54,-45.58 9.19,-2.02 29.37,-0.93 40.42,-1.87 26.57,-2.25 93.34,-7.79 115.21,-18.58 0.02,-5.33 -6.48,-24.51 -8.27,-30.88 -2.94,-10.51 -5.58,-20.11 -8.59,-30.8 -2.59,-9.22 -16.79,-55.71 -16.86,-61.11 3.7,-2.66 147.11,-54.37 163.18,-60.31 5.41,-2 18.28,-8.01 24.41,-6.57 -5.35,16.88 -23.92,84.18 -21.6,95.99 8.23,0.47 34.19,-14.88 67.08,-9.46 43.8,7.23 57.53,32.84 68.04,35.88 4.21,-9.13 19.28,-44.67 25.21,-48.68 5,-1.91 31.75,-0.09 39.87,-0 9.2,0.1 32.09,1.52 39.07,0.14zm-240.35 201.97c16.27,2.94 25.97,8.42 43.71,9.99 20.95,1.85 29.85,-3.27 37.28,-2.78l0.7 6.27c5.68,2.66 58.73,0.55 68.85,0.33 61.97,-1.34 44.49,2.06 58.37,-20.35 5.34,2.45 20.87,17.03 26.12,21.45 15.05,12.68 12.49,12.4 28.3,6.35 27.76,-10.63 59.57,-21.04 86.21,-31.86 6.55,-2.66 9.06,-2.61 10.84,-11.62 2.8,-14.15 15.9,-86.48 15.06,-89.93 -4.38,0.26 -21.46,6.56 -27.14,8.56 -4.71,1.66 -22.71,8.86 -26.99,9.08 -1.34,-4.49 5.42,-33.79 7.84,-39.97l36.07 -4.34c5.22,-0.62 7.23,-0.32 12.3,-2.01l20.46 -79.42c-8.05,-3.67 -39.53,4.84 -47.97,1.74 0.98,-11.26 10.64,-31.14 9.08,-41.02l-91.82 11.04c-4.64,0.5 -26.04,4.52 -28.43,4.17 -3.87,8.48 -5.11,18.63 -9.95,26.51 -12.07,2.61 -43.98,1.02 -58.32,0.59 -4.84,-0.14 -9.56,-0.34 -14.65,-0.5 -12.74,-0.39 -8.97,13.04 -25.34,38.89 -13.87,-4.9 -21.45,-18.16 -57.02,-24.18 -26.23,-4.44 -40.17,1.24 -52.89,1.51 -0.07,-0.3 -0.12,-0.7 -0.13,-0.92l-0.12 -2.72c0.08,-1.22 0.21,-1.53 0.46,-2.76l4.01 -17.9c1.86,-7.95 4.11,-16.26 6.27,-24.14 4.55,-16.6 10.48,-33.53 16.28,-50.04 -4.06,-0.82 -109.55,37.45 -116.21,39.81 -19.7,6.99 -38.95,13.74 -58.08,21.18 -10.09,3.93 -50.8,17.88 -56.94,21.89 0.35,6.05 14.16,51.2 16.99,60.89 1.88,6.44 17.27,54.86 16.12,60.51 -19.94,8.6 -86.77,12.81 -113.88,14.42 -13.16,0.78 -26.62,0.04 -39.32,0.62 -1.68,11.45 1.37,76.46 2.73,90.54 6.43,1.83 63.43,0.03 75.25,0.06l94.63 -0.68c7.73,-0.14 12.11,-1.87 17.16,3.65 4.38,4.79 11.42,3.1 18.12,3.1 6.14,0 12.6,-0.04 18.67,-0.03 17.85,0.05 62.92,-1.7 74.99,-1 1.92,-5.86 0.06,-10.21 2.32,-14.99z"/>
   <path class="fil2" d="M533.99 116.94l-18.9 40.65c6.53,1.92 42.18,-5.14 50.74,-4.02 -3.18,9.96 -14.69,25.81 -19.49,35.78 -4.25,8.82 -6.9,29.27 -9.26,40.13 -4.11,18.92 -9.35,28.47 -1.89,37.36 4.52,5.38 18.03,22.11 22.47,25.32 5.27,-0.17 23.37,-7.17 29.67,-9.3l44.31 -14.25c7.96,-2.27 7.17,-3.56 9.04,-13.11 1.41,-7.17 6.81,-30.92 5.35,-35.94l-50.16 15.03c-0.9,-4.41 13.86,-79.94 16.79,-87.04 13.28,-2.78 29.45,-1.74 42.65,-4.09 2.45,-5.28 9.19,-36.13 8.07,-39.91 -8.88,-0.52 -37.54,4.83 -43.59,2.55l7.98 -33.67c-4.62,-2.55 -50.9,4.54 -59.61,4.97l-8.44 38.55c-4.42,-0.61 -22.36,-0.47 -25.75,1z"/>
   <path class="fil2" d="M214.64 283.73c5.09,1.25 55.3,1.5 59.77,0.69 0.61,-0.93 0.57,-0.58 1.06,-2.45l0.49 -7.73c0.05,-3.63 0.11,-6.9 0.22,-10.35 0.33,-10.34 1.03,-11.44 -4.45,-19.05 -10.98,-15.25 -14.8,-37.43 -12.06,-57.32 1.85,-13.47 4.35,-8.41 -4.47,-18.96 -6.86,-8.21 -16.77,-25.33 -17.34,-34.18 8.53,-9.16 39.12,-14.11 46.28,-16.57 2.16,-5.87 10.9,-51.33 10.04,-55.14l-63.69 23.15c-9.54,3.72 -59.26,21.53 -63.78,24.58 -0.15,3.83 20.72,76.75 23.54,86.29l24.39 87.04z"/>
   <path class="fil2" d="M468.98 197.27c-4.35,13.78 -16.69,31.91 -23.35,45.53l22.32 8.31c-2.74,8.57 -14.04,15.74 -19.56,19.02l-22.88 12.44c4.08,1.49 42.76,1.14 53.8,1.41 5.35,0.13 5.85,0.31 8.61,-4.93l56.36 -113.92c-12.05,-1.39 -30.6,3.63 -45.21,2.04l24.7 -55.04c-8.44,-1.6 -25.66,-0.61 -33.97,-0.72 -26.07,-0.34 -21.56,-1.39 -27.58,11.19 -11.56,24.12 -23.68,48.77 -34.41,73.52 10.43,2.43 34.38,-1.5 41.18,1.15z"/>
   <path class="fil2" d="M312.15 158.51c12.59,-6.21 18.86,-11.98 34.17,-14.42 11.23,-1.79 24.96,-1.57 36.15,1.42l4.18 2.08c-11.17,2.3 -22.67,3.23 -30.94,7.73 -5,2.73 -21.87,12.65 -25.6,20.27 30.93,22.89 65.14,45.73 102.42,60.55 2.56,-7.51 9.44,-23.14 7.21,-30.2 -7.53,-1.73 -19.25,1.54 -28.97,-0.53l19.62 -43.94c-9.59,-19.27 -41.94,-37.41 -66.98,-39.07 -20.89,-1.38 -54.09,7.77 -64.68,21.71 1.91,4.05 9.21,12.3 13.4,14.39z"/>
   <path class="fil2" d="M417.19 266.89c-4.9,10.42 -19.48,9.07 -26.43,16.24 12.92,1.82 63.47,-13.91 64.45,-28.51 -47.29,-18.33 -76.1,-32.07 -120.44,-64.36 -17.82,-12.98 -32.33,-26.03 -45.27,-42.64 -11.17,-14.33 16.21,-17.58 21.25,-23.27 -9.45,-1.43 -49.52,6.66 -57.04,14.73 3.12,10.58 17.45,28.84 26.61,38.23 34.59,35.45 64.09,54.28 108.43,76.85 8.33,4.24 21.71,8.31 28.44,12.73z"/>
   <path class="fil2" d="M310.25 216.85c-4.19,11.9 -1.15,23.67 0.38,32.41 -6.69,-3.19 -15.96,-25.4 -17.56,-32.07 -1.32,-5.51 -1.55,-14.58 -4.37,-18.33 -1.74,-2.32 -12.75,-11.94 -15.84,-13.94 -12.4,55.05 44.42,113.88 114.96,88.09 19.99,-7.31 9.66,-1.62 -45.82,-34.97 -11.6,-6.97 -21.33,-15.02 -31.76,-21.2z"/>
   <path class="fil2" d="M142.63 286.27l43.17 -0.57c0.49,-3.6 -10.01,-48.17 -12.22,-53.89 -4.23,-0.69 -35.2,2.42 -38.75,3.82l7.81 50.64z"/>
   <path class="fil2" d="M81.31 286.67c4.38,1.77 40.57,0.44 45.16,-0.43 0.87,-12.35 -5.89,-35.87 -6.76,-49.44 -8.81,-1.87 -29.67,0.43 -39.14,0.11 -1.21,6.19 -0.29,43.32 0.74,49.75z"/>
   <path class="fil2" d="M25.07 288.06l41.51 0.06 0.2 -47.63c-4.64,-1.52 -37.58,-1.3 -41.83,-0.2 -1.23,6.03 -1.14,43.58 0.11,47.76z"/>
  </g>
 </g>
</svg>
