<?xml version="1.0" encoding="UTF-8"?>
<!DOCTYPE svg PUBLIC "-//W3C//DTD SVG 1.1//EN" "http://www.w3.org/Graphics/SVG/1.1/DTD/svg11.dtd">
<!-- Creator: CorelDRAW -->
<svg xmlns="http://www.w3.org/2000/svg" xml:space="preserve" width="58.9422mm" height="19.3453mm" version="1.1" style="shape-rendering:geometricPrecision; text-rendering:geometricPrecision; image-rendering:optimizeQuality; fill-rule:evenodd; clip-rule:evenodd"
viewBox="0 0 707.25 232.13"
 xmlns:xlink="http://www.w3.org/1999/xlink"
 xmlns:xodm="http://www.corel.com/coreldraw/odm/2003">
 <defs>
  <style type="text/css">
   <![CDATA[
    .fil0 {fill:black}
    .fil13 {fill:#C87504}
    .fil12 {fill:#D78703}
    .fil3 {fill:#E78704}
    .fil5 {fill:#F49502}
    .fil11 {fill:#F88B01}
    .fil8 {fill:#FB6B01}
    .fil4 {fill:#FC9200}
    .fil9 {fill:#FD9C00}
    .fil10 {fill:#FE5800}
    .fil6 {fill:#FEBB00}
    .fil7 {fill:#FEC400}
    .fil2 {fill:#FFF400}
    .fil1 {fill:#FFFA00}
   ]]>
  </style>
 </defs>
 <g id="Camada_x0020_1">
  <metadata id="CorelCorpID_0Corel-Layer"/>
  <g id="_2414228219216">
   <path class="fil0" d="M21.08 163.93c-0.9,-3.5 -1.65,-15.83 -0.67,-20.22 0.84,-3.75 1.42,-4.74 2.02,-8.9 0.48,-3.3 1.32,-5.98 2.44,-8.84 7.66,-19.63 12.52,-19.15 17.22,-26.29 0.21,-2.71 0.8,-0.7 -0.51,-2.13 -3.42,0.02 -4.15,0.63 -7.03,1.45 -12.34,3.52 -7.99,-6.58 -2.81,-12.6 1.38,-1.61 1.61,-1.92 3.45,-2.83 2.78,-3.63 7.01,-5.94 11.26,-9.3 4.05,-3.21 7.34,-5.5 12.31,-8.62 5.05,-3.18 21.49,-13.32 27.13,-13.68 1.69,-1.8 4.42,-2.45 6.74,-3.44 2.73,-1.16 4.53,-1.62 7.36,-2.38l22.38 -7.1c3.26,-1.7 3.15,-2.16 7.45,-2.23 6.14,-0.11 11.99,-1.93 18.43,-1.37 5.93,11.39 -6.2,19.46 -4.58,33.89l2.2 -0.61c0.63,-2.47 3.4,-4.71 5.93,-5.69 0.89,-1.16 -0.07,-0.3 1.51,-1.53 0.47,-0.37 1.14,-0.72 1.63,-1.01 13.8,-8.24 40.19,-26.39 55.03,-24.77 2.02,8.98 -15.75,33.15 -15.33,54.04 5.59,-0.24 25.59,-8.05 36.22,5.47 18.24,23.21 8.52,33.15 13.79,46.28 9.87,0.48 17.69,-1.63 20.37,4.4 -1.78,4.15 -44.7,27.48 -56.07,26.29 -4.66,-7.57 -0.69,-17 -1.14,-25.66 -1.01,-19.29 -2.16,-8.12 -5.98,-22.97 -20.12,-0.33 -5.9,39.36 -5.17,48.39 0.78,9.71 3.12,9.01 -4.84,14.35 -4.34,2.92 -8.47,5.39 -12.59,8.33 -14.85,10.57 -16.98,12.66 -34.54,19.08 -8.31,3.04 -37.6,5.68 -48.54,4.28 -6.16,-0.78 -12.94,-1.21 -18.58,-2.79 -5.29,-1.48 -11.37,-3.64 -16.28,-5.28 -8.06,-2.68 -21.31,-11.55 -26.17,-16.38 -3.03,-3.01 -7.14,-7.27 -9.54,-12.06 -1.46,-2.94 -1.84,-4.14 -2.85,-7.62 -1.31,-4.52 -1.28,-4.69 -1.65,-9.95zm472.07 -125.54c0.17,2.17 -0.5,2.02 -1.04,4.26 5.32,-0.12 28.43,-4.19 34.94,-2.38 0.84,6 -3.56,9.98 -7.53,12.84 -2.19,1.57 -3.78,3.55 -5.7,4.83 -21.76,14.56 -30.99,3.49 -34.33,16.58 -3.34,13.07 -8.83,16.23 -8.87,32.82 -0.04,17.2 7.72,17.02 21.71,20.5 -2.44,-11.71 -5.63,-12.47 -2.22,-27.13 1.03,-6.65 0.37,-2.43 -1.5,-6.88 -1.53,-3.45 -0.8,-6.44 1.86,-7.92 1.39,-2.32 2.46,-3.36 3.71,-5.87 0.53,-1.08 0.85,-1.99 1.39,-3.17 1.35,-2.98 -0.12,-1.47 2.11,-2.9 3.2,-4.56 16.16,-9.6 23.78,-9.82 16.22,-0.45 13.98,-3.26 30.12,-1.98 11.45,0.91 18.24,1.97 26.4,6.99 3.48,2.14 7.12,4.31 10.3,6.68 6.84,5.11 5.13,5.91 7.05,9.28 6.68,-1.61 13.47,-6.74 20.92,-7.26 0.89,-4.8 1.08,-8.58 5.9,-8.96 5.22,-0.41 7.93,-1.34 12.25,0.45 7.6,0.54 5.58,-0.3 8.12,-0.75 4.42,-0.78 2.78,1.16 6.49,1.73 5.49,0.85 9.36,1.27 14.08,2.39 6.66,1.58 19.78,5.47 23.79,9.11 0.53,5.49 -5.48,11.63 -7.93,14.96 -2.47,3.36 -7.66,9.62 -11.34,10.98 -4.21,1.55 -20.85,-7.16 -26.46,-6.66 -0.03,0 -8.53,1.88 -8.77,1.96 1.14,2.63 22.69,15.89 26.42,19.25 4.25,3.83 6.5,6.28 7.31,10.87 0.83,4.71 0.46,11.52 -1.86,15.61 -3.19,5.63 -6.16,6.8 -8.99,9.31 -2.54,2.25 -2.08,2.24 -5.53,3.64 -13.41,5.43 -14.11,5.66 -30.2,5.11 -19.52,-0.66 -27.16,-3.16 -41.84,-13.78 -1.5,-1.08 -3.65,-2.89 -5.97,-3.35 -4.35,-0.85 -4.14,0.76 -7.81,1.2 -14.94,1.79 -35.04,3.34 -49.23,-2.87 -13.62,-5.96 -7.44,-9.18 -16.22,-4.76l-13.67 4.44c-7.59,2.25 -24.39,0.15 -31.47,-3.62 -6.1,-3.25 -8.27,-3.66 -14,-10.25 -1.6,-1.84 -3.36,-5.2 -5.48,-6.18 -3.41,0.64 -6.39,5.81 -9.43,8.12 -14.48,10.98 -37.67,11.91 -55.23,6.79 -3.88,-1.13 -8.75,-3.06 -12.29,-4.77 -9.2,-4.46 -3.63,-1.61 -10.04,-6.93 -6.8,-5.65 -4.89,-6.87 -9.49,-8.22 -4.5,9.65 -7.07,13.33 -16.24,17.77 -18.68,9.03 -33.37,8.57 -53.74,-0.07 -4.03,-1.71 -16.74,-10.36 -18.02,-15.77 -3.67,-2.69 -6.18,-11.74 -8.09,-18.22 -1.19,-4.04 -2.3,-6.33 -2.02,-10.8 0.24,-3.99 0.37,-7.34 1.61,-10.65 0.54,-3.05 1.63,-4.49 1.63,-7.67 -0,-3.71 -1.39,-4.41 1.45,-6.69 1.01,-3.87 3.69,-6.05 6.82,-6.71l1.73 -1.92c0.49,-0.42 1.19,-0.86 1.93,-1.35 1.37,-0.91 2.44,-1.61 3.92,-2.61 8.12,-5.5 24.18,-9.29 29.94,-7.82 8.45,2.15 12.56,0.08 20.96,4.62 5.76,3.11 9.88,7.37 12.99,12.53 5.32,8.81 4.75,22.79 -0.67,30.38 -6.52,9.14 -10.92,11.12 -24.16,13.59 -5.61,1.05 -18.49,2.15 -23.08,0.02 -0.9,0.59 -1.15,-1.36 -0.53,1.36 1.45,0.82 1.67,1.67 3.93,3.03 1.62,0.98 3.04,1.53 4.81,2.31 4.39,1.94 4.99,2.05 10.09,3.14 8.86,0.55 20.06,0.71 26.65,-4.15 3.37,-2.49 5.4,-3.95 7.71,-7.38 1.93,-2.87 4.57,-6.84 4.73,-10.53 1.25,-8.29 0.33,-25.66 6.14,-29.86 2.58,-8.12 0.98,-3.2 -1.72,-8.82 -1.89,-3.93 1.2,-6.49 4.07,-7.62 0.85,-1.68 1.14,-1.2 1.95,-1.42 2.99,-5.19 20.96,-9.26 25.83,-10.51 5.03,-1.29 29.25,-2.66 32.58,-0.3 5.81,1.19 10.55,3.07 15.46,5.46 4.06,1.98 7.5,5.56 10.65,8.98 6.41,6.95 7.31,20.65 3.59,31.11 -3.11,8.77 -11.25,16.14 -20.71,19.08 -13.65,4.24 -23.19,1.42 -36.62,2.64 0.52,3.27 0.11,1.52 2.62,3.6 1.5,1.24 0.26,1.3 0.64,2.49 4.57,1.21 9.91,4.04 14.67,4.76 6.05,0.92 11.96,-0.12 17.51,-0.84 13.31,-1.71 17.51,-10.15 22.9,-14.47 0.54,-3.17 1.03,-3.87 1.79,-6.79 0.29,-1.12 0.35,-2.31 0.66,-3.25 0.82,-2.53 0.01,-1.04 1.26,-2.08 -0.03,-10.28 17.38,-45.42 23.5,-51.8l-0.98 -1.04 -1.17 1.11c-0.16,0.14 -0.94,0.78 -1.13,0.9 -3.29,2.12 -18.54,0.36 -21.77,-1.12 -1.27,-6.3 10.71,-8.29 15.2,-10.09l14.19 -4.81c1.89,-0.74 2.12,-1.24 3.7,-2.11 3.5,-1.93 5.06,-1.93 9.4,-3.04 4.44,-1.14 23.5,-9.77 29.17,-4.14 -0.29,3.13 -1.75,3.25 -3.14,5.97 -1.6,3.13 -6.59,15.19 -8.76,17.26zm191.34 89.86c-2.04,-1.51 -4.28,-4.58 -4.95,-7.17 0.9,-1.27 5.1,-5.15 6.69,-6.48 19.93,-16.64 34.93,-35.51 0.36,-48.21 -13.09,-4.81 -27.34,-7.87 -42.24,-9.26 -7.29,-0.68 -17.83,-1.69 -25.28,-0.56 -11.2,1.7 -13.81,2.35 -17.17,8.31 -5.2,0.3 -8.81,-3.02 -12.6,-5.15 -15.57,-8.75 -32.86,-8.12 -41.66,-10.63 -0.05,-5 4.87,-8 -5.62,-16.59 -3.81,-3.12 -13.77,-5.32 -19.64,-5.4 0.78,-4.97 2.69,-5.12 2.17,-11.89 -0.86,-11.13 -15.49,-15.55 -25.99,-15.19 -18.11,3.1 -7.04,0.81 -22.62,5.57l-21.53 7.2c-4.17,1.51 -6.93,1.54 -10.91,3.53 -3.18,1.59 -6.77,2.28 -10.51,3.86 -8.56,3.62 -13.32,4.13 -16.44,12.25 -4.78,-0.71 -9.23,-2.62 -14.16,-3.43 -4.98,-0.81 -10.18,-0.8 -15.04,-1.45 -13.13,-1.76 -43.91,3.78 -54.53,10.8 -12.79,8.45 -4.58,8.77 -21.59,3.92 -26.79,-7.64 -56.55,-4.03 -77.79,13.73 -2.59,2.17 -5.84,5.46 -7.8,8.57 -2.48,3.93 -1.98,8.53 -4.44,11.98l-3.22 -2.54c0.51,-5.58 8.2,-18.91 10.71,-24.02 10.33,-20.99 -13.17,-31.67 -34.27,-25.13l-18.44 7.01c-7.45,3.47 -2.37,6.55 -11.09,-1.41 -9.82,-8.97 -17.27,-5.98 -23.78,-7.69 -4.23,-1.11 -4.52,0.39 -8.06,1.5 -2.63,0.82 -5.84,1.41 -8.53,1.96 -29.32,6.05 -52.74,12.85 -77.25,27.94 -10.47,6.45 -26.36,19.05 -34.44,28.99 -3.2,3.94 -5.95,8.12 -4.86,15.44 1.4,9.43 7.54,5.12 2.97,14.07 -2.39,4.68 -4.78,9.09 -6.59,14.37 -3.46,10.05 -5.61,25.97 -3.55,37.36 2.83,15.63 4.91,19.96 12.79,29.77 5.48,6.82 14.41,13.75 23.26,18.6 36.7,20.11 57.27,16.13 64.97,18.71 6.19,2.07 30.76,-1.35 38.57,-2.43 11.84,-1.64 22.55,-5.23 31.9,-9.91 5.92,-2.96 39.61,-24.27 42.81,-30.43 3.09,-5.96 4.49,-1.59 5.62,-1.25 1.29,-0.99 10.8,-4.81 13.25,-6.01 13.01,-6.37 26.85,-12.46 39.34,-19.56 7.64,-4.35 6.04,-3.66 15.4,-2.89 16.44,1.35 35.44,0.54 48.65,-8.88 7.2,-5.14 4.62,-3.81 12.67,-0.13 14.16,6.47 34.46,10.44 49.55,8.76 13.13,-1.46 19.7,-3.65 31.08,-8.11 4.86,-1.9 9.86,2.42 13.66,4.44 13.58,7.24 35.54,9.64 48.73,4.96 13.16,-4.67 13.3,0.55 31.64,4.21 15.8,3.15 18.42,3.44 34.76,0.78 8.29,-1.35 8.4,0.24 14.7,3.35 25.88,12.73 57.04,12.17 84.54,5.63 10.82,-2.57 17.72,-9.02 22.5,-16.74 11.04,-17.85 3.78,-23.57 3.31,-29.01z"/>
   <path class="fil1" d="M85.9 51.98c-5.64,0.36 -22.08,10.5 -27.13,13.68 -4.97,3.13 -8.26,5.41 -12.31,8.62 -4.24,3.36 -8.48,5.67 -11.26,9.3 -1.58,2.72 -9.48,9.49 -4.7,13.98 2.44,1.77 3.97,0.75 5.43,-1.08 3.4,-4.27 5.09,-2.9 14.34,-8.58 2.72,-1.67 18.47,-8.88 21.11,-9.17 -4.92,3.18 -10.32,6.42 -15.33,9.72 -3.15,2.08 -4.24,3 -6.94,5.48 -2.64,2.42 -3.8,4.22 -7.01,5.74 -4.7,7.14 -9.56,6.67 -17.22,26.29 -1.12,2.87 -1.96,5.54 -2.44,8.84 -0.6,4.16 -1.18,5.15 -2.02,8.9 -0.98,4.39 -0.24,16.72 0.67,20.22l2.07 3.07c2.71,7.27 8.61,17.12 13.7,21.54 6.47,5.62 13.56,12.56 23.69,16.15 7.41,2.62 24.04,5.84 32.66,7.37 13.54,2.4 39.65,-0.45 52.69,-5.55 5.72,-2.24 8.6,-4.16 13.34,-6.97 4.32,-2.56 8.42,-4.39 12.53,-7.08 4.51,-2.96 7.99,-4.93 12.15,-8.12 6.69,-5.13 11.09,-6.1 7.61,-19.72 -0.83,-3.25 -2.02,-4.98 -2.49,-7.77 -2.36,-14.01 -2.33,-14.46 -0.15,-26.34 0.55,-3 -0.01,-6.75 1.1,-9.3l14.25 -1.01c-0.26,5.99 -2.92,5.85 2.04,10.1 3.33,2.85 1.85,6.92 2.39,11.42 2,16.77 1.86,6.35 1.8,25.64 4.8,-0.62 7.91,-3.34 12.28,-4.57 7.05,-1.98 15.49,-6.01 21.86,-9.33 3.49,-1.82 7.81,-2.72 11.44,-4.17 0.05,-5.32 -0.96,-3.9 -6.12,-4.39 -3.5,-0.33 -5.96,-0.53 -9.39,-1.08 -0.51,-6.77 -0.48,-21.45 -2.28,-26.53 -6.12,-17.19 -11.75,-28.13 -29.98,-27.94 -14.49,0.15 -15.09,3.79 -17.08,4.81 -2.45,1.26 -0.2,0.1 -2.45,0.42l-0.99 0.28c-0.01,0 -0.08,0.09 -0.13,0.09 0.13,-11.21 2.49,-18.89 5.43,-28.88 1.91,-6.48 3.59,-6.64 5.83,-11.9l3.79 -12.1c-0.07,-3.83 -11.51,2.63 -13.28,3.32 -5.01,1.94 -8.94,2.33 -13.04,5.21 -9.23,6.49 -1.27,2.11 -11.8,6.53 -3.93,1.65 -7.76,5.48 -12.75,5.94 -2.53,0.99 -5.3,3.22 -5.93,5.69l-1.16 5.89c6.17,1.03 1.84,-4.76 11.86,-4.52 0.7,3.11 -1.64,8.46 -3.46,10.24 -0.59,7.39 -3.27,15.23 -4.3,22.51 -0.54,3.79 -0.73,8.52 -1.52,11.65 -1.71,6.77 -1.44,4.79 -0.9,11.93 0.54,7.11 -2.23,11.13 0.68,24.95l5.49 21.99c-2.25,2.04 -8.68,4.87 -12.02,5.53l-0.37 1.05c-4.39,4.26 -26.8,2.42 -31.83,1.81 -8.3,-1 -19.71,-6 -26.11,-11.09 -5.17,-4.11 -5.06,-4.17 -9.11,-9.22 -2.93,-3.65 -6.22,-6.27 -5.7,-13.61 0.77,-10.84 13.83,-28.9 20.83,-35.03l21.24 -16.04c17.76,-10.77 20.34,-3.2 23.26,-13.85 1.4,-5.08 2.25,-10.31 3.74,-15.28 1.52,-5.08 3.43,-10.06 4.71,-14.47 2.13,-7.32 3.74,-9.08 -0.62,-14.7 -6.32,-0.59 -23.06,3.12 -28.84,4.93 -5.68,1.78 -21.04,7.64 -25.84,8.59z"/>
   <path class="fil1" d="M588.87 130.88c0.47,-3.03 7.34,-13.15 9.18,-16.21 4.48,0.89 14.15,7.65 17.36,9.85 25.42,17.42 2.08,23.55 -10.39,17.52 -4.69,-2.27 -13.55,-8.35 -16.15,-11.16zm-21.67 -31.24c-0.54,2.92 2.51,10.36 -0.66,14.23 -6.11,7.49 -3.96,7.12 -8.34,8.63 -4.34,1.5 -8.17,3.62 -13.9,3.1 -2.91,-0.27 -4.55,-0.75 -7.23,-1.15 -3.54,-0.54 -4.51,-1.16 -6.71,-1.63 -1.19,1.6 0.12,-0.03 -1.07,1 -9.71,-3.77 -10.23,-15.24 -8.46,-19.79 0.4,-1.04 4.94,-8.09 5.61,-8.71 2.47,-2.28 7.07,-2.55 8.97,-5.63 -2.46,-4.2 -4.76,-2.14 -6.03,-5.88 2.49,-2.5 7.64,-1.96 12.27,-1.62 2.04,0.15 4.04,0.39 5.88,1 2.89,0.97 2.44,1.51 4.59,2.65 5.79,3.04 13.74,5.44 15.08,13.8zm-109.74 -61.17l0.98 1.04c-6.12,6.38 -23.53,41.51 -23.5,51.8 0.58,4.09 0.1,8.61 -0.06,12.79 -0.42,10.92 3.57,20.2 10.63,27.53 10.06,10.45 13.46,8.29 20.6,11.48 7.43,3.32 19.85,1.34 27.72,-1.17 11.68,-3.73 4.56,-6.41 27.44,3.53 6.72,2.92 27.68,4.38 34.72,2.47 3.08,-0.84 7.47,-1.42 10.84,-1.62l1.03 -3.2 8.33 4.91c8.45,4.28 13.02,8.05 24.91,12.43 11.52,4.24 32.5,3.7 43.47,-1.28 7.58,-3.44 10.17,-4.56 13.57,-11.27 5.96,-11.76 -0.33,-23.26 -10.37,-29.58 -1.41,-0.89 -2.16,-1.42 -3.53,-2.37 -4.08,-2.81 -7.4,-4.55 -10.4,-8.54 -1.33,-1.77 -1.06,-1.11 -2.88,-2.7l0.98 -5.35c10.48,-0.34 5.7,-0.56 10.46,-2.26 2.48,1.72 1.98,2.45 5.84,2.55 3.47,0.09 3.93,-0.18 7.17,0.6 4.39,1.05 8.22,3.35 12.2,0.29 2.93,-2.26 13.33,-14.2 14.56,-17.4 -4.27,-2.69 -4.91,-3.32 -10.68,-4.93 -4.79,-1.34 -7.65,-2.36 -11.83,-3.9 -3.62,-1.34 -10.23,-1.64 -12.77,-2.91 -6.42,-3.21 -2.97,0.03 -9.29,-1.02 -2.43,-0.41 -1.37,0.16 -3.2,-1.01 -4.32,-1.79 -7.03,-0.86 -12.25,-0.45 -4.83,0.38 -5.01,4.16 -5.9,8.96 -7.45,0.53 -14.25,5.65 -20.92,7.26 -1.92,-3.37 -0.21,-4.17 -7.05,-9.28 -3.18,-2.38 -6.82,-4.54 -10.3,-6.68 -8.16,-5.02 -14.94,-6.08 -26.4,-6.99 -16.14,-1.29 -13.9,1.53 -30.12,1.98 -7.63,0.21 -20.59,5.25 -23.78,9.82 -0.29,2.24 -0.63,0.5 0.24,2.1 3.92,-0.01 13.57,-4.31 16.11,-2.72 -0.56,2.12 -2.82,2.87 -5.02,3.89 -2.23,1.03 -4.43,1.57 -6.83,2.34 -6.54,2.1 -7.32,4.26 -11.7,6.32 -2.65,1.48 -3.38,4.47 -1.86,7.92 1.45,0.83 -0.12,0.21 2.11,0.71 2.2,-2.34 1.79,-3.71 5.31,-5.46 2.39,-1.19 4.81,-2.31 7.53,-2.92 -0.98,3.27 -4.74,5.31 -7.2,7.22 -4.12,3.19 -4.29,4.03 -6.26,7.33 -3.41,14.66 -0.22,15.42 2.22,27.13 -13.98,-3.48 -21.75,-3.29 -21.71,-20.5 0.04,-16.59 5.53,-19.75 8.87,-32.82 3.35,-13.09 12.57,-2.02 34.33,-16.58 1.92,-1.29 3.51,-3.26 5.7,-4.83 3.97,-2.86 8.37,-6.84 7.53,-12.84 -6.51,-1.8 -29.61,2.26 -34.94,2.38 0.54,-2.24 1.21,-2.09 1.04,-4.26 0.72,-5.47 4.25,-14.25 4.42,-18.22 -16.01,-4.22 -23.08,5.71 -36.77,8.11 -4.51,0.79 -8.82,1.07 -11,4.54 1.39,1.7 2.17,0.94 3.53,3.38 1.56,2.79 0.53,2.33 4.13,2.27z"/>
   <path class="fil1" d="M392.35 87.34c-1.36,1.29 -2.7,0.83 -6.9,0.83 -2.27,-0 -4.68,-0.22 -6.36,-0.75 -5.95,-1.9 -4.48,-5.41 -8.01,-7.28 -1.89,1.49 -0.61,1.13 -2.63,2.41 -1.07,0.68 -1.78,0.69 -2.96,1.59 -1.79,1.36 -1.84,3.23 -4.41,3.2 1.28,-5.07 2.61,-7.07 4.54,-10.88 2.3,-4.55 2.96,-5.44 7.97,-7.68 4.06,-1.82 8.73,-2.13 13.85,-2.35 5.63,-0.25 10.54,0.07 10.89,5.38 0.53,4.03 4.2,4.59 0.86,9.35 -1.4,2 -4.56,5.64 -6.83,6.19zm-50.2 -35.93c-0.81,0.22 -1.1,-0.26 -1.95,1.42 -1.17,2.11 -3.03,3 -1.2,4.87 2.69,2.76 4.93,-1.06 9.36,-2.57 3.83,-1.31 2.82,-0.52 3.51,-0.41l0.87 0.33c-2.79,3.37 -3.79,1.15 -11.23,10.27 -2.59,3.17 -0.98,2.82 -3.64,3.95 -5.81,4.2 -4.88,21.57 -6.14,29.86l0.84 1.57c4.86,12.4 1.24,15.22 14.5,26.06 9.26,7.57 8.29,8.25 20.26,11.03 12.85,2.99 7.63,4.1 28.08,1.84 12.44,-1.38 15.14,-0.71 24.48,-7.65 7.53,-5.59 11.68,-3.57 12.06,-20.05l0.84 -0.41c0,-0 1.32,1.23 0.7,-3.99 -0.07,-0.6 -0.41,-2.25 -0.59,-2.67 -1.1,-2.58 0.06,-1.74 -1.64,-1.43 -5.39,4.32 -9.59,12.76 -22.9,14.47 -5.55,0.71 -11.46,1.76 -17.51,0.84 -4.75,-0.72 -10.1,-3.55 -14.67,-4.76 -1.97,-1.33 -2.95,-2.3 -4.11,-3.75 -2.53,-3.14 -9.16,-8.84 -9.24,-12.45 3.27,-0.16 4.5,2.08 6.38,3.04 15.91,5.58 29.22,4.46 43.3,-4.37 5.64,-3.54 9.66,-8.1 12.34,-14.48 2.47,-5.88 4.65,-15.57 0.15,-22.01 -2.9,-4.15 -9.3,-9.82 -14.26,-12.47 -11.39,-6.07 -34.99,-4.89 -47.16,-1.77 -3.43,0.88 -7.88,1.28 -11.33,2.34 -3.35,1.03 -6.32,3.43 -10.08,3.35z"/>
   <path class="fil0" d="M140.55 178.91c3.34,-0.67 9.76,-3.49 12.02,-5.53l-5.49 -21.99c-2.9,-13.82 -0.14,-17.84 -0.68,-24.95 -0.54,-7.14 -0.81,-5.16 0.9,-11.93 0.79,-3.13 0.98,-7.86 1.52,-11.65 1.03,-7.28 3.72,-15.13 4.3,-22.51 -0.21,-6.58 -5.68,-2.73 -9.39,-3.26 -2.81,-0.4 -0.19,-0.95 -4.19,-1.23 -3.57,15.96 0.32,14.79 -10.06,18.67 -15.05,5.63 -5.77,0.93 -20.03,9.38 -10.42,6.17 -24.48,18.06 -29.95,28.95 -7.57,15.08 -4.25,32.3 11.34,40.98 6.73,3.75 14.02,6.05 23.33,6.39 5,0.19 6.28,2.28 13.06,1.11 2.73,-0.47 2.68,-0.98 5.85,-1.2 3.45,-0.24 4.42,-0.17 7.47,-1.23z"/>
   <path class="fil2" d="M285.29 76.35c5.59,-2.31 11.09,-0.2 12.64,4.71 1.91,6.06 -2.4,8.87 -7.41,9.97 -5.3,1.16 -11.33,-1.96 -13,-5.26 -2.85,-5.63 3.61,-7.69 7.78,-9.41zm-20.38 14.87c-0.19,-7.85 6.65,-15.69 13.84,-17.12 -0.55,5.36 -1.11,1.73 -6.59,9.44 -1.22,1.72 -2.08,2.4 -3.35,3.92 -1.84,2.21 -1.23,2.73 -3.9,3.75zm-14.16 -27.34c-3.13,0.67 -5.8,2.84 -6.82,6.71 -0.09,1.9 -0.77,0.49 0.32,1.44 6.19,-0.98 6.21,-4.41 10.46,-4.77 1.49,4.18 -4.32,6.61 -6.6,8.62 -5.12,4.52 -4.7,6.62 -7.25,9.06 -1.25,3.32 -1.37,6.67 -1.61,10.65 -0.27,4.48 0.83,6.77 2.02,10.8 1.91,6.47 4.42,15.53 8.09,18.22 1.81,0.54 5.46,3.79 9.25,6.24 15.03,9.74 31.08,12.01 48.79,8.85 5.46,-0.97 7.42,-2.02 11.01,-4.68 6.35,-4.72 11.44,-8.07 10.55,-19.6 -8.02,-0.65 -7.07,8.49 -31.12,7.32 -0.38,-0.02 -2.31,-0.15 -2.58,-0.21 -2.32,-0.55 -1.94,-0.69 -2.62,-1.38 -5.1,-1.09 -5.71,-1.2 -10.09,-3.14 -1.77,-0.79 -3.2,-1.33 -4.81,-2.31 -2.26,-1.37 -2.48,-2.22 -3.93,-3.03 -3.61,-0.53 -8.89,-7.59 -9.92,-11.23 4.73,1.34 3.85,3.56 9.28,4.59 10.96,2.09 20.31,0.56 29.24,-4.56 5.42,-3.1 9.3,-6.64 12.79,-10.85 4.48,-5.39 4.91,-21.49 -2.5,-27.55 -7.82,-6.39 -15.23,-8.85 -25.43,-10.06 -7.78,-0.93 -7.26,2.92 -20.16,3.19 -7.81,0.16 -8.1,5.97 -16.35,7.66z"/>
   <path class="fil3" d="M634.39 69.37c1.84,1.17 0.77,0.6 3.2,1.01 6.32,1.05 2.87,-2.19 9.29,1.02 2.54,1.27 9.14,1.57 12.77,2.91 4.17,1.55 7.04,2.57 11.83,3.9 5.77,1.61 6.41,2.24 10.68,4.93 -1.23,3.2 -11.62,15.14 -14.56,17.4 -3.97,3.06 -7.81,0.76 -12.2,-0.29 -3.24,-0.77 -3.7,-0.51 -7.17,-0.6 -3.87,-0.1 -3.36,-0.83 -5.84,-2.55 -4.76,1.7 0.02,1.92 -10.46,2.26l-0.98 5.35c1.82,1.59 1.55,0.93 2.88,2.7 3.01,3.99 6.32,5.73 10.4,8.54 1.37,0.95 2.11,1.48 3.53,2.37 10.04,6.32 16.34,17.82 10.37,29.58 -3.4,6.71 -5.99,7.82 -13.57,11.27 -10.97,4.98 -31.95,5.52 -43.47,1.28 -11.89,-4.38 -16.46,-8.15 -24.91,-12.43l-8.33 -4.91 -1.03 3.2c-3.37,0.2 -7.75,0.78 -10.84,1.62 -7.04,1.91 -28,0.45 -34.72,-2.47 -22.87,-9.94 -15.76,-7.25 -27.44,-3.53 -7.86,2.51 -20.28,4.48 -27.72,1.17 -7.14,-3.18 -10.54,-1.03 -20.6,-11.48 -7.06,-7.33 -11.06,-16.61 -10.63,-27.53 0.16,-4.18 0.64,-8.7 0.06,-12.79 -1.25,1.03 -0.44,-0.45 -1.26,2.08 -0.31,0.94 -0.37,2.14 -0.66,3.25 -0.75,2.92 -1.25,3.62 -1.79,6.79 1.7,-0.3 0.54,-1.15 1.64,1.43 0.18,0.42 0.52,2.08 0.59,2.67 0.63,5.21 -0.69,3.98 -0.7,3.99l-0.84 0.41c-0.38,16.48 -4.53,14.46 -12.06,20.05 -9.34,6.94 -12.05,6.27 -24.48,7.65 -20.45,2.26 -15.23,1.15 -28.08,-1.84 -11.97,-2.79 -11,-3.46 -20.26,-11.03 -13.26,-10.84 -9.64,-13.66 -14.5,-26.06l-0.84 -1.57c-0.15,3.7 -2.8,7.66 -4.73,10.53 -2.31,3.43 -4.34,4.89 -7.71,7.38 -6.58,4.86 -17.79,4.7 -26.65,4.15 0.69,0.69 0.3,0.83 2.62,1.38 0.27,0.06 2.2,0.19 2.58,0.21 24.05,1.17 23.09,-7.98 31.12,-7.32 0.89,11.53 -4.2,14.88 -10.55,19.6 -3.59,2.66 -5.54,3.71 -11.01,4.68 -17.71,3.15 -33.75,0.89 -48.79,-8.85 -3.79,-2.45 -7.43,-5.7 -9.25,-6.24 1.28,5.4 13.99,14.06 18.02,15.77 20.37,8.64 35.07,9.1 53.74,0.07 9.17,-4.44 11.74,-8.12 16.24,-17.77 4.6,1.36 2.69,2.58 9.49,8.22 6.41,5.32 0.84,2.47 10.04,6.93 3.54,1.71 8.4,3.64 12.29,4.77 17.56,5.12 40.76,4.19 55.23,-6.79 3.05,-2.31 6.03,-7.48 9.43,-8.12 2.13,0.99 3.88,4.34 5.48,6.18 5.73,6.58 7.9,7 14,10.25 7.08,3.77 23.88,5.87 31.47,3.62l13.67 -4.44c8.78,-4.43 2.6,-1.21 16.22,4.76 14.19,6.21 34.29,4.66 49.23,2.87 3.67,-0.44 3.46,-2.05 7.81,-1.2 2.32,0.45 4.47,2.26 5.97,3.35 14.68,10.62 22.32,13.12 41.84,13.78 16.08,0.55 16.79,0.32 30.2,-5.11 3.44,-1.39 2.99,-1.39 5.53,-3.64 2.83,-2.51 5.8,-3.68 8.99,-9.31 2.32,-4.09 2.69,-10.91 1.86,-15.61 -0.81,-4.59 -3.07,-7.04 -7.31,-10.87 -3.73,-3.36 -25.28,-16.63 -26.42,-19.25 0.24,-0.08 8.74,-1.96 8.77,-1.96 5.61,-0.49 22.25,8.21 26.46,6.66 3.68,-1.35 8.87,-7.61 11.34,-10.98 2.45,-3.34 8.46,-9.47 7.93,-14.96 -4,-3.63 -17.13,-7.52 -23.79,-9.11 -4.71,-1.12 -8.58,-1.54 -14.08,-2.39 -3.7,-0.57 -2.06,-2.51 -6.49,-1.73 -2.54,0.45 -0.52,1.29 -8.12,0.75z"/>
   <path class="fil3" d="M151.81 63.04c4.99,-0.46 8.82,-4.29 12.75,-5.94 10.53,-4.41 2.57,-0.03 11.8,-6.53 4.1,-2.89 8.03,-3.28 13.04,-5.21 1.77,-0.69 13.2,-7.15 13.28,-3.32l-3.79 12.1c-2.24,5.26 -3.92,5.42 -5.83,11.9 -2.94,9.99 -5.29,17.66 -5.43,28.88 0.05,0.01 0.12,-0.08 0.13,-0.09l0.99 -0.28c2.25,-0.32 -0.01,0.84 2.45,-0.42 1.99,-1.02 2.59,-4.66 17.08,-4.81 18.22,-0.18 23.86,10.75 29.98,27.94 1.81,5.08 1.78,19.76 2.28,26.53 3.43,0.55 5.89,0.75 9.39,1.08 5.16,0.49 6.17,-0.93 6.12,4.39 -3.63,1.45 -7.94,2.35 -11.44,4.17 -6.37,3.32 -14.82,7.35 -21.86,9.33 -4.38,1.23 -7.49,3.95 -12.28,4.57 0.06,-19.29 0.19,-8.87 -1.8,-25.64 -0.54,-4.5 0.94,-8.56 -2.39,-11.42 -4.95,-4.25 -2.29,-4.11 -2.04,-10.1l-14.25 1.01c-1.11,2.55 -0.55,6.3 -1.1,9.3 -2.17,11.88 -2.21,12.33 0.15,26.34 0.47,2.79 1.65,4.52 2.49,7.77 3.48,13.62 -0.92,14.59 -7.61,19.72 -4.16,3.19 -7.64,5.17 -12.15,8.12 -4.11,2.69 -8.22,4.53 -12.53,7.08 -4.74,2.81 -7.62,4.74 -13.34,6.97 -13.04,5.1 -39.15,7.95 -52.69,5.55 -8.62,-1.53 -25.25,-4.75 -32.66,-7.37 -10.14,-3.58 -17.22,-10.53 -23.69,-16.15 -5.09,-4.42 -10.99,-14.28 -13.7,-21.54l-2.07 -3.07c0.38,5.26 0.34,5.43 1.65,9.95 1.01,3.48 1.39,4.69 2.85,7.62 2.39,4.8 6.51,9.05 9.54,12.06 4.86,4.83 18.1,13.7 26.17,16.38 4.91,1.63 10.99,3.8 16.28,5.28 5.64,1.58 12.42,2.01 18.58,2.79 10.93,1.39 40.22,-1.24 48.54,-4.28 17.55,-6.43 19.69,-8.52 34.54,-19.08 4.12,-2.93 8.25,-5.41 12.59,-8.33 7.96,-5.35 5.62,-4.65 4.84,-14.35 -0.73,-9.03 -14.95,-48.72 5.17,-48.39 3.82,14.85 4.97,3.68 5.98,22.97 0.45,8.66 -3.52,18.08 1.14,25.66 11.37,1.19 54.29,-22.14 56.07,-26.29 -2.68,-6.03 -10.5,-3.92 -20.37,-4.4 -5.27,-13.12 4.46,-23.07 -13.79,-46.28 -10.63,-13.52 -30.63,-5.72 -36.22,-5.47 -0.42,-20.89 17.35,-45.06 15.33,-54.04 -14.84,-1.62 -41.23,16.53 -55.03,24.77 -0.48,0.29 -1.15,0.64 -1.63,1.01 -1.58,1.24 -0.62,0.37 -1.51,1.53z"/>
   <path class="fil4" d="M85.9 51.98c4.8,-0.94 20.17,-6.81 25.84,-8.59 5.78,-1.81 22.51,-5.52 28.84,-4.93 4.35,5.62 2.75,7.38 0.62,14.7 -1.28,4.41 -3.19,9.4 -4.71,14.47 -1.49,4.97 -2.34,10.2 -3.74,15.28 -2.92,10.65 -5.5,3.08 -23.26,13.85l-21.24 16.04c-7,6.14 -20.06,24.19 -20.83,35.03 -0.52,7.33 2.77,9.96 5.7,13.61 4.06,5.05 3.94,5.12 9.11,9.22 6.41,5.09 17.82,10.09 26.11,11.09 5.03,0.61 27.45,2.45 31.83,-1.81l0.37 -1.05c-3.05,1.06 -4.02,0.99 -7.47,1.23 -3.16,0.22 -3.12,0.73 -5.85,1.2 -6.78,1.18 -8.06,-0.92 -13.06,-1.11 -9.31,-0.35 -16.6,-2.64 -23.33,-6.39 -15.59,-8.68 -18.91,-25.9 -11.34,-40.98 5.46,-10.89 19.53,-22.77 29.95,-28.95 14.26,-8.45 4.98,-3.75 20.03,-9.38 10.38,-3.88 6.49,-2.71 10.06,-18.67 4,0.28 1.38,0.83 4.19,1.23 3.71,0.53 9.18,-3.32 9.39,3.26 1.82,-1.78 4.16,-7.13 3.46,-10.24 -10.02,-0.24 -5.69,5.56 -11.86,4.52l1.16 -5.89 -2.2 0.61c-1.62,-14.43 10.5,-22.5 4.58,-33.89 -6.44,-0.56 -12.29,1.26 -18.43,1.37 -4.3,0.08 -4.19,0.53 -7.45,2.23l-22.38 7.1c-2.83,0.76 -4.62,1.22 -7.36,2.38 -2.32,0.99 -5.06,1.64 -6.74,3.44z"/>
   <path class="fil0" d="M530.35 122.83c2.2,0.47 3.17,1.09 6.71,1.63 2.68,0.41 4.33,0.88 7.23,1.15 5.74,0.53 9.56,-1.6 13.9,-3.1 4.38,-1.51 2.23,-1.15 8.34,-8.63 3.17,-3.88 0.12,-11.32 0.66,-14.23 -2.56,-2.02 -1.67,-3.1 -5.24,-5.41 -12.14,-7.82 -12.94,-3.1 -20.39,-0.85 -6.09,1.84 -8.91,3.25 -11.99,7.05 -11.93,14.68 -2.44,14.7 0.78,22.39z"/>
   <path class="fil5" d="M250.75 63.89c8.25,-1.69 8.54,-7.49 16.35,-7.66 12.9,-0.27 12.37,-4.12 20.16,-3.19 10.2,1.21 17.61,3.68 25.43,10.06 7.42,6.06 6.98,22.16 2.5,27.55 -3.49,4.2 -7.38,7.74 -12.79,10.85 -8.93,5.12 -18.28,6.65 -29.24,4.56 -5.43,-1.04 -4.55,-3.26 -9.28,-4.59 1.03,3.64 6.31,10.7 9.92,11.23 -0.63,-2.72 -0.38,-0.77 0.53,-1.36 4.59,2.13 17.47,1.03 23.08,-0.02 13.24,-2.48 17.64,-4.45 24.16,-13.59 5.41,-7.59 5.98,-21.57 0.67,-30.38 -3.12,-5.16 -7.23,-9.42 -12.99,-12.53 -8.4,-4.54 -12.51,-2.47 -20.96,-4.62 -5.76,-1.47 -21.82,2.32 -29.94,7.82 -1.48,1 -2.56,1.7 -3.92,2.61 -0.74,0.49 -1.43,0.93 -1.93,1.35l-1.73 1.92z"/>
   <path class="fil0" d="M588.87 130.88c2.6,2.81 11.46,8.89 16.15,11.16 12.47,6.03 35.81,-0.1 10.39,-17.52 -3.21,-2.2 -12.87,-8.96 -17.36,-9.85 -1.84,3.06 -8.71,13.18 -9.18,16.21z"/>
   <path class="fil6" d="M342.15 51.41c3.76,0.08 6.73,-2.31 10.08,-3.35 3.45,-1.06 7.89,-1.46 11.33,-2.34 12.17,-3.12 35.77,-4.3 47.16,1.77 4.96,2.65 11.36,8.32 14.26,12.47 4.51,6.45 2.32,16.14 -0.15,22.01 -2.68,6.38 -6.69,10.94 -12.34,14.48 -14.08,8.83 -27.39,9.95 -43.3,4.37 0.91,3.2 2.81,2.86 7.12,3.55 13.86,2.22 10.93,1.78 27.26,-0.67 10.4,-1.56 18.4,-8.5 23.76,-16.56 6.38,-9.58 4.95,-21.12 -2.03,-30.11 -10.29,-13.26 -22.11,-13.49 -24.77,-16.42 -3.33,-2.36 -27.55,-1 -32.58,0.3 -4.87,1.25 -22.84,5.32 -25.83,10.51z"/>
   <path class="fil7" d="M457.46 38.47c-3.59,0.06 -2.57,0.52 -4.13,-2.27 -1.37,-2.44 -2.15,-1.68 -3.53,-3.38 2.18,-3.46 6.49,-3.74 11,-4.54 13.7,-2.4 20.76,-12.33 36.77,-8.11 -0.17,3.97 -3.7,12.75 -4.42,18.22 2.16,-2.06 7.16,-14.13 8.76,-17.26 1.39,-2.72 2.85,-2.83 3.14,-5.97 -5.67,-5.63 -24.73,3.01 -29.17,4.14 -4.35,1.11 -5.9,1.11 -9.4,3.04 -1.58,0.87 -1.81,1.37 -3.7,2.11l-14.19 4.81c-4.49,1.8 -16.48,3.79 -15.2,10.09 3.24,1.48 18.49,3.24 21.77,1.12 0.2,-0.13 0.97,-0.76 1.13,-0.9l1.17 -1.11z"/>
   <path class="fil4" d="M530.35 122.83c-3.23,-7.7 -12.71,-7.71 -0.78,-22.39 3.08,-3.8 5.9,-5.21 11.99,-7.05 7.45,-2.25 8.26,-6.98 20.39,0.85 3.57,2.3 2.69,3.38 5.24,5.41 -1.34,-8.36 -9.29,-10.75 -15.08,-13.8 -2.16,-1.13 -1.7,-1.68 -4.59,-2.65 -1.84,-0.62 -3.84,-0.85 -5.88,-1 -4.63,-0.34 -9.78,-0.88 -12.27,1.62 1.27,3.75 3.57,1.68 6.03,5.88 -1.9,3.07 -6.5,3.35 -8.97,5.63 -0.68,0.62 -5.21,7.67 -5.61,8.71 -1.77,4.56 -1.26,16.03 8.46,19.79 1.19,-1.03 -0.12,0.6 1.07,-1z"/>
   <path class="fil0" d="M392.35 87.34c2.28,-0.55 5.43,-4.19 6.83,-6.19 3.34,-4.76 -0.33,-5.32 -0.86,-9.35 -5,-2.94 -6.83,-3.18 -14.31,-1.99 -4.04,0.64 -9.42,3.03 -11.13,6.16 2.04,6.61 10.12,12.13 19.47,11.37z"/>
   <path class="fil8" d="M369.2 100.81c-1.87,-0.96 -3.11,-3.2 -6.38,-3.04 0.08,3.6 6.71,9.31 9.24,12.45 1.16,1.44 2.14,2.41 4.11,3.75 -0.38,-1.19 0.86,-1.25 -0.64,-2.49 -2.51,-2.08 -2.1,-0.33 -2.62,-3.6 13.43,-1.22 22.97,1.59 36.62,-2.64 9.47,-2.94 17.6,-10.31 20.71,-19.08 3.71,-10.46 2.82,-24.17 -3.59,-31.11 -3.15,-3.41 -6.59,-6.99 -10.65,-8.98 -4.9,-2.39 -9.64,-4.27 -15.46,-5.46 2.66,2.93 14.48,3.17 24.77,16.42 6.98,8.99 8.41,20.53 2.03,30.11 -5.37,8.06 -13.36,15 -23.76,16.56 -16.32,2.45 -13.4,2.89 -27.26,0.67 -4.31,-0.69 -6.21,-0.35 -7.12,-3.55z"/>
   <path class="fil0" d="M285.29 76.35c-4.17,1.72 -10.63,3.79 -7.78,9.41 1.67,3.3 7.71,6.42 13,5.26 5.01,-1.09 9.33,-3.91 7.41,-9.97 -1.55,-4.9 -7.04,-7.01 -12.64,-4.71z"/>
   <path class="fil9" d="M392.35 87.34c-9.34,0.76 -17.43,-4.76 -19.47,-11.37 1.71,-3.13 7.09,-5.52 11.13,-6.16 7.48,-1.19 9.31,-0.95 14.31,1.99 -0.35,-5.31 -5.26,-5.63 -10.89,-5.38 -5.12,0.22 -9.79,0.54 -13.85,2.35 -5.01,2.24 -5.67,3.14 -7.97,7.68 -1.93,3.81 -3.26,5.81 -4.54,10.88 2.57,0.04 2.62,-1.84 4.41,-3.2 1.18,-0.9 1.89,-0.91 2.96,-1.59 2.02,-1.28 0.74,-0.92 2.63,-2.41 3.53,1.88 2.06,5.39 8.01,7.28 1.68,0.53 4.09,0.75 6.36,0.75 4.2,0 5.54,0.46 6.9,-0.83z"/>
   <path class="fil10" d="M35.2 83.58c-1.84,0.91 -2.07,1.22 -3.45,2.83 -5.18,6.02 -9.53,16.12 2.81,12.6 2.88,-0.82 3.61,-1.43 7.03,-1.45 1.31,1.43 0.71,-0.58 0.51,2.13 3.21,-1.52 4.37,-3.32 7.01,-5.74 2.7,-2.48 3.79,-3.4 6.94,-5.48 5.01,-3.3 10.41,-6.54 15.33,-9.72 -2.64,0.28 -18.39,7.5 -21.11,9.17 -9.25,5.68 -10.94,4.3 -14.34,8.58 -1.46,1.83 -2.98,2.85 -5.43,1.08 -4.79,-4.5 3.12,-11.26 4.7,-13.98z"/>
   <path class="fil11" d="M497.66 73.97c-2.23,1.43 -0.76,-0.08 -2.11,2.9 -0.54,1.19 -0.85,2.1 -1.39,3.17 -1.24,2.51 -2.32,3.55 -3.71,5.87 4.39,-2.06 5.16,-4.23 11.7,-6.32 2.41,-0.77 4.61,-1.32 6.83,-2.34 2.2,-1.01 4.46,-1.77 5.02,-3.89 -2.54,-1.6 -12.19,2.71 -16.11,2.72 -0.87,-1.6 -0.53,0.15 -0.24,-2.1z"/>
   <path class="fil12" d="M337.85 69.26c2.66,-1.13 1.05,-0.78 3.64,-3.95 7.45,-9.11 8.44,-6.89 11.23,-10.27l-0.87 -0.33c-0.68,-0.1 0.33,-0.89 -3.51,0.41 -4.43,1.51 -6.67,5.33 -9.36,2.57 -1.83,-1.88 0.03,-2.76 1.2,-4.87 -2.87,1.13 -5.96,3.69 -4.07,7.62 2.7,5.61 4.3,0.7 1.72,8.82z"/>
   <path class="fil13" d="M243.94 70.6c-2.84,2.28 -1.45,2.98 -1.45,6.69 0,3.18 -1.09,4.62 -1.63,7.67 2.56,-2.44 2.14,-4.55 7.25,-9.06 2.28,-2.01 8.09,-4.44 6.6,-8.62 -4.25,0.36 -4.27,3.78 -10.46,4.77 -1.09,-0.96 -0.41,0.45 -0.32,-1.44z"/>
   <path class="fil8" d="M264.91 91.22c2.67,-1.02 2.06,-1.54 3.9,-3.75 1.27,-1.53 2.13,-2.2 3.35,-3.92 5.48,-7.71 6.04,-4.08 6.59,-9.44 -7.2,1.43 -14.03,9.27 -13.84,17.12z"/>
   <path class="fil10" d="M488.61 93.83c1.87,4.45 2.52,0.23 1.5,6.88 1.96,-3.3 2.13,-4.14 6.26,-7.33 2.46,-1.9 6.22,-3.94 7.2,-7.22 -2.72,0.61 -5.14,1.73 -7.53,2.92 -3.52,1.74 -3.11,3.11 -5.31,5.46 -2.23,-0.49 -0.66,0.12 -2.11,-0.71z"/>
  </g>
 </g>
</svg>
