<?xml version="1.0" encoding="UTF-8"?>
<!DOCTYPE svg PUBLIC "-//W3C//DTD SVG 1.1//EN" "http://www.w3.org/Graphics/SVG/1.1/DTD/svg11.dtd">
<!-- Creator: CorelDRAW -->
<svg xmlns="http://www.w3.org/2000/svg" xml:space="preserve" width="48.6849mm" height="15.8261mm" version="1.1" style="shape-rendering:geometricPrecision; text-rendering:geometricPrecision; image-rendering:optimizeQuality; fill-rule:evenodd; clip-rule:evenodd"
viewBox="0 0 607.36 197.43"
 xmlns:xlink="http://www.w3.org/1999/xlink"
 xmlns:xodm="http://www.corel.com/coreldraw/odm/2003">
 <defs>
  <style type="text/css">
   <![CDATA[
    .fil1 {fill:black}
    .fil0 {fill:red}
   ]]>
  </style>
 </defs>
 <g id="Camada_x0020_1">
  <metadata id="CorelCorpID_0Corel-Layer"/>
  <g id="_2825775474560">
   <path class="fil0" d="M413.03 50.54c0,39.11 55.65,82.66 87.75,106.58 5.57,4.15 10.71,8.78 16.35,12.57 3.86,-1.03 35.33,-26.27 41.92,-32.11 11.09,-9.83 21.51,-20.06 30.46,-32.01 9.01,-12.02 17.85,-26.74 17.85,-44.61 0,-17.17 -9.66,-32.19 -19.64,-39.35 -14.55,-10.42 -24.69,-10.75 -47.36,-9.15 -9.51,0.67 -15.16,3.06 -21.1,7.82 -5.28,4.23 -9.58,13.63 -17.76,8.99 -3.89,-2.21 -13.06,-18.05 -41.04,-18.05 -24.26,0 -47.42,17.83 -47.42,39.32z"/>
   <path class="fil1" d="M296.19 118.79c0,-17.24 7.86,-60.72 19.92,-72.63 5.08,-5.02 12.11,-8.35 21.73,-8.35 46.28,0 44.35,43.97 13.63,69.15 -18.01,14.76 -31.12,16.45 -55.27,16.45l0 -4.63zm-43.95 21.98c0,27.63 8.15,39.91 35.7,39.69 16.12,-0.12 43.74,-11.13 55.3,-16.95 18.39,-9.25 28.48,-16.86 41.75,-31.12 27.66,-29.72 28.29,-75.28 0.58,-105.29 -10.11,-10.95 -28.64,-20.46 -45.06,-23.19 -25.88,-4.3 -51.9,-1.52 -63.6,23.87 -2.81,6.09 -4.18,10.75 -6.03,17.11 -4.6,15.88 -18.64,82.98 -18.64,95.87z"/>
   <path class="fil1" d="M168.95 62.11c0,-14.17 39.08,-24.54 44.28,-0.22 3.9,18.26 -14.54,17.57 -22.3,17.57 -4.94,0 -21.98,-6.09 -21.98,-17.36zm24.3 47.42c-5.66,10.73 -41.87,41.64 -52.54,49.26 -14.82,10.58 -20.49,15.99 -11.5,32.13 6.68,11.99 19.79,4.95 32.81,-1.57 6.67,-3.34 13.86,-8.15 19.83,-12.56 13.78,-10.17 29.94,-24.75 40.15,-38.51 24.85,-33.5 44.26,-75.34 21.36,-117.05 -3.75,-6.82 -5.49,-7.51 -11.04,-12.09 -28.37,-23.44 -66.68,3.38 -83.91,22.01 -20.93,22.63 -44.19,61.53 4.08,72.86l40.76 5.51z"/>
   <path class="fil1" d="M20.9 106.07c0,22.98 31.96,0.68 47.43,8.09 -2.42,9.08 -52.25,36.99 -60.97,44.3 -8.61,7.22 -7.28,3.85 -7.28,12.38 0,7.12 5.39,18.83 9.25,22.74 10.53,-3.74 24.28,-0.57 50.73,-20.6 11.11,-8.41 15.55,-13.36 25.34,-23.24 3.64,-3.67 7.76,-9.45 10.69,-13.6 7.5,-10.65 21.79,-36.79 8.46,-50.11 -4.36,-4.36 -7.4,-4.5 -13.24,-6.43 -4.73,-1.56 -9.47,-2.69 -13.65,-4.9 -13.53,-7.15 -12.68,-10.43 -6.32,-17.72 21.23,-24.35 70.09,-0.12 73.32,-38.83 -19.4,-10.27 -27.12,-9.25 -49.59,-9.25 -7.47,0 -29.54,4.84 -35.59,7.31 -11.31,4.63 -14.06,13.34 -17.9,24.93 -4.61,13.93 -20.68,54.04 -20.68,64.92z"/>
  </g>
 </g>
</svg>
