<?xml version="1.0" encoding="UTF-8"?>
<!DOCTYPE svg PUBLIC "-//W3C//DTD SVG 1.1//EN" "http://www.w3.org/Graphics/SVG/1.1/DTD/svg11.dtd">
<!-- Creator: CorelDRAW -->
<svg xmlns="http://www.w3.org/2000/svg" xml:space="preserve" width="81.1756mm" height="48.7731mm" version="1.1" style="shape-rendering:geometricPrecision; text-rendering:geometricPrecision; image-rendering:optimizeQuality; fill-rule:evenodd; clip-rule:evenodd"
viewBox="0 0 150.58 90.47"
 xmlns:xlink="http://www.w3.org/1999/xlink"
 xmlns:xodm="http://www.corel.com/coreldraw/odm/2003">
 <defs>
  <style type="text/css">
   <![CDATA[ 
    .fil0 {fill:black;fill-rule:nonzero}
   ]]>
  </style> 
 </defs>
 <g id="Camada_x0020_1">
  <metadata id="CorelCorpID_0Corel-Layer"/>
  <g id="_2208314756976">
   <path class="fil0" d="M29.7 6.22c-0.24,0.42 -0.46,1.1 0.05,1.56 -0.48,0.73 -0.8,1.33 -0.8,1.66 -0.01,1.21 0.87,1.45 1.87,0.91 -0.13,-0.42 0.23,-1.19 0.8,-2.11 0.44,0 1,-0.01 1.78,0.08 -0.09,0.73 -0.13,1.31 -0.06,1.59 0.19,1.17 1.02,0.78 2.02,0.25 -0.45,-1.5 0.63,-7.15 0.4,-8.44 -0.11,-0.6 -1.13,-0.78 -1.56,-0.8 0.02,0.94 -2.12,3.58 -3.69,5.74 -0.41,-0.17 -0.68,-0.33 -0.82,-0.45zm3.84 1.21c-0.44,-0.07 -0.84,-0.13 -1.22,-0.21 0.53,-0.76 1.12,-1.55 1.66,-2.31 -0.15,0.86 -0.31,1.74 -0.44,2.52zm9.49 -7.04c-1.89,0 -2.54,2.08 -2.89,3.45 -0.01,0.05 -0.02,0.11 -0.04,0.16 -0.14,0 -0.28,0.01 -0.44,0.03 -0.66,0.07 -0.84,1.09 -0.68,1.35 0.27,-0.03 0.52,-0.05 0.75,-0.05 -0.53,1.76 -1.11,3.37 -1.12,4.12 -0.01,1.19 0.87,1.45 1.87,0.91 -0.28,-0.93 0.45,-2.92 1.04,-4.93 0.28,0.01 0.57,0 0.9,-0.05 0.5,-0.07 0.7,-0.91 0.49,-1.35 -0.4,0.09 -0.73,0.11 -1.03,0.11 0.15,-0.61 0.58,-2.37 1.15,-2.37 0.19,0 0.22,0.65 0.18,1.15 0.11,0.13 1.25,0.25 1.4,-0.99 0.12,-0.91 -0.44,-1.52 -1.59,-1.52zm2.34 8.59c-0.55,0 -0.89,-0.29 -1.01,-0.8 1.15,0.07 2.84,-0.68 3.31,-1.98 0.49,-1.35 -0.23,-2.57 -1.52,-2.51 -1.8,0 -3.18,1.71 -3.56,3.61 -0.38,1.88 0.34,3.39 2.15,3.27 1.69,0 2.75,-2.17 2.28,-2.45 -0.42,0.48 -0.92,0.84 -1.63,0.85zm0.44 -3.92c0.28,0 0.45,0.16 0.45,0.53 0,0.95 -1.17,1.27 -1.82,1.38 0.21,-0.72 0.69,-1.9 1.37,-1.91zm3.79 -4.03c-0.07,2.93 -1.97,7.04 -1.98,8.42 -0.01,1.19 0.87,1.45 1.87,0.91 -0.45,-1.5 1.75,-5.83 1.72,-8.47 0,-0.44 -0.79,-0.82 -1.61,-0.86zm2.23 2.66c0.02,1.47 -1.38,4.37 -1.39,5.75 -0.01,1.19 0.87,1.45 1.87,0.91 -0.45,-1.5 1.3,-4.57 1.08,-5.87 -0.08,-0.44 -0.74,-0.76 -1.56,-0.8zm2.02 -2.84c-0.48,-0.37 -1.05,-0.17 -1.43,0.48 -0.38,0.65 -0.33,1.33 0.15,1.7 0.47,0.36 1.04,0.16 1.42,-0.49 0.38,-0.65 0.33,-1.33 -0.14,-1.68zm4.66 5.36c0.49,-1.35 -0.33,-2.56 -1.42,-2.51 -1.8,0 -3.28,1.71 -3.66,3.61 -0.38,1.88 0.46,3.41 2.15,3.27 1.69,-0.13 2.71,-2.17 2.24,-2.45 -0.42,0.48 -0.77,0.84 -1.59,0.85 -0.96,0 -1.3,-0.91 -0.86,-2.25 0.23,-0.69 0.79,-1.66 1.39,-1.67 0.61,0 0.2,1.47 0.14,1.99 -0.01,0.12 1.28,0.11 1.62,-0.84zm1.33 -2.52c0.02,1.47 -1.38,4.37 -1.39,5.75 -0.01,1.19 0.87,1.45 1.87,0.91 -0.45,-1.5 1.3,-4.57 1.08,-5.87 -0.08,-0.44 -0.74,-0.76 -1.56,-0.8zm2.02 -2.84c-0.48,-0.37 -1.05,-0.17 -1.43,0.48 -0.38,0.65 -0.33,1.33 0.15,1.7 0.47,0.36 1.04,0.16 1.42,-0.49 0.38,-0.65 0.33,-1.33 -0.14,-1.68zm2.84 7.95c-0.05,0.25 -0.08,0.48 -0.08,0.64 -0.01,1.21 0.87,1.45 1.87,0.91 -0.45,-1.5 1.99,-7.08 1.77,-8.38 -0.08,-0.44 -0.74,-0.76 -1.56,-0.8 0.01,0.64 -0.37,1.99 -0.81,3.45 -0.21,-0.7 -0.64,-0.93 -1.25,-0.93 -1.49,0 -2.84,1.74 -3.22,3.61 -0.38,1.87 0.17,3.35 1.39,3.29 0.66,-0.03 1.31,-0.8 1.88,-1.79zm0.13 -3.75c0.5,0 0.74,0.29 0.62,0.8 -0.58,1.45 -1.36,2.92 -1.86,2.92 -0.45,0 -0.53,-0.84 -0.36,-1.64 0.2,-0.9 0.84,-2.06 1.6,-2.07zm6 4.39c-0.01,1.21 0.87,1.45 1.87,0.91 -0.45,-1.5 1.3,-4.57 1.07,-5.87 -0.07,-0.44 -0.74,-0.76 -1.55,-0.8 -0.01,0.24 -0.06,0.56 -0.14,0.9 -0.21,-0.66 -0.63,-0.89 -1.23,-0.89 -1.49,0 -2.84,1.74 -3.22,3.61 -0.38,1.87 0.16,3.35 1.39,3.29 0.66,-0.03 1.3,-0.78 1.87,-1.78 -0.04,0.24 -0.07,0.44 -0.07,0.62zm0.21 -4.39c0.56,0 0.79,0.36 0.57,0.97 -0.55,1.39 -1.33,2.74 -1.81,2.74 -0.45,0 -0.53,-0.84 -0.36,-1.64 0.19,-0.9 0.84,-2.06 1.6,-2.07zm6.06 3.75c-0.05,0.25 -0.08,0.48 -0.08,0.64 -0.01,1.21 0.87,1.45 1.87,0.91 -0.45,-1.5 1.99,-7.08 1.77,-8.38 -0.08,-0.44 -0.74,-0.76 -1.56,-0.8 0.01,0.64 -0.37,1.99 -0.81,3.45 -0.21,-0.7 -0.64,-0.93 -1.25,-0.93 -1.49,0 -2.84,1.74 -3.22,3.61 -0.38,1.87 0.17,3.35 1.39,3.29 0.66,-0.03 1.31,-0.8 1.88,-1.79zm0.13 -3.75c0.5,0 0.74,0.29 0.62,0.8 -0.58,1.45 -1.36,2.92 -1.86,2.92 -0.45,0 -0.53,-0.84 -0.36,-1.64 0.2,-0.9 0.84,-2.06 1.6,-2.07zm5.57 3.92c-0.55,0 -0.89,-0.29 -1.01,-0.8 1.15,0.07 2.84,-0.68 3.31,-1.98 0.49,-1.35 -0.23,-2.57 -1.52,-2.51 -1.8,0 -3.18,1.71 -3.56,3.61 -0.38,1.88 0.34,3.39 2.15,3.27 1.69,0 2.75,-2.17 2.28,-2.45 -0.42,0.48 -0.92,0.84 -1.63,0.85zm0.44 -3.92c0.28,0 0.45,0.16 0.45,0.53 0,0.95 -1.17,1.27 -1.82,1.38 0.21,-0.72 0.69,-1.9 1.37,-1.91zm8.38 0.68c-0.38,1.54 -0.97,2.62 -0.98,3.71 -0.01,1.21 0.87,1.46 1.87,0.91 -0.45,-1.48 1.51,-4.91 1.2,-6.18 -0.13,-0.54 -0.79,-0.65 -1.47,-0.23 -0.56,0.34 -1.21,0.82 -1.84,1.56 0.09,-0.4 0.14,-0.76 0.09,-1.03 -0.08,-0.44 -0.74,-0.76 -1.56,-0.8 0.02,1.47 -1.38,4.37 -1.39,5.75 -0.01,1.19 0.87,1.45 1.87,0.91 -0.17,-0.56 -0.07,-1.38 0.2,-2.17 0.63,-1.82 2.19,-3.14 2.01,-2.45zm5.34 3.71c-0.01,1.21 0.87,1.45 1.87,0.91 -0.45,-1.5 1.3,-4.57 1.07,-5.87 -0.07,-0.44 -0.74,-0.76 -1.55,-0.8 -0.01,0.24 -0.06,0.56 -0.14,0.9 -0.21,-0.66 -0.63,-0.89 -1.23,-0.89 -1.49,0 -2.84,1.74 -3.22,3.61 -0.38,1.87 0.16,3.35 1.39,3.29 0.66,-0.03 1.3,-0.78 1.87,-1.78 -0.04,0.24 -0.07,0.44 -0.07,0.62zm0.21 -4.39c0.56,0 0.79,0.36 0.57,0.97 -0.55,1.39 -1.33,2.74 -1.81,2.74 -0.45,0 -0.53,-0.84 -0.36,-1.64 0.19,-0.9 0.84,-2.06 1.6,-2.07zm2.51 -3.94c-1.18,1.74 -1.98,-1.27 -3.05,0.48 -0.32,0.53 -0.47,1.79 -0.2,1.56 1.05,-1.88 1.77,1.22 2.92,-0.52 0.65,-0.98 0.54,-1.86 0.33,-1.52zm2.29 8.11c-0.55,0 -0.45,-1.37 -0.13,-2.31 0.25,-0.7 0.88,-1.86 1.48,-1.87 0.55,0 0.45,1.31 0.12,2.27 -0.24,0.69 -0.87,1.9 -1.47,1.91zm-0.34 1.35c1.81,0 3.28,-1.75 3.66,-3.62 0.38,-1.87 -0.35,-3.33 -1.62,-3.26 -1.8,0 -3.28,1.71 -3.66,3.61 -0.38,1.88 0.29,3.37 1.62,3.27zm9.25 -1.6c-0.55,0 -0.89,-0.29 -1.01,-0.8 1.15,0.07 2.84,-0.68 3.31,-1.98 0.49,-1.35 -0.23,-2.57 -1.52,-2.51 -1.8,0 -3.18,1.71 -3.56,3.61 -0.38,1.88 0.34,3.39 2.15,3.27 1.69,0 2.75,-2.17 2.28,-2.45 -0.42,0.48 -0.92,0.84 -1.63,0.85zm0.44 -3.92c0.28,0 0.45,0.16 0.45,0.53 0,0.95 -1.17,1.27 -1.82,1.38 0.21,-0.72 0.69,-1.9 1.37,-1.91zm0.72 -5.05c-0.89,0.84 -2,2.31 -2.09,2.72 0.1,0.2 0.38,0.54 0.82,0.49 0.54,-0.05 1.42,-0.82 2.22,-1.67 0.37,-0.4 -0.62,-1.44 -0.94,-1.54zm7.04 9.44c-0.01,1.21 0.87,1.45 1.87,0.91 -0.45,-1.5 1.3,-4.57 1.07,-5.87 -0.07,-0.44 -0.74,-0.76 -1.55,-0.8 -0.01,0.24 -0.06,0.56 -0.14,0.9 -0.21,-0.66 -0.63,-0.89 -1.23,-0.89 -1.49,0 -2.84,1.74 -3.22,3.61 -0.38,1.87 0.16,3.35 1.39,3.29 0.66,-0.03 1.3,-0.78 1.87,-1.78 -0.04,0.24 -0.07,0.44 -0.07,0.62zm0.21 -4.39c0.56,0 0.79,0.36 0.57,0.97 -0.55,1.39 -1.33,2.74 -1.81,2.74 -0.45,0 -0.53,-0.84 -0.36,-1.64 0.19,-0.9 0.84,-2.06 1.6,-2.07zm-100.61 17.65c-0.01,1.21 0.87,1.45 1.87,0.91 -0.45,-1.5 1.3,-4.57 1.07,-5.87 -0.07,-0.44 -0.74,-0.76 -1.55,-0.8 -0.01,0.24 -0.06,0.56 -0.14,0.9 -0.21,-0.66 -0.63,-0.89 -1.23,-0.89 -1.49,0 -2.84,1.74 -3.22,3.61 -0.38,1.87 0.16,3.35 1.39,3.29 0.66,-0.03 1.3,-0.78 1.87,-1.78 -0.04,0.24 -0.07,0.44 -0.07,0.62zm0.21 -4.39c0.56,0 0.79,0.36 0.57,0.97 -0.55,1.39 -1.33,2.74 -1.81,2.74 -0.45,0 -0.53,-0.84 -0.36,-1.64 0.19,-0.9 0.84,-2.05 1.6,-2.07zm2.57 4.02c-0.01,0.97 0.49,1.54 1.24,1.54 0.64,0 1.26,-0.72 1.83,-1.79 -0.04,0.23 -0.07,0.44 -0.07,0.62 -0.01,1.19 0.87,1.45 1.87,0.91 -0.45,-1.5 1.31,-4.57 1.08,-5.87 -0.07,-0.44 -0.74,-0.76 -1.56,-0.8 -0.14,1.55 -1.29,4.92 -2.39,4.92 -0.54,0 0.87,-2.25 0.88,-3.75 0.01,-1.21 -0.87,-1.46 -1.87,-0.91 0.45,1.48 -1.01,3.67 -1.02,5.13zm7.59 -1.25c0.82,0.48 0.69,0.93 0.58,1.17 -0.12,0.24 -0.4,0.48 -0.7,0.29 -0.36,-0.21 -0.35,-0.69 -0.29,-1.21 0.02,-0.12 -1.12,-0.3 -1.49,0.68 -0.41,1.1 0.5,1.84 1.71,1.88 1.12,0.04 1.98,-0.34 2.54,-1.26 0.6,-1.01 0.37,-2.11 -0.85,-2.9 -0.32,-0.21 -0.96,-0.5 -0.77,-1.13 0.1,-0.33 0.34,-0.46 0.62,-0.44 0.59,0.04 0.61,0.58 0.55,1.1 -0.01,0.12 0.97,0.19 1.25,-0.8 0.26,-0.94 -0.41,-1.6 -1.63,-1.5 -1.31,0.11 -2.03,0.62 -2.39,1.42 -0.46,1.05 -0.1,2.15 0.87,2.69zm5.9 1.15c-0.55,0 -0.89,-0.29 -1.01,-0.8 1.15,0.07 2.84,-0.68 3.31,-1.98 0.49,-1.35 -0.23,-2.57 -1.52,-2.51 -1.8,0 -3.18,1.71 -3.56,3.61 -0.38,1.88 0.34,3.39 2.15,3.27 1.69,0 2.75,-2.17 2.28,-2.45 -0.42,0.48 -0.92,0.84 -1.63,0.85zm0.44 -3.92c0.28,0 0.45,0.16 0.45,0.53 0,0.95 -1.17,1.27 -1.82,1.38 0.21,-0.72 0.69,-1.9 1.37,-1.91zm1.75 -2.36c-0.42,-0.68 -0.71,-1.26 -1.01,-1.99 -0.12,-0.23 -0.43,-0.34 -0.56,-0.33 -0.59,1.06 -1.04,1.55 -1.95,2.39 -0.06,0.09 0.66,0.65 1.1,0.4 0.33,-0.2 0.63,-0.53 0.92,-1.03 0.1,0.3 0.26,0.62 0.49,1.1 0.01,0.08 1.31,-0.04 1.01,-0.53zm4.12 3.04c-0.38,1.54 -0.97,2.62 -0.98,3.71 -0.01,1.21 0.87,1.46 1.87,0.91 -0.45,-1.48 1.51,-4.91 1.2,-6.18 -0.13,-0.54 -0.79,-0.65 -1.47,-0.23 -0.56,0.34 -1.21,0.82 -1.84,1.56 0.09,-0.4 0.14,-0.76 0.09,-1.03 -0.08,-0.44 -0.74,-0.76 -1.56,-0.8 0.02,1.47 -1.38,4.37 -1.39,5.75 -0.01,1.19 0.87,1.45 1.87,0.91 -0.17,-0.56 -0.07,-1.38 0.2,-2.17 0.63,-1.82 2.19,-3.14 2.01,-2.45zm7.2 0.48c0.49,-1.35 -0.33,-2.56 -1.42,-2.51 -1.8,0 -3.28,1.71 -3.66,3.61 -0.38,1.88 0.46,3.41 2.15,3.27 1.69,-0.13 2.71,-2.17 2.24,-2.45 -0.42,0.48 -0.77,0.84 -1.59,0.85 -0.96,0 -1.3,-0.91 -0.86,-2.25 0.23,-0.69 0.79,-1.66 1.39,-1.67 0.61,0 0.2,1.47 0.14,1.99 -0.01,0.12 1.28,0.11 1.62,-0.84zm1.33 -2.52c0.02,1.47 -1.38,4.37 -1.39,5.75 -0.01,1.19 0.87,1.45 1.87,0.91 -0.45,-1.5 1.3,-4.57 1.08,-5.87 -0.08,-0.44 -0.74,-0.76 -1.56,-0.8zm2.02 -2.84c-0.48,-0.37 -1.05,-0.17 -1.43,0.48 -0.38,0.65 -0.33,1.33 0.15,1.7 0.47,0.36 1.04,0.16 1.42,-0.49 0.38,-0.65 0.33,-1.33 -0.14,-1.68zm2.81 8.59c-0.01,1.21 0.87,1.45 1.87,0.91 -0.45,-1.5 1.3,-4.57 1.07,-5.87 -0.07,-0.44 -0.74,-0.76 -1.55,-0.8 -0.01,0.24 -0.06,0.56 -0.14,0.9 -0.21,-0.66 -0.63,-0.89 -1.23,-0.89 -1.49,0 -2.84,1.74 -3.22,3.61 -0.38,1.87 0.16,3.35 1.39,3.29 0.66,-0.03 1.3,-0.78 1.87,-1.78 -0.04,0.24 -0.07,0.44 -0.07,0.62zm0.21 -4.39c0.56,0 0.79,0.36 0.57,0.97 -0.55,1.39 -1.33,2.74 -1.81,2.74 -0.45,0 -0.53,-0.84 -0.36,-1.64 0.19,-0.9 0.84,-2.05 1.6,-2.07zm8.57 3.75c-0.05,0.25 -0.08,0.48 -0.08,0.64 -0.01,1.21 0.87,1.45 1.87,0.91 -0.45,-1.5 1.99,-7.08 1.77,-8.38 -0.08,-0.44 -0.74,-0.76 -1.56,-0.8 0.01,0.64 -0.37,1.99 -0.81,3.45 -0.21,-0.7 -0.64,-0.93 -1.25,-0.93 -1.49,0 -2.84,1.74 -3.22,3.61 -0.38,1.87 0.17,3.35 1.39,3.29 0.66,-0.03 1.31,-0.8 1.88,-1.79zm0.13 -3.75c0.5,0 0.74,0.29 0.62,0.8 -0.58,1.45 -1.36,2.92 -1.86,2.92 -0.45,0 -0.53,-0.84 -0.36,-1.64 0.2,-0.9 0.84,-2.05 1.6,-2.07zm5.57 3.92c-0.55,0 -0.89,-0.29 -1.01,-0.8 1.15,0.07 2.84,-0.68 3.31,-1.98 0.49,-1.35 -0.23,-2.57 -1.52,-2.51 -1.8,0 -3.18,1.71 -3.56,3.61 -0.38,1.88 0.34,3.39 2.15,3.27 1.69,0 2.75,-2.17 2.28,-2.45 -0.42,0.48 -0.92,0.84 -1.63,0.85zm0.44 -3.92c0.28,0 0.45,0.16 0.45,0.53 0,0.95 -1.17,1.27 -1.82,1.38 0.21,-0.72 0.69,-1.9 1.37,-1.91zm9.61 1.15c0.49,-1.35 -0.33,-2.56 -1.42,-2.51 -1.8,0 -3.28,1.71 -3.66,3.61 -0.38,1.88 0.46,3.41 2.15,3.27 1.69,-0.13 2.71,-2.17 2.24,-2.45 -0.42,0.48 -0.77,0.84 -1.59,0.85 -0.96,0 -1.3,-0.91 -0.86,-2.25 0.23,-0.69 0.79,-1.66 1.39,-1.67 0.61,0 0.2,1.47 0.14,1.99 -0.01,0.12 1.28,0.11 1.62,-0.84zm2.15 3.02c-0.55,0 -0.45,-1.37 -0.13,-2.31 0.25,-0.7 0.88,-1.86 1.48,-1.87 0.55,0 0.45,1.31 0.12,2.27 -0.24,0.69 -0.87,1.9 -1.47,1.91zm-0.34 1.35c1.81,0 3.28,-1.75 3.66,-3.62 0.38,-1.87 -0.35,-3.33 -1.62,-3.26 -1.8,0 -3.28,1.71 -3.66,3.61 -0.38,1.88 0.29,3.37 1.62,3.27zm7.8 -4.85c-0.38,1.54 -0.97,2.62 -0.98,3.71 -0.01,1.21 0.87,1.46 1.87,0.91 -0.45,-1.48 1.51,-4.91 1.2,-6.18 -0.13,-0.54 -0.79,-0.65 -1.47,-0.23 -0.56,0.34 -1.21,0.82 -1.84,1.56 0.09,-0.4 0.14,-0.76 0.09,-1.03 -0.08,-0.44 -0.74,-0.76 -1.56,-0.8 0.02,1.47 -1.38,4.37 -1.39,5.75 -0.01,1.19 0.87,1.45 1.87,0.91 -0.17,-0.56 -0.07,-1.38 0.2,-2.17 0.63,-1.82 2.19,-3.14 2.01,-2.45zm3.66 -1.9c-0.01,0.05 -0.02,0.11 -0.04,0.16 -0.14,0 -0.28,0.01 -0.44,0.03 -0.66,0.07 -0.84,1.09 -0.68,1.35 0.27,-0.03 0.52,-0.05 0.75,-0.05 -0.53,1.76 -1.11,3.37 -1.12,4.12 -0.01,1.19 0.87,1.45 1.87,0.91 -0.28,-0.93 0.45,-2.92 1.04,-4.93 0.28,0.01 0.57,0 0.9,-0.05 0.5,-0.07 0.7,-0.91 0.49,-1.35 -0.39,0.09 -0.73,0.11 -1.03,0.11 0.16,-0.61 0.68,-2.37 1.62,-2.37 0.66,0 0.86,0.66 0.77,1.18 -0.52,2.59 -1.73,5.41 -1.74,6.51 -0.01,1.19 0.87,1.45 1.87,0.91 -0.45,-1.5 1.74,-5.81 1.72,-8.46 0,-0.86 -0.78,-1.51 -2.46,-1.51 -2.32,0 -3.19,2.08 -3.54,3.45zm6.61 -0.15c0.02,1.47 -1.38,4.37 -1.39,5.75 -0.01,1.19 0.87,1.45 1.87,0.91 -0.45,-1.5 1.3,-4.57 1.08,-5.87 -0.08,-0.44 -0.74,-0.76 -1.56,-0.8zm2.02 -2.84c-0.48,-0.37 -1.05,-0.17 -1.43,0.48 -0.38,0.65 -0.33,1.33 0.15,1.7 0.47,0.36 1.04,0.16 1.42,-0.49 0.38,-0.65 0.33,-1.33 -0.14,-1.68zm-0.18 8.38c-0.01,0.99 0.47,1.52 1.01,1.67 0.51,0.13 1.54,-0.15 1.9,-1.01 0.17,-0.4 0.08,-0.56 0.03,-0.53 -0.27,0.24 -0.96,0.42 -1.01,-0.3 -0.06,-1.01 0.49,-2.25 0.92,-3.63 0.2,0 0.43,-0.01 0.68,-0.05 0.5,-0.07 0.7,-0.91 0.49,-1.35 -0.32,0.07 -0.59,0.11 -0.83,0.11 0.09,-0.48 0.15,-0.95 0.15,-1.45 -0.01,-0.44 -0.79,-0.82 -1.61,-0.86 -0.02,0.77 -0.13,1.5 -0.29,2.17 -0.14,0 -0.3,0.01 -0.47,0.03 -0.66,0.07 -0.84,1.09 -0.67,1.35 0.29,-0.04 0.55,-0.05 0.78,-0.05 -0.48,1.55 -1.07,2.85 -1.08,3.91zm5.8 0c-0.55,0 -0.45,-1.37 -0.13,-2.31 0.25,-0.7 0.88,-1.86 1.48,-1.87 0.55,0 0.45,1.31 0.12,2.27 -0.24,0.69 -0.87,1.9 -1.47,1.91zm-0.34 1.35c1.81,0 3.28,-1.75 3.66,-3.62 0.38,-1.87 -0.35,-3.33 -1.62,-3.26 -1.8,0 -3.28,1.71 -3.66,3.61 -0.38,1.88 0.29,3.37 1.62,3.27zm4.91 -2.05c-0.11,1.17 -0.71,2.89 -1,3.1 -0.02,0.42 0.61,0.56 1.02,0.37 0.67,-0.29 1.53,-1.7 1.59,-2.56 -0.33,-0.7 -1.61,-1.07 -1.61,-0.91zm8.66 -2.8c-0.38,1.54 -0.87,2.62 -0.88,3.71 -0.01,1.21 0.87,1.46 1.87,0.91 -0.05,-0.17 -0.07,-0.37 -0.07,-0.58 0.04,-2.09 2.32,-4.96 2.08,-4.04 -0.39,1.54 -0.88,2.62 -0.88,3.71 -0.01,1.21 0.87,1.46 1.87,0.91 -0.45,-1.48 1.4,-4.91 1.1,-6.18 -0.13,-0.54 -0.79,-0.65 -1.48,-0.23 -0.54,0.33 -1.1,0.8 -1.62,1.52 0.12,-0.53 0.18,-0.98 0.1,-1.3 -0.13,-0.54 -0.79,-0.65 -1.47,-0.23 -0.52,0.32 -1.06,0.76 -1.57,1.43 0.07,-0.34 0.1,-0.66 0.06,-0.9 -0.08,-0.44 -0.74,-0.76 -1.56,-0.8 0.02,1.47 -1.38,4.37 -1.39,5.75 -0.01,1.19 0.87,1.45 1.87,0.91 -0.11,-0.38 -0.09,-0.86 0.01,-1.39 0.47,-1.94 2.17,-4.03 1.96,-3.23zm8.36 3.71c-0.01,1.21 0.87,1.45 1.87,0.91 -0.45,-1.5 1.3,-4.57 1.07,-5.87 -0.07,-0.44 -0.74,-0.76 -1.55,-0.8 -0.01,0.24 -0.06,0.56 -0.14,0.9 -0.21,-0.66 -0.63,-0.89 -1.23,-0.89 -1.49,0 -2.84,1.74 -3.22,3.61 -0.38,1.87 0.16,3.35 1.39,3.29 0.66,-0.03 1.3,-0.78 1.87,-1.78 -0.04,0.24 -0.07,0.44 -0.07,0.62zm0.21 -4.39c0.56,0 0.79,0.36 0.57,0.97 -0.55,1.39 -1.33,2.74 -1.81,2.74 -0.45,0 -0.53,-0.84 -0.36,-1.64 0.19,-0.9 0.84,-2.05 1.6,-2.07zm4.42 2.77c0.82,0.48 0.69,0.93 0.58,1.17 -0.12,0.24 -0.4,0.48 -0.7,0.29 -0.36,-0.21 -0.35,-0.69 -0.29,-1.21 0.02,-0.12 -1.12,-0.3 -1.49,0.68 -0.41,1.1 0.5,1.84 1.71,1.88 1.12,0.04 1.98,-0.34 2.54,-1.26 0.6,-1.01 0.37,-2.11 -0.85,-2.9 -0.32,-0.21 -0.96,-0.5 -0.77,-1.13 0.1,-0.33 0.34,-0.46 0.62,-0.44 0.59,0.04 0.61,0.58 0.55,1.1 -0.01,0.12 0.97,0.19 1.25,-0.8 0.26,-0.94 -0.41,-1.6 -1.63,-1.5 -1.31,0.11 -2.04,0.62 -2.39,1.42 -0.46,1.05 -0.1,2.15 0.87,2.69zm-129.61 14.87c-0.01,1.21 0.87,1.45 1.87,0.91 -0.45,-1.5 1.3,-4.57 1.07,-5.87 -0.07,-0.44 -0.74,-0.76 -1.55,-0.8 -0.01,0.24 -0.06,0.56 -0.14,0.9 -0.21,-0.66 -0.63,-0.89 -1.23,-0.89 -1.49,0 -2.84,1.74 -3.22,3.61 -0.38,1.87 0.16,3.35 1.39,3.29 0.66,-0.03 1.3,-0.78 1.87,-1.78 -0.04,0.24 -0.07,0.44 -0.07,0.62zm0.21 -4.39c0.56,0 0.79,0.36 0.57,0.97 -0.55,1.39 -1.33,2.74 -1.81,2.74 -0.45,0 -0.53,-0.84 -0.36,-1.64 0.19,-0.9 0.84,-2.05 1.6,-2.07zm9.27 0.68c-0.38,1.54 -0.87,2.62 -0.88,3.71 -0.01,1.21 0.87,1.46 1.87,0.91 -0.45,-1.48 1.41,-4.91 1.1,-6.18 -0.13,-0.54 -0.79,-0.65 -1.47,-0.23 -0.61,0.37 -1.33,0.9 -2,1.78 0.41,-1.37 0.78,-2.74 0.78,-3.84 0,-0.53 -0.79,-0.82 -1.61,-0.86 -0.07,2.93 -1.97,7.04 -1.98,8.42 -0.01,1.19 0.87,1.45 1.87,0.91 -0.11,-0.36 -0.07,-0.87 0.06,-1.5 0.57,-1.91 2.47,-3.91 2.27,-3.13zm5.34 3.71c-0.01,1.21 0.87,1.45 1.87,0.91 -0.45,-1.5 1.3,-4.57 1.07,-5.87 -0.07,-0.44 -0.74,-0.76 -1.55,-0.8 -0.01,0.24 -0.06,0.56 -0.14,0.9 -0.21,-0.66 -0.63,-0.89 -1.23,-0.89 -1.49,0 -2.84,1.74 -3.22,3.61 -0.38,1.87 0.16,3.35 1.39,3.29 0.66,-0.03 1.3,-0.78 1.87,-1.78 -0.04,0.24 -0.07,0.44 -0.07,0.62zm0.21 -4.39c0.56,0 0.79,0.36 0.57,0.97 -0.55,1.39 -1.33,2.74 -1.81,2.74 -0.45,0 -0.53,-0.84 -0.36,-1.64 0.19,-0.9 0.84,-2.05 1.6,-2.07zm5.03 4.18c-0.52,0 -0.38,-1.01 -0.31,-1.46 0.26,-1.3 1.21,-2.7 1.78,-2.72 0.56,0 0.33,1.41 0,2.33 -0.24,0.7 -0.87,1.83 -1.47,1.84zm-0.56 -8.22c0.03,1.47 -1.64,5.67 -1.65,7.05 -0.04,1.52 0.48,2.48 1.66,2.52 0.07,0 0.14,0 0.21,0 1.81,0 3.39,-1.68 3.77,-3.55 0.38,-1.87 -0.12,-3.39 -1.34,-3.33 -0.59,0 -1.1,0.24 -1.52,0.61 0.31,-1.07 0.54,-1.96 0.46,-2.43 -0.07,-0.44 -0.76,-0.84 -1.58,-0.88zm5.47 2.68c0.02,1.47 -1.38,4.37 -1.39,5.75 -0.01,1.19 0.87,1.45 1.87,0.91 -0.45,-1.5 1.3,-4.57 1.08,-5.87 -0.08,-0.44 -0.74,-0.76 -1.56,-0.8zm2.03 -2.84c-0.48,-0.37 -1.05,-0.17 -1.43,0.48 -0.38,0.65 -0.33,1.33 0.15,1.7 0.47,0.36 1.04,0.16 1.42,-0.49 0.38,-0.65 0.33,-1.33 -0.14,-1.68zm1.34 0.17c-0.07,2.93 -1.97,7.04 -1.98,8.42 -0.01,1.19 0.87,1.45 1.87,0.91 -0.45,-1.5 1.75,-5.83 1.72,-8.47 0,-0.44 -0.79,-0.82 -1.61,-0.86zm2.23 2.66c0.02,1.47 -1.38,4.37 -1.39,5.75 -0.01,1.19 0.87,1.45 1.87,0.91 -0.45,-1.5 1.3,-4.57 1.08,-5.87 -0.08,-0.44 -0.74,-0.76 -1.56,-0.8zm2.03 -2.84c-0.48,-0.37 -1.05,-0.17 -1.43,0.48 -0.38,0.65 -0.33,1.33 0.15,1.7 0.47,0.36 1.04,0.16 1.42,-0.49 0.38,-0.65 0.33,-1.33 -0.14,-1.68z"/>
   <path class="fil0" d="M38.75 35.32c-0.05,0.25 -0.08,0.48 -0.08,0.64 -0.01,1.21 0.87,1.45 1.87,0.91 -0.45,-1.5 1.99,-7.08 1.77,-8.38 -0.08,-0.44 -0.74,-0.76 -1.56,-0.8 0.01,0.64 -0.37,1.99 -0.81,3.45 -0.21,-0.7 -0.64,-0.93 -1.25,-0.93 -1.49,0 -2.84,1.74 -3.22,3.61 -0.38,1.87 0.17,3.35 1.39,3.29 0.66,-0.03 1.31,-0.8 1.88,-1.79zm0.13 -3.75c0.5,0 0.74,0.29 0.62,0.8 -0.58,1.44 -1.36,2.92 -1.86,2.92 -0.45,0 -0.53,-0.84 -0.36,-1.64 0.2,-0.9 0.84,-2.05 1.6,-2.07zm6 4.39c-0.01,1.21 0.87,1.45 1.87,0.91 -0.45,-1.5 1.3,-4.57 1.07,-5.87 -0.07,-0.44 -0.74,-0.76 -1.55,-0.8 -0.01,0.24 -0.06,0.56 -0.14,0.9 -0.21,-0.66 -0.63,-0.89 -1.23,-0.89 -1.49,0 -2.84,1.74 -3.22,3.61 -0.38,1.87 0.16,3.35 1.39,3.29 0.66,-0.03 1.3,-0.78 1.87,-1.78 -0.04,0.24 -0.07,0.44 -0.07,0.62zm0.21 -4.39c0.56,0 0.79,0.36 0.57,0.97 -0.55,1.39 -1.33,2.74 -1.81,2.74 -0.45,0 -0.53,-0.84 -0.36,-1.64 0.19,-0.9 0.84,-2.05 1.6,-2.07zm6.06 3.75c-0.05,0.25 -0.08,0.48 -0.08,0.64 -0.01,1.21 0.87,1.45 1.87,0.91 -0.45,-1.5 1.99,-7.08 1.77,-8.38 -0.08,-0.44 -0.74,-0.76 -1.56,-0.8 0.01,0.64 -0.37,1.99 -0.81,3.45 -0.21,-0.7 -0.64,-0.93 -1.25,-0.93 -1.49,0 -2.84,1.74 -3.22,3.61 -0.38,1.87 0.17,3.35 1.39,3.29 0.66,-0.03 1.31,-0.8 1.88,-1.79zm0.13 -3.75c0.5,0 0.74,0.29 0.62,0.8 -0.58,1.44 -1.36,2.92 -1.86,2.92 -0.45,0 -0.53,-0.84 -0.36,-1.64 0.2,-0.9 0.84,-2.05 1.6,-2.07zm5.57 3.92c-0.55,0 -0.89,-0.29 -1.01,-0.8 1.15,0.07 2.84,-0.68 3.31,-1.98 0.49,-1.35 -0.23,-2.57 -1.52,-2.51 -1.8,0 -3.18,1.71 -3.56,3.61 -0.38,1.88 0.34,3.39 2.15,3.27 1.69,0 2.75,-2.17 2.28,-2.45 -0.42,0.48 -0.92,0.84 -1.63,0.85zm0.44 -3.92c0.28,0 0.45,0.16 0.45,0.53 0,0.95 -1.17,1.27 -1.82,1.38 0.21,-0.72 0.69,-1.9 1.37,-1.91zm10.35 1.91c0.38,-1.87 -0.26,-3.33 -1.53,-3.26 -0.52,0 -1.04,0.38 -1.49,1.01 0.02,-0.17 0.02,-0.33 0.02,-0.49 0,-0.44 -0.79,-0.82 -1.61,-0.86 -0.07,2.93 -1.97,7.3 -1.98,8.68 -0.01,1.19 0.87,1.45 1.87,0.91 -0.21,-0.69 0.14,-2.02 0.58,-3.51 0.15,0.7 0.5,1.18 1.07,1.14 1.55,0 2.7,-1.75 3.08,-3.62zm-3.32 2.27c-0.66,0 -0.33,-1.51 -0.2,-2.02 0.26,-0.98 0.83,-2.15 1.55,-2.16 0.54,0 0.45,1.31 0.12,2.27 -0.24,0.69 -0.87,1.9 -1.47,1.91zm6.84 0.21c-0.01,1.21 0.87,1.45 1.87,0.91 -0.45,-1.5 1.3,-4.57 1.07,-5.87 -0.07,-0.44 -0.74,-0.76 -1.55,-0.8 -0.01,0.24 -0.06,0.56 -0.14,0.9 -0.21,-0.66 -0.63,-0.89 -1.23,-0.89 -1.49,0 -2.84,1.74 -3.22,3.61 -0.38,1.87 0.16,3.35 1.39,3.29 0.66,-0.03 1.3,-0.78 1.87,-1.78 -0.04,0.24 -0.07,0.44 -0.07,0.62zm0.21 -4.39c0.56,0 0.79,0.36 0.57,0.97 -0.55,1.39 -1.33,2.74 -1.81,2.74 -0.45,0 -0.53,-0.84 -0.36,-1.64 0.19,-0.9 0.84,-2.05 1.6,-2.07zm5.86 0.64c0.54,0 0.5,1.07 0.5,1.07 -0.01,0.21 1.47,-0.65 1.43,-1.88 -0.02,-0.76 -0.44,-1.22 -1.1,-1.18 -0.46,0 -0.83,0.3 -1.14,0.82 -0.08,-0.44 -0.75,-0.8 -1.57,-0.84 0.02,1.47 -1.38,4.37 -1.39,5.75 -0.01,1.19 0.87,1.45 1.87,0.91 -0.24,-0.81 0.59,-4.64 1.4,-4.67zm4.8 3.75c-0.01,1.21 0.87,1.45 1.87,0.91 -0.45,-1.5 1.3,-4.57 1.07,-5.87 -0.07,-0.44 -0.74,-0.76 -1.55,-0.8 -0.01,0.24 -0.06,0.56 -0.14,0.9 -0.21,-0.66 -0.63,-0.89 -1.23,-0.89 -1.49,0 -2.84,1.74 -3.22,3.61 -0.38,1.87 0.16,3.35 1.39,3.29 0.66,-0.03 1.3,-0.78 1.87,-1.78 -0.04,0.24 -0.07,0.44 -0.07,0.62zm0.21 -4.39c0.56,0 0.79,0.36 0.57,0.97 -0.55,1.39 -1.33,2.74 -1.81,2.74 -0.45,0 -0.53,-0.84 -0.36,-1.64 0.19,-0.9 0.84,-2.05 1.6,-2.07zm7.08 -4.03c-0.07,2.93 -1.97,7.04 -1.98,8.42 -0.01,1.19 0.87,1.45 1.87,0.91 -0.45,-1.5 1.75,-5.83 1.72,-8.47 0,-0.44 -0.79,-0.82 -1.61,-0.86zm2.23 2.66c0.02,1.47 -1.38,4.37 -1.39,5.75 -0.01,1.19 0.87,1.45 1.87,0.91 -0.45,-1.5 1.3,-4.57 1.08,-5.87 -0.08,-0.44 -0.74,-0.76 -1.56,-0.8zm2.03 -2.84c-0.48,-0.37 -1.05,-0.17 -1.43,0.48 -0.38,0.65 -0.33,1.33 0.15,1.7 0.47,0.36 1.04,0.16 1.42,-0.49 0.38,-0.65 0.33,-1.33 -0.14,-1.68zm2.84 7.95c-0.05,0.25 -0.08,0.48 -0.08,0.64 -0.01,1.21 0.87,1.45 1.87,0.91 -0.45,-1.5 1.99,-7.08 1.77,-8.38 -0.08,-0.44 -0.74,-0.76 -1.56,-0.8 0.01,0.64 -0.37,1.99 -0.81,3.45 -0.21,-0.7 -0.64,-0.93 -1.25,-0.93 -1.49,0 -2.84,1.74 -3.22,3.61 -0.38,1.87 0.17,3.35 1.39,3.29 0.66,-0.03 1.31,-0.8 1.88,-1.79zm0.13 -3.75c0.5,0 0.74,0.29 0.62,0.8 -0.58,1.44 -1.36,2.92 -1.86,2.92 -0.45,0 -0.53,-0.84 -0.36,-1.64 0.2,-0.9 0.84,-2.05 1.6,-2.07zm6 4.39c-0.01,1.21 0.87,1.45 1.87,0.91 -0.45,-1.5 1.3,-4.57 1.07,-5.87 -0.07,-0.44 -0.74,-0.76 -1.55,-0.8 -0.01,0.24 -0.06,0.56 -0.14,0.9 -0.21,-0.66 -0.63,-0.89 -1.23,-0.89 -1.49,0 -2.84,1.74 -3.22,3.61 -0.38,1.87 0.16,3.35 1.39,3.29 0.66,-0.03 1.3,-0.78 1.87,-1.78 -0.04,0.24 -0.07,0.44 -0.07,0.62zm0.21 -4.39c0.56,0 0.79,0.36 0.57,0.97 -0.55,1.39 -1.33,2.74 -1.81,2.74 -0.45,0 -0.53,-0.84 -0.36,-1.64 0.19,-0.9 0.84,-2.05 1.6,-2.07zm5.86 0.64c0.54,0 0.5,1.07 0.5,1.07 -0.01,0.21 1.47,-0.65 1.43,-1.88 -0.02,-0.76 -0.44,-1.22 -1.1,-1.18 -0.46,0 -0.83,0.3 -1.14,0.82 -0.08,-0.44 -0.75,-0.8 -1.57,-0.84 0.02,1.47 -1.38,4.37 -1.39,5.75 -0.01,1.19 0.87,1.45 1.87,0.91 -0.24,-0.81 0.59,-4.64 1.4,-4.67zm9.16 0.52c0.49,-1.35 -0.33,-2.56 -1.42,-2.51 -1.8,0 -3.28,1.71 -3.66,3.61 -0.38,1.88 0.46,3.41 2.15,3.27 1.69,-0.13 2.71,-2.17 2.24,-2.45 -0.42,0.48 -0.77,0.84 -1.59,0.85 -0.96,0 -1.3,-0.91 -0.86,-2.25 0.23,-0.69 0.79,-1.66 1.39,-1.67 0.61,0 0.2,1.47 0.14,1.99 -0.01,0.12 1.28,0.11 1.62,-0.84zm2.15 3.02c-0.55,0 -0.45,-1.37 -0.13,-2.31 0.25,-0.7 0.88,-1.86 1.48,-1.87 0.55,0 0.45,1.31 0.12,2.27 -0.24,0.69 -0.87,1.9 -1.47,1.91zm-0.34 1.35c1.81,0 3.28,-1.75 3.66,-3.62 0.38,-1.87 -0.35,-3.33 -1.62,-3.26 -1.8,0 -3.28,1.71 -3.66,3.61 -0.38,1.88 0.29,3.37 1.62,3.27zm7.56 -4.85c-0.38,1.54 -0.87,2.62 -0.88,3.71 -0.01,1.21 0.87,1.46 1.87,0.91 -0.05,-0.17 -0.07,-0.37 -0.07,-0.58 0.04,-2.09 2.32,-4.96 2.08,-4.04 -0.39,1.54 -0.88,2.62 -0.88,3.71 -0.01,1.21 0.87,1.46 1.87,0.91 -0.45,-1.48 1.4,-4.91 1.1,-6.18 -0.13,-0.54 -0.79,-0.65 -1.48,-0.23 -0.54,0.33 -1.1,0.8 -1.62,1.52 0.12,-0.53 0.18,-0.98 0.1,-1.3 -0.13,-0.54 -0.79,-0.65 -1.47,-0.23 -0.52,0.32 -1.06,0.76 -1.57,1.43 0.07,-0.34 0.1,-0.66 0.06,-0.9 -0.08,-0.44 -0.74,-0.76 -1.56,-0.8 0.02,1.47 -1.38,4.37 -1.39,5.75 -0.01,1.19 0.87,1.45 1.87,0.91 -0.11,-0.38 -0.09,-0.86 0.01,-1.39 0.47,-1.94 2.17,-4.03 1.96,-3.23zm10.44 3.25c-0.55,0 -0.89,-0.29 -1.01,-0.8 1.15,0.07 2.84,-0.68 3.31,-1.98 0.49,-1.35 -0.23,-2.57 -1.52,-2.51 -1.8,0 -3.18,1.71 -3.56,3.61 -0.38,1.88 0.34,3.39 2.15,3.27 1.69,0 2.75,-2.17 2.28,-2.45 -0.42,0.48 -0.92,0.84 -1.63,0.85zm0.44 -3.92c0.28,0 0.45,0.16 0.45,0.53 0,0.95 -1.17,1.27 -1.82,1.38 0.21,-0.72 0.69,-1.9 1.37,-1.91zm3.79 -4.03c-0.07,2.93 -1.97,7.04 -1.98,8.42 -0.01,1.19 0.87,1.45 1.87,0.91 -0.45,-1.5 1.75,-5.83 1.72,-8.47 0,-0.44 -0.79,-0.82 -1.61,-0.86zm3.85 7.95c-0.55,0 -0.89,-0.29 -1.01,-0.8 1.15,0.07 2.84,-0.68 3.31,-1.98 0.49,-1.35 -0.23,-2.57 -1.52,-2.51 -1.8,0 -3.18,1.71 -3.56,3.61 -0.38,1.88 0.34,3.39 2.15,3.27 1.69,0 2.75,-2.17 2.28,-2.45 -0.42,0.48 -0.92,0.84 -1.63,0.85zm0.44 -3.92c0.28,0 0.45,0.16 0.45,0.53 0,0.95 -1.17,1.27 -1.82,1.38 0.21,-0.72 0.69,-1.9 1.37,-1.91zm4.07 3.17c-0.48,-0.37 -1.04,-0.17 -1.43,0.48 -0.38,0.65 -0.33,1.39 0.15,1.76 0.47,0.36 1.04,0.16 1.42,-0.49 0.38,-0.65 0.33,-1.39 -0.14,-1.75zm-108.58 19.71c-0.03,1.19 -0.33,2.28 -0.71,3.58 -0.51,1.58 -1.46,3.61 -2.35,3.61 -0.43,0 -0.28,-0.73 -0.18,-1.11 0.44,-1.76 1.53,-3.61 1.15,-5.21 -0.16,-0.68 -1.1,-1.17 -1.92,-0.7 0.19,2.03 -0.58,3.65 -1.3,6.23 -0.43,1.58 0.26,2.84 1.21,2.78 0.85,-0.04 1.58,-0.65 2.18,-1.45 -0.02,0.11 -0.03,0.2 -0.03,0.29 -0.01,1.19 0.87,1.45 1.87,0.91 -0.45,-1.5 1.73,-5.38 1.69,-8.07 0,-0.56 -0.79,-0.82 -1.61,-0.86zm4.64 4.31c-0.38,1.54 -0.87,2.62 -0.88,3.71 -0.01,1.21 0.87,1.46 1.87,0.91 -0.05,-0.17 -0.07,-0.37 -0.07,-0.58 0.04,-2.09 2.32,-4.96 2.09,-4.04 -0.39,1.54 -0.88,2.62 -0.88,3.71 -0.01,1.21 0.87,1.46 1.87,0.91 -0.45,-1.48 1.4,-4.91 1.1,-6.18 -0.13,-0.54 -0.79,-0.65 -1.48,-0.23 -0.54,0.33 -1.1,0.8 -1.62,1.52 0.12,-0.53 0.18,-0.98 0.1,-1.3 -0.13,-0.54 -0.79,-0.65 -1.47,-0.23 -0.52,0.32 -1.06,0.76 -1.57,1.43 0.07,-0.34 0.1,-0.66 0.06,-0.9 -0.08,-0.44 -0.74,-0.76 -1.56,-0.8 0.02,1.47 -1.38,4.37 -1.39,5.75 -0.01,1.19 0.87,1.45 1.87,0.91 -0.11,-0.38 -0.09,-0.86 0.01,-1.39 0.47,-1.94 2.17,-4.03 1.96,-3.23zm8.36 3.71c-0.01,1.21 0.87,1.45 1.87,0.91 -0.45,-1.5 1.3,-4.57 1.07,-5.87 -0.07,-0.44 -0.74,-0.76 -1.55,-0.8 -0.01,0.24 -0.06,0.56 -0.14,0.9 -0.21,-0.66 -0.63,-0.89 -1.23,-0.89 -1.49,0 -2.84,1.74 -3.22,3.61 -0.38,1.87 0.16,3.35 1.39,3.29 0.66,-0.03 1.3,-0.78 1.87,-1.78 -0.04,0.24 -0.07,0.44 -0.07,0.62zm0.21 -4.39c0.56,0 0.79,0.36 0.57,0.97 -0.55,1.39 -1.33,2.74 -1.81,2.74 -0.45,0 -0.53,-0.84 -0.36,-1.64 0.19,-0.9 0.84,-2.05 1.6,-2.07zm11.13 1.91c0.38,-1.87 -0.26,-3.33 -1.53,-3.26 -0.52,0 -1.04,0.38 -1.49,1.01 0.02,-0.17 0.02,-0.33 0.02,-0.49 0,-0.44 -0.79,-0.82 -1.61,-0.86 -0.07,2.93 -1.97,7.3 -1.98,8.68 -0.01,1.19 0.87,1.45 1.87,0.91 -0.21,-0.69 0.14,-2.02 0.58,-3.51 0.15,0.7 0.5,1.18 1.07,1.14 1.55,0 2.7,-1.75 3.08,-3.62zm-3.32 2.27c-0.66,0 -0.33,-1.51 -0.2,-2.01 0.26,-0.98 0.83,-2.15 1.55,-2.16 0.54,0 0.45,1.31 0.12,2.27 -0.24,0.69 -0.87,1.9 -1.47,1.91zm6.41 -0.25c-0.55,0 -0.89,-0.29 -1.01,-0.8 1.15,0.07 2.84,-0.68 3.31,-1.98 0.49,-1.35 -0.23,-2.57 -1.52,-2.51 -1.8,0 -3.18,1.71 -3.56,3.61 -0.38,1.88 0.34,3.39 2.15,3.27 1.69,0 2.75,-2.17 2.28,-2.45 -0.42,0.48 -0.92,0.84 -1.63,0.85zm0.44 -3.92c0.28,0 0.45,0.16 0.45,0.53 0,0.95 -1.17,1.27 -1.82,1.38 0.21,-0.72 0.69,-1.9 1.37,-1.91zm3.64 2.77c0.82,0.48 0.69,0.93 0.58,1.17 -0.12,0.24 -0.4,0.48 -0.7,0.29 -0.36,-0.21 -0.35,-0.69 -0.29,-1.21 0.02,-0.12 -1.12,-0.3 -1.49,0.68 -0.41,1.1 0.5,1.84 1.71,1.88 1.12,0.04 1.98,-0.34 2.54,-1.26 0.6,-1.01 0.37,-2.11 -0.85,-2.9 -0.32,-0.21 -0.96,-0.5 -0.77,-1.13 0.1,-0.33 0.34,-0.46 0.62,-0.44 0.59,0.04 0.61,0.58 0.55,1.1 -0.01,0.12 0.97,0.19 1.25,-0.8 0.26,-0.94 -0.41,-1.6 -1.63,-1.5 -1.31,0.11 -2.04,0.62 -2.39,1.42 -0.46,1.05 -0.1,2.15 0.87,2.69zm4.72 0c0.82,0.48 0.69,0.93 0.58,1.17 -0.12,0.24 -0.4,0.48 -0.7,0.29 -0.36,-0.21 -0.35,-0.69 -0.29,-1.21 0.02,-0.12 -1.12,-0.3 -1.49,0.68 -0.41,1.1 0.5,1.84 1.71,1.88 1.12,0.04 1.98,-0.34 2.54,-1.26 0.6,-1.01 0.37,-2.11 -0.85,-2.9 -0.32,-0.21 -0.96,-0.5 -0.77,-1.13 0.1,-0.33 0.34,-0.46 0.62,-0.44 0.59,0.04 0.61,0.58 0.55,1.1 -0.01,0.12 0.97,0.19 1.25,-0.8 0.26,-0.94 -0.41,-1.6 -1.63,-1.5 -1.31,0.11 -2.04,0.62 -2.39,1.42 -0.46,1.05 -0.1,2.15 0.87,2.69zm5.09 1.41c-0.55,0 -0.45,-1.37 -0.13,-2.31 0.25,-0.7 0.88,-1.86 1.48,-1.87 0.55,0 0.45,1.31 0.12,2.27 -0.24,0.69 -0.87,1.9 -1.47,1.91zm-0.34 1.35c1.81,0 3.28,-1.75 3.66,-3.62 0.38,-1.87 -0.35,-3.33 -1.62,-3.26 -1.8,0 -3.28,1.71 -3.66,3.61 -0.38,1.88 0.29,3.37 1.62,3.27zm7.18 -1.14c-0.01,1.21 0.87,1.45 1.87,0.91 -0.45,-1.5 1.3,-4.57 1.07,-5.87 -0.07,-0.44 -0.74,-0.76 -1.55,-0.8 -0.01,0.24 -0.06,0.56 -0.14,0.9 -0.21,-0.66 -0.63,-0.89 -1.23,-0.89 -1.49,0 -2.84,1.74 -3.22,3.61 -0.38,1.87 0.16,3.35 1.39,3.29 0.66,-0.03 1.3,-0.78 1.87,-1.78 -0.04,0.24 -0.07,0.44 -0.07,0.62zm0.21 -4.39c0.56,0 0.79,0.36 0.57,0.97 -0.55,1.39 -1.33,2.74 -1.81,2.74 -0.45,0 -0.53,-0.84 -0.36,-1.64 0.19,-0.9 0.84,-2.05 1.6,-2.07zm9.74 -4.67c-1.89,0 -2.54,2.08 -2.89,3.45 -0.01,0.05 -0.02,0.11 -0.04,0.16 -0.14,0 -0.28,0.01 -0.44,0.03 -0.66,0.07 -0.84,1.09 -0.68,1.35 0.27,-0.03 0.52,-0.05 0.75,-0.05 -0.53,1.76 -1.11,3.37 -1.12,4.12 -0.01,1.19 0.87,1.45 1.87,0.91 -0.28,-0.93 0.45,-2.92 1.04,-4.93 0.28,0.01 0.57,0 0.9,-0.05 0.5,-0.07 0.7,-0.91 0.49,-1.35 -0.4,0.09 -0.73,0.11 -1.03,0.11 0.15,-0.61 0.58,-2.37 1.15,-2.37 0.19,0 0.22,0.65 0.18,1.15 0.11,0.13 1.25,0.25 1.4,-0.99 0.12,-0.91 -0.44,-1.52 -1.59,-1.52zm2.34 8.59c-0.55,0 -0.89,-0.29 -1.01,-0.8 1.15,0.07 2.84,-0.68 3.31,-1.98 0.49,-1.35 -0.23,-2.57 -1.52,-2.51 -1.8,0 -3.18,1.71 -3.56,3.61 -0.38,1.88 0.34,3.39 2.15,3.27 1.69,0 2.75,-2.17 2.28,-2.45 -0.42,0.48 -0.92,0.84 -1.63,0.85zm0.44 -3.92c0.28,0 0.45,0.16 0.45,0.53 0,0.95 -1.17,1.27 -1.82,1.38 0.21,-0.72 0.69,-1.9 1.37,-1.91zm3.79 -4.03c-0.07,2.93 -1.97,7.04 -1.98,8.42 -0.01,1.19 0.87,1.45 1.87,0.91 -0.45,-1.5 1.75,-5.83 1.72,-8.47 0,-0.44 -0.79,-0.82 -1.61,-0.86zm2.23 2.66c0.02,1.47 -1.38,4.37 -1.39,5.75 -0.01,1.19 0.87,1.45 1.87,0.91 -0.45,-1.5 1.3,-4.57 1.08,-5.87 -0.08,-0.44 -0.74,-0.76 -1.56,-0.8zm2.02 -2.84c-0.48,-0.37 -1.05,-0.17 -1.43,0.48 -0.38,0.65 -0.33,1.33 0.15,1.7 0.47,0.36 1.04,0.16 1.42,-0.49 0.38,-0.65 0.33,-1.33 -0.14,-1.68zm1.04 2.97c-0.85,0.36 -1.1,1.63 -0.69,2.37 0.39,-0.42 1.17,-0.93 2.28,-1.02 -0.86,1.05 -1.81,2.8 -3.72,4.48 0,0.74 0.85,1.07 1.44,0.87 1.66,-0.33 2.32,-0.2 3.84,0.08 0.12,-0.6 0.1,-2.16 -0.94,-2.19 -0.37,-0.01 -0.79,0.42 -1.27,0.7 0.92,-1.21 1.62,-2.81 2.98,-4.19 -0.78,-1.22 -3.12,-1.45 -3.91,-1.11zm-93.77 15.17c-0.38,1.54 -0.97,2.62 -0.98,3.71 -0.01,1.21 0.87,1.46 1.87,0.91 -0.45,-1.48 1.51,-4.91 1.2,-6.18 -0.13,-0.54 -0.79,-0.65 -1.47,-0.23 -0.56,0.34 -1.21,0.82 -1.84,1.56 0.09,-0.4 0.14,-0.76 0.09,-1.03 -0.08,-0.44 -0.74,-0.76 -1.56,-0.8 0.02,1.47 -1.38,4.38 -1.39,5.75 -0.01,1.19 0.87,1.45 1.87,0.91 -0.17,-0.56 -0.07,-1.38 0.2,-2.17 0.63,-1.82 2.19,-3.14 2.01,-2.45zm5.34 3.71c-0.01,1.21 0.87,1.45 1.87,0.91 -0.45,-1.5 1.3,-4.57 1.07,-5.87 -0.07,-0.44 -0.74,-0.76 -1.55,-0.8 -0.01,0.24 -0.06,0.56 -0.14,0.9 -0.21,-0.66 -0.63,-0.89 -1.23,-0.89 -1.49,0 -2.84,1.74 -3.22,3.61 -0.38,1.87 0.16,3.35 1.39,3.29 0.66,-0.03 1.3,-0.78 1.87,-1.78 -0.04,0.24 -0.07,0.44 -0.07,0.62zm0.21 -4.39c0.56,0 0.79,0.36 0.57,0.97 -0.55,1.39 -1.33,2.74 -1.81,2.74 -0.45,0 -0.53,-0.84 -0.36,-1.64 0.19,-0.9 0.84,-2.05 1.6,-2.07zm2.51 -3.94c-1.18,1.74 -1.98,-1.27 -3.05,0.48 -0.32,0.53 -0.47,1.79 -0.2,1.56 1.05,-1.88 1.77,1.22 2.92,-0.52 0.65,-0.98 0.54,-1.86 0.33,-1.52zm2.29 8.11c-0.55,0 -0.45,-1.37 -0.13,-2.31 0.25,-0.7 0.88,-1.86 1.48,-1.87 0.55,0 0.45,1.31 0.12,2.27 -0.24,0.69 -0.87,1.9 -1.47,1.91zm-0.34 1.35c1.81,0 3.28,-1.75 3.66,-3.62 0.38,-1.87 -0.35,-3.33 -1.62,-3.26 -1.8,0 -3.28,1.71 -3.66,3.61 -0.38,1.88 0.29,3.37 1.62,3.27zm6.7 -1.35c-0.01,0.99 0.47,1.52 1.01,1.67 0.51,0.13 1.54,-0.15 1.9,-1.01 0.17,-0.4 0.08,-0.56 0.03,-0.53 -0.27,0.24 -0.96,0.42 -1.01,-0.3 -0.06,-1.01 0.49,-2.25 0.92,-3.63 0.2,0 0.43,-0.01 0.68,-0.05 0.5,-0.07 0.7,-0.91 0.49,-1.35 -0.32,0.07 -0.59,0.11 -0.83,0.11 0.09,-0.48 0.15,-0.95 0.15,-1.45 -0.01,-0.44 -0.79,-0.82 -1.61,-0.86 -0.02,0.77 -0.13,1.5 -0.29,2.17 -0.14,0 -0.3,0.01 -0.47,0.03 -0.66,0.07 -0.84,1.09 -0.67,1.35 0.29,-0.04 0.55,-0.05 0.78,-0.05 -0.48,1.55 -1.07,2.85 -1.08,3.91zm6.62 -0.25c-0.55,0 -0.89,-0.29 -1.01,-0.8 1.15,0.07 2.84,-0.68 3.31,-1.98 0.49,-1.35 -0.23,-2.57 -1.52,-2.51 -1.8,0 -3.18,1.71 -3.56,3.61 -0.38,1.88 0.34,3.39 2.15,3.27 1.69,0 2.75,-2.17 2.28,-2.45 -0.42,0.48 -0.92,0.84 -1.63,0.85zm0.44 -3.92c0.28,0 0.45,0.16 0.45,0.53 0,0.95 -1.17,1.27 -1.82,1.38 0.21,-0.72 0.69,-1.9 1.37,-1.91zm5.63 0.68c-0.38,1.54 -0.87,2.62 -0.88,3.71 -0.01,1.21 0.87,1.46 1.87,0.91 -0.05,-0.17 -0.07,-0.37 -0.07,-0.58 0.04,-2.09 2.32,-4.96 2.08,-4.04 -0.39,1.54 -0.88,2.62 -0.88,3.71 -0.01,1.21 0.87,1.46 1.87,0.91 -0.45,-1.48 1.4,-4.91 1.1,-6.18 -0.13,-0.54 -0.79,-0.65 -1.48,-0.23 -0.54,0.33 -1.1,0.8 -1.62,1.52 0.12,-0.53 0.18,-0.98 0.1,-1.3 -0.13,-0.54 -0.79,-0.65 -1.47,-0.23 -0.52,0.32 -1.06,0.76 -1.57,1.43 0.07,-0.34 0.1,-0.66 0.06,-0.9 -0.08,-0.44 -0.74,-0.76 -1.56,-0.8 0.02,1.47 -1.38,4.38 -1.39,5.75 -0.01,1.19 0.87,1.45 1.87,0.91 -0.11,-0.38 -0.09,-0.86 0.01,-1.39 0.47,-1.94 2.17,-4.03 1.96,-3.23zm9.62 3.5c-0.55,0 -0.45,-1.37 -0.13,-2.31 0.25,-0.7 0.88,-1.86 1.48,-1.87 0.55,0 0.45,1.31 0.12,2.27 -0.24,0.69 -0.87,1.9 -1.47,1.91zm-0.34 1.35c1.81,0 3.28,-1.75 3.66,-3.62 0.38,-1.87 -0.35,-3.33 -1.62,-3.26 -1.8,0 -3.28,1.71 -3.66,3.61 -0.38,1.88 0.29,3.37 1.62,3.27zm10.06 -4.85c-0.38,1.54 -0.87,2.62 -0.88,3.71 -0.01,1.21 0.87,1.46 1.87,0.91 -0.05,-0.17 -0.07,-0.37 -0.07,-0.58 0.04,-2.09 2.32,-4.96 2.09,-4.04 -0.39,1.54 -0.88,2.62 -0.88,3.71 -0.01,1.21 0.87,1.46 1.87,0.91 -0.45,-1.48 1.4,-4.91 1.1,-6.18 -0.13,-0.54 -0.79,-0.65 -1.48,-0.23 -0.54,0.33 -1.1,0.8 -1.62,1.52 0.12,-0.53 0.18,-0.98 0.1,-1.3 -0.13,-0.54 -0.79,-0.65 -1.47,-0.23 -0.52,0.32 -1.06,0.76 -1.57,1.43 0.07,-0.34 0.1,-0.66 0.06,-0.9 -0.08,-0.44 -0.74,-0.76 -1.56,-0.8 0.02,1.47 -1.38,4.38 -1.39,5.75 -0.01,1.19 0.87,1.45 1.87,0.91 -0.11,-0.38 -0.09,-0.86 0.01,-1.39 0.47,-1.94 2.17,-4.03 1.96,-3.23zm7.93 3.25c-0.55,0 -0.89,-0.29 -1.01,-0.8 1.15,0.07 2.84,-0.68 3.31,-1.98 0.49,-1.35 -0.23,-2.57 -1.52,-2.51 -1.8,0 -3.18,1.71 -3.56,3.61 -0.38,1.88 0.34,3.39 2.15,3.27 1.69,0 2.75,-2.17 2.28,-2.45 -0.42,0.48 -0.92,0.84 -1.63,0.85zm0.44 -3.92c0.28,0 0.45,0.16 0.45,0.53 0,0.95 -1.17,1.27 -1.82,1.38 0.21,-0.72 0.69,-1.9 1.37,-1.91zm3.79 -4.03c-0.07,2.93 -1.97,7.04 -1.98,8.42 -0.01,1.19 0.87,1.45 1.87,0.91 -0.45,-1.5 1.75,-5.83 1.72,-8.47 0,-0.44 -0.79,-0.82 -1.61,-0.86zm5.01 4.71c-0.38,1.54 -0.87,2.62 -0.88,3.71 -0.01,1.21 0.87,1.46 1.87,0.91 -0.45,-1.48 1.41,-4.91 1.1,-6.18 -0.13,-0.54 -0.79,-0.65 -1.47,-0.23 -0.61,0.37 -1.33,0.9 -2,1.78 0.41,-1.37 0.78,-2.74 0.78,-3.84 0,-0.53 -0.79,-0.82 -1.61,-0.86 -0.07,2.93 -1.97,7.04 -1.98,8.42 -0.01,1.19 0.87,1.45 1.87,0.91 -0.11,-0.36 -0.07,-0.87 0.06,-1.5 0.57,-1.91 2.47,-3.91 2.27,-3.13z"/>
   <path class="fil0" d="M87.81 75.51c-0.55,0 -0.45,-1.37 -0.13,-2.31 0.25,-0.7 0.88,-1.86 1.48,-1.87 0.55,0 0.45,1.31 0.12,2.27 -0.24,0.69 -0.87,1.9 -1.47,1.91zm-0.34 1.35c1.81,0 3.28,-1.75 3.66,-3.62 0.38,-1.87 -0.35,-3.33 -1.62,-3.26 -1.8,0 -3.28,1.71 -3.66,3.61 -0.38,1.88 0.29,3.37 1.62,3.27zm7.01 -4.89c0.54,0 0.5,1.07 0.5,1.07 -0.01,0.21 1.47,-0.65 1.43,-1.88 -0.02,-0.76 -0.44,-1.22 -1.1,-1.18 -0.46,0 -0.83,0.3 -1.14,0.82 -0.08,-0.44 -0.75,-0.8 -1.57,-0.84 0.02,1.47 -1.38,4.38 -1.39,5.75 -0.01,1.19 0.87,1.45 1.87,0.91 -0.24,-0.81 0.59,-4.64 1.4,-4.67zm7.34 3.12c-0.05,0.25 -0.08,0.48 -0.08,0.64 -0.01,1.21 0.87,1.45 1.87,0.91 -0.45,-1.5 1.99,-7.08 1.77,-8.38 -0.08,-0.44 -0.74,-0.76 -1.56,-0.8 0.01,0.64 -0.37,1.99 -0.81,3.45 -0.21,-0.7 -0.64,-0.93 -1.25,-0.93 -1.49,0 -2.84,1.74 -3.22,3.61 -0.38,1.87 0.17,3.35 1.39,3.29 0.66,-0.03 1.31,-0.8 1.88,-1.79zm0.13 -3.75c0.5,0 0.74,0.29 0.62,0.8 -0.58,1.45 -1.36,2.92 -1.86,2.92 -0.45,0 -0.53,-0.84 -0.36,-1.64 0.2,-0.9 0.84,-2.05 1.6,-2.07zm5.57 3.92c-0.55,0 -0.89,-0.29 -1.01,-0.8 1.15,0.07 2.84,-0.68 3.31,-1.98 0.49,-1.35 -0.23,-2.57 -1.52,-2.51 -1.8,0 -3.18,1.71 -3.56,3.61 -0.38,1.88 0.34,3.39 2.15,3.27 1.69,0 2.75,-2.17 2.28,-2.45 -0.42,0.48 -0.92,0.84 -1.63,0.85zm0.44 -3.92c0.28,0 0.45,0.16 0.45,0.53 0,0.95 -1.17,1.27 -1.82,1.38 0.21,-0.72 0.69,-1.9 1.37,-1.91zm4.77 4.18c-0.01,0.99 0.47,1.52 1.01,1.67 0.51,0.13 1.54,-0.15 1.9,-1.01 0.17,-0.4 0.08,-0.56 0.03,-0.53 -0.27,0.24 -0.96,0.42 -1.01,-0.3 -0.06,-1.01 0.49,-2.25 0.92,-3.63 0.2,0 0.43,-0.01 0.68,-0.05 0.5,-0.07 0.7,-0.91 0.49,-1.35 -0.32,0.07 -0.59,0.11 -0.83,0.11 0.09,-0.48 0.15,-0.95 0.15,-1.45 -0.01,-0.44 -0.79,-0.82 -1.61,-0.86 -0.02,0.77 -0.13,1.5 -0.29,2.17 -0.14,0 -0.3,0.01 -0.47,0.03 -0.66,0.07 -0.84,1.09 -0.67,1.35 0.29,-0.04 0.55,-0.05 0.78,-0.05 -0.48,1.55 -1.07,2.85 -1.08,3.91zm3.58 -0.16c-0.01,0.97 0.49,1.54 1.24,1.54 0.64,0 1.26,-0.72 1.83,-1.79 -0.04,0.23 -0.07,0.44 -0.07,0.62 -0.01,1.19 0.87,1.45 1.87,0.91 -0.45,-1.5 1.31,-4.57 1.08,-5.87 -0.07,-0.44 -0.74,-0.76 -1.56,-0.8 -0.14,1.55 -1.29,4.92 -2.39,4.92 -0.54,0 0.87,-2.25 0.88,-3.75 0.01,-1.21 -0.87,-1.46 -1.87,-0.91 0.45,1.48 -1.01,3.67 -1.02,5.13zm9.23 -0.27c-0.05,0.25 -0.08,0.48 -0.08,0.64 -0.01,1.21 0.87,1.45 1.87,0.91 -0.45,-1.5 2,-7.08 1.77,-8.38 -0.08,-0.44 -0.74,-0.76 -1.56,-0.8 0.01,0.64 -0.37,1.99 -0.81,3.45 -0.21,-0.7 -0.64,-0.93 -1.25,-0.93 -1.49,0 -2.84,1.74 -3.22,3.61 -0.38,1.87 0.17,3.35 1.39,3.29 0.66,-0.03 1.31,-0.8 1.88,-1.79zm0.13 -3.75c0.5,0 0.74,0.29 0.62,0.8 -0.58,1.45 -1.36,2.92 -1.86,2.92 -0.45,0 -0.53,-0.84 -0.36,-1.64 0.2,-0.9 0.84,-2.05 1.6,-2.07zm4.76 4.18c-0.55,0 -0.45,-1.37 -0.13,-2.31 0.25,-0.7 0.88,-1.86 1.48,-1.87 0.55,0 0.45,1.31 0.12,2.27 -0.24,0.69 -0.87,1.9 -1.47,1.91zm-0.34 1.35c1.81,0 3.28,-1.75 3.66,-3.62 0.38,-1.87 -0.35,-3.33 -1.62,-3.26 -1.8,0 -3.28,1.71 -3.66,3.61 -0.38,1.88 0.29,3.37 1.62,3.27zm4.91 -2.05c-0.11,1.17 -0.71,2.89 -1,3.1 -0.02,0.42 0.61,0.56 1.02,0.37 0.67,-0.29 1.53,-1.7 1.59,-2.56 -0.33,-0.7 -1.61,-1.07 -1.61,-0.91zm-108.86 13.71c-0.55,0 -0.89,-0.29 -1.01,-0.8 1.15,0.07 2.84,-0.68 3.31,-1.98 0.49,-1.35 -0.23,-2.57 -1.52,-2.51 -1.8,0 -3.18,1.71 -3.56,3.61 -0.38,1.88 0.34,3.39 2.15,3.27 1.69,0 2.75,-2.17 2.28,-2.45 -0.42,0.48 -0.92,0.84 -1.63,0.85zm0.44 -3.92c0.28,0 0.45,0.16 0.45,0.53 0,0.95 -1.17,1.27 -1.82,1.38 0.21,-0.72 0.69,-1.9 1.37,-1.91zm3.79 -4.03c-0.07,2.93 -1.97,7.04 -1.98,8.42 -0.01,1.19 0.87,1.45 1.87,0.91 -0.45,-1.5 1.75,-5.83 1.72,-8.47 0,-0.44 -0.79,-0.82 -1.61,-0.86zm4.28 8.42c-0.01,1.21 0.87,1.45 1.87,0.91 -0.45,-1.5 1.3,-4.57 1.07,-5.87 -0.07,-0.44 -0.74,-0.76 -1.55,-0.8 -0.01,0.24 -0.06,0.56 -0.14,0.9 -0.21,-0.66 -0.63,-0.89 -1.23,-0.89 -1.49,0 -2.84,1.74 -3.22,3.61 -0.38,1.87 0.16,3.35 1.39,3.29 0.66,-0.03 1.3,-0.78 1.87,-1.78 -0.04,0.24 -0.07,0.44 -0.07,0.62zm0.21 -4.39c0.56,0 0.79,0.36 0.57,0.97 -0.55,1.39 -1.33,2.74 -1.81,2.74 -0.45,0 -0.53,-0.84 -0.36,-1.64 0.19,-0.9 0.84,-2.05 1.6,-2.07zm5.55 4.18c-0.01,0.99 0.47,1.52 1.01,1.67 0.51,0.13 1.54,-0.15 1.9,-1.01 0.17,-0.4 0.08,-0.56 0.03,-0.53 -0.27,0.24 -0.96,0.42 -1.01,-0.3 -0.06,-1.01 0.49,-2.25 0.92,-3.63 0.2,0 0.43,-0.01 0.68,-0.05 0.5,-0.07 0.7,-0.91 0.49,-1.35 -0.32,0.07 -0.59,0.11 -0.83,0.11 0.09,-0.48 0.15,-0.95 0.15,-1.45 -0.01,-0.44 -0.79,-0.82 -1.61,-0.86 -0.02,0.77 -0.13,1.5 -0.29,2.17 -0.14,0 -0.3,0.01 -0.47,0.03 -0.66,0.07 -0.84,1.09 -0.67,1.35 0.29,-0.04 0.55,-0.05 0.78,-0.05 -0.48,1.55 -1.07,2.85 -1.08,3.91zm5.8 0c-0.55,0 -0.45,-1.37 -0.13,-2.31 0.25,-0.7 0.88,-1.86 1.48,-1.87 0.55,0 0.45,1.31 0.12,2.27 -0.24,0.69 -0.87,1.9 -1.47,1.91zm-0.34 1.35c1.81,0 3.28,-1.75 3.66,-3.62 0.38,-1.87 -0.35,-3.33 -1.62,-3.26 -1.8,0 -3.28,1.71 -3.66,3.61 -0.38,1.88 0.29,3.37 1.62,3.27zm7.01 -4.89c0.54,0 0.5,1.07 0.5,1.07 -0.01,0.21 1.47,-0.65 1.43,-1.88 -0.02,-0.76 -0.44,-1.22 -1.1,-1.18 -0.46,0 -0.83,0.3 -1.14,0.82 -0.08,-0.44 -0.75,-0.8 -1.57,-0.84 0.02,1.47 -1.38,4.38 -1.39,5.75 -0.01,1.19 0.87,1.45 1.87,0.91 -0.24,-0.81 0.59,-4.64 1.4,-4.67zm5.42 0.04c-0.38,1.54 -0.97,2.62 -0.98,3.71 -0.01,1.21 0.87,1.46 1.87,0.91 -0.45,-1.48 1.51,-4.91 1.2,-6.18 -0.13,-0.54 -0.79,-0.65 -1.47,-0.23 -0.56,0.34 -1.21,0.82 -1.84,1.56 0.09,-0.4 0.14,-0.76 0.09,-1.03 -0.08,-0.44 -0.74,-0.76 -1.56,-0.8 0.02,1.47 -1.38,4.38 -1.39,5.75 -0.01,1.19 0.87,1.45 1.87,0.91 -0.17,-0.56 -0.07,-1.38 0.2,-2.17 0.63,-1.82 2.19,-3.14 2.01,-2.45zm5.34 3.71c-0.01,1.21 0.87,1.45 1.87,0.91 -0.45,-1.5 1.3,-4.57 1.07,-5.87 -0.07,-0.44 -0.74,-0.76 -1.55,-0.8 -0.01,0.24 -0.06,0.56 -0.14,0.9 -0.21,-0.66 -0.63,-0.89 -1.23,-0.89 -1.49,0 -2.84,1.74 -3.22,3.61 -0.38,1.87 0.16,3.35 1.39,3.29 0.66,-0.03 1.3,-0.78 1.87,-1.78 -0.04,0.24 -0.07,0.44 -0.07,0.62zm0.21 -4.39c0.56,0 0.79,0.36 0.57,0.97 -0.55,1.39 -1.33,2.74 -1.81,2.74 -0.45,0 -0.53,-0.84 -0.36,-1.64 0.19,-0.9 0.84,-2.05 1.6,-2.07zm5.55 4.18c-0.01,0.99 0.47,1.52 1.01,1.67 0.51,0.13 1.54,-0.15 1.9,-1.01 0.17,-0.4 0.08,-0.56 0.03,-0.53 -0.27,0.24 -0.96,0.42 -1.01,-0.3 -0.06,-1.01 0.49,-2.25 0.92,-3.63 0.2,0 0.43,-0.01 0.68,-0.05 0.5,-0.07 0.7,-0.91 0.49,-1.35 -0.32,0.07 -0.59,0.11 -0.83,0.11 0.09,-0.48 0.15,-0.95 0.15,-1.45 -0.01,-0.44 -0.79,-0.82 -1.61,-0.86 -0.02,0.77 -0.13,1.5 -0.29,2.17 -0.14,0 -0.3,0.01 -0.47,0.03 -0.66,0.07 -0.84,1.09 -0.67,1.35 0.29,-0.04 0.55,-0.05 0.78,-0.05 -0.48,1.55 -1.07,2.85 -1.08,3.91zm3.58 -0.16c-0.01,0.97 0.49,1.54 1.24,1.54 0.64,0 1.26,-0.72 1.83,-1.79 -0.04,0.23 -0.07,0.44 -0.07,0.62 -0.01,1.19 0.87,1.45 1.87,0.91 -0.45,-1.5 1.31,-4.57 1.08,-5.87 -0.07,-0.44 -0.74,-0.76 -1.56,-0.8 -0.14,1.55 -1.29,4.92 -2.39,4.92 -0.54,0 0.87,-2.25 0.88,-3.75 0.01,-1.21 -0.87,-1.46 -1.87,-0.91 0.45,1.48 -1.01,3.67 -1.02,5.13zm9.23 -0.27c-0.05,0.25 -0.08,0.48 -0.08,0.64 -0.01,1.21 0.87,1.45 1.87,0.91 -0.45,-1.5 1.99,-7.08 1.77,-8.38 -0.08,-0.44 -0.74,-0.76 -1.56,-0.8 0.01,0.64 -0.37,1.99 -0.81,3.45 -0.21,-0.7 -0.64,-0.93 -1.25,-0.93 -1.49,0 -2.84,1.74 -3.22,3.61 -0.38,1.87 0.17,3.35 1.39,3.29 0.66,-0.03 1.31,-0.8 1.88,-1.79zm0.13 -3.75c0.5,0 0.74,0.29 0.62,0.8 -0.58,1.45 -1.36,2.92 -1.86,2.92 -0.45,0 -0.53,-0.84 -0.36,-1.64 0.2,-0.9 0.84,-2.05 1.6,-2.07zm4.76 4.18c-0.55,0 -0.45,-1.37 -0.13,-2.31 0.25,-0.7 0.88,-1.86 1.48,-1.87 0.55,0 0.45,1.31 0.12,2.27 -0.24,0.69 -0.87,1.9 -1.47,1.91zm-0.34 1.35c1.81,0 3.28,-1.75 3.66,-3.62 0.38,-1.87 -0.35,-3.33 -1.62,-3.26 -1.8,0 -3.28,1.71 -3.66,3.61 -0.38,1.88 0.29,3.37 1.62,3.27zm10.06 -4.85c-0.38,1.54 -0.87,2.62 -0.88,3.71 -0.01,1.21 0.87,1.46 1.87,0.91 -0.05,-0.17 -0.07,-0.37 -0.07,-0.58 0.04,-2.09 2.32,-4.96 2.08,-4.04 -0.39,1.54 -0.88,2.62 -0.88,3.71 -0.01,1.21 0.87,1.46 1.87,0.91 -0.45,-1.48 1.4,-4.91 1.1,-6.18 -0.13,-0.54 -0.79,-0.65 -1.48,-0.23 -0.54,0.33 -1.1,0.8 -1.62,1.52 0.12,-0.53 0.18,-0.98 0.1,-1.3 -0.13,-0.54 -0.79,-0.65 -1.47,-0.23 -0.52,0.32 -1.06,0.76 -1.57,1.43 0.07,-0.34 0.1,-0.66 0.06,-0.9 -0.08,-0.44 -0.74,-0.76 -1.56,-0.8 0.02,1.47 -1.38,4.38 -1.39,5.75 -0.01,1.19 0.87,1.45 1.87,0.91 -0.11,-0.38 -0.09,-0.86 0.01,-1.39 0.47,-1.94 2.17,-4.03 1.96,-3.23zm7.93 3.25c-0.55,0 -0.89,-0.29 -1.01,-0.8 1.15,0.07 2.84,-0.68 3.31,-1.98 0.49,-1.35 -0.23,-2.57 -1.52,-2.51 -1.8,0 -3.18,1.71 -3.56,3.61 -0.38,1.88 0.34,3.39 2.15,3.27 1.69,0 2.75,-2.17 2.28,-2.45 -0.42,0.48 -0.92,0.84 -1.63,0.85zm0.44 -3.92c0.28,0 0.45,0.16 0.45,0.53 0,0.95 -1.17,1.27 -1.82,1.38 0.21,-0.72 0.69,-1.9 1.37,-1.91zm3.79 -4.03c-0.07,2.93 -1.97,7.04 -1.98,8.42 -0.01,1.19 0.87,1.45 1.87,0.91 -0.45,-1.5 1.75,-5.83 1.72,-8.47 0,-0.44 -0.79,-0.82 -1.61,-0.86zm5.01 4.71c-0.38,1.54 -0.87,2.62 -0.88,3.71 -0.01,1.21 0.87,1.46 1.87,0.91 -0.45,-1.48 1.41,-4.91 1.1,-6.18 -0.13,-0.54 -0.79,-0.65 -1.47,-0.23 -0.61,0.37 -1.33,0.9 -2.01,1.78 0.41,-1.37 0.78,-2.74 0.78,-3.84 0,-0.53 -0.79,-0.82 -1.61,-0.86 -0.07,2.93 -1.97,7.04 -1.98,8.42 -0.01,1.19 0.87,1.45 1.87,0.91 -0.11,-0.36 -0.07,-0.87 0.06,-1.5 0.57,-1.91 2.47,-3.91 2.27,-3.13zm4.1 3.5c-0.55,0 -0.45,-1.37 -0.13,-2.31 0.25,-0.7 0.88,-1.86 1.48,-1.87 0.55,0 0.45,1.31 0.12,2.27 -0.24,0.69 -0.87,1.9 -1.47,1.91zm-0.34 1.35c1.81,0 3.28,-1.75 3.66,-3.62 0.38,-1.87 -0.35,-3.33 -1.62,-3.26 -1.8,0 -3.28,1.71 -3.66,3.61 -0.38,1.88 0.29,3.37 1.62,3.27zm7.01 -4.89c0.54,0 0.5,1.07 0.5,1.07 -0.01,0.21 1.47,-0.65 1.43,-1.88 -0.02,-0.76 -0.44,-1.22 -1.1,-1.18 -0.46,0 -0.83,0.3 -1.14,0.82 -0.08,-0.44 -0.75,-0.8 -1.57,-0.84 0.02,1.47 -1.38,4.38 -1.39,5.75 -0.01,1.19 0.87,1.45 1.87,0.91 -0.24,-0.81 0.59,-4.64 1.4,-4.67zm2.15 2.53c-0.48,-0.37 -1.04,-0.17 -1.43,0.48 -0.38,0.65 -0.33,1.39 0.15,1.76 0.47,0.36 1.04,0.16 1.42,-0.49 0.38,-0.65 0.33,-1.39 -0.14,-1.75z"/>
  </g>
 </g>
</svg>
