<?xml version="1.0" encoding="UTF-8"?>
<!DOCTYPE svg PUBLIC "-//W3C//DTD SVG 1.1//EN" "http://www.w3.org/Graphics/SVG/1.1/DTD/svg11.dtd">
<!-- Creator: CorelDRAW -->
<svg xmlns="http://www.w3.org/2000/svg" xml:space="preserve" width="34.0642mm" height="37.4451mm" version="1.1" style="shape-rendering:geometricPrecision; text-rendering:geometricPrecision; image-rendering:optimizeQuality; fill-rule:evenodd; clip-rule:evenodd"
viewBox="0 0 1678.97 1845.61"
 xmlns:xlink="http://www.w3.org/1999/xlink"
 xmlns:xodm="http://www.corel.com/coreldraw/odm/2003">
 <defs>
  <style type="text/css">
   <![CDATA[
    .fil0 {fill:black}
   ]]>
  </style>
 </defs>
 <g id="Camada_x0020_1">
  <metadata id="CorelCorpID_0Corel-Layer"/>
  <path class="fil0" d="M1375.01 1095.24l2.85 2.56c-1.47,-0.61 -1.78,-1.42 -2.85,-2.56zm-106.52 579.34c5.71,-7.42 13.82,-13.18 21.82,-22.54 3.48,9.73 6.99,31.09 4.88,42.49 -1.3,-14.13 -13.46,-7.76 -26.71,-19.94zm103.84 -823.86c-24.88,37.51 -3.57,24.31 -11.24,40.64 -3.39,7.24 -10.31,4 -7.66,18.81 1.8,10.05 6.55,11.08 15.87,13.14 -12.04,41.11 25.38,22.67 25.54,22.73 0.03,0.02 20.27,26.6 30.38,-5.83 11.52,4.91 14.34,1.39 23.1,-4.2 2.65,-17.62 -2.41,-10.91 -2.1,-23.59 0.01,-0 31.9,-6.53 11.23,-32.19 16.28,-19.56 6.02,-12.53 7.9,-26.11 1.42,-10.28 12.31,-5.31 5.59,-28.5 11.21,-2.18 16.27,-6.57 15.75,-21.93 11.63,0.46 17.61,-4.41 19.89,-18.04 10.37,0.99 13.12,-1.44 17.77,-8.31 7.74,-11.42 5.08,-6.61 17.95,-10.55 17.61,-5.38 8.09,-0.51 20.05,0.22 10.45,0.64 12.97,-9.21 16.65,-13.1 6.56,6.86 12.75,6.17 23.69,8.18 6.21,10.33 3.96,18.17 22.72,16.51 -0.38,10.59 3.28,18.73 14.33,21.73 -4.92,19.62 0.84,19.97 10.42,28.08 -8.52,16.37 0.65,21.76 9.04,28.84 -22.21,17.83 -8.88,23.9 0.34,34.08 -10.3,6.24 -19.14,15.48 -6.29,29.04 -12.56,6.37 -14.21,13.01 -9.2,27.2 -11.02,7.76 -13.93,11.17 -8.67,27.95 -13.4,9.56 -10.93,13.28 -7.9,29.2 -22.84,7.05 -4.67,29.33 -4.4,29.85 -7.26,21.63 -7.27,8.01 -14.84,21.89 -13.08,23.95 -6.56,9.4 -16.87,17.83 -10.4,8.52 -0.25,13.18 -8.59,24.84 -6.93,9.66 -11.78,11.05 -12.95,25.56 -14.45,-1.77 -20.59,6.87 -18.83,21.81 -7.13,3 -5.82,-0.39 -11.56,5.91 -2.91,3.17 -5.03,10.57 -7.56,13.39 -5.53,6.17 -14.38,1.35 -18.47,20.23 -10.62,0.25 -15.63,4.5 -19.18,14.2 -16.34,-6.23 -24.17,1.27 -25.15,18.87 -16.02,-7.85 -23.46,-11.52 -30.73,10.08 -9.16,-12.4 -17.88,5.69 -24.27,9.4 -3.79,2.2 -9.67,1.98 -13.2,4.08 -8.88,5.24 -1.96,2.86 -7.16,8.05 -7.57,7.57 -6.55,-0.56 -16.3,7.73 -27.47,23.43 -16.45,-9.42 -32.38,29.48 -18.05,-1.81 -17.69,12.64 -29.98,13 -12.25,-28.92 -20.94,-20.53 -50.58,0.41 -3.11,2.19 -0.96,1.07 -4.51,2.84 -9.75,-46.19 -18.24,-45.93 -41.62,-47.72 -5.14,-0.75 -0.32,-10.86 -0.25,-20.49 0.09,-14.15 -0.3,-12.43 -8.27,-18.76 0.28,-8.72 -0.39,-12.47 -0.56,-19.84 -0.32,-12.97 0.78,-5.92 7.93,-15.15 2.72,-15.58 -0.32,-16.77 -7.61,-24.04 4.25,-12.48 2.85,-16.36 -3.22,-22.79 8.6,-18.72 10.95,-7.4 -0.09,-32.25 5.9,-9.73 7,-15.75 -0.11,-27.24 6.82,-13.29 11.12,-20.87 -0.8,-29.49 10.46,-13.64 7.15,-17.73 1.39,-29.39 8.3,-7.9 8.41,-18.48 0.46,-26.42 1.58,-2.25 19.93,-18.23 0.87,-31.69 6.42,-11.03 3.18,-19.88 -2.3,-28.28 8.99,-11.85 8.11,-24.11 -4.36,-29.34 5.6,-15.92 3.66,-25.44 -4.16,-37.97 11.71,-10.11 9.17,-17.48 0.93,-27.71 -6.88,-8.54 -4.06,-8.68 -6.37,-20.04 -3.16,-15.59 -13.84,-16.51 -0.48,-23.61 5.79,-3.1 14.7,-1.04 9.86,-26.59 10.48,-3.26 10.43,-7.61 12.75,-20.42 10.89,-0.98 15.37,-5.23 18.48,-15.91 20.85,6.58 20.22,-5.51 26.37,-11.59 11.47,9.53 17.53,3.71 25.44,-3.72 11.45,9.01 14.54,4.51 25.22,1.12l3.45 10.52 19.81 3.21c2.4,8.64 5.13,11.3 16.5,15.02 -0.44,16.82 5.96,16.06 13.89,22.27 -4.23,8.99 -3.08,13.99 1.65,20.71 7.62,10.88 5.49,4.14 5.05,21.26 -0.57,22.32 -16.09,32.69 2.5,42.92zm-88.81 -155.14c-13.35,-7.2 -24.14,-10.32 -28.51,8.9 -13.3,-6.27 -24.56,-10.05 -27.33,12.27 -14.09,-11.26 -27.74,-0.35 -23.48,18.3 -16.09,-7.73 -22.59,8.8 -17.84,24.22 -26.15,16.06 -3.91,20.16 -7.42,39.33 -5.19,28.39 -5.46,-1.39 -0.67,31.62 1.94,13.31 -0.28,2.97 -4.08,13.82 -4.01,11.46 3.81,20 14.01,23.11 -3.01,25.58 -0.97,20.26 3.73,34.03 -12.52,4.91 -13.58,20.72 -2.19,29.07 -8.31,10.7 -10.74,20.98 0.04,29.05 -3.77,13.18 -2.64,20.29 1.66,27.76 -13.84,12.36 -6.12,15.5 -4.95,27.43 1.28,13.23 -11.49,14.42 2.28,31.08 -8.31,12.23 -5.6,19.5 0.09,29.5 -11.18,9.67 -8.95,17.93 -0.09,29.48 -6.63,10.64 -9.19,17.07 0.79,26.68 -14.66,21.73 -1,15.56 0.08,35.12 2,36.63 9.63,9.61 12.65,34.85 2.91,24.31 -10.24,25.54 2.04,49.07 7.52,14.4 8.88,9.66 3.89,27.89 -11.89,43.44 23.98,87.04 22.37,92.47 -7.03,14.84 -21.71,20.39 -18.36,38.12 -25.86,-3.94 -17.11,18 -17.12,28.15 -9.67,9.91 -18.1,18.56 -17.88,35.66 -7.95,1.87 -13.51,4.89 -12.82,17.39 0.58,10.38 6.99,11.87 13.68,16.72 -4.89,41.72 11.2,20.02 28.09,32.82 8.2,6.22 3.06,5.72 7.54,13.59 8.81,15.49 19.85,1.43 28.87,4.85 5.63,2.12 6.61,5.91 16.4,6.29 11.58,0.45 4.46,-4.86 20,1.9 -8.97,23.2 6.45,23.94 19.44,25.24 0.86,22.37 1.08,13.46 -7,29.27 -7.93,15.56 -1.48,20.24 -9.03,29.81 -6.11,7.75 -12.66,10.91 -18.68,17.9 -12.41,14.4 0.08,15.53 -7.8,31.24 -7.73,1.3 -17.32,-6.15 -25.38,-8.39l-13.39 34.16 23 9.61c0.18,18.01 -27.2,73.37 -32.36,98.11l28.86 12.55c8.53,-21.96 28.17,-81.29 36.72,-94.35l23.01 8.84c5.72,-7.86 10.66,-23.14 12.97,-32.85l-22.29 -12.1c3.82,-14.22 7.81,-8.38 15.33,-18.63 3.5,-18.81 -5.33,-27.27 -3.94,-42.19 0.83,-9.04 12.59,-19.58 14.53,-37.3l-8.23 -7.99c2.66,-16.27 3.82,-46.64 -15.23,-47.99 -21.73,-1.54 -20.78,-16.89 -48.29,-19.87 -1.42,-7.24 -3.19,-12.64 -13.66,-13.64 -15.14,-1.47 -5.18,9.26 -22.45,4.48 -3.44,-11.94 5.67,-23.01 -15.18,-29.83 7.65,-11.9 7.47,-20.66 -3.62,-29.06 6.83,-2.08 7.03,-5.44 11.83,-13.22 8.26,-13.43 -0.34,-5.28 3.47,-19.08l14.85 -1.29c9.35,-18.03 4.79,-10.21 3.45,-27.7 26.34,-6.77 8.42,-33.45 25.2,-39.77l18.7 -4.38c38.76,-11.83 39.87,-41.23 51.88,-57.32 39.98,5.97 29.54,-6.48 33.29,-16.33 11.42,4.35 20.83,10.6 27.96,-8.95 18.88,5.81 16.04,-5.92 24.74,-11.47 8.31,-5.3 15.81,3.42 21.61,-15.82 17.32,4.43 14.49,-8.07 26.15,-12.52 14.32,-5.47 16.06,2.45 19.66,-20.48 12.37,4.34 23.54,12.02 30.14,-9.08 14.83,7.6 22.93,0.91 25.65,-14.8 11.42,0.92 18.41,-5.2 19.99,-18.69 13.17,-0.55 25.18,-12.2 16.52,-26.36 20.17,0.98 21.45,-12.01 15.67,-27.41 9.55,-4.61 17.53,-11.19 19.32,-25.11 24.08,1.88 14.97,-15.29 22.61,-30.65 10.64,-21.45 1.7,-32.02 16.85,-39.03 13.17,-6.09 11.66,-12.81 8.09,-24.86 9,-11.07 15.04,-7.4 8.65,-27.96 9.32,-10.23 14.22,-10.73 7.42,-28.16 10.94,-7.11 16.06,-16.69 6.26,-28.38 4.51,-4.38 10.69,-4.64 11.6,-15.84 0.88,-11 -5.03,-11.07 -9.67,-17.84 5.09,-6.92 10.86,-4.46 10.72,-17.7 -0.11,-11.59 -6.35,-11.97 -12.62,-17.22 4.43,-6.69 11.77,-3.16 11.72,-17.12 -0.05,-9.8 -4.66,-13.3 -12.85,-16.98 8.81,-14.14 1.51,-28.07 -14.2,-26.88 9.29,-12.88 5.45,-15.88 -0.92,-27.4 -11.14,-3.12 -7.74,-1.83 -17.19,1.66 4.67,-21.68 -3.86,-24.02 -20.4,-22.89 -6.26,0.43 -10.65,-2.93 -19.25,-4.18 -12.26,-1.76 -9.5,0.75 -17.24,4.08 -20.45,-24.5 -18.35,-1.75 -37.85,3.38 -3.93,1.04 -15.14,5.02 -16.05,5.09 -7.06,0.56 -6.69,-4.35 -15.41,-1.28 -7.52,2.65 -7.25,7.63 -10.91,13.28 -7.59,11.76 -19.09,2.47 -19.3,26.77 -17.45,-2.83 -21.36,10.66 -16.59,26.28 -15.8,1.05 -19.75,14.27 -12.75,27.14 -12.06,11.88 -13.74,14.64 -4.33,30.98 -9.92,12.37 -12.72,17.6 -2.1,31.38 -11.67,5.15 -15.22,-3.06 -21.35,17.51 -9.54,-5.54 -15.85,-3.3 -22.16,3.53 -5.57,-6.4 -5.74,-9.4 -17.77,-12.75 11.76,-14.63 -6.35,-24.91 -10.18,-27.84 8.15,-11.49 13.11,-20.72 11.18,-36.58l10.54 -6.63c3.33,-13.49 2.1,-18.95 -6.87,-24.56l1.63 -33.81c6.4,-16.04 5.81,-24.22 -9.63,-28.16 6.19,-16.9 2.08,-26.48 -14.27,-27.62 1.13,-14.82 -6.38,-26.42 -21.33,-20.2l-6.03 -12.7c-13.18,-4.33 -13.78,-4.38 -22.05,2.07 -3.93,-6.52 -2.28,-11.65 -11.95,-14.03 -8.58,-2.11 -13.33,0.52 -16.97,8.35zm-550.05 787.08c8.83,2.7 41.16,-46.39 42.63,-50.64 4.58,-13.28 5.52,-59.74 35.25,-104.57 39.74,-59.93 68.9,10.86 68.9,32.97 0,39.91 -30.77,106.75 -72.11,121.95 5.8,59.45 74.56,-39.8 81.53,-56.87l29.98 -100.14c3.93,-10.26 31.01,11.11 29.39,27.26 -0.51,4.74 -1.88,10.49 -3.18,15.48 5.52,-11.5 32.75,-71.86 46.19,-71.86 7.5,0 21,26.33 18.66,38.78l-10.71 54.53c6.07,-12.24 36.13,-75.11 48.22,-75.11 12.12,0 29.12,37.23 25.35,52.32 -5.18,20.76 -33.77,102.49 -32.72,115.89 15.88,4.85 66.58,-97.9 72.09,-97.9 16.35,0 -43.6,156.63 -72.27,148.02 -24.59,-7.38 -31.92,-51.51 -30.35,-74.69l14.3 -65.03c-15.1,29.45 -41.38,87.2 -47,117.93 -2.6,14.2 -28.75,4.25 -27.17,-40.58l11.44 -81.16c-20.59,40.7 -41.82,98.73 -53.36,143 0,0.01 -0.62,22.07 -15.05,4.87l-15.31 -39.19c-20.44,36.32 -47.28,68.76 -81.75,27.04l-19.9 -42.1c-9.59,20.49 -34.94,73.81 -59.3,37.26 -25.1,-37.65 -12.12,-88.54 0.03,-127.06 -15.11,29.47 -41.37,87.17 -47,117.93 -2.6,14.23 -28.78,4.18 -27.16,-40.58l11.43 -81.16c-14.76,28.83 -51.41,120.78 -53.9,147.44 -2.01,21.53 -32.11,-12.25 -29.75,-45.24l11.7 -67.12 -36.08 6.35c-1.75,8.2 -33.89,147.4 -17.76,150.35 13.43,2.45 -9.35,57.49 -26.72,-5.22 -10.54,-38.06 0.46,-109.81 7.44,-148.32 -14.71,-3.09 -30.48,-7.31 -42.39,-17.22 -20.03,34.27 -110.5,161.19 -159.78,130.66 -25.54,-15.82 -13.72,-70.88 -4.48,-52.42 0.84,1.67 -1.75,23.9 29.23,2.06 32.08,-22.62 68.84,-69.03 91.61,-102.21 -29.27,-19.09 -42.42,-36.26 -20.57,-64.4 25.24,-32.51 35.55,0.93 47.1,24.42l132.16 -227.69c5.48,-4.64 23.16,8.88 21.43,26.8 16.95,18.84 5.97,35.98 -2.02,64.42l-47.25 181.84 37.11 -3.88 20.69 -64.5c4.69,-10.44 31.14,12.12 29.38,27.26 -0.51,4.74 -1.88,10.49 -3.18,15.48 5.46,-11.58 32.62,-71.86 46.19,-71.86 7.72,0 21.16,27.2 18.66,38.78l-10.7 54.54c6.09,-12.25 36.11,-75.11 48.23,-75.11 11.97,0 29.12,36.98 25.34,52.32 -5.13,20.87 -33.82,102.39 -32.72,115.89zm109.01 -214.29l29.74 -54.09c6.39,-31.23 60.19,11.91 -6.65,69.48 -27.45,23.64 -25.59,-12.2 -23.09,-15.39zm-356.07 109.54c10.15,4.74 20.49,8.2 30.92,10.49l36.48 -137.3 -67.41 126.8zm365.69 -30.48c-17.17,2.34 -37.52,78.74 -41.1,98.27 18.31,-20.04 36.69,-70.17 41.1,-98.27zm-375.88 -275.99l-29.92 11.58c-3.01,54.56 -36.59,30.95 -4.29,-82.16 22.71,-79.55 50.5,-92.25 48.83,-19.07 -0.44,19.26 -5.31,88.12 4.87,101.46 6.26,8.21 -5.01,37.53 -19.48,-11.81zm-2.56 -20.19l-1.44 -73.99c-8.36,13.41 -21.33,62.5 -22.19,78.75l23.64 -4.76zm47.24 -5.68c-0.96,54.08 23.94,17.37 25.63,6.35 1.89,-12.33 18.55,0.47 -1.71,29.73 -44.64,64.48 -57.45,-103.84 -14.05,-115.28 25.92,-6.84 32.45,59.39 16.04,58.09 -8.24,-0.66 -8.35,-42.77 -19.75,-16.56l-6.16 37.67zm62 5.68c3.99,25.41 8.84,30.67 21.77,1.37 9.44,-21.39 18.37,9.23 -4.59,37.44 -28.73,35.29 -52.06,-53.94 -22.05,-107.35 16.89,-30.06 37.1,25.7 14.76,61.04 -2.45,3.86 -5.74,6.36 -9.89,7.5zm6.74 -60.37l-5.59 45.16c13.33,-20.38 11.89,-43.74 5.59,-45.16zm35.08 -14.53c3.04,-65.72 25.57,-50.57 23.2,-16.11l-5.3 92.14c0.06,8.72 2.81,46.6 -5.3,49.93 -18.87,7.73 -13.35,-116.08 -12.6,-125.96zm47.53 74.89c4.05,25.28 8.53,30.86 21.78,1.37 9.63,-21.43 17.97,9.74 -4.59,37.44 -28.75,35.29 -52.02,-54 -22.05,-107.35 16.86,-30.01 37.15,25.55 14.75,61.04 -2.43,3.86 -5.73,6.36 -9.88,7.5zm6.75 -60.37l-5.59 45.16c4.61,-7.98 9.29,-10.84 10.02,-30.41 0.16,-4.32 0.15,-13.72 -4.43,-14.75zm62.85 22.7c-2.58,20.8 -11.62,27.31 -6.59,68.98 4.41,36.5 -27.43,53.87 -23.05,-63.55 0.34,-9.12 0.44,-47.5 12.03,-45.39 7.64,1.39 7.3,18.49 7.3,26.1 0.48,-0.58 13.43,-29.92 21.48,-8.63 3.95,10.45 4.59,55.52 -5.31,53.11 -6.86,-1.67 -4.86,-24.68 -4.86,-30.41 -0.14,0 -0.29,0 -0.42,-0.22 -0.15,0 -0.44,0 -0.58,0zm66.73 -9.77c1.89,-8.92 3.53,-26.04 10.3,-23.37 14.93,5.9 -14.34,68.93 1.15,99.4 1.19,2.34 11.13,4.63 5.73,13.16 -7.68,12.13 -17.98,-11.02 -20.05,-16.56 -10.36,19.87 -25.27,40.98 -40.1,7.02 -15.15,-34.71 9.26,-114.37 42.96,-79.65zm-14.6 64.46c3.18,-8.48 19.21,-50.02 6.01,-56.29 -15.18,-7.21 -23.14,102.53 -6.01,56.29zm76.89 -64c-32.99,51.96 -12.63,82.69 -26.34,88.73 -22.46,9.89 -19.54,-136.45 1.14,-119.15 7.13,5.96 -0.08,29.92 1.87,45.4 1.7,-2.67 25.67,-57.96 36.79,-30.19 7.92,19.74 -10.26,95.98 -4.44,112.57 5.04,14.36 -13.82,24.89 -15.03,-13.39 -1.19,-37.41 6.02,-63.77 6.02,-83.96zm63.15 -11.8c7.35,-3.92 10.63,-71.73 27.07,-60.6 13.8,9.34 -14.34,101.05 -5.02,148.43 5.52,28.05 -15.22,34.64 -20.19,-27.69l-1.29 -12.72c-4.07,14.43 -10.43,68.42 -27.64,65.13 -27.01,-5.16 -15.06,-141.98 27.07,-112.56zm-7.02 25.87c-18.33,-20.2 -19.12,91.83 -9.31,48.56l9.31 -48.56zm97.23 6.81c-1.02,82.44 -46.69,96.19 -55.55,40.17 -4.44,-28.04 -2.55,-54.52 11.75,-78.29 8.52,-14.18 14.55,-0.31 19.33,-2.04 21.95,-7.97 23.64,29.66 24.48,40.17zm-34.37 46.29c6.73,22.13 32.27,-25.48 20.92,-65.36 -6.03,-21.18 -36.52,16.15 -20.92,65.36zm-661.19 -259.79c6.68,-26.37 18.88,-80.64 46.54,-90.77 29.59,-10.84 15.9,83.08 -13.61,120.27 1.97,14.44 17.35,39.81 4.72,42.67 -6.58,1.49 -15.42,-20.1 -18.32,-26.1 -11.02,5.02 -21.08,10.59 -31.93,-9.99 -24.61,-46.66 8.27,-153.6 29.21,-137.75 14.49,10.97 -5.46,26.4 -13.32,63.77l-4.02 37.67c0.29,0 0.57,0 0.72,0.23zm30.36 4.09c23.66,-37.28 34.02,-107.42 5.44,-69.67 -19.13,25.27 -23.93,58.96 -30.65,89.41 3.16,2.28 6.16,2.05 9.03,-0.91 -5.53,-41.43 11.46,-41.34 16.18,-18.83zm87.34 -56.28c0.01,-0.02 1,-8.33 5.45,-6.35 9.46,4.19 -11.22,79.03 2.86,97.35 10.61,13.82 -18.99,25.17 -15.46,-28.14 0,-1.14 -0.15,-2.27 -0.28,-3.41 -2.85,7.38 -16.62,72.11 -32.95,41.08 -13.91,-26.44 -3.46,-109.05 11.89,-98.04 11.46,8.22 -2.47,50.79 2.29,74.43 3.36,16.65 24.94,-72.3 26.2,-76.92zm63.86 14.53c1.83,-8.82 3.56,-26.05 10.31,-23.38 14.92,5.91 -14.32,68.87 1.15,99.4 1.17,2.3 11.13,4.62 5.72,13.16 -7.69,12.16 -17.97,-11.05 -20.04,-16.57 -10.34,19.9 -25.28,40.94 -40.1,7.04 -15.51,-35.47 10.28,-114.66 42.96,-79.65zm-14.6 64.45c3.21,-8.48 19.19,-50 6.01,-56.28 -15.2,-7.24 -23.1,102.61 -6.01,56.28zm76.89 -64c-33.07,52.31 -12.6,82.7 -26.34,88.74 -22.49,9.88 -19.52,-136.49 1.13,-119.15 7.14,6 -0.07,29.78 1.87,45.39 1.82,-2.89 25.66,-57.89 36.79,-30.18 7.94,19.75 -10.27,95.81 -4.43,112.55 5.05,14.46 -13.91,24.77 -15.03,-13.38 -1.11,-37.9 6.01,-63.73 6.01,-83.97zm63.15 -11.8c7.33,-3.88 10.62,-71.73 27.05,-60.6 10.15,6.88 -1.64,57.27 -3.44,76.71 -1.17,12.61 -5.53,60.54 -0.57,75.8 4.4,13.53 -16.02,42.48 -21.63,-37.69 -0.14,-2.05 -0.42,-4.3 -0.85,-6.8 -4.15,14.34 -10.36,68.42 -27.63,65.12 -27.02,-5.15 -15.06,-141.98 27.07,-112.56zm-7.03 25.87c-18.31,-20.09 -19.17,91.74 -9.31,48.57l9.31 -48.57zm97.24 6.81c-1.04,82.52 -46.72,96.14 -55.56,40.16 -4.41,-27.9 -2.55,-54.6 11.75,-78.29 8.55,-14.17 14.54,-0.3 19.33,-2.05 21.98,-8.03 23.64,29.87 24.49,40.17zm-34.37 46.3c6.71,22.08 32.26,-25.38 20.91,-65.36 -5.98,-21.1 -36.5,15.89 -20.91,65.36zm105.82 -20.21c4.82,29.9 10.05,26.52 21.77,1.37 10.05,-21.57 17.05,10.97 -4.58,37.45 -28.77,35.22 -52.01,-53.86 -22.05,-107.35 16.82,-30.03 37.15,25.54 14.75,61.04 -2.43,3.85 -5.72,6.35 -9.88,7.48zm6.73 -60.36l-5.58 45.16c7.18,-11.32 13.04,-25.56 9.17,-40.39l-3.59 -4.77zm69.03 91.92c2.9,-18.74 -45.22,-59.19 -26.92,-106.22 16.13,-41.46 52.74,0.77 39.08,40.17 -3.11,8.95 -12.67,13.11 -13.75,0.44 -5.44,-63.89 -36.86,-21.59 -2.43,27.69 10.63,15.21 24.36,33.57 11.03,54.69 -25.49,40.37 -59.81,-33.67 -37.38,-38.35 6.36,-1.32 15.47,28.41 30.37,21.56zm59.7 -87.84c6.4,0.85 26.77,-0.25 19.48,15.89 -2.48,5.5 -16.05,6.68 -21.48,7.49 -1.02,17.34 -2.08,50.35 6.88,65.36 7.57,12.71 14.38,-16.79 9.45,-32.68 -6.45,-20.8 21.05,-12.25 10.3,35.86 -7.26,32.53 -47.54,42.87 -47.54,-67.85 -25.45,-7.61 -20.26,-33.99 -3.29,-28.6 1.72,0.68 3.58,1.14 5.58,1.37 0.04,-0.33 8.95,-96.48 25.05,-66.72 4.6,8.5 -3.27,57.55 -4.44,69.9zm33.94 52.43c1.4,-61.15 21.94,-47.94 21.34,-29.96l-0.87 73.99c-6.39,20.3 -21.24,-8.98 -20.47,-44.02zm7.17 -66.27c0,-30.88 27.37,-3.1 9.87,10.67 -6.42,5.05 -9.87,-4.08 -9.87,-10.67zm46.1 70.58l11.6 -72.61c1.23,-5.44 9.6,-15.35 8.31,11.34l-13.59 105.3c-18.26,34.89 -49.75,-117.75 -22.49,-116.19 12.73,0.73 9.81,45.64 15.46,72.17l0.72 0zm43.4 -0.46c4.62,30.52 10.4,25.74 21.76,1.37 10.05,-21.59 17.05,10.98 -4.58,37.45 -28.81,35.25 -52,-53.98 -22.06,-107.35 16.86,-30.04 37.15,25.58 14.75,61.04 -2.43,3.85 -5.72,6.35 -9.87,7.48zm6.72 -60.36l-5.58 45.16c6.82,-11.08 13.15,-24.73 9.17,-40.39l-3.58 -4.77zm62.87 22.69c-2.78,21.74 -11.59,27.26 -6.59,68.99 4.37,36.55 -27.4,53.8 -23.06,-63.54 0.34,-9.09 0.43,-47.53 12.04,-45.39 7.66,1.41 7.29,18.46 7.29,26.1 0.52,-0.61 13.43,-29.91 21.48,-8.63 3.97,10.49 4.6,55.49 -5.29,53.11 -6.87,-1.66 -4.86,-24.69 -4.86,-30.42 -0.15,0 -0.3,0 -0.43,-0.22 -0.15,0 -0.44,0 -0.58,0zm-987.75 -179.23c0.72,-0.23 1.01,-0.23 1.01,-0.23 19.52,-28.28 20.43,-55.43 30.36,-49.02 13.85,8.95 -12.11,65.89 -2.15,101.67 4.26,15.32 -15.23,27.86 -16.32,-24.96l-0.29 -19.51c-1.11,1.49 -15.16,27.45 -23.92,7.71 -17.08,-38.47 13.21,-140.63 40.23,-114.37 21.67,21.06 1.25,64.27 -4.72,35.86 -6.4,-30.47 -28.84,40.42 -24.21,62.86zm92.8 -74.89c0.02,-0.03 0.98,-8.33 5.44,-6.35 9.46,4.2 -11.21,79.05 2.86,97.35 10.56,13.74 -18.89,25.28 -15.46,-28.14 0,-1.14 -0.15,-2.28 -0.29,-3.41 -2.79,7.3 -16.69,72.19 -32.93,41.08 -17.12,-32.79 2.08,-125.81 15.6,-93.05 3.8,9.21 -10.94,118.58 9.45,48.57l15.33 -56.05zm37.51 61.96c4.84,30.54 10.17,25.8 21.77,1.36 10.26,-21.62 16.84,11.15 -4.58,37.44 -28.72,35.25 -52.06,-53.84 -22.04,-107.34 16.84,-30.01 37.14,25.54 14.75,61.05 -2.43,3.86 -5.73,6.35 -9.89,7.49zm6.73 -60.37l-5.58 45.15c13.42,-19.51 11.78,-43.76 5.58,-45.15zm91.21 86.24l-1 -80.8c-1.93,0.87 -6.59,22.22 -13.46,9.09 -13.13,-25.11 44.97,-104.05 71.6,-43.58 28.92,65.67 -32.64,180.52 -60,135.03 -6.68,-11.11 0.71,-16.37 2.86,-19.74zm16.32 0c44.97,-59.72 32.27,-132.77 1.14,-109.4l-1.14 109.4zm73.61 -25.87c4.19,27.28 9.15,28.99 21.77,1.36 9.82,-21.52 17.57,10.3 -4.58,37.44 -28.83,35.32 -52,-54.21 -22.07,-107.34 16.94,-30.06 37.1,25.7 14.77,61.05 -2.44,3.86 -5.74,6.35 -9.88,7.49zm6.73 -60.37l-5.59 45.15c13.44,-19.54 11.77,-43.75 5.59,-45.15zm80.33 -1.59c0,0 1,-8.33 5.45,-6.35 9.47,4.2 -11.22,79 2.87,97.35 10.46,13.65 -18.7,25.44 -15.47,-28.14 0,-1.14 -0.14,-2.28 -0.29,-3.41 -2.8,7.38 -16.66,72.1 -32.93,41.08 -13.97,-26.65 -3.38,-109.1 11.88,-98.04 11.46,8.31 -2.47,50.62 2.29,74.44 3.34,16.7 24.96,-72.37 26.21,-76.93zm54.13 93.5c2.94,-18.64 -45.24,-59.3 -26.93,-106.22 16.24,-41.6 52.83,1.17 39.1,40.17 -3.14,8.93 -12.67,13.15 -13.74,0.46 -5.41,-64.02 -36.92,-21.36 -2.44,27.69 10.7,15.23 24.33,33.63 11.03,54.7 -25.49,40.37 -59.81,-33.69 -37.38,-38.36 6.35,-1.32 15.55,28.46 30.36,21.57zm86.92 -74.89c13.53,-21.42 21.76,-29.98 24.35,10.44l1.42 22c1.81,-5.61 18.01,-89.7 33.37,-68.08 10.64,14.98 -2.28,83.08 6.44,111.43 7.07,22.98 -24.14,27.72 -25.77,-32.23l1.29 -34.95c-3.76,8.97 -10.7,61.3 -21.05,46.08 -5.14,-7.57 -7.03,-36.63 -7.73,-46.76 -22.3,57.32 -4.5,60 -13.47,76.93 -3.86,7.29 -13.13,8.68 -16.33,-6.12 -10.51,-48.64 -1.69,-134.25 14.75,-116.87 7,7.39 -0.31,38.13 2.72,38.13zm93.51 43.34c4.8,30.59 10.21,25.72 21.76,1.36 10.25,-21.64 16.87,11.17 -4.58,37.44 -28.76,35.24 -52.02,-53.83 -22.05,-107.34 16.81,-30 37.16,25.46 14.75,61.05 -2.43,3.86 -5.73,6.35 -9.88,7.49zm6.72 -60.37l-5.58 45.15c13.45,-19.56 11.77,-43.77 5.58,-45.15zm93.22 5.67c-7.32,14.14 -9.33,28.8 -15.46,23.6 -15.56,-13.18 29.2,-97.17 74.03,-79.21 27.25,10.92 23.58,70 -16.19,109.4 -7.44,7.49 -15.59,12.7 -24.32,15.65l-1.01 0.69c-0.15,0 -0.72,0.23 -1.44,0.9l1.86 26.79c5.56,15.7 -20.06,46.91 -18.61,-58.55l1.14 -39.26zm18.76 41.08c0.03,-0.05 27.9,-22.65 37.66,-56.74 9.1,-31.78 -34.05,-19.27 -34.65,-7.94l-4.58 64.68 1.58 0zm93.79 -24.05c-2.36,20.07 -11.59,26.37 -6.58,68.98 4.32,36.78 -27.41,53.5 -23.05,-63.54 0.34,-9.1 0.43,-47.52 12.03,-45.39 7.64,1.41 7.3,18.44 7.3,26.09 0.51,-0.61 13.45,-29.9 21.48,-8.62 3.96,10.5 4.59,55.52 -5.3,53.11 -6.87,-1.67 -4.86,-24.69 -4.86,-30.41 -0.15,0 -0.29,0 -0.42,-0.23 -0.15,0 -0.44,0 -0.59,0zm78.48 11.56c-1.05,82.56 -46.74,96.12 -55.56,40.17 -4.44,-28.13 -2.52,-54.47 11.74,-78.3 8.46,-14.16 14.59,-0.31 19.33,-2.04 21.97,-8.03 23.64,29.85 24.5,40.17zm-34.37 46.31c6.66,22.06 32.35,-25.36 20.91,-65.36 -6.04,-21.12 -36.47,15.93 -20.91,65.36zm81.32 -76.48c6.48,0.84 26.78,-0.23 19.49,15.88 -2.5,5.52 -16.05,6.66 -21.49,7.5 -1.01,17.24 -2.06,50.45 6.89,65.36 7.6,12.68 14.38,-16.81 9.44,-32.69 -6.46,-20.78 21.08,-12.28 10.31,35.86 -7.28,32.55 -47.54,42.83 -47.54,-67.86 -25.41,-7.49 -20.29,-34 -3.29,-28.59 1.72,0.68 3.58,1.12 5.58,1.36 0.04,-0.31 8.93,-96.42 25.07,-66.72 4.61,8.47 -3.3,57.57 -4.46,69.91zm54.14 56.28c4.79,30.23 10.25,26.06 21.77,1.36 10.05,-21.55 17.04,10.9 -4.59,37.44 -28.73,35.26 -52.05,-53.91 -22.05,-107.34 16.84,-29.99 37.15,25.47 14.75,61.05 -2.43,3.86 -5.73,6.35 -9.88,7.49zm6.73 -60.37l-5.58 45.15c13.4,-18.91 11.76,-43.77 5.58,-45.15zm52.68 101.89c7.91,-7.89 7.4,-64.47 6.74,-79.42 -7.64,4.03 -12.71,13.83 -23.05,-1.81 -3.86,-5.84 -1.95,-21.35 6.43,-16.12 17.66,11.04 20.29,-25.51 27.64,-10.66 7.09,14.31 6.3,179.38 -31.35,129.81 -15.21,-20.02 -6.42,-85.92 6.73,-71.04 8.46,9.57 -0.55,32.16 6.86,49.24zm8.89 -140.02c10.65,-1.69 3.29,31.47 -3.58,17.47 -3.65,-7.43 -0.95,-17.47 3.58,-17.47zm65.87 51.06c1.89,-8.95 3.54,-26.05 10.31,-23.38 14.98,5.89 -14.37,68.3 1.15,99.4 1.16,2.33 11.13,4.6 5.73,13.17 -7.68,12.19 -17.96,-11.09 -20.04,-16.58 -7.15,13.74 -19.54,38.79 -35.67,15.44 -24.08,-34.86 4.02,-124.69 38.52,-88.05zm-14.6 64.46c3.24,-8.58 19.46,-49.86 6.02,-56.29 -15.17,-7.26 -23.16,102.55 -6.02,56.29zm-1032.5 -293.84c-33.17,52.88 -12.57,82.66 -26.34,88.73 -22.46,9.89 -19.56,-136.45 1.15,-119.13 7.15,5.97 -0.1,29.83 1.86,45.38 1.95,-3.12 25.66,-57.83 36.8,-30.19 7.9,19.61 -10.25,96.06 -4.45,112.57 4.99,14.2 -13.77,25.16 -15.03,-13.39 -1.22,-37.29 6.01,-63.67 6.01,-83.96zm80.05 20.88c-1.05,82.53 -46.72,96.13 -55.56,40.17 -4.4,-27.83 -2.55,-54.63 11.75,-78.29 8.58,-14.19 14.58,-0.27 19.32,-2.04 21.94,-8.19 23.66,30.01 24.5,40.17zm-34.36 46.29c6.68,22.13 32.28,-25.42 20.9,-65.36 -6.03,-21.16 -36.52,16.15 -20.9,65.36zm122.43 11.35c2.9,-18.68 -45.22,-59.25 -26.92,-106.21 16.2,-41.57 52.77,1.03 39.1,40.17 -3.12,8.95 -12.68,13.12 -13.76,0.45 -5.45,-64.07 -36.88,-21.29 -2.42,27.69 10.74,15.28 24.29,33.65 11.03,54.7 -25.41,40.32 -59.85,-33.55 -37.38,-38.36 6.34,-1.36 15.51,28.47 30.37,21.56zm78.9 -57.64c-1.02,82.46 -46.72,96.17 -55.56,40.17 -4.41,-27.96 -2.55,-54.57 11.74,-78.29 8.54,-14.18 14.56,-0.29 19.33,-2.04 21.9,-8.04 23.65,29.69 24.49,40.17zm-34.36 46.29c6.6,21.96 32.27,-24.89 20.9,-65.36 -5.96,-21.21 -36.57,16.23 -20.9,65.36zm45.08 -95.09c0.36,-7.11 1.3,-47.43 14.9,-45.15 16.07,2.69 4.18,71.03 3.44,88.05 -0.86,19.95 3.42,79.32 -5.72,83.06 -18.86,7.71 -13.35,-116.13 -12.61,-125.96zm129.03 48.8c-1.02,82.53 -46.75,96.12 -55.55,40.17 -4.39,-27.94 -2.57,-54.58 11.74,-78.29 8.56,-14.18 14.54,-0.29 19.33,-2.04 21.91,-8.01 23.65,29.67 24.49,40.17zm-34.37 46.29c6.71,22.07 32.22,-25.25 20.91,-65.36 -5.96,-21.13 -36.54,16 -20.91,65.36zm90.36 -82.15c0.02,-0.03 1.01,-8.33 5.45,-6.36 9.45,4.2 -11.2,79.03 2.86,97.36 10.55,13.77 -18.85,25.26 -15.47,-28.14 0,-1.13 -0.14,-2.26 -0.29,-3.4 -2.73,7.51 -16.69,72 -32.92,41.08 -13.92,-26.52 -3.46,-109.05 11.89,-98.05 11.44,8.21 -2.49,50.81 2.28,74.45 3.36,16.63 24.94,-72.32 26.2,-76.94zm103.25 14.98c-33.06,52.36 -12.61,82.69 -26.35,88.73 -22.47,9.88 -19.55,-136.47 1.14,-119.13 7.15,5.98 -0.1,29.84 1.86,45.38 1.79,-2.83 25.71,-57.93 36.81,-30.19 7.88,19.69 -10.26,96.09 -4.45,112.57 4.99,14.18 -13.78,25.19 -15.04,-13.39 -1.22,-37.25 6.02,-63.85 6.02,-83.96zm68.3 -0.46c1.87,-8.92 3.55,-26.04 10.31,-23.38 14.89,5.86 -14.33,68.97 1.14,99.4 1.2,2.36 11.12,4.6 5.73,13.16 -7.68,12.2 -17.96,-11.07 -20.05,-16.56 -10.32,19.92 -25.3,40.91 -40.1,7.04 -15.15,-34.69 9.25,-114.39 42.96,-79.66zm-14.6 64.45c3.19,-8.47 19.2,-50.02 6.01,-56.29 -15.14,-7.18 -23.2,102.48 -6.01,56.29zm94.35 -22.7c-0.93,53.91 23.86,17.63 25.64,6.35 1.95,-12.34 18.51,0.54 -1.73,29.75 -44.64,64.43 -57.45,-103.88 -14.02,-115.3 25.91,-6.82 32.41,59.39 16.04,58.1 -8.24,-0.65 -8.38,-42.79 -19.77,-16.58l-6.16 37.67zm81.19 -28.36c-26.65,24.66 -9.51,73.19 -23.48,77.61 -23.99,7.59 -18.93,-174.91 4.43,-153.41 7.71,7.1 -2,59.84 0.72,80.56 3.41,-5.39 25.56,-43.24 29.21,-7.94l-2.14 74.2c-1.22,9.71 -11.06,13.4 -11.88,-21.78l3.14 -49.25zm66.59 -27.92c0.01,-0.03 1,-8.33 5.45,-6.36 9.45,4.19 -11.21,79.15 2.86,97.36 10.52,13.62 -18.76,25.46 -15.46,-28.14 0,-1.13 -0.14,-2.26 -0.29,-3.4 -2.77,7.32 -16.72,72.17 -32.94,41.08 -13.94,-26.72 -3.41,-109.03 11.89,-98.05 11.45,8.22 -2.44,50.56 2.29,74.45 3.32,16.72 24.95,-72.36 26.21,-76.94zm42.81 62.42l11.6 -72.63c1.28,-5.6 9.61,-15.15 8.31,11.35l-13.6 105.3c-18.34,34.79 -49.72,-117.71 -22.48,-116.19 12.71,0.71 9.81,45.67 15.45,72.17l0.72 0zm69.73 -47.89c1.88,-8.93 3.55,-26.03 10.31,-23.38 14.89,5.86 -14.3,68.92 1.15,99.4 1.18,2.33 11.12,4.61 5.73,13.16 -7.68,12.18 -17.96,-11.06 -20.05,-16.56 -10.29,20.02 -25.29,40.81 -40.09,7.04 -15.44,-35.24 10.04,-114.63 42.95,-79.66zm-14.6 64.45c3.23,-8.53 19.47,-49.9 6.01,-56.29 -15.24,-7.22 -23.05,102.67 -6.01,56.29zm-1172.74 -212.14c19.57,12.04 51.02,-42.09 -12.17,-50.38 -53.93,-7.08 21.48,-149.9 46.39,-83.51 14,37.3 -20.58,61.8 -16.9,27.9 3.06,-28.11 -25.98,21.17 -28.21,29.05 -5.65,19.99 21.58,0.83 41.95,39.95 23.22,44.59 -35.26,90.26 -45.38,43.8 -7.51,-34.48 21.69,-40.21 13.6,-12.49 -0.43,1.59 -0.15,3.41 0.72,5.67zm62.71 -34.71c4.57,28.57 9.55,27.83 21.77,1.36 9.93,-21.53 17.48,10.42 -4.58,37.45 -28.8,35.29 -52.01,-54.12 -22.06,-107.35 16.9,-30.02 37.11,25.6 14.76,61.04 -2.43,3.86 -5.74,6.36 -9.89,7.5zm6.73 -60.37l-5.58 45.17c6.77,-10.55 15.16,-30.48 8.02,-43.58 -0.58,-0.91 -1.43,-1.36 -2.44,-1.59zm52.7 101.9c7.94,-8 7.33,-64.39 6.73,-79.43 -7.61,3.98 -12.7,13.85 -23.07,-1.82 -3.83,-5.8 -1.95,-21.35 6.45,-16.11 17.66,11.03 20.27,-25.51 27.64,-10.66 7.1,14.31 6.26,179.45 -31.37,129.8 -15.2,-20.05 -6.41,-85.91 6.74,-71.02 8.47,9.59 -0.55,32.36 6.88,49.25zm8.88 -140.03c10.63,-1.67 3.29,31.46 -3.58,17.48 -3.64,-7.39 -0.98,-17.48 3.58,-17.48zm65.86 51.07c1.91,-8.97 3.55,-26.06 10.32,-23.38 14.89,5.9 -14.31,68.85 1.15,99.4 1.17,2.32 11.12,4.6 5.72,13.16 -7.65,12.13 -17.99,-11.04 -20.04,-16.57 -10.32,19.97 -25.3,40.88 -40.1,7.03 -15.91,-36.38 11.4,-114.91 42.95,-79.65zm-14.6 64.45c3.24,-8.56 19.48,-49.9 6.01,-56.28 -15.23,-7.22 -23.05,102.68 -6.01,56.28zm120.28 -64c-33.12,52.56 -12.58,82.7 -26.35,88.74 -22.46,9.86 -19.53,-136.47 1.15,-119.15 7.14,5.98 -0.11,29.99 1.86,45.39 1.74,-2.74 25.67,-57.94 36.8,-30.18 7.92,19.74 -10.27,95.94 -4.44,112.56 5.06,14.4 -13.87,24.82 -15.03,-13.39 -1.14,-37.75 6.01,-63.7 6.01,-83.97zm68.3 -0.45c1.87,-8.9 3.55,-26.05 10.3,-23.38 14.92,5.9 -14.33,68.91 1.15,99.4 1.17,2.32 11.14,4.63 5.73,13.16 -7.71,12.16 -17.95,-11.07 -20.05,-16.57 -10.29,19.99 -25.33,40.86 -40.1,7.03 -15.58,-35.69 10.56,-114.73 42.96,-79.65zm-14.6 64.45c3.2,-8.45 19.2,-50.03 6.02,-56.28 -15.19,-7.2 -23.16,102.53 -6.02,56.28zm98.37 -90.56c-6.4,5.1 -17.07,29.9 -21.62,11.36 -6.63,-27.07 60.5,-76.27 90.92,-48.11 30.92,28.62 -36.44,84.44 -46.68,97.59 6.79,6.41 21.01,26.31 35.52,33.81 9.7,5.02 7.34,37.32 -14.04,14.75l-28.92 -36.09 -0.14 54.24c-8.93,21.24 -15.15,-20.9 -15.46,-25.19 -3.4,-46.45 -1.72,-55.67 0.57,-99.63l-0.15 -2.73zm17.18 46.53c0.44,-0.23 0.86,-0.46 1,-0.68 0.01,0 40.03,-46.08 43.1,-57.88 0.29,-1.36 0.72,-2.72 1.15,-3.86 -9.03,-11.09 -30.5,-4.73 -41.24,0.91l-4.02 61.51zm78.04 27.01c4.83,30.48 10.21,25.84 21.77,1.36 10.21,-21.64 16.9,11.17 -4.57,37.45 -28.81,35.26 -52.02,-54.02 -22.06,-107.35 16.86,-30 37.12,25.52 14.74,61.04 -2.43,3.86 -5.73,6.36 -9.88,7.5zm6.73 -60.37l-5.58 45.17c6.94,-11.16 13.14,-25.17 9.17,-40.4l-3.58 -4.77zm60 4.08c6.49,0.87 26.71,-0.27 19.47,15.89 -2.46,5.49 -16.06,6.69 -21.47,7.49 -1.03,17.45 -2.07,50.21 6.86,65.36 7.49,12.73 14.44,-16.6 9.45,-32.68 -6.44,-20.77 21.05,-12.33 10.31,35.86 -7.24,32.47 -47.54,42.94 -47.54,-67.86 -25.47,-7.62 -20.24,-33.99 -3.29,-28.6 1.72,0.69 3.58,1.13 5.58,1.37 0.03,-0.23 8.95,-96.52 25.07,-66.73 4.6,8.5 -3.32,57.53 -4.45,69.9zm80.47 8.86c1.86,-8.86 3.54,-26.05 10.31,-23.38 14.92,5.9 -14.37,68.98 1.14,99.4 1.17,2.29 11.15,4.65 5.74,13.16 -7.72,12.16 -17.95,-11.06 -20.05,-16.57 -10.33,19.98 -25.28,40.87 -40.1,7.03 -15.54,-35.46 10.29,-114.66 42.96,-79.65zm-14.61 64.45c3.19,-8.44 19.21,-50.04 6.02,-56.28 -15.28,-7.23 -23.01,102.74 -6.02,56.28zm136.04 -43.12c-1.04,82.57 -46.74,96.11 -55.56,40.16 -4.4,-27.87 -2.56,-54.61 11.74,-78.29 8.56,-14.17 14.52,-0.3 19.33,-2.04 22,-7.96 23.63,29.77 24.49,40.17zm-34.36 46.3c6.69,22.07 32.25,-25.33 20.9,-65.36 -6,-21.16 -36.52,16.08 -20.9,65.36zm90.34 -82.15c0,-0.01 1.02,-8.33 5.45,-6.36 9.47,4.22 -11.21,79 2.86,97.36 10.7,13.96 -19.16,24.95 -15.45,-28.14 0,-1.13 -0.16,-2.27 -0.29,-3.41 -2.78,7.34 -16.69,72.16 -32.93,41.08 -13.95,-26.69 -3.39,-109.09 11.88,-98.03 11.46,8.31 -2.47,50.64 2.29,74.45 3.34,16.66 24.94,-72.34 26.2,-76.94zm103.25 14.97c-33.11,52.55 -12.6,82.7 -26.34,88.74 -22.48,9.88 -19.52,-136.49 1.14,-119.15 7.16,6.01 -0.1,29.83 1.87,45.39 1.79,-2.85 25.69,-57.91 36.8,-30.18 7.89,19.67 -10.26,96 -4.45,112.56 5,14.25 -13.82,25.09 -15.04,-13.39 -1.19,-37.36 6.02,-63.85 6.02,-83.97zm68.29 -0.45c1.9,-9 3.55,-26.05 10.33,-23.38 14.86,5.87 -14.29,68.9 1.14,99.4 1.16,2.31 11.12,4.62 5.72,13.16 -7.69,12.17 -17.95,-11.08 -20.04,-16.57 -10.28,20.09 -25.33,40.75 -40.1,7.03 -15.59,-35.59 10.53,-114.76 42.95,-79.65zm-14.59 64.45c3.2,-8.48 19.2,-50.02 6.01,-56.28 -15.17,-7.2 -23.15,102.53 -6.01,56.28zm116.41 12.26c30.9,-10.34 29.92,-50.98 38.94,-34.04 10.83,20.33 -41.76,96.82 -69.3,46.75 -29.87,-54.31 15.26,-198.23 54.27,-143.2 29.78,42 -15.01,98.12 -23.77,65.81 -4.39,-16.21 8.83,-2.6 16.31,-17.7 17.16,-34.62 -33.91,-69.72 -35.5,44.71 -0.16,10.97 0.73,44.1 19.05,37.67zm95.79 -91.24c0.02,-0.02 1.02,-8.32 5.45,-6.36 9.47,4.2 -11.21,79.08 2.86,97.36 10.58,13.74 -18.89,25.29 -15.47,-28.14 0,-1.13 -0.14,-2.27 -0.28,-3.41 -2.81,7.24 -16.68,72.25 -32.94,41.08 -17.11,-32.8 2.1,-125.83 15.61,-93.05 3.77,9.12 -10.89,118.65 9.46,48.56l15.31 -56.05zm47.97 24.28c-2.29,19.68 -11.62,26.54 -6.58,68.99 4.32,36.4 -27.36,54.06 -23.05,-63.54 0.33,-9.06 0.43,-47.52 12.03,-45.39 7.64,1.4 7.31,18.48 7.31,26.1 0.5,-0.6 13.42,-29.92 21.47,-8.62 3.97,10.5 4.58,55.52 -5.29,53.1 -6.88,-1.69 -4.87,-24.67 -4.87,-30.42 -0.15,0 -0.29,0 -0.44,-0.23 -0.15,0 -0.43,0 -0.57,0zm45.69 38.12l11.6 -72.61c1.27,-5.6 9.64,-15.15 8.31,11.34l-13.61 105.3c-18.37,34.78 -49.68,-117.74 -22.49,-116.19 12.88,0.73 9.61,45.62 15.47,72.16l0.72 0zm69.73 -47.88c1.91,-8.97 3.53,-26.06 10.31,-23.38 15.01,5.95 -14.44,68.35 1.15,99.4 1.15,2.29 11.12,4.62 5.73,13.16 -7.66,12.12 -18.01,-11.01 -20.04,-16.57 -10.35,19.95 -25.28,40.9 -40.11,7.03 -15.64,-35.71 10.77,-114.87 42.96,-79.65zm-14.6 64.45c3.23,-8.55 19.47,-49.9 6,-56.28 -15.2,-7.2 -23.09,102.6 -6,56.28zm-101.93 985.04l-1.04 -3.47c-1.84,2.94 0.76,3.16 1.04,3.47zm-0.47 -4.34c2.23,0.45 8.76,3.31 7.7,-1.44 -2.77,-0.94 -11.58,-3.96 -7.7,1.44zm-0.93 -6.12l0 0zm8.88 21.91c-0.11,6.73 10.04,1.18 5.07,-3.78l-5.07 3.78zm134.6 -143.5c1.24,-3.1 -3.38,-4.62 -1.23,-8.56 2.13,-3.87 -7.77,-1.73 -5.32,3.64l6.55 4.91zm27 84.58c10.82,-3.26 -3.61,-13.17 -5.61,-15.78 -9.83,4.7 1.3,11.62 5.61,15.78zm-77.33 -78.54l1.76 0.63c0.15,0.35 0.23,0.67 0.34,0.96l-1.62 -0.02 -0.48 -1.56zm7.27 -4.08l1.14 -0.09 1.13 6.85c-4.26,4.12 -2.68,5.21 -3.95,5.73 -1.71,-2.86 4.99,-8.42 1.68,-12.49zm-20.68 9.16l0.98 2.08c2.05,-0.34 5.71,1.31 7.28,0.15 4.6,-3.51 -2.23,-2.83 5.58,1.65l4.5 0.51 12.29 0.47c8.02,1.44 19.12,-13.03 9.79,-20.94 -5.5,-4.65 -12.7,-0.87 -15.12,1.9l11.14 2.82 -10.23 -0.59 -1.47 7.36c-0.25,-0.94 0.27,-3.59 0.02,-5.16 -0.44,-3.04 -6.18,-7.07 -9.18,-1.76 0.95,1.36 1.77,1.08 3.63,1.28l-4.49 0.28c-3.47,-0.85 -6.76,4.86 -14.74,3.46 -1.84,-4.72 -48.32,-4.9 -60.98,-14.38l-8.93 -5.48 0.86 -3.67c26.46,24.33 23.65,-6.84 22.77,-7.25l-1.61 -9.08 -11.35 -3.8c-4.03,8.33 6.84,27.34 10.17,16.54 2.54,-8.23 6.82,10.57 -5.97,3.61 -8.33,-4.53 -9.5,-20.17 -9.1,-22.89 2.67,-0.66 16.73,3.72 18.38,5.18 0.07,3.03 -0.58,7.46 0.54,9.74 4.3,-9.63 0.01,-45.15 -34.24,-32.61 -7.44,2.73 -1.14,-6.23 -5.18,12.49 -5.21,24.14 3.56,19.77 6.25,21.49l-5.09 0.07c-1.09,-1.9 -4.43,-3.2 -6.97,0.77 -6.68,0.26 -0.73,2.06 -7.04,4.9 -12.84,5.78 -12.85,22.07 -18.53,29.05 -1.87,2.31 -4.16,2.55 -4.23,4.33 10.33,0 12.32,-17.85 14.42,-18.49 0.24,0.46 -7.16,27.39 -18.14,32.14 7.23,5.91 27.93,-23.39 28.66,-37.4 0.43,-8.28 7.87,-13.85 10.45,-13.19 -1.4,1.47 -2.07,0.08 -2.14,2.21 -1.24,0.11 -1.33,-0.17 -1.99,0.63 1.51,2.13 6.82,-3.83 15.28,2.92 -11.09,1.04 -15.17,-8.33 -20.07,7.35l-7.22 19.63c-0.63,0.81 -2.36,2.71 -2.49,3.62l7.45 -9.79 0.49 45.55 2.45 2.68c-1.39,1.02 -1.53,-1.37 -3.14,-1.54l-0.71 9.26c-3.4,8.35 -1.63,2.06 0.64,7.89 -9.4,10.71 8.15,40 46.65,23.79 19.69,-8.29 18.2,-18.19 31.4,-17.22 -3.5,2.41 -16.5,2.37 -12.88,11.25 0.38,0.93 1.52,1.43 1.06,2.6 -5.41,-3.68 1.13,-13.8 -15.53,11.13 -3.69,5.56 -9.81,15.08 -13.76,19.89 -4.04,4.94 -19.66,8.92 -10.65,21.94 2.18,-1.12 1.66,-0.86 3.54,-3.23 4.77,2.74 0.43,9.52 3.81,12.73 2.52,2.4 8.07,7.04 10.89,7.19 9.36,-14.07 -21.7,-10.01 15.95,-42.69 5.76,-5 17.28,-13.52 15.92,-18.17 1.55,-2.11 24.75,-23.67 7.77,-34.74l-51.85 0.16 2.96 -48.49c-2.5,-6.38 -16.92,-1.57 -17.06,-1.57 7.19,-8.47 25.52,5.64 46.85,1.77 1.6,-0.3 1.39,-1.3 2.74,-0.65l-1.47 1.09 24.05 -0.77c3.01,-0.02 5.31,1.46 5.92,-2zm21.94 -0.12c0.04,-0.02 0.07,-0.02 0.1,-0.02 -0.04,0.03 -0.08,0.02 -0.1,0.02zm56.68 62.98c7.38,-10.72 10.52,-1.65 -13.68,-27.41 -4.36,-4.64 -7.74,6.06 -7.74,6.08l21.42 21.33zm-10.12 -25.72l15.46 15.81c3.77,-3.34 -2.84,-10.57 -0.13,-18.41 2.07,-6.02 9.1,-13.72 9.26,-14.57 -2.24,-1.97 -19.63,7.74 -25.15,16.1l0.56 1.07zm-186.18 91.76c-3.1,7.21 22.92,9.28 26.81,10.03l7.72 -15.63c-8.28,-3.2 -25.24,5.16 -34.54,5.6zm175.93 -77.28l0.12 0.01c-0.02,0.18 -8.1,26.09 -3.97,32.49 5.48,-4.17 -6.89,-7.92 23.05,-19.8l-15.76 -17.04c-2.5,0.2 -1.71,2.75 -3.44,4.34zm44.57 34.44l2.08 -2.43c-0.25,1.27 -0.95,2.06 -2.08,2.43zm-1.14 -14.24c8.08,-3.36 9.23,9.64 4.43,10.07 -0.3,-1 0.46,-4.23 -1.8,-2.77l-2.63 -7.3zm-1.4 15.59c12.77,10.07 21.44,-22.16 4.44,-22.45 -6.84,-0.12 -8.94,4.59 -12.47,8.92l6.62 8.87 -4.42 -3.76c-1.58,0.27 -2.67,9 1.87,11.38 1.17,-0.83 2.08,-2.92 3.96,-2.97zm-138.1 47.45c-13.2,-0 -15.44,-8.4 -6.54,17.75 1.28,3.73 0.9,8.91 2.38,11.97 10.49,-0.33 13.27,-16.09 13.94,-17.13 1.6,-1.44 3.78,2.83 5.96,2.07 23.6,-10.93 14.27,-17.72 5.91,-13.28l-21.66 -1.38zm17.26 -40.37l2.96 -5.68 -13.58 13.83c-0.89,26.09 4.47,20.62 7.58,23.73 -13.83,0.78 -4.55,-14.4 -10.04,-22.32 -5.96,5.39 -31.76,26.56 -12.79,28.06l40.47 -0.32c1.03,-7.68 3.21,-4.11 -7.43,-10.53 -3.48,-2.18 -3.3,-2.59 -4.63,-0.85l-2.53 -25.93zm66.24 -36.05l-18.46 30.38 0.08 21.11c-4.12,9.5 -7.26,-1.21 -13.97,17.47 -0.59,1.77 -3.26,10.12 -3,11.12l39.73 -24.49c-7.87,-32.09 -9.41,-16.67 -2.86,-55.07 0.29,-2.22 -0.87,-1.23 -1.52,-0.51zm8.53 -79.37c11.13,-7.66 23.23,13.79 23.24,13.88 -6.87,4.32 -23.66,-7.01 -23.24,-13.88zm23.47 10.61c-9.54,-5.1 -5.18,-19.85 -36.58,-24.54 -22.64,-3.38 -37.24,-9.87 -34.77,5.26 1.24,7.59 38.21,7.61 40.6,17.15 -3.95,1.83 0.81,5.29 -3.99,13.26 -3.7,6.14 12.09,-4.54 30.93,-2.29 19.65,2.35 7.81,0.31 3.81,-8.84zm-137.3 53.05c-9.45,10.39 5.08,5.95 24.12,4.26 3.33,-0.3 24.26,0.22 27.05,1.67l36.13 -39.54c0.87,-0.68 0.96,-0.44 0.87,-2.02 -59.77,0.66 -58.24,2.81 -88.17,35.63zm-103.73 61.58l0 2.7 37.04 -2.42 13.93 -4.71c-0.53,-1.6 -0.1,-0.46 -1.05,-1.49l16.24 6.75 32.1 -16.08 -23.01 14.93c8.21,-0.19 18.94,9.67 18.84,4.94 -0.51,-1.5 -0.83,-0.69 -1.87,-1.33 5.75,-0.79 7.76,4.61 14.55,-7.02 18.58,-31.82 24.28,-20.91 -8.75,-15.16 -18.51,3.22 -16.93,-7.18 -39.27,-1.53l-26.56 2.87c0.22,-1.13 0,0.15 1.14,-1.8l17.66 -1.89c0.01,-0.03 -1.74,-9.33 -8.19,-6.39 -9.29,4.22 -38.61,12.46 -41.35,23.04 -1.1,4.23 0.07,4.43 -1.45,4.6zm249.77 -58.44c0.56,-1.47 18.47,-14.44 37,1.03 33.29,27.79 -2.45,88.27 -36.89,61.51 -11.47,-8.91 -16.63,-24.65 -13.61,-39.59 -0.06,-0.02 -29.62,-1.87 -7.87,41.3 15.09,29.95 65.81,33.36 81.87,-7.12 20.27,-51.09 -20.36,-90.06 -51.75,-81.39 -9.39,2.59 -13.16,22.06 -8.75,24.26zm-96.49 37.17l10.43 -5.96 0.02 16.3c-0.04,0.07 -6.13,1.74 -3.01,14.99 0.67,0.4 2.06,0.38 2.76,0.81 -2.21,0.67 -2.56,0.93 -4.6,-0.03 -0.2,-31.71 4.19,-6.88 4.14,-19.86 -0.08,-16.34 -2.59,-10.92 -9.74,-6.25zm20.22 14.09l1.17 -25.32 1.39 0.01 -2.56 25.31zm1.61 -29.14l0 0zm22.96 3.28c0.18,-2.29 16.66,-27.64 18.03,-28.1 3.36,-10.15 31.68,-32.21 32.19,-41.77 -10.46,-5.41 -39.15,2.16 -54.37,13 -3.56,2.53 -43,31.98 -37.17,38.84 2.94,3.47 2.19,4.59 3.24,7.14 15.69,-0.53 14.51,-12.33 33.11,-29.75l16.03 -4.1c-0.15,4.82 -11.96,0.88 -16.66,6.36 -21.87,25.47 -17.68,28.95 -32.47,28.84 -2.8,4.39 -0.48,9.25 -9.27,18.6 -9.13,9.7 -1.21,6.74 -4.24,11.12 -4.41,6.36 -1.43,25.15 1.03,26.39l11.51 5.76 13.59 -15.76 -9.19 10.02 -7.85 26.58c-3.57,-2.33 -13.04,9.57 -16.62,6.35 -0.65,-0.58 -0.81,-1.07 -1.55,-1.45l-7.39 15.74 38.27 -19.43c2.21,-1.41 22.1,-69.87 29.78,-74.39zm-137.95 109.72c1.28,-1.66 13.09,-7.23 10.68,-0.28 -3.75,-6.08 -9.23,2.64 -10.68,0.28zm18.75 2.27c4.08,25.63 -32.91,20.46 -25.13,-2.07 1.1,-3.17 4.08,-8.47 6.78,-8.62 -0.36,5.64 -5.02,6.5 -3.25,12.57l-1.34 -0.58c-3.47,12.26 17.72,21.01 20.25,3.25 0.31,-2.17 0.44,-3.93 -0.92,-4.82 -0.63,0.85 -10.9,16.31 -11.8,8.23l10.71 -8.49c2.87,-3.58 0.92,-2.58 3.36,-3.62l1.35 4.15zm12.61 -23.07c-2.72,4.85 11,11.68 2.33,20.47l-14.14 11.28c0.04,-0.99 2.79,-6.83 -1.09,-15.14l12.91 -16.62zm1.45 -2.41c0,-1.29 0,-1.41 0.97,-1.6 -0.04,1.24 -0.14,1.39 -0.97,1.6zm2.09 -3.29c0.38,-1.74 4.39,-6.76 4.99,-6.04 -0.41,1.48 -1.85,2.83 -2.88,3.85 0.01,1.13 0.24,1.4 0.47,2.21l-2.58 -0.02zm-62.31 -10.1c-0.8,3.09 -27.34,26.9 -7.95,70.88 0.57,1.29 3.14,4.94 3.29,5.84 0.18,0.12 36.26,48.16 74.17,1.9 11.44,-13.95 17.32,-54.94 6.28,-54.85 -1.69,0.01 -3.28,-0.24 -5.09,-0.3 -0.37,-0.75 -0.29,-1.02 -0.88,-1.82 15.79,-4.15 20.74,14.73 12.69,-20.53l-1.64 0c-4.05,7.11 -4.95,-1.47 -10.68,-1.4l-2.09 2.74c-0.02,-1.1 0.89,-2.07 1.79,-3.03 -2.2,-4.5 -2.35,-0.94 -5.78,-7.54l-4.85 -1.93 -4.36 -11.3 -3.57 -1.02 -15.89 33.25c-12.96,29.49 -6.49,5.14 -15.56,24.07 -4.24,8.86 4.12,36.28 26.59,16.4l17.9 -15.28c10.56,10.51 -24.43,73.43 -57.76,26.18 -11.66,-16.54 -4.38,-49.38 16.56,-56.75 9.06,-2.82 6.51,-0.97 14.17,-1.69 6.46,-15.85 -3.95,-3.43 -20.49,-12.23 -5.35,-2.85 -6.62,-0.8 -16.87,8.41zm40.64 -86.8l-2.73 -0.26c-0.18,-0.61 -0.31,-0.8 -0.56,-1.32 1.48,-0.1 8.53,-1.04 9.33,-0.03l-6.04 1.61zm15.78 -93.1c-1.16,0.2 -2.53,-0.5 -3.43,-1.29 0.06,-0.69 0.21,-0.6 0.52,-1.4 0.1,0.1 2.54,2.39 2.9,2.69z"/>
 </g>
</svg>
