<?xml version="1.0" encoding="UTF-8"?>
<!DOCTYPE svg PUBLIC "-//W3C//DTD SVG 1.1//EN" "http://www.w3.org/Graphics/SVG/1.1/DTD/svg11.dtd">
<!-- Creator: CorelDRAW -->
<svg xmlns="http://www.w3.org/2000/svg" xml:space="preserve" width="113.082mm" height="157.058mm" version="1.1" style="shape-rendering:geometricPrecision; text-rendering:geometricPrecision; image-rendering:optimizeQuality; fill-rule:evenodd; clip-rule:evenodd"
viewBox="0 0 7124.95 9895.77"
 xmlns:xlink="http://www.w3.org/1999/xlink"
 xmlns:xodm="http://www.corel.com/coreldraw/odm/2003">
 <defs>
  <style type="text/css">
   <![CDATA[
    .fil0 {fill:black}
   ]]>
  </style>
 </defs>
 <g id="Camada_x0020_1">
  <metadata id="CorelCorpID_0Corel-Layer"/>
  <path id="Aranha.cdr" class="fil0" d="M3785.29 8080.07c-8.87,-47.2 -2.79,-55.65 42.03,-70.76l34.56 16.09 -6.32 62.58 -70.27 -7.91zm26.06 -206.15c1.95,-33.86 6.09,-50.71 32.6,-67.69 28.01,-17.95 33.72,-7.81 54.02,4.58 -15.65,35.66 -32.91,58.1 -86.62,63.11zm3165.1 -455.96c0,-34.11 10.74,-38.73 33.68,-54.58 45.92,14.36 58.45,23.39 58.45,74.23 0,47.87 5.91,74.23 -35.44,102.42 -29.9,-12.43 -20.46,-1.71 -41.16,-37.99 -19.4,-33.99 -15.52,-42.52 -15.52,-84.07zm-2162.58 207.06c128.55,0 343.76,-69.84 435.66,-119.93 161.41,-88 242.22,-208.33 308.43,-211.96 -15.11,117.39 -450.82,449.78 -652.1,449.78l-241.47 0c-141,0 -614.84,-129.15 -615.39,-282.16 160.74,-36.08 290.85,164.27 764.87,164.27zm-1287.85 -1170.56c37.99,10.9 38.96,25.01 55.09,90.96l89.94 336.57c26.87,69.57 59.11,131.8 94.86,193.6 26.58,45.95 102.44,136.2 47.58,194.36 -222.67,-69.04 -320.68,-770.27 -287.46,-815.49zm380.49 646.99c-1.88,-21.04 39.54,-162.56 49.38,-200.41 21.29,-81.95 8.08,-121.74 60.93,-193.18 39.78,-53.77 57.12,-99.78 88.84,-169.97 62.99,-139.39 114.91,-75.44 104.68,-29.92 -31.44,139.72 -172.61,717 -219.25,783.27 -134,-34.2 3.1,-174.91 33.91,-279.27 -99.87,26.24 -10.06,69.03 -118.5,89.46zm203.82 -989.71c51.12,-81.88 126.77,-45.95 174.57,0 -47.52,107.63 -153.17,38.45 -174.57,0zm521.09 -147.32c0,-161.87 160.49,-263.79 331.93,-263.79 227.87,0 404.56,152.44 512.71,307.08 109.35,156.33 189.03,384.96 15.36,535.48 -332.51,288.21 -860.01,-249.24 -860.01,-578.77zm2103.83 39.39c60.75,-48.45 99.42,-69.92 194.35,-31.04 -1.74,40.22 -19.89,60.6 -45.45,77.57 -80.52,12.77 -116.06,-8.49 -148.9,-46.52zm-2605.59 -8.54c-5.82,-16.68 -26.12,-55 -26.88,-72.84 -2,-47.12 15.36,-37.9 64.45,-40.76 66.23,-3.86 113.89,3.11 136.61,53.27 -37.6,73.49 -67.6,60.32 -174.18,60.32zm1753.48 -70.15c44.64,-82.55 549.3,-192.21 549.3,-39.28 0,117.97 -485.56,78.59 -549.3,39.28zm583.78 -185.67c-17.19,-32.4 -17.18,-38.52 -0.36,-71.08 15.46,3.95 41.64,-4.57 33.64,36.16 -8.45,43.04 -10.83,25.82 -33.28,34.92zm-2135.45 -218.69c-7.13,146.98 -214.38,155.41 -232.59,88.98 -12.56,-45.83 37.82,-112 76.84,-121.89 50.41,-12.78 125.19,19.63 155.75,32.91zm-1002.82 84.96c1.79,-72.09 44.72,-121.95 134.34,-88.66 2.21,40.97 -32.58,94.64 -63.46,123.1 -54,-5.85 -37.26,-11.4 -70.88,-34.43zm1089.63 -148.17c5.7,-15.44 -10.14,-28.89 70.73,-55.91 37.96,-12.68 66.06,-13.08 105.37,-16.65 288.21,-26.2 409.75,-20.6 655.63,89.04 123.75,55.18 88.68,12.03 101.92,60.55 -47.06,46.1 -142.99,0.72 -209.13,-17.84 -229.48,-64.41 -648.26,-43.97 -724.51,-59.19zm-285 -337.77c0,-52.21 126.32,-36.15 139.52,-6.96 17.05,37.75 -35.63,83.91 -79.86,83.91 -36.14,0 -59.67,-41.45 -59.67,-76.95zm282.3 -20.95c5.02,-99.65 127.28,-72.27 156.62,-8.51 -34.57,32.83 -79.35,45.6 -139.06,30.82l-17.55 -22.31zm363.75 -0.28c-1.7,-31.46 -6.7,-19.66 8.28,-49.59 14.38,-28.71 11.69,-18.46 26.26,-29.17 93.59,8.81 47.98,100.14 -34.54,78.77zm-804.87 -134.59c97.48,4.03 76.07,102.23 21.45,126.76 -93.34,41.92 -46.69,-90.3 -21.45,-126.76zm833.17 -82.9c48.23,-9.27 73.64,-21.84 122.81,-18.32 -0.34,51.25 2.51,47 -23.81,78.72 -56.77,6.28 -83.63,-18.3 -99,-60.4zm-237.33 51.66c-154.32,-14.52 29.92,-131.01 0,0zm1597.56 -76.99c-2.04,-84.94 68.25,-111.57 161.13,-87.43 0.09,49.64 -52.07,94.59 -112.28,94.59 -15.9,0 -35.25,-4.55 -48.85,-7.16zm-2655.35 -148.44c0,-50.65 42.98,-76.94 105.65,-67.12l1.81 37.65 0 49.1c0,81.15 -107.46,47.13 -107.46,-19.64zm3083.65 37.78c-59.21,0 -65.45,-104.87 0,-104.87 45.8,0 58.9,7.58 91.02,27.81 -7.01,59.08 -15.46,77.06 -91.02,77.06zm-3773.34 -568.12c0,-35.55 -3.75,-47.26 36.25,-47.26 98.28,0 251.49,155.21 92,222.62 -65.38,-22.09 -128.24,-95.87 -128.24,-175.36zm-1552.34 -1168.73c12.13,-43.83 30.12,-61.85 82.26,-68.43 22.96,17.19 54.61,55.14 21.13,85.56 -30.48,27.71 -75.15,7.19 -103.39,-17.13zm5130.2 120.09c-123.43,0 -46.15,-108.2 -11.32,-149.32 52.61,-62.12 177.14,-38.23 134.88,45.28l-64.58 102.72 -58.99 1.32zm-2849.8 -532.57c0,-29.71 14.93,-52.21 27.38,-69.71 127.7,3.23 175.1,107.98 81.88,183.37 -76.64,-18.28 -109.27,-51.48 -109.27,-113.66zm-208.87 -413.17c-39.92,-4.1 -58.98,-18.88 -80.07,-38.98 -0.02,-0.02 -155.31,-214.24 -35.88,-218.7 139.51,-5.21 218.09,169.61 115.95,257.68zm3090.32 -333.25c0,-29.93 15.58,-48.95 27.55,-66.71 102.85,7.15 154.32,139 65.52,200.25 -58.53,-9.7 -93.07,-66.01 -93.07,-133.54zm-4644 -1374.97c0,22.75 -19.72,83.8 -79.35,89.23 -64.17,5.83 -88.39,-23.3 -111.75,-52.59 -208.69,-261.76 191.1,-233.09 191.1,-36.64zm1371.71 1773.34c163.67,85.52 252.86,291.3 308.82,455.58 126.97,372.74 33.58,1357.23 -8.02,1780.57 -7.33,74.66 -5.52,148.31 -12.97,223.09 -19.23,192.97 9.46,260.04 107.79,387.49 45,58.34 197.34,271.71 111.06,344.21 -71.51,-8.9 -146.64,-159.16 -173.78,-241.74 -39,-118.61 -70.45,-179.13 -124.12,-286.35 -95.97,-191.75 -145.29,-398.66 -216.56,-601.13 -44.02,-125.08 -57.56,-190.19 -166.53,-259.88 -232.4,-148.63 -422.27,-266.47 -639.07,-436.78l-603.99 -476.05c-95.88,-78.07 -260.66,-248.35 -350.81,-289.68 -24.75,-11.34 -50.92,-21.83 -78.04,-31.42 -38.79,-13.7 -54,-12.84 -88.88,-22.81 -223.42,-63.83 -285.69,-120 -444.82,-208.9l-435.95 -217.03 -344.2 -107.43 3.41 36.14 292.63 132.11c268.83,129.49 528.31,303.59 753.07,486.3 241.91,196.65 155.29,164.42 520.72,311.39 108.57,43.66 151.26,74.37 248.58,160.88l436.56 383.6c204.67,187.04 393.21,497.85 571.84,630.71 204.05,151.78 328.9,525.93 441.44,752.85l128.05 259.94c-5.45,15.28 -265.96,119.2 -329.53,178.48 -43.37,40.44 -69.16,93.84 -116.59,136.06 -110.88,98.69 -284.38,150.71 -415.32,225.19 -219.35,124.77 -204.41,255.34 -651.2,464.96 -60.93,28.6 -112.4,58.86 -172.21,88.41 -242.75,119.92 -378,230.74 -569.91,426.49 -36.03,36.75 -94.81,89.85 -109.74,131.46 75.55,48.81 156.65,-59.7 211.37,-103.16 27.29,-21.68 38.38,-25 63.82,-43.85 344.61,-255.49 368.69,-309.19 843.56,-517.08 156.13,-68.35 326.63,-122.07 468.25,-218.52 192.71,-131.25 99.18,-114.49 419.26,-260.98 65.92,-30.17 267.74,-154.03 337.86,-120.94 36.48,17.21 92.79,133.9 59.83,235.07 -31.43,96.48 -55.77,141.78 -29.04,258.72 108.45,474.29 5.9,454.39 279.29,958.17 112.22,206.8 39.88,273.02 -22.12,470.03 -27.33,86.83 -28.67,184.93 -19.25,283.61 11.83,123.88 26.1,134.56 74.33,229.62 107.77,212.38 62.35,874.16 28.38,1122.38 -11.37,83.13 -42.57,495.68 31.67,538.31 36.49,-20.43 20.9,-5.47 30.97,-54.72 35.38,-172.99 51.61,-318.13 63.27,-497.6 12.69,-195.38 30.65,-395.02 30.05,-599.74 -0.58,-193.38 41.6,-386.09 65.58,-574.06 29.99,-235.08 4.77,-323.69 94.32,-547.93 83.21,-2.3 280.05,103.63 369.25,131.88 341.15,108.02 689.34,35.5 946.47,-177.17 294.48,-243.57 546.73,-669.99 584.37,-1024.01 8.75,-82.32 -51.93,-405.82 63.83,-404.41l154.69 10.99c59.52,-0.09 143.28,0.77 199.51,10.04 103.61,17.04 122.11,130.65 149.9,224.05 27.82,93.51 49.4,195.18 72.75,301.78 12.46,56.9 16.07,262.18 109,245.61l9.26 -50.75c-1.29,-13.39 -7.72,-31.88 -12.08,-50.67 -7.63,-32.9 -14.08,-65.98 -21.09,-99.24l-85.97 -377.52c-19.49,-93.59 -21.89,-118.38 35.69,-181.09 226.42,-1.46 107.35,262.07 189.59,507.96 11.49,34.34 13.8,69.43 22.66,107.8 17.6,76.28 25.34,152.21 37.99,233.09 35.97,229.97 -10.33,269.63 -33.43,470.4 -14.79,128.54 73.71,146.71 23.89,462.23 -24.36,154.22 -51.8,306.23 -90.91,453.92 -94.34,356.19 -137.96,484.42 -284.52,808.07 -29,64.06 -193.97,319.19 -114.84,385.53 48.26,-16.34 91.78,-138.23 113.83,-180.17 32.59,-61.95 66.13,-132.13 95.22,-193.17 109.87,-230.51 216.64,-457.85 304.81,-692.66 12.24,-32.59 23.29,-66.5 35.18,-97.74 79.7,-209.47 149.94,-437.99 181.67,-658.76 18.9,-131.5 -21.67,-486.99 -20.72,-664.55 0.12,-21.19 1.18,-45.76 -0.35,-66.6 -13.89,-187.19 -5.56,-387.24 -27.31,-574.98 -18.76,-161.93 16,-376.27 -18.37,-528.64 -89.44,-65.8 -261.9,-27.92 -386.79,-39.05 -12.87,-47.14 7.84,-120.29 -10.06,-197.17 -16.87,-72.46 -37.43,-107.38 -129.04,-108.16 -155.31,-1.32 -572.3,139.21 -890.43,36.25 -90.69,-29.35 -257.31,-130.66 -269.69,-200.92 11.81,-50.98 1077.52,-619.6 1302.59,-572.86 29.9,81.87 -78.57,194.35 -126.98,261.74 -31.71,44.15 -151.36,212.33 -131.92,254.18 26.53,2.59 57.46,-38.04 74.12,-57.58 21.62,-25.37 44.68,-51.41 67.45,-79.87 66.4,-82.94 368.51,-455.73 355.13,-522.57 -18.85,-35.57 -155.89,-101.78 -201.43,-123.37 -159.04,-75.4 -116.16,-41.62 -454.21,104.23 -295.41,127.46 -529.22,327.69 -818.85,459.88 -83.55,38.14 -134.21,61.3 -224.24,92.68 -202.13,70.45 -430.36,82.47 -275.35,-165.9 43.78,-70.15 84.45,-112.74 132.13,-181.64 41.14,-59.49 64.2,-128.94 107.26,-193.48 54.32,-81.44 687.92,-784.42 724.82,-824.78 47.88,-52.38 93.36,-106.56 142.96,-162.64 137.54,-155.53 173.94,-184.91 304.69,-319.15l165.62 -153.22c64.37,-65.09 75.4,-116.87 74.78,-221.82 -1.1,-188.69 2.81,-360.74 25.62,-546.83 21.4,-174.65 54.37,-344.53 51.29,-533.87 -3.36,-207.6 -118.61,-258.97 -282.66,-335.8 -137.02,-64.17 -307.17,-151.99 -448.13,-196.59 -108.16,-34.21 -393.09,-169.16 -485.06,-137.5 32.61,47.59 223.06,103.06 295.89,132.37 107.75,43.34 188.71,78.68 284.4,130.2 91.06,49.02 176,106.01 242.06,166.58 76.3,69.95 63.46,178 102.29,285.25 43.08,119.06 79.39,190.77 76.57,319.6l-24.75 352.23c-9.62,91.13 -40.59,227.91 -80.98,304.57 -154.46,293.12 -137.17,205.54 -282.05,328.77 -117.33,99.8 -281.39,300.9 -379.84,422.16l-90.67 109.29c-274.98,327.28 -548.86,649.96 -798.45,997.01 -23.82,33.12 -48.18,90.64 -83.87,112.8 -52.13,-10.98 -71.83,-65.64 -105.06,-108.71 -35.61,-46.14 -157.69,-82.75 -180.38,-11.98 -18.02,56.22 106,163.32 -51.13,189.08 -108.12,17.74 -229.35,-23.48 -260.43,-83.16 2.28,-72.61 34.5,-71.59 38.31,-129.25 -109.78,-33.1 -89.19,-19.85 -169.42,103.8 -118.06,181.98 -269.59,161.03 -312.25,-55.14 -28.11,-142.41 40.19,-640.42 65.15,-774.56 13.95,-74.93 14.74,-189.79 17.95,-274.31 13.97,-367.17 30.56,-729.66 30.7,-1099.95 0.07,-169.06 25.77,-96.62 -72.26,-214.89 -168.46,-203.26 -11.88,-308.6 -155.57,-436.61 -100.91,-89.9 -274.53,-151.09 -369.14,-244.77l-472.53 -450.7c-50.68,-42.15 -113.83,-99.1 -152.4,-144.97 -41.89,-49.83 -108.64,-95.56 -160.08,-147.85 -152.12,-154.64 -315.27,-296.76 -441.17,-468.05 -36.56,-49.73 -89.24,-131.8 -119.28,-183.11 -103.53,-176.8 -132.13,-184.7 -261.21,-209.02l-675.17 -120.94c-162.16,-34.93 -764.84,-97.27 -887.34,-79.82 48.92,51.4 697.32,150.23 857.01,195.23 176.02,49.58 350.73,89.32 465.02,220.85 147.44,169.69 283.5,241.21 463.81,369.9 173.14,123.56 208.62,183.8 348.58,321.15 34.71,34.06 50.97,42.4 81.7,77.43 51.68,58.91 118.26,109.62 176.05,164.04 23.73,22.35 18.99,23.16 39.23,45.04 82.02,88.68 204.72,190.12 299.84,284.16l82.67 86.55c72.11,70.69 184.66,179.48 210.58,271.95 17.88,63.78 -0.2,68.15 43.07,120.19 34.85,41.94 59.59,41.71 77.84,88.17z"/>
 </g>
</svg>
