<?xml version="1.0" encoding="UTF-8"?>
<!DOCTYPE svg PUBLIC "-//W3C//DTD SVG 1.1//EN" "http://www.w3.org/Graphics/SVG/1.1/DTD/svg11.dtd">
<!-- Creator: CorelDRAW -->
<svg xmlns="http://www.w3.org/2000/svg" xml:space="preserve" width="27.9585mm" height="12.1847mm" version="1.1" style="shape-rendering:geometricPrecision; text-rendering:geometricPrecision; image-rendering:optimizeQuality; fill-rule:evenodd; clip-rule:evenodd"
viewBox="0 0 654.68 285.32"
 xmlns:xlink="http://www.w3.org/1999/xlink"
 xmlns:xodm="http://www.corel.com/coreldraw/odm/2003">
 <defs>
  <style type="text/css">
   <![CDATA[
    .fil0 {fill:black}
   ]]>
  </style>
 </defs>
 <g id="Camada_x0020_1">
  <metadata id="CorelCorpID_0Corel-Layer"/>
  <path class="fil0" d="M216.63 194.37c-3.8,0.09 -3.59,0.35 -0.66,-5.32l1.02 -0.02c0.77,2.01 0.78,3.19 -0.36,5.34zm30.78 -25.46c0.18,6.39 4.08,14.45 8.69,18.65 3.95,3.61 5.01,3.62 7.22,5.68 -1.36,1.44 -1.06,1.05 -4,1.09l-34.56 -0.17c0.69,-2.75 2.55,-0.92 5.78,-11.29l5.64 1.81c1.17,-1.77 1.27,0.04 0.18,-6.16 -1.59,-9.04 -1.44,-11.57 4.22,-18.18 9.05,3.89 6.62,0.81 6.84,8.56zm1.66 -13.12c-2.36,0.06 -2.23,-0.36 -5.65,-2.29 -0.05,-10.76 11.17,-17.26 17.65,-22.72 5.96,1.18 -1.11,7.91 -4.62,11.86 -7.83,8.83 -2.95,7.13 -4.49,10.62 -0.36,0.82 -1.63,2.49 -2.89,2.52zm-56.27 -51.48c-1.05,-0.5 -2.12,0.22 -2.56,-4.43 -0.18,-1.9 1.09,-3.46 2.32,-4.3 0.86,3.59 0.9,5.09 0.24,8.72zm7.93 -25.39c-0.15,-5.29 2.89,-4.95 9.42,-6.56 4.26,-1.05 5.13,-2.24 7.29,2.21 5.3,10.95 6.74,3.33 16.51,16.26l4.92 8.5 -1.47 1.97c-3.97,0.1 -14.19,-8.53 -21.36,5.67 -2.78,5.5 -2.26,17.57 -3.22,20.22l-2.47 5.79c-3.29,-1.41 -2.12,-0.17 -4.55,-2.9 -6.4,-7.22 -1.91,-4.99 -10.09,-12.26 0.8,-1.7 -0.11,-1.48 1.17,-2.71 1.19,-1.15 4.43,-0.51 2.87,-8.81 -0.47,-2.49 -0.15,-5.52 -0.72,-7.74 -3.08,-13.04 0.19,-6.13 1.41,-12.33 1.46,-7.37 0.41,-2.47 0.28,-7.3zm378.49 25.81c-0.11,-5.06 -0.52,-25.26 -1.77,-27.59 -12.31,8.78 -17.95,64.22 -24.01,86.83 -1.07,3.98 -2.06,18.31 -5,20.49 -4.59,-10.41 -2.46,-22.59 -7.01,-28.31 -8.27,-10.4 -13.97,21.96 -21.4,33.71 -0.89,1.42 -0.25,1.21 -2.19,1.79 -2.57,0.76 -31.35,1.4 -34.16,1.14l-4.09 -0.87c10.61,-13.27 38.71,-41.96 36.44,-59.03 -3.62,-27.2 -35.41,-37.63 -53.13,-20.31 -1.78,1.74 -8.65,9.3 -10.13,9.71 -5.67,-5.37 -11.18,-11.16 -18.64,-14.12 -31.72,-12.6 -64.64,32.37 -25.44,67.89 1.98,1.79 14.96,13.05 15.02,15.27l-1.97 1.99c-43.99,1.07 -87.98,1.35 -131.99,1.23 0.39,-1.41 0.57,-2.23 1.79,-3.1 14.56,-10.43 14.66,-27.04 4.96,-41.02 -4.22,-6.09 -12.39,-7.01 -10.7,-12.31 0.68,-2.12 1.29,-2.35 1.26,-5.03 -0.08,-9.79 2.23,-7.64 2.1,-15.1 -0.07,-4.19 1.68,-6.17 1.74,-10.22 0.06,-4.08 1.31,-7.87 1.24,-10.2 -0.08,-2.75 -3.23,-2.86 -3.34,-11.57 -0.07,-5.08 -2.87,-5.3 -6.84,-7.06 -3.27,-1.45 -1.81,-1.26 -3.29,-4.17 -3.26,-6.39 -11.93,-0.34 -15.6,-0.25 -0.73,0.02 -14.76,-4.51 -16.61,-5.71 -2.37,-1.54 -1.24,-2.79 -0.48,-6.48 11.97,4.72 17.69,8.62 31.11,5.07 -2.96,-2.47 -3.1,-2.82 -7,-3.42l-7.4 -3.02c4.87,-1.68 16.3,7.34 31.86,-1.34 36.85,-16.93 10.79,-64.17 -17.44,-59.26 -9.15,1.59 -14.27,3.72 -20.77,10.48 -8.2,8.54 -10.53,22.24 -6.25,31.93 0.66,1.48 0.46,1.56 0.51,3.47 -8.69,-4.73 -8.74,-3.79 -9.06,-15.3 -0.15,-5.44 1.78,-11.65 -0.88,-13.55 -4.8,9.44 -5.59,14.22 -8.95,24.93 -2.24,0.05 -4.55,-2.86 -6.21,-4.21 -9.08,1.88 -13.31,4.89 -20.14,10.54 -1.81,1.6 -4.33,4.18 -4.27,6.52 1.22,0.86 9.1,6.44 8.86,8.02 -0.9,2.58 -7.48,6.13 -10,5.57l-4.65 -2.8c-6.25,12.28 1.04,9.55 -5.74,16.98 -6.55,7.18 -4.22,2.42 -11.05,1.4 -8.63,-1.3 -12.36,4.95 -12.84,12.37 -0.18,2.74 -1.84,3.56 0.24,4.24 3.03,1 2.69,-0.91 4.57,2.42 5.23,9.26 0.3,11.85 0.39,15.05 0.08,2.81 1.68,8.71 3.03,10.89 2,3.21 30.6,23.97 36.89,31.63 5.47,6.65 4.94,4.77 3.13,13.03 -2.73,12.52 0.72,6.66 -2.5,14.73 -0.15,0.38 -1.48,5.89 -4.41,5.91 -23.24,-0.15 -46.63,0.06 -69.84,0.67 -9.75,0.26 -15.64,-3.85 -17.98,-13.46 -2,-8.19 -11.3,-40.24 -15.4,-42.27 -4.37,-2.16 -6.24,9.03 -6.16,11.63 0.21,6.54 0.3,8.68 -2.66,13.16 -7.88,-10.64 -14.28,-98.18 -18.93,-129.83 -0.87,-5.96 -1.26,-16.77 -6.73,-18.14 -8.13,-2.04 -7.19,12.55 -6.58,16.08l1.77 95.3c0.52,22.69 -0.33,47.72 0.45,70.76 0.14,4.09 -0.33,7.06 -0.18,11.64 0.09,2.96 0.26,8.23 -1.77,9.72l-2.6 -5.35c-3.39,-8.57 -1.56,-58.01 -16.51,-50.7 -7.5,3.66 -3.63,21.01 -9.85,26.98 -2.47,2.37 -5.17,3.51 -8.84,2.85 -2.5,-0.45 -18.39,-10.98 -24.13,1.73 -3.34,7.39 1.39,18.31 13.45,15.97 3.92,-0.88 6.85,-2.47 8.88,-4.69 3.41,-3.5 2.9,-3.41 9.68,-3.51 12.59,-0.17 9.66,-8.85 13.89,-11.97 7.97,23.12 6.05,34.9 10.51,59.63 1.51,8.38 1.9,19.77 4.63,30.2 1.39,5.34 2.4,4.26 7.27,4.14 4.46,-14.8 4.11,-15.15 3.72,-30.16 -0.08,-2.92 0.42,-3.53 0.37,-6.28l-0.09 -39.27c-0.33,-12.07 -2.44,-129.78 -0.05,-129.88 4.45,22.73 11.47,98.94 17.09,113.75 3.21,8.45 9.33,2.92 10.48,-3.3 1.39,-7.5 2.18,-15.5 3.8,-23l2.06 1.92c4.81,5.43 3.1,33.81 19.31,34.36 57.65,-1.17 241.43,-0.91 302.46,-2.91 6.5,-0.55 11.65,-7.43 1.09,-14.94 -8.5,-6.05 -15.36,-13.61 -21.44,-21.76 -14.37,-19.23 -8.93,-51.95 25.45,-45.5 7.98,2.69 13.39,12.39 18.07,18.69 5.18,-6.32 8.41,-9.99 15.17,-16 12.14,-10.79 36.61,-2.9 37.07,13.77 0.88,31.56 -41.54,53.25 -37.9,61.49 3.82,8.67 29.81,3.09 44.73,4.33 12.23,1.01 15.75,-0.07 19.39,-10.89 0.97,-2.87 2.95,-10.76 5.95,-11.6 2.43,8.01 1.78,10.24 3.22,17.67 0.41,2.11 1.01,3.3 1.42,5.05l2.57 10.86c0.82,2.47 1.85,8.86 5.14,8.78l3.51 -4.37c3.7,-5.54 12.76,-81.1 17.72,-90.65 2.47,4.17 3.22,5.61 3.36,10.57 0.14,4.85 0.71,7.76 0.84,12.6 0.26,9.77 -0.52,41.23 6.17,47.56 6.34,6.01 17.62,3.73 25.71,3.53l12.79 0.12c6.04,0.36 5.86,-1.82 12.98,3.34 15.3,11.08 31.94,-10.78 17.85,-21.43 -7.09,-5.36 -14.24,-2.9 -18.81,1.75 -1.94,1.34 -2.57,4.29 -5.23,5.19 -1.1,0.37 -20.2,0.38 -21.92,0.42 -13.38,0.32 -16.89,-1 -18.84,-20.89 -0.31,-3.16 -1.04,-5.82 -1.28,-8.67 -0.13,-1.56 0.02,-3.27 -0.16,-4.82l-3.13 -40.66c-0.08,-3.81 -0.69,-5.48 -0.77,-9.18z"/>
 </g>
</svg>
