<?xml version="1.0" encoding="UTF-8"?>
<!DOCTYPE svg PUBLIC "-//W3C//DTD SVG 1.1//EN" "http://www.w3.org/Graphics/SVG/1.1/DTD/svg11.dtd">
<!-- Creator: CorelDRAW -->
<svg xmlns="http://www.w3.org/2000/svg" xml:space="preserve" width="149.999mm" height="20mm" version="1.1" style="shape-rendering:geometricPrecision; text-rendering:geometricPrecision; image-rendering:optimizeQuality; fill-rule:evenodd; clip-rule:evenodd"
viewBox="0 0 2690.63 358.75"
 xmlns:xlink="http://www.w3.org/1999/xlink"
 xmlns:xodm="http://www.corel.com/coreldraw/odm/2003">
 <defs>
  <style type="text/css">
   <![CDATA[
    .fil0 {fill:black}
   ]]>
  </style>
 </defs>
 <g id="Camada_x0020_1">
  <metadata id="CorelCorpID_0Corel-Layer"/>
  <g id="_2936660165168">
   <path class="fil0" d="M625.21 149.66l102.4 0c26.48,0 43.39,-24.45 43.39,-49.37l0 -6.17c0,-29.52 -29.67,-46.29 -64.22,-46.29l-81.57 0 0 101.83zm-219.19 99.25c0.32,15.6 21.44,23.52 40,23.23l6.71 -0.11c14.22,-0.23 34.7,-3.99 46.7,-6.85 7.18,-1.71 37.9,-11 41.7,-11.14l1.68 82.86 -521.22 8.36 -1.72 -84.84c-0.05,-2.29 14.08,-6.88 16.84,-8.36 5.7,-3.05 11.26,-5.25 17.53,-7.77 11.62,-4.68 22.7,-10.94 34.8,-15.75 23.32,-9.28 48.21,-21.06 81.17,-21.59l5.28 -0.55 23.84 2.73c2.39,1.37 11.68,3.73 15.54,5.27 3.48,1.38 11.88,5.41 13.08,8.2l-2.98 0.05c-22.61,0.36 -55.72,10.99 -55.36,28.74l0.12 5.96c0.26,12.56 16.85,21.61 32.5,21.36l3.73 -0.06c32.01,-0.51 73.78,-27.65 95.92,-39.55 23.36,-12.56 64.63,-35.3 100.21,-35.87l17.15 -0.27c15.81,-0.25 38.82,5.93 45.03,13.86 -19.08,0.31 -27.86,-0.24 -39.99,6.74 -8.22,4.73 -18.51,13.95 -18.28,25.36l0 0zm-390.84 -219.83l521.22 -8.36 2.3 113.34c-23.28,5.22 -54.19,17.45 -82.43,17.9l-17.15 0.27c-14.72,0.24 -34.48,-8.21 -34.73,-20.66l-0.15 -7.29c-0.12,-6.07 9.99,-15.86 14.52,-18.81 5.92,-3.86 16.59,-8.21 26.7,-8.37l7.46 -0.12 9.7 0.61c-8.36,-10.79 -34.88,-14.8 -56.22,-14.45 -40.39,0.65 -80.53,21.14 -105.79,35.65 -21.7,12.45 -66.84,40.06 -99.28,40.58l-1.49 0.02c-16.85,0.27 -33.03,-10.39 -33.32,-24.66 -0.46,-23.01 32.21,-31.02 59.78,-31.46 -6.92,-8.84 -33.02,-16.05 -51.04,-15.76l-18.64 0.3c-17.35,0.28 -62.1,16.11 -73.23,22.54 -6.22,3.6 -60.03,27.43 -65.96,28.76l-2.23 -110.03 0 0zm536.61 -21.87l-551.79 8.86 6.95 342.69 551.79 -8.85 -6.95 -342.69 0 -0zm297.32 20.56l26.04 0 0 294.69 -26.04 0 0 -294.69zm225.64 0l26.03 0 0 239.14 -2.08 35.47 54.15 0.02c10.11,0 278.66,-273.09 288.12,-273.09l13.88 0 0 294.68 -26.03 0 0 -70.97 -185.71 0c-3.54,0 -48.92,44.09 -52.07,49.38l95.46 0 0 20.06 -369.69 0 1.73 -294.69 24.3 0 0 274.63 131.91 0 0 -274.63zm-475.57 -1.54c37.72,0 100.38,-0.68 135.21,3.24 34.7,3.91 60.92,31.48 60.92,67.73l0 20.06c0,4.22 -9.53,21.46 -12.11,24.72 -5.68,7.19 -15.14,11.64 -19.13,16.93 28.14,13.23 59.01,32.05 59.01,69.43l0 18.52c0,21.35 -14.83,41.6 -27.33,52.85 -8.05,7.24 -15.8,10.74 -26.45,15.06 -3.57,1.44 -28.95,7.7 -33,7.7l-137.12 0 0 -296.23 -0 -0zm1103.87 165.08c0,-62.63 11.73,-81.91 43.07,-117.54 18.69,-21.26 74.66,-50.63 116.61,-50.63l22.56 0c43.38,0 79.01,19.92 103.82,37.32 18.06,12.67 54.13,53.84 54.13,79.94l0 4.63 3.47 0 0 -112.63 62.49 0c6.34,0 65.38,97.75 73.94,110.16 12.44,18.04 22.92,39.79 35.38,56.49 5.91,7.91 13.32,19.34 18.56,28.25 4.56,7.74 9.47,23.95 21.38,24.19l0 -219.08 55.54 0 0 117.26c3.51,-4.92 6.32,-17.88 9.72,-25.31 3.62,-7.91 8.16,-16.34 12.84,-22.53 12.06,-15.92 19.07,-22.52 34.26,-35.89 20.58,-18.11 67.52,-38.16 108.07,-38.16l29.5 0c52.13,0 129.26,51.35 138.85,87.94l-65.95 0c-4.98,0 -32.5,-41.66 -93.73,-41.66l-5.21 0c-62.28,0 -114.55,49.47 -114.55,103.37l0 9.26c0,50.78 55.47,100.29 114.55,100.29l15.62 0c39.58,0 88.27,-32.75 95.46,-60.17l-142.32 0 0 -46.29 215.22 0c0,81.5 -77.47,152.74 -166.62,152.74l-20.83 0c-40.1,0 -88.78,-20.9 -108.93,-38.94 -15.26,-13.66 -22.71,-20.05 -34.76,-36.99 -6.79,-9.54 -7.34,-12.75 -12.53,-22.81 -3.52,-6.83 -5.37,-20.06 -8.67,-24.69l0 117.26 -62.48 0c-6.74,0 -65.44,-97.78 -73.94,-110.16 -11.69,-17.03 -26.26,-38.42 -36,-55.94 -5.16,-9.28 -11.67,-18.47 -17.81,-27.37 -5.36,-7.77 -8.98,-23.82 -21.52,-24.07l0 217.54 -57.28 0 0 -109.54c-1.09,0.71 -20.35,37.91 -24.3,43.2 -8.66,11.59 -22.08,25.6 -34.39,34.23 -24.29,17.03 -63.44,35.2 -106.2,35.2l-6.95 0c-37.36,0 -75.44,-14.08 -97.23,-27.75 -14.7,-9.22 -21.09,-16.46 -33.39,-27.4 -8.07,-7.17 -21.16,-29.92 -25.59,-32.8 -1.22,48.77 -51.32,80.23 -109.34,80.23l-104.14 0 0 -294.69 81.58 0c29.69,0 58.68,5.78 75.92,17.37 14.45,9.7 35.16,31.12 35.16,52.06l0 16.97c0,30.73 -30.27,37.66 -39.92,49.37 10.48,4.47 16.83,4.15 27.33,11.2 8.41,5.65 14.31,13.17 19.54,16.57l0 0zm-654.34 87.94l-79.84 0 0 -274.63 -144.06 0 0 81.77 -1.74 0c0,-40.19 -45.23,-71.81 -84.91,-78.8 -40.58,-7.15 -119.81,-2.97 -168.49,-2.97l0 340.97c49.18,0 98.35,-0 147.53,0 28.33,0 40.33,-3.76 61.52,-10.12 24.48,-7.34 28.19,-17.29 44.35,-26.91l0 37.03 -142.32 0 888.65 0 19.09 0c37.95,0 55.73,-2.36 83.88,-11.84 8.22,-2.77 23.66,-12.02 29.39,-17.07 5.73,-5.04 20.65,-21.47 23.84,-23.55 19.78,11.77 30.6,28.82 59.01,40.12 24.8,9.86 49.02,18.51 85.05,18.51l8.68 0c36.55,0 54.73,-5.44 79.83,-15.44 30.55,-12.17 36.09,-21.83 59.02,-35.48l1.73 49.37 109.32 0 1.77 -162c9.87,16.59 100.21,162 107.61,162l100.67 0 0 -49.37c5.08,1.2 20.26,14.74 26.02,18.52 11.37,7.47 16.99,9.96 30.1,16.44 8.78,4.34 24.06,10.31 33.82,13.14 6.41,1.86 36.79,5.51 40.23,7.44l41.65 0c4.67,-2.64 30.23,-4.07 38.73,-7.23 12.43,-4.62 22.9,-7.8 34.17,-12.83 21.36,-9.53 39.73,-22.01 56,-36.62 32.53,-29.22 51.61,-67.69 51.61,-125.38 0,-48.79 -31.55,-93.69 -59.43,-118.43 -24.77,-21.98 -84.78,-51.29 -133.23,-51.29l-19.09 0c-31.96,0 -57.38,10.44 -80.09,18.29 -26.75,9.25 -39.49,25.77 -58.77,37.25l0 -49.37 -107.61 0 0 162 -104.93 -163.15 -106.82 -0.4 0 46.29c-8.15,-4.85 -16.93,-14.54 -26.71,-21 -9.95,-6.58 -19.49,-11.1 -30.56,-16.03 -17.93,-7.99 -49.88,-18.5 -76.38,-18.5l-22.56 0c-31.53,0 -67.77,13.77 -89.12,24.15 -13.38,6.51 -21.61,13.93 -33.07,21.52 -8.09,5.35 -22.71,23.85 -28.81,25.3 -1.69,-18.04 -31.67,-41.52 -46.87,-49.36 -21.65,-11.17 -48.92,-15.44 -83.3,-15.44l-152.74 0c-9.69,0 -278.3,273.09 -288.11,273.09l-17.36 0 0 -43.2 1.73 -231.43 -78.1 0 0 274.63 -0.01 0zm-312.42 21.6c32.4,0 60.75,-27.55 60.75,-58.63l0 -13.89c0,-38.36 -38.03,-57.08 -83.31,-57.08l-88.52 0 0 129.6 111.08 0 -0 -0zm1022.3 -124.97c0,56.31 51.93,108 112.82,108l12.15 0c54.83,0 109.34,-52.72 109.34,-103.37l0 -7.71c0,-51.95 -53.71,-103.37 -111.08,-103.37l-6.94 0c-64.09,0 -116.29,49.23 -116.29,106.46l0 -0zm-151 100.28c27.01,0 39.44,-11.77 50.16,-26.24l1.9 -18.5 0 -4.63c0,-9.12 -10.25,-17.84 -16.01,-22.8 -11.1,-9.55 -21.68,-6.95 -29.12,-11.15l-55.54 -1.54 0 86.49 48.6 -1.63zm-341.92 -47.83l-1.73 3.09 166.62 0 -0.09 -160.69 -3.38 1.77 -161.42 155.83 0 0zm293.33 -83.31l36.45 0c24.15,0 45.12,-12.62 45.12,-33.94 0,-24.94 -23.91,-37.03 -52.07,-37.03l-29.5 0 0 70.97 -0 0z"/>
  </g>
 </g>
</svg>
