<?xml version="1.0" encoding="UTF-8"?>
<!DOCTYPE svg PUBLIC "-//W3C//DTD SVG 1.1//EN" "http://www.w3.org/Graphics/SVG/1.1/DTD/svg11.dtd">
<!-- Creator: CorelDRAW -->
<svg xmlns="http://www.w3.org/2000/svg" xml:space="preserve" width="26.2309mm" height="13.8551mm" version="1.1" style="shape-rendering:geometricPrecision; text-rendering:geometricPrecision; image-rendering:optimizeQuality; fill-rule:evenodd; clip-rule:evenodd"
viewBox="0 0 129.48 68.39"
 xmlns:xlink="http://www.w3.org/1999/xlink"
 xmlns:xodm="http://www.corel.com/coreldraw/odm/2003">
 <defs>
  <style type="text/css">
   <![CDATA[
    .fil0 {fill:black}
   ]]>
  </style>
 </defs>
 <g id="Camada_x0020_1">
  <metadata id="CorelCorpID_0Corel-Layer"/>
  <g id="Figs_Frase_064_x0020_a_x0020_Rct">
   <path class="fil0" d="M60.12 51.08c0.28,-0.58 0.23,-0.39 1.09,-0.7 1.56,-0.57 2.54,-0.98 4.43,-0.95 -0.52,1.09 -3.86,1.87 -5.52,1.66zm26.13 -19.17l0.71 -0.01c-0.15,-1.03 -0.12,-1.02 -1.01,-1.32 -0.09,1.66 0.05,1.08 0.3,1.33zm-44.48 4.71c3.54,0.02 4.01,-0.85 5.8,-1.37l-0.05 -0.93c-1.98,0.51 -5.03,0.78 -5.75,2.31zm54.85 2.14c1.01,0.41 3.19,-1.6 4.58,-2.58 0.86,-0.61 1.19,-0.34 0.7,-1.42 -1.17,0.02 -0.3,-0.11 -0.95,0.28l-3.38 2.48c-0.58,0.4 -0.98,0.46 -0.94,1.23zm3.85 0.43c0.22,-0.41 -0.08,-0.01 0.26,-0.32 0.15,-0.14 0.28,-0.2 0.45,-0.33 0.3,-0.23 0.45,-0.37 0.77,-0.6 1.77,-1.25 1.41,-0.51 1.46,-1.55 -0.81,0.16 -1.74,0.91 -2.43,1.42l0.93 -1c0.73,-0.46 0.89,-0.18 0.77,-1.06 -0.77,0.09 -2.13,1.21 -2.76,1.67 -0.63,0.47 -2.22,1.36 -2.47,2.12 0.53,0.23 0.4,0.12 0.98,-0.06 -0.33,0.6 -0.45,0.41 -0.19,0.9 0.84,-0.11 1.35,-0.83 2.23,-1.19 -0.32,0.61 -0.99,0.63 -1.79,1.63 0.49,0.69 0.89,1.15 1.53,1.86 0.53,0.58 1.12,1.44 1.93,1.59 0.55,-0.98 0.17,-1.78 1.2,-2.72 0.99,-0.91 2.1,-0.62 3.63,-0.66 -0.34,-0.83 -2.58,-3.35 -3.22,-3.72 -1.29,0.43 -1.97,1.54 -3.28,2.03zm-31.19 -7.19c-0.09,0.74 3.23,2.3 4.05,2.75 1.8,1 3.71,2.63 4.82,2.01 -0.34,-0.77 -0.98,-0.92 -1.81,-1.38 -1.88,-1.05 -5.64,-3.57 -6.53,-3.51 -0.56,0.04 -0.33,0.04 -0.52,0.13zm7.76 5.91c-0.11,-1.12 -1.87,-1.73 -3.94,-2.96 -1.1,-0.65 -3.31,-2.32 -4.81,-2.19 0.03,1.04 0.76,1.05 1.75,1.61l4.36 2.52c0.97,0.64 1.17,0.96 2.64,1.01zm-6.87 -6.48c1.16,0.92 4.84,2.68 6.55,3.78 0.83,0.53 1.41,1.06 2.44,0.61 0.31,-1.17 -1.77,-1.86 -4.16,-3.28 -2.2,-1.31 -4.43,-3.05 -4.83,-1.1zm-16.85 24.53c1.86,0.16 3.53,0.3 4.96,-0.54 -0.38,-1.81 -3.77,-3.22 -5.54,-3.93 -0.17,0.93 0.42,3.37 0.58,4.47zm66.48 -4.18c-3.56,7.04 8.3,7.64 3.62,2.26 -0.72,-0.83 -2.09,-1.87 -3.62,-2.26zm-52.94 0.67c-0.47,1.19 -1.63,2.21 -1.04,3.93 0.41,1.2 1.79,2.28 3.49,1.91 2.64,-0.58 1.35,-5.35 -2.45,-5.84zm35.87 -11.32c-1.94,-0.08 -1.59,-1.49 -0.77,-1.76 1.19,-0.39 2.05,0.62 0.77,1.76zm-82.43 13.07c1.46,-0.19 3.3,-0.7 4.74,-1.05 1.75,-0.42 3.37,-1.03 3.98,0.62 -1.08,0.67 -6.54,1.49 -8.23,1.82l0 1.49c1.49,-0.19 3.74,-1.05 5.21,-1.41 1.79,-0.43 3.92,-0.67 5.69,-0.98 0.02,-0.79 -0.23,-1.51 -0.53,-2.1 -0.3,-0.59 -0.6,-1.18 -1.13,-1.63 -1.35,0.14 -3.24,0.95 -4.82,1.28 -1.69,0.34 -3.65,0.46 -5.28,0.83l0.35 1.14zm77.68 0.1c1.22,-0.16 3.76,-1.6 5.59,-1.11 0.09,0.02 0.86,0.26 0.91,0.28 0.22,0.08 0.22,0.06 0.41,0.18 0.44,0.28 0.03,-0.18 0.3,0.29 -0.18,0.07 -4.38,1.09 -5.1,1.62 1.51,0.24 3.93,-0.03 5.5,-0.17 0.86,-0.07 1.7,-0.16 2.57,-0.25l2.64 -0.47c-0.91,-1.67 -9,-4.02 -12.49,-6.13 -1.18,-0.71 -2.56,-2.04 -3.87,-2.5 0.38,0.73 0.86,0.77 1.48,1.52 0.5,0.61 0.74,1.22 1.01,2.02 0.37,1.08 0.69,4.1 1.05,4.72zm-29.26 -17.22c0.51,-0.28 1.42,-0.73 2.33,-0.33 0.53,0.23 1,0.96 0.56,1.64 -0.57,0.88 -3.42,1.17 -2.89,-1.31zm-0.8 2.32c1.09,0.14 1.54,0.9 1.97,2.04 0.56,1.48 0.31,1.75 1.93,1.8 0.03,-0.04 0.09,-0.14 0.11,-0.11 0.01,0.02 3.89,-3.92 4.21,-4.7 -0.73,-0.68 -5.81,-3.75 -7.13,-4.43 -1.81,-0.93 -2.7,0.88 -3.44,1.61 -0.69,0.68 -2.58,2.11 -2.76,3.02 1.84,0.44 4,-0.13 5.11,0.78zm44.82 11.1c0.62,-1.07 3.41,-1.75 5.11,-1.7 -0.5,1.32 -3.76,1.71 -5.11,1.7zm-3.11 -2.93c2.26,-0.78 3.69,1.98 1.87,2.67 -1.2,0.45 -2.3,-0.2 -2.71,-0.78 -0.89,-1.28 0.18,-1.67 0.84,-1.89zm-31.01 3.22c-0.37,-0.47 -0.67,-1.34 -0.8,-2.07l1.32 0.22c0.05,0.87 0.16,1.43 -0.51,1.85zm-19.48 -4.9c3.61,-0.76 4.49,3.95 0.94,4.4 -3.56,0.45 -5.25,-3.49 -0.94,-4.4zm-16.43 9.97c0.49,-1.14 0.66,-4.22 2.39,-6.09 0.4,-0.44 0.87,-0.72 1.49,-1.05 1.71,-0.92 2.66,-1.95 3.16,-3.73 1.92,0.16 2,1.49 2.99,2.71 2.08,2.56 6.53,5.57 9.67,6.82 0.34,-1.16 0.79,-1.5 1.17,-2.42 0.85,0.01 2.15,0.25 2.66,-0.02l-2.65 -0.87c0.22,-0.57 -0.25,-0.13 0.58,-0.62 1.78,-1.05 3.57,-0.92 5.31,-0.03 3.83,1.94 3.22,2.51 4.53,3.49 -0.25,-4.1 -1.38,-5.36 -2.08,-7.71 0.38,-0.07 3.18,0.38 3.62,0.85 1.44,1.55 2.37,9.19 2.8,9.8 0.62,-1.26 -0.36,-1.01 0.85,-2 1.28,-1.04 1.22,-4.86 1.58,-6.25 1.42,-0.27 2.07,0.1 3.4,0.27 1.52,0.19 1.82,-0.08 2.58,1.02 5.87,8.42 11.3,9.27 11.78,9.75 -3.46,1.23 -7.2,-0.77 -9.11,-2.26 -3.22,-2.53 -4.61,-5.3 -5.74,-5.83l-0.25 2.91c1.95,0.09 3.6,0.07 3.79,1.7 -1.97,0.11 -5.32,-0.81 -5.59,3.51l-3.4 -0.69 -0.32 1.09 -3.01 0.51c-0.57,-1.16 -0.06,-1.93 -0.46,-2.93l-0.47 0.27c-1.14,2.3 -3.46,3.43 -6.26,3.02 -3.52,-0.51 -4.34,-3.11 -5.37,-4.54 -0.84,0.06 -1.18,0.27 -1.96,0.42 -0.71,0.14 -1.44,0.16 -2.17,0.26 -0.08,1.63 2.82,4.7 3.68,5.53 3.39,3.26 4.75,2.26 3.77,4.53 -2.84,-0.25 -5.83,-2.66 -7.31,-3.94 -1,-0.86 -1.95,-1.61 -2.82,-2.8 -1.18,-1.63 -1.47,-3.02 -2.04,-3.24 -0.99,1.03 -0.03,3.33 -0.76,4.39 -0.83,0.25 -1.97,0.06 -2.7,-0.27 -0.44,-2.43 0.82,-8.08 -1.27,-11.35 -0.19,0.16 -0.11,0.06 -0.3,0.32l-1.7 4.53c-0.49,1.75 -0.71,3.76 -1.29,5.4 -0.89,-0.12 -1.44,-0.43 -2.47,-0.55 -0.87,-0.11 -1.81,-0.03 -2.53,-0.26 -0.65,-0.33 -2.44,-4.19 -4.81,-4.92 -0.33,1.37 -0.62,2.68 -1.73,3.51 -3.43,-0.8 0.52,-3.79 -9.83,0.3 -3.71,1.47 -3.33,2.42 -6.94,1.68 -0.25,-0.9 0.35,-1.57 0.43,-2.47 0.13,-1.45 -0.55,-1.26 -1.06,-2.04 0.35,-0.48 0.43,-0.3 0.96,-0.7l-0.44 -1.7c-0.66,-0.12 -0.67,0.05 -1.22,-0.3 -0.01,-1.8 1.23,-1.28 3.06,-1.4 1.45,-0.1 2.82,-0.28 4.12,-0.58 2.25,-0.51 6.44,-1.98 7.01,-2.03 0.61,0.93 0.19,1.03 1.61,0.99 1.09,-0.03 1.37,-0.21 2.36,0.21 2.46,1.05 5.63,3.28 7.14,5.17 0.51,0.64 0.47,0.83 1.22,1.17l0.31 -0.53zm-5.32 -11.04c1.42,-0.93 6.72,-1.31 8.11,-0.2 1.66,1.33 -1.64,4.15 -3.41,4.7 0.08,-1.2 0.51,-2.44 -0.46,-3.09 -0.85,-0.57 -2.22,-0.46 -3.07,-0.07l0.73 0.87c0.75,0.91 0.09,2.99 -0.6,3.74 -0.99,-0.08 -1.17,-0.49 -1.87,-0.81l1.25 -0.39c0.08,-2 -0.75,-3.37 -0.68,-4.75zm-14.42 -2.66c1.31,0.48 2.26,1.72 3.22,2.62 0.89,0.84 2.36,1.3 3.42,2.03 -0.56,2.07 -6.55,3 -8.22,3.02 0.33,-3.66 3.21,-3.5 5.34,-4.09 -0.39,-1.63 -2.31,-0.77 -3.88,-0.81l0.11 -2.77zm66.45 -1.28c1.08,-0.63 3.17,-0.65 3.96,0.18 0.41,0.43 0.71,1.01 1.04,1.45 3.05,4.06 12.75,8.36 17.66,10.26 1.21,0.47 2.61,1.29 3.64,1.6 0.01,-1.05 0.18,-2.04 0.79,-2.8l2.46 0.05c-0.63,-0.49 -2.08,-0.72 -2.92,-0.88 0.43,-1.08 2.67,-1.56 3.63,-1.4 3.39,0.54 2.62,1.66 2.68,1.97 1.49,0.29 1.58,0.63 2.71,1.08 3.57,1.42 3.98,5.41 1.59,7.09 -2.81,1.98 -7.93,0.33 -10.6,-3.63 -1.54,0.09 -3.31,0.61 -5.24,0.72 -2.08,0.12 -4.18,0.15 -6.26,0.22 -3.35,0.11 -6.51,0.94 -8.3,0.51 -0.61,-0.15 -0.65,-0.19 -1.3,-0.28 -0.2,-0.03 -0.53,-0.05 -0.7,-0.09l-0.7 -0.23c0.09,-3.14 2.38,-5.43 -2.32,-12.28 -0.56,-0.82 -2.08,-2.43 -1.83,-3.53zm-52.48 2.77l-1.5 -3.98c1,0.13 2.58,0.63 3.47,0.94 5.16,1.79 1.65,2.98 -1.97,3.04zm47.46 -2.91c-1.37,-1.26 -0.02,-4.68 1.72,-4.03 0.96,0.36 0.78,1.6 0.27,2.38 -0.45,0.69 -1.29,1.31 -1.98,1.64zm37.64 -3.29c-0.75,-0.32 -1.53,-0.81 -2.22,-1.22 -0.46,-0.28 -0.64,-0.41 -1.1,-0.67l-1.06 -0.81c2.03,0.18 4.21,1.72 4.37,2.71zm-86.66 -0.84c2.69,-1.64 6.11,-2.03 9.07,-3.29 2.18,-0.93 2.44,-0.98 4.87,-0.1 1.27,0.46 3.19,1.25 4,1.89 -2.13,-0.36 -1.48,-0.66 -3.89,0.25 -0.13,0.05 -0.48,0.18 -0.58,0.22l-0.56 0.3c0.66,0.41 1.81,0.57 2.65,0.83 7.93,2.47 2.99,8.89 -0.39,4.72 -1.34,-1.65 0.37,-2.86 0.84,-4.21 -0.89,-0.25 -2.04,-0.34 -3.01,-0.23 -3.02,3.5 -0.71,5.07 -0.28,6.3l-2.57 -0.48c0.86,-1.64 0.79,-1.28 -1.24,-2.03 -0.8,-0.3 -8.62,-3.4 -8.81,-4.07 -0.02,-0.06 -0.07,-0.06 -0.1,-0.1zm79.67 -2.19c0.38,-0.22 -0.62,-0.1 0.63,-0.19 0.67,-0.05 1.04,0.1 1.42,0.37 -0.58,0.24 -1.39,0.15 -2.05,-0.18zm-2.25 -0.37c0.25,-0.18 -0.12,-0.28 0.82,-0.25 0.52,0.02 0.53,0.1 0.84,0.25 -0.67,0.45 -1.26,0.27 -1.66,0zm-0.21 6.36c0.19,2.1 1.26,2.41 1.54,4.49 -1.56,-0.75 -3.06,-3.9 -3.97,-5.41l-2.29 -4.55c-0.06,-0.13 -0.32,-0.72 -0.34,-0.81 -0.03,-0.19 -0.01,-0.24 0.01,-0.42l0.11 -0.28c0.56,0.39 1.18,1.46 1.65,2.1 1.76,0.18 3.92,-0.83 7.59,0.19 4.2,1.17 6.83,4.03 7.32,7.93 0.38,3.01 -0.31,3.55 -1.22,5.79 -2.2,-0.53 -3.43,-1.36 -6.15,-1.49 0.5,-1.06 2.22,-2.51 0.41,-5.05 -0.8,-1.12 -2.45,-2.16 -4.65,-2.48zm-32.52 -8.66c-0,-0 -1.02,0.18 0.48,-1.01 0.04,1.32 0.18,0.77 -0.48,1.01zm-6.48 12.9c-0.14,0.37 0.27,0.3 -0.56,0.45 -0.53,0.1 -1.59,-0.26 -2.64,0.05 -0.89,1.59 1.05,1.91 1.34,5.09 -2.57,-0.74 -2.61,-1.78 -7.52,-1.8 -0.11,-1.55 1.2,-3.89 1.96,-5 0.48,-0.71 0.98,-1.37 1.55,-1.91 1.06,-0.99 0.95,-0.91 0.2,-1.84 -2.52,-0.35 -1.33,1.36 -7.1,3.94 -1.32,0.59 -2.73,1.04 -3.89,1.66 -2.23,1.19 -1.18,1.95 -2.11,3.1 -0.6,-0.52 -1.45,-1.86 -1.25,-3.15 1.54,-0.51 2.17,-0.41 3.3,-1.28 0.96,-0.74 1,-1.14 1.4,-1.85l0.4 -0.57c0.02,-0.09 0.08,-0.1 0.13,-0.15 -0.02,1.39 -0.21,1.58 -0.53,2.69 1.52,-0.28 2.47,-1.25 3.01,-2.2 -1.52,-0.87 -1.82,0.02 -2.52,-2.11 -2.13,-6.54 -6.01,-5.54 -4.23,-8.25 2.38,0.84 3.95,4.75 4.74,6.34 0.68,-0.18 0.56,-0.32 1.16,-0.78l0.98 -0.85c-0.29,-0.28 0.02,0.01 -0.36,-0.29 -1.5,-1.17 -3.06,-2.77 -3.78,-4.43 1.89,0.54 2.53,3.21 5.71,3.13 4.43,-4.8 3.41,-7.28 9.67,-6.99 0.84,2 1.7,2.17 3.09,3.64 1.37,-0.43 1.11,-1.15 2.23,-1.26 0.31,1.84 -0.83,1.88 0.63,2.92 0.67,0.48 1.84,1.1 2.17,1.92 0.84,2.09 -2.2,3.83 -2.76,5.02 2.55,0.18 2.23,0.02 3.49,1.45 0.82,0.93 2.25,0.94 1.33,2.55 -0.31,0.13 0.21,0.15 -0.64,0.1 -1.99,-0.13 0.12,-1.44 -2.7,-1.69 -0.6,1.91 -0.9,1.98 -3.41,1.22l0.2 -1.18c-1.29,0.34 -1.33,1.57 -2.7,2.3zm37.42 -14.44c0.73,-0.56 3.08,-0.23 4.16,-0.11 2.32,0.25 2.91,0.31 3.18,1.21 -1.22,-0.21 -2.34,-0.43 -3.65,-0.58 -1.02,-0.12 -3.06,0.02 -3.69,-0.51zm-21.88 -0.91c0.31,-0.25 -0.41,-0.2 1.33,-0.31 1.67,-0.11 2.36,-0.56 3.82,-0.82 -0.59,1.16 -2.41,1.27 -3.72,1.33 -1.75,0.08 -1.24,-0.08 -1.43,-0.2zm-37.35 -2.23c-2.57,1.03 -6.39,-0.06 -8.52,-0.9 -1.74,-0.69 -5.25,-2.14 -6.75,-3.17 1.91,-0.06 5.32,1.47 7.17,2.06 3.14,1.01 4.85,0.79 8.09,1.23l0.01 0.79zm-22.41 -3.79c-0.43,-1.32 -0.71,-1.36 -1.39,-2 -0.65,-0.61 -0.18,-0.07 -0.49,-0.63 1.46,0.35 2.75,1.08 3.14,2.12l-1.26 0.5zm64.34 1.31c-1.28,-0.43 -3.67,-1.78 -4.95,-2.46 -0.76,-0.4 -4.11,-1.95 -4.65,-2.54 2.55,0.07 4.37,0.27 6.24,1.31 1.24,0.69 2.76,2.27 3.35,3.69zm8.93 -8.99c0.4,-0.64 0.15,-0.93 2.48,-0.66l-0.07 1.28c-0.63,-0.05 -1.98,-0.32 -2.41,-0.62zm-24.57 -0.91c0.3,-0.18 -0.44,-0.23 0.57,-0.32 0.48,-0.04 0.5,0.03 0.73,0.14 -0.39,0.34 -0.7,0.47 -1.3,0.18zm-25.17 4.76c-0.87,-1.51 -1.31,-2.12 -2.98,-2.85 -1.7,-0.75 -3.28,-0.92 -3.72,-2.01 0.64,0.08 1.62,0.45 2.43,0.61 2.15,0.43 4.89,0.61 6.3,2.96 -0.41,0.46 -1.07,1.13 -2.02,1.29zm-25.24 -6.94c-0.66,1.3 -1.93,0.99 -3.06,0.27l-0.8 -0.69c1.46,0.12 2.27,0.44 3.86,0.42zm38.34 -2.84c-0.21,1.5 -3.22,2.14 -5.52,1.58 -1.74,-0.42 -4.26,-1.45 -5.11,-2.44 2.59,0.07 3.66,0.96 10.64,0.86zm24.97 -4.78c-0.85,0.04 -6.18,-0.36 -6.64,-0.6 0.52,-0.23 -0.53,-0.16 0.67,-0.3l3.1 -0.06c1.28,0.01 2.12,0.2 2.87,0.96zm-7.6 -3.73l1.67 0.14 -2.13 0.76 0.46 -0.91zm-18.69 67.2l2.48 0 1.39 -2.52c-0.67,-0.58 -1.77,-1.08 -2.48,-1.51 -1.71,-1.03 -5.85,-4.41 -5.48,-6.09 1.83,-0.37 0.66,0.26 2.25,1.84 0.53,0.53 1.88,1.3 2.83,1.69 3.64,1.49 4.56,0.13 7.39,-0.53 1.14,1.51 2.18,1.09 3.99,0.44 2.08,-0.75 3.31,-0.26 5.57,-0.22 0.98,-2.4 0.68,-3.54 2.2,-3.84 2.66,-0.52 3.15,0.49 3.79,0.96 1,0.73 3.95,2.33 5.32,2.54 1.29,0.2 5.01,-0.07 5.9,-0.6 0.62,-0.57 0.55,-1.16 0.67,-2.18 1.93,-0.68 4.96,-0.53 7.14,-0.54 2.58,-0.02 5.05,-0.24 7.62,-0.31 0.85,0.21 2.14,2.83 6.87,3.86 5.43,1.19 6.72,-2.32 7.34,-2.87l0 -3.28c-1.17,-1.06 -1.41,-2.35 -2.91,-3.42 0.15,-0.78 0.77,-1.92 1.06,-2.76 1.86,-5.54 0.38,-12.58 -5.39,-15.68 -0.68,-0.36 -2.09,-0.77 -2.55,-1.08 0.93,-0.68 0.88,-0.07 1.07,-1.32l-1.61 -0.7c-3.97,-1.19 -6.23,-0.81 -10.18,-0.48 -2.59,0.22 -2.26,-0.22 -2.27,1.98 -0.71,-0.28 -2.98,-1.68 -3.22,-2.12 -0.73,0.43 -0.23,-0.12 -0.39,0.59l0.11 1.46c-0.15,0.94 -1.51,1.06 -1.66,2.11 2.43,0.04 2.47,0.37 3.5,1.67 0.75,0.95 1.58,1.67 2.23,2.59 0.75,1.06 1.08,2.21 1.78,3.18 0.39,0.54 0.3,-0.03 0.37,1.02 0.1,1.42 -0.11,1.82 -0.93,2.61 -1.09,-0.47 -1.73,-1.18 -2.48,-1.86l-1.09 -1.04c-0.6,-0.57 -0.66,-0.54 -1.56,-0.2 -0.13,1.51 3.45,3.24 4.17,7.71 -1.82,-0.3 -6.14,-2.89 -7.74,-4.05l-2.12 -1.59c-3.71,-2.89 -2.72,-4.83 -7.29,-4.32 -1.34,0.15 -1.9,0.47 -2.52,1.3 -0.2,2.15 6.6,8.36 4.5,13.45 -1.4,-0.5 -4.47,-4.99 -5.14,-5.73 -0.71,-0.79 -2,-0.16 -3.45,-0.96 0.53,-0.93 1.43,-1.22 1.84,-1.85 0.61,-0.95 -1.17,-3.85 1.4,-5.33 0.94,-0.54 1.14,-0.49 1.99,-0.78 0.05,-0.02 0.11,-0.04 0.16,-0.05 0.05,-0.02 0.12,-0.05 0.16,-0.06l0.31 -0.14c0.13,-2.83 -0.91,-2.09 -2.56,-3.29 0,-0.71 0.44,-2.03 0.3,-2.47 -0.16,-0.52 -0.87,-0.78 -1.22,-1.67 -0.84,0.34 -0.54,0.34 -1.27,0.67l0.45 -2.11 -0.93 -0.01 -0.57 1.42 -2.09 -0.04c0.28,-0.95 0.56,-0.84 0.96,-1.81 -1.81,-0.16 -2.23,0.46 -3.11,-0.94l0.54 -0.85c0.41,-0.07 6.03,0.31 6.96,0.38 1.09,1.76 1.38,0.22 1.48,3.42 0.06,1.74 -0.36,2.37 -1.01,3.6 1,0.52 2.35,1.52 3.18,1.83 0.2,-2.86 0.94,-5.61 2.65,-7.31 0.99,-0.98 1.66,-1.21 3.53,-1.62 1.65,-0.36 2.56,-0.93 3.94,-1.33 0.75,0.5 0.86,0.55 1.27,1.23l0.75 0.07c-0.18,-0.72 -0.63,-1.02 -0.87,-1.82l2.54 -0.02c-0.11,-1 -1.04,-2.89 -1.62,-3.62 -0.43,0.54 -0.26,0.81 -0.17,1.59l-0.99 -1.26c-0.68,-1.06 -2.07,-2.56 -2.29,-3.69 1.85,0.59 1.79,2.3 5.66,2.24 2.9,-4.32 0.77,-4.48 1.18,-8.01 -5.68,-0.27 -8.42,3.79 -10.42,-2.68 -0.58,-1.87 -1.85,-3.29 -4.57,-2.28 -0.5,0.18 -1.63,1.3 -2.08,1.63 -0.7,0.51 -1.36,0.8 -2.58,0.94 0.43,-1.39 1.89,-1.57 3.35,-2.32 -2.43,-1.04 -4.15,1.42 -6.26,1.99 -1.63,0.44 -1.85,-0.13 -3.53,0.7 -1.27,0.63 -1.53,0.95 -3.3,1.05 0.53,-2.02 1.61,-1.05 1.99,-2.81 -1.4,-0.03 -3.08,-0.23 -4.12,0.54 0.43,1.5 1.13,0.36 1.43,2.16 -1.19,-0.35 -2.25,-0.83 -3.65,-0.23 -0.95,0.41 -1.97,1.18 -1.69,2.38 1.67,1.16 4.74,-0.13 6.82,-0.03 -1.65,0.62 -6.74,2.79 -7.7,0.22 -1,-2.69 2.32,-5.44 3.47,-6.31l0.36 0.38c0.13,0.15 -0.02,0.05 0.26,0.34 0.3,-0.58 0.79,-0.73 1.7,-1.06 4.35,-1.57 4.51,0.3 6.72,0.54 2.41,0.26 4.67,-1.49 10.27,-0.83 0.5,-4.04 -1.35,-6.83 -4.88,-7.81 -5.23,-1.45 -6.31,0.68 -7.92,4.51 -4.05,0.03 -5.57,0.97 -9,1.88 -15.8,4.17 -15.35,-3.54 -27.17,1.66 -0.85,0.37 -2.92,1.48 -3.74,1.6 -2.97,0.44 -6.76,-0 -10.05,0.97 -2.14,0.63 -2.21,0.63 -4.69,0.49 -2.67,-0.15 -13.55,-0.4 -15.58,-0.8 -1.79,-0.35 -1.7,-1.05 -4.23,-1.04 -0.04,0.04 -0.08,0.09 -0.1,0.12l-0.55 0.66c-1.92,1.73 -1,-1.36 -3.48,5.11 -1.12,2.9 -2.37,4.64 -0.34,7.29 3.5,0.14 3.82,-4.36 7.67,-6.06 3.05,-1.35 9.48,0.15 12.67,0.81 3.42,0.71 8.57,2.14 12.12,2.26 2.46,0.08 4.66,-0.02 7.14,0.2 11.16,1.02 21.13,4.08 32.3,0.92 4.19,-1.19 6.72,-2.24 8.27,-5.63 0.83,-1.83 1.08,-3.23 4.04,-2.77 1.17,0.18 2.09,0.6 3.36,0.24 1.25,-0.35 1.05,-0.74 2.79,-0.74 3.23,3.45 2.79,3.34 0.93,6.06 0.35,0.7 1.58,1.66 2.28,2.21 3.43,2.76 3.85,6.75 -0.03,7.63 0.89,-1.26 2.84,-2.45 1.62,-4.84 -0.72,-1.41 -2.49,-2.5 -3.54,-3.43 -0.83,-0.74 -0.9,-0.88 -1.97,-1.54 -2.46,-1.52 -5.85,-2.13 -9.02,-1.87 -0.87,0.94 -0.99,1.53 -2.06,2.39 -0.87,0.7 -1.35,1.19 -2.43,1.87 -10.66,6.79 -26.48,1.39 -38.42,0.42 -2.89,-0.23 -5.82,-0.19 -8.66,-0.58 -2.35,-0.32 -4.81,-1.76 -7.03,-1.71 0.29,0.8 1.39,2.46 1.89,3.01 0.58,0.64 2.04,1.42 3.24,1.88 3.82,1.46 11.2,4.51 14.7,5.58 3.54,1.08 5.8,0.47 9.31,0.34 -0.36,3.55 -3.57,1.05 -7.1,0.6 -4.49,-0.57 -11.52,0.23 -14.08,3.92 -0.47,0.68 -0.41,1.12 -1.15,1.52 -0.36,0.19 -0.13,0 -0.5,0.24 -0.07,0.87 -0.03,0.88 0.5,1.46l2.5 3.26c0.99,1.55 1.93,3.47 2.07,5.51 -2.31,-0.34 -5.79,-3.08 -7.3,-4.52 -2.54,-2.42 -1.26,-1.7 -4.53,-1.62 -1.03,0.03 -1.58,-0.17 -2.66,-0.01 -0.29,1.84 0.16,4.97 -1.44,6.39 -0.62,0.55 -0.27,1.26 -0.58,2.01 -0.73,-0.42 -0.33,-0.34 -0.79,-0.81 -1.03,-1.06 -1.66,0.21 -2.45,0.9 -1.73,1.51 -5.39,2.42 -5.24,-0.81 0.13,-2.86 3.06,-3.86 5.07,-4.97 0.71,-0.39 0.51,-0.24 0.79,-0.76 -3.02,-0.38 -3.67,-0.5 -5.92,0.94 -3.43,2.21 -5,5.83 -1.17,8.4 1.94,1.3 3.95,0.54 6.27,0.29 -0.03,0.76 -0.27,2.14 -0.07,2.8 0.24,0.79 0.28,-0.03 0.41,0.79 0.06,0.38 -0.15,0.38 -0.08,1.09 1.23,1.2 1.34,0.85 0.71,2.99 -0.5,1.67 0.1,2.27 1.78,2.5 1.43,0.19 3.18,0.21 4.23,-0.46 0.99,-0.63 1.66,-1.05 2.93,-1.6 1.61,-0.7 5.43,-2.47 6.95,-1.34 4.35,3.24 3.17,0.33 5.24,-1.07 2.07,1.38 1.51,3.74 3.9,3.88 5.8,0.35 3.42,0.97 6.18,1.68 0.52,-0.87 1.12,-6.04 1.59,-7.56l0.14 4c-0.14,1.2 -0.33,2.43 -0.17,3.65 1.07,0.54 4.5,0.74 5.95,0.67l0.27 -1.35c0.91,0.43 1.8,1.29 2.34,1.84 0.73,0.75 1.44,1.18 2.38,1.72 0.82,0.47 1.72,1.1 2.61,1.52 0.92,0.44 2.11,0.69 2.86,1.16z"/>
  </g>
 </g>
</svg>
