<?xml version="1.0" encoding="UTF-8"?>
<!DOCTYPE svg PUBLIC "-//W3C//DTD SVG 1.1//EN" "http://www.w3.org/Graphics/SVG/1.1/DTD/svg11.dtd">
<!-- Creator: CorelDRAW -->
<svg xmlns="http://www.w3.org/2000/svg" xml:space="preserve" width="23.0855mm" height="7.4311mm" version="1.1" style="shape-rendering:geometricPrecision; text-rendering:geometricPrecision; image-rendering:optimizeQuality; fill-rule:evenodd; clip-rule:evenodd"
viewBox="0 0 59.62 19.19"
 xmlns:xlink="http://www.w3.org/1999/xlink"
 xmlns:xodm="http://www.corel.com/coreldraw/odm/2003">
 <defs>
  <style type="text/css">
   <![CDATA[
    .fil0 {fill:black}
   ]]>
  </style>
 </defs>
 <g id="Camada_x0020_1">
  <metadata id="CorelCorpID_0Corel-Layer"/>
  <path class="fil0" d="M10.09 16.69l-0.57 0.04 -0.12 -2.68c-0.09,-0.02 -0.18,-0.06 -0.25,-0.11l-1.81 1.23c-0.02,0.03 -0.04,0.07 -0.06,0.11 -0.03,-0.01 -0.05,-0.02 -0.07,-0.02l-0.14 0.09 -0.15 -0.23c-0.03,-0.03 -0.05,-0.06 -0.06,-0.1l-0.12 -0.18 0.09 -0.06c0,-0.02 0,-0.04 0.01,-0.07 0.1,-0.04 0.19,-0.08 0.28,-0.12l1.69 -1.14c-0.02,-0.07 -0.03,-0.14 -0.03,-0.22 0,-0.06 0.01,-0.12 0.02,-0.17l-0.92 -0.59c-0.05,-0.03 -0.1,-0.06 -0.15,-0.09 -0.33,-0.21 -0.67,-0.43 -0.99,-0.63l0.32 -0.51 2.07 1.32c0.06,-0.05 0.13,-0.08 0.21,-0.11l-0.09 -2 0.57 -0.04 0.09 2.02 0 0.01c0.06,0.02 0.13,0.05 0.18,0.09 0.05,-0.01 0.11,-0.03 0.17,-0.06 0.67,-0.45 1.34,-0.91 2,-1.36l0.33 0.51 -2.13 1.45c0.01,0.06 0.02,0.12 0.02,0.18 -0,0.05 -0.01,0.11 -0.02,0.16l1.72 1.09c0.68,0.32 0.48,0.34 0.18,0.83 -0.66,-0.42 -1.46,-0.93 -2.18,-1.39 -0.04,-0 -0.07,0 -0.1,0.01 -0.03,0.02 -0.05,0.03 -0.08,0.05 -0.01,0.01 -0.02,0.01 -0.02,0.02 0.04,0.89 0.08,1.78 0.12,2.67zm43.69 -15.68l0.2 -0.01c0.18,-0.26 0.13,-0.69 0.03,-0.98l-0.13 -0.01 -0.1 0c-0.12,0.24 -0.15,0.76 -0.01,1zm1.93 -0.89l-0.41 0.64c-0.46,0.59 0,0.69 0.24,0.2 0.19,-0.38 0.88,-0.8 0.17,-0.83zm-4.13 0.18c0.31,0.36 0.23,0.31 0.39,0.57 0.1,0.16 0.4,0.39 0.63,0.42 0.05,-0.48 -0.52,-0.83 -0.73,-1.16 -0.22,0.04 -0.16,0.05 -0.29,0.18zm2.09 11.22l0.26 -0.11c0.13,0.42 0.04,4.18 0.03,5.12 -0.01,1.61 0.1,1.02 0.14,1.61 -0.23,0.03 -0.54,0.06 -0.73,-0.04 0.01,-0.55 0.34,0.12 0.26,-1.46l0.04 -5.12zm-11.97 2.06c0.01,0.05 0.01,0.1 0.01,0.15 -0,0.02 -0,0.04 -0,0.05 0.41,0.37 2,1.38 2.23,1.53 -0.07,0.11 -0.13,0.47 -0.31,0.49 -0.07,0.01 -0.15,-0.04 -0.29,-0.16l-1.96 -1.25c-0.03,0.02 -0.06,0.04 -0.09,0.06 -0.02,0.05 -0.03,0.1 -0.04,0.16 0.04,0.87 0.08,1.74 0.12,2.58l-0.57 0.04 -0.13 -2.69c-0.09,-0.02 -0.17,-0.06 -0.25,-0.1 -0.67,0.46 -1.5,1.02 -2.08,1.41l-0.33 -0.51c0.68,-0.46 1.36,-0.92 2.04,-1.38 -0.02,-0.08 -0.04,-0.16 -0.04,-0.25 0,-0.06 0.01,-0.12 0.02,-0.17l-2.03 -1.29 0.04 -0.07c-0.01,-0.01 -0.01,-0.02 -0.02,-0.02 0.03,-0.05 0.07,-0.09 0.11,-0.12l0.19 -0.31 1.72 1.09c0.14,0.08 0.27,0.14 0.4,0.15 0.05,-0.03 0.1,-0.05 0.16,-0.07l-0.09 -1.97 0.57 -0.04 0.09 1.99c0.12,0.14 0.39,0.04 1.09,-0.45 0.42,-0.29 0.85,-0.56 1.26,-0.84l0.33 0.51c-0.61,0.41 -1.48,1 -2.15,1.46zm-26.55 -7.28c0.09,-0.47 0.65,-4.3 1.05,-4.43 0.39,-0.12 3.25,0.03 4.03,0.03 0.67,0 0.66,0.05 1.13,0.27l-0.07 4.18c-0.04,0.62 -0.32,0.54 -0.93,0.47 -0.73,-0.08 -4.39,-0.2 -4.72,-0.27 -0.18,-0.04 -0.36,-0.13 -0.49,-0.26zm37.42 -2.97c0.11,0.56 -0.16,0.94 0.69,1.65 0.41,0.34 1.29,0.17 1.57,-0.47 0.21,-0.47 0.21,-1.64 0.99,-1 0.47,0.39 0.77,1.04 0.47,1.61 -0.1,0.19 -0.35,0.55 -0.64,0.46 -0.45,-0.14 0.11,-0.36 -2.01,-0.34 -0.3,0 -0.83,-0.06 -1.03,0.08 -0.24,0.16 -0.53,0.37 -0.79,0.05 -0.18,-0.22 -0.38,-0.39 -0.42,-0.76 -0.06,-0.63 0.3,-0.76 0.69,-1.1 0.16,-0.14 0.18,-0.15 0.47,-0.2zm-19.88 1.95c-0.05,0.37 -0.07,0.18 -0.29,0.38 -0.24,0.22 -0.22,0.73 -0.23,1.04 -0.02,0.49 0.1,0.25 0.16,0.56 -0.22,0.24 -0.47,0.13 -0.82,0.12l-4.12 -0.21c-0.31,-0.04 -0.66,-0.07 -0.97,-0.09 -0.6,-0.05 -1.77,-0.05 -2.09,-0.14 -0.08,-0.22 -0.12,-0.62 -0.19,-0.91l-0.59 -2.78c-0.2,-1.13 -0.35,-1.15 0.89,-1.11 1.07,0.03 3.03,0.18 4.03,0.49 1.03,0.32 2.95,1.68 3.85,2.4 0.13,0.1 0.24,0.14 0.37,0.25zm-20.34 1.07c-0.13,-0.67 1.91,-3.32 2.29,-4.12 0.16,-0.32 0.78,-0.67 0.62,0.21 -0.24,1.33 -0.55,2.63 -0.82,3.97 -0.43,0.06 -1.68,0.02 -2.09,-0.07zm0.67 -4.23c-0.37,1.47 -2.63,4.07 -4.03,4.01 -0.25,-0.01 -0.86,0.08 -0.98,-0.13 -0.07,-0.11 -0.03,-0.38 0.04,-0.49 1.14,-1.09 2.13,-1.96 3.43,-2.86 0.45,-0.29 0.05,-0.16 0.74,-0.42 0.32,-0.12 0.45,-0.3 0.79,-0.11zm-1.56 -0.79c-0.75,-0.01 -1.6,0.61 -2.23,0.98l-1.21 0.72c-0.18,0.13 -0.87,0.79 -1.08,0.9 -0.24,0.12 -0.33,0.19 -0.49,0.33 -0.57,0.51 -1.81,1.38 -2.26,1.9 -0.08,0.09 -0.14,0.25 -0.1,0.43 0.35,-0.02 0.07,-0.03 0.32,-0.21 0.17,-0.12 0.32,-0.05 0.45,0.01 0.05,0.47 0.08,1 -0.01,1.47 -0.07,0.36 -0.05,1.18 -0.24,1.49 -0.14,0.24 -0.39,0.16 -0.62,0.29 -0.35,0.22 -0.17,0.25 -0.29,0.58 -0.08,0.22 -0.26,0.26 -0.38,0.48 -0.29,0.57 0.03,2.39 0.25,2.97 0.22,0.57 -0.07,0.96 0.39,1.37 0.12,0.11 1.26,0.33 1.43,0.27 0.44,-0.15 0.14,-1.05 0.41,-1.38 0.06,0.25 0.07,0.41 0.15,0.66 0.3,0.89 1.23,1.77 2.07,2.14 1.39,0.62 3.3,0.49 4.4,-0.66 0.45,-0.47 0.85,-1.04 1.06,-1.69l0.14 -0.39c0.14,0.63 0.31,0.34 0.32,1.49 0.01,0.97 0.57,0.8 1.38,0.8l2.08 0.02c0.38,0.01 0.78,-0.07 1.16,0l0.23 0.1c-0.86,0.12 -2.17,0.68 -2.98,1.12 -0.22,0.12 -0.13,0.14 -0.3,0.29l-15.02 -0.1c-0.47,-0.03 -0.51,0.15 -0.51,0.54 -0.01,0.61 0.47,0.46 1.62,0.47l10.35 0.06c0.66,0.01 1.42,-0.02 2.07,0.02 0.92,0.06 1.98,-0.03 3.01,0.02l20.5 0.17c1.63,-0.02 3.96,-0.01 5.58,0.07 0.79,0.04 2.64,-0.01 3.55,0 2.04,0.02 4.51,-0.01 6.5,0.08l1.2 -0.01c0.7,-0.06 3.09,0.01 3.93,0.02 0.56,0.01 0.92,0.1 1.31,-0.22l0.01 -0.55c-0.33,-0.26 -0.8,-0.19 -1.21,-0.18 -0.67,0.02 -3.23,0.02 -3.58,-0.09 0.48,-0.35 0.43,-0.96 0.44,-1.55 0.02,-2.69 -0.04,-5.41 0.04,-8.12 0.05,-1.63 -0.13,-1.11 1.14,-1.79 0.15,-0.08 0.19,-0.08 0.31,-0.2l0.52 -0.5c0.34,-0.23 0.47,-0.79 0.48,-1.2 0,-0.58 -0.32,-1.25 -0.62,-1.71 -0.22,-0.34 -0.87,-0.84 -1.41,-0.97 -0.37,-0.09 -3.35,-0.18 -3.84,0.09 -0.38,0.21 -0.79,0.34 -1.1,0.68 -0.18,0.2 -0.37,0.34 -0.5,0.67 -0.31,0.83 -0.23,1.19 0.02,1.97 0.14,0.43 0.28,0.34 0.52,0.65 0.32,0.42 1.17,0.74 1.28,1.1 0.06,0.22 0.07,4.57 0.09,4.99 0.07,1.45 0.02,3.04 -0.04,4.51 -0.01,0.3 0.03,1.26 0.34,1.35 -1.09,0.1 -4.43,-0 -5.42,-0.01 -1.37,-0.01 -2.74,-0.06 -4.11,-0.01l-3.45 -0.05c-1.5,-0.01 -3.22,-0.03 -4.82,-0.04 -1.06,-0.01 -0.97,-0.24 -1.81,-0.7l-1.28 -0.6c-0.2,-0.09 -0.23,-0.15 -0.38,-0.24 0.61,-0.11 2.33,-0.07 2.97,-0.03l1.47 0.04c0.39,0 0.84,0.05 0.97,-0.24 0.22,-0.5 -0.13,-1.52 0.37,-2.09 0.15,0.26 -0.02,0.46 0.48,1.31 0.26,0.45 0.42,0.77 0.74,1.03l0.8 0.52c0.57,0.33 1.01,0.46 1.76,0.49 1.5,0.06 2.35,-0.42 3.31,-1.45 0.52,-0.56 0.66,-1.38 0.79,-1.52 0.61,0.6 -0.18,1.74 0.88,1.74l0.86 0.01c0.17,0 2.35,-0.19 2.61,-0.27 0.53,-0.17 0.64,-1.7 0.75,-2.15 0.25,-1.05 0.37,-1.09 0.38,-2.07 0,-0.43 -0.21,-0.44 -0.6,-0.46l-1.93 -0.17c-0.27,-1.76 0.38,-1.07 1.46,-1.34 0.07,-0.21 0.13,-0.29 -0.04,-0.49 -0.59,-0.68 -1.18,-0.69 -1.96,-0.99 -2.5,-0.95 -9.77,-1.27 -11.05,-2.27 -1,-0.78 -4.8,-3.24 -6.41,-3.92 -0.74,-0.31 -0.78,-0.35 -1.77,-0.47 -2.97,-0.37 -5.38,-0.43 -8.3,-0.59 -2.53,-0.13 -5.18,-0.11 -7.7,0.21 -0.31,0.04 -0.3,0.04 -0.63,0.04z"/>
 </g>
</svg>
