<?xml version="1.0" encoding="UTF-8"?>
<!DOCTYPE svg PUBLIC "-//W3C//DTD SVG 1.1//EN" "http://www.w3.org/Graphics/SVG/1.1/DTD/svg11.dtd">
<!-- Creator: CorelDRAW -->
<svg xmlns="http://www.w3.org/2000/svg" xml:space="preserve" width="24.7459mm" height="7.4065mm" version="1.1" style="shape-rendering:geometricPrecision; text-rendering:geometricPrecision; image-rendering:optimizeQuality; fill-rule:evenodd; clip-rule:evenodd"
viewBox="0 0 100.58 30.1"
 xmlns:xlink="http://www.w3.org/1999/xlink"
 xmlns:xodm="http://www.corel.com/coreldraw/odm/2003">
 <defs>
  <style type="text/css">
   <![CDATA[
    .fil0 {fill:black}
   ]]>
  </style>
 </defs>
 <g id="Camada_x0020_1">
  <metadata id="CorelCorpID_0Corel-Layer"/>
  <path class="fil0" d="M39.13 16.58l0.9 0c0.38,0 0.4,0.2 0.4,0.59l0 2.59c0,0.28 -0.2,0.47 -0.47,0.47l-0.94 0c0,-1.24 0.02,-2.42 0.12,-3.65zm59.65 6.56c0.29,0 0.52,0.31 0.52,0.7 0,0.92 -1.05,0.92 -1.05,0 0,-0.38 0.23,-0.7 0.52,-0.7zm-48.65 -2c2.43,0 4.4,1.98 4.4,4.43 0,1.48 -0.72,2.79 -1.83,3.6l35.86 0c-1.73,-0.6 -2.98,-2.25 -2.98,-4.19 0,-2.45 1.97,-4.43 4.4,-4.43 2.43,0 4.4,1.98 4.4,4.43 0,1.95 -1.25,3.6 -2.98,4.19l3.77 0c0.67,-0.01 0.69,0.94 0.02,0.94l-85.52 0c-0.63,0 -0.63,-0.94 0,-0.94l15.31 0 0 -2.35 -0.59 0c-1.29,0 -2.54,-0.53 -3.3,-1.05 -1.04,-0.72 -1.61,-1.82 -2.23,-2.25l-17.91 -0.11c-1.28,0.01 -1.4,-2.59 0.32,-2.59l7.93 0c0.4,-0.02 0.42,-0.71 0.02,-0.84l-8.16 -0.21c-1.18,-0.48 -1.41,-2.56 0.25,-2.85l17.08 -0.22 0.47 0c0.29,-1.24 2.68,-3.29 4.24,-3.29l1.89 0 0 -12.94c0,-0.28 0.2,-0.47 0.47,-0.47l1.06 0c0.32,0 0.32,0.06 0.59,0.12 0.06,0.26 0.12,0.27 0.12,0.59l0 12.7c0.73,0.27 1.03,0.68 0.82,1.41l-0.82 0 0 10 0.72 -0.03c0.18,0.66 0.31,1.53 -0.72,1.79l0 2.59 20.33 0c-1.11,-0.8 -1.83,-2.12 -1.83,-3.6 0,-2.45 1.97,-4.43 4.4,-4.43zm0 1.49c0.01,0 0.02,0 0.04,0l-0.01 0 0.17 1.89 0.59 0.26 1.36 -1.21c0.34,0.37 0.58,0.82 0.7,1.32l-1.71 0.64 -0.1 0.63 1.45 0.94c-0.21,0.34 -0.49,0.64 -0.82,0.87l-1.14 -1.36 -0.63 0.12 -0.42 1.72c-0.49,-0.09 -0.94,-0.31 -1.32,-0.61l1.01 -1.35 -0.26 -0.59 -1.81 -0.01c-0.05,-0.41 -0.01,-0.81 0.11,-1.19l1.81 0.43 0.39 -0.51 -0.72 -1.69c0.39,-0.2 0.84,-0.31 1.31,-0.31zm39.85 -0.6c0.01,0 0.02,0 0.04,0l-0.01 0 0.17 1.89 0.59 0.26 1.36 -1.21c0.34,0.37 0.58,0.82 0.7,1.32l-1.71 0.64 -0.1 0.63 1.45 0.94c-0.21,0.34 -0.49,0.64 -0.82,0.87l-1.14 -1.36 -0.63 0.12 -0.42 1.72c-0.49,-0.09 -0.94,-0.31 -1.32,-0.61l1.01 -1.35 -0.26 -0.59 -1.81 -0.01c-0.05,-0.4 -0.01,-0.81 0.11,-1.19l1.81 0.43 0.39 -0.51 -0.72 -1.69c0.39,-0.2 0.84,-0.31 1.31,-0.31zm9.46 -1.69c-2.4,0 -4.72,-0.81 -5.54,-2.35l4.47 0.87 1.07 1.48zm-36.36 -9.61l2.67 -0.15 0 5.06c-1.52,0 -3.93,0.07 -3.77,-1.53l0.28 -2.54c0.14,-0.47 0.25,-0.77 0.82,-0.83zm14.85 1.92c0.32,0.18 2.05,1.19 2.19,1.23l0 2.12c-4.16,0 -8.26,-0.3 -12.41,-0.37l-0.48 -4.94c3.32,0.19 7.72,0.24 10.71,1.96zm-16.13 -4.1l-1.62 -1.99c-0.19,-0.15 -0.45,-0.03 -0.31,0.22l1.35 1.85c-0.69,0.08 -1.42,0.05 -2,0.24 -0.43,0.34 -0.22,0.54 0.39,0.54 -0.5,0.95 -0.59,1.05 -0.85,2.32 -0.16,0.76 -0.3,1.92 -0.68,2.5l-16.73 0c-1.5,-0 -1.81,-0.08 -2.22,1.07 -0.67,1.83 -0.48,3.68 -0.48,6.1 -0.34,0.5 -1.06,0.84 -1.06,1.53l0 0.24c0,0.83 0.88,2.23 1.41,2.59l6 0.63 0 -0.4c0,-1.79 0.31,-2.82 1.18,-3.76 0.5,-0.56 2.13,-1.62 3.29,-1.65l0.59 0c2.65,0 4.95,2.61 4.95,5.17l0 0.94 29.8 0.23 0 -1.05c0,-3.23 2.1,-5.76 5.42,-5.76 2.48,0 4.59,2.41 4.59,5.06l0 1.06 1.3 0c1.41,0 3.85,-0.23 4.12,-1.18l0 -2c0.56,-0.32 0.29,-1.95 -0.32,-2.48 0.02,-0.99 -0.69,-2.01 -0.88,-2.21 -2.23,-2.08 -9.35,-2.86 -12.47,-3.2 -1.18,-0.28 -7.05,-4.75 -12.84,-5.65 -1.95,-1.42 -10.11,-0.97 -11.95,-0.97zm-40.47 10.86l0 0.71c0,0.73 0.79,1.41 1.53,1.41l0.24 0c0.87,0 1.65,-0.79 1.65,-1.53l0 -0.23c0,-1.05 -0.72,-1.76 -1.77,-1.76l-0.24 0c-0.66,0 -1.41,0.76 -1.41,1.41zm12.02 -1.18c0,-7.71 5.89,-9.5 5.89,-10.23 0,-0.63 -0.25,-0.71 -0.82,-0.71 -1,0 -3.89,3.05 -4.48,3.88 -1.12,1.59 -1.88,3.75 -1.88,6.47l0 1.88c-0.01,2.49 1.67,2.45 1.41,1.18l-0.12 -2.47zm-2.12 -0.47c0,-3.09 1.2,-5.41 2.45,-7.31 0.45,-0.68 1.74,-1.98 2.38,-2.45 0.56,-0.41 2.59,-1.49 2.59,-2.23l0 -0.12c0,-0.28 -0.42,-0.71 -0.71,-0.71l-0.24 0c-0.35,0 -2.88,1.87 -3.21,2.2 -0.93,0.94 -1.75,1.63 -2.52,2.78 -1.43,2.14 -2.4,4.79 -2.4,8.3 0,1.08 -0.11,3.88 1.06,3.88l0.24 0c0.98,0 0.35,-3.19 0.35,-4.35zm6.01 -0.35c-0.01,-0.71 0.27,-1.55 0.63,-2.27 0.42,-0.85 0.89,-1.4 1.61,-2 0.7,-0.58 1.53,-1.25 1.53,-1.49 0,-0.14 -0.24,-0.35 -0.47,-0.35 -0.63,0 -2.45,1.93 -2.85,2.45 -0.6,0.79 -1.28,2.54 -1.28,3.9l0 0.59 0.14 1.53c0.13,0.48 0.8,0.63 0.77,0.23l-0.08 -2.58zm-1.65 0.59c-0.13,-1.93 0.86,-4.1 1.65,-5.17 0.48,-0.65 0.99,-1.29 1.65,-1.76 0.37,-0.27 1.89,-1.14 1.89,-1.53 0,-0.4 -0.19,-0.59 -0.59,-0.59 -0.9,0 -3.4,2.47 -3.89,3.17 -0.85,1.2 -1.76,3.15 -1.76,5.18l0 1.18 0.13 1.88c0.04,0.66 1.04,0.9 1.04,0.24l-0.12 -2.59zm-15.55 2.47c0,-1.58 0.14,-2.8 0.74,-3.84 0.5,-0.85 1.71,-1.8 2.91,-1.8l1.3 0 0 10.11 -1.3 0c-0.55,0 -2.19,-1.05 -2.57,-1.44 -0.57,-0.59 -1.09,-1.91 -1.09,-3.03z"/>
 </g>
</svg>
