<?xml version="1.0" encoding="UTF-8"?>
<!DOCTYPE svg PUBLIC "-//W3C//DTD SVG 1.1//EN" "http://www.w3.org/Graphics/SVG/1.1/DTD/svg11.dtd">
<!-- Creator: CorelDRAW -->
<svg xmlns="http://www.w3.org/2000/svg" xml:space="preserve" width="25.952mm" height="32.3161mm" version="1.1" style="shape-rendering:geometricPrecision; text-rendering:geometricPrecision; image-rendering:optimizeQuality; fill-rule:evenodd; clip-rule:evenodd"
viewBox="0 0 99.79 124.26"
 xmlns:xlink="http://www.w3.org/1999/xlink"
 xmlns:xodm="http://www.corel.com/coreldraw/odm/2003">
 <defs>
  <style type="text/css">
   <![CDATA[
    .fil0 {fill:black}
   ]]>
  </style>
 </defs>
 <g id="Camada_x0020_1">
  <metadata id="CorelCorpID_0Corel-Layer"/>
  <path class="fil0" d="M21.31 13.25c-0.58,0.12 -5.94,1.51 -5.94,0.33 0,-0.88 6.3,-1.4 6.95,-1.83 0,-0 6.03,-8.07 13.64,-11.1 7.26,-2.89 7.02,4.46 -4.72,9.54 -6.91,2.99 -5.42,0.62 -8.04,4.55 -5.19,7.79 0.22,9.14 4.41,6.05 8.26,-6.09 1.72,-7.15 -2.83,-1.15 -2.35,3.09 -2.25,-1.11 3.1,-4.11 6.75,-3.78 6.96,4.89 -0.94,7.48 -5.13,1.68 -8.79,-0.99 -6.92,-6.91l1.28 -2.84zm32.27 64.88c-1,0.77 -0.06,2.34 0.34,3.24 0.33,0.74 0.2,0.4 0.93,0.11 0.86,-0.33 2.3,-0.69 2.21,-1.91 -0.05,-0.65 -0.58,-1.04 -1.23,-0.91 -0.91,0.17 -0.26,0.26 -0.86,-0.43 -0.44,-0.5 -0.87,-0.45 -1.38,-0.1zm1.71 -5.35c-0.29,-0.33 -0.62,-0.26 -0.94,-0.01 -1.6,-1.1 -0.98,1.74 0.02,1.61 0.11,-0.02 1.33,-0.7 0.91,-1.59l0.01 0zm-3.66 5.21c0.72,0.3 0.47,0.34 0.67,-0.14 1.49,-3.29 -0.37,-2.74 -0.8,-2.44 -0.55,0.4 -0.29,0.29 -1.03,0.32 -0.41,0.02 -1.71,1.17 1.18,2.26l-0.01 0zm-29.72 -5.3c0,3.24 -1.31,4.53 -4.63,5.56l-0.55 -1.36c1.65,-0.73 1.75,-1.33 1.75,-3.22 0,-1.65 0.21,-12.75 -0.17,-13.5l-1.01 -0.61 0 -0.73 5.8 0 0 0.73c-1.15,0.31 -1.19,0.75 -1.19,2.06l0 11.07zm12.94 -11.09c0,-1.37 -0.03,-1.73 -1.17,-2.05l0 -0.73 4.86 0 0 0.73c-1.12,0.33 -1.18,0.68 -1.18,2.05 0,1.88 0.15,7.68 -0.22,9.2 -1.1,4.57 -8.05,3.61 -9.75,1.98 -2.9,-2.79 -0.16,-11.94 -1.86,-12.98 -0.16,-0.09 -0.38,-0.18 -0.66,-0.25l0 -0.73 5.8 0 0 0.73c-1.15,0.32 -1.2,0.75 -1.2,2.06 0,2.08 -0.37,8.58 0.52,10.12 0.82,1.44 3.94,1.73 4.61,-0.65 0.47,-1.69 0.1,-9.21 0.23,-9.49zm18.97 -2.77l0 0.73c-1.08,0.36 -1.19,0.59 -1.19,2.05l0 12.31 -2.81 0 -6.45 -11.34 -0.1 0 0.19 9.74 1.12 0.87 0 0.73 -4.18 0 0 -0.73c1.13,-0.32 1.19,-0.69 1.19,-2.03l-0.07 -10.71 -1.11 -0.89 0 -0.73 4.48 0 5.89 10.6 0.18 0 -0.35 -9.35 -0.96 -0.52 0 -0.73 4.18 0 -0.01 0zm5.1 15.09l0 -0.73c1.31,-0.21 1.34,-0.71 1.34,-2.05l0 -11.02c-2,0 -2.66,-0.09 -3.29,2.59l-1.52 0 0 -3.88 13.02 0 0 3.88 -1.52 0c-0.73,-2.59 -1.01,-2.59 -3.27,-2.59l0.16 12.4 1.18 0.67 0 0.73 -6.11 0 0.01 0.01zm17.32 0.18c-7.6,0 -7.16,-8.64 -5.72,-11.85 2.12,-4.73 8.66,-4.33 10.95,-1.7 2.47,2.82 3.38,13.55 -5.23,13.55l-0 0zm-3 -7.89c0,8.38 4.52,7.39 5.67,4.86 0.99,-2.19 1.56,-11.11 -2.5,-11.11 -2.78,0 -3.16,3.49 -3.16,6.26l-0.01 -0.01zm-64.38 -23.39l82.12 0c0.7,0 0.7,1.06 0,1.06l-82.12 0c-0.7,0 -0.7,-1.06 0,-1.06zm0 -17.59l82.12 0c0.7,0 0.7,1.06 0,1.06l-82.12 0c-0.7,0 -0.7,-1.06 0,-1.06zm50.71 75.68c0.31,0.6 -0.61,2.13 -0.67,2.17 -0.23,0.16 0,0.27 0.2,0.39 0.72,0.45 0.35,0.61 0.52,0.77 0.21,0.21 0.42,-0.52 1.12,0.84 1.3,2.52 1.98,3.22 2.79,5.58l0.35 -0.05c0.18,0.7 0.97,1.54 1.42,2.07 0.18,0.21 0.23,1.42 0.35,2.03 0.25,1.29 0.44,0.99 0.09,3.14 -0.4,2.51 -1.78,3.91 -2.56,4.39 -0.88,0.53 -0.7,0.93 -0.44,1.45 0.47,0.09 2.65,0.91 3.49,0.38 0.96,-0.61 2.82,0.87 3.27,-0.45 0.5,0.21 1.13,0.13 1.73,0.11 0.35,-0.45 0.26,-0.63 0.41,-1.29 -0.83,-1.09 0.14,-8.66 0.53,-10.12 0.5,-1.87 0.85,-3.52 -0.46,-5.48 -0.66,-1.01 -1.67,-1.23 -2.95,-1.63 0.66,-4.86 -0.73,-2.76 -3.09,-3.78 -1.18,-0.51 -0.74,-0.71 -1.86,-0.83 -0.02,-0.18 0.03,-0.12 0.07,-0.36l-1.79 -0.59c-0.34,-2.16 2.64,-0.92 3.9,-2.28 1.38,-1.49 2.69,-1.14 2.98,-4.19 0.24,-2.53 0.38,-4.02 -1.81,-6.83 -1.77,-2.28 -2.11,-2.79 -5.04,-3.4 -1.16,-0.23 -5.06,-1.14 -5.7,0.06 -2.1,0.08 -2.18,0.94 -2.83,2.59 -0.17,0.44 -0.47,0.67 -0.52,0.82 -0.13,0.33 1.18,0.06 0.38,1.45 -1.13,1.94 -0.02,1.69 -1.02,2.7 -0.24,0.35 -0.36,0.11 -0.84,0.16 -0.23,0.58 0.8,1.68 -0.62,1.23 -0.11,0.27 -0.11,0.32 -0.09,0.6 0.02,0.45 -0.18,0.4 -0.16,0.55 0.03,0.21 0.53,0.47 0.61,0.61 0.31,0.54 -0.01,1.55 0.97,2.3 1.63,1.24 5.42,1.57 7.26,4.91l0.01 -0.02zm-9.87 -19.09l0.13 1.33c-0.11,0.1 -0.2,0.24 -0.26,0.55 -0.63,-0.02 -0.95,0.04 -1.15,0.47 -1.15,-0.82 -1.69,-1.54 -3.41,-1.9 -1.99,-0.41 -4.57,0.26 -6.04,1.01 -1.65,0.84 -2.28,1.71 -2.29,3.7 -1.51,-0.74 -2.54,1.91 -2.78,3.26 -0.18,0.94 0.23,2.35 0.06,3.03 -0.11,0.44 -0.71,0.35 -1.22,1.16 -0.08,0.12 -0.18,0.48 -0.23,0.54 -0.69,0.1 -0.57,0.43 -0.79,0.69l-0.68 0.08c-0.36,-0.07 -0.26,-0.36 -1.68,-0.21 -0.73,0.07 -1.2,-0.04 -1.89,-0.06 -0.72,-0.02 0.29,2.29 2.2,2.14l1.61 -0.59c1.37,-0.13 1.09,-0.51 1.54,-0.64 0.98,-0.25 0.4,-0.52 1.11,-0.81 0.74,-0.31 0.23,-1.88 0.64,-0.79 0.61,1.63 1.18,1.48 0.82,1.76 -0.76,0.6 -0.04,1.51 0.4,1.63 0.99,0.26 0.98,-0.89 1.78,-0.25 2.7,2.17 2.11,1.28 4.72,1.18 1.27,-0.04 0.92,1.41 0.91,1.42 -0.84,0.62 -1.27,-0.6 -2.86,0.22l-3.36 2.84c-0.27,0.42 0.61,2.25 1.83,3.25l-0.38 0.58c-1.84,0.04 -2.42,1.34 -4.49,1.16 0.55,3.62 3.53,3.38 4.53,4.36l0.49 2.45c0.24,1.82 -0.77,2.14 0.38,5.94 0.42,1.4 0.26,1 -0.5,1.59 -0.22,0.34 -0.96,0.43 -1.11,0.84 0.6,0.76 2.8,0.44 4.05,-0.25 0.69,0.48 0.4,0.86 2.71,0.52 1.28,-0.19 1.63,0.12 0,-1.57 -0.72,-0.75 0.71,-2.69 0.87,-3.99 0.05,-0.4 -0.06,-2.32 0.01,-2.43l0.72 -2.83c0.62,-0.51 1.77,0.45 4.35,-1.64 0.33,-0.27 0.48,-0.41 0.52,-0.84 -1.65,0.13 -4.12,-3.2 -3.91,-3.29 3.75,-1.77 2.79,-2.73 2.27,-3.9 -0.33,-0.78 -0.74,-1.94 -1.18,-2.49 -0.7,-0.85 -2.36,0.6 -2.76,-0.52 -0.23,-0.62 -0.01,-2.2 0.8,-2.81 3.51,-2.64 4.54,-2.8 4.63,-7.4 0.51,-0.06 0.65,0.44 1.13,-0.28 0.13,-0.55 0.09,-1.34 -0.6,-1.49 -1.17,-0.25 0.31,1.41 -1.77,-2.75 0.71,-0.32 0.98,-0.58 1.02,-1.42 0.48,-0.14 0.53,-0.51 0.49,-0.94 0.51,-0.51 0,-1.33 -0.03,-1.45 -0.35,-1.37 1.37,-1.18 -0.79,-3.02 -1.16,-0.98 -0.65,-0.16 -0.6,0.64l0.03 2.25zm-29.16 -29.15l-1.91 4.25c-0.1,0.37 -2.41,0.72 -0.89,-3.37l3.78 -8c0.31,-0.36 2.03,0.18 1.56,1.28 1.46,-1.46 4.27,0.69 1.61,4.52 -0.97,1.4 -2.9,2.48 -4.15,1.33zm7.23 -1.11c0.42,1.58 3.92,-1.47 4.24,-1.91 1.21,-1.67 1.32,-4.94 3.2,-2.85 0.39,0.43 0.17,0.91 -0.02,1.09 1.69,-1.36 0.56,-0.71 1.38,-1.84 0.37,-0.51 1.99,0.42 1.83,0.9 -0.33,1.02 -0.8,2 -0.62,2.83 0.27,1.22 -1.63,0.15 -1.76,-1.06 -3.95,4.06 -2.77,5.24 -4.11,4.49l-0.73 -0.93c-3.23,3.08 -7.43,-0.5 -4.15,-4.8 2.96,-3.89 7.11,0.39 2.24,3.46l-1.5 0.62zm17.1 -0.82c0.05,-0.5 0.25,-1.01 0.47,-1.46 -2.23,2.51 -1.83,4.17 -3.23,3.02 -0.82,-0.67 -0.25,-2.48 0.06,-3.32l-2.57 4.2c-0.11,0.59 -2.45,0.14 -1.4,-2.74 0.25,-0.69 1.49,-4.15 2.38,-3.92 0.46,0.12 1.42,0.6 1.19,1.04 0.94,-1.14 2.29,-2.92 3.21,-1.03l-0.35 1.74c1.02,-1.02 2.37,-3.34 3.67,-0.98 0.53,0.96 -1.35,2.67 -1.64,4.13 2.74,-0.67 3.24,-5.2 6.01,-5.47l1.52 0.72c1.25,-1.59 2.16,0.46 2,0.65 -0.66,0.84 -2.07,3.19 -2.18,4.22 3.11,-1.56 2.48,-3.78 4.28,-5.58 0.26,-0.26 1.98,0.31 1.37,1.47 -0.08,0.16 -0.16,0.32 -0.25,0.47 1.29,-1.23 3.09,-3.04 3.74,-0.77 0.27,0.95 -1.14,2.41 -1.81,4.37l2.14 -1.82c2.15,-7.23 9.15,-2.41 3.32,1.27 -0.46,0.29 -0.96,0.49 -1.49,0.61 0.4,1.49 3.58,-1.2 3.69,-1.4 0.07,-0.13 0.64,-2.99 3.12,-4.17 1.64,-0.78 4.74,1.49 1.37,3.23 -1.27,0.66 -0.19,-1.33 -0.15,-1.8 -2.32,0.72 -4.41,7.47 0.79,3.3 1.69,-1.35 0.41,-1.14 1.98,-3.2 2.97,-3.9 7.1,0.4 2.25,3.46 -0.46,0.29 -0.96,0.49 -1.49,0.61 0.56,2.1 5.33,-3.12 5.56,-3.12 1.26,0 -3.68,8.23 -7.13,3.66 -0.11,-0.14 -0.19,-0.29 -0.25,-0.45 -2.48,3.03 -5.16,1.68 -5.86,0.18 -1.72,1.72 -3.68,2.54 -5.43,0.26 -0.09,-0.12 -0.16,-0.25 -0.22,-0.38 -2.47,3.09 -4.93,0.56 -3.44,-2.63 -3.02,3.19 -2.28,4.8 -3.44,3.83l-0.7 -0.86c-2.34,2.59 -3.71,-0.09 -3.71,-0.81 -0.78,1.1 -2.1,3.29 -3.53,0.96 -0.05,-0.08 -0.08,-0.16 -0.11,-0.25 -2.02,2.26 -3.45,0.82 -3.69,-0.57l-0.05 -0.67zm-23.76 0.89c1.52,0 3,-3.18 2.81,-3.93l-2.82 3.93 0.01 0zm6.88 -1.45l1.93 -2.74c-0.78,0.29 -1.64,1.93 -1.93,2.73l0.01 0.01zm22.59 1.1l2.84 -3.56 -0.13 -0.3c-0.97,0.41 -2.41,2.81 -2.71,3.87l0.01 -0.01zm14.96 -1.1l1.93 -2.74c-0.78,0.29 -1.64,1.93 -1.93,2.73l0.01 0.01zm11.54 0l1.93 -2.74c-0.78,0.29 -1.64,1.93 -1.93,2.73l0.01 0.01zm-71.88 -11.27c0.66,0.9 1.27,2.02 2.53,0.96l0.44 0.55c-2.57,2.38 -3.89,0.26 -4.92,-1.33 -4.27,-0.44 -3.82,-6.79 -1.4,-8.23 1.67,-1 5.85,-1.14 5.85,3.76 0,1.97 -0.61,3.72 -2.49,4.31l0 -0zm-3.14 -4.29c0,6.19 4.87,4.36 3.42,-1.86 -0.56,-2.4 -3.41,-2.83 -3.41,1.85l-0.01 0.01zm12.43 -2.61c0,-0.79 -0.03,-0.99 -0.67,-1.16l0 -0.41 2.76 0 0 0.41c-1.91,0.55 0.75,6.42 -1.84,7.86 -0.94,0.52 -5.25,1.36 -5.25,-2.61 0,-1.16 0.26,-4.76 -0.3,-5.09 -0.09,-0.05 -0.21,-0.1 -0.38,-0.14l0 -0.41 3.3 0 0 0.41c-0.63,0.18 -0.68,0.38 -0.68,1.17 0,1.76 -0.44,5.57 0.75,6.21 0.5,0.27 1.82,0.38 2.15,-0.82l0.14 -5.41zm9.41 -1.58l0 2 -0.86 0c-0.51,-1.51 -0.83,-1.26 -2.76,-1.26l0 3.02c1.2,0 1.46,0.15 1.72,-0.91l0.71 0 0 2.55 -0.71 0c-0.25,-1.08 -0.62,-0.91 -1.72,-0.91l0 3.36c1.77,0 2.31,0.3 2.81,-1.57l0.86 0 -0.12 2.3 -6.18 0 0 -0.41c0.63,-0.17 0.67,-0.36 0.67,-1.16 0,-1.34 0.3,-6.11 -0.3,-6.45 -0.09,-0.05 -0.21,-0.1 -0.38,-0.14l0 -0.41 6.25 0zm9.45 4.09c2.57,0.81 2.8,4.5 -1.54,4.5l-3.88 0 0 -0.41c0.63,-0.17 0.67,-0.36 0.67,-1.16 0,-1.34 0.3,-6.11 -0.3,-6.45 -0.09,-0.05 -0.21,-0.1 -0.38,-0.14l0 -0.41c2.82,0 7.12,-0.7 7.12,1.91 0,0.95 -0.57,1.66 -1.71,2.13l0 0.06 0.01 -0.02zm-1.96 -0.33c2.27,0 2.46,-3.03 0.01,-3.03 -0.29,0 -0.58,0.01 -0.86,0.03l0 3 0.84 0zm-0.84 4.07c4.12,0.24 2.36,-2.81 2.2,-2.95 -0.53,-0.48 -1.44,-0.38 -2.2,-0.38l0 3.33 -0.01 0.01zm12 -7.83l0 2 -0.86 0c-0.51,-1.51 -0.83,-1.26 -2.76,-1.26l0 3.02c1.2,0 1.46,0.15 1.72,-0.91l0.71 0 0 2.55 -0.71 0c-0.25,-1.08 -0.62,-0.91 -1.72,-0.91l0 3.36c1.77,0 2.31,0.3 2.81,-1.57l0.86 0 -0.12 2.3 -6.18 0 0 -0.41c0.63,-0.17 0.67,-0.36 0.67,-1.16 0,-1.34 0.3,-6.11 -0.3,-6.45 -0.09,-0.05 -0.21,-0.1 -0.38,-0.14l0 -0.41 6.25 0zm6.61 4.09c2.57,0.81 2.8,4.5 -1.54,4.5l-3.88 0 0 -0.41c0.63,-0.17 0.67,-0.36 0.67,-1.16 0,-1.34 0.3,-6.11 -0.3,-6.45 -0.09,-0.05 -0.21,-0.1 -0.38,-0.14l0 -0.41c2.82,0 7.12,-0.7 7.12,1.91 0,0.95 -0.57,1.66 -1.71,2.13l0 0.06 0.01 -0.02zm-1.96 -0.33c2.27,0 2.46,-3.03 0.01,-3.03 -0.29,0 -0.57,0.01 -0.86,0.03l0 3 0.84 0zm-0.84 4.07c4.12,0.24 2.36,-2.81 2.2,-2.95 -0.53,-0.48 -1.44,-0.38 -2.2,-0.38l0 3.33 -0.01 0.01zm12 -7.83l0 2 -0.86 0c-0.51,-1.51 -0.83,-1.26 -2.76,-1.26l0 3.02c1.2,0 1.46,0.15 1.72,-0.91l0.71 0 0 2.55 -0.71 0c-0.27,-1.07 -0.53,-0.91 -1.72,-0.91l0 3.36c1.91,0 2.27,0.28 2.81,-1.57l0.86 0 -0.12 2.3 -6.18 0 0 -0.41c0.63,-0.17 0.67,-0.36 0.67,-1.16 0,-1.34 0.3,-6.11 -0.3,-6.45 -0.09,-0.05 -0.21,-0.1 -0.38,-0.14l0 -0.41 6.25 0zm6.6 7.89c0,1.83 -0.75,2.59 -2.64,3.16l-0.31 -0.77c0.94,-0.42 0.99,-0.77 0.99,-1.84 0,-1.53 0.33,-7.51 -0.3,-7.88 -0.09,-0.05 -0.21,-0.1 -0.38,-0.14l0 -0.41 3.3 0 0 0.41c-0.66,0.18 -0.67,0.42 -0.67,1.16l0 6.31zm7.36 -6.31c0,-0.79 -0.03,-0.99 -0.67,-1.16l0 -0.41 2.76 0 0 0.41c-1.91,0.55 0.75,6.42 -1.84,7.86 -0.94,0.52 -5.25,1.36 -5.25,-2.61 0,-1.16 0.26,-4.76 -0.3,-5.09 -0.09,-0.05 -0.21,-0.1 -0.38,-0.14l0 -0.41 3.3 0 0 0.41c-0.63,0.18 -0.68,0.38 -0.68,1.17 0,1.76 -0.44,5.57 0.75,6.21 0.5,0.27 1.82,0.38 2.15,-0.82l0.14 -5.41zm10.79 -1.58l0 0.41c-0.62,0.21 -0.67,0.34 -0.67,1.16l0 7.01 -1.59 0 -3.67 -6.45 -0.06 0 0.28 5.84c0.08,0.08 0.23,0.14 0.46,0.2l0 0.41 -2.38 0 0 -0.41c0.64,-0.17 0.67,-0.41 0.67,-1.16 0,-1.11 0.22,-6 -0.21,-6.39 -0.08,-0.08 -0.24,-0.15 -0.46,-0.21l0 -0.41 2.55 0 3.35 6.03 0.1 0c-0.05,-1.09 0.15,-5.15 -0.38,-5.47 -0.07,-0.04 -0.2,-0.08 -0.37,-0.14l0 -0.41 2.39 -0.01zm2.9 8.58l0 -0.41c0.74,-0.12 0.76,-0.42 0.76,-1.17l0 -6.27c-1.23,0 -1.48,-0.03 -1.87,1.47l-0.86 0 0 -2.2 7.4 0 0 2.2 -0.86 0c-0.41,-1.47 -0.58,-1.47 -1.86,-1.47 0,1.17 -0.23,6.82 0.21,7.23l0.55 0.21 0 0.41 -3.47 0 0.01 0.01zm9.86 0.1c-4.88,0 -4.43,-6.78 -1.93,-8.26 1.69,-1.01 5.85,-1.12 5.85,3.76 0,2.67 -1.12,4.5 -3.91,4.5l0 0.01zm-1.71 -4.49c0,6.19 4.87,4.36 3.42,-1.86 -0.56,-2.4 -3.41,-2.83 -3.41,1.85l-0.01 0.01zm-49.98 -18.92c1.4,-1.4 3.42,-0.78 2.64,0.16 -0.05,0.06 -9.6,8.77 -3.32,5.64 3.02,-1.5 5.03,-4.04 8.83,-6.36 0.49,-3.85 4.13,-1.35 1.06,0.4 0.87,1.48 0.74,4.18 -0.41,5.65 4.23,-2.04 6.26,-6.37 10.54,-6.37 0.67,0 1.24,0.16 1.42,0.86 1.4,-1.4 3.42,-0.78 2.64,0.16 -0.05,0.06 -9.6,8.77 -3.32,5.64 2.58,-1.28 4.43,-3.25 6.72,-5.02 0.74,-0.57 1.49,-1.14 2.25,-1.69l9.54 -10.59c0.49,-0.22 2.38,-0.07 1.3,1.09l-12.31 14.72c-2.36,4.1 2.53,1.19 3.8,0.28 1.17,-0.83 3.38,-3.12 3.38,-1.81 0,1.05 -9.35,7.79 -9.35,3.18 0,-1.36 0.97,-3.12 1.71,-4.28 -2.07,1.61 -8.26,7.62 -10.59,5.44 -0.31,-0.29 -0.45,-0.67 -0.47,-1.09 -3.1,2.85 -4.85,1.38 -4.31,-1.25 -9.3,6.63 -10.79,-0.38 -7.81,-0.38 1.32,0 1.45,1.98 -0.14,2.01 0.48,0.48 3,0.93 3.83,-3.25 0.16,-0.82 0.25,-1.67 0.29,-2.52 -2.82,1.64 -9.63,8.87 -12.17,6.49 -0.31,-0.29 -0.45,-0.67 -0.47,-1.09 -5.17,4.75 -6.82,-2.84 0.52,-6.21 0.9,-0.41 3.75,-1.46 4.15,0.16l0.04 0.02zm-18.05 -4.85c4.51,-1.24 9.74,-3.84 12.57,-7.68 3.37,-4.57 -4.98,-1.96 -12.58,7.67l0.01 0.01zm16.83 6.01c1.72,-1.95 -2.47,-0.65 -5.22,3.16 -2.05,2.84 -0.27,2.66 1.69,0.55l3.51 -3.73 0.02 0.01zm20.78 0c1.72,-1.95 -2.47,-0.65 -5.22,3.16 -2.05,2.84 -0.27,2.66 1.69,0.55l3.51 -3.73 0.02 0.01z"/>
 </g>
</svg>
