<?xml version="1.0" encoding="UTF-8"?>
<!DOCTYPE svg PUBLIC "-//W3C//DTD SVG 1.1//EN" "http://www.w3.org/Graphics/SVG/1.1/DTD/svg11.dtd">
<!-- Creator: CorelDRAW -->
<svg xmlns="http://www.w3.org/2000/svg" xml:space="preserve" width="48.5379mm" height="67.3914mm" version="1.1" style="shape-rendering:geometricPrecision; text-rendering:geometricPrecision; image-rendering:optimizeQuality; fill-rule:evenodd; clip-rule:evenodd"
viewBox="0 0 4839.56 6719.39"
 xmlns:xlink="http://www.w3.org/1999/xlink"
 xmlns:xodm="http://www.corel.com/coreldraw/odm/2003">
 <defs>
  <style type="text/css">
   <![CDATA[
    .fil0 {fill:black}
   ]]>
  </style>
 </defs>
 <g id="Camada_x0020_1">
  <metadata id="CorelCorpID_0Corel-Layer"/>
  <path class="fil0" d="M2600.93 4268.8c0,-120.87 12.88,-148.64 -24.97,-252 -139.1,-379.72 -93.6,135.29 -93.6,-617.57l103.53 133.62c191.02,307.98 332.99,523.03 15.05,735.96zm-355.75 -39.54c-203.23,-107.54 -216.6,-251.7 -123.62,-436.74 124.03,-246.9 77.5,-338.78 281.74,-393.29 0,917.37 -158.13,259.16 -158.13,830.03zm0 -1027.66c-24.59,92.05 11.41,95.99 -253.77,181 -352.35,112.94 -1240.39,65.98 -1459.1,-207.29 -85.15,-106.39 -184.37,-480.26 -184.37,-606.15 0,-136.25 29.22,-153.03 39.54,-276.66 421.18,35.03 1328.06,785.69 1857.7,909.1zm355.75 0c560.98,-130.72 1897.24,-1271.53 1897.24,-790.53 0,846.04 -391.07,1027.66 -1185.78,1027.66 -483.98,0 -432.09,-134.87 -711.46,-158.11l0 -79.03zm2015.8 750.97c0,-178.44 -111.69,-7.96 -74.08,-283.31 50.32,-368.44 144.16,-501.87 227.16,-986.56 117.2,-684.08 102.3,-832.43 -165.7,-1365.76 -374.2,-744.74 -1226.88,-1316.94 -2121.75,-1316.94 -1560.55,0 -1660.29,683.88 -2015.85,948.6 -712.5,530.54 -468.19,2103.9 -187.57,2480.07 73.16,98.04 155.33,165.96 187.57,286.76 -267.51,22.23 -109.4,130.68 -166.14,363.1 -42.23,173.12 -42,174.35 40.44,315.19 181.07,309.33 261.02,72.71 402.39,72.71 146.91,0 245.13,196.89 355.75,0 -90.13,-21.02 -90.91,-30.66 -197.63,-39.53 47.64,-178.51 311.89,-355.71 553.34,-355.71 240.7,0 125.81,23.88 127.74,92.09 0.11,3.98 -13.71,65.66 -14.16,72.72 -9.27,144.66 33.13,58.44 -3.74,226.25 -59.5,270.67 53.77,272.98 83.55,482.71l41.51 1262.84c0.37,481.93 318.46,503.47 318.46,313.97 0,-443.16 38.97,-1275.42 -40.21,-1668.2 -29.08,-144.01 -59.63,-152.29 79.73,-189.53l79.07 2015.85c247.12,5.49 226.88,108.66 239.48,-193.47 7.87,-188.65 38.92,-274.68 38.03,-477.67 -1.5,-341.89 38.69,-606.74 38.69,-988.97 0,-175.45 -39.5,-154.84 -39.5,-355.74l118.57 0c0,321.03 28.15,798.87 -5.8,1100.97 -15.92,142 -147.24,954.38 84.86,954.38 149.87,0 158.09,-240.21 158.09,-395.25l0 -1739.13c156.07,0 160.39,12.43 276.69,39.51 -71.94,178.21 -158.12,33.15 -158.12,197.62l0 1857.74c449.92,0 279.51,-111.51 318.31,-590.81 29.92,-369.45 17.79,-650.79 81.99,-1064.27 59.86,-385.8 173.24,30.34 153.07,-874.61 144.74,-69.43 632.43,-220.46 632.43,79.07 0,103.75 -64.56,102.38 -79.05,276.7 88.63,20.65 90.86,39.5 197.63,39.5 0.56,0 434.76,-246.35 434.76,-592.89z"/>
 </g>
</svg>
