<?xml version="1.0" encoding="UTF-8"?>
<!DOCTYPE svg PUBLIC "-//W3C//DTD SVG 1.1//EN" "http://www.w3.org/Graphics/SVG/1.1/DTD/svg11.dtd">
<!-- Creator: CorelDRAW -->
<svg xmlns="http://www.w3.org/2000/svg" xml:space="preserve" width="25.4727mm" height="45.0836mm" version="1.1" style="shape-rendering:geometricPrecision; text-rendering:geometricPrecision; image-rendering:optimizeQuality; fill-rule:evenodd; clip-rule:evenodd"
viewBox="0 0 65.42 115.78"
 xmlns:xlink="http://www.w3.org/1999/xlink"
 xmlns:xodm="http://www.corel.com/coreldraw/odm/2003">
 <defs>
  <style type="text/css">
   <![CDATA[
    .fil0 {fill:#00AC4D}
   ]]>
  </style>
 </defs>
 <g id="Camada_x0020_1">
  <metadata id="CorelCorpID_0Corel-Layer"/>
  <path class="fil0" d="M36.86 61.77c4.18,2.07 9.06,8.02 9.05,14.05 -0.01,3.31 -0.74,7.14 -2.63,9.73 -1.43,1.96 -4.6,4.89 -6.92,4.68 -0.9,-1.96 0.01,-24.65 0.5,-28.46zm-10.34 -30.12c0.38,0.97 -0.32,14.64 -0.65,16.48 -3.36,-0.86 -12.51,-4.07 -14.14,-5.91 0.4,-4.63 13.04,-10.32 14.79,-10.57zm36.17 48.35c1.45,-13.47 -11.57,-21.42 -22.47,-26.13 -3.28,-1.42 -2.9,-1.25 -2.59,-4.95 0.43,-5.09 1.08,-17.53 1.68,-20.83 2.54,-0.72 8.55,-0.55 11.71,0.02 3.84,0.69 9.72,2.91 12.89,3.14 3.48,-3.77 0.44,-11.89 -4,-15.96 -5.67,-5.19 -14.42,-2.96 -19.11,-3.63 -0.17,-3.36 -0.29,-4.9 -2.09,-7.19 -1.48,-1.88 -3.05,-3.91 -6.58,-4.42 -3.98,-0.57 -3.39,2.99 -3.56,6.18 -0.12,2.33 -0.17,6.98 -0.71,9.07 -3.63,0.72 -10.97,4.82 -13.62,6.79 -3.62,2.69 -7.99,5.9 -10.33,11.63 -3.17,7.78 0.49,10.51 6.18,13.8 5.55,3.22 12.13,5.76 15.66,7.85 -0.04,6.23 -0.06,12.24 0.01,18.35 0.03,2.9 1.08,16.34 0.72,17.53 -3.8,-0.61 -7.2,-0.85 -10.97,-2.03 -13.87,-4.35 -6.65,-10.13 -11.99,-11.96 -3.92,-1.34 -3.69,4.79 -3.32,7.15 0.85,5.54 4.21,10.76 8.84,13.94 8.95,6.16 15.66,4.59 19.62,5.42 0.62,1.02 0.97,2.59 1.47,3.85 0.59,1.46 1.06,2.44 1.76,3.7 1.26,2.27 3.89,4.57 6.9,4.42 0.92,-4.03 -1.47,-8.39 -1.08,-12.25 0.96,-0.38 2.01,-0.38 3.12,-0.63 6.56,-1.49 12.74,-4.5 17.08,-10.08 2.67,-3.45 4.27,-7.97 4.79,-12.81z"/>
 </g>
</svg>
