<?xml version="1.0" encoding="UTF-8"?>
<!DOCTYPE svg PUBLIC "-//W3C//DTD SVG 1.1//EN" "http://www.w3.org/Graphics/SVG/1.1/DTD/svg11.dtd">
<!-- Creator: CorelDRAW -->
<svg xmlns="http://www.w3.org/2000/svg" xml:space="preserve" width="21.813mm" height="14.2112mm" version="1.1" style="shape-rendering:geometricPrecision; text-rendering:geometricPrecision; image-rendering:optimizeQuality; fill-rule:evenodd; clip-rule:evenodd"
viewBox="0 0 740.56 482.47"
 xmlns:xlink="http://www.w3.org/1999/xlink"
 xmlns:xodm="http://www.corel.com/coreldraw/odm/2003">
 <defs>
  <style type="text/css">
   <![CDATA[
    .fil0 {fill:black} 
   ]]>
  </style>
 </defs>
 <g id="Camada_x0020_1">
  <metadata id="CorelCorpID_0Corel-Layer"/>
  <g id="_1891013890176">
   <path class="fil0" d="M132.62 431.17l475.26 0c6.4,0 11.63,5.23 11.63,11.63l0 28.03c0,6.4 -5.23,11.63 -11.63,11.63l-475.26 0c-6.4,0 -11.63,-5.23 -11.63,-11.63l0 -28.03c0,-6.4 5.23,-11.63 11.63,-11.63zm237.8 -37.5l35.61 0 0 12.46 -11.69 0 0 12.55 11.69 0 0 24.94 -11.69 0 0 12.55 11.69 0 0 12.48 12.91 0 0 -12.48 11.69 0 0 -12.55 -11.69 0 0 -24.94 11.69 0 0 -12.55 -11.69 0 0 -12.46 72.38 0 0 12.46 -11.69 0 0 12.55 11.69 0 0 24.94 -11.69 0 0 12.55 11.69 0 0 12.48 12.91 0 0 -12.48 11.69 0 0 -12.55 -11.69 0 0 -24.94 11.69 0 0 -12.55 -11.69 0 0 -12.46 69.76 0 0 12.46 -11.69 0 0 12.55 11.69 0 0 24.94 -11.69 0 0 12.55 11.69 0 0 12.48 12.91 0 0 -12.48 11.69 0 0 -12.55 -11.69 0 0 -24.94 11.69 0 0 -12.55 -11.69 0 0 -12.46 33.75 0 5.4 -27.93 114.49 -293.25c-23.68,24.66 -47.36,49.32 -67.11,63.49 -19.75,14.19 -35.56,17.9 -51.37,21.63 4.93,16.1 7.57,23.81 23.08,23.12l-64.4 73.05c-7.02,-24.94 -25.07,-44.33 -47.7,-50.84 -5.52,-15.62 -5.48,-29.2 -5.85,-47.4 -3.97,15.91 -8.58,35.9 -15.15,45.18 -27.52,1.9 -50.6,22.38 -59.5,50.47l-43.33 -132.03c25.83,-3.84 33.22,-7.49 53.8,-22.93 -9.54,-2.34 -19.07,-4.65 -30.01,-11.05 -10.94,-6.4 -23.25,-16.87 -33.75,-31.04 -9.41,-12.72 -17.98,-28.2 -25.88,-44.16l-2.95 -8.98 0 -1 -0.17 0.51 -0.17 -0.51 0 1 -2.94 8.98c-7.91,15.96 -16.47,31.43 -25.88,44.16 -10.48,14.17 -22.81,24.64 -33.75,31.04 -10.94,6.4 -20.46,8.72 -30.01,11.05 20.57,15.43 27.97,19.09 53.8,22.93l-43.33 132.03c-8.92,-28.08 -31.98,-48.57 -59.5,-50.47 -6.55,-9.28 -11.16,-29.27 -15.15,-45.18 -0.36,18.22 -0.32,31.79 -5.84,47.4 -22.62,6.51 -40.68,25.9 -47.7,50.84l-64.4 -73.05c15.51,0.7 18.15,-7 23.08,-23.12 -15.81,-3.73 -31.62,-7.44 -51.37,-21.63 -19.75,-14.19 -43.43,-38.85 -67.11,-63.49l114.49 293.25 5.4 27.93 33.75 0 0 12.46 -11.69 0 0 12.55 11.69 0 0 24.94 -11.69 0 0 12.55 11.69 0 0 12.48 12.91 0 0 -12.48 11.69 0 0 -12.55 -11.69 0 0 -24.94 11.69 0 0 -12.55 -11.69 0 0 -12.46 69.76 0 0 12.46 -11.69 0 0 12.55 11.69 0 0 24.94 -11.69 0 0 12.55 11.69 0 0 12.48 12.91 0 0 -12.48 11.69 0 0 -12.55 -11.69 0 0 -24.94 11.69 0 0 -12.55 -11.69 0 0 -12.46 72.38 0 0 12.46 -11.69 0 0 12.55 11.69 0 0 24.94 -11.69 0 0 12.55 11.69 0 0 12.48 12.91 0 0 -12.48 11.69 0 0 -12.55 -11.69 0 0 -24.94 11.69 0 0 -12.55 -11.69 0 0 -12.46c11.99,0 23.96,0 35.95,0l-0.05 0zm35.61 0l0 -12.46 -11.69 0 0 -12.55 11.69 0 0 -12.48 12.91 0 0 12.48 11.69 0 0 12.55 -11.69 0 0 12.46 -12.91 0zm85.29 0l0 -12.46 -11.69 0 0 -12.55 11.69 0 0 -12.48 12.91 0 0 12.48 11.69 0 0 12.55 -11.69 0 0 12.46 -12.91 0zm82.68 0l0 -12.46 -11.69 0 0 -12.55 11.69 0 0 -12.48 12.91 0 0 12.48 11.69 0 0 12.55 -11.69 0 0 12.46 -12.91 0zm-61.52 -177.53c-22.79,0 -41.28,18.28 -41.28,40.81 0,22.53 18.49,40.81 41.28,40.81 22.79,0 41.3,-18.28 41.3,-40.81 0,-22.53 -18.49,-40.81 -41.3,-40.81zm13.37 117.44l180.03 -204.22 -79.51 203.67 -100.52 0.55 0 -0zm-58.5 0l-91.44 0 0 -278.65 91.44 278.65zm-132.88 60.09l0 -12.46 11.69 0 0 -12.55 -11.69 0 0 -12.48 -12.91 0 0 12.48 -11.69 0 0 12.55 11.69 0 0 12.46 12.91 0zm-85.29 0l0 -12.46 11.69 0 0 -12.55 -11.69 0 0 -12.48 -12.91 0 0 12.48 -11.69 0 0 12.55 11.69 0 0 12.46 12.91 0zm-82.68 0l0 -12.46 11.69 0 0 -12.55 -11.69 0 0 -12.48 -12.91 0 0 12.48 -11.69 0 0 12.55 11.69 0 0 12.46 12.91 0zm61.52 -177.53c22.79,0 41.28,18.28 41.28,40.81 0,22.53 -18.49,40.81 -41.28,40.81 -22.79,0 -41.28,-18.28 -41.28,-40.81 0,-22.53 18.49,-40.81 41.28,-40.81zm-13.37 117.44l-180.03 -204.22 79.51 203.67 100.52 0.55 0 -0zm58.5 0l91.44 0 0 -278.65 -91.44 278.65z"/>
  </g>
 </g>
</svg>
