<?xml version="1.0" encoding="UTF-8"?>
<!DOCTYPE svg PUBLIC "-//W3C//DTD SVG 1.1//EN" "http://www.w3.org/Graphics/SVG/1.1/DTD/svg11.dtd">
<!-- Creator: CorelDRAW -->
<svg xmlns="http://www.w3.org/2000/svg" xml:space="preserve" width="20.6142mm" height="25.0146mm" version="1.1" style="shape-rendering:geometricPrecision; text-rendering:geometricPrecision; image-rendering:optimizeQuality; fill-rule:evenodd; clip-rule:evenodd"
viewBox="0 0 42.97 52.14"
 xmlns:xlink="http://www.w3.org/1999/xlink"
 xmlns:xodm="http://www.corel.com/coreldraw/odm/2003">
 <defs>
  <style type="text/css">
   <![CDATA[
    .fil0 {fill:#009933}
   ]]>
  </style>
 </defs>
 <g id="Camada_x0020_1">
  <metadata id="CorelCorpID_0Corel-Layer"/>
  <path class="fil0" d="M20.99 30.8c0.22,-0.27 0.65,-0.42 1.02,-0.52 0.43,-0.12 0.86,-0.19 1.3,-0.27 0.87,-0.15 1.44,-0.6 2.35,-0.62 0.01,0.32 -0.26,1.15 -0.43,1.41 -1.1,1.7 -3.96,0.39 -4.25,0zm-16.62 -4.93c-0.12,0.11 -0.14,-0.15 -0.07,0.21l0.3 0.07c1.22,0.03 2.43,-0.18 3.6,0.03 -0.04,0.44 -0.18,1.46 -0.36,1.79 -2.27,-0.4 -4.28,1 -6.23,0.04 -0.66,-0.33 -0.84,-0.56 -0.91,-1.46 0.19,-0.97 1.69,-1.71 2.29,-2.48 0.71,-0.92 1.25,-1.65 2.14,-2.6 0.83,-0.48 1.39,-0.97 2.41,-0.42 1.54,0.82 -0.04,3.18 -0.83,4.08 -0.79,0.9 -1.48,-0.18 -2.35,0.75zm3.74 21.78l-0.29 0.11c-1.27,0.32 -3.68,0.15 -3.89,1.1l3.61 -0.51c0.43,-0.11 0.6,-0.28 0.99,-0.41 0.49,0.23 1.19,0.92 2.04,0.47 1.13,-0.26 1.97,-1.5 1.85,-2.67 -0.14,-1.39 -1.53,-2.2 -2.83,-1.46 -0.48,0.24 -0.44,0.38 -0.8,0.59 -0.25,-0.07 -1.79,-0.7 -1.95,-0.83 -0.57,-0.49 -0.2,-1.61 -0.04,-2.29 0.16,-0.69 0.28,-1.69 0.56,-2.26 0.46,-0.94 1.01,-0.8 1.99,-0.61 2.47,0.47 4.11,0.56 6.42,2.04 1.22,0.78 0.28,1.11 0.47,2.16 1.75,0.98 3.12,-0.03 3.54,-1.75l0.07 -0.28c0.06,-0.22 1.5,-0.64 1.83,-0.77 0.97,-0.38 1.01,-0.32 1.84,-0.01 1.05,0.38 2.19,0.67 3.48,0.71l-0.04 0.26c-0.44,0.51 -1.08,1.32 -1.27,2.14 -0.19,0.87 -0.29,1.89 -0.58,2.74 -0.6,1.76 -2.37,2.9 -1.28,5.04 0.35,0.45 0.76,0.92 1.48,0.97 2.92,0.22 3.22,-1.39 8.91,-0.88 1.61,0.14 1.32,1.49 3.18,-0.98 0.46,-0.61 0.59,-1.36 -0.47,-1.55 0.32,0.96 0.09,0.76 -0.69,1.06 -0.05,0.37 -0.02,0.16 0.02,0.45 0.05,0.36 0.17,0.24 0,0.47 -0.13,0.19 -0.67,0.24 -0.92,0.23 -0.66,-0.04 -0.59,-0.68 -1.32,-0.7 -0.62,-0.02 -1.31,0.13 -1.91,0.15 -0.45,0.01 -0.44,-0.09 -0.88,-0.09 -0.29,0 -0.76,0.05 -1,0.07 -0.7,0.06 -1.36,0.17 -2.05,0.25 -0.88,0.1 -1.33,0.4 -2.04,0.52 -0.38,0.07 -1.52,-0.02 -1.76,-0.16 -0.46,-0.27 -0.41,-1.32 -0.38,-1.82 0.07,-0.73 0.57,-1.36 0.88,-1.87 1.11,-1.77 0.78,-2.48 1.24,-4.17 0.22,-0.82 0.61,-1.11 1.04,-1.84 0.23,-0.14 0.62,-0.54 0.89,-0.78 0.34,-0.3 0.72,-0.52 0.77,-0.94 -1,0.15 -0.92,0.91 -3.15,0.49 -0.43,-0.08 -2.47,-0.66 -2.74,-0.84 0.1,-0.34 0.93,-1.19 1.21,-1.56 0.2,-0.27 0.35,-0.49 0.55,-0.77 0.24,-0.35 0.26,-0.51 0.53,-0.87 0.61,-0.09 1.82,0.55 2.22,0.85 0.69,0.51 1.01,0.98 1.9,1.41 0.72,0.35 1.51,0.52 2.3,0.85 1.18,0.49 0.68,1.45 0.25,2.19 -0.84,1.43 -4.82,4.83 -3.33,5.91 0.39,0.28 1.68,0.69 2.31,0.82 0.38,-0.07 0.88,-1.86 2.71,-0.77 0.32,0.19 0.29,0.3 0.61,0.43 0.23,0.09 0.53,0.11 0.77,0.21 0.84,0.36 -0.14,1.23 1.38,0.79 -0.22,-0.98 -1.18,-1.05 -1.66,-1.2 -0.92,-0.28 -0.73,-0.75 -1.85,-0.9 -1.14,-0.15 -1.34,0.43 -1.88,0.91 -0.53,0.47 -1.55,-0.36 -1.78,-0.82 -0.26,-1.17 3.84,-4.04 4.06,-6.12 0.24,-2.34 -1.66,-1.34 -3.88,-2.85 -0.31,-0.21 -0.66,-0.53 -0.93,-0.79 -0.43,-0.41 -0.45,-0.72 -0.4,-1.38 0.11,-1.45 -0.03,-4.65 0.91,-5.36 0.65,0.37 0.92,1.14 2.08,1.81 0.9,0.52 1.81,0.61 2.44,1.47 1.25,1.73 1.17,3.01 3.93,4.17 1.12,0.47 1.31,0.39 2.19,0.06 0.41,-0.15 0.61,-0.11 1,-0.19 0.35,-0.07 0.44,-0.15 0.58,-0.44 0.26,-0.5 0.03,-0.29 0.52,-0.42 0.33,-0.08 1.04,-0.66 1.17,-0.87 0.18,-0.29 0.18,-1.06 0.19,-1.52 0.03,-1.46 -0.47,-1.51 -1.65,-2.41 -0.48,-0.36 -0.77,-0.43 -1.18,-0.77 -0.82,-0.41 -1.13,-0.46 -2.26,-0.09 0.85,-0.19 1,-0.09 1.58,0.21 0.47,0.24 0.77,0.48 1.29,0.78 0.77,0.86 2.18,1.48 1.26,3.09 -0.4,0.69 -0.83,0.86 -1.51,0.5 -1.06,-0.55 -0.6,0.38 -1.68,0.27 -0.6,-1.07 0.96,-2 -0.04,-2.75 -0.21,-0.16 -0.58,-0.42 -0.87,-0.46l-0.17 0.72c-0.48,0.1 -0.91,-0.14 -1.19,0.16 -0.89,1.18 2.69,2.28 2.11,3.48 -0.8,0.5 -2.46,-0.7 -2.85,-1 -0.81,-0.64 -1.17,-1.72 -1.81,-2.7 -0.81,-1.24 -1.27,-1.28 -2.4,-1.88 -0.65,-0.34 -2.1,-1.15 -2.42,-2.01 0.42,-0.42 2.86,-1.13 2.95,-1.12 1.21,0.64 0.8,1.69 1.65,2.18 0.27,0.4 0.8,0.64 1.21,0.84 0.58,0.27 0.84,0.43 1.63,0.18 -0.36,-0.16 -0.96,-0.24 -1.44,-0.44 -0.47,-0.2 -0.89,-0.48 -1.17,-0.9 -0.17,-0.37 -0.34,-0.8 -0.54,-1.13 -0.95,-1.56 -0.87,-0.62 0,-2.07 0.74,-1.22 0.94,-1.99 0.91,-3.59 -0.03,-1.34 -0.36,-1.57 -0.72,-2.69 -0.19,-0.6 -0.16,-1.03 -0.29,-1.59 -0.15,-0.65 -0.56,-0.6 -0.87,-0.92 -0.11,-0.63 0.14,-1.39 0.1,-2.05 -0.05,-0.89 -0.57,-1.2 -0.64,-2.02 0.44,-0.71 1.45,-1.12 1.82,-1.76 1.57,-2.73 -1.3,-5.02 -3.77,-5.43 -0.7,-0.12 -0.33,-0.32 -0.9,-1.19 -1.47,-2.25 -3.73,-3.97 -6.24,-5 -5.34,-2.17 -15.62,0.7 -15.86,8.46 -0.03,0.9 -0.02,1.78 -0.1,2.67 -0.42,4.6 0.78,3.57 0.69,5.45 -0.02,0.44 -0.14,0.89 -0.15,1.3 -0.04,1.36 0.67,1.44 -0.53,1.71 -0.63,0.14 -1.48,0.48 -1.89,0.91 -0.5,0.33 -0.9,0.91 -1.24,1.35 -0.37,0.46 -0.44,0.73 -1.07,1.48 -0.92,1.11 -2.23,1.39 -2.53,2.8 -0.76,1.11 0.92,2.14 1.52,2.33 1.28,0.4 2.46,-0.04 3.84,-0.04 0.24,0.81 -0.44,1.28 -0.86,1.7 -0.62,0.61 -0.27,1.41 -0.2,2.21 -0.4,0.68 -0.64,0.85 -0.9,1.24 -0.76,1.15 -2.23,3.01 -2.33,4.27 -0.12,1.04 1.25,3.25 1.29,4.84 0.04,1.49 -1.02,2.86 -1.26,4.12l-0.18 0.87c-0.07,0.96 0.76,1.28 1.54,1.28 0.43,-0.06 0.9,-0.18 1,-0.56 -0.24,-0.06 -0.23,0 -0.5,0.08 -0.89,0.18 -1.46,-0.5 -1.51,-1.44 0.07,-0.37 0.32,-0.87 0.72,-1.04l0.4 -0.09c0.04,-0.37 -0.03,-0.61 0.05,-1.01 0.23,-1.05 0.6,-1.95 0.42,-3.11 -0.24,-1.49 -1.38,-2.57 -1.5,-4.23 0.05,-1.45 1.98,-3.55 2.14,-3.84 0.25,-0.45 0.4,-0.86 0.97,-1.13 3.58,-1.59 4.2,2.74 4.51,2.99 0.24,0.15 0.05,0.09 0.43,0.11 0.16,0.01 0.42,0 0.58,0 1.75,0.01 3.23,-0.76 3.87,-2.42 0.29,-0.74 0.12,-1.35 0.28,-2.03 0.44,-0.07 0.88,-0.01 1.35,-0.07 1.22,-0.15 3.66,-0.98 4.36,-0.87 0.43,0.07 1.3,0.88 1.86,1.11 0.29,0.12 0.8,0.29 1.1,0.3 1.35,0.07 1.64,-0.67 1.66,0.86 0.01,0.36 0,0.62 -0.06,0.96 -0.21,1.16 -0.62,2.26 -1.3,3.15 -0.41,0.54 -0.5,0.77 -1.07,1.31 -0.6,0.58 -0.58,0.55 -1.49,0.94 -0.41,0.17 -1.61,0.47 -1.82,0.78 -0.61,0.91 0.21,2 -2.47,2.28 -0.1,-0.53 0.33,-0.77 0.09,-1.62 -0.37,-1.33 -5.6,-2.68 -6.96,-2.92 -1.48,-0.26 -2.27,-0.9 -3.01,-0.96 0.2,0.56 0.43,0.4 0.59,0.91 -0.21,0.43 -0.3,0.27 -0.59,0.61 -0.19,0.21 -0.26,0.51 -0.34,0.83 -0.16,0.59 -0.23,1.19 -0.31,1.84 -0.24,1.89 -0.41,1.77 0.39,3.14 0,0.01 0.11,0.18 0.12,0.19 0.4,0.49 0.78,-0.03 1.75,0.34 0.55,0.21 0.76,0.63 1.08,-0.14 0.42,-0.29 0.74,-0.73 1.45,-0.52 0.47,0.14 0.78,0.47 0.98,1.01 0.22,0.99 -0.02,1.3 -0.48,1.9l-0.17 0.23 0.01 0 0 0c-1.93,1.06 -2.06,-1.01 -3.15,0.15zm17.63 -29.79c0.55,0.68 1.41,0.3 1.97,-0.22 -0.01,-0.49 -0.07,-0.68 -0.24,-1.07 -0.48,-0.01 -1.52,0.95 -1.72,1.29zm-8.33 -1.18c-0.28,0.24 -0.67,0.53 -0.22,1.04 0.21,0.23 0.71,0.51 1.1,0.28 0.86,-0.52 0.03,-2.1 -0.88,-1.32zm-0.26 -1.27c0.99,-0.37 2.55,0.42 2.86,1.13 0.53,1.21 -0.52,2.37 -1.54,2.66 -2.78,0.81 -4.71,-2.53 -1.32,-3.8zm1.48 5.29c1.27,-0.22 3.67,-1.52 3.79,-2.48 -0.06,-1.56 -3.76,-5.05 -8.03,-1.68 -0.46,0.36 -1.57,1.67 -1.14,2.39 0.64,1.08 3.46,2.09 5.38,1.76zm12.95 2.72c0.37,-0.95 0.15,-2.8 1.24,-3.11 1.17,1.36 0.56,4.57 -0.27,5.79 -1.9,2.79 -3.78,2.33 -7.19,2.8 -2.26,0.32 -6,1.93 -8.29,0.08 -1.06,-0.85 -1.79,-2.35 -1.76,-4.17 0.57,-0.12 2.25,0.62 3.01,0.71 -0.19,-0.15 -0.36,-0.2 -0.34,-0.46 0.32,-0.21 2.46,0.08 3.18,0.04 1.6,-0.1 2.33,0.06 3.34,-0.12 1.77,-0.3 1.27,-0.26 2.18,0.26 0.41,-0.48 0.29,-0.73 1.21,-0.89 0.97,-0.16 0.79,0.04 1.33,0.43 0.41,-0.87 -0.23,-0.65 0.83,-1.28 1.12,-0.67 0.84,-0.1 1.53,-0.08zm-9.94 -0.44c0.39,-0.28 1.56,-0.75 2.18,-0.85 0.98,-0.14 6.6,-0.46 7.12,-0.23 -0.03,0.38 -0.38,0.72 -0.77,0.93 -0.75,0.41 -0.64,-0.16 -1.2,0.46 -0.43,0.47 -2.08,0.84 -2.86,0.92 -0.72,0.07 -0.96,-0.25 -1.33,-0.25 -0.4,0.01 -0.54,0.38 -1.24,0.44 -1,0.09 -1.84,-0.33 -1.91,-1.43zm-9.18 6.79c-0.05,-0.71 1.59,-3.38 0.63,-4.04 -0.28,0.2 -0.28,0.75 -0.34,1.07 -0.31,1.72 -0.79,2.06 -1.25,3.09 -0.51,0.13 -0.49,0.13 -0.96,0.01 -0.46,-1.2 0.81,-3.31 0.45,-4.48 -0.86,0.23 -0.96,3.41 -1.61,3.9 -1.41,1.07 -0.74,-2.22 -0.72,-2.69 0.05,-1.18 -0.14,-0.76 -0.24,-1.02 -0.01,-0.04 -0.04,-0.03 -0.06,-0.05 0.16,-0.45 0.63,-1.47 1.05,-1.59 0.22,-0.06 0.77,0.08 1.03,0.12 0.88,0.14 1.18,-0.42 2.1,-0.04 1.79,0.74 1.85,-0.33 2.34,2.53 0.11,0.64 -0.28,1.2 -0.25,1.79 0.24,0.51 2.63,0.78 2.23,2.17 -0.19,0.67 -0.63,0.62 -1.55,0.78 -0.87,0.15 -1.85,0.25 -1.93,-0.7 0.44,-0.79 1.23,-0.38 1.8,-0.89 -0.68,-1.1 -1.97,0.11 -2.71,0.03zm7.73 -6.32l-0.07 0.88c-0.57,0.15 -2.36,-0.06 -2.82,-0.21 -0.84,-0.28 -3.06,-1.38 -3.45,-2.15 1.25,-0.01 5.22,0.94 6.34,1.49zm-8.64 -7.56c-0.06,0.4 0.08,0.07 -0.27,0.42 -0.69,0.71 -0.87,1.02 -1.35,1.86 -0.15,0.26 -0.2,0.61 -0.6,0.59 -0.83,-0.04 -1.87,-2.67 2.22,-2.87zm-1.49 3.1c0.04,-0.42 0.17,-0.57 0.35,-0.82l1.31 -2.06c0.35,-0.36 2.48,-1.68 3.15,-1.46 -0.05,0.68 -2.42,1.43 -1.98,2.83 0.43,-0.14 0.66,-0.76 1.03,-1.13 0.98,-0.98 3.28,-1.91 4.78,-2.02 1.64,-0.12 3.22,1.05 3.83,2.29 0.14,0.29 0.23,0.55 0.32,0.85 0.12,0.41 0.09,0.59 0.44,0.7 0.55,-1.57 -1.1,-3.29 -2.28,-3.83 -0.34,-0.15 -0.32,-0.07 -0.52,-0.36 0.75,-0.3 1.81,-0.28 2.64,-0.3 0.47,-0.01 0.77,0.01 1.21,0.05 0.22,0.02 0.41,0.01 0.64,0.03l0.5 0.15c-0.18,0.44 -0.92,1.1 -1,1.74 0.49,-0.17 1.15,-1.16 1.68,-1.56 2.71,-2.02 6.04,0.75 5.52,2.31 -0.65,-0.24 -0.45,-1.21 -1.7,-1.42 -0.79,-0.13 -1.79,0.18 -2.33,0.69 0.38,0.56 1.04,0.4 1.23,1.15 0.17,0.69 -0.27,1.28 -0.61,1.59 -0.58,0.53 -0.97,0.61 -1.77,0.55 -1.37,-0.11 -0.7,-0.61 -1.41,-0.81 -0.31,0.41 0.14,0.59 0.45,0.75 1.57,0.83 3.98,1.1 5.34,-0.22 0.55,-0.53 0.61,-1.16 0.76,-1.96 0.1,0.12 -0,-0.13 0.11,0.2l0.05 0.58c-0.04,1.26 0.91,0.38 0.73,1.93 -0.09,0.8 -1.37,1.35 -2.29,1.55 -2.8,0.6 -3.38,0 -6.7,0.56 -3.37,0.57 -2.2,1.06 -6.6,0.74 -1.77,-0.13 -3.29,-1.1 -5.63,-1.08 0.26,1.02 1.09,1.25 1.17,1.97 -0.58,0.11 -2.48,0.22 -2.91,0.03 -0.62,-0.94 -0.84,-2.62 -0.34,-3.38 0.56,-0.86 2.56,-0.01 3.33,-0.11 -0.31,-0.61 -1.89,-0.75 -2.49,-0.72zm17.93 -10.17c1,-0.55 2.44,-0.25 3.15,0.21 2.74,1.77 -0.62,3.53 -2.85,2.03 -0.29,-0.2 -0.87,-0.58 -1.03,-1.05 -0.24,-0.75 0.25,-0.93 0.73,-1.19zm-11.26 -0.12c2.69,-1.29 8.35,1.25 4.74,3.07 -1.5,0.76 -3.15,0.25 -4.37,-0.23 -1.88,-0.73 -1.91,-2.1 -0.37,-2.84zm-8.87 3.39c-0.16,-2.5 0.25,-5.69 1.86,-7.49 3.6,-4.05 9.52,-5.16 14.34,-2.65 1.56,0.82 4.17,3.55 4.58,4.71 -0.76,0.33 -1.78,0.35 -2.63,0.71 -0.64,0.27 -1.49,1.04 -1.97,1.17 -1.21,-0.73 -1.09,-1.48 -2.93,-1.83 -2.88,-0.55 -7.59,0.16 -9.28,2.46 -0.64,0.87 -0.59,0.94 -1.73,1.68 -0.41,0.26 -1.8,1.12 -2.24,1.25z"/>
 </g>
</svg>
