<?xml version="1.0" encoding="UTF-8"?>
<!DOCTYPE svg PUBLIC "-//W3C//DTD SVG 1.1//EN" "http://www.w3.org/Graphics/SVG/1.1/DTD/svg11.dtd">
<!-- Creator: CorelDRAW -->
<svg xmlns="http://www.w3.org/2000/svg" xml:space="preserve" width="19.8506mm" height="17.3643mm" version="1.1" style="shape-rendering:geometricPrecision; text-rendering:geometricPrecision; image-rendering:optimizeQuality; fill-rule:evenodd; clip-rule:evenodd"
viewBox="0 0 141.95 124.17"
 xmlns:xlink="http://www.w3.org/1999/xlink"
 xmlns:xodm="http://www.corel.com/coreldraw/odm/2003">
 <defs>
  <style type="text/css">
   <![CDATA[
    .fil0 {fill:black}
   ]]>
  </style>
 </defs>
 <g id="Camada_x0020_1">
  <metadata id="CorelCorpID_0Corel-Layer"/>
  <path class="fil0" d="M31.76 77.26l35.84 -0.05 0.05 41.79 -59.52 0.06 23.63 -41.8zm45.97 -42.61l-7.04 11.42 -9.96 -15.85 0.03 18.65 5.18 -0.07 0.06 -6.84c0.49,0.89 4.08,6.7 4.69,7.38 1.09,-1.2 3.84,-6.78 4.65,-7.23l0.04 6.67 5.21 0.01 0.02 -18.65 -2.88 4.51zm16.02 75.06c2.91,3.58 13.03,1.63 14.75,-2.28l-1.23 -0.85c-5.05,3.24 -9.67,6.88 -12.66,-3.17 -1.34,-4.53 0.24,-12.43 4.22,-13.53 4,-1.1 7.8,2.84 8.73,3.23l0.87 -1.19c-6.6,-8.31 -21.67,-2.72 -20.32,9.18 0.45,3.98 2.65,7.2 5.62,8.6zm-58.6 -38.3l35.77 -62.36 35.79 62.8 -32.69 -0.16 -0.12 -17.33 -6.24 0.04 -0.11 17.34 -32.3 0.01 -0.11 -0.33zm38.75 5.87l36.22 -0.06 23.66 41.88 -59.68 -0 -0.2 -41.82zm45.31 6.77l-48.29 -84.05 -40.84 70.55 -30.08 53.17c1.38,0.58 105.31,0.36 124.1,0.36 5.79,0 12.12,0.24 17.85,-0.04l-22.75 -39.99zm-73.43 18.9c-1.32,1.38 -1.05,5.58 -5.53,5.5l-0.06 -17.65c7.05,-0.19 5.36,11.49 5.59,12.15zm2.3 -10.93c-2.2,-3.73 -9.7,-3.13 -13.51,-2.98l0.01 21.1c3.32,0.27 11.21,0.51 13.09,-2.57 1.88,-0.41 3.5,-4.76 3.74,-6.42 0.66,-4.64 -1.75,-6.82 -1.8,-7.95 -0.75,-0.42 -0.92,-0.71 -1.28,-1.41l-0.24 0.24z"/>
 </g>
</svg>
