<?xml version="1.0" encoding="UTF-8"?>
<!DOCTYPE svg PUBLIC "-//W3C//DTD SVG 1.1//EN" "http://www.w3.org/Graphics/SVG/1.1/DTD/svg11.dtd">
<!-- Creator: CorelDRAW -->
<svg xmlns="http://www.w3.org/2000/svg" xml:space="preserve" width="150mm" height="19.9988mm" version="1.1" style="shape-rendering:geometricPrecision; text-rendering:geometricPrecision; image-rendering:optimizeQuality; fill-rule:evenodd; clip-rule:evenodd"
viewBox="0 0 2690.64 358.73"
 xmlns:xlink="http://www.w3.org/1999/xlink"
 xmlns:xodm="http://www.corel.com/coreldraw/odm/2003">
 <defs>
  <style type="text/css">
   <![CDATA[
    .fil0 {fill:black}
   ]]>
  </style>
 </defs>
 <g id="Camada_x0020_1">
  <metadata id="CorelCorpID_0Corel-Layer"/>
  <g id="_2937066653312">
   <path class="fil0" d="M2538.07 228.66c16.31,3.59 19.17,16.74 18.71,32.29 -0.38,13.03 -3.95,32.21 -19.05,32.75 -29.26,1.05 -14.72,-54.57 0.34,-65.03zm-1465.31 -145.71c-12.75,0.38 -2.14,-1.49 -8.42,3.23l-20.58 24.43c-5.78,6.8 -9.19,8.66 -15.98,14.49 -30.66,26.33 13.37,17.28 16.89,14.81 2.79,-1.95 6.9,-14.56 9.74,-19.25 5.69,-9.37 13.4,-32.6 18.35,-37.7zm-323.15 153.82c10.43,-12.31 13.45,-34.99 10.05,-54.58 -10.22,1.09 -20.51,18.47 -26.36,25.49 -15.06,18.05 9.17,27.82 16.31,29.09zm836.32 -5.86c-0.56,-19.08 -5.86,-9.8 -0.91,-37.08l-2.28 -12.45c-12.27,4.63 -24.4,21.47 -25.87,31.31 -4.24,28.46 4.27,29.86 29.06,18.21l-0 0zm680.29 -34.98c-26.97,2.78 -40.83,45.75 -28.18,55.21 12.84,9.61 23.81,-2.3 24.31,-14.34 0.75,-17.81 -0.35,-24.24 3.87,-40.87l0 -0zm-413.73 57.83c11.72,0.39 16.38,-3.61 23.61,-8.29 -0.15,-7.97 0.14,-47.58 -0.57,-48.83 -11.46,1.38 -19.2,11.94 -25.67,23.15 -7.03,12.17 -5.71,24.66 2.63,33.97l0 -0zm-1694.94 -70.19c26.52,2.18 40.26,5.41 47.74,-12.38 5.48,-13.03 16.38,-25.79 11.94,-36.74 -6.94,-0.88 -21.02,-2.02 -29.34,-0.34 -16.22,3.28 -29.96,45.09 -30.34,49.46zm1941.5 -38.7l4.55 0.8c13.03,0.11 47.35,-15.8 61.55,-21.53 12.78,-5.15 15.58,-9.43 25.4,-16.29 12.38,-8.66 18.24,-9.14 16.53,-25.59 -25.44,-7.58 -40.44,-4.57 -68.31,-1.65 -14.67,1.54 -11.73,-1.04 -16.19,7.57 -4.53,8.73 -24.96,51.78 -23.52,56.7l-0.01 0zm-1693.17 -57.73l-65.03 121.27c-10.28,20.19 -38.54,42.69 11.6,39.71 36.3,-2.16 93.79,-31.99 107.59,-56.85 11.71,-21.1 33.75,-49.3 11.65,-83.14 -9.64,-14.77 -38.57,-25.3 -65.81,-21l0 0.01zm1511.07 138.7c17.6,-3.92 2.93,-8.05 19.81,-10.52 4.3,5.13 5.44,30.14 -30.71,39.65 -27.1,7.13 -19.1,31.72 -56.23,27.28 -44.05,-5.27 -23.32,-92.94 -8.18,-108.32 5.93,-6.02 6.75,-5.38 12.85,-12.48 13.03,-15.16 38.21,-25.24 61.59,-14.58 3.03,27.73 10.39,33.72 1.7,59.68 -2.71,8.1 -6.29,13.65 -0.84,19.29l0.01 0zm437.21 21.74l18.34 0.04c61.39,-57.41 17.55,-48.17 65.46,-89.96 28.85,-25.17 64.04,-30.36 61.33,8.46 -1.54,21.97 -35.49,46.49 -51.91,53.67 -26.13,11.44 -13.76,24.86 -4.62,28.49 25.45,10.09 43.47,-29.25 62.77,-33.86 11.98,11.37 -26.44,50.09 -37.36,58.41 -14.92,11.37 -41.79,20.29 -58.91,-4 -6.41,-9.09 -1.6,-11.59 -7.24,-19.68 -17.42,5.53 -50.68,60.23 -74.89,21.25 -6.56,-10.55 -1.92,-17.35 -2.2,-29.42 -10.32,3.87 -6.9,4.3 -14.33,9 -11.4,7.22 -8.99,2.12 -21.69,6.04 -8.3,2.57 -40.18,44.62 -65.94,19.3 -13.27,-13.05 -12.5,-63.87 -8.23,-74.74 13.3,-33.81 10.79,-24.12 28.38,-40.41 11.42,-10.58 29.32,-21.66 51.03,-16.95 14.38,3.12 15.88,33.03 14.81,42.03 -0.86,7.2 -9.24,34.49 -4.57,39.79 20.68,-5.18 19.69,-32.11 22.81,-42.05 7.58,-24.04 27.19,-64.23 44.1,-85.99l30.21 -38.44 16.25 1.49c9.68,36.46 -23.15,87.22 -43.65,120.69 -6.53,10.67 -9.02,11.61 -15.58,19.21 -13.91,16.13 -16.79,31.89 -4.39,47.62l0 0zm-295.05 -150.02c6.01,13.14 9.69,1.54 11.35,16.3 -6.93,1.86 -19.87,2.97 -30.19,5.36 -12.99,3 -19.25,4.34 -31.92,0.59 -5.29,-9.17 1.31,-30.2 6.03,-39.83 6.91,-14.12 8.23,-22.45 24.28,-30.19 38.76,-18.7 68.36,-23.66 117.87,-23.66 58.79,0 82.9,30.56 75.9,62.48 -9.89,45.1 -24.38,55.84 -66.96,73.14 -15.42,6.26 -20.97,7.06 -38.16,11.21 -11.76,2.84 -32.68,5.94 -41.65,10.84 2.2,5.36 1.05,2.91 6.27,6.34 0.16,0.1 8.1,4.06 8.84,4.39 7.89,3.53 14.06,5.11 21.81,7.98 14.96,5.56 26.18,12.09 40.59,18.24 17.06,7.28 24.97,9.55 32.33,24.23 5.81,11.56 6.59,30.5 1.94,41.99 -18.55,1.07 -37.62,-12.67 -51.3,-20.53 -6.9,-3.96 -11.49,-5.46 -17.75,-8.8 -11.82,-6.3 -57.93,-31.5 -69.45,-32.41 -10.43,7.63 -22.93,33.78 -23.98,44.51 -1.01,10.38 -3.68,16.38 -11.87,22.1 -20.68,14.4 -21.8,-10.91 -7.57,-36.92 38.79,-70.89 -18.03,-34.75 15.38,-76.61 7.57,-9.48 9.88,-11.75 24.42,-16.97 18.77,-6.73 18.16,-23.53 31.65,-47.17 4.41,-7.73 11.07,-20.22 10.58,-27.27 -6.94,0.72 -31.98,8.19 -38.41,10.67zm-1656.49 -71.43c107.46,-0.45 103.67,81.96 99.94,147.33 12.49,-5.51 9.21,-7.77 28.22,-21.99 11.72,-8.76 18.07,-14.47 40.45,-13.71 31.81,35.73 -2.78,60.59 -41.11,81.48 -20.79,11.33 -13.25,18.45 -4.03,31.48 35.42,-2.64 54.39,-28.28 64.06,-50.68 2.99,-6.91 24.69,-43.05 34.27,-47.07 10.65,-4.48 32.67,-3.21 28.66,12.24 -2.64,10.15 -27.62,34.21 -35.96,46.22 -7.4,10.66 -11.14,7.5 -10.87,21.17 19.12,-0.49 22.75,-9.04 32.27,-18.55 16.44,-16.46 63.16,-74.18 68.68,-72.57 31.33,20.66 -41.52,75.3 -30.52,100.01 15.58,2.05 13.48,-4.57 27.63,-24.65l26.66 -30.81c4.27,-4.78 7.45,-10.79 11.71,-15.49 4.9,-5.4 10.55,-7.54 14.28,-15.91 6.09,-13.73 2.52,-33.54 27.2,-25.69 5.24,5.91 10.49,57.25 8.52,63.47 -9.29,29.15 -25.33,46.86 -26.15,55.4 27.26,0.1 31.01,-29.78 50.17,-33.87 0.55,15.86 -2.96,22.81 -13,35.12 -13.47,16.52 -41.02,41.25 -69.38,31.41 -15.22,-5.28 -20,-17.75 -30.02,-21.72 -9.55,6.09 -12.57,11.02 -20.55,17.74 -9.48,7.98 -12.96,11.78 -29.74,10.33 -14.42,-10.97 -6.31,-17.37 -11.48,-32.67 -20.87,6.38 -33.44,46.34 -58.31,1.58 -1.6,-2.89 -1.17,-2.43 -3.01,-4.53 -3.03,-3.44 -0.69,-1.34 -4.53,-3.82 -31.39,44.65 -90.47,60.57 -89.08,-15.11 0.62,-33.85 12.4,-37.42 6.71,-44.28 -7.38,5.59 -11.26,15.16 -16.33,23.31 -15.29,24.59 -50.28,50.01 -80.72,65.41l-48.65 16.56c-59.14,13.49 -58.12,-17.37 -58.15,-38.97 -0.01,-13.98 35.93,-75.45 44.59,-90.08l37.24 -65.1c7.06,-13.21 -4.41,-10.44 -17.01,-7.06 -10.93,-6.1 -2.38,-7.41 -20.47,-8.07 -13.69,-0.5 -15.77,1.83 -26.95,-1.71 -1.86,-6.87 15.15,-38.18 25.48,-42.58 15.43,-6.57 47.01,-13.49 69.26,-13.58l0.01 -0.01zm733.3 203.61c30.46,-1.89 10.67,-27.72 21.78,-49.84 4.39,-8.74 20.89,-41.11 39.38,-30.94 5.01,4.05 0.83,-2.01 3.23,4.55 1.05,2.85 1.19,5.1 1.31,8.12 0.94,22.54 -13.88,37.74 -4.39,40.83 13.73,4.46 19.32,-24.77 36.76,-42.66 13.23,-13.56 28.67,-33.1 61.85,-28.56 24.08,16.74 8.82,35.16 -4.41,49.32 -9.25,9.9 -36.9,24.41 -51.75,33.88 0.55,8.27 1.4,10.78 6.43,17.39 60.46,5.93 77.27,-68.95 92.19,-80.33 4.33,-3.31 15.91,-6.88 24.75,-4.55 14.15,3.72 4.99,11.76 3.28,20.12 17.95,-2.77 23.29,-17.7 42.47,-29.19 16.31,-9.78 22.22,-6.93 23.13,17.5 0.7,18.89 -42.2,46.34 -28.53,64.98 23.9,-0.41 42.99,-45.57 49.65,-53.86 11.52,-14.35 39.65,-39.98 70.34,-39.55 4.62,4.5 9.44,10.02 7.77,18.53 -1.32,6.69 -13.55,33.18 -21.5,39.19 -12.28,9.28 -13.84,0.68 -24.23,-2.47 -10.15,4.95 -40.12,32.33 -19.75,44.83 19.57,12 53.33,-14.3 60.43,-21.56 24,-24.56 -1.82,-29.17 55.03,-66.92 6.01,-3.99 7.06,-4.78 16.41,-5.57 28.09,-2.37 31.2,5.19 32.88,37.57 0.69,13.25 -6.72,27.42 -3.71,37.69 14.48,-4.18 16.88,-11.05 21.14,-22.29 5.54,-14.63 5.78,-14.96 15.74,-25.57 61.08,-65.09 98.99,-13.81 60.76,18.79 -30.11,25.68 -23.64,16.84 -53.38,34.46 -0.38,31.75 31.11,21.64 55.49,-2.09 15.72,-15.3 8.39,-11.09 18.94,-12.21 11.97,14.51 -49.05,82.71 -87.41,62.81 -17.27,-8.95 -10.19,-22.86 -19.05,-33.85 -11.77,3.25 -4.61,2.98 -13.63,7.03 -7.5,3.37 -12.02,2.38 -19.13,5.61 -13.78,6.25 -34.22,38.92 -60.71,16.91 -11.14,-9.26 -5.98,-19.42 -16,-27.68 -13.87,5.82 -8.62,5.2 -17.26,13.57 -5.8,5.62 -11.57,6.76 -18.67,12.8 -0.3,8.36 4.43,13.3 0.49,22.14 -14.67,32.97 -69.49,8.25 -57.97,-1.21 13.26,-11.46 9.09,6.23 28.92,1.8 13.15,-21.84 -9.24,-6 -24.17,-38.16 -2.74,-5.91 -3.57,-11.29 -8.95,-16.09 -0.53,0.43 -1.28,0.53 -1.5,1.33 -0.22,0.79 -1.17,1.04 -1.45,1.33l-2.59 2.75c-11.38,13.65 -24.51,31.81 -47.68,35.82 -15.09,-8.06 -15.61,-18.03 -14.1,-33.98 1.5,-15.88 9.17,-17 12.9,-32.23 -24.64,10.73 -29.61,58.49 -60.85,58.53 -9.9,-13.11 -4.17,-18.88 -11.05,-31 -5.08,2.88 -1.71,0.34 -6.63,4.8l-16.16 16.61c-17.4,15.01 -49.6,26.18 -63.75,5.39 -2.91,-4.29 -4.13,-9.12 -6.94,-14.66l-7.91 -15.06c-31.49,4.3 -28.5,8.62 -43.06,21.86 -38.53,35.02 -63.74,2.9 -55.8,-32.89 3.64,-16.46 1.28,-34.45 6.67,-50.2 12.79,-37.34 42.29,-82.7 72.07,-111.44 11.03,-10.64 20.98,-24.54 40.83,-24.83 12.83,13.26 -0.92,45.87 -8.92,57.54 -16.65,24.31 -52.53,72.44 -71.89,91.84 -14.23,14.25 -27.29,36.02 -8.12,53.24l-0.01 0zm1425.2 -8.94c-29.42,1.07 -26.44,-26.17 -19.71,-41.24 7.19,-16.08 9.97,-35.83 16.57,-51.41 7.14,-16.85 9.91,-31.21 16.13,-49.67 5.32,-15.83 9.79,-36.75 17.71,-50.74 16.12,-2.5 20.45,2.41 28.49,6.62 1.22,32.89 -26.61,78.52 -37.66,114.44 -2.85,9.24 -5.45,13.54 -9.1,21.88 -8.41,19.25 -2.38,37.27 -12.42,50.12l-0 0.01zm-1478.03 -81.07l19.75 5.78c-4.89,7.78 -8.61,16.34 -11.8,24.59 -5.31,13.7 1.07,14.91 -16.75,20.46 -15.52,4.84 -16.48,4.43 -21.19,17.44 -4.21,11.63 -12.46,16.77 -6.42,27.29 12.97,1.94 15.52,-11.56 24.37,-15.8 15.17,11.56 -2.41,22.14 -12,30.29 -8.4,7.14 -5.52,9.32 -15.04,15.21 -5.66,3.5 -16.6,9.78 -23.23,11.13 -19.09,-5.4 -21.61,-20.12 -14.38,-36.98 2.47,-5.76 5.83,-14.29 7.88,-20.64 3.66,-11.34 7.95,-14.05 9.72,-22.03 -12.94,-1.43 -47.58,0.22 -59.41,2.51l-40.14 51.86c-7.54,8.93 -13.21,17.45 -21.36,25.98 -12.13,12.71 -33.09,31.32 -30.67,4.05 3.11,-35.25 54.16,-52.37 59.52,-77.25 -4.94,-4.37 -13.43,-6.99 -19.82,-11.17 10.5,-22.58 -2.62,-10.06 21.49,-36.12 13.18,-14.25 21.51,-15.26 52.14,-16.11l76 -77.94c8.86,-9.61 46.44,-54.04 60.09,-28.65 6.14,11.41 -6.63,22.74 -10.81,34.58l-21.11 52.54c-2.94,7.39 -6.42,12.27 -6.82,18.99l-0.01 0.01zm1429.84 -68.95c-2.32,-3.71 -3.49,-7.5 7.37,-11.72 8.11,4.54 10.25,10.7 6.15,15.51 -5.37,9.27 -7.87,19.61 -0.24,28.44 12.71,-4.62 11.66,-18.7 23.66,-22.72 10.8,7.68 7.56,10.44 0.23,19.91 -4.29,5.54 -6.71,11.2 -11.45,16.62 -2.61,8.74 -5.72,9.82 -6.34,18.69 -0.47,6.77 2.3,12.23 0.27,16.7 -0.56,7.54 -16.36,16.75 -18.87,-3.71 -4.93,-6.53 -4.19,-10.83 -12.31,-16.68 -23.2,-16.7 -59.35,2.3 -64.26,3.56 -26.2,6.69 -8.55,-23.61 -5.12,-30.84 5.42,-44.86 -16.19,-64.52 17.29,-56.84l14.79 -9.52c8.03,8.38 3.38,12.51 -2.96,20 -6.05,-1.55 -2.11,-0.54 -7.12,-3.44 -4.77,-2.76 1.95,0.24 -5.09,-3.28 -6.66,9.73 -7.54,14.23 -4.81,28.39 12.91,0.5 4.18,1.78 10.23,-2.2l2.6 -14.71c8.31,4.74 6.9,14.17 13.44,23.61l8.55 -3.66c19.62,-48.63 -0.87,-61.21 17.69,-66.48 15.73,8.93 -14.12,48.68 5.91,72.45 6.96,-1.09 6.43,0.99 9.85,-5.61 2.53,-4.88 1.09,-7.5 0.52,-12.47l0.01 0.01zm-2255.04 -10.37l14.8 -32.83c15.88,-2.59 32.07,-2.04 47.75,-0.31l-25.37 48.96c1.66,14.12 -5.86,10.26 -3.86,23.08l48.99 1.07c2.37,11.85 -5.68,24.7 -12.01,32.38 -41.51,3.83 -51.31,-5.35 -61.33,13.74 -6.45,12.29 -15.64,24.32 -15.65,37.51 16.68,0.72 36.29,-0.6 50.39,2.36 0.14,12.42 -7.53,24.85 -14.95,32.08l-55.17 0.63c-14.04,19.91 -21.86,50.54 -35.49,70.2 -0.01,9.86 0.84,2.46 -3.37,5.58l-43.08 1.05c-3.1,-9.29 -0.84,-13.68 4.87,-19.11 5.11,-24.19 35.49,-52.65 14,-57.24 -2.69,-0.58 -5.33,-0.84 -8.17,-0.97 -6.03,-0.26 -14.13,0.58 -20.13,1.2 -12.85,12.79 -26.4,52.07 -34.64,66.5 -4.31,7.55 -2.66,11.03 -37.91,9.72l-14.2 -0.68c-1.1,-3.07 -2.87,-1.41 0.74,-9.71 0.96,-2.2 3.16,-6.4 4.44,-8.65 6.94,-18.93 24.28,-36.88 24.41,-57.85l-43.14 -0.49c-2.11,-9.58 6.51,-26.13 13.65,-30.6 10.38,-6.47 35.06,-3.14 50.15,-4.32 4.61,-9 20.84,-41.29 18,-48.38 -10.15,-3.69 -29,-2 -41.98,-2.04 1.97,-13.3 10.5,-25.16 18.93,-32.58l45.84 -1.02c8.6,-10.18 31.88,-57.01 39.48,-72.16 18.83,-1.95 31.67,-2.64 50.04,-0.05 -5.64,11.79 -33.44,61.78 -32.27,72.2l35.34 0.29c7.18,-7.46 15.03,-34.45 20.91,-39.56l0 0.01zm1419.17 56.13c-23.7,34.77 -38.02,-7.8 -65.09,-10.15 -14.21,-1.23 -43.35,12.66 -55.87,15.49 -9.6,-3.6 -14.59,-7.45 -22.76,-13.68 -26.42,-20.14 -63.16,16.7 -74.84,17.65 -22.24,-4.49 -20.63,-20.77 -38.1,-20.47 -12.03,0.2 -29.39,16.08 -38.8,20.78 -13.72,-1.21 -9.05,-4.5 -26.62,-4.51 -17.49,-0.02 -11.46,2.13 -23.66,4.55 -9.54,-0.7 -10.93,-11.27 -35,-22.04 -1.75,-36.69 28.94,-31.66 -39.78,-82.76 -32.2,-23.95 -38.36,-32.28 -87.89,11.89 -25.32,-6.01 -53.95,-63.24 -105.81,-5.34l-28.37 26.48c-2.38,5.57 -8.18,9.02 -13.59,14.95 -5.33,5.85 -7.4,10.49 -12.6,16.99 -4.17,5.21 -8.31,7.65 -14.94,15.33 -4.49,5.2 -10.05,10.55 -14.71,15.46 -15.36,-0.16 -16.4,-4.99 -32.48,2.16 -9.49,4.22 -16.03,11.67 -23.05,13.84 -8.52,10.42 -21.25,36.26 -44.98,31.46 -9.53,-1.93 -22.92,-8.65 -27.36,-12.74 -13.52,-12.46 -53.14,-45.19 -66.68,-49.82 -25.12,-8.6 -33.2,19.35 -44.28,29.69 -19.72,-4.43 -17.18,-19.42 -36.7,-15.13 -15.85,3.48 -23.06,17.77 -27.13,24.17 -20.09,-4.15 -13.02,-11.96 -31.01,-14.37 -24.7,-3.31 -23.99,3.64 -38.25,6.73 -0.81,-0.03 -40.12,-22.08 -43.95,-28.96 -24.95,-44.82 -13.13,-30.22 -48.17,-56.64l-40.78 -31.29c-10.53,-6.74 -17.74,-4.33 -25.68,-12.09 -17.68,1.14 -9,-2.27 -27.63,-3.13 -10.78,-0.5 -24.53,0 -35.62,0.01 -51.43,0.06 -174.21,-2.04 -210.84,1.86 -6.03,9.68 -30.57,67.3 -37.61,70.76 -36.71,10.22 -44.31,-14.21 -61.39,20.51l-75.07 146.96c7.12,8.75 17.28,14.41 27.34,21.87 24.55,18.2 -17.32,40.21 -6.84,57.85 0.95,1.6 23.4,18.03 27.63,21.32 27.8,21.66 28.5,15.77 91.29,15.77 33.62,0 80.34,2.04 112.3,-0.32 14.44,-15 17.74,-29.44 26.13,-47.99 13.03,1.69 10.75,3.61 23.54,13.52 60.15,46.61 94.9,46.35 177.12,3.18 14.79,-7.77 11.33,-5.82 21.74,-16.7 35.49,8.05 33.42,52.14 92.6,31.43 14.56,-5.09 15.12,-12.07 28.66,-16.01 13.12,4.39 15.39,8.87 24.28,12.73 13.05,5.66 19.56,-0.55 31.93,-1.97 16.17,4.08 16.83,17.72 40.88,13.32 15.8,-2.9 22.86,-16.29 36.02,-20.67 21.82,10.59 26.4,23.36 59.98,14.84 31.67,-8.04 24.92,-17.82 49.46,-28.8 12.02,7.45 24.51,17.94 33.92,24.72 10.82,7.79 20.54,21.71 39.29,16.23 15.98,-4.67 26.03,-17.34 33.83,-25.82l29.01 -31.12c13.37,1.45 22.81,12.23 31.51,18.28 6.56,4.57 23.41,19.36 31.48,21.13 28.3,6.23 57.08,-28.76 70.11,-34.88 29.43,9.67 23.5,40.23 78.57,9.87 10.45,-5.76 12.85,-11.34 21.99,-14.08 14.71,5.84 32.45,25.76 47.53,28.5 38.61,7.01 41.57,-12.86 64.86,-18.08 12.5,4.18 11.57,10.01 22.32,12.59 14.39,3.44 16.88,-4.33 27.96,-7.91 9.84,2.99 13.32,8.14 24.01,13.07 19.01,8.78 12.12,1.65 29,-1.57 23.46,14.66 11.96,3.74 29.27,19.64 14.6,13.4 57.7,20.47 75.67,-1.73 10.18,-12.59 7.79,-21.52 13.18,-34.21 13.31,2.51 41.12,35.11 77.96,9.58 8.25,-5.71 10.14,-10.76 17.1,-15.23 27.71,-8.74 38.8,58.18 111.48,5.3 24.45,-17.79 14.11,-14.96 23.91,-25.6 16.88,0.88 26.78,14.12 44.17,26.91 36.43,26.8 57.68,52.27 97.4,22.77 40.94,-30.4 19.64,-7.89 48.38,-25.21 26.83,17.84 62.68,59.27 88.73,48.68 22.83,-9.28 26.88,-50.11 40.74,-63.5l108.14 53.43c22.81,11.66 27.41,0.22 40.41,-6.69 22.31,3.63 19.37,10.59 46.07,2.02 19.21,-6.17 19.13,-13.1 33.79,-18.41 22.37,3.79 25.83,15.79 44.49,21.63 21.61,6.75 37.8,-7.48 50.16,-15.66 16.25,5.58 17.82,17.44 44.43,17.93 27.39,0.5 31.8,-12.52 47.26,-18.24 19.3,5.22 39.49,37.81 68.67,25.4 30.97,-13.18 24.46,-72.74 26.29,-79.73 1.58,-6.07 4.57,-7.8 7.21,-14.62 4.44,-11.47 1.05,-21.58 6.45,-34.8 8.52,-20.84 14.7,-43.08 23.72,-63.9 16.44,-38.04 47.3,-92.5 4.14,-120.89 -15.18,-9.99 -33.03,-27.41 -58.51,-35.91 -39.86,-13.31 -37.17,28.02 -49.62,37.54 -19.89,-6.3 -50.02,-41.68 -63.85,-41.73 -14.89,3.01 -13.44,6.26 -22.17,12.94 -7.14,5.47 -13.85,5.17 -27.24,8.2 -52.54,11.86 -55.66,8.15 -85.48,51.11l-26.24 39.8c-10.3,-1.26 -32.31,-7.36 -36.27,-14.85 -21,-39.66 16.7,-5.24 -45.22,-54.46 -10.28,-8.17 -20.15,-15.06 -29.77,-21.86 -40.04,-28.31 -85.26,-23.07 -141.03,-12.97 -21.5,3.9 -63.9,19.62 -74.54,34.78l-32.2 86.2c-1.77,6.3 -2.13,12.2 -13.32,14.38 -37.31,7.26 -34.88,-55.41 -113.07,-9.44 -9.48,5.57 -17,16.94 -27.07,25.23 -25.25,0.93 -25.98,-4.24 -38.59,-15.38 -10.58,-9.34 -16.86,-12.57 -30.2,-21.68 -9.34,-6.38 -28.24,-30.35 -68.94,-9.54l-8.23 3.95 -0.02 -0.04z"/>
  </g>
 </g>
</svg>
