<?xml version="1.0" encoding="UTF-8"?>
<!DOCTYPE svg PUBLIC "-//W3C//DTD SVG 1.1//EN" "http://www.w3.org/Graphics/SVG/1.1/DTD/svg11.dtd">
<!-- Creator: CorelDRAW -->
<svg xmlns="http://www.w3.org/2000/svg" xml:space="preserve" width="37.3233mm" height="11.5078mm" version="1.1" style="shape-rendering:geometricPrecision; text-rendering:geometricPrecision; image-rendering:optimizeQuality; fill-rule:evenodd; clip-rule:evenodd"
viewBox="0 0 1364.64 420.76"
 xmlns:xlink="http://www.w3.org/1999/xlink"
 xmlns:xodm="http://www.corel.com/coreldraw/odm/2003">
 <defs>
  <style type="text/css">
   <![CDATA[
    .fil0 {fill:black;fill-rule:nonzero}
   ]]>
  </style>
 </defs>
 <g id="Camada_x0020_1">
  <metadata id="CorelCorpID_0Corel-Layer"/>
  <g id="_2937173457568">
   <path class="fil0" d="M1347.32 370.24c-12.95,0 -19.43,-5.82 -19.43,-17.48 0,-8.05 5.63,-12.07 16.89,-12.07 13.24,0 19.85,4.45 19.85,13.35 0,10.8 -5.77,16.2 -17.32,16.2zm-32.6 -21.92c-9.29,0 -14.78,-3.18 -16.47,-9.53 -1.41,-5.09 -2.12,-10.49 -2.12,-16.21l0.85 -27.96c0,-9.53 -1.41,-14.3 -4.22,-14.3 -3.95,0 -8.45,5.51 -13.52,16.52 -2.25,3.81 -4.92,11.02 -8.02,21.61 0,4.45 -2.96,8.26 -8.88,11.44 -4.22,2.12 -8.3,3.18 -12.25,3.18 -8.45,0 -13.72,-2.6 -15.85,-7.78 -2.11,-5.19 -3.31,-10.96 -3.58,-17.32l-0.85 -3.81c-0.84,-5.08 -2.11,-7.62 -3.8,-7.62 -1.97,0 -3.66,1.48 -5.07,4.45 -3.1,6.14 -5.21,13.35 -6.34,21.6 -0.84,4.45 -1.69,7.31 -2.54,8.58 -2.81,6.14 -8.16,9.21 -16.04,9.21 -8.45,0 -14.22,-2.86 -17.32,-8.58 -3.66,-7.84 -5.49,-20.76 -5.49,-38.76l0.85 -20.34c0.84,-7.2 6.19,-10.8 16.04,-10.8 9.02,0 13.8,2.97 14.36,8.9l0.85 1.91 0 7.62c7.33,-6.99 15.9,-10.48 25.77,-10.48 9.01,0 16.47,2.33 22.39,6.99 4.51,-6.35 10.91,-11.65 19.22,-15.89 8.3,-4.23 17.11,-6.35 26.4,-6.35 9.3,0 17.32,3.18 24.08,9.53 7.03,8.26 10.55,23.09 10.55,44.49 0,6.78 -0.42,13.35 -1.26,19.7l0.84 5.72c0,9.53 -6.19,14.3 -18.58,14.3zm-207.48 15.25c-28.16,-0.21 -46.04,-11.02 -53.64,-32.41 -3.38,-8.69 -5.07,-17.16 -5.07,-25.42 0,-12.08 3.52,-23.62 10.56,-34.64 12.39,-17.37 28.45,-26.05 48.15,-26.05 6.48,0 13.52,1.06 21.13,3.18 19.14,7.41 28.72,19.7 28.72,36.86 0,11.44 -6.62,20.34 -19.85,26.69 -13.51,4.45 -25.62,6.67 -36.32,6.67l-14.36 0c0,1.27 0.49,3.39 1.47,6.35 0.99,2.97 2.88,5.66 5.71,8.1 2.81,2.44 6.62,3.65 11.4,3.65 3.66,0 7.74,-0.95 12.25,-2.86 6.19,-2.97 11.41,-4.45 15.63,-4.45 4.22,0 8.17,1.8 11.83,5.4 2.26,2.12 3.38,4.55 3.38,7.31 0,0.84 -0.29,2.54 -0.85,5.08 -0.56,2.54 -4.36,5.72 -11.4,9.53 -9.02,4.03 -18.59,6.35 -28.73,6.99zm-19.43 -69.9c12.11,0 23.51,-1.48 34.21,-4.45 0,-4.66 -0.7,-8.79 -2.11,-12.39 -1.69,-3.39 -5.21,-5.08 -10.55,-5.08l-0.85 0c-5.92,0.85 -10.64,3.65 -14.15,8.42 -3.52,4.76 -5.71,9.26 -6.56,13.5zm-117.5 127.1c-5.07,0 -10.84,-1.06 -17.32,-3.18 -6.48,-2.12 -12.53,-5.51 -18.16,-10.17 -8.17,-6.99 -12.81,-14.3 -13.94,-21.92 0,-3.81 1.9,-6.99 5.7,-9.53 3.8,-2.54 7.82,-3.81 12.04,-3.81 1.13,0 3.31,0.16 6.54,0.48 3.24,0.32 6.97,3.97 11.2,10.97 4.22,6.99 9.01,10.48 14.36,10.48 12.39,0 18.58,-10.48 18.58,-31.45l0 -8.58c-0.84,-8.26 -1.55,-12.39 -2.11,-12.39 -1.13,0 -2.68,1.12 -4.65,3.34 -1.97,2.22 -5.63,5.24 -10.98,9.06 -10.7,6.14 -20.27,9.21 -28.72,9.21 -6.19,0 -13.66,-2.97 -22.39,-8.9 -8.73,-5.93 -13.94,-17.48 -15.63,-34.64 0,-21.18 8.45,-38.76 25.34,-52.75 10.7,-8.9 22.39,-13.34 35.06,-13.34 7.89,0 16.48,1.69 25.77,5.08 3.1,2.33 5.07,3.5 5.92,3.5 0.84,0 1.41,0 1.69,0 1.69,0 4.01,-0.58 6.97,-1.75 2.96,-1.17 5.7,-1.75 8.24,-1.75 2.25,0 4.86,0.69 7.81,2.07 2.96,1.38 4.44,8.31 4.44,20.81 0.28,8.68 0.42,18.22 0.42,28.6 0,10.17 -0.21,24.09 -0.63,41.78 -0.42,17.69 -3.17,31.93 -8.24,42.73 -5.07,8.48 -11.9,14.94 -20.49,19.38 -8.59,4.45 -17.53,6.67 -26.82,6.67zm-21.12 -86.42c7.89,0 17.32,-12.82 28.3,-38.45 1.4,-3.81 2.11,-6.78 2.11,-8.9 0,-5.51 -3.8,-8.26 -11.4,-8.26 -3.94,0 -7.74,1.27 -11.4,3.81 -10.98,8.9 -16.48,20.76 -16.48,35.59 0,10.8 2.96,16.2 8.87,16.2zm-76.11 22.88c-10.98,0 -17.32,-5.3 -19.01,-15.89 -11.83,4.03 -22.25,6.04 -31.26,6.04 -14.36,0 -25.7,-3.76 -34.01,-11.28 -8.3,-7.52 -12.46,-16.68 -12.46,-27.48 0,-11.02 4.79,-21.4 14.36,-31.14 13.8,-15.67 36.05,-23.51 66.74,-23.51 16.9,0 25.63,5.62 26.19,16.84l2.53 27.65c0.84,17.16 2.11,32.52 3.8,46.07 0,5.51 -2.96,9.21 -8.87,11.12 -2.82,1.06 -5.49,1.59 -8.03,1.59zm-49 -36.54c7.61,0 15.63,-2.86 24.08,-8.58l0 -33.36c-8.73,0 -16.05,2.22 -21.96,6.67 -9.01,5.72 -13.52,13.24 -13.52,22.56 0,8.47 3.8,12.71 11.4,12.71zm-79.91 32.09c-1.13,0 -3.31,-0.21 -6.55,-0.64 -3.24,-0.42 -6.54,-3.71 -9.93,-9.85 -0.84,-2.97 -2.11,-5.51 -3.8,-7.62 -13.24,10.38 -27.32,15.57 -42.24,15.57 -9.01,0 -17.74,-2.22 -26.19,-6.67 -14.36,-7.2 -21.54,-19.17 -21.54,-35.9 0,-8.05 2.96,-16.52 8.87,-25.42 5.92,-8.9 15.77,-16.2 29.57,-21.92 12.67,-4.45 25.63,-6.67 38.86,-6.67 0,-7.2 0.98,-16.95 2.96,-29.23 0.56,-0.85 0.84,-1.91 0.84,-3.18 1.41,-10.59 3.1,-17.16 5.07,-19.7 1.97,-4.66 6.34,-6.99 13.09,-6.99 13.52,0 20.28,5.08 20.28,15.25 0,49.78 1.97,92.78 5.91,129l0 2.86c0,7.41 -5.07,11.12 -15.21,11.12zm-59.14 -30.19c15.21,0 22.81,-14.72 22.81,-44.16 -12.67,0 -22.18,3.5 -28.51,10.49 -6.34,6.99 -9.51,13.77 -9.51,20.34 0,0.84 0.21,3.28 0.63,7.31 0.42,4.03 5.28,6.04 14.57,6.04zm-109.48 25.74c-12.67,0 -24.5,-4.87 -35.48,-14.62 -8.45,-11.44 -12.67,-24.36 -12.67,-38.76 0,-9.96 3.8,-18.85 11.4,-26.69 9.58,-9.32 17.88,-14.19 24.92,-14.61 3.38,0 6.2,0.26 8.45,0.79 2.25,0.53 4.22,0.79 5.91,0.79l7.18 -0.32c14.08,0 25.06,6.57 32.95,19.7 4.51,8.47 6.76,17.16 6.76,26.05 0,6.14 -0.99,12.39 -2.96,18.75 -9.58,19.28 -25.06,28.92 -46.46,28.92zm0 -27.01c5.63,-0.42 9.71,-3.5 12.25,-9.21 1.69,-3.6 2.53,-7.52 2.53,-11.76 0,-9.96 -4.22,-17.26 -12.67,-21.92 -10.42,2.12 -15.63,9.43 -15.63,21.92 0,3.6 0.99,8 2.96,13.19 1.97,5.19 5.49,7.78 10.56,7.78zm-166.93 42.26c-3.1,0 -6.48,-0.85 -10.14,-2.54 -3.66,-1.7 -5.84,-4.08 -6.55,-7.15 -0.7,-3.07 -1.05,-7.57 -1.05,-13.5l0 -110.57c-5.92,1.9 -10.84,2.86 -14.79,2.86 -3.38,0 -7.04,-1.11 -10.98,-3.34 -3.94,-2.22 -5.91,-5.45 -5.91,-9.69 0,-5.72 5.28,-10.54 15.84,-14.46 10.56,-3.92 22.18,-6.94 34.85,-9.06 12.67,-2.12 22.25,-3.18 28.72,-3.18 32.11,0 55.06,6.04 68.85,18.11 10.42,9.11 15.63,18.85 15.63,29.23 0,4.03 -1.76,10.91 -5.28,20.65 -3.52,9.74 -18.09,20.02 -43.72,30.82 4.22,4.66 11.83,15.46 22.81,32.41 7.61,11.86 11.41,19.59 11.41,23.2 0,3.81 -1.69,6.78 -5.07,8.9 -3.38,2.12 -6.76,3.18 -10.14,3.18 -0.56,0 -1.97,-0.11 -4.23,-0.32 -2.25,-0.21 -4.79,-1.27 -7.6,-3.18 -2.82,-1.9 -6.97,-6.57 -12.46,-13.98 -5.49,-7.41 -10.63,-15.2 -15.42,-23.36 -4.79,-8.15 -7.89,-13.82 -9.29,-17 -3.66,0 -6.76,0.26 -9.29,0.79 -2.53,0.53 -5.07,0.9 -7.6,1.11l0 35.59c0,8.47 -1.27,14.4 -3.8,17.79 -3.95,4.45 -8.87,6.67 -14.79,6.67zm18.58 -86.74c14.64,-2.54 27.45,-6.46 38.44,-11.75 14.36,-8.68 21.54,-16.63 21.54,-23.83 0,-14.4 -12.81,-21.6 -38.44,-21.6 -10.14,0 -16.4,0.11 -18.8,0.32 -2.39,0.21 -3.59,2.65 -3.59,7.31 0.56,1.27 0.84,17.79 0.84,49.56zm-188.05 80.39c-10.98,0 -17.32,-5.3 -19.01,-15.89 -11.83,4.03 -22.25,6.04 -31.26,6.04 -14.36,0 -25.7,-3.76 -34.01,-11.28 -8.31,-7.52 -12.46,-16.68 -12.46,-27.48 0,-11.02 4.79,-21.4 14.36,-31.14 13.8,-15.67 36.05,-23.51 66.74,-23.51 16.9,0 25.63,5.62 26.19,16.84l2.53 27.65c0.84,17.16 2.11,32.52 3.8,46.07 0,5.51 -2.96,9.21 -8.87,11.12 -2.82,1.06 -5.49,1.59 -8.03,1.59zm-49 -36.54c7.61,0 15.63,-2.86 24.08,-8.58l0 -33.36c-8.73,0 -16.05,2.22 -21.96,6.67 -9.01,5.72 -13.52,13.24 -13.52,22.56 0,8.47 3.8,12.71 11.4,12.71zm-79.91 32.09c-1.13,0 -3.31,-0.21 -6.55,-0.64 -3.24,-0.42 -6.54,-3.71 -9.93,-9.85 -0.84,-2.97 -2.11,-5.51 -3.8,-7.62 -13.24,10.38 -27.32,15.57 -42.24,15.57 -9.01,0 -17.74,-2.22 -26.19,-6.67 -14.36,-7.2 -21.54,-19.17 -21.54,-35.9 0,-8.05 2.96,-16.52 8.87,-25.42 5.91,-8.9 15.77,-16.2 29.57,-21.92 12.67,-4.45 25.63,-6.67 38.86,-6.67 0,-7.2 0.98,-16.95 2.96,-29.23 0.56,-0.85 0.84,-1.91 0.84,-3.18 1.41,-10.59 3.1,-17.16 5.07,-19.7 1.97,-4.66 6.34,-6.99 13.09,-6.99 13.52,0 20.28,5.08 20.28,15.25 0,49.78 1.97,92.78 5.91,129l0 2.86c0,7.41 -5.07,11.12 -15.21,11.12zm-59.14 -30.19c15.21,0 22.81,-14.72 22.81,-44.16 -12.67,0 -22.18,3.5 -28.51,10.49 -6.34,6.99 -9.5,13.77 -9.5,20.34 0,0.84 0.21,3.28 0.63,7.31 0.42,4.03 5.28,6.04 14.57,6.04z"/>
   <path class="fil0" d="M1308.68 159.5c-12.67,0 -24.5,-4.87 -35.49,-14.61 -8.44,-11.44 -12.67,-24.36 -12.67,-38.76 0,-9.96 3.81,-18.86 11.41,-26.69 9.58,-9.32 17.88,-14.19 24.92,-14.62 3.37,0 6.19,0.27 8.44,0.79 2.26,0.53 4.23,0.8 5.92,0.8l7.18 -0.32c14.08,0 25.06,6.57 32.95,19.7 4.51,8.47 6.75,17.16 6.75,26.05 0,6.14 -0.98,12.39 -2.96,18.75 -9.58,19.28 -25.06,28.91 -46.46,28.91zm0 -27.01c5.63,-0.42 9.71,-3.5 12.25,-9.22 1.69,-3.6 2.53,-7.52 2.53,-11.75 0,-9.96 -4.22,-17.26 -12.67,-21.92 -10.41,2.12 -15.63,9.43 -15.63,21.92 0,3.6 0.99,8 2.96,13.18 1.97,5.19 5.49,7.79 10.56,7.79zm-83.72 31.45c-1.12,0 -3.31,-0.21 -6.54,-0.64 -3.24,-0.42 -6.54,-3.71 -9.93,-9.85 -0.85,-2.97 -2.11,-5.51 -3.8,-7.63 -13.23,10.38 -27.32,15.57 -42.24,15.57 -9.01,0 -17.74,-2.23 -26.19,-6.67 -14.36,-7.2 -21.54,-19.17 -21.54,-35.9 0,-8.05 2.96,-16.52 8.87,-25.42 5.92,-8.9 15.77,-16.21 29.57,-21.93 12.67,-4.45 25.63,-6.67 38.87,-6.67 0,-7.2 0.99,-16.95 2.96,-29.23 0.56,-0.85 0.84,-1.9 0.84,-3.18 1.41,-10.59 3.1,-17.16 5.07,-19.7 1.97,-4.66 6.34,-6.99 13.1,-6.99 13.51,0 20.28,5.09 20.28,15.25 0,49.78 1.97,92.78 5.91,129l0 2.86c0,7.41 -5.07,11.12 -15.21,11.12zm-59.13 -30.19c15.21,0 22.81,-14.72 22.81,-44.16 -12.67,0 -22.18,3.5 -28.51,10.48 -6.34,6.99 -9.51,13.77 -9.51,20.34 0,0.85 0.21,3.28 0.64,7.31 0.42,4.03 5.28,6.04 14.57,6.04zm-82.87 34.63c-10.98,0 -17.32,-5.29 -19.01,-15.89 -11.83,4.03 -22.24,6.04 -31.26,6.04 -14.36,0 -25.7,-3.76 -34,-11.28 -8.31,-7.52 -12.46,-16.68 -12.46,-27.48 0,-11.01 4.79,-21.39 14.36,-31.14 13.8,-15.67 36.04,-23.51 66.74,-23.51 16.9,0 25.62,5.61 26.19,16.84l2.53 27.64c0.85,17.16 2.11,32.52 3.81,46.07 0,5.51 -2.96,9.21 -8.88,11.12 -2.81,1.06 -5.49,1.59 -8.03,1.59zm-48.99 -36.54c7.6,0 15.63,-2.86 24.08,-8.58l0 -33.36c-8.73,0 -16.05,2.22 -21.97,6.67 -9.01,5.72 -13.52,13.24 -13.52,22.56 0,8.48 3.8,12.71 11.41,12.71zm-81.6 -63.55c-10.7,0 -16.05,-4.03 -16.05,-12.07 0,-4.24 2.54,-7.31 7.61,-9.21 3.1,-1.27 6.19,-1.91 9.29,-1.91 9.85,0 14.78,4.34 14.78,13.03 0,6.78 -5.21,10.17 -15.63,10.17zm-2.95 104.85c-11.83,0 -17.74,-4.98 -17.74,-14.93 0,-42.58 0.7,-64.82 2.11,-66.73 3.38,-5.51 8.59,-8.26 15.63,-8.26 2.25,0 5.91,0.58 10.98,1.75 5.07,1.16 7.61,5.56 7.61,13.18l0 60.05c0,9.95 -6.2,14.93 -18.58,14.93zm-83.29 1.27c-13.24,0 -24.08,-3.49 -32.52,-10.48 -14.08,-11.23 -21.12,-26.05 -21.12,-44.49 0,-5.29 1.34,-12.55 4.01,-21.76 2.67,-9.22 10.77,-18.16 24.29,-26.85 1.13,-0.63 2.11,-1.11 2.95,-1.43 0.84,-0.32 1.69,-0.63 2.53,-0.95 0.84,-0.32 1.27,-0.59 1.27,-0.8 7.04,-2.54 13.8,-3.81 20.27,-3.81 4.23,0 9.93,1.01 17.11,3.02 7.18,2.01 13.52,5.77 19.01,11.28 5.49,5.51 8.24,10.59 8.24,15.25 0,0.63 -0.21,2.44 -0.63,5.4 -0.42,2.97 -5.84,4.76 -16.26,5.4 -7.32,0 -13.24,-2.97 -17.74,-8.9 -3.38,-4.24 -6.76,-6.35 -10.14,-6.35 -3.38,0.42 -6.34,1.9 -8.87,4.45 -7.04,7.41 -10.56,16.09 -10.56,26.05 0,9.11 1.83,16.31 5.49,21.61 3.66,5.29 7.46,8.15 11.41,8.58 6.48,-0.64 11.26,-4.34 14.36,-11.12 4.22,-7.2 10,-11.02 17.32,-11.44 5.35,0 9.86,1.06 13.52,3.18 3.66,2.12 5.49,4.87 5.49,8.26 0,7.2 -4.93,15.04 -14.78,23.51 -7.89,7.2 -19.43,11.33 -34.64,12.39zm-85.4 -7.62c-10.7,0 -16.9,-2.86 -18.58,-8.58 -1.13,-3.6 -1.69,-7.41 -1.69,-11.44l0.42 -6.67 0 -11.12c0,-7.62 -0.14,-13.13 -0.42,-16.52 -2.25,-8.05 -6.34,-12.08 -12.25,-12.08 -6.48,0 -11.97,6.04 -16.47,18.11 -3.94,9.74 -6.41,17.74 -7.39,23.99 -0.99,6.25 -2.75,11.86 -5.28,16.84 -2.53,4.98 -8.16,7.47 -16.9,7.47 -2.25,0 -4.72,-0.64 -7.39,-1.91 -2.68,-1.27 -4.72,-2.75 -6.12,-4.45 -3.1,-5.09 -4.65,-18.85 -4.65,-41.31l0.84 -28.6c0,-12.07 5.35,-18.11 16.05,-18.11 7.04,0 11.83,1.9 14.36,5.72l2.53 4.77c1.69,-0.64 3.24,-1.48 4.65,-2.54 8.45,-5.08 18.73,-7.62 30.84,-7.62 28.72,0 43.09,18.11 43.09,54.33l1.27 18.11c0,4.45 -0.63,9.16 -1.9,14.14 -1.27,4.98 -6.26,7.47 -14.99,7.47zm-163.12 7.94c-28.16,-0.21 -46.04,-11.01 -53.64,-32.41 -3.38,-8.68 -5.07,-17.16 -5.07,-25.42 0,-12.07 3.52,-23.62 10.56,-34.63 12.39,-17.37 28.44,-26.05 48.15,-26.05 6.48,0 13.52,1.06 21.12,3.18 19.15,7.41 28.72,19.7 28.72,36.86 0,11.44 -6.62,20.33 -19.85,26.69 -13.51,4.45 -25.62,6.67 -36.32,6.67l-14.36 0c0,1.27 0.49,3.39 1.48,6.36 0.99,2.97 2.89,5.66 5.7,8.1 2.82,2.44 6.62,3.66 11.4,3.66 3.66,0 7.74,-0.95 12.25,-2.86 6.19,-2.97 11.4,-4.45 15.63,-4.45 4.22,0 8.17,1.8 11.83,5.4 2.25,2.12 3.38,4.56 3.38,7.31 0,0.85 -0.28,2.54 -0.84,5.09 -0.56,2.54 -4.37,5.72 -11.4,9.53 -9.01,4.02 -18.58,6.35 -28.72,6.99zm-19.43 -69.9c12.11,0 23.52,-1.48 34.22,-4.45 0,-4.66 -0.71,-8.79 -2.11,-12.39 -1.69,-3.39 -5.21,-5.08 -10.56,-5.08l-0.84 0c-5.92,0.84 -10.63,3.65 -14.15,8.42 -3.52,4.76 -5.7,9.26 -6.55,13.5zm-120.88 71.17c-8.16,0 -13.8,-3.39 -16.9,-10.17 -2.82,-13.56 -4.22,-39.82 -4.22,-78.8l0.42 -12.39c0,-6.78 5.35,-10.17 16.05,-10.17 9.86,0 15.07,3.28 15.63,9.85l7.6 -1.9c3.38,-1.7 7.61,-2.65 12.67,-2.86 13.52,0 23.59,3.02 30.2,9.06 6.62,6.04 9.93,12.12 9.93,18.27 0,0.64 -0.35,2.81 -1.06,6.52 -0.71,3.71 -5.7,6.09 -15,7.15 -5.63,0 -9.71,-1.11 -12.25,-3.33 -2.53,-2.23 -4.44,-4.39 -5.7,-6.52 -1.27,-2.12 -2.32,-3.6 -3.17,-4.45 -8.73,2.75 -13.94,10.16 -15.63,22.24 -1.41,9.53 -2.11,18.64 -2.11,27.32l0 17.48c-0.56,8.47 -6.05,12.71 -16.48,12.71zm-87.51 -1.27c-28.16,-0.21 -46.04,-11.01 -53.65,-32.41 -3.38,-8.68 -5.07,-17.16 -5.07,-25.42 0,-12.07 3.52,-23.62 10.56,-34.63 12.39,-17.37 28.44,-26.05 48.16,-26.05 6.48,0 13.52,1.06 21.12,3.18 19.15,7.41 28.72,19.7 28.72,36.86 0,11.44 -6.62,20.33 -19.85,26.69 -13.52,4.45 -25.63,6.67 -36.32,6.67l-14.37 0c0,1.27 0.49,3.39 1.48,6.36 0.99,2.97 2.88,5.66 5.7,8.1 2.82,2.44 6.62,3.66 11.41,3.66 3.66,0 7.74,-0.95 12.25,-2.86 6.2,-2.97 11.4,-4.45 15.63,-4.45 4.22,0 8.16,1.8 11.83,5.4 2.25,2.12 3.38,4.56 3.38,7.31 0,0.85 -0.28,2.54 -0.84,5.09 -0.56,2.54 -4.37,5.72 -11.41,9.53 -9.01,4.02 -18.58,6.35 -28.72,6.99zm-19.43 -69.9c12.11,0 23.51,-1.48 34.22,-4.45 0,-4.66 -0.71,-8.79 -2.11,-12.39 -1.69,-3.39 -5.21,-5.08 -10.56,-5.08l-0.84 0c-5.91,0.84 -10.63,3.65 -14.15,8.42 -3.52,4.76 -5.7,9.26 -6.55,13.5zm-95.12 61c-10.14,0 -16.05,-5.4 -17.74,-16.2 -1.97,-12.29 -2.96,-35.16 -2.96,-68.63 0,-29.87 6.19,-50.09 18.58,-60.69 10.98,-7.63 22.67,-11.44 35.06,-11.44 6.2,0 12.11,1.27 17.74,3.81 7.6,3.81 11.4,8.26 11.4,13.35 0,3.18 -2.39,5.93 -7.18,8.26 -2.82,1.27 -5.49,1.9 -8.03,1.9 -3.94,0 -6.62,-0.32 -8.03,-0.95 -1.41,-0.63 -3.8,-0.95 -7.18,-0.95 -10.14,0 -15.63,9.85 -16.48,29.55 -0.56,8.9 -0.84,18.43 -0.84,28.6 3.1,0 5.99,-0.16 8.66,-0.48 2.68,-0.32 5.28,-0.48 7.82,-0.48 14.08,0 21.12,4.24 21.12,12.71 0,7.84 -7.04,11.97 -21.12,12.39 -7.04,0 -12.11,0.21 -15.21,0.64 -0.29,1.48 -0.42,4.66 -0.42,9.53 0,11.44 0.56,20.02 1.69,25.74 0,5.09 -2.68,8.9 -8.03,11.44 -2.53,1.27 -5.49,1.9 -8.87,1.9zm-62.17 -97.55c-10.7,0 -16.05,-4.03 -16.05,-12.07 0,-4.24 2.53,-7.31 7.61,-9.21 3.1,-1.27 6.19,-1.91 9.29,-1.91 9.86,0 14.79,4.34 14.79,13.03 0,6.78 -5.21,10.17 -15.63,10.17zm-2.96 104.85c-11.82,0 -17.74,-4.98 -17.74,-14.93 0,-42.58 0.71,-64.82 2.11,-66.73 3.38,-5.51 8.59,-8.26 15.63,-8.26 2.26,0 5.92,0.58 10.98,1.75 5.07,1.16 7.61,5.56 7.61,13.18l0 60.05c0,9.95 -6.2,14.93 -18.59,14.93zm-133.98 1.59c-18.03,0 -27.03,-5.72 -27.03,-17.16l0.42 -5.09 0 -120.1c-12.67,-2.54 -19.01,-6.88 -19.01,-13.03 0,-7.2 6.12,-12.23 18.37,-15.09 12.25,-2.86 23.86,-4.29 34.85,-4.29 20,0 38.44,5.09 55.33,15.25 24.22,14.62 36.33,36.75 36.33,66.41 0,22.45 -10.7,43.85 -32.1,64.18 -11.55,10.59 -27.18,18.96 -46.89,25.1 -7.89,2.54 -14.64,3.81 -20.27,3.81zm13.52 -30.82c31.54,-15.89 47.31,-37.7 47.31,-65.45 0,-12.71 -4.79,-24.15 -14.36,-34.31 -9.58,-10.17 -20.56,-15.57 -32.95,-16.2l0 115.97z"/>
  </g>
 </g>
</svg>
