<?xml version="1.0" encoding="UTF-8"?>
<!DOCTYPE svg PUBLIC "-//W3C//DTD SVG 1.1//EN" "http://www.w3.org/Graphics/SVG/1.1/DTD/svg11.dtd">
<!-- Creator: CorelDRAW -->
<svg xmlns="http://www.w3.org/2000/svg" xml:space="preserve" width="248.134mm" height="82.7112mm" version="1.1" style="shape-rendering:geometricPrecision; text-rendering:geometricPrecision; image-rendering:optimizeQuality; fill-rule:evenodd; clip-rule:evenodd"
viewBox="0 0 1825.66 608.55"
 xmlns:xlink="http://www.w3.org/1999/xlink"
 xmlns:xodm="http://www.corel.com/coreldraw/odm/2003">
 <defs>
  <style type="text/css">
   <![CDATA[
    .fil0 {fill:white}
   ]]>
  </style>
 </defs>
 <g id="Camada_x0020_1">
  <metadata id="CorelCorpID_0Corel-Layer"/>
  <path id="Corte.cdr" class="fil0" d="M293.86 417.29l23.32 73.2 75.91 -0.15 -61.5 45.1 23.6 73.11 -61.33 -45.33 -61.33 45.33 23.6 -73.11 -61.5 -45.1 75.91 0.15 23.32 -73.2zm1469.2 -139.27c0,14.8 0.51,18.92 13.77,27.93 -1.22,2.58 -1.49,5.18 -2.34,7.79 -4.91,15.1 -22.95,39.19 -38.98,39.19 -11.89,0 -22.54,-9.7 -22.54,-21.58 0,-14.35 8.21,-47.11 12.98,-61.74 6.97,-21.39 9.49,-31.99 20.41,-54.21 4.7,-9.58 12.53,-24.96 25.46,-24.96 14.95,0 23.79,17.51 23.79,27.93l0 29.2 -7.51 0c-14.82,0 -25.04,15.29 -25.04,30.47zm-1381.03 13.96c-18.73,-4.42 -82.56,-28.35 -92.65,-29.2 3.01,-1.94 17.56,-4.63 22.01,-5.61 22.01,-4.87 44.48,-10.24 63.97,-20.2 22.2,-11.34 49.89,-28.87 61.77,-51.63 8.66,0 14.93,1.27 25.04,1.27 -6.48,27.16 -52.43,81.83 -80.13,105.37zm1.58 -291.98l42.25 0c52.43,0 59.86,4.08 106.44,15.22 39.87,9.53 103.29,23.65 141.55,26.59 24.77,1.9 91.63,9.38 98.09,-18.44 1.16,-5.01 -0.58,-8.11 2.73,-10.22 8.71,-5.52 14,15.27 -9.77,34.82 -35.56,29.26 -96.85,22.67 -140.87,15.14 -24.2,-4.14 -28.54,-4.83 -50.75,17.81 -25.37,25.87 -31.83,43.03 -45.65,75.58 -1.47,3.47 -2.69,5.6 -4.05,8.74 -4.2,9.75 -3.85,5.71 23.14,4.75 0,0 60.25,-10.28 63.19,25.5 -43.57,-29.59 -40.74,-15.23 -91.4,-15.23 -21,40.22 -24.87,61.24 -62.27,99.35 -4.56,4.64 -9.36,7.88 -14.39,12.07 -7.28,6.07 -7.65,5.71 -13.49,12.99 11.38,2.69 26.29,8.36 38.55,11.69 12.65,3.04 27.1,5.2 41.05,7.89 55.41,10.65 115.2,14.72 160.29,-21.35 8.79,-7.04 19.56,-27.09 8.49,-31.75 -9.72,-4.1 -26.51,8.25 -42.04,3.3 -11.37,-3.62 -24.09,-16.71 -11.29,-27.17 19.42,-15.86 59.63,-10.28 65.69,15.18 9.3,39.12 -26.91,73.49 -58.67,84.61 -26.09,9.13 -50.91,13.88 -84.49,11.03 -30.46,-2.58 -55.69,-9.88 -80.8,-18.36 -13,-4.39 -23.2,-8.6 -35.18,-13.84 -16.33,-7.15 -22.51,-11.37 -37.39,-5.46 -36.72,14.58 -34.43,14.8 -73.9,24.09 -13.36,3.15 -28.21,4.7 -42.95,5.96 -47.37,4.05 -88.38,3.23 -134.09,-8.98 -25.26,-6.75 -48.45,-17.41 -68.8,-29.26 -7.26,-4.22 -30.14,-21.79 -34.75,-26.97l-16.47 -20.11c-34.54,-46.68 -25.09,-107.79 10.25,-151.78 17.05,-21.24 46.8,-38.8 71.35,-49.53 33.98,-14.86 29.03,-14.77 71.25,-25.5 38.81,-9.87 47.77,-8.47 86.15,-10.4 17.87,-0.9 37.99,-15.65 74.77,-21.94 21.39,-3.66 27.45,-3.02 43.45,-5.46 1.46,-0.22 3.07,-0.4 4.8,-0.54zm-159.34 111.71c0,-23.18 2.94,-38.09 19.09,-54.28 8.48,-8.51 25.62,-25.7 38.51,-25.7 53.92,0 159.01,28.44 159.01,95.21 0,22.02 0.47,29.2 -11.27,46.97 -4.52,-1.07 -7.18,-2.95 -10.77,-5.58l-8.01 -8.38c1.78,-2.7 7.51,-9.54 7.51,-12.69 0,-8.98 -8.8,-9.84 -14.59,-7.28 -6.76,2.99 -6.7,9.34 -6.7,18.7 -18.79,12.76 -62.31,19.52 -78.68,17.61 -17.54,-2.05 -34.9,-1.9 -50.72,-9.54 -19.08,-9.22 -43.39,-30.49 -43.39,-55.03zm-11.27 -8.89c0,39 29.34,62.91 63.18,74.31 6.38,2.15 11.03,3.42 18,4.6 26.27,4.44 41.25,1.5 67.61,-1.68 6.92,-0.84 13.36,-3 19.97,-5.15 4.64,-1.96 11.6,-4.33 15.65,-6.98 2.33,-1.53 0.89,-0.52 2.15,-1.63 3.33,2.26 28.18,15.46 28.09,15.78 -0.69,2.35 -11.99,10.45 -14.62,13.1 -5.77,5.8 -12.28,11.62 -18.47,16.82 -28.68,24.1 -87.14,44.43 -125.21,44.43l-56.41 -1.34c-7.7,0 -11.86,0.46 -12.45,7.69 6.23,4.23 10.46,2.54 22.54,2.54 23.94,-0 47.73,-0.69 70.27,6.19 6.81,2.08 12.57,3.38 19.41,5.71l36.98 13.29c6.12,2.5 12.18,6.3 18.59,7.82 -2.52,9.55 -33.45,23.06 -41.33,26.65 -38.47,17.49 -60.68,16.72 -99.84,20.72 -18.01,1.84 -57.04,-4.33 -75.69,-9.03 -22.21,-5.59 -52.12,-17.83 -71.36,-30.48 -19.04,-12.52 -20.3,-11.77 -38.89,-30.39 -33.37,-33.44 -41.43,-85.45 -16.49,-127.8 15.83,-26.89 32.23,-43.06 56.68,-59.32 28.29,-21.22 51.55,-30.96 87.11,-41.16 24.71,-7.09 61.68,-14.5 88.37,-14.5 -1.09,4.15 -43.82,29.04 -43.82,69.82zm373.12 -46.97c-1.54,5.84 -7.95,7.38 -16.67,12.29 -24.14,13.58 -41.23,25.36 -58.74,47.08 -2.32,2.88 -4.49,5.44 -6.7,8.44l-35.58 55.33c-21.36,-0.66 -17.29,-0.58 -25.3,-1.45 0.73,-8.85 3.46,-8.46 6.28,-19.09 7.42,-27.94 1.24,-54.46 -15.84,-76.14 -3.25,-4.13 -4.81,-4.54 -8.59,-7.79 -3.63,-3.11 -4.65,-4.5 -8.77,-7.61 -6.44,-4.86 -13.34,-9.4 -20.81,-13.18 -16.25,-8.23 -29.07,-13.41 -48.41,-18.2 -11.29,-2.79 -46.81,-8.63 -57.61,-8.87 7.22,-6.36 24.19,-10.18 33.08,-12.16 14.1,-3.15 24.95,-4.47 40.71,-5.69 15.6,-1.21 25.29,0.16 41.3,1.46 25.1,2.04 49.76,10.06 73.58,15.53 21.7,4.98 90.46,28.58 108.08,30.06zm1148.26 305.94l-6.69 0c-17.64,-1.41 -34.32,-13.86 -41.58,-31.15 -6.22,-14.81 -5.64,-54.95 -1.93,-62.79 -4.66,0.39 -5.87,1.55 -9.81,2.75 -14.34,4.39 -16.3,-5.88 -25.25,12.48 -10.34,21.21 -21.4,46.02 -39.88,61.13 -14.16,11.57 -33.83,22.5 -52.41,12.13 -25.1,-14 -24.97,-36.5 -19.15,-61.83 -9.91,7.36 -38.53,89.96 -82.33,58.09 -22.04,-16.04 -14.08,-37.77 -14.08,-51.74l-11.34 17.7c-8.53,14.45 -26.27,39.42 -45,39.42 -13.33,0 -18.79,-1.84 -27.88,-11.08 -14.18,-14.41 -8.43,-29.62 -8.43,-47.31 -5.59,4.15 -18.66,29.83 -26.6,37.78 -5.23,5.25 -9.7,11.51 -16.35,15.16 -15.53,8.51 -37.47,11 -47.26,-8.44 -5.46,-10.85 -4.95,-17.07 -4.95,-33.07 -5.39,1.46 -20.46,23.76 -24.7,28.28 -12.15,12.96 -42.88,26.41 -59.31,9.93 -12.74,-12.78 -2.32,-32.54 -1.13,-47.1 -5.95,4.04 -10.17,12.27 -15.33,17.46 -5.66,5.68 -10.5,11.08 -16.26,16.52 -23.84,22.49 -64.54,29.32 -85.39,-1.68 -8.71,-12.95 -9.47,-25.33 -9.47,-46.26 -6.5,4.42 -25.28,31.27 -36,40.93 -19.11,17.22 -35.84,25.08 -62.91,25.08 -25.33,0 -40.62,-20.61 -42.69,-43.04 -1.05,-11.42 0.12,-14.04 0.12,-25.51 -2.53,1.72 -6.02,6.41 -8.26,9.4 -2.77,3.73 -4.39,7.29 -6.75,10.93 -4.54,6.97 -9.62,13.9 -14.85,20.49 -15.12,19.03 -26.86,26.47 -52.78,26.47 -27.49,0 -31.3,-25.89 -31.3,-46.97 -6.59,0.56 -10.86,8.75 -15.36,13.63 -5.27,5.31 -7.86,10.1 -13.8,15.2 -8.22,7.05 -24.2,18.14 -38.45,18.14 -30.16,0 -20.09,-41.89 7.51,-41.89 21.25,0 10.99,13.97 20.03,13.97 8.63,0 10.26,-3.34 14.72,-7.93 11.51,-11.86 23.97,-22.65 29.01,-39.14 3.75,-12.25 4.98,-26.41 6.73,-38.88 1.7,-12.13 4.63,-25.47 4.63,-39.74 0,-9.68 0.95,-15.99 -6.81,-17.16 -8.83,-1.33 -18.61,8.44 -23.27,14.6 -2.75,3.63 -5.29,6.61 -8.21,10.72 -5.8,8.14 -10.08,15.36 -15.31,23.83 -2.97,4.82 -12.96,20.18 -16.52,22.6 -2.85,-0.67 -4.39,-2.87 -7.77,-3.16 0.36,-4.4 43.22,-67.59 56.58,-73.03 11.88,-8.62 34.31,-16.23 47.95,-4.15 12.15,10.75 9.66,26.62 9.66,43.52l34.67 -33.4c9.97,-13.76 51.83,-18.83 44.34,8.04 -2.03,7.29 -8.99,16.47 -17.66,16.47 -29.43,0 -14.24,-30.6 -52.97,16.11 -1.99,2.4 -2.82,3.05 -4.65,5.44 -13.78,18.03 -15,67.42 -15,92.7 0,7.76 -2,19.04 8.76,19.04 13.42,0 28.37,-19.72 35.78,-29.74 26.42,-35.76 56.3,-95.12 89.61,-122.42 12.59,-10.32 24.24,-19.22 43.65,-19.22 12.93,0 19.3,1.78 27.26,10.45 17.66,19.24 6.13,54.64 -5.96,72.08 -20.33,29.32 -44.62,39.73 -80.44,44.11 -6.46,0.79 -6.44,-0.08 -8.07,5.78 -3.34,12.04 -8.68,32.59 5.08,41.03 34.81,21.36 84.71,-52.35 98.95,-73.93 16.78,-25.4 26.21,-46.65 46.78,-69.36 16.51,-18.24 46.8,-38.03 71.7,-26.39 27.78,12.99 17.41,55.26 2.67,73.87 -41.45,52.32 -68.78,-7.28 -22.92,-20.7 21.73,-6.36 27.73,-1.17 27.73,-27.74 0,-16.84 -16.99,-25.28 -29.54,-17.26 -5.99,3.83 -9.47,8.47 -13.76,13.98 -2.45,3.15 -3.79,5.02 -5.55,8.34 -12.67,23.83 -24.09,49.75 -32.7,76.02 -5.31,16.23 -26.39,66.18 8.92,66.18 8.65,0 20.42,-6.24 26.71,-9.74 35.16,-19.58 56.33,-73.17 64.39,-81.97 3.94,-4.31 4.31,-7.28 6.39,-12.57l25.22 -65.83c7.42,0 32.86,0.25 37.56,2.54 -1.73,7.53 -4.95,13.99 -7.33,20.5 -12.44,34.14 -26.3,66.24 -38.23,100.88 -5.18,15.04 -9.88,26.66 -9.53,42.38 13.5,1.14 11.15,3.25 26.63,-12.36 27.99,-28.22 49.82,-90.45 64.77,-128.56 2.84,-7.24 6.97,-15.01 8.77,-22.85l37.56 0c-1.61,7.03 -5.24,14.55 -7.67,21.42l-30.78 85.59c-4.48,11.58 -25.57,61.84 -6.62,61.84 21.87,0 70.19,-84.48 78.72,-110.61 4.17,-12.75 14.15,-34.2 15.18,-46.81 -7.79,0 -15.07,0.54 -18.78,-5.08 5.02,-2.44 15.44,-1.27 22.54,-1.27l11.64 -33.9c2.37,-6.03 3.33,-10.99 5.4,-17.37 1.9,-5.84 5.03,-11.55 5.5,-17.28l37.56 0c-0.88,3.84 -1.79,5.68 -2.96,9.69 -3.38,11.6 -2.78,7.49 -6.3,16.46l-9.06 25.08c-2,5.96 -4.15,11.57 -5.47,17.31l18.78 0 0 6.35c-5.9,0 -14.06,1.81 -20.54,0.7 -6.46,28.09 -26.93,75.76 -36.9,106.1 -1.88,5.7 -21.64,50.62 -1.41,50.62 17.46,0 31.13,-24.88 38.42,-37.22 7.14,-12.08 19.5,-39.26 26.67,-49.13 11,-15.15 14.89,-37.13 20.82,-55.06 1.77,-5.35 2.89,-9.26 4.38,-14.61 1.37,-4.95 1.76,-10.13 7.09,-11.86 2.97,-0.96 25.98,0.3 34.09,0.3 -2.86,12.44 -7.96,26.14 -12.05,38.56 -4.36,13.24 -7.77,25.01 -12.21,38.4 -6.44,19.42 -22.07,58.37 -22.07,77.92 0,21.84 17.19,16.54 32.74,-3.62 11.36,-14.73 20.39,-33.08 28.61,-49.7 8.44,-17.07 6.15,-21.58 16.28,-21.58 0.46,-5.57 3.99,-13.86 5.8,-19.51 2.28,-7.09 3.64,-12.41 5.94,-19.37 14.55,-44.18 1.62,-39.83 48.36,-39.83 -7.01,30.5 -16.46,59.65 -26.14,89.03 -4.88,14.84 -8.97,29.98 -13.76,44.44 -2.47,7.44 -5.61,15.11 -4.17,22.85 2.79,15.05 18.8,13.99 28.85,7.25 17.57,-11.79 29.17,-33.19 39.74,-51.12 2.71,-4.59 4,-7.62 6.09,-12.87 1.72,-4.33 2.91,-9.99 4.46,-13.25 -31.73,-21.54 -9.65,-85.4 13.01,-88.42 21.54,-2.87 8.69,48.71 6.79,56.44 -1.06,4.31 -2.38,9.39 -3.68,14.05 -1.17,4.21 -1.8,10.33 -3.6,14.13 14.19,-0.32 27.09,-3.07 32.39,-16.67 1.44,-3.69 2.35,-5.59 3.88,-8.76l8.02 -9.63c11.5,-11.93 18.2,-24.7 31.88,-34.96 16.51,-12.4 44.93,-18.75 61.27,-0.78 10.04,11.03 10.29,25.11 10.29,40.34 0,22.77 -11.27,46.12 -11.27,62.2 16.4,-0.37 20.38,-17.87 26.29,-29.2 3.32,1.62 1.34,1.16 6.26,1.27 0,11.05 -6.43,20.15 -11.4,26.52 -6.22,7.96 -12.24,11.56 -26.16,11.56 -1.55,3.28 -2.32,6.07 -4.14,9.77 -7.1,14.39 -16.85,30.2 -30.19,39.2 -6.15,4.15 -12.76,6.34 -19.38,6.89zm-785.16 -73.63c-3.38,0 -3.45,-0.61 -6.26,-1.27 0.24,-10.99 26.98,-62.16 35.31,-74.64 5.4,-8.1 11.4,-21.44 19,-26.44 3.54,-2.33 11.47,-6.82 13.3,-9.36l9.04 4.8c16.14,11.67 -10.98,76.04 -38.35,96.24 -8.33,6.14 -18.25,10.68 -32.04,10.68zm654.32 129.12l23.32 73.2 75.91 -0.15 -61.5 45.1 23.6 73.11 -61.33 -45.33 -61.33 45.33 23.6 -73.11 -61.5 -45.1 75.91 0.15 23.32 -73.2zm-327.42 0l23.32 73.2 75.91 -0.15 -61.5 45.1 23.6 73.11 -61.33 -45.33 -61.33 45.33 23.6 -73.11 -61.5 -45.1 75.91 0.15 23.32 -73.2zm-327.42 0l23.32 73.2 75.91 -0.15 -61.5 45.1 23.6 73.11 -61.33 -45.33 -61.33 45.33 23.6 -73.11 -61.5 -45.1 75.91 0.15 23.32 -73.2zm-327.42 0l23.32 73.2 75.91 -0.15 -61.5 45.1 23.6 73.11 -61.33 -45.33 -61.33 45.33 23.6 -73.11 -61.5 -45.1 75.91 0.15 23.32 -73.2z"/>
 </g>
</svg>
