<?xml version="1.0" encoding="UTF-8"?>
<!DOCTYPE svg PUBLIC "-//W3C//DTD SVG 1.1//EN" "http://www.w3.org/Graphics/SVG/1.1/DTD/svg11.dtd">
<!-- Creator: CorelDRAW -->
<svg xmlns="http://www.w3.org/2000/svg" xml:space="preserve" width="33.2228mm" height="13.0623mm" version="1.1" style="shape-rendering:geometricPrecision; text-rendering:geometricPrecision; image-rendering:optimizeQuality; fill-rule:evenodd; clip-rule:evenodd"
viewBox="0 0 395.4 155.46"
 xmlns:xlink="http://www.w3.org/1999/xlink"
 xmlns:xodm="http://www.corel.com/coreldraw/odm/2003">
 <defs>
  <style type="text/css">
   <![CDATA[
    .fil0 {fill:black}
   ]]>
  </style>
 </defs>
 <g id="Camada_x0020_1">
  <metadata id="CorelCorpID_0Corel-Layer"/>
  <path class="fil0" d="M269.18 103.82c-0.13,1.56 -1.08,3.75 -1.65,4.95 -1.68,-1.12 -2.2,-2.2 -3.3,-3.85 1.2,-0.57 3.16,-1.06 4.94,-1.1zm-128 37.35c-3.37,0 -7.69,-3.36 -7.69,-8.24 0,-11.37 15.38,-10.51 15.38,-0.55 0,4.97 -3.9,8.79 -7.69,8.79zm-0.55 3.85c13.86,0 16.13,-19.39 4.87,-24.1 -2.27,-0.95 -4.7,-1.19 -7.03,-0.62 -6.96,1.69 -10.92,9.3 -8.22,16.98 1.34,3.81 5.19,7.74 10.39,7.74zm-4.95 -108.77c0,-11.87 15.38,-11.51 15.38,-0.55 0,4.5 -3.32,7.86 -7.25,8.12 -3.79,0.25 -8.13,-4.05 -8.13,-7.57zm-3.85 -2.2c0,4.18 0.19,7.12 3.41,10.32 6.58,6.54 19.66,4.08 19.66,-10.32 0,-14.71 -23.07,-14.71 -23.07,0zm-1.1 49.99c0,6.05 0.02,34.61 3.3,34.61 2.02,0 9.4,-2.67 12.09,-3.3 0.46,-5.52 1.25,-10.07 0.63,-15.46 -0.7,-6.12 1.08,-25.34 1.95,-31.95 0.74,-5.59 1.26,-10.2 1.26,-16.31 -4.44,-0.37 -10.27,-2.1 -14.83,-2.2 -1.55,2.93 -1.79,2.64 -2.52,6.82 -1.37,7.86 -1.88,19.68 -1.88,27.79zm-130.74 -49.44c0.9,1.35 12.76,9.88 15.15,11.77 2.65,2.1 4.54,4.15 6.99,6.2 1.55,1.3 2.07,1.54 3.55,3.04l6.64 7.09c2.82,3.53 5.42,5.92 9.19,11.13 2.11,2.92 9.28,13.85 9.57,17.35 -3.9,0.32 -19.15,7.08 -22.52,9.34l0 13.18c8.13,0.68 20.55,-6.79 29.12,-8.79 3.53,7.36 14.28,43.98 14.28,50.54 3.17,-0.74 10.71,-7.41 15.38,-9.89 -0.77,-9.2 -13.08,-43.83 -13.18,-45.05 2.78,-1.33 20.88,-4.61 25.9,-5.41 8.16,-1.3 7.06,-1.91 7.06,-8.32 0,-2.97 -1.03,-4.29 -2.2,-6.04 -7.24,0 -29.25,4.94 -36.81,4.94 -1.69,-7.26 -13.13,-23.51 -19.64,-30.89 -2.56,-2.91 -6.35,-5.64 -8.37,-8.66 3.63,0 13.29,-1.78 17.26,-2.51 2.91,-0.54 5.62,-1.19 8.12,-1.77 12.45,-2.91 19.17,-4.96 31.14,-8.96 2.55,-0.85 4.91,-2.02 7.75,-2.68 -0.18,2.12 -1.12,5.11 -1.72,7.07 -2.77,9.18 -2.49,21.61 -3.23,24.79l16.48 -6.04c0,-13.14 2.61,-20.06 8.24,-31.31 2.29,-4.58 4.32,-8.45 7.03,-12.74 1.33,-2.11 2.45,-3.98 3.84,-6.05 1.39,-2.07 2.86,-3.86 3.96,-5.93l-15.07 6.36c-26.27,10.47 -37.8,13.81 -66.24,20.56 -12.75,3.03 -44.74,7.69 -57.68,7.69zm291.7 48.89l-22.52 20.32 22.52 -20.32zm0 0c0.06,-2.82 1.48,-6.44 2.09,-8.9 1.11,-4.5 6.64,-24.21 6.7,-26.81 1.79,1.32 1.87,3.79 4.03,8.06 1.51,2.98 2.8,5.59 4.21,8.43l4.29 7.8c1.19,1.98 4.03,6.1 4.51,8.13 -8.9,0 -19.03,2.73 -25.82,3.3zm74.16 -21.42c0,7.03 -0.89,20.73 0.55,26.92 -1.91,-1.4 -3.71,-6.45 -4.95,-8.79l-25.82 0 -15.62 -24.48c-1.85,-3.06 -3.19,-5.64 -5.02,-8.71 -4.56,-7.64 -9.75,-19.11 -13.41,-27.24 -0.67,-1.49 -1.29,-2.97 -1.97,-4.62l-2.43 -4.71c-0.45,5.42 -4.7,19.64 -6.36,25.5 -2.44,8.63 -4.3,16.5 -7.02,24.84 -2.7,8.26 -5.19,15.78 -8.18,23.68 -1.64,4.32 -3.88,3.87 -10.3,5.63 -3.63,1 -9.2,2.2 -12.63,3.85 -4.77,-7.12 -14.1,-13.24 -20.19,-19.36 -1.66,-1.67 -1.35,-1.51 -3.43,-2.61 4.4,-6.57 8.23,-12.95 12.26,-20.15 2.22,-3.96 9.95,-18.44 10.26,-22.15 -6.1,-1.42 -12.52,-5.71 -18.68,-7.14 -3.78,7.15 -15.81,33.9 -19.78,36.8 -2.03,-0.54 -2.88,-2.04 -4.26,-3.44l-7.97 -7.41c-2.71,-2.68 -17.81,-18.84 -18.54,-21.56 -5.43,0 -14.86,3.12 -20.33,4.4 2.45,4.64 10.56,13.64 14.42,17.45 5.17,5.11 10.13,11.67 16.12,16.29 4.2,3.24 6.57,7.09 11.22,10.21 -0.55,2.35 -12.99,22.91 -14.65,26 -2.67,4.96 -11.53,22.3 -12.82,27.84 2.24,3.06 8.55,5.69 11.98,7.8 1.44,0.89 2.67,1.94 4.5,2.09 1.99,-8.53 17.04,-36.18 22.75,-44.82 0.92,-1.4 3.27,-4.95 3.62,-6.27 1.91,1.28 3.02,3.01 4.86,4.48 7.03,5.61 12.9,13.03 19.17,19.28l9.24 9.98c1.66,2.15 3.36,3.37 4.63,5.26 -7.71,0.17 -23.84,5.14 -26.92,9.34 0.69,2.97 6.95,10.8 8.79,14.28 8.37,-4.43 15.47,-6.88 25.22,-8.84l21.92 -3.35c2.22,-0.28 5.59,-0.48 7.79,-1l-7.27 -8.11c-2.53,-2.56 -5.63,-5.48 -7.56,-8.37 3.08,-5.81 5.47,-11.81 7.86,-17.96 0.99,-2.54 2.28,-2.81 5.11,-3.68 8.62,-2.63 23.04,-3.63 33.72,-3.63 2.06,0 4.32,5.12 5.38,6.71 4.87,7.28 10.08,13.84 15.62,20.63l16.9 19.35c7.93,10.39 8.51,4.66 20.33,4.39 -0.58,-2.18 -2.03,-2.51 -3.3,-4.39l8.84 -1.6c10.27,-1.34 4.23,-8.83 2.7,-15.43l-7.69 -0.55c-6.57,0 -10.19,3.86 -14.83,4.95 -1.6,-1.17 -5.41,-6.41 -7.02,-8.37 -3.19,-3.9 -18.14,-22.81 -19.35,-27.34l11.54 -0.55c4.53,0.02 6.87,-0.55 11.53,-0.55 0,6.55 0.33,13.62 1.58,19.84l1.71 5.98c2.71,-0.06 9.5,-2.66 12.3,-3.63 1.34,-0.47 1.53,-0.55 2.81,-1.04 3.77,-1.45 3.32,-4.14 3.58,-9.06 0.65,-12.42 -0.92,-27.29 0.47,-39.63 0.3,-2.67 -0.14,-5.41 0.16,-8.08 1.09,-9.71 4.77,-37.89 3.22,-44.58 -5.81,-0.13 -18.28,-4.54 -20.72,-2.09 -5.51,5.53 -5.64,43.68 -5.64,51.53z"/>
 </g>
</svg>
