<?xml version="1.0" encoding="UTF-8"?>
<!DOCTYPE svg PUBLIC "-//W3C//DTD SVG 1.1//EN" "http://www.w3.org/Graphics/SVG/1.1/DTD/svg11.dtd">
<!-- Creator: CorelDRAW -->
<svg xmlns="http://www.w3.org/2000/svg" xml:space="preserve" width="19.5611mm" height="29.2705mm" version="1.1" style="shape-rendering:geometricPrecision; text-rendering:geometricPrecision; image-rendering:optimizeQuality; fill-rule:evenodd; clip-rule:evenodd"
viewBox="0 0 83.67 125.2"
 xmlns:xlink="http://www.w3.org/1999/xlink"
 xmlns:xodm="http://www.corel.com/coreldraw/odm/2003">
 <defs>
  <style type="text/css">
   <![CDATA[
    .fil0 {fill:black}
   ]]>
  </style>
 </defs>
 <g id="Camada_x0020_1">
  <metadata id="CorelCorpID_0Corel-Layer"/>
  <path id="Fé.cdr" class="fil0" d="M36.21 47.34c0,-0.17 0.15,-0.25 0.26,-0.32l1.45 -0.81c0.32,-0.15 1.02,-0.73 1.02,-0.24l0 3.89c0,0.16 -0.05,0.21 -0.11,0.32 -0.2,-0.14 -0.79,-0.84 -0.98,-1.07 -0.2,-0.26 -1.65,-1.57 -1.65,-1.77zm16.94 -19.78c0.32,0 1.64,-1.05 2.01,-1.36 0.21,-0.17 0.42,-0.31 0.61,-0.5 0.32,-0.32 0.42,-0.33 0.65,-0.51l0.61 -0.5c0.62,-0.52 1.09,-1.56 0.64,-2.09 -0.41,-0.48 -1.42,0.39 -1.77,0.75l-2.41 2.22c-0.34,0.29 -0.91,0.94 -0.91,1.45 0,0.51 0.1,0.53 0.58,0.53zm-4.95 4.52c0,-1.57 1.38,-2.66 1.93,-1.24 0.28,0.71 0.19,1.64 -0.03,2.35 -0.14,0.45 -0.44,1.26 -0.84,1.47 -0.54,-0.36 -1.05,-1.65 -1.05,-2.58zm-7.21 -24.78c0,-0.9 -0.02,-1.87 0.05,-2.69 0.06,-0.77 -0.18,-2.47 0.21,-2.47 0.69,0 1.48,1.34 1.74,1.94l0.55 1.29 0.89 3.27 0.34 4.71c0,3.08 0.05,5.38 -0.27,8.41l-0.13 1.03c-0.03,0.19 -0.01,0.35 -0.04,0.54l-0.24 1.5c-0.1,0.97 -0.52,2.33 -0.74,3.26 -0.15,0.64 -0.67,1.83 -1.02,2.46 -0.18,0.33 -0.89,1.49 -1.25,1.59 -0.23,-0.47 -0.05,-2.91 -0.05,-3.68 0,-1.28 0,-2.56 0,-3.84 0,-1.27 -0.05,-2.47 -0.05,-3.79l0 -13.52zm0.47 44.93c-0,-0.53 0.06,-0.89 0.05,-1.37 -0,-0.97 -0.09,-6.78 0.07,-7.03 0.07,-0.1 0.34,-0.21 0.46,-0.28l1.08 -0.66 3.88 -2.85c0.64,-0.55 1.3,-1.04 1.89,-1.63 0.92,-0.92 0.48,-0.83 1.72,-0.28 2.03,0.91 5.61,0.53 7.84,0.53 1.04,0 2.01,0.05 3.1,0.05l20.31 0c0.45,0 0.85,-0.03 1.21,-0.16 0.4,-0.15 0.58,-0.22 0.58,-0.78 0,-0.44 -0.33,-0.85 -0.68,-1.05 -0.5,-0.29 -5.97,-0.26 -6.68,-0.26 -2.87,0 -5.62,-0.05 -8.52,-0.05l-7.42 0.05c-0.72,0 -1.27,0.05 -1.95,0.05 -1.89,-0 -4.09,0.11 -5.89,-0 -0.32,-0.02 -1.42,-0.29 -1.42,-0.53 0,-0.38 0.55,-1.16 0.74,-1.53 0.2,-0.4 0.53,-1.23 0.53,-1.68 0,-0.83 0.02,-1.26 -0.12,-2.04 -0.52,-2.9 -3.68,-3.65 -5.33,-1.26 -0.09,0.14 -0.12,0.14 -0.2,0.28l-0.28 0.56c-0.36,1.04 -0.33,1.44 -0.28,2.51 0.02,0.54 0.3,1.27 0.49,1.77 0.19,0.49 0.55,1 0.89,1.38 0.49,0.55 0.39,0.57 -0.79,1.6l-3.31 2.63c-0.16,0.12 -0.27,0.18 -0.42,0.31l-0.86 0.61c-0.15,0.1 -0.3,0.18 -0.45,0.29 -0.21,0.15 -0.37,0.25 -0.65,0.25 0,-0.71 -0.06,-6.02 0.01,-6.25 0.06,-0.21 0.23,-0.31 0.38,-0.46l1.36 -1.37c0.39,-0.4 0.69,-0.89 1,-1.37l0.57 -1.01c0.77,-1.58 1.35,-3.34 1.64,-5.09 0.01,-0.09 0.06,-0.2 0.08,-0.29 0.24,-1.12 0.38,-2.26 0.53,-3.42l0.22 -2.93c-0,-0.56 0.04,-0.95 0.05,-1.53 0,-0.3 0.06,-0.4 0.06,-0.73l-0 -1.16c0,-0.37 0,-0.74 0,-1.11l-0.1 -2.05c-0.03,-0.33 0.01,-0.72 -0,-1.05l-0.43 -3.83c-0.08,-0.82 -0.58,-2.68 -0.88,-3.44 -0.21,-0.53 -0.4,-1.02 -0.65,-1.5 -0.46,-0.88 -1.09,-1.76 -1.85,-2.41l-0.69 -0.41c-0.55,-0.24 -1.25,-0.3 -1.81,-0.12 -0.78,0.26 -1.33,0.81 -1.48,1.68 -0.28,1.71 -0.11,2.49 -0.11,4.1l0 24.68c-0,0.41 0.05,0.66 0.05,1 0.01,0.76 -0.06,1.41 -0.05,2.11 0,0.16 0.02,0.36 -0.03,0.5 -0.06,0.17 -0.12,0.16 -0.26,0.26 -1.23,0.87 -2.73,1.37 -4.21,1.73 -0.17,0.04 -0.29,0.03 -0.46,0.07 -0.54,0.13 -2.28,0.28 -2.87,0.28 -5.35,0 -10.7,0 -16.05,0 -1.85,0 -3.54,-0.05 -5.37,-0.05 -1.81,0 -3.61,0 -5.42,0 -1.12,-0.02 -2.72,-0.22 -3.72,0.28 -0.51,0.26 -0.8,1.05 -0.27,1.55 0.5,0.48 1.5,0.43 2.15,0.48 0.25,0.02 0.36,-0.04 0.57,-0.05 0.4,-0.02 0.86,0 1.26,0l7.73 0c0.49,0 0.82,-0.06 1.26,-0.05l19.42 -0.1c0.61,-0.03 1.62,-0.2 2.22,-0.36l1.95 -0.63c0.2,-0.07 0.27,-0.13 0.49,-0.2 0.31,-0.1 1.61,-0.86 1.61,-0.39l0 6c0,0.25 -0.1,0.28 -0.26,0.37 -0.12,0.07 -0.21,0.14 -0.36,0.22 -0.26,0.16 -0.46,0.27 -0.73,0.43 -0.49,0.29 -2.57,1.29 -3.01,1.73 -0.53,0.52 -0.95,1.49 -0.58,2.24 0.07,0.14 0.17,0.31 0.25,0.43l1.7 1.88c0.15,0.15 0.18,0.22 0.31,0.37 0.69,0.81 1.34,1.46 1.75,2.51 0.52,1.32 0.34,5.12 0.34,6.76l0.05 53.77c0.05,0.88 -0.09,2 0.01,2.83 0.05,0.42 0.04,0.88 0.04,1.38l0.05 3.47c0.01,0.24 0.06,0.32 0.05,0.63 -0,0.64 -0.03,1.96 0.29,2.55 0.52,0.96 1.66,0.78 2.14,-0.12 0.46,-0.87 0.36,-3.34 0.36,-4.43 0,-15.15 0.06,-29.92 0.05,-45.14 -0,-0.53 0.05,-0.85 0.05,-1.37l0 -21.26z"/>
 </g>
</svg>
