<?xml version="1.0" encoding="UTF-8"?>
<!DOCTYPE svg PUBLIC "-//W3C//DTD SVG 1.1//EN" "http://www.w3.org/Graphics/SVG/1.1/DTD/svg11.dtd">
<!-- Creator: CorelDRAW -->
<svg xmlns="http://www.w3.org/2000/svg" xml:space="preserve" width="149.997mm" height="20.0174mm" version="1.1" style="shape-rendering:geometricPrecision; text-rendering:geometricPrecision; image-rendering:optimizeQuality; fill-rule:evenodd; clip-rule:evenodd"
viewBox="0 0 2439720.24 325585.55"
 xmlns:xlink="http://www.w3.org/1999/xlink"
 xmlns:xodm="http://www.corel.com/coreldraw/odm/2003">
 <defs>
  <style type="text/css">
   <![CDATA[
    .fil0 {fill:black}
   ]]>
  </style>
 </defs>
 <g id="Camada_x0020_1">
  <metadata id="CorelCorpID_0Corel-Layer"/>
  <path class="fil0" d="M2028272.71 139011.53l108.98 553.01 -217.95 17.89 -91.08 -352.95c-4336.28,5657.01 -2304.77,16497.72 -23059.07,35316.47l-39198.96 30929.77c-4562.37,6961.47 993.8,15287.59 13491.92,18197.42 11932.1,2778.08 17795.68,2436.52 30693.92,-398.5 21400.03,-4697.37 22161.24,-8740.88 36224.06,-19812.55l51275.81 -45945.73c12478.61,-13283.73 11501.07,-12878.73 29332.53,-17445.98 29340.66,-7514.49 11344.93,17836.34 9702.15,21437.44l-10861.85 26694.33c-4609.54,12429.81 -8056.12,30838.68 -4271.22,43660.48 1990.85,6741.9 3958.93,4590.02 10899.26,1768.02 10800.04,-4380.2 12187.46,-5422.79 20502.19,-12740.47 4860.02,-4279.35 9829.02,-8477.38 14770.36,-12694.93l14599.58 -14207.59c10365.77,-8246.42 12356.62,-22470.27 30656.51,-22470.27 25196.31,0 16213.08,10396.67 20355.81,24483.9 2254.35,7667.38 -131.75,23968.29 20581.89,19431.95 1086.51,-237.47 58621.14,-35062.73 65758.28,-41846.92 9619.2,-9142.63 -1968.08,-424.52 12476.98,-9168.65 11126.97,-6733.76 38213.29,-27995.54 45093.44,-31227.42 7501.48,-3523.03 42639.03,-7610.45 36577.02,19859.72 -4237.07,19197.73 -2965.13,24522.93 -11198.54,43403.49l-17781.04 39698.3c2934.23,5029.18 19890.62,-7306.29 22377.56,-8895.4l21961.17 -13337.4 10687.81 17836.34c-6398.7,2514.59 -8708.35,5569.18 -11795.47,7698.28l-29713.13 13600.9 -26694.33 16375.73 -5186.95 715.67c-4196.4,2073.8 -427.77,5130.02 -22143.34,10473.12 -6328.76,1558.2 -10552.81,4030.5 -13718.01,-307.41 -1070.25,-1514.28 -1288.2,-3292.06 -1133.68,-4996.65 -1.63,-3.25 -11240.83,-14197.83 -8722.99,-30140.91 1081.63,-6850.87 -1306.09,-4723.39 -1306.09,-9022.27 0,-11270.11 22208.4,-17502.9 26521.92,-10237.27 9012.51,15181.87 14280.78,-36126.47 14280.78,-43018.01 0,-13090.17 -25793.24,4619.3 -29169.88,6619.91 -33148.33,19635.26 -88116.32,72640.06 -124968.22,51484.01 -13970.12,-8020.33 -9113.35,-15124.94 -19540.92,-23956.91 -14918.37,12413.54 -45543.98,40077.27 -60995.85,45753.8 -18439.77,6776.05 -42993.61,5422.79 -48200.08,-17462.24 -1232.9,-5419.54 -4430.62,-16813.26 -3536.04,-22278.34 4.88,-26.02 -232.59,-13592.77 -5749.72,-10645.53 -20781.95,14970.42 -22488.16,24038.23 -49481.77,35734.48 -7109.49,3082.24 -15124.94,5504.12 -23348.59,5512.25 -3064.35,1387.42 -6493.04,2267.36 -9947.75,2810.61 -15739.76,2482.06 -39237.99,1237.78 -49554.96,-13192.64 -8573.35,-11990.65 -10409.68,-23584.43 -23921.12,-13202.4l915.73 1668.8c-25240.22,18120.98 -92330.62,17691.58 -98408.9,19568.57 -12015.05,6673.58 -24644.92,13238.19 -37710.7,18579.65 -8405.82,3436.82 -18288.51,7081.84 -27601.92,8649.79l-4098.81 2548.75c-6902.92,3134.29 -47791.82,8182.99 -53770.88,7860.94 -4624.18,-248.86 -11523.84,-6522.32 -14534.52,-9131.24 18042.91,-14072.59 19090.38,-21092.62 40015.47,-24101.66 23584.43,-3391.28 18179.53,-4017.49 35379.9,-10925.29 17994.11,-7226.6 34987.91,-19648.27 50768.34,-30939.52l7254.25 -6919.18c8176.48,-7413.64 1550.07,1465.49 15596.63,-15695.85 9667.99,-11810.11 11000.11,-14352.35 21752.98,-22912.68 9412.63,-7491.72 10373.9,-24400.94 10373.9,-35207.49 0,-28934.03 -51118.04,-57500.48 -75195.31,-65883.52l-33985.98 -12776.26c-11658.84,29747.29 -32645.74,95242.08 -38138.47,125210.57 -499.34,2719.53 -1034.46,5730.2 -1042.59,8514.79l-13665.96 47331.52c-8.13,16.27 -22862.26,33831.46 -30685.79,23493.35 -5230.86,-6912.68 -2758.57,-8788.05 -27.65,-17971.34l-1668.8 -3227 10128.29 -77288.63c5783.88,-26500.77 7794.25,-17450.85 2683.75,-32769.35 7577.92,-15157.47 6063.64,-34836.65 9856.67,-43214.82 6740.27,-14890.72 -131.75,-13365.05 14716.69,-23665.76 3490.5,-2420.25 8649.79,-6029.48 11135.11,-9149.13 222.83,-248.86 11133.48,-453.8 11133.48,-4342.79 0,-4017.49 -19174.96,-3254.65 -27447.4,-5874.96l-33104.41 -12249.27c-7537.26,-4804.72 -622.95,-8818.95 -979.16,-12566.44 -71.57,-749.82 -9789.98,-14554.04 427.77,-13901.8 10434.08,666.87 9181.66,2943.99 18716.28,517.23 7037.92,-1790.79 8521.3,-1950.19 17245.91,-779.1 11584.02,1554.95 20772.19,6728.88 23683.65,7000.51 1421.57,133.37 8794.55,-1681.81 11751.55,-570.91 18374.71,6906.17 26726.86,4646.95 37079.61,8433.47 70616.67,25832.27 177720.91,63477.91 107393.75,156603.89 -17582.6,23277.02 -42100.65,44457.47 -67072.5,63001.34 25001.13,-7052.56 70883.42,-10064.86 88807.59,-21325.21l-1123.92 -1613.5c5029.18,-6401.95 14529.64,-12475.35 21770.87,-16413.14 3428.69,-15851.99 1278.44,-14773.61 9204.44,-29306.51l17771.28 -24762.03 24454.62 -20302.13 13600.9 -6764.67c5141.41,-2029.89 27024.51,-3838.57 34410.5,2322.66 5759.48,4804.72 7215.21,13343.91 8840.1,20147.61l-45.54 27.65 17.89 8.13zm-1839320.73 177429.76c-3118.02,12246.01 -23340.46,14303.55 -18343.81,-7073.7 4451.77,-19044.84 3776.76,-2877.3 6411.71,-31473.02 666.87,-7242.86 9563.89,-32370.86 9567.15,-32444.05l-3526.28 -12459.09c185.42,-483.07 4581.89,-9189.8 -1803.8,-7717.8 -7198.95,1659.04 -42273.06,28771.38 -76002.06,38735.4 -24827.09,7333.95 -24911.67,2851.28 -34882.19,2693.51 -6388.94,-100.84 -8708.35,3052.96 -22079.91,-979.16 -30757.35,-9276 -39351.85,-27344.93 -48292.79,-55086.73l8.13 -71.57c5138.15,-9845.28 2379.59,-16513.98 2412.12,-21445.57l5476.47 -28724.21c10964.32,-57437.04 43338.43,-94197.86 93059.3,-124722.62 10790.29,-6623.16 8762.02,-6629.67 22224.67,-12639.63 8854.74,-3954.05 29426.87,-12236.25 38800.46,-13809.09l25305.28 -2085.19 8423.71 1504.52c5582.19,-172.41 -2423.5,-2729.29 16673.38,2031.51 17620.01,4391.58 15808.08,4041.88 30994.83,17372.78 15791.81,13862.77 8537.57,10020.94 15242.05,19767.01 13691.98,19903.64 19806.04,26188.48 -2150.25,41074.32 -6348.28,4303.75 -23410.4,14796.39 -31290.85,7452.68 -4604.66,-4290.74 -4596.52,-33323.99 -26666.68,-51684.07 -21110.51,-17561.46 -53300.82,-11946.74 -75013.14,5375.62 -17119.05,13657.83 -16204.95,13309.75 -28979.58,27928.85 -13060.9,14946.03 -5045.44,2913.08 -14580.06,19414.06 -8134.19,14075.84 -2630.07,-1618.38 -9476.06,16686.39l-9285.76 20863.28 -8160.21 48871.83c0,16442.42 9601.3,41583.42 20409.48,49218.27 15943.08,11260.35 49488.28,5471.59 66636.6,-6728.88l25949.38 -19368.51c25220.71,-16535.13 15912.17,-13065.78 33976.22,-30158.8 17008.44,-16092.72 59008.25,-13895.3 48139.9,10229.14 -5321.95,11811.74 -6330.39,33081.64 -9103.59,42326.74 -3931.28,13104.81 -8119.55,9885.94 -13093.43,32642.48 -4899.06,22414.97 -7327.44,13882.29 -13665.96,37631 -3329.47,12472.1 -8698.59,13539.09 -23338.83,16938.5l-9.76 -45.54 34.16 -40.66zm105817.66 -159503.97l-1659.04 -3609.23c2574.77,-9484.2 6066.89,-18878.93 9947.75,-28081.74 4659.96,-11061.91 9502.09,-22079.91 14516.63,-33068.63l12530.65 -18361.7c10990.35,-19685.68 13826.98,-24903.54 29278.85,-43341.68 8165.09,-9742.81 26004.68,-30474.34 40604.26,-30474.34 40446.49,0 24555.46,25913.6 24555.46,39750.34 0,6561.35 -4939.72,8755.52 -5957.92,20102.07 -200.06,1106.03 -697.77,2112.84 -1387.42,3082.24 -605.06,2303.14 2438.14,-374.1 -2983.02,9240.22 -1803.8,3101.76 -3736.1,6148.22 -5757.85,9158.89 -5474.84,10611.37 -6907.8,19623.88 -16084.58,29596.02 -8893.77,9663.11 -5034.06,7896.72 -13464.27,19632.01 -3900.38,5430.93 -8677.45,8342.38 -14409.28,16683.14 -10217.75,14871.21 -12483.48,13474.03 -23332.32,25848.54 -5522.01,6818.34 -11261.97,13555.36 -17354.89,20076.05 0,9628.96 2067.3,20446.89 10373.9,27990.66 10312.09,9357.33 25503.72,10748 39379.5,8090.27 25217.45,-4887.67 55774.75,-28372.89 77291.88,-41928.24 6510.93,-4098.81 13002.34,-8197.62 19586.47,-12223.24 4755.92,-4633.93 2846.4,-4495.68 12005.29,-10417.81l22385.69 -14715.06c9957.51,-7660.87 22701.24,-14798.01 35817.44,-10290.95l3428.69 3046.46 -5658.64 8814.07 1486.63 1668.8 27457.16 -6319c24265.94,0 39797.51,9516.73 39797.51,34373.09 0,10058.35 -7927.62,27336.8 -16330.19,32424.53 1301.21,2501.58 2815.49,4188.27 5902.61,4188.27 1659.04,0 54587.39,-34023.39 67171.72,-54105.94l-2693.51 -9228.83c5235.74,-6776.05 37227.62,-25406.13 56137.46,-14001.02l16720.55 10138.05c16138.26,8732.75 21796.9,23472.2 21796.9,40648.18 0,13883.91 -26421.07,45517.96 -13491.92,45517.96 8958.83,0 22520.69,-10977.33 30383.26,-15975.61 16248.86,-10336.49 8441.6,-7525.87 23511.24,-18252.73 11148.12,-7932.5 32836.04,-19975.2 41272.76,-28755.12 10264.92,-10681.31 33872.13,-6214.9 38309.25,7690.15l6319 24137.45 8641.66 20474.54c6551.59,7316.05 24165.1,2145.37 31136.33,-1995.73l16684.77 -9802.99 -190.3 -289.52 7969.91 -8360.28c4820.98,-3360.38 20376.95,-7709.67 27963.01,-14010.78 4079.29,-3388.03 4492.43,-6162.86 9402.87,-8913.29 2257.6,-1232.9 4715.26,-2249.47 7244.49,-3074.11l16556.27 -11460.41c7969.91,-3915.02 8332.62,-3025.31 17636.28,-9210.94 18282,-12156.56 51547.44,-33006.82 74879.76,-33006.82 20019.12,0 15884.52,15320.12 5458.58,20455.02 -18236.46,8981.6 -11741.8,6489.79 -25261.37,16221.21 -4570.5,3292.06 -9529.74,6219.78 -14671.14,8895.4l-9765.58 7862.56c-3101.76,2094.95 -6600.39,3980.08 -10019.32,5757.85 -2538.99,3835.32 -7924.37,8007.32 -11906.07,10935.04 -30802.9,22662.2 -16626.21,7290.03 -43797.11,34874.06l1750.13 1605.37c19461.22,-4482.67 37631,-22920.82 54078.29,-29296.75 10375.52,-4022.37 25284.14,-22650.82 47904.05,-22650.82 15728.38,0 12037.82,17241.03 11733.66,31110.31 -196.81,8944.19 12602.22,25443.54 30728.08,9038.53 6660.57,-6029.48 4656.71,-2321.03 10806.55,-6909.43l10699.2 17844.47c-15495.79,8740.88 -30754.1,25588.3 -56453,25588.3 -19506.77,0 -37203.22,-7725.94 -38410.1,-28698.19l-3418.93 -7125.75c-11896.31,8399.31 -18301.52,10269.8 -27972.77,16431.03 -15061.51,9596.42 -19928.03,15926.81 -38110.82,24155.34 -14428.79,6530.45 -36450.15,17636.28 -51519.79,6792.32 -7273.76,-5234.12 -8191.12,-16372.48 -3000.92,-24000.82 6743.52,-9913.59 9515.1,-5720.45 10045.34,-12060.59 -10481.25,6989.13 -46396.27,26460.11 -58295.84,26460.11 -36411.11,0 -35254.66,-3581.58 -48429.42,-26486.13 -1.63,-1.63 -14510.12,-17499.65 -17824.95,-17499.65 -11507.58,0 -29031.62,18467.43 -40384.68,24916.55 -9933.11,5642.37 -63500.68,30285.67 -72085.42,31238.8 -6424.73,714.04 -28042.71,-283.01 -21761.11,-15178.62 4355.8,-10328.36 11141.61,-11743.42 19332.73,-38800.46 2903.33,-9591.55 5710.69,-25516.73 -1379.28,-34021.77 -3092,-3708.45 -7789.37,-5603.34 -13356.92,-6039.24 -5679.78,806.75 -22369.43,12566.44 -27437.64,16974.29l-32352.96 23839.8c-14625.6,9767.21 -49016.59,41155.65 -70245.83,29976.63 -2856.16,-1504.52 -4915.32,-3545.8 -6465.39,-5930.27 -13461.02,12535.53 -43336.8,25243.48 -60288.32,25243.48 -6026.23,0 -20333.04,6699.61 -39758.48,-7743.83 -29360.18,-21831.05 4822.61,-44875.49 -11081.43,-44875.49 -8706.72,0 -45885.55,35199.36 -70426.37,42544.69 -16975.91,5081.23 -27644.21,1242.66 -43993.92,1242.66 -34937.49,0 -37105.63,-32678.27 -40622.15,-37676.54 -788.86,-1115.79 -2140.49,-2140.49 -3337.6,-2992.78l-19832.07 13828.61 -11252.21 -17836.34 11588.9 -10718.72c31894.29,-21944.91 13099.93,-167.53 21056.83,-33982.73 634.34,-2711.4 2338.93,-10144.56 4352.55,-12429.81l55.3 26.02zm327171.4 -84146.01c0,15318.5 -24596.12,18444.65 -30876.09,23555.16 -7808.89,6354.79 -12171.19,2103.08 -22123.83,9293.89 -9993.29,7220.09 -14967.17,2690.25 -19485.62,9075.94 -3601.1,5089.36 -19166.83,7981.3 -19166.83,-1940.43 0,-2817.12 -3148.93,-5354.48 4425.74,-9303.65 9417.51,-4910.44 9736.3,-7955.27 14689.04,-10871.61l21118.64 -12766.5c22836.24,-10170.58 13407.34,-20399.72 25723.3,-25924.99 16164.28,-7252.62 25707.03,10650.41 25707.03,18893.57l-11.39 -11.39zm247241.31 2267.36c10678.06,-9341.06 12590.83,-12250.89 28028.07,-12250.89 16810.01,0 13509.81,7667.38 10510.52,16603.44 -2621.94,7812.14 -7751.96,19887.37 -14625.6,25045.04 -4432.25,3324.59 -20921.83,11671.86 -26668.3,11089.56 -14275.9,-1447.6 -24835.22,2958.63 -24835.22,-16587.18 0,-5131.65 5831.05,-10917.15 9973.78,-14516.63 4225.68,-3680.8 10944.8,-8849.86 17590.73,-9384.98l9.76 -9.76 16.27 11.39zm468551.14 104644.95c12377.76,-11065.17 22244.19,-12727.46 34192.55,-20671.35 18282,-12156.56 51547.44,-33006.82 74879.76,-33006.82 20004.48,0 15894.28,15315.24 5458.58,20455.02 -18236.46,8981.6 -11741.8,6489.79 -25261.37,16221.21 -4570.5,3292.06 -9529.74,6219.78 -14680.9,8895.4l-9765.58 7862.56c-3101.76,2094.95 -6600.39,3980.08 -10019.32,5757.85 -2538.99,3835.32 -7924.37,8007.32 -11906.07,10935.04 -30802.9,22662.2 -16626.21,7290.03 -43797.11,34874.06l1750.13 1605.37c19477.49,-4485.92 37588.71,-22899.67 54088.05,-29296.75 10375.52,-4022.37 25284.14,-22650.82 47904.05,-22650.82 15728.38,0 12037.82,17241.03 11733.66,31110.31 -196.81,8927.93 12603.85,25450.04 30736.21,9038.53 6611.77,-5985.57 4689.24,-2335.67 10808.18,-6901.29l10699.2 17844.47c-15487.65,8736 -30758.98,25588.3 -56444.87,25588.3 -19511.65,0 -37203.22,-7724.31 -38410.1,-28698.19l-3418.93 -7125.75c-11896.31,8399.31 -18301.52,10269.8 -27972.77,16431.03 -15089.16,9612.69 -19890.62,15902.41 -38110.82,24155.34 -14422.29,6533.7 -36456.66,17631.4 -51519.79,6792.32 -7273.76,-5234.12 -8191.12,-16372.48 -3000.92,-24000.82 6732.14,-9894.08 14277.53,-7776.36 7704.79,-17445.98l-8205.76 -13410.6 7979.67 -8360.28c4820.98,-3360.38 20376.95,-7709.67 27963.01,-14010.78 5743.22,-4768.94 4350.92,-7978.04 16647.36,-11987.4l-17.89 -27.65 -13.01 27.65zm-950132.27 -115771.92l-1704.59 -725.42c-35601.11,24200.88 -27502.7,32951.52 -32343.2,41817.64 -8202.5,15027.35 -11309.14,11584.02 -22197.02,38536.97 -1042.59,2656.1 -2675.61,6764.67 -2693.51,9557.39l1605.37 1441.09c6188.88,-629.46 15297.35,-15427.47 20201.29,-21027.56 14519.88,-16579.04 20676.23,-26027.46 30384.88,-46796.4 3776.76,-8078.89 4451.77,-18597.55 6756.53,-22823.23l-9.76 19.52zm180959.3 131295.36c-4796.59,-11517.34 -6167.74,-13082.04 -14861.45,-14371.87 -12332.22,-1829.83 -14773.61,-3217.24 -22088.04,5069.84 -7395.75,8379.79 -10928.54,13722.89 -22950.09,14952.53 -7755.21,793.74 -17271.94,24397.69 -17271.94,31191.63 0,16606.69 29059.28,10043.72 38291.36,5739.96 13745.66,-6406.83 21121.89,-17154.83 27782.46,-21598.46 4498.93,-3000.92 8020.33,-14072.59 11079.8,-20999.91l0 9.76 17.89 6.51zm1416877.97 -43096.08c-8552.2,0 -35690.57,29257.71 -22767.92,29257.71 4635.56,0 5870.08,-4015.86 8469.25,-6320.63 1520.79,-1348.38 23628.35,-14623.98 17084.89,-21923.76 -679.88,-753.08 -1631.39,-1006.81 -2782.96,-1006.81l-3.25 -6.51z"/>
 </g>
</svg>
