<?xml version="1.0" encoding="UTF-8"?>
<!DOCTYPE svg PUBLIC "-//W3C//DTD SVG 1.1//EN" "http://www.w3.org/Graphics/SVG/1.1/DTD/svg11.dtd">
<!-- Creator: CorelDRAW -->
<svg xmlns="http://www.w3.org/2000/svg" xml:space="preserve" width="32.6815mm" height="11.2665mm" version="1.1" style="shape-rendering:geometricPrecision; text-rendering:geometricPrecision; image-rendering:optimizeQuality; fill-rule:evenodd; clip-rule:evenodd"
viewBox="0 0 931.39 321.08"
 xmlns:xlink="http://www.w3.org/1999/xlink"
 xmlns:xodm="http://www.corel.com/coreldraw/odm/2003">
 <defs>
  <style type="text/css">
   <![CDATA[
    .fil0 {fill:black}
   ]]>
  </style>
 </defs>
 <g id="Camada_x0020_1">
  <metadata id="CorelCorpID_0Corel-Layer"/>
  <path class="fil0" d="M540.62 258.86c0.01,-15.35 8.93,-34.83 23.1,-38.94 -0.12,10.01 -3.88,15.98 -7.69,24.23 -3.32,7.19 -5.81,14.45 -15.41,14.71zm-131.68 -136.62l2.94 33.57 -8.85 -0.05 5.9 -33.51zm-34.12 28.42l-6.08 42.59c7.71,1.1 24.68,1.54 32.02,-0.36l2.2 -17.41c18.59,-1.98 8.16,2.95 12.35,17.72l31.8 0.7 -14.66 -89.13 -2.85 -17.33 -45.37 0.47 -9.4 62.75zm-48.72 -44.46c9.06,0.51 9.08,3.61 9.09,11.28 0.01,8.12 0.32,10.61 -9.03,11.03l-0.06 -22.31zm38.95 15.16c-4.42,-14.67 1.49,-26.45 -15.87,-31.35 -8.05,-2.27 -38.82,-3.71 -47.47,-2.6 -10.4,1.1 -6.99,-2.11 -6.97,25.83l-0.04 80.57 31.28 -0.06c0.06,-5.38 -1.33,-42.04 1.56,-47.09 8.27,0.62 7.63,0.56 7.58,20.27 -0.02,8.96 -0.05,17.92 -0.04,26.89l28.78 -0.24c0.82,-11.52 0.62,-22.58 0.17,-33.59 -0.66,-15.86 -2.39,-14.45 -13.54,-21.32 11.08,-6.96 7.73,2.2 14.11,-16.18 0.1,-0.28 0.24,-0.78 0.45,-1.13zm314.96 140.74c0.38,-17.97 11.94,-38.45 27.01,-41.73 0.23,10.01 -3.27,17.13 -7.73,24.85 -2.27,3.93 -3.38,5.57 -6.67,9.6 -3.97,4.87 -4.38,5.6 -12.61,7.28zm58.54 -2.8c0.13,-13.9 9.21,-36.91 22.98,-38.91 -1.63,12.1 -7.84,36.35 -22.98,38.91zm136.27 -19.18c0.72,-5.94 9.64,-21.21 14.79,-22.16 8.54,-1.58 3.02,0.03 4.97,0.99 2.9,8.66 -10.72,19.06 -19.76,21.17zm-8.32 -38.09c1.54,-5.02 17.13,-19.42 -6.34,-22.98 -1.42,1.3 -0.74,0.57 -2.4,2.75 -5.22,6.85 -0.68,4.15 -5.46,5.85l0.46 -78.47 17.31 -0.35 0.12 -21.13 -67.4 0.52 0.16 20.25 17.64 1.13 0.15 84.21 29.85 -0.03c-3,10.27 -2.29,7.55 -10.88,11.92 -10.3,5.24 -1.03,8.7 0.25,11.49 -8.47,12.5 -11.35,34.41 -26.61,40.6 1.53,-9.19 10.55,-25.99 7.83,-32.37 -2.78,-6.53 -8.18,-3.81 -11.29,-10.18 -3.06,-6.27 1.3,-7.62 -0.32,-15.24 -18.13,0.59 -13.31,15.34 -19.67,28.38 -5.14,10.51 -12.2,22.01 -21.44,27.86 0.97,-14.61 12.46,-28.21 14.41,-32.75 -1.8,-3.05 -14.4,-15.19 -18.78,-16.2 -11.24,-2.62 -19.5,5.88 -23.53,10.44 -15.75,17.82 -14.27,33.98 -28.27,38.98 0.64,-6.75 21.81,-38.59 4.04,-47.55 -8.15,-3.27 -11.12,0.9 -16.34,0.85 -6.24,-0.06 -1.49,-3.49 -14.15,-3 -9.07,9.59 -28.52,56.62 -35.12,73.35 -2.62,6.63 -17.16,40.02 5.01,31.29 5.87,-2.31 14.48,-31.19 15.76,-37.59 27.04,4.82 32.48,-1.85 49.85,-11.45l2.42 4.09c6.71,12.81 14.39,5.85 25.02,2.21 13.01,9.74 22.55,3.66 32.19,-10.15 3.79,-5.44 7.33,-11.05 10.69,-16.15 2.15,-3.26 3.43,-5.5 5.18,-8.26 3,-4.74 1.85,-4.47 5.94,-4.43 0.62,1.15 0.78,0.07 1.2,3.65 0.8,6.86 -18.17,31.53 -3.57,39.1 12.81,2.92 12.76,0.18 21.01,-4.86 4.56,4.62 5.67,10.27 18.04,5.47 6.24,-2.43 9.44,-7.84 13.94,-11.51 4.56,7.37 4.84,12.97 19.65,12.85 10.39,-0.08 19.05,-4.92 24.09,-8.89 6.74,-5.3 28.99,-26.46 21.12,-34.99 -6.96,3.64 -27.34,37.58 -47.1,28.68l-1.09 -7.85c50.11,-7.6 43.59,-45.04 20.97,-45.08 -29.45,-0.05 -32.42,38.01 -47.02,49.49 -0.67,-1.48 -0.5,1.88 -0.65,-2.85 -0.16,-5.18 6.02,-17.08 8.19,-21.69 9.82,-20.9 5.42,-14.89 16.87,-18.84 0.25,-10.42 -4.08,-3.56 -1.94,-10.56zm42.37 -93.13l20.32 -0.36 1.05 -20.66 -52.68 -0.22c-0.03,21.21 -3.13,90.56 0.97,106.15l52.87 0.03 -0.28 -20.89 -22.04 -0.96 -0.06 -22.3 18.69 -0.48 0.04 -20.41 -18.69 -0.37 -0.17 -19.52zm-150.92 -2.9c10.64,0.62 9.13,1.78 9.15,11.49 0.02,9.99 1.82,10.02 -9.04,11.56l-0.11 -23.05zm24.93 32.98c9.47,-7.3 13.1,-4.18 13.88,-20.26 1.72,-35.68 -32.55,-34.52 -70.09,-30.63l-0.13 105.68 31.5 -0.33 2.04 -46.94c3.51,0.57 6.42,-1.75 6.94,9.03l-0.08 37.94c2.08,0.17 27.06,1.17 28.05,-0.64 0.25,-0.46 0.9,-0.24 1.32,-0.43 1.36,-8.03 0.78,-23.29 -0.01,-31.89 -1.63,-17.82 -0.81,-14.82 -13.43,-21.52zm-101.71 -15.36c2.55,3.61 3.14,10.24 3.52,14.99 0.51,6.39 1.07,11.25 1.6,17.26l-9.21 -0.01 4.08 -32.25zm-3.47 54.72c0.9,-2.68 0.62,-2.09 1.68,-3.45l6.46 -0.03c3.92,4.96 3.32,12.43 3.5,18.94l31.98 -0.5 -17.12 -105.69 -45.41 0.57 -15.87 105.65 32.94 -0.27 1.84 -15.21zm-88.68 -90.78c6.47,-5.21 17.98,-10.78 21.54,-17.92l-25.14 0.08 -12.31 17.97 -12.16 -0.11 -0.2 106.24 54.64 -0.12 -0.17 -20.76 -22.68 -0.8 -0.44 -22.81 19.23 -0.05 0.21 -20.82 -19.26 0.11 -0.2 -19.82 20.85 -0.11 0.16 -20.9 -24.06 -0.17zm-325.77 148.09c2,7.26 3.05,13.67 3.12,22.34l-16.84 -1.35c2.34,-5.94 8.04,-17.64 13.72,-20.99zm103.02 23.75c-3.85,-8.05 6.59,-36.2 21.41,-39.46 0.31,7.14 -7.23,35.79 -21.41,39.46zm-161.33 -0.06c-1.42,-10.72 8.37,-35.83 20.91,-39.45l0.97 2.45c1.51,7.6 -2.6,11.53 -6.1,20.54 -3.5,8.99 -4.7,15.47 -15.78,16.46zm101.57 3.74c-1.51,-13.45 12.06,-42.83 26.83,-42.18 0.35,17.11 -12.5,37.47 -26.83,42.18zm-172.01 -249.12l-3.51 7.43c-1.86,14.01 4.98,18.24 17.79,21.96l-2.6 33.95c-12.93,-0.89 -32.57,-14.19 -40.8,-19.69 5.19,-13.92 -6.57,-32.95 -37.69,-20.7 -1.05,3.84 -3.95,2.41 -5.74,9.06 -3.06,11.38 3.95,20.76 20.51,22.78l6.11 32.24c-10.7,-0.32 -20.11,-1.74 -30.32,-3.78 -8.46,-1.69 -5.3,-1.72 -9.14,-7.27 -19.79,-28.61 -74.52,7.44 -35.28,25.25 13.74,6.24 16.45,-1.47 28.61,4.69 9.71,4.92 34.99,17.44 40.23,23.05 -4.04,4.04 -11.87,5.84 -10.27,15.3 0.96,5.7 5.84,9.28 9.3,13.12 0.12,0.13 0.5,0.94 0.59,0.74 0.08,-0.2 0.41,0.48 0.56,0.74 14.91,3.44 10.35,2.29 20.05,-6.13 9.96,-8.64 22.82,-18.41 38,-20.74 27.17,-4.18 31.41,25.45 13.23,51.44 -5.76,8.23 -21.15,20.7 -34,22.7 5.96,-16.81 22.36,-39.37 26.17,-57.07 -5.42,-2.62 -12.81,-4.74 -20.43,-4.53 -14.74,0.41 -15.99,13.95 -24.79,33.27l-4.77 6.81c0.48,5.59 -9.76,26.84 -12.53,33.27 -3.07,7.11 -12.48,26.56 -10.69,33.37 1.84,4.67 9.37,10.46 18.81,10.57 4.78,-6.96 7.67,-14.21 11.22,-21.39 4.92,-9.95 4.46,-14.76 17.83,-15.7l4.1 10.97c1.17,3.97 2.28,6.85 4.2,10.33 9.24,16.75 26.02,19.78 41.43,11.23 4.03,-2.23 13.84,-10.75 16.45,-13.89 0.21,0.3 0.39,0.76 0.48,0.97 0.09,0.22 0.35,0.72 0.46,1 2.72,6.75 3.47,23.6 26.49,9.56 10.07,6.42 15.73,5.83 25.82,-1.51l3.34 4.16c9.62,12.33 27.16,0.22 38.84,-4.47 -4.6,12.01 -17.13,31.95 -11.38,44.2 15.1,4.99 14.38,-3.38 18.25,-13.7 2.72,-7.29 5.17,-16.45 9.06,-23.25 24.99,2.79 35.12,-0.61 49.69,-12.37 6.3,15.77 12.14,13.28 26.17,6.95 4.36,3.13 1.58,4.22 9.64,4.79 12.56,0.89 19.05,-8.45 24.32,-16.26 4.55,-6.74 13.63,-26.49 20.79,-29.57 3.94,9.12 -2.08,14.31 -5.14,23.39 -4.3,12.75 -3.2,12.32 3.03,21.86 17.78,1.78 14.41,-4.69 23.28,-7.73 4.8,-9.41 13.71,-15.06 8.72,-24.16 -10.64,1.36 -6.1,11.9 -19.07,15.51 2.59,-24.85 20.99,-23.5 -4.15,-40.33l0.82 -15.84c-16.47,-2.4 -12.63,14.79 -28.67,42.36 -4.29,7.37 -4.75,10.01 -13.06,13.38 0.82,-15.95 9.08,-22.05 14.3,-32.44 -12.33,-16.44 -25.11,-24.63 -41.34,-7.54 -12.92,13.61 -12.94,31.19 -29.64,40.51 3.37,-8.8 8.1,-14.63 9.95,-23.82 7.08,-35.11 -18.89,-22.83 -21.92,-23.12 -3.85,-0.37 -4.71,-3.1 -14.49,-3.06 -14.11,18.63 -7.71,26.86 -26.93,45.58 -2.64,-15.9 -9.25,-31.79 -6.68,-38.23 2.05,-5.15 7.83,-11.86 -1.99,-11.53 -2.53,0.09 -2.22,0.34 -4.17,1.59 -8.59,5.51 -21.82,47.1 -37.09,51.98 0.61,-15.44 8.18,-21.92 13.54,-31.34 0.17,-1.31 -13.14,-21.53 -27.77,-17.3 -11.77,3.4 -15.98,16.16 -25.42,21.57 -10.23,5.85 -11.38,16.51 -25.69,21.3 -14.46,4.84 -22.35,-9.73 -23.9,-19.54 19.46,-12.58 38.24,-25.12 46.01,-48.62 4.72,-14.27 2.13,-26.66 -5.82,-36.82 -10.18,-13.01 -17.76,-9.11 -32.6,-16.69l59.23 -26.39c-0.77,32.75 -13.07,79.8 16.42,91.65 15.8,6.35 21.44,0.37 30.95,-5.64 4.2,4.96 0.03,4.54 7.9,5.42 3.29,0.37 11.2,-0.04 15.04,-0l-0.06 -57.64 -35.48 0.05 2.28 17.09c4.68,3.67 3.92,12.92 2.44,18.18 -1.54,5.46 -0.92,4.19 -5.09,5.58 -5.35,-2.12 -4.14,-1.68 -5.56,-14.96 -1.1,-10.27 -0.4,-52.56 2.9,-58.27 11.11,-0.11 6.69,13.42 7.57,23.23l30.58 0.02c1.67,-14.31 -0.28,-30.66 -14.92,-37.54l-10.88 -3.15c-5.3,-1.56 -1.01,0.82 -4.75,-1.92l-9.12 0.13c7.63,-11.66 3.58,-36.77 5.9,-51.89 1.35,-8.8 10.11,-10.08 6.15,-21.07 -2.46,-6.82 -8.61,-10.51 -17.57,-11.66 -12.13,0.04 -19.72,2.39 -23.57,9.34 -6.07,10.96 1.42,13.55 4.93,20.53 -1.38,8.73 -12.55,24.62 -17.19,29.18 -16.17,-3.37 -23.08,-14.69 -33.16,-21.06 4.67,-8.37 9.69,-17.7 -2.07,-25.05 -13.18,-8.25 -20.58,-2.1 -31.59,1.03zm372 216.58c2.6,-10.33 20.55,-34.75 27.14,-39.14 0.5,11.87 -17.14,35.69 -27.14,39.14zm-55.42 -106.35c-0.78,13.49 -1.09,48.78 5.2,58.58 12.63,19.69 39.36,12.63 52.71,9.67 -2.34,6.71 -10.27,16.78 -13.12,21.72 -3.94,6.83 -7.8,14.53 -11.31,22.39 -7,15.63 -14.93,33.01 -17,51.93 -1.68,0.99 -1.27,9.31 -1.13,12.77 0.11,2.87 -0.21,3.6 0.94,6.18 6.23,13.98 39.07,-3.35 32.06,-35.06 10.74,-1.82 16.7,-7.08 25.25,-11.06 3.97,16.63 12.67,13.4 25.59,7.54l1.58 1.43c0.21,0.17 0.58,0.51 0.81,0.69l1.73 1.28c1.72,0.97 1.86,1.18 4.42,1.51 19.28,2.47 31.43,-27.3 43.11,-44.16l16.95 -1.21c-13.6,31.41 -37.41,21.08 -34.02,41.1 5.53,2.51 6.98,0.42 12.18,3.2 -2.11,5.45 -3.67,4.47 -9.98,7.03 -45.16,18.34 -16.17,57.98 11.11,33.73 21.18,-18.83 10.84,-29.84 22.2,-38.49 7.89,-6 18.44,-14.38 23.04,-22.36 5.44,-9.46 0.45,-10.95 0.36,-11.05 -6.6,-0.45 -7.15,6.61 -16.26,14.22 -11.77,9.83 -11.21,13.64 -18.99,8.69 4,-6.92 39.73,-31.12 25.29,-56.18 -10.05,-0.83 -14.41,2.25 -22.2,4.71 -4.47,-4.04 -1.42,-3.6 -4.84,-7.51 -15.09,4.98 -9.18,16.08 -15.73,26.85 -5.12,8.42 -11.59,20.82 -20.17,23.63 1.96,-19.84 14.43,-28.86 13.8,-32.49 -3.29,-5.41 -5.98,-5.52 -10.61,-10.95 -3.61,-4.23 -5.77,-6.89 -15.11,-5.47 -31.51,4.78 -16.54,49.25 -66.43,55.72 7.26,-22.27 5.55,-10.01 21.51,-21.58 14.65,-10.62 32.56,-36.83 32.13,-54.5 -0.62,-25.28 -24.47,-10.67 -24.48,-10.66l1.51 -88.28 -31.38 -0.37c-0.63,16.2 -0.52,32.26 -0.07,48.47 0.34,12.01 4.04,34.93 -4.39,41.96 -8.42,-6.53 -4.31,-31.2 -4.3,-43.37 0.01,-15.77 -0.02,-31.54 0.01,-47.29l-31.3 0.46 -0.64 36.59z"/>
 </g>
</svg>
