<?xml version="1.0" encoding="UTF-8"?>
<!DOCTYPE svg PUBLIC "-//W3C//DTD SVG 1.1//EN" "http://www.w3.org/Graphics/SVG/1.1/DTD/svg11.dtd">
<!-- Creator: CorelDRAW -->
<svg xmlns="http://www.w3.org/2000/svg" xml:space="preserve" width="149.998mm" height="20mm" version="1.1" style="shape-rendering:geometricPrecision; text-rendering:geometricPrecision; image-rendering:optimizeQuality; fill-rule:evenodd; clip-rule:evenodd"
viewBox="0 0 2690.6 358.75"
 xmlns:xlink="http://www.w3.org/1999/xlink"
 xmlns:xodm="http://www.corel.com/coreldraw/odm/2003">
 <defs>
  <style type="text/css">
   <![CDATA[
    .fil0 {fill:black}
   ]]>
  </style>
 </defs>
 <g id="Camada_x0020_1">
  <metadata id="CorelCorpID_0Corel-Layer"/>
  <g id="_2936824233376">
   <path class="fil0" d="M425.24 251.9c0.56,-40.24 15.22,-85.71 57.41,-89.82 -5.44,20.76 -38.28,84.32 -57.41,89.82zm1915.58 76.28c8.13,14.64 -1.96,4.69 10.53,10.21 -0.46,-22.83 -1.45,-9.47 -5.01,-14.73 -3.28,-35.65 -14.19,-64.17 -2.22,-104.07 8.97,-29.89 31.42,-50.56 63.15,-56.93 44.21,-21.21 132.73,-7.17 190.29,-32.69 55.07,-24.42 93.18,-100.11 92.29,-122.77 -0.45,-11.4 3.19,0.53 -2.48,-6.99l-6.24 11.69c-24.78,32.05 -57.34,49.91 -95.44,63.39 -92.03,32.58 -201.86,11.07 -255.26,100.31 -13.19,22.04 -11.63,42.31 -24.53,66.98l-22.17 43.8c-9.32,15.33 1.16,6.08 -13.9,13.7 1.26,-40.16 21.9,-151.86 17.41,-173.89 -36.24,-17.61 -53.21,6.27 -55.32,7.49 -12.65,7.31 -41.85,-2.61 -60.85,7.67 -39,21.11 -29.4,77.67 -69.79,82.41 0,-26.78 15.4,-139.91 -53.02,-111.66 -15.04,6.21 -18.92,15.48 -23.06,33.99 -44.36,0.5 -52.79,8.37 -55.77,55.82 -7.62,120.92 62.37,130.5 98.6,100.27 30.99,-25.86 9.63,-52.02 52.96,-61.25 2.48,22.49 -1.67,37.28 14.76,51.53 47.71,20.57 60.35,-64.35 88.41,-82.02 -1.22,48.71 -9.79,100.71 27.82,123.25 50.83,2.92 39.02,-49.4 67.98,-64.06l20.87 58.56 -0 0.01zm-1054.9 -53.88l-7.7 4.38 0.8 -15.07c0.84,-41.21 20.18,-104.64 16.34,-134.17 -18.82,-6.3 -35.12,-9.21 -52.71,4.96 -9.1,18.44 -8.69,54.19 -11.85,76.1 -1.06,27.12 -4.27,55.08 7.07,77.5 9.1,17.97 28.63,31.65 51.27,13.81 21.77,-17.16 46.21,-84.55 65.96,-95.81 -1.23,36.97 -10.9,111.8 24.73,126.09 42.61,17.09 51.85,-54.66 73.81,-73.62 5.81,10.99 6.31,30.59 14.97,46.04 7.94,14.18 15.85,21.46 32.96,28.12 57.98,22.58 74.11,-15.75 92.32,-26.33 3.62,-11.75 26.9,-49.5 35.89,-69.18 8.29,-18.14 23.49,-54.14 27.22,-74.77 -22.64,-2.64 -18.65,12.8 -38.42,54.6 -10.39,21.98 -21.89,43.27 -34.19,60.89 -40.78,58.44 -82.55,34.97 -69.64,-49.22 30.53,-15.15 46.8,-20.15 60.14,-54.16 17.11,-43.62 -14.15,-56.7 -52.32,-56.33 -15.12,12.64 -25.34,18.34 -38.81,35.68l-82.35 146.64c-0.95,-40.03 23.43,-159.15 13.75,-176.12 -14.38,-6.35 -26.12,-5 -43.46,-0.69 -12.04,17.34 -9.2,23.96 -18.85,43.05l-66.95 107.6 0 -0.02zm1070.74 37.69c29.11,-14.66 11.08,-35.33 71.9,-27.49 20.49,2.64 70.88,3.14 76.23,-25.42 -99.07,-8.06 -125.29,-33.52 -148.13,52.9l0 -0zm-327.28 -279.03c19.32,-26.64 78.31,-22.96 115.34,-23.07 30.63,-0.08 104.99,-6.24 124.69,23.07 -5.5,13.04 -6.74,12.62 -21.74,16.98 -43.17,12.53 -202.02,19.11 -218.29,-16.98zm54.32 -27.04c-26.1,5.34 -55.2,7.33 -75.97,20.9 -30.79,20.12 1.01,37.23 24.9,44.88 131.06,41.95 370.04,-15.12 231.73,-56.46 -46.27,-13.83 -129.32,-19.82 -180.66,-9.32l0 0.01zm313.33 188.88c-15.79,15.53 -36.83,22.89 -41.43,58.79 29.68,-20.27 29.2,-33.43 78.04,-29.13 30.87,2.72 62.35,13.17 92.27,15.29 101.69,7.23 109.35,-73.66 123.51,-92.69 -8.88,-15.64 -5.06,-4.39 -20.01,8.36 -53.82,45.89 -142.98,16.9 -232.37,39.37l-0.01 0zm-2385.6 -64.6l-11.43 37.16 0 77.36c8.49,11.09 9.1,16.62 11.67,33.37 18.39,26.9 13.07,42.74 48.33,58.69 32.66,14.77 66.29,1.05 83.21,-16.17 38.07,-38.76 50.63,-115.45 62.47,-136.8 4.08,-7.35 7.45,-4.4 6.32,-17.23 -17.39,-14.05 -40.8,-7.94 -63.08,-4.48 -25.73,4.01 -48.11,0.84 -44.26,29.85l72.03 -10.65c-1.51,28.3 -18.18,60.14 -30.03,79.55 -122.71,201.25 -98.06,-251.45 -2.06,-242.17 14.18,25.44 -3.31,43.88 3.8,71.7 21.6,-1.31 39.42,-40.21 28.82,-68.29 -6.47,-17.14 -75.55,-54.1 -132.97,36.88 -14.38,22.8 -21.1,51.6 -32.83,71.2l0.01 0.01zm1766.63 -112.98c8.76,90.82 18.36,167.86 38.76,254.23 8.84,33.24 19.51,71.83 57.32,68.88 31.11,-16.2 64.09,-197.01 75.53,-248.93 10.91,-49.53 26.9,-78.44 -4.65,-83.66 -22.65,34.17 -46.91,236.63 -70.37,270.42 -24.16,-35.87 1.88,-245.78 -29.11,-270.1 -20.66,-15.29 -53.06,1.54 -67.49,9.15l0 0.01zm-705.71 33.43c12.79,-17.43 82.66,-36.29 82.15,16.05 0.6,0.92 1.21,2.22 1.49,2.96 0.3,0.75 1.08,2.12 1.41,3.08 6.22,17.84 6.6,72.04 -27.01,178.43l-25.9 5.59c-1.28,24.46 10.57,24.47 2.77,41.27 -6.86,14.78 -15.56,19.49 -36.04,18.26 -10.77,-19.39 -21.93,-87.03 -7.76,-115.37 8.02,-16.04 55.96,-28.13 60.07,-61.9 -24.42,3 -28.16,20.85 -54.54,27.8 -1.32,-30.12 14.91,-37.1 11.19,-70.96 -80.93,-29.44 -44.71,35.77 -75.64,71.58 -32.32,-48.39 34.64,-106.15 67.81,-116.8l-0.01 0.02zm-2.22 -33.72c-7.82,7.28 -52.82,21.79 -84.42,75.98 -28.96,49.68 -25.79,84.78 21.88,109.78 1.1,20.74 -0.54,40.51 2.83,60.95 3.26,19.79 10.91,32.29 12.48,49.01 18.88,12.58 20.16,28.78 53.46,29.83 31.77,1 40.07,-16.21 59.55,-26.48 18.99,10.38 37.77,30.18 66.24,32.47 -2.35,-14.91 2.75,-2.9 -24.48,-26.06 -48.4,-41.17 -13.17,-41.28 5.82,-120.41 8.77,-36.57 10.31,-77.96 7.63,-118.29l1.78 -4.79c-17.09,-22.21 -8.23,-42.94 -37.2,-62.82 -24.43,-16.75 -58.7,-5.39 -85.57,0.84l0.01 -0zm449.96 191.22c1.75,-16.45 5.88,-27.27 12.8,-40.18 7.45,-13.91 12.07,-20.13 29.23,-21.59 1.23,33.06 -15.74,54.79 -42.03,61.77l0 0zm513.44 85.4c-18.67,-17.34 -11.97,-62.17 -9.17,-88.91 9.61,2.84 11.09,11.83 19.63,20.07 6.77,6.55 15.69,12.47 23.65,19.58 -1.43,20.84 -13.52,46.84 -34.12,49.25l0 0zm39.72 -78.44c-35.32,-14.11 -38.55,-87.63 -4.52,-91.82 9.85,13.71 11.92,35.44 10.18,57.69l-5.67 34.13 0 -0zm96.16 36.73c-1.9,-18.96 6.39,-43.85 14.25,-59.06 9.3,-18.02 16.38,-33.2 43.15,-28.24 -8.06,19.32 -39.65,81.35 -57.4,87.31zm-1934.79 -162.15c-10.46,69.57 4.37,25.11 4.81,89.98 24.3,3.69 9.25,-12.23 52.62,-9.89 -3.68,37.86 -76.93,128.33 -31.09,173.08 57.6,56.24 93.28,-53.09 116.36,-75.8 7.95,12.47 4.58,26.38 23.97,28.79 41.72,5.17 54.23,-69.71 79.72,-86.06 -1.33,54.7 -10.59,86.77 22.86,122.85 59.74,9.23 60.63,-83.2 91.44,-100.74 2.24,48.31 -0.99,44.56 23.16,75.72 36.59,5.46 46.1,-13.76 60.08,-38.65 11.44,-20.37 25.46,-47.55 41.03,-62.59 1.18,23.33 -11.36,119.97 31.62,127.46 19.13,3.33 24.55,-8.69 37.28,-16.67 2.38,-14.21 52.01,-105.48 60.54,-120.43 3.87,-6.78 7.69,-12.21 10.81,-18.8 7.64,-16.18 7.52,-8.58 0.14,-16.65 -12.38,-11.28 -19.31,9.82 -26.46,23.23 -15.44,28.96 -52.59,107.93 -67.47,116.07 -0.08,-32.25 4.75,-63.53 8.99,-93.66 6.13,-43.51 29.57,-87.58 -16.35,-86.75 -29.67,0.53 -28.98,14.51 -32.57,26.27 -6.26,20.52 -69.21,128.77 -82.19,135.09 -4.22,-55.11 19.99,-102.77 16.94,-153.32 -73.85,-15.69 -49.04,23.63 -66.19,55.7l-67.85 116.98c-1.21,-68.73 28.64,-160.31 13.24,-175.17 -16.11,-10.29 -32.92,-7.08 -47.73,4.47 -30.09,23.46 -58.35,-33.91 -102.21,64.39 -12.79,28.66 -27.12,51.89 -41.73,78.16 -9.91,17.82 -32.02,66.16 -50.3,55.96 -28.47,-42.83 67.67,-139.41 51.27,-185.99 -42.68,-14.88 -41.2,10.29 -76.12,8.98 -0.79,-26.82 10.69,-33.15 7.96,-63.06 -17.16,-5.96 -32.75,-4.95 -46.57,1.06l-0.01 0.01z"/>
  </g>
 </g>
</svg>
