<?xml version="1.0" encoding="UTF-8"?>
<!DOCTYPE svg PUBLIC "-//W3C//DTD SVG 1.1//EN" "http://www.w3.org/Graphics/SVG/1.1/DTD/svg11.dtd">
<!-- Creator: CorelDRAW -->
<svg xmlns="http://www.w3.org/2000/svg" xml:space="preserve" width="22.0459mm" height="15.705mm" version="1.1" style="shape-rendering:geometricPrecision; text-rendering:geometricPrecision; image-rendering:optimizeQuality; fill-rule:evenodd; clip-rule:evenodd"
viewBox="0 0 219.04 156.04"
 xmlns:xlink="http://www.w3.org/1999/xlink"
 xmlns:xodm="http://www.corel.com/coreldraw/odm/2003">
 <defs>
  <style type="text/css">
   <![CDATA[
    .fil0 {fill:black}
   ]]>
  </style>
 </defs>
 <g id="Camada_x0020_1">
  <metadata id="CorelCorpID_0Corel-Layer"/>
  <path class="fil0" d="M-0 91.41l9.28 -8.59 49.07 10.14 39.59 50.07 20.98 -1.16 6.49 -20.74 14.78 -2.12 6.49 -20.74 14.35 -1.92 6.45 -18.49 -17.57 -24.16 14.92 -8.87 16.41 -32.6 20.77 -12.22 12.34 4.18 4.7 10.55 -21.57 16.3 -11.26 34.77 1.87 28.92 -13.51 32.05 -37.09 12.05 -13.91 15.86 -29.8 1.36 -33.14 -40.29 -54.71 -9.86 -5.92 -14.47zm64.91 -1.37l3.29 -12.62 14.3 0.33 35.79 45.07 -5.04 13.4 -14.3 -0.33 -34.04 -45.85zm41.96 25.95l-10.5 8.21c3.75,5.93 8.02,7.52 12.81,4.78 3.31,-3.41 2.54,-7.74 -2.32,-12.99zm42.07 -44.74l-10.5 8.21c3.75,5.93 8.02,7.52 12.81,4.78 3.31,-3.41 2.54,-7.74 -2.32,-12.99zm-21.91 22.03l-10.5 8.21c3.75,5.93 8.02,7.52 12.81,4.78 3.31,-3.41 2.54,-7.74 -2.32,-12.99zm-39.07 -20.94l4.05 -14.45 15.29 1.38 31.11 40.45 -3.45 13.44 -17.48 -0.4 -29.52 -40.42zm25.07 -17.86l3.89 -13.63 15.33 -0.88 27.7 37.51 -4.33 13.83 -16.76 0.02 -25.84 -36.85z"/>
 </g>
</svg>
