<?xml version="1.0" encoding="UTF-8"?>
<!DOCTYPE svg PUBLIC "-//W3C//DTD SVG 1.1//EN" "http://www.w3.org/Graphics/SVG/1.1/DTD/svg11.dtd">
<!-- Creator: CorelDRAW -->
<svg xmlns="http://www.w3.org/2000/svg" xml:space="preserve" width="28.7542mm" height="11.3096mm" version="1.1" style="shape-rendering:geometricPrecision; text-rendering:geometricPrecision; image-rendering:optimizeQuality; fill-rule:evenodd; clip-rule:evenodd"
viewBox="0 0 690.76 271.69"
 xmlns:xlink="http://www.w3.org/1999/xlink"
 xmlns:xodm="http://www.corel.com/coreldraw/odm/2003">
 <defs>
  <style type="text/css">
   <![CDATA[
    .fil0 {fill:black}
   ]]>
  </style>
 </defs>
 <g id="Camada_x0020_1">
  <metadata id="CorelCorpID_0Corel-Layer"/>
  <path class="fil0" d="M395.27 215.87c-23.94,0 -42.95,-1.4 -63.15,-4.74 -11.7,-1.94 -39.15,-8.12 -44.3,-12.43 8.85,-7.4 56.14,-19.99 73.09,-23.51 62.69,-13.04 135.12,-16.55 195.53,1.33 -1.6,1.34 -4.12,2.95 -6.2,4.4l-23.21 11.35c-11.94,4.82 -31.74,11.16 -46.22,14.22 -3.7,0.78 -6.63,1.23 -10.43,2.03 -20.6,4.36 -52.24,7.36 -75.11,7.36zm-349.22 55.82c1.46,-1.7 2.6,-3.7 4,-5.63l13.65 -15.26c21.61,-20.01 44.34,-34.26 78.82,-48.22 50.48,-20.43 91.69,-27.1 145.85,-37.2l4.56 -1.03c-56.37,0 -112.1,13.34 -159.91,27.18 -15.14,4.39 -49.64,17.01 -61.71,23.45 -3.2,1.7 -4.57,2.06 -7.67,3.58 -9.43,4.64 -22.74,13.46 -29.38,19.35 -13.92,12.34 -1.32,28.88 11.78,33.78zm-28.14 -87.31c0,-19.67 72.23,-36.48 99.77,-40.07 -3.87,9.31 -25.04,34.4 -36.11,40.63 -12.55,7.05 -33,16.5 -53.91,9.73 -5.61,-1.82 -9.75,-5.68 -9.75,-10.29zm290.37 -27.91l-3.84 0c0.14,-3.49 3.36,-5.15 10.21,-7.88l31.15 -10.48c3.9,-1.08 14.92,-5.83 14.92,-0.24 0,5.04 -14.43,9.92 -20.45,12.17 -7.23,2.7 -20.14,6.43 -31.99,6.43zm-76.75 -42.94c2.03,-4.88 13.46,-17.11 17.95,-21.45 3.61,-3.49 21.38,-17.54 28.07,-13.79 2.32,1.3 -5.44,8.95 -6.8,10.67 -3.53,4.44 -5.17,6.53 -9.53,10.41 -5.31,4.72 -19.68,12.86 -29.69,14.17zm-45.59 -18.35c6.54,-11.19 12.1,-22.46 18.56,-33.27 6.82,-11.4 12.98,-21.96 20.79,-32.74 4.97,-6.85 12.71,-15.4 24.93,-18.97 6.44,-1.88 13.28,0.04 13.28,-3.3 0,-3.03 -11.02,-3.48 -15.62,-4.14 -12.63,-1.81 -24.83,-4.72 -36.82,-0.87 -5.12,1.64 -6.9,3.73 -14.06,4.3 -50.66,4.06 -167.59,21.21 -167.59,58.67 0,13.11 8.92,21.07 22.12,29.85l26.09 14.1c3.76,1.45 9.35,1.55 9.35,-1.72 0,-2.4 -4.68,-3.73 -7.38,-5.18 -22.1,-11.83 -20.19,-30.54 1.28,-42.61 4.53,-2.55 8.23,-4.62 12.79,-7.16 13.06,-7.24 30.12,-12.39 47.56,-16.33 7.5,-1.69 30.64,-5.91 39.13,-6.02 -10.85,12.66 -42.62,79.34 -53.24,97.6 -1.48,2.53 -1.97,4.15 -3.43,6.67 -1.6,2.76 -1.73,3.12 -6.7,4.12 -3.88,0.78 -7.63,1.15 -10.98,1.73l-51.93 10.31c-23.44,5.6 -54.08,15.42 -54.08,33.44 0,26.16 59.33,35.04 99.47,14.14 12.13,-6.32 21.07,-12.62 29.67,-20.62 7.75,-7.21 16.06,-16.52 21.33,-25.28 9.03,-15.01 6.18,-14.15 20.49,-16.45 3.49,-0.56 10.83,-2.67 10.92,-0.04 0.25,6.93 -0.73,14.01 4.83,20.36 8.83,10.08 16.69,11.42 35.86,11.42 24.03,0 49.33,-11.14 64.3,-19.85 8.13,-4.73 15.19,-10.15 22.14,-15.52l18.45 -16.88c4.2,1.72 7.9,5.54 11.34,7.97 3.41,2.4 9.03,4.91 10.4,7.78 -11.87,1.55 -55.53,16.61 -61.03,23.89 -6.2,8.21 16.47,8.31 25.22,8.31 26.81,0 80.59,-13.74 80.59,-30.77l-1.28 -7.87c6.62,-0.86 8.79,-1.85 14.49,-3.34 3.74,-0.98 11.05,-2.92 14.93,-3.1 -8.12,9.47 3.86,29.34 26.86,29.34 17.87,0 32.42,-8.35 40.87,-15.78 2.93,-2.58 4.71,-5.51 9.02,-7.12 0,7.84 9.5,17.17 23.03,17.17 26.26,0 53.15,-24.96 65.48,-36.36 2.3,-2.12 5.15,-4.16 6.15,-6.58 4.34,0.65 4.95,2.32 7.43,4.43 16.58,14.08 14.04,27.62 0.69,42.33 -5.64,6.21 -11.97,10.16 -18.35,15.49 -8.62,-0.4 -17.79,-2.66 -26.35,-3.87 -69.74,-9.81 -155.65,-10.1 -219.28,7.44 -24.71,6.81 -65.93,21.41 -80.57,33.64 4.24,10.19 37.98,22.71 53.69,27.21 70.39,20.2 185.12,8.53 245.26,-20.27l26.7 -15.12c2.31,-1.63 5.84,-4.45 8.22,-5.42 8.57,1.12 16.18,4.32 23.3,7 7.29,2.75 12.64,5.38 19.31,8.52 11.19,5.26 24.68,14.8 35.42,18.83 2.85,-5.97 42.89,-25.8 -32.4,-46.99 -7.23,-2.04 -14.76,-3.31 -21.32,-5.25l21.33 -20.98c47.02,-52.65 -56.79,-61.32 -0.86,-98.52 3.81,-2.53 9.72,-5.32 15.5,-6.43 6.92,-1.33 13.92,1.22 13.92,5.71 0,5.95 -12.74,12.34 -22.18,14.07 -3.93,0.72 -8.52,0.9 -8.52,3.82 0,6.86 7.73,15.75 15.35,18.61 21.44,-2.79 40.93,-23.48 40.93,-35.07 0,-26.52 -74.54,-18.08 -100.83,3.71 -31.04,25.73 -2.78,37.03 -2.78,41.38 0,5.16 -44.84,39.36 -56.28,39.36 -13.5,0 2.05,-28.09 3.36,-30.33 4.15,-7.11 7.28,-12.5 11.5,-19.33 4.36,-7.06 21.22,-31.49 33.75,-33.36 -0.64,-4.32 -7.17,-4.42 -14.56,-5.45 -24.31,-3.38 -29.9,-3.22 -37.85,6.9 -10.28,13.07 -17.22,26.04 -22.32,40.47 -3.55,10.05 -5.8,18.15 -13.95,27.26 -27.2,30.44 -55.68,25.36 -21.33,-23.39 2.51,-3.56 4.51,-6.58 7.31,-10.22l7.78 -9.24c4.74,-4.53 11.8,-14.26 20.73,-15.6 -0.62,-4.18 -6.36,-4.31 -13.54,-5.31 -37.39,-5.18 -37.98,-1.05 -47.07,14.34l-16.97 32.73c-1.88,3.59 -1.53,7.99 -7.15,9.6l-34.24 8.04c-1.21,-2.54 -5.6,-5.04 -8.46,-7.44 -15.4,-12.92 -30.69,-29.61 -8.51,-43.57 5.44,-3.42 33.92,-13.66 33.23,-2.06 -0.5,8.36 -15.68,13.39 -29.05,15.13 -3.56,8.56 6.99,21.47 14.07,21.47 22.54,0 71.68,-47.92 12.45,-51.38 -17.65,-1.03 -45.86,5.25 -59.79,11.3 -13.83,6.01 -26.85,19.39 -26.85,30.06 0,16.22 10.87,13.22 4.78,19.79l-30.67 25.12c-14.81,8.96 -68.77,33.45 -68.77,5.9 0,-4.09 1.63,-8.07 3.09,-11.87 2.32,-6.05 0.71,-5.78 10.23,-7.87 95.69,-21.08 78.75,-62.89 34.17,-62.27 -48.26,0.67 -70.52,36.45 -79.47,58.4 -1.8,4.42 0.45,4.95 -6.46,6.41 -3.44,0.73 -10.18,2 -14.01,2.18l19.65 -33.37z"/>
 </g>
</svg>
