<?xml version="1.0" encoding="UTF-8"?>
<!DOCTYPE svg PUBLIC "-//W3C//DTD SVG 1.1//EN" "http://www.w3.org/Graphics/SVG/1.1/DTD/svg11.dtd">
<!-- Creator: CorelDRAW -->
<svg xmlns="http://www.w3.org/2000/svg" xml:space="preserve" width="149.999mm" height="20.0006mm" version="1.1" style="shape-rendering:geometricPrecision; text-rendering:geometricPrecision; image-rendering:optimizeQuality; fill-rule:evenodd; clip-rule:evenodd"
viewBox="0 0 2690.63 358.76"
 xmlns:xlink="http://www.w3.org/1999/xlink"
 xmlns:xodm="http://www.corel.com/coreldraw/odm/2003">
 <defs>
  <style type="text/css">
   <![CDATA[
    .fil0 {fill:black;fill-rule:nonzero}
   ]]>
  </style>
 </defs>
 <g id="Camada_x0020_1">
  <metadata id="CorelCorpID_0Corel-Layer"/>
  <g id="_2936629186320">
   <path class="fil0" d="M222.2 266.71l-179.22 0 -42.98 83.43c20.83,0 181.93,-0.6 187.75,0.33 7.75,1.25 58.11,-1.45 68.65,-2.37 82.84,-7.33 133.91,-31.35 175.87,-74.27 6.07,-6.3 40.36,-42.45 40.73,-46.8 0.37,-4.38 -9.34,-3.34 -14.07,-0.91 -3.11,1.61 -7.16,5.23 -10.62,7.36 -14.92,9.21 -37.22,16.53 -56.94,21.31l-0.88 0.21 117.3 -254.98 -164.65 0 -120.94 266.71 -0 -0.01zm1897.24 84.37l199.63 0c58.44,0 132.18,-1.22 174.13,-14.07 27.69,-8.44 49.55,-20.62 66.28,-37.03 16.04,-15.94 29.15,-33.28 38.62,-52.49 8.03,-15 11.66,-29.53 10.92,-43.58 -0.71,-13.59 -5.82,-24.85 -15.29,-32.81 -11.66,-10.78 -29.15,-18.28 -52.47,-22.5 -36.1,-6.53 -78.38,-6.57 -126.03,-6.57 -10.28,0 -24.36,-0.33 -32.78,-1.41 -3.66,-0.47 -8.03,-0.93 -11.66,-2.34 -9.47,-2.82 -15.3,-7.03 -18.21,-12.19 -3.66,-5.16 -2.2,-11.25 2.9,-19.21 5.11,-7.03 13.84,-12.19 26.23,-15.46 12.38,-3.28 26.96,-5.16 43.73,-6.57l233.86 -0.47 31.33 -83.91 -266.67 0c-42.26,-0.47 -77.96,2.34 -106.37,7.5 -57.09,10.83 -98.3,32.56 -129.67,62.81 -16.04,15.46 -32.07,32.81 -48.1,52.49 -0.74,1.88 0,3.28 2.92,3.75 2.92,0.93 5.82,0.93 8,0 0.74,0 2.18,-0.47 3.66,-1.41 7.29,-6.09 16.76,-11.25 27.69,-15.94 10.92,-4.22 22.59,-8.44 36.44,-11.71 -13.65,23.83 -9.08,50.45 2.9,73.59 3.66,7.03 8.03,13.12 11.66,18.75 3.66,5.16 9.47,9.84 18.95,13.12 34.95,12.11 76.64,14.59 117.29,15.94 13.86,0.47 27.7,0.93 40.07,0.93 12.4,0 23.31,0 32.07,-0.47 10.18,3.28 16.76,6.57 20.4,9.84 2.92,3.28 2.18,8.91 -1.45,16.87 -7.36,14.54 -30.57,18.54 -53.92,20.62 -13.12,1.41 -26.96,1.88 -41.55,1.88l-214.2 0 -31.32 82.02 0 0.01zm-440.19 -350.61c-14.08,29.53 -28.17,59.06 -42.26,88.59 -27.09,56.51 -60.06,116.34 -82.62,173.09 -27.71,69.73 61.48,91.32 159.26,93.92 126.56,1.97 292.09,1.33 337.86,-86.59 21.37,-41.06 38.89,-84.83 58.59,-126.52 16.28,-34.48 32.56,-68.96 48.85,-103.44 6.22,-13.17 12.44,-26.34 18.66,-39.52l-163.92 0c-1.46,0 -2.18,0 -2.92,0.47 -35.78,76.05 -68.26,153.39 -107.34,228.77 -19.2,37.04 -37.74,52.05 -104.47,56.1 -49.68,1.34 -94.06,-7.37 -80.77,-43.03 6.11,-16.4 18.25,-36.12 26.32,-52.85 30.31,-62.81 59.5,-126.06 89.22,-189l-154.45 0 -0 0zm-665.05 350.61c80.8,0 167.55,1.28 247.66,-0.43 132.5,-3.36 190.96,-23.23 230.7,-102.32 39.61,-81.34 -20.77,-105.63 -150.01,-106.07 -16.17,-0.05 -31.94,-0.03 -48.12,-0.51 -25.15,-1.03 -48.28,-5.07 -48.98,-23.13 2.42,-38.02 98,-34.66 142.32,-34.4 55.64,0.33 110.66,0.28 166.29,0.17l31.33 -83.91c-92.18,0 -184.63,-0.3 -276.77,-0.04 -100.26,0.29 -171.11,18.07 -225.94,70.35 -16.9,16.33 -32.83,33.68 -46.84,50.97 -2.69,3.3 -1.51,5.51 5.01,5.87 6.96,0.38 9.82,-3.38 13.75,-6.11 6.57,-4.54 14.15,-8.32 22.24,-11.83 10.93,-4.22 22.58,-8.44 36.43,-11.71 -13.78,27 -9.21,61.71 10.86,87.17 16.86,21.41 43.24,26.08 79.37,30.33 20.02,2.32 40.27,3.2 60.6,3.9 7.55,0.25 72.3,0.67 72.6,0.72 12.28,2.07 23.33,10.71 21.37,19.36 -8.26,36.43 -108.59,29.9 -152.18,29.61 -53.45,0 -106.91,0 -160.36,0l-31.33 82.02 0 -0.02zm-67.88 -213.74l-204 0.47c19.69,-19.87 22.03,-52.59 71.25,-53.51 18.41,-0.34 39.31,0.08 58.03,0.08 55.99,0 111.98,0 167.97,0l39.35 -83.91c-104.41,0 -208.9,-0.17 -313.29,0 -93.2,0.29 -168.46,22.52 -226.42,66.3 -21.5,16.24 -41.97,35.14 -56.8,53.88 -2.55,3.24 -3.78,6.29 4.33,6.47 6.75,0.15 12.87,-5.16 17.66,-7.88 21.09,-11.86 40,-14.41 67.11,-18.36 5.88,-0.86 12.59,-2.13 18.38,-3.28 -4.75,7.66 -10.03,15.19 -14.75,22.92 -22.87,37.49 -41.99,79 -51.81,118.5 -7.62,30.89 -1.05,71.02 34.54,95.29 28.82,19.65 57.61,20.03 98.21,22.08 90.88,4.61 180.52,2.45 270.56,-6.25l38.61 -86.71c-40.07,5.16 -81.6,7.96 -123.12,8.44 -26.58,0.55 -110.71,0.11 -131.4,-6.99 -19.58,-6.71 -19.53,-19.23 -14.23,-31.65l12.3 -28.85 205.45 0 32.06 -67.03 0 -0.03z"/>
  </g>
 </g>
</svg>
