<?xml version="1.0" encoding="UTF-8"?>
<!DOCTYPE svg PUBLIC "-//W3C//DTD SVG 1.1//EN" "http://www.w3.org/Graphics/SVG/1.1/DTD/svg11.dtd">
<!-- Creator: CorelDRAW -->
<svg xmlns="http://www.w3.org/2000/svg" xml:space="preserve" width="18.7495mm" height="23.3703mm" version="1.1" style="shape-rendering:geometricPrecision; text-rendering:geometricPrecision; image-rendering:optimizeQuality; fill-rule:evenodd; clip-rule:evenodd"
viewBox="0 0 43 53.59"
 xmlns:xlink="http://www.w3.org/1999/xlink"
 xmlns:xodm="http://www.corel.com/coreldraw/odm/2003">
 <defs>
  <style type="text/css">
   <![CDATA[
    .fil0 {fill:black}
   ]]>
  </style>
 </defs>
 <g id="Camada_x0020_1">
  <metadata id="CorelCorpID_0Corel-Layer"/>
  <path class="fil0" d="M22.29 0.73l0 0.24c0,0.37 0.21,0.41 0.49,0.49 0.05,-0.55 0.37,-0.97 0.97,-0.97l0.24 0c0.4,0 0.09,0.11 0.61,0.24l0 0.24c-0.42,0.03 -0.85,0.18 -0.85,0.61l0 0.49c0,0.49 0.41,0.96 0.61,1.34 -0.58,-0.05 -1.25,-0.73 -1.95,-0.73l-0.24 0c-0.72,0 -1.46,0.14 -1.46,0.85 0,0.52 0.64,1.46 1.1,1.46l0.24 0c0.42,0 0.47,-0.09 0.85,-0.12 -0.13,-0.24 -0.24,-0.36 -0.24,-0.73l0 -0.12c0,-0.33 0.06,-0.34 0.12,-0.61l0.49 0c1.69,0 1.62,1.71 3.29,1.71 0.62,0 0.86,-0.34 0.97,-0.85l-1.22 0c-1.01,0 0.3,-1.19 0.85,-1.34l0 -0.49c0,-0.96 -1.66,-2.44 -2.68,-2.44l-1.1 0c-0.42,0 -1.1,0.32 -1.1,0.73zm-15.03 2.05c-0.46,-0.52 -0.93,-0.82 -1.41,-0.83l0 0.37c0,1.11 0.49,0.79 0.58,1.5 -0.59,-0.19 -0.37,-0.53 -1.07,-0.53 -0.38,0 -0.73,0.39 -0.73,0.85 0,0.28 0.33,0.61 0.61,0.61 0.49,0 0.63,-0.11 0.73,-0.45l0.73 -0.04c0.43,0 0.79,0.46 0.97,0.73 -1.52,0 -1.91,-0 -2.71,0.82 -0.45,0.46 -1.19,1.63 -1.19,2.47l0 0.37c0,0.94 2.17,1.34 3.29,1.34l0.85 0c0.88,0 1.95,-0.42 1.95,-1.22 0,-1.43 -1.4,-2.77 -1.71,-3.9 2.32,0.52 9.85,2.09 13.03,2.44 -0.15,0.22 -0.24,0.21 -0.24,0.49l0.07 0.41 0.66 0.81c-0.32,-0.21 -0.74,-0.61 -1.22,-0.61l-0.73 0c-0.58,0 -1.46,1.88 -1.46,2.44 0,0.44 0.47,0.66 0.48,1.44l-0.36 0.14 0.61 0c0.35,0.53 1.34,1.93 1.34,2.68l0 0.49c0,0.33 -0.06,0.34 -0.12,0.61l-0.37 0c-0.87,0 -2.07,0.42 -2.07,1.34l0 1.1c-0.47,-0.13 -0.42,-0.37 -0.61,-0.37 -0.47,0 -0.93,0.57 -1.44,0.64 0.09,0.14 0.51,0.46 0.71,0.46 0.53,0 0.19,-0.42 0.97,-0.49 0.12,0.41 -0.23,0.52 -0.23,0.79 0,0.34 0.21,0.24 0.48,0.31 0.62,0.64 -2.69,-0.16 -3.21,1.82 0,0.46 0.15,0.51 0.56,0.79 0.08,0.1 0.17,0.07 0.26,0.16 -0.16,-0.34 -0.03,-1.17 0.69,-1.68 -0.05,-0.23 -0.11,-0.35 0.19,-0.35 0.9,0 1.95,1.05 2.32,1.05l0.12 0c2.48,0 1.12,-5.81 6.08,-2.45 -0.14,-0.45 0.16,-1.38 0.45,-1.82l-0.64 -0.56 1.47 0.35c-0.08,-0.33 -0.12,-0.23 -0.12,-0.49 0,-0.29 1.1,-0.46 1.1,-1.46 0,-0.6 -0.66,-0.42 -0.97,-0.85 1.03,-0.02 0.79,-0.65 1.1,-0.73 0.45,-0.15 0.72,0.23 1.1,0.41 0.29,0.18 0.41,-0.13 0.62,-0.2 0.28,0.09 0.54,0.34 0.84,0.27 0.37,0.01 0.49,-0.37 0.49,-0.73 0,-0.85 -1.45,-2.03 -2.07,-2.19 0.12,-0.46 0.61,-0.5 0.61,-0.97l0 -0.12c0,-0.34 -0.28,-0.47 -0.49,-0.61 0,-0.27 0.08,-0.85 -0.37,-0.85 -0.77,0 -0.09,0.89 0,1.22l-0.85 0c-0.28,0 -0.37,0.08 -0.37,0.37 0,0.39 0.73,0.86 0.73,1.58 0,0.37 -0.12,0.49 -0.24,0.73 -1.1,-0.74 -4.84,-5.06 -4.92,-6.72l-0.68 1.26 -13.76 -3.06 0 -0.37c0.7,-0.52 0.69,-2.01 0.01,-2.19 -0.31,0.27 -0.49,0.64 -0.42,1.2zm10.04 12.69l-0.12 0.6c0.55,-0.13 0.6,-0.18 0.72,-0.76l-0.6 0.15zm8.77 17.05c-0.04,-0.49 -0.31,-0.86 -0.73,-0.97 0.12,0.52 0.34,0.72 0.73,0.97zm-14.25 3.65c0,0.33 0.06,0.34 0.09,0.57l-0.3 0.27 0.39 1.21 -0.14 0.12 -0.65 -0.58c-0.06,0.77 -0.85,1.17 -0.85,1.83 0,0.35 1.02,1.1 1.1,1.1 0.33,0 0.34,-0.06 0.61,-0.12 0.3,1.29 1.3,1.34 2.79,1.32l0.67 -0.25 -0.3 -0.58c0.23,-0.06 0.61,-0.24 0.61,-0.49 0,-0.51 -0.67,-1.34 -0.97,-1.34 -0.65,0 -0.58,0.37 -0.97,0.37 -0.48,0 -0.24,-0.31 -0.73,-0.49 0.6,-2.56 0.5,-2.15 1.78,-4.07 0.41,-0.61 2.33,-3.03 2.36,-3.48 -0.82,0.22 0.06,0.94 -1.33,0.98l-0.25 0.51 -1.09 -0.15c-0.98,-0.15 -1.34,1.89 -1.71,2.31 -0.06,-0.27 -0.12,-0.28 -0.12,-0.61l0 -0.97c0,-0.94 2.65,-2.96 2.8,-4.75 -0.47,0.54 -0.54,0.85 -1.19,1.49 -0.41,0.41 -0.95,1.04 -1.27,1.53 -0.82,1.24 -0.31,0.77 -0.63,2.17 -0.14,0.62 -0.69,1.38 -0.69,2.11zm16.08 -1.46l0 0.85c0,0.78 0.34,0.97 0.49,1.58 -0.75,-0.2 -1.39,-2.4 -1.95,-3.05 0,2.58 2.41,4.12 2.44,5.12l0.37 0c0.48,0 0.01,-0.18 0.79,-0.23l-0.24 1.28 1.26 1.76 0.11 0.07 1.25 -1.42c1.17,0 2.56,-1.15 2.56,-1.95 0,-0.48 -0.4,-0.97 -0.97,-0.97l-0.24 0c-0.66,0 -1.08,0.56 -1.1,1.19l-0.72 0.15c-0.25,-0.17 -0.32,-0.37 -0.61,-0.37l-0.12 0c-0.3,0 -0.46,0.3 -0.73,0.49 0.06,-0.71 0.37,-0.59 0.37,-0.97l0 -0.24c0,-0.28 -0.08,-0.37 -0.37,-0.37 -0.49,0 -0.61,0.25 -1.1,0.37 0.07,-0.25 0.35,-0.73 0.61,-0.73 0.33,0 0.34,0.06 0.61,0.12 -0.02,-1.01 -0.62,-1.28 -0.97,-1.95 -0.33,-0.62 -0.11,-2.31 -0.73,-2.31 -0.63,0 -0.97,0.93 -0.97,1.58zm-5.36 -28.99l-0.01 0.71 0.49 -0.1 0 0.61c0,0.68 0.47,0.81 0.61,1.34l0.23 -0 0.14 -0.36c0.17,0.73 0.38,1.51 1.1,1.71l0.04 -0.77 0.57 0.53 0.01 -0.88 0.5 0.14 -0.14 -0.99 0.48 0.14 0 -0.37c0,-0.82 -0.27,-1.49 -0.76,-1.82l0.15 0.6c-0.5,-0.04 -0.27,-0.12 -0.73,-0.12 -0.53,0 -0.49,0.24 -0.85,0.24 -0.38,0 -0.55,-1.1 -0.85,-1.1 -0.29,0 -0.78,0.36 -0.97,0.49zm2.27 1.06c0.19,0.2 0.34,0.01 0.48,-0.23 0.3,0.28 0.49,0.34 0.51,0.08 -0,-0.43 -1.13,-0.3 -0.99,0.14zm6.74 41.57l0.85 0 -0 1.37 -0.85 -0.15 0 -1.22zm-0.77 4.63l0.65 -0.12 0.09 -2.58 0.51 2.58 1.04 -0.02 -0.91 -2.41 0.73 0 0 -2.56 -1.98 -0 -0.13 5.12zm-4.96 -0.85l-0.37 0 0.01 -0.7 0.85 -0.15 0.12 0.73c-0.27,0.06 -0.28,0.12 -0.61,0.12zm0.41 -1.22l-1.28 0.01 0.14 1.95c0.34,-0.03 1.31,-0.26 1.72,-0.35 0.73,-0.15 0.45,-0.61 0.32,-1.45 -0.15,-0.94 -0.62,-2.44 -0.7,-3.44l-0.66 0.01 0.45 3.28zm9.24 1.1l-0.03 0.85 2.07 0 0 -0.61 -1.46 0 0 -4.51 -0.76 0 0.18 4.26zm-15.74 -3.53l0.61 0c0.28,0 0.37,0.08 0.37,0.37l0 1.34 -0.97 0 0 -1.71zm-0.73 4.14l0.61 -0.12 0 -1.69 1.34 -0.14 0 1.95 0.76 -0 -0.15 -4.51 0 -0.49 -2.56 0 0 4.99zm-5.97 0.24c0.15,-0.08 0.13,-0.12 0.37,-0.12l0.37 0 0 -4.75 -0.37 0c-0.65,0 -0.37,4.04 -0.37,4.87zm27.77 -4.39l1.22 0c0.6,0 0.49,2.92 0.49,3.65l0 0.37 -1.71 0 0 -4.02zm-0.61 0.49l0.12 4.02 2.68 0 0 -5.24 -2.8 0 0 1.22zm-18.03 3.78l0.64 -0 -0.15 -3.17c0.43,0.5 0.85,2.92 1.34,2.92 0.33,0 0.34,-0.06 0.64,-0.12l-0.15 -4.38 -0.73 0 -0.08 2.59 -1.02 -2.83 -0.49 0 0 4.99zm-17.42 -4.14l1.22 0 -0.15 1.09 -1.06 0 0 -1.1zm-0.58 2.8l-0.03 1.1 0.49 0 0 -1.93 1.09 -0.14 0.37 0 -0.03 1.1 0.15 1.09 0.73 0 0.03 -0.73 -0.15 -3.77 -2.83 0 0.18 3.29zm25.43 -3.04l0 1.34 -1.09 -0.15c-0.04,-0.35 -0.13,-0.41 -0.13,-0.83l0 -0.37 1.22 0zm-1.78 2.68l-0.04 1.59 0.61 0 0 -2.31 1.46 0 0 2.31 0.61 0 0 -4.87 -2.95 0 0.32 3.28zm-25.26 -2.43l0.24 2.8 0 0.61 -2.19 0c0.03,-0.38 0.12,-0.43 0.12,-0.85l0 -0.49 -0.59 0 -0.14 1.58 0 0.51 3.65 -0.26 0.01 -0.61 -0.38 -4.02 -0.73 0 0 0.73zm5.51 0.12l0.95 -0 0.15 2.8 -0.03 0.37 -1.36 -0 0.29 -3.16zm-0.64 -0.58l0.03 1.43 -0.15 3.02 2.75 0.14 -0.56 -4.76 -2.07 0.17zm2.68 0.46c0.27,0.06 0.28,0.12 0.61,0.12l0.97 0c-0.08,0.91 -1.22,2.62 -1.22,3.41l0 0.61 2.19 0c-0.03,-0.4 -0.07,-0.85 -0.49,-0.85l-0.85 0c0.17,-0.72 1.22,-2.39 1.22,-2.92l0 -0.61c0,-0.28 -0.08,-0.37 -0.37,-0.37l-2.07 0 0 0.61zm4.63 2.44l0 -2.92 -0.34 0 -0.14 4.75c0.71,-0.02 0.99,-1 1.2,-1.48 0.21,-0.48 0.68,-1.46 1.01,-1.81l-0.14 3.17 0.73 0 0 -4.75 -0.61 0c-0.47,0 -1.24,2.51 -1.71,3.05zm18.77 1.95l0.75 0 0.21 -4.87 -0.47 0 -0.5 4.87zm4.41 0.61l0.46 0 -0.25 -3.17 0.61 0c0.5,0 0.81,2.18 0.85,2.68l0.49 -0 -0.74 -5.48 -0.49 0 0 2.19 -0.85 0 0.03 -0.86 -0.15 -1.34 -0.35 -0 0.39 5.97z"/>
 </g>
</svg>
