<?xml version="1.0" encoding="UTF-8"?>
<!DOCTYPE svg PUBLIC "-//W3C//DTD SVG 1.1//EN" "http://www.w3.org/Graphics/SVG/1.1/DTD/svg11.dtd">
<!-- Creator: CorelDRAW -->
<svg xmlns="http://www.w3.org/2000/svg" xml:space="preserve" width="29.6241mm" height="20.4745mm" version="1.1" style="shape-rendering:geometricPrecision; text-rendering:geometricPrecision; image-rendering:optimizeQuality; fill-rule:evenodd; clip-rule:evenodd"
viewBox="0 0 99.2 68.56"
 xmlns:xlink="http://www.w3.org/1999/xlink"
 xmlns:xodm="http://www.corel.com/coreldraw/odm/2003">
 <defs>
  <style type="text/css">
   <![CDATA[
    .fil0 {fill:black}
   ]]>
  </style>
 </defs>
 <g id="Camada_x0020_1">
  <metadata id="CorelCorpID_0Corel-Layer"/>
  <path class="fil0" d="M56.72 58.42l-0.61 -1.24c-0.08,-0.91 -0.94,-1.18 0.44,-1.17 0.71,0.01 1.43,0 2.15,0 0.76,0 1.39,0.01 1.97,-0.18 0.39,-0.13 1.22,-0.5 1.64,-0.51 0.12,1.39 -0.52,2.17 -0.52,3.52l0 1.12c0,1.01 0.76,2.23 1.35,2.68 0.02,0.02 3.11,0.84 3.2,0.84 0.85,0 1.85,-1.03 2.41,-1.03 0.83,0 1.89,1.26 1.89,2.06l0 0.34c0,0.84 -0.78,1.58 -1.32,1.94 -0.58,0.39 -1.83,0.46 -2.8,0.46 -2.69,0 -3.33,1.12 -5.33,1.12l-0.09 0 -0.94 -0.1c-0.47,-0.87 -0.61,-1.2 -0.6,-2.57 0,-1.11 -0.3,-1.72 -0.59,-2.5 -0.57,-1.54 -1.31,-2.87 -1.99,-4.29l-0.26 -0.52zm-12.28 -1.89c0,0.66 -3.69,3.31 -3.69,5.16l0 0.43c0,0.38 1.93,1.68 2.15,2.49l1.63 -0.2 0.78 0.03c0.77,0 1.29,0.7 1.29,1.37l0 1.2c0,1.1 -0.94,1.55 -2.06,1.55 -2.91,0 -4.13,0.14 -5.41,-1.63 -0.39,-0.54 -1.29,-1.25 -1.93,-1.59 -0.61,-0.32 -2.02,-0.66 -2.02,-1.42l0 -0.09c0,-0.63 0.79,-1.86 1.2,-2.15 0.65,-0.46 0.8,-1.47 1.01,-2.34 0.24,-0.99 0.38,-1.7 0.55,-2.8 0.08,-0.54 0.21,-2.51 0.75,-2.51l0.17 0c0.17,0 1.93,1.39 2.35,1.6 1.29,0.68 1.82,0.3 3.24,0.63l0 0.26zm-4.81 -48.28l-1.03 1.03 0.01 0.22 3.59 1.58 2.41 0.95 2.23 0.95 0.43 0.17c0.25,-0.37 1.02,-1.46 1.55,-1.46l0.26 0c0.3,0 0.33,0.06 0.58,0.1l-0.49 -1.21c-0.15,-0.22 -0.26,-0.5 -0.26,-0.86l0 -0.26c0,-0.2 0.06,-0.26 0.26,-0.26 0.33,0 0.65,0.2 0.86,0.34l2.66 2.15c-0.98,1.46 -0.95,3.77 -1.32,5.89 -0.15,0.86 -0.13,2.47 -0.23,3.38 -0.05,0.48 -0.42,2.84 -0.59,3.1 0,1.39 -0.6,2.46 -0.6,4.12l0 0.34c0,3.52 1.98,5.99 1.98,9.36l0 0.43c0,0.4 -0.15,1.55 -0.52,1.55 -1.48,0 -2.42,-0.98 -3.26,-1.55l-0.09 -1.03c-0.06,-0.1 -0.2,-0.34 -0.34,-0.34 -1.62,0 -3.08,2.58 -4.55,2.58l-0.17 0c-0.35,0 -0.52,-0.77 -1.55,-0.77l-0.69 -0 -2.49 0c0.02,-0.93 3.35,-3.06 4.16,-3.66 0.78,-0.58 1.52,-1.1 2.01,-1.94 0.21,-0.36 0.53,-2.74 0.53,-3.42l0 -0.17c0,-1.85 -0.43,-3.09 -0.6,-4.64 -0.15,-1.38 -0.77,-2.96 -0.77,-4.55 0,-1.37 0.5,-2.81 0.97,-3.75 0.31,-0.62 1.57,-2.47 2.03,-2.78 -0.12,-0.46 -1.96,-0.72 -2.41,-1.03l-2.15 -0.77 -1.26 -0.36 -2.72 -0.76 -0.66 5.23 0.09 0.01c-0.12,0.93 0.5,3.02 0.86,3.52 0.56,0.79 1.55,1.44 1.55,2.83l0 0.26c0,0.51 -0.17,0.96 -0.34,1.29 -0.48,0.93 -0.26,0.21 -0.26,1.29 0,2.4 -2.5,3.61 -4.9,3.61l-0.95 0c-1.99,0 -3.52,-1.5 -3.52,-3.44l0 -1.2c0,-0.88 0.19,-1.6 0.34,-2.33 0.23,-1.15 0.18,-1.11 0.18,-2.31l0 -0.17c0,-0.69 0.63,-1.03 1.37,-1.03 0.51,-2.18 1.08,-2.41 2.38,-3.72 0.5,-0.5 1.65,-3.47 1.65,-4.53 0,-0.38 -8.59,-2.45 -8.59,-4.21l0 -0.17c0,-0.33 -0.03,-0.03 0.09,-0.26 0.47,0.13 0.36,0.52 0.94,0.52 0.26,0 0.52,-0.08 0.52,-0.34 0,-0.13 -0.19,-0.38 -0.26,-0.52 -0.19,-0.13 -1.04,-1.13 -1.27,-1.4 -0.46,-0.54 -0.5,-1.44 0.15,-1.78 0.63,0.33 1.54,1.84 1.98,2.49 0.44,0.3 0.97,0.77 1.46,1.12 0.56,0.4 1.03,0.6 1.63,0.95 0.65,0.38 2.81,1.55 3.53,1.71 -0.15,-0.22 -0.52,-0.78 -0.52,-1.12l0 -0.09c0,-0.21 0.39,-0.6 0.6,-0.6l0.09 0c0.71,0 0.93,2.06 1.2,2.06 0.38,0 1.17,-1.39 1.2,-1.8l0.69 -0.09 0.95 -0.09c0.1,0.16 0.17,0.15 0.17,0.34l0 0.26c0,0.28 -0.55,0.95 -0.77,1.03zm17.09 9.45c0.03,0.37 0.7,2.32 0.87,2.82 0.33,1 0.82,1.71 1.11,2.5 0.58,-0.16 1.55,-3.12 1.55,-4.04l0.25 -0.1 0.01 -0.33c0,-0.47 0.17,-0.57 0.26,-0.95l-2.07 -0.65 -1.11 -0.29 -0.26 0.6 -0.6 0.09 0 0.34zm4.81 -0.6c0.25,0 0.23,-0.6 0.6,-0.6l0.6 0c0.3,0 1.28,0.52 1.56,0.67 0.66,0.35 0.92,0.43 1.12,1.17l2.35 0.81 1.11 0.53 -0.06 0.18 -3.61 -0.82 -1.62 1.77 0.45 0.5c-0.83,1.57 -1.51,3.12 -2.41,4.64 -0.53,0.89 -1.93,4.13 -3,4.13l-0.6 0c-0.75,0 -1.25,-1.14 -1.8,-1.29 -0.27,1 -0.95,1.68 -0.95,3.26l0 1.46c0,0.55 0.04,1.17 0.13,1.67 0.08,0.4 0.38,1.22 0.38,1.42l0 0.26c0.22,0.08 0.86,1.39 0.86,1.63l0 0.69c-0.38,-0.1 -0.86,-0.34 -1.42,-0.47 -0.83,-0.19 -0.74,-0.26 -1.07,-0.91 -0.18,-0.36 -0.57,-0.83 -0.88,-1.09 -0.18,-0.15 -1.18,-0.71 -1.18,-0.8 0,-0.07 0.67,-1.89 0.75,-2.43 0.13,-0.84 0.28,-2 0.28,-2.9 -0.01,-2.11 0.26,-4.16 0.26,-6.19 -0,-2.11 0.43,-3.87 0.6,-5.76 0.08,-0.86 0.22,-1.94 0.37,-2.81 0.14,-0.81 0.61,-1.98 0.67,-2.6 0.91,0.21 2.15,2.55 2.47,2.68 0.31,0.13 3.82,1.19 4.05,1.19zm2.79 -6.35l1.09 -0.17 0.05 0.21c-1.47,0.26 -5.53,0.97 -7.19,1.41l-0.09 1.46c0,0.4 -0.03,1.29 -0.34,1.29 -0.26,0 -1.08,-0.41 -1.17,-0.81 -0.11,-0.44 -0.28,-1.25 -0.29,-1.69 -0.02,-1.21 -0.26,-2.48 -0.26,-3.78 -0.68,0.18 -1.07,1.52 -1.37,2.15 -0.88,-0.07 -0.86,-0.76 -0.86,-1.72l0 -0.77c0,-1.2 0.95,-0.57 0.95,-1.2l0 -0.09c0,-0.74 -0.95,-1.25 -0.95,-1.37 0,-0.76 0.47,-1.03 0.52,-1.55 -1.36,-0.32 -1.93,-0.35 -3.02,-1.01 -0.49,-0.3 -2.21,-1.33 -2.21,-1.91l0 -0.26c0,-0.28 0.31,-0.43 0.6,-0.43l0.34 0c0.63,0 2.66,1.56 3.52,1.63 0.07,-0.29 0.25,-1.46 0.36,-1.61 0.39,-0.53 1,-0.25 1.44,-0.53l1.63 0c0.67,0.42 0.82,0.09 1.61,0.88 0.41,0.41 0.71,1.07 0.71,1.87l0 0.26c0.97,0.23 3.87,1.41 3.87,2.41 0,0.32 -0.53,0.43 -0.86,0.43l-0.18 0.06 -3.34 -0.49c0.03,0.11 0.34,0.72 0.43,0.95 0.16,0.38 0.23,0.59 0.34,1.03 0.18,0.69 0.43,1.43 0.43,2.32 0,0.35 -0.24,1.03 -0.6,1.03l-0.09 0c-0.48,0 -0.76,-0.92 -0.77,-1.46 -0.54,0.04 -0.34,0.58 -0.34,1.2 0,0.52 0,0.95 0,1.46l3.75 -0.71c0.18,-0.86 0.45,-1.06 1.14,-1.19 -0.04,0.53 -0.27,0.82 -0.59,1.04 0.17,-0.03 0.88,-0.15 1.4,-0.29 0.08,-0.51 0.61,-1.24 1.17,-1.15 -0.12,0.44 -0.45,0.91 -0.81,1.11zm-1.25 1.88c-0.86,0.04 -1.27,-0.35 -1.37,-1.03 0.56,0 1.32,0.4 1.37,1.03zm21.85 40.85c0.61,0 1.3,-0.09 1.35,-0.51 -0.87,-0.19 -1.03,-1.06 -1.03,-1.98l0.24 -2.1 0 -0.76c0,-0.46 -0.35,-0.89 -0.33,-1.09l0.09 -0.64c0.58,0.11 0.95,0.8 0.95,1.34l0.03 0.45 -0.18 2.42 0 1.15c0,0.16 0.51,0.99 0.65,1.13 0.3,0.28 0.79,0.59 1.41,0.59l0.16 0c1.37,0 2.42,-0.45 3.47,-0.45l0.1 -0.63c0.87,0.96 2.08,1.33 3.57,1.22 1.42,0.15 3.2,-0.79 3.81,-1.35l0 -0.89c-0.06,-0.04 -0.2,-0.13 -0.24,-0.13 -1.93,0 -4.38,3.96 -6.18,0.06 -0.38,-0.82 -0.64,-1.62 -0.64,-2.79l5.86 0.56 0.32 0c0.43,0 0.62,-0.12 0.87,-0.26l-0 -0.96c-0.13,-0.16 -0.27,-1.13 -0.43,-1.44 -0.23,-0.46 -0.48,-0.81 -0.81,-1.2 -0.56,-0.67 -1.74,-1.18 -3.13,-1.18l-0.63 0c-1.07,0 -2.06,0.27 -2.09,1.13l-0.21 0.27 -0.16 0 0 -0.19 -3.73 0c-0.03,-0.29 -0.32,-0.5 -0.32,-0.96 0,-0.99 0.71,-1.5 0.71,-2.3l0 -0.13c0,-0.09 -0.18,-0.45 -0.4,-0.45l-0.48 0c-1.6,-0 -0.93,2.35 -1.9,2.87 0,0.7 -0.39,0.69 -0.71,1.08 -0.48,-0.26 -0.88,-0.7 -1.67,-0.7l-0.79 0c-1.25,0 -3.33,0.48 -3.41,1.27l-0.16 0 0 -0.76c0,-0.23 -1.95,-0.37 -2.22,-0.38l-0.48 0c-0.7,0 -1.03,0.6 -1.03,1.21l1.23 0 0.83 4.46c0.05,0.24 -0.08,0.46 -0.1,0.74l-0.77 0.66 -0.24 0c-0.05,-0.16 -0.5,-0.59 -0.64,-0.83 -0.17,-0.29 -0.3,-0.71 -0.41,-1.07 -0.21,-0.69 -0.22,-1.67 -0.22,-2.56 0,-1.11 0.09,-1.63 -0.5,-2.34 -0.31,-0.37 -1.56,-0.85 -2.35,-0.85l-1.67 0c-1.01,0 -3.65,1.21 -3.65,2.04l0 0.51c0,0.29 0.7,0.7 1.11,0.7l0.4 0c0.6,0 1.11,-0.17 1.11,-0.64 0,-0.57 -0.32,-0.75 -0.3,-1.44 1.87,-0.32 4.26,-0.28 4.26,1.83l0 0.06c0,1.04 -2.2,1.07 -3.47,1.22 -0.71,0.09 -1.32,0.2 -1.95,0.41 -1.06,0.34 -0.87,0.61 -1.45,0.92l-0.34 -3.13 -0.04 -1.85 0.35 -4.97c-1.22,0 -2.14,-0.45 -3.09,-0.45l-0.32 0c-0.29,0 -0.38,0.1 -0.56,0.19l0 0.32c-1.19,0.64 0.52,0.41 0.98,0.61 0.32,0.14 0.83,1.16 1.08,1.24l0 0.38 0.15 0 0.09 0.7 0 0.51c0,0.53 -0.61,1.85 -1.03,1.85 -0.34,0 -1.08,-0.91 -2.78,-1.02 -2.78,0 -2.62,1.42 -3.89,2.1 0,-1.31 -1.35,-1.66 -3.01,-1.66 -0.67,0 -1.65,0.18 -2.07,0.38 -0.25,0.12 -0.57,0.25 -0.77,0.4 -0.29,0.22 -0.35,0.5 -0.57,0.56l0 -1.02 -0.24 0.02 -1.74 -0.22 -0.63 0c-0.6,0 -1.03,0.46 -1.03,0.96l0 0.26 1.27 0c0,0.41 -0.05,1.47 0.32,1.59l0 0.32c0,0.58 0.4,1.4 0.4,1.98l-0 1.08c0,0.38 -0.36,1.2 -0.71,1.28 -0.09,-0.27 -1.59,-2 -1.93,-2.72 -0.5,-1.07 -0.95,-2.03 -1.41,-3.14 -0.35,-0.85 -2.21,-6.19 -2.92,-6.19l-0.95 0c-0.27,0 -1.15,1.3 -1.31,1.56 -0.17,0.28 -0.78,1.76 -0.99,1.82 -0,0.7 -1.84,4.75 -2.25,5.4 -0.55,0.88 -0.95,1.48 -1.78,2.14 -0.64,0.51 -1.74,1.27 -2.72,1.45 0.05,0.5 1.05,0.96 1.74,0.96l1.11 0c0.43,0 1.62,-0.11 1.92,-0.18 0.59,-0.15 0.95,-0.46 1.58,-0.45l-0.16 0.41 1.34 0.29 0 -0.19c0,-1.33 -2.7,-1.19 -2.7,-1.98l0 -0.19c-0,-1.02 1.31,-1.98 2.62,-1.98l0.87 -0.02 3.25 0.27c0.09,0.32 0.4,0.9 0.4,1.21l0 0.45c0,1.38 -1.09,1.7 -1.74,2.48l3.96 0.26 0.32 0c0.73,0 1.32,-0.26 1.9,-0.26 0.24,0 0.21,0.13 0.56,0.13l0.4 0c0.45,0 1.02,-0.07 1.37,-0.17 0.41,-0.12 0.89,-0.42 1.08,-0.47 -0.05,-0.46 -1.11,-0.9 -1.11,-1.21l-0.04 -1.66 0.43 -2.74 0.16 0c0,-0.84 0.73,-1.98 1.82,-1.98l0.08 0c1.76,0 2.46,2.76 2.46,4.27l0 0.19c0,0.78 -0.15,1.5 -0.61,1.93 -0.86,0.79 -0.98,0.57 -1.69,1.07 1.45,0 2.29,0.45 3.49,0.45 0.61,0 1.03,-0.15 1.27,-0.45 -0.76,-0.41 -1.11,-0.84 -1.11,-1.85 0.9,0.82 2.31,2.04 3.81,2.04 1.5,0 2.4,-1.33 2.98,-1.45l1.22 1.96c0.65,-0.6 0.58,-0.26 1.65,-0.4 1.08,-0.14 1.12,0.14 1.84,0.14l0.4 0c1.63,0 2.36,-1.05 3.25,-1.53 0.83,0.45 1.58,2.17 2.54,2.17l0.16 0c0.32,0 1.07,-0.43 1.27,-0.57 0.28,0.11 1.01,0.26 1.43,0.26 1.08,0 2.2,-0.26 2.62,-0.77 -0.19,-0.23 -1.19,-0.87 -1.19,-1.08l-0.04 -0.64 0.28 -2.99c0.6,-0.73 0.27,-2.74 2.22,-2.74 0.95,0 1.29,0.43 1.59,0.96 0.41,0.72 0.95,1.94 0.95,2.74l0 1.15c0,0.61 -0.4,1.26 -0.74,1.63 -0.58,0.63 -0.95,0.6 -1.63,0.98l0.02 -0.07 3.39 0.52zm-71.29 -3.94l-0.56 0c-4.11,0 -2.01,-6.32 0.68,-6.32 0.97,-0 1.78,0.7 1.78,1.53l-0 1.98c0,1.22 -0.47,2.82 -1.9,2.82zm7.45 -0.01l-0.08 0c-2.8,0 0.92,-2.77 2.46,-2.87l0 0.25c0,0.83 -1.26,2.61 -2.38,2.61zm7.61 -3.06c0,-1.04 1.94,-3.26 3,-3.26 1.79,0 2,1.13 2,2.24 0,1.45 -0.34,4.34 -1.9,4.34l-0.63 0c-1.22,0 -2.46,-1.94 -2.46,-3.06l0 -0.26zm-2.85 3c0,-1.36 -0,-2.72 0,-4.08 0,-1.41 -0.45,-2.3 -1.61,-2.79 -0.57,-0.24 -1.12,-0.44 -1.83,-0.57 -1.24,-0.23 -1.18,-0.02 -1.91,0.33 -0.85,0.41 -2.8,0.89 -2.82,1.87l-0.16 0c-0.46,-1.03 -3.24,-2.3 -5.07,-2.3l-0.32 0c-1.43,0 -3.17,2.05 -3.17,3.44l0 0.51c0,0.81 0.63,3.06 1.07,3.48 0.44,0.42 0.86,0.73 1.47,0.99 0.26,0.11 1.75,0.44 2.14,0.44l0.48 0c1.05,0 2.39,-0.88 2.8,-1.44 0.55,-0.76 1.08,-1.72 1.08,-2.89l0 -1.66c0.77,0.05 0.96,0.89 1.9,0.89 0.25,0 0.87,-0.89 0.87,-1.28l0 -0.25c0,-0.63 -0.6,-0.92 -0.71,-1.28l0.71 0c1.49,0 3.25,0.83 3.25,1.98l0 0.06c0,1.08 -2.86,1.43 -4.02,1.8 -0.54,0.17 -1.33,0.74 -1.75,1.08 -0.51,0.41 -0.65,1.23 -0.65,2.03l0 0.51c0,0.32 0.97,0.51 1.43,0.51 0.51,0 1.62,-0.23 2.01,-0.36 0.37,-0.13 0.82,-0.72 1.56,-0.72l0.16 0c1.02,0 1.89,0.89 2.54,0.89l0.08 0c0.04,0 1.34,-0.42 1.46,-0.48 0.49,-0.27 0.6,-0.54 0.6,-1.17 0.13,0.04 1.04,0.96 1.59,1.21 0.42,0.19 1.76,0.57 2.38,0.57l0.63 0c1.08,0 2.29,-0.97 2.76,-1.54 0.58,-0.71 1.05,-1.83 1.05,-2.99 0,-3.06 -2.33,-4.33 -5.87,-4.33 -3.51,0 -3.25,3.73 -2.86,5.55l-0 0.18 -1.26 1.79zm-22.2 -11.65l-0.64 -0.02 0 1.02 2.46 0 0 0.13 0.16 0 0 0.19c0,0.68 0.49,2 0.56,2.8 0.09,1.12 0.13,2.03 0.08,3.13 -0.02,0.56 -0.46,2.28 -0.67,2.78 -0.35,0.84 -0.79,2.13 -2.03,2.13 -0.78,0 -1.82,-0.24 -1.82,-0.83l-0 -0.13c0,-0.36 1.74,-1.15 1.75,-1.79l-0 -0.25c0,-0.56 -0.95,-1.02 -1.67,-1.02 -0.51,0 -1.82,1.48 -1.82,2.04l0 0.25c0,1.04 1.57,2.68 3.01,2.68l0.08 0c1.4,0 2.81,-0.64 3.61,-1.18 0.65,-0.43 1.71,-1.83 1.69,-2.78l-0.62 -6.56c-0.05,-0.54 0.24,-1.08 0.24,-1.59l2.46 -0.96c-0.11,-0.33 -0.88,-0.51 -1.43,-0.51l-0.48 -0.05 -4.9 0.52zm68.99 12.35c0,0.7 -0.85,1.11 -1.34,1.42 -3.63,2.27 -3.56,0.01 -2.09,-1.55 1.14,-1.21 3.44,-2.02 3.44,0.12zm-13.88 -0.06c0,-1.15 0.99,-4.61 2.44,-4.61l0.56 0c2.93,0 2.22,3.92 1.51,5.37 -1.11,2.27 -4.51,2.1 -4.51,-0.76zm-19.43 -1.59l-0.98 -0.01 1.89 -4.54c0.78,0.17 1.86,2.6 1.95,3.46 -0.41,0.5 -1.77,1.08 -2.85,1.08zm57.09 -1.08l-4.2 0c0.39,-0.6 0.49,-0.55 0.74,-1.38 0.16,-0.5 0.69,-0.92 1.4,-0.92l0.63 0c0.85,0 1.82,0.5 1.82,1.15 0,0.37 -0.24,0.89 -0.4,1.15zm-8.33 -1.15l3.01 0c-0.14,0.32 -0.4,0.68 -0.61,1.17 -0.16,0.38 -0.27,0.96 -0.27,1.44l0 0.57c-0,0.4 0.12,1.35 0.48,1.47 0,0.68 -0.93,1.83 -1.43,2.1 -0.59,-0.32 -1.11,-1.38 -1.11,-2.17l0 -0.57 0.24 -2.42 0 -0.51c0,-0.47 -0.14,-0.76 -0.32,-1.08zm-63.44 -7.9c0,1.46 -2.21,0.76 -3.41,0.76l-0.63 0c-0.93,0 -1.74,0.45 -1.74,1.21l0 0.51c0.32,-0.07 0.41,-0.26 0.79,-0.26l0.48 0c0.86,0 1.2,0.38 2.06,0.38l0.48 0c3.38,0 3.86,-2.81 2.22,-2.8l-0.24 -0 0 0.19z"/>
 </g>
</svg>
