<?xml version="1.0" encoding="UTF-8"?>
<!DOCTYPE svg PUBLIC "-//W3C//DTD SVG 1.1//EN" "http://www.w3.org/Graphics/SVG/1.1/DTD/svg11.dtd">
<!-- Creator: CorelDRAW -->
<svg xmlns="http://www.w3.org/2000/svg" xml:space="preserve" width="31.3934mm" height="5.6099mm" version="1.1" style="shape-rendering:geometricPrecision; text-rendering:geometricPrecision; image-rendering:optimizeQuality; fill-rule:evenodd; clip-rule:evenodd"
viewBox="0 0 36.4 6.5"
 xmlns:xlink="http://www.w3.org/1999/xlink"
 xmlns:xodm="http://www.corel.com/coreldraw/odm/2003">
 <defs>
  <style type="text/css">
   <![CDATA[
    .fil0 {fill:black}
   ]]>
  </style>
 </defs>
 <g id="Camada_x0020_1">
  <metadata id="CorelCorpID_0Corel-Layer"/>
  <path class="fil0" d="M2.57 6.06c-0.19,0.2 -0.73,0.22 -1.01,0.24 -0.16,0.01 -0.94,0.05 -1,-0.13 -0.07,-0.19 1.71,-0.24 2.01,-0.11zm30.71 -1.25c-0.06,0.33 -0.53,0.85 -0.72,0.68 -0.14,-0.14 -0.04,-0.33 0.05,-0.47 0.1,-0.15 0.3,-0.38 0.48,-0.42 0.14,-0.03 0.21,0.12 0.19,0.21zm-1.44 0.37c-0.14,0.15 -0.97,1.07 -0.4,1.13 0.31,0.03 0.76,-0.27 0.95,-0.51 -0.14,-0.04 -0.28,-0.32 -0.25,-0.49 0.06,-0.28 0.38,-0.56 0.58,-0.7 0.07,-0.05 0.13,-0.1 0.2,-0.14 -0.23,-0.11 -0.86,0.46 -1.08,0.7zm1.27 -0.8c0.17,-0.07 0.4,-0.12 0.49,0.09 0.02,0.05 0.02,0.1 0.02,0.15 0.22,-0.14 0.55,-0.28 0.81,-0.36 0.7,-0.21 0.15,0.64 0.01,0.93 0.14,-0.12 1.21,-0.78 1.36,-0.65 0.06,0.05 -0.23,0.44 -0.26,0.49 -0.16,0.22 -0.32,0.42 -0.48,0.64 -0.07,0.1 -0.35,0.45 -0.16,0.55 0.13,0.07 0.41,-0.12 0.53,-0.19 0.32,-0.2 0.64,-0.43 0.94,-0.66 0.13,-0.1 -0.07,0.07 -0.09,0.08 -0.31,0.27 -1.16,0.98 -1.56,0.97 -0.31,-0.01 -0.12,-0.41 -0.04,-0.55 0.15,-0.25 0.38,-0.55 0.5,-0.71 0.03,-0.04 0.07,-0.14 -0.02,-0.12 -0.23,0.05 -0.54,0.34 -0.71,0.5 -0.06,0.06 -1.48,1.52 -1,0.66 0.13,-0.23 0.3,-0.45 0.45,-0.67 0.07,-0.1 0.15,-0.2 0.23,-0.3 -0.26,0.17 -0.65,0.28 -0.93,0.33 -0.15,0.12 -0.31,0.22 -0.57,0.3 -0.36,0.34 -0.87,0.69 -1.26,0.61 -0.42,-0.08 -0.3,-0.54 -0.15,-0.8 0.26,-0.45 0.81,-0.9 1.25,-1.18 0.54,-0.35 0.61,-0.22 0.65,-0.12zm0.49 0.38c0.29,-0.08 0.19,0.02 0.44,-0.13 0.06,-0.04 0.16,-0.11 0.22,-0.13 0.03,-0.01 0.11,-0.02 0.13,-0 0.03,0.03 0.01,0.14 0,0.18 -0.05,0.21 -0.19,0.23 -0.37,0.33 -0.03,0.02 -0.05,0.03 -0.07,0.05 -0.17,0.12 -0.41,0.3 -0.67,0.29 0.15,-0.19 0.28,-0.39 0.32,-0.58zm-16.94 -1.1c-0.31,-0.16 -0.43,-0.05 -0.61,-0.4 -0.31,-0.73 0.23,-1.19 0.79,-1.56 1.02,-0.67 2.39,-0.85 3.55,-0.48 1.56,0.53 1.58,1.63 0.72,2.85 -0.27,0.38 -1.44,1.83 -1.06,2.27 0.32,0.32 0.98,-0.14 1.26,-0.34 0.38,-0.27 0.81,-0.65 1.16,-0.96 0.5,-0.43 0.98,-0.88 1.46,-1.34l0.04 -0.03c1.16,-1.13 2.9,-2.69 4.37,-3.34 0.14,-0.06 0.37,-0.15 0.45,-0.29 -0.11,-0.19 -1.36,0.59 -1.5,0.68 -0.21,0.14 -0.42,0.28 -0.63,0.42 -0.73,0.52 -1.59,1.19 -2.23,1.81 -0.86,0.83 -1.78,1.65 -2.66,2.46 -0.2,0.19 -1.16,1.11 -1.39,0.76l-0.02 -0.04c-0.18,-0.43 1.06,-2.07 1.33,-2.52 0.52,-0.87 0.49,-1.73 -0.44,-2.28 -0.14,-0.08 -0.27,-0.13 -0.41,-0.19 -1.63,-0.61 -4.14,-0.09 -5.12,1.44 -0.29,0.46 -0.06,0.57 0.06,1.02 -0.16,0.12 -0.2,0.11 -0.29,0.3 0.38,0.03 0.12,-0.21 0.59,-0.16 0.23,0.02 0.37,0.13 0.58,-0.09zm11.27 2.62c-0.19,0.04 -0.25,-0.04 -0.2,-0.23 0.05,-0.21 0.23,-0.4 0.41,-0.64 0.16,-0.21 0.32,-0.43 0.49,-0.64 0.1,-0.13 0.13,-0.19 -0.08,-0.12 -0.22,0.08 -0.21,0.2 -0.33,0.38 -0.21,0.29 -0.86,0.89 -1.35,1.09 -0.34,0.14 -0.38,0.1 -0.22,-0.21 0.23,-0.45 0.55,-0.82 0.82,-1.24 0.34,-0.54 -0.24,-0.08 -0.38,0.05 -0.16,0.15 -0.31,0.31 -0.47,0.46 -0.29,0.3 -0.79,0.75 -1.18,0.88 -0.37,0.13 -0.05,-0.35 0.01,-0.46 0.25,-0.4 0.59,-0.73 0.83,-1.12 0.03,-0.05 0.13,-0.21 0.01,-0.22 -0.12,-0.01 -0.39,0.09 -0.5,0.14 -0.11,0.05 -0.22,0.11 -0.34,0.16 0.14,0.06 0.31,0.04 0.43,0.02 -0.25,0.41 -0.7,0.95 -0.87,1.41 -0.05,0.15 -0.07,0.35 0.11,0.4 0.31,0.09 1.24,-0.73 1.46,-0.92 -0.1,0.18 -0.28,0.46 -0.31,0.68 -0.03,0.22 0.06,0.31 0.27,0.3 0.32,-0.01 0.67,-0.29 0.99,-0.52 -0.09,0.21 -0.15,0.46 0.13,0.51 0.39,0.07 0.87,-0.26 1.43,-0.71 -0.05,0.23 -0.09,0.27 -0.2,0.46 -0.16,0.28 0.07,0.24 0.25,0.13 0.09,-0.05 0.17,-0.11 0.24,-0.19 0.37,-0.42 -0.16,-0.02 0.14,-0.55 0.64,-0.96 1.31,-1.9 1.99,-2.83 0.32,-0 0.64,-0.01 0.95,-0.01 -0.63,0.88 -1.29,1.75 -1.89,2.65 -0.09,0.13 -0.18,0.27 -0.27,0.41 -0.06,0.09 -0.33,0.49 -0.28,0.58 0.05,0.08 0.24,0.01 0.31,-0.03 0.13,-0.08 0.26,-0.22 0.37,-0.33 0.11,-0.15 -0.09,-0.21 -0.09,-0.25 0.11,-0.37 1.71,-2.52 2.06,-3l0.02 -0.02c0.55,-0.01 1.1,-0.02 1.65,-0.01 0.3,0 0.61,0.01 0.9,-0.03 0.1,-0.02 0.17,-0.04 0.27,-0.07 -0.91,-0.02 -1.82,-0.02 -2.73,-0.01 0.27,-0.38 0.48,-0.67 0.69,-0.95 -0.05,0 -0.1,0 -0.15,0.02 -0.06,0.02 -0.12,0.07 -0.35,0.37 -0.11,0.14 -0.25,0.34 -0.41,0.56 -0.32,0.01 -0.64,0.01 -0.96,0.02 0.28,-0.39 0.5,-0.68 0.71,-0.98 -0.05,0 -0.1,0 -0.15,0.02 -0.06,0.02 -0.12,0.07 -0.35,0.37 -0.11,0.15 -0.27,0.36 -0.43,0.59 -1.04,0.03 -2.08,0.07 -3.13,0.12 0.35,0.01 0.71,0.01 1.06,0.01 0.66,-0 1.33,-0.01 1.99,-0.01 -0.47,0.65 -0.93,1.33 -1.42,1.97 -0.4,0.52 -0.92,1 -1.47,1.35l-0.02 0.01c-0.14,0.09 -0.29,0.16 -0.45,0.2zm0.92 -2.22c0.07,0.12 0.29,-0.05 0.35,-0.13 0.32,-0.45 -0.42,-0.17 -0.35,0.13zm-18.49 1.21c0.09,-0.28 0.32,-0.52 0.56,-0.62 0.16,-0.06 0.35,-0.12 0.28,0.14 -0.03,0.11 -0.1,0.24 -0.16,0.34 -0.07,0.13 -0.21,0.27 -0.29,0.32 -0.2,0.13 -0.46,0.06 -0.39,-0.18zm0.06 0.49c-0.18,0.25 -0.86,0.62 -1.2,0.51 -0.01,-0.25 0.03,-0.04 0.09,-0.21 0.1,-0.34 -0.17,-0.18 0.26,-0.69 0.29,-0.35 0.66,-0.75 1.13,-0.83 -1.01,0.75 -0.51,1.25 -0.27,1.22zm-8.35 0.61c0.37,-0.05 0.62,-0.16 0.91,-0.29 0.85,-0.31 4.89,-0.16 5.89,-0.02 -0,0.26 0.27,0.73 1.17,0.19 0.18,-0.11 0.52,-0.33 0.66,-0.48 0.11,-0.02 0.22,-0.07 0.34,-0.16 0.24,-0.05 0.56,-0.2 0.81,-0.37 -0.12,0.17 -0.38,0.59 -0.37,0.9 0,0.43 0.55,0.09 0.71,-0.03 0.25,-0.18 0.47,-0.43 0.71,-0.6 0.07,-0.05 0.14,-0.09 0.22,-0.11 -0.05,0.11 -0.12,0.23 -0.18,0.34 -0.31,0.63 -0.22,0.88 0.5,0.49 0.13,-0.07 0.2,-0.14 0.32,-0.22 0.09,-0.06 0.17,-0.08 0.28,-0.1 -0.03,0.2 -0.12,0.5 0.21,0.5 0.23,0 0.47,-0.13 0.65,-0.26 0.25,-0.19 0.45,-0.34 0.68,-0.52 0.32,-0.25 0.94,-0.99 1.31,-1.05 -0.05,0.51 -0.4,1.35 -0.91,1.55 -0.19,0.07 -0.21,-0.07 -0.09,-0.18 0.07,-0.05 0.08,-0.06 0.13,-0.14 0.03,-0.05 0.03,-0.04 -0.04,-0.02 -0.17,0.07 -0.51,0.31 -0.38,0.53 0.12,0.19 0.48,0.12 0.64,0.03 0.38,-0.2 0.57,-0.69 0.68,-1.09 0.49,-1.89 0.72,-0.82 0.93,-1.71 -0.56,0.07 -0.57,0.41 -0.88,0.74l-1.74 1.43c-0.18,0.16 -0.68,0.63 -0.94,0.52 -0.13,-0.06 -0.07,-0.24 -0.02,-0.34 0.02,-0.04 0.05,-0.08 0.07,-0.12 0.11,-0.19 0.15,-0.24 0.29,-0.41 0.2,-0.25 0.49,-0.5 0.59,-0.8 -0.3,0.07 -0.68,0.67 -0.98,0.92 -0.18,0.15 -0.93,0.78 -1.15,0.67 -0.09,-0.05 0.02,-0.29 0.05,-0.35 0.17,-0.34 0.5,-0.74 0.73,-1.06 0.09,-0.12 0.21,-0.3 0.25,-0.45 -0.33,0.07 -0.85,0.69 -1.11,0.97 -0.1,0.1 -0.28,0.23 -0.39,0.32 -0.08,0.06 -0.82,0.63 -0.86,0.44 -0.03,-0.12 0.23,-0.51 0.31,-0.63 0.21,-0.31 0.48,-0.61 0.68,-0.93 0.05,-0.08 0.1,-0.17 0.12,-0.27 -0.31,0 -0.73,0.17 -0.92,0.35 0.11,-0.01 0.33,-0.05 0.42,-0 -0.1,0.11 -0.18,0.19 -0.39,0.42 -0.23,0.15 -0.38,0.3 -0.75,0.3 0.12,-0.16 0.27,-0.35 0.31,-0.56 0.07,-0.35 -0.12,-0.39 -0.4,-0.42 -0.59,-0.06 -1.06,0.28 -1.49,0.72 -0.24,0.24 -0.57,0.53 -0.71,0.85 -0.85,-0.04 -3.53,-0.26 -5.26,-0.17 0.26,-0.32 0.55,-0.63 0.81,-0.96 0.5,-0.63 0.89,-1.22 1.37,-1.93 0.78,-1.15 1.59,-2.12 3.05,-2.3 0.54,-0.05 1.57,0.09 1.81,0.66 0.13,0.31 0.11,0.38 -0.04,0.66 0.6,-0.02 0.73,-0.58 0.22,-1.01 -1.5,-1.14 -3.56,-0.23 -4.65,1.05 -0.7,0.82 -1.2,1.78 -1.84,2.66 -0.22,0.3 -0.45,0.6 -0.72,0.86 -0.2,0.19 -0.43,0.36 -0.71,0.39 -0.43,-0.13 -3.24,-0.04 -2.94,0.44 0.21,0.34 1.68,0.17 2.05,0.12z"/>
 </g>
</svg>
