<?xml version="1.0" encoding="UTF-8"?>
<!DOCTYPE svg PUBLIC "-//W3C//DTD SVG 1.1//EN" "http://www.w3.org/Graphics/SVG/1.1/DTD/svg11.dtd">
<!-- Creator: CorelDRAW -->
<svg xmlns="http://www.w3.org/2000/svg" xml:space="preserve" width="44.1783mm" height="56.7779mm" version="1.1" style="shape-rendering:geometricPrecision; text-rendering:geometricPrecision; image-rendering:optimizeQuality; fill-rule:evenodd; clip-rule:evenodd"
viewBox="0 0 4444.64 5712.26"
 xmlns:xlink="http://www.w3.org/1999/xlink"
 xmlns:xodm="http://www.corel.com/coreldraw/odm/2003">
 <defs>
  <style type="text/css">
   <![CDATA[
    .fil0 {fill:black}
   ]]>
  </style>
 </defs>
 <g id="Camada_x0020_1">
  <metadata id="CorelCorpID_0Corel-Layer"/>
  <path id="Dadinho.cdr" class="fil0" d="M2813.7 5523.98c339.35,79.05 214.77,54.1 613.45,54.1 -43.7,59.68 6.32,23.25 -84.96,41.38 -124.86,24.78 -203.86,9.95 -328.44,-6.82 -76.61,-10.34 -115.77,-45.57 -200.05,-52.57l0 -36.09zm-1243.46 -1316.72c-1.7,8.92 -3.58,17.79 -5.79,26.43 -28.13,110.32 -100.83,194.83 -173.57,279.28 62.46,88.31 124.86,176.64 212.66,229.15 -3.41,7.95 -6.7,16.42 -9.66,25.34 -29.39,88.6 -236.6,136.17 -262.23,158.51 -77.06,67.24 -105.82,181.07 -164.7,268.37 -79.51,117.82 -85.3,239.84 -85.3,383.73 0,51.33 48.42,68.95 90.14,90.25 168.74,86.16 606.18,46.32 721.77,-126.34 -28.86,-123.67 -36.09,-90.37 -36.09,-234.54 0,-106.11 72.13,-92.36 72.13,-198.47 0,-78.03 -36.04,-72.69 -36.04,-126.28 0,-79.23 33.2,-105.77 78.15,-164.47 43.53,3.12 52.97,3.74 146,9.72 93.04,5.97 349.42,-19.95 505.14,-21.94 27.28,98.84 7.51,43.65 64.56,212.78 -107.53,160.56 54.11,166.24 54.11,378.91 0,112.08 -57.23,153.22 50.93,219.73 141.92,87.18 728.2,184.13 734.68,-73.89 6.37,-254.68 -65.3,-274.45 -172.09,-470.7l-144.24 -162.43c-3.24,-2.15 -7.62,-5.05 -10.98,-7.1 -3.35,-2.04 -7.84,-4.77 -11.37,-6.65 -0.56,-0.28 -36.48,-15.86 -37.79,-16.37 -33.08,-12.16 -53.82,-16.76 -84.34,-23.86 -23.36,-42.52 -40.58,-74.91 -53.59,-100.88 129.46,-105.38 50.7,-309.11 -0.4,-439.61 -18.58,-47.46 -33.53,-85.19 -45.64,-117.87l9.44 -9.27c3.8,45.82 1.76,51.16 26.65,81.61 115.32,141.23 388.28,-68.08 388.28,-207.89 0,-107.25 -9.83,-121.79 -62.18,-208.47 -32.22,-53.3 -42.46,-142.76 -91.33,-233.47 -147.76,-274.1 -136.56,-64.05 -117.13,-297.81 -3.87,-2.04 -9.84,-9.89 -11.49,-6.53 -0.11,0.22 -138.27,-110.38 -241.08,-137.82l0 -36.1c89.8,0 140.72,-29.66 223.08,-65.59 27.68,-12.04 55.92,-25.17 84.11,-39.55 5.79,13.8 13.75,27.22 23.42,40.01 31.54,41.65 81.72,76.55 116.62,80.93 34.89,4.32 54.56,-21.82 93.83,-18.53 39.28,3.24 98.15,35.98 130.89,37.11 32.74,1.08 39.27,-29.5 70.87,-42.57 31.66,-13.07 88.43,-8.75 116.79,-30.57 28.36,-21.82 28.36,-69.79 43.59,-92.7 15.28,-22.96 45.87,-20.75 113.49,-16.37 67.63,4.33 172.38,10.92 209.43,-25.06 62.18,-60.35 -71.78,-264.16 37.11,-291.33 43.64,-10.92 122.19,10.92 167.99,-18.53 140.95,-90.7 -40.06,-290.99 -70.87,-358.96 -20.75,-45.81 -1.09,-76.38 51.26,-109.07 52.35,-32.73 137.48,-67.69 159.31,-134.24 21.82,-66.55 -19.67,-164.7 -87.76,-203.46 -68.08,-38.76 -162.88,-18.02 -206.53,-47.46 -43.59,-29.5 -36.15,-109.12 -34.62,-162.04 1.6,-52.91 -2.78,-79.05 -68.88,-87.92 -14.1,-1.87 -31.04,-3.01 -49.79,-3.29 -223.64,-348.28 -98.15,-184.31 -185.16,-557.88 55.52,-26.71 121.73,-40.24 175.61,-61.04 79.46,-30.76 155.5,-102.93 216.65,-192.05 61.04,-89.11 107.08,-195.16 118.62,-293.82 11.54,-98.67 -11.54,-189.94 -57.58,-258.88 -144.58,-216.02 -653.18,-251.02 -851.53,-85.93 -42.74,35.57 -95.31,82.69 -143.68,139.64 -8.18,2.32 -16.2,4.15 -24.1,5.45 -55.3,9.03 -85.48,-16.26 -129.07,-37.63 -53.89,-26.37 -91.84,-43.92 -138.96,-59.73 -291.28,-97.81 -552.42,-130.38 -861.99,-130.38 -90.99,0 -97.36,28.19 -198.69,35.93l-559.07 180.61 -2.1 -0.05c-7.38,-17.85 -15.97,-34.79 -25.63,-50.52 -42.46,-68.95 -106.11,-115.66 -213.24,-146.4 -368.62,-105.77 -678.99,0 -809.53,391.46 -48.82,146.4 -33.93,324.64 30.81,435 64.67,110.32 179.25,152.71 272.62,153.79 55.93,0.63 104.29,-13.58 149.98,-28.3 -5.86,45.81 -19.38,85.77 -27.45,136.12 -9.84,61.83 -7.16,119.74 -16.15,182.32 -69.22,73.03 -345.2,-34.73 -170.05,246.03 -53.48,-5.01 -103.89,-5.01 -137.93,-0.46 -66.1,8.87 -70.48,35.01 -68.89,87.92 1.54,52.92 8.98,132.54 -34.61,162.04 -43.64,29.44 -138.45,8.69 -206.54,47.46 -68.08,38.75 -109.57,136.91 -87.75,203.46 21.83,66.55 106.97,101.51 159.31,134.24 52.34,32.69 72,63.26 51.26,109.07 -20.75,45.81 -81.78,106.9 -105.77,177.83 -24.03,70.93 -10.91,151.63 34.9,181.12 45.81,29.45 124.35,7.62 167.99,18.53 43.65,10.92 52.35,54.5 41.43,115.6 -10.91,61.1 -41.43,139.7 -4.32,175.73 37.05,35.98 141.8,29.39 209.43,25.06 67.63,-4.38 98.2,-6.59 113.49,16.37 15.23,22.91 15.23,70.88 43.59,92.7 28.36,21.82 85.13,17.51 116.79,30.57 31.59,13.07 38.13,43.64 70.87,42.57 32.74,-1.14 91.61,-33.87 130.89,-37.11 39.27,-3.29 58.94,22.85 93.83,18.53 34.9,-4.38 85.08,-39.28 116.62,-80.93 15.74,-20.81 26.83,-43.31 31.71,-66.33 33.93,11.48 67.06,48.31 190.28,87.75l172.77 43.7 -270.63 198.47c17.62,66.04 19.03,37.85 54.11,90.25 -11.71,31.71 11.19,42.96 -7.57,163.68 -86.95,136.8 -212.21,240.8 -299.16,377.6 0,166.29 37.74,240.07 219.09,322.19 41.88,18.97 -5.57,20.62 69.62,20.62 40.35,0 104.74,-56.15 163.85,-107.87zm1694.54 -1624.24l0 54.11 0 -54.11zm-1208.84 -54.16c112.64,-9.38 50.12,-54.11 126.28,-54.11 59.11,0 157.88,63.36 105.54,-13.75 -25.57,-37.63 -121.22,-104.58 -201.93,-10.46 -32.45,37.74 -25,19.55 -29.89,78.32zm469.1 216.53c-109.4,-52.51 -57.11,0.51 -149.13,49.23 -87.98,46.54 -296.56,48.08 -368.73,-19.78 -71.1,-66.84 -9.44,-68.43 -41.49,-137.71 -109.23,9.09 -107.3,92.75 -47.05,154.36 2.73,2.79 6.87,6.14 9.72,8.8 2.79,2.62 6.93,5.92 9.83,8.47 2.84,2.51 6.88,5.92 9.78,8.41 166.17,140.89 444.26,126.57 577.08,-71.78zm126.28 -1028.45c175.79,0 132.93,-90.19 342.82,-90.19 107.87,0 152.83,62.41 216.54,36.09 -68.88,-190.28 -615.1,-209.14 -559.35,54.11zm-1263.01 342.82c0,-75.35 89.29,-72.18 144.36,-72.18 31.03,46.38 46.32,41.83 44.33,100.43 -2.04,60.01 -5.97,98.04 -62.35,98.04 -117.42,0 -126.34,-8.87 -126.34,-126.29zm216.54 415l0 18.01c-88.94,0 -189.48,8.87 -274.39,-86.38 -92.13,-103.43 -120.21,-385.62 21.82,-436.83 -87.36,232.73 -61.49,505.2 252.56,505.2zm-288.65 -559.35c-77.92,-112.14 9.27,-28.14 -36.09,-126.28 -50.18,18.18 -61.95,68.7 -64.96,61.38 -1.2,-2.85 -4.38,7.5 -7.22,10.8 149.42,223.19 -68.88,0.34 -44.33,116.73 23.87,112.98 63.42,-31.09 34.9,124.58 -62.52,340.83 281.32,596.18 525.19,382.71l78.21 -84.17c13.24,-19.21 13.97,-19.61 25.97,-46.2 61.38,-135.67 21.2,-313.04 -72.97,-409.15 -135.38,-137.99 -289.46,-130.32 -438.7,-30.4zm1353.2 180.44c0,-77.57 65.7,-72.18 144.3,-72.18l18.07 144.36c-75.48,39.89 -79.96,39.56 -162.37,0l0 -72.19zm370.78 -118.21c-16.65,-24.32 -16.99,-23.41 -28.02,-44.16 105.43,28.13 155.44,140.83 157.66,249.38 5.45,267.86 -164.87,306.56 -377.27,306.56 263.99,-78.09 455.97,-207.44 247.62,-511.79zm134.41 -8.07c21.54,-83.83 89.29,-146.97 -36.09,-180.44l0 126.28c-64.45,-17.16 -26.77,-15.74 -85.6,-40.76 -194.65,-82.75 -375.43,-9.43 -459.89,180.9 -43.13,97.08 -31.88,67.98 -31.88,184.65 0,161.18 220.01,418.35 491.27,274.91 265.41,-140.5 162.03,-321.34 158.27,-491.44 63.03,-16.82 40.52,-6.82 72.13,-54.11 -50.93,-24.44 -51.83,-13.13 -108.21,0zm-2273.39 -600.1c8.47,2.9 18.87,6.31 31.77,10.28l-31.77 -5.62 0 -4.66zm-108.26 1087.22c170.33,0 117.19,-53.08 95.77,-221.99 -14.16,-111.5 -8.19,-247.11 -113.79,-247.11 -127.87,0 -230.57,180.67 -157.2,319.46 18.07,34.11 20.4,36.15 40.75,67.58 33.08,51.1 59.11,82.07 134.47,82.07zm2778.58 -18.01l162.37 18.01c187.67,0 221.03,-469.1 18.08,-469.1l-90.25 0c-2.27,103.73 -90.19,279.27 -90.19,451.09zm-2393.08 395.67l-128.68 -129.29c-5.86,-10.18 -23.47,-48.88 -28.64,-61.55 -57.41,-141.12 -14.61,-212.95 -31.77,-329.07 -7.38,-50.18 -45.18,-180.73 -68.89,-302.13 -4.83,-67.69 -10.68,-125.08 -19.83,-174.08 -12.22,-510.02 -85.25,-413.34 206.48,-363.27l209.48 43.13c18.87,2.27 51.55,0.4 71.72,0.4l-78.37 47.91c-5.11,3.18 -82,41.15 -102.02,96.44 86.5,35.76 176.3,-112.75 415.52,17.96 71.83,39.28 58.3,56.1 143.79,36.15 0,-152.82 -60.47,-125.6 -144.3,-198.46 313.15,0 611.64,-41.72 881.32,-183.17 62.05,-32.57 107.98,-63.59 166.4,-104.23l43.99 -28.19c177.15,-119.86 210.74,-295.82 260.3,-407.27 18.36,-41.32 6.03,-15.92 19.21,-34.9 0,76.16 -3.46,119.91 -18.35,180.11l-55.35 107.64c-2.57,3.07 -6.26,6.82 -8.87,9.78 -20.17,23.13 -111.28,106.9 -18.01,89.45 27.16,-5.05 96.55,-65.46 118.61,-80.24 1.88,82.75 14.03,72.75 30.46,131.91 20.06,72.47 13.47,64.45 40.35,122.03 6.14,13.13 21.48,43.53 30.98,59.28 23.92,39.61 60.92,102.98 147.25,177.49l61.89 46.37c3.3,2.1 7.79,4.89 11.14,6.94 68.54,41.99 160.56,84.73 251.44,99.85 -4.84,8.81 -9.38,18.07 -13.47,27.85 -33.47,79.28 -43.59,190.22 -53.08,351.63 -9.5,161.4 -18.36,373.16 -56.21,501.32 -37.86,128.1 -104.69,172.55 -163.17,216.37 -58.48,43.76 -108.54,86.84 -127.19,132.65l-1.76 4.66 -114.41 60.3c-531.79,213.35 -1204.76,193.4 -1717.28,-49.05 -110.48,-57.92 -65.64,-46.38 -160.66,-122.71zm209.88 2797.91c-79.11,0 -170.89,-14.55 -216.48,-54.17 466.54,0 274.4,29.11 631.48,-54.1 -65.47,89.39 -312.93,108.26 -415,108.26zm1822.36 -126.34l-234.54 0c0,-257.68 160.78,-288.65 342.76,-288.65 109.63,0 104.63,177.49 126.34,270.63 -102.98,0 -124.8,18.02 -234.55,18.02zm-2038.84 -126.28c0,-286.27 469.1,-169.64 469.1,72.18 0,111.79 -334.52,36.09 -469.1,36.09l0 -108.26zm1696.02 -162.37c-101.9,-48.94 -97.19,34.72 -126.34,-90.19 32.35,21.59 26.94,20.34 67.47,40.81 71.1,35.97 32.85,-15.06 58.88,49.39zm-1154.74 -72.19c59.28,-28.41 42.74,1.82 126.28,-54.11 -2.38,106.79 -66.04,167.94 -126.28,54.11zm1263.01 54.11c47.16,-64.39 91.67,-51.49 180.39,-72.12 -41.49,56.6 -108.55,72.12 -180.39,72.12zm288.65 -126.28c-48.7,-4.03 -49.11,-8.47 -90.19,-18.02 0,-34.84 5.68,-32.1 18.02,-54.16 49.84,18.07 33.81,14.89 72.18,72.18zm-1948.58 0c23.98,-35.87 32.79,-49.96 54.11,-90.19 78.89,41.71 30.46,-6.71 72.18,72.18 -70.13,5.79 -47,16.26 -126.28,18.02zm1407.31 -162.37c64.78,0 88.14,-4.72 140.66,-21.71 178.91,-57.97 99.91,-49.9 184.08,75.82 -129.41,30.17 -265.18,169.02 -324.74,-54.11zm-884.1 0c-21.26,40.23 -30.06,54.33 -54.11,90.19 -115.66,-26.94 -154.53,-20.23 -252.62,-72.19 76.04,-109.34 57.69,-76.32 170.56,-44.22 42.51,12.11 96.39,16.94 136.17,26.21zm1479.48 -793.91c-94.29,34.16 -105.02,115.55 -234.55,126.34 27.57,-76.04 45.87,-8.75 54.17,-108.27 -103.15,8.59 -121.51,59.4 -144.36,-36.09 17.11,0 35.18,1.43 51.83,-2.27 186.24,-193.91 19.44,-20.45 -69.84,-51.83 0,-89.17 4.94,-83.08 57.51,-122.92 99.91,-75.71 208.53,-90.54 270.59,29.32 24.15,46.55 14.66,101.17 14.66,165.73zm-2129.03 -90.19c0,-123.32 105.66,-226.54 276.55,-114.01 35.75,23.53 10.4,1.59 43.03,31.15 160.44,145.1 -102.25,64.9 -103.04,64.84 17.96,77.13 14.55,88.09 108.26,90.19l0 54.11c-86.16,0 -74.85,-12.21 -144.35,-18.02 22.79,85.43 43.81,29.9 72.18,108.27 -76.55,-1.71 -100.19,-15.57 -168.51,-66.1 -48.59,-35.98 -84.12,-74.17 -84.12,-150.44zm288.71 -667.57c36.38,-49.67 224.09,-160.55 306.73,-162.37 0,94.4 -44.5,287.98 -126.34,342.76 -73.2,-17.04 -74.62,-38.58 -136.51,-116.05 -2.32,-2.9 -5.86,-6.99 -8.13,-9.89l-35.75 -54.45zm1499.37 -37.96l34.22 37.96 -82.69 134.81c-160.78,165.67 -218.81,-234.43 -223.98,-297.18 92.64,2.04 69.39,10.8 170.33,64.17l92.47 51.88c2.9,2.27 6.99,6.03 9.66,8.36z"/>
 </g>
</svg>
