<?xml version="1.0" encoding="UTF-8"?>
<!DOCTYPE svg PUBLIC "-//W3C//DTD SVG 1.1//EN" "http://www.w3.org/Graphics/SVG/1.1/DTD/svg11.dtd">
<!-- Creator: CorelDRAW -->
<svg xmlns="http://www.w3.org/2000/svg" xml:space="preserve" width="149.999mm" height="20.0002mm" version="1.1" style="shape-rendering:geometricPrecision; text-rendering:geometricPrecision; image-rendering:optimizeQuality; fill-rule:evenodd; clip-rule:evenodd"
viewBox="0 0 2690.64 358.76"
 xmlns:xlink="http://www.w3.org/1999/xlink"
 xmlns:xodm="http://www.corel.com/coreldraw/odm/2003">
 <defs>
  <style type="text/css">
   <![CDATA[
    .fil0 {fill:black}
    .fil1 {fill:lime}
   ]]>
  </style>
 </defs>
 <g id="Camada_x0020_1">
  <metadata id="CorelCorpID_0Corel-Layer"/>
  <g id="_2937051672496">
   <g id="_2712916144768">
    <path class="fil0" d="M2075.65 99.05c-8.82,1.4 -9.04,2.67 -19.65,2.67l-113.98 0c-26.76,0 -60.41,-6.63 -75.71,1.97 -12.06,6.78 -24.61,38.12 1.04,38.12l3.93 0c21.84,0 10.14,-19.34 39.52,-21.43 14.84,-1.06 54.8,0.78 54.8,10.74l0 18.7c0,5.99 -3.11,5.86 -8.4,10.67l-3.38 58.8c-4.76,4.82 -7.86,4.69 -7.86,10.69l0 5.34c0,7.24 50.69,26.72 51.09,26.72l3.93 0c12.29,0 11.14,-4.79 15.72,-10.69 -17.96,-52.43 -2.32,-57.47 0,-128.25 14.08,-0.8 12.95,-3.51 23.67,-3.19l47.08 3.19c5.73,5.82 11.35,16.03 23.58,16.03l13.36 -0.02 -1.78 -37.17 -7.66 -2.9 -39.3 0zm385.15 50.77c46.95,-37.7 34.02,-26.77 110.05,-29.39 -3.14,3.19 -9.42,12.46 -11.19,13.77 -18.41,13.58 -69.51,20.86 -98.86,28.98l0 -13.36 0 0zm-1316.15 83.51l-0.44 -14.04c0,-32.97 3.92,-65.78 3.92,-98.86l11.79 0 0 5.34 19.65 0c14.01,0 31.44,1.3 31.44,10.69 0,49.68 1.03,70.29 -66.37,96.87l0 -0zm-82.82 -102.54l15.62 3.09 39.24 -10.77 0 -5.34 7.85 0c0,34.77 -3.93,69.38 -3.93,104.2 -36.98,-16.76 -67.85,-60.84 -58.79,-91.18l-0 0zm459.67 43.08c-5.2,10.66 -129.5,-70.04 -165.07,-82.83l-47.16 16.04 -7.85 0 0 8.02 23.82 7.75c-0.39,31.67 3.7,66.45 3.7,99.12 -4.76,4.82 -7.86,4.7 -7.86,10.69l0 5.34c0,5.22 20.48,24.05 31.44,24.05l3.92 0c15,0 11.8,-29.48 11.8,-34.73l3.93 -82.83c25.03,14.79 142.97,74.61 149.34,90.85l-7.85 0 0 18.7c0,7.15 5.67,7.9 11.79,10.69l31.44 -21.37 -3.93 -18.7 -11.79 -10.69 0 -80.16 0.2 -47.55 19.45 -3.22 0 -10.69c0,-10.21 1.2,-0.97 -3.93,-8.01l-11.8 0 -3.93 -5.34c-8.09,-3.69 -10.2,-8.02 -19.65,-8.02l-3.93 0c-11.88,0 -10.87,3.15 -11.79,10.69 31.67,5.75 15.72,90.81 15.72,112.22l-0 0zm644.54 58.79l0 10.69 51.75 17.87 144.65 -3.89c29.08,-11.13 19.76,-12.6 19.76,-32.68 0,-6.93 2.64,-2.74 3.93,-13.36l-7.86 0 -7.85 0c-18.22,4.48 -6.88,24.05 -58.95,24.05l-58.96 0c-43.25,0 -19.81,-44.17 -15.72,-56.11l11.79 0 39.3 0c0.93,7.55 -0.09,10.69 11.79,10.69l3.93 0c12.05,0 19.65,-20.14 19.65,-26.72l0 -8.01 -7.85 -5.34 -15.73 0c-14.45,0 -9.12,8.02 -23.58,8.02l-43.23 0c0,-14.24 3.21,-13.58 7.86,-21.37 -4.04,-5.71 -7.4,-13.36 7.85,-13.36l35.37 0c42.47,0 45.74,7.99 59.03,27.08l15.65 -3.04 15.57 -3c0.15,-23.96 -9.85,-35.33 -31.29,-45.1l-39.17 3.35 -51.23 -0.68c-14.45,0 -9.12,-8.01 -23.58,-8.01l-3.93 0c-9.12,0 -58.95,16.43 -58.95,24.05 0,5.65 1.41,3.52 3.93,10.69l15.73 0 0 64.13c0,14.9 -19.66,29.08 -19.66,40.07l0.01 0zm-1277.29 -42.75c0,18.24 -9.33,106.88 11.8,106.88 1.29,0 43.23,-17.92 43.23,-26.72 0,-17.07 -7.86,-20.33 -7.86,-37.41l-8.43 -7.69 0.58 -96.51 7.65 2.9c7.28,-4.41 12,-3.42 12,-10.92l0 -2.67c0,-6.47 -44.89,-26.72 -58.96,-26.72 -11.35,0 -100.52,77.26 -102.18,90.85l-3.75 1.9 -103.38 -94.23 -57.9 20.23c4.91,4.97 31.4,30.9 31.4,37.36 0,20.59 -45.67,114.89 19.66,114.89 5.39,0 9.39,-5.57 11.79,-8.01l-8.43 -7.69 0.57 -96.51 83.81 82.23 18.38 0.6c3.74,0 24.33,-6.65 27.5,-8.01l15.57 -3 -19.94 -18.12 86.9 -83.09 0 69.47 0 0zm778.18 98.87l0 5.34 27.51 0c45.77,0 78.13,-28.88 99.07,-47.53 6.07,-5.41 58.13,-73.39 58.13,-75.38 0,-8.75 -4.74,-8.95 -11.79,-10.69l-39.31 -18.7c-19.31,1.09 -14.4,5.34 -31.43,5.34l-58.96 0c-12.18,0 -20.9,-11.88 -23.54,-18.36l54.98 -3.01 11.79 0c22.73,0 47.78,-3.94 58.96,2.67l11.79 0c2.52,-7.17 3.92,-5.04 3.92,-10.69 0,-9.03 -53.92,-25.19 -66.15,-27.78l-75.33 11.74 -35.37 2.67c-6.08,0.27 -30.59,12.9 -39.3,16.04l-4.52 5.21 55.61 53.57 15.72 0 3.93 0c11.53,-10.7 21.41,-8.01 47.16,-8.01 52.16,0 22.61,18.53 11.75,45.4 -7.5,18.53 -18.42,40.93 -51.05,42.78l-43.24 -21.37 -23.58 0c-4.74,4.82 -7.85,4.69 -7.85,10.69l0 2.67c0,5.99 3.11,5.87 7.85,10.69l15.73 10.69 27.51 8.02 0 8.01 0 0zm-516.13 -28.18c24.5,-17.63 63.8,-20.04 90.18,-34.29 17.63,-9.52 36.05,-52.66 21.14,-73.8l15.72 -24.05c-5.06,-14.78 -23.59,-19.57 -39.33,-26.94l-58.92 2.89c-12.79,-5.52 -23.58,1.16 -23.58,-10.69l0 -29.39 7.86 0 0 -8.02c-16.98,-3.85 -33.22,-2.67 -51.09,-2.67 0,25.3 19.02,23.34 5.77,47.61l-52.93 0.48c-13.66,0 -6,-5.34 -19.66,-5.34l-3.93 0c-9.84,0 -30.14,17.07 -58.94,18.7l-3.42 2.03c40.32,31.34 23.31,33.16 33.34,86.27 18.03,7.38 25.65,22.33 45.75,33.93 12.54,7.23 39.81,19.61 54.02,24.72l11.68 3.05c0.17,7.98 -8.4,12.98 -19.54,12.98l-3.61 1.06 18.21 28.66 44.44 -5.4c-1.2,-16.73 -4.1,-26.24 -13.15,-41.81l-0 0zm1274.26 -58.14l1.82 -71.86c-3.08,-1.81 -8.93,-0.96 -17.16,-2.14l0 -10.69c0,-7.19 44.91,-24.05 58.96,-24.05l3.93 0c9.45,0 11.55,4.33 19.59,6.14l78.66 -0.8c7.09,-3.23 6.91,-5.34 15.72,-5.34l3.93 0c12.36,0 23.16,11.91 31.44,16.04 12.69,13.6 -6.5,23.59 -12.36,34.35 -15.22,28 -29.18,6.5 -38.73,24.43 3.81,1.74 42.01,43.6 50.44,51.21 11.1,10.03 16.12,14.02 29.14,22.95 13.58,9.3 33.46,14.86 38.33,19.36 6.4,7.49 -4.44,11.18 -18.12,14.4 -13.92,3.29 -28.13,12.32 -29.04,12.32 -51.66,0 -84.65,-98.54 -137.55,-117.57 -6.43,2.1 -17.75,3.7 -22.9,5.81 -7.24,2.97 -5.62,5.31 -16.41,10.22l0 64.13c3.5,1.34 7.86,1.74 7.86,5.34 0,3.75 -5.36,5.34 -11.8,5.34l-3.93 0c-3,0 -55.77,-23.96 -43.23,-37.4 1.86,-5.42 7.42,-14.29 11.4,-22.19l0.01 0z"/>
    <path class="fil1" d="M354.26 53.62l7.37 -2.85 0 -2.37c0,-2.35 4.15,-3.27 7.24,-4.32 1.19,-0.41 6.35,-3.47 7.48,-4.22l0.29 -4.59 9.17 -3.01c0.46,-2.54 4.55,-3.32 10.52,-3.32l3.62 -0.39 4.63 -1.05 0.93 -2.58 -5.47 -1.24 0.5 -0.44 -12.62 0c-5.28,0 -5.25,-1.92 -5.25,-2.85 0,-1.82 0.33,-0.18 -0.84,-1.29l3.99 -1.09c-0.19,-3.79 -10.33,-4 -16.53,-5.35 -4.38,-0.95 -11.79,-5.56 -16.06,-5.56l-3.15 0 0.39 -0.54 -14.06 -1.83c-0.8,-1.56 -2.29,-4.75 -6.3,-4.75l-3.15 0c-1.5,0 -12.07,3.94 -14.72,4.75l-5.25 0c-2.94,0.88 -4.44,1.42 -9.47,1.42l-3.15 0 0 0.9 -9.47 0.52 -11.56 0.53c-1.49,1.61 -6.32,1.73 -8.6,3.19 -4.51,2.88 -0.26,2.14 -9.28,1.98l-9.45 0.08 -9.45 -0.08c-6.01,0 -7.73,3.1 -13.67,3.33l0 1.42 -7.37 0 -4.2 1.9 -2.1 0 -3.15 0 -4.84 3.07 -6.72 0.25 -1.05 -0.95c-1.09,-0.46 -2.15,-0.95 -3.16,-1.42 -4.26,-0.7 -2.08,-1.89 -6.3,-1.9l-13.67 0.11 -14.72 -0.11c-0.88,-0.98 -7.05,-1.51 -11.32,-3.44 -4.99,-2.26 -3.68,-2.41 -6.55,-5.11l-4.2 0 -3.16 2.84 -4.55 2.24 -8.07 0.14c-1.44,1.79 -7.59,1.63 -11.58,3.3 -4.17,1.74 -5,2.16 -12.58,2.4 -8.54,0.27 -30.26,-1.11 -35.74,0.47 -2.66,0.8 -5.69,2.85 -8.41,2.85l-4.2 0 0 0.95 -5.26 0 -3.56 1.67 -17.43 0.84c-5.31,1.47 -18.8,3.79 -18.95,6.98l4.22 0c3.64,0 1.6,-0.95 5.25,-0.95l4.2 0 0 -0.95 14.72 0c2.35,0 2.3,0.37 4.2,0.95l5.25 0 3.03 1.02 10.62 0.49c6.18,1.77 12.86,1.81 23.15,1.81 6.73,2.03 12.41,1.06 17.87,4.75l2.1 1.89 4.98 4.8c-0.86,0.72 -4.98,4.06 -4.98,5.17 0,3.43 17.88,5.32 17.88,8.06l0 3.8c2.2,0.4 5.24,4.6 5.24,5.7 0,0.25 -1.51,1.04 -2.09,1.43l0 2.37 2.09 6.17 -1.04 1.42c-3.44,2.45 -5.23,11.48 -10.52,12.35l-4.2 13.76c-1.56,1.02 -2.1,1.56 -2.1,3.32l0 1.43 -2.1 0c0.14,2.68 10.6,10.74 13.67,12.33l2.1 1.43 2.58 4.7 4.6 5.14 1.23 0.13 0 1.43c0,0.58 3.16,3.49 3.16,6.64l2.25 1.37 -0.15 1.96c1.26,0.85 2.1,0.83 2.1,1.89l0 2.37 2.09 0 -1.28 2.83 3.32 0.58 0.08 1.33 -0.33 9.5 0.33 5.21 -3.18 0.46 -1.88 7.16 8.21 2.83 2.1 0 0 6.64 1.26 13.76 1.9 0.01 0 1.89c0,1.07 -0.84,1.05 -2.11,1.89l0.88 1.93 -12.63 9.68 -0.85 1.22c0,1.24 -5.19,4.83 -8.41,5.22l1.27 3.3c6.15,0.79 6.35,4.46 14.49,4.77l0 1.9 2.1 0 0 1.43c0,0.58 -3.15,3.48 -3.15,6.64l0 1.89c0,1.61 4.64,4.61 6.3,6.17l-1.05 0.95 -2.1 0 0 1.42 4.2 0 0 1.9 -1.07 -0.26 -5.25 4.52 8.35 7.36 1.12 -0.24 0 1.43c0,1.07 0.84,1.04 2.1,1.9l3.74 8.48 1.68 1.44 -0.15 2.9 2.25 1.37 -0.15 3.86 2.25 1.37 -0.15 4.33 2.25 1.36 1.19 11.92 1.81 0.01 0 3.32 2.1 0 0 2.85c0,1.72 12.62,5.88 12.62,9.01 0,1.65 -2.1,0.72 -2.1,2.37l0 3.8c0,1.24 3.81,3.12 4.21,4.75l5.25 0 -4 -3.85c1.33,-0.98 6.1,-4.16 6.1,-5.64 0,-2.21 -5.52,-5.4 -6.54,-6.53 -1.34,-1.49 -0.81,-6.23 -0.81,-8.65l-2.26 -1.37 -1.7 -6.72 -0.25 -2.83 2.7 -7.07c0.66,-0.9 1.51,-0.88 1.51,-1.94l0 -9.02c0,-1 -4.21,-3.27 -4.21,-4.26l0 -0.48c0,-0.38 3.74,-3.97 4.5,-5.57 1.15,-2.44 -0.29,-3.76 -0.29,-6.78l0 -0.47c0,-2.32 1.1,-3.33 4.2,-4.27l1.16 -4.26c0.46,-1.75 -1.92,-3.56 -4.33,-4.29l-1.34 -7.11 -1.81 -0.01 0 -2.85 -2.1 0 0 -8.54c0,-1.65 2.1,-0.73 2.1,-2.37l0 -1.9 2.11 0c0,-2.61 -0.14,-5.94 4.2,-6.64l1.05 -5.22 2.49 -3.76 1.71 -0.04c0,-2.81 6.25,-14.19 9.47,-14.71l0 -3.8c-1.3,-0.23 -11.57,-4.08 -11.57,-5.22l0 -4.75c0,-1.07 0.83,-1.04 2.1,-1.89l1.3 -8.06c-0.1,-0.8 -6.5,-3.12 -7.6,-3.8l4.2 -3.32c1.98,-0.66 6.63,-6.13 7.98,-7.79 1.1,-1.35 8.83,-5.25 8.83,-7.4l0 -1.42c0,-1.26 -4.19,-3.59 -6.05,-4.39 -3.09,-1.32 -3.68,-2.72 -5.85,-4.47 -1.12,-0.9 -9.1,-9.21 -9.1,-9.65l0 -4.74 -8.41 -5.23 2.31 -9.07 0.84 -1.84c0,-1.73 -3.23,-4.12 -7.35,-4.27l1.1 -7.59 4.94 -5.09c6.38,-1 10.78,-7.54 10.78,-12.48l2.1 0 -1.07 -1.42 -4.19 -0.96 -8.41 0.01 0 -2.37c1.26,-0.86 2.1,-0.83 2.1,-1.9 0,-13.13 -6.68,-9.28 8.41,-19.45l3.03 -1.02c6.33,0.07 10.17,0.22 10.64,-2.31l4.19 0 0 -3.8c0,-0.83 -3.68,-2.83 -2.58,-4.96 1.23,-2.41 5.74,-2.24 5.74,-4.06l0 -0.48c0,-0.79 -3.16,-2.62 -3.16,-5.7l0 -0.95c0,-1.06 0.84,-1.04 2.11,-1.9l13.67 -0.95 11.56 0 14.82 2.74 4.1 0.1 1.2 -1.41 4.05 -0.01c6.18,1.34 17.47,6.19 18.92,9.02l0.71 -0.36 5.03 2.01 -0.11 0.53 -5.25 1.42 -0.38 1.14 5.02 1.16c0.25,3.08 -1.71,7.01 -0.8,9.76l1.05 4.27c-3.77,0.03 -7.37,0.2 -7.37,1.89l0 0.94c0,2.22 2.1,1.49 2.1,4.75 3.42,0.41 16.83,4.42 16.83,6.17l0 2.37c0,1.07 -0.84,1.05 -2.11,1.9 0,3.52 -3.15,3.95 -3.15,6.16l0 7.12c0,1.05 3.15,1.96 3.15,5.7l2.11 0 0 0.95 -2.11 0 0 2.84 2.11 0 0 0.95 0 1.89 -2.11 0 -1.3 10.92 0.25 1.44c0,1.45 12.62,4.46 12.62,8.06 0,1.07 -0.83,1.04 -2.11,1.9l-3.14 9.01 0 3.32c-1.27,0.86 -2.1,0.83 -2.1,1.9l0 4.27c0,1.86 1.57,0.05 2.1,2.85l-2.1 0 0 6.64c2.69,0.44 7.35,1.75 7.35,3.32l0 4.27 2.1 0 1.25 5.68 1.91 0.01 0 1.43c0,1.64 2.1,0.72 2.1,2.37l0 4.74c0,2.26 -3.14,-0.22 -1.05,1.9l-8.32 6.66c-0.11,2.93 1.56,7.65 -3.25,8.52l0 5.7c0,1.65 -2.1,0.73 -2.1,2.38l0 1.9 -5.26 1.9c-1.65,0.54 -2.1,0.09 -2.1,1.43l0 4.26 -4.2 3.32 -1.04 0.95 -5.26 4.97 -1.07 -0.22 0 4.27c0,3.08 14.72,6.91 14.72,12.81 0,1.79 -0.69,0.9 -1.05,2.85l-1.05 5.69 -2.1 0 0 2.37 2.1 0c0.96,5.18 -1.46,11.91 6.32,13.77 0,3.51 2.1,2.11 2.1,3.79l0 1.43 -2.1 0 0 2.85c0,1.65 -2.1,0.73 -2.1,2.38l0 0.95c0,1.86 1.59,0.05 2.1,2.84l1.14 0.92 -0.09 0.98c-0.93,0.86 -5.26,4.21 -5.26,4.74 0,0.08 4.22,3.63 4.22,4.27l0 7.12 2.1 0 0 2.85c0,1.14 1.7,1.39 3.14,2.37l-5.24 5.22 -2.1 0 0 0.95c-4.95,2.12 -2.31,6.32 1.86,8.17 2.83,1.26 10.74,4.94 10.74,7.02l0 4.27 2.11 0 0 1.9c0,1.85 1.92,0.09 2.1,3.33 2.97,0.11 4.19,-0.01 4.19,1.42l0 8.06c0,1.44 -1.23,1.33 -4.19,1.43l0 6.65 -2.1 0 0 2.85 -2.11 0 -1.05 10.44 5.26 0c1.94,-2.43 4.4,-4.43 7.89,-6.4 4.06,-2.29 6.83,-2.64 6.83,-6.88l5.42 -2.79 -0.18 -14.29c7.25,-4.89 4.22,-3.76 4.22,-10.45 0,-0.47 4.53,-5.21 5.25,-5.69l-1.33 -7.59 0.27 -1.44c0,-2 1.46,-0.25 3.15,-2.38l1.05 -0.48c1.56,-1.01 2.1,-1.56 2.1,-3.32 0,-2.34 -10.37,-9.92 -14.72,-10.45l0 -4.27c0,-1.31 -0.81,-1.14 -3.15,-1.42l0 -2.37 2.1 0 1.05 -12.34 0.98 -9.97 -0.98 -4.26c3.3,-0.35 8.41,-1.65 8.41,-3.33l0 -0.94c0,-1.07 -0.83,-1.05 -2.1,-1.9l0 -9.49 -1.05 -2.85c1.56,-1.02 2.1,-1.57 2.1,-3.33 0,-1.77 -0.34,-3.28 -3.15,-3.8l0 -3.79c0,-1.36 4.2,-2.24 4.2,-4.75 0,-1.28 -0.5,-1.31 -1.05,-2.38l-3.15 0 0 -2.37 -2.1 0 0 -1.43c0,-1.06 0.83,-1.04 2.1,-1.89 0,-7.24 5.1,-6.03 5.25,-9.02l3.15 -0.95c2.49,-1.77 -0.48,-4 3.6,-6.45 3.94,-2.37 3.86,-2.89 6.91,-4.94 0,-4.79 -1.04,-5.82 4.2,-8.54l2.46 -3.28 13.71 -6.04 0.1 -11.08c-1.76,-0.86 -2.6,-0.83 -2.6,-1.9l0 -1.43 -2.11 0 1.12 -0.18 -9.53 -11.68 0 -0.95 0 -4.27c-2.69,-0.49 -4.2,-2.18 -4.2,-3.8 0,-0.54 3.15,-3.35 3.15,-6.16l3.4 -3.03 0.81 -5.99c0,-1.65 -2.11,-0.73 -2.11,-2.38l0 -0.48c0,-1.06 0.84,-1.04 2.11,-1.89l11.17 -4.46 0.39 -6.93 -2.1 0 0 -3.8c0,-1.05 -5.26,-4.9 -5.26,-8.54 -5.79,-3.91 -2.09,-2.58 -2.09,-7.12 1.97,-1.33 5.25,-5.01 5.25,-7.11 0,-0.8 -10.52,-4.8 -10.52,-7.6l0 -1.43c0,-1.95 3.16,-3.29 3.16,-6.64 0,-0.64 -3.44,-3.27 -4.21,-3.79l-1.05 -4.27 0 -0zm187.12 -20.48l-1.05 -0.95 3.21 -7.51 -1.13 -0.08 -6.29 0 0 -0.95 -3.16 0 0.99 -0.35 -10.84 -6.15 -22.67 -1.36 -6.28 -4.21 0.96 -0.27c-4.23,0.04 -19.21,4.84 -19.97,5.7l-5.25 0c-4.08,0 -0.19,0.87 -7.37,0.95 -0.4,1.64 -5.64,5.82 -7.23,7.17 -3.6,3.02 -8.34,2.79 -14.84,2.79l-3.15 0 -8.4 2.85 -3.6 1.09 0.45 0.48 -14.73 0c-5.49,-0.15 -11.78,2.22 -14.83,3.6 -3.9,1.77 -5.88,4.55 -12.49,4.8 0.31,6.19 29.8,-1.73 33.64,5.69 5,0.05 8.63,1.68 12.62,1.42l14.72 -1.42 4.19 0 9.88 1.92 -0.41 0.45 6.3 0 0 0.95 5.26 0 2.28 2.17 0.88 2.58 7.23 1.1c-0.98,1.98 -5.13,3.4 -5.13,4.59l0 1.9 2.1 0 0 4.74c-1.56,0.81 -2.1,0.83 -2.1,2.38l0 3.8c0,1.65 2.1,0.72 2.1,2.37l0 2.85c0,0.98 -6.3,5.97 -6.3,6.64 0,1.56 5.98,4.11 9.45,4.28 -1.07,2.08 -17.18,10.32 -22.07,10.92l0 1.42c0,3.75 12.62,3.7 12.62,10.45l-3.06 2.39 -0.09 7.57c-1.09,0.74 -3.16,1.74 -3.16,2.85 0,2.15 1.23,3.91 3.16,5.22l0 3.8 11.18 6.76c0.37,3.09 2.61,4.73 7.74,5.57l-2.5 8.05 -1.86 1.39 0.16 1.96 -2.26 1.37 -0.3 11.44 9 7.8 1.96 7.87 3.74 5.3c-6.06,6.06 -4.79,13.75 -4.79,22.69l-1.3 10.91 0.25 5.23c-3.8,0.63 -11.57,6.95 -11.57,9.97l1.04 -0.17 3.18 3.49 2.18 2.54 0.98 4.1 -2.1 0 0 5.22c0,1.07 -0.84,1.05 -2.11,1.9l-1.17 4.26c-2.86,0.12 -9.63,1.58 -9.33,2.86l1.21 6.16c1.1,0.86 1.94,0.84 1.94,1.91l0 1.42c6.7,1.22 9.07,9.7 5.25,13.29l-2.46 10.47 -0.69 4.72 4.19 0.95c0.01,2.96 0.05,4.91 0.85,7.22 1.15,3.34 -2.74,5.32 4.43,5.59 1.14,-2.2 7.35,-4.08 7.35,-5.69 0,-1.65 -2.1,-0.73 -2.1,-2.38l0 -2.85 -2.11 0 0 -2.38c0,-0.67 4.39,-3.99 5.26,-4.74 5.38,-3.49 8.69,-7.63 12.42,-11.96 2.69,-3.14 14.42,-9.43 13.86,-11.29l-1.31 -4.73 -1.84 -0.02 0 -0.95 0 -17.56 5.29 -3.79 -2.28 -9.01 -4.7 -3 -0.41 -5.56 9.58 -8.78 0.94 0.24c0,-3.26 2.1,-2.54 2.1,-4.75l0 -0.95c0,-5.94 -3.13,-5.76 -8.41,-9.01 0.58,-1.11 1.05,-1.41 1.05,-2.85l0 -0.95c0,-1.66 -6.18,-2.25 -2.1,-3.8l2.45 -4.24c2.45,-0.54 7.44,-6.51 8.71,-8.27 1.13,-1.56 7.77,-7.36 7.77,-8.37l0 -1.89c0,-2.05 -2.11,-1.92 -2.11,-3.32 0,-1.58 3.39,-3.21 2.28,-6.68 -1.03,-3.18 -3.33,-3.17 -3.33,-6.6l-1.1 0.36 -11.72 -7.29 -3.48 -4.54 -0.9 -7.05 1.42 -0.94 3.49 -6.25 0.73 -3.71 4.44 -5.19c-3.13,-2.49 -7.4,-4.47 -13.89,-5.26l0 -1.9c2.68,-0.49 4.19,-2.18 4.19,-3.8l0 -7.59 -2.35 -9c0.25,-0.03 3.13,-2.63 3.4,-2.87l8.85 -5.87 0.61 -6.47 1.27 0.2 3.68 -4.82 2.32 -0.68 0.08 -3.23c0,-2.68 5.26,-3.02 8.4,-5.7l5.31 -0.35 -0.05 -1.08 -2.1 0 0 -6.17 3.15 0 7.54 -6.86 0.86 -3.1c0,-2.02 -6.65,-2.25 -8.4,-5.22 2.21,-0.4 6.32,-3.03 6.32,-4.26 0,-3 -4.2,-3.59 -4.2,-6.65l-3.16 0c-1.82,0 -5.05,-1.03 -6.3,-1.43l0 -0.01z"/>
   </g>
  </g>
 </g>
</svg>
