<?xml version="1.0" encoding="UTF-8"?>
<!DOCTYPE svg PUBLIC "-//W3C//DTD SVG 1.1//EN" "http://www.w3.org/Graphics/SVG/1.1/DTD/svg11.dtd">
<!-- Creator: CorelDRAW -->
<svg xmlns="http://www.w3.org/2000/svg" xml:space="preserve" width="39.3084mm" height="5.4557mm" version="1.1" style="shape-rendering:geometricPrecision; text-rendering:geometricPrecision; image-rendering:optimizeQuality; fill-rule:evenodd; clip-rule:evenodd"
viewBox="0 0 867.23 120.37"
 xmlns:xlink="http://www.w3.org/1999/xlink"
 xmlns:xodm="http://www.corel.com/coreldraw/odm/2003">
 <defs>
  <style type="text/css">
   <![CDATA[
    .fil0 {fill:black}
   ]]>
  </style>
 </defs>
 <g id="Camada_x0020_1">
  <metadata id="CorelCorpID_0Corel-Layer"/>
  <path class="fil0" d="M3.71 58.8l1.07 7.21c0,5.04 -4.11,8.13 -4.77,10.6l83.03 -2.39 124.2 -3.92 83.23 -2.18c2.67,-0.34 24.2,-16.49 24.68,-18.29l-26.27 -14.69 -285.15 23.66zm482.47 36.63l8.86 0c1.1,-0.69 9.61,-0.87 11.79,-1.31 4.4,-0.89 6.28,-1.34 9.79,-2.93 7.45,-3.37 8.93,-5.57 10.95,-14.47 1.63,-7.19 3.96,-13.23 5.59,-20.21 1.26,-5.42 5.03,-14.98 5.03,-20.38 0,-8.13 -17.03,-11.17 -26.2,-11.17l-3.47 0c-9.17,0 -22.28,2.8 -27.97,6.31 -5.1,3.14 -5.4,4.14 -7.47,9.87 -0.69,1.93 -3.47,11.51 -3.47,13.47 -1.07,1.6 -8.09,26.9 -8.09,30.04 0,5.62 5.52,6.59 9.52,8.2 3.21,1.29 14.15,1.96 15.14,2.58zm11.56 -10.4l-5.01 0.38 -1.93 0c-1.41,0 -3.08,-1.06 -3.08,-2.31l0 -1.92c0,-1.75 6.36,-22.95 7.38,-26.13 1.25,-3.92 2.16,-9.5 3.68,-13.26 1.88,-4.63 1.97,-7.97 8.98,-7.97l1.15 0c1.87,0 3.47,1.09 3.47,3.08l0 1.15c0,2.83 -5.46,20.11 -6.55,24.26 -0.94,3.62 -2.38,8.13 -3.47,11.93 -0.5,1.73 -0.95,4.81 -1.47,6.23 -0.87,2.39 -2.01,2.84 -3.15,4.56zm61.26 8.86c1.2,-5.14 2.97,-10.23 4.32,-15.71 1.12,-4.57 3.03,-11.01 4.5,-15.53 1.33,-4.06 3.57,-11.66 4.37,-15.65 0.49,-2.44 1.88,-5.86 2.18,-7.83 0.46,-2.99 1.7,-4.97 5.04,-4.97l2.7 0c1.56,0 3.47,0.41 3.47,1.93l0 1.54c0,3.29 -2.31,6.61 -2.31,10.4l25.42 -0.97c1.34,-2.31 2.7,-8.16 2.7,-12.12l0 -0.77c0,-5.65 -5.23,-8.09 -10.79,-8.09l-48.55 0 -18.83 67.68 25.76 0.09zm308.23 -66.62l0 -1.16 -25.43 0 -3.49 11.55 25.07 0.01c2.1,0 2.41,-8.74 3.85,-10.4zm-35.84 -1.16l-24.65 0c-1.6,0 -4.07,9.55 -4.24,11.55l25.66 -0.05 3.24 -11.51zm-77.82 14.25c1.78,-2.66 1.03,-6.16 5.78,-6.16l3.85 0c1.41,0 3.08,1.06 3.08,2.31 0,2.67 -2.04,7.96 -2.7,10.78 -5.12,1.19 -11.82,1.85 -17.17,2.86 -6.68,1.26 -10.03,2.37 -15.53,4.51 -5.07,1.98 -7.91,4.77 -9.53,10.5 -0.82,2.92 -4.01,13.27 -4.01,15.63 -0.47,0.69 -0.77,0.68 -0.77,1.54l0 2.31c0,7.76 8.32,10.01 16.18,10.01l14.25 0 29.66 -0.88c0.01,-3.43 3.02,-10.69 3.77,-14.22 1.09,-5.05 2.63,-9.43 3.84,-14.26 1.18,-4.69 7.8,-25.13 7.8,-28.02l0 -0.77c0,-8.14 -15.31,-11.55 -23.89,-11.55l-5.4 0c-8.92,0 -14.47,1.15 -21.28,2.99 -6.68,1.8 -9.49,6.37 -11.08,13.19l6.55 0 16.57 -0.77zm6.38 19.99c-3.89,6.1 -3.18,26.22 -12.55,26.22l-2.31 0c-2.29,0 -4.63,-0.45 -4.63,-2.7 0,-3.3 3.73,-15.66 4.86,-19.01 1.21,-3.56 1.47,-5.68 5.01,-6.93 1.5,-0.53 8.69,-1.78 10.58,-1.77l-0.98 4.19zm-119.27 -4.97c0,-2.54 2.18,-7.7 2.67,-10.43 0.6,-3.36 2.1,-7.29 5.81,-7.29l2.31 0c2.12,0 3.85,0.51 3.85,2.7l0 1.54c0,0.24 -5.33,19.99 -5.86,21.48 -0.92,2.56 -5.7,18.82 -5.7,21.26l-2.68 9.24 25.41 -0c0.27,-3.23 6.8,-26.17 8.16,-29.59 2.19,-5.51 4.84,-26.64 10.72,-26.64l3.47 0c1.65,0 3.08,1.19 3.08,2.7 0,4.04 -5.94,22.15 -7.25,27.02 -1.26,4.67 -2.66,8.69 -3.77,13.18 -1.14,4.58 -2.65,9.14 -3.62,13.32l25.82 0c2.06,-8.83 5.03,-17.61 7.47,-26.42 1.11,-4 7.17,-24.61 7.17,-26.72l0 -1.16 0.77 0 0 -3.85c0,-5.9 -5.69,-7.12 -8.86,-9.24l-11.53 -1.37 -7.73 0.21c-4.16,0 -8.75,2.05 -11.89,3.13 -3.39,1.17 -8.15,5.03 -9.3,5.34 -1.35,-5.06 -10.41,-8.86 -17.34,-8.86l-8.48 0c-0.22,0 -7.54,1.41 -8.05,1.58 -2.84,0.93 -4.21,1.81 -6.75,2.88 -3.5,1.47 -8.15,6.13 -9.24,10.02 -1.35,4.79 -3.24,10.14 -4.45,14.81 -0.78,3.03 -3.87,12.85 -3.87,15l-0.82 1.11 -6.3 23.48 26.01 0.06 10.21 -37.3 0.58 -1.21zm185.38 -10l-25.87 -0.02 -13.37 48.44 25.7 0.08 7.22 -25.72 6.33 -22.78zm35.9 0.02l-24.79 -0.04c-1.4,0 -3.47,9.52 -4.02,11.38 -1.21,4.1 -2.28,7.98 -3.38,12.03 -0.76,2.8 -6.86,23.12 -6.86,23.94l0 1.16 25.64 -0.05 13.41 -48.44zm-487.14 48.48c1.17,-5.02 3.11,-9.88 3.89,-14.98 0.32,-2.1 3.31,-12.26 4.15,-14.72 1.56,-4.58 2.39,-10.35 4.14,-14.74 1.5,-3.77 1.58,-11.79 6.7,-11.79l2.7 0c2.3,0 3.85,0.78 3.85,3.08l0 0.39c0,3.81 -5.78,20.93 -7.02,26.49 -1.83,8.22 -5.17,17.38 -7.24,26.27l25.43 0 3.91 -15.11c0.33,-3.68 5.12,-17.44 6.27,-22.09 1.2,-4.83 3.67,-19.03 8.7,-19.03l3.47 0c1.41,0 3.08,1.06 3.08,2.31l0 0.39c0,3.63 -6.07,22.05 -7.24,26.65 -1.39,5.46 -7.02,22.48 -7.02,26.87l25.43 0c2.21,-9.49 5.19,-18.72 7.93,-27.89 0.69,-2.31 0.99,-5.26 1.63,-7.22 0.81,-2.47 1.55,-3.8 2.03,-6.83 0.63,-4.01 3.43,-9.7 3.43,-14.28l0 -1.54c0,-8.79 -10.6,-10.78 -19.65,-10.78l-8.09 0c-3.8,0 -9.02,2.23 -11.94,3.08 -3.66,1.07 -7.73,4.98 -9.25,5.39 -1.38,-5.18 -10.44,-8.86 -17.34,-8.86l-8.48 0c-1.41,0 -9.85,2.18 -11.18,2.69 -2.54,0.97 -6.59,3.31 -8.37,5.11 -5.35,5.37 -6,10.62 -8.19,18.78 -1.74,6.52 -3.64,14.84 -5.9,21.06 -0.8,2.22 -5.66,19.79 -5.66,21.29l25.81 0zm-206.13 -93.89c-26.17,0 -41.3,-0.09 -67.7,6.31 -15.57,3.77 -36.18,11.5 -49.55,20.47 -3.63,2.43 -21.2,14.98 -22,18.17l25.19 -1.99c-0.08,-3.33 -3.14,-4.44 -3.72,-6.89 2.41,-0.57 25.93,-23.86 74.8,-23.86 9.86,0 20.92,4.01 26.58,12.93 1.13,1.78 3.66,6.99 3.67,9.73l104.5 -8.08c-1.3,-4.88 -31.7,-17.11 -40.34,-18.8 -3.78,-0.74 -7.95,-2.15 -11.89,-2.97 -3.74,-0.77 -9.1,-1.17 -12.66,-2.2 -3.17,-0.91 -26.81,-2.76 -26.89,-2.81zm23.34 114.26c11.59,0 63.31,-20.07 71.88,-32.87l-105.04 2.97c0,24.07 -28.22,26.73 -46.69,26.73 -16.92,0 -37,-6.01 -51.87,-13.38 -1.32,-0.66 -4.88,-3.24 -5.96,-3.32l3.48 -7 -26.03 0.37c1.66,4.59 33.57,21.38 44.55,23.88 27.56,6.27 26.49,8.73 61.82,8.73 24.46,0 48.87,-5.57 53.05,-5.57l0 -0.53 0.8 0z"/>
 </g>
</svg>
