<?xml version="1.0" encoding="UTF-8"?>
<!DOCTYPE svg PUBLIC "-//W3C//DTD SVG 1.1//EN" "http://www.w3.org/Graphics/SVG/1.1/DTD/svg11.dtd">
<!-- Creator: CorelDRAW -->
<svg xmlns="http://www.w3.org/2000/svg" xml:space="preserve" width="150mm" height="19.9998mm" version="1.1" style="shape-rendering:geometricPrecision; text-rendering:geometricPrecision; image-rendering:optimizeQuality; fill-rule:evenodd; clip-rule:evenodd"
viewBox="0 0 2690.66 358.75"
 xmlns:xlink="http://www.w3.org/1999/xlink"
 xmlns:xodm="http://www.corel.com/coreldraw/odm/2003">
 <defs>
  <style type="text/css">
   <![CDATA[
    .fil1 {fill:none}
    .fil0 {fill:#282829}
   ]]>
  </style>
 </defs>
 <g id="Camada_x0020_1">
  <metadata id="CorelCorpID_0Corel-Layer"/>
  <g id="_2937103465728">
   <g id="_2676136098928">
    <path class="fil0" d="M885.15 268.91c-8.58,0 -6.64,-5.18 -5.52,-10.5l29.36 -89.83c6.27,4.31 8.07,18.83 10.59,25.68 3.12,8.45 5.75,17.42 8.83,26.04 19.85,55.43 18.94,47.33 -0.53,47.78l-42.74 0.83 0.01 -0zm1617.3 -170.48c24.16,0 6.64,-3.43 49.59,-3.43 0.74,-6.75 3.71,-14.56 6.07,-21.41 7.89,-22.78 19.68,-50.54 19.68,-73.32 -62.72,0 -53.33,-4.11 -62.89,19.84 -8.84,22.12 -9.56,29.85 -15.84,53.48 -3.04,11.44 -8.02,24.85 3.39,24.85zm-107.66 58.18c11.06,0 7.58,-10.56 7.45,-19.15 -0.24,-15.68 3.34,-12.57 0,-19.12 -10.35,-3.45 -48.32,0 -65.97,0l-101.07 -0.37c-11.25,0.74 -21.05,-2.13 -21.05,5.82 0,35.85 -4.62,32.82 25.75,32.82 4.7,58.06 4.74,122.89 4.66,181.07 -0.07,8.83 -3.8,20.85 7.47,20.85 59.64,0 52.37,3.59 51.97,-17.4l-0.05 -63.33c0,-22.94 -5.18,-31.26 13.58,-32.25 54.65,-2.87 58.98,10.24 59.09,-17.37 0.02,-2.3 0.22,-6.55 -0.02,-8.63l-1.73 -5.82c-0.7,-5.82 -56.04,-2.98 -66.24,-2.98l-2.68 -44.01c-0.6,-4.32 -1.82,-4.88 -1.98,-10.12l90.83 0 -0.01 -0zm-1350.91 6.53c0,17.28 -1.57,20.98 5.77,38.7 11.86,28.6 46.21,34.38 76.07,42.24 12.44,3.28 29.1,7.03 39.7,13.62 14.19,8.83 15.37,32.39 6.9,43.6 -7.55,10.01 -21.41,8.67 -34.4,8.67 -18.03,0 -18.38,-32 -18.79,-33.63 -3.49,-13.5 -17.63,-10.92 -37.38,-10.87 -16.85,0.04 -28.68,-0.58 -42.56,1.72 -0.23,8.1 -2.5,6.15 -2.24,13.94 0.42,12.38 7.22,27.12 16.31,37.92 22.35,26.55 65.67,22.35 105.72,22.35 32.34,0 87.02,-12.18 87.02,-44.8 0,-48.25 -10.67,-67.08 -75.68,-82.04 -16.22,-3.73 -48.89,-10.23 -58.17,-20.55 -5.57,-6.2 -6.21,-18.18 -5.12,-24.44 1.06,-6.06 0.45,-8.18 4.01,-12.45 10.67,-12.82 38.63,-7.89 43.95,0.25 8.97,13.73 2.2,43.72 18.02,43.72 73.43,0 63.62,-0.04 63.62,-37.95 0,-13.47 -9.89,-30.28 -28.25,-37.92 -28.25,-11.75 -114.68,-12.55 -136.91,-2.15 -19.21,8.98 -27.62,22.33 -27.62,40.08l0.02 -0.01zm716.83 118.37c-9.37,18.61 -45.08,14.78 -69.99,14.78l-4.71 -66.39c0.1,-11.98 0,-23.98 0.04,-35.96l0.01 -30.48c19.7,0 53.21,-2.18 66.05,9.22 0.3,0.27 0.73,0.66 0.99,0.96 5.35,5.64 7.52,18.26 9.36,23.84 5.59,16.98 6.06,68.53 -1.74,84.03l-0 0.01zm54.19 18.9c6.1,-5.48 5.33,-4.37 8,-13.15 7.09,-23.3 5.47,-87.14 -1.34,-112.06 -1.77,-6.49 -7.31,-14.6 -12.42,-20.16 -31.66,-34.48 -141.63,-26.42 -198.85,-26.42 -3.18,29.12 0.04,17.51 0,44.8 -0.08,46.97 -2.4,93.19 -2.35,140.31 0,13.13 -2.32,17.43 7.45,17.43 65.54,0 146.73,6.65 192.64,-25.46l6.86 -5.29 0 0zm-1163.36 -67.1c0,-9.24 43.03,-15.51 54,-0.54 7.84,10.69 5.99,38.2 5.99,50.16 0,16.53 -54.09,9.96 -59.99,9.96l0 -59.58 -0 0zm4.68 -37.96c0,-10.74 0.01,-21.46 0,-32.19 -0.01,-7.62 -4.26,-25.35 6.59,-25.35 33.11,0 51.06,-2.68 51.06,27.07 0,40.18 -21.21,32.8 -57.66,30.48l0 -0.01zm98.3 14c16.07,-15.45 11.64,-6.28 14.18,-30.65 2.11,-20.27 5.38,-48.84 -23.3,-62.29 -9.82,-4.6 -29.03,-8.32 -44.99,-8.32 -127.11,0 -110.82,-6.27 -110.59,20.85l-2.33 73.58c0,33.46 -2.35,64.22 -2.35,99.24 0,23.98 -2.91,21.18 23.8,20.88 43.79,-0.5 123.37,10.04 160.05,-11.65 18.38,-10.86 17.02,-44.58 14.07,-62.68 -4.11,-25.25 -11.28,-22.32 -28.55,-38.95l0.01 -0zm1870.07 -59.89c0,-36.6 5.52,-31.12 -44.88,-31.11l-107.67 0c-42.17,0 -47.23,-3.82 -47.23,8.87 0,30.57 -14.16,43.09 28.09,43.09l-2.29 102.4c0.05,9.96 -1.82,12.43 -2.41,20.45 -1.83,24.9 2.35,10.84 -3.49,41.99 -1.3,6.9 1.16,11.5 1.13,19.95l234.49 0c9.01,0 7.14,-3.89 8.36,-9.83 7.06,-33.79 -5.47,-26.78 -29.43,-26.72l-107.66 0c-50.46,0 -37.21,11.73 -37.1,-49.37 0.02,-10.5 2.43,-13.03 2.43,-23.58 11.58,0 17.68,-1.8 32.3,-1.73 51.12,0.21 81.44,5.11 70.69,-29.69l-91.27 -3.43 -0.04 -43.86c93.46,0 95.99,6.36 95.99,-17.43l-0.01 0zm-1180.05 17.43c9.02,0 8.96,-3.9 10.36,-10.09 1.5,-6.61 7.45,-38.45 -8.02,-38.45l-182.55 0c-5.93,0 -7.45,1.12 -7.45,5.44 0,54.32 -7.89,46.51 28.09,46.51 0,10.88 -2.27,13.68 -2.43,23.57 -2.19,54.05 -5.16,107.29 -4.45,161.22l234.34 0c11.07,0 7.37,-9.11 7.42,-17.47 0.14,-25.62 17.78,-19.08 -91.67,-19.08 -97.76,0 -83.83,7.89 -83.83,-28.78 0,-17.19 4.68,-28.54 4.68,-44.18 11.52,0 14.13,-1.75 27.57,-1.77 21.96,-0.02 75.41,3.47 75.41,-12.23 0,-22.38 1.05,-16.13 -20.67,-17.95 -90.77,-7.65 -71.13,19.43 -70.45,-46.75l83.67 0 0 0zm-1406.61 184.82c12.76,-0.55 18.55,-2.18 22.01,-10.04 3.55,-8.05 1.77,-114.3 1.77,-128.58l49.09 78.01c15.75,24.72 17.31,36.63 41.77,36.63 19.36,0 16.83,0.99 33.19,-1.71 4.01,-12.97 7.02,-80.48 7.02,-97.85l-2.25 -97.59c-0.11,-8.46 -1.72,-9.12 -2.43,-15.65 -70.46,0 -69.22,-4.94 -68.95,12.2 0.1,6.37 -0.35,14.45 0.34,20.59 2.76,24.61 2.22,52.94 2.22,80.15 -15.43,-22.95 -29.25,-55.77 -43.61,-82 -19.28,-35.2 -6.13,-27.51 -78.09,-27.51 0,17.79 0,35.57 0,53.36 0,19.52 2.37,32.65 2.34,51.33 -0.06,36.26 2.37,67.76 2.34,102.66 -0.04,31.43 -5.19,27.65 33.25,26l0.01 -0zm285.93 -183.1c5.32,3.66 24.13,67.03 27.71,76.46 9.25,24.32 11.13,23.86 -16.45,23.86 -44.74,0 -48.86,8.43 -33.79,-34.85 7.53,-21.65 14.75,-43.69 22.53,-65.48l0 0zm-108.53 -48.54c-6.13,19.84 -4.68,13.29 -4.68,34.54 0,10.44 33.85,3.73 58.51,3.73 0,12.86 -1.37,15.21 -5.72,27.89 -9.81,28.62 -12.61,30.22 -22.59,67.35 -1,3.73 -1.43,7.08 -2.77,11.67 -3.56,11.37 -6.53,24.07 -10.25,35.25 -4.61,13.84 -11.8,34.89 -7.82,47.77 14.59,0 50.12,11.27 59.56,-5.12 4.52,-7.84 5.53,-44.5 20.45,-44.5l69.77 0c0.36,10.62 9.75,29.83 14.6,40.5 4.55,9.98 2.36,5.51 8.81,12.54l46.26 -5.95c17.53,-3.23 14.41,0.64 9.39,-19.13 -9.48,-37.35 -32.35,-83.69 -46.62,-123.38l-16.38 -41.28c-2.34,-5.5 -5.68,-8.49 1.21,-10.12 11.08,-2.62 39.76,3.87 39.76,-7.5 0,-44.48 3.74,-29.39 -47.15,-29.34l-53.86 1.71c-18.28,0.41 -37.64,-1.29 -55.37,0.66l-55.12 2.7 0.01 0zm1709.44 147.15c0.2,-5.8 1.64,-7.12 3.27,-12.58l23.62 -73.41c2.17,-6.11 0.11,-5.94 3.54,-10.91 8.83,2.62 10.29,24.72 15.8,37.29l13.45 38.02c1.95,6.71 2.9,9 4.6,14.04 5.58,16.54 -48.94,10.25 -64.28,7.55zm114.27 -115.73c9.93,0 21.49,-1.74 21.49,-8.87 0,-41.03 -7.97,-27.53 -49.5,-27.65 -42.17,-0.12 -99.04,3.26 -140.6,3.3 -25.77,0.03 -28.42,3.2 -28.42,31.19 0,7.58 -1.28,10.58 7.45,10.58 59.18,0 59.14,-10.12 45.89,24.86l-36.3 117.24c-1.64,6.68 -1.08,7.22 -3.23,12.99 -9.93,26.49 -15.49,36.56 31.09,36.56 20.86,0 23.51,-2.34 27.96,-19.43 10.2,-39.01 3.95,-33.65 42.24,-33.61 14.68,0.02 29.38,0 44.06,0 6.07,18.49 10.75,39.15 23.39,53.05 9.12,-0.13 39.29,-4.27 48.32,-6.17 7.08,-1.49 11.06,0 11.06,-6.13l-5.64 -28.5 -21.36 -42.62c-13.53,-28.83 -15.71,-45.95 -25,-70.69 -4.19,-11.17 -15.89,-35.56 -15.89,-46.11l22.98 0 -0 -0.01zm-1001.32 189.62c0,-6.48 -5.09,-15.6 -7.13,-30.76 -0.88,-6.49 -2.4,-7.43 -5.59,-13.16l-48.14 -120.46c-1.93,-5.08 -2.97,-7.86 -5.28,-13.39 -9.3,-22.32 10.04,-5.13 40.39,-15.26 0,-6.06 2.11,-29.93 -2.77,-33.14 -2.94,-1.93 -145.96,1.79 -157.57,2.96 -9.17,0.92 -18.15,0.22 -27.41,0.41 -10.29,0.21 -13.42,1.77 -23.75,1.77 -2.08,6.74 -4.68,10.76 -4.68,19.14 0,30.73 -3.46,19.14 58.51,19.14 0,15.31 -2.18,16.04 -6.54,29 -9.03,26.82 -13.66,35.05 -22.15,67.67l-16.13 58.39c-5.27,24.47 -16.16,28.58 0.95,34.61 11.42,4.02 27.83,3.68 39.63,3.68 25.55,0 15.04,-53.05 35.1,-53.05l69.79 0c0.3,9.39 10.09,32.11 14.83,42.04 4.01,8.41 3.26,5.19 8.58,11 5.44,-0.29 59.37,-3.7 59.37,-10.58l-0.01 0z"/>
    <path class="fil1" d="M885.15 268.91c-8.58,0 -6.64,-5.18 -5.52,-10.5l29.36 -89.83c6.27,4.31 8.07,18.83 10.59,25.68 3.12,8.45 5.75,17.42 8.83,26.04 19.85,55.43 18.94,47.33 -0.53,47.78l-42.74 0.83 0.01 -0zm1617.3 -170.48c24.16,0 6.64,-3.43 49.59,-3.43 0.74,-6.75 3.71,-14.56 6.07,-21.41 7.89,-22.78 19.68,-50.54 19.68,-73.32 -62.72,0 -53.33,-4.11 -62.89,19.84 -8.84,22.12 -9.56,29.85 -15.84,53.48 -3.04,11.44 -8.02,24.85 3.39,24.85zm-107.66 58.18c11.06,0 7.58,-10.56 7.45,-19.15 -0.24,-15.68 3.34,-12.57 0,-19.12 -10.35,-3.45 -48.32,0 -65.97,0l-101.07 -0.37c-11.25,0.74 -21.05,-2.13 -21.05,5.82 0,35.85 -4.62,32.82 25.75,32.82 4.7,58.06 4.74,122.89 4.66,181.07 -0.07,8.83 -3.8,20.85 7.47,20.85 59.64,0 52.37,3.59 51.97,-17.4l-0.05 -63.33c0,-22.94 -5.18,-31.26 13.58,-32.25 54.65,-2.87 58.98,10.24 59.09,-17.37 0.02,-2.3 0.22,-6.55 -0.02,-8.63l-1.73 -5.82c-0.7,-5.82 -56.04,-2.98 -66.24,-2.98l-2.68 -44.01c-0.6,-4.32 -1.82,-4.88 -1.98,-10.12l90.83 0 -0.01 -0zm-1350.91 6.53c0,17.28 -1.57,20.98 5.77,38.7 11.86,28.6 46.21,34.38 76.07,42.24 12.44,3.28 29.1,7.03 39.7,13.62 14.19,8.83 15.37,32.39 6.9,43.6 -7.55,10.01 -21.41,8.67 -34.4,8.67 -18.03,0 -18.38,-32 -18.79,-33.63 -3.49,-13.5 -17.63,-10.92 -37.38,-10.87 -16.85,0.04 -28.68,-0.58 -42.56,1.72 -0.23,8.1 -2.5,6.15 -2.24,13.94 0.42,12.38 7.22,27.12 16.31,37.92 22.35,26.55 65.67,22.35 105.72,22.35 32.34,0 87.02,-12.18 87.02,-44.8 0,-48.25 -10.67,-67.08 -75.68,-82.04 -16.22,-3.73 -48.89,-10.23 -58.17,-20.55 -5.57,-6.2 -6.21,-18.18 -5.12,-24.44 1.06,-6.06 0.45,-8.18 4.01,-12.45 10.67,-12.82 38.63,-7.89 43.95,0.25 8.97,13.73 2.2,43.72 18.02,43.72 73.43,0 63.62,-0.04 63.62,-37.95 0,-13.47 -9.89,-30.28 -28.25,-37.92 -28.25,-11.75 -114.68,-12.55 -136.91,-2.15 -19.21,8.98 -27.62,22.33 -27.62,40.08l0.02 -0.01zm716.83 118.37c-9.37,18.61 -45.08,14.78 -69.99,14.78l-4.71 -66.39c0.1,-11.98 0,-23.98 0.04,-35.96l0.01 -30.48c19.7,0 53.21,-2.18 66.05,9.22 0.3,0.27 0.73,0.66 0.99,0.96 5.35,5.64 7.52,18.26 9.36,23.84 5.59,16.98 6.06,68.53 -1.74,84.03l-0 0.01zm54.19 18.9c6.1,-5.48 5.33,-4.37 8,-13.15 7.09,-23.3 5.47,-87.14 -1.34,-112.06 -1.77,-6.49 -7.31,-14.6 -12.42,-20.16 -31.66,-34.48 -141.63,-26.42 -198.85,-26.42 -3.18,29.12 0.04,17.51 0,44.8 -0.08,46.97 -2.4,93.19 -2.35,140.31 0,13.13 -2.32,17.43 7.45,17.43 65.54,0 146.73,6.65 192.64,-25.46l6.86 -5.29 0 0zm-1163.36 -67.1c0,-9.24 43.03,-15.51 54,-0.54 7.84,10.69 5.99,38.2 5.99,50.16 0,16.53 -54.09,9.96 -59.99,9.96l0 -59.58 -0 0zm4.68 -37.96c0,-10.74 0.01,-21.46 0,-32.19 -0.01,-7.62 -4.26,-25.35 6.59,-25.35 33.11,0 51.06,-2.68 51.06,27.07 0,40.18 -21.21,32.8 -57.66,30.48l0 -0.01zm98.3 14c16.07,-15.45 11.64,-6.28 14.18,-30.65 2.11,-20.27 5.38,-48.84 -23.3,-62.29 -9.82,-4.6 -29.03,-8.32 -44.99,-8.32 -127.11,0 -110.82,-6.27 -110.59,20.85l-2.33 73.58c0,33.46 -2.35,64.22 -2.35,99.24 0,23.98 -2.91,21.18 23.8,20.88 43.79,-0.5 123.37,10.04 160.05,-11.65 18.38,-10.86 17.02,-44.58 14.07,-62.68 -4.11,-25.25 -11.28,-22.32 -28.55,-38.95l0.01 -0zm1870.07 -59.89c0,-36.6 5.52,-31.12 -44.88,-31.11l-107.67 0c-42.17,0 -47.23,-3.82 -47.23,8.87 0,30.57 -14.16,43.09 28.09,43.09l-2.29 102.4c0.05,9.96 -1.82,12.43 -2.41,20.45 -1.83,24.9 2.35,10.84 -3.49,41.99 -1.3,6.9 1.16,11.5 1.13,19.95l234.49 0c9.01,0 7.14,-3.89 8.36,-9.83 7.06,-33.79 -5.47,-26.78 -29.43,-26.72l-107.66 0c-50.46,0 -37.21,11.73 -37.1,-49.37 0.02,-10.5 2.43,-13.03 2.43,-23.58 11.58,0 17.68,-1.8 32.3,-1.73 51.12,0.21 81.44,5.11 70.69,-29.69l-91.27 -3.43 -0.04 -43.86c93.46,0 95.99,6.36 95.99,-17.43l-0.01 0zm-1180.05 17.43c9.02,0 8.96,-3.9 10.36,-10.09 1.5,-6.61 7.45,-38.45 -8.02,-38.45l-182.55 0c-5.93,0 -7.45,1.12 -7.45,5.44 0,54.32 -7.89,46.51 28.09,46.51 0,10.88 -2.27,13.68 -2.43,23.57 -2.19,54.05 -5.16,107.29 -4.45,161.22l234.34 0c11.07,0 7.37,-9.11 7.42,-17.47 0.14,-25.62 17.78,-19.08 -91.67,-19.08 -97.76,0 -83.83,7.89 -83.83,-28.78 0,-17.19 4.68,-28.54 4.68,-44.18 11.52,0 14.13,-1.75 27.57,-1.77 21.96,-0.02 75.41,3.47 75.41,-12.23 0,-22.38 1.05,-16.13 -20.67,-17.95 -90.77,-7.65 -71.13,19.43 -70.45,-46.75l83.67 0 0 0zm-1406.61 184.82c12.76,-0.55 18.55,-2.18 22.01,-10.04 3.55,-8.05 1.77,-114.3 1.77,-128.58l49.09 78.01c15.75,24.72 17.31,36.63 41.77,36.63 19.36,0 16.83,0.99 33.19,-1.71 4.01,-12.97 7.02,-80.48 7.02,-97.85l-2.25 -97.59c-0.11,-8.46 -1.72,-9.12 -2.43,-15.65 -70.46,0 -69.22,-4.94 -68.95,12.2 0.1,6.37 -0.35,14.45 0.34,20.59 2.76,24.61 2.22,52.94 2.22,80.15 -15.43,-22.95 -29.25,-55.77 -43.61,-82 -19.28,-35.2 -6.13,-27.51 -78.09,-27.51 0,17.79 0,35.57 0,53.36 0,19.52 2.37,32.65 2.34,51.33 -0.06,36.26 2.37,67.76 2.34,102.66 -0.04,31.43 -5.19,27.65 33.25,26l0.01 -0zm285.93 -183.1c5.32,3.66 24.13,67.03 27.71,76.46 9.25,24.32 11.13,23.86 -16.45,23.86 -44.74,0 -48.86,8.43 -33.79,-34.85 7.53,-21.65 14.75,-43.69 22.53,-65.48l0 0zm-108.53 -48.54c-6.13,19.84 -4.68,13.29 -4.68,34.54 0,10.44 33.85,3.73 58.51,3.73 0,12.86 -1.37,15.21 -5.72,27.89 -9.81,28.62 -12.61,30.22 -22.59,67.35 -1,3.73 -1.43,7.08 -2.77,11.67 -3.56,11.37 -6.53,24.07 -10.25,35.25 -4.61,13.84 -11.8,34.89 -7.82,47.77 14.59,0 50.12,11.27 59.56,-5.12 4.52,-7.84 5.53,-44.5 20.45,-44.5l69.77 0c0.36,10.62 9.75,29.83 14.6,40.5 4.55,9.98 2.36,5.51 8.81,12.54l46.26 -5.95c17.53,-3.23 14.41,0.64 9.39,-19.13 -9.48,-37.35 -32.35,-83.69 -46.62,-123.38l-16.38 -41.28c-2.34,-5.5 -5.68,-8.49 1.21,-10.12 11.08,-2.62 39.76,3.87 39.76,-7.5 0,-44.48 3.74,-29.39 -47.15,-29.34l-53.86 1.71c-18.28,0.41 -37.64,-1.29 -55.37,0.66l-55.12 2.7 0.01 0zm1709.44 147.15c0.2,-5.8 1.64,-7.12 3.27,-12.58l23.62 -73.41c2.17,-6.11 0.11,-5.94 3.54,-10.91 8.83,2.62 10.29,24.72 15.8,37.29l13.45 38.02c1.95,6.71 2.9,9 4.6,14.04 5.58,16.54 -48.94,10.25 -64.28,7.55zm114.27 -115.73c9.93,0 21.49,-1.74 21.49,-8.87 0,-41.03 -7.97,-27.53 -49.5,-27.65 -42.17,-0.12 -99.04,3.26 -140.6,3.3 -25.77,0.03 -28.42,3.2 -28.42,31.19 0,7.58 -1.28,10.58 7.45,10.58 59.18,0 59.14,-10.12 45.89,24.86l-36.3 117.24c-1.64,6.68 -1.08,7.22 -3.23,12.99 -9.93,26.49 -15.49,36.56 31.09,36.56 20.86,0 23.51,-2.34 27.96,-19.43 10.2,-39.01 3.95,-33.65 42.24,-33.61 14.68,0.02 29.38,0 44.06,0 6.07,18.49 10.75,39.15 23.39,53.05 9.12,-0.13 39.29,-4.27 48.32,-6.17 7.08,-1.49 11.06,0 11.06,-6.13l-5.64 -28.5 -21.36 -42.62c-13.53,-28.83 -15.71,-45.95 -25,-70.69 -4.19,-11.17 -15.89,-35.56 -15.89,-46.11l22.98 0 -0 -0.01zm-1001.32 189.62c0,-6.48 -5.09,-15.6 -7.13,-30.76 -0.88,-6.49 -2.4,-7.43 -5.59,-13.16l-48.14 -120.46c-1.93,-5.08 -2.97,-7.86 -5.28,-13.39 -9.3,-22.32 10.04,-5.13 40.39,-15.26 0,-6.06 2.11,-29.93 -2.77,-33.14 -2.94,-1.93 -145.96,1.79 -157.57,2.96 -9.17,0.92 -18.15,0.22 -27.41,0.41 -10.29,0.21 -13.42,1.77 -23.75,1.77 -2.08,6.74 -4.68,10.76 -4.68,19.14 0,30.73 -3.46,19.14 58.51,19.14 0,15.31 -2.18,16.04 -6.54,29 -9.03,26.82 -13.66,35.05 -22.15,67.67l-16.13 58.39c-5.27,24.47 -16.16,28.58 0.95,34.61 11.42,4.02 27.83,3.68 39.63,3.68 25.55,0 15.04,-53.05 35.1,-53.05l69.79 0c0.3,9.39 10.09,32.11 14.83,42.04 4.01,8.41 3.26,5.19 8.58,11 5.44,-0.29 59.37,-3.7 59.37,-10.58l-0.01 0z"/>
   </g>
  </g>
 </g>
</svg>
