<?xml version="1.0" encoding="UTF-8"?>
<!DOCTYPE svg PUBLIC "-//W3C//DTD SVG 1.1//EN" "http://www.w3.org/Graphics/SVG/1.1/DTD/svg11.dtd">
<!-- Creator: CorelDRAW -->
<svg xmlns="http://www.w3.org/2000/svg" xml:space="preserve" width="196.451mm" height="71.8095mm" version="1.1" style="shape-rendering:geometricPrecision; text-rendering:geometricPrecision; image-rendering:optimizeQuality; fill-rule:evenodd; clip-rule:evenodd"
viewBox="0 0 9285.58 3394.19"
 xmlns:xlink="http://www.w3.org/1999/xlink"
 xmlns:xodm="http://www.corel.com/coreldraw/odm/2003">
 <defs>
  <style type="text/css">
   <![CDATA[
    .fil0 {fill:black}
    .fil2 {fill:black}
    .fil1 {fill:#D40000}
   ]]>
  </style>
 </defs>
 <g id="Camada_x0020_1">
  <metadata id="CorelCorpID_0Corel-Layer"/>
  <g id="Mago_x0020_dado.cdr">
   <path class="fil0" d="M4031.39 757.63c-101.42,-121.23 -251.53,-153.21 -398.81,-104.37 -120.22,53.19 -198.25,144.01 -250.96,262.13 -41.66,93.32 -92.05,99.58 -173.36,154.45 -75.13,50.7 -118.33,96.98 -155.11,181.13 -45.65,108.34 -33.75,228.99 56.24,310.84 202.33,178.54 441.51,124.21 682.49,175.5 106.97,22.77 -60.17,40.11 -78.16,41.27 -123.75,7.99 -338.17,-1.8 -446.05,49.75 -139.59,77.48 -206.54,158.77 -227.8,321.09 -13.51,167.15 43.76,262.76 197.57,329.31 78.67,34.04 53.42,36.69 64.15,114.15 26.97,194.73 216.24,292.39 398.07,280.51l15.58 -1.02c301.75,-24.58 310.4,-393.41 353.76,-620.09 11.64,-58.29 3.86,-80.91 58.5,-89.78 -1.4,232.7 -74.41,698.33 221.34,888.03 39.73,25.48 85.82,28.95 121.34,48.1l23.52 0c42.36,-186.43 -84.01,-108.55 -174.82,-362.82 -41.13,-115.18 -78.12,-375.63 -46.39,-505.56 72.88,120.86 17.04,235.55 168.06,426.95 164.66,195.4 376.75,316.16 575.52,79.46 93.28,-111.09 48.99,-215.09 81.56,-250.07 30.4,-32.65 147.02,-50.67 205.34,-138.79 29.04,-43.88 37.86,-99.29 46.19,-150.22 49.29,-313.63 -185.24,-422.3 -457.49,-427.57 -39.46,0.53 -406.89,18.88 -366.91,-7.05 19.44,-12.6 239.84,-33.2 290.77,-42.54 267.93,-49.13 453.29,-164.07 486.94,-452.89 10.22,-147.27 -52.76,-244.86 -194.46,-289.87 -43.62,-13.85 -141.74,-29.74 -155.43,-79.7 -13.44,-49.05 -1.74,-63.99 -32.48,-121.32 -55.8,-104.08 -170.13,-192.38 -293.16,-188.75 -18.29,0.54 -32.76,2.7 -50.73,5.42 -187.76,39.87 -331.08,193.09 -366.09,381.07 -18.53,109.03 -18.37,187.9 -25.03,295.47 -9.51,153.55 -28.39,47.62 -34.07,-27.97 -11.85,-157.59 -23.87,-352.66 -119.64,-484.26z"/>
   <path class="fil0" d="M8276.99 2372.32c-106.83,-59.57 -237.01,-18.57 -321.38,60.22 -139.52,130.29 -125.82,404.81 23.13,529.01 44.5,37.1 90.7,56.35 146.59,69.67 191.86,41.93 270.1,-53.38 355.04,-96.72 38.39,197.41 -64.9,261.12 -118.11,366.97l442.03 -2.84c-14.38,-26.22 -33.78,-44.87 -53.59,-74.43 -59.4,-88.62 -98.4,-182.06 -81.46,-296.97 48.04,26.74 72.74,60.97 132.72,87.15 117.64,51.33 288.63,27.43 382.5,-64.86 213.67,-210.09 82.58,-701.79 -334.69,-584.58l-13.85 3.89c24.05,-43.89 50.75,-66.07 70.6,-124.64 46.1,-195.02 -44.19,-348.78 -239.22,-396.07 -148,-35.88 -364.98,0.73 -443.36,146.26 -51.86,96.3 -43.06,226.16 16.05,317.08 14.24,21.9 25.55,36.69 37.01,60.85z"/>
   <path class="fil0" d="M6701.18 138.73l-26.62 36.68c-132.13,152.34 -288.8,270.01 -385.14,399.03 -267.59,358.37 -65.91,684.06 216.39,678.7 120.29,-2.28 139.3,-35.73 215.82,-76.95 72.49,119.89 -70.15,300.13 -115.16,367.52l447.21 1.42c-5.95,-24.54 -61.66,-81.47 -98.78,-159.87 -34.08,-72.01 -44.98,-127.99 -36.14,-216.46 67.63,37.67 110.32,91.82 224.93,93.69 379.6,6.16 446.74,-504.05 159.66,-759.56 -30.61,-27.24 -48.5,-46.68 -81.83,-82.19 -57.68,-61.45 -377.13,-340.98 -387.95,-420.73 -42.37,16.87 -30.73,25.81 -67.15,69.79 -26.97,32.56 -35.3,40.2 -65.23,68.94z"/>
   <path class="fil1" d="M8266.36 1130.21l2.46 2.91c28.72,57.59 115.35,104.13 127.79,141.03 65.73,36.98 124.67,142.27 185.57,189.47 33.2,-24.61 60.72,-62.85 87.61,-93.97l178.7 -182.67c16.03,-16.53 24.29,-21.89 43.93,-42.08 27.19,-27.95 27.64,-34.93 54.86,-40.35 4.15,-21.36 -0.91,-7.48 10.08,-24.19 19.39,-29.47 99.42,-81.69 134.26,-151.13 15.38,-3.92 16.68,-11.62 30.08,-28.56 70.61,-89.33 140.52,-215.96 155.71,-334.68 32.1,-250.93 -163.5,-376.1 -169.85,-387.03 -70.7,-25.75 -124.55,-59.54 -218.72,-46.99 -64.5,8.6 -154,39.48 -172.13,83.68 -72.53,33.43 -109.89,142.26 -130.25,245.81 -33.01,-134.59 -63.49,-206.22 -165.72,-275.64l-31.21 -27.17c-73.37,-1.38 -228.96,-76.59 -380.41,68.25 -30.56,29.23 -49.39,69.27 -76.52,89.92 -6.26,79.98 -126.35,186.15 39.55,481.59 43.09,76.74 199.06,256.55 264.89,312.03 19.2,16.18 7.05,8.35 29.29,19.74z"/>
   <polygon class="fil1" points="6163.19,2599.87 6836.19,3394.19 7497.17,2597.09 6833.39,1800.12 "/>
   <path class="fil2" d="M1544.84 2475.34c-92.43,-88.66 33.14,-303.46 136.1,-264.11 62.3,23.81 55.97,128.28 32.93,177.09 -27.26,57.72 -101.15,134.26 -169.03,87.02zm-409.27 -1494.42c133.85,-88 363.94,44.05 229.42,128.69 -59.84,37.65 -143.09,32.36 -205.01,9.24 -54.6,-20.4 -108.51,-82.64 -24.4,-137.93zm-858.61 -91.01c-36.43,36.97 -139.1,54.44 -100.34,132.46 47.49,57.34 525.19,329.53 618.67,385.9 95.56,58.02 313.44,211.89 419.81,208.23 128.94,-4.43 412.79,-187.55 536.71,-254.53 67.39,-36.17 490.46,-252.64 510.41,-278.98 33.8,-44.63 -25.53,-85.95 -50.57,-106.57 -51.18,-34.85 -101.98,-58.9 -155.57,-95.69 -119.58,-82.06 -271.31,-163.68 -398.31,-240.77 -186.43,-114.65 -339.96,-233.28 -569.86,-160.85 -82.98,26.14 -266.43,130.44 -353.82,175.45 -142.02,73.15 -284.07,146.25 -426.1,219.38l-31.02 15.97zm648.43 1551.87c59.96,188.01 -98.9,234.91 -173.78,93.52 -31.38,-59.26 -47.12,-183.2 40.05,-199.85 65.11,-12.45 113.89,53.29 133.73,106.34zm-687.09 -930.95c30.36,-206 239.58,-40.62 212,112.74 -19.54,108.66 -122.4,97.33 -173.3,14.3 -28.97,-47.72 -40.76,-69.8 -38.69,-127.04zm-238.31 537.81c-0.39,347.09 137.06,403.72 410.3,567.74 136.42,81.88 271.19,165.23 407.13,247.44 53.39,32.29 154.48,93.38 213.6,107.04 90.6,17.99 106.9,-59.66 112.02,-131.45 16.81,-319.77 23.96,-640.11 37.48,-960.1 3.27,-77.22 3.52,-148.2 -55.1,-205.94 -123.3,-102.25 -290.77,-191.28 -428.95,-277.28 -151.98,-94.59 -304.17,-189.52 -456.29,-283.82 -134.64,-80.9 -187.09,-43.85 -214.23,107.1 -18.69,103.97 -16.19,265.78 -18.68,375.91 -3.41,151.09 -4.71,302.24 -7.29,453.36zm516.84 -161.74c93.39,-90.93 246.83,165.2 143.44,255.14 -75.82,65.97 -182.79,-55.33 -179.36,-176.15 1.12,-39.72 10.7,-54.44 35.92,-78.99zm1189.09 -448.65c-76.2,58.01 -228.98,121.11 -320.44,167.61 -189.66,98.13 -160.49,181.83 -164.12,372.07 -5.22,276.38 -8.24,552.85 -19.98,829.06 -5.14,120.94 17.73,198.91 156.19,148.84 64.78,-23.43 155.92,-72.21 218.42,-103.87 183.49,-92.94 374.42,-191.72 553.28,-293.1 9.84,-5.58 19.6,-11.2 29.3,-17.02 139.05,-86.33 211.49,-207.92 216.68,-371.81 8.6,-272.05 20.33,-547.26 25.05,-819.07 1.21,-69.76 -4.83,-233.33 -110.68,-209.55l-11.13 2.5c-31.87,8.98 -64.93,29.39 -93.82,45.72 -48.17,26.83 -90.21,50.22 -139.68,75.46 -113.04,57.68 -226.04,115.44 -339.06,173.17zm316.54 387.14c-136.61,42.42 -127.98,-181.25 -30.84,-254.33 83.66,-62.94 146.13,-9.71 140.27,87.4 -4.37,72.33 -40.81,138.14 -109.43,166.94z"/>
  </g>
 </g>
</svg>
