<?xml version="1.0" encoding="UTF-8"?>
<!DOCTYPE svg PUBLIC "-//W3C//DTD SVG 1.1//EN" "http://www.w3.org/Graphics/SVG/1.1/DTD/svg11.dtd">
<!-- Creator: CorelDRAW -->
<svg xmlns="http://www.w3.org/2000/svg" xml:space="preserve" width="17.5832mm" height="22.217mm" version="1.1" style="shape-rendering:geometricPrecision; text-rendering:geometricPrecision; image-rendering:optimizeQuality; fill-rule:evenodd; clip-rule:evenodd"
viewBox="0 0 48.25 60.97"
 xmlns:xlink="http://www.w3.org/1999/xlink"
 xmlns:xodm="http://www.corel.com/coreldraw/odm/2003">
 <defs>
  <style type="text/css">
   <![CDATA[
    .fil0 {fill:black}
   ]]>
  </style>
 </defs>
 <g id="Camada_x0020_1">
  <metadata id="CorelCorpID_0Corel-Layer"/>
  <path class="fil0" d="M36.33 59c0.16,-0.6 1.66,-0.9 2.56,-0.5 1.01,0.45 0.31,0.89 0.11,0.7 -0.19,-0.18 -0.02,-0.26 -0.32,-0.43 -0.15,0.31 -0.05,0.39 -0.17,0.52 -0.13,0.14 -1.79,0.28 -2.18,-0.29zm-4.12 -37.14c0.26,-0.07 0.61,-0.43 1.13,-0.7 0.2,-0.1 0.38,-0.19 0.62,-0.3 0.24,-0.11 0.44,-0.16 0.65,-0.27 -0.47,-0.28 -1.6,0.43 -1.97,0.72 -0.19,0.15 -0.41,0.27 -0.43,0.54zm-12.76 2.58l0.98 -0.05c1.67,-0.2 2.65,0.42 3.02,0.45 -0.04,-0.16 -0.01,-0.08 -0.11,-0.17l-0.66 -0.32c-0.37,-0.11 -0.64,-0.17 -1.06,-0.2 -0.48,-0.03 -1.19,-0.02 -1.66,0.12 -0.4,0.12 -0.24,0.15 -0.52,0.17zm14.48 4.92c0.15,0.21 0.22,0.07 0.57,0.06 0.36,-0.01 0.4,-0.04 0.71,-0.09 0.99,-0.17 2.64,-0.88 2.67,-2.03 -0.26,0.17 -0.28,0.47 -0.67,0.82 -0.59,0.52 -1.34,0.68 -2.12,0.86 -0.17,0.04 -0.41,0.11 -0.59,0.15 -0.42,0.1 -0.46,0.08 -0.57,0.23zm-13.05 3.49c-0.68,0 -1.25,-0.37 -1.6,-0.4 0.11,0.42 0.83,0.74 1.09,0.74 1.11,0 1.58,-0.05 2.63,-0.57 0.27,-0.13 0.54,-0.26 0.8,-0.4 0.25,-0.13 0.59,-0.29 0.74,-0.52 -0.58,0.01 -2.38,1.14 -3.66,1.14zm7.67 1.43c0,-0.27 0.65,-0.56 0.91,-0.64 0.83,-0.25 1.09,-0.25 1.9,-0.17 0.22,0.02 0.45,0.01 0.45,0.24 0,2.06 -1.21,3.99 -2.18,2.87 -0.54,-0.63 -1.08,-1.44 -1.08,-2.3zm-0.63 -1.09c0,2.47 1.77,5.06 3.26,3.71l0.12 -0.11c0.24,-0.27 0.37,-0.52 0.52,-0.85 0.07,-0.17 0.18,-0.51 0.22,-0.69 0.09,-0.36 0.23,-1.18 0.22,-1.59 -0.03,-1.76 -0.26,-1.52 -1.66,-1.28l-1.47 0.25c-0.2,0.02 -0.33,0.07 -0.48,0.09 -0.39,0.06 -0.73,0.03 -0.73,0.47zm5.27 -8.41c0,-0.21 0.11,-0.46 0.34,-0.46 0.74,0 0.54,1.14 0.11,1.14 -0.41,0 -0.46,-0.33 -0.46,-0.69zm0.97 -0.63l0.24 -0.1c0.35,-0.18 0.41,-0.47 0.73,-0.47 0.49,0 0.86,1.54 0.86,2.4 0,0.75 -0.55,2.15 -1.59,1.82 -0.9,-0.28 -1.33,-1.28 -1.33,-2.22 0.62,0.05 0.85,0.74 1.14,0.74 0.47,0 0.69,-0.63 0.58,-1.03 -0.16,-0.58 -0.62,-0.65 -0.64,-1.14zm3.21 -3.2c-1.34,0 -2.47,-0.33 -3.96,0.67 -0.88,0.59 -1.7,1.83 -1.7,2.87 0,0.64 -0.12,1.9 0.17,2.12 0.24,-0.49 0.08,-1.23 0.34,-1.6 0,0.61 0.21,1.84 0.54,2.38 0.9,1.48 2.76,1.53 3.58,0.37 0.17,-0.23 0.28,-0.44 0.36,-0.79 0.75,-3.11 -1.29,-4.39 -1.33,-4.94 0.22,-0.05 0.24,-0.08 0.51,-0.12 1.41,-0.2 1.66,0.02 2.04,1.41l0.2 1.74c0.01,0.3 0.09,0.31 0.11,0.57 0.25,-0.07 0.21,-0.19 0.32,-0.77l0.11 -1.04c0.26,-1.64 0.54,-1.25 0.55,-1.74 -0.39,0.03 -0.34,0.25 -0.69,0.34 -0.42,-0.79 0.04,-1.12 0.11,-1.86 -0.23,-0.01 -0.19,0.02 -0.41,0.13 -0.19,0.1 -0.64,0.24 -0.85,0.24zm6.93 36.34c-0.32,0 -0.58,-0.29 -0.47,-0.58 0.15,-0.43 1.69,-1.19 2.19,-1.19 0.31,0 0.52,0.34 0.52,0.52 0,0.27 -0.84,1.14 -1.09,1.14 -0.47,0 -0.54,-1.15 -0.75,-0.68 -0.05,0.1 0.37,0.8 -0.39,0.8zm-14.54 -1.03c-0.16,0.24 -1,0.86 -1.37,0.86 -0.19,0 -0.84,-1.63 -0.86,-2.52 0.2,0.05 0.16,0.08 0.3,0.22 1.1,1.16 1.07,0.86 1.94,1.44zm-2.17 -3.61c-0.16,0 -0.14,-0.04 -0.17,-0.17l0.52 0c-0.26,0.23 -0.12,0.17 -0.34,0.17zm4.87 -1.32c0.47,-0.31 0.33,-0.09 0.29,0.29 -0.07,0.56 -0.29,0.22 -0.29,-0.29zm-3.89 -0.46c0.29,-0.08 1.1,-0.52 1.32,0.4 -0.16,0.24 -0.17,0.23 -0.5,0.3l-0.5 0.11c-0.38,0.01 -0.32,-0.5 -0.32,-0.81zm-0.29 1.03c0,-0.49 -0.1,-0.46 -0.29,-0.74 -0.23,0 -0.18,-0.02 -0.34,0.06 0.06,-0.27 0.14,-0.23 0.46,-0.23l0.16 0.29c0.01,0.02 0.03,0.06 0.04,0.08 0.05,0.16 0.03,0.37 0.03,0.55l-0.06 0zm4.75 -0.4c0,-0.3 0.19,-0.68 0.32,-0.7 0.09,-0.02 0.02,-0.06 0.05,0.03 0.02,0.04 -0.19,1.11 0.55,2.26 0.19,0.3 0.3,0.39 0.53,0.67 0.13,0.16 0.13,0.16 0.33,0.31 0.62,0.46 -0.48,0.34 -0.84,-0.25 -0.04,-0.07 -0.06,-0.11 -0.1,-0.19 -0.23,-0.53 -0.84,-1.65 -0.84,-2.13zm0.74 -0.29c0,-0.94 0.34,-1.07 0.77,-1.35l0.74 -0.46c0.85,-0.52 2.82,-1.3 3.85,-0.47 0.16,0.13 0.49,0.53 0.53,0.8 -1.34,-0.2 -2.66,-0.1 -3.49,1.07 -0.68,0.96 -0.51,1.9 -0.51,2.92 0,0.69 -1.89,-0.33 -1.89,-2.52zm-12.02 -1.66c0,-0.25 0.26,-1.14 0.34,-1.32 0.15,0.04 0.32,0.16 0.46,0.23 1.21,0.62 2.29,0.08 2.29,0.63l-0.23 1.15c-0.14,0.29 -0.4,0.46 -0.75,0.46 -0.7,0 -2.12,-0.27 -2.12,-1.14zm6.64 0.46c0.25,0 0.8,-0.13 1.06,-0.2l1.9 -0.5 2.62 -0.99c0.3,-0.14 1.44,-0.76 1.63,-0.77 0.01,0.19 0.06,0.21 0.06,0.34 0,1.07 0.02,0.77 -0.74,1.26 -2.6,1.67 -3.58,0.78 -3.93,1.17 -0.12,0.13 -0.06,-0.08 -0.08,0.21l1.83 0c-0.06,0.24 -0.66,0.63 -0.9,0.76 -0.22,0.12 -0.83,0.5 -1.08,0.52 -0.54,0.05 -0.09,-0.64 -0.81,-1.19 -0.9,-0.68 -1.51,0.08 -1.56,-0.61zm11.35 -0.98c-0.25,-0.3 -0.37,-0.35 -0.53,-0.5 -0.1,-0.1 -0.07,-0.01 -0.11,-0.17 0.26,-0.01 0.1,-0.06 0.69,-0.06 0.51,0 1.62,0.49 1.66,0.97 -0.23,0.05 -0.42,0.18 -0.61,0.31 -0.18,0.12 -0.36,0.3 -0.59,0.32 -0.09,-0.16 -0.12,-0.31 -0.22,-0.47 -0.07,-0.12 -0.19,-0.29 -0.29,-0.4zm-3.79 -0.73c0,-0.08 0.17,-0.18 0.24,-0.22 0.41,-0.3 0.66,-0.04 0.68,0.22 -0.27,0.06 -0.92,0.46 -0.92,0zm-11.96 0.17c-0.65,0 -1.96,-0.19 -1.78,-0.97l0.5 -2.26c0.01,-0.01 0.02,-0.02 0.02,-0.03 0.13,-0.12 0.41,0.13 0.59,0.21 0.81,0.37 1.4,0.08 1.87,0.19 0.13,0.58 0,0.91 -0.06,1.71 -0.09,1.07 -0.17,1.15 -1.14,1.15zm-1.14 -4.06c0,-0.62 0.1,-1.08 0.17,-1.61 0.07,-0.52 0.14,-1.09 0.27,-1.5 0.46,-1.4 1.79,-2.4 2.83,-1.26l0.13 0.15c0.18,0.21 0.3,0.47 0.4,0.74 0.36,0.97 0.21,2.14 -0.07,3.09 -0.14,0.48 -0.24,0.9 -0.6,0.78 -0.07,-0.15 -0.06,0.05 -0.06,-0.17 0,-1.22 0.48,-1.77 0.29,-2 -0.2,0.13 -0.33,0.34 -0.45,0.58 -0.55,1.07 0.1,2.05 -0.98,2.05 -0.55,0 -1.19,0.08 -1.64,-0.25 -0.2,-0.15 -0.31,-0.29 -0.31,-0.61zm11.96 -3.66c0,-0.57 0.27,-1.54 0.8,-1.54 0.29,0 0.37,0.08 0.64,0.09l1.29 0.05c0.93,0.12 0.27,0.12 0.29,1.57 0.02,1.48 0.59,1.38 -2.11,1.16 -0.36,-0.03 -0.64,0.01 -0.76,-0.27 -0.11,-0.26 -0.15,-0.73 -0.15,-1.05zm3.26 0c0,-0.23 0.07,-0.56 0.11,-0.75 0.22,-0.88 0.55,-0.63 1.83,-0.63 -0.02,0.22 -0.17,0.5 -0.23,0.74 -0.33,1.32 0.2,2.12 -0.23,2.12 -1.08,0 -1.49,0.28 -1.49,-1.49zm-3.66 0.11c-0.13,-0.1 -0.1,-0.1 -0.21,-0.25 -0.48,-0.69 -1.32,-1.23 -1.4,-1.64 0.3,-0.02 0.21,-0.02 0.52,-0.01l1.6 0.23c-0.07,0.28 -0.23,0.44 -0.32,0.77 -0.08,0.27 -0.1,0.69 -0.19,0.89zm-5.44 -2c0.16,-0.21 1.54,-0.45 1.89,-0.46 0,0.52 0.05,0.78 -0.23,1.2 -0.51,0.01 -0.58,-0.1 -0.93,-0.27 -0.31,-0.15 -0.66,-0.24 -0.73,-0.48zm5.5 -0.34c0,-0.25 0.17,-0.61 0.46,-0.8 0.25,0.06 0.85,0.53 1.1,0.73 0.22,0.17 0.23,0.15 0.27,0.3 -0.33,0 -0.75,0.01 -1,-0.01 -0.53,-0.04 -0.83,0.02 -0.83,-0.22zm-15.58 1.78c-1.06,-1.32 -0.63,-3.21 -0.28,-3.21 0.18,0 3.03,1.25 4.51,1.5 0.19,0.03 0.74,0.1 0.88,0.15 0.25,0.1 0.33,0.29 0.33,0.64 -0.48,0.11 -0.76,0.48 -1.02,0.87 -0.25,0.38 -0.34,0.88 -0.58,1.25 -0.29,-0.2 -0.7,-0.8 -0.96,-1.1 -0.09,-0.11 -0.16,-0.16 -0.25,-0.27 -0.24,-0.27 -0.45,-0.69 -0.85,-0.7l-0.38 1.74c-0.07,0.29 -0.08,0.25 -0.08,0.61l-0.17 0c-0.1,-0.36 -0.88,-1.13 -1.15,-1.48zm14.4 -2.61c0.31,0.07 0.5,-0.05 0.69,0.11 0.23,0.2 0.24,0.77 -0.26,0.77 -0.47,0 -1.03,0.07 -1.03,-0.63 0,-0.56 0.47,-0.28 0.6,-0.25zm2.49 -0.2c0.29,-0.07 0.45,-0.21 0.66,-0.25 0.3,-0.06 0.3,0.08 0.3,0.08 0.21,0.22 0.1,0.59 0.06,0.91 -0.24,-0.02 -0.41,-0.2 -0.6,-0.32 -0.2,-0.14 -0.37,-0.19 -0.43,-0.42zm0.69 -2.35c0,-0.09 0.34,-0.36 0.52,-0.46 0,1.36 -0.52,0.6 -0.52,0.46zm-25.59 1.03c-0.47,-0.04 -1.19,-0.64 -1.47,-0.93 -0.61,-0.62 -0.58,-0.65 -1.02,-1.32 -0.49,-0.75 -0.81,-1.86 -0.64,-2.77 0.06,-0.34 0.27,-0.56 0.34,-0.81 0.19,0.06 0.23,0.28 0.4,0.69l0.33 0.76c0.22,0.53 0.42,0.99 0.67,1.51 0.08,0.17 1.39,2.63 1.41,2.88zm8.76 -7.9c0,-0.29 0.29,-0.74 0.63,-0.74 0.67,0 0.8,0.35 0.8,0.8 0,0.82 -1.43,0.83 -1.43,-0.06zm1.83 -1.6c0.2,0 0.23,-0.08 0.51,-0.13 1.03,-0.16 2.52,1.97 1.52,3.58 -0.32,0.52 -0.59,0.76 -1.15,1.03 -0.24,0.11 -0.61,0.15 -0.94,0.15 -1.76,0 -3.02,-2.08 -2.25,-3.46 0.15,-0.27 0.14,-0.07 0.14,0.09 -0.05,1.66 0.61,1.25 1.4,1.39 0.32,0.06 1.05,0.62 1.48,-0.05 0.68,-1.07 -0.48,-1.25 -0.72,-1.45 -0.18,-0.15 -0.23,-0.24 -0.46,-0.4 -0.18,-0.13 -0.39,-0.17 -0.39,-0.47 0,-0.51 0.22,-0.29 0.86,-0.29zm-5.72 -4.12c0.01,0.01 0.02,0.02 0.03,0.03l0.1 0.13c0.17,0.24 0.32,0.53 0.11,0.82 -0.13,0.17 0,0.09 -0.23,0.11l0 -1.09zm2.21 -4.09c0.12,-0.76 0.09,-1.12 0.79,-1.38l2.42 -0.96c0.77,-0.29 1.42,-0.54 2.28,-0.75l1.18 -0.25c0.46,-0.11 0.94,0 1.34,-0.09 0.31,-0.07 0.63,-0.35 0.92,-0.51 1.51,-0.84 3.93,-1.47 5.68,-1.47 0.28,0 0.77,0.82 0.89,1l2.2 3.3c-0.3,0.07 -0.68,0.09 -0.98,0.17 -0.83,0.21 -1.55,0.53 -2.25,1.01 -0.31,0.21 -0.87,0.83 -1.09,1.14 -0.15,0.22 -0.27,0.49 -0.37,0.72 -0.02,0.05 -0.07,0.16 -0.09,0.2 -0.07,0.2 -0.18,0.41 -0.09,0.6 0.24,-0.16 0.54,-0.73 0.78,-1l0.68 -0.69c0.01,-0.01 0.02,-0.02 0.03,-0.03l0.48 -0.38c0.64,-0.42 1.32,-0.79 2.09,-1 0.56,-0.15 1.01,-0.31 1.42,0.19 0.28,0.33 0.49,0.74 0.71,1.12 0.14,0.24 0.15,0.36 0.39,0.52l0.06 -2.46 0.15 0.31c0.5,1.17 1.06,2.34 1.5,3.53 0.77,2.09 -0,2.31 0.01,4.63l0.05 2.75c0.12,1.45 0.3,2.19 -0.56,3.55l-0.93 1.25c-0.44,0.48 -0.95,0.88 -1.42,1.33 -0.92,0.88 -3.31,2.34 -4.59,2.8 -2.41,0.87 -5.17,1.01 -7.71,0.6 -0.94,-0.15 -1.85,-0.38 -2.72,-0.66 -1.11,-0.35 -3.06,-0.96 -3.59,-1.9 -0.18,-0.32 -0.54,-2.59 -0.63,-3.26 -0.09,-0.7 -0.4,-1.61 -0.4,-2.29l0.81 0.9c0.19,0.19 0.71,0.62 1.02,0.64 -0.06,-0.27 -0.33,-0.55 -0.47,-0.79 -0.41,-0.73 -0.96,-2.04 -0.96,-2.81 0,-0.64 0.66,-1 1.16,-1.24 0.1,-0.05 0.18,-0.08 0.29,-0.12 0.15,-0.04 0.23,-0.06 0.2,0.06 -0.24,0.81 -0.51,0.79 -0.51,2.04 0,1.25 0.78,2.55 1.95,3.03 1.46,0.59 2.95,0.26 3.96,-0.95 1.15,-1.38 0.39,-2.94 0.33,-3.68 0.44,0.05 0.7,0.58 1.14,0.69 0,-0.36 -0.1,-0.44 -0.26,-0.65 -0.39,-0.51 -0.73,-0.99 -1.21,-1.42 -1.43,-1.27 -3.66,-1.11 -5.33,-0.44 -0.09,0.04 -0.19,0.07 -0.29,0.11 -0.63,0.28 -1.46,0.81 -1.96,1.02 -0.3,0.12 -0.41,-0.04 -0.46,-0.31 -0.2,-1.11 -0.45,-1.96 0.42,-2.42l0.5 0.76c0.36,0.57 0.83,1.16 0.82,0.04 -0.02,-1.46 -0.21,-1.54 0.59,-1.82 0.4,-0.14 0.76,-0.33 1.19,-0.41 1.28,-0.23 2.39,-0.2 3.68,-0.02 0.81,0.11 1.8,0.58 1.5,0.18 -0.6,-0.8 -3.31,-1.07 -4.23,-0.93 -0.24,0.04 -0.47,0 -0.7,0.05l-1.2 0.29c-0.91,0.26 -0.83,0.17 -0.83,-0.71l0.2 -2.72zm0.31 -1.75c0,-0.35 0.08,-0.47 0.14,-0.78 0.13,-0.66 0.2,-0.54 1.19,-0.27 0.27,0.08 0.52,0.13 0.73,0.24 -0.14,0.19 -1.89,0.79 -2.06,0.8zm0.53 -2.33c0.06,-0.09 -0.03,-0.02 0.08,-0.09 0.09,-0.05 0.19,-0.02 0.35,0.03l2.87 0.97c-0.12,0.17 -0.2,0.18 -0.42,0.26 -0.57,0.22 -0.8,0.17 -1.35,-0.03l-1.66 -0.57 0.13 -0.56zm1.8 -1.2l0.94 0.32c0.4,0.17 2.24,0.95 2.39,1.33 -0.37,0.03 -0.71,0.34 -1.15,0.34 -0.09,0 -0.36,-0.15 -0.48,-0.2 -0.84,-0.38 -1.51,-0.71 -2.41,-0.96 -0.25,-0.07 -0.94,-0.21 -0.94,-0.38 0,-1.13 0.71,-0.73 1.65,-0.45zm11.75 -0.47c-0.37,0 -1.19,0.08 -1.26,0.01 -0.07,-0.07 -0.02,-0.12 0.05,-0.24 0.63,-1.2 1.16,0.05 1.21,0.23zm-10.05 -0.42c0.16,0.11 0.25,0.17 0.41,0.27 0.18,0.12 0.23,0.17 0.39,0.3 0.15,0.12 0.24,0.18 0.4,0.29l1.16 0.91c0.23,0.16 0.58,0.39 0.65,0.66 -0.15,0.07 0.05,0.06 -0.17,0.06 -0.65,0 -0.92,-0.31 -1.45,-0.66 -0.42,-0.28 -0.84,-0.48 -1.29,-0.71 -0.66,-0.33 -1.53,-0.6 -2.25,-0.79 -0.15,-0.04 -0.26,-0.06 -0.4,-0.11 -0.16,-0.06 -0.15,-0.09 -0.33,-0.13 0,-0.28 0.19,-1.39 0.71,-1.29 0.42,0.09 1.81,0.96 2.18,1.21zm9.08 -0.72c0,0.53 -0.97,1.45 -2.01,1.61 -0.16,0.02 -0.25,0.08 -0.25,-0.06 -0.01,-0.24 1.04,-1.43 1.29,-1.78 0.14,-0.19 0.27,-0.38 0.4,-0.57 0.09,0.07 0.57,0.57 0.57,0.8zm-3.55 2.12c0.02,-0.23 0.31,-0.87 0.41,-1.07 0.18,-0.33 1.28,-2.76 1.65,-2.76 0.15,0 0.65,0.6 0.74,0.74 -0.12,0.18 -0.22,0.21 -0.39,0.36 -1.39,1.28 -1.43,2.65 -2.42,2.73zm-1.55 0.57c0.23,-1 1,-2.69 1.45,-3.59 0.32,-0.64 0.73,-1.21 1.07,-1.85 0.22,0.05 0.3,0.16 0.47,0.27 0.57,0.39 0.26,0.51 -0.09,1.02l-0.78 1.28c-0.65,1.19 -0.78,2.12 -1.4,2.6 -0.22,0.17 -0.36,0.25 -0.71,0.26zm-0.78 0.09c-0.01,-0.01 -0.02,-0.02 -0.03,-0.03l-0.08 -0.09c-0.09,-0.1 -0.08,-0.09 -0.17,-0.17l-0.82 -0.72c-0.21,-0.2 -0.48,-0.39 -0.7,-0.56l-1.43 -1.03c-0.26,-0.17 -0.46,-0.33 -0.76,-0.5 -0.35,-0.19 -1.3,-0.7 -1.76,-0.7 -0.28,0 -0.38,0.33 -0.47,0.56l-1.44 5.08c-0.17,0.69 -0.23,1.39 -0.35,2.11 -0.26,1.62 -0.15,4.18 -0.15,5.81 -0.33,-0.09 -1.31,-1.99 -1.46,-2.31 -0.25,-0.52 -1.06,-2.13 -1.4,-2.38 -0.07,0.15 -0.06,-0.05 -0.06,0.17 0,0.56 0.63,1.21 0.76,1.82 0.23,1.05 0.04,2.79 0.16,4.01 0.21,2 0.51,3.89 0.92,5.77 0.25,1.17 0.54,2.34 0.68,3.55 0.03,0.23 0.08,0.4 0.11,0.69 0.02,0.2 0.04,0.18 0.08,0.38 0.03,0.15 0.02,0.2 0.04,0.36 0.13,1.07 0.45,2.42 0.74,3.44 0.19,0.66 0.28,1.38 0.43,2.09 0.06,0.29 0.07,0.37 0.11,0.71 -0.21,-0.13 -0.36,-0.43 -0.51,-0.65 -0.87,-1.31 -1.79,-2.57 -2.61,-3.91l-1.64 -2.71c-0.14,-0.23 -0.27,-0.45 -0.39,-0.7l-0.38 -0.71c-0.17,-0.3 -0.98,-1.94 -1.18,-2.08 -0.07,0.15 -0.06,-0.05 -0.06,0.17 0,0.28 1.19,2.68 1.46,3.17l0.82 1.52c0.25,0.47 0.74,0.86 0.74,1.55 0,0.95 -0.29,1.84 -0.29,2.69 -0.17,-0.05 -0.22,-0.16 -0.31,-0.32l-2.8 -4.76c-0.6,-0.99 -1.15,-2.01 -1.63,-3.06 -0.08,-0.18 -0.12,-0.21 -0.2,-0.38l-0.56 -1.22c-0.12,-0.29 -0.21,-0.51 -0.33,-0.81l-0.47 -1.25c-0.06,-0.16 -0.11,-0.27 -0.12,-0.45 -0.22,0.06 -0.14,0.02 -0.21,0.25 -0.1,0.34 -0.27,0.61 -0.49,0.89 -0.16,0.2 -0.28,0.3 -0.43,0.48 -0.08,0.09 -0.36,0.54 -0.36,0.15 0,-0.44 -0.03,-0.93 0.03,-1.34 0.11,-0.73 0.01,-2.02 0.1,-2.64 0.11,-0.77 0.12,-1.72 0.2,-2.49l0.49 -3.57c0.2,-1.14 0.45,-2.23 0.8,-3.32l0.75 -1.94c0.15,-0.33 0.25,-0.62 0.41,-0.96l0.65 -1.41c0.35,-0.74 0.78,-1.48 1.23,-2.15 0.56,-0.83 1.13,-1.55 1.76,-2.31l1.72 -1.72c0.12,-0.13 0.19,-0.2 0.33,-0.3 0.6,-0.44 1.59,-0.2 2.3,-0.12 1.11,0.12 2.23,0.4 3.25,0.81 0.33,0.13 0.61,0.25 0.92,0.4 0.44,0.22 1.4,0.76 1.83,0.86 -0.05,-0.57 -0.58,-0.47 -0.69,-0.86 0.76,0 1.36,-0.39 2.12,-0.46 -0.02,0.21 -0.08,0.28 -0.16,0.48 -0.1,0.27 -0.09,0.24 0.04,0.44 0.29,-0.15 0.06,0.03 0.2,-0.2 0.46,-0.74 0.37,-0.81 1.01,-1.67 0.21,-0.29 0.45,-0.6 0.7,-0.85 0.26,-0.26 0.49,-0.49 0.78,-0.71 2.04,-1.51 2.09,-1.41 4.34,-0.58 0.2,0.07 0.36,0.15 0.56,0.24 0.15,0.07 0.33,0.15 0.5,0.24l0.63 0.35c0.05,0.03 0.06,0.03 0.11,0.06l1.13 0.75c0.15,0.12 0.29,0.2 0.44,0.3 0.15,0.11 0.25,0.22 0.39,0.36l0.74 0.8c0.48,0.53 0.89,1.14 1.34,1.69l1 1.29c0.58,0.7 1.07,1.51 1.57,2.26 0.21,0.31 0.38,0.61 0.56,0.92l2.2 4.26c0.43,1 0.85,1.93 1.21,2.97 0.14,0.4 0.27,0.7 0.4,1.09l0.75 2.28c0.18,0.54 0.65,1.76 0.65,2.39 0,0.64 -0.18,0.28 -0.53,-0.04 -0.48,-0.44 -1.16,-0.81 -1.42,-1.45 -0.11,-0.27 0.03,-0.27 -0.23,-0.34l0 3.61c0,0.42 -0.06,0.69 -0.06,1.14 0,0.38 0.03,0.82 -0.03,1.17 -0.06,0.4 0,0.77 -0.04,1.16 -0.09,0.77 -0.04,1.58 -0.04,2.36 -0.18,-0.01 -0.16,-0.03 -0.25,-0.16 -0.05,-0.07 -0.08,-0.14 -0.13,-0.22 -0.3,-0.46 -0.72,-0.84 -0.77,-1.46l-0.45 2.24c-0.07,0.75 -0.29,1.49 -0.29,2.23l-1.2 -2.4c-0.17,-0.43 -0.31,-0.83 -0.48,-1.29 -0.58,-1.51 -0.2,-1.89 -0.2,-2.6 0,-0.18 -0.09,-0.42 -0.11,-0.63l-0.06 -3.37c0.02,-0.69 0.17,-1.29 0.17,-2.06 0.19,0.07 0.14,0.07 0.22,0.3 0.16,0.47 0.43,2.37 0.7,2.56 0.07,-0.15 0.06,0.05 0.06,-0.17 0,-0.77 -0.13,-1.59 -0.31,-2.32 -0.29,-1.15 -0.64,-2.33 -1.11,-3.41l-2.2 -4.96c-0.13,-0.51 -0.15,-2.13 -0.62,-2.47 0,0.91 0.13,1.68 0.17,2.57l0.23 2.46c-0.27,-0.19 -0.51,-0.77 -0.71,-1.06 -0.13,-0.19 -0.21,-0.33 -0.34,-0.52 -0.06,-0.09 -0.04,-0.06 -0.09,-0.14 -0.7,-1.19 -1.57,-2.29 -2.36,-3.42 -0.23,-0.33 -0.5,-0.65 -0.74,-0.97l-2.82 -3.25c-0.16,-0.16 -0.27,-0.27 -0.43,-0.43 -0.35,-0.36 -0.72,-0.49 -1.02,0.04l-0.91 1.67c-0.64,1.15 -1.15,2.38 -1.52,3.63 -0.06,0.2 -0.14,0.46 -0.23,0.63l-0.2 -0.2zm-6.21 -8.44c0.02,-0.22 0.16,-0.42 0.29,-0.69 0.22,0.08 0.57,0.63 1.2,0.69l0 0.11c-0.6,0.01 -0.82,0.33 -1.49,-0.11zm0.69 -1.09c0,-0.27 0.2,-0.54 0.34,-0.69 0.66,-0.71 1.72,-0.4 2.38,-0.59 0.82,-0.24 0.73,-0.44 1.25,-0.76 0.72,-0.43 2.73,-0.22 3.65,-0.14 1.04,0.09 -0.86,1.55 -1.54,2.25l-0.6 0.66c-0.27,0.26 -1.6,0.44 -2.04,0.53 -1.4,0.29 -1.86,0.82 -2.45,0.42 0.2,-0.15 1.4,-0.47 1.72,-0.57 1.32,-0.4 1.35,-0.44 1.35,-1.4 0,-0.79 -3.2,-1.06 -3.2,0.11 0,0.54 0.62,0.52 1.09,0.52 0.37,0 0.34,-0.27 0.34,-0.31 -0.22,-0.12 -0.52,-0.15 -0.86,-0.15 0.02,-0.22 0.05,-0.25 0.25,-0.32 0.38,-0.14 2.14,-0.17 1.99,0.5 -0.23,1.04 -3.67,0.88 -3.67,-0.07zm-8.19 2.98c0.03,-0.33 0.76,-0.87 1.01,-1.11 0.12,-0.11 0.15,-0.14 0.27,-0.24 1.3,-1.09 2.7,-1.89 4.32,-2.49 0.87,-0.32 1.39,-0.5 2.37,-0.72 0.48,-0.11 2.07,-0.44 2.61,-0.48 0.35,-0.03 0.61,-0.09 0.91,-0.12 -0.24,0.9 -2.67,-0.07 -3.65,1.61 -0.18,0.31 -0.22,0.63 -0.36,0.95 -0.05,0.11 -0.05,0.1 -0.11,0.23 -0.27,0.63 -0.44,0.32 -1.09,0.24l-1.11 -0.15c-0.84,-0.15 -1.74,-0.19 -2.49,0.25 -0.15,0.09 -0.3,0.19 -0.44,0.31 -0.28,0.24 -0.46,0.57 -0.67,0.82l-0.36 0.38c-0.69,0.73 -0.6,0.55 -1.22,0.5zm-9.9 22.72c-0.17,0.09 -0.13,0.05 -0.24,0.21 -0.07,0.1 -0.1,0.2 -0.16,0.3 -0.1,0.17 -0.2,0.36 -0.32,0.54 -0.16,0.25 -0.41,0.87 -0.43,0.21l0.2 -3.7c0.04,-0.29 0.02,-0.57 0.06,-0.85 0.05,-0.3 0.07,-0.45 0.08,-0.78 0.02,-0.55 0.3,-2.48 0.4,-3.09 0.08,-0.49 0.16,-0.95 0.25,-1.47 0.03,-0.19 0.11,-0.54 0.15,-0.76 0.05,-0.26 0.09,-0.44 0.14,-0.71 0.29,-1.44 0.54,-2.9 0.91,-4.3l1.49 -4.58c0.05,-0.13 0.1,-0.22 0.14,-0.31 0.4,-0.86 0.87,-1.72 1.38,-2.51l1.12 -1.51c0.15,-0.2 0.21,-0.3 0.38,-0.48l2.05 -2.02c0.7,-0.58 1.46,-1.07 2.24,-1.54 1.42,-0.87 3.44,-1.56 5.03,-1.95 1.21,-0.29 2.47,-0.48 3.72,-0.57 3.17,-0.24 6.36,-0.2 9.24,0.95 0.45,0.18 0.73,0.32 1.14,0.52 0.55,0.27 2.76,1.6 2.84,2.08 -1.15,-0.77 -2.79,-1.47 -4.15,-1.86l-1.61 -0.39c-0.55,-0.11 -1.76,-0.27 -2.37,-0.27l-3.64 0.25c-2.01,0.32 -4.45,0.9 -6.2,1.75 -0.28,0.14 -0.53,0.23 -0.82,0.38l-0.41 0.22c-1.21,0.75 -1.42,0.9 -2.5,1.79 -0.44,0.36 -0.79,0.82 -1.18,1.22 -0.89,0.92 -1.1,1.39 -1.66,2.06 -0.32,0.38 -0.98,1.41 -1.22,1.87 -0.79,1.54 -1.48,3.03 -1.97,4.72l-0.74 4.12c-0.18,1.25 -0.1,3.78 0.19,5 0.06,0.26 0.11,0.6 0.17,0.86 0.17,0.83 0.62,1.85 0.51,2.67 -0.09,0.67 0.03,1.11 -0,1.59 -0.02,0.32 -0.08,0.74 0.07,1.06 0.13,0.03 0.13,0.06 0.29,0.06 0.2,0 0.64,-0.67 0.69,-0.86l0.23 0c0,0.52 -0.06,0.81 -0.06,1.32 0,2.07 1.09,3.71 2.66,4.67 0.37,0.23 0.73,0.34 1.01,0.65 -0.15,0.28 -0.24,0.34 -0.4,0.58 -0.12,0.18 -0.22,0.45 -0.3,0.67 -0.41,1.13 -0.55,1.36 -1.27,2.17l-0.14 0.15c-0.01,0.01 -0.02,0.02 -0.03,0.03l-0.3 0.33c-0.11,0.11 -0.12,0.14 -0.21,0.25 -0.14,0.17 -0.25,0.39 -0.47,0.45 -0.08,-0.34 -0.29,-0.76 -0.45,-1.1 -0.62,-1.31 -1.06,-2.7 -1.65,-4.01 -0.06,-0.13 -0.19,-0.63 -0.19,-0.78 0,-0.56 0.64,-1.37 0.23,-1.16 -0.21,0.11 -0.31,0.48 -0.44,0.66 -0.08,0.11 -0.13,0.2 -0.2,0.32 -0.54,0.91 -1.1,1.83 -1.57,2.78 -0.08,0.15 -0.12,0.24 -0.2,0.37 -0.06,0.1 -0.13,0.25 -0.16,0.35l-0.17 0c0,-0.46 -0.07,-0.71 -0.13,-1.13l-0.76 -4.79c-0.03,-0.2 -0.06,-0.31 -0.08,-0.49 -0.08,-0.74 -0.17,-1.49 -0.23,-2.23zm41.96 4.86c0.49,-1.03 0.29,-6.4 0.29,-8.3 0,-0.27 -0.09,-1.58 0.12,-1.5 0.06,0.02 0.71,0.72 0.87,0.85 0.44,0.34 0.57,0.77 1.06,0.77 0.33,0 0.18,-1.01 0.14,-1.23 -0.09,-0.49 -0.13,-0.87 -0.22,-1.32 -0.3,-1.5 -1.79,-5.54 -2.41,-6.86 -0.58,-1.24 -1.06,-2.5 -1.75,-3.69l-0.56 -0.99c-0.11,-0.17 -0.16,-0.29 -0.27,-0.47 -0.22,-0.33 -0.39,-0.61 -0.61,-0.94 -0.81,-1.22 -1.71,-2.36 -2.59,-3.54 -0.66,-0.89 -1.44,-1.64 -2.12,-2.52l-1.48 -1.61c-0.54,-0.53 -1.04,-1.01 -1.64,-1.45 -0.55,-0.41 -1.1,-0.73 -1.7,-1.05l-1.31 -0.58c-0.34,-0.14 -0.8,-0.29 -1.17,-0.38 -2.19,-0.52 -3.25,-0.56 -5.56,-0.56 -1.18,0 -1.81,0.15 -2.58,0.17l-3.8 0.66c-0.94,0.23 -1.89,0.48 -2.77,0.83 -1.33,0.54 -1.83,0.71 -3.04,1.43 -0.19,0.11 -0.34,0.24 -0.54,0.38 -0.38,0.26 -0.66,0.49 -0.99,0.78l-0.9 0.82c-0.33,0.28 -0.61,0.62 -0.9,0.93l-2.02 2.5c-0.13,0.2 -0.2,0.34 -0.32,0.54l-1.68 3.7c-0.32,0.91 -0.57,1.75 -0.84,2.7 -0.46,1.57 -0.73,3.16 -1.09,4.74 -0.05,0.2 -0.06,0.16 -0.09,0.37 -0.09,0.76 -0.3,1.53 -0.39,2.29 -0.07,0.55 -0.15,1.05 -0.22,1.55 -0.05,0.32 -0.01,0.56 -0.07,0.84l-0.18 1.6c-0.02,0.9 -0.14,1.62 -0.17,2.52 -0.04,1.09 -0.2,2.19 -0.23,3.32 -0.01,0.41 -0.34,1.18 0.23,1.31 0.1,-0.09 0.12,-0.12 0.19,-0.27 0.05,-0.11 0.07,-0.17 0.12,-0.28 0.11,-0.23 0.18,-0.35 0.29,-0.57l0.44 -0.87c0.1,-0.17 0.01,-0.13 0.21,-0.19 0,0.8 0.07,1.46 0.19,2.27 0.12,0.74 0.22,1.38 0.34,2.12 0.03,0.17 0.07,0.3 0.1,0.53l0.37 2.09c0.07,0.4 0.04,1.3 0.42,1.35 0.28,-0.07 0.28,-0.12 0.4,-0.34l1.33 -2.39c0.17,-0.28 0.3,-0.74 0.56,-0.93 0.45,0.93 0.77,2.04 1.16,3.02l0.56 1.5c0.1,0.26 0.42,1.32 0.74,1.32 0.56,0 1.17,-1.03 1.6,-1.14l-0.29 0.68c-0.07,0.13 -0.13,0.2 -0.2,0.32 -0.08,0.13 -0.09,0.16 -0.17,0.29 -0.14,0.21 -0.26,0.36 -0.44,0.53 -0.38,0.37 -0.56,0.94 0.19,1.04 2.21,0.28 4.29,-0.31 6.19,-1.35 0.49,-0.27 0.98,-0.63 1.41,-1l0.33 -0.3c0.12,-0.12 0.17,-0.18 0.3,-0.27 0.18,0.13 0.39,0.56 0.56,0.76 0.45,0.55 1.05,1.54 1.55,1.72 0.58,0.2 0.26,-0.51 0.21,-0.73 -0.12,-0.54 -0.2,-1.1 -0.2,-1.68 0.26,0.07 0.56,0.64 0.74,0.87 0.28,0.36 0.89,1.37 1.07,0.3 0.11,-0.68 0.26,-1.33 0.26,-2.03 0.35,0.03 1.1,1.04 1.32,1.37l0.18 0.33c0.18,0.45 0.15,0.87 0.08,1.36 -0.03,0.18 -0.02,0.34 -0.05,0.52l-0.17 0.92c-0.08,0.35 -0.12,0.61 -0.18,0.96l-0.56 2.76c-0.05,0.21 -0,0.31 -0.13,0.44 -0.1,0.11 -0.2,0.08 -0.34,0.17 -0.66,0.4 -0.21,1.57 -0.45,2.18 -0.28,0.7 -0.86,0.96 -1.56,1.08 -0.86,0.14 -1.45,1.25 -1.45,2.05l0.48 1.75c0.29,0.64 1.32,0.15 1.81,0.13l0 0.34c0,0.72 1.08,0.28 1.42,0.16 1.16,-0.44 1.39,-0.97 1.96,-1.36 0.33,0.49 0.53,1.14 1.32,1.14 0.34,0 0.74,-0.09 0.74,-0.51 0,-1.18 -1.07,-1.27 0.01,-4.51 0.78,-2.33 0.04,-1.54 0.04,-2.13 0,-0.67 0.23,-0.98 0.23,-1.66 0.64,0.1 0.4,0.97 0.4,1.43 0,0.52 0.33,0.57 0.69,0.74 0,0.49 -0.05,0.76 -0.06,1.2 -0.02,0.97 -0.57,0.51 -0.06,1.66 0.32,0.72 0.29,1.58 0.48,2.38 0.85,3.61 1.66,2.25 2.62,1.75 0.78,-0.4 1.51,-0.57 2.46,-0.68 1.03,-0.13 1.53,-0.42 2.31,-0.84l0.77 -0.49c0.55,-0.41 0.45,-0.33 0.53,0.33 0.12,1.05 0.52,0.61 0.21,1.61 -0.2,0.64 -0.22,1.85 -0.22,2.7 0,0.17 0.18,0.54 0.26,0.65 0.58,0.75 2.97,0.91 3.72,0.36 0.58,-0.43 0.63,-1.99 0.3,-2.66 -0.12,-0.25 -0.17,-0.27 -0.32,-0.49 -0.26,-0.37 -0.24,-0.81 -0.17,-1.33 0.07,-0.46 0.17,-0.95 0.28,-1.38 0.11,-0.42 0.21,-0.96 0.38,-1.28 0.22,0.02 0.15,0.01 0.31,0.15 0.03,0.02 0.09,0.09 0.12,0.11 0.47,0.48 1.01,0.95 1.45,1.47 0.68,0.8 0.87,1.34 1.23,2.31 0.15,0.39 0.46,0.75 0.86,0.91 0.78,0.3 2.07,0.05 2.65,-0.51l0.38 -0.53c0.58,-1.22 -0.67,-2.43 -1.38,-3.3 -0.09,-0.1 -0.15,-0.18 -0.23,-0.28 -0.39,-0.51 -0.65,-1.07 -0.93,-1.64l-0.55 -0.94c-0.53,-0.79 -1.18,-1.53 -1.9,-2.16l-0.84 -0.7c-1.62,-1.22 -2.74,-0.26 -3.34,-0.26 -0.32,0 -0.71,-0.34 -0.94,-0.49 -0.46,-0.31 -0.6,-0.17 -1.01,-0.36 0.04,-0.33 -0.06,-0.02 0.14,-0.26 0.35,-0.42 0,-0.72 -0.2,-1.17 -0.22,-0.5 -1.07,-2.67 -0.55,-3.12 0.09,-0.08 0.12,-0.07 0.26,-0.09 0.45,-0.04 1.02,0.04 1.43,0.06l2.18 0.06c0.61,-0.01 0.69,0.13 1.06,0.37 0.73,0.46 1.85,-0.12 2.32,0.6 0.19,0.29 0.22,0.77 0.38,1.11 0.51,1.09 1.47,0.86 1.5,-0.41 0.24,0.16 0.4,0.32 0.73,0.41 0.53,0.15 1.38,0.09 1.83,-0.13 1.09,-0.55 0.06,-1.59 -0.11,-2.28 0.3,0.03 0.33,0.17 0.69,0.17 0.66,0 0.61,-0.72 0.33,-1.14 -0.25,-0.37 -0.57,-0.7 -0.91,-0.97 -1.83,-1.46 -1.65,-0.57 -1.65,-2.01 0,-0.48 -0.22,-1.15 -0.66,-1.29 -0.47,-0.15 -0.77,0.47 -0.97,0.74 -1.04,1.39 -2.08,0.53 -3.48,0.87l-2.33 0.08c-0.55,0 -0.83,0.02 -0.81,-0.57 0.07,-1.72 0.73,-1.32 0.86,-1.89 -0.37,-0.55 -0.73,-0.12 -0.69,-0.91 0.04,-0.66 -0.08,-1.06 0.27,-1.45l0.38 -0.36c0.33,-0.33 1.02,-1.17 1.12,-1.57 0.27,0.18 0.42,1.01 0.54,1.35 0.3,0.88 0.69,1.79 1.11,2.61l0.3 0.62c0.08,0.19 0.17,0.51 0.41,0.51 0.44,0 0.4,-0.41 0.47,-0.84l0.44 -3.16c0.37,0.25 0.76,1.54 1.15,2 0.14,0.16 0.01,0.07 0.22,0.18z"/>
 </g>
</svg>
