<?xml version="1.0" encoding="UTF-8"?>
<!DOCTYPE svg PUBLIC "-//W3C//DTD SVG 1.1//EN" "http://www.w3.org/Graphics/SVG/1.1/DTD/svg11.dtd">
<!-- Creator: CorelDRAW -->
<svg xmlns="http://www.w3.org/2000/svg" xml:space="preserve" width="28.0706mm" height="37.4275mm" version="1.1" style="shape-rendering:geometricPrecision; text-rendering:geometricPrecision; image-rendering:optimizeQuality; fill-rule:evenodd; clip-rule:evenodd"
viewBox="0 0 1170.35 1560.47"
 xmlns:xlink="http://www.w3.org/1999/xlink"
 xmlns:xodm="http://www.corel.com/coreldraw/odm/2003">
 <defs>
  <style type="text/css">
   <![CDATA[
    .fil0 {fill:black}
   ]]>
  </style>
 </defs>
 <g id="Camada_x0020_1">
  <metadata id="CorelCorpID_0Corel-Layer"/>
  <path class="fil0" d="M1054.55 1471.74c-30.39,-7.43 -58.2,-25.82 -94.28,-16.89 -28.1,6.95 -52.94,8.67 -85.03,28.67 -29.64,18.47 -72.47,30.05 -103.89,37.16 -10.58,2.39 -15.88,-0.93 -27.33,2.68 -12.25,3.85 -35.98,7.77 -50.06,1.86 0.48,-0.38 1.36,-1.35 1.61,-0.81 14.61,-4.88 22.04,-7.53 37.47,-10.53 12.73,-2.48 29.26,-4.2 37.6,-12.87 -7.33,-26.99 -23.69,-19.62 -33.06,-16.72 -9.15,2.83 -12.42,5.31 -20.53,7.7l-145.51 29.12c-11.16,1.81 -15.97,-1.43 -28.21,1.91l-52.62 8.71c-8.99,0.11 -18.49,-1.41 -27.49,-1.2 -16.94,0.4 -32.94,14.65 -77.16,-1.91 -1.47,-37.41 74.76,-53.49 106.93,-64.97 50.49,-18.02 105.22,-14.65 134.98,-33.88 5.91,-3.81 25.54,-25.27 46.36,-38.24 62.18,-39.7 88.85,-60.79 168.4,-60.73 8.56,0.08 16.72,0.03 25.28,-0.32l1.41 -20.91c-60.49,-18.52 -113.71,3.05 -165.58,31.53 -19.73,10.84 -38.5,24.13 -55.07,38.65 -16.85,15.32 -64.76,42.25 -93.91,43.81 -13,0.7 -40.78,7.4 -56.02,10.94 -22.55,5.24 -78.95,26.12 -100.39,36.09 -29.12,13.55 -10.79,16.89 -45.47,5.24 -17.85,-6 -34.23,-10.05 -51.75,-16.45 -62.26,-22.76 -132.54,-51.23 -191.13,-82.66 -14.23,-7.63 -32.15,-16.86 -43.85,-25.07 -16.69,-11.7 -34.08,-12.55 -36.8,-33.83 61.63,-2.43 133.72,36.95 200.46,60.41l184.02 68.86c8.14,-0.39 2.56,1.19 7.36,-2.71 17.34,-19.64 -54.52,-39.83 -71.06,-46.25 -49.91,-19.36 -127.62,-47.93 -174.31,-68.72 -15.08,-6.71 -81.38,-24.58 -84.8,-38.32 26.34,-16.76 147.46,44.93 170.23,52.95 31.3,11.03 67.18,30.14 81.98,34.79 35.6,11.19 30.08,15.98 85.95,30.85l3.75 -21.04c-18.92,-14.07 -95.81,-42.66 -124.35,-53.01 -20.51,-7.43 -44.92,-16.49 -62.81,-25.98 -15.67,-8.32 -56.05,-18.2 -62.77,-30.3 37.24,-0.56 90.27,21.33 127.19,35.61l119.8 44.75c12.36,4.83 26.16,11.48 37.44,15.7l45.98 10.41c-2.67,-19.41 2.3,-22.1 -12.85,-27.48l-88.75 -32.82c-17.7,-7.46 -39.91,-13.36 -57.84,-20.32 -14.9,-5.79 -44.8,-14.84 -58.49,-22.21 2.9,-2.95 -1.47,-1.39 5.16,-2.98 8.17,-1.96 229.12,47.41 250.36,52.61 1.34,19.84 -16.76,18.16 -6.1,42.15 5.72,-0.91 10.49,-3.14 14.8,-5.49 12.74,-6.94 2.95,2.29 10,-10.96 18.4,-34.58 44.03,-17.5 55.6,-19.92 12.27,-2.57 25.57,-2.13 35,-5.14 86.5,-35 116.32,-70.44 221.19,-62.78 85.21,6.92 168.77,46.76 247.23,77.11 13.85,5.36 27.68,10.74 41.52,16.09 -0.14,-10.02 -0.02,-20.35 0,-31.42 -53.93,-20.89 -110.47,-38.8 -165.24,-59.11 -85.54,-31.73 -120.62,-39.23 -213.54,-23.14 -42.01,7.46 -69.09,21.63 -105.21,41.88 -15.26,8.62 -22.71,11.41 -40.32,14.8 -10.64,0.69 -17.41,-0.43 -29.05,1.1 -15.94,2.65 -9.29,1.42 -25.04,-0.2 -112.7,-11.56 -116.95,-23.01 -205.57,-37.42 -33.65,-5.47 -122.1,-32.95 -153.02,-22.1 -15.7,5.5 -39.37,4.32 -57.04,3.22 -27.81,-1.71 -24.92,-10.94 -44.42,13.02 -27.57,0.6 -45.21,-14.13 -67.32,12.75 -19.92,24.22 -19.61,-0.35 -64.57,23.76 3.11,44.24 34.89,59.95 65.2,78.93l189.11 90.38c13.6,4.86 103.05,29.17 103.43,37.77 1.03,22.7 3.33,32.74 18.27,42.41 27,17.47 78.55,7.62 109.64,4.94 10.15,-0.88 18.79,1.14 28.98,-1.08 76.29,-16.61 227.61,26.01 364.04,-40.32 54.85,-26.67 78.81,-44.67 148.91,-23.97 72.98,21.55 107.39,93.98 111.88,37.03 -15.68,-5.13 -44.71,-32.7 -64.26,-43.17 -5.73,-3.07 -16.33,-7.58 -20.65,-12.03zm-474.98 -366.27c26.25,27.87 66.65,37.15 104.75,27.39 8.79,-2.26 9.54,-1.99 16.41,-6.1 28.95,-17.29 23.17,-11.77 46.25,-46.51l10.74 -12.62c8.62,20.35 5.32,27.96 18.87,46.76 25.5,35.39 69.15,27.06 98.89,-20.83l13.35 -20.07c7.82,18.15 3.86,21.84 15.34,39.18 17.59,26.58 52.57,28.04 76.2,14.37 17.43,-10.08 15.22,-18.85 27.2,-30.78 9.84,4.36 16.25,18.52 35.88,29.19 11.65,6.33 24.96,8.02 36.38,11.76 54.26,15.63 92.4,-26.62 76.6,-85.93 -13.14,-49.34 -40.25,-86.77 -26.34,-141.14 6.23,-19.75 16.6,-41.07 17.57,-49.65 -11.77,-16 -28.67,-19.42 -36.21,-29.32l-12.36 -5.02c-20.48,4 -65.27,125.39 -73.06,151.96 -2.79,9.52 -5.42,18.05 -8.84,27.36 -5.73,15.03 -12.6,15.67 -16.84,35.96 -3.15,15.07 -5.09,29.1 -14.03,38.1 -6.17,6.22 -19.91,18.45 -29.87,19.43 -18.41,-25.6 -4.75,-114.06 2.69,-148.4 8.68,-38.84 13.68,-50.93 -19.78,-74.08 -11.43,-7.91 -24.59,-15.84 -38.16,-10.74 -1.38,3.47 -5.25,65.44 -5.69,75.47 -1.34,31.09 -1.71,40.17 -9.52,66.5 -10.7,36.09 -29.39,84.85 -58.55,91.65 -18.8,-23.48 -4.86,-114.41 2.24,-147.32 5.75,-26.6 13.38,-49 -6.46,-65.91 -7.33,-6.25 -37.32,-30.84 -49.99,-19.78 -6.86,6.93 -4.98,87.97 -9.81,108.3l-14.74 42.76c-10.17,26.02 -20.98,52.73 -41.96,70.14 -49.95,41.46 -81.9,6.33 -88.64,-38.69 17.37,-9.7 39.47,-14.79 53,-26.98 9.55,-8.6 11.41,-11.46 21.46,-19.72 23.01,-18.9 39.58,-70.62 39.31,-87.86 -4.5,-48.65 -43.69,-55.01 -80.69,-45.68 -51.83,13.06 -82.49,56.51 -96.44,110.32 -11.78,45.4 -6.12,91.46 24.86,126.51zm38.9 -74.48c3.05,-42.18 1.57,-58.66 23.26,-97.34 6.15,-10.97 12.25,-19.87 21.56,-27.88 8.61,-6.75 26.53,-18.93 34.74,-7.55 23.06,31.96 -31.33,119.9 -79.56,132.76zm431.54 -30.55c1.48,-4.26 14.43,-43.19 15.43,-43.61 5.61,-2.35 4.76,-1.88 5.81,8.38 1.4,13.66 1.09,18.9 5.79,32.38 3.77,9.08 4.73,5.86 8.29,17.79 2.18,7.31 2.78,14.25 5.9,20.67 4.27,8.79 10.62,13.46 13.83,38.26 2.63,20.33 -1.93,28.52 -8.62,41.22 -52.96,1.33 -80.58,-52.63 -43.3,-70.94 17.23,-8.46 17.61,4.09 36.75,5.58 -1.6,-8.49 -16.34,-38.98 -31.4,-45.79 -6.62,-2.99 -2.12,1.15 -8.48,-3.94zm-744.96 -357.88c-88.08,20.58 -139.37,57.17 -183.92,144.09 -20.2,39.4 -36.98,87.48 -35.86,133.06 1.47,3.89 19.79,16.27 34.39,32.14 17.15,18.64 22.54,36.3 30.68,41.41 -2.21,-22.97 -5.26,-17.97 -3.57,-43.92 4.67,-51.39 23.6,-115.59 46.57,-160.76 10.31,-20.28 27.72,-43.09 40.49,-62.38 4.76,-7.23 18.24,-16.75 26.83,-27 14.16,-16.9 41.53,-31.14 62.16,-37.39 80.33,-16.86 142.47,72.08 149.65,150.74 5.19,111.37 -25.75,202.36 -92.46,286.51 -33.2,40.97 -84.22,85.12 -135.79,59.55l-11.75 -6.53c-23.05,-16.62 -33.48,-28.78 -47.99,-55.47 -9.75,-17.94 -2.48,-23.53 -27.81,-24.04 -16.54,-0.34 -28.43,4.55 -35.57,16.69 1.84,17.24 24.38,49.17 34.45,57.68 15.21,12.85 31.63,26.79 53.77,35.67 112.68,35.26 190.32,-8.93 259.74,-105.83 50.25,-71.53 85.78,-201.43 64.19,-289.98 -7.6,-29.55 -20.29,-52.79 -38.28,-76.2 -46.24,-57.43 -121.24,-84.67 -189.92,-68.02zm124.41 -260.92c1.66,38.19 -52.47,214.95 7.3,216.42 21.72,0.53 23.99,-19.79 29.9,-35.84l49.27 -147.9c5.8,6.62 2.08,14.62 -0.25,25.71 -3.69,17.55 -4.6,77.59 -3.56,95.6 4.43,76.28 39.76,71.4 49.68,79.23 10.62,2.03 20.21,2.53 31.02,2.38 13.42,-0.17 17.83,0.01 17.42,-14.95 -37.52,5.67 -50.44,6.67 -58.2,-36.92 -8.87,-49.9 5.64,-133.2 16.31,-183.1l16.06 -60.7c3.03,-10.56 5.05,-8.32 7.6,-18.16 -3.89,-6.85 -14.08,-12.28 -16.73,-18.58l-21.44 -5.75c-14.01,19.47 -22.05,44.14 -31.97,65.75 -32.07,69.86 -48.33,137.75 -73.58,207.46l-4.11 9.06c-3.45,-8.65 11.44,-116.65 14.53,-131.98 2.19,-10.87 5.07,-18.09 6.93,-29.93l13.58 -101.42c-7.41,-7.85 -22.12,-23.67 -32.7,-26.65 -3.94,9.49 -0.63,11.64 -6.16,22.56 -10.65,24.2 -21.3,48.41 -31.95,72.6 -26.44,60.51 -49.02,117.44 -82.96,174.06 -15.19,25.35 -39.24,53.46 -64.93,22.55 -26.65,-32.06 -21.84,-92.55 -13.39,-131.47 9.64,-44.39 28.83,-118.6 75.44,-132.91 30.65,-8.67 22.01,45.55 32.55,64.14 21.64,-0.78 51.74,-46.05 0.54,-76.22 -48.52,-23.44 -84.47,20.96 -104.84,63.92 -26.78,61.25 -56.84,216.1 23.5,244.21 42.89,15.01 72.13,-42.53 90.44,-75.91 9.89,-18.02 18.57,-37.45 27.61,-56.04 5.49,-11.2 10.61,-22.18 15.51,-33.71 4.17,-9.96 16.08,-40.09 21.54,-47.51zm443.53 128.52c2.73,-16.72 3.78,-23.02 -0.7,-40.04 -5.91,-22.43 -9.37,-19.47 -18.08,-34.15 -10.34,-17.42 -6.35,-17.08 -27.81,-23.67 -16.17,-4.97 -29.96,-1.97 -41.75,5.65 -52.62,33.95 -34.15,67.27 -49.91,104.7 -5.05,11.99 -12.06,25.81 -25.87,26.49 -18.98,-28.96 21.48,-57.86 -16.61,-82.36 -27.66,-17.79 -23.31,-6.3 -24.19,19.75 -0.75,22.17 -21.94,61.59 -33.41,62.88 -20.39,-5.78 -20.57,-20.8 -20.14,-41.61 0.5,-23.99 3.39,-37.43 10.8,-55.42 4.37,-10.59 17.23,-30.34 35.89,-26.76 20.09,3.86 6.12,31.28 33.73,32.1 -2.91,-69.59 -90.84,-64.77 -116.2,16.65 -10.41,33.42 -7.32,69.32 15.31,85.81 10.17,7.42 27.92,15.15 41.34,10.73 17.86,-5.88 17.58,-17.31 28.96,-27 6.28,7.59 7.73,16.99 15.06,23.03 18.5,15.24 37.14,6.5 52.72,-6.76 14.38,-12.22 7.7,-16.78 16.32,-25.99 11.53,3.52 26.74,41.03 64.29,41.28 37.86,0.26 43.03,-32.14 59.39,-48.86 6.09,24.38 1.92,21.63 20,34.96 14.23,10.51 20.15,14 41.85,13.97 66.45,-0.1 19.2,-77.14 18.82,-118.78 -0.22,-23.94 10.61,-36.81 10.05,-51.07 -7.14,-8.9 -18.41,-15.89 -32.32,-17.23 -5.22,13.25 -11.69,17.49 -15.98,28.54 -11.69,30.11 -14.37,28.69 -25.5,63.88 -3.24,10.26 -4.6,27.53 -16.05,29.28zm-22.66 -51.32c15.76,59.68 -24.19,131.46 -58.01,79.43 -11.9,-18.29 -11.56,-50.86 -4.3,-73.47 5.72,-17.84 4.18,-18.27 17.06,-27.13 10.14,-6.97 16.45,-10.39 29.89,-5.5 -1.61,13.1 -6.95,11.23 -14.51,19 0.34,11.51 1.66,17.28 7.14,24.66 16.57,-3.91 4.44,-14.17 22.73,-16.99zm79.55 56.16c5.35,20.85 9.86,32 -1.32,48.63 -10.04,-0.01 -32.15,-9.79 -31.29,-28.34 1.23,-26.79 23,-13.17 28.2,-12.67 1.39,-19.52 -11.37,-21.47 -21,-30.81 3.99,-10.66 5.8,-22.83 9.71,-27.6 8.35,7.19 12.49,38.27 15.71,50.79zm-402.87 -507.69c-16.74,12.73 -13.83,4.99 -33.56,29.01 -7.02,8.54 -8.5,6.28 -15.11,15.92 -4.55,6.64 -8.99,13.69 -13.39,20.4 -5.35,8.15 -19.4,34.68 -22.23,43.25 -3.5,10.58 0.62,14.68 6.02,21.43 12.83,16 10.46,14.36 18.09,16.23 6.85,-6.36 9.64,-23.69 13.26,-34.94 7.28,-22.64 33.8,-88.21 53.21,-94.43l-32.66 227.7c13.62,10.37 22.13,24.96 37.91,26.43 -1.38,-24.35 3.97,-51.34 5.91,-76.89 2.76,-36.36 81.58,-155.7 96.4,-162.4 -13.35,42.54 -48.53,192.37 -2.97,234.31 8.72,8.03 66.8,25.43 64.95,-0.85 -12.84,-2.61 -40.22,17.19 -50.92,-28.2 -4.96,-20.99 -2.23,-42.91 0.42,-62.59 1.25,-9.32 0.18,-14.38 0.58,-23.43 1.74,-39.82 33.89,-132.35 34.59,-142.78 -41.43,-46.65 -78.72,23.5 -104.83,61.43 -4.57,6.64 -8.93,11.38 -13,18.19 -5.04,8.43 -4.57,16.54 -11.32,22.7 -2.27,-4.36 -1.25,-6.56 -0.26,-13.77 0.84,-6.05 1.44,-11.5 2.07,-17.74 2.02,-20.22 7.3,-55.6 -6.23,-71.43 -9.14,-10.7 -11.94,-11.93 -26.92,-7.54zm-258.24 1126.11c8.68,-108.64 29.83,-248.67 60.33,-351.16 6.11,-20.56 11.22,-38.24 -4.51,-53.38 -7.62,-7.34 -29.16,-23.36 -42.21,-24.73 -16.93,-1.79 -14.32,11.29 -20.83,44.9 -13.27,68.41 -22.97,98.32 -31.33,176.23 -4.12,38.36 -11.15,86.8 -10.41,126.28 0.6,32.59 -7.12,37.32 10.92,56.61 6.83,7.3 22.32,29.89 38.04,25.25zm490.99 -332.26c-14.68,-35.59 30.29,-144.48 23.19,-189.09 -7.91,-5.3 -20.2,-12.36 -32.15,-13.15 1.49,23 -6.66,74.09 -14.98,91.33 -16.58,-6.23 -33.58,-19.08 -64.48,7.98 -17.34,15.19 -24,28.96 -29.91,58.64 -9.48,47.55 36.32,89.53 69.84,52.06 6.46,-7.22 2.57,-5.96 9.71,-11.3 10.24,13.68 18.92,43.17 56.13,18.44 10.91,-7.25 6.83,-9.12 15.61,-14.48 12.86,7.14 8.77,15.98 34.89,20.85 17.33,3.23 35.26,-0.23 46.6,-8.48 15.49,-11.25 41.36,-60.7 29.82,-74.62 -18.42,3.31 -1.95,12.33 -34.28,56.32 -16.5,22.45 -47.33,12.25 -45,-16.51 20.15,-11.55 26.56,-11.38 39.13,-30.24 54.5,-81.83 -38.95,-80.5 -66.07,-34.15 -6.82,11.65 -8.65,35.61 -12.8,52.92 -0.98,4.08 -6.41,20.88 -7.85,23.99 -3.54,7.66 -10.04,12.52 -17.39,9.5zm-58.16 -99.98c12,-7.3 21.32,-3.25 26.64,8.3 3.69,8.02 -7.98,55.88 -11.03,62.8 -20,45.42 -44.27,44.82 -40.38,-17.49 0.49,-7.79 4.99,-25.3 7.34,-32.09 4.3,-12.4 9.14,-16.48 17.43,-21.52zm118.44 69.53c2.91,-29.59 10.86,-74.23 41.21,-71.56 9.16,36.89 -20.94,62.98 -41.21,71.56zm-46.5 -606.86c-10.19,-2.91 -5.85,-2.68 -14.83,-4.74 -10.9,19.02 5.52,24.31 -18.04,62.83 -13.5,22.07 -36.09,18.34 -35.56,-14.33 0.4,-25.02 4.05,-53.25 17.52,-67.25 25.46,-26.46 36.42,9.86 43.51,18.39l10.87 -0.58c-9.16,-26.75 -19.33,-50.83 -54.84,-42.03 -12.49,3.09 -38.18,26.97 -46.35,53.88 -23.71,78.12 29.84,90.5 44.52,86.39 19.51,-5.46 16.71,-14.36 28.47,-22.13 12.95,10.89 8.84,21.02 32.21,23.41 20.89,2.14 23.69,-8.23 36.47,-17.74 14.42,9.87 19.05,21.26 44.42,19.04 17.8,-1.56 34.1,-9.81 31.41,-32.28 -1.86,-15.51 -10.61,-37.18 -14.69,-54.06 -7.97,-32.93 8.6,-34.73 6.36,-60.66 -7,-4.54 -14.18,-11.2 -25.51,-13.42 -17.04,31.62 -16.99,25.5 -32.59,69.14 -4.36,12.19 -9.49,25.58 -14.49,38.06 -7.43,18.55 -3.49,27.15 -25.07,29.38 -3.69,-22 0.23,-23.97 2.81,-43.49 2.31,-17.51 -10.28,-17.99 -16.6,-27.81zm78.72 18.74c4.99,22.03 20.76,56.58 2.93,63.37 -16.55,6.3 -44.57,-43.3 -1.23,-32.93 -2.5,-15.38 -7.83,-20.42 -17.54,-28.08l6.39 -21.25c7.69,3.43 7.24,9.17 9.44,18.89zm-229.74 198.67c6.94,4.07 6.99,-4.39 21.69,-2.42 6.9,0.93 17.52,7.13 24.01,8.82 31.03,8.09 26.57,-10.69 27.67,-32.33 -16.39,3.58 -3.35,24.41 -37.25,16.01 -7.97,-1.98 -28.22,-6.2 -35.48,0.71 -7.89,7.53 -2.27,6.6 -0.63,9.22z"/>
 </g>
</svg>
