<?xml version="1.0" encoding="UTF-8"?>
<!DOCTYPE svg PUBLIC "-//W3C//DTD SVG 1.1//EN" "http://www.w3.org/Graphics/SVG/1.1/DTD/svg11.dtd">
<!-- Creator: CorelDRAW -->
<svg xmlns="http://www.w3.org/2000/svg" xml:space="preserve" width="149.999mm" height="20mm" version="1.1" style="shape-rendering:geometricPrecision; text-rendering:geometricPrecision; image-rendering:optimizeQuality; fill-rule:evenodd; clip-rule:evenodd"
viewBox="0 0 2690.61 358.75"
 xmlns:xlink="http://www.w3.org/1999/xlink"
 xmlns:xodm="http://www.corel.com/coreldraw/odm/2003">
 <defs>
  <style type="text/css">
   <![CDATA[
    .fil0 {fill:black}
   ]]>
  </style>
 </defs>
 <g id="Camada_x0020_1">
  <metadata id="CorelCorpID_0Corel-Layer"/>
  <g id="_2937051595376">
   <path class="fil0" d="M1210.89 327.98l-9.33 -141.95 229.47 -138.53 -220.14 280.48zm1365.39 -225.58c19.4,-6 39,-10.98 58.31,-16.82l56.03 -14.94c-17.64,8.6 -37.71,16.93 -55.9,25.08 -20.05,8.99 -38.98,18.13 -59.19,27.39 -78.92,36.32 -157.74,72.86 -236.8,108.83 -39.5,17.98 -78.51,36.03 -118.85,54.32 -19.71,8.94 -39,17.92 -58.72,27.1 -19.6,9.13 -38.89,19.45 -59.69,26.87 -32.65,11.65 -73.6,19.85 -106.97,5.24 -19.2,-8.41 -35.95,-24.21 -43.28,-44.34 -17.61,-48.41 26.66,-125.61 51.45,-162.69 5.76,-8.63 31.88,-48.15 37.01,-50.54 -2.7,8.11 -6.22,10.64 -10.91,26.08 -16.15,53.2 -6.06,113.26 53.31,120.15 24.44,2.83 42.32,-1.37 64.27,-7.75 19.13,-5.56 37.72,-10.77 56.96,-16.53 136.72,-39.32 244.52,-67.77 372.95,-107.47l0.01 0.02zm-994.31 254.83l-589.24 -0.37 8.99 -120.78 -102.51 120.78 -181.67 1.89 290.75 -357.7 180.08 -0.83 -99.57 121.99 197.87 -121.79 562.87 -0.42 -83.21 111.88 -209.81 -0.23 -27.75 35.52 207.9 -0.41 -62.47 83.43 -207.59 -0.98 -35.68 45.82 208.49 -1.08 -57.46 83.28 -0 0zm-901.59 0.79l285.9 -357.41 -179.8 -0.35 -284.92 356.59 178.81 1.17 0.01 0zm-383.69 -0.16l156.46 -1 307.38 -356.29 -167.12 -0.44 -126.57 150.57 22.03 -150.58 -209.98 0.29 -278.88 357.06 169.75 0.17 149.88 -185.9 -22.94 186.13 0 -0z"/>
  </g>
 </g>
</svg>
