<?xml version="1.0" encoding="UTF-8"?>
<!DOCTYPE svg PUBLIC "-//W3C//DTD SVG 1.1//EN" "http://www.w3.org/Graphics/SVG/1.1/DTD/svg11.dtd">
<!-- Creator: CorelDRAW -->
<svg xmlns="http://www.w3.org/2000/svg" xml:space="preserve" width="149.997mm" height="20mm" version="1.1" style="shape-rendering:geometricPrecision; text-rendering:geometricPrecision; image-rendering:optimizeQuality; fill-rule:evenodd; clip-rule:evenodd"
viewBox="0 0 2690.56 358.75"
 xmlns:xlink="http://www.w3.org/1999/xlink"
 xmlns:xodm="http://www.corel.com/coreldraw/odm/2003">
 <defs>
  <style type="text/css">
   <![CDATA[
    .fil0 {fill:black}
   ]]>
  </style>
 </defs>
 <g id="Camada_x0020_1">
  <metadata id="CorelCorpID_0Corel-Layer"/>
  <g id="_2936873356688">
   <path class="fil0" d="M1392.1 342.98c20.29,14.19 -16.25,14.81 69.58,14.81l82.06 -0.31c0.42,-0.09 0.89,-0.26 1.26,-0.35 11.31,-2.96 -13.41,-20.11 -14.93,-30.5 -6.5,-4.6 -27.2,-34.65 -33.55,-43.17 -3.28,-4.39 -5.73,-6.64 -8.32,-10.36 -2.78,-4 -4.8,-7.2 -8.24,-11.81l-12.31 -15.88c-7.65,-15.28 21.81,-7.07 43.35,-13.81 37.26,-11.67 64.3,-18.42 73.51,-70.33 5.74,-32.37 29.74,-82.41 -20.21,-99.02 -25.08,-8.34 -15.54,-5.3 -42.53,-7.77 -29.9,-2.74 -313.71,-0.82 -378.3,-0.77 -5.8,0.01 -17.05,-0.72 -22.37,0.65 -7.33,1.88 -10.11,28.66 -11.58,37.05 -1.38,7.85 -3.34,11.59 -4.97,17.74 -3.2,12.04 -7.56,43.11 -12.27,57.19l-33.6 152.26c-1.11,3.7 -7.66,29.23 -6.64,32.65 3.44,11.5 36.97,3.8 51.92,2.18 32.28,-3.51 61.02,-16.03 74.46,-42.79 1.43,-2.86 3.22,-6.62 4.47,-9.36 3.88,-8.51 21.98,-93.24 23.43,-102.06l9.52 -40.36c16.72,-55.35 -22.41,-40.1 133.73,-41.94 5.13,-0.06 112.52,-0.75 118.34,0.78 6.4,1.67 4.65,3.07 4.2,6.12l-5.15 22.11c-1.52,10.73 -3.52,19.39 -8.34,26.45 -55.86,1.92 -119.14,-1.13 -173.48,0.16 -20.74,0.49 -6.12,9.77 2.5,22.91l44.35 62.44c6.44,8.77 56.82,77.05 60.11,85.07l0.01 0zm297.31 -292.24c10.36,4.96 7.1,1.93 19.58,1.93l41.21 0c12.27,0 45.5,4.03 50.93,-3.46 0.62,-0.86 9.33,-41.63 9.24,-42.52 -1.07,-9.54 -9.57,-6.08 -20.58,-6.05 -24.97,0.06 -65.65,-1.2 -87.02,0.04 -8.9,10.77 -7.75,25.81 -10.4,36.59 -1.78,7.23 -3.59,4.71 -2.96,13.46l0 0.01zm-1056.43 2.63l-2.73 1.01c-13.66,3.58 -34.45,6.04 -51.06,16.75 -9.68,6.24 -32.57,22.17 -31.76,37.09 -4.12,3.19 -13.85,52.54 -14.49,56.25 -5.4,30.99 -18.93,80.65 -25.77,116.31 -4.42,23.01 -4.41,41.3 12.25,54.11 30.07,23.09 84.98,21.48 131.09,21.48 29.47,0 214.06,1.51 233.95,-0.24 17.95,-1.59 48.17,-5.87 63.53,-12.52 46.71,-20.26 45.36,-39.65 56.95,-89.62 8.89,-38.33 17.12,-79.29 26.22,-117.37 7.67,-32.05 12.46,-58.85 -23.83,-74.61 -14.07,-6.11 -9.72,-4.27 -22.52,-6.39l-6.94 -1.77c-0.32,-0.11 -0.89,-0.3 -1.29,-0.52 -4.28,0.68 -33.6,-1.31 -42.48,-1.32l-260.5 0.15c-9.58,0.02 -35.07,2.15 -40.61,1.22l-0.02 -0.01zm17.41 106.62c17.12,-2.25 233.18,-1.26 250.76,-0.83 22.12,0.54 36.03,2.04 55.66,6.13 23.76,4.95 16.34,16.63 11.26,36.16 -4.83,18.53 -0.3,31.93 -20.28,38.17 -45.91,14.32 -247.59,7.72 -307.16,7.6 -22.12,-0.04 -37.26,-1.71 -56.76,-5.96 -23.51,-5.12 -15.57,-20.12 -11.47,-38.25 3.58,-15.84 1.16,-29.59 22.55,-36.12 18.92,-5.77 35.94,-4.34 55.45,-6.9zm972.87 196.18c18.45,8.36 78.37,-4.22 103.54,-29.8 18.29,-18.61 18.42,-31.16 24.5,-53.56l28.2 -125.96c2.42,-7.66 2.41,-13.36 4.11,-21.52 0.97,-4.69 7.73,-15.34 2.95,-19.61 -3.62,-3.24 -103.63,-3.08 -108.76,0.06 -5.09,3.12 -4.42,14.06 -5.5,20.27 -1.14,6.59 -3.7,12.76 -5.1,20.62 -2.75,15.35 -5.94,27.46 -8.91,42.4l-18.97 83.87c-1.76,12.04 -19.33,77.73 -16.05,83.24zm229.24 -233.42c-25.24,19.18 -27.39,40.55 -33.6,68.41 -3.03,13.62 -5.79,32.72 2.4,43.37 7.5,9.75 18.63,16.64 34.91,19.02 35.2,5.14 67.4,4.88 105.05,4.88 19.1,0 100.02,-2.42 110.57,1.46 2.35,4.98 -6.09,42.16 -10,47.27 -11.19,3.98 -131.07,1.79 -153.42,1.67 -11.27,-12.78 -5.35,-22.46 -42.12,-28.73 -10.66,-1.82 -56.5,-3.54 -65.24,0.25 -3.16,2.01 -16.3,39.28 10.9,59.04 30.5,22.14 85.41,18.4 127.88,18.4 51.65,0 124.42,3.52 171.61,-5.75 8.88,-1.75 13.62,-4.13 22.16,-6.77 6.69,-2.08 7.28,-3.54 14.03,-6.69 2.87,-1.34 2.62,-1.34 5,-2.16 3.78,-5.62 9.24,-6.86 13.66,-13.65 14.39,-22.08 11.5,-31.13 18.96,-55.63 4.67,-15.34 1.05,-29.68 -7.62,-38.7 -8.5,-8.86 -23.14,-14.2 -35.66,-16.85 -42.36,-8.96 -190.16,0.92 -210.84,-4.47 -3.97,-7.12 0.89,-14.38 2.5,-25.48 1.52,-10.52 3.62,-16.55 8.12,-25.26 15.06,-1.63 146.82,-2.33 156.35,-0.01 8.25,6.76 4.26,10.49 15.29,17.12 9.24,5.54 12.74,4.8 24.25,7.84 17.97,4.75 42.03,3.38 62.72,2.9 6.29,-8.76 11.75,-31.24 8.53,-44.67 -3.31,-13.81 -17.02,-22.15 -30.88,-27.17 -33.26,-12.06 -65.64,-12.62 -107.94,-12.62 -64.61,0.02 -112.26,-4.17 -176.26,5.99 -12.22,1.94 -30.86,9.09 -41.3,17l0.01 -0.01zm388.39 109.03c1.06,5.87 -4.21,25.55 -5.81,32.73 -2.41,10.81 -4.59,19.57 -6.72,31.05 -1.17,6.39 -3.4,9.42 -4.5,15.21 -2.25,11.8 -9.05,40.47 -7.35,45.84 13.62,4.51 54.44,-2.62 69.25,-5.01 18.49,-2.99 38.62,-14.73 48.73,-24.35 11.7,-11.13 15.98,-33.36 19.47,-52.23 1.46,-7.87 10.12,-48.85 14.79,-54.86 4.45,1.02 74.94,58.56 87.21,71.65 5.3,5.33 14.77,12.13 20.11,16.69 18.44,15.71 40.3,33.92 65.69,41.77 19.84,6.13 41.47,7.49 65.78,7.52 77.58,0.08 90.83,7.99 53.47,-22.83l-114.18 -99.06c-4.81,-3.85 -44.6,-34.58 -43.32,-41.24 0.7,-3.64 128.66,-92.9 143.16,-104.25 8.41,-6.58 14.59,-10.71 23.93,-17.05 8.14,-5.53 22.98,-13.92 19.43,-17.82 -4.01,-4.42 -107.27,-1.89 -113.88,-1.84 -20.42,0.14 -26.76,9.59 -38.11,17.6 -34.38,24.26 -98.36,71.25 -129.38,91.26 -8.01,5.17 -27.87,21.43 -32.03,20.44 -0.19,-0.33 -0.35,-0.83 -0.41,-1.06 -0.06,-0.23 -0.3,-0.79 -0.35,-1.08 -1.01,-5.93 19.72,-92.16 24.97,-116.05 1.81,-8.25 2.83,-6.9 -3.11,-12.1 -22.75,6.69 -101.27,-5.54 -116.61,3.94 -0.55,0.86 -9.37,40.58 -9.99,44.47 -1.46,9.24 -3.14,13.8 -5.33,21.92l-24.88 108.77 -0 0.01zm-2037.09 -5.98c5.83,2 64.51,60.5 75.28,70.16 3.2,2.87 7.87,6.1 9.54,9.97 6.11,3.31 20.19,18.26 27.27,23.63 7.19,5.45 21.78,13.98 32.91,16.39 16.32,3.52 23.66,5.95 42.88,7.24 11.63,0.79 41.13,3.31 49.52,-1.28l17.05 -76.55c1.71,-8.49 3.54,-10.14 4.97,-19.32l28.55 -131.53c3.09,-16.94 19.16,-63.96 11.45,-73.19 -12.71,-0.56 -44.72,2.9 -59.23,4.97 -8.85,1.26 -9.76,2.6 -16.41,4.52 -39.27,11.4 -50.73,32.37 -57.65,63.84 -1.14,5.19 -1.49,12.05 -2.63,16.93l-7.25 32.06c-1,5.38 -3.15,9.52 -4.4,15.29 -2.46,11.3 -1.65,23.91 -10.13,29.26 -5.96,-1.5 -3.89,-1.94 -7.96,-5.98l-20.84 -19.84c-10.31,-9.78 -18.93,-17.72 -28.48,-26.28 -10.07,-9.01 -18.45,-16.34 -28.39,-26.34 -9.38,-9.45 -18.83,-17.19 -28.29,-26.55 -18.71,-18.52 -36.77,-37.78 -61.09,-48.85 -20.91,-9.53 -72.07,-15.98 -101.93,-11.93 -6.16,7.2 -8.21,26.04 -10.28,36.58 -1.02,5.16 -3.66,11.18 -5.11,17.61 -1.57,6.97 -1.28,12.43 -3.26,19.34 -3.03,10.58 -6.86,26.26 -9.29,37.66 -2.82,13.27 -5.56,25.18 -8.14,37.17 -2.97,13.76 -5.33,25.35 -7.89,38.91 -1.39,7.38 -3.69,12.18 -4.99,17.73 -1.58,6.73 -1.51,13 -3.03,19.57 -4.18,18.18 -9.86,37.75 -12.71,56.84 -2.94,19.74 -14.44,19.63 25.12,19.75 18.58,0.06 80.24,1.18 90.16,-0.63 6.91,-12.48 6.55,-26.76 10.64,-40.87 4.92,-16.95 9.86,-47.53 13.82,-63.22l9.95 -41.48c1.48,-6.6 1.21,-14.6 3.84,-20.12 6.39,-5.76 45.79,37.44 46.45,38.56l-0.01 -0.01z"/>
  </g>
 </g>
</svg>
