<?xml version="1.0" encoding="UTF-8"?>
<!DOCTYPE svg PUBLIC "-//W3C//DTD SVG 1.1//EN" "http://www.w3.org/Graphics/SVG/1.1/DTD/svg11.dtd">
<!-- Creator: CorelDRAW -->
<svg xmlns="http://www.w3.org/2000/svg" xml:space="preserve" width="39.1927mm" height="4.2669mm" version="1.1" style="shape-rendering:geometricPrecision; text-rendering:geometricPrecision; image-rendering:optimizeQuality; fill-rule:evenodd; clip-rule:evenodd"
viewBox="0 0 56.57 6.16"
 xmlns:xlink="http://www.w3.org/1999/xlink"
 xmlns:xodm="http://www.corel.com/coreldraw/odm/2003">
 <defs>
  <style type="text/css">
   <![CDATA[
    .fil0 {fill:black}
   ]]>
  </style>
 </defs>
 <g id="Camada_x0020_1">
  <metadata id="CorelCorpID_0Corel-Layer"/>
  <path class="fil0" d="M39.61 5.01c-0.36,0.09 -0.56,0.01 -0.52,-0.38 0.16,-0.06 0.24,-0.09 0.47,-0.06 0.1,0.16 0.12,0.26 0.05,0.44zm-5.69 -2.23l-0.02 0.13 0 0.32c0.41,0.21 1.43,0.54 1.95,0.51 0.2,-0.27 0.5,-0.65 0.48,-1.1 -0.37,-0.24 -1.15,-0.58 -1.78,-0.63 -0.25,0.22 -0.38,0.56 -0.63,0.76zm-28.31 3.28l1.48 0.02c0.2,-0.82 0.94,-5.45 0.87,-6.04l-1.79 -0.02c0.07,0.73 0.3,-0.14 0.09,1.45 -0.13,0.99 -0.71,4.04 -0.65,4.59zm3.43 -0.01c0.49,0.1 1.45,0.04 2,0.04 0.76,0.01 1.28,0.1 1.42,-0.5l-1.75 -0.03c-0.25,-1.01 0.84,-4.31 0.69,-5.53l-1.8 0c0.04,0.34 0.2,0.35 0.21,0.65 0.02,0.43 -0.82,4.57 -0.77,5.37zm10.74 -5.5l1.1 0.02c0.21,0.57 -0.69,4.51 -0.69,5.54l1.51 -0c0.31,-1.45 0.51,-4 0.78,-5.21 0.08,-0.38 0.09,-0.29 1.24,-0.36l0.03 -0.5 -4.14 -0.01 0.18 0.51zm27.73 -0.02l1.9 0.05c0.12,0.34 -0.04,1.3 -0.19,1.57 -0.02,0.01 -0.05,0 -0.06,0.03l-0.29 0.07c-0.08,0.01 -0.33,0 -0.43,0 -0.72,-0.01 -1.38,-0.13 -1.68,0.94 -0.12,0.41 -0.44,2.57 -0.36,2.89l3.7 0.04c0.05,-0.27 -0.08,-0.37 -0.21,-0.54l-1.85 -0.03c-0.11,-0.42 0.01,-1.29 0.22,-1.59 0.8,-0.33 1.56,0.33 2.18,-0.48 0.36,-0.47 0.34,-1.29 0.46,-1.93 0.34,-1.9 -0.39,-1.52 -3.57,-1.52 0.02,0.21 0.1,0.34 0.18,0.5zm5.59 0.02c0.55,0.04 1.48,-0.1 1.89,0.07 0.21,0.29 -0.04,1.26 -0.17,1.59 -0.85,0.2 -2.11,-0.48 -2.47,1.07 -0.1,0.45 -0.16,0.99 -0.21,1.43 -0.03,0.21 -0.28,1.21 -0.09,1.36 0.33,0.15 3.1,0.08 3.67,0.04 0.02,-0.24 -0.09,-0.38 -0.22,-0.52l-1.85 -0.03c-0.07,-0.31 0.04,-0.95 0.09,-1.3 0.06,-0.45 0.03,-0.35 1.18,-0.35 1.24,0 1.29,-0.57 1.46,-1.53 0.49,-2.87 0.24,-2.33 -3.44,-2.35l0.16 0.51zm-50.5 3.33l-0.7 0.02 0.38 -2.98c0.08,-0.41 0.3,-0.45 0.77,-0.31 0.06,0.36 -0.32,2.95 -0.45,3.27zm-2.6 2.18l1.47 0.03c0.08,-0.29 0.11,-0.57 0.15,-0.83l0.1 -0.6c0.38,-0.74 1.76,0.43 2.37,-0.8 0.19,-0.37 0.62,-2.84 0.44,-3.37 -0.16,-0.48 -0.4,-0.47 -0.99,-0.47 -0.96,0 -2.03,-0.04 -2.97,0.01 0.06,0.65 0.29,-0.07 0.08,1.46 -0.13,0.99 -0.71,3.99 -0.65,4.56zm26.05 -0.51c-0.1,-0.35 0.54,-4.56 0.72,-4.96 0.96,-0.1 0.73,0.16 0.6,0.94 -0.09,0.53 -0.15,1.02 -0.24,1.56 -0.38,2.27 0.01,2.53 -1.08,2.46zm2.03 -5.53c-3.36,0.01 -2.71,-0.23 -3.31,3.22 -0.53,3.01 -0.44,2.85 1.52,2.85 1.9,-0 1.97,0.18 2.34,-2.62 0.09,-0.66 0.18,-1.36 0.29,-1.99 0.14,-0.76 0.17,-1.46 -0.84,-1.45zm-11.42 0.59c0.08,0.32 -0.57,4.76 -0.7,4.87 -0.12,0.11 -0.59,0.14 -0.7,-0.02 -0.08,-0.11 0.49,-3.5 0.57,-4.12 0.07,-0.51 -0.01,-0.99 0.83,-0.73zm0.43 -0.58c-2.4,-0.01 -2.63,-0.34 -2.96,2.34 -0.1,0.79 -0.55,2.82 -0.31,3.38 0.23,0.51 1.3,0.35 2.42,0.35 1.44,0 1.34,-0.75 1.59,-2.38 0.11,-0.7 0.54,-2.85 0.29,-3.33 -0.2,-0.4 -0.49,-0.36 -1.03,-0.36zm23.74 2.69c-0.31,-0.36 -0.31,-0.71 -0.69,-1.05 -0.31,-0.28 -0.81,-0.43 -1.04,-0.67 1.1,0.07 1.83,0.67 1.73,1.71zm-6.66 -1.27c0.84,0.23 2.24,0.68 2.75,1.07 0.03,0.6 -0.45,1.2 -0.65,1.68 -1.37,0.11 -2.35,-0.53 -2.99,-0.66 -0.24,0.2 -0.62,0.55 -0.76,0.8 0.32,0.18 0.31,-0 0.45,0.29 -0.43,0.17 -0.63,-0.21 -0.75,0.15 0.3,0.17 0.49,-0.04 0.66,0.29 -0.39,0.15 -0.38,-0.06 -0.69,0.07 0.17,0.3 0.24,0.11 0.68,0.29 -0.08,0.29 -0.12,0.1 -0.43,0.22l0.32 0.37c0.65,0.05 7.1,-0.41 7.33,-0.53 0.09,-0.07 0.02,-0.06 0.07,-0.26 0.12,-0.49 0.66,-0.87 1,-2.2 0.13,-0.51 0.12,-1.11 -0.14,-1.51 -0.76,-1.19 -7.04,-1.86 -8.33,-1.13 0.08,0.29 0.03,0.16 0.31,0.34l1.2 0.71z"/>
 </g>
</svg>
