<?xml version="1.0" encoding="UTF-8"?>
<!DOCTYPE svg PUBLIC "-//W3C//DTD SVG 1.1//EN" "http://www.w3.org/Graphics/SVG/1.1/DTD/svg11.dtd">
<!-- Creator: CorelDRAW -->
<svg xmlns="http://www.w3.org/2000/svg" xml:space="preserve" width="31.1396mm" height="15.1558mm" version="1.1" style="shape-rendering:geometricPrecision; text-rendering:geometricPrecision; image-rendering:optimizeQuality; fill-rule:evenodd; clip-rule:evenodd"
viewBox="0 0 35.82 17.43"
 xmlns:xlink="http://www.w3.org/1999/xlink"
 xmlns:xodm="http://www.corel.com/coreldraw/odm/2003">
 <defs>
  <style type="text/css">
   <![CDATA[
    .fil0 {fill:black}
   ]]>
  </style>
 </defs>
 <g id="Camada_x0020_1">
  <metadata id="CorelCorpID_0Corel-Layer"/>
  <path class="fil0" d="M30.63 6.92c0,-0.04 0.68,-0.58 0.79,-0.69 0.18,-0.18 0.47,-0.62 0.57,-0.87 0.15,-0.4 0.69,-1.67 0.91,-1.97 0.5,-0.69 0.73,-0.97 1.48,-1.41 0.31,-0.18 0.64,-0.26 0.94,-0.5 0.18,-0.15 0.5,-0.63 0.5,-0.94 0,-0.36 -0.3,-0.54 -0.62,-0.54 -0.36,0 -1.55,0.91 -1.73,1.15 -0.51,0.68 -0.7,0.95 -1.1,1.78 -0.36,0.74 -0.46,1.27 -0.95,1.93 -0.21,0.28 -0.39,0.55 -0.69,0.75 -0.11,0.08 -0.83,0.48 -0.92,0.48l-0.7 0c-0.94,0 -2.25,-0.66 -2.8,-1.07 -0.7,-0.52 -1.37,-1.23 -2.08,-1.75 -1.13,-0.83 -3.22,-2.62 -5.04,-2.62 -0.07,-0.11 -0.36,-0.62 -0.45,-0.62 -0.14,0 -0.37,0.33 -0.45,0.33 -0.16,0 -0.32,-0.24 -0.45,-0.33 -0.18,0.12 -0.25,0.33 -0.38,0.53 -0.12,0.19 -0.28,0.28 -0.46,0.41 -0.35,0.26 -0.12,0.27 -0.32,0.58 -0.14,0.22 -0.36,0.27 -0.36,0.5l0 0.08c0,0.14 0.95,0.91 0.99,0.91l0.74 -0.09c0.2,-0.02 0.54,0.22 0.54,0.42l0 0.16c0,0.14 -0.07,0.29 -0.21,0.29l-0.16 0c-0.25,0 -0.31,-0.08 -0.54,-0.08 -0.7,0 -1.69,0.29 -1.69,0.95 0,0.29 0.34,0.78 0.7,0.78 0.35,0 0.42,-0.33 0.49,-0.62l0.16 0c0.15,0 0.72,0.31 0.89,0.38 0.33,0.14 0.63,0.2 0.96,0.31 1.15,0.38 1.79,-0.45 1.89,-0.45l0.08 0c0.26,0 1.02,0.9 1.29,1.09 0.45,0.33 0.93,0.68 1.51,0.83 0.31,0.08 0.64,0.18 0.95,0.25 0.41,0.09 0.69,0.04 1.09,0.1 0.41,0.06 0.67,-0.01 1.04,0.16 0.3,0.14 0.46,0.24 0.73,0.42 0.45,0.3 0.72,0.94 0.91,1.48 0.18,0.53 0.57,1.04 0.84,1.5 0.24,0.41 0.73,1 1.07,1.32 0.19,0.18 0.45,0.37 0.65,0.54 0.42,0.35 0.33,0.15 0.33,0.74l0 0.12c0,0.78 0.3,1.85 0.99,1.85l0.25 0c0.2,0 0.12,-0.5 0.12,-0.7 -0,-0.38 0.12,-0.52 0.12,-0.7 0,-0.02 -0.61,-1.76 -0.63,-1.8 -0.21,-0.23 -0.38,-0.19 -0.63,-0.57 -0.25,-0.38 -0.19,-0.4 -0.27,-0.92 -0.11,-0.74 -0.05,-1.46 -0.22,-2.21 -0.08,-0.34 -0.17,-0.61 -0.29,-0.9 -0.09,-0.24 -0.39,-0.61 -0.39,-0.81zm-12.24 10.48c0.2,0 0.12,-0.75 0.12,-0.96 0,-0.35 0,-0.69 0,-1.04 0,-0.69 0,-1.39 0,-2.08 0,-0.71 0,-1.41 0,-2.12 0,-0.63 -0.16,-1.62 0.46,-1.62 0.51,0 0.35,1.21 0.35,1.73 0,0.69 0,1.39 0,2.08 0,0.69 0,1.39 0,2.08 0,0.35 0,0.69 0,1.04 0,0.21 -0.08,0.89 0.12,0.89l2.16 0c0.09,0 0.12,-0.03 0.12,-0.12l0 -7.71c0,-0.59 -0.24,-1.08 -0.81,-1.08l-7.21 0c-0.4,0 -0.81,0.45 -0.81,0.89l0 7.9c0,0.09 0.03,0.12 0.12,0.12l2.2 0c0.2,0 0.12,-0.71 0.12,-0.93 0,-0.35 0,-0.69 0,-1.04 0,-0.68 0,-1.36 0,-2.04 0,-0.69 0,-1.39 0,-2.08 0,-0.53 -0.18,-1.7 0.35,-1.7l0.15 0c0.16,0 0.24,0.21 0.31,0.31 0,1.27 0,2.54 0,3.82 0,0.63 0,1.26 0,1.89 0,0.32 0,0.64 0,0.96 0,0.2 -0.08,0.81 0.12,0.81l2.16 0zm6.55 -7.29c0,-0.24 0.08,-0.54 0.31,-0.54l0.15 0c0.17,0 0.35,0.18 0.35,0.31l0 4.05c0,0.09 -0.03,0.12 -0.12,0.12l-0.58 0c-0.09,0 -0.12,-0.03 -0.12,-0.12l0 -3.82zm-0.08 7.29c0.34,0 -0.11,-2.24 0.23,-2.24l0.54 0c0.34,0 -0.11,2.24 0.23,2.24l2.31 0 0 -8.13c0,-0.4 -0.42,-0.81 -0.81,-0.81l-3.55 0c-0.75,0 -1.31,0.18 -1.31,0.93l0 7.9c0,0.09 0.03,0.12 0.12,0.12l2.24 0zm-22.44 -7.63c0,-0.09 0.06,-0.15 0.15,-0.15l0.23 0c0.23,0 0.42,0.2 0.42,0.42l0 3.7c0,0.21 -0.22,0.39 -0.42,0.39l-0.15 0c-0.12,0 -0.23,-0.04 -0.23,-0.15l0 -4.2zm0.04 5.47c1.15,-0.27 3.16,0.52 3.16,-0.93l0 -4.93c0,-0.42 -0.39,-0.85 -0.81,-0.85l-4.82 0 0 8.79c0,0.09 0.03,0.12 0.12,0.12l2.2 0c0.2,0 0.12,-0.86 0.12,-1.08 0,-0.41 0.01,-0.76 0.04,-1.12zm3.97 1.35c0,0.44 0.44,0.85 0.93,0.85l3.86 0c0.43,0 0.85,-0.38 0.85,-0.81l0 -8.1 -2.39 0 0 7.21c0,0.3 -0.1,0.62 -0.39,0.62 -0.25,0 -0.46,-0.25 -0.46,-0.5l0 -7.32 -2.39 0 0 8.06z"/>
 </g>
</svg>
