<?xml version="1.0" encoding="UTF-8"?>
<!DOCTYPE svg PUBLIC "-//W3C//DTD SVG 1.1//EN" "http://www.w3.org/Graphics/SVG/1.1/DTD/svg11.dtd">
<!-- Creator: CorelDRAW -->
<svg xmlns="http://www.w3.org/2000/svg" xml:space="preserve" width="150mm" height="20.0004mm" version="1.1" style="shape-rendering:geometricPrecision; text-rendering:geometricPrecision; image-rendering:optimizeQuality; fill-rule:evenodd; clip-rule:evenodd"
viewBox="0 0 2690.67 358.76"
 xmlns:xlink="http://www.w3.org/1999/xlink"
 xmlns:xodm="http://www.corel.com/coreldraw/odm/2003">
 <defs>
  <style type="text/css">
   <![CDATA[
    .fil0 {fill:black}
    .fil1 {fill:red}
   ]]>
  </style>
 </defs>
 <g id="Camada_x0020_1">
  <metadata id="CorelCorpID_0Corel-Layer"/>
  <g id="_2937095681312">
   <g id="_2712917579840">
    <path class="fil0" d="M625.98 351.81l95.72 0.06c-0.42,-29.97 0.03,-60.13 -0.14,-90.12 -0.1,-17.77 -0.23,-12.3 11.88,-30.22 3.55,-5.26 12,-20.12 16.42,-23.69 3.64,4.82 42.37,106.14 51.4,128.74 2.17,5.42 3.58,13.53 8.2,15.3l88.42 0.08c-3.98,-17.16 -87.18,-205.16 -91.68,-224.13 4.12,-3.24 17.05,-23.18 21.29,-29.4 1.96,-2.88 2.79,-4.88 4.81,-7.78 1.94,-2.79 3.29,-3.99 5.29,-7 8.98,-13.47 46.69,-67.07 49.97,-75.26l-92.22 0.31c-16.09,21.52 -70.14,115.9 -74.43,120.24l0.69 -120.08 -78.3 -0.04 -0.43 219.74c0,26.64 5.7,47.99 -19.24,47.91 -1.83,10.79 -0.56,42.41 -0.82,57.83 -0.36,21.31 -0.09,15.81 3.19,17.52l-0 0.01zm-528.38 -350.74c-20.97,5.3 -34.18,9.48 -50.28,21.83 -49.18,37.74 -49.66,122.51 -45.93,193.59 2.78,53.12 19.97,89.81 45.47,110.66 13.81,11.3 29.9,18.87 49.44,22.4 39.71,7.15 46.56,-2.91 60.72,-2.83 -0.73,-9.63 -30.03,-69.59 -35.76,-80.5 -32.04,-0.41 -42.95,-25.81 -43.64,-65.11 -0.63,-35.35 -3.28,-78.38 13.12,-100.52 7.24,-9.79 19.7,-16.32 35.15,-15.38 49.36,3 42.22,78.66 40.94,125.94l-39.68 27.17c-0.21,0.2 -0.78,1.34 -0.93,0.99 -0.15,-0.36 -0.62,0.66 -0.92,1.01 10.44,27.4 41.38,83.58 47.47,103.73l8.35 14.72 83.68 0.02c-0.53,-3.77 -2.27,-6.79 -3.55,-9.53 -3.21,-6.88 -2.49,-2.98 -3.05,-9.44 -5.1,-4.57 -26.58,-50.76 -30.31,-60.36 6.13,-16.72 10.39,-19.93 13.29,-43.57 5.11,-41.57 3.9,-130.15 -8.38,-164.36 -21.59,-60.13 -70.76,-76.09 -135.21,-70.45l0.03 0.01zm1007.38 284.25l0 66.4 78.4 1.14 -0.01 -343.97c-91.04,-0.74 -78.39,-16.97 -78.39,90.47 0,61.98 0.09,123.99 0,185.97l-0.01 -0.01zm-499.37 66.57l3.52 0.95 0 -344.02 -97.47 0.02 -0.11 75.45c25.22,-0.64 19.22,19.72 19.22,71.84 0,22.75 -2.25,179.26 2.42,188.25 6.64,12.79 55.76,7.47 72.43,7.52l-0.01 -0.01zm610.47 -252.55l0.17 252 8.71 0.51 185.81 -0.11 -22.45 -83.06 -93.63 0.03c-2.24,-13.28 -0.74,-164.01 -0.74,-190.9 0,-56.01 5.81,-69.23 -21.92,-69.04 -25.02,0.17 -50.28,0.36 -75.29,0.01l0 74.94c10.74,-0.13 17.98,2.62 19.34,15.61l-0.01 0zm209.16 253.48l77.88 -1.14 22.67 -80.07c9.1,-45.04 45.45,-156.55 49.47,-181.11 2.29,-14.01 0.58,-63.3 0.53,-81.09 -10.69,-1.5 -24.61,-0.54 -35.67,-0.56 -14.3,-0.02 -25.13,-3.55 -29.89,10.06 -4.79,13.67 -27.13,124.76 -31.31,146.86 -3.91,20.64 -9.27,58.06 -14.58,75.99 -4.15,-16.32 -7.4,-40.61 -10.62,-58 -3.66,-19.77 -7.63,-39.89 -11.77,-59.62l-19.03 -87.87c-1.77,-8.28 -2.77,-22.94 -8.21,-27.42l-83.42 0 93.98 343.97 0 -0.01zm-501.97 0.04c31.09,5.95 70.2,7.88 100.63,-1.41 48.5,-14.82 52.56,-45.9 61.45,-58.31 8.12,-43.58 11.52,-80.16 -11.54,-110.75 -32.95,-43.72 -93,-44.38 -117.48,-60.82 -29.36,-19.72 11.66,-60.56 78.97,-16.4 6.27,4.11 12.35,10.05 19.04,12.79 7.12,-23.92 28,-51.38 35.67,-75.73 -29.3,-17.77 -35.6,-30.49 -81.33,-37.22 -60.78,-8.95 -134.9,12.79 -137.99,102.15 -3.55,102.44 70.57,102.24 122.78,124.59 38.39,16.43 28.43,52.32 -32.02,42.21 -57.93,-9.7 -58.63,-47.33 -77.15,-4.6 -4.36,10.06 15.4,48.5 23.54,67.28 5.98,13.78 2.18,13.42 15.42,16.24l0.01 0zm666.63 -1.01l213.56 0.02 0.05 -80.1 -137.98 -0.14 0.08 -58.25 81.45 -0.02 0.02 -79.29 -81.05 0.04 -0.5 -44.98 134.71 -0.08 0.57 -80.24 -210.87 0.02 -0.02 343.01 -0.01 0.01zm-1305.11 -34.61c3.46,1.08 3.64,2.66 6.43,6.16 24.18,30.26 72.49,37.35 106.03,32.62 13.71,-1.94 31.23,-10.57 39.6,-11.1 7.06,-10.66 56.85,-23.2 60.7,-130.06 2.38,-65.99 0.49,-139.41 0.21,-206.09 -12.54,0.23 -65.22,-2.86 -72.14,2.86 -9.79,8.08 -5.78,66.28 -5.78,85.75 0,30.26 -0.42,59.9 -0.42,90.04 0,28.1 -0.79,58.15 -13.6,73.54 -11.95,14.36 -40.96,17.08 -54.84,1.62 -16.04,-17.88 -16.67,-38.21 -16.64,-71.23 0.06,-60.71 0.52,-121.85 -0.04,-182.53l-78.01 0.55c0.54,57.26 0.06,114.9 0.06,172.2 0,28.14 -0.63,52.56 5.24,79.13 7.04,31.94 13.25,35.63 23.2,56.54l0.01 -0zm1682.14 35.35c13.4,-2.76 77.62,3.58 86.6,-3.2 -7.8,-8.24 -48.29,-113.1 -54.89,-127.78 6.27,-5.71 11,-7.59 17.29,-13.66 48.03,-46.4 35.92,-142.8 3.54,-172.65 -25.17,-23.22 -52.62,-26.47 -90.5,-26.47 -37.21,0 -74.43,0 -111.71,0l0.11 343.03c85.18,0 75.14,18.46 75.14,-86.14 0,-59.58 -0.56,-119.57 0.07,-179.1 30.81,0 74.99,-10.15 78.51,30.53 4.37,50.48 -32.93,43.84 -65.52,43.84l-0.1 75.36 17.29 0.11 44.19 116.12 -0.01 0.01z"/>
    <path class="fil1" d="M2342.75 286.17c-4.06,-8.15 -14.61,-13.19 -25.09,-32 -49.15,-88.24 3,-216.47 97.27,-207.27 19.87,1.95 33.79,9.8 39.9,10.52 -12.54,-9.62 -31.06,-47.47 -46.36,-51.54 -8.93,-2.37 -18.5,-2.9 -28.02,-2.35 -35.47,2.02 -63.37,26.4 -81.4,47.03 -23.16,26.5 -38.3,50.42 -58.6,75.52 -9.16,11.32 -20.16,24.54 -32.18,34.27 -17.02,13.77 -24.9,11.24 -45.06,17.95 0.38,32.94 0.04,66.2 0.04,99.18 0,33.46 -2.85,66.75 22.22,72.75 5.75,4.09 326.66,2.09 378.49,2.09 39.16,0 88.81,3.34 126.7,-0.52 -3.84,-6.9 -31.1,-43.57 -38.92,-44.56l-225.76 0.05c-28.18,-0.05 -49.87,-0.48 -74.68,-16.87l-8.57 -4.25 0 0.02zm202.93 -113.69c-2.87,-7.73 -4.82,-8.39 -10.57,-15.59l-30.58 -38.15c-10.8,-13.3 -26.43,-42.22 -52.16,-29.53 -12.23,6.03 -33.6,38.13 -43.14,49.94 -7.26,8.98 -12.83,17.06 -20,25.86 -3.88,4.76 -6.29,7.91 -10.31,12.6 -4.59,5.34 -7.3,7.47 -9.79,14.45l-5.22 3.92c-1.79,2.02 -2.99,3.95 -4.54,6.11 -7.7,10.7 -21.3,24.71 -24.72,34.26 8.22,21.45 27.7,35.94 51.63,41.84 22.62,5.58 218.83,3.45 246.37,2.56 -0.3,-0.78 -80.76,-106.13 -86.98,-108.28l-0 -0zm-139.52 12.5c0.49,-9.23 8.27,-14.36 12.24,-18.81 56.13,-62.94 38.41,-62.38 76.54,-17.86 5.75,6.72 25.66,29.25 26.33,37.4l-21.6 0.2c-16.52,0.2 -21.99,27.53 -34.12,26.34 -2.04,-46.84 6.75,-66.79 -20.76,-34.57 -5.77,6.75 -6.2,8.35 -17.16,8.34 -7.13,-0.02 -14.47,0.5 -21.48,-1.04l-0 -0.01z"/>
   </g>
  </g>
 </g>
</svg>
