<?xml version="1.0" encoding="UTF-8"?>
<!DOCTYPE svg PUBLIC "-//W3C//DTD SVG 1.1//EN" "http://www.w3.org/Graphics/SVG/1.1/DTD/svg11.dtd">
<!-- Creator: CorelDRAW -->
<svg xmlns="http://www.w3.org/2000/svg" xml:space="preserve" width="25.1533mm" height="17.6073mm" version="1.1" style="shape-rendering:geometricPrecision; text-rendering:geometricPrecision; image-rendering:optimizeQuality; fill-rule:evenodd; clip-rule:evenodd"
viewBox="0 0 323.67 226.57"
 xmlns:xlink="http://www.w3.org/1999/xlink"
 xmlns:xodm="http://www.corel.com/coreldraw/odm/2003">
 <defs>
  <style type="text/css">
   <![CDATA[
    .fil0 {fill:black}
   ]]>
  </style>
 </defs>
 <g id="Camada_x0020_1">
  <metadata id="CorelCorpID_0Corel-Layer"/>
  <path class="fil0" d="M107.26 225.75l14.16 0.01c-0.06,-3.54 0.01,-7.1 -0.02,-10.64 -0.02,-2.1 -0.03,-1.45 1.76,-3.57 0.53,-0.62 1.78,-2.38 2.43,-2.8 0.54,0.57 6.27,12.53 7.61,15.2 0.32,0.64 0.53,1.6 1.21,1.81l13.08 0.01c-0.59,-2.03 -12.9,-24.23 -13.57,-26.47 0.61,-0.38 2.52,-2.74 3.15,-3.47 0.29,-0.34 0.41,-0.58 0.71,-0.92 0.29,-0.33 0.49,-0.47 0.78,-0.83 1.33,-1.59 6.91,-7.92 7.39,-8.89l-13.65 0.04c-2.38,2.54 -10.38,13.69 -11.01,14.2l0.1 -14.18 -11.58 -0 -0.06 25.95c0,3.14 0.84,5.67 -2.85,5.66 -0.27,1.27 -0.08,5.01 -0.12,6.83 -0.05,2.52 -0.01,1.87 0.47,2.07zm-78.18 -41.42c-3.1,0.62 -5.06,1.12 -7.44,2.58 -7.28,4.46 -7.35,14.47 -6.8,22.86 0.41,6.27 2.96,10.6 6.73,13.07 2.04,1.33 4.42,2.23 7.32,2.64 5.88,0.84 6.89,-0.34 8.99,-0.33 -0.11,-1.14 -4.44,-8.22 -5.29,-9.51 -4.74,-0.05 -6.35,-3.05 -6.46,-7.69 -0.09,-4.17 -0.49,-9.25 1.94,-11.87 1.07,-1.16 2.91,-1.93 5.2,-1.82 7.3,0.35 6.25,9.29 6.06,14.87l-5.87 3.21c-0.03,0.02 -0.12,0.16 -0.14,0.12 -0.02,-0.04 -0.09,0.08 -0.14,0.12 1.54,3.24 6.12,9.87 7.02,12.25l1.23 1.74 12.38 0c-0.08,-0.44 -0.34,-0.8 -0.53,-1.12 -0.47,-0.81 -0.37,-0.35 -0.45,-1.12 -0.76,-0.54 -3.93,-5.99 -4.49,-7.13 0.91,-1.98 1.54,-2.35 1.97,-5.15 0.76,-4.91 0.58,-15.37 -1.24,-19.41 -3.2,-7.1 -10.47,-8.98 -20.01,-8.32zm205.63 -101.5c-1.76,-3.79 -2.95,-4.11 -6.48,-7.63l-18.76 -18.69c-6.62,-6.51 -16.22,-20.67 -32,-14.46 -7.5,2.95 -20.61,18.67 -26.47,24.46 -4.45,4.4 -7.87,8.36 -12.27,12.66 -2.38,2.33 -3.86,3.87 -6.33,6.17 -2.82,2.62 -4.48,3.66 -6.01,7.08l-3.2 1.92c-1.1,0.99 -1.83,1.93 -2.79,2.99 -4.72,5.24 -13.07,12.1 -15.17,16.78 5.05,10.5 17,17.6 31.68,20.49 13.88,2.73 134.27,1.69 151.17,1.25 -0.18,-0.38 -49.55,-51.97 -53.37,-53.02zm-85.61 6.12c0.3,-4.51 5.08,-7.03 7.51,-9.21 34.44,-30.82 23.57,-30.55 46.96,-8.74 3.53,3.29 15.75,14.32 16.16,18.31l-13.25 0.1c-10.14,0.1 -13.49,13.48 -20.94,12.9 -1.25,-22.93 4.14,-32.71 -12.74,-16.93 -3.54,3.31 -3.81,4.09 -10.53,4.08 -4.37,-0.01 -8.88,0.25 -13.18,-0.51zm-38.91 49.55c-2.5,-3.99 -8.97,-6.46 -15.39,-15.67 -30.16,-43.21 1.85,-106.01 59.68,-101.5 12.19,0.95 20.73,4.8 24.48,5.15 -7.7,-4.71 -19.06,-23.25 -28.44,-25.23 -5.49,-1.16 -11.36,-1.42 -17.19,-1.15 -21.76,0.98 -38.88,12.92 -49.95,23.03 -14.21,12.97 -23.5,24.69 -35.96,36.98 -5.62,5.54 -12.36,12.02 -19.74,16.78 -10.45,6.74 -15.28,5.5 -27.64,8.79 0.24,16.13 0.02,32.42 0.02,48.57 0,16.38 -1.74,32.69 13.64,35.63 3.53,2 200.43,1.02 232.24,1.02 24.03,0 54.5,1.64 77.74,-0.25 -2.36,-3.38 -19.08,-21.33 -23.88,-21.82l-138.52 0.03c-17.29,-0.02 -30.6,-0.23 -45.82,-8.26l-5.26 -2.08zm67.94 79.4l0 7.84 11.6 0.13 0 -40.62c-13.47,-0.09 -11.6,-2 -11.6,10.68 0,7.32 0.01,14.64 0,21.96zm-73.89 7.86l0.52 0.11 0 -40.63 -14.42 0 -0.02 8.91c3.73,-0.07 2.84,2.33 2.84,8.48 0,2.69 -0.33,21.17 0.36,22.23 0.98,1.51 8.25,0.88 10.72,0.89zm90.33 -29.82l0.02 29.76 1.29 0.06 27.5 -0.01 -3.32 -9.81 -13.86 0c-0.33,-1.57 -0.11,-19.37 -0.11,-22.54 0,-6.61 0.86,-8.18 -3.24,-8.15 -3.7,0.02 -7.44,0.04 -11.14,0l0 8.85c1.59,-0.02 2.66,0.31 2.86,1.84zm30.95 29.93l11.52 -0.13 3.35 -9.46c1.35,-5.32 6.73,-18.48 7.32,-21.39 0.34,-1.65 0.09,-7.47 0.08,-9.58 -1.58,-0.18 -3.64,-0.06 -5.28,-0.07 -2.12,-0 -3.72,-0.42 -4.42,1.19 -0.71,1.61 -4.01,14.73 -4.64,17.34 -0.58,2.44 -1.37,6.86 -2.16,8.97 -0.61,-1.93 -1.1,-4.8 -1.57,-6.85 -0.54,-2.34 -1.13,-4.71 -1.74,-7.04l-2.82 -10.38c-0.26,-0.98 -0.41,-2.71 -1.21,-3.24l-12.34 0 13.9 40.62zm-74.28 0.01c4.6,0.7 10.39,0.93 14.89,-0.17 7.18,-1.75 7.77,-5.42 9.09,-6.89 1.2,-5.15 1.7,-9.46 -1.71,-13.08 -4.88,-5.16 -13.76,-5.24 -17.38,-7.18 -4.35,-2.33 1.73,-7.15 11.68,-1.94 0.93,0.49 1.83,1.19 2.82,1.51 1.05,-2.82 4.14,-6.07 5.28,-8.94 -4.34,-2.1 -5.27,-3.6 -12.03,-4.4 -9,-1.06 -19.96,1.51 -20.42,12.06 -0.53,12.1 10.44,12.07 18.17,14.71 5.68,1.94 4.21,6.18 -4.74,4.98 -8.57,-1.14 -8.67,-5.59 -11.41,-0.54 -0.65,1.19 2.28,5.73 3.48,7.95 0.88,1.63 0.32,1.58 2.28,1.92zm98.65 -0.12l31.6 0 0.01 -9.46 -20.42 -0.02 0.01 -6.88 12.05 -0.01 0 -9.36 -12 0.01 -0.07 -5.31 19.93 -0.01 0.08 -9.48 -31.2 0 -0 40.51zm-193.12 -4.08c0.51,0.13 0.54,0.31 0.95,0.73 3.58,3.57 10.73,4.41 15.69,3.85 2.03,-0.23 4.62,-1.25 5.86,-1.31 1.04,-1.26 8.41,-2.74 8.98,-15.36 0.35,-7.79 0.07,-16.46 0.03,-24.34 -1.86,0.03 -9.65,-0.34 -10.68,0.34 -1.45,0.95 -0.85,7.83 -0.85,10.13 0,3.57 -0.06,7.07 -0.06,10.63 0,3.32 -0.12,6.87 -2.01,8.68 -1.77,1.7 -6.06,2.02 -8.11,0.19 -2.37,-2.11 -2.47,-4.51 -2.46,-8.41 0.01,-7.17 0.08,-14.39 -0.01,-21.56l-11.54 0.06c0.08,6.76 0.01,13.57 0.01,20.34 0,3.32 -0.09,6.21 0.78,9.34 1.04,3.77 1.96,4.21 3.43,6.68zm248.91 4.18c1.98,-0.33 11.48,0.42 12.81,-0.38 -1.15,-0.97 -7.14,-13.36 -8.12,-15.09 0.93,-0.67 1.63,-0.9 2.56,-1.61 7.11,-5.48 5.31,-16.86 0.52,-20.39 -3.73,-2.74 -7.79,-3.13 -13.39,-3.13 -5.51,0 -11.01,0 -16.53,0l0.02 40.51c12.6,0 11.12,2.18 11.12,-10.17 0,-7.04 -0.08,-14.12 0.01,-21.15 4.56,0 11.1,-1.2 11.62,3.61 0.65,5.96 -4.87,5.18 -9.7,5.18l-0.01 8.9 2.56 0.01 6.54 13.71z"/>
 </g>
</svg>
