<?xml version="1.0" encoding="UTF-8"?>
<!DOCTYPE svg PUBLIC "-//W3C//DTD SVG 1.1//EN" "http://www.w3.org/Graphics/SVG/1.1/DTD/svg11.dtd">
<!-- Creator: CorelDRAW -->
<svg xmlns="http://www.w3.org/2000/svg" xml:space="preserve" width="26.8764mm" height="15.9982mm" version="1.1" style="shape-rendering:geometricPrecision; text-rendering:geometricPrecision; image-rendering:optimizeQuality; fill-rule:evenodd; clip-rule:evenodd"
viewBox="0 0 248.41 147.87"
 xmlns:xlink="http://www.w3.org/1999/xlink"
 xmlns:xodm="http://www.corel.com/coreldraw/odm/2003">
 <defs>
  <style type="text/css">
   <![CDATA[
    .fil0 {fill:lime}
   ]]>
  </style>
 </defs>
 <g id="Camada_x0020_1">
  <metadata id="CorelCorpID_0Corel-Layer"/>
  <path class="fil0" d="M0.37 68.96c2.96,0.53 24.25,0.63 26.08,-0.17l0.57 -1.7c0.38,-2.04 0.13,-2.3 0.96,-5.34 4.35,-15.74 14.16,-25.97 28.98,-32.47 10.22,-4.48 19.98,-3.26 31.83,-3.26 5.61,0 31.78,0.2 35.02,-0.28 0.5,-2.09 0.45,-15.73 0.45,-19.74 0,-1.82 0.58,-5.3 -0.8,-5.82 -1.01,-0.38 -24.32,-0.03 -27.46,-0.01 -19.12,0.08 -32.79,-0.97 -49.18,5.82 -18.86,7.8 -33.51,21.84 -41.39,40.86 -1.59,3.84 -6.56,17.57 -5.06,22.12zm166.83 53.17c-10.46,0 -28.13,-0.34 -37.73,0.07 -0.78,7.53 -0.42,17.65 -0.1,25.43 16.58,0.18 37.55,0.51 52.97,-0.62 22.36,-1.63 44.9,-17.01 55.76,-36.19 5.12,-9.04 11.64,-25.88 10.05,-36.13 -9.08,-1.01 -14.37,-0.29 -22.92,-0.28 -3.66,0 -3.32,-0.13 -3.54,3.55 -0.88,14.58 -9.72,27.89 -20.72,35.58 -2.93,2.05 -5.59,3.3 -9.11,4.88 -8.67,3.89 -14.43,3.7 -24.67,3.7zm54.74 -53.43c1.78,1.19 22.42,0.53 25.99,0.23 0.48,-3.01 -2.11,-14.88 -3.28,-17.87 -7.06,-18.18 -14.3,-25.85 -28.52,-37.2 -6.86,-5.48 -21.59,-11.2 -30.89,-12.68 -8.7,-1.39 -41.6,-1.11 -53.27,-1.16 -3.65,-0.02 -2.85,-0.39 -2.85,8.09 0,18.84 -1.54,17.88 4.16,17.81 8.47,-0.1 37.09,-0.53 43.63,0.04 13.12,1.14 23.45,6.77 30.37,13.29l5.13 5.87c3.43,4.71 5.52,8.83 7.43,14.63 1.22,3.73 1.46,8.05 2.09,8.95zm-18.61 17.38c2.2,1.48 6.41,1.47 8.36,-0.4 1.24,-1.18 4.66,-3.98 4.66,-6.34 0,-5.84 -5.96,-15.68 -10.07,-15.73 0.44,3.66 8.07,6.67 5.18,12.09 -1.77,3.32 -8.49,6.3 -8.14,10.38zm-36.92 15.78c0.28,-5.19 -0.1,-3.68 3.77,-6.83 2.62,-2.13 3.29,-2.02 4.32,-6.31 0.89,-3.67 -2.78,-3.93 -6.02,-3.91 -2.96,0.02 -7.94,-0.3 -10.6,0.1 -1.58,2.5 -0.15,6.19 -1.03,9.05 -1.31,4.31 -4.04,3.69 -5.07,5.64 -1.64,3.1 3.62,3.4 6.01,3.65 4.44,0.45 5.32,0.61 8.62,-1.4zm-105.09 -52.89c-4.65,4.73 -3.4,8.73 -5.78,11.94 -1.4,1.88 -2.36,1.47 -3.29,3.06 -1.72,2.93 -1.11,6.48 -2.93,8.95 -1.69,2.3 -3.73,4.7 -7.58,4.9 -2.31,-0.75 -4.05,-5.87 -4.05,-5.87 -3.81,-2.04 -4.9,5.5 -4.46,8.65 0.69,4.91 4.14,3.62 2.83,11.76 -2.08,12.96 9.75,3.01 16.85,1.15 4.01,-1.05 9.42,-0.72 12.58,-1.86 3.79,-1.37 6.43,-3.47 9.74,-5.11 6.12,-3.04 6.47,1.88 10.68,-2.45 1.7,-1.75 3.9,-2.44 6.06,-4.96 2.52,-2.94 -1.2,-3.49 11.44,0.02 8.26,2.3 6.17,11.03 3.88,17.84 -1.26,3.74 -3.68,5.23 -4.33,8.13 1.72,1.45 14.13,2.02 15.09,1.46 1.73,-1.01 1.4,-5.12 4.93,-11.29 1.96,-3.44 3.58,-8.04 5.88,-10.63 3.1,-0.05 10.1,5.77 23.28,-0.04 4.2,-1.85 5.45,-3.02 10.82,-3.01 20.27,0.06 11.8,-1.43 18.1,12.3 0.8,1.74 1.59,4.11 1.2,6.41 -0.45,2.64 -2.21,2.93 -3.23,4.89 -1,4.52 7.2,4.59 12.12,2.74 7.88,-2.97 1.43,-3.93 3.96,-11.27 2.93,-8.51 -1.54,-2.85 2.44,-13.71 2.18,-5.96 4.27,-7.57 5.28,-12.09 2.27,-10.2 -2.78,-14.23 -11.67,-20.98 -3.36,-2.55 -6.14,-4.23 -10.44,-6.51 -4.72,-2.5 -7.08,-3.31 -12.87,-4.49 -12.09,-2.47 -21.21,4.31 -29.46,3.7 -9.53,-0.7 -19.41,-7.38 -27.01,-7.12 -11.07,0.38 -23.79,4.55 -32.32,10.39 -3.28,2.24 -3.09,4.15 -11.66,5.23 -2.48,0.31 -3.9,-1.68 -6.05,-2.1zm39.18 32.33c-0.51,2.71 2.86,8.58 6.25,9.55 0.37,-2.15 0.91,-5.7 -0.26,-7.61 -0.74,-1.2 -4.08,-2.9 -5.99,-1.94zm-99.97 -6.91c-1.74,3.08 1.27,16.3 2.05,19.13 1.79,6.51 6.6,16.25 10.69,21.92 11.2,15.5 26.58,26.35 46.36,30.38 11.33,2.31 42.46,2.23 59.25,1.8 0.95,-0.02 2.61,0.04 3.43,-0.03 2.01,-0.19 1.73,-0.1 1.73,-2.11 0,-4.67 0.24,-19.6 -0.18,-23.17 -3.42,-0.47 -39.48,-0.01 -49.06,-0.07 -14.79,-0.1 -24.16,-5.04 -33.91,-14.07 -2.02,-1.87 -3.59,-4.14 -5.37,-6.51 -1.54,-2.06 -3.17,-4.74 -4.46,-7.41 -4.69,-9.74 -3.26,-12.15 -4.53,-19.67 -8.64,-0.74 -17.35,-0.42 -26.01,-0.2z"/>
 </g>
</svg>
