<?xml version="1.0" encoding="UTF-8"?>
<!DOCTYPE svg PUBLIC "-//W3C//DTD SVG 1.1//EN" "http://www.w3.org/Graphics/SVG/1.1/DTD/svg11.dtd">
<!-- Creator: CorelDRAW -->
<svg xmlns="http://www.w3.org/2000/svg" xml:space="preserve" width="15.525mm" height="22.8605mm" version="1.1" style="shape-rendering:geometricPrecision; text-rendering:geometricPrecision; image-rendering:optimizeQuality; fill-rule:evenodd; clip-rule:evenodd"
viewBox="0 0 31.03 45.69"
 xmlns:xlink="http://www.w3.org/1999/xlink"
 xmlns:xodm="http://www.corel.com/coreldraw/odm/2003">
 <defs>
  <style type="text/css">
   <![CDATA[
    .fil0 {fill:black}
   ]]>
  </style>
 </defs>
 <g id="Camada_x0020_1">
  <metadata id="CorelCorpID_0Corel-Layer"/>
  <path id="Santa.cdr" class="fil0" d="M15.65 38.84c0.3,0.06 0.53,0.32 0.53,0.64 0,0.31 -0.23,0.58 -0.53,0.64l0 1.1c0.01,0.01 0.01,0.02 0.02,0.04 0.03,0.06 0.08,0.16 0.14,0.22 0.06,0.06 0.13,0.08 0.15,0.1 0.02,0.02 0,0.03 -0.05,0.09l-0.26 0.29 0 0.55 0.6 0c0.06,-0.09 0.13,-0.17 0.18,-0.21 0.13,-0.1 0.12,0.07 0.19,0.13 0.04,0.03 0.09,0.04 0.16,0.11 0.06,0.07 0.13,0.21 0.13,0.29 -0.01,0.08 -0.09,0.11 -0.17,0.18 -0.08,0.07 -0.17,0.17 -0.23,0.23 -0.15,0.15 -0.15,-0.04 -0.26,-0.2 -0.03,-0.04 -0.06,-0.07 -0.09,-0.09l-0.51 0 0 1.79c0.03,0.06 0.06,0.13 0.1,0.19 0.06,0.08 0.12,0.12 0.11,0.18 -0.01,0.06 -0.08,0.13 -0.15,0.23 -0.06,0.1 -0.11,0.21 -0.14,0.28 -0.03,0.07 -0.04,0.09 -0.06,0.06 -0.02,0.03 -0.03,0 -0.06,-0.06 -0.03,-0.07 -0.08,-0.19 -0.14,-0.28 -0.06,-0.1 -0.14,-0.17 -0.15,-0.23 -0.01,-0.06 0.06,-0.1 0.11,-0.18 0.04,-0.06 0.07,-0.13 0.1,-0.19l0 -1.79 -0.51 0c-0.02,0.03 -0.06,0.05 -0.09,0.09 -0.11,0.16 -0.11,0.35 -0.26,0.2 -0.06,-0.06 -0.15,-0.17 -0.23,-0.23 -0.08,-0.07 -0.17,-0.1 -0.17,-0.18 -0.01,-0.08 0.06,-0.22 0.13,-0.29 0.06,-0.07 0.12,-0.08 0.16,-0.11 0.07,-0.07 0.06,-0.24 0.19,-0.13 0.05,0.04 0.12,0.12 0.18,0.21l0.6 0 0 -0.55 -0.26 -0.29c-0.05,-0.06 -0.07,-0.07 -0.05,-0.09 0.02,-0.02 0.09,-0.04 0.15,-0.1 0.06,-0.06 0.11,-0.16 0.14,-0.22 0.01,-0.02 0.02,-0.03 0.02,-0.04l0 -1.1c-0.3,-0.06 -0.53,-0.32 -0.53,-0.64 0,-0.31 0.23,-0.58 0.53,-0.64l0 -0.61c-0.3,-0.06 -0.53,-0.32 -0.53,-0.64 0,-0.31 0.23,-0.58 0.53,-0.64l0 -0.61c-0.3,-0.06 -0.53,-0.32 -0.53,-0.64 0,-0.31 0.23,-0.58 0.53,-0.64l0 -0.61c-0.3,-0.06 -0.53,-0.32 -0.53,-0.64 0,-0.31 0.23,-0.58 0.53,-0.64l0 -0.61c-0.3,-0.06 -0.53,-0.32 -0.53,-0.64 0,-0.31 0.23,-0.58 0.53,-0.64l0 -0.61c-0.3,-0.06 -0.53,-0.32 -0.53,-0.64 0,-0.31 0.23,-0.58 0.53,-0.64l0 -0.61c-0.3,-0.06 -0.53,-0.32 -0.53,-0.64 0,-0.31 0.23,-0.58 0.53,-0.64l0 -0.61c-0.3,-0.06 -0.53,-0.32 -0.53,-0.64 0,-0.31 0.23,-0.58 0.53,-0.64l0 -0.61c-0.3,-0.06 -0.53,-0.32 -0.53,-0.64 0,-0.31 0.23,-0.58 0.53,-0.64l0 -0.61c-0.3,-0.06 -0.53,-0.32 -0.53,-0.64 0,-0.13 0.04,-0.24 0.1,-0.34 -0.09,-0.01 -0.19,-0.02 -0.29,0 -0.37,0.06 -0.79,0.36 -1.07,0.64 -0.28,0.27 -0.42,0.52 -0.54,0.87 -0.01,0.04 -0.03,0.08 -0.04,0.12 -0.17,6.41 -0.29,12.83 -0.42,19.25 -4.19,-3.3 -8.39,-6.6 -12.58,-9.9 4.31,-7.9 8.62,-15.8 12.94,-23.71l-0.06 0 0 -0.68c-0.51,-0.32 -0.99,-0.64 -1.39,-1.1 -0.44,-0.51 -0.76,-1.15 -0.94,-1.8 -0.2,-0.7 -0.23,-1.41 0.1,-2.08 0.32,-0.66 0.96,-1.2 1.63,-1.46 0.6,-0.23 1.16,-0.21 1.79,-0.17l1.12 0.15 0 -1.06 -0.55 0 0 -0.49 0.55 0 0 -0.76 0.66 0 0 0.76 0.55 0 0 0.49 -0.55 0 0 1.06 1.12 -0.15c0.63,-0.04 1.19,-0.06 1.79,0.17 0.68,0.26 1.32,0.81 1.63,1.46 0.33,0.67 0.29,1.38 0.1,2.08 -0.18,0.65 -0.5,1.29 -0.94,1.8 -0.4,0.46 -0.88,0.78 -1.39,1.1l0 0.68 -0.06 0c4.31,7.9 8.62,15.8 12.94,23.71 -4.19,3.3 -8.39,6.6 -12.58,9.9 -0.14,-6.42 -0.25,-12.83 -0.42,-19.25 -0.01,-0.04 -0.03,-0.08 -0.04,-0.12 -0.12,-0.35 -0.26,-0.59 -0.54,-0.87 -0.28,-0.27 -0.71,-0.58 -1.07,-0.64 -0.1,-0.02 -0.2,-0.02 -0.29,-0 0.06,0.1 0.1,0.22 0.1,0.34 0,0.31 -0.23,0.58 -0.53,0.64l0 0.61c0.3,0.06 0.53,0.32 0.53,0.64 0,0.31 -0.23,0.58 -0.53,0.64l0 0.61c0.3,0.06 0.53,0.32 0.53,0.64 0,0.31 -0.23,0.58 -0.53,0.64l0 0.61c0.3,0.06 0.53,0.32 0.53,0.64 0,0.31 -0.23,0.58 -0.53,0.64l0 0.61c0.3,0.06 0.53,0.32 0.53,0.64 0,0.31 -0.23,0.58 -0.53,0.64l0 0.61c0.3,0.06 0.53,0.32 0.53,0.64 0,0.31 -0.23,0.58 -0.53,0.64l0 0.61c0.3,0.06 0.53,0.32 0.53,0.64 0,0.31 -0.23,0.58 -0.53,0.64l0 0.61c0.3,0.06 0.53,0.32 0.53,0.64 0,0.31 -0.23,0.58 -0.53,0.64l0 0.61c0.3,0.06 0.53,0.32 0.53,0.64 0,0.31 -0.23,0.58 -0.53,0.64l0 0.61zm-0.13 -28.46l-1.78 2.05c0.06,0.16 0.11,0.31 0.27,0.61 0.16,0.3 0.41,0.74 0.71,1.05 0.24,0.24 0.51,0.4 0.79,0.54 0.28,-0.14 0.55,-0.3 0.79,-0.54 0.31,-0.31 0.56,-0.75 0.71,-1.05 0.16,-0.3 0.21,-0.45 0.27,-0.61l-1.78 -2.05zm0 4.77c-0.16,-0.04 -0.32,-0.09 -0.46,-0.15 -0.46,-0.17 -0.83,-0.39 -1.12,-0.69 -0.23,-0.23 -0.42,-0.52 -0.59,-0.81 -0.02,0.43 -0.03,0.86 -0.05,1.29 0.06,0.06 0.13,0.13 0.22,0.2 0.27,0.22 0.68,0.49 1.14,0.67 0.27,0.1 0.57,0.18 0.87,0.23 0.3,-0.06 0.59,-0.13 0.87,-0.23 0.46,-0.18 0.87,-0.45 1.14,-0.67 0.09,-0.07 0.16,-0.14 0.22,-0.2 -0.02,-0.43 -0.03,-0.86 -0.05,-1.29 -0.18,0.3 -0.37,0.58 -0.59,0.81 -0.3,0.31 -0.67,0.53 -1.12,0.69 -0.15,0.05 -0.3,0.1 -0.46,0.15zm0 1.57c-0.18,0.02 -0.36,0.04 -0.54,0.09 -0.41,0.09 -0.83,0.27 -1.14,0.48 -0.31,0.21 -0.51,0.47 -0.62,0.88 -0.03,0.12 -0.05,0.26 -0.07,0.4 -0.01,0.38 -0.02,0.77 -0.04,1.15l0 0c0.16,-0.03 0.31,-0.07 0.49,-0.17 0.18,-0.11 0.37,-0.29 0.53,-0.61 0.16,-0.32 0.28,-0.79 0.43,-1.05 0.15,-0.27 0.32,-0.33 0.49,-0.35 0.15,-0.02 0.3,-0 0.45,0.02 0.15,-0.02 0.3,-0.03 0.45,-0.02 0.18,0.02 0.35,0.09 0.49,0.35 0.15,0.27 0.27,0.73 0.43,1.05 0.16,0.32 0.36,0.5 0.53,0.61 0.18,0.11 0.33,0.14 0.49,0.17l0 -0c-0.01,-0.38 -0.02,-0.77 -0.04,-1.15 -0.01,-0.15 -0.04,-0.28 -0.07,-0.4 -0.1,-0.41 -0.31,-0.67 -0.62,-0.88 -0.31,-0.21 -0.73,-0.38 -1.14,-0.48 -0.18,-0.04 -0.36,-0.07 -0.54,-0.09zm2.03 -6.79c0.03,0.69 0.06,1.39 0.09,2.08 -0.03,-0.03 -0.07,-0.07 -0.1,-0.11 -0.25,-0.28 -0.55,-0.71 -0.79,-1.08 -0.24,-0.37 -0.42,-0.69 -0.5,-0.9 -0.08,-0.21 -0.07,-0.31 0.08,-0.38 0.15,-0.07 0.42,-0.11 0.65,-0.09 0.22,0.02 0.38,0.11 0.53,0.36 0.02,0.03 0.04,0.07 0.06,0.11zm0.22 5.58c0.02,0.55 0.04,1.1 0.06,1.65 -0.13,-0.14 -0.3,-0.26 -0.52,-0.38 -0.29,-0.16 -0.66,-0.32 -1.04,-0.49 0.42,-0.22 0.83,-0.44 1.15,-0.6 0.13,-0.07 0.25,-0.13 0.36,-0.18zm0.16 4.85c0.02,0.73 0.04,1.46 0.06,2.19 -0.07,0.04 -0.13,0.04 -0.3,-0.06 -0.2,-0.11 -0.54,-0.35 -0.72,-0.53 -0.18,-0.18 -0.21,-0.31 -0.18,-0.45 0.03,-0.13 0.11,-0.27 0.24,-0.48 0.13,-0.2 0.31,-0.47 0.53,-0.59 0.12,-0.06 0.24,-0.08 0.37,-0.07zm-1.54 1.34c-0.25,-0.44 -0.51,-0.88 -0.64,-1.48 -0.13,-0.6 -0.15,-1.36 -0.09,-1.79 0.06,-0.42 0.2,-0.51 0.34,-0.6 0.25,0.41 0.49,0.82 0.69,1.19 0.2,0.38 0.37,0.72 0.42,0.94 0.05,0.22 -0,0.32 -0.13,0.52 -0.12,0.2 -0.31,0.51 -0.42,0.74 -0.11,0.22 -0.14,0.35 -0.18,0.48zm6 10.81c-0.06,-0.29 -0.11,-0.57 -0.29,-0.78 -0.32,-0.39 -1.07,-0.59 -1.58,-0.25 -0.26,0.17 -0.51,0.48 -0.63,0.8 -0.12,0.32 -0.12,0.66 0.05,1.02 0.4,0.82 1.45,1.48 2.4,1.11 0.48,-0.18 0.91,-0.62 1.13,-1.09 0.22,-0.47 0.22,-0.96 0,-1.62 -0.22,-0.67 -0.65,-1.51 -1.49,-3.15 -0.77,-1.51 -1.89,-3.69 -3.03,-5.92l0.38 9.24c0.22,-0.47 0.61,-0.86 1.12,-1.07 0.4,-0.16 0.84,-0.2 1.2,-0.04 0.36,0.16 0.64,0.52 0.75,0.85 0.11,0.33 0.05,0.62 -0,0.92zm-3.55 -12.52c0.09,-0.1 0.22,-0.29 0.42,-0.67 0.24,-0.46 0.54,-1.15 0.72,-1.72 0.26,-0.83 0.29,-1.62 0.29,-2.43l-1.78 -3.37 0.34 8.2zm2.18 -3.43c-0.37,0.83 -0.82,1.88 -1.02,2.7 -0.24,0.98 -0.23,1.82 -0.14,2.68 0.46,-0.88 0.86,-1.53 1.88,-1.8 0.45,-0.12 0.85,-0.1 1.19,0.03l-1.91 -3.62zm3.08 5.82c-0.03,0.06 -0.08,0.11 -0.13,0.15 -0.31,0.27 -0.99,0.29 -1.32,0.06 -0.25,-0.19 -0.19,-0.52 -0.14,-0.8 0.07,0.17 0.15,0.34 0.3,0.44 0.15,0.09 0.38,0.11 0.56,-0 0.13,-0.08 0.3,-0.31 0.35,-0.57l-0.39 -0.74c-0.13,-0.06 -0.29,-0.1 -0.49,-0.12 -0.32,-0.04 -0.71,-0.02 -1.1,0.17 -0.38,0.19 -0.76,0.55 -0.96,0.91 -0.2,0.37 -0.21,0.74 -0.21,1.12 0,0.38 0.02,0.75 0.23,1.18 0.52,1.05 1.81,1.91 2.99,2.17 0.86,0.19 1.61,0.07 2.33,-0.16l-2.01 -3.81zm3.65 8.38c0.02,-0.05 0.03,-0.1 0.05,-0.16 0.16,-0.71 -0.13,-1.63 -0.66,-2.22 -0.31,-0.35 -0.73,-0.62 -1.1,-0.79 -0.37,-0.16 -0.7,-0.21 -1.07,-0.14 -0.37,0.07 -0.79,0.27 -1.05,0.5 -0.26,0.23 -0.36,0.5 -0.37,0.8 -0.01,0.29 0.06,0.61 0.22,0.79 0.28,0.3 0.97,0.23 1.09,-0.06 0.07,-0.15 0.01,-0.38 -0.05,-0.61 0.15,0.13 0.29,0.26 0.34,0.45 0.05,0.19 0,0.43 -0.11,0.59 -0.21,0.31 -0.79,0.3 -1.19,0.31 0.2,0.43 0.41,0.87 0.51,1.52 0.07,0.41 0.09,0.9 0.11,1.42l3.26 -2.4zm-5.89 4.33c-0.95,-0.03 -1.94,-0.34 -2.44,-1.17l0.12 2.88 2.32 -1.71zm-5.91 -27.15c0.05,-0.81 0.1,-1.62 0.09,-2.43 -0,-0.81 -0.06,-1.62 -0.12,-2.43 0.25,0.16 0.51,0.33 0.73,0.71 0.22,0.38 0.41,0.99 0.49,1.56 0.08,0.57 0.06,1.1 -0,1.52 -0.06,0.42 -0.16,0.73 -0.31,0.9 -0.15,0.17 -0.36,0.2 -0.51,0.21 -0.16,0 -0.26,-0.02 -0.37,-0.05zm1.59 0.02c0.32,-0.61 0.64,-1.23 0.69,-1.87 0.06,-0.64 -0.15,-1.31 -0.39,-1.81 -0.25,-0.5 -0.53,-0.83 -0.82,-1.15 0.46,-0.03 0.91,-0.07 1.36,0.11 0.45,0.17 0.89,0.55 1.09,0.97 0.2,0.42 0.17,0.89 0.03,1.38 -0.14,0.49 -0.38,1.02 -0.73,1.42 -0.35,0.4 -0.8,0.68 -1.25,0.96zm6.46 28.62c0.01,-0.14 -0.21,-0.16 -0.22,-0.01 -0,0.07 -0.01,0.24 -0.06,0.27 -0.14,0.1 -0.46,-0.09 -0.35,-0.35 0.27,-0.64 1.41,-0.33 1.13,0.5 -0.24,0.73 -0.84,0.88 -1.53,0.82 -0.63,-0.05 -1.6,-0.19 -2.26,-0.25 -0.77,-0.07 -1.87,-0.09 -2.01,0.96 -0.1,0.73 0.7,1.42 1.34,1.05 0.7,-0.4 0.4,-1.4 -0.23,-1.22 -0.22,0.06 -0.24,0.29 -0.27,0.51 -0.02,0.14 0.2,0.17 0.22,0.02 0.02,-0.15 0.03,-0.3 0.11,-0.32 0.37,-0.11 0.52,0.55 0.06,0.82 -0.48,0.27 -1.08,-0.27 -1.01,-0.83 0.12,-0.88 1.11,-0.83 1.77,-0.76 0.63,0.06 1.65,0.2 2.26,0.25 0.79,0.07 1.49,-0.14 1.76,-0.97 0.36,-1.09 -1.16,-1.55 -1.55,-0.65 -0.2,0.46 0.35,0.84 0.68,0.62 0.14,-0.1 0.15,-0.28 0.16,-0.44zm1.56 -1.62c-0.12,0 -0.16,0.18 -0.03,0.22 0.16,0.05 0.32,0.1 0.46,0 0.31,-0.23 0.14,-0.87 -0.34,-0.85 -0.95,0.04 -1.03,1.62 0.09,1.68 0.44,0.02 0.76,-0.12 0.99,-0.36 0.23,-0.24 0.37,-0.57 0.47,-0.94 0.15,-0.6 0.35,-1.59 0.5,-2.2 0.08,-0.34 0.2,-0.75 0.4,-1.04 0.19,-0.27 0.46,-0.44 0.86,-0.34 0.53,0.13 0.83,0.9 0.43,1.24 -0.39,0.34 -0.93,-0.04 -0.72,-0.35 0.06,-0.08 0.29,0.02 0.35,0.02 0.13,0 0.15,-0.19 0.02,-0.22 -0.21,-0.06 -0.42,-0.11 -0.55,0.07 -0.17,0.24 -0.09,0.5 0.11,0.67 0.52,0.43 1.39,-0.06 1.15,-0.9 -0.1,-0.35 -0.38,-0.67 -0.75,-0.76 -1.01,-0.25 -1.34,0.81 -1.52,1.54 -0.16,0.64 -0.35,1.6 -0.5,2.2 -0.09,0.34 -0.21,0.64 -0.41,0.84 -0.19,0.2 -0.46,0.31 -0.82,0.3 -0.83,-0.04 -0.76,-1.21 -0.09,-1.24 0.27,-0.01 0.33,0.36 0.2,0.45 -0.06,0.04 -0.23,-0.04 -0.28,-0.04l-0.02 0zm-12.09 -25.05c-0.03,0.69 -0.06,1.39 -0.09,2.08 0.03,-0.03 0.07,-0.07 0.1,-0.11 0.25,-0.28 0.55,-0.71 0.79,-1.08 0.24,-0.37 0.42,-0.69 0.5,-0.9 0.08,-0.21 0.07,-0.31 -0.08,-0.38 -0.15,-0.07 -0.42,-0.11 -0.65,-0.09 -0.22,0.02 -0.38,0.11 -0.53,0.36 -0.02,0.03 -0.04,0.07 -0.06,0.11zm-0.22 5.58c-0.02,0.55 -0.04,1.1 -0.06,1.65 0.13,-0.14 0.3,-0.26 0.52,-0.38 0.29,-0.16 0.66,-0.32 1.04,-0.49 -0.42,-0.22 -0.83,-0.44 -1.15,-0.6 -0.14,-0.07 -0.25,-0.13 -0.36,-0.18zm-0.16 4.85c-0.02,0.73 -0.04,1.46 -0.06,2.19 0.07,0.04 0.13,0.04 0.3,-0.06 0.2,-0.11 0.54,-0.35 0.72,-0.53 0.18,-0.18 0.21,-0.31 0.18,-0.45 -0.03,-0.13 -0.11,-0.27 -0.24,-0.48 -0.13,-0.2 -0.31,-0.47 -0.53,-0.59 -0.12,-0.06 -0.24,-0.08 -0.37,-0.07zm1.54 1.34c0.25,-0.44 0.51,-0.88 0.64,-1.48 0.13,-0.6 0.15,-1.36 0.09,-1.79 -0.06,-0.42 -0.2,-0.51 -0.34,-0.6 -0.25,0.41 -0.49,0.82 -0.69,1.19 -0.2,0.38 -0.37,0.72 -0.42,0.94 -0.05,0.22 0,0.32 0.13,0.52 0.12,0.2 0.31,0.51 0.42,0.74 0.11,0.22 0.14,0.35 0.18,0.48zm-6 10.81c0.06,-0.29 0.11,-0.57 0.29,-0.78 0.32,-0.39 1.07,-0.59 1.58,-0.25 0.26,0.17 0.51,0.48 0.63,0.8 0.12,0.32 0.12,0.66 -0.05,1.02 -0.4,0.82 -1.45,1.48 -2.4,1.11 -0.48,-0.18 -0.91,-0.62 -1.13,-1.09 -0.22,-0.47 -0.22,-0.96 0,-1.62 0.22,-0.67 0.65,-1.51 1.49,-3.15 0.77,-1.51 1.89,-3.69 3.03,-5.92l-0.38 9.24c-0.22,-0.47 -0.61,-0.86 -1.12,-1.07 -0.4,-0.16 -0.84,-0.2 -1.2,-0.04 -0.36,0.16 -0.64,0.52 -0.75,0.85 -0.11,0.33 -0.05,0.62 0,0.92zm3.55 -12.52c-0.09,-0.1 -0.22,-0.29 -0.42,-0.67 -0.24,-0.46 -0.54,-1.15 -0.72,-1.72 -0.26,-0.83 -0.29,-1.62 -0.29,-2.43l1.78 -3.37 -0.34 8.2zm-2.18 -3.43c0.37,0.83 0.82,1.88 1.02,2.7 0.24,0.98 0.23,1.82 0.14,2.68 -0.46,-0.88 -0.86,-1.53 -1.88,-1.8 -0.45,-0.12 -0.85,-0.1 -1.19,0.03l1.91 -3.62zm-3.08 5.82c0.03,0.06 0.08,0.11 0.13,0.15 0.31,0.27 0.99,0.29 1.32,0.06 0.26,-0.19 0.19,-0.52 0.14,-0.8 -0.07,0.17 -0.15,0.34 -0.3,0.44 -0.15,0.09 -0.38,0.11 -0.56,-0 -0.13,-0.08 -0.3,-0.31 -0.35,-0.57l0.39 -0.74c0.13,-0.06 0.29,-0.1 0.49,-0.12 0.32,-0.04 0.71,-0.02 1.1,0.17 0.38,0.19 0.76,0.55 0.96,0.91 0.2,0.37 0.21,0.74 0.21,1.12 0,0.38 -0.02,0.75 -0.23,1.18 -0.52,1.05 -1.81,1.91 -2.99,2.17 -0.86,0.19 -1.61,0.07 -2.33,-0.16l2.01 -3.81zm-3.65 8.38c-0.02,-0.05 -0.03,-0.1 -0.05,-0.16 -0.16,-0.71 0.13,-1.63 0.66,-2.22 0.31,-0.35 0.73,-0.62 1.1,-0.79 0.37,-0.16 0.7,-0.21 1.07,-0.14 0.37,0.07 0.79,0.27 1.05,0.5 0.26,0.23 0.36,0.5 0.37,0.8 0.01,0.29 -0.06,0.61 -0.22,0.79 -0.28,0.3 -0.97,0.23 -1.09,-0.06 -0.07,-0.15 -0.01,-0.38 0.05,-0.61 -0.15,0.13 -0.29,0.26 -0.34,0.45 -0.05,0.19 0,0.43 0.11,0.59 0.21,0.31 0.79,0.3 1.19,0.31 -0.2,0.43 -0.41,0.87 -0.51,1.52 -0.07,0.41 -0.09,0.9 -0.11,1.42l-3.26 -2.4zm5.89 4.33c0.95,-0.03 1.94,-0.34 2.44,-1.17l-0.12 2.88 -2.32 -1.71zm5.91 -27.15c-0.05,-0.81 -0.1,-1.62 -0.09,-2.43 0,-0.81 0.06,-1.62 0.12,-2.43 -0.25,0.16 -0.51,0.33 -0.73,0.71 -0.22,0.38 -0.41,0.99 -0.49,1.56 -0.08,0.57 -0.06,1.1 0,1.52 0.06,0.42 0.16,0.73 0.31,0.9 0.15,0.17 0.36,0.2 0.51,0.21 0.16,0 0.26,-0.02 0.37,-0.05zm-1.59 0.02c-0.32,-0.61 -0.64,-1.23 -0.69,-1.87 -0.06,-0.64 0.15,-1.31 0.39,-1.81 0.25,-0.5 0.53,-0.83 0.82,-1.15 -0.46,-0.03 -0.92,-0.07 -1.36,0.11 -0.45,0.17 -0.89,0.55 -1.09,0.97 -0.2,0.42 -0.17,0.89 -0.03,1.38 0.14,0.49 0.38,1.02 0.73,1.42 0.35,0.4 0.8,0.68 1.25,0.96zm-6.46 28.62c-0.01,-0.14 0.21,-0.16 0.22,-0.01 0,0.07 0.01,0.24 0.06,0.27 0.14,0.1 0.46,-0.09 0.35,-0.35 -0.27,-0.64 -1.41,-0.33 -1.13,0.5 0.24,0.73 0.84,0.88 1.53,0.82 0.63,-0.05 1.6,-0.19 2.26,-0.25 0.77,-0.07 1.87,-0.09 2.01,0.96 0.1,0.73 -0.7,1.42 -1.34,1.05 -0.7,-0.4 -0.4,-1.4 0.23,-1.22 0.22,0.06 0.24,0.29 0.27,0.51 0.02,0.14 -0.2,0.17 -0.22,0.02 -0.02,-0.15 -0.03,-0.3 -0.11,-0.32 -0.37,-0.11 -0.52,0.55 -0.06,0.82 0.48,0.27 1.08,-0.27 1.01,-0.83 -0.12,-0.88 -1.11,-0.83 -1.77,-0.76 -0.63,0.06 -1.65,0.2 -2.26,0.25 -0.79,0.07 -1.49,-0.14 -1.76,-0.97 -0.36,-1.09 1.16,-1.55 1.55,-0.65 0.2,0.46 -0.35,0.84 -0.68,0.62 -0.14,-0.1 -0.15,-0.28 -0.16,-0.44zm-1.56 -1.62c0.12,0 0.16,0.18 0.03,0.22 -0.16,0.05 -0.32,0.1 -0.46,0 -0.31,-0.23 -0.14,-0.87 0.34,-0.85 0.95,0.04 1.03,1.62 -0.09,1.68 -0.44,0.02 -0.76,-0.12 -0.99,-0.36 -0.23,-0.24 -0.37,-0.57 -0.47,-0.94 -0.15,-0.6 -0.35,-1.59 -0.5,-2.2 -0.08,-0.34 -0.2,-0.75 -0.4,-1.04 -0.19,-0.27 -0.46,-0.44 -0.86,-0.34 -0.53,0.13 -0.83,0.9 -0.43,1.24 0.39,0.34 0.93,-0.04 0.72,-0.35 -0.06,-0.08 -0.29,0.02 -0.35,0.02 -0.13,0 -0.15,-0.19 -0.02,-0.22 0.21,-0.06 0.42,-0.11 0.55,0.07 0.17,0.24 0.09,0.5 -0.11,0.67 -0.52,0.43 -1.39,-0.06 -1.15,-0.9 0.1,-0.35 0.38,-0.67 0.75,-0.76 1.01,-0.25 1.34,0.81 1.52,1.54 0.16,0.64 0.35,1.6 0.5,2.2 0.09,0.34 0.21,0.64 0.41,0.84 0.19,0.2 0.46,0.31 0.82,0.3 0.83,-0.04 0.76,-1.21 0.09,-1.24 -0.27,-0.01 -0.33,0.36 -0.2,0.45 0.06,0.04 0.23,-0.04 0.28,-0.04l0.02 0z"/>
 </g>
</svg>
