<?xml version="1.0" encoding="UTF-8"?>
<!DOCTYPE svg PUBLIC "-//W3C//DTD SVG 1.1//EN" "http://www.w3.org/Graphics/SVG/1.1/DTD/svg11.dtd">
<!-- Creator: CorelDRAW -->
<svg xmlns="http://www.w3.org/2000/svg" xml:space="preserve" width="149.999mm" height="20mm" version="1.1" style="shape-rendering:geometricPrecision; text-rendering:geometricPrecision; image-rendering:optimizeQuality; fill-rule:evenodd; clip-rule:evenodd"
viewBox="0 0 2690.62 358.75"
 xmlns:xlink="http://www.w3.org/1999/xlink"
 xmlns:xodm="http://www.corel.com/coreldraw/odm/2003">
 <defs>
  <style type="text/css">
   <![CDATA[
    .fil0 {fill:black}
   ]]>
  </style>
 </defs>
 <g id="Camada_x0020_1">
  <metadata id="CorelCorpID_0Corel-Layer"/>
  <g id="_2937066670064">
   <path class="fil0" d="M260.46 10.41l-226.17 0 -34.29 40.99 0 122.77 34.29 40.99 167.81 0 0 56.91 -194.24 0 -7.84 9.39 0 31.61 34.29 41 199.73 0 34.29 -41 0 -138.9 -34.29 -40.99 -167.81 0 0 -40.77 194.24 0 7.84 -9.38 0 -63.23 -7.84 -9.38 0 -0.01zm2056.94 -10.41l-350.74 179.5 157.96 80.73 192.77 -153.33 195.95 155.86 177.28 -86.84 -373.22 -175.92 -0.01 -0.01zm-135.65 289.43l135.65 69.33 137.86 -67.54 -137.86 -111.71 -135.65 109.93zm-380.58 -270.55l0 125.04 -147.33 0 0 -125.04 -7.84 -9.38 -52.88 0 -7.84 9.38 0 166.04 34.28 41 181.61 0 0 46.16 -208.05 0 -7.84 9.38 0 31.62 34.28 40.99 215.9 0 34.29 -40.99 0 -294.2 -7.84 -9.38 -52.88 0 -7.84 9.38 -0.01 -0.01zm-313.89 325.81l0 -100.83 -147.32 0 0 100.84 -7.84 9.38 -26.44 0 -34.28 -40.99 0 -262.59 34.28 -40.99 215.89 0 34.29 40.99 0 294.19 -7.84 9.39 -52.88 0 -7.85 -9.39 -0 0zm0 -182.84l0 -70.36 -147.32 0 0 70.36 147.32 0zm-568.06 -142.97l0 294.19 34.28 40.99 254.06 0 34.28 -40.99 0 -294.19 -7.84 -9.38 -52.87 0 -7.85 9.38 0 253.19 -60.34 0 0 -253.19 -7.84 -9.38 -52.88 0 -7.85 9.38 0 253.19 -56.59 0 0 -253.19 -7.84 -9.38 -52.88 0 -7.84 9.38 0.01 0zm-101.93 325.81l0 -100.83 -147.32 0 0 100.84 -7.84 9.38 -26.43 0 -34.28 -40.99 0 -262.59 34.28 -40.99c71.96,0 143.93,0 215.89,0l34.29 40.99 0 294.19 -7.85 9.39 -52.87 0 -7.84 -9.39 -0.02 0zm0 -182.84l0 -70.36 -147.32 0 0 70.36 147.32 0zm-252.55 192.22l-226.17 0 -34.28 -40.99 0 -261.68 34.28 -40.99 226.17 0 7.84 9.38 0 63.23 -7.84 9.38 -194.24 0 0 40.77 147.11 0 7.84 9.38 0 63.22 -7.84 9.39 -147.11 0 0 56.91 194.24 0 7.84 9.38 0 63.23 -7.84 9.38z"/>
  </g>
 </g>
</svg>
