<?xml version="1.0" encoding="UTF-8"?>
<!DOCTYPE svg PUBLIC "-//W3C//DTD SVG 1.1//EN" "http://www.w3.org/Graphics/SVG/1.1/DTD/svg11.dtd">
<!-- Creator: CorelDRAW -->
<svg xmlns="http://www.w3.org/2000/svg" xml:space="preserve" width="19.722mm" height="15.1107mm" version="1.1" style="shape-rendering:geometricPrecision; text-rendering:geometricPrecision; image-rendering:optimizeQuality; fill-rule:evenodd; clip-rule:evenodd"
viewBox="0 0 52.06 39.89"
 xmlns:xlink="http://www.w3.org/1999/xlink"
 xmlns:xodm="http://www.corel.com/coreldraw/odm/2003">
 <defs>
  <style type="text/css">
   <![CDATA[
    .fil0 {fill:black}
   ]]>
  </style>
 </defs>
 <g id="Camada_x0020_1">
  <metadata id="CorelCorpID_0Corel-Layer"/>
  <path class="fil0" d="M46.35 26.21l4.11 -2.51 0 -8.89c0,-0.51 -0.18,-0.5 -0.46,-0.91l-3.65 -2.73 0 15.04zm-30.37 0c0.82,1.23 1.37,3.17 1.37,5.24l0 2.28 -0.27 3.87c0.45,0.28 0.44,0.46 0.95,0.46l0.46 0c0.79,0 3.51,-1.19 4.44,-1.5 1.3,-0.43 3.56,-0.83 3.56,-2.38 0,-0.35 -0.77,-0.68 -1.14,-0.68 -0.34,0 -4.98,2.23 -6.17,2.51l0 -1.82c0,-2.44 -0.99,-7.94 -2.28,-8.89 -0.62,-2.32 -7.99,-4.96 -7.99,-8.43l0 -0.91c0,-0.91 0.47,-1.13 0.7,-2.14l4.78 0.54 1.14 0c1.16,0 2.71,-0.31 3.74,-0.6 1.16,-0.32 2.48,-0.91 3.56,-1.46 0.88,-0.76 2.74,-1.79 2.74,-3.19 0,-0.69 -2.76,-2.3 -3.65,-2.51 -0.02,-1.03 -0.68,-2.28 -1.6,-2.28l-0.46 0c-0.84,0 -0.53,0.68 -1.37,0.68l-2.05 0 0 -2.74c0,-1.06 -0.41,-2.05 -1.37,-2.05l-0.91 0c-1.38,0 -3.23,3.19 -3.88,3.19l-0.46 0c-2,0 -1.59,-1.14 -3.2,-1.14 -1.04,0 -1.19,0.49 -1.83,0.91 -2.26,0 -4.79,-0.2 -4.79,2.05 0,1.22 4.79,6.06 4.79,6.84 0,0.02 -2.05,2.95 -2.05,5.24l0 0.91c0,2.04 3.97,7.75 6.16,7.75 1.31,0.69 4.57,1.64 4.57,3.42 0,2.18 -7.36,6.11 -9.13,7.29l0 0.91c0.44,0.21 5.12,0.39 6.26,0.59 1.92,0.33 4.37,1.69 5.39,1.69 0.2,0 0.46,-0.25 0.46,-0.46 0,-1.94 -6.89,-3 -8.8,-3.13l2.64 -1.88c2.21,-1.92 4.79,-1.98 4.79,-5.93l-0.46 -1.14c-1.17,-0.78 -1.43,-1.41 -3.2,-1.82l0.01 -0.89 0.44 -0.25c0.27,-0.38 0.03,-0.46 0.68,-0.46l0.23 0c0.87,0 1.45,0.41 1.83,0.91l1.37 1.37zm11.03 5.63c0.78,1.68 3.49,6.31 4.73,7.14l0.91 -1.37c-4.76,-4.75 -6.99,-12.67 -6.51,-19.23 0.45,-6.07 4.33,-14.39 6.28,-17.46 0,-0.38 -0.66,-0.74 -0.91,-0.91 -6.45,9.01 -9.4,21.35 -4.5,31.84zm9.06 1.44l0.91 -1.37c-1.55,-2.92 -2.74,-6.94 -2.74,-11.4l0 -1.37c0,-1.95 0.4,-5.21 0.91,-6.61 0.21,-0.58 1.83,-5.5 1.83,-5.7 0,-0.44 -0.41,-0.91 -0.68,-0.91 -1.73,0 -3.65,10.26 -3.65,13.22l0 1.82c0,3.35 1.84,11.15 3.42,12.31zm-7.08 -14.13l0 1.37c0,6.41 3.58,12.83 4.79,15.5 0.19,-0.22 0.91,-0.83 0.91,-1.14 0,-1.02 -4.11,-8.17 -4.11,-13.9 -0.38,-4.23 0.93,-9.1 2.51,-12.99 0.25,-0.61 1.83,-3.72 1.83,-3.87 0,-0.39 -0.71,-1.02 -1.14,-1.14 -0.31,1.17 -2.53,5.21 -3.27,7.22 -0.73,1.98 -1.53,6.35 -1.53,8.96zm-6.39 -8.66l-3.42 1.6c-0.72,0.45 -1.85,0.68 -2.97,0.68l-1.83 0c-1.57,0 -3.07,-0.59 -4.11,-1.14l1.24 -2.22 0.58 -0.06c0.86,0 1.52,-0.56 2.05,-0.91l0.23 -0.23 1.52 -2.18 2.59 -0.1c0.02,0.92 0.55,1.82 1.37,1.82 0.79,0 0.88,-0.17 1.6,-0.23 0.53,0.36 2.28,1.12 2.28,1.82 -0.08,0.57 -0.38,0.95 -1.14,1.14zm-14.38 -5.01l0.46 -0.46c0.14,-0.51 0.05,-0.68 0.68,-0.68l0.91 0 -0.28 2.04 0.05 0.69c0,1 0.46,0.83 0.46,1.82 0,0.1 -1.36,1.84 -1.6,2.28 -3.1,-0.72 -2.16,-0.87 -4.11,-2.28 -0.57,-0.41 -2.97,-2.48 -2.97,-3.19l0 -0.91c0.8,-0.19 0.77,-0.46 1.6,-0.46l0.69 0c0.78,0 0.97,1.37 2.05,1.37l0.91 0c0.62,0 0.63,-0.11 1.14,-0.23zm42.93 17.78l0.91 0 0 -8.66 -0.91 0 0 8.66zm-14.16 -4.56l0 1.82c0,3.81 0.9,6.14 1.68,9.16l0.88 -1.84 -0.96 -7.32 0 -1.82c0,-2.24 0.88,-6.48 1.66,-8.03l-1.43 -1.31c-0.66,2.85 -1.83,5.77 -1.83,9.34zm8.9 7.98l0 -15.95 0 -4.1 -0.46 -0.23c-2.3,0 -1.6,0.7 -1.6,3.19 0,1.6 0,3.19 0,4.79 -0.49,0.73 -0.91,1.27 -0.91,2.51l0 3.19c0,1.16 0.57,1.05 0.83,1.9l0.14 8.37c0.61,0.21 1.83,0.22 1.99,-0.47l0 -3.19z"/>
 </g>
</svg>
