<?xml version="1.0" encoding="UTF-8"?>
<!DOCTYPE svg PUBLIC "-//W3C//DTD SVG 1.1//EN" "http://www.w3.org/Graphics/SVG/1.1/DTD/svg11.dtd">
<!-- Creator: CorelDRAW -->
<svg xmlns="http://www.w3.org/2000/svg" xml:space="preserve" width="72.0879mm" height="11.3467mm" version="1.1" style="shape-rendering:geometricPrecision; text-rendering:geometricPrecision; image-rendering:optimizeQuality; fill-rule:evenodd; clip-rule:evenodd"
viewBox="0 0 172.97 27.23"
 xmlns:xlink="http://www.w3.org/1999/xlink"
 xmlns:xodm="http://www.corel.com/coreldraw/odm/2003">
 <defs>
  <style type="text/css">
   <![CDATA[
    .fil1 {fill:yellow}
    .fil0 {fill:black;fill-rule:nonzero}
   ]]>
  </style>
 </defs>
 <g id="Camada_x0020_1">
  <metadata id="CorelCorpID_0Corel-Layer"/>
  <g id="_2076612463760">
   <path class="fil0" d="M0.01 15.62c-0.26,4.5 6.52,3.67 6.52,3.67 -0.06,1 -4.61,5.06 -6.11,5.04 -0.81,-0.01 0.29,1.45 2.14,1.47 1.85,0.02 7.11,-3.89 7.25,-6.36 0.14,-2.44 -4.65,-2.45 -5.46,-2.46 -1.85,-0.02 0.65,-5.41 3.06,-5.38 0.5,0.01 -1.04,3.91 -0.47,3.91 0.53,0.01 3.68,-2.59 3.8,-4.68 0.12,-2.11 -3.05,-1.9 -5.34,-1.93 -2.25,-0.03 -5.25,4.3 -5.39,6.72zm22.59 4.56c0.23,-4.08 0.77,-4.72 0.82,-5.61 0.08,-1.36 -2.82,-1.65 -3.57,-1.66 -0.75,-0.01 -0.92,0.71 -0.95,1.21 -0.02,0.31 -0.13,1.19 -0.25,2.22 -0.91,2.21 -2.52,5.28 -3.22,6.55 -0.15,-0.67 -0.25,-1.67 -0.16,-3.31 0.22,-3.94 1.6,-7.26 1.66,-8.26 0.06,-1 -1.9,-1.86 -3.55,-1.88 -1.38,-0.02 -0.55,0.83 -0.59,1.49 -0.06,0.97 -1.11,5.77 -1.28,8.8 -0.28,4.92 4.38,5.59 4.42,4.84 0.02,-0.28 -0.1,-0.47 -0.21,-0.78l2.68 -5.28c-0.06,0.5 -0.08,0.94 -0.11,1.36 -0.18,3.14 2.03,4.39 4.04,4.41 1.22,0.02 0.08,-0.89 0.27,-4.11zm20.25 -5.45c-0.25,0.61 -4.19,9.34 -4.85,9.34 -1.03,-0.01 -0.54,-5.34 -0.53,-7.23 0.01,-0.14 0.02,-0.28 0.03,-0.44 0.03,-0.58 -0.7,-1.37 -2.61,-1.39 -1.88,-0.02 -1.93,0.98 -1.97,1.53 -0.08,1.44 -2.38,7.23 -3.32,7.21 -0.94,-0.01 -0.97,-1.68 -0.91,-2.71 0.29,-5.11 3.29,-10.02 6.36,-9.98 1.16,0.01 1.25,2.27 1.21,2.91 -0.03,0.61 1.11,0.29 1.13,-0.1 0.23,-4.06 -2.05,-4.08 -5.27,-4.12 -4.63,-0.06 -7.22,5.86 -7.43,9.5 -0.22,3.86 1.7,5.36 4.17,5.39 2.47,0.03 3.9,-4.18 4.15,-4.17 0.22,0 0.63,5.43 3.57,5.46 0.22,0 0.41,-0.02 0.51,-0.08 2.71,-0.8 6.31,-10.32 6.51,-10.95 0.2,-0.69 -0.52,-0.73 -0.74,-0.15zm7.66 -5.44c-0.26,0.8 0.27,0.7 -1.21,4.82 -0.57,1.69 -2.64,5.08 -3.66,7.07 -0.73,-2.04 -1.5,-4.97 -1.28,-8.83 0.08,-1.42 -0.98,-2.57 -3.14,-2.6 -1.22,-0.01 -0.87,1.05 -0.9,1.57 -0.49,8.53 3.46,13.41 5.93,13.44 0.22,0 0.35,-0.05 0.41,-0.13 0.52,0.23 0.96,0.23 1.1,-0.13 0,0 3.01,-5.02 4.65,-9.67 1.64,-4.62 -1.61,-6.36 -1.91,-5.56zm16.07 7.37c-0.21,0.47 -1.93,5.84 -5.9,5.79 -1.72,-0.02 -3.47,-2.85 -3.06,-5.6 0.65,0.17 1.51,0.38 2.26,0.39 2.03,0.03 3.68,-1.48 3.85,-4.4 0.09,-1.56 -0.53,-2.84 -1.44,-3.24 -0.95,-0.43 -3.94,-0.63 -5.28,0.35 -1.31,0.98 -3.56,4.29 -3.77,7.9 -0.16,2.78 2.24,6.28 6.59,6.34 4.91,0.06 7.11,-6.72 7.36,-7.27 0.25,-0.58 -0.36,-0.78 -0.61,-0.26zm-5.6 -4.99c1.6,0.02 0.62,6.15 -3.27,4.6 0.45,-2.41 1.64,-4.62 3.27,-4.6zm28.2 -0.04c0.04,-0.67 -0.9,-1.21 -1.89,-1.47 -0.09,-0.08 -0.37,-0.14 -0.87,-0.15 -0.22,-0.03 -0.41,-0.03 -0.59,-0.04 0,0 0,0 0,0 -0.12,-0 -0.22,0.02 -0.35,0.05 -0.1,0.03 -0.19,0.05 -0.26,0.11 -2.32,1.11 -5.42,8.36 -6.81,11.87 -0.06,-0.56 -0.09,-1.2 -0.05,-1.92 0.05,-0.92 0.35,-3.92 0.38,-4.5 0.1,-1.81 -4.51,-1.58 -4.54,-1.08 -0.03,0.5 0.33,0.31 0.3,0.81 -0.02,0.42 -1,9.86 3.57,9.91 0.16,0 0.28,-0.02 0.38,-0.05 0,0 0,0 0,0 0.03,0 0.06,0 0.09,0 0.16,-0.05 0.23,-0.14 0.27,-0.27 1.31,-1.57 4.15,-9.59 5.7,-12.66 -0.56,2.13 -1.43,5.82 -1.6,8.9 -0.27,4.69 4.42,5.34 4.47,4.53 0.05,-0.81 -0.56,-0.56 -0.32,-4.76 0.12,-2.11 2.05,-7.95 2.13,-9.29zm18.78 3.9c-0.25,0.61 -4.19,9.34 -4.85,9.34 -1.03,-0.01 -0.54,-5.34 -0.53,-7.23 0.01,-0.14 0.02,-0.28 0.03,-0.44 0.03,-0.58 -0.7,-1.37 -2.61,-1.39 -1.88,-0.02 -1.93,0.98 -1.97,1.53 -0.08,1.44 -2.38,7.23 -3.32,7.21 -0.94,-0.01 -0.97,-1.68 -0.91,-2.71 0.29,-5.11 3.29,-10.02 6.36,-9.98 1.16,0.01 1.25,2.27 1.21,2.91 -0.03,0.61 1.11,0.29 1.13,-0.1 0.23,-4.06 -2.05,-4.08 -5.27,-4.12 -4.63,-0.06 -7.22,5.86 -7.43,9.5 -0.22,3.86 1.7,5.36 4.17,5.39 2.47,0.03 3.9,-4.18 4.15,-4.17 0.22,0 0.63,5.43 3.57,5.46 0.22,0 0.41,-0.02 0.51,-0.08 2.71,-0.8 6.31,-10.32 6.51,-10.95 0.2,-0.69 -0.52,-0.73 -0.74,-0.15zm21.82 -3.4c0.04,-0.67 -0.9,-1.21 -1.89,-1.47 -0.09,-0.08 -0.37,-0.14 -0.87,-0.15 -0.22,-0.03 -0.41,-0.03 -0.59,-0.04 0,0 0,0 0,0 -0.13,-0 -0.22,0.02 -0.35,0.05 -0.1,0.03 -0.19,0.05 -0.26,0.11 -2.32,1.11 -5.42,8.36 -6.81,11.87 -0.06,-0.56 -0.09,-1.2 -0.05,-1.92 0.05,-0.92 0.35,-3.92 0.38,-4.5 0.1,-1.81 -4.51,-1.58 -4.54,-1.08 -0.03,0.5 0.33,0.31 0.3,0.81 -0.02,0.42 -1,9.86 3.57,9.91 0.16,0 0.28,-0.02 0.38,-0.05 0,0 0,0 0,0 0.03,0 0.06,0 0.09,0 0.16,-0.05 0.23,-0.14 0.27,-0.27 1.31,-1.57 4.15,-9.59 5.7,-12.66 -0.56,2.13 -1.43,5.82 -1.6,8.9 -0.27,4.69 4.42,5.34 4.47,4.53 0.05,-0.81 -0.56,-0.56 -0.32,-4.76 0.12,-2.11 2.05,-7.95 2.13,-9.29zm18.78 3.9c-0.25,0.61 -4.19,9.34 -4.85,9.34 -1.03,-0.01 -0.54,-5.34 -0.53,-7.23 0.01,-0.14 0.02,-0.28 0.03,-0.44 0.03,-0.58 -0.7,-1.37 -2.61,-1.39 -1.88,-0.02 -1.93,0.98 -1.97,1.53 -0.08,1.44 -2.38,7.23 -3.32,7.21 -0.94,-0.01 -0.97,-1.68 -0.91,-2.71 0.29,-5.11 3.29,-10.02 6.36,-9.98 1.16,0.01 1.25,2.27 1.21,2.91 -0.03,0.61 1.11,0.29 1.13,-0.1 0.23,-4.06 -2.05,-4.08 -5.27,-4.12 -4.63,-0.06 -7.22,5.86 -7.43,9.5 -0.22,3.86 1.7,5.36 4.17,5.39 2.47,0.03 3.9,-4.18 4.15,-4.17 0.22,0 0.63,5.43 3.57,5.46 0.22,0 0.41,-0.02 0.51,-0.08 2.71,-0.8 6.31,-10.32 6.51,-10.95 0.2,-0.69 -0.52,-0.73 -0.74,-0.15zm7.66 -5.44c-0.27,0.8 0.27,0.7 -1.21,4.82 -0.57,1.69 -2.64,5.08 -3.66,7.07 -0.73,-2.04 -1.5,-4.97 -1.28,-8.83 0.08,-1.42 -0.98,-2.57 -3.14,-2.6 -1.22,-0.01 -0.87,1.05 -0.9,1.57 -0.49,8.53 3.46,13.41 5.93,13.44 0.22,0 0.35,-0.05 0.41,-0.13 0.52,0.23 0.96,0.23 1.1,-0.13 0,0 3.01,-5.02 4.65,-9.67 1.64,-4.62 -1.61,-6.36 -1.91,-5.56zm16.07 7.37c-0.21,0.47 -1.93,5.84 -5.9,5.79 -1.72,-0.02 -3.47,-2.85 -3.06,-5.6 0.65,0.17 1.51,0.38 2.26,0.39 2.03,0.03 3.68,-1.48 3.85,-4.4 0.09,-1.56 -0.53,-2.84 -1.44,-3.24 -0.95,-0.43 -3.94,-0.63 -5.28,0.35 -1.31,0.98 -3.56,4.29 -3.77,7.9 -0.16,2.78 2.24,6.28 6.59,6.34 4.91,0.06 7.11,-6.72 7.36,-7.28 0.25,-0.58 -0.36,-0.78 -0.61,-0.26zm-5.6 -4.99c1.59,0.02 0.62,6.15 -3.27,4.6 0.45,-2.41 1.64,-4.62 3.27,-4.6z"/>
   <path class="fil1" d="M42.23 3.5c-0.09,0.06 -0.2,0.18 -0.27,0.22 -0.1,0.06 -0.18,0.03 -0.2,-0.05 -0.04,-0.14 0.28,-0.28 0.41,-0.36 0.15,-0.11 0.28,-0.22 0.42,-0.33 0.09,-0.07 0.5,-0.37 0.58,-0.4 0.1,-0.04 0.23,0.04 0.18,0.1 -0.12,0.14 -0.46,0.38 -0.64,0.49 -0.17,0.11 -0.33,0.21 -0.48,0.32zm-18.03 2.66c0.12,0.43 0.25,0.85 0.39,1.27 0.08,0.24 0.22,0.45 0.3,0.69 0.08,0.23 0.14,0.47 0.22,0.7 0.03,0.08 0.15,0.44 -0.04,0.49 -0.22,0.06 -0.31,-0.7 -0.33,-0.82 -0.06,-0.36 -0.21,-0.72 -0.33,-1.06 -0.01,-0.04 -0.03,-0.08 -0.04,-0.12 -0.15,-0.46 -0.31,-0.93 -0.43,-1.41 -0.04,-0.16 -0.01,-0.23 0.21,-0.32 0.07,-0.03 0.22,-0.07 0.2,0.02 -0.02,0.09 -0.24,0.13 -0.22,0.29 0.01,0.08 0.04,0.17 0.06,0.25l0 0.01zm1.77 -0.41c0.22,-0.36 0.43,-0.71 0.65,-1.07 0.09,-0.15 0.16,-0.29 0.25,-0.44l0.01 -0.01c0.05,-0.08 0.09,-0.16 0.13,-0.24 0.03,-0.07 0.09,-0.18 0.2,-0.18l0.02 0 0.02 0c0.01,0 0.02,0 0.03,0.01 0.05,0.01 0.08,0.03 0.08,0.07 -0.04,0.2 -0.26,0.37 -0.39,0.56 -0.13,0.2 -0.25,0.4 -0.37,0.6 -0.14,0.24 -0.3,0.48 -0.43,0.71 -0.05,0.1 -0.09,0.18 -0.13,0.28 -0.04,0.09 -0.11,0.2 -0.24,0.16 -0.05,-0.02 -0.1,-0.07 -0.07,-0.12 0.02,-0.04 0.07,-0.08 0.1,-0.13 0.05,-0.07 0.09,-0.14 0.14,-0.21zm11.28 -1.59c-0.11,0.03 -0.18,-0.1 -0.14,-0.16 0.04,-0.06 0.15,-0.12 0.22,-0.17 0.21,-0.17 0.42,-0.45 0.6,-0.65 0.18,-0.21 0.39,-0.39 0.59,-0.59 0.14,-0.14 0.29,-0.27 0.42,-0.41l0.01 -0.01c0.07,-0.07 0.25,-0.28 0.36,-0.3 0.05,-0.01 0.18,-0.03 0.16,0.03 -0.09,0.21 -0.97,1.06 -1.22,1.3 -0.14,0.14 -0.28,0.27 -0.43,0.4 -0.13,0.12 -0.23,0.25 -0.35,0.38 -0.04,0.04 -0.07,0.07 -0.11,0.1 -0.04,0.03 -0.07,0.05 -0.11,0.07zm-5.44 -0.78c-0.3,0.44 -0.61,0.88 -0.89,1.32 -0.1,0.16 -0.17,0.36 -0.33,0.49 -0.04,0.03 -0.09,0.01 -0.12,-0.01 -0.13,-0.09 -0.03,-0.24 0.07,-0.36 0.11,-0.14 0.22,-0.24 0.32,-0.39 0.09,-0.13 0.17,-0.25 0.26,-0.37 0.06,-0.09 0.12,-0.17 0.18,-0.26l0.01 -0.01c0.18,-0.26 0.39,-0.51 0.52,-0.78 0.14,-0.24 0.33,-0.46 0.5,-0.7 0.19,-0.28 0.4,-0.56 0.58,-0.84 0.1,-0.15 0.16,-0.28 0.25,-0.43 0.05,-0.09 0.18,-0.27 0.33,-0.24 0.11,0.02 0.04,0.13 -0,0.19 -0.08,0.11 -0.12,0.22 -0.21,0.34 -0.12,0.16 -0.26,0.32 -0.38,0.48 -0.12,0.16 -0.22,0.32 -0.33,0.47 -0.12,0.19 -0.21,0.37 -0.36,0.55 -0.07,0.09 -0.15,0.17 -0.21,0.26 -0.06,0.09 -0.12,0.18 -0.18,0.27l-0.01 0.01zm-1.96 1.02c-0.09,-0.07 -0.15,-0.1 -0.24,-0.18 -0.05,-0.05 -0.07,-0.05 -0.12,-0.09l-0.74 -0.57c-0.12,-0.09 -0.22,-0.2 -0.38,-0.29 -0.11,0.04 -0.27,0.14 -0.38,0.2 -0.29,0.14 -0.46,0.15 -0.74,0.15 -0.04,0 -0.23,-0 -0.25,0.02 -0.12,0.13 -0.26,0.41 -0.35,0.57 -0.17,0.3 -0.36,0.59 -0.54,0.89 -0.03,0.06 -0.07,0.11 -0.1,0.17l-0.02 0.02c-0.1,0.18 -0.24,0.38 -0.35,0.55l-0.67 -0.29c-0.12,-0.05 -0.25,-0.11 -0.37,-0.17 -0.11,-0.05 -0.19,-0.1 -0.32,-0.13 -0.13,0.09 -0.23,0.18 -0.38,0.26 -0.1,0.06 -0.21,0.11 -0.3,0.17 -0.01,0.01 -0.01,0.02 -0.01,0.03 0.01,0.09 0.05,0.21 0.08,0.3 0.35,1.23 0.75,2.44 1.15,3.66 0.01,0.04 0.02,0.07 0.03,0.11 0.04,0.15 0,0.21 0.2,0.19 0.08,-0.2 0.47,-0.41 0.7,-0.55 1.65,-1 5.97,-1.88 7.82,-2.17 2.15,-0.33 4.87,-0.59 6.79,-0.39 0.42,0.04 1.47,0.19 1.56,0.5 0.22,-0.05 0.17,-0.12 0.33,-0.53 0.23,-0.57 1.63,-4.13 1.65,-4.29 -0.12,-0.03 -0.29,-0.07 -0.4,-0.11 -0.05,-0.02 -0.09,-0.05 -0.14,-0.07 -0.03,-0.01 -0.07,-0.03 -0.1,-0.04 -0.25,0.14 -0.49,0.34 -0.71,0.51 -0.2,0.15 -0.42,0.31 -0.62,0.45 -0.02,0.01 -0.07,0.05 -0.09,0.05 -0.05,0.01 -0.07,-0.04 -0.08,-0.06 -0.14,-0.22 -0.28,-0.44 -0.42,-0.67 -0.03,-0.05 -0.06,-0.1 -0.09,-0.15l-0.57 -0.92c-0.35,0.05 -0.51,0.22 -1,0.14 -0.17,-0.03 -0.19,-0.08 -0.36,-0.08 -0.14,0.12 -0.28,0.26 -0.4,0.39 -0.05,0.05 -0.09,0.08 -0.14,0.13l-0.27 0.26c-0.41,0.39 -0.79,0.83 -1.22,1.21 -0.03,0.03 -0.14,0.12 -0.18,0.12l-0.01 -0c-0.01,-0.01 -0.13,-0.18 -0.15,-0.21 -0.1,-0.14 -0.2,-0.28 -0.29,-0.42 -0.07,-0.08 -0.1,-0.12 -0.15,-0.21l-0.3 -0.42c-0.06,-0.08 -0.1,-0.11 -0.16,-0.2l-1.28 -1.78c-0.02,-0.02 -0.02,-0.09 -0.16,-0.07 -0.16,0.02 -0.52,0.27 -1.09,0.22 -0.35,-0.04 -0.23,-0.1 -0.53,0.34 -0.05,0.08 -0.1,0.15 -0.16,0.23 -0.17,0.25 -0.35,0.51 -0.52,0.76 -0.35,0.51 -0.69,1.01 -1.04,1.52 -0.3,0.43 -0.59,0.87 -0.89,1.3 -0.17,-0.02 -0.4,-0.24 -0.52,-0.34z"/>
   <path class="fil1" d="M25.02 10.27c-0.02,0.29 0.16,0.4 0.46,0.53 0.15,0.06 0.57,0.19 0.78,0.17 -0.04,-0.16 -0.38,-0.21 -0.36,-0.45 0.02,-0.38 0.89,-0.81 1.31,-0.99 1.75,-0.77 4.52,-1.34 6.46,-1.64 1.71,-0.27 5.39,-0.65 6.8,-0.14 0.44,0.16 0.68,0.34 0.33,0.73 -0.13,0.14 -0.19,0.11 -0.25,0.27 0.31,-0.07 1.31,-0.64 1.33,-1.01 0.05,-0.83 -2.31,-0.82 -3.07,-0.82 -0.83,0 -1.26,0.05 -2.06,0.09 -1.33,0.06 -3.97,0.49 -5.32,0.75 -0.91,0.18 -2.3,0.53 -3.17,0.8 -0.59,0.18 -3.2,1.02 -3.24,1.71z"/>
   <path class="fil1" d="M26.9 3.08c-0.03,0.07 -0.06,0.05 -0.09,0.01 -0.15,-0.21 -0.07,-0.44 0.13,-0.67 0.16,-0.19 0.33,-0.24 0.57,-0.32 0.16,-0.05 0.3,-0.07 0.44,-0.03 0.13,0.04 -0.01,0.09 -0.09,0.11 -0.2,0.05 -0.32,0.02 -0.53,0.12l-0.01 0.01c-0.02,0.01 -0.04,0.02 -0.06,0.04 -0.2,0.14 -0.32,0.29 -0.33,0.48 -0.01,0.09 0,0.16 -0.03,0.26l-0 0.01zm0.71 0.36c0.48,-0.07 0.92,-0.46 0.94,-0.95 -0.01,-0.35 -0.28,-0.56 -0.74,-0.55 -0.15,0 -0.33,0.04 -0.49,0.1 -0.11,0.04 -0.21,0.1 -0.31,0.17l-0.01 0.01 -0.01 0.01c-0.21,0.16 -0.34,0.37 -0.39,0.58 -0.07,0.27 0.11,0.5 0.38,0.61 0.14,0.05 0.29,0.07 0.45,0.06 0.05,-0 0.11,-0.01 0.16,-0.02z"/>
   <path class="fil1" d="M39.51 1.09c0.02,0.07 0.04,0.12 0.05,0.19 -0.31,0.01 -0.32,-0.39 -0.21,-0.6 0.15,-0.29 0.5,-0.54 0.88,-0.56 0.14,-0.01 0.6,-0.01 0.16,0.1 -0.48,0.12 -0.9,0.29 -0.9,0.73 0,0.05 0.01,0.09 0.02,0.14zm1.35 0.05c0.73,-0.75 -0.19,-1.53 -1.19,-0.94 -0.94,0.56 -0.44,1.64 0.7,1.23 0.2,-0.07 0.34,-0.16 0.49,-0.3z"/>
   <path class="fil1" d="M43.91 1.08c0.23,-0.11 0.43,-0.19 0.67,-0.14 0.04,0.01 0.25,0.07 0.18,0.12 -0.05,0.04 -0.29,0.03 -0.36,0.03 -0.29,0.02 -0.49,0.15 -0.69,0.34 -0.2,0.21 -0.11,0.22 -0.15,0.41 -0.03,0.15 -0.13,0.14 -0.17,0.01 -0.09,-0.26 0.16,-0.59 0.49,-0.76l0.02 -0.01 0.02 -0.01zm0.22 1.29c0.45,-0.04 1.02,-0.48 1.04,-0.78l0.01 -0.21c-0.02,-0.36 -0.38,-0.59 -0.86,-0.52 -0.26,0.04 -0.43,0.09 -0.65,0.24l-0.02 0.01c-0.32,0.25 -0.46,0.57 -0.37,0.86 0.09,0.28 0.45,0.42 0.83,0.4l0.02 -0z"/>
   <path class="fil1" d="M23.75 4.31c-0.27,0.05 -0.48,0.02 -0.74,0.21 -0.45,0.32 -0.22,0.78 -0.29,0.81 -0.08,0.03 -0.18,-0.12 -0.19,-0.16 -0.2,-0.49 0.58,-1.1 1.21,-0.98 0.09,0.02 0.17,0.09 0.02,0.12zm0.54 0.46l0.01 -0.15c-0,-0.34 -0.38,-0.58 -0.82,-0.53 -0.45,0.06 -0.81,0.26 -1,0.61 -0.18,0.33 -0.13,0.66 0.21,0.81 0.49,0.21 1.14,0.04 1.48,-0.45 0.07,-0.1 0.11,-0.2 0.12,-0.3z"/>
  </g>
 </g>
</svg>
