<?xml version="1.0" encoding="UTF-8"?>
<!DOCTYPE svg PUBLIC "-//W3C//DTD SVG 1.1//EN" "http://www.w3.org/Graphics/SVG/1.1/DTD/svg11.dtd">
<!-- Creator: CorelDRAW -->
<svg xmlns="http://www.w3.org/2000/svg" xml:space="preserve" width="21.4111mm" height="21.2568mm" version="1.1" style="shape-rendering:geometricPrecision; text-rendering:geometricPrecision; image-rendering:optimizeQuality; fill-rule:evenodd; clip-rule:evenodd"
viewBox="0 0 142.87 141.84"
 xmlns:xlink="http://www.w3.org/1999/xlink"
 xmlns:xodm="http://www.corel.com/coreldraw/odm/2003">
 <defs>
  <style type="text/css">
   <![CDATA[
    .fil0 {fill:#FEFEFE}
   ]]>
  </style>
 </defs>
 <g id="Camada_x0020_1">
  <metadata id="CorelCorpID_0Corel-Layer"/>
  <path class="fil0" d="M83.27 0l52.57 0c3.87,0 7.03,3.03 7.03,6.74l0 75.96c0,3.71 -3.16,6.74 -7.03,6.74l-52.57 0c-3.87,0 -7.03,-3.03 -7.03,-6.74l0 -75.96c0,-3.71 3.16,-6.74 7.03,-6.74zm-78.97 0l58.02 0c2.37,0 4.3,1.94 4.3,4.3l0 32.19c0,2.37 -1.93,4.3 -4.3,4.3l-58.02 0c-2.37,0 -4.3,-1.94 -4.3,-4.3l0 -32.19c0,-2.37 1.94,-4.3 4.3,-4.3zm76.42 99.41l57.68 0c2.46,0 4.47,2.01 4.47,4.47l0 33.49c0,2.46 -2.01,4.47 -4.47,4.47l-57.68 0c-2.46,0 -4.48,-2.01 -4.48,-4.47l0 -33.49c0,-2.46 2.01,-4.47 4.48,-4.47zm-73.69 -49.03l52.57 0c3.87,0 7.03,3.16 7.03,7.03l0 77.42c0,3.86 -3.16,7.03 -7.03,7.03l-52.57 0c-3.87,0 -7.03,-3.16 -7.03,-7.03l0 -77.42c0,-3.86 3.16,-7.03 7.03,-7.03z"/>
 </g>
</svg>
