<?xml version="1.0" encoding="UTF-8"?>
<!DOCTYPE svg PUBLIC "-//W3C//DTD SVG 1.1//EN" "http://www.w3.org/Graphics/SVG/1.1/DTD/svg11.dtd">
<!-- Creator: CorelDRAW -->
<svg xmlns="http://www.w3.org/2000/svg" xml:space="preserve" width="4.1306mm" height="19.1556mm" version="1.1" style="shape-rendering:geometricPrecision; text-rendering:geometricPrecision; image-rendering:optimizeQuality; fill-rule:evenodd; clip-rule:evenodd"
viewBox="0 0 1.61 7.46"
 xmlns:xlink="http://www.w3.org/1999/xlink"
 xmlns:xodm="http://www.corel.com/coreldraw/odm/2003">
 <defs>
  <style type="text/css">
   <![CDATA[
    .fil0 {fill:black}
   ]]>
  </style>
 </defs>
 <g id="Camada_x0020_1">
  <metadata id="CorelCorpID_0Corel-Layer"/>
  <path class="fil0" d="M0.8 0c0.44,0 0.8,0.36 0.8,0.8 0,0.44 -0.36,0.8 -0.8,0.8 -0.44,0 -0.8,-0.36 -0.8,-0.8 0,-0.44 0.36,-0.8 0.8,-0.8zm0 5.85c0.44,0 0.8,0.36 0.8,0.8 0,0.44 -0.36,0.8 -0.8,0.8 -0.44,0 -0.8,-0.36 -0.8,-0.8 0,-0.44 0.36,-0.8 0.8,-0.8zm0 -2.93c0.44,0 0.8,0.36 0.8,0.8 0,0.44 -0.36,0.8 -0.8,0.8 -0.44,0 -0.8,-0.36 -0.8,-0.8 0,-0.44 0.36,-0.8 0.8,-0.8z"/>
 </g>
</svg>
