<?xml version="1.0" encoding="UTF-8"?>
<!DOCTYPE svg PUBLIC "-//W3C//DTD SVG 1.1//EN" "http://www.w3.org/Graphics/SVG/1.1/DTD/svg11.dtd">
<!-- Creator: CorelDRAW 2020 (64 Bit) -->
<svg xmlns="http://www.w3.org/2000/svg" xml:space="preserve" width="31.1274mm" height="34.6438mm" version="1.1" style="shape-rendering:geometricPrecision; text-rendering:geometricPrecision; image-rendering:optimizeQuality; fill-rule:evenodd; clip-rule:evenodd"
viewBox="0 0 86.58 96.36"
 xmlns:xlink="http://www.w3.org/1999/xlink"
 xmlns:xodm="http://www.corel.com/coreldraw/odm/2003">
 <defs>
  <style type="text/css">
   <![CDATA[
    .fil0 {fill:#090A09}
    .fil3 {fill:#139750}
    .fil7 {fill:#66BA52}
    .fil4 {fill:#D82B34}
    .fil2 {fill:#E72834}
    .fil5 {fill:#F4ED2B}
    .fil6 {fill:#F5F12B}
    .fil1 {fill:#F6F226}
   ]]>
  </style>
 </defs>
 <g id="Camada_x0020_1">
  <metadata id="CorelCorpID_0Corel-Layer"/>
  <g id="_2420286724992">
   <path class="fil0" d="M74.46 64.25c-1.16,4.8 -3.95,7.97 -4.68,12.67 4.75,0.09 7.73,0.32 8.95,4.67l-2.18 0.34c-0.64,-0.02 -0.93,-0.16 -1.64,-0.29 -7.04,-1.26 -6.59,1.03 -12,0.9 0.79,-6.14 6.01,-12.14 7.74,-18.34 -4.01,-0.16 -2.96,0.87 -4.79,-1.79l-1.28 1.86c-1.59,10.12 -10.07,1.25 -17.38,4.11 -0.66,5.02 1.65,6.42 1.16,11.05 -2.95,1.87 -5.6,1.78 -9.07,2.38 0.64,2.09 1.48,2.02 1.5,5.47 0.08,12.13 -8.98,1.93 -12.43,-1.81 -1.56,-1.7 -1.44,-2.21 -3.89,-2.52 -2.73,3.65 -0.37,5.74 -4.99,5.69 -2.38,-3.9 0.42,-4.39 0.96,-8.54 0.52,-4.04 -0.67,-6.25 3.34,-7.11 0.82,1.19 4.82,10.91 12.21,13.51l1.18 -4.18 -4.27 -1.45c-0.44,-4.26 0.82,-13.77 2.72,-17.15 3.17,-6.41 25.24,-10.05 30.58,-8.94 1.2,2.78 0.61,2.56 0.2,5.68 3.88,-1.12 15,-3.96 8.08,3.78zm-4.94 -7.07c-0.08,0.04 -0.16,0.07 -0.24,0.11l-0 -0.11c-0.51,-1.47 -1.14,-3.15 -1.71,-4.18 0.14,-0.18 0.26,-0.34 0.38,-0.48 -0.02,-0.08 -0.04,-0.15 -0.06,-0.24 0.28,-0.19 0.54,-0.37 0.78,-0.54 0.42,-0.41 0.77,-0.71 1.38,-1.57 2.19,-3.06 0.72,-2.51 2.77,-3.73 0.27,-0.42 0.26,-0.31 0.75,-0.44 0.95,-0.54 2.37,-1.34 4.52,-2.6 1.03,-0.6 2.34,-1.3 3.63,-2.13 1.36,-0.98 2.44,-1.88 3.26,-2.69 1.24,-1.43 1.94,-3.12 1.44,-5.15 -1.29,-1.07 -2.98,-1.75 -4.91,-2.15 -0.83,-0.16 -1.72,-0.28 -2.66,-0.38 -7.94,-0.71 -18.31,1.6 -22.67,0.07 1.31,-1.81 1.93,-1.77 3.72,-2.88 0.06,-0.16 0.12,-0.35 0.18,-0.57 0.04,-0.85 0.08,-2.38 0.08,-2.39 0.32,-1.97 0.89,-2.36 1.49,-2.77 0.5,-0.8 1.07,-1.6 1.52,-2.36 0.03,-0.11 0.06,-0.22 0.08,-0.33 0.62,-2.71 -1.12,-3.3 -2.85,-3.74 -0.66,-0.06 -1.42,-0.1 -2.31,-0.1 0.06,-0.21 0.12,-0.41 0.19,-0.6 -0.07,-0.04 -0.13,-0.08 -0.19,-0.12 1.17,-2.63 2.24,-1.89 4.13,-4.16 0.78,-4.56 -1.07,-6.84 -3.48,-8.73 -0.51,-0.4 -0.89,-0.68 -1.19,-0.87 -0.33,-0.14 -0.65,-0.23 -0.92,-0.25 -0.1,-0.01 -0.19,-0.02 -0.27,-0.02 -0.33,0.14 -0.67,0.44 -1.49,0.59 -3.9,0.7 -7.62,-3.49 -25.37,-0.72 -0.96,0.15 -1.74,0.3 -2.38,0.46 -0.66,0.19 -1.29,0.39 -1.9,0.62 -2.05,0.96 -0.42,1.84 -4.22,2.17 -6.05,0.53 -6.96,-1.26 -8.16,1.29 -1.13,2.4 -0.05,1.25 2.52,3.21 3.46,2.64 -1.49,4.36 14.02,5.59 0.04,0.12 0.04,0.32 0.05,0.38l0.35 3.09 0.11 0.34c3.14,0.1 5.6,-0.28 7.14,0.6l0.76 0c0.02,0.26 0.05,0.51 0.08,0.73 1.16,1.47 -0.88,2.08 4.38,3.3 -0.77,1.41 -1.49,3.15 -2.83,3.98 -1.01,0.63 -3.9,1.21 -5.13,1.55 -0.99,-0.69 -0.34,-0.27 -1.23,-1.11 -4.92,-4.65 -4,-2.54 -16.58,5.46 -2.06,-4.83 -0.99,-4.92 -6.47,-4.33 -3.66,0.4 -1.98,0.36 -3.63,1.92 -2.09,1.97 -0.97,0.72 -3.71,1.78l-0.07 0.03c0.33,7.47 5.3,10.71 12.86,8.96 5.94,-1.38 9.56,-6.16 14.57,-6.94l-0.08 0.39c0.05,-0 0.09,-0.01 0.14,-0.01 -0.09,0.19 -0.17,0.35 -0.24,0.49l-0.45 2.18c-0,0.25 -0,0.55 -0.01,0.91 -0.08,0.01 -0.16,0.01 -0.24,0.02 -5.84,2.13 -9.46,2.52 -14.13,6.04 -0.16,0.12 -0.32,0.23 -0.48,0.34 -0.51,0.48 -0.93,0.97 -1.25,1.46 -0.53,-0.13 -1.06,-0.23 -1.59,-0.32 -2.59,0.48 -5.09,-0.32 -7.44,-0.01 -0.49,0.09 -0.96,0.2 -1.39,0.33 -0.98,0.36 -1.93,1.01 -2.85,2.14 0.45,3.06 1.93,3.08 3.98,4.44 -1.35,2.12 -3.59,4.64 -0.56,7.77 0.69,0.71 2.34,1.46 2.72,2.35l0.71 3.53c2.76,1.36 4.22,0.86 6.99,-0.39 3.78,-1.7 1.78,-1.19 5.85,-0.83 5.75,0.5 8.6,-1.15 13.03,-1.79l0.15 -0.07 -0.01 0.05c0.16,-0.02 0.33,-0.04 0.49,-0.06 -0.99,4.13 -2.26,14.77 -3.48,16.41 -3.08,-2.96 -2.35,-5.72 -5.41,-8.51 -4.8,-0.15 -5.69,3.21 -6.02,7.83 -0.56,7.72 -4.58,7.33 -5.12,9.29 -0.02,0.09 -0.04,0.18 -0.05,0.27 0.02,0.5 0.1,0.98 0.23,1.45 1.6,4.2 10.44,10.21 11.45,3.84 0.36,-2.3 -0.23,-2.33 -0.64,-2.57 -0.1,0.13 -0.15,0.19 -0.11,-0.08 -0.37,-0.3 -0.43,-1.07 1.03,-4.93 2.71,1.88 7.77,7.7 10.88,8.78 7.09,2.46 6.63,-5.72 6.7,-10.71 -0.04,-0.13 -0.09,-0.25 -0.14,-0.35l0.15 -0.03c0,-0.15 0.01,-0.29 0.01,-0.43 12.24,-1.89 6.67,-5.2 6.34,-12.63 -0.07,-0.19 -0.14,-0.35 -0.2,-0.48l0.18 0c-0,-0.16 -0,-0.32 0,-0.49 4.56,-0.11 7.58,1.74 11.05,1.68 4.53,-0.07 4.42,-3.19 6.52,-4.39 0.14,-0.13 0.29,-0.26 0.45,-0.38 -0.01,0.06 -0.03,0.12 -0.04,0.18 0.16,-0.06 0.32,-0.11 0.5,-0.16 -1.81,4.35 -8,13.02 -5.87,17.62 5.41,1.35 6.74,-2.06 12.65,-0.73 2.91,0.65 7.87,0.56 10,-1.22 0.35,-0.38 0.66,-0.84 0.93,-1.39 0.29,-1.05 -0.09,-2.43 -1.47,-4.2 -0.36,-0.46 -0.71,-0.87 -1.05,-1.24 -0.89,-0.82 -1.66,-1.46 -2.34,-1.94 -3.59,-2.06 -5.98,0.92 -7.92,1.34 0.99,-3.03 2.56,-6.78 3.87,-9.57 4.52,-9.63 -0.88,-8.39 -6.92,-8.09zm-61.25 7.33c1.09,-3 4.69,-6.12 9.67,-4.83 -1.59,3.23 -5.02,4.77 -9.67,4.83zm-5.9 -15.79c2.99,-2.48 8.52,-1.11 11.92,-0.47 -2.77,5.7 -8.75,4.17 -11.92,0.47zm36.57 5.76c4.99,0.51 13.62,-2.61 16.19,-1.52 -4.88,3.41 -29.59,10.64 -36.9,9.8 0.77,-2.98 2.14,-1.24 1.61,-4.38 -2.22,-1.38 -3.91,-1.95 -7.06,-0.96 -4.21,1.32 -1.96,2.47 -5.23,3.21 -2.58,-1.45 -3.68,-1.84 -3.26,-5.46 4.17,-3.23 2.76,0.88 12.56,-5.53 -0.73,-3.24 -0.12,-0.45 -0.91,-2.27 -0.29,-0.67 -0.08,0.64 -0.71,-1.55 4.26,-1.8 8.52,-5.01 14.13,-5.51 1.77,2.29 -0.04,2.58 2.42,3.69 3.09,1.4 1.84,-1.3 4.07,1.66 1.36,1.81 2.24,7.06 3.08,8.81zm17.22 -3.98c-4.14,0.27 -13.11,2.43 -15.81,2 -1.07,-1.82 -1.18,-3.2 -2.03,-5.13 -1.16,-2.64 -2.2,-2.73 0.15,-4.56 2.79,0.57 0.83,-1.55 2.51,2.66 2.56,6.45 4.67,2.24 15.01,2.32 2.74,0.02 4.65,0.5 7.14,0.82 3.22,0.42 3.25,-0.23 5.74,-0.21 -4.37,6.74 -6,1.66 -12.7,2.09zm-14.65 -11.68c-3.19,4.99 -14.76,7.9 -8.47,-6.52l9.44 -0.06c-0.5,2.21 -1.21,2.23 -1.39,3.8 -0.22,2.02 0.71,0.05 0.41,2.78zm-30.23 -6.55c0.1,-0.13 0.23,-0.33 0.29,-0.4 0.06,-0.07 0.23,-0.3 0.3,-0.38l1.71 -1.27 0.24 4.2c-6.54,1.27 -5.05,0.56 -5.55,-2.67 1.26,0.2 1.55,0.4 1.91,0.48 3.66,0.74 -2.21,0.81 1.1,0.06zm15.15 0.68c-7.51,5.16 -17.9,11.82 -21.79,0.51 3.45,0.91 3.23,1.59 5.82,3.18 5.34,-0.29 6.65,-3.08 10.78,-4.1 1.37,-2.04 6.55,-5.58 8.81,-5.79 1.41,1.38 1.73,1.38 2.06,4.08 -1.98,1.17 -3.33,1.18 -5.68,2.12zm23.71 -0.15c-0.48,1.45 -1.41,-0.21 0.24,1.32 10.56,-1.32 24.42,-2.49 34.37,0.16 -1.64,5.2 -10.82,9.47 -16.32,12.13 -4.52,2.19 -6.81,-0.49 -11.74,-0.52 -4.74,-0.03 -8.43,1.05 -13.57,0.68l-1.84 -3.91c0.94,-2.29 1.07,-1.46 1.57,-3.03 0.45,-1.43 0.17,-1.91 0.58,-2.9 0.73,-1.75 -0.19,-1.55 6.12,-2.28l-2.43 -1.14c-2,-0.9 -0.03,0.68 -1.64,-0.76l-3.52 -5.27c1.41,-2.69 2.99,-4.64 6.73,-4.07 2.95,0.45 7.34,0.33 9.48,1.93 -0.57,3.44 0.37,0.62 -1.8,2.54 -0.16,0.14 -1.02,0.87 -1.19,0.98 -3.09,1.91 -4.05,-0.96 -5.49,-2.96 -1.63,1.43 -1.64,0.94 -2.1,3.67 3.36,1.41 2.72,0.14 4.45,2.19 -0.93,1.33 1.51,0.67 -1.89,1.24zm-9.61 -12.48c0.98,-0.73 -0.77,-0.03 1.57,-0.81 0.57,-0.19 0.58,-0.17 1.19,-0.29 0.71,-0.13 1.68,-0.11 2.4,-0.14l15.76 -0.94c-1.17,7.23 -15.8,4.01 -20.91,2.17zm-4.86 -14.23c2.96,-0.03 6.21,-0.08 9.14,0.24 3.03,0.33 5.39,1.85 6.56,0.95 -5.86,-5.35 -17.05,-0.63 -23.62,-3.57 4.33,-2 11.88,-1.93 17.05,-1.57 12.29,0.86 9.84,4.76 11.87,6.58 1.55,-2.35 0.53,-2.25 -0.01,-5.16 1.92,0.98 5.09,3.31 3.38,6.44 -1.33,2.43 -1.34,1 -2.82,2.79 -1.43,1.73 -1.08,2.83 -1.87,4.17 -8.1,1.74 -15.67,-1.36 -23.46,-0.71 3.31,-2.24 8.7,-0.74 12.83,-1.82 -0.75,-0.88 0.49,-0.14 -1.1,-0.82l-5.13 -0.68c-2.41,-0.19 -4.82,-0.35 -7.14,-0.47 -6.02,-0.32 -7.25,-0.6 -12.07,-1.9 4.47,-0.31 25.51,0.05 27.05,-0.42 -4.2,-3.88 -21.87,0.17 -28.69,-3.14l-1.12 -0.75c5.95,-0.32 13.05,-0.1 19.16,-0.15z"/>
   <path class="fil1" d="M15.24 45.82c0.63,2.19 0.42,0.88 0.71,1.55 0.79,1.82 0.18,-0.97 0.91,2.27 -9.81,6.41 -8.4,2.3 -12.56,5.53 -0.42,3.62 0.68,4.01 3.26,5.46 3.27,-0.75 1.02,-1.89 5.23,-3.21 3.15,-0.99 4.84,-0.42 7.06,0.96 0.53,3.14 -0.84,1.4 -1.61,4.38 7.31,0.84 32.02,-6.4 36.9,-9.8 -2.57,-1.09 -11.2,2.02 -16.19,1.52 -0.83,-1.75 -1.71,-7 -3.08,-8.81 -2.23,-2.97 -0.98,-0.26 -4.07,-1.66 -2.47,-1.12 -0.66,-1.41 -2.42,-3.69 -5.61,0.5 -9.87,3.71 -14.13,5.51z"/>
   <path class="fil2" d="M64.58 64.27l-28.97 -0.55c-1.9,3.38 -3.16,12.88 -2.72,17.15l4.27 1.45 -1.18 4.18c-7.39,-2.6 -11.39,-12.33 -12.21,-13.51 -4,0.87 -2.81,3.08 -3.34,7.11 -0.54,4.15 -3.34,4.65 -0.96,8.54 4.62,0.05 2.26,-2.04 4.99,-5.69 2.45,0.31 2.33,0.82 3.89,2.52 3.45,3.75 12.51,13.94 12.43,1.81 -0.02,-3.45 -0.87,-3.38 -1.5,-5.47 3.47,-0.6 6.13,-0.51 9.07,-2.38 0.49,-4.64 -1.82,-6.04 -1.16,-11.05 7.31,-2.86 15.79,6.01 17.38,-4.11z"/>
   <path class="fil1" d="M50.14 32.81l-4.68 -0.25c1.62,1.43 -0.36,-0.14 1.64,0.76l2.43 1.14c-6.31,0.73 -5.39,0.53 -6.12,2.28 -0.41,0.99 -0.13,1.47 -0.58,2.9 -0.5,1.57 -0.63,0.73 -1.57,3.03l1.84 3.91c5.14,0.37 8.84,-0.72 13.57,-0.68 4.92,0.04 7.22,2.71 11.74,0.52 5.5,-2.66 14.67,-6.93 16.32,-12.13 -9.95,-2.65 -23.8,-1.48 -34.37,-0.16 -1.64,-1.53 -0.72,0.13 -0.24,-1.32z"/>
   <path class="fil3" d="M27.75 3.7c6.58,2.95 17.76,-1.78 23.62,3.57 -1.17,0.9 -3.53,-0.62 -6.56,-0.95 -2.94,-0.32 -6.18,-0.27 -9.14,-0.24 -6.11,0.06 -13.21,-0.17 -19.16,0.15l1.12 0.75c6.82,3.31 24.49,-0.74 28.69,3.14 -1.54,0.47 -22.58,0.11 -27.05,0.42 4.82,1.3 6.06,1.58 12.07,1.9 2.32,0.12 4.73,0.28 7.14,0.47l5.13 0.68c1.59,0.68 0.36,-0.07 1.1,0.82 -4.12,1.08 -9.51,-0.41 -12.83,1.82 7.79,-0.65 15.36,2.45 23.46,0.71 0.8,-1.34 0.45,-2.44 1.87,-4.17 1.47,-1.79 1.49,-0.36 2.82,-2.79 1.71,-3.14 -1.46,-5.46 -3.38,-6.44 0.54,2.92 1.56,2.81 0.01,5.16 -2.04,-1.82 0.41,-5.72 -11.87,-6.58 -5.18,-0.36 -12.73,-0.43 -17.05,1.57z"/>
   <path class="fil1" d="M35.61 63.72l28.97 0.55 1.28 -1.86c1.83,2.66 0.78,1.63 4.79,1.79l3.81 0.05c6.92,-7.74 -4.2,-4.9 -8.08,-3.78 0.42,-3.12 1,-2.9 -0.2,-5.68 -5.35,-1.11 -27.41,2.53 -30.58,8.94z"/>
   <path class="fil4" d="M74.46 64.25l-3.81 -0.05c-1.73,6.2 -6.95,12.2 -7.74,18.34 5.41,0.13 4.96,-2.16 12,-0.9 0.71,0.13 1,0.27 1.64,0.29l2.18 -0.34c-1.22,-4.35 -4.19,-4.58 -8.95,-4.67 0.73,-4.69 3.53,-7.87 4.68,-12.67z"/>
   <path class="fil5" d="M40.35 52.51c2.71,0.43 11.67,-1.74 15.81,-2 6.7,-0.43 8.33,4.64 12.7,-2.09 -2.5,-0.02 -2.52,0.63 -5.74,0.21 -2.49,-0.33 -4.4,-0.8 -7.14,-0.82 -10.34,-0.07 -12.44,4.14 -15.01,-2.32 -1.67,-4.21 0.29,-2.09 -2.51,-2.66 -2.35,1.83 -1.3,1.92 -0.15,4.56 0.85,1.93 0.96,3.31 2.03,5.13z"/>
   <path class="fil6" d="M41.52 38.83c0.29,-2.73 -0.63,-0.75 -0.41,-2.78 0.17,-1.57 0.88,-1.59 1.39,-3.8l-9.44 0.06c-6.29,14.42 5.28,11.51 8.47,6.52z"/>
   <path class="fil3" d="M45.46 32.55l4.68 0.25c3.39,-0.57 0.96,0.09 1.89,-1.24 -1.74,-2.04 -1.09,-0.77 -4.45,-2.19 0.46,-2.74 0.47,-2.25 2.1,-3.67 1.44,2 2.41,4.87 5.49,2.96 0.17,-0.11 1.03,-0.84 1.19,-0.98 2.17,-1.92 1.23,0.9 1.8,-2.54 -2.14,-1.6 -6.53,-1.48 -9.48,-1.93 -3.74,-0.57 -5.32,1.39 -6.73,4.07l3.52 5.27z"/>
   <path class="fil5" d="M26.43 32.96l-5.19 -0.41c-4.14,1.02 -5.44,3.81 -10.78,4.1 -2.59,-1.59 -2.37,-2.27 -5.82,-3.18 3.89,11.3 14.28,4.64 21.79,-0.51z"/>
   <path class="fil3" d="M40.53 20.32c5.11,1.84 19.74,5.07 20.91,-2.17l-15.76 0.94c-0.72,0.02 -1.69,0.01 -2.4,0.14 -0.61,0.11 -0.62,0.1 -1.19,0.29 -2.34,0.78 -0.58,0.08 -1.57,0.81z"/>
   <path class="fil6" d="M2.37 48.72c3.17,3.7 9.15,5.23 11.92,-0.47 -3.4,-0.64 -8.93,-2.01 -11.92,0.47z"/>
   <path class="fil3" d="M21.24 32.55l5.19 0.41c2.36,-0.94 3.7,-0.95 5.68,-2.12 -0.33,-2.7 -0.65,-2.7 -2.06,-4.08 -2.26,0.21 -7.44,3.75 -8.81,5.79z"/>
   <path class="fil5" d="M8.27 64.51c4.64,-0.07 8.08,-1.6 9.67,-4.83 -4.97,-1.29 -8.58,1.84 -9.67,4.83z"/>
   <path class="fil7" d="M11.28 32.28c-3.31,0.75 2.56,0.68 -1.1,-0.06 -0.36,-0.07 -0.65,-0.28 -1.91,-0.48 0.5,3.23 -0.99,3.94 5.55,2.67l-0.24 -4.2 -1.71 1.27c-0.07,0.08 -0.24,0.31 -0.3,0.38 -0.06,0.07 -0.19,0.27 -0.29,0.4z"/>
  </g>
 </g>
</svg>
