<?xml version="1.0" encoding="UTF-8"?>
<!DOCTYPE svg PUBLIC "-//W3C//DTD SVG 1.1//EN" "http://www.w3.org/Graphics/SVG/1.1/DTD/svg11.dtd">
<!-- Creator: CorelDRAW 2020 (64 Bit) -->
<svg xmlns="http://www.w3.org/2000/svg" xml:space="preserve" width="50.3079mm" height="14.0565mm" version="1.1" style="shape-rendering:geometricPrecision; text-rendering:geometricPrecision; image-rendering:optimizeQuality; fill-rule:evenodd; clip-rule:evenodd"
viewBox="0 0 445.14 124.38"
 xmlns:xlink="http://www.w3.org/1999/xlink"
 xmlns:xodm="http://www.corel.com/coreldraw/odm/2003">
 <defs>
  <style type="text/css">
   <![CDATA[
    .fil0 {fill:#FEFEFE}
    .fil6 {fill:#00AFEF}
    .fil1 {fill:black}
    .fil4 {fill:#FA0101}
    .fil5 {fill:#FD0000}
    .fil2 {fill:#FDFDFD}
    .fil3 {fill:#FFCC00}
   ]]>
  </style>
 </defs>
 <g id="Camada_x0020_1">
  <metadata id="CorelCorpID_0Corel-Layer"/>
  <path class="fil0" d="M352.46 23.56c2.4,-0.73 4.8,-0.59 7.39,0.87 1.82,1.02 3.44,2.24 4.8,3.69 2.7,-1.7 5.88,-2.38 9.24,-1.28 2.08,0.67 3.88,1.94 5.29,3.56 14.54,-8.5 34.92,-8.46 48.46,1.72 11.02,8.29 17.36,20.74 17.51,34.51 0.09,8.53 -2.52,19.03 -9.04,25.04l-0.83 2.43c-0.31,4.28 -1.97,8.39 -6.37,9.9 -2.25,0.77 -3.54,0.5 -5.42,0.39 -8.1,5.73 -20.45,7.1 -30.38,5.8l-3.38 4.91c-3.89,6.67 -10.71,9.07 -18.16,8.93 -0.11,-0 -0.2,-0.01 -0.31,-0.02 -1.31,-0.12 -2.62,-0.36 -3.89,-0.73 -10.5,-3.06 -21,-5.7 -31.8,-7.42 -10.86,-1.74 -21.83,-2.58 -32.81,-3.24 -46.47,-2.81 -94.57,-1.14 -140.96,2.6 -17.09,1.38 -34.34,3.87 -51.41,5.76 -10.97,1.21 -22.01,2.34 -33.03,2.96 -8.05,0.46 -17.52,0.87 -25.49,-0.37 -5.47,-0.85 -11.98,-2.54 -15.43,-7.2 -1.69,-0.7 -3.15,-1.54 -4.8,-2.53 -1.02,-0.61 -2.03,-1.21 -3,-1.88 -3.54,-1.05 -5.77,-2.61 -8.3,-5.59 -4.14,-4.9 -5.62,-12.84 -6.21,-19.53 -3.39,-1.55 -6.67,-3.82 -7.89,-7.4 -0.48,-1.41 -0.58,-2.81 -0.38,-4.17 -4,-2.04 -6.91,-5.58 -5.52,-10.75 2.08,-7.7 2.9,-8.42 10.46,-11.05 0.48,-0.17 0.95,-0.32 1.43,-0.45 0.29,-2.6 0.29,-5.43 0.69,-7.94 0.88,-5.61 3.15,-10.12 7.57,-13.8 2.8,-2.33 6.16,-2.79 9.12,-1.78 2.82,-4.12 8,-5.7 13.93,-5.45 1.91,0.08 3.7,0.67 5.24,1.81 2.46,1.83 3.77,4.6 4.43,7.74 3.06,-3.42 6.91,-5.92 11.72,-6.45 3.07,-0.34 6.04,0.22 8.75,1.48 5.54,-3.42 10.97,-5.02 17.89,-5.12 10.2,-0.16 19.59,3.57 22.67,12.53 5.2,-2.59 11.7,-5.18 15.69,-5.49 0.07,-0.01 0.14,-0.01 0.21,-0.01l6.85 -0.2c1.7,-0.63 3.49,-1.71 5.2,-2.39 3.62,-1.42 7.17,-1.82 11.04,-1.41 5.43,0.58 10.37,2.58 14.35,5.96 6.87,-8.65 20.31,-9.56 29.05,-2.19 4.81,-3.96 12.07,-6.38 17.05,-3.17 1.53,0.99 2.83,2.17 3.92,3.51 3.2,-1.96 6.93,-2.4 10.39,-0.74 1.79,-1.54 3.88,-2.75 6.12,-3.6 -2.32,-4.94 -0.5,-11.91 3.72,-15.26 2.25,-1.78 6.02,-2.77 8.83,-3.03 2.96,-0.28 6,0.15 8.35,1.54 0.16,-0.95 0.49,-1.97 1.09,-3.09 3.08,-5.75 9.36,-5.95 15.04,-5.95 3.38,-0.01 6.43,1.73 8.12,4.38 3.15,-6.03 10.28,-4.82 16.1,-4.71 3.16,0.06 6.02,1.29 7.73,4.04 1.77,2.85 1.57,5.72 1.5,8.88 -0.06,2.9 -1.31,5.41 -3.71,7.07 -1.92,1.33 -3.39,1.52 -5.24,1.91 -0.28,0.66 -0.59,1.48 -0.9,2.37 1.21,-0.35 2.49,-0.54 3.81,-0.55 2.74,-0.02 5.72,0.78 7.97,2.47 4.48,-3.57 10.88,-3.51 15.8,0.05 3.64,-2.72 8.58,-4.63 12.33,-5.49 6.03,-1.39 12.89,-1.21 17.77,2.65z"/>
  <path class="fil1" d="M289.8 33.45c4.77,-7.53 13.59,-5.69 15.51,-2.06 0.43,0.82 0.76,1.72 1.01,2.69 2.68,-7.59 11.43,-7.92 16.04,-1.58 3.58,-5.56 22.21,-12.79 29.14,-3.77 1.97,-1.14 3.82,-1.87 6.22,-0.51 3.31,1.86 5.13,4.1 6.09,6.58 5.5,-7.33 12.18,-3.74 13.96,1.77 12.99,-9.91 33.94,-10.99 47.26,-0.97 10.19,7.66 15.65,18.97 15.77,31.08 0.07,7.13 -2.08,17.4 -8.43,22.47l-1.4 4.11c-0.38,9.54 -7.38,6.28 -8.97,6.8 -7.39,6 -20.78,7.36 -30.91,5.4l-5.04 7.31c-3.02,5.3 -8.4,7.02 -14.4,6.91l0 -0c-1.03,-0.09 -2.05,-0.28 -3.05,-0.57 -24.94,-7.28 -39.64,-9.26 -65.56,-10.83 -45.38,-2.75 -96.2,-1.05 -141.57,2.6 -26.84,2.16 -86.97,11.81 -108.91,8.39 -4.61,-0.72 -10.98,-2.19 -13.22,-6.47 -2.38,-0.79 -3.8,-1.71 -5.44,-2.7 -1.07,-0.64 -2.24,-1.32 -3.33,-2.13 -2.77,-0.73 -4.5,-1.6 -6.89,-4.42 -3.84,-4.54 -4.99,-13.16 -5.4,-19.72 -5.52,-2.02 -10.79,-5.31 -6.7,-11.14 -3.56,-0.76 -8.18,-2.78 -7.03,-7.03 1.63,-6.04 1.35,-5.87 7.7,-8.08 1.36,-0.48 2.5,-0.76 3.76,-0.81 1.62,-6.55 -0.79,-15.43 7.27,-22.15 2.58,-2.15 6.43,-1.63 8.45,2.1 0.47,-6.49 5.02,-8.61 11.64,-8.33 8.13,0.35 5.86,15.7 5.74,22 2.48,-7.54 7.43,-17.94 16.31,-18.92 3.2,-0.35 6.03,0.61 8.47,2.24 5.24,-3.68 10.27,-5.74 17.77,-5.86 10.91,-0.17 19.31,4.29 19.33,14.95 4.18,-2.64 14.53,-7.55 19.3,-7.92l7.51 -0.22c3.84,-1.21 7.18,-4.63 14.99,-3.8 6.67,0.71 12.13,3.86 15.71,9.07 3.85,-11.83 20.29,-14.16 28.18,-3.25 2.57,-4.15 10.56,-8.54 14.68,-5.88 2.61,1.69 4.22,4.05 5.22,6.83 2.58,-3.8 7.56,-6.68 12.04,-1.92 3.68,-5.42 11.78,-7.76 18.23,-5.88 -1.92,-2.63 -1.94,-0.52 -6.81,-3.26 -4.24,-2.38 -2.64,-9.6 0.53,-12.12 2.63,-2.08 13.29,-4.38 14.31,1.97 0.41,2.55 2.37,4.27 4.7,5.46 3.01,-6.04 -2,-8.91 0.39,-13.36 2.06,-3.84 7.29,-3.66 11.22,-3.66 3.04,-0.01 5.4,2.39 5.14,5.2 -0.22,2.37 -1.06,5.19 -1.2,7.53 1.29,-1.35 2.52,-2.76 3.39,-3.55 4.94,-4.58 2.22,-1.16 4.37,-6.53 1.67,-4.18 6.83,-3.08 12.44,-2.98 5.77,0.11 5.03,5.7 4.97,8.48 -0.11,5.26 -6.61,4.62 -7.57,5.4 -0.73,0.59 -4.09,9.77 -4.29,13.22 -0.01,0.17 -0.03,0.32 -0.05,0.48l1.44 1.35z"/>
  <path class="fil2" d="M145.08 78.85c0.15,-6.68 2.1,-16.23 3.29,-22.25 1.93,-9.77 -1.47,-15.23 10.87,-12.94 4.89,10.03 -0.22,27.19 -6.27,35.7 -2.6,3.66 -1.93,4.24 -6.41,5.47 -1.3,-1.89 -0.05,1.14 -1.38,-2.66l-0.1 -3.32zm143.18 -3.72c0.12,-4.55 1.61,-11.13 4.07,-14.65 0.32,3.26 0.35,6.51 0.57,9.72 0.26,3.91 -0.62,3.91 -4.64,4.93zm37.4 2.83l1.93 -2.57c0.41,17.95 -4.08,5.23 -4.4,13.5 -0.39,9.97 16.85,-2.22 18.6,-4.02 4.35,2.24 1.87,3.56 6.41,3.66 0.79,-4.57 0.34,-9.12 0.61,-13.74 0.27,-4.62 1.43,-8.09 2.21,-13.07 3.82,7.74 1.98,24.47 15.99,24.77 1.35,-15.3 3.43,-24.73 5.24,-38.34 0.38,-4.84 2.47,-10.75 -1.6,-12.75 -8.12,3.18 -5.94,25.74 -10.13,33.19 -0.16,-7.47 -1.56,-10.43 -1.3,-19.13 0.24,-8.03 2.15,-13.59 -4.18,-17.16l-4.79 2.77c-4.34,4.02 -8.11,31.13 -8.39,38.56 -0.07,1.88 -0.02,5.38 -0.97,6.96l-5.05 -0.4c-0.4,-8.7 3.69,-30.94 5.63,-39.9 1.35,-2.46 9.98,-3.39 5.77,-8.88 -2.8,-3.65 -9.02,-2.15 -13.88,-0.45 -4.87,1.71 -7.62,3.16 -7.55,8.29 1.9,0.38 6.14,0.88 7.67,2.07 -2.47,4.68 -4.34,21.56 -4.71,28.7 -4.32,2.08 0.09,-5.26 -7.34,2.67 -3.22,3.44 -5.16,5.92 -9.28,7.11 -3.07,-6.62 3.49,-27.25 5.59,-36.05 1.47,-6.18 2.23,-8.6 -3.22,-11.06 -2.85,1 -2.94,0.33 -4.52,8.13l-7.1 33.02c-9.08,-5.44 2.32,-31.77 -2.22,-40.36 -6.17,-2.4 -7.73,5.34 -9.66,9.73 -4.24,9.68 -15.85,38.62 -14.37,46.67 8.95,-1.92 9.5,-7.86 17.65,-9.14 1.64,5.62 1.56,14.04 9.83,14.9 0.65,-4.97 -4.9,-13.05 -2.5,-17.89 9.1,0.95 5.67,20.94 24.03,0.18zm-91.26 3.91c-0.91,-19.18 4.3,-23.58 7.07,-33.8 1.16,-4.3 0.09,-6.76 5.09,-5.46 4.7,8.64 -3.29,34.91 -12.16,39.27zm33.25 -39.83c6.34,-1.84 7.05,-2.54 15.37,-1.56 -2.01,5.67 -10.41,16.72 -15.61,18.64 0.18,-4.56 1.34,-4.38 1.46,-9.12 0.12,-4.78 -0.81,-3.68 -1.22,-7.96zm-12.32 -1.04c-0.71,1.25 -1.35,2.81 -1.9,4.77 -0.7,-3.95 -1.11,-6.77 -4.46,-9.46 -3.02,-2.43 -6.87,-3.01 -11.09,-1.59 -7.67,2.58 -7.05,10.54 -8.95,18.72 -2.92,12.57 -6.64,35.75 10.46,37.31 11.22,-3.14 16.52,-29.84 14.86,-42.14l7.56 -2.47c-3.98,23.89 -7.16,21.99 -4.37,34.99 1.21,5.61 0.68,7.3 6.05,8.97 1.87,-21.2 -2.27,-13.75 10.73,-25.77 4.11,-3.8 12.8,-13.57 14.49,-20.36 0.91,-3.67 -0.84,-5.6 -3.62,-8.17 -4.11,-3.8 -10.87,-3.2 -16.98,-1.68 -5.11,1.27 -10.14,2.22 -12.78,6.88zm-55.88 8.81l-2.23 25.12c-0.7,8.35 0.1,14.36 7.02,16.47 -0.75,-7.1 -1.37,-21.38 1.18,-27.62 1.28,2.46 3.42,24.76 17.02,25.1 0.85,-9.12 1.06,-17.77 2.13,-26.43 0.54,-4.4 -0,-8.62 0.83,-12.94 0.98,-5.1 3.16,-7.29 -1.54,-11.54 -8.44,2.14 -4.75,26.61 -7.49,34.06 -6.6,-11.37 0.46,-31.9 -7.93,-37.32 -8.87,2.05 -8.92,7.04 -8.98,15.1zm-23.36 33.18c0.33,-15.09 1.28,-18.73 6.27,-31.79 2.98,-7.81 0.62,-6.62 4.45,-8.84 2.76,1.94 0.42,-1.6 2.41,2.97 1.82,4.2 -2.03,35 -13.13,37.66zm18.71 -14.36c0.8,-9.05 2,-11.08 0.38,-20.75 0.07,-6.73 -5.36,-14.66 -13.52,-13.3 -10.11,1.7 -8.31,10.17 -10.52,18.03 -2.25,8.04 -3.64,16.09 -2.21,24.72 1.41,8.53 4.65,14.37 14.77,14.69 5.89,-6.59 11.15,-13.65 11.09,-23.39zm-95.52 -29.2c-0.35,6.75 -7.97,20.27 -11.49,23.75 -0.38,-5.92 1.07,-5.73 1.45,-10.98 0.46,-6.33 -1.36,-6.29 -1.97,-9.58 4.59,-2.58 5.93,-3.02 12,-3.2zm-48.27 40.6c3.96,25.04 30.79,9.58 25.4,-3.56 -11.4,-2.13 -5.66,9.05 -16.31,10.37 -3.15,-6.34 -1.73,-39.13 8.71,-42.8l2.14 6.67c5.1,-0.4 2.03,-0.35 5.12,-1.21 2.61,-0.73 2.21,-0.13 4.46,-2.09 0.45,7.73 -6.67,42.51 4.8,45.67l1.44 -0.07 0.19 -4.11c4.44,-2.8 16.18,-8.93 21.88,-9.69 2.24,5.46 4.6,7.75 7.37,11.82 11.83,0.09 19.37,-8.72 17.88,-16.03 -5.96,-2.04 -7.82,7.06 -17.42,8.17l0.24 -10.9c2.8,-1.24 3.27,-1.66 6.47,-3.53 4.2,-2.46 4.51,-1.38 4.96,-5.78 -4.41,-2.36 -3.24,-1.79 -8.27,-1.3 0.27,-9.11 3.45,-13.24 12.8,-15.32 -0.09,8.19 0.7,14.08 6.72,6.15 1.14,9.86 -5.08,27.22 1.18,35.06 11.22,14.04 20.19,-5.58 24.15,-16.15 6.07,-16.18 2.98,-34.11 -12.7,-35.79 -7.3,-0.78 -10.2,3.87 -15.26,4.01 -6.93,0.19 -5.96,-0.91 -13.81,2.52 -3.94,1.72 -9.71,4.28 -12.51,7.12 0.55,5.29 3.35,5.57 -1,16.33 -2.54,5.46 -3.16,1.96 -1.72,8.07 -8.38,-0.54 -10.91,1.86 -17.5,2.5 1.51,-3.56 33.1,-44.03 1.35,-43.53 -8.18,0.13 -12.67,3.07 -18.09,7.42 -14.28,-15.9 -25.63,21.17 -22.65,39.99z"/>
  <path class="fil3" d="M367.82 63.2c-2.36,13.24 1.04,23.07 11.91,31.82 2.17,1.74 4.71,3.31 7.78,4.47 6.9,2.6 19.02,3.05 27.2,-0.68 11.3,-5.16 20.32,-18.11 20.9,-30 0.48,-9.77 -3.05,-21.4 -13.82,-29.5 -11.91,-8.96 -30.1,-7.04 -40.41,0.69 -8.43,6.32 -11.78,13.25 -13.56,23.2zm36.95 21.49c-6.74,0.5 -13.55,2.08 -17.31,-2.41 3.07,-3.22 2.34,-1.56 8.26,-1.78 4.2,-0.16 4.83,-0.72 8.72,-2.09 7.88,-2.78 8.31,-2.75 12.94,-7.74 0.86,0.16 1.38,0.22 1.69,0.24 -0.34,1.07 -0.73,2.21 -1.27,3.32 -2.55,5.23 -7.22,8.77 -13.02,10.46zm-31.26 -24.48c3.43,-1.73 2.79,-3.64 6.79,-6.38 8.41,-5.75 6.69,-0.95 8.72,-6.09 -10.5,-1.29 -17.81,9.12 -15.51,12.47zm26.99 -16.64c4.65,4.15 4.26,-2.63 18.99,1.67 -1.01,-2.51 0.32,-2.22 -2.91,-3.55 -0.01,-0 -14.99,-2.93 -16.08,1.88zm16.88 9.75c0.33,-0.68 0.63,-1.39 0.93,-2.08 -2.16,-0.18 -4.35,-0.41 -6.49,-0.57 -2.63,-0.2 -3.9,1.44 -5.51,3.07 -1.32,1.33 -1.3,1.82 -1.76,3.57 -0.35,1.31 -0.63,1.25 0.62,0.68 3.13,-1.47 4.03,-2.92 7.94,-3.41 1.05,-0.13 1.6,-0.03 2.62,0.05 1.08,0.08 1.25,-0.5 1.64,-1.31zm-38.66 12.73c1.88,-0.62 2.6,-1.03 4.25,-1.88 2.18,-1.06 5.69,-1.14 8.19,-1.48 0.48,-0.07 0.97,-0.13 1.45,-0.19 -1.27,-1.94 -1.53,-3.03 -4.34,-3.28 -2.63,-0.24 -7.04,0.98 -8.41,3.16 -0.64,1.02 -0.9,2.52 -1.15,3.67z"/>
  <path class="fil4" d="M156.17 103.64c-23.54,1.78 -47.05,3.68 -70.61,5.24 -2.53,0.17 -26.55,1.91 -23.38,-3.71l0.77 -0.96c6.7,-6.77 52.08,-9.11 63.33,-9.05 -1.65,-2.81 -1.76,-2.96 -4.54,-2.92 -19.75,0.34 -58.54,1.79 -74.4,12.9 -12.32,8.63 10.34,10.18 15.55,10.16 32.24,-0.42 65.69,-6.55 98.15,-9.18 45.45,-3.65 96.86,-5.3 142.35,-2.61 26.4,1.66 41.37,3.63 66.77,11.04 4.17,1.22 9.25,-0.29 11.37,-4.01 -52.63,-17.33 -167.55,-11.15 -225.33,-6.89z"/>
  <path class="fil5" d="M32.49 69.68c-2.91,-0.05 -2.44,-1.94 -2.78,-4.73l6.74 -0.43c-0.33,3.25 -0.48,5.22 -3.96,5.16zm18.03 2.92c4.99,-1.68 5.13,-0.19 6.82,-4.34 -2.58,-2.42 -2.2,-1.91 -6.67,-2.22l-5.68 -0.53c1.22,-3.58 1.75,-2.97 5.85,-4.57 3.4,-1.09 3.36,-0.79 5.51,-2.68 -1.63,-5.44 -0.6,0.19 -2.79,-4.56 -3.4,2.36 -4.1,2.03 -9.43,1.55 -0.71,-7.11 1.34,-16.7 -0.99,-22.09 -7.87,-0.33 -6.13,2.96 -6.12,10.25 0,2.56 0.04,5.19 -0.4,7.71l-2.68 6.85 -5.7 -0.27c0.09,-6.47 1.49,-15.22 -1.52,-19.53 -7.02,5.84 -3.35,15.04 -6.56,22.21 -3.69,2.36 -2.09,0.26 -6.11,1.66 -4.51,1.57 -3.32,0.37 -4.51,4.77 5.84,2.78 4.93,0.37 10.87,0.09 3.18,8.86 -1.87,2.99 -5.2,9.52 1.95,2.28 4.5,2.68 8.05,4.1 0.19,5.12 0.88,15.83 4.45,20.06 2.16,2.56 3.06,2.53 6.87,3.4 3.45,-4.64 4.77,-4.41 1.91,-11.05 -1.71,-3.96 -3.25,-11.86 -3.18,-16.65 3.47,0.43 5.21,-1.12 5.62,7.27 0.25,5.1 0.32,7.28 3.76,9.97 4.8,-0.82 2.67,-1.66 7.46,-3.69 0.22,-10.1 -3.65,-12.49 0.36,-17.23z"/>
  <path class="fil3" d="M256.75 36.17l1.59 -0.66 -1.56 -6.58c3.85,1.86 2,1.55 7.66,1.7l5.23 -4.35c8.07,4.95 5.8,0.09 11.71,-4.18l-0.87 10.17 2.14 1.06 0.62 -1.97c0.27,-4.6 1.87,-8.21 3.38,-11.95 1.96,-4.86 2.46,-5.43 8.48,-6.51l0.08 -3.6 -7.51 -0.14c-2.27,5.68 0.75,2.4 -5.56,8.25 -2.77,2.57 -5.38,6.47 -9.16,7.89 -5.08,-5.66 -2.35,-9.63 -1.79,-15.67 -12.45,0.02 -3.28,1.59 -6.05,12.45l-2.94 5.91c-6.21,-1.74 -11.48,-5.07 -12.41,-10.88 -5.32,0.21 -7.15,0.03 -7.09,5.34 4.4,2.47 3.74,-0.3 7.69,3.8 2.36,2.46 3.14,7.11 6.38,9.91z"/>
  <path class="fil6" d="M410.04 82.6c0.56,0.67 1.12,1.35 1.38,2.52 0.26,1.17 0.23,2.85 0.48,4.01 0.25,1.16 0.8,1.81 1.82,1.91 1.02,0.11 2.52,-0.33 3.26,-1.21 0.73,-0.88 0.7,-2.21 0.28,-3.14 -0.41,-0.93 -1.21,-1.47 -1.14,-1.9 0.07,-0.43 1.01,-0.76 1.84,-0.37 0.83,0.39 1.55,1.5 2.39,3.14 0.83,1.63 1.78,3.79 2.12,5.5 0.34,1.71 0.06,2.98 0.82,3.66 0.76,0.68 2.56,0.77 3.67,-0.13 1.11,-0.9 1.52,-2.8 1.27,-4.08 -0.25,-1.28 -1.17,-1.93 -2.3,-4.03 -1.14,-2.1 -2.49,-5.65 -3.7,-8.72 -1.21,-3.07 -2.29,-5.66 -3.37,-8.25 -1.61,2.71 -3.22,5.43 -4.69,7.28 -1.47,1.85 -2.79,2.84 -4.12,3.82z"/>
 </g>
</svg>
