<?xml version="1.0" encoding="UTF-8"?>
<!DOCTYPE svg PUBLIC "-//W3C//DTD SVG 1.1//EN" "http://www.w3.org/Graphics/SVG/1.1/DTD/svg11.dtd">
<!-- Creator: CorelDRAW 2020 (64 Bit) -->
<svg xmlns="http://www.w3.org/2000/svg" xml:space="preserve" width="50.4965mm" height="15.9373mm" version="1.1" style="shape-rendering:geometricPrecision; text-rendering:geometricPrecision; image-rendering:optimizeQuality; fill-rule:evenodd; clip-rule:evenodd"
viewBox="0 0 448.36 141.51"
 xmlns:xlink="http://www.w3.org/1999/xlink"
 xmlns:xodm="http://www.corel.com/coreldraw/odm/2003">
 <defs>
  <style type="text/css">
   <![CDATA[
    .fil0 {fill:#FEFEFE}
    .fil1 {fill:black}
    .fil2 {fill:red}
    .fil3 {fill:white}
   ]]>
  </style>
 </defs>
 <g id="Camada_x0020_1">
  <metadata id="CorelCorpID_0Corel-Layer"/>
  <path class="fil0" d="M361.37 22.34c8.9,0.21 14.52,2.08 20.2,9.09 0.17,-0.04 0.34,-0.09 0.52,-0.14 2.54,-0.7 4.54,-0.95 7.2,-0.97 0.35,-0 0.66,0.01 0.95,0.04 0.55,-2.02 1.02,-5.45 1.3,-6.97 0.49,-2.69 1.04,-5.88 2.03,-8.42 3.58,-9.17 11.7,-14.91 21.59,-14.98 1.47,-0.01 5.47,1.05 7.03,1.38 1.82,0.39 5.04,0.88 6.71,1.49 6.95,2.55 12.28,6.76 14.86,13.85 0.85,2.33 1.3,4.68 1.69,7.12 0.24,1.45 0.46,3.29 0.98,4.66 1.56,4.09 2.55,8.54 1.5,12.88 -0.65,2.67 -1.83,4.22 -2.77,6.58 -0.21,0.53 -0.35,1.04 -0.35,1.62 0.07,8.55 2.58,16.16 -1.96,24.34 -0.34,0.61 -0.87,1.49 -1.24,2.23 0.4,1.43 0.53,2.61 0.54,4.28l0.1 13.02c0.02,2.77 -0.71,5.42 -0.68,8.2 0.12,11.08 0.09,23.68 -8,32.3 -9.45,10.06 -34.4,7.34 -47.2,6.93 -4.14,-0.13 -8.11,-1.3 -12.19,-1.27 -9.48,0.07 -17.88,-1.11 -20.23,-12.27 -0.27,-1.28 -0.37,-2.45 -0.22,-3.64l-11.67 11.6c-1.29,1.29 -3.24,1.51 -4.79,0.54 -3.22,-2 -6.16,-4.39 -9.26,-6.56 -1.72,-1.2 -6.3,-4.95 -8.09,-5.62 -1.21,-0.45 -3.5,-0.34 -4.77,-0.32 -5.02,0.11 -10.02,0.3 -15.05,0.34 -1.7,0.01 -2.67,0.31 -4.26,0.73 -3.35,0.89 -6.15,0.5 -9.48,-0.34 -2.96,-0.74 -5.02,-1.95 -7.27,-3.96 -0.22,-0.2 -0.44,-0.4 -0.67,-0.6 -3.82,3.21 -7.16,5.1 -12.9,6.08 -0.25,0.04 -0.46,0.06 -0.71,0.06l-15.46 -0.24c-0.3,0 -0.5,0.01 -0.78,0.09 -1.78,0.5 -3.15,0.62 -5.01,0.63 -2.72,0.02 -4.12,-0.59 -6.89,-0.24 -3.51,0.46 -8.22,1.08 -11.76,0.68 -1.87,-0.21 -2.85,-0.61 -4.25,-1.65 -0.09,-0 -0.15,-0.01 -0.14,-0.01 -0.59,0.09 -1.52,0.45 -2.11,0.63 -1.47,0.47 -2.94,0.88 -4.47,1.16 -4.53,0.84 -8.91,0.43 -13.16,-1.4 -0.65,-0.28 -1.35,-0.71 -2.04,-1.14 -0,0 -0,0.01 -0,0.01 -0.43,1.75 -1.94,2.95 -3.75,2.97 -5.72,0.04 -13.62,-0.49 -19.1,0.56 -5.67,1.09 -9.71,1.28 -14.79,-1.35 -0.01,0.01 -0.03,0.03 -0.04,0.04 -1.55,1.7 -3.66,1.78 -5.78,1.85 -2.89,0.1 -5.7,0.24 -8.58,0.52 -5.56,0.55 -11.36,0.17 -16.96,0.21 -1.13,0.01 -2.1,-0.41 -2.87,-1.24 -0.77,-0.83 -1.12,-1.83 -1.03,-2.96 0.27,-3.36 1.81,-6.68 2.76,-9.81 -11.43,0.15 -19.57,-5.79 -19.68,-19.19 -0,-0.42 0.03,-0.79 0.08,-1.14 -0.15,0.01 -0.31,0.02 -0.47,0.03 -2.74,0.25 -5.11,1.05 -8.01,1.1 -4.16,0.07 -7.93,-1.21 -11.48,-3.19 -0.31,0.11 -0.61,0.23 -0.92,0.35 -3.2,1.28 -5.57,2.36 -9.11,2.73 -2.19,0.23 -4.5,-0.01 -6.63,0.36 -7.04,1.22 -11.04,2.42 -18.19,-0.61 -1.45,-0.61 -2.78,-1.55 -4.13,-2.29 -0.38,0.29 -0.75,0.59 -1.13,0.89 -2.65,2.14 -5.01,3.67 -8.05,5.25 -21.45,11.14 -39.97,0.72 -40.16,-23.96 -0.02,-2.15 0.36,-2.91 1.17,-4.64 -0.05,-0.33 -0.19,-0.8 -0.27,-1.05 -3.51,-11.08 -0.95,-20.53 4.63,-30.35 7.42,-13.07 21.29,-21.26 36.35,-21.24 9.26,0.02 13.07,1.66 20.09,5.96 1.39,-0.66 3.11,-1.69 4.28,-2.16 4.17,-1.67 8.28,-1.68 12.59,-0.53 5.31,1.41 10.45,5.25 12.52,10.42 0.14,-0.06 0.29,-0.12 0.45,-0.18 4.28,-1.78 7.16,-2.1 11.79,-1.16 3.89,0.79 6.12,2.1 8.28,4.45 6.5,-10.43 27.44,-10.17 31.9,2.7 3.32,-0.03 6.64,-0.08 9.95,-0.09 2.81,-0.02 5.44,0.39 8.05,1.44 0.61,0.25 2.34,1.16 2.65,1.26 0.8,-0.16 2.89,-1.29 3.76,-1.65 2.82,-1.19 5.63,-1.85 8.7,-1.87l10.88 -0.08c3.8,-0.03 5.73,0.36 8.48,2.46 0.91,-0.23 2.3,-0.83 2.89,-1.08 2,-0.84 3.63,-1.26 5.75,-1.69 0.75,-0.15 1.56,-0.18 2.28,-0.29 0.54,-0.84 1.27,-2.72 1.54,-3.39 1.34,-3.36 2,-6.51 4.11,-9.56 3.97,-5.73 12.03,-7.52 18.58,-6.53 7.83,1.18 14.33,6.2 15.7,14.3 0.13,0.79 0.17,1.46 0.2,2.13 1.44,0.26 2.9,0.34 4.39,0.7 3.05,0.75 5.65,2.21 8.05,4.22 1.95,1.64 3.81,4.34 5.08,7.19 0.46,-0.48 0.87,-0.9 1.17,-1.15 1.82,-1.53 4.79,-2.8 6.1,-3.99 0.58,-0.77 1.52,-3.49 1.97,-4.5 1.61,-3.53 3.69,-6.58 6.33,-9.42 0.83,-0.9 1.58,-1.83 2.46,-2.7 8.54,-8.42 19.42,-14.24 31.62,-14.32 5.31,-0.04 11.13,2.5 14.26,6.93 0.21,-0.15 0.43,-0.31 0.67,-0.49 4.36,-3.23 7.96,-3.86 13.37,-3.9 3.86,-0.03 9.05,1.6 12.09,3.97 1.3,1.01 2.89,2.5 3.9,3.79 0.61,0.78 1.31,1.94 1.91,3.11z"/>
  <path class="fil1" d="M440.92 49.61c-0.05,-5.81 6.57,-7.44 1.88,-19.72 -2.32,-6.08 0.21,-17.68 -15.24,-23.37 -0.15,-0.06 -12.21,-2.63 -12.37,-2.63 -9.43,0.07 -15.44,5.95 -18,12.51 -1.62,4.17 -2.64,14.58 -3.86,16.84 -1.34,2.46 -1.57,0.96 -4,0.98 -5.52,0.04 -5.78,1.12 -9.42,1.44 -5.64,-7.83 -10.34,-9.52 -21.1,-9.44 -0.35,-1.21 -1.62,-3.58 -2.41,-4.59 -0.7,-0.91 -2.2,-2.32 -3.22,-3.11 -2.02,-1.57 -6.28,-3.17 -9.68,-3.15 -11.11,0.08 -9.75,3.99 -15.91,5.59 -1.14,-4.49 -6.53,-8.18 -12.39,-8.13 -11.59,0.08 -21.51,5.9 -28.92,13.2 -0.88,0.87 -1.45,1.62 -2.33,2.57 -5.97,6.44 -6.39,11.41 -8.04,13.61 -0.84,1.13 -4.99,3.2 -6.71,4.64 -2.42,2.04 -3.27,4.02 -5.9,4.7 -0.12,-3.78 -3.07,-8.83 -5.35,-10.75 -4.9,-4.12 -8.57,-3.6 -11.42,-4.24 -3.39,-0.76 -1.87,-1.16 -2.54,-5.15 -2.24,-13.25 -21.67,-14.27 -27.26,-6.21 -1.82,2.63 -2.41,5.57 -3.69,8.79 -2.73,6.85 -3.16,5.35 -6.66,6.05 -2.22,0.44 -3.2,0.7 -5.01,1.46 -9.24,3.89 -3.44,-1.15 -12.85,-1.08l-10.88 0.08c-6.47,0.05 -9.94,3.5 -12.3,3.51 -2.5,0.02 -4.19,-2.73 -10.86,-2.69 -4.36,0.03 -8.73,0.09 -13.09,0.12 -1.36,-14.19 -26.62,-12.96 -26.83,0.19 -4,0 -0.64,1.24 -3,-1.93 -2.07,-2.77 -3.49,-4.6 -8.01,-5.51 -8.08,-1.64 -8.99,1.99 -14.41,2.14 -0.18,-5.65 -5.58,-9.94 -10.58,-11.27 -9.01,-2.4 -12.62,2.34 -16.31,3.23 -7.01,-4.36 -10.07,-6.36 -19.66,-6.38 -14.59,-0.02 -26.71,8.27 -32.96,19.27 -5.09,8.95 -7.45,17.32 -4.3,27.26 1.39,4.38 -0.75,3.28 -0.72,6.83 0.19,23.89 17.63,29.3 34.49,20.55 6.32,-3.28 6.83,-4.75 10.58,-7.16 2.5,0.91 3.38,2.06 6.04,3.18 6.49,2.74 10.53,1.3 16.02,0.36 2.52,-0.43 4.41,-0.14 6.89,-0.39 4.71,-0.49 7.3,-2.54 10.93,-3.42 12.28,7.65 16.45,-0.08 23.95,3.26 -0.12,2.34 -0.71,2.47 -0.69,4.11 0.1,12.39 8.03,16.86 20.42,14.93 0.04,5.21 -3.11,9.41 -3.51,14.41 5.01,-0.04 11.81,0.28 16.6,-0.19 12.5,-1.23 12.07,0.67 12.37,-3.67 5.26,1 5.18,4.82 16.47,2.66 4.76,-0.91 13.68,-0.58 19.8,-0.63 0.55,-2.28 0.6,-2.72 2.14,-4.13 2.37,0.58 3.21,1.74 5.21,2.6 8.7,3.73 15.67,-0.69 18.01,-0.7 5.03,-0.04 -1.01,3.19 15.85,1 4.23,-0.55 3.86,0.23 7.36,0.2 4.1,-0.03 3.46,-0.71 5.8,-0.73l15.55 0.24c6.38,-1.09 9.25,-3.52 13.4,-7.3 3.31,2.06 4.25,4.63 9.03,5.84 7.52,1.89 7.05,-0.47 12.76,-0.51 25.08,-0.17 17.84,-2.3 30.16,6.3 3.26,2.27 5.99,4.52 9.09,6.45l12.75 -12.67c2.83,-2.18 2.31,-0.52 6.73,-0.48 -0.27,3.42 -1.79,3.57 -1.04,7.15 2,9.51 10.02,9.23 16.4,9.19 4.73,-0.03 7.66,1.12 12.35,1.27 11.1,0.36 36.12,2.94 44.24,-5.71 7.14,-7.6 7.06,-19.47 6.94,-29.59 -0.04,-3.35 0.7,-5.65 0.68,-8.21l-0.1 -13.02c-0.05,-6.01 -2.15,-2.41 1.19,-8.43 3.89,-7.01 1.53,-15.07 1.47,-22.42z"/>
  <path class="fil2" d="M237.34 72.95c-0.83,0.42 -0.61,0.26 -1.39,0.74l-0.77 0.64c-1.62,-0.8 -2.19,-1.13 -3.75,-2.05l0.8 -4.09 2.17 -0.02c0.61,2.09 1.8,3.19 2.94,4.78zm-171.89 -4.28c5.03,-9.14 13.35,-14.89 7.49,-1.19 -1.83,4.29 -4.33,5.2 -7.49,1.19zm173.23 -9.43c-0.03,-3.31 2.25,-5.5 5.76,-5.52 7.63,-0.05 1.93,11.83 -2.06,14.4 -3.24,-2.02 -3.66,-4.88 -3.69,-8.88zm-102.85 15.79c-0.05,-5.79 5.52,-15.18 8.04,-17.04 1.69,-1.25 4.86,-2.31 4.88,0.51 0.02,2.74 -5.79,11.41 -8.13,14.19 -1.38,1.64 -2.14,2.11 -4.79,2.34zm32.62 -0.91c-0.08,-10.82 9.42,-20.63 12.26,-17.98 1.41,1.32 -0.65,4.09 -1.36,5.68 -1.62,3.67 -6.46,11.92 -10.9,12.3zm31.89 -2.28c-0.03,-4.41 4.81,-12.73 7.24,-15.02 2.03,-1.91 2,-1.49 5.68,-1.51 -0.55,6.8 -12.87,23.71 -12.92,16.53zm16.51 -21.35c-5.25,-0.07 -13.01,-4.09 -21.2,9.51 -1.47,2.45 -2.25,5.44 -3.61,7.52 -1.52,2.31 -3.94,4.44 -6.92,5.12 -0.06,-7.63 6.44,-10.45 6.38,-19.23 -0.04,-4.64 -7.57,-2.14 -9.25,-2.19l-5.99 -0.44c-9.17,0.06 -16,16.95 -17.22,18.66 -1.47,2.07 -4.33,4.14 -7.26,4.81l7.83 -19.24c-0.02,-1.94 -3.06,-4.09 -5.11,-4.08 -1.73,0.01 -1.87,0.96 -3.7,1.12 -3.81,0.35 -10.4,-4.13 -19.58,9.85 -1.97,3 -4.1,12 -10.62,12.55 -0.03,-4.2 1.45,-5.58 3.08,-8.69 3.73,-7.09 6.38,-13.3 -2.53,-13.23 -2.69,0.02 -1.21,0.71 -3.58,5.51 -2.9,5.9 -5.92,15.93 -12.93,16.53 -0.03,-4.34 1.5,-5.53 3.08,-8.69 3.71,-7.42 6.55,-13.1 -4.71,-13.91l-0.54 -7.55c-6.16,-1.16 -8.92,2.45 -8.9,6.25 0.05,6.29 7.17,2.04 -4.73,17.36 -2.53,3.26 -5.61,7.94 -11.03,8.1 0.51,-2.13 0.6,-1.74 1.55,-3.31 2.76,-4.59 7.59,-14.67 0.94,-18.4 -2.34,-1.31 -3.73,-0.89 -7.02,-0.86 0.34,-4.2 5.72,-10.17 5.68,-15.11 -0.01,-1.01 -4.99,-8.57 -8.53,-0.46 -5.42,12.42 -15.92,27.05 -15.84,37.63 0.06,7.19 7.15,7.49 11.66,7.45 2.9,-0.02 2.29,-0.92 5.15,-1.33 11.93,-1.7 7.8,3.62 20.69,-11.34 1.82,-2.11 3.89,-5.43 5.92,-6.73 -0.93,3.92 -3.56,8.71 -3.52,13.04 0.02,2.39 3.32,5.46 5.84,5.44 4.74,-0.03 7.26,-2.34 10.12,-4.18 2.5,3.48 3.75,3.4 8,3.37 3.41,-0.02 5.18,-2.16 7.22,-3.48 2.94,0.72 3.07,2.48 7.28,3.37 -0.87,3.19 -3.95,4.32 -5.88,6.77 -11.32,14.38 6.88,20.13 16.58,1.15 2.04,-4 1.61,-4.83 5.51,-7.12 6.64,-3.89 -1.35,-6.67 18.92,-3.99 4.37,0.58 3.34,-0.76 6.17,-2.58 3.7,2.31 1.62,4.1 8.01,4.06 3.97,-0.03 5.44,-2.65 8.67,-3.49 5.42,3.37 7.14,5.38 12.98,0.53 1.7,-1.41 1.51,-1.52 3.68,-2.01 2.72,9.35 11.59,-0.44 16.39,0.31 3.69,0.58 2.26,2.99 10.47,2.93 2.92,-0.02 4.93,-2.09 5.78,-2.1 5.04,-0.03 8.64,3.24 15.65,-6.59 1.18,-1.66 2.69,-3.82 -0.51,-3.79 -2.75,0.02 -3.16,3.76 -7.94,4.85 1.01,-4.22 9.83,-14.97 3.19,-21.7 -3.72,-3.77 -11.41,-2.57 -15.49,2.09 -2.16,2.46 -1.75,3.54 -4.22,5.59 -5.3,4.38 -3.53,3.29 -6.7,10.08 -0.9,1.92 -5.53,7.1 -6.88,4.53 -1.59,-3.03 16.1,-30.46 16.05,-36.12 -0.01,-1.85 -0.36,-1.89 -0.75,-3.42 -7.26,-3.23 -6.42,0.28 -9.72,6.59 -1.56,2.99 -5.46,10.09 -6.08,12.7z"/>
  <path class="fil2" d="M295.91 51.99c-0.1,-3.18 -0.74,-2.44 -0.78,-6.85 -0.06,-7.26 7.17,-15.06 13.65,-16.54 -0.09,5.75 -10.05,24.1 -12.97,28.73 -2.84,4.52 -5.01,8.62 -8.35,12.63 -15.7,18.83 -11.32,0.15 -7.12,-6.63 3.71,-6 3.82,-5.17 6.16,-8.54 -4.35,-6.04 -10.54,-1.2 -13.98,3.31 -7.65,10.04 -8.02,27.89 8.1,23.21 3.55,-1.03 7.26,-3.3 9.5,-5.46l5.54 -5.04c6.6,-6.96 13.13,-18.47 14.74,-19.6 0.08,10.31 -5.25,16.5 -5.63,21.28 1.72,0.85 2.97,1.57 5.09,2.02 4.03,-2.59 18.33,-28.47 22.24,-30.99 -0.22,2.76 -0.33,1.56 -1.49,4.05 -0.65,1.38 -1.11,2.74 -1.85,4.4l-8.25 16.8c-0.96,1.94 -6.67,14.62 -1.14,14.58 7.78,-0.06 4.96,-2.34 9.19,-11.16l13.71 -27.36c4.22,-8.11 12.04,-19.27 -0.87,-19.18 -7.72,0.05 -15.33,22 -22.27,26.88 -0.03,-3.24 -0.11,-5.5 0.34,-8.53 0.72,-4.88 2.35,-20.95 -4.19,-20.9 -23.5,0.16 -40.89,33.81 -19.35,28.91z"/>
  <path class="fil2" d="M21.11 55.28c0.07,-4.45 3.42,-9.75 5.86,-12.23 5.33,-5.42 15.82,-9.11 20.24,-4.51 6.21,6.47 -7.75,32.13 -13.76,39.11 -2.44,2.83 -4.53,6.67 -9.21,7.07 -3.16,-4.39 -2.04,-4.36 -0.8,-9.59 5.26,-0.15 9.72,-3.71 10.09,-8.29 -2.47,-0.18 -5.8,-0.29 -5.82,-2.7 -0.01,-1.57 5.47,-10.67 6.62,-12.2 5.48,-7.26 7.64,-7.36 7.7,-11.2 -13.69,-2.91 -14.79,12.94 -20.92,14.53zm-6.49 4.84c0.03,3.81 1.19,5.54 1.7,8.54 0.4,2.33 -4.71,20.94 7.96,20.85 27.01,-0.19 52.61,-57.92 17.68,-57.67 -14.8,0.1 -27.44,14.21 -27.33,28.28z"/>
  <path class="fil2" d="M346.81 69.45c-3.18,-4.42 2.81,-13.73 6.53,-17.06 2.23,-1.99 2.83,-2.07 5.65,-1.52 -0.47,5.86 -8.04,15.92 -12.18,18.58zm35.44 -11.89c0.34,-4.19 4.04,-6.67 7.19,-8.27 -0.33,4.17 -3.3,7.39 -7.19,8.27zm-26.92 -12.14c-14.07,0.1 -25.95,29.64 -12.1,29.54 4.73,-0.03 4.96,-2.48 8.66,-4.86 2.3,1.57 2.46,4.09 6.56,4.06 0.1,0 10.33,-4.66 11.94,-4.44 1.06,0.15 3.4,1.15 9.07,1.55l0.02 2.05c6.67,-0.05 7.9,-0.47 11.7,-3.39 2.99,-2.3 5.64,-4.04 5.6,-9.06 -3.12,0.27 -2.54,0.73 -4.52,2.59 -3.62,3.4 -13.52,8.05 -13.57,1.65 -0.03,-3.98 4.1,0.13 12.17,-8.4 13.19,-13.94 -7.8,-17.54 -17.5,-2.69 -3.08,4.72 -3.96,13.05 -11.33,13.25l7.12 -17.18c-0.03,-3.54 -1.89,-5.49 -4.98,-5.2 -1.78,0.17 -1.44,0.84 -3.72,0.97 -1.52,0.08 -2.35,-0.48 -5.11,-0.46z"/>
  <path class="fil3" d="M401.84 90.53c2.05,13.53 6.28,9.12 6.89,15.48 -0.28,0.14 -15.78,5.73 -16.84,3.21 -0.74,-1.76 9.42,-4.11 8.58,-11.99 -0.3,-2.86 -10.59,-9.39 1.37,-6.7zm5.86 -23.56c-0.03,-3.58 -3.59,-6.14 -3.66,-6.2l-2.03 -2.27c-0.06,-0.05 -0.23,-0.15 -0.29,-0.2 -2.67,-2.34 -2.44,-7.18 -1.41,-10.42l5.66 -22.63c3.22,-16.07 10.09,-10.31 13.05,-9.85 2.22,0.34 6.32,-0.01 9.73,3.79 3.92,4.35 2.24,5.7 -0.31,12.71 2.33,1.45 0.52,1.12 3.64,1.34 0.06,7.07 0.47,2.02 1.98,5.24 -4.04,4.58 -4.29,12.73 -3.44,18.25 0.45,2.92 0.93,9.46 -1.49,11.84 -2.88,2.83 -3.29,0.41 -3.27,3.08 0.02,2.15 1.01,3.34 1.39,5.57 1.87,11.1 0.18,6.22 0.18,13.57 0,8.33 0.24,21.68 -2.13,29.3 -1.44,4.61 -4.35,7.08 -10.61,7.13 -12.24,0.09 -22.42,0.89 -34.21,-1.04 -5.63,-0.92 -4.14,-0.06 -9.31,-0.03 -9.54,0.07 8.94,-12.54 10.58,-13.95 1.93,-1.65 2.9,-3.53 4.5,-4.66 7.45,1.82 -2.06,6.57 16.02,2.67 18.41,-3.96 2.05,-9.64 2,-15.82 -0.15,-19.12 1.7,-10.39 2.68,-17.23 0.49,-3.43 0.76,-6.65 0.73,-10.2zm23.64 -36.48c1.25,-5.26 2.97,-8.32 -1.15,-12.71 -1.39,-1.48 -2.48,-1.97 -4.14,-2.92 -3.05,-1.74 -1.63,-1.05 -5.67,-1.47 -3.39,-0.35 -6.86,-3.07 -11.41,0.37 -2.71,2.04 -4.24,6.47 -4.85,9.77 -0.54,2.94 -0.68,5.38 -1.33,8.27 -1.74,7.75 -7.04,18.44 -5.2,26.91 0.77,3.52 0.61,-0.4 1.27,3.59 0.62,3.69 -1.25,6.07 1.59,7.46 0.23,-2.92 1.17,-3.25 1.4,-6.18 4.82,1.22 3.71,5.84 3.2,9.77 -1.25,9.64 -0.03,2.49 -3.04,10.78 -4.17,0.03 -6.27,0.36 -8.52,2.27 -7.51,6.38 0.29,12.84 0.4,13.19 1.13,3.87 -2.9,2.48 -5.52,2.44l-2.58 3.04c-5.36,5.05 -3.39,4.45 -10.95,9.55 -2.95,1.99 -4.94,3.51 -6.77,6.59 -5.85,9.85 7.44,6.26 7.44,6.26 2.45,-0.02 10.79,1.98 19.59,1.92 23.32,-0.16 30.49,2.54 33.69,-14.88 1.03,-5.61 1.67,-30.03 0.7,-36.03 -0.42,-2.61 -1.11,-3.63 -1.36,-6.18 10.61,-8.72 0.71,-13.82 5.19,-27.7 2.12,-6.59 4.36,-5.68 0.89,-11.37 -1.17,-1.92 -1.3,-2.21 -2.9,-2.75z"/>
  <path class="fil3" d="M292.66 99.29c-0.02,-2.98 1.33,-6.02 2.41,-8.64 0.06,-0.16 0.14,-0.34 0.2,-0.49 1.12,-2.71 1.99,-5.57 4.82,-7.2 9.18,-5.3 0.81,21.75 -5.21,21.79 -2.75,0.02 -2.19,-1.58 -2.22,-5.47zm-7.22 3.48c0.1,12.69 17.19,11.33 23.24,-8.97 0.36,-1.19 2.01,-7.78 2,-9.02 -0.09,-11.84 -13.1,-10.77 -20.06,1.73 -1.81,3.25 -5.22,11.98 -5.18,16.26z"/>
  <path class="fil3" d="M156.3 94.76c2.6,-5.21 0.69,-7.31 3.26,-8.52 1.42,-0.67 4.67,1.15 1.98,5.89 -1.17,2.06 -2.1,2.53 -5.24,2.62zm-12.17 19.95l5.8 -0.04 4.24 -13.73c3.87,-0.11 8.31,-1.81 10.34,-3.98 3.87,-4.1 9.05,-16.71 -1.07,-16.64 -12.96,0.09 -6.82,-3.14 -18.09,29.4 -0.61,1.77 -1.06,3 -1.22,4.99z"/>
  <path class="fil3" d="M211.37 89.58c0.07,8.84 1.14,5.84 4.2,10.53 0.8,1.23 2.64,8.3 -8.43,5.94 -0.57,2.4 -1.43,2.32 -1.41,4.81 0.04,5.18 13.3,2.45 16.44,-7.82 3.84,-12.54 -10.89,-9.08 -1.43,-19 3.48,0.25 1.72,0.86 5.09,1.33 1.32,-5.53 2.83,-6.87 -3.68,-6.83 -4.86,0.03 -10.82,6.84 -10.79,11.04z"/>
  <path class="fil3" d="M223.83 106.62c0.04,5.46 0.8,6.16 6.57,6.12 7.52,-0.05 12.14,-17.3 13.6,-23.39 -3.1,0.02 -5.32,-0.62 -6.66,1.28 -1.03,1.45 -0.3,0.73 -0.81,2.65 -0.33,1.27 -0.6,1.91 -1,3.15 -0.75,2.36 -1.06,3.44 -1.83,5.78 -0.94,2.84 -0.63,3.66 -3.34,4.37 0.09,-5.63 4.26,-11.53 4.22,-17.16 -5.95,0.04 -5.45,-0.32 -7.67,7.14 -0.67,2.25 -3.08,8.28 -3.07,10.06z"/>
  <path class="fil3" d="M357.95 102.94c0.31,-3.89 1.46,-11.27 6.43,-11.69 -0.04,2.34 -0.93,5.02 -1.7,7.26 -1.93,5.64 -2.84,4.38 -4.74,4.43zm-5.79 1.41c0.04,4.89 6.76,7.13 12.22,1.19 2.08,-2.26 2.63,-3.52 3.91,-6.58 1,-2.4 2.18,-4.58 2.34,-7.91 0.65,-13.24 -18.62,-5.4 -18.48,13.29z"/>
  <path class="fil3" d="M171.63 108.35c-0.04,-5.14 1.7,-10.26 4.98,-12.37 0.96,1.8 0.72,-0.57 0.74,2.05 0.03,3.64 -1.5,9.96 -5.72,10.32zm-5.77 4.15c2.58,1.61 1.16,2.05 5.09,2.02 4.21,-0.03 7.45,-3.66 9.09,-6.5 3.88,-6.71 5.51,-12.13 1.6,-17.56 -7.72,-0.24 -9.99,1.51 -12.66,6.58 -2.53,4.81 -3.21,8.62 -3.13,15.45z"/>
  <path class="fil3" d="M247.73 103.71c-0.03,-3.86 1.44,-8.58 5.73,-8.95 0.59,2.52 0.64,0.88 -0.03,3.33 -0.2,0.73 -0.76,2.77 -1.14,3.75 -2.31,5.94 -2.96,4.47 -4.55,4.61l-0.02 -2.74zm-6.5 3.47c0.06,8.12 4.93,3.31 7.55,3.88 0.66,0.15 1.62,2.08 4.57,0.14 1.98,-1.35 3.45,-8.1 4.22,-10.58 1.08,-3.47 3.05,-8.09 3.1,-11.39 -8.19,0.06 -2.23,1.93 -7.22,0.05 -7.66,-2.89 -12.24,15.14 -12.21,17.9z"/>
  <path class="fil3" d="M327.5 103.84c-0.03,-4.37 1.03,-10.52 5.71,-11.69 0.78,1.29 0.73,0.12 0.74,1.36 0.03,3.78 -2.15,9.95 -6.45,10.32zm-5.81 -0.64c0.04,5.59 -0.58,6.39 3.51,6.12 9.25,-0.63 8.17,2 12.3,-11.11 0.78,-2.46 1.48,-3.77 2.17,-6.16 1.33,-4.6 2.44,-5.43 -1.44,-5.4 -4.03,0.03 -0.23,2.45 -6.53,-0.64 -3.14,1.6 -5.07,3.44 -6.68,6.7 -1.16,2.34 -3.36,7.57 -3.33,10.5z"/>
  <path class="fil3" d="M378.18 93.89c0.29,-3.55 1,-3.5 3.44,-4.68l1.6 1.22c-0.43,1.8 -0.64,2.02 -1.42,3.44l-1.45 0.01 -2.18 0.02zm-7.93 6.22c0.02,2.53 -1,11.44 7.65,7.86 2.92,-1.21 5.87,-3.95 6.13,-7.27 -9.18,0.06 -2.57,2.2 -7.95,2.8 -1.54,-1.72 -0.22,-3.32 -0.04,-5.48l9.43 -0.07c1.75,-3.5 5.23,-14.9 -3.47,-13.52 -6.97,1.11 -11.77,12.8 -11.75,15.68z"/>
  <path class="fil3" d="M262.19 97.44c0.03,3.87 3.99,3.12 4.41,7.51 -5.14,3.3 -2.9,-1.36 -6.78,1.86 -7.29,6.04 12.67,9.58 12.54,-6.69 -0.02,-3.05 -3.25,-1.7 -3.67,-6.14 2.87,-1.33 6.97,0.93 7.21,-4.85 -9.85,-4.38 -13.73,5.99 -13.71,8.32z"/>
  <path class="fil3" d="M349.25 103.69c-2.09,-0.8 -6.14,0.65 -1.66,-9.03 1.36,-2.93 1.78,-3.31 5.91,-3.34 0.53,-2.22 1.21,-3.01 1.41,-5.49 -10.99,-4.11 -20.43,20.07 -12.88,23.46 1.47,0.66 3.6,0.36 5.03,-0.8 1.72,-1.4 1.36,-2.53 2.18,-4.81z"/>
  <path class="fil3" d="M320.12 88.13c-7.26,-4.52 -7.11,1.85 -9.84,10.53 -0.82,2.61 -1.5,4.63 -2.22,6.85 -1.28,3.92 -2.67,5.89 4.49,3.91 1.65,-3.92 2.54,-8.33 4.21,-12.84 3.02,-8.11 7.15,-0.99 7.69,-10.54 -3.25,0.28 -2.04,0.55 -4.33,2.09z"/>
  <path class="fil3" d="M191.79 90.4c-1.96,0.01 -2,0.34 -3.62,0.71l-6.49 21.08c-0.04,1.32 -1.53,1.58 2.32,1.56 4.48,-0.03 4.07,-4.97 6.85,-12.67 3.3,-9.15 7.38,-1.39 8.19,-11.42 -2.21,0.5 -2.57,1.22 -3.48,1.5 -3.63,1.14 -0.19,-0.79 -3.76,-0.77z"/>
  <path class="fil2" d="M354.58 42.68c7.47,-3.8 4.85,-0.03 10.15,-0.07 2.44,-0.02 4.79,-1.3 5.39,-3.28 1.05,-3.44 -2.48,-1.54 -4.71,-1.52 -0,0 -13.09,-4.82 -10.84,4.87z"/>
  <path class="fil3" d="M365.02 79.6c2.41,-0.02 1.52,1.36 2.91,1.35 4.03,-0.03 6.55,-2.96 6.47,-6.9 -4.12,0.35 -2.73,2.07 -4.33,2.09 -3.54,0.02 -3.88,-3.97 -8.21,0.52 -1,1.03 -2.53,2.74 -1.36,3.83 1.68,1.58 2.18,-0.88 4.53,-0.9z"/>
  <path class="fil2" d="M124.72 44.28c0.03,3.72 2.17,3.41 5.1,3.39 1.84,-3.35 1.92,-2.71 -0.05,-6.17 -1.9,0.01 -5.08,-0.32 -5.05,2.78z"/>
  <path class="fil3" d="M336.31 118.17c1.07,0.45 1.14,0.87 2.52,0.32l4.93 -5.86c-4,-2.33 -6.99,3.87 -7.45,5.53z"/>
  <path class="fil3" d="M424.23 48.36c-0.44,-4.6 -4.04,-5.6 -4.43,-9.56 -5.77,2.33 2.82,8.56 4.43,9.56z"/>
 </g>
</svg>
