<?xml version="1.0" encoding="UTF-8"?>
<!DOCTYPE svg PUBLIC "-//W3C//DTD SVG 1.1//EN" "http://www.w3.org/Graphics/SVG/1.1/DTD/svg11.dtd">
<!-- Creator: CorelDRAW 2020 (64 Bit) -->
<svg xmlns="http://www.w3.org/2000/svg" xml:space="preserve" width="65.3411mm" height="19.296mm" version="1.1" style="shape-rendering:geometricPrecision; text-rendering:geometricPrecision; image-rendering:optimizeQuality; fill-rule:evenodd; clip-rule:evenodd"
viewBox="0 0 1685.87 497.86"
 xmlns:xlink="http://www.w3.org/1999/xlink"
 xmlns:xodm="http://www.corel.com/coreldraw/odm/2003">
 <defs>
  <style type="text/css">
   <![CDATA[
    .fil0 {fill:#FEFEFE}
    .fil2 {fill:#FEFEFE}
    .fil1 {fill:black}
    .fil3 {fill:#FEFEFE;fill-rule:nonzero}
    .fil6 {fill:#00CCFF;fill-rule:nonzero}
    .fil4 {fill:red;fill-rule:nonzero}
    .fil5 {fill:yellow;fill-rule:nonzero}
   ]]>
  </style>
 </defs>
 <g id="Camada_x0020_1">
  <metadata id="CorelCorpID_0Corel-Layer"/>
  <path class="fil0" d="M377.95 444.75c-2.72,0.74 -5.53,1.11 -8.37,1.1 -9.61,-0.04 -21.03,1.11 -30.61,-1.87 -11.01,2.88 -27.98,2.84 -39.03,-0.11 -11.51,3.72 -24.27,0.86 -35.97,0.82 -5.25,-0.02 -10.73,0.78 -16.01,1.03 -8.21,0.4 -16.18,-0.23 -23.28,-3.29 -5.34,4.04 -11.69,6.33 -18.93,6.45l-16 2.49c-0.26,0.04 -0.48,0.07 -0.74,0.09l-41.4 4c-0.12,0.01 -0.23,0.02 -0.35,0.03 -4.71,0.33 -10.78,-0.22 -15.28,0.57 -6.07,1.35 -9.95,1.14 -15.56,-0.32 -17.71,1.58 -32.79,-5.44 -39.71,-22.67 -3.17,-7.89 -3.74,-14.93 -3.81,-22.94 -2.14,-4.24 -3.53,-8.84 -4.21,-13.56 -1.35,-9.51 -1.11,-15.7 0.9,-24.48 -2.93,-20.53 -3.35,-31.73 8.03,-50.73 -11.41,-3.5 -21.79,-13.1 -28.29,-25.67 -10.86,-21.01 -14.32,-41.27 -13.73,-64.31 -6.27,-15.76 -7.05,-28.79 -3.93,-44.65 -26.65,-3.13 -38.13,-34.88 -28.06,-59.93 4.93,-12.28 11.57,-18.01 21.1,-23.53 0.94,-26.42 17.92,-45.15 36.65,-63.17 32.83,-31.58 101.7,-46.47 145.67,-37.53 14.11,2.87 24.54,9.2 31.57,21.96 0.98,1.77 1.83,3.58 2.66,5.4 2.22,0.15 4.44,0.54 6.61,1.18 15.03,4.38 22.66,17.65 25.17,31.95 17.78,2.11 32.74,10.72 43,24.39 9.04,-11.34 21.33,-19.69 36.12,-23.95 16.92,-4.88 36.15,-3.86 52.2,3.75 13.65,-6.89 31.88,-4.5 46.47,-4.74 1.87,-0.03 3.74,0.1 5.58,0.38 1.81,-0.35 3.65,-0.54 5.49,-0.57 14.02,-0.23 31.08,-3.04 44.65,2.36 13.76,-13.64 20.42,-10.93 44.59,-11.33 21.34,-0.36 30.68,18.09 39.43,34.43l25.03 -0.04c7.02,-1.5 11.3,-3.18 19.21,-3.06 9.91,0.15 18.71,3.32 26.26,8.87 15.01,-8.77 32.97,-12.2 49.86,-8.7 2.49,-8.55 6.69,-16.45 14.4,-21.53 12.87,-8.48 34.47,-5.95 49.46,-6.19 16.07,-0.27 28.05,10.87 33.04,24.89 23.92,-3.25 46.83,5.79 61,24.33 3.11,-3.73 6.71,-7.22 11,-10.83 0.87,-1.93 1.89,-3.79 3.04,-5.57 7.23,-11.14 18.02,-31.77 29.9,-37.97 10.67,-5.57 29.53,-3.99 41.52,-4.18 1.82,-0.03 3.64,0.11 5.43,0.4 14.4,2.38 25.31,14.45 28.93,28.19 1.39,5.28 1.7,10.51 1.08,15.56 17.54,-13.3 40.46,-18.49 63.42,-10.81 9.04,3.03 16.95,7.85 23.5,14.08 5.13,-9.31 13.52,-15.88 27.82,-16.11l33.7 -0c4.84,-1.27 8.26,-2.58 13.71,-3.05 7.6,-0.65 14.91,0.61 21.75,3.51 16.22,-6.96 34.63,-5.38 48.92,4.64 15.66,-9.2 35.16,-12.41 52.83,-8.3 4.27,-15.05 12.97,-27.34 32.23,-27.66l31.67 -0.53c1.87,-0.03 3.75,0.1 5.6,0.38 1.8,-0.35 3.63,-0.54 5.47,-0.57 20.73,-0.36 44.24,-5.67 58.43,14.08 2.97,4.13 5.11,8.67 6.41,13.48 4.02,1.49 7.79,3.49 11.28,5.96 19.69,-11.88 45.44,-13.88 66.25,-4.03 13.5,-7.36 31.33,-4.91 46.2,-5.15 1.55,-0.03 3.11,0.06 4.65,0.25 4.43,-1.52 7.96,-2.68 13.29,-2.87 11.28,-0.41 20.87,4.71 27.69,13.58 7.05,9.17 9.72,20.46 8.27,31.89l-5.58 43.9c-1.74,13.68 -9.88,26.27 -22.18,31.44l-2.47 19.31 7.31 -0.27c4.14,-2.78 8.82,-4.56 13.86,-5.24 31.3,-4.19 64.34,17.16 65.53,50.2 0.12,3.31 -0.13,6.61 -0.75,9.84l7.51 19.71c8.19,8.04 12.26,14.43 13.47,27.07l1.07 11.17c4.91,6.6 7.49,14.42 7.99,22.8 0.24,4.06 -0.01,8.11 -0.84,12.08 0.23,4.53 0.2,9.08 -0.15,13.61l2.95 8.47c4.27,8.99 6.55,18.8 4.64,28.73 -0.98,5.11 -2.48,7.96 -4.49,11.91 0.46,10.62 -1.19,20.98 -6.24,30.54 -15.75,29.86 -57.17,28.51 -85.97,33.67 -7.6,1.36 -15.05,-0.12 -21.43,-3.77 -38.83,28.82 -98.34,23.28 -124.09,-19.04 -12.43,0.72 -25.31,-5.2 -37.04,-6.93 -4.24,-0.63 -8.86,-0.56 -13.16,-0.83 -17.4,-1.08 -30.05,-7.27 -36.2,-22.61 -10.92,4.14 -22.68,3.39 -33.04,-2.45 -8.43,2.34 -17.13,1.38 -25.04,-2.28 -7.92,4.9 -17.37,6.42 -26.51,3.9 -8.79,3.32 -18.19,3 -26.75,-0.56 -8.98,5.17 -19.54,5.75 -29.06,1.83 -11.31,8.78 -25.43,12.04 -38.65,7.41 -14.99,18.67 -37.6,33.7 -62.15,27.12 -14.75,-3.96 -24.73,-14.4 -30.99,-27.15 -15.83,14.49 -37.31,20.03 -57.12,3.76 -1.23,-0.23 -2.34,-0.5 -3.4,-0.81 -8.56,5.14 -18.4,6.53 -27.94,3.64 -9.26,5.58 -19.59,7.24 -29.8,4.81 -6.49,8.78 -16.07,14.97 -27.43,15.89 -17.71,1.43 -30.7,-9.97 -37.88,-24.67 -0.21,-0.04 -0.41,-0.09 -0.62,-0.13 -0.21,0.63 -0.43,1.28 -0.68,1.95 -4.58,12.25 -13.71,20.65 -26.71,23.22 -21.11,4.16 -35.31,-9.15 -42.51,-26.4 -21.39,12.56 -49.38,12.91 -70.16,-1.1 -23,14.82 -54.22,13.76 -74.7,-4.22 -22.15,15.71 -47.46,12.63 -74.8,12.52 -9.67,-0.04 -17.9,-4.16 -24.09,-10.94l-22.09 -0.42c-6.73,4.45 -12.38,7.75 -20.87,10.27 -12.45,3.69 -24.76,3.3 -36.38,-0.69 -25.12,54.57 -99.39,55.85 -117.15,0.92l-3.56 -0.01c-2.91,-0.01 -5.76,-0.4 -8.52,-1.16z"/>
  <path class="fil1" d="M837.71 416.73c-19.51,24.01 -56.86,26.03 -77.37,5.48 -20.33,19.1 -56.48,19.47 -73.8,-5.77 -21.21,22.35 -49.73,17.69 -75.87,17.59 -7.27,-0.03 -13.38,-3.83 -17.78,-10.83l-32.15 -0.6c-2.03,0.78 -28.51,25.12 -60.79,4.84 -15.68,60.32 -90.39,61.45 -99.91,5.77l-13.51 -0.05c-3.04,-0.01 -5.89,-0.68 -8.51,-1.99 -2.59,1.25 -5.42,1.93 -8.38,1.92 -9.18,-0.04 -23.33,1.37 -30.25,-2.76 -6.97,4.01 -32.96,3.95 -39.84,-0.15 -8.84,5.1 -27.75,1.78 -35.52,1.75 -12.84,-0.04 -30.7,5.11 -41.18,-6.07 -4.73,7.15 -10.75,10.38 -18.09,10.27l-16.96 2.64 -41.4 4c-5.21,0.36 -11.96,-0.14 -16.94,0.79 -8.12,1.84 -10.26,-0.98 -12.72,-0.68 -35.34,4.3 -30.75,-34.58 -31.1,-36.14 -2.15,-3.4 -3.66,-7.46 -4.3,-11.98 -2.2,-15.41 1.45,-20.7 1.19,-22.46 -2.65,-18.22 -4.36,-27.38 6.56,-45.24 2.45,-4.52 5.64,-7.79 9.59,-9.82 0.69,-5.86 2.18,-10.91 4.34,-15.49 -0.06,-0.06 -0.12,-0.13 -0.18,-0.2 -12.82,14.7 -31.21,9.44 -42.16,-11.74 -15.82,-30.6 -12.05,-59.51 -12.25,-60.67 -0.45,-2.62 -10.72,-15.88 -2.44,-47.75 -1.63,-2.49 -3.12,-5.05 -4.43,-7.72 -24.99,4.59 -33.8,-22.98 -26.1,-42.15 4.94,-12.31 12.69,-15.81 22.22,-20.83 -2.48,-26.91 15.35,-44.9 32.54,-61.43 30.51,-29.35 95.74,-42.06 134.28,-34.22 21.31,4.33 23.03,16.65 28.95,28.29 14.59,-3.94 28.31,7.6 27.79,32.02 23.96,-1.12 46.27,10.79 54.22,39.83 14.34,-43.63 63.1,-50.62 89.67,-32.92 9.27,-9.71 29.33,-6.75 45.91,-7.03 1.95,-0.03 3.82,0.21 5.61,0.71 1.74,-0.56 3.58,-0.87 5.46,-0.9 17.37,-0.28 37.14,-4.13 46.62,6.09 15.43,-18.02 14.61,-14.6 42.62,-15.07 15.53,-0.26 21.48,16.6 31.69,34.44l33.71 -0.06c4.81,-0.45 25.41,-10.79 43.22,9.27 17.19,-13.91 41.36,-17.9 60.67,-8.15 4.71,-37.04 18.39,-31.14 54.37,-31.73 12.92,-0.21 23.03,12.72 22.62,27.63 27.11,-9.32 60.93,0.57 70.54,36.05 8.23,-22.29 21.19,-28.81 22.32,-30.36 0.77,-2.2 1.81,-4.32 3.09,-6.3 26.42,-40.69 18.1,-35.64 60.93,-36.35 18.56,-0.31 34.63,29.46 10.82,51.18 4.57,5.96 7.95,13.07 9.88,21.15 19.26,-54.55 89.36,-56.06 106.21,-6.91 1.79,-14.1 3.95,-33.78 23.06,-34.09l35.06 -0c3.69,-0.32 17.26,-8.23 34.1,2.01 15.22,-9.15 35.18,-7.84 48.03,6.5 17.52,-14.65 44.34,-17.74 63.35,-7.3 1.81,-14.26 4.84,-31.77 22.81,-32.07l31.67 -0.53c1.95,-0.03 3.83,0.21 5.61,0.72 1.75,-0.56 3.58,-0.87 5.46,-0.9 20.08,-0.34 38.13,-4.76 47.86,8.77 3.41,4.74 5.26,10.22 5.48,16.17 8.14,1.36 15.56,5.25 21.78,12.09 18.76,-16.22 48.28,-18.52 68.05,-5.06 9.28,-10.43 28.39,-7.36 45.39,-7.63 1.82,-0.03 3.59,0.18 5.27,0.62 2.49,-0.21 18.24,-9.99 30.05,5.36 4.81,6.26 6.8,14.07 5.73,22.51l-5.58 43.9c-1.63,12.87 -10.39,22.28 -21.07,22.76l-5.48 42.9 26.44 -0.99c3.1,-2.86 6.81,-4.63 10.97,-5.19 32.97,-4.42 57.2,23.95 49.77,48.25l9.9 25.98c1.87,2.33 10.33,6.67 11.71,21.16l1.44 15.1c4.58,4.81 7.14,11.03 7.58,18.41 0.21,3.61 -0.11,7.03 -0.95,10.23 0.37,5.42 0.32,10.91 -0.26,16.3l4.09 11.77c10.29,21.03 -0.79,30.4 -0.96,33.51 0.79,9.44 -0.23,18.57 -4.6,26.84 -12.25,23.23 -49.91,22.23 -76.94,27.07 -7.35,1.32 -14.39,-1.7 -19.26,-7.85 -33.43,32.51 -96.77,30.45 -117.35,-17.24 -10.3,5.87 -31.14,-3.13 -41.84,-4.71 -14.72,-2.18 -35.67,3.13 -41.16,-21.4l-7.22 -5.34c-10.85,7.79 -23.78,7.91 -34.26,-0.87 -9.25,5.02 -19.45,3.17 -27.79,-3.59 -6.98,8.12 -17.02,10.18 -25.97,5.73 -8.82,5.24 -18.97,4.24 -27.27,-1.96 -8.39,8.87 -20.62,9.02 -29.7,1.13 -11.08,13.14 -27.54,17.14 -40.75,6.82 -29.22,46.3 -76.53,43.3 -84.36,-11.11 -11.2,22.47 -34.17,38.44 -54.47,21.08 -4.39,-3.76 -4.18,-0.24 -12.65,-5.22 -8.21,7.79 -18.5,9.25 -27.91,3.79 -10.43,9.07 -22.5,10.02 -33.93,3.42 -8.98,24.36 -39.95,28.52 -50.76,-5.1 -6.84,0.83 -13.35,-1.94 -18.78,-7.49 -1.09,4.13 0.13,28.2 -20.49,32.27 -17.82,3.51 -30.59,-13.26 -32.63,-36.74z"/>
  <path class="fil2" d="M214.49 57.49c3.08,13.53 4.42,20.35 5.63,35.07 2.34,-1.46 3.58,-3.45 5.29,-5.38 1.75,-1.97 6.33,-10.09 12.86,-17.42 0.84,0.54 0.48,-1.33 0.77,1.96l-0.59 27.68c-1.43,0.89 -2.81,1.87 -4.14,2.92 -5.51,-0.95 -14.24,-3.7 -17.48,-4.45 -5.11,-1.17 -18.7,-4.25 -23.38,-2.63 -5.35,-3.11 -32.31,1.12 -39.74,2.56 -33.87,6.57 -65.73,20.95 -96.26,38.83l-2.38 1.65c-0.69,0.65 -0.63,0.6 -1.05,1.2 -4.82,0.62 -10.2,7.66 -18.86,7.84 -1.27,-6.59 5.51,-8.72 10.09,-11.18 7.09,-3.8 40.63,-20.11 41.73,-23.01 -9.3,0.7 -21.71,1.9 -27.15,-4.87 -1.13,-10.55 4.84,-16.9 9.23,-21.86 4.97,-5.62 9.34,-10.55 15.02,-16 21.65,-20.83 63.51,-29.84 91.72,-30.47 7.78,-0.17 17.62,0.19 25.08,1.71 13.01,2.64 10.2,11.64 13.64,15.85zm-16.28 180.45c2.18,0.11 4.46,1.11 6.43,2.73 0.77,3.38 1.9,6.65 3.38,9.75 0.51,1.06 1.04,2.08 1.62,3.05 -1.09,5.27 -5.82,9.85 -9.58,11.59l-1.84 -27.13zm-93.68 130.83c-0.54,-5.72 -2.58,-7.49 -1.56,-15.6 0.96,-7.62 2.4,-6.88 4.66,-11.21 3.75,-1.19 4.66,-1.51 7.77,1.17 1.98,8.99 -4.79,23.58 -8.79,27.31l-2.09 -1.67zm34.75 -43.78c1.99,-10.93 -1.54,-15.05 -8.92,-6.55 -2.88,3.32 -4.61,5.64 -9.89,6.39 0.02,-13.18 9.49,-19.48 11.93,-22.44 8.02,-2.92 14.28,-2.11 16.06,8.81 2.19,13.54 -6.97,21.52 -9.18,13.79zm-68.22 -95.53c6.59,0.37 11.67,16.02 13.45,22.18 1.68,5.78 6.91,27.58 2.38,30.88 -5.84,4.25 -20.49,-34.04 -15.83,-53.06zm43.53 186.6c-3.94,0.44 -7.61,2.44 -6.97,-5.22 0.48,-5.75 3.5,-6.49 3.81,-9.97 3.23,-3 20.22,-30.67 23.63,-34.05 12.6,11.77 3.4,16.69 -2.64,26.58 -3.47,5.68 -8.58,12.79 -12.89,17.53 -1.54,1.69 -3.65,3.08 -4.95,5.14zm-7.78 -25.58l-3.58 -0.24c-1.03,-7.19 0.33,-9.13 2.73,-13.74 2.72,-4.76 5.45,-8.45 8.09,-13.33 4.07,-7.52 6.37,-9.32 8.34,-12.62 -4.43,-9.35 -4.18,-6.45 -5.63,-9.47l5.72 -0.93 1.65 7.93 4.6 -6.61c1.35,-1.82 0.39,-0.96 2.06,-2.02 2.57,1.27 8.98,8.46 6.12,15.05l-13.27 19.16c-4.8,6.59 -9.06,15.01 -16.82,16.8zm59.52 -38.41c0.94,1.61 8.42,3.9 16.02,7.85l-3.31 8.92c-2.04,-1.58 -3.87,-2.75 -5.16,-3.14 -3.17,-0.96 -6.83,-1 -10.17,-2.03 -10.09,-3.11 -26.44,-13.15 -27.56,-26.07l0.03 -0.73 0.29 -2.06c6.38,-0.48 7.48,4.04 14.73,8.78 3.85,2.52 10.76,7.07 15.13,8.47zm-35.87 -60.34c-0.69,-1.23 -4.94,-3.55 -6.23,-4.45 -16.69,-11.53 -5.28,-14.59 -1.86,-20.05 5.53,-2.51 23.97,-15.32 26.43,-3.9 3.04,14.1 -18.9,8.7 -26.32,9.73 4.22,7.24 21.51,-1.59 26.4,9.01 2.78,6.04 1.12,12.87 -4.38,13.68 -5.44,0.8 -9.65,-2.71 -14.04,-4.02zm74.83 117.47c-0.59,-0.03 -1.26,-0.01 -1.99,0.04l1.29 -3.77c0.41,1.11 0.65,2.35 0.7,3.74zm-35.62 4.29l-24.6 2.38c-5.19,0.36 -16.07,0.14 -20.43,1.37 -0.09,-0.06 -1.12,-0.75 -1.13,-0.75l-0.95 -0.75c1.92,-13.14 32.19,-16.49 41.59,-17.53 1.06,-0.12 2.49,-0.31 4.19,-0.53l-1.32 3.56c-1.19,3.2 -0.97,6.62 0.6,9.57 0.57,1.06 1.26,1.96 2.04,2.67zm-0.02 -19.31c-4.02,0.45 -8.96,-0.6 -15.17,-5.43 -4,-3.11 -16.55,-15.34 -15.66,-26.77 7.62,-4.97 27.71,3.38 39.02,10.12l-8.19 22.07zm-30.64 -188.7c-3.65,7.75 -15.41,9.68 -23.56,12.05 -9.9,2.88 -18.62,5.8 -29.18,6.13 -35.56,1.11 -15.85,-43.8 -15.6,-44.13 5.36,2.39 6.88,7.01 13.39,11.79 22.94,16.84 46.17,10.11 54.95,14.15zm25.62 135.04c-15.76,10.88 -17.24,-13.24 -13.37,-16.21 2.95,-0.66 4.75,0.23 6.75,-2.11l-6.22 0.12c-0.51,-10.62 -1.67,-27.52 1,-36.88l5.07 -1.18 -5.6 -1.47c-2.5,-11.58 -3.37,-27.39 3.77,-33.09 2.81,-1.67 3.85,-2.07 7.27,-1.74 2.97,4.99 0.98,13.8 2.29,19.62 4.15,-0.14 5.12,-0.18 8.13,2.41 1.24,7.26 -3.24,11.43 -5.27,15.19 6,16.95 9.94,15.46 0.71,43.02 -0.64,1.9 -1.37,4.26 -2.14,6.49 -1.11,3.24 -1.98,3.4 -2.41,5.83zm-97.16 -178.68c4.86,15.82 35.36,31.71 51.09,34.74 11.88,2.28 24.35,0.08 35.25,-5.11 9.22,-4.38 22.45,-11.42 25.13,-19.65 4,-12.32 -10.94,-23.12 -16.87,-26.43 -21.87,-12.21 -46.7,-9.27 -69.94,-2.42 -8.69,2.56 -28.53,6.26 -24.66,18.87zm142.68 5.19c-7.72,8.67 -7.47,18.27 -3.44,27.04 -0.37,2.9 -0.75,5.89 -1.13,8.92 -1.17,-1.67 -2.53,-3.72 -4.19,-6.32 -15.38,-24.1 -28.41,-6.17 -49.94,1.07 -26.87,9.05 -60.99,3.38 -79.31,-21.03 -3.51,-4.67 -13.99,-15.87 -13.41,-26.02 6.9,-5.82 14.35,-6.29 21.77,-10.35 34.18,-9.8 74.86,-21.01 99.41,13.51 4.53,6.37 6.48,11.08 16.63,8.67 5.05,-1.19 9.99,-3.47 14.93,-5.88 -0.47,3.5 -0.91,6.98 -1.34,10.38zm1.73 -13.26c-0.83,0.7 -1.88,0.93 -3.25,0.25 -3.34,-1.64 -1.84,-8.73 -2.1,-12.19 -6.39,15.72 -14.21,24.04 -26.33,8.46l-4.93 -5.6c-2.77,-3.2 -7.83,-6.35 -12.25,-8.57 -24.42,-12.26 -41.96,-5.99 -68.9,-3.82 4.95,-7.36 44.56,-15.61 55.43,-17.42 18.71,-3.38 38.04,-5.93 56.04,-1.74 5.96,1.39 10.8,3.15 15.31,5.53 -2.52,4.73 -4.42,9.87 -5.63,15.4 -1.38,6.31 -2.45,13.01 -3.38,19.69zm-43.05 77.88c-3.69,-13.37 -27.58,-15.71 -30.48,0.77 -0.16,0.91 -0.31,2.3 -0.13,3.29l1.09 2.64c4.2,-2.26 2.06,-14.86 12.78,-13.24 6.29,0.95 10.01,5.85 16.74,6.54zm-12.66 17c-6.85,3.43 -10.05,4.79 -18.06,6.91 -6.46,1.71 -13.34,5.89 -18.3,6.79 0.39,-3 0.07,-5.05 0.72,-8.11 0.55,-2.59 1.11,-4 1.57,-6.74 -14.06,5.88 -17.09,22.53 -23.09,15.74 -6.37,-7.2 6.9,-27.04 9.32,-29.58 7.37,-7.76 39.25,-31.87 51.71,-32.74 2.83,-0.2 6.35,1.09 8.87,0.17 4.02,-1.46 8.55,-17.5 17.25,-13.52 4.92,2.25 4.97,9.56 5.91,16.97 0.86,6.8 1.53,14 0.45,20.63 -1.66,10.24 -9.05,25.26 -20.03,18.38 -4.35,-2.72 -7.02,-6.14 -11.78,-8.46 -4.7,-2.29 -12.66,-3.42 -12.99,4.44 3.29,1.26 7.62,1.33 11.56,1.53 -0.58,6.04 -2.64,5.67 -3.12,7.57z"/>
  <path class="fil2" d="M1438.03 406.87l1.33 -3.51 -51.58 3.93c0.17,1.89 0.28,3.74 0.34,5.57l22.34 1.66 22.9 5.1c2.35,0.19 4.71,0.91 6.96,1.86l-2.28 -14.6zm176.32 -151.44c-5.48,-9.1 -12.28,-14.03 -26.38,-12.14 2.75,7.73 4.85,2.63 12.22,7.39 7.09,4.58 3.02,6.9 14.15,4.75zm25.54 155.78c-5.3,3.32 -4.46,1 -4.76,6.72 13.67,-0.91 11.28,-11.77 11.76,-13.41 1.17,-4 0.19,-0.82 3.91,-4.96 -3.13,-4.46 -4.42,-14.29 -8.94,-21.54l-10.99 1.76c1.8,7.14 3.71,14.19 3.6,21.71 -0.57,-5.75 -3.12,-13.34 -5.17,-21.91l-48 6.92c-2.23,3 -0.67,1.5 -1.92,4.93l-9.97 1.92 1.02 5.45c3.37,0.89 -0.63,0.63 2.49,-0.13 0.13,-0.03 3.57,-1.3 4.68,-1.62l2.52 10.52c-6.31,4.42 -3.76,-0.71 -5.25,4.6 6.17,4.88 3.67,-4.13 5.57,5.42 0.67,3.33 0.15,5.86 1.24,9.76l51.9 -8.71 -0.15 -4.94c-12.52,-1.65 -33.96,7.96 -39.04,2.93 0.3,-1.6 -2.14,-2.83 8.18,-4.32 26.26,-3.8 15.37,1.64 24.85,0.04 5.01,-0.85 6.93,-3.6 7.16,-7.76 0.55,5.07 1.82,4.75 5.33,6.62zm-39.48 -153.59c8.17,6.57 23.65,52.14 24.83,64.46l5.67 22.53c0.03,-0.17 0.48,0.51 0.79,0.7 6.54,-1.17 4.95,0.21 5.42,-5.53l-2.37 -24.86c-1.91,-2.27 -1.97,-1.3 -2.76,-1.84 -9.72,-6.79 -15.83,-49.41 -32.12,-59.54l0.54 4.09c-9.95,-9.5 -1.74,-9.89 -44.38,-8.27 -17.48,0.66 -36.43,1.19 -54.17,2.88l3.98 103.53c4.93,0.73 87.46,-7.23 91.96,-8.91 1.04,0.26 2.76,0.42 3.84,0.47l25.49 -1.51c4.25,-25.33 -24.48,-78.2 -26.73,-88.19zm-17.48 186.84c52.9,-9.47 65.06,-5.08 62.54,-26.28l-63.65 10.08c-1.42,4.51 -0.66,11.69 1.11,16.19zm-121.29 -66.62c-1.57,4.97 -4.42,11.5 -6.57,18.21 -2.57,8.01 -6.56,14.92 -2.65,18.41 3.18,-1.86 1.48,-0.44 3.25,-2.97l8.58 -24.07c4.92,-12.82 17.08,-13.05 34.2,-15.48 32.19,-4.58 48.87,-4.62 67.82,15.69l9.37 -3.06c-3.59,-3.3 -6.78,-6.86 -10.34,-10.18 -4.37,-4.08 -8,-5.79 -11.44,-9.75 8.51,1.17 20.26,15.06 25.56,20.26l50.45 -7.29 -0.57 -19.76c0.08,-0.43 0.4,-1.65 0.57,-2.02l1.25 21.81 9.95 -1.6c2.28,-7.33 2.16,-16.04 1.15,-23.5 -1.1,1.06 -2.23,1.93 -3.41,2.87 -0.49,4.05 -2.55,7.21 -5.28,9.85 0.64,-4.91 1.45,-7.47 5.28,-9.85 0.11,-1.84 2.09,-4.46 4.88,-8.15l-0.37 -0.37 -0.02 0.09 -12.48 1.09c-2.09,3.49 -0.06,3.49 -1.51,7.45 -0.32,-1.67 -0.5,-3.2 -1.18,-4.78 -0.99,-2.31 -0.6,-1.42 -1.9,-2.59 -7.39,0.37 -108.99,7.87 -118.21,11.24 -0.25,0.09 -0.76,0.74 -1,0.52 -0.24,-0.22 -0.69,0.33 -0.97,0.56 2.48,2.63 -1.84,1.87 6.34,1.33l20.51 -2.58c9.86,-0.43 16.28,0.85 20.54,5.19 -6.3,-1.09 -9.89,-4.01 -20.93,-3.31 -7.42,0.47 -17.95,2.14 -25.86,3.08 -33.94,4.01 -26.25,2.31 -44.97,13.67zm61.08 47.8l-10.4 2.1c-2.96,-2.83 -3.23,-2.82 -7.26,-3.79 0.31,-4.8 -0.81,-7.05 3.09,-10.31 5.4,-4.52 16.53,-5.01 19.06,3.88 0.59,2.08 -2.47,5.36 -4.48,8.11zm82.24 -31.51c7.66,-0.62 9.11,-1.9 11.88,3.53l-26.92 3.76 -2.55 -6.16c5.67,-0.52 11.82,-0.67 17.58,-1.13zm-105.09 -59.86c1.41,-9.22 -1.61,-30.93 -1.58,-41.77 0.03,-11.37 1.75,-30.18 0.3,-39.75 -4.97,-1.4 -12.1,-2.04 -17.53,-0.94 -6.92,18 -2.99,83.67 -0.91,106.63 0.42,0.1 0.97,0.17 1.31,0.2 9.85,0.93 12.32,-2.16 18.52,0 -6.02,1.01 -15.93,1.22 -19.07,4.39 2.51,3.7 10.77,1.73 22.23,-0.54l-1.43 -9.64c-1.8,0.26 -12.83,2.01 -13.79,0.95 -0.34,-0.37 -0.92,-0.09 -1.5,-0.18l-1.25 -16.52 14.71 -2.85zm67.92 -68.6l-58.31 6.05c-4.61,-17.35 7.89,-14.72 26.29,-15.98 19.2,-1.31 27.49,-5.73 32.02,9.93zm-54.82 53.07c-4.3,-8.02 -3.46,-32.48 -3.83,-43.07l58.83 -5.9 1.48 3.43c2.49,10.47 9.19,30.7 7.47,39.19 -14.05,5 -50.35,7.52 -63.96,6.35zm67.44 -40.59l-5.2 -16.77c-1.95,-13.28 15.95,-8.41 21.2,2.54 5.15,10.75 28.24,67.22 19.01,75.43 -5.02,3.22 -12.23,3.66 -19.41,4.59 -7.99,-4.72 -5.93,-4.92 -6.3,-13.23 -0.25,-5.63 -0.95,-11.3 -1.68,-16.94 -1.49,-11.54 -3.72,-24.53 -7.62,-35.63zm-75.27 121.5c33.64,-14.17 55.4,26.63 22.73,39.8 -34.04,13.72 -57.89,-24.98 -22.73,-39.8zm-4.99 -16.14c-62.41,20.73 -29.42,91.22 32.14,71.2 22.82,-7.42 39.4,-29.53 29.88,-50.55 -8.07,-17.84 -34.39,-29.83 -62.02,-20.65zm-103.84 9.4c16.69,-1.2 33.41,-2.43 50.22,-3.71 0.2,-0.33 0.28,-1.2 0.43,-1.03 2.07,2.33 -0.34,-1.7 1.89,-5.14 -1.85,-5.47 -0.86,-8.93 -1.42,-14.53l-32.34 2.4c-5.66,7.82 -11.93,15.18 -18.79,22.01z"/>
  <path class="fil3" d="M401.97 149.14l-29.8 0.5 1.43 -11.26c0.67,-5.26 0.71,-8.63 0.14,-10.06 -0.57,-1.43 -1.73,-2.12 -3.5,-2.08 -1.92,0.03 -3.5,1.01 -4.74,2.99 -1.23,1.95 -2.1,4.87 -2.6,8.82 -0.64,5.07 -0.56,8.88 0.24,11.42 0.77,2.52 3.39,5.58 7.89,9.16 12.89,10.26 20.76,18.74 23.6,25.38 2.87,6.64 3.34,17.43 1.45,32.32 -1.38,10.85 -3.43,18.86 -6.14,24.05 -2.71,5.17 -7.21,9.54 -13.55,13.1 -6.32,3.6 -13.38,5.44 -21.2,5.58 -8.58,0.14 -15.63,-1.76 -21.21,-5.67 -5.55,-3.9 -8.85,-8.95 -9.96,-15.1 -1.08,-6.2 -0.9,-15.01 0.55,-26.4l1.27 -9.98 29.79 -0.5 -2.35 18.52c-0.73,5.71 -0.77,9.36 -0.15,10.99 0.62,1.62 2,2.4 4.14,2.36 2.13,-0.03 3.85,-1.09 5.15,-3.19 1.3,-2.07 2.21,-5.16 2.73,-9.2 1.14,-8.95 0.9,-14.81 -0.73,-17.51 -1.7,-2.72 -6.11,-7.27 -13.24,-13.61 -7.13,-6.38 -11.78,-11.05 -14,-13.95 -2.2,-2.91 -3.84,-6.95 -4.87,-12.12 -1.03,-5.17 -1.04,-11.8 -0.02,-19.89 1.48,-11.65 3.76,-20.2 6.86,-25.64 3.11,-5.43 7.51,-9.7 13.28,-12.84 5.77,-3.14 12.43,-4.76 20.05,-4.88 8.32,-0.14 15.18,1.41 20.63,4.62 5.43,3.24 8.77,7.35 10.03,12.39 1.26,5.01 1.13,13.56 -0.41,25.66l-0.77 6.03zm-112.9 44.85c-1.94,15.31 -3.6,26.13 -5.01,32.49 -1.38,6.4 -3.94,12.23 -7.68,17.55 -3.74,5.32 -8.41,9.43 -14,12.34 -5.59,2.91 -11.85,4.42 -18.79,4.54 -6.6,0.11 -12.33,-1.14 -17.25,-3.72 -4.92,-2.57 -8.65,-6.48 -11.14,-11.76 -2.52,-5.27 -3.68,-11.05 -3.51,-17.29 0.2,-6.28 1.28,-17.25 3.27,-32.91l3.31 -26.06c1.95,-15.31 3.6,-26.13 5.01,-32.49 1.38,-6.4 3.94,-12.23 7.68,-17.55 3.74,-5.31 8.41,-9.43 13.99,-12.33 5.58,-2.92 11.85,-4.43 18.79,-4.54 6.61,-0.11 12.34,1.14 17.25,3.72 4.91,2.57 8.65,6.49 11.14,11.76 2.52,5.27 3.68,11.05 3.51,17.3 -0.2,6.28 -1.28,17.25 -3.27,32.91l-3.31 26.06zm-25.78 -49.5c0.9,-7.06 1.16,-11.58 0.79,-13.56 -0.37,-1.95 -1.52,-2.92 -3.45,-2.89 -1.64,0.03 -2.99,0.85 -4.08,2.47 -1.06,1.58 -2.1,6.31 -3.1,14.14l-9.03 71.08c-1.12,8.82 -1.53,14.27 -1.22,16.32 0.3,2.08 1.5,3.08 3.58,3.04 2.13,-0.03 3.66,-1.25 4.56,-3.63 0.9,-2.38 1.91,-8.07 3.05,-17.02l8.89 -69.96zm299.96 47.69l-39.93 0.66 -3.44 27.05c-0.71,5.65 -0.84,9.3 -0.4,10.93 0.47,1.63 1.64,2.41 3.54,2.37 2.36,-0.04 4.09,-1.16 5.14,-3.32 1.08,-2.2 2.01,-6.41 2.8,-12.63l2.1 -16.49 29.17 -0.48 -1.17 9.24c-0.98,7.73 -2.13,13.68 -3.43,17.83 -1.33,4.15 -3.74,8.61 -7.22,13.38 -3.49,4.77 -7.63,8.35 -12.37,10.81 -4.74,2.41 -10.46,3.69 -17.17,3.81 -6.5,0.11 -12.1,-0.95 -16.8,-3.21 -4.67,-2.22 -8.14,-5.34 -10.41,-9.34 -2.27,-3.99 -3.6,-8.42 -4.05,-13.28 -0.45,-4.83 -0.1,-11.88 1.09,-21.19l4.63 -36.42c1.39,-10.91 3.67,-19.53 6.87,-25.89 3.19,-6.33 7.71,-11.24 13.57,-14.67 5.89,-3.46 12.34,-5.23 19.41,-5.35 8.63,-0.14 15.5,1.76 20.6,5.71 5.1,3.96 8.38,9.25 9.79,15.88 1.42,6.61 1.34,15.99 -0.2,28.09l-2.1 16.53zm-28.16 -19.71l1.16 -9.11c0.82,-6.48 1.07,-10.62 0.73,-12.5 -0.33,-1.88 -1.39,-2.8 -3.15,-2.77 -2.18,0.04 -3.64,0.86 -4.36,2.48 -0.73,1.61 -1.53,5.92 -2.43,12.94l-1.16 9.11 9.2 -0.15zm4.14 -65.01l-10.53 12.47 -21.37 0.36 23.03 -26.9 21.37 -0.36 15.03 26.27 -20.59 0.35 -6.94 -12.18zm-87.83 -5.26l-2.52 19.84 -31.67 0.52 2.52 -19.83 31.67 -0.53zm-3.5 27.53l-15.85 124.77 -31.67 0.52 15.85 -124.77 31.67 -0.52zm46.24 -28.24l-19.35 152.3 -31.67 0.53 19.35 -152.31 31.67 -0.52zm118.52 25.5l-1.94 11.6c2.82,-4.66 5.99,-8.17 9.52,-10.57 3.51,-2.36 7.38,-3.58 11.62,-3.65 5.28,-0.09 9.4,1.38 12.36,4.41 2.97,2.99 4.63,6.84 5,11.51 0.37,4.64 -0.13,12.43 -1.51,23.34l-11.12 87.48 -30.73 0.51 10.98 -86.42c1.09,-8.57 1.52,-13.83 1.29,-15.68 -0.2,-1.88 -1.36,-2.79 -3.46,-2.76 -2.21,0.04 -3.73,1.15 -4.57,3.31 -0.83,2.19 -1.84,7.97 -3.04,17.37l-10.71 84.33 -30.73 0.51 15.85 -124.77 31.2 -0.52zm112.56 45.2l-29.02 0.48 1.83 -14.44c0.64,-5.01 0.73,-8.4 0.28,-10.19 -0.45,-1.79 -1.58,-2.67 -3.4,-2.63 -1.82,0.03 -3.14,0.82 -3.96,2.41 -0.83,1.58 -1.58,5.09 -2.27,10.54l-7.48 58.89c-0.57,4.46 -0.52,7.79 0.13,9.99 0.63,2.2 1.87,3.3 3.68,3.26 2.11,-0.03 3.68,-1.21 4.73,-3.53 1.05,-2.32 1.97,-6.7 2.79,-13.15l1.88 -14.79 27.46 -0.45c-1.32,9.94 -2.55,17.43 -3.73,22.41 -1.16,4.98 -3.52,10.12 -7.07,15.4 -3.52,5.28 -7.8,9.29 -12.76,12.03 -4.97,2.74 -10.85,4.15 -17.69,4.26 -8.68,0.14 -15.37,-1.57 -20,-5.18 -4.61,-3.57 -7.57,-8.65 -8.83,-15.22 -1.26,-6.61 -1.14,-15.96 0.41,-28.15l4.5 -35.46c1.35,-10.62 3.22,-18.62 5.65,-24.05 2.4,-5.42 6.71,-10.29 12.91,-14.62 6.18,-4.33 13.31,-6.56 21.42,-6.7 8.04,-0.13 14.63,1.87 19.82,5.98 5.16,4.11 8.28,9.34 9.34,15.73 1.08,6.39 0.86,15.45 -0.63,27.2zm50.15 -75.38l-2.52 19.83 -31.67 0.53 2.52 -19.83 31.67 -0.52zm-3.5 27.53l-15.85 124.77 -31.67 0.53 15.85 -124.77 31.67 -0.53zm75.08 42.46l-3.89 30.58c-1.42,11.23 -2.94,19.46 -4.52,24.74 -1.57,5.24 -4.14,10.15 -7.71,14.76 -3.57,4.61 -7.84,8.01 -12.82,10.27 -4.98,2.23 -10.5,3.41 -16.58,3.51 -6.81,0.12 -12.47,-0.72 -16.94,-2.47 -4.49,-1.78 -7.8,-4.51 -9.93,-8.19 -2.15,-3.71 -3.45,-8.2 -3.89,-13.48 -0.45,-5.28 0.02,-13.23 1.37,-23.82l4.06 -32c1.48,-11.62 3.64,-20.68 6.5,-27.26 2.86,-6.55 7.19,-11.84 12.97,-15.87 5.78,-4.04 12.79,-6.14 21,-6.27 6.89,-0.11 12.66,1.07 17.3,3.52 4.62,2.46 8.02,5.7 10.21,9.73 2.16,4.03 3.47,8.2 3.91,12.52 0.44,4.31 0.1,10.89 -1.03,19.74zm-29.54 -8.89c0.81,-6.39 1.04,-10.43 0.7,-12.05 -0.36,-1.66 -1.45,-2.47 -3.3,-2.44 -1.84,0.03 -3.17,0.89 -4.01,2.56 -0.81,1.65 -1.63,5.7 -2.44,12.08l-7.16 56.32c-0.75,5.91 -0.93,9.75 -0.55,11.51 0.4,1.79 1.48,2.67 3.27,2.63 1.84,-0.03 3.15,-0.85 3.95,-2.5 0.8,-1.65 1.54,-5.15 2.22,-10.54l7.31 -57.57z"/>
  <path class="fil4" d="M951.73 185.72l-39.93 0.67 -3.44 27.05c-0.72,5.65 -0.84,9.3 -0.41,10.92 0.47,1.63 1.64,2.41 3.54,2.38 2.37,-0.04 4.09,-1.16 5.15,-3.32 1.08,-2.2 2,-6.41 2.8,-12.63l2.09 -16.5 29.17 -0.49 -1.17 9.24c-0.98,7.73 -2.12,13.68 -3.43,17.83 -1.33,4.15 -3.74,8.61 -7.23,13.38 -3.48,4.76 -7.62,8.36 -12.37,10.8 -4.74,2.42 -10.46,3.7 -17.17,3.81 -6.5,0.11 -12.1,-0.95 -16.79,-3.21 -4.67,-2.23 -8.14,-5.34 -10.41,-9.34 -2.27,-4 -3.6,-8.42 -4.05,-13.28 -0.45,-4.83 -0.1,-11.88 1.08,-21.19l4.63 -36.42c1.39,-10.91 3.67,-19.53 6.87,-25.89 3.19,-6.33 7.71,-11.24 13.57,-14.67 5.89,-3.46 12.34,-5.23 19.41,-5.35 8.63,-0.14 15.5,1.76 20.6,5.71 5.1,3.96 8.37,9.25 9.79,15.88 1.42,6.61 1.34,15.99 -0.2,28.09l-2.1 16.53zm183.38 -67.42l-1.98 11.88c2.99,-4.75 6.28,-8.36 9.88,-10.76 3.58,-2.43 7.5,-3.68 11.71,-3.75 8.22,-0.14 14.06,4.48 17.59,13.87 3.17,-4.76 6.54,-8.37 10.09,-10.77 3.55,-2.43 7.29,-3.67 11.27,-3.74 5.2,-0.09 9.34,1.42 12.35,4.5 3.04,3.06 4.73,6.87 5.11,11.41 0.38,4.51 -0.06,11.88 -1.36,22.12l-11.27 88.7 -29.8 0.49 10.34 -81.35c1.35,-10.66 1.91,-17.23 1.63,-19.75 -0.25,-2.53 -1.43,-3.79 -3.59,-3.75 -2.18,0.04 -3.75,1.32 -4.69,3.83 -0.97,2.51 -2.12,9.13 -3.48,19.85l-10.34 81.35 -29.8 0.5 10.07 -79.27c1.55,-12.22 2.25,-19.57 2.07,-22 -0.16,-2.44 -1.35,-3.63 -3.54,-3.59 -1.38,0.02 -2.6,0.68 -3.75,1.98 -1.12,1.3 -1.84,2.88 -2.18,4.74 -0.34,1.83 -0.89,5.78 -1.65,11.78l-10.99 86.52 -29.79 0.5 15.85 -124.77 30.26 -0.51zm151.39 61.85l-39.93 0.66 -3.44 27.05c-0.71,5.65 -0.84,9.3 -0.4,10.93 0.47,1.63 1.64,2.41 3.54,2.38 2.37,-0.04 4.09,-1.16 5.14,-3.32 1.08,-2.2 2.01,-6.41 2.8,-12.63l2.1 -16.5 29.17 -0.49 -1.17 9.24c-0.99,7.73 -2.13,13.68 -3.43,17.83 -1.33,4.15 -3.74,8.61 -7.23,13.38 -3.49,4.76 -7.63,8.36 -12.37,10.8 -4.74,2.42 -10.46,3.7 -17.16,3.81 -6.5,0.11 -12.1,-0.95 -16.8,-3.21 -4.67,-2.23 -8.14,-5.34 -10.41,-9.34 -2.27,-4 -3.6,-8.42 -4.05,-13.28 -0.45,-4.83 -0.1,-11.88 1.08,-21.19l4.63 -36.42c1.39,-10.91 3.68,-19.53 6.87,-25.89 3.19,-6.33 7.71,-11.24 13.56,-14.67 5.89,-3.46 12.34,-5.23 19.41,-5.35 8.63,-0.14 15.5,1.76 20.6,5.71 5.1,3.96 8.38,9.25 9.79,15.88 1.42,6.61 1.34,15.99 -0.19,28.09l-2.1 16.53zm-28.16 -19.71l1.16 -9.12c0.83,-6.48 1.07,-10.62 0.73,-12.5 -0.33,-1.88 -1.38,-2.8 -3.15,-2.77 -2.19,0.04 -3.64,0.86 -4.36,2.47 -0.73,1.61 -1.53,5.92 -2.42,12.95l-1.16 9.12 9.2 -0.15zm81.54 -73.03l-19.35 152.31 -31.67 0.53 19.35 -152.3 31.67 -0.53zm41.81 -0.69l-4.36 34.3c3.03,-3.06 6.19,-5.39 9.44,-6.94 3.26,-1.56 6.66,-2.38 10.17,-2.44 5.38,-0.09 9.74,1.54 13.11,4.84 3.34,3.34 5.16,7.18 5.46,11.6 0.27,4.41 -0.34,12.5 -1.83,24.21l-10.93 86.07 -30.73 0.51 11.16 -87.83c0.92,-7.25 1.23,-11.93 0.9,-13.98 -0.33,-2.08 -1.5,-3.08 -3.55,-3.05 -1.9,0.03 -3.31,1.11 -4.26,3.27 -0.92,2.13 -1.79,6.37 -2.6,12.69l-11.31 89.05 -30.73 0.51 19.35 -152.3 30.73 -0.51zm111.52 69.33l-3.89 30.58c-1.43,11.23 -2.94,19.46 -4.52,24.73 -1.57,5.25 -4.14,10.16 -7.71,14.76 -3.57,4.61 -7.84,8.01 -12.82,10.27 -4.98,2.23 -10.5,3.41 -16.59,3.51 -6.81,0.11 -12.46,-0.72 -16.94,-2.47 -4.5,-1.78 -7.8,-4.51 -9.94,-8.19 -2.15,-3.71 -3.44,-8.21 -3.89,-13.48 -0.44,-5.28 0.02,-13.22 1.36,-23.81l4.07 -31.99c1.47,-11.62 3.64,-20.69 6.5,-27.26 2.86,-6.55 7.18,-11.84 12.97,-15.88 5.78,-4.04 12.79,-6.14 21.01,-6.27 6.89,-0.12 12.66,1.07 17.3,3.52 4.62,2.45 8.02,5.69 10.2,9.72 2.16,4.03 3.47,8.2 3.91,12.52 0.44,4.31 0.1,10.89 -1.03,19.74zm-29.54 -8.89c0.81,-6.39 1.04,-10.42 0.7,-12.05 -0.36,-1.66 -1.45,-2.47 -3.3,-2.44 -1.84,0.03 -3.17,0.88 -4.01,2.56 -0.81,1.65 -1.63,5.69 -2.44,12.08l-7.15 56.32c-0.75,5.9 -0.93,9.75 -0.56,11.5 0.4,1.79 1.48,2.67 3.27,2.64 1.84,-0.03 3.15,-0.85 3.95,-2.5 0.8,-1.65 1.54,-5.15 2.22,-10.54l7.31 -57.57zm75.84 -35.59l-3.18 16.45c6,-11.89 13.29,-18.22 21.88,-19.07l-5.58 43.9c-5.64,0.09 -9.92,1.09 -12.81,3.03 -2.89,1.94 -4.84,4.56 -5.89,7.94 -1.02,3.35 -2.32,11.08 -3.86,23.22l-6.26 49.29 -30.73 0.51 15.85 -124.77 30.58 -0.51zm-478.06 51.67l-3.88 30.58c-1.43,11.23 -2.94,19.45 -4.52,24.73 -1.57,5.25 -4.14,10.16 -7.71,14.76 -3.57,4.61 -7.84,8.01 -12.82,10.27 -4.98,2.23 -10.5,3.41 -16.58,3.51 -6.81,0.12 -12.46,-0.72 -16.94,-2.47 -4.5,-1.78 -7.8,-4.51 -9.93,-8.19 -2.15,-3.71 -3.45,-8.2 -3.89,-13.48 -0.45,-5.28 0.02,-13.23 1.37,-23.82l4.06 -32c1.48,-11.62 3.64,-20.68 6.5,-27.26 2.86,-6.55 7.19,-11.84 12.97,-15.87 5.77,-4.04 12.79,-6.14 21,-6.27 6.89,-0.11 12.65,1.07 17.3,3.52 4.62,2.45 8.02,5.69 10.2,9.73 2.16,4.03 3.47,8.2 3.91,12.52 0.44,4.31 0.1,10.89 -1.03,19.74zm-29.53 -8.89c0.81,-6.39 1.04,-10.43 0.7,-12.05 -0.36,-1.66 -1.45,-2.47 -3.3,-2.44 -1.85,0.03 -3.17,0.88 -4.01,2.56 -0.8,1.64 -1.63,5.7 -2.44,12.08l-7.15 56.32c-0.75,5.9 -0.93,9.75 -0.55,11.5 0.39,1.79 1.48,2.67 3.27,2.64 1.85,-0.03 3.15,-0.85 3.95,-2.5 0.8,-1.65 1.54,-5.15 2.22,-10.54l7.32 -57.57zm-108.35 11.66l1.16 -9.12c0.82,-6.48 1.07,-10.62 0.73,-12.5 -0.33,-1.88 -1.38,-2.8 -3.15,-2.77 -2.19,0.04 -3.64,0.86 -4.36,2.47 -0.72,1.61 -1.53,5.92 -2.42,12.95l-1.16 9.11 9.2 -0.15zm31.3 -78.53l-28.34 25.83 -15.44 0.26 16.64 -25.64 27.14 -0.45z"/>
  <path class="fil5" d="M860.6 394.94c1.19,-6.03 2.62,-12.44 4.3,-19.22 1.68,-6.78 3.42,-13.6 5.21,-20.46 1.79,-6.86 3.55,-13.64 5.27,-20.35 1.72,-6.71 3.21,-13.08 4.47,-19.12 1.26,-6.03 2.18,-11.61 2.76,-16.74 0.58,-5.12 0.63,-9.57 0.14,-13.33 -0.58,-2.6 -1.75,-4.51 -3.53,-5.73 -1.78,-1.23 -3.9,-1.78 -6.37,-1.66 -2.62,0.13 -5.43,0.95 -8.44,2.48 -3.01,1.53 -5.95,3.6 -8.82,6.21 -2.64,2.46 -5.35,5.76 -8.12,9.9 -2.78,4.14 -5.22,8.52 -7.32,13.14 -2.11,4.62 -3.69,9.24 -4.74,13.88 -1.06,4.64 -1.2,8.76 -0.42,12.37 0.15,0.28 0.01,0.61 -0.4,1 -0.42,0.38 -0.92,0.44 -1.52,0.18 -1.63,-0.94 -2.86,-3.18 -3.68,-6.7 -0.82,-3.53 -1.21,-7.55 -1.16,-12.07 0.01,-1.31 0.06,-2.66 0.15,-4.05 0.09,-1.39 0.22,-2.74 0.38,-4.06 0.98,-7.47 2.87,-14.6 5.67,-21.36 2.8,-6.77 6.08,-12.71 9.84,-17.85 3.75,-5.13 7.76,-9.23 12.02,-12.27 4.26,-3.04 8.3,-4.66 12.11,-4.85 0.83,-0.04 1.61,-0.01 2.35,0.1 0.75,0.11 1.49,0.29 2.24,0.55 2.91,1.02 5.56,3.04 7.95,6.06 2.4,3.01 4.45,6.85 6.16,11.5 1.71,4.65 3.01,9.98 3.92,15.98 0.91,6 1.32,12.5 1.25,19.5 -0.03,2.04 -0.09,4.19 -0.18,6.46 -0.1,2.26 -0.27,4.49 -0.52,6.69 1.7,-5.33 3.79,-11.36 6.25,-18.11 2.47,-6.75 4.97,-13.54 7.51,-20.36 2.54,-6.82 4.98,-13.31 7.33,-19.47 2.35,-6.16 4.33,-11.24 5.94,-15.26 0.62,-1.63 1.82,-2.16 3.61,-1.59 1.79,0.57 3.57,1.83 5.34,3.78 1.77,1.96 3.2,4.36 4.29,7.22 1.09,2.86 1.28,5.83 0.58,8.93 -1.17,4.72 -2.49,10.79 -3.96,18.22 -1.46,7.42 -2.91,15.14 -4.34,23.15 -1.43,8.01 -2.71,15.79 -3.84,23.34 -1.13,7.55 -1.87,13.74 -2.22,18.57 4.38,-10.41 8.66,-20.89 12.85,-31.43 4.19,-10.54 8.17,-20.5 11.93,-29.85 3.76,-9.36 7.26,-17.83 10.48,-25.41 3.22,-7.59 6.09,-13.77 8.61,-18.55 0.61,-1.2 1.64,-1.35 3.09,-0.48 1.45,0.87 2.8,2.41 4.05,4.61 1.24,2.2 2.17,4.85 2.77,7.95 0.6,3.1 0.36,6.21 -0.72,9.32 -2.24,6.81 -4.64,14.68 -7.21,23.62 -2.56,8.94 -5.09,18.31 -7.59,28.12 -2.5,9.81 -4.88,19.72 -7.16,29.73 -2.28,10.01 -4.3,19.43 -6.08,28.26 -1.78,8.83 -3.21,16.73 -4.29,23.7 -1.08,6.97 -1.65,12.42 -1.69,16.36 0.58,1.43 1.17,2.68 1.75,3.74 0.59,1.06 0.99,1.81 1.21,2.23 0.37,0.71 0.04,1.67 -0.98,2.89 -1.02,1.22 -2.21,1.78 -3.55,1.7 -0.6,0.03 -1.3,-0.37 -2.12,-1.21 -0.81,-0.84 -1.6,-2.15 -2.37,-3.93 -0.77,-1.79 -1.4,-4.05 -1.89,-6.79 -0.5,-2.75 -0.76,-6.01 -0.79,-9.8 0,-6.99 0.65,-15.25 1.95,-24.78 1.3,-9.53 2.97,-19.55 5.03,-30.07 2.06,-10.52 4.36,-21 6.9,-31.47 2.54,-10.47 5.02,-20.12 7.44,-28.98 -4.69,11.73 -9.2,23.46 -13.56,35.17 -4.36,11.72 -8.32,22.61 -11.91,32.69 -3.59,10.08 -6.69,18.93 -9.32,26.56 -2.62,7.63 -4.55,13.22 -5.79,16.77 -0.84,1.64 -1.83,2.05 -2.99,1.24 -1.15,-0.82 -2.24,-2.19 -3.27,-4.1 -1.02,-1.91 -1.9,-4.06 -2.62,-6.42 -0.72,-2.37 -1.07,-4.36 -1.06,-5.96 0.05,-4.37 0.6,-10.55 1.66,-18.54 1.06,-7.99 2.37,-16.79 3.93,-26.41 1.56,-9.62 3.24,-19.57 5.03,-29.85 1.79,-10.28 3.49,-19.98 5.08,-29.09 -1.69,4.45 -3.81,10.12 -6.35,17.02 -2.54,6.9 -5.28,14.38 -8.2,22.47 -2.93,8.08 -5.94,16.49 -9.02,25.23 -3.09,8.74 -6.04,17.33 -8.86,25.77 -2.82,8.44 -5.39,16.39 -7.72,23.86 -2.32,7.47 -4.18,13.94 -5.59,19.39 -0.86,3.68 -1.32,6.03 -1.36,7.05 -0.05,1.02 -0.01,1.97 0.13,2.84 0.15,0.58 0.1,1.05 -0.13,1.43 -0.23,0.37 -0.59,0.61 -1.07,0.7 -0.49,0.1 -1.05,0.05 -1.68,-0.14 -0.63,-0.19 -1.21,-0.56 -1.73,-1.12 -1.41,-1.24 -2.39,-3.67 -2.95,-7.28 -0.56,-3.61 -0.82,-7.39 -0.77,-11.32 0.05,-4.52 0.39,-8.54 1.03,-12.07zm494.22 -103.88c0.82,0.25 1.77,0.86 2.84,1.83 1.07,0.96 2.14,2.26 3.21,3.89 1.07,1.63 2.1,3.47 3.08,5.53 0.99,2.06 1.81,4.24 2.45,6.54 1.27,0.38 2.65,0.67 4.14,0.89 1.49,0.22 2.99,0.4 4.48,0.54 1.49,0.15 2.89,0.19 4.2,0.13 1.31,-0.07 2.41,-0.19 3.31,-0.38 2.32,-0.7 4.34,-1.59 6.03,-2.69 1.69,-1.1 2.65,-1.51 2.87,-1.23 0.3,0.42 0.31,1.11 0.04,2.07 -0.27,0.96 -0.68,2 -1.21,3.12 -0.53,1.12 -1.15,2.2 -1.83,3.26 -0.68,1.05 -1.29,1.88 -1.82,2.49 -2.2,2.44 -4.95,4.36 -8.25,5.75 -3.31,1.4 -6.68,2.18 -10.12,2.35 -0.08,6.99 -0.78,14.53 -2.1,22.61 -1.32,8.07 -3.16,15.56 -5.51,22.44 -2.35,6.89 -5.18,12.56 -8.49,17.01 -3.3,4.46 -6.93,6.49 -10.89,6.1 -1.19,-0.09 -2.57,-0.86 -4.13,-2.31 -1.55,-1.45 -3.03,-3.38 -4.42,-5.79 -1.39,-2.4 -2.58,-5.23 -3.55,-8.46 -0.64,-2.12 -1.08,-4.34 -1.32,-6.64 -1.27,3.06 -2.56,5.87 -3.86,8.42 -1.72,3.36 -3.47,6.1 -5.25,8.23 -1.78,2.13 -3.49,3.08 -5.13,2.87 -2.61,-0.6 -4.71,-2.14 -6.29,-4.61 -1.58,-2.47 -2.8,-5.33 -3.67,-8.56 -0.86,-3.24 -1.39,-6.49 -1.57,-9.76 -0.19,-3.27 -0.16,-6.07 0.09,-8.42 0.5,-5.12 1.66,-11.44 3.45,-18.96 1.8,-7.51 3.98,-15.27 6.53,-23.26 -1.68,3.14 -3.93,7.26 -6.75,12.34 -2.82,5.09 -5.69,10.76 -8.6,17.02 -2.91,6.26 -5.66,12.87 -8.23,19.85 -2.58,6.97 -4.47,13.84 -5.66,20.59 -0.01,0.58 -0.11,1.61 -0.31,3.08 -0.2,1.47 -0.83,2.22 -1.88,2.28 -0.82,-0.11 -1.69,-0.65 -2.62,-1.62 -0.93,-0.97 -1.79,-2.2 -2.6,-3.69 -0.81,-1.49 -1.48,-3.13 -2.02,-4.93 -0.54,-1.8 -0.81,-3.57 -0.78,-5.32 -0.11,-4.22 0.54,-10.22 1.93,-18.01 1.39,-7.79 3.18,-16.39 5.38,-25.82 2.2,-9.43 4.64,-19.16 7.33,-29.2 2.69,-10.03 5.31,-19.37 7.87,-28.02 2.56,-8.65 4.87,-16.15 6.92,-22.51 2.05,-6.37 3.53,-10.51 4.45,-12.45 0.46,-1.04 1.21,-1.26 2.25,-0.66 1.04,0.61 2.07,1.65 3.11,3.13 1.03,1.48 1.87,3.22 2.52,5.23 0.65,2 0.78,3.82 0.39,5.44 -1.4,5.6 -3.06,12.02 -4.97,19.25 -1.91,7.23 -3.86,14.57 -5.85,22.02 -1.99,7.45 -3.86,14.53 -5.61,21.24 -1.75,6.71 -3.18,12.35 -4.28,16.92 2.22,-4.33 4.62,-8.82 7.21,-13.46 2.59,-4.64 5.1,-8.88 7.54,-12.71 2.44,-3.83 4.63,-6.93 6.6,-9.28 1.97,-2.35 3.44,-3.48 4.41,-3.38 0.52,0.12 1.22,0.81 2.11,2.08 0.88,1.27 1.73,2.79 2.53,4.57 0.8,1.78 1.42,3.72 1.84,5.81 0.43,2.09 0.48,4.02 0.16,5.78l-0 0.44c-0.55,2.21 -1.35,5.2 -2.4,8.97 -1.05,3.77 -2.18,7.82 -3.38,12.18 -1.2,4.36 -2.43,8.82 -3.68,13.39 -1.24,4.57 -2.36,8.78 -3.33,12.61 -0.98,3.84 -1.7,7.04 -2.18,9.61 -0.47,2.57 -0.53,4.13 -0.16,4.7 0.59,0.7 1.51,0.47 2.76,-0.68 1.24,-1.15 2.64,-2.86 4.2,-5.12 1.56,-2.26 3.23,-4.96 5.02,-8.11 1.72,-3.01 3.41,-6.05 5.09,-9.12 0.63,-4.72 1.43,-9.24 2.39,-13.53 1.02,-4.56 2.17,-8.66 3.44,-12.29 1.28,-3.63 2.48,-6.49 3.63,-8.59 1.37,-2.54 3.04,-4.55 5,-6.03 1.96,-1.48 3.5,-2.17 4.62,-2.08 0.43,-4.83 1.25,-8.98 2.49,-12.46 1.23,-3.48 2.82,-4.98 4.76,-4.49zm-0.99 60.57c1.33,-5.02 2.39,-9.91 3.19,-14.68 0.8,-4.78 1.33,-9.06 1.6,-12.86 -1.94,-0.63 -3.71,-1.57 -5.3,-2.81 -1.59,-1.23 -2.83,-2.77 -3.71,-4.63 -1.37,2.55 -2.77,5.97 -4.2,10.26 -1.43,4.29 -2.71,8.87 -3.85,13.74 -1.14,4.86 -2.07,9.67 -2.79,14.44 -0.72,4.77 -1.11,8.97 -1.14,12.62 -0.05,4.66 0.51,7.62 1.7,8.88 1.03,0.83 2.18,0.77 3.42,-0.17 1.25,-0.93 2.52,-2.56 3.81,-4.88 1.3,-2.32 2.56,-5.18 3.79,-8.59 1.24,-3.41 2.4,-7.18 3.49,-11.31zm25.68 -20.69c0.35,-4.53 1.3,-9.31 2.85,-14.34 1.55,-5.03 3.36,-9.67 5.42,-13.92 2.06,-4.25 4.18,-7.77 6.34,-10.57 2.16,-2.8 4.03,-4.24 5.6,-4.31 0.98,-0.05 2,0.34 3.07,1.16 1.08,0.82 2.08,1.79 3,2.92 0.93,1.12 1.71,2.39 2.37,3.81 0.66,1.43 1.02,2.65 1.08,3.67 -0.01,0.73 -0.13,1.53 -0.36,2.42 -0.23,0.88 -0.65,1.19 -1.25,0.93 -0.98,0.2 -2.14,1.09 -3.51,2.69 -1.36,1.59 -2.75,3.66 -4.16,6.21 -1.41,2.55 -2.77,5.38 -4.07,8.5 -1.31,3.12 -2.4,6.2 -3.29,9.23 -0.89,3.03 -1.5,5.9 -1.83,8.61 -0.33,2.71 -0.24,4.93 0.27,6.65 0.5,1.58 1.14,3.22 1.91,4.93 0.77,1.71 1.57,3.39 2.41,5.02 0.84,1.63 1.61,3.2 2.3,4.69 0.7,1.5 1.26,2.81 1.7,3.96 0.73,2.15 0.86,4.66 0.42,7.52 -0.44,2.86 -1.31,5.74 -2.62,8.64 -1.3,2.91 -2.91,5.64 -4.8,8.21 -1.9,2.57 -3.86,4.62 -5.9,6.18 -1.06,0.78 -2.15,1.38 -3.28,1.8 -1.12,0.42 -2.25,0.66 -3.37,0.71 -2.17,0.11 -4.18,-0.63 -6.03,-2.22 -1.85,-1.58 -3.13,-4.47 -3.83,-8.66 -0.14,-0.72 -0.06,-1.34 0.24,-1.87 0.3,-0.52 0.65,-0.65 1.01,-0.37 0.66,1.14 1.63,1.49 2.91,1.06 1.28,-0.43 2.67,-1.3 4.18,-2.61 1.51,-1.31 3,-2.92 4.48,-4.8 1.48,-1.9 2.79,-3.85 3.94,-5.87 1.14,-2.03 1.97,-3.92 2.47,-5.7 0.51,-1.77 0.54,-3.16 0.1,-4.15 -1.1,-2.43 -2.27,-4.7 -3.52,-6.82 -1.25,-2.12 -2.38,-4.32 -3.41,-6.61 -1.02,-2.28 -1.82,-4.75 -2.38,-7.43 -0.58,-2.67 -0.73,-5.75 -0.46,-9.26zm-384.76 1.58c-0.04,3.5 -0.7,7.83 -1.99,12.99 -1.29,5.16 -3.14,10.38 -5.55,15.67 -2.41,5.29 -5.36,10.13 -8.85,14.52 -3.49,4.39 -7.41,7.5 -11.77,9.31 0.11,3.93 0.68,6.74 1.71,8.44 1.17,1.83 2.62,2.71 4.34,2.63 1.8,-0.09 3.79,-1.09 5.97,-3.02 2.19,-1.93 4.41,-4.4 6.65,-7.43 2.24,-3.02 4.46,-6.37 6.67,-10.04 2.21,-3.68 4.25,-7.24 6.11,-10.68 1.87,-3.44 3.49,-6.58 4.87,-9.41 1.37,-2.83 2.41,-4.99 3.1,-6.48 0.77,-1.64 1.36,-2.8 1.78,-3.48 0.42,-0.67 0.74,-1.02 0.96,-1.03 0.45,-0.02 0.55,0.92 0.31,2.83 -0.25,1.9 -0.57,3.52 -0.95,4.85 -0.78,2.66 -1.82,6.02 -3.14,10.09 -1.31,4.07 -2.84,8.33 -4.57,12.78 -1.73,4.46 -3.63,8.88 -5.69,13.28 -2.07,4.4 -4.23,8.33 -6.47,11.79 -2.24,3.45 -4.55,6.23 -6.93,8.31 -2.38,2.08 -4.69,2.96 -6.93,2.63 -1.12,0.05 -2.7,-0.52 -4.75,-1.74 -2.04,-1.21 -4.06,-3.16 -6.05,-5.83 -1.99,-2.67 -3.75,-6.01 -5.27,-10.01 -1.53,-4.01 -2.3,-8.85 -2.31,-14.53 -0.09,-5.53 0.27,-11.05 1.08,-16.55 0.81,-5.5 1.87,-10.8 3.2,-15.89 1.33,-5.09 2.85,-9.83 4.58,-14.21 1.73,-4.38 3.53,-8.18 5.4,-11.4 1.87,-3.22 3.69,-5.75 5.46,-7.59 1.78,-1.83 3.42,-2.79 4.91,-2.86 1.64,0.07 3.32,0.71 5.03,1.94 1.71,1.23 3.24,2.91 4.6,5.02 1.36,2.12 2.46,4.47 3.29,7.05 0.83,2.58 1.23,5.26 1.2,8.03zm-8.67 -7.01c-1.49,-0.51 -3.17,0.78 -5.03,3.85 -1.87,3.08 -3.71,7.06 -5.51,11.95 -1.82,4.89 -3.46,10.36 -4.95,16.41 -1.49,6.04 -2.59,11.7 -3.32,16.98 3.02,-3.06 5.76,-7.34 8.22,-12.85 2.45,-5.5 4.51,-10.92 6.17,-16.25 1.67,-5.33 2.89,-9.97 3.69,-13.94 0.79,-3.97 1.04,-6.02 0.74,-6.16zm58.71 6.34c-0.55,2.36 -1.29,5.24 -2.23,8.63 -0.93,3.4 -1.91,7.01 -2.92,10.85 -1.01,3.84 -2.01,7.71 -2.99,11.62 -0.98,3.91 -1.82,7.44 -2.53,10.61 -0.71,3.17 -1.22,5.89 -1.55,8.16 -0.32,2.27 -0.3,3.62 0.07,4.04 0.74,0.84 1.77,0.64 3.09,-0.59 1.32,-1.23 2.8,-3.09 4.44,-5.57 1.63,-2.49 3.31,-5.37 5.03,-8.66 1.72,-3.29 3.38,-6.54 4.98,-9.75 1.6,-3.21 3.04,-6.16 4.3,-8.84 1.26,-2.68 2.24,-4.77 2.93,-6.26 1.38,-2.84 2.25,-4.26 2.62,-4.28 0.38,-0.02 0.37,0.96 -0.03,2.95 -0.39,1.98 -0.75,3.64 -1.06,4.96 -0.39,1.77 -1.06,4.31 -1.99,7.63 -0.93,3.33 -2.06,6.98 -3.37,10.98 -1.32,4 -2.8,8.08 -4.45,12.23 -1.65,4.16 -3.34,7.95 -5.06,11.39 -1.72,3.44 -3.47,6.21 -5.25,8.34 -1.78,2.13 -3.49,3.08 -5.14,2.87 -2.01,-0.63 -3.73,-1.97 -5.17,-4.01 -1.43,-2.04 -2.61,-4.39 -3.51,-7.04 -0.91,-2.65 -1.55,-5.5 -1.93,-8.53 -0.38,-3.04 -0.55,-5.8 -0.53,-8.28l-0.11 0.22c-2.24,6.08 -4.2,11.13 -5.89,15.14 -1.69,4.01 -3.18,7.18 -4.48,9.5 -1.3,2.32 -2.43,3.98 -3.42,4.97 -0.98,0.99 -1.88,1.51 -2.71,1.55 -1.04,0.05 -2.18,-0.48 -3.4,-1.58 -1.22,-1.1 -2.35,-2.69 -3.37,-4.76 -1.02,-2.06 -1.88,-4.53 -2.55,-7.41 -0.68,-2.88 -1,-6.07 -0.96,-9.57 0.11,-3.5 0.55,-7.49 1.31,-11.97 0.76,-4.48 1.71,-9.15 2.84,-14.02 1.14,-4.86 2.4,-9.73 3.8,-14.6 1.4,-4.87 2.8,-9.46 4.19,-13.75 1.39,-4.29 2.74,-8.11 4.05,-11.45 1.31,-3.34 2.46,-5.98 3.45,-7.93 0.68,-0.76 1.5,-0.73 2.47,0.1 0.96,0.83 1.82,2.1 2.59,3.81 0.77,1.71 1.34,3.69 1.73,5.93 0.39,2.24 0.35,4.46 -0.13,6.67 -0.24,1.18 -0.84,3.39 -1.81,6.64 -0.97,3.25 -2.1,7.06 -3.38,11.42 -1.28,4.36 -2.6,8.94 -3.96,13.74 -1.36,4.8 -2.57,9.3 -3.62,13.5 -1.05,4.21 -1.84,7.78 -2.36,10.72 -0.52,2.94 -0.55,4.69 -0.11,5.25 0.45,0.56 1.23,0.27 2.37,-0.88 1.14,-1.15 2.56,-3.29 4.28,-6.43 1.72,-3.14 3.71,-7.35 5.97,-12.63 2.26,-5.28 4.74,-11.7 7.44,-19.26 1.79,-5.91 3.57,-11.97 5.36,-18.17 1.79,-6.2 3.68,-11.9 5.68,-17.1 1.06,-0.92 2.1,-0.72 3.13,0.61 1.03,1.34 1.93,3.08 2.69,5.22 0.77,2.15 1.3,4.41 1.61,6.81 0.31,2.39 0.23,4.32 -0.23,5.8l-0.23 0.45zm8.59 14.88c0.35,-4.53 1.3,-9.31 2.85,-14.34 1.55,-5.03 3.36,-9.66 5.43,-13.92 2.06,-4.25 4.17,-7.77 6.34,-10.58 2.16,-2.8 4.02,-4.23 5.6,-4.31 0.97,-0.05 1.99,0.34 3.07,1.16 1.08,0.82 2.07,1.8 3,2.92 0.92,1.12 1.71,2.39 2.37,3.82 0.66,1.42 1.02,2.64 1.08,3.66 -0.01,0.73 -0.13,1.54 -0.36,2.42 -0.24,0.88 -0.65,1.19 -1.25,0.93 -0.97,0.2 -2.14,1.09 -3.5,2.68 -1.36,1.59 -2.75,3.67 -4.16,6.21 -1.41,2.55 -2.77,5.38 -4.07,8.5 -1.3,3.13 -2.4,6.2 -3.29,9.23 -0.9,3.03 -1.5,5.9 -1.83,8.61 -0.33,2.71 -0.24,4.93 0.27,6.65 0.5,1.57 1.14,3.22 1.91,4.93 0.77,1.71 1.57,3.38 2.41,5.02 0.84,1.63 1.61,3.2 2.3,4.69 0.69,1.5 1.26,2.81 1.7,3.96 0.73,2.15 0.87,4.65 0.43,7.52 -0.44,2.86 -1.32,5.74 -2.62,8.65 -1.31,2.91 -2.91,5.64 -4.8,8.21 -1.9,2.57 -3.86,4.63 -5.9,6.18 -1.06,0.78 -2.15,1.38 -3.27,1.8 -1.12,0.42 -2.25,0.65 -3.37,0.71 -2.18,0.11 -4.18,-0.63 -6.03,-2.22 -1.85,-1.58 -3.13,-4.47 -3.83,-8.66 -0.14,-0.72 -0.06,-1.35 0.24,-1.87 0.31,-0.52 0.65,-0.65 1.02,-0.37 0.66,1.13 1.63,1.48 2.91,1.06 1.28,-0.42 2.67,-1.3 4.18,-2.6 1.51,-1.31 3,-2.91 4.48,-4.8 1.48,-1.9 2.79,-3.85 3.93,-5.87 1.14,-2.02 1.97,-3.92 2.47,-5.69 0.5,-1.77 0.54,-3.16 0.1,-4.15 -1.1,-2.43 -2.27,-4.7 -3.51,-6.82 -1.25,-2.12 -2.38,-4.33 -3.41,-6.61 -1.02,-2.28 -1.82,-4.75 -2.39,-7.42 -0.57,-2.67 -0.72,-5.75 -0.46,-9.26zm57.42 53.81c-0.11,-3.63 0.62,-7.31 2.19,-11.03 1.57,-3.72 3.48,-7.09 5.71,-10.11 2.24,-3.02 4.57,-5.5 6.98,-7.44 2.41,-1.94 4.41,-2.94 5.98,-3.02 0.37,-0.02 0.25,0.82 -0.36,2.53 -0.62,1.71 -1.46,3.89 -2.54,6.57 -1.07,2.68 -2.27,5.61 -3.57,8.8 -1.31,3.2 -2.46,6.24 -3.46,9.13 -1.01,2.89 -1.76,5.47 -2.27,7.76 -0.51,2.28 -0.51,3.77 0.01,4.48 0.89,1.12 2.43,1.38 4.64,0.76 2.21,-0.62 4.75,-1.9 7.61,-3.86 2.86,-1.96 5.84,-4.43 8.94,-7.42 3.1,-2.99 5.98,-6.22 8.63,-9.7 2.65,-3.48 4.9,-7.05 6.73,-10.71 1.83,-3.65 2.92,-7.17 3.25,-10.53 0.09,-1.17 -0.41,-2.24 -1.48,-3.2 -1.07,-0.96 -2.52,-1.85 -4.34,-2.63 -1.83,-0.78 -3.87,-1.56 -6.15,-2.32 -2.27,-0.76 -4.56,-1.53 -6.87,-2.29 -2.31,-0.77 -4.5,-1.6 -6.59,-2.53 -2.08,-0.92 -3.79,-1.93 -5.13,-3.03 -0.96,-0.83 -1.97,-2.53 -3.03,-5.1 -1.06,-2.57 -2.02,-5.66 -2.87,-9.25 -0.86,-3.6 -1.56,-7.61 -2.11,-12.03 -0.55,-4.42 -0.8,-8.96 -0.75,-13.62 0.05,-4.52 0.51,-9.35 1.39,-14.49 1.1,-4.86 2.71,-9.96 4.82,-15.31 2.11,-5.34 4.56,-10.6 7.35,-15.75 2.78,-5.16 5.81,-10.11 9.08,-14.86 3.27,-4.75 6.58,-9.03 9.95,-12.83 3.37,-3.81 6.71,-6.92 10.03,-9.34 3.32,-2.41 6.4,-3.98 9.25,-4.7 2.55,-0.27 4.88,0.45 6.99,2.17 2.12,1.72 3.94,3.96 5.48,6.73 1.54,2.76 2.69,5.92 3.43,9.45 0.75,3.53 1.03,6.9 0.84,10.12 -0.22,6.71 -1.15,13.38 -2.79,20.02 -1.64,6.63 -3.69,12.63 -6.14,18 -2.45,5.36 -5.19,9.79 -8.22,13.29 -3.03,3.49 -6.08,5.32 -9.15,5.46 -1.72,0.09 -3.28,-0.57 -4.69,-1.96 -1.41,-1.39 -2.35,-3.52 -2.85,-6.41 -0.21,-1.16 -0.26,-2.06 -0.14,-2.72 0.12,-0.66 0.47,-0.79 1.07,-0.38 1.85,1.37 3.8,1.09 5.84,-0.83 2.04,-1.92 4.01,-4.78 5.92,-8.59 1.91,-3.81 3.66,-8.16 5.25,-13.04 1.59,-4.88 2.91,-9.54 3.96,-13.96 1.06,-4.42 1.73,-8.32 2.03,-11.68 0.3,-3.37 0.08,-5.39 -0.66,-6.09 -0.82,-0.54 -2.13,-0.34 -3.93,0.63 -1.81,0.96 -3.94,2.6 -6.39,4.89 -2.45,2.31 -5.12,5.17 -8,8.58 -2.88,3.42 -5.76,7.16 -8.65,11.23 -3.57,5.27 -6.99,10.86 -10.27,16.77 -3.28,5.91 -6.05,11.51 -8.31,16.79 -2.27,5.28 -3.83,9.98 -4.7,14.1 -0.87,4.12 -0.67,7.02 0.58,8.71 0.52,0.7 1.46,1.46 2.84,2.27 1.38,0.81 2.99,1.6 4.85,2.38 1.86,0.79 3.85,1.56 5.98,2.34 2.12,0.77 4.15,1.58 6.09,2.43 1.94,0.86 3.7,1.75 5.3,2.69 1.6,0.95 2.84,1.91 3.73,2.88 1.4,1.68 2.65,3.81 3.75,6.38 1.09,2.57 1.98,5.37 2.66,8.39 0.68,3.03 1.19,6.24 1.52,9.65 0.34,3.41 0.49,6.71 0.46,9.92 -0.08,7.43 -1.04,13.52 -2.89,18.27 -2,5.05 -4.35,9.64 -7.05,13.78 -2.7,4.14 -5.6,7.74 -8.7,10.8 -3.1,3.06 -6.3,5.52 -9.61,7.35 -3.31,1.83 -6.57,2.9 -9.79,3.2 -2.69,0.28 -5.08,-0.41 -7.16,-2.06 -2.07,-1.65 -3.81,-3.82 -5.2,-6.52 -1.39,-2.7 -2.45,-5.67 -3.16,-8.92 -0.71,-3.24 -1.09,-6.39 -1.13,-9.45zm91.62 -102.09c0.82,0.25 1.76,0.86 2.84,1.83 1.08,0.96 2.15,2.26 3.21,3.89 1.07,1.62 2.1,3.46 3.08,5.53 0.99,2.06 1.81,4.24 2.45,6.54 1.27,0.38 2.65,0.67 4.14,0.89 1.5,0.22 2.99,0.4 4.48,0.54 1.49,0.15 2.89,0.19 4.2,0.13 1.32,-0.07 2.42,-0.19 3.31,-0.38 2.33,-0.7 4.34,-1.59 6.03,-2.69 1.7,-1.11 2.65,-1.52 2.87,-1.23 0.3,0.42 0.31,1.11 0.03,2.07 -0.27,0.96 -0.68,2 -1.21,3.12 -0.54,1.12 -1.15,2.2 -1.83,3.26 -0.68,1.05 -1.29,1.88 -1.82,2.49 -2.19,2.44 -4.94,4.35 -8.25,5.75 -3.3,1.4 -6.67,2.18 -10.12,2.35 -0.08,7 -0.77,14.53 -2.1,22.61 -1.32,8.07 -3.16,15.55 -5.51,22.44 -2.36,6.89 -5.19,12.56 -8.49,17.01 -3.3,4.46 -6.93,6.49 -10.89,6.1 -1.2,-0.09 -2.57,-0.86 -4.13,-2.31 -1.56,-1.45 -3.03,-3.39 -4.42,-5.8 -1.4,-2.41 -2.58,-5.22 -3.55,-8.46 -0.98,-3.23 -1.48,-6.66 -1.52,-10.3 -0.18,-4.94 0.07,-9.94 0.72,-15 0.65,-5.06 1.49,-9.87 2.51,-14.44 1.02,-4.56 2.17,-8.66 3.44,-12.29 1.28,-3.64 2.48,-6.49 3.63,-8.59 1.37,-2.54 3.04,-4.56 5,-6.03 1.96,-1.48 3.5,-2.17 4.62,-2.08 0.43,-4.82 1.26,-8.98 2.49,-12.46 1.23,-3.48 2.82,-4.98 4.76,-4.49zm-0.99 60.57c1.33,-5.02 2.39,-9.91 3.19,-14.68 0.8,-4.77 1.33,-9.06 1.6,-12.86 -1.94,-0.63 -3.71,-1.57 -5.3,-2.8 -1.59,-1.23 -2.83,-2.78 -3.71,-4.63 -1.38,2.54 -2.78,5.96 -4.21,10.26 -1.43,4.29 -2.71,8.87 -3.85,13.73 -1.14,4.86 -2.06,9.68 -2.79,14.45 -0.72,4.77 -1.1,8.98 -1.14,12.62 -0.05,4.66 0.51,7.63 1.7,8.88 1.04,0.83 2.18,0.77 3.42,-0.17 1.24,-0.93 2.51,-2.56 3.81,-4.89 1.3,-2.32 2.56,-5.18 3.79,-8.59 1.24,-3.41 2.4,-7.18 3.49,-11.31zm46.53 1.9c0.5,-5.12 1.44,-10.88 2.82,-17.29 1.38,-6.4 3.19,-13.15 5.44,-20.25 -1.3,2.25 -3.07,5.53 -5.32,9.87 -2.26,4.34 -4.64,9.44 -7.18,15.32 -2.53,5.88 -5.05,12.41 -7.56,19.59 -2.51,7.19 -4.63,14.83 -6.36,22.92 -0.01,0.58 -0.05,1.24 -0.13,1.98 -0.08,0.73 -0.46,0.96 -1.13,0.71 -0.82,-0.11 -1.73,-0.93 -2.72,-2.49 -0.99,-1.56 -1.91,-3.37 -2.74,-5.44 -0.84,-2.07 -1.51,-4.22 -2.01,-6.46 -0.5,-2.23 -0.7,-4.23 -0.61,-5.98 0.19,-3.5 0.66,-7.53 1.42,-12.09 0.76,-4.55 1.69,-9.29 2.79,-14.23 1.1,-4.93 2.31,-9.87 3.64,-14.81 1.33,-4.94 2.65,-9.63 3.96,-14.06 1.32,-4.43 2.56,-8.39 3.72,-11.87 1.15,-3.48 2.16,-6.19 3,-8.12 0.3,-0.6 0.96,-0.59 1.96,0.02 1,0.61 2.02,1.62 3.05,3.02 1.03,1.41 1.89,2.93 2.59,4.57 0.69,1.64 0.92,3.12 0.68,4.44 -0.16,0.88 -0.53,2.39 -1.11,4.54 -0.59,2.14 -1.26,4.54 -2.04,7.2 -0.78,2.66 -1.58,5.54 -2.39,8.64 -0.82,3.09 -1.58,6.12 -2.29,9.07 2.15,-4.91 4.54,-9.8 7.17,-14.66 2.63,-4.86 5.17,-9.2 7.6,-13.04 2.43,-3.83 4.62,-7 6.55,-9.49 1.94,-2.49 3.24,-3.91 3.91,-4.23 0.98,-0.19 1.91,0.38 2.79,1.73 0.88,1.34 1.65,3.01 2.3,5.02 0.65,2.01 1.13,4.17 1.44,6.48 0.31,2.32 0.38,4.35 0.21,6.11l-0.01 0.65c-0.55,2.21 -1.31,5.09 -2.28,8.64 -0.97,3.54 -2.02,7.35 -3.15,11.4 -1.13,4.06 -2.28,8.16 -3.44,12.29 -1.17,4.14 -2.16,7.97 -2.99,11.5 -0.82,3.53 -1.45,6.48 -1.89,8.83 -0.44,2.35 -0.47,3.81 -0.1,4.37 0.59,0.7 1.43,0.59 2.52,-0.34 1.1,-0.93 2.35,-2.37 3.75,-4.33 1.4,-1.96 2.92,-4.29 4.56,-6.99 1.64,-2.7 3.3,-5.62 4.97,-8.76 1.98,-3.59 3.85,-7.14 5.61,-10.65 1.76,-3.51 3.25,-6.53 4.47,-9.07 1.38,-2.83 2.26,-4.26 2.63,-4.28 0.37,-0.02 0.38,0.97 0.03,2.95 -0.36,1.98 -0.73,3.64 -1.12,4.97 -0.47,1.77 -1.21,4.32 -2.22,7.64 -1,3.33 -2.21,6.99 -3.59,10.99 -1.39,4 -2.91,8.11 -4.56,12.35 -1.65,4.23 -3.38,8.03 -5.17,11.39 -1.79,3.36 -3.58,6.11 -5.36,8.23 -1.78,2.13 -3.49,3.08 -5.13,2.87 -2.31,-0.33 -4.22,-1.72 -5.73,-4.2 -1.5,-2.48 -2.69,-5.33 -3.55,-8.57 -0.86,-3.24 -1.42,-6.56 -1.69,-9.96 -0.26,-3.41 -0.27,-6.29 -0.02,-8.63z"/>
  <path class="fil6" d="M225.86 267.22l13.55 0.05 19.23 138.44 -21.09 -0.08 -10.21 -92.64 -31.73 92.48 -21.01 -0.09 51.26 -138.16zm-26.47 92.79l45.44 0.18 -2.73 23.57 -45.44 -0.18 2.73 -23.57zm157.11 -17.18c0.51,-4.45 0.09,-7.86 -1.33,-10.3 -1.39,-2.41 -3.67,-3.62 -6.78,-3.63 -3.16,-0.01 -5.71,1.15 -7.63,3.44 -1.94,2.3 -3.15,5.64 -3.66,10.02l-0.64 -17.9c2.87,-6 6.31,-10.63 10.32,-13.83 3.99,-3.23 8.21,-4.84 12.62,-4.82 4.62,0.02 8.4,1.36 11.36,4.04 2.96,2.67 5,6.58 6.1,11.74 1.13,5.14 1.27,11.28 0.44,18.45l-7.66 66.1 -20.48 -0.08 7.32 -63.24zm-75.62 -35.8l20.45 0.08 -11.44 98.72 -20.45 -0.08 11.44 -98.73zm35.78 35.64c0.52,-4.45 0.06,-7.86 -1.41,-10.3 -1.45,-2.41 -3.78,-3.62 -6.99,-3.64 -3.08,-0.01 -5.54,1.05 -7.39,3.22 -1.87,2.13 -3.02,5.22 -3.48,9.21l0.36 -17.15c2.71,-5.93 5.92,-10.5 9.65,-13.64 3.74,-3.17 7.83,-4.74 12.24,-4.72 4.57,0.02 8.32,1.33 11.29,3.91 2.97,2.58 5,6.35 6.13,11.32 1.09,5.01 1.25,11.02 0.43,18.07l-7.76 67.04 -20.4 -0.08 7.32 -63.24zm85.9 -74.76l20.37 0.08 -2.87 24.74 -20.37 -0.08 2.86 -24.74zm-4.58 39.57l20.37 0.08 -11.44 98.73 -20.37 -0.08 11.44 -98.73zm47.18 139.1c-7.73,-0.03 -13.62,-2.16 -17.67,-6.43 -4.05,-4.27 -6.13,-10.58 -6.25,-18.96l0 0 20.36 -7.62 0 0c0.29,3.22 1.15,5.69 2.52,7.38 1.4,1.7 3.24,2.51 5.5,2.52 2.65,0.01 4.93,-1.02 6.79,-3.09 1.89,-2.1 3.02,-4.99 3.45,-8.66l12.04 -103.95 20.32 0.08 -11.93 103.01c-0.88,7.6 -2.85,14.05 -5.91,19.36 -3.04,5.35 -7.04,9.39 -11.99,12.2 -4.95,2.8 -10.69,4.18 -17.22,4.15zm-1.9 -38.62c-4.57,-0.02 -8.31,-1.4 -11.24,-4.14 -2.92,-2.74 -4.93,-6.74 -6,-11.97 -1.09,-5.24 -1.22,-11.54 -0.37,-18.87l3.69 -31.88c0.85,-7.34 2.43,-13.66 4.74,-18.91 2.28,-5.25 5.21,-9.23 8.77,-11.95 3.56,-2.72 7.62,-4.07 12.18,-4.05 3.88,0.02 7.28,1.59 10.19,4.75 2.9,3.16 5.05,7.59 6.4,13.31l-3.64 17.2c0.31,-2.67 0.22,-4.94 -0.3,-6.79 -0.5,-1.89 -1.37,-3.28 -2.64,-4.26 -1.27,-0.95 -2.86,-1.44 -4.77,-1.45 -2.97,-0.01 -5.4,1.22 -7.37,3.71 -1.93,2.46 -3.18,5.93 -3.71,10.44l-3.27 28.24c-0.51,4.38 -0.07,7.76 1.3,10.17 1.34,2.44 3.51,3.65 6.54,3.66 1.91,0.01 3.61,-0.47 5.1,-1.41 1.49,-0.94 2.69,-2.33 3.61,-4.14 0.95,-1.79 1.55,-3.99 1.85,-6.58l-0.99 17.95c-2.11,5.38 -4.93,9.56 -8.44,12.54 -3.51,2.97 -7.4,4.45 -11.65,4.44zm83.11 0.23c-6.24,-0.03 -11.39,-1.44 -15.48,-4.18 -4.09,-2.78 -7,-6.82 -8.73,-12.05 -1.73,-5.24 -2.17,-11.57 -1.31,-18.97l3.71 -32.04c0.84,-7.3 2.74,-13.53 5.67,-18.69 2.93,-5.15 6.76,-9.07 11.48,-11.74 4.72,-2.68 10.19,-4.02 16.43,-3.99 6.27,0.02 11.48,1.41 15.6,4.12 4.12,2.71 7.04,6.66 8.75,11.82 1.69,5.17 2.13,11.41 1.29,18.71l-3.75 32.34c-0.85,7.34 -2.75,13.63 -5.63,18.82 -2.91,5.18 -6.74,9.13 -11.5,11.84 -4.75,2.71 -10.27,4.06 -16.54,4.03zm2.69 -23.22c3,0.01 5.44,-1.08 7.34,-3.25 1.87,-2.17 3.06,-5.28 3.52,-9.28l3.52 -30.42c0.46,-3.93 -0.02,-6.98 -1.39,-9.13 -1.39,-2.18 -3.58,-3.26 -6.58,-3.27 -2.97,-0.01 -5.41,1.05 -7.31,3.22 -1.92,2.13 -3.1,5.18 -3.55,9.11l-3.52 30.42c-0.46,3.99 -0,7.11 1.36,9.3 1.4,2.18 3.58,3.29 6.61,3.3zm96.17 -1.7l20.93 0.08c4.81,0.02 8.73,-1.49 11.74,-4.53 2.98,-3.04 4.81,-7.35 5.45,-12.91l6.43 -55.55c0.65,-5.58 -0.18,-9.91 -2.46,-12.97 -2.3,-3.06 -5.87,-4.57 -10.68,-4.59l-20.93 -0.08 2.77 -23.89 21.62 0.08c7.46,0.03 13.65,1.65 18.54,4.85 4.92,3.17 8.4,7.79 10.46,13.88 2.08,6.08 2.62,13.36 1.64,21.83l-6.65 57.46c-0.95,8.25 -3.13,15.38 -6.52,21.44 -3.41,6.03 -7.93,10.69 -13.6,13.98 -5.69,3.26 -12.34,4.89 -19.96,4.86l-21.54 -0.08 2.76 -23.86zm1.49 -114.48l20.32 0.08 -16.02 138.3 -20.32 -0.08 16.02 -138.3zm97.96 140.18c-6.24,-0.02 -11.39,-1.44 -15.48,-4.18 -4.09,-2.78 -7,-6.82 -8.73,-12.05 -1.73,-5.24 -2.17,-11.57 -1.31,-18.97l3.71 -32.04c0.84,-7.31 2.74,-13.53 5.67,-18.69 2.93,-5.16 6.76,-9.07 11.48,-11.74 4.72,-2.68 10.19,-4.02 16.43,-4 6.27,0.02 11.48,1.41 15.6,4.12 4.13,2.71 7.04,6.66 8.75,11.82 1.69,5.17 2.13,11.41 1.29,18.71l-3.75 32.34c-0.85,7.34 -2.75,13.63 -5.63,18.82 -2.91,5.18 -6.74,9.13 -11.49,11.84 -4.75,2.71 -10.27,4.06 -16.54,4.03zm2.69 -23.21c3,0.01 5.44,-1.08 7.34,-3.25 1.87,-2.17 3.06,-5.28 3.52,-9.28l3.52 -30.42c0.45,-3.93 -0.02,-6.98 -1.39,-9.13 -1.4,-2.18 -3.58,-3.26 -6.58,-3.27 -2.97,-0.01 -5.41,1.05 -7.31,3.22 -1.92,2.14 -3.1,5.18 -3.55,9.11l-3.52 30.42c-0.46,3.99 -0,7.11 1.36,9.3 1.4,2.18 3.58,3.29 6.61,3.31zm68.57 23.49c-5.44,-0.02 -10.22,-0.98 -14.31,-2.85 -4.08,-1.9 -7.35,-4.64 -9.84,-8.19 -2.46,-3.55 -4.01,-7.85 -4.62,-12.85l0 0 17.69 -10.71 0 0c1.15,3.83 3.04,6.77 5.62,8.82 2.6,2.09 5.67,3.14 9.25,3.16 3.22,0.01 5.82,-0.73 7.86,-2.21 2,-1.48 3.16,-3.46 3.45,-5.93 0.26,-2.18 -0.1,-3.9 -1.04,-5.2 -0.94,-1.3 -2.21,-2.28 -3.78,-2.91 -1.59,-0.66 -3.88,-1.38 -6.83,-2.24 -0.69,-0.23 -1.38,-0.46 -2.05,-0.66 -0.69,-0.2 -1.36,-0.4 -2,-0.6 -0.21,-0.06 -0.39,-0.1 -0.54,-0.13 -0.13,-0.03 -0.31,-0.1 -0.52,-0.17 -4.4,-1.41 -8.02,-2.99 -10.9,-4.78 -2.85,-1.8 -5.08,-4.6 -6.67,-8.44 -1.6,-3.84 -2.04,-9.04 -1.28,-15.56 0.72,-6.23 2.49,-11.62 5.3,-16.15 2.81,-4.57 6.49,-8.06 11.07,-10.48 4.56,-2.42 9.77,-3.63 15.61,-3.61 4.94,0.02 9.28,0.91 13,2.71 3.75,1.8 6.78,4.38 9.06,7.8 2.32,3.39 3.78,7.49 4.43,12.23l0 0 -17.43 10.13 0 0c-0.98,-3.25 -2.49,-5.76 -4.57,-7.59 -2.07,-1.83 -4.54,-2.75 -7.38,-2.76 -2.97,-0.01 -5.39,0.66 -7.25,2.02 -1.89,1.36 -2.95,3.2 -3.21,5.47 -0.23,2.01 0.18,3.67 1.24,4.91 1.06,1.24 2.43,2.19 4.13,2.87 1.7,0.66 4.14,1.41 7.26,2.27 0.21,0.03 0.41,0.1 0.65,0.13 0.21,0.03 0.47,0.07 0.7,0.13 0.1,0.07 0.2,0.13 0.3,0.17 0.1,0.03 0.21,0.03 0.31,0.03 4.97,1.35 8.99,2.86 12.1,4.46 3.08,1.64 5.54,4.5 7.35,8.57 1.84,4.07 2.36,9.72 1.51,17.03 -0.73,6.33 -2.59,11.85 -5.53,16.54 -2.96,4.67 -6.86,8.29 -11.69,10.8 -4.84,2.52 -10.32,3.76 -16.43,3.74z"/>
 </g>
</svg>
