<?xml version="1.0" encoding="UTF-8"?>
<!DOCTYPE svg PUBLIC "-//W3C//DTD SVG 1.1//EN" "http://www.w3.org/Graphics/SVG/1.1/DTD/svg11.dtd">
<!-- Creator: CorelDRAW 2020 (64 Bit) -->
<svg xmlns="http://www.w3.org/2000/svg" xml:space="preserve" width="34.5865mm" height="34.5872mm" version="1.1" style="shape-rendering:geometricPrecision; text-rendering:geometricPrecision; image-rendering:optimizeQuality; fill-rule:evenodd; clip-rule:evenodd"
viewBox="0 0 104.75 104.75"
 xmlns:xlink="http://www.w3.org/1999/xlink"
 xmlns:xodm="http://www.corel.com/coreldraw/odm/2003">
 <defs>
  <style type="text/css">
   <![CDATA[
    .fil0 {fill:#FEFEFE}
    .fil4 {fill:#009933}
    .fil1 {fill:#020205}
    .fil2 {fill:#FCFCFC}
    .fil5 {fill:red}
    .fil3 {fill:#FFFF01}
   ]]>
  </style>
 </defs>
 <g id="Camada_x0020_1">
  <metadata id="CorelCorpID_0Corel-Layer"/>
  <g id="_2420494778320">
   <path class="fil0" d="M60.93 0.4c9.09,1.1 17.65,3.95 24.57,10.12 1.99,1.78 3.65,3.68 5.36,5.71 0.37,0.44 1.79,2.16 2.3,2.36 1.97,0.71 4.21,1.56 5.24,3.53 0.53,1.01 0.63,2.07 0.66,3.19 0.04,1.15 0.04,2.27 0.14,3.41 0.1,1.13 1.09,3.32 1.54,4.4 0.57,1.34 1.17,2.7 1.62,4.08 2.46,7.52 2.99,15.81 1.69,23.6 -2.41,14.45 -10.18,26.87 -22.41,34.99 -11.04,7.32 -24.77,10.39 -37.87,8.31 -9.81,-1.56 -18.81,-5.95 -25.93,-12.9 -0.03,-0.03 -0.05,-0.05 -0.07,-0.08l-6.21 -6.59c-0.05,-0.06 -0.1,-0.11 -0.15,-0.17 -8.77,-11.13 -13.18,-26.95 -10.74,-40.96 0.37,-2.1 0.92,-3.96 1.72,-5.93 0.5,-1.24 1.04,-2.46 1.5,-3.72 0.08,-0.21 0.14,-0.43 0.18,-0.65 0.39,-1.88 -0.04,-4.45 0.05,-6.46 0.17,-3.65 1.58,-6.41 4.47,-8.68 1.72,-1.35 3.06,-1.93 5.24,-1.77 0.2,0.02 0.25,0.04 0.42,-0.04 0.73,-0.36 1.74,-1.38 2.29,-1.96 10.78,-11.29 29.29,-15.64 44.4,-13.81z"/>
   <path class="fil1" d="M60.63 2.94c23.86,2.89 27.58,16.59 31.67,18.06 5.26,1.88 3.88,2.47 4.36,7.96 0.19,2.19 2.39,6.34 3.28,9.05 2.26,6.92 2.87,14.8 1.6,22.39 -6.82,40.82 -55.99,54.3 -81.92,28.99l-6.21 -6.59c-6.89,-8.74 -12.9,-23.66 -10.23,-38.95 0.71,-4.07 1.87,-5.84 3.1,-9.2 1.66,-4.53 -1.96,-10.08 3.88,-14.65 3.98,-3.12 3.22,1.22 8.22,-4.02 9.12,-9.56 26,-15 42.24,-13.04z"/>
   <path class="fil2" d="M90.27 26.38c-2.66,4.47 -18.62,17.2 -23.86,19.09l0.54 -4.13c-1.05,0.97 -2.22,2.39 -3.12,3.07 -1.43,-1.4 -0.89,-1.66 -2.54,-2.98 -0.1,2 0.01,4.15 -0.6,5.54 -4.14,0.61 -8.19,-6.75 -13.36,-10.9 -5.84,-4.69 -17.16,-15 -23.4,-17.74 2.12,-4.26 10.64,-8.46 14.85,-9.91 12.9,-4.45 28,-2.55 39.38,4.82 4.1,2.65 10.43,8.14 12.14,13.14zm-31.25 25.15c-0.98,0.54 -1.3,1.64 -3.34,2.73 -1.71,0.92 -3.14,1.12 -4.54,2.14 7.38,0.03 10.41,-3.35 14.19,-5.62 2.56,1.13 2.48,2.51 6.41,2.79 -2.32,-1.45 -3.54,-1.64 -4.36,-4.46 9.2,0.28 17.84,-0.8 23.18,-8.25 1.96,-2.75 2.09,-4.69 3.53,-7.09 3.2,5.01 3.95,19.29 2.93,26.2 -1.26,8.6 -4.87,16.41 -9.27,21.53 -10.65,12.4 -25.22,19.8 -42.77,16.48 -26.78,-5.07 -41.4,-31.28 -37.32,-54.18 1.38,-7.71 5.85,-17.15 10.34,-20.52 -0.57,6.75 -1.7,10.68 1.11,16.83 9.75,21.28 35.1,11.09 39.89,11.41zm-36.28 3c1.74,0.68 4.28,2.66 6.38,3.84 15.84,8.86 47.3,7.14 62.29,0.94l-1.49 -1.75c2.29,0.24 3.66,0.54 4.91,1.76l-0.3 0.37c-0.05,0.07 -0.31,0.34 -0.38,0.45 -0.27,0.4 -0.34,-0.46 -0.77,1.83 -0.81,4.27 0.14,4.75 -2.61,11.76 -1.6,4.08 -5.22,9.26 -7.58,11.37 -6.74,6.03 -14.7,9.97 -26.6,11.04 -25.29,2.28 -32.37,-17.65 -34.83,-40.67l-2.35 2.23c0.73,-3.65 2.37,-5.68 6.25,-5.64 -1.21,0.28 -2.39,1.52 -2.9,2.46z"/>
   <path class="fil3" d="M63.63 87.03l0.53 5.89c1.68,-0.36 3.33,-0.83 4.98,-1.43l7.01 -3.5 -0.38 -5.45c-3.72,2.06 -7.82,3.6 -12.14,4.49zm-18.47 -45.16c1.81,1 11.28,7.33 11.95,8.33 -5.71,3.2 -40.9,8.76 -35.23,-20.93 10.13,3.5 7.44,7.23 9.44,10.28 3.38,5.15 8.23,4.78 13.85,2.32zm24.82 5.07l1.83 -2.37c9.7,2.05 5.93,-3.15 8.33,-6.08 0.36,-0.44 3.5,-2.89 4.22,-3.47 1.02,-0.82 1.01,-0.8 1.9,-1.72 1.15,-1.2 0.67,-1.38 2,-1.44 1.81,9.72 -10.68,16.57 -18.28,15.08zm4.69 19.75l-12.84 0.16 1.64 18.31c4.16,-0.76 8.24,-2.23 12.17,-4.49l-0.97 -13.97zm-14.78 0.61l-17.24 -0.4 3.33 17.48c5.17,1.31 10.31,1.72 15.34,1.1l-1.42 -18.18zm-13.41 19.74l1.1 5.78c4.84,1.01 9.65,1.21 14.34,0.51l-0.46 -5.9c-4.86,0.74 -9.94,0.67 -14.98,-0.38z"/>
   <path class="fil4" d="M76.52 82.12l0.42 5.49c0.08,-0.05 0.17,-0.1 0.25,-0.16l9.22 -8.78 -0.29 -4.44c-2.67,3.07 -5.93,5.74 -9.6,7.88zm10.34 -18.05c1.01,-0.51 2.02,-1.02 3.03,-1.53 0.21,1.93 0.32,3.63 0.33,5.13 -0.9,1.14 -1.81,2.22 -2.73,3.24 -0.35,-2.27 -0.81,-4.53 -0.62,-6.84zm3.34 4.3c-0.08,3.3 -0.78,5.58 -2.43,7.33 0.09,-1.14 0.03,-2.26 -0.11,-3.38 0.94,-1.26 1.79,-2.58 2.53,-3.94zm-4.73 -4.04l-10.17 1.89 1.08 14c3.32,-2 6.54,-4.57 9.63,-7.75l-0.53 -8.13z"/>
   <path class="fil5" d="M76.52 40.98c-0.82,0 -1.49,0.61 -1.49,1.36 0,0.75 0.67,1.36 1.49,1.36 0.82,0 1.49,-0.61 1.49,-1.36 0,-0.75 -0.67,-1.36 -1.49,-1.36zm-46.52 21.6c-1.9,-0.96 -3.8,-1.92 -5.7,-2.88 0.61,6.54 1.69,11.94 3.2,16.35 1.25,0.81 2.51,1.57 3.77,2.29l-1.28 -15.75zm-1.67 15.68c1.01,2.49 2.17,4.62 3.46,6.42l-0.33 -4.07c-1.06,-0.73 -2.11,-1.51 -3.13,-2.36zm12.52 -12.88l-9.68 -2.8 3.25 17.42c3.38,1.69 6.77,3.04 10.15,4l-3.72 -18.62zm-5.92 17.37l1 5.38 7.92 3.76c0.81,0.24 1.62,0.45 2.42,0.64l-1.16 -5.8c-3.45,-0.84 -6.87,-2.16 -10.19,-3.99zm1.66 -45.29c-0.82,0 -1.49,0.61 -1.49,1.36 0,0.75 0.67,1.36 1.49,1.36 0.82,0 1.49,-0.61 1.49,-1.36 0,-0.75 -0.67,-1.36 -1.49,-1.36z"/>
  </g>
 </g>
</svg>
