<?xml version="1.0" encoding="UTF-8"?>
<!DOCTYPE svg PUBLIC "-//W3C//DTD SVG 1.1//EN" "http://www.w3.org/Graphics/SVG/1.1/DTD/svg11.dtd">
<!-- Creator: CorelDRAW 2020 (64 Bit) -->
<svg xmlns="http://www.w3.org/2000/svg" xml:space="preserve" width="50.8245mm" height="17.9132mm" version="1.1" style="shape-rendering:geometricPrecision; text-rendering:geometricPrecision; image-rendering:optimizeQuality; fill-rule:evenodd; clip-rule:evenodd"
viewBox="0 0 453.9 159.98"
 xmlns:xlink="http://www.w3.org/1999/xlink"
 xmlns:xodm="http://www.corel.com/coreldraw/odm/2003">
 <defs>
  <style type="text/css">
   <![CDATA[
    .fil0 {fill:#FEFEFE}
    .fil1 {fill:black}
    .fil3 {fill:red}
    .fil2 {fill:white}
   ]]>
  </style>
 </defs>
 <g id="Camada_x0020_1">
  <metadata id="CorelCorpID_0Corel-Layer"/>
  <path class="fil0" d="M319.29 42.6c-9.26,-1.07 -13.06,-4.21 -12.91,-14.38 0.02,-1.38 0.35,-2.71 0.98,-3.93 3.12,-6.03 14.51,-8.17 20.58,-6.66 3.08,0.77 6.41,1.25 9.25,2.59 -1.06,-8.92 9.72,-19.84 23.81,-16.49 5.55,1.32 10.28,5 11.59,10.48 0.04,0.03 0.08,0.05 0.12,0.08 0.52,-8.35 8.44,-15.22 17.35,-14.18 7.25,0.85 19.65,3.97 19.4,13.43 -0.08,2.83 -1.43,5.28 -3.37,7.19 0.04,0.52 0.05,1.04 0.03,1.57 -0.36,8.7 -10.26,16.73 -10.17,21.5 0.04,1.18 0.16,2.17 0.24,3.12 2.68,-0.93 5.29,-1.64 7.57,-2.14 28.05,-6.16 47.91,12.55 50.01,39.97 0.75,9.85 -1.46,19.34 -8.54,26.55 -9.56,9.73 -24.78,12.05 -37.83,11.36 -4.67,-0.25 -8.16,-0.5 -12.37,-2.31 -1.78,0.17 -5.7,1.37 -7.21,1.78 -5.32,1.41 -11.17,-0.6 -16.2,-2.26 -5.22,-1.72 -10.2,-3.34 -15.62,-3.91 -5.84,5.65 -18.22,6.7 -25.43,6.2 -2.38,-0.17 -4.83,-0.85 -6.9,-2.1 -1.11,0.52 -2.25,0.98 -3.41,1.39 3.11,0.95 6.25,1.79 9.35,2.67 6.46,1.84 14.62,4.24 18.49,10.18 3.81,5.84 2.28,12.87 -0.23,18.88 -0.81,1.94 -2.08,3.58 -3.83,4.77 -5.52,3.77 -13.61,1.6 -19.37,-0.5 -2.88,-1.04 -5.69,-2.27 -8.48,-3.54 -1.61,-0.73 -3.51,-1.7 -5.17,-2.26 -9.34,-3.1 -20.32,-3.32 -30.08,-2.95 -5.49,0.21 -11.16,0.25 -16.62,0.79 -5.06,0.5 -10.08,1.6 -15.04,2.7 -4.73,1.06 -9.09,1.37 -13.61,-0.75 -2.85,-1.34 -5.04,-3.39 -6.23,-6.33 -1.45,-3.55 -1,-7.06 -1.03,-10.74l-3.3 -0.49c-4.27,12.95 -25,13.34 -27.41,1.06 -2.67,0.77 -5.66,0.83 -8.42,0.15 -0.87,2.41 -2.64,4.1 -4.89,5.32 -7.27,3.95 -23.98,1.19 -24.11,-9.31 -0,-0.19 -0,-0.38 0,-0.57 -5.97,-0.29 -12.16,-0.22 -18,-0.08 -4.5,0.11 -9.02,0.3 -13.5,0.69 -2.86,0.25 -6.41,0.58 -9.17,1.38 -8.18,2.4 -19.31,0.35 -22.16,-8.82 -0.82,-2.64 -0.64,-5.27 0.25,-7.69 -3.06,-1.64 -5.99,-3.55 -8.69,-5.7 -6.86,0.98 -18.04,1.65 -23.13,-1.56 -2.44,-1.54 -3.79,-3.28 -4.46,-5.31 -12.44,4.23 -23.9,4.81 -37.6,3.2 -13.69,-1.61 -23.64,-8.43 -23.82,-23.23 -0.19,-15.72 21.05,-31.44 35.12,-34.1 7.46,-1.41 16.22,-1.52 23.76,-0.64 5.85,0.69 10.36,1.67 14.74,5.44l1.52 0.2c0.14,-3.37 0.89,-6.73 3.38,-8.98 3.89,-3.51 12.11,-3.03 17.15,-3.42 5.63,-0.43 12.08,-0.07 15.86,4.75 3.86,4.92 3.31,12.43 7.42,18.33 3.09,4.43 7.42,8.34 11.62,11.99l14.98 -14.95c0.18,-0.18 0.34,-0.32 0.55,-0.46 2.54,-1.79 5.37,-2.95 8.36,-3.51 0.61,-3.85 0.95,-6.71 5.17,-9.96 6.99,-5.38 18.5,-3.78 26.71,-2.81 6.07,0.71 12.22,5.29 11.21,11.83 10.45,-0.61 22.46,1.88 32.54,1.5l24.67 -0.92c0.03,-0 0.06,-0 0.09,-0 2.89,-0.04 6,0.68 8.5,2.26 -0.88,-3.73 -1.28,-7.58 -1.28,-11.35 -0,-6.31 5.88,-9.94 11.59,-10.31 6.68,-0.44 18.61,-2.45 24.5,0.71 1.93,1.04 3.5,2.43 4.56,4.37 1.88,3.44 1.81,8.91 3.18,12.97 2.86,8.42 10.3,16.25 16.72,22.08 1.25,1.14 2.76,2.46 4.32,3.67l6.8 -13.68c-3.85,-1.54 -6.98,-4.6 -7.24,-9.07 -0.16,-2.76 1,-5.32 2.96,-7.22 0.11,-0.11 0.33,-0.34 0.46,-0.52 -0.68,-1.36 -4.91,-4.38 -5.96,-5.16 -1.59,-1.19 -3.23,-2.43 -4.67,-3.83z"/>
  <path class="fil1" d="M321.29 38.51c-9.61,-0.83 -10.74,-3.1 -10.64,-10.23 0.09,-6.56 13.02,-7.32 16.26,-6.52 4.49,1.12 9.54,1.53 11.53,5.01l7.52 1.99c-0.25,-1.4 -0.5,-2.8 -0.64,-4.23 -9.81,-4.87 0.35,-20.08 14.7,-16.66 4.49,1.07 8.43,4.11 8.66,8.97 2.66,1.32 4.64,3.39 6.13,5.88 0.92,-1.4 1.7,-2.86 2.74,-4.21 -2.68,-7.63 4.22,-15.1 12.02,-14.18 17.27,2.02 18.6,10.23 11.84,14.68 2.99,8.75 -9.88,16.95 -9.74,24.85 0.05,2.66 3.14,11.68 -11.21,11.27 0.15,2.67 0.35,5.35 0.63,8.03 2.57,-7.97 16.36,-12.66 23.57,-14.24 25.58,-5.62 42.93,11.25 44.84,36.13 1.98,25.85 -19.14,34.53 -41.88,33.31 -17.51,-0.93 -5.37,-4.51 -20.9,-0.39 -7.68,2.03 -18.19,-5.71 -32.6,-6.48 -3.67,6.06 -17.89,6.74 -23.27,6.37 -2.39,-0.17 -5.09,-1.06 -6.7,-2.9 -5.57,3.2 -12.17,4.48 -18.63,5.04 20.34,11.41 48.73,6.7 38.39,31.49 -4.46,10.68 -26.14,-2.13 -31.57,-3.93 -9.82,-3.26 -21.3,-3.55 -31.59,-3.16 -15.83,0.6 -17.54,0.27 -32.42,3.59 -3.74,0.84 -7.27,1.24 -10.87,-0.45 -5.9,-2.77 -4.75,-8.18 -4.81,-13.48 -0.02,-1.28 0.43,-2.36 1.16,-3.24l-12.22 -1.83c-0.15,13.14 -20.82,14.22 -19.83,2.57 -1.24,-0.27 -2.48,-0.74 -3.54,-1.45 -3.79,1.96 -9.77,1.4 -12.61,-1.91 -0.11,3.57 0.74,6.22 -3.27,8.4 -4.58,2.49 -17.72,1.13 -17.8,-5.61 -0.02,-1.52 0.17,-3.01 0.52,-4.48 -10.13,-0.85 -37.81,-0.73 -46.65,1.86 -12.52,3.67 -21.87,-5.74 -14.75,-14.24 -4.8,-2.13 -9.46,-4.97 -13.4,-8.38 -4.86,0.83 -17.66,2.14 -22.1,-0.66 -3.25,-2.05 -3.23,-4.37 -2.89,-7.72 -13.72,5.7 -25.58,6.78 -40.95,4.98 -11.72,-1.37 -19.9,-6.61 -20.05,-19.04 -0.15,-12.27 17.92,-27.26 31.64,-29.85 6.91,-1.3 15.48,-1.41 22.47,-0.6 5.53,0.65 9.44,1.44 13.35,5.25l7.81 1.02c-0.96,-13.92 2.85,-11.98 16.46,-13.02 18.42,-1.41 11.43,9.75 19.46,21.27 4.04,5.79 9.96,10.69 15.33,15.38l17.79 -17.75c2.82,-2 6.08,-2.99 9.52,-3.1 0.88,-3.97 0.26,-7.47 4.15,-10.46 5.7,-4.38 16.83,-2.75 23.61,-1.96 4.11,0.48 8.5,3.39 7.35,7.59l-1.39 5.09c10.19,-2.45 25.91,1.14 38.45,0.67l24.67 -0.92c3.01,-0.05 6.78,1.09 8.37,3.79 2.55,0.11 5.04,0.45 7.22,2.17 0.08,-0.13 0.15,-0.26 0.23,-0.39 -3.13,-5.71 -4.39,-12.49 -4.39,-18.94 -0,-3.91 4.23,-5.83 7.6,-6.05 6.57,-0.43 17.75,-2.17 22.2,0.21 8.79,4.71 -3.75,13.98 23.61,38.82 2.05,1.86 5.91,5.16 8.84,6.78l11.46 -23.06c-7.58,0.19 -11.88,-5.98 -7.62,-10.11 6.47,-6.29 -6.08,-10.87 -11.15,-16.66zm61.25 34.55c0.1,0.53 0.21,1.05 0.32,1.57l0.64 -0.12c-0.33,-0.47 -0.65,-0.95 -0.96,-1.45z"/>
  <path class="fil2" d="M347.4 101.54c0.1,-3.55 3.19,-8.21 4.55,-10.9 1.94,-3.83 3.15,-8 6.35,-8.97 2.06,2.64 3.49,7.9 5.21,11.11 2,3.74 6.22,7.46 7.42,10.1 -7.48,-0.88 -16.06,-0.47 -23.54,-1.35zm57.93 -20.69c10.69,1.25 11.65,1.04 19.82,0.92 0.15,12.42 0.55,19.2 -8.36,25.8 -14.21,-3.54 -14.35,-19.8 -11.46,-26.71zm-1.49 -21.31c11.8,-1.03 20.22,13.24 21.29,20.11 -8.25,-1.07 -11.54,-4.54 -15.91,-7.66 -5.94,-4.23 -5.3,-6.01 -5.37,-12.45zm-126.95 46.42c0.22,-0.09 0.54,-0.4 0.64,-0.26 0.11,0.14 0.53,-0.2 0.68,-0.24 1.4,-0.35 1,-0.25 2.38,-0.48 4.77,-0.07 6.93,-0.74 11.13,-0.81 -0.46,-2.95 -1.61,-8.99 -2.31,-11.75 -0.96,-3.81 0.84,-7.73 0.78,-12.38 4.29,1.15 13.01,10.61 16.64,13.72 5.94,5.08 -1.14,13.19 -5.62,14.79 -4.46,1.6 -9.84,3.01 -16.84,2.52 -5.92,-0.69 -5.15,-1.08 -9.93,-1.87 -2.46,0.38 -4.42,0.49 -7.42,0.54 2.67,2.37 0.8,0.96 4.98,2.7 9.53,2.38 7.18,0.84 16.12,1.89 13.16,-0.2 24.63,0.02 32.13,-5.39 2.88,-2.08 3.01,-3.55 9.86,-3.07 0.04,3.33 0.26,3.18 1.31,5.79 4.23,0.3 12.67,-1.35 13.1,-1.56 5.39,-2.67 -3.93,-5.14 8.25,-4.88 12.5,0.27 21.54,4.63 30.64,6.91 21.22,-5.63 9.2,-0.79 24.57,0.03 46.44,2.48 33.33,-41.01 22.92,-51.44 -15.23,-15.26 -39.26,0.57 -40.17,1.81 -1.9,2.6 -2.04,5.23 -0.32,8.08 2.38,3.94 4.29,4.25 7.44,7.27 -3.79,1.01 -8.22,2.02 -12.34,2.78 0.07,5.51 2.25,18.64 5.22,22.46 -4.25,-1.14 -4.14,-2.17 -6.53,-4.83 -11.1,-12.34 -12.57,-38.95 -12.72,-51.68 -4.96,0.78 -9.71,0.84 -14.83,1.78l0.21 17.64c-12.66,1.98 -6.99,-0.46 -16.41,17.51 -1.85,3.53 -3.61,7.04 -5.4,10.32 -4.07,7.45 -0.97,8.64 -8.71,8.76 0.39,-2.84 1.19,-3.7 1.15,-7.62 -8.34,-2.24 -21.1,-15.68 -25.01,-20.55 -7.89,-9.82 -9.52,-14.31 -11.45,-26.72l-16.02 1.04c0,5.26 0.85,10.16 2.91,14.87 2.35,5.39 2.89,2.52 0.25,7.48 -2.46,4.63 -4.04,14.23 -3.96,19.73 0.09,5.37 -1.46,11.96 2.66,15.11z"/>
  <path class="fil2" d="M171.59 99.25c-8.18,-0.96 -11.24,-2.23 -18.67,-2.82 -7.01,-0.56 -7.51,-0 -3.35,-4.45l9.73 -9.51c2.22,-1.76 0,-1.58 4.64,-1.74 0.1,8.51 2.42,12.35 7.65,18.51zm-78.08 -7.75c-0.04,-3 1.96,-9.09 3.58,-10.86 3.52,1.75 3.87,2.82 6.24,4.96 2.6,2.35 3.81,2.16 5.02,4.81 -4.91,0.08 -9.19,0.99 -14.84,1.08zm25 20.55c11.6,1.36 13.06,-0.94 21.03,-1.06 3.53,-2.61 6.97,-2.15 8.59,-6.04 -5.9,1.09 -12,3.57 -22.12,1.6 -6.78,-1.32 -14.48,-6.07 -15.1,-10.05l17.32 1.19c-3.44,8.24 5.32,3.96 16.15,4.71 0.06,-2.14 0.53,-2.51 1.19,-4.09 25.41,2.98 31.87,8.56 36.86,8.92 3.66,0.26 6.34,-0.79 11.52,-0.43 -1.73,-3.8 -6.51,-5.34 -9.28,-10.68 -3.72,-7.19 -4.69,-20.9 -3.39,-28.05l3.39 -12.39c-22.31,-2.62 -15.17,0.64 -18.86,10.24 -2.14,5.56 -5.71,-0.12 -11.05,3.66l-23.64 23.78c-2.75,2.46 -0.63,1.42 -6.46,1.19 -5.42,-0.22 -11.83,-0.08 -17.52,-0.75l-0.03 -2.12c11.25,1.32 13.45,-0.82 22.28,-0.21 -7.51,-7.19 -15.88,-13.04 -21.68,-21.35 -2.88,-4.13 -4.61,-8.79 -5.57,-13.1 -1.51,-6.8 0.97,-4.45 -14.07,-4.22 0.04,3.6 -0.21,6.81 0.78,10.29 1.08,3.8 3.01,6.1 3.17,9.2 -8.74,1.37 -6.5,-2.48 -9.75,3.85 -3.55,6.91 -8.57,16.44 -8.48,24.32 18.91,-0.29 14.13,-1.4 19.78,-1.91 4.25,5.01 13.77,11.66 24.92,13.49z"/>
  <path class="fil3" d="M139.55 110.99c-7.97,0.12 -9.43,2.42 -21.03,1.06 -1.05,0.77 -11.39,6.06 -8.02,9.99 1.77,2.06 4.37,0.31 7.7,-0.38 6.52,-1.35 36.04,-2.25 43.82,-1.64 6.37,0.5 7.02,0.78 12.31,0.69 1.33,3.62 -1.17,5.68 -1.11,10.44l3.72 0.44c-0.15,-12.57 2.12,-10.52 5.78,-10.76l3.82 -0.2c1.12,-0.09 -1.07,-0.17 2.65,-0.29l3.77 4.67c0.08,-2.87 0.7,-2.98 2.42,-4.65l7.44 0.87c1.68,2.16 1.26,1.51 1.29,4.38l1.19 -1.29c0.13,-0.11 0.27,-0.3 0.42,-0.41 0.15,-0.1 0.32,-0.28 0.48,-0.37 2.56,-1.4 -2.26,-1.08 4.06,-0.73 2.35,3.03 0.08,6.2 0.13,10.58 7.27,-5.15 -5.99,-13.34 18.41,-9.85l34.78 6.23c-2.61,1.74 -7.04,1.55 -11.14,2.2 -4.21,0.67 -7.11,1.5 -11.09,2.24 0.02,1.55 -0.18,3.56 -0.04,5.05 0.48,4.82 -0.45,3.45 12.88,0.9 7.01,-1.34 18,-1.69 25.82,-1.99 38.34,-1.47 43.29,9.29 55.6,11.32 5.19,-12.44 0.38,-12.6 -19.5,-18.09 -12.97,-3.58 -25.26,-11.16 -27.96,-17.08 -8.94,-1.05 -6.58,0.49 -16.12,-1.89 1.19,1.76 0.24,2.74 2.14,5.36 1.51,2.08 3.32,2.92 5.42,5.39l-37.16 -5.8c-25.92,-3.22 -47.25,-5.64 -72.24,-5.81 -2.63,-0.02 -28.45,0.25 -30.63,-0.59zm137.35 -5.03c-0.74,1.77 -1.1,1.94 -2.44,3.24 4.78,0.79 4.01,1.17 9.93,1.87 -1.55,-1.99 -2.24,-4.09 -3.79,-6.08 -1.38,0.23 -0.98,0.13 -2.38,0.48 -0.14,0.04 -0.57,0.38 -0.68,0.24 -0.11,-0.14 -0.43,0.17 -0.64,0.26z"/>
  <path class="fil2" d="M12.95 83.46c0.06,5.29 1.16,11.41 12.53,12.74 19.97,2.34 30.42,-1.63 41.73,-7.24 3.05,-1.51 6.28,-4.65 8.86,-6.56 -28.51,-3.34 -28.58,-7.52 -40.83,1.55 7.86,0.92 10.36,1.92 18.6,2.89 -2.95,2.18 -11.37,5.64 -17.26,5.73 -13.89,-13.3 4.34,-29.14 13.26,-29.45 1.65,10.63 -2.15,6.82 -2.32,13.12 7.04,0.83 12.01,0.08 18.58,0.77 0.18,-6.53 8.58,-9.81 9.76,-12.24 -4.89,-0.57 -5.03,-0.37 -8.67,-0.31 -3.45,-4.07 -3.79,-4.67 -9.97,-5.4 -6.58,-0.77 -14.25,-0.38 -18.81,0.48 -11.26,2.12 -25.57,15.5 -25.47,23.93z"/>
  <path class="fil2" d="M212.14 73.7l0.06 4.94c0.02,1.36 -0.38,1.21 -1.21,1.97 -3.74,-1.99 -3.76,-3.88 -3.8,-7.49l4.96 0.58zm-24.81 -4.32c0.14,2.69 3.69,12.38 6.38,15.55 6.75,-0.1 10.55,-2.1 17.3,-2.2 -0.11,4.12 -2.35,8.58 -2.36,13.09 -0.02,7.7 -0.95,6.03 0.21,13.44 3.66,0.26 14.19,-1.01 17.31,-1.49 -0.05,-3.94 -1.57,-5.51 -1.32,-8.55 0.78,-9.56 3.58,-18.74 4.61,-26.3 7.41,-0.11 15.32,-0.46 21.45,-2.17l4.49 -2.54c-33.78,0.52 -14.83,2.16 -53.23,-0.6 -5.62,-0.41 -6.1,0.45 -10.52,1.23 -1.63,0.28 -2.87,0.33 -4.32,0.56z"/>
  <path class="fil3" d="M370.15 37.27c-0.04,-3.64 -2.33,-15.07 -7.62,-15.69 -4.55,-0.53 -5.98,0.39 -8.65,1.1 0.08,6.97 3.19,11.23 0.22,18.35 -6.45,-3.2 -15.23,-11.85 -26.07,-6.58 1.84,4.03 23.42,12.95 11.44,24.6 14.4,-0.5 11.03,-9.49 10.99,-12.8 0.76,-0.12 3.25,0.5 6.12,0.03 3.06,-0.51 4.05,-1.96 5.92,-2.32 4.98,-0.95 3.6,1.28 7.99,-0.85 2.74,-1.33 0.4,-1.84 4.66,-3.12l0.1 8.47c16.7,1.75 0.73,-0.8 12.54,-16.64 12.06,-16.18 0.36,-12.7 -1.72,-11.02 -1.11,0.9 -3.14,4.58 -4.34,6.19 -2.23,2.97 -7.83,9.19 -11.56,10.31zm-50.82 -8.74l-0.02 1.37 0.03 2.12c7.08,0.83 10.6,0.77 11.11,-2.93 -3.35,-0.55 -3.38,-0.73 -6.21,-1.43l-4.9 0.87zm30.8 -9.11c4.57,0.48 9.91,0.19 9.88,-2.37 -0.07,-5.6 -9.71,-3.83 -9.88,2.37zm35.87 -2.14c8.44,-1.56 17.23,-5.03 2.39,-6.77 -2.58,2.51 -3.55,3.63 -2.39,6.77z"/>
  <path class="fil2" d="M246 110.09c5.21,-0.96 10.86,-1.38 16.06,-2.34 -0.16,-13.18 2.2,-22.61 2.05,-35.7 -2.94,-0.21 -7.11,-0.03 -9.08,0.11 -7.15,0.51 -4.53,1.93 -7.29,13.91 -1.71,7.4 -1.84,15.29 -1.74,24.02z"/>
 </g>
</svg>
