<?xml version="1.0" encoding="UTF-8"?>
<!DOCTYPE svg PUBLIC "-//W3C//DTD SVG 1.1//EN" "http://www.w3.org/Graphics/SVG/1.1/DTD/svg11.dtd">
<!-- Creator: CorelDRAW 2020 (64 Bit) -->
<svg xmlns="http://www.w3.org/2000/svg" xml:space="preserve" width="32.437mm" height="31.5138mm" version="1.1" style="shape-rendering:geometricPrecision; text-rendering:geometricPrecision; image-rendering:optimizeQuality; fill-rule:evenodd; clip-rule:evenodd"
viewBox="0 0 229.31 222.78"
 xmlns:xlink="http://www.w3.org/1999/xlink"
 xmlns:xodm="http://www.corel.com/coreldraw/odm/2003">
 <defs>
  <style type="text/css">
   <![CDATA[
    .fil0 {fill:#FEFEFE}
    .fil1 {fill:black}
    .fil2 {fill:#F3E109}
   ]]>
  </style>
 </defs>
 <g id="Camada_x0020_1">
  <metadata id="CorelCorpID_0Corel-Layer"/>
  <g id="_2418167190848">
   <path class="fil0" d="M196.73 67.11c1.26,1.43 2.44,2.9 3.59,4.6 3.46,5.11 6.18,9.59 8.73,15.25 8.2,18.22 10.84,38.19 6.72,57.81 -4.09,19.48 -14.42,36.72 -28.86,50.31 -21.7,20.41 -50.37,29.77 -79.93,27.32 -27.48,-2.28 -54.35,-14.8 -72.69,-35.59 -15,-17.01 -22.95,-38.02 -22.95,-60.7 0,-11.32 1.61,-22.3 5.92,-32.81 3.39,-8.25 8.07,-15.26 13.37,-22.37 1,-1.34 2.01,-2.67 3.01,-4.01 -4.65,0.03 -9.3,0.07 -13.95,0.09 -4.93,0.02 -11.26,0.28 -15.2,-3.17 -4.5,-3.93 -4.47,-11.38 -4.48,-16.87 -0.02,-4.76 0.14,-9.54 0.25,-14.3 0.16,-6.96 0.26,-13.92 0.26,-20.88 0,-6.86 5.3,-11.79 12.08,-11.79l203.87 0c6.78,0 12.08,4.93 12.08,11.79 0,6.85 0.13,13.69 0.34,20.54 0.15,4.78 0.36,9.57 0.42,14.35 0.07,5.64 0.23,13.33 -4.26,17.49 -3.81,3.53 -9.7,3.52 -14.58,3.42 -4.59,-0.09 -9.15,-0.3 -13.72,-0.46z"/>
   <path class="fil1" d="M5.37 11.79c0,49.1 -4.67,50.44 14.3,50.36 7.86,-0.03 15.72,-0.13 23.59,-0.13 -12.3,17.64 -27.06,30.54 -27.06,64.09 0,81.37 107.05,122.19 167.39,65.44 28.67,-26.97 37.46,-66.13 21.05,-102.58 -2.74,-6.08 -4.89,-9.45 -8.33,-14.52 -3.96,-5.84 -6.97,-7.34 -10.52,-12.42 47.35,0 37.89,10.66 37.89,-50.23 0,-4.05 -2.99,-6.93 -7.22,-6.93l-203.87 0c-4.22,0 -7.22,2.87 -7.22,6.93z"/>
   <path class="fil2" d="M23.72 124.37c0,64.89 71.42,108.6 133.86,76.86 50.84,-25.85 64.17,-87.87 27.37,-129.74 -5.7,-6.49 -7.36,-11.01 -20.67,-9.73 9.27,10.72 37.28,32.18 32.75,62.14l-59.49 -1.43 -3.51 -7.3c-2.37,-3.76 -4.21,-4.67 -7.37,-8.12l25.6 -45.24 -78.31 -0.31 28.2 45.45c-5.55,8.96 -7.59,4.22 -10.41,18.91l-60.27 1.31c0.58,-39.71 19.5,-48.34 33.6,-65.56 -25.55,-1.63 -41.34,40.21 -41.34,62.76z"/>
   <path class="fil1" d="M75.22 193.49c8.35,7.65 26.09,10.66 40.21,10.57 19.6,-0.13 26.69,-5.09 41.4,-10.47 -1.84,-6.03 -25.27,-41.93 -30.59,-48.42 -12.19,1.74 -10.98,1.63 -23.22,0.16l-27.8 48.17z"/>
   <path class="fil2" d="M89.81 41.23c-6.42,3.42 -20.55,1.45 -29.09,1.43l-0.05 14.01c12.59,-0.02 58.56,7.51 40.99,-26.34 -10.57,-3.17 -28.43,-1.93 -41.24,-1.97 1.57,6.91 2.95,9.77 10.18,10.72 3.54,0.47 7.15,-0.04 10.62,0.11l8.59 2.03zm-47.9 -16.53l14.44 0.03c1.3,-15.14 1.16,-14.12 -13.74,-13.48l-0.71 13.46zm66.57 -0.24l14.85 0.57 -0.02 -13.94 -14.87 0.13 0.03 13.25zm-96.39 0.34l14.92 -0.03 -0.02 -13.37 -14.93 -0.4 0.03 13.8zm170.5 0.13l27.53 -0.06 -2.52 -13.61 -20 -0.3c-4.82,3.59 -5.25,8.1 -5,13.97zm-55.78 31.19l14.67 0.29 0.05 -27.73 -13.97 -0.23 -0.75 27.67zm-18.24 0.24l6.84 0.35 7.4 -0.1 0.56 -28.16 -14.93 0.12 0.13 27.79zm48.32 0.07l7.24 0.26 7.25 -0.09 0.3 -28.17 -14.94 0.1 0.15 27.9zm-96.08 -32.04l43.25 0.62 1.08 -13.85 -7.76 -0.19 -21.65 0.03c-10.86,0 -15.63,3.59 -14.92,13.39zm66.13 0.2l43.85 0.4c1.61,-11.17 -3.3,-13.75 -13.84,-14 -8.98,-0.22 -20.56,-0.26 -29.43,0.33l-0.58 13.27zm46.18 31.67c25.06,1.27 9.28,-4.11 19.88,-5.8 20.49,0.03 -0.49,6.25 25.57,6.17 -2.82,-30.64 -8.6,-28.27 -18.36,-28.27 -2.76,4.08 -1.71,1.3 -1.08,10.14 -14.04,1.25 3.85,-10.35 -11.55,-10.13l-7.56 0.2 -6.91 27.69zm-144.3 0.39c30.94,0 26.28,-0.11 28.05,-28.21 -19.81,-0.21 -13.68,-1.46 -15.68,14.14l-13.74 -0.06c-0.19,-1.68 -0.33,-7.79 -0.45,-8.29 -1.43,-6.16 1.39,-5.92 -14.96,-5.77 0.11,17.09 -3.76,28.18 16.76,28.18z"/>
   <path class="fil1" d="M108.57 115.61c-15.93,8.3 -2.45,28.32 12.34,21.05 13.92,-6.83 4.5,-29.83 -12.34,-21.05z"/>
  </g>
 </g>
</svg>
