<?xml version="1.0" encoding="UTF-8"?>
<!DOCTYPE svg PUBLIC "-//W3C//DTD SVG 1.1//EN" "http://www.w3.org/Graphics/SVG/1.1/DTD/svg11.dtd">
<!-- Creator: CorelDRAW 2020 (64 Bit) -->
<svg xmlns="http://www.w3.org/2000/svg" xml:space="preserve" width="41.6733mm" height="31.2199mm" version="1.1" style="shape-rendering:geometricPrecision; text-rendering:geometricPrecision; image-rendering:optimizeQuality; fill-rule:evenodd; clip-rule:evenodd"
viewBox="0 0 176.15 131.97"
 xmlns:xlink="http://www.w3.org/1999/xlink"
 xmlns:xodm="http://www.corel.com/coreldraw/odm/2003">
 <defs>
  <style type="text/css">
   <![CDATA[
    .fil0 {fill:#FEFEFE}
    .fil1 {fill:black}
    .fil3 {fill:red}
    .fil4 {fill:yellow}
    .fil2 {fill:white}
   ]]>
  </style>
 </defs>
 <g id="Camada_x0020_1">
  <metadata id="CorelCorpID_0Corel-Layer"/>
  <g id="_2420381881360">
   <path class="fil0" d="M148.17 110.42c-0.53,0.5 -1.04,1.08 -1.61,1.55 -4.57,3.74 -13.09,10 -18.76,11.91 -1.89,1.18 -3.99,1.78 -6.14,2.35 -2.61,0.87 -5.06,1.14 -7.8,1.3 -1.23,0.07 -2.47,0.13 -3.65,0.49 -1.16,0.51 -2.37,0.7 -3.63,0.87 -1.29,0.17 -2.58,0.29 -3.87,0.4 -1.69,0.15 -3.38,0.26 -5.07,0.4 -2.89,0.25 -4.7,0.23 -7.15,-1.15 -1.11,0.52 -2.27,0.87 -3.57,0.97 -0.81,0.07 -1.59,-0.03 -2.37,0.01 -1.18,0.41 -2.27,1 -3.48,1.4 -2.62,0.86 -5.29,1.13 -8.03,1.03 -7.22,-0.26 -17.97,-2.09 -22.65,-8.22 -3.03,-2.32 -6.15,-6.14 -8.47,-9.07 -1.72,-2.18 -3.39,-4.41 -5,-6.68l-5.3 -4.02c-3.43,-2.6 -14.69,-16.41 -15.9,-20.33l-0.29 -0.95c-0.71,-0.43 -1.42,-0.87 -2.12,-1.33 -5.01,-3.29 -9.57,-7.45 -11.79,-13.15 -2.56,-6.57 -2.03,-14.7 2.31,-20.43 2.11,-2.78 7.96,-7.82 11.08,-9.87l24.54 -22.51c0.04,-0.04 0.08,-0.07 0.12,-0.11l0.09 -0.08c2.9,-2.36 9.02,-5.27 12.88,-6.33l1.49 -0.98c0.1,-0.06 0.18,-0.11 0.29,-0.16l0.23 -0.11c14.93,-7.44 28.06,-8.79 44.46,-6.79 7.28,0.89 14.7,1.95 21.51,4.82 5.88,2.48 11.12,6.17 16.3,9.83 2.78,1.96 5.29,4.5 7.72,6.89 2.18,2.14 4.34,4.32 6.37,6.6 4.15,4.64 7.16,9.82 9.96,15.34 0.75,1.48 3.1,6.53 4.22,7.45 0.52,0.43 1.15,0.78 1.72,1.11 2.56,1.5 4.48,2.99 6.31,5.36 2.82,3.67 3.55,8.1 2.58,12.57 -0.67,3.09 -2.12,6.07 -3.9,8.67 -0.88,1.28 -1.84,2.55 -2.99,3.6l-1.94 2.99 -1.83 2.81 -2 3.09c-0.13,0.2 -0.26,0.35 -0.43,0.51l-0.35 0.33c-2.11,2 -3.74,4.28 -5.12,6.83 -1.2,2.22 -2.07,4.56 -3.48,6.6 -1.43,2.15 -3.08,3.65 -5.52,4.17z"/>
   <path class="fil1" d="M39.01 105.98c3.67,5.19 9.59,12.94 13.44,15.73 3.88,5.54 14.37,7.17 20.72,7.4 2.41,0.09 4.74,-0.13 7.04,-0.89 1.21,-0.4 2.28,-0.98 3.44,-1.38 0.21,-0.07 0.41,-0.13 0.64,-0.14 0.82,-0.05 1.61,0.05 2.43,-0.01 1.48,-0.12 2.68,-0.68 3.88,-1.42l0.84 0.52c2.17,1.35 3.47,1.28 5.98,1.07 1.69,-0.15 3.38,-0.26 5.07,-0.4 1.25,-0.11 2.51,-0.23 3.75,-0.39 1.05,-0.14 2.08,-0.29 2.98,-0.71 1.5,-0.49 2.91,-0.58 4.5,-0.67 2.55,-0.14 4.71,-0.36 7.14,-1.18 1.99,-0.53 4.03,-1.07 5.73,-2.21 5.29,-1.62 14.62,-8.6 18.19,-11.52 0.76,-0.62 1.47,-1.48 2.16,-2.02 2.09,-0.22 3.27,-1.34 4.41,-3.06 1.29,-1.86 2.26,-4.36 3.35,-6.38 1.52,-2.8 3.31,-5.31 5.66,-7.54l0.35 -0.33 2 -3.09 1.83 -2.81 2.15 -3.32c1.14,-0.96 2.11,-2.3 2.82,-3.33 1.59,-2.31 2.88,-4.96 3.47,-7.67 0.79,-3.63 0.26,-7.22 -2.06,-10.24 -1.61,-2.09 -3.21,-3.31 -5.49,-4.64 -0.73,-0.43 -1.45,-0.84 -2.1,-1.38 -1.65,-1.37 -3.95,-6.41 -4.94,-8.35 -2.69,-5.29 -5.53,-10.23 -9.55,-14.73 -1.98,-2.21 -4.12,-4.37 -6.25,-6.46 -2.19,-2.15 -4.84,-4.82 -7.36,-6.59 -4.94,-3.49 -10.11,-7.15 -15.77,-9.54 -6.5,-2.74 -13.73,-3.76 -20.75,-4.62 -15.9,-1.93 -28.41,-0.65 -42.86,6.51l-0.23 0.11 -1.88 1.23c-3.7,0.9 -9.87,3.96 -12.25,5.9l-0.09 0.08 -24.72 22.67c-2.83,1.81 -8.92,7.18 -10.56,9.33 -3.78,4.99 -4.1,12.11 -1.93,17.68 1.97,5.07 6.14,8.81 10.71,11.81 0.97,0.63 1.95,1.23 2.95,1.82l0.61 2c0.99,3.23 11.98,16.69 14.9,18.91l5.65 4.28z"/>
   <path class="fil2" d="M76.95 108c0.06,1.51 0.58,0.61 -0.96,1.05 -0.1,0.03 -1.68,-0.05 -1.79,-0.07 -1.06,-0.14 -2.18,-0.41 -3.25,-0.67 -9.55,-1.62 -8.96,-2.4 -8.36,-9.05 0.22,-2.43 0.56,-5.06 1.06,-7.43 0.53,-2.5 0.85,-4.56 2.83,-5.8 1.24,0.32 0.93,0.15 1.65,0.86 2.01,-0.09 3.31,0.81 5.52,1.38 2.42,0.7 3.92,0.73 5.7,1.86 0.66,2.48 -0.97,5.97 -1.26,9 -0.21,2.14 -0.13,7.31 -1.13,8.87zm58.61 -21.82l4.08 -0.96c-0.4,1.93 -1.71,3.77 -2.87,5.08 -0.52,1.09 -1.08,1.85 -2.35,2.89 -0.9,0.74 -2.06,1.29 -3.49,1.23 0.39,-2.45 2.14,-7.05 4.62,-8.24zm-31.12 6.88l3.25 -0.08 1.02 3.06 -3.66 1.57c-1.76,1.11 -3.72,2.22 -5.6,3.35 -3.85,2.31 -3.25,3.09 -5.34,3.35 -0.96,-2.41 0.48,-8.99 1.25,-10.94l9.09 -0.33zm0.08 -6.42c1.63,-0.09 0.8,-0.07 1.5,0.28l1.47 0.05 0.42 5.38 -3.26 0.04c-3.99,0.33 -5.6,0 -9.06,-0.23 -0.35,-2.07 -0.02,-4.09 1.12,-5.72 1.89,-0.25 4.91,0.42 7.8,0.2zm4.15 6.31c3.4,-0.35 8.9,-1.57 10.34,-0.87l0.19 0.83c-1.29,1.01 -4.65,0.83 -6.7,1.39 -2.9,0.79 -3.06,2.02 -3.83,-1.35zm18.47 1.9c-5.8,-2.13 -6.81,-0.71 -7.49,-3.39l3.82 -1.39 2.77 -0.12c1.06,-0.87 4.31,-1.74 5.87,-1.42 -0.23,1.77 -2,5.43 -2.73,6.64l-1.65 0.09 -0.57 -0.4zm-80.63 -11.8c-1.71,-2.54 -1.15,-7.62 -0.53,-10.37 1.9,0.59 4.18,2.05 3.09,4.29l-2.56 6.08zm9.81 -5.74c-1.13,-0.38 -2.44,-1.08 -3.39,-1.98 -1.5,-1.42 -1.12,-1.82 -0.46,-3.7 -1.39,1.26 -0.96,2.13 -3.16,1.04l-1.05 -0.66c-1.92,-1.31 -2.23,-2.17 -2.09,-5.27 0.27,-5.72 -2.98,-8.38 -2.06,-11.78 3.33,-1.22 8.52,1.73 10.63,3.49 1.06,0.88 2.15,1.14 2.72,2.8 -1.76,2.95 -4,5.49 -4.99,10.37 0.07,-0.07 0.16,-0.29 0.2,-0.23l2.66 -3.76c0.38,-1.01 2.22,-5.12 2.63,-5.71 2.63,0 1.93,0.47 5.22,3.91l4.93 4.53c2.97,2.99 -3.14,12 -3.47,12.25 -1.7,-0.25 -7.11,-4.15 -8.33,-5.3zm0.09 2.66c1.56,0.39 1.02,0.26 2.45,1.07 9.09,5.14 5.28,2.48 3.37,13.16 -0.62,3.45 -0.66,6.17 -1.05,9.71 -0.15,1.51 0.05,0.83 -0.5,1.73 -3.38,-1.79 -3.89,-2.12 -6.71,-4.82 -4.21,-4.05 -8.24,-10.18 -6.66,-16.51 0.65,-2.58 1.52,-6.26 3.12,-7.92 2.22,-0.1 5.17,2.05 5.96,3.59zm69.77 8.73l-2.8 1.09 -3.46 0.65 0.07 -2.71c0.44,-1.37 -0.01,-2.47 1.14,-3.21 0.02,-0.02 4.14,-1.36 4.49,-1.48 1.19,-0.87 7.38,-4.53 7.88,-4.55 0.38,1.73 0.01,5.67 -0.53,6.97 -0.79,1.9 -4.12,2.55 -6.79,3.25zm-6.47 -0.82c-0.58,0.95 -0.43,1.75 -0.66,2.84 -2.51,0.57 -7.97,1.8 -10.14,1.11l-0.17 -2.08c0.02,-0.29 -0.02,-1.07 0.01,-1.36l0.4 -1.89 10.29 -1.12 0.27 2.5zm21.18 -6.06c-0.06,1.97 -0.41,1.92 -2.52,2.62 -1.43,0.47 -2.72,0.92 -4.22,1.02 -0.33,-0.99 0.33,-7.06 0.84,-8.21 0.56,-1.24 3.63,-4.89 4.47,-5.02 0.09,0.08 0.18,0.21 0.22,0.29l0.84 4.57c0.09,1.45 0.41,3.34 0.36,4.73zm-56.52 8.42l-3.34 -0.66 0.46 -4.18 -2.24 3.14c-1.82,0.11 -4.36,-1.09 -5.64,-1.63 -1.96,-0.42 -6.27,-2.52 -7.51,-3.22 -0.16,-3.49 2.36,-5.05 3.34,-8.53l0.87 -2.65c1.44,0.87 1.32,0.65 1.78,1.84 3.15,1.17 5.12,4.4 8.14,5.53 1.64,0.61 0.92,0.24 2.01,2.1 0.07,0.11 0.16,0.25 0.21,0.34 0.06,0.09 0.12,0.25 0.22,0.34 0.41,-1.76 2.38,-0.54 3.76,0.11 2.42,1.14 7.98,2.77 8.56,3.74 0.24,0.41 0.53,3.26 -0.83,4.46 -1.67,1.23 -8.01,0.1 -9.8,-0.74zm1.91 16.71c-2.42,0.78 -5.07,1.48 -7.61,1.18 -1.21,-2.71 1.1,-15.04 2.41,-17.25 0.82,0.03 1.5,0.11 2.17,0.29l1.86 0.82c2.01,-0.19 5.96,0.7 9.05,0.56 -0.11,2.03 -0.77,7.27 -1.16,9.42 -0.36,1.99 -0.39,2.44 -2.13,3.32 -1.27,0.65 -3.13,1.23 -4.59,1.67z"/>
   <path class="fil3" d="M86.17 70.93c-1.54,-1.12 -2.63,-0.67 -5.14,-4.72 -8.7,-14.04 4.27,-9.12 5.56,-1.99 1.12,6.19 5.04,2.95 6,2.58 1.52,0.63 4.27,2.93 4.42,4.55 -2.22,0.63 -9.51,0.55 -10.85,-0.43zm36.94 1.93c-2.42,0.7 -5.59,0.59 -7.39,-0.13 0.08,-1.88 2.86,-3.59 3.86,-3.87 4.16,-1.21 7.94,1.95 7.11,-3.99 -0.17,-1.25 -0.29,-1.97 -0.34,-3.26 1.46,-1 0.91,-1.5 2.91,-2.2 0.41,1.85 0.74,3.77 0.64,5.67 -0.19,3.55 -3.26,6.76 -6.8,7.79z"/>
   <path class="fil4" d="M26.03 58.16l0 0zm-19.24 3.53c1.86,13.11 18.04,16.75 19.64,20.5 -1.96,0.23 -2.11,-0.54 -4.07,-0.43 0.84,2.17 10.93,15.42 13.76,16.78 -1.88,-4.84 -6.44,-19.6 -1.71,-23.84 1.22,8.6 -4.3,12.52 7.01,27.71 2.98,4.01 5.6,7.96 8.87,11.59l7.56 7.48c3.81,2.63 14.07,4.43 19.19,3.71 2.08,-0.3 4.39,-1.96 6.04,-2.2 3.23,-0.46 2.9,0.54 5.82,-1.2 7.35,-4.38 19.54,-19.46 27.88,-20.65 2.14,-0.3 5.26,-0.86 6.79,0.71 -2.54,0.36 -7.86,2.44 -9.73,3.53 -6.37,3.69 -18.27,15.97 -20.17,16.78l0.09 0.66c1.11,0.1 0.99,0.34 2.09,0.33l7.56 -0.7c4.1,-0.58 4.98,-1.03 7.16,-1.37 3.95,-0.63 7.51,0.01 12.52,-2.3 8.31,-3.83 13.64,-7.17 20.88,-13.61 2.03,-1.8 2.81,-0.33 4.17,-2.72l4.49 -8.35c2.13,-3.76 4.98,-5.39 8.3,-11.34 2.35,-3.81 4.41,-5.6 5.61,-7.51 1.41,-2.24 3.24,-6.17 2.74,-9.66 -0.09,-0.65 -1.31,-3.02 -1.72,-3.55 -4.29,-5.6 -5.87,-0.95 -11.53,-12.34 -1.09,-2.18 -2.17,-4.29 -3.39,-6.41 -4.75,-8.22 -5.29,-8.02 -10.49,-13.73 -7.54,-8.29 -20.01,-17.3 -30.75,-19.9 -16.34,-3.95 -37.44,-5 -53.13,3.57 -5.24,2.86 -0.93,0.84 -5.53,2.58 -6.57,2.49 -8.9,4.4 -13.86,9.21l-10.53 9.67c-1.69,1.67 -3.37,2.99 -5.06,4.69 -7.12,7.11 -17.49,10.93 -16.48,22.3zm19.24 -3.53c1.6,-0.62 1.93,-1.74 3.81,-2.43 2.83,-1.04 9.61,0.71 11.85,5.38 2.55,5.32 0.01,13.49 1.18,21.44 1.32,8.94 2.99,13.71 7.62,18.31 2.64,2.62 6.86,5.87 10.23,7.44 3.01,1.4 9.78,3.75 12.96,4.19 7.35,1.01 21.04,-3.17 27.69,-7.08 1.13,-0.66 1.05,-0.82 1.98,-1.44 5.84,-3.71 11.37,-7.52 18.42,-6.74 6.24,0.69 8.42,2.6 15.25,0.39 1.64,-0.53 3.36,-1.45 5.1,-1.74 0.29,4.96 -9.08,8.45 -13.12,8.91 -1.6,0.18 -1.57,-0.1 -3,0.07 2.49,2.55 10.64,1.84 15.98,-2.94 -0.29,-1.26 -0.42,-0.81 -0.65,-2.25 4.08,-2.96 4.23,-7.87 5.91,-12.55 -4.66,1.81 -1.59,0.81 -4.93,7.72l-7.21 1.02c0.23,-1.94 2.83,-4.92 4.18,-6.23 3.13,-3.06 1.91,-3.32 3.27,-7.21 1.12,-3.19 2.65,-2.38 2.82,-7.26 0.15,-4.58 -0.89,-5.3 0.54,-9.27 5.55,-0.79 3.04,0.2 9.69,2.3 -1.35,-5.92 -14.08,-9.26 -17.66,-1.84 1.26,1.4 2.84,1.21 -2.39,6.41 -3.71,3.68 -8.96,7.51 -13.97,9.43 -7.8,2.99 -16.37,3.27 -24.23,0.74 -1.74,-0.56 -2.64,-0.75 -4.41,-1.15l-21.55 -11.47c-2.87,-1.61 -5.19,-5.76 -6.98,-7.47l-7.15 -7.25c-17.53,-18.28 -30.73,-3 -31.22,2.57zm71.7 17.26c2.36,-0.33 3.75,-1.28 6.11,-0.73 1.66,0.39 3.12,1.76 5.04,1.49 2.18,-0.31 3.04,-1.1 4.83,-1.35 3.9,-0.55 11.34,3.12 16.99,-5.99 2.59,-4.18 2.6,-5.31 2.04,-10.76 -0.25,-2.44 0.14,-2.92 1.16,-4.12 1.6,-1.87 2.95,-4.84 6.2,-5.3 5.38,-0.76 4.95,3.76 7.54,3.61 -0.08,-1.36 0.22,-0.78 0.05,-2.01 -0.38,-2.66 -4.57,-4.7 -7.3,-4.32 -5.22,0.74 -8.5,7.59 -12.82,12.04 -2.94,3.03 -2.14,3.69 -7.48,7.56 0.17,-1.96 2.75,-7.06 3.59,-9.32 2.54,-6.86 1.12,-8.73 6.54,-19.69 1.88,-3.8 3.92,-4.43 9.44,-5.21l-0.14 -0.98c-3.24,-0.29 -5.6,-0.88 -8.52,1.21 -6.55,4.69 -8.6,20.02 -9.72,21.11 -0.44,-3.08 -1.38,-9.54 -5,-9.33 0.5,3.54 2.03,4.88 2.52,8.34 0.79,5.59 1.24,7.96 -1.31,13.37 -1.66,3.53 -2.54,5.57 -5.97,6.06 0.17,-1.95 3.58,-5.44 2.63,-12.08l-0.65 -4.59c-0.9,-6.31 -5.52,-8.24 -5.15,-5.63 0.46,3.21 2.42,0.57 3.64,9.18 0.13,0.91 -0.37,19.05 -8.65,12.68 -2.34,-1.8 -5.03,-1.62 -7.13,-2.99 -2.72,-1.78 -13.85,-13.87 -16.83,-16.19 -4.74,-3.69 -3.82,-3.37 -9.18,-6.89 -3.35,-2.2 -1.68,-1.8 -6.72,-3.92 -5.77,-2.42 -9.45,-2.32 -15.13,0.25 -0.93,0.42 -0.96,0.58 -1.87,0.94 1.79,1.83 8.43,-0.66 16.59,3.26 11.95,5.73 9.68,23.65 21.34,28.52 3.76,1.57 8.93,2.39 13.32,1.76zm9.42 -9.03l2.56 -0.75c-1.91,-2.05 -7.2,-1.96 -11.45,-8.46l-8.08 -13.03c-3.5,-6.2 -5.79,-10.76 -10.15,-16.12 -3.45,-4.24 -8.84,-8.92 -13.81,-3.82 -1.01,1.04 -1.56,2.15 -2.03,3.46 3.57,-0.59 4.49,-2.58 8.9,-0.54 3.53,1.63 8.83,9.65 11.07,13.33 4.63,7.61 10.87,22.32 19,25.4 0.74,0.28 3,0.85 3.99,0.53z"/>
  </g>
 </g>
</svg>
