<?xml version="1.0" encoding="UTF-8"?>
<!DOCTYPE svg PUBLIC "-//W3C//DTD SVG 1.1//EN" "http://www.w3.org/Graphics/SVG/1.1/DTD/svg11.dtd">
<!-- Creator: CorelDRAW 2020 (64 Bit) -->
<svg xmlns="http://www.w3.org/2000/svg" xml:space="preserve" width="44.4401mm" height="43.2304mm" version="1.1" style="shape-rendering:geometricPrecision; text-rendering:geometricPrecision; image-rendering:optimizeQuality; fill-rule:evenodd; clip-rule:evenodd"
viewBox="0 0 273.33 265.89"
 xmlns:xlink="http://www.w3.org/1999/xlink"
 xmlns:xodm="http://www.corel.com/coreldraw/odm/2003">
 <defs>
  <style type="text/css">
   <![CDATA[
    .fil1 {fill:black}
    .fil5 {fill:#01A79D}
    .fil4 {fill:#6D7172}
    .fil3 {fill:#959699}
    .fil6 {fill:#BB1F2D}
    .fil2 {fill:#EE8A05}
    .fil7 {fill:#F9F9F7}
    .fil0 {fill:#FCFBFC}
   ]]>
  </style>
 </defs>
 <g id="Camada_x0020_1">
  <metadata id="CorelCorpID_0Corel-Layer"/>
  <g id="_2422159834176">
   <path class="fil0" d="M145.23 249.21c1.68,-1.07 2.93,-2.9 3.18,-5.24 0.49,-4.61 -2.18,-9.47 -1.1,-15.15 1.31,-2.31 7.71,-2.74 10.85,-16.51 11.39,0.31 20.42,-1.25 26.79,-7.43 2.64,-2.55 4.52,-6.34 5.86,-11.25 0.52,-1.9 0.18,-1.29 2.05,-2.36 12.01,-6.92 20.17,-18.77 25.31,-22.57 2.04,-1.51 8.68,0.51 13.8,1.27 3.95,0.58 19.82,1.31 23.29,-1.3 1.81,-1.36 8.67,-13.15 10.11,-15.77 3.91,-7.09 7.94,-17.46 7.93,-26.68 -0,-2.88 0.41,-5.14 -1.44,-6.75 -7.98,-6.94 -17.9,-12.48 -28.55,-15.01 -8.75,-2.08 -17.09,5.97 -24.2,9.57 0.65,-5.51 0.79,-5.78 -1.36,-10.21 -3.91,-4.69 -7.96,-3.03 -13.76,-5.47 -0.35,-1.16 -0.79,-3.17 -0.65,-4.4 0.46,-4.11 3.32,0.34 2.87,-12.21 -0.23,-6.48 -0.37,-13.03 -0.56,-19.57 -0.32,-11.19 0.75,-26.63 -3.69,-36.07 -4.09,-8.68 -12.44,-15.29 -20.92,-19.1 -27.78,-12.46 -76.24,-6.44 -103.07,3.95 -13.58,5.26 -28.63,13.45 -32.92,27.14 -2.14,6.85 -1.27,11.7 -1.99,18.53 -12.44,-1.85 -19.9,-2.38 -30.29,3.46 -2.39,1.34 -3.19,1.98 -4.9,3.88 -2.37,2.63 -1.29,0.44 -4.19,5.09 -8.5,13.63 -1.05,29.22 10.39,37.91 10.87,8.26 23.03,9.75 25.55,11.42 -4.57,13.28 -6.22,-0.54 -2.03,27.78 0.74,4.98 1.23,10.37 2.17,15.29 1.22,6.35 4.64,6.21 5.44,7.68 0.58,1.08 0.4,3.12 0.61,4.46 3.89,2.84 20.24,6.96 21.95,9.21 3.72,4.89 2.46,15.1 16.52,15 5.03,-0.04 16.64,-0.64 20.93,0.16 -0.54,27.79 17.69,31.96 18.67,33.79 3.79,7.09 -5.02,25.4 3.16,32 8.5,6.86 14.95,-4.17 10.85,-15.22 2.21,1.8 4.81,2.3 7.37,0.67z"/>
   <path class="fil1" d="M7.02 92.49c6.61,12.75 25.6,21.57 39.19,22.46 -1.45,3.69 -3.86,7.72 -5.84,11.37 -1.92,3.54 0.09,9.54 0.68,13.81 0.68,4.97 1.35,9.94 2.13,14.92 0.86,5.54 0.13,9.45 6.2,10.27 1.17,7.88 -0.86,4.9 13.97,10.65 6,2.33 7.04,1.67 8.59,5.52 0.23,0.58 0.44,1.2 0.74,1.73 0.79,1.37 0.4,0.7 0.96,1.24 0.01,2.42 2.55,6.45 3.98,7.54 2.49,1.91 6.1,1.5 9.58,1.49 6.99,-0.02 15.65,-0.49 22.44,0.05 -0.49,7.14 0.13,14.37 2.76,20.8 5.12,12.52 13.4,11.65 14.9,13.94 2.09,3.19 2.09,11.88 1.75,15.69 -0.53,5.97 -4.17,17.11 3.6,16.9 3.51,-2.06 2.81,-4.73 1.86,-8.91 -1.01,-6.63 -4.39,-17.87 -1.07,-23.84l5.93 -0.82c2.31,6.37 0.37,9.82 0.18,14.34 -0.13,3.02 0.55,2.04 0.93,3.85 5.83,0.63 2.82,-5.93 2.37,-10.27 -0.72,-6.88 -0.69,-8.57 2.39,-10.4 5.78,-3.43 9.3,-9.89 8.96,-19 2.46,1.28 2.01,1.91 5.5,2.21 4.95,0.42 15.47,0.05 18.29,-3.85 1.43,-0.12 0.28,0.56 2.04,-0.77l4.27 -4.56c1.68,-2.67 2.67,-5.73 2.29,-9.27 5.63,-1.45 13.02,-8.85 16.65,-11.85 3.4,-2.8 11.49,-11.01 13.79,-14.46 10.47,0.25 18.63,4.91 33.54,2.26 2.75,-0.49 2.3,-0.69 3.73,-2.71 0.87,-1.23 1.63,-2.3 2.39,-3.48 5.38,-8.37 13.88,-23.92 12.08,-36.65l-11.51 -8.21c-7.42,-4.2 -14.46,-7.47 -22.15,-4.59 -2.2,0.83 -4.52,2.05 -6.57,3.21 -5.53,3.82 -9.87,7.22 -15.02,11.07 0.41,-3.79 2.6,-14.63 0.99,-17.24 -2.37,-3.85 -10.36,-2.85 -14.58,-5.14l-1.36 -10.79c4.93,-1.51 3.42,-9.4 3.25,-15.12 -0.19,-6.18 -0.31,-12.41 -0.53,-18.55 -0.75,-21.62 1.86,-37.89 -27.14,-48.36 -26.54,-9.58 -73.41,-3.07 -97.4,7.08 -4.51,1.91 -8.7,3.99 -12.58,6.47 -16.13,10.33 -17.36,18.62 -16.41,39.92 -7.25,-1.72 -12,-3.44 -20.18,-2.63 -16.61,1.64 -29.18,16.08 -20.57,32.7z"/>
   <path class="fil2" d="M148.96 148.18c-1.68,-0.67 -0.88,0.05 -0.39,-3.43l-3.39 0.96c-11.14,-0.19 -16.69,0.4 -27.65,-3.56 -3.02,-1.09 -6.01,-2.48 -8.96,-3.53 -2.41,-0.86 -6.64,-1.38 -9.34,-1.91 -3.07,-0.59 -6.12,-1.22 -9.19,-1.78 -6.43,-1.16 -5.87,0.48 -9.37,5.6 -0.41,0.61 -0.84,1.19 -1.27,1.79 -14.34,19.44 -9.28,10.45 -5.31,24.42l8.61 18.46c8.19,0.63 18.63,-0.07 27.03,0.02 4.4,0.05 2.41,0.7 5.28,-7.77 1.61,-4.73 3.73,-8.49 6.26,-12.54 -2.59,-2.03 -7.65,-4.65 -11.49,-2.96 -3.24,1.42 -6.27,5.82 -8.71,6.51 -1.07,-6.89 6.58,-18.35 22.72,-9.47 7.34,4.17 13.57,10.12 20.62,14.88 7.92,5.39 11.68,8.4 21.36,10.67 13.17,2.81 23.13,-4.55 32.25,-13.08 4.95,-4.62 9.46,-9.76 14.2,-14.6 3.37,-3.43 6.72,-6.53 10.51,-9.49 5.35,-4.15 19.82,-13.03 23.43,-4.87 -8.16,1.94 -15.01,3.57 -20.85,10.66 -0.7,0.59 -1.42,-0.31 -2.7,2.33 5.28,1.13 20.62,4.28 25.04,1.46 2.56,-1.63 6.07,-8.88 7.56,-11.82 2.87,-5.69 5.23,-12.18 5.54,-18.6 -5.8,-3.48 -10.17,-6.75 -16.63,-8.91 -2.8,-0.93 -4.04,-0.89 -7.65,0.97 -4.62,2.39 -25.69,17.06 -28.3,20.9 -2.69,1.16 -5.88,4.63 -9.57,6.02 0.58,-4.1 4.29,-6.73 5.83,-9.57 -1.71,-1.74 -7.72,-5.8 -10.91,-6.67 -5.41,-1.49 -8.93,2.09 -12.2,5.43 1.64,0.91 3.48,2.55 4.44,4.13 -1.96,-0.05 -3.86,-0.65 -5.69,-1.22 -3.08,-0.96 -5.18,-1.63 -8.21,-2.65 -2.85,-0.97 -6.91,-1.44 -9.67,2.06 -2.66,2.79 -5.4,5.81 -8.24,8.4 -1.59,1.45 -2.97,2.13 -5.03,2.74zm29.37 44.47c0.26,-3.19 0.31,-0.97 -0.72,-1.72 -6.9,0.98 -13.85,0.4 -20.3,-2.36 -1.98,-0.85 -3.91,-1.8 -5.87,-2.69 -0.54,-0.24 -1.09,-0.49 -1.63,-0.73 -0.8,-0.36 -0.42,-0.27 -0.48,1.25 -0.17,6.19 1.15,7.34 6.36,10.41 5.52,3.2 9.69,4.29 15.8,1.85 2.66,-1.06 4.85,-2.92 6.45,-5.3l0.39 -0.72zm-13.61 -48.02c0.7,-0.38 1.35,-0.71 2.09,-1.03 0.48,-0.2 0.95,-0.4 1.43,-0.61 -1.03,2.76 -2.45,3.48 -4.43,5.43 -2.09,2.06 -2.64,1.87 -5.35,2.62 -0.48,0.13 -0.39,-0.03 -0.2,-0.6 1.07,-3.2 3.74,-4.33 6.47,-5.82zm23.29 -1.33c-3,2.73 -8.96,0.64 -12.72,-0.12 1.44,-1.07 8.23,-1.89 10.14,-1.49 2.01,0.42 2.2,1.13 2.58,1.61z"/>
   <path class="fil3" d="M77.53 134.04c1.11,-1.94 3.39,-5.4 5.82,-5.93 2.82,-0.61 25.95,4.08 28.91,4.86l9.97 -13.9c-4.82,-2.93 -9.47,-5.62 -14.04,-8.49 -6.8,-4.26 -9.96,-3.55 -4.74,-12.13 1.6,-2.63 3.27,-4.56 6.83,-2.67 3.98,2.11 17.71,11.12 20.53,12.27 1.04,-1.44 10.96,-14.98 12.09,-15.66 2.29,-1.37 4.1,0.02 6.47,1.92 5.39,4.33 5.56,4.4 0.78,10.74l-7.44 10.16c2.35,2.79 14.43,6.82 15.23,11.45 0.02,0.7 -3.72,8.16 -5.73,8.83 -4.41,0.84 -13.55,-7.57 -18.08,-9.02l-8.66 11.91c6.51,-0.24 12.72,3.47 25.39,-0.43 2.59,-0.8 5.8,-4.44 7.55,-6.57 1.69,-2.06 1.16,-1.79 4.44,-2.35 2.26,-0.39 3.65,-0.89 5.9,-0.73 -1.06,-1.46 -3.14,-2.56 -4.78,-3.84 -0.26,-4.68 5.25,-9.38 6.87,-13.45 -8.82,-6.61 -15.88,-3.12 -11.04,-12.44 0.92,-1.77 0.84,-3.16 3.48,-2.87 1.79,0.19 9.44,4.84 13.67,6.25 0.67,-2.03 2.68,-4.87 3.82,-6.85 3.11,-5.43 3.94,-7.07 7.1,-5.59 2.08,0.97 -0.04,0.76 2.25,1.07 -0.13,-3.14 -0.24,-2.49 -3.3,-2.87l-17.29 -1.86c-27.71,-1.69 -56.3,-1.65 -83.72,2.63l-24.99 4.99 2.71 4.1c1.36,1.71 1.82,1.87 2.94,3.97l-12.59 1.01 4.82 6.52 -9.84 18.83c-1.72,3.11 -0.01,8.59 0.52,12.12 0.51,3.41 0.72,10.19 2.16,12.62l4.74 -4.71 1.41 16.7c2.43,1.87 7.61,3.48 10.39,4.3 -0.28,-2.06 -2.89,-7.11 -3.93,-9.44 -2.36,-5.28 -0.8,-5.88 1.58,-9.34l11.81 -16.13zm108.73 -27.4c13.91,7.03 14.11,5.75 11.31,11.64 -0.82,1.72 -0.97,3.12 -2.95,3.5 -2.2,0.43 -11.77,-5.02 -14.08,-6.13l-7.96 12.49c1.71,1.26 3.3,2.49 5.17,3.01 11.85,-14.93 23.84,-3.06 27.05,-1.81l1.85 -17.55 -13.98 -2.94c-1.01,-3.53 -0.59,-8.31 -1.92,-10.1 -1.15,2.9 -3.45,5.02 -4.5,7.9z"/>
   <path class="fil4" d="M77.53 134.04c-2.02,-0.56 -5.73,-4.19 -6.94,-4.1l-12.92 6.28c1.04,-3.28 12.62,-21.31 13.17,-23.22 -1.2,-2.1 -2.49,-2.9 -3.55,-4.56l-0.95 -1.75 10.11 -5.91c-0.66,-1.12 -1.83,-2.28 -2.85,-3.42 8.36,-4.8 51.76,-11.31 65.86,-11.76 5.89,-0.19 7.1,-1.51 10.73,1.99 2.65,2.55 4.73,3.68 6.67,6.45 2.19,-0.47 11.59,-6.42 12.65,-8.17 -27.71,-1.69 -56.3,-1.65 -83.72,2.63l-24.99 4.99 2.71 4.1c1.36,1.71 1.82,1.87 2.94,3.97l-12.59 1.01 2.28 3.36c0.85,1.11 1.51,1.81 2.54,3.16l-9.84 18.83c-1.72,3.11 -0.01,8.59 0.52,12.12 0.51,3.41 0.72,10.19 2.16,12.62l3.74 -3.69c0.37,-0.32 0.68,-0.71 1,-1.01l1.41 16.7c2.43,1.87 7.61,3.48 10.39,4.3 -0.28,-2.06 -2.89,-7.11 -3.93,-9.44 -2.36,-5.28 -0.8,-5.88 1.58,-9.34 1.22,-1.78 1.67,-2.4 2.92,-3.94l8.89 -12.19z"/>
   <path class="fil5" d="M163.38 41.65c3.86,3.43 14.89,7.86 16.77,11.67 2.26,4.57 -0.16,21.91 1.67,27.11 2.26,1.02 8.78,1.8 11.87,1.74 -0.82,-14.43 -0.16,-29.61 -1.28,-43.96 -1.13,-14.48 -19.85,-22.43 -23.9,-21.88 -2.52,-1.96 -13.53,-3.03 -17.02,-3.25 1.68,2.86 5.31,4.07 8.47,11.7 2.75,6.63 3,9.69 3.41,16.87zm-68.45 39.16l32.1 -2.42c0.59,-3.88 0.11,-11.33 0.08,-15.72 -0.09,-13.37 -0.41,-11.61 15.12,-18.26 2.89,-1.24 9.52,-3.78 11.48,-5.19 0.13,-11.81 -6.96,-19.77 -16.16,-22.5 -10.19,-3.03 -23.45,-1.17 -33.72,1.95 -4.96,1.51 -5.39,1.85 -8.52,10.58 -5.97,16.69 -3.76,35.18 -0.38,51.57zm-9.6 1.44c-0.56,-10.35 -3.84,-14.07 -3.19,-32.29 0.66,-18.63 5.57,-25.48 6.11,-29.25 -6.94,1.65 -17.84,7.26 -22.82,10.89 -8.21,5.97 -9.77,10.49 -9.61,24.22 0.04,3.83 1.51,29.56 2.46,31.44 0.61,1.19 2.78,0.1 5.84,-0.71 5.92,-1.58 15.55,-3.89 21.21,-4.3z"/>
   <path class="fil2" d="M19.04 71.15c-2.38,1.24 -4.69,3.09 -6.13,8.14 3.68,4.59 3.56,9.61 10.64,15.26 2.39,1.91 13.5,8.96 17.4,8.11l5.84 3.87 2.03 0.46 -4.71 -6.02c1.96,-7.22 3.44,-2.34 8.68,-5.08l-2.5 -23.31c-10.17,-5.11 -21.14,-6.69 -31.24,-1.44zm146.38 -4.33c0.32,-0.49 0.08,-0.75 1.31,-1.38 3.68,-1.86 8.5,2.96 4.81,7.17 -4.64,4.34 -10.07,-3.17 -6.12,-5.8zm-7.12 5.67c-5.18,3.67 -7.7,-0.7 -7.7,-2.97 -0.01,-5.65 7.48,-5.07 7.48,-2.71 1.68,1.28 1.95,3.18 0.22,5.68zm-17.57 -6.82c5.94,-2.66 8.24,5.89 3.69,7.82 -5.42,2.29 -9.43,-5.25 -3.69,-7.82zm-6.43 -4.37c-2.14,1.55 -1.72,1.47 -1.8,6.26 -0.14,8.24 -1.3,9.51 5.99,9.65 6.58,0.13 35.43,1.51 37.36,0.32 1.99,-1.23 1.54,-3.78 1.59,-6.04 0.23,-12.03 0.59,-9.8 -13.03,-10.25 -4.89,-0.16 -27.7,-1.68 -30.11,0.07z"/>
   <path class="fil6" d="M137.01 213.64c0.75,4.09 -2.37,4.6 -3.7,2.77 -1.44,-1.99 0.37,-4.3 3.7,-2.77zm0.04 -4.63c3.68,-3.92 8.67,-0.44 4.61,4.64 -3.23,0.37 -4.22,0.07 -4.8,-2.78 -1.51,0.4 -1.69,0.67 -3.07,-0.24 -0.47,-3.69 1.7,-2.52 2.57,-2.07l0.7 0.45zm-13.96 -34.72c-2.66,5.71 -4.01,10.03 -4.88,16.53 -1.04,7.79 -0.54,18.06 3.48,23.55 5.76,7.85 16.29,5.89 20.47,2.47 5.97,-4.88 3.61,-18.13 1.83,-22.23 -0.71,-5.45 -1.15,-7.83 -0.65,-13.68 -1.8,-0.95 -4.28,-3.44 -6.3,-3.98 -3.88,4.87 -4.47,18.02 -5.08,22.98 -1.34,-0.21 -1.46,-0.46 -2.33,-1.78 -4.51,-6.84 0.68,-21.1 1.74,-26.25 -1.54,-0.79 -3.23,-1.84 -3.85,-3.43 -2.56,1.09 -3.04,3.19 -4.43,5.82z"/>
   <path class="fil7" d="M215.99 137.99l0.09 0.68c3.21,-1.72 6.57,-3.34 9.89,-5.22 2.64,-1.5 6.36,-3.66 9.61,-5.46 4.05,-2.24 5.68,-4.41 10.92,-3.28 2.59,0.56 10.77,1.89 11.75,3.29 0.47,-0.22 1.93,0.65 -0.02,-1.15 -0.55,-0.51 -1.17,-0.86 -1.78,-1.28 -3.12,-2.18 -11.34,-6.29 -14.65,-5.59 -5.09,1.08 -17.63,10.35 -22.09,14.62l-3.72 3.4zm-139.3 18l6.87 -7.05c8.81,-9.48 1.3,-6.73 17.14,-8.57l-0.04 -0.81c-1.24,-0.37 -11.99,-2.6 -12.97,-2.19 -4.02,3.85 -9.7,12.24 -11.99,18.78l0.99 -0.17zm91.9 23.71c-3.66,-0.41 -7.28,-1.56 -10.49,-1.76 6.33,7.25 20.57,5.67 28.22,0.92 6.83,-4.24 3.92,-3.55 3.51,-3.76 -4.15,3 -16.15,5.17 -21.24,4.6zm-152.88 -89.03c6.03,8.76 20.47,15.19 31.09,15.86l-5.84 -3.87c-3.9,0.85 -15.01,-6.2 -17.4,-8.11 -2.22,-1.77 -4.44,-4.11 -6.11,-7.1 -1.66,-2.98 -2.54,-5.67 -4.54,-8.16 -0.23,1.54 -0.29,2.55 -0.23,3.44 0.19,2.84 1.42,5.61 3.02,7.94zm121.31 122.97c-3.33,-1.53 -5.14,0.78 -3.7,2.77 1.33,1.83 4.45,1.32 3.7,-2.77zm-0.66 -5.08c-0.86,-0.45 -3.04,-1.62 -2.56,2.07 1.39,0.9 1.56,0.63 3.08,0.24 0.58,2.86 1.56,3.16 4.8,2.78 4.06,-5.08 -0.93,-8.57 -4.61,-4.64l-0.7 -0.45z"/>
  </g>
 </g>
</svg>
