<?xml version="1.0" encoding="UTF-8"?>
<!DOCTYPE svg PUBLIC "-//W3C//DTD SVG 1.1//EN" "http://www.w3.org/Graphics/SVG/1.1/DTD/svg11.dtd">
<!-- Creator: CorelDRAW 2020 (64 Bit) -->
<svg xmlns="http://www.w3.org/2000/svg" xml:space="preserve" width="39.7122mm" height="36.0874mm" version="1.1" style="shape-rendering:geometricPrecision; text-rendering:geometricPrecision; image-rendering:optimizeQuality; fill-rule:evenodd; clip-rule:evenodd"
viewBox="0 0 175.83 159.78"
 xmlns:xlink="http://www.w3.org/1999/xlink"
 xmlns:xodm="http://www.corel.com/coreldraw/odm/2003">
 <defs>
  <style type="text/css">
   <![CDATA[
    .fil1 {fill:black}
    .fil2 {fill:#FFCC00}
    .fil0 {fill:white}
   ]]>
  </style>
 </defs>
 <g id="Camada_x0020_1">
  <metadata id="CorelCorpID_0Corel-Layer"/>
  <g id="_2418139777792">
   <path class="fil0" d="M46.55 14.01c0.61,-0.11 1.94,-0.8 2.41,-1.05 1.65,-0.88 3.16,-1.97 4.84,-2.82 1.78,-0.9 3.52,-1.83 5.37,-2.58 1.79,-0.72 3.48,-1.63 5.28,-2.34 13.9,-5.51 33.88,-7.19 48.18,-2.38 2.17,0.73 4.9,1.45 6.94,2.45 1.9,0.93 3.88,2.49 5.61,3.72 4.55,3.22 7.04,4.23 10.02,9.38 1.09,1.89 2.11,3.94 3.09,5.9 0.56,1.13 1.42,2.77 2.09,4.3 1.55,0.07 3.13,0.22 4.59,0.45 7.47,1.16 10.91,9.12 9.95,16 -0.49,3.55 -1.89,6.38 -4.15,9.12 -1.14,1.38 -2.63,2.78 -3.74,4.24 0.93,-0.14 1.89,-0.2 2.92,-0.09 3.62,0.4 6,2.82 7.77,5.83 4.45,7.58 -0.38,15.79 -5.85,21.22 -2,1.99 -5.73,4.33 -7.05,7.2 0.73,0.48 1.47,0.94 2.22,1.34 1.43,0.76 3.03,1.39 4.52,2.05 7.86,3.45 17.74,6.98 22.13,14.94 5.25,9.51 0.39,17.63 -9.25,20.91 -3.26,1.11 -6,1.68 -9.44,1.73 -1.37,0.02 -2.72,0.01 -4.1,0.12 -0.78,0.06 -1.33,0.22 -2.18,0.2 -14.53,-0.28 -24.19,-1.13 -37.25,6.69 -2.26,1.35 -4.86,2.46 -6.96,4 -0.04,0.03 -0.08,0.06 -0.13,0.09l-10.27 6.8c-0.11,0.07 -0.21,0.13 -0.33,0.19 -1.25,0.63 -2.41,1.4 -3.67,2.03 -6.08,3.06 -13.62,5.9 -20.56,5.28 -1.97,-0.18 -3.87,-0.64 -5.69,-1.43 -0.74,-0.32 -1.42,-0.74 -2.11,-1.08 -1.68,0.18 -4.7,1.19 -6.13,1.57 -4.09,1.09 -8.12,1.81 -12.38,1.81 -10.58,0 -22.58,-4.3 -27.55,-14.3 -3.35,-6.73 -3.33,-13.62 -0.54,-20.54 1.75,-4.35 3.89,-8.43 6.41,-12.32 -6.27,1.26 -14.22,1.28 -18.69,-3.75 -3.76,-4.22 -3.3,-10.04 -1.63,-15.04 2.38,-7.14 7.77,-12.2 13.49,-16.76 2,-1.59 3.98,-3.07 6.25,-4.25 1.36,-0.71 2.75,-1.35 4.14,-2.03 -0.07,-0.53 -0.16,-1.05 -0.29,-1.61 -0.37,-1.61 -0.72,-3.06 -0.92,-4.71 -0.36,-3.06 -0.32,-6.27 -0.2,-9.34 0.15,-3.65 1.07,-7.12 2.54,-10.45 0.51,-1.14 1.07,-2.25 1.67,-3.35 0.21,-0.39 0.51,-0.89 0.72,-1.33 -0.03,-2.12 -0.33,-1.55 -0.85,-4.02 -2.48,-11.73 4.5,-22.27 16.98,-22.27 0.74,0 1.14,0.14 1.78,0.3z"/>
   <path class="fil1" d="M44.77 16.93c-10.77,0 -15.81,8.98 -13.83,18.38 0.57,2.72 0.93,1.43 0.93,5.14 0,1.22 -4.61,6.69 -4.94,14.79 -0.51,12.46 1.52,11.65 1.52,17.46 -5.87,3.11 -6.31,2.57 -11.71,6.88 -5.05,4.02 -10.26,8.72 -12.44,15.26 -4.51,13.53 5.73,17.31 18.08,14.29l6.82 -1.9c-0.67,1 -1.23,1.9 -2,2.93 -3.73,4.98 -6.73,10.19 -9.06,15.98 -2.45,6.08 -2.5,11.99 0.43,17.9 4.15,8.34 14.53,12.51 24.67,12.51 8.86,0 15.61,-3.41 18.97,-3.41 1.56,0 7.25,7.27 26.44,-2.4 1.48,-0.75 2.17,-1.27 3.66,-2.03l10.27 -6.8c2.16,-1.59 4.82,-2.74 7.21,-4.17 13.87,-8.3 23.98,-7.43 38.96,-7.15 0.92,0.02 0.62,-0.09 1.86,-0.19 4.51,-0.37 6.47,0.45 12.76,-1.69 7.69,-2.62 11.76,-8.53 7.47,-16.3 -3.9,-7.06 -13.86,-10.59 -20.6,-13.54 -4.93,-2.16 -4.65,-1.93 -9.12,-4.92 0.43,-5.21 5.45,-7.92 8.45,-10.9 4.11,-4.08 9.03,-11.01 5.34,-17.31 -3.91,-6.66 -7.71,-3.69 -12.65,-3.28 0,-7.62 8.19,-8.85 9.44,-17.89 0.91,-6.58 -2.72,-11.67 -7.25,-12.37 -1.83,-0.28 -4.52,-0.46 -6.36,-0.46 -0.39,-1.66 -4.68,-9.99 -5.7,-11.75 -2.69,-4.64 -4.94,-5.42 -9.09,-8.36 -5.99,-4.24 -4.2,-3.22 -11.71,-5.74 -13.85,-4.65 -33.12,-2.76 -45.96,2.32 -1.94,0.77 -3.32,1.55 -5.25,2.34 -1.74,0.71 -3.3,1.55 -5.12,2.47 -1.81,0.92 -3.11,1.9 -4.79,2.8 -4.39,2.32 -4.36,1.13 -5.7,1.13z"/>
   <path class="fil2" d="M50.84 18.07c1.76,-0.47 5.48,-3.29 7.45,-4.31 2.86,-1.46 5.48,-2.34 8.72,-3.42 16.46,-5.52 38.66,-5.55 53.71,3.86 5.91,3.7 14.56,11.74 14.72,19.05 -4.93,3.31 -10.46,6.18 -15.29,9.76 -1.12,0.83 -1.28,1 -2.26,1.91l-10.62 10.24c-2.06,2.06 -6.83,6.72 -7.49,9.2 2.03,-0.54 8.92,-8.39 11.09,-10.54 0.99,-0.98 1.51,-1.18 2.48,-2.07 6.23,-5.78 19.62,-16.23 27.79,-16.23 4.4,0 7.21,1.67 7.21,7.21 0,2.79 -2.57,10.55 -5.69,11.38 -0.27,-1.18 -0.48,-1.1 -0.76,-2.28l-2.65 8.36c-0.74,2.67 -2.53,4.99 -3.04,7.2l4.42 -1.65c4.64,-2.21 12.27,-2.03 12.27,3.16 0,4.42 -1.28,7.93 -4.09,11.09 -2.15,2.43 -4.13,4.61 -6.7,6.58 -1.74,1.34 -2.6,3.13 -4.39,4.33 -1.06,-1.59 -3.41,-4.09 -3.41,-6.45 0,-1.78 6.09,-7.21 7.97,-7.21 1.78,0 1.86,2.47 3.41,3.04 0,-8.83 -7.76,-4.79 -10.62,-4.55l0 0.76c0.87,0.2 0.87,0.29 1.9,0.38l-0.98 1.29c-0.55,0.52 -0.84,0.72 -1.4,1.26 -3.22,3.17 -4.07,5.53 -4.07,10.73 1.06,-0.38 1.01,-0.35 1.14,-1.9 1.65,1.11 2.36,3.23 3.62,4.72 7.98,9.43 27.95,9.61 32.66,21.6 0.2,0.5 0.9,2.93 0.9,3.27 0,9.55 -18.75,10.24 -25.8,10.24 -2.5,0 -3.81,-0.32 -5.71,-0.4 -4.73,-0.2 -13.33,1.91 -16.3,1.91 1.74,-1.52 4.42,-1.86 6.51,-2.6l2.22 -1.2c-6.93,0 -15.43,4.43 -21.77,6.69l-20.87 7.59c-4.97,1.68 -9.26,3.37 -14.5,4.85l-14.34 4.63c-9.44,3.08 -22.12,4.87 -30.75,-0.84 -4.64,-3.07 -7.81,-5.79 -7.81,-12.68 0,-11.03 8.05,-21.89 14.47,-29.92 7.69,-9.62 6.83,-11.93 -0.5,-14.79 -0.7,-0.27 -0.45,-0.13 -1.08,-0.44 -0.63,-0.32 -0.67,-0.35 -1.14,-0.76 2.01,-0.04 3.54,-0.76 5.69,-0.76 -0.42,-1.57 -1.48,-1.52 -4.93,-1.52 -5.06,0 -8.82,1.11 -11.93,3.25 -2.33,1.6 -6.36,5.59 -7.04,8.51 1.28,-0.34 1.65,-1.06 2.56,-2 7.54,-7.72 16.41,-6.43 16.41,2 0,4.04 -11.24,6.83 -14.8,6.83 -5.16,0 -11.38,-0.69 -11.38,-7.21 0,-3.74 2.41,-7.75 4.12,-9.92 5.93,-7.55 16.82,-14.89 26.99,-15.12l0 -0.76c-1.51,-0.35 -1.77,-0.57 -3.69,-0.86 -1.81,-0.27 -2.31,0.08 -3.02,-1.53 -2.67,-6.09 -1.08,-22.88 3.68,-26.07 1.55,1.04 5.84,9.08 2.71,0.7 -2.26,-6.05 -5.49,-16.01 -0.35,-21.49 2.69,-2.87 4.77,-3.88 9.02,-3.88 5.85,0 14.14,9 16.96,13.78 4.81,8.16 6.37,12.81 10.24,20.5 1.81,3.61 5.33,10.73 9.23,11.63 -0.87,-3.72 -5.43,-8.6 -7.34,-12.39 -4.85,-9.61 -6.57,-17.24 -13.61,-25.85 -1.52,-1.85 -2.75,-3.75 -4.57,-5.29 -0.9,-0.76 -1.87,-1.44 -2.85,-2.09 -1.68,-1.11 -1.96,-1.1 -2.74,-2.58zm53.5 119.13l0.74 -0.44 -0.74 0.44zm-55.01 -96.37c0,2.26 -4.55,8.61 -4.55,18.59 0,11.93 7.61,23.14 19.35,23.14 4.25,0 3.51,-0.32 7.21,-2.28 1.45,0.97 2.32,2.38 3.78,3.43 3.65,2.61 6.85,2.9 10.71,0.44 3.66,-2.33 0.52,-0.07 7.89,-0.07 3,0 4.91,-1.52 7.21,-1.52 2.64,0 12.2,3.52 19.57,-1.3 3.61,-2.36 7.22,-8.31 7.71,-12.78l0.42 -9.82c1.38,-0.73 2.24,-1.5 3.64,-2.43l7.64 -5.26c0.65,-0.48 1.09,-0.8 1.73,-1.31 1.77,-1.42 1.28,-0.77 1.41,-2 -5.75,1.34 -8.81,3.3 -13.5,6.99 -2.03,1.6 -3.55,3.14 -5.52,4.72 -1.08,0.86 -1.59,1.65 -2.76,2.55 -1.28,0.99 -1.68,1.43 -2.78,2.53 -5.67,5.69 -17.3,16.98 -24.76,16.98 -4.03,0 -4.6,0.28 -2.59,-2.58l4.02 -5.85c0.89,-1.01 1.65,-1.88 2.36,-2.95 -1.47,0.12 -1.28,0.33 -2.3,1.12 -0.8,0.62 -1.04,0.8 -1.72,1.7 -2.1,2.75 -8.3,9.71 -11.92,9.71 -2.74,0 -5.28,-2.71 -6.74,-4.26 -1.84,-1.96 -2.69,-4.46 -3.65,-7.36 -4.05,-12.2 -3.89,-19.66 -15.15,-29.24 -3.86,-3.28 -9.93,-6.95 -15.44,-6.95 0.29,1.08 0.74,1.23 1.66,1.76 0.91,0.53 1.67,0.86 2.52,1.28 1.04,0.52 4.55,1.74 4.55,3.03zm49.7 51.98c0,5.49 15.55,6.79 15.55,1.9 0,-3.62 -6.25,-5.31 -8.35,-5.31 -1.87,0 -7.21,0.54 -7.21,3.41zm1.52 -0.76c2.03,-2.77 11.86,-1.63 12.9,2.28 -5.5,-2.91 -5.57,-3.98 -12.9,-2.28zm25.42 6.07c0,6.66 15.18,8.1 15.18,4.17 0,-6.34 -15.18,-8.5 -15.18,-4.17zm3.79 -1.14c4.49,0 9.82,0.58 10.24,5.69 -2.12,-1.42 -0.55,-1.42 -3.93,-3.66 -1.9,-1.25 -3.33,-1.66 -6.31,-1.66l0 -0.38zm-41.73 -83.85c0,6.14 15.94,5.6 15.94,1.52 0,-6.73 -15.94,-5.44 -15.94,-1.52zm1.14 0c1.73,-2.58 3.39,-2.28 6.83,-2.28 3.41,0 6.18,0.62 6.83,3.41 -6.61,-3.17 -7.57,-2.56 -13.66,-1.14zm-44.39 90.68c0,1.49 0.11,3.04 3.41,3.04 12.43,0 16.97,-15.29 1.13,-7.97 -1.24,0.57 -4.54,3.5 -4.54,4.94zm1.14 1.14c0.12,-5.55 11.22,-9.14 12.14,-5.69 -8.87,0 -8.77,3.43 -12.14,5.69zm69.05 1.14c1.42,2.69 3.75,4.14 7.36,4.78 3.05,0.55 8.57,0.67 8.57,-2.89 0,-2.69 -12.06,-9.22 -15.93,-1.9zm4.17 -2.28c3.42,0 10.53,0.61 10.62,4.93 -5.3,-2.8 -1.74,-3.79 -12.9,-3.79 0.56,-0.77 0.87,-1.14 2.28,-1.14zm-73.6 16.31c0,2.41 0.16,2.66 3.42,2.66 4.52,0 10.24,-5.53 10.24,-8.73 0,-0.87 -0.13,-0.44 -0.38,-1.52 -7.59,-1.77 -13.28,4.64 -13.28,7.59zm1.52 0.76l-0.76 0c0.1,-4.37 5.03,-7.97 11,-7.97l0 0.76c-4.46,0.1 -9.43,3.7 -10.24,7.21zm51.6 -71.71c2.71,0 9.47,-0.07 9.67,-3.47 0.31,-5.55 -13.36,-4.73 -15.64,-1.32 -1.93,2.9 3.04,4.79 5.97,4.79zm-4.93 -3.79c2.13,-4.03 9.54,-3.53 12.3,-1.67 1.02,0.69 0.67,0.14 0.98,1.3 -2.12,-0.18 -3.68,-1.52 -6.07,-1.52 -3.07,0 -4.63,1.68 -7.21,1.9zm5.69 -19.73c2.85,0.66 6.1,0.31 6.83,3.04 -8.14,-3.9 -10.61,-0.8 -13.24,-0.55 -0.3,0.03 -1.55,-0.52 -1.55,0.55 0,5.65 15.93,4.62 15.93,0.38 0,-2.07 -1.5,-2.85 -3.02,-3.43 -0.91,-0.34 -4.73,-1.27 -4.95,0.02zm-20.49 7.21c-4.95,0.11 -10.59,6.07 0.11,7.12 8.67,0.85 14.81,-7.49 4.05,-7.9l-4.16 0.78zm0 0c3.84,0 7.12,-0.76 8.73,2.28 -6.18,0 -6.9,-2.75 -13.28,1.52 0.59,-2.53 1.89,-2.52 3.81,-3.4l0.75 -0.39zm-10.24 65.26c0,5.5 14.42,1.11 14.42,-4.93 0,-3.55 -6.44,-1.6 -8.21,-1.01 -1.72,0.58 -2.7,1.14 -3.85,2.22 -0.68,0.64 -2.36,2.65 -2.36,3.71zm1.14 0.76c0,-2.81 1.32,-3.71 3.1,-4.87 1.46,-0.96 7.77,-3.8 8.67,-0.44 -9.4,0 -8.22,2.94 -11.76,5.31zm44.77 -75.12c0,1.91 3.42,4.11 5.08,4.78 3.68,1.48 4.51,1.39 8.2,0.53 0.24,-1.02 0.38,-0.71 0.38,-1.52 0,-5.66 -13.66,-8.94 -13.66,-3.79zm1.9 -1.52c3.06,-0.71 3.84,-0.53 7.34,1.39 1.63,0.9 2.83,1.59 3.29,3.54 -2.64,-0.7 -2.52,-3.57 -7.22,-4.16l-3.41 -0.77zm-7.97 14.04c0,4.81 13.1,6.61 13.66,2.28 -0.68,-2.94 -5.04,-4.93 -8.73,-4.93 -1.85,0 -4.93,1.48 -4.93,2.66zm1.9 -1.14c3.51,-0.82 9.07,-0.33 9.86,2.66 -7.48,-3.96 -5.48,-1.83 -9.02,-2.36 -0.88,-0.13 -0.36,0.01 -0.84,-0.29zm-45.15 -14.42c0,2.84 6.49,3.03 8.73,3.03 1.95,0 5.69,-1.8 5.69,-3.03 0,-5.46 -14.42,-4.89 -14.42,0zm1.14 -0.38c0.77,-1.46 0.83,-1.69 2.81,-2.13 3.24,-0.72 7.35,-1.21 9.33,1.74 -2.67,-0.06 -3.41,-1.14 -6.83,-1.14 -2.65,0 -3.08,1.33 -5.31,1.52zm-18.59 114.2l-0.81 0.21 0.81 -0.21c1.59,-0.13 3.93,-1.12 5.55,-1.66 19.84,-6.62 38.29,-12.67 59.71,-15.03 9.18,-1.02 19.12,-1.62 28.08,-1.14 2.1,0.11 4.71,0.76 6.83,0.76 -0.37,-1.38 -0.62,-1.17 -2.25,-1.55 -10.81,-2.51 -27.51,-1.52 -38.78,0.35 -4.62,0.77 -8.83,1.61 -12.92,2.63 -4.24,1.06 -7.89,2.05 -11.98,3.19 -8.73,2.43 -24.77,7.9 -32.83,11.56 -0.83,0.38 -0.86,0.42 -1.4,0.88zm56.53 2.66c-0.8,1.1 -2.28,1.66 -3.57,2.5 -5.04,3.3 -5.72,4.24 -11.73,7.24 -8.89,4.44 -10.72,5.1 -20.36,4.3 0.5,-0.44 0.01,-0.14 0.92,-0.6 0.13,-0.06 1.02,-0.42 1.07,-0.44l6.62 -2.49c3.54,-1.38 24.55,-9.93 27.05,-10.51z"/>
  </g>
 </g>
</svg>
