<?xml version="1.0" encoding="UTF-8"?>
<!DOCTYPE svg PUBLIC "-//W3C//DTD SVG 1.1//EN" "http://www.w3.org/Graphics/SVG/1.1/DTD/svg11.dtd">
<!-- Creator: CorelDRAW 2020 (64 Bit) -->
<svg xmlns="http://www.w3.org/2000/svg" xml:space="preserve" width="50.7992mm" height="15.4148mm" version="1.1" style="shape-rendering:geometricPrecision; text-rendering:geometricPrecision; image-rendering:optimizeQuality; fill-rule:evenodd; clip-rule:evenodd"
viewBox="0 0 453.55 137.63"
 xmlns:xlink="http://www.w3.org/1999/xlink"
 xmlns:xodm="http://www.corel.com/coreldraw/odm/2003">
 <defs>
  <style type="text/css">
   <![CDATA[
    .fil0 {fill:#FEFEFE}
    .fil1 {fill:black}
    .fil3 {fill:#FFCC00}
    .fil2 {fill:white}
   ]]>
  </style>
 </defs>
 <g id="Camada_x0020_1">
  <metadata id="CorelCorpID_0Corel-Layer"/>
  <g id="_2170320811120">
   <path class="fil0" d="M108.64 47.43c2.21,-1.06 6.42,-2.13 8.43,-2.71 2.72,-0.78 5.46,-1.53 8.2,-2.24 5.1,-1.32 11.08,-3.18 16.71,-3.95 -2.74,-2.75 -4.63,-6.17 -4.75,-10.44 -0.57,-19.47 34.45,-23.85 48.5,-25.45 37.11,-4.21 126.21,-5.9 157.12,14.76 0.59,0.4 1.16,0.83 1.7,1.31 3.55,3.13 5.65,7.8 5.47,12.54 -0.15,3.98 -1.82,7.43 -4.37,10.21 0.28,0.23 0.55,0.46 0.82,0.71 0.38,0.35 0.75,0.77 1.12,1.17 0.02,-0.01 0.04,-0.02 0.06,-0.03 13.89,-8.57 34.71,-10.54 48.05,0.17 2.75,2.21 5.23,4.61 7.28,7.49 0.12,0.17 0.33,0.49 0.56,0.85 12.44,-9.08 30.17,-9.24 41.14,2.41 9.58,10.17 10.33,26.21 7.28,39.14 -3.15,13.35 -11.91,29.22 -26.12,33.06 -6.29,1.7 -12.58,0.62 -18.31,-2.35 -5.87,-3.05 -10.69,-7.27 -14.12,-12.94 -0.92,-1.52 -1.7,-3.09 -2.41,-4.71 -1.14,1.28 -2.29,2.55 -3.49,3.78 -4.09,4.23 -8.68,8.23 -13.76,11.23 -8.87,5.22 -18.56,6.86 -27.88,1.7 -0.9,0.16 -2.2,0.65 -3.17,0.81 -2.81,0.45 -5.52,0.02 -8.19,-0.89 -1.97,-0.68 -3.73,-1.82 -5.35,-3.12 -0.54,-0.43 -1.24,-1.1 -1.88,-1.61 -2.69,0.83 -7.12,3.28 -9.09,4.32 -3.04,1.61 -9.91,5.61 -13.17,5.87 -4.27,0.34 -8.19,-0.67 -11.19,-3.83 -0.84,-0.89 -1.53,-1.86 -2.16,-2.89 -0.03,0.02 -0.06,0.03 -0.09,0.05 -1.52,0.81 -3.06,1.54 -4.67,2.14 -4.36,1.62 -9,2.17 -13.44,0.5 -5.34,-2.02 -11.18,-4.83 -15.3,-8.88 -1.17,-1.15 -2.18,-2.39 -3.07,-3.77 -0.04,-0.07 -0.09,-0.14 -0.13,-0.21 -0.03,0.02 -0.05,0.04 -0.08,0.05l-1.49 0.93c0.19,0.7 0.41,1.43 0.53,1.98 0.54,2.37 0.83,4.76 0.58,7.19 -0.8,7.96 -6.85,12.4 -13.99,14.74 -12.73,4.17 -26.77,-3.63 -30.01,-16.55 -0.14,-0.56 -0.26,-1.17 -0.39,-1.75 -1.26,-1 -2.29,-1.98 -3.39,-3.15 -2.41,4.74 -6.14,8.6 -11.8,9.19 -3.96,0.42 -7.9,-0.91 -11.35,-2.77 -1.72,-0.93 -3.37,-2.01 -4.96,-3.17 -0.28,2.9 -1.48,5.6 -3.86,7.56 -3.96,3.27 -9.49,3.17 -14.01,1.2 -4.66,-2.04 -8.2,-5.84 -10.57,-10.26 -11.21,7.27 -26.18,11.03 -37.19,1.19 -3.99,-3.57 -7.21,-6.58 -9.79,-11.17 -0.73,0.68 -1.44,1.34 -1.82,1.66 -4.09,3.34 -8.85,6 -13.59,8.28 -6.56,3.15 -15.53,6.58 -22.95,5.08 -2.13,-0.43 -4.09,-1.26 -5.85,-2.55 -0.42,-0.31 -0.79,-0.64 -1.15,-0.97 -1.51,0.75 -2.76,1.28 -4.9,1.54 -4.94,0.6 -9.56,-1.49 -13.35,-4.51 -0.5,-0.4 -0.89,-0.9 -1.29,-1.33 -4.02,1.25 -14.27,7.08 -17.48,8.86 -2.99,1.66 -6.4,2.17 -9.71,1.23 -10.52,-3.01 -14.19,-17.03 -8.29,-25.87 0.12,-0.18 0.4,-0.6 0.46,-0.82 0.13,-1.45 -0.09,-2.02 0.38,-3.66 4.67,-15.99 12.17,-37.05 22.67,-50 4.38,-5.4 4.93,-5.57 10.67,-8.76 6.08,-3.39 11.35,-3.06 17.27,0.63 1.93,1.2 2.99,2.1 4.27,3.37 0.16,-0.09 0.31,-0.17 0.45,-0.24 14.19,-7.36 33.84,-7.77 46.22,3.5 1.76,1.6 2.64,3.33 3.43,5.18z"/>
   <path class="fil1" d="M147.38 41.66c-6.25,-0.17 -15.06,2.59 -21.24,4.19 -2.42,0.62 -14.81,3.95 -16.34,4.9 -1.08,0.67 -1.46,1.2 -2.71,1.79 -1.06,-2.12 -2.03,-5.73 -4.21,-7.72 -11.79,-10.73 -30.25,-9.23 -42.28,-2.98 -4.69,2.43 -1.32,1.01 -8.16,-3.27 -5.3,-3.3 -9.23,-3.06 -13.74,-0.55 -5.05,2.82 -5.02,2.2 -9.66,7.92 -9.94,12.25 -17.46,33.13 -22.03,48.79 -0.75,2.55 0.52,2.71 -1.29,5.43 -6.97,10.45 3.11,25.4 13.42,19.68 3.85,-2.14 18.09,-10.04 20.1,-9.47 0.91,0.26 1.75,1.65 2.52,2.26 9.64,7.68 15.75,1.51 16.56,1.63 1.75,0.27 5.19,10.31 27.96,-0.64 13.48,-6.48 15.46,-10.85 17.75,-11.92 3.27,3.9 1.12,4.6 11.28,13.69 10.39,9.29 24.92,4.28 34.77,-2.72 0.71,-0.51 0.73,-0.51 1.86,-0.36 6.63,16.9 24.86,15.83 23.17,3.04 -0.32,-2.39 -1.55,-3.28 -1.06,-5.29 1.51,0.62 21.77,23.02 30.5,1.37 0.39,-0.96 0.54,-1.87 1.04,-2.62 1.27,0.29 2.08,2.12 2.99,3.12 5.79,6.35 4.02,2.02 5.31,7.17 2.45,9.76 13.62,18 25.56,14.09 17.69,-5.8 10,-19.36 10.12,-22.3l3.49 -2.18c7.01,-4.94 -1,3.96 21.65,12.51 8.14,3.07 16.82,-3.75 18.19,-3.93 1.79,1.69 2.98,8.47 11.86,7.76 3.72,-0.3 17.91,-9.67 23.09,-10.41 1.12,0.05 4.02,3.83 7.81,5.13 7.23,2.48 9.29,-1.17 11.62,0.16 21.29,12.18 42.48,-18.15 44.55,-19.58 2.02,0.91 2.58,13 17.33,20.65 31.04,16.12 53.63,-42.48 33.01,-64.39 -10.17,-10.81 -26.51,-9.82 -37.31,-1.42 -0.65,0.5 -1.32,1.14 -1.88,1.49 -2,-1.54 -2.36,-4.79 -9.44,-10.48 -12.22,-9.81 -31.51,-7.66 -44.05,0.07 -4.43,2.73 -2.36,-0.96 -9.7,-4.34 9.98,-6.66 7.7,-17.25 1.15,-21.63 -29.23,-19.54 -116,-18.61 -154.79,-14.2 -11.42,1.3 -45.9,5.35 -45.42,21.89 0.18,6.06 5.15,9.98 10.1,12.6 -1.18,0.31 -2.32,0.67 -3.42,1.07z"/>
   <path class="fil2" d="M25.99 98.62c0.09,-1.54 6.39,-15.91 7.57,-18.26 0.52,-1.03 0.85,-1.87 1.38,-3.03 1.25,-2.73 0.6,-1.84 1.67,-2.35 -0.19,5.04 -0.45,10.71 0.17,15.65l0.46 4.82c-2,0.35 -9.32,3.42 -11.25,3.16zm207.67 -42.76c-0.51,1.75 -0.31,1.54 1.28,3.76 0.42,0.58 0.44,0.5 1.06,1.06 0.31,3.99 1.52,5.85 -2.12,7.02 -1.13,0.36 -2.11,0.07 -2.39,1.66 -0.26,1.46 -0.04,3.26 0.03,4.43 0.2,3.71 2.48,7.01 5.43,8.11 3.01,1.12 3.99,1.59 6.59,0.37 0.13,-3.49 -1.41,-4.2 0.65,-12.38 0.75,-2.98 3.28,-9.68 3.32,-10.77 -3.11,-2.89 -10.05,-4.82 -13.85,-3.25zm-124.61 7.42l-0.07 1.92c-0.13,3.48 4.02,4.12 6.22,4.42 4.91,0.66 19.07,-5.11 24.73,-7.05l7.94 -3.05c2.44,-1.07 10.52,-3.32 6.02,-6.37 -3.46,-2.35 -11.54,-1.8 -15.71,-0.74 -4.07,1.03 -8.67,1.96 -12.71,3.21 -0.48,0.15 -0.76,0.32 -1.35,0.48 -2.02,0.55 -3.77,1 -5.66,1.53l-5.62 1.59c-0.74,0.23 -1.94,0.8 -2.44,1.3 -0.48,0.47 -1.33,1.81 -1.36,2.76zm12.34 36.37c0.04,-0.92 0.59,-2.62 0.84,-3.47 0.8,-2.76 3.75,-8.78 5.03,-11.62 0.61,-1.34 0.62,-1.57 1.82,-2.15l5.27 -2.06c3.88,-1.48 12.95,-4.53 16.03,-5.89 1.55,-0.69 4.22,-0.81 4.3,-3.09 0.08,-2.19 -3.08,-3.17 -5.08,-3.44 -8.16,-1.1 -11.09,1.01 -18.2,2.95l-18.78 6.78c-0.57,0.25 -0.15,0.1 -0.65,0.26l-1.66 0.62c-1.01,0.36 -1.61,0.16 -1.67,1.76 -0.04,1.14 0.88,2.24 1.53,3.24l2.29 2.23c-0.12,2.08 -2.67,5.41 -3.74,8.75 -1.23,3.81 -0.47,6.94 1.49,9.55l2.98 3.4c1.71,1.86 4.87,4.73 6.83,5.69 6.4,3.13 12.88,1.38 18.47,-1.55 1.25,-0.66 2.42,-1.18 3.69,-1.91l3.7 -2.18c7.74,-4.25 9.36,-16.12 4.28,-14.97 -1.47,0.33 -6.46,3.51 -8.35,4.54 -1.46,0.8 -2.61,1.45 -4.11,2.2 -3.16,1.58 -9.99,5.21 -13.34,5.54 -1.16,0.12 -1.58,0.11 -2.27,-1.09 -0.92,-1.58 -0.75,-2.1 -0.67,-4.09zm83.29 -10.52c-0.16,4.06 0.44,7.42 1.6,10.82 0.24,0.71 0.42,1.32 0.7,1.95 0.47,1.05 1.16,2.34 1.77,3.27 2.12,3.26 2.17,3.07 4.61,5.48 0.67,0.66 0.41,0.52 1.31,1.08 3.27,2.05 4.06,2.16 7.75,2.65 3.02,0.41 5.71,-0.61 6.88,-0.45 0.81,0.11 3.48,2.52 4.21,3.24 1.61,1.6 3.37,2.89 3.28,5.21 -0.15,3.96 -4.67,1.65 -6.46,0.29 -6.13,-4.66 -2.5,-6.74 -4.65,-7.03 -1.67,-0.23 -7.1,-0.14 -7.21,2.88 -0.16,4.17 6.23,9.38 10.51,9.96 2.95,0.4 5.27,-0.22 7.38,-0.93 2.09,-0.7 4.31,-1.77 5.74,-3.44 1.94,-2.27 1.61,-4.91 -0.06,-7.43 -0.78,-1.18 -1.35,-1.76 -2.25,-2.8l-2.32 -2.99c0.6,-0.9 5.4,-3.38 7.22,-4.61 0.87,-0.59 1.52,-1.02 2.39,-1.65 3.69,-2.64 7.86,-4.64 8.03,-9.26 0.2,-5.25 -7.37,-2.58 -9.06,-1.94 -3.83,1.46 -13.76,7.74 -18.63,10.44 -2.21,1.22 -8.79,4.77 -9.34,-1.05 -0.72,-7.68 -0.46,-9.24 0.87,-16.51 1.73,-9.43 8.63,-17.25 9.05,-18.84 -0.79,-0.61 -3.48,-1.92 -3.37,-4.86 0.06,-1.63 0.54,-1.86 0.16,-3.56 -1.32,-5.86 -4.87,-0.57 -8.23,2.68 -1.14,1.11 -1.86,1.98 -2.82,3.38 -0.56,0.82 -0.72,0.84 -1.27,1.73 -0.34,0.54 -0.31,0.46 -0.61,0.9 -0.26,0.39 -0.42,0.69 -0.67,1.1 -3.3,5.31 -6.24,13.3 -6.51,20.28zm86.33 -28.01c-0.21,5.5 -1.46,3.83 -1.78,5.27 0.06,1.74 1.45,3.3 1.32,6.79 -0.23,5.91 -0.67,10.68 -3.06,16.02 -1.74,3.87 -2.38,5.32 -4.95,8.55 -2.01,2.52 -4.94,5.18 -7.79,6.42l-3.4 1.17c-1.28,0.31 -1.97,1.32 -1.75,-4.41 0.13,-3.37 0.35,-4.31 0.92,-7.11 1.48,-7.28 3.74,-11.97 7.56,-17.69 1.06,-1.59 1.06,-1.29 1.86,-3.24 0.59,-1.42 0.52,-1.93 0.58,-3.54 0.1,-2.62 -2.42,-2.77 -2.83,-5.13 -0.66,-3.81 1.28,-3.75 1.38,-6.36 0.12,-3.13 -10.05,1.45 -13.46,4.78 -4.11,4.02 -1.48,5.89 -2.13,7.75 -0.4,1.14 -1.61,2.48 -1.96,3.71 -0.42,1.51 -0.16,3.84 -0.58,5.55 -1.83,0.25 -2.1,-0.46 -3.47,4.22 -2.09,7.13 -1.96,14.6 2.09,21.12 0.94,1.51 2.67,3.3 3.89,4.61l0.52 0.55c0.26,0.25 0.43,0.37 0.7,0.63 0.96,0.88 2.06,1.72 3.24,2.34 6.87,3.64 12.39,4.46 18.71,-0.02 3.37,-2.39 5.87,-5.39 8.17,-9.08l3.74 -7.61c1.75,-4.92 3.3,-8.7 3.56,-15.62 0.32,-8.37 -1.98,-15.72 -7.43,-20.38 -5.57,-4.77 -3.65,0.39 -3.66,0.7zm129.69 8.42c2.47,-1.54 8.24,-3.98 9.55,1.41 2.9,11.88 -4.28,30.15 -15.35,35.4 -1.28,0.61 -3.47,1.33 -4.9,1.13 0.02,-1.24 -0.19,-1.12 -0.14,-2.5 0.1,-2.67 0.16,-6.12 0.7,-8.56 0.82,-3.69 2.28,-8.81 3.97,-11.9 0.37,-0.68 0.61,-1.24 0.97,-1.86 1.04,-1.81 4.32,-6.61 4.79,-7.9 0.36,-0.98 0.34,-3.69 0.4,-5.23zm-17.28 -0.13c-0.04,1.2 0.43,1.06 0.39,2.26 -0.03,0.91 -3.48,7.24 -4.35,9.36 -0.41,0.99 -0.54,1.42 -0.89,2.53 -1.81,5.67 -2.08,6.29 -2.33,12.7 -0.03,0.93 0.22,1.01 0.36,2.02 0.29,2.13 0.84,4.35 1.73,6.21 3.42,7.17 11.2,12.85 17.91,13.75 2.1,0.28 4.08,-0.21 5.71,-0.6 2.4,-0.58 4.78,-2.27 6.71,-3.86 3.39,-2.8 5.77,-6.42 7.98,-10.49 0.94,-1.74 1.77,-3.3 2.47,-5.29 3.48,-9.85 5.38,-22.27 -0.91,-31.94 -2.66,-4.09 -7.67,-6.75 -12.09,-7.35 -6.95,-0.94 -13.66,0.8 -19.18,5.08 -1.31,1.01 -3.4,3.12 -3.5,5.63zm-209.91 -9.88c-0.09,2.3 0.28,2.98 -0.01,6.34l-2.8 23.87c-0.23,0.88 -0.43,1.41 -0.56,2.41 -0.18,1.42 -1.35,8.21 -2.49,9.01 -0.83,-0.64 -0.74,-0.7 -1.7,-3.08 -1.59,-3.94 -2.64,-6.75 -3.54,-11.28 -1.25,-6.3 -1.83,-11.45 -1.57,-18.23 0.19,-4.97 1.49,-7.75 -0.72,-10.37 -2.1,-2.49 -8.35,-4.51 -11.32,-3.68 -1.61,0.45 -5.58,-0.93 -6.98,2.62l-3 11.78c-2.21,9.97 -6.83,32.76 -2.56,43.35 1.88,4.65 7.17,8.69 11.06,6.26 -0.24,-1.54 -0.63,-1.02 -1.06,-2.92 -0.73,-3.24 -0,-12.76 0.15,-16.76 0.07,-1.93 0.48,-3.62 0.79,-5.56 0.46,-2.88 0.21,-4.65 1.5,-4.88 0.62,3.97 2.71,9.64 4.8,13.2l2.42 3.69c1.99,2.53 5.46,5.68 8.03,7.13 0.76,0.43 1.34,0.68 2.11,1.09 2.95,1.55 7.09,2.71 9.24,-0.22 1.57,-2.14 1.58,-2.81 2.47,-5 1.54,-3.77 2.2,-8.46 2.96,-12.71 0.2,-1.1 0.45,-1.99 0.65,-3.16 0.52,-3.13 0.82,-7.9 1.29,-10.93l1.22 -15.06c0.39,-10.17 0.45,-7.89 -2.06,-9.58 -1.21,-0.81 -1.2,-5.58 -6.54,-1.53 -1.27,0.97 -1.72,2.3 -1.8,4.2zm121.95 43.46c-0.94,-0.13 0.37,-2.52 0.56,-2.99l6.42 -14.91c0.52,-1.16 0.94,-2.02 1.37,-3.04 1.17,-2.79 0.66,-2.35 1.55,-2.5 0.26,0.74 0.05,10.21 0.22,13.49 0.04,0.78 0.25,1.51 0.32,2.32 0.16,1.78 0.45,3.22 0.09,4.66 -1.79,0.24 -3.61,0.99 -5.29,1.46 -0.93,0.26 -1.65,0.56 -2.58,0.82 -0.63,0.17 -2.06,0.79 -2.66,0.71zm42.47 4.08c0.13,-1.15 0.29,-0.59 0.64,-4.03 0.55,-5.33 0.41,-6.83 1.55,-12.6 0.52,-2.64 1.01,-5.14 1.59,-7.63l5.13 -17.54c1.64,-5.24 0.14,-4.78 3.17,-5.5 4.27,-1.01 10.24,-2.52 14.73,0.08 0.66,0.38 1.36,1.1 1.74,1.72 0.87,1.41 1.5,2.93 1.42,5.2 -0.28,7.32 -5.69,16.21 -9.61,21.24l-3.69 4.5c-0.31,0.4 -0.66,0.86 -1,1.24l-8.44 8.42c-1.64,1.32 -5.51,5.08 -7.22,4.9zm-15.99 -40.17c-0.12,3.11 3.38,7.23 5.62,6.51 1.64,-0.53 0.58,-1.93 2.25,-1.86l-1.02 5.25c-1.03,4.56 -2.74,11.74 -2.89,16.26 -0.06,1.77 -0.37,2.28 -0.4,3.8 -0.11,4.69 1.41,4.52 -2.87,2.85 -0.35,-0.14 -1.18,-0.5 -1.52,-0.61 -5.14,-1.6 -2.46,-0.73 -3.02,-7.84 -0.29,-3.73 0.72,-12.25 1.34,-16.5l1.75 -11.45c0.73,-4.02 2.27,-6.74 -1.35,-9.89 -7.01,-6.11 -9.05,-2.25 -11.99,-1.31 -4.51,1.43 -9.09,9.07 -11.72,13.48 -4.46,7.44 -6.14,11.97 -9.39,19.53l-1.64 4.41c-0.27,0.83 -0.55,1.43 -0.79,2.1l-2.89 9.05c-0.26,0.88 -0.39,1.44 -0.55,2.45 -0.37,2.32 0.6,3.19 0.88,4.92 -0.92,1.38 -2.96,1.22 -4.13,5.06 -0.4,1.32 -0.51,2.95 0.07,4.22 0.25,0.54 0.66,0.95 1.12,1.27 2.89,2.04 5.9,0.05 8.8,-1.73 0.06,-0.04 0.22,-0.15 0.29,-0.19l1.97 -1.07c0.35,-0.17 0.59,-0.28 0.93,-0.47l6.68 -3.32c0.59,-0.26 1.1,-0.5 1.77,-0.77l1.78 -0.75c8.07,-3.29 7.47,-3.1 8.94,-0.49 2.07,3.67 5,4.65 8.47,5.11 3,0.4 2.45,-0.93 2.45,-0.93 -0,0.04 0.04,-0.13 0.04,-0.15 -0.01,-1.98 -2.62,-1.47 -2.34,-8.81l7.39 -1.21c0.05,1.62 1.13,4.6 2.72,5.77 1.18,0.87 1.26,0.06 1.51,1.42 -0.99,-0.04 -1.28,0.1 -2.61,-0.09 -1.45,-0.2 -1.52,-0.02 -2.38,0.52 0.17,1.07 0.49,1.58 1.19,2.25 3.41,3.23 7.47,4.14 11.62,3.34l2.03 -0.42c3.54,-0.72 9.35,-4.42 12.31,-6.62l4.45 -3.75c0.03,-0.04 0.08,-0.09 0.12,-0.13 0.04,-0.04 0.08,-0.09 0.12,-0.12 0.03,-0.04 0.09,-0.09 0.12,-0.12l1.14 -1.04c0.57,-0.57 0.75,-0.92 1.3,-1.41 0.72,-0.63 0.74,-0.85 1.41,-1.54 3.41,-3.51 4.92,-5.58 7.76,-9.34 0.47,-0.63 0.63,-0.92 1.12,-1.65l3.46 -5.39c0.79,-1.32 1.37,-2.32 2.08,-3.81 0.98,-2.06 3.02,-6.65 3.11,-9.04 0.25,-6.44 -4.06,-13.41 -8.67,-17.31 -2.01,-1.7 -6.05,-3.96 -8.51,-4.55 -1.6,-0.39 -3.65,-0.65 -5.3,-1.14 -1.2,-0.36 -3.94,-0.27 -5.3,-0.32 -7.55,-0.29 -19.71,4.7 -25.1,10.01l-2.18 2.51c-0.85,1.37 -1.47,2.78 -1.56,5.08zm-269.91 23.33c1.2,0.16 3.31,-1.12 4.23,-2.04 2.82,-2.82 7.73,-5.66 11.04,-7.19 1.73,-0.8 7.48,-3.59 7.32,0.44 -0.19,5.07 -5.02,10.46 -8.35,13.45l-1.58 1.31c-3.87,2.76 -11.18,7.18 -15.75,6.57 -1.66,-0.22 -3.43,-0.32 -3.72,-1.88 0.54,-0.73 0.44,-0.36 1.37,-0.73l1.27 -0.86c0.48,-0.61 1.09,-2.16 1.32,-3.11 0.35,-1.48 0.26,-2.82 0.53,-4.46 0.18,-1.09 0,-1.37 0.64,-1.73 0.57,-0.33 0.52,0.1 1.67,0.25zm6.78 -34.89c0.03,-0.86 5.84,-0.59 6.41,-0.51 1.59,0.22 5.17,0.97 5.08,3.44 -0.25,6.45 -9.61,12.29 -13.77,15.6l-0.27 0.21c-2.01,1.4 -2.01,1.83 -3.21,1.7 0.07,-1.9 4.34,-13.35 5.06,-15.32 1.83,-5 0.59,-2.33 0.7,-5.11zm27.83 27.72c0.13,-3.43 -1.9,-5.78 -4.29,-7.38 -3.85,-2.58 -7.36,-2.03 -9.08,-2.69 -1.03,-0.4 -0.59,-1.1 -0.19,-1.67 2.5,-3.56 6.26,-8.07 6.45,-13.17 0.14,-3.61 -2.67,-6.84 -4.95,-8.05 -3.95,-2.09 -9.46,-3.85 -14.14,-3.47 -1.38,0.11 -2.7,0.07 -4.06,0.25 -2.7,0.36 -5.11,0.84 -7.6,1.5l-6.78 2.61c-6.84,3.67 -3.5,10.16 -2.15,10.34 1.43,0.19 3.3,-1.45 2.24,1.57 -1.1,3.13 -2.02,7.48 -2.91,10.49 -0.24,0.79 -0.28,1.31 -0.49,2.22l-1.37 6.78c-0.28,1.53 -0.47,3.01 -0.59,4.97 -0.12,2.03 -0.56,2.76 -0.26,4.99l0.6 4.69c-1.24,-0.29 -2.71,-1.39 -4.02,-1.85 -2.54,-0.9 -2.68,-0.3 -4.08,-1.73 -0.04,-8.1 0.03,-7.63 0.54,-15.63 0.09,-1.46 0.3,-2.54 0.4,-4.35 0.09,-1.52 0.47,-2.55 0.63,-4.05 0.32,-2.88 0.8,-5.51 1.22,-8.14l1.51 -7.46c0.09,-2.3 -1.97,-4.26 -3.36,-5.4 -3.19,-2.63 -6.13,-3.72 -9.47,-1.36 -1.96,1.39 -3.58,0.25 -8.42,6.73l-2.25 3.28c-0.72,1.21 -1.32,2.06 -2.05,3.27 -3.5,5.85 -3.94,7.31 -6.65,12.58 -1.67,3.25 -5.87,14.43 -6.9,17.73 -0.22,0.69 -0.53,1.61 -0.71,2.2 -2.96,9.52 -1.29,7.17 -0.71,10.86 -0.7,1.06 -1.81,1.19 -2.81,2.52 -3.45,4.63 -0.98,8.53 1.19,8.83 3.82,0.52 6.34,-2.15 10.02,-3.97 4.5,-2.22 8.99,-4.53 13.71,-6.17 7.89,-2.75 2.76,-1.14 9.29,4.01 1.77,1.4 5.82,1.97 6.96,1.64 2.22,-0.63 -0.21,-2.73 -0.75,-4.07 -0.37,-0.93 -0.91,-2.69 -0.87,-3.89 0.08,-2.16 -0.19,-2.06 4.26,-2.57 4.31,-0.5 3.05,-1.49 5.33,-0.54 -0.12,3.15 -0.54,1.63 -0.6,3.23l-0.13 3.29c-0.08,2.01 3.39,5.7 4.22,6.13 2.03,1.04 4.34,1.09 6.53,0.7 0.56,-0.1 0.95,-0.25 1.65,-0.36 3.99,-0.62 10.33,-3.62 13.76,-5.23l5.48 -3.22c0.95,-0.68 1.72,-1.17 2.68,-1.84l2.43 -1.89c3.21,-2.75 6.1,-6.13 8.45,-9.86 1.57,-2.49 2.92,-3.98 3.05,-7.39z"/>
   <path class="fil3" d="M316.17 27.54c5.47,7.9 -24.05,11.63 -28.56,12.13 -30.46,3.41 -69.9,3.5 -99.82,-3.63 -30.27,-7.62 -16.33,-15.64 5.06,-19.03 22.01,-3.49 52.05,-3.24 74.44,-1.55 10.61,0.84 42.25,3.45 48.88,12.08zm-152 9.96c6.78,2.07 3.11,2.31 5.24,3.29 1.09,0.5 5.73,-0.01 7.81,3.66 0.7,1.23 0.63,1.63 1.5,2.73 1.98,2.52 5.71,2.61 7,2.07 2.93,-1.22 -0.75,-4.42 4.57,-5.64 1.38,-0.32 2.94,-0.26 4.47,0.19 11.71,3.44 7.34,7.02 7.56,8.1 0.6,1.09 1.53,1.48 3,1.78 6.77,1.37 2.33,-2.92 2.13,-3.97 -0.84,-4.46 9.56,-1.41 11.07,-0.85 6.27,2.32 8.6,4.69 8.28,12.95 1.97,1.85 4.97,2.23 7.07,0.95 0.28,-3.78 -3.48,-4.44 -2.66,-9.07 0.64,-3.62 4.24,-3.12 8.08,-2.6 5.11,0.69 12.54,3.86 13.76,10.72l0.88 7.31c0.07,3.1 -2.52,3.29 -2.17,5.56 0.49,1.36 6.97,2.36 7.03,-0.57 0.03,-1.64 -1.42,-1.58 -2.13,-3.21 -0.5,-1.14 -0.81,-3.04 -1.14,-4.43 -1.73,-7.23 -1.74,-10.92 3.73,-14.77 3.85,-2.71 10.56,-3.83 14.71,-3.38 1.53,0.16 2.71,0.71 3.95,1.38 1.95,1.05 1.91,0.71 2.43,3.17 1.48,6.96 -0.58,4.82 -0.74,8.9 3.58,2.75 8.29,0.76 8.91,-1.19 0.96,-3.02 -3.96,-3.1 -0.95,-10.77 1.91,-4.86 9.16,-4.92 12.86,-5.32 1.87,-0.2 3.4,-1.08 4.55,1.01 -0.15,1.53 -1.42,1.71 -0.79,3.61 1.29,1.78 4.86,0.74 5.89,-0.15 2.28,-1.97 -0.99,-3.76 1.67,-5.8 1.19,-0.91 7.13,-2.01 8.9,-1.77 1.27,0.17 1.91,0.76 2.92,0.73 0.24,-0.01 0.2,-0.3 0.22,-0.21 0.56,-1.33 0.18,-1.75 1.48,-2.29 2.54,-1.05 19.15,-5.29 11.22,-12.75 -27.77,-18.55 -116.02,-16.71 -149.48,-12.91 -9.53,1.08 -31.49,3.57 -37.75,11.96 -3.97,5.33 12.12,10.68 14.9,11.55z"/>
  </g>
 </g>
</svg>
