<?xml version="1.0" encoding="UTF-8"?>
<!DOCTYPE svg PUBLIC "-//W3C//DTD SVG 1.1//EN" "http://www.w3.org/Graphics/SVG/1.1/DTD/svg11.dtd">
<!-- Creator: CorelDRAW -->
<svg xmlns="http://www.w3.org/2000/svg" xml:space="preserve" width="33.8666mm" height="33.8666mm" version="1.1" style="shape-rendering:geometricPrecision; text-rendering:geometricPrecision; image-rendering:optimizeQuality; fill-rule:evenodd; clip-rule:evenodd"
viewBox="0 0 335.55 335.55"
 xmlns:xlink="http://www.w3.org/1999/xlink"
 xmlns:xodm="http://www.corel.com/coreldraw/odm/2003">
 <defs>
  <style type="text/css">
   <![CDATA[
    .fil0 {fill:#E60607}
    .fil1 {fill:white}
   ]]>
  </style>
 </defs>
 <g id="Camada_x0020_1">
  <metadata id="CorelCorpID_0Corel-Layer"/>
  <g id="_1314857497264">
   <rect class="fil0" x="-0" y="-0" width="335.55" height="335.55" rx="167.78" ry="118.63"/>
   <path class="fil1" d="M175.08 171.21c0,-1.67 1.26,-3.42 3.11,-3.42l29.53 0 0 14.62c0,5.41 -0.24,5.1 1.8,5.21 2.77,0.14 7.53,0.79 7.53,-1.17 -0,-5.22 -0.51,-14.36 0,-18.66l11.19 0 0 18.97c0,0.72 0.22,0.93 0.93,0.93 5.39,0 7.83,0.74 8.1,-1.22l-0.02 -14.02c-0,-5.79 -2.08,-4.67 11.19,-4.67l0 18.97c0,0.72 0.22,0.93 0.93,0.93 2.62,0 5.57,0.27 8.08,-0.31 0,-3.58 0.6,-21.95 -0.74,-24.46 -0.86,-1.62 -2.83,-3.22 -5.17,-3.22l-74.3 0c-2.96,0 -6.12,1.93 -7.7,3.49 -3.36,3.31 -4.64,8.35 -2.49,12.29 4.29,7.86 10.32,7.22 19.23,7.22 7.76,0.01 6.62,7.94 1.55,8.4l-15.55 0.01c-8.08,0 -6.53,-1.76 -6.53,8.09l23.63 0c0.96,0 3.8,-1.1 4.46,-1.45 11.39,-6.15 7.87,-19.66 -2.24,-22.54 -4.9,-1.39 -11.62,0.16 -14.44,-1.11 -1.01,-0.45 -2.08,-1.54 -2.08,-2.9zm91.71 -31.42c0,5.67 5.91,4.92 7.56,3.52 1.52,-1.29 3.19,-6.94 -4.14,-6.94 -1.44,0 -3.42,1.87 -3.42,3.42zm13.68 0.31c0,5.54 9.02,5.67 9.02,0 0,-2.14 -1.9,-3.72 -4.35,-3.76 -2.65,-0.05 -4.66,1.53 -4.66,3.76zm-125.91 16.17c4.54,0 5.41,-7.84 -0.57,-7.91 -1.52,-0.02 -2.33,0.15 -3.25,0.97 -0.74,0.66 -1.46,1.34 -1.46,2.59 0,3.83 2.35,4.35 5.29,4.35zm118.45 17.11c0,-2.91 2.93,-5.6 5.91,-5.6l7.15 0 0 10.89c0,0.72 -0.22,0.93 -0.93,0.93 -4.32,0 -12.12,0.91 -12.12,-6.22zm-7.15 -18.97c0,1.35 0.55,0.98 2.15,0.96l9.04 -0.02c2.44,0 9.02,-0.87 9.02,3.42 0,2.65 -7.83,-1.23 -14.95,3.09 -5.24,3.18 -7.13,6.66 -7.13,12.78 0,6.73 7.14,13.06 15.23,13.06l15.85 0 0 -29.86c0,-5.41 -6.46,-10.58 -12.12,-10.58l-16.16 0c-1.58,0 -0.93,2.86 -0.93,7.15zm-116.58 13.38c11.9,0 9.95,2.2 9.95,-8.09 -2.01,-0.24 -8.53,-0.13 -10.9,-0 -2.89,0.15 -5.56,2.35 -6.88,3.99 -1.48,1.85 -3.63,9 -4.48,12.01l-1.03 3.01c-0.19,0.27 -0.01,0.57 -1.34,0.84l-13.29 0.06 -0.33 -40.12c0,-3.5 0.17,-2.83 -3.73,-2.8 -1.38,0.01 -5.29,-0.61 -5.29,0.93l0 44.17c0,3.65 3.15,5.91 6.84,5.91l23.01 0c0.94,0 0.65,-0.22 1,-0.86 0.01,-0.02 0.4,-1.04 0.43,-1.12 1.46,-4.15 4.54,-15.63 6.03,-17.92zm-68.08 6.22c0,-3.82 3.39,-6.22 5.6,-6.22 4.48,0 7.77,-0.69 7.77,0.93l0 9.95c0,0.82 -0.66,0.93 -1.55,0.93 -3.38,0 -7.43,0.52 -9.79,-1.73 -0.87,-0.83 -2.03,-2.46 -2.03,-3.87zm-40.72 -18.66c7.71,0 6.54,-0.75 6.53,4.04 -0.01,4.23 -0.48,22.4 0.42,24.47 0.81,1.86 3.25,3.84 5.8,3.84l12.12 0c0,-1.56 -0.01,-3.11 0,-4.67 0,-0.53 0.09,-1.82 0.06,-2.23 -0.09,-1.13 0.39,-1.19 -0.99,-1.19l-8.08 0 0 -24.26 33.89 0c1.72,0 3.05,0.85 3.71,1.91 3.38,5.44 -7.31,-0.6 -15.52,5.24 -3.04,2.17 -6.22,6 -6.22,10.27 0,4.79 1.5,8.3 4.7,10.86 1.86,1.49 1.81,1.7 4.31,2.83 4.4,1.98 15.69,1.24 21.45,1.24 1.39,0 1.08,-2.11 1.07,-2.91l0.02 -19.79c0,-5.62 0.16,-9.16 -2.46,-12.63 -1.77,-2.34 -5.92,-5.1 -10.14,-5.1l-34.82 0c0,-12.51 1.1,-10.58 -4.66,-10.58 -5.75,0 -4.66,-2 -4.66,10.58l-6.53 0 0 8.09z"/>
  </g>
 </g>
</svg>
