<?xml version="1.0" encoding="UTF-8"?>
<!DOCTYPE svg PUBLIC "-//W3C//DTD SVG 1.1//EN" "http://www.w3.org/Graphics/SVG/1.1/DTD/svg11.dtd">
<!-- Creator: CorelDRAW -->
<svg xmlns="http://www.w3.org/2000/svg" xml:space="preserve" width="34.6168mm" height="34.6168mm" version="1.1" style="shape-rendering:geometricPrecision; text-rendering:geometricPrecision; image-rendering:optimizeQuality; fill-rule:evenodd; clip-rule:evenodd"
viewBox="0 0 694.16 694.16"
 xmlns:xlink="http://www.w3.org/1999/xlink"
 xmlns:xodm="http://www.corel.com/coreldraw/odm/2003">
 <defs>
  <style type="text/css">
   <![CDATA[
    .str0 {stroke:#FEFEFE;stroke-width:15.04;stroke-miterlimit:22.9256}
    .str1 {stroke:#F4F2E5;stroke-width:4.01;stroke-miterlimit:22.9256}
    .str2 {stroke:#F7DB96;stroke-width:4.01;stroke-miterlimit:22.9256}
    .str3 {stroke:#771912;stroke-width:14.76;stroke-linecap:round;stroke-linejoin:round;stroke-miterlimit:22.9256}
    .fil14 {fill:none}
    .fil16 {fill:none;fill-rule:nonzero}
    .fil6 {fill:#668946}
    .fil10 {fill:#74130B}
    .fil1 {fill:#771912}
    .fil0 {fill:#920406}
    .fil5 {fill:#CBC3AA}
    .fil11 {fill:#CF8B72}
    .fil7 {fill:#D52A2B}
    .fil8 {fill:#E9534B}
    .fil2 {fill:#F4F2E5}
    .fil3 {fill:#F6F6F6}
    .fil4 {fill:#F7DB96}
    .fil9 {fill:#F8F6C9}
    .fil12 {fill:#FDB957}
    .fil13 {fill:#FDCC29}
    .fil15 {fill:#FDCC29;fill-rule:nonzero}
   ]]>
  </style>
 </defs>
 <g id="Camada_x0020_1">
  <metadata id="CorelCorpID_0Corel-Layer"/>
  <g id="_2339713212992">
   <path class="fil0 str0" d="M347.08 7.52c187.54,0 339.56,152.03 339.56,339.56 0,187.53 -152.03,339.56 -339.56,339.56 -187.54,0 -339.56,-152.03 -339.56,-339.56 0,-187.54 152.03,-339.56 339.56,-339.56z"/>
   <path class="fil1" d="M347.08 53.86c161.94,0 293.22,131.28 293.22,293.22 0,161.94 -131.28,293.22 -293.22,293.22 -161.94,0 -293.22,-131.28 -293.22,-293.22 0,-161.94 131.28,-293.22 293.22,-293.22z"/>
   <path class="fil2 str1" d="M530.49 284.66l-1.01 4.89c-3.19,0.7 -4.6,-0.32 -5.06,-4.58l6.07 -0.32zm112.49 -22.6c-0.96,5.33 -11,17.37 -16.22,20.12 2.81,-14.81 0.68,-10.84 -1.71,-22.01 6.89,-0.69 12.73,-1.87 17.94,1.89zm-424.66 -17.62l-0.69 7.01 -5.71 -0.85c-0.83,-3.84 -1.22,-2.21 0.46,-5.45l5.94 -0.71zm145.64 -59.98c-0.21,2.34 -0.68,0.65 -0.29,3.61 0.38,2.91 1.46,3.22 3.39,5.02 5.12,4.75 3.7,4.98 3.91,13.81 0.16,6.58 -3.72,21.98 -8.57,27.09 -3.68,-4.88 -10.7,-15.67 -11.78,-23.32 -2.17,-15.32 7.12,-16.13 9.43,-25.22 -23.25,0.24 6.36,25.13 -57.88,21.52 -0.36,-9.17 2.3,-8.01 6.68,-12.27 1.57,-1.53 2.62,-3.39 4.34,-4.96 2.51,-2.3 2.88,-1.62 5.16,-4.12 -5.82,-4.43 -21.38,-9.17 -23.32,-15.22 9.53,-6.36 41.08,-13.65 53.88,2.3 8.8,10.97 2.2,4.25 15.03,7.67l0.03 4.09zm-33.59 159.5c-7.48,-0.03 -30.17,-4.29 -37,-6.29 -20.62,-6.05 -54.33,-14.77 -74.8,-24.19l-19.22 -8.89c-4.55,-1.81 -4,-0.89 -7.89,-3.59 -6.13,-4.26 -18.82,-10.7 -22,-14.55 -6.54,-7.91 -3.64,1.11 -19.97,-16.43 -16.8,-18.05 -11.98,-16.58 -16.1,-21.41 -6.47,-7.61 -11.61,-25.49 -11.99,-36.12 4.65,0.66 4.57,1.61 9.09,1.33l0.62 -3.7c-13.54,0.35 -9.05,-2.02 -8.28,-12.84l7.01 -0.21c-1.15,-4.62 -2.48,-10.38 0.61,-14.35 1,-3.69 0.44,-4.34 10.51,-3.33 0.07,3.42 -3.3,22.63 -0.68,34.31 6.55,0.01 2.65,-1.58 6.75,-4.22 5.51,3.52 4.2,5.61 4.62,12.54 7.38,-0.47 4.74,-2.43 10.32,-4.85l-0.22 13.13c0.73,3.08 0.91,7.24 1.92,9.69 2.04,-1.05 1.51,-2.48 3.36,-4.23l2.92 -0.73c2.67,2.23 1.29,1.14 3.12,3.9 3.82,-1.84 7.01,-9.02 13.54,-12.04 5.36,-0.64 17.41,8.96 22.87,15.39 -1.91,5.5 -10.46,18.37 -2.09,22.87 6.98,3.75 22.35,-6.82 24.68,-3.03 3.18,2.58 0.33,4.37 -1.18,7.65 -1.39,3.02 -0.9,3.32 0.51,6.38 7.15,2.87 6.57,-0.44 11.85,-1.74 3.99,-3.24 2.58,-2.94 7.93,-4.13 2.62,-2.21 2.81,-2.06 6.83,-1.93l-2.44 7.41c5.45,2.06 4.15,0.98 10.21,1.44 5.23,0.4 4.37,1.54 8.32,2.74 7.93,1.36 7.78,-0.68 13.85,-3.55 0.33,-0.25 -0.38,-2.11 4.72,0.23 0.41,0.19 2.91,1.72 3.31,1.98 4.42,-0.25 1.98,0.55 3.99,-0.91 -0.58,-4.19 -2.28,-6.51 -1.82,-11.36 3.26,0.58 8.81,0.64 10.89,2.53 6.6,-0.4 20.39,3.68 28.51,4.76 8.93,1.18 20.16,3.15 29.02,3.76l7.13 0.28c5.58,0.34 7.74,1.75 15.47,1.77l-0.25 3.48c1.37,-3.57 -0.39,-1.82 3.24,-2.35 3.78,-0.36 16.44,-0.65 19.92,1.56 3.26,-0.79 8.26,-0.28 12.11,-0.23 7.66,0.11 4.69,0.62 7.2,5.02 2.45,-0.83 4.27,-5.84 14.78,-0.06 6.1,3.35 4.97,6.18 8.18,12.71l5.11 -1.5 1.06 -9c13.09,-0.68 8.39,-1.36 12.69,-5.88 2.27,-2.39 3.45,-2.14 6.06,-2.39 36.47,-3.46 16.54,1.59 30.98,4.45 4.64,0.92 6.97,0.72 10.87,2.52 -0.37,5.37 -1.64,5.38 -4.9,8.11 -2.3,1.93 -3.01,2.99 -6.44,4.42l-0.09 9.47c6.82,1.96 4.99,0.94 11.59,-0.08 -0.3,6.77 -2.1,4.88 -1.99,11.79 8.64,5.64 18.57,8.01 22.12,-4.41 1.1,-3.87 2.28,-6.61 1.84,-10.22 -2.56,-1.84 -3.21,-1.24 -4.52,-3.98 7.18,-2.82 4.8,-2.12 3.77,-6.39 3.19,-1.77 4.07,-0.04 5.68,-3.13 -2.38,-3.59 -9.88,-3.01 -13.69,-5.21 0.97,-3.56 4.48,-6.11 7.36,-6.84 4.73,-10.95 3.06,-8.99 16.63,-10.94l26.05 -5.15c2.54,3.47 4.76,10.12 5.43,14.85 2.83,2.69 1.63,0.95 2,5.96 0.12,1.68 0.11,4.01 0.2,5.8 2.09,-1.35 3.8,-1.76 6.01,-2.67 4.94,-2.04 0.13,0.59 4.57,-3.08 0.44,-5.45 -0.03,-8.81 0.71,-14.19 1,-7.33 -1.97,-3.93 -3.23,-9.65 8.13,-0.33 15.59,0.26 18.09,6.73 3.44,8.87 -1.67,13.88 -4.26,18.41 -5.53,9.66 -8.35,15.83 -16.27,18.27 -6.72,2.08 -3.5,1.68 -7.68,3.73 -3.31,1.62 -5.18,1.5 -8.76,3.75 -5.9,3.71 -17.17,11.61 -23.33,13.32 -3.7,1.03 -5.97,1.33 -9.39,2.9 -7.69,3.55 -21.11,3.48 -29.72,6.19 0.64,-1.45 -1.74,-1.27 1.04,1.35 10.83,5.62 10.09,4.82 15.95,15.41 4.73,-5.78 2.45,-4.67 9.99,-12.19 7.57,-7.55 19.06,-12.97 30.38,-13.16 4.55,-0.08 5.4,0.85 9.67,-0.05 8.02,-1.69 19.76,-3.73 27.99,-4.3 11.39,-0.78 5.95,5.3 21.59,-9.51 7.51,-7.11 13.79,-17.99 16.64,-21.06 7.25,-6.28 15.42,-29.27 11.46,-41.35 -5.9,-17.94 -25.01,-17.46 -28.94,-26.28 -9.28,1.58 -26.42,-5.91 -36.03,-8.7 -5.97,-1.73 -10.86,-3.29 -16.92,-4.96 -10.37,-2.86 -5.99,-4.22 -12.45,-9.41 -21.07,-16.93 -27.63,-21.94 -55.68,-31.79 -42.17,-14.81 -98.72,-26.46 -147.79,-28.03 -21.33,-0.69 -77.68,-20.36 -104.23,-28.28 -9.44,-2.82 -24.98,-6.45 -33.61,-10.18 -5.79,-2.5 -5.78,-6.26 -16.36,-6.73 -8.3,-0.37 -10.55,-1.57 -17.82,-3.82 -7.7,-2.39 -27.04,-9.84 -35.26,-8.68 -13.69,1.93 -40.32,30.76 -38.72,49.13 -11.17,11.07 -5.45,8.41 -10.61,20.49 -3.27,7.66 -5.92,14.96 -8.16,23.15 -3.85,14.07 -2.81,16.96 -4.36,26.93 -0.7,4.5 -2.86,6.77 -0.98,13.11 1.55,5.23 1.96,4.65 2.95,11.67 4.71,33.49 28.79,58.95 49.6,74.23 22.85,16.77 52.1,30.33 83.14,40.79 28.5,9.6 67.84,21.6 97.93,25.28 3.58,-4.05 -0.18,-2.11 7.5,-8.57 -2.86,-4.41 -5.97,-8.76 -6.45,-16.02z"/>
   <path class="fil3" d="M409.48 414.15c-0.05,-42.95 22.25,-55.85 25.68,-40.01 1.88,8.69 -11.9,9.65 2.37,22.3 -0.57,43.33 -28.01,57.3 -28.05,18.75l-0 -1.04zm179.33 -62.99c0.75,10.97 -1.5,34.19 -2.77,45.46 -0.86,7.61 -3.49,13.34 -7.92,16.34 -23.73,16.09 -20.04,-47.48 -4.43,-61.74 6.34,-5.79 9.27,-3.86 15.12,-0.05zm35.58 57c-9.81,0.96 -12.63,0.14 -12.18,-10.64 0.88,-20.75 3.78,-43.55 4.64,-65.17 -5.64,0.3 -11.8,1.45 -17.11,2.08 -10.73,1.27 -8.44,-0.29 -10.17,8.8 -9.69,-16.91 -51.99,-1.99 -55.19,49.01 -0.48,7.69 1.56,12.2 -2.28,17.4 -11.21,15.17 -31.08,22.41 -37.75,13.44 -7.88,-10.59 -3.3,-49.4 6.45,-63.47 1.93,-2.78 8.2,-7.57 11.6,-1.49 2.59,4.64 -0.33,11.25 1.29,15.35 20.62,7.5 22.24,-40.11 -18.38,-25.53 -9.37,3.36 -16.82,10.6 -21.35,18.15 -2.23,3.72 -5.77,18.43 -21.73,16.73 -2.74,-7.49 -1.98,-11.69 -6.78,-18.17 -11.66,-15.73 -38.1,-6.93 -49.93,9.48 -19.5,27.05 -9.56,52.14 -14.39,60.58 -2.97,5.2 -8.73,9.5 -17.19,7.26 -5.65,-8.6 2.58,-60.59 2.14,-75.88l-25.84 3.73c-1.79,8.42 -2.15,24.63 -2.67,33.86 -0.8,14.13 -8.37,53.9 10.9,58.14 16.91,8.49 29.33,-8.77 38.44,-19.7 31.89,45.9 65.9,-8.73 65.93,-47.75 0.73,-2.65 8.68,-4.68 12.53,-6.08 -16.23,82.75 59.54,56.57 69.93,27.57l2.67 4.34c4.86,10.23 12.84,16.09 25.42,14.48 14.05,-1.79 18.61,-10.62 24.93,-20.01 4.75,8.07 7.85,15.47 20.97,13.69 10.08,-1.37 13.29,-9.68 15.11,-20.19z"/>
   <path class="fil3" d="M275.23 454.74c-1.32,-8.58 1.79,-35.3 2.5,-45.68 1.58,-23.05 16.89,-23.46 21.27,-14.56 8.74,17.76 0.22,74.16 -23.78,60.24zm-81.58 -53.61c9.7,-3.67 11.22,3.73 10.59,11.99 -0.66,8.68 -1.86,37.31 -4.3,43.52 -2.02,5.14 -5.59,10.4 -11.64,11.17 -20.19,2.55 -12.3,-60 5.35,-66.68zm60.59 -26.54c-1.24,15.15 -2.41,30.29 -3.47,45.61 -0.91,13.17 -0.74,33.13 -8.87,39.85 -6.54,5.4 -13.79,2.67 -14.11,-7.29l4.61 -67.98 -26.38 4.04 -0.84 6.65c-10.7,-13.64 -31.61,-1.48 -38.94,6.65 -19.66,21.82 -24.72,74.36 0.5,83.94 8.34,3.17 18.08,0.75 24,-3.24 9.41,-6.34 8.42,-9.71 13.43,-15.54 6.58,20.44 28.1,17 42.51,0.43 1.63,10.88 -2.81,42.55 -3.34,55.99 3.8,-0.89 21.08,-0.88 21.77,-4.69 11.72,-64.87 -0.51,-39.41 31.16,-48.4 39.25,-11.14 35.57,-76.59 22.19,-90.4 -14.99,-15.48 -34.97,1.86 -38.67,3.51l0.68 -12.55 -26.22 3.42z"/>
   <path class="fil3" d="M132.75 371.85c25.54,-0.65 50.08,5.47 49.02,-25.98 -8.92,2.43 -12.85,5.22 -23.74,6.48 -22.25,2.58 -44.65,-3.93 -74,10.27 -24.04,11.62 -33.54,37.53 -25.33,55.5 3.79,8.3 10,8.44 19.52,8.21 -1.27,-6.24 -3.8,-9.01 -4.32,-18.39 -1.14,-20.86 8.61,-34.94 32.46,-36.27l-9.22 125.64c4.51,-0.19 9.39,-1.06 13.75,-1.7 3.75,-0.55 9.26,-0.7 12.61,-2.53l9.28 -121.22z"/>
   <path class="fil4 str2" d="M146.48 244.85c-5.02,-5.9 -3.59,-6.01 -0.48,-11.61 6.21,-0.33 10.17,-2.04 10,5.93 -0.15,7.11 -3.29,5.93 -9.52,5.69zm336.98 52.64c2.39,-1.36 3.43,-11.89 -7.98,-10.99l-3.49 8.67c-4.48,-0.29 -8.38,-2.58 -7.11,-6.35l-4.35 0.23 -1.06 9c5.16,-0.51 4.86,2.72 5.78,8.27 0.31,1.86 0.72,4.97 0.47,6.81 -0.55,4.02 -0.7,3.32 -3.11,3.61 -1.6,-3.09 -1.27,-3.74 -3.33,-6.33 -4.34,-0.43 -4.54,-0.16 -8.65,1.29l-0.8 5.6 3.84 -0.25 1.7 5.56 4.75 -0.63 0.29 3.97c-1.69,5.29 -5.82,9.84 -10.61,10.57 -3.54,0.54 -5.05,-0.92 -9,-0.64 -4.11,0.3 -4.52,1.11 -6.08,3.87l-0.66 -0.51c-2.68,3.09 -6.51,-0.14 -10.74,-0.84 1.49,6.13 1.16,2.57 8.16,3.78l2.08 4.86c7.17,1.25 8.24,2.64 11.79,3.02 1.76,3.76 0.75,2.32 4.08,3.8 4.52,-7.44 -5.49,0.17 12.21,-13.5l2.79 4.15 16 0.18c13.07,-7.48 21.76,-10.82 39.48,-7.83 -2.78,-2.62 -0.4,-2.8 -1.04,-1.35 8.61,-2.72 22.02,-2.64 29.72,-6.19 3.42,-1.58 5.69,-1.87 9.39,-2.9 6.15,-1.72 17.42,-9.61 23.33,-13.32 3.58,-2.25 5.44,-2.13 8.76,-3.75 4.18,-2.05 0.96,-1.65 7.68,-3.73 7.92,-2.44 10.74,-8.61 16.27,-18.27 2.59,-4.53 7.7,-9.54 4.26,-18.41 -2.5,-6.47 -9.97,-7.06 -18.09,-6.73 1.27,5.72 4.24,2.32 3.23,9.65 -0.74,5.38 -0.27,8.74 -0.71,14.19 -4.45,3.68 0.36,1.04 -4.57,3.08 -2.21,0.91 -3.92,1.32 -6.01,2.67 -0.09,-1.79 -0.07,-4.12 -0.2,-5.8 -0.36,-5.01 0.83,-3.27 -2,-5.96 0.07,9.17 0.92,11.34 -2.57,19.26 -8.69,19.69 -29.77,12.54 -44.13,7.53 0.45,3.61 -0.73,6.35 -1.84,10.22 -3.55,12.42 -13.48,10.05 -22.12,4.41 -0.11,-6.91 1.69,-5.02 1.99,-11.79 -6.6,1.02 -4.77,2.04 -11.59,0.08l0.09 -9.47c-10.56,2.77 -13.67,5.26 -26.52,2.07l0.19 -4.84zm-3.43 15.06c-1.5,2.65 0.02,1.7 -3.3,3.16l-2.94 -0.35 1.16 -5.93 4.98 0.24 0.1 2.88zm-130.37 6.56l9.77 -0.3 8.25 2.34 1.11 1.26c5.19,5.64 9.21,8.02 10.46,18.57 6.75,0.59 10.4,-2.05 16.17,-2.62l6.04 -0.23c6.42,-6.66 4.89,-5.39 2.81,-12.73 -2,-3.53 -4.65,-5.04 -6.87,-8.51 -2.17,-3.39 -3.04,-6.74 -5.43,-9.46 -1,-4.44 -2.05,-9.32 -2.11,-14.56l2.32 -12.31c-3.63,0.52 -1.87,-1.23 -3.24,2.35l0.25 -3.48c-7.72,-0.02 -9.89,-1.43 -15.47,-1.77 1.58,13.12 -3.04,13.04 -4.18,19.04l-6.65 4.19c-1.39,1.18 -0.76,0.6 -1.8,1.86 -12.37,1.78 -7.64,2.84 -11.97,4.34 -3.64,-1.86 -3.56,-2.13 -9.28,-2.65 -3.77,-0.34 -5.94,-1.24 -9.63,-1.4 -1.36,-1.22 0.18,-0.36 -2.17,-1.26 -1.33,-0.51 -1.61,-0.4 -2.53,-0.71 -3.76,-1.29 -1.8,0.41 -3.82,-2.56l-7.17 -1.51c-7.06,13.01 -30.27,24.44 -51.37,20.84 -24.13,-4.12 -33.02,-23.01 -19.88,-43.43 -5.28,1.3 -4.7,4.61 -11.85,1.74 -1.41,-3.07 -1.9,-3.36 -0.51,-6.38 1.51,-3.28 4.37,-5.07 1.18,-7.65 -0.62,3.4 1.34,0.7 -2.23,3.61 -1.74,1.42 -1.94,0.67 -3.28,3.07 -2.32,4.19 0.36,5.79 -5.77,5.68 6.6,5.3 -5.75,-2.65 3.42,1.9 0.11,0.05 0.41,0.15 0.58,0.28 -0.24,2.2 -0.76,3.85 -3.35,5.75 -2.95,2.15 -4.47,1.79 -8.6,1.45 -1.26,-3.32 -1.71,-5.07 -0.59,-8.72 -12.5,3.82 -33.45,3.61 -40.59,-8.58 -6.65,-11.34 -3.57,-4.04 -6.87,-9.69 8.3,-10.96 1.67,-1.61 6.67,-13.54 -1.53,-1.85 -2.63,-2.87 -5.03,-4.19l0.59 -3.38c-1.85,1.75 -1.33,3.18 -3.36,4.23 -1.01,-2.45 -1.19,-6.61 -1.92,-9.69 -11.19,3.71 -25.99,-5.55 -26.7,-18.73 -0.37,-7.02 -3.01,-0.21 -4.2,-10.96 1.64,-1.64 3.18,-3.03 4.28,-4.17 -1.87,-2.19 -1.8,-1.37 -2.62,-2.09 -3.53,-3.11 -2.85,-1.38 -2.06,-11.64 -3.09,3.97 -1.76,9.72 -0.61,14.35l-7.01 0.21c-0.77,10.82 -5.26,13.2 8.28,12.84 -0.88,5.24 -1.18,6.31 1.63,11.03 11.27,18.96 0.69,15.34 13.36,36.77 6.55,11.08 8.43,10.76 14.59,15.5 6.56,5.05 12.4,6.7 16.87,9.16 1.84,1.02 0.96,0.98 3.31,1.85 4.96,1.84 11.5,2.88 16.31,3.61 14.99,2.27 19.06,5.34 28.15,12.37 7.22,5.58 16.57,13.28 23.74,16.99 26.25,13.6 33.24,1.46 68.21,13.1 5.18,1.72 8.75,5.34 13.88,5.93 2.09,-4.79 3.15,-7.09 5.37,-10.81 3.68,-0.62 4.17,-4.93 13.14,-6.5z"/>
   <path class="fil5" d="M330.37 343.96l0.77 -7.54c-5.13,-0.59 -8.7,-4.21 -13.88,-5.93 -34.96,-11.64 -41.96,0.5 -68.21,-13.1 -7.16,-3.71 -16.52,-11.41 -23.74,-16.99 -9.09,-7.02 -13.16,-10.1 -28.15,-12.37 -4.81,-0.73 -11.36,-1.76 -16.31,-3.61 -2.34,-0.87 -1.46,-0.84 -3.31,-1.85 -4.47,-2.47 -10.31,-4.11 -16.87,-9.16 -6.16,-4.74 -8.04,-4.42 -14.59,-15.5 -12.67,-21.43 -2.08,-17.81 -13.36,-36.77 -1.8,-3.03 -2.12,-3.5 -2.25,-7.33 -4.52,0.28 -4.44,-0.67 -9.09,-1.33 0.39,10.63 5.52,28.51 11.99,36.12 4.12,4.84 -0.7,3.36 16.1,21.41 16.33,17.55 13.43,8.52 19.97,16.43 3.19,3.85 15.87,10.3 22,14.55 3.89,2.7 3.34,1.78 7.89,3.59l19.22 8.89c20.48,9.42 54.18,18.14 74.8,24.19 6.83,2 29.52,6.26 37,6.29z"/>
   <path class="fil6" d="M295.03 170.4c1.93,6.05 17.49,10.8 23.32,15.22 -2.28,2.5 -2.64,1.82 -5.16,4.12 -1.71,1.57 -2.77,3.43 -4.34,4.96 -4.38,4.26 -7.04,3.1 -6.68,12.27 64.24,3.61 34.63,-21.28 57.88,-21.52 -2.31,9.09 -11.6,9.9 -9.43,25.22 1.08,7.65 8.1,18.44 11.78,23.32 4.84,-5.11 8.73,-20.51 8.57,-27.09 -0.21,-8.84 1.21,-9.06 -3.91,-13.81 -1.93,-1.79 -3.01,-2.11 -3.39,-5.02 -0.44,-3.41 0.92,-2.59 0.27,-7.7 -12.82,-3.42 -6.22,3.3 -15.03,-7.67 -12.8,-15.95 -44.35,-8.66 -53.88,-2.3z"/>
   <path class="fil7" d="M414.85 308.7c-0.56,-5.24 -0.05,-6.24 5.1,-6.27 0.57,1.26 1.98,2.77 -0.46,4.99 -1.5,1.36 -2.96,1.17 -4.64,1.28zm34.98 8.59c-20.34,-13.15 -19.12,-4.9 -28.23,-21.5 -2.23,-4.06 -4.69,-5.12 -7.68,-7.51 3.1,0.05 9.58,1.56 12.74,2.51 9.76,2.92 7.04,-0.24 16.07,13.04 0.95,1.4 6.34,8.38 6.99,7.39 0.16,-0.24 0.6,0.35 0.91,0.48 4.11,-1.45 4.31,-1.72 8.65,-1.29 2.06,2.59 1.72,3.24 3.33,6.33 2.41,-0.28 2.56,0.42 3.11,-3.61 0.25,-1.84 -0.16,-4.96 -0.47,-6.81 -1.59,-9.58 -1.73,-9.46 -10.88,-6.77 -3.21,-6.52 -2.08,-9.35 -8.18,-12.71 -10.51,-5.77 -12.33,-0.77 -14.78,0.06 -2.5,-4.39 0.46,-4.9 -7.2,-5.02 -3.85,-0.06 -8.85,-0.57 -12.11,0.23l-16.08 -0.6c0.61,11.42 3.51,20.52 10.49,28.37 5.57,6.27 15.06,12.61 22.68,15.85 6.29,2.67 13.18,2.58 21.76,2.7 3.77,-12.42 0.8,-3.06 -1.11,-11.15z"/>
   <path class="fil7" d="M192.77 244.36c3.48,-13.63 20.28,-0.42 10.52,4.03l-7.33 0.33c-1.07,-1.35 -1.81,-2.79 -3.19,-4.36zm-25.73 -8.61l-0.59 3.38c2.4,1.32 3.5,2.34 5.03,4.19 -5,11.93 1.62,2.58 -6.67,13.54 3.3,5.64 0.22,-1.65 6.87,9.69 7.14,12.19 28.1,12.4 40.59,8.58 2.69,-3.06 3.09,-3.48 7.94,-3.6l0.6 2.95c6.14,0.11 3.45,-1.49 5.77,-5.68 1.33,-2.4 1.53,-1.65 3.28,-3.07 3.57,-2.91 1.6,-0.21 2.23,-3.61 -2.33,-3.79 -17.7,6.79 -24.68,3.03 -8.37,-4.5 0.18,-17.38 2.09,-22.87 -5.46,-6.43 -17.52,-16.03 -22.87,-15.39 -6.53,3.02 -9.72,10.2 -13.54,12.04 -1.83,-2.77 -0.46,-1.67 -3.12,-3.9l-2.92 0.73z"/>
   <path class="fil7" d="M309.38 279.56c-0.99,-9.27 -2.14,-0.71 -3.21,-8.49 7.45,-1.7 4.47,-1.21 8.46,3.6 2.33,2.81 14.36,7.3 3.24,10.48l-2.08 -5.35 -6.4 -0.23zm10.75 18.5l1.55 0.45c11.01,1.47 18.6,6.4 33.35,2.75 5.03,-1.25 9.21,-3.88 11.95,-7.58 4.6,-6.22 0.52,-10.09 -0.39,-16.28 -8.87,-0.61 -20.1,-2.58 -29.02,-3.76 -8.12,-1.07 -21.92,-5.16 -28.51,-4.76l-8.1 -0.04c1.56,4.4 3.81,12.07 6.63,15.99l12.54 13.24z"/>
   <path class="fil8" d="M296 278.6c6.21,3.29 4.49,1.74 7.66,6 1.92,2.58 4.11,4.87 5.47,6.63 -9.48,9.94 -11.78,8.02 -19.78,11.26 -2.97,1.2 -4.18,2.46 -8.13,3.16 -12.3,2.17 -31.01,1.46 -36.02,-8.16 4.75,-14.17 29.56,-1.54 39.4,-10.38 3.24,-2.91 1.08,-2.37 4.32,-3.91 3.12,-1.48 2.91,-0.05 6.15,-2.18l-7.78 -1.87c-2.56,0.19 -0.29,4.28 0.69,-2.76 -6.07,2.87 -5.91,4.91 -13.85,3.55 -3.1,-0.29 -11.67,3.92 -14.44,5.18 -12.8,5.81 -24.43,3.46 -14.75,-7.58 3.28,-3.74 3.94,-2.19 6.27,-7.26 -5.35,1.19 -3.94,0.89 -7.93,4.13 -13.14,20.42 -4.25,39.31 19.88,43.43 21.09,3.6 44.3,-7.83 51.37,-20.84l5.62 1.06 -12.54 -13.24c-2.82,-3.92 -5.07,-11.59 -6.63,-15.99l8.1 0.04c-2.08,-1.89 -7.62,-1.95 -10.89,-2.53 -0.46,4.85 1.24,7.17 1.82,11.36 -2.01,1.46 0.43,0.66 -3.99,0.91z"/>
   <path class="fil7" d="M558.48 270.32c-4.15,7.06 -1.46,13.17 3.19,18.86 2.37,2.91 2.7,2.67 0.85,6.19 -4.9,-1.34 2.23,-1.33 -10.66,-7.02 -4.59,-2.02 -5.17,-5.83 -10,-7.09 -2.88,0.73 -6.39,3.28 -7.36,6.84 3.81,2.2 11.31,1.61 13.69,5.21 -1.61,3.09 -2.49,1.36 -5.68,3.13 1.1,4.55 2.35,2.86 -0.25,5.01 2.69,10.71 51.89,16.18 38.86,-17.35l-6.31 -12.33c-1.84,-2.62 -1.25,-1.34 -3.05,-3.79l-13.26 2.34z"/>
   <path class="fil8" d="M392.18 280.56l-2.32 12.31c0.06,5.24 1.11,10.12 2.11,14.56 2.39,2.73 3.26,6.07 5.43,9.46 2.22,3.48 4.87,4.98 6.87,8.51 2.93,1.82 2.75,2.64 5.76,4.92 9.71,7.35 10.28,5.99 15.38,6.05 6.55,0.08 1.37,1.94 8.67,2.85l0.66 0.51c1.56,-2.76 1.98,-3.57 6.08,-3.87 3.96,-0.29 5.46,1.17 9,0.64 4.79,-0.73 8.92,-5.27 10.61,-10.57l-0.29 -3.97 -4.75 0.63 -1.7 -5.56 -3.84 0.25c1.92,8.09 4.88,-1.27 1.11,11.15 -8.57,-0.12 -15.46,-0.03 -21.76,-2.7 -7.63,-3.24 -17.11,-9.58 -22.68,-15.85 -6.97,-7.85 -9.87,-16.95 -10.49,-28.37l16.08 0.6c-3.48,-2.21 -16.14,-1.93 -19.92,-1.56z"/>
   <path class="fil7" d="M296 278.6c-9.32,-4.73 -7.44,-3.37 -8.09,-0.97 -1.25,4.59 -3.07,2.51 -0.62,1.51l7.78 1.87c-3.24,2.13 -3.03,0.7 -6.15,2.18 -3.23,1.53 -1.08,1 -4.32,3.91 -9.85,8.84 -34.65,-3.78 -39.4,10.38 5.01,9.62 23.72,10.33 36.02,8.16 3.95,-0.69 5.16,-1.95 8.13,-3.16 8,-3.24 10.3,-1.32 19.78,-11.26l-8.09 -9.96 -5.04 -2.67z"/>
   <path class="fil7" d="M464.88 288.81c-1.28,3.77 2.62,6.07 7.11,6.35l3.49 -8.67c11.41,-0.9 10.37,9.64 7.98,10.99l-0.19 4.84c12.84,3.19 15.96,0.7 26.52,-2.07 3.43,-1.43 4.14,-2.49 6.44,-4.42 3.26,-2.73 4.53,-2.74 4.9,-8.11 -3.9,-1.8 -6.23,-1.59 -10.87,-2.52 -14.43,-2.86 5.49,-7.91 -30.98,-4.45 -2.61,0.25 -3.79,0 -6.06,2.39 -3.16,3.32 -1.05,5.17 -8.34,5.65z"/>
   <path class="fil5" d="M395.42 338.37c-5.77,0.57 -9.42,3.21 -16.17,2.62l-1.1 10.13c3.5,-0.1 24.54,-0.17 26.53,1.56 8.95,-3.09 17.73,-6.74 28.89,-5.65l-2.08 -4.86c-7,-1.22 -6.67,2.34 -8.16,-3.78 4.23,0.7 8.06,3.93 10.74,0.84 -7.29,-0.91 -2.12,-2.78 -8.67,-2.85 -5.09,-0.06 -5.66,1.3 -15.38,-6.05 -3.02,-2.28 -2.84,-3.1 -5.76,-4.92 2.08,7.34 3.61,6.07 -2.81,12.73l-6.04 0.23z"/>
   <path class="fil3" d="M340.3 344.36c2,19.4 31.9,15.54 29.22,-3.82 -2.51,-18.08 -31.3,-16.39 -29.22,3.82z"/>
   <path class="fil8" d="M130.46 182.71c-0.79,10.25 -1.47,8.53 2.06,11.64 0.82,0.72 0.74,-0.1 2.62,2.09 -1.09,1.13 -2.64,2.53 -4.28,4.17 1.2,10.75 3.83,3.94 4.2,10.96 0.71,13.18 15.5,22.44 26.7,18.73l0.22 -13.13c-5.58,2.42 -2.94,4.38 -10.32,4.85 -0.42,-6.93 0.89,-9.02 -4.62,-12.54 -4.1,2.64 -0.2,4.23 -6.75,4.22 -2.61,-11.68 0.75,-30.89 0.68,-34.31 -10.07,-1.01 -9.51,-0.36 -10.51,3.33z"/>
   <path class="fil8" d="M571.75 267.98c2.62,3.56 2.71,2.45 5.35,7.87 1.31,2.68 3.05,5.78 4.01,8.25 13.03,33.53 -36.17,28.06 -38.86,17.35l-3.52 1.38c1.31,2.74 1.96,2.14 4.52,3.98 9.48,3.31 23.01,8.47 34.16,3.38 4.45,-2.03 7.9,-6.23 9.97,-10.91 3.5,-7.92 2.64,-10.09 2.57,-19.26 -0.67,-4.73 -2.89,-11.38 -5.43,-14.85l-12.78 2.81z"/>
   <path class="fil9" d="M404.68 352.68c-2,-1.73 -23.03,-1.67 -26.53,-1.56 -1.97,3.19 -4.72,6.89 -3.77,9.65 2.5,7.2 0.71,6.58 1.71,14.21l6.36 0.33c3.77,-3.72 5.56,-8.51 9.79,-12.79 4.89,-4.95 7.4,-5.71 12.44,-9.84z"/>
   <path class="fil9" d="M449.45 353.84c1.43,2.15 3.72,4.37 5.57,7.57 1.76,3.04 2.74,6.44 4.5,9.21 2.52,-1.72 7.09,-11.6 9.47,-14.74 3.02,-3.99 7.8,-8.11 11.46,-11.21l-16 -0.18 -2.79 -4.15c-17.71,13.67 -7.69,6.06 -12.21,13.5z"/>
   <path class="fil8" d="M449.83 317.29l0.8 -5.6c-0.32,-0.13 -0.75,-0.72 -0.91,-0.48 -0.65,0.99 -6.04,-5.99 -6.99,-7.39 -9.03,-13.28 -6.31,-10.12 -16.07,-13.04 -3.16,-0.95 -9.64,-2.45 -12.74,-2.51 2.99,2.4 5.45,3.45 7.68,7.51 9.11,16.6 7.89,8.35 28.23,21.5z"/>
   <path class="fil7" d="M251.19 270.28c-2.33,5.07 -2.99,3.52 -6.27,7.26 -9.68,11.04 1.95,13.39 14.75,7.58 2.77,-1.26 11.35,-5.47 14.44,-5.18 -3.95,-1.2 -3.1,-2.34 -8.32,-2.74 -6.06,-0.46 -4.76,0.62 -10.21,-1.44l2.44 -7.41c-4.02,-0.12 -4.21,-0.27 -6.83,1.93z"/>
   <path class="fil8" d="M541.86 281.27c4.83,1.27 5.41,5.07 10,7.09 12.9,5.69 5.76,5.68 10.66,7.02 1.85,-3.52 1.53,-3.29 -0.85,-6.19 -4.65,-5.7 -7.34,-11.81 -3.19,-18.86 -13.57,1.95 -11.9,-0 -16.63,10.94z"/>
   <path class="fil10" d="M626.76 282.19c5.22,-2.75 15.26,-14.79 16.22,-20.12 -5.21,-3.75 -11.05,-2.57 -17.94,-1.89 2.39,11.17 4.53,7.19 1.71,22.01z"/>
   <path class="fil8" d="M321.68 298.5c2.46,3.61 0.72,1.11 6.35,3.27 2.35,0.9 0.8,0.04 2.17,1.26 3.69,0.16 5.86,1.06 9.63,1.4 5.72,0.52 5.64,0.79 9.28,2.65 4.33,-1.5 -0.41,-2.56 11.97,-4.34 1.05,-1.26 0.41,-0.68 1.8,-1.86l6.65 -4.19c1.14,-6.01 5.76,-5.92 4.18,-19.04l-7.13 -0.28c0.91,6.19 4.99,10.07 0.39,16.28 -2.74,3.71 -6.93,6.34 -11.95,7.58 -14.74,3.65 -22.33,-1.28 -33.35,-2.75z"/>
   <path class="fil9" d="M146.48 244.85c6.23,0.24 9.36,1.42 9.52,-5.69 0.17,-7.96 -3.79,-6.26 -10,-5.93 -3.11,5.6 -4.54,5.71 0.48,11.61z"/>
   <path class="fil9" d="M212.27 275.13c-1.12,3.65 -0.67,5.4 0.59,8.72 4.13,0.35 5.65,0.71 8.6,-1.45 2.6,-1.89 3.12,-3.55 3.35,-5.75 -0.18,-0.12 -0.47,-0.22 -0.58,-0.28 -9.17,-4.55 3.18,3.4 -3.42,-1.9l-0.6 -2.95c-4.85,0.13 -5.26,0.55 -7.94,3.6z"/>
   <path class="fil9" d="M192.77 244.36c1.38,1.57 2.11,3.01 3.19,4.36l7.33 -0.33c9.76,-4.45 -7.04,-17.67 -10.52,-4.03z"/>
   <path class="fil11" d="M306.17 271.07c1.08,7.77 2.23,-0.79 3.21,8.49l6.4 0.23 2.08 5.35c11.13,-3.18 -0.9,-7.67 -3.24,-10.48 -3.99,-4.8 -1.01,-5.29 -8.46,-3.6z"/>
   <path class="fil12" d="M566.82 568.36c11.53,-2.55 5.45,-16.61 -2.08,-2.1l2.08 2.1z"/>
   <path class="fil12" d="M638.18 461.75c0.19,-1.96 -0.03,-0.85 -0.49,-2.26l-3.65 -0.71 -2.86 8.72 3.15 1.71 3.84 -7.46z"/>
   <path class="fil6" d="M212.38 245.16c-1.68,3.24 -1.29,1.62 -0.46,5.45l5.71 0.85 0.69 -7.01 -5.94 0.71z"/>
   <path class="fil13" d="M654.13 294.51c1.34,1.63 0.52,-0.23 1.37,2.37 2.02,6.19 -1.46,5.13 4.34,5.5 0.9,-1.38 1.46,1.32 1.14,-4.42 -0.05,-0.84 -0.66,-2.87 -0.88,-4.37l-3.52 -2.4 -2.46 3.31z"/>
   <path class="fil13" d="M216.59 63.68l-1.15 -4.15c-3.3,-0.67 -2.26,-0.55 -5.36,0.95 -3.25,1.58 -3.89,0.98 -3.53,3.68 0.66,4.99 6.23,0.6 10.04,-0.49z"/>
   <path class="fil13" d="M46.82 436.14c-1.06,-13.08 -2.29,-9.53 -5.9,-8.87 -0.85,3.57 0.43,6.73 1.83,9.77l4.06 -0.9z"/>
   <path class="fil13" d="M517.61 84.49l1.78 -4.41c-7.71,-3.82 -4.87,-4.52 -9.02,-3.64 -0.95,2.84 -4.29,3.71 7.24,8.05z"/>
   <path class="fil13" d="M40.81 409.04c0.26,-5.92 -5.74,-10.04 -5.78,-2.47 -0.05,8.95 4.25,6.11 4.47,6.07 1.82,-2.8 1.03,2.75 1.31,-3.6z"/>
   <path class="fil13" d="M559.99 583.3l-2.95 -3.96c-2.58,0.88 -3.8,2.06 -5.23,3.66 -2.39,2.68 -1.6,3.29 0.1,6.31l8.09 -6.01z"/>
   <path class="fil13" d="M465.82 56.83c1.96,2.52 5.05,3.73 9.18,4.48 0.31,-1.29 4.31,-6.3 -8.21,-7.56l-0.97 3.08z"/>
   <path class="fil13" d="M373.34 663.48c12.85,-0.8 9.74,-0.4 9.51,-5.63 -4.05,-0.02 -6.61,-0.18 -9.68,1.37l0.17 4.26z"/>
   <path class="fil13" d="M548.56 106.21c0.73,3.33 -2.02,1.38 6.66,7.55l3.12 -2.83c-1.23,-1.96 -2.14,-2.77 -4.11,-4.53 -2.25,-2 -3.48,-2.42 -5.67,-0.19z"/>
   <path class="fil13" d="M48.42 243.64c4.56,1.23 3.16,1.26 4.92,-2.91 0.33,-0.78 0.89,-2.59 0.9,-3.24 0.03,-7.94 -8.28,-1.58 -5.82,6.16z"/>
   <path class="fil13" d="M538.31 594.97c-2.78,1.27 -9.61,4.37 -6.66,7.47 3.03,3.18 7.49,-2 9.05,-4.59l-2.39 -2.88z"/>
   <path class="fil13" d="M421.61 654.51c3.12,1.14 6.44,-0.01 9.74,-1.65l-0.86 -4.33c-12.32,2.46 -9.58,1.72 -8.89,5.98z"/>
   <path class="fil13" d="M71.69 200.13c0.99,-2.81 3.2,-5.63 3.54,-8.77l-2.97 -1.42c-2.82,1.52 -4.57,5.11 -5.2,8.46l4.62 1.73z"/>
   <path class="fil13" d="M79.46 177.53c4.79,1.9 4.48,1.57 7.12,-2.82 1.99,-3.3 2.21,-4.24 -1.63,-5.76 -2.71,2.11 -4.69,5.34 -5.48,8.57z"/>
   <path class="fil13" d="M429.04 44.75l0.52 -3.7c-2.74,-1.64 -5.71,-2.32 -9.47,-2.32 -0.8,6.08 -2.13,3.56 2.27,5.32 2.27,0.9 4.72,0.93 6.68,0.7z"/>
   <polygon class="fil13" points="347.01,34.66 356.84,34.79 356.61,29.67 347.28,29.69 "/>
   <path class="fil13" d="M397.5 659.22c2.24,2.02 7.39,0.34 9.93,-1.08l-1.02 -3.08c-1.25,-0.61 1.3,-0.71 -2.78,-0.66 -8.96,0.12 -6.05,1.98 -6.12,4.82z"/>
   <path class="fil13" d="M468.46 640.24c11.92,-3 8.69,-4.61 8.16,-7.08 -3.71,-0.71 -6.15,0.83 -9.25,2.84l1.09 4.24z"/>
   <path class="fil13" d="M589.07 141.3c-7.2,-6.72 -7.22,5.38 0.97,7.14l2.28 -1.27c-0.83,-2.99 -1.17,-3.93 -3.26,-5.88z"/>
   <path class="fil13" d="M238.19 644.68c0.75,-3.66 3.51,-4.63 -8.14,-7.31l-1.19 3.89c2.59,2.08 5.3,2.95 9.33,3.42z"/>
   <path class="fil13" d="M34.22 305.68c-2.34,1.21 -1.5,-3.04 -2.64,4.25 -0.28,1.8 -0.14,3.67 -0.01,5.39l4.52 0.26c1.55,-13.35 1.52,-8.36 -1.88,-9.9z"/>
   <path class="fil13" d="M252.48 47.38c3.55,2.02 7.15,0.32 9.7,-2.23l-0.88 -3.19c-9.71,0.69 -9.95,2.11 -8.83,5.42z"/>
   <path class="fil13" d="M324.38 658.83c-0.1,6.8 2.13,5.78 9.49,5.19l0.33 -4.63 -9.82 -0.56z"/>
   <path class="fil13" d="M537.61 98.38c3.88,-7.11 -5.63,-9.22 -6.98,-7.9 -3.61,3.53 4.31,7 6.98,7.9z"/>
   <path class="fil13" d="M656.61 419.02c1,-6.8 0.35,-3.31 -1.32,-4.64 -3.81,-1.49 -3.18,0.39 -4.99,9.12l4.25 0.45 2.06 -4.93z"/>
   <path class="fil13" d="M510.97 615.82c2.59,1.85 1.59,2.6 5.87,-0.19 1.48,-0.96 4.27,-2.31 3.17,-4.69 -1.79,-3.84 -8.91,0.15 -9.04,4.88z"/>
   <path class="fil13" d="M194.79 619.81c-7.54,-3.58 -7.77,-6.15 -9.95,-0.74 1.24,1.85 0.31,1.56 4.4,3.62 3.06,1.54 1.36,1.1 4.26,1.4l1.29 -4.27z"/>
   <path class="fil13" d="M620.78 187.04c-4.99,-15.12 -13.79,-6.42 -3.35,1.45l3.35 -1.45z"/>
   <path class="fil13" d="M651.13 438.64l-3.97 -1.23c-2.01,2.46 -2.71,5.72 -3.44,9.3l4.6 1.22 2.81 -9.29z"/>
   <path class="fil13" d="M277.12 42.74l8.69 -2.27 -0.48 -3.84c-1.48,-0.35 -13.18,-1.6 -8.21,6.12z"/>
   <path class="fil13" d="M35.45 291.14c3.78,0.54 4.52,2.97 5.55,-9.2l-3.6 -0.71c-2.23,4.73 -2.84,5.03 -1.95,9.91z"/>
   <path class="fil13" d="M56.22 473.8c1.93,3.81 0.92,5.26 4.41,8.95l3.91 -1.21 -3.88 -9.35 -4.43 1.61z"/>
   <path class="fil13" d="M660.9 326.72c1.11,-0.44 5.05,2 2.36,-7.7 -0.65,-2.34 -0.35,-1 -1.3,-2.25l-2.11 0.17c-0.25,0.31 -1.83,0.87 -1.34,5.23 0.45,5.34 0.28,3.28 2.4,4.56z"/>
   <path class="fil13" d="M624.74 200.74c-0.17,3.8 1.85,6.37 3.23,9.68l4.29 -2.42c-1.65,-5.01 -1.99,-8.67 -7.51,-7.26z"/>
   <path class="fil13" d="M117.69 560c-0.03,-0.28 -2.61,-9.44 -8.36,-3.28 0.85,2.33 4.25,6.25 6.87,6.84 1.57,-1.65 1.88,-0.2 1.49,-3.56z"/>
   <path class="fil13" d="M184.7 74.85l1.52 3.59c3.21,-0.82 1.97,-0.3 4.91,-2.04 3.77,-2.22 2.49,-0.83 3.63,-3.95l-1.24 -1.87c-3.68,-0.03 -6.48,1.95 -8.83,4.27z"/>
   <path class="fil13" d="M98.14 535.14c-3.19,1.15 -1.9,0.15 -4.33,2.56 1.33,3.83 2.65,4.46 6,7.49l3.07 -2.1c-1.7,-3.27 -3.11,-4.51 -4.74,-7.94z"/>
   <path class="fil13" d="M607.03 166.63c-0.36,-4.08 -2.75,-7.13 -6.44,-8.29l-1.35 1.65c0.24,0.88 -1.33,0.43 1.33,4.69 2.42,3.19 1.59,2.46 4.33,3.2 0.74,-0.54 2.11,-1.23 2.14,-1.25z"/>
   <path class="fil13" d="M371.32 35.58c13.1,1.14 8,0.59 10.01,-0.88 -0.58,-4.49 1.35,-2.51 -3.09,-3.56 -1.05,-0.25 -5.2,-0.21 -6.46,-0.19l-0.45 4.62z"/>
   <path class="fil13" d="M85.95 518.74c-2.15,-3.29 -0.44,-1.52 -3.11,-3.44 -1.15,0.68 -1.56,0.69 -2.93,1.72 0.36,2.93 2.64,9.65 8.16,6.75 -0.41,-3.33 -0.22,-2.15 -2.11,-5.04z"/>
   <path class="fil13" d="M496.66 71.36l1.44 -2.78c-2.2,-2.6 -5.32,-4.3 -9.15,-4.13 -1.42,5.71 -2.15,2.83 1.73,5.25 1.83,1.14 3.76,1.74 5.98,1.66z"/>
   <path class="fil13" d="M75.15 502.83c-0.38,-3.28 -2.19,-5.77 -3.64,-8.72l-4.13 1.74c0.54,3.57 2.49,6.58 4.71,8.58l3.06 -1.6z"/>
   <path class="fil13" d="M43.74 267.74c2.08,-1.99 3.12,-6.13 2.79,-9.61l-4.3 -0.66 -2.08 9.11 3.59 1.16z"/>
   <path class="fil13" d="M443.85 46.07l-1.13 3.85 9.32 2.44 1.01 -3.9c-2.59,-1.88 -6.03,-3.53 -9.2,-2.38z"/>
   <path class="fil13" d="M215.56 634.78c0.63,-2.43 3.95,-4.86 -7.92,-7.29l-1.21 3.19c2,2.9 2.83,2.36 9.13,4.09z"/>
   <path class="fil13" d="M61.04 222.06c1.01,-3.83 2.4,-4.99 2.8,-8.94l-3.66 -1.87 -3.95 9.39 4.82 1.42z"/>
   <polygon class="fil13" points="490.86,630.1 499.46,625.34 497.8,621.15 489.02,625.66 "/>
   <polygon class="fil13" points="349.15,664.5 358.67,664.37 358.34,659.37 348.72,660 "/>
   <polygon class="fil13" points="30.03,364.43 34.94,364.02 34.24,354.73 29.67,354.54 "/>
   <path class="fil13" d="M228.79 53.72l1.18 3.15c5.73,-0.94 9.3,-1.27 7.83,-7.28 -3.57,0.48 -6.96,1.45 -9.01,4.13z"/>
   <path class="fil13" d="M259.84 647.14c-1.48,-0.6 -5.22,-1.34 -6.91,-1.66l-0.96 4.55 9.57 2.3c0.58,-4.47 1.69,-3.83 -1.69,-5.19z"/>
   <polygon class="fil13" points="323.86,30.59 324.3,35.14 334.13,34.76 333.82,30.18 "/>
   <path class="fil13" d="M53.43 454.13c-0.65,-1.85 -1.17,-2.68 -2.36,-4.25l-3.76 1.47c3.18,7.83 0.39,9.83 6.58,7.72 0.09,-0.5 0.57,0.81 0.2,-2.49 -0.1,-0.89 -0.37,-1.62 -0.66,-2.45z"/>
   <path class="fil13" d="M285.51 658.04l0.12 -4.44 -9.37 -1.69 -0.32 4.15c2.65,1.39 6.01,1.99 9.57,1.99z"/>
   <polygon class="fil13" points="445.54,648.77 454.67,645.46 453.71,641.04 444.31,644.28 "/>
   <path class="fil13" d="M34.17 339.79c1.33,-4.87 2.7,-10.12 -3.99,-9.7l-0.04 9.79 4.04 -0.09z"/>
   <polygon class="fil13" points="660.13,351.29 664.48,350.94 664.5,341.55 659.67,341.33 "/>
   <polygon class="fil13" points="395.72,37.86 405.22,40.01 405.68,35.32 396.06,33.52 "/>
   <polygon class="fil13" points="164.13,606.84 171.86,611.49 174.38,607.82 166.47,602.43 "/>
   <path class="fil13" d="M660.79 390.16l-3.06 -0.24c-1.99,2.39 -2.85,6.47 -1.07,9.77l3.64 0.59 0.49 -10.12z"/>
   <polygon class="fil13" points="299.82,661.11 309.67,661.77 309.69,657.3 300.12,656.76 "/>
   <path class="fil13" d="M566.94 123.5c0.8,3.36 3.53,5.65 6.24,7.08l2.78 -2.75 -4.86 -5.52c-1.85,-1.33 0.36,-0.04 -2.14,-1.05l-2.02 2.24z"/>
   <path class="fil13" d="M97.51 159.31c1.7,-2.7 3.45,-5.18 5.17,-7.5l-3.26 -2.89 -5.96 7.66 4.04 2.73z"/>
   <polygon class="fil13" points="32.35,387.34 37.21,388.31 35.89,378.57 31.13,379.33 "/>
   <path class="fil13" d="M300.53 33.22l-0.57 4.28 7.91 -0.48c2.13,-0.78 0.83,-0.27 1.99,-1.25l-0.36 -2.81c-3.41,-1.15 -5.51,-0.56 -8.97,0.27z"/>
   <polygon class="fil13" points="663.5,366 659.09,365.9 659.07,375.59 663.16,375.74 "/>
   <path class="fil13" d="M587.16 554.17c4.86,-4.05 7,-4.79 5.08,-8.34l-5.99 3.89c-1.99,2 -0.06,-0.35 -1.73,2.28l2.64 2.16z"/>
   <path class="fil6" d="M476.73 315.71c3.31,-1.46 1.8,-0.5 3.3,-3.16l-0.1 -2.88 -4.98 -0.24 -1.16 5.93 2.94 0.35z"/>
   <path class="fil11" d="M414.85 308.7c1.68,-0.12 3.14,0.08 4.64,-1.28 2.44,-2.22 1.03,-3.72 0.46,-4.99 -5.15,0.03 -5.66,1.03 -5.1,6.27z"/>
   <path class="fil12" d="M626.37 499.56c4.03,-1.71 0.38,-0.19 3.1,-1.8 1.07,-0.63 0.36,-0.59 1.71,-0.75 1.97,-2.06 1.41,-3.16 0.59,-6.12 -1.96,0.4 -1.53,0.46 -2.9,2.93 -1.16,2.09 -1.73,3.47 -2.5,5.75z"/>
   <path class="fil6" d="M529.47 289.56l1.01 -4.89 -6.07 0.32c0.46,4.26 1.87,5.28 5.06,4.58z"/>
   <path class="fil12" d="M157.05 589.47c-3.97,-0.08 -1.58,-1.38 -5.09,1.76 0.03,0.03 0.83,2.5 3.12,1.67 1.54,-0.55 1.48,-1.82 1.97,-3.43z"/>
   <path class="fil14 str3" d="M174.72 586.37c9.14,-2.02 16.8,-39.73 16.51,-41.07 -0.37,-1.7 -3.01,-1.62 -3.35,0.2 -1.22,6.51 -8.06,36.14 -14.08,37.48l-1.31 -5.08c-2.37,-16.56 7.3,-73.79 6.85,-75.8 -0.77,-3.49 -14.84,-4.17 -15.83,0.46 -0.8,4.47 -2.63,15.62 -4.08,28.47 -2.75,-2.5 -6.65,-2.85 -10.8,-1.91 -26.1,5.92 -28.33,65.99 -4.83,60.68 7.17,-1.58 11.48,-10.41 14.12,-18.7 0.34,4.47 1.34,10.65 3.78,13.84 3.03,3.96 8.52,2.41 13.02,1.41zm-28.77 -7.06c-8.15,1.8 -3.54,-38.95 6.98,-41.28 6.42,-1.42 5.01,13.3 4.67,15.43 -0.72,4.81 -6.39,24.51 -11.64,25.85zm61.73 -5.79c-10.97,2.45 -7.55,-45.04 4.14,-47.63 2.22,-0.49 3.62,0.99 4.62,3.09 -5.09,2.62 -6.71,15.57 1.59,19.34 -0.7,5.71 -3.7,23.73 -10.35,25.2zm-0.02 5.55c11.77,-2.6 17.12,-18.11 18.49,-29.69 14.08,-3.11 18.81,-15.91 15.5,-16.5 -0.68,-0.12 -1.9,-0.44 -2.28,1.04 -1.65,6.27 -7.15,10.53 -12.79,11.78 0.98,-12.63 -2.42,-33.48 -19.8,-29.63 -25.66,5.68 -27.27,69.23 0.87,62.99z"/>
   <path class="fil15" d="M174.72 586.37c9.14,-2.02 16.81,-39.72 16.51,-41.07 -0.38,-1.7 -3.02,-1.62 -3.36,0.21 -1.22,6.51 -8.05,36.14 -14.08,37.48l-1.31 -5.08c-2.37,-16.56 7.3,-73.78 6.85,-75.8 -0.77,-3.49 -14.84,-4.17 -15.83,0.46 -0.8,4.47 -2.63,15.62 -4.08,28.47 -2.76,-2.51 -6.64,-2.84 -10.8,-1.91 -26.07,5.87 -28.35,65.99 -4.83,60.68 7.17,-1.58 11.48,-10.41 14.12,-18.7 0.34,4.47 1.34,10.65 3.78,13.84 3.03,3.96 8.52,2.41 13.02,1.41zm-28.77 -7.06c-8.14,1.8 -3.55,-38.93 6.98,-41.28 6.41,-1.44 5,13.3 4.67,15.43 -0.73,4.81 -6.39,24.51 -11.64,25.85zm61.73 -5.79c-10.96,2.46 -7.56,-45.04 4.14,-47.63 2.22,-0.49 3.62,0.99 4.62,3.09 -5.09,2.62 -6.71,15.57 1.59,19.34 -0.7,5.71 -3.7,23.73 -10.35,25.2zm-0.02 5.55c11.77,-2.6 17.12,-18.11 18.49,-29.69 14.08,-3.11 18.81,-15.91 15.5,-16.5 -0.68,-0.12 -1.9,-0.44 -2.28,1.04 -1.65,6.27 -7.15,10.53 -12.79,11.78 0.98,-12.63 -2.42,-33.48 -19.8,-29.63 -25.66,5.68 -27.27,69.23 0.87,62.99z"/>
   <path class="fil16 str3" d="M351.88 618.89c19.22,-5.57 38.99,-22.82 42.99,-42.85 3.17,-17.25 -1.63,-33.64 -22.28,-35.47 15.85,-11.47 25,-33.73 19.54,-52.72 -7.55,-26.26 -40.16,-22.19 -61.29,-16.08 -26.23,7.6 -49.96,21.33 -65.36,45.16 -5.82,8.62 8.56,29.9 17.73,28.2 1.13,-0.33 1.61,-1.2 1.44,-2.62 -2.63,-31.11 32.92,-55.62 61.19,-63.81 12.35,-3.19 24.59,-4.81 28.43,8.43 4.85,16.76 -8.94,45.71 -22.14,48.82l-2.33 0.43 2.76 -33.65c-0.76,-4.75 -19.62,-5.71 -20.31,0.98 -1.17,11.36 -6.03,75.86 1.09,88.42 2.87,5.05 11.68,3.54 16.63,1.56 1.06,-0.56 1.71,-1.72 1.38,-2.85 -2.55,-8.82 -2.25,-31.46 -1.94,-44.79 10.13,4.09 31,-6.4 25.9,23.39 -3.48,21.85 -16.21,34.6 -31.59,39.06 -18.74,5.43 -32.19,-2.94 -33.81,-2.46 -1.61,0.47 -1.79,4.46 0.28,6.05 13.18,9.66 31.8,9.66 41.68,6.8zm77.48 -76.13c-1.13,0.33 -2.33,0.43 -3.43,0.01 0.24,-5.95 1.47,-12.68 3.36,-18.87 1.08,-3.3 7.2,-18.82 12.97,-17 6.51,2.06 -2.12,32.73 -12.91,35.85zm15.44 37.2c15.43,-4.48 24.57,-21.26 31.19,-59.04 0.49,-2.77 -4.03,-3.85 -4.6,-0.63 -5.99,33.87 -14.37,52.71 -28.55,54.6 -11.07,1.14 -15.84,-14.72 -17.04,-24.98 14.24,6.66 31.27,-24.86 25.68,-44.21 -2.6,-9.02 -11.51,-10.88 -20.31,-8.34 -22.49,6.51 -28.78,43.68 -22.7,64.68 4.67,16.11 16.13,23.77 36.33,17.92zm74.41 -21.55c4.07,-1.18 6.78,-3.68 9.66,-12.36 2.62,-7.87 4.93,-21.04 7.96,-42.75 0.49,-2.99 -4.08,-3.79 -4.59,-0.63 -2.92,17.9 -6.3,49.14 -14.27,51.45 -2.61,0.76 -4.07,-3.55 -4.84,-5.71 -5.05,-14.26 0.96,-55.16 -1.42,-61.61 -2.47,-6.71 -9.55,-9.98 -15.85,-8.16 -4.75,1.38 -9.42,4.69 -15.47,6.69l0.54 -11.68c-0.36,-2.98 -10.79,-1.45 -11.15,2.98 -0.44,5.45 -0.81,13.21 5.26,15.64l-3.61 28.99c0.75,2.59 4.34,2.03 4.56,-0.34 1.93,-12.82 2.65,-17.93 3.49,-27.73 3.81,0.38 11.3,-4.01 14.21,-5.1 -0.5,12.64 -5.53,58.33 5.62,70.2 4.62,4.92 14.03,1.82 19.89,0.12zm38.22 -29.7c-2.45,0.72 -3.97,-1.02 -5.1,-4.9 -3.87,-13.34 0.18,-47.61 10.75,-50.92 8.57,-2.58 7.54,17.19 7.41,19.67 -0.66,7.05 -6.28,34.18 -13.07,36.15zm5.92 62.76c19,-5.5 22.99,-27.25 24.58,-44.63 18.84,-14.44 20.4,-40.25 24.67,-65.49 0.54,-3.18 -4.3,-3.6 -4.6,-0.63 -2.59,16.44 -4.45,29.48 -7.84,39.78 -2.78,8.16 -6.32,14.58 -11.67,19.8 1.69,-24.74 1.45,-57.1 2.49,-81.13 0.26,-5.96 -21.1,-7.8 -19.75,3.76 -4.11,-2.85 -9.15,-3.24 -14.46,-1.69 -33.87,9.87 -32.83,90.81 -1.48,82.06 8.1,-2.26 12.31,-10.8 15.48,-20.17 0.1,10.51 0.28,15.36 -0.27,23.61 -20.25,7.09 -30.12,15.34 -28.9,29.7 1.32,11.68 9.01,18.72 21.76,15.03zm-7.86 -8.51c-6.09,1.77 -8.89,-3.39 -9.08,-7.66 -0.66,-11.58 8.25,-18.08 23.66,-23.28 -1.53,14.17 -5.98,28.45 -14.57,30.94z"/>
   <path class="fil15" d="M351.88 618.89c19.22,-5.57 38.99,-22.82 42.99,-42.85 3.17,-17.25 -1.63,-33.64 -22.28,-35.46 15.85,-11.48 24.99,-33.72 19.54,-52.73 -7.54,-26.26 -40.17,-22.19 -61.29,-16.08 -26.23,7.6 -49.96,21.33 -65.36,45.16 -5.82,8.61 8.56,29.91 17.73,28.2 1.13,-0.33 1.61,-1.2 1.44,-2.62 -2.63,-31.11 32.92,-55.62 61.19,-63.81 12.35,-3.19 24.59,-4.81 28.43,8.43 4.85,16.76 -8.93,45.71 -22.14,48.82l-2.33 0.43 2.76 -33.65c-0.76,-4.75 -19.62,-5.71 -20.31,0.98 -1.17,11.35 -6.03,75.87 1.09,88.42 2.87,5.05 11.68,3.54 16.63,1.56 1.06,-0.56 1.71,-1.72 1.38,-2.85 -2.55,-8.82 -2.25,-31.46 -1.94,-44.79 10.12,4.09 31,-6.39 25.9,23.39 -3.48,21.84 -16.21,34.6 -31.59,39.06 -18.74,5.43 -32.19,-2.94 -33.81,-2.46 -1.61,0.47 -1.79,4.46 0.28,6.05 13.18,9.66 31.8,9.66 41.68,6.8zm77.48 -76.13c-1.13,0.33 -2.33,0.43 -3.43,0.01 0.24,-5.95 1.47,-12.68 3.36,-18.87 1.08,-3.3 7.2,-18.83 12.97,-17 6.51,2.06 -2.12,32.73 -12.9,35.85zm15.43 37.2c15.43,-4.48 24.56,-21.25 31.19,-59.05 0.49,-2.77 -4.03,-3.85 -4.6,-0.63 -5.91,33.54 -14.7,51.38 -26,54.11 -13.34,3.22 -18.26,-13.11 -19.59,-24.48 14.24,6.66 31.27,-24.86 25.68,-44.21 -2.6,-9.02 -11.51,-10.88 -20.31,-8.34 -22.49,6.51 -28.78,43.68 -22.7,64.68 4.67,16.12 16.13,23.76 36.33,17.92zm74.41 -21.55c4.07,-1.18 6.78,-3.68 9.66,-12.36 2.62,-7.87 4.93,-21.04 7.96,-42.75 0.49,-2.99 -4.08,-3.79 -4.59,-0.63 -2.92,17.9 -6.3,49.14 -14.27,51.45 -2.61,0.75 -4.07,-3.55 -4.84,-5.71 -5.05,-14.26 0.96,-55.16 -1.42,-61.61 -2.47,-6.71 -9.55,-9.98 -15.85,-8.16 -4.75,1.38 -9.42,4.69 -15.47,6.69l0.54 -11.68c-0.36,-2.98 -10.79,-1.45 -11.15,2.98 -0.44,5.44 -0.81,13.21 5.26,15.64l-3.61 28.99c0.75,2.59 4.34,2.03 4.56,-0.34 1.93,-12.81 2.65,-17.93 3.49,-27.73 3.81,0.38 11.3,-4.01 14.21,-5.1 -0.5,12.64 -5.53,58.32 5.62,70.2 4.62,4.92 14.04,1.82 19.89,0.12zm38.22 -29.7c-2.45,0.72 -3.97,-1.02 -5.1,-4.9 -3.87,-13.34 0.18,-47.61 10.75,-50.92 8.57,-2.58 7.54,17.19 7.41,19.67 -0.66,7.05 -6.28,34.18 -13.07,36.14zm5.92 62.76c19,-5.5 22.99,-27.25 24.58,-44.63 18.82,-14.43 20.43,-40.27 24.67,-65.49 0.53,-3.18 -4.3,-3.6 -4.59,-0.63 -2.59,16.44 -4.46,29.48 -7.85,39.78 -2.78,8.16 -6.32,14.58 -11.67,19.8 1.69,-24.74 1.45,-57.1 2.49,-81.13 0.26,-5.95 -21.1,-7.8 -19.75,3.76 -4.11,-2.85 -9.15,-3.24 -14.46,-1.69 -33.88,9.87 -32.83,90.82 -1.48,82.06 8.1,-2.26 12.31,-10.8 15.48,-20.17 0.1,10.51 0.28,15.36 -0.27,23.61 -20.25,7.09 -30.12,15.34 -28.9,29.7 1.32,11.68 9.01,18.72 21.76,15.03zm-7.86 -8.51c-6.09,1.77 -8.89,-3.4 -9.08,-7.66 -0.66,-11.58 8.25,-18.08 23.66,-23.28 -1.53,14.17 -5.98,28.45 -14.57,30.94z"/>
  </g>
 </g>
</svg>
