<?xml version="1.0" encoding="UTF-8"?>
<!DOCTYPE svg PUBLIC "-//W3C//DTD SVG 1.1//EN" "http://www.w3.org/Graphics/SVG/1.1/DTD/svg11.dtd">
<!-- Creator: CorelDRAW -->
<svg xmlns="http://www.w3.org/2000/svg" xml:space="preserve" width="17.6921mm" height="17.1935mm" version="1.1" style="shape-rendering:geometricPrecision; text-rendering:geometricPrecision; image-rendering:optimizeQuality; fill-rule:evenodd; clip-rule:evenodd"
viewBox="0 0 83.99 81.63"
 xmlns:xlink="http://www.w3.org/1999/xlink"
 xmlns:xodm="http://www.corel.com/coreldraw/odm/2003">
 <defs>
  <style type="text/css">
   <![CDATA[
    .fil0 {fill:none}
    .fil1 {fill:white}
   ]]>
  </style>
 </defs>
 <g id="Camada_x0020_1">
  <metadata id="CorelCorpID_0Corel-Layer"/>
  <g id="_2369053053504">
   <rect class="fil0" x="-0" y="-0" width="83.99" height="81.63"/>
   <path class="fil1" d="M3.93 17.69l0 0.33c0.19,0.2 0.28,0.26 0.6,0.31 0.31,0.05 0.64,0.06 0.9,0.09 0.67,0.08 1.06,0.17 1.81,0.17l0 0.17c-0.37,0.01 -0.81,0.13 -1.16,0.16 -0.52,0.04 -0.81,0.09 -1.32,0.09 -0.2,0.38 -0.33,0.39 -0.33,0.99 0.44,0.21 1.28,-0.01 2.03,-0.12 0.64,-0.09 1.55,-0.3 2.19,-0.3 -0.11,0.43 -0.66,0.5 -1.35,0.88 -0.51,0.29 -0.96,0.5 -1.46,0.77 0.1,0.18 0.14,0.25 0.25,0.41 1.08,0 0.93,-0.05 1.65,-0.41 0.47,-0.23 0.95,-0.5 1.43,-0.72 0.63,-0.29 1.46,0.28 2.57,-0.49 1.12,-0.77 2.86,0.56 4.03,0.95 1.54,0.51 3.7,1.2 5.39,0.95 2.96,-0.45 2.7,-0.4 5.7,0.2 1.35,0.27 2.12,0.56 3.79,0.52 1,-0.02 2.79,-1.1 3.24,0.07 0.19,0.48 0.09,0.88 0.41,1.66 0.21,0.51 0.93,3.89 1.32,5.13 0.47,1.48 0.65,1.44 0.44,2.52 -0.17,0.89 0.09,2.08 0.24,2.92 0.13,0.75 -0.15,1.11 -0.34,1.7 -0.96,3.06 0.04,3.53 -1.67,6.93 -0.81,1.61 -1.31,3.19 -1.41,5.05 -0.04,0.79 0.08,1.4 0.08,2.07 -0.54,0.01 -0.52,0.13 -0.83,0.33 0,1.17 1.84,1.81 2.4,1.82 -0.1,0.2 -0.3,2.49 -0.34,2.97 -0.1,1.02 -0.35,1.87 -0.53,2.86 -0.31,1.75 -0.04,1.61 -0.62,3.51 -0.54,1.76 -0.45,1.23 -0.01,3.42 0.1,0.49 0.16,0.94 0.27,1.39 0.31,1.25 1.88,5.93 1.1,6.89 -0.08,0.1 -0.93,0.56 -1.09,0.64 0,1.16 -0.1,0.68 0.87,1.94 0.66,0.85 1.12,0.97 1.44,1.45l0.17 0 0.28 -0.14c0.16,-0.06 0.22,-0.07 0.37,-0.12 0.92,-0.33 0.73,-0.19 1.12,-1.86 0.34,-1.45 0.16,-2.16 -0.34,-3.28 -0.26,-0.57 -0.12,-0.57 -0.03,-1.56 0.06,-0.62 0.1,-1.19 0.19,-1.8 0.06,-0.44 0.3,-1.08 0.42,-1.57 0.13,-0.51 0.29,-0.99 0.43,-1.55 0.25,-0.97 0.25,-2.63 -0.14,-3.49 -0.28,-0.61 -0.19,-0.48 0.17,-1.37l1.12 -2.77c0.48,-1.2 0.54,-1.8 0.83,-3.15 0.09,-0.43 0.31,-1.16 0.31,-1.68 0.23,-0.02 0.7,-0.23 0.83,-0.33 0.28,-0.22 0.09,0.01 0.28,-0.88 0.34,-1.57 1.22,-3.09 1.12,-4.67 -0.04,-0.61 -0.21,-0.45 0.08,-0.99 0.49,0.13 0.67,0.71 0.82,1.17 0.84,2.63 0.09,4.02 0.09,5.2l1.32 0c0,1.25 0.73,3.95 1.06,5.15 0.09,0.33 0.15,0.71 0.26,0.98 0.66,1.52 1.11,0.51 0.75,2.65 -0.28,1.64 -0.08,1.05 -0.12,2.46 -0.03,1.07 -0.11,0.89 0.37,1.85 0.28,0.55 0.51,1.11 0.8,1.68 0.41,0.81 0.28,1.01 0.28,2.21 0,0.65 0.1,1.88 -0.05,2.43 -0.21,0.76 -0.54,0.38 0.23,1.69 0.58,0.99 0.23,0.55 -0.27,2.18 -0.08,0.26 -0.1,0.21 0.04,0.44 0.34,0.56 1.05,1 1.48,0.9 0.67,-0.16 1.13,-0.47 1.52,-0.96 0.29,-0.37 0.24,-0.32 0.65,-0.59l1.52 -0.96c-0.13,-0.25 -0.49,-0.88 -0.68,-1.05 -0.66,-0.57 -1.41,-0.52 -1.52,-1.21 -0.05,-0.29 -0.02,-0.58 -0.02,-0.89 -0.01,-0.52 -0.19,-1.09 -0.04,-1.69 0.32,-1.24 0.46,-1.34 0.77,-2.87 0.48,-2.39 0.48,-2.13 0.45,-4.45 -0.01,-0.91 -0.34,-1.56 -0.64,-2.62l-0.32 -1.5c-0.32,-1.95 -0.14,-4.89 -0.14,-7.14 0.67,-0.35 0.95,-0.26 1.39,-0.92 0.17,-0.25 0.32,-0.43 0.35,-0.82 0.03,-0.42 -0.08,-0.67 -0.23,-0.92 -0.34,-0.57 -0.61,-0.8 -0.6,-1.72 0.02,-1.92 0.52,-2.04 -0.67,-3.87 -1.42,-2.17 -0.69,-3.27 -1.41,-5.63 -0.08,-0.26 -0.21,-0.54 -0.34,-0.82l-0.77 -1.56c-0.18,-0.37 -0.02,-0.42 0.05,-0.87 0.27,-1.74 -0.14,-1.89 -0.36,-2.94 -0.1,-0.45 0.37,-2.58 0.5,-2.96 0.21,-0.64 0.4,-1.11 0.52,-1.8 0.21,-1.24 0.28,-3.18 0.67,-4.05 0.31,-0.69 0.63,-0.52 1.71,-0.38 2.24,0.31 4.15,0.07 6.27,-0.5 1.9,-0.52 1.73,-1.27 3.46,-0.54 0.57,0.24 1.23,0.3 2.06,0.26 1.84,-0.1 4.28,-0.44 5.91,-1.12 1.23,-0.51 1.98,-1.17 3.61,-0.78 2.1,0.5 3.6,1.71 4.22,1.58 0.43,-0.09 0.49,-0.72 -0.67,-1.15 -0.84,-0.31 -0.7,-0 -0.82,-0.42 0.82,0 1.42,-0.04 2.23,-0.08 1.09,-0.05 1.16,-0.25 0.66,-0.99 -0.57,0 -0.83,-0.1 -1.33,-0.08 -0.49,0.02 -0.5,0.08 -1.16,0.08 0.06,-0.04 0.03,-0.04 0.16,-0.09l1.67 -0.23c1,-0.11 1.02,0.04 1.57,-0.59l0 -0.25c-0.89,-0.6 -1.54,-0.25 -2.73,-0.25 0.06,-0.04 0.04,-0.04 0.16,-0.09 0.89,-0.37 2.13,0.06 2.16,-1.24 -0.65,-0.43 -0.99,-0.2 -2.43,0.13 -1.64,0.38 -0.88,0.32 -2.45,-0.05 0.04,-0.52 0.4,-0.66 0.68,-0.97 0.74,-0.84 0.91,-2.23 -0.18,-1.5l-0.9 0.76c-0.66,0.55 -0.94,1.05 -1.67,1.64 -2.5,2.04 -4.81,0.02 -8.44,0.41l-2.74 0.57c-1.41,0.33 -4.92,0.68 -6.08,0.37 -1.58,-0.42 -1.28,-1.67 -5.12,-1.05 -2.52,0.41 -1.05,0.76 -3.62,-0.39 -0.2,-0.09 -0.38,-0.15 -0.58,-0.25 -0.19,-0.09 -0.42,-0.16 -0.58,-0.24 -0.32,-0.16 -0.5,-0.74 -0.49,-1.16 0.02,-0.64 0.21,-2.19 0.52,-2.71 0.36,-0.59 1.02,-1.56 1.04,-2.27 0.02,-0.58 -0.33,-0.65 -0.9,-0.65 0.01,-0.45 0.17,-1.25 0.06,-1.97 -0.14,-0.94 -0.89,-1.99 -1.69,-2.45 -0.91,-0.53 -1.27,-0.39 -1.52,-0.55l-1.08 0c-0.02,0.01 -0.05,0.02 -0.06,0.02l-0.97 0.19c-1.04,0.24 -1.76,0.37 -2.47,1.17 -0.75,0.84 -0.08,3.1 0.27,3.83 -1.05,0.02 -0.94,0.84 -0.63,1.62 0.8,2.01 1.11,0.91 1.59,2.3 0.15,0.43 0.28,0.48 0.2,0.88 -0.34,1.72 -0.37,1.67 -1.41,2.48 -0.71,0.55 -0.65,0.72 -1.15,0.75 -2.6,0.14 -3.19,-0.95 -6.18,0.19 -0.77,0.29 -1.02,0.53 -1.97,0.68 -1.26,0.19 -3.42,0.22 -4.65,-0.25 -1.8,-0.68 -1.83,-0.83 -4.36,-0.49 -1.11,0.15 -0.81,-0.19 -2.3,-0.07 -1.44,0.12 -3.13,0.09 -4.88,0.09 -0.24,-0.36 -0.7,-1.18 -1.03,-1.46 -1.14,-0.94 -1.77,-2.9 -2.79,-2.94 -1.38,-0.05 0.67,2.26 0.84,2.99 -0.08,0.12 -0.31,0.3 -0.47,0.36 -0.46,0.17 -2.74,-0.35 -3.36,-0.43 -0.52,-0.06 -0.85,0.12 -1.13,0.31 0,1.01 1.16,0.93 2.52,1.21 0.35,0.07 0.72,0.17 1.04,0.2 -0.21,0.31 -0.12,0.23 -0.43,0.2l-2.97 -0.35c-0.45,-0.01 -0.58,0.31 -0.81,0.49z"/>
  </g>
 </g>
</svg>
