<?xml version="1.0" encoding="UTF-8"?>
<!DOCTYPE svg PUBLIC "-//W3C//DTD SVG 1.1//EN" "http://www.w3.org/Graphics/SVG/1.1/DTD/svg11.dtd">
<!-- Creator: CorelDRAW -->
<svg xmlns="http://www.w3.org/2000/svg" xml:space="preserve" width="17.6921mm" height="17.1935mm" version="1.1" style="shape-rendering:geometricPrecision; text-rendering:geometricPrecision; image-rendering:optimizeQuality; fill-rule:evenodd; clip-rule:evenodd"
viewBox="0 0 76.03 73.89"
 xmlns:xlink="http://www.w3.org/1999/xlink"
 xmlns:xodm="http://www.corel.com/coreldraw/odm/2003">
 <defs>
  <style type="text/css">
   <![CDATA[
    .fil0 {fill:none}
    .fil1 {fill:white}
   ]]>
  </style>
 </defs>
 <g id="Camada_x0020_1">
  <metadata id="CorelCorpID_0Corel-Layer"/>
  <g id="_2369053064496">
   <rect class="fil0" y="0" width="76.03" height="73.89"/>
   <path class="fil1" d="M9.33 21.86c0.63,-0.18 37.83,-0.16 66.7,-0.12l0 -12.31c-4.29,-0 -8.56,-0.03 -12.81,-0.12 -0.19,-0.66 -0.26,-1.1 -0.63,-1.55 -0.62,-0.74 -0.63,-0.16 -0.71,-1.33 -0.1,-1.44 -0.17,-2.25 -0.7,-3.34 -0.75,-1.53 -2.09,-2.51 -3.98,-3.09l-11.29 0c3.71,4.28 13.57,-1.38 13.49,7.21 -0.82,0.47 -0.95,0.96 -1.3,2.11 -13.48,-0.09 -26.99,-0 -40.47,-0 -2.75,0 -7.44,-0.5 -9.45,0.8 -2.55,1.64 -2.29,3.97 -2.29,7.73l-0 40.53c-0.01,3.17 1.52,5.4 4.45,5.7 2.73,0.29 7.05,0.03 9.95,0.03l55.76 0 0 -2.5 -54.5 0c-15.25,0 -13.15,1.08 -13.15,-4.8l-0 -22.69c-0,-0.76 0.14,-1.43 0.07,-2.09l-0.07 -6.67c0,-1.4 -0.38,-3.11 0.95,-3.49zm66.7 2.38l0 6.26c-2.06,-0.12 -1.69,-0.87 -1.69,-4.53 0,-1.52 0.57,-1.72 1.69,-1.73zm0 8.86l0 7.27c-0.62,0.17 -1.72,0.09 -3.65,0.09 -1.1,0 -2.52,0.26 -2.92,-0.79 -0.25,-0.65 -0.11,-2.81 -0.12,-3.69 -0.02,-1.23 -0.22,-2.53 0.81,-2.89 1.02,-0.36 2.49,-0.14 3.64,-0.13 1.08,0.01 1.78,0.01 2.24,0.13zm0 9.82l0 7.5c-0.17,-0.01 -0.34,-0.01 -0.52,-0.01 -2.26,0 -3.67,0.56 -3.67,-1.9 -0,-5.88 -0.82,-5.64 4.18,-5.59zm0 9.95l0 6.25c-0.31,-0 -0.64,-0.01 -0.99,-0.01l-30.36 0c-1.51,0 -4.79,0.55 -5.15,-0.91 -0.13,-0.51 -0.04,-2.33 -0.05,-2.97 -0.01,-1.02 -0.05,-1.93 0.76,-2.25 0.75,-0.29 29.84,-0.13 35.79,-0.12zm-40.74 -28.49c-1.04,0.46 -0.79,1.43 -0.79,2.69 0.01,3.56 -0.26,3.42 3.45,3.42 3.97,0 4.04,0.41 4.03,-2.79 -0.01,-3.45 0.4,-3.45 -3.41,-3.45 -0.91,0 -2.56,-0.19 -3.29,0.13zm19.99 -0.04c-1.09,0.36 -0.87,1.45 -0.87,2.58 0.01,3.69 -0.35,3.58 3.25,3.58 3.94,-0 4.25,0.47 4.24,-2.64 -0.01,-3.53 0.48,-3.61 -3.3,-3.61 -0.91,0 -2.57,-0.15 -3.32,0.09zm9.99 -0.02c-1.08,0.33 -0.92,1.39 -0.91,2.59 0.02,3.56 -0.44,3.58 3.32,3.58 4.07,-0 4.18,0.4 4.17,-2.64 -0,-0.89 0.2,-2.51 -0.26,-3.12 -0.57,-0.75 -2,-0.49 -2.97,-0.49 -0.91,0 -2.6,-0.16 -3.34,0.07zm-20 0.03c-1.02,0.38 -0.82,1.36 -0.82,2.57 0.02,3.83 -0.21,3.58 3.34,3.58 0.77,0 2.74,0.11 3.33,-0.09 0.98,-0.34 0.82,-1.41 0.82,-2.55 -0,-0.94 0.2,-2.57 -0.33,-3.19 -0.51,-0.6 -5.52,-0.62 -6.34,-0.31zm-19.98 0.06c-1.01,0.45 -0.76,1.29 -0.75,2.67 0,0.99 -0.2,2.48 0.34,3.05 0.46,0.48 5.42,0.64 6.37,0.26 0.98,-0.39 0.78,-1.55 0.78,-2.68 -0.01,-3.69 0.14,-3.45 -3.47,-3.45 -0.99,0 -2.45,-0.21 -3.26,0.16zm2.98 33.65c0.18,1.2 1.34,1.07 2.62,1.06 1.25,-0 2.51,-0.01 3.76,0 1.35,0.01 2.24,0.14 2.33,-1.37 0.04,-0.72 0.08,-3.1 -0.02,-3.75 -0.18,-1.26 -1.4,-1.14 -2.63,-1.13 -3.56,0.01 -5.98,-0.59 -6.08,1.42 -0.04,0.74 -0.08,3.11 0.02,3.76zm37.99 -15.13c-4.96,-0.07 -4.42,-0.35 -4.39,4.64 0.01,1.16 -0.22,2.32 0.73,2.71 0.57,0.24 2.75,0.13 3.5,0.13 3.68,0 3.25,-0.04 3.25,-3.63 0,-3.66 0.56,-3.85 -3.1,-3.86zm-44.23 2.3c-0,5.09 -0.46,5.19 2.76,5.19 1.04,0 2.44,0.1 3.44,-0.02 1.36,-0.17 1.32,-0.94 1.32,-2.35 -0,-1.15 0.02,-2.48 -0.02,-3.61 -0.09,-2 -2.12,-1.5 -5.2,-1.5 -2.07,0 -2.29,0.22 -2.3,2.29zm20.84 -2.17c-1.16,0.44 -0.96,1.37 -0.94,2.8 0.07,4.67 -0.46,4.57 3.04,4.56 4.63,-0 4.46,0.39 4.45,-3 -0,-0.75 0.1,-3.15 -0.1,-3.71 -0.37,-1.05 -1.82,-0.77 -2.95,-0.78 -1.08,-0.01 -2.57,-0.23 -3.52,0.13zm10 -0.01c-1.11,0.37 -1.02,0.91 -0.99,2.81 0.08,4.48 -0.54,4.57 2.95,4.56 4.63,-0.01 4.57,0.44 4.57,-3 -0.01,-4.66 0.4,-4.47 -3,-4.49 -1.1,-0.01 -2.55,-0.21 -3.53,0.11zm-11.03 -2.57c5.66,0 5.1,0.52 5.1,-4.16 0,-1.98 0.47,-3.32 -1.81,-3.34 -6.6,-0.05 -5.67,-0.53 -5.67,4.75 0,2.42 -0.13,2.75 2.38,2.75zm8.4 -7.37c-1.06,0.39 -0.86,1.73 -0.84,2.9 0.05,4.44 -0.45,4.48 2.93,4.47 0.75,-0 3.08,0.09 3.64,-0.06 1.21,-0.33 0.93,-1.65 0.93,-2.84 -0,-0.77 0.09,-3.12 -0.07,-3.71 -0.32,-1.14 -1.61,-0.86 -2.94,-0.87 -1.13,-0.01 -2.66,-0.25 -3.65,0.12zm-20.01 0.02c-1.01,0.49 -0.73,1.79 -0.73,3.04 0,0.85 -0.16,2.96 0.13,3.6 0.44,0.96 1.73,0.69 2.98,0.7 0.86,0.01 2.87,0.13 3.57,-0.1 1.03,-0.34 0.85,-1.79 0.83,-2.95 -0.08,-4.45 0.57,-4.43 -3.14,-4.43 -0.95,0 -2.9,-0.22 -3.64,0.13zm34.93 7.36c2.2,-0.02 1.71,-1.42 1.71,-4.94 0,-2.98 -0.45,-2.51 -3.27,-2.55 -2.77,-0.04 -4.1,-0.45 -4.23,1.6 -0.07,1.08 -0.15,4.92 0.33,5.47 0.66,0.74 4.16,0.42 5.46,0.42zm-31.3 9.95l5.61 -0 0.01 -5.65c-0,-2.31 -1.17,-1.83 -5.01,-1.83 -2.95,0 -2.48,0.49 -2.48,3.39 0,2.3 -0.65,4.09 1.87,4.09zm-22.34 -7.38c-1.01,0.52 -0.69,2.28 -0.69,3.44 0,1.08 -0.31,3.05 0.44,3.64 0.58,0.45 6.98,0.55 7.71,0.1 0.87,-0.52 0.57,-2.44 0.57,-3.44 0,-4.31 0.3,-3.86 -4.16,-3.86 -0.63,0 -3.5,-0.09 -3.87,0.1zm0.23 -18.71c-1.27,0.39 -0.92,1.93 -0.92,3.37 -0,1.65 -0.25,2.76 1.58,2.8 10.69,0.27 9.62,0.48 9.63,-3.43 0,-1.76 0.28,-2.78 -1.63,-2.83 -1.21,-0.03 -8.03,-0.1 -8.66,0.09zm13.83 34.2c0.32,-0.49 0.33,-4.44 0.01,-5.04 -0.55,-1.02 -3.35,-0.61 -4.72,-0.61 -1.77,0 -3.55,0 -5.32,0 -1.37,0 -4,-0.38 -4.54,0.63 -0.3,0.55 -0.29,4.49 0.02,5.02 0.6,1.02 3.33,0.6 4.68,0.6 1.77,0 3.55,0 5.32,0 1.38,0 3.91,0.4 4.56,-0.59zm-12.54 -18.06l11.87 0c1.9,0 2.12,-0.39 2.11,-2.28 -0.01,-0.91 0.11,-3.66 -0.08,-4.35 -0.33,-1.21 -2.13,-0.86 -3.57,-0.86l-8.92 0c-4.29,-0 -3.59,-0.35 -3.63,5.21 -0.01,2.06 0.19,2.28 2.22,2.28zm1.3 -24.84c0.58,-0.14 11.31,-0.17 11.86,0.03 1.14,0.41 0.95,2.02 -0.06,2.3 -0.44,0.12 -11.48,0.18 -12.09,-0.05 -0.9,-0.34 -1.12,-1.95 0.28,-2.29z"/>
  </g>
 </g>
</svg>
