<?xml version="1.0" encoding="UTF-8"?>
<!DOCTYPE svg PUBLIC "-//W3C//DTD SVG 1.1//EN" "http://www.w3.org/Graphics/SVG/1.1/DTD/svg11.dtd">
<!-- Creator: CorelDRAW -->
<svg xmlns="http://www.w3.org/2000/svg" xml:space="preserve" width="17.6921mm" height="17.1935mm" version="1.1" style="shape-rendering:geometricPrecision; text-rendering:geometricPrecision; image-rendering:optimizeQuality; fill-rule:evenodd; clip-rule:evenodd"
viewBox="0 0 68.73 66.79"
 xmlns:xlink="http://www.w3.org/1999/xlink"
 xmlns:xodm="http://www.corel.com/coreldraw/odm/2003">
 <defs>
  <style type="text/css">
   <![CDATA[
    .fil0 {fill:none}
    .fil1 {fill:white}
   ]]>
  </style>
 </defs>
 <g id="Camada_x0020_1">
  <metadata id="CorelCorpID_0Corel-Layer"/>
  <g id="_2369044946128">
   <rect class="fil0" x="-0" y="-0" width="68.73" height="66.79"/>
   <path class="fil1" d="M0.07 8.15c0,-4.08 3.54,-8.15 7.57,-8.15l53.52 0c4.16,0 7.57,4.21 7.57,8.36l0 50.5c0,4.38 -3.37,7.93 -8.16,7.93l-53.13 0c-3.99,0 -7.38,-3.81 -7.38,-7.93l0 -50.72zm5.03 3.03c0.02,0.55 -0.03,5.43 0.01,5.52 19.23,0.46 39.1,0 58.4,0l0 -8.11c0,-1.66 -1.28,-3.12 -2.94,-3.12l-52.35 0c-3,0 -3.13,3.42 -3.13,5.72zm0.18 10.97c-0.47,11.35 -0.18,22.98 -0.18,34.37 0.34,1.32 -0.33,1.87 0.6,3.47 0.57,0.98 1.83,1.35 2.91,1.35 7.62,0 15.6,0.07 23.17,0 0,-0.03 0,-0.07 0,-0.09l0 -39.01c0,-0.02 0,-0.06 -0,-0.09 -8.67,-0.08 -17.79,0 -26.51,0zm58.23 0c-8.78,0 -17.97,-0.08 -26.69,0 -0,0.03 -0,0.07 -0,0.09l0 39.01c0,0.02 0,0.06 0,0.09 7.58,0.07 15.55,0 23.17,0 1.69,0 3.52,-0.78 3.52,-2.69l0 -36.5z"/>
  </g>
 </g>
</svg>
