<?xml version="1.0" encoding="UTF-8"?>
<!DOCTYPE svg PUBLIC "-//W3C//DTD SVG 1.1//EN" "http://www.w3.org/Graphics/SVG/1.1/DTD/svg11.dtd">
<!-- Creator: CorelDRAW -->
<svg xmlns="http://www.w3.org/2000/svg" xml:space="preserve" width="17.6921mm" height="17.1935mm" version="1.1" style="shape-rendering:geometricPrecision; text-rendering:geometricPrecision; image-rendering:optimizeQuality; fill-rule:evenodd; clip-rule:evenodd"
viewBox="0 0 62.76 61"
 xmlns:xlink="http://www.w3.org/1999/xlink"
 xmlns:xodm="http://www.corel.com/coreldraw/odm/2003">
 <defs>
  <style type="text/css">
   <![CDATA[
    .fil0 {fill:none}
    .fil1 {fill:white}
   ]]>
  </style>
 </defs>
 <g id="Camada_x0020_1">
  <metadata id="CorelCorpID_0Corel-Layer"/>
  <g id="_2369044913536">
   <rect class="fil0" y="0" width="62.76" height="61"/>
   <path class="fil1" d="M44.94 43.94c0,-1.3 1.21,-1.65 2.28,-1.75 1.19,-0.11 2.43,0.03 3.63,0.03 1.05,0 1.77,0.68 1.75,1.72 -0.01,0.78 -0.51,1.71 -1.39,1.71 -0.69,0 -1.39,0.04 -2.08,0.06 -0.64,0.02 -1.29,0.04 -1.92,-0.01 -1.11,-0.09 -2.27,-0.45 -2.27,-1.77zm-27.7 -23.69c0,-0.98 0.68,-1.81 1.67,-1.9 0.44,-0.04 0.88,0.08 1.21,0.37 0.39,0.34 0.55,0.84 0.55,1.35 0,1.21 0.13,2.44 0.07,3.65 -0.02,0.48 -0.08,1.04 -0.29,1.48 -0.22,0.47 -0.6,0.77 -1.13,0.77 -1.15,0 -1.88,-0.37 -2.07,-1.56 -0.09,-0.55 -0.07,-1.16 -0.06,-1.72 0.02,-0.82 0.05,-1.63 0.05,-2.45zm39.91 -9.48c0,-1 0.72,-1.75 1.71,-1.75 1,0 1.71,0.75 1.71,1.75 0,0.73 0.03,1.45 0.06,2.18 0.02,0.59 0.04,1.21 -0.03,1.79 -0.13,1.17 -0.66,1.93 -1.93,1.93 -1.22,0 -1.52,-1.19 -1.59,-2.18 -0.04,-0.6 -0.02,-1.21 -0,-1.81 0.02,-0.64 0.05,-1.28 0.05,-1.92zm3.43 9.11c0,0.76 0.03,1.53 0.06,2.29 0.02,0.6 0.04,1.24 -0.01,1.84 -0.1,1.1 -0.52,1.96 -1.76,1.96 -1.21,0 -1.65,-0.81 -1.76,-1.91 -0.06,-0.58 -0.03,-1.2 -0.01,-1.78 0.02,-0.74 0.06,-1.48 0.06,-2.22 0,-1.04 0.7,-1.75 1.74,-1.7 0.83,0.04 1.69,0.61 1.69,1.51zm-43.34 -9.11c0,-1.03 0.7,-1.73 1.71,-1.74 0.8,-0.01 1.72,0.48 1.72,1.38 0,0.79 0.03,1.57 0.06,2.36 0.02,0.62 0.05,1.27 -0.01,1.89 -0.1,1.12 -0.51,2.01 -1.77,2.01 -1.3,0 -1.65,-1.21 -1.75,-2.28 -0.11,-1.19 0.03,-2.43 0.03,-3.63zm0 -5.28c0,-1.01 0.28,-1.97 0.88,-2.78 0.49,-0.66 1.18,-1.18 1.96,-1.46 0.64,-0.23 1.41,-0.32 2.06,-0.08 0.69,0.26 1.08,0.84 1.08,1.58 0,0.85 -0.44,1.29 -1.2,1.54 -0.31,0.1 -0.93,0.22 -1.13,0.49 -0.27,0.37 -0.24,0.95 -0.32,1.39 -0.16,0.89 -0.74,1.21 -1.62,1.21 -1.1,0 -1.71,-0.85 -1.71,-1.9zm0 24.06c0,-1.05 0.65,-1.84 1.72,-1.83 0.83,0.01 1.71,0.56 1.71,1.47 0,0.92 0.05,1.84 0.05,2.77 0,0.92 -0.03,1.9 -0.24,2.8l-0.05 0.21 -0.19 0.09c-0.61,0.29 -1.4,0.56 -2.05,0.25 -0.56,-0.27 -0.8,-0.86 -0.91,-1.44 -0.13,-0.65 -0.12,-1.39 -0.1,-2.05 0.02,-0.75 0.06,-1.5 0.06,-2.26zm39.91 0c0,-0.53 0.14,-1.05 0.54,-1.42 0.32,-0.3 0.75,-0.44 1.19,-0.43 0.82,0.02 1.7,0.6 1.7,1.49 0,1.28 0.14,2.6 0.04,3.88 -0.09,1.09 -0.42,2.39 -1.76,2.39 -1.28,0 -1.66,-1.07 -1.76,-2.16 -0.05,-0.6 -0.03,-1.21 -0.01,-1.81 0.02,-0.64 0.06,-1.29 0.06,-1.93zm-30.54 -25.07c-1.02,0 -1.75,-0.68 -1.78,-1.7 -0.03,-0.82 0.46,-1.73 1.37,-1.73l4.97 0c0.9,0 1.46,0.88 1.47,1.71 0.01,1.07 -0.78,1.72 -1.83,1.72l-4.19 0zm9.22 39.47c0,-1.34 1.31,-1.67 2.39,-1.76 1.28,-0.1 2.59,0.04 3.88,0.04 0.95,0 1.47,0.84 1.47,1.71 0,0.87 -0.52,1.71 -1.47,1.71 -0.69,0 -1.39,0.04 -2.08,0.06 -0.64,0.02 -1.29,0.04 -1.92,-0.01 -1.11,-0.09 -2.27,-0.45 -2.27,-1.77zm4.63 -39.47c-0.73,0 -1.45,0.03 -2.18,0.06 -0.59,0.02 -1.21,0.04 -1.79,-0.03 -1.17,-0.13 -1.93,-0.66 -1.93,-1.93 0,-0.99 0.79,-1.53 1.71,-1.53 1.75,0 3.67,-0.21 5.38,0.19l0.21 0.05 0.09 0.19c0.32,0.66 0.52,1.49 0.14,2.17 -0.33,0.59 -0.98,0.83 -1.62,0.83zm-13.74 39.47c0,-1.34 1.31,-1.67 2.39,-1.76 1.28,-0.1 2.59,0.04 3.88,0.04 0.97,0 1.53,0.81 1.52,1.72 -0.01,0.89 -0.57,1.71 -1.52,1.71 -1.28,0 -2.6,0.14 -3.88,0.04 -1.09,-0.09 -2.39,-0.42 -2.39,-1.76zm19.39 -39.47c-1.04,0 -1.8,-0.66 -1.79,-1.72 0,-0.82 0.53,-1.71 1.43,-1.71 1.29,0 2.6,-0.13 3.88,-0.08 0.51,0.02 1.1,0.08 1.57,0.28 0.49,0.21 0.82,0.59 0.82,1.15 0,1.09 -0.25,1.86 -1.44,2.07 -0.55,0.09 -1.19,0.07 -1.76,0.06 -0.9,-0.02 -1.8,-0.05 -2.71,-0.05zm7.94 -2.08c0,-0.76 0.51,-1.17 1.21,-1.31 0.49,-0.09 0.93,-0.04 1.42,-0.04 1.78,0 3.18,1.43 3.72,3.03 0.23,0.68 0.32,1.5 0.06,2.18 -0.3,0.77 -0.97,1.13 -1.77,1.13 -0.92,0 -1.31,-0.6 -1.48,-1.42 -0.07,-0.3 -0.15,-1.11 -0.38,-1.31 -0.15,-0.13 -0.35,-0.17 -0.55,-0.19 -0.29,-0.03 -0.58,-0.02 -0.88,-0.07 -1.08,-0.17 -1.34,-1.01 -1.34,-2.01zm2.08 43.26c-0.34,0 -0.86,0.03 -1.15,-0.16 -0.1,-0.06 -0.17,-0.14 -0.25,-0.22 -0.09,-0.09 -0.19,-0.17 -0.3,-0.24l-0.19 -0.13 -0.01 -1.93 0.2 -0.13c0.38,-0.25 0.79,-0.44 1.23,-0.55 0.29,-0.07 0.58,-0.11 0.87,-0.17 0.13,-0.03 0.27,-0.06 0.36,-0.16 0.14,-0.16 0.2,-0.48 0.23,-0.67 0.07,-0.44 0.07,-0.88 0.05,-1.32 -0.02,-0.42 -0.05,-0.84 -0.02,-1.26 0.07,-1.07 0.62,-1.59 1.72,-1.59 1.01,0 1.55,0.52 1.7,1.5 0.07,0.44 0.06,0.9 0.05,1.35 -0.01,0.53 -0.04,1.07 -0.04,1.6 0,2.42 -2.13,4.08 -4.45,4.08zm-15.24 -19.15c-0.31,0.29 -0.62,0.59 -0.91,0.9 -0.58,0.59 -1.13,1.19 -1.71,1.77 -0.89,0.89 -1.79,1.77 -2.69,2.65 -1.43,1.41 -2.87,2.83 -4.29,4.25 -1.37,1.36 -2.73,2.72 -4.08,4.11 -0.47,0.48 -0.93,0.96 -1.38,1.46 -0.14,0.16 -0.28,0.31 -0.42,0.48 -0.04,0.05 -0.09,0.11 -0.14,0.17l-0.04 12.96c-0,0.57 0.02,1.14 0,1.71 -0.01,0.5 -0.05,1.02 -0.19,1.5 -0.34,1.17 -1.22,1.6 -2.4,1.6l-18.27 0c-1.12,0 -2.26,-0.9 -2.26,-2.08l0 -18.22c0,-0.75 0.39,-1.53 1.05,-1.91 0.48,-0.28 1.92,-0.33 2.48,-0.36 1.39,-0.06 2.79,-0.06 4.18,-0.05 1.46,0.01 2.92,0.03 4.38,0.05 0.58,0.01 1.17,0.02 1.75,0.02 0.39,0 0.79,0.01 1.18,-0 0.32,-0.01 0.6,-0.03 0.89,-0.16 0.34,-0.15 0.55,-0.21 0.94,-0.21 0.23,0 0.55,-0 0.77,0.06 0.16,0.04 0.27,0.12 0.36,0.25 0.11,0.03 0.3,0.05 0.38,0.06 0.34,0.04 0.68,0.04 1.02,0.02 0.27,-0.02 0.55,-0.05 0.82,-0.06 0.65,-0.02 1.16,0.16 1.69,0.47l9.21 -9.28 0.02 -0.01c0.43,-0.36 0.91,-0.76 1.28,-1.18 0.09,-0.1 0.17,-0.21 0.26,-0.31 0.12,-0.14 0.25,-0.26 0.38,-0.38 0.67,-0.6 1.34,-1.19 1.99,-1.81 0.34,-0.32 0.67,-0.65 0.99,-1 0.04,-0.05 0.09,-0.09 0.13,-0.14 -0.74,0.01 -1.47,0.03 -2.21,-0 -1.3,-0.06 -2.23,-0.72 -2.23,-2.09 0,-1.12 0.77,-1.9 1.9,-1.9l7.11 0c1.43,0 2.08,1.14 2.08,2.44l0 6.2c0,0.93 -0.21,1.69 -1.1,2.11 -0.66,0.31 -1.43,0.45 -2.04,-0.06 -0.48,-0.4 -0.69,-1.08 -0.79,-1.67 -0.11,-0.63 -0.12,-1.31 -0.1,-1.95 0,-0.13 0.01,-0.26 0.01,-0.39zm-19.82 15.06c-0.15,-0.02 -0.32,-0.04 -0.44,-0.05 -0.47,-0.04 -0.94,-0.06 -1.4,-0.08 -1.29,-0.04 -2.59,-0.05 -3.88,-0.04 -1.35,0 -2.7,0.02 -4.04,0.04 -0.91,0.01 -1.83,0.03 -2.74,0.03 -0.62,0 -1.18,0.15 -1.8,0.12 -0.1,-0 -0.56,-0.07 -0.65,-0.03 -0.02,0.04 -0.03,0.16 -0.03,0.19l0 14.21c0,0.02 0,0.07 0,0.1 0.04,0 0.08,0 0.1,0l14.76 0c0.02,0 0.08,-0 0.11,-0.01 0.06,-0.13 0.01,-0.84 0.01,-0.99 -0.01,-0.67 -0.01,-1.35 -0.01,-2.02l0 -11.49z"/>
  </g>
 </g>
</svg>
