<?xml version="1.0" encoding="UTF-8"?>
<!DOCTYPE svg PUBLIC "-//W3C//DTD SVG 1.1//EN" "http://www.w3.org/Graphics/SVG/1.1/DTD/svg11.dtd">
<!-- Creator: CorelDRAW -->
<svg xmlns="http://www.w3.org/2000/svg" xml:space="preserve" width="17.6921mm" height="17.1935mm" version="1.1" style="shape-rendering:geometricPrecision; text-rendering:geometricPrecision; image-rendering:optimizeQuality; fill-rule:evenodd; clip-rule:evenodd"
viewBox="0 0 76.03 73.89"
 xmlns:xlink="http://www.w3.org/1999/xlink"
 xmlns:xodm="http://www.corel.com/coreldraw/odm/2003">
 <defs>
  <style type="text/css">
   <![CDATA[
    .fil0 {fill:none}
    .fil1 {fill:white}
   ]]>
  </style>
 </defs>
 <g id="Camada_x0020_1">
  <metadata id="CorelCorpID_0Corel-Layer"/>
  <g id="_2369044951744">
   <rect class="fil0" y="-0" width="76.03" height="73.89"/>
   <path class="fil1" d="M60.92 37.08c-0.1,-0.66 0.59,-2.09 1.97,-2.19 2.64,-0.18 2.96,3.91 0.22,4.1 -1.15,0.08 -2.03,-0.86 -2.19,-1.91zm-26.24 26.93l6.66 0c2.38,0 4.45,0.76 5.69,2.5 0.8,1.12 0.52,0.87 0.97,1.81l-19.99 0c0.15,-0.31 0.18,-0.53 0.37,-0.88 1.27,-2.37 3.39,-3.42 6.29,-3.42zm1.25 -18.6c-0.05,-0.3 0.17,-1.06 0.58,-1.5 1.37,-1.46 3.44,-0.41 3.55,1.25 0.18,2.61 -3.71,2.96 -4.13,0.25zm-4.16 -0.56l0 0.83c0,2.9 2.93,5.83 5.83,5.83l0.83 0c2.9,0 5.83,-2.93 5.83,-5.83 0,-1.63 -0.26,-3.06 -1.29,-4.26 -0.58,-0.69 -1.81,-1.89 -2.88,-1.98l0 -12.08c0.43,0.32 11.7,17.35 11.8,17.77 -0.31,0.47 -1.55,1.83 -2.42,3.14 -2.93,4.41 -3.67,7.01 -4.8,11.86 -2.29,-0.53 -8.8,-0.28 -11.52,-0.28 -0.74,0 -1.21,0.14 -1.81,0.28 -0.37,-1.59 -0.63,-2.95 -1.13,-4.43 -1.38,-4.08 -2.99,-6.5 -5.46,-9.81 -0.27,-0.34 -0.42,-0.43 -0.64,-0.75 0.13,-0.56 1.01,-1.72 1.36,-2.25 0.7,-1.04 10.04,-15.23 10.44,-15.52l0 12.08c-1.74,0.14 -4.16,2.96 -4.16,5.41zm-12.49 0.42c0,0.97 1.09,2.14 1.77,2.81 2.64,2.6 5.4,8.45 6.03,12.3 0.38,2.33 0.38,1.57 -1.03,3.04 -1.64,1.7 -2.6,4.29 -2.6,7.26 0,0.85 0.95,1.8 1.8,1.8l25.54 0c3.09,0 1.8,-6.37 -0.8,-9.06 -1.41,-1.46 -1.41,-0.71 -1.03,-3.04 0.81,-4.98 3.62,-9.86 7.07,-13.48 1.68,-1.77 0.11,-3.25 -1.27,-5.32l-14.77 -22.16c-1.1,-1.67 -2.86,-1.64 -3.89,-0.08l-15.93 23.91c-0.4,0.6 -0.89,1.11 -0.89,2.03zm18.75 -43.87c1.45,0 2.9,0.45 3.91,1.35 0.67,0.6 1.82,1.74 1.91,2.81l17.21 0 0 -2.36c0,-0.85 0.95,-1.8 1.8,-1.8l8.88 0c0.85,0 1.81,0.95 1.81,1.8l0 8.88c0,0.85 -0.95,1.8 -1.81,1.8l-8.88 0c-0.85,0 -1.8,-0.95 -1.8,-1.8l0 -2.36 -8.47 0c0.38,0.52 9.57,5.58 12,17.71 0.19,0.97 0.5,2.66 0.5,3.67 1.07,0.09 2.29,1.29 2.88,1.98 1.02,1.21 1.29,2.63 1.29,4.26 0,2.9 -2.93,5.83 -5.83,5.83l-0.83 0c-2.9,0 -5.83,-2.93 -5.83,-5.83l0 -0.83c0,-2.37 2.13,-4.97 4.03,-5.41 0,-5.41 -3.75,-12.29 -7.95,-15.79l-2.7 -2.02c-3.88,-2.41 -4.92,-2.08 -6.57,-2.87 -0.19,0.82 -1.35,1.97 -2.02,2.42 -3.79,2.59 -8.54,-0.1 -9.08,-2.42 -0.51,0.24 -1.27,0.39 -1.89,0.61 -3.27,1.12 -7.05,3.52 -9.25,6.16 -2.88,3.44 -4.06,5.25 -5.42,9.85 -0.27,0.91 -0.64,3.01 -0.64,4.08 1.89,0.44 4.03,3.04 4.03,5.41l0 0.83c0,2.9 -2.93,5.83 -5.83,5.83l-0.83 0c-2.9,0 -5.83,-2.93 -5.83,-5.83l0 -0.83c0,-2.45 2.42,-5.27 4.16,-5.41 0,-1.93 0.82,-5.3 1.41,-7.06 1.96,-5.86 5.61,-10.4 10.54,-13.9l0.55 -0.42 -8.47 0 0 2.36c0,0.85 -0.95,1.8 -1.8,1.8l-8.88 0c-0.85,0 -1.8,-0.95 -1.8,-1.8l0 -8.88c0,-0.85 0.95,-1.8 1.8,-1.8l8.88 0c0.85,0 1.8,0.95 1.8,1.8l0 2.36 17.21 0c0.09,-1.07 1.29,-2.29 1.98,-2.88 1.01,-0.86 2.43,-1.29 3.86,-1.29zm-27.08 35.68c-0.11,-0.71 0.61,-2.1 1.97,-2.19 2.64,-0.18 2.96,3.91 0.22,4.1 -1.15,0.08 -2.03,-0.86 -2.19,-1.91zm54.28 -31.51l4.16 0 0 4.16 -4.16 0 0 -4.16zm-58.58 0l4.16 0 0 4.16 -4.16 0 0 -4.16zm29.29 2.22c-0.02,-0.11 0.11,-0.67 0.16,-0.81 0.65,-2.01 3.82,-1.76 3.97,0.56 0.17,2.53 -3.7,3.04 -4.13,0.25z"/>
  </g>
 </g>
</svg>
